<svg xmlns="http://www.w3.org/2000/svg" xmlns:xlink="http://www.w3.org/1999/xlink" id="Layer_1" x="0" y="0" version="1.1" viewBox="0 0 128 128" xml:space="preserve" style="enable-background:new 0 0 128 128"><path style="fill:#595858" d="M32,80L20,64h-8c-4.42,0-8,3.58-8,8v44c0,4.42,3.58,8,8,8h8l12-16h20V80H32z"/><g><rect style="fill:#3a3a3a" width="3" height="60" x="16" y="64"/></g><path style="fill:#595858" d="M121.11,73.45L116,76h-16v12h16l5.11,2.55c1.33,0.66,2.89-0.3,2.89-1.79V75.24	C124,73.75,122.44,72.78,121.11,73.45z"/><rect style="fill:#3f3f3f" width="28" height="28" x="64" y="48"/><g style="opacity:.5"><rect style="fill:#787676" width="3" height="28" x="31.5" y="80"/></g><g><g><rect style="fill:#3a3a3a" width="3" height="28" x="40.75" y="80"/></g></g><circle style="fill:#504f4f" cx="48" cy="36" r="32"/><circle style="fill:#504f4f" cx="101" cy="46" r="22"/><path style="fill:#504f4f" d="M104,120H52c-4.42,0-8-3.58-8-8V76c0-4.42,3.58-8,8-8h52c4.42,0,8,3.58,8,8v36	C112,116.42,108.42,120,104,120z"/><g><path style="fill:#3a3a3a" d="M54,94c1.1,0,2,0.9,2,2s-0.9,2-2,2s-2-0.9-2-2S52.9,94,54,94 M54,92c-2.21,0-4,1.79-4,4s1.79,4,4,4 s4-1.79,4-4S56.21,92,54,92z"/><path style="fill:#3a3a3a" d="M54,102c1.1,0,2,0.9,2,2s-0.9,2-2,2s-2-0.9-2-2S52.9,102,54,102 M54,100c-2.21,0-4,1.79-4,4 s1.79,4,4,4s4-1.79,4-4S56.21,100,54,100z"/></g><g><path style="fill:#504f4f" d="M64,107c-1.65,0-3-1.35-3-3v-8c0-1.65,1.35-3,3-3h32c1.65,0,3,1.35,3,3v8c0,1.65-1.35,3-3,3H64z"/><path style="fill:#3a3a3a" d="M96,94.5c0.83,0,1.5,0.67,1.5,1.5v8c0,0.83-0.67,1.5-1.5,1.5H64c-0.83,0-1.5-0.67-1.5-1.5v-8 c0-0.83,0.67-1.5,1.5-1.5H96 M96,91.5H64c-2.48,0-4.5,2.02-4.5,4.5v8c0,2.48,2.02,4.5,4.5,4.5h32c2.48,0,4.5-2.02,4.5-4.5v-8 C100.5,93.52,98.48,91.5,96,91.5L96,91.5z"/></g><g><circle style="fill:#504f4f" cx="48" cy="36" r="22.5"/><path style="fill:#3a3a3a" d="M48,15c11.58,0,21,9.42,21,21s-9.42,21-21,21s-21-9.42-21-21S36.42,15,48,15 M48,12 c-13.25,0-24,10.75-24,24s10.75,24,24,24s24-10.75,24-24S61.25,12,48,12L48,12z"/></g><g><circle style="fill:#504f4f" cx="101" cy="46" r="12.5"/><path style="fill:#3a3a3a" d="M101,35c6.07,0,11,4.93,11,11s-4.93,11-11,11s-11-4.93-11-11S94.93,35,101,35 M101,32 c-7.73,0-14,6.27-14,14s6.27,14,14,14s14-6.27,14-14S108.73,32,101,32L101,32z"/></g><circle style="fill:#636262" cx="48" cy="36" r="8"/><circle style="fill:#636262" cx="101" cy="46" r="8"/><linearGradient id="SVGID_1_" x1="54" x2="54" y1="34.14" y2="30.122" gradientTransform="matrix(1 0 0 -1 0 127.8898)" gradientUnits="userSpaceOnUse"><stop offset="0" style="stop-color:#ff1744"/><stop offset="1" style="stop-color:#d50000"/></linearGradient><circle style="fill:url(#SVGID_1_)" cx="54" cy="96" r="2"/><linearGradient id="SVGID_2_" x1="54" x2="54" y1="26.14" y2="22.12" gradientTransform="matrix(1 0 0 -1 0 127.8898)" gradientUnits="userSpaceOnUse"><stop offset="0" style="stop-color:#76ff03"/><stop offset="1" style="stop-color:#64dd17"/></linearGradient><circle style="fill:url(#SVGID_2_)" cx="54" cy="104" r="2"/></svg>