<svg xmlns="http://www.w3.org/2000/svg" xmlns:xlink="http://www.w3.org/1999/xlink" id="Layer_2" x="0" y="0" version="1.1" viewBox="0 0 128 128" xml:space="preserve" style="enable-background:new 0 0 128 128"><radialGradient id="SVGID_1_" cx="65.983" cy="98.45" r="98.33" gradientUnits="userSpaceOnUse"><stop offset=".283" style="stop-color:#afe4fe"/><stop offset=".702" style="stop-color:#84d4f9"/><stop offset=".965" style="stop-color:#67c9f6"/></radialGradient><path style="fill:url(#SVGID_1_)" d="M116.62,124.26H11.32c-4.15,0-7.52-3.37-7.52-7.52V11.44c0-4.15,3.37-7.52,7.52-7.52h105.3	c4.15,0,7.52,3.37,7.52,7.52v105.3C124.15,120.89,120.78,124.26,116.62,124.26z"/><polygon style="fill:#88babc" points="121.3 62.39 102.3 62.39 102.3 84.25 60.19 84.25 60.19 18.84 28.65 18.84 28.65 84.25 24.17 84.25 24.17 49.13 12.34 49.13 12.34 91.78 21.84 91.78 21.84 117.22 118.97 117.22 118.97 106.11 121.3 106.11"/><rect style="fill:#3f737b" width="2.37" height="7.59" x="32.41" y="25.13"/><rect style="fill:#3f737b" width="2.47" height="7.59" x="37.46" y="25.13"/><polygon style="fill:#3f737b" points="45.27 25.13 42.85 25.13 42.85 32.72 45.21 32.7"/><polygon style="fill:#abd7db" points="50.44 25.13 47.84 25.14 47.91 32.72 50.42 32.72"/><rect style="fill:#abd7db" width="2.37" height="7.59" x="32.41" y="25.13"/><rect style="fill:#abd7db" width="2.47" height="7.59" x="37.46" y="25.13"/><polygon style="fill:#abd7db" points="45.31 25.13 42.85 25.13 42.85 32.72 45.28 32.7"/><polygon style="fill:#abd7db" points="50.44 37.13 47.84 37.14 47.91 44.72 50.42 44.72"/><rect style="fill:#abd7db" width="2.37" height="7.59" x="32.41" y="37.13"/><rect style="fill:#abd7db" width="2.47" height="7.59" x="37.46" y="37.13"/><polygon style="fill:#abd7db" points="45.31 37.13 42.85 37.13 42.85 44.72 45.28 44.7"/><rect style="fill:#abd7db" width="2.37" height="7.59" x="32.41" y="49.13"/><rect style="fill:#abd7db" width="2.47" height="7.59" x="37.46" y="49.13"/><polygon style="fill:#abd7db" points="45.31 49.13 42.85 49.13 42.85 56.72 45.28 56.7"/><polygon style="fill:#abd7db" points="53.36 25.13 53.35 32.72 55.91 32.72 55.91 25.13"/><rect style="fill:#abd7db" width="2.88" height="3.94" x="105.55" y="81.2"/><rect style="fill:#abd7db" width="2.88" height="3.94" x="111.3" y="81.2"/><rect style="fill:#abd7db" width="2.88" height="3.94" x="105.55" y="73.83"/><rect style="fill:#abd7db" width="2.88" height="3.94" x="111.3" y="73.83"/><rect style="fill:#abd7db" width="2.88" height="3.94" x="105.55" y="66.83"/><rect style="fill:#abd7db" width="2.88" height="3.94" x="111.3" y="66.83"/><radialGradient id="SVGID_2_" cx="65.178" cy="11.353" r="124.87" fx="63.749" fy="11.39" gradientUnits="userSpaceOnUse"><stop offset=".558" style="stop-color:#488187"/><stop offset=".675" style="stop-color:#477d83"/><stop offset=".798" style="stop-color:#427078"/><stop offset=".923" style="stop-color:#3b5b66"/><stop offset=".953" style="stop-color:#395561"/></radialGradient><path style="fill:url(#SVGID_2_)" d="M115,49.4c-0.36,0.73,0,42.7,0,42.7H99.13V68.1h-5.11v-7.67h-4.53v-6.51h-8.16v6.84h-5.19	v7.17h-5.36v34.95h-5.04v-39h2.35v-7.44h-2.35V41.03h-2.65l-3.61-11.16h-7.11L48.8,41.03h-2.79v15.41h-2.48v7.44h2.48v39h-7.18	V67.83H17.19V28.47c0,0-13.35-0.09-13.39-0.05v88.32c0,4.15,3.37,7.52,7.52,7.52h105.3c4.15,0,7.52-3.37,7.52-7.52V49.4H115z"/><rect style="fill:#88babc" width="29.97" height="2.35" x="5.71" y="116.21"/><rect style="fill:#88babc" width="29.97" height="2.35" x="5.71" y="107.86"/><rect style="fill:#abd7db" width="29.97" height="2.35" x="5.71" y="99.21"/><rect style="fill:#dcedf6" width="29.97" height="2.35" x="5.71" y="90.86"/><rect style="fill:#dcedf6" width="29.97" height="2.35" x="5.71" y="81.21"/><rect style="fill:#dcedf6" width="29.97" height="2.35" x="5.71" y="72.86"/><rect style="fill:#88babc" width="1.76" height="3.7" x="5.71" y="63.32"/><rect style="fill:#88babc" width="1.76" height="3.7" x="11.71" y="63.32"/><rect style="fill:#abd7db" width="1.76" height="3.7" x="5.71" y="55.89"/><rect style="fill:#abd7db" width="1.76" height="3.7" x="11.71" y="55.89"/><rect style="fill:#dcedf6" width="1.76" height="3.7" x="5.71" y="48.46"/><rect style="fill:#dcedf6" width="1.76" height="3.7" x="11.71" y="48.46"/><rect style="fill:#dcedf6" width="1.76" height="3.7" x="5.71" y="41.03"/><rect style="fill:#dcedf6" width="1.76" height="3.7" x="11.71" y="41.03"/><rect style="fill:#dcedf6" width="1.76" height="3.7" x="5.71" y="33.59"/><rect style="fill:#dcedf6" width="1.76" height="3.7" x="11.71" y="33.59"/><rect style="fill:#dcedf6" width="2.27" height="4.76" x="49.8" y="64.51"/><rect style="fill:#dcedf6" width="2.27" height="4.76" x="55.18" y="64.51"/><rect style="fill:#dcedf6" width="2.27" height="4.76" x="60.36" y="64.51"/><rect style="fill:#dcedf6" width="2.27" height="4.76" x="49.8" y="73.51"/><rect style="fill:#88babc" width="2.27" height="4.76" x="49.8" y="97.7"/><rect style="fill:#88babc" width="2.27" height="4.76" x="55.18" y="97.7"/><rect style="fill:#88babc" width="2.27" height="4.76" x="60.36" y="97.7"/><rect style="fill:#dcedf6" width="2.27" height="4.76" x="55.18" y="73.51"/><rect style="fill:#dcedf6" width="2.27" height="4.76" x="60.36" y="73.51"/><rect style="fill:#abd7db" width="2.27" height="4.76" x="49.8" y="82.51"/><rect style="fill:#abd7db" width="2.27" height="4.76" x="55.18" y="82.51"/><rect style="fill:#abd7db" width="2.27" height="4.76" x="60.36" y="82.51"/><path style="fill:#dcedf6" d="M54.01,53.96h4.66v-6.92c0,0,0.17-2.6-2.35-2.66c-2.37-0.06-2.4,2.6-2.4,2.6S54.07,53.96,54.01,53.96	z"/><rect style="fill:#dcedf6" width="2.27" height="9.69" x="79.85" y="64.16"/><rect style="fill:#dcedf6" width="2.27" height="9.69" x="88.36" y="64.16"/><rect style="fill:#dcedf6" width="2.27" height="9.69" x="84.15" y="64.16"/><rect style="fill:#dcedf6" width="2.27" height="3.09" x="76.37" y="77.58"/><rect style="fill:#dcedf6" width="2.27" height="3.09" x="84.19" y="77.58"/><rect style="fill:#dcedf6" width="2.27" height="3.09" x="92.01" y="77.58"/><rect style="fill:#dcedf6" width="2.27" height="3.09" x="76.37" y="87.58"/><rect style="fill:#dcedf6" width="2.27" height="3.09" x="84.19" y="87.58"/><rect style="fill:#dcedf6" width="2.27" height="3.09" x="92.01" y="87.58"/><rect style="fill:#abd7db" width="2.27" height="3.09" x="76.37" y="97.03"/><rect style="fill:#abd7db" width="2.27" height="3.09" x="84.19" y="97.03"/><rect style="fill:#abd7db" width="2.27" height="3.09" x="92.01" y="97.03"/><rect style="fill:#88babc" width="2.27" height="3.09" x="76.37" y="107.03"/><rect style="fill:#88babc" width="2.27" height="3.09" x="84.19" y="107.03"/><rect style="fill:#88babc" width="2.27" height="3.09" x="92.01" y="107.03"/><rect style="fill:#88babc" width="2.27" height="3.09" x="76.37" y="116.5"/><rect style="fill:#88babc" width="2.27" height="3.09" x="84.19" y="116.5"/><rect style="fill:#88babc" width="2.27" height="3.09" x="92.01" y="116.5"/></svg>