<svg xmlns="http://www.w3.org/2000/svg" xmlns:xlink="http://www.w3.org/1999/xlink" id="图层_1_copy" x="0" y="0" version="1.1" viewBox="0 0 128 128" xml:space="preserve" style="enable-background:new 0 0 128 128"><g><g><path style="fill:#eaa700" d="M31.22,4.78l92.16,92.16c0.87,0.87,0.87,2.29,0,3.17l-21.84,21.84c-0.87,0.87-2.29,0.87-3.17,0 L6.21,29.79c-0.87-0.87-0.87-2.29,0-3.17L28.05,4.78C28.92,3.9,30.34,3.9,31.22,4.78z"/></g><g><path style="fill:#bf8400" d="M31.22,4.78l88.04,88.04c0.87,0.87-19.07,19.47-19.95,20.34l1.01,9.41c0,0-1.08,0.25-1.95-0.63 L6.21,29.79c-0.87-0.87-0.87-2.29,0-3.17L28.05,4.78C28.92,3.9,30.34,3.9,31.22,4.78z"/></g><linearGradient id="SVGID_1_" x1="58.7" x2="58.7" y1="72.594" y2="40.297" gradientTransform="matrix(-0.7071 -0.7071 -0.7071 0.7071 153.3439 56.6399)" gradientUnits="userSpaceOnUse"><stop offset=".546" style="stop-color:#fdd835"/><stop offset=".893" style="stop-color:#f9a825"/></linearGradient><path style="fill:url(#SVGID_1_)" d="M31.22,4.78l89.69,89.69c0.87,0.87,2.86,2.86,2.86,2.86s-2.7,0.14-5.99,3.42 s-16.4,16.4-16.4,16.4c-0.87,0.87-2.29,0.87-3.17,0L8.52,27.47c-0.87-0.87-0.87-2.29,0-3.17L28.05,4.78 C28.92,3.9,30.34,3.9,31.22,4.78z"/><g><g><path style="fill:#795548" d="M72.17,56.85c-0.31,0.31-0.81,0.31-1.12,0l-1.71-1.71c-0.31-0.31-0.31-0.81,0-1.12l5.14-5.14 l2.83,2.83L72.17,56.85z"/><linearGradient id="SVGID_2_" x1="74.444" x2="75.653" y1="51.812" y2="50.509" gradientUnits="userSpaceOnUse"><stop offset="0" style="stop-color:#5d4037;stop-opacity:0"/><stop offset="1" style="stop-color:#5d4037"/></linearGradient><polygon style="fill:url(#SVGID_2_)" points="77.73 51.29 75.74 53.28 72.91 50.45 74.9 48.46"/></g><g><path style="fill:#795548" d="M53.34,38.02c-0.31,0.31-0.81,0.31-1.12,0l-1.71-1.71c-0.31-0.31-0.31-0.81,0-1.12l5.14-5.14 l2.83,2.83L53.34,38.02z"/><linearGradient id="SVGID_3_" x1="55.618" x2="56.827" y1="32.986" y2="31.683" gradientUnits="userSpaceOnUse"><stop offset="0" style="stop-color:#5d4037;stop-opacity:0"/><stop offset="1" style="stop-color:#5d4037"/></linearGradient><polygon style="fill:url(#SVGID_3_)" points="58.9 32.46 56.91 34.45 54.08 31.63 56.07 29.63"/></g><g><path style="fill:#795548" d="M41.32,31.92c-0.31,0.31-0.81,0.31-1.12,0l-2.42-2.42c-0.31-0.31-0.31-0.81,0-1.12l8.52-8.52 l3.54,3.54L41.32,31.92z"/></g><linearGradient id="SVGID_4_" x1="46.193" x2="47.418" y1="23.584" y2="22.265" gradientUnits="userSpaceOnUse"><stop offset="0" style="stop-color:#5d4037;stop-opacity:0"/><stop offset="1" style="stop-color:#5d4037"/></linearGradient><polygon style="fill:url(#SVGID_4_)" points="49.84 23.4 47.85 25.39 44.31 21.86 46.31 19.87"/><g><path style="fill:#795548" d="M91,75.67c-0.31,0.31-0.81,0.31-1.12,0l-1.71-1.71c-0.31-0.31-0.31-0.81,0-1.12l5.14-5.14 l2.83,2.83L91,75.67z"/><linearGradient id="SVGID_5_" x1="93.27" x2="94.479" y1="70.638" y2="69.335" gradientUnits="userSpaceOnUse"><stop offset="0" style="stop-color:#5d4037;stop-opacity:0"/><stop offset="1" style="stop-color:#5d4037"/></linearGradient><polygon style="fill:url(#SVGID_5_)" points="96.55 70.11 94.56 72.11 91.73 69.28 93.73 67.29"/></g><g><path style="fill:#795548" d="M109.82,94.5c-0.31,0.31-0.81,0.31-1.12,0l-1.71-1.71c-0.31-0.31-0.31-0.81,0-1.12l5.14-5.14 l2.83,2.83L109.82,94.5z"/><linearGradient id="SVGID_6_" x1="112.095" x2="113.304" y1="89.463" y2="88.161" gradientUnits="userSpaceOnUse"><stop offset="0" style="stop-color:#5d4037;stop-opacity:0"/><stop offset="1" style="stop-color:#5d4037"/></linearGradient><polygon style="fill:url(#SVGID_6_)" points="115.38 88.94 113.39 90.93 110.56 88.1 112.55 86.11"/></g><g><path style="fill:#795548" d="M60.15,50.75c-0.31,0.31-0.81,0.31-1.12,0l-2.42-2.42c-0.31-0.31-0.31-0.81,0-1.12l8.52-8.52 l3.54,3.54L60.15,50.75z"/></g><linearGradient id="SVGID_7_" x1="65.019" x2="66.244" y1="42.41" y2="41.092" gradientUnits="userSpaceOnUse"><stop offset="0" style="stop-color:#5d4037;stop-opacity:0"/><stop offset="1" style="stop-color:#5d4037"/></linearGradient><polygon style="fill:url(#SVGID_7_)" points="68.67 42.23 66.68 44.22 63.14 40.69 65.13 38.69"/><g><path style="fill:#795548" d="M78.98,69.57c-0.31,0.31-0.81,0.31-1.12,0l-2.42-2.42c-0.31-0.31-0.31-0.81,0-1.12l8.52-8.52 l3.54,3.54L78.98,69.57z"/></g><linearGradient id="SVGID_8_" x1="83.847" x2="85.072" y1="61.238" y2="59.919" gradientUnits="userSpaceOnUse"><stop offset="0" style="stop-color:#5d4037;stop-opacity:0"/><stop offset="1" style="stop-color:#5d4037"/></linearGradient><polygon style="fill:url(#SVGID_8_)" points="87.5 61.06 85.5 63.05 81.97 59.51 83.96 57.52"/><g><path style="fill:#795548" d="M97.8,88.4c-0.31,0.31-0.81,0.31-1.12,0l-2.42-2.42c-0.31-0.31-0.31-0.81,0-1.12l8.52-8.52 l3.54,3.54L97.8,88.4z"/></g><linearGradient id="SVGID_9_" x1="102.671" x2="103.896" y1="80.062" y2="78.744" gradientUnits="userSpaceOnUse"><stop offset="0" style="stop-color:#5d4037;stop-opacity:0"/><stop offset="1" style="stop-color:#5d4037"/></linearGradient><polygon style="fill:url(#SVGID_9_)" points="106.32 79.88 104.33 81.87 100.79 78.34 102.78 76.35"/></g></g><g><path style="fill:#795548" d="M34.52,19.19c-0.31,0.31-0.81,0.31-1.12,0l-1.71-1.71c-0.31-0.31-0.31-0.81,0-1.12l5.14-5.14 l2.83,2.83L34.52,19.19z"/><linearGradient id="SVGID_10_" x1="36.792" x2="38.001" y1="14.16" y2="12.857" gradientUnits="userSpaceOnUse"><stop offset="0" style="stop-color:#5d4037;stop-opacity:0"/><stop offset="1" style="stop-color:#5d4037"/></linearGradient><polygon style="fill:url(#SVGID_10_)" points="40.08 13.64 38.08 15.63 35.26 12.8 37.25 10.81"/></g><g><path style="fill:#795548" d="M34.52,19.19c-0.31,0.31-0.81,0.31-1.12,0l-1.71-1.71c-0.31-0.31-0.31-0.81,0-1.12l5.14-5.14 l2.83,2.83L34.52,19.19z"/><linearGradient id="SVGID_11_" x1="36.792" x2="38.001" y1="14.16" y2="12.857" gradientUnits="userSpaceOnUse"><stop offset="0" style="stop-color:#5d4037;stop-opacity:0"/><stop offset="1" style="stop-color:#5d4037"/></linearGradient><polygon style="fill:url(#SVGID_11_)" points="40.08 13.64 38.08 15.63 35.26 12.8 37.25 10.81"/></g></svg>