<svg xmlns="http://www.w3.org/2000/svg" xmlns:xlink="http://www.w3.org/1999/xlink" id="Layer_1" x="0" y="0" version="1.1" viewBox="0 0 128 128" xml:space="preserve" style="enable-background:new 0 0 128 128"><g><linearGradient id="SVGID_1_" x1="64" x2="64" y1="119.49" y2="39.927" gradientTransform="matrix(1 0 0 -1 0 128)" gradientUnits="userSpaceOnUse"><stop offset=".003" style="stop-color:#424242"/><stop offset=".271" style="stop-color:#353535"/><stop offset=".764" style="stop-color:#131313"/><stop offset="1" style="stop-color:#000"/></linearGradient><path style="fill:url(#SVGID_1_)" d="M120,88H8c-2.21,0-4-1.79-4-4V12c0-2.21,1.79-4,4-4h112c2.21,0,4,1.79,4,4v72 C124,86.21,122.21,88,120,88z"/></g><linearGradient id="SVGID_2_" x1="64" x2="64" y1="119.49" y2="39.927" gradientTransform="matrix(1 0 0 -1 0 128)" gradientUnits="userSpaceOnUse"><stop offset=".001" style="stop-color:#bfbebe"/><stop offset=".15" style="stop-color:#212121;stop-opacity:0"/><stop offset=".776" style="stop-color:#212121;stop-opacity:0"/><stop offset="1" style="stop-color:#bfbebe"/></linearGradient><path style="opacity:.3;fill:url(#SVGID_2_);enable-background:new" d="M120,88H8c-2.21,0-4-1.79-4-4V12c0-2.21,1.79-4,4-4	h112c2.21,0,4,1.79,4,4v72C124,86.21,122.21,88,120,88z"/><linearGradient id="SVGID_3_" x1="4.592" x2="123.936" y1="80" y2="80" gradientTransform="matrix(1 0 0 -1 0 128)" gradientUnits="userSpaceOnUse"><stop offset=".001" style="stop-color:#bfbebe"/><stop offset=".1" style="stop-color:#212121;stop-opacity:0"/><stop offset=".9" style="stop-color:#212121;stop-opacity:0"/><stop offset="1" style="stop-color:#bfbebe"/></linearGradient><path style="opacity:.3;fill:url(#SVGID_3_);enable-background:new" d="M119.83,88h-112c-2.21,0-4-1.79-4-4V12	c0-2.21,1.79-4,4-4h112c2.21,0,4,1.79,4,4v72C123.83,86.21,122.04,88,119.83,88z"/><g><rect style="fill:#76ff03" width="24" height="4" x="12" y="16"/><rect style="fill:#76ff03" width="16" height="4" x="86" y="16"/><rect style="fill:#76ff03" width="8" height="4" x="108" y="16"/><rect style="fill:#76ff03" width="8" height="4" x="20" y="28"/><rect style="fill:#76ff03" width="16" height="4" x="12" y="40"/><rect style="fill:#76ff03" width="8" height="4" x="12" y="52"/><rect style="fill:#76ff03" width="12" height="4" x="98" y="52"/><rect style="fill:#76ff03" width="12" height="4" x="104" y="40"/><rect style="fill:#76ff03" width="16" height="4" x="12" y="64"/><rect style="fill:#76ff03" width="20" height="4" x="96" y="64"/><rect style="fill:#76ff03" width="12" height="4" x="100" y="28"/></g><g id="face"><path id="hair_3_" d="M98.9,79.76c-1.25-2.27,0.34-4.58,3.06-7.44c4.31-4.54,9-15.07,4.64-25.76 c0.03-0.06-0.86-1.86-0.83-1.92l-1.79-0.09c-0.57-0.08-20.26-0.12-39.97-0.12s-39.4,0.04-39.97,0.12c0,0-2.65,1.95-2.63,2.01 c-4.35,10.69,0.33,21.22,4.64,25.76c2.71,2.86,4.3,5.17,3.06,7.44c-1.21,2.21-4.81,2.53-4.81,2.53s0.83,2.26,2.83,3.48 c1.85,1.13,4.13,1.39,5.7,1.43c0,0,6.15,8.51,22.23,8.51l8.95,0l8.95,0c16.08,0,22.23-8.51,22.23-8.51c1.57-0.04,3.85-0.3,5.7-1.43 c2-1.22,2.83-3.48,2.83-3.48S100.11,81.96,98.9,79.76z" style="fill:#543930"/><g id="hairHighlights_1_"><radialGradient id="SVGID_4_" cx="99.638" cy="45.941" r="23.419" gradientTransform="matrix(1 0 0 0.4912 -21.0552 59.4924)" gradientUnits="userSpaceOnUse"><stop offset=".728" style="stop-color:#6d4c41;stop-opacity:0"/><stop offset="1" style="stop-color:#6d4c41"/></radialGradient><path style="fill:url(#SVGID_4_)" d="M63.99,95.7v-9.44L92.56,84l2.6,3.2c0,0-6.15,8.51-22.23,8.51L63.99,95.7z"/><radialGradient id="SVGID_5_" cx="76.573" cy="49.423" r="6.921" gradientTransform="matrix(-0.9057 0.4238 -0.3144 -0.6719 186.5418 79.3297)" gradientUnits="userSpaceOnUse"><stop offset=".663" style="stop-color:#6d4c41"/><stop offset="1" style="stop-color:#6d4c41;stop-opacity:0"/></radialGradient><path style="fill:url(#SVGID_5_)" d="M95.1,83.07c-4.28-6.5,5.21-8.93,5.21-8.93s0.01,0.01,0.01,0.01 c-1.65,2.05-2.4,3.84-1.43,5.61c1.21,2.21,4.81,2.53,4.81,2.53S98.79,86.65,95.1,83.07z"/><radialGradient id="SVGID_6_" cx="94.509" cy="69.002" r="30.399" gradientTransform="matrix(-0.0746 -0.9972 0.8311 -0.0622 33.4179 157.5364)" gradientUnits="userSpaceOnUse"><stop offset=".725" style="stop-color:#6d4c41;stop-opacity:0"/><stop offset="1" style="stop-color:#6d4c41"/></radialGradient><path style="fill:url(#SVGID_6_)" d="M106.62,46.56c4.25,10.35-0.22,21.01-4.41,25.51c-0.57,0.62-3.01,3.01-3.57,4.92 c0,0-9.54-13.31-12.39-21.13c-0.57-1.58-1.1-3.2-1.17-4.88c-0.05-1.26,0.14-2.76,0.87-3.83c0.89-1.31,20.16-1.7,20.16-1.7 C106.11,45.46,106.62,46.56,106.62,46.56z"/><radialGradient id="SVGID_7_" cx="44.31" cy="69.002" r="30.399" gradientTransform="matrix(0.0746 -0.9972 -0.8311 -0.0622 98.35 107.4774)" gradientUnits="userSpaceOnUse"><stop offset=".725" style="stop-color:#6d4c41;stop-opacity:0"/><stop offset="1" style="stop-color:#6d4c41"/></radialGradient><path style="fill:url(#SVGID_7_)" d="M21.4,46.56c-4.25,10.35,0.22,21.01,4.41,25.51c0.58,0.62,3.01,3.01,3.57,4.92 c0,0,9.54-13.31,12.39-21.13c0.58-1.58,1.1-3.2,1.17-4.88c0.05-1.26-0.14-2.76-0.87-3.83c-0.89-1.31-1.93-0.96-3.44-0.96 c-2.88,0-15.49-0.74-16.47-0.74C22.17,45.46,21.4,46.56,21.4,46.56z"/><radialGradient id="SVGID_8_" cx="49.439" cy="45.941" r="23.419" gradientTransform="matrix(-1 0 0 0.4912 98.8783 59.4924)" gradientUnits="userSpaceOnUse"><stop offset=".728" style="stop-color:#6d4c41;stop-opacity:0"/><stop offset="1" style="stop-color:#6d4c41"/></radialGradient><path style="fill:url(#SVGID_8_)" d="M64.03,95.7v-9.44L35.46,84l-2.6,3.2c0,0,6.15,8.51,22.23,8.51L64.03,95.7z"/><radialGradient id="SVGID_9_" cx="26.374" cy="49.423" r="6.921" gradientTransform="matrix(0.9057 0.4238 0.3144 -0.6719 -13.0523 100.6049)" gradientUnits="userSpaceOnUse"><stop offset=".663" style="stop-color:#6d4c41"/><stop offset="1" style="stop-color:#6d4c41;stop-opacity:0"/></radialGradient><path style="fill:url(#SVGID_9_)" d="M32.92,83.07c4.28-6.5-5.21-8.93-5.21-8.93s-0.01,0.01-0.01,0.01 c1.65,2.05,2.4,3.84,1.43,5.61c-1.21,2.21-4.81,2.53-4.81,2.53S29.23,86.65,32.92,83.07z"/></g><g id="ears_2_"><path style="fill:#e59600" d="M91.33,50.34H36.67c-5.89,0-10.71,5.13-10.71,11.41s4.82,11.41,10.71,11.41h54.65 c5.89,0,10.71-5.14,10.71-11.41C102.04,55.48,97.22,50.34,91.33,50.34z"/></g><g id="head_1_"><path style="fill:#ffca28" d="M64,10.98L64,10.98L64,10.98c-17.4,0-33.52,18.61-33.52,45.4c0,26.64,16.61,39.81,33.52,39.81 s33.52-13.17,33.52-39.81C97.52,29.59,81.4,10.98,64,10.98z"/></g><g id="eyebrows_2_"><path style="fill:#6d4c41" d="M54.8,49.72c-0.93-1.23-3.07-3.01-7.23-3.01s-6.31,1.79-7.23,3.01c-0.41,0.54-0.31,1.17-0.02,1.55 c0.26,0.35,1.04,0.68,1.9,0.39s2.54-1.16,5.35-1.18c2.81,0.02,4.49,0.89,5.35,1.18c0.86,0.29,1.64-0.03,1.9-0.39 C55.1,50.9,55.21,50.27,54.8,49.72z"/><path style="fill:#6d4c41" d="M87.67,49.72c-0.93-1.23-3.07-3.01-7.23-3.01s-6.31,1.79-7.23,3.01c-0.41,0.54-0.31,1.17-0.02,1.55 c0.26,0.35,1.04,0.68,1.9,0.39s2.54-1.16,5.35-1.18c2.81,0.02,4.49,0.89,5.35,1.18c0.86,0.29,1.64-0.03,1.9-0.39 C87.97,50.9,88.08,50.27,87.67,49.72z"/></g><g id="eyes_2_"><ellipse style="fill:#404040" cx="47.56" cy="58.72" rx="4.93" ry="5.1"/><ellipse style="fill:#404040" cx="80.44" cy="58.72" rx="4.93" ry="5.1"/></g><path id="mouth_2_" d="M72.42,76.05c-3.18,1.89-13.63,1.89-16.81,0c-1.83-1.09-3.7,0.58-2.94,2.24 c0.75,1.63,6.44,5.42,11.37,5.42s10.55-3.79,11.3-5.42C76.09,76.63,74.25,74.96,72.42,76.05z" style="fill:#795548"/><path id="nose_2_" d="M67.86,67.96c-0.11-0.04-0.21-0.07-0.32-0.08h-7.08c-0.11,0.01-0.22,0.04-0.32,0.08 c-0.64,0.26-0.99,0.92-0.69,1.63c0.3,0.71,1.71,2.69,4.55,2.69s4.25-1.99,4.55-2.69C68.85,68.89,68.5,68.22,67.86,67.96z" style="fill:#e59600"/><path id="hair" d="M104.07,25.02c-2.44-3.69-7.91-8.64-12.82-8.97c-0.79-4.72-5.84-8.72-10.73-10.27 C67.29,1.59,58.68,6.29,54.06,8.81c-0.96,0.52-7.17,3.97-11.51,1.5c-2.72-1.55-2.67-5.74-2.67-5.74s-8.52,3.25-5.61,12.3 c-2.93,0.12-6.77,1.36-8.8,5.47c-2.42,4.9-1.56,8.99-0.86,10.95c-2.52,2.14-5.69,6.69-3.52,12.6c1.64,4.45,8.17,6.5,8.17,6.5 c-0.62,10.74,2.28,15.95,2.28,15.95s4.69-18.45,4.3-21.27c0,0,7.76-1.54,16.57-6.58c5.95-3.41,10.02-7.4,16.71-8.91 c10.18-2.29,12.45,5.08,12.45,5.08s9.42-1.81,12.26,11.27c1.17,5.38,1.93,14.3,2.57,19.77c-0.06-0.48,3.24-6.33,3.86-12.33 c0.16-1.55,4.34-3.6,6.14-10.26C108.79,36.23,105.84,27.69,104.07,25.02z" style="fill:#543930"/><g id="hairHighlights"><radialGradient id="SVGID_10_" cx="82.019" cy="85.037" r="35.633" gradientTransform="matrix(0.3076 0.9515 0.706 -0.2282 -3.248 -15.675)" gradientUnits="userSpaceOnUse"><stop offset=".699" style="stop-color:#6d4c41;stop-opacity:0"/><stop offset="1" style="stop-color:#6d4c41"/></radialGradient><path style="fill:url(#SVGID_10_)" d="M100.22,55.41c0.16-1.55,4.34-3.6,6.14-10.26c0.19-0.71,0.35-1.43,0.5-2.15 c1.46-8.09-1.16-15.52-2.79-17.98c-2.26-3.41-7.1-7.89-11.69-8.81c-0.4-0.05-0.79-0.1-1.16-0.12c0,0,0.33,2.15-0.54,3.86 c-1.12,2.22-3.41,2.75-3.41,2.75C99.24,34.67,98.39,44.7,100.22,55.41z"/><radialGradient id="SVGID_11_" cx="47.28" cy="123.891" r="9.343" gradientTransform="matrix(0.8813 0.4726 0.5603 -1.045 -63.8032 111.2318)" gradientUnits="userSpaceOnUse"><stop offset=".58" style="stop-color:#6d4c41"/><stop offset="1" style="stop-color:#6d4c41;stop-opacity:0"/></radialGradient><path style="fill:url(#SVGID_11_)" d="M56.95,7.3c-1.1,0.53-2.06,1.06-2.9,1.51c-0.96,0.52-7.17,3.97-11.51,1.5 c-2.67-1.52-2.67-5.58-2.67-5.72c-1.23,1.57-4.95,12.78,5.93,13.53c4.69,0.32,7.58-3.77,9.3-7.23C55.72,9.62,56.69,7.79,56.95,7.3 z"/><radialGradient id="SVGID_12_" cx="158.966" cy="62.813" r="28.696" gradientTransform="matrix(-0.9378 -0.3944 -0.2182 0.5285 230.9323 50.5742)" gradientUnits="userSpaceOnUse"><stop offset=".699" style="stop-color:#6d4c41;stop-opacity:0"/><stop offset="1" style="stop-color:#6d4c41"/></radialGradient><path style="fill:url(#SVGID_12_)" d="M79.16,5.38c7.32,1.98,11.23,5.87,12.08,10.68c0.26,1.48,0.77,15.08-25.23-0.4 c-9.67-5.76-7.03-9.36-5.9-9.77C64.53,4.29,70.96,3.16,79.16,5.38z"/><radialGradient id="SVGID_13_" cx="43.529" cy="115.367" r="8.575" gradientTransform="matrix(1 0 0 -1.2233 0 153.7618)" gradientUnits="userSpaceOnUse"><stop offset=".702" style="stop-color:#6d4c41;stop-opacity:0"/><stop offset="1" style="stop-color:#6d4c41"/></radialGradient><path style="fill:url(#SVGID_13_)" d="M39.84,4.59c-0.01,0.01-0.03,0.01-0.06,0.03c0,0,0,0-0.01,0 c-0.93,0.39-8.24,3.78-5.51,12.26l7.78,1.25c-6.89-6.98-2.17-13.55-2.17-13.55S39.85,4.58,39.84,4.59z"/><radialGradient id="SVGID_14_" cx="42.349" cy="100.23" r="16.083" gradientTransform="matrix(-0.9657 -0.2598 -0.2432 0.9037 107.6205 -51.8051)" gradientUnits="userSpaceOnUse"><stop offset=".66" style="stop-color:#6d4c41;stop-opacity:0"/><stop offset="1" style="stop-color:#6d4c41"/></radialGradient><path style="fill:url(#SVGID_14_)" d="M39.07,17.64l-4.81-0.77c-0.19,0-0.83,0.06-1.18,0.11c-2.71,0.38-5.9,1.78-7.63,5.36 c-1.86,3.86-1.81,7.17-1.3,9.38c0.15,0.74,0.45,1.58,0.45,1.58s2.38-2.26,8.05-2.41L39.07,17.64z"/><radialGradient id="SVGID_15_" cx="38.533" cy="84.7" r="16.886" gradientTransform="matrix(0.9907 0.1363 0.1915 -1.3921 -15.859 155.9584)" gradientUnits="userSpaceOnUse"><stop offset=".598" style="stop-color:#6d4c41;stop-opacity:0"/><stop offset="1" style="stop-color:#6d4c41"/></radialGradient><path style="fill:url(#SVGID_15_)" d="M24.37,33.49c-2.37,2.1-5.56,6.79-3.21,12.61c1.77,4.39,8.09,6.29,8.09,6.29 c0,0.02,1.26,0.4,1.91,0.4l1.48-21.9c-3.03,0-5.94,0.91-7.82,2.22C24.85,33.14,24.36,33.46,24.37,33.49z"/></g></g><g id="sleeve"><g><linearGradient id="SVGID_16_" x1="5.625" x2="22.467" y1="9.825" y2="9.825" gradientTransform="matrix(1 0 0 -1 0 128)" gradientUnits="userSpaceOnUse"><stop offset="0" style="stop-color:#fb8c00"/><stop offset=".482" style="stop-color:#f67f00"/><stop offset="1" style="stop-color:#ef6c00"/></linearGradient><path style="fill:url(#SVGID_16_)" d="M7.63,123.98h12.83c1.12-0.09,2.01-1.18,2.01-2.52v-0.65c0-3.58-1.61-6.71-4.02-8.45 c0,0.15,0.01,0.3,0.01,0.45c0,4.1-1.98,7.42-4.41,7.42s-4.41-3.32-4.41-7.42c0-0.15,0.01-0.3,0.01-0.45 c-2.41,1.75-4.02,4.87-4.02,8.45v0.65C5.62,122.81,6.51,123.89,7.63,123.98z"/></g><g><path style="fill:#e14301" d="M14.05,120.24c9,0,4.41-3.32,4.41-7.42c0-0.15-0.01-0.3-0.01-0.45c-1.28-0.93-2.79-1.48-4.4-1.48 s-3.12,0.55-4.4,1.48c-0.01,0.15-0.01,0.3-0.01,0.45C9.63,116.92,5,120.24,14.05,120.24z"/></g></g><g id="hand_1_"><linearGradient id="SVGID_17_" x1="20.428" x2="10.747" y1="15.083" y2="28.86" gradientTransform="matrix(1 0 0 -1 0 128)" gradientUnits="userSpaceOnUse"><stop offset="0" style="stop-color:#ffb300"/><stop offset=".5" style="stop-color:#ffca28"/></linearGradient><path style="fill:url(#SVGID_17_)" d="M27.98,106.8c-0.11-2.84-2.23-8.7-5-9.19c-0.17-0.03-0.32-0.11-0.41-0.25 c-0.44-0.67-1.85-2.47-4.43-1.05c-0.96,0.53-1.3,1-1.14,1.68c-0.12,0.14-0.34,0.31-0.66,0.18c-1.04-1.16-2.32-1.4-3.81-0.24 c-1.69,1.32-1.69,2.26-1.39,3.19l-0.01,0.01c0,0-0.07,0.65-0.56,0.6c-0.51-0.44-1.12-0.44-2.09,0.26c-2.6,1.88-1.53,3.66-1.09,4.71 c-0.06,0.1-0.16,0.17-0.32,0.16c-0.34-0.18-0.77-0.18-1.35,0.15c-1.38,0.79-1.18,3.39-0.79,4.24c0.43,0.93,2.8,4.19,3.61,5.11 c0.19,0.21,0.42,0.36,0.67,0.46c-0.03-0.01-0.06-0.02-0.08-0.03c0.71,0.44,1.95,0.97,3.16,0.22c0,0,0.77-0.56,0.84-1.15 c1.31,0.73,3.12-0.63,3.12-0.63c0.85-0.65,1.07-1.38,1.04-2.01l0,0c0.43,0.26,0.9,0.36,1.35,0.37c1.36,0.04,2.61-0.76,2.61-0.76 c1.95-1.11,2.34-2.27,2.33-3.04c1.01,0.63,2.26,0.16,2.26,0.16C28.05,108.95,27.98,106.8,27.98,106.8z"/></g><g><linearGradient id="SVGID_18_" x1="99.203" x2="120.799" y1="9.152" y2="9.152" gradientTransform="matrix(1 0 0 -1 0 128)" gradientUnits="userSpaceOnUse"><stop offset="0" style="stop-color:#fb8c00"/><stop offset=".482" style="stop-color:#f67f00"/><stop offset="1" style="stop-color:#ef6c00"/></linearGradient><path style="fill:url(#SVGID_18_)" d="M107.96,123.98h12.84c0,0,0.56-9.79-15.16-10.26C89.91,113.26,107.96,123.98,107.96,123.98z"/></g><g id="hand"><linearGradient id="SVGID_19_" x1="141.622" x2="131.942" y1="10.24" y2="24.017" gradientTransform="matrix(-1 0 0 -1 248.6394 128)" gradientUnits="userSpaceOnUse"><stop offset="0" style="stop-color:#ffb300"/><stop offset=".5" style="stop-color:#ffca28"/></linearGradient><path style="fill:url(#SVGID_19_)" d="M99.46,111.64c0.11-2.84,2.23-8.7,5-9.19c0.17-0.03,0.32-0.11,0.41-0.25 c0.44-0.67,1.85-2.47,4.43-1.05c0.96,0.53,1.3,1,1.14,1.68c0.12,0.14,0.34,0.31,0.66,0.18c1.04-1.16,2.32-1.4,3.81-0.24 c1.69,1.32,1.69,2.26,1.39,3.19l0.01,0.01c0,0,0.07,0.65,0.56,0.6c0.51-0.44,1.12-0.44,2.09,0.26c2.6,1.88,1.53,3.66,1.09,4.71 c0.06,0.1,0.15,0.17,0.32,0.16c0.34-0.18,0.77-0.18,1.35,0.15c1.38,0.79,1.18,3.39,0.79,4.24c-0.43,0.93-2.79,4.19-3.61,5.11 c-0.19,0.21-0.42,0.36-0.67,0.46c0.03-0.01,0.06-0.02,0.08-0.03c-0.71,0.44-1.95,0.97-3.16,0.22c0,0-0.77-0.56-0.84-1.15 c-1.31,0.73-3.12-0.63-3.12-0.63c-0.85-0.65-1.07-1.38-1.04-2.01l0,0c-0.43,0.26-0.9,0.36-1.35,0.37 c-1.36,0.04-2.61-0.76-2.61-0.76c-1.95-1.11-2.34-2.27-2.33-3.04c-1.01,0.63-2.26,0.16-2.26,0.16 C99.39,113.79,99.46,111.64,99.46,111.64z"/></g><path id="tone_1_" d="M116.24,121.56c-0.17-0.09-0.33-0.19-0.48-0.32c-0.02-0.02-0.05-0.04-0.07-0.07	c-0.28-0.31-0.36-0.81,0.37-1.81c2-2.65,2.79-4.63,2.79-4.63c0.55-1.39,0.35-1.62,0.35-1.62c-0.19-0.31-0.58,0.59-0.58,0.59	c-1.98,3.57-3.34,5.13-3.93,5.71c-0.03,0.02-0.06,0.04-0.09,0.05c-0.11,0.07-0.23,0.14-0.36,0.19c-0.05,0.02-0.11,0.04-0.16,0.06	c-0.11,0.04-0.23,0.06-0.35,0.08c-0.06,0.01-0.12,0.02-0.19,0.02c-0.13,0-0.26-0.01-0.4-0.04c-0.06-0.01-0.12-0.01-0.18-0.03	c-0.2-0.06-0.41-0.13-0.62-0.26c-0.1-0.06-0.19-0.12-0.28-0.19c-0.04-0.04-0.09-0.08-0.13-0.12c-0.04-0.04-0.09-0.08-0.13-0.12	c-0.05-0.06-0.1-0.13-0.15-0.19c-0.02-0.03-0.05-0.06-0.07-0.1c-0.05-0.08-0.09-0.16-0.13-0.25c-0.01-0.03-0.03-0.06-0.04-0.09	c-0.04-0.09-0.06-0.19-0.08-0.29c-0.01-0.03-0.02-0.06-0.03-0.09c-0.02-0.1-0.02-0.21-0.03-0.31c0-0.04-0.01-0.07-0.01-0.1	c0-0.11,0.02-0.22,0.04-0.33c0.01-0.04,0.01-0.08,0.02-0.13c0.02-0.11,0.07-0.22,0.11-0.34c0.02-0.05,0.03-0.1,0.05-0.14	c2.28-3.22,3.46-6.03,3.46-6.03c0.38-0.78,0.52-1.6,0.52-1.6c-0.25-0.46-0.65,0.21-0.65,0.21c-2.6,4.84-4.14,6.78-4.14,6.78	s-1.21,2.11-3.86,0.53c0,0-1.31-0.84-1.53-1.43c-0.19-0.49-0.31-1.36,0.36-2.6c0,0,1.59-3.25,4.21-7.34c0,0,0.17-0.64-0.42-0.28	c-0.46,0.28-0.79,0.86-0.95,1.04c0,0-1.55,2.07-3.8,6.2c0,0-0.5,0.95-1.08,1.42c-0.57,0.24-1.29,0.15-2.08-0.44	c-1.71-1.28-1.07-3.07-0.12-4.91c0.52-1,1.71-3.25,2.84-5.05c0.11-0.04,0.22-0.08,0.33-0.1c0.36-0.06,0.65-0.25,0.83-0.53	c0.9-1.37,0.19-2.61-1.07-0.7c-3.16,0.54-5.4,6.72-5.51,9.77c0,0,0,0,0,0c0,0.11-0.05,2.59,2.51,3.73c0.08,0.03,1.01,0.37,2.01,0.14	c0.25,0.83,0.93,1.8,2.52,2.71c0.03,0.02,1.42,0.87,2.94,0.85c0.28-0.01,0.56-0.04,0.82-0.11c0.16,0.52,0.5,1.09,1.18,1.61	c0.08,0.06,1.64,1.23,3.14,0.93c0.29,0.46,0.71,0.78,0.82,0.86c0.46,0.29,0.95,0.44,1.45,0.48h0.45c0.64-0.04,1.31-0.26,1.97-0.67	c0.01,0,0.01-0.01,0.02-0.01c1.55-1.06,3.78-5.49,3.78-5.94C122.43,116.2,119.07,122.04,116.24,121.56z" style="fill:#eda600"/><path id="tone" d="M28.43,106.24C28.43,106.24,28.43,106.24,28.43,106.24c-0.12-3.05-2.36-9.23-5.51-9.77	c-1.25-1.91-1.97-0.67-1.07,0.7c0.18,0.28,0.48,0.46,0.83,0.53c0.11,0.02,0.22,0.06,0.33,0.1c1.13,1.8,2.32,4.06,2.84,5.05	c0.95,1.83,1.58,3.62-0.12,4.91c-0.79,0.59-1.5,0.68-2.08,0.44c-0.57-0.47-1.08-1.42-1.08-1.42c-2.25-4.13-3.8-6.2-3.8-6.2	c-0.16-0.18-0.48-0.75-0.95-1.04c-0.59-0.36-0.42,0.28-0.42,0.28c2.62,4.08,4.21,7.34,4.21,7.34c0.68,1.24,0.56,2.11,0.36,2.6	c-0.22,0.59-1.53,1.43-1.53,1.43c-2.64,1.58-3.86-0.53-3.86-0.53s-1.55-1.94-4.14-6.78c0,0-0.41-0.67-0.65-0.21	c0,0,0.14,0.82,0.52,1.6c0,0,1.18,2.8,3.46,6.03c0.02,0.05,0.03,0.1,0.05,0.14c0.04,0.11,0.08,0.23,0.11,0.34	c0.01,0.04,0.01,0.08,0.02,0.13c0.02,0.11,0.04,0.22,0.04,0.33c0,0.04-0.01,0.07-0.01,0.1c0,0.11-0.01,0.21-0.03,0.31	c-0.01,0.03-0.02,0.06-0.02,0.09c-0.02,0.1-0.05,0.2-0.09,0.29c-0.01,0.03-0.03,0.06-0.04,0.09c-0.04,0.08-0.08,0.17-0.13,0.25	c-0.02,0.03-0.05,0.06-0.07,0.1c-0.05,0.07-0.1,0.13-0.15,0.19c-0.04,0.04-0.09,0.08-0.13,0.12c-0.04,0.04-0.08,0.08-0.13,0.12	c-0.09,0.07-0.19,0.14-0.28,0.19c-0.22,0.12-0.43,0.21-0.62,0.26c-0.06,0.02-0.12,0.02-0.19,0.03c-0.14,0.02-0.27,0.04-0.4,0.04	c-0.06,0-0.13-0.01-0.19-0.02c-0.12-0.02-0.24-0.04-0.35-0.08c-0.05-0.02-0.11-0.04-0.16-0.06c-0.12-0.05-0.24-0.12-0.36-0.19	c-0.03-0.02-0.06-0.03-0.09-0.05c-0.59-0.58-1.95-2.14-3.93-5.71c0,0-0.39-0.9-0.58-0.59c0,0-0.2,0.24,0.35,1.62	c0,0,0.79,1.98,2.79,4.63c0.73,1,0.65,1.5,0.37,1.81c-0.02,0.02-0.05,0.04-0.07,0.07c-0.14,0.13-0.31,0.23-0.48,0.32	c-2.83,0.49-6.2-5.36-6.2-5.36c0,0.46,2.23,4.89,3.78,5.94c0.01,0,0.01,0.01,0.02,0.01c0.66,0.41,1.32,0.63,1.97,0.67h0.45	c0.51-0.04,1-0.19,1.45-0.48c0.11-0.08,0.53-0.41,0.82-0.86c1.5,0.3,3.07-0.87,3.14-0.93c0.68-0.52,1.02-1.09,1.18-1.61	c0.26,0.07,0.53,0.11,0.82,0.11c1.52,0.03,2.91-0.83,2.94-0.85c1.59-0.9,2.27-1.88,2.52-2.71c1,0.22,1.93-0.11,2.01-0.14	C28.49,108.83,28.44,106.35,28.43,106.24z" style="fill:#eda600"/><g id="computerscreen"><g><linearGradient id="SVGID_20_" x1="64" x2="64" y1="53.474" y2="-14.939" gradientTransform="matrix(1 0 0 -1 0 128)" gradientUnits="userSpaceOnUse"><stop offset="0" style="stop-color:#4dd0e1"/><stop offset="1" style="stop-color:#00bcd4"/></linearGradient><path style="fill:url(#SVGID_20_)" d="M110,123.98V81.17c0-3.58-2.92-6.5-6.5-6.5h-79c-3.58,0-6.5,2.92-6.5,6.5v42.82H110z"/></g><linearGradient id="SVGID_21_" x1="63.999" x2="63.999" y1="35.404" y2="-3.874" gradientTransform="matrix(1 0 0 -1 0 128)" gradientUnits="userSpaceOnUse"><stop offset="0" style="stop-color:#00bcd4"/><stop offset="1" style="stop-color:#0097a7"/></linearGradient><path style="fill:url(#SVGID_21_)" d="M78.99,123.98c-0.61-1.93-1.41-4.11-2.09-6.43c-1.37-4.66-1.94-12.44-2.18-17.87 c-0.15-3.43-2.99-6.14-6.45-6.14h-8.55c-3.46,0-6.3,2.7-6.45,6.14c-0.24,5.43-0.81,13.21-2.18,17.87c-0.68,2.32-1.47,4.5-2.09,6.43 H78.99z"/></g></svg>