<svg xmlns="http://www.w3.org/2000/svg" xmlns:xlink="http://www.w3.org/1999/xlink" id="レイヤー_1" x="0" y="0" version="1.1" viewBox="0 0 128 128" xml:space="preserve" style="enable-background:new 0 0 128 128"><linearGradient id="SVGID_1_" x1="131.76" x2="33.399" y1="126.944" y2="21.898" gradientTransform="matrix(0.9948 0.035 0.0441 -0.9944 -18.6329 133.5839)" gradientUnits="userSpaceOnUse"><stop offset="0" style="stop-color:#fff;stop-opacity:0"/><stop offset=".157" style="stop-color:#d3f0f9;stop-opacity:.1566"/><stop offset=".365" style="stop-color:#9fdff3;stop-opacity:.3654"/><stop offset=".561" style="stop-color:#76d2ee;stop-opacity:.5612"/><stop offset=".738" style="stop-color:#58c8ea;stop-opacity:.7383"/><stop offset=".89" style="stop-color:#46c2e8;stop-opacity:.8904"/><stop offset="1" style="stop-color:#40c0e7"/></linearGradient><path style="fill:url(#SVGID_1_)" d="M28.8,123.12c-7.67,5.38-17.35,6.15-23.57-0.86s-4.82-16.55,0.64-24.32	C16.49,82.85,83.8,1.31,83.8,1.31s21.18-3.99,34,11.33s9.01,35.08,9.01,35.08S44.33,112.24,28.8,123.12z"/><path style="fill:#ed6c30" d="M80.24,53.33"/><path style="fill:#ed6c30" d="M85.09,48.85"/><path style="fill:#ed6c30" d="M74.16,43.72"/><path style="fill:#ed6c30" d="M72.47,43.11"/><path style="fill:#ed6c30" d="M72.06,41.14"/><path style="fill:#ed6c30" d="M72.67,40.58"/><linearGradient id="SVGID_2_" x1="128.057" x2="29.532" y1="127.852" y2="23.968" gradientTransform="matrix(0.9989 0.0469 0.0469 -0.9989 -18.6484 137.6311)" gradientUnits="userSpaceOnUse"><stop offset="0" style="stop-color:#fff;stop-opacity:0"/><stop offset="1" style="stop-color:#b388ff"/></linearGradient><path style="opacity:.5;fill:url(#SVGID_2_);enable-background:new" d="M3.7,106.8c6.52-9.74,33.69-41.77,49.65-55.79	C69.31,37,74.04,32.55,88.93,21.64c3.5-2.56,14.38-2.51,18.6,2.92c4.73,6.08,3.24,14.42,1.28,17.76	c-1.41,2.4-20.34,24.63-32.45,35.35s-50.52,45.07-56.8,48.04c-6.28,2.96-11.61-0.81-14.53-3.68C2.11,119.15,0.92,110.97,3.7,106.8z"/><linearGradient id="SVGID_3_" x1="96.523" x2="32.67" y1="90.361" y2="27.635" gradientTransform="matrix(0.9992 0.0397 0.0397 -0.9992 -15.8837 136.3304)" gradientUnits="userSpaceOnUse"><stop offset="0" style="stop-color:#fff;stop-opacity:0"/><stop offset="1" style="stop-color:#e0f7fa"/></linearGradient><path style="fill:url(#SVGID_3_)" d="M6.93,107.4c0,0,29.01-25.87,46.35-39.39c37.44-29.21,20.74-5.81-33.05,52.38	C20.23,120.38,9.49,124.16,6.93,107.4z"/><path style="fill:#e0f7fa" d="M19.54,108.15c3.41,3.84,3.18,9.83-0.51,13.38c-3.69,3.55-9.45,3.31-12.86-0.53	s-3.18-9.83,0.51-13.38C10.38,104.07,16.13,104.31,19.54,108.15z"/><g><circle style="fill:#fff" cx="21" cy="116" r="1"/><circle style="fill:#fff" cx="19" cy="102" r="1"/><circle style="fill:#fff" cx="19" cy="92.25" r="1"/><circle style="fill:#fff" cx="11" cy="116" r="1.75"/><circle style="fill:#fff" cx="24" cy="107" r="1.75"/><circle style="fill:#fff" cx="30" cy="97.75" r="1.75"/><circle style="fill:#fff" cx="12.75" cy="108.75" r="1.75"/><circle style="fill:#fff" cx="40.2" cy="103" r="1"/><circle style="fill:#fff" cx="52.5" cy="90.5" r="1.25"/><circle style="fill:#fff" cx="43.25" cy="91" r="1.25"/><circle style="fill:#fff" cx="71.25" cy="63" r="1.25"/><circle style="fill:#fff" cx="52.25" cy="75" r="1.25"/><circle style="fill:#fff" cx="41" cy="75" r="1.25"/><circle style="fill:#fff" cx="107" cy="36.25" r="1.25"/><circle style="fill:#fff" cx="91" cy="35.75" r="1.25"/><circle style="fill:#fff" cx="90.75" cy="48" r="1.25"/><circle style="fill:#fff" cx="63.25" cy="57" r="1.25"/><circle style="fill:#fff" cx="67" cy="84" r="1"/><circle style="fill:#fff" cx="67" cy="72" r="1"/><circle style="fill:#fff" cx="46" cy="64" r="1"/><circle style="fill:#fff" cx="38" cy="67" r="1"/><circle style="fill:#fff" cx="72" cy="42" r="1"/><circle style="fill:#fff" cx="56.5" cy="58.5" r="1.25"/><circle style="fill:#fff" cx="53" cy="56" r="1"/><circle style="fill:#fff" cx="31.75" cy="111.5" r="1"/><circle style="fill:#fff" cx="33" cy="78" r="1"/><circle style="fill:#fff" cx="30" cy="87.09" r="1"/></g></svg>