<?xml version="1.0" encoding="UTF-8" standalone="no"?>
<svg
   id="emoji"
   viewBox="0 0 50 50"
   version="1.1"
   sodipodi:docname="0038-fe0f-20e3.svg"
   width="50"
   height="50"
   xmlns:inkscape="http://www.inkscape.org/namespaces/inkscape"
   xmlns:sodipodi="http://sodipodi.sourceforge.net/DTD/sodipodi-0.dtd"
   xmlns="http://www.w3.org/2000/svg"
   xmlns:svg="http://www.w3.org/2000/svg">
  <defs
     id="defs3" />
  <sodipodi:namedview
     id="namedview3"
     pagecolor="#ffffff"
     bordercolor="#000000"
     borderopacity="0.25"
     inkscape:showpageshadow="2"
     inkscape:pageopacity="0.0"
     inkscape:pagecheckerboard="0"
     inkscape:deskcolor="#d1d1d1" />
  <g
     id="color"
     transform="translate(-11,-11.1663)">
    <rect
       x="11.75"
       y="12.4163"
       width="48"
       height="47.834"
       fill="#d0cfce"
       id="rect1" />
  </g>
  <g
     id="line"
     transform="translate(-11,-11.1663)">
    <rect
       x="12"
       y="12.1663"
       width="48"
       height="48"
       fill="none"
       stroke="#000000"
       stroke-linecap="round"
       stroke-linejoin="round"
       stroke-width="2"
       id="rect2" />
    <path
       fill="none"
       stroke="#000000"
       stroke-linecap="round"
       stroke-linejoin="round"
       stroke-width="2"
       d="m 31.3392,40.518 v 0 a 4.3461,4.3461 0 0 0 4.3459,4.3459 h 0.63 A 4.3459,4.3459 0 0 0 40.661,40.518 v 0 a 4.346,4.346 0 0 0 -4.3459,-4.3459 h -0.63 a 4.3462,4.3462 0 0 0 -4.3459,4.3459 z"
       id="path2" />
    <path
       fill="none"
       stroke="#000000"
       stroke-linecap="round"
       stroke-linejoin="round"
       stroke-width="2"
       d="m 31.3392,31.8143 v 0 a 4.346,4.346 0 0 0 4.3459,4.3457 h 0.63 a 4.3458,4.3458 0 0 0 4.3459,-4.3459 v 0 a 4.3458,4.3458 0 0 0 -4.3459,-4.3456 h -0.63 a 4.346,4.346 0 0 0 -4.3459,4.3458 z"
       id="path3" />
  </g>
</svg>
