<?xml version="1.0" encoding="UTF-8" standalone="no"?>
<svg
   id="emoji"
   viewBox="0 0 41 64.400002"
   version="1.1"
   sodipodi:docname="1f0cf.svg"
   width="41"
   height="64.400002"
   xmlns:inkscape="http://www.inkscape.org/namespaces/inkscape"
   xmlns:sodipodi="http://sodipodi.sourceforge.net/DTD/sodipodi-0.dtd"
   xmlns="http://www.w3.org/2000/svg"
   xmlns:svg="http://www.w3.org/2000/svg">
  <defs
     id="defs13" />
  <sodipodi:namedview
     id="namedview13"
     pagecolor="#ffffff"
     bordercolor="#000000"
     borderopacity="0.25"
     inkscape:showpageshadow="2"
     inkscape:pageopacity="0.0"
     inkscape:pagecheckerboard="0"
     inkscape:deskcolor="#d1d1d1" />
  <g
     id="color"
     transform="translate(-15.5,-3.8000002)">
    <rect
       x="16.5"
       y="4.8000002"
       width="39"
       height="62.400002"
       fill="#d0cfce"
       id="rect1" />
    <polygon
       fill="#ea5a47"
       points="27.93,46.615 21.283,46.466 24.239,44.005 28.268,42.502 45.313,42.78 50.338,46.309 44.057,46.615 45.501,51.115 35.806,48.602 26.843,51.115 "
       id="polygon1" />
    <path
       fill="#d22f27"
       d="m 41.9248,50.1883 c 0.6289,0.8354 3.5763,0.9269 3.5763,0.9269 l -1.4445,-4.5 6.2818,-0.3059 -5.0257,-3.5293 -2.9248,-0.09 c -0.6163,0.363 -1.092,6.6628 -0.4631,7.4983 z"
       id="path1" />
    <path
       fill="#ea5a47"
       d="m 21.0209,23.286 c -0.6734,0.15 3.9411,-6.4248 11.4258,-2.5271 0,0 4.5,-10.7789 14.4109,-6.7508 0,0 -8.1695,6.2635 -6.0268,5.9931 8.2578,-1.042 9.3575,4.3845 9.3575,4.3845 C 40.1169,21.5471 45.81,29.9874 45.81,29.9874 38.9563,23.1466 31.3361,24.2696 25.8558,29.2632 c 2e-4,0 2.9642,-7.7161 -4.8349,-5.9772 z"
       id="path2" />
    <path
       fill="#d22f27"
       d="m 40.8308,20.0012 c 8.2578,-1.042 9.3575,4.3845 9.3575,4.3845 C 40.1169,21.5471 45.81,29.9874 45.81,29.9874 43.7854,27.9667 39.7779,27.5966 39.6452,25.9208 39.386,22.6467 39.321,20.1917 40.8308,20.0012 Z"
       id="path3" />
  </g>
  <g
     id="skin"
     transform="translate(-15.5,-3.8000002)">
    <path
       fill="#fcea2b"
       d="m 44.8886,28.89 c -0.2972,-2.0864 -11.3522,-6.9564 -18.0832,-0.6564 0,0 -0.2566,4.3777 -0.2566,5.312 0,6.3731 4.1333,11.54 9.2319,11.54 5.0986,0 9.2316,-5.1665 9.2316,-11.54 A 26.4689,26.4689 0 0 0 44.8886,28.89 Z"
       id="path4" />
  </g>
  <g
     id="line"
     transform="translate(-15.5,-3.8000002)">
    <rect
       x="16.5"
       y="4.8000002"
       width="39"
       height="62.400002"
       fill="none"
       stroke="#000000"
       stroke-linecap="round"
       stroke-linejoin="round"
       stroke-width="2"
       id="rect4" />
    <path
       fill="none"
       stroke="#000000"
       stroke-linecap="round"
       stroke-linejoin="round"
       stroke-width="2"
       d="m 21.0209,23.286 c -0.6734,0.15 3.9411,-6.4248 11.4258,-2.5271 0,0 4.5,-10.7789 14.4109,-6.7508 0,0 -8.1695,6.2635 -6.0268,5.9931 8.2578,-1.042 9.3575,4.3845 9.3575,4.3845 C 40.1169,21.5471 45.81,29.9874 45.81,29.9874 38.9563,23.1466 31.3361,24.2696 25.8558,29.2632 c 2e-4,0 2.9642,-7.7161 -4.8349,-5.9772 z"
       id="path5" />
    <path
       fill="none"
       stroke="#000000"
       stroke-linecap="round"
       stroke-linejoin="round"
       stroke-width="2"
       d="m 25.9961,42.78 c -1.211,0.0039 -6.32,3.4383 -6.32,5.0027 0,0 6.5691,-1.77 8.2538,-1.1678 0,0 -1.939,3.8151 -1.8187,5.8608 0,0 6.3717,-3.1424 9.8822,-3.1424"
       id="path6" />
    <path
       fill="none"
       stroke="#000000"
       stroke-linecap="round"
       stroke-linejoin="round"
       stroke-width="2"
       d="m 45.99,42.78 c 1.211,0.0039 6.32,3.4383 6.32,5.0027 0,0 -6.5692,-1.77 -8.2539,-1.1678 0,0 1.9391,3.8151 1.8187,5.8608 0,0 -6.3717,-3.1424 -9.8822,-3.1424"
       id="path7" />
    <path
       fill="none"
       stroke="#000000"
       stroke-linecap="round"
       stroke-linejoin="round"
       stroke-width="2"
       d="m 23.37,7.35 v 4.5 a 2.5,2.5 0 0 1 -2.5,2.5 v 0 a 2.4908,2.4908 0 0 1 -1.6728,-0.642"
       id="path8" />
    <path
       fill="none"
       stroke="#000000"
       stroke-linecap="round"
       stroke-linejoin="round"
       stroke-width="2"
       d="m 48.63,64.2165 v -4.5 a 2.5,2.5 0 0 1 2.5,-2.5 v 0 a 2.4908,2.4908 0 0 1 1.6728,0.642"
       id="path9" />
    <circle
       cx="50.782001"
       cy="27.4753"
       r="1.9488"
       id="circle9" />
    <circle
       cx="48.833199"
       cy="16.4818"
       r="1.9488"
       id="circle10" />
    <circle
       cx="20.679701"
       cy="26.466801"
       r="1.9488"
       id="circle11" />
    <path
       d="m 41.7716,31.0968 a 1.9489,1.9489 0 1 1 -1.9488,-1.9489 1.95,1.95 0 0 1 1.9488,1.9489"
       id="path11" />
    <path
       d="m 33.9763,31.0968 a 1.9489,1.9489 0 1 1 -1.9489,-1.9489 1.95,1.95 0 0 1 1.9489,1.9489"
       id="path12" />
    <path
       d="m 35.925,40.8433 a 7.4566,7.4566 0 0 1 -3.3591,-0.836 0.97450079,0.97450079 0 1 1 0.8717,-1.7432 5.24,5.24 0 0 0 4.9748,0 0.97450079,0.97450079 0 1 1 0.8717,1.7432 7.4566,7.4566 0 0 1 -3.3591,0.836 z"
       id="path13" />
  </g>
</svg>
