<svg xmlns="http://www.w3.org/2000/svg" xmlns:svg="http://www.w3.org/2000/svg" id="emoji" width="58.1" height="58.1" version="1.1" viewBox="0 0 58.1 58.1"><g id="color" transform="translate(-6.9499998,-6.9499998)"><circle id="circle1" cx="36" cy="36" r="26.68" fill="#fff" fill-rule="evenodd" paint-order="normal"/></g><g id="line" transform="translate(-6.9499998,-6.9499998)"><circle id="circle2" cx="36" cy="36" r="26.68" fill="none" stroke="#000" stroke-linecap="round" stroke-linejoin="round" stroke-width="4.74"/><path id="path2" fill="none" stroke="#000" stroke-linecap="round" stroke-linejoin="round" stroke-width="4.74" d="M 54.49,54.46 18.03,18 18.4881,17.5419"/><path id="path3" fill="none" stroke="#000" stroke-linecap="round" stroke-linejoin="round" stroke-width="6.3" d="m 42.88,27.333584 c -0.64862,-2.524872 -3.451924,-4.420108 -6.812092,-4.420108 -3.841096,0 -6.954472,2.477412 -6.954472,5.537 0,3.056424 3.024784,6.210932 6.884864,7.54614 3.86008,1.334259 6.963964,4.20812 6.884864,7.54614 -0.07391,3.058639 -3.113376,5.537 -6.954472,5.537 -3.360168,0 -6.163472,-1.8984 -6.812092,-4.423272"/><path id="path4" fill="none" stroke="#000" stroke-linecap="round" stroke-linejoin="round" stroke-width="6.3" d="m 36,17.6 v 5.28"/><path id="path5" fill="none" stroke="#000" stroke-linecap="round" stroke-linejoin="round" stroke-width="6.3" d="M 36,54.4 V 49.12"/></g></svg>