<svg xmlns="http://www.w3.org/2000/svg" xmlns:svg="http://www.w3.org/2000/svg" id="emoji" width="58.11" height="58.11" version="1.1" viewBox="0 0 58.11 58.11"><g id="color" transform="translate(-6.9449997,-6.9449997)"><circle id="circle1" cx="36" cy="36" r="26.68" fill="#fff" fill-rule="evenodd" paint-order="normal"/></g><g id="line" transform="translate(-6.9449997,-6.9449997)"><circle id="circle2" cx="36" cy="36" r="26.68" fill="none" stroke="#000" stroke-linecap="round" stroke-linejoin="round" stroke-width="4.75"/><circle id="circle3" cx="36" cy="19.355" r="2" fill="#000" stroke="#000" stroke-linecap="round" stroke-linejoin="round" stroke-width="1.33"/><path id="path3" fill="#000" stroke="#000" stroke-linecap="round" stroke-linejoin="round" stroke-width="1.33" d="m 30.027694,39.967258 11.943634,-3.3e-5 -0.527631,-12.6578 c -0.0966,-1.852036 -1.615535,-3.310348 -3.445586,-3.331 l -3.973217,3.3e-5 c -1.854035,0.02065 -3.37337,1.478964 -3.46957,3.331 z"/><path id="path4" fill="#000" stroke="#000" stroke-linecap="round" stroke-linejoin="round" stroke-width="1.33" d="m 32.694493,27.975658 -1.26578,25.3156 c -0.03664,0.73282 0.383065,1.3324 0.93268,1.3324 a 1.3830312,1.3830312 0 0 0 1.151859,-1.323739 l 1.691482,-14.676386 c 0.08394,-0.728157 0.45235,-1.32374 0.81876,-1.32374 0.36641,0 0.73282,0.595583 0.81876,1.32374 l 1.69348,14.676386 a 1.3830312,1.3830312 0 0 0 1.15186,1.323739 c 0.549615,0 0.969321,-0.59958 0.93268,-1.3324 l -1.26578,-25.3156 z"/></g></svg>