<?xml version="1.0" encoding="UTF-8" standalone="no"?>
<svg
   id="emoji"
   viewBox="0 0 58.110001 58.110001"
   version="1.1"
   sodipodi:docname="1f16f.svg"
   width="58.110001"
   height="58.110001"
   xmlns:inkscape="http://www.inkscape.org/namespaces/inkscape"
   xmlns:sodipodi="http://sodipodi.sourceforge.net/DTD/sodipodi-0.dtd"
   xmlns="http://www.w3.org/2000/svg"
   xmlns:svg="http://www.w3.org/2000/svg">
  <defs
     id="defs4" />
  <sodipodi:namedview
     id="namedview4"
     pagecolor="#ffffff"
     bordercolor="#000000"
     borderopacity="0.25"
     inkscape:showpageshadow="2"
     inkscape:pageopacity="0.0"
     inkscape:pagecheckerboard="0"
     inkscape:deskcolor="#d1d1d1" />
  <g
     id="color"
     transform="translate(-6.9449997,-6.9449997)">
    <circle
       cx="36"
       cy="36"
       r="26.68"
       fill="#ffffff"
       fill-rule="evenodd"
       paint-order="normal"
       id="circle1" />
  </g>
  <g
     id="line"
     transform="translate(-6.9449997,-6.9449997)">
    <circle
       cx="36"
       cy="36"
       r="26.68"
       fill="none"
       stroke="#000000"
       stroke-linecap="round"
       stroke-linejoin="round"
       stroke-width="4.75"
       id="circle2" />
    <circle
       cx="36"
       cy="19.355"
       r="2"
       fill="#000000"
       stroke="#000000"
       stroke-linecap="round"
       stroke-linejoin="round"
       stroke-width="1.33"
       id="circle3" />
    <path
       fill="#000000"
       stroke="#000000"
       stroke-linecap="round"
       stroke-linejoin="round"
       stroke-width="1.33"
       d="m 30.027694,39.967258 11.943634,-3.3e-5 -0.527631,-12.6578 c -0.0966,-1.852036 -1.615535,-3.310348 -3.445586,-3.331 l -3.973217,3.3e-5 c -1.854035,0.02065 -3.37337,1.478964 -3.46957,3.331 z"
       id="path3" />
    <path
       fill="#000000"
       stroke="#000000"
       stroke-linecap="round"
       stroke-linejoin="round"
       stroke-width="1.33"
       d="m 32.694493,27.975658 -1.26578,25.3156 c -0.03664,0.73282 0.383065,1.3324 0.93268,1.3324 a 1.3830312,1.3830312 0 0 0 1.151859,-1.323739 l 1.691482,-14.676386 c 0.08394,-0.728157 0.45235,-1.32374 0.81876,-1.32374 0.36641,0 0.73282,0.595583 0.81876,1.32374 l 1.69348,14.676386 a 1.3830312,1.3830312 0 0 0 1.15186,1.323739 c 0.549615,0 0.969321,-0.59958 0.93268,-1.3324 l -1.26578,-25.3156 z"
       id="path4" />
  </g>
</svg>
