<?xml version="1.0" encoding="UTF-8" standalone="no"?>
<svg
   id="emoji"
   viewBox="0 0 50 50"
   version="1.1"
   sodipodi:docname="1f17e.svg"
   width="50"
   height="50"
   xmlns:inkscape="http://www.inkscape.org/namespaces/inkscape"
   xmlns:sodipodi="http://sodipodi.sourceforge.net/DTD/sodipodi-0.dtd"
   xmlns="http://www.w3.org/2000/svg"
   xmlns:svg="http://www.w3.org/2000/svg">
  <defs
     id="defs5" />
  <sodipodi:namedview
     id="namedview5"
     pagecolor="#ffffff"
     bordercolor="#000000"
     borderopacity="0.25"
     inkscape:showpageshadow="2"
     inkscape:pageopacity="0.0"
     inkscape:pagecheckerboard="0"
     inkscape:deskcolor="#d1d1d1" />
  <g
     id="line-supplement"
     transform="translate(-11,-11)">
    <g
       id="O_Button">
      <path
         fill="none"
         stroke="#000000"
         stroke-miterlimit="10"
         stroke-width="2"
         d="m 59.0349,60 h -46.07 A 0.9679,0.9679 0 0 1 12,59.0349 v -46.07 A 0.9679,0.9679 0 0 1 12.9651,12 h 46.07 A 0.9679,0.9679 0 0 1 60,12.9651 v 46.07 A 0.9679,0.9679 0 0 1 59.0349,60 Z"
         id="path1" />
      <path
         fill="none"
         stroke="#000000"
         stroke-linecap="round"
         stroke-linejoin="round"
         stroke-width="2"
         d="m 35.75,46.5116 v 0 A 7.8572,7.8572 0 0 1 27.8929,38.6545 V 32.3687 A 7.8572,7.8572 0 0 1 35.75,24.5116 v 0 a 7.8572,7.8572 0 0 1 7.8571,7.8571 v 6.2858 A 7.8572,7.8572 0 0 1 35.75,46.5116 Z"
         id="path2" />
    </g>
  </g>
  <g
     id="color"
     transform="translate(-11,-11)">
    <g
       id="color-2">
      <path
         fill="#d22f27"
         d="m 59.0349,60 h -46.07 A 0.9679,0.9679 0 0 1 12,59.0349 v -46.07 A 0.9679,0.9679 0 0 1 12.9651,12 h 46.07 A 0.9679,0.9679 0 0 1 60,12.9651 v 46.07 A 0.9679,0.9679 0 0 1 59.0349,60 Z"
         id="path3" />
    </g>
  </g>
  <g
     id="line"
     transform="translate(-11,-11)" />
  <g
     id="color-foreground"
     transform="translate(-11,-11)">
    <g
       id="O_Button-2">
      <path
         fill="none"
         stroke="#ffffff"
         stroke-miterlimit="10"
         stroke-width="2"
         d="m 59.0349,60 h -46.07 A 0.9679,0.9679 0 0 1 12,59.0349 v -46.07 A 0.9679,0.9679 0 0 1 12.9651,12 h 46.07 A 0.9679,0.9679 0 0 1 60,12.9651 v 46.07 A 0.9679,0.9679 0 0 1 59.0349,60 Z"
         id="path4" />
      <path
         fill="none"
         stroke="#ffffff"
         stroke-linecap="round"
         stroke-linejoin="round"
         stroke-width="2"
         d="m 35.75,46.5116 v 0 A 7.8572,7.8572 0 0 1 27.8929,38.6545 V 32.3687 A 7.8572,7.8572 0 0 1 35.75,24.5116 v 0 a 7.8572,7.8572 0 0 1 7.8571,7.8571 v 6.2858 A 7.8572,7.8572 0 0 1 35.75,46.5116 Z"
         id="path5" />
    </g>
  </g>
</svg>
