<?xml version="1.0" encoding="UTF-8" standalone="no"?>
<svg
   id="emoji"
   viewBox="0 0 50 50.000198"
   version="1.1"
   sodipodi:docname="1f196.svg"
   width="50"
   height="50.000198"
   xmlns:inkscape="http://www.inkscape.org/namespaces/inkscape"
   xmlns:sodipodi="http://sodipodi.sourceforge.net/DTD/sodipodi-0.dtd"
   xmlns="http://www.w3.org/2000/svg"
   xmlns:svg="http://www.w3.org/2000/svg">
  <defs
     id="defs3" />
  <sodipodi:namedview
     id="namedview3"
     pagecolor="#ffffff"
     bordercolor="#000000"
     borderopacity="0.25"
     inkscape:showpageshadow="2"
     inkscape:pageopacity="0.0"
     inkscape:pagecheckerboard="0"
     inkscape:deskcolor="#d1d1d1" />
  <g
     id="color"
     transform="translate(-11,-10.3331)">
    <g
       id="color-2">
      <path
         fill="#92d3f5"
         d="m 59.0349,59 h -46.07 A 0.9679,0.9679 0 0 1 12,58.0349 v -46.07 A 0.9679,0.9679 0 0 1 12.9651,11 h 46.07 A 0.9679,0.9679 0 0 1 60,11.9651 v 46.07 A 0.9679,0.9679 0 0 1 59.0349,59 Z"
         id="path1" />
    </g>
  </g>
  <g
     id="line"
     transform="translate(-11,-10.3331)">
    <g
       id="NG_Button">
      <path
         fill="none"
         stroke="#000000"
         stroke-miterlimit="10"
         stroke-width="2"
         d="m 59.0349,59.3333 h -46.07 A 0.9679,0.9679 0 0 1 12,58.3682 v -46.07 a 0.9679,0.9679 0 0 1 0.9651,-0.9651 h 46.07 A 0.9679,0.9679 0 0 1 60,12.2984 v 46.07 a 0.9679,0.9679 0 0 1 -0.9651,0.9649 z"
         id="path2" />
      <polyline
         fill="none"
         stroke="#000000"
         stroke-linecap="round"
         stroke-linejoin="round"
         stroke-width="2"
         points="22 42.833 22 27.833 32.714 42.833 32.714 27.833"
         id="polyline2" />
      <path
         fill="none"
         stroke="#000000"
         stroke-linecap="round"
         stroke-linejoin="round"
         stroke-width="2"
         d="m 50.1964,29.1816 a 5.3366,5.3366 0 0 0 -3.5535,-1.3483 v 0 a 5.3572,5.3572 0 0 0 -5.3572,5.3572 v 4.2857 a 5.3572,5.3572 0 0 0 5.3572,5.3571 v 0 A 5.3572,5.3572 0 0 0 52,37.4762 v -2.1709 h -4.2857"
         id="path3" />
    </g>
  </g>
</svg>
