<svg xmlns="http://www.w3.org/2000/svg" xmlns:svg="http://www.w3.org/2000/svg" id="emoji" width="50" height="50" version="1.1" viewBox="0 0 50 50"><g id="color" transform="translate(-11,-11)"><path id="path1" fill="#d0cfce" stroke="none" stroke-miterlimit="10" stroke-width="2" d="M 59.0349,60 H 12.9651 C 12.4343,60 12,59.5657 12,59.0349 V 12.9651 C 12,12.4343 12.4343,12 12.9651,12 H 59.0349 C 59.5657,12 60,12.4343 60,12.9651 V 59.0349 C 60,59.5657 59.5657,60 59.0349,60 Z"/></g><g id="line" transform="translate(-11,-11)"><path id="path2" fill="none" stroke="#000" stroke-miterlimit="10" stroke-width="2" d="M 59.0349,60 H 12.9651 C 12.4343,60 12,59.5657 12,59.0349 V 12.9651 C 12,12.4343 12.4343,12 12.9651,12 H 59.0349 C 59.5657,12 60,12.4343 60,12.9651 V 59.0349 C 60,59.5657 59.5657,60 59.0349,60 Z"/><polyline id="polyline2" fill="none" stroke="#000" stroke-linecap="round" stroke-linejoin="round" stroke-miterlimit="10" stroke-width="2" points="47.946 32.027 47.946 40.027 51.375 40.027"/><path id="path3" fill="none" stroke="#000" stroke-linecap="round" stroke-linejoin="round" stroke-miterlimit="10" stroke-width="2" d="m 31.9552,40.0267 v 0 c -1.5779,0 -2.8571,-1.2792 -2.8571,-2.8571 v -2.2857 c 0,-1.5779 1.2792,-2.8571 2.8571,-2.8571 v 0 c 1.5779,0 2.8571,1.2792 2.8571,2.8571 v 2.2857 c 0,1.5779 -1.2792,2.8571 -2.8571,2.8571 z"/><path id="path4" fill="none" stroke="#000" stroke-linecap="round" stroke-linejoin="round" stroke-miterlimit="10" stroke-width="2" d="m 41.0847,40.0267 v 0 c -1.5779,0 -2.8571,-1.2792 -2.8571,-2.8571 v -2.2857 c 0,-1.5779 1.2792,-2.8571 2.8571,-2.8571 v 0 c 1.5779,0 2.8571,1.2792 2.8571,2.8571 v 2.2857 c 10e-5,1.5779 -1.2791,2.8571 -2.8571,2.8571 z"/><path id="path5" fill="none" stroke="#000" stroke-linecap="round" stroke-linejoin="round" stroke-miterlimit="10" stroke-width="2" d="m 26.3775,39.3077 c -0.5044,0.4473 -1.168,0.719 -1.8952,0.719 v 0 c -1.5779,0 -2.8571,-1.2792 -2.8571,-2.8571 v -2.2857 2.2857 -2.2857 c 0,-1.5779 1.2792,-2.8571 2.8571,-2.8571 v 0 c 0.7272,0 1.3909,0.2717 1.8952,0.7191"/></g></svg>