<svg xmlns="http://www.w3.org/2000/svg" xmlns:svg="http://www.w3.org/2000/svg" id="emoji" width="50" height="50" version="1.1" viewBox="0 0 50 50"><g id="color" transform="translate(-11,-11)"><path id="path1" fill="#d0cfce" stroke-miterlimit="10" stroke-width="2" d="M 59.0349,60 H 12.9651 C 12.4343,60 12,59.5657 12,59.0349 V 12.9651 C 12,12.4343 12.4343,12 12.9651,12 H 59.0349 C 59.5657,12 60,12.4343 60,12.9651 V 59.0349 C 60,59.5657 59.5657,60 59.0349,60 Z"/></g><g id="line" transform="translate(-11,-11)"><path id="path2" fill="none" stroke="#000" stroke-miterlimit="10" stroke-width="2" d="M 59.0349,60 H 12.9651 C 12.4343,60 12,59.5657 12,59.0349 V 12.9651 C 12,12.4343 12.4343,12 12.9651,12 H 59.0349 C 59.5657,12 60,12.4343 60,12.9651 V 59.0349 C 60,59.5657 59.5657,60 59.0349,60 Z"/><line id="line2" x1="39.32" x2="39.32" y1="29.85" y2="42.15" fill="none" stroke="#000" stroke-linecap="round" stroke-linejoin="round" stroke-miterlimit="10" stroke-width="3"/><line id="line3" x1="39.32" x2="46.35" y1="37.83" y2="29.85" fill="none" stroke="#000" stroke-linecap="round" stroke-linejoin="round" stroke-miterlimit="10" stroke-width="3"/><line id="line4" x1="42.71" x2="46.92" y1="33.99" y2="42.15" fill="none" stroke="#000" stroke-linecap="round" stroke-linejoin="round" stroke-miterlimit="10" stroke-width="3"/><path id="path4" fill="none" stroke="#000" stroke-linecap="round" stroke-linejoin="round" stroke-miterlimit="10" stroke-width="3" d="m 29.47,42.15 v 0 c -2.426,0 -4.393,-1.967 -4.393,-4.393 v -3.515 c 0,-2.426 1.967,-4.393 4.393,-4.393 v 0 c 2.426,0 4.393,1.967 4.393,4.393 v 3.515 c 0,2.426 -1.967,4.393 -4.393,4.393 z"/></g></svg>