<?xml version="1.0" encoding="UTF-8" standalone="no"?>
<svg
   id="emoji"
   viewBox="0 0 50 50"
   version="1.1"
   sodipodi:docname="1f191.svg"
   width="50"
   height="50"
   xmlns:inkscape="http://www.inkscape.org/namespaces/inkscape"
   xmlns:sodipodi="http://sodipodi.sourceforge.net/DTD/sodipodi-0.dtd"
   xmlns="http://www.w3.org/2000/svg"
   xmlns:svg="http://www.w3.org/2000/svg">
  <defs
     id="defs5" />
  <sodipodi:namedview
     id="namedview5"
     pagecolor="#ffffff"
     bordercolor="#000000"
     borderopacity="0.25"
     inkscape:showpageshadow="2"
     inkscape:pageopacity="0.0"
     inkscape:pagecheckerboard="0"
     inkscape:deskcolor="#d1d1d1" />
  <g
     id="line-supplement"
     transform="translate(-11,-11)">
    <g
       id="CL_Button">
      <path
         fill="none"
         stroke="#000000"
         stroke-linejoin="round"
         stroke-width="2"
         d="m 59.0349,60 h -46.07 A 0.9679,0.9679 0 0 1 12,59.0349 v -46.07 A 0.9679,0.9679 0 0 1 12.9651,12 h 46.07 A 0.9679,0.9679 0 0 1 60,12.9651 v 46.07 A 0.9679,0.9679 0 0 1 59.0349,60 Z"
         id="path1" />
      <path
         fill="none"
         stroke="#000000"
         stroke-linecap="round"
         stroke-linejoin="round"
         stroke-width="2"
         d="m 32.07,42.5784 a 5.3144,5.3144 0 0 1 -3.5383,1.3423 v 0 a 5.3343,5.3343 0 0 1 -5.3342,-5.3342 v -4.2673 a 5.3343,5.3343 0 0 1 5.3342,-5.3342 v 0 a 5.3131,5.3131 0 0 1 3.5383,1.3425"
         id="path2" />
      <polyline
         fill="none"
         stroke="#000000"
         stroke-linecap="round"
         stroke-linejoin="round"
         stroke-width="2"
         points="42.401 29.049 42.401 43.985 48.802 43.985"
         id="polyline2" />
    </g>
  </g>
  <g
     id="color"
     transform="translate(-11,-11)">
    <g
       id="color-2">
      <path
         fill="#d22f27"
         d="m 59.0349,60.4528 h -46.07 A 0.9679,0.9679 0 0 1 12,59.4877 v -46.07 a 0.9679,0.9679 0 0 1 0.9651,-0.9651 h 46.07 A 0.9679,0.9679 0 0 1 60,13.4179 v 46.07 a 0.9679,0.9679 0 0 1 -0.9651,0.9649 z"
         id="path3" />
    </g>
  </g>
  <g
     id="line"
     transform="translate(-11,-11)" />
  <g
     id="color-foreground"
     transform="translate(-11,-11)">
    <path
       fill="none"
       stroke="#ffffff"
       stroke-linejoin="round"
       stroke-width="2"
       d="m 59.0349,60 h -46.07 A 0.9679,0.9679 0 0 1 12,59.0349 v -46.07 A 0.9679,0.9679 0 0 1 12.9651,12 h 46.07 A 0.9679,0.9679 0 0 1 60,12.9651 v 46.07 A 0.9679,0.9679 0 0 1 59.0349,60 Z"
       id="path4" />
    <path
       fill="none"
       stroke="#ffffff"
       stroke-linecap="round"
       stroke-linejoin="round"
       stroke-width="2"
       d="m 32.07,42.5784 a 5.3144,5.3144 0 0 1 -3.5383,1.3423 v 0 a 5.3343,5.3343 0 0 1 -5.3342,-5.3342 v -4.2673 a 5.3343,5.3343 0 0 1 5.3342,-5.3342 v 0 a 5.3131,5.3131 0 0 1 3.5383,1.3425"
       id="path5" />
    <polyline
       fill="none"
       stroke="#ffffff"
       stroke-linecap="round"
       stroke-linejoin="round"
       stroke-width="2"
       points="42.401 29.049 42.401 43.985 48.802 43.985"
       id="polyline5" />
  </g>
</svg>
