<?xml version="1.0" encoding="UTF-8" standalone="no"?>
<svg
   id="emoji"
   viewBox="0 0 50 50"
   version="1.1"
   sodipodi:docname="1f192.svg"
   width="50"
   height="50"
   xmlns:inkscape="http://www.inkscape.org/namespaces/inkscape"
   xmlns:sodipodi="http://sodipodi.sourceforge.net/DTD/sodipodi-0.dtd"
   xmlns="http://www.w3.org/2000/svg"
   xmlns:svg="http://www.w3.org/2000/svg">
  <defs
     id="defs5" />
  <sodipodi:namedview
     id="namedview5"
     pagecolor="#ffffff"
     bordercolor="#000000"
     borderopacity="0.25"
     inkscape:showpageshadow="2"
     inkscape:pageopacity="0.0"
     inkscape:pagecheckerboard="0"
     inkscape:deskcolor="#d1d1d1" />
  <g
     id="color"
     transform="translate(-11,-11)">
    <path
       fill="#d0cfce"
       stroke="none"
       stroke-miterlimit="10"
       stroke-width="2"
       d="M 59.0349,60 H 12.9651 C 12.4343,60 12,59.5657 12,59.0349 V 12.9651 C 12,12.4343 12.4343,12 12.9651,12 H 59.0349 C 59.5657,12 60,12.4343 60,12.9651 V 59.0349 C 60,59.5657 59.5657,60 59.0349,60 Z"
       id="path1" />
  </g>
  <g
     id="hair"
     transform="translate(-11,-11)" />
  <g
     id="skin"
     transform="translate(-11,-11)" />
  <g
     id="skin-shadow"
     transform="translate(-11,-11)" />
  <g
     id="line"
     transform="translate(-11,-11)">
    <path
       fill="none"
       stroke="#000000"
       stroke-miterlimit="10"
       stroke-width="2"
       d="M 59.0349,60 H 12.9651 C 12.4343,60 12,59.5657 12,59.0349 V 12.9651 C 12,12.4343 12.4343,12 12.9651,12 H 59.0349 C 59.5657,12 60,12.4343 60,12.9651 V 59.0349 C 60,59.5657 59.5657,60 59.0349,60 Z"
       id="path2" />
    <polyline
       fill="none"
       stroke="#000000"
       stroke-linecap="round"
       stroke-linejoin="round"
       stroke-miterlimit="10"
       stroke-width="2"
       points="47.9463,32.0267 47.9463,40.0267 51.3748,40.0267"
       id="polyline2" />
    <path
       fill="none"
       stroke="#000000"
       stroke-linecap="round"
       stroke-linejoin="round"
       stroke-miterlimit="10"
       stroke-width="2"
       d="m 31.9552,40.0267 v 0 c -1.5779,0 -2.8571,-1.2792 -2.8571,-2.8571 v -2.2857 c 0,-1.5779 1.2792,-2.8571 2.8571,-2.8571 v 0 c 1.5779,0 2.8571,1.2792 2.8571,2.8571 v 2.2857 c 0,1.5779 -1.2792,2.8571 -2.8571,2.8571 z"
       id="path3" />
    <path
       fill="none"
       stroke="#000000"
       stroke-linecap="round"
       stroke-linejoin="round"
       stroke-miterlimit="10"
       stroke-width="2"
       d="m 41.0847,40.0267 v 0 c -1.5779,0 -2.8571,-1.2792 -2.8571,-2.8571 v -2.2857 c 0,-1.5779 1.2792,-2.8571 2.8571,-2.8571 v 0 c 1.5779,0 2.8571,1.2792 2.8571,2.8571 v 2.2857 c 10e-5,1.5779 -1.2791,2.8571 -2.8571,2.8571 z"
       id="path4" />
    <path
       fill="none"
       stroke="#000000"
       stroke-linecap="round"
       stroke-linejoin="round"
       stroke-miterlimit="10"
       stroke-width="2"
       d="m 26.3775,39.3077 c -0.5044,0.4473 -1.168,0.719 -1.8952,0.719 v 0 c -1.5779,0 -2.8571,-1.2792 -2.8571,-2.8571 v -2.2857 2.2857 -2.2857 c 0,-1.5779 1.2792,-2.8571 2.8571,-2.8571 v 0 c 0.7272,0 1.3909,0.2717 1.8952,0.7191"
       id="path5" />
  </g>
</svg>
