<svg xmlns="http://www.w3.org/2000/svg" xmlns:svg="http://www.w3.org/2000/svg" id="emoji" width="50" height="50" version="1.1" viewBox="0 0 50 50"><g id="color" transform="translate(-11,-11)"><path id="path1" fill="#d22f27" stroke-miterlimit="10" stroke-width="2" d="M 59.0349,60 H 12.9651 C 12.4343,60 12,59.5657 12,59.0349 V 12.9651 C 12,12.4343 12.4343,12 12.9651,12 H 59.0349 C 59.5657,12 60,12.4343 60,12.9651 V 59.0349 C 60,59.5657 59.5657,60 59.0349,60 Z"/></g><g id="line" transform="translate(-11,-11)"><path id="path2" fill="none" stroke="#000" stroke-miterlimit="10" stroke-width="2" d="M 59.0349,60 H 12.9651 C 12.4343,60 12,59.5657 12,59.0349 V 12.9651 C 12,12.4343 12.4343,12 12.9651,12 H 59.0349 C 59.5657,12 60,12.4343 60,12.9651 V 59.0349 C 60,59.5657 59.5657,60 59.0349,60 Z"/><path id="path3" fill="none" stroke="#000" stroke-linecap="round" stroke-linejoin="round" stroke-miterlimit="10" stroke-width="3.004" d="m 36,42.01 v 0 c -2.37,0 -4.291,-1.921 -4.291,-4.291 v -3.433 c 0,-2.37 1.921,-4.291 4.291,-4.291 v 0 c 2.37,0 4.291,1.921 4.291,4.291 v 3.433 c 0,2.37 -1.921,4.291 -4.291,4.291 z"/><path id="path4" fill="none" stroke="#000" stroke-linecap="round" stroke-linejoin="round" stroke-miterlimit="10" stroke-width="3.004" d="m 26.21,32.39 c -0.3516,-1.367 -1.871,-2.396 -3.692,-2.396 v 0 c -2.082,0 -3.769,1.344 -3.769,3.001 0,1.657 1.687,3.001 3.769,3.001 l -0.0766,0.01111 c 2.082,0 3.769,1.344 3.769,3.001 0,1.657 -1.687,3.001 -3.769,3.001 v 0 c -1.821,0 -3.341,-1.029 -3.692,-2.396"/><path id="path5" fill="none" stroke="#000" stroke-linecap="round" stroke-linejoin="round" stroke-miterlimit="10" stroke-width="3.004" d="m 53.25,32.39 c -0.3516,-1.367 -1.871,-2.396 -3.692,-2.396 v 0 c -2.082,0 -3.769,1.344 -3.769,3.001 0,1.657 1.687,3.001 3.769,3.001 l -0.0766,0.01111 c 2.082,0 3.769,1.344 3.769,3.001 0,1.657 -1.687,3.001 -3.769,3.001 v 0 c -1.821,0 -3.341,-1.029 -3.692,-2.396"/></g></svg>