<svg xmlns="http://www.w3.org/2000/svg" xmlns:svg="http://www.w3.org/2000/svg" id="emoji" width="64" height="40" version="1.1" viewBox="0 0 64 40"><g id="color" transform="translate(-4,-16)"><rect id="rect1" width="62" height="38" x="5" y="17" fill="#d22f27"/><path id="path1" fill="#fff" stroke="#fff" stroke-linecap="round" stroke-linejoin="round" d="m 36.7,31.62 c 0.9815,-0.658 1.256,-2.365 0.7196,-3.238 -0.5361,-0.8724 -0.3786,-2.135 -0.1436,-2.686 -5.763,1.337 -5.569,7.762 -2.637,9.448 -0.3602,-2.147 1.079,-2.866 2.061,-3.524 z"/><circle id="circle1" cx="35.44" cy="29.67" r=".75" fill="#d22f27" fill-rule="evenodd" paint-order="normal"/><path id="path2" fill="#fff" stroke="#fff" stroke-linecap="round" stroke-linejoin="round" d="m 40.47,36.18 c 0.9291,0.7302 2.638,0.4633 3.302,-0.3161 0.664,-0.7794 1.913,-1.02 2.51,-0.9667 -3.052,-5.067 -9.103,-2.898 -9.8,0.4118 1.931,-1.006 3.059,0.1408 3.988,0.871 z"/><circle id="circle2" cx="45.65" cy="-29.26" r=".75" fill="#d22f27" fill-rule="evenodd" paint-order="normal" transform="rotate(72)"/><path id="path3" fill="#fff" stroke="#fff" stroke-linecap="round" stroke-linejoin="round" d="m 37.3,41.17 c -0.4073,1.109 0.3744,2.652 1.321,3.042 0.9464,0.3907 1.561,1.505 1.695,2.089 3.876,-4.469 -0.0571,-9.553 -3.42,-9.193 1.554,1.526 0.8113,2.953 0.404,4.062 z"/><circle id="circle3" cx="-7.242" cy="-57.19" r=".75" fill="#d22f27" fill-rule="evenodd" paint-order="normal" transform="rotate(144)"/><path id="path4" fill="#fff" stroke="#fff" stroke-linecap="round" stroke-linejoin="round" d="m 31.57,39.7 c -1.181,-0.04461 -2.406,1.176 -2.485,2.196 -0.07908,1.021 -0.9486,1.95 -1.463,2.258 5.448,2.306 9.068,-3.006 7.686,-6.094 -0.9708,1.949 -2.558,1.684 -3.738,1.639 z"/><circle id="circle4" cx="-50.14" cy="-15.51" r=".75" fill="#d22f27" fill-rule="evenodd" paint-order="normal" transform="rotate(-144)"/><path id="path5" fill="#fff" stroke="#fff" stroke-linecap="round" stroke-linejoin="round" d="m 31.21,33.8 c -0.3225,-1.137 -1.862,-1.925 -2.857,-1.685 -0.995,0.24 -2.147,-0.2996 -2.599,-0.6935 -0.5094,5.894 5.661,7.695 8.171,5.427 -2.154,-0.321 -2.392,-1.912 -2.714,-3.049 z"/><circle id="circle5" cx="-23.77" cy="38.16" r=".75" fill="#d22f27" fill-rule="evenodd" paint-order="normal" transform="rotate(-72)"/></g><g id="line" transform="translate(-4,-16)"><rect id="rect5" width="62" height="38" x="5" y="17" fill="none" stroke="#000" stroke-linecap="round" stroke-linejoin="round" stroke-width="2"/></g></svg>