<?xml version="1.0" encoding="UTF-8" standalone="no"?>
<svg
   id="emoji"
   viewBox="0 0 64 40"
   version="1.1"
   sodipodi:docname="1f1ec-1f1e7.svg"
   width="64"
   height="40"
   xmlns:inkscape="http://www.inkscape.org/namespaces/inkscape"
   xmlns:sodipodi="http://sodipodi.sourceforge.net/DTD/sodipodi-0.dtd"
   xmlns="http://www.w3.org/2000/svg"
   xmlns:svg="http://www.w3.org/2000/svg">
  <defs
     id="defs12" />
  <sodipodi:namedview
     id="namedview12"
     pagecolor="#ffffff"
     bordercolor="#000000"
     borderopacity="0.25"
     inkscape:showpageshadow="2"
     inkscape:pageopacity="0.0"
     inkscape:pagecheckerboard="0"
     inkscape:deskcolor="#d1d1d1" />
  <g
     id="color"
     transform="translate(-4,-16)">
    <rect
       x="5"
       y="17"
       width="62"
       height="38"
       fill="#1e50a0"
       id="rect1" />
    <g
       id="g11">
      <polygon
         fill="#ffffff"
         points="50.181,32 67,21.691 67,17 59.346,17 40,28.856 40,32 "
         id="polygon1" />
      <polygon
         fill="#d22f27"
         points="63.173,17 40,31.203 40,32 43.482,32 67,17.586 67,17 "
         id="polygon2" />
      <polygon
         fill="#ffffff"
         points="67,55 67,50.308 50.182,40 40,40 40,43.143 59.347,55 67,55 "
         id="polygon3" />
      <polygon
         fill="#d22f27"
         points="46.355,40 41.568,40 66.042,55 67,55 67,52.653 "
         id="polygon4" />
      <polygon
         fill="#ffffff"
         points="21.819,40 5,50.309 5,55 12.654,55 32,43.144 32,40 "
         id="polygon5" />
      <polygon
         fill="#d22f27"
         points="8.827,55 32,40.797 32,40 28.518,40 5,54.414 5,55 "
         id="polygon6" />
      <polygon
         fill="#ffffff"
         points="5,17 5,21.692 21.818,32 32,32 32,28.857 12.653,17 5,17 "
         id="polygon7" />
      <polygon
         fill="#d22f27"
         points="25.646,32 30.432,32 5.958,17 5,17 5,19.347 "
         id="polygon8" />
      <rect
         x="5"
         y="31"
         width="62"
         height="10"
         fill="#ffffff"
         id="rect8" />
      <rect
         x="31"
         y="17"
         width="10"
         height="38"
         fill="#ffffff"
         id="rect9" />
      <rect
         x="5"
         y="33"
         width="62"
         height="6"
         fill="#d22f27"
         id="rect10" />
      <rect
         x="33"
         y="17"
         width="6"
         height="38"
         fill="#d22f27"
         id="rect11" />
    </g>
  </g>
  <g
     id="line"
     transform="translate(-4,-16)">
    <rect
       x="5"
       y="17"
       width="62"
       height="38"
       fill="none"
       stroke="#000000"
       stroke-linecap="round"
       stroke-linejoin="round"
       stroke-width="2"
       id="rect12" />
  </g>
</svg>
