<svg xmlns="http://www.w3.org/2000/svg" xmlns:svg="http://www.w3.org/2000/svg" id="emoji" width="64" height="40" version="1.1" viewBox="0 0 64 40"><g id="color" transform="translate(-4,-16)"><rect id="rect1" width="62" height="38" x="5" y="17" fill="#f1b31c"/><path id="path1" fill="#fff" stroke="#fff" stroke-miterlimit="10" d="m 5,19 v 5 l 62,23 v -5 z"/><path id="path2" stroke="#000" stroke-miterlimit="10" d="m 5,25 v 5 l 62,23 v -5 z"/><g id="g8" fill="none" stroke="#d22f27" stroke-linecap="round" stroke-linejoin="round" stroke-width="2"><path id="path3" d="m 41.528,34.915 c 0.30362,0.71783 0.47151,1.507 0.47151,2.3355 0,3.3137 -2.6863,6 -6,6 -3.3137,0 -6,-2.6863 -6,-6 0,-0.82843 0.16789,-1.6176 0.47151,-2.3355"/><path id="path4" d="M 36,28 V 40.5"/><path id="path5" d="m 42,43.25 c -3.7143,3.1429 -8.1429,3.2143 -12,0"/><path id="path6" d="M 26,41.75 V 36 l -2,-4.25"/><path id="path7" d="M 46,41.75 V 36.5 l 2,-4.75"/><path id="path8" d="M 39.385,31.592 C 37.1075,30.77415 34.7232,30.83861 32.5209,31.56263"/></g></g><g id="line" transform="translate(-4,-16)"><rect id="rect8" width="62" height="38" x="5" y="17" fill="none" stroke="#000" stroke-linecap="round" stroke-linejoin="round" stroke-width="2"/></g></svg>