<svg xmlns="http://www.w3.org/2000/svg" xmlns:svg="http://www.w3.org/2000/svg" id="emoji" width="64" height="40" version="1.1" viewBox="0 0 64 40"><g id="color" transform="translate(-4,-16)"><rect id="rect1" width="62" height="38" x="5" y="17" fill="#d22f27"/><rect id="rect2" width="21" height="38" x="5" y="17"/><rect id="rect3" width="21" height="38" x="46" y="17" fill="#5c9e31"/><path id="path3" fill="#fff" stroke-width=".845" d="m 36,48.88 a 12.89,12.89 0 0 1 -9.111,-22 0.845,0.845 0 0 1 1.195,1.195 11.2,11.2 0 1 0 15.83,0 0.845,0.845 0 1 1 1.195,-1.195 12.89,12.89 0 0 1 -9.111,22 z"/><path id="path4" fill="#fff" stroke-width=".86" d="m 39.38,34.52 h -6.76 a 0.845,0.875 0 0 1 0,-1.75 h 6.76 a 0.845,0.875 0 0 1 0,1.75 z"/><circle id="circle4" cx="36" cy="30.3" r="1.69" fill="#fff" stroke-width=".845"/><path id="path5" fill="#fff" stroke-width=".86" d="M 41.07,44.76 H 30.93 a 0.845,0.875 0 0 1 0,-1.75 h 10.14 a 0.845,0.875 0 0 1 0,1.75 z"/><path id="path6" stroke="#fff" stroke-linecap="round" stroke-linejoin="round" stroke-width="1.775" d="M 32.58,28.68 V 43.75"/><path id="path7" stroke="#fff" stroke-linecap="round" stroke-linejoin="round" stroke-width="1.766" d="M 39.4,28.67 V 43.58"/><rect id="rect7" width="4.161" height="1.607" x="-18.88" y="42.61" fill="#fff" fill-rule="evenodd" stroke="#fff" stroke-linecap="round" stroke-linejoin="round" stroke-width=".771" paint-order="normal" transform="rotate(-60)"/><rect id="rect8" width="4.161" height="1.607" x="50.72" y="-19.75" fill="#fff" fill-rule="evenodd" stroke="#fff" stroke-linecap="round" stroke-linejoin="round" stroke-width=".771" paint-order="normal" transform="rotate(60)"/></g><g id="line" transform="translate(-4,-16)"><rect id="rect9" width="62" height="38" x="5" y="17" fill="none" stroke="#000" stroke-linecap="round" stroke-linejoin="round" stroke-width="2"/></g></svg>