<?xml version="1.0" encoding="UTF-8" standalone="no"?>
<svg
   id="emoji"
   viewBox="0 0 64 40"
   version="1.1"
   sodipodi:docname="1f1e6-1f1ec.svg"
   width="64"
   height="40"
   xmlns:inkscape="http://www.inkscape.org/namespaces/inkscape"
   xmlns:sodipodi="http://sodipodi.sourceforge.net/DTD/sodipodi-0.dtd"
   xmlns="http://www.w3.org/2000/svg"
   xmlns:svg="http://www.w3.org/2000/svg">
  <defs
     id="defs4" />
  <sodipodi:namedview
     id="namedview4"
     pagecolor="#ffffff"
     bordercolor="#000000"
     borderopacity="0.25"
     inkscape:showpageshadow="2"
     inkscape:pageopacity="0.0"
     inkscape:pagecheckerboard="0"
     inkscape:deskcolor="#d1d1d1" />
  <g
     id="color"
     transform="translate(-4,-16)">
    <rect
       x="5"
       y="17"
       width="62"
       height="38"
       fill="#ffffff"
       id="rect1" />
    <rect
       x="5"
       y="17"
       width="62"
       height="13"
       id="rect2" />
    <polygon
       fill="#f1b31c"
       stroke="#f1b31c"
       stroke-linecap="round"
       stroke-linejoin="round"
       stroke-width="2"
       points="36.39,28.038 39.827,20.761 37.111,28.337 43.071,22.929 37.663,28.889 45.239,26.173 37.962,29.61 46,30 37.962,30.39 45.239,33.827 37.663,31.111 43.071,37.071 37.111,31.663 39.827,39.239 36.39,31.962 36,40 35.61,31.962 32.173,39.239 34.889,31.663 28.929,37.071 34.337,31.111 26.761,33.827 34.038,30.39 26,30 34.038,29.61 26.761,26.173 34.337,28.889 28.929,22.929 34.889,28.337 32.173,20.761 35.61,28.038 36,20 "
       id="polygon2" />
    <rect
       x="5"
       y="30"
       width="62"
       height="12"
       fill="#1e50a0"
       id="rect3" />
    <g
       id="g4">
      <polygon
         fill="#d22f27"
         points="5,17 5,55 36,55 "
         id="polygon3" />
      <polygon
         fill="#d22f27"
         points="67,17 36,55 67,55 "
         id="polygon4" />
    </g>
  </g>
  <g
     id="line"
     transform="translate(-4,-16)">
    <rect
       x="5"
       y="17"
       width="62"
       height="38"
       fill="none"
       stroke="#000000"
       stroke-linecap="round"
       stroke-linejoin="round"
       stroke-width="2"
       id="rect4" />
  </g>
</svg>
