<?xml version="1.0" encoding="UTF-8" standalone="no"?>
<svg
   id="emoji"
   viewBox="0 0 58 58"
   version="1.1"
   sodipodi:docname="1f1e6.svg"
   width="58"
   height="58"
   xmlns:inkscape="http://www.inkscape.org/namespaces/inkscape"
   xmlns:sodipodi="http://sodipodi.sourceforge.net/DTD/sodipodi-0.dtd"
   xmlns="http://www.w3.org/2000/svg"
   xmlns:svg="http://www.w3.org/2000/svg">
  <defs
     id="defs2" />
  <sodipodi:namedview
     id="namedview2"
     pagecolor="#ffffff"
     bordercolor="#000000"
     borderopacity="0.25"
     inkscape:showpageshadow="2"
     inkscape:pageopacity="0.0"
     inkscape:pagecheckerboard="0"
     inkscape:deskcolor="#d1d1d1" />
  <g
     id="color"
     transform="translate(-7,-7)">
    <circle
       cx="36.5"
       cy="36.5"
       r="27.5"
       fill="#ffffff"
       id="circle1" />
  </g>
  <g
     id="line"
     transform="translate(-7,-7)">
    <g
       id="line-2">
      <circle
         cx="36"
         cy="36"
         r="28"
         fill="none"
         stroke="#000000"
         stroke-linejoin="round"
         stroke-width="2"
         id="circle2" />
    </g>
    <path
       stroke="#000000"
       stroke-linejoin="round"
       stroke-width="2"
       d="M 36.9189,21.6057 C 36.7617,21.238 36.3999,20.9997 36,20.9997 c -0.3999,0 -0.7617,0.2383 -0.9189,0.606 l -12,28 c -0.2178,0.5078 0.0176,1.0957 0.5249,1.313 0.5083,0.2188 1.0962,-0.0176 1.313,-0.5249 L 27.5392,44.28 h 16.9216 l 2.6202,6.1138 c 0.1621,0.3789 0.5312,0.6064 0.9194,0.6064 0.1313,0 0.2651,-0.0264 0.3936,-0.0815 0.5073,-0.2173 0.7427,-0.8052 0.5249,-1.313 z M 28.3963,42.28 36,24.5383 43.6037,42.28 c 0,0 -15.2074,0 -15.2074,0 z"
       id="path2" />
  </g>
</svg>
