<?xml version="1.0" encoding="UTF-8" standalone="no"?>
<svg
   id="emoji"
   viewBox="0 0 64 40"
   version="1.1"
   sodipodi:docname="1f1ef-1f1f2.svg"
   width="64"
   height="40"
   xmlns:inkscape="http://www.inkscape.org/namespaces/inkscape"
   xmlns:sodipodi="http://sodipodi.sourceforge.net/DTD/sodipodi-0.dtd"
   xmlns="http://www.w3.org/2000/svg"
   xmlns:svg="http://www.w3.org/2000/svg">
  <defs
     id="defs4" />
  <sodipodi:namedview
     id="namedview4"
     pagecolor="#ffffff"
     bordercolor="#000000"
     borderopacity="0.25"
     inkscape:showpageshadow="2"
     inkscape:pageopacity="0.0"
     inkscape:pagecheckerboard="0"
     inkscape:deskcolor="#d1d1d1" />
  <g
     id="color"
     transform="translate(-4,-16)">
    <rect
       x="5"
       y="17"
       rx="3.2004001"
       ry="3.2004001"
       width="62"
       height="38"
       fill="#5c9e31"
       id="rect1" />
    <path
       d="M 29.4811,39.9955 12.1351,50.6269 C 9.0126,52.5407 5.0001,50.2938 5.0001,46.6314 V 25.3685 c 0,-3.6623 4.0125,-5.9093 7.135,-3.9955 l 17.346,10.6314 c 2.9832,1.8284 2.9832,6.1625 0,7.9909 z"
       id="path1" />
    <path
       d="M 42.12,39.7509 60.3016,50.8945 C 63.233,52.6912 67,50.5818 67,47.1436 V 24.8564 c 0,-3.4382 -3.767,-5.5476 -6.6984,-3.7509 L 42.12,32.2491 c -2.8006,1.7165 -2.8006,5.7854 0,7.5019 z"
       id="path2" />
    <path
       fill="#fcea2b"
       d="M 5,21.6921 V 19.2742 C 5,18.0182 6.0182,17 7.2742,17 h 4.1124 c 0.4018,0 0.7964,0.1064 1.1437,0.3085 l 53.3393,31.0338 c 0.6999,0.4072 1.1305,1.1559 1.1305,1.9657 v 2.4179 c 0,1.256 -1.0182,2.2742 -2.2742,2.2742 h -4.1124 c -0.4018,0 -0.7964,-0.1064 -1.1437,-0.3085 L 6.1305,23.6577 C 5.4306,23.2505 5,22.5018 5,21.692 Z"
       id="path3" />
    <path
       fill="#fcea2b"
       d="M 67,21.3178 V 19.9249 C 67,18.3095 65.6905,17 64.0751,17 H 60.789 c -0.5168,0 -1.0243,0.1369 -1.4709,0.3968 L 6.454,48.154 C 5.5538,48.6778 5,49.6407 5,50.6822 v 1.3929 C 5,53.6905 6.3095,55 7.9249,55 h 3.2861 c 0.5168,0 1.0243,-0.1369 1.4709,-0.3968 l 52.864,-30.7573 c 0.9002,-0.5238 1.454,-1.4867 1.454,-2.5282 z"
       id="path4" />
  </g>
  <g
     id="line"
     transform="translate(-4,-16)">
    <rect
       x="5"
       y="17"
       width="62"
       height="38"
       fill="none"
       stroke="#000000"
       stroke-linecap="round"
       stroke-linejoin="round"
       stroke-width="2"
       id="rect4" />
  </g>
</svg>
