<?xml version="1.0" encoding="UTF-8" standalone="no"?>
<svg
   id="emoji"
   viewBox="0 0 64 40.00177"
   version="1.1"
   sodipodi:docname="1f1ee-1f1f4.svg"
   width="64"
   height="40.00177"
   xmlns:inkscape="http://www.inkscape.org/namespaces/inkscape"
   xmlns:sodipodi="http://sodipodi.sourceforge.net/DTD/sodipodi-0.dtd"
   xmlns="http://www.w3.org/2000/svg"
   xmlns:svg="http://www.w3.org/2000/svg">
  <defs
     id="defs27" />
  <sodipodi:namedview
     id="namedview27"
     pagecolor="#ffffff"
     bordercolor="#000000"
     borderopacity="0.25"
     inkscape:showpageshadow="2"
     inkscape:pageopacity="0.0"
     inkscape:pagecheckerboard="0"
     inkscape:deskcolor="#d1d1d1" />
  <g
     id="color"
     transform="translate(-4,-15.998229)">
    <rect
       x="5"
       y="17"
       width="62"
       height="38"
       fill="#ffffff"
       id="rect1" />
    <path
       fill="#ffffff"
       d="m 67,44 a 42.5886,42.5886 0 0 1 -6.2,1 c -1.5693,-0.0494 -4.6308,-1.0494 -6.2,-1 -1.5692,0.0494 -4.6308,1.0494 -6.2,1 -1.5692,-0.0494 -4.6307,-1.0494 -6.2,-1 -1.5693,0.0494 -4.6307,1.0494 -6.2,1 -1.5693,-0.0494 -4.6308,-1.0492 -6.2,-1 -1.5692,0.0492 -4.6308,1.0481 -6.2,1 -1.5692,-0.0481 -4.6306,-1.0415 -6.2,-1 -1.5694,0.0415 -4.63,1 -6.2,1 A 50.8361,50.8361 0 0 1 5,44 v -2 a 50.8361,50.8361 0 0 0 6.2,1 c 1.57,0 4.6305,-0.9586 6.2,-1 1.5695,-0.0414 4.6308,0.9519 6.2,1 1.5692,0.0481 4.6308,-0.9508 6.2,-1 1.5692,-0.0492 4.6307,0.9506 6.2,1 1.5693,0.0494 4.6307,-0.9506 6.2,-1 1.5693,-0.0494 4.6307,0.9506 6.2,1 1.5693,0.0494 4.6307,-0.9506 6.2,-1 1.5693,-0.0494 4.6307,0.9506 6.2,1 A 42.5886,42.5886 0 0 0 67,42 Z"
       id="path1" />
    <path
       fill="#1e50a0"
       d="m 67,46 a 42.5886,42.5886 0 0 1 -6.2,1 c -1.5693,-0.0494 -4.6308,-1.0494 -6.2,-1 -1.5692,0.0494 -4.6308,1.0494 -6.2,1 -1.5692,-0.0494 -4.6307,-1.0494 -6.2,-1 -1.5693,0.0494 -4.6307,1.0494 -6.2,1 -1.5693,-0.0494 -4.6308,-1.0492 -6.2,-1 -1.5692,0.0492 -4.6308,1.0481 -6.2,1 -1.5692,-0.0481 -4.6306,-1.0415 -6.2,-1 -1.5694,0.0415 -4.63,1 -6.2,1 A 50.8361,50.8361 0 0 1 5,46 v -2 a 50.8361,50.8361 0 0 0 6.2,1 c 1.57,0 4.6305,-0.9586 6.2,-1 1.5695,-0.0414 4.6308,0.9519 6.2,1 1.5692,0.0481 4.6308,-0.9508 6.2,-1 1.5692,-0.0492 4.6307,0.9506 6.2,1 1.5693,0.0494 4.6307,-0.9506 6.2,-1 1.5693,-0.0494 4.6307,0.9506 6.2,1 1.5693,0.0494 4.6307,-0.9506 6.2,-1 1.5693,-0.0494 4.6307,0.9506 6.2,1 A 42.5886,42.5886 0 0 0 67,44 Z"
       id="path2" />
    <path
       fill="#ffffff"
       d="m 67,48 a 42.5886,42.5886 0 0 1 -6.2,1 c -1.5693,-0.0494 -4.6308,-1.0494 -6.2,-1 -1.5692,0.0494 -4.6308,1.0494 -6.2,1 -1.5692,-0.0494 -4.6307,-1.0494 -6.2,-1 -1.5693,0.0494 -4.6307,1.0494 -6.2,1 -1.5693,-0.0494 -4.6308,-1.0492 -6.2,-1 -1.5692,0.0492 -4.6308,1.0481 -6.2,1 -1.5692,-0.0481 -4.6306,-1.0415 -6.2,-1 -1.5694,0.0415 -4.63,1 -6.2,1 A 50.8361,50.8361 0 0 1 5,48 v -2 a 50.8361,50.8361 0 0 0 6.2,1 c 1.57,0 4.6305,-0.9586 6.2,-1 1.5695,-0.0414 4.6308,0.9519 6.2,1 1.5692,0.0481 4.6308,-0.9508 6.2,-1 1.5692,-0.0492 4.6307,0.9506 6.2,1 1.5693,0.0494 4.6307,-0.9506 6.2,-1 1.5693,-0.0494 4.6307,0.9506 6.2,1 1.5693,0.0494 4.6307,-0.9506 6.2,-1 1.5693,-0.0494 4.6307,0.9506 6.2,1 A 42.5886,42.5886 0 0 0 67,46 Z"
       id="path3" />
    <path
       fill="#1e50a0"
       d="m 67,50 a 42.5886,42.5886 0 0 1 -6.2,1 c -1.5693,-0.0494 -4.6308,-1.0494 -6.2,-1 -1.5692,0.0494 -4.6308,1.0494 -6.2,1 -1.5692,-0.0494 -4.6307,-1.0494 -6.2,-1 -1.5693,0.0494 -4.6307,1.0494 -6.2,1 -1.5693,-0.0494 -4.6308,-1.0492 -6.2,-1 -1.5692,0.0492 -4.6308,1.0481 -6.2,1 -1.5692,-0.0481 -4.6306,-1.0415 -6.2,-1 -1.5694,0.0415 -4.63,1 -6.2,1 A 50.8361,50.8361 0 0 1 5,50 v -2 a 50.8361,50.8361 0 0 0 6.2,1 c 1.57,0 4.6305,-0.9586 6.2,-1 1.5695,-0.0414 4.6308,0.9519 6.2,1 1.5692,0.0481 4.6308,-0.9508 6.2,-1 1.5692,-0.0492 4.6307,0.9506 6.2,1 1.5693,0.0494 4.6307,-0.9506 6.2,-1 1.5693,-0.0494 4.6307,0.9506 6.2,1 1.5693,0.0494 4.6307,-0.9506 6.2,-1 1.5693,-0.0494 4.6307,0.9506 6.2,1 A 42.5886,42.5886 0 0 0 67,48 Z"
       id="path4" />
    <path
       fill="#1e50a0"
       d="m 67,55 c 0,0 -4.6307,-0.9506 -6.2,-1 -1.5693,-0.0494 -4.6308,0.9506 -6.2,1 -1.5692,0.0494 -4.6308,-0.9506 -6.2,-1 -1.5692,-0.0494 -4.6307,0.9506 -6.2,1 -1.5693,0.0494 -4.6307,-0.9506 -6.2,-1 -1.5693,-0.0494 -4.6308,0.9508 -6.2,1 -1.5692,0.0492 -4.6308,-0.9519 -6.2,-1 -1.5692,-0.0481 -4.6306,0.9585 -6.2,1 -1.5694,0.0415 -4.63,-1 -6.2,-1 A 50.8361,50.8361 0 0 0 5,55 v -4 a 50.8361,50.8361 0 0 0 6.2,1 c 1.57,0 4.6305,-0.9586 6.2,-1 1.5695,-0.0414 4.6308,0.9519 6.2,1 1.5692,0.0481 4.6308,-0.9508 6.2,-1 1.5692,-0.0492 4.6307,0.9506 6.2,1 1.5693,0.0494 4.6307,-0.9506 6.2,-1 1.5693,-0.0494 4.6307,0.9506 6.2,1 1.5693,0.0494 4.6307,-0.9506 6.2,-1 1.5693,-0.0494 4.6307,0.9506 6.2,1 A 42.5886,42.5886 0 0 0 67,51 Z"
       id="path5" />
    <path
       fill="#ffffff"
       d="m 67,52 a 42.5886,42.5886 0 0 1 -6.2,1 c -1.5693,-0.0494 -4.6308,-1.0494 -6.2,-1 -1.5692,0.0494 -4.6308,1.0494 -6.2,1 -1.5692,-0.0494 -4.6307,-1.0494 -6.2,-1 -1.5693,0.0494 -4.6307,1.0494 -6.2,1 -1.5693,-0.0494 -4.6308,-1.0492 -6.2,-1 -1.5692,0.0492 -4.6308,1.0481 -6.2,1 -1.5692,-0.0481 -4.6306,-1.0415 -6.2,-1 -1.5694,0.0415 -4.63,1 -6.2,1 A 50.8361,50.8361 0 0 1 5,52 v -2 a 50.8361,50.8361 0 0 0 6.2,1 c 1.57,0 4.6305,-0.9586 6.2,-1 1.5695,-0.0414 4.6308,0.9519 6.2,1 1.5692,0.0481 4.6308,-0.9508 6.2,-1 1.5692,-0.0492 4.6307,0.9506 6.2,1 1.5693,0.0494 4.6307,-0.9506 6.2,-1 1.5693,-0.0494 4.6307,0.9506 6.2,1 1.5693,0.0494 4.6307,-0.9506 6.2,-1 1.5693,-0.0494 4.6307,0.9506 6.2,1 A 42.5886,42.5886 0 0 0 67,50 Z"
       id="path6" />
    <path
       fill="#1e50a0"
       d="m 67,38 a 42.5886,42.5886 0 0 1 -6.2,1 c -1.5693,-0.0494 -4.6308,-1.0494 -6.2,-1 -1.5692,0.0494 -4.6308,1.0494 -6.2,1 -1.5692,-0.0494 -4.6307,-1.0494 -6.2,-1 -1.5693,0.0494 -4.6307,1.0494 -6.2,1 -1.5693,-0.0494 -4.6308,-1.0492 -6.2,-1 -1.5692,0.0492 -4.6308,1.0481 -6.2,1 -1.5692,-0.0481 -4.6306,-1.0415 -6.2,-1 -1.5694,0.0415 -4.63,1 -6.2,1 A 50.8361,50.8361 0 0 1 5,38 v -2 a 50.8361,50.8361 0 0 0 6.2,1 c 1.57,0 4.6305,-0.9586 6.2,-1 1.5695,-0.0414 4.6308,0.9519 6.2,1 1.5692,0.0481 4.6308,-0.9508 6.2,-1 1.5692,-0.0492 4.6307,0.9506 6.2,1 1.5693,0.0494 4.6307,-0.9506 6.2,-1 1.5693,-0.0494 4.6307,0.9506 6.2,1 1.5693,0.0494 4.6307,-0.9506 6.2,-1 1.5693,-0.0494 4.6307,0.9506 6.2,1 A 42.5886,42.5886 0 0 0 67,36 Z"
       id="path7" />
    <path
       fill="#ffffff"
       d="m 67,40 a 42.5886,42.5886 0 0 1 -6.2,1 c -1.5693,-0.0494 -4.6308,-1.0494 -6.2,-1 -1.5692,0.0494 -4.6308,1.0494 -6.2,1 -1.5692,-0.0494 -4.6307,-1.0494 -6.2,-1 -1.5693,0.0494 -4.6307,1.0494 -6.2,1 -1.5693,-0.0494 -4.6308,-1.0492 -6.2,-1 -1.5692,0.0492 -4.6308,1.0481 -6.2,1 -1.5692,-0.0481 -4.6306,-1.0415 -6.2,-1 -1.5694,0.0415 -4.63,1 -6.2,1 A 50.8361,50.8361 0 0 1 5,40 v -2 a 50.8361,50.8361 0 0 0 6.2,1 c 1.57,0 4.6305,-0.9586 6.2,-1 1.5695,-0.0414 4.6308,0.9519 6.2,1 1.5692,0.0481 4.6308,-0.9508 6.2,-1 1.5692,-0.0492 4.6307,0.9506 6.2,1 1.5693,0.0494 4.6307,-0.9506 6.2,-1 1.5693,-0.0494 4.6307,0.9506 6.2,1 1.5693,0.0494 4.6307,-0.9506 6.2,-1 1.5693,-0.0494 4.6307,0.9506 6.2,1 A 42.5886,42.5886 0 0 0 67,38 Z"
       id="path8" />
    <path
       fill="#1e50a0"
       d="m 67,42 a 42.5886,42.5886 0 0 1 -6.2,1 c -1.5693,-0.0494 -4.6308,-1.0494 -6.2,-1 -1.5692,0.0494 -4.6308,1.0494 -6.2,1 -1.5692,-0.0494 -4.6307,-1.0494 -6.2,-1 -1.5693,0.0494 -4.6307,1.0494 -6.2,1 -1.5693,-0.0494 -4.6308,-1.0492 -6.2,-1 -1.5692,0.0492 -4.6308,1.0481 -6.2,1 -1.5692,-0.0481 -4.6306,-1.0415 -6.2,-1 -1.5694,0.0415 -4.63,1 -6.2,1 A 50.8361,50.8361 0 0 1 5,42 v -2 a 50.8361,50.8361 0 0 0 6.2,1 c 1.57,0 4.6305,-0.9586 6.2,-1 1.5695,-0.0414 4.6308,0.9519 6.2,1 1.5692,0.0481 4.6308,-0.9508 6.2,-1 1.5692,-0.0492 4.6307,0.9506 6.2,1 1.5693,0.0494 4.6307,-0.9506 6.2,-1 1.5693,-0.0494 4.6307,0.9506 6.2,1 1.5693,0.0494 4.6307,-0.9506 6.2,-1 1.5693,-0.0494 4.6307,0.9506 6.2,1 A 42.5886,42.5886 0 0 0 67,40 Z"
       id="path9" />
    <path
       fill="#ffffff"
       d="m 67,44 a 42.5886,42.5886 0 0 1 -6.2,1 c -1.5693,-0.0494 -4.6308,-1.0494 -6.2,-1 -1.5692,0.0494 -4.6308,1.0494 -6.2,1 -1.5692,-0.0494 -4.6307,-1.0494 -6.2,-1 -1.5693,0.0494 -4.6307,1.0494 -6.2,1 -1.5693,-0.0494 -4.6308,-1.0492 -6.2,-1 -1.5692,0.0492 -4.6308,1.0481 -6.2,1 -1.5692,-0.0481 -4.6306,-1.0415 -6.2,-1 -1.5694,0.0415 -4.63,1 -6.2,1 A 50.8361,50.8361 0 0 1 5,44 v -2 a 50.8361,50.8361 0 0 0 6.2,1 c 1.57,0 4.6305,-0.9586 6.2,-1 1.5695,-0.0414 4.6308,0.9519 6.2,1 1.5692,0.0481 4.6308,-0.9508 6.2,-1 1.5692,-0.0492 4.6307,0.9506 6.2,1 1.5693,0.0494 4.6307,-0.9506 6.2,-1 1.5693,-0.0494 4.6307,0.9506 6.2,1 1.5693,0.0494 4.6307,-0.9506 6.2,-1 1.5693,-0.0494 4.6307,0.9506 6.2,1 A 42.5886,42.5886 0 0 0 67,42 Z"
       id="path10" />
    <path
       fill="#1e50a0"
       d="m 67,30 a 42.5886,42.5886 0 0 1 -6.2,1 c -1.5693,-0.0494 -4.6308,-1.0494 -6.2,-1 -1.5692,0.0494 -4.6308,1.0494 -6.2,1 -1.5692,-0.0494 -4.6307,-1.0494 -6.2,-1 -1.5693,0.0494 -4.6307,1.0494 -6.2,1 -1.5693,-0.0494 -4.6308,-1.0492 -6.2,-1 -1.5692,0.0492 -4.6308,1.0481 -6.2,1 -1.5692,-0.0481 -4.6306,-1.0415 -6.2,-1 -1.5694,0.0415 -4.63,1 -6.2,1 A 50.8361,50.8361 0 0 1 5,30 v -2 a 50.8361,50.8361 0 0 0 6.2,1 c 1.57,0 4.6305,-0.9586 6.2,-1 1.5695,-0.0414 4.6308,0.9519 6.2,1 1.5692,0.0481 4.6308,-0.9508 6.2,-1 1.5692,-0.0492 4.6307,0.9506 6.2,1 1.5693,0.0494 4.6307,-0.9506 6.2,-1 1.5693,-0.0494 4.6307,0.9506 6.2,1 1.5693,0.0494 4.6307,-0.9506 6.2,-1 1.5693,-0.0494 4.6307,0.9506 6.2,1 A 42.5886,42.5886 0 0 0 67,28 Z"
       id="path11" />
    <path
       fill="#ffffff"
       d="m 67,32 a 42.5886,42.5886 0 0 1 -6.2,1 c -1.5693,-0.0494 -4.6308,-1.0494 -6.2,-1 -1.5692,0.0494 -4.6308,1.0494 -6.2,1 -1.5692,-0.0494 -4.6307,-1.0494 -6.2,-1 -1.5693,0.0494 -4.6307,1.0494 -6.2,1 -1.5693,-0.0494 -4.6308,-1.0492 -6.2,-1 -1.5692,0.0492 -4.6308,1.0481 -6.2,1 -1.5692,-0.0481 -4.6306,-1.0415 -6.2,-1 -1.5694,0.0415 -4.63,1 -6.2,1 A 50.8361,50.8361 0 0 1 5,32 v -2 a 50.8361,50.8361 0 0 0 6.2,1 c 1.57,0 4.6305,-0.9586 6.2,-1 1.5695,-0.0414 4.6308,0.9519 6.2,1 1.5692,0.0481 4.6308,-0.9508 6.2,-1 1.5692,-0.0492 4.6307,0.9506 6.2,1 1.5693,0.0494 4.6307,-0.9506 6.2,-1 1.5693,-0.0494 4.6307,0.9506 6.2,1 1.5693,0.0494 4.6307,-0.9506 6.2,-1 1.5693,-0.0494 4.6307,0.9506 6.2,1 A 42.5886,42.5886 0 0 0 67,30 Z"
       id="path12" />
    <path
       fill="#1e50a0"
       d="m 67,34 a 42.5886,42.5886 0 0 1 -6.2,1 c -1.5693,-0.0494 -4.6308,-1.0494 -6.2,-1 -1.5692,0.0494 -4.6308,1.0494 -6.2,1 -1.5692,-0.0494 -4.6307,-1.0494 -6.2,-1 -1.5693,0.0494 -4.6307,1.0494 -6.2,1 -1.5693,-0.0494 -4.6308,-1.0492 -6.2,-1 -1.5692,0.0492 -4.6308,1.0481 -6.2,1 -1.5692,-0.0481 -4.6306,-1.0415 -6.2,-1 -1.5694,0.0415 -4.63,1 -6.2,1 A 50.8361,50.8361 0 0 1 5,34 v -2 a 50.8361,50.8361 0 0 0 6.2,1 c 1.57,0 4.6305,-0.9586 6.2,-1 1.5695,-0.0414 4.6308,0.9519 6.2,1 1.5692,0.0481 4.6308,-0.9508 6.2,-1 1.5692,-0.0492 4.6307,0.9506 6.2,1 1.5693,0.0494 4.6307,-0.9506 6.2,-1 1.5693,-0.0494 4.6307,0.9506 6.2,1 1.5693,0.0494 4.6307,-0.9506 6.2,-1 1.5693,-0.0494 4.6307,0.9506 6.2,1 A 42.5886,42.5886 0 0 0 67,32 Z"
       id="path13" />
    <path
       fill="#ffffff"
       d="m 67,36 a 42.5886,42.5886 0 0 1 -6.2,1 c -1.5693,-0.0494 -4.6308,-1.0494 -6.2,-1 -1.5692,0.0494 -4.6308,1.0494 -6.2,1 -1.5692,-0.0494 -4.6307,-1.0494 -6.2,-1 -1.5693,0.0494 -4.6307,1.0494 -6.2,1 -1.5693,-0.0494 -4.6308,-1.0492 -6.2,-1 -1.5692,0.0492 -4.6308,1.0481 -6.2,1 -1.5692,-0.0481 -4.6306,-1.0415 -6.2,-1 -1.5694,0.0415 -4.63,1 -6.2,1 A 50.8361,50.8361 0 0 1 5,36 v -2 a 50.8361,50.8361 0 0 0 6.2,1 c 1.57,0 4.6305,-0.9586 6.2,-1 1.5695,-0.0414 4.6308,0.9519 6.2,1 1.5692,0.0481 4.6308,-0.9508 6.2,-1 1.5692,-0.0492 4.6307,0.9506 6.2,1 1.5693,0.0494 4.6307,-0.9506 6.2,-1 1.5693,-0.0494 4.6307,0.9506 6.2,1 1.5693,0.0494 4.6307,-0.9506 6.2,-1 1.5693,-0.0494 4.6307,0.9506 6.2,1 A 42.5886,42.5886 0 0 0 67,34 Z"
       id="path14" />
    <path
       fill="#1e50a0"
       d="m 67,22 a 42.5886,42.5886 0 0 1 -6.2,1 c -1.5693,-0.0494 -4.6308,-1.0494 -6.2,-1 -1.5692,0.0494 -4.6308,1.0494 -6.2,1 -1.5692,-0.0494 -4.6307,-1.0494 -6.2,-1 -1.5693,0.0494 -4.6307,1.0494 -6.2,1 -1.5693,-0.0494 -4.6308,-1.0492 -6.2,-1 -1.5692,0.0492 -4.6308,1.0481 -6.2,1 -1.5692,-0.0481 -4.6306,-1.0415 -6.2,-1 -1.5694,0.0415 -4.63,1 -6.2,1 A 50.8361,50.8361 0 0 1 5,22 v -2 a 50.8361,50.8361 0 0 0 6.2,1 c 1.57,0 4.6305,-0.9586 6.2,-1 1.5695,-0.0414 4.6308,0.9519 6.2,1 1.5692,0.0481 4.6308,-0.9508 6.2,-1 1.5692,-0.0492 4.6307,0.9506 6.2,1 1.5693,0.0494 4.6307,-0.9506 6.2,-1 1.5693,-0.0494 4.6307,0.9506 6.2,1 1.5693,0.0494 4.6307,-0.9506 6.2,-1 1.5693,-0.0494 4.6307,0.9506 6.2,1 A 42.5886,42.5886 0 0 0 67,20 Z"
       id="path15" />
    <path
       fill="#ffffff"
       d="m 67,24 a 42.5886,42.5886 0 0 1 -6.2,1 c -1.5693,-0.0494 -4.6308,-1.0494 -6.2,-1 -1.5692,0.0494 -4.6308,1.0494 -6.2,1 -1.5692,-0.0494 -4.6307,-1.0494 -6.2,-1 -1.5693,0.0494 -4.6307,1.0494 -6.2,1 -1.5693,-0.0494 -4.6308,-1.0492 -6.2,-1 -1.5692,0.0492 -4.6308,1.0481 -6.2,1 -1.5692,-0.0481 -4.6306,-1.0415 -6.2,-1 -1.5694,0.0415 -4.63,1 -6.2,1 A 50.8361,50.8361 0 0 1 5,24 v -2 a 50.8361,50.8361 0 0 0 6.2,1 c 1.57,0 4.6305,-0.9586 6.2,-1 1.5695,-0.0414 4.6308,0.9519 6.2,1 1.5692,0.0481 4.6308,-0.9508 6.2,-1 1.5692,-0.0492 4.6307,0.9506 6.2,1 1.5693,0.0494 4.6307,-0.9506 6.2,-1 1.5693,-0.0494 4.6307,0.9506 6.2,1 1.5693,0.0494 4.6307,-0.9506 6.2,-1 1.5693,-0.0494 4.6307,0.9506 6.2,1 A 42.5886,42.5886 0 0 0 67,22 Z"
       id="path16" />
    <path
       fill="#1e50a0"
       d="m 67,18 a 42.5886,42.5886 0 0 1 -6.2,1 c -1.5693,-0.0494 -4.6308,-1.0494 -6.2,-1 -1.5692,0.0494 -4.6308,1.0494 -6.2,1 -1.5692,-0.0494 -4.6307,-1.0494 -6.2,-1 -1.5693,0.0494 -4.6307,1.0494 -6.2,1 -1.5693,-0.0494 -4.6308,-1.0492 -6.2,-1 -1.5692,0.0492 -4.6308,1.0481 -6.2,1 -1.5692,-0.0481 -4.6306,-1.0415 -6.2,-1 -1.5694,0.0415 -4.63,1 -6.2,1 A 50.8361,50.8361 0 0 1 5,18 v -2 a 50.8361,50.8361 0 0 0 6.2,1 c 1.57,0 4.6305,-0.9586 6.2,-1 1.5695,-0.0414 4.6308,0.9519 6.2,1 1.5692,0.0481 4.6308,-0.9508 6.2,-1 1.5692,-0.0492 4.6307,0.9506 6.2,1 1.5693,0.0494 4.6307,-0.9506 6.2,-1 1.5693,-0.0494 4.6307,0.9506 6.2,1 1.5693,0.0494 4.6307,-0.9506 6.2,-1 1.5693,-0.0494 4.6307,0.9506 6.2,1 A 42.5886,42.5886 0 0 0 67,16 Z"
       id="path17" />
    <path
       fill="#ffffff"
       d="m 67,20 a 42.5886,42.5886 0 0 1 -6.2,1 c -1.5693,-0.0494 -4.6308,-1.0494 -6.2,-1 -1.5692,0.0494 -4.6308,1.0494 -6.2,1 -1.5692,-0.0494 -4.6307,-1.0494 -6.2,-1 -1.5693,0.0494 -4.6307,1.0494 -6.2,1 -1.5693,-0.0494 -4.6308,-1.0492 -6.2,-1 -1.5692,0.0492 -4.6308,1.0481 -6.2,1 -1.5692,-0.0481 -4.6306,-1.0415 -6.2,-1 -1.5694,0.0415 -4.63,1 -6.2,1 A 50.8361,50.8361 0 0 1 5,20 v -2 a 50.8361,50.8361 0 0 0 6.2,1 c 1.57,0 4.6305,-0.9586 6.2,-1 1.5695,-0.0414 4.6308,0.9519 6.2,1 1.5692,0.0481 4.6308,-0.9508 6.2,-1 1.5692,-0.0492 4.6307,0.9506 6.2,1 1.5693,0.0494 4.6307,-0.9506 6.2,-1 1.5693,-0.0494 4.6307,0.9506 6.2,1 1.5693,0.0494 4.6307,-0.9506 6.2,-1 1.5693,-0.0494 4.6307,0.9506 6.2,1 A 42.5886,42.5886 0 0 0 67,18 Z"
       id="path18" />
    <path
       fill="#1e50a0"
       d="m 67,26 a 42.5886,42.5886 0 0 1 -6.2,1 c -1.5693,-0.0494 -4.6308,-1.0494 -6.2,-1 -1.5692,0.0494 -4.6308,1.0494 -6.2,1 -1.5692,-0.0494 -4.6307,-1.0494 -6.2,-1 -1.5693,0.0494 -4.6307,1.0494 -6.2,1 -1.5693,-0.0494 -4.6308,-1.0492 -6.2,-1 -1.5692,0.0492 -4.6308,1.0481 -6.2,1 -1.5692,-0.0481 -4.6306,-1.0415 -6.2,-1 -1.5694,0.0415 -4.63,1 -6.2,1 A 50.8361,50.8361 0 0 1 5,26 v -2 a 50.8361,50.8361 0 0 0 6.2,1 c 1.57,0 4.6305,-0.9586 6.2,-1 1.5695,-0.0414 4.6308,0.9519 6.2,1 1.5692,0.0481 4.6308,-0.9508 6.2,-1 1.5692,-0.0492 4.6307,0.9506 6.2,1 1.5693,0.0494 4.6307,-0.9506 6.2,-1 1.5693,-0.0494 4.6307,0.9506 6.2,1 1.5693,0.0494 4.6307,-0.9506 6.2,-1 1.5693,-0.0494 4.6307,0.9506 6.2,1 A 42.5886,42.5886 0 0 0 67,24 Z"
       id="path19" />
    <path
       fill="#ffffff"
       d="m 67,28 a 42.5886,42.5886 0 0 1 -6.2,1 c -1.5693,-0.0494 -4.6308,-1.0494 -6.2,-1 -1.5692,0.0494 -4.6308,1.0494 -6.2,1 -1.5692,-0.0494 -4.6307,-1.0494 -6.2,-1 -1.5693,0.0494 -4.6307,1.0494 -6.2,1 -1.5693,-0.0494 -4.6308,-1.0492 -6.2,-1 -1.5692,0.0492 -4.6308,1.0481 -6.2,1 -1.5692,-0.0481 -4.6306,-1.0415 -6.2,-1 -1.5694,0.0415 -4.63,1 -6.2,1 A 50.8361,50.8361 0 0 1 5,28 v -2 a 50.8361,50.8361 0 0 0 6.2,1 c 1.57,0 4.6305,-0.9586 6.2,-1 1.5695,-0.0414 4.6308,0.9519 6.2,1 1.5692,0.0481 4.6308,-0.9508 6.2,-1 1.5692,-0.0492 4.6307,0.9506 6.2,1 1.5693,0.0494 4.6307,-0.9506 6.2,-1 1.5693,-0.0494 4.6307,0.9506 6.2,1 1.5693,0.0494 4.6307,-0.9506 6.2,-1 1.5693,-0.0494 4.6307,0.9506 6.2,1 A 42.5886,42.5886 0 0 0 67,26 Z"
       id="path20" />
    <rect
       x="5"
       y="17"
       width="31"
       height="19"
       fill="#1e50a0"
       id="rect20" />
    <g
       id="g27">
      <polygon
         fill="#ffffff"
         points="6,20.332 32.113,36 36,36 36,33.668 9.887,18 6,18 "
         id="polygon20" />
      <polygon
         fill="#ffffff"
         points="32.113,18 6,33.668 6,36 9.887,36 36,20.332 36,18 "
         id="polygon21" />
      <rect
         x="6"
         y="24"
         width="30"
         height="6"
         fill="#ffffff"
         id="rect21" />
      <rect
         x="18"
         y="18"
         width="6"
         height="18"
         fill="#ffffff"
         id="rect22" />
      <rect
         x="20"
         y="18"
         width="2"
         height="18"
         fill="#d22f27"
         id="rect23" />
      <rect
         x="6"
         y="26"
         width="30"
         height="2"
         fill="#d22f27"
         id="rect24" />
      <polygon
         fill="#d22f27"
         points="26,30 36,36 36,33.668 29.887,30 "
         id="polygon24" />
      <polygon
         fill="#d22f27"
         points="24,22.868 24,24 26,24 36,18 32.113,18 "
         id="polygon25" />
      <polygon
         fill="#d22f27"
         points="16,24 6,18 6,20.332 12.113,24 "
         id="polygon26" />
      <polygon
         fill="#d22f27"
         points="18,31.132 18,30 16,30 6,36 9.887,36 "
         id="polygon27" />
    </g>
  </g>
  <g
     id="line"
     transform="translate(-4,-15.998229)">
    <rect
       x="5"
       y="17"
       width="62"
       height="38"
       fill="none"
       stroke="#000000"
       stroke-linecap="round"
       stroke-linejoin="round"
       stroke-width="2"
       id="rect27" />
  </g>
</svg>
