<svg xmlns="http://www.w3.org/2000/svg" xmlns:svg="http://www.w3.org/2000/svg" id="emoji" width="64" height="40" version="1.1" viewBox="0 0 64 40"><g id="color" transform="translate(-4,-16)"><rect id="rect1" width="62" height="38" x="5" y="17" fill="#fff"/><g id="g12"><polygon id="polygon1" fill="#fcea2b" stroke="#fcea2b" stroke-linecap="round" stroke-linejoin="round" points="27.5 22.91 28.5 25.91 43.5 25.91 44.5 22.91"/><path id="path1" fill="#1e50a0" stroke="#1e50a0" stroke-linecap="round" stroke-linejoin="round" d="m 36,45.91 c 0,0 7.5,-2.5 7.5,-10 v -10 h -15 v 10 c 0,7.5 7.5,10 7.5,10 z"/><path id="path2" fill="#d22f27" stroke="#d22f27" stroke-miterlimit="10" d="m 28.5,32.41 v 3.5 a 10.1844,10.1844 0 0 0 0.3063,2.5 H 43.1938 A 10.1845,10.1845 0 0 0 43.5,35.91 v -3.5 z"/><g id="g8"><g id="g3"><line id="line2" x1="36" x2="36" y1="30.16" y2="27.66" fill="#fcea2b" stroke="#fcea2b" stroke-linecap="round" stroke-linejoin="round"/><line id="line3" x1="35.375" x2="36.625" y1="28.494" y2="28.494" fill="#fcea2b" stroke="#fcea2b" stroke-linecap="round" stroke-linejoin="round"/></g><g id="g5"><line id="line4" x1="40.5" x2="40.5" y1="30.16" y2="27.66" fill="#fcea2b" stroke="#fcea2b" stroke-linecap="round" stroke-linejoin="round"/><line id="line5" x1="39.875" x2="41.125" y1="28.494" y2="28.494" fill="#fcea2b" stroke="#fcea2b" stroke-linecap="round" stroke-linejoin="round"/></g><g id="g7"><line id="line6" x1="31.5" x2="31.5" y1="30.16" y2="27.66" fill="#fcea2b" stroke="#fcea2b" stroke-linecap="round" stroke-linejoin="round"/><line id="line7" x1="30.875" x2="32.125" y1="28.494" y2="28.494" fill="#fcea2b" stroke="#fcea2b" stroke-linecap="round" stroke-linejoin="round"/></g></g><g id="g9"><line id="line8" x1="36" x2="36" y1="36.66" y2="34.16" fill="#fff" stroke="#fff" stroke-linecap="round" stroke-linejoin="round"/><line id="line9" x1="37.25" x2="34.75" y1="35.41" y2="35.41" fill="#fff" stroke="#fff" stroke-linecap="round" stroke-linejoin="round"/></g><circle id="circle9" cx="36" cy="43.91" r="1" fill="#fcea2b"/><circle id="circle10" cx="33" cy="40.91" r="1" fill="#fcea2b"/><circle id="circle11" cx="39" cy="40.91" r="1" fill="#fcea2b"/><path id="path11" fill="none" stroke="#a57939" stroke-linecap="round" stroke-linejoin="round" stroke-width="2" d="M 47,46.2692 A 23.0924,23.0924 0 0 1 36,49.09"/><path id="path12" fill="none" stroke="#a57939" stroke-linecap="round" stroke-linejoin="round" stroke-width="2" d="M 25,46.2692 A 23.093,23.093 0 0 0 36,49.09"/></g></g><g id="line" transform="translate(-4,-16)"><rect id="rect12" width="62" height="38" x="5" y="17" fill="none" stroke="#000" stroke-linecap="round" stroke-linejoin="round" stroke-width="2"/></g></svg>