<svg xmlns="http://www.w3.org/2000/svg" xmlns:svg="http://www.w3.org/2000/svg" id="emoji" width="64" height="40" version="1.1" viewBox="0 0 64 40"><g id="color" transform="translate(-4,-16)"><rect id="rect1" width="62" height="38" x="5" y="17" fill="#f1b31c"/><path id="path1" fill="#d22f27" d="m 23,33 v 7 a 2.0059,2.0059 0 0 1 -2,2 h -4 a 2.0059,2.0059 0 0 1 -2,-2 v -7"/><rect id="rect2" width="62" height="9" x="5" y="17" fill="#d22f27"/><rect id="rect3" width="62" height="9" x="5" y="46" fill="#d22f27"/><rect id="rect4" width="4" height="4" x="19" y="33" fill="#f1b31c"/><circle id="circle4" cx="19" cy="37" r="1.5" fill="#6a462f"/><g id="g8"><line id="line4" x1="27" x2="27" y1="33" y2="42" fill="none" stroke="#6a462f" stroke-linecap="round" stroke-linejoin="round" stroke-width="2"/><line id="line5" x1="11" x2="11" y1="33" y2="42" fill="none" stroke="#6a462f" stroke-linecap="round" stroke-linejoin="round" stroke-width="2"/><path id="path5" fill="none" stroke="#6a462f" stroke-linecap="round" stroke-linejoin="round" stroke-width="2" d="m 15,30 a 8.5678,8.5678 0 0 1 4,-1"/><path id="path6" fill="none" stroke="#6a462f" stroke-linecap="round" stroke-linejoin="round" stroke-width="2" d="M 23,30 A 8.5678,8.5678 0 0 0 19,29"/><line id="line6" x1="15" x2="23" y1="33" y2="33" fill="none" stroke="#6a462f" stroke-linecap="round" stroke-linejoin="round" stroke-width="2"/><path id="path7" fill="none" stroke="#6a462f" stroke-linecap="round" stroke-linejoin="round" stroke-width="2" d="m 23,33 v 7 a 2.0059,2.0059 0 0 1 -2,2 h -4 a 2.0059,2.0059 0 0 1 -2,-2 v -7"/><line id="line7" x1="10" x2="12" y1="42" y2="42" fill="none" stroke="#6a462f" stroke-linecap="round" stroke-linejoin="round" stroke-width="2"/><line id="line8" x1="26" x2="28" y1="42" y2="42" fill="none" stroke="#6a462f" stroke-linecap="round" stroke-linejoin="round" stroke-width="2"/></g></g><g id="line" transform="translate(-4,-16)"><rect id="rect8" width="62" height="38" x="5" y="17" fill="none" stroke="#000" stroke-linecap="round" stroke-linejoin="round" stroke-width="2"/></g></svg>