<svg xmlns="http://www.w3.org/2000/svg" xmlns:svg="http://www.w3.org/2000/svg" id="emoji" width="64" height="40" version="1.1" viewBox="0 0 64 40"><g id="color" transform="translate(-4,-16)"><rect id="rect1" width="62" height="38" x="5" y="17" fill="#d22f27"/><rect id="rect2" width="62" height="13" x="5" y="17" fill="#5c9e31"/><rect id="rect3" width="62" height="12" x="5" y="30" fill="#fff"/><line id="line3" x1="36" x2="36" y1="32" y2="40" fill="none" stroke="#d22f27" stroke-linecap="round" stroke-linejoin="round"/><path id="path3" fill="none" stroke="#d22f27" stroke-linecap="round" stroke-linejoin="round" d="m 38,32 a 4,4 0 0 1 0,8"/><path id="path4" fill="none" stroke="#d22f27" stroke-linecap="round" stroke-linejoin="round" d="m 36,40 a 4.0012,4.0012 0 0 0 1.2285,-6.7678"/><path id="path5" fill="none" stroke="#d22f27" stroke-linecap="round" stroke-linejoin="round" d="M 36,40 A 4.0013,4.0013 0 0 1 34.7716,33.2322"/><path id="path6" fill="none" stroke="#d22f27" stroke-linecap="round" stroke-linejoin="round" d="m 34,32 a 4,4 0 0 0 0,8"/></g><g id="line" transform="translate(-4,-16)"><rect id="rect6" width="62" height="38" x="5" y="17" fill="none" stroke="#000" stroke-linecap="round" stroke-linejoin="round" stroke-width="2"/></g></svg>