<svg xmlns="http://www.w3.org/2000/svg" xmlns:svg="http://www.w3.org/2000/svg" id="emoji" width="64" height="40" version="1.1" viewBox="0 0 64 40"><g id="color" transform="translate(-4,-16)"><rect id="rect1" width="62" height="38" x="5" y="17" fill="#1e50a0"/><g id="g12"><polygon id="polygon1" fill="#f1b31c" stroke="#f1b31c" stroke-linecap="round" stroke-linejoin="round" points="36.816 26.753 34.616 25.154 37.384 25.087 35.105 26.794 36.024 24.099"/><polygon id="polygon2" fill="#f1b31c" stroke="#f1b31c" stroke-linecap="round" stroke-linejoin="round" points="36.816 47.859 34.616 46.261 37.384 46.194 35.105 47.901 36.024 45.206"/><polygon id="polygon3" fill="#f1b31c" stroke="#f1b31c" stroke-linecap="round" stroke-linejoin="round" points="27.804 31.88 25.603 30.282 28.371 30.215 26.093 31.922 27.011 29.227"/><polygon id="polygon4" fill="#f1b31c" stroke="#f1b31c" stroke-linecap="round" stroke-linejoin="round" points="46.082 42.434 43.882 40.835 46.65 40.768 44.371 42.475 45.29 39.78"/><polygon id="polygon5" fill="#f1b31c" stroke="#f1b31c" stroke-linecap="round" stroke-linejoin="round" points="31.549 28.2 29.348 26.602 32.116 26.535 29.838 28.242 30.757 25.547"/><polygon id="polygon6" fill="#f1b31c" stroke="#f1b31c" stroke-linecap="round" stroke-linejoin="round" points="42.102 46.479 39.901 44.88 42.67 44.814 40.391 46.52 41.31 43.826"/><polygon id="polygon7" fill="#f1b31c" stroke="#f1b31c" stroke-linecap="round" stroke-linejoin="round" points="47.37 37.306 45.169 35.707 47.937 35.641 45.659 37.347 46.578 34.653"/><polygon id="polygon8" fill="#f1b31c" stroke="#f1b31c" stroke-linecap="round" stroke-linejoin="round" points="26.263 37.306 24.063 35.707 26.831 35.641 24.552 37.347 25.471 34.653"/><polygon id="polygon9" fill="#f1b31c" stroke="#f1b31c" stroke-linecap="round" stroke-linejoin="round" points="41.992 28.175 39.792 26.576 42.56 26.51 40.281 28.216 41.2 25.522"/><polygon id="polygon10" fill="#f1b31c" stroke="#f1b31c" stroke-linecap="round" stroke-linejoin="round" points="31.439 46.454 29.238 44.855 32.007 44.788 29.728 46.495 30.647 43.8"/><polygon id="polygon11" fill="#f1b31c" stroke="#f1b31c" stroke-linecap="round" stroke-linejoin="round" points="45.841 31.845 43.64 30.246 46.408 30.179 44.13 31.886 45.048 29.191"/><polygon id="polygon12" fill="#f1b31c" stroke="#f1b31c" stroke-linecap="round" stroke-linejoin="round" points="27.562 42.398 25.361 40.799 28.129 40.733 25.851 42.439 26.77 39.745"/></g></g><g id="line" transform="translate(-4,-16)"><rect id="rect12" width="62" height="38" x="5" y="17" fill="none" stroke="#000" stroke-linecap="round" stroke-linejoin="round" stroke-width="2"/></g></svg>