<?xml version="1.0" encoding="UTF-8" standalone="no"?>
<svg
   id="emoji"
   viewBox="0 0 64 40"
   version="1.1"
   sodipodi:docname="1f1ea-1f1e8.svg"
   width="64"
   height="40"
   xmlns:inkscape="http://www.inkscape.org/namespaces/inkscape"
   xmlns:sodipodi="http://sodipodi.sourceforge.net/DTD/sodipodi-0.dtd"
   xmlns="http://www.w3.org/2000/svg"
   xmlns:svg="http://www.w3.org/2000/svg">
  <defs
     id="defs6" />
  <sodipodi:namedview
     id="namedview6"
     pagecolor="#ffffff"
     bordercolor="#000000"
     borderopacity="0.25"
     inkscape:showpageshadow="2"
     inkscape:pageopacity="0.0"
     inkscape:pagecheckerboard="0"
     inkscape:deskcolor="#d1d1d1" />
  <g
     id="color"
     transform="translate(-4,-16)">
    <rect
       x="5"
       y="17"
       width="62"
       height="38"
       fill="#fcea2b"
       id="rect1" />
    <rect
       x="5"
       y="45"
       width="62"
       height="10"
       fill="#d22f27"
       id="rect2" />
    <rect
       x="5"
       y="36"
       width="62"
       height="9"
       fill="#1e50a0"
       id="rect3" />
    <ellipse
       cx="36"
       cy="36"
       rx="4.5"
       ry="6"
       fill="#92d3f5"
       id="ellipse3" />
    <path
       fill="#5c9e31"
       d="m 40.5,36 c 0,3.3137 -2.0147,6 -4.5,6 -2.4853,0 -4.5,-2.6863 -4.5,-6 z"
       id="path3" />
    <line
       x1="36"
       x2="36"
       y1="46"
       y2="42"
       fill="none"
       stroke="#d22f27"
       stroke-miterlimit="10"
       stroke-width="2"
       id="line3" />
    <path
       fill="none"
       stroke="#f1b31c"
       stroke-linecap="round"
       stroke-linejoin="round"
       stroke-width="2"
       d="M 42.0652,42 A 10.9284,10.9284 0 0 0 44.5,35 V 30 H 46"
       id="path4" />
    <path
       fill="none"
       stroke="#f1b31c"
       stroke-linecap="round"
       stroke-linejoin="round"
       stroke-width="2"
       d="m 26,30 h 1.5 v 5 a 10.9284,10.9284 0 0 0 2.4348,7"
       id="path5" />
    <path
       fill="none"
       stroke="#6a462f"
       stroke-linecap="round"
       stroke-linejoin="round"
       stroke-width="2"
       d="m 29,26 c 3.5,-1 5.25,0 7,3 1.75,-3 3.5,-4 7,-3"
       id="path6" />
    <ellipse
       cx="36"
       cy="36"
       rx="4.5"
       ry="6"
       fill="none"
       stroke="#d22f27"
       stroke-miterlimit="10"
       stroke-width="2"
       id="ellipse6" />
  </g>
  <g
     id="line"
     transform="translate(-4,-16)">
    <rect
       x="5"
       y="17"
       width="62"
       height="38"
       fill="none"
       stroke="#000000"
       stroke-linecap="round"
       stroke-linejoin="round"
       stroke-width="2"
       id="rect6" />
  </g>
</svg>
