<?xml version="1.0" encoding="UTF-8" standalone="no"?>
<svg
   id="emoji"
   viewBox="0 0 64 40"
   version="1.1"
   sodipodi:docname="1f1e6-1f1f7.svg"
   width="64"
   height="40"
   xmlns:inkscape="http://www.inkscape.org/namespaces/inkscape"
   xmlns:sodipodi="http://sodipodi.sourceforge.net/DTD/sodipodi-0.dtd"
   xmlns="http://www.w3.org/2000/svg"
   xmlns:svg="http://www.w3.org/2000/svg">
  <defs
     id="defs5" />
  <sodipodi:namedview
     id="namedview5"
     pagecolor="#ffffff"
     bordercolor="#000000"
     borderopacity="0.25"
     inkscape:showpageshadow="2"
     inkscape:pageopacity="0.0"
     inkscape:pagecheckerboard="0"
     inkscape:deskcolor="#d1d1d1" />
  <g
     id="color"
     transform="translate(-4,-16)">
    <rect
       x="5"
       y="17"
       width="62"
       height="38"
       fill="#1e50a0"
       id="rect1" />
    <rect
       x="5"
       y="17"
       width="62"
       height="38"
       fill="#ffffff"
       id="rect2" />
    <rect
       x="5"
       y="42"
       width="62"
       height="13"
       fill="#61b2e4"
       id="rect3" />
    <rect
       x="5"
       y="17"
       width="62"
       height="13"
       fill="#61b2e4"
       id="rect4" />
    <polygon
       fill="#f1b31c"
       stroke="#f1b31c"
       stroke-linecap="round"
       stroke-linejoin="round"
       points="37.176,34.299 39.236,33.528 37.902,35.35 40,36 37.902,36.65 39.236,38.472 37.176,37.701 37.236,40 36,38.103 34.764,40 34.824,37.701 32.764,38.472 34.098,36.65 32,36 34.098,35.35 32.764,33.528 34.824,34.299 34.764,32 36,33.897 37.236,32 "
       id="polygon4" />
  </g>
  <g
     id="line"
     transform="translate(-4,-16)">
    <rect
       x="5"
       y="17"
       width="62"
       height="38"
       fill="none"
       stroke="#000000"
       stroke-linecap="round"
       stroke-linejoin="round"
       stroke-width="2"
       id="rect5" />
  </g>
</svg>
