<svg xmlns="http://www.w3.org/2000/svg" xmlns:svg="http://www.w3.org/2000/svg" id="emoji" width="64" height="40" version="1.1" viewBox="0 0 64 40"><g id="color" transform="translate(-4,-16)"><rect id="rect1" width="62" height="38" x="5" y="17" fill="#fff"/><rect id="rect2" width="62" height="8" x="5" y="32" fill="#1e50a0"/><rect id="rect3" width="62" height="8" x="5" y="47" fill="#1e50a0"/><rect id="rect4" width="62" height="8" x="5" y="17" fill="#1e50a0"/><path id="path4" fill="#d22f27" d="M 5,55 4.999999,36 5,17 37.91,36 21.46,45.5 Z"/><path id="path5" fill="#fff" stroke="#fff" stroke-linecap="round" stroke-linejoin="round" d="m 19.5,39.74 -4.253,-0.8137 -2.241,3.705 -0.5402,-4.296 -4.216,-0.9863 3.919,-1.841 -0.3648,-4.314 2.962,3.158 3.991,-1.68 -2.088,3.793 z" transform="matrix(-0.4341,-0.75188326,0.75188326,-0.4341,-5.4402358,62.659078)"/></g><g id="line" transform="translate(-4,-16)"><rect id="rect5" width="62" height="38" x="5" y="17" fill="none" stroke="#000" stroke-linecap="round" stroke-linejoin="round" stroke-width="2"/></g></svg>