<?xml version="1.0" encoding="UTF-8" standalone="no"?>
<svg
   id="emoji"
   viewBox="0 0 64 40"
   version="1.1"
   sodipodi:docname="1f1e6-1f1ff.svg"
   width="64"
   height="40"
   xmlns:inkscape="http://www.inkscape.org/namespaces/inkscape"
   xmlns:sodipodi="http://sodipodi.sourceforge.net/DTD/sodipodi-0.dtd"
   xmlns="http://www.w3.org/2000/svg"
   xmlns:svg="http://www.w3.org/2000/svg">
  <defs
     id="defs4" />
  <sodipodi:namedview
     id="namedview4"
     pagecolor="#ffffff"
     bordercolor="#000000"
     borderopacity="0.25"
     inkscape:showpageshadow="2"
     inkscape:pageopacity="0.0"
     inkscape:pagecheckerboard="0"
     inkscape:deskcolor="#d1d1d1" />
  <g
     id="color"
     transform="translate(-4,-16)">
    <rect
       x="5"
       y="17"
       width="62"
       height="38"
       fill="#d22f27"
       id="rect1" />
    <rect
       x="5"
       y="42"
       width="62"
       height="13"
       fill="#5c9e31"
       id="rect2" />
    <rect
       x="5"
       y="17"
       width="62"
       height="13"
       fill="#61b2e4"
       id="rect3" />
    <polygon
       fill="#ffffff"
       stroke="#ffffff"
       stroke-linecap="round"
       stroke-linejoin="round"
       points="39.584,34.618 41.137,33.894 40.39,35.436 42,36.022 40.382,36.584 41.106,38.137 39.564,37.39 38.978,39 38.416,37.382 36.863,38.106 37.61,36.564 36,35.978 37.618,35.416 36.894,33.863 38.436,34.61 39.022,33 "
       id="polygon3" />
    <path
       fill="#ffffff"
       stroke="#ffffff"
       stroke-linecap="round"
       stroke-linejoin="round"
       d="M 30.5307,36 A 4.0529,4.0529 0 0 1 33.9091,32.0764 4.3955,4.3955 0 0 0 33.0983,32 a 4.0043,4.0043 0 1 0 0,8 4.3955,4.3955 0 0 0 0.8108,-0.0764 A 4.0529,4.0529 0 0 1 30.5307,36 Z"
       id="path3" />
  </g>
  <g
     id="line"
     transform="translate(-4,-16)">
    <rect
       x="5"
       y="17"
       width="62"
       height="38"
       fill="none"
       stroke="#000000"
       stroke-linecap="round"
       stroke-linejoin="round"
       stroke-width="2"
       id="rect4" />
  </g>
</svg>
