<?xml version="1.0" encoding="UTF-8" standalone="no"?>
<svg
   id="emoji"
   viewBox="0 0 64 40"
   version="1.1"
   sodipodi:docname="1f1ef-1f1ea.svg"
   width="64"
   height="40"
   xmlns:inkscape="http://www.inkscape.org/namespaces/inkscape"
   xmlns:sodipodi="http://sodipodi.sourceforge.net/DTD/sodipodi-0.dtd"
   xmlns="http://www.w3.org/2000/svg"
   xmlns:svg="http://www.w3.org/2000/svg">
  <defs
     id="defs6" />
  <sodipodi:namedview
     id="namedview6"
     pagecolor="#ffffff"
     bordercolor="#000000"
     borderopacity="0.25"
     inkscape:showpageshadow="2"
     inkscape:pageopacity="0.0"
     inkscape:pagecheckerboard="0"
     inkscape:deskcolor="#d1d1d1" />
  <g
     id="color"
     transform="translate(-4,-16)">
    <rect
       x="5"
       y="17"
       width="62"
       height="38"
       fill="#ffffff"
       id="rect1" />
    <polygon
       fill="#d22f27"
       points="63,17 5,52 5,55 9,55 67,20 67,17 "
       id="polygon1" />
    <polygon
       fill="#d22f27"
       points="9,17 67,52 67,55 63,55 5,20 5,17 "
       id="polygon2" />
    <path
       fill="#d22f27"
       stroke="#d22f27"
       stroke-linecap="round"
       stroke-linejoin="round"
       stroke-width="1.522"
       d="m 38.74,22.34 c 0,0 0.2958,0.5821 0.2996,2.759 0.0038,2.177 -0.9878,4.162 -3.017,5.113 -2.03,-0.9514 -3.071,-2.972 -3.071,-5.113 0,-2.141 0.3002,-2.759 0.3002,-2.759 z"
       id="path2" />
    <path
       fill="#fcea2b"
       fill-rule="evenodd"
       stroke="#fcea2b"
       stroke-linecap="round"
       stroke-linejoin="round"
       stroke-miterlimit="10"
       stroke-width="0.9856"
       d="m 32.66,19.96 h 6.683 l -0.5663,1.193 h -5.604 z"
       paint-order="normal"
       id="path3" />
    <rect
       x="33.259998"
       y="22.719999"
       ry="0.0166"
       width="5.4780002"
       height="0.8682"
       fill="#fcea2b"
       fill-rule="evenodd"
       stroke="#fcea2b"
       stroke-linecap="round"
       stroke-linejoin="round"
       stroke-miterlimit="10"
       stroke-width="0.6318"
       paint-order="stroke fill markers"
       id="rect3" />
    <rect
       x="33.259998"
       y="25.08"
       ry="0.0166"
       width="5.4780002"
       height="0.8682"
       fill="#fcea2b"
       fill-rule="evenodd"
       stroke="#fcea2b"
       stroke-linecap="round"
       stroke-linejoin="round"
       stroke-miterlimit="10"
       stroke-width="0.6318"
       paint-order="stroke fill markers"
       id="rect4" />
    <rect
       x="33.740002"
       y="27.389999"
       ry="0.0137"
       width="4.526"
       height="0.7173"
       fill="#fcea2b"
       fill-rule="evenodd"
       stroke="#fcea2b"
       stroke-linecap="round"
       stroke-linejoin="round"
       stroke-miterlimit="10"
       stroke-width="0.522"
       paint-order="stroke fill markers"
       id="rect5" />
  </g>
  <g
     id="line"
     transform="translate(-4,-16)">
    <rect
       x="5"
       y="17"
       width="62"
       height="38"
       fill="none"
       stroke="#000000"
       stroke-linecap="round"
       stroke-linejoin="round"
       stroke-width="2"
       id="rect6" />
  </g>
</svg>
