<svg xmlns="http://www.w3.org/2000/svg" xmlns:svg="http://www.w3.org/2000/svg" id="emoji" width="64" height="40" version="1.1" viewBox="0 0 64 40"><g id="color" transform="translate(-4,-16)"><rect id="rect1" width="62" height="38" x="5" y="17" fill="#61b2e4"/><rect id="rect2" width="31" height="19" x="5" y="17" fill="#1e50a0"/><path id="path2" fill="#d22f27" d="m 52,48 c 0,0 6,-1.9375 6,-7.75 V 34.5 H 46 v 5.75 c 0,5.8125 6,7.75 6,7.75 z"/><rect id="rect3" width="5" height="4" x="53" y="37" fill="#fff"/><rect id="rect4" width="5" height="4" x="46" y="37" fill="#fff"/><path id="path4" fill="#fff" d="M 51,47.5743 V 43 H 46.5118 A 9.0283,9.0283 0 0 0 51,47.5743 Z"/><path id="path5" fill="#fff" d="M 57.4882,43 H 53 v 4.5743 A 9.028,9.028 0 0 0 57.4882,43 Z"/><rect id="rect5" width="11" height="2" x="46.5" y="34" fill="#d22f27" stroke="#d22f27" stroke-linecap="round" stroke-linejoin="round"/><g id="g12"><polygon id="polygon5" fill="#fff" points="6 20.332 32.113 36 36 36 36 33.668 9.887 18 6 18"/><polygon id="polygon6" fill="#fff" points="32.113 18 6 33.668 6 36 9.887 36 36 20.332 36 18"/><rect id="rect6" width="30" height="6" x="6" y="24" fill="#fff"/><rect id="rect7" width="6" height="18" x="18" y="18" fill="#fff"/><rect id="rect8" width="2" height="18" x="20" y="18" fill="#d22f27"/><rect id="rect9" width="30" height="2" x="6" y="26" fill="#d22f27"/><polygon id="polygon9" fill="#d22f27" points="26 30 36 36 36 33.668 29.887 30"/><polygon id="polygon10" fill="#d22f27" points="24 22.868 24 24 26 24 36 18 32.113 18"/><polygon id="polygon11" fill="#d22f27" points="16 24 6 18 6 20.332 12.113 24"/><polygon id="polygon12" fill="#d22f27" points="18 31.132 18 30 16 30 6 36 9.887 36"/></g></g><g id="line" transform="translate(-4,-16)"><rect id="rect12" width="62" height="38" x="5" y="17" fill="none" stroke="#000" stroke-linecap="round" stroke-linejoin="round" stroke-width="2"/></g></svg>