<?xml version="1.0" encoding="UTF-8" standalone="no"?>
<svg
   id="emoji"
   viewBox="0 0 64 40"
   version="1.1"
   sodipodi:docname="1f1e8-1f1f0.svg"
   width="64"
   height="40"
   xmlns:inkscape="http://www.inkscape.org/namespaces/inkscape"
   xmlns:sodipodi="http://sodipodi.sourceforge.net/DTD/sodipodi-0.dtd"
   xmlns="http://www.w3.org/2000/svg"
   xmlns:svg="http://www.w3.org/2000/svg">
  <defs
     id="defs20" />
  <sodipodi:namedview
     id="namedview20"
     pagecolor="#ffffff"
     bordercolor="#000000"
     borderopacity="0.25"
     inkscape:showpageshadow="2"
     inkscape:pageopacity="0.0"
     inkscape:pagecheckerboard="0"
     inkscape:deskcolor="#d1d1d1" />
  <g
     id="color"
     transform="translate(-4,-16)">
    <rect
       x="5"
       y="17"
       width="62"
       height="38"
       fill="#1e50a0"
       id="rect1" />
    <g
       id="g13">
      <circle
         cx="51.099998"
         cy="50"
         r="1.75"
         fill="#ffffff"
         id="circle1" />
      <circle
         cx="51.099998"
         cy="30"
         r="1.75"
         fill="#ffffff"
         id="circle2" />
      <g
         id="g4">
        <circle
           cx="56.099998"
           cy="48.660301"
           r="1.75"
           fill="#ffffff"
           id="circle3" />
        <circle
           cx="46.099998"
           cy="31.339701"
           r="1.75"
           fill="#ffffff"
           id="circle4" />
      </g>
      <circle
         cx="41.099998"
         cy="40"
         r="1.75"
         fill="#ffffff"
         id="circle5" />
      <circle
         cx="61.099998"
         cy="40"
         r="1.75"
         fill="#ffffff"
         id="circle6" />
      <g
         id="g8">
        <circle
           cx="59.7603"
           cy="45"
           r="1.75"
           fill="#ffffff"
           id="circle7" />
        <circle
           cx="42.4398"
           cy="35"
           r="1.75"
           fill="#ffffff"
           id="circle8" />
      </g>
      <g
         id="g10">
        <circle
           cx="46.099998"
           cy="48.660301"
           r="1.75"
           fill="#ffffff"
           id="circle9" />
        <circle
           cx="56.099998"
           cy="31.339701"
           r="1.75"
           fill="#ffffff"
           id="circle10" />
      </g>
      <g
         id="g12">
        <circle
           cx="42.4398"
           cy="45"
           r="1.75"
           fill="#ffffff"
           id="circle11" />
        <circle
           cx="59.7603"
           cy="35"
           r="1.75"
           fill="#ffffff"
           id="circle12" />
      </g>
    </g>
    <g
       id="g20">
      <polygon
         fill="#ffffff"
         points="6,20.332 32.113,36 36,36 36,33.668 9.887,18 6,18 "
         id="polygon13" />
      <polygon
         fill="#ffffff"
         points="32.113,18 6,33.668 6,36 9.887,36 36,20.332 36,18 "
         id="polygon14" />
      <rect
         x="6"
         y="24"
         width="30"
         height="6"
         fill="#ffffff"
         id="rect14" />
      <rect
         x="18"
         y="18"
         width="6"
         height="18"
         fill="#ffffff"
         id="rect15" />
      <rect
         x="20"
         y="18"
         width="2"
         height="18"
         fill="#d22f27"
         id="rect16" />
      <rect
         x="6"
         y="26"
         width="30"
         height="2"
         fill="#d22f27"
         id="rect17" />
      <polygon
         fill="#d22f27"
         points="26,30 36,36 36,33.668 29.887,30 "
         id="polygon17" />
      <polygon
         fill="#d22f27"
         points="24,22.868 24,24 26,24 36,18 32.113,18 "
         id="polygon18" />
      <polygon
         fill="#d22f27"
         points="16,24 6,18 6,20.332 12.113,24 "
         id="polygon19" />
      <polygon
         fill="#d22f27"
         points="18,31.132 18,30 16,30 6,36 9.887,36 "
         id="polygon20" />
    </g>
  </g>
  <g
     id="line"
     transform="translate(-4,-16)">
    <rect
       x="5"
       y="17"
       width="62"
       height="38"
       fill="none"
       stroke="#000000"
       stroke-linecap="round"
       stroke-linejoin="round"
       stroke-width="2"
       id="rect20" />
  </g>
</svg>
