<?xml version="1.0" encoding="UTF-8" standalone="no"?>
<svg
   id="emoji"
   viewBox="0 0 64 40"
   version="1.1"
   sodipodi:docname="1f1ee-1f1f2.svg"
   width="64"
   height="40"
   xmlns:inkscape="http://www.inkscape.org/namespaces/inkscape"
   xmlns:sodipodi="http://sodipodi.sourceforge.net/DTD/sodipodi-0.dtd"
   xmlns="http://www.w3.org/2000/svg"
   xmlns:svg="http://www.w3.org/2000/svg">
  <defs
     id="defs5" />
  <sodipodi:namedview
     id="namedview5"
     pagecolor="#ffffff"
     bordercolor="#000000"
     borderopacity="0.25"
     inkscape:showpageshadow="2"
     inkscape:pageopacity="0.0"
     inkscape:pagecheckerboard="0"
     inkscape:deskcolor="#d1d1d1" />
  <g
     id="color"
     transform="translate(-4,-16)">
    <rect
       x="5"
       y="17"
       width="62"
       height="38"
       fill="#d22f27"
       id="rect1" />
    <path
       fill="#ffffff"
       stroke="#ffffff"
       stroke-linecap="round"
       stroke-linejoin="round"
       d="m 42.34,34.23 3.988,-6.744 2.792,-0.6478 -2.484,1.423 -3.372,7.467 -6.186,0.3526 -5.546,2.496 3.527,6.996 -0.9624,2.697 0.1428,-2.857 -4.468,-6.868 3.191,-4.973 0.2343,-5.676 -7.834,0.3142 -2.06,-1.992 2.545,1.312 8.106,-1.223 3.471,4.805 z"
       id="path1" />
    <path
       fill="none"
       stroke="#fcea2b"
       stroke-linecap="round"
       stroke-linejoin="round"
       stroke-width="2"
       d="m 35.82,33.58 1.256,2.492"
       id="path2" />
    <path
       fill="none"
       stroke="#fcea2b"
       stroke-linecap="round"
       stroke-linejoin="round"
       stroke-width="2"
       d="m 37.42,31.11 -1.603,2.476 -2.858,-0.01662"
       id="path3" />
    <polygon
       transform="matrix(0.6713,-0.3266,0.3266,0.6706,0.7123,21.38)"
       fill="#fcea2b"
       stroke="#fcea2b"
       stroke-linecap="round"
       stroke-linejoin="round"
       stroke-width="1.34"
       points="26.06,28.32 23.65,26.5 26.65,26.47 24.21,28.34 25.16,25.34 "
       id="polygon3" />
    <polygon
       transform="matrix(0.3343,-0.6675,0.6671,0.3338,7.886,51.12)"
       fill="#fcea2b"
       stroke="#fcea2b"
       stroke-linecap="round"
       stroke-linejoin="round"
       stroke-width="1.34"
       points="51.65,27.47 49.21,29.34 50.16,26.34 51.06,29.32 48.65,27.5 "
       id="polygon4" />
    <polygon
       transform="matrix(0.4707,-0.5794,0.5792,0.4701,-7.299,42.64)"
       fill="#fcea2b"
       stroke="#fcea2b"
       stroke-linecap="round"
       stroke-linejoin="round"
       stroke-width="1.34"
       points="34.65,47.5 37.65,47.47 35.21,49.34 36.16,46.34 37.06,49.32 "
       id="polygon5" />
  </g>
  <g
     id="line"
     transform="translate(-4,-16)">
    <rect
       x="5"
       y="17"
       width="62"
       height="38"
       fill="none"
       stroke="#000000"
       stroke-linecap="round"
       stroke-linejoin="round"
       stroke-width="2"
       id="rect5" />
  </g>
</svg>
