<svg xmlns="http://www.w3.org/2000/svg" xmlns:svg="http://www.w3.org/2000/svg" id="emoji" width="64" height="40" version="1.1" viewBox="0 0 64 40"><g id="color" transform="translate(-4,-16)"><rect id="rect1" width="62" height="38" x="5" y="17" fill="#fff"/><rect id="rect2" width="17" height="38" x="5" y="17" fill="#d22f27"/><rect id="rect3" width="17" height="38" x="50" y="17" fill="#d22f27"/><line id="line3" x1="36" x2="36" y1="46" y2="41" fill="#d22f27" stroke="#d22f27" stroke-linecap="round" stroke-linejoin="round" stroke-width="2"/><polyline id="polyline3" fill="#d22f27" stroke="#d22f27" stroke-linecap="round" stroke-linejoin="round" stroke-width="2" points="36 41 42.8 41 42 39 46 35 46 32 43 32 39 36 39 29 36 26"/><polyline id="polyline4" fill="#d22f27" stroke="#d22f27" stroke-linecap="round" stroke-linejoin="round" stroke-width="2" points="36 41 29.2 41 30 39 26 35 26 32 29 32 33 36 33 29 36 26"/></g><g id="line" transform="translate(-4,-16)"><rect id="rect4" width="62" height="38" x="5" y="17" fill="none" stroke="#000" stroke-linecap="round" stroke-linejoin="round" stroke-width="2"/></g></svg>