<?xml version="1.0" encoding="UTF-8" standalone="no"?>
<svg
   id="emoji"
   viewBox="0 0 64 40"
   version="1.1"
   sodipodi:docname="1f1e8-1f1e6.svg"
   width="64"
   height="40"
   xmlns:inkscape="http://www.inkscape.org/namespaces/inkscape"
   xmlns:sodipodi="http://sodipodi.sourceforge.net/DTD/sodipodi-0.dtd"
   xmlns="http://www.w3.org/2000/svg"
   xmlns:svg="http://www.w3.org/2000/svg">
  <defs
     id="defs4" />
  <sodipodi:namedview
     id="namedview4"
     pagecolor="#ffffff"
     bordercolor="#000000"
     borderopacity="0.25"
     inkscape:showpageshadow="2"
     inkscape:pageopacity="0.0"
     inkscape:pagecheckerboard="0"
     inkscape:deskcolor="#d1d1d1" />
  <g
     id="color"
     transform="translate(-4,-16)">
    <rect
       x="5"
       y="17"
       width="62"
       height="38"
       fill="#ffffff"
       id="rect1" />
    <rect
       x="5"
       y="17"
       width="17"
       height="38"
       fill="#d22f27"
       id="rect2" />
    <rect
       x="50"
       y="17"
       width="17"
       height="38"
       fill="#d22f27"
       id="rect3" />
    <line
       x1="36"
       x2="36"
       y1="46"
       y2="41"
       fill="#d22f27"
       stroke="#d22f27"
       stroke-linecap="round"
       stroke-linejoin="round"
       stroke-width="2"
       id="line3" />
    <polyline
       fill="#d22f27"
       stroke="#d22f27"
       stroke-linecap="round"
       stroke-linejoin="round"
       stroke-width="2"
       points="36 41 42.8 41 42 39 46 35 46 32 43 32 39 36 39 29 36 26"
       id="polyline3" />
    <polyline
       fill="#d22f27"
       stroke="#d22f27"
       stroke-linecap="round"
       stroke-linejoin="round"
       stroke-width="2"
       points="36 41 29.2 41 30 39 26 35 26 32 29 32 33 36 33 29 36 26"
       id="polyline4" />
  </g>
  <g
     id="line"
     transform="translate(-4,-16)">
    <rect
       x="5"
       y="17"
       width="62"
       height="38"
       fill="none"
       stroke="#000000"
       stroke-linecap="round"
       stroke-linejoin="round"
       stroke-width="2"
       id="rect4" />
  </g>
</svg>
