<?xml version="1.0" encoding="UTF-8" standalone="no"?>
<svg
   id="emoji"
   viewBox="0 0 64 40"
   version="1.1"
   sodipodi:docname="1f1ea-1f1f8.svg"
   width="64"
   height="40"
   xmlns:inkscape="http://www.inkscape.org/namespaces/inkscape"
   xmlns:sodipodi="http://sodipodi.sourceforge.net/DTD/sodipodi-0.dtd"
   xmlns="http://www.w3.org/2000/svg"
   xmlns:svg="http://www.w3.org/2000/svg">
  <defs
     id="defs8" />
  <sodipodi:namedview
     id="namedview8"
     pagecolor="#ffffff"
     bordercolor="#000000"
     borderopacity="0.25"
     inkscape:showpageshadow="2"
     inkscape:pageopacity="0.0"
     inkscape:pagecheckerboard="0"
     inkscape:deskcolor="#d1d1d1" />
  <g
     id="color"
     transform="translate(-4,-16)">
    <rect
       x="5"
       y="17"
       width="62"
       height="38"
       fill="#f1b31c"
       id="rect1" />
    <path
       fill="#d22f27"
       d="m 23,33 v 7 a 2.0059,2.0059 0 0 1 -2,2 h -4 a 2.0059,2.0059 0 0 1 -2,-2 v -7"
       id="path1" />
    <rect
       x="5"
       y="17"
       width="62"
       height="9"
       fill="#d22f27"
       id="rect2" />
    <rect
       x="5"
       y="46"
       width="62"
       height="9"
       fill="#d22f27"
       id="rect3" />
    <rect
       x="19"
       y="33"
       width="4"
       height="4"
       fill="#f1b31c"
       id="rect4" />
    <circle
       cx="19"
       cy="37"
       r="1.5"
       fill="#6a462f"
       id="circle4" />
    <g
       id="g8">
      <line
         x1="27"
         x2="27"
         y1="33"
         y2="42"
         fill="none"
         stroke="#6a462f"
         stroke-linecap="round"
         stroke-linejoin="round"
         stroke-width="2"
         id="line4" />
      <line
         x1="11"
         x2="11"
         y1="33"
         y2="42"
         fill="none"
         stroke="#6a462f"
         stroke-linecap="round"
         stroke-linejoin="round"
         stroke-width="2"
         id="line5" />
      <path
         fill="none"
         stroke="#6a462f"
         stroke-linecap="round"
         stroke-linejoin="round"
         stroke-width="2"
         d="m 15,30 a 8.5678,8.5678 0 0 1 4,-1"
         id="path5" />
      <path
         fill="none"
         stroke="#6a462f"
         stroke-linecap="round"
         stroke-linejoin="round"
         stroke-width="2"
         d="M 23,30 A 8.5678,8.5678 0 0 0 19,29"
         id="path6" />
      <line
         x1="15"
         x2="23"
         y1="33"
         y2="33"
         fill="none"
         stroke="#6a462f"
         stroke-linecap="round"
         stroke-linejoin="round"
         stroke-width="2"
         id="line6" />
      <path
         fill="none"
         stroke="#6a462f"
         stroke-linecap="round"
         stroke-linejoin="round"
         stroke-width="2"
         d="m 23,33 v 7 a 2.0059,2.0059 0 0 1 -2,2 h -4 a 2.0059,2.0059 0 0 1 -2,-2 v -7"
         id="path7" />
      <line
         x1="10"
         x2="12"
         y1="42"
         y2="42"
         fill="none"
         stroke="#6a462f"
         stroke-linecap="round"
         stroke-linejoin="round"
         stroke-width="2"
         id="line7" />
      <line
         x1="26"
         x2="28"
         y1="42"
         y2="42"
         fill="none"
         stroke="#6a462f"
         stroke-linecap="round"
         stroke-linejoin="round"
         stroke-width="2"
         id="line8" />
    </g>
  </g>
  <g
     id="line"
     transform="translate(-4,-16)">
    <rect
       x="5"
       y="17"
       width="62"
       height="38"
       fill="none"
       stroke="#000000"
       stroke-linecap="round"
       stroke-linejoin="round"
       stroke-width="2"
       id="rect8" />
  </g>
</svg>
