<?xml version="1.0" encoding="UTF-8" standalone="no"?>
<svg
   id="emoji"
   viewBox="0 0 64 40"
   version="1.1"
   sodipodi:docname="1f1e8-1f1fa.svg"
   width="64"
   height="40"
   xmlns:inkscape="http://www.inkscape.org/namespaces/inkscape"
   xmlns:sodipodi="http://sodipodi.sourceforge.net/DTD/sodipodi-0.dtd"
   xmlns="http://www.w3.org/2000/svg"
   xmlns:svg="http://www.w3.org/2000/svg">
  <defs
     id="defs5" />
  <sodipodi:namedview
     id="namedview5"
     pagecolor="#ffffff"
     bordercolor="#000000"
     borderopacity="0.25"
     inkscape:showpageshadow="2"
     inkscape:pageopacity="0.0"
     inkscape:pagecheckerboard="0"
     inkscape:deskcolor="#d1d1d1" />
  <g
     id="color"
     transform="translate(-4,-16)">
    <rect
       x="5"
       y="17"
       width="62"
       height="38"
       fill="#ffffff"
       id="rect1" />
    <rect
       x="5"
       y="32"
       width="62"
       height="8"
       fill="#1e50a0"
       id="rect2" />
    <rect
       x="5"
       y="47"
       width="62"
       height="8"
       fill="#1e50a0"
       id="rect3" />
    <rect
       x="5"
       y="17"
       width="62"
       height="8"
       fill="#1e50a0"
       id="rect4" />
    <path
       fill="#d22f27"
       d="M 5,55 4.999999,36 5,17 37.91,36 21.46,45.5 Z"
       id="path4" />
    <path
       transform="matrix(-0.4341,-0.75188326,0.75188326,-0.4341,-5.4402358,62.659078)"
       fill="#ffffff"
       stroke="#ffffff"
       stroke-linecap="round"
       stroke-linejoin="round"
       d="m 19.5,39.74 -4.253,-0.8137 -2.241,3.705 -0.5402,-4.296 -4.216,-0.9863 3.919,-1.841 -0.3648,-4.314 2.962,3.158 3.991,-1.68 -2.088,3.793 z"
       id="path5" />
  </g>
  <g
     id="line"
     transform="translate(-4,-16)">
    <rect
       x="5"
       y="17"
       width="62"
       height="38"
       fill="none"
       stroke="#000000"
       stroke-linecap="round"
       stroke-linejoin="round"
       stroke-width="2"
       id="rect5" />
  </g>
</svg>
