<svg xmlns="http://www.w3.org/2000/svg" xmlns:svg="http://www.w3.org/2000/svg" id="emoji" width="64" height="40" version="1.1" viewBox="0 0 64 40"><g id="color" transform="translate(-4,-16)"><rect id="rect1" width="62" height="38" x="5" y="17" fill="#fcea2b"/><polygon id="polygon1" fill="#5c9e31" points="12 24 12 48 36 36"/><polygon id="polygon2" fill="#5c9e31" points="60 24 60 48 36 36"/><circle id="circle2" cx="36" cy="36" r="5" fill="#d22f27"/><polygon id="polygon3" fill="#fcea2b" stroke="#fcea2b" stroke-linecap="round" stroke-linejoin="round" points="33.5 35.41 38.5 35.41 34.455 38.5 36 33.5 37.545 38.5"/><path id="path3" fill="#d22f27" d="M 5,17 V 55 H 67 V 17 Z M 60,48 H 12 V 24 h 48 z"/><polygon id="polygon4" fill="#fcea2b" stroke="#fcea2b" stroke-linecap="round" stroke-linejoin="round" points="36.816 22.2 34.616 20.602 37.384 20.535 35.105 22.242 36.024 19.547"/><polygon id="polygon5" fill="#fcea2b" stroke="#fcea2b" stroke-linecap="round" stroke-linejoin="round" points="46.816 22.2 44.616 20.602 47.384 20.535 45.105 22.242 46.024 19.547"/><polygon id="polygon6" fill="#fcea2b" stroke="#fcea2b" stroke-linecap="round" stroke-linejoin="round" points="26.816 22.2 24.616 20.602 27.384 20.535 25.105 22.242 26.024 19.547"/><polygon id="polygon7" fill="#fcea2b" stroke="#fcea2b" stroke-linecap="round" stroke-linejoin="round" points="36.816 52.2 34.616 50.602 37.384 50.535 35.105 52.242 36.024 49.547"/><polygon id="polygon8" fill="#fcea2b" stroke="#fcea2b" stroke-linecap="round" stroke-linejoin="round" points="46.816 52.2 44.616 50.602 47.384 50.535 45.105 52.242 46.024 49.547"/><polygon id="polygon9" fill="#fcea2b" stroke="#fcea2b" stroke-linecap="round" stroke-linejoin="round" points="26.816 52.2 24.616 50.602 27.384 50.535 25.105 52.242 26.024 49.547"/><g id="g10"><path id="path9" fill="#fcea2b" stroke="#fcea2b" stroke-linecap="round" stroke-linejoin="round" d="m 18.6308,37.9167 a 6.7812,6.7812 0 0 0 -1.258,-2.6215 6.7812,6.7812 0 0 0 2.6215,1.258 1.7666,1.7666 0 0 0 -1.5618,-2.1251 c -0.0249,-0.0023 -0.05,-0.0017 -0.0749,-0.003 l 0.0025,-0.0022 c -0.0212,0 -0.0414,0 -0.0623,0 -0.0284,-5e-4 -0.0566,-0.0012 -0.0849,0 a 5.7735,5.7735 0 0 1 -2.09,-0.3772 5.7764,5.7764 0 0 1 0.3771,2.0977 c -8e-4,0.0321 -6e-4,0.0642 0,0.0963 0,0.0145 0,0.0282 0,0.0428 l 0.0018,-0.0021 a 1.7633,1.7633 0 0 0 2.1285,1.6363 z"/><path id="path10" fill="#d22f27" stroke="#d22f27" stroke-linecap="round" stroke-linejoin="round" d="m 18.8014,36.2773 a 1.77,1.77 0 0 1 0.4464,0.8929 1.5782,1.5782 0 0 1 -1.3393,-1.3393 1.77,1.77 0 0 1 0.8929,0.4464 z"/></g></g><g id="line" transform="translate(-4,-16)"><rect id="rect10" width="62" height="38" x="5" y="17" fill="none" stroke="#000" stroke-linecap="round" stroke-linejoin="round" stroke-width="2"/></g></svg>