<svg xmlns="http://www.w3.org/2000/svg" xmlns:svg="http://www.w3.org/2000/svg" id="emoji" width="64" height="40" version="1.1" viewBox="0 0 64 40"><g id="color" transform="translate(-4,-16)"><rect id="rect1" width="62" height="38" x="5" y="17" fill="#1e50a0"/><g id="g8"><polygon id="polygon1" fill="#fff" points="6 20.332 32.113 36 36 36 36 33.668 9.887 18 6 18"/><polygon id="polygon2" fill="#fff" points="32.113 18 6 33.668 6 36 9.887 36 36 20.332 36 18"/><rect id="rect2" width="30" height="6" x="6" y="24" fill="#fff"/><rect id="rect3" width="6" height="18" x="18" y="18" fill="#fff"/><rect id="rect4" width="2" height="18" x="20" y="18" fill="#d22f27"/><rect id="rect5" width="30" height="2" x="6" y="26" fill="#d22f27"/><polygon id="polygon5" fill="#d22f27" points="26 30 36 36 36 33.668 29.887 30"/><polygon id="polygon6" fill="#d22f27" points="24 22.868 24 24 26 24 36 18 32.113 18"/><polygon id="polygon7" fill="#d22f27" points="16 24 6 18 6 20.332 12.113 24"/><polygon id="polygon8" fill="#d22f27" points="18 31.132 18 30 16 30 6 36 9.887 36"/></g><polygon id="polygon9" fill="#5c9e31" stroke="#5c9e31" stroke-linecap="round" stroke-linejoin="round" points="53.564 40.521 50.954 40.521 48.344 40.521 49.649 38.26 50.954 36 52.259 38.26"/><g id="g10"><path id="path9" fill="#fff" d="m 55.0483,41.7818 c 0,5.4893 -1.8016,9.9393 -4.0241,9.9393 -2.2225,0 -4.0242,-4.45 -4.0242,-9.9393 z"/><path id="path10" d="m 54.0279,42.7818 c -0.2013,4.8789 -1.8477,7.9393 -3.0037,7.9393 -1.156,0 -2.8025,-3.06 -3.0038,-7.9393 h 6.0075 m 1.02,-1 H 47 c 0,5.4893 1.8017,9.9393 4.0242,9.9393 2.2225,0 4.0241,-4.45 4.0241,-9.9393 z"/></g><ellipse id="ellipse10" cx="45.906" cy="41.193" fill="#a57939" stroke="#6a462f" stroke-miterlimit="10" rx="1" ry=".5" transform="rotate(-31.65,45.905765,41.192683)"/><ellipse id="ellipse11" cx="43.828" cy="49.95" fill="#a57939" stroke="#6a462f" stroke-miterlimit="10" rx=".5" ry="1" transform="rotate(-31.65,43.827738,49.949458)"/><path id="path11" fill="#a57939" stroke="#6a462f" stroke-miterlimit="10" d="m 40.757,49.4724 c -1.3634,-0.3235 -1.9723,-2.6772 -1.36,-5.2572 0.6123,-2.58 2.2138,-4.4091 3.5772,-4.0856 a 2.0232,2.0232 0 0 1 1.3007,1.4393 l -1.7092,7.2022 a 2.0226,2.0226 0 0 1 -1.8087,0.7013 z"/><ellipse id="ellipse12" cx="56.094" cy="41.193" fill="#a57939" stroke="#6a462f" stroke-miterlimit="10" rx=".5" ry="1" transform="rotate(-58.35,56.094195,41.192773)"/><ellipse id="ellipse13" cx="58.172" cy="49.95" fill="#a57939" stroke="#6a462f" stroke-miterlimit="10" rx="1" ry=".5" transform="rotate(-58.35,58.172334,49.949554)"/><path id="path13" fill="#a57939" stroke="#6a462f" stroke-miterlimit="10" d="m 61.243,49.4724 c 1.3634,-0.3235 1.9723,-2.6772 1.36,-5.2572 -0.6123,-2.58 -2.2138,-4.4091 -3.5772,-4.0856 a 2.0232,2.0232 0 0 0 -1.3007,1.4393 l 1.7092,7.2022 a 2.0226,2.0226 0 0 0 1.8087,0.7013 z"/><path id="path14" fill="#5c9e31" d="M 53.5645,48.0205 A 0.5009,0.5009 0 0 1 53.2168,47.8799 L 50.9541,45.6953 48.6914,47.88 a 0.50002888,0.50002888 0 0 1 -0.6953,-0.7188 l 2.61,-2.52 a 0.5,0.5 0 0 1 0.6954,0 l 2.61,2.52 a 0.5,0.5 0 0 1 -0.3476,0.8594 z"/><path id="path15" d="m 54.0279,42.7818 c -0.2013,4.8789 -1.8477,7.9393 -3.0037,7.9393 -1.156,0 -2.8025,-3.06 -3.0038,-7.9393 h 6.0075 m 1.02,-1 H 47 c 0,5.4893 1.8017,9.9393 4.0242,9.9393 2.2225,0 4.0241,-4.45 4.0241,-9.9393 z"/><ellipse id="ellipse15" cx="57.578" cy="38.785" fill="#a57939" stroke="#6a462f" stroke-miterlimit="10" rx="1" ry="1.5" transform="rotate(-13.35,57.578631,38.784958)"/><ellipse id="ellipse16" cx="44.422" cy="38.785" fill="#a57939" stroke="#6a462f" stroke-miterlimit="10" rx="1.5" ry="1" transform="rotate(-76.65,44.421612,38.784967)"/></g><g id="line" transform="translate(-4,-16)"><rect id="rect16" width="62" height="38" x="5" y="17" fill="none" stroke="#000" stroke-linecap="round" stroke-linejoin="round" stroke-width="2"/></g></svg>