<svg xmlns="http://www.w3.org/2000/svg" xmlns:svg="http://www.w3.org/2000/svg" id="emoji" width="64" height="40" version="1.1" viewBox="0 0 64 40"><g id="color" transform="translate(-4,-16)"><rect id="rect1" width="62" height="38" x="5" y="17" fill="#f1b31c"/><rect id="rect2" width="62" height="13" x="5" y="42" fill="#5c9e31"/><rect id="rect3" width="62" height="13" x="5" y="17" fill="#d22f27"/><g id="g6"><ellipse id="ellipse3" cx="38.5" cy="33.2" rx="2.2" ry="1.2" transform="rotate(-45,38.500019,33.20007)"/><ellipse id="ellipse4" cx="34.5" cy="33.2" rx="1.2" ry="2.2" transform="rotate(-45,34.499968,33.199945)"/><ellipse id="ellipse5" cx="36.5" cy="36.867" fill="#61b2e4" rx="2" ry="3.133"/><path id="path5" fill="#d22f27" d="m 40,41 a 1,1 0 0 1 -0.707,-1.707 1.725,1.725 0 0 0 -0.0059,-2.5918 1,1 0 0 1 1.42,-1.4082 3.7206,3.7206 0 0 1 0,5.414 A 0.9967,0.9967 0 0 1 40,41 Z"/><path id="path6" fill="#d22f27" d="m 32.8887,41 a 0.9971,0.9971 0 0 1 -0.7071,-0.293 3.7208,3.7208 0 0 1 0,-5.414 1.0002076,1.0002076 0 0 1 1.419,1.41 1.7242,1.7242 0 0 0 -0.0049,2.59 1,1 0 0 1 -0.707,1.707 z"/></g></g><g id="line" transform="translate(-4,-16)"><rect id="rect6" width="62" height="38" x="5" y="17" fill="none" stroke="#000" stroke-linecap="round" stroke-linejoin="round" stroke-width="2"/></g></svg>