<?xml version="1.0" encoding="UTF-8" standalone="no"?>
<svg
   id="emoji"
   viewBox="0 0 64 40"
   version="1.1"
   sodipodi:docname="1f1ec-1f1fa.svg"
   width="64"
   height="40"
   xmlns:inkscape="http://www.inkscape.org/namespaces/inkscape"
   xmlns:sodipodi="http://sodipodi.sourceforge.net/DTD/sodipodi-0.dtd"
   xmlns="http://www.w3.org/2000/svg"
   xmlns:svg="http://www.w3.org/2000/svg">
  <defs
     id="defs3" />
  <sodipodi:namedview
     id="namedview3"
     pagecolor="#ffffff"
     bordercolor="#000000"
     borderopacity="0.25"
     inkscape:showpageshadow="2"
     inkscape:pageopacity="0.0"
     inkscape:pagecheckerboard="0"
     inkscape:deskcolor="#d1d1d1" />
  <g
     id="color"
     transform="translate(-4,-16)">
    <rect
       x="5"
       y="17"
       width="62"
       height="38"
       fill="#1e50a0"
       id="rect1" />
    <path
       fill="#92d3f5"
       stroke="#d22f27"
       stroke-linecap="round"
       stroke-linejoin="round"
       d="M 36.0018,46.5 A 11.7362,11.7362 0 0 0 42,36.0005 11.736,11.736 0 0 0 36,25.5 11.736,11.736 0 0 0 30,36.0005 11.7364,11.7364 0 0 0 35.9982,46.5 Z"
       id="path1" />
    <path
       fill="#fcea2b"
       d="m 30.64,40 a 11.2419,11.2419 0 0 0 5.3581,6.5 h 0.0035 A 11.2419,11.2419 0 0 0 41.36,40 Z"
       id="path2" />
    <rect
       x="7"
       y="19"
       width="58"
       height="34"
       fill="none"
       stroke="#d22f27"
       stroke-miterlimit="10"
       stroke-width="2"
       id="rect2" />
    <line
       x1="28"
       x2="44"
       y1="39"
       y2="39"
       fill="none"
       stroke="#1e50a0"
       stroke-linecap="round"
       stroke-linejoin="round"
       stroke-width="2"
       id="line2" />
    <path
       fill="none"
       stroke="#d22f27"
       stroke-linecap="round"
       stroke-linejoin="round"
       stroke-width="2"
       d="M 36.0018,46.5 A 11.7362,11.7362 0 0 0 42,36.0005 11.736,11.736 0 0 0 36,25.5 11.736,11.736 0 0 0 30,36.0005 11.7364,11.7364 0 0 0 35.9982,46.5 Z"
       id="path3" />
  </g>
  <g
     id="line"
     transform="translate(-4,-16)">
    <rect
       x="5"
       y="17"
       width="62"
       height="38"
       fill="none"
       stroke="#000000"
       stroke-linecap="round"
       stroke-linejoin="round"
       stroke-width="2"
       id="rect3" />
  </g>
</svg>
