<svg xmlns="http://www.w3.org/2000/svg" xmlns:svg="http://www.w3.org/2000/svg" id="emoji" width="64" height="40" version="1.1" viewBox="0 0 64 40"><g id="color" transform="translate(-4,-16)"><g id="g3"><rect id="rect1" width="62" height="38" x="5" y="17" fill="#1e50a0"/><rect id="rect2" width="62" height="13" x="5" y="17" fill="#d22f27"/><rect id="rect3" width="62" height="12" x="5" y="30" fill="#fff"/></g><g id="g25"><path id="path3" fill="#d22f27" d="M 40.5,43.7918 A 6.7093,6.7093 0 0 0 42.4885,42 H 40.5 Z"/><path id="path4" fill="#fff" d="m 37.5,42 v 2.88 a 8.4378,8.4378 0 0 0 3,-1.0877 V 42 Z"/><path id="path5" fill="#d22f27" d="m 34.5,42 v 2.88 a 9.3963,9.3963 0 0 0 3,0 V 42 Z"/><path id="path6" fill="#fff" d="m 31.5,42 v 1.7918 a 8.4378,8.4378 0 0 0 3,1.0877 V 42 Z"/><path id="path7" fill="#d22f27" d="M 29.5115,42 A 6.7093,6.7093 0 0 0 31.5,43.7918 V 42 Z"/><path id="path8" fill="#fff" d="m 40.5,42 h 1.9885 A 5.0877,5.0877 0 0 0 43.5,39 h -3 z"/><rect id="rect8" width="3" height="3" x="37.5" y="39" fill="#d22f27"/><rect id="rect9" width="3" height="3" x="34.5" y="39" fill="#fff"/><rect id="rect10" width="3" height="3" x="31.5" y="39" fill="#d22f27"/><path id="path10" fill="#fff" d="m 31.5,39 h -3 a 5.0877,5.0877 0 0 0 1.0115,3 H 31.5 Z"/><rect id="rect11" width="3" height="3" x="40.5" y="36" fill="#d22f27"/><rect id="rect12" width="3" height="3" x="37.5" y="36" fill="#fff"/><rect id="rect13" width="3" height="3" x="34.5" y="36" fill="#d22f27"/><rect id="rect14" width="3" height="3" x="31.5" y="36" fill="#fff"/><rect id="rect15" width="3" height="3" x="28.5" y="36" fill="#d22f27"/><rect id="rect16" width="3" height="3" x="40.5" y="33" fill="#fff"/><rect id="rect17" width="3" height="3" x="37.5" y="33" fill="#d22f27"/><rect id="rect18" width="3" height="3" x="34.5" y="33" fill="#fff"/><rect id="rect19" width="3" height="3" x="31.5" y="33" fill="#d22f27"/><rect id="rect20" width="3" height="3" x="28.5" y="33" fill="#fff"/><rect id="rect21" width="3" height="3" x="40.5" y="30" fill="#d22f27"/><rect id="rect22" width="3" height="3" x="37.5" y="30" fill="#fff"/><rect id="rect23" width="3" height="3" x="34.5" y="30" fill="#d22f27"/><rect id="rect24" width="3" height="3" x="31.5" y="30" fill="#fff"/><rect id="rect25" width="3" height="3" x="28.5" y="30" fill="#d22f27"/></g><path id="path25" fill="none" stroke="#d22f27" stroke-miterlimit="10" d="m 43.5,39 c 0,3.3137 -3.3579,6 -7.5,6 -4.1421,0 -7.5,-2.6863 -7.5,-6 v -9 h 15 z"/><g id="g27"><path id="path26" fill="#61b2e4" stroke="#61b2e4" stroke-linecap="round" stroke-linejoin="round" d="M 30.1872,24.3719 31.84,22.5087 34.0337,23.7408 36,22.1781 37.9663,23.7408 40.16,22.5087 41.8128,24.3719 44.1869,23.5 45.4791,25.604 43.5,30 a 15.9375,15.9375 0 0 0 -15,0 L 26.5209,25.604 27.8131,23.5 Z"/><polygon id="polygon26" fill="#1e50a0" stroke="#1e50a0" stroke-miterlimit="10" stroke-width=".25" points="40.16 22.509 41.813 24.372 40.674 28.83 37.619 28.21 37.966 23.741"/><polygon id="polygon27" fill="#1e50a0" stroke="#1e50a0" stroke-miterlimit="10" stroke-width=".25" points="31.84 22.509 30.187 24.372 31.326 28.83 34.381 28.21 34.034 23.741"/><path id="path27" fill="none" stroke="#1e50a0" stroke-linecap="round" stroke-linejoin="round" d="M 30.1872,24.3719 31.84,22.5087 34.0337,23.7408 36,22.1781 37.9663,23.7408 40.16,22.5087 41.8128,24.3719 44.1869,23.5 45.4791,25.604 43.5,30 a 15.9375,15.9375 0 0 0 -15,0 L 26.5209,25.604 27.8131,23.5 Z"/></g></g><g id="line" transform="translate(-4,-16)"><rect id="rect27" width="62" height="38" x="5" y="17" fill="none" stroke="#000" stroke-linecap="round" stroke-linejoin="round" stroke-width="2"/></g></svg>