<svg xmlns="http://www.w3.org/2000/svg" xmlns:svg="http://www.w3.org/2000/svg" id="emoji" width="64" height="40" version="1.1" viewBox="0 0 64 40"><g id="color" transform="translate(-4,-16)"><rect id="rect1" width="62" height="38" x="5" y="17" fill="#1e50a0"/><path id="path1" fill="#fff" d="m 59,29 v 5 c 0,9 -2.6667,13 -8,15 -5.3333,-2 -8,-6 -8,-15 v -5 z"/><g id="g8"><polygon id="polygon1" fill="#fff" points="6 20.332 32.113 36 36 36 36 33.668 9.887 18 6 18"/><polygon id="polygon2" fill="#fff" points="32.113 18 6 33.668 6 36 9.887 36 36 20.332 36 18"/><rect id="rect2" width="30" height="6" x="6" y="24" fill="#fff"/><rect id="rect3" width="6" height="18" x="18" y="18" fill="#fff"/><rect id="rect4" width="2" height="18" x="20" y="18" fill="#d22f27"/><rect id="rect5" width="30" height="2" x="6" y="26" fill="#d22f27"/><polygon id="polygon5" fill="#d22f27" points="26 30 36 36 36 33.668 29.887 30"/><polygon id="polygon6" fill="#d22f27" points="24 22.868 24 24 26 24 36 18 32.113 18"/><polygon id="polygon7" fill="#d22f27" points="16 24 6 18 6 20.332 12.113 24"/><polygon id="polygon8" fill="#d22f27" points="18 31.132 18 30 16 30 6 36 9.887 36"/></g><path id="path8" fill="none" stroke="#f1b31c" stroke-linecap="round" stroke-linejoin="round" stroke-width="2" d="m 54.5,32.5 c -2.204,-0.506 -3.5006,0.187 -4,2"/><path id="path9" fill="none" stroke="#f1b31c" stroke-linecap="round" stroke-linejoin="round" stroke-width="2" d="m 46.5359,35.9019 c 0.6638,2.1617 1.9122,2.9381 3.732,2.4641"/><path id="path10" fill="none" stroke="#f1b31c" stroke-linecap="round" stroke-linejoin="round" stroke-width="2" d="m 53.4641,41.0981 c 1.54,-1.6557 1.5883,-3.1251 0.268,-4.4641"/><path id="path11" fill="#92d3f5" d="M 44.4545,43 A 10.67,10.67 0 0 0 51,49 10.67,10.67 0 0 0 57.5455,43 Z"/><path id="path12" fill="none" stroke="#fcea2b" stroke-linecap="round" stroke-linejoin="round" stroke-width="2" d="m 59,29 v 5 c 0,9 -2.6667,13 -8,15 -5.3333,-2 -8,-6 -8,-15 v -5 z"/></g><g id="line" transform="translate(-4,-16)"><rect id="rect12" width="62" height="38" x="5" y="17" fill="none" stroke="#000" stroke-linecap="round" stroke-linejoin="round" stroke-width="2"/></g></svg>