<?xml version="1.0" encoding="UTF-8" standalone="no"?>
<svg
   id="emoji"
   viewBox="0 0 58 58"
   version="1.1"
   sodipodi:docname="1f1e7.svg"
   width="58"
   height="58"
   xmlns:inkscape="http://www.inkscape.org/namespaces/inkscape"
   xmlns:sodipodi="http://sodipodi.sourceforge.net/DTD/sodipodi-0.dtd"
   xmlns="http://www.w3.org/2000/svg"
   xmlns:svg="http://www.w3.org/2000/svg">
  <defs
     id="defs2" />
  <sodipodi:namedview
     id="namedview2"
     pagecolor="#ffffff"
     bordercolor="#000000"
     borderopacity="0.25"
     inkscape:showpageshadow="2"
     inkscape:pageopacity="0.0"
     inkscape:pagecheckerboard="0"
     inkscape:deskcolor="#d1d1d1" />
  <g
     id="color"
     transform="translate(-7,-7)">
    <circle
       cx="36.5"
       cy="36.5"
       r="27.5"
       fill="#ffffff"
       id="circle1" />
  </g>
  <g
     id="line"
     transform="translate(-7,-7)">
    <g
       id="line-2">
      <circle
         cx="36"
         cy="36"
         r="28"
         fill="none"
         stroke="#000000"
         stroke-linejoin="round"
         stroke-width="2"
         id="circle2" />
    </g>
    <path
       stroke="#000000"
       stroke-linejoin="round"
       stroke-width="2"
       d="m 46.8259,29.022 c 0,-4.3979 -3.5781,-7.9761 -7.9761,-7.9761 H 28.174 c -0.5522,0 -1,0.4478 -1,1 v 27.9082 c 0,0.5522 0.4478,1 1,1 h 10.6758 c 4.3979,0 7.9761,-3.5781 7.9761,-7.9761 0,-2.9995 -1.666,-5.6177 -4.1216,-6.978 2.4556,-1.3604 4.1216,-3.9785 4.1216,-6.978 z m -2,13.9561 c 0,3.2954 -2.6807,5.9761 -5.9761,5.9761 H 29.174 V 37.006 h 9.6758 c 3.2954,0 5.9761,2.6792 5.9761,5.9722 v 0 z m -5.9761,-7.9839 c -0.0206,0 -0.0378,0.0105 -0.058,0.0117 h -9.6177 v -11.96 h 9.6758 c 3.2954,0 5.9761,2.6807 5.9761,5.9761 0,3.293 -2.6807,5.9722 -5.9761,5.9722 z"
       id="path2" />
  </g>
</svg>
