<svg xmlns="http://www.w3.org/2000/svg" xmlns:svg="http://www.w3.org/2000/svg" id="emoji" width="64" height="40" version="1.1" viewBox="0 0 64 40"><g id="color" transform="translate(-4,-16)"><rect id="rect1" width="62" height="38" x="5" y="17" fill="#fcea2b"/><rect id="rect2" width="62" height="10" x="5" y="45" fill="#d22f27"/><rect id="rect3" width="62" height="9" x="5" y="36" fill="#1e50a0"/><ellipse id="ellipse3" cx="36" cy="36" fill="#92d3f5" rx="4.5" ry="6"/><path id="path3" fill="#5c9e31" d="m 40.5,36 c 0,3.3137 -2.0147,6 -4.5,6 -2.4853,0 -4.5,-2.6863 -4.5,-6 z"/><line id="line3" x1="36" x2="36" y1="46" y2="42" fill="none" stroke="#d22f27" stroke-miterlimit="10" stroke-width="2"/><path id="path4" fill="none" stroke="#f1b31c" stroke-linecap="round" stroke-linejoin="round" stroke-width="2" d="M 42.0652,42 A 10.9284,10.9284 0 0 0 44.5,35 V 30 H 46"/><path id="path5" fill="none" stroke="#f1b31c" stroke-linecap="round" stroke-linejoin="round" stroke-width="2" d="m 26,30 h 1.5 v 5 a 10.9284,10.9284 0 0 0 2.4348,7"/><path id="path6" fill="none" stroke="#6a462f" stroke-linecap="round" stroke-linejoin="round" stroke-width="2" d="m 29,26 c 3.5,-1 5.25,0 7,3 1.75,-3 3.5,-4 7,-3"/><ellipse id="ellipse6" cx="36" cy="36" fill="none" stroke="#d22f27" stroke-miterlimit="10" stroke-width="2" rx="4.5" ry="6"/></g><g id="line" transform="translate(-4,-16)"><rect id="rect6" width="62" height="38" x="5" y="17" fill="none" stroke="#000" stroke-linecap="round" stroke-linejoin="round" stroke-width="2"/></g></svg>