<svg xmlns="http://www.w3.org/2000/svg" xmlns:svg="http://www.w3.org/2000/svg" id="emoji" width="64" height="40" version="1.1" viewBox="0 0 64 40"><g id="color" transform="translate(-4,-16)"><rect id="rect1" width="62" height="38" x="5" y="17" fill="#fcea2b"/><rect id="rect2" width="21" height="38" x="5" y="17" fill="#1e50a0"/><rect id="rect3" width="21" height="38" x="46" y="17" fill="#d22f27"/><g id="g8"><path id="path3" fill="#d22f27" d="M 42,32.1538 V 44 a 2.0059,2.0059 0 0 1 -2,2 H 32 A 2.0059,2.0059 0 0 1 30,44 V 32.1538"/><rect id="rect4" width="6" height="6.154" x="36" y="32.154" fill="#f1b31c"/><rect id="rect5" width="6" height="7.692" x="30" y="38.308" fill="#f1b31c"/><ellipse id="ellipse5" cx="36" cy="38.308" fill="#6a462f" rx="2.25" ry="2.308"/><g id="g7"><path id="path5" fill="none" stroke="#6a462f" stroke-linecap="round" stroke-linejoin="round" stroke-width="2" d="M 30,27.5385 A 12.5962,12.5962 0 0 1 36,26"/><path id="path6" fill="none" stroke="#6a462f" stroke-linecap="round" stroke-linejoin="round" stroke-width="2" d="M 42,27.5385 A 12.5962,12.5962 0 0 0 36,26"/><line id="line6" x1="30" x2="42" y1="32.154" y2="32.154" fill="none" stroke="#6a462f" stroke-linecap="round" stroke-linejoin="round" stroke-width="2"/><path id="path7" fill="none" stroke="#6a462f" stroke-linecap="round" stroke-linejoin="round" stroke-width="2" d="M 42,32.1538 V 44 a 2.0059,2.0059 0 0 1 -2,2 H 32 A 2.0059,2.0059 0 0 1 30,44 V 32.1538"/></g></g></g><g id="line" transform="translate(-4,-16)"><rect id="rect8" width="62" height="38" x="5" y="17" fill="none" stroke="#000" stroke-linecap="round" stroke-linejoin="round" stroke-width="2"/></g></svg>