<?xml version="1.0" encoding="UTF-8" standalone="no"?>
<svg
   id="emoji"
   viewBox="0 0 64 40"
   version="1.1"
   sodipodi:docname="1f1eb-1f1ef.svg"
   width="64"
   height="40"
   xmlns:inkscape="http://www.inkscape.org/namespaces/inkscape"
   xmlns:sodipodi="http://sodipodi.sourceforge.net/DTD/sodipodi-0.dtd"
   xmlns="http://www.w3.org/2000/svg"
   xmlns:svg="http://www.w3.org/2000/svg">
  <defs
     id="defs12" />
  <sodipodi:namedview
     id="namedview12"
     pagecolor="#ffffff"
     bordercolor="#000000"
     borderopacity="0.25"
     inkscape:showpageshadow="2"
     inkscape:pageopacity="0.0"
     inkscape:pagecheckerboard="0"
     inkscape:deskcolor="#d1d1d1" />
  <g
     id="color"
     transform="translate(-4,-16)">
    <rect
       x="5"
       y="17"
       width="62"
       height="38"
       fill="#61b2e4"
       id="rect1" />
    <rect
       x="5"
       y="17"
       width="31"
       height="19"
       fill="#1e50a0"
       id="rect2" />
    <path
       fill="#d22f27"
       d="m 52,48 c 0,0 6,-1.9375 6,-7.75 V 34.5 H 46 v 5.75 c 0,5.8125 6,7.75 6,7.75 z"
       id="path2" />
    <rect
       x="53"
       y="37"
       width="5"
       height="4"
       fill="#ffffff"
       id="rect3" />
    <rect
       x="46"
       y="37"
       width="5"
       height="4"
       fill="#ffffff"
       id="rect4" />
    <path
       fill="#ffffff"
       d="M 51,47.5743 V 43 H 46.5118 A 9.0283,9.0283 0 0 0 51,47.5743 Z"
       id="path4" />
    <path
       fill="#ffffff"
       d="M 57.4882,43 H 53 v 4.5743 A 9.028,9.028 0 0 0 57.4882,43 Z"
       id="path5" />
    <rect
       x="46.5"
       y="34"
       width="11"
       height="2"
       fill="#d22f27"
       stroke="#d22f27"
       stroke-linecap="round"
       stroke-linejoin="round"
       id="rect5" />
    <g
       id="g12">
      <polygon
         fill="#ffffff"
         points="6,20.332 32.113,36 36,36 36,33.668 9.887,18 6,18 "
         id="polygon5" />
      <polygon
         fill="#ffffff"
         points="32.113,18 6,33.668 6,36 9.887,36 36,20.332 36,18 "
         id="polygon6" />
      <rect
         x="6"
         y="24"
         width="30"
         height="6"
         fill="#ffffff"
         id="rect6" />
      <rect
         x="18"
         y="18"
         width="6"
         height="18"
         fill="#ffffff"
         id="rect7" />
      <rect
         x="20"
         y="18"
         width="2"
         height="18"
         fill="#d22f27"
         id="rect8" />
      <rect
         x="6"
         y="26"
         width="30"
         height="2"
         fill="#d22f27"
         id="rect9" />
      <polygon
         fill="#d22f27"
         points="26,30 36,36 36,33.668 29.887,30 "
         id="polygon9" />
      <polygon
         fill="#d22f27"
         points="24,22.868 24,24 26,24 36,18 32.113,18 "
         id="polygon10" />
      <polygon
         fill="#d22f27"
         points="16,24 6,18 6,20.332 12.113,24 "
         id="polygon11" />
      <polygon
         fill="#d22f27"
         points="18,31.132 18,30 16,30 6,36 9.887,36 "
         id="polygon12" />
    </g>
  </g>
  <g
     id="line"
     transform="translate(-4,-16)">
    <rect
       x="5"
       y="17"
       width="62"
       height="38"
       fill="none"
       stroke="#000000"
       stroke-linecap="round"
       stroke-linejoin="round"
       stroke-width="2"
       id="rect12" />
  </g>
</svg>
