<?xml version="1.0" encoding="UTF-8" standalone="no"?>
<svg
   id="emoji"
   viewBox="0 0 64 40"
   version="1.1"
   sodipodi:docname="1f1ea-1f1fa.svg"
   width="64"
   height="40"
   xmlns:inkscape="http://www.inkscape.org/namespaces/inkscape"
   xmlns:sodipodi="http://sodipodi.sourceforge.net/DTD/sodipodi-0.dtd"
   xmlns="http://www.w3.org/2000/svg"
   xmlns:svg="http://www.w3.org/2000/svg">
  <defs
     id="defs12" />
  <sodipodi:namedview
     id="namedview12"
     pagecolor="#ffffff"
     bordercolor="#000000"
     borderopacity="0.25"
     inkscape:showpageshadow="2"
     inkscape:pageopacity="0.0"
     inkscape:pagecheckerboard="0"
     inkscape:deskcolor="#d1d1d1" />
  <g
     id="color"
     transform="translate(-4,-16)">
    <rect
       x="5"
       y="17"
       width="62"
       height="38"
       fill="#1e50a0"
       id="rect1" />
    <g
       id="g12">
      <polygon
         fill="#f1b31c"
         stroke="#f1b31c"
         stroke-linecap="round"
         stroke-linejoin="round"
         points="36.816,26.753 34.616,25.154 37.384,25.087 35.105,26.794 36.024,24.099 "
         id="polygon1" />
      <polygon
         fill="#f1b31c"
         stroke="#f1b31c"
         stroke-linecap="round"
         stroke-linejoin="round"
         points="36.816,47.859 34.616,46.261 37.384,46.194 35.105,47.901 36.024,45.206 "
         id="polygon2" />
      <polygon
         fill="#f1b31c"
         stroke="#f1b31c"
         stroke-linecap="round"
         stroke-linejoin="round"
         points="27.804,31.88 25.603,30.282 28.371,30.215 26.093,31.922 27.011,29.227 "
         id="polygon3" />
      <polygon
         fill="#f1b31c"
         stroke="#f1b31c"
         stroke-linecap="round"
         stroke-linejoin="round"
         points="46.082,42.434 43.882,40.835 46.65,40.768 44.371,42.475 45.29,39.78 "
         id="polygon4" />
      <polygon
         fill="#f1b31c"
         stroke="#f1b31c"
         stroke-linecap="round"
         stroke-linejoin="round"
         points="31.549,28.2 29.348,26.602 32.116,26.535 29.838,28.242 30.757,25.547 "
         id="polygon5" />
      <polygon
         fill="#f1b31c"
         stroke="#f1b31c"
         stroke-linecap="round"
         stroke-linejoin="round"
         points="42.102,46.479 39.901,44.88 42.67,44.814 40.391,46.52 41.31,43.826 "
         id="polygon6" />
      <polygon
         fill="#f1b31c"
         stroke="#f1b31c"
         stroke-linecap="round"
         stroke-linejoin="round"
         points="47.37,37.306 45.169,35.707 47.937,35.641 45.659,37.347 46.578,34.653 "
         id="polygon7" />
      <polygon
         fill="#f1b31c"
         stroke="#f1b31c"
         stroke-linecap="round"
         stroke-linejoin="round"
         points="26.263,37.306 24.063,35.707 26.831,35.641 24.552,37.347 25.471,34.653 "
         id="polygon8" />
      <polygon
         fill="#f1b31c"
         stroke="#f1b31c"
         stroke-linecap="round"
         stroke-linejoin="round"
         points="41.992,28.175 39.792,26.576 42.56,26.51 40.281,28.216 41.2,25.522 "
         id="polygon9" />
      <polygon
         fill="#f1b31c"
         stroke="#f1b31c"
         stroke-linecap="round"
         stroke-linejoin="round"
         points="31.439,46.454 29.238,44.855 32.007,44.788 29.728,46.495 30.647,43.8 "
         id="polygon10" />
      <polygon
         fill="#f1b31c"
         stroke="#f1b31c"
         stroke-linecap="round"
         stroke-linejoin="round"
         points="45.841,31.845 43.64,30.246 46.408,30.179 44.13,31.886 45.048,29.191 "
         id="polygon11" />
      <polygon
         fill="#f1b31c"
         stroke="#f1b31c"
         stroke-linecap="round"
         stroke-linejoin="round"
         points="27.562,42.398 25.361,40.799 28.129,40.733 25.851,42.439 26.77,39.745 "
         id="polygon12" />
    </g>
  </g>
  <g
     id="line"
     transform="translate(-4,-16)">
    <rect
       x="5"
       y="17"
       width="62"
       height="38"
       fill="none"
       stroke="#000000"
       stroke-linecap="round"
       stroke-linejoin="round"
       stroke-width="2"
       id="rect12" />
  </g>
</svg>
