<?xml version="1.0" encoding="UTF-8" standalone="no"?>
<svg
   id="emoji"
   viewBox="0 0 58 58"
   version="1.1"
   sodipodi:docname="1f1ed.svg"
   width="58"
   height="58"
   xmlns:inkscape="http://www.inkscape.org/namespaces/inkscape"
   xmlns:sodipodi="http://sodipodi.sourceforge.net/DTD/sodipodi-0.dtd"
   xmlns="http://www.w3.org/2000/svg"
   xmlns:svg="http://www.w3.org/2000/svg">
  <defs
     id="defs2" />
  <sodipodi:namedview
     id="namedview2"
     pagecolor="#ffffff"
     bordercolor="#000000"
     borderopacity="0.25"
     inkscape:showpageshadow="2"
     inkscape:pageopacity="0.0"
     inkscape:pagecheckerboard="0"
     inkscape:deskcolor="#d1d1d1" />
  <g
     id="color"
     transform="translate(-7,-7)">
    <circle
       cx="36"
       cy="36"
       r="28"
       fill="#ffffff"
       id="circle1" />
  </g>
  <g
     id="line"
     transform="translate(-7,-7)">
    <g
       id="line-2">
      <circle
         cx="36"
         cy="36"
         r="28"
         fill="none"
         stroke="#000000"
         stroke-linejoin="round"
         stroke-width="2"
         id="circle2" />
    </g>
    <path
       stroke="#000000"
       stroke-linejoin="round"
       stroke-width="2"
       d="m 44,20.5081 c -0.5527,0 -1,0.4478 -1,1 v 12.96 H 29 v -12.96 c 0,-0.5522 -0.4473,-1 -1,-1 -0.5527,0 -1,0.4478 -1,1 v 28 c 0,0.5522 0.4473,1 1,1 0.5527,0 1,-0.4478 1,-1 v -13.04 h 14 v 13.04 c 0,0.5522 0.4473,1 1,1 0.5527,0 1,-0.4478 1,-1 v -28 c 0,-0.5522 -0.4473,-1 -1,-1 z"
       id="path2" />
  </g>
</svg>
