<svg xmlns="http://www.w3.org/2000/svg" xmlns:svg="http://www.w3.org/2000/svg" id="emoji" width="64" height="40" version="1.1" viewBox="0 0 64 40"><g id="color" transform="translate(-4,-16)"><rect id="rect1" width="62" height="38" x="5" y="17" fill="#fff"/><polygon id="polygon1" fill="#d22f27" stroke="#d22f27" stroke-miterlimit="10" stroke-width="2" points="39 17 33 17 33 33 5 33 5 39 33 39 33 55 39 55 39 39 67 39 67 33 39 33"/><polygon id="polygon2" fill="#fcea2b" stroke="#fcea2b" stroke-linejoin="round" points="37.316 22 34.684 22 34.684 34.684 22.042 34.684 22.042 37.316 34.684 37.316 34.684 50 37.316 50 37.316 37.316 49.958 37.316 49.958 34.684 37.316 34.684"/></g><g id="line" transform="translate(-4,-16)"><rect id="rect2" width="62" height="38" x="5" y="17" fill="none" stroke="#000" stroke-linecap="round" stroke-linejoin="round" stroke-width="2"/></g></svg>