<svg xmlns="http://www.w3.org/2000/svg" xmlns:svg="http://www.w3.org/2000/svg" id="emoji" width="64" height="40" version="1.1" viewBox="0 0 64 40"><g id="color" transform="translate(-4,-16)"><rect id="rect1" width="62" height="38" x="5" y="17" fill="#1e50a0"/><g id="g8"><polygon id="polygon1" fill="#fff" points="6 20.332 32.113 36 36 36 36 33.668 9.887 18 6 18"/><polygon id="polygon2" fill="#fff" points="32.113 18 6 33.668 6 36 9.887 36 36 20.332 36 18"/><rect id="rect2" width="30" height="6" x="6" y="24" fill="#fff"/><rect id="rect3" width="6" height="18" x="18" y="18" fill="#fff"/><rect id="rect4" width="2" height="18" x="20" y="18" fill="#d22f27"/><rect id="rect5" width="30" height="2" x="6" y="26" fill="#d22f27"/><polygon id="polygon5" fill="#d22f27" points="26 30 36 36 36 33.668 29.887 30"/><polygon id="polygon6" fill="#d22f27" points="24 22.868 24 24 26 24 36 18 32.113 18"/><polygon id="polygon7" fill="#d22f27" points="16 24 6 18 6 20.332 12.113 24"/><polygon id="polygon8" fill="#d22f27" points="18 31.132 18 30 16 30 6 36 9.887 36"/></g><path id="path8" fill="#61b2e4" d="m 59,29 v 5 c 0,9 -2.6667,13 -8,15 -5.3333,-2 -8,-6 -8,-15 v -5 z"/><path id="path9" fill="none" stroke="#fff" stroke-linecap="round" stroke-linejoin="round" stroke-width="2" d="m 59,29 v 5 c 0,9 -2.6667,13 -8,15 -5.3333,-2 -8,-6 -8,-15 v -5 z"/><rect id="rect9" width="5" height="2" x="49" y="33" fill="none" stroke="#fff" stroke-linecap="round" stroke-linejoin="round" stroke-width="2"/><line id="line9" x1="54" x2="54" y1="35" y2="37" fill="none" stroke="#fff" stroke-linecap="round" stroke-linejoin="round" stroke-width="2"/><line id="line10" x1="49" x2="49" y1="35" y2="37" fill="none" stroke="#fff" stroke-linecap="round" stroke-linejoin="round" stroke-width="2"/><line id="line11" x1="47" x2="49" y1="33" y2="33" fill="none" stroke="#fff" stroke-linecap="round" stroke-linejoin="round" stroke-width="2"/><path id="path11" stroke="#fff" stroke-linecap="round" stroke-linejoin="round" stroke-width="2" d="m 44.035,40.115 c 1,0.433 1.91,0.81 2.965,0.885 2,0 2,-1 4,-1"/><path id="path12" fill="none" stroke="#fff" stroke-linecap="round" stroke-linejoin="round" stroke-width="2" d="m 45.721,44.814 c 0.421,0.164 0.858,0.157 1.279,0.186 2,0 2,-1 4,-1"/><path id="path13" stroke="#fff" stroke-linecap="round" stroke-linejoin="round" stroke-width="2" d="m 57.965,40.115 c -1,0.433 -1.91,0.81 -2.965,0.885 -2,0 -2,-1 -4,-1"/><path id="path14" fill="none" stroke="#fff" stroke-linecap="round" stroke-linejoin="round" stroke-width="2" d="M 56.279,44.814 C 55.858,44.978 55.421,44.971 55,45 53,45 53,44 51,44"/></g><g id="line" transform="translate(-4,-16)"><rect id="rect14" width="62" height="38" x="5" y="17" fill="none" stroke="#000" stroke-linecap="round" stroke-linejoin="round" stroke-width="2"/></g></svg>