<?xml version="1.0" encoding="UTF-8" standalone="no"?>
<svg
   id="emoji"
   viewBox="0 0 64 40"
   version="1.1"
   sodipodi:docname="1f1ea-1f1ed.svg"
   width="64"
   height="40"
   xmlns:inkscape="http://www.inkscape.org/namespaces/inkscape"
   xmlns:sodipodi="http://sodipodi.sourceforge.net/DTD/sodipodi-0.dtd"
   xmlns="http://www.w3.org/2000/svg"
   xmlns:svg="http://www.w3.org/2000/svg">
  <defs
     id="defs4" />
  <sodipodi:namedview
     id="namedview4"
     pagecolor="#ffffff"
     bordercolor="#000000"
     borderopacity="0.25"
     inkscape:showpageshadow="2"
     inkscape:pageopacity="0.0"
     inkscape:pagecheckerboard="0"
     inkscape:deskcolor="#d1d1d1" />
  <g
     id="color"
     transform="translate(-4,-16)">
    <rect
       x="5"
       y="17"
       width="62"
       height="38"
       fill="#5c9e31"
       id="rect1" />
    <rect
       x="5"
       y="30"
       width="62"
       height="12"
       fill="#ffffff"
       id="rect2" />
    <rect
       x="5"
       y="17"
       width="62"
       height="13"
       id="rect3" />
    <polygon
       fill="#d22f27"
       points="5,17 26,36 5,55 "
       id="polygon3" />
    <path
       fill="#d22f27"
       stroke="#d22f27"
       stroke-linecap="round"
       stroke-linejoin="round"
       d="M 35.1216,36 A 4.0529,4.0529 0 0 1 38.5,32.0764 4.3955,4.3955 0 0 0 37.6892,32 a 4.0043,4.0043 0 1 0 0,8 A 4.3955,4.3955 0 0 0 38.5,39.9236 4.0529,4.0529 0 0 1 35.1216,36 Z"
       id="path3" />
    <polygon
       fill="#d22f27"
       stroke="#d22f27"
       stroke-linecap="round"
       stroke-linejoin="round"
       points="41.18,37.939 38,35.565 42,35.467 38.707,38 40.035,34 "
       id="polygon4" />
  </g>
  <g
     id="line"
     transform="translate(-4,-16)">
    <rect
       x="5"
       y="17"
       width="62"
       height="38"
       fill="none"
       stroke="#000000"
       stroke-linecap="round"
       stroke-linejoin="round"
       stroke-width="2"
       id="rect4" />
  </g>
</svg>
