<?xml version="1.0" encoding="UTF-8" standalone="no"?>
<svg
   id="emoji"
   viewBox="0 0 64 40"
   version="1.1"
   sodipodi:docname="1f1e6-1f1e9.svg"
   width="64"
   height="40"
   xmlns:inkscape="http://www.inkscape.org/namespaces/inkscape"
   xmlns:sodipodi="http://sodipodi.sourceforge.net/DTD/sodipodi-0.dtd"
   xmlns="http://www.w3.org/2000/svg"
   xmlns:svg="http://www.w3.org/2000/svg">
  <defs
     id="defs8" />
  <sodipodi:namedview
     id="namedview8"
     pagecolor="#ffffff"
     bordercolor="#000000"
     borderopacity="0.25"
     inkscape:showpageshadow="2"
     inkscape:pageopacity="0.0"
     inkscape:pagecheckerboard="0"
     inkscape:deskcolor="#d1d1d1" />
  <g
     id="color"
     transform="translate(-4,-16)">
    <rect
       x="5"
       y="17"
       width="62"
       height="38"
       fill="#fcea2b"
       id="rect1" />
    <rect
       x="5"
       y="17"
       width="21"
       height="38"
       fill="#1e50a0"
       id="rect2" />
    <rect
       x="46"
       y="17"
       width="21"
       height="38"
       fill="#d22f27"
       id="rect3" />
    <g
       id="g8">
      <path
         fill="#d22f27"
         d="M 42,32.1538 V 44 a 2.0059,2.0059 0 0 1 -2,2 H 32 A 2.0059,2.0059 0 0 1 30,44 V 32.1538"
         id="path3" />
      <rect
         x="36"
         y="32.153801"
         width="6"
         height="6.1538"
         fill="#f1b31c"
         id="rect4" />
      <rect
         x="30"
         y="38.307701"
         width="6"
         height="7.6922998"
         fill="#f1b31c"
         id="rect5" />
      <ellipse
         cx="36"
         cy="38.307701"
         rx="2.25"
         ry="2.3076999"
         fill="#6a462f"
         id="ellipse5" />
      <g
         id="g7">
        <path
           fill="none"
           stroke="#6a462f"
           stroke-linecap="round"
           stroke-linejoin="round"
           stroke-width="2"
           d="M 30,27.5385 A 12.5962,12.5962 0 0 1 36,26"
           id="path5" />
        <path
           fill="none"
           stroke="#6a462f"
           stroke-linecap="round"
           stroke-linejoin="round"
           stroke-width="2"
           d="M 42,27.5385 A 12.5962,12.5962 0 0 0 36,26"
           id="path6" />
        <line
           x1="30"
           x2="42"
           y1="32.153801"
           y2="32.153801"
           fill="none"
           stroke="#6a462f"
           stroke-linecap="round"
           stroke-linejoin="round"
           stroke-width="2"
           id="line6" />
        <path
           fill="none"
           stroke="#6a462f"
           stroke-linecap="round"
           stroke-linejoin="round"
           stroke-width="2"
           d="M 42,32.1538 V 44 a 2.0059,2.0059 0 0 1 -2,2 H 32 A 2.0059,2.0059 0 0 1 30,44 V 32.1538"
           id="path7" />
      </g>
    </g>
  </g>
  <g
     id="line"
     transform="translate(-4,-16)">
    <rect
       x="5"
       y="17"
       width="62"
       height="38"
       fill="none"
       stroke="#000000"
       stroke-linecap="round"
       stroke-linejoin="round"
       stroke-width="2"
       id="rect8" />
  </g>
</svg>
