<svg xmlns="http://www.w3.org/2000/svg" xmlns:svg="http://www.w3.org/2000/svg" id="emoji" width="64" height="40" version="1.1" viewBox="0 0 64 40"><g id="color" transform="translate(-4,-16)"><rect id="rect1" width="62" height="38" x="5" y="17" fill="#fff"/><path id="path1" fill="#3f3f3f" d="m 24.4675,38.6242 a 5.6221,5.6221 0 0 0 0.8728,-1.9518 0.1112,0.1112 0 0 1 0.09,-0.1206 0.8321,0.8321 0 0 0 0.6065,-0.3025 c 0.0559,-0.0793 0.1623,-0.0427 0.1755,0.0621 a 2.5167,2.5167 0 0 1 -1.37,2.84 0.0929,0.0929 0 0 1 -0.1076,-0.0337 l -0.2588,-0.3321 a 0.1442,0.1442 0 0 1 -0.0084,-0.1614 z"/><g id="g1"><ellipse id="ellipse1" cx="19.747" cy="38.953" fill="#5c9e31" rx="1.791" ry="4.782" transform="rotate(-43.2865,19.746983,38.953254)"/><line id="line1" x1="17.476" x2="29.674" y1="36.577" y2="49.246" fill="none" stroke="#5c9e31" stroke-linecap="round" stroke-linejoin="round" stroke-width="2"/></g><g id="g4"><line id="line2" x1="54.363" x2="42.779" y1="39.254" y2="48.683" fill="none" stroke="#61b2e4" stroke-linecap="round" stroke-linejoin="round" stroke-width="1"/><line id="line3" x1="53.362" x2="44.316" y1="36.622" y2="50.951" fill="none" stroke="#61b2e4" stroke-linecap="round" stroke-linejoin="round" stroke-width="1"/><line id="line4" x1="51.344" x2="46.335" y1="35.573" y2="52" fill="none" stroke="#61b2e4" stroke-linecap="round" stroke-linejoin="round" stroke-width="1"/></g><path id="path4" fill="#fcea2b" stroke="#fcea2b" stroke-linecap="round" stroke-linejoin="round" stroke-width="1.798" d="m 59.8284,22.3314 a 1.3315,1.3315 0 0 0 -1.7081,-0.3466 c -3.1855,1.2833 -11.0738,3.2634 -13.0377,4.3272 a 1.6411,1.6411 0 0 0 -1.011,1.3913 1.4672,1.4672 0 0 0 0.6979,1.2474 l -0.0089,0.0756 a 6.2765,6.2765 0 0 1 -4.7213,-0.9382 l -0.2218,-0.2218 c -0.6347,-1.4524 -0.6167,-5.65 -2.9639,-6.0133 a 1.4644,1.4644 0 0 0 -0.3259,-0.039 c -2.9447,0 -4.417,2.9447 -3.6808,2.2085 0.7362,-0.7362 3.6808,-0.7362 1.6662,2.5988 a 5.4325,5.4325 0 0 1 -0.3437,0.4956 l -0.9711,0.9712 A 6.2766,6.2766 0 0 1 28.477,29.0263 L 28.468,28.9507 A 1.4673,1.4673 0 0 0 29.166,27.7033 1.641,1.641 0 0 0 28.1549,26.312 C 26.191,25.2482 18.3027,23.2681 15.1173,21.9848 a 1.3315,1.3315 0 0 0 -1.7081,0.3466 1.35,1.35 0 0 0 -0.4348,0.8435 2.1454,2.1454 0 0 0 0.2519,0.94 c 0.5725,1.4909 6.9885,6.4578 11.1327,9.4016 a 10.6548,10.6548 0 0 1 1.703,1.5608 2.2031,2.2031 0 0 0 1.037,0.6425 4.3339,4.3339 0 0 1 1.4781,0.6644 c 0.4583,0.3468 0.99,0.7948 1.53,1.27 -0.3152,0.1564 -2.3573,1.26 -1.6772,3.3 0.5484,1.6452 -0.9449,1.6561 -1.7428,1.5547 a 1.4684,1.4684 0 1 0 1.0067,1.39 2.723,2.723 0 0 1 2.2085,-1.4724 1.442,1.442 0 0 0 1.4723,-1.4723 2.57,2.57 0 0 1 1.4724,-0.7362 l 0.5575,0.5575 -2.0919,2.092 a 1.4585,1.4585 0 0 0 0,2.0627 l 4.1838,4.1839 a 1.45,1.45 0 0 0 1.1865,0.4124 1.435,1.435 0 0 0 1.0584,-0.4124 L 41.9251,44.93 a 1.4585,1.4585 0 0 0 0,-2.0627 l -2.092,-2.092 0.5576,-0.5575 a 2.57,2.57 0 0 1 1.4724,0.7362 1.442,1.442 0 0 0 1.4723,1.4723 2.7232,2.7232 0 0 1 2.2085,1.4724 1.4974,1.4974 0 1 0 1.0067,-1.39 c -0.7979,0.1014 -2.2913,0.0905 -1.7429,-1.5547 0.68,-2.0406 -1.3619,-3.144 -1.6771,-3.3 0.54,-0.4749 1.0715,-0.9229 1.53,-1.27 a 4.3334,4.3334 0 0 1 1.478,-0.6644 2.2029,2.2029 0 0 0 1.0371,-0.6425 10.6505,10.6505 0 0 1 1.703,-1.5608 c 4.1441,-2.9438 10.56,-7.9107 11.1327,-9.4016 a 2.1467,2.1467 0 0 0 0.2519,-0.94 1.3514,1.3514 0 0 0 -0.4349,-0.8433 z"/><line id="line5" x1="61.638" x2="61.638" y1="31.265" y2="39.257" fill="none" stroke="#61b2e4" stroke-linecap="round" stroke-linejoin="round" stroke-width="2"/><g id="g7"><line id="line6" x1="8.374" x2="11.024" y1="31.265" y2="39.006" fill="none" stroke="#61b2e4" stroke-linecap="round" stroke-linejoin="round" stroke-width="2"/><line id="line7" x1="14.07" x2="11.421" y1="31.265" y2="39.006" fill="none" stroke="#61b2e4" stroke-linecap="round" stroke-linejoin="round" stroke-width="2"/></g><g id="g14"><rect id="rect7" width="17.98" height="5.993" x="27.563" y="27.6" fill="#1e50a0"/><g id="g13"><path id="path7" fill="#781e32" d="m 27.5859,34.0682 a 8.965,8.965 0 0 0 0.2279,1.624 14.7772,14.7772 0 0 0 7.909,10.5133 1.8422,1.8422 0 0 0 1.66,0 14.7776,14.7776 0 0 0 7.9091,-10.5133 8.9827,8.9827 0 0 0 0.2279,-1.624 c 0.0211,-0.2849 0.0228,-0.4528 0.0228,-0.4528 H 27.563 c 0,0 0.0018,0.1679 0.0229,0.4528 z"/><g id="g12"><path id="path8" fill="#fff" d="M 33.0786,33.5745 V 44.49 q 0.4533,0.3556 0.9567,0.6913 V 33.5745 Z"/><path id="path9" fill="#fff" d="m 30.0719,33.5745 v 7.7138 a 14.3529,14.3529 0 0 0 0.9358,1.22 v -8.9338 z"/><path id="path10" fill="#fff" d="M 39.0918,33.5745 V 45.183 q 0.48,-0.32 0.9148,-0.6583 v -10.95 z"/><path id="path11" fill="#fff" d="m 36.1062,33.5745 v 12.73 a 1.8972,1.8972 0 0 0 0.9147,9e-4 V 33.5745 Z"/><path id="path12" fill="#fff" d="m 42.0774,33.5745 v 8.9864 a 14.3157,14.3157 0 0 0 0.9568,-1.2385 v -7.7479 z"/></g></g></g></g><g id="line" transform="translate(-4,-16)"><rect id="rect14" width="62" height="38" x="5" y="17" fill="none" stroke="#000" stroke-linecap="round" stroke-linejoin="round" stroke-width="2"/></g></svg>