<svg xmlns="http://www.w3.org/2000/svg" xmlns:svg="http://www.w3.org/2000/svg" id="emoji" width="64" height="40" version="1.1" viewBox="0 0 64 40"><g id="color" transform="translate(-4,-16)"><rect id="rect1" width="62" height="38" x="5" y="17" fill="#d22f27"/><rect id="rect2" width="62" height="13" x="5" y="17" fill="#fff"/><rect id="rect3" width="62" height="12" x="5" y="30" fill="#1e50a0"/><path id="path3" fill="#d22f27" stroke="#fff" stroke-linecap="round" stroke-linejoin="round" d="m 23.8334,45 c 0,0 6.75,-2.25 6.75,-9 v -9 h -13.5 v 9 c 0,6.75 6.75,9 6.75,9 z"/><line id="line3" x1="23.833" x2="23.833" y1="29.5" y2="41.5" fill="none" stroke="#fff" stroke-linecap="round" stroke-linejoin="round" stroke-width="2"/><line id="line4" x1="21.833" x2="25.833" y1="31.5" y2="31.5" fill="none" stroke="#fff" stroke-linecap="round" stroke-linejoin="round" stroke-width="2"/><line id="line5" x1="20.333" x2="27.333" y1="34.5" y2="34.5" fill="none" stroke="#fff" stroke-linecap="round" stroke-linejoin="round" stroke-width="2"/><circle id="circle5" cx="23.833" cy="41.5" r="3.167" fill="#1e50a0"/><path id="path5" fill="#1e50a0" d="m 19.25,39.3333 a 2.1457,2.1457 0 0 0 -1.3265,0.465 9.5792,9.5792 0 0 0 2.7022,3.3628 2.158,2.158 0 0 0 -1.3757,-3.8278 z"/><path id="path6" fill="#1e50a0" d="m 28.4167,39.3333 a 2.158,2.158 0 0 0 -1.3757,3.8278 9.5792,9.5792 0 0 0 2.7022,-3.3628 2.1455,2.1455 0 0 0 -1.3265,-0.465 z"/><path id="path7" fill="none" stroke="#fff" stroke-linecap="round" stroke-linejoin="round" d="m 23.8334,45 c 0,0 6.75,-2.25 6.75,-9 v -9 h -13.5 v 9 c 0,6.75 6.75,9 6.75,9 z"/></g><g id="line" transform="translate(-4,-16)"><rect id="rect7" width="62" height="38" x="5" y="17" fill="none" stroke="#000" stroke-linecap="round" stroke-linejoin="round" stroke-width="2"/></g></svg>