<?xml version="1.0" encoding="UTF-8" standalone="no"?>
<svg
   id="emoji"
   viewBox="0 0 58 58"
   version="1.1"
   sodipodi:docname="1f1f2.svg"
   width="58"
   height="58"
   xmlns:inkscape="http://www.inkscape.org/namespaces/inkscape"
   xmlns:sodipodi="http://sodipodi.sourceforge.net/DTD/sodipodi-0.dtd"
   xmlns="http://www.w3.org/2000/svg"
   xmlns:svg="http://www.w3.org/2000/svg">
  <defs
     id="defs2" />
  <sodipodi:namedview
     id="namedview2"
     pagecolor="#ffffff"
     bordercolor="#000000"
     borderopacity="0.25"
     inkscape:showpageshadow="2"
     inkscape:pageopacity="0.0"
     inkscape:pagecheckerboard="0"
     inkscape:deskcolor="#d1d1d1" />
  <g
     id="color"
     transform="translate(-7,-7)">
    <circle
       cx="36"
       cy="36"
       r="27.5"
       fill="#ffffff"
       id="circle1" />
  </g>
  <g
     id="line"
     transform="translate(-7,-7)">
    <g
       id="line-2">
      <circle
         cx="36"
         cy="36"
         r="28"
         fill="none"
         stroke="#000000"
         stroke-linejoin="round"
         stroke-width="2"
         id="circle2" />
    </g>
    <path
       stroke="#000000"
       stroke-linejoin="round"
       stroke-width="2"
       d="m 48.2295,21.0391 c -0.4502,-0.1064 -0.917,0.1108 -1.124,0.5259 L 36,43.7764 24.8945,21.565 C 24.6875,21.15 24.2187,20.9337 23.7705,21.0391 23.3193,21.1455 23,21.5484 23,22.0122 v 28 c 0,0.5522 0.4473,1 1,1 0.5527,0 1,-0.4478 1,-1 V 26.248 l 10.1055,20.2114 c 0.3398,0.6777 1.4492,0.6777 1.7891,0 L 47.0001,26.248 v 23.7642 c 0,0.5522 0.4473,1 1,1 0.5527,0 1,-0.4478 1,-1 v -28 c 0,-0.4639 -0.3193,-0.8667 -0.7705,-0.9731 v 0 z"
       id="path2" />
  </g>
</svg>
