<svg xmlns="http://www.w3.org/2000/svg" xmlns:svg="http://www.w3.org/2000/svg" id="emoji" width="64" height="40" version="1.1" viewBox="0 0 64 40"><g id="color" transform="translate(-4,-16)"><rect id="rect1" width="62" height="38" x="5" y="17" fill="#5c9e31"/><rect id="rect2" width="62" height="13" x="5" y="17" fill="#d22f27"/><rect id="rect3" width="62" height="12" x="5" y="30"/><path id="path3" fill="#fff" stroke="#fff" stroke-linecap="round" stroke-linejoin="round" d="m 32.1358,36.125 a 4.0528,4.0528 0 0 1 3.3783,-3.9236 4.3947,4.3947 0 0 0 -0.8108,-0.0764 4.0043,4.0043 0 1 0 0,8 4.3947,4.3947 0 0 0 0.8108,-0.0764 4.0527,4.0527 0 0 1 -3.3783,-3.9236 z"/><polygon id="polygon3" fill="#fff" stroke="#fff" stroke-linecap="round" stroke-linejoin="round" points="40.666 37.105 37.486 34.732 41.486 34.633 38.193 37.166 39.521 33.166"/></g><g id="line" transform="translate(-4,-16)"><rect id="rect4" width="62" height="38" x="5" y="17" fill="none" stroke="#000" stroke-linecap="round" stroke-linejoin="round" stroke-width="2"/></g></svg>