<svg xmlns="http://www.w3.org/2000/svg" xmlns:svg="http://www.w3.org/2000/svg" id="emoji" width="64" height="40" version="1.1" viewBox="0 0 64 40"><g id="color" transform="translate(-4,-16)"><rect id="rect1" width="62" height="38" x="5" y="17"/><rect id="rect2" width="62" height="6" x="5" y="42" fill="#f1b31c"/><rect id="rect3" width="62" height="6" x="5" y="30" fill="#d22f27"/><rect id="rect4" width="62" height="7" x="5" y="48" fill="#d22f27"/><rect id="rect5" width="62" height="6" x="5" y="24" fill="#f1b31c"/><circle id="circle5" cx="36" cy="36" r="6" fill="#fff"/><circle id="circle6" cx="35.215" cy="32.664" r=".993" stroke="#000" stroke-miterlimit="10" stroke-width="1.335"/><circle id="circle7" cx="36.705" cy="36.14" r=".993" stroke="#000" stroke-miterlimit="10" stroke-width="1.668"/><line id="line7" x1="32.732" x2="35.712" y1="33.161" y2="33.161" stroke="#000" stroke-linecap="round" stroke-linejoin="round" stroke-width="1.001"/><line id="line8" x1="35.712" x2="35.712" y1="36.14" y2="33.161" stroke="#000" stroke-linecap="round" stroke-linejoin="round" stroke-width="1.668"/><line id="line9" x1="36.705" x2="36.705" y1="40.113" y2="37.134" stroke="#000" stroke-linecap="round" stroke-linejoin="round" stroke-width="1.001"/><path id="path9" stroke="#000" stroke-linecap="round" stroke-linejoin="round" stroke-width=".334" d="m 38.5822,34.9626 c -1.2029,-0.676 -2.5481,-0.5659 -3.0044,0.246 l 4.3563,2.4483 c 0.4559,-0.8118 -0.149,-2.0182 -1.3519,-2.6943 z"/></g><g id="line" transform="translate(-4,-16)"><rect id="rect9" width="62" height="38" x="5" y="17" fill="none" stroke="#000" stroke-linecap="round" stroke-linejoin="round" stroke-width="2"/></g></svg>