<?xml version="1.0" encoding="UTF-8" standalone="no"?>
<svg
   id="emoji"
   viewBox="0 0 64 40"
   version="1.1"
   sodipodi:docname="1f1f2-1f1f7.svg"
   width="64"
   height="40"
   xmlns:inkscape="http://www.inkscape.org/namespaces/inkscape"
   xmlns:sodipodi="http://sodipodi.sourceforge.net/DTD/sodipodi-0.dtd"
   xmlns="http://www.w3.org/2000/svg"
   xmlns:svg="http://www.w3.org/2000/svg">
  <defs
     id="defs4" />
  <sodipodi:namedview
     id="namedview4"
     pagecolor="#ffffff"
     bordercolor="#000000"
     borderopacity="0.25"
     inkscape:showpageshadow="2"
     inkscape:pageopacity="0.0"
     inkscape:pagecheckerboard="0"
     inkscape:deskcolor="#d1d1d1" />
  <g
     id="color"
     transform="translate(-4,-16)">
    <rect
       x="5"
       y="17"
       width="62"
       height="38"
       fill="#5c9e31"
       id="rect1" />
    <rect
       x="5"
       y="17"
       width="62"
       height="7"
       fill="#d22f27"
       id="rect2" />
    <rect
       x="5"
       y="48"
       width="62"
       height="7"
       fill="#d22f27"
       id="rect3" />
    <g
       id="g3">
      <path
         fill="#fcea2b"
         stroke="#fcea2b"
         stroke-linecap="round"
         stroke-linejoin="round"
         d="M 36,40.8847 A 6.9294,6.9294 0 0 1 29.1337,35.4793 6.4559,6.4559 0 0 0 29,36.7766 a 7.0066,7.0066 0 0 0 14,0 A 6.4486,6.4486 0 0 0 42.8663,35.4793 6.9294,6.9294 0 0 1 36,40.8847 Z"
         id="path3" />
      <polygon
         fill="#fcea2b"
         stroke="#fcea2b"
         stroke-linecap="round"
         stroke-linejoin="round"
         points="37.18,34.46 34,32.086 38,31.987 34.707,34.521 36.035,30.521 "
         id="polygon3" />
    </g>
  </g>
  <g
     id="line"
     transform="translate(-4,-16)">
    <rect
       x="5"
       y="17"
       width="62"
       height="38"
       fill="none"
       stroke="#000000"
       stroke-linecap="round"
       stroke-linejoin="round"
       stroke-width="2"
       id="rect4" />
  </g>
</svg>
