<svg xmlns="http://www.w3.org/2000/svg" xmlns:svg="http://www.w3.org/2000/svg" id="emoji" width="64" height="40" version="1.1" viewBox="0 0 64 40"><g id="color" transform="translate(-4,-16)"><rect id="rect1" width="62" height="38" x="5" y="17" fill="#1e50a0"/><rect id="rect2" width="62" height="19" x="5" y="36" fill="#d22f27"/><polygon id="polygon2" fill="#fff" points="5 17 37 36 5 55"/><circle id="circle2" cx="8" cy="21" r="1.043" fill="#f1b31c"/><circle id="circle3" cx="33" cy="36" r="1.043" fill="#f1b31c"/><circle id="circle4" cx="8" cy="51" r="1.043" fill="#f1b31c"/><polygon id="polygon4" fill="#f1b31c" stroke="#f1b31c" stroke-linecap="round" stroke-linejoin="round" points="18.434 35.642 21 36.092 18.414 36.407 19.91 38.54 17.859 36.934 17.408 39.5 17.093 36.914 14.96 38.41 16.566 36.359 14 35.908 16.586 35.593 15.09 33.46 17.142 35.066 17.592 32.5 17.907 35.086 20.04 33.59"/></g><g id="line" transform="translate(-4,-16)"><rect id="rect4" width="62" height="38" x="5" y="17" fill="none" stroke="#000" stroke-linecap="round" stroke-linejoin="round" stroke-width="2"/></g></svg>