<svg xmlns="http://www.w3.org/2000/svg" xmlns:svg="http://www.w3.org/2000/svg" id="emoji" width="64" height="40" version="1.1" viewBox="0 0 64 40"><g id="color" transform="translate(-4,-16)"><rect id="rect1" width="62" height="38" x="5" y="17" fill="#fcea2b"/><rect id="rect2" width="31" height="19" x="5" y="17" fill="#1e50a0"/><g id="g9"><polygon id="polygon2" fill="#fff" points="6 20.332 32.113 36 36 36 36 33.668 9.887 18 6 18"/><polygon id="polygon3" fill="#fff" points="32.113 18 6 33.668 6 36 9.887 36 36 20.332 36 18"/><rect id="rect3" width="30" height="6" x="6" y="24" fill="#fff"/><rect id="rect4" width="6" height="18" x="18" y="18" fill="#fff"/><rect id="rect5" width="2" height="18" x="20" y="18" fill="#d22f27"/><rect id="rect6" width="30" height="2" x="6" y="26" fill="#d22f27"/><polygon id="polygon6" fill="#d22f27" points="26 30 36 36 36 33.668 29.887 30"/><polygon id="polygon7" fill="#d22f27" points="24 22.868 24 24 26 24 36 18 32.113 18"/><polygon id="polygon8" fill="#d22f27" points="16 24 6 18 6 20.332 12.113 24"/><polygon id="polygon9" fill="#d22f27" points="18 31.132 18 30 16 30 6 36 9.887 36"/></g><circle id="circle9" cx="20.5" cy="26.5" r="2.5" fill="#1e50a0"/><polygon id="polygon10" fill="#fcea2b" stroke="#fcea2b" stroke-linecap="round" stroke-linejoin="round" points="21.385 27.954 19 26.174 22 26.1 19.531 28 20.526 25"/><circle id="circle10" cx="27" cy="26.5" r="1" fill="#fcea2b"/><circle id="circle11" cx="14" cy="26.5" r="1" fill="#fcea2b"/><circle id="circle12" cx="20.5" cy="32" r="1" fill="#fcea2b"/><circle id="circle13" cx="20.5" cy="21" r="1" fill="#fcea2b"/></g><g id="line" transform="translate(-4,-16)"><rect id="rect13" width="62" height="38" x="5" y="17" fill="none" stroke="#000" stroke-linecap="round" stroke-linejoin="round" stroke-width="2"/></g></svg>