<svg xmlns="http://www.w3.org/2000/svg" xmlns:svg="http://www.w3.org/2000/svg" id="emoji" width="64" height="40" version="1.1" viewBox="0 0 64 40"><g id="color" transform="translate(-4,-16)"><rect id="rect1" width="62" height="38" x="5" y="17" fill="#b1cc33"/><rect id="rect2" width="62" height="13" x="5" y="17" fill="#61b2e4"/><rect id="rect3" width="62" height="11.5" x="5" y="30.25" fill="#fff" stroke="#d22f27" stroke-miterlimit="10" stroke-width="1.5"/><circle id="circle3" cx="29.25" cy="21" r="1" fill="#fff"/><circle id="circle4" cx="29.25" cy="24" r="1" fill="#fff"/><circle id="circle5" cx="29.25" cy="27" r="1" fill="#fff"/><circle id="circle6" cx="26.25" cy="21" r="1" fill="#fff"/><circle id="circle7" cx="26.25" cy="24" r="1" fill="#fff"/><circle id="circle8" cx="26.25" cy="27" r="1" fill="#fff"/><circle id="circle9" cx="23.25" cy="21" r="1" fill="#fff"/><circle id="circle10" cx="23.25" cy="24" r="1" fill="#fff"/><circle id="circle11" cx="23.25" cy="27" r="1" fill="#fff"/><circle id="circle12" cx="20.25" cy="24" r="1" fill="#fff"/><circle id="circle13" cx="20.25" cy="27" r="1" fill="#fff"/><circle id="circle14" cx="17.25" cy="27" r="1" fill="#fff"/><path id="path14" fill="#fff" stroke="#fff" stroke-linecap="round" stroke-linejoin="round" d="M 11.2973,24 A 3.4648,3.4648 0 0 1 14,20.5668 3.2286,3.2286 0 0 0 13.3514,20.5 a 3.5033,3.5033 0 0 0 0,7 A 3.2286,3.2286 0 0 0 14,27.4332 3.4648,3.4648 0 0 1 11.2973,24 Z"/></g><g id="line" transform="translate(-4,-16)"><rect id="rect14" width="62" height="38" x="5" y="17" fill="none" stroke="#000" stroke-linecap="round" stroke-linejoin="round" stroke-width="2"/></g></svg>