<svg xmlns="http://www.w3.org/2000/svg" xmlns:svg="http://www.w3.org/2000/svg" id="emoji" width="64" height="40" version="1.1" viewBox="0 0 64 40"><g id="color" transform="translate(-4,-16)"><rect id="rect1" width="62" height="38" x="5" y="17" fill="#5c9e31"/><rect id="rect2" width="62" height="13" x="5" y="17" fill="#d22f27"/><rect id="rect3" width="62" height="12" x="5" y="30" fill="#fff"/><g id="g4"><circle id="circle3" cx="36" cy="35.155" r=".497" fill="#fcea2b" stroke="#fcea2b" stroke-miterlimit="10" stroke-width=".994"/><rect id="rect4" width=".928" height="3.976" x="35.536" y="35.155" fill="#fcea2b" rx=".306" ry=".306"/><path id="path4" fill="none" stroke="#fcea2b" stroke-linecap="round" stroke-linejoin="round" stroke-width="1.988" d="m 38.982,40.1247 a 4.2141,4.2141 0 0 0 -5.9632,0"/></g><g id="g10"><circle id="circle4" cx="41" cy="37" r=".5" fill="#fcea2b" stroke="#fcea2b" stroke-miterlimit="10" stroke-width="1"/><circle id="circle5" cx="40.2" cy="34.6" r=".5" fill="#fcea2b" stroke="#fcea2b" stroke-miterlimit="10" stroke-width="1"/><circle id="circle6" cx="38.4" cy="32.9" r=".5" fill="#fcea2b" stroke="#fcea2b" stroke-miterlimit="10" stroke-width="1"/><circle id="circle7" cx="36" cy="32.2" r=".5" fill="#fcea2b" stroke="#fcea2b" stroke-miterlimit="10" stroke-width="1"/><circle id="circle8" cx="33.6" cy="32.9" r=".5" fill="#fcea2b" stroke="#fcea2b" stroke-miterlimit="10" stroke-width="1"/><circle id="circle9" cx="31.8" cy="34.6" r=".5" fill="#fcea2b" stroke="#fcea2b" stroke-miterlimit="10" stroke-width="1"/><circle id="circle10" cx="31" cy="37" r=".5" fill="#fcea2b" stroke="#fcea2b" stroke-miterlimit="10" stroke-width="1"/></g></g><g id="line" transform="translate(-4,-16)"><rect id="rect10" width="62" height="38" x="5" y="17" fill="none" stroke="#000" stroke-linecap="round" stroke-linejoin="round" stroke-width="2"/></g></svg>