<?xml version="1.0" encoding="UTF-8" standalone="no"?>
<svg
   id="emoji"
   viewBox="0 0 64 40"
   version="1.1"
   sodipodi:docname="1f1f2-1f1f4.svg"
   width="64"
   height="40"
   xmlns:inkscape="http://www.inkscape.org/namespaces/inkscape"
   xmlns:sodipodi="http://sodipodi.sourceforge.net/DTD/sodipodi-0.dtd"
   xmlns="http://www.w3.org/2000/svg"
   xmlns:svg="http://www.w3.org/2000/svg">
  <defs
     id="defs10" />
  <sodipodi:namedview
     id="namedview10"
     pagecolor="#ffffff"
     bordercolor="#000000"
     borderopacity="0.25"
     inkscape:showpageshadow="2"
     inkscape:pageopacity="0.0"
     inkscape:pagecheckerboard="0"
     inkscape:deskcolor="#d1d1d1" />
  <g
     id="color"
     transform="translate(-4,-16)">
    <rect
       x="5"
       y="17"
       width="62"
       height="38"
       fill="#186648"
       id="rect1" />
    <g
       id="g10">
      <line
         x1="32.4077"
         x2="39.4077"
         y1="49.977001"
         y2="49.977001"
         fill="none"
         stroke="#ffffff"
         stroke-linecap="round"
         stroke-linejoin="round"
         id="line1" />
      <line
         x1="43.9077"
         x2="27.9077"
         y1="47.977001"
         y2="47.977001"
         fill="none"
         stroke="#ffffff"
         stroke-linecap="round"
         stroke-linejoin="round"
         id="line2" />
      <line
         x1="25.4077"
         x2="46.4077"
         y1="45.977001"
         y2="45.977001"
         fill="none"
         stroke="#ffffff"
         stroke-linecap="round"
         stroke-linejoin="round"
         id="line3" />
      <polygon
         fill="#f1b31c"
         stroke="#f1b31c"
         stroke-linecap="round"
         stroke-linejoin="round"
         points="37.557,26.946 33.583,23.98 38.583,23.856 34.467,27.023 36.127,22.023 "
         id="polygon3" />
      <polygon
         fill="#f1b31c"
         stroke="#f1b31c"
         stroke-linecap="round"
         stroke-linejoin="round"
         points="44.576,27.34 41.621,26.991 44.182,25.427 42.993,28.307 42.355,25.211 "
         id="polygon4" />
      <polygon
         fill="#f1b31c"
         stroke="#f1b31c"
         stroke-linecap="round"
         stroke-linejoin="round"
         points="47.949,33.001 45.564,31.221 48.564,31.147 46.094,33.047 47.09,30.047 "
         id="polygon5" />
      <polygon
         fill="#f1b31c"
         stroke="#f1b31c"
         stroke-linecap="round"
         stroke-linejoin="round"
         points="27.424,27.188 30.379,26.839 27.818,25.275 29.007,28.155 29.645,25.059 "
         id="polygon6" />
      <polygon
         fill="#f1b31c"
         stroke="#f1b31c"
         stroke-linecap="round"
         stroke-linejoin="round"
         points="24.051,32.849 26.436,31.069 23.436,30.995 25.906,32.895 24.91,29.895 "
         id="polygon7" />
      <g
         id="g9">
        <g
           id="g8">
          <path
             fill="#ffffff"
             stroke="#ffffff"
             stroke-linecap="round"
             stroke-linejoin="round"
             d="m 35.0066,41.34 c 1.3822,1.2555 4.0028,1.8321 6.8351,1.3326 2.8323,-0.4995 5.0984,-1.9379 5.9676,-3.5908 -1.3821,-1.2559 -4.0031,-1.8327 -6.8359,-1.3332 -2.8328,0.4995 -5.0976,1.9374 -5.9671,3.59 z"
             id="path7" />
          <path
             fill="#ffffff"
             stroke="#ffffff"
             stroke-linecap="round"
             stroke-linejoin="round"
             d="m 24.0062,39.083 c 0.8695,1.6525 3.1348,3.09 5.9671,3.59 2.8323,0.5 5.4538,-0.0773 6.8358,-1.3332 -0.8691,-1.6529 -3.1347,-3.0913 -5.9675,-3.5908 -2.8328,-0.4995 -5.4529,0.0771 -6.8351,1.3326 z"
             id="path8" />
        </g>
        <path
           fill="#ffffff"
           stroke="#ffffff"
           stroke-linecap="round"
           stroke-linejoin="round"
           d="m 35.907,29.977 c -1.4765,1.0443 -2.4993,3.31 -2.4993,5.9373 0,2.6273 1.0232,4.8938 2.5,5.9378 1.4769,-1.044 2.5,-3.31 2.5,-5.9378 0,-2.6278 -1.0228,-4.893 -2.4992,-5.9373 z"
           id="path9" />
      </g>
    </g>
  </g>
  <g
     id="line"
     transform="translate(-4,-16)">
    <rect
       x="5"
       y="17"
       width="62"
       height="38"
       fill="none"
       stroke="#000000"
       stroke-linecap="round"
       stroke-linejoin="round"
       stroke-width="2"
       id="rect10" />
  </g>
</svg>
