<?xml version="1.0" encoding="UTF-8" standalone="no"?>
<svg
   id="emoji"
   viewBox="0 0 58 58"
   version="1.1"
   sodipodi:docname="1f1fd.svg"
   width="58"
   height="58"
   xmlns:inkscape="http://www.inkscape.org/namespaces/inkscape"
   xmlns:sodipodi="http://sodipodi.sourceforge.net/DTD/sodipodi-0.dtd"
   xmlns="http://www.w3.org/2000/svg"
   xmlns:svg="http://www.w3.org/2000/svg">
  <defs
     id="defs2" />
  <sodipodi:namedview
     id="namedview2"
     pagecolor="#ffffff"
     bordercolor="#000000"
     borderopacity="0.25"
     inkscape:showpageshadow="2"
     inkscape:pageopacity="0.0"
     inkscape:pagecheckerboard="0"
     inkscape:deskcolor="#d1d1d1" />
  <g
     id="color"
     transform="translate(-7,-7)">
    <circle
       cx="36"
       cy="36"
       r="27.5"
       fill="#ffffff"
       id="circle1" />
  </g>
  <g
     id="line"
     transform="translate(-7,-7)">
    <g
       id="line-2">
      <circle
         cx="36"
         cy="36"
         r="28"
         fill="none"
         stroke="#000000"
         stroke-linejoin="round"
         stroke-width="2"
         id="circle2" />
    </g>
    <path
       stroke="#000000"
       stroke-linejoin="round"
       stroke-width="2"
       d="m 44.4951,21.122 c -0.4805,-0.2759 -1.0918,-0.1074 -1.3643,0.3721 L 35.9937,33.9845 28.8691,21.5161 c -0.2734,-0.48 -0.8857,-0.6475 -1.3643,-0.3721 -0.4795,0.2739 -0.6465,0.8848 -0.3721,1.3643 L 34.842,36 27.1327,49.4917 c -0.2744,0.4795 -0.1074,1.0903 0.3721,1.3643 0.1562,0.0894 0.3271,0.1318 0.4951,0.1318 0.3477,0 0.6846,-0.1807 0.8691,-0.5039 l 7.1246,-12.4684 7.1371,12.4904 c 0.1846,0.3232 0.5215,0.5039 0.8691,0.5039 0.168,0 0.3389,-0.0425 0.4951,-0.1318 0.4795,-0.2739 0.6465,-0.8848 0.3721,-1.3643 L 37.1452,36 44.867,22.4863 c 0.2744,-0.4795 0.1074,-1.0903 -0.3721,-1.3643 z"
       id="path2" />
  </g>
</svg>
