<?xml version="1.0" encoding="UTF-8" standalone="no"?>
<svg
   id="emoji"
   viewBox="0 0 64 40"
   version="1.1"
   sodipodi:docname="1f1f3-1f1fa.svg"
   width="64"
   height="40"
   xmlns:inkscape="http://www.inkscape.org/namespaces/inkscape"
   xmlns:sodipodi="http://sodipodi.sourceforge.net/DTD/sodipodi-0.dtd"
   xmlns="http://www.w3.org/2000/svg"
   xmlns:svg="http://www.w3.org/2000/svg">
  <defs
     id="defs13" />
  <sodipodi:namedview
     id="namedview13"
     pagecolor="#ffffff"
     bordercolor="#000000"
     borderopacity="0.25"
     inkscape:showpageshadow="2"
     inkscape:pageopacity="0.0"
     inkscape:pagecheckerboard="0"
     inkscape:deskcolor="#d1d1d1" />
  <g
     id="color"
     transform="translate(-4,-16)">
    <rect
       x="5"
       y="17"
       width="62"
       height="38"
       fill="#fcea2b"
       id="rect1" />
    <rect
       x="5"
       y="17"
       width="31"
       height="19"
       fill="#1e50a0"
       id="rect2" />
    <g
       id="g9">
      <polygon
         fill="#ffffff"
         points="6,20.332 32.113,36 36,36 36,33.668 9.887,18 6,18 "
         id="polygon2" />
      <polygon
         fill="#ffffff"
         points="32.113,18 6,33.668 6,36 9.887,36 36,20.332 36,18 "
         id="polygon3" />
      <rect
         x="6"
         y="24"
         width="30"
         height="6"
         fill="#ffffff"
         id="rect3" />
      <rect
         x="18"
         y="18"
         width="6"
         height="18"
         fill="#ffffff"
         id="rect4" />
      <rect
         x="20"
         y="18"
         width="2"
         height="18"
         fill="#d22f27"
         id="rect5" />
      <rect
         x="6"
         y="26"
         width="30"
         height="2"
         fill="#d22f27"
         id="rect6" />
      <polygon
         fill="#d22f27"
         points="26,30 36,36 36,33.668 29.887,30 "
         id="polygon6" />
      <polygon
         fill="#d22f27"
         points="24,22.868 24,24 26,24 36,18 32.113,18 "
         id="polygon7" />
      <polygon
         fill="#d22f27"
         points="16,24 6,18 6,20.332 12.113,24 "
         id="polygon8" />
      <polygon
         fill="#d22f27"
         points="18,31.132 18,30 16,30 6,36 9.887,36 "
         id="polygon9" />
    </g>
    <circle
       cx="20.5"
       cy="26.5"
       r="2.5"
       fill="#1e50a0"
       id="circle9" />
    <polygon
       fill="#fcea2b"
       stroke="#fcea2b"
       stroke-linecap="round"
       stroke-linejoin="round"
       points="21.385,27.954 19,26.174 22,26.1 19.531,28 20.526,25 "
       id="polygon10" />
    <circle
       cx="27"
       cy="26.5"
       r="1"
       fill="#fcea2b"
       id="circle10" />
    <circle
       cx="14"
       cy="26.5"
       r="1"
       fill="#fcea2b"
       id="circle11" />
    <circle
       cx="20.5"
       cy="32"
       r="1"
       fill="#fcea2b"
       id="circle12" />
    <circle
       cx="20.5"
       cy="21"
       r="1"
       fill="#fcea2b"
       id="circle13" />
  </g>
  <g
     id="line"
     transform="translate(-4,-16)">
    <rect
       x="5"
       y="17"
       width="62"
       height="38"
       fill="none"
       stroke="#000000"
       stroke-linecap="round"
       stroke-linejoin="round"
       stroke-width="2"
       id="rect13" />
  </g>
</svg>
