<?xml version="1.0" encoding="UTF-8" standalone="no"?>
<svg
   id="emoji"
   viewBox="0 0 64 40"
   version="1.1"
   sodipodi:docname="1f1f9-1f1f2.svg"
   width="64"
   height="40"
   xmlns:inkscape="http://www.inkscape.org/namespaces/inkscape"
   xmlns:sodipodi="http://sodipodi.sourceforge.net/DTD/sodipodi-0.dtd"
   xmlns="http://www.w3.org/2000/svg"
   xmlns:svg="http://www.w3.org/2000/svg">
  <defs
     id="defs13" />
  <sodipodi:namedview
     id="namedview13"
     pagecolor="#ffffff"
     bordercolor="#000000"
     borderopacity="0.25"
     inkscape:showpageshadow="2"
     inkscape:pageopacity="0.0"
     inkscape:pagecheckerboard="0"
     inkscape:deskcolor="#d1d1d1" />
  <g
     id="color"
     transform="translate(-4,-16)">
    <rect
       x="5"
       y="17"
       width="62"
       height="38"
       fill="#186648"
       id="rect1" />
    <rect
       x="8.1715002"
       y="17"
       width="14.9278"
       height="38"
       fill="#d22f27"
       id="rect2" />
    <polygon
       fill="#781e32"
       points="8.171,21.216 15.641,28.234 23.11,21.216 18.624,17 12.658,17 "
       id="polygon2" />
    <polygon
       fill="#f1b31c"
       points="12.693,21.216 14.167,22.804 17.114,22.804 18.588,21.216 17.114,19.628 14.167,19.628 "
       id="polygon3" />
    <polygon
       fill="#781e32"
       points="15.641,24.123 23.11,31.142 15.641,38.16 8.171,31.142 "
       id="polygon4" />
    <polygon
       fill="#f1b31c"
       points="12.693,31.142 14.167,32.73 17.114,32.73 18.588,31.142 17.114,29.554 14.167,29.554 "
       id="polygon5" />
    <polygon
       fill="#781e32"
       points="15.641,34.049 23.11,41.067 15.641,48.086 8.171,41.067 "
       id="polygon6" />
    <polygon
       fill="#f1b31c"
       points="12.693,41.067 14.167,42.655 17.114,42.655 18.588,41.067 17.114,39.479 14.167,39.479 "
       id="polygon7" />
    <polygon
       fill="#781e32"
       points="15.641,43.975 8.171,50.993 12.435,55 18.846,55 23.11,50.993 "
       id="polygon8" />
    <polygon
       fill="#f1b31c"
       points="12.693,50.993 14.167,52.581 17.114,52.581 18.588,50.993 17.114,49.405 14.167,49.405 "
       id="polygon9" />
    <g
       id="g13">
      <path
         fill="#ffffff"
         stroke="#ffffff"
         stroke-linecap="round"
         stroke-linejoin="round"
         stroke-width="0.9952"
         d="m 37.4927,21.8329 a 7.7649,7.7649 0 0 1 -6.8143,13.66 7.77,7.77 0 1 0 6.8143,-13.66 z"
         id="path9" />
      <circle
         cx="32.762901"
         cy="23.055099"
         r="0.7385"
         fill="#ffffff"
         id="circle9" />
      <circle
         cx="32.762901"
         cy="26.0091"
         r="0.7385"
         fill="#ffffff"
         id="circle10" />
      <circle
         cx="29.808901"
         cy="26.0091"
         r="0.7385"
         fill="#ffffff"
         id="circle11" />
      <circle
         cx="35.716999"
         cy="26.0091"
         r="0.7385"
         fill="#ffffff"
         id="circle12" />
      <circle
         cx="32.762901"
         cy="28.9631"
         r="0.7385"
         fill="#ffffff"
         id="circle13" />
    </g>
  </g>
  <g
     id="line"
     transform="translate(-4,-16)">
    <rect
       x="5"
       y="17"
       width="62"
       height="38"
       fill="none"
       stroke="#000000"
       stroke-linecap="round"
       stroke-linejoin="round"
       stroke-width="2"
       id="rect13" />
  </g>
</svg>
