<svg xmlns="http://www.w3.org/2000/svg" xmlns:svg="http://www.w3.org/2000/svg" id="emoji" width="64" height="40" version="1.1" viewBox="0 0 64 40"><g id="color" transform="translate(-4,-16)"><rect id="rect1" width="61.681" height="37.804" x="5.319" y="17" fill="#61b2e4"/><g id="g14"><g id="g11"><g id="g6"><g id="g5"><circle id="circle1" cx="36.16" cy="32.938" r="11.595" fill="none" stroke="#92d3f5" stroke-linecap="round" stroke-linejoin="round" stroke-width="1.153"/><circle id="circle2" cx="36.16" cy="32.938" r="8.696" fill="none" stroke="#92d3f5" stroke-linecap="round" stroke-linejoin="round" stroke-width="1.153"/><line id="line2" x1="36.16" x2="36.16" y1="44.534" y2="21.343" fill="none" stroke="#92d3f5" stroke-linecap="round" stroke-linejoin="round" stroke-width="1.153"/><line id="line3" x1="24.564" x2="47.755" y1="32.938" y2="32.938" fill="none" stroke="#92d3f5" stroke-linecap="round" stroke-linejoin="round" stroke-width="1.153"/><line id="line4" x1="27.96" x2="44.359" y1="41.138" y2="24.739" fill="none" stroke="#92d3f5" stroke-linecap="round" stroke-linejoin="round" stroke-width="1.153"/><line id="line5" x1="44.359" x2="27.96" y1="41.138" y2="24.739" fill="none" stroke="#92d3f5" stroke-linecap="round" stroke-linejoin="round" stroke-width="1.153"/></g><circle id="circle5" cx="36.16" cy="32.938" r="5.798" fill="#61b2e4" stroke="#92d3f5" stroke-linecap="round" stroke-linejoin="round" stroke-width="1.282"/></g><path id="path6" fill="#fff" d="m 26.4716,37.6969 a 0.486,0.486 0 0 1 0.4176,-0.7476 h 1.4837 a 0.9062,0.9062 0 0 0 0.9253,-0.9252 0.9062,0.9062 0 0 1 0.9253,-0.9253 c 0.9253,0 0.9253,2.7758 1.85,3.7011 0.9247,0.9253 0.9253,1.8506 0,1.8506 A 3.3991,3.3991 0 0 1 29.2977,39.7252 C 28.6221,39.0491 26.958,38.373 26.4716,37.6969 Z"/><path id="path7" fill="#fff" d="m 30.9606,34.9267 a 0.8909,0.8909 0 0 1 -0.3922,-1.1073 c 0.4016,-0.9922 1.1891,-2.6457 1.9765,-2.6457 1.1249,0 1.1249,-2.25 3.3748,0 2.2499,2.25 -1.1249,2.25 -1.1249,3.3748 0,1.1248 1.1249,0 2.25,0 1.1251,0 1.125,1.1249 -1.1249,1.1249 -2.1836,0 1.9901,3.1785 -4.9593,-0.7467 z"/><path id="path8" fill="#fff" d="m 38.8661,40.5337 a 1.9333,1.9333 0 0 1 -2.6,-1.733 c 0,-1.733 1.733,-0.8665 1.733,-1.733 0,-0.8665 0,-2.6 0.8665,-2.6 0.8665,0 0,-0.8665 0,-1.733 0,-0.8665 1.733,-1.733 1.733,-1.733 0,0 1.733,-0.8665 2.6,0 0.867,0.8665 0,1.733 0,2.5995 0,0.8665 1.733,0.8665 0,1.733 -1.733,0.8665 -2.1663,1.3 -1.3,1.3 0.8663,0 2.5995,0.8665 2.5995,1.733 0,0.8665 0,1.7331 -0.8665,0.8666 -0.8665,-0.8665 -0.8665,0 -0.8665,0.8665 0,0.8665 0,2.6 -1.733,2.6 -1.733,0 -1.5999,-2.4011 -2.166,-2.1666 z"/><path id="path9" fill="#fff" d="m 42.0289,26.8669 c -0.0738,-0.4542 -0.8232,-2.47 1.6463,-0.8232 2.4695,1.6468 2.47,3.2928 1.6464,3.2928 -0.8236,0 -3.1609,-1.6565 -3.2927,-2.4696 z"/><path id="path10" fill="#fff" d="m 40.3825,27.69 c 0,0 0,-1.6464 0.8232,0 0.8232,1.6464 2.4695,1.6464 2.4695,2.47 0,0.57 -1.1856,-0.0448 -1.9138,-0.4765 A 2.9534,2.9534 0 0 1 40.56,28.4087 1.7432,1.7432 0 0 1 40.3825,27.69 Z"/><ellipse id="ellipse10" cx="38.736" cy="23.163" fill="#fff" rx=".823" ry=".412"/><path id="path11" fill="#fff" d="m 35.9484,30.7272 c 0.5176,0.2144 1.12,1.12 2.2409,0 1.1209,-1.12 1.12,1.12 0,1.12 -1.12,0 1.12,1.12 0,1.12 -1.12,0 -4.3111,-3.0972 -2.2409,-2.24 z"/></g><g id="g13"><path id="path12" fill="#fff" d="m 51.9928,24.4406 a 10.8943,10.8943 0 0 0 -3.3112,-2.9654 c -0.2439,-0.1415 -0.4913,-0.2739 -0.7411,-0.4 a 0.5558,0.5558 0 0 0 -0.7362,0.7587 c 0.4879,0.9619 1.8007,3.92 1.8007,3.92 A 14.3473,14.3473 0 0 1 36.9287,46.4775 c -0.1291,0.0068 -0.2575,0.0106 -0.3858,0.0139 -0.1283,0.0033 -0.2551,0.0063 -0.3834,0.0064 -0.1283,1e-4 -0.2558,-0.003 -0.3833,-0.0064 -0.1275,-0.0034 -0.2567,-0.0071 -0.3858,-0.0139 A 14.3473,14.3473 0 0 1 23.3141,25.754 c 0,0 1.3128,-2.9585 1.8007,-3.92 a 0.5558,0.5558 0 0 0 -0.7362,-0.7587 c -0.25,0.1264 -0.4972,0.2588 -0.7411,0.4 a 10.8943,10.8943 0 0 0 -3.3112,2.9654 14.3927,14.3927 0 0 0 -2.8763,9.7267 q 0.0068,0.0885 0.0144,0.1772 a 18.717,18.717 0 0 0 7.3065,13.2441 8.3031,8.3031 0 0 0 9.3539,0.5949 3.7255,3.7255 0 0 1 1.4013,-0.522 c 0.0246,-0.0041 0.0478,-0.012 0.0726,-0.0156 a 3.8329,3.8329 0 0 1 1.1223,0 c 0.025,0.0036 0.0486,0.0116 0.0735,0.0158 a 3.7233,3.7233 0 0 1 1.4,0.5218 8.3031,8.3031 0 0 0 9.3539,-0.5949 18.717,18.717 0 0 0 7.3066,-13.2441 q 0.0077,-0.0887 0.0144,-0.1772 a 14.3927,14.3927 0 0 0 -2.8766,-9.7268 z"/><path id="path13" fill="#fff" stroke="#fff" stroke-linecap="round" stroke-linejoin="round" stroke-width=".687" d="m 45.2409,47.7376 a 4.3178,4.3178 0 0 1 -2.1156,0.351 5.3,5.3 0 0 1 -1.8837,-0.5537 15.2989,15.2989 0 0 0 -1.6114,-0.6543 6.1261,6.1261 0 0 0 -2.0875,-0.3638 7.3981,7.3981 0 0 0 -0.9019,0.0959 2.958,2.958 0 0 0 -0.4714,0.12 l -0.01,0.002 -0.01,-0.002 a 2.958,2.958 0 0 0 -0.4714,-0.12 7.3981,7.3981 0 0 0 -0.9019,-0.0959 6.1261,6.1261 0 0 0 -2.0875,0.3638 15.2989,15.2989 0 0 0 -1.6114,0.6543 5.3007,5.3007 0 0 1 -1.8837,0.5537 4.3178,4.3178 0 0 1 -2.1156,-0.351 c -0.1487,-0.0684 -0.2906,-0.1516 -0.4582,-0.24 a 2.0946,2.0946 0 0 0 0.3063,0.3158 4.6012,4.6012 0 0 0 1.02,0.73 4.3585,4.3585 0 0 0 1.58,0.5073 4.5816,4.5816 0 0 0 2.5895,-0.5249 12.066,12.066 0 0 0 1.3766,-0.8858 7.6787,7.6787 0 0 1 0.8382,-0.5231 1.7348,1.7348 0 0 1 1.26,-0.1508 c 0.03,0.0075 0.0591,0.02 0.1117,0.0388 a 12.1472,12.1472 0 0 0 -3.2638,2.2736 c -0.143,0.1125 -0.771,0.63 -0.771,1.0444 a 0.4229,0.4229 0 0 0 0.281,0.4278 l 0.0115,0.0045 a 0.4069,0.4069 0 0 0 0.1753,0.0354 0.2593,0.2593 0 0 0 0.09,-0.0181 0.5329,0.5329 0 0 0 0.2557,-0.1405 2.3508,2.3508 0 0 0 0.3061,-0.3124 7.46,7.46 0 0 1 0.9208,-1.03 l 1.9688,-1.7471 c 0.0584,-0.0368 0.1189,-0.07 0.1809,-0.1013 a 0.5525,0.5525 0 0 1 0.6045,0 c 0.062,0.0313 0.1225,0.0645 0.1809,0.1013 l 1.9688,1.7471 a 7.46,7.46 0 0 1 0.9208,1.03 2.3508,2.3508 0 0 0 0.3061,0.3124 0.5329,0.5329 0 0 0 0.2557,0.1405 0.2593,0.2593 0 0 0 0.09,0.0181 0.4069,0.4069 0 0 0 0.1753,-0.0354 l 0.0115,-0.0045 a 0.4229,0.4229 0 0 0 0.281,-0.4278 c 0,-0.4147 -0.628,-0.9319 -0.771,-1.0444 a 12.1472,12.1472 0 0 0 -3.2638,-2.2736 c 0.0526,-0.0185 0.0815,-0.0313 0.1117,-0.0388 a 1.7348,1.7348 0 0 1 1.26,0.1508 7.6787,7.6787 0 0 1 0.8382,0.5231 12.066,12.066 0 0 0 1.3766,0.8858 4.5816,4.5816 0 0 0 2.59,0.5249 4.3585,4.3585 0 0 0 1.58,-0.5073 4.6012,4.6012 0 0 0 1.02,-0.73 2.0946,2.0946 0 0 0 0.3063,-0.3158 c -0.1684,0.0884 -0.3099,0.1716 -0.459,0.24 z"/></g></g></g><g id="line" transform="translate(-4,-16)"><rect id="rect14" width="62" height="38" x="5" y="17" fill="none" stroke="#000" stroke-linecap="round" stroke-linejoin="round" stroke-width="2"/></g></svg>