<svg xmlns="http://www.w3.org/2000/svg" xmlns:svg="http://www.w3.org/2000/svg" id="emoji" width="64" height="40" version="1.1" viewBox="0 0 64 40"><g id="color" transform="translate(-4,-16)"><rect id="rect1" width="62" height="38" x="5" y="17" fill="#5c9e31"/><rect id="rect2" width="62" height="13" x="5" y="17"/><rect id="rect3" width="62" height="11" x="5" y="30.5" fill="#d22f27" stroke="#fff" stroke-miterlimit="10" stroke-width="2"/><path id="path3" fill="#fff" stroke="#fff" stroke-linecap="round" stroke-linejoin="round" d="M 29.25,47.6913 42.75,24.3087"/><path id="path4" fill="#fff" stroke="#fff" stroke-linecap="round" stroke-linejoin="round" d="m 29.25,24.3087 13.5,23.3826"/><path id="path5" fill="#d22f27" d="m 36.231,25.0566 a 0.4958,0.4958 0 0 0 -0.4619,0 A 12.2986,12.2986 0 0 0 29.5,36 12.2988,12.2988 0 0 0 35.7671,46.9434 0.5,0.5 0 0 0 35.9981,47 H 36.002 A 0.5,0.5 0 0 0 36.2329,46.9434 12.2986,12.2986 0 0 0 42.5,36 12.2985,12.2985 0 0 0 36.231,25.0566 Z"/><path id="path6" d="M 41.7033,31.501 A 6.2884,6.2884 0 0 0 40,36 a 6.2883,6.2883 0 0 0 1.7037,4.4991 13.1042,13.1042 0 0 0 0,-8.9979 z"/><path id="path7" d="M 30.2964,40.4989 A 6.2883,6.2883 0 0 0 32,36 a 6.2884,6.2884 0 0 0 -1.7033,-4.4988 13.1034,13.1034 0 0 0 0,8.9979 z"/><line id="line7" x1="36" x2="36" y1="27" y2="45" fill="#fff" stroke="#fff" stroke-linecap="round" stroke-linejoin="round"/></g><g id="line" transform="translate(-4,-16)"><rect id="rect7" width="62" height="38" x="5" y="17" fill="none" stroke="#000" stroke-linecap="round" stroke-linejoin="round" stroke-width="2"/></g></svg>