<svg xmlns="http://www.w3.org/2000/svg" xmlns:svg="http://www.w3.org/2000/svg" id="emoji" width="64" height="40" version="1.1" viewBox="0 0 64 40"><g id="color" transform="translate(-4,-16)"><rect id="rect1" width="62" height="38" x="5" y="17" fill="#d22f27"/><polygon id="polygon1" fill="#f1b31c" points="36 36 36 34 15 17 5 17"/><polygon id="polygon2" fill="#f1b31c" points="36 36 36 38 15 55 5 55"/><polygon id="polygon3" fill="#f1b31c" points="36 36 36 34 57 17 67 17"/><polygon id="polygon4" fill="#f1b31c" points="36 36 36 38 57 55 67 55"/><polygon id="polygon5" fill="#f1b31c" points="37 36 35 36 33 55 39 55"/><polygon id="polygon6" fill="#f1b31c" points="36 35 36 37 67 39 67 33"/><polygon id="polygon7" fill="#f1b31c" points="36 35 36 37 5 39 5 33"/><polygon id="polygon8" fill="#f1b31c" points="37 36 35 36 33 17 39 17"/><circle id="circle8" cx="36" cy="36" r="7" fill="#f1b31c" stroke="#d22f27" stroke-miterlimit="10"/></g><g id="line" transform="translate(-4,-16)"><rect id="rect8" width="62" height="38" x="5" y="17" fill="none" stroke="#000" stroke-linecap="round" stroke-linejoin="round" stroke-width="2"/></g></svg>