<?xml version="1.0" encoding="UTF-8" standalone="no"?>
<svg
   id="emoji"
   viewBox="0 0 64 40"
   version="1.1"
   sodipodi:docname="1f1f1-1f1fe.svg"
   width="64"
   height="40"
   xmlns:inkscape="http://www.inkscape.org/namespaces/inkscape"
   xmlns:sodipodi="http://sodipodi.sourceforge.net/DTD/sodipodi-0.dtd"
   xmlns="http://www.w3.org/2000/svg"
   xmlns:svg="http://www.w3.org/2000/svg">
  <defs
     id="defs4" />
  <sodipodi:namedview
     id="namedview4"
     pagecolor="#ffffff"
     bordercolor="#000000"
     borderopacity="0.25"
     inkscape:showpageshadow="2"
     inkscape:pageopacity="0.0"
     inkscape:pagecheckerboard="0"
     inkscape:deskcolor="#d1d1d1" />
  <g
     id="color"
     transform="translate(-4,-16)">
    <rect
       x="5"
       y="17"
       width="62"
       height="38"
       fill="#5c9e31"
       id="rect1" />
    <rect
       x="5"
       y="17"
       width="62"
       height="13"
       fill="#d22f27"
       id="rect2" />
    <rect
       x="5"
       y="30"
       width="62"
       height="12"
       id="rect3" />
    <path
       fill="#ffffff"
       stroke="#ffffff"
       stroke-linecap="round"
       stroke-linejoin="round"
       d="m 32.1358,36.125 a 4.0528,4.0528 0 0 1 3.3783,-3.9236 4.3947,4.3947 0 0 0 -0.8108,-0.0764 4.0043,4.0043 0 1 0 0,8 4.3947,4.3947 0 0 0 0.8108,-0.0764 4.0527,4.0527 0 0 1 -3.3783,-3.9236 z"
       id="path3" />
    <polygon
       fill="#ffffff"
       stroke="#ffffff"
       stroke-linecap="round"
       stroke-linejoin="round"
       points="40.666,37.105 37.486,34.732 41.486,34.633 38.193,37.166 39.521,33.166 "
       id="polygon3" />
  </g>
  <g
     id="line"
     transform="translate(-4,-16)">
    <rect
       x="5"
       y="17"
       width="62"
       height="38"
       fill="none"
       stroke="#000000"
       stroke-linecap="round"
       stroke-linejoin="round"
       stroke-width="2"
       id="rect4" />
  </g>
</svg>
