<?xml version="1.0" encoding="UTF-8" standalone="no"?>
<svg
   id="emoji"
   viewBox="0 0 58 58"
   version="1.1"
   sodipodi:docname="1f1fa.svg"
   width="58"
   height="58"
   xmlns:inkscape="http://www.inkscape.org/namespaces/inkscape"
   xmlns:sodipodi="http://sodipodi.sourceforge.net/DTD/sodipodi-0.dtd"
   xmlns="http://www.w3.org/2000/svg"
   xmlns:svg="http://www.w3.org/2000/svg">
  <defs
     id="defs2" />
  <sodipodi:namedview
     id="namedview2"
     pagecolor="#ffffff"
     bordercolor="#000000"
     borderopacity="0.25"
     inkscape:showpageshadow="2"
     inkscape:pageopacity="0.0"
     inkscape:pagecheckerboard="0"
     inkscape:deskcolor="#d1d1d1" />
  <g
     id="color"
     transform="translate(-7,-7)">
    <circle
       cx="36"
       cy="36"
       r="27.5"
       fill="#ffffff"
       id="circle1" />
    <path
       d="m 46,21 c -0.5527,0 -1,0.4478 -1,1 v 18 c 0,4.9624 -4.0371,9 -9,9 -4.9629,0 -9,-4.0376 -9,-9 V 22 c 0,-0.5522 -0.4473,-1 -1,-1 -0.5527,0 -1,0.4478 -1,1 v 18 c 0,6.0654 4.9346,11 11,11 6.0654,0 11,-4.9346 11,-11 V 22 c 0,-0.5522 -0.4473,-1 -1,-1 z"
       id="path1" />
  </g>
  <g
     id="line"
     transform="translate(-7,-7)">
    <g
       id="line-2">
      <circle
         cx="36"
         cy="36"
         r="28"
         fill="none"
         stroke="#000000"
         stroke-linejoin="round"
         stroke-width="2"
         id="circle2" />
    </g>
    <path
       fill="none"
       stroke="#000000"
       stroke-linejoin="round"
       stroke-width="2"
       d="m 46,21 c -0.5527,0 -1,0.4478 -1,1 v 18 c 0,4.9624 -4.0371,9 -9,9 -4.9629,0 -9,-4.0376 -9,-9 V 22 c 0,-0.5522 -0.4473,-1 -1,-1 -0.5527,0 -1,0.4478 -1,1 v 18 c 0,6.0654 4.9346,11 11,11 6.0654,0 11,-4.9346 11,-11 V 22 c 0,-0.5522 -0.4473,-1 -1,-1 z"
       id="path2" />
  </g>
</svg>
