<svg xmlns="http://www.w3.org/2000/svg" xmlns:svg="http://www.w3.org/2000/svg" id="emoji" width="64" height="40" version="1.1" viewBox="0 0 64 40"><g id="color" transform="translate(-4,-16)"><rect id="rect1" width="62" height="38" x="5.227" y="17" fill="#1e50a0"/><rect id="rect2" width="21" height="38" x="5.227" y="17" fill="#d22f27"/><rect id="rect3" width="21" height="38" x="46.227" y="17" fill="#d22f27"/><circle id="circle3" cx="16" cy="29" r="1" fill="#fcea2b" stroke="#fcea2b" stroke-linecap="round" stroke-linejoin="round" stroke-width="2"/><circle id="circle4" cx="16" cy="41" r="1" fill="#fcea2b" stroke="#fcea2b" stroke-linecap="round" stroke-linejoin="round" stroke-width="2"/><path id="path4" fill="#fcea2b" stroke="#fcea2b" stroke-linecap="round" stroke-linejoin="round" stroke-width="2" d="m 17,24 a 1,1 0 0 1 -2,0 l 1,-1 z"/><polygon id="polygon4" fill="#fcea2b" stroke="#fcea2b" stroke-linecap="round" stroke-linejoin="round" stroke-width="2" points="16 34 15 33 17 33"/><polygon id="polygon5" fill="#fcea2b" stroke="#fcea2b" stroke-linecap="round" stroke-linejoin="round" stroke-width="2" points="16 49 15 48 17 48"/><line id="line5" x1="15" x2="17" y1="37" y2="37" fill="#fcea2b" stroke="#fcea2b" stroke-linecap="round" stroke-linejoin="round" stroke-width="2"/><line id="line6" x1="15" x2="17" y1="45" y2="45" fill="#fcea2b" stroke="#fcea2b" stroke-linecap="round" stroke-linejoin="round" stroke-width="2"/><rect id="rect6" width="1" height="16" x="11" y="33" fill="#fcea2b" stroke="#fcea2b" stroke-linecap="round" stroke-linejoin="round" stroke-width="2"/><rect id="rect7" width="1" height="16" x="20" y="33" fill="#fcea2b" stroke="#fcea2b" stroke-linecap="round" stroke-linejoin="round" stroke-width="2"/></g><g id="line" transform="translate(-4,-16)"><rect id="rect8" width="62" height="38" x="5" y="17" fill="none" stroke="#000" stroke-linecap="round" stroke-linejoin="round" stroke-width="2"/></g></svg>