<svg xmlns="http://www.w3.org/2000/svg" xmlns:svg="http://www.w3.org/2000/svg" id="emoji" width="64" height="40" version="1.1" viewBox="0 0 64 40"><g id="color" transform="translate(-4,-16)"><rect id="rect1" width="62" height="38" x="5" y="17" fill="#1e50a0"/><g id="g8"><polygon id="polygon1" fill="#fff" points="6 20.332 32.113 36 36 36 36 33.668 9.887 18 6 18"/><polygon id="polygon2" fill="#fff" points="32.113 18 6 33.668 6 36 9.887 36 36 20.332 36 18"/><rect id="rect2" width="30" height="6" x="6" y="24" fill="#fff"/><rect id="rect3" width="6" height="18" x="18" y="18" fill="#fff"/><rect id="rect4" width="2" height="18" x="20" y="18" fill="#d22f27"/><rect id="rect5" width="30" height="2" x="6" y="26" fill="#d22f27"/><polygon id="polygon5" fill="#d22f27" points="26 30 36 36 36 33.668 29.887 30"/><polygon id="polygon6" fill="#d22f27" points="24 22.868 24 24 26 24 36 18 32.113 18"/><polygon id="polygon7" fill="#d22f27" points="16 24 6 18 6 20.332 12.113 24"/><polygon id="polygon8" fill="#d22f27" points="18 31.132 18 30 16 30 6 36 9.887 36"/></g><line id="line8" x1="48" x2="53" y1="30" y2="25" fill="#9b9b9a" stroke="#9b9b9a" stroke-linecap="round" stroke-linejoin="round" stroke-width="2"/><path id="path8" fill="none" stroke="#fcea2b" stroke-linecap="round" stroke-linejoin="round" stroke-width="2" d="m 58,29 c 3.0744,4.7618 -0.8014,9.1557 -4,10"/><path id="path9" fill="none" stroke="#fcea2b" stroke-linecap="round" stroke-linejoin="round" stroke-width="2" d="m 55.8318,39.9548 c 2,2 2.9548,6.2551 0.1682,10.0452"/><path id="path10" fill="none" stroke="#5c9e31" stroke-linecap="round" stroke-linejoin="round" stroke-width="2" d="m 53,38.5 q 6,0 9,3"/><path id="path11" fill="none" stroke="#fcea2b" stroke-linecap="round" stroke-linejoin="round" stroke-width="2" d="m 44,29 c -3.0744,4.7618 0.8014,9.1557 4,10"/><path id="path12" fill="none" stroke="#fcea2b" stroke-linecap="round" stroke-linejoin="round" stroke-width="2" d="m 46.1682,39.9548 c -2,2 -2.9548,6.2551 -0.1682,10.0452"/><path id="path13" fill="none" stroke="#5c9e31" stroke-linecap="round" stroke-linejoin="round" stroke-width="2" d="m 49,38.5 q -6,0 -9,3"/><polyline id="polyline13" fill="#9b9b9a" stroke="#9b9b9a" stroke-linecap="round" stroke-linejoin="round" stroke-width="2" points="50 36 50 28 51 27 54 36"/><path id="path14" fill="#61b2e4" stroke="#61b2e4" stroke-linecap="round" stroke-linejoin="round" stroke-width="2" d="m 55,35 v 3.625 C 55,44.25 53.6667,46.75 51,48 48.3333,46.75 47,44.25 47,38.625 V 35 Z"/></g><g id="line" transform="translate(-4,-16)"><rect id="rect14" width="62" height="38" x="5" y="17" fill="none" stroke="#000" stroke-linecap="round" stroke-linejoin="round" stroke-width="2"/></g></svg>