<?xml version="1.0" encoding="UTF-8" standalone="no"?>
<svg
   id="emoji"
   viewBox="0 0 64 40"
   version="1.1"
   sodipodi:docname="1f1f8-1f1f2.svg"
   width="64"
   height="40"
   xmlns:inkscape="http://www.inkscape.org/namespaces/inkscape"
   xmlns:sodipodi="http://sodipodi.sourceforge.net/DTD/sodipodi-0.dtd"
   xmlns="http://www.w3.org/2000/svg"
   xmlns:svg="http://www.w3.org/2000/svg">
  <defs
     id="defs8" />
  <sodipodi:namedview
     id="namedview8"
     pagecolor="#ffffff"
     bordercolor="#000000"
     borderopacity="0.25"
     inkscape:showpageshadow="2"
     inkscape:pageopacity="0.0"
     inkscape:pagecheckerboard="0"
     inkscape:deskcolor="#d1d1d1" />
  <g
     id="color"
     transform="translate(-4,-16)">
    <rect
       x="5"
       y="17"
       width="62"
       height="38"
       fill="#ffffff"
       id="rect1" />
    <rect
       x="5"
       y="36"
       width="62"
       height="19"
       fill="#61b2e4"
       id="rect2" />
    <path
       fill="#61b2e4"
       d="m 41,31 a 7.191,7.191 0 0 1 2,5 10.0442,10.0442 0 0 1 -7,10 10.0442,10.0442 0 0 1 -7,-10 7.191,7.191 0 0 1 2,-5"
       id="path2" />
    <path
       fill="#61b2e4"
       d="m 41,31 a 7.191,7.191 0 0 1 2,5 10.0442,10.0442 0 0 1 -7,10 10.0442,10.0442 0 0 1 -7,-10 7.191,7.191 0 0 1 2,-5"
       id="path3" />
    <line
       x1="36"
       x2="36"
       y1="22"
       y2="30"
       fill="#fcea2b"
       stroke="#f1b31c"
       stroke-linecap="round"
       stroke-linejoin="round"
       stroke-width="2"
       id="line3" />
    <path
       fill="none"
       stroke="#f1b31c"
       stroke-linecap="round"
       stroke-linejoin="round"
       stroke-width="2"
       d="m 36,28 a 3,3 0 0 1 3,-3 c 1.6569,0 4.1391,1.4725 2,6 H 31 c -2.1391,-4.5275 0.3431,-6 2,-6 a 3,3 0 0 1 3,3"
       id="path4" />
    <line
       x1="36"
       x2="36"
       y1="35"
       y2="41"
       fill="none"
       stroke="#6a462f"
       stroke-linecap="round"
       stroke-linejoin="round"
       stroke-width="2"
       id="line4" />
    <path
       fill="#5c9e31"
       d="M 29.6694,40 A 10.0342,10.0342 0 0 0 36,46 10.0342,10.0342 0 0 0 42.3306,40 Z"
       id="path5" />
    <path
       fill="none"
       stroke="#f1b31c"
       stroke-linecap="round"
       stroke-linejoin="round"
       stroke-width="2"
       d="m 41,31 a 7.191,7.191 0 0 1 2,5 10.0442,10.0442 0 0 1 -7,10 10.0442,10.0442 0 0 1 -7,-10 7.191,7.191 0 0 1 2,-5"
       id="path6" />
    <path
       fill="none"
       stroke="#186648"
       stroke-linecap="round"
       stroke-linejoin="round"
       stroke-width="2"
       d="m 41,47 c 3.3484,-1.7381 6,-6.2282 6,-11 a 12.9874,12.9874 0 0 0 -1.066,-5"
       id="path7" />
    <path
       fill="none"
       stroke="#186648"
       stroke-linecap="round"
       stroke-linejoin="round"
       stroke-width="2"
       d="M 31,47 C 27.6516,45.2619 25,40.7718 25,36 a 12.9874,12.9874 0 0 1 1.066,-5"
       id="path8" />
    <polyline
       fill="none"
       stroke="#ffffff"
       stroke-linecap="round"
       stroke-linejoin="round"
       stroke-width="2"
       points="43 49 41 47 31 47 29 49"
       id="polyline8" />
  </g>
  <g
     id="line"
     transform="translate(-4,-16)">
    <rect
       x="5"
       y="17"
       width="62"
       height="38"
       fill="none"
       stroke="#000000"
       stroke-linecap="round"
       stroke-linejoin="round"
       stroke-width="2"
       id="rect8" />
  </g>
</svg>
