<svg xmlns="http://www.w3.org/2000/svg" xmlns:svg="http://www.w3.org/2000/svg" id="emoji" width="64" height="40" version="1.1" viewBox="0 0 64 40"><g id="color" transform="translate(-4,-16)"><rect id="rect1" width="62" height="38" x="5" y="17" fill="#d22f27"/><rect id="rect2" width="62" height="13" x="5" y="17" fill="#fff"/><rect id="rect3" width="62" height="12" x="5" y="30" fill="#1e50a0"/><path id="path3" fill="#1e50a0" stroke="#000" stroke-linecap="round" stroke-linejoin="round" d="m 22.5833,22 v 9 c 0,6.75 -6.75,9 -6.75,9 0,0 -6.75,-2.25 -6.75,-9 v -9 c 0,0 6.8959,-3.4063 13.5,0 z"/><path id="path4" fill="#fff" stroke="#fff" stroke-miterlimit="10" d="m 11.9626,33.3515 7.9755,0.3394 A 6.8155,6.8155 0 0 1 16,38 c -3,1 -4.0374,-4.6485 -4.0374,-4.6485"/><polyline id="polyline4" fill="#fff" stroke="#fff" stroke-miterlimit="10" points="14.5 33.5 15.5 31.5 17.765 34.084 14.5 33.5"/><circle id="circle4" cx="13" cy="24" r="1" fill="#fcea2b"/><path id="path5" fill="none" stroke="#fff" stroke-linecap="round" stroke-linejoin="round" stroke-width="2" d="m 21,35 -1,-3 -2,3 -2,-5 -2,5 -2,-3 -1,3 c 0,0 4,9 10,0 z"/><circle id="circle5" cx="16" cy="26" r="1" fill="#fcea2b"/><circle id="circle6" cx="19" cy="24" r="1" fill="#fcea2b"/><path id="path6" fill="none" stroke="#d22f27" stroke-linecap="round" stroke-linejoin="round" d="m 22.5833,22 v 9 c 0,6.75 -6.75,9 -6.75,9 0,0 -6.75,-2.25 -6.75,-9 v -9 c 0,0 6.8959,-3.4063 13.5,0 z"/></g><g id="line" transform="translate(-4,-16)"><rect id="rect6" width="62" height="38" x="5" y="17" fill="none" stroke="#000" stroke-linecap="round" stroke-linejoin="round" stroke-width="2"/></g></svg>