<?xml version="1.0" encoding="UTF-8" standalone="no"?>
<svg
   id="emoji"
   viewBox="0 0 64 40"
   version="1.1"
   sodipodi:docname="1f1f8-1f1fd.svg"
   width="64"
   height="40"
   xmlns:inkscape="http://www.inkscape.org/namespaces/inkscape"
   xmlns:sodipodi="http://sodipodi.sourceforge.net/DTD/sodipodi-0.dtd"
   xmlns="http://www.w3.org/2000/svg"
   xmlns:svg="http://www.w3.org/2000/svg">
  <defs
     id="defs4" />
  <sodipodi:namedview
     id="namedview4"
     pagecolor="#ffffff"
     bordercolor="#000000"
     borderopacity="0.25"
     inkscape:showpageshadow="2"
     inkscape:pageopacity="0.0"
     inkscape:pagecheckerboard="0"
     inkscape:deskcolor="#d1d1d1" />
  <g
     id="color"
     transform="translate(-4,-16)">
    <rect
       x="5"
       y="17"
       width="62"
       height="38"
       fill="#d22f27"
       id="rect1" />
    <rect
       x="5"
       y="36"
       width="62"
       height="19"
       fill="#1e50a0"
       id="rect2" />
    <polygon
       fill="#ffffff"
       points="5,17 26,36 5,55 "
       id="polygon2" />
    <circle
       cx="13"
       cy="31"
       r="2.5"
       fill="#fcea2b"
       stroke="#fcea2b"
       stroke-linecap="round"
       stroke-linejoin="round"
       id="circle2" />
    <path
       fill="#92d3f5"
       stroke="#d22f27"
       stroke-linecap="round"
       stroke-linejoin="round"
       d="m 18,31.7758 v 4.6121 C 18,39.847 13.0417,41 13.0417,41 c 0,0 -4.9584,-1.153 -4.9584,-4.6121 v -4.6121 a 16.6778,16.6778 0 0 1 9.9167,0 z"
       id="path2" />
    <path
       fill="none"
       stroke="#fcea2b"
       stroke-linecap="round"
       stroke-linejoin="round"
       d="m 19,39 c 0,1.933 -2.6863,3.5 -6,3.5 -3.3137,0 -6,-1.567 -6,-3.5"
       id="path3" />
    <rect
       x="11"
       y="34"
       width="4"
       height="3"
       fill="#ffffff"
       stroke="#ffffff"
       stroke-linecap="round"
       stroke-linejoin="round"
       stroke-width="2"
       id="rect3" />
  </g>
  <g
     id="line"
     transform="translate(-4,-16)">
    <rect
       x="5"
       y="17"
       width="62"
       height="38"
       fill="none"
       stroke="#000000"
       stroke-linecap="round"
       stroke-linejoin="round"
       stroke-width="2"
       id="rect4" />
  </g>
</svg>
