<?xml version="1.0" encoding="UTF-8" standalone="no"?>
<svg
   id="emoji"
   viewBox="0 0 64 40"
   version="1.1"
   sodipodi:docname="1f1f2-1f1ea.svg"
   width="64"
   height="40"
   xmlns:inkscape="http://www.inkscape.org/namespaces/inkscape"
   xmlns:sodipodi="http://sodipodi.sourceforge.net/DTD/sodipodi-0.dtd"
   xmlns="http://www.w3.org/2000/svg"
   xmlns:svg="http://www.w3.org/2000/svg">
  <defs
     id="defs6" />
  <sodipodi:namedview
     id="namedview6"
     pagecolor="#ffffff"
     bordercolor="#000000"
     borderopacity="0.25"
     inkscape:showpageshadow="2"
     inkscape:pageopacity="0.0"
     inkscape:pagecheckerboard="0"
     inkscape:deskcolor="#d1d1d1" />
  <g
     id="color"
     transform="translate(-4,-16)">
    <rect
       x="5"
       y="17"
       width="62"
       height="38"
       fill="#d22f27"
       id="rect1" />
    <path
       fill="#f1b31c"
       stroke="#f1b31c"
       stroke-linecap="round"
       stroke-linejoin="round"
       stroke-width="2"
       d="m 39,35 c 1.501,0 3.5084,-3.5564 1.9248,-7.3049 A 8,8 0 0 1 36,42"
       id="path1" />
    <line
       x1="36"
       x2="42"
       y1="42"
       y2="44"
       fill="#f1b31c"
       stroke="#f1b31c"
       stroke-linecap="round"
       stroke-linejoin="round"
       stroke-width="2"
       id="line1" />
    <path
       fill="#f1b31c"
       stroke="#f1b31c"
       stroke-linecap="round"
       stroke-linejoin="round"
       stroke-width="2"
       d="m 33,35 c -1.501,0 -3.5084,-3.5564 -1.9248,-7.3049 A 8,8 0 0 0 36,42"
       id="path2" />
    <line
       x1="36"
       x2="30"
       y1="42"
       y2="44"
       fill="#f1b31c"
       stroke="#f1b31c"
       stroke-linecap="round"
       stroke-linejoin="round"
       stroke-width="2"
       id="line2" />
    <polygon
       fill="#f1b31c"
       stroke="#f1b31c"
       stroke-linecap="round"
       stroke-linejoin="round"
       stroke-width="2"
       points="36,46 38,45.5 36,43 34,45.5 "
       id="polygon2" />
    <path
       fill="none"
       stroke="#f1b31c"
       stroke-linecap="round"
       stroke-linejoin="round"
       stroke-width="2"
       d="m 38,31 c -2,0 -2,2.4424 -1,4"
       id="path3" />
    <path
       fill="none"
       stroke="#f1b31c"
       stroke-linecap="round"
       stroke-linejoin="round"
       stroke-width="2"
       d="m 34,31 c 2,0 2,2.4424 1,4"
       id="path4" />
    <path
       fill="#5c9e31"
       stroke="#5c9e31"
       stroke-linecap="round"
       stroke-linejoin="round"
       stroke-width="2"
       d="m 38,38 c 0,1.2 -0.6509,1.6174 -2,2 -1.3491,-0.3826 -2,-0.8 -2,-2"
       id="path5" />
    <rect
       x="33"
       y="34"
       width="6"
       height="4"
       fill="#1e50a0"
       id="rect5" />
    <line
       x1="35"
       x2="37"
       y1="28"
       y2="28"
       fill="none"
       stroke="#f1b31c"
       stroke-linecap="round"
       stroke-linejoin="round"
       stroke-width="2"
       id="line5" />
  </g>
  <g
     id="line"
     transform="translate(-4,-16)">
    <rect
       x="5"
       y="17"
       width="62"
       height="38"
       fill="none"
       stroke="#000000"
       stroke-linecap="round"
       stroke-linejoin="round"
       stroke-width="2"
       id="rect6" />
  </g>
</svg>
