<?xml version="1.0" encoding="UTF-8" standalone="no"?>
<svg
   id="emoji"
   viewBox="0 0 64 40"
   version="1.1"
   sodipodi:docname="1f1fc-1f1f8.svg"
   width="64"
   height="40"
   xmlns:inkscape="http://www.inkscape.org/namespaces/inkscape"
   xmlns:sodipodi="http://sodipodi.sourceforge.net/DTD/sodipodi-0.dtd"
   xmlns="http://www.w3.org/2000/svg"
   xmlns:svg="http://www.w3.org/2000/svg">
  <defs
     id="defs5" />
  <sodipodi:namedview
     id="namedview5"
     pagecolor="#ffffff"
     bordercolor="#000000"
     borderopacity="0.25"
     inkscape:showpageshadow="2"
     inkscape:pageopacity="0.0"
     inkscape:pagecheckerboard="0"
     inkscape:deskcolor="#d1d1d1" />
  <g
     id="color"
     transform="translate(-4,-16)">
    <rect
       x="5"
       y="17"
       width="62"
       height="38"
       fill="#d22f27"
       id="rect1" />
    <rect
       x="5"
       y="17"
       width="32"
       height="21"
       fill="#1e50a0"
       id="rect2" />
    <polygon
       fill="#ffffff"
       stroke="#ffffff"
       stroke-linecap="round"
       stroke-linejoin="round"
       points="22.553,24.087 19.315,21.618 23.315,21.615 20.081,24.089 21.313,20.089 "
       id="polygon2" />
    <polygon
       fill="#ffffff"
       stroke="#ffffff"
       stroke-linecap="round"
       stroke-linejoin="round"
       points="22.553,35.969 19.315,33.5 23.315,33.497 20.081,35.971 21.313,31.971 "
       id="polygon3" />
    <polygon
       fill="#ffffff"
       stroke="#ffffff"
       stroke-linecap="round"
       stroke-linejoin="round"
       points="29.053,27.469 25.815,25 29.815,24.997 26.581,27.471 27.813,23.471 "
       id="polygon4" />
    <polygon
       fill="#ffffff"
       stroke="#ffffff"
       stroke-linecap="round"
       stroke-linejoin="round"
       points="16.053,27.469 12.815,25 16.815,24.997 13.581,27.471 14.813,23.471 "
       id="polygon5" />
    <circle
       cx="24.75"
       cy="30"
       r="0.5"
       fill="#ffffff"
       id="circle5" />
  </g>
  <g
     id="line"
     transform="translate(-4,-16)">
    <rect
       x="5"
       y="17"
       width="62"
       height="38"
       fill="none"
       stroke="#000000"
       stroke-linecap="round"
       stroke-linejoin="round"
       stroke-width="2"
       id="rect5" />
  </g>
</svg>
