<svg xmlns="http://www.w3.org/2000/svg" xmlns:svg="http://www.w3.org/2000/svg" id="emoji" width="64" height="40" version="1.1" viewBox="0 0 64 40"><g id="color" transform="translate(-4,-16)"><rect id="rect1" width="62" height="38" x="5" y="17" fill="#186648"/><rect id="rect2" width="21" height="38" x="5" y="17" fill="#fff"/><path id="path2" fill="#fff" stroke="#fff" stroke-linecap="round" stroke-linejoin="round" d="M 50,44 A 11.9921,11.9921 0 0 1 40.1526,25.1526 11.9953,11.9953 0 1 0 56.8474,41.8474 11.9362,11.9362 0 0 1 50,44 Z"/><polygon id="polygon2" fill="#fff" stroke="#fff" stroke-linecap="round" stroke-linejoin="round" points="52.621 28.374 51.273 26.52 51.273 28.812 49.094 29.52 51.273 30.228 51.273 32.52 52.621 30.666 54.8 31.374 53.453 29.52 54.8 27.666"/></g><g id="line" transform="translate(-4,-16)"><rect id="rect3" width="62" height="38" x="5" y="17" fill="none" stroke="#000" stroke-linecap="round" stroke-linejoin="round" stroke-width="2"/></g></svg>