<?xml version="1.0" encoding="UTF-8" standalone="no"?>
<svg
   id="emoji"
   viewBox="0 0 64 40"
   version="1.1"
   sodipodi:docname="1f1f8-1f1ee.svg"
   width="64"
   height="40"
   xmlns:inkscape="http://www.inkscape.org/namespaces/inkscape"
   xmlns:sodipodi="http://sodipodi.sourceforge.net/DTD/sodipodi-0.dtd"
   xmlns="http://www.w3.org/2000/svg"
   xmlns:svg="http://www.w3.org/2000/svg">
  <defs
     id="defs6" />
  <sodipodi:namedview
     id="namedview6"
     pagecolor="#ffffff"
     bordercolor="#000000"
     borderopacity="0.25"
     inkscape:showpageshadow="2"
     inkscape:pageopacity="0.0"
     inkscape:pagecheckerboard="0"
     inkscape:deskcolor="#d1d1d1" />
  <g
     id="color"
     transform="translate(-4,-16)">
    <rect
       x="5"
       y="17"
       width="62"
       height="38"
       fill="#d22f27"
       id="rect1" />
    <rect
       x="5"
       y="17"
       width="62"
       height="13"
       fill="#ffffff"
       id="rect2" />
    <rect
       x="5"
       y="30"
       width="62"
       height="12"
       fill="#1e50a0"
       id="rect3" />
    <path
       fill="#1e50a0"
       stroke="#000000"
       stroke-linecap="round"
       stroke-linejoin="round"
       d="m 22.5833,22 v 9 c 0,6.75 -6.75,9 -6.75,9 0,0 -6.75,-2.25 -6.75,-9 v -9 c 0,0 6.8959,-3.4063 13.5,0 z"
       id="path3" />
    <path
       fill="#ffffff"
       stroke="#ffffff"
       stroke-miterlimit="10"
       d="m 11.9626,33.3515 7.9755,0.3394 A 6.8155,6.8155 0 0 1 16,38 c -3,1 -4.0374,-4.6485 -4.0374,-4.6485"
       id="path4" />
    <polyline
       fill="#ffffff"
       stroke="#ffffff"
       stroke-miterlimit="10"
       points="14.5 33.5 15.5 31.5 17.765 34.084 14.5 33.5"
       id="polyline4" />
    <circle
       cx="13"
       cy="24"
       r="1"
       fill="#fcea2b"
       id="circle4" />
    <path
       fill="none"
       stroke="#ffffff"
       stroke-linecap="round"
       stroke-linejoin="round"
       stroke-width="2"
       d="m 21,35 -1,-3 -2,3 -2,-5 -2,5 -2,-3 -1,3 c 0,0 4,9 10,0 z"
       id="path5" />
    <circle
       cx="16"
       cy="26"
       r="1"
       fill="#fcea2b"
       id="circle5" />
    <circle
       cx="19"
       cy="24"
       r="1"
       fill="#fcea2b"
       id="circle6" />
    <path
       fill="none"
       stroke="#d22f27"
       stroke-linecap="round"
       stroke-linejoin="round"
       d="m 22.5833,22 v 9 c 0,6.75 -6.75,9 -6.75,9 0,0 -6.75,-2.25 -6.75,-9 v -9 c 0,0 6.8959,-3.4063 13.5,0 z"
       id="path6" />
  </g>
  <g
     id="line"
     transform="translate(-4,-16)">
    <rect
       x="5"
       y="17"
       width="62"
       height="38"
       fill="none"
       stroke="#000000"
       stroke-linecap="round"
       stroke-linejoin="round"
       stroke-width="2"
       id="rect6" />
  </g>
</svg>
