<?xml version="1.0" encoding="UTF-8" standalone="no"?>
<svg
   id="emoji"
   viewBox="0 0 64 40"
   version="1.1"
   sodipodi:docname="1f1f9-1f1f1.svg"
   width="64"
   height="40"
   xmlns:inkscape="http://www.inkscape.org/namespaces/inkscape"
   xmlns:sodipodi="http://sodipodi.sourceforge.net/DTD/sodipodi-0.dtd"
   xmlns="http://www.w3.org/2000/svg"
   xmlns:svg="http://www.w3.org/2000/svg">
  <defs
     id="defs3" />
  <sodipodi:namedview
     id="namedview3"
     pagecolor="#ffffff"
     bordercolor="#000000"
     borderopacity="0.25"
     inkscape:showpageshadow="2"
     inkscape:pageopacity="0.0"
     inkscape:pagecheckerboard="0"
     inkscape:deskcolor="#d1d1d1" />
  <g
     id="color"
     transform="translate(-4,-16)">
    <path
       fill="#d22f27"
       d="M 5.4907,17 H 67 V 55 H 5 V 17.4906 c 0,-0.271 0.2197,-0.4907 0.4907,-0.4907 z"
       id="path1" />
    <path
       fill="#f1b31c"
       d="M 38,36 6.6524,54.0486 C 5.9175,54.4717 5,53.9413 5,53.0933 V 18.8964 c 0,-0.8434 0.9125,-1.371 1.6435,-0.9502 z"
       id="path2" />
    <path
       d="M 26,36 6.0728,54.0293 C 5.66,54.4028 5,54.1099 5,53.5532 V 18.6171 c 0,-0.6222 0.7377,-0.9496 1.1991,-0.5322 z"
       id="path3" />
    <polygon
       fill="#ffffff"
       stroke="#ffffff"
       stroke-linecap="round"
       stroke-linejoin="round"
       points="15.76,37.16 12.23,33.63 12.9,38.67 15.35,34.05 10.72,36.49 "
       id="polygon3" />
  </g>
  <g
     id="line"
     transform="translate(-4,-16)">
    <rect
       x="5"
       y="17"
       width="62"
       height="38"
       fill="none"
       stroke="#000000"
       stroke-linecap="round"
       stroke-linejoin="round"
       stroke-width="2"
       id="rect3" />
  </g>
</svg>
