<?xml version="1.0" encoding="UTF-8" standalone="no"?>
<svg
   id="emoji"
   viewBox="0 0 64 40"
   version="1.1"
   sodipodi:docname="1f1f5-1f1f3.svg"
   width="64"
   height="40"
   xmlns:inkscape="http://www.inkscape.org/namespaces/inkscape"
   xmlns:sodipodi="http://sodipodi.sourceforge.net/DTD/sodipodi-0.dtd"
   xmlns="http://www.w3.org/2000/svg"
   xmlns:svg="http://www.w3.org/2000/svg">
  <defs
     id="defs14" />
  <sodipodi:namedview
     id="namedview14"
     pagecolor="#ffffff"
     bordercolor="#000000"
     borderopacity="0.25"
     inkscape:showpageshadow="2"
     inkscape:pageopacity="0.0"
     inkscape:pagecheckerboard="0"
     inkscape:deskcolor="#d1d1d1" />
  <g
     id="color"
     transform="translate(-4,-16)">
    <rect
       x="5"
       y="17"
       width="62"
       height="38"
       fill="#1e50a0"
       id="rect1" />
    <g
       id="g8">
      <polygon
         fill="#ffffff"
         points="6,20.332 32.113,36 36,36 36,33.668 9.887,18 6,18 "
         id="polygon1" />
      <polygon
         fill="#ffffff"
         points="32.113,18 6,33.668 6,36 9.887,36 36,20.332 36,18 "
         id="polygon2" />
      <rect
         x="6"
         y="24"
         width="30"
         height="6"
         fill="#ffffff"
         id="rect2" />
      <rect
         x="18"
         y="18"
         width="6"
         height="18"
         fill="#ffffff"
         id="rect3" />
      <rect
         x="20"
         y="18"
         width="2"
         height="18"
         fill="#d22f27"
         id="rect4" />
      <rect
         x="6"
         y="26"
         width="30"
         height="2"
         fill="#d22f27"
         id="rect5" />
      <polygon
         fill="#d22f27"
         points="26,30 36,36 36,33.668 29.887,30 "
         id="polygon5" />
      <polygon
         fill="#d22f27"
         points="24,22.868 24,24 26,24 36,18 32.113,18 "
         id="polygon6" />
      <polygon
         fill="#d22f27"
         points="16,24 6,18 6,20.332 12.113,24 "
         id="polygon7" />
      <polygon
         fill="#d22f27"
         points="18,31.132 18,30 16,30 6,36 9.887,36 "
         id="polygon8" />
    </g>
    <line
       x1="48"
       x2="53"
       y1="30"
       y2="25"
       fill="#9b9b9a"
       stroke="#9b9b9a"
       stroke-linecap="round"
       stroke-linejoin="round"
       stroke-width="2"
       id="line8" />
    <path
       fill="none"
       stroke="#fcea2b"
       stroke-linecap="round"
       stroke-linejoin="round"
       stroke-width="2"
       d="m 58,29 c 3.0744,4.7618 -0.8014,9.1557 -4,10"
       id="path8" />
    <path
       fill="none"
       stroke="#fcea2b"
       stroke-linecap="round"
       stroke-linejoin="round"
       stroke-width="2"
       d="m 55.8318,39.9548 c 2,2 2.9548,6.2551 0.1682,10.0452"
       id="path9" />
    <path
       fill="none"
       stroke="#5c9e31"
       stroke-linecap="round"
       stroke-linejoin="round"
       stroke-width="2"
       d="m 53,38.5 q 6,0 9,3"
       id="path10" />
    <path
       fill="none"
       stroke="#fcea2b"
       stroke-linecap="round"
       stroke-linejoin="round"
       stroke-width="2"
       d="m 44,29 c -3.0744,4.7618 0.8014,9.1557 4,10"
       id="path11" />
    <path
       fill="none"
       stroke="#fcea2b"
       stroke-linecap="round"
       stroke-linejoin="round"
       stroke-width="2"
       d="m 46.1682,39.9548 c -2,2 -2.9548,6.2551 -0.1682,10.0452"
       id="path12" />
    <path
       fill="none"
       stroke="#5c9e31"
       stroke-linecap="round"
       stroke-linejoin="round"
       stroke-width="2"
       d="m 49,38.5 q -6,0 -9,3"
       id="path13" />
    <polyline
       fill="#9b9b9a"
       stroke="#9b9b9a"
       stroke-linecap="round"
       stroke-linejoin="round"
       stroke-width="2"
       points="50 36 50 28 51 27 54 36"
       id="polyline13" />
    <path
       fill="#61b2e4"
       stroke="#61b2e4"
       stroke-linecap="round"
       stroke-linejoin="round"
       stroke-width="2"
       d="m 55,35 v 3.625 C 55,44.25 53.6667,46.75 51,48 48.3333,46.75 47,44.25 47,38.625 V 35 Z"
       id="path14" />
  </g>
  <g
     id="line"
     transform="translate(-4,-16)">
    <rect
       x="5"
       y="17"
       width="62"
       height="38"
       fill="none"
       stroke="#000000"
       stroke-linecap="round"
       stroke-linejoin="round"
       stroke-width="2"
       id="rect14" />
  </g>
</svg>
