<svg xmlns="http://www.w3.org/2000/svg" xmlns:svg="http://www.w3.org/2000/svg" id="emoji" width="64" height="40" version="1.1" viewBox="0 0 64 40"><g id="color" transform="translate(-4,-16)"><rect id="rect1" width="62" height="38" x="5" y="17" fill="#fff"/><g id="g3"><circle id="circle1" cx="36" cy="36" r="9" fill="#d22f27"/><g id="g2"><path id="path1" fill="#1e50a0" d="M 28.1267,31.6756 A 4.4922,4.4922 0 0 0 36,36 c 0.023,-0.04 0.0338,-0.0828 0.0554,-0.123 l 0.0232,0.0138 a 4.4932,4.4932 0 0 1 7.7243,4.59 l 0.003,0.0018 A 8.9918,8.9918 0 0 1 28.1267,31.6755 Z"/><path id="path2" fill="#1e50a0" d="m 28.3313,31.2869 0.02,0.0115 c -0.03,0.046 -0.0668,0.085 -0.0954,0.1325 0.0271,-0.0465 0.047,-0.0981 0.0754,-0.144 z"/></g></g><g id="g21"><g id="g6"><line id="line3" x1="24.232" x2="27.232" y1="41.902" y2="47.098" fill="none" stroke="#000" stroke-linecap="round" stroke-linejoin="round"/><line id="line4" x1="20.768" x2="23.768" y1="43.902" y2="49.098" fill="none" stroke="#000" stroke-linecap="round" stroke-linejoin="round"/><line id="line5" x1="22.5" x2="23.5" y1="42.902" y2="44.634" fill="none" stroke="#000" stroke-linecap="round" stroke-linejoin="round"/><line id="line6" x1="24.5" x2="25.5" y1="46.366" y2="48.098" fill="none" stroke="#000" stroke-linecap="round" stroke-linejoin="round"/></g><g id="g12"><line id="line7" x1="45.5" x2="46.5" y1="48.098" y2="46.366" fill="none" stroke="#000" stroke-linecap="round" stroke-linejoin="round"/><line id="line8" x1="47.5" x2="48.5" y1="44.634" y2="42.902" fill="none" stroke="#000" stroke-linecap="round" stroke-linejoin="round"/><line id="line9" x1="47.232" x2="48.232" y1="49.098" y2="47.366" fill="none" stroke="#000" stroke-linecap="round" stroke-linejoin="round"/><line id="line10" x1="49.232" x2="50.232" y1="45.634" y2="43.902" fill="none" stroke="#000" stroke-linecap="round" stroke-linejoin="round"/><line id="line11" x1="43.768" x2="44.768" y1="47.098" y2="45.366" fill="none" stroke="#000" stroke-linecap="round" stroke-linejoin="round"/><line id="line12" x1="45.768" x2="46.768" y1="43.634" y2="41.902" fill="none" stroke="#000" stroke-linecap="round" stroke-linejoin="round"/></g><g id="g15"><line id="line13" x1="20.768" x2="23.768" y1="28.098" y2="22.902" fill="none" stroke="#000" stroke-linecap="round" stroke-linejoin="round"/><line id="line14" x1="22.5" x2="25.5" y1="29.098" y2="23.902" fill="none" stroke="#000" stroke-linecap="round" stroke-linejoin="round"/><line id="line15" x1="24.232" x2="27.232" y1="30.098" y2="24.902" fill="none" stroke="#000" stroke-linecap="round" stroke-linejoin="round"/></g><g id="g20"><line id="line16" x1="44.768" x2="45.768" y1="24.902" y2="26.634" fill="none" stroke="#000" stroke-linecap="round" stroke-linejoin="round"/><line id="line17" x1="46.768" x2="47.768" y1="28.366" y2="30.098" fill="none" stroke="#000" stroke-linecap="round" stroke-linejoin="round"/><line id="line18" x1="48.232" x2="49.232" y1="22.902" y2="24.634" fill="none" stroke="#000" stroke-linecap="round" stroke-linejoin="round"/><line id="line19" x1="50.232" x2="51.232" y1="26.366" y2="28.098" fill="none" stroke="#000" stroke-linecap="round" stroke-linejoin="round"/><line id="line20" x1="46.5" x2="49.5" y1="23.902" y2="29.098" fill="none" stroke="#000" stroke-linecap="round" stroke-linejoin="round"/></g></g></g><g id="line" transform="translate(-4,-16)"><rect id="rect21" width="62" height="38" x="5" y="17" fill="none" stroke="#000" stroke-linecap="round" stroke-linejoin="round" stroke-width="2"/></g></svg>