<?xml version="1.0" encoding="UTF-8" standalone="no"?>
<svg
   id="emoji"
   viewBox="0 0 64.010666 40.010666"
   version="1.1"
   sodipodi:docname="1f1f2-1f1f6.svg"
   width="64.010666"
   height="40.010666"
   xmlns:inkscape="http://www.inkscape.org/namespaces/inkscape"
   xmlns:sodipodi="http://sodipodi.sourceforge.net/DTD/sodipodi-0.dtd"
   xmlns="http://www.w3.org/2000/svg"
   xmlns:svg="http://www.w3.org/2000/svg">
  <defs
     id="defs9" />
  <sodipodi:namedview
     id="namedview9"
     pagecolor="#ffffff"
     bordercolor="#000000"
     borderopacity="0.25"
     inkscape:showpageshadow="2"
     inkscape:pageopacity="0.0"
     inkscape:pagecheckerboard="0"
     inkscape:deskcolor="#d1d1d1" />
  <g
     id="color"
     transform="translate(-3.9946677,-15.994668)">
    <rect
       x="5"
       y="17"
       width="62"
       height="38"
       fill="#1e50a0"
       id="rect1" />
    <polygon
       fill="#ffffff"
       stroke="#ffffff"
       stroke-miterlimit="10"
       stroke-width="2"
       points="39.028,17.004 33.028,16.996 33.004,32.996 5.004,32.955 4.996,38.955 32.996,38.996 32.972,54.996 38.972,55.004 38.996,39.004 66.996,39.045 67.004,33.045 39.004,33.004 "
       id="polygon1" />
    <g
       id="g3">
      <line
         x1="16"
         x2="22.5"
         y1="50"
         y2="50"
         fill="#f1b31c"
         stroke="#ffffff"
         stroke-linecap="round"
         stroke-linejoin="round"
         stroke-width="2"
         id="line1" />
      <line
         x1="16"
         x2="22.5"
         y1="50"
         y2="49"
         fill="#f1b31c"
         stroke="#ffffff"
         stroke-linecap="round"
         stroke-linejoin="round"
         stroke-width="2"
         id="line2" />
      <circle
         cx="22.5"
         cy="49.5"
         r="0.5"
         fill="none"
         stroke="#ffffff"
         stroke-linecap="round"
         stroke-linejoin="round"
         stroke-width="2"
         id="circle2" />
      <path
         fill="none"
         stroke="#ffffff"
         stroke-linecap="round"
         stroke-linejoin="round"
         stroke-width="2"
         d="m 19,47 a 3,3 0 0 0 3,3"
         id="path2" />
      <path
         fill="none"
         stroke="#ffffff"
         stroke-linecap="round"
         stroke-linejoin="round"
         stroke-width="2"
         d="m 17,44 h 1.5 A 0.5015,0.5015 0 0 1 19,44.5 V 47"
         id="path3" />
    </g>
    <g
       id="g5">
      <line
         x1="16"
         x2="22.5"
         y1="28"
         y2="28"
         fill="#f1b31c"
         stroke="#ffffff"
         stroke-linecap="round"
         stroke-linejoin="round"
         stroke-width="2"
         id="line3" />
      <line
         x1="16"
         x2="22.5"
         y1="28"
         y2="27"
         fill="#f1b31c"
         stroke="#ffffff"
         stroke-linecap="round"
         stroke-linejoin="round"
         stroke-width="2"
         id="line4" />
      <circle
         cx="22.5"
         cy="27.5"
         r="0.5"
         fill="none"
         stroke="#ffffff"
         stroke-linecap="round"
         stroke-linejoin="round"
         stroke-width="2"
         id="circle4" />
      <path
         fill="none"
         stroke="#ffffff"
         stroke-linecap="round"
         stroke-linejoin="round"
         stroke-width="2"
         d="m 19,25 a 3,3 0 0 0 3,3"
         id="path4" />
      <path
         fill="none"
         stroke="#ffffff"
         stroke-linecap="round"
         stroke-linejoin="round"
         stroke-width="2"
         d="m 17,22 h 1.5 A 0.5015,0.5015 0 0 1 19,22.5 V 25"
         id="path5" />
    </g>
    <g
       id="g7">
      <line
         x1="50"
         x2="56.5"
         y1="50"
         y2="50"
         fill="#f1b31c"
         stroke="#ffffff"
         stroke-linecap="round"
         stroke-linejoin="round"
         stroke-width="2"
         id="line5" />
      <line
         x1="50"
         x2="56.5"
         y1="50"
         y2="49"
         fill="#f1b31c"
         stroke="#ffffff"
         stroke-linecap="round"
         stroke-linejoin="round"
         stroke-width="2"
         id="line6" />
      <circle
         cx="56.5"
         cy="49.5"
         r="0.5"
         fill="none"
         stroke="#ffffff"
         stroke-linecap="round"
         stroke-linejoin="round"
         stroke-width="2"
         id="circle6" />
      <path
         fill="none"
         stroke="#ffffff"
         stroke-linecap="round"
         stroke-linejoin="round"
         stroke-width="2"
         d="m 53,47 a 3,3 0 0 0 3,3"
         id="path6" />
      <path
         fill="none"
         stroke="#ffffff"
         stroke-linecap="round"
         stroke-linejoin="round"
         stroke-width="2"
         d="m 51,44 h 1.5 A 0.5015,0.5015 0 0 1 53,44.5 V 47"
         id="path7" />
    </g>
    <g
       id="g9">
      <line
         x1="50"
         x2="56.5"
         y1="28"
         y2="28"
         fill="#f1b31c"
         stroke="#ffffff"
         stroke-linecap="round"
         stroke-linejoin="round"
         stroke-width="2"
         id="line7" />
      <line
         x1="50"
         x2="56.5"
         y1="28"
         y2="27"
         fill="#f1b31c"
         stroke="#ffffff"
         stroke-linecap="round"
         stroke-linejoin="round"
         stroke-width="2"
         id="line8" />
      <circle
         cx="56.5"
         cy="27.5"
         r="0.5"
         fill="none"
         stroke="#ffffff"
         stroke-linecap="round"
         stroke-linejoin="round"
         stroke-width="2"
         id="circle8" />
      <path
         fill="none"
         stroke="#ffffff"
         stroke-linecap="round"
         stroke-linejoin="round"
         stroke-width="2"
         d="m 53,25 a 3,3 0 0 0 3,3"
         id="path8" />
      <path
         fill="none"
         stroke="#ffffff"
         stroke-linecap="round"
         stroke-linejoin="round"
         stroke-width="2"
         d="m 51,22 h 1.5 A 0.5015,0.5015 0 0 1 53,22.5 V 25"
         id="path9" />
    </g>
  </g>
  <g
     id="line"
     transform="translate(-3.9946677,-15.994668)">
    <rect
       x="5"
       y="17"
       width="62"
       height="38"
       fill="none"
       stroke="#000000"
       stroke-linecap="round"
       stroke-linejoin="round"
       stroke-width="2"
       id="rect9" />
  </g>
</svg>
