<svg xmlns="http://www.w3.org/2000/svg" xmlns:svg="http://www.w3.org/2000/svg" id="emoji" width="64" height="40" version="1.1" viewBox="0 0 64 40"><g id="color" transform="translate(-4,-16)"><rect id="rect1" width="62" height="38" x="5" y="17" fill="#5c9e31"/><polygon id="polygon1" fill="#1e50a0" points="67 17 5 17 5 55"/><polygon id="polygon2" fill="#fcea2b" points="62 17 5 51 5 55 10 55 67 21 67 17"/><polygon id="polygon3" fill="#fff" stroke="#fff" stroke-linecap="round" stroke-linejoin="round" points="12.475 25.423 8.5 22.457 13.5 22.333 9.384 25.5 11.044 20.5"/><polygon id="polygon4" fill="#fff" stroke="#fff" stroke-linecap="round" stroke-linejoin="round" points="24.475 25.423 20.5 22.457 25.5 22.333 21.384 25.5 23.044 20.5"/><polygon id="polygon5" fill="#fff" stroke="#fff" stroke-linecap="round" stroke-linejoin="round" points="12.475 35.423 8.5 32.457 13.5 32.333 9.384 35.5 11.044 30.5"/><polygon id="polygon6" fill="#fff" stroke="#fff" stroke-linecap="round" stroke-linejoin="round" points="18.475 30.423 14.5 27.457 19.5 27.333 15.384 30.5 17.044 25.5"/><polygon id="polygon7" fill="#fff" stroke="#fff" stroke-linecap="round" stroke-linejoin="round" points="24.475 35.423 20.5 32.457 25.5 32.333 21.384 35.5 23.044 30.5"/></g><g id="line" transform="translate(-4,-16)"><rect id="rect7" width="62" height="38" x="5" y="17" fill="none" stroke="#000" stroke-linecap="round" stroke-linejoin="round" stroke-width="2"/></g></svg>