<svg xmlns="http://www.w3.org/2000/svg" xmlns:svg="http://www.w3.org/2000/svg" id="emoji" width="64" height="40" version="1.1" viewBox="0 0 64 40"><g id="color" transform="translate(-4,-16)"><rect id="rect1" width="62" height="38" x="5" y="17" fill="#5c9e31"/><rect id="rect2" width="62" height="12" x="5" y="30" fill="#d22f27"/><rect id="rect3" width="62" height="13" x="5" y="17" fill="#1e50a0"/><circle id="circle3" cx="25" cy="36.5" r="13" fill="#fcea2b" stroke="#000" stroke-miterlimit="10"/><line id="line3" x1="25" x2="25" y1="23.56" y2="48.56" fill="none" stroke="#000" stroke-linecap="round" stroke-linejoin="round"/><ellipse id="ellipse3" cx="25" cy="36.93" stroke="#000" stroke-linecap="round" stroke-linejoin="round" stroke-width="0" rx="1.785" ry="1.071"/><ellipse id="ellipse4" cx="25" cy="42.49" stroke="#000" stroke-linecap="round" stroke-linejoin="round" stroke-width=".775" rx="1.162" ry="1.55"/><circle id="circle4" cx="25" cy="31.29" r="1.353" stroke="#000" stroke-linecap="round" stroke-linejoin="round" stroke-width=".902"/><line id="line4" x1="22.83" x2="27.17" y1="28.61" y2="26.11" fill="none" stroke="#000" stroke-linecap="round" stroke-linejoin="round"/><path id="path4" stroke="#000" stroke-miterlimit="10" stroke-width="1.046" d="m 25,49.49 a 10.75,17.05 0 0 0 3.694,-1.05 C 28.4721,46.808 26.912,45.538 25,45.538 c -1.912,0 -3.472,1.27 -3.694,2.902 A 10.75,17.05 0 0 0 25,49.49 Z"/><path id="path5" fill="none" stroke="#000" stroke-linecap="round" stroke-linejoin="round" d="m 22.39,42.45 c 1.114,-3.639 4.098,-3.639 5.216,0"/><path id="path6" fill="none" stroke="#000" stroke-linecap="round" stroke-linejoin="round" d="m 22.4,31.36 c 1.11,3.798 4.085,3.798 5.199,0"/><line id="line6" x1="23.35" x2="26.65" y1="35.25" y2="35.25" fill="none" stroke="#000" stroke-linecap="round" stroke-linejoin="round"/><line id="line7" x1="23.35" x2="26.65" y1="38.61" y2="38.61" fill="none" stroke="#000" stroke-linecap="round" stroke-linejoin="round" stroke-width="1"/></g><g id="line" transform="translate(-4,-16)"><rect id="rect7" width="62" height="38" x="5" y="17" fill="none" stroke="#000" stroke-linecap="round" stroke-linejoin="round" stroke-width="2"/></g></svg>