<svg xmlns="http://www.w3.org/2000/svg" xmlns:svg="http://www.w3.org/2000/svg" id="emoji" width="64" height="40" version="1.1" viewBox="0 0 64 40"><g id="color" transform="translate(-4,-16)"><rect id="rect1" width="62" height="38" x="5" y="17" fill="#d22f27"/><rect id="rect2" width="62" height="19" x="5" y="36" fill="#5c9e31"/><path id="path2" d="M 25.248,36.6804 6.5332,53.6128 C 5.9433,54.1465 5,53.7279 5,52.9324 V 19.0675 C 5,18.272 5.9432,17.8534 6.5332,18.3871 L 25.248,35.3196 c 0.4026,0.3643 0.4026,0.9965 0,1.3608 z"/><polygon id="polygon2" fill="#f1b31c" stroke="#000" stroke-linecap="round" stroke-linejoin="round" stroke-width="2" points="5 21 23.529 36 5 51 5 55 26 38 67 38 67 34 26 34 5 17"/><path id="path3" fill="none" stroke="#f1b31c" stroke-linecap="round" stroke-linejoin="round" d="m 12.3334,39.2727 c 2.1513,0.1362 4.0105,-1.4864 4.1666,-3.6363 -0.1248,-1.72 -1.6123,-3.0181 -3.3333,-2.9091 -1.3768,-0.0872 -2.5668,0.9512 -2.6667,2.3272 0.0799,1.1008 1.0319,1.9316 2.1334,1.8619"/></g><g id="line" transform="translate(-4,-16)"><rect id="rect3" width="62" height="38" x="5" y="17" fill="none" stroke="#000" stroke-linecap="round" stroke-linejoin="round" stroke-width="2"/></g></svg>