<svg xmlns="http://www.w3.org/2000/svg" xmlns:svg="http://www.w3.org/2000/svg" id="emoji" width="64" height="40" version="1.1" viewBox="0 0 64 40"><g id="color" transform="translate(-4,-16)"><rect id="rect1" width="62" height="38" x="5" y="17" fill="#61b2e4"/><rect id="rect2" width="62" height="9" x="5" y="36" fill="#fcea2b"/><rect id="rect3" width="62" height="10" x="5" y="45" fill="#5c9e31"/><polygon id="polygon3" fill="#fcea2b" stroke="#fcea2b" stroke-linecap="round" stroke-linejoin="round" points="56.808 25.192 59.464 24 57.104 25.704 60 26 57.104 26.296 59.464 28 56.808 26.808 58 29.464 56.296 27.104 56 30 55.704 27.104 54 29.464 55.192 26.808 52.536 28 54.896 26.296 52 26 54.896 25.704 52.536 24 55.192 25.192 54 22.536 55.704 24.896 56 22 56.296 24.896 58 22.536"/></g><g id="line" transform="translate(-4,-16)"><rect id="rect4" width="62" height="38" x="5" y="17" fill="none" stroke="#000" stroke-linecap="round" stroke-linejoin="round" stroke-width="2"/></g></svg>