<?xml version="1.0" encoding="UTF-8" standalone="no"?>
<svg
   id="emoji"
   viewBox="0 0 64 40"
   version="1.1"
   sodipodi:docname="1f1f9-1f1f0.svg"
   width="64"
   height="40"
   xmlns:inkscape="http://www.inkscape.org/namespaces/inkscape"
   xmlns:sodipodi="http://sodipodi.sourceforge.net/DTD/sodipodi-0.dtd"
   xmlns="http://www.w3.org/2000/svg"
   xmlns:svg="http://www.w3.org/2000/svg">
  <defs
     id="defs4" />
  <sodipodi:namedview
     id="namedview4"
     pagecolor="#ffffff"
     bordercolor="#000000"
     borderopacity="0.25"
     inkscape:showpageshadow="2"
     inkscape:pageopacity="0.0"
     inkscape:pagecheckerboard="0"
     inkscape:deskcolor="#d1d1d1" />
  <g
     id="color"
     transform="translate(-4,-16)">
    <rect
       x="5"
       y="17"
       width="62"
       height="38"
       fill="#1e50a0"
       id="rect1" />
    <polygon
       fill="#ffffff"
       stroke="#ffffff"
       stroke-linecap="round"
       stroke-linejoin="round"
       points="17.75,23.5 21.75,23.5 18.514,25.972 19.75,21.972 20.986,25.972 "
       id="polygon1" />
    <polygon
       fill="#ffffff"
       stroke="#ffffff"
       stroke-linecap="round"
       stroke-linejoin="round"
       points="17.75,37.5 21.75,37.5 18.514,39.972 19.75,35.972 20.986,39.972 "
       id="polygon2" />
    <polygon
       fill="#ffffff"
       stroke="#ffffff"
       stroke-linecap="round"
       stroke-linejoin="round"
       points="10.5,29.5 14.5,29.5 11.264,31.972 12.5,27.972 13.736,31.972 "
       id="polygon3" />
    <polygon
       fill="#ffffff"
       stroke="#ffffff"
       stroke-linecap="round"
       stroke-linejoin="round"
       points="25,28.118 28,28.118 25.573,29.972 26.5,26.972 27.427,29.972 "
       id="polygon4" />
    <path
       fill="#f1b31c"
       stroke="#f1b31c"
       stroke-linecap="round"
       stroke-linejoin="round"
       stroke-width="2"
       d="M 56.4964,22.0042 22.5,47 h 32 l 2,-8e-4 c -2.1713,-3.7 -5.4086,-7.9629 -5.4086,-12.5009 0,-4.5349 3.2359,-8.7957 5.405,-12.4941 z"
       id="path4" />
    <line
       x1="22.5"
       x2="58.5"
       y1="50"
       y2="50"
       fill="none"
       stroke="#f1b31c"
       stroke-linecap="round"
       stroke-linejoin="round"
       stroke-width="2"
       id="line4" />
  </g>
  <g
     id="line"
     transform="translate(-4,-16)">
    <rect
       x="5"
       y="17"
       width="62"
       height="38"
       fill="none"
       stroke="#000000"
       stroke-linecap="round"
       stroke-linejoin="round"
       stroke-width="2"
       id="rect4" />
  </g>
</svg>
