<svg xmlns="http://www.w3.org/2000/svg" xmlns:svg="http://www.w3.org/2000/svg" id="emoji" width="64" height="40" version="1.1" viewBox="0 0 64 40"><g id="color" transform="translate(-4,-16)"><rect id="rect1" width="62" height="38" x="5" y="17" fill="#d22f27"/><rect id="rect2" width="21" height="38" x="5" y="17" fill="#5c9e31"/><circle id="circle2" cx="26" cy="36" r="12" fill="none" stroke="#fcea2b" stroke-miterlimit="10" stroke-width="2"/><line id="line2" x1="26" x2="26" y1="24" y2="48" fill="none" stroke="#fcea2b" stroke-linecap="round" stroke-linejoin="round"/><polygon id="polygon2" fill="none" stroke="#fcea2b" stroke-linecap="round" stroke-linejoin="round" points="35 44 26 39.5 17 44"/><polygon id="polygon3" fill="none" stroke="#fcea2b" stroke-linecap="round" stroke-linejoin="round" points="26.5 29.5 17 28 26 33.5 35 28"/><polygon id="polygon4" fill="none" stroke="#fcea2b" stroke-linecap="round" stroke-linejoin="round" points="14 36 26 31 38 36 26 41"/><path id="path4" fill="#fff" stroke="#d22f27" stroke-linecap="round" stroke-linejoin="round" stroke-width="2" d="m 20.2,29 h 11.6 v 10.1 c 0,2.5 -2.6,4.6 -5.8,4.6 v 0 c -3.2,0 -5.8,-2.1 -5.8,-4.6 z"/><circle id="circle4" cx="26" cy="32.8" r=".7" fill="#1e50a0" stroke="#1e50a0" stroke-linecap="round" stroke-linejoin="round"/><circle id="circle5" cx="26" cy="38.7" r=".7" fill="#1e50a0" stroke="#1e50a0" stroke-linecap="round" stroke-linejoin="round"/><circle id="circle6" cx="26" cy="35.7" r=".7" fill="#1e50a0" stroke="#1e50a0" stroke-linecap="round" stroke-linejoin="round"/><circle id="circle7" cx="29" cy="35.7" r=".7" fill="#1e50a0" stroke="#1e50a0" stroke-linecap="round" stroke-linejoin="round"/><circle id="circle8" cx="23" cy="35.7" r=".7" fill="#1e50a0" stroke="#1e50a0" stroke-linecap="round" stroke-linejoin="round"/></g><g id="line" transform="translate(-4,-16)"><rect id="rect8" width="62" height="38" x="5" y="17" fill="none" stroke="#000" stroke-linecap="round" stroke-linejoin="round" stroke-width="2"/></g></svg>