<svg xmlns="http://www.w3.org/2000/svg" xmlns:svg="http://www.w3.org/2000/svg" id="emoji" width="64" height="40" version="1.1" viewBox="0 0 64 40"><g id="color" transform="translate(-4,-16)"><rect id="rect1" width="62" height="38" x="5" y="17" fill="#d22f27"/><polygon id="polygon1" fill="#f1b31c" stroke="#f1b31c" stroke-linecap="round" stroke-linejoin="round" points="37.436 36.174 39.901 31.715 38.788 36.687 42.249 32.947 39.979 37.509 44.234 34.706 40.938 38.592 45.74 36.888 41.61 39.872 46.68 39.368 41.956 41.277 47 42 41.956 42.723 46.68 44.632 41.61 44.128 45.74 47.112 40.938 45.408 44.234 49.294 39.979 46.491 42.249 51.053 38.788 47.313 39.901 52.285 37.436 47.826 37.326 52.92 36 48 34.674 52.92 34.564 47.826 32.099 52.285 33.212 47.313 29.751 51.053 32.021 46.491 27.766 49.294 31.062 45.408 26.26 47.112 30.39 44.128 25.32 44.632 30.044 42.723 25 42 30.044 41.277 25.32 39.368 30.39 39.872 26.26 36.888 31.062 38.592 27.766 34.706 32.021 37.509 29.751 32.947 33.212 36.687 32.099 31.715 34.564 36.174 34.674 31.08 36 36 37.326 31.08"/><path id="path1" fill="#fff" d="m 67,44 a 42.5886,42.5886 0 0 1 -6.2,1 c -1.5693,-0.0494 -4.6308,-1.0494 -6.2,-1 -1.5692,0.0494 -4.6308,1.0494 -6.2,1 -1.5692,-0.0494 -4.6307,-1.0494 -6.2,-1 -1.5693,0.0494 -4.6307,1.0494 -6.2,1 -1.5693,-0.0494 -4.6308,-1.0492 -6.2,-1 -1.5692,0.0492 -4.6308,1.0481 -6.2,1 -1.5692,-0.0481 -4.6306,-1.0415 -6.2,-1 -1.5694,0.0415 -4.63,1 -6.2,1 A 50.8361,50.8361 0 0 1 5,44 v -2 a 50.8361,50.8361 0 0 0 6.2,1 c 1.57,0 4.6305,-0.9586 6.2,-1 1.5695,-0.0414 4.6308,0.9519 6.2,1 1.5692,0.0481 4.6308,-0.9508 6.2,-1 1.5692,-0.0492 4.6307,0.9506 6.2,1 1.5693,0.0494 4.6307,-0.9506 6.2,-1 1.5693,-0.0494 4.6307,0.9506 6.2,1 1.5693,0.0494 4.6307,-0.9506 6.2,-1 1.5693,-0.0494 4.6307,0.9506 6.2,1 A 42.5886,42.5886 0 0 0 67,42 Z"/><path id="path2" fill="#1e50a0" d="m 67,46 a 42.5886,42.5886 0 0 1 -6.2,1 c -1.5693,-0.0494 -4.6308,-1.0494 -6.2,-1 -1.5692,0.0494 -4.6308,1.0494 -6.2,1 -1.5692,-0.0494 -4.6307,-1.0494 -6.2,-1 -1.5693,0.0494 -4.6307,1.0494 -6.2,1 -1.5693,-0.0494 -4.6308,-1.0492 -6.2,-1 -1.5692,0.0492 -4.6308,1.0481 -6.2,1 -1.5692,-0.0481 -4.6306,-1.0415 -6.2,-1 -1.5694,0.0415 -4.63,1 -6.2,1 A 50.8361,50.8361 0 0 1 5,46 v -2 a 50.8361,50.8361 0 0 0 6.2,1 c 1.57,0 4.6305,-0.9586 6.2,-1 1.5695,-0.0414 4.6308,0.9519 6.2,1 1.5692,0.0481 4.6308,-0.9508 6.2,-1 1.5692,-0.0492 4.6307,0.9506 6.2,1 1.5693,0.0494 4.6307,-0.9506 6.2,-1 1.5693,-0.0494 4.6307,0.9506 6.2,1 1.5693,0.0494 4.6307,-0.9506 6.2,-1 1.5693,-0.0494 4.6307,0.9506 6.2,1 A 42.5886,42.5886 0 0 0 67,44 Z"/><path id="path3" fill="#fff" d="m 67,48 a 42.5886,42.5886 0 0 1 -6.2,1 c -1.5693,-0.0494 -4.6308,-1.0494 -6.2,-1 -1.5692,0.0494 -4.6308,1.0494 -6.2,1 -1.5692,-0.0494 -4.6307,-1.0494 -6.2,-1 -1.5693,0.0494 -4.6307,1.0494 -6.2,1 -1.5693,-0.0494 -4.6308,-1.0492 -6.2,-1 -1.5692,0.0492 -4.6308,1.0481 -6.2,1 -1.5692,-0.0481 -4.6306,-1.0415 -6.2,-1 -1.5694,0.0415 -4.63,1 -6.2,1 A 50.8361,50.8361 0 0 1 5,48 v -2 a 50.8361,50.8361 0 0 0 6.2,1 c 1.57,0 4.6305,-0.9586 6.2,-1 1.5695,-0.0414 4.6308,0.9519 6.2,1 1.5692,0.0481 4.6308,-0.9508 6.2,-1 1.5692,-0.0492 4.6307,0.9506 6.2,1 1.5693,0.0494 4.6307,-0.9506 6.2,-1 1.5693,-0.0494 4.6307,0.9506 6.2,1 1.5693,0.0494 4.6307,-0.9506 6.2,-1 1.5693,-0.0494 4.6307,0.9506 6.2,1 A 42.5886,42.5886 0 0 0 67,46 Z"/><path id="path4" fill="#1e50a0" d="m 67,50 a 42.5886,42.5886 0 0 1 -6.2,1 c -1.5693,-0.0494 -4.6308,-1.0494 -6.2,-1 -1.5692,0.0494 -4.6308,1.0494 -6.2,1 -1.5692,-0.0494 -4.6307,-1.0494 -6.2,-1 -1.5693,0.0494 -4.6307,1.0494 -6.2,1 -1.5693,-0.0494 -4.6308,-1.0492 -6.2,-1 -1.5692,0.0492 -4.6308,1.0481 -6.2,1 -1.5692,-0.0481 -4.6306,-1.0415 -6.2,-1 -1.5694,0.0415 -4.63,1 -6.2,1 A 50.8361,50.8361 0 0 1 5,50 v -2 a 50.8361,50.8361 0 0 0 6.2,1 c 1.57,0 4.6305,-0.9586 6.2,-1 1.5695,-0.0414 4.6308,0.9519 6.2,1 1.5692,0.0481 4.6308,-0.9508 6.2,-1 1.5692,-0.0492 4.6307,0.9506 6.2,1 1.5693,0.0494 4.6307,-0.9506 6.2,-1 1.5693,-0.0494 4.6307,0.9506 6.2,1 1.5693,0.0494 4.6307,-0.9506 6.2,-1 1.5693,-0.0494 4.6307,0.9506 6.2,1 A 42.5886,42.5886 0 0 0 67,48 Z"/><path id="path5" fill="#1e50a0" d="m 67,55 c 0,0 -4.6307,-0.9506 -6.2,-1 -1.5693,-0.0494 -4.6308,0.9506 -6.2,1 -1.5692,0.0494 -4.6308,-0.9506 -6.2,-1 -1.5692,-0.0494 -4.6307,0.9506 -6.2,1 -1.5693,0.0494 -4.6307,-0.9506 -6.2,-1 -1.5693,-0.0494 -4.6308,0.9508 -6.2,1 -1.5692,0.0492 -4.6308,-0.9519 -6.2,-1 -1.5692,-0.0481 -4.6306,0.9585 -6.2,1 -1.5694,0.0415 -4.63,-1 -6.2,-1 A 50.8361,50.8361 0 0 0 5,55 v -4 a 50.8361,50.8361 0 0 0 6.2,1 c 1.57,0 4.6305,-0.9586 6.2,-1 1.5695,-0.0414 4.6308,0.9519 6.2,1 1.5692,0.0481 4.6308,-0.9508 6.2,-1 1.5692,-0.0492 4.6307,0.9506 6.2,1 1.5693,0.0494 4.6307,-0.9506 6.2,-1 1.5693,-0.0494 4.6307,0.9506 6.2,1 1.5693,0.0494 4.6307,-0.9506 6.2,-1 1.5693,-0.0494 4.6307,0.9506 6.2,1 A 42.5886,42.5886 0 0 0 67,51 Z"/><path id="path6" fill="#fff" d="m 67,52 a 42.5886,42.5886 0 0 1 -6.2,1 c -1.5693,-0.0494 -4.6308,-1.0494 -6.2,-1 -1.5692,0.0494 -4.6308,1.0494 -6.2,1 -1.5692,-0.0494 -4.6307,-1.0494 -6.2,-1 -1.5693,0.0494 -4.6307,1.0494 -6.2,1 -1.5693,-0.0494 -4.6308,-1.0492 -6.2,-1 -1.5692,0.0492 -4.6308,1.0481 -6.2,1 -1.5692,-0.0481 -4.6306,-1.0415 -6.2,-1 -1.5694,0.0415 -4.63,1 -6.2,1 A 50.8361,50.8361 0 0 1 5,52 v -2 a 50.8361,50.8361 0 0 0 6.2,1 c 1.57,0 4.6305,-0.9586 6.2,-1 1.5695,-0.0414 4.6308,0.9519 6.2,1 1.5692,0.0481 4.6308,-0.9508 6.2,-1 1.5692,-0.0492 4.6307,0.9506 6.2,1 1.5693,0.0494 4.6307,-0.9506 6.2,-1 1.5693,-0.0494 4.6307,0.9506 6.2,1 1.5693,0.0494 4.6307,-0.9506 6.2,-1 1.5693,-0.0494 4.6307,0.9506 6.2,1 A 42.5886,42.5886 0 0 0 67,50 Z"/><g id="g8"><path id="path7" fill="#f1b31c" stroke="#f1b31c" stroke-linecap="round" stroke-linejoin="round" stroke-width="2" d="m 45.5,22 a 17.1366,17.1366 0 0 1 -8,2"/><path id="path8" fill="#f1b31c" stroke="#f1b31c" stroke-linecap="round" stroke-linejoin="round" stroke-width="2" d="m 26.5,22 a 17.1366,17.1366 0 0 0 8,2"/></g><path id="path9" fill="none" stroke="#f1b31c" stroke-linecap="round" stroke-linejoin="round" stroke-width="2" d="m 31.4946,25.9334 a 10.9861,10.9861 0 0 1 9.0109,-0.0011"/></g><g id="line" transform="translate(-4,-16)"><rect id="rect9" width="62" height="38" x="5" y="17" fill="none" stroke="#000" stroke-linecap="round" stroke-linejoin="round" stroke-width="2"/></g></svg>