<?xml version="1.0" encoding="UTF-8" standalone="no"?>
<svg
   id="emoji"
   viewBox="0 0 64 40"
   version="1.1"
   sodipodi:docname="1f1f9-1f1fc.svg"
   width="64"
   height="40"
   xmlns:inkscape="http://www.inkscape.org/namespaces/inkscape"
   xmlns:sodipodi="http://sodipodi.sourceforge.net/DTD/sodipodi-0.dtd"
   xmlns="http://www.w3.org/2000/svg"
   xmlns:svg="http://www.w3.org/2000/svg">
  <defs
     id="defs3" />
  <sodipodi:namedview
     id="namedview3"
     pagecolor="#ffffff"
     bordercolor="#000000"
     borderopacity="0.25"
     inkscape:showpageshadow="2"
     inkscape:pageopacity="0.0"
     inkscape:pagecheckerboard="0"
     inkscape:deskcolor="#d1d1d1" />
  <g
     id="color"
     transform="translate(-4,-16)">
    <rect
       x="5"
       y="17"
       width="62"
       height="38"
       fill="#d22f27"
       id="rect1" />
    <rect
       x="5"
       y="17"
       width="32"
       height="20"
       fill="#1e50a0"
       id="rect2" />
    <polygon
       fill="#ffffff"
       stroke="#ffffff"
       stroke-linecap="round"
       stroke-linejoin="round"
       points="20.776,24.8 21.5,21.148 22.223,24.8 24.675,21.999 23.476,25.523 27,24.323 24.199,26.776 27.851,27.499 24.199,28.223 27,30.675 23.476,29.475 24.675,33 22.223,30.199 21.5,33.851 20.776,30.199 18.324,33 19.523,29.475 15.999,30.675 18.8,28.223 15.148,27.499 18.8,26.776 15.999,24.323 19.523,25.523 18.324,21.999 "
       id="polygon2" />
    <circle
       cx="21.5"
       cy="27.5"
       r="4.0888"
       fill="none"
       stroke="#1e50a0"
       stroke-miterlimit="10"
       id="circle2" />
  </g>
  <g
     id="line"
     transform="translate(-4,-16)">
    <rect
       x="5"
       y="17"
       width="62"
       height="38"
       fill="none"
       stroke="#000000"
       stroke-linecap="round"
       stroke-linejoin="round"
       stroke-width="2"
       id="rect3" />
  </g>
</svg>
