<svg xmlns="http://www.w3.org/2000/svg" xmlns:svg="http://www.w3.org/2000/svg" id="emoji" width="64" height="40" version="1.1" viewBox="0 0 64 40"><g id="color" transform="translate(-4,-16)"><rect id="rect1" width="62" height="38" x="5" y="17" fill="#d22f27"/><rect id="rect2" width="62" height="19" x="5" y="36" fill="#fff"/><circle id="circle2" cx="20" cy="22" r="1" fill="#fff"/><circle id="circle3" cx="18" cy="27" r="1" fill="#fff"/><circle id="circle4" cx="22" cy="27" r="1" fill="#fff"/><circle id="circle5" cx="17" cy="24" r="1" fill="#fff"/><circle id="circle6" cx="23" cy="24" r="1" fill="#fff"/><path id="path6" fill="#fff" stroke="#fff" stroke-linecap="round" stroke-linejoin="round" d="M 11.1987,24.9227 A 4.873,4.873 0 0 1 15,20.094 4.539,4.539 0 0 0 14.0877,20 a 4.9273,4.9273 0 0 0 0,9.8454 A 4.539,4.539 0 0 0 15,29.7514 4.873,4.873 0 0 1 11.1987,24.9227 Z"/></g><g id="line" transform="translate(-4,-16)"><rect id="rect6" width="62" height="38" x="5" y="17" fill="none" stroke="#000" stroke-linecap="round" stroke-linejoin="round" stroke-width="2"/></g></svg>