<svg xmlns="http://www.w3.org/2000/svg" xmlns:svg="http://www.w3.org/2000/svg" id="emoji" width="64" height="40" version="1.1" viewBox="0 0 64 40"><g id="color" transform="translate(-4,-16)"><rect id="rect1" width="62" height="38" x="5" y="17" fill="#1e50a0"/><polygon id="polygon1" fill="#fff" stroke="#fff" stroke-linecap="round" stroke-linejoin="round" points="17.75 23.5 21.75 23.5 18.514 25.972 19.75 21.972 20.986 25.972"/><polygon id="polygon2" fill="#fff" stroke="#fff" stroke-linecap="round" stroke-linejoin="round" points="17.75 37.5 21.75 37.5 18.514 39.972 19.75 35.972 20.986 39.972"/><polygon id="polygon3" fill="#fff" stroke="#fff" stroke-linecap="round" stroke-linejoin="round" points="10.5 29.5 14.5 29.5 11.264 31.972 12.5 27.972 13.736 31.972"/><polygon id="polygon4" fill="#fff" stroke="#fff" stroke-linecap="round" stroke-linejoin="round" points="25 28.118 28 28.118 25.573 29.972 26.5 26.972 27.427 29.972"/><path id="path4" fill="#f1b31c" stroke="#f1b31c" stroke-linecap="round" stroke-linejoin="round" stroke-width="2" d="M 56.4964,22.0042 22.5,47 h 32 l 2,-8e-4 c -2.1713,-3.7 -5.4086,-7.9629 -5.4086,-12.5009 0,-4.5349 3.2359,-8.7957 5.405,-12.4941 z"/><line id="line4" x1="22.5" x2="58.5" y1="50" y2="50" fill="none" stroke="#f1b31c" stroke-linecap="round" stroke-linejoin="round" stroke-width="2"/></g><g id="line" transform="translate(-4,-16)"><rect id="rect4" width="62" height="38" x="5" y="17" fill="none" stroke="#000" stroke-linecap="round" stroke-linejoin="round" stroke-width="2"/></g></svg>