<svg xmlns="http://www.w3.org/2000/svg" xmlns:svg="http://www.w3.org/2000/svg" id="emoji" width="64" height="40" version="1.1" viewBox="0 0 64 40"><g id="color" transform="translate(-4,-16)"><rect id="rect1" width="62" height="38" x="5" y="17" fill="#1e50a0"/><circle id="circle1" cx="46.86" cy="38.872" r=".503" fill="#fff" stroke="#fff" stroke-miterlimit="10" stroke-width="1.007"/><circle id="circle2" cx="58.944" cy="38.872" r=".503" fill="#fff" stroke="#fff" stroke-miterlimit="10" stroke-width="1.007"/><circle id="circle3" cx="56.93" cy="47.936" r=".503" fill="#fff" stroke="#fff" stroke-miterlimit="10" stroke-width="1.007"/><circle id="circle4" cx="48.874" cy="47.936" r=".503" fill="#fff" stroke="#fff" stroke-miterlimit="10" stroke-width="1.007"/><circle id="circle5" cx="52.902" cy="49.95" r=".503" fill="#fff" stroke="#fff" stroke-miterlimit="10" stroke-width="1.007"/><path id="path5" fill="#fff" d="m 58.4616,45.4768 -2.5193,-4.3636 a 0.8383,0.8383 0 0 0 -1.1788,0 l -1.0191,1.7649 v -2.8892 h 1.05 a 0.6653,0.6653 0 0 0 0.6652,-0.6653 V 38.9393 A 0.6653,0.6653 0 0 0 54.7944,38.274 h -1.05 V 36.5591 H 56.45 a 0.7248,0.7248 0 0 0 0.7247,-0.7247 V 35.5689 A 0.7248,0.7248 0 0 0 56.45,34.8442 h -7.125 a 0.7248,0.7248 0 0 0 -0.7247,0.7247 v 0.2655 a 0.7248,0.7248 0 0 0 0.7247,0.7247 h 2.705 v 6.61 L 50.8428,41.113 a 0.8381,0.8381 0 0 0 -1.1787,0 l -2.5194,4.3636 a 0.5336,0.5336 0 0 0 0.1953,0.7289 l 0.1932,0.1116 a 0.5338,0.5338 0 0 0 0.7291,-0.1953 L 48.84,45.12 h 2.826 l 0.5783,1.0019 a 0.7441,0.7441 0 0 0 1.1173,0 L 53.94,45.12 h 2.8256 l 0.5786,1.0019 a 0.5335,0.5335 0 0 0 0.7289,0.1953 l 0.193,-0.1116 a 0.5335,0.5335 0 0 0 0.1955,-0.7288 z M 49.5852,43.83 50.2531,42.6733 50.9209,43.83 Z m 5.1,0 0.668,-1.1567 0.668,1.1567 z"/><polyline id="polyline5" fill="none" stroke="#fff" stroke-linecap="round" stroke-linejoin="round" points="36.5 17.5 36.5 36.5 5.5 36.5"/><rect id="rect5" width="11" height="19" x="5" y="17" fill="#1e50a0"/><rect id="rect6" width="10" height="19" x="16" y="17" fill="#fff"/><rect id="rect7" width="10" height="19" x="26" y="17" fill="#d22f27"/></g><g id="line" transform="translate(-4,-16)"><rect id="rect8" width="62" height="38" x="5" y="17" fill="none" stroke="#000" stroke-linecap="round" stroke-linejoin="round" stroke-width="2"/></g></svg>