<svg xmlns="http://www.w3.org/2000/svg" xmlns:svg="http://www.w3.org/2000/svg" id="emoji" width="64" height="40" version="1.1" viewBox="0 0 64 40"><g id="color" transform="translate(-4,-16)"><rect id="rect1" width="62" height="38" x="5" y="17" fill="#d22f27"/><rect id="rect2" width="62" height="7" x="5" y="48" fill="#1e50a0" stroke="#f1b31c" stroke-miterlimit="10"/><rect id="rect3" width="62" height="7" x="5" y="17" fill="#1e50a0" stroke="#f1b31c" stroke-miterlimit="10"/><line id="line3" x1="19.362" x2="56.163" y1="28.927" y2="28.927" fill="none" stroke="#fcea2b" stroke-linecap="round" stroke-linejoin="round" stroke-width=".968"/><line id="line4" x1="16.016" x2="52.817" y1="33.109" y2="33.109" fill="none" stroke="#fcea2b" stroke-linecap="round" stroke-linejoin="round" stroke-width=".968"/><line id="line5" x1="11.676" x2="60.503" y1="36.478" y2="36.478" fill="none" stroke="#fcea2b" stroke-linecap="round" stroke-linejoin="round" stroke-width=".925"/><g id="g6"><path id="path5" d="m 48.6477,32.309 a 17.8474,17.8474 0 0 0 -25.2386,0 l -3.9549,3.9544 a 0.3035,0.3035 0 0 0 0,0.4293 l 3.9549,3.9544 a 17.8474,17.8474 0 0 0 25.2386,0 l 3.9549,-3.9544 a 0.3035,0.3035 0 0 0 0,-0.4293 z"/><path id="path6" fill="#fff" d="M 36.09,45.6893 A 0.3112,0.3112 0 0 0 36.4018,46 17.4822,17.4822 0 0 0 48.5553,40.8621 l 4.1695,-4.169 a 0.3036,0.3036 0 0 0 0,-0.4293 l -4.1695,-4.169 a 17.4813,17.4813 0 0 0 -12.1535,-5.1382 0.3111,0.3111 0 0 0 -0.3123,0.3106 z"/></g><g id="g7"><line id="line6" x1="23.89" x2="33.57" y1="34.3" y2="34.3" fill="none" stroke="#fff" stroke-linecap="round" stroke-linejoin="round" stroke-width="1.936"/><line id="line7" x1="23.89" x2="33.57" y1="38.656" y2="38.656" fill="none" stroke="#fff" stroke-linecap="round" stroke-linejoin="round" stroke-width="1.936"/></g><g id="g9"><line id="line8" x1="38.411" x2="48.091" y1="34.3" y2="34.3" fill="none" stroke="#000" stroke-linecap="round" stroke-linejoin="round" stroke-width="1.936"/><line id="line9" x1="38.411" x2="48.091" y1="38.656" y2="38.656" fill="none" stroke="#000" stroke-linecap="round" stroke-linejoin="round" stroke-width="1.936"/></g><circle id="circle9" cx="31.119" cy="30.645" r="2.904" fill="#1e50a0" stroke="#000" stroke-linecap="round" stroke-linejoin="round" stroke-width=".968"/><circle id="circle10" cx="12.766" cy="38.292" r="2.904" fill="#1e50a0" stroke="#000" stroke-linecap="round" stroke-linejoin="round" stroke-width=".968"/><circle id="circle11" cx="60.178" cy="38.292" r="2.904" fill="#1e50a0" stroke="#000" stroke-linecap="round" stroke-linejoin="round" stroke-width=".968"/></g><g id="line" transform="translate(-4,-16)"><rect id="rect11" width="62" height="38" x="5" y="17" fill="none" stroke="#000" stroke-linecap="round" stroke-linejoin="round" stroke-width="2"/></g></svg>