<svg xmlns="http://www.w3.org/2000/svg" xmlns:svg="http://www.w3.org/2000/svg" id="emoji" width="64" height="40" version="1.1" viewBox="0 0 64 40"><g id="color" transform="translate(-4,-16)"><rect id="rect1" width="62" height="38" x="5" y="17" fill="#92d3f5"/><polygon id="polygon1" fill="#f1b31c" stroke="#f1b31c" stroke-linecap="round" stroke-linejoin="round" points="61.18 24.939 58 22.565 62 22.467 58.707 25 60.035 21"/><polygon id="polygon2" fill="#f1b31c" stroke="#f1b31c" stroke-linecap="round" stroke-linejoin="round" points="61.18 40.939 58 38.565 62 38.467 58.707 41 60.035 37"/><polygon id="polygon3" fill="#f1b31c" stroke="#f1b31c" stroke-linecap="round" stroke-linejoin="round" points="54.181 44.939 51.002 42.565 55.002 42.467 51.709 45 53.037 41"/><polygon id="polygon4" fill="#f1b31c" stroke="#f1b31c" stroke-linecap="round" stroke-linejoin="round" points="29.181 51.939 26.002 49.565 30.002 49.467 26.709 52 28.037 48"/><polygon id="polygon5" fill="#f1b31c" stroke="#f1b31c" stroke-linecap="round" stroke-linejoin="round" points="44.822 45.061 48.002 47.435 44.002 47.533 47.294 45 45.967 49"/><polygon id="polygon6" fill="#f1b31c" stroke="#f1b31c" stroke-linecap="round" stroke-linejoin="round" points="34.822 46.061 38.002 48.435 34.002 48.533 37.294 46 35.967 50"/><polygon id="polygon7" fill="#f1b31c" stroke="#f1b31c" stroke-linecap="round" stroke-linejoin="round" points="34.822 39.061 38.002 41.435 34.002 41.533 37.294 39 35.967 43"/><polygon id="polygon8" fill="#f1b31c" stroke="#f1b31c" stroke-linecap="round" stroke-linejoin="round" points="53.002 27.918 49.061 27.452 52.476 25.366 50.891 29.207 50.041 25.079"/><polygon id="polygon9" fill="#f1b31c" stroke="#f1b31c" stroke-linecap="round" stroke-linejoin="round" points="47.002 29.918 43.061 29.452 46.476 27.366 44.891 31.207 44.041 27.079"/><rect id="rect9" width="31" height="19" x="5" y="17" fill="#1e50a0"/><g id="g17"><polygon id="polygon10" fill="#fff" points="6 20.332 32.113 36 36 36 36 33.668 9.887 18 6 18"/><polygon id="polygon11" fill="#fff" points="32.113 18 6 33.668 6 36 9.887 36 36 20.332 36 18"/><rect id="rect11" width="30" height="6" x="6" y="24" fill="#fff"/><rect id="rect12" width="6" height="18" x="18" y="18" fill="#fff"/><rect id="rect13" width="2" height="18" x="20" y="18" fill="#d22f27"/><rect id="rect14" width="30" height="2" x="6" y="26" fill="#d22f27"/><polygon id="polygon14" fill="#d22f27" points="26 30 36 36 36 33.668 29.887 30"/><polygon id="polygon15" fill="#d22f27" points="24 22.868 24 24 26 24 36 18 32.113 18"/><polygon id="polygon16" fill="#d22f27" points="16 24 6 18 6 20.332 12.113 24"/><polygon id="polygon17" fill="#d22f27" points="18 31.132 18 30 16 30 6 36 9.887 36"/></g></g><g id="line" transform="translate(-4,-16)"><rect id="rect17" width="62" height="38" x="5" y="17" fill="none" stroke="#000" stroke-linecap="round" stroke-linejoin="round" stroke-width="2"/></g></svg>