<?xml version="1.0" encoding="UTF-8" standalone="no"?>
<svg
   id="emoji"
   viewBox="0 0 64 40"
   version="1.1"
   sodipodi:docname="1f1fb-1f1ec.svg"
   width="64"
   height="40"
   xmlns:inkscape="http://www.inkscape.org/namespaces/inkscape"
   xmlns:sodipodi="http://sodipodi.sourceforge.net/DTD/sodipodi-0.dtd"
   xmlns="http://www.w3.org/2000/svg"
   xmlns:svg="http://www.w3.org/2000/svg">
  <defs
     id="defs25" />
  <sodipodi:namedview
     id="namedview25"
     pagecolor="#ffffff"
     bordercolor="#000000"
     borderopacity="0.25"
     inkscape:showpageshadow="2"
     inkscape:pageopacity="0.0"
     inkscape:pagecheckerboard="0"
     inkscape:deskcolor="#d1d1d1" />
  <g
     id="color"
     transform="translate(-4,-16)">
    <rect
       x="5"
       y="17"
       width="62"
       height="38"
       fill="#1e50a0"
       id="rect1" />
    <g
       id="g9">
      <rect
         x="5"
         y="17"
         width="31"
         height="19"
         fill="#1e50a0"
         id="rect2" />
      <path
         fill="#ffffff"
         d="M 9.5,36 H 5 L 31.5,17 H 36 Z"
         id="path2" />
      <path
         fill="#ffffff"
         d="M 36,32.5 5,17 v 3.5 L 36,36 Z"
         id="path3" />
      <path
         fill="#d22f27"
         d="M 36,33.5 5,18 v 1.5 L 36,35 Z"
         id="path4" />
      <path
         fill="#d22f27"
         d="M 8.5,36 H 6 L 32.5,17 H 35 Z"
         id="path5" />
      <polygon
         fill="#d22f27"
         points="22,17 19,17 19,25 5,25 5,28 19,28 19,36 22,36 22,28 36,28 36,25 22,25 "
         id="polygon5" />
      <g
         id="g8">
        <polyline
           fill="none"
           stroke="#ffffff"
           stroke-linejoin="round"
           points="5 28 19 28 19 36"
           id="polyline5" />
        <polyline
           fill="none"
           stroke="#ffffff"
           stroke-linejoin="round"
           points="19 17 19 25 5 25"
           id="polyline6" />
        <polyline
           fill="none"
           stroke="#ffffff"
           stroke-linejoin="round"
           points="36 25 22 25 22 17"
           id="polyline7" />
        <polyline
           fill="none"
           stroke="#ffffff"
           stroke-linejoin="round"
           points="22 36 22 28 36 28"
           id="polyline8" />
      </g>
    </g>
    <path
       fill="#fcea2b"
       d="m 57.4518,44.7545 c -4.5023,3.939 -9.0187,3.8068 -13.3557,0.1308 -0.4754,0.112 -0.8438,0.3264 -1.1072,0.2357 -0.6456,-0.2222 -0.704,-0.8505 -0.1978,-1.3206 a 8.0456,8.0456 0 0 0 0.9669,-0.9378 c 0.3463,-0.4526 0.6265,-0.3777 0.9966,-0.0522 a 19.9329,19.9329 0 0 0 1.9685,1.6365 7.357,7.357 0 0 0 9.6994,-1.4055 c 0.6294,-0.7476 0.8221,-0.7463 1.4606,-0.0087 a 3.6555,3.6555 0 0 0 0.6087,0.6286 c 0.4793,0.3369 0.7014,0.7127 0.3,1.2333 -0.32,0.4154 -0.7352,0.3809 -1.34,-0.1401 z"
       id="path9" />
    <path
       fill="#186648"
       d="m 50.6427,27.723 h -5.0756 a 1.8626,1.8626 0 0 0 -1.8626,1.8626 v 10.7523 c 0,2.0873 4.749,3.7429 6.389,4.2524 a 1.84,1.84 0 0 0 1.0983,0 c 1.64,-0.5095 6.389,-2.1651 6.389,-4.2524 V 29.5856 A 1.8626,1.8626 0 0 0 55.7183,27.723 Z"
       id="path10" />
    <circle
       cx="55.2155"
       cy="30.246"
       r="0.63069999"
       fill="#fcea2b"
       id="circle10" />
    <circle
       cx="55.2155"
       cy="32.138199"
       r="0.63069999"
       fill="#fcea2b"
       id="circle11" />
    <circle
       cx="55.2155"
       cy="34.030499"
       r="0.63069999"
       fill="#fcea2b"
       id="circle12" />
    <circle
       cx="55.2155"
       cy="35.922699"
       r="0.63069999"
       fill="#fcea2b"
       id="circle13" />
    <circle
       cx="55.2155"
       cy="37.814899"
       r="0.63069999"
       fill="#fcea2b"
       id="circle14" />
    <circle
       cx="55.2155"
       cy="39.707199"
       r="0.63069999"
       fill="#fcea2b"
       id="circle15" />
    <circle
       cx="46.385101"
       cy="30.246"
       r="0.63069999"
       fill="#fcea2b"
       id="circle16" />
    <circle
       cx="51.1157"
       cy="29.930599"
       r="0.9461"
       fill="#ffa7c0"
       id="circle17" />
    <circle
       cx="46.385101"
       cy="32.138199"
       r="0.63069999"
       fill="#fcea2b"
       id="circle18" />
    <circle
       cx="46.385101"
       cy="34.030499"
       r="0.63069999"
       fill="#fcea2b"
       id="circle19" />
    <circle
       cx="47.646599"
       cy="35.922699"
       r="0.63069999"
       fill="#fcea2b"
       id="circle20" />
    <circle
       cx="46.385101"
       cy="37.814899"
       r="0.63069999"
       fill="#fcea2b"
       id="circle21" />
    <circle
       cx="46.385101"
       cy="39.707199"
       r="0.63069999"
       fill="#fcea2b"
       id="circle22" />
    <circle
       cx="50.169601"
       cy="41.5994"
       r="0.63069999"
       fill="#fcea2b"
       id="circle23" />
    <circle
       cx="51.431099"
       cy="41.5994"
       r="0.63069999"
       fill="#fcea2b"
       id="circle24" />
    <line
       x1="49.854198"
       x2="47.962002"
       y1="32.453602"
       y2="34.976601"
       fill="none"
       stroke="#ffa7c0"
       stroke-linecap="round"
       stroke-linejoin="round"
       stroke-width="0.6307"
       id="line24" />
    <rect
       x="49.459999"
       y="31.5075"
       rx="1.1546"
       ry="1.1546"
       width="3.1537001"
       height="10.0919"
       fill="#ffffff"
       id="rect24" />
    <line
       x1="52.377201"
       x2="52.962799"
       y1="32.453602"
       y2="35.899399"
       fill="none"
       stroke="#ffa7c0"
       stroke-linecap="round"
       stroke-linejoin="round"
       stroke-width="0.6307"
       id="line25" />
    <path
       fill="#a57939"
       stroke="#a57939"
       stroke-linecap="round"
       stroke-linejoin="round"
       stroke-width="0.6307"
       d="m 52.081,29.1231 a 0.9461,0.9461 0 0 0 -1.338,0 l 1.338,1.338 a 0.9461,0.9461 0 0 0 0,-1.338 z"
       id="path25" />
  </g>
  <g
     id="line"
     transform="translate(-4,-16)">
    <rect
       x="5"
       y="17"
       width="62"
       height="38"
       fill="none"
       stroke="#000000"
       stroke-linecap="round"
       stroke-linejoin="round"
       stroke-width="2"
       id="rect25" />
  </g>
</svg>
