<?xml version="1.0" encoding="UTF-8" standalone="no"?>
<svg
   id="emoji"
   viewBox="0 0 64 40"
   version="1.1"
   sodipodi:docname="1f1f0-1f1ec.svg"
   width="64"
   height="40"
   xmlns:inkscape="http://www.inkscape.org/namespaces/inkscape"
   xmlns:sodipodi="http://sodipodi.sourceforge.net/DTD/sodipodi-0.dtd"
   xmlns="http://www.w3.org/2000/svg"
   xmlns:svg="http://www.w3.org/2000/svg">
  <defs
     id="defs2" />
  <sodipodi:namedview
     id="namedview2"
     pagecolor="#ffffff"
     bordercolor="#000000"
     borderopacity="0.25"
     inkscape:showpageshadow="2"
     inkscape:pageopacity="0.0"
     inkscape:pagecheckerboard="0"
     inkscape:deskcolor="#d1d1d1" />
  <g
     id="color"
     transform="translate(-4,-16)">
    <rect
       x="5"
       y="17"
       width="62"
       height="38"
       fill="#d22f27"
       id="rect1" />
    <polygon
       fill="#f1b31c"
       stroke="#f1b31c"
       stroke-linecap="round"
       stroke-linejoin="round"
       points="37.436,30.174 39.901,25.715 38.788,30.687 42.249,26.947 39.979,31.509 44.234,28.706 40.938,32.592 45.74,30.888 41.61,33.872 46.68,33.368 41.956,35.277 47,36 41.956,36.723 46.68,38.632 41.61,38.128 45.74,41.112 40.938,39.408 44.234,43.294 39.979,40.491 42.249,45.053 38.788,41.313 39.901,46.285 37.436,41.826 37.326,46.92 36,42 34.674,46.92 34.564,41.826 32.099,46.285 33.212,41.313 29.751,45.053 32.021,40.491 27.766,43.294 31.062,39.408 26.26,41.112 30.39,38.128 25.32,38.632 30.044,36.723 25,36 30.044,35.277 25.32,33.368 30.39,33.872 26.26,30.888 31.062,32.592 27.766,28.706 32.021,31.509 29.751,26.947 33.212,30.687 32.099,25.715 34.564,30.174 34.674,25.08 36,30 37.326,25.08 "
       id="polygon1" />
    <circle
       cx="36"
       cy="36"
       r="6"
       fill="none"
       stroke="#d22f27"
       stroke-linecap="round"
       stroke-linejoin="round"
       id="circle1" />
    <path
       fill="none"
       stroke="#d22f27"
       stroke-linecap="round"
       stroke-linejoin="round"
       d="M 30.55,33.5024 A 5.9922,5.9922 0 0 0 40.0209,40.4446 10,10 0 0 0 30.55,33.5024 Z"
       id="path1" />
    <path
       fill="none"
       stroke="#d22f27"
       stroke-linecap="round"
       stroke-linejoin="round"
       d="m 41.4505,33.5024 a 5.9923,5.9923 0 0 1 -9.471,6.9422 10,10 0 0 1 9.471,-6.9422 z"
       id="path2" />
  </g>
  <g
     id="line"
     transform="translate(-4,-16)">
    <rect
       x="5"
       y="17"
       width="62"
       height="38"
       fill="none"
       stroke="#000000"
       stroke-linecap="round"
       stroke-linejoin="round"
       stroke-width="2"
       id="rect2" />
  </g>
</svg>
