<?xml version="1.0" encoding="UTF-8" standalone="no"?>
<svg
   id="emoji"
   viewBox="0 0 64 40"
   version="1.1"
   sodipodi:docname="1f1fd-1f1f0.svg"
   width="64"
   height="40"
   xmlns:inkscape="http://www.inkscape.org/namespaces/inkscape"
   xmlns:sodipodi="http://sodipodi.sourceforge.net/DTD/sodipodi-0.dtd"
   xmlns="http://www.w3.org/2000/svg"
   xmlns:svg="http://www.w3.org/2000/svg">
  <defs
     id="defs6" />
  <sodipodi:namedview
     id="namedview6"
     pagecolor="#ffffff"
     bordercolor="#000000"
     borderopacity="0.25"
     inkscape:showpageshadow="2"
     inkscape:pageopacity="0.0"
     inkscape:pagecheckerboard="0"
     inkscape:deskcolor="#d1d1d1" />
  <g
     id="color"
     transform="translate(-4,-16)">
    <rect
       x="5"
       y="17"
       width="62"
       height="38"
       fill="#1e50a0"
       id="rect1" />
    <g
       id="g2">
      <polygon
         fill="#ffffff"
         stroke="#ffffff"
         stroke-linecap="round"
         stroke-linejoin="round"
         points="33.989,26.087 30.75,23.618 34.75,23.615 31.516,26.089 32.749,22.089 "
         id="polygon1" />
      <polygon
         fill="#ffffff"
         stroke="#ffffff"
         stroke-linecap="round"
         stroke-linejoin="round"
         points="40.489,26.087 37.25,23.618 41.25,23.615 38.016,26.089 39.249,22.089 "
         id="polygon2" />
    </g>
    <polygon
       fill="#ffffff"
       stroke="#ffffff"
       stroke-linecap="round"
       stroke-linejoin="round"
       points="46.053,28.469 42.815,26 46.815,25.997 43.581,28.471 44.813,24.471 "
       id="polygon3" />
    <polygon
       fill="#ffffff"
       stroke="#ffffff"
       stroke-linecap="round"
       stroke-linejoin="round"
       points="52.053,30.469 48.815,28 52.815,27.997 49.581,30.471 50.813,26.471 "
       id="polygon4" />
    <polygon
       fill="#ffffff"
       stroke="#ffffff"
       stroke-linecap="round"
       stroke-linejoin="round"
       points="28.053,28.469 24.815,26 28.815,25.997 25.581,28.471 26.813,24.471 "
       id="polygon5" />
    <polygon
       fill="#ffffff"
       stroke="#ffffff"
       stroke-linecap="round"
       stroke-linejoin="round"
       points="22.053,30.469 18.815,28 22.815,27.997 19.581,30.471 20.813,26.471 "
       id="polygon6" />
    <path
       fill="#f1b31c"
       stroke="#f1b31c"
       stroke-linecap="round"
       stroke-linejoin="round"
       d="m 29.82,35.7794 c 0.7763,-0.1309 1.5819,-0.21 1.9521,-0.85 -0.4534,-0.0176 -0.5355,-0.7276 -0.2233,-1.0568 a 3.9713,3.9713 0 0 1 1.2,-0.6194 c 0.4054,-0.2037 0.7722,-0.6831 0.5574,-1.0827 0.2839,-0.0362 0.4037,-0.4169 0.2944,-0.6815 a 1.7427,1.7427 0 0 0 -0.58,-0.62 1.0377,1.0377 0 0 1 -0.4568,-0.6961 c 0.755,0.3016 1.52,-0.8745 2.2743,-0.5718 -0.0541,-0.8706 0.9657,0.5222 1.0943,0.6242 a 0.3132,0.3132 0 0 0 -0.42,0.0438 0.3923,0.3923 0 0 0 0.0589,0.5124 1.1425,1.1425 0 0 0 0.5039,0.2481 l 1.9305,0.578 a 0.3427,0.3427 0 0 0 0.3742,-0.2565 0.8223,0.8223 0 0 0 0.6188,0.302 2.5089,2.5089 0 0 0 0.5317,1.6872 L 39.768,32.949 c 0.5867,0.2457 0.2566,1.2414 0.7057,1.6919 a 1.1708,1.1708 0 0 0 0.4218,0.2387 10.2882,10.2882 0 0 0 1.6127,0.4733 l -0.4944,1.8145 a 4.406,4.406 0 0 1 3.21,1.2378 0.7776,0.7776 0 0 1 1.4476,0.3358 c -0.3669,0.0158 -0.4525,0.5115 -0.471,0.8783 -0.0185,0.3668 -0.2784,0.8514 -0.6122,0.6983 0.15,0.2716 -0.0854,0.5929 -0.323,0.7922 -0.2376,0.1993 -0.5232,0.4342 -0.4916,0.7427 0.018,0.1763 0.1427,0.3337 0.1355,0.5107 -0.0257,0.6244 -1.3678,0.3943 -1.3993,1.0184 -0.025,0.4958 0.9185,0.77 0.687,1.2091 -0.0993,0.1882 -0.355,0.2108 -0.5678,0.2093 a 0.7287,0.7287 0 0 0 -0.6232,-0.5 c -0.2831,0.001 -0.5358,0.3445 -0.3807,0.5813 a 1.5951,1.5951 0 0 0 -1.5308,1.9874 l -1.035,0.2053 a 7.612,7.612 0 0 0 -0.5581,-1.2853 0.688,0.688 0 0 0 -0.274,-0.3137 0.7281,0.7281 0 0 0 -0.6136,0.0978 l -2.9756,1.4648 c -0.5576,0.2744 -1.1916,0.6569 -1.2329,1.2769 -0.0344,0.5149 0.3752,1.0107 0.245,1.51 -0.136,0.5214 -0.7631,0.7219 -1.2981,0.7867 -0.2951,0.0357 -0.6575,0.0249 -0.8074,-0.2319 -0.1992,-0.3415 0.16,-0.7262 0.2781,-1.1035 a 2.2413,2.2413 0 0 0 -0.29,-1.4406 17.9857,17.9857 0 0 0 -0.933,-2.6125 3.4261,3.4261 0 0 0 -3.1072,-1.6408 4.6472,4.6472 0 0 0 -1.1278,-2.8058 4.2641,4.2641 0 0 1 -0.809,-1.0411 0.91,0.91 0 0 1 0.2943,-1.165 8.4823,8.4823 0 0 1 -1.34,-0.68 0.4332,0.4332 0 0 1 -0.1967,-0.1963 0.38,0.38 0 0 1 0.05,-0.2979 1.2952,1.2952 0 0 1 1.4639,-0.6224 c 0.3505,0.1025 0.723,0.356 1.0441,0.1822 0.1824,-0.0988 0.2723,-0.3051 0.3964,-0.4712 a 2.2858,2.2858 0 0 1 1.5523,-0.705 z"
       id="path6" />
  </g>
  <g
     id="line"
     transform="translate(-4,-16)">
    <rect
       x="5"
       y="17"
       width="62"
       height="38"
       fill="none"
       stroke="#000000"
       stroke-linecap="round"
       stroke-linejoin="round"
       stroke-width="2"
       id="rect6" />
  </g>
</svg>
