<?xml version="1.0" encoding="UTF-8" standalone="no"?>
<svg
   id="emoji"
   viewBox="0 0 64 40"
   version="1.1"
   sodipodi:docname="1f1f8-1f1ed.svg"
   width="64"
   height="40"
   xmlns:inkscape="http://www.inkscape.org/namespaces/inkscape"
   xmlns:sodipodi="http://sodipodi.sourceforge.net/DTD/sodipodi-0.dtd"
   xmlns="http://www.w3.org/2000/svg"
   xmlns:svg="http://www.w3.org/2000/svg">
  <defs
     id="defs16" />
  <sodipodi:namedview
     id="namedview16"
     pagecolor="#ffffff"
     bordercolor="#000000"
     borderopacity="0.25"
     inkscape:showpageshadow="2"
     inkscape:pageopacity="0.0"
     inkscape:pagecheckerboard="0"
     inkscape:deskcolor="#d1d1d1" />
  <g
     id="color"
     transform="translate(-4,-16)">
    <rect
       x="5"
       y="17"
       width="62"
       height="38"
       fill="#1e50a0"
       id="rect1" />
    <g
       id="g8">
      <polygon
         fill="#ffffff"
         points="6,20.332 32.113,36 36,36 36,33.668 9.887,18 6,18 "
         id="polygon1" />
      <polygon
         fill="#ffffff"
         points="32.113,18 6,33.668 6,36 9.887,36 36,20.332 36,18 "
         id="polygon2" />
      <rect
         x="6"
         y="24"
         width="30"
         height="6"
         fill="#ffffff"
         id="rect2" />
      <rect
         x="18"
         y="18"
         width="6"
         height="18"
         fill="#ffffff"
         id="rect3" />
      <rect
         x="20"
         y="18"
         width="2"
         height="18"
         fill="#d22f27"
         id="rect4" />
      <rect
         x="6"
         y="26"
         width="30"
         height="2"
         fill="#d22f27"
         id="rect5" />
      <polygon
         fill="#d22f27"
         points="26,30 36,36 36,33.668 29.887,30 "
         id="polygon5" />
      <polygon
         fill="#d22f27"
         points="24,22.868 24,24 26,24 36,18 32.113,18 "
         id="polygon6" />
      <polygon
         fill="#d22f27"
         points="16,24 6,18 6,20.332 12.113,24 "
         id="polygon7" />
      <polygon
         fill="#d22f27"
         points="18,31.132 18,30 16,30 6,36 9.887,36 "
         id="polygon8" />
    </g>
    <g
       id="g11">
      <path
         fill="#3f3f3f"
         d="m 58.5,29 h -0.2771 c 0.0939,0.0307 0.1839,0.0693 0.2771,0.1014 z"
         id="path8" />
      <path
         fill="#3f3f3f"
         d="m 45.5,29 v 0.1014 C 45.5932,29.0693 45.6832,29.0307 45.7771,29 Z"
         id="path9" />
      <path
         fill="#fcea2b"
         d="m 52,28 a 19.9562,19.9562 0 0 0 -6.2229,1 H 58.2229 A 19.9562,19.9562 0 0 0 52,28 Z"
         id="path10" />
      <path
         fill="#fcea2b"
         d="M 58.5,34.5 V 29.1014 C 58.4068,29.0693 58.3168,29.0307 58.2229,29 H 45.7771 C 45.6832,29.0307 45.5932,29.0693 45.5,29.1014 V 34.5 Z"
         id="path11" />
    </g>
    <path
       fill="#92d3f5"
       d="M 44.9556,34.81 58.5,34.8635 C 58.5,34.8635 60,44 52,47"
       id="path12" />
    <path
       fill="#92d3f5"
       d="M 44.9556,34.81 C 44.9556,34.81 44,45 52,47"
       id="path13" />
    <path
       fill="#1e50a0"
       stroke="#1e50a0"
       stroke-linecap="round"
       stroke-linejoin="round"
       stroke-width="2"
       d="m 56,42.9188 c -2.4,-1.5567 -8,0 -8,0 L 52,47 Z"
       id="path14" />
    <polyline
       fill="none"
       stroke="#a57939"
       stroke-linecap="round"
       stroke-linejoin="round"
       stroke-width="2"
       points="46 37 49 41 49 44"
       id="polyline14" />
    <ellipse
       cx="46.857601"
       cy="40.589401"
       rx="0.5"
       ry="2.6466"
       transform="rotate(-18.1699,46.857787,40.589682)"
       fill="none"
       stroke="#a57939"
       stroke-linecap="round"
       stroke-linejoin="round"
       stroke-width="2"
       id="ellipse14" />
    <polygon
       fill="#f4aa41"
       stroke="#a57939"
       stroke-linecap="round"
       stroke-linejoin="round"
       stroke-width="2"
       points="50,30 53,32 51,32 "
       id="polygon14" />
    <path
       fill="none"
       stroke="#f4aa41"
       stroke-linecap="round"
       stroke-linejoin="round"
       stroke-width="2"
       d="m 55,41 h -3 a 2.8222,2.8222 0 0 0 3,0 z"
       id="path15" />
    <path
       fill="none"
       stroke="#000000"
       stroke-linecap="round"
       stroke-linejoin="round"
       d="m 58.5833,29 v 9 c 0,6.75 -6.75,9 -6.75,9 0,0 -6.75,-2.25 -6.75,-9 v -9 c 0,0 6.8959,-3.4063 13.5,0 z"
       id="path16" />
    <line
       x1="58.5"
       x2="45.5"
       y1="34.5"
       y2="34.5"
       fill="none"
       stroke="#000000"
       stroke-linecap="round"
       stroke-linejoin="round"
       id="line16" />
  </g>
  <g
     id="line"
     transform="translate(-4,-16)">
    <rect
       x="5"
       y="17"
       width="62"
       height="38"
       fill="none"
       stroke="#000000"
       stroke-linecap="round"
       stroke-linejoin="round"
       stroke-width="2"
       id="rect16" />
  </g>
</svg>
