<svg xmlns="http://www.w3.org/2000/svg" xmlns:svg="http://www.w3.org/2000/svg" id="emoji" width="64" height="40" version="1.1" viewBox="0 0 64 40"><g id="color" transform="translate(-4,-16)"><rect id="rect1" width="62" height="38" x="5" y="17" fill="#1e50a0"/><rect id="rect2" width="62" height="9" x="5" y="27" fill="#fff"/><rect id="rect3" width="62" height="9" x="5" y="36" fill="#d22f27"/><rect id="rect4" width="62" height="10" x="5" y="17" fill="#f1b31c"/><polygon id="polygon4" fill="#5c9e31" points="5 17 37 36 5 55"/><g id="g7"><circle id="circle4" cx="19" cy="31" r="1.043" fill="#fff"/><circle id="circle5" cx="19" cy="34.333" r="1.043" fill="#fff"/><circle id="circle6" cx="19" cy="37.667" r="1.043" fill="#fff"/><circle id="circle7" cx="19" cy="41" r="1.043" fill="#fff"/></g><path id="path7" fill="#fff" stroke="#fff" stroke-linecap="round" stroke-linejoin="round" d="m 11.6929,36.125 a 7.4815,7.4815 0 0 1 5.9889,-7.3567 7.3762,7.3762 0 0 0 -1.4373,-0.1433 7.5,7.5 0 0 0 0,15 7.3839,7.3839 0 0 0 1.4373,-0.1432 7.4817,7.4817 0 0 1 -5.9889,-7.3568 z"/></g><g id="line" transform="translate(-4,-16)"><rect id="rect7" width="62" height="38" x="5" y="17" fill="none" stroke="#000" stroke-linecap="round" stroke-linejoin="round" stroke-width="2"/></g></svg>