<svg xmlns="http://www.w3.org/2000/svg" xmlns:svg="http://www.w3.org/2000/svg" id="emoji" width="50" height="50" version="1.1" viewBox="0 0 50 50"><g id="color" transform="translate(-11,-11)"><g id="color-2"><path id="path1" fill="#d0cfce" d="m 59.0349,60 h -46.07 A 0.9679,0.9679 0 0 1 12,59.0349 v -46.07 A 0.9679,0.9679 0 0 1 12.9651,12 h 46.07 A 0.9679,0.9679 0 0 1 60,12.9651 v 46.07 A 0.9679,0.9679 0 0 1 59.0349,60 Z"/></g></g><g id="line" transform="translate(-11,-11)"><path id="path2" fill="none" stroke="#000" stroke-miterlimit="10" stroke-width="2" d="m 59.0349,60 h -46.07 A 0.9679,0.9679 0 0 1 12,59.0349 v -46.07 A 0.9679,0.9679 0 0 1 12.9651,12 h 46.07 A 0.9679,0.9679 0 0 1 60,12.9651 v 46.07 A 0.9679,0.9679 0 0 1 59.0349,60 Z"/><polyline id="polyline2" fill="none" stroke="#000" stroke-linecap="round" stroke-linejoin="round" stroke-width="2" points="23 32 23 27 48 27 48 32"/><line id="line2" x1="27" x2="30.104" y1="22" y2="27" fill="none" stroke="#000" stroke-linecap="round" stroke-linejoin="round" stroke-width="2"/><line id="line3" x1="34" x2="37.144" y1="22" y2="27" fill="none" stroke="#000" stroke-linecap="round" stroke-linejoin="round" stroke-width="2"/><line id="line4" x1="44" x2="41.346" y1="22" y2="27" fill="none" stroke="#000" stroke-linecap="round" stroke-linejoin="round" stroke-width="2"/><polygon id="polygon4" fill="none" stroke="#000" stroke-linecap="round" stroke-linejoin="round" stroke-width="2" points="34.832 37 43 37 43 31 28 31 28 37"/><line id="line5" x1="33" x2="35" y1="41" y2="37" fill="none" stroke="#000" stroke-linecap="round" stroke-linejoin="round" stroke-width="2"/><polyline id="polyline5" fill="none" stroke="#000" stroke-linecap="round" stroke-linejoin="round" stroke-width="2" points="25 50 25 41 46 41 46 50"/><line id="line6" x1="26" x2="45" y1="47" y2="47" fill="none" stroke="#000" stroke-linecap="round" stroke-linejoin="round" stroke-width="2"/></g></svg>