<svg xmlns="http://www.w3.org/2000/svg" xmlns:svg="http://www.w3.org/2000/svg" id="emoji" width="50" height="50" version="1.1" viewBox="0 0 50 50"><g id="color" transform="translate(-11,-11)"><path id="path1" fill="#ea5a47" d="m 59.0349,60 h -46.07 A 0.9679,0.9679 0 0 1 12,59.0349 v -46.07 A 0.9679,0.9679 0 0 1 12.9651,12 h 46.07 A 0.9679,0.9679 0 0 1 60,12.9651 v 46.07 A 0.9679,0.9679 0 0 1 59.0349,60 Z"/></g><g id="line" fill="none" stroke="#000" stroke-width="2" transform="translate(-11,-11)"><path id="path2" stroke-miterlimit="10" d="m 59.0349,60 h -46.07 A 0.9679,0.9679 0 0 1 12,59.0349 v -46.07 A 0.9679,0.9679 0 0 1 12.9651,12 h 46.07 A 0.9679,0.9679 0 0 1 60,12.9651 v 46.07 A 0.9679,0.9679 0 0 1 59.0349,60 Z"/><line id="line2" x1="20.95" x2="23.95" y1="21.5" y2="24.5" stroke-linecap="round" stroke-linejoin="round"/><line id="line3" x1="19.95" x2="22.95" y1="29.5" y2="32.5" stroke-linecap="round" stroke-linejoin="round"/><line id="line4" x1="27.05" x2="50.05" y1="24" y2="24" stroke-linecap="round" stroke-linejoin="round"/><line id="line5" x1="34.05" x2="34.05" y1="21" y2="29" stroke-linecap="round" stroke-linejoin="round"/><line id="line6" x1="44.05" x2="44.05" y1="21" y2="29" stroke-linecap="round" stroke-linejoin="round"/><line id="line7" x1="26.05" x2="52.05" y1="30" y2="30" stroke-linecap="round" stroke-linejoin="round"/><polyline id="polyline7" stroke-linecap="round" stroke-linejoin="round" points="39.5 30.5 39.5 44.5 44.5 44.5 44.5 39.5" transform="translate(-0.4469,0.5)"/><polyline id="polyline8" stroke-linecap="round" stroke-linejoin="round" points="34.5 39.5 34.5 44.5 34.5 46.5" transform="translate(-0.4469,0.5)"/><line id="line8" x1="39.05" x2="35.05" y1="45" y2="45" stroke-linecap="round" stroke-linejoin="round"/><path id="path8" stroke-linecap="round" stroke-linejoin="round" d="m 24.05,40 c 0,0 -1,7 -4,9"/><polyline id="polyline9" stroke-linecap="round" stroke-linejoin="round" points="28.5 50.5 28.5 34.5 49.5 34.5 49.5 49.5 44.5 49.5" transform="translate(-0.4469,0.5)"/></g><g id="color-foreground" fill="none" stroke="#fff" stroke-linecap="round" stroke-linejoin="round" stroke-width="2" transform="translate(-11,-11)"><line id="line9" x1="20.95" x2="23.95" y1="21.5" y2="24.5"/><line id="line10" x1="19.95" x2="22.95" y1="29.5" y2="32.5"/><line id="line11" x1="27.05" x2="50.05" y1="24" y2="24"/><line id="line12" x1="34.05" x2="34.05" y1="21" y2="29"/><line id="line13" x1="44.05" x2="44.05" y1="21" y2="29"/><line id="line14" x1="26.05" x2="52.05" y1="30" y2="30"/><polyline id="polyline14" points="39.5 30.5 39.5 44.5 44.5 44.5 44.5 39.5" transform="translate(-0.4469,0.5)"/><polyline id="polyline15" points="34.5 39.5 34.5 44.5 34.5 46.5" transform="translate(-0.4469,0.5)"/><line id="line15" x1="39.05" x2="35.05" y1="45" y2="45"/><path id="path15" d="m 24.05,40 c 0,0 -1,7 -4,9"/><polyline id="polyline16" points="28.5 50.5 28.5 34.5 49.5 34.5 49.5 49.5 44.5 49.5" transform="translate(-0.4469,0.5)"/></g></svg>