<?xml version="1.0" encoding="UTF-8" standalone="no"?>
<svg
   id="emoji"
   viewBox="0 0 55 55"
   version="1.1"
   sodipodi:docname="1f251.svg"
   width="55"
   height="55"
   xmlns:inkscape="http://www.inkscape.org/namespaces/inkscape"
   xmlns:sodipodi="http://sodipodi.sourceforge.net/DTD/sodipodi-0.dtd"
   xmlns="http://www.w3.org/2000/svg"
   xmlns:svg="http://www.w3.org/2000/svg">
  <defs
     id="defs2" />
  <sodipodi:namedview
     id="namedview2"
     pagecolor="#ffffff"
     bordercolor="#000000"
     borderopacity="0.25"
     inkscape:showpageshadow="2"
     inkscape:pageopacity="0.0"
     inkscape:pagecheckerboard="0"
     inkscape:deskcolor="#d1d1d1" />
  <g
     id="color"
     transform="translate(-9,-9)">
    <circle
       cx="36.5"
       cy="36.5"
       r="27.5"
       fill="#d0cfce"
       id="circle1" />
  </g>
  <g
     id="line"
     transform="translate(-9,-9)">
    <path
       d="M 36.5,11 A 25.5,25.5 0 1 1 11,36.5 25.5288,25.5288 0 0 1 36.5,11 m 0,-2 A 27.5,27.5 0 1 0 64,36.5 27.5,27.5 0 0 0 36.5,9 Z"
       id="path1" />
    <line
       x1="21"
       x2="52"
       y1="25"
       y2="25"
       fill="none"
       stroke="#000000"
       stroke-linecap="round"
       stroke-linejoin="round"
       stroke-width="2"
       id="line1" />
    <polyline
       fill="none"
       stroke="#000000"
       stroke-linecap="round"
       stroke-linejoin="round"
       stroke-width="2"
       points="37.5 52.5 45.5 52.5 45.5 26.5"
       id="polyline1" />
    <polyline
       fill="none"
       stroke="#000000"
       stroke-linecap="round"
       stroke-linejoin="round"
       stroke-width="2"
       points="25.5 47.5 25.5 33.5 37.5 33.5 37.5 43.5 26.5 43.5"
       id="polyline2" />
  </g>
</svg>
