<svg xmlns="http://www.w3.org/2000/svg" xmlns:svg="http://www.w3.org/2000/svg" id="emoji" width="55" height="55" version="1.1" viewBox="0 0 55 55"><g id="color" transform="translate(-9,-9)"><circle id="circle1" cx="36.5" cy="36.5" r="27.5" fill="#d0cfce"/></g><g id="line" transform="translate(-9,-9)"><path id="path1" d="M 36.5,11 A 25.5,25.5 0 1 1 11,36.5 25.5288,25.5288 0 0 1 36.5,11 m 0,-2 A 27.5,27.5 0 1 0 64,36.5 27.5,27.5 0 0 0 36.5,9 Z"/><line id="line1" x1="21" x2="52" y1="25" y2="25" fill="none" stroke="#000" stroke-linecap="round" stroke-linejoin="round" stroke-width="2"/><polyline id="polyline1" fill="none" stroke="#000" stroke-linecap="round" stroke-linejoin="round" stroke-width="2" points="37.5 52.5 45.5 52.5 45.5 26.5"/><polyline id="polyline2" fill="none" stroke="#000" stroke-linecap="round" stroke-linejoin="round" stroke-width="2" points="25.5 47.5 25.5 33.5 37.5 33.5 37.5 43.5 26.5 43.5"/></g></svg>