<svg xmlns="http://www.w3.org/2000/svg" xmlns:svg="http://www.w3.org/2000/svg" id="emoji" width="58" height="58" version="1.1" viewBox="0 0 58 58"><g id="color" transform="translate(-7,-7)"><circle id="circle1" cx="36" cy="36" r="28" fill="#ea5a47" stroke="none" stroke-linejoin="round" stroke-miterlimit="10" stroke-width="2"/></g><g id="line" transform="translate(-7,-7)"><circle id="circle2" cx="36" cy="36" r="28" fill="none" stroke="#000" stroke-linejoin="round" stroke-width="2"/><path id="path2" fill="none" stroke="#000" stroke-linecap="round" stroke-linejoin="round" stroke-miterlimit="10" stroke-width="2" d="m 13.2,33 a 23,23 0 0 1 45.6,0 H 39 V 18.2 A 18,18 0 0 1 52.1,28 H 45 M 13.2,33 H 33 V 18.2 A 18,18 0 0 0 19.9,28 H 27 M 13.2,39 a 23,23 0 0 0 45.6,0 H 39 V 53.8 A 18,18 0 0 0 52.1,44 H 45 M 13.2,39 H 33 V 53.8 A 18,18 0 0 1 19.9,44 H 27 M 19.8,19.8 23,23 M 52.2,52.2 49,49 M 19.8,52.2 23,49 M 52.2,19.8 49,23 M 18.1,39 a 18,18 0 0 1 0,-6 m 35.8,6 a 18,18 0 0 0 0,-6"/></g></svg>