<svg xmlns="http://www.w3.org/2000/svg" xmlns:svg="http://www.w3.org/2000/svg" id="emoji" width="58" height="58" version="1.1" viewBox="0 0 58 58"><g id="color" transform="translate(-7,-7)"><circle id="circle1" cx="36" cy="36" r="28" fill="#ea5a47" stroke="none" stroke-linejoin="round" stroke-miterlimit="10" stroke-width="2"/></g><g id="line" transform="translate(-7,-7)"><circle id="circle2" cx="36" cy="36" r="28" fill="none" stroke="#000" stroke-linejoin="round" stroke-miterlimit="10" stroke-width="2"/><path id="path2" fill="none" stroke="#000" stroke-linecap="round" stroke-linejoin="round" stroke-width="2" d="M 23,36 H 49 M 24,31 h 24 m -12,0 v 5"/><path id="path3" fill="none" stroke="#000" stroke-linecap="round" stroke-linejoin="round" stroke-width="2" d="m 21.5,26 h 29 A 18,18 0 0 1 54,36 h 5 A 23,23 0 0 0 56.5,26"/><path id="path4" fill="none" stroke="#000" stroke-linecap="round" stroke-linejoin="round" stroke-width="2" d="M 21.5,26 A 18,18 0 0 0 18,36 h -5 a 23,23 0 0 1 2.5,-10"/><path id="path5" fill="none" stroke="#000" stroke-linecap="round" stroke-linejoin="round" stroke-width="2" d="M 14,42 H 58 A 23,23 0 0 1 39,59"/><path id="path6" fill="none" stroke="#000" stroke-linecap="round" stroke-linejoin="round" stroke-width="2" d="M 14,42 A 23,23 0 0 0 33,59"/><path id="path7" fill="none" stroke="#000" stroke-linecap="round" stroke-linejoin="round" stroke-width="2" d="M 22,47 H 50 A 23,23 0 0 1 39,53.8"/><path id="path8" fill="none" stroke="#000" stroke-linecap="round" stroke-linejoin="round" stroke-width="2" d="m 22,47 a 23,23 0 0 0 11,6.8"/><path id="path9" fill="none" stroke="#000" stroke-linecap="round" stroke-linejoin="round" stroke-width="2" d="m 36,42 v 5"/><path id="path10" fill="none" stroke="#000" stroke-linecap="round" stroke-linejoin="round" stroke-width="2" d="m 18.5,21 a 23,23 0 0 1 35,0"/><path id="path11" fill="none" stroke="#000" stroke-linecap="round" stroke-linejoin="round" stroke-width="2" d="m 26,21 a 18,18 0 0 1 20,0"/><path id="path12" fill="none" stroke="#000" stroke-linecap="round" stroke-linejoin="round" stroke-width="2" d="m 36,13 v 8"/></g></svg>