<svg xmlns="http://www.w3.org/2000/svg" xmlns:svg="http://www.w3.org/2000/svg" id="emoji" width="58" height="58" version="1.1" viewBox="0 0 58 58"><g id="color" transform="translate(-7,-7)"><circle id="circle1" cx="36" cy="36" r="28" fill="#ea5a47" stroke="none" stroke-linejoin="round" stroke-miterlimit="10" stroke-width="2"/></g><g id="line" transform="translate(-7,-7)"><circle id="circle2" cx="36" cy="36" r="28" fill="none" stroke="#000" stroke-linejoin="round" stroke-miterlimit="10" stroke-width="2"/><path id="path2" fill="none" stroke="#000" stroke-linecap="round" stroke-linejoin="round" stroke-width="2" d="m 39,36 h 19.8 a 23,23 0 0 0 -1,-6 H 39 Z"/><path id="path3" fill="none" stroke="#000" stroke-linecap="round" stroke-linejoin="round" stroke-width="2" d="M 33,36 H 13.2 a 23,23 0 0 1 1,-6 H 33 Z"/><path id="path4" fill="none" stroke="#000" stroke-linecap="round" stroke-linejoin="round" stroke-width="2" d="m 16.5,24 h 39 M 22,18 H 50 M 31,13.5 V 24 M 41,13.5 V 24"/><path id="path5" fill="none" stroke="#000" stroke-linecap="round" stroke-linejoin="round" stroke-width="2" d="M 14,42 H 58 M 28,36 V 48 M 44,36 v 12"/><path id="path6" fill="none" stroke="#000" stroke-linecap="round" stroke-linejoin="round" stroke-width="2" d="M 33,48 H 16.5 A 23,23 0 0 0 33,58.8 Z"/><path id="path7" fill="none" stroke="#000" stroke-linecap="round" stroke-linejoin="round" stroke-width="2" d="M 39,48 H 55.5 A 23,23 0 0 1 39,58.8 Z"/></g></svg>