<?xml version="1.0" encoding="UTF-8" standalone="no"?>
<svg
   id="emoji"
   viewBox="0 0 58 58"
   version="1.1"
   sodipodi:docname="1f264.svg"
   width="58"
   height="58"
   xmlns:inkscape="http://www.inkscape.org/namespaces/inkscape"
   xmlns:sodipodi="http://sodipodi.sourceforge.net/DTD/sodipodi-0.dtd"
   xmlns="http://www.w3.org/2000/svg"
   xmlns:svg="http://www.w3.org/2000/svg">
  <defs
     id="defs7" />
  <sodipodi:namedview
     id="namedview7"
     pagecolor="#ffffff"
     bordercolor="#000000"
     borderopacity="0.25"
     inkscape:showpageshadow="2"
     inkscape:pageopacity="0.0"
     inkscape:pagecheckerboard="0"
     inkscape:deskcolor="#d1d1d1" />
  <g
     id="color"
     transform="translate(-7,-7)">
    <circle
       cx="36"
       cy="36"
       r="28"
       fill="#ea5a47"
       stroke="none"
       stroke-linejoin="round"
       stroke-miterlimit="10"
       stroke-width="2"
       id="circle1" />
  </g>
  <g
     id="hair"
     transform="translate(-7,-7)" />
  <g
     id="skin"
     transform="translate(-7,-7)" />
  <g
     id="skin-shadow"
     transform="translate(-7,-7)" />
  <g
     id="line"
     transform="translate(-7,-7)">
    <circle
       cx="36"
       cy="36"
       r="28"
       fill="none"
       stroke="#000000"
       stroke-linejoin="round"
       stroke-miterlimit="10"
       stroke-width="2"
       id="circle2" />
    <path
       fill="none"
       stroke="#000000"
       stroke-linecap="round"
       stroke-linejoin="round"
       stroke-width="2"
       d="m 39,36 h 19.8 a 23,23 0 0 0 -1,-6 H 39 Z"
       id="path2" />
    <path
       fill="none"
       stroke="#000000"
       stroke-linecap="round"
       stroke-linejoin="round"
       stroke-width="2"
       d="M 33,36 H 13.2 a 23,23 0 0 1 1,-6 H 33 Z"
       id="path3" />
    <path
       fill="none"
       stroke="#000000"
       stroke-linecap="round"
       stroke-linejoin="round"
       stroke-width="2"
       d="m 16.5,24 h 39 M 22,18 H 50 M 31,13.5 V 24 M 41,13.5 V 24"
       id="path4" />
    <path
       fill="none"
       stroke="#000000"
       stroke-linecap="round"
       stroke-linejoin="round"
       stroke-width="2"
       d="M 14,42 H 58 M 28,36 V 48 M 44,36 v 12"
       id="path5" />
    <path
       fill="none"
       stroke="#000000"
       stroke-linecap="round"
       stroke-linejoin="round"
       stroke-width="2"
       d="M 33,48 H 16.5 A 23,23 0 0 0 33,58.8 Z"
       id="path6" />
    <path
       fill="none"
       stroke="#000000"
       stroke-linecap="round"
       stroke-linejoin="round"
       stroke-width="2"
       d="M 39,48 H 55.5 A 23,23 0 0 1 39,58.8 Z"
       id="path7" />
  </g>
</svg>
