<svg xmlns="http://www.w3.org/2000/svg" xmlns:svg="http://www.w3.org/2000/svg" id="emoji" width="50" height="50" version="1.1" viewBox="0 0 50 50"><g id="line-supplement" transform="translate(-11,-11)"><g id="g4"><g id="g2"><path id="path1" fill="none" stroke="#000" stroke-linecap="round" stroke-miterlimit="10" stroke-width="2" d="m 41.7734,19.4732 a 7.2185,7.2185 0 0 1 -5.695,9.864"/><path id="path2" fill="none" stroke="#000" stroke-linecap="round" stroke-miterlimit="10" stroke-width="2" d="m 41.7734,19.4732 a 6.0541,6.0541 0 0 1 -5.695,9.864"/></g><polygon id="polygon2" stroke="#000" stroke-linejoin="round" stroke-width="2" points="23.166 21.533 25 20.18 22.721 20.073 22 18 21.279 20.162 19 20.18 20.834 21.533 20.146 23.706 22 22.381 23.854 23.706"/><polygon id="polygon3" stroke="#000" stroke-linejoin="round" stroke-width=".75" points="27.389 32.178 28 31.727 27.24 31.721 27 31 26.76 31.721 26 31.727 26.611 32.088 26.382 32.902 27 32.46 27.618 32.902"/><polygon id="polygon4" stroke="#000" stroke-linejoin="round" points="52.083 25.913 53 25.237 51.86 25.138 51.5 24.147 51.14 25.228 50 25.237 50.917 25.913 50.573 27 51.5 26.337 52.427 27"/></g></g><g id="color" transform="translate(-11,-11)"><rect id="rect4" width="48" height="48" x="12" y="12" fill="#1e50a0" rx="1"/><g id="g7"><g id="g5"><path id="path4" fill="none" stroke="#f1b31c" stroke-linecap="round" stroke-miterlimit="10" stroke-width="2" d="m 41.7734,19.4732 a 7.2185,7.2185 0 0 1 -5.695,9.864"/><path id="path5" fill="none" stroke="#f1b31c" stroke-linecap="round" stroke-miterlimit="10" stroke-width="2" d="m 41.7734,19.4732 a 6.0541,6.0541 0 0 1 -5.695,9.864"/></g><polygon id="polygon5" fill="#f1b31c" stroke="#f1b31c" stroke-linejoin="round" stroke-width="2" points="23.166 21.533 25 20.18 22.721 20.073 22 18 21.279 20.162 19 20.18 20.834 21.533 20.146 23.706 22 22.381 23.854 23.706"/><polygon id="polygon6" fill="#f1b31c" stroke="#f1b31c" stroke-linejoin="round" stroke-width=".75" points="27.389 32.178 28 31.727 27.24 31.721 27 31 26.76 31.721 26 31.727 26.611 32.088 26.382 32.902 27 32.46 27.618 32.902"/><polygon id="polygon7" fill="#f1b31c" stroke="#f1b31c" stroke-linejoin="round" points="52.083 25.913 53 25.237 51.86 25.138 51.5 24.147 51.14 25.228 50 25.237 50.917 25.913 50.573 27 51.5 26.337 52.427 27"/></g></g><g id="line" transform="translate(-11,-11)"><g id="g22"><line id="line7" x1="12.923" x2="59.077" y1="48.039" y2="48.039" fill="none" stroke="#000" stroke-linecap="round" stroke-miterlimit="10" stroke-width="2"/><line id="line8" x1="24" x2="12" y1="36.961" y2="48.039" fill="none" stroke="#000" stroke-linecap="round" stroke-miterlimit="10" stroke-width="2"/><line id="line9" x1="24" x2="24" y1="36.961" y2="60.039" fill="none" stroke="#000" stroke-miterlimit="10" stroke-width="2"/><line id="line10" x1="48" x2="48" y1="60.039" y2="36.961" fill="none" stroke="#000" stroke-miterlimit="10" stroke-width="2"/><g id="g12"><line id="line11" x1="24" x2="16.615" y1="41.222" y2="48.039" fill="none" stroke="#000" stroke-miterlimit="10" stroke-width="2"/><line id="line12" x1="24" x2="21.231" y1="45.482" y2="48.039" fill="none" stroke="#000" stroke-miterlimit="10" stroke-width="2"/></g><line id="line13" x1="48" x2="36" y1="36.961" y2="48.039" fill="none" stroke="#000" stroke-linecap="round" stroke-miterlimit="10" stroke-width="2"/><g id="g15"><line id="line14" x1="48" x2="40.615" y1="41.222" y2="48.039" fill="none" stroke="#000" stroke-miterlimit="10" stroke-width="2"/><line id="line15" x1="48" x2="45.231" y1="45.482" y2="48.039" fill="none" stroke="#000" stroke-miterlimit="10" stroke-width="2"/></g><line id="line16" x1="24" x2="36" y1="36.961" y2="48.039" fill="none" stroke="#000" stroke-linecap="round" stroke-miterlimit="10" stroke-width="2"/><g id="g18"><line id="line17" x1="24" x2="31.385" y1="41.222" y2="48.039" fill="none" stroke="#000" stroke-miterlimit="10" stroke-width="2"/><line id="line18" x1="24" x2="26.769" y1="45.482" y2="48.039" fill="none" stroke="#000" stroke-miterlimit="10" stroke-width="2"/></g><line id="line19" x1="48" x2="60" y1="36.961" y2="48.039" fill="none" stroke="#000" stroke-linecap="round" stroke-miterlimit="10" stroke-width="2"/><g id="g21"><line id="line20" x1="48" x2="55.385" y1="41.222" y2="48.039" fill="none" stroke="#000" stroke-miterlimit="10" stroke-width="2"/><line id="line21" x1="48" x2="50.769" y1="45.482" y2="48.039" fill="none" stroke="#000" stroke-miterlimit="10" stroke-width="2"/></g><rect id="rect21" width="48" height="48" x="12" y="12" fill="none" stroke="#000" stroke-linejoin="round" stroke-width="2" rx="1"/></g></g></svg>