<?xml version="1.0" encoding="UTF-8" standalone="no"?>
<svg
   id="emoji"
   viewBox="0 0 64.075996 64.101898"
   version="1.1"
   sodipodi:docname="1f306.svg"
   width="64.075996"
   height="64.101898"
   xmlns:inkscape="http://www.inkscape.org/namespaces/inkscape"
   xmlns:sodipodi="http://sodipodi.sourceforge.net/DTD/sodipodi-0.dtd"
   xmlns="http://www.w3.org/2000/svg"
   xmlns:svg="http://www.w3.org/2000/svg">
  <defs
     id="defs29" />
  <sodipodi:namedview
     id="namedview29"
     pagecolor="#ffffff"
     bordercolor="#000000"
     borderopacity="0.25"
     inkscape:showpageshadow="2"
     inkscape:pageopacity="0.0"
     inkscape:pagecheckerboard="0"
     inkscape:deskcolor="#d1d1d1" />
  <g
     id="color"
     transform="translate(-3.924,-3.8980999)">
    <rect
       x="4"
       y="3.8980999"
       width="64"
       height="64.101898"
       fill="#e27022"
       id="rect1" />
    <polyline
       fill="#9b9b9a"
       points="9.923 46 9.923 29 19.923 29 19.923 46"
       id="polyline1" />
    <rect
       x="33.9231"
       y="33"
       width="13"
       height="35"
       fill="#9b9b9a"
       id="rect2" />
    <polyline
       fill="#d0cfce"
       points="50.923 68 50.923 37 66.923 37 66.923 68"
       id="polyline2" />
    <polyline
       fill="#d0cfce"
       points="4.923 68 4.923 46 38.923 46 38.923 68"
       id="polyline3" />
    <rect
       x="8.9231005"
       y="49.003502"
       width="2.9913001"
       height="5.9965"
       fill="#fcea2b"
       id="rect3" />
    <rect
       x="14.9231"
       y="49.003502"
       width="2.9913001"
       height="5.9965"
       fill="#fcea2b"
       id="rect4" />
    <rect
       x="26.9231"
       y="49.003502"
       width="2.9913001"
       height="5.9965"
       fill="#fcea2b"
       id="rect5" />
    <rect
       x="32.9231"
       y="49.003502"
       width="2.9913001"
       height="5.9965"
       fill="#fcea2b"
       id="rect6" />
    <rect
       x="54.9231"
       y="40.003502"
       width="2.9913001"
       height="5.9965"
       fill="#fcea2b"
       id="rect7" />
    <rect
       x="60.9231"
       y="50.003502"
       width="2.9913001"
       height="5.9965"
       fill="#fcea2b"
       id="rect8" />
    <rect
       x="60.9231"
       y="60.003502"
       width="2.9913001"
       height="5.9965"
       fill="#fcea2b"
       id="rect9" />
    <rect
       x="54.9231"
       y="60.003502"
       width="2.9913001"
       height="5.9965"
       fill="#fcea2b"
       id="rect10" />
    <rect
       x="32.9231"
       y="59.003502"
       width="2.9913001"
       height="5.9965"
       fill="#fcea2b"
       id="rect11" />
    <rect
       x="20.9231"
       y="59.003502"
       width="2.9913001"
       height="5.9965"
       fill="#fcea2b"
       id="rect12" />
    <rect
       x="8.9231005"
       y="59.003502"
       width="2.9913001"
       height="5.9965"
       fill="#fcea2b"
       id="rect13" />
  </g>
  <g
     id="line"
     transform="translate(-3.924,-3.8980999)">
    <polyline
       fill="none"
       stroke="#000000"
       stroke-linecap="round"
       stroke-linejoin="round"
       stroke-width="2"
       points="50.924 66.629 50.924 36.629 66.924 36.629 66.924 66.629"
       id="polyline13" />
    <polyline
       fill="none"
       stroke="#000000"
       stroke-linecap="round"
       stroke-linejoin="round"
       stroke-width="2"
       points="4.924 66.629 4.924 45.629 38.924 45.629 38.924 66.629"
       id="polyline14" />
    <polyline
       fill="none"
       stroke="#000000"
       stroke-linecap="round"
       stroke-linejoin="round"
       stroke-width="2"
       points="34.924 42.629 34.924 32.629 46.924 32.629 46.924 66.629"
       id="polyline15" />
    <polyline
       fill="none"
       stroke="#000000"
       stroke-linecap="round"
       stroke-linejoin="round"
       stroke-width="2"
       points="10.924 42.629 10.924 28.629 18.924 28.629 18.924 42.629"
       id="polyline16" />
    <polyline
       fill="none"
       stroke="#000000"
       stroke-linecap="round"
       stroke-linejoin="round"
       stroke-width="2"
       points="56.924 45.629 54.924 45.629 54.924 40.629"
       id="polyline17" />
    <polyline
       fill="none"
       stroke="#000000"
       stroke-linecap="round"
       stroke-linejoin="round"
       stroke-width="2"
       points="62.924 55.629 60.924 55.629 60.924 50.629"
       id="polyline18" />
    <polyline
       fill="none"
       stroke="#000000"
       stroke-linecap="round"
       stroke-linejoin="round"
       stroke-width="2"
       points="28.924 54.629 26.924 54.629 26.924 49.629"
       id="polyline19" />
    <polyline
       fill="none"
       stroke="#000000"
       stroke-linecap="round"
       stroke-linejoin="round"
       stroke-width="2"
       points="34.924 54.629 32.924 54.629 32.924 49.629"
       id="polyline20" />
    <polyline
       fill="none"
       stroke="#000000"
       stroke-linecap="round"
       stroke-linejoin="round"
       stroke-width="2"
       points="34.924 64.629 32.924 64.629 32.924 59.629"
       id="polyline21" />
    <polyline
       fill="none"
       stroke="#000000"
       stroke-linecap="round"
       stroke-linejoin="round"
       stroke-width="2"
       points="16.924 54.629 14.924 54.629 14.924 49.629"
       id="polyline22" />
    <polyline
       fill="none"
       stroke="#000000"
       stroke-linecap="round"
       stroke-linejoin="round"
       stroke-width="2"
       points="10.924 54.629 8.924 54.629 8.924 49.629"
       id="polyline23" />
    <polyline
       fill="none"
       stroke="#000000"
       stroke-linecap="round"
       stroke-linejoin="round"
       stroke-width="2"
       points="10.924 64.629 8.924 64.629 8.924 59.629"
       id="polyline24" />
    <polyline
       fill="none"
       stroke="#000000"
       stroke-linecap="round"
       stroke-linejoin="round"
       stroke-width="2"
       points="22.924 64.629 20.924 64.629 20.924 59.629"
       id="polyline25" />
    <polyline
       fill="none"
       stroke="#000000"
       stroke-linecap="round"
       stroke-linejoin="round"
       stroke-width="2"
       points="56.924 65.629 54.924 65.629 54.924 60.629"
       id="polyline26" />
    <polyline
       fill="none"
       stroke="#000000"
       stroke-linecap="round"
       stroke-linejoin="round"
       stroke-width="2"
       points="62.924 65.629 60.924 65.629 60.924 60.629"
       id="polyline27" />
    <line
       x1="14.9236"
       x2="14.9236"
       y1="31.629"
       y2="42.629002"
       fill="none"
       stroke="#000000"
       stroke-linecap="round"
       stroke-linejoin="round"
       stroke-width="2"
       id="line27" />
    <line
       x1="38.923599"
       x2="38.923599"
       y1="35.629002"
       y2="42.629002"
       fill="none"
       stroke="#000000"
       stroke-linecap="round"
       stroke-linejoin="round"
       stroke-width="2"
       id="line28" />
    <line
       x1="42.923599"
       x2="42.923599"
       y1="35.629002"
       y2="66.628998"
       fill="none"
       stroke="#000000"
       stroke-linecap="round"
       stroke-linejoin="round"
       stroke-width="2"
       id="line29" />
  </g>
</svg>
