<svg xmlns="http://www.w3.org/2000/svg" xmlns:svg="http://www.w3.org/2000/svg" id="emoji" width="56" height="53.434" version="1.1" viewBox="0 0 56 53.434"><g id="color" transform="translate(-8,-3.5662713)"><path id="path1" fill="#d0cfce" stroke="#d0cfce" stroke-linecap="round" stroke-linejoin="round" stroke-miterlimit="10" stroke-width="1.8" d="m 28.8,9.1 c -0.4,-0.7 1.6,-4.2 4.6,-4.4 3,-0.3 5.2,1.5 4.4,3.6 -0.8,2.1 -2.1,2.2 -2.8,2.3 l 3.2,1.7 c -0.8,2.1 -7.8,2.7 -6.5,5.6 l -4,0.4 c 0.1,-1.5 0,-3.7 -1.5,-4.9 C 25.1,12.5 23.4,12.3 22,11.8 20,11.1 20,9.1 20.6,7.8 21.3,6.4 22.4,5 24,5 c 1,0 2,0 3,1 z"/><polygon id="polygon1" fill="#9b9b9a" points="53 40 45 34 40 34 36 22 40 34 36 22 32 24 24.2 22.1 19 34 17 46 9 57 63 57 56.4 49.1"/><path id="path2" fill="#ea5a47" d="m 33.7,22.3 c 1.4,0.4 0.8,2.1 1.5,4.4 0.4,1.4 0.3,1.8 0.3,2 -0.5,1.3 -1.2,1.2 -1.7,2.4 -0.4,1.1 0.7,1.6 0.4,3 -0.3,1.4 -1.7,2.7 -2.7,2.4 -0.8,-0.2 -1.1,-1.3 -1.3,-1.8 -0.5,-1.8 0.2,-3.5 0.4,-4.1 0.8,-1.8 1.7,-2.2 1.5,-3.3 -0.1,-1 -1,-1.6 -1.3,-1.8 -0.8,-0.6 -2.1,-1 -3.1,-0.6 -1.9,0.8 -2.4,4.6 -2,7.4 0.4,2.2 2.8,7 2.2,8.7 -0.2,0.7 -2,-3.1 -3.2,-1.5 -1.1,1.4 0.4,5.3 -1.8,6.6 -1.3,0.7 -1.7,-3.9 -1.8,-3.9 -0.3,0 -1,1.5 -0.3,-2.1 0.4,-2.4 1.7,-1.4 2.1,-4 0.2,-1.5 0.1,-4 -0.1,-6 -0.3,-3 -1.4,-2.7 -1.1,-5.1 0.1,-0.8 0.8,-1.5 2,-2.1 0.5,-0.2 0.2,-1.9 2.4,-1.8 3.6,0.2 4.1,1.4 5.2,1.3 1.4,-0.1 1.7,-0.3 2.4,-0.1 z"/></g><g id="line" transform="translate(-8,-3.5662713)"><polyline id="polyline2" fill="none" stroke="#000" stroke-linecap="round" stroke-linejoin="round" stroke-miterlimit="10" stroke-width="2" points="63 56 56.4 49.1 53 40"/><polyline id="polyline3" fill="none" stroke="#000" stroke-linecap="round" stroke-linejoin="round" stroke-miterlimit="10" stroke-width="2" points="24 22 19 34 17 46 9 56"/><polyline id="polyline4" fill="none" stroke="#000" stroke-linecap="round" stroke-linejoin="round" stroke-miterlimit="10" stroke-width="2" points="40 34 36 22 34.4 22.8"/><polyline id="polyline5" fill="none" stroke="#000" stroke-linecap="round" stroke-linejoin="round" stroke-miterlimit="10" stroke-width="2" points="40 34 45 34 53 40 52 46 53 51 51 53 48 56"/><path id="path5" fill="none" stroke="#000" stroke-linecap="round" stroke-linejoin="round" stroke-miterlimit="10" stroke-width="1.8" d="m 33.7,22.3 c 1.4,0.4 0.8,2.1 1.5,4.4 0.4,1.4 0.3,1.8 0.3,2 -0.5,1.3 -1.2,1.2 -1.7,2.4 -0.4,1.1 0.7,1.6 0.4,3 -0.3,1.4 -1.7,2.7 -2.7,2.4 -0.8,-0.2 -1.1,-1.3 -1.3,-1.8 -0.5,-1.8 0.2,-3.5 0.4,-4.1 0.8,-1.8 1.7,-2.2 1.5,-3.3 -0.1,-1 -1,-1.6 -1.3,-1.8 -0.8,-0.6 -2.1,-1 -3.1,-0.6 -1.9,0.8 -2.4,4.6 -2,7.4 0.4,2.2 2.8,7 2.2,8.7 -0.2,0.7 -2,-3.1 -3.2,-1.5 -1.1,1.4 0.4,5.3 -1.8,6.6 -1.3,0.7 -1.7,-3.9 -1.8,-3.9 -0.3,0 -1,1.5 -0.3,-2.1 0.4,-2.4 1.7,-1.4 2.1,-4 0.2,-1.5 0.1,-4 -0.1,-6 -0.3,-3 -1.4,-2.7 -1.1,-5.1 0.1,-0.8 0.8,-1.5 2,-2.1 0.5,-0.2 0.2,-1.9 2.4,-1.8 3.6,0.2 4.1,1.4 5.2,1.3 1.4,-0.1 1.7,-0.3 2.4,-0.1 z"/><path id="path6" fill="none" stroke="#000" stroke-linecap="round" stroke-linejoin="round" stroke-miterlimit="10" stroke-width="2" d="M 24.2,16.3 C 23.8,14.7 20.9,13.9 17.7,14.6"/><path id="path7" fill="none" stroke="#000" stroke-linecap="round" stroke-linejoin="round" stroke-miterlimit="10" stroke-width="2" d="M 35,18.9 C 37.7,17 41.7,18 43.9,21.2"/><path id="path8" fill="none" stroke="#000" stroke-linecap="round" stroke-linejoin="round" stroke-miterlimit="10" stroke-width="2" d="M 22.8,19.9 C 21.3,18.3 14.3,15.8 13,24.1"/><path id="path9" fill="none" stroke="#000" stroke-linecap="round" stroke-linejoin="round" stroke-miterlimit="10" stroke-width="2" d="M 27,6 C 26,5 25,5 24,5 22.4,5 21.3,6.4 20.6,7.7 20,9 20,11 22,11.7 c 1.3,0.5 3.1,0.7 4.2,1.6 1.5,1.2 1.5,3.4 1.5,4.9"/><path id="path10" fill="none" stroke="#000" stroke-linecap="round" stroke-linejoin="round" stroke-miterlimit="10" stroke-width="2" d="m 34.9,10.5 c 0.7,-0.1 2,-0.2 2.8,-2.3 0.8,-2.1 -1.4,-3.9 -4.4,-3.6 -3,0.3 -5,3.8 -4.6,4.4"/><path id="path11" fill="none" stroke="#000" stroke-linecap="round" stroke-linejoin="round" stroke-miterlimit="10" stroke-width="2" d="M 31.6,17.9 C 30.3,15 37.3,14.4 38.1,12.3"/></g></svg>