<?xml version="1.0" encoding="UTF-8" standalone="no"?>
<svg
   id="emoji"
   viewBox="0 0 64.089996 64"
   version="1.1"
   sodipodi:docname="1f307.svg"
   width="64.089996"
   height="64"
   xmlns:inkscape="http://www.inkscape.org/namespaces/inkscape"
   xmlns:sodipodi="http://sodipodi.sourceforge.net/DTD/sodipodi-0.dtd"
   xmlns="http://www.w3.org/2000/svg"
   xmlns:svg="http://www.w3.org/2000/svg">
  <defs
     id="defs34" />
  <sodipodi:namedview
     id="namedview34"
     pagecolor="#ffffff"
     bordercolor="#000000"
     borderopacity="0.25"
     inkscape:showpageshadow="2"
     inkscape:pageopacity="0.0"
     inkscape:pagecheckerboard="0"
     inkscape:deskcolor="#d1d1d1" />
  <g
     id="color"
     transform="translate(-4,-4)">
    <rect
       x="4"
       y="4"
       width="64.089996"
       height="64"
       fill="#e27022"
       id="rect1" />
    <polyline
       fill="#f4aa41"
       points="4 31.112 25.09 36.627 24.647 41.607 4 41.035"
       id="polyline1" />
    <polyline
       fill="#f4aa41"
       points="68.09 31.112 47 36.627 47.443 41.607 68.09 41.035"
       id="polyline2" />
    <polyline
       fill="#f4aa41"
       points="68.09 11.879 51.09 31.879 47.09 28.879 59.927 4.008 68.09 4"
       id="polyline3" />
    <polyline
       fill="#f4aa41"
       points="4 4 4.001 13.364 6.109 15.355 24.64 33.945 28.39 30.638 12.1 4"
       id="polyline4" />
    <polyline
       fill="#f4aa41"
       points="32.502 4 34.438 26.255 39.421 26.666 42.692 4"
       id="polyline5" />
    <circle
       cx="37.09"
       cy="35.879398"
       r="15"
       fill="#fcea2b"
       id="circle5" />
    <polyline
       fill="#9b9b9a"
       points="10.013 45.981 10.013 28.981 20.013 28.981 20.013 45.981"
       id="polyline6" />
    <rect
       x="34.0131"
       y="32.9814"
       width="13"
       height="35.0186"
       fill="#9b9b9a"
       id="rect6" />
    <polyline
       fill="#d0cfce"
       points="51.013 68 51.013 36.981 67.013 36.981 67.013 68"
       id="polyline7" />
    <polyline
       fill="#d0cfce"
       points="5.013 68 5.013 45.981 39.013 45.981 39.013 68"
       id="polyline8" />
    <rect
       x="9.0130997"
       y="48.984798"
       width="2.9913001"
       height="5.9965"
       fill="#fcea2b"
       id="rect8" />
    <rect
       x="15.0131"
       y="48.984798"
       width="2.9913001"
       height="5.9965"
       fill="#fcea2b"
       id="rect9" />
    <rect
       x="27.0131"
       y="48.984798"
       width="2.9913001"
       height="5.9965"
       fill="#fcea2b"
       id="rect10" />
    <rect
       x="33.0131"
       y="48.984798"
       width="2.9913001"
       height="5.9965"
       fill="#fcea2b"
       id="rect11" />
    <rect
       x="55.0131"
       y="39.984798"
       width="2.9913001"
       height="5.9965"
       fill="#fcea2b"
       id="rect12" />
    <rect
       x="61.0131"
       y="49.984798"
       width="2.9913001"
       height="5.9965"
       fill="#fcea2b"
       id="rect13" />
    <rect
       x="61.0131"
       y="59.984798"
       width="2.9913001"
       height="5.9965"
       fill="#fcea2b"
       id="rect14" />
    <rect
       x="55.0131"
       y="59.984798"
       width="2.9913001"
       height="5.9965"
       fill="#fcea2b"
       id="rect15" />
    <rect
       x="33.0131"
       y="58.984798"
       width="2.9913001"
       height="5.9965"
       fill="#fcea2b"
       id="rect16" />
    <rect
       x="21.0131"
       y="58.984798"
       width="2.9913001"
       height="5.9965"
       fill="#fcea2b"
       id="rect17" />
    <rect
       x="9.0130997"
       y="58.984798"
       width="2.9913001"
       height="5.9965"
       fill="#fcea2b"
       id="rect18" />
  </g>
  <g
     id="line"
     transform="translate(-4,-4)">
    <polyline
       fill="none"
       stroke="#000000"
       stroke-linecap="round"
       stroke-linejoin="round"
       stroke-width="2"
       points="51.013 66.981 51.013 36.981 67.013 36.981 67.013 66.981"
       id="polyline18" />
    <polyline
       fill="none"
       stroke="#000000"
       stroke-linecap="round"
       stroke-linejoin="round"
       stroke-width="2"
       points="5.013 66.981 5.013 45.981 39.013 45.981 39.013 66.981"
       id="polyline19" />
    <polyline
       fill="none"
       stroke="#000000"
       stroke-linecap="round"
       stroke-linejoin="round"
       stroke-width="2"
       points="35.013 42.981 35.013 32.981 47.013 32.981 47.013 66.981"
       id="polyline20" />
    <polyline
       fill="none"
       stroke="#000000"
       stroke-linecap="round"
       stroke-linejoin="round"
       stroke-width="2"
       points="11.013 42.981 11.013 28.981 19.013 28.981 19.013 42.981"
       id="polyline21" />
    <polyline
       fill="none"
       stroke="#000000"
       stroke-linecap="round"
       stroke-linejoin="round"
       stroke-width="2"
       points="57.013 45.981 55.013 45.981 55.013 40.981"
       id="polyline22" />
    <polyline
       fill="none"
       stroke="#000000"
       stroke-linecap="round"
       stroke-linejoin="round"
       stroke-width="2"
       points="63.013 55.981 61.013 55.981 61.013 50.981"
       id="polyline23" />
    <polyline
       fill="none"
       stroke="#000000"
       stroke-linecap="round"
       stroke-linejoin="round"
       stroke-width="2"
       points="29.013 54.981 27.013 54.981 27.013 49.981"
       id="polyline24" />
    <polyline
       fill="none"
       stroke="#000000"
       stroke-linecap="round"
       stroke-linejoin="round"
       stroke-width="2"
       points="35.013 54.981 33.013 54.981 33.013 49.981"
       id="polyline25" />
    <polyline
       fill="none"
       stroke="#000000"
       stroke-linecap="round"
       stroke-linejoin="round"
       stroke-width="2"
       points="35.013 64.981 33.013 64.981 33.013 59.981"
       id="polyline26" />
    <polyline
       fill="none"
       stroke="#000000"
       stroke-linecap="round"
       stroke-linejoin="round"
       stroke-width="2"
       points="17.013 54.981 15.013 54.981 15.013 49.981"
       id="polyline27" />
    <polyline
       fill="none"
       stroke="#000000"
       stroke-linecap="round"
       stroke-linejoin="round"
       stroke-width="2"
       points="11.013 54.981 9.013 54.981 9.013 49.981"
       id="polyline28" />
    <polyline
       fill="none"
       stroke="#000000"
       stroke-linecap="round"
       stroke-linejoin="round"
       stroke-width="2"
       points="11.013 64.981 9.013 64.981 9.013 59.981"
       id="polyline29" />
    <polyline
       fill="none"
       stroke="#000000"
       stroke-linecap="round"
       stroke-linejoin="round"
       stroke-width="2"
       points="23.013 64.981 21.013 64.981 21.013 59.981"
       id="polyline30" />
    <polyline
       fill="none"
       stroke="#000000"
       stroke-linecap="round"
       stroke-linejoin="round"
       stroke-width="2"
       points="57.013 65.981 55.013 65.981 55.013 60.981"
       id="polyline31" />
    <polyline
       fill="none"
       stroke="#000000"
       stroke-linecap="round"
       stroke-linejoin="round"
       stroke-width="2"
       points="63.013 65.981 61.013 65.981 61.013 60.981"
       id="polyline32" />
    <line
       x1="15.0131"
       x2="15.0131"
       y1="31.9814"
       y2="42.9814"
       fill="none"
       stroke="#000000"
       stroke-linecap="round"
       stroke-linejoin="round"
       stroke-width="2"
       id="line32" />
    <line
       x1="39.0131"
       x2="39.0131"
       y1="35.9814"
       y2="42.9814"
       fill="none"
       stroke="#000000"
       stroke-linecap="round"
       stroke-linejoin="round"
       stroke-width="2"
       id="line33" />
    <line
       x1="43.0131"
       x2="43.0131"
       y1="35.9814"
       y2="66.9814"
       fill="none"
       stroke="#000000"
       stroke-linecap="round"
       stroke-linejoin="round"
       stroke-width="2"
       id="line34" />
    <path
       fill="none"
       stroke="#000000"
       stroke-linecap="round"
       stroke-miterlimit="10"
       stroke-width="2"
       d="M 23.8748,42.982 A 15.002,15.002 0 1 1 51.9664,33.9448"
       id="path34" />
  </g>
</svg>
