<svg xmlns="http://www.w3.org/2000/svg" xmlns:svg="http://www.w3.org/2000/svg" id="emoji" width="58.103" height="58.101" version="1.1" viewBox="0 0 58.103 58.101"><g id="color" transform="translate(-6.947,-6.9500387)"><path id="path1" fill="#ea5a47" d="m 64.05,7.95 v 5.121 c -27.56,0 -51.03,23.42 -51.03,50.98 H 7.953 c 0,-30.99 25.11,-56.1 56.1,-56.1 z"/><path id="path2" fill="#f4aa41" d="m 64.05,13.07 v 5.12 c -24.4,0 -45.86,21.46 -45.86,45.86 h -5.178 c 0,-27.56 23.48,-50.98 51.04,-50.98 z"/><path id="path3" fill="#fcea2b" d="m 64.05,18.19 v 5.121 c -21.51,0 -40.74,19.25 -40.74,40.74 h -5.121 c 0,-24.4 21.46,-45.86 45.86,-45.86 z"/><path id="path4" fill="#b1cc33" d="m 64.05,23.31 v 5.121 c -18.88,0 -35.61,16.83 -35.61,35.62 l -5.131,-8.8e-5 c 0,-21.48 19.23,-40.74 40.74,-40.74 z"/><path id="path5" fill="#92d3f5" d="m 64.05,28.43 v 5.12 c -16.34,0 -30.5,14.22 -30.5,30.5 h -5.11 c 0,-18.78 16.73,-35.62 35.61,-35.62 z"/><path id="path6" fill="#b399c8" d="m 64.05,33.55 v 5.121 c -14.02,0 -25.38,11.36 -25.38,25.38 h -5.121 c 0,-16.28 14.16,-30.5 30.5,-30.5 z"/></g><g id="line" stroke-miterlimit="10" transform="translate(-6.947,-6.9500387)"><path id="path7" fill="none" stroke="#000" stroke-linecap="round" stroke-linejoin="round" stroke-miterlimit="10" stroke-width="2" d="m 64.05,7.95 v 5.121 c -27.56,0 -51.04,23.42 -51.04,50.98 H 7.947 c 0,-30.99 25.11,-56.1 56.1,-56.1 z"/><path id="path8" fill="none" stroke="#000" stroke-linecap="round" stroke-linejoin="round" stroke-miterlimit="10" stroke-width="2" d="m 64.05,13.07 v 5.12 c -24.4,0 -45.86,21.46 -45.86,45.86 h -5.174 c 0,-27.56 23.47,-50.98 51.03,-50.98 z"/><path id="path9" fill="none" stroke="#000" stroke-linecap="round" stroke-linejoin="round" stroke-miterlimit="10" stroke-width="2" d="m 64.05,18.19 v 5.121 c -21.51,0 -40.74,19.25 -40.74,40.74 h -5.121 c 0,-24.4 21.46,-45.86 45.86,-45.86 z"/><path id="path10" fill="none" stroke="#000" stroke-linecap="round" stroke-linejoin="round" stroke-miterlimit="10" stroke-width="2" d="m 64.05,23.31 v 5.121 c -18.88,0 -35.61,16.83 -35.61,35.62 h -5.131 c 0,-21.48 19.23,-40.74 40.74,-40.74 z"/><path id="path11" fill="none" stroke="#000" stroke-linecap="round" stroke-linejoin="round" stroke-miterlimit="10" stroke-width="2" d="m 64.05,28.43 v 5.12 c -16.34,0 -30.5,14.22 -30.5,30.5 h -5.11 c 0,-18.78 16.73,-35.62 35.61,-35.62 z"/><path id="path12" fill="none" stroke="#000" stroke-linecap="round" stroke-linejoin="round" stroke-miterlimit="10" stroke-width="2" d="m 64.05,33.55 v 5.121 c -14.02,0 -25.38,11.36 -25.38,25.38 h -5.121 c 0,-16.28 14.16,-30.5 30.5,-30.5 z"/></g></svg>