<svg xmlns="http://www.w3.org/2000/svg" xmlns:svg="http://www.w3.org/2000/svg" id="emoji" width="64.076" height="64.102" version="1.1" viewBox="0 0 64.076 64.102"><g id="color" transform="translate(-3.924,-3.8980999)"><rect id="rect1" width="64" height="64.102" x="4" y="3.898" fill="#e27022"/><polyline id="polyline1" fill="#9b9b9a" points="9.923 46 9.923 29 19.923 29 19.923 46"/><rect id="rect2" width="13" height="35" x="33.923" y="33" fill="#9b9b9a"/><polyline id="polyline2" fill="#d0cfce" points="50.923 68 50.923 37 66.923 37 66.923 68"/><polyline id="polyline3" fill="#d0cfce" points="4.923 68 4.923 46 38.923 46 38.923 68"/><rect id="rect3" width="2.991" height="5.997" x="8.923" y="49.004" fill="#fcea2b"/><rect id="rect4" width="2.991" height="5.997" x="14.923" y="49.004" fill="#fcea2b"/><rect id="rect5" width="2.991" height="5.997" x="26.923" y="49.004" fill="#fcea2b"/><rect id="rect6" width="2.991" height="5.997" x="32.923" y="49.004" fill="#fcea2b"/><rect id="rect7" width="2.991" height="5.997" x="54.923" y="40.004" fill="#fcea2b"/><rect id="rect8" width="2.991" height="5.997" x="60.923" y="50.004" fill="#fcea2b"/><rect id="rect9" width="2.991" height="5.997" x="60.923" y="60.004" fill="#fcea2b"/><rect id="rect10" width="2.991" height="5.997" x="54.923" y="60.004" fill="#fcea2b"/><rect id="rect11" width="2.991" height="5.997" x="32.923" y="59.004" fill="#fcea2b"/><rect id="rect12" width="2.991" height="5.997" x="20.923" y="59.004" fill="#fcea2b"/><rect id="rect13" width="2.991" height="5.997" x="8.923" y="59.004" fill="#fcea2b"/></g><g id="line" transform="translate(-3.924,-3.8980999)"><polyline id="polyline13" fill="none" stroke="#000" stroke-linecap="round" stroke-linejoin="round" stroke-width="2" points="50.924 66.629 50.924 36.629 66.924 36.629 66.924 66.629"/><polyline id="polyline14" fill="none" stroke="#000" stroke-linecap="round" stroke-linejoin="round" stroke-width="2" points="4.924 66.629 4.924 45.629 38.924 45.629 38.924 66.629"/><polyline id="polyline15" fill="none" stroke="#000" stroke-linecap="round" stroke-linejoin="round" stroke-width="2" points="34.924 42.629 34.924 32.629 46.924 32.629 46.924 66.629"/><polyline id="polyline16" fill="none" stroke="#000" stroke-linecap="round" stroke-linejoin="round" stroke-width="2" points="10.924 42.629 10.924 28.629 18.924 28.629 18.924 42.629"/><polyline id="polyline17" fill="none" stroke="#000" stroke-linecap="round" stroke-linejoin="round" stroke-width="2" points="56.924 45.629 54.924 45.629 54.924 40.629"/><polyline id="polyline18" fill="none" stroke="#000" stroke-linecap="round" stroke-linejoin="round" stroke-width="2" points="62.924 55.629 60.924 55.629 60.924 50.629"/><polyline id="polyline19" fill="none" stroke="#000" stroke-linecap="round" stroke-linejoin="round" stroke-width="2" points="28.924 54.629 26.924 54.629 26.924 49.629"/><polyline id="polyline20" fill="none" stroke="#000" stroke-linecap="round" stroke-linejoin="round" stroke-width="2" points="34.924 54.629 32.924 54.629 32.924 49.629"/><polyline id="polyline21" fill="none" stroke="#000" stroke-linecap="round" stroke-linejoin="round" stroke-width="2" points="34.924 64.629 32.924 64.629 32.924 59.629"/><polyline id="polyline22" fill="none" stroke="#000" stroke-linecap="round" stroke-linejoin="round" stroke-width="2" points="16.924 54.629 14.924 54.629 14.924 49.629"/><polyline id="polyline23" fill="none" stroke="#000" stroke-linecap="round" stroke-linejoin="round" stroke-width="2" points="10.924 54.629 8.924 54.629 8.924 49.629"/><polyline id="polyline24" fill="none" stroke="#000" stroke-linecap="round" stroke-linejoin="round" stroke-width="2" points="10.924 64.629 8.924 64.629 8.924 59.629"/><polyline id="polyline25" fill="none" stroke="#000" stroke-linecap="round" stroke-linejoin="round" stroke-width="2" points="22.924 64.629 20.924 64.629 20.924 59.629"/><polyline id="polyline26" fill="none" stroke="#000" stroke-linecap="round" stroke-linejoin="round" stroke-width="2" points="56.924 65.629 54.924 65.629 54.924 60.629"/><polyline id="polyline27" fill="none" stroke="#000" stroke-linecap="round" stroke-linejoin="round" stroke-width="2" points="62.924 65.629 60.924 65.629 60.924 60.629"/><line id="line27" x1="14.924" x2="14.924" y1="31.629" y2="42.629" fill="none" stroke="#000" stroke-linecap="round" stroke-linejoin="round" stroke-width="2"/><line id="line28" x1="38.924" x2="38.924" y1="35.629" y2="42.629" fill="none" stroke="#000" stroke-linecap="round" stroke-linejoin="round" stroke-width="2"/><line id="line29" x1="42.924" x2="42.924" y1="35.629" y2="66.629" fill="none" stroke="#000" stroke-linecap="round" stroke-linejoin="round" stroke-width="2"/></g></svg>