<svg xmlns="http://www.w3.org/2000/svg" xmlns:svg="http://www.w3.org/2000/svg" id="emoji" width="64" height="64" version="1.1" viewBox="0 0 64 64"><g id="color" transform="translate(-4,-4.079)"><rect id="rect1" width="64" height="20.787" x="4" y="47.292" fill="#61b2e4"/><rect id="rect2" width="64" height="43.213" x="4" y="4.079" fill="#e27022"/><polyline id="polyline2" fill="#f4aa41" points="68 4.079 60 4.079 44 35.079 48 38.079 65 18.079 68 14.848"/><polygon id="polygon2" fill="#f4aa41" points="24.55 38.145 28.3 34.837 9 4.079 4 4.079 4 17.641 6.019 19.554"/><polyline id="polyline3" fill="#f4aa41" points="30.879 4.079 33.348 32.454 38.331 32.866 42.08 6.886 42.566 4.079"/><polyline id="polyline4" fill="#f4aa41" points="68 34.719 46.068 41.718 46.775 46.668 68 44.947"/><polyline id="polyline5" fill="#f4aa41" points="4 34.899 25.933 41.898 25.226 46.848 4 45.127"/><path id="path5" fill="#fcea2b" d="m 21.48,47.2923 a 15.6793,15.6793 0 1 1 29.04,6e-4"/><polygon id="polygon5" fill="#fff" points="49.932 47.292 55.019 37.008 58.641 33.433 59.643 27.783 60.927 24.904 67.964 24.049 68 47.292"/><polygon id="polygon6" fill="#fff" points="21.48 47.292 18.327 36.079 14.848 32.091 14.967 28.846 11.073 24.904 4.037 24.049 4 47.292"/></g><g id="line" transform="translate(-4,-4.079)"><path id="path6" fill="none" stroke="#000" stroke-linecap="round" stroke-miterlimit="10" stroke-width="2" d="m 8.48,32.188 a 7.7528,7.7528 0 0 1 9.8478,4.82"/><path id="path7" fill="none" stroke="#000" stroke-linecap="round" stroke-miterlimit="10" stroke-width="2" d="m 5,24.0262 a 7.7528,7.7528 0 0 1 9.8478,4.82"/><path id="path8" fill="none" stroke="#000" stroke-linecap="round" stroke-miterlimit="10" stroke-width="2" d="m 54.4754,40.5834 a 7.7527,7.7527 0 0 1 8.3317,-7.127"/><path id="path9" fill="none" stroke="#000" stroke-linecap="round" stroke-miterlimit="10" stroke-width="2" d="M 58.6412,30.7561 A 7.7529,7.7529 0 0 1 66.9729,23.629"/><line id="line9" x1="5.124" x2="66.877" y1="47.293" y2="47.293" fill="none" stroke="#000" stroke-linecap="round" stroke-miterlimit="10" stroke-width="2"/><path id="path10" fill="none" stroke="#000" stroke-linecap="round" stroke-miterlimit="10" stroke-width="2" d="m 20.49,43.9627 a 15.6793,15.6793 0 1 1 30.7746,0.2534"/></g></svg>