<?xml version="1.0" encoding="UTF-8" standalone="no"?>
<svg
   id="emoji"
   viewBox="0 0 40.195316 66"
   version="1.1"
   sodipodi:docname="1f31b.svg"
   width="40.195316"
   height="66"
   xmlns:inkscape="http://www.inkscape.org/namespaces/inkscape"
   xmlns:sodipodi="http://sodipodi.sourceforge.net/DTD/sodipodi-0.dtd"
   xmlns="http://www.w3.org/2000/svg"
   xmlns:svg="http://www.w3.org/2000/svg">
  <defs
     id="defs4" />
  <sodipodi:namedview
     id="namedview4"
     pagecolor="#ffffff"
     bordercolor="#000000"
     borderopacity="0.25"
     inkscape:showpageshadow="2"
     inkscape:pageopacity="0.0"
     inkscape:pagecheckerboard="0"
     inkscape:deskcolor="#d1d1d1" />
  <g
     id="color"
     transform="translate(-15.904685,-3)">
    <path
       fill="#fcea2b"
       d="m 27.9578,51.4548 c 0,0 -5.0913,-2.0786 -1.8269,-4.9398 -0.9642,-0.7385 -1.334,-1.4501 -0.1731,-2.7025 2.6458,-2.8542 -0.5,-3.4375 -0.5,-3.4375 0,0 -7.9375,-0.5625 -3.5625,-5.375 2.595,-2.8546 4.0848,-6.1183 4.9173,-8.5959 C 27.6251,23.986 27.4664,21.354 26.4067,19.0337 24.1553,14.1039 20.9578,9.8573 16.9213,6.1416 16.3062,5.5753 16.6189,4.5446 17.4447,4.4136 19.1465,4.1435 20.8913,4 22.6711,4 c 18.0768,0 32.7308,14.3269 32.7308,32 0,17.6731 -14.6541,32 -32.7308,32 -1.78,0 -3.5251,-0.1436 -5.227,-0.4136 -0.9135,-0.145 -1.1599,-1.3244 -0.3778,-1.8182 7.8492,-4.9554 10.4589,-9.9207 10.8915,-14.3134"
       id="path1" />
    <path
       fill="#f1b31c"
       d="M 17.9615,4.3223 C 19.731,4.019 21.2157,4 23.0717,4 c 17.6731,0 32,14.3269 32,32 0,17.6731 -14.3269,32 -32,32 -1.719,0 -3.4063,-0.1355 -5.0518,-0.3965 0,0 -0.6874,-0.3097 -0.7793,-1.1742 0,0 3.0381,0.3419 4.6022,0.3419 16.9944,0 30.7711,-13.7767 30.7711,-30.7711 0,-16.9944 -13.7767,-30.7712 -30.7711,-30.7712 -1.6727,0 -3.3142,0.1335 -4.9145,0.3903"
       id="path2" />
  </g>
  <g
     id="hair"
     transform="translate(-15.904685,-3)" />
  <g
     id="skin"
     transform="translate(-15.904685,-3)" />
  <g
     id="skin-shadow"
     transform="translate(-15.904685,-3)" />
  <g
     id="line"
     transform="translate(-15.904685,-3)">
    <circle
       cx="36"
       cy="27.25"
       r="3"
       id="circle2" />
    <path
       fill="none"
       stroke="#000000"
       stroke-linecap="round"
       stroke-linejoin="round"
       stroke-miterlimit="10"
       stroke-width="2"
       d="m 35.6964,46 c -1.7512,1.9458 -4.0751,2.277 -5.7064,2.2156 -1.3131,-0.0494 -2.6027,-0.445 -3.646,-1.244 -0.9642,-0.7385 -1.8491,-1.9067 -0.6881,-3.1591 2.7753,-3.0819 -0.5,-3.4375 -0.5,-3.4375 0,0 -7.9375,-0.5625 -3.5625,-5.375 2.5981,-2.8579 4.0883,-6.126 4.9203,-8.6047 0.8098,-2.4127 0.6517,-5.0381 -0.405,-7.3533 C 23.9988,14.4192 21.0573,10.397 17.3722,6.85 16.4493,5.9616 16.956,4.419 18.227,4.2595 19.5833,4.0893 20.9654,4 22.3692,4 40.4459,4 55.1,18.3269 55.1,36 c 0,17.6731 -14.6541,32 -32.7309,32 -1.2874,0 -2.5566,-0.0751 -3.8043,-0.2188 -1.3842,-0.1595 -1.8611,-1.9482 -0.7056,-2.7269 7,-4.717 9.3849,-9.4177 9.7967,-13.5995 M 25.829,46.515 c -3.2644,2.8612 1.8269,4.9398 1.8269,4.9398"
       id="path3" />
    <path
       fill="none"
       stroke="#000000"
       stroke-linecap="round"
       stroke-linejoin="round"
       stroke-miterlimit="10"
       stroke-width="2"
       d="m 31.2188,19.875 c 0,0 4.7812,-3 9.5625,1.9062"
       id="path4" />
  </g>
</svg>
