<svg xmlns="http://www.w3.org/2000/svg" xmlns:svg="http://www.w3.org/2000/svg" id="emoji" width="58.005" height="58.008" version="1.1" viewBox="0 0 58.005 58.008"><g id="line-supplement" transform="translate(-6.9953335,-6.9921701)"><path id="path1" fill="#000" d="M 17,37 A 28.001,28.001 0 0 1 43.5465,9.0374 27.9995,27.9995 0 1 0 36,64 q 0.7312,0 1.4535,-0.0374 A 28.0059,28.0059 0 0 1 17,37 Z"/></g><g id="color" transform="translate(-6.9953335,-6.9921701)"><circle id="circle1" cx="36" cy="36" r="28" fill="#fcea2b" stroke="#3f3f3f" stroke-linecap="round" stroke-linejoin="round" stroke-width="2"/><path id="path2" fill="#3f3f3f" d="M 17,37 A 28.001,28.001 0 0 1 43.5465,9.0374 27.9995,27.9995 0 1 0 36,64 q 0.7312,0 1.4535,-0.0374 A 28.0059,28.0059 0 0 1 17,37 Z"/></g><g id="line" transform="translate(-6.9953335,-6.9921701)"><circle id="circle2" cx="36" cy="36" r="28" fill="none" stroke="#000" stroke-linecap="round" stroke-linejoin="round" stroke-width="2"/><path id="path3" fill="none" stroke="#000" stroke-linecap="round" stroke-linejoin="round" stroke-width="2" d="M 17,37 A 28.001,28.001 0 0 1 43.5465,9.0374 27.9995,27.9995 0 1 0 36,64 q 0.7312,0 1.4535,-0.0374 A 28.0059,28.0059 0 0 1 17,37 Z"/></g></svg>