<svg xmlns="http://www.w3.org/2000/svg" xmlns:svg="http://www.w3.org/2000/svg" id="emoji" width="40.195" height="66" version="1.1" viewBox="0 0 40.195 66"><g id="color" transform="translate(-15.9,-3)"><path id="path1" fill="#fcea2b" stroke="none" d="m 44.0422,51.4548 c 0.4326,4.3927 3.0423,9.3581 10.8915,14.3134 0.7821,0.4938 0.5357,1.6732 -0.3778,1.8182 C 52.854,67.8564 51.109,68 49.3289,68 31.2521,68 16.5981,53.6731 16.5981,36 c 0,-17.6731 14.6541,-32 32.7308,-32 1.7798,0 3.5246,0.1435 5.2263,0.4135 0.8258,0.131 1.1385,1.1617 0.5234,1.728 -4.0365,3.7157 -7.234,7.9623 -9.4854,12.8921 -1.0597,2.3204 -1.2184,4.9524 -0.4059,7.3704 0.8325,2.4776 2.3223,5.7414 4.9173,8.5959 4.375,4.8125 -3.5625,5.375 -3.5625,5.375 0,0 -3.1458,0.5833 -0.5,3.4375 1.161,1.2524 0.7912,1.964 -0.1731,2.7025 3.2645,2.8612 -1.8268,4.9399 -1.8268,4.9399"/><path id="path2" fill="#f1b31c" stroke="none" d="M 54.0385,4.3223 C 52.269,4.019 50.7843,4 48.9283,4 c -17.6731,0 -32,14.3269 -32,32 0,17.6731 14.3269,32 32,32 1.719,0 3.4063,-0.1355 5.0518,-0.3965 0,0 0.6874,-0.3097 0.7793,-1.1742 0,0 -3.0381,0.3419 -4.6022,0.3419 -16.9944,0 -30.7711,-13.7767 -30.7711,-30.7711 0,-16.9944 13.7767,-30.7712 30.7711,-30.7712 1.6727,0 3.3142,0.1335 4.9145,0.3903"/></g><g id="line" transform="translate(-15.9,-3)"><circle id="circle2" cx="36" cy="27.25" r="3" fill="#000" stroke="none"/><path id="path3" fill="none" stroke="#000" stroke-linecap="round" stroke-linejoin="round" stroke-miterlimit="10" stroke-width="2" d="m 44.3441,51.4548 c 0.4118,4.1818 2.7967,8.8825 9.7967,13.5995 1.1555,0.7786 0.6786,2.5674 -0.7056,2.7269 C 52.1874,67.9249 50.9182,68 49.6308,68 31.5541,68 16.9,53.6731 16.9,36 16.9,18.3269 31.5541,4 49.6308,4 c 1.4038,0 2.7859,0.0893 4.1422,0.2595 1.271,0.1595 1.7777,1.7021 0.8548,2.5905 -3.6851,3.5471 -6.6266,7.5692 -8.7365,12.192 -1.0567,2.3153 -1.2149,4.9406 -0.405,7.3533 0.832,2.4787 2.3222,5.7467 4.9203,8.6047 4.375,4.8125 -3.5625,5.375 -3.5625,5.375 0,0 -3.1458,0.5833 -0.5,3.4375 1.161,1.2524 0.2761,2.4207 -0.6881,3.1591 -1.0432,0.7989 -2.3329,1.1945 -3.646,1.244 C 40.3787,48.277 38.0549,47.9458 36.3036,46 m 8.0405,5.4548 c 0,0 5.0913,-2.0786 1.8269,-4.9398"/><path id="path4" fill="none" stroke="#000" stroke-linecap="round" stroke-linejoin="round" stroke-miterlimit="10" stroke-width="2" d="m 40.7812,19.875 c 0,0 -4.7812,-3 -9.5625,1.9062"/></g></svg>