<svg xmlns="http://www.w3.org/2000/svg" xmlns:svg="http://www.w3.org/2000/svg" id="emoji" width="64.257" height="61.926" version="1.1" viewBox="0 0 64.257 61.926"><g id="color" transform="translate(-3.8714373,-5.0369259)"><polygon id="polygon1" fill="#fcea2b" stroke="none" points="9.417 25.344 22.702 38.284 19.574 56.564 35.986 47.928 52.404 56.552 49.263 38.274 62.538 25.324 44.184 22.664 35.97 6.037 27.769 22.67"/><polygon id="polygon2" fill="#fcea2b" stroke="none" points="6.476 46.733 14.164 41.459 4.859 42.036"/><polygon id="polygon3" fill="#fcea2b" stroke="none" points="65.524 46.253 57.837 40.979 67.141 41.556"/><polygon id="polygon4" fill="#fcea2b" stroke="none" points="14.681 9.91 22.072 15.592 18.648 6.921"/><polygon id="polygon5" fill="#fcea2b" stroke="none" points="54.125 7.54 50.4 16.086 57.985 10.666"/><polygon id="polygon6" fill="#fcea2b" stroke="none" points="38.403 65.963 35.92 56.978 33.436 65.963"/></g><g id="line" transform="translate(-3.8714373,-5.0369259)"><polygon id="polygon7" fill="none" stroke="#000" stroke-linecap="round" stroke-linejoin="round" stroke-miterlimit="10" stroke-width="2" points="9.371 25.344 22.656 38.284 19.528 56.564 35.94 47.928 52.359 56.552 49.217 38.274 62.493 25.324 44.139 22.664 35.925 6.037 27.723 22.67"/><polygon id="polygon8" fill="none" stroke="#000" stroke-linecap="round" stroke-linejoin="round" stroke-miterlimit="10" stroke-width="2" points="38.416 65.963 35.932 56.978 33.448 65.963"/><polygon id="polygon9" fill="none" stroke="#000" stroke-linecap="round" stroke-linejoin="round" stroke-miterlimit="10" stroke-width="2" points="67.129 41.493 57.816 41.078 65.594 46.217"/><polygon id="polygon10" fill="none" stroke="#000" stroke-linecap="round" stroke-linejoin="round" stroke-miterlimit="10" stroke-width="2" points="6.489 46.733 14.176 41.459 4.871 42.036"/><polygon id="polygon11" fill="none" stroke="#000" stroke-linecap="round" stroke-linejoin="round" stroke-miterlimit="10" stroke-width="2" points="54.137 7.54 50.413 16.086 57.997 10.666"/><polygon id="polygon12" fill="none" stroke="#000" stroke-linecap="round" stroke-linejoin="round" stroke-miterlimit="10" stroke-width="2" points="14.693 9.91 22.084 15.592 18.66 6.921"/></g></svg>