<svg xmlns="http://www.w3.org/2000/svg" xmlns:svg="http://www.w3.org/2000/svg" id="emoji" width="58.005" height="58.008" version="1.1" viewBox="0 0 58.005 58.008"><g id="line-supplement" transform="translate(-7,-7)"><path id="path1" fill="#000" stroke="none" stroke-linecap="round" stroke-linejoin="round" stroke-width="2" d="M 36,8 A 28,28 0 0 1 40.69,8.4 28,28 0 0 0 36,8 Z M 34.68,8.09 A 28,28 0 0 0 8,36 28,28 0 0 0 28.49,62.96 28,28 0 0 0 55,35 28.01,28.01 0 0 0 34.68,8.09 Z M 40.8,8.42 A 28,28 0 0 1 45.28,9.59 28,28 0 0 0 40.8,8.42 Z m 4.65,1.23 a 28,28 0 0 1 4.18,1.9 28,28 0 0 0 -4.18,-1.9 z m 4.35,2 a 28,28 0 0 1 3.81,2.6 28,28 0 0 0 -3.81,-2.6 z m 3.92,2.69 a 28,28 0 0 1 3.36,3.24 28,28 0 0 0 -3.36,-3.24 z m 3.4,3.29 a 28,28 0 0 1 2.77,3.79 28,28 0 0 0 -2.77,-3.79 z m 2.81,3.85 A 28,28 0 0 1 62,25.64 28,28 0 0 0 59.93,21.48 Z m 2.13,4.32 a 28,28 0 0 1 1.32,4.43 28,28 0 0 0 -1.32,-4.43 z m 1.35,4.58 a 28,28 0 0 1 0.55,4.6 28,28 0 0 0 -0.55,-4.6 z m 0.56,4.73 A 28,28 0 0 1 63.73,39.73 28,28 0 0 0 63.99,36 28,28 0 0 0 63.97,35.11 Z m -0.33,5.11 a 28,28 0 0 1 -0.85,3.75 28,28 0 0 0 0.85,-3.75 z m -1.27,5.01 a 28,28 0 0 1 -1.19,2.89 28,28 0 0 0 1.19,-2.89 z m -1.79,4.1 a 28,28 0 0 1 -2.06,3.26 28,28 0 0 0 2.06,-3.26 z m -2.32,3.65 a 28,28 0 0 1 -2.89,3.2 28,28 0 0 0 2.89,-3.2 z m -3.81,4.01 a 28,28 0 0 1 -2.51,1.97 28,28 0 0 0 2.51,-1.97 z m -3.64,2.72 a 28,28 0 0 1 -3.03,1.64 28,28 0 0 0 3.03,-1.64 z m -3.84,2.04 a 28,28 0 0 1 -4.1,1.38 28,28 0 0 0 4.1,-1.38 z M 28.57,63 a 28,28 0 0 0 4.24,0.8 28,28 0 0 1 -4.24,-0.8 z m 13.29,0.33 a 28,28 0 0 1 -3.28,0.51 28,28 0 0 0 3.28,-0.51 z m -7.88,0.55 a 28,28 0 0 0 2.01,0.13 28,28 0 0 0 1.2,-0.08 28,28 0 0 1 -3.21,-0.05 z"/></g><g id="color" transform="translate(-7,-7)"><circle id="circle1" cx="36" cy="36" r="28" fill="#3f3f3f" stroke="#3f3f3f" stroke-linecap="round" stroke-linejoin="round" stroke-width="2"/><path id="path2" fill="#fcea2b" d="M 55,35 A 28.001,28.001 0 0 1 28.4535,62.9626 27.9995,27.9995 0 1 0 36,8 Q 35.2688,8 34.5465,8.0374 A 28.0059,28.0059 0 0 1 55,35 Z"/></g><g id="line" transform="translate(-7,-7)"><circle id="circle2" cx="36" cy="36" r="28" fill="none" stroke="#000" stroke-linecap="round" stroke-linejoin="round" stroke-width="2"/><path id="path3" fill="none" stroke="#000" stroke-linecap="round" stroke-linejoin="round" stroke-width="2" d="M 55,35 A 28.001,28.001 0 0 1 28.4535,62.9626 27.9995,27.9995 0 1 0 36,8 Q 35.2688,8 34.5465,8.0374 A 28.0059,28.0059 0 0 1 55,35 Z"/></g></svg>