<svg xmlns="http://www.w3.org/2000/svg" xmlns:svg="http://www.w3.org/2000/svg" id="emoji" width="64.463" height="54.957" version="1.1" viewBox="0 0 64.463 54.957"><g id="color" transform="translate(-3.768729,-8.521629)"><path id="path1" fill="#fcea2b" d="m 50.0652,42.7786 0.0966,-0.3192 c 0.9466,-3.1267 0.787,-7.2348 -0.3992,-10.2787 v 0 l 4.7839,-7.9243 -9.3366,0.4142 0.17,-10.1731 -8.5672,5.3173 -4.4187,-9.1046 -5.2924,9.1045 -7.7357,-5.2431 -0.6612,10.0984 -8.6786,-0.6333 3.8228,9.0305 -7.496,3.9345 7.4959,5.7766 -4.1548,7.5762 9.6637,-0.2225 -0.8114,10.5292 8.5551,-4.6302 22.9639,-13.2524 z"/><path id="path2" fill="#fff" d="m 34.791,46.6066 c -0.0241,0.2749 -0.2468,0.4973 -0.5226,0.5268 -3.3432,0.3581 -5.9145,3.65 -5.9145,7.6568 0,4.2461 2.9447,7.6882 6.5771,7.6882 h 25.0744 c 3.9908,0 7.2259,-3.6376 7.2259,-8.1248 0,-4.3002 -2.9712,-7.8202 -6.7312,-8.106 -0.2877,-0.0219 -0.521,-0.2232 -0.5758,-0.505 -0.84,-4.3132 -4.7148,-7.5546 -9.2958,-7.5546 -2.9773,0 -5.6294,1.3479 -7.3517,3.4921 -0.1683,0.2095 -0.4507,0.3055 -0.6992,0.2013 -0.6627,-0.2779 -1.3626,-0.4124 -2.1458,-0.4124 -2.9594,2e-4 -5.3886,2.2587 -5.6408,5.1376 z"/></g><g id="line" transform="translate(-3.768729,-8.521629)"><path id="path3" fill="none" stroke="#000" stroke-linecap="round" stroke-linejoin="round" stroke-width="2" d="m 24.4645,53.5202 c -6.1162,-2.9451 -10.3373,-9.202 -10.3373,-16.4446 0,-10.0744 8.1669,-18.2414 18.2414,-18.2414 9.0895,0 16.6262,6.648 18.013,15.347"/><polyline id="polyline3" fill="none" stroke="#000" stroke-linecap="round" stroke-linejoin="round" stroke-width="2" points="24.547 56.982 18.563 61.025 19.358 50.132 8.465 50.927 14.591 41.888 4.769 37.121 14.591 32.355 8.465 23.316 19.358 24.11 18.564 13.218 27.602 19.344 32.369 9.521 37.136 19.344 46.175 13.218 45.38 24.111 56.272 23.316 50.146 32.355"/><path id="path4" fill="none" stroke="#000" stroke-linecap="round" stroke-linejoin="round" stroke-width="2" d="m 34.791,46.6066 c -0.0241,0.2749 -0.2468,0.4973 -0.5226,0.5268 -3.3432,0.3581 -5.9145,3.65 -5.9145,7.6568 0,4.2461 2.9447,7.6882 6.5771,7.6882 h 25.0744 c 3.9908,0 7.2259,-3.6376 7.2259,-8.1248 0,-4.3002 -2.9712,-7.8202 -6.7312,-8.106 -0.2877,-0.0219 -0.521,-0.2232 -0.5758,-0.505 -0.84,-4.3132 -4.7148,-7.5546 -9.2958,-7.5546 -2.9773,0 -5.6294,1.3479 -7.3517,3.4921 -0.1683,0.2095 -0.4507,0.3055 -0.6992,0.2013 -0.6627,-0.2779 -1.3626,-0.4124 -2.1458,-0.4124 -2.9594,2e-4 -5.3886,2.2587 -5.6408,5.1376 z"/></g></svg>