<svg xmlns="http://www.w3.org/2000/svg" xmlns:svg="http://www.w3.org/2000/svg" id="emoji" width="52" height="50.673" version="1.1" viewBox="0 0 52 50.673"><g id="color" transform="translate(-10,-10.6133)"><path id="path1" fill="#d0cfce" stroke="none" d="m 19.2787,22.4402 c -0.031,0.3535 -0.3174,0.6396 -0.6721,0.6775 C 14.307,23.5783 11,27.8119 11,32.9652 c 0,5.4608 3.7871,9.8877 8.4588,9.8877 h 32.248 C 56.8393,42.8529 61,38.1746 61,32.4037 61,26.8732 57.1788,22.3462 52.3431,21.9786 c -0.37,-0.0281 -0.67,-0.2871 -0.7406,-0.6494 -1.0803,-5.5472 -6.0636,-9.7159 -11.9553,-9.7159 -3.829,0 -7.2399,1.7335 -9.4549,4.4912 -0.2164,0.2695 -0.5797,0.3929 -0.8992,0.2589 -0.8523,-0.3575 -1.7525,-0.5304 -2.7597,-0.5304 -3.8062,0 -6.9303,2.9046 -7.2547,6.6072 z"/></g><g id="line" transform="translate(-10,-10.6133)"><path id="path2" fill="none" stroke="#000" stroke-linecap="round" stroke-linejoin="round" stroke-miterlimit="10" stroke-width="2" d="m 19.2787,22.4402 c -0.031,0.3535 -0.3174,0.6396 -0.6721,0.6775 C 14.307,23.5783 11,27.8119 11,32.9652 c 0,5.4608 3.7871,9.8877 8.4588,9.8877 h 32.248 C 56.8393,42.8529 61,38.1746 61,32.4037 61,26.8732 57.1788,22.3462 52.3431,21.9786 c -0.37,-0.0281 -0.67,-0.2871 -0.7406,-0.6494 -1.0803,-5.5472 -6.0636,-9.7159 -11.9553,-9.7159 -3.829,0 -7.2399,1.7335 -9.4549,4.4912 -0.2164,0.2695 -0.5797,0.3929 -0.8992,0.2589 -0.8523,-0.3575 -1.7525,-0.5304 -2.7597,-0.5304 -3.8062,0 -6.9303,2.9046 -7.2547,6.6072 z"/><line id="line2" x1="28.768" x2="28.768" y1="52.519" y2="60.387" fill="none" stroke="#000" stroke-linecap="round" stroke-linejoin="round" stroke-miterlimit="10" stroke-width="1.8"/><line id="line3" x1="25.408" x2="32.127" y1="58.42" y2="54.485" fill="none" stroke="#000" stroke-linecap="round" stroke-linejoin="round" stroke-miterlimit="10" stroke-width="1.8"/><line id="line4" x1="32.127" x2="25.408" y1="58.42" y2="54.485" fill="none" stroke="#000" stroke-linecap="round" stroke-linejoin="round" stroke-miterlimit="10" stroke-width="1.8"/><line id="line5" x1="56.291" x2="56.291" y1="46.04" y2="53.262" fill="none" stroke="#000" stroke-linecap="round" stroke-linejoin="round" stroke-miterlimit="10" stroke-width="1.8"/><line id="line6" x1="53.208" x2="59.374" y1="51.457" y2="47.845" fill="none" stroke="#000" stroke-linecap="round" stroke-linejoin="round" stroke-miterlimit="10" stroke-width="1.8"/><line id="line7" x1="59.374" x2="53.208" y1="51.457" y2="47.845" fill="none" stroke="#000" stroke-linecap="round" stroke-linejoin="round" stroke-miterlimit="10" stroke-width="1.8"/><line id="line8" x1="16.958" x2="16.958" y1="47.04" y2="54.262" fill="none" stroke="#000" stroke-linecap="round" stroke-linejoin="round" stroke-miterlimit="10" stroke-width="1.8"/><line id="line9" x1="13.874" x2="20.041" y1="52.457" y2="48.845" fill="none" stroke="#000" stroke-linecap="round" stroke-linejoin="round" stroke-miterlimit="10" stroke-width="1.8"/><line id="line10" x1="20.041" x2="13.874" y1="52.457" y2="48.845" fill="none" stroke="#000" stroke-linecap="round" stroke-linejoin="round" stroke-miterlimit="10" stroke-width="1.8"/><line id="line11" x1="42.709" x2="42.709" y1="48.076" y2="60.083" fill="none" stroke="#000" stroke-linecap="round" stroke-linejoin="round" stroke-miterlimit="10" stroke-width="1.8"/><line id="line12" x1="37.583" x2="47.836" y1="57.082" y2="51.077" fill="none" stroke="#000" stroke-linecap="round" stroke-linejoin="round" stroke-miterlimit="10" stroke-width="1.8"/><line id="line13" x1="47.836" x2="37.583" y1="57.082" y2="51.077" fill="none" stroke="#000" stroke-linecap="round" stroke-linejoin="round" stroke-miterlimit="10" stroke-width="1.8"/></g></svg>