<?xml version="1.0" encoding="UTF-8" standalone="no"?>
<svg
   id="emoji"
   viewBox="0 0 64.000099 64.000298"
   version="1.1"
   sodipodi:docname="1f32b.svg"
   width="64.000099"
   height="64.000298"
   xmlns:inkscape="http://www.inkscape.org/namespaces/inkscape"
   xmlns:sodipodi="http://sodipodi.sourceforge.net/DTD/sodipodi-0.dtd"
   xmlns="http://www.w3.org/2000/svg"
   xmlns:svg="http://www.w3.org/2000/svg">
  <defs
     id="defs17" />
  <sodipodi:namedview
     id="namedview17"
     pagecolor="#ffffff"
     bordercolor="#000000"
     borderopacity="0.25"
     inkscape:showpageshadow="2"
     inkscape:pageopacity="0.0"
     inkscape:pagecheckerboard="0"
     inkscape:deskcolor="#d1d1d1" />
  <g
     id="color"
     transform="translate(-4,-3.9997)">
    <path
       fill="#d0cfce"
       d="m 33.4404,3.9997 c 2.559,0 4.1336,2.4682 4.2596,3.9003 0.659,-0.307 1.3734,-0.4771 2.1,-0.5 h 0.3 c 0.3739,0.018 0.7437,0.0852 1.1,0.2 2.194,0.6783 3.6927,2.7036 3.7,5 -4e-4,2.7777 -2.2229,5.0446 -5,5.1 H 18.7 C 15.047,17.6921 12.0921,14.7244 12.1,11.0715 12.1074,7.662 14.8306,4.3167 18.2254,4"
       id="path1" />
    <path
       fill="#d0cfce"
       d="m 10.5,9.9 c 1.917,-0.0342 3.7629,0.7259 5.1,2.1 0.6753,0.597 1.1909,1.3532 1.5,2.2 2.2706,-1.2242 4.9401,-1.4767 7.4,-0.7 0.1,0 0.2,0.1 0.3,0.1 0.5183,0.1919 1.02,0.426 1.5,0.7 0.2803,0.1438 0.5479,0.3111 0.8,0.5 1.0109,0.7582 1.8608,1.71 2.5,2.8 l 0.3,0.6 c 0.0541,-0.0012 0.0988,0.0417 0.1,0.0958 0,0.0014 0,0.0028 0,0.0042 0.1759,0.3147 0.3104,0.6508 0.4,1 0.2301,0.7808 0.3645,1.5867 0.4,2.4 0.8989,-0.4463 1.8978,-0.653 2.9,-0.6 0.6376,0.0171 1.2728,0.084 1.9,0.2 1.3358,0.3014 2.5325,1.0405 3.4,2.1 0.1954,0.1742 0.3639,0.3764 0.5,0.6 0.1235,0.114 0.2252,0.2495 0.3,0.4 0.7082,1.1049 1.0896,2.3876 1.1,3.7 L 41,34.6 H 4 V 14.1 C 4.2948,13.2629 4.7349,12.4843 5.3,11.8 6.6107,10.3431 8.5588,9.6313 10.5,9.9 Z"
       id="path2" />
    <path
       fill="#ffffff"
       d="m 68,14.8 v 15.5 0 l -0.1,0.1 c -1.5879,1.0972 -3.4699,1.6896 -5.4,1.7 H 31.2 c -4.0325,-0.3785 -6.9946,-3.9543 -6.616,-7.9868 0.3785,-4.0325 3.9543,-6.9946 7.9868,-6.616 0.0098,9e-4 0.0195,0.0019 0.0293,0.0028 0.8208,0.1052 1.6263,0.3066 2.4,0.6 0.2539,-5.2313 4.6658,-9.2868 9.9,-9.1 1.5021,0.0913 2.9677,0.5003 4.3,1.2 1.5646,-3.7406 5.8653,-5.5047 9.6059,-3.9401 0.0315,0.0132 0.0628,0.0265 0.0941,0.0401 2.7194,1.1694 4.4867,3.8399 4.5,6.8 v 0 c 0.3,0 2.9,0.7 3.1,0.8 0.5415,0.2247 1.0469,0.528 1.5,0.9 z"
       id="path3" />
    <path
       fill="#d0cfce"
       d="M 68,26.5 V 45 h -0.1 c -0.521,0.1571 -1.0574,0.2577 -1.6,0.3 v 0 c -0.4,0 -0.7,0.1 -1.1,0.1 h -31 c -0.645,-0.0018 -1.2858,-0.103 -1.9,-0.3 -3.0082,-0.8097 -5.1994,-3.3993 -5.5,-6.5 v -0.7 c 0.0097,-1.3752 0.3897,-2.7224 1.1,-3.9 l 0.6,-0.9 v 0 l 0.3,-0.3 c 0.9716,-1.0335 2.2221,-1.7629 3.6,-2.1 0.3,-0.1 0.6,-0.1 0.9,-0.2 0.3,0 0.6,-0.1 0.9,-0.1 1.0745,-0.0187 2.1378,0.2214 3.1,0.7 0.0985,-2.6794 1.3353,-5.1895 3.4,-6.9 3.0566,-2.6757 7.4741,-3.1175 11,-1.1 1.609,-3.8137 6.0049,-5.601 9.8186,-3.992 2.7721,1.1695 4.5761,3.8834 4.5814,6.892 v 0 c 0.642,0.132 1.2762,0.2989 1.9,0.5 -0.1,-0.1 0,-0.1 0,0 z"
       id="path4" />
    <path
       fill="#ffffff"
       d="m 47.5,44.4 c 0.0117,0.3363 -0.022,0.6727 -0.1,1 0.0155,0.1728 -0.0192,0.3464 -0.1,0.5 -0.1,0.4 -0.2,0.8 -0.3,1.1 -0.1919,0.5183 -0.426,1.02 -0.7,1.5 -0.8456,1.2992 -2.0663,2.3106 -3.5,2.9 v 0 c -0.3,0.1 -0.5,0.2 -0.8,0.3 -0.1174,0.0794 -0.259,0.1149 -0.4,0.1 -0.4954,0.083 -0.9979,0.1165 -1.5,0.1 H 9.3 C 7.4178,51.8771 5.5805,51.3224 4,50.3 v -16 C 4.0757,34.1401 4.2253,34.0279 4.4,34 4.6,33.9 4.9,33.7 5.1,33.6 v 0 c 1.0368,-0.4964 2.1548,-0.8013 3.3,-0.9 v 0 c -0.0061,-2.8025 1.585,-5.3636 4.1,-6.6 v 0 c 1.0219,-0.5221 2.1524,-0.7961 3.3,-0.8 2.8704,-0.1296 5.4965,1.6076 6.5,4.3 v 0 c 1.5968,-0.7327 3.3448,-1.0755 5.1,-1 2.1015,0.0057 4.1416,0.7092 5.8,2 2.1926,1.6969 3.5715,4.2369 3.8,7 v 0.1 c 0.7503,-0.3628 1.5673,-0.5671 2.4,-0.6 h 0.7 c 2.6412,0.0011 5.0811,1.4117 6.4,3.7 0.0772,0.1793 0.1781,0.3475 0.3,0.5 0.4891,0.9585 0.7298,2.0244 0.7,3.1 z"
       id="path5" />
    <path
       fill="#ffffff"
       d="M 68,33 V 51.9 H 45.5 c -0.947,0.0175 -1.8808,-0.2246 -2.7,-0.7 v 0 C 42.6,51.1 42.5,51 42.3,50.9 42.2,50.8 42,50.7 41.9,50.6 c -1.3121,-1.0872 -2.08,-2.6961 -2.1,-4.4 -0.0163,-0.3035 0.0175,-0.6075 0.1,-0.9 v -0.2 0 c 0.3161,-1.7061 1.432,-3.1568 3,-3.9 0.8017,-0.4293 1.6912,-0.6688 2.6,-0.7 0.3364,-0.0164 0.6735,0.0173 1,0.1 0.4787,0.0868 0.9477,0.2208 1.4,0.4 0.1632,-4.032 3.5641,-7.1682 7.5961,-7.0049 0.0346,0.0014 0.0693,0.0031 0.1039,0.0049 1.1628,0.072 2.2928,0.4145 3.3,1 1.2199,-2.8671 4.5008,-4.2416 7.4,-3.1 0.6102,0.2946 1.1812,0.6642 1.7,1.1 z"
       id="path6" />
    <path
       fill="#d0cfce"
       d="m 21.3,56.8 c -3.653,-0.0079 -6.6079,-2.9756 -6.6,-6.6285 0.0073,-3.4095 2.6052,-6.2548 6,-6.5715 v 0 c 0.0118,-2.8118 2.2882,-5.0882 5.1,-5.1 2.0531,-0.0246 3.9143,1.203 4.7,3.1 3.1529,-1.8012 7.1691,-0.7055 8.9703,2.4474 0.01,0.0175 0.0199,0.035 0.0297,0.0526 0.5077,0.9255 0.8144,1.9478 0.9,3 2.5654,-1.1933 5.6124,-0.0809 6.8057,2.4845 1.1933,2.5654 0.0809,5.6124 -2.4845,6.8057 -0.007,0.0033 -0.0141,0.0065 -0.0211,0.0098 -0.659,0.307 -1.3734,0.4771 -2.1,0.5 l -21.3,-0.1 z"
       id="path7" />
    <path
       fill="#d0cfce"
       d="m 66.7,45.2 c 0.5651,0.6843 1.0052,1.4629 1.3,2.3 V 68 H 31 l 0.1,-6.5 c 0.0104,-1.3124 0.3918,-2.5951 1.1,-3.7 0.0748,-0.1505 0.1765,-0.286 0.3,-0.4 0.1361,-0.2236 0.3046,-0.4258 0.5,-0.6 0.8675,-1.0595 2.0642,-1.7986 3.4,-2.1 0.6272,-0.116 1.2624,-0.1829 1.9,-0.2 1.0022,-0.053 2.0011,0.1537 2.9,0.6 0.0355,-0.8133 0.1699,-1.6192 0.4,-2.4 0.0896,-0.3492 0.2241,-0.6853 0.4,-1 -0.0012,-0.0541 0.0417,-0.0988 0.0958,-0.1 0.0014,0 0.0028,0 0.0042,0 L 42.4,51 c 0.6392,-1.09 1.4891,-2.0418 2.5,-2.8 0.2521,-0.1889 0.5197,-0.3562 0.8,-0.5 0.48,-0.274 0.9817,-0.5081 1.5,-0.7 0.1,0 0.2,-0.1 0.3,-0.1 2.4599,-0.7767 5.1294,-0.5242 7.4,0.7 0.3091,-0.8468 0.8247,-1.603 1.5,-2.2 1.3371,-1.3741 3.183,-2.1342 5.1,-2.1 2,0 3.9,0.4 5.2,1.9 z"
       id="path8" />
    <path
       fill="#ffffff"
       d="m 34.7,62.2 c 0.005,1.5498 -0.5651,3.0464 -1.6,4.2 -0.5836,0.6709 -1.2983,1.2154 -2.1,1.6 H 4 V 46.8 C 4.3559,46.5218 4.7639,46.3178 5.2,46.2 5.3824,46.0891 5.5875,46.0208 5.8,46 v 0 c 0.1889,-0.0815 0.3948,-0.1158 0.6,-0.1 0.1685,-0.0235 0.3354,-0.0569 0.5,-0.1 h 0.7 c 2.5779,-0.0247 4.9126,1.5185 5.9,3.9 0.4,-0.2 0.9,-0.4 1.4,-0.6 0.1,0 0.2,-0.1 0.3,-0.1 0.7808,-0.2301 1.5867,-0.3645 2.4,-0.4 2.9812,0.0015 5.7313,1.6057 7.2,4.2 0.6323,1.0962 0.9763,2.3348 1,3.6 1.9419,-0.8739 4.1913,-0.7239 6,0.4 0.3,0.2 0.5,0.4 0.8,0.6 0.2,0.1 0.3,0.3 0.5,0.4 1.0385,1.2303 1.6057,2.7899 1.6,4.4 z"
       id="path9" />
  </g>
  <g
     id="line"
     transform="translate(-4,-3.9997)">
    <path
       fill="none"
       stroke="#000000"
       stroke-linecap="round"
       stroke-linejoin="round"
       stroke-width="2"
       d="m 5.3,11.8 c 1.3,-1.5 3.2,-1.9 5.2,-1.9 1.917,-0.0342 3.7629,0.7259 5.1,2.1 0.6753,0.597 1.1909,1.3532 1.5,2.2 2.2706,-1.2242 4.9401,-1.4767 7.4,-0.7 0.1,0 0.2,0.1 0.3,0.1 0.5183,0.1919 1.02,0.426 1.5,0.7 0.2803,0.1438 0.5479,0.3111 0.8,0.5"
       id="path10" />
    <path
       fill="none"
       stroke="#000000"
       stroke-linecap="round"
       stroke-linejoin="round"
       stroke-width="2"
       d="m 24.5,24 c 0.3678,-4.0162 3.9218,-6.9738 7.938,-6.6059 0.0207,0.0019 0.0414,0.0039 0.062,0.0059 0.8208,0.1052 1.6263,0.3066 2.4,0.6 0.2539,-5.2313 4.6658,-9.2868 9.9,-9.1 1.5021,0.0913 2.9677,0.5003 4.3,1.2 1.5646,-3.7406 5.8653,-5.5047 9.6059,-3.9401 0.0315,0.0132 0.0628,0.0265 0.0941,0.0401 2.7194,1.1694 4.4867,3.8399 4.5,6.8 v 0 c 0.3,0 3.4,0.9 3.5,1"
       id="path11" />
    <path
       fill="none"
       stroke="#000000"
       stroke-linecap="round"
       stroke-linejoin="round"
       stroke-width="2"
       d="m 38.2,30.3 c 0,-2.5 1.3,-4.4 4.2,-6.3 1.5192,-0.9008 3.2359,-1.4158 5,-1.5 1.5798,-0.0054 3.1327,0.4087 4.5,1.2 1.5313,-3.6048 5.6825,-5.3009 9.3,-3.8 2.596,1.1385 4.3075,3.6668 4.4,6.5 v 0"
       id="path12" />
    <path
       fill="none"
       stroke="#000000"
       stroke-linecap="round"
       stroke-linejoin="round"
       stroke-width="2"
       d="M 42.4,38.4 C 40.9285,36.8008 38.5147,36.5044 36.7,37.7 35.3,30.9 31.1,30.1 30.1,29.6 29.5751,29.2971 28.9988,29.0937 28.4,29 v 0 c -0.7494,-0.2043 -1.5232,-0.3053 -2.3,-0.3 -1.3069,0.0146 -2.5981,0.2864 -3.8,0.8 v 0 c -0.2534,0.0947 -0.4898,0.2298 -0.7,0.4 -1.1385,-2.596 -3.6668,-4.3075 -6.5,-4.4 -0.857,0.0114 -1.7045,0.1809 -2.5,0.5 v 0 C 9.8495,27.0373 8.0212,29.6605 8,32.6 v 0 c -0.5471,0.0025 -1.0892,0.1042 -1.6,0.3 -0.4717,0.1538 -0.912,0.3908 -1.3,0.7"
       id="path13" />
    <path
       fill="none"
       stroke="#000000"
       stroke-linecap="round"
       stroke-linejoin="round"
       stroke-width="2"
       d="m 47.9,41.1 c 0.1632,-4.032 3.5641,-7.1682 7.5961,-7.0049 0.0346,0.0014 0.0693,0.0031 0.1039,0.0049 1.1628,0.072 2.2928,0.4145 3.3,1 1.2199,-2.8671 4.5008,-4.2416 7.4,-3.1"
       id="path14" />
    <path
       fill="none"
       stroke="#000000"
       stroke-linecap="round"
       stroke-linejoin="round"
       stroke-width="2"
       d="m 18.3,44.3 c 0.7103,-0.4718 1.5475,-0.716 2.4,-0.7 v 0 c 0.0118,-2.8118 2.2882,-5.0882 5.1,-5.1 2.0531,-0.0246 3.9143,1.203 4.7,3.1 3.1529,-1.8012 7.1691,-0.7055 8.9703,2.4474 0.01,0.0175 0.0199,0.035 0.0297,0.0526 0.5077,0.9255 0.8144,1.9478 0.9,3"
       id="path15" />
    <path
       fill="none"
       stroke="#000000"
       stroke-linecap="round"
       stroke-linejoin="round"
       stroke-width="2"
       d="m 33.1,66.4 c 2.1933,-2.5153 2.1066,-6.2881 -0.2,-8.7 -0.1407,-0.1629 -0.3102,-0.2984 -0.5,-0.4 -1.8858,-1.6261 -4.5561,-1.9795 -6.8,-0.9 -0.0716,-1.2578 -0.4126,-2.4855 -1,-3.6 -1.45,-2.6127 -4.212,-4.2239 -7.2,-4.2 -1.4366,0.0219 -2.8453,0.3999 -4.1,1.1 C 12.3126,47.3185 9.9779,45.7752 7.4,45.8 6.6143,45.7779 5.8321,45.9139 5.1,46.2"
       id="path16" />
    <path
       fill="none"
       stroke="#000000"
       stroke-linecap="round"
       stroke-linejoin="round"
       stroke-width="2"
       d="m 36.4,54.7 c 0.6272,-0.116 1.2624,-0.1829 1.9,-0.2 1.0022,-0.053 2.0011,0.1537 2.9,0.6 0.0355,-0.8133 0.1699,-1.6192 0.4,-2.4 0.0896,-0.3492 0.2241,-0.6853 0.4,-1 -0.0012,-0.0541 0.0417,-0.0988 0.0958,-0.1 0.0014,0 0.0028,0 0.0042,0 L 42.4,51 c 0.6392,-1.09 1.4891,-2.0418 2.5,-2.8 0.2521,-0.1889 0.5197,-0.3562 0.8,-0.5 0.48,-0.274 0.9817,-0.5081 1.5,-0.7 0.1,0 0.2,-0.1 0.3,-0.1 2.4599,-0.7767 5.1294,-0.5242 7.4,0.7 0.3091,-0.8468 0.8247,-1.603 1.5,-2.2 1.3371,-1.3741 3.183,-2.1342 5.1,-2.1 2,0 3.9,0.4 5.2,1.9"
       id="path17" />
  </g>
</svg>
