<svg xmlns="http://www.w3.org/2000/svg" xmlns:svg="http://www.w3.org/2000/svg" id="emoji" width="49.989" height="49.987" version="1.1" viewBox="0 0 49.989 49.987"><g id="color" transform="translate(-11.005598,-11.006276)"><path id="path1" fill="#f4aa41" stroke="none" d="m 48.6367,13.4648 c -1.9512,-1.9531 -5.1172,-1.9531 -7.0703,0 L 13.4648,41.5645 c -1.9531,1.9531 -1.9531,5.1191 -0.0019,7.0712 l 9.9004,9.8995 c 1.9531,1.9531 5.1191,1.9531 7.0703,0 L 58.5371,30.4355 c 1.9512,-1.9531 1.9512,-5.1191 0,-7.0712 z"/><path id="path2" fill="#ea5a47" stroke="none" d="m 20.5352,58.5352 c -1.9532,1.9531 -5.1192,1.9531 -7.0723,0 -1.9512,-1.9522 -1.9512,-5.1182 0,-7.0704 l 38.0019,-38 c 1.9532,-1.9531 5.1192,-1.9531 7.0723,0 1.9512,1.9522 1.9512,5.1182 0,7.0704 z"/></g><g id="line" transform="translate(-11.005598,-11.006276)"><path id="path3" fill="none" stroke="#000" stroke-linecap="round" stroke-linejoin="round" stroke-miterlimit="10" stroke-width="2" d="m 27,45.001 c 0,1.6562 -1.3437,3.001 -3.001,3.001 -1.6572,0 -2.999,1.3437 -3,3"/><path id="path4" fill="none" stroke="#000" stroke-linecap="round" stroke-linejoin="round" stroke-miterlimit="10" stroke-width="2" d="m 39.002,33 c 0,1.6563 -1.3438,3 -3.002,3 -1.6562,0 -2.999,1.3438 -3,3"/><path id="path5" fill="none" stroke="#000" stroke-linecap="round" stroke-linejoin="round" stroke-miterlimit="10" stroke-width="2" d="m 33,39 c 0,1.6563 -1.3418,3.001 -3,3 -1.6572,0 -3,1.3447 -3,3.001"/><path id="path6" fill="none" stroke="#000" stroke-linecap="round" stroke-linejoin="round" stroke-miterlimit="10" stroke-width="2" d="m 45.002,26.998 c 0,1.6573 -1.3418,3.002 -3,3.001 -1.6582,0 -3,1.3448 -3,3.001"/><path id="path7" fill="none" stroke="#000" stroke-linecap="round" stroke-linejoin="round" stroke-miterlimit="10" stroke-width="2" d="m 51.002,20.998 c 0,1.6563 -1.3418,3 -3,3 -1.6563,0 -3,1.3448 -3,3"/><path id="path8" fill="none" stroke="#000" stroke-linecap="round" stroke-linejoin="round" stroke-miterlimit="10" stroke-width="2" d="m 20.5352,58.5352 c -1.9532,1.9531 -5.1192,1.9531 -7.0723,0 -1.9512,-1.9522 -1.9512,-5.1182 0,-7.0704 l 38.0019,-38 c 1.9532,-1.9531 5.1192,-1.9531 7.0723,0 1.9512,1.9522 1.9512,5.1182 0,7.0704 z"/><path id="path9" fill="none" stroke="#000" stroke-linecap="round" stroke-linejoin="round" stroke-miterlimit="10" stroke-width="2" d="m 50.0508,14.8789 -1.4141,-1.4141 c -1.9512,-1.9531 -5.1172,-1.9531 -7.0703,0 L 13.4648,41.5645 c -1.9531,1.9531 -1.9531,5.1191 -0.0019,7.0712 l 1.416,1.4151"/><path id="path10" fill="none" stroke="#000" stroke-linecap="round" stroke-linejoin="round" stroke-miterlimit="10" stroke-width="2" d="m 21.9492,57.1211 1.4141,1.4141 c 1.9531,1.9531 5.1191,1.9531 7.0703,0 L 58.5371,30.4355 c 1.9512,-1.9531 1.9512,-5.1191 0,-7.0712 L 57.123,21.9492"/></g></svg>