<svg xmlns="http://www.w3.org/2000/svg" xmlns:svg="http://www.w3.org/2000/svg" id="emoji" width="46.969" height="45.608" version="1.1" viewBox="0 0 46.969 45.608"><g id="color" transform="translate(-12.730327,-18.557972)"><path id="path1" fill="#b1cc33" stroke="none" d="m 51.935,35.8718 c 4.1996,0.9278 6.7648,5.4824 6.7648,5.4824 0,0 -4.2448,3.05 -8.4449,2.1226 -4.2001,-0.9274 -6.7648,-5.4824 -6.7648,-5.4824 0,0 4.247,-3.0482 8.4449,-2.1226 z"/><path id="path2" fill="#5c9e31" stroke="none" d="m 22.3618,19.992 c 4.067,1.3991 6.0978,6.2158 6.0978,6.2158 0,0 -4.5639,2.5478 -8.6315,1.149 -4.0676,-1.3988 -6.0978,-6.2158 -6.0978,-6.2158 0,0 4.566,-2.5458 8.6315,-1.149 z"/></g><g id="line" transform="translate(-12.730327,-18.557972)"><polyline id="polyline2" fill="none" stroke="#000" stroke-linecap="round" stroke-linejoin="round" stroke-width="2" points="36 63.166 36 51.166 31 29.166"/><line id="line2" x1="36" x2="41" y1="51.166" y2="41.166" fill="none" stroke="#000" stroke-linecap="round" stroke-linejoin="round" stroke-width="2"/><path id="path3" fill="none" stroke="#000" stroke-linecap="round" stroke-linejoin="round" stroke-width="2" d="m 22.3618,19.992 c 4.067,1.3991 6.0978,6.2158 6.0978,6.2158 0,0 -4.5639,2.5478 -8.6315,1.149 -4.0676,-1.3988 -6.0978,-6.2158 -6.0978,-6.2158 0,0 4.566,-2.5458 8.6315,-1.149 z"/><path id="path4" fill="none" stroke="#000" stroke-linecap="round" stroke-linejoin="round" stroke-width="2" d="m 51.935,35.8718 c 4.1996,0.9278 6.7648,5.4824 6.7648,5.4824 0,0 -4.2448,3.05 -8.4449,2.1226 -4.2001,-0.9274 -6.7648,-5.4824 -6.7648,-5.4824 0,0 4.247,-3.0482 8.4449,-2.1226 z"/></g></svg>