<svg xmlns="http://www.w3.org/2000/svg" xmlns:svg="http://www.w3.org/2000/svg" id="emoji" width="50.218" height="58.175" version="1.1" viewBox="0 0 50.218 58.175"><g id="color" transform="translate(-10.7561,-6)"><path id="path1" fill="#b1cc33" d="m 35.4871,7.054 c -3.6266,0 -6.5664,3.2647 -6.5664,7.292 v 19.1925 h -2.9773 c -3.9616,0 -3.7957,-1.0309 -3.7957,-4.7691 l -1.6106,-3.2526 c 0,-2.7922 -0.3806,-3.6821 -3.3989,-3.41 -2.6314,0.2368 -5.1765,1.5557 -5.1765,4.05 L 11.7561,37.44 c 0,2.6374 4.38,7.58 7.1743,7.58 l 7.013,0.0688 v 0 h 2.9773 V 64.1754 H 42.0535 V 14.346 c 0,-4.0273 -2.9397,-7.292 -6.5664,-7.292 z"/><path id="path2" fill="#b1cc33" d="m 54.5238,25.9843 a 4.7767,4.7767 0 0 0 -5.2448,4.7531 v 6.3643 c 0,3.7383 0.1565,4.7691 -3.5816,4.7691 h -3.3913 l 0.0793,11.5507 h 3.312 v 0 h 8.3573 A 4.7757,4.7757 0 0 0 58.83,48.6458 V 30.9427 a 4.9143,4.9143 0 0 0 -4.3062,-4.9584 z"/></g><g id="line" transform="translate(-10.7561,-6)"><path id="path3" fill="none" stroke="#000" stroke-linecap="round" stroke-linejoin="round" stroke-width="2" d="M 42.0535,63.1477 V 14.198 c 0,-3.9562 -2.94,-7.1634 -6.5664,-7.1634 -3.6264,0 -6.5664,3.2072 -6.5664,7.1634 v 48.95"/><path id="path4" fill="none" stroke="#000" stroke-linecap="round" stroke-linejoin="round" stroke-width="2" d="M 25.0615,44.0454 H 18.6972 A 6.7684,6.7684 0 0 1 11.9287,37.2768 V 26.137 a 4.7765,4.7765 0 0 1 5.2447,-4.7531 4.9143,4.9143 0 0 1 4.3066,4.9584 V 31.11 a 3.3843,3.3843 0 0 0 3.3842,3.3842 h 0.1975"/><path id="path5" fill="none" stroke="#000" stroke-linecap="round" stroke-linejoin="round" stroke-width="2" d="m 45.8256,52.4027 h 8.3573 a 4.7757,4.7757 0 0 0 4.7756,-4.7756 V 29.9239 a 4.9143,4.9143 0 0 0 -4.3065,-4.9584 4.7765,4.7765 0 0 0 -5.2447,4.7531 v 6.3643 c 0,3.7382 0.1565,6.7685 -3.5817,6.7685"/><line id="line5" x1="40.096" x2="44.165" y1="18.349" y2="14.28" fill="none" stroke="#000" stroke-linecap="round" stroke-linejoin="round" stroke-width="2"/><line id="line6" x1="51.134" x2="55.203" y1="48.083" y2="44.015" fill="none" stroke="#000" stroke-linecap="round" stroke-linejoin="round" stroke-width="2"/><line id="line7" x1="20.153" x2="24.221" y1="30.369" y2="26.301" fill="none" stroke="#000" stroke-linecap="round" stroke-linejoin="round" stroke-width="2"/><line id="line8" x1="33.146" x2="29.668" y1="11.703" y2="7" fill="none" stroke="#000" stroke-linecap="round" stroke-linejoin="round" stroke-width="2"/><line id="line9" x1="31.217" x2="26.624" y1="55.233" y2="51.61" fill="none" stroke="#000" stroke-linecap="round" stroke-linejoin="round" stroke-width="2"/><line id="line10" x1="55.905" x2="59.974" y1="27.996" y2="23.928" fill="none" stroke="#000" stroke-linecap="round" stroke-linejoin="round" stroke-width="2"/><line id="line11" x1="51.032" x2="46.626" y1="35.572" y2="31.725" fill="none" stroke="#000" stroke-linecap="round" stroke-linejoin="round" stroke-width="2"/><line id="line12" x1="36.174" x2="33.237" y1="25.578" y2="21.361" fill="none" stroke="#000" stroke-linecap="round" stroke-linejoin="round" stroke-width="2"/><line id="line13" x1="14.694" x2="11.756" y1="25.962" y2="20.712" fill="none" stroke="#000" stroke-linecap="round" stroke-linejoin="round" stroke-width="2"/></g></svg>