<?xml version="1.0" encoding="UTF-8" standalone="no"?>
<svg
   id="emoji"
   viewBox="0 0 40.380753 60.026917"
   version="1.1"
   sodipodi:docname="1f332.svg"
   width="40.380753"
   height="60.026917"
   xmlns:inkscape="http://www.inkscape.org/namespaces/inkscape"
   xmlns:sodipodi="http://sodipodi.sourceforge.net/DTD/sodipodi-0.dtd"
   xmlns="http://www.w3.org/2000/svg"
   xmlns:svg="http://www.w3.org/2000/svg">
  <defs
     id="defs1" />
  <sodipodi:namedview
     id="namedview1"
     pagecolor="#ffffff"
     bordercolor="#000000"
     borderopacity="0.25"
     inkscape:showpageshadow="2"
     inkscape:pageopacity="0.0"
     inkscape:pagecheckerboard="0"
     inkscape:deskcolor="#d1d1d1" />
  <g
     id="color"
     transform="translate(-15.812773,-6.2457791)">
    <path
       fill="#5c9e31"
       stroke="none"
       d="m 56.0354,54.0052 -8.1237,-15.2094 3.3463,0.5399 c 0.5439,0.0891 1.0571,-0.2796 1.1462,-0.8235 0.0381,-0.2326 -0.0073,-0.4712 -0.1283,-0.6735 l -7.3722,-12.434 3.0778,0.2186 c 0.5498,0.0384 1.0267,-0.3762 1.0651,-0.9261 0.0158,-0.2267 -0.0462,-0.4521 -0.1759,-0.6388 L 36.825,6.7243 C 36.633,6.4545 36.3218,6.2948 35.9907,6.2962 35.6586,6.3011 35.3507,6.471 35.1694,6.7493 l -3.7175,5.7005 -7.8213,12.0069 c -0.3011,0.4617 -0.1709,1.08 0.2908,1.3811 0.2089,0.1362 0.4612,0.1893 0.7072,0.1488 L 26.93,25.6134 19.3782,37.8248 c -0.2901,0.4687 -0.1453,1.0838 0.3234,1.3738 0.2013,0.1246 0.4405,0.1736 0.6746,0.1381 l 3.7265,-0.5629 -8.1347,15.2314 c -0.2597,0.4861 -0.0762,1.0908 0.4099,1.3505 0.1647,0.088 0.3508,0.128 0.5372,0.1155 l 12.447,-0.8363 1.0359,-0.0699 10.961,-0.1247 13.7184,1.0309 h 0.0749 c 0.5512,-1e-4 0.9979,-0.447 0.9978,-0.9981 0,-0.1639 -0.0404,-0.3253 -0.1176,-0.4699 z"
       id="path1" />
  </g>
  <g
     id="hair"
     transform="translate(-15.812773,-6.2457791)" />
  <g
     id="skin"
     transform="translate(-15.812773,-6.2457791)" />
  <g
     id="skin-shadow"
     transform="translate(-15.812773,-6.2457791)" />
  <g
     id="line"
     transform="translate(-15.812773,-6.2457791)">
    <polyline
       fill="none"
       stroke="#000000"
       stroke-linecap="round"
       stroke-linejoin="round"
       stroke-width="2"
       points="41.4476,53.4897 55.1936,54.5227 46.1036,37.5027 51.4476,38.3647 43.0886,24.2657 48.0726,24.6147 36.0036,7.2457 24.4476,24.9897 28.9176,24.2657 20.1976,38.3647 25.9026,37.5027 16.8127,54.5227 30.3226,53.6147"
       id="polyline1" />
    <line
       x1="36.003601"
       x2="36.003601"
       y1="55.963699"
       y2="65.272697"
       fill="none"
       stroke="#000000"
       stroke-linecap="round"
       stroke-miterlimit="10"
       stroke-width="2"
       id="line1" />
  </g>
</svg>
