<?xml version="1.0" encoding="UTF-8" standalone="no"?>
<svg
   id="emoji"
   viewBox="0 0 55.749001 57.970001"
   version="1.1"
   sodipodi:docname="1f333.svg"
   width="55.749001"
   height="57.970001"
   xmlns:inkscape="http://www.inkscape.org/namespaces/inkscape"
   xmlns:sodipodi="http://sodipodi.sourceforge.net/DTD/sodipodi-0.dtd"
   xmlns="http://www.w3.org/2000/svg"
   xmlns:svg="http://www.w3.org/2000/svg">
  <defs
     id="defs3" />
  <sodipodi:namedview
     id="namedview3"
     pagecolor="#ffffff"
     bordercolor="#000000"
     borderopacity="0.25"
     inkscape:showpageshadow="2"
     inkscape:pageopacity="0.0"
     inkscape:pagecheckerboard="0"
     inkscape:deskcolor="#d1d1d1" />
  <g
     id="color"
     transform="translate(-8.6255,-6.9734)">
    <path
       fill="#b1cc33"
       d="m 51.5605,17.7304 c -0.5093,0.0029 -1.018,0.0333 -1.524,0.091 l -0.673,0.072 -0.317,-0.6 c -2.673,-5.047 -8.5,-8.308 -14.854,-8.308 -9.026,0 -16.369,6.4 -16.369,14.268 0.0014,0.5162 0.0348,1.0319 0.1,1.544 l 0.1,0.824 -0.792,0.251 c -4.015,1.272 -6.608,4.186 -6.608,7.421 0,4.445 4.851,8.061 10.813,8.061 2.3045,0.0227 4.5747,-0.5593 6.584,-1.688 l 0.591,-0.341 0.189,0.151 0.344,0.275 c 2.714,2.167 7.082,3.462 11.683,3.462 7.762,0 14.32,-3.691 14.32,-8.061 -0.0013,-0.2702 -0.0274,-0.5396 -0.078,-0.805 l -0.138,-0.751 -0.022,-0.117 0.842,-0.266 c 4.022,-1.271 6.622,-4.185 6.622,-7.425 10e-4,-4.439 -4.851,-8.058 -10.813,-8.058 z"
       id="path1" />
    <path
       fill="#5c9e31"
       d="m 39.4685,27.9974 c 0,0 4.917,7.331 15.443,5.488 l 0.6272,1.7053 -0.8266,2.6189 c -2.5901,3.1871 -5.0927,4.6512 -9.1032,5.5357 l -7.9389,0.0438 -7.2116,-1.9327 -1.846,-2.126 c 5.1993,-1.8606 9.2206,-6.0585 10.856,-11.333 z"
       id="path2" />
  </g>
  <g
     id="line"
     transform="translate(-8.6255,-6.9734)">
    <polyline
       fill="none"
       stroke="#000000"
       stroke-linecap="round"
       stroke-linejoin="round"
       stroke-width="2"
       points="35.7895 63.9434 35.7895 52.7764 28.1585 45.2604"
       id="polyline2" />
    <line
       x1="35.789501"
       x2="40.157501"
       y1="52.776402"
       y2="48.2304"
       fill="none"
       stroke="#000000"
       stroke-linecap="round"
       stroke-linejoin="round"
       stroke-width="2"
       id="line2" />
    <path
       fill="none"
       stroke="#000000"
       stroke-linecap="round"
       stroke-miterlimit="10"
       stroke-width="2"
       d="m 63.3745,25.7734 c 0,-5 -5.289,-9.061 -11.813,-9.061 -0.5451,0.0044 -1.0895,0.0378 -1.631,0.1 -2.763,-5.216 -8.762,-8.839 -15.738,-8.839 -9.593,0 -17.369,6.836 -17.369,15.268 0.0017,0.5574 0.0378,1.1141 0.108,1.667 -4.288,1.359 -7.306,4.595 -7.306,8.374 0,5 5.289,9.061 11.813,9.061 2.4798,0.021 4.922,-0.6072 7.084,-1.822 2.791,2.229 7.257,3.681 12.307,3.681 8.461,0 15.32,-4.057 15.32,-9.061 -0.0014,-0.3308 -0.0329,-0.6609 -0.094,-0.986 4.293,-1.36 7.319,-4.598 7.319,-8.382 z"
       id="path3" />
  </g>
</svg>
