<svg xmlns="http://www.w3.org/2000/svg" xmlns:svg="http://www.w3.org/2000/svg" id="emoji" width="50.161" height="46.541" version="1.1" viewBox="0 0 50.161 46.541"><g id="color" transform="translate(-11.086662,-12.506015)"><path id="path1" fill="#a57939" d="m 28,28.6136 18,-1 c 0,0 5,25 -1,25 l -9,5 -7.79,-4.7685 C 24,40.6136 28,28.6136 28,28.6136 Z"/><path id="path2" fill="#f1b31c" d="m 17,23.6136 c 0,0 1.3997,-3.1233 4.9774,-5.8066 6.7747,-4.6017 14.6946,-4.3 14.6946,-4.3 L 23,25.6136 Z"/><path id="path3" fill="#6a462f" d="m 27,27.6136 -11.2506,-4 c 0,0 -12.7494,19 11.2506,28 z"/><path id="path4" fill="#6a462f" d="m 47,27.6136 9.8246,-3.1745 c 0,0 10.931,12.1435 -9.8246,27.1745 l 1,-13 z"/><path id="path5" fill="#f1b31c" d="m 16.9266,23.4983 0.0839,0.1938 C 34.5076,34.1845 57,23.6136 57,23.6136 52.5606,17.3141 45.3501,13.5489 37.6436,13.506"/></g><g id="line" transform="translate(-11.086662,-12.506015)"><path id="path6" fill="none" stroke="#000" stroke-miterlimit="10" stroke-width="2" d="m 16.9266,23.4983 0.0839,0.1938 C 34.5076,34.1845 57,23.6136 57,23.6136 52.5606,17.3141 45.3501,13.5489 37.6436,13.506"/><path id="path7" fill="none" stroke="#000" stroke-miterlimit="10" stroke-width="2" d="m 16,23.6136 c 17.4971,10.4924 41,0 41,0"/><path id="path8" fill="none" stroke="#000" stroke-miterlimit="10" stroke-width="2" d="m 46.4732,27.5435 c 0,0 4.6059,13.5332 -1.1843,25.3016"/><path id="path9" fill="none" stroke="#000" stroke-miterlimit="10" stroke-width="2" d="m 46.4732,27.5435 c 0,0 4.6059,13.5332 -1.1843,25.3016"/><path id="path10" fill="none" stroke="#000" stroke-linecap="round" stroke-linejoin="round" stroke-width="2" d="M 21.9774,17.807 C 15.82,21.79 11.7326,28.1967 12.1108,35.5487 c 0.3892,7.5649 6.78,14.6806 13.5472,16.3619 4.101,1.0189 8.7043,4.8382 10.0172,5.9834 0.2172,0.1908 0.537,0.2077 0.7731,0.0409 2.7272,-1.8628 5.5839,-3.5287 8.5483,-4.9849 C 53.5711,48.7476 58.5,43.114 59.9736,35.5491 62.2646,23.7879 49.8889,13.507 36.672,13.507 c -3.9287,0.0022 -7.8109,0.8495 -11.3832,2.4845"/><path id="path11" fill="none" stroke="#000" stroke-miterlimit="10" stroke-width="2" d="m 27.0255,27.5435 c -0.5483,8.4517 -0.151,16.9381 1.1845,25.3016"/></g></svg>