<svg xmlns="http://www.w3.org/2000/svg" xmlns:svg="http://www.w3.org/2000/svg" id="emoji" width="51.392" height="51.158" version="1.1" viewBox="0 0 51.392 51.158"><g id="color" transform="translate(-10.215007,-9.929)"><path id="path1" fill="#ea5a47" d="m 53.88,21.51 a 11.4166,11.4166 0 0 0 -10.7373,0.5044 c -0.0352,0.0156 -0.0723,0.0332 -0.1084,0.0517 a 22.914,22.914 0 0 1 -7.5674,1.8765 15.9071,15.9071 0 0 1 -6.6377,-1.85 L 28.6876,22.0169 A 11.41,11.41 0 0 0 17.9239,21.5105 C 10.7,25.1406 8.1008,36.69 12.1291,47.2539 c 2.373,6.2324 6.6846,11.08 11.5352,12.9658 a 10.9829,10.9829 0 0 0 9.1337,-0.2656 11.3772,11.3772 0 0 0 1.5323,-0.9316 2.7261,2.7261 0 0 1 3.1582,0 11.1728,11.1728 0 0 0 1.5312,0.9326 10.4646,10.4646 0 0 0 4.7354,1.1269 12.0778,12.0778 0 0 0 4.3828,-0.8593 c 4.8515,-1.8858 9.165,-6.7334 11.539,-12.9678 C 63.7072,36.6846 61.1076,25.1353 53.88,21.51 Z"/><path id="path2" fill="#f4aa41" d="m 48.9988,21.4048 a 1.0736,1.0736 0 0 0 -0.2454,0.0094 l 0.0377,-0.2266 c 0.0755,0.0756 0.1417,0.1417 0.2077,0.2172 z"/><path id="path3" fill="#d22f27" d="m 53.883,21.5112 a 10.367,10.367 0 0 0 -4.9023,-1.1064 1,1 0 0 0 -0.6954,1.7 c 9.4434,9.6245 6.3877,19.16 3.7266,23.9878 -3.8916,7.0586 -10.8437,11.4658 -14.457,10.68 a 1,1 0 0 0 -0.6719,1.8652 15.5133,15.5133 0 0 0 7.1689,1.8984 12.8953,12.8953 0 0 0 4.629,-0.8632 c 4.66,-1.7764 8.6679,-6.3038 10.9951,-12.4219 4.0351,-10.5685 1.4375,-22.1154 -5.793,-25.7399 z"/><path id="path4" fill="#b1cc33" d="m 48.0445,17.3947 c 3.9562,1.3292 6.8444,5.8193 6.8444,5.8193 0,0 -5.0135,1.8354 -8.97,0.5062 -3.9508,-1.3274 -6.8444,-5.8193 -6.8444,-5.8193 0,0 5.0192,-1.8336 8.97,-0.5062 z"/></g><g id="line" transform="translate(-10.215007,-9.929)"><g id="line-2"><polyline id="polyline4" fill="none" stroke="#000" stroke-linecap="round" stroke-linejoin="round" stroke-width="2" points="35.046 20.733 35.046 15.272 30.702 10.929"/><path id="path5" fill="none" stroke="#000" stroke-linecap="round" stroke-linejoin="round" stroke-width="2" d="m 57.3335,25.7657 c 3.6482,4.9493 4.3968,13.296 1.4093,21.1329 -3.8569,10.1286 -12.4875,15.573 -19.2735,12.1633 a 10.24,10.24 0 0 1 -1.3942,-0.849 3.7126,3.7126 0 0 0 -4.3311,-9e-4 10.27,10.27 0 0 1 -1.396,0.85 C 25.5509,62.472 16.9204,57.0273 13.0634,46.8987 9.2065,36.7813 11.5878,25.8142 18.3734,22.4045 a 10.42,10.42 0 0 1 9.838,0.4919 c 0,0 0.0559,0.0336 0.1677,0.09 a 16.8628,16.8628 0 0 0 7.0878,1.9564 13.2712,13.2712 0 0 0 2.2487,-0.2145 18.6342,18.6342 0 0 0 2.126,-0.4632"/><path id="path6" fill="none" stroke="#000" stroke-linecap="round" stroke-linejoin="round" stroke-width="2" d="m 48.0445,17.3947 c 3.9562,1.3292 6.8444,5.8193 6.8444,5.8193 0,0 -5.0135,1.8354 -8.97,0.5062 -3.9508,-1.3274 -6.8444,-5.8193 -6.8444,-5.8193 0,0 5.0192,-1.8336 8.97,-0.5062 z"/></g></g></svg>