<?xml version="1.0" encoding="UTF-8" standalone="no"?>
<svg
   id="emoji"
   viewBox="0 0 52.750099 53.0051"
   version="1.1"
   sodipodi:docname="1f346.svg"
   width="52.750099"
   height="53.0051"
   xmlns:inkscape="http://www.inkscape.org/namespaces/inkscape"
   xmlns:sodipodi="http://sodipodi.sourceforge.net/DTD/sodipodi-0.dtd"
   xmlns="http://www.w3.org/2000/svg"
   xmlns:svg="http://www.w3.org/2000/svg">
  <defs
     id="defs9" />
  <sodipodi:namedview
     id="namedview9"
     pagecolor="#ffffff"
     bordercolor="#000000"
     borderopacity="0.25"
     inkscape:showpageshadow="2"
     inkscape:pageopacity="0.0"
     inkscape:pagecheckerboard="0"
     inkscape:deskcolor="#d1d1d1" />
  <g
     id="color"
     transform="translate(-9.9943062,-9)">
    <path
       fill="#8967aa"
       stroke="#8967aa"
       stroke-linecap="round"
       stroke-linejoin="round"
       stroke-miterlimit="10"
       stroke-width="2"
       d="M 60.62,23.81 C 60.85,35.44 57.21,45.79 51.5,51 c -0.1,0.1 -0.19,0.2 -0.3,0.3 -0.2,0.21 -0.4,0.42 -0.62,0.62 -0.3,0.29 -0.61,0.58 -0.93,0.86 -0.36,0.33 -0.73,0.64 -1.11,0.95 -0.18,0.15 -0.37,0.29 -0.56,0.44 -0.55,0.43 -1.11,0.84 -1.69,1.23 -0.21,0.14 -0.41,0.28 -0.62,0.41 -6.09,3.93 -13.56,5.84 -21.26,5 C 23.61,60.72 22.8,60.6 22,60.44 20.82,60.17 19.72,59.76 18.69,59.24 54.59,58.98 51.4125,26.73 51.3125,23.5 Z"
       id="path1" />
    <path
       fill="#b399c8"
       stroke="#b399c8"
       stroke-linecap="round"
       stroke-linejoin="round"
       stroke-miterlimit="10"
       stroke-width="2"
       d="m 43.34,22.61 -0.25,-0.02 c 0.11,-0.13 0.2,-0.12 0.25,0.02 z"
       id="path2" />
    <path
       fill="#b399c8"
       stroke="#b399c8"
       stroke-linecap="round"
       stroke-linejoin="round"
       stroke-miterlimit="10"
       stroke-width="2"
       d="m 18.69,59.24 c -0.1,-0.04 -0.2,-0.09 -0.29,-0.14 -5.33,-2.86 -8.39,-8.83 -7.12,-14.91 1.57,-7.52 9.13,-12.38 16.87,-10.86 0,0 8.1,2.63 13.35,-3.8 1.79,-2.19 2.18,-6.21 1.84,-6.92 l 10.8,0.75 -2.9525,-1.4225 C 51.2875,25.1675 54.59,58.98 18.69,59.24 Z"
       id="path3" />
    <path
       fill="#5c9e31"
       stroke="#5c9e31"
       stroke-linecap="round"
       stroke-linejoin="round"
       stroke-miterlimit="10"
       stroke-width="2"
       d="m 61.69,26.22 c 0,0 -3.72,0.53 -6.8,-1.81 -0.54,3.78 -3.52,6.01 -3.52,6.01 0,0 -2.97,-2.23 -3.51,-6.01 -0.71,0.54 -1.46,0.93 -2.19,1.2 -2.42,0.92 -4.62,0.61 -4.62,0.61 0,0 -0.63,-4.47 2.55,-7.66 0.65,-0.66 1.36,-1.15 2.07,-1.52 2.76,-1.44 10.28,-1.68 13.48,1.52 3.19,3.19 2.54,7.66 2.54,7.66 z"
       id="path4" />
    <path
       fill="#b1cc33"
       stroke="none"
       d="m 51.37,30.42 c 0,0 -2.97,-2.23 -3.51,-6.01 -0.71,0.54 -1.46,0.93 -2.19,1.2 -2.42,0.92 -4.62,0.61 -4.62,0.61 0,0 -0.63,-4.47 2.55,-7.66 0.65,-0.66 1.36,-1.15 2.07,-1.52 C 48.43,15.6 51.26,16 51.26,16 Z"
       id="path5" />
  </g>
  <g
     id="hair"
     transform="translate(-9.9943062,-9)" />
  <g
     id="skin"
     transform="translate(-9.9943062,-9)" />
  <g
     id="skin-shadow"
     transform="translate(-9.9943062,-9)" />
  <g
     id="line"
     transform="translate(-9.9943062,-9)">
    <path
       fill="none"
       stroke="#000000"
       stroke-linecap="round"
       stroke-linejoin="round"
       stroke-miterlimit="10"
       stroke-width="2"
       d="m 60.2755,30.4183 c -0.0991,1.8395 -0.539,3.8125 -0.9248,5.6459 C 56.0433,51.986 40.7433,62.5965 24.4143,60.8059 23.6058,60.7212 22.7973,60.6002 22.001,60.443 14.5286,58.725 9.7512,51.5384 11.2824,44.1945 c 1.568,-7.5253 9.1261,-12.389 16.868,-10.8646 0,0 7.7474,1.9693 12.8504,-3.1818"
       id="path6" />
    <path
       fill="none"
       stroke="#000000"
       stroke-linecap="round"
       stroke-linejoin="round"
       stroke-miterlimit="10"
       stroke-width="2"
       d="M 50.7929,11.9832 C 50.1897,10.9538 49.0717,10 47,10"
       id="path7" />
    <path
       fill="none"
       stroke="#000000"
       stroke-linecap="round"
       stroke-linejoin="round"
       stroke-miterlimit="10"
       stroke-width="2"
       d="m 61.69,26.22 c 0,0 -3.72,0.53 -6.8,-1.81 -0.54,3.78 -3.52,6.01 -3.52,6.01 0,0 -2.97,-2.23 -3.51,-6.01 -0.71,0.54 -1.46,0.93 -2.19,1.2 -2.42,0.92 -4.62,0.61 -4.62,0.61 0,0 -0.63,-4.47 2.55,-7.66 0.65,-0.66 1.36,-1.15 2.07,-1.52 2.76,-1.44 10.28,-1.68 13.48,1.52 3.19,3.19 2.54,7.66 2.54,7.66 z"
       id="path8" />
    <path
       fill="none"
       stroke="#000000"
       stroke-linecap="round"
       stroke-linejoin="round"
       stroke-miterlimit="10"
       stroke-width="2"
       d="m 41.0008,30.1481 c 0.1285,-0.1297 0.2554,-0.264 0.3803,-0.4029"
       id="path9" />
  </g>
</svg>
