<svg xmlns="http://www.w3.org/2000/svg" xmlns:svg="http://www.w3.org/2000/svg" id="emoji" width="45.682" height="58.107" version="1.1" viewBox="0 0 45.682 58.107"><g id="color" transform="translate(-13.16,-6.9481936)"><path id="path1" fill="#b399c8" d="m 32.33,37.54 a 6.688,6.688 0 0 1 -6.688,6.688 6.688,6.688 0 0 1 -6.688,-6.688 6.688,6.688 0 0 1 6.688,-6.688 6.688,6.688 0 0 1 6.688,6.688"/><path id="path2" fill="#b399c8" d="m 27.88,27.51 a 6.688,6.688 0 0 1 -6.688,6.688 6.688,6.688 0 0 1 -6.688,-6.688 6.688,6.688 0 0 1 6.688,-6.688 6.688,6.688 0 0 1 6.688,6.688"/><path id="path3" fill="#b399c8" d="M 31.22,34.2 A 6.684,6.684 0 1 0 25.323,30.669"/><path id="path4" fill="#b399c8" d="m 49.05,47.58 a 6.688,6.688 0 0 1 -6.688,6.688 6.688,6.688 0 0 1 -6.688,-6.688 6.688,6.688 0 0 1 6.688,-6.688 6.688,6.688 0 0 1 6.688,6.688"/><path id="path5" fill="#b399c8" d="m 37.91,47.58 a 6.688,6.688 0 0 1 -6.688,6.688 6.688,6.688 0 0 1 -6.688,-6.688 6.688,6.688 0 0 1 6.688,-6.688 6.688,6.688 0 0 1 6.688,6.688"/><path id="path6" fill="#b399c8" d="m 55.74,37.54 a 6.688,6.688 0 0 1 -6.688,6.688 6.688,6.688 0 0 1 -6.688,-6.688 6.688,6.688 0 0 1 6.688,-6.688 6.688,6.688 0 0 1 6.688,6.688"/><path id="path7" fill="#b399c8" d="m 43.48,36.43 a 6.688,6.688 0 0 1 -6.688,6.688 6.688,6.688 0 0 1 -6.688,-6.688 6.688,6.688 0 0 1 6.688,-6.688 6.688,6.688 0 0 1 6.688,6.688"/><path id="path8" fill="#8967aa" d="m 36.57,29.13 a 6.69,6.69 0 0 1 0,13.38"/><path id="path9" fill="#8967aa" d="m 57.82,27.18 c 0,3.693 -1.239,5.486 -4.762,4.377 -4.713,-1.483 -8.869,0.0912 -8.613,-4.377 0.2117,-3.687 2.994,-6.688 6.688,-6.688 3.694,0 6.688,2.994 6.688,6.688"/><path id="path10" fill="#b399c8" d="m 47.22,30.54 a 6.678,6.678 0 1 0 -4.165,3.415"/><path id="path11" fill="#b399c8" d="m 43.48,57.61 a 6.688,6.688 0 0 1 -6.688,6.688 6.688,6.688 0 0 1 -6.688,-6.688 6.688,6.688 0 0 1 6.688,-6.688 6.688,6.688 0 0 1 6.688,6.688"/><path id="path12" fill="#8967aa" d="m 36.57,50.92 a 6.69,6.69 0 0 1 0,13.38"/><path id="path13" fill="#8967aa" d="m 42.16,40.89 a 6.69,6.69 0 0 1 0,13.38"/><path id="path14" fill="#8967aa" d="m 48.97,30.79 a 6.69,6.69 0 0 1 0,13.38"/><path id="path15" fill="#8967aa" d="m 41.08,20.88 a 6.69,6.69 0 0 1 0,13.38"/></g><g id="line" transform="translate(-13.16,-6.9481936)"><path id="path16" fill="none" stroke="#000" stroke-linecap="round" stroke-linejoin="round" stroke-width="2" d="M 37.01,21.82 C 35.667,14.489 30.781,-0.61 14.16,14.246"/><path id="path17" fill="none" stroke="#000" stroke-miterlimit="10" d="M 54.34,32.9 A 6.679,6.672 0 1 0 46.228,22.58"/><path id="path18" fill="none" stroke="#000" stroke-miterlimit="10" stroke-width="2" d="M 30.48,40.42 A 6.625,6.619 0 0 1 29.531,37.002 6.706,6.699 0 0 1 34.993,30.44"/><ellipse id="ellipse18" cx="36.57" cy="57.34" fill="none" stroke="#000" stroke-miterlimit="10" stroke-width="2" rx="6.721" ry="6.715"/><path id="path19" fill="none" stroke="#000" stroke-miterlimit="10" stroke-width="2" d="m 36.57,50.62 a 6.721,6.715 0 0 0 0,13.43"/><path id="path20" fill="none" stroke="#000" stroke-miterlimit="10" stroke-width="2" d="m 42.17,53.98 q 0.2552,0 0.5059,-0.01869"/><path id="path21" fill="none" stroke="#000" stroke-miterlimit="10" stroke-width="2" d="M 42.67,53.96 A 6.718,6.711 0 1 0 36.119,50.204"/><path id="path22" fill="none" stroke="#000" stroke-miterlimit="10" stroke-width="2" d="M 36.37,43.28 A 6.721,6.715 0 1 0 30.328,53.95"/><path id="path23" fill="none" stroke="#000" stroke-miterlimit="10" stroke-width="2" d="m 43.13,33.73 a 6.732,6.725 0 0 0 -0.2801,6.416"/><path id="path24" fill="none" stroke="#000" stroke-miterlimit="10" stroke-width="2" d="M 47.91,43.84 A 6.721,6.715 0 1 0 43.127,33.73"/><path id="path25" fill="none" stroke="#000" stroke-miterlimit="10" stroke-width="2" d="M 30.41,32.75 A 6.721,6.715 0 1 0 24.253,43.81"/><path id="path26" fill="none" stroke="#000" stroke-miterlimit="10" stroke-width="2" d="m 24.25,43.81 a 6.775,6.768 0 0 0 1.112,0.09143"/><path id="path27" fill="none" stroke="#000" stroke-miterlimit="10" stroke-width="2" d="M 54.5,32.93 A 6.721,6.715 0 1 0 46.178,22.58"/><path id="path28" fill="none" stroke="#000" stroke-miterlimit="10" stroke-width="2" d="m 46.68,30.78 a 6.708,6.701 0 1 0 -3.669,2.765"/><path id="path29" fill="none" stroke="#000" stroke-miterlimit="10" stroke-width="2" d="m 35.83,22.48 a 6.723,6.716 0 0 0 -10.9,7.582"/><path id="path30" fill="none" stroke="#000" stroke-miterlimit="10" stroke-width="2" d="m 25.64,22.37 a 6.721,6.715 0 1 0 -6.216,11.3"/><path id="path31" fill="none" stroke="#000" stroke-linecap="round" stroke-linejoin="round" stroke-width="2" d="m 50.57,9.212 c 0,0 -3.357,7.635 -15.68,5.496"/></g></svg>