<svg xmlns="http://www.w3.org/2000/svg" xmlns:svg="http://www.w3.org/2000/svg" id="emoji" width="36.135" height="54.943" version="1.1" viewBox="0 0 36.135 54.943"><g id="color" transform="translate(-20.948805,-7.8210235)"><path id="path1" fill="#b1cc33" stroke="none" d="m 48.8683,32.5567 -3.6904,-3.0993 4.6308,1.3342 c 2.4301,0.4831 4.6846,0.3218 5.7975,-1.7671 1.113,-2.089 0.3218,-4.6848 -1.7671,-5.7977 l -1.8912,-1.0076 0.3358,-0.6302 0.6718,-1.2609 c 1.113,-2.089 0.3217,-4.6845 -1.7672,-5.7975 -2.089,-1.113 -4.0135,-0.0094 -5.7975,1.7671 l -3.0993,3.6905 1.3342,-4.6309 c 0.4889,-2.365 0.3217,-4.6845 -1.7672,-5.7975 -2.0889,-1.113 -4.6846,-0.3218 -5.7975,1.7671 l -1.0076,1.8912 -0.6304,-0.3359 -1.2608,-0.6717 c -2.089,-1.113 -4.6847,-0.3216 -5.7976,1.7674 -1.1129,2.089 -0.1912,4.1826 1.7672,5.7975 l 4.5599,3.5592 0.0131,0.0103 -4.5529,-1.4901 c -0.8837,-0.2891 -1.7981,-0.4974 -2.7272,-0.5326 -1.6529,-0.0626 -3.0631,0.3703 -3.9169,1.7848 -1.2833,2.126 -0.3442,4.934 1.8474,6.1016 l 1.6972,0.9042 -0.3359,0.6305 -0.5832,1.0946 c -1.1477,2.1542 -0.3756,4.9596 1.816,6.034 2.0382,0.9996 3.9666,0.0256 5.6601,-1.8373 l 3.0993,-3.6905 -1.3342,4.6309 c -0.5042,2.0202 -0.3217,4.6845 1.7672,5.7975 2.089,1.113 4.6846,0.3218 5.7975,-1.7671 l 1.0077,-1.8914 0.6304,0.3359 1.2608,0.6717 c 2.089,1.113 4.6846,0.3218 5.7975,-1.7671 1.1129,-2.0892 0.2515,-4.066 -1.7673,-5.7978 z"/></g><g id="line" transform="translate(-20.948805,-7.8210235)"><path id="path2" fill="none" stroke="#000" stroke-linecap="round" stroke-linejoin="round" stroke-width="2" d="m 30.3663,41.0292 c -3.438,3.548 -7.676,10.246 -5.829,20.735"/><path id="path3" fill="none" stroke="#000" stroke-linecap="round" stroke-linejoin="round" stroke-miterlimit="10" stroke-width="2" d="m 45.1016,29.3352 4.5993,1.439 c 2.4184,0.5383 4.6761,0.4281 5.8362,-1.635 1.1601,-2.0631 0.4281,-4.6761 -1.635,-5.8362 l -1.8678,-1.0503 0.3501,-0.6226 0.7002,-1.2452 c 1.1601,-2.0631 0.4281,-4.6761 -1.635,-5.8362 -2.0631,-1.1601 -4.0122,-0.1006 -5.8362,1.635 l -3.1823,3.619"/><path id="path4" fill="none" stroke="#000" stroke-linecap="round" stroke-linejoin="round" stroke-miterlimit="10" stroke-width="2" d="m 35.5692,32.0058 -1.439,4.5993 c -0.5499,2.0082 -0.4281,4.6761 1.635,5.8362 2.0631,1.1601 4.6761,0.4281 5.8362,-1.635 l 1.0503,-1.8678 0.6226,0.3501 1.2452,0.7002 c 2.0631,1.1601 4.6761,0.4281 5.8362,-1.635 1.1601,-2.0631 0.3439,-4.059 -1.635,-5.8362 l -3.619,-3.1823"/><path id="path5" fill="none" stroke="#000" stroke-linecap="round" stroke-linejoin="round" stroke-miterlimit="10" stroke-width="2" d="m 33.7703,22.9634 -4.518,-1.5931 C 28.3755,21.0611 27.466,20.832 26.538,20.7757 c -1.651,-0.1002 -3.0707,0.3006 -3.9564,1.6953 -1.3313,2.0963 -0.4564,4.925 1.7081,6.1422 l 1.6762,0.9426 -0.3501,0.6226 -0.6079,1.0811 c -1.1963,2.1275 -0.4881,4.9496 1.6785,6.0737 2.015,1.0455 3.965,0.1156 5.7005,-1.7084 l 3.1823,-3.619"/><path id="path6" fill="none" stroke="#000" stroke-linecap="round" stroke-linejoin="round" stroke-miterlimit="10" stroke-width="2" d="m 42.4311,19.8028 1.439,-4.5993 C 44.4126,12.8502 44.2982,10.5274 42.2351,9.3673 40.172,8.2072 37.559,8.9392 36.3989,11.0023 L 35.3486,12.87 34.726,12.5199 33.4808,11.8197 c -2.0631,-1.1601 -4.6761,-0.4281 -5.8362,1.635 -1.1601,2.0631 -0.2862,4.1772 1.635,5.8362 l 4.4907,3.6725"/></g></svg>