<?xml version="1.0" encoding="UTF-8" standalone="no"?>
<svg
   id="emoji"
   viewBox="0 0 51.391922 51.154556"
   version="1.1"
   sodipodi:docname="1f34f.svg"
   width="51.391922"
   height="51.154556"
   xmlns:inkscape="http://www.inkscape.org/namespaces/inkscape"
   xmlns:sodipodi="http://sodipodi.sourceforge.net/DTD/sodipodi-0.dtd"
   xmlns="http://www.w3.org/2000/svg"
   xmlns:svg="http://www.w3.org/2000/svg">
  <defs
     id="defs7" />
  <sodipodi:namedview
     id="namedview7"
     pagecolor="#ffffff"
     bordercolor="#000000"
     borderopacity="0.25"
     inkscape:showpageshadow="2"
     inkscape:pageopacity="0.0"
     inkscape:pagecheckerboard="0"
     inkscape:deskcolor="#d1d1d1" />
  <g
     id="color"
     transform="translate(-10.623214,-9.7583)">
    <path
       fill="#b1cc33"
       stroke="#b1cc33"
       stroke-linecap="round"
       stroke-linejoin="round"
       stroke-miterlimit="10"
       stroke-width="2"
       d="m 43.9805,22.748 c 3.2532,-1.7664 6.7524,-2.0682 9.8603,-0.5143 6.7971,3.4098 9.1671,14.3768 5.3102,24.4942 -3.8569,10.1286 -12.4875,15.573 -19.2735,12.1633 -0.4877,-0.2459 -0.953,-0.5297 -1.3942,-0.849 -1.2846,-0.9296 -3.0462,-0.93 -4.3311,-9e-4 -0.4421,0.3197 -0.9078,0.6038 -1.396,0.8499 C 25.9591,62.3009 17.3286,56.8565 13.4716,46.7279 9.6147,36.6105 11.996,25.6434 18.7818,22.2337 c 3.1079,-1.5539 6.5959,-1.2633 9.838,0.4919 0,0 0.0559,0.0336 0.1677,0.0895 0.7379,0.3913 3.9128,1.9564 7.0878,1.9564 3.1637,0 7.043,-1.5652 7.9598,-1.9564 0.0671,-0.0335 0.1118,-0.0559 0.1454,-0.0671"
       id="path1" />
    <path
       fill="#f4aa41"
       stroke="none"
       d="m 49.407,21.2342 c -0.0849,-0.0094 -0.1605,0 -0.2454,0.0094 l 0.0377,-0.2266 c 0.0756,0.0756 0.1417,0.1417 0.2077,0.2172 z"
       id="path2" />
    <path
       fill="#5c9e31"
       stroke="#5c9e31"
       stroke-linejoin="round"
       stroke-miterlimit="10"
       stroke-width="2"
       d="m 36.2186,57.324 -0.223,0.0652 c -0.6184,0.0559 -1.2366,0.2328 -1.7738,0.5493 -0.071,0.0373 -0.1521,0.0838 -0.223,0.1304 -0.4764,0.3166 -0.9731,0.5959 -1.5001,0.838 -1.5103,0.6983 -3.1118,1.0148 -4.7336,1.0055 -0.0405,0 -0.081,0 -0.1216,-0.0093 0.2939,-0.3632 2.3008,-2.5791 8.5751,-2.5791 z"
       id="path3" />
    <path
       fill="#5c9e31"
       stroke="#5c9e31"
       stroke-linejoin="round"
       stroke-miterlimit="10"
       stroke-width="2"
       d="m 59.1497,46.7238 c -3.3608,8.8364 -11.2484,16.1269 -21.3971,10.8559 8.2802,1.7898 28.8929,-18.7766 11.6544,-36.3455 1.52,-0.0283 3.021,0.2927 4.4371,1.0007 6.7973,3.4081 9.1669,14.378 5.3056,24.4889 z"
       id="path4" />
    <path
       fill="#b1cc33"
       stroke="none"
       stroke-linecap="round"
       stroke-linejoin="round"
       stroke-miterlimit="10"
       stroke-width="2"
       d="m 48.4527,17.2241 c 3.9562,1.3292 6.8444,5.8193 6.8444,5.8193 0,0 -5.0134,1.8354 -8.9696,0.5062 -3.9508,-1.3274 -6.8444,-5.8193 -6.8444,-5.8193 0,0 5.0188,-1.8336 8.9696,-0.5062 z"
       id="path5" />
  </g>
  <g
     id="hair"
     transform="translate(-10.623214,-9.7583)" />
  <g
     id="skin"
     transform="translate(-10.623214,-9.7583)" />
  <g
     id="skin-shadow"
     transform="translate(-10.623214,-9.7583)" />
  <g
     id="line"
     transform="translate(-10.623214,-9.7583)">
    <polyline
       fill="none"
       stroke="#000000"
       stroke-linecap="round"
       stroke-linejoin="round"
       stroke-miterlimit="10"
       stroke-width="2"
       points="35.4541,20.5625 35.4541,15.1018 31.1106,10.7583"
       id="polyline5" />
    <path
       fill="none"
       stroke="#000000"
       stroke-linecap="round"
       stroke-linejoin="round"
       stroke-miterlimit="10"
       stroke-width="2"
       d="m 57.7417,25.5951 c 3.6482,4.9493 4.3968,13.296 1.4093,21.1329 -3.8569,10.1286 -12.4875,15.573 -19.2735,12.1633 -0.4877,-0.2459 -0.953,-0.5297 -1.3942,-0.849 -1.2846,-0.9296 -3.0462,-0.93 -4.3311,-9e-4 -0.4421,0.3197 -0.9078,0.6038 -1.396,0.8499 C 25.9591,62.301 17.3286,56.8566 13.4716,46.728 9.6147,36.6106 11.996,25.6435 18.7818,22.2338 c 3.1079,-1.5539 6.5959,-1.2633 9.838,0.4919 0,0 0.0559,0.0336 0.1677,0.0895 0.7379,0.3913 3.9128,1.9564 7.0878,1.9564 0.7267,0 1.4911,-0.0826 2.2487,-0.2145 0,0 1.1885,-0.182 2.126,-0.4632"
       id="path6" />
    <path
       fill="none"
       stroke="#000000"
       stroke-linecap="round"
       stroke-linejoin="round"
       stroke-miterlimit="10"
       stroke-width="2"
       d="m 48.4527,17.2241 c 3.9562,1.3292 6.8444,5.8193 6.8444,5.8193 0,0 -5.0134,1.8354 -8.9696,0.5062 -3.9508,-1.3274 -6.8444,-5.8193 -6.8444,-5.8193 0,0 5.0188,-1.8336 8.9696,-0.5062 z"
       id="path7" />
  </g>
</svg>
