<svg xmlns="http://www.w3.org/2000/svg" xmlns:svg="http://www.w3.org/2000/svg" id="emoji" width="49.019" height="36.716" version="1.1" viewBox="0 0 49.019 36.716"><g id="color" transform="translate(-12.000003,-17.289667)"><path id="path1" fill="#a57939" d="m 55.732,36.689 c 5.4323,6.2313 4.1316,16.317 4.1316,16.317 0,0 -9.9309,-0.223 -15.3631,-6.4543 -5.4322,-6.2313 -4.1316,-16.317 -4.1316,-16.317 0,0 10.0463,0.069 15.3631,6.4543 z"/><path id="path2" fill="#e27022" d="M 19.7623,22.3615 C 26.1543,17.0075 36.05,18.5 36.05,18.5 c 0,0 -0.47,10.065 -6.7623,15.2543 C 22.9954,38.9436 13,37.6159 13,37.6159 c 0,0 0.37,-9.9003 6.7623,-15.2544 z"/></g><g id="line" transform="translate(-12.000003,-17.289667)"><path id="path3" fill="none" stroke="#000" stroke-linecap="round" stroke-linejoin="round" stroke-width="2" d="M 19.7623,22.3615 C 26.1543,17.0075 36.05,18.5 36.05,18.5 c 0,0 -0.47,10.065 -6.7623,15.2543 C 22.9954,38.9436 13,37.6159 13,37.6159 c 0,0 0.37,-9.9003 6.7623,-15.2544 z"/><path id="path4" fill="none" stroke="#000" stroke-linecap="round" stroke-linejoin="round" stroke-width="2" d="m 55.732,36.689 c 5.4323,6.2313 4.1316,16.317 4.1316,16.317 0,0 -9.9309,-0.223 -15.3631,-6.4543 -5.4322,-6.2313 -4.1316,-16.317 -4.1316,-16.317 0,0 10.0463,0.069 15.3631,6.4543 z"/></g></svg>