<?xml version="1.0" encoding="UTF-8" standalone="no"?>
<svg
   id="emoji"
   viewBox="0 0 47.826099 35.184399"
   version="1.1"
   sodipodi:docname="1f343.svg"
   width="47.826099"
   height="35.184399"
   xmlns:inkscape="http://www.inkscape.org/namespaces/inkscape"
   xmlns:sodipodi="http://sodipodi.sourceforge.net/DTD/sodipodi-0.dtd"
   xmlns="http://www.w3.org/2000/svg"
   xmlns:svg="http://www.w3.org/2000/svg">
  <defs
     id="defs6" />
  <sodipodi:namedview
     id="namedview6"
     pagecolor="#ffffff"
     bordercolor="#000000"
     borderopacity="0.25"
     inkscape:showpageshadow="2"
     inkscape:pageopacity="0.0"
     inkscape:pagecheckerboard="0"
     inkscape:deskcolor="#d1d1d1" />
  <g
     id="color"
     transform="translate(-12,-17)">
    <path
       fill="#b1cc33"
       d="m 28.919,27.91 c 8.1523,-6.8285 20.7734,-4.925 20.7734,-4.925 0,0 -0.5995,12.8364 -8.6246,19.455 -8.0251,6.6186 -20.7734,4.9249 -20.7734,4.9249 0,0 0.4724,-12.6269 8.6246,-19.4549 z"
       id="path1" />
  </g>
  <g
     id="line"
     transform="translate(-12,-17)">
    <path
       fill="none"
       stroke="#000000"
       stroke-linecap="round"
       stroke-linejoin="round"
       stroke-width="2"
       d="m 29.63,27.91 c 8.1523,-6.8285 20.7734,-4.925 20.7734,-4.925 0,0 -0.5994,12.8364 -8.6245,19.455 -8.0251,6.6186 -20.7734,4.9249 -20.7734,4.9249 0,0 0.4723,-12.6269 8.6245,-19.4549 z"
       id="path2" />
    <path
       fill="none"
       stroke="#000000"
       stroke-linecap="round"
       stroke-linejoin="round"
       stroke-width="2"
       d="m 54.0855,38.5427 a 10.2458,10.2458 0 0 1 -1.58,4.7407 11.317,11.317 0 0 1 -7.901,4.7406"
       id="path3" />
    <path
       fill="none"
       stroke="#000000"
       stroke-linecap="round"
       stroke-linejoin="round"
       stroke-width="2"
       d="m 58.8261,41.7031 a 10.2451,10.2451 0 0 1 -1.58,4.7407 11.3173,11.3173 0 0 1 -7.9011,4.7406"
       id="path4" />
    <path
       fill="none"
       stroke="#000000"
       stroke-linecap="round"
       stroke-linejoin="round"
       stroke-width="2"
       d="m 17.7406,30.6417 a 10.2455,10.2455 0 0 1 1.58,-4.7407 11.3173,11.3173 0 0 1 7.9013,-4.741"
       id="path5" />
    <path
       fill="none"
       stroke="#000000"
       stroke-linecap="round"
       stroke-linejoin="round"
       stroke-width="2"
       d="M 13,27.4813 A 10.2451,10.2451 0 0 1 14.58,22.7406 11.3173,11.3173 0 0 1 22.4813,18"
       id="path6" />
    <line
       x1="18"
       x2="20.900999"
       y1="50"
       y2="47.023998"
       fill="none"
       stroke="#000000"
       stroke-linecap="round"
       stroke-linejoin="round"
       stroke-width="2"
       id="line6" />
  </g>
</svg>
