<?xml version="1.0" encoding="UTF-8" standalone="no"?>
<svg
   id="emoji"
   viewBox="0 0 49.17738 49.177486"
   version="1.1"
   sodipodi:docname="1f34b.svg"
   width="49.17738"
   height="49.177486"
   xmlns:inkscape="http://www.inkscape.org/namespaces/inkscape"
   xmlns:sodipodi="http://sodipodi.sourceforge.net/DTD/sodipodi-0.dtd"
   xmlns="http://www.w3.org/2000/svg"
   xmlns:svg="http://www.w3.org/2000/svg">
  <defs
     id="defs7" />
  <sodipodi:namedview
     id="namedview7"
     pagecolor="#ffffff"
     bordercolor="#000000"
     borderopacity="0.25"
     inkscape:showpageshadow="2"
     inkscape:pageopacity="0.0"
     inkscape:pagecheckerboard="0"
     inkscape:deskcolor="#d1d1d1" />
  <g
     id="color"
     transform="translate(-11.989837,-10.989741)">
    <path
       fill="#fcea2b"
       d="M 16.0302,55.9368 C 14.4335,54.2639 14.094,51.844 15.0118,49.8556 10.7553,41.5083 13.3365,29.596 21.9662,20.9662 c 8.6297,-8.6298 20.542,-11.211 28.8894,-6.9545 2.026,-0.9351 4.4999,-0.5649 6.1752,1.1104 1.6753,1.6753 2.0455,4.1493 1.1104,6.1752 4.2661,8.3571 1.6753,20.2596 -6.9545,28.8894 -8.6298,8.6298 -20.5323,11.2207 -28.8894,6.9544 -2.026,0.9351 -4.5,0.5649 -6.1753,-1.1103 -0.031,-0.031 -0.0616,-0.0624 -0.0918,-0.094"
       id="path1" />
    <path
       fill="#f4aa41"
       d="m 50.5556,50.0124 c -8.631,8.631 -20.5347,11.2212 -28.8945,6.9571 34.6828,0 36.3371,-35.1456 36.3371,-35.1456 4.2734,8.3505 1.179,19.5576 -7.4426,28.1885 z"
       id="path2" />
    <path
       fill="#f4aa41"
       d="M 30.4541,59.9883 C 27.1777,59.9883 20,57 20,57 l -2.5,-1.0303 h 4.1611 c 13.9883,0 24.1807,-5.7363 30.2949,-17.0479 4.5869,-8.4883 5.0391,-17.0591 5.043,-17.1445 l 0.1768,-3.7549 1.7129,3.3462 c 4.4639,8.7231 1.4707,20.2446 -7.626,29.3511 v 0 c -6,6 -13.6895,9.2686 -20.8086,9.2686 z m -3.5254,-2.3028 c 7.4531,1.3506 16.2686,-1.7285 22.9199,-8.3799 7.0859,-7.0947 10.2578,-16.001 8.5996,-23.3125 -1.6289,8.8477 -7.9189,29.0635 -31.5195,31.6924 z"
       id="path3" />
    <path
       fill="#f4aa41"
       d="m 56.9613,14.9006 c 0,0 1.8262,4.8233 0.9674,7.234 L 53.828,18.034 56.9613,14.9006"
       id="path4" />
    <path
       fill="#f4aa41"
       d="m 16.8259,56.2078 c 0,0 4.3959,1.9419 6.6375,0.7073 l -4.7058,-3.3893 -1.9317,2.682"
       id="path5" />
  </g>
  <g
     id="line"
     transform="translate(-11.989837,-10.989741)">
    <path
       fill="none"
       stroke="#000000"
       stroke-linecap="round"
       stroke-miterlimit="10"
       stroke-width="2"
       d="M 16.0302,55.9368 C 14.4335,54.2639 14.094,51.844 15.0118,49.8556 10.7553,41.5083 13.3365,29.596 21.9662,20.9662 c 8.6297,-8.6298 20.542,-11.211 28.8894,-6.9545 2.026,-0.9351 4.4999,-0.5649 6.1752,1.1104 1.6753,1.6753 2.0455,4.1493 1.1104,6.1752 4.2661,8.3571 1.6753,20.2596 -6.9545,28.8894 -8.6298,8.6298 -20.5323,11.2207 -28.8894,6.9544 -2.026,0.9351 -4.5,0.5649 -6.1753,-1.1103 -0.031,-0.031 -0.0616,-0.0624 -0.0918,-0.094"
       id="path6" />
    <path
       fill="none"
       stroke="#000000"
       stroke-linecap="round"
       stroke-miterlimit="10"
       stroke-width="2"
       d="M 16.0302,55.9368 C 14.4335,54.2639 14.094,51.844 15.0118,49.8556 10.7553,41.5083 13.3365,29.596 21.9662,20.9662 c 8.6297,-8.6298 20.542,-11.211 28.8894,-6.9545 2.026,-0.9351 4.4999,-0.5649 6.1752,1.1104 1.6753,1.6753 2.0455,4.1493 1.1104,6.1752 4.2661,8.3571 1.6753,20.2596 -6.9545,28.8894 -8.6298,8.6298 -20.5323,11.2207 -28.8894,6.9544 -2.026,0.9351 -4.5,0.5649 -6.1753,-1.1103 -0.031,-0.031 -0.0616,-0.0624 -0.0918,-0.094"
       id="path7" />
  </g>
</svg>
