<svg xmlns="http://www.w3.org/2000/svg" xmlns:svg="http://www.w3.org/2000/svg" id="emoji" width="49.993" height="49.993" version="1.1" viewBox="0 0 49.993 49.993"><g id="color" transform="translate(-6.2321664,-16.013241)"><path id="path1" fill="#b1cc33" stroke="none" stroke-linejoin="round" stroke-miterlimit="10" stroke-width="2" d="m 55.2257,56.7807 c -10.9878,10.9766 -28.7798,10.9766 -39.7676,0 -10.9765,-10.9878 -10.9765,-28.7797 0,-39.7675 l 2.6542,2.6542 c -9.5258,9.5145 -9.5258,24.9447 0,34.4592 9.5145,9.5258 24.9447,9.5258 34.4592,0 z"/><path id="path2" fill="#ea5a47" stroke="#ea5a47" stroke-linecap="round" stroke-linejoin="round" stroke-miterlimit="10" stroke-width="2" d="m 52.5715,54.1265 c -9.5145,9.5258 -24.9447,9.5258 -34.4592,0 -9.5258,-9.5145 -9.5258,-24.9447 0,-34.4592 l 34.4592,34.4592"/><path id="path3" fill="#ea5a47" stroke="none" stroke-linecap="round" stroke-linejoin="round" stroke-miterlimit="10" stroke-width="2" d="M 49.5241,56.7181 C 40.0045,63.5554 26.6671,62.6915 18.1122,54.1265 9.4924,45.5168 8.6726,32.0633 15.6528,22.5323"/></g><g id="line" transform="translate(-6.2321664,-16.013241)"><path id="path4" fill="none" stroke="#000" stroke-linejoin="round" stroke-miterlimit="10" stroke-width="2" d="m 55.2257,56.7807 c -10.9878,10.9766 -28.7798,10.9766 -39.7676,0 -10.9765,-10.9878 -10.9765,-28.7797 0,-39.7675 l 2.6542,2.6542 c -9.5258,9.5145 -9.5258,24.9447 0,34.4592 9.5145,9.5258 24.9447,9.5258 34.4592,0 z"/><line id="line4" x1="17.516" x2="53.722" y1="19.071" y2="55.277" fill="none" stroke="#000" stroke-linecap="round" stroke-linejoin="round" stroke-miterlimit="10" stroke-width="2"/><path id="path5" fill="none" stroke="#000" stroke-linecap="round" stroke-linejoin="round" stroke-miterlimit="10" stroke-width="2" d="M 49.5241,56.7181 C 40.0045,63.5554 26.6671,62.6915 18.1122,54.1265 9.4924,45.5168 8.6726,32.0633 15.6528,22.5323"/><ellipse id="ellipse5" cx="31.83" cy="46.907" fill="#000" stroke="none" rx="1.687" ry=".844" transform="matrix(0.7071,-0.7071,0.7071,0.7071,-23.8456,36.2461)"/><ellipse id="ellipse6" cx="44.554" cy="53.269" fill="#000" stroke="none" rx="1.687" ry=".844" transform="matrix(0.7071,-0.7071,0.7071,0.7071,-24.6174,47.1066)"/><ellipse id="ellipse7" cx="31.83" cy="54.86" fill="#000" stroke="none" rx="1.687" ry=".844" transform="matrix(0.7071,-0.7071,0.7071,0.7071,-29.4688,38.5753)"/><ellipse id="ellipse8" cx="25.817" cy="40.894" fill="#000" stroke="none" rx="1.687" ry=".844" transform="matrix(0.7071,-0.7071,0.7071,0.7071,-21.3547,30.2327)"/><ellipse id="ellipse9" cx="19.455" cy="28.17" fill="#000" stroke="none" rx="1.687" ry=".844" transform="matrix(0.7071,-0.7071,0.7071,0.7071,-14.2209,22.0073)"/><ellipse id="ellipse10" cx="17.864" cy="40.894" fill="#000" stroke="none" rx="1.687" ry=".844" transform="matrix(0.7071,-0.7071,0.7071,0.7071,-23.684,24.6094)"/><ellipse id="ellipse11" cx="22.281" cy="50.086" fill="#000" stroke="none" rx="1.687" ry=".844" transform="matrix(0.7071,-0.7071,0.7071,0.7071,-28.8903,30.4251)"/></g></svg>