<svg xmlns="http://www.w3.org/2000/svg" xmlns:svg="http://www.w3.org/2000/svg" id="emoji" width="43.012" height="50.993" version="1.1" viewBox="0 0 43.012 50.993"><g id="color" transform="translate(-14.494122,-6.0064792)"><path id="path1" fill="#f4aa41" stroke="none" d="m 52.2637,19.7373 c 0.4765,0.4775 0.916,0.9775 1.3418,1.4854 l 2.9004,-5.7286 C 45.1807,4.1689 26.8184,4.1689 15.4941,15.4941 l 2.9004,5.7286 c 0.4258,-0.5079 0.8653,-1.0079 1.3418,-1.4854 8.9834,-8.9834 23.544,-8.9834 32.5274,0 z"/><path id="path2" fill="#fcea2b" stroke="none" d="m 53.6055,21.2227 c -0.4258,-0.5079 -0.8653,-1.0079 -1.3418,-1.4854 -8.9834,-8.9834 -23.544,-8.9834 -32.5274,0 -0.4765,0.4775 -0.916,0.9775 -1.3418,1.4854 L 36,56 Z"/><circle id="circle2" cx="31" cy="24" r="5" fill="#ea5a47" stroke="none"/><circle id="circle3" cx="44" cy="24" r="3" fill="#ea5a47" stroke="none"/><circle id="circle4" cx="37" cy="36" r="3" fill="#ea5a47" stroke="none"/></g><g id="line" transform="translate(-14.494122,-6.0064792)"><path id="path4" fill="none" stroke="#000" stroke-linecap="round" stroke-linejoin="round" stroke-miterlimit="10" stroke-width="2" d="m 52.2637,19.7373 c 0.4765,0.4775 0.916,0.9775 1.3418,1.4854 l 2.9004,-5.7286 C 45.1807,4.1689 26.8184,4.1689 15.4941,15.4941 l 2.9004,5.7286 c 0.4258,-0.5079 0.8653,-1.0079 1.3418,-1.4854 8.9834,-8.9834 23.544,-8.9834 32.5274,0 z"/><path id="path5" fill="none" stroke="#000" stroke-linecap="round" stroke-linejoin="round" stroke-miterlimit="10" stroke-width="2" d="m 53.6055,21.2227 c -0.4258,-0.5079 -0.8653,-1.0079 -1.3418,-1.4854 -8.9834,-8.9834 -23.544,-8.9834 -32.5274,0 -0.4765,0.4775 -0.916,0.9775 -1.3418,1.4854 L 36,56 Z"/><circle id="circle5" cx="31" cy="24" r="5" fill="none" stroke="#000" stroke-linecap="round" stroke-linejoin="round" stroke-miterlimit="10" stroke-width="2"/><circle id="circle6" cx="44" cy="24" r="3" fill="none" stroke="#000" stroke-linecap="round" stroke-linejoin="round" stroke-miterlimit="10" stroke-width="2"/><circle id="circle7" cx="37" cy="36" r="3" fill="none" stroke="#000" stroke-linecap="round" stroke-linejoin="round" stroke-miterlimit="10" stroke-width="2"/></g></svg>