<svg xmlns="http://www.w3.org/2000/svg" xmlns:svg="http://www.w3.org/2000/svg" id="emoji" width="64" height="40" version="1.1" viewBox="0 0 64 40"><g id="color" transform="translate(-4,-16)"><path id="path1" fill="#f1b31c" stroke="none" d="m 33,17 h 29 c 2.7617,0 5,2.2393 5,5 0,1.6357 -0.7969,3.0752 -2.0117,3.9873 -0.1074,0.0625 -0.207,0.1348 -0.2988,0.2168 C 64.2695,26.5703 64,27.1025 64,27.7031 V 53 c 0,1.1045 -0.8955,2 -2,2 H 33 c 1.1045,0 2,-0.8955 2,-2 V 27.7031 c 0,-0.6006 0.2695,-1.1328 0.6895,-1.499 0.0918,-0.082 0.1914,-0.1543 0.2988,-0.2168 C 37.2031,25.0752 38,23.6357 38,22 38,19.2393 35.7617,17 33,17 Z"/><path id="path2" fill="#fcea2b" stroke="none" d="m 33,17 c 2.7617,0 5,2.2393 5,5 0,1.6357 -0.7969,3.0752 -2.0117,3.9873 -0.1074,0.0625 -0.207,0.1348 -0.2988,0.2168 C 35.2695,26.5703 35,27.1025 35,27.7031 V 53 c 0,1.1045 -0.8955,2 -2,2 H 10 C 8.8955,55 8,54.1045 8,53 V 27.7031 C 8,27.1025 7.7305,26.5703 7.3105,26.2041 7.2188,26.1221 7.1191,26.0498 7.0117,25.9873 5.7969,25.0752 5,23.6357 5,22 5,19.2393 7.2383,17 10,17 Z"/></g><g id="line" transform="translate(-4,-16)"><path id="path3" fill="none" stroke="#000" stroke-linecap="round" stroke-linejoin="round" stroke-miterlimit="10" stroke-width="2" d="m 33,17 c 2.7617,0 5,2.2393 5,5 0,1.6357 -0.7969,3.0752 -2.0117,3.9873 -0.1074,0.0625 -0.207,0.1348 -0.2988,0.2168 C 35.2695,26.5703 35,27.1025 35,27.7031 V 53 c 0,1.1045 -0.8955,2 -2,2"/><path id="path4" fill="none" stroke="#000" stroke-linecap="round" stroke-linejoin="round" stroke-miterlimit="10" stroke-width="2" d="m 10,17 h 52 c 2.7617,0 5,2.2393 5,5 0,1.6357 -0.7969,3.0752 -2.0117,3.9873 -0.1074,0.0625 -0.207,0.1348 -0.2988,0.2168 C 64.2695,26.5703 64,27.1025 64,27.7031 V 53 c 0,1.1045 -0.8955,2 -2,2 H 10 C 8.8955,55 8,54.1045 8,53 V 27.7031 C 8,27.1025 7.7305,26.5703 7.3105,26.2041 7.2188,26.1221 7.1191,26.0498 7.0117,25.9873 5.7969,25.0752 5,23.6357 5,22 5,19.2393 7.2383,17 10,17 Z"/></g></svg>