<?xml version="1.0" encoding="UTF-8" standalone="no"?>
<svg
   id="emoji"
   viewBox="0 0 58 58"
   version="1.1"
   sodipodi:docname="1f35b.svg"
   width="58"
   height="58"
   xmlns:inkscape="http://www.inkscape.org/namespaces/inkscape"
   xmlns:sodipodi="http://sodipodi.sourceforge.net/DTD/sodipodi-0.dtd"
   xmlns="http://www.w3.org/2000/svg"
   xmlns:svg="http://www.w3.org/2000/svg">
  <defs
     id="defs6" />
  <sodipodi:namedview
     id="namedview6"
     pagecolor="#ffffff"
     bordercolor="#000000"
     borderopacity="0.25"
     inkscape:showpageshadow="2"
     inkscape:pageopacity="0.0"
     inkscape:pagecheckerboard="0"
     inkscape:deskcolor="#d1d1d1" />
  <g
     id="color"
     transform="translate(-7,-7)">
    <circle
       cx="36"
       cy="36"
       r="28"
       fill="#d0cfce"
       id="circle1" />
    <path
       fill="#f4aa41"
       stroke="#f4aa41"
       stroke-miterlimit="10"
       stroke-width="2"
       d="m 56.9944,35.361 c 0.1706,-4.1391 -3.6059,-7.6409 -8.4351,-7.8214 a 10.0471,10.0471 0 0 0 -2.1748,0.1782 6.3414,6.3414 0 0 0 0.11,-0.69 c 0.1706,-4.1391 -3.6059,-7.6409 -8.4351,-7.8215 -4.8292,-0.1806 -8.8824,3.0286 -9.053,7.1676 a 7.413,7.413 0 0 0 4.5029,6.8219 15.84,15.84 0 0 0 -2.5482,8.1892 c -0.2842,6.8948 3.4,12.63 8.2294,12.811 4.7186,0.1764 8.774,-5.02 9.2229,-11.69 4.6148,-0.0419 8.4166,-3.1439 8.581,-7.145 z"
       id="path1" />
    <path
       fill="#ffffff"
       d="M 41.6,43.3294 A 3.0615,3.0615 0 0 0 38.45,40.3647 3.2754,3.2754 0 0 0 37.0678,40.6774 2.7944,2.7944 0 0 0 37.4,39.3765 2.85,2.85 0 0 0 36.5825,37.4 2.85,2.85 0 0 0 37.4,35.4235 2.799,2.799 0 0 0 37.17,34.3212 2.9941,2.9941 0 0 0 39.5,31.4706 3.0615,3.0615 0 0 0 36.35,28.5059 3.2754,3.2754 0 0 0 34.9678,28.8186 2.7948,2.7948 0 0 0 35.3,27.5176 3.0616,3.0616 0 0 0 32.15,24.5529 3.2754,3.2754 0 0 0 30.7678,24.8656 2.7944,2.7944 0 0 0 31.1,23.5647 a 3.1558,3.1558 0 0 0 -6.3,0 2.7944,2.7944 0 0 0 0.3322,1.3009 3.2754,3.2754 0 0 0 -1.3822,-0.3127 3.1149,3.1149 0 0 0 -3.0287,2.1934 3.3064,3.3064 0 0 0 -1.1713,-0.2169 3.0615,3.0615 0 0 0 -3.15,2.9647 2.994,2.994 0 0 0 2.3305,2.8506 2.8,2.8 0 0 0 -0.23,1.1024 2.85,2.85 0 0 0 0.8175,1.9764 2.7981,2.7981 0 0 0 0,3.953 2.85,2.85 0 0 0 -0.818,1.9764 2.9939,2.9939 0 0 0 2.3305,2.8506 2.8,2.8 0 0 0 -0.23,1.1024 2.85,2.85 0 0 0 0.8175,1.9765 2.85,2.85 0 0 0 -0.818,1.9764 3.0615,3.0615 0 0 0 3.15,2.9647 3.2367,3.2367 0 0 0 2.1,-0.7694 3.2367,3.2367 0 0 0 2.1,0.7694 3.3042,3.3042 0 0 0 1.1713,-0.2169 A 3.1149,3.1149 0 0 0 32.15,54.2 3.0615,3.0615 0 0 0 35.3,51.2353 2.7944,2.7944 0 0 0 34.9678,49.9344 3.2754,3.2754 0 0 0 36.35,50.2471 3.0616,3.0616 0 0 0 39.5,47.2824 2.8,2.8 0 0 0 39.27,46.18 2.9941,2.9941 0 0 0 41.6,43.3294 Z"
       id="path2" />
    <rect
       x="38.799999"
       y="23.4"
       rx="1"
       width="4.1999998"
       height="2.8"
       fill="#fcea2b"
       id="rect2" />
    <rect
       x="44.400002"
       y="33.200001"
       rx="1"
       width="4.1999998"
       height="2.8"
       transform="rotate(27.6423,46.50002,34.59994)"
       fill="#fcea2b"
       id="rect3" />
    <rect
       x="41.599998"
       y="45.799999"
       rx="1"
       width="4.1999998"
       height="2.8"
       transform="rotate(-23.4507,43.699929,47.199964)"
       fill="#fcea2b"
       id="rect4" />
    <rect
       x="50"
       y="34.599998"
       rx="1"
       width="4.1999998"
       height="2.8"
       fill="#fcea2b"
       id="rect5" />
  </g>
  <g
     id="line"
     transform="translate(-7,-7)">
    <circle
       cx="36"
       cy="36"
       r="28"
       fill="none"
       stroke="#000000"
       stroke-miterlimit="10"
       stroke-width="2"
       id="circle5" />
    <path
       fill="none"
       stroke="#000000"
       stroke-linecap="round"
       stroke-linejoin="round"
       stroke-width="2"
       d="M 41.6,43.3294 A 3.0615,3.0615 0 0 0 38.45,40.3647 3.2754,3.2754 0 0 0 37.0678,40.6774 2.7944,2.7944 0 0 0 37.4,39.3765 2.85,2.85 0 0 0 36.5825,37.4 2.85,2.85 0 0 0 37.4,35.4235 2.799,2.799 0 0 0 37.17,34.3212 2.9941,2.9941 0 0 0 39.5,31.4706 3.0615,3.0615 0 0 0 36.35,28.5059 3.2754,3.2754 0 0 0 34.9678,28.8186 2.7948,2.7948 0 0 0 35.3,27.5176 3.0616,3.0616 0 0 0 32.15,24.5529 3.2754,3.2754 0 0 0 30.7678,24.8656 2.7944,2.7944 0 0 0 31.1,23.5647 a 3.1558,3.1558 0 0 0 -6.3,0 2.7944,2.7944 0 0 0 0.3322,1.3009 3.2754,3.2754 0 0 0 -1.3822,-0.3127 3.1149,3.1149 0 0 0 -3.0287,2.1934 3.3064,3.3064 0 0 0 -1.1713,-0.2169 3.0615,3.0615 0 0 0 -3.15,2.9647 2.994,2.994 0 0 0 2.3305,2.8506 2.8,2.8 0 0 0 -0.23,1.1024 2.85,2.85 0 0 0 0.8175,1.9764 2.7981,2.7981 0 0 0 0,3.953 2.85,2.85 0 0 0 -0.818,1.9764 2.9939,2.9939 0 0 0 2.3305,2.8506 2.8,2.8 0 0 0 -0.23,1.1024 2.85,2.85 0 0 0 0.8175,1.9765 2.85,2.85 0 0 0 -0.818,1.9764 3.0615,3.0615 0 0 0 3.15,2.9647 3.2367,3.2367 0 0 0 2.1,-0.7694 3.2367,3.2367 0 0 0 2.1,0.7694 3.3042,3.3042 0 0 0 1.1713,-0.2169 A 3.1149,3.1149 0 0 0 32.15,54.2 3.0615,3.0615 0 0 0 35.3,51.2353 2.7944,2.7944 0 0 0 34.9678,49.9344 3.2754,3.2754 0 0 0 36.35,50.2471 3.0616,3.0616 0 0 0 39.5,47.2824 2.8,2.8 0 0 0 39.27,46.18 2.9941,2.9941 0 0 0 41.6,43.3294 Z"
       id="path5" />
    <path
       fill="none"
       stroke="#000000"
       stroke-linecap="round"
       stroke-linejoin="round"
       stroke-width="2"
       d="m 39.1906,54.1956 c 4.7186,0.1764 8.774,-5.02 9.2229,-11.69 4.6147,-0.0414 8.416,-3.1434 8.5809,-7.1445 0.1706,-4.1391 -3.6059,-7.6409 -8.4351,-7.8214 a 10.0471,10.0471 0 0 0 -2.1748,0.1782 6.3414,6.3414 0 0 0 0.11,-0.69 c 0.1706,-4.1391 -3.6059,-7.6409 -8.4351,-7.8215 a 10.0118,10.0118 0 0 0 -3.4279,0.4618"
       id="path6" />
  </g>
</svg>
