<?xml version="1.0" encoding="UTF-8" standalone="no"?>
<svg
   id="emoji"
   viewBox="0 0 39.999977 62.046593"
   version="1.1"
   sodipodi:docname="1f35f.svg"
   width="39.999977"
   height="62.046593"
   xmlns:inkscape="http://www.inkscape.org/namespaces/inkscape"
   xmlns:sodipodi="http://sodipodi.sourceforge.net/DTD/sodipodi-0.dtd"
   xmlns="http://www.w3.org/2000/svg"
   xmlns:svg="http://www.w3.org/2000/svg">
  <defs
     id="defs18" />
  <sodipodi:namedview
     id="namedview18"
     pagecolor="#ffffff"
     bordercolor="#000000"
     borderopacity="0.25"
     inkscape:showpageshadow="2"
     inkscape:pageopacity="0.0"
     inkscape:pagecheckerboard="0"
     inkscape:deskcolor="#d1d1d1" />
  <g
     id="color"
     transform="translate(-16.000011,-4)">
    <polyline
       fill="#fcea2b"
       stroke="none"
       points="27,48.8418 27,9.5234 26,9.5234 26,7 22,7 22,11.5234 21,11.5234 21,48"
       id="polyline1" />
    <polyline
       fill="#fcea2b"
       stroke="none"
       points="43,46 43,9.5225 42,9.5225 42,5 38,5 38,8.5771 37,8.5225 37,47"
       id="polyline2" />
    <polyline
       fill="#fcea2b"
       stroke="none"
       points="35,42 35,8.5225 34,7.9971 34,5 30,5 30,9.5234 29,9.5234 29,41"
       id="polyline3" />
    <polyline
       fill="#fcea2b"
       stroke="none"
       points="51,40 51,11.5225 50,11.5225 50,7 46,7 46,9.5225 45,9.5225 45,40"
       id="polyline4" />
    <polyline
       fill="#fcea2b"
       stroke="none"
       points="23,41.4209 23,33.6289 22,33.6289 22,15.1055 18,15.1055 18,33.6299 17,33.6299 17,37.1055"
       id="polyline5" />
    <polyline
       fill="#fcea2b"
       stroke="none"
       points="47,44.5254 47,34.5244 46,34.5244 46,13 42,13 42,34.5791 41,34.5244 41,46.5254"
       id="polyline6" />
    <polyline
       fill="#fcea2b"
       stroke="none"
       points="39,45.5254 39,35.5244 38,35.5244 38,12 34,12 34,35.5791 33,35.5244 33,47.5254"
       id="polyline7" />
    <polyline
       fill="#fcea2b"
       stroke="none"
       points="31,46.5254 31,34.5244 30,33.999 30,13 26,13 26,34.5244 25,34.5244 25,44.5244"
       id="polyline8" />
    <polyline
       fill="#fcea2b"
       stroke="none"
       points="55,37 55,32.6289 54,32.6289 54,15.1055 50,15.1055 50,33.6299 49,33.6299 49,42.6309"
       id="polyline9" />
    <path
       fill="#ea5a47"
       stroke="none"
       d="m 19,59.1973 c 10,7.7363 23,7.7363 34,0 L 55,37 36,40 17,37 Z"
       id="path9" />
  </g>
  <g
     id="hair"
     transform="translate(-16.000011,-4)" />
  <g
     id="skin"
     transform="translate(-16.000011,-4)" />
  <g
     id="skin-shadow"
     transform="translate(-16.000011,-4)" />
  <g
     id="line"
     transform="translate(-16.000011,-4)">
    <polyline
       fill="none"
       stroke="#000000"
       stroke-linecap="round"
       stroke-linejoin="round"
       stroke-miterlimit="10"
       stroke-width="2"
       points="42,10 42,5 38,5 38,9"
       id="polyline10" />
    <polyline
       fill="none"
       stroke="#000000"
       stroke-linecap="round"
       stroke-linejoin="round"
       stroke-miterlimit="10"
       stroke-width="2"
       points="34,9 34,5 30,5 30,10"
       id="polyline11" />
    <polyline
       fill="none"
       stroke="#000000"
       stroke-linecap="round"
       stroke-linejoin="round"
       stroke-miterlimit="10"
       stroke-width="2"
       points="50,12 50,7 46,7 46,10"
       id="polyline12" />
    <polyline
       fill="none"
       stroke="#000000"
       stroke-linecap="round"
       stroke-linejoin="round"
       stroke-miterlimit="10"
       stroke-width="2"
       points="26,10 26,7 22,7 22,12"
       id="polyline13" />
    <path
       fill="none"
       stroke="#000000"
       stroke-linecap="round"
       stroke-linejoin="round"
       stroke-miterlimit="10"
       stroke-width="2"
       d="M 19,59.2637 C 29,67 42,67 53,59.2637 L 55,37 36,40 17,37 Z"
       id="path13" />
    <polyline
       fill="none"
       stroke="#000000"
       stroke-linecap="round"
       stroke-linejoin="round"
       stroke-miterlimit="10"
       stroke-width="2"
       points="54,33.4736 54,15.1055 50,15.1055 50,34.1045"
       id="polyline14" />
    <polyline
       fill="none"
       stroke="#000000"
       stroke-linecap="round"
       stroke-linejoin="round"
       stroke-miterlimit="10"
       stroke-width="2"
       points="30,35.3682 30,13 26,13 26,34.7363"
       id="polyline15" />
    <polyline
       fill="none"
       stroke="#000000"
       stroke-linecap="round"
       stroke-linejoin="round"
       stroke-miterlimit="10"
       stroke-width="2"
       points="22,34.1045 22,15.1055 18,15.1055 18,33.4736"
       id="polyline16" />
    <polyline
       fill="none"
       stroke="#000000"
       stroke-linecap="round"
       stroke-linejoin="round"
       stroke-miterlimit="10"
       stroke-width="2"
       points="46,34.7363 46,13 42,13 42,35.3682"
       id="polyline17" />
    <polyline
       fill="none"
       stroke="#000000"
       stroke-linecap="round"
       stroke-linejoin="round"
       stroke-miterlimit="10"
       stroke-width="2"
       points="38,36 38,12 34,12 34,36"
       id="polyline18" />
  </g>
</svg>
