<svg xmlns="http://www.w3.org/2000/svg" xmlns:svg="http://www.w3.org/2000/svg" id="emoji" width="52.267" height="59.183" version="1.1" viewBox="0 0 52.267 59.183"><g id="color" transform="translate(-9.8667,-8.699)"><path id="path1" fill="#fcea2b" d="M 45.8041,27.7451 A 13.8885,13.8885 0 0 0 36,31.7816 C 35.9585,31.7405 35.9124,31.7043 35.87,31.6638 V 13.46 a 1.001,1.001 0 0 0 -1,-1.0031 h -4.333 a 1.001,1.001 0 0 0 -1,1.0031 V 28.1653 A 13.9287,13.9287 0 1 0 36,51.5791 13.934,13.934 0 1 0 45.8042,27.7451 Z"/><path id="path2" fill="#d0cfce" d="M 47.2667,41.7489 C 47.2667,55.6289 43.8,66.8823 36,66.8823 A 25.1335,25.1335 0 0 0 61.1333,41.7489 Z"/><path id="path3" fill="#fff" d="M 10.8667,41.7489 A 25.1335,25.1335 0 0 0 36,66.8823 c 7.8,0 11.2667,-11.2532 11.2667,-25.1334 z"/></g><g id="line" transform="translate(-9.8667,-8.699)"><path id="path4" fill="none" stroke="#000" stroke-linecap="round" stroke-linejoin="round" stroke-width="2" d="m 10.8667,41.7489 a 25.1333,25.1333 0 1 0 50.2666,0 z"/><path id="path5" fill="none" stroke="#000" stroke-linecap="round" stroke-linejoin="round" stroke-width="2" d="m 13.4667,39.1489 a 13.0019,13.0019 0 0 1 25.4778,0"/><path id="path6" fill="none" stroke="#000" stroke-linecap="round" stroke-linejoin="round" stroke-width="2" d="m 17.9362,39.1489 a 8.6687,8.6687 0 0 1 16.5379,0"/><path id="path7" fill="none" stroke="#000" stroke-linecap="round" stroke-linejoin="round" stroke-width="2" d="m 22.7588,39.1489 a 4.2946,4.2946 0 0 1 6.8944,0"/><path id="path8" fill="none" stroke="#000" stroke-linecap="round" stroke-linejoin="round" stroke-width="2" d="m 38.6059,30.9156 a 13.0036,13.0036 0 0 1 19.9274,8.2333"/><path id="path9" fill="none" stroke="#000" stroke-linecap="round" stroke-linejoin="round" stroke-width="2" d="m 41.0206,34.5151 a 8.6692,8.6692 0 0 1 13.0432,4.6338"/><path id="path10" fill="none" stroke="#000" stroke-linecap="round" stroke-linejoin="round" stroke-width="2" d="m 42.9282,38.5176 a 4.2871,4.2871 0 0 1 6.313,0.6313"/><g id="line-2"><path id="path11" fill="none" stroke="#000" stroke-linecap="round" stroke-linejoin="round" stroke-width="2" d="m 61,15.5946 -19.4123,-0.554 v 0 c -0.7408,1.287 -2.6022,2.191 -5.5708,2.191 -3.9478,0 -8.1058,-0.1115 -8.1058,-0.1115"/><path id="path12" fill="none" stroke="#000" stroke-linecap="round" stroke-linejoin="round" stroke-width="2" d="m 27.9113,9.8105 c 0,0 4.158,-0.1115 8.1058,-0.1115 2.9609,0 4.82,0.8993 5.565,2.1809 v 0 L 61,11.8605"/><line id="line12" x1="27.911" x2="37.496" y1="13.465" y2="13.465" fill="none" stroke="#000" stroke-linecap="round" stroke-linejoin="round" stroke-width="2"/></g><line id="line13" x1="34.87" x2="34.87" y1="13.522" y2="32.059" fill="none" stroke="#000" stroke-linecap="round" stroke-linejoin="round" stroke-width="2"/><line id="line14" x1="30.537" x2="30.537" y1="13.522" y2="25.683" fill="none" stroke="#000" stroke-linecap="round" stroke-linejoin="round" stroke-width="2"/></g></svg>