<svg xmlns="http://www.w3.org/2000/svg" xmlns:svg="http://www.w3.org/2000/svg" id="emoji" width="40" height="64" version="1.1" viewBox="0 0 40 64"><g id="color" transform="translate(-16,-4)"><polyline id="polyline1" fill="#a57939" points="53 32.755 53 5.906 19 5.906 19 39.516"/><polygon id="polygon1" fill="#ea5a47" points="17 67 55 67 55 25 17 32"/></g><g id="line" transform="translate(-16,-4)"><rect id="rect1" width="11" height="9" x="38" y="9" fill="none" stroke="#000" stroke-linecap="round" stroke-linejoin="round" stroke-width="2"/><rect id="rect2" width="11" height="9" x="23" y="9" fill="none" stroke="#000" stroke-linecap="round" stroke-linejoin="round" stroke-width="2"/><polygon id="polygon2" fill="none" stroke="#000" stroke-linecap="round" stroke-linejoin="round" stroke-width="2" points="17 67 55 67 55 25 17 32"/><polyline id="polyline2" fill="none" stroke="#000" stroke-linecap="round" stroke-linejoin="round" stroke-width="2" points="53 20.932 53 5 19 5 19 27.541"/><polyline id="polyline3" fill="none" stroke="#000" stroke-linecap="round" stroke-linejoin="round" stroke-width="2" points="38 23.847 38 22 47.503 22"/><polyline id="polyline4" fill="none" stroke="#000" stroke-linecap="round" stroke-linejoin="round" stroke-width="2" points="23 26.764 23 22 34 22 34 24.625"/><polyline id="polyline5" fill="none" stroke="#000" stroke-linecap="round" stroke-linejoin="round" stroke-width="2" points="47.503 22 38 22 38 23.847"/><polyline id="polyline6" fill="none" stroke="#000" stroke-linecap="round" stroke-linejoin="round" stroke-width="2" points="34 24.625 34 22 23 22 23 26.764"/></g></svg>