<svg xmlns="http://www.w3.org/2000/svg" xmlns:svg="http://www.w3.org/2000/svg" id="emoji" width="57.001" height="61" version="1.1" viewBox="0 0 57.001 61"><g id="color" transform="translate(-8.999,-5)"><path id="path1" fill="#ea5a47" stroke="none" d="M 29.9063,42.9375 C 28.25,42.4063 26.9375,41.5625 25.7188,40.5625 22.7871,38.1572 19.999,34.5137 19.999,31.25 v -19 c 0,-2.7617 -2.2383,-5 -5,-5 -2.7617,0 -5,2.2383 -5,5 l 1,28 c 0,4.375 1.0733,10.293 3.751,14.6875 0.6582,1.0801 3.2188,3.8125 4.1875,4.5938"/><path id="path2" fill="#f4aa41" stroke="none" d="M 63.6572,35.2861 C 63.873,34.9668 64,34.582 64,34.166 64,33.752 63.873,33.3672 63.6572,33.0469 64.4375,32.7734 65,32.0391 65,31.166 65,30.293 64.4375,29.5586 63.6572,29.2861 63.873,28.9668 64,28.582 64,28.166 64,27.2935 63.4375,26.5591 62.6572,26.2861 62.873,25.9663 63,25.5815 63,25.1665 63,24.2935 62.4375,23.5591 61.6572,23.2861 61.873,22.9663 62,22.5815 62,22.1665 c 0,-1.1045 -0.8955,-2 -2,-2 -0.1006,0 -0.1973,0.0151 -0.2939,0.0298 C 59.8887,19.8945 60,19.5444 60,19.1665 c 0,-1.1045 -0.8955,-2 -2,-2 -0.1006,0 -0.1973,0.0151 -0.2939,0.0298 C 57.8887,16.8945 58,16.5444 58,16.1665 c 0,-1.1045 -0.8955,-2 -2,-2 -0.3779,0 -0.7275,0.1113 -1.0303,0.2935 C 54.9854,14.3633 55,14.2671 55,14.1665 c 0,-1.1045 -0.8955,-2 -2,-2 -0.415,0 -0.7998,0.1265 -1.1201,0.3428 C 51.6074,11.7295 50.873,11.1665 50,11.1665 c -0.3779,0 -0.7275,0.1113 -1.0303,0.2935 C 48.9854,11.3633 49,11.2671 49,11.1665 c 0,-1.1045 -0.8955,-2 -2,-2 -0.415,0 -0.7998,0.1265 -1.1201,0.3428 C 45.6074,8.7295 44.873,8.1665 44,8.1665 43.585,8.1665 43.2002,8.293 42.8799,8.5093 42.6074,7.7295 41.873,7.1665 41,7.1665 40.585,7.1665 40.2002,7.293 39.8799,7.5093 39.6074,6.7295 38.873,6.1665 38,6.1665 c -0.873,0 -1.6074,0.563 -1.8799,1.3428 C 35.7998,7.293 35.415,7.1665 35,7.1665 c -0.6885,0 -1.2959,0.3481 -1.6553,0.8779 C 33.125,8.0479 32.917,8.0918 32.7197,8.1606 32.3721,7.5684 31.7354,7.1665 31,7.1665 c -1.1045,0 -2,0.8955 -2,2 -1.1045,0 -2,0.8955 -2,2 -1.1045,0 -2,0.8955 -2,2 0,0.415 0.126,0.7998 0.3428,1.1196 C 24.5635,14.5591 24,15.2935 24,16.1665 c 0,0.6006 0.2705,1.1333 0.6904,1.5 -0.4199,0.3667 -0.6904,0.8994 -0.6904,1.5 0,0.8853 0.5791,1.6279 1.376,1.8911 10e-4,0.0723 0.0136,0.1411 0.0215,0.2114 C 24.5898,21.5259 24,22.2734 24,23.1665 c 0,1.1045 0.8955,2 2,2 0.1006,0 0.1963,-0.0151 0.2939,-0.0298 C 26.1113,25.4385 26,25.7886 26,26.1665 c 0,1.1045 0.8955,1.9995 2,1.9995 0.3779,0 0.7275,-0.1108 1.0303,-0.293 C 29.0146,27.9697 29,28.0659 29,28.166 c 0,1.1055 0.8955,2 2,2 0.415,0 0.7998,-0.126 1.1201,-0.3418 0.2725,0.7793 1.0069,1.3418 1.8799,1.3418 0.6006,0 1.1338,-0.2695 1.5,-0.6894 0.3662,0.4199 0.8994,0.6894 1.5,0.6894 0.3779,0 0.7275,-0.1113 1.0303,-0.293 C 38.0146,30.9697 38,31.0664 38,31.166 c 0,1.1055 0.8955,2 2,2 0.2314,0 0.4482,-0.0488 0.6533,-0.1211 0.0899,0.1514 0.1914,0.2949 0.3155,0.418 C 40.3896,33.8105 40,34.4414 40,35.166 c 0,1.1055 0.8955,2 2,2 -1.1045,0 -2,0.8965 -2,2 0,0.3789 0.1113,0.7285 0.2939,1.0303 C 40.1963,40.1816 40.1006,40.166 40,40.166 c -1.1045,0 -2,0.8965 -2,2 0,0.1016 0.0146,0.1973 0.0303,0.294 C 37.7275,42.2773 37.3779,42.166 37,42.166 c -1.1045,0 -2,0.8965 -2,2 -0.415,0 -0.7998,0.127 -1.1201,0.3438 C 33.6074,43.7295 32.873,43.166 32,43.166 c -0.6006,0 -1.1338,0.2715 -1.5,0.6904 -0.3662,-0.4189 -0.8994,-0.6904 -1.5,-0.6904 -1.1045,0 -2,0.8965 -2,2 -1.1045,0 -2,0.8965 -2,2 0,0.3789 0.1113,0.7285 0.2939,1.0303 C 25.1963,48.1816 25.1006,48.166 25,48.166 c -1.1045,0 -2,0.8965 -2,2 -1.1045,0 -2,0.8965 -2,2 0,0.3789 0.1113,0.7285 0.2939,1.0303 C 21.1963,53.1816 21.1006,53.166 21,53.166 c -1.1045,0 -2,0.8965 -2,2 0,0.8858 0.5791,1.6289 1.376,1.8916 10e-4,0.0723 0.0136,0.1416 0.0215,0.2119 C 19.5898,57.5254 19,58.2734 19,59.166 c 0,1.1055 0.8955,2 2,2 0.415,0 0.7998,-0.126 1.1201,-0.3418 0.2725,0.7793 1.0069,1.3418 1.8799,1.3418 0.3779,0 0.7275,-0.1113 1.0303,-0.293 C 25.0146,61.9697 25,62.0664 25,62.166 c 0,1.1055 0.8955,2 2,2 0.6006,0 1.1338,-0.2695 1.5,-0.6894 0.3662,0.4199 0.8994,0.6894 1.5,0.6894 0.415,0 0.7998,-0.126 1.1201,-0.3418 0.2725,0.7793 1.0069,1.3418 1.8799,1.3418 0.8232,0 1.5283,-0.498 1.835,-1.207 0.1181,0.0332 0.2402,0.0537 0.3652,0.0644 0.3223,0.6739 1.0039,1.1426 1.7998,1.1426 0.6006,0 1.1338,-0.2695 1.5,-0.6894 0.3662,0.4199 0.8994,0.6894 1.5,0.6894 0.873,0 1.6074,-0.5625 1.8799,-1.3418 0.3203,0.2158 0.7051,0.3418 1.1201,0.3418 0.873,0 1.6074,-0.5625 1.8799,-1.3418 0.3203,0.2158 0.7051,0.3418 1.1201,0.3418 0.873,0 1.6074,-0.5625 1.8799,-1.3418 0.3203,0.2158 0.7051,0.3418 1.1201,0.3418 1.1045,0 2,-0.8945 2,-2 0,-0.0996 -0.0146,-0.1963 -0.0303,-0.293 0.3028,0.1817 0.6524,0.293 1.0303,0.293 1.1045,0 2,-0.8945 2,-2 1.1045,0 2,-0.8945 2,-2 1.1045,0 2,-0.8945 2,-2 1.1045,0 2,-0.8945 2,-2 0,-0.3769 -0.1113,-0.7275 -0.2939,-1.0293 0.0966,0.0147 0.1933,0.0293 0.2939,0.0293 1.1045,0 2,-0.8945 2,-2 0,-0.3769 -0.1113,-0.7275 -0.2939,-1.0293 0.0966,0.0147 0.1933,0.0293 0.2939,0.0293 1.1045,0 2,-0.8945 2,-2 0,-0.5996 -0.2705,-1.1328 -0.6895,-1.5 C 63.7295,44.2998 64,43.7676 64,43.166 64,42.752 63.873,42.3672 63.6572,42.0469 64.4375,41.7734 65,41.0391 65,40.166 65,39.5664 64.7295,39.0332 64.3105,38.666 64.7295,38.2998 65,37.7676 65,37.166 65,36.293 64.4375,35.5586 63.6572,35.2861 Z"/></g><g id="line" transform="translate(-8.999,-5)"><path id="path3" fill="none" stroke="#000" stroke-linecap="round" stroke-linejoin="round" stroke-miterlimit="10" stroke-width="2" d="M 25.0322,41.2734 C 21.9697,38.8955 19.999,35.1777 19.999,31 V 12 c 0,-2.7617 -2.2383,-5 -5,-5 -2.7617,0 -5,2.2383 -5,5 l 1,28 c 0,5.4502 1.7442,10.4922 4.7051,14.6006"/><path id="path4" fill="none" stroke="#000" stroke-linecap="round" stroke-linejoin="round" stroke-miterlimit="10" stroke-width="2" d="M 63.6572,35.1191 C 63.873,34.7998 64,34.415 64,34 64,33.585 63.873,33.2002 63.6572,32.8809 64.4375,32.6074 65,31.873 65,31 65,30.127 64.4375,29.3926 63.6572,29.1191 63.873,28.7998 64,28.415 64,28 64,27.127 63.4375,26.3926 62.6572,26.1196 62.873,25.7998 63,25.415 63,25 63,24.127 62.4375,23.3926 61.6572,23.1196 61.873,22.7998 62,22.415 62,22 62,20.8955 61.1045,20 60,20 59.8994,20 59.8027,20.0151 59.7061,20.0298 59.8887,19.728 60,19.3779 60,19 60,17.8955 59.1045,17 58,17 57.8994,17 57.8027,17.0151 57.7061,17.0298 57.8887,16.728 58,16.3779 58,16 58,14.8955 57.1045,14 56,14 55.6221,14 55.2725,14.1113 54.9697,14.2935 54.9854,14.1968 55,14.1006 55,14 55,12.8955 54.1045,12 53,12 52.585,12 52.2002,12.1265 51.8799,12.3428 51.6074,11.563 50.873,11 50,11 49.6221,11 49.2725,11.1113 48.9697,11.2935 48.9854,11.1968 49,11.1006 49,11 49,9.8955 48.1045,9 47,9 46.585,9 46.2002,9.1265 45.8799,9.3428 45.6074,8.563 44.873,8 44,8 43.585,8 43.2002,8.1265 42.8799,8.3428 42.6074,7.563 41.873,7 41,7 40.585,7 40.2002,7.1265 39.8799,7.3428 39.6074,6.563 38.873,6 38,6 37.127,6 36.3926,6.563 36.1201,7.3428 35.7998,7.1265 35.415,7 35,7 34.3115,7 33.7041,7.3481 33.3447,7.8779 33.125,7.8813 32.917,7.9253 32.7197,7.9941 32.3721,7.4019 31.7354,7 31,7 c -1.1045,0 -2,0.8955 -2,2 -1.1045,0 -2,0.8955 -2,2 -1.1045,0 -2,0.8955 -2,2 0,0.415 0.126,0.7998 0.3428,1.1196 C 24.5635,14.3926 24,15.127 24,16 c 0,0.6006 0.2705,1.1333 0.6904,1.5 C 24.2705,17.8667 24,18.3994 24,19 c 0,0.8853 0.5791,1.6279 1.376,1.8911 10e-4,0.0723 0.0136,0.1411 0.0215,0.2114 C 24.5898,21.3594 24,22.1069 24,23 c 0,1.1045 0.8955,2 2,2 0.1006,0 0.1963,-0.0151 0.2939,-0.0298 C 26.1113,25.272 26,25.6221 26,26 c 0,1.1045 0.8955,2 2,2 0.3779,0 0.7275,-0.1113 1.0303,-0.2935 C 29.0146,27.8032 29,27.8994 29,28 c 0,1.1045 0.8955,2 2,2 0.415,0 0.7998,-0.127 1.1201,-0.3428 C 32.3926,30.4375 33.127,31 34,31 34.6006,31 35.1338,30.7295 35.5,30.3105 35.8662,30.7295 36.3994,31 37,31 37.3779,31 37.7275,30.8887 38.0303,30.707 38.0146,30.8027 38,30.8994 38,31 c 0,1.1045 0.8955,2 2,2 0.2314,0 0.4482,-0.0488 0.6533,-0.1221 0.0899,0.1514 0.1914,0.295 0.3155,0.418 C 40.3896,33.6445 40,34.2744 40,35 c 0,1.1045 0.8955,2 2,2 -1.1045,0 -2,0.8955 -2,2 0,0.3779 0.1113,0.7285 0.2939,1.0293 C 40.1963,40.0156 40.1006,40 40,40 c -1.1045,0 -2,0.8955 -2,2 0,0.1006 0.0146,0.1973 0.0303,0.293 C 37.7275,42.1113 37.3779,42 37,42 c -1.1045,0 -2,0.8955 -2,2 -0.415,0 -0.7998,0.127 -1.1201,0.3428 C 33.6074,43.5625 32.873,43 32,43 31.3994,43 30.8662,43.2705 30.5,43.6895 30.1338,43.2705 29.6006,43 29,43 c -1.1045,0 -2,0.8955 -2,2 -1.1045,0 -2,0.8955 -2,2 0,0.3779 0.1113,0.7285 0.2939,1.0293 C 25.1963,48.0156 25.1006,48 25,48 c -1.1045,0 -2,0.8955 -2,2 -1.1045,0 -2,0.8955 -2,2 0,0.3779 0.1113,0.7285 0.2939,1.0293 C 21.1963,53.0156 21.1006,53 21,53 c -1.1045,0 -2,0.8955 -2,2 0,0.8848 0.5791,1.6279 1.376,1.8906 10e-4,0.0723 0.0136,0.1416 0.0215,0.2119 C 19.5898,57.3594 19,58.1074 19,59 c 0,1.1045 0.8955,2 2,2 0.415,0 0.7998,-0.127 1.1201,-0.3428 C 22.3926,61.4375 23.127,62 24,62 24.3779,62 24.7275,61.8887 25.0303,61.707 25.0146,61.8027 25,61.8994 25,62 c 0,1.1045 0.8955,2 2,2 0.6006,0 1.1338,-0.2705 1.5,-0.6895 C 28.8662,63.7295 29.3994,64 30,64 30.415,64 30.7998,63.873 31.1201,63.6572 31.3926,64.4375 32.127,65 33,65 c 0.8232,0 1.5283,-0.498 1.835,-1.208 0.1181,0.0332 0.2402,0.0537 0.3652,0.0654 C 35.5225,64.5313 36.2041,65 37,65 37.6006,65 38.1338,64.7295 38.5,64.3105 38.8662,64.7295 39.3994,65 40,65 40.873,65 41.6074,64.4375 41.8799,63.6572 42.2002,63.873 42.585,64 43,64 43.873,64 44.6074,63.4375 44.8799,62.6572 45.2002,62.873 45.585,63 46,63 46.873,63 47.6074,62.4375 47.8799,61.6572 48.2002,61.873 48.585,62 49,62 c 1.1045,0 2,-0.8955 2,-2 0,-0.1006 -0.0146,-0.1973 -0.0303,-0.293 C 51.2725,59.8887 51.6221,60 52,60 c 1.1045,0 2,-0.8955 2,-2 1.1045,0 2,-0.8955 2,-2 1.1045,0 2,-0.8955 2,-2 1.1045,0 2,-0.8955 2,-2 0,-0.3779 -0.1113,-0.7285 -0.2939,-1.0293 C 59.8027,50.9844 59.8994,51 60,51 c 1.1045,0 2,-0.8955 2,-2 0,-0.3779 -0.1113,-0.7285 -0.2939,-1.0293 C 61.8027,47.9844 61.8994,48 62,48 c 1.1045,0 2,-0.8955 2,-2 0,-0.6006 -0.2705,-1.1328 -0.6895,-1.5 C 63.7295,44.1328 64,43.6006 64,43 64,42.585 63.873,42.2002 63.6572,41.8809 64.4375,41.6074 65,40.873 65,40 65,39.3994 64.7295,38.8672 64.3105,38.5 64.7295,38.1328 65,37.6006 65,37 65,36.127 64.4375,35.3926 63.6572,35.1191 Z"/></g></svg>