<?xml version="1.0" encoding="UTF-8" standalone="no"?>
<svg
   id="emoji"
   viewBox="0 0 40 63.99995"
   version="1.1"
   sodipodi:docname="1f366.svg"
   width="40"
   height="63.99995"
   xmlns:inkscape="http://www.inkscape.org/namespaces/inkscape"
   xmlns:sodipodi="http://sodipodi.sourceforge.net/DTD/sodipodi-0.dtd"
   xmlns="http://www.w3.org/2000/svg"
   xmlns:svg="http://www.w3.org/2000/svg">
  <defs
     id="defs11" />
  <sodipodi:namedview
     id="namedview11"
     pagecolor="#ffffff"
     bordercolor="#000000"
     borderopacity="0.25"
     inkscape:showpageshadow="2"
     inkscape:pageopacity="0.0"
     inkscape:pagecheckerboard="0"
     inkscape:deskcolor="#d1d1d1" />
  <g
     id="color"
     transform="translate(-16,-4.00005)">
    <path
       fill="#ffffff"
       stroke="none"
       d="m 53.9354,36 v 4 H 18.3685 V 36 H 19.37 c -0.02,-0.34 0.01,-0.68 0.1,-1 0.3,-1.05 1.17,-1.92 2.33,-2.18 l 3.77,-0.87 c -1.5,0.11 -2.88,-0.84 -3.21,-2.3 -0.37,-1.61 0.68,-3.23 2.36,-3.62 l 3.77,-0.87 c -1.5,0.1 -2.88,-0.85 -3.21,-2.3 -0.37,-1.61 0.69,-3.23 2.37,-3.62 l 3.79,-0.87 c -1.51,0.13 -2.9,-0.82 -3.23,-2.29 -0.38,-1.61 0.68,-3.24 2.36,-3.62 l 1.26,-0.29 h 0.01 C 33.86,11.67 36,7 34,5 h 3 c 1.66,0 3,1.34 3,3 0,1.66 -1,2.52 -2.69,2.9 l 2.77,-0.64 c 1.68,-0.39 3.34,0.61 3.71,2.22 0.34,1.45 -0.47,2.89 -1.84,3.46 L 43,15.7 c 1.68,-0.39 3.35,0.6 3.72,2.22 0.33,1.44 -0.48,2.88 -1.85,3.45 l 1.06,-0.24 c 1.68,-0.38 3.34,0.61 3.71,2.23 0.34,1.46 -0.5,2.92 -1.9,3.48 l 1.11,-0.26 c 1.68,-0.39 3.34,0.61 3.71,2.22 0.38,1.62 -0.68,3.24 -2.36,3.63 L 47.81,32.98 50,33 c 1.31,0 2.42,0.83 2.82,2 0.12,0.31 1.1154,0.65 1.1154,1 z"
       id="path1" />
    <rect
       x="17"
       y="40"
       width="38"
       height="10"
       fill="#fcea2b"
       stroke="none"
       id="rect1" />
    <path
       fill="#fcea2b"
       stroke="none"
       d="m 52,50 -4,12 c -0.873,2.6191 -2.2393,5 -5,5 H 29 c -2.7607,0 -4.127,-2.3809 -5,-5 L 20,50"
       id="path2" />
    <rect
       x="42.333"
       y="40"
       width="12.667"
       height="10"
       fill="#f1b31c"
       stroke="none"
       id="rect2" />
    <path
       fill="#f1b31c"
       stroke="none"
       d="M 43.3564,50 40,63.0303 C 39.626,64.4844 39.1592,65.8789 38.5322,67 H 43 c 2.7607,0 4.127,-2.3809 5,-5 l 4,-12 z"
       id="path3" />
  </g>
  <g
     id="hair"
     transform="translate(-16,-4.00005)" />
  <g
     id="skin"
     transform="translate(-16,-4.00005)" />
  <g
     id="skin-shadow"
     transform="translate(-16,-4.00005)" />
  <g
     id="line"
     transform="translate(-16,-4.00005)">
    <rect
       x="17"
       y="40"
       width="38"
       height="10"
       fill="none"
       stroke="#000000"
       stroke-linecap="round"
       stroke-linejoin="round"
       stroke-miterlimit="10"
       stroke-width="2"
       id="rect3" />
    <path
       fill="none"
       stroke="#000000"
       stroke-linecap="round"
       stroke-linejoin="round"
       stroke-miterlimit="10"
       stroke-width="2"
       d="m 53,36 c 0,-1.6562 -1.3428,-3 -3,-3 l -2.2187,-0.0156"
       id="path4" />
    <path
       fill="none"
       stroke="#000000"
       stroke-linecap="round"
       stroke-linejoin="round"
       stroke-miterlimit="10"
       stroke-width="2.0397"
       d="m 30.5713,12.4556 c -1.6797,0.3877 -2.7383,2.0112 -2.3662,3.6255 0.373,1.6142 2.0361,2.6084 3.7158,2.2207 l 9.5088,-2.1954 c 1.6797,-0.3876 2.7383,-2.0107 2.3652,-3.625 -0.372,-1.6142 -2.0351,-2.6088 -3.7148,-2.2211 z"
       id="path5" />
    <path
       fill="none"
       stroke="#000000"
       stroke-linecap="round"
       stroke-linejoin="round"
       stroke-miterlimit="10"
       stroke-width="2.0397"
       d="m 27.6475,19.2402 c -1.6797,0.3877 -2.7383,2.0103 -2.3653,3.6245 0.3721,1.6143 2.0352,2.6094 3.7149,2.2217 l 15.3554,-3.5449 c 1.6788,-0.3877 2.7383,-2.0112 2.3653,-3.6255 -0.3721,-1.6142 -2.0362,-2.6084 -3.7158,-2.2207 z"
       id="path6" />
    <path
       fill="none"
       stroke="#000000"
       stroke-linecap="round"
       stroke-linejoin="round"
       stroke-miterlimit="10"
       stroke-width="2.0397"
       d="m 49.6406,23.3555 c -0.373,-1.6143 -2.0351,-2.6094 -3.7148,-2.2212 l -21.2012,4.8945 c -1.6797,0.3877 -2.7383,2.0112 -2.3662,3.6255 0.373,1.6143 2.0361,2.6084 3.7158,2.2207 l 21.2012,-4.8945 c 1.6797,-0.3877 2.7383,-2.0108 2.3652,-3.625 z"
       id="path7" />
    <path
       fill="none"
       stroke="#000000"
       stroke-linecap="round"
       stroke-linejoin="round"
       stroke-miterlimit="10"
       stroke-width="2.0397"
       d="m 35.9424,35.7168 14.2568,-3.291 c 1.6787,-0.3877 2.7383,-2.0108 2.3653,-3.625 -0.3731,-1.6143 -2.0362,-2.6094 -3.7149,-2.2217 l -27.0478,6.2451 c -1.5225,0.3506 -2.5352,1.7168 -2.4327,3.1729"
       id="path8" />
    <path
       fill="none"
       stroke="#000000"
       stroke-linecap="round"
       stroke-linejoin="round"
       stroke-miterlimit="10"
       stroke-width="1.9999"
       d="m 34,5 h 3 c 1.6572,0 3,1.3433 3,3 0,1.6567 -1,2.521 -2.6875,2.896"
       id="path9" />
    <path
       fill="none"
       stroke="#000000"
       stroke-linecap="round"
       stroke-linejoin="round"
       stroke-miterlimit="10"
       stroke-width="1.9999"
       d="m 34,5 c 2,2 -0.1455,6.6875 -2.167,7.1665"
       id="path10" />
    <path
       fill="none"
       stroke="#000000"
       stroke-linecap="round"
       stroke-linejoin="round"
       stroke-miterlimit="10"
       stroke-width="2"
       d="m 52,50 -4,12 c -0.873,2.6191 -2.2393,5 -5,5 H 29 c -2.7607,0 -4.127,-2.3809 -5,-5 L 20,50"
       id="path11" />
  </g>
</svg>
