<svg xmlns="http://www.w3.org/2000/svg" xmlns:svg="http://www.w3.org/2000/svg" id="emoji" width="57.137" height="57.136" version="1.1" viewBox="0 0 57.137 57.136"><g id="color" transform="translate(-11.005767,-10.86439)"><ellipse id="ellipse1" cx="36.142" cy="35.999" fill="#fff" stroke="none" rx="10" ry="10" transform="matrix(0.7071,-0.7071,0.7071,0.7071,-14.8698,36.0984)"/><ellipse id="ellipse2" cx="22.142" cy="21.999" fill="#ea5a47" stroke="none" rx="10" ry="10" transform="matrix(0.7071,-0.7071,0.7071,0.7071,-9.0706,22.1005)"/><path id="path2" fill="#d22f27" stroke="none" d="m 29.2129,14.9199 c -2.5938,-2.5947 -6.2578,-3.4551 -9.5713,-2.602 1.6748,0.4311 3.2607,1.291 4.5713,2.602 3.9062,3.9053 3.9062,10.2368 10e-4,14.1426 -1.3106,1.3105 -2.8975,2.1699 -4.5713,2.6016 3.3135,0.8525 6.9765,-0.0078 9.5713,-2.6016 3.9052,-3.9058 3.9052,-10.2373 -10e-4,-14.1426 z"/><ellipse id="ellipse3" cx="50.142" cy="49.999" fill="#b1cc33" stroke="none" rx="9.999" ry="10" transform="matrix(0.7071,-0.7071,0.7071,0.7071,-20.6686,50.098)"/><path id="path3" fill="#5c9e31" stroke="none" d="m 57.2129,42.9199 c -2.5938,-2.5937 -6.2578,-3.4551 -9.5713,-2.6015 1.6748,0.4316 3.2607,1.291 4.5713,2.6015 3.9062,3.9063 3.9062,10.2364 0.001,14.1426 -1.3106,1.3105 -2.8975,2.1699 -4.5713,2.6016 3.3135,0.8535 6.9765,-0.0078 9.5713,-2.6016 3.9052,-3.9062 3.9052,-10.2363 -0.001,-14.1426 z"/><ellipse id="ellipse4" cx="36.142" cy="35.999" fill="none" stroke="none" rx="10" ry="10" transform="matrix(0.7071,-0.7071,0.7071,0.7071,-14.8696,36.1005)"/><path id="path4" fill="#d0cfce" stroke="none" d="m 43.2129,28.9199 c -2.5938,-2.5947 -6.2578,-3.4551 -9.5713,-2.602 1.6748,0.4311 3.2607,1.291 4.5713,2.602 3.9062,3.9053 3.9062,10.2364 0.001,14.1426 -1.3106,1.3105 -2.8975,2.1699 -4.5713,2.6016 3.3135,0.8535 6.9765,-0.0078 9.5713,-2.6016 3.9052,-3.9062 3.9052,-10.2373 -0.001,-14.1426 z"/></g><g id="line" transform="translate(-11.005767,-10.86439)"><ellipse id="ellipse5" cx="36.142" cy="35.999" fill="none" stroke="#000" stroke-linecap="round" stroke-linejoin="round" stroke-miterlimit="10" stroke-width="2" rx="10" ry="10" transform="matrix(0.7071,-0.7071,0.7071,0.7071,-14.8698,36.0984)"/><ellipse id="ellipse6" cx="22" cy="21.858" fill="none" stroke="#000" stroke-linecap="round" stroke-linejoin="round" stroke-miterlimit="10" stroke-width="2" rx="10" ry="10" transform="matrix(0.7071,-0.7071,0.7071,0.7071,-9.012,21.9586)"/><circle id="ellipse7" cx="50.284" cy="50.142" r="10" fill="none" stroke="#000" stroke-linecap="round" stroke-linejoin="round" stroke-miterlimit="10" stroke-width="2" transform="matrix(0.7071,-0.7071,0.7071,0.7071,-20.7276,50.2424)"/><line id="line7" x1="60.143" x2="67.143" y1="60" y2="67" fill="none" stroke="#000" stroke-linecap="round" stroke-linejoin="round" stroke-miterlimit="10" stroke-width="2"/></g></svg>