<svg xmlns="http://www.w3.org/2000/svg" xmlns:svg="http://www.w3.org/2000/svg" id="emoji" width="66" height="37.048" version="1.1" viewBox="0 0 66 37.048"><g id="color" transform="translate(-3,-19.3161)"><path id="path1" fill="#fff" d="M 19.9055,55.7995 H 52.0929 C 62.8891,49.3081 68,36.2917 68,20.7519 L 28.6342,20.3161 H 21.71 L 4,20.7519 c 0,15.5398 5.1109,28.5562 15.9055,35.0476 z"/><rect id="rect1" width="14.019" height="17.524" x="18.324" y="29.419" fill="#b1cc33"/><polygon id="polygon1" fill="#5c9e31" points="23 46.942 32.343 46.942 32 30 31 30 21 47"/></g><g id="line" transform="translate(-3,-19.3161)"><path id="path2" fill="none" stroke="#000" stroke-linecap="round" stroke-linejoin="round" stroke-width="2" d="M 19.5,20.3161 H 4 C 4,35.8559 9.1109,48.8723 19.9055,55.3637 H 52.0929 C 62.8891,48.8723 68,35.8559 68,20.3161 H 31.5"/><line id="line2" x1="25.5" x2="25.333" y1="20.5" y2="31.419" fill="none" stroke="#000" stroke-linecap="round" stroke-miterlimit="10" stroke-width="2"/><rect id="rect2" width="14.019" height="17.524" x="18.324" y="29.419" fill="none" stroke="#000" stroke-linejoin="round" stroke-width="2"/></g></svg>