<?xml version="1.0" encoding="UTF-8" standalone="no"?>
<svg
   id="emoji"
   viewBox="0 0 64 40"
   version="1.1"
   sodipodi:docname="1f371.svg"
   width="64"
   height="40"
   xmlns:inkscape="http://www.inkscape.org/namespaces/inkscape"
   xmlns:sodipodi="http://sodipodi.sourceforge.net/DTD/sodipodi-0.dtd"
   xmlns="http://www.w3.org/2000/svg"
   xmlns:svg="http://www.w3.org/2000/svg">
  <defs
     id="defs20" />
  <sodipodi:namedview
     id="namedview20"
     pagecolor="#ffffff"
     bordercolor="#000000"
     borderopacity="0.25"
     inkscape:showpageshadow="2"
     inkscape:pageopacity="0.0"
     inkscape:pagecheckerboard="0"
     inkscape:deskcolor="#d1d1d1" />
  <g
     id="color"
     transform="translate(-4,-16)">
    <path
       fill="#ffffff"
       stroke="none"
       d="m 5,19 c 0,-1.1045 0.8955,-2 2,-2 h 58 c 1.1045,0 2,0.8955 2,2 v 34 c 0,1.1045 -0.8955,2 -2,2 H 7 C 5.8955,55 5,54.1045 5,53 Z"
       id="path1" />
    <path
       fill="#d0cfce"
       stroke="none"
       d="m 44.0713,21 c 1.9521,1.9521 1.9521,5.1182 0,7.0713 -1.9522,1.9531 -5.1182,1.9531 -7.0713,0 z"
       id="path2" />
    <path
       fill="#d0cfce"
       stroke="none"
       d="m 56.6074,21 c 1.9522,1.9521 1.9522,5.1182 0,7.0713 -1.9531,1.9531 -5.1191,1.9531 -7.0722,0 z"
       id="path3" />
    <path
       fill="#ea5a47"
       stroke="none"
       d="m 39,40 c 0,-1.1045 -0.8955,-2 -2,-2 h -4 c -1.1045,0 -2,0.8955 -2,2 v 9 c 0,1.1045 0.8955,2 2,2 h 4 c 1.1045,0 2,-0.8955 2,-2 z"
       id="path4" />
    <path
       fill="#ea5a47"
       stroke="none"
       d="m 51,40 c 0,-1.1045 -0.8955,-2 -2,-2 h -4 c -1.1045,0 -2,0.8955 -2,2 v 9 c 0,1.1045 0.8955,2 2,2 h 4 c 1.1045,0 2,-0.8955 2,-2 z"
       id="path5" />
    <path
       fill="#ea5a47"
       stroke="none"
       d="m 63,40 c 0,-1.1045 -0.8955,-2 -2,-2 h -4 c -1.1045,0 -2,0.8955 -2,2 v 9 c 0,1.1045 0.8955,2 2,2 h 4 c 1.1045,0 2,-0.8955 2,-2 z"
       id="path6" />
    <polyline
       fill="#61b2e4"
       stroke="none"
       points="12.998,42.2129 11.998,51 15.998,47 15.998,47 19.998,51 18.6045,42.2129"
       id="polyline6" />
    <path
       fill="#92d3f5"
       stroke="none"
       d="m 17.6045,43.2129 c 5.8574,-5.8574 5.8574,-15.355 0,-21.2129 H 13.998 c -5.8574,5.8579 -5.8574,15.3555 0,21.2129 z"
       id="path7" />
  </g>
  <g
     id="hair"
     transform="translate(-4,-16)" />
  <g
     id="skin"
     transform="translate(-4,-16)" />
  <g
     id="skin-shadow"
     transform="translate(-4,-16)" />
  <g
     id="line"
     transform="translate(-4,-16)">
    <path
       fill="none"
       stroke="#000000"
       stroke-linecap="round"
       stroke-linejoin="round"
       stroke-miterlimit="10"
       stroke-width="2"
       d="m 5,19 c 0,-1.1045 0.8955,-2 2,-2 h 58 c 1.1045,0 2,0.8955 2,2 v 34 c 0,1.1045 -0.8955,2 -2,2 H 7 C 5.8955,55 5,54.1045 5,53 Z"
       id="path8" />
    <line
       x1="27"
       x2="27"
       y1="17"
       y2="55"
       fill="none"
       stroke="#000000"
       stroke-linecap="round"
       stroke-linejoin="round"
       stroke-miterlimit="10"
       stroke-width="2"
       id="line8" />
    <line
       x1="27"
       x2="67"
       y1="34"
       y2="34"
       fill="none"
       stroke="#000000"
       stroke-linecap="round"
       stroke-linejoin="round"
       stroke-miterlimit="10"
       stroke-width="2"
       id="line9" />
    <path
       fill="none"
       stroke="#000000"
       stroke-linecap="round"
       stroke-linejoin="round"
       stroke-miterlimit="10"
       stroke-width="2"
       d="m 17.6064,43.2129 c 5.8575,-5.8574 5.8575,-15.355 0,-21.2129 H 14 c -5.8574,5.8579 -5.8574,15.3555 0,21.2129 z"
       id="path9" />
    <line
       x1="11"
       x2="21"
       y1="28"
       y2="28"
       fill="none"
       stroke="#000000"
       stroke-linecap="round"
       stroke-linejoin="round"
       stroke-miterlimit="10"
       stroke-width="2"
       id="line10" />
    <polyline
       fill="none"
       stroke="#000000"
       stroke-linecap="round"
       stroke-linejoin="round"
       stroke-miterlimit="10"
       stroke-width="2"
       points="13,42.2129 12,51 16,47 16,47 20,51 18.6064,42.2129"
       id="polyline10" />
    <path
       fill="none"
       stroke="#000000"
       stroke-linecap="round"
       stroke-linejoin="round"
       stroke-miterlimit="10"
       stroke-width="2"
       d="m 39,40 c 0,-1.1045 -0.8955,-2 -2,-2 h -4 c -1.1045,0 -2,0.8955 -2,2 v 9 c 0,1.1045 0.8955,2 2,2 h 4 c 1.1045,0 2,-0.8955 2,-2 z"
       id="path10" />
    <path
       fill="none"
       stroke="#000000"
       stroke-linecap="round"
       stroke-linejoin="round"
       stroke-miterlimit="10"
       stroke-width="2"
       d="m 51,40 c 0,-1.1045 -0.8955,-2 -2,-2 h -4 c -1.1045,0 -2,0.8955 -2,2 v 9 c 0,1.1045 0.8955,2 2,2 h 4 c 1.1045,0 2,-0.8955 2,-2 z"
       id="path11" />
    <path
       fill="none"
       stroke="#000000"
       stroke-linecap="round"
       stroke-linejoin="round"
       stroke-miterlimit="10"
       stroke-width="2"
       d="m 63,40 c 0,-1.1045 -0.8955,-2 -2,-2 h -4 c -1.1045,0 -2,0.8955 -2,2 v 9 c 0,1.1045 0.8955,2 2,2 h 4 c 1.1045,0 2,-0.8955 2,-2 z"
       id="path12" />
    <path
       fill="none"
       stroke="#000000"
       stroke-linecap="round"
       stroke-linejoin="round"
       stroke-miterlimit="10"
       stroke-width="2"
       d="m 44,21 c 1.9521,1.9521 1.9521,5.1182 0,7.0713 -1.9521,1.9531 -5.1182,1.9531 -7.0713,0 z"
       id="path13" />
    <path
       fill="none"
       stroke="#000000"
       stroke-linecap="round"
       stroke-linejoin="round"
       stroke-miterlimit="10"
       stroke-width="2"
       d="m 56.5361,21 c 1.9522,1.9521 1.9522,5.1182 0,7.0713 -1.9531,1.9531 -5.1191,1.9531 -7.0722,0 z"
       id="path14" />
    <path
       fill="none"
       stroke="#000000"
       stroke-linecap="round"
       stroke-linejoin="round"
       stroke-miterlimit="10"
       stroke-width="2"
       d="m 39,44.334 c 0,1.1035 -0.8955,2 -2,2"
       id="path15" />
    <path
       fill="none"
       stroke="#000000"
       stroke-linecap="round"
       stroke-linejoin="round"
       stroke-miterlimit="10"
       stroke-width="2"
       d="m 39,40 c 0,1.1045 -0.8955,2 -2,2"
       id="path16" />
    <path
       fill="none"
       stroke="#000000"
       stroke-linecap="round"
       stroke-linejoin="round"
       stroke-miterlimit="10"
       stroke-width="2"
       d="m 51,44.334 c 0,1.1035 -0.8955,2 -2,2"
       id="path17" />
    <path
       fill="none"
       stroke="#000000"
       stroke-linecap="round"
       stroke-linejoin="round"
       stroke-miterlimit="10"
       stroke-width="2"
       d="m 51,40 c 0,1.1045 -0.8955,2 -2,2"
       id="path18" />
    <path
       fill="none"
       stroke="#000000"
       stroke-linecap="round"
       stroke-linejoin="round"
       stroke-miterlimit="10"
       stroke-width="2"
       d="m 63,44.334 c 0,1.1035 -0.8955,2 -2,2"
       id="path19" />
    <path
       fill="none"
       stroke="#000000"
       stroke-linecap="round"
       stroke-linejoin="round"
       stroke-miterlimit="10"
       stroke-width="2"
       d="m 63,40 c 0,1.1045 -0.8955,2 -2,2"
       id="path20" />
  </g>
</svg>
