<svg xmlns="http://www.w3.org/2000/svg" xmlns:svg="http://www.w3.org/2000/svg" id="emoji" width="64" height="40" version="1.1" viewBox="0 0 64 40"><g id="color" transform="translate(-4,-16)"><path id="path1" fill="#fff" stroke="none" d="m 5,19 c 0,-1.1045 0.8955,-2 2,-2 h 58 c 1.1045,0 2,0.8955 2,2 v 34 c 0,1.1045 -0.8955,2 -2,2 H 7 C 5.8955,55 5,54.1045 5,53 Z"/><path id="path2" fill="#d0cfce" stroke="none" d="m 44.0713,21 c 1.9521,1.9521 1.9521,5.1182 0,7.0713 -1.9522,1.9531 -5.1182,1.9531 -7.0713,0 z"/><path id="path3" fill="#d0cfce" stroke="none" d="m 56.6074,21 c 1.9522,1.9521 1.9522,5.1182 0,7.0713 -1.9531,1.9531 -5.1191,1.9531 -7.0722,0 z"/><path id="path4" fill="#ea5a47" stroke="none" d="m 39,40 c 0,-1.1045 -0.8955,-2 -2,-2 h -4 c -1.1045,0 -2,0.8955 -2,2 v 9 c 0,1.1045 0.8955,2 2,2 h 4 c 1.1045,0 2,-0.8955 2,-2 z"/><path id="path5" fill="#ea5a47" stroke="none" d="m 51,40 c 0,-1.1045 -0.8955,-2 -2,-2 h -4 c -1.1045,0 -2,0.8955 -2,2 v 9 c 0,1.1045 0.8955,2 2,2 h 4 c 1.1045,0 2,-0.8955 2,-2 z"/><path id="path6" fill="#ea5a47" stroke="none" d="m 63,40 c 0,-1.1045 -0.8955,-2 -2,-2 h -4 c -1.1045,0 -2,0.8955 -2,2 v 9 c 0,1.1045 0.8955,2 2,2 h 4 c 1.1045,0 2,-0.8955 2,-2 z"/><polyline id="polyline6" fill="#61b2e4" stroke="none" points="12.998 42.213 11.998 51 15.998 47 15.998 47 19.998 51 18.605 42.213"/><path id="path7" fill="#92d3f5" stroke="none" d="m 17.6045,43.2129 c 5.8574,-5.8574 5.8574,-15.355 0,-21.2129 H 13.998 c -5.8574,5.8579 -5.8574,15.3555 0,21.2129 z"/></g><g id="line" transform="translate(-4,-16)"><path id="path8" fill="none" stroke="#000" stroke-linecap="round" stroke-linejoin="round" stroke-miterlimit="10" stroke-width="2" d="m 5,19 c 0,-1.1045 0.8955,-2 2,-2 h 58 c 1.1045,0 2,0.8955 2,2 v 34 c 0,1.1045 -0.8955,2 -2,2 H 7 C 5.8955,55 5,54.1045 5,53 Z"/><line id="line8" x1="27" x2="27" y1="17" y2="55" fill="none" stroke="#000" stroke-linecap="round" stroke-linejoin="round" stroke-miterlimit="10" stroke-width="2"/><line id="line9" x1="27" x2="67" y1="34" y2="34" fill="none" stroke="#000" stroke-linecap="round" stroke-linejoin="round" stroke-miterlimit="10" stroke-width="2"/><path id="path9" fill="none" stroke="#000" stroke-linecap="round" stroke-linejoin="round" stroke-miterlimit="10" stroke-width="2" d="m 17.6064,43.2129 c 5.8575,-5.8574 5.8575,-15.355 0,-21.2129 H 14 c -5.8574,5.8579 -5.8574,15.3555 0,21.2129 z"/><line id="line10" x1="11" x2="21" y1="28" y2="28" fill="none" stroke="#000" stroke-linecap="round" stroke-linejoin="round" stroke-miterlimit="10" stroke-width="2"/><polyline id="polyline10" fill="none" stroke="#000" stroke-linecap="round" stroke-linejoin="round" stroke-miterlimit="10" stroke-width="2" points="13 42.213 12 51 16 47 16 47 20 51 18.606 42.213"/><path id="path10" fill="none" stroke="#000" stroke-linecap="round" stroke-linejoin="round" stroke-miterlimit="10" stroke-width="2" d="m 39,40 c 0,-1.1045 -0.8955,-2 -2,-2 h -4 c -1.1045,0 -2,0.8955 -2,2 v 9 c 0,1.1045 0.8955,2 2,2 h 4 c 1.1045,0 2,-0.8955 2,-2 z"/><path id="path11" fill="none" stroke="#000" stroke-linecap="round" stroke-linejoin="round" stroke-miterlimit="10" stroke-width="2" d="m 51,40 c 0,-1.1045 -0.8955,-2 -2,-2 h -4 c -1.1045,0 -2,0.8955 -2,2 v 9 c 0,1.1045 0.8955,2 2,2 h 4 c 1.1045,0 2,-0.8955 2,-2 z"/><path id="path12" fill="none" stroke="#000" stroke-linecap="round" stroke-linejoin="round" stroke-miterlimit="10" stroke-width="2" d="m 63,40 c 0,-1.1045 -0.8955,-2 -2,-2 h -4 c -1.1045,0 -2,0.8955 -2,2 v 9 c 0,1.1045 0.8955,2 2,2 h 4 c 1.1045,0 2,-0.8955 2,-2 z"/><path id="path13" fill="none" stroke="#000" stroke-linecap="round" stroke-linejoin="round" stroke-miterlimit="10" stroke-width="2" d="m 44,21 c 1.9521,1.9521 1.9521,5.1182 0,7.0713 -1.9521,1.9531 -5.1182,1.9531 -7.0713,0 z"/><path id="path14" fill="none" stroke="#000" stroke-linecap="round" stroke-linejoin="round" stroke-miterlimit="10" stroke-width="2" d="m 56.5361,21 c 1.9522,1.9521 1.9522,5.1182 0,7.0713 -1.9531,1.9531 -5.1191,1.9531 -7.0722,0 z"/><path id="path15" fill="none" stroke="#000" stroke-linecap="round" stroke-linejoin="round" stroke-miterlimit="10" stroke-width="2" d="m 39,44.334 c 0,1.1035 -0.8955,2 -2,2"/><path id="path16" fill="none" stroke="#000" stroke-linecap="round" stroke-linejoin="round" stroke-miterlimit="10" stroke-width="2" d="m 39,40 c 0,1.1045 -0.8955,2 -2,2"/><path id="path17" fill="none" stroke="#000" stroke-linecap="round" stroke-linejoin="round" stroke-miterlimit="10" stroke-width="2" d="m 51,44.334 c 0,1.1035 -0.8955,2 -2,2"/><path id="path18" fill="none" stroke="#000" stroke-linecap="round" stroke-linejoin="round" stroke-miterlimit="10" stroke-width="2" d="m 51,40 c 0,1.1045 -0.8955,2 -2,2"/><path id="path19" fill="none" stroke="#000" stroke-linecap="round" stroke-linejoin="round" stroke-miterlimit="10" stroke-width="2" d="m 63,44.334 c 0,1.1035 -0.8955,2 -2,2"/><path id="path20" fill="none" stroke="#000" stroke-linecap="round" stroke-linejoin="round" stroke-miterlimit="10" stroke-width="2" d="m 63,40 c 0,1.1045 -0.8955,2 -2,2"/></g></svg>