<?xml version="1.0" encoding="UTF-8" standalone="no"?>
<svg
   id="emoji"
   viewBox="0 0 64 57"
   version="1.1"
   sodipodi:docname="1f370.svg"
   width="64"
   height="57"
   xmlns:inkscape="http://www.inkscape.org/namespaces/inkscape"
   xmlns:sodipodi="http://sodipodi.sourceforge.net/DTD/sodipodi-0.dtd"
   xmlns="http://www.w3.org/2000/svg"
   xmlns:svg="http://www.w3.org/2000/svg">
  <defs
     id="defs7" />
  <sodipodi:namedview
     id="namedview7"
     pagecolor="#ffffff"
     bordercolor="#000000"
     borderopacity="0.25"
     inkscape:showpageshadow="2"
     inkscape:pageopacity="0.0"
     inkscape:pagecheckerboard="0"
     inkscape:deskcolor="#d1d1d1" />
  <g
     id="color"
     transform="translate(-4,-5)">
    <path
       fill="#ffffff"
       d="M 57.5367,18.0513 40.9961,20.5615 38.9223,20.9926 7,26 c -1.1045,0 -2,0.8965 -2,2 v 12 h 1 c 2.7617,0 5,-2.2383 5,-4.999 C 11,32.2403 13.2383,30 16,30 c 2.7617,0 5,2.2393 5,5.001 0,2.7617 2.2383,4.999 5,4.999 2.7617,0 5,-2.2383 5,-4.999 C 31,32.2403 33.2383,30 36,30 c 2.7617,0 5,2.2393 5,5.001 0,2.7617 2.2383,4.999 5,4.999 2.7617,0 5,-2.2383 5,-4.999 C 51,32.2403 53.2383,30 56,30 c 2.7617,0 5,2.2393 5,5.001 0,2.7617 2.2383,4.999 5,4.999 h 1 V 28 c 0,-4.7112 -3.2599,-8.6632 -7.647,-9.7215 -0.4344,-0.1048 -1.3618,-0.1812 -1.8163,-0.2272"
       id="path1" />
    <circle
       cx="49.5"
       cy="18.0005"
       r="5"
       fill="#ea5a47"
       id="circle1" />
    <path
       fill="#fcea2b"
       d="m 67,39 v 20 c 0,1.1055 -0.8955,2 -2,2 H 7 C 5.8955,61 5,60.1055 5,59 V 39"
       id="path2" />
    <path
       fill="#fcea2b"
       d="m 67,40 h -1 c -2.7607,0 -5,-2.2383 -5,-5 0,-2.7617 -2.2393,-5 -5,-5 -2.7607,0 -5,2.2383 -5,5 0,2.7617 -2.2393,5 -5,5 -2.7607,0 -5,-2.2383 -5,-5 0,-2.7617 -2.2393,-5 -5,-5 -2.7607,0 -5,2.2383 -5,5 0,2.7617 -2.2393,5 -5,5 -2.7607,0 -5,-2.2383 -5,-5 0,-2.7617 -2.2393,-5 -5,-5 -2.7607,0 -5,2.2383 -5,5 0,2.7617 -2.2393,5 -5,5 H 5"
       id="path3" />
  </g>
  <g
     id="line"
     transform="translate(-4,-5)">
    <path
       fill="none"
       stroke="#000000"
       stroke-linecap="round"
       stroke-linejoin="round"
       stroke-width="2"
       d="m 67,28 v 31 c 0,1.1055 -0.8955,2 -2,2 H 7 C 5.8955,61 5,60.1055 5,59 V 28 c 0,-1.1035 0.8955,-2 2,-2 l 33.9961,-5.4385"
       id="path4" />
    <path
       fill="none"
       stroke="#000000"
       stroke-linecap="round"
       stroke-linejoin="round"
       stroke-width="2"
       d="M 58.0186,18.0513 C 63.0625,18.5615 67,22.8223 67,28"
       id="path5" />
    <path
       fill="none"
       stroke="#000000"
       stroke-linecap="round"
       stroke-linejoin="round"
       stroke-width="2"
       d="m 5,40 h 1 c 2.7617,0 5,-2.2383 5,-4.999 C 11,32.2403 13.2383,30 16,30 c 2.7617,0 5,2.2393 5,5.001 0,2.7617 2.2383,4.999 5,4.999 2.7617,0 5,-2.2383 5,-4.999 C 31,32.2403 33.2383,30 36,30 c 2.7617,0 5,2.2393 5,5.001 0,2.7617 2.2383,4.999 5,4.999 2.7617,0 5,-2.2383 5,-4.999 C 51,32.2403 53.2383,30 56,30 c 2.7617,0 5,2.2393 5,5.001 0,2.7617 2.2383,4.999 5,4.999 h 1"
       id="path6" />
    <line
       x1="5"
       x2="67"
       y1="48"
       y2="48"
       fill="none"
       stroke="#000000"
       stroke-linecap="round"
       stroke-linejoin="round"
       stroke-width="2"
       id="line6" />
    <line
       x1="5"
       x2="67"
       y1="52"
       y2="52"
       fill="none"
       stroke="#000000"
       stroke-linecap="round"
       stroke-linejoin="round"
       stroke-width="2"
       id="line7" />
    <circle
       cx="49.5"
       cy="18.0005"
       r="5"
       fill="none"
       stroke="#000000"
       stroke-linecap="round"
       stroke-linejoin="round"
       stroke-width="2"
       id="circle7" />
    <path
       fill="none"
       stroke="#000000"
       stroke-linecap="round"
       stroke-linejoin="round"
       stroke-width="2"
       d="m 49.5,16 c 0,-5.5229 4.4766,-10 10,-10"
       id="path7" />
  </g>
</svg>
