<?xml version="1.0" encoding="UTF-8" standalone="no"?>
<svg
   id="emoji"
   viewBox="0 0 66.503204 38.173042"
   version="1.1"
   sodipodi:docname="1f37b.svg"
   width="66.503204"
   height="38.173042"
   xmlns:inkscape="http://www.inkscape.org/namespaces/inkscape"
   xmlns:sodipodi="http://sodipodi.sourceforge.net/DTD/sodipodi-0.dtd"
   xmlns="http://www.w3.org/2000/svg"
   xmlns:svg="http://www.w3.org/2000/svg">
  <defs
     id="defs9" />
  <sodipodi:namedview
     id="namedview9"
     pagecolor="#ffffff"
     bordercolor="#000000"
     borderopacity="0.25"
     inkscape:showpageshadow="2"
     inkscape:pageopacity="0.0"
     inkscape:pagecheckerboard="0"
     inkscape:deskcolor="#d1d1d1" />
  <g
     id="color"
     transform="translate(-2.8105473,-17.338144)">
    <rect
       x="38.832298"
       y="26.0949"
       width="21.361799"
       height="25.909"
       transform="matrix(0.9907,-0.1362,0.1362,0.9907,-4.8571,7.1074)"
       fill="#fcea2b"
       id="rect1" />
    <polygon
       fill="#f1b31c"
       points="61.8577,50.4277 58.329,24.7607 52.3518,25.5824 50.5712,51.9794 "
       id="polygon1" />
    <path
       fill="#ffffff"
       d="m 54.1792,19.7033 c -0.92,0.1257 -1.7192,0.5748 -2.3177,1.2226 -0.8493,-1.2758 -2.3157,-2.0295 -3.8622,-1.8181 -0.5648,0.0772 -1.0837,0.2763 -1.5399,0.5676 -0.9375,-0.9642 -2.26,-1.4884 -3.6423,-1.2995 -2.0787,0.2841 -3.5999,2.0797 -3.731,4.2139 -0.2539,-0.0279 -0.5121,-0.0337 -0.7749,0.0022 -1.8366,0.251 -3.1097,2.0372 -2.8429,3.9888 l 0.7729,5.6548 c 0.1063,0.7775 0.7919,1.3319 1.5236,1.2319 L 38.43,33.3766 c 0.7317,-0.1 1.2434,-0.818 1.1372,-1.5955 L 39.413,30.653 c 0.439,0.2071 0.9283,0.3023 1.4332,0.2333 l 1.3084,-0.1788 c 0.8481,-0.1159 1.5384,-0.6531 1.9362,-1.3814 0.8731,0.9888 2.1616,1.5414 3.5039,1.358 2.1952,-0.3 3.7303,-2.454 3.4115,-4.7866 l 7.705,-1.0531 c 0.0872,-0.4627 0.1068,-0.9492 0.0389,-1.4454 -0.3203,-2.3426 -2.3665,-3.997 -4.5709,-3.6957 z"
       id="path1" />
    <path
       fill="#ffffff"
       d="m 37.8887,28.7045 c -0.2592,-1.8965 1.02,-3.6381 2.8567,-3.8891 0.2627,-0.0359 0.5209,-0.0313 0.7745,-0.0051 0.1393,-2.0755 1.6664,-3.8272 3.7452,-4.1113 1.3822,-0.1889 2.7021,0.3157 3.6354,1.2496 0.4571,-0.285 0.9765,-0.4805 1.5413,-0.5578 1.5466,-0.2114 3.0093,0.5158 3.8533,1.753 0.6007,-0.6321 1.4012,-1.0718 2.3211,-1.1975 0.3737,-0.0511 0.7416,-0.0434 1.0981,0.0088 -0.7635,-1.5343 -2.3996,-2.4881 -4.143,-2.2498 -0.9199,0.1257 -1.7204,0.5655 -2.3211,1.1975 -0.844,-1.2372 -2.3067,-1.9644 -3.8533,-1.753 -0.5648,0.0772 -1.0842,0.2728 -1.5413,0.5578 -0.9333,-0.9339 -2.2531,-1.4385 -3.6354,-1.2496 -2.0788,0.2842 -3.6059,2.0358 -3.7452,4.1113 -0.2536,-0.0262 -0.5118,-0.0308 -0.7745,0.0051 -1.8367,0.2511 -3.1159,1.9926 -2.8567,3.8891 l 0.7509,5.4952 c 0.1032,0.7556 0.7864,1.2919 1.5181,1.1919 l 0.6652,-0.0909 c 0.2543,-0.0347 0.4796,-0.1454 0.6646,-0.3022 z"
       id="path2" />
    <rect
       x="9.6574001"
       y="29.3671"
       width="25.909"
       height="21.361799"
       transform="matrix(0.1362,-0.9907,0.9907,0.1362,-20.1427,56.9947)"
       fill="#fcea2b"
       id="rect2" />
    <polygon
       fill="#f1b31c"
       points="10.2667,51.4277 13.7953,25.7607 19.7725,26.5824 21.5532,52.9794 "
       id="polygon2" />
    <path
       fill="#ffffff"
       d="m 17.9452,20.7033 c 0.92,0.1257 1.7192,0.5748 2.3177,1.2226 0.8493,-1.2758 2.3157,-2.0295 3.8622,-1.8181 0.5648,0.0772 1.0837,0.2763 1.5399,0.5676 0.9375,-0.9642 2.26,-1.4884 3.6423,-1.2995 2.0787,0.2841 3.5999,2.0797 3.731,4.2139 0.2539,-0.0279 0.5121,-0.0337 0.7749,0.0022 1.8366,0.251 3.1097,2.0372 2.8429,3.9888 l -0.7729,5.6548 c -0.1063,0.7775 -0.7919,1.3319 -1.5236,1.2319 l -0.6652,-0.0909 c -0.7317,-0.1 -1.2434,-0.818 -1.1372,-1.5955 l 0.1542,-1.1281 c -0.439,0.2071 -0.9283,0.3023 -1.4332,0.2333 l -1.3084,-0.1788 c -0.8481,-0.1159 -1.5384,-0.6531 -1.9362,-1.3814 -0.8731,0.9888 -2.1616,1.5414 -3.5039,1.358 -2.1952,-0.3 -3.7303,-2.454 -3.4115,-4.7866 l -7.705,-1.0531 c -0.0872,-0.4627 -0.1068,-0.9492 -0.0389,-1.4454 0.3202,-2.3426 2.3664,-3.997 4.5709,-3.6957 z"
       id="path3" />
    <path
       fill="#ffffff"
       d="m 34.2357,29.7045 c 0.2592,-1.8965 -1.02,-3.6381 -2.8567,-3.8891 -0.2627,-0.0359 -0.5209,-0.0313 -0.7745,-0.0051 -0.1393,-2.0755 -1.6664,-3.8272 -3.7452,-4.1113 -1.3822,-0.1889 -2.7021,0.3157 -3.6354,1.2496 -0.4571,-0.285 -0.9765,-0.4805 -1.5413,-0.5578 -1.5466,-0.2114 -3.0093,0.5158 -3.8533,1.753 -0.6007,-0.6321 -1.4012,-1.0718 -2.3211,-1.1975 -0.3737,-0.0511 -0.7416,-0.0434 -1.0981,0.0088 0.7635,-1.5343 2.3996,-2.4881 4.143,-2.2498 0.9199,0.1257 1.7204,0.5655 2.3211,1.1975 0.844,-1.2372 2.3067,-1.9644 3.8533,-1.753 0.5648,0.0772 1.0842,0.2728 1.5413,0.5578 0.9333,-0.9339 2.2531,-1.4385 3.6354,-1.2496 2.0788,0.2842 3.6059,2.0358 3.7452,4.1113 0.2536,-0.0262 0.5117,-0.0308 0.7745,0.0051 1.8367,0.2511 3.1159,1.9926 2.8567,3.8891 l -0.7509,5.4952 c -0.1032,0.7556 -0.7864,1.2919 -1.5181,1.1919 L 34.3464,34.0597 C 34.0921,34.025 33.8668,33.9143 33.6818,33.7575 Z"
       id="path4" />
  </g>
  <g
     id="hair"
     transform="translate(-2.8105473,-17.338144)" />
  <g
     id="skin"
     transform="translate(-2.8105473,-17.338144)" />
  <g
     id="skin-shadow"
     transform="translate(-2.8105473,-17.338144)" />
  <g
     id="line"
     transform="translate(-2.8105473,-17.338144)">
    <path
       fill="none"
       stroke="#000000"
       stroke-linecap="round"
       stroke-linejoin="round"
       stroke-miterlimit="10"
       stroke-width="2"
       d="m 61.6211,44.0459 4.2325,-0.5819 c 1.5519,-0.2134 2.6471,-1.6577 2.4338,-3.2096 L 66.9297,30.3785 C 66.7163,28.8266 65.272,27.7314 63.7201,27.9447 l -4.2325,0.5819"
       id="path5" />
    <polyline
       fill="none"
       stroke="#000000"
       stroke-linecap="round"
       stroke-linejoin="round"
       stroke-miterlimit="10"
       stroke-width="2"
       points="50.9884,25.7699 58.329,24.7607 61.8949,50.6989 41.438,53.5112 39.463,39.1453"
       id="polyline5" />
    <path
       fill="none"
       stroke="#000000"
       stroke-linecap="round"
       stroke-linejoin="round"
       stroke-miterlimit="10"
       stroke-width="2"
       d="m 36.1305,31.4272 0.1105,0.8085 c 0.1063,0.7775 0.7919,1.3319 1.5236,1.2319 l 0.6652,-0.0909 c 0.144,-0.0197 0.2796,-0.0633 0.4035,-0.1267"
       id="path6" />
    <path
       fill="none"
       stroke="#000000"
       stroke-linecap="round"
       stroke-linejoin="round"
       stroke-miterlimit="10"
       stroke-width="2"
       d="m 38.8333,33.25 c 0.5057,-0.2584 0.8189,-0.8444 0.7336,-1.4689 L 39.4127,30.653 c 0.439,0.2071 0.9283,0.3023 1.4332,0.2333 l 1.3084,-0.1788 c 0.8481,-0.1159 1.5384,-0.6531 1.9362,-1.3814 0.8731,0.9888 2.1616,1.5414 3.5039,1.358 2.1952,-0.3 3.7303,-2.454 3.4115,-4.7866 l 7.705,-1.0531 c 0.0872,-0.4627 0.1068,-0.9492 0.0389,-1.4454 -0.3202,-2.3425 -2.3664,-3.9969 -4.5708,-3.6956 -0.92,0.1257 -1.7192,0.5748 -2.3177,1.2226 -0.8493,-1.2758 -2.3157,-2.0295 -3.8622,-1.8181 -0.5648,0.0772 -1.0837,0.2763 -1.5399,0.5676 -0.9375,-0.9642 -2.26,-1.4884 -3.6423,-1.2995 -2.0787,0.2841 -3.5999,2.0797 -3.731,4.2139 -0.2539,-0.0279 -0.5121,-0.0337 -0.7749,0.0022 -1.1479,0.1569 -2.0756,0.9134 -2.5449,1.9353"
       id="path7" />
    <path
       fill="none"
       stroke="#000000"
       stroke-linecap="round"
       stroke-linejoin="round"
       stroke-miterlimit="10"
       stroke-width="2"
       d="M 10.5032,45.0459 6.2707,44.464 C 4.7188,44.2506 3.6236,42.8063 3.8369,41.2544 L 5.1946,31.3785 C 5.408,29.8266 6.8523,28.7314 8.4042,28.9447 l 4.2325,0.5819"
       id="path8" />
    <polyline
       fill="none"
       stroke="#000000"
       stroke-linecap="round"
       stroke-linejoin="round"
       stroke-miterlimit="10"
       stroke-width="2"
       points="21.136,26.7699 13.7953,25.7607 10.2294,51.6989 30.6863,54.5112 32.6613,40.1453"
       id="polyline8" />
    <path
       fill="none"
       stroke="#000000"
       stroke-linecap="round"
       stroke-linejoin="round"
       stroke-miterlimit="10"
       stroke-width="2"
       d="m 33.291,34.25 c -0.5057,-0.2584 -0.8189,-0.8444 -0.7336,-1.4688 l 0.1542,-1.1281 c -0.439,0.2071 -0.9283,0.3023 -1.4332,0.2333 L 29.97,31.7076 c -0.8481,-0.1159 -1.5384,-0.6531 -1.9362,-1.3814 -0.8731,0.9888 -2.1616,1.5414 -3.5039,1.358 -2.1952,-0.3 -3.7303,-2.454 -3.4115,-4.7866 l -7.705,-1.0531 c -0.0872,-0.4627 -0.1068,-0.9492 -0.0389,-1.4454 0.3202,-2.3425 2.3664,-3.9969 4.5708,-3.6956 0.92,0.1257 1.7192,0.5748 2.3177,1.2226 0.8493,-1.2758 2.3157,-2.0295 3.8622,-1.8181 0.5648,0.0772 1.0837,0.2763 1.5399,0.5676 0.9375,-0.9642 2.26,-1.4884 3.6423,-1.2995 2.0787,0.2841 3.5999,2.0797 3.731,4.2139 0.2539,-0.0279 0.5121,-0.0337 0.7749,0.0022 1.8366,0.251 3.1097,2.0372 2.8429,3.9888 l -0.7729,5.6548 c -0.1063,0.7775 -0.7919,1.3319 -1.5236,1.2319 L 33.6945,34.3768 C 33.5505,34.357 33.415,34.3134 33.291,34.25"
       id="path9" />
  </g>
</svg>
