<?xml version="1.0" encoding="UTF-8" standalone="no"?>
<svg
   id="emoji"
   viewBox="0 0 66 37.0476"
   version="1.1"
   sodipodi:docname="1f375.svg"
   width="66"
   height="37.0476"
   xmlns:inkscape="http://www.inkscape.org/namespaces/inkscape"
   xmlns:sodipodi="http://sodipodi.sourceforge.net/DTD/sodipodi-0.dtd"
   xmlns="http://www.w3.org/2000/svg"
   xmlns:svg="http://www.w3.org/2000/svg">
  <defs
     id="defs2" />
  <sodipodi:namedview
     id="namedview2"
     pagecolor="#ffffff"
     bordercolor="#000000"
     borderopacity="0.25"
     inkscape:showpageshadow="2"
     inkscape:pageopacity="0.0"
     inkscape:pagecheckerboard="0"
     inkscape:deskcolor="#d1d1d1" />
  <g
     id="color"
     transform="translate(-3,-19.3161)">
    <path
       fill="#ffffff"
       d="M 19.9055,55.7995 H 52.0929 C 62.8891,49.3081 68,36.2917 68,20.7519 L 28.6342,20.3161 H 21.71 L 4,20.7519 c 0,15.5398 5.1109,28.5562 15.9055,35.0476 z"
       id="path1" />
    <rect
       x="18.323799"
       y="29.4186"
       width="14.019"
       height="17.5238"
       fill="#b1cc33"
       id="rect1" />
    <polygon
       fill="#5c9e31"
       points="23,46.9424 32.3429,46.9424 32,30 31,30 21,47 "
       id="polygon1" />
  </g>
  <g
     id="line"
     transform="translate(-3,-19.3161)">
    <path
       fill="none"
       stroke="#000000"
       stroke-linecap="round"
       stroke-linejoin="round"
       stroke-width="2"
       d="M 19.5,20.3161 H 4 C 4,35.8559 9.1109,48.8723 19.9055,55.3637 H 52.0929 C 62.8891,48.8723 68,35.8559 68,20.3161 H 31.5"
       id="path2" />
    <line
       x1="25.5"
       x2="25.333401"
       y1="20.5"
       y2="31.4186"
       fill="none"
       stroke="#000000"
       stroke-linecap="round"
       stroke-miterlimit="10"
       stroke-width="2"
       id="line2" />
    <rect
       x="18.323799"
       y="29.4186"
       width="14.019"
       height="17.5238"
       fill="none"
       stroke="#000000"
       stroke-linejoin="round"
       stroke-width="2"
       id="rect2" />
  </g>
</svg>
