<svg xmlns="http://www.w3.org/2000/svg" xmlns:svg="http://www.w3.org/2000/svg" id="emoji" width="42" height="64" version="1.1" viewBox="0 0 42 64"><g id="color" transform="translate(-15,-4)"><polygon id="polygon1" fill="#ea5a47" points="17 14 43.02 14 55 14 55 26 17 26"/><path id="path1" fill="#ea5a47" d="M 56,24 C 56,35.0457 47.0457,44 36,44 24.9543,44 16,35.0457 16,24"/><path id="path2" fill="#d22f27" d="M 55,24 V 14 h -7.5698 c 0.5966,6.3347 0.293,21.2038 -13.788,29.849 C 34.4169,43.9401 35.2009,44 36,44 47.0457,44 56,35.0457 56,24 Z"/></g><g id="line" transform="translate(-15,-4)"><line id="line2" x1="20" x2="52" y1="67" y2="67" fill="none" stroke="#000" stroke-linecap="round" stroke-linejoin="round" stroke-width="2"/><line id="line3" x1="36" x2="36" y1="44" y2="67" fill="none" stroke="#000" stroke-linecap="round" stroke-linejoin="round" stroke-width="2"/><path id="path3" fill="none" stroke="#000" stroke-linecap="round" stroke-linejoin="round" stroke-width="2" d="m 56,24 c 0,3.265 -0.7824,6.3473 -2.1699,9.0696 C 50.5236,39.557 43.7807,44 36,44 24.9543,44 16,35.0457 16,24"/><line id="line4" x1="16" x2="16" y1="5" y2="24" fill="none" stroke="#000" stroke-linecap="round" stroke-linejoin="round" stroke-width="2"/><line id="line5" x1="56" x2="56" y1="5" y2="24" fill="none" stroke="#000" stroke-linecap="round" stroke-linejoin="round" stroke-width="2"/><line id="line6" x1="16.539" x2="55.5" y1="14.5" y2="14.5" fill="none" stroke="#000" stroke-miterlimit="10" stroke-width="1.974"/></g></svg>