<svg xmlns="http://www.w3.org/2000/svg" xmlns:svg="http://www.w3.org/2000/svg" id="emoji" width="61.263" height="60.798" version="1.1" viewBox="0 0 61.263 60.798"><g id="color" transform="translate(-4.7374,-7)"><path id="path1" fill="#fff" stroke="none" d="m 65,66.64 c -1.3,0 -22,0.36 -32,0 C 34,52 36,37 41,24 l 1,-0.82 C 37.68,20.15 35.63,14.58 35.63,7 h 28.74 c 0,7.58 -2.05,13.15 -6.37,16.18 V 24 c 6,13 6,28 7,42.64 z"/><path id="path2" fill="#fff" stroke="none" stroke-linecap="round" stroke-linejoin="round" stroke-miterlimit="10" stroke-width="2" d="M 34.0002,66.6361 C 44,67 63.7002,66.6361 65,66.6361 64,52 64,37 58,24"/><path id="path3" fill="#fff" stroke="none" stroke-linecap="round" stroke-linejoin="round" stroke-miterlimit="10" stroke-width="2" d="M 37.5475,38.2484 C 38.6963,32.4357 40.1878,27.442 41.9258,23.5859 L 42.133,23.2121"/><path id="path4" fill="#fff" stroke="none" stroke-linecap="round" stroke-linejoin="round" stroke-miterlimit="10" stroke-width="2" d="m 37.5475,38.2484 c -0.4857,2.4575 -0.9102,5.0613 -1.2661,7.7875"/><path id="path5" fill="#fff" stroke="none" stroke-linecap="round" stroke-linejoin="round" stroke-miterlimit="10" stroke-width="2" d="m 18.0405,51 h 16.3297 c 0,6.9523 -2.2865,12.7757 -7.1166,15.6799 H 12.8533 C 8.0239,63.7757 5.7374,57.9523 5.7374,51 h 6.9345 z"/><path id="path6" fill="#fff" stroke="none" stroke-linecap="round" stroke-linejoin="round" stroke-miterlimit="10" stroke-width="2" d="m 64.3702,8 c 0,6.7783 -2.1735,12.4834 -6.7586,15.4563"/><path id="path7" fill="#fff" stroke="none" stroke-linecap="round" stroke-linejoin="round" stroke-miterlimit="10" stroke-width="2" d="M 41.9775,23.1016 C 37.747,20.0434 35.7374,14.5178 35.7374,8"/></g><g id="line" transform="translate(-4.7374,-7)"><path id="path8" fill="none" stroke="#000" stroke-linecap="round" stroke-linejoin="round" stroke-miterlimit="10" stroke-width="2" d="M 34.0002,66.6361 C 44,67 63.7002,66.6361 65,66.6361 64,52 64,37 58,24"/><path id="path9" fill="none" stroke="#000" stroke-linecap="round" stroke-linejoin="round" stroke-miterlimit="10" stroke-width="2" d="M 37.5475,38.2484 C 38.6963,32.4357 40.1878,27.442 41.9258,23.5859 L 42.133,23.2121"/><path id="path10" fill="none" stroke="#000" stroke-linecap="round" stroke-linejoin="round" stroke-miterlimit="10" stroke-width="2" d="m 37.5475,38.2484 c -0.4857,2.4575 -0.9102,5.0613 -1.2661,7.7875"/><path id="path11" fill="none" stroke="#000" stroke-linecap="round" stroke-linejoin="round" stroke-miterlimit="10" stroke-width="2" d="m 18.0405,51 h 16.3297 c 0,6.9523 -2.2865,12.7757 -7.1166,15.6799 H 12.8533 C 8.0239,63.7757 5.7374,57.9523 5.7374,51 h 6.9345 z"/><path id="path12" fill="none" stroke="#000" stroke-linecap="round" stroke-linejoin="round" stroke-miterlimit="10" stroke-width="2" d="m 64.3702,8 c 0,6.7783 -2.1735,12.4834 -6.7586,15.4563"/><path id="path13" fill="none" stroke="#000" stroke-linecap="round" stroke-linejoin="round" stroke-miterlimit="10" stroke-width="2" d="M 41.9775,23.1016 C 37.747,20.0434 35.7374,14.5178 35.7374,8"/></g></svg>