<svg xmlns="http://www.w3.org/2000/svg" xmlns:svg="http://www.w3.org/2000/svg" id="emoji" width="56.702" height="59.042" version="1.1" viewBox="0 0 56.702 59.042"><g id="color" transform="translate(-6.090489,-6.3671)"><polygon id="polygon1" fill="#f1b31c" stroke="none" points="51.319 45.319 29.789 54.28 8.26 63.24 17.22 41.711 26.181 20.181 38.75 32.75"/><polygon id="polygon2" fill="#fcea2b" stroke="none" points="16.391 42.539 7.09 64.409 40 35 25.692 20.669"/><polygon id="polygon3" fill="#ea5a47" stroke="none" points="20.755 58.598 12.958 50.801 15.224 45.285 26.286 56.347"/><polygon id="polygon4" fill="#d22f27" stroke="none" points="26.286 56.347 21.485 51.546 17.343 55.248 20.755 58.598"/><polygon id="polygon5" fill="#ea5a47" stroke="none" points="39.2 50.558 32.927 53.422 24.756 45.25 18.15 38.645 20.805 32.163 27.501 38.859"/><polygon id="polygon6" fill="#d22f27" stroke="none" points="39.2 50.558 31.362 42.72 26.537 47.031 32.927 53.422"/><ellipse id="ellipse6" cx="30.295" cy="14.458" fill="#8967aa" stroke="none" rx="2" ry="1.971"/><ellipse id="ellipse7" cx="60.295" cy="18.458" fill="#f1b31c" stroke="none" rx="2" ry="1.971"/><ellipse id="ellipse8" cx="57.295" cy="39.458" fill="#d22f27" stroke="none" rx="2" ry="1.971"/></g><g id="line" transform="translate(-6.090489,-6.3671)"><polyline id="polyline8" fill="none" stroke="#000" stroke-linecap="round" stroke-linejoin="round" stroke-miterlimit="10" stroke-width="2" points="50.663 45.639 50.831 45.808 28.961 55.109 7.09 64.41 16.391 42.539 25.692 20.669"/><polyline id="polyline9" fill="none" stroke="#000" stroke-linecap="round" stroke-linejoin="round" stroke-miterlimit="10" stroke-width="2" points="25.801 20.778 38.262 33.238 50.663 45.639"/><line id="line9" x1="25.692" x2="25.801" y1="20.669" y2="20.778" fill="none" stroke="#000" stroke-linecap="round" stroke-linejoin="round" stroke-miterlimit="10" stroke-width="2"/><path id="path9" fill="none" stroke="#000" stroke-linecap="round" stroke-linejoin="round" stroke-miterlimit="10" stroke-width="2" d="m 46.4905,7.3671 c 0.2347,0.4487 0.4027,0.943 0.4897,1.473 0.451,2.7473 -1.447,5.4141 -4.2392,5.9565"/><path id="path10" fill="none" stroke="#000" stroke-linecap="round" stroke-linejoin="round" stroke-miterlimit="10" stroke-width="2" d="m 42.9327,14.7763 c -0.5049,0.0384 -1.0133,0.1573 -1.509,0.364 -2.5697,1.0713 -3.828,4.093 -2.8105,6.7492"/><path id="path11" fill="none" stroke="#000" stroke-linecap="round" stroke-linejoin="round" stroke-miterlimit="10" stroke-width="2" d="m 61.7928,26.7168 c -0.0987,0.4967 -0.2778,0.987 -0.5425,1.4544 -1.372,2.4225 -4.5229,3.309 -7.0378,1.98"/><path id="path12" fill="none" stroke="#000" stroke-linecap="round" stroke-linejoin="round" stroke-miterlimit="10" stroke-width="2" d="m 54.3745,30.2558 c -0.4173,-0.2868 -0.8878,-0.513 -1.4036,-0.663 -2.6733,-0.7775 -5.5486,0.7867 -6.4223,3.4936"/></g></svg>