<?xml version="1.0" encoding="UTF-8" standalone="no"?>
<svg
   id="emoji"
   viewBox="0 0 52 64"
   version="1.1"
   sodipodi:docname="1f38f.svg"
   width="52"
   height="64"
   xmlns:inkscape="http://www.inkscape.org/namespaces/inkscape"
   xmlns:sodipodi="http://sodipodi.sourceforge.net/DTD/sodipodi-0.dtd"
   xmlns="http://www.w3.org/2000/svg"
   xmlns:svg="http://www.w3.org/2000/svg">
  <defs
     id="defs7" />
  <sodipodi:namedview
     id="namedview7"
     pagecolor="#ffffff"
     bordercolor="#000000"
     borderopacity="0.25"
     inkscape:showpageshadow="2"
     inkscape:pageopacity="0.0"
     inkscape:pagecheckerboard="0"
     inkscape:deskcolor="#d1d1d1" />
  <g
     id="color"
     transform="translate(-15,-4)">
    <path
       fill="#61b2e4"
       d="M 58.6923,19.1538 C 61.6154,19.1538 66,16.6923 66,16.6923 v 9.8462 c 0,0 -2.9231,-4.9231 -7.3077,-2.4616 C 54.3077,26.5384 47,26.5385 47,26.5385 L 45.5385,29 H 38.2308 L 36.7692,26.5385 A 20.7985,20.7985 0 0 1 28,24.0769 v -3.6923 c 0,0 4.3846,-3.5555 8.7692,-3.5555 v -2.4616 c 0,0 9.0433,-3 17.5385,1.094 v 2.4616 a 7.0984,7.0984 0 0 0 4.3846,1.2307 z"
       id="path1" />
    <path
       fill="#d22f27"
       d="M 56.6923,40.1538 C 59.6154,40.1538 64,37.6923 64,37.6923 v 9.8462 c 0,0 -2.9231,-4.9231 -7.3077,-2.4616 C 52.3077,47.5384 45,47.5385 45,47.5385 L 43.5385,50 H 36.2308 L 34.7692,47.5385 A 20.7985,20.7985 0 0 1 26,45.0769 v -3.6923 c 0,0 4.3846,-3.5555 8.7692,-3.5555 v -2.4616 c 0,0 9.0433,-3 17.5385,1.094 v 2.4616 a 7.0984,7.0984 0 0 0 4.3846,1.2307 z"
       id="path2" />
  </g>
  <g
     id="line"
     transform="translate(-15,-4)">
    <line
       x1="18"
       x2="18"
       y1="67"
       y2="8"
       fill="none"
       stroke="#000000"
       stroke-linecap="round"
       stroke-linejoin="round"
       stroke-width="2"
       id="line2" />
    <circle
       cx="18"
       cy="7"
       r="1"
       stroke="#000000"
       stroke-linecap="round"
       stroke-linejoin="round"
       stroke-width="2"
       id="circle2" />
    <circle
       cx="18"
       cy="7"
       r="2"
       stroke="#000000"
       stroke-linecap="round"
       stroke-linejoin="round"
       stroke-width="2"
       id="circle3" />
    <circle
       cx="36"
       cy="21.3675"
       r="1"
       stroke="#000000"
       stroke-linecap="round"
       stroke-linejoin="round"
       stroke-width="2"
       id="circle4" />
    <path
       fill="none"
       stroke="#000000"
       stroke-linecap="round"
       stroke-linejoin="round"
       stroke-width="2"
       d="m 42,20 c 0,0 3,0 4,2"
       id="path4" />
    <circle
       cx="34"
       cy="42.3675"
       r="1"
       stroke="#000000"
       stroke-linecap="round"
       stroke-linejoin="round"
       stroke-width="2"
       id="circle5" />
    <path
       fill="none"
       stroke="#000000"
       stroke-linecap="round"
       stroke-linejoin="round"
       stroke-width="2"
       d="m 40,41 c 0,0 3,0 4,2"
       id="path5" />
    <polyline
       fill="none"
       stroke="#000000"
       stroke-linecap="round"
       stroke-linejoin="round"
       stroke-width="2"
       points="28 20.385 18 22 28 24.077"
       id="polyline5" />
    <polyline
       fill="none"
       stroke="#000000"
       stroke-linecap="round"
       stroke-linejoin="round"
       stroke-width="2"
       points="26 41.385 18 43 26 45.077"
       id="polyline6" />
    <path
       fill="none"
       stroke="#000000"
       stroke-linecap="round"
       stroke-linejoin="round"
       stroke-width="2"
       d="M 58.6923,19.1538 C 61.6154,19.1538 66,16.6923 66,16.6923 v 9.8462 c 0,0 -2.9231,-4.9231 -7.3077,-2.4616 C 54.3077,26.5384 47,26.5385 47,26.5385 L 45.5385,29 H 38.2308 L 36.7692,26.5385 A 20.7985,20.7985 0 0 1 28,24.0769 v -3.6923 c 0,0 4.3846,-3.5555 8.7692,-3.5555 v -2.4616 c 0,0 9.0433,-3 17.5385,1.094 v 2.4616 a 7.0984,7.0984 0 0 0 4.3846,1.2307 z"
       id="path6" />
    <path
       fill="none"
       stroke="#000000"
       stroke-linecap="round"
       stroke-linejoin="round"
       stroke-width="2"
       d="M 56.6923,40.1538 C 59.6154,40.1538 64,37.6923 64,37.6923 v 9.8462 c 0,0 -2.9231,-4.9231 -7.3077,-2.4616 C 52.3077,47.5384 45,47.5385 45,47.5385 L 43.5385,50 H 36.2308 L 34.7692,47.5385 A 20.7985,20.7985 0 0 1 26,45.0769 v -3.6923 c 0,0 4.3846,-3.5555 8.7692,-3.5555 v -2.4616 c 0,0 9.0433,-3 17.5385,1.094 v 2.4616 a 7.0984,7.0984 0 0 0 4.3846,1.2307 z"
       id="path7" />
  </g>
</svg>
