<?xml version="1.0" encoding="UTF-8" standalone="no"?>
<svg
   id="emoji"
   viewBox="0 0 51.082111 64.526398"
   version="1.1"
   sodipodi:docname="1f38b.svg"
   width="51.082111"
   height="64.526398"
   xmlns:inkscape="http://www.inkscape.org/namespaces/inkscape"
   xmlns:sodipodi="http://sodipodi.sourceforge.net/DTD/sodipodi-0.dtd"
   xmlns="http://www.w3.org/2000/svg"
   xmlns:svg="http://www.w3.org/2000/svg">
  <defs
     id="defs16" />
  <sodipodi:namedview
     id="namedview16"
     pagecolor="#ffffff"
     bordercolor="#000000"
     borderopacity="0.25"
     inkscape:showpageshadow="2"
     inkscape:pageopacity="0.0"
     inkscape:pagecheckerboard="0"
     inkscape:deskcolor="#d1d1d1" />
  <g
     id="color"
     transform="translate(-11,-3.505)">
    <path
       fill="#b1cc33"
       d="m 57.6963,32.9388 c -0.0972,0 -0.1942,-0.0187 -0.2886,-0.056 -0.58,-0.2286 -14.0759,-5.6686 -21.5575,-17.85 -6.8325,3.0833 -11.5895,10.2596 -11.6642,10.375 -0.3334,0.5119 -0.935,0.5901 -1.3459,0.1738 -0.41,-0.4163 -0.4717,-1.1685 -0.1392,-1.6804 0.1298,-0.1982 13.1054,-19.7577 27.7987,-9.8503 7.8693,5.3059 8.1448,17.1677 8.1532,17.6704 0.0056,0.3848 -0.1372,0.7497 -0.3839,0.9795 -0.1673,0.1565 -0.369,0.238 -0.5726,0.238 z"
       id="path1" />
    <path
       fill="#5c9e31"
       d="m 23.9844,25.9945 c 1.9157,-2.992 5.2798,-7.3798 9.791,-9.9801 0.6218,-0.3907 1.2601,-0.761 1.9261,-1.083 0.0206,0.0323 0.0425,0.0629 0.0632,0.0952 3.6437,-1.5269 7.9114,-1.7803 12.6838,0.6358 7.7149,3.9057 9.912,14.0599 10.3039,16.2592 0.0769,-0.1857 0.1241,-0.3896 0.1162,-0.606 C 58.8491,30.8073 58.3105,18.8126 50.3255,13.617 35.416,3.9156 22.8774,23.9885 22.752,24.1919 c -0.3211,0.5251 -0.2427,1.2848 0.1765,1.697 0.3152,0.3093 0.7316,0.3343 1.0559,0.1056 z"
       id="path2" />
    <path
       fill="#b1cc33"
       d="M 28.7007,4.534 H 15.5409 c -1.5335,0 -2.6953,0.5828 -2.3725,1.2062 1.0379,2.0035 1.6823,4.784 1.6823,7.8618 0,3.7561 -0.9596,8.0768 -2.4233,10.0755 v 2.0151 c 1.4637,1.9986 2.4233,6.3192 2.4233,10.0755 0,3.756 -0.9596,8.0768 -2.4233,10.0755 v 2.0151 c 1.4637,1.9986 2.4233,6.3192 2.4233,10.0755 0,3.0779 -0.6444,5.8583 -1.6823,7.8618 -0.3231,0.6233 0.839,1.2062 2.3725,1.2062 h 13.1595 c 1.5335,0 2.6953,-0.5828 2.3725,-1.2062 -1.0379,-2.0035 -1.6823,-4.7839 -1.6823,-7.8618 0,-3.7561 0.9596,-8.0769 2.4233,-10.0755 v -2.0151 c -1.4637,-1.9987 -2.4233,-6.3194 -2.4233,-10.0755 0,-3.7561 0.9596,-8.0769 2.4233,-10.0755 v -2.0151 c -1.4637,-1.9987 -2.4233,-6.3194 -2.4233,-10.0755 0,-3.0778 0.6444,-5.8583 1.6823,-7.8618 C 31.396,5.1168 30.2339,4.534 28.7007,4.534 Z"
       id="path3" />
    <path
       fill="#5c9e31"
       d="m 22.8988,65.7955 c 1.3567,-2.0035 2.1991,-4.784 2.1991,-7.8618 0,-3.7561 -1.2543,-7.0694 -3.1676,-9.068 v -4.0301 c 1.9133,-1.9987 3.1676,-5.3118 3.1676,-9.068 0,-3.7562 -1.2543,-7.0693 -3.1676,-9.0679 v -4.0301 c 1.9133,-1.9987 3.1676,-5.3118 3.1676,-9.068 0,-3.0779 -0.8423,-5.8583 -2.1991,-7.8618 C 22.4768,5.1168 23.9954,4.534 26,4.534 h -9.5028 c -2.0046,0 -3.5232,0.5828 -3.1012,1.2062 1.3571,2.0035 2.1991,4.7839 2.1991,7.8618 0,3.7561 -1.2543,8.0768 -3.1676,10.0755 v 2.0151 c 1.9133,1.9986 3.1676,6.3192 3.1676,10.0755 0,3.756 -1.2543,8.0768 -3.1676,10.0755 v 2.0151 c 1.9133,1.9986 3.1676,6.3192 3.1676,10.0755 0,3.0778 -0.8423,5.8583 -2.1991,7.8618 -0.4219,0.6232 1.0967,1.2062 3.1012,1.2062 H 26 c -2.0046,-5e-4 -3.5232,-0.5833 -3.1012,-1.2067 z"
       id="path4" />
    <path
       fill="#ea5a47"
       d="m 40.445,27.9895 -5.4208,2.6931 c -0.6447,0.3203 -0.978,1.0867 -0.7746,1.8045 1.2382,4.368 5.9416,19.1975 15.1459,28.9456 0.5127,0.5431 1.346,0.5627 1.9107,0.0672 l 9.2458,-8.1146 c 0.7049,-0.6187 0.7032,-1.763 -0.0138,-2.3489 C 57.413,48.4832 49.6648,41.3885 42.2511,28.5692 41.8759,27.9204 41.1009,27.6636 40.445,27.9895 Z"
       id="path5" />
    <path
       fill="#d22f27"
       d="m 39.497,28.4598 -4.2734,2.123 c -0.6447,0.3203 -0.978,1.0867 -0.7746,1.8045 1.2382,4.368 5.9416,19.1975 15.1459,28.9456 0.5127,0.5431 1.346,0.5627 1.9107,0.0672 L 54.073,59.1468 C 45.2467,48.7822 40.7485,33.3158 39.497,28.4598 Z"
       id="path6" />
    <path
       fill="#5c9e31"
       d="M 31.5232,50.2071 H 12.4641 C 11.6588,50.2071 11,49.5482 11,48.743 v -4.294 c 0,-0.8052 0.6588,-1.4641 1.4641,-1.4641 h 19.0591 c 0.8053,0 1.4641,0.6588 1.4641,1.4641 v 4.2939 c 0,0.8053 -0.6588,1.4642 -1.4641,1.4642 z"
       id="path7" />
    <path
       fill="#5c9e31"
       d="M 31.5232,28.2071 H 12.4641 C 11.6588,28.2071 11,27.5482 11,26.743 v -4.294 c 0,-0.8052 0.6588,-1.4641 1.4641,-1.4641 h 19.0591 c 0.8053,0 1.4641,0.6588 1.4641,1.4641 v 4.2939 c 0,0.8053 -0.6588,1.4642 -1.4641,1.4642 z"
       id="path8" />
    <path
       fill="#b1cc33"
       d="M 31.5232,20.9849 H 31.316 L 16.892,28.207 h 14.6311 c 0.8053,0 1.4641,-0.6588 1.4641,-1.4641 V 22.449 c 10e-5,-0.8053 -0.6587,-1.4641 -1.464,-1.4641 z"
       id="path9" />
    <path
       fill="#b1cc33"
       d="M 31.5232,42.9849 H 31.316 L 16.892,50.207 h 14.6311 c 0.8053,0 1.4641,-0.6588 1.4641,-1.4641 V 44.449 c 10e-5,-0.8053 -0.6587,-1.4641 -1.464,-1.4641 z"
       id="path10" />
  </g>
  <g
     id="hair"
     transform="translate(-11,-3.505)" />
  <g
     id="skin"
     transform="translate(-11,-3.505)" />
  <g
     id="skin-shadow"
     transform="translate(-11,-3.505)" />
  <g
     id="line"
     transform="translate(-11,-3.505)">
    <path
       fill="none"
       stroke="#000000"
       stroke-linecap="round"
       stroke-linejoin="round"
       stroke-miterlimit="10"
       stroke-width="2"
       d="m 41,12 c 3.3439,-0.5011 6.7458,-0.4799 10.4994,2.0511 7.8693,5.3059 8.1448,17.1677 8.1532,17.6704 0.0056,0.3848 -0.1372,0.7497 -0.3839,0.9795 -0.167,0.1563 -0.3688,0.2379 -0.5724,0.2379 -0.0972,0 -0.1942,-0.0187 -0.2886,-0.056 C 57.8743,32.6727 46.6569,28.2104 39,18"
       id="path11" />
    <path
       fill="none"
       stroke="#000000"
       stroke-linecap="round"
       stroke-linejoin="round"
       stroke-miterlimit="10"
       stroke-width="2"
       d="m 40.445,27.9895 -5.4208,2.6931 c -0.6447,0.3203 -0.978,1.0867 -0.7746,1.8045 1.2382,4.368 5.9416,19.1975 15.1459,28.9456 0.5127,0.5431 1.346,0.5627 1.9107,0.0672 l 9.2458,-8.1146 c 0.7049,-0.6187 0.7032,-1.763 -0.0138,-2.3489 C 57.413,48.4832 49.6648,41.3885 42.2511,28.5692 41.8759,27.9204 41.1009,27.6636 40.445,27.9895 Z"
       id="path12" />
    <path
       d="M 15.9497,13.5739 C 15.9629,10.6442 15.418,7.8674 14.4092,5.6891 14.6709,5.5949 15.0957,5.4918 15.6763,5.505 L 28.836,5.5636 c 0.5742,0.0024 1.0034,0.0991 1.2646,0.1953 -1.0283,2.1694 -1.5977,4.9414 -1.6108,7.8711 -0.0059,1.3179 0.103,2.7412 0.3154,4.1152 0.1804,1.1668 0.4319,2.2573 0.733,3.2396 H 31.64 c -0.3561,-1.0208 -0.6553,-2.2333 -0.8583,-3.5453 -0.1968,-1.2715 -0.2974,-2.5859 -0.292,-3.8008 0.0127,-2.8184 0.582,-5.4443 1.603,-7.394 C 32.3339,5.7843 32.3183,5.2633 32.0488,4.8155 31.498,3.9005 30.0327,3.5689 28.8447,3.5635 L 15.6855,3.505 c -1.21,0.0195 -2.6558,0.3125 -3.2153,1.2227 -0.2734,0.4453 -0.2944,0.9658 -0.0576,1.4287 1.0039,1.959 1.5498,4.5903 1.5371,7.4087 -0.0114,2.6023 -0.5109,5.3911 -1.2535,7.4198 h 2.1182 c 0.6929,-2.1552 1.1239,-4.818 1.1353,-7.411 z"
       id="path13" />
    <path
       d="m 15.8506,35.7399 c 0.0116,-2.53 -0.4008,-5.3115 -1.1029,-7.5328 H 12.637 c 0.0374,0.1025 0.0764,0.1989 0.1125,0.3057 0.7007,2.0723 1.1123,4.7705 1.1011,7.2183 -0.0111,2.5326 -0.4857,5.2396 -1.1954,7.2538 h 2.1177 c 0.6606,-2.1242 1.0666,-4.7207 1.0777,-7.245 z"
       id="path14" />
    <path
       d="m 30.3906,35.8048 c 0.0118,-2.6768 0.5377,-5.5574 1.316,-7.5977 h -2.119 c -0.728,2.1857 -1.1853,4.9222 -1.197,7.5889 -0.0113,2.4971 0.362,5.0714 0.9913,7.1888 h 2.1103 c -0.6751,-2.0117 -1.1129,-4.6825 -1.1016,-7.18 z"
       id="path15" />
    <path
       d="m 28.5249,54.6486 5e-4,10e-5 c -0.1509,1.1279 -0.2295,2.2431 -0.2339,3.3124 -0.0132,2.9307 0.5317,5.708 1.5405,7.8857 -0.2617,0.0938 -0.6904,0.1797 -1.2671,0.1846 L 15.4057,65.9718 c -0.5742,-0.0029 -1.0039,-0.0996 -1.2651,-0.1953 1.0283,-2.1699 1.5977,-4.9414 1.6108,-7.8711 0.0122,-2.7077 -0.4344,-5.4905 -1.1622,-7.6984 h -2.1128 c 0.7759,2.0511 1.2873,4.9786 1.275,7.6886 -0.0127,2.8193 -0.582,5.4453 -1.603,7.3945 -0.2412,0.4609 -0.2256,0.9814 0.0439,1.4297 0.5508,0.915 2.0166,1.2471 3.2046,1.252 l 13.1592,0.0596 c 0.0098,0 0.019,0 0.0288,0 1.1821,0 2.6309,-0.3203 3.186,-1.2236 0.2734,-0.4443 0.2944,-0.9658 0.0576,-1.4287 -1.0039,-1.959 -1.5498,-4.5898 -1.5371,-7.4092 0.0044,-0.9844 0.0771,-2.0127 0.2163,-3.0557 10e-5,-8e-4 -2e-4,-0.0014 -10e-5,-0.0022 0.2372,-1.7746 0.6535,-3.4259 1.1619,-4.705 H 29.537 c -0.4419,1.2899 -0.7925,2.7973 -1.0121,4.4416 z"
       id="path16" />
  </g>
</svg>
