<?xml version="1.0" encoding="UTF-8" standalone="no"?>
<svg
   id="emoji"
   viewBox="0 0 48.047764 52.700001"
   version="1.1"
   sodipodi:docname="1f385-1f3fd.svg"
   width="48.047764"
   height="52.700001"
   xmlns:inkscape="http://www.inkscape.org/namespaces/inkscape"
   xmlns:sodipodi="http://sodipodi.sourceforge.net/DTD/sodipodi-0.dtd"
   xmlns="http://www.w3.org/2000/svg"
   xmlns:svg="http://www.w3.org/2000/svg">
  <defs
     id="defs28" />
  <sodipodi:namedview
     id="namedview28"
     pagecolor="#ffffff"
     bordercolor="#000000"
     borderopacity="0.25"
     inkscape:showpageshadow="2"
     inkscape:pageopacity="0.0"
     inkscape:pagecheckerboard="0"
     inkscape:deskcolor="#d1d1d1" />
  <g
     id="color"
     transform="translate(-11.6,-8.3)">
    <ellipse
       cx="35.921001"
       cy="37.299999"
       rx="11.3137"
       ry="5.6568999"
       fill="#ffffff"
       id="ellipse1" />
    <path
       fill="#ffffff"
       d="m 46.9415,35.7854 c 0.5998,0.5178 0.9795,1.2837 0.9795,2.1382 0,1.5594 -1.2643,2.8236 -2.8235,2.8236 0,1.5593 -1.2643,2.8235 -2.8236,2.8235 -0.533,0 -1.026,-0.1564 -1.4514,-0.4131 0.1258,0.8535 -0.1304,1.7527 -0.7874,2.4096 -1.1026,1.1027 -2.8904,1.1027 -3.9929,0 -0.0461,-0.046 -0.0785,-0.0994 -0.1205,-0.1475 -0.5177,0.5924 -1.2698,0.9745 -2.1183,0.9745 -1.5593,0 -2.8236,-1.2642 -2.8236,-2.8235 0,-0.1419 0.0216,-0.278 0.0417,-0.4143 -0.4256,0.2575 -0.9195,0.4143 -1.4534,0.4143 -1.5593,0 -2.8236,-1.2642 -2.8236,-2.8235 -0.7225,0 -1.4451,-0.2758 -1.9964,-0.8271 -1.1028,-1.1026 -1.1028,-2.8904 0,-3.993"
       id="path1" />
    <path
       fill="#ea5a47"
       d="M 25.0245,20.3199 C 25.5304,13.6761 30.921,9.3 35.921,9.3 c 6,0 9.0025,1.39 10.8816,2.3793 10.4928,5.524 8.7806,17.3451 7.9726,22.6407 0.0496,-0.0038 0.0952,-0.02 0.1458,-0.02 0.7418,0 1.3818,0.4086 1.7272,1.0084 0.6921,-9e-4 1.366,0.3491 1.7369,0.9916 0.3708,0.6424 0.3372,1.4011 -0.0098,2 0.347,0.5989 0.3806,1.3575 0.0098,2 -0.3709,0.6424 -1.0447,0.9924 -1.7368,0.9915 -0.3454,0.5999 -0.9855,1.0085 -1.7273,1.0085 -0.7418,0 -1.382,-0.4086 -1.7273,-1.0085 -0.6922,9e-4 -1.366,-0.3491 -1.7368,-0.9915 -0.3709,-0.6425 -0.3372,-1.4011 0.0097,-2 -0.3469,-0.5989 -0.3806,-1.3576 -0.0097,-2 0.0542,-0.094 0.127,-0.1681 0.1933,-0.2494 l -1.0313,-0.4833 z"
       id="path2" />
    <path
       fill="#d22f27"
       d="M 25.3932,20.6669 44.921,20.3 c 0,0 4,-3 -1,-10 14,4 11.0735,22.8005 11.0837,22.9368 -0.0188,-0.0256 -0.0771,0.0845 -0.2295,1.0832 0.0496,-0.0038 0.0952,-0.02 0.1458,-0.02 l -3.4641,2 c 0.0542,-0.094 0.127,-0.1681 0.1933,-0.2494 l -1.0597,0.5655 z"
       id="path3" />
    <path
       fill="#d22f27"
       d="m 55.0047,33.2368 c 0.0127,0.0174 0.0071,0.0947 0,0 z"
       id="path4" />
    <path
       fill="#ffffff"
       d="m 50.921,38.3 c 0,2.2091 1.7908,4 4,4 2.2091,0 4,-1.7909 4,-4 0,-2.2091 -1.7909,-4 -4,-4 -2,1 -2,1 -3.2961,1.7331 -0.444,0.6443 -0.7039,1.4253 -0.7039,2.2669 z"
       id="path5" />
    <path
       fill="#6a462f"
       d="M 16.0537,58.5598 C 13.9381,56.7262 12.6,54.0194 12.6,51.0001 c 0,-4.503 3.9885,-7.646 7.6297,-8.6534 1.3738,-0.38 2.8394,0.0319 3.7804,1.1026 C 26.2083,45.9505 30.0567,51.4447 28.6,58"
       id="path6" />
    <path
       fill="#ffffff"
       d="M 46.7431,20.3 H 25.0989 c -0.6506,0 -1.1779,0.4175 -1.1779,0.9325 v 3.135 c 0,0.515 0.5273,0.9325 1.1779,0.9325 h 0.2961 21.3481 c 0.6505,0 1.1779,-0.4175 1.1779,-0.9325 v -3.135 c 0,-0.515 -0.5274,-0.9325 -1.1779,-0.9325 z"
       id="path7" />
    <path
       fill="#ea5a47"
       d="m 54.796,60.9 c 0,0 2,-13.9 -10,-13.9 -3.1919,2.1279 -5.9264,3.5984 -9,3.5921 h 0.125 c -3.0736,0.0063 -5.8082,-1.4642 -9,-3.5921 -12,0 -10,13.9 -10,13.9"
       id="path8" />
    <path
       fill="#d22f27"
       d="m 44.796,47 c -3.1699,2.1133 -4.875,3 -8.9375,3.5886 C 48.921,51 48.921,56.9 49.6831,60.9 c 4.2379,0 5.1129,0 5.1129,0 0,0 2,-13.9 -10,-13.9 z"
       id="path9" />
    <path
       fill="#ffffff"
       d="M 38.921,61 V 55.0905 C 44.4286,54.7446 48.4403,52.2961 49.8951,48.0646 48.5656,47.4055 46.9,47 44.796,47 41.6261,49.1133 38.9065,50.5746 35.8585,50.5886 32.8105,50.5746 30.0909,49.1133 26.921,47 c -2.0474,0 -3.6792,0.3846 -4.991,1.0124 2.4717,4.1207 6.142,6.3653 10.991,6.9589 V 61"
       id="path10" />
    <path
       fill="#a57939"
       d="m 12.6,51.0001 c 0,-4.503 3.9885,-7.646 7.6297,-8.6534 1.3738,-0.38 2.8394,0.0319 3.7804,1.1026 2.1982,2.5012 6.0466,7.9954 4.5899,14.5507 0,0 -9,-9 -11,-9"
       id="path11" />
  </g>
  <g
     id="hair"
     transform="translate(-11.6,-8.3)" />
  <g
     id="skin"
     transform="translate(-11.6,-8.3)">
    <path
       fill="#c19a65"
       d="m 46.5401,25.3207 c 0.4651,1.5491 0.7195,3.2271 0.7195,4.9793 0,1.7891 -0.3386,5 -0.7492,5.077 C 40.921,32.3 33.7952,30.6251 25.3581,35.4625 24.921,34.3 24.5824,32.1215 24.5824,30.3 c 0,-1.4757 0.1804,-2.8987 0.5152,-4.2364"
       id="path12" />
  </g>
  <g
     id="skin-shadow"
     transform="translate(-11.6,-8.3)" />
  <g
     id="line"
     transform="translate(-11.6,-8.3)">
    <path
       fill="none"
       stroke="#000000"
       stroke-linecap="round"
       stroke-linejoin="round"
       stroke-miterlimit="10"
       stroke-width="2"
       d="m 46.9415,35.7854 c 0.5998,0.5178 0.9795,1.2837 0.9795,2.1382 0,1.5594 -1.2643,2.8236 -2.8235,2.8236 0,1.5593 -1.2643,2.8235 -2.8236,2.8235 -0.533,0 -1.026,-0.1564 -1.4514,-0.4131 0.1258,0.8535 -0.1304,1.7527 -0.7874,2.4096 -1.1026,1.1027 -2.8904,1.1027 -3.9929,0 -0.0461,-0.046 -0.0785,-0.0994 -0.1205,-0.1475 -0.5177,0.5924 -1.2698,0.9745 -2.1183,0.9745 -1.5593,0 -2.8236,-1.2642 -2.8236,-2.8235 0,-0.1419 0.0216,-0.278 0.0417,-0.4143 -0.4256,0.2575 -0.9195,0.4143 -1.4534,0.4143 -1.5593,0 -2.8236,-1.2642 -2.8236,-2.8235 -0.7225,0 -1.4451,-0.2758 -1.9964,-0.8271 -1.1028,-1.1026 -1.1028,-2.8904 0,-3.993"
       id="path13" />
    <path
       fill="none"
       stroke="#000000"
       stroke-linecap="round"
       stroke-linejoin="round"
       stroke-miterlimit="10"
       stroke-width="2"
       d="M 16.0537,58.5598 C 13.9381,56.7262 12.6,54.0194 12.6,51.0001 c 0,-4.503 3.9885,-7.646 7.6297,-8.6534 1.3738,-0.38 2.8394,0.0319 3.7804,1.1026 C 26.2083,45.9505 30.0567,51.4447 28.6,58"
       id="path14" />
    <path
       fill="none"
       stroke="#000000"
       stroke-linecap="round"
       stroke-linejoin="round"
       stroke-miterlimit="10"
       stroke-width="2"
       d="m 46.5401,25.3207 c 0.4651,1.5491 0.7195,3.2271 0.7195,4.9793 0,1.7891 -0.3386,5 -0.7492,5.077 C 40.921,32.3 33.7952,30.6251 25.3581,35.4625 24.921,34.3 24.5824,32.1215 24.5824,30.3 c 0,-1.4757 0.1804,-2.8987 0.5152,-4.2364"
       id="path15" />
    <path
       d="m 29.9208,28.9392 c 0,1.1045 0.8965,2 2,2 1.1035,0 2,-0.8955 2,-2 0,-1.1035 -0.8965,-2 -2,-2 -1.1035,0 -2,0.8965 -2,2"
       id="path16" />
    <path
       d="m 37.9208,28.9392 c 0,1.1045 0.8965,2 2,2 1.1035,0 2,-0.8955 2,-2 0,-1.1035 -0.8965,-2 -2,-2 -1.1035,0 -2,0.8965 -2,2"
       id="path17" />
    <path
       d="m 35.921,38.9416 c 1.1518,0 2.3037,-0.2861 3.4472,-0.8579 0.4942,-0.2471 0.6944,-0.8477 0.4473,-1.3418 -0.2466,-0.4937 -0.8462,-0.6943 -1.3418,-0.4473 -1.7178,0.8594 -3.3877,0.8594 -5.1055,0 -0.4946,-0.247 -1.0947,-0.0464 -1.3417,0.4473 -0.2471,0.4941 -0.0469,1.0947 0.4472,1.3418 1.1436,0.5718 2.2954,0.8579 3.4473,0.8579 z"
       id="path18" />
    <path
       fill="none"
       stroke="#000000"
       stroke-linecap="round"
       stroke-linejoin="round"
       stroke-miterlimit="10"
       stroke-width="2"
       d="m 46.8175,20.3199 c -0.0737,-0.9671 -0.1899,-1.8861 -0.359,-2.7506"
       id="path19" />
    <path
       fill="none"
       stroke="#000000"
       stroke-linecap="round"
       stroke-linejoin="round"
       stroke-miterlimit="10"
       stroke-width="2"
       d="M 46.7431,20.3 H 25.0989 c -0.6506,0 -1.1779,0.4175 -1.1779,0.9325 v 3.135 c 0,0.515 0.5273,0.9325 1.1779,0.9325 h 0.2961 21.3481 c 0.6505,0 1.1779,-0.4175 1.1779,-0.9325 v -3.135 c 0,-0.515 -0.5274,-0.9325 -1.1779,-0.9325 z"
       id="path20" />
    <path
       fill="none"
       stroke="#000000"
       stroke-linecap="round"
       stroke-linejoin="round"
       stroke-miterlimit="10"
       stroke-width="2"
       d="M 25.0245,20.3199 C 25.5304,13.6761 30.921,9.3 35.921,9.3 c 6,0 9.0025,1.39 10.8816,2.3793 10.4928,5.524 8.7806,17.3451 7.9726,22.6407 0.0496,-0.0038 0.0952,-0.02 0.1458,-0.02 0.7418,0 1.3818,0.4086 1.7272,1.0084 0.6921,-9e-4 1.366,0.3491 1.7369,0.9916 0.3708,0.6424 0.3372,1.4011 -0.0098,2 0.347,0.5989 0.3806,1.3575 0.0098,2 -0.3709,0.6424 -1.0447,0.9924 -1.7368,0.9915 -0.3454,0.5999 -0.9855,1.0085 -1.7273,1.0085 -0.7418,0 -1.382,-0.4086 -1.7273,-1.0085 -0.6922,9e-4 -1.366,-0.3491 -1.7368,-0.9915 -0.3709,-0.6425 -0.3372,-1.4011 0.0097,-2 -0.3469,-0.5989 -0.3806,-1.3576 -0.0097,-2 0.0542,-0.094 0.127,-0.1681 0.1933,-0.2494 l -1.0313,-0.4833"
       id="path21" />
    <path
       fill="none"
       stroke="#000000"
       stroke-linecap="round"
       stroke-linejoin="round"
       stroke-miterlimit="10"
       stroke-width="2"
       d="M 16.0537,58.5598 C 13.9381,56.7262 12.6,54.0194 12.6,51.0001 c 0,-4.503 3.9885,-7.646 7.6297,-8.6534 1.3738,-0.38 2.8394,0.0319 3.7804,1.1026 2.1982,2.5012 6.0466,7.9954 4.5899,14.5507 0,0 -9,-9 -11,-9"
       id="path22" />
    <path
       fill="none"
       stroke="#000000"
       stroke-linecap="round"
       stroke-linejoin="round"
       stroke-miterlimit="10"
       stroke-width="2"
       d="M 25.0245,20.3199 C 25.5304,13.6761 30.921,9.3 35.921,9.3 c 6,0 9.0025,1.39 10.8816,2.3793 10.4928,5.524 8.7806,17.3451 7.9726,22.6407 0.0496,-0.0038 0.0952,-0.02 0.1458,-0.02 0.7418,0 1.3818,0.4086 1.7272,1.0084 0.6921,-9e-4 1.366,0.3491 1.7369,0.9916 0.3708,0.6424 0.3372,1.4011 -0.0098,2 0.347,0.5989 0.3806,1.3575 0.0098,2 -0.3709,0.6424 -1.0447,0.9924 -1.7368,0.9915 -0.3454,0.5999 -0.9855,1.0085 -1.7273,1.0085 -0.7418,0 -1.382,-0.4086 -1.7273,-1.0085 -0.6922,9e-4 -1.366,-0.3491 -1.7368,-0.9915 -0.3709,-0.6425 -0.3372,-1.4011 0.0097,-2 -0.3469,-0.5989 -0.3806,-1.3576 -0.0097,-2 0.0542,-0.094 0.127,-0.1681 0.1933,-0.2494 l -1.0313,-0.4833"
       id="path23" />
    <path
       fill="none"
       stroke="#000000"
       stroke-linecap="round"
       stroke-linejoin="round"
       stroke-miterlimit="10"
       stroke-width="2"
       d="m 16.92,59.9981 c 0,0 -0.97,-6.3 2.49,-10.13"
       id="path24" />
    <path
       fill="none"
       stroke="#000000"
       stroke-linecap="round"
       stroke-linejoin="round"
       stroke-miterlimit="10"
       stroke-width="2"
       d="m 54.8,59.9981 c 0,0 1.36,-8.85 -4.9,-11.93 -0.17,-0.08 -0.34,-0.16 -0.51,-0.24 -0.18,-0.07 -0.36,-0.14 -0.55,-0.21 -0.19,-0.06 -0.38,-0.12 -0.58,-0.18 -0.4,-0.11 -0.82,-0.2 -1.26,-0.28 -0.68,-0.1 -1.41,-0.16 -2.2,-0.16 -0.6,0.4 -1.18,0.78 -1.75,1.12 -0.2,0.12 -0.39,0.24 -0.59,0.35 -0.18,0.1 -0.36,0.2 -0.54,0.3 -0.18,0.11 -0.36,0.21 -0.54,0.3 -0.37,0.19 -0.74,0.36 -1.11,0.52 -0.37,0.16 -0.73,0.3 -1.1,0.42 -0.18,0.06 -0.36,0.12 -0.55,0.17 -0.14,0.04 -0.28,0.08 -0.42,0.11 -0.2,0.05 -0.39,0.09 -0.58,0.13 -0.06,0.01 -0.13,0.02 -0.19,0.03 -0.32,0.06 -0.65,0.1 -0.98,0.12 -0.19,0.01 -0.39,0.02 -0.59,0.02 -0.05,0 -0.09,0 -0.14,0 -0.18,0 -0.35,-0.01 -0.53,-0.03 -0.12,0 -0.24,-0.02 -0.36,-0.03 -0.18,-0.02 -0.36,-0.04 -0.54,-0.08 -0.09,-0.01 -0.19,-0.03 -0.28,-0.05 -0.18,-0.03 -0.35,-0.07 -0.53,-0.11 -0.03,-0.01 -0.07,-0.02 -0.1,-0.03 -0.1,-0.02 -0.2,-0.05 -0.3,-0.08 -0.18,-0.05 -0.36,-0.11 -0.53,-0.17 -0.37,-0.12 -0.73,-0.26 -1.1,-0.42 -1.47,-0.63 -2.94,-1.53 -4.53,-2.59 -0.12,0 -0.24,0 -0.35,0.01"
       id="path25" />
    <path
       fill="none"
       stroke="#000000"
       stroke-linecap="round"
       stroke-linejoin="round"
       stroke-miterlimit="10"
       stroke-width="2"
       d="m 28.88,53.9881 c 1.24,0.48 2.59,0.81 4.04,0.98 v 5.03"
       id="path26" />
    <path
       fill="none"
       stroke="#000000"
       stroke-linecap="round"
       stroke-linejoin="round"
       stroke-miterlimit="10"
       stroke-width="2"
       d="m 38.92,59.9981 v -4.91 c 5.51,-0.34 9.52,-2.79 10.98,-7.02 -0.17,-0.08 -0.34,-0.16 -0.51,-0.24 -0.18,-0.07 -0.36,-0.14 -0.55,-0.21 -0.19,-0.06 -0.38,-0.12 -0.58,-0.18 -0.4,-0.11 -0.82,-0.2 -1.26,-0.28 -0.68,-0.1 -1.41,-0.16 -2.2,-0.16 -0.6,0.4 -1.18,0.78 -1.75,1.12 -0.2,0.12 -0.39,0.24 -0.59,0.35 -0.18,0.11 -0.36,0.22 -0.54,0.3 -0.18,0.11 -0.36,0.21 -0.54,0.3 -0.37,0.19 -0.74,0.36 -1.11,0.52 -0.37,0.16 -0.73,0.3 -1.1,0.42 -0.18,0.07 -0.36,0.13 -0.55,0.17 -0.14,0.04 -0.28,0.08 -0.42,0.11 -0.2,0.05 -0.39,0.09 -0.58,0.13 -0.06,0.01 -0.13,0.02 -0.19,0.03 -0.32,0.06 -0.65,0.1 -0.98,0.12 -0.19,0.01 -0.39,0.02 -0.59,0.02 -0.05,0 -0.09,0 -0.14,0 -0.18,0 -0.35,-0.01 -0.53,-0.03 -0.12,0 -0.24,-0.02 -0.36,-0.03 -0.18,-0.02 -0.36,-0.04 -0.54,-0.08 -0.09,-0.01 -0.19,-0.03 -0.28,-0.05 -0.21,-0.04 -0.42,-0.09 -0.63,-0.14 -0.1,-0.02 -0.2,-0.05 -0.3,-0.08 -0.18,-0.05 -0.36,-0.11 -0.53,-0.17 -0.37,-0.12 -0.73,-0.26 -1.1,-0.42 -1.47,-0.63 -2.94,-1.53 -4.53,-2.59 -0.12,0 -0.24,0 -0.35,0.01"
       id="path27" />
    <path
       fill="none"
       stroke="#000000"
       stroke-linecap="round"
       stroke-linejoin="round"
       stroke-miterlimit="10"
       stroke-width="2"
       d="m 12.6,51.0001 c 0,-4.503 3.9885,-7.646 7.6297,-8.6534 1.3738,-0.38 2.8394,0.0319 3.7804,1.1026 2.1982,2.5012 6.0466,7.9954 4.5899,14.5507 0,0 -9,-9 -11,-9"
       id="path28" />
  </g>
</svg>
