<svg xmlns="http://www.w3.org/2000/svg" xmlns:svg="http://www.w3.org/2000/svg" id="emoji" width="50" height="40" version="1.1" viewBox="0 0 50 40"><g id="color" transform="translate(-11,-16)"><path id="path1" fill="#d0cfce" stroke="none" d="M 42.3923,24.6798 60,24.9369 60.1694,17.3167 12,16.8286 v 8.1083 l 20.3445,-0.2571 c 0.5527,0 1.6146,0.5054 1.6146,1.0576 l -0.2315,20.9094 c 0,0.5527 -2.9051,0.3328 -3.4578,0.3328 L 12,46.6875 V 55 L 60,54.742 V 46.9796 H 39.8702 c -0.5528,0 -1.6399,-0.4474 -1.6399,-1.0001 l 0.4195,-20.7302 c 0,-0.5522 3.1897,-0.5695 3.7425,-0.5695 z"/><rect id="rect1" width="21.742" height="22.043" x="38.244" y="24.937" fill="#fff" stroke="none"/><rect id="rect2" width="21.951" height="22.043" x="12.004" y="24.937" fill="#fff" stroke="none"/></g><g id="line" transform="translate(-11,-16)"><rect id="rect3" width="48" height="38" x="12" y="17" fill="none" stroke="#000" stroke-linecap="round" stroke-linejoin="round" stroke-miterlimit="10" stroke-width="2"/><polyline id="polyline3" fill="none" stroke="#000" stroke-linecap="round" stroke-linejoin="round" stroke-miterlimit="10" stroke-width="2" points="12 24.937 33.959 24.937 33.959 46.98 12 46.98"/><polyline id="polyline4" fill="none" stroke="#000" stroke-linecap="round" stroke-linejoin="round" stroke-miterlimit="10" stroke-width="2" points="60 46.98 38.23 46.98 38.23 24.937 60 24.937"/><circle id="circle4" cx="18.095" cy="20.908" r="1.079" fill="#000" stroke="none"/><circle id="circle5" cx="24.095" cy="20.908" r="1.079" fill="#000" stroke="none"/><circle id="circle6" cx="30.095" cy="20.908" r="1.079" fill="#000" stroke="none"/><circle id="circle7" cx="36.095" cy="20.908" r="1.079" fill="#000" stroke="none"/><circle id="circle8" cx="42.095" cy="20.908" r="1.079" fill="#000" stroke="none"/><circle id="circle9" cx="48.095" cy="20.908" r="1.079" fill="#000" stroke="none"/><circle id="circle10" cx="54.095" cy="20.908" r="1.079" fill="#000" stroke="none"/><circle id="circle11" cx="18.078" cy="51.026" r="1.079" fill="#000" stroke="none"/><circle id="circle12" cx="24.078" cy="51.026" r="1.079" fill="#000" stroke="none"/><circle id="circle13" cx="30.078" cy="51.026" r="1.079" fill="#000" stroke="none"/><circle id="circle14" cx="36.078" cy="51.026" r="1.079" fill="#000" stroke="none"/><circle id="circle15" cx="42.078" cy="51.026" r="1.079" fill="#000" stroke="none"/><circle id="circle16" cx="48.078" cy="51.026" r="1.079" fill="#000" stroke="none"/><circle id="circle17" cx="54.078" cy="51.026" r="1.079" fill="#000" stroke="none"/></g></svg>