<svg xmlns="http://www.w3.org/2000/svg" xmlns:svg="http://www.w3.org/2000/svg" id="emoji" width="34.25" height="49.854" version="1.1" viewBox="0 0 34.25 49.854"><g id="color" transform="translate(-16.495225,-11.131025)"><path id="path1" fill="#3f3f3f" d="m 48.11,28.5397 -4.38,4.39 -4.35,4.35 -5.81,5.47 c 0,0 -1.2755,1.3938 -3.19,1.92 -1.9145,0.5262 -4.79,-0.15 -6.5699,-1.92 l -3.58,-3.58 c -2.77,-2.78 -2.77,-7.32 0,-10.1 l 4.31,-4.3 5.51,-5.5099 4.39,-4.39 c 2.78,-2.78 7.3199,-2.78 10.09,0 l 0.6,0.6 2.98,2.98 c 2.7799,2.7699 2.7799,7.3199 -1e-4,10.0899 z"/><path id="path2" fill="#9b9b9a" d="m 43.8321,24.2619 c 0,0 -3.4544,3.4623 -4.3799,4.39 -0.9256,0.9277 -4.35,2.4561 -5.2784,3.3301 -0.9283,0.874 -3.2698,5.1874 -4.8817,6.4899 -1.6118,1.3025 -1.0722,1.4146 -3.19,1.92 -2.1178,0.5054 -4.79,-0.15 -6.57,-1.92 l -0.6,-0.6 c -2.77,-2.78 -2.77,-7.32 0,-10.1 l 4.31,-4.3 5.51,-5.5099 4.39,-4.39 c 2.78,-2.78 7.3199,-2.78 10.09,0 l 0.6,0.6 c 2.78,2.7799 2.78,7.3198 0,10.0899 z"/><rect id="rect2" width="27.843" height="5.297" x="21.902" y="54.688" fill="#d0cfce"/><rect id="rect3" width="2.694" height="5.297" x="47.051" y="54.688" fill="#3f3f3f"/><path id="path3" fill="#9b9b9a" d="m 36.3643,30.5947 -0.5432,-1.3615 c -0.6895,0 -2.2504,0.9225 -2.2504,1.6119 v 24.092 c 0,10e-5 2.9293,-0.2495 2.9293,-0.2495 z"/><path id="path4" fill="#3f3f3f" d="M 38.1196,54.6877 37.9011,30.8685 c 0,-0.6894 -0.8474,-1.0591 -1.5368,-1.0591 L 36.5,54.6877 c 0,0 1.6196,1e-4 1.6196,0 z"/><path id="path5" fill="#d0cfce" d="m 32.4199,28.0879 c -0.2558,0 -0.5117,-0.0977 -0.707,-0.293 l -7.5977,-7.5971 c -0.3906,-0.3907 -0.3906,-1.0235 0,-1.4141 0.0187,-0.0186 0.0435,-0.0251 0.0632,-0.0419 l -0.0261,-0.0264 c 0,0 -0.3883,0.3664 -0.7789,0.7571 -0.3907,0.3906 -0.3907,1.0234 0,1.414 l 7.4951,7.5705 c 0.1953,0.1953 0.4511,0.2929 0.707,0.2929 0.2559,0 0.5117,-0.0976 0.707,-0.2929 0.2255,-0.2258 0.462,-0.403 0.6302,-0.5197 -0.1543,0.0892 -0.3198,0.1506 -0.4928,0.1506 z"/><path id="path6" fill="#d0cfce" d="m 41.0273,35.6579 -1.2024,1.1804 c -0.0477,0.3048 0.0283,0.6249 0.2632,0.8599 l 0.6086,0.5919 c 0.1953,0.1963 0.4511,0.2939 0.708,0.2939 0.2549,0 0.5107,-0.0966 0.706,-0.2919 0.3906,-0.3897 0.822,-0.7921 0.822,-0.7921 z"/></g><g id="line" transform="translate(-16.495225,-11.131025)"><path id="path7" fill="none" stroke="#000" stroke-linecap="round" stroke-linejoin="round" stroke-miterlimit="10" stroke-width="2" d="m 29.3922,18.5962 4.3865,-4.3865 c 2.7764,-2.7764 7.3196,-2.7764 10.096,0 l 3.5778,3.5778 c 2.7764,2.7765 2.7764,7.3197 0,10.0961 L 43.0661,32.27"/><path id="path8" fill="none" stroke="#000" stroke-linecap="round" stroke-linejoin="round" stroke-miterlimit="10" stroke-width="2" d="m 29.7195,44.009 c -2.2958,0.4945 -4.7929,-0.1458 -6.5678,-1.9207 l -3.5778,-3.5778 c -2.7764,-2.7764 -2.7764,-7.3196 0,-10.096 l 4.3033,-4.3033"/><path id="path9" fill="none" stroke="#000" stroke-linecap="round" stroke-linejoin="round" stroke-miterlimit="10" stroke-width="2" d="M 33.5707,54.6877 V 31.8448 c 0,-1.2429 1.0075,-2.2505 2.2504,-2.2505 h 0.543 c 1.2429,0 2.2504,1.0076 2.2504,2.2505 v 22.8429"/><rect id="rect9" width="27.305" height="5.297" x="22.44" y="54.688" fill="none" stroke="#000" stroke-linecap="round" stroke-linejoin="round" stroke-miterlimit="10" stroke-width="2"/><line id="line9" x1="20.996" x2="18.573" y1="40.499" y2="42.968" fill="none" stroke="#000" stroke-linecap="round" stroke-linejoin="round" stroke-miterlimit="10" stroke-width="2"/><line id="line10" x1="41.636" x2="42.17" y1="36.304" y2="36.838" fill="none" stroke="#000" stroke-linecap="round" stroke-linejoin="round" stroke-miterlimit="10" stroke-width="2"/><line id="line11" x1="24.823" x2="32.42" y1="19.491" y2="27.088" fill="none" stroke="#000" stroke-linecap="round" stroke-linejoin="round" stroke-miterlimit="10" stroke-width="2"/></g></svg>