<svg xmlns="http://www.w3.org/2000/svg" xmlns:svg="http://www.w3.org/2000/svg" id="emoji" width="49.688" height="49.688" version="1.1" viewBox="0 0 49.688 49.688"><g id="color" transform="translate(-10.7756,-11.1552)"><path id="path1" fill="#d0cfce" stroke="none" d="m 13.8627,12.1552 c -1.1508,0 -2.0876,0.9362 -2.0876,2.0876 v 43.5128 c 0,1.1508 0.9368,2.0876 2.0876,2.0876 h 43.5139 c 1.1508,0 2.0876,-0.9368 2.0876,-2.0876 V 14.2428 c 0,-1.1514 -0.9368,-2.0876 -2.0876,-2.0876 z"/><path id="path2" fill="#9b9b9a" stroke="none" d="m 18.3877,47.8604 c 0,-0.5528 1.4504,2.0709 1.4504,2.0709 0,0 2.3432,2.9292 4.5493,2.9292 2.2061,0 5,-2.794 5,-5 0,-2.2061 -0.7639,-4.5707 -2.97,-4.5707 -0.5527,0 -2.5849,-1.4257 -2.0346,-1.4285 -0.0067,0 -0.0132,-9e-4 -0.0198,-9e-4 -1.5741,0 -3.002,0.6109 -4.0723,1.6024 l -1.2249,1.5816 c -0.4475,0.84 -0.703,1.7979 -0.703,2.8161"/><path id="path3" fill="#9b9b9a" stroke="none" d="m 50.8994,43.6182 c 0.3906,0.3906 -1.0234,0.5113 -1.414,0.1206 -1.5118,-1.5117 -4.1456,-1.7685 -5.6573,-0.2568 -0.7558,0.7559 -2.3559,2.969 -2.3559,4.0374 0,1.0683 0.8929,3.1207 1.6487,3.8766 1.5586,1.5585 4.7518,1.8046 6.3124,0.2461 0.3906,-0.3907 1.8563,0.0683 1.4677,0.459 0.8179,-0.8186 1.3997,-1.8728 1.6368,-3.0517 l 0.0579,-1.9982 c -0.2074,-1.5344 -0.9886,-2.8865 -2.128,-3.8247 0.1489,0.123 0.2933,0.2532 0.4317,0.3917 z"/><path id="path4" fill="#9b9b9a" stroke="none" d="m 30.302,24.7566 c -0.1589,-1.1738 -0.6542,-2.2388 -1.3899,-3.095 0.2868,0.4086 -0.9581,0.4745 -1.3262,0.0629 -0.7139,-0.7949 -1.6947,-1.0792 -2.7611,-1.1373 -1.0722,-0.0499 -2.9824,0.2682 -3.7783,0.981 -0.7949,0.7139 -1.6015,2.4796 -1.6591,3.5465 -0.0586,1.0674 -0.1538,2.4763 0.5601,3.2713 0.7138,0.7954 3.157,2.3541 4.2244,2.4117 1.0576,0.0508 4.6217,-1.235 4.2928,-0.8597 0.891,-0.8364 1.5295,-1.9377 1.7797,-3.1826 z"/><path id="path5" fill="#9b9b9a" stroke="none" d="m 51.7237,22.3636 -1.3348,-1.4893 c -0.9584,-0.7633 -2.1552,-1.235 -3.4612,-1.2935 0.5337,0.0405 -1.3506,1.1086 -1.3506,1.1086 0,0 -3.8299,2.4771 -3.9168,4.6807 -0.086,2.2031 2.6346,5.145 4.8387,5.2329 2.2002,0.0898 4.958,-1.7837 5.0449,-3.9873 0.0215,-0.5522 1.1056,-1.3812 1.1023,-0.8443 0.0024,-0.0684 0.0104,-0.1352 0.0104,-0.2042 0,-1.1794 -0.3451,-2.2759 -0.9329,-3.2036 z"/></g><g id="line" transform="translate(-10.7756,-11.1552)"><path id="path6" fill="none" stroke="#000" stroke-linecap="round" stroke-linejoin="round" stroke-miterlimit="10" stroke-width="2" d="m 56.4636,59.8432 h -41.688 c -1.6569,0 -3,-1.3431 -3,-3 v -41.688 c 0,-1.6569 1.3431,-3 3,-3 h 41.688 c 1.6569,0 3,1.3431 3,3 v 41.688 c 0,1.6569 -1.3431,3 -3,3 z"/><path id="path7" fill="none" stroke="#000" stroke-linecap="round" stroke-linejoin="round" stroke-miterlimit="10" stroke-width="2" d="m 51.6525,25.7643 c -0.1089,2.7593 -2.434,4.9079 -5.1932,4.799 -2.7594,-0.1089 -4.9079,-2.434 -4.799,-5.1932 0.1089,-2.7593 2.4339,-4.9079 5.1932,-4.799"/><path id="path8" fill="none" stroke="#000" stroke-linecap="round" stroke-linejoin="round" stroke-miterlimit="10" stroke-width="2" d="m 27.7268,29.2886 c -2.0552,1.8442 -5.2165,1.6732 -7.0608,-0.382 -1.8442,-2.0552 -1.6732,-5.2165 0.382,-7.0608 2.0552,-1.8442 5.2165,-1.6732 7.0608,0.382"/><path id="path9" fill="none" stroke="#000" stroke-linecap="round" stroke-linejoin="round" stroke-miterlimit="10" stroke-width="2" d="m 50.1919,51.396 c -1.9526,1.9527 -5.1184,1.9526 -7.071,0 -1.9527,-1.9526 -1.9527,-5.1184 0,-7.071 1.9526,-1.9526 5.1184,-1.9527 7.071,0"/><path id="path10" fill="none" stroke="#000" stroke-linecap="round" stroke-linejoin="round" stroke-miterlimit="10" stroke-width="2" d="m 24.3874,42.8605 c 2.7614,0 5,2.2386 5,5 0,2.7615 -2.2386,5 -5,5 -2.7614,0 -5,-2.2385 -5,-5"/><line id="line10" x1="24.387" x2="18.782" y1="47.861" y2="43.567" fill="none" stroke="#000" stroke-linecap="round" stroke-linejoin="round" stroke-miterlimit="10" stroke-width="2"/><line id="line11" x1="53.492" x2="46.656" y1="48.08" y2="47.861" fill="none" stroke="#000" stroke-linecap="round" stroke-linejoin="round" stroke-miterlimit="10" stroke-width="2"/><line id="line12" x1="31.346" x2="24.166" y1="25.799" y2="25.515" fill="none" stroke="#000" stroke-linecap="round" stroke-linejoin="round" stroke-miterlimit="10" stroke-width="2"/><line id="line13" x1="51.656" x2="46.656" y1="21.08" y2="25.567" fill="none" stroke="#000" stroke-linecap="round" stroke-linejoin="round" stroke-miterlimit="10" stroke-width="2"/></g></svg>