<?xml version="1.0" encoding="UTF-8" standalone="no"?>
<svg
   id="emoji"
   viewBox="0 0 39.9342 64.142403"
   version="1.1"
   sodipodi:docname="1f39a.svg"
   width="39.9342"
   height="64.142403"
   xmlns:inkscape="http://www.inkscape.org/namespaces/inkscape"
   xmlns:sodipodi="http://sodipodi.sourceforge.net/DTD/sodipodi-0.dtd"
   xmlns="http://www.w3.org/2000/svg"
   xmlns:svg="http://www.w3.org/2000/svg">
  <defs
     id="defs26" />
  <sodipodi:namedview
     id="namedview26"
     pagecolor="#ffffff"
     bordercolor="#000000"
     borderopacity="0.25"
     inkscape:showpageshadow="2"
     inkscape:pageopacity="0.0"
     inkscape:pagecheckerboard="0"
     inkscape:deskcolor="#d1d1d1" />
  <g
     id="color"
     transform="translate(-15.9504,-3.9496)">
    <path
       fill="#d0cfce"
       stroke="none"
       d="M 51.8848,5.9497 H 19.9502 c -1.1025,0 -2,0.897 -2,2 v 56.1421 c 0,1.1025 0.8975,2 2,2 h 31.9346 c 1.1025,0 2,-0.8975 2,-2 V 7.9497 c 0,-1.103 -0.8975,-2 -2,-2 z"
       id="path1" />
    <path
       fill="#3f3f3f"
       stroke="none"
       d="m 29.1015,23.4683 v 9.678 h 13.797 v -9.678 z"
       id="path2" />
    <path
       fill="#9b9b9a"
       stroke="none"
       d="m 39.0727,13.9583 c 0,-1.103 -2.237,-3 -3.3395,-3 0,0 -2.6872,0.5693 -2.6872,1.6723 0,0 -0.2951,10.8166 -0.2951,10.8167 l 6.6252,0.021 c 0,-10e-5 -0.3034,-9.51 -0.3034,-9.51 z"
       id="path3" />
    <path
       fill="#9b9b9a"
       stroke="none"
       d="m 32.7332,33.4116 v 24.5467 c 0,1.1025 1.0477,3 3,3 1.9523,0 3.3395,-1.8975 3.3395,-3 V 33.4116 Z"
       id="path4" />
  </g>
  <g
     id="hair"
     transform="translate(-15.9504,-3.9496)" />
  <g
     id="skin"
     transform="translate(-15.9504,-3.9496)" />
  <g
     id="skin-shadow"
     transform="translate(-15.9504,-3.9496)" />
  <g
     id="line"
     transform="translate(-15.9504,-3.9496)">
    <path
       fill="none"
       stroke="#000000"
       stroke-linecap="round"
       stroke-linejoin="round"
       stroke-miterlimit="10"
       stroke-width="2"
       d="m 32.7332,23.0969 v -9.1386 c 0,-1.6568 1.3433,-3 3,-3 h 0.3395 c 1.6567,0 3,1.3432 3,3 v 9.1386"
       id="path5" />
    <path
       fill="none"
       stroke="#000000"
       stroke-linecap="round"
       stroke-linejoin="round"
       stroke-miterlimit="10"
       stroke-width="2"
       d="m 39.0727,33.4116 v 24.5467 c 0,1.6569 -1.3433,3 -3,3 h -0.3395 c -1.6567,0 -3,-1.3431 -3,-3 V 33.4116"
       id="path6" />
    <rect
       x="29.1015"
       y="23.4473"
       width="13.797"
       height="9.6990004"
       fill="none"
       stroke="#000000"
       stroke-linecap="round"
       stroke-linejoin="round"
       stroke-miterlimit="10"
       stroke-width="2"
       id="rect6" />
    <line
       x1="33.021198"
       x2="38.909901"
       y1="28.3328"
       y2="28.3328"
       fill="none"
       stroke="#000000"
       stroke-linecap="round"
       stroke-linejoin="round"
       stroke-miterlimit="10"
       stroke-width="2"
       id="line6" />
    <path
       fill="none"
       stroke="#000000"
       stroke-linecap="round"
       stroke-linejoin="round"
       stroke-miterlimit="10"
       stroke-width="2"
       d="M 51.8846,67.092 H 19.9504 c -1.6568,0 -3,-1.3432 -3,-3 V 7.9496 c 0,-1.6568 1.3432,-3 3,-3 h 31.9342 c 1.6569,0 3,1.3432 3,3 V 64.092 c 0,1.6568 -1.3431,3 -3,3 z"
       id="path7" />
    <line
       x1="47.910999"
       x2="50.559299"
       y1="18.259899"
       y2="18.259899"
       fill="none"
       stroke="#000000"
       stroke-linecap="round"
       stroke-linejoin="round"
       stroke-miterlimit="10"
       stroke-width="2"
       id="line7" />
    <line
       x1="47.910999"
       x2="50.559299"
       y1="12.6306"
       y2="12.6306"
       fill="none"
       stroke="#000000"
       stroke-linecap="round"
       stroke-linejoin="round"
       stroke-miterlimit="10"
       stroke-width="2"
       id="line8" />
    <line
       x1="47.9221"
       x2="50.559299"
       y1="23.4683"
       y2="23.4683"
       fill="none"
       stroke="#000000"
       stroke-linecap="round"
       stroke-linejoin="round"
       stroke-miterlimit="10"
       stroke-width="2"
       id="line9" />
    <line
       x1="47.910999"
       x2="50.559299"
       y1="28.203199"
       y2="28.203199"
       fill="none"
       stroke="#000000"
       stroke-linecap="round"
       stroke-linejoin="round"
       stroke-miterlimit="10"
       stroke-width="2"
       id="line10" />
    <line
       x1="47.9221"
       x2="50.559299"
       y1="33.411598"
       y2="33.411598"
       fill="none"
       stroke="#000000"
       stroke-linecap="round"
       stroke-linejoin="round"
       stroke-miterlimit="10"
       stroke-width="2"
       id="line11" />
    <line
       x1="47.910999"
       x2="50.559299"
       y1="39.040901"
       y2="39.040901"
       fill="none"
       stroke="#000000"
       stroke-linecap="round"
       stroke-linejoin="round"
       stroke-miterlimit="10"
       stroke-width="2"
       id="line12" />
    <line
       x1="47.912102"
       x2="50.559299"
       y1="44.249298"
       y2="44.249298"
       fill="none"
       stroke="#000000"
       stroke-linecap="round"
       stroke-linejoin="round"
       stroke-miterlimit="10"
       stroke-width="2"
       id="line13" />
    <line
       x1="47.901001"
       x2="50.559299"
       y1="48.9842"
       y2="48.9842"
       fill="none"
       stroke="#000000"
       stroke-linecap="round"
       stroke-linejoin="round"
       stroke-miterlimit="10"
       stroke-width="2"
       id="line14" />
    <line
       x1="47.892101"
       x2="50.559299"
       y1="54.192699"
       y2="54.192699"
       fill="none"
       stroke="#000000"
       stroke-linecap="round"
       stroke-linejoin="round"
       stroke-miterlimit="10"
       stroke-width="2"
       id="line15" />
    <line
       x1="47.906502"
       x2="50.559299"
       y1="58.9086"
       y2="58.9086"
       fill="none"
       stroke="#000000"
       stroke-linecap="round"
       stroke-linejoin="round"
       stroke-miterlimit="10"
       stroke-width="2"
       id="line16" />
    <line
       x1="21.2817"
       x2="23.930099"
       y1="18.259899"
       y2="18.259899"
       fill="none"
       stroke="#000000"
       stroke-linecap="round"
       stroke-linejoin="round"
       stroke-miterlimit="10"
       stroke-width="2"
       id="line17" />
    <line
       x1="21.2817"
       x2="23.930099"
       y1="12.6306"
       y2="12.6306"
       fill="none"
       stroke="#000000"
       stroke-linecap="round"
       stroke-linejoin="round"
       stroke-miterlimit="10"
       stroke-width="2"
       id="line18" />
    <line
       x1="21.2929"
       x2="23.930099"
       y1="23.4683"
       y2="23.4683"
       fill="none"
       stroke="#000000"
       stroke-linecap="round"
       stroke-linejoin="round"
       stroke-miterlimit="10"
       stroke-width="2"
       id="line19" />
    <line
       x1="21.2817"
       x2="23.930099"
       y1="28.203199"
       y2="28.203199"
       fill="none"
       stroke="#000000"
       stroke-linecap="round"
       stroke-linejoin="round"
       stroke-miterlimit="10"
       stroke-width="2"
       id="line20" />
    <line
       x1="21.2929"
       x2="23.930099"
       y1="33.411598"
       y2="33.411598"
       fill="none"
       stroke="#000000"
       stroke-linecap="round"
       stroke-linejoin="round"
       stroke-miterlimit="10"
       stroke-width="2"
       id="line21" />
    <line
       x1="21.2817"
       x2="23.930099"
       y1="39.040901"
       y2="39.040901"
       fill="none"
       stroke="#000000"
       stroke-linecap="round"
       stroke-linejoin="round"
       stroke-miterlimit="10"
       stroke-width="2"
       id="line22" />
    <line
       x1="21.2829"
       x2="23.930099"
       y1="44.249298"
       y2="44.249298"
       fill="none"
       stroke="#000000"
       stroke-linecap="round"
       stroke-linejoin="round"
       stroke-miterlimit="10"
       stroke-width="2"
       id="line23" />
    <line
       x1="21.2717"
       x2="23.930099"
       y1="48.9842"
       y2="48.9842"
       fill="none"
       stroke="#000000"
       stroke-linecap="round"
       stroke-linejoin="round"
       stroke-miterlimit="10"
       stroke-width="2"
       id="line24" />
    <line
       x1="21.262899"
       x2="23.930099"
       y1="54.192699"
       y2="54.192699"
       fill="none"
       stroke="#000000"
       stroke-linecap="round"
       stroke-linejoin="round"
       stroke-miterlimit="10"
       stroke-width="2"
       id="line25" />
    <line
       x1="21.2773"
       x2="23.930099"
       y1="58.9086"
       y2="58.9086"
       fill="none"
       stroke="#000000"
       stroke-linecap="round"
       stroke-linejoin="round"
       stroke-miterlimit="10"
       stroke-width="2"
       id="line26" />
  </g>
</svg>
