<svg xmlns="http://www.w3.org/2000/svg" xmlns:svg="http://www.w3.org/2000/svg" id="emoji" width="42" height="54.451" version="1.1" viewBox="0 0 42 54.451"><g id="color" transform="translate(-14.999999,-7)"><g id="g3"><path id="path1" fill="#92d3f5" d="M 55.1767,38.6265 A 19.6726,19.6726 0 0 0 55.671,29.4119 19.9973,19.9973 0 0 0 16,33 a 19.7418,19.7418 0 0 0 0.8242,5.63 2.0054,2.0054 0 0 0 1.9234,1.4292 h 34.5045 a 2.0071,2.0071 0 0 0 1.9246,-1.4327 z"/><path id="path2" fill="#f1b31c" d="m 39,41 a 3,3 0 0 1 -6,0"/><path id="path3" fill="#d0cfce" d="m 16,54 a 14.4232,14.4232 0 0 0 14,-4 l 4,6 a 14.4232,14.4232 0 0 1 -14,4 z"/></g></g><g id="line" transform="translate(-14.999999,-7)"><g id="g8"><path id="path4" fill="none" stroke="#000" stroke-miterlimit="10" stroke-width="2" d="M 55.1767,38.6265 A 19.6726,19.6726 0 0 0 55.671,29.4119 19.9973,19.9973 0 0 0 16,33 a 19.7418,19.7418 0 0 0 0.8242,5.63 2.0054,2.0054 0 0 0 1.9234,1.4292 h 34.5045 a 2.0071,2.0071 0 0 0 1.9246,-1.4327 z"/><path id="path5" fill="none" stroke="#000" stroke-linecap="round" stroke-miterlimit="10" stroke-width="2" d="m 36,13 c 0,0 0.7889,-4.1056 -1,-5"/><path id="path6" fill="none" stroke="#000" stroke-miterlimit="10" stroke-width="2" d="m 36,44 c 0,0 1,6 -4,9"/><path id="path7" fill="none" stroke="#000" stroke-miterlimit="10" stroke-width="2" d="m 39,41 a 3,3 0 0 1 -6,0"/><path id="path8" fill="none" stroke="#000" stroke-linejoin="round" stroke-width="2" d="m 16,54 a 14.4232,14.4232 0 0 0 14,-4 l 4,6 a 14.4232,14.4232 0 0 1 -14,4 z"/></g></g></svg>