<?xml version="1.0" encoding="UTF-8" standalone="no"?>
<svg
   id="emoji"
   viewBox="0 0 64.215698 33.815701"
   version="1.1"
   sodipodi:docname="1f39f.svg"
   width="64.215698"
   height="33.815701"
   xmlns:inkscape="http://www.inkscape.org/namespaces/inkscape"
   xmlns:sodipodi="http://sodipodi.sourceforge.net/DTD/sodipodi-0.dtd"
   xmlns="http://www.w3.org/2000/svg"
   xmlns:svg="http://www.w3.org/2000/svg">
  <defs
     id="defs3" />
  <sodipodi:namedview
     id="namedview3"
     pagecolor="#ffffff"
     bordercolor="#000000"
     borderopacity="0.25"
     inkscape:showpageshadow="2"
     inkscape:pageopacity="0.0"
     inkscape:pagecheckerboard="0"
     inkscape:deskcolor="#d1d1d1" />
  <g
     id="color"
     transform="translate(-3.39215,-18.69215)">
    <path
       fill="#d22f27"
       d="M 57.6,35.9 C 57.6,31 61.5,26.8 67,25.3 V 20.1 H 5 v 5.5 c 4.9,1.7 8.4,5.7 8.4,10.3 0,4.6 -3.5,8.7 -8.4,10.4 v 5.5 H 67 V 46.6 C 61.6,45.1 57.6,40.9 57.6,35.9 Z"
       id="path1" />
  </g>
  <g
     id="hair"
     transform="translate(-3.39215,-18.69215)" />
  <g
     id="skin"
     transform="translate(-3.39215,-18.69215)" />
  <g
     id="skin-shadow"
     transform="translate(-3.39215,-18.69215)" />
  <g
     id="line"
     transform="translate(-3.39215,-18.69215)">
    <path
       fill="none"
       stroke="#000000"
       stroke-linejoin="round"
       stroke-miterlimit="10"
       stroke-width="2.2157"
       d="m 57.1,35.6 c 0,-4.9 3.9,-9.1 9.4,-10.6 v -5.2 h -62 v 5.5 c 4.9,1.7 8.4,5.7 8.4,10.3 0,4.6 -3.5,8.6 -8.4,10.3 v 5.5 h 62 V 46.2 C 61.1,44.7 57.1,40.5 57.1,35.6 Z"
       id="path2" />
    <rect
       x="18.5"
       y="25"
       width="34"
       height="20"
       fill="none"
       stroke="#000000"
       stroke-linejoin="round"
       stroke-miterlimit="10"
       stroke-width="2.0945"
       id="rect2" />
  </g>
  <g
     id="color-foreground"
     transform="translate(-3.39215,-18.69215)">
    <rect
       x="18.5"
       y="25"
       width="34"
       height="20"
       fill="none"
       stroke="#ffffff"
       stroke-linejoin="round"
       stroke-miterlimit="10"
       stroke-width="2.1"
       id="rect3" />
  </g>
</svg>
