<?xml version="1.0" encoding="UTF-8" standalone="no"?>
<svg
   id="emoji"
   viewBox="0 0 50 40"
   version="1.1"
   sodipodi:docname="1f39e.svg"
   width="50"
   height="40"
   xmlns:inkscape="http://www.inkscape.org/namespaces/inkscape"
   xmlns:sodipodi="http://sodipodi.sourceforge.net/DTD/sodipodi-0.dtd"
   xmlns="http://www.w3.org/2000/svg"
   xmlns:svg="http://www.w3.org/2000/svg">
  <defs
     id="defs17" />
  <sodipodi:namedview
     id="namedview17"
     pagecolor="#ffffff"
     bordercolor="#000000"
     borderopacity="0.25"
     inkscape:showpageshadow="2"
     inkscape:pageopacity="0.0"
     inkscape:pagecheckerboard="0"
     inkscape:deskcolor="#d1d1d1" />
  <g
     id="color"
     transform="translate(-11,-16)">
    <path
       fill="#d0cfce"
       stroke="none"
       d="M 42.3923,24.6798 60,24.9369 60.1694,17.3167 12,16.8286 v 8.1083 l 20.3445,-0.2571 c 0.5527,0 1.6146,0.5054 1.6146,1.0576 l -0.2315,20.9094 c 0,0.5527 -2.9051,0.3328 -3.4578,0.3328 L 12,46.6875 V 55 L 60,54.742 V 46.9796 H 39.8702 c -0.5528,0 -1.6399,-0.4474 -1.6399,-1.0001 l 0.4195,-20.7302 c 0,-0.5522 3.1897,-0.5695 3.7425,-0.5695 z"
       id="path1" />
    <rect
       x="38.243999"
       y="24.936899"
       width="21.7425"
       height="22.0427"
       fill="#ffffff"
       stroke="none"
       id="rect1" />
    <rect
       x="12.0041"
       y="24.936899"
       width="21.9508"
       height="22.0427"
       fill="#ffffff"
       stroke="none"
       id="rect2" />
  </g>
  <g
     id="hair"
     transform="translate(-11,-16)" />
  <g
     id="skin"
     transform="translate(-11,-16)" />
  <g
     id="skin-shadow"
     transform="translate(-11,-16)" />
  <g
     id="line"
     transform="translate(-11,-16)">
    <rect
       x="12"
       y="17"
       width="48"
       height="38"
       fill="none"
       stroke="#000000"
       stroke-linecap="round"
       stroke-linejoin="round"
       stroke-miterlimit="10"
       stroke-width="2"
       id="rect3" />
    <polyline
       fill="none"
       stroke="#000000"
       stroke-linecap="round"
       stroke-linejoin="round"
       stroke-miterlimit="10"
       stroke-width="2"
       points="12,24.9369 33.9591,24.9369 33.9591,46.9796 12,46.9796"
       id="polyline3" />
    <polyline
       fill="none"
       stroke="#000000"
       stroke-linecap="round"
       stroke-linejoin="round"
       stroke-miterlimit="10"
       stroke-width="2"
       points="60,46.9796 38.2303,46.9796 38.2303,24.9369 60,24.9369"
       id="polyline4" />
    <circle
       cx="18.0947"
       cy="20.908001"
       r="1.0793999"
       fill="#000000"
       stroke="none"
       id="circle4" />
    <circle
       cx="24.0947"
       cy="20.908001"
       r="1.0793999"
       fill="#000000"
       stroke="none"
       id="circle5" />
    <circle
       cx="30.0947"
       cy="20.908001"
       r="1.0793999"
       fill="#000000"
       stroke="none"
       id="circle6" />
    <circle
       cx="36.0947"
       cy="20.908001"
       r="1.0793999"
       fill="#000000"
       stroke="none"
       id="circle7" />
    <circle
       cx="42.0947"
       cy="20.908001"
       r="1.0793999"
       fill="#000000"
       stroke="none"
       id="circle8" />
    <circle
       cx="48.0947"
       cy="20.908001"
       r="1.0793999"
       fill="#000000"
       stroke="none"
       id="circle9" />
    <circle
       cx="54.0947"
       cy="20.908001"
       r="1.0793999"
       fill="#000000"
       stroke="none"
       id="circle10" />
    <circle
       cx="18.077801"
       cy="51.025501"
       r="1.0793999"
       fill="#000000"
       stroke="none"
       id="circle11" />
    <circle
       cx="24.077801"
       cy="51.025501"
       r="1.0793999"
       fill="#000000"
       stroke="none"
       id="circle12" />
    <circle
       cx="30.077801"
       cy="51.025501"
       r="1.0793999"
       fill="#000000"
       stroke="none"
       id="circle13" />
    <circle
       cx="36.077801"
       cy="51.025501"
       r="1.0793999"
       fill="#000000"
       stroke="none"
       id="circle14" />
    <circle
       cx="42.077801"
       cy="51.025501"
       r="1.0793999"
       fill="#000000"
       stroke="none"
       id="circle15" />
    <circle
       cx="48.077801"
       cy="51.025501"
       r="1.0793999"
       fill="#000000"
       stroke="none"
       id="circle16" />
    <circle
       cx="54.077801"
       cy="51.025501"
       r="1.0793999"
       fill="#000000"
       stroke="none"
       id="circle17" />
  </g>
</svg>
