<?xml version="1.0" encoding="UTF-8" standalone="no"?>
<svg
   id="emoji"
   viewBox="0 0 58 58.000023"
   version="1.1"
   sodipodi:docname="1f391.svg"
   width="58"
   height="58.000023"
   xmlns:inkscape="http://www.inkscape.org/namespaces/inkscape"
   xmlns:sodipodi="http://sodipodi.sourceforge.net/DTD/sodipodi-0.dtd"
   xmlns="http://www.w3.org/2000/svg"
   xmlns:svg="http://www.w3.org/2000/svg">
  <defs
     id="defs51" />
  <sodipodi:namedview
     id="namedview51"
     pagecolor="#ffffff"
     bordercolor="#000000"
     borderopacity="0.25"
     inkscape:showpageshadow="2"
     inkscape:pageopacity="0.0"
     inkscape:pagecheckerboard="0"
     inkscape:deskcolor="#d1d1d1" />
  <g
     id="line-supplement"
     transform="translate(-7,-7)">
    <g
       id="g21">
      <circle
         cx="36"
         cy="21"
         r="9"
         fill="none"
         stroke="#000000"
         stroke-miterlimit="10"
         stroke-width="2"
         id="circle1" />
      <g
         id="g16">
        <g
           id="g6">
          <path
             fill="none"
             stroke="#000000"
             stroke-linecap="round"
             stroke-miterlimit="10"
             stroke-width="2"
             d="m 15.0056,43.04 a 9.8158,9.8158 0 0 1 6.6232,2.9568"
             id="path1" />
          <path
             fill="none"
             stroke="#000000"
             stroke-linecap="round"
             stroke-miterlimit="10"
             stroke-width="2"
             d="m 15.5339,40.0114 a 10.281,10.281 0 0 1 6.56,2.4528"
             id="path2" />
          <path
             fill="none"
             stroke="#000000"
             stroke-linecap="round"
             stroke-miterlimit="10"
             stroke-width="2"
             d="M 16.2753,37.0059 A 10.5851,10.5851 0 0 1 22.72,39.1442"
             id="path3" />
          <path
             fill="none"
             stroke="#000000"
             stroke-linecap="round"
             stroke-miterlimit="10"
             stroke-width="2"
             d="m 17.4243,34.009 a 10.5987,10.5987 0 0 1 6.1608,2.0261"
             id="path4" />
          <path
             fill="none"
             stroke="#000000"
             stroke-linecap="round"
             stroke-miterlimit="10"
             stroke-width="2"
             d="m 24.8463,33.2525 a 9.9691,9.9691 0 0 0 -5.27,-2.1559"
             id="path5" />
          <path
             fill="none"
             stroke="#000000"
             stroke-linecap="round"
             stroke-miterlimit="10"
             stroke-width="2"
             d="m 23.0758,28.678 a 8.7566,8.7566 0 0 1 3.575,2.3416"
             id="path6" />
        </g>
        <g
           id="g12">
          <path
             fill="none"
             stroke="#000000"
             stroke-linecap="round"
             stroke-miterlimit="10"
             stroke-width="2"
             d="m 20.0056,52.04 a 9.8158,9.8158 0 0 1 6.6232,2.9568"
             id="path7" />
          <path
             fill="none"
             stroke="#000000"
             stroke-linecap="round"
             stroke-miterlimit="10"
             stroke-width="2"
             d="m 20.5339,49.0114 a 10.281,10.281 0 0 1 6.56,2.4528"
             id="path8" />
          <path
             fill="none"
             stroke="#000000"
             stroke-linecap="round"
             stroke-miterlimit="10"
             stroke-width="2"
             d="M 21.2753,46.0059 A 10.5851,10.5851 0 0 1 27.72,48.1442"
             id="path9" />
          <path
             fill="none"
             stroke="#000000"
             stroke-linecap="round"
             stroke-miterlimit="10"
             stroke-width="2"
             d="m 22.4243,43.009 a 10.5987,10.5987 0 0 1 6.1608,2.0261"
             id="path10" />
          <path
             fill="none"
             stroke="#000000"
             stroke-linecap="round"
             stroke-miterlimit="10"
             stroke-width="2"
             d="m 29.8463,42.2525 a 9.9691,9.9691 0 0 0 -5.27,-2.1559"
             id="path11" />
          <path
             fill="none"
             stroke="#000000"
             stroke-linecap="round"
             stroke-miterlimit="10"
             stroke-width="2"
             d="m 28.0758,37.678 a 8.7566,8.7566 0 0 1 3.575,2.3416"
             id="path12" />
        </g>
        <g
           id="g14">
          <path
             fill="none"
             stroke="#000000"
             stroke-linecap="round"
             stroke-miterlimit="10"
             stroke-width="2"
             d="m 25,28 a 12.06,12.06 0 0 0 -7,5 c -2.88,4.3193 -3.686,14.8566 -3.912,20.4214"
             id="path13" />
          <path
             fill="none"
             stroke="#000000"
             stroke-linecap="round"
             stroke-miterlimit="10"
             stroke-width="2"
             d="m 30,37 a 12.06,12.06 0 0 0 -7,5 c -2.2917,3.4375 -3.2693,10.81 -3.6873,16.484"
             id="path14" />
        </g>
        <polygon
           stroke="#000000"
           stroke-linejoin="round"
           stroke-width="0.75"
           points="52.389,22.178 53,21.727 52.24,21.721 52,21 51.76,21.721 51,21.727 51.611,22.088 51.382,22.902 52,22.46 52.618,22.902 "
           id="polygon14" />
        <polygon
           stroke="#000000"
           stroke-linejoin="round"
           stroke-width="1.5"
           points="55.715,31.477 57,30.528 55.402,30.516 54.897,29 54.392,30.426 52.794,30.528 54.08,31.477 53.597,33 54.897,32.071 56.197,33 "
           id="polygon15" />
        <polygon
           stroke="#000000"
           stroke-linejoin="round"
           points="19.083,23.913 20,23.237 18.86,23.138 18.5,22.147 18.14,23.228 17,23.237 17.917,23.913 17.573,25 18.5,24.337 19.427,25 "
           id="polygon16" />
      </g>
      <circle
         cx="53.75"
         cy="47.75"
         r="2.25"
         fill="none"
         stroke="#000000"
         stroke-linecap="round"
         stroke-miterlimit="10"
         stroke-width="2"
         id="circle16" />
      <circle
         cx="47"
         cy="47.75"
         r="2.25"
         fill="none"
         stroke="#000000"
         stroke-linecap="round"
         stroke-miterlimit="10"
         stroke-width="2"
         id="circle17" />
      <circle
         cx="40.25"
         cy="47.75"
         r="2.25"
         fill="none"
         stroke="#000000"
         stroke-linecap="round"
         stroke-miterlimit="10"
         stroke-width="2"
         id="circle18" />
      <circle
         cx="43.625"
         cy="41.75"
         r="2.25"
         fill="none"
         stroke="#000000"
         stroke-linecap="round"
         stroke-miterlimit="10"
         stroke-width="2"
         id="circle19" />
      <circle
         cx="50.375"
         cy="41.75"
         r="2.25"
         fill="none"
         stroke="#000000"
         stroke-linecap="round"
         stroke-miterlimit="10"
         stroke-width="2"
         id="circle20" />
      <circle
         cx="47"
         cy="35.75"
         r="2.25"
         fill="none"
         stroke="#000000"
         stroke-linecap="round"
         stroke-miterlimit="10"
         stroke-width="2"
         id="circle21" />
    </g>
  </g>
  <g
     id="color"
     transform="translate(-7,-7)">
    <g
       id="g45">
      <circle
         cx="36"
         cy="36"
         r="28"
         fill="#1e50a0"
         id="circle22" />
      <circle
         cx="36"
         cy="21"
         r="9"
         fill="#f1b31c"
         stroke="#f1b31c"
         stroke-miterlimit="10"
         stroke-width="2"
         id="circle23" />
      <circle
         cx="53.75"
         cy="47.75"
         r="2.25"
         fill="#d0cfce"
         stroke="#d0cfce"
         stroke-linecap="round"
         stroke-miterlimit="10"
         stroke-width="2"
         id="circle24" />
      <circle
         cx="47"
         cy="47.75"
         r="2.25"
         fill="#d0cfce"
         stroke="#d0cfce"
         stroke-linecap="round"
         stroke-miterlimit="10"
         stroke-width="2"
         id="circle25" />
      <circle
         cx="40.25"
         cy="47.75"
         r="2.25"
         fill="#d0cfce"
         stroke="#d0cfce"
         stroke-linecap="round"
         stroke-miterlimit="10"
         stroke-width="2"
         id="circle26" />
      <circle
         cx="43.625"
         cy="41.75"
         r="2.25"
         fill="#d0cfce"
         stroke="#d0cfce"
         stroke-linecap="round"
         stroke-miterlimit="10"
         stroke-width="2"
         id="circle27" />
      <circle
         cx="50.375"
         cy="41.75"
         r="2.25"
         fill="#d0cfce"
         stroke="#d0cfce"
         stroke-linecap="round"
         stroke-miterlimit="10"
         stroke-width="2"
         id="circle28" />
      <circle
         cx="47"
         cy="35.75"
         r="2.25"
         fill="#d0cfce"
         stroke="#d0cfce"
         stroke-linecap="round"
         stroke-miterlimit="10"
         stroke-width="2"
         id="circle29" />
      <g
         id="g34">
        <path
           fill="none"
           stroke="#f4aa41"
           stroke-linecap="round"
           stroke-miterlimit="10"
           stroke-width="2"
           d="m 15.0056,43.04 a 9.8158,9.8158 0 0 1 6.6232,2.9568"
           id="path29" />
        <path
           fill="none"
           stroke="#f4aa41"
           stroke-linecap="round"
           stroke-miterlimit="10"
           stroke-width="2"
           d="m 15.5339,40.0114 a 10.281,10.281 0 0 1 6.56,2.4528"
           id="path30" />
        <path
           fill="none"
           stroke="#f4aa41"
           stroke-linecap="round"
           stroke-miterlimit="10"
           stroke-width="2"
           d="M 16.2753,37.0059 A 10.5851,10.5851 0 0 1 22.72,39.1442"
           id="path31" />
        <path
           fill="none"
           stroke="#f4aa41"
           stroke-linecap="round"
           stroke-miterlimit="10"
           stroke-width="2"
           d="m 17.4243,34.009 a 10.5987,10.5987 0 0 1 6.1608,2.0261"
           id="path32" />
        <path
           fill="none"
           stroke="#f4aa41"
           stroke-linecap="round"
           stroke-miterlimit="10"
           stroke-width="2"
           d="m 24.8463,33.2525 a 9.9691,9.9691 0 0 0 -5.27,-2.1559"
           id="path33" />
        <path
           fill="none"
           stroke="#f4aa41"
           stroke-linecap="round"
           stroke-miterlimit="10"
           stroke-width="2"
           d="m 23.0758,28.678 a 8.7566,8.7566 0 0 1 3.575,2.3416"
           id="path34" />
      </g>
      <g
         id="g40">
        <path
           fill="none"
           stroke="#f4aa41"
           stroke-linecap="round"
           stroke-miterlimit="10"
           stroke-width="2"
           d="m 20.0056,52.04 a 9.8158,9.8158 0 0 1 6.6232,2.9568"
           id="path35" />
        <path
           fill="none"
           stroke="#f4aa41"
           stroke-linecap="round"
           stroke-miterlimit="10"
           stroke-width="2"
           d="m 20.5339,49.0114 a 10.281,10.281 0 0 1 6.56,2.4528"
           id="path36" />
        <path
           fill="none"
           stroke="#f4aa41"
           stroke-linecap="round"
           stroke-miterlimit="10"
           stroke-width="2"
           d="M 21.2753,46.0059 A 10.5851,10.5851 0 0 1 27.72,48.1442"
           id="path37" />
        <path
           fill="none"
           stroke="#f4aa41"
           stroke-linecap="round"
           stroke-miterlimit="10"
           stroke-width="2"
           d="m 22.4243,43.009 a 10.5987,10.5987 0 0 1 6.1608,2.0261"
           id="path38" />
        <path
           fill="none"
           stroke="#f4aa41"
           stroke-linecap="round"
           stroke-miterlimit="10"
           stroke-width="2"
           d="m 29.8463,42.2525 a 9.9691,9.9691 0 0 0 -5.27,-2.1559"
           id="path39" />
        <path
           fill="none"
           stroke="#f4aa41"
           stroke-linecap="round"
           stroke-miterlimit="10"
           stroke-width="2"
           d="m 28.0758,37.678 a 8.7566,8.7566 0 0 1 3.575,2.3416"
           id="path40" />
      </g>
      <g
         id="g42">
        <path
           fill="none"
           stroke="#5c9e31"
           stroke-linecap="round"
           stroke-miterlimit="10"
           stroke-width="2"
           d="m 25,28 a 12.06,12.06 0 0 0 -7,5 c -2.88,4.3193 -3.686,14.8566 -3.912,20.4214"
           id="path41" />
        <path
           fill="none"
           stroke="#5c9e31"
           stroke-linecap="round"
           stroke-miterlimit="10"
           stroke-width="2"
           d="m 30,37 a 12.06,12.06 0 0 0 -7,5 c -2.2917,3.4375 -3.2693,10.81 -3.6873,16.484"
           id="path42" />
      </g>
      <polygon
         fill="#f1b31c"
         stroke="#f1b31c"
         stroke-linejoin="round"
         stroke-width="0.75"
         points="52.389,22.178 53,21.727 52.24,21.721 52,21 51.76,21.721 51,21.727 51.611,22.088 51.382,22.902 52,22.46 52.618,22.902 "
         id="polygon42" />
      <polygon
         fill="#f1b31c"
         stroke="#f1b31c"
         stroke-linejoin="round"
         stroke-width="1.5"
         points="55.715,31.477 57,30.528 55.402,30.516 54.897,29 54.392,30.426 52.794,30.528 54.08,31.477 53.597,33 54.897,32.071 56.197,33 "
         id="polygon43" />
      <polygon
         fill="#f1b31c"
         stroke="#f1b31c"
         stroke-linejoin="round"
         points="19.083,23.913 20,23.237 18.86,23.138 18.5,22.147 18.14,23.228 17,23.237 17.917,23.913 17.573,25 18.5,24.337 19.427,25 "
         id="polygon44" />
      <path
         fill="#a57939"
         stroke="#a57939"
         stroke-linecap="round"
         stroke-linejoin="round"
         stroke-width="2"
         d="M 36,64 A 27.8892,27.8892 0 0 0 54.6166,56.908 Q 55.1134,56.4655 55.5881,56 H 40 Z"
         id="path44" />
      <polygon
         fill="#a57939"
         stroke="#a57939"
         stroke-linecap="round"
         stroke-linejoin="round"
         stroke-width="2"
         points="34,56 40,56 55.588,56 58.243,53 34,53 "
         id="polygon45" />
    </g>
  </g>
  <g
     id="line"
     transform="translate(-7,-7)">
    <g
       id="g51">
      <path
         fill="none"
         stroke="#000000"
         stroke-linecap="round"
         stroke-miterlimit="10"
         stroke-width="2"
         d="M 55.341,49.341 A 2.2500138,2.2500138 0 0 1 52.159,46.159"
         id="path45" />
      <path
         fill="none"
         stroke="#000000"
         stroke-linecap="round"
         stroke-miterlimit="10"
         stroke-width="2"
         d="M 48.591,49.341 A 2.2500138,2.2500138 0 0 1 45.409,46.159"
         id="path46" />
      <path
         fill="none"
         stroke="#000000"
         stroke-linecap="round"
         stroke-miterlimit="10"
         stroke-width="2"
         d="M 41.841,49.341 A 2.2500138,2.2500138 0 0 1 38.659,46.159"
         id="path47" />
      <path
         fill="none"
         stroke="#000000"
         stroke-linecap="round"
         stroke-miterlimit="10"
         stroke-width="2"
         d="M 45.216,43.341 A 2.2500138,2.2500138 0 0 1 42.034,40.159"
         id="path48" />
      <path
         fill="none"
         stroke="#000000"
         stroke-linecap="round"
         stroke-miterlimit="10"
         stroke-width="2"
         d="M 51.966,43.341 A 2.2500138,2.2500138 0 0 1 48.784,40.159"
         id="path49" />
      <path
         fill="none"
         stroke="#000000"
         stroke-linecap="round"
         stroke-miterlimit="10"
         stroke-width="2"
         d="M 48.591,37.341 A 2.2500138,2.2500138 0 0 1 45.409,34.159"
         id="path50" />
      <polyline
         fill="none"
         stroke="#000000"
         stroke-linecap="round"
         stroke-linejoin="round"
         stroke-width="2"
         points="58.243 53 34 53 34 56"
         id="polyline50" />
      <path
         fill="none"
         stroke="#000000"
         stroke-linecap="round"
         stroke-miterlimit="10"
         stroke-width="2"
         d="M 42.364,27.364 A 9.0000551,9.0000551 0 0 1 29.636,14.636"
         id="path51" />
      <line
         x1="40"
         x2="36"
         y1="56"
         y2="64"
         fill="none"
         stroke="#000000"
         stroke-linecap="round"
         stroke-linejoin="round"
         stroke-width="2"
         id="line51" />
      <circle
         cx="36"
         cy="36"
         r="28"
         fill="none"
         stroke="#000000"
         stroke-linejoin="round"
         stroke-width="2"
         id="circle51" />
    </g>
  </g>
</svg>
