<svg xmlns="http://www.w3.org/2000/svg" xmlns:svg="http://www.w3.org/2000/svg" id="emoji" width="64.216" height="33.816" version="1.1" viewBox="0 0 64.216 33.816"><g id="color" transform="translate(-3.39215,-18.69215)"><path id="path1" fill="#d22f27" d="M 57.6,35.9 C 57.6,31 61.5,26.8 67,25.3 V 20.1 H 5 v 5.5 c 4.9,1.7 8.4,5.7 8.4,10.3 0,4.6 -3.5,8.7 -8.4,10.4 v 5.5 H 67 V 46.6 C 61.6,45.1 57.6,40.9 57.6,35.9 Z"/></g><g id="line" transform="translate(-3.39215,-18.69215)"><path id="path2" fill="none" stroke="#000" stroke-linejoin="round" stroke-miterlimit="10" stroke-width="2.216" d="m 57.1,35.6 c 0,-4.9 3.9,-9.1 9.4,-10.6 v -5.2 h -62 v 5.5 c 4.9,1.7 8.4,5.7 8.4,10.3 0,4.6 -3.5,8.6 -8.4,10.3 v 5.5 h 62 V 46.2 C 61.1,44.7 57.1,40.5 57.1,35.6 Z"/><rect id="rect2" width="34" height="20" x="18.5" y="25" fill="none" stroke="#000" stroke-linejoin="round" stroke-miterlimit="10" stroke-width="2.095"/></g><g id="color-foreground" transform="translate(-3.39215,-18.69215)"><rect id="rect3" width="34" height="20" x="18.5" y="25" fill="none" stroke="#fff" stroke-linejoin="round" stroke-miterlimit="10" stroke-width="2.1"/></g></svg>