<svg xmlns="http://www.w3.org/2000/svg" xmlns:svg="http://www.w3.org/2000/svg" id="emoji" width="37.856" height="59.812" version="1.1" viewBox="0 0 37.856 59.812"><g id="color" transform="translate(-17.197147,-7.0937704)"><path id="path1" fill="#d22f27" d="M 21.8,62.4 33,66 53,23.3 C 55.9,17.3 53,9.9 47.3,8"/><polyline id="polyline1" fill="#ea5a47" points="45 48.5 38.5 61.6 40.2 65 51.4 61.5"/><path id="path2" fill="#ea5a47" d="m 25,8 c -5.8,1.9 -8.6,9.2 -5.8,15.3 L 28,42.2 34.4,28.4"/><polygon id="polygon2" fill="#d22f27" points="25.3 7.2 31.3 20 41 20 46.9 7.2"/></g><g id="line" transform="translate(-17.197147,-7.0937704)"><path id="path3" fill="none" stroke="#000" stroke-linecap="round" stroke-linejoin="round" stroke-miterlimit="10" stroke-width="1.813" d="M 21.8,62.4 33,66 53,23.3 C 55.9,17.3 53,9.9 47.3,8 Z"/><polyline id="polyline3" fill="none" stroke="#000" stroke-linecap="round" stroke-linejoin="round" stroke-miterlimit="10" stroke-width="1.813" points="38.9 62.4 40.2 65 51.4 61.5 45.4 49.3"/><path id="path4" fill="none" stroke="#000" stroke-linecap="round" stroke-linejoin="round" stroke-miterlimit="10" stroke-width="1.813" d="M 34.2,27.6 25,8 c -5.8,1.9 -8.6,9.2 -5.8,15.3 l 8.5,18.3"/><line id="line4" x1="33.7" x2="38.3" y1="19.1" y2="19.1" fill="none" stroke="#000" stroke-linecap="round" stroke-linejoin="round" stroke-miterlimit="10" stroke-width="1.813"/><line id="line5" x1="43.7" x2="28.6" y1="8.1" y2="8.1" fill="none" stroke="#000" stroke-linecap="round" stroke-linejoin="round" stroke-miterlimit="10" stroke-width="1.813"/></g></svg>