<?xml version="1.0" encoding="UTF-8" standalone="no"?>
<svg
   id="emoji"
   viewBox="0 0 37.855705 59.812458"
   version="1.1"
   sodipodi:docname="1f397.svg"
   width="37.855705"
   height="59.812458"
   xmlns:inkscape="http://www.inkscape.org/namespaces/inkscape"
   xmlns:sodipodi="http://sodipodi.sourceforge.net/DTD/sodipodi-0.dtd"
   xmlns="http://www.w3.org/2000/svg"
   xmlns:svg="http://www.w3.org/2000/svg">
  <defs
     id="defs5" />
  <sodipodi:namedview
     id="namedview5"
     pagecolor="#ffffff"
     bordercolor="#000000"
     borderopacity="0.25"
     inkscape:showpageshadow="2"
     inkscape:pageopacity="0.0"
     inkscape:pagecheckerboard="0"
     inkscape:deskcolor="#d1d1d1" />
  <g
     id="color"
     transform="translate(-17.197147,-7.0937704)">
    <path
       fill="#d22f27"
       d="M 21.8,62.4 33,66 53,23.3 C 55.9,17.3 53,9.9 47.3,8"
       id="path1" />
    <polyline
       fill="#ea5a47"
       points="45,48.5 38.5,61.6 40.2,65 51.4,61.5"
       id="polyline1" />
    <path
       fill="#ea5a47"
       d="m 25,8 c -5.8,1.9 -8.6,9.2 -5.8,15.3 L 28,42.2 34.4,28.4"
       id="path2" />
    <polygon
       fill="#d22f27"
       points="25.3,7.2 31.3,20 41,20 46.9,7.2 "
       id="polygon2" />
  </g>
  <g
     id="hair"
     transform="translate(-17.197147,-7.0937704)" />
  <g
     id="skin"
     transform="translate(-17.197147,-7.0937704)" />
  <g
     id="skin-shadow"
     transform="translate(-17.197147,-7.0937704)" />
  <g
     id="line"
     transform="translate(-17.197147,-7.0937704)">
    <path
       fill="none"
       stroke="#000000"
       stroke-linecap="round"
       stroke-linejoin="round"
       stroke-miterlimit="10"
       stroke-width="1.8125"
       d="M 21.8,62.4 33,66 53,23.3 C 55.9,17.3 53,9.9 47.3,8 Z"
       id="path3" />
    <polyline
       fill="none"
       stroke="#000000"
       stroke-linecap="round"
       stroke-linejoin="round"
       stroke-miterlimit="10"
       stroke-width="1.8125"
       points="38.9,62.4 40.2,65 51.4,61.5 45.4,49.3"
       id="polyline3" />
    <path
       fill="none"
       stroke="#000000"
       stroke-linecap="round"
       stroke-linejoin="round"
       stroke-miterlimit="10"
       stroke-width="1.8125"
       d="M 34.2,27.6 25,8 c -5.8,1.9 -8.6,9.2 -5.8,15.3 l 8.5,18.3"
       id="path4" />
    <line
       x1="33.700001"
       x2="38.299999"
       y1="19.1"
       y2="19.1"
       fill="none"
       stroke="#000000"
       stroke-linecap="round"
       stroke-linejoin="round"
       stroke-miterlimit="10"
       stroke-width="1.8125"
       id="line4" />
    <line
       x1="43.700001"
       x2="28.6"
       y1="8.1000004"
       y2="8.1000004"
       fill="none"
       stroke="#000000"
       stroke-linecap="round"
       stroke-linejoin="round"
       stroke-miterlimit="10"
       stroke-width="1.8125"
       id="line5" />
  </g>
</svg>
