<svg xmlns="http://www.w3.org/2000/svg" xmlns:svg="http://www.w3.org/2000/svg" id="emoji" width="61.115" height="60.638" version="1.1" viewBox="0 0 61.115 60.638"><g id="color" transform="translate(-4.9136104,-5.4261035)"><path id="path1" fill="#fcea2b" stroke="none" d="M 48.7127,23.515 C 45.2848,19.9628 44.6843,14.7314 46.8445,10.5816 L 43.2436,6.8501 6.8857,41.9362 l 3.8016,3.9394 c 4.0722,-1.5735 8.8681,-0.6711 12.09,2.6676 3.2219,3.3387 3.9531,8.1636 2.2356,12.1773 l 3.8016,3.9394 36.3579,-35.0861 -3.6009,-3.7315 c -4.2242,2.0111 -9.4309,1.2248 -12.8588,-2.3273 z"/></g><g id="line" transform="translate(-4.9136104,-5.4261035)"><path id="path2" fill="none" stroke="#000" stroke-miterlimit="10" stroke-width="2" d="M 48.1546,23.505 C 44.7267,19.9528 44.1262,14.7214 46.2864,10.5716 L 42.6855,6.8401 6.3276,41.9262 l 3.8016,3.9394 c 4.0722,-1.5735 8.8681,-0.6711 12.09,2.6676 3.2219,3.3387 3.9531,8.1636 2.2356,12.1773 l 3.8016,3.9394 36.3579,-35.0861 -3.6009,-3.7315 c -4.2242,2.0111 -9.4309,1.2249 -12.8588,-2.3273 z"/><circle id="ellipse2" cx="37.122" cy="22.122" r="2" fill="#000" stroke="none" transform="matrix(0.7098,-0.7044,0.7044,0.7098,-4.8096,32.5704)"/><circle id="ellipse3" cx="43.612" cy="28.661" r="2" fill="#000" stroke="none" transform="matrix(0.7098,-0.7044,0.7044,0.7098,-7.5322,39.0393)"/><circle id="ellipse4" cx="50.101" cy="35.199" r="2" fill="#000" stroke="none" transform="matrix(0.7098,-0.7044,0.7044,0.7098,-10.2548,45.5083)"/></g></svg>