<?xml version="1.0" encoding="UTF-8" standalone="no"?>
<svg
   id="emoji"
   viewBox="0 0 56.18108 42.787899"
   version="1.1"
   sodipodi:docname="1f3a5.svg"
   width="56.18108"
   height="42.787899"
   xmlns:inkscape="http://www.inkscape.org/namespaces/inkscape"
   xmlns:sodipodi="http://sodipodi.sourceforge.net/DTD/sodipodi-0.dtd"
   xmlns="http://www.w3.org/2000/svg"
   xmlns:svg="http://www.w3.org/2000/svg">
  <defs
     id="defs11" />
  <sodipodi:namedview
     id="namedview11"
     pagecolor="#ffffff"
     bordercolor="#000000"
     borderopacity="0.25"
     inkscape:showpageshadow="2"
     inkscape:pageopacity="0.0"
     inkscape:pagecheckerboard="0"
     inkscape:deskcolor="#d1d1d1" />
  <g
     id="color"
     transform="translate(-5.7635193,-15.110399)">
    <circle
       cx="22.257799"
       cy="26.110399"
       r="3"
       fill="#d0cfce"
       id="circle1" />
    <circle
       cx="46.153301"
       cy="26.110399"
       r="3"
       fill="#d0cfce"
       id="circle2" />
    <path
       fill="#3f3f3f"
       d="m 46.1533,16.1104 c -5.5143,0 -10,4.4861 -10,10 0,5.5139 4.4857,10 10,10 5.5143,0 10,-4.4858 10,-10 0,-5.5142 -4.4857,-10 -10,-10 z m 0,13 c -1.6545,0 -3,-1.3459 -3,-3 0,-1.6541 1.3455,-3 3,-3 1.6545,0 3,1.3458 3,3 0,1.6542 -1.3454,3 -3,3 z"
       id="path2" />
    <path
       fill="#3f3f3f"
       d="m 22.2578,16.1104 c -5.5143,0 -10,4.4861 -10,10 0,5.5139 4.4857,10 10,10 5.5143,0 10,-4.4858 10,-10 0,-5.5139 -4.4857,-10 -10,-10 z m 0,13 c -1.6545,0 -3,-1.3459 -3,-3 0,-1.6541 1.3455,-3 3,-3 1.6545,0 3,1.3458 3,3 0,1.6542 -1.3454,3 -3,3 z"
       id="path3" />
    <path
       fill="#3f3f3f"
       d="m 20.429,44.2365 6.998,0.8154 c 0.3759,-0.1465 2.8419,-0.3707 2.8419,-0.3707 0,0 2.8139,1.7829 3.188,4.5719 0.375,2.7901 -4.6428,3.8145 -4.8684,3.8145 -2.5157,0 -3.6289,-4.5602 -3.6328,-4.6031 l -4.5267,-0.6947 0.5692,2.2492 c 0.286,1.1299 0.4249,2.292 0.4134,3.4575 l -0.0159,1.6137 c 0,0.4463 1.3875,1.8082 1.865,1.8082 H 48.0875 V 40.0308 H 20.429 v 4.2058 z"
       id="path4" />
    <polygon
       fill="#9b9b9a"
       points="51.886,42.7725 51.7275,42.8271 51.7224,42.8302 "
       id="polygon4" />
    <path
       fill="#9b9b9a"
       d="m 61.1825,54.9705 -0.2379,-13.609 c 0,0 -9.2885,1.4989 -9.2459,1.4826 0.0088,-0.0034 0.0155,-0.0095 0.0237,-0.0139 l -3.4454,0.9831 v 9.2196 l 3.6286,1.0345 -0.1419,-0.043 c -0.0176,-0.0053 9.4188,0.9461 9.4188,0.9461 z"
       id="path5" />
    <path
       fill="#d0cfce"
       d="m 24.2184,48.4645 c 0.113,0.0207 2.5968,3.5392 2.6747,3.604 0.0641,0.0534 3.3897,1.0268 3.6015,0.9991 0.2104,-0.0282 2.2949,-2.0265 2.3537,-2.1349 0.0182,-0.0336 1.1749,-1.7591 0.8288,-3.2001 -0.2426,-1.0102 -2.0037,-1.8806 -2.0689,-1.9302 -0.1583,-0.1204 -3.6895,-0.7349 -3.6999,-0.7367 0,0 -15.5371,-2.5602 -15.6504,-2.6373 l -4.3653,-3.5156 -1.3312,8.0498 4.7444,-0.7342 c 0.1113,-0.0176 12.9126,2.2361 12.9126,2.2361 z"
       id="path6" />
  </g>
  <g
     id="line"
     transform="translate(-5.7635193,-15.110399)">
    <path
       fill="none"
       stroke="#000000"
       stroke-linecap="round"
       stroke-linejoin="round"
       stroke-width="2"
       d="M 21.3957,40.0307 H 48.0875 V 56.8983 H 23.2607 c -1.03,0 -1.865,-0.8095 -1.865,-1.8082 v -3.1238"
       id="path7" />
    <path
       fill="none"
       stroke="#000000"
       stroke-linecap="round"
       stroke-linejoin="round"
       stroke-width="2"
       d="m 7.9148,39.3892 -1.1513,7.5734 5.0161,-0.7784 13.5947,2.4922 c -0.0187,0.2723 -0.0103,0.5506 0.0275,0.8316 0.3018,2.2475 2.3682,3.8244 4.6154,3.5226 2.2475,-0.3018 3.8245,-2.3681 3.5227,-4.6156 -0.3018,-2.2473 -2.3682,-3.8243 -4.6156,-3.5224 -0.4237,0.0569 -0.8235,0.1768 -1.1914,0.3485 L 12.4655,42.4422 Z"
       id="path8" />
    <circle
       cx="46.153702"
       cy="26.110399"
       r="10"
       fill="none"
       stroke="#000000"
       stroke-linecap="round"
       stroke-linejoin="round"
       stroke-width="2"
       id="circle8" />
    <circle
       cx="46.153702"
       cy="26.110399"
       r="3"
       fill="none"
       stroke="#000000"
       stroke-linecap="round"
       stroke-linejoin="round"
       stroke-width="2"
       id="circle9" />
    <circle
       cx="22.2579"
       cy="26.110399"
       r="10"
       fill="none"
       stroke="#000000"
       stroke-linecap="round"
       stroke-linejoin="round"
       stroke-width="2"
       id="circle10" />
    <circle
       cx="22.2579"
       cy="26.110399"
       r="3"
       fill="none"
       stroke="#000000"
       stroke-linecap="round"
       stroke-linejoin="round"
       stroke-width="2"
       id="circle11" />
    <polyline
       fill="none"
       stroke="#000000"
       stroke-linecap="round"
       stroke-linejoin="round"
       stroke-width="2"
       points="52.0534 53.0676 60.9446 55.1814 60.9446 41.3615 52.0534 43.7729"
       id="polyline11" />
  </g>
</svg>
