<svg xmlns="http://www.w3.org/2000/svg" xmlns:svg="http://www.w3.org/2000/svg" id="emoji" width="60.462" height="64.016" version="1.1" viewBox="0 0 60.462 64.016"><g id="color" transform="translate(-6.0936003,-3.8299999)"><polygon id="polygon1" fill="#61b2e4" points="30.098 66.846 33.636 37.325 17.31 66.846"/><polygon id="polygon2" fill="#61b2e4" points="39.859 66.846 36.386 37.606 52.647 66.846"/><polyline id="polyline2" fill="#92d3f5" points="46.53 55.464 38.967 41.393 37.759 42.092 45.968 66.846 52.647 66.846 47.205 56.719"/><polygon id="polygon3" fill="#92d3f5" points="30.183 66.24 33.487 42.816 31.703 42.584 24.001 66.24"/><line id="line3" x1="38.327" x2="50.599" y1="29.961" y2="17.69" fill="none" stroke="#9b9b9a" stroke-linecap="round" stroke-linejoin="round" stroke-width="2"/><line id="line4" x1="19.267" x2="32.36" y1="49.049" y2="35.956" fill="none" stroke="#9b9b9a" stroke-linecap="round" stroke-linejoin="round" stroke-width="2"/><line id="line5" x1="56.918" x2="38.901" y1="32.927" y2="32.927" fill="none" stroke="#9b9b9a" stroke-linecap="round" stroke-linejoin="round" stroke-width="2"/><line id="line6" x1="50.612" x2="37.63" y1="48.676" y2="35.694" fill="none" stroke="#9b9b9a" stroke-linecap="round" stroke-linejoin="round" stroke-width="2"/><line id="line7" x1="31.149" x2="12.589" y1="32.946" y2="32.946" fill="none" stroke="#9b9b9a" stroke-linecap="round" stroke-linejoin="round" stroke-width="2"/><line id="line8" x1="32.207" x2="19.253" y1="30.299" y2="17.345" fill="none" stroke="#9b9b9a" stroke-linecap="round" stroke-linejoin="round" stroke-width="2"/><line id="line9" x1="35.532" x2="35.532" y1="29.051" y2="10.492" fill="none" stroke="#9b9b9a" stroke-linecap="round" stroke-linejoin="round" stroke-width="2"/><circle id="circle9" cx="34.734" cy="33.066" r="24.855" fill="none" stroke="#9b9b9a" stroke-miterlimit="10"/><circle id="circle10" cx="11.682" cy="20.785" r="4.588" fill="#f4aa41"/><circle id="circle11" cx="42.121" cy="9.418" r="4.588" fill="#f4aa41"/><circle id="circle12" cx="60.916" cy="32.206" r="4.64" fill="#f4aa41"/><circle id="circle13" cx="47.91" cy="55.464" r="4.64" fill="#f4aa41"/><circle id="circle14" cx="13.141" cy="47.132" r="4.588" fill="#f4aa41"/></g><g id="line" transform="translate(-6.0936003,-3.8299999)"><line id="line14" x1="31.953" x2="33.176" y1="55.464" y2="37.325" fill="none" stroke="#000" stroke-linecap="round" stroke-linejoin="round" stroke-width="2"/><polyline id="polyline14" fill="none" stroke="#000" stroke-linecap="round" stroke-linejoin="round" stroke-width="2" points="30.692 62.634 30.098 66.846 17.31 66.846 22.578 57.044"/><line id="line15" x1="32.676" x2="23.747" y1="37.325" y2="52.973" fill="none" stroke="#000" stroke-linecap="round" stroke-linejoin="round" stroke-width="2"/><line id="line16" x1="38.004" x2="36.092" y1="55.464" y2="37.093" fill="none" stroke="#000" stroke-linecap="round" stroke-linejoin="round" stroke-width="2"/><polyline id="polyline16" fill="none" stroke="#000" stroke-linecap="round" stroke-linejoin="round" stroke-width="2" points="39.289 62.804 39.859 66.846 52.647 66.846 48.929 60"/><line id="line17" x1="36.092" x2="44.277" y1="37.093" y2="51.387" fill="none" stroke="#000" stroke-linecap="round" stroke-linejoin="round" stroke-width="2"/><path id="path17" fill="none" stroke="#000" stroke-linecap="round" stroke-linejoin="round" stroke-width="2" d="m 60.6462,36.8379 c -0.8781,6.0565 -3.8539,11.6127 -8.4087,15.7"/><path id="path18" fill="none" stroke="#000" stroke-linecap="round" stroke-linejoin="round" stroke-width="2" d="m 47.2811,10.0812 c 6.636,3.6279 11.3827,9.944 13.0219,17.3271"/><path id="path19" fill="none" stroke="#000" stroke-linecap="round" stroke-linejoin="round" stroke-width="2" d="m 14.4392,16.5242 c 4.9676,-6.1062 12.4233,-9.6476 20.295,-9.64 0.894,-10e-5 1.7875,0.045 2.6769,0.1352"/><path id="path20" fill="none" stroke="#000" stroke-linecap="round" stroke-linejoin="round" stroke-width="2" d="M 10.4568,42.8873 C 8.2097,37.3075 7.9429,31.1261 9.7009,25.3734"/><path id="path21" fill="none" stroke="#000" stroke-linecap="round" stroke-linejoin="round" stroke-width="2" d="M 43.7629,57.65 C 33.8989,61.2619 22.8313,58.6369 15.64,50.98"/><path id="path22" fill="none" stroke="#000" stroke-linecap="round" stroke-miterlimit="10" stroke-width="2" d="m 37.1632,36.16 c -1.7857,1.181 -4.1906,0.6907 -5.3716,-1.095 -1.181,-1.7857 -0.6907,-4.1906 1.095,-5.3716 1.7857,-1.181 4.1906,-0.6907 5.3716,1.095 0.4194,0.6342 0.6431,1.3777 0.6431,2.138"/><line id="line22" x1="37.969" x2="50.24" y1="29.603" y2="17.331" fill="none" stroke="#000" stroke-linecap="round" stroke-linejoin="round" stroke-width="2"/><line id="line23" x1="18.909" x2="32.001" y1="48.69" y2="35.598" fill="none" stroke="#000" stroke-linecap="round" stroke-linejoin="round" stroke-width="2"/><line id="line24" x1="31.849" x2="18.895" y1="30.657" y2="17.703" fill="none" stroke="#000" stroke-linecap="round" stroke-linejoin="round" stroke-width="2"/><line id="line25" x1="50.254" x2="37.271" y1="49.035" y2="36.052" fill="none" stroke="#000" stroke-linecap="round" stroke-linejoin="round" stroke-width="2"/><line id="line26" x1="31.149" x2="12.589" y1="33.453" y2="33.453" fill="none" stroke="#000" stroke-linecap="round" stroke-linejoin="round" stroke-width="2"/><line id="line27" x1="56.276" x2="38.901" y1="33.433" y2="33.433" fill="none" stroke="#000" stroke-linecap="round" stroke-linejoin="round" stroke-width="2"/><line id="line28" x1="35.025" x2="35.025" y1="29.051" y2="10.492" fill="none" stroke="#000" stroke-linecap="round" stroke-linejoin="round" stroke-width="2"/><circle id="circle28" cx="11.682" cy="20.785" r="4.588" fill="none" stroke="#000" stroke-miterlimit="10" stroke-width="2"/><circle id="circle29" cx="42.121" cy="9.418" r="4.588" fill="none" stroke="#000" stroke-miterlimit="10" stroke-width="2"/><path id="path29" fill="none" stroke="#000" stroke-miterlimit="10" stroke-width="2" d="m 65.5556,32.2058 c 0,2.5626 -2.0774,4.64 -4.64,4.64 -0.0908,0 -0.1808,-0.0026 -0.27,-0.0077 -2.5583,-0.1491 -4.5113,-2.3439 -4.3621,-4.9021 0.1492,-2.5582 2.3439,-4.5113 4.9021,-4.3621 2.4536,0.143 4.3701,2.1745 4.37,4.6323 v -3e-4 z"/><path id="path30" fill="none" stroke="#000" stroke-miterlimit="10" stroke-width="2" d="m 52.5492,55.4635 c 0,2.5626 -2.0774,4.64 -4.64,4.64 -2.5626,0 -4.64,-2.0774 -4.64,-4.64 0,-2.5626 2.0774,-4.64 4.64,-4.64 v 0 c 2.5623,8e-4 4.6392,2.0777 4.64,4.64 z"/><circle id="circle30" cx="13.141" cy="47.132" r="4.588" fill="none" stroke="#000" stroke-miterlimit="10" stroke-width="2"/></g></svg>