<?xml version="1.0" encoding="UTF-8" standalone="no"?>
<svg
   id="emoji"
   viewBox="0 0 63.699783 63.981594"
   version="1.1"
   sodipodi:docname="1f3a3.svg"
   width="63.699783"
   height="63.981594"
   xmlns:inkscape="http://www.inkscape.org/namespaces/inkscape"
   xmlns:sodipodi="http://sodipodi.sourceforge.net/DTD/sodipodi-0.dtd"
   xmlns="http://www.w3.org/2000/svg"
   xmlns:svg="http://www.w3.org/2000/svg">
  <defs
     id="defs13" />
  <sodipodi:namedview
     id="namedview13"
     pagecolor="#ffffff"
     bordercolor="#000000"
     borderopacity="0.25"
     inkscape:showpageshadow="2"
     inkscape:pageopacity="0.0"
     inkscape:pagecheckerboard="0"
     inkscape:deskcolor="#d1d1d1" />
  <g
     id="color"
     transform="translate(-4.1501146,-4.0146826)">
    <path
       fill="#92d3f5"
       d="m 46.8612,65.5371 -1.6868,0.8404 c -0.7318,0.3646 -1.579,-0.3197 -1.2981,-1.065 1.1586,-3.0731 5.3156,-4.8418 5.3156,-4.8418 C 43.1734,53.957 43.5092,45.7613 43.5092,45.7613 43.165,33.286 51.0838,33 51.0838,33 c 0,0 8.6088,0 9.6976,12.9822 0,0 0.0474,6.5397 -7.5845,14.4886 0,0 4.139,1.7874 5.1468,4.8905 0.2414,0.7433 -0.5889,1.3958 -1.3077,1.0377 l -1.7297,-0.8618 c -2.648,-1.3195 -5.7971,-1.3195 -8.4451,0 z"
       id="path1" />
    <path
       fill="#92d3f5"
       d="m 43.7957,52.5248 c -0.5335,0 -4.821,0.0934 -5.5082,0.1939 v -3.9962 c 0,0 0.8311,-3.9527 5.5082,-4.8481"
       id="path2" />
    <path
       fill="#92d3f5"
       d="m 60.1265,43.0304 c 5.2256,0.144 6.7234,5.113 6.7234,5.113 l -2.928,10.7316 c -0.5235,-0.7915 -1.2329,-1.0028 -1.9989,-1.24 0,0 -2.2732,-1.1794 -3.8565,-1.0127 0,0 3.6017,-7.1961 2.06,-13.5919"
       id="path3" />
    <path
       fill="#61b2e4"
       d="m 60.1265,43.0304 c 5.2256,0.144 6.7234,5.113 6.7234,5.113 l -2.928,10.7316 c -0.5235,-0.7915 -1.2329,-1.0028 -1.9989,-1.24 0,0 -2.7732,-1.1794 -4.3565,-1.0127 0,0 4.1017,-7.1961 2.56,-13.5919"
       id="path4" />
    <path
       fill="#61b2e4"
       d="m 50.1554,64.5501 c 0,0 7.4634,1.7937 8.1571,1.7937 0,0 -0.246,-3.2812 -4.6562,-5.8438 0,0 6.4265,-6.1875 6.3838,-12.8498 C 60.0403,41.1165 57,36.754 51.0838,33.75 c 3.773,3.7525 6.4517,5.3115 6.5936,10.6042 0.0633,2.3614 -0.4224,4.6993 -1.2657,6.9059 -0.998,2.6114 -2.8893,7.0225 -6.2563,13.29 z"
       id="path5" />
    <path
       fill="#a57939"
       d="M 14.4232,49.892 10.3933,65.8756 C 6.8427,65.7962 5.8314,64.6677 5.8314,64.6677 l 3.858,-15.9324 c 0,0 1.6145,1.1567 4.7337,1.1567 z"
       id="path6" />
    <path
       fill="#6a462f"
       d="m 11.9185,49.4159 c 0.6932,0.1379 1.4569,0.2298 2.2547,0.2261 L 10.1338,65.8756 C 9.4352,65.8629 8.6439,65.7306 8.06,65.638 Z"
       id="path7" />
  </g>
  <g
     id="line"
     transform="translate(-4.1501146,-4.0146826)">
    <circle
       cx="53.910599"
       cy="41.8563"
       r="1.7664"
       id="circle7" />
    <path
       fill="none"
       stroke="#000000"
       stroke-linecap="round"
       stroke-linejoin="round"
       stroke-width="2"
       d="m 62.3565,56.721 c 0.766,0.2372 1.487,0.6866 2.0105,1.4781 l 2.4829,-10.0557 c 0,0 -1.4978,-4.969 -6.7234,-5.113"
       id="path8" />
    <path
       fill="none"
       stroke="#000000"
       stroke-linecap="round"
       stroke-linejoin="round"
       stroke-width="2"
       d="m 46.8612,66.0371 -1.6868,0.8404 c -0.7318,0.3646 -1.579,-0.3197 -1.2981,-1.065 1.1586,-3.0731 5.3156,-4.8418 5.3156,-4.8418 C 43.1734,54.457 43.5092,48.5113 43.5092,48.5113 43.165,36.036 51.0838,33 51.0838,33 c 0,0 10.0419,3.2568 9.6976,15.7322 0,0 0.0474,4.2897 -7.5845,12.2386 0,0 4.139,1.7874 5.1468,4.8905 0.2414,0.7433 -0.5889,1.3958 -1.3077,1.0377 l -1.7297,-0.8618 c -2.648,-1.3195 -5.7971,-1.3195 -8.4451,0 z"
       id="path9" />
    <path
       fill="none"
       stroke="#000000"
       stroke-linecap="round"
       stroke-linejoin="round"
       stroke-width="2"
       d="m 40.1126,51.6063 c -0.5328,0.0283 -1.138,0.0835 -1.8251,0.1733 v -3.5718 c 0,0 0.8311,-3.533 5.5082,-4.3333"
       id="path10" />
    <path
       fill="none"
       stroke="#000000"
       stroke-linecap="round"
       stroke-linejoin="round"
       stroke-width="2"
       d="m 51.0838,33 0.1114,-22.6456 c 0,0 -3.7092,-8.8284 -16.5482,-3.8128 -11.88,4.641 -18.2171,25.3384 -21.2206,38.0033"
       id="path11" />
    <path
       fill="none"
       stroke="#000000"
       stroke-linecap="round"
       stroke-linejoin="round"
       stroke-width="2"
       d="M 15.1732,49.142 10.8838,66.6256 C 7.3332,66.5462 5.1501,65.2189 5.1501,65.2189 L 9.4395,47.7353 c 0,0 2.6145,1.4067 5.7337,1.4067 z"
       id="path12" />
    <path
       fill="none"
       stroke="#000000"
       stroke-linecap="round"
       stroke-linejoin="round"
       stroke-width="2"
       d="m 6.0532,61.5291 c 0,0 2.6145,1.4067 5.7337,1.4067"
       id="path13" />
  </g>
</svg>
