<svg xmlns="http://www.w3.org/2000/svg" xmlns:svg="http://www.w3.org/2000/svg" id="emoji" width="45.044" height="50.145" version="1.1" viewBox="0 0 45.044 50.145"><g id="color" transform="translate(-11.457329,-8.8251292)"><circle id="circle1" cx="15.799" cy="30.967" r="1.511" fill="#fff" stroke="none"/><path id="path1" fill="#3f3f3f" stroke="none" d="M 16.5878,37.3974 V 54.97 c 0,1.1026 1.8975,3 3,3 l 33.6372,0.2321 c 1.1025,0 2.2763,-2.1295 2.2763,-3.2321 V 37.3974 Z"/><polygon id="polygon1" fill="#3f3f3f" stroke="none" points="51.075 15.618 43.923 11.93 41.374 12.911 48.525 16.598"/><polygon id="polygon2" fill="#3f3f3f" stroke="none" points="29.536 17.208 37.227 21.18 39.962 20.129 32.275 16.158"/><polygon id="polygon3" fill="#3f3f3f" stroke="none" points="25.326 25.719 29.71 24.073 22.085 20.067 18.639 21.715"/><polygon id="polygon4" fill="#3f3f3f" stroke="none" points="20.554 37.05 24.149 37.05 29.258 31.315 25.663 31.315"/><polygon id="polygon5" fill="#3f3f3f" stroke="none" points="32.587 37.397 35.496 37.397 41.225 30.967 38.315 30.967"/><polygon id="polygon6" fill="#3f3f3f" stroke="none" points="53.225 30.967 50.315 30.967 44.587 37.397 47.496 37.397"/><polygon id="polygon7" fill="#fff" stroke="none" points="42.481 31.451 37.614 36.913 43.331 36.913 48.198 31.451"/><polygon id="polygon8" fill="#fff" stroke="none" points="55.059 30.966 49.692 36.99 55.059 36.99"/><circle id="circle8" cx="15.799" cy="30.967" r="2.512" fill="#3f3f3f" stroke="none"/><path id="path8" fill="#fff" stroke="none" d="m 16.5271,33.8909 v 3.3443 h 3.2915 l 5.4403,-6.1061 h -6.5834 c -0.3506,1.169 -1.1208,2.1474 -2.1484,2.7618 z"/><polygon id="polygon9" fill="#fff" stroke="none" points="30.482 31.459 25.629 36.906 31.33 36.906 36.183 31.459"/><polygon id="polygon10" fill="#fff" stroke="none" points="48.478 10.216 45.93 11.195 49.577 13.075"/><polygon id="polygon11" fill="#fff" stroke="none" points="40.934 19.528 47.222 17.112 40.013 13.396 33.733 15.809"/><polygon id="polygon12" fill="#fff" stroke="none" points="29.9 23.632 35.401 21.517 28.499 17.952 23.065 20.041"/><path id="path12" fill="#fff" stroke="none" d="m 17.5363,22.2109 -4.9559,1.9047 1.5446,4.0189 c 0.3313,-0.0798 0.6724,-0.1334 1.0278,-0.1334 0.658,0 1.2769,0.155 1.8383,0.4148 0.0521,-0.0293 0.092,-0.0728 0.1495,-0.0949 l 6.9447,-2.6689 z"/></g><g id="line" transform="translate(-11.457329,-8.8251292)"><polyline id="polyline12" fill="none" stroke="#000" stroke-linecap="round" stroke-linejoin="round" stroke-miterlimit="10" stroke-width="2" points="17.741 28.643 51.088 15.828 48.781 9.825 12.457 23.784 14.195 28.306"/><path id="path13" fill="none" stroke="#000" stroke-linecap="round" stroke-linejoin="round" stroke-miterlimit="10" stroke-width="2" d="M 16.5878,37.3973 V 39.0829 54.97 c 0,1.6569 1.3431,3 3,3 h 32.9135 c 1.6569,0 3,-1.3431 3,-3 V 39.0829 37.3974 Z"/><polyline id="polyline13" fill="none" stroke="#000" stroke-linecap="round" stroke-linejoin="round" stroke-miterlimit="10" stroke-width="2" points="18.897 30.966 55.501 30.966 55.501 37.397"/><line id="line13" x1="16.588" x2="16.588" y1="37.05" y2="33.958" fill="none" stroke="#000" stroke-linecap="round" stroke-linejoin="round" stroke-miterlimit="10" stroke-width="2"/><polygon id="polygon13" fill="none" stroke="#000" stroke-linecap="round" stroke-linejoin="round" stroke-miterlimit="10" stroke-width="2" points="30.112 30.966 25.429 30.966 19.7 37.397 24.383 37.397"/><polygon id="polygon14" fill="none" stroke="#000" stroke-linecap="round" stroke-linejoin="round" stroke-miterlimit="10" stroke-width="2" points="42.112 30.966 37.429 30.966 31.7 37.397 36.383 37.397"/><polygon id="polygon15" fill="none" stroke="#000" stroke-linecap="round" stroke-linejoin="round" stroke-miterlimit="10" stroke-width="2" points="54.112 30.966 49.429 30.966 43.7 37.397 48.383 37.397"/><circle id="circle15" cx="15.799" cy="30.966" r="2.511" fill="none" stroke="#000" stroke-linecap="round" stroke-linejoin="round" stroke-miterlimit="10" stroke-width="2"/><polyline id="polyline15" fill="none" stroke="#000" stroke-linecap="round" stroke-linejoin="round" stroke-miterlimit="10" stroke-width="2" points="47.879 17.084 40.224 13.137 44.595 11.457 50.597 14.551"/><polygon id="polygon16" fill="none" stroke="#000" stroke-linecap="round" stroke-linejoin="round" stroke-miterlimit="10" stroke-width="2" points="28.746 17.536 33.119 15.859 40.771 19.811 36.399 21.489"/><polygon id="polygon17" fill="none" stroke="#000" stroke-linecap="round" stroke-linejoin="round" stroke-miterlimit="10" stroke-width="2" points="17.701 21.713 22.085 20.067 29.71 24.073 25.326 25.719"/></g></svg>