<?xml version="1.0" encoding="UTF-8" standalone="no"?>
<svg
   id="emoji"
   viewBox="0 0 56.241299 57.470573"
   version="1.1"
   sodipodi:docname="1f3a7.svg"
   width="56.241299"
   height="57.470573"
   xmlns:inkscape="http://www.inkscape.org/namespaces/inkscape"
   xmlns:sodipodi="http://sodipodi.sourceforge.net/DTD/sodipodi-0.dtd"
   xmlns="http://www.w3.org/2000/svg"
   xmlns:svg="http://www.w3.org/2000/svg">
  <defs
     id="defs11" />
  <sodipodi:namedview
     id="namedview11"
     pagecolor="#ffffff"
     bordercolor="#000000"
     borderopacity="0.25"
     inkscape:showpageshadow="2"
     inkscape:pageopacity="0.0"
     inkscape:pagecheckerboard="0"
     inkscape:deskcolor="#d1d1d1" />
  <g
     id="color"
     transform="translate(-7.8948,-6.0662)">
    <path
       fill="#9b9b9a"
       d="m 27.4471,62.5368 0.0831,-22.9125 c -3.694,1.0745 -6.6166,5.5623 -7.0765,11.8191 -0.4795,6.5166 3.4325,10.1089 6.9934,11.0934 z"
       id="path1" />
    <path
       fill="#9b9b9a"
       d="m 44.716,39.5293 -0.1605,22.9123 c 1.0262,-0.3686 2.7729,-0.836 4.6035,-2.8555 1.9968,-1.9624 2.6903,-5.3707 2.496,-8.4901 -0.1696,-2.7185 -0.8216,-5.4282 -2.0577,-7.2953 -2.1322,-3.3831 -3.875,-3.8615 -4.8813,-4.2714 z"
       id="path2" />
    <path
       fill="#d0cfce"
       d="m 44.5856,39.4457 -3.731,1.1935 -1.4506,4.4484 -0.1561,13.3758 1.7824,2.9884 3.5465,0.9244 0.0089,-22.9305 z"
       id="path3" />
    <path
       fill="#d0cfce"
       d="m 32.3654,57.7281 0.1657,-13.8114 -1.363,-3.2763 c -0.2773,-0.1438 -3.3624,-0.964 -3.3624,-0.964 -0.1306,0.2061 -0.0631,22.8996 -0.0631,22.8996 l 3.2686,-0.9966 c 0,0 1.4414,-2.482 1.3543,-3.8512 z"
       id="path4" />
    <path
       fill="#d0cfce"
       d="M 60.8332,48.2998 C 67.8044,31.3671 57.7504,18.1514 55.6002,15.5577 54.5611,14.3043 45.7782,6.8981 35.4481,7.1245 26.5006,7.3206 16.5332,14.5892 13.3523,19.4792 7.4179,29.1167 9.4003,41.0812 9.4104,41.146 c 1.6967,9.7432 4.5704,12.5976 4.5704,12.5976 0,0 1.6571,-1.4108 0.2463,-4.2996 -0.9774,-1.5277 -2.6421,-8.3268 -2.6421,-13.8249 0,-14.7353 10.5029,-25.8535 24.4296,-25.8623 13.9288,0.0088 24.4307,11.127 24.4307,25.8623 0,5.4991 -1.3411,11.4973 -2.5739,13.559 -1.6166,3.0832 0.2,4.6165 0.2,4.6165 0.2129,-0.2619 0.9494,-2.5189 2.7618,-5.4948 z"
       id="path5" />
  </g>
  <g
     id="line"
     transform="translate(-7.8948,-6.0662)">
    <path
       fill="none"
       stroke="#000000"
       stroke-linecap="round"
       stroke-linejoin="round"
       stroke-width="2"
       d="m 31.1611,40.6344 c 0.9756,0.5038 1.643,1.5194 1.643,2.6874 l -2e-4,15.5047 c -0.0651,1.2243 0.0944,1.6453 -1.8007,2.7478"
       id="path6" />
    <path
       fill="none"
       stroke="#000000"
       stroke-linecap="round"
       stroke-linejoin="round"
       stroke-width="2"
       d="m 27.5419,39.6241 c 0,0 -6.354,1.7853 -7.0674,11.4887 -0.7134,9.7034 6.9726,11.424 6.9726,11.424 z"
       id="path7" />
    <path
       fill="none"
       stroke="#000000"
       stroke-linecap="round"
       stroke-linejoin="round"
       stroke-width="2"
       d="m 40.8586,40.6258 c -0.8573,0.5269 -1.4336,1.4669 -1.4456,2.5423 l -0.1726,15.5037 c -0.0139,1.2475 0.7356,2.3231 1.8156,2.7878"
       id="path8" />
    <path
       fill="none"
       stroke="#000000"
       stroke-linecap="round"
       stroke-linejoin="round"
       stroke-width="2"
       d="m 44.716,39.5293 c 0,0 6.3337,1.8559 6.939,11.5667 0.6052,9.7107 -7.0995,11.3456 -7.0995,11.3456 z"
       id="path9" />
    <path
       fill="none"
       stroke="#000000"
       stroke-linecap="round"
       stroke-linejoin="round"
       stroke-width="2"
       d="m 58.0474,53.8081 c 3.209,-5.0583 5.0887,-11.1701 5.0887,-18.1887 0,-15.7593 -11.3519,-28.5359 -27.1053,-28.5525 v -7e-4 c -0.0053,0 -0.0102,2e-4 -0.0154,2e-4 -0.0051,0 -0.0102,-2e-4 -0.0153,-2e-4 v 7e-4 C 20.2467,7.0835 8.8948,19.8601 8.8948,35.6194 c 0,7.0186 1.8794,13.1304 5.0884,18.1887"
       id="path10" />
    <path
       fill="none"
       stroke="#000000"
       stroke-linecap="round"
       stroke-linejoin="round"
       stroke-width="2"
       d="M 50.2136,20.1939 C 47.0814,15.7503 42.0471,12.8818 36.0254,12.8755 v -5e-4 c -0.0034,0 -0.0066,10e-5 -0.01,10e-5 -0.0033,0 -0.0066,-10e-5 -0.0099,-10e-5 v 5e-4 c -5.9961,0.0063 -11.0132,2.8504 -14.1482,7.2618"
       id="path11" />
  </g>
</svg>
