<?xml version="1.0" encoding="UTF-8" standalone="no"?>
<svg
   id="emoji"
   viewBox="0 0 66 52.586102"
   version="1.1"
   sodipodi:docname="1f3a9.svg"
   width="66"
   height="52.586102"
   xmlns:inkscape="http://www.inkscape.org/namespaces/inkscape"
   xmlns:sodipodi="http://sodipodi.sourceforge.net/DTD/sodipodi-0.dtd"
   xmlns="http://www.w3.org/2000/svg"
   xmlns:svg="http://www.w3.org/2000/svg">
  <defs
     id="defs3" />
  <sodipodi:namedview
     id="namedview3"
     pagecolor="#ffffff"
     bordercolor="#000000"
     borderopacity="0.25"
     inkscape:showpageshadow="2"
     inkscape:pageopacity="0.0"
     inkscape:pagecheckerboard="0"
     inkscape:deskcolor="#d1d1d1" />
  <g
     id="color"
     transform="translate(-3.5,-6.0833)">
    <path
       fill="#fcea2b"
       d="m 52.4776,51.4994 -15.7387,1.9401 c -0.0392,0.0023 -0.3512,0.0023 -0.3903,0 L 20.5882,52.1263 C 20.0136,52.0928 19.5669,51.6457 19.5394,51.0087 L 18.6122,33.2485 c -0.0306,-0.7084 0.4794,-1.3014 1.1193,-1.3014 h 33.2341 c 0.6297,0 1.4478,0.5931 1.4322,1.2909 l -0.8589,17.0518 c -0.0145,0.6486 -0.4769,1.1755 -1.0614,1.2096 v 0 z"
       id="path1" />
    <polygon
       fill="#3f3f3f"
       points="16.5,7.0833 17.645,32.3764 55.355,32.3764 56.5,7.0833 "
       id="polygon1" />
    <path
       fill="#3f3f3f"
       d="m 54.5,51.262 c 0,0 -11.2908,1.7703 -17.5,1.7703 -6.2092,0 -18.5,-1.7703 -18.5,-1.7703 -7.3129,-1.1586 -14,-2.0756 -14,-0.04 0,3.5608 14.3269,6.4474 32,6.4474 17.6731,0 32,-2.8866 32,-6.4474 0,-2.0356 -6.6871,-1.1186 -14,0.04 z"
       id="path2" />
  </g>
  <g
     id="line"
     transform="translate(-3.5,-6.0833)">
    <polygon
       fill="none"
       stroke="#000000"
       stroke-linecap="round"
       stroke-linejoin="round"
       stroke-width="2"
       points="56.5,7.0833 16.5,7.0833 18.3184,47.2519 17.645,32.3764 55.355,32.3764 54.6817,47.2519 "
       id="polygon2" />
    <path
       fill="none"
       stroke="#000000"
       stroke-linecap="round"
       stroke-linejoin="round"
       stroke-width="2"
       d="m 54.5,51.262 c 0,0 -11.2908,1.7703 -17.5,1.7703 -6.2092,0 -18.5,-1.7703 -18.5,-1.7703 -7.3129,-1.1586 -14,-2.0756 -14,-0.04 0,3.5608 14.3269,6.4474 32,6.4474 17.6731,0 32,-2.8866 32,-6.4474 0,-2.0356 -6.6871,-1.1186 -14,0.04 z"
       id="path3" />
  </g>
</svg>
