<svg xmlns="http://www.w3.org/2000/svg" xmlns:svg="http://www.w3.org/2000/svg" id="emoji" width="55.071" height="36.287" version="1.1" viewBox="0 0 55.071 36.287"><g id="color" transform="translate(-11.08,-17.856501)"><path id="path1" fill="#fff" fill-rule="evenodd" d="M 12.08,19.86 H 57.03 V 52.13 H 12.08 Z"/><line id="line1" x1="13.23" x2="55.87" y1="22.52" y2="22.52" fill="none" stroke="#9b9b9a" stroke-linecap="round" stroke-linejoin="round" stroke-width="2.305"/><line id="line2" x1="13.23" x2="55.87" y1="49.72" y2="49.72" fill="none" stroke="#9b9b9a" stroke-linecap="round" stroke-linejoin="round" stroke-width="2.305"/><circle id="circle2" cx="62.73" cy="30.73" r="2.593" fill="#ea5a47"/><path id="path2" fill="#d22f27" d="m 64.01,28.68 c 0.7732,1.2034 0.4244,2.8058 -0.7791,3.579 -0.8529,0.5479 -1.947,0.5479 -2.7999,0 0.7695,1.2071 2.3719,1.5618 3.579,0.7923 1.2071,-0.7695 1.5618,-2.3719 0.7923,-3.579 C 64.5991,29.1536 64.3287,28.8832 64.01,28.68 Z"/></g><g id="line" transform="translate(-11.08,-17.856501)"><line id="line3" x1="13.23" x2="55.87" y1="19.86" y2="19.86" fill="none" stroke="#000" stroke-linecap="round" stroke-linejoin="round" stroke-width="2.305"/><line id="line4" x1="12.08" x2="12.08" y1="52.14" y2="19.86" fill="none" stroke="#000" stroke-linecap="round" stroke-linejoin="round" stroke-width="2"/><line id="line5" x1="55.95" x2="13.15" y1="52.14" y2="52.14" fill="none" stroke="#000" stroke-linecap="round" stroke-linejoin="round" stroke-width="4.007"/><line id="line6" x1="13.15" x2="55.95" y1="19.86" y2="19.86" fill="none" stroke="#000" stroke-linecap="round" stroke-linejoin="round" stroke-width="4.007"/><line id="line7" x1="27.06" x2="27.06" y1="19.86" y2="52.14" fill="none" stroke="#000" stroke-linecap="round" stroke-linejoin="round" stroke-width="2"/><line id="line8" x1="42.04" x2="42.04" y1="19.86" y2="52.14" fill="none" stroke="#000" stroke-linecap="round" stroke-linejoin="round" stroke-width="2"/><line id="line9" x1="57.273" x2="62.91" y1="47.67" y2="47.67" fill="none" stroke="#000" stroke-linecap="round" stroke-linejoin="round" stroke-width="1.916"/><line id="line10" x1="62.91" x2="62.91" y1="47.42" y2="34" fill="none" stroke="#000" stroke-linecap="round" stroke-linejoin="round" stroke-width="2"/><circle id="circle10" cx="62.91" cy="30.73" r="2.593" fill="none" stroke="#000" stroke-miterlimit="10" stroke-width="1.297"/><polyline id="polyline10" fill="none" stroke="#000" stroke-linecap="round" stroke-linejoin="round" stroke-width="2" points="17.3 35.69 17.3 33.7 21.84 33.7 19.03 41.77"/><polyline id="polyline11" fill="none" stroke="#000" stroke-linecap="round" stroke-linejoin="round" stroke-width="2" points="32.28 31.23 32.28 29.24 36.82 29.24 34.02 37.3"/><polyline id="polyline12" fill="none" stroke="#000" stroke-linecap="round" stroke-linejoin="round" stroke-width="2" points="47.26 35.69 47.26 33.7 51.8 33.7 49 41.77"/><line id="line12" x1="57.02" x2="57.02" y1="19.86" y2="52.14" fill="none" stroke="#000" stroke-linecap="round" stroke-linejoin="round" stroke-width="2"/></g><g id="color-foreground" transform="translate(-11.08,-17.856501)"><polyline id="polyline13" fill="none" stroke="#d22f27" stroke-linecap="round" stroke-linejoin="round" stroke-width="2" points="17.3 35.69 17.3 33.7 21.84 33.7 19.03 41.77"/><polyline id="polyline14" fill="none" stroke="#d22f27" stroke-linecap="round" stroke-linejoin="round" stroke-width="2" points="32.28 31.23 32.28 29.24 36.82 29.24 34.02 37.3"/><polyline id="polyline15" fill="none" stroke="#d22f27" stroke-linecap="round" stroke-linejoin="round" stroke-width="2" points="47.26 35.69 47.26 33.7 51.8 33.7 49 41.77"/></g></svg>