<?xml version="1.0" encoding="UTF-8" standalone="no"?>
<svg
   id="emoji"
   viewBox="0 0 64.077553 64.319298"
   version="1.1"
   sodipodi:docname="1f3b3.svg"
   width="64.077553"
   height="64.319298"
   xmlns:inkscape="http://www.inkscape.org/namespaces/inkscape"
   xmlns:sodipodi="http://sodipodi.sourceforge.net/DTD/sodipodi-0.dtd"
   xmlns="http://www.w3.org/2000/svg"
   xmlns:svg="http://www.w3.org/2000/svg">
  <defs
     id="defs39" />
  <sodipodi:namedview
     id="namedview39"
     pagecolor="#ffffff"
     bordercolor="#000000"
     borderopacity="0.25"
     inkscape:showpageshadow="2"
     inkscape:pageopacity="0.0"
     inkscape:pagecheckerboard="0"
     inkscape:deskcolor="#d1d1d1" />
  <g
     id="color"
     transform="translate(-3.9983006,-3.8322499)">
    <path
       fill="#d0cfce"
       d="m 24.239,20 h -7.2109 a 7.1536,7.1536 0 0 1 0.0252,2 h 7.1534 a 7.18,7.18 0 0 1 0.0323,-2 z"
       id="path1" />
    <path
       fill="#d0cfce"
       d="M 26.9557,11.3057 A 6.4946,6.4946 0 0 0 20.6339,4.9838 6.3219,6.3219 0 0 0 14.312,11.3057 l -0.0044,-0.026 c 0.05,2.2573 1.4038,4.4042 2.2124,6.72 h 8.2325 c 0.8095,-2.306 2.1536,-4.4452 2.2032,-6.694 z"
       id="path2" />
    <path
       fill="#d0cfce"
       d="M 27.2917,27.47 A 11.7467,11.7467 0 0 1 24.78,24 h -8.309 a 11.7743,11.7743 0 0 1 -2.4995,3.4438 c -9.2582,9.2582 -5.8275,25.063 1.1162,39.53 L 15,67 H 26.1756 C 33.1192,52.5328 36.55,36.7281 27.2917,27.47 Z"
       id="path3" />
    <path
       fill="#ea5a47"
       d="M 24.2067,22 H 17.0533 A 7.1754,7.1754 0 0 1 16.471,24 H 24.78 A 7.1557,7.1557 0 0 1 24.2067,22 Z"
       id="path4" />
    <path
       fill="#ea5a47"
       d="M 24.7525,18 H 16.52 a 10.7607,10.7607 0 0 1 0.5081,2 h 7.2109 a 10.8478,10.8478 0 0 1 0.5135,-2 z"
       id="path5" />
    <path
       fill="#9b9b9a"
       d="m 22.1624,22 h 2.0436 a 7.1759,7.1759 0 0 1 0.0323,-2 H 22.173 c -0.0313,0.6477 -0.0398,1.3118 -0.0106,2 z"
       id="path6" />
    <path
       fill="#9b9b9a"
       d="M 23.0568,11.3057 A 63.054,63.054 0 0 1 22.34,18 h 2.4118 c 0.8095,-2.3063 2.1536,-4.4455 2.2032,-6.6943 A 6.5112,6.5112 0 0 0 21.1769,5.0143 c 1.0552,0.3063 1.9014,3.297 1.8799,6.2914 z"
       id="path7" />
    <path
       fill="#9b9b9a"
       d="M 27.291,27.47 A 11.7454,11.7454 0 0 1 24.7792,24 h -2.43 a 20.8439,20.8439 0 0 0 0.8172,3.47 c 3.0122,9.2582 1.896,25.0629 -0.3631,39.53 l 3.3482,-0.3277 C 33.0948,52.2052 36.5492,36.7281 27.291,27.47 Z"
       id="path8" />
    <path
       fill="#d22f27"
       d="m 22.3489,24 h 2.43 a 7.1587,7.1587 0 0 1 -0.5732,-2 h -2.0433 a 19.7444,19.7444 0 0 0 0.1865,2 z"
       id="path9" />
    <path
       fill="#d22f27"
       d="m 22.173,20 h 2.0653 a 10.84,10.84 0 0 1 0.5135,-2 H 22.34 c -0.0744,0.6511 -0.1341,1.3159 -0.167,2 z"
       id="path10" />
    <path
       fill="#d0cfce"
       d="m 21,4.9838 h -7e-4 v 0.02 c 0.0591,0.0038 0.1189,0.0044 0.1776,0.01 A 0.636,0.636 0 0 0 21,4.9838 Z"
       id="path11" />
    <path
       fill="#d0cfce"
       d="m 41.239,20 h -7.2109 a 7.1536,7.1536 0 0 1 0.0252,2 h 7.1534 a 7.18,7.18 0 0 1 0.0323,-2 z"
       id="path12" />
    <path
       fill="#d0cfce"
       d="M 43.9557,11.3057 A 6.4946,6.4946 0 0 0 37.6339,4.9838 6.3219,6.3219 0 0 0 31.312,11.3057 l -0.0044,-0.026 c 0.05,2.2573 1.4038,4.4042 2.2124,6.72 h 8.2325 c 0.8095,-2.306 2.1536,-4.4452 2.2032,-6.694 z"
       id="path13" />
    <path
       fill="#d0cfce"
       d="M 44.2917,27.47 A 11.7467,11.7467 0 0 1 41.78,24 h -8.309 a 11.7743,11.7743 0 0 1 -2.4995,3.4438 c -9.2582,9.2582 -5.9133,25.1037 1.03,39.5708 L 32,67 H 43.1756 C 50.1192,52.5328 53.55,36.7281 44.2917,27.47 Z"
       id="path14" />
    <path
       fill="#ea5a47"
       d="M 41.2067,22 H 34.0533 A 7.1754,7.1754 0 0 1 33.471,24 H 41.78 A 7.1557,7.1557 0 0 1 41.2067,22 Z"
       id="path15" />
    <path
       fill="#ea5a47"
       d="M 41.7525,18 H 33.52 a 10.7607,10.7607 0 0 1 0.5081,2 h 7.2109 a 10.8478,10.8478 0 0 1 0.5135,-2 z"
       id="path16" />
    <path
       fill="#9b9b9a"
       d="m 39.1624,22 h 2.0436 a 7.1759,7.1759 0 0 1 0.0323,-2 H 39.173 c -0.0313,0.6477 -0.0398,1.3118 -0.0106,2 z"
       id="path17" />
    <path
       fill="#9b9b9a"
       d="M 40.0568,11.3057 A 63.054,63.054 0 0 1 39.34,18 h 2.4118 c 0.8095,-2.3063 2.1536,-4.4455 2.2032,-6.6943 A 6.5112,6.5112 0 0 0 38.1769,5.0143 c 1.0552,0.3063 1.9014,3.297 1.8799,6.2914 z"
       id="path18" />
    <path
       fill="#9b9b9a"
       d="M 44.291,27.47 A 11.7454,11.7454 0 0 1 41.7792,24 h -2.43 a 20.8439,20.8439 0 0 0 0.8172,3.47 c 3.0122,9.2582 1.896,25.0629 -0.3631,39.53 h 3.3719 C 50.1185,52.5328 53.5492,36.7281 44.291,27.47 Z"
       id="path19" />
    <path
       fill="#d22f27"
       d="m 39.3489,24 h 2.43 a 7.1587,7.1587 0 0 1 -0.5732,-2 h -2.0433 a 19.7444,19.7444 0 0 0 0.1865,2 z"
       id="path20" />
    <path
       fill="#d22f27"
       d="m 39.173,20 h 2.0653 a 10.84,10.84 0 0 1 0.5135,-2 H 39.34 c -0.0744,0.6511 -0.1341,1.3159 -0.167,2 z"
       id="path21" />
    <path
       fill="#d0cfce"
       d="m 38,4.9838 h -7e-4 v 0.02 c 0.0591,0.0038 0.1189,0.0044 0.1776,0.01 A 0.636,0.636 0 0 0 38,4.9838 Z"
       id="path22" />
    <circle
       cx="19.998301"
       cy="52.091499"
       r="15"
       fill="#9b9b9a"
       id="circle22" />
    <path
       fill="#3f3f3f"
       d="M 27.6018,39.1605 A 15.0029,15.0029 0 0 1 9.0328,62.3329 15.0041,15.0041 0 0 0 34.9983,52.0915 14.8862,14.8862 0 0 0 27.6018,39.1605 Z"
       id="path23" />
    <path
       fill="#d0cfce"
       d="m 58.239,20 h -7.2109 a 7.1536,7.1536 0 0 1 0.0252,2 h 7.1534 a 7.18,7.18 0 0 1 0.0323,-2 z"
       id="path24" />
    <path
       fill="#d0cfce"
       d="M 60.9557,11.3057 A 6.4946,6.4946 0 0 0 54.6339,4.9838 6.3219,6.3219 0 0 0 48.312,11.3057 l -0.0044,-0.026 c 0.05,2.2573 1.4038,4.4042 2.2124,6.72 h 8.2325 c 0.8095,-2.306 2.1536,-4.4452 2.2032,-6.694 z"
       id="path25" />
    <path
       fill="#d0cfce"
       d="M 61.2917,27.47 A 11.7467,11.7467 0 0 1 58.78,24 h -8.309 a 11.7743,11.7743 0 0 1 -2.4995,3.4438 C 38.7133,36.702 42.0563,52.5329 49,67 H 60.1756 C 67.1192,52.5328 70.55,36.7281 61.2917,27.47 Z"
       id="path26" />
    <path
       fill="#ea5a47"
       d="M 58.2067,22 H 51.0533 A 7.1754,7.1754 0 0 1 50.471,24 H 58.78 A 7.1557,7.1557 0 0 1 58.2067,22 Z"
       id="path27" />
    <path
       fill="#ea5a47"
       d="M 58.7525,18 H 50.52 a 10.7607,10.7607 0 0 1 0.5081,2 h 7.2109 a 10.8478,10.8478 0 0 1 0.5135,-2 z"
       id="path28" />
    <path
       fill="#9b9b9a"
       d="m 56.1624,22 h 2.0436 a 7.1759,7.1759 0 0 1 0.0323,-2 H 56.173 c -0.0313,0.6477 -0.0398,1.3118 -0.0106,2 z"
       id="path29" />
    <path
       fill="#9b9b9a"
       d="M 57.0568,11.3057 A 63.054,63.054 0 0 1 56.34,18 h 2.4118 c 0.8095,-2.3063 2.1536,-4.4455 2.2032,-6.6943 A 6.5112,6.5112 0 0 0 55.1769,5.0143 c 1.0552,0.3063 1.9014,3.297 1.8799,6.2914 z"
       id="path30" />
    <path
       fill="#9b9b9a"
       d="M 61.291,27.47 A 11.7454,11.7454 0 0 1 58.7792,24 h -2.43 a 20.8439,20.8439 0 0 0 0.8172,3.47 c 3.0122,9.2582 1.896,25.0629 -0.3631,39.53 h 3.3719 C 67.1185,52.5328 70.5492,36.7281 61.291,27.47 Z"
       id="path31" />
    <path
       fill="#d22f27"
       d="m 56.3489,24 h 2.43 a 7.1587,7.1587 0 0 1 -0.5732,-2 h -2.0433 a 19.7444,19.7444 0 0 0 0.1865,2 z"
       id="path32" />
    <path
       fill="#d22f27"
       d="m 56.173,20 h 2.0653 a 10.84,10.84 0 0 1 0.5135,-2 H 56.34 c -0.0744,0.6511 -0.1341,1.3159 -0.167,2 z"
       id="path33" />
    <path
       fill="#d0cfce"
       d="m 55,4.9838 h -7e-4 v 0.02 c 0.0591,0.0038 0.1189,0.0044 0.1776,0.01 A 0.636,0.636 0 0 0 55,4.9838 Z"
       id="path34" />
  </g>
  <g
     id="line"
     transform="translate(-3.9983006,-3.8322499)">
    <circle
       cx="19.998301"
       cy="52.091499"
       r="15"
       fill="none"
       stroke="#000000"
       stroke-linecap="round"
       stroke-linejoin="round"
       stroke-width="2"
       id="circle34" />
    <circle
       cx="16.197001"
       cy="47.652401"
       r="2"
       id="circle35" />
    <circle
       cx="19.777"
       cy="51.652401"
       r="2"
       id="circle36" />
    <circle
       cx="12.4566"
       cy="53.652401"
       r="2"
       id="circle37" />
    <path
       fill="none"
       stroke="#000000"
       stroke-linecap="round"
       stroke-linejoin="round"
       stroke-width="2.3031"
       d="m 8.7027,37.8423 a 19.06,19.06 0 0 1 5.2688,-10.3984 c 6.8233,-6.8233 0.445,-11.226 0.336,-16.1643 l 0.0045,0.0261 a 6.3219,6.3219 0 0 1 6.3219,-6.3219 6.4947,6.4947 0 0 1 6.3218,6.3219 c -0.1053,4.7754 -6.0734,9.05 -0.2966,15.497"
       id="path37" />
    <path
       fill="none"
       stroke="#000000"
       stroke-linecap="round"
       stroke-linejoin="round"
       stroke-width="2.3031"
       d="m 26.3992,35.0074 a 18.4794,18.4794 0 0 1 4.5723,-7.5635 c 6.8233,-6.8233 0.445,-11.226 0.336,-16.1643 l 0.0045,0.0261 a 6.3219,6.3219 0 0 1 6.3219,-6.3219 6.4947,6.4947 0 0 1 6.3218,6.3219 c -0.1052,4.7674 -6.0534,9.0357 -0.3255,15.4646"
       id="path38" />
    <path
       fill="none"
       stroke="#000000"
       stroke-linecap="round"
       stroke-linejoin="round"
       stroke-width="2.3031"
       d="M 49,67 C 42.0564,52.5329 38.7133,36.702 47.9715,27.4439 c 6.8233,-6.8233 0.445,-11.226 0.336,-16.1643 l 0.0045,0.0261 a 6.3219,6.3219 0 0 1 6.3219,-6.3219 6.4947,6.4947 0 0 1 6.3218,6.3219 C 60.8468,16.244 54.4685,20.6466 61.2918,27.4699 70.55,36.7281 67.1192,52.5329 60.1756,67 Z"
       id="path39" />
    <polyline
       fill="none"
       stroke="#000000"
       stroke-linecap="round"
       stroke-linejoin="round"
       stroke-width="2.0967"
       points="32.321 65.557 32.703 66.902 42.547 66.902 43.784 63.329"
       id="polyline39" />
  </g>
</svg>
