<svg xmlns="http://www.w3.org/2000/svg" xmlns:svg="http://www.w3.org/2000/svg" id="emoji" width="63.323" height="51.61" version="1.1" viewBox="0 0 63.323 51.61"><g id="color" transform="translate(-4.4883,-10.0833)"><path id="path1" fill="#92d3f5" stroke="none" d="m 13.1459,50.9481 c 0,2.7722 2.8927,6.0133 6.1177,4.4871 l 37.927,-21.9146 c 0.8035,-0.4176 1.6385,-0.0447 2.1156,0.7843 l 0.4895,0.7537 c 0.4771,0.8291 0.4596,2.6148 -0.2836,2.9275 L 20.8246,60.1679 c -1.3862,0.831 -3.6104,0.7012 -5.3616,0.7012 -5.6745,0 -10.2747,-4.4418 -10.2747,-9.921"/><path id="path2" fill="#92d3f5" stroke="none" d="m 5.1883,50.9481 c 0,-2.2158 1.7814,-4.012 3.9788,-4.012 2.1974,0 3.9788,1.7962 3.9788,4.012"/><path id="path3" fill="#61b2e4" stroke="none" d="m 12.9961,59.3982 c 2.1208,1.5099 5.8513,2.024 8.1426,0.5897 L 59.1346,38.1737 c 0.7597,-0.3558 0.7511,-1.8552 0.3191,-2.5571 l -0.1964,-0.449 -0.0156,0.1047 -41.0083,23.524 c 0,0 -2.4121,1.3145 -5.2373,0.6019 z"/><path id="path4" fill="#61b2e4" stroke="none" d="m 9.6372,48.3409 c -1.1216,1.959 -0.2771,4.5512 1.8862,5.7898 0,0 1.8239,1.0541 2.4002,-0.2086 v 0 C 14.0024,53.4795 13.773,53.0274 13.361,52.789 12.4176,52.243 12.2052,50.8914 12.6709,50.0779"/><path id="path5" fill="#61b2e4" stroke="none" d="m 9.6372,48.3409 c 0.4536,-0.7922 1.5004,-1.0456 2.3381,-0.5659 0.8377,0.4796 1.1492,1.5107 0.6956,2.3029"/><path id="path6" fill="#fcea2b" stroke="none" d="m 23.3277,48.0304 c -2.201,1.2615 -5.0942,0.3494 -6.4621,-2.0372 -1.3679,-2.3866 -0.6925,-5.344 1.5085,-6.6055 3.9184,-2.2458 6.1114,-5.9562 4.0774,-9.5049 l -5.4873,-9.6681 c 0,0 1.4067,-2.2395 3.4963,-1.8747 0.379,0.0662 0.7424,-0.0995 0.8865,-0.4554 0.8069,-1.9935 3.9277,-9.145 7.1242,-3.5679 l 12.7244,22.2009 c 0.3031,0.5288 0.1534,1.184 -0.3342,1.4635 L 23.3277,48.0304"/><rect id="rect6" width="2.365" height="19.572" x="34.1" y="20.114" fill="#f1b31c" stroke="none" transform="matrix(0.866,-0.5,0.5,0.866,-10.2229,21.6469)"/><path id="path7" fill="#9b9b9a" stroke="none" d="m 20.552,26.536 -3.5879,-6.3214 c 0,0 1.1922,-1.989 3.4963,-1.8747 l 0.8865,-0.4554 c 0,0 1.927,-5.9618 4.8208,-5.6537 0,0 2.9312,1.4284 5.6157,7.8648 z"/><rect id="rect7" width="2.365" height="9.673" x="26.659" y="12.176" fill="#3f3f3f" stroke="none" transform="matrix(0.866,-0.5,0.5,0.866,-4.7763,16.2002)"/></g><g id="line" transform="translate(-4.4883,-10.0833)"><path id="path8" fill="none" stroke="#000" stroke-linecap="round" stroke-linejoin="round" stroke-miterlimit="10" stroke-width="2" d="m 20.2,59.5163 c -1.4043,0.72 -3.0074,1.1774 -4.7117,1.1774 -5.5228,0 -10,-4.2873 -10,-9.576"/><line id="line8" x1="54.975" x2="20.141" y1="39.564" y2="59.55" fill="none" stroke="#000" stroke-linecap="round" stroke-linejoin="round" stroke-miterlimit="10" stroke-width="2"/><path id="path9" fill="none" stroke="#000" stroke-linecap="round" stroke-linejoin="round" stroke-miterlimit="10" stroke-width="2" d="m 13.2332,51.1177 c 0,2.6758 2.8154,5.8041 5.9541,4.331 l 38.9131,-22.2773 0.052,0.0163 c 1.4248,0.4466 2.2684,2.0549 1.927,3.4478 l -1.6391,0.9404"/><path id="path10" fill="none" stroke="#000" stroke-linecap="round" stroke-linejoin="round" stroke-miterlimit="10" stroke-width="2" d="m 5.4883,51.1177 c 0,-2.1387 1.7338,-3.8724 3.8724,-3.8724 2.1386,0 3.8724,1.7338 3.8724,3.8724"/><line id="line10" x1="48.214" x2="61.616" y1="24.932" y2="17.25" fill="none" stroke="#000" stroke-linecap="round" stroke-linejoin="round" stroke-miterlimit="10" stroke-width="2"/><line id="line11" x1="46.7" x2="66.812" y1="30.384" y2="18.877" fill="none" stroke="#000" stroke-linecap="round" stroke-linejoin="round" stroke-miterlimit="10" stroke-width="2"/><line id="line12" x1="39.291" x2="64.435" y1="25.502" y2="11.083" fill="none" stroke="#000" stroke-linecap="round" stroke-linejoin="round" stroke-miterlimit="10" stroke-width="2"/><path id="path12" fill="none" stroke="#000" stroke-linecap="round" stroke-linejoin="round" stroke-miterlimit="10" stroke-width="2" d="m 23.322,48.2532 c -2.2017,1.2619 -5.0958,0.3495 -6.4642,-2.0378 -1.3684,-2.3873 -0.6927,-5.3457 1.509,-6.6076 3.9196,-2.2465 6.1133,-5.9581 4.0787,-9.5079 l -5.4891,-9.6712 c 0,0 1.4071,-2.2402 3.4974,-1.8753 0.3791,0.0662 0.7427,-0.0996 0.8868,-0.4555 0.8072,-1.9941 3.9289,-9.1479 7.1264,-3.569 l 12.7285,22.2079 c 0.3032,0.5289 0.1535,1.1843 -0.3343,1.4639 L 23.322,48.2532"/><line id="line13" x1="20.545" x2="31.78" y1="26.752" y2="20.31" fill="none" stroke="#000" stroke-linecap="round" stroke-linejoin="round" stroke-miterlimit="10" stroke-width="2"/><line id="line14" x1="19.578" x2="21.381" y1="38.826" y2="41.972" fill="none" stroke="#000" stroke-linecap="round" stroke-linejoin="round" stroke-miterlimit="10" stroke-width="2"/><line id="line15" x1="22.489" x2="24.933" y1="35.639" y2="39.902" fill="none" stroke="#000" stroke-linecap="round" stroke-linejoin="round" stroke-miterlimit="10" stroke-width="2"/><line id="line16" x1="22.553" x2="26.809" y1="30.294" y2="27.854" fill="none" stroke="#000" stroke-linecap="round" stroke-linejoin="round" stroke-miterlimit="10" stroke-width="2"/></g></svg>