<svg xmlns="http://www.w3.org/2000/svg" xmlns:svg="http://www.w3.org/2000/svg" id="emoji" width="54.773" height="54.085" version="1.1" viewBox="0 0 54.773 54.085"><g id="color" transform="translate(-10.207491,-8.3584003)"><path id="path1" fill="#6a462f" d="m 43.9439,35.0722 c 0.504,0.5663 0.9593,1.183 0.9832,1.2502 0.4488,0.9423 0.5862,2.0227 0.3781,3.0953 -0.0108,0.0656 -0.1071,0.4973 -0.161,0.6489 -0.01,0.0298 -0.2472,0.5995 -0.3817,0.8455 -0.0502,0.0895 -0.0994,0.1783 -0.1545,0.2638 -0.6957,1.1809 -1.7624,2.4803 -2.6674,3.8946 -0.9569,1.4955 -0.8246,2.1554 -1.1615,2.9107 -0.4395,-0.367 -0.9375,-0.6771 -1.5081,-0.8813 -2.6,-0.9304 -5.4619,0.4231 -6.3922,3.0231 -0.5809,1.6232 -0.2712,3.3482 0.6759,4.6418 -0.3025,0.2624 -4.4344,3.1784 -5.3895,4.0143 -4.2168,3.6905 -9.84,3.5837 -13.8775,-0.2608 l -0.3291,-0.286 c -3.7426,-4.1322 -3.7091,-9.7563 0.0855,-13.8797 0.8594,-0.934 3.8775,-4.9919 4.1474,-5.2877 1.2696,0.979 2.9864,1.3317 4.6236,0.7915 2.6223,-0.8652 4.0468,-3.6924 3.1815,-6.3149 -0.1898,-0.5755 -0.4874,-1.081 -0.8434,-1.5296 0.7635,-0.3179 1.4199,-0.1692 2.9388,-1.0885 1.4364,-0.8694 2.762,-1.9034 3.9599,-2.5694 0.0869,-0.0529 0.1769,-0.1 0.2676,-0.1478 0.2493,-0.1284 0.8247,-0.3513 0.8548,-0.3606 0.1528,-0.05 0.5868,-0.1356 0.6527,-0.1447 1.0774,-0.1813 2.154,-0.017 3.0848,0.4551 0.1104,0.0424 2.0447,1.6528 2.4301,2.3302"/><polygon id="polygon1" fill="#a57939" points="59.409 16.071 61.061 11.957 56.744 14.014"/><path id="path2" fill="#a57939" d="m 13.879,56.6802 2.9768,-4.1544 c 0,0 1.3677,-0.9057 2.7466,0.4679 1.3791,1.3736 0.4772,2.7472 0.4772,2.7472 l -4.2387,3.2095"/><path id="path3" fill="#a57939" d="m 56.108,18.7119 c -0.3945,0.0949 -1.3882,-0.4817 -1.6567,-0.7558 l -22.6888,20.4072 1.8457,1.7656 c 0,0 22.1399,-21.1031 22.4997,-21.417 z"/></g><g id="line" transform="translate(-10.207491,-8.3584003)"><line id="line3" x1="55.115" x2="56.393" y1="21.419" y2="22.717" fill="none" stroke="#000" stroke-linecap="round" stroke-linejoin="round" stroke-width="2"/><line id="line4" x1="51.006" x2="52.132" y1="17.326" y2="18.47" fill="none" stroke="#000" stroke-linecap="round" stroke-linejoin="round" stroke-width="2"/><line id="line5" x1="52.987" x2="54.518" y1="23.518" y2="25.087" fill="none" stroke="#000" stroke-linecap="round" stroke-linejoin="round" stroke-width="2"/><line id="line6" x1="49" x2="49.904" y1="19.477" y2="20.404" fill="none" stroke="#000" stroke-linecap="round" stroke-linejoin="round" stroke-width="2"/><line id="line7" x1="62.609" x2="63.98" y1="17.832" y2="16.494" fill="none" stroke="#000" stroke-linecap="round" stroke-linejoin="round" stroke-width="2"/><line id="line8" x1="55.46" x2="56.832" y1="10.696" y2="9.358" fill="none" stroke="#000" stroke-linecap="round" stroke-linejoin="round" stroke-width="2"/><path id="path8" fill="none" stroke="#000" stroke-linecap="round" stroke-linejoin="round" stroke-width="2" d="m 43.9439,35.0722 c 0.504,0.5663 0.9593,1.183 0.9832,1.2502 0.4488,0.9423 0.5862,2.0227 0.3781,3.0953 -0.0108,0.0656 -0.1071,0.4973 -0.161,0.6489 -0.01,0.0298 -0.2472,0.5995 -0.3817,0.8455 -0.0502,0.0895 -0.0994,0.1783 -0.1545,0.2638 -0.6957,1.1809 -1.7624,2.4803 -2.6674,3.8946 -0.9569,1.4955 -0.8246,2.1554 -1.1615,2.9107 -0.4395,-0.367 -0.9375,-0.6771 -1.5081,-0.8813 -2.6,-0.9304 -5.4619,0.4231 -6.3922,3.0231 -0.5809,1.6232 -0.2712,3.3482 0.6759,4.6418 -0.3025,0.2624 -4.4344,3.1784 -5.3895,4.0143 -4.2168,3.6905 -9.84,3.5837 -13.8775,-0.2608 l -0.3291,-0.286 c -3.7426,-4.1322 -3.7091,-9.7563 0.0855,-13.8797 0.8594,-0.934 3.8775,-4.9919 4.1474,-5.2877 1.2696,0.979 2.9864,1.3317 4.6236,0.7915 2.6223,-0.8652 4.0468,-3.6924 3.1815,-6.3149 -0.1898,-0.5755 -0.4874,-1.081 -0.8434,-1.5296 0.7635,-0.3179 1.4199,-0.1692 2.9388,-1.0885 1.4364,-0.8694 2.762,-1.9034 3.9599,-2.5694 0.0869,-0.0529 0.1769,-0.1 0.2676,-0.1478 0.2493,-0.1284 0.8247,-0.3513 0.8548,-0.3606 0.1528,-0.05 0.5868,-0.1356 0.6527,-0.1447 1.0774,-0.1813 2.154,-0.017 3.0848,0.4551 0.1104,0.0424 2.0447,1.6528 2.4301,2.3302 z"/><line id="line9" x1="29.213" x2="25.759" y1="48.901" y2="53.04" fill="none" stroke="#000" stroke-linecap="round" stroke-linejoin="round" stroke-width="2"/><line id="line10" x1="19.953" x2="24.266" y1="47.21" y2="43.977" fill="none" stroke="#000" stroke-linecap="round" stroke-linejoin="round" stroke-width="2"/><polygon id="polygon10" fill="none" stroke="#000" stroke-linecap="round" stroke-linejoin="round" stroke-width="2" points="60.687 11.329 61.732 12.374 58.979 16.541 56.52 14.082"/><path id="path10" fill="none" stroke="#000" stroke-linecap="round" stroke-linejoin="round" stroke-width="2" d="M 32.5021,37.7866 54.3079,16.9394 c 0.1366,-0.1306 0.3529,-0.1268 0.4849,0.0085 l 0.8634,0.8853"/><path id="path11" fill="none" stroke="#000" stroke-linecap="round" stroke-linejoin="round" stroke-width="2" d="m 13.2067,56.236 3.6146,-3.4557 c 0,0 1.1839,-0.7649 2.4343,0.4856 1.2505,1.2505 0.4891,2.4411 0.4891,2.4411 l -3.3616,3.7022"/><path id="path12" fill="none" stroke="#000" stroke-linecap="round" stroke-linejoin="round" stroke-width="2" d="m 28.083,44.0587 c 0.3876,0.3232 0.7483,0.674 1.0798,1.0485"/></g></svg>