<svg xmlns="http://www.w3.org/2000/svg" xmlns:svg="http://www.w3.org/2000/svg" id="emoji" width="45.772" height="39.632" version="1.1" viewBox="0 0 45.772 39.632"><g id="color" transform="translate(-12.7322,-15.420003)"><polygon id="polygon1" fill="#d0cfce" points="13.929 22.273 35.673 17.417 58.094 22.608 35.673 27.844"/><polygon id="polygon2" fill="#9b9b9a" points="35.673 27.004 58.166 21.846 58.221 48.347 36.043 54.105"/><polygon id="polygon3" fill="#d0cfce" points="35.673 27.844 22.65 24.699 13.983 22.296 13.986 47.957 35.703 54.105"/></g><g id="line" transform="translate(-12.7322,-15.420003)"><polyline id="polyline3" fill="none" stroke="#000" stroke-linecap="round" stroke-linejoin="round" stroke-miterlimit="10" stroke-width="2.069" points="35.635 54.017 57.47 48.731 57.47 21.765 35.617 26.515 13.767 21.765 13.767 48.731 35.601 54.017 35.601 30.371"/><polyline id="polyline4" fill="none" stroke="#000" stroke-linecap="round" stroke-linejoin="round" stroke-miterlimit="10" stroke-width="2.069" points="13.767 21.765 35.808 16.454 57.47 21.765"/><circle id="circle4" cx="21.273" cy="32.934" r="3"/><circle id="circle5" cx="27.245" cy="44.376" r="3"/><circle id="circle6" cx="41.767" cy="45.221" r="3"/><circle id="circle7" cx="46.827" cy="38.067" r="3"/><circle id="circle8" cx="51.888" cy="30.912" r="3"/><ellipse id="ellipse8" cx="35.831" cy="21.122" rx="4" ry="1.619"/></g></svg>