<svg xmlns="http://www.w3.org/2000/svg" xmlns:svg="http://www.w3.org/2000/svg" id="emoji" width="60" height="60" version="1.1" viewBox="0 0 60 60"><g id="color" transform="translate(-6,-6)"><circle id="circle1" cx="36" cy="36" r="29" fill="#f4aa41"/><path id="path1" fill="#e27022" d="m 50.7,11 c 4.8,5.2 7.8,12.1 7.8,19.8 0,16 -13,29 -29,29 -5.4,0 -10.4,-1.5 -14.7,-4 C 20.1,61.4 27.7,65 36,65 52,65 65,52 65,36 65,25.3 59.3,16 50.7,11 Z"/></g><g id="line" transform="translate(-6,-6)"><line id="line1" x1="7" x2="65" y1="36" y2="36" fill="none" stroke="#000" stroke-linecap="round" stroke-linejoin="round" stroke-miterlimit="10" stroke-width="2"/><line id="line2" x1="36" x2="36" y1="7" y2="65" fill="none" stroke="#000" stroke-linecap="round" stroke-linejoin="round" stroke-miterlimit="10" stroke-width="2"/><path id="path2" fill="none" stroke="#000" stroke-linecap="round" stroke-linejoin="round" stroke-miterlimit="10" stroke-width="2" d="m 55.2,57.7 c -5.6,-5.6 -9,-13.2 -9,-21.8 0,-8.5 3.4,-16.2 9,-21.8"/><path id="path3" fill="none" stroke="#000" stroke-linecap="round" stroke-linejoin="round" stroke-miterlimit="10" stroke-width="2" d="m 16.9,14.2 c 5.6,5.6 9,13.3 9,21.8 0,8.5 -3.4,16.2 -9,21.8"/><circle id="circle3" cx="36" cy="36" r="29" fill="none" stroke="#000" stroke-linecap="round" stroke-linejoin="round" stroke-miterlimit="10" stroke-width="2"/></g></svg>