<?xml version="1.0" encoding="UTF-8" standalone="no"?>
<svg
   id="emoji"
   viewBox="0 0 36.672897 48.959801"
   version="1.1"
   sodipodi:docname="1f3c1.svg"
   width="36.672897"
   height="48.959801"
   xmlns:inkscape="http://www.inkscape.org/namespaces/inkscape"
   xmlns:sodipodi="http://sodipodi.sourceforge.net/DTD/sodipodi-0.dtd"
   xmlns="http://www.w3.org/2000/svg"
   xmlns:svg="http://www.w3.org/2000/svg">
  <defs
     id="defs14" />
  <sodipodi:namedview
     id="namedview14"
     pagecolor="#ffffff"
     bordercolor="#000000"
     borderopacity="0.25"
     inkscape:showpageshadow="2"
     inkscape:pageopacity="0.0"
     inkscape:pagecheckerboard="0"
     inkscape:deskcolor="#d1d1d1" />
  <g
     id="color"
     transform="translate(-18.327101,-11.875)">
    <rect
       x="22.357599"
       y="17.2677"
       width="6.0019002"
       height="6.0019002"
       fill="#ffffff"
       id="rect1" />
    <polygon
       fill="#ffffff"
       points="22.3576,29.2715 28.3595,29.2715 28.3595,33.8934 22.3576,35.2734 "
       id="polygon1" />
    <rect
       x="28.359501"
       y="23.2696"
       width="6.0019002"
       height="6.0019002"
       fill="#ffffff"
       id="rect2" />
    <path
       fill="#ffffff"
       d="m 34.3615,17.2677 h 4.8184 c 0.6536,0 1.1835,0.5299 1.1835,1.1835 v 4.8184 h -6.0019 z"
       id="path2" />
    <path
       fill="#ffffff"
       d="m 29.3387,14.9868 h 3.8864 c 0.6276,0 1.1363,0.5088 1.1363,1.1363 v 1.1446 H 28.3595 V 15.966 c 0,-0.5408 0.4384,-0.9792 0.9792,-0.9792 z"
       id="path3" />
    <polygon
       fill="#ffffff"
       points="34.3615,29.2715 40.3634,29.2715 40.3634,35.2734 34.3614,32.9753 "
       id="polygon3" />
    <rect
       x="40.3634"
       y="23.2696"
       width="6.0019002"
       height="6.0019002"
       fill="#ffffff"
       id="rect3" />
    <path
       fill="#ffffff"
       d="m 46.9554,20.2686 h 4.6796 c 0.4044,0 0.7322,0.3278 0.7322,0.7322 v 2.2688 h -6.0019 v -2.4109 c 0,-0.3259 0.2642,-0.5901 0.5901,-0.5901 z"
       id="path4" />
    <rect
       x="46.365299"
       y="29.2715"
       width="6.0019002"
       height="6.0019002"
       fill="#ffffff"
       id="rect4" />
    <rect
       x="52.367199"
       y="23.2696"
       width="0.73439997"
       height="6.0019002"
       fill="#ffffff"
       id="rect5" />
    <path
       fill="#ffffff"
       d="m 40.3634,35.2734 h 6.0019 v 1.9308 l -5.2527,-1.401 c -0.995,0 -0.5196,-0.3526 -0.7492,-0.4006 z"
       id="path5" />
    <polygon
       fill="#ffffff"
       points="53.0873,36.8996 52.3672,37.3035 52.3672,35.2734 53.0873,35.2734 "
       id="polygon5" />
  </g>
  <g
     id="line"
     transform="translate(-18.327101,-11.875)">
    <rect
       x="22.357599"
       y="23.2696"
       width="6.0019002"
       height="6.0019002"
       id="rect6" />
    <rect
       x="28.359501"
       y="17.2677"
       width="6.0019002"
       height="6.0019002"
       id="rect7" />
    <path
       d="m 28.3595,29.2715 h 6.0019 v 3.7038 c 0,0.3524 -0.2856,0.638 -0.638,0.638 h -4.8203 c -0.3002,0 -0.5436,-0.2434 -0.5436,-0.5436 z"
       id="path7" />
    <path
       d="m 28.3595,17.2677 h -3.1253 c 0,0 1.3734,-0.5252 1.5837,-0.6208 1.2185,-0.5537 1.5417,-0.6208 1.5417,-0.6208 v 1.2415 z"
       id="path8" />
    <path
       d="m 37.9977,17.2677 h -3.6362 v -1.3946 c 0,0 0.313,-0.1055 2.7394,0.8967 0.1494,0.0617 0.8967,0.4978 0.8967,0.4978 z"
       id="path9" />
    <rect
       x="34.3615"
       y="23.2696"
       width="6.0019002"
       height="6.0019002"
       id="rect9" />
    <path
       d="m 46.3653,23.2696 h -6.0019 v -4.6237 l 5.2898,1.1647 c 0.4159,0.0916 0.7121,0.4601 0.7121,0.8859 z"
       id="path10" />
    <rect
       x="40.3634"
       y="29.2715"
       width="6.0019002"
       height="6.0019002"
       id="rect10" />
    <rect
       x="46.365299"
       y="23.2696"
       width="6.0019002"
       height="6.0019002"
       id="rect11" />
    <path
       d="m 52.3672,20.3094 v 0 c 0.9634,0 0.7629,0.7409 0.7629,1.7043 l -0.0285,0.3562 c 0,0.5429 0.1903,0.8845 0.027,0.8996 h -0.7614 v -2.9602 z"
       id="path11" />
    <path
       d="m 52.3672,29.2715 h 0.7762 c 0.0589,0 0.1066,0.1032 0.1066,0.2305 v 5.5584 c 0,0.1177 -0.0441,0.213 -0.0985,0.213 h -0.7843 z"
       id="path12" />
    <path
       d="m 46.3653,35.2734 h 6.0019 v 1.9158 c 0,0.7382 -0.6391,1.3365 -1.4274,1.3365 l -3.0775,-0.1935 c -0.8391,0 -1.497,-0.4434 -1.497,-1.2291 v -1.8298 z"
       id="path13" />
    <path
       fill="none"
       stroke="#000000"
       stroke-linecap="round"
       stroke-linejoin="round"
       stroke-width="2"
       d="M 23.0844,17.488 C 25.9694,15.6897 31.5062,13.2554 37.5,16 c 3.689,1.6892 5.6344,4.6976 15.0405,4.1142 C 53.3291,20.0653 54,20.7109 54,21.5248 v 15.1253 c 0,0.6226 -0.4235,1.0771 -0.9648,1.354 C 51.0882,39 45.7637,38.939 37.5,35 34.1347,33.3959 28.9297,32.4317 23.0418,36.4425"
       id="path14" />
    <line
       x1="19.327101"
       x2="19.327101"
       y1="12.875"
       y2="59.834801"
       fill="none"
       stroke="#000000"
       stroke-linecap="round"
       stroke-miterlimit="10"
       stroke-width="2"
       id="line14" />
  </g>
</svg>
