<?xml version="1.0" encoding="UTF-8" standalone="no"?>
<svg
   id="emoji"
   viewBox="0 0 49.667 49.667"
   version="1.1"
   sodipodi:docname="1f3c6.svg"
   width="49.667"
   height="49.667"
   xmlns:inkscape="http://www.inkscape.org/namespaces/inkscape"
   xmlns:sodipodi="http://sodipodi.sourceforge.net/DTD/sodipodi-0.dtd"
   xmlns="http://www.w3.org/2000/svg"
   xmlns:svg="http://www.w3.org/2000/svg">
  <defs
     id="defs7" />
  <sodipodi:namedview
     id="namedview7"
     pagecolor="#ffffff"
     bordercolor="#000000"
     borderopacity="0.25"
     inkscape:showpageshadow="2"
     inkscape:pageopacity="0.0"
     inkscape:pagecheckerboard="0"
     inkscape:deskcolor="#d1d1d1" />
  <g
     id="color"
     transform="translate(-11.1643,-10.832)">
    <path
       fill="#fcea2b"
       d="M 41.5853,12.081 20.2449,11.9745 c 0.072,0.333 2.1834,8.7995 3.9434,17.6035 0.112,0.562 0.239,1.1 0.373,1.616 0.04,0.154 0.084,0.3 0.126,0.451 0.1,0.365 0.207,0.721 0.32,1.064 0.051,0.154 0.1,0.3 0.156,0.453 0.1213,0.3413 0.249,0.6713 0.383,0.99 0.049,0.117 0.1,0.236 0.147,0.35 0.183,0.413 0.376,0.81 0.582,1.183 l 0.01,0.019 c 0.2198,0.3981 0.4604,0.7843 0.721,1.157 l 0.025,0.034 c 0.2309,0.3262 0.4792,0.6397 0.744,0.939 0.042,0.047 0.085,0.093 0.128,0.139 0.2358,0.258 0.4852,0.5034 0.747,0.735 0.042,0.037 0.084,0.076 0.127,0.112 2.0451,1.6637 4.6303,2.5178 7.264,2.4 0.9852,0.0032 1.968,-0.1 2.931,-0.308 4.4137,-10.1309 4.3193,-19.5704 2.613,-28.831 z"
       id="path1" />
    <path
       fill="#f1b31c"
       d="m 41.5853,12.081 c 0.6086,9.4384 1.8951,17.5 -3.112,29.828 4.706,-1.027 8.576,-5.732 9.922,-12.46 1.457,-7.282 3.1185,-16.6378 3.1935,-16.9758 0,0 -10.0035,-0.3922 -10.0035,-0.3922 z"
       id="path2" />
    <path
       fill="#fcea2b"
       d="m 31.4213,51.333 h -3.871 V 58.5 h 10.958 v -7.167 z"
       id="path3" />
    <path
       fill="#f1b31c"
       d="m 43.8833,51.333 h -5.375 V 58.5 h 5.375 z"
       id="path4" />
    <circle
       cx="36.0373"
       cy="24.580999"
       r="4"
       fill="#f1b31c"
       id="circle4" />
  </g>
  <g
     id="line"
     transform="translate(-11.1643,-10.832)">
    <path
       fill="none"
       stroke="#000000"
       stroke-linecap="round"
       stroke-linejoin="round"
       stroke-width="2"
       d="m 52.219,11.832 c 0.1581,0 0.275,0.1446 0.2389,0.2984 -0.2055,0.8767 -0.9426,4.2922 -3.5876,17.5156 -1.588,7.942 -5.5,12.572 -12.833,12.572 -7.333,0 -11.245,-4.5 -12.833,-12.443 -2.414,-11.8492 -3.667,-17.943 -3.667,-17.943 z"
       id="path5" />
    <path
       fill="none"
       stroke="#000000"
       stroke-linecap="round"
       stroke-linejoin="round"
       stroke-width="2"
       d="m 23.0443,31.479 c 0,0 0.079,-0.261 -5.421,-3.928 -2.528,-1.683 -5.459,-3.9 -5.459,-6.943 0,-3.043 2.5,-5.11 5.539,-5.11 h 1.513"
       id="path6" />
    <path
       fill="none"
       stroke="#000000"
       stroke-linecap="round"
       stroke-linejoin="round"
       stroke-width="2"
       d="m 48.7113,31.766 c 0,0 0.079,-0.261 5.579,-3.928 2.528,-1.683 5.541,-3.9 5.541,-6.943 -0.0146,-2.842 -2.3303,-5.1341 -5.1723,-5.1196 -0.0963,5e-4 -0.1926,0.0037 -0.2887,0.0096 h -2.154"
       id="path7" />
    <rect
       x="26.550301"
       y="50.332001"
       width="18.333"
       height="9.1669998"
       fill="none"
       stroke="#000000"
       stroke-linecap="round"
       stroke-linejoin="round"
       stroke-width="2"
       id="rect7" />
    <circle
       cx="36.0373"
       cy="24.580999"
       r="5"
       fill="none"
       stroke="#000000"
       stroke-linecap="round"
       stroke-linejoin="round"
       stroke-width="2"
       id="circle7" />
    <line
       x1="36.0373"
       x2="36.0373"
       y1="50.332001"
       y2="42.217999"
       fill="none"
       stroke="#000000"
       stroke-linecap="round"
       stroke-linejoin="round"
       stroke-width="2"
       id="line7" />
  </g>
</svg>
