<svg xmlns="http://www.w3.org/2000/svg" xmlns:svg="http://www.w3.org/2000/svg" id="emoji" width="40.705" height="54.906" version="1.1" viewBox="0 0 40.705 54.906"><g id="skin" transform="translate(-19,-9.0937996)"><circle id="circle1" cx="26.969" cy="13.094" r="3" fill="#c19a65"/><path id="path1" fill="#c19a65" d="m 26.665,22.585 c 0,0 0.3038,3.708 3.3038,9.042 0.2441,0.4345 1.5316,2.7838 1.5316,2.7838 L 25,45 24.75,63 h 3.4238 L 30,48 36,42 42,37 V 33 L 36,22"/><polyline id="polyline1" fill="#c19a65" points="42 36 49 46 59.167 52 58.167 55 46 50 37 42"/><path id="path2" fill="#c19a65" d="M 36,22 C 34,18 31.6406,17.7671 29.9688,18.417 A 4.1078,4.1078 0 0 0 28,24"/></g><g id="line" transform="translate(-19,-9.0937996)"><circle id="circle2" cx="26.969" cy="13.094" r="3" fill="none" stroke="#000" stroke-miterlimit="10" stroke-width="2"/><path id="path3" fill="none" stroke="#000" stroke-linecap="round" stroke-linejoin="round" stroke-width="2" d="m 42,36 5.8535,8.3613 a 11.0249,11.0249 0 0 0 2.8692,2.6553 l 6.7216,3.9668 A 2.3633,2.3633 0 0 1 58.667,53.5 1.69,1.69 0 0 1 56.317,54.24 L 47.85,50.76 A 14.1043,14.1043 0 0 1 44.5053,48.6711 L 37,42"/><path id="path4" fill="none" stroke="#000" stroke-linecap="round" stroke-linejoin="round" stroke-width="2" d="m 31.0839,31.5874 c 0,0 0.26,0.5937 0.5761,1.32 a 4.72,4.72 0 0 1 -0.3515,3.46 l -5.2343,6.9444 A 8.3233,8.3233 0 0 0 24.9727,47 l -0.1954,14 a 1.8486,1.8486 0 0 0 1.6846,2 2.1751,2.1751 0 0 0 1.9541,-1.9854 l 1.3418,-11.0292 a 6.789,6.789 0 0 1 1.6563,-3.3995 l 3.1718,-3.1718 c 0.7774,-0.7774 2.1055,-1.99 2.95,-2.6944 L 40.4639,38.28 A 4.8637,4.8637 0 0 0 42,35 v 0 c 0.2291,-1.9913 -2.9451,-5.7835 -3.4724,-6.7494 l -2.5217,-6.2574"/><path id="path5" fill="none" stroke="#000" stroke-linecap="round" stroke-linejoin="round" stroke-width="2" d="m 35.9337,21.7988 c -1.5315,-4.06 -4.2931,-4.0317 -5.9649,-3.3818 A 3.859,3.859 0 0 0 27.6,22.251"/><path id="path6" fill="none" stroke="#000" stroke-linecap="round" stroke-linejoin="round" stroke-width="2" d="m 30.9375,22 -1.4189,5.0771 A 2.7758,2.7758 0 0 1 27,29 h -7"/></g></svg>