<svg xmlns="http://www.w3.org/2000/svg" xmlns:svg="http://www.w3.org/2000/svg" id="emoji" width="64" height="34" version="1.1" viewBox="0 0 64 34"><g id="color" transform="translate(-4,-22)"><path id="path1" fill="#92d3f5" stroke="none" d="M 67.958,35.958 C 59.958,35.958 57,39 52,39 47,39 42,36 36,36 30,36 26,39 20,39 14,39 7,36 4,36 4,36 4,45.916 4,47.666 4,49.082 5.4189,56 11,56 c 5.6689,0 19.0635,0 24.9795,0 3.083,0 20.1035,0 26.1035,0 5.832,0 5.876,-4.834 5.876,-9.5215 0,-2.666 -0.001,-10.5205 -0.001,-10.5205 z"/></g><g id="skin" transform="translate(-4,-22)"><circle id="circle1" cx="19.386" cy="33.063" r="2.969" fill="#debb90" stroke="#debb90"/><path id="path2" fill="#debb90" stroke="#debb90" d="m 43.6875,37.3125 c 0,0 -6.4795,-4.4795 -8,-6 -0.3437,-0.3437 -0.4502,-0.9258 -0.8125,-1.7812 -0.3437,-0.8125 1.2012,-3.731 2.7188,-3.5625 1.125,0.125 2.5898,0.8134 4.7187,1.7812 1.375,0.625 2.1563,-0.5937 2.5625,-1.3125 l -7.75,-3.6562 -5.1562,4.5312 -3.5625,3.625 -2.875,7.1875 3.125,-0.7187 7.6562,-1.3438 z"/></g><g id="line" transform="translate(-4,-22)"><circle id="circle2" cx="19.386" cy="33.063" r="2.969" fill="none" stroke="#000" stroke-miterlimit="10" stroke-width="2"/><path id="path3" fill="none" stroke="#000" stroke-linecap="round" stroke-linejoin="round" stroke-miterlimit="10" stroke-width="2" d="m 5,36 c 3,0 9,3 15,3 6,0 10,-3 16,-3 6,0 11,3 16,3 5,0 7,-3 15,-3"/><path id="path4" fill="none" stroke="#000" stroke-linecap="round" stroke-linejoin="round" stroke-miterlimit="10" stroke-width="2" d="M 46.0059,43.9639 C 48.0449,44.5313 50.0225,45 52,45 c 2.7441,0 4.585,-0.9043 7.0088,-1.7197"/><path id="path5" fill="none" stroke="#000" stroke-linecap="round" stroke-linejoin="round" stroke-miterlimit="10" stroke-width="2" d="M 12.7773,43.8867 C 15.0439,44.4883 17.5225,45 20,45 c 6,0 10,-3 16,-3"/><path id="path6" fill="none" stroke="#000" stroke-linecap="round" stroke-linejoin="round" stroke-miterlimit="10" stroke-width="2" d="m 26.001,50.959 c 3.208,-0.8828 6.2031,-2.084 9.999,-2.084 4.4063,0 8.2734,1.6182 11.9971,2.4775"/><path id="path7" fill="none" stroke="#000" stroke-linecap="round" stroke-linejoin="round" stroke-miterlimit="10" stroke-width="2" d="m 26,38 c 1,-3 0.9912,-5.9912 4,-9 2,-2 5,-6 7,-6 2,0 7,3 7,3"/><path id="path8" fill="none" stroke="#000" stroke-linecap="round" stroke-linejoin="round" stroke-miterlimit="10" stroke-width="2" d="m 43,37 c 0,0 -5.1572,-3.8906 -7,-5 -1.916,-1.1533 -2,-2 -2,-2"/></g></svg>