<?xml version="1.0" encoding="UTF-8" standalone="no"?>
<svg
   id="emoji"
   viewBox="0 0 64.115059 34.999985"
   version="1.1"
   sodipodi:docname="1f3cd.svg"
   width="64.115059"
   height="34.999985"
   xmlns:inkscape="http://www.inkscape.org/namespaces/inkscape"
   xmlns:sodipodi="http://sodipodi.sourceforge.net/DTD/sodipodi-0.dtd"
   xmlns="http://www.w3.org/2000/svg"
   xmlns:svg="http://www.w3.org/2000/svg">
  <defs
     id="defs10" />
  <sodipodi:namedview
     id="namedview10"
     pagecolor="#ffffff"
     bordercolor="#000000"
     borderopacity="0.25"
     inkscape:showpageshadow="2"
     inkscape:pageopacity="0.0"
     inkscape:pagecheckerboard="0"
     inkscape:deskcolor="#d1d1d1" />
  <g
     id="color"
     transform="translate(-4.0000997,-21.000015)">
    <ellipse
       cx="12.0313"
       cy="48"
       rx="7.0311999"
       ry="7"
       fill="#9b9b9a"
       stroke="none"
       id="ellipse1" />
    <ellipse
       cx="53.0313"
       cy="48"
       rx="8.0312004"
       ry="7.9951"
       fill="#9b9b9a"
       stroke="none"
       id="ellipse2" />
    <path
       fill="#ea5a47"
       stroke="none"
       d="m 12.1152,35.1201 c -1.1953,-0.6806 -2,-1.1201 -2,-1.1201 0,0 3.7842,-6.3921 9,-9 4,-2 11,-3 11,-3 v 3 l -6,4 4,3 8,-2 7,6 c 0,0 7,-3 10,-6 v -2 l 14,-3 -1,3 c 0,0 -22,16 -28,16 l 5,6 h -20 c 0,0 0,-6 -1,-8 -0.5361,-1.0723 -3.9502,-3.1689 -7,-5"
       id="path2" />
    <polyline
       fill="#fcea2b"
       stroke="none"
       points="65.1152,30 67.1152,32 65.417,33.668 62.875,31.126"
       id="polyline2" />
    <path
       fill="#fcea2b"
       stroke="none"
       d="m 15,38 -3,-2 c 0,0 4,-5 5,-5 1,0 -2,7 -2,7 z"
       id="path3" />
    <path
       fill="#d22f27"
       stroke="none"
       d="m 28.1152,32 c 0,4.834 4.8848,7.667 8.5518,7.667 3.0644,0 10.1143,-4.8565 12.5,-5.334 1.7148,-0.3428 1.5273,-1.8935 4.083,-2.708 1.585,-0.5059 10.25,-4.5 12.75,-4.25 1.6338,0.1636 -2.4717,2.251 -1.333,1.625 6.667,-3.666 -25,14.667 -25,14.667 L 37,44 29.167,40.334 23.5,34.834 v -5.5 z"
       id="path4" />
    <polygon
       fill="#3f3f3f"
       stroke="none"
       points="50.5,33 53.1152,30 53.1152,28 39.5,32.5 42,36 "
       id="polygon4" />
    <polygon
       fill="#d0cfce"
       stroke="none"
       points="48.5938,45 52.7188,42.875 59.625,39.7813 59.8438,38.4688 56,34.9492 47.9688,40.3125 40.2754,43.3145 38.8701,44 39.5,45 40.1504,45.3877 45.75,45.9688 "
       id="polygon5" />
  </g>
  <g
     id="hair"
     transform="translate(-4.0000997,-21.000015)" />
  <g
     id="skin"
     transform="translate(-4.0000997,-21.000015)" />
  <g
     id="skin-shadow"
     transform="translate(-4.0000997,-21.000015)" />
  <g
     id="line"
     transform="translate(-4.0000997,-21.000015)">
    <path
       fill="none"
       stroke="#000000"
       stroke-linecap="round"
       stroke-linejoin="round"
       stroke-miterlimit="10"
       stroke-width="2"
       d="m 15.1152,37 c 0,0 3,-4 2,-5"
       id="path5" />
    <ellipse
       cx="12.0313"
       cy="48"
       rx="7.0311999"
       ry="7"
       fill="none"
       stroke="#000000"
       stroke-miterlimit="10"
       stroke-width="2"
       id="ellipse5" />
    <path
       fill="none"
       stroke="#000000"
       stroke-linecap="round"
       stroke-linejoin="round"
       stroke-miterlimit="10"
       stroke-width="2"
       d="m 15.1152,37 c 3.0498,1.8311 6.4639,3.9277 7,5 1,2 1,9 1,9 h 20 c 0,0 -0.4863,-6.0371 -12.2812,-10 -1.9756,-0.6631 -11.4951,-7.2236 -6.7188,-12"
       id="path6" />
    <path
       fill="none"
       stroke="#000000"
       stroke-linecap="round"
       stroke-linejoin="round"
       stroke-miterlimit="10"
       stroke-width="2"
       d="m 12.1152,35.1201 c -1.1953,-0.6806 -2,-1.1201 -2,-1.1201 0,0 3.7842,-6.3921 9,-9 4,-2 11,-3 11,-3 v 3 l -6,4 4,3 c 0,0 6.7149,-3.6279 10,-1 1.875,1.5 4,5 4,5 0,0 8,-2 11,-5 v -3 l 14,-3 -1,3 c 0,0 -22.4902,16.167 -28.4902,16.167"
       id="path7" />
    <path
       fill="none"
       stroke="#000000"
       stroke-linecap="round"
       stroke-linejoin="round"
       stroke-miterlimit="10"
       stroke-width="2"
       d="m 15.1152,37 c 0,0 3,-4 2,-5"
       id="path8" />
    <line
       x1="18.1152"
       x2="12.0313"
       y1="40"
       y2="48"
       fill="none"
       stroke="#000000"
       stroke-linecap="round"
       stroke-linejoin="round"
       stroke-miterlimit="10"
       stroke-width="2"
       id="line8" />
    <polyline
       fill="none"
       stroke="#000000"
       stroke-linecap="round"
       stroke-linejoin="round"
       stroke-miterlimit="10"
       stroke-width="2"
       points="65.1152,30 67.1152,32 66.1152,33"
       id="polyline8" />
    <polyline
       fill="none"
       stroke="#000000"
       stroke-linecap="round"
       stroke-linejoin="round"
       stroke-miterlimit="10"
       stroke-width="2"
       points="59,39 48.1152,45 46,45"
       id="polyline9" />
    <path
       fill="none"
       stroke="#000000"
       stroke-linecap="round"
       stroke-linejoin="round"
       stroke-miterlimit="10"
       stroke-width="2"
       d="m 53.1152,28 c -5.2802,2.8496 -10.2822,4 -14,4"
       id="path9" />
    <path
       fill="none"
       stroke="#000000"
       stroke-linecap="round"
       stroke-miterlimit="10"
       stroke-width="2"
       d="m 46.2666,49.916 c 0.8379,2.9346 3.5498,5.084 6.7647,5.084 3.8828,0 7.0312,-3.1338 7.0312,-7 0,-1.6602 -0.5801,-3.1846 -1.5508,-4.3848"
       id="path10" />
  </g>
</svg>
