<?xml version="1.0" encoding="UTF-8" standalone="no"?>
<svg
   id="emoji"
   viewBox="0 0 48 53.9062"
   version="1.1"
   sodipodi:docname="1f3c2-1f3ff.svg"
   width="48"
   height="53.9062"
   xmlns:inkscape="http://www.inkscape.org/namespaces/inkscape"
   xmlns:sodipodi="http://sodipodi.sourceforge.net/DTD/sodipodi-0.dtd"
   xmlns="http://www.w3.org/2000/svg"
   xmlns:svg="http://www.w3.org/2000/svg">
  <defs
     id="defs4" />
  <sodipodi:namedview
     id="namedview4"
     pagecolor="#ffffff"
     bordercolor="#000000"
     borderopacity="0.25"
     inkscape:showpageshadow="2"
     inkscape:pageopacity="0.0"
     inkscape:pagecheckerboard="0"
     inkscape:deskcolor="#d1d1d1" />
  <g
     id="color"
     transform="translate(-8,-11.0938)" />
  <g
     id="hair"
     transform="translate(-8,-11.0938)" />
  <g
     id="skin"
     transform="translate(-8,-11.0938)">
    <circle
       cx="26.9688"
       cy="15.0938"
       r="3"
       fill="#6a462f"
       id="circle1" />
    <path
       fill="#6a462f"
       d="m 38.5,22 c 2.5,9 5.7383,17.0801 5.7383,17.0801 L 40.2734,42.6152 38.0322,56.126 34,55 34.5117,39.6357 33.9004,39.4004 28.5059,39.4805 23,48 19,47 23.1113,35.4092 30.8154,33 29.5,29 28,28 h -1 c 0,0 -2.333,0.875 -9.333,12.875 -1.5918,2.7295 -3.209,0.833 -3.209,0.833 C 14.792,40.958 26,24 26,24 l 11,-5 h 4 15 c 0,0 0,3 -3,3 -1.0479,0 -3,0 -13,0 -2,0 0,2 0,2"
       id="path1" />
  </g>
  <g
     id="skin-shadow"
     transform="translate(-8,-11.0938)" />
  <g
     id="line"
     transform="translate(-8,-11.0938)">
    <circle
       cx="26.9688"
       cy="15.0938"
       r="3"
       fill="none"
       stroke="#000000"
       stroke-miterlimit="10"
       stroke-width="2"
       id="circle2" />
    <path
       fill="none"
       stroke="#000000"
       stroke-linecap="round"
       stroke-linejoin="round"
       stroke-miterlimit="10"
       stroke-width="2"
       d="M 15,41 21.5195,29.5908 C 22.8838,27.2036 25.3496,24.2939 27,23.125 28.6504,21.9561 31.3496,20.5498 33,20 c 1.6504,-0.5498 5.25,-1 8,-1 h 3 c 2.75,0 6.3496,0 8,0 1.6504,0 3,0 3,0"
       id="path2" />
    <path
       fill="none"
       stroke="#000000"
       stroke-linecap="round"
       stroke-linejoin="round"
       stroke-miterlimit="10"
       stroke-width="2"
       d="m 38.5,23 c 0,0 0,0 3.625,8.0625 1.4648,3.2578 1.6533,4.9502 1.6533,4.9502 0.1221,1.0928 -0.3437,2.6875 -1.0351,3.543 l -1.2129,1.5039 c -0.6914,0.8554 -1.4043,2.4433 -1.584,3.5283 l -1.5869,9.5654 c -0.1797,1.085 -1.1944,1.7305 -2.2539,1.4346 L 35.9268,55.5381 C 34.8672,55.2422 34.0303,54.1006 34.0664,53.001 L 34.4453,41.6348 C 34.4814,40.5352 34.374,39.583 34.2061,39.5176 34.0381,39.4531 33,39.4141 31.9004,39.4297 l -1.3945,0.0215 c -1.0996,0.0156 -2.4883,0.7851 -3.086,1.709 l -3.334,5.1601 c -0.5976,0.9238 -1.9589,1.461 -3.0263,1.1943 l -0.1192,-0.0292 c -1.0674,-0.2666 -1.6396,-1.334 -1.2715,-2.3702 l 2.7735,-7.8213 c 0.3681,-1.0361 1.5283,-2.1533 2.5781,-2.4814 l 3.8858,-1.2158 c 1.0498,-0.3281 1.6279,-1.4512 1.2841,-2.4971 L 30.125,30.9004 C 29.7813,29.8545 29.1621,28.7749 28.75,28.5 28.3379,28.2251 28,28 28,28"
       id="path3" />
    <path
       fill="none"
       stroke="#000000"
       stroke-linecap="round"
       stroke-linejoin="round"
       stroke-miterlimit="10"
       stroke-width="2"
       d="m 45,64 c 0,0 -0.4502,0 -1,0 -0.5498,0 -2.1699,-0.6738 -3.5996,-1.4971 L 12.5996,46.4971 C 11.1699,45.6738 9.7754,44.5498 9.5,44 9.2246,43.4502 9,43 9,43"
       id="path4" />
  </g>
</svg>
