<?xml version="1.0" encoding="UTF-8" standalone="no"?>
<svg
   id="emoji"
   viewBox="0 0 40.705486 54.9062"
   version="1.1"
   sodipodi:docname="1f3c3-1f3fb.svg"
   width="40.705486"
   height="54.9062"
   xmlns:inkscape="http://www.inkscape.org/namespaces/inkscape"
   xmlns:sodipodi="http://sodipodi.sourceforge.net/DTD/sodipodi-0.dtd"
   xmlns="http://www.w3.org/2000/svg"
   xmlns:svg="http://www.w3.org/2000/svg">
  <defs
     id="defs6" />
  <sodipodi:namedview
     id="namedview6"
     pagecolor="#ffffff"
     bordercolor="#000000"
     borderopacity="0.25"
     inkscape:showpageshadow="2"
     inkscape:pageopacity="0.0"
     inkscape:pagecheckerboard="0"
     inkscape:deskcolor="#d1d1d1" />
  <g
     id="color"
     transform="translate(-19,-9.0937996)" />
  <g
     id="skin"
     transform="translate(-19,-9.0937996)">
    <circle
       cx="26.9688"
       cy="13.0938"
       r="3"
       fill="#fadcbc"
       id="circle1" />
    <path
       fill="#fadcbc"
       d="m 26.665,22.585 c 0,0 0.3038,3.708 3.3038,9.042 C 30.2129,32.0615 31,33.335 31,33.335 L 25,45 24.75,63 h 3.4238 L 30,48 36,42 42,37 V 33 L 36,22"
       id="path1" />
    <polyline
       fill="#fadcbc"
       points="42 36 49 46 59.167 52 58.167 55 46 50 37 42"
       id="polyline1" />
    <path
       fill="#fadcbc"
       d="M 36,22 C 34,18 31.6406,17.7671 29.9688,18.417 A 4.1078,4.1078 0 0 0 28,24"
       id="path2" />
  </g>
  <g
     id="line"
     transform="translate(-19,-9.0937996)">
    <circle
       cx="26.9688"
       cy="13.0938"
       r="3"
       fill="none"
       stroke="#000000"
       stroke-miterlimit="10"
       stroke-width="2"
       id="circle2" />
    <path
       fill="none"
       stroke="#000000"
       stroke-linecap="round"
       stroke-linejoin="round"
       stroke-width="2"
       d="m 42,36 5.8535,8.3613 a 11.0249,11.0249 0 0 0 2.8692,2.6553 l 6.7216,3.9668 A 2.3633,2.3633 0 0 1 58.667,53.5 1.69,1.69 0 0 1 56.317,54.24 L 47.85,50.76 A 14.1043,14.1043 0 0 1 44.5053,48.6711 L 37,42"
       id="path3" />
    <path
       fill="none"
       stroke="#000000"
       stroke-linecap="round"
       stroke-linejoin="round"
       stroke-width="2"
       d="m 30.8477,31.3594 c 0,0 0.26,0.5937 0.5761,1.32 a 3.7314,3.7314 0 0 1 -0.498,3.0078 l -4.8516,7.625 A 8.3233,8.3233 0 0 0 24.9727,47 l -0.1954,14 a 1.8486,1.8486 0 0 0 1.6846,2 2.1751,2.1751 0 0 0 1.9541,-1.9854 l 1.3418,-11.0292 a 6.789,6.789 0 0 1 1.6563,-3.3995 l 3.1718,-3.1718 c 0.7774,-0.7774 2.1055,-1.99 2.95,-2.6944 L 40.4639,38.28 A 4.8637,4.8637 0 0 0 42,35 v 0 A 9.3085,9.3085 0 0 0 41.042,31.2441 L 36,22"
       id="path4" />
    <path
       fill="none"
       stroke="#000000"
       stroke-linecap="round"
       stroke-linejoin="round"
       stroke-width="2"
       d="M 36,22 C 34,18 31.6406,17.7671 29.9688,18.417 A 3.859,3.859 0 0 0 27.6,22.251"
       id="path5" />
    <path
       fill="none"
       stroke="#000000"
       stroke-linecap="round"
       stroke-linejoin="round"
       stroke-width="2"
       d="m 30.9375,22 -1.4189,5.0771 A 2.7758,2.7758 0 0 1 27,29 h -7"
       id="path6" />
  </g>
</svg>
