<?xml version="1.0" encoding="UTF-8" standalone="no"?>
<svg
   id="emoji"
   viewBox="0 0 59.418392 58.265095"
   version="1.1"
   sodipodi:docname="1f3c4-200d-2642-fe0f.svg"
   width="59.418392"
   height="58.265095"
   xmlns:inkscape="http://www.inkscape.org/namespaces/inkscape"
   xmlns:sodipodi="http://sodipodi.sourceforge.net/DTD/sodipodi-0.dtd"
   xmlns="http://www.w3.org/2000/svg"
   xmlns:svg="http://www.w3.org/2000/svg">
  <defs
     id="defs9" />
  <sodipodi:namedview
     id="namedview9"
     pagecolor="#ffffff"
     bordercolor="#000000"
     borderopacity="0.25"
     inkscape:showpageshadow="2"
     inkscape:pageopacity="0.0"
     inkscape:pagecheckerboard="0"
     inkscape:deskcolor="#d1d1d1" />
  <g
     id="skin"
     transform="translate(-4.7237,-4.7501001)">
    <circle
       cx="33.558899"
       cy="8.7501001"
       r="2.8598001"
       fill="#fcea2b"
       id="circle1" />
    <path
       fill="#fcea2b"
       d="M 41.2252,21.7565 A 38.5074,38.5074 0 0 0 40.21,29.785 c -0.0095,1.9332 0.52,3.3974 0.4538,5.3335 l 0.6873,8.01 c 0,0 -1.2612,9.36 -1.9247,11.3992 -0.2945,0.9065 -2.0543,0.8369 -2.0543,0.8369 V 42.9725 l -1.9065,-7.6262 h -0.9533 l -5.72,7.6262 -3.8123,9.5327 c 0,0 -1.36,-0.4089 -1.4337,-1.3593 -0.1583,-2.0658 1.5881,-11.0637 1.5881,-11.0637 l 4.612,-8.5489 1.9065,-4.7664 0.04,-3.6148 A 21.4423,21.4423 0 0 0 29.09,20.5849 C 28.21,19.9081 27.2674,19.808 25.0748,20.952 a 20.9394,20.9394 0 0 1 -6.7682,2.0018 c -1.43,0.0954 -6.3869,0 -6.7682,0 A 1.7742,1.7742 0 0 1 9.6347,21.0177 c 0,0 8.2906,0.03 9.8158,-0.5424 1.5252,-0.5724 9.7234,-3.9084 9.7234,-3.9084 l 14.0131,-1.2392 11.4392,6.3869 3.672,1.4928 c 0,0 -0.4308,1.9389 -2.814,1.1763 A 31.64,31.64 0 0 1 49.8828,21.972 c -1.8427,-1.08 -3.1516,-2.0877 -4.8169,-3.1735 a 2.4631,2.4631 0 0 0 -2.1411,-0.162 1.577,1.577 0 0 0 -1.2745,1.407 c -0.1277,0.5165 -0.2955,1.1477 -0.4251,1.713 z"
       id="path1" />
  </g>
  <g
     id="color"
     transform="translate(-4.7237,-4.7501001)">
    <path
       fill="#92d3f5"
       stroke="#92d3f5"
       stroke-miterlimit="10"
       stroke-width="2"
       d="m 32.7564,61.1383 a 13.81,13.81 0 0 0 6.5219,-0.0536 l 4.7663,-1.9066 4.7664,-5.72 a 28.1609,28.1609 0 0 0 2.86,-5.72 c 0.9533,-2.86 1.9065,-3.4318 2.6692,-3.4318 a 4.1682,4.1682 0 0 1 1.7158,0.572 c 0,0 0.6673,2.0972 0.1907,2.86 0,0 -2.0019,3.05 -1.43,2.3831 a 17.1822,17.1822 0 0 1 2.4785,-0.3813 c 0.7626,0 3.5271,0.3813 3.8131,2.2879 a 3.6809,3.6809 0 0 0 1.0486,2.86 c 0.9638,1.417 1.2817,3.014 0.6673,3.8131 -0.7853,1.0212 -3.3652,1.0927 -5.6353,-0.9188 q -0.6743,-0.4473 -1.3474,-0.8924 -1.0856,-0.7178 -2.1687,-1.43 c 0,0 -2.1926,1.3345 -4.957,3.2411 a 16.7389,16.7389 0 0 1 -7.812,3.1847 15.2771,15.2771 0 0 1 -6.0707,-0.427"
       id="path2" />
  </g>
  <g
     id="line"
     transform="translate(-4.7237,-4.7501001)">
    <path
       fill="none"
       stroke="#000000"
       stroke-linecap="round"
       stroke-linejoin="round"
       stroke-width="2"
       d="m 5.7237,52.6959 c 0,0 2.2879,1.2392 8.77,2.6691 a 210.2877,210.2877 0 0 0 21.7346,3.05"
       id="path3" />
    <path
       fill="none"
       stroke="#000000"
       stroke-linecap="round"
       stroke-linejoin="round"
       stroke-width="2"
       d="m 51.6708,47.7389 c 0,0 0.9536,-3.6755 2.86,-3.6755 a 2.1691,2.1691 0 0 1 1.2741,0.49 2.516,2.516 0 0 1 0.5977,2.6681"
       id="path4" />
    <path
       fill="none"
       stroke="#000000"
       stroke-linecap="round"
       stroke-linejoin="round"
       stroke-width="2"
       d="m 50.501,57.49 a 4.6978,4.6978 0 0 1 5.044,-0.7656"
       id="path5" />
    <path
       fill="none"
       stroke="#000000"
       stroke-linecap="round"
       stroke-linejoin="round"
       stroke-width="2"
       d="m 58.433,58.6594 c 0,0 3.1458,2.1926 4.1944,0.6673 0.572,-0.8579 0.858,-2.86 -2.0018,-3.7177"
       id="path6" />
    <path
       fill="none"
       stroke="#000000"
       stroke-linecap="round"
       stroke-linejoin="round"
       stroke-width="2"
       d="m 32.693,61.1256 a 13.6292,13.6292 0 0 0 9.1922,-1.0837 c 3.5271,-2.3832 5.9728,-8.49 14.5522,-9.4432"
       id="path7" />
    <circle
       cx="33.558899"
       cy="8.7501001"
       r="3"
       fill="none"
       stroke="#000000"
       stroke-miterlimit="10"
       stroke-width="2"
       id="circle7" />
    <path
       fill="none"
       stroke="#000000"
       stroke-linecap="round"
       stroke-linejoin="round"
       stroke-width="2"
       d="m 10.5851,21.0473 h 4.8617 a 18.6309,18.6309 0 0 0 8.5794,-2.3832 22.68,22.68 0 0 1 7.6262,-2.86 77.4464,77.4464 0 0 1 8.5794,-0.4766 13.6688,13.6688 0 0 1 7.6262,2.3831 30.1609,30.1609 0 0 0 6.1963,3.8131 c 1.8112,0.7626 3.3364,1.43 3.3364,1.43"
       id="path8" />
    <path
       fill="none"
       stroke="#000000"
       stroke-linecap="round"
       stroke-linejoin="round"
       stroke-width="2"
       d="m 40.7661,20.0435 c 0,0 -1.052,7.93 -0.9934,10.03 a 21.2083,21.2083 0 0 0 0.5105,3.8426 92.3713,92.3713 0 0 1 0.5368,10.963 l -1.0976,8.5794 c -0.1722,1.0486 -0.8609,1.9065 -1.55,1.9065 -0.6891,0 -1.2914,-0.8579 -1.2914,-1.9065 v -8.5794 a 17.5053,17.5053 0 0 0 -0.43,-3.7178 L 35.59,37.2529 c -0.2583,-1.0486 -0.6027,-1.8112 -0.8609,-1.8112 -0.2582,0 -5.7956,5.4126 -6.3508,7.3163 -0.4,1.3737 -1.8725,7.8655 -1.8725,7.8655 -0.2574,0.9637 -0.9452,1.6186 -1.6916,1.469 -0.7637,-0.1526 -1.0038,-1.1935 -0.96,-2.1354 a 77.0643,77.0643 0 0 1 0.9909,-8.3344 c 0.65,-1.9294 4.6359,-8.0838 4.6359,-8.0838 a 15.2485,15.2485 0 0 0 1.6741,-3.7889 21.3952,21.3952 0 0 0 0.6465,-5.652 5.3294,5.3294 0 0 0 -0.8609,-2.86 5.107,5.107 0 0 0 -0.8609,-0.9532"
       id="path9" />
  </g>
</svg>
