<?xml version="1.0" encoding="UTF-8" standalone="no"?>
<svg
   id="emoji"
   viewBox="0 0 66.658821 36.125538"
   version="1.1"
   sodipodi:docname="1f3dc.svg"
   width="66.658821"
   height="36.125538"
   xmlns:inkscape="http://www.inkscape.org/namespaces/inkscape"
   xmlns:sodipodi="http://sodipodi.sourceforge.net/DTD/sodipodi-0.dtd"
   xmlns="http://www.w3.org/2000/svg"
   xmlns:svg="http://www.w3.org/2000/svg">
  <defs
     id="defs10" />
  <sodipodi:namedview
     id="namedview10"
     pagecolor="#ffffff"
     bordercolor="#000000"
     borderopacity="0.25"
     inkscape:showpageshadow="2"
     inkscape:pageopacity="0.0"
     inkscape:pagecheckerboard="0"
     inkscape:deskcolor="#d1d1d1" />
  <g
     id="color"
     transform="translate(-2.9358241,-21.9999)">
    <path
       fill="#f1b31c"
       stroke="#f1b31c"
       stroke-linecap="round"
       stroke-linejoin="round"
       stroke-miterlimit="10"
       stroke-width="2"
       d="m 65,39 c 0,0 -3,0 -6,1 -0.8645,0.2882 -2,0 -2,0 -8.4167,0 -12,-1.5833 -12,-1.5833 0,0 -5.8333,-3.5 -7.9167,-4.4167 C 35,33.0833 33,29 33,29 c -1,-3 -3.2795,-5.9886 -5,-6 -4.208,-0.0278 -6.2539,5.836 -11,9 -3,2 -3.3904,2.8141 -6,4 -2.2725,1.0328 -3.4741,2.9802 -4,4 0,0 -2.9792,1.9375 -3.0625,5.6875 C 3.8542,49.4375 7,52 7,52 c 0,0 5,6.75 13.75,3.875 9.1873,-3.0187 10.2042,-1.4848 13.6508,-0.7647 4.6036,0.9617 15.7242,-0.2978 19.1825,1.223 C 59.8946,59.1088 64.3621,53.8771 65,53 66.1878,51.3668 65.7901,48.8784 66.8333,47.4583 69.8333,43.375 68.875,42.375 65,39 Z"
       id="path1" />
    <path
       fill="#5c9e31"
       stroke="#5c9e31"
       stroke-linecap="round"
       stroke-linejoin="round"
       stroke-miterlimit="10"
       stroke-width="2"
       d="M 48,49 V 26 c 0,-1.6569 -1.3431,-3 -3,-3 v 0 c -1.6569,0 -3,1.3431 -3,3 v 23 z"
       id="path2" />
    <path
       fill="#5c9e31"
       stroke="none"
       stroke-linecap="round"
       stroke-linejoin="round"
       stroke-miterlimit="10"
       stroke-width="2"
       d="m 41,35 c -1.1046,0 -2,-0.8954 -2,-2 v -2 c 0,-1.1046 -0.8954,-2 -2,-2 v 0 c -1.1046,0 -2,0.8954 -2,2 v 2 c 0,3.3137 2.6863,6 6,6"
       id="path3" />
    <path
       fill="#5c9e31"
       stroke="none"
       stroke-linecap="round"
       stroke-linejoin="round"
       stroke-miterlimit="10"
       stroke-width="2"
       d="m 49,39 c 1.1046,0 2,-0.8954 2,-2 v -5 c 0,-1.1046 0.8954,-2 2,-2 v 0 c 1.1046,0 2,0.8954 2,2 v 5 c 0,3.3137 -2.6863,6 -6,6"
       id="path4" />
  </g>
  <g
     id="hair"
     transform="translate(-2.9358241,-21.9999)" />
  <g
     id="skin"
     transform="translate(-2.9358241,-21.9999)" />
  <g
     id="skin-shadow"
     transform="translate(-2.9358241,-21.9999)" />
  <g
     id="line"
     transform="translate(-2.9358241,-21.9999)">
    <path
       fill="none"
       stroke="#000000"
       stroke-linecap="round"
       stroke-linejoin="round"
       stroke-miterlimit="10"
       stroke-width="2"
       d="M 48,49 V 26 c 0,-1.6569 -1.3431,-3 -3,-3 v 0 c -1.6569,0 -3,1.3431 -3,3 v 23"
       id="path5" />
    <path
       fill="none"
       stroke="#000000"
       stroke-linecap="round"
       stroke-linejoin="round"
       stroke-miterlimit="10"
       stroke-width="2"
       d="m 41,35 c -1.1046,0 -2,-0.8954 -2,-2 v -2 c 0,-1.1046 -0.8954,-2 -2,-2 v 0 c -1.1046,0 -2,0.8954 -2,2 v 2 c 0,3.3137 2.6863,6 6,6"
       id="path6" />
    <path
       fill="none"
       stroke="#000000"
       stroke-linecap="round"
       stroke-linejoin="round"
       stroke-miterlimit="10"
       stroke-width="2"
       d="m 49,39 c 1.1046,0 2,-0.8954 2,-2 v -5 c 0,-1.1046 0.8954,-2 2,-2 v 0 c 1.1046,0 2,0.8954 2,2 v 5 c 0,3.3137 -2.6863,6 -6,6"
       id="path7" />
    <path
       fill="none"
       stroke="#000000"
       stroke-linecap="round"
       stroke-linejoin="round"
       stroke-miterlimit="10"
       stroke-width="2"
       d="m 65,53 c -1,0 -5.1773,-0.8355 -6,-1 -5,-1 -9.1501,-1.1937 -15,1 -8,3 -8.9429,2.2591 -10,2 -2.1584,-0.5291 -5.1975,-3.8697 -9,-5 -4.706,-1.3989 -6.1016,-1.111 -9,-1 -1.8477,0.0708 -5.1262,0.5229 -9,3"
       id="path8" />
    <path
       fill="none"
       stroke="#000000"
       stroke-linecap="round"
       stroke-linejoin="round"
       stroke-miterlimit="10"
       stroke-width="2"
       d="m 7,40 c 0.5259,-1.0198 1.7275,-2.9672 4,-4 2.6096,-1.1859 3,-2 6,-4 4.7461,-3.164 6.792,-9.0278 11,-9 1.7205,0.0114 4,3 5,6"
       id="path9" />
    <path
       fill="none"
       stroke="#000000"
       stroke-linecap="round"
       stroke-linejoin="round"
       stroke-miterlimit="10"
       stroke-width="2"
       d="m 65,39 c 0,0 -3,0 -6,1 -0.8645,0.2882 -2,0 -2,0"
       id="path10" />
  </g>
</svg>
