<?xml version="1.0" encoding="UTF-8" standalone="no"?>
<svg
   id="emoji"
   viewBox="0 0 66.060173 65.130898"
   version="1.1"
   sodipodi:docname="1f3d2.svg"
   width="66.060173"
   height="65.130898"
   xmlns:inkscape="http://www.inkscape.org/namespaces/inkscape"
   xmlns:sodipodi="http://sodipodi.sourceforge.net/DTD/sodipodi-0.dtd"
   xmlns="http://www.w3.org/2000/svg"
   xmlns:svg="http://www.w3.org/2000/svg">
  <defs
     id="defs5" />
  <sodipodi:namedview
     id="namedview5"
     pagecolor="#ffffff"
     bordercolor="#000000"
     borderopacity="0.25"
     inkscape:showpageshadow="2"
     inkscape:pageopacity="0.0"
     inkscape:pagecheckerboard="0"
     inkscape:deskcolor="#d1d1d1" />
  <g
     id="color"
     transform="translate(-2.9921,-3.4109004)">
    <path
       fill="#9b9b9a"
       stroke="none"
       d="m 65.4897,62.0277 v 3.6853 c 0,1.0376 -4.2382,1.8788 -9.4662,1.8788 -5.228,0 -9.4662,-0.8412 -9.4662,-1.8788 v -3.6853"
       id="path1" />
    <ellipse
       cx="56.023499"
       cy="61.635799"
       rx="9.4661999"
       ry="1.8788"
       fill="#d0cfce"
       stroke="none"
       id="ellipse1" />
    <path
       fill="#a57939"
       stroke="none"
       d="m 33.1938,56.7781 c -0.4812,0.7463 -1.3198,1.2404 -2.2739,1.2404 H 30.941 7.056 c -1.6851,0 -3.0639,1.3788 -3.0639,3.0639 v 2.5609 c 0,1.6852 1.3788,3.0639 3.0639,3.0639 h 24.2974 c 1.1031,0 2.0849,-0.5854 2.6246,-1.4662 v 0 L 67.7809,7.9113 C 68.3366,6.9688 68.0201,5.7431 67.0776,5.1874 L 66.6492,4.9349 66.2208,4.6823 C 65.2784,4.1266 64.0526,4.4431 63.4969,5.3856 Z"
       id="path2" />
    <path
       fill="#6a462f"
       stroke="none"
       d="M 67.0776,5.191 66.6785,4.9557 33.3233,61.4713 c -0.5397,0.8809 -1.5214,1.4662 -2.6246,1.4662 H 20.8985 6.4013 3.3374 v 1.765 c 0,1.6852 2.0335,2.0082 3.7186,2.0082 h 24.2974 c 1.1031,0 2.0848,-0.5854 2.6246,-1.4662 L 65.9765,12.953 68.5073,8.6413 C 69.063,7.6987 68.0201,5.7466 67.0776,5.191 Z"
       id="path3" />
  </g>
  <g
     id="hair"
     transform="translate(-2.9921,-3.4109004)" />
  <g
     id="skin"
     transform="translate(-2.9921,-3.4109004)" />
  <g
     id="skin-shadow"
     transform="translate(-2.9921,-3.4109004)" />
  <g
     id="line"
     transform="translate(-2.9921,-3.4109004)">
    <path
       fill="none"
       stroke="#000000"
       stroke-linecap="round"
       stroke-linejoin="round"
       stroke-miterlimit="10"
       stroke-width="2"
       d="M 67.2748,8.7696 67.7809,7.9113 C 68.3366,6.9688 68.0201,5.7431 67.0776,5.1874 L 66.6492,4.9349 66.2208,4.6823 C 65.2784,4.1266 64.0526,4.4431 63.4969,5.3856 L 33.1938,56.7781 c -0.4812,0.7463 -1.3198,1.2404 -2.2739,1.2404 H 30.941 7.056 c -1.6851,0 -3.0639,1.3788 -3.0639,3.0639 v 2.5609 c 0,1.6852 1.3788,3.0639 3.0639,3.0639 h 24.2974 c 1.1031,0 2.0849,-0.5854 2.6246,-1.4662 v 0 L 65.2468,12.2092"
       id="path4" />
    <path
       fill="none"
       stroke="#000000"
       stroke-linecap="round"
       stroke-linejoin="round"
       stroke-miterlimit="10"
       stroke-width="1.9"
       d="m 65.4897,61.6258 v 3.9515 c 0,1.1126 -4.2382,2.0145 -9.4662,2.0145 -5.228,0 -9.4662,-0.9019 -9.4662,-2.0145 v -3.9515"
       id="path5" />
    <ellipse
       cx="56.023499"
       cy="61.635799"
       rx="9.4661999"
       ry="1.8788"
       fill="none"
       stroke="#000000"
       stroke-linecap="round"
       stroke-linejoin="round"
       stroke-miterlimit="10"
       stroke-width="1.9"
       id="ellipse5" />
  </g>
</svg>
