<svg xmlns="http://www.w3.org/2000/svg" xmlns:svg="http://www.w3.org/2000/svg" id="emoji" width="50.01" height="49.763" version="1.1" viewBox="0 0 50.01 49.763"><g id="color" transform="translate(-10.99,-11.120139)"><rect id="rect1" width="34.92" height="25.95" x="18.54" y="26" fill="#9b9b9a"/><rect id="rect2" width="48" height="4" x="12" y="56" fill="#fff" stroke-miterlimit="10"/><rect id="rect3" width="43.74" height="4" x="14.13" y="22" fill="#fff" stroke-miterlimit="10"/><rect id="rect4" width="40.55" height="4" x="15.72" y="52" fill="#fff" stroke-miterlimit="10"/><rect id="rect5" width="4" height="26" x="18.5" y="26" fill="#fff" stroke-miterlimit="10"/><rect id="rect6" width="4" height="26" x="27.35" y="26.15" fill="#fff" stroke-miterlimit="10"/><rect id="rect7" width="3.941" height="26" x="49.52" y="25.95" fill="#fff" stroke-miterlimit="10"/><polygon id="polygon7" fill="#fff" stroke-linecap="round" stroke-linejoin="round" stroke-miterlimit="10" stroke-width="2" points="53 21.75 36 12 19 21.75"/><rect id="rect8" width="4" height="26" x="40.35" y="26.15" fill="#fff" stroke-miterlimit="10"/></g><g id="line" transform="translate(-10.99,-11.120139)"><rect id="rect9" width="48.01" height="3.993" x="11.99" y="55.89" fill="none" stroke="#000" stroke-linecap="round" stroke-linejoin="round" stroke-miterlimit="10" stroke-width="2"/><rect id="rect10" width="43.65" height="3.999" x="14.18" y="21.76" fill="none" stroke="#000" stroke-linecap="round" stroke-linejoin="round" stroke-miterlimit="10" stroke-width="2.001"/><rect id="rect11" width="41.47" height="3.993" x="15.27" y="51.76" fill="none" stroke="#000" stroke-linecap="round" stroke-linejoin="round" stroke-miterlimit="10" stroke-width="2"/><rect id="rect12" width="4.298" height="26.3" x="18.35" y="25.61" fill="none" stroke="#000" stroke-linecap="round" stroke-linejoin="round" stroke-miterlimit="10" stroke-width="1.702"/><rect id="rect13" width="4.298" height="26.3" x="27.35" y="25.61" fill="none" stroke="#000" stroke-linecap="round" stroke-linejoin="round" stroke-miterlimit="10" stroke-width="1.702"/><rect id="rect14" width="4.298" height="26.3" x="49.35" y="25.61" fill="none" stroke="#000" stroke-linecap="round" stroke-linejoin="round" stroke-miterlimit="10" stroke-width="1.702"/><polygon id="polygon14" fill="none" stroke="#000" stroke-linecap="round" stroke-linejoin="round" stroke-miterlimit="10" stroke-width="1.916" points="53 21.75 36 12 19 21.75" transform="matrix(1.091,0,0,0.9982,-3.283,0.098)"/><rect id="rect15" width="4.298" height="26.3" x="40.35" y="25.61" fill="none" stroke="#000" stroke-linecap="round" stroke-linejoin="round" stroke-miterlimit="10" stroke-width="1.702"/></g></svg>