<svg xmlns="http://www.w3.org/2000/svg" xmlns:svg="http://www.w3.org/2000/svg" id="emoji" width="62.359" height="38.988" version="1.1" viewBox="0 0 62.359 38.988"><g id="color" transform="translate(-4.82055,-16.27565)"><rect id="rect1" width="60.428" height="1.937" x="5.691" y="53.327" fill="#fff" rx=".968" ry=".968"/><polyline id="polyline1" fill="#9b9b9a" points="10.667 33.814 10.667 17.25 20.41 17.25 20.41 33.814"/><rect id="rect2" width="12.667" height="34.103" x="34.051" y="21.147" fill="#9b9b9a"/><polyline id="polyline2" fill="#d0cfce" points="50.615 55.25 50.615 25.045 66.205 25.045 66.205 55.25"/><polyline id="polyline3" fill="#d0cfce" points="5.795 55.25 5.795 33.814 38.923 33.814 38.923 55.25"/></g><g id="line" transform="translate(-4.82055,-16.27565)"><polyline id="polyline4" fill="none" stroke="#000" stroke-miterlimit="10" stroke-width=".974" points="50.615 55 50.615 25.045 66.205 25.045 66.205 55"/><polyline id="polyline5" fill="none" stroke="#000" stroke-miterlimit="10" stroke-width=".974" points="5.795 55 5.795 33.814 38.923 33.814 38.923 55.25"/><polyline id="polyline6" fill="none" stroke="#000" stroke-linecap="round" stroke-linejoin="round" stroke-width="1.949" points="50.615 54.276 50.615 25.045 66.205 25.045 66.205 54.276"/><polyline id="polyline7" fill="none" stroke="#000" stroke-linecap="round" stroke-linejoin="round" stroke-width="1.949" points="5.795 54.276 5.795 33.814 38.923 33.814 38.923 54.276"/><polyline id="polyline8" fill="none" stroke="#000" stroke-linecap="round" stroke-linejoin="round" stroke-width="1.949" points="35.026 30.891 35.026 21.147 46.718 21.147 46.718 54.276"/><polyline id="polyline9" fill="none" stroke="#000" stroke-linecap="round" stroke-linejoin="round" stroke-width="1.949" points="11.641 30.891 11.641 17.25 19.436 17.25 19.436 30.891"/><polyline id="polyline10" fill="none" stroke="#000" stroke-linecap="round" stroke-linejoin="round" stroke-width="1.949" points="56.462 33.814 54.513 33.814 54.513 28.942"/><polyline id="polyline11" fill="none" stroke="#000" stroke-linecap="round" stroke-linejoin="round" stroke-width="1.949" points="62.308 33.814 60.359 33.814 60.359 28.942"/><polyline id="polyline12" fill="none" stroke="#000" stroke-linecap="round" stroke-linejoin="round" stroke-width="1.949" points="56.462 43.558 54.513 43.558 54.513 38.686"/><polyline id="polyline13" fill="none" stroke="#000" stroke-linecap="round" stroke-linejoin="round" stroke-width="1.949" points="62.308 43.558 60.359 43.558 60.359 38.686"/><polyline id="polyline14" fill="none" stroke="#000" stroke-linecap="round" stroke-linejoin="round" stroke-width="1.949" points="29.18 42.583 27.231 42.583 27.231 37.712"/><polyline id="polyline15" fill="none" stroke="#000" stroke-linecap="round" stroke-linejoin="round" stroke-width="1.949" points="35.026 42.583 33.077 42.583 33.077 37.712"/><polyline id="polyline16" fill="none" stroke="#000" stroke-linecap="round" stroke-linejoin="round" stroke-width="1.949" points="29.18 52.327 27.231 52.327 27.231 47.455"/><polyline id="polyline17" fill="none" stroke="#000" stroke-linecap="round" stroke-linejoin="round" stroke-width="1.949" points="35.026 52.327 33.077 52.327 33.077 47.455"/><polyline id="polyline18" fill="none" stroke="#000" stroke-linecap="round" stroke-linejoin="round" stroke-width="1.949" points="17.487 42.583 15.539 42.583 15.539 37.712"/><polyline id="polyline19" fill="none" stroke="#000" stroke-linecap="round" stroke-linejoin="round" stroke-width="1.949" points="23.333 42.583 21.385 42.583 21.385 37.712"/><polyline id="polyline20" fill="none" stroke="#000" stroke-linecap="round" stroke-linejoin="round" stroke-width="1.949" points="17.487 52.327 15.539 52.327 15.539 47.455"/><polyline id="polyline21" fill="none" stroke="#000" stroke-linecap="round" stroke-linejoin="round" stroke-width="1.949" points="11.641 42.583 9.692 42.583 9.692 37.712"/><polyline id="polyline22" fill="none" stroke="#000" stroke-linecap="round" stroke-linejoin="round" stroke-width="1.949" points="11.641 52.327 9.692 52.327 9.692 47.455"/><polyline id="polyline23" fill="none" stroke="#000" stroke-linecap="round" stroke-linejoin="round" stroke-width="1.949" points="23.333 52.327 21.385 52.327 21.385 47.455"/><polyline id="polyline24" fill="none" stroke="#000" stroke-linecap="round" stroke-linejoin="round" stroke-width="1.949" points="56.462 53.301 54.513 53.301 54.513 48.429"/><polyline id="polyline25" fill="none" stroke="#000" stroke-linecap="round" stroke-linejoin="round" stroke-width="1.949" points="62.308 53.301 60.359 53.301 60.359 48.429"/><line id="line25" x1="15.539" x2="15.539" y1="20.173" y2="30.891" fill="none" stroke="#000" stroke-linecap="round" stroke-linejoin="round" stroke-width="1.949"/><line id="line26" x1="38.923" x2="38.923" y1="24.07" y2="30.891" fill="none" stroke="#000" stroke-linecap="round" stroke-linejoin="round" stroke-width="1.949"/><line id="line27" x1="42.82" x2="42.82" y1="24.07" y2="54.276" fill="none" stroke="#000" stroke-linecap="round" stroke-linejoin="round" stroke-width="1.949"/></g></svg>