<svg xmlns="http://www.w3.org/2000/svg" xmlns:svg="http://www.w3.org/2000/svg" id="emoji" width="62.5" height="47.057" version="1.1" viewBox="0 0 62.5 47.057"><g id="color" transform="translate(-4.5,-8.9985558)"><path id="path1" fill="#f1b31c" stroke="#f1b31c" stroke-linecap="round" stroke-linejoin="round" stroke-miterlimit="10" stroke-width="1.8" d="m 55,50 c -1.5318,-2.2976 -6,-6 -11,-6 -1,0 -1.6479,0.1075 -2.4739,0.2521 L 30.6883,45 c -1.4621,0 -2.8392,0 -3.6883,0 -4.1231,0 -7.5181,3.0361 -9,6 0,0 -0.953,1.6965 -0.7547,2.2304 C 17.3462,53.5021 18,53.4167 18,53.4167 h 37.8333 c 0,0 1.75,0.5 0.9167,-1 C 55.9167,50.9167 55,50 55,50 Z"/><path id="path2" fill="#92d3f5" stroke="#92d3f5" stroke-linecap="round" stroke-linejoin="round" stroke-miterlimit="10" stroke-width="1.8" d="m 66,55 c -2,-3 -5.2153,-4.2184 -7,-4 -3.4536,0.4226 -5.6051,3.6469 -8.5,3 -3.0688,-0.6857 -3.5667,-3.3277 -6,-3 -3.0049,0.4046 -4.3383,4.0176 -8,4 C 36.1139,54.9981 35.1964,54.9932 34.1667,54.5456 31.5565,53.411 31.1107,50.5751 27.5,51 c -4.0531,0.477 -5.909,4.5912 -9,4 -2.6975,-0.5159 -3.112,-3.5376 -6,-4 -2.6618,-0.4262 -5.2581,1.9705 -7,4 z"/><path id="path3" fill="#5c9e31" stroke="#5c9e31" stroke-linecap="round" stroke-linejoin="round" stroke-miterlimit="10" stroke-width="1.8" d="m 44,11 c -0.6902,-0.3647 -2.1404,-1.036 -4,-1 -0.7209,0.0139 -4.1718,0.1831 -6,3 -1.0579,1.63 -1.0448,3.3162 -1,4 0,0 2.7047,-3.8756 5.8958,-4.4583 2.1818,-0.3984 3.4561,-0.4574 4.3171,-0.6458 C 44.1086,11.6999 44.2636,11.1393 44,11 Z"/><path id="path4" fill="#5c9e31" stroke="#5c9e31" stroke-linecap="round" stroke-linejoin="round" stroke-miterlimit="10" stroke-width="1.8" d="m 32.1196,20.097 c -1.2964,-0.8621 -3.4264,-2.0067 -6.256,-2.4212 -1.2909,-0.1891 -5.6496,-0.6543 -9.8613,1.9381 -1.2756,0.7852 -2.1981,1.6419 -2.7981,2.2738 0,0 6.9849,2.029 18.9154,-1.7907"/><path id="path5" fill="#b1cc33" stroke="#b1cc33" stroke-linecap="round" stroke-linejoin="round" stroke-miterlimit="10" stroke-width="1.8" d="M 57,17 C 55.9964,16.2283 55.2765,15.7201 53.9647,15.0275 52.841,14.4342 50.3939,13.13 47,13 c -1.5682,-0.0601 -4.8729,-0.1943 -8,2 -2.4655,1.73 -3.574,3.9823 -4,5 0,0 4.7083,-1.4583 6.125,-1.6667 1.4167,-0.2083 4.0791,-0.605 5.6247,-0.605 1.5709,0 3.7086,-0.02 5.542,0.1884 1.8333,0.2083 3.4132,0.4239 4.2377,0.7421 0.6706,0.2588 0.9765,0.3843 1.0628,-0.4235 C 57.617,18.0029 57.5523,17.4247 57,17 Z"/><path id="path6" fill="#b1cc33" stroke="#b1cc33" stroke-linecap="round" stroke-linejoin="round" stroke-miterlimit="10" stroke-width="1.8" d="m 50,30 c -0.2987,-1.0506 -1.0579,-3.1512 -3,-5 -0.6188,-0.5891 -3.124,-2.8339 -7,-3 -2.2968,-0.0984 -4.0812,0.5756 -5,1 0,0 0.8466,1.0302 2.4858,1.9526 1.6392,0.9224 5.0975,3.1633 7.2225,3.9387 C 46.8333,29.6667 48.5,29.7917 50,30"/><path id="path7" fill="#b1cc33" stroke="#b1cc33" stroke-linecap="round" stroke-linejoin="round" stroke-miterlimit="10" stroke-width="1.8" d="m 31,23 c -0.6941,-0.2235 -1.7119,-0.7514 -3,-1 -3.5551,-0.6861 -8.9903,-0.0524 -12,4 -1.9682,2.6501 -2.0579,5.6294 -2,7 0,0 2.5474,-1.9157 6.8333,-4.5553 4.0392,-2.4876 5.7563,-2.6764 9.7817,-3.314 C 32.062,24.9016 31.6554,23.2111 31,23 Z"/><polygon id="polygon7" fill="#a57939" stroke="none" stroke-linecap="round" stroke-linejoin="round" stroke-miterlimit="10" stroke-width="2" points="31.743 27.518 35.607 26.482 36.257 31.485 33.681 32.175"/><polygon id="polygon8" fill="#a57939" stroke="none" stroke-linecap="round" stroke-linejoin="round" stroke-miterlimit="10" stroke-width="2" points="32.514 31.868 37.438 31 37.486 36.069 34.203 36.648"/><polygon id="polygon9" fill="#a57939" stroke="none" stroke-linecap="round" stroke-linejoin="round" stroke-miterlimit="10" stroke-width="2" points="33.011 36.523 38.989 36 38.428 41.068 34.443 41.417"/><polygon id="polygon10" fill="#a57939" stroke="none" stroke-linecap="round" stroke-linejoin="round" stroke-miterlimit="10" stroke-width="2" points="32.995 41.157 38.995 41.157 37.995 46.157 33.995 46.157"/></g><g id="line" transform="translate(-4.5,-8.9985558)"><polygon id="polygon11" fill="none" stroke="#000" stroke-linecap="round" stroke-linejoin="round" stroke-miterlimit="10" stroke-width="2" points="31.743 27.518 35.607 26.482 36.257 31.485 33.681 32.175"/><polygon id="polygon12" fill="none" stroke="#000" stroke-linecap="round" stroke-linejoin="round" stroke-miterlimit="10" stroke-width="2" points="32.514 31.868 37.438 31 37.486 36.069 34.203 36.648"/><path id="path12" fill="none" stroke="#000" stroke-linecap="round" stroke-linejoin="round" stroke-miterlimit="10" stroke-width="2" d="m 5.5,55 c 1.7419,-2.0295 4.3382,-4.4262 7,-4 2.888,0.4624 3.3025,3.4841 6,4 3.091,0.5912 4.9469,-3.523 9,-4 3.6107,-0.4249 4.0565,2.411 6.6667,3.5456 1.0297,0.4476 1.9472,0.4525 2.3333,0.4544 3.6617,0.0176 4.9951,-3.5954 8,-4 2.4333,-0.3277 2.9312,2.3143 6,3 2.8949,0.6469 5.0464,-2.5774 8.5,-3 1.7847,-0.2184 5,1 7,4"/><path id="path13" fill="none" stroke="#000" stroke-linecap="round" stroke-linejoin="round" stroke-miterlimit="10" stroke-width="2" d="M 41.5261,44.2521 C 42.3521,44.1075 43,44 44,44 c 5,0 9.4682,3.7024 11,6"/><path id="path14" fill="none" stroke="#000" stroke-linecap="round" stroke-linejoin="round" stroke-miterlimit="10" stroke-width="2" d="m 18,51 c 1.4819,-2.9639 4.8769,-6 9,-6 0.8491,0 2.2262,0 3.6883,0"/><path id="path15" fill="none" stroke="#000" stroke-linecap="round" stroke-linejoin="round" stroke-miterlimit="10" stroke-width="2" d="m 14,33 c -0.0579,-1.3706 0.0318,-4.3499 2,-7 3.0097,-4.0524 8.4449,-4.686 12,-4 1.2881,0.2486 2.3112,0.6668 3,1"/><polygon id="polygon15" fill="none" stroke="#000" stroke-linecap="round" stroke-linejoin="round" stroke-miterlimit="10" stroke-width="2" points="33.011 36.523 38.989 36 38.428 41.068 34.443 41.417"/><path id="path16" fill="none" stroke="#000" stroke-linecap="round" stroke-linejoin="round" stroke-miterlimit="10" stroke-width="2" d="m 35,20 c 0.426,-1.0177 1.5345,-3.27 4,-5 3.1271,-2.1943 6.4318,-2.0601 8,-2 3.3939,0.13 5.8763,1.4067 7,2 1.3118,0.6926 2.3149,1.4347 3,2"/><path id="path17" fill="none" stroke="#000" stroke-linecap="round" stroke-linejoin="round" stroke-miterlimit="10" stroke-width="2" d="m 32.1196,20.097 c -1.2964,-0.8621 -3.4264,-2.0067 -6.256,-2.4212 -1.2909,-0.1891 -5.6496,-0.6543 -9.8613,1.9381 -1.2756,0.7852 -2.1981,1.6419 -2.7981,2.2738"/><path id="path18" fill="none" stroke="#000" stroke-linecap="round" stroke-linejoin="round" stroke-miterlimit="10" stroke-width="2" d="m 44,11 c -0.7129,-0.3879 -2.1404,-1.036 -4,-1 -0.7209,0.0139 -4.1718,0.1831 -6,3 -1.0579,1.63 -1.0448,3.3162 -1,4"/><path id="path19" fill="none" stroke="#000" stroke-linecap="round" stroke-linejoin="round" stroke-miterlimit="10" stroke-width="2" d="m 35,23 c 0.9188,-0.4244 2.7032,-1.0984 5,-1 3.876,0.1661 6.3812,2.4109 7,3 1.9421,1.8488 2.7013,3.9494 3,5"/><path id="path20" fill="none" stroke="#000" stroke-linecap="round" stroke-linejoin="round" stroke-miterlimit="10" stroke-width="2" d="M 28.955,28.0291 C 28.832,27.5268 28.5771,26.7699 28.0149,26.0002 27.687,25.5514 27.3398,25.2148 27.045,24.9709"/><path id="path21" fill="none" stroke="#000" stroke-linecap="round" stroke-linejoin="round" stroke-miterlimit="10" stroke-width="2" d="M 25.1464,28.8913 C 24.9589,28.4095 24.6074,27.6922 23.9495,27.0026 23.5659,26.6004 23.1777,26.312 22.8536,26.1087"/><path id="path22" fill="none" stroke="#000" stroke-linecap="round" stroke-linejoin="round" stroke-miterlimit="10" stroke-width="2" d="m 22.2254,30.8223 c -0.2152,-0.4702 -0.6079,-1.1657 -1.3048,-1.816 -0.4064,-0.3791 -0.8107,-0.6444 -1.146,-0.8286"/><path id="path23" fill="none" stroke="#000" stroke-linecap="round" stroke-linejoin="round" stroke-miterlimit="10" stroke-width="2" d="M 20.1829,33.8604 C 19.9827,33.3837 19.6123,32.676 18.9363,32.0041 18.5421,31.6122 18.1464,31.3343 17.8171,31.1396"/><path id="path24" fill="none" stroke="#000" stroke-linecap="round" stroke-linejoin="round" stroke-miterlimit="10" stroke-width="2" d="m 42.8452,19.4397 c 9e-4,-0.5171 0.0699,-1.3128 0.4345,-2.1935 0.2126,-0.5135 0.4705,-0.9226 0.6993,-1.2292"/><path id="path25" fill="none" stroke="#000" stroke-linecap="round" stroke-linejoin="round" stroke-miterlimit="10" stroke-width="2" d="m 46.7497,19.3783 c 0.0684,-0.5125 0.2406,-1.2925 0.717,-2.118 0.2779,-0.4814 0.587,-0.8533 0.8539,-1.1274"/><path id="path26" fill="none" stroke="#000" stroke-linecap="round" stroke-linejoin="round" stroke-miterlimit="10" stroke-width="2" d="m 50.044,20.5649 c 0.0981,-0.5077 0.3154,-1.2763 0.8391,-2.0726 0.3054,-0.4644 0.6356,-0.8177 0.918,-1.0758"/><path id="path27" fill="none" stroke="#000" stroke-linecap="round" stroke-linejoin="round" stroke-miterlimit="10" stroke-width="2" d="m 52.7461,23.0349 c 0.082,-0.5105 0.2749,-1.2856 0.773,-2.0982 0.2906,-0.4738 0.6094,-0.8374 0.8835,-1.1043"/><polygon id="polygon27" fill="none" stroke="#000" stroke-linecap="round" stroke-linejoin="round" stroke-miterlimit="10" stroke-width="2" points="32.995 41.157 38.995 41.157 37.995 46.157 33.995 46.157"/><path id="path28" fill="none" stroke="#000" stroke-linecap="round" stroke-linejoin="round" stroke-miterlimit="10" stroke-width="2" d="m 39.0087,27.0625 c 0.3036,-0.4185 0.8256,-1.0231 1.637,-1.5233 0.4731,-0.2917 0.9217,-0.4722 1.2868,-0.5866"/><path id="path29" fill="none" stroke="#000" stroke-linecap="round" stroke-linejoin="round" stroke-miterlimit="10" stroke-width="2" d="m 42.2092,29.2998 c 0.3557,-0.3753 0.9521,-0.9066 1.8218,-1.2966 0.5071,-0.2274 0.9755,-0.3478 1.3524,-0.4136"/><path id="path30" fill="none" stroke="#000" stroke-linecap="round" stroke-linejoin="round" stroke-miterlimit="10" stroke-width="2" d="m 44.1841,32.1912 c 0.3769,-0.354 1.0033,-0.8496 1.8942,-1.1884 0.5195,-0.1975 0.9941,-0.2904 1.3741,-0.3341"/></g></svg>