<?xml version="1.0" encoding="UTF-8" standalone="no"?>
<svg
   id="emoji"
   viewBox="0 0 62 28.910025"
   version="1.1"
   sodipodi:docname="1f3df.svg"
   width="62"
   height="28.910025"
   xmlns:inkscape="http://www.inkscape.org/namespaces/inkscape"
   xmlns:sodipodi="http://sodipodi.sourceforge.net/DTD/sodipodi-0.dtd"
   xmlns="http://www.w3.org/2000/svg"
   xmlns:svg="http://www.w3.org/2000/svg">
  <defs
     id="defs16" />
  <sodipodi:namedview
     id="namedview16"
     pagecolor="#ffffff"
     bordercolor="#000000"
     borderopacity="0.25"
     inkscape:showpageshadow="2"
     inkscape:pageopacity="0.0"
     inkscape:pagecheckerboard="0"
     inkscape:deskcolor="#d1d1d1" />
  <g
     id="color"
     transform="translate(-5,-21.089777)">
    <polygon
       fill="#d0cfce"
       points="10,49 6,34 66,34 62,49 "
       id="polygon1" />
    <path
       fill="#d0cfce"
       d="M 66,34 C 66,23.5066 46.4934,26 36,26 25.5066,26 6,23.5066 6,34 Z"
       id="path1" />
    <path
       fill="#d0cfce"
       d="m 14,31 c 0,-10.4934 15.704,-6 22,-6 6.296,0 22,-4.4934 22,6 z"
       id="path2" />
    <path
       fill="#d0cfce"
       d="m 25,33.5733 c 0,-18.3823 8.4816,-9.1724 11,-9.1724 2.5184,0 12,-9.2099 12,9.1724 z"
       id="path3" />
    <path
       fill="#92d3f5"
       d="M 41,49 C 41,38.5066 38.0987,37 36,37 33.9013,37 31,38.5066 31,49 Z"
       id="path4" />
  </g>
  <g
     id="hair"
     transform="translate(-5,-21.089777)" />
  <g
     id="skin"
     transform="translate(-5,-21.089777)" />
  <g
     id="skin-shadow"
     transform="translate(-5,-21.089777)" />
  <g
     id="line"
     transform="translate(-5,-21.089777)">
    <path
       fill="none"
       stroke="#000000"
       stroke-linecap="round"
       stroke-linejoin="round"
       stroke-miterlimit="10"
       stroke-width="2"
       d="m 66,33.9998 -4,15 H 41 c 0,-10.49 -2.9,-12 -5,-12 -2.1,0 -5,1.51 -5,12 H 10 l -4,-15 c 0,-4.88 4.23,-6.95 9.81,-7.78 2.31,-2.16 6.51,-2.36 10.68,-2.08 2.55,-4.75 7.65,0.26 9.51,0.26 1.85,0 7.47,-4.98 10.32,-0.31 3.9,-0.19 7.71,0.11 9.87,2.13 5.58,0.8299 9.81,2.9 9.81,7.78 z"
       id="path5" />
    <line
       x1="41"
       x2="31"
       y1="48.999802"
       y2="48.999802"
       fill="none"
       stroke="#000000"
       stroke-linecap="round"
       stroke-linejoin="round"
       stroke-miterlimit="10"
       stroke-width="2"
       id="line5" />
    <path
       fill="none"
       stroke="#000000"
       stroke-linecap="round"
       stroke-linejoin="round"
       stroke-miterlimit="10"
       stroke-width="2"
       d="m 58,30.9998 c 0,-2.18 -0.68,-3.71 -1.81,-4.78"
       id="path6" />
    <path
       fill="none"
       stroke="#000000"
       stroke-linecap="round"
       stroke-linejoin="round"
       stroke-miterlimit="10"
       stroke-width="2"
       d="m 15.81,26.2198 c -1.13,1.07 -1.81,2.6 -1.81,4.78"
       id="path7" />
    <path
       fill="none"
       stroke="#000000"
       stroke-linecap="round"
       stroke-linejoin="round"
       stroke-miterlimit="10"
       stroke-width="2"
       d="m 48,33.5698 c 0,-3.54 -0.35,-6.06 -0.94,-7.82 l -0.74,-1.66"
       id="path8" />
    <path
       fill="none"
       stroke="#000000"
       stroke-linecap="round"
       stroke-linejoin="round"
       stroke-miterlimit="10"
       stroke-width="2"
       d="m 26.49,24.1398 -0.64,1.61 c -0.53,1.76 -0.85,4.28 -0.85,7.82"
       id="path9" />
    <path
       fill="none"
       stroke="#000000"
       stroke-linecap="round"
       stroke-linejoin="round"
       stroke-miterlimit="10"
       stroke-width="2"
       d="m 13,48.9998 v -6 c 0,-0.55 0.45,-1 1,-1"
       id="path10" />
    <path
       fill="none"
       stroke="#000000"
       stroke-linecap="round"
       stroke-linejoin="round"
       stroke-miterlimit="10"
       stroke-width="2"
       d="m 19,48.9998 v -6 c 0,-0.55 0.45,-1 1,-1"
       id="path11" />
    <path
       fill="none"
       stroke="#000000"
       stroke-linecap="round"
       stroke-linejoin="round"
       stroke-miterlimit="10"
       stroke-width="2"
       d="m 25,48.9998 v -6 c 0,-0.55 0.45,-1 1,-1"
       id="path12" />
    <path
       fill="none"
       stroke="#000000"
       stroke-linecap="round"
       stroke-linejoin="round"
       stroke-miterlimit="10"
       stroke-width="2"
       d="m 57,48.9998 v -6 c 0,-0.55 0.45,-1 1,-1"
       id="path13" />
    <path
       fill="none"
       stroke="#000000"
       stroke-linecap="round"
       stroke-linejoin="round"
       stroke-miterlimit="10"
       stroke-width="2"
       d="m 51,48.9998 v -6 c 0,-0.55 0.45,-1 1,-1"
       id="path14" />
    <path
       fill="none"
       stroke="#000000"
       stroke-linecap="round"
       stroke-linejoin="round"
       stroke-miterlimit="10"
       stroke-width="2"
       d="m 45,48.9998 v -6 c 0,-0.55 0.45,-1 1,-1"
       id="path15" />
    <path
       fill="none"
       stroke="#000000"
       stroke-linecap="round"
       stroke-linejoin="round"
       stroke-miterlimit="10"
       stroke-width="2"
       d="M 41,48.9998 H 31 c 0,-10.49 2.9,-12 5,-12 2.1,0 5,1.51 5,12 z"
       id="path16" />
  </g>
</svg>
