<svg xmlns="http://www.w3.org/2000/svg" xmlns:svg="http://www.w3.org/2000/svg" id="emoji" width="49.5" height="48" version="1.1" viewBox="0 0 49.5 48"><g id="color" transform="translate(-11,-12)"><polygon id="polygon1" fill="#fcea2b" points="12 20 58 21.167 58 25.833 12 27"/><polygon id="polygon2" fill="#fcea2b" points="20 13 26 13 28 59 18 59"/><rect id="rect2" width="19" height="4" x="40.5" y="37" fill="#d0cfce"/></g><g id="line" transform="translate(-11,-12)"><polygon id="polygon3" fill="none" stroke="#000" stroke-linecap="round" stroke-linejoin="round" stroke-miterlimit="10" stroke-width="2" points="12 20 58 21.167 58 25.833 12 27"/><polygon id="polygon4" fill="none" stroke="#000" stroke-linecap="round" stroke-linejoin="round" stroke-miterlimit="10" stroke-width="2" points="20 13 26 13 28 59 18 59"/><line id="line4" x1="19" x2="27" y1="50" y2="50" fill="none" stroke="#000" stroke-linecap="round" stroke-linejoin="round" stroke-miterlimit="10" stroke-width="2"/><line id="line5" x1="19" x2="27" y1="41" y2="41" fill="none" stroke="#000" stroke-linecap="round" stroke-linejoin="round" stroke-miterlimit="10" stroke-width="2"/><line id="line6" x1="19.5" x2="26.5" y1="34" y2="34" fill="none" stroke="#000" stroke-linecap="round" stroke-linejoin="round" stroke-miterlimit="10" stroke-width="2"/><line id="line7" x1="34" x2="34" y1="26" y2="21" fill="none" stroke="#000" stroke-linecap="round" stroke-linejoin="round" stroke-miterlimit="10" stroke-width="2"/><line id="line8" x1="42" x2="42" y1="26" y2="21" fill="none" stroke="#000" stroke-linecap="round" stroke-linejoin="round" stroke-miterlimit="10" stroke-width="2"/><line id="line9" x1="50" x2="50" y1="37" y2="21" fill="none" stroke="#000" stroke-linecap="round" stroke-linejoin="round" stroke-miterlimit="10" stroke-width="2"/><rect id="rect9" width="19" height="4" x="40.5" y="37" fill="none" stroke="#000" stroke-linecap="round" stroke-linejoin="round" stroke-miterlimit="10" stroke-width="2"/><polygon id="polygon9" fill="none" stroke="#000" stroke-linecap="round" stroke-linejoin="round" stroke-miterlimit="10" stroke-width="2" points="12 20 58 21.167 58 25.833 12 27"/></g></svg>