<svg xmlns="http://www.w3.org/2000/svg" xmlns:svg="http://www.w3.org/2000/svg" id="emoji" width="47" height="50" version="1.1" viewBox="0 0 47 50"><g id="color" transform="translate(-12.5,-11)"><rect id="rect1" width="27" height="48" x="22.5" y="12" fill="#fff" stroke="none" stroke-linecap="round" stroke-linejoin="round" stroke-miterlimit="10" stroke-width="2"/><rect id="rect2" width="9" height="35" x="13.5" y="25" fill="#fff" stroke="none" stroke-linecap="round" stroke-linejoin="round" stroke-miterlimit="10" stroke-width="2"/><rect id="rect3" width="9" height="35" x="49.5" y="25" fill="#fff" stroke="none" stroke-linecap="round" stroke-linejoin="round" stroke-miterlimit="10" stroke-width="2"/><rect id="rect4" width="13" height="16" x="29.5" y="44" fill="#92d3f5" stroke="none" stroke-linecap="round" stroke-linejoin="round" stroke-miterlimit="10" stroke-width="2"/><polygon id="polygon4" fill="#ea5a47" stroke="none" stroke-linecap="round" stroke-linejoin="round" stroke-miterlimit="10" stroke-width="2" points="38.5 18 33.5 18 33.5 23 28.5 23 28.5 28 33.5 28 33.5 33 38.5 33 38.5 28 43.5 28 43.5 23 38.5 23"/><rect id="rect5" width="2" height="5" x="17" y="30" fill="none" stroke="#92d3f5" stroke-linecap="round" stroke-linejoin="round" stroke-miterlimit="10" stroke-width="2"/><rect id="rect6" width="2" height="5" x="17" y="40" fill="none" stroke="#92d3f5" stroke-linecap="round" stroke-linejoin="round" stroke-miterlimit="10" stroke-width="2"/><rect id="rect7" width="2" height="5" x="17" y="50" fill="none" stroke="#92d3f5" stroke-linecap="round" stroke-linejoin="round" stroke-miterlimit="10" stroke-width="2"/><rect id="rect8" width="2" height="5" x="53" y="30" fill="none" stroke="#92d3f5" stroke-linecap="round" stroke-linejoin="round" stroke-miterlimit="10" stroke-width="2"/><rect id="rect9" width="2" height="5" x="53" y="40" fill="none" stroke="#92d3f5" stroke-linecap="round" stroke-linejoin="round" stroke-miterlimit="10" stroke-width="2"/><rect id="rect10" width="2" height="5" x="53" y="50" fill="none" stroke="#92d3f5" stroke-linecap="round" stroke-linejoin="round" stroke-miterlimit="10" stroke-width="2"/></g><g id="line" transform="translate(-12.5,-11)"><rect id="rect11" width="27" height="48" x="22.5" y="12" fill="none" stroke="#000" stroke-linecap="round" stroke-linejoin="round" stroke-miterlimit="10" stroke-width="2"/><rect id="rect12" width="9" height="35" x="13.5" y="25" fill="none" stroke="#000" stroke-linecap="round" stroke-linejoin="round" stroke-miterlimit="10" stroke-width="2"/><rect id="rect13" width="9" height="35" x="49.5" y="25" fill="none" stroke="#000" stroke-linecap="round" stroke-linejoin="round" stroke-miterlimit="10" stroke-width="2"/><rect id="rect14" width="13" height="16" x="29.5" y="44" fill="none" stroke="#000" stroke-linecap="round" stroke-linejoin="round" stroke-miterlimit="10" stroke-width="2"/><line id="line14" x1="36" x2="36" y1="60" y2="44" fill="none" stroke="#000" stroke-linecap="round" stroke-linejoin="round" stroke-miterlimit="10" stroke-width="2"/><polygon id="polygon14" fill="none" stroke="#000" stroke-linecap="round" stroke-linejoin="round" stroke-miterlimit="10" stroke-width="2" points="38.5 18 33.5 18 33.5 23 28.5 23 28.5 28 33.5 28 33.5 33 38.5 33 38.5 28 43.5 28 43.5 23 38.5 23"/><polyline id="polyline14" fill="none" stroke="#000" stroke-linecap="round" stroke-linejoin="round" stroke-miterlimit="10" stroke-width="2" points="19 35 17 35 17 30"/><polyline id="polyline15" fill="none" stroke="#000" stroke-linecap="round" stroke-linejoin="round" stroke-miterlimit="10" stroke-width="2" points="19 45 17 45 17 40"/><polyline id="polyline16" fill="none" stroke="#000" stroke-linecap="round" stroke-linejoin="round" stroke-miterlimit="10" stroke-width="2" points="19 55 17 55 17 50"/><polyline id="polyline17" fill="none" stroke="#000" stroke-linecap="round" stroke-linejoin="round" stroke-miterlimit="10" stroke-width="2" points="55 35 53 35 53 30"/><polyline id="polyline18" fill="none" stroke="#000" stroke-linecap="round" stroke-linejoin="round" stroke-miterlimit="10" stroke-width="2" points="55 45 53 45 53 40"/><polyline id="polyline19" fill="none" stroke="#000" stroke-linecap="round" stroke-linejoin="round" stroke-miterlimit="10" stroke-width="2" points="55 55 53 55 53 50"/></g></svg>