<svg xmlns="http://www.w3.org/2000/svg" xmlns:svg="http://www.w3.org/2000/svg" id="emoji" width="36" height="43" version="1.1" viewBox="0 0 36 43"><g id="color" transform="translate(-18,-14.000037)"><rect id="rect1" width="34" height="24" x="19" y="32" fill="#fff" stroke="none"/><rect id="rect2" width="9" height="16" x="25" y="40" fill="#a57939" stroke="none" stroke-linecap="round" stroke-linejoin="round" stroke-miterlimit="10" stroke-width="2"/><rect id="rect3" width="8" height="7" x="40" y="40" fill="#92d3f5" stroke="none" stroke-linecap="round" stroke-linejoin="round" stroke-miterlimit="10" stroke-width="2"/><polygon id="polygon3" fill="#ea5a47" stroke="none" stroke-linecap="round" stroke-linejoin="round" stroke-miterlimit="10" stroke-width="2" points="19 31 35 15 53 31 53 32 19 32"/><polygon id="polygon4" fill="#ea5a47" stroke="none" stroke-linecap="round" stroke-linejoin="round" stroke-miterlimit="10" stroke-width="2" points="24 17 29 17 29 21 24 26"/></g><g id="line" transform="translate(-18,-14.000037)"><rect id="rect4" width="9" height="16" x="25" y="40" fill="none" stroke="#000" stroke-linecap="round" stroke-linejoin="round" stroke-miterlimit="10" stroke-width="2"/><rect id="rect5" width="8" height="7" x="40" y="40" fill="none" stroke="#000" stroke-linecap="round" stroke-linejoin="round" stroke-miterlimit="10" stroke-width="2"/><polygon id="polygon5" fill="none" stroke="#000" stroke-linecap="round" stroke-linejoin="round" stroke-miterlimit="10" stroke-width="2" points="19 31 35 15 53 31 53 32 19 32"/><rect id="rect6" width="34" height="24" x="19" y="32" fill="none" stroke="#000" stroke-linecap="round" stroke-linejoin="round" stroke-miterlimit="10" stroke-width="2"/><polygon id="polygon6" fill="none" stroke="#000" stroke-linecap="round" stroke-linejoin="round" stroke-miterlimit="10" stroke-width="2" points="24 17 29 17 29 21 24 26"/></g></svg>