<svg xmlns="http://www.w3.org/2000/svg" xmlns:svg="http://www.w3.org/2000/svg" id="emoji" width="48" height="48" version="1.1" viewBox="0 0 48 48"><g id="color" transform="translate(-12,-13)"><rect id="rect1" width="46" height="46" x="13" y="14" fill="#d0cfce"/><circle id="circle1" cx="37" cy="37" r="6" fill="#fcea2b"/><rect id="rect2" width="13" height="10" x="29.5" y="50" fill="#92d3f5"/><rect id="rect3" width="2" height="5" x="51" y="30" fill="none" stroke="#92d3f5" stroke-linecap="round" stroke-linejoin="round" stroke-width="2"/><rect id="rect4" width="2" height="5" x="51" y="20" fill="none" stroke="#92d3f5" stroke-linecap="round" stroke-linejoin="round" stroke-width="2"/><rect id="rect5" width="2" height="5" x="35" y="20" fill="none" stroke="#92d3f5" stroke-linecap="round" stroke-linejoin="round" stroke-width="2"/><rect id="rect6" width="2" height="5" x="43" y="20" fill="none" stroke="#92d3f5" stroke-linecap="round" stroke-linejoin="round" stroke-width="2"/><rect id="rect7" width="2" height="5" x="27" y="20" fill="none" stroke="#92d3f5" stroke-linecap="round" stroke-linejoin="round" stroke-width="2"/><rect id="rect8" width="2" height="5" x="51" y="40" fill="none" stroke="#92d3f5" stroke-linecap="round" stroke-linejoin="round" stroke-width="2"/><rect id="rect9" width="2" height="5" x="51" y="50" fill="none" stroke="#92d3f5" stroke-linecap="round" stroke-linejoin="round" stroke-width="2"/><rect id="rect10" width="2" height="5" x="19" y="30" fill="none" stroke="#92d3f5" stroke-linecap="round" stroke-linejoin="round" stroke-width="2"/><rect id="rect11" width="2" height="5" x="19" y="20" fill="none" stroke="#92d3f5" stroke-linecap="round" stroke-linejoin="round" stroke-width="2"/><rect id="rect12" width="2" height="5" x="19" y="40" fill="none" stroke="#92d3f5" stroke-linecap="round" stroke-linejoin="round" stroke-width="2"/><rect id="rect13" width="2" height="5" x="19" y="50" fill="none" stroke="#92d3f5" stroke-linecap="round" stroke-linejoin="round" stroke-width="2"/><circle id="circle13" cx="37" cy="37" r="3" fill="#d0cfce"/><polygon id="polygon13" fill="#fcea2b" points="32 41 33 40 31 34.5 26.7 38.8"/><polygon id="polygon14" fill="#fcea2b" points="41 39 44.9 35 47 37 43 41"/><path id="path14" fill="#fcea2b" d="m 43,41 a 8.89,8.89 0 0 1 -6,2 8.89,8.89 0 0 1 -6,-2 l 2,-2 a 10.7183,10.7183 0 0 0 4,1 10.7183,10.7183 0 0 0 4,-1 z"/></g><g id="line" transform="translate(-12,-13)"><rect id="rect14" width="46" height="46" x="13" y="14" fill="none" stroke="#000" stroke-linecap="round" stroke-linejoin="round" stroke-width="2"/><path id="path15" fill="none" stroke="#000" stroke-linecap="round" stroke-linejoin="round" stroke-width="2" d="M 43,36.9 41,39 a 11.1844,11.1844 0 0 1 -3.8,1 3,3 0 1 0 -0.4,0 9.2887,9.2887 0 0 1 -3.8,-1 l -0.3,0.3 -1.5,-4 A 6.027,6.027 0 0 1 43,36.9 Z"/><rect id="rect15" width="13" height="10" x="29.5" y="50" fill="none" stroke="#000" stroke-linecap="round" stroke-linejoin="round" stroke-width="2"/><line id="line15" x1="36" x2="36" y1="60" y2="50" fill="none" stroke="#000" stroke-linecap="round" stroke-linejoin="round" stroke-width="2"/><polygon id="polygon15" fill="none" stroke="#000" stroke-linecap="round" stroke-linejoin="round" stroke-width="2" points="26.7 38.8 31 34.5 31.2 35.3 32.7 39.3 31.3 40.7"/><polygon id="polygon16" fill="none" stroke="#000" stroke-linecap="round" stroke-linejoin="round" stroke-width="2" points="41 39 43 36.9 44.9 35 47 37 43 41"/><path id="path16" fill="none" stroke="#000" stroke-linecap="round" stroke-linejoin="round" stroke-width="2" d="m 43,41 a 8.8127,8.8127 0 0 1 -5.5,2 H 36.6 A 8.8792,8.8792 0 0 1 31,41 l 2,-2 a 11.1844,11.1844 0 0 0 3.8,1 h 0.4 A 9.2887,9.2887 0 0 0 41,39 Z"/><polyline id="polyline16" fill="none" stroke="#000" stroke-linecap="round" stroke-linejoin="round" stroke-width="2" points="21 25 19 25 19 20"/><polyline id="polyline17" fill="none" stroke="#000" stroke-linecap="round" stroke-linejoin="round" stroke-width="2" points="53 35 51 35 51 30"/><polyline id="polyline18" fill="none" stroke="#000" stroke-linecap="round" stroke-linejoin="round" stroke-width="2" points="45 25 43 25 43 20"/><polyline id="polyline19" fill="none" stroke="#000" stroke-linecap="round" stroke-linejoin="round" stroke-width="2" points="53 25 51 25 51 20"/><polyline id="polyline20" fill="none" stroke="#000" stroke-linecap="round" stroke-linejoin="round" stroke-width="2" points="37 25 35 25 35 20"/><polyline id="polyline21" fill="none" stroke="#000" stroke-linecap="round" stroke-linejoin="round" stroke-width="2" points="29 25 27 25 27 20"/><polyline id="polyline22" fill="none" stroke="#000" stroke-linecap="round" stroke-linejoin="round" stroke-width="2" points="21 35 19 35 19 30"/><polyline id="polyline23" fill="none" stroke="#000" stroke-linecap="round" stroke-linejoin="round" stroke-width="2" points="21 45 19 45 19 40"/><polyline id="polyline24" fill="none" stroke="#000" stroke-linecap="round" stroke-linejoin="round" stroke-width="2" points="53 45 51 45 51 40"/><polyline id="polyline25" fill="none" stroke="#000" stroke-linecap="round" stroke-linejoin="round" stroke-width="2" points="53 55 51 55 51 50"/><polyline id="polyline26" fill="none" stroke="#000" stroke-linecap="round" stroke-linejoin="round" stroke-width="2" points="21 55 19 55 19 50"/></g></svg>