<svg xmlns="http://www.w3.org/2000/svg" xmlns:svg="http://www.w3.org/2000/svg" id="emoji" width="59.5" height="39.452" version="1.1" viewBox="0 0 59.5 39.452"><g id="color" transform="translate(-5,-15.5476)"><rect id="rect1" width="26.884" height="18.114" x="37.075" y="36.053" fill="#fff"/><polygon id="polygon1" fill="#ea5a47" stroke="#ea5a47" stroke-linecap="round" stroke-linejoin="round" stroke-width="2" points="62.75 36 49.735 23.2 37.35 36"/><path id="path1" fill="#ea5a47" d="M 46.3648,26.1096 40.4,32.0595 V 24.4862 C 40.4,23.5549 41.1665,23 42.0978,23 h 3.2923 c 0.9313,0 1.0829,1.1231 1.0829,2.0544 0,0 -0.1081,1.0552 -0.1081,1.0552 z"/><rect id="rect2" width="6" height="12" x="43" y="42" fill="#a57939"/><rect id="rect3" width="6" height="5" x="54" y="42" fill="#92d3f5"/><path id="path3" fill="#b1cc33" d="m 41.0059,28.3393 c 0,-3.3123 -3.4447,-6.0025 -7.6937,-6.0025 -0.3549,0.0029 -0.7095,0.025 -1.0622,0.0662 -1.7995,-3.4553 -5.7065,-5.8554 -10.2499,-5.8554 -6.2478,0 -11.3122,4.5286 -11.3122,10.1144 0.0012,0.3692 0.0247,0.738 0.0704,1.1043 C 7.9656,28.6665 6,30.8102 6,33.3136 c 0,3.3123 3.4446,6.0025 7.6936,6.0025 1.6151,0.0139 3.2056,-0.4022 4.6137,-1.207 1.8177,1.4766 4.7264,2.4385 8.0154,2.4385 5.5105,0 9.9776,-2.6875 9.9776,-6.0025 -9e-4,-0.2191 -0.0214,-0.4377 -0.0612,-0.6531 2.7966,-0.9016 4.7668,-3.0467 4.7668,-5.5527 z"/></g><g id="line" transform="translate(-5,-15.5476)"><polyline id="polyline3" fill="none" stroke="#000" stroke-linecap="round" stroke-linejoin="round" stroke-width="2" points="46 27 49.735 23 63.5 35.098 63.5 54 36.75 54 36.75 41.548"/><rect id="rect4" width="6" height="12" x="43" y="42" fill="none" stroke="#000" stroke-linecap="round" stroke-linejoin="round" stroke-width="2"/><rect id="rect5" width="6" height="5" x="54" y="42" fill="none" stroke="#000" stroke-linecap="round" stroke-linejoin="round" stroke-width="2"/><polyline id="polyline5" fill="none" stroke="#000" stroke-linecap="round" stroke-linejoin="round" stroke-width="2" points="43 24 45.5 24 45.5 27"/><polyline id="polyline6" fill="none" stroke="#000" stroke-linecap="round" stroke-linejoin="round" stroke-width="2" points="22.5 54 22.5 46.827 17.5 42"/><line id="line6" x1="23.041" x2="25.885" y1="46.727" y2="43.766" fill="none" stroke="#000" stroke-linecap="round" stroke-linejoin="round" stroke-width="2"/><path id="path6" fill="none" stroke="#000" stroke-linecap="round" stroke-miterlimit="10" stroke-width="2" d="m 41.0059,28.3393 c 0,-3.3123 -3.4447,-6.0025 -7.6937,-6.0025 -0.3549,0.0029 -0.7095,0.025 -1.0622,0.0662 -1.7995,-3.4553 -5.7065,-5.8554 -10.2499,-5.8554 -6.2478,0 -11.3122,4.5286 -11.3122,10.1144 0.0012,0.3692 0.0247,0.738 0.0704,1.1043 C 7.9656,28.6665 6,30.8102 6,33.3136 c 0,3.3123 3.4446,6.0025 7.6936,6.0025 1.6151,0.0139 3.2056,-0.4022 4.6137,-1.207 1.8177,1.4766 4.7264,2.4385 8.0154,2.4385 5.5105,0 9.9776,-2.6875 9.9776,-6.0025 -9e-4,-0.2191 -0.0214,-0.4377 -0.0612,-0.6531 2.7966,-0.9016 4.7668,-3.0467 4.7668,-5.5527 z"/><line id="line7" x1="63.5" x2="42.5" y1="36" y2="36" fill="none" stroke="#000" stroke-linecap="round" stroke-linejoin="round" stroke-width="2"/></g></svg>