<svg xmlns="http://www.w3.org/2000/svg" xmlns:svg="http://www.w3.org/2000/svg" id="emoji" width="34.737" height="64.078" version="1.1" viewBox="0 0 34.737 64.078"><g id="color" transform="translate(-18.125,-3.972)"><rect id="rect1" width="32.737" height="52.264" x="19.125" y="9.871" fill="#ea5a47" rx="11"/><g id="g2"><path id="path1" fill="#d22f27" d="M 46.4141,10.7429 40.2278,9.871 c 7.6518,1.92 6.6782,13.5373 6.7861,15.7853 1.7573,36.6011 -12.681,36.6353 -13.409,36.6779 L 43.0106,62 h 0.0607 A 9.1128,9.1128 0 0 0 52,52.9873 V 19.4727 c 0,0 -0.6148,-5.8198 -5.5859,-8.7298 z"/><path id="path2" fill="#d22f27" d="m 33.6038,62.41 -0.05,0.0013 c 0,0 0.018,6e-4 0.05,-0.0013 z"/></g><rect id="rect2" width="12.286" height="35.618" x="29.35" y="18.332" fill="#fff" rx="2"/><polyline id="polyline2" fill="#3f3f3f" points="26.84 8.018 26.84 4.972 44.146 4.972 44.146 8.018"/><polyline id="polyline3" fill="#3f3f3f" points="44.146 64.184 44.146 67.05 26.84 67.05 26.84 64.184"/></g><g id="line" transform="translate(-18.125,-3.972)"><polyline id="polyline4" fill="none" stroke="#000" stroke-linecap="round" stroke-linejoin="round" stroke-width="2" points="26.84 7.481 26.84 4.972 44.146 4.972 44.146 7.481"/><polyline id="polyline5" fill="none" stroke="#000" stroke-linecap="round" stroke-linejoin="round" stroke-width="2" points="44.146 64.657 44.146 67.05 26.84 67.05 26.84 64.657"/><rect id="rect5" width="32.737" height="52.264" x="19.125" y="9.871" fill="none" stroke="#000" stroke-linecap="round" stroke-linejoin="round" stroke-width="2" rx="11"/><g id="g8"><rect id="rect6" width="8.307" height="8.934" x="31.34" y="31.689" fill="none" stroke="#000" stroke-linecap="round" stroke-linejoin="round" stroke-width="1.5"/><rect id="rect7" width="8.307" height="8.934" x="31.34" y="42.539" fill="none" stroke="#000" stroke-linecap="round" stroke-linejoin="round" stroke-width="1.5"/><rect id="rect8" width="8.307" height="8.934" x="31.34" y="20.84" fill="none" stroke="#000" stroke-linecap="round" stroke-linejoin="round" stroke-width="1.5"/></g></g></svg>