<svg xmlns="http://www.w3.org/2000/svg" xmlns:svg="http://www.w3.org/2000/svg" id="emoji" width="59.608" height="47.55" version="1.1" viewBox="0 0 59.608 47.55"><g id="color" transform="translate(-6.196,-9.9600313)"><polygon id="polygon1" fill="#d0cfce" points="62.644 23.564 45.282 23.564 45.282 20.658 26.718 20.658 26.718 23.564 9.356 23.564 9.356 56.506 62.644 56.506"/><rect id="rect1" width="10.751" height="12.746" x="30.625" y="39.995" fill="#a57939"/><circle id="circle1" cx="36" cy="30.242" r="6.298" fill="#fff"/><rect id="rect2" width="1.938" height="4.035" x="20.498" y="46.817" fill="none" stroke="#92d3f5" stroke-linecap="round" stroke-linejoin="round" stroke-width="2"/><rect id="rect3" width="1.938" height="4.035" x="13.716" y="46.817" fill="none" stroke="#92d3f5" stroke-linecap="round" stroke-linejoin="round" stroke-width="2"/><rect id="rect4" width="1.938" height="4.844" x="20.498" y="37.128" fill="none" stroke="#92d3f5" stroke-linecap="round" stroke-linejoin="round" stroke-width="2"/><rect id="rect5" width="1.938" height="4.844" x="13.716" y="37.128" fill="none" stroke="#92d3f5" stroke-linecap="round" stroke-linejoin="round" stroke-width="2"/><rect id="rect6" width="1.938" height="4.844" x="20.498" y="27.44" fill="none" stroke="#92d3f5" stroke-linecap="round" stroke-linejoin="round" stroke-width="2"/><rect id="rect7" width="1.938" height="4.844" x="13.716" y="27.44" fill="none" stroke="#92d3f5" stroke-linecap="round" stroke-linejoin="round" stroke-width="2"/><rect id="rect8" width="1.938" height="4.035" x="56.346" y="46.817" fill="none" stroke="#92d3f5" stroke-linecap="round" stroke-linejoin="round" stroke-width="2"/><rect id="rect9" width="1.938" height="4.035" x="49.564" y="46.817" fill="none" stroke="#92d3f5" stroke-linecap="round" stroke-linejoin="round" stroke-width="2"/><rect id="rect10" width="1.938" height="4.844" x="56.346" y="37.128" fill="none" stroke="#92d3f5" stroke-linecap="round" stroke-linejoin="round" stroke-width="2"/><rect id="rect11" width="1.938" height="4.844" x="49.564" y="37.128" fill="none" stroke="#92d3f5" stroke-linecap="round" stroke-linejoin="round" stroke-width="2"/><rect id="rect12" width="1.938" height="4.844" x="56.346" y="27.44" fill="none" stroke="#92d3f5" stroke-linecap="round" stroke-linejoin="round" stroke-width="2"/><rect id="rect13" width="1.938" height="4.844" x="49.564" y="27.44" fill="none" stroke="#92d3f5" stroke-linecap="round" stroke-linejoin="round" stroke-width="2"/><polygon id="polygon13" fill="#d22f27" points="26.72 23.56 9.36 23.56 13.21 17.42 28.411 17.42 24.8 20.49 26.72 20.49"/><polygon id="polygon14" fill="#d22f27" points="45.284 23.56 62.644 23.56 58.794 17.42 43.592 17.42 47.2 20.49 45.284 20.49"/><polygon id="polygon15" fill="#ea5a47" points="26.72 18.859 36 10.96 47.2 20.49 24.8 20.49"/><rect id="rect15" width="19.522" height="5.653" x="7.196" y="50.853" fill="#b1cc33"/><rect id="rect16" width="19.522" height="5.653" x="45.282" y="50.853" fill="#b1cc33"/></g><g id="line" transform="translate(-6.196,-9.9600313)"><rect id="rect17" width="18.56" height="36.02" x="26.72" y="20.49" fill="none" stroke="#000" stroke-linecap="round" stroke-linejoin="round" stroke-width="2"/><polygon id="polygon17" fill="none" stroke="#000" stroke-linecap="round" stroke-linejoin="round" stroke-width="2" points="26.72 23.56 9.36 23.56 13.21 17.42 28.411 17.42 24.8 20.49 26.72 20.49"/><polygon id="polygon18" fill="none" stroke="#000" stroke-linecap="round" stroke-linejoin="round" stroke-width="2" points="45.284 23.56 62.644 23.56 58.794 17.42 43.592 17.42 47.2 20.49 45.284 20.49"/><polygon id="polygon19" fill="none" stroke="#000" stroke-linecap="round" stroke-linejoin="round" stroke-width="2" points="26.72 18.859 36 10.96 47.2 20.49 24.8 20.49"/><path id="path19" fill="none" stroke="#000" stroke-linecap="round" stroke-linejoin="round" stroke-width="2" d="m 9.7104,50.8525 h 14.493 c 1.3887,0 2.5144,1.1257 2.5144,2.5144 v 3.1387 H 7.196 v -3.1387 c 0,-1.3887 1.1257,-2.5144 2.5144,-2.5144 z"/><path id="path20" fill="none" stroke="#000" stroke-linecap="round" stroke-linejoin="round" stroke-width="2" d="m 47.7967,50.8525 h 14.493 c 1.3887,0 2.5144,1.1257 2.5144,2.5144 v 3.1387 H 45.2823 v -3.1387 c 0,-1.3887 1.1257,-2.5144 2.5144,-2.5144 z"/><line id="line20" x1="26.718" x2="45.282" y1="52.741" y2="52.741" fill="none" stroke="#000" stroke-linecap="round" stroke-linejoin="round" stroke-width="2"/><polyline id="polyline20" fill="none" stroke="#000" stroke-linecap="round" stroke-linejoin="round" stroke-width="2" points="9.356 50.852 9.356 23.564 26.718 23.564"/><line id="line21" x1="62.644" x2="9.356" y1="56.506" y2="56.506" fill="none" stroke="#000" stroke-linecap="round" stroke-linejoin="round" stroke-width="2"/><polyline id="polyline21" fill="none" stroke="#000" stroke-linecap="round" stroke-linejoin="round" stroke-width="2" points="45.282 23.564 62.644 23.564 62.644 50.852"/><rect id="rect21" width="10.751" height="12.746" x="30.625" y="39.995" fill="none" stroke="#000" stroke-linecap="round" stroke-linejoin="round" stroke-width="2"/><line id="line22" x1="36" x2="36" y1="52.741" y2="39.995" fill="none" stroke="#000" stroke-linecap="round" stroke-linejoin="round" stroke-width="2"/><circle id="circle22" cx="36" cy="30.242" r="6.298" fill="none" stroke="#000" stroke-linecap="round" stroke-linejoin="round" stroke-width="2"/><line id="line23" x1="36" x2="36" y1="30.727" y2="26.55" fill="none" stroke="#000" stroke-linecap="round" stroke-linejoin="round" stroke-width="2"/><line id="line24" x1="36" x2="38.089" y1="30.727" y2="29.683" fill="none" stroke="#000" stroke-linecap="round" stroke-linejoin="round" stroke-width="2"/><line id="line25" x1="20.498" x2="20.498" y1="50.853" y2="46.817" fill="none" stroke="#000" stroke-linecap="round" stroke-linejoin="round" stroke-width="2"/><line id="line26" x1="13.716" x2="13.716" y1="50.853" y2="46.817" fill="none" stroke="#000" stroke-linecap="round" stroke-linejoin="round" stroke-width="2"/><polyline id="polyline26" fill="none" stroke="#000" stroke-linecap="round" stroke-linejoin="round" stroke-width="2" points="22.436 41.973 20.498 41.973 20.498 37.128"/><polyline id="polyline27" fill="none" stroke="#000" stroke-linecap="round" stroke-linejoin="round" stroke-width="2" points="15.654 41.973 13.716 41.973 13.716 37.128"/><polyline id="polyline28" fill="none" stroke="#000" stroke-linecap="round" stroke-linejoin="round" stroke-width="2" points="22.436 32.284 20.498 32.284 20.498 27.44"/><polyline id="polyline29" fill="none" stroke="#000" stroke-linecap="round" stroke-linejoin="round" stroke-width="2" points="15.654 32.284 13.716 32.284 13.716 27.44"/><line id="line29" x1="56.346" x2="56.346" y1="50.853" y2="46.817" fill="none" stroke="#000" stroke-linecap="round" stroke-linejoin="round" stroke-width="2"/><line id="line30" x1="49.564" x2="49.564" y1="50.853" y2="46.817" fill="none" stroke="#000" stroke-linecap="round" stroke-linejoin="round" stroke-width="2"/><polyline id="polyline30" fill="none" stroke="#000" stroke-linecap="round" stroke-linejoin="round" stroke-width="2" points="58.284 41.973 56.346 41.973 56.346 37.128"/><polyline id="polyline31" fill="none" stroke="#000" stroke-linecap="round" stroke-linejoin="round" stroke-width="2" points="51.502 41.973 49.564 41.973 49.564 37.128"/><polyline id="polyline32" fill="none" stroke="#000" stroke-linecap="round" stroke-linejoin="round" stroke-width="2" points="58.284 32.284 56.346 32.284 56.346 27.44"/><polyline id="polyline33" fill="none" stroke="#000" stroke-linecap="round" stroke-linejoin="round" stroke-width="2" points="51.502 32.284 49.564 32.284 49.564 27.44"/></g></svg>