<?xml version="1.0" encoding="UTF-8" standalone="no"?>
<svg
   id="emoji"
   viewBox="0 0 59 42"
   version="1.1"
   sodipodi:docname="1f3f7.svg"
   width="59"
   height="42"
   xmlns:inkscape="http://www.inkscape.org/namespaces/inkscape"
   xmlns:sodipodi="http://sodipodi.sourceforge.net/DTD/sodipodi-0.dtd"
   xmlns="http://www.w3.org/2000/svg"
   xmlns:svg="http://www.w3.org/2000/svg">
  <defs
     id="defs2" />
  <sodipodi:namedview
     id="namedview2"
     pagecolor="#ffffff"
     bordercolor="#000000"
     borderopacity="0.25"
     inkscape:showpageshadow="2"
     inkscape:pageopacity="0.0"
     inkscape:pagecheckerboard="0"
     inkscape:deskcolor="#d1d1d1" />
  <g
     id="color"
     transform="translate(-6.7,-15.3)">
    <path
       fill="#f4aa41"
       d="m 24.7,16.4 -17,6 v 27.9 l 17,6 h 40 v -40 h -40 z m -8.5,25 c -2.8,0 -5,-2.2 -5,-5 0,-2.8 2.2,-5 5,-5 2.8,0 5,2.2 5,5 0,2.8 -2.2,5 -5,5 z"
       id="path1" />
  </g>
  <g
     id="hair"
     transform="translate(-6.7,-15.3)" />
  <g
     id="skin"
     transform="translate(-6.7,-15.3)" />
  <g
     id="skin-shadow"
     transform="translate(-6.7,-15.3)" />
  <g
     id="line"
     transform="translate(-6.7,-15.3)">
    <path
       fill="none"
       stroke="#000000"
       stroke-linecap="round"
       stroke-linejoin="round"
       stroke-miterlimit="10"
       stroke-width="2"
       d="m 24.7,16.4 -17,6 v 27.9 l 17,6 h 40 v -40 h -40 z m -8.5,25 c -2.8,0 -5,-2.2 -5,-5 0,-2.8 2.2,-5 5,-5 2.8,0 5,2.2 5,5 0,2.8 -2.2,5 -5,5 z"
       id="path2" />
  </g>
</svg>
