<?xml version="1.0" encoding="UTF-8" standalone="no"?>
<svg
   id="emoji"
   viewBox="0 0 38.997051 64.037003"
   version="1.1"
   sodipodi:docname="1f3f8.svg"
   width="38.997051"
   height="64.037003"
   xmlns:inkscape="http://www.inkscape.org/namespaces/inkscape"
   xmlns:sodipodi="http://sodipodi.sourceforge.net/DTD/sodipodi-0.dtd"
   xmlns="http://www.w3.org/2000/svg"
   xmlns:svg="http://www.w3.org/2000/svg">
  <defs
     id="defs16" />
  <sodipodi:namedview
     id="namedview16"
     pagecolor="#ffffff"
     bordercolor="#000000"
     borderopacity="0.25"
     inkscape:showpageshadow="2"
     inkscape:pageopacity="0.0"
     inkscape:pagecheckerboard="0"
     inkscape:deskcolor="#d1d1d1" />
  <g
     id="color"
     transform="translate(-15.751801,-4)">
    <g
       id="g14">
      <g
         id="g2">
        <path
           fill="#d0cfce"
           stroke="#d0cfce"
           stroke-linecap="round"
           stroke-linejoin="round"
           stroke-width="1.5"
           d="m 48.4009,52.2372 c 0.2055,-1.3254 -0.7025,-2.5665 -2.0279,-2.772 -1.3254,-0.2055 -2.5665,0.7025 -2.772,2.0279 -0.0382,0.2463 -0.0382,0.497 -10e-5,0.7432 v 3.6 l -5.6022,11.1992 3.2,5e-4 1.6,-1.6 1.6,1.6 1.6,-1.6 1.6,1.6 1.6,-1.6 1.6,1.6 3.2,5e-4 L 48.4,55.8371 v -3.1548 l 9e-4,-0.4452 z"
           id="path1" />
        <path
           fill="#d22f27"
           d="m 48.4007,53.408 v 2.4 c 0,0 -5.575,0.0175 -4.8,-0.0089 v -2.4 z"
           id="path2" />
      </g>
      <polygon
         fill="#9b9b9a"
         stroke="#9b9b9a"
         stroke-linecap="round"
         stroke-linejoin="round"
         stroke-width="2"
         points="24.495,46.505 26.517,46.505 27.37,53.202 27.37,67.036 23.641,67.036 23.641,53.202 "
         id="polygon2" />
      <rect
         x="24.751801"
         y="29.5072"
         width="1.5"
         height="16"
         fill="#3f3f3f"
         id="rect2" />
      <g
         id="g13">
        <line
           x1="25.696301"
           x2="25.696301"
           y1="5.0007"
           y2="28.5"
           fill="none"
           stroke="#d0cfce"
           stroke-miterlimit="10"
           stroke-width="1.4843"
           id="line2" />
        <line
           x1="22.696301"
           x2="22.696301"
           y1="5.7006001"
           y2="28"
           fill="none"
           stroke="#d0cfce"
           stroke-miterlimit="10"
           stroke-width="1.477"
           id="line3" />
        <line
           x1="19.696301"
           x2="19.696301"
           y1="8"
           y2="25.5"
           fill="none"
           stroke="#d0cfce"
           stroke-miterlimit="10"
           stroke-width="1.479"
           id="line4" />
        <line
           x1="28.696301"
           x2="28.696301"
           y1="5.6483998"
           y2="28"
           fill="none"
           stroke="#d0cfce"
           stroke-miterlimit="10"
           stroke-width="1.4787"
           id="line5" />
        <line
           x1="31.696301"
           x2="31.696301"
           y1="8"
           y2="25.5"
           fill="none"
           stroke="#d0cfce"
           stroke-miterlimit="10"
           stroke-width="1.479"
           id="line6" />
        <line
           x1="17.012699"
           x2="34.251801"
           y1="14"
           y2="14"
           fill="none"
           stroke="#d0cfce"
           stroke-miterlimit="10"
           stroke-width="1.468"
           id="line7" />
        <line
           x1="16.751801"
           x2="34.251801"
           y1="17"
           y2="17"
           fill="none"
           stroke="#d0cfce"
           stroke-miterlimit="10"
           stroke-width="1.479"
           id="line8" />
        <line
           x1="17.075399"
           x2="33.751801"
           y1="20"
           y2="20"
           fill="none"
           stroke="#d0cfce"
           stroke-miterlimit="10"
           stroke-width="1.4857"
           id="line9" />
        <line
           x1="17.921499"
           x2="33.251801"
           y1="11"
           y2="11"
           fill="none"
           stroke="#d0cfce"
           stroke-miterlimit="10"
           stroke-width="1.4918"
           id="line10" />
        <line
           x1="19.751801"
           x2="31.751801"
           y1="8"
           y2="8"
           fill="none"
           stroke="#d0cfce"
           stroke-miterlimit="10"
           stroke-width="1.5"
           id="line11" />
        <line
           x1="20.045799"
           x2="31.251801"
           y1="26"
           y2="26"
           fill="none"
           stroke="#d0cfce"
           stroke-miterlimit="10"
           stroke-width="1.5"
           id="line12" />
        <line
           x1="18.062901"
           x2="33.251801"
           y1="23"
           y2="23"
           fill="none"
           stroke="#d0cfce"
           stroke-miterlimit="10"
           stroke-width="1.4615"
           id="line13" />
      </g>
      <ellipse
         cx="25.751801"
         cy="16.8421"
         rx="9"
         ry="11.8421"
         fill="none"
         stroke="#3f3f3f"
         stroke-miterlimit="10"
         stroke-width="2"
         id="ellipse13" />
    </g>
  </g>
  <g
     id="line"
     transform="translate(-15.751801,-4)">
    <g
       id="g15">
      <path
         fill="none"
         stroke="#000000"
         stroke-linecap="round"
         stroke-linejoin="round"
         stroke-width="1.5"
         d="m 48.4009,52.2372 c 0.2055,-1.3254 -0.7025,-2.5665 -2.0279,-2.772 -1.3254,-0.2055 -2.5665,0.7025 -2.772,2.0279 -0.0382,0.2463 -0.0382,0.497 -10e-5,0.7432 v 3.6 l -2.05,4.0979 -0.4957,0.991 -3.0563,6.11 3.2,5e-4 1.6,-1.6 1.6,1.6 1.6,-1.6 1.6,1.6 1.6,-1.6 1.6,1.6 3.2,5e-4 L 50.9358,60.9099 50.3729,59.7836 48.4,55.8371 v -3.1548 l 9e-4,-0.4452 z"
         id="path14" />
      <path
         fill="none"
         stroke="#000000"
         stroke-miterlimit="10"
         stroke-width="1.5"
         d="m 48.4007,53.4372 v 2.4 c 0,0 -4.8,-0.0116 -4.8,-8e-4 v -2.4 z"
         id="path15" />
    </g>
    <g
       id="g16">
      <polyline
         fill="none"
         stroke="#000000"
         stroke-linecap="round"
         stroke-linejoin="round"
         stroke-width="2"
         points="24.22 48.658 23.641 53.203 23.641 67.037 27.37 67.037 27.37 53.203"
         id="polyline15" />
      <rect
         x="24.751801"
         y="29.5072"
         width="1.5"
         height="16"
         id="rect15" />
      <ellipse
         cx="25.751801"
         cy="16.8421"
         rx="9"
         ry="11.8421"
         fill="none"
         stroke="#000000"
         stroke-miterlimit="10"
         stroke-width="2"
         id="ellipse15" />
    </g>
  </g>
</svg>
