<svg xmlns="http://www.w3.org/2000/svg" xmlns:svg="http://www.w3.org/2000/svg" id="emoji" width="64" height="40" version="1.1" viewBox="0 0 64 40"><g id="color" transform="translate(-4,-16)"><rect id="rect1" width="62" height="38" x="5" y="17" fill="#f1b31c"/><rect id="rect2" width="62" height="4" x="5" y="22" fill="#d22f27"/><rect id="rect3" width="62" height="4" x="5" y="30" fill="#d22f27"/><rect id="rect4" width="62" height="4" x="5" y="38" fill="#d22f27"/><rect id="rect5" width="62" height="4" x="5" y="46" fill="#d22f27"/><rect id="rect6" width="30.39" height="18.37" x="5.612" y="17.63" fill="#1e50a0" stroke-width="2.521" rx="0" ry="0"/><g id="g27" transform="translate(-69.32,7.602)"><rect id="rect7" width="23.22" height="6.069" x="78.21" y="17.69" fill="#fff" stroke-width="2" rx="0" ry="0"/><rect id="rect8" width="1.786" height="2.939" x="80.47" y="15.46" fill="#fff" stroke-width=".386" rx="0" ry="0"/><rect id="rect9" width="1.786" height="2.939" x="84.71" y="15.46" fill="#fff" stroke-width=".386" rx="0" ry="0"/><rect id="rect10" width="2.508" height=".721" x="84.36" y="15.36" fill="#fff" stroke-width=".227" rx="0" ry="0"/><rect id="rect11" width="2.508" height=".721" x="80.12" y="15.32" fill="#fff" stroke-width=".227" rx="0" ry="0"/><rect id="rect12" width="2.508" height=".721" x="88.57" y="13.99" fill="#fff" stroke-width=".227" rx="0" ry="0"/><rect id="rect13" width="2.508" height=".721" x="92.83" y="15.23" fill="#fff" stroke-width=".227" rx="0" ry="0"/><rect id="rect14" width="2.508" height=".721" x="97.06" y="15.36" fill="#fff" stroke-width=".227" rx="0" ry="0"/><rect id="rect15" width="1.786" height="2.939" x="93.16" y="15.46" fill="#fff" stroke-width=".386" rx="0" ry="0"/><rect id="rect16" width="1.786" height="2.939" x="97.39" y="15.46" fill="#fff" stroke-width=".386" rx="0" ry="0"/><rect id="rect17" width="1.786" height="4.325" x="88.92" y="13.99" fill="#fff" stroke-width=".468" rx="0" ry="0"/><path id="path17" fill="#1e50a0" d="m 260.5,125.8 c -2.694,0.3178 -4.279,3.204 -5.05,7.931 v 11.47 h 10.1 v -11.47 c -0.771,-4.727 -2.356,-7.613 -5.05,-7.931 z" transform="matrix(0.0524,0,0,0.0524,75.68,10.1)"/><path id="path18" fill="#1e50a0" stroke-width=".052" d="m 90.33,16.69 c -0.1412,0.01665 -0.2242,0.1679 -0.2646,0.4156 v 0.601 h 0.5292 v -0.601 C 90.5542,16.8579 90.4712,16.7067 90.33,16.69 Z"/><path id="path19" fill="#1e50a0" stroke-width=".052" d="m 94.05,18.82 c -0.1412,0.01665 -0.2242,0.1679 -0.2646,0.4156 v 0.601 h 0.5292 v -0.601 C 94.2742,18.9879 94.1912,18.8367 94.05,18.82 Z"/><path id="path20" fill="#1e50a0" stroke-width=".052" d="m 98.28,18.82 c -0.1412,0.01665 -0.2242,0.1679 -0.2646,0.4156 v 0.601 h 0.5292 v -0.601 C 98.5042,18.9879 98.4212,18.8367 98.28,18.82 Z"/><path id="path21" fill="#1e50a0" stroke-width=".052" d="m 85.6,18.82 c -0.1412,0.01665 -0.2242,0.1679 -0.2646,0.4156 v 0.601 h 0.5292 v -0.601 C 85.8242,18.9879 85.7412,18.8367 85.6,18.82 Z"/><path id="path22" fill="#1e50a0" stroke-width=".079" d="m 87.7,22.38 c -0.2284,0.02327 -0.3628,0.2346 -0.4282,0.5808 v 0.84 h 0.8564 v -0.84 C 88.06282,22.6146 87.9284,22.4033 87.7,22.38 Z"/><path id="path23" fill="#1e50a0" stroke-width=".079" d="m 91.94,22.34 c -0.2284,0.02327 -0.3628,0.2346 -0.4282,0.5808 v 0.84 h 0.8564 v -0.84 C 92.30282,22.5746 92.1684,22.3633 91.94,22.34 Z"/><path id="path24" fill="#1e50a0" stroke-width=".079" d="m 96.17,22.34 c -0.2284,0.02327 -0.3628,0.2346 -0.4282,0.5808 v 0.84 h 0.8564 v -0.84 C 96.53282,22.5746 96.3984,22.3633 96.17,22.34 Z"/><path id="path25" fill="#1e50a0" stroke-width=".079" d="m 83.49,22.34 c -0.2284,0.02327 -0.3628,0.2346 -0.4282,0.5808 v 0.84 h 0.8564 v -0.84 C 83.85282,22.5746 83.7184,22.3633 83.49,22.34 Z"/><path id="path26" fill="#1e50a0" stroke-width=".116" d="m 89.85,21.07 c -0.2608,0.04406 -0.4142,0.4442 -0.4888,1.1 v 1.59 h 0.9777 v -1.59 c -0.07463,-0.6555 -0.228,-1.056 -0.4888,-1.1 z"/><path id="path27" fill="#1e50a0" stroke-width=".052" d="m 81.38,18.82 c -0.1412,0.01665 -0.2242,0.1679 -0.2646,0.4156 v 0.601 h 0.5292 v -0.601 C 81.6042,18.9879 81.5212,18.8367 81.38,18.82 Z"/></g></g><g id="line" transform="translate(-4,-16)"><rect id="rect27" width="62" height="38" x="5" y="17" fill="none" stroke="#000" stroke-linecap="round" stroke-linejoin="round" stroke-width="2"/></g></svg>