<?xml version="1.0" encoding="UTF-8" standalone="no"?>
<svg
   id="emoji"
   viewBox="0 0 64 40"
   version="1.1"
   sodipodi:docname="1f3f4-e0066-e0072-e0062-e0072-e0065-e007f.svg"
   width="64"
   height="40"
   xmlns:inkscape="http://www.inkscape.org/namespaces/inkscape"
   xmlns:sodipodi="http://sodipodi.sourceforge.net/DTD/sodipodi-0.dtd"
   xmlns="http://www.w3.org/2000/svg"
   xmlns:svg="http://www.w3.org/2000/svg">
  <defs
     id="defs12" />
  <sodipodi:namedview
     id="namedview12"
     pagecolor="#ffffff"
     bordercolor="#000000"
     borderopacity="0.25"
     inkscape:showpageshadow="2"
     inkscape:pageopacity="0.0"
     inkscape:pagecheckerboard="0"
     inkscape:deskcolor="#d1d1d1" />
  <g
     id="color"
     transform="translate(-4,-16)">
    <rect
       x="5"
       y="17"
       width="62"
       height="38"
       fill="#ffffff"
       id="rect1" />
    <rect
       x="33"
       y="22"
       width="34"
       height="4"
       fill="#000000"
       id="rect2" />
    <rect
       x="33"
       y="30"
       width="34"
       height="4"
       fill="#000000"
       id="rect3" />
    <rect
       x="5"
       y="38"
       width="62"
       height="4"
       fill="#000000"
       id="rect4" />
    <rect
       x="5"
       y="46"
       width="62"
       height="4"
       fill="#000000"
       id="rect5" />
    <g
       fill="#000000"
       stroke="#000000"
       stroke-linejoin="round"
       stroke-width="2"
       id="g12">
      <polygon
         points="10,21 9,24 11,24 "
         id="polygon5" />
      <polygon
         points="19,21 18,24 20,24 "
         id="polygon6" />
      <polygon
         points="28,21 27,24 29,24 "
         id="polygon7" />
      <polygon
         points="14.5,26 13.5,29 15.5,29 "
         id="polygon8" />
      <polygon
         points="23.5,26 22.5,29 24.5,29 "
         id="polygon9" />
      <polygon
         points="10,31 9,34 11,34 "
         id="polygon10" />
      <polygon
         points="19,31 18,34 20,34 "
         id="polygon11" />
      <polygon
         points="28,31 27,34 29,34 "
         id="polygon12" />
    </g>
  </g>
  <g
     id="line"
     transform="translate(-4,-16)">
    <rect
       x="5"
       y="17"
       width="62"
       height="38"
       fill="none"
       stroke="#000000"
       stroke-linecap="round"
       stroke-linejoin="round"
       stroke-width="2"
       id="rect12" />
  </g>
</svg>
