<?xml version="1.0" encoding="UTF-8" standalone="no"?>
<svg
   id="emoji"
   viewBox="0 0 64 40"
   version="1.1"
   sodipodi:docname="1f3f3-fe0f-200d-1f7e6-200d-1f30c.svg"
   width="64"
   height="40"
   xmlns:inkscape="http://www.inkscape.org/namespaces/inkscape"
   xmlns:sodipodi="http://sodipodi.sourceforge.net/DTD/sodipodi-0.dtd"
   xmlns="http://www.w3.org/2000/svg"
   xmlns:svg="http://www.w3.org/2000/svg">
  <defs
     id="defs38" />
  <sodipodi:namedview
     id="namedview38"
     pagecolor="#ffffff"
     bordercolor="#000000"
     borderopacity="0.25"
     inkscape:showpageshadow="2"
     inkscape:pageopacity="0.0"
     inkscape:pagecheckerboard="0"
     inkscape:deskcolor="#d1d1d1" />
  <g
     id="color"
     transform="translate(-4,-16)">
    <path
       fill="#1e50a0"
       d="M 67,17 H 5.31909 V 54.8044 H 67 Z"
       id="path1" />
    <path
       fill="#ffffff"
       fill-rule="evenodd"
       d="m 33,31 c 0,0.5523 -0.4477,1 -1,1 0.5523,0 1,0.4477 1,1 0,-0.5523 0.4477,-1 1,-1 -0.5523,0 -1,-0.4477 -1,-1 z"
       clip-rule="evenodd"
       id="path2" />
    <path
       fill="#ffffff"
       d="m 32,31.75 c -0.1381,0 -0.25,0.1119 -0.25,0.25 0,0.1381 0.1119,0.25 0.25,0.25 z M 33.25,31 c 0,-0.1381 -0.1119,-0.25 -0.25,-0.25 -0.1381,0 -0.25,0.1119 -0.25,0.25 z m -0.5,2 c 0,0.1381 0.1119,0.25 0.25,0.25 0.1381,0 0.25,-0.1119 0.25,-0.25 z M 34,32.25 c 0.1381,0 0.25,-0.1119 0.25,-0.25 0,-0.1381 -0.1119,-0.25 -0.25,-0.25 z m -2,0 c 0.6904,0 1.25,-0.5596 1.25,-1.25 h -0.5 c 0,0.4142 -0.3358,0.75 -0.75,0.75 z M 33.25,33 c 0,-0.6904 -0.5596,-1.25 -1.25,-1.25 v 0.5 c 0.4142,0 0.75,0.3358 0.75,0.75 z M 34,31.75 c -0.6904,0 -1.25,0.5596 -1.25,1.25 h 0.5 c 0,-0.4142 0.3358,-0.75 0.75,-0.75 z M 32.75,31 c 0,0.6904 0.5596,1.25 1.25,1.25 v -0.5 c -0.4142,0 -0.75,-0.3358 -0.75,-0.75 z"
       id="path3" />
    <path
       fill="#ffffff"
       fill-rule="evenodd"
       d="m 38,33 c 0,0.5523 -0.4477,1 -1,1 0.5523,0 1,0.4477 1,1 0,-0.5523 0.4477,-1 1,-1 -0.5523,0 -1,-0.4477 -1,-1 z"
       clip-rule="evenodd"
       id="path4" />
    <path
       fill="#ffffff"
       d="m 37,33.75 c -0.1381,0 -0.25,0.1119 -0.25,0.25 0,0.1381 0.1119,0.25 0.25,0.25 z M 38.25,33 c 0,-0.1381 -0.1119,-0.25 -0.25,-0.25 -0.1381,0 -0.25,0.1119 -0.25,0.25 z m -0.5,2 c 0,0.1381 0.1119,0.25 0.25,0.25 0.1381,0 0.25,-0.1119 0.25,-0.25 z M 39,34.25 c 0.1381,0 0.25,-0.1119 0.25,-0.25 0,-0.1381 -0.1119,-0.25 -0.25,-0.25 z m -2,0 c 0.6904,0 1.25,-0.5596 1.25,-1.25 h -0.5 c 0,0.4142 -0.3358,0.75 -0.75,0.75 z M 38.25,35 c 0,-0.6904 -0.5596,-1.25 -1.25,-1.25 v 0.5 c 0.4142,0 0.75,0.3358 0.75,0.75 z M 39,33.75 c -0.6904,0 -1.25,0.5596 -1.25,1.25 h 0.5 c 0,-0.4142 0.3358,-0.75 0.75,-0.75 z M 37.75,33 c 0,0.6904 0.5596,1.25 1.25,1.25 v -0.5 c -0.4142,0 -0.75,-0.3358 -0.75,-0.75 z"
       id="path5" />
    <path
       fill="#ffffff"
       fill-rule="evenodd"
       d="m 37,29 c 0,0.5523 -0.4477,1 -1,1 0.5523,0 1,0.4477 1,1 0,-0.5523 0.4477,-1 1,-1 -0.5523,0 -1,-0.4477 -1,-1 z"
       clip-rule="evenodd"
       id="path6" />
    <path
       fill="#ffffff"
       d="m 36,29.75 c -0.1381,0 -0.25,0.1119 -0.25,0.25 0,0.1381 0.1119,0.25 0.25,0.25 z M 37.25,29 c 0,-0.1381 -0.1119,-0.25 -0.25,-0.25 -0.1381,0 -0.25,0.1119 -0.25,0.25 z m -0.5,2 c 0,0.1381 0.1119,0.25 0.25,0.25 0.1381,0 0.25,-0.1119 0.25,-0.25 z M 38,30.25 c 0.1381,0 0.25,-0.1119 0.25,-0.25 0,-0.1381 -0.1119,-0.25 -0.25,-0.25 z m -2,0 c 0.6904,0 1.25,-0.5596 1.25,-1.25 h -0.5 c 0,0.4142 -0.3358,0.75 -0.75,0.75 z M 37.25,31 c 0,-0.6904 -0.5596,-1.25 -1.25,-1.25 v 0.5 c 0.4142,0 0.75,0.3358 0.75,0.75 z M 38,29.75 c -0.6904,0 -1.25,0.5596 -1.25,1.25 h 0.5 c 0,-0.4142 0.3358,-0.75 0.75,-0.75 z M 36.75,29 c 0,0.6904 0.5596,1.25 1.25,1.25 v -0.5 c -0.4142,0 -0.75,-0.3358 -0.75,-0.75 z"
       id="path7" />
    <circle
       cx="41.5"
       cy="33.5"
       r="0.5"
       fill="#ffffff"
       id="circle7" />
    <circle
       cx="43.5"
       cy="32.5"
       r="0.5"
       fill="#ffffff"
       id="circle8" />
    <circle
       cx="37.5"
       cy="38.5"
       r="0.5"
       fill="#ffffff"
       id="circle9" />
    <circle
       cx="35.5"
       cy="35.5"
       r="0.5"
       fill="#ffffff"
       id="circle10" />
    <circle
       cx="35.5"
       cy="32.5"
       r="0.5"
       fill="#ffffff"
       id="circle11" />
    <circle
       cx="33.5"
       cy="29.5"
       r="0.5"
       fill="#ffffff"
       id="circle12" />
    <circle
       cx="30.5"
       cy="35.5"
       r="0.5"
       fill="#ffffff"
       id="circle13" />
    <circle
       cx="33.5"
       cy="36.5"
       r="0.5"
       fill="#ffffff"
       id="circle14" />
    <circle
       cx="41.5"
       cy="27.5"
       r="0.5"
       fill="#ffffff"
       id="circle15" />
    <circle
       cx="33.5"
       cy="26.5"
       r="0.5"
       fill="#ffffff"
       id="circle16" />
    <circle
       cx="37.5"
       cy="25.5"
       r="0.5"
       fill="#ffffff"
       id="circle17" />
    <circle
       cx="29.5"
       cy="31.5"
       r="0.5"
       fill="#ffffff"
       id="circle18" />
    <circle
       cx="39.5"
       cy="31.5"
       r="0.5"
       fill="#ffffff"
       id="circle19" />
    <path
       fill="none"
       stroke="#ffffff"
       stroke-linecap="round"
       stroke-linejoin="round"
       d="M 27.4883,23.4277 27.0605,24.2832 28.7715,23"
       id="path19" />
    <path
       fill="none"
       stroke="#ffffff"
       stroke-linecap="round"
       stroke-linejoin="round"
       d="m 25.7774,24.711 c -0.3422,0.6844 -0.4278,1.4258 -0.4278,1.711 l 0.8555,-0.4278"
       id="path20" />
    <path
       fill="none"
       stroke="#ffffff"
       stroke-linecap="round"
       stroke-linejoin="round"
       d="m 23.2108,28.9885 c 0.2852,0.9981 1.0266,2.652 1.711,1.2832 M 24.0663,26.422 c 0,0.9981 0.2567,2.7376 1.2833,1.711"
       id="path21" />
    <path
       fill="none"
       stroke="#ffffff"
       stroke-linecap="round"
       stroke-linejoin="round"
       d="m 22.7831,31.555 c 0.2851,0.998 1.1121,2.652 2.1387,1.2832"
       id="path22" />
    <path
       fill="none"
       stroke="#ffffff"
       stroke-linecap="round"
       stroke-linejoin="round"
       d="m 22.3553,33.6937 c 0.4278,0.9981 1.5399,2.652 2.5665,1.2832"
       id="path23" />
    <path
       fill="none"
       stroke="#ffffff"
       stroke-linecap="round"
       stroke-linejoin="round"
       d="m 23.2108,36.688 c 0.8555,1.2832 2.5665,1.2832 2.9943,0"
       id="path24" />
    <path
       fill="none"
       stroke="#ffffff"
       stroke-linecap="round"
       stroke-linejoin="round"
       d="m 25.3496,39.2544 c 0.5703,0.4278 2.1388,1.1977 2.1388,-0.8555"
       id="path25" />
    <path
       fill="none"
       stroke="#ffffff"
       stroke-linecap="round"
       stroke-linejoin="round"
       d="m 27.0605,41.3932 c 0.4278,0.1426 1.3688,0.3422 1.711,0 0.3422,-0.3422 0.2852,-0.9981 0,-1.2833"
       id="path26" />
    <path
       fill="none"
       stroke="#ffffff"
       stroke-linecap="round"
       stroke-linejoin="round"
       d="m 32.6213,43.9596 c 0,0 1.0205,0.6906 2.1387,-0.4277 0.3422,-0.3422 -0.4277,-0.7129 -0.8555,-0.8555 -0.8555,0 -3.1653,-0.0855 -3.8497,-0.4277"
       id="path27" />
    <path
       fill="none"
       stroke="#ffffff"
       stroke-linecap="round"
       stroke-linejoin="round"
       d="M 45.1113,23.4277 45.5391,24.2832 43.8281,23"
       id="path28" />
    <path
       fill="none"
       stroke="#ffffff"
       stroke-linecap="round"
       stroke-linejoin="round"
       d="m 46.8223,24.711 c 0.3422,0.6844 0.4277,1.4258 0.4277,1.711 l -0.8555,-0.4278"
       id="path29" />
    <path
       fill="none"
       stroke="#ffffff"
       stroke-linecap="round"
       stroke-linejoin="round"
       d="m 49.3888,28.9885 c -0.2852,0.9981 -1.0266,2.652 -1.711,1.2832 m 0.8555,-3.8497 c 0,0.9981 -0.2567,2.7376 -1.2832,1.711"
       id="path30" />
    <path
       fill="none"
       stroke="#ffffff"
       stroke-linecap="round"
       stroke-linejoin="round"
       d="m 49.8165,31.555 c -0.2851,0.998 -1.1121,2.652 -2.1387,1.2832"
       id="path31" />
    <path
       fill="none"
       stroke="#ffffff"
       stroke-linecap="round"
       stroke-linejoin="round"
       d="m 50.2443,33.6937 c -0.4278,0.9981 -1.5399,2.652 -2.5665,1.2832"
       id="path32" />
    <path
       fill="none"
       stroke="#ffffff"
       stroke-linecap="round"
       stroke-linejoin="round"
       d="m 49.3888,36.688 c -0.8555,1.2832 -2.5665,1.2832 -2.9942,0"
       id="path33" />
    <path
       fill="none"
       stroke="#ffffff"
       stroke-linecap="round"
       stroke-linejoin="round"
       d="m 47.25,39.2544 c -0.5703,0.4278 -2.1387,1.1977 -2.1387,-0.8555"
       id="path34" />
    <path
       fill="none"
       stroke="#ffffff"
       stroke-linecap="round"
       stroke-linejoin="round"
       d="m 45.5391,41.3932 c -0.4278,0.1426 -1.3688,0.3422 -1.711,0 -0.3422,-0.3422 -0.2852,-0.9981 0,-1.2833"
       id="path35" />
    <path
       fill="none"
       stroke="#ffffff"
       stroke-linecap="round"
       stroke-linejoin="round"
       d="m 39.9783,43.9596 c 0,0 -1.0204,0.6906 -2.1387,-0.4277 -0.3422,-0.3422 0.4277,-0.7129 0.8555,-0.8555 0.8555,0 3.1653,-0.0855 3.8497,-0.4277"
       id="path36" />
    <circle
       cx="36"
       cy="32"
       r="9"
       fill="none"
       stroke="#ffffff"
       stroke-width="1.15"
       id="circle36" />
    <path
       fill="none"
       stroke="#ffffff"
       stroke-linecap="round"
       stroke-width="3"
       d="m 11.5,48.5 h 49"
       id="path37" />
  </g>
  <g
     id="line"
     transform="translate(-4,-16)">
    <path
       fill="none"
       stroke="#000000"
       stroke-linecap="round"
       stroke-linejoin="round"
       stroke-width="2"
       d="M 67,17 H 5 v 38 h 62 z"
       id="path38" />
  </g>
</svg>
