<?xml version="1.0" encoding="UTF-8" standalone="no"?>
<svg
   id="emoji"
   viewBox="0 0 64 40"
   version="1.1"
   sodipodi:docname="1f3f4-e0065-e0073-e0076-e0063-e007f.svg"
   width="64"
   height="40"
   xmlns:inkscape="http://www.inkscape.org/namespaces/inkscape"
   xmlns:sodipodi="http://sodipodi.sourceforge.net/DTD/sodipodi-0.dtd"
   xmlns="http://www.w3.org/2000/svg"
   xmlns:svg="http://www.w3.org/2000/svg">
  <defs
     id="defs54" />
  <sodipodi:namedview
     id="namedview54"
     pagecolor="#ffffff"
     bordercolor="#000000"
     borderopacity="0.25"
     inkscape:showpageshadow="2"
     inkscape:pageopacity="0.0"
     inkscape:pagecheckerboard="0"
     inkscape:deskcolor="#d1d1d1" />
  <g
     id="color"
     transform="translate(-4,-16)">
    <rect
       x="5"
       y="17"
       width="62"
       height="38"
       fill="#f1b31c"
       id="rect1" />
    <rect
       x="5"
       y="22"
       width="62"
       height="4"
       fill="#d22f27"
       id="rect2" />
    <rect
       x="5"
       y="30"
       width="62"
       height="4"
       fill="#d22f27"
       id="rect3" />
    <rect
       x="5"
       y="38"
       width="62"
       height="4"
       fill="#d22f27"
       id="rect4" />
    <rect
       x="5"
       y="46"
       width="62"
       height="4"
       fill="#d22f27"
       id="rect5" />
    <rect
       x="16.27"
       y="18.17"
       rx="0"
       ry="0"
       width="4.2059999"
       height="35.919998"
       fill="#fcea2b"
       stroke="#fcea2b"
       stroke-linecap="square"
       stroke-width="1.957"
       id="rect6" />
    <rect
       x="5.1680002"
       y="17.08"
       rx="0"
       ry="0"
       width="13.85"
       height="37.869999"
       fill="#1e50a0"
       id="rect7" />
    <rect
       x="20.4"
       y="18.09"
       rx="0"
       ry="0"
       width="3.507"
       height="36.080002"
       fill="#d22f27"
       stroke="#d22f27"
       stroke-linecap="square"
       stroke-width="1.791"
       id="rect8" />
    <ellipse
       cx="22.219999"
       cy="24.02"
       rx="1.057"
       ry="1.0930001"
       fill="#d22f27"
       stroke="#fcea2b"
       stroke-linecap="square"
       stroke-width="0.25"
       id="ellipse8" />
    <ellipse
       cx="22.219999"
       cy="20"
       rx="1.057"
       ry="1.0930001"
       fill="#ffffff"
       id="ellipse9" />
    <ellipse
       cx="22.219999"
       cy="28.040001"
       rx="1.057"
       ry="1.0930001"
       fill="#ffffff"
       id="ellipse10" />
    <ellipse
       cx="22.219999"
       cy="36.080002"
       rx="1.057"
       ry="1.0930001"
       fill="#ffffff"
       id="ellipse11" />
    <ellipse
       cx="22.219999"
       cy="44.119999"
       rx="1.057"
       ry="1.0930001"
       fill="#ffffff"
       id="ellipse12" />
    <ellipse
       cx="22.219999"
       cy="52.16"
       rx="1.057"
       ry="1.0930001"
       fill="#ffffff"
       id="ellipse13" />
    <ellipse
       cx="22.219999"
       cy="32.060001"
       rx="1.057"
       ry="1.0930001"
       fill="#5c9e31"
       id="ellipse14" />
    <ellipse
       cx="22.219999"
       cy="40.099998"
       rx="1.057"
       ry="1.0930001"
       fill="#d22f27"
       stroke="#fcea2b"
       stroke-linecap="square"
       stroke-width="0.25"
       id="ellipse15" />
    <ellipse
       cx="22.219999"
       cy="48.139999"
       rx="1.057"
       ry="1.0930001"
       fill="#5c9e31"
       id="ellipse16" />
    <g
       transform="matrix(1.001,0,0,0.9465,0.08693,1.925)"
       fill="none"
       stroke="#fcea2b"
       stroke-linecap="round"
       stroke-linejoin="round"
       stroke-width="1.027"
       id="g54">
      <path
         d="m 10.33,19.55 c 0,0 -0.6551,-0.8387 0.6787,-1.093 1.334,-0.2543 1.009,1.412 3.463,4.349"
         id="path16" />
      <path
         d="m 10.51,26.78 c 0,0 -0.6551,0.8387 0.6787,1.093 1.334,0.2545 1.009,-1.412 3.463,-4.349"
         id="path17" />
      <path
         d="m 15.87,19.74 2.804,-0.1029"
         id="path18" />
      <path
         d="m 14.87,23.2 1.567,-0.02184 2.266,-1.204"
         id="path19" />
      <path
         d="m 16.44,23.18 2.254,1.565"
         id="path20" />
      <path
         d="m 9.542,23.19 5.332,0.0112"
         id="path21" />
      <path
         d="m 11.04,21.69 1.163,1.5"
         id="path22" />
      <path
         d="m 11.06,24.68 1.139,-1.496"
         id="path23" />
      <path
         d="m 10.2,32.26 c 0,0 -0.6551,-0.8387 0.6787,-1.093 1.334,-0.2543 1.009,1.412 3.463,4.349"
         id="path24" />
      <path
         d="m 10.38,39.49 c 0,0 -0.6551,0.8387 0.6787,1.093 1.334,0.2543 1.009,-1.412 3.463,-4.349"
         id="path25" />
      <path
         d="m 14.74,35.91 1.567,-0.02184 2.266,-1.204"
         id="path26" />
      <path
         d="m 16.3,35.88 2.254,1.565"
         id="path27" />
      <path
         d="m 9.41,35.9 5.332,0.0112"
         id="path28" />
      <path
         d="m 10.91,34.41 1.163,1.5"
         id="path29" />
      <path
         d="m 10.93,37.4 1.139,-1.496"
         id="path30" />
      <path
         d="m 10.23,45.39 c 0,0 -0.6551,-0.8387 0.6787,-1.093 1.334,-0.2545 1.009,1.412 3.463,4.349"
         id="path31" />
      <path
         d="m 10.41,52.62 c 0,0 -0.6551,0.8387 0.6787,1.093 1.334,0.2545 1.009,-1.412 3.463,-4.349"
         id="path32" />
      <path
         d="m 14.77,49.04 1.567,-0.02184 2.266,-1.204"
         id="path33" />
      <path
         d="m 16.33,49.02 2.254,1.565"
         id="path34" />
      <path
         d="m 9.438,49.03 5.332,0.0112"
         id="path35" />
      <path
         d="m 10.94,47.54 1.163,1.5"
         id="path36" />
      <path
         d="m 10.96,50.53 1.139,-1.496"
         id="path37" />
      <path
         d="m 15.84,26.51 2.832,0.1235"
         id="path38" />
      <path
         d="m 15.84,32.75 2.832,-0.1303"
         id="path39" />
      <path
         d="m 15.81,39.55 2.818,0.1098"
         id="path40" />
      <path
         d="m 15.84,45.63 2.832,-0.06258"
         id="path41" />
      <path
         d="m 15.81,52.67 2.86,0.09644"
         id="path42" />
      <path
         d="m 14.29,29.63 3.22,0.01907 1.074,-0.7169"
         id="path43" />
      <path
         d="m 17.51,29.65 1.111,1.133"
         id="path44" />
      <path
         d="m 10.71,29.56 1.927,0.06778"
         id="path45" />
      <path
         d="m 14.57,28.55 1.213,1.078"
         id="path46" />
      <path
         d="m 14.57,30.73 1.325,-1.092"
         id="path47" />
      <path
         d="m 14.57,28.55 -1.933,1.07 1.933,1.1"
         id="path48" />
      <path
         d="m 14.32,42.58 3.22,0.01908 1.074,-0.7169"
         id="path49" />
      <path
         d="m 17.54,42.6 1.111,1.133"
         id="path50" />
      <path
         d="m 10.74,42.52 1.927,0.06778"
         id="path51" />
      <path
         d="m 14.6,41.51 1.213,1.078"
         id="path52" />
      <path
         d="m 14.6,43.68 1.325,-1.092"
         id="path53" />
      <path
         d="m 14.6,41.51 -1.933,1.07 1.933,1.1"
         id="path54" />
    </g>
  </g>
  <g
     id="line"
     transform="translate(-4,-16)">
    <rect
       x="5"
       y="17"
       width="62"
       height="38"
       fill="none"
       stroke="#000000"
       stroke-linecap="round"
       stroke-linejoin="round"
       stroke-width="2"
       id="rect54" />
  </g>
</svg>
