<svg xmlns="http://www.w3.org/2000/svg" xmlns:svg="http://www.w3.org/2000/svg" id="emoji" width="38.997" height="64.037" version="1.1" viewBox="0 0 38.997 64.037"><g id="color" transform="translate(-15.751801,-4)"><g id="g14"><g id="g2"><path id="path1" fill="#d0cfce" stroke="#d0cfce" stroke-linecap="round" stroke-linejoin="round" stroke-width="1.5" d="m 48.4009,52.2372 c 0.2055,-1.3254 -0.7025,-2.5665 -2.0279,-2.772 -1.3254,-0.2055 -2.5665,0.7025 -2.772,2.0279 -0.0382,0.2463 -0.0382,0.497 -10e-5,0.7432 v 3.6 l -5.6022,11.1992 3.2,5e-4 1.6,-1.6 1.6,1.6 1.6,-1.6 1.6,1.6 1.6,-1.6 1.6,1.6 3.2,5e-4 L 48.4,55.8371 v -3.1548 l 9e-4,-0.4452 z"/><path id="path2" fill="#d22f27" d="m 48.4007,53.408 v 2.4 c 0,0 -5.575,0.0175 -4.8,-0.0089 v -2.4 z"/></g><polygon id="polygon2" fill="#9b9b9a" stroke="#9b9b9a" stroke-linecap="round" stroke-linejoin="round" stroke-width="2" points="24.495 46.505 26.517 46.505 27.37 53.202 27.37 67.036 23.641 67.036 23.641 53.202"/><rect id="rect2" width="1.5" height="16" x="24.752" y="29.507" fill="#3f3f3f"/><g id="g13"><line id="line2" x1="25.696" x2="25.696" y1="5.001" y2="28.5" fill="none" stroke="#d0cfce" stroke-miterlimit="10" stroke-width="1.484"/><line id="line3" x1="22.696" x2="22.696" y1="5.701" y2="28" fill="none" stroke="#d0cfce" stroke-miterlimit="10" stroke-width="1.477"/><line id="line4" x1="19.696" x2="19.696" y1="8" y2="25.5" fill="none" stroke="#d0cfce" stroke-miterlimit="10" stroke-width="1.479"/><line id="line5" x1="28.696" x2="28.696" y1="5.648" y2="28" fill="none" stroke="#d0cfce" stroke-miterlimit="10" stroke-width="1.479"/><line id="line6" x1="31.696" x2="31.696" y1="8" y2="25.5" fill="none" stroke="#d0cfce" stroke-miterlimit="10" stroke-width="1.479"/><line id="line7" x1="17.013" x2="34.252" y1="14" y2="14" fill="none" stroke="#d0cfce" stroke-miterlimit="10" stroke-width="1.468"/><line id="line8" x1="16.752" x2="34.252" y1="17" y2="17" fill="none" stroke="#d0cfce" stroke-miterlimit="10" stroke-width="1.479"/><line id="line9" x1="17.075" x2="33.752" y1="20" y2="20" fill="none" stroke="#d0cfce" stroke-miterlimit="10" stroke-width="1.486"/><line id="line10" x1="17.921" x2="33.252" y1="11" y2="11" fill="none" stroke="#d0cfce" stroke-miterlimit="10" stroke-width="1.492"/><line id="line11" x1="19.752" x2="31.752" y1="8" y2="8" fill="none" stroke="#d0cfce" stroke-miterlimit="10" stroke-width="1.5"/><line id="line12" x1="20.046" x2="31.252" y1="26" y2="26" fill="none" stroke="#d0cfce" stroke-miterlimit="10" stroke-width="1.5"/><line id="line13" x1="18.063" x2="33.252" y1="23" y2="23" fill="none" stroke="#d0cfce" stroke-miterlimit="10" stroke-width="1.462"/></g><ellipse id="ellipse13" cx="25.752" cy="16.842" fill="none" stroke="#3f3f3f" stroke-miterlimit="10" stroke-width="2" rx="9" ry="11.842"/></g></g><g id="line" transform="translate(-15.751801,-4)"><g id="g15"><path id="path14" fill="none" stroke="#000" stroke-linecap="round" stroke-linejoin="round" stroke-width="1.5" d="m 48.4009,52.2372 c 0.2055,-1.3254 -0.7025,-2.5665 -2.0279,-2.772 -1.3254,-0.2055 -2.5665,0.7025 -2.772,2.0279 -0.0382,0.2463 -0.0382,0.497 -10e-5,0.7432 v 3.6 l -2.05,4.0979 -0.4957,0.991 -3.0563,6.11 3.2,5e-4 1.6,-1.6 1.6,1.6 1.6,-1.6 1.6,1.6 1.6,-1.6 1.6,1.6 3.2,5e-4 L 50.9358,60.9099 50.3729,59.7836 48.4,55.8371 v -3.1548 l 9e-4,-0.4452 z"/><path id="path15" fill="none" stroke="#000" stroke-miterlimit="10" stroke-width="1.5" d="m 48.4007,53.4372 v 2.4 c 0,0 -4.8,-0.0116 -4.8,-8e-4 v -2.4 z"/></g><g id="g16"><polyline id="polyline15" fill="none" stroke="#000" stroke-linecap="round" stroke-linejoin="round" stroke-width="2" points="24.22 48.658 23.641 53.203 23.641 67.037 27.37 67.037 27.37 53.203"/><rect id="rect15" width="1.5" height="16" x="24.752" y="29.507"/><ellipse id="ellipse15" cx="25.752" cy="16.842" fill="none" stroke="#000" stroke-miterlimit="10" stroke-width="2" rx="9" ry="11.842"/></g></g></svg>