<?xml version="1.0" encoding="UTF-8" standalone="no"?>
<svg
   id="emoji"
   viewBox="0 0 64 40"
   version="1.1"
   sodipodi:docname="1f3f4-e0075-e0073-e0063-e0061-e007f.svg"
   width="64"
   height="40"
   xmlns:inkscape="http://www.inkscape.org/namespaces/inkscape"
   xmlns:sodipodi="http://sodipodi.sourceforge.net/DTD/sodipodi-0.dtd"
   xmlns="http://www.w3.org/2000/svg"
   xmlns:svg="http://www.w3.org/2000/svg">
  <defs
     id="defs7" />
  <sodipodi:namedview
     id="namedview7"
     pagecolor="#ffffff"
     bordercolor="#000000"
     borderopacity="0.25"
     inkscape:showpageshadow="2"
     inkscape:pageopacity="0.0"
     inkscape:pagecheckerboard="0"
     inkscape:deskcolor="#d1d1d1" />
  <g
     id="color"
     transform="translate(-4,-16)">
    <path
       fill="#ffffff"
       d="M 67,17 H 5.31909 V 54.8044 H 67 Z"
       id="path1" />
    <g
       id="g3">
      <path
         fill="#5c9e31"
         fill-rule="evenodd"
         d="M 50.9767,40 H 21.0233 c 4.4073,-0.6361 9.522,-1 14.9767,-1 5.4547,0 10.5694,0.3639 14.9767,1 z"
         clip-rule="evenodd"
         id="path2" />
      <path
         fill="#5c9e31"
         d="m 50.9767,40 v 1 c 0.5245,0 0.9599,-0.4052 0.9974,-0.9284 0.0376,-0.5232 -0.3354,-0.9864 -0.8546,-1.0613 z m -29.9534,0 -0.1428,-0.9897 c -0.5191,0.0749 -0.8922,0.5381 -0.8546,1.0613 C 20.0634,40.5948 20.4988,41 21.0233,41 Z M 50.9767,39 H 21.0233 v 2 H 50.9767 Z M 36,38 c -5.4971,0 -10.6599,0.3666 -15.1195,1.0103 l 0.2857,1.9794 C 25.5212,40.3612 30.5878,40 36,40 Z m 15.1195,1.0103 C 46.6599,38.3666 41.4972,38 36,38 v 2 c 5.4122,0 10.4788,0.3612 14.8339,0.9897 z"
         id="path3" />
    </g>
    <rect
       x="5"
       y="48"
       width="62"
       height="7"
       fill="#ea5a47"
       id="rect3" />
    <path
       fill="#ea5a47"
       stroke="#ea5a47"
       stroke-linejoin="round"
       d="m 16.5,23 0.5613,1.7275 h 1.8163 l -1.4694,1.0676 0.5613,1.7274 -1.4695,-1.0676 -1.4695,1.0676 0.5613,-1.7274 -1.4694,-1.0676 h 1.8163 z"
       id="path4" />
    <path
       fill="#a57939"
       stroke="#a57939"
       stroke-linejoin="round"
       d="m 25.5,32.5 -2,1.5 0.5,0.5 0.8271,-0.0497 v 1 c 3.5803,0 2.9428,-2.6187 5.6729,-1.4503 0,0 -1.0849,4.1054 -3.5267,4.4315 l 0.0056,0.6306 c 1.1716,0 0.3285,-0.0218 1.5001,-0.0218 C 30.5344,37.752 32.1332,36.5621 33.5,35 c 0.6926,2.12 3.3577,2.12 1.5,3.5 h 1.7574 c 0,0 0.184,-0.1723 0.5014,-0.61 0.3174,-0.4377 -1.2968,-2.9192 -1.2968,-2.9192 0,0 2.538,0.5292 3.538,0.0292 -0.7961,1.9627 1.9817,3.222 -1,3.6 L 39,39 h 1.5 c 0,0 1.8158,-2.2027 2.1319,-3.5497 C 43.1828,38.3454 47.7828,36.6894 45,39 h 1 l 1.5,-1 C 45.5794,36 45.9673,28.5227 40.4686,28.5227 37.9686,28.5227 37.5,29 36.5,29 35.5,29 33,28 32,28 c -1,0 -4.1511,1.8594 -4.5,2 -0.3489,0.1406 -1.1729,0.541 -1.1729,0.541 -0.5,0 -1.5,1.5 -1.5,1.5 z"
       id="path5" />
    <path
       fill="none"
       stroke="#a57939"
       stroke-linecap="round"
       stroke-width="3"
       d="M 40.5,44.5 H 53 m -34,0 h 16.5"
       id="path6" />
  </g>
  <g
     id="line"
     transform="translate(-4,-16)">
    <path
       fill="none"
       stroke="#000000"
       stroke-linecap="round"
       stroke-linejoin="round"
       stroke-width="2"
       d="M 67,17 H 5 v 38 h 62 z"
       id="path7" />
  </g>
</svg>
