<svg xmlns="http://www.w3.org/2000/svg" xmlns:svg="http://www.w3.org/2000/svg" id="emoji" width="64" height="40" version="1.1" viewBox="0 0 64 40"><g id="color" transform="translate(-4,-16)"><rect id="rect1" width="62" height="38" x="5" y="17" fill="#1e50a0"/><line id="line1" x1="36" x2="36" y1="26.5" y2="47" fill="none" stroke="#fcea2b" stroke-linecap="round" stroke-linejoin="round" stroke-width="2"/><line id="line2" x1="28.5" x2="43.5" y1="34" y2="34" fill="none" stroke="#fcea2b" stroke-linecap="round" stroke-linejoin="round" stroke-width="2"/><polyline id="polyline2" fill="none" stroke="#fcea2b" stroke-linecap="round" stroke-linejoin="round" stroke-width="1.8" points="34.2 24.764 36 26.5 37.8 24.7"/><polygon id="polygon2" fill="none" stroke="#fcea2b" stroke-linecap="round" stroke-linejoin="round" stroke-width="2" points="38 48 34 47.929 36 46"/><line id="line3" x1="36" x2="36" y1="26.5" y2="24" fill="none" stroke="#fcea2b" stroke-linecap="round" stroke-linejoin="round" stroke-width="1.8"/><polyline id="polyline3" fill="none" stroke="#fcea2b" stroke-linecap="round" stroke-linejoin="round" stroke-width="1.8" points="26.764 35.8 28.5 34 26.7 32.2"/><line id="line4" x1="28.5" x2="26" y1="34" y2="34" fill="none" stroke="#fcea2b" stroke-linecap="round" stroke-linejoin="round" stroke-width="1.8"/><polyline id="polyline4" fill="none" stroke="#fcea2b" stroke-linecap="round" stroke-linejoin="round" stroke-width="1.8" points="45.236 35.8 43.5 34 45.3 32.2"/><line id="line5" x1="43.5" x2="46" y1="34" y2="34" fill="none" stroke="#fcea2b" stroke-linecap="round" stroke-linejoin="round" stroke-width="1.8"/><circle id="circle5" cx="36" cy="34" r="1.5" fill="none" stroke="#fcea2b" stroke-linecap="round" stroke-linejoin="round" stroke-width="2"/></g><g id="line" transform="translate(-4,-16)"><rect id="rect5" width="62" height="38" x="5" y="17" fill="none" stroke="#000" stroke-linecap="round" stroke-linejoin="round" stroke-width="2"/></g></svg>