<?xml version="1.0" encoding="UTF-8" standalone="no"?>
<svg
   id="emoji"
   viewBox="0 0 37.367149 57.804501"
   version="1.1"
   sodipodi:docname="1f3fa.svg"
   width="37.367149"
   height="57.804501"
   xmlns:inkscape="http://www.inkscape.org/namespaces/inkscape"
   xmlns:sodipodi="http://sodipodi.sourceforge.net/DTD/sodipodi-0.dtd"
   xmlns="http://www.w3.org/2000/svg"
   xmlns:svg="http://www.w3.org/2000/svg">
  <defs
     id="defs9" />
  <sodipodi:namedview
     id="namedview9"
     pagecolor="#ffffff"
     bordercolor="#000000"
     borderopacity="0.25"
     inkscape:showpageshadow="2"
     inkscape:pageopacity="0.0"
     inkscape:pagecheckerboard="0"
     inkscape:deskcolor="#d1d1d1" />
  <g
     id="color"
     transform="translate(-17.31618,-8.1655)">
    <path
       fill="#f4aa41"
       d="m 50.7246,24.0823 1.0772,-1.8738 A 6.049,6.049 0 0 0 44.15,14.091 8.011,8.011 0 0 1 45.7785,11.7437 2.0619,2.0619 0 0 0 46.2023,9.4692 2.1243,2.1243 0 0 0 44.2433,8.1655 H 27.7571 a 2.1243,2.1243 0 0 0 -1.959,1.3037 2.0619,2.0619 0 0 0 0.4238,2.2745 8.0374,8.0374 0 0 1 1.6121,2.3147 6,6 0 0 0 -1.9851,-0.3519 6.0732,6.0732 0 0 0 -5.5635,8.502 L 21.33,24.0261 A 15.2882,15.2882 0 0 0 17.3176,34.56 c 0,6.7949 4.2715,15.88 12.6953,27.0019 a 0.9972,0.9972 0 0 0 0.7969,0.3965 H 41.19 a 0.9972,0.9972 0 0 0 0.7969,-0.3965 C 50.41,50.44 54.6819,41.355 54.6819,34.56 A 15.3053,15.3053 0 0 0 50.7246,24.0823 Z M 25.8489,15.7065 a 3.9645,3.9645 0 0 1 1.417,0.2637 c 0,0.0073 0.5861,0.2946 0.9658,0.4829 -0.3369,2.2935 -3.0994,4.5443 -4.1787,5.2407 a 10.8676,10.8676 0 0 0 -1.27,0.9349 l -0.6861,-1.27 a 4.0738,4.0738 0 0 1 3.752,-5.6524 z m 20.3894,0 a 4.0736,4.0736 0 0 1 3.7517,5.6524 l -0.7126,1.3193 a 10.9887,10.9887 0 0 0 -1.3018,-0.9668 c -1.1008,-0.7062 -3.8388,-2.93 -4.2,-5.2185 0.37,-0.184 1.046,-0.5149 1.046,-0.5227 a 3.9645,3.9645 0 0 1 1.4167,-0.2637 z"
       id="path1" />
    <path
       fill="#e27022"
       d="M 41.19,60.7988 C 47.4361,52.5521 53.6822,42.4217 53.6822,34.4008 A 14.2921,14.2921 0 0 0 47.436,22.3932 c 0,0 -4.7024,-3.0146 -4.7024,-6.5527 a 7.3033,7.3033 0 0 1 2.3279,-4.9536 1.0927,1.0927 0 0 0 -0.0488,-1.5616 h -5.2839 a 1.1162,1.1162 0 0 1 0.8183,1.88 7.3029,7.3029 0 0 0 -2.3279,4.9536 c 0,3.5381 4.7024,6.5527 4.7024,6.5527 A 14.2921,14.2921 0 0 1 49.1675,34.72 c 0,7.9189 -6.0884,17.8906 -12.2541,26.0791 z"
       id="path2" />
    <path
       fill="#3f3f3f"
       d="M 45.8518,65.97 H 26.1477 A 0.97,0.97 0 0 1 25.1777,65 c 0,-3.2041 4.5849,-4.8047 5.1084,-4.9766 a 0.9682,0.9682 0 0 1 0.3027,-0.0488 H 41.41 a 0.9682,0.9682 0 0 1 0.3027,0.0488 c 0.5235,0.1719 5.1084,1.7725 5.1084,4.9766 a 0.97,0.97 0 0 1 -0.9693,0.97 z"
       id="path3" />
    <path
       fill="#3f3f3f"
       d="M 46.2024,9.4692 A 2.1243,2.1243 0 0 0 44.2434,8.1655 H 27.7571 a 2.1243,2.1243 0 0 0 -1.959,1.3037 2.0619,2.0619 0 0 0 0.4238,2.2745 7.1713,7.1713 0 0 1 1.88,3.0488 c 0.0085,0.0315 0.0308,0.0541 0.042,0.084 a 0.9853,0.9853 0 0 0 0.9541,0.7724 h 13.8075 c 0.0137,0 0.0249,-0.0072 0.0385,-0.0077 a 0.9876,0.9876 0 0 0 0.3123,-0.063 0.97,0.97 0 0 0 0.1351,-0.0727 0.9943,0.9943 0 0 0 0.1633,-0.11 0.9741,0.9741 0 0 0 0.1142,-0.1225 1.0211,1.0211 0 0 0 0.1746,-0.3162 c 0.0076,-0.0232 0.0228,-0.0415 0.0288,-0.0656 a 7.08,7.08 0 0 1 1.9063,-3.1474 2.0619,2.0619 0 0 0 0.4238,-2.2746 z"
       id="path4" />
    <path
       fill="#3f3f3f"
       d="m 53.76,40.5454 a 0.9446,0.9446 0 0 0 0.011,-0.14 0.9313,0.9313 0 0 0 0.0271,-0.1343 c 0,-0.0209 -0.0106,-0.0383 -0.012,-0.0589 a 0.9478,0.9478 0 0 0 -0.0407,-0.203 0.9737,0.9737 0 0 0 -0.0567,-0.1733 0.9572,0.9572 0 0 0 -0.105,-0.1557 0.6712,0.6712 0 0 0 -0.2734,-0.2478 0.9513,0.9513 0 0 0 -0.1834,-0.095 c -0.02,-0.007 -0.0339,-0.0224 -0.0544,-0.0282 A 1.1205,1.1205 0 0 1 52.7981,39.2711 H 19.2024 a 0.9468,0.9468 0 0 0 -0.14,0.0281 0.9522,0.9522 0 0 0 -0.1357,0.01 c -0.0208,0.0059 -0.0349,0.0213 -0.0549,0.0285 a 0.9527,0.9527 0 0 0 -0.1791,0.0928 0.8485,0.8485 0 0 0 -0.4364,0.5716 0.96,0.96 0 0 0 -0.043,0.2137 c -0.0012,0.0193 -0.0112,0.0356 -0.0112,0.0553 a 0.9543,0.9543 0 0 0 0.0254,0.1261 0.9372,0.9372 0 0 0 0.0117,0.1483 38.3069,38.3069 0 0 0 1.8818,5.0723 0.9917,0.9917 0 0 0 0.193,0.2776 c 0.0188,0.02 0.0407,0.0341 0.0609,0.0523 a 0.9911,0.9911 0 0 0 0.2229,0.15 0.9419,0.9419 0 0 0 0.09,0.0408 0.9943,0.9943 0 0 0 0.3469,0.07 h 29.16 a 0.9746,0.9746 0 0 0 0.2368,0.1719 1.0015,1.0015 0 0 0 1.3252,-0.4951 c 0.0412,-0.0908 0.077,-0.1792 0.1175,-0.27 L 51.89,45.58 a 38.1565,38.1565 0 0 0 1.87,-5.0346 z"
       id="path5" />
  </g>
  <g
     id="line"
     transform="translate(-17.31618,-8.1655)">
    <line
       x1="21.035101"
       x2="50.965199"
       y1="45.208599"
       y2="45.208599"
       fill="none"
       stroke="#000000"
       stroke-linecap="round"
       stroke-linejoin="round"
       stroke-width="2"
       id="line5" />
    <line
       x1="19.202"
       x2="52.798"
       y1="40.270699"
       y2="40.270699"
       fill="none"
       stroke="#000000"
       stroke-linecap="round"
       stroke-linejoin="round"
       stroke-width="2"
       id="line6" />
    <path
       fill="none"
       stroke="#000000"
       stroke-linecap="round"
       stroke-linejoin="round"
       stroke-width="2"
       d="M 41.19,60.9583 C 47.436,52.7117 53.682,42.5812 53.682,34.5603 A 14.292,14.292 0 0 0 47.436,22.5528 c 0,0 -4.7023,-3.0146 -4.7023,-6.5528 A 7.3026,7.3026 0 0 1 45.0616,11.0465 1.1163,1.1163 0 0 0 44.2432,9.1659 H 27.7568 A 1.1163,1.1163 0 0 0 26.9384,11.0465 7.3026,7.3026 0 0 1 29.2663,16 c 0,3.5382 -4.7023,6.5528 -4.7023,6.5528 A 14.292,14.292 0 0 0 18.318,34.56 c 0,8.0209 6.246,18.1514 12.492,26.398 z"
       id="path6" />
    <path
       fill="none"
       stroke="#000000"
       stroke-linecap="round"
       stroke-linejoin="round"
       stroke-width="1.9387"
       d="m 30.59,60.945 c 0,0 -4.442,1.4603 -4.442,4.055 h 19.704 c 0,-2.5947 -4.4415,-4.055 -4.4415,-4.055"
       id="path7" />
    <path
       fill="none"
       stroke="#000000"
       stroke-linecap="round"
       stroke-linejoin="round"
       stroke-width="2"
       d="m 29.0976,14.6487 a 6.0723,6.0723 0 0 0 -8.7885,7.6137 l 1.55,2.6817"
       id="path8" />
    <path
       fill="none"
       stroke="#000000"
       stroke-linecap="round"
       stroke-linejoin="round"
       stroke-width="2"
       d="m 42.9054,14.6487 a 6.0722,6.0722 0 0 1 8.7885,7.6137 l -1.55,2.6817"
       id="path9" />
    <polyline
       fill="none"
       stroke="#000000"
       stroke-linecap="round"
       stroke-linejoin="round"
       points="18.547 37.338 23.843 37.338 23.843 35.381 21.799 35.381 21.799 33.424 25.713 33.424 25.713 37.338 29.627 37.338 29.627 35.294 27.67 35.294 27.67 33.424 31.671 33.424 31.671 37.338 35.585 37.338 35.585 35.381 33.541 35.381 33.541 33.424 37.455 33.424 37.455 37.338 41.369 37.338 41.369 35.381 39.412 35.381 39.412 33.424 43.413 33.424 43.413 37.338 47.327 37.338 47.327 35.381 45.283 35.381 45.283 33.424 49.197 33.424 49.197 37.338 53.453 37.338"
       id="polyline9" />
    <line
       x1="32.723099"
       x2="42.905399"
       y1="14.6487"
       y2="14.6487"
       fill="none"
       stroke="#000000"
       stroke-linecap="round"
       stroke-linejoin="round"
       stroke-width="2"
       id="line9" />
  </g>
</svg>
