<svg xmlns="http://www.w3.org/2000/svg" xmlns:svg="http://www.w3.org/2000/svg" id="emoji" width="64" height="40" version="1.1" viewBox="0 0 64 40"><g id="line-supplement" transform="translate(-4,-16)"><path id="path1" fill="#000" d="M 57.81375,0 H 44.5425 L 60,34.2 V 36 H 47.5425 L 31.27125,0 H 18 L 34.27125,36 H 21 L 9,9.45 0,7.155 V 18.9 L 7.72875,36 H 21 L 0,30.645 V 18.9 L 60,34.2 V 22.455 L 9,9.45 4.72875,0 H 18 L 60,10.71 V 4.8375 Z" transform="translate(6,18)"/></g><g id="color" transform="translate(-4,-16)"><rect id="rect1" width="62" height="38" x="5" y="17" fill="#fff"/><path id="path2" fill="#61b2e4" d="M 57.81375,0 H 44.5425 L 60,34.2 V 36 H 47.5425 L 31.27125,0 H 18 L 34.27125,36 H 21 L 9,9.45 0,7.155 V 18.9 L 7.72875,36 H 21 L 0,30.645 V 18.9 L 60,34.2 V 22.455 L 9,9.45 4.72875,0 H 18 L 60,10.71 V 4.8375 Z" transform="translate(6,18)"/></g><g id="line" transform="translate(-4,-16)"><path id="path3" fill="none" stroke="#000" stroke-linecap="round" stroke-linejoin="round" stroke-width="2" d="M 67,17 H 5 v 38 h 62 z"/></g></svg>