<svg xmlns="http://www.w3.org/2000/svg" xmlns:svg="http://www.w3.org/2000/svg" id="emoji" width="58" height="45" version="1.1" viewBox="0 0 58 45"><g id="color" transform="translate(-7,-11.000144)"><rect id="rect1" width="12" height="14" x="30" y="27" fill="#9b9b9a" stroke="none"/><polygon id="polygon1" fill="#d0cfce" stroke="none" stroke-linecap="round" stroke-linejoin="round" stroke-miterlimit="10" stroke-width="2" points="20 41 20 39 20 39 27 39 27 41 32 41 32 39 40 39 40 41 45 41 45 39 52 39 52 41 52 39 52 55 20 55"/><rect id="rect2" width="10" height="23" x="10" y="32" fill="#d0cfce" stroke="none" stroke-linecap="round" stroke-linejoin="round" stroke-miterlimit="10" stroke-width="2"/><rect id="rect3" width="10" height="23" x="52" y="32" fill="#d0cfce" stroke="none" stroke-linecap="round" stroke-linejoin="round" stroke-miterlimit="10" stroke-width="2"/><rect id="rect4" width="14" height="6" x="8" y="26" fill="#d0cfce" stroke="none" stroke-linecap="round" stroke-linejoin="round" stroke-miterlimit="10" stroke-width="2"/><rect id="rect5" width="13" height="6" x="29.5" y="22" fill="#d0cfce" stroke="none" stroke-linecap="round" stroke-linejoin="round" stroke-miterlimit="10" stroke-width="2"/><rect id="rect6" width="14" height="6" x="50" y="26" fill="#d0cfce" stroke="none" stroke-linecap="round" stroke-linejoin="round" stroke-miterlimit="10" stroke-width="2"/><polygon id="polygon6" fill="#ea5a47" stroke="none" stroke-linecap="round" stroke-linejoin="round" stroke-miterlimit="10" stroke-width="2" points="40.5 22 36 12 31.5 22"/><polygon id="polygon7" fill="#ea5a47" stroke="none" stroke-linecap="round" stroke-linejoin="round" stroke-miterlimit="10" stroke-width="2" points="20.5 26 15 16 9.5 26"/><polygon id="polygon8" fill="#ea5a47" stroke="none" stroke-linecap="round" stroke-linejoin="round" stroke-miterlimit="10" stroke-width="2" points="62.5 26 57 16 51.5 26"/><path id="path8" fill="#a57939" stroke="none" stroke-linecap="round" stroke-linejoin="round" stroke-miterlimit="10" stroke-width="2" d="m 40.5,55 h -9 v -6 c 0,-1.6569 1.3431,-3 3,-3 h 3 c 1.6569,0 3,1.3431 3,3 z"/></g><g id="line" transform="translate(-7,-11.000144)"><polyline id="polyline8" fill="none" stroke="#000" stroke-linecap="round" stroke-linejoin="round" stroke-miterlimit="10" stroke-width="2" points="31 35 31 28 41 28 41 35"/><path id="path9" fill="none" stroke="#000" stroke-linecap="round" stroke-linejoin="round" stroke-miterlimit="10" stroke-width="2" d="m 37,35 h -2 v -3 c 0,-0.5523 0.4477,-1 1,-1 v 0"/><polygon id="polygon9" fill="none" stroke="#000" stroke-linecap="round" stroke-linejoin="round" stroke-miterlimit="10" stroke-width="2" points="20 41 20 39 20 39 27 39 27 41 32 41 32 39 40 39 40 41 45 41 45 39 52 39 52 41 52 39 52 55 20 55"/><rect id="rect9" width="10" height="23" x="10" y="32" fill="none" stroke="#000" stroke-linecap="round" stroke-linejoin="round" stroke-miterlimit="10" stroke-width="2"/><rect id="rect10" width="10" height="23" x="52" y="32" fill="none" stroke="#000" stroke-linecap="round" stroke-linejoin="round" stroke-miterlimit="10" stroke-width="2"/><rect id="rect11" width="14" height="6" x="8" y="26" fill="none" stroke="#000" stroke-linecap="round" stroke-linejoin="round" stroke-miterlimit="10" stroke-width="2"/><rect id="rect12" width="13" height="6" x="29.5" y="22" fill="none" stroke="#000" stroke-linecap="round" stroke-linejoin="round" stroke-miterlimit="10" stroke-width="2"/><rect id="rect13" width="14" height="6" x="50" y="26" fill="none" stroke="#000" stroke-linecap="round" stroke-linejoin="round" stroke-miterlimit="10" stroke-width="2"/><polygon id="polygon13" fill="none" stroke="#000" stroke-linecap="round" stroke-linejoin="round" stroke-miterlimit="10" stroke-width="2" points="40.5 22 36 12 31.5 22"/><polygon id="polygon14" fill="none" stroke="#000" stroke-linecap="round" stroke-linejoin="round" stroke-miterlimit="10" stroke-width="2" points="20.5 26 15 16 9.5 26"/><polygon id="polygon15" fill="none" stroke="#000" stroke-linecap="round" stroke-linejoin="round" stroke-miterlimit="10" stroke-width="2" points="62.5 26 57 16 51.5 26"/><path id="path15" fill="none" stroke="#000" stroke-linecap="round" stroke-linejoin="round" stroke-miterlimit="10" stroke-width="2" d="m 40.5,55 h -9 v -6 c 0,-1.6569 1.3431,-3 3,-3 h 3 c 1.6569,0 3,1.3431 3,3 z"/><line id="line15" x1="36" x2="36" y1="46" y2="55" fill="none" stroke="#000" stroke-linecap="round" stroke-linejoin="round" stroke-miterlimit="10" stroke-width="2"/><path id="path16" fill="none" stroke="#000" stroke-linecap="round" stroke-linejoin="round" stroke-miterlimit="10" stroke-width="2" d="m 16,40 h -2 v -3 c 0,-0.5523 0.4477,-1 1,-1 v 0"/><path id="path17" fill="none" stroke="#000" stroke-linecap="round" stroke-linejoin="round" stroke-miterlimit="10" stroke-width="2" d="m 58,40 h -2 v -3 c 0,-0.5523 0.4477,-1 1,-1 v 0"/></g></svg>