<?xml version="1.0" encoding="UTF-8" standalone="no"?>
<svg
   id="emoji"
   viewBox="0 0 64 40"
   version="1.1"
   sodipodi:docname="1f3f4-e0065-e0073-e006d-e0063-e007f.svg"
   width="64"
   height="40"
   xmlns:inkscape="http://www.inkscape.org/namespaces/inkscape"
   xmlns:sodipodi="http://sodipodi.sourceforge.net/DTD/sodipodi-0.dtd"
   xmlns="http://www.w3.org/2000/svg"
   xmlns:svg="http://www.w3.org/2000/svg">
  <defs
     id="defs79" />
  <sodipodi:namedview
     id="namedview79"
     pagecolor="#ffffff"
     bordercolor="#000000"
     borderopacity="0.25"
     inkscape:showpageshadow="2"
     inkscape:pageopacity="0.0"
     inkscape:pagecheckerboard="0"
     inkscape:deskcolor="#d1d1d1" />
  <g
     id="line-supplement"
     fill="none"
     stroke="#000000"
     stroke-linecap="round"
     transform="translate(-4,-16)">
    <g
       transform="translate(5.2)"
       stroke-width="0.75"
       id="g15">
      <g
         transform="translate(-0.9004)"
         id="g2">
        <path
           d="m 50.89,44.14 0.4246,1.381 h 3.504 l 0.336,-1.381"
           id="path1" />
        <path
           d="m 52.99,44.27 v 1.229"
           id="path2" />
      </g>
      <g
         transform="translate(-6.169,2.403)"
         id="g4">
        <path
           d="m 50.89,44.14 0.4246,1.381 h 3.504 l 0.336,-1.381"
           id="path3" />
        <path
           d="m 52.99,44.27 v 1.229"
           id="path4" />
      </g>
      <g
         transform="translate(-0.9544,2.403)"
         id="g6">
        <path
           d="m 50.89,44.14 0.4246,1.381 h 3.504 l 0.336,-1.381"
           id="path5" />
        <path
           d="m 52.99,44.27 v 1.229"
           id="path6" />
      </g>
      <g
         transform="translate(-0.8852,7.151)"
         id="g8">
        <path
           d="m 50.89,44.14 0.4246,1.381 h 3.504 l 0.336,-1.381"
           id="path7" />
        <path
           d="m 52.99,44.27 v 1.229"
           id="path8" />
      </g>
      <g
         transform="translate(-3.792,4.853)"
         id="g10">
        <path
           d="m 50.89,44.14 0.4246,1.381 h 3.504 l 0.336,-1.381"
           id="path9" />
        <path
           d="m 52.99,44.27 v 1.229"
           id="path10" />
      </g>
      <g
         transform="translate(4.26,2.403)"
         id="g12">
        <path
           d="m 50.89,44.14 0.4246,1.381 h 3.504 l 0.336,-1.381"
           id="path11" />
        <path
           d="m 52.99,44.27 v 1.229"
           id="path12" />
      </g>
      <g
         transform="translate(1.922,4.853)"
         id="g14">
        <path
           d="m 50.89,44.14 0.4246,1.381 h 3.504 l 0.336,-1.381"
           id="path13" />
        <path
           d="m 52.99,44.27 v 1.229"
           id="path14" />
      </g>
    </g>
    <g
       transform="translate(0,1)"
       id="g40">
      <g
         id="g19">
        <path
           stroke-width="1"
           d="m 8.613,25.61 c 0,0 1.511,-7.361 3.138,7.6e-5"
           id="path15" />
        <path
           stroke-width="0.9992"
           d="m 10.18,18.58 0.0049,2.448"
           id="path16" />
        <path
           stroke-width="0.9238"
           d="m 8.909,19.01 v 2.077"
           id="path17" />
        <path
           stroke-width="0.9285"
           d="m 11.46,19 v 2.099"
           id="path18" />
        <path
           stroke-width="1"
           d="M 8.544,21.09 H 11.83"
           id="path19" />
      </g>
      <g
         transform="translate(5.509,-0.1145)"
         id="g24">
        <path
           stroke-width="1"
           d="m 8.613,25.61 c 0,0 1.511,-7.361 3.138,7.6e-5"
           id="path20" />
        <path
           stroke-width="0.9992"
           d="m 10.18,18.58 0.0049,2.448"
           id="path21" />
        <path
           stroke-width="0.9238"
           d="m 8.909,19.01 v 2.077"
           id="path22" />
        <path
           stroke-width="0.9285"
           d="m 11.46,19 v 2.099"
           id="path23" />
        <path
           stroke-width="1"
           d="M 8.544,21.09 H 11.83"
           id="path24" />
      </g>
      <g
         transform="translate(5.509,-0.1145)"
         id="g29">
        <path
           stroke-width="1"
           d="m 8.613,25.61 c 0,0 1.511,-7.361 3.138,7.6e-5"
           id="path25" />
        <path
           stroke-width="0.9992"
           d="m 10.18,18.58 0.0049,2.448"
           id="path26" />
        <path
           stroke-width="0.9238"
           d="m 8.909,19.01 v 2.077"
           id="path27" />
        <path
           stroke-width="0.9285"
           d="m 11.46,19 v 2.099"
           id="path28" />
        <path
           stroke-width="1"
           d="M 8.544,21.09 H 11.83"
           id="path29" />
      </g>
      <g
         transform="translate(0.0215,8.033)"
         id="g34">
        <path
           stroke-width="1"
           d="m 8.613,25.61 c 0,0 1.511,-7.361 3.138,7.6e-5"
           id="path30" />
        <path
           stroke-width="0.9992"
           d="m 10.18,18.58 0.0049,2.448"
           id="path31" />
        <path
           stroke-width="0.9238"
           d="m 8.909,19.01 v 2.077"
           id="path32" />
        <path
           stroke-width="0.9285"
           d="m 11.46,19 v 2.099"
           id="path33" />
        <path
           stroke-width="1"
           d="M 8.544,21.09 H 11.83"
           id="path34" />
      </g>
      <g
         transform="translate(5.509,7.919)"
         id="g39">
        <path
           stroke-width="1"
           d="m 8.613,25.61 c 0,0 1.511,-7.361 3.138,7.6e-5"
           id="path35" />
        <path
           stroke-width="0.9992"
           d="m 10.18,18.58 0.0049,2.448"
           id="path36" />
        <path
           stroke-width="0.9238"
           d="m 8.909,19.01 v 2.077"
           id="path37" />
        <path
           stroke-width="0.9285"
           d="m 11.46,19 v 2.099"
           id="path38" />
        <path
           stroke-width="1"
           d="M 8.544,21.09 H 11.83"
           id="path39" />
      </g>
    </g>
  </g>
  <g
     id="color"
     transform="translate(-4,-16)">
    <rect
       x="5"
       y="17"
       width="62"
       height="38"
       fill="#781e32"
       id="rect40" />
    <g
       transform="translate(5.2)"
       fill="none"
       stroke="#fcea2b"
       stroke-linecap="round"
       stroke-width="0.75"
       id="g54">
      <g
         transform="translate(-0.9004)"
         id="g41">
        <path
           d="m 50.89,44.14 0.4246,1.381 h 3.504 l 0.336,-1.381"
           id="path40" />
        <path
           d="m 52.99,44.27 v 1.229"
           id="path41" />
      </g>
      <g
         transform="translate(-6.169,2.403)"
         id="g43">
        <path
           d="m 50.89,44.14 0.4246,1.381 h 3.504 l 0.336,-1.381"
           id="path42" />
        <path
           d="m 52.99,44.27 v 1.229"
           id="path43" />
      </g>
      <g
         transform="translate(-0.9544,2.403)"
         id="g45">
        <path
           d="m 50.89,44.14 0.4246,1.381 h 3.504 l 0.336,-1.381"
           id="path44" />
        <path
           d="m 52.99,44.27 v 1.229"
           id="path45" />
      </g>
      <g
         transform="translate(-0.8852,7.151)"
         id="g47">
        <path
           d="m 50.89,44.14 0.4246,1.381 h 3.504 l 0.336,-1.381"
           id="path46" />
        <path
           d="m 52.99,44.27 v 1.229"
           id="path47" />
      </g>
      <g
         transform="translate(-3.792,4.853)"
         id="g49">
        <path
           d="m 50.89,44.14 0.4246,1.381 h 3.504 l 0.336,-1.381"
           id="path48" />
        <path
           d="m 52.99,44.27 v 1.229"
           id="path49" />
      </g>
      <g
         transform="translate(4.26,2.403)"
         id="g51">
        <path
           d="m 50.89,44.14 0.4246,1.381 h 3.504 l 0.336,-1.381"
           id="path50" />
        <path
           d="m 52.99,44.27 v 1.229"
           id="path51" />
      </g>
      <g
         transform="translate(1.922,4.853)"
         id="g53">
        <path
           d="m 50.89,44.14 0.4246,1.381 h 3.504 l 0.336,-1.381"
           id="path52" />
        <path
           d="m 52.99,44.27 v 1.229"
           id="path53" />
      </g>
    </g>
    <g
       transform="translate(0,1)"
       fill="none"
       stroke="#fcea2b"
       stroke-linecap="round"
       id="g79">
      <g
         id="g58">
        <path
           stroke-width="1"
           d="m 8.613,25.61 c 0,0 1.511,-7.361 3.138,7.6e-5"
           id="path54" />
        <path
           stroke-width="0.9992"
           d="m 10.18,18.58 0.0049,2.448"
           id="path55" />
        <path
           stroke-width="0.9238"
           d="m 8.909,19.01 v 2.077"
           id="path56" />
        <path
           stroke-width="0.9285"
           d="m 11.46,19 v 2.099"
           id="path57" />
        <path
           stroke-width="1"
           d="M 8.544,21.09 H 11.83"
           id="path58" />
      </g>
      <g
         transform="translate(5.509,-0.1145)"
         id="g63">
        <path
           stroke-width="1"
           d="m 8.613,25.61 c 0,0 1.511,-7.361 3.138,7.6e-5"
           id="path59" />
        <path
           stroke-width="0.9992"
           d="m 10.18,18.58 0.0049,2.448"
           id="path60" />
        <path
           stroke-width="0.9238"
           d="m 8.909,19.01 v 2.077"
           id="path61" />
        <path
           stroke-width="0.9285"
           d="m 11.46,19 v 2.099"
           id="path62" />
        <path
           stroke-width="1"
           d="M 8.544,21.09 H 11.83"
           id="path63" />
      </g>
      <g
         transform="translate(5.509,-0.1145)"
         id="g68">
        <path
           stroke-width="1"
           d="m 8.613,25.61 c 0,0 1.511,-7.361 3.138,7.6e-5"
           id="path64" />
        <path
           stroke-width="0.9992"
           d="m 10.18,18.58 0.0049,2.448"
           id="path65" />
        <path
           stroke-width="0.9238"
           d="m 8.909,19.01 v 2.077"
           id="path66" />
        <path
           stroke-width="0.9285"
           d="m 11.46,19 v 2.099"
           id="path67" />
        <path
           stroke-width="1"
           d="M 8.544,21.09 H 11.83"
           id="path68" />
      </g>
      <g
         transform="translate(0.0215,8.033)"
         id="g73">
        <path
           stroke-width="1"
           d="m 8.613,25.61 c 0,0 1.511,-7.361 3.138,7.6e-5"
           id="path69" />
        <path
           stroke-width="0.9992"
           d="m 10.18,18.58 0.0049,2.448"
           id="path70" />
        <path
           stroke-width="0.9238"
           d="m 8.909,19.01 v 2.077"
           id="path71" />
        <path
           stroke-width="0.9285"
           d="m 11.46,19 v 2.099"
           id="path72" />
        <path
           stroke-width="1"
           d="M 8.544,21.09 H 11.83"
           id="path73" />
      </g>
      <g
         transform="translate(5.509,7.919)"
         id="g78">
        <path
           stroke-width="1"
           d="m 8.613,25.61 c 0,0 1.511,-7.361 3.138,7.6e-5"
           id="path74" />
        <path
           stroke-width="0.9992"
           d="m 10.18,18.58 0.0049,2.448"
           id="path75" />
        <path
           stroke-width="0.9238"
           d="m 8.909,19.01 v 2.077"
           id="path76" />
        <path
           stroke-width="0.9285"
           d="m 11.46,19 v 2.099"
           id="path77" />
        <path
           stroke-width="1"
           d="M 8.544,21.09 H 11.83"
           id="path78" />
      </g>
    </g>
  </g>
  <g
     id="line"
     transform="translate(-4,-16)">
    <rect
       x="5"
       y="17"
       width="62"
       height="38"
       fill="none"
       stroke="#000000"
       stroke-linecap="round"
       stroke-linejoin="round"
       stroke-width="2"
       id="rect79" />
  </g>
</svg>
