<svg xmlns="http://www.w3.org/2000/svg" xmlns:svg="http://www.w3.org/2000/svg" id="emoji" width="59" height="42" version="1.1" viewBox="0 0 59 42"><g id="color" transform="translate(-6.7,-15.3)"><path id="path1" fill="#f4aa41" d="m 24.7,16.4 -17,6 v 27.9 l 17,6 h 40 v -40 h -40 z m -8.5,25 c -2.8,0 -5,-2.2 -5,-5 0,-2.8 2.2,-5 5,-5 2.8,0 5,2.2 5,5 0,2.8 -2.2,5 -5,5 z"/></g><g id="line" transform="translate(-6.7,-15.3)"><path id="path2" fill="none" stroke="#000" stroke-linecap="round" stroke-linejoin="round" stroke-miterlimit="10" stroke-width="2" d="m 24.7,16.4 -17,6 v 27.9 l 17,6 h 40 v -40 h -40 z m -8.5,25 c -2.8,0 -5,-2.2 -5,-5 0,-2.8 2.2,-5 5,-5 2.8,0 5,2.2 5,5 0,2.8 -2.2,5 -5,5 z"/></g></svg>