<?xml version="1.0" encoding="UTF-8" standalone="no"?>
<svg
   id="emoji"
   viewBox="0 0 64 40"
   version="1.1"
   sodipodi:docname="1f3f4-e0065-e0073-e0061-e0072-e007f.svg"
   width="64"
   height="40"
   xmlns:inkscape="http://www.inkscape.org/namespaces/inkscape"
   xmlns:sodipodi="http://sodipodi.sourceforge.net/DTD/sodipodi-0.dtd"
   xmlns="http://www.w3.org/2000/svg"
   xmlns:svg="http://www.w3.org/2000/svg">
  <defs
     id="defs38" />
  <sodipodi:namedview
     id="namedview38"
     pagecolor="#ffffff"
     bordercolor="#000000"
     borderopacity="0.25"
     inkscape:showpageshadow="2"
     inkscape:pageopacity="0.0"
     inkscape:pagecheckerboard="0"
     inkscape:deskcolor="#d1d1d1" />
  <g
     id="color"
     transform="translate(-4,-16)">
    <rect
       x="5"
       y="17"
       width="62"
       height="38"
       fill="#f1b31c"
       id="rect1" />
    <rect
       x="5"
       y="22"
       width="62"
       height="4"
       fill="#d22f27"
       id="rect2" />
    <rect
       x="5"
       y="30"
       width="62"
       height="4"
       fill="#d22f27"
       id="rect3" />
    <rect
       x="5"
       y="38"
       width="62"
       height="4"
       fill="#d22f27"
       id="rect4" />
    <rect
       x="5"
       y="46"
       width="62"
       height="4"
       fill="#d22f27"
       id="rect5" />
    <g
       id="g38">
      <g
         transform="matrix(0.057,0,0,0.057,5,16.97)"
         stroke="#000000"
         stroke-width="4.386"
         id="g8">
        <path
           fill="#fcea2b"
           d="m 222.6,369.1 -0.1219,-112.2 h 99.63 l 0.2451,112.4"
           id="path5" />
        <path
           fill="#1e50a0"
           d="m 321.9,369.1 -0.1212,-112.2 h 99.03 l 0.2432,112.4"
           id="path6" />
        <path
           fill="#fcea2b"
           d="m 222.5,368.8 198.5,0.4463 c 0,0 0.4326,42.17 -0.8206,56.79 -0.1258,16.96 -20.92,93.2 -100.5,93.18 -80.91,0.4457 -97.09,-68.64 -97.19,-97.2 -0.1016,-8.926 0,-53.22 0,-53.22 z"
           id="path7" />
        <path
           fill="#ffffff"
           d="m 321.8,519.1 c -18.53,0.5525 -35.52,-2.348 -46.55,-8.381 -9.151,-5.002 -17.69,-9.355 -25.25,-17.87 -5.701,-6.421 -11.38,-13.95 -15.52,-21.82 -1.305,-2.481 -2.489,-5.035 -3.448,-7.645 -3.117,-8.483 -8.034,-22.24 -8.354,-37.11 -0.4922,-22.85 -0.2327,-48.43 -0.0754,-57.45 17.42,-0.01 99.2,0.158 99.2,0.158"
           id="path8" />
      </g>
      <g
         id="g9">
        <path
           transform="matrix(0.057,0,0,0.057,5,16.97)"
           fill="#d22f27"
           d="m 266.1,369 -0.1193,51.48 -43.34,-0.0583 c 0.1534,4.463 -0.0295,7.625 0.5584,12.5 l 42.79,-0.0596 -0.0603,72.54 c 4.122,2.489 8.149,4.633 12.8,6.904 v -79.45 l 42.92,-0.0596 v -12.38 l -42.92,0.0583 -0.0603,-51.48 h -12.56 z"
           id="path9" />
      </g>
      <g
         fill="#d22f27"
         id="g13">
        <path
           transform="matrix(0.057,0,0,0.057,5,16.97)"
           d="m 398.7,369.3 h 10.92 v 92.69 c -1.319,3.331 -7.776,14.52 -10.92,18.09 z"
           id="path10" />
        <path
           transform="matrix(0.057,0,0,0.057,5,16.97)"
           d="m 376.8,369.3 h 10.92 v 123.5 c -2.035,1.981 -7.184,6.705 -10.88,9.134 z"
           id="path11" />
        <path
           transform="matrix(0.057,0,0,0.057,5,16.97)"
           d="m 355,369.2 h 10.92 v 139.3 c -2.936,1.504 -7.232,3.519 -10.89,4.729 z"
           id="path12" />
        <path
           transform="matrix(0.057,0,0,0.057,5,16.97)"
           d="m 333.2,369.2 10.89,0.0603 0.0301,147.2 c -3.175,0.5682 -7.143,1.595 -10.92,1.859 z"
           id="path13" />
      </g>
      <g
         fill="#ffffff"
         stroke="#ffffff"
         id="g16">
        <path
           stroke-width="0.75"
           d="m 23.77,33.47 1.877,-0.01011"
           id="path14" />
        <path
           stroke-width="0.75"
           d="m 24.68,32.45 v 2.467"
           id="path15" />
        <path
           stroke-width="0.25"
           d="M 24.68,35.8 24.677,34.9192"
           id="path16" />
      </g>
      <g
         id="g24">
        <path
           fill="#d22f27"
           stroke="#d22f27"
           stroke-width="0.25"
           d="m 19.92,32.41 h 1.121"
           id="path17" />
        <path
           fill="#d22f27"
           stroke="#d22f27"
           stroke-width="0.25"
           d="m 20.48,31.97 -0.0072,1.703"
           id="path18" />
        <ellipse
           cx="20.41"
           cy="33.970001"
           rx="2.0550001"
           ry="0.87959999"
           fill="#5c9e31"
           id="ellipse18" />
        <path
           fill="none"
           stroke="#6a462f"
           stroke-width="0.5"
           d="m 20.4,37.42 0.0041,-2.621"
           id="path19" />
        <path
           fill="none"
           stroke="#6a462f"
           stroke-width="0.25"
           d="m 19.09,37.46 c 0.78,-0.4146 2.396,-0.662 2.793,0.04281"
           id="path20" />
        <path
           fill="none"
           stroke="#6a462f"
           stroke-width="0.25"
           d="m 19.72,37.56 c 0.5417,-0.6902 1.051,-0.5814 1.541,0.0046"
           id="path21" />
        <path
           fill="none"
           stroke="#6a462f"
           stroke-width="0.25"
           d="m 20.08,37.61 c 0.2027,-0.6282 0.4343,-0.8061 0.7338,0.07587"
           id="path22" />
        <path
           fill="none"
           stroke="#6a462f"
           stroke-width="0.25"
           d="m 19.6,37.29 c 0,0 0.6863,-0.06694 0.7817,-1.422"
           id="path23" />
        <path
           fill="none"
           stroke="#6a462f"
           stroke-width="0.25"
           d="m 21.17,37.29 c 0,0 -0.6863,-0.06694 -0.7817,-1.422"
           id="path24" />
      </g>
      <g
         transform="matrix(0.057,0,0,0.057,5,16.97)"
         fill="none"
         stroke="#000000"
         stroke-width="4.386"
         id="g29">
        <path
           d="m 222.6,369.1 -0.1219,-112.2 h 99.63 l 0.2451,112.4"
           id="path25" />
        <path
           d="m 321.9,369.1 -0.1212,-112.2 h 99.03 l 0.2432,112.4"
           id="path26" />
        <path
           d="m 222.5,368.8 198.5,0.4463 c 0,0 0.4326,42.17 -0.8206,56.79 -0.1258,16.96 -20.92,93.2 -100.5,93.18 -80.91,0.4457 -97.09,-68.64 -97.19,-97.2 -0.1016,-8.926 0,-53.22 0,-53.22 z"
           id="path27" />
        <path
           d="m 321.9,368.9 -0.0472,150.3"
           id="path28" />
        <path
           d="m 321.8,519.1 c -18.53,0.5525 -35.52,-2.348 -46.55,-8.381 -9.151,-5.002 -17.69,-9.355 -25.25,-17.87 -5.701,-6.421 -11.38,-13.95 -15.52,-21.82 -1.305,-2.481 -2.489,-5.035 -3.448,-7.645 -3.117,-8.483 -8.034,-22.24 -8.354,-37.11 -0.4922,-22.85 -0.2327,-48.43 -0.0754,-57.45 17.42,-0.01 99.2,0.158 99.2,0.158"
           id="path29" />
      </g>
      <g
         fill="#fcea2b"
         id="g37">
        <ellipse
           cx="21.799999"
           cy="27.860001"
           rx="0.74129999"
           ry="1.072"
           id="ellipse29" />
        <ellipse
           cx="18.76"
           cy="28.049999"
           rx="0.74129999"
           ry="1.072"
           id="ellipse30" />
        <ellipse
           cx="24.879999"
           cy="27.889999"
           rx="0.74129999"
           ry="1.072"
           id="ellipse31" />
        <ellipse
           cx="27.950001"
           cy="28.02"
           rx="0.74129999"
           ry="1.072"
           id="ellipse32" />
        <path
           stroke="#fcea2b"
           stroke-linecap="round"
           stroke-width="0.9523"
           d="M 17.36,28.89 V 26.479"
           id="path32" />
        <path
           stroke="#fcea2b"
           stroke-linecap="round"
           stroke-width="0.9934"
           d="M 20.29,28.53 V 26.029"
           id="path33" />
        <path
           stroke="#fcea2b"
           stroke-linecap="round"
           stroke-width="0.9908"
           d="M 23.33,28.53 V 25.919"
           id="path34" />
        <path
           stroke="#fcea2b"
           stroke-linecap="round"
           stroke-width="0.9794"
           d="M 26.43,28.63 V 26.069"
           id="path35" />
        <path
           stroke="#fcea2b"
           stroke-linecap="round"
           stroke-width="0.9626"
           d="M 29.31,28.83 V 26.243"
           id="path36" />
        <path
           stroke="#fcea2b"
           stroke-linecap="round"
           stroke-width="1"
           d="m 17.33,30.75 c 0,0 5.348,-0.9895 12.04,0.0056"
           id="path37" />
      </g>
    </g>
  </g>
  <g
     id="line"
     transform="translate(-4,-16)">
    <rect
       x="5"
       y="17"
       width="62"
       height="38"
       fill="none"
       stroke="#000000"
       stroke-linecap="round"
       stroke-linejoin="round"
       stroke-width="2"
       id="rect38" />
  </g>
</svg>
