<?xml version="1.0" encoding="UTF-8" standalone="no"?>
<svg
   id="emoji"
   viewBox="0 0 36.672897 48.959801"
   version="1.1"
   sodipodi:docname="1f3f3.svg"
   width="36.672897"
   height="48.959801"
   xmlns:inkscape="http://www.inkscape.org/namespaces/inkscape"
   xmlns:sodipodi="http://sodipodi.sourceforge.net/DTD/sodipodi-0.dtd"
   xmlns="http://www.w3.org/2000/svg"
   xmlns:svg="http://www.w3.org/2000/svg">
  <defs
     id="defs3" />
  <sodipodi:namedview
     id="namedview3"
     pagecolor="#ffffff"
     bordercolor="#000000"
     borderopacity="0.25"
     inkscape:showpageshadow="2"
     inkscape:pageopacity="0.0"
     inkscape:pagecheckerboard="0"
     inkscape:deskcolor="#d1d1d1" />
  <g
     id="color"
     transform="translate(-18.327101,-11.875)">
    <path
       fill="#ffffff"
       stroke="none"
       d="m 22.3025,17.488 c 2.958,-1.7983 8.6348,-4.2326 14.7802,-1.488 3.7823,1.6892 5.7769,4.6976 15.4209,4.1142 C 53.3121,20.0653 54,20.7109 54,21.5248 c 0,3.3025 0,11.1393 0,15.1253 0,0.6226 -0.4342,1.0771 -0.9892,1.354 C 51.0146,39 45.5555,38.939 37.0827,35 33.6323,33.3959 28.2956,32.4317 22.2589,36.4425"
       id="path1" />
    <path
       fill="#ffffff"
       stroke="none"
       stroke-linecap="round"
       stroke-linejoin="round"
       stroke-miterlimit="10"
       stroke-width="2"
       d="M 23.0844,17.488 C 25.9694,15.6897 31.5062,13.2554 37.5,16 c 3.689,1.6892 5.6344,4.6976 15.0405,4.1142 C 53.3291,20.0653 54,20.7109 54,21.5248 c 0,3.3025 0,11.1393 0,15.1253 0,0.6226 -0.4235,1.0771 -0.9648,1.354 C 51.0882,39 45.7637,38.939 37.5,35 34.1347,33.3959 28.9297,32.4317 23.0418,36.4425"
       id="path2" />
  </g>
  <g
     id="hair"
     transform="translate(-18.327101,-11.875)" />
  <g
     id="skin"
     transform="translate(-18.327101,-11.875)" />
  <g
     id="skin-shadow"
     transform="translate(-18.327101,-11.875)" />
  <g
     id="line"
     transform="translate(-18.327101,-11.875)">
    <path
       fill="none"
       stroke="#000000"
       stroke-linecap="round"
       stroke-linejoin="round"
       stroke-miterlimit="10"
       stroke-width="2"
       d="M 23.0844,17.488 C 25.9694,15.6897 31.5062,13.2554 37.5,16 c 3.689,1.6892 5.6344,4.6976 15.0405,4.1142 C 53.3291,20.0653 54,20.7109 54,21.5248 c 0,3.3025 0,11.1393 0,15.1253 0,0.6226 -0.4235,1.0771 -0.9648,1.354 C 51.0882,39 45.7637,38.939 37.5,35 34.1347,33.3959 28.9297,32.4317 23.0418,36.4425"
       id="path3" />
    <line
       x1="19.327101"
       x2="19.327101"
       y1="12.875"
       y2="59.834801"
       fill="none"
       stroke="#000000"
       stroke-linecap="round"
       stroke-miterlimit="10"
       stroke-width="2"
       id="line3" />
  </g>
</svg>
