<?xml version="1.0" encoding="UTF-8" standalone="no"?>
<svg
   id="emoji"
   viewBox="0 0 45.952885 45.852242"
   version="1.1"
   sodipodi:docname="1f3f9.svg"
   width="45.952885"
   height="45.852242"
   xmlns:inkscape="http://www.inkscape.org/namespaces/inkscape"
   xmlns:sodipodi="http://sodipodi.sourceforge.net/DTD/sodipodi-0.dtd"
   xmlns="http://www.w3.org/2000/svg"
   xmlns:svg="http://www.w3.org/2000/svg">
  <defs
     id="defs4" />
  <sodipodi:namedview
     id="namedview4"
     pagecolor="#ffffff"
     bordercolor="#000000"
     borderopacity="0.25"
     inkscape:showpageshadow="2"
     inkscape:pageopacity="0.0"
     inkscape:pagecheckerboard="0"
     inkscape:deskcolor="#d1d1d1" />
  <g
     id="color"
     transform="translate(-13.013115,-13.0638)">
    <g
       id="_1F3F9">
      <path
         fill="none"
         stroke="#a57939"
         stroke-linecap="round"
         stroke-linejoin="round"
         stroke-width="2.8"
         d="M 51.88,55.5863 A 27.0167,27.0167 0 0 0 16.3837,20.09"
         id="path1" />
      <path
         fill="#d22f27"
         d="m 31.1285,40.8418 -7.098,7.098 v 6.8521 a 0.6024,0.6024 0 0 0 1.0283,0.4259 l 5.8933,-5.8933 a 0.6027,0.6027 0 0 0 0.1764,-0.4259 z"
         id="path2" />
      <path
         fill="#ea5a47"
         d="m 31.1285,40.8418 -7.098,7.098 h -6.8521 a 0.6024,0.6024 0 0 1 -0.4259,-1.0283 l 5.8933,-5.8933 a 0.6027,0.6027 0 0 1 0.4259,-0.1764 z"
         id="path3" />
    </g>
  </g>
  <g
     id="line"
     transform="translate(-13.013115,-13.0638)">
    <g
       id="g4">
      <line
         x1="19.2278"
         x2="50.454201"
         y1="21.516701"
         y2="52.742401"
         fill="none"
         stroke="#000000"
         stroke-linecap="round"
         stroke-linejoin="round"
         stroke-width="2"
         id="line3" />
      <path
         fill="none"
         stroke="#000000"
         stroke-miterlimit="10"
         stroke-width="2"
         d="m 50.2183,57.2486 a 2.3515,2.3515 0 0 1 -0.4964,-2.5908 24.6677,24.6677 0 0 0 -32.41,-32.41 2.349304,2.349304 0 0 1 -1.8567,-4.3162 29.3663,29.3663 0 0 1 38.5829,38.5829 2.3526,2.3526 0 0 1 -3.82,0.7341 z"
         id="path4" />
      <line
         x1="57.966"
         x2="22.158199"
         y1="14.0638"
         y2="49.871601"
         fill="none"
         stroke="#000000"
         stroke-linecap="round"
         stroke-linejoin="round"
         stroke-width="2"
         id="line4" />
      <polyline
         fill="none"
         stroke="#000000"
         stroke-linecap="round"
         stroke-linejoin="round"
         stroke-width="2"
         points="52.596 14.064 57.966 14.064 57.966 19.153"
         id="polyline4" />
    </g>
  </g>
</svg>
