<svg xmlns="http://www.w3.org/2000/svg" xmlns:svg="http://www.w3.org/2000/svg" id="emoji" width="64" height="40" version="1.1" viewBox="0 0 64 40"><g id="line-supplement" fill="none" stroke="#000" stroke-linecap="round" transform="translate(-4,-16)"><g id="g15" stroke-width=".75" transform="translate(5.2)"><g id="g2" transform="translate(-0.9004)"><path id="path1" d="m 50.89,44.14 0.4246,1.381 h 3.504 l 0.336,-1.381"/><path id="path2" d="m 52.99,44.27 v 1.229"/></g><g id="g4" transform="translate(-6.169,2.403)"><path id="path3" d="m 50.89,44.14 0.4246,1.381 h 3.504 l 0.336,-1.381"/><path id="path4" d="m 52.99,44.27 v 1.229"/></g><g id="g6" transform="translate(-0.9544,2.403)"><path id="path5" d="m 50.89,44.14 0.4246,1.381 h 3.504 l 0.336,-1.381"/><path id="path6" d="m 52.99,44.27 v 1.229"/></g><g id="g8" transform="translate(-0.8852,7.151)"><path id="path7" d="m 50.89,44.14 0.4246,1.381 h 3.504 l 0.336,-1.381"/><path id="path8" d="m 52.99,44.27 v 1.229"/></g><g id="g10" transform="translate(-3.792,4.853)"><path id="path9" d="m 50.89,44.14 0.4246,1.381 h 3.504 l 0.336,-1.381"/><path id="path10" d="m 52.99,44.27 v 1.229"/></g><g id="g12" transform="translate(4.26,2.403)"><path id="path11" d="m 50.89,44.14 0.4246,1.381 h 3.504 l 0.336,-1.381"/><path id="path12" d="m 52.99,44.27 v 1.229"/></g><g id="g14" transform="translate(1.922,4.853)"><path id="path13" d="m 50.89,44.14 0.4246,1.381 h 3.504 l 0.336,-1.381"/><path id="path14" d="m 52.99,44.27 v 1.229"/></g></g><g id="g40" transform="translate(0,1)"><g id="g19"><path id="path15" stroke-width="1" d="m 8.613,25.61 c 0,0 1.511,-7.361 3.138,7.6e-5"/><path id="path16" stroke-width=".999" d="m 10.18,18.58 0.0049,2.448"/><path id="path17" stroke-width=".924" d="m 8.909,19.01 v 2.077"/><path id="path18" stroke-width=".928" d="m 11.46,19 v 2.099"/><path id="path19" stroke-width="1" d="M 8.544,21.09 H 11.83"/></g><g id="g24" transform="translate(5.509,-0.1145)"><path id="path20" stroke-width="1" d="m 8.613,25.61 c 0,0 1.511,-7.361 3.138,7.6e-5"/><path id="path21" stroke-width=".999" d="m 10.18,18.58 0.0049,2.448"/><path id="path22" stroke-width=".924" d="m 8.909,19.01 v 2.077"/><path id="path23" stroke-width=".928" d="m 11.46,19 v 2.099"/><path id="path24" stroke-width="1" d="M 8.544,21.09 H 11.83"/></g><g id="g29" transform="translate(5.509,-0.1145)"><path id="path25" stroke-width="1" d="m 8.613,25.61 c 0,0 1.511,-7.361 3.138,7.6e-5"/><path id="path26" stroke-width=".999" d="m 10.18,18.58 0.0049,2.448"/><path id="path27" stroke-width=".924" d="m 8.909,19.01 v 2.077"/><path id="path28" stroke-width=".928" d="m 11.46,19 v 2.099"/><path id="path29" stroke-width="1" d="M 8.544,21.09 H 11.83"/></g><g id="g34" transform="translate(0.0215,8.033)"><path id="path30" stroke-width="1" d="m 8.613,25.61 c 0,0 1.511,-7.361 3.138,7.6e-5"/><path id="path31" stroke-width=".999" d="m 10.18,18.58 0.0049,2.448"/><path id="path32" stroke-width=".924" d="m 8.909,19.01 v 2.077"/><path id="path33" stroke-width=".928" d="m 11.46,19 v 2.099"/><path id="path34" stroke-width="1" d="M 8.544,21.09 H 11.83"/></g><g id="g39" transform="translate(5.509,7.919)"><path id="path35" stroke-width="1" d="m 8.613,25.61 c 0,0 1.511,-7.361 3.138,7.6e-5"/><path id="path36" stroke-width=".999" d="m 10.18,18.58 0.0049,2.448"/><path id="path37" stroke-width=".924" d="m 8.909,19.01 v 2.077"/><path id="path38" stroke-width=".928" d="m 11.46,19 v 2.099"/><path id="path39" stroke-width="1" d="M 8.544,21.09 H 11.83"/></g></g></g><g id="color" transform="translate(-4,-16)"><rect id="rect40" width="62" height="38" x="5" y="17" fill="#781e32"/><g id="g54" fill="none" stroke="#fcea2b" stroke-linecap="round" stroke-width=".75" transform="translate(5.2)"><g id="g41" transform="translate(-0.9004)"><path id="path40" d="m 50.89,44.14 0.4246,1.381 h 3.504 l 0.336,-1.381"/><path id="path41" d="m 52.99,44.27 v 1.229"/></g><g id="g43" transform="translate(-6.169,2.403)"><path id="path42" d="m 50.89,44.14 0.4246,1.381 h 3.504 l 0.336,-1.381"/><path id="path43" d="m 52.99,44.27 v 1.229"/></g><g id="g45" transform="translate(-0.9544,2.403)"><path id="path44" d="m 50.89,44.14 0.4246,1.381 h 3.504 l 0.336,-1.381"/><path id="path45" d="m 52.99,44.27 v 1.229"/></g><g id="g47" transform="translate(-0.8852,7.151)"><path id="path46" d="m 50.89,44.14 0.4246,1.381 h 3.504 l 0.336,-1.381"/><path id="path47" d="m 52.99,44.27 v 1.229"/></g><g id="g49" transform="translate(-3.792,4.853)"><path id="path48" d="m 50.89,44.14 0.4246,1.381 h 3.504 l 0.336,-1.381"/><path id="path49" d="m 52.99,44.27 v 1.229"/></g><g id="g51" transform="translate(4.26,2.403)"><path id="path50" d="m 50.89,44.14 0.4246,1.381 h 3.504 l 0.336,-1.381"/><path id="path51" d="m 52.99,44.27 v 1.229"/></g><g id="g53" transform="translate(1.922,4.853)"><path id="path52" d="m 50.89,44.14 0.4246,1.381 h 3.504 l 0.336,-1.381"/><path id="path53" d="m 52.99,44.27 v 1.229"/></g></g><g id="g79" fill="none" stroke="#fcea2b" stroke-linecap="round" transform="translate(0,1)"><g id="g58"><path id="path54" stroke-width="1" d="m 8.613,25.61 c 0,0 1.511,-7.361 3.138,7.6e-5"/><path id="path55" stroke-width=".999" d="m 10.18,18.58 0.0049,2.448"/><path id="path56" stroke-width=".924" d="m 8.909,19.01 v 2.077"/><path id="path57" stroke-width=".928" d="m 11.46,19 v 2.099"/><path id="path58" stroke-width="1" d="M 8.544,21.09 H 11.83"/></g><g id="g63" transform="translate(5.509,-0.1145)"><path id="path59" stroke-width="1" d="m 8.613,25.61 c 0,0 1.511,-7.361 3.138,7.6e-5"/><path id="path60" stroke-width=".999" d="m 10.18,18.58 0.0049,2.448"/><path id="path61" stroke-width=".924" d="m 8.909,19.01 v 2.077"/><path id="path62" stroke-width=".928" d="m 11.46,19 v 2.099"/><path id="path63" stroke-width="1" d="M 8.544,21.09 H 11.83"/></g><g id="g68" transform="translate(5.509,-0.1145)"><path id="path64" stroke-width="1" d="m 8.613,25.61 c 0,0 1.511,-7.361 3.138,7.6e-5"/><path id="path65" stroke-width=".999" d="m 10.18,18.58 0.0049,2.448"/><path id="path66" stroke-width=".924" d="m 8.909,19.01 v 2.077"/><path id="path67" stroke-width=".928" d="m 11.46,19 v 2.099"/><path id="path68" stroke-width="1" d="M 8.544,21.09 H 11.83"/></g><g id="g73" transform="translate(0.0215,8.033)"><path id="path69" stroke-width="1" d="m 8.613,25.61 c 0,0 1.511,-7.361 3.138,7.6e-5"/><path id="path70" stroke-width=".999" d="m 10.18,18.58 0.0049,2.448"/><path id="path71" stroke-width=".924" d="m 8.909,19.01 v 2.077"/><path id="path72" stroke-width=".928" d="m 11.46,19 v 2.099"/><path id="path73" stroke-width="1" d="M 8.544,21.09 H 11.83"/></g><g id="g78" transform="translate(5.509,7.919)"><path id="path74" stroke-width="1" d="m 8.613,25.61 c 0,0 1.511,-7.361 3.138,7.6e-5"/><path id="path75" stroke-width=".999" d="m 10.18,18.58 0.0049,2.448"/><path id="path76" stroke-width=".924" d="m 8.909,19.01 v 2.077"/><path id="path77" stroke-width=".928" d="m 11.46,19 v 2.099"/><path id="path78" stroke-width="1" d="M 8.544,21.09 H 11.83"/></g></g></g><g id="line" transform="translate(-4,-16)"><rect id="rect79" width="62" height="38" x="5" y="17" fill="none" stroke="#000" stroke-linecap="round" stroke-linejoin="round" stroke-width="2"/></g></svg>