<?xml version="1.0" encoding="UTF-8" standalone="no"?>
<svg
   id="emoji"
   viewBox="0 0 51.420372 48.073307"
   version="1.1"
   sodipodi:docname="1f40d.svg"
   width="51.420372"
   height="48.073307"
   xmlns:inkscape="http://www.inkscape.org/namespaces/inkscape"
   xmlns:sodipodi="http://sodipodi.sourceforge.net/DTD/sodipodi-0.dtd"
   xmlns="http://www.w3.org/2000/svg"
   xmlns:svg="http://www.w3.org/2000/svg">
  <defs
     id="defs6" />
  <sodipodi:namedview
     id="namedview6"
     pagecolor="#ffffff"
     bordercolor="#000000"
     borderopacity="0.25"
     inkscape:showpageshadow="2"
     inkscape:pageopacity="0.0"
     inkscape:pagecheckerboard="0"
     inkscape:deskcolor="#d1d1d1" />
  <g
     id="color"
     transform="translate(-10.244927,-12.905)">
    <path
       fill="#5c9e31"
       d="m 12.593,49.1734 v 0 c 0.2127,-0.5316 0.5196,-1.0205 0.9061,-1.4429 l 1.4879,-1.6263 c 0.4066,-0.4445 0.8941,-0.8075 1.4363,-1.0699 l 2.1386,-1.0348 c 0.6035,-0.292 1.262,-0.453 1.9322,-0.4725 l 3.0016,-0.087 c 0.1956,-0.0057 0.3914,7e-4 0.5862,0.0192 l 3.9809,0.7126 c 0.5132,0.0486 1.84,0.5159 2.3108,0.7257 l 18.108,7.4056 c 0.0918,0.0409 0.1823,0.0847 0.2714,0.1314 l 9.5364,4.997 -0.25,1.188 -13.0703,1.0938 c -0.785,0.0543 -5.7972,0.1295 -6.8354,0.1311 l -9.0073,0.1189 c -3.732,0.173 -6.8399,0.2365 -9.9432,-1.8437 L 14.3591,54.886 c -1.863,-1.2488 -2.5993,-3.63 -1.7663,-5.7124 z"
       id="path1" />
    <path
       fill="#b1cc33"
       d="m 18.4553,50.754 c 0.006,0.548 0.452,0.989 1,0.989 h 0.011 l 1.132,-0.014 c 3.9774,0.0945 7.93,-0.6507 11.6,-2.187 8.23,-3.493 4.665,-25.974 4.157,-28.931 v -0.133 c 0.0039,-3.0745 2.4955,-5.5657 5.57,-5.569 3.4,0 7.962,2.765 7.962,5.592 0,3.252 -6.458,3.5 -6.523,3.5 -0.5521,0.0125 -0.9896,0.4702 -0.9771,1.0224 0.0014,0.0631 0.0088,0.1259 0.0221,0.1876 3.074,14.237 1.364,29.705 -2.2,31.3 -5.617,2.519 -16.071,2.844 -23.41,2.081 -1.858,-0.193 -3.148,-0.744 -3.833,-1.637 -0.7,-0.916 -0.881,-2.275 -0.561,-4.279 0.005,-0.032 -0.006,-0.061 0,-0.092"
       id="path2" />
  </g>
  <g
     id="line"
     transform="translate(-10.244927,-12.905)">
    <path
       fill="none"
       stroke="#000000"
       stroke-linecap="round"
       stroke-linejoin="round"
       stroke-width="2"
       d="m 44.9693,59 c 2.194,0.007 9.422,-0.092 12.491,-0.183 0.6551,-0.0245 1.1663,-0.5754 1.1418,-1.2305 -0.016,-0.4279 -0.2613,-0.8141 -0.6418,-1.0105 l -9.472,-3.638"
       id="path3" />
    <path
       fill="none"
       stroke="#000000"
       stroke-linecap="round"
       stroke-linejoin="round"
       stroke-width="2"
       d="m 19.4543,50.74 c 0.368,-0.004 0.7433,-0.0087 1.126,-0.014 3.8491,0.1018 7.6758,-0.6165 11.226,-2.107 7.82,-3.319 3.549,-27.92 3.549,-27.92 v -0.224 c 0,-3.6285 2.9415,-6.57 6.57,-6.57 v 0 c 3.628,0 8.962,2.964 8.962,6.592 0,4.333 -7.5,4.5 -7.5,4.5 2.935,13.6 1.708,30.419 -2.772,32.428 -5.794,2.6 -16.262,2.959 -23.923,2.163 -5.217,-0.542 -5.83,-3.608 -5.278,-7.068"
       id="path4" />
    <path
       fill="none"
       stroke="#000000"
       stroke-linecap="round"
       stroke-linejoin="round"
       stroke-width="2"
       d="m 29.6873,44.563 c -13.331,-5.972 -18.322,6.062 -18.275,7.957"
       id="path5" />
    <path
       fill="none"
       stroke="#000000"
       stroke-linecap="round"
       stroke-miterlimit="10"
       stroke-width="2"
       d="m 48.7393,24.452 c 0,0 3.793,4.054 7.585,4.577"
       id="path6" />
    <polyline
       fill="none"
       stroke="#000000"
       stroke-linecap="round"
       stroke-miterlimit="10"
       stroke-width="2"
       points="56.8733 33.606 55.8273 29.029 60.6653 26.806"
       id="polyline6" />
  </g>
</svg>
