<?xml version="1.0" encoding="UTF-8" standalone="no"?>
<svg
   id="emoji"
   viewBox="0 0 61.768135 51.352825"
   version="1.1"
   sodipodi:docname="1f40f.svg"
   width="61.768135"
   height="51.352825"
   xmlns:inkscape="http://www.inkscape.org/namespaces/inkscape"
   xmlns:sodipodi="http://sodipodi.sourceforge.net/DTD/sodipodi-0.dtd"
   xmlns="http://www.w3.org/2000/svg"
   xmlns:svg="http://www.w3.org/2000/svg">
  <defs
     id="defs7" />
  <sodipodi:namedview
     id="namedview7"
     pagecolor="#ffffff"
     bordercolor="#000000"
     borderopacity="0.25"
     inkscape:showpageshadow="2"
     inkscape:pageopacity="0.0"
     inkscape:pagecheckerboard="0"
     inkscape:deskcolor="#d1d1d1" />
  <g
     id="color"
     transform="translate(-5.6163653,-12.159774)">
    <path
       fill="#d0cfce"
       d="m 27.1076,20.1271 c 0.0532,1.1599 0.4684,2.2753 1.2138,3.1655 0.5807,0.6935 1.3738,1.5016 2.3584,2.183 1.0424,0.7214 3.3369,1.3232 5.4995,1.7614 2.9265,0.593 5.9471,0.5184 8.8446,-0.2032 l 1.1341,-0.2824 c 3.2698,-0.8144 6.7446,-0.5531 9.7862,0.8974 0.7691,0.3668 1.4156,0.7658 1.7721,1.1778 1.3395,1.5479 7.178,6.2112 1.2949,13.7981 -0.8458,1.0907 -1.2604,2.4585 -1.2101,3.8379 l 0.1444,3.9683 c 0.0089,0.2455 0.0084,0.295 0.0057,0.3518 l -0.4741,10.0551 c -0.0237,0.5017 -0.2272,0.9805 -0.5826,1.3353 -0.3093,0.3088 -0.6744,0.6223 -0.8813,0.6223 -0.2049,0 -0.9153,-0.3074 -1.5712,-0.6132 -0.7545,-0.3517 -1.2165,-1.1297 -1.1711,-1.9609 l 0.1882,-3.4463 c 0.0361,-0.6602 0.0119,-1.3223 -0.0722,-1.9781 l -0.1096,-0.855 C 53.1577,53.0093 52.879,52.1042 52.4532,51.2659 L 51.2114,48.821 c -0.5147,-1.0133 -1.2449,-1.9018 -2.1392,-2.6032 v 0 c -0.5504,-0.4316 -1.2814,-0.5531 -1.9406,-0.3191 -1.138,0.4041 -2.8567,0.9053 -3.2849,0.9678 -0.6171,0.0902 -7.1254,0.3638 -7.9218,0.4112 -0.0607,0.0036 -0.1052,0.0042 -0.1659,0.0019 -0.2983,-0.0113 -1.3242,-0.0608 -2.3235,-0.2359 -1.0815,-0.1894 -2.1125,0.5364 -2.329,1.6127 l -2.1778,10.8231 c -0.1178,0.5854 -0.4857,1.09 -1.0071,1.3811 v 0 c -0.5539,0.3093 -1.2199,0.3438 -1.8028,0.0935 L 25.853,60.8399 c -0.7917,-0.34 -1.2851,-1.1401 -1.2334,-2.0002 l 0.5694,-9.4858 c 0.0492,-0.8197 -0.0391,-1.6419 -0.2612,-2.4325 v 0 C 24.7163,46.1687 24.1162,45.5563 23.346,45.4218 21.0988,45.0292 19.6031,43.4566 18.5967,41.1157 L 16.9859,37.7084 C 15.8385,35.2812 14.9834,32.7263 14.4386,30.0973 L 14.4297,30.0542 C 14.2759,29.3121 13.7241,28.7161 12.9961,28.5057 L 9.4943,27.4935 c -0.937,-0.2708 -1.7074,-0.94 -2.1068,-1.8298 l -0.307,-0.684 C 6.6647,24.0532 6.9923,22.9619 7.8497,22.4176 l 2.7764,-1.7625 c 0.1521,-0.0965 0.2907,-0.2127 0.4123,-0.3456 l 0.5933,-0.6483 c 0.5724,-0.6254 1.1793,-1.2184 1.8178,-1.7762 l 2.0876,-1.8236 c 0.0869,-0.0759 0.1674,-0.1574 0.2393,-0.2477 0.5304,-0.6659 3.2673,-3.8375 6.0519,-2.1553 1.307,0.7896 2.431,1.6488 3.2941,2.3786 1.2066,1.0203 1.9129,2.5111 1.9854,4.0896 v 0 z"
       id="path1" />
    <path
       fill="#a57939"
       d="m 16.7078,19.0282 c 0.572,0.2029 1.3463,0.2985 2.3943,0.1877 0.155,-0.0164 0.3105,-0.0685 0.4457,-0.1459 l 1.142,-0.6538 c 0.3263,-0.1868 0.7247,-0.197 1.0601,-0.027 v 0 c 0.3756,0.1903 0.6124,0.5756 0.6124,0.9967 v 0.8509 c 0,0.2514 -0.0848,0.4954 -0.2406,0.6926 l -0.6343,0.8029 c -0.2722,0.3445 -0.7209,0.4977 -1.1469,0.3916 L 18.8249,21.7463 C 18.5011,21.6656 18.169,21.6231 17.8354,21.6197 l -1.7783,-0.0182 -0.192,0.6598 c -0.0985,0.3384 -0.0668,0.7013 0.0887,1.0175 l 0.377,0.7664 c 0.1481,0.301 0.3325,0.5827 0.549,0.8388 v 0 c 0.7659,0.9058 1.8919,1.4283 3.0781,1.4283 v 0 c 0.5845,0 1.1672,-0.0658 1.737,-0.1961 l 1.2577,-0.2877 c 0.9161,-0.2095 1.7412,-0.7066 2.3547,-1.4185 l 0.7725,-0.8964 c 0.5873,-0.6816 0.9968,-1.4979 1.1918,-2.3763 l 0.1102,-0.4962 c 0.1398,-0.6297 0.1587,-1.2802 0.0556,-1.9169 l -0.158,-0.9759 C 27.1543,16.9754 26.8003,16.2577 26.2632,15.688 l -0.137,-0.1453 c -0.7231,-0.7669 -1.6235,-1.3445 -2.622,-1.6819 l -0.8615,-0.2911 c -0.6523,-0.2204 -1.3442,-0.2986 -2.0292,-0.2293 l -0.5062,0.0512 c -1.0812,0.1093 -2.0898,0.5941 -2.8506,1.3701 l -1.2294,1.2539 c -0.9351,0.9538 -0.5786,2.566 0.6803,3.0125 z"
       id="path2" />
    <path
       fill="#ffffff"
       d="m 23.2296,27.0112 c -0.5137,1.2258 -2.0585,3.7445 -6.3283,4.9154 -0.7337,0.2012 -1.1482,0.9773 -0.8764,1.6879 0.6585,1.7213 1.7245,4.5078 1.9142,5.0037 0.0177,0.0462 0.0371,0.1154 0.0495,0.1633 0.1766,0.6797 1.3558,4.2628 2.1868,4.3646 0.5243,0.0642 1.9954,1.3713 3.2146,1.8654 0.9291,0.3765 1.967,0.384 2.8923,-0.0018 1.0534,-0.4392 2.6326,-0.8877 4.3027,-0.6123 0.8377,0.1381 1.5633,-0.5929 1.4503,-1.4344 v 0 c -0.1219,-0.9078 0.4322,-1.7707 1.312,-2.0258 2.5779,-0.7472 7.9795,-1.7952 12.5317,0.7329 1.3906,0.7723 2.9845,1.1576 4.5649,0.9766 1.6311,-0.1867 3.8128,0.0207 5.5861,1.8072 0.7878,0.7936 2.1333,0.3286 2.2098,-0.787 v -0.0012 c 0.0186,-0.2703 0.1224,-0.5277 0.2965,-0.7353 l 1.7245,-2.0566 c 0.8796,-1.049 1.3617,-2.3742 1.3617,-3.7432 v 0 c 0,-1.6474 -0.3869,-3.2718 -1.1295,-4.7424 L 60.0152,31.442 C 59.5984,30.6166 59.0234,29.8812 58.323,29.2776 l -0.6445,-0.5554 c -0.931,-0.8023 -2.2186,-1.5536 -3.0129,-1.9847 -0.607,-0.3295 -1.2724,-0.5272 -1.9602,-0.5901 -0.9202,-0.0842 -2.1045,-0.1147 -2.9719,-0.1252 -0.76,-0.0092 -1.5102,0.1034 -2.2475,0.2879 -1.2972,0.3245 -2.6175,0.5515 -3.9497,0.6788 l -0.7726,0.0738 c -1.546,0.1478 -3.1026,0.1486 -4.6487,0.0024 l -0.2774,-0.0262 c -1.3393,-0.1266 -2.644,-0.4975 -3.8496,-1.0943 l -2.5668,-1.2707 c -0.5704,-0.2823 -1.1227,-0.5997 -1.6539,-0.9501 l -1.0947,-0.7222 c -0.582,-0.384 -1.3616,-0.2345 -1.7573,0.3395 -0.7295,1.0581 -1.9214,2.5801 -2.9395,2.9139 -0.3513,0.1152 -0.6029,0.4154 -0.7458,0.7563 z"
       id="path3" />
  </g>
  <g
     id="line"
     transform="translate(-5.6163653,-12.159774)">
    <path
       fill="none"
       stroke="#000000"
       stroke-linecap="round"
       stroke-linejoin="round"
       stroke-width="2"
       d="m 30.5646,25.1929 0.5192,0.26 c 0,0 8.4026,3.5753 16.954,0.7563 0,0 8.1052,-2.4752 12.2693,5.5005 2.7067,5.1842 0.6735,8.54 -1.0813,10.2539 -1.0828,1.0576 -1.6594,2.5275 -1.4654,4.0286 l 0.4646,3.5942 -0.3795,10.9952 c -0.0372,1.0771 -0.9211,1.931 -1.9988,1.931 h -0.5794 c -1.1966,0 -2.1254,-1.0437 -1.9865,-2.2323 l 0.2318,-5.4098 c 0.073,-1.7043 -0.3885,-3.3889 -1.32,-4.818 l -3.4857,-5.3479 c 0,0 -2.8257,-5.1567 -0.5205,-8.8008"
       id="path4" />
    <path
       fill="none"
       stroke="#000000"
       stroke-linecap="round"
       stroke-linejoin="round"
       stroke-width="2"
       d="m 36.0861,46.1265 c 3.5312,0.4581 9.2266,0.9151 11.6542,-0.4592"
       id="path5" />
    <path
       fill="none"
       stroke="#000000"
       stroke-linecap="round"
       stroke-linejoin="round"
       stroke-width="2"
       d="m 63.0383,28.9594 c 0,0 3.1975,0.1375 3.3462,4.813"
       id="path6" />
    <path
       fill="none"
       stroke="#000000"
       stroke-linecap="round"
       stroke-linejoin="round"
       stroke-width="2"
       d="m 19.5581,18.2215 c 0,0 2.7513,-1.3862 3.0487,1.3862 0.1487,1.3862 -0.6784,1.9951 -1.3481,2.5483 -0.9896,0.8174 -3.3808,0.0229 -4.7505,-0.5393 -0.4961,-0.2036 -1.0303,0.234 -0.912,0.757 0.352,1.5559 1.5637,3.7142 4.2163,4.1262 6.4375,1 11.0482,-7.7853 4.8764,-11.9107 -6.7203,-4.492 -9.7411,2.6815 -9.7411,2.6815 l -2.7362,1.4439 -1.1154,1.5126 c 0,0 -6.0962,1.6336 -4.0962,4.9394 l 1.75,2.25 4.1958,0.3953 c 1.136,0.107 2.0137,1.0444 2.0459,2.185 l 1.028,4.5431 3.6444,7.767 c 0.504,1.0741 1.4088,1.9079 2.5204,2.3226 l 2.7982,1.044 c 0.4563,1.1771 0.7472,2.1251 0.7472,2.1251 L 24.5526,58.857 c -0.1258,1.1817 0.8004,2.2117 1.9888,2.2117 h 0.7429 c 0.9595,0 1.7838,-0.6814 1.9643,-1.6237 l 2.7706,-14.4637 c 0.0701,-0.3659 0.0872,-0.7399 0.0507,-1.1106 L 31.53,38.3791"
       id="path7" />
  </g>
</svg>
