<svg xmlns="http://www.w3.org/2000/svg" xmlns:svg="http://www.w3.org/2000/svg" id="emoji" width="52.519" height="32.687" version="1.1" viewBox="0 0 52.519 32.687"><g id="color" transform="translate(-10,-24)"><path id="path1" fill="#6a462f" stroke="#6a462f" stroke-miterlimit="10" stroke-width="2" d="m 23,39 c 2.2654,-7.9289 10,-3 10,-3 6,5 1,15 -8,13 -9,-2 -9,-12 -6,-17 3,-5 14,-9 21,-1 1.8184,2.0781 2,6 1,14 l -1,5 -9,1"/><path id="path2" fill="#a57939" stroke="none" d="m 11,54 c 18.4032,1.6003 30.4041,0.9994 34.4661,0.2956 0.9792,-0.1697 1.901,-0.575 2.6746,-1.1989 C 64.912,39.5719 63,31 58,30 54.8991,29.3798 48.8485,40.3756 46,44 c -1.5905,2.0237 -5,4 -9,4"/></g><g id="line" transform="translate(-10,-24)"><line id="line2" x1="55" x2="57" y1="27" y2="30" fill="none" stroke="#000" stroke-linecap="round" stroke-linejoin="round" stroke-miterlimit="10" stroke-width="2"/><line id="line3" x1="58.833" x2="61" y1="29.333" y2="25" fill="none" stroke="#000" stroke-linecap="round" stroke-linejoin="round" stroke-miterlimit="10" stroke-width="2"/><path id="path3" fill="none" stroke="#000" stroke-linecap="round" stroke-linejoin="round" stroke-miterlimit="10" stroke-width="2" d="m 23.0007,39 c 2.2654,-7.9289 10,-3 10,-3 6,5 1,15 -8,13 -9,-2 -9,-12 -6,-17 3,-5 14,-9 21,-1 1.8184,2.0781 3,5 1,12"/><path id="path4" fill="none" stroke="#000" stroke-linecap="round" stroke-linejoin="round" stroke-miterlimit="10" stroke-width="2" d="m 11,55 c 18.4032,1.6003 30.4041,-6e-4 34.4661,-0.7044 0.9792,-0.1697 1.901,-0.575 2.6746,-1.1989 C 64.912,39.5719 63,31 58,30 54.8991,29.3798 48.8485,40.3756 46,44 c -1.5905,2.0237 -5,5 -9,5"/></g></svg>