<?xml version="1.0" encoding="UTF-8" standalone="no"?>
<svg
   id="emoji"
   viewBox="0 0 63.428665 41.793385"
   version="1.1"
   sodipodi:docname="1f400.svg"
   width="63.428665"
   height="41.793385"
   xmlns:inkscape="http://www.inkscape.org/namespaces/inkscape"
   xmlns:sodipodi="http://sodipodi.sourceforge.net/DTD/sodipodi-0.dtd"
   xmlns="http://www.w3.org/2000/svg"
   xmlns:svg="http://www.w3.org/2000/svg">
  <defs
     id="defs6" />
  <sodipodi:namedview
     id="namedview6"
     pagecolor="#ffffff"
     bordercolor="#000000"
     borderopacity="0.25"
     inkscape:showpageshadow="2"
     inkscape:pageopacity="0.0"
     inkscape:pagecheckerboard="0"
     inkscape:deskcolor="#d1d1d1" />
  <g
     id="color"
     transform="translate(-4.5462153,-21.544814)">
    <path
       fill="#ffa7c0"
       d="m 66.4474,42.6927 c 0.1302,1.5025 -3.1506,5.5731 -4.3616,7.1622 -0.369,0.4842 -0.6417,1.037 -0.7606,1.634 -0.3227,1.6203 -1.6193,5.2049 -6.7964,5.8764 -1.2259,0.159 -2.4689,0.0698 -3.6829,-0.1633 -6.0074,-1.1533 -31.286,-5.3218 -40.6398,4.1455 -0.2722,0.2755 0.0033,0.7386 0.3735,0.6246 1.2098,-0.3724 2.6523,-1.6478 4.572,-2.2387 4.2443,-1.3066 8.652,-2.0074 13.0922,-2.0817 l 5.1721,-0.0865 c 2.7337,-0.0457 5.4664,0.1391 8.1691,0.5523 l 8.9224,1.3643 c 3.104,0.4746 6.2784,0.1093 9.1934,-1.058 v 0 c 1.833,-0.734 2.9232,-2.0829 4.2654,-3.5311 v 0 c 0.9559,-1.0314 1.6552,-2.372 2.2024,-3.7737 0.4395,-1.1259 0.9156,-2.2944 0.8831,-3.5027 l -0.1019,-1.242 c -0.1643,-1.7028 -0.1471,-2.6436 -0.5024,-3.6818"
       id="path1" />
    <path
       fill="#9b9b9a"
       d="m 66.3401,42.2902 -0.5705,-1.7515 c -0.8069,-2.477 -2.0566,-4.7869 -3.6885,-6.8175 v 0 c -2.1577,-2.6849 -4.9158,-4.8254 -8.0522,-6.2493 v 0 c -2,-0.908 -4.1456,-1.4533 -6.3364,-1.6104 L 46.9438,25.8078 C 45.0229,25.67 43.0922,25.7909 41.2034,26.1671 l -4.197,0.8359 c -0.5811,0.1157 -1.1721,0.174 -1.7646,0.174 h -4.2744 c -0.8295,0 -1.6542,-0.1257 -2.446,-0.3729 L 26.4486,26.157 c -0.6014,-0.1877 -1.0434,-0.7016 -1.1391,-1.3243 l -0.07,-0.4556 c -0.1811,-1.1779 -1.4226,-1.8706 -2.52,-1.4058 v 0 c -0.59,0.2498 -1.1207,0.621 -1.5578,1.0895 l -0.869,0.9315 c -0.2377,0.2548 -0.55,0.4278 -0.8921,0.4942 L 14.8479,26.37 c -0.7965,0.1546 -1.5775,0.3809 -2.3332,0.6762 l -4.6089,1.8009 c -1.1067,0.4324 -1.6358,1.695 -1.168,2.7872 v 0 c 0.2402,0.5608 0.6501,1.0323 1.172,1.3481 l 2.8995,1.7544 1.055,0.6039 c 1.4351,0.8216 3.0486,1.2815 4.7012,1.34 l 2.0596,0.073 c 0.6614,0.0234 1.2448,0.4399 1.482,1.0578 l 0.346,0.9016 c 0.3954,1.0304 0.9386,1.9977 1.6125,2.8717 l 1.4174,1.8381 c 0.067,0.0869 0.1252,0.1802 0.1736,0.2786 l 0.5622,1.1417 c 0.2109,0.4282 0.2259,0.9268 0.0413,1.367 l -2.1861,5.2121 c -0.1603,0.3823 -0.1709,0.8109 -0.0296,1.2006 l 0.1364,0.3761 c 0.2998,0.8268 1.1955,1.2731 2.0361,1.0146 l 0.7701,-0.2368 c 0.2264,-0.0696 0.4351,-0.1872 0.6121,-0.3447 l 6.6257,-5.8986 c 0.5857,-0.5215 1.4526,-0.5613 2.0801,-0.0909 0.8966,0.6721 2.3588,1.5759 4.2621,2.0942 0.9492,0.2585 1.458,1.2916 1.0888,2.2035 v 0 c -0.1976,0.4881 -0.1504,1.0412 0.1271,1.4887 l 0.03,0.0483 c 0.3585,0.5781 1.035,0.8769 1.7038,0.7526 l 1.9176,-0.3565 c 0.1456,-0.0271 0.2869,-0.0736 0.4201,-0.1384 l 2.2561,-1.0974 c 0.3589,-0.1746 0.7688,-0.2131 1.154,-0.1086 l 3.846,1.0441 c 0.0831,0.0226 0.169,0.04 0.2544,0.051 4.1119,0.5289 7.8084,-0.2504 10.9348,-2.8238 1.1127,-0.8062 2.2884,-1.5596 2.9187,-2.6834 1.2842,-2.2898 1.5018,-4.6184 1.1219,-5.6267 z"
       id="path2" />
  </g>
  <g
     id="line"
     transform="translate(-4.5462153,-21.544814)">
    <path
       fill="none"
       stroke="#000000"
       stroke-linecap="round"
       stroke-linejoin="round"
       stroke-width="2"
       d="m 19.927,36.0341 c -6.75,2.4057 -9.6365,-1.2167 -9.6365,-1.2167 -3.0683,0 -4.2715,-2.4868 -4.6998,-3.8443 -0.1516,-0.4805 0.0785,-0.9949 0.5357,-1.2065 l 6.2553,-2.895 c 0.9073,-0.4199 1.8704,-0.7067 2.8596,-0.8514 l 4.1816,-0.6119 c 0,0 5.1722,-6.4608 5.5874,0.0426 0,0 0.3333,5.6667 -2.8199,4.4545"
       id="path3" />
    <path
       fill="none"
       stroke="#000000"
       stroke-linecap="round"
       stroke-linejoin="round"
       stroke-width="2"
       d="m 32.499,35.6476 c 2.4907,3.5284 0,11.0005 0,11.0005 l -7.9635,7.0895 c -0.4845,0.4893 -1.1866,0.6949 -1.8585,0.5443 l -0.0865,-0.0194 c -1.2654,-0.2836 -1.9277,-1.6753 -1.3501,-2.8363 1.4782,-2.9711 2.818,-6.6461 2.818,-6.6461 -1.4108,-0.7054 -2.209,-2.6946 -2.9129,-4.8293"
       id="path4" />
    <path
       fill="none"
       stroke="#000000"
       stroke-linecap="round"
       stroke-linejoin="round"
       stroke-width="2"
       d="M 10.3333,62.3382 C 23.8333,54.9434 40.5,58.375 52.6769,60.1174 61.0111,61.2897 71.5937,53.7561 64.8545,39.8448 56.0822,20.0743 38.5872,26.2384 35.8198,27.2762 33.0524,28.314 25.0103,25.4508 25.0103,25.4508"
       id="path5" />
    <path
       fill="none"
       stroke="#000000"
       stroke-linecap="round"
       stroke-linejoin="round"
       stroke-width="2"
       d="m 60.677,50.375 c -5.302,6.375 -14.5356,1.7219 -14.5356,1.7219 0,0 -4.7982,2.4447 -5.4176,2.4447 h -0.1645 c -1.5297,0 -2.4931,-1.6473 -1.7431,-2.9805 l 2.3608,-4.777 c -5.6878,-8.5793 6.2429,-12.9353 6.2429,-12.9353"
       id="path6" />
  </g>
</svg>
