<?xml version="1.0" encoding="UTF-8" standalone="no"?>
<svg
   id="emoji"
   viewBox="0 0 55.562119 47.731319"
   version="1.1"
   sodipodi:docname="1f407.svg"
   width="55.562119"
   height="47.731319"
   xmlns:inkscape="http://www.inkscape.org/namespaces/inkscape"
   xmlns:sodipodi="http://sodipodi.sourceforge.net/DTD/sodipodi-0.dtd"
   xmlns="http://www.w3.org/2000/svg"
   xmlns:svg="http://www.w3.org/2000/svg">
  <defs
     id="defs9" />
  <sodipodi:namedview
     id="namedview9"
     pagecolor="#ffffff"
     bordercolor="#000000"
     borderopacity="0.25"
     inkscape:showpageshadow="2"
     inkscape:pageopacity="0.0"
     inkscape:pagecheckerboard="0"
     inkscape:deskcolor="#d1d1d1" />
  <g
     id="color"
     transform="translate(-8.1040024,-10.290238)">
    <path
       fill="#ffffff"
       d="m 26.5928,29.0932 -0.4933,1.7216 c -0.8613,3.0059 -3.3996,5.2313 -6.4924,5.692 l -3.2347,0.4819 c -0.8038,0.1197 -1.3909,0.8193 -1.3704,1.6316 0.0229,0.9083 0.0789,1.9668 0.2145,2.255 0.1626,0.3455 1.2826,2.0672 2.0458,3.2288 0.47,0.7152 1.0849,1.3237 1.8044,1.7871 l 2.4975,1.6085 c 0.5163,0.3325 0.9903,0.7264 1.4117,1.173 l 0.1011,0.1072 c 0.4891,0.5184 0.5736,1.2988 0.207,1.9099 l -0.1152,0.192 c -0.334,0.5567 -0.8187,0.999 -1.3915,1.3045 -0.6675,0.3561 -1.5867,1.0325 -2.1233,2.2201 -0.0869,0.1922 0.6226,1.168 0.8068,1.6365 0.0585,0.1489 0.1966,0.2462 0.3557,0.263 l 2.5316,0.2673 c 0.8667,0.0915 1.7417,-0.0133 2.562,-0.3079 0.9297,-0.3339 1.6503,-1.2285 1.6873,-1.285 0.0364,-0.0555 1.7236,-1.7258 2.5961,-3.1305 0.533,-0.8582 1.4622,-1.3985 2.4724,-1.3983 1.0265,2e-4 2.2893,0.2299 3.1408,1.1741 0.3025,0.3354 0.8007,0.4001 1.1407,0.1029 l 0.0534,-0.0466 c 2.2664,-1.981 3.807,-4.6617 4.3775,-7.6174 l 0.9662,-5.0052 c 0.2607,-1.3507 0.0667,-2.75 -0.5525,-3.9784 -0.4547,-0.9022 -0.9038,-1.8008 -0.919,-1.862 -0.0191,-0.0766 -1.9997,-1.957 -3.5302,-3.4013 -1.0817,-1.0208 -2.6296,-1.3739 -4.0479,-0.926 l -1.9258,0.6082 c -1.0188,0.3217 -2.131,-0.0029 -2.8167,-0.8222 v 0 c -0.5835,-0.6971 -1.709,-0.4585 -1.9594,0.4154 z"
       id="path1" />
    <path
       fill="#ffffff"
       d="m 14.4314,25.5661 -0.3807,0.2232 c -0.6589,0.3863 -1.217,0.923 -1.6287,1.5663 l -2.2375,3.4963 c -0.69,1.0781 -0.9256,2.3856 -0.653,3.6362 0.2292,1.0515 0.9984,1.5737 1.0466,1.5576 0.0682,-0.0228 3.6765,1.4054 5.9273,1.8836 0.9349,0.1986 1.9011,0.1146 2.7891,-0.239 l 0.6572,-0.2617 c 2.4889,-0.9909 3.6993,-3.8153 2.7002,-6.3009 L 21.3691,27.9361 C 20.2663,25.1924 16.9824,24.0705 14.4314,25.566 Z"
       id="path2" />
    <path
       fill="#3f3f3f"
       d="m 28.0536,20.793 1.0382,-3.0105 c 0.2589,-0.7508 0.3317,-1.5533 0.2121,-2.3384 L 28.8857,12.6995 C 28.7769,11.9857 28.024,11.5663 27.3599,11.8496 l -1.6014,0.683 c -0.3352,0.143 -0.6548,0.3199 -0.954,0.5279 l -0.018,0.0125 c -0.7347,0.5111 -1.7263,0.3195 -2.2587,-0.3999 -0.0104,-0.0141 -0.0209,-0.0281 -0.0315,-0.0422 -0.797,-1.0577 -2.3872,-1.0704 -3.2441,-0.0605 l -1.2039,1.4188 c -0.6326,0.7455 -1.0517,1.6483 -1.2128,2.6127 l -0.4981,2.9811 c -0.027,0.1615 -0.4091,4.2473 -0.4091,4.2473 0.1344,0.8854 1.0398,0.0882 1.5001,0.0075 l -2.1215,1.1851 c -0.8867,0.4953 -1.4855,1.3828 -1.5909,2.393 -0.2658,2.5481 -0.0301,7.4187 4.8705,10.3194 0.3918,0.2319 0.8441,0.3566 1.2977,0.3956 1.5469,0.133 2.403,0.3129 3.8616,-0.7363 0.724,-0.5207 1.3041,-1.2158 1.6917,-2.019 0.8237,-1.7067 1.8167,-5.0685 -0.1465,-9.2559 v 0 c -0.028,-0.2242 -0.0581,-0.3881 -0.0581,-0.3881 l 1.6927,-2.6205 c 0.468,-0.7245 0.8466,-1.5028 1.1278,-2.3182 z"
       id="path3" />
    <path
       fill="#3f3f3f"
       d="m 31.7581,29.0103 c 0,0 12.7999,8.5621 4.8338,20.7335 -0.4475,0.6837 -0.3198,0.5116 -0.5919,1.282 l -0.4899,0.7707 c -0.2776,0.786 0.0028,1.1921 0.4899,1.7597 l 0.6966,1.3781 c 0.1754,0.2044 0.8936,0.5799 1.1522,0.6552 l 3.933,0.7653 c 0.7396,0.2152 1.5124,0.2927 2.2799,0.2287 l 5.0646,-0.4194 c 0.7329,-0.0611 1.435,-0.3224 2.0295,-0.7554 l 3.2354,-1.6972 c 0.6428,-0.4682 1.0589,-1.1853 1.1465,-1.9757 l 0.2024,-1.826 c 0.0609,-0.5492 0.0448,-1.1043 -0.0477,-1.6491 l -0.6282,-3.7003 c -0.1497,-0.882 -0.4576,-1.7297 -0.9088,-2.5022 l -2.0133,-3.4471 c -0.3924,-0.6719 -0.8433,-1.3079 -1.3473,-1.9006 l -2.9636,-3.485 C 47.2509,32.5431 46.564,31.9592 45.7971,31.4964 l -2.2365,-1.3497 c -0.88,-0.531 -1.8817,-0.8268 -2.909,-0.8589 L 31.7583,29.01 Z"
       id="path4" />
    <path
       fill="#ffffff"
       d="m 56.1403,48.221 c 0.3426,-0.2442 0.7885,-0.2957 1.1918,-0.1761 l 0.8374,0.2483 c 0.5329,0.321 1.403,0.2521 1.7424,0.4217 l 1.2363,0.5067 c 0.587,0.2935 1.0699,0.6209 1.0944,1.2768 0.0368,0.9879 -0.6132,1.7249 -0.5675,1.7835 0.0731,0.0938 -1.5794,1.7075 -1.6731,1.7632 -0.0742,0.044 -0.9511,0.7734 -1.5513,1.0125 -0.1778,0.0708 -0.8251,0.352 -1.1175,0.4189 -0.3466,0.0793 -1.4416,0.0805 -1.8576,0.0069 -1.4049,-0.2486 -1.988,-1.0583 -0.7812,-2.1395 v 0 c 0.352,-0.3154 0.5654,-0.7569 0.5939,-1.2287 l 0.1015,-2.5402 c 0.0336,-0.5557 0.3196,-1.047 0.7504,-1.354 z"
       id="path5" />
  </g>
  <g
     id="line"
     transform="translate(-8.1040024,-10.290238)">
    <path
       fill="none"
       stroke="#000000"
       stroke-linecap="round"
       stroke-linejoin="round"
       stroke-width="2"
       d="M 23.886,35.5323 C 21.5209,40.645 10.6482,36.5552 10.6482,36.5552 10.0514,36.2848 9.625,35.7392 9.5066,35.0949 L 9.1369,33.0822 c -0.0882,-0.4801 0.0022,-0.976 0.2543,-1.394 l 1.9397,-3.2171 c 0.9308,-1.5438 2.2842,-2.7888 3.9002,-3.5877 l 3.7161,-1.8372 c 0,0 3.5476,-10.8515 9.3212,-11.7558 0,0 4.591,4.6606 -3.478,15.0252 0,0 2.0247,1.3871 3.6172,4.0345 0,0 15.2559,-8.8797 24.9028,10.3646 8.946,17.8462 -8.3356,16.735 -14.2114,15.8977 -1.4891,-0.2122 -2.836,-1.1028 -3.4651,-2.4691 -0.6568,-1.4264 -0.5172,-3.1231 3.347,-3.6205"
       id="path6" />
    <path
       fill="none"
       stroke="#000000"
       stroke-linecap="round"
       stroke-linejoin="round"
       stroke-width="2"
       d="m 15,41.1641 c 0.3333,2.9167 2.0746,6.1553 6.6667,6.8193 0,0 1.4608,1.8086 0,3.3389 0,0 -1.351,1.1679 -2.4473,2.2562 C 17.9523,54.8362 18.8443,57 20.6295,57 h 3.8928 c 0.6864,0 1.3249,-0.352 1.6913,-0.9325 l 3.7193,-5.8926 1.2571,-3.965"
       id="path7" />
    <path
       fill="none"
       stroke="#000000"
       stroke-linecap="round"
       stroke-linejoin="round"
       stroke-width="2"
       d="m 59,47.9834 c 0,0 4.9053,-0.1041 3.375,3.8609 -1.5303,3.965 -5.0417,3.6322 -5.0417,3.6322"
       id="path8" />
    <path
       fill="none"
       stroke="#000000"
       stroke-linecap="round"
       stroke-linejoin="round"
       stroke-width="2"
       d="m 16.3125,20.2041 c -0.1542,-3.0543 0.75,-7.2275 4.0259,-8.9138 0,0 1.9372,-0.233 3.1598,3.1876"
       id="path9" />
  </g>
</svg>
