<svg xmlns="http://www.w3.org/2000/svg" xmlns:svg="http://www.w3.org/2000/svg" id="emoji" width="64.196" height="41.799" version="1.1" viewBox="0 0 64.196 41.799"><g id="color" transform="translate(-3.8683848,-15.214248)"><path id="path1" fill="#e27022" d="m 48.5444,45.6928 0.1799,0.1825 c 0.7727,0.7838 1.7552,1.3279 2.8295,1.5672 l 1.7307,0.3854 c 1.1899,0.265 1.8963,1.4935 1.5267,2.6551 l -0.3471,1.0911 c -0.1676,0.5268 -0.1898,1.0891 -0.0643,1.6275 l 0.2578,1.1061 c 0.1617,0.6939 0.8822,1.1013 1.5602,0.8822 v 0 c 0.608,-0.1965 1.1151,-0.6228 1.4131,-1.188 l 1.511,-2.8661 c 0.4319,-0.8192 0.789,-1.6758 1.067,-2.5592 l 0.2734,-0.8688 c 0.5611,-1.7832 0.1134,-3.7211 -1.1447,-5.1039 -1.8425,-2.025 -2.8178,-4.375 -3.7999,-6.8312 -0.1932,-0.4831 -0.8347,-0.5802 -1.1625,-0.1761 l -5.9635,7.3517 c -0.6613,0.8152 -0.604,1.9972 0.1329,2.7446 z"/><path id="path2" fill="#e27022" d="m 30.2921,43.5997 -1.1611,3.0323 -1.4041,6.6825 c -0.1171,0.5575 -0.3815,1.0734 -0.7657,1.494 v 0 c -0.6137,0.672 -1.5735,0.9049 -2.427,0.5891 v 0 C 23.605,55.0537 22.9655,54.1947 22.9028,53.2058 L 22.6727,49.582 c 0,0 0.5,-4.511 1,-6.547 0.304,-1.238 2.21,-1.8452 3.6574,-2.131 0.9821,-0.1939 1.979,0.2522 2.5083,1.1019 l 0.4537,1.5939 v 0 z"/><path id="path3" fill="#f4aa41" d="m 67.14,16.53 -1.8874,-0.5852 c -1.1342,-0.1412 -1.7245,-0.1411 -2.7989,0.2488 l -0.9428,0.3995 c -1.1559,0.4195 -1.682,2.0188 -1.8682,3.2344 -0.1511,0.9865 0.0784,1.931 -0.0586,2.8527 -0.3021,2.0332 -1.2806,3.899 -2.7781,5.307 l -0.1654,0.1555 c -1.0288,0.9673 -2.3334,1.5902 -3.7325,1.782 l -2.3026,0.3157 C 49.207,30.4322 47.7826,30.2388 46.4858,29.6811 L 45.5213,29.2663 C 43.7249,28.4938 41.8124,28.026 39.8623,27.8821 L 29.8082,27.1402 c -1.6796,-0.1239 -3.3681,-0.0257 -5.022,0.2921 l -0.654,0.1257 c -2.1473,0.4127 -4.3692,0.1663 -6.374,-0.7067 l -1.6898,-0.7359 c -1.0357,-0.451 -2.0298,-0.9922 -2.9709,-1.6171 L 10.6453,23.7248 C 10.3229,23.5107 8.3641,23.5551 8.3641,23.5551 7.4204,23.7476 7.0637,24.1965 7.5027,25.0537 l 0.4919,0.9605 c 0.2377,0.4641 0.2089,1.0199 -0.0754,1.457 l -1.8326,2.8169 c -0.656,1.0083 -0.8786,2.2381 -0.6178,3.4124 v 0 c 0.3088,1.3902 1.5093,2.3997 2.932,2.4638 1.0657,0.048 2.3166,0.1327 3.379,0.2819 0.8271,0.1162 1.6683,0.0163 2.4561,-0.2614 l 0.043,-0.0152 c 0.8804,-0.3103 1.8337,0.2625 1.9306,1.1835 0.1366,1.2982 0.6328,2.5938 1.1383,3.8151 0.2843,0.6869 -0.0048,1.4701 -0.6559,1.8288 -2.1275,1.1723 -3.3371,2.3017 -4.0527,4.0364 -0.1604,0.3892 -0.2959,1.0226 -0.4112,1.7291 -0.2876,1.7615 -1.0399,3.0134 0.397,4.0723 l 0.8801,0.4484 c 0.372,0.2741 1.4684,0.436 1.9074,0.292 0.9599,-0.315 2.4133,-1.1994 1.822,-3.6287 -0.1222,-0.502 0.0196,-1.0361 0.3893,-1.3971 l 1.1039,-1.0779 c 0.734,-0.7167 1.5769,-1.3111 2.4969,-1.7648 1.0385,-0.5121 2.1523,-1.0409 2.6894,-1.2945 0.2167,-0.1023 0.4509,-0.1475 0.6902,-0.1355 l 13.5132,0.6778 c 0.398,0.02 0.7705,0.2023 1.0304,0.5045 l 1.8851,2.1916 c 0.2853,0.3317 0.4062,0.7741 0.3293,1.2048 L 40.4953,53.71 c -0.1704,0.9541 0.6219,1.805 1.5857,1.703 v 0 c 0.4017,-0.0425 0.7676,-0.25 1.0103,-0.5729 l 4.2126,-5.6053 c 0.1895,-0.2521 0.2919,-0.5589 0.2919,-0.8743 V 45.903 c 0,-0.3496 0.1246,-0.6849 0.3527,-0.9497 1.1492,-1.3342 4.7636,-5.6731 5.6683,-8.4829 l 0.0119,0.0164 c 0,0 5.806,-3.004 8.03,-7.525 3.597,-5.054 -0.6774,-9.975 4.438,-8.312 1.289,0.4189 2.883,-2.184 1.32,-3.809 -0.2826,-0.3119 -0.1871,-0.2065 -0.2826,-0.3119 l 0.0059,0.0013 z"/></g><g id="line" transform="translate(-3.8683848,-15.214248)"><path id="path4" fill="none" stroke="#000" stroke-linecap="round" stroke-linejoin="round" stroke-width="2" d="m 12.46,35.74 c -2.333,1 -4.917,0.8333 -4.917,0.8333 -1.677,0.1458 -3.115,-4.01 -2.485,-4.733 l 3.318,-5.1 -1.75,-3.417 c 0,0 5.008,-1.415 7.883,2.09 0.3444,0.42 0.7943,0.7429 1.279,0.9871 0.0298,0.015 0.0602,0.0302 0.0912,0.0456 2.593,1.289 5.546,1.571 8.385,0.9981 7.222,-1.458 14.07,-1.37 21.7,2.212 7.625,3.583 14.53,-2.25 13.64,-7.5 -0.793,-4.647 3.562,-7.583 6.75,-5"/><path id="path5" fill="none" stroke="#000" stroke-linecap="round" stroke-linejoin="round" stroke-width="2" d="m 16.05,48.82 c 0.6006,-2.206 8.491,-3.648 8.491,-3.648 0,0 3.228,-1.201 1.426,-4.504"/><path id="path6" fill="none" stroke="#000" stroke-linecap="round" stroke-linejoin="round" stroke-width="2" d="m 18.3,33.24 c -1.543,1.834 -3.893,4.803 -0.44,9.158 0,0 -6.756,2.853 -6.006,8.033 0,0 0.3624,2.476 2.402,2.402"/><path id="path7" fill="none" stroke="#000" stroke-linecap="round" stroke-linejoin="round" stroke-width="2" d="m 23.5,50.03 c -1.156,7.254 2.386,6.055 3.017,5.661 1.148,-0.7173 1.848,-9.854 3.952,-11.31 1.592,-1.104 8.167,-0.3021 8.167,-0.3021"/><path id="path8" fill="none" stroke="#000" stroke-linecap="round" stroke-linejoin="round" stroke-width="2" d="m 38.44,41.33 c 0.0911,1.742 0.7529,3.402 1.734,4.845 0.6616,0.9727 1.803,2.32 1.453,2.985 -4.479,8.5 0.6224,7.022 1.083,6.167 3.188,-5.917 6.125,-4.104 4.647,-10.52 0,0 5.27,-1.81 5.52,-7.977"/><path id="path9" fill="none" stroke="#000" stroke-linecap="round" stroke-linejoin="round" stroke-width="2" d="m 48.15,45.59 c 0,0 2.367,3.204 7.758,2.693 0,0 -3.326,6.762 0,7.62 1.917,0.4941 4.722,-11.16 4.722,-11.16 0,0 -1.839,-0.7937 -3.951,-4.182"/></g></svg>