<svg xmlns="http://www.w3.org/2000/svg" xmlns:svg="http://www.w3.org/2000/svg" id="emoji" width="63.065" height="40.798" version="1.1" viewBox="0 0 63.065 40.798"><g id="color" transform="translate(-4.1844261,-16.1012)"><path id="path1" fill="#3f3f3f" d="M 8.6557,28.7147 7.1718,30.9535 C 6.736,31.6111 6.5043,32.3829 6.506,33.1718 v 0 c 0.0019,0.9123 0.5309,1.7412 1.3575,2.1272 v 0 c 1.6013,0.7478 3.4305,0.8441 5.1015,0.2687 l 1.387,-0.4776 c 0.8303,-0.2859 1.7486,0.0964 2.1119,0.8959 0.6897,1.5177 2.0374,3.8555 4.1702,5.0262 0.7175,0.3939 1.5276,0.5845 2.343,0.6561 0.817,0.0718 2.0979,0.1843 3.0822,0.2707 0.8164,0.0717 1.4666,0.7106 1.5544,1.5255 l 0.3586,3.3295 c 0.1323,1.2283 0.1511,2.4662 0.0563,3.698 l -0.1408,1.8299 c -0.0767,0.9969 0.2175,1.9871 0.8262,2.7804 v 0 c 0.5391,0.7027 1.5245,0.8795 2.2744,0.4083 v 0 c 0.389,-0.2445 0.6638,-0.6348 0.7627,-1.0835 l 1.0281,-4.6641 c 0.2589,-1.1744 0.4292,-2.3665 0.5096,-3.5664 l 0.2028,-3.0272 c 0.0596,-0.889 0.7896,-1.5845 1.6804,-1.6009 l 4.1571,-0.0769 c 0.8942,-0.0165 1.7885,0.0289 2.6765,0.1361 l 3.4285,0.4136 c 0.862,0.104 1.6899,0.3993 2.4231,0.8644 v 0 c 0.5923,0.3757 1.3537,0.3531 1.9227,-0.0571 l 2.6282,-2.9569 c 0.8868,-0.6394 2.1374,-0.2975 2.5756,0.704 l 1.4704,4.3454 c 0.1017,0.2323 0.1506,0.4843 0.1432,0.7378 l -0.1787,6.1288 c -0.025,0.8575 0.2422,2.1993 0.5938,2.9818 v 0 c 0.4025,0.8957 1.2931,1.472 2.2751,1.472 v 0 c 0.5715,0 1.1255,-0.1974 1.5683,-0.5588 v 0 c 0.6778,-0.5532 1.0871,-1.3694 1.1249,-2.2434 l 0.3623,-8.357 c 0.0086,-0.1974 -0.0164,-0.3926 -0.075,-0.5813 -0.2624,-0.8445 -1.0246,-3.3004 -1.0703,-3.4821 -0.0405,-0.1612 0.6018,-6.4764 0.9469,-9.8288 0.1107,-1.0752 0.2765,-2.1382 0.53,-3.189 0.3891,-1.6132 0.8604,-4.522 -0.3187,-5.997 -1.6848,-2.1075 -8.9295,-1.9046 -8.9295,-1.9046 l -13.764,0.0602 c -0.145,6e-4 -0.284,-0.0161 -0.4245,-0.0516 -1.1751,-0.2968 -7.2014,-1.6823 -10.3049,0.2611 -0.28,0.1753 -0.793,0.2479 -1.1193,0.1963 l -0.5235,-0.0828 c -0.6913,-0.1093 -1.3104,0.1346 -1.6945,0.6252 l -0.5968,0.7623 c -0.4107,0.5245 -1.0878,0.764 -1.7369,0.6142 l -3.2506,-0.75 c -0.1091,-0.0252 -0.2155,-0.061 -0.3177,-0.1069 l -1.673,-0.7519 c -1.286,-0.578 -2.7368,-0.6747 -4.0881,-0.2724 v 0 c -1.9788,0.589 -3.4593,2.2394 -3.8307,4.2704 l -0.0777,0.4252 c -0.2218,1.2128 -0.6873,2.368 -1.3685,3.3957 z"/><path id="path2" fill="#3f3f3f" d="m 39.4279,43.8041 -1.2714,9.5503 c -0.0869,0.6524 -0.3571,1.2675 -0.7841,1.7683 -0.3626,0.4253 -0.5471,0.6304 -0.868,0.8355 -0.4174,0.2667 -2.012,0.5766 -2.3021,0.5416 -0.0118,-0.0014 -0.0238,-0.0025 -0.0358,-0.0039 -1.3956,-0.1535 -2.327,-1.5188 -2.0004,-2.8843 l 0.9144,-3.8239 c 0.0325,-0.136 0.0529,-0.2747 0.0608,-0.4144 l 0.3123,-5.5108 c 0.0303,-0.5344 0.2418,-1.0425 0.5995,-1.4406 l 0.4232,-0.4709 c 0.4267,-0.4747 1.0278,-0.7559 1.6656,-0.7791 l 0.8664,-0.0315 c 1.4574,-0.053 2.6119,1.2181 2.4195,2.6637 z"/><path id="path3" fill="#9b9b9a" d="m 9.2127,16.625 c -0.7838,-0.3971 -2.748,0.2718 -4,2.0833 -2.0867,3.0193 -1.3098,7.7014 5.25,6.0417 0,0 2.0417,-3.6667 7.467,-0.6992 0,0 5.8915,5.0326 9.908,-0.8073 C 28.5049,22 29.421,16.1052 24.1294,16.125 l 1.562,3.9537 c 0.1486,0.3761 0.0664,0.8041 -0.2108,1.0985 v 0 c -0.9463,1.0048 -2.393,1.3623 -3.6989,0.9152 -0.89,-0.3047 -1.7583,-0.596 -1.9343,-0.6341 C 19.4627,21.375 16.2583,20.25 16.0272,20.25 c -0.2311,0 -3.1062,0.4583 -3.5228,0.8333 C 12.0878,21.4583 9.8377,22.262 9.171,22.25 8.9935,22.2468 8.7367,22.2364 8.4556,22.2228 7.566,22.1799 6.934,21.337 7.145,20.4717 7.3135,19.7807 7.4596,19.1185 7.4211,19.0416 7.3378,18.875 9.2128,16.625 9.2128,16.625 Z"/></g><g id="line" transform="translate(-4.1844261,-16.1012)"><path id="path4" fill="none" stroke="#000" stroke-linecap="round" stroke-linejoin="round" stroke-width="2" d="m 8.9109,17.5549 c 0,0 -3.968,3.5483 -1.7036,5.0512 0.9172,0.6087 2.9356,-0.4136 3.4998,-1.0225 0.8495,-0.9168 3.7525,-3.6489 8.2239,-0.3394 1.174,0.8689 2.6347,2.5625 5.0689,1.3867 1.5162,-0.7324 3.6398,-3.5863 0.2605,-5.5297"/><path id="path5" fill="none" stroke="#000" stroke-linecap="round" stroke-linejoin="round" stroke-width="2" d="m 19.1534,26.5124 c 0,0 2.3202,-0.7013 4.6678,1.5608 0,0 0.0058,3.0133 -4.5349,3.029"/><path id="path6" fill="none" stroke="#000" stroke-linecap="round" stroke-linejoin="round" stroke-width="2" d="m 29.1683,20.4855 c 0,0 2.6885,-2.5698 9.6703,-0.8573 5.3092,1.3022 12.4973,0.3827 15.6368,-0.1326 1.0363,-0.1701 11.7128,0.2626 11.0173,9.2837 -0.4897,6.352 -1.9217,11.048 0.7569,14.3853"/><path id="path7" fill="none" stroke="#000" stroke-linecap="round" stroke-linejoin="round" stroke-width="2" d="m 27.3372,41.0565 c -3.3251,0.4223 -5.8873,0.4044 -7.6501,-0.8123 -1.8748,-1.577 -2.9481,-3.5708 -3.7853,-5.6875 -1.6255,1.1176 -6.5272,1.9792 -7.785,1.3629 C 5.5135,34.6441 6.5034,31.962 6.5034,31.962 l 4.1212,-6.2179"/><path id="path8" fill="none" stroke="#000" stroke-linecap="round" stroke-linejoin="round" stroke-width="2" d="m 34.5837,27.6133 0.4346,9.4476 c 0,0 -2.7664,4.918 -1.976,10.4948 l -1.466,6.7936 c -0.1951,0.9041 -0.9947,1.5495 -1.9196,1.5495 h -0.1172 c -1.2916,0 -2.2456,-1.2282 -1.8966,-2.4718 0.6333,-2.2561 1.2656,-5.7606 0.4971,-9.2444 -1.5235,-6.9057 -0.411,-8.5966 -0.411,-8.5966"/><path id="path9" fill="none" stroke="#000" stroke-linecap="round" stroke-linejoin="round" stroke-width="2" d="m 33.4376,41.2899 c 0,0 10.4948,-1.1991 15.5445,1.3039 0,0 3.1177,-3.6885 5.0498,-3.9959"/><path id="path10" fill="none" stroke="#000" stroke-linecap="round" stroke-linejoin="round" stroke-width="2" d="m 50.2325,30.1022 c 0,0 5.3842,11.0864 5.9989,13.0624 0.487,1.5655 0.4278,7.9893 0.4355,10.4924 0.0093,3.0265 4.3664,2.6583 4.4853,0.2332 0.0937,-1.9102 0.3043,-5.6929 0.9117,-8.5278 0.1792,-0.8364 0.2995,-1.6849 -0.1053,-2.4384 -0.94,-1.7497 -1.8987,-5.1703 -0.9868,-9.6829 0.8332,-4.1227 0.7776,-5.066 0.7776,-5.066"/><path id="path11" fill="none" stroke="#000" stroke-linecap="round" stroke-linejoin="round" stroke-width="2" d="m 39.3137,41.1544 c 0,0 -1.3498,10.3292 -1.4115,12.7244 -0.0191,0.7432 -0.9928,1.3614 -1.7362,1.3614 h -1.1477"/></g></svg>