<?xml version="1.0" encoding="UTF-8" standalone="no"?>
<svg
   id="emoji"
   viewBox="0 0 61.156212 42.874493"
   version="1.1"
   sodipodi:docname="1f417.svg"
   width="61.156212"
   height="42.874493"
   xmlns:inkscape="http://www.inkscape.org/namespaces/inkscape"
   xmlns:sodipodi="http://sodipodi.sourceforge.net/DTD/sodipodi-0.dtd"
   xmlns="http://www.w3.org/2000/svg"
   xmlns:svg="http://www.w3.org/2000/svg">
  <defs
     id="defs11" />
  <sodipodi:namedview
     id="namedview11"
     pagecolor="#ffffff"
     bordercolor="#000000"
     borderopacity="0.25"
     inkscape:showpageshadow="2"
     inkscape:pageopacity="0.0"
     inkscape:pagecheckerboard="0"
     inkscape:deskcolor="#d1d1d1" />
  <g
     id="color"
     transform="translate(-5.1457044,-15.462608)">
    <path
       fill="#6a462f"
       d="m 17.8856,21.0752 -0.2041,0.3763 c -0.5882,1.0845 -1.4576,1.9906 -2.5169,2.6231 l -5.2653,3.1439 c 0,0 -4.0991,3.4124 -3.7536,4.6981 0.174,0.6475 0.4054,1.3613 0.5923,1.9103 0.1872,0.55 0.3278,1.1104 0.4182,1.6843 0.1342,0.8525 0.4422,2.1861 1.0982,2.7351 0.5,0.4185 1.4422,0.3 2.2593,0.0769 1.3027,-0.3556 2.6324,-0.6031 3.9812,-0.6661 l 0.6014,-0.0281 0.4577,-0.0142 c 1.0553,-0.0328 2.107,0.1411 3.0961,0.5107 5.9704,2.231 5.5246,2.1336 5.8485,2.2044 0.7635,0.1667 2.1724,1.5073 2.1724,1.5073 0,0 -0.4167,2.7282 0,3.737 0.4167,1.0089 1.2734,5.1857 1.2734,5.1857 l -0.8227,4.0732 1.6454,2.0833 c 0,0 3.18,-0.0069 3.3155,-1.5989 l 1.0051,2.0195 2.4235,-0.3976 0.7191,-1.5272 0.399,-7.183 1.9584,-4.7014 c 0,0 1.5,0.7085 2.25,1.0069 0.4139,0.1647 2.1036,0.1476 3.5349,0.0992 1.3888,-0.0469 2.7524,-0.3828 4.0081,-0.978 l 2.3126,-1.0961 3.655,3.6086 -0.1854,4.8619 -0.3369,3.5493 0.5224,1.3659 1.3309,0.6716 2.2822,-0.6716 1.1272,-10.8603 -0.8331,-3.2397 c 0,0 4.3089,-9.7208 3.2373,-12.7833 -0.7663,-2.1899 -5.2765,-4.9907 -7.7847,-6.4091 -1.0177,-0.5755 -2.0822,-1.0474 -3.189,-1.4239 l -6.6658,-2.2676 c -0.5952,-0.2025 -1.1917,-0.3815 -1.8002,-0.5394 -2.4073,-0.6249 -8.7749,-2.2219 -11.7153,-2.4224 -3.0279,-0.2064 -9.294,2.9231 -11.3853,4.0198 -0.4536,0.2379 -0.8229,0.6052 -1.0671,1.0554 z"
       id="path1" />
    <path
       fill="#3f3f3f"
       d="m 22.0044,38.2464 c 0,0 8.7917,6.2119 16.8333,4.1286 l -1.8638,5.3524 c -0.2499,0.7177 -0.3958,1.4675 -0.4331,2.2265 l -0.2169,4.4065 c -0.0657,1.3352 -1.0105,2.4642 -2.3132,2.7642 v 0 c -0.5702,0.1313 -1.167,-0.0547 -1.5615,-0.4868 l -0.6319,-0.692 c 0,0 -1.3082,1.2625 -3.0501,0.9709 -0.7664,-0.1283 -1.2681,-0.7325 -1.5898,-1.369 -0.4317,-0.8541 -0.4691,-1.8547 -0.1784,-2.7664 l 0.3654,-1.1461 c 0.4311,-1.3522 0.4574,-2.801 0.0754,-4.168 v 0 C 27.05,46.0723 26.4146,44.7601 25.5574,43.5926 24.2461,41.8067 22.3518,39.1497 22.0044,38.2463 Z"
       id="path2" />
    <path
       fill="#3f3f3f"
       d="m 59.0877,38.875 c 0,0 -6.7083,-0.125 -7.7083,2.5833 -0.6,1.625 0.5888,2.9957 1.6358,3.8323 0.8042,0.6425 1.2417,1.6379 1.1188,2.6599 l -0.3231,2.6861 c -0.0099,0.0823 -0.0164,0.165 -0.0195,0.2478 l -0.128,3.4167 c -0.0217,0.5793 0.1952,1.1421 0.6,1.557 v 0 c 0.4663,0.4779 1.1308,0.7076 1.7927,0.6198 v 0 c 1.2267,-0.1628 2.2304,-1.0567 2.5335,-2.2565 L 59.022,52.51 c 0.0437,-0.173 0.072,-0.3495 0.0846,-0.5274 l 0.5002,-7.0796 c 0.015,-0.2125 0.0075,-0.426 -0.0223,-0.637 l -0.6218,-4.391 z"
       id="path3" />
    <path
       fill="#3f3f3f"
       d="m 23.3377,21.6875 c 0,0 -5.5,5.5 1.5625,8.6875 l 3.0442,-2.1875 c 0,0 1.0808,-3.6875 1.0808,-3.9375 0,-0.25 -0.2581,-3.3907 -0.2581,-3.3907 L 27.6502,20.5 Z"
       id="path4" />
  </g>
  <g
     id="line"
     transform="translate(-5.1457044,-15.462608)">
    <path
       fill="none"
       stroke="#000000"
       stroke-linecap="round"
       stroke-linejoin="round"
       stroke-width="2"
       d="m 8.9874,37.6522 c 0,0 2.0168,1.435 4.2662,-0.1551 l 3.1083,0.2228 c 1.2161,0.0872 2.411,-0.3521 3.2811,-1.2061 l 3.2672,-3.2067"
       id="path5" />
    <path
       fill="none"
       stroke="#000000"
       stroke-linecap="round"
       stroke-linejoin="round"
       stroke-width="2"
       d="M 13.5926,33.272 C 12.7306,32.6127 12.25,30.6875 13.1259,29.0625"
       id="path6" />
    <path
       fill="none"
       stroke="#000000"
       stroke-linecap="round"
       stroke-linejoin="round"
       stroke-width="2"
       d="m 15.2316,32.2225 c -2.6899,2.3456 -8.1684,2.5269 -8.1684,2.5269 L 6.1457,32.268 C 7.3585,27.297 16.783,23.1083 16.783,23.1083 l 0.8422,-2.227 c 4.6223,-3.7209 9.9561,-5.1271 16.0675,-4.0947 0,0 22.6884,2.9476 27.5312,12.1651 0,0 1.5911,2.3191 -2.9684,12.8941 l 0.8349,3.2467 -0.6967,9.7954 c -0.0693,0.9744 -0.88,1.7295 -1.8569,1.7295 h -0.8575 c -1.0976,0 -1.957,-0.9448 -1.8533,-2.0375 l 0.7712,-8.1238 -3.6699,-4.2393 c 0,0 -2.0681,3.983 -9.5452,1.5783"
       id="path7" />
    <path
       fill="none"
       stroke="#000000"
       stroke-linecap="round"
       stroke-linejoin="round"
       stroke-width="2"
       d="m 23.8161,22.5654 3.7744,-1.6828 c 0.4668,-0.1173 0.9199,0.2224 0.9441,0.7031 0.1034,2.0556 0.2325,7.379 -3.8398,7.7668"
       id="path8" />
    <path
       fill="none"
       stroke="#000000"
       stroke-linecap="round"
       stroke-linejoin="round"
       stroke-width="2"
       d="m 22.2409,38.4064 c 5.7778,1.9598 6.5262,2.4823 8.5566,4.3669 l 1.6928,7.755 -0.4077,4.7893 c -0.0925,1.0865 0.7645,2.0195 1.8549,2.0195 h 0.4326 c 1.0539,0 1.903,-0.8717 1.8602,-1.9248 -0.1416,-3.4875 0.0316,-10.8589 3.5901,-14.8514"
       id="path9" />
    <path
       fill="none"
       stroke="#000000"
       stroke-linecap="round"
       stroke-linejoin="round"
       stroke-width="2"
       d="m 27.6225,45.5745 c 0.4154,1.9173 0.6969,4.7358 -0.4188,8.2036 -0.344,1.0692 0.4357,2.1677 1.5588,2.1677 h 0.0046"
       id="path10" />
    <path
       fill="none"
       stroke="#000000"
       stroke-linecap="round"
       stroke-linejoin="round"
       stroke-width="2"
       d="m 64.5713,31.0769 c 0.5566,1.0204 1.515,6.2151 -0.4484,7.4211 -1.9634,1.2059 0.5892,3.3395 0.5892,3.3395"
       id="path11" />
  </g>
</svg>
