<?xml version="1.0" encoding="UTF-8" standalone="no"?>
<svg
   id="emoji"
   viewBox="0 0 40.400982 56.390476"
   version="1.1"
   sodipodi:docname="1f414.svg"
   width="40.400982"
   height="56.390476"
   xmlns:inkscape="http://www.inkscape.org/namespaces/inkscape"
   xmlns:sodipodi="http://sodipodi.sourceforge.net/DTD/sodipodi-0.dtd"
   xmlns="http://www.w3.org/2000/svg"
   xmlns:svg="http://www.w3.org/2000/svg">
  <defs
     id="defs6" />
  <sodipodi:namedview
     id="namedview6"
     pagecolor="#ffffff"
     bordercolor="#000000"
     borderopacity="0.25"
     inkscape:showpageshadow="2"
     inkscape:pageopacity="0.0"
     inkscape:pagecheckerboard="0"
     inkscape:deskcolor="#d1d1d1" />
  <g
     id="color"
     transform="translate(-15.799509,-8.6095245)">
    <path
       fill="#ea5a47"
       d="m 44.62,26.25 c 0,0 4.375,-7.25 2.375,-8.25 -2,-1 -5,1 -5,1 0,0 2,-7 -2,-7 -4,0 -5,4 -5,4 0,0 -1.457,-8.296 -7,-6 -3.464,1.435 -5,5 0,15"
       id="path1" />
    <path
       fill="#ffffff"
       d="M 21,35 C 21,35 25,24 36,24 47,24 51,35 51,35 66,63 36,64 36,64 36,64 6,63 21,35 Z"
       id="path2" />
    <path
       fill="#f1b31c"
       d="m 36,43 c 0,0 18,-1 0,18 0,0 -18,-18 0,-18 z"
       id="path3" />
  </g>
  <g
     id="line"
     transform="translate(-15.799509,-8.6095245)">
    <path
       fill="none"
       stroke="#000000"
       stroke-linecap="round"
       stroke-linejoin="round"
       stroke-miterlimit="10"
       stroke-width="2"
       d="m 44.46,26.25 c 0,0 4.375,-7.25 2.375,-8.25 -2,-1 -5,1 -5,1 0,0 2,-7 -2,-7 -4,0 -5,4 -5,4 0,0 -1.457,-8.296 -7,-6 -3.464,1.435 -5,5 0,15"
       id="path4" />
    <circle
       cx="27"
       cy="39"
       r="2"
       id="circle4" />
    <circle
       cx="45"
       cy="39"
       r="2"
       id="circle5" />
    <path
       fill="none"
       stroke="#000000"
       stroke-linecap="round"
       stroke-linejoin="round"
       stroke-miterlimit="10"
       stroke-width="2"
       d="m 36.02,43 c 0,0 18,-1 0,18 0,0 -18,-18 0,-18 z"
       id="path5" />
    <path
       fill="none"
       stroke="#000000"
       stroke-linecap="round"
       stroke-linejoin="round"
       stroke-miterlimit="10"
       stroke-width="2"
       d="M 21,35 C 21,35 25,24 36,24 47,24 51,35 51,35 66,63 36,64 36,64 36,64 6,63 21,35 Z"
       id="path6" />
  </g>
</svg>
