<?xml version="1.0" encoding="UTF-8" standalone="no"?>
<svg
   id="emoji"
   viewBox="0 0 54.214027 40.77808"
   version="1.1"
   sodipodi:docname="1f41f.svg"
   width="54.214027"
   height="40.77808"
   xmlns:inkscape="http://www.inkscape.org/namespaces/inkscape"
   xmlns:sodipodi="http://sodipodi.sourceforge.net/DTD/sodipodi-0.dtd"
   xmlns="http://www.w3.org/2000/svg"
   xmlns:svg="http://www.w3.org/2000/svg">
  <defs
     id="defs4" />
  <sodipodi:namedview
     id="namedview4"
     pagecolor="#ffffff"
     bordercolor="#000000"
     borderopacity="0.25"
     inkscape:showpageshadow="2"
     inkscape:pageopacity="0.0"
     inkscape:pagecheckerboard="0"
     inkscape:deskcolor="#d1d1d1" />
  <g
     id="color"
     transform="translate(-9.9959671,-13.959872)">
    <path
       fill="#92d3f5"
       d="m 16.1101,35.2112 c 0,0 -5.1101,-4.8074 -4.0659,-11.0726 1.0442,-6.2652 13.5746,1.0442 14.6188,6.2652 0,0 3.1326,-5.221 8.3536,-6.2652 0,0 -1.0442,-5.221 0,-8.3536 0,0 11.4862,-4.1768 15.663,6.2652 0,0 11.4862,2.0884 12.5304,11.4862 l -3.1326,2.0884 2.741,2.3495 c 0,0 -0.126,6.9813 -11.8755,10.1474 0,0 -2.3517,7.3429 -10.7053,5.2545 l 1.0442,-5.221 c 0,0 -6.2652,1.0442 -14.6188,-8.3536 0,0 -3.1326,9.3978 -15.663,7.3094 0,0 -0.2218,-8.1366 5.1101,-11.8998 z"
       id="path1" />
    <path
       fill="#61b2e4"
       d="m 41.7805,28.6682 c 0,0 -7.8664,4.3435 -0.8652,11.0476"
       id="path2" />
  </g>
  <g
     id="line"
     transform="translate(-9.9959671,-13.959872)">
    <path
       fill="none"
       stroke="#000000"
       stroke-linecap="round"
       stroke-linejoin="round"
       stroke-width="2"
       d="m 16.1101,35.2112 c 0,0 -5.1101,-4.8074 -4.0659,-11.0726 1.0442,-6.2652 13.5746,1.0442 14.6188,6.2652 0,0 3.1326,-5.221 8.3536,-6.2652 0,0 -1.0442,-5.221 0,-8.3536 0,0 11.4862,-4.1768 15.663,6.2652 0,0 11.4862,2.0884 12.5304,11.4862 l -3.1326,2.0884 2.741,2.3495 c 0,0 -0.126,6.9813 -11.8755,10.1474 0,0 -2.3517,7.3429 -10.7053,5.2545 l 1.0442,-5.221 c 0,0 -6.2652,1.0442 -14.6188,-8.3536 0,0 -3.1326,9.3978 -15.663,7.3094 0,0 -0.2218,-8.1366 5.1101,-11.8998 z"
       id="path3" />
    <path
       fill="none"
       stroke="#000000"
       stroke-linecap="round"
       stroke-linejoin="round"
       stroke-width="2"
       d="m 41,28.75 c 0,0 -6,4 -1,11"
       id="path4" />
  </g>
</svg>
