<?xml version="1.0" encoding="UTF-8" standalone="no"?>
<svg
   id="emoji"
   viewBox="0 0 45.752998 51.586002"
   version="1.1"
   sodipodi:docname="1f41e.svg"
   width="45.752998"
   height="51.586002"
   xmlns:inkscape="http://www.inkscape.org/namespaces/inkscape"
   xmlns:sodipodi="http://sodipodi.sourceforge.net/DTD/sodipodi-0.dtd"
   xmlns="http://www.w3.org/2000/svg"
   xmlns:svg="http://www.w3.org/2000/svg">
  <defs
     id="defs14" />
  <sodipodi:namedview
     id="namedview14"
     pagecolor="#ffffff"
     bordercolor="#000000"
     borderopacity="0.25"
     inkscape:showpageshadow="2"
     inkscape:pageopacity="0.0"
     inkscape:pagecheckerboard="0"
     inkscape:deskcolor="#d1d1d1" />
  <g
     id="color"
     transform="translate(-13.1235,-8.0842)">
    <ellipse
       cx="36.459599"
       cy="21.9147"
       rx="11.0195"
       ry="11.0971"
       fill="#3f3f3f"
       id="ellipse1" />
    <ellipse
       cx="36.4865"
       cy="40.683102"
       rx="16.5287"
       ry="17.987101"
       fill="#d22f27"
       id="ellipse2" />
  </g>
  <g
     id="line"
     transform="translate(-13.1235,-8.0842)">
    <path
       fill="none"
       stroke="#000000"
       stroke-linecap="round"
       stroke-linejoin="round"
       stroke-width="2"
       d="m 18.9837,21.7274 c 0,3.3082 4.2257,5.9138 5.4833,6.6049"
       id="path2" />
    <path
       fill="none"
       stroke="#000000"
       stroke-linecap="round"
       stroke-linejoin="round"
       stroke-width="2"
       d="m 14.1235,38.2566 c 0,0.7364 3.9538,2.0393 5.8345,2.6284"
       id="path3" />
    <path
       fill="none"
       stroke="#000000"
       stroke-linecap="round"
       stroke-linejoin="round"
       stroke-width="2"
       d="m 18.9837,57.6974 c 0,-2.8776 3.1948,-4.69 4.8488,-5.438"
       id="path4" />
    <path
       fill="none"
       stroke="#000000"
       stroke-linecap="round"
       stroke-linejoin="round"
       stroke-width="2"
       d="m 49.126,28.53 c 0,0 4.8614,-3.8891 4.8614,-6.806"
       id="path5" />
    <path
       fill="none"
       stroke="#000000"
       stroke-linecap="round"
       stroke-linejoin="round"
       stroke-width="2"
       d="m 53.005,40.1373 a 8.4318,8.4318 0 0 0 4.8715,-1.8807"
       id="path6" />
    <path
       fill="none"
       stroke="#000000"
       stroke-linecap="round"
       stroke-linejoin="round"
       stroke-width="2"
       d="m 48.6433,52.8712 c 1.2575,0.1133 4.5656,0.7251 5.3473,3.8519"
       id="path7" />
    <path
       fill="none"
       stroke="#000000"
       stroke-linecap="round"
       stroke-linejoin="round"
       stroke-width="2"
       d="m 29.6784,9.0842 c 0.759,3.0135 2.0958,3.6932 2.6623,3.8405"
       id="path8" />
    <path
       fill="none"
       stroke="#000000"
       stroke-linecap="round"
       stroke-linejoin="round"
       stroke-width="2"
       d="m 42.32,12.9732 c 0,0 2.6586,-2.3334 1.9939,-3.889"
       id="path9" />
    <ellipse
       cx="36.4865"
       cy="40.683102"
       rx="16.5287"
       ry="17.987101"
       fill="none"
       stroke="#000000"
       stroke-linecap="round"
       stroke-linejoin="round"
       stroke-width="2"
       id="ellipse9" />
    <line
       x1="36.4865"
       x2="36.4865"
       y1="23.6682"
       y2="57.697899"
       fill="none"
       stroke="#000000"
       stroke-linecap="round"
       stroke-linejoin="round"
       stroke-width="2"
       id="line9" />
    <circle
       cx="26.819201"
       cy="35.280102"
       r="2"
       id="circle9" />
    <circle
       cx="46.264702"
       cy="35.280102"
       r="2"
       id="circle10" />
    <circle
       cx="42.375599"
       cy="41.1138"
       r="2"
       id="circle11" />
    <circle
       cx="46.264702"
       cy="46.947399"
       r="2"
       id="circle12" />
    <circle
       cx="30.7082"
       cy="41.1138"
       r="2"
       id="circle13" />
    <circle
       cx="26.819201"
       cy="46.947399"
       r="2"
       id="circle14" />
    <path
       fill="none"
       stroke="#000000"
       stroke-linecap="round"
       stroke-linejoin="round"
       stroke-width="2"
       d="m 26.46,21.7237 a 10.004,10.004 0 0 1 20,0"
       id="path14" />
  </g>
</svg>
