<?xml version="1.0" encoding="UTF-8" standalone="no"?>
<svg
   id="emoji"
   viewBox="0 0 49.503704 50.987614"
   version="1.1"
   sodipodi:docname="1f413.svg"
   width="49.503704"
   height="50.987614"
   xmlns:inkscape="http://www.inkscape.org/namespaces/inkscape"
   xmlns:sodipodi="http://sodipodi.sourceforge.net/DTD/sodipodi-0.dtd"
   xmlns="http://www.w3.org/2000/svg"
   xmlns:svg="http://www.w3.org/2000/svg">
  <defs
     id="defs12" />
  <sodipodi:namedview
     id="namedview12"
     pagecolor="#ffffff"
     bordercolor="#000000"
     borderopacity="0.25"
     inkscape:showpageshadow="2"
     inkscape:pageopacity="0.0"
     inkscape:pagecheckerboard="0"
     inkscape:deskcolor="#d1d1d1" />
  <g
     id="color"
     transform="translate(-11.327063,-11.012286)">
    <path
       fill="#a57939"
       stroke="#a57939"
       stroke-linecap="round"
       stroke-linejoin="round"
       stroke-miterlimit="10"
       stroke-width="2"
       d="M 46.6415,50.7282 C 43.4212,53.3084 35.6302,57.4758 24.441,50 c 0,0 -6.503,-2.9793 -3.7706,-12.8965 0.0185,-0.0673 0.0415,-0.1361 0.0669,-0.2011 L 24.8809,26.3046 C 24.9596,26.1033 25,25.8891 25,25.6729 v -2.4312 c 0,-1.3857 1.5443,-2.2121 2.6972,-1.4435 v 0 c 0.1657,0.1105 0.3452,0.1906 0.5387,0.2375 C 28.9437,22.2073 31,23.2047 31,29 c 0,9.0554 8.4083,7 8.4083,6 0,-1 0.9355,-12 10.29,-10 9.3545,2 13.1159,9.6753 7.4837,22.3333 0,0 -2.6008,2.0855 -4.182,3.6667 -2,2 -6,0 -6,0"
       id="path1" />
    <path
       fill="#ea5a47"
       stroke="#ea5a47"
       stroke-miterlimit="10"
       stroke-width="2"
       d="m 25,27 c 0,0 1.7612,2.6418 -2.1537,3.7936 -0.5305,0.1561 -0.9858,0.5054 -1.2736,0.9777 C 20.7301,33.1538 18.7811,35.6716 17,33 15.913,31.3696 16.3029,30.0345 16.8854,29.1553 17.4976,28.2314 17.293,26.9746 16.4269,26.2831 15.5863,25.612 14.4283,25 13,25 c -1.9171,0 0.6579,-1.6335 2.7667,-2.8128 0.8642,-0.4833 1.1619,-1.482 0.9677,-2.4528 C 16.6875,19.5 16.8419,19.3162 17,19 c 1,-2 1,-4 2,-5 1.5811,-1.5811 2,-3 7,-1 5.4139,2.1656 -0.8333,6.1667 -0.8333,6.1667"
       id="path2" />
    <path
       fill="#fcea2b"
       stroke="none"
       d="m 17,26.2831 c -0.9581,-0.8657 -2.278,-1.655 -3.9059,-1.655 -2.1851,0 0.7499,-2.107 3.1534,-3.6281"
       id="path3" />
  </g>
  <g
     id="hair"
     transform="translate(-11.327063,-11.012286)" />
  <g
     id="skin"
     transform="translate(-11.327063,-11.012286)" />
  <g
     id="skin-shadow"
     transform="translate(-11.327063,-11.012286)" />
  <g
     id="line"
     transform="translate(-11.327063,-11.012286)">
    <path
       fill="none"
       stroke="#000000"
       stroke-linecap="round"
       stroke-linejoin="round"
       stroke-miterlimit="10"
       stroke-width="2"
       d="m 55.311,42 c 0,0 0,10 -4.6773,10 0,0 2.8064,-6 -0.9355,-9"
       id="path4" />
    <path
       fill="none"
       stroke="#000000"
       stroke-linecap="round"
       stroke-linejoin="round"
       stroke-miterlimit="10"
       stroke-width="2"
       d="m 32.2365,54.0833 -0.7016,5.3333 c 0,0 -2.4166,0.5833 -2.4166,1.5833"
       id="path5" />
    <path
       fill="none"
       stroke="#000000"
       stroke-linecap="round"
       stroke-linejoin="round"
       stroke-miterlimit="10"
       stroke-width="2"
       d="m 33.7956,60 c 0,0 0,-1 -1.8709,-1"
       id="path6" />
    <path
       fill="none"
       stroke="#000000"
       stroke-linecap="round"
       stroke-linejoin="round"
       stroke-miterlimit="10"
       stroke-width="2"
       d="m 40.6556,54.0833 -0.7016,5.3333 c 0,0 -2.4166,0.5833 -2.4166,1.5833"
       id="path7" />
    <path
       fill="none"
       stroke="#000000"
       stroke-linecap="round"
       stroke-linejoin="round"
       stroke-miterlimit="10"
       stroke-width="2"
       d="m 42.2147,60 c 0,0 0,-1 -1.8709,-1"
       id="path8" />
    <path
       fill="none"
       stroke="#000000"
       stroke-linecap="round"
       stroke-linejoin="round"
       stroke-miterlimit="10"
       stroke-width="2"
       d="m 26.3119,36 c 0,0 -3.7418,9 3.7418,13 7.4836,4 14.9673,1 15.9028,-3 0.9355,-4 -2.0268,-3.6667 -5.223,-5.8333"
       id="path9" />
    <path
       fill="none"
       stroke="#000000"
       stroke-linecap="round"
       stroke-linejoin="round"
       stroke-miterlimit="10"
       stroke-width="2"
       d="m 25.1667,19.1667 c 0,0 6.2472,-4.0011 0.8333,-6.1667 -5,-2 -5.4189,-0.5811 -7,1 -1,1 -1,3 -2,5 -0.1581,0.3162 -0.3125,0.5 -0.2656,0.7344 0.1942,0.9709 -0.1036,1.9696 -0.9677,2.4528 C 13.6579,23.3665 11.0829,25 13,25 c 1.4283,0 2.5863,0.612 3.4269,1.2831 0.8661,0.6915 1.0707,1.9483 0.4585,2.8722 C 16.3029,30.0345 15.913,31.3696 17,33 c 1.7811,2.6716 3.7301,0.1538 4.5727,-1.2287 0.2878,-0.4722 0.7431,-0.8216 1.2736,-0.9777 C 26.7612,29.6418 25,27 25,27"
       id="path10" />
    <path
       fill="none"
       stroke="#000000"
       stroke-linecap="round"
       stroke-linejoin="round"
       stroke-miterlimit="10"
       stroke-width="2"
       d="m 28,22 c 0,0 3,0 3,7 0,9.0554 8.4083,7 8.4083,6 0,-1 0.9355,-12 10.29,-10 9.3545,2 13.0964,9.6667 7.4837,22.3333"
       id="path11" />
    <path
       fill="none"
       stroke="#000000"
       stroke-linecap="round"
       stroke-linejoin="round"
       stroke-miterlimit="10"
       stroke-width="2"
       d="m 48.2951,49.1667 c 0,0 -8.8868,10.8333 -23.8541,0.8333 0,0 -6.5482,-3 -3.7418,-13"
       id="path12" />
  </g>
</svg>
