<svg xmlns="http://www.w3.org/2000/svg" xmlns:svg="http://www.w3.org/2000/svg" id="emoji" width="59.609" height="52.167" version="1.1" viewBox="0 0 59.609 52.167"><g id="color" transform="translate(-5.573839,-12.092585)"><path id="path1" fill="#a57939" d="m 14.9052,16.5687 c 0,0 -4.0263,-2.1683 -5.1407,-0.4195 l 1.6065,2.5221 -4.0225,3.9723 -0.7365,2.2816 0.9757,1.7853 1.8769,-0.1152 c 0.6259,-0.0384 1.236,0.2068 1.6611,0.6678 v 0 c 0.277,0.3003 0.4081,0.7071 0.3587,1.1126 l -0.4904,4.0222 c 0,0 4.5938,0.25 2.7188,-6.6493 h 2.2324 l 0.1963,2.1493 0.6417,3.4545 c 0,0 0.8915,3.8863 1.5478,3.7955 0.6563,-0.0908 3.1319,2.4 3.1319,2.4 l 0.684,3.9778 3.161,3.4406 c 0,0 3.4359,11.6563 2.4673,14.5658 -0.9687,2.9096 -0.7567,3.3723 -0.7567,3.3723 l 2.5692,0.681 2.1608,-4.4433 -0.8899,-14.8962 c 0,0 6.9504,5.9571 15.246,1.3046 0,0 0.5321,5.4073 2.4139,6.3462 l -1.1489,6.8721 -1.9903,3.5042 1.396,0.9868 1.8119,-0.3503 3.0314,-6.0352 1.1038,-10.9629 1.178,-2.5774 5.3749,-7.1527 c 0,0 0.2703,-2.5759 -1.3092,-4.0424 -0.6279,-0.583 -1.7969,-1.3117 -2.9777,-1.9783 -2.1882,-1.2352 -4.6398,-1.9293 -7.1494,-2.0551 l -6.7474,-0.3382 c -1.5826,-0.0793 -3.1691,-0.015 -4.7401,0.1922 l -7.3223,0.9656 c -1.0298,0.1358 -2.0438,-0.3436 -2.5924,-1.2257 l -5.474,-8.8013 -2.6317,-2.125 c 0,0 -2.7959,-0.5961 -3.4259,-0.2044 z"/><path id="path2" fill="#6a462f" d="m 59.2752,36.1811 c 0,0 -1.7636,7.4875 -2.3125,10.3392 -0.3333,1.7317 -0.6959,3.819 -0.6959,3.819 l 1.1475,1.996 -4.25,11.6875 c 0,0 -3.8266,0.5271 -4.3891,-0.7632 l 3.1059,-4.6743 0.4566,-5.5625 0.4375,-7.6875 1.1251,-2.0016 z"/><path id="path3" fill="#6a462f" d="m 14.5877,17.9605 3.3466,-3.9634 5.2479,-0.5321 4.2805,3.7455 c 0,0 -6.75,-4.375 -9.1317,1.4375 z"/><polygon id="polygon3" fill="#6a462f" points="31.838 57.711 29.842 63.063 26.4 63.063 28.15 58.336 26.4 48.586 31.025 49.273"/><polygon id="polygon4" fill="#6a462f" points="46.916 59.567 45.379 62.273 45.793 63.063 48.15 63.586 50.9 59.059 52.338 53.023 48.4 53.523"/><path id="path4" fill="#6a462f" d="m 64.9627,26.5021 c 0,0 1.9578,10.3429 -5.8128,10.2131 0,0 -0.0556,-3.1065 -1.1839,-4.5765 l 2.4679,-2.5651 c 0,0 1.7521,-2.2515 1.8614,-2.3229 0.1093,-0.0714 2.6674,-0.7486 2.6674,-0.7486 z"/></g><g id="line" transform="translate(-5.573839,-12.092585)"><path id="path5" fill="none" stroke="#000" stroke-linecap="round" stroke-linejoin="round" stroke-width="2" d="m 10.9522,31.3524 c 2.1772,-4.1292 -0.8258,-4.955 -0.8258,-4.955 -1.7268,0.8258 -2.7778,-0.3003 -2.7778,-0.3003 -1.8018,-1.7267 0,-3.4535 0,-3.4535 4.0541,-2.8529 4.0225,-3.9723 4.0225,-3.9723 L 9.6435,15.9591 c 0,0 2.4349,-2.3246 4.9124,1.0538 0,0 5.931,-8.4085 12.4626,-0.6006"/><path id="path6" fill="none" stroke="#000" stroke-linecap="round" stroke-linejoin="round" stroke-width="2" d="m 13.9559,25.7358 c 0,0 3.9033,0.4364 3.9784,-3.7678"/><path id="path7" fill="none" stroke="#000" stroke-linecap="round" stroke-linejoin="round" stroke-width="2" d="m 18.3309,17.7091 c 0,0 2.2921,0.3123 3.875,3.875 0.7891,1.7761 4.4163,7.4998 4.8126,7.7292 0,0 25.5259,-5.6186 30.556,2.7899 0,0 1.7267,0.5255 2.7778,-2.3274 1.0511,-2.8529 3.6037,-3.2283 3.6037,-3.2283"/><path id="path8" fill="none" stroke="#000" stroke-linecap="round" stroke-linejoin="round" stroke-width="2" d="M 46.4012,45.3935 C 37.4671,50.2734 30.8474,44.0403 30.8474,44.0403 l 0.4836,8.8965 0.5,6.0223 -1.672,3.7114 c -0.1616,0.3586 -0.5184,0.5892 -0.9117,0.5892 H 27.783 c -0.7366,0 -1.2204,-0.7694 -0.9013,-1.4333 l 1.1632,-2.9869 c 0,0 -0.0504,-1.736 -0.5009,-5.4147 C 27.0935,49.7461 25.2166,44.716 25.2166,44.716 20.712,42.1634 21.4628,37.548 21.4628,37.548 15.7571,33.3966 16.147,25.232 16.147,25.232"/><path id="path9" fill="none" stroke="#000" stroke-linecap="round" stroke-linejoin="round" stroke-width="2" d="m 48.678,39.1979 c 0,0 -5.0582,6.4486 -0.1595,12.6987 0,0 0.1019,5.4161 -1.8125,8.0625 l -1.1586,1.7482 c -0.4405,0.6647 0.0361,1.5524 0.8336,1.5524 h 1.4454 c 0.2941,0 0.5696,-0.1269 0.7608,-0.3503 0.9164,-1.0706 3.4939,-4.5506 3.4939,-9.8253 0,-5.2399 1.0453,-9.0438 1.0453,-9.0438 5.0676,-4.4483 5.2568,-7.8591 5.2568,-7.8591"/><path id="path10" fill="none" stroke="#000" stroke-linecap="round" stroke-linejoin="round" stroke-width="2" d="m 56.0393,46.5204 c 0,0 -1.065,3.2324 1.375,5.3345 l -4.25,11.2083"/></g></svg>