<?xml version="1.0" encoding="UTF-8" standalone="no"?>
<svg
   id="emoji"
   viewBox="0 0 46.866112 44.318695"
   version="1.1"
   sodipodi:docname="1f415-200d-1f9ba.svg"
   width="46.866112"
   height="44.318695"
   xmlns:inkscape="http://www.inkscape.org/namespaces/inkscape"
   xmlns:sodipodi="http://sodipodi.sourceforge.net/DTD/sodipodi-0.dtd"
   xmlns="http://www.w3.org/2000/svg"
   xmlns:svg="http://www.w3.org/2000/svg">
  <defs
     id="defs16" />
  <sodipodi:namedview
     id="namedview16"
     pagecolor="#ffffff"
     bordercolor="#000000"
     borderopacity="0.25"
     inkscape:showpageshadow="2"
     inkscape:pageopacity="0.0"
     inkscape:pagecheckerboard="0"
     inkscape:deskcolor="#d1d1d1" />
  <g
     id="color"
     transform="translate(-12.483601,-14.960522)">
    <g
       id="g3">
      <path
         fill="#6a462f"
         d="m 43.7705,56.9941 c 2.2959,-3.7382 3.2914,-8.1306 2.8315,-12.4933 l -2.099,-3.083 -4.1079,-1.5344 c 0.0547,0.6407 1.5706,5.5234 2.0129,6.7978 0.0998,0.2885 0.1443,0.5932 0.131,0.8982 -0.248,5.4983 -1.561,6.9861 -1.8953,7.2784 -0.0212,0.0166 -0.0421,0.0331 -0.0625,0.05 l -0.0157,0.0109 0.0025,0.0023 c -0.3654,0.3104 -0.5898,0.7553 -0.622,1.2337 -0.0282,1.0642 0.804,1.9536 1.8677,1.9961 0.6068,0.0467 1.2021,-0.1846 1.6182,-0.6287 l 0.0024,0.0022 0.0078,-0.0123 c 0.1385,-0.1524 0.2496,-0.3276 0.3284,-0.5179 z"
         id="path1" />
      <path
         fill="#6a462f"
         d="m 33.2163,56.1062 c 0.1825,-2.433 0.2364,-4.874 0.1615,-7.3127 0.1175,-1.8275 -0.2525,-3.6534 -1.0721,-5.291 l -2.1249,0.393 -1.1014,2.581 0.8961,2.64 c 1.1916,3.3885 0.69,4.9745 0.1641,5.6834 -0.231,0.1377 -0.4359,0.3152 -0.605,0.5243 l -0.0077,0.0033 0.0036,0.0014 c -0.4493,0.5203 -0.5685,1.2488 -0.3085,1.8852 0.5108,0.9717 1.7097,1.3496 2.6854,0.8465 0.5521,-0.2383 0.9839,-0.6904 1.1967,-1.2528 v 0 c 0.0019,-0.009 0.0079,-0.0189 0.01,-0.028 0.0766,-0.216 0.1113,-0.4446 0.1022,-0.6736 z"
         id="path2" />
      <path
         fill="#a57939"
         d="m 20.273,26.9982 c 1.7688,2.6878 2.7536,5.8154 2.8439,9.0318 6e-4,0.0317 0.0045,0.0632 0.0116,0.0941 0.0861,0.376 0.7177,2.9385 2.1366,3.9038 0,0 2.4232,2.3934 -1.8351,3.686 0,0 -6.8524,2.4152 -4.76,6.544 0,0 1.4825,2.5775 3.3544,0.0745 l 0.0981,-0.1931 c 0.1594,-0.5542 0.1191,-1.1472 -0.1146,-1.6752 -0.0872,-0.197 -0.0112,-0.4996 0.1523,-0.6399 1.1128,-0.9555 2.6275,-1.2965 4.0426,-0.9097 0,0 2.3224,0.981 5.2257,-3.5753 l 0.0925,-0.1077 c 0.4695,-0.3905 4.0612,-3.1669 10.5676,-2.5245 0.1221,0.012 0.2354,0.062 0.3235,0.1473 0.8537,0.8263 5.6801,5.4382 8.539,6.8892 l 0.1303,0.0974 c 1.6847,1.7927 2.3858,4.2973 1.875,6.7056 l -0.1376,0.2509 c -0.4225,0.4303 -1.8331,2.1206 0.8902,3.1557 l 0.2203,0.0382 c 0.579,-0.0218 3.1323,-0.3125 2.0293,-3.7774 C 55.9425,54.1667 55.934,54.1173 55.9332,54.0674 55.929,53.3448 55.8451,47.1061 54.1886,43.6261 l -0.1397,-0.1783 c -0.3729,-0.3079 -1.8735,-2.126 -0.7407,-10.9249 0.0058,-0.0447 0.1809,-0.1466 0.1682,-0.19 -0.1965,-0.6755 1.1235,-2.7299 1.7435,-3.3276 v 0 c 0.1846,-0.1662 6.9776,-6.3288 2.7418,-10.6498 -0.0293,-0.03 -0.2226,-0.2612 -0.5211,-0.4839 -0.442,-0.3808 -3.6115,-3.0777 -7.1093,-1.2905 -1.0758,0.5497 -1.8929,1.4907 -2.4787,2.5472 -0.3561,0.6423 -0.6563,1.3153 -0.8965,2.0116 -0.7462,2.6171 1.0646,4.7976 2.0617,2.2655 0.09,-0.2279 1.31,-2.0434 1.396,-2.3089 0.0269,-0.0863 0.075,-0.1644 0.14,-0.2272 0.5137,-0.4752 2.9136,-2.4076 4.1177,1.7126 0,0 1.069,3.6293 -4.4507,5.489 -0.1282,0.0432 -0.269,0.0402 -0.3923,-0.0154 -0.7748,-0.3489 -4.0527,-1.5724 -9.2308,-0.0788 l -0.0237,0.006 c -0.3059,0.0528 -10.2282,1.7021 -11.3468,-6.5985 0,0 -0.7395,-4.5765 -3.08,-4.64 L 20.94,15.9578 c 0,0 -2.2711,-0.0165 -2.6165,1.6938 0,0 -0.0406,1.4028 -2.6234,1.3286 -0.6629,0.0025 -3.1142,-0.4215 -2.0858,2.3116 0.0461,0.1153 0.0517,0.2429 0.0159,0.3618 -0.2187,0.6733 -0.7873,3.15 2.5768,3.4086 2e-4,0 2.943,-0.1494 4.066,1.9358 z"
         id="path3" />
    </g>
  </g>
  <g
     id="line"
     transform="translate(-12.483601,-14.960522)">
    <g
       id="g15">
      <path
         fill="none"
         stroke="#000000"
         stroke-linecap="round"
         stroke-miterlimit="10"
         stroke-width="2"
         d="m 40.82,41.5656 c 0.2106,0.6231 1.7517,4.7609 1.8826,5.1156 0.106,0.2871 0.1534,0.5925 0.1394,0.8982 -0.2637,5.4983 -1.66,6.9861 -2.0154,7.2784 -0.0225,0.0166 0.0218,-0.0174 0,0"
         id="path4" />
      <path
         fill="none"
         stroke="#000000"
         stroke-linecap="round"
         stroke-miterlimit="10"
         stroke-width="2"
         d="M 43.0515,57.6769 C 46.925,54.223 46.5947,44.5008 46.5947,44.5008"
         id="path5" />
      <path
         fill="none"
         stroke="#000000"
         stroke-miterlimit="10"
         stroke-width="2"
         d="m 40.8261,54.8578 c -0.3899,0.3337 -0.6522,0.7922 -0.7423,1.2974 -0.0706,1.0101 0.6736,1.8938 1.681,1.9961 0.5591,0.041 1.1029,-0.1938 1.4565,-0.6287 l 0.0022,0.0022"
         id="path6" />
      <path
         fill="none"
         stroke="#000000"
         stroke-miterlimit="10"
         stroke-width="2"
         d="m 29.0794,46.4765 0.8961,2.64 c 1.1916,3.3885 0.69,4.9745 0.1641,5.6834 l -0.6091,0.529 c -0.4493,0.5203 -0.5685,1.2488 -0.3085,1.8852 0.5108,0.9717 1.7097,1.3496 2.6854,0.8465 0.5521,-0.2383 0.9839,-0.6904 1.1967,-1.2528 v 0 c 0.0019,-0.009 0.0079,-0.0189 0.01,-0.028 0.0766,-0.2159 0.1114,-0.4444 0.1024,-0.6733 0.1825,-2.433 0.2364,-4.874 0.1615,-7.3127 0.0507,-0.77 0.0132,-1.5433 -0.112,-2.3047 -0.1589,-1.0402 -0.4829,-2.0484 -0.96,-2.9863"
         id="path7" />
      <g
         id="g14">
        <path
           fill="none"
           stroke="#000000"
           stroke-linecap="round"
           stroke-miterlimit="10"
           stroke-width="2"
           d="m 18.4664,47.75 c -0.2448,0.8325 -0.1721,1.7262 0.204,2.5082 0.3765,0.9688 1.4638,1.4528 2.4356,1.084 0.8852,-0.4056 0.8639,-1.798 0.56,-2.8258"
           id="path8" />
        <path
           fill="none"
           stroke="#000000"
           stroke-linecap="round"
           stroke-miterlimit="10"
           stroke-width="2"
           d="m 21.6208,48.366 c 0.9198,-1.083 2.2898,-1.6784 3.7092,-1.6119 0.1856,0.002 0.3701,0.0299 0.548,0.083 1.3948,0.5023 2.9482,-0.0794 3.67,-1.3743"
           id="path9" />
        <g
           id="g11">
          <path
             fill="none"
             stroke="#000000"
             stroke-linecap="round"
             stroke-miterlimit="10"
             stroke-width="2"
             d="m 53.42,33.0552 -0.2959,5.6328 c 0,0 -0.2094,3.6923 0.8078,4.5412 0.9775,1.3819 1.4286,3.0678 1.2718,4.7532 0,0 0.5363,5.7576 0.6973,7.9908"
             id="path10" />
          <path
             fill="none"
             stroke="#000000"
             stroke-linecap="round"
             stroke-miterlimit="10"
             stroke-width="2"
             d="m 48.4465,23.8236 c 2.5433,-6.4561 5.1809,-3.19 5.1809,-3.19 3.1773,3.94 -0.9929,6.3629 -2.8305,7.1889 -0.4465,0.184 -0.949,0.1768 -1.39,-0.02 -2.5616,-1.0291 -8.8257,0.179 -8.8257,0.179 -7.8521,0.7332 -9.4782,-2.556 -9.4782,-2.556 -1.2138,-2.3231 -2.2386,-4.7402 -3.0644,-7.2278 -0.1591,-0.524 -0.5432,-0.95 -1.0479,-1.1625 -1.6668,-0.5622 -3.3983,-0.9099 -5.1529,-1.0346 -3.1365,-0.36 -3.5144,1.6507 -3.5144,1.6507 -0.532,1.369 -1.4378,1.3242 -1.4378,1.3242 l -1.8637,0.0069 c -2.3112,0.1289 -1.3312,2.5027 -1.3312,2.5027 -0.5857,3.0885 3.0884,3.7274 3.0884,3.7274 1.1941,0.028 2.3342,0.5031 3.1949,1.3313 1.5723,2.3456 2.5751,5.0259 2.9287,7.8275 0.213,3.6741 1.7347,4.9614 1.7347,4.9614 2.8549,2.7708 0,3.82 0,3.82 -4.2084,1.5247 -5.75,3.2313 -6.1435,4.6061"
             id="path11" />
        </g>
        <path
           fill="none"
           stroke="#000000"
           stroke-linecap="round"
           stroke-miterlimit="10"
           stroke-width="2"
           d="m 55.9007,55.9732 c 0.1855,1.6659 -0.9823,2.0907 -2.0845,2.0184 -1.0393,-0.0069 -1.8787,-0.8506 -1.88,-1.89 0.0725,-0.4946 0.1856,-0.9824 0.3381,-1.4584"
           id="path12" />
        <path
           fill="none"
           stroke="#000000"
           stroke-linecap="round"
           stroke-miterlimit="10"
           stroke-width="2"
           d="m 55.9007,55.9732 c 0.0105,0.1456 0.02,0.2772 0.0266,0.39"
           id="path13" />
        <path
           fill="none"
           stroke="#000000"
           stroke-linecap="round"
           stroke-miterlimit="10"
           stroke-width="2"
           d="m 52.125,55.2574 c 0.3731,-1.245 1.0885,-4.4929 -0.6282,-7.0156 -0.1283,-0.1855 -0.2917,-0.344 -0.4809,-0.4666 -1.1305,-0.742 -5.4176,-3.6535 -7.3255,-6.34 -0.2635,-0.362 -0.6729,-0.5898 -1.1195,-0.6229 -2.4893,-0.2181 -10.3347,-0.4413 -13.209,4.982"
           id="path14" />
      </g>
    </g>
  </g>
  <g
     id="color-foreground"
     transform="translate(-12.483601,-14.960522)">
    <g
       id="g16">
      <path
         fill="#d22f27"
         d="m 23.3262,31.4329 c 0,0 4.8153,1.0511 7.93,-4.3433 0,0 2.3223,2.14 8.043,1.9814 -1.0993,3.4721 -1.2913,7.1678 -0.5577,10.7351 -2.5243,0.1145 -4.9811,0.852 -7.1511,2.1467 -1.3621,-1.0448 -3.106,-1.4575 -4.7919,-1.134 -0.2674,-0.8036 -0.7364,-1.5252 -1.3622,-2.0958 0,0 -1.3572,-1.0107 -1.5332,-4.3175 z"
         id="path15" />
      <line
         x1="34.143902"
         x2="29.563299"
         y1="34.7481"
         y2="34.7481"
         fill="none"
         stroke="#ffffff"
         stroke-miterlimit="10"
         stroke-width="2"
         id="line15" />
      <line
         x1="31.849701"
         x2="31.849701"
         y1="37.038399"
         y2="32.457802"
         fill="none"
         stroke="#ffffff"
         stroke-miterlimit="10"
         stroke-width="2"
         id="line16" />
    </g>
  </g>
</svg>
