<svg xmlns="http://www.w3.org/2000/svg" xmlns:svg="http://www.w3.org/2000/svg" id="emoji" width="54.1" height="56.214" version="1.1" viewBox="0 0 54.1 56.214"><g id="color" transform="translate(-8.5944,-8.7856998)"><path id="path1" fill="#fcea2b" stroke="#fcea2b" stroke-miterlimit="10" stroke-width="1.8" d="m 36.1089,44.1242 c 0,0 21.3368,-0.7112 10.6684,-20.6256 0,0 -2.8449,-7.8235 -10.6684,-7.8235 -2.2075,0 -4.0187,0.5096 -5.4973,1.2733 -3.7618,1.9427 -5.3718,5.5292 -5.8823,6.5502 -0.7113,1.4225 -11.3797,19.2032 11.3796,20.6256 z"/><path id="path2" fill="#f1b31c" stroke="none" d="m 35.3719,30.6032 c 0,0 5.9251,-0.2907 0,5.2324 0,0 -5.9251,-5.2324 0,-5.2324 z"/><path id="path3" fill="#fff" stroke="none" d="M 61.6942,37.9501 C 61.6942,52.3371 50.0313,64 35.6443,64 21.2573,64 9.5944,52.3371 9.5944,37.9501 l 7.4428,3.7214 6.5125,-4.6518 8.3732,5.5821 6.2024,-5.5821 8.1758,4.7364 7.0199,-5.6667 z"/><path id="path4" fill="#d0cfce" stroke="none" d="M 53.321,36.0894 C 51.3406,47.7279 46.2215,57.4929 35.6443,64 50.0313,64 61.6942,52.337 61.6942,37.9501 Z"/></g><g id="line" transform="translate(-8.5944,-8.7856998)"><circle id="circle4" cx="30.908" cy="26.363" r="2.368" fill="#000" stroke="none"/><circle id="circle5" cx="40.381" cy="26.363" r="2.368" fill="#000" stroke="none"/><line id="line5" x1="34.796" x2="33.433" y1="14.903" y2="9.786" fill="none" stroke="#000" stroke-linecap="round" stroke-linejoin="round" stroke-miterlimit="10" stroke-width="2"/><line id="line6" x1="36.828" x2="36.828" y1="15.706" y2="12.154" fill="none" stroke="#000" stroke-linecap="round" stroke-linejoin="round" stroke-miterlimit="10" stroke-width="2"/><line id="line7" x1="38.999" x2="40.381" y1="15.903" y2="9.786" fill="none" stroke="#000" stroke-linecap="round" stroke-linejoin="round" stroke-miterlimit="10" stroke-width="2"/><path id="path7" fill="none" stroke="#000" stroke-linecap="round" stroke-linejoin="round" stroke-miterlimit="10" stroke-width="2" d="m 35.3719,30.6032 c 0,0 5.9251,-0.2907 0,5.2324 0,0 -5.9251,-5.2324 0,-5.2324 z"/><path id="path8" fill="none" stroke="#000" stroke-linecap="round" stroke-linejoin="round" stroke-miterlimit="10" stroke-width="2" d="m 49.7637,33.4191 c 0.0286,-2.6167 -0.8175,-5.8717 -2.9865,-9.9204 0,0 -2.8449,-7.8235 -10.6684,-7.8235 -2.2075,0 -4.0187,0.5096 -5.4973,1.2733 -3.7618,1.9427 -5.3718,5.5292 -5.8823,6.5502 -0.3479,0.6959 -3.0787,5.3065 -3.1133,10.0017"/><path id="path9" fill="none" stroke="#000" stroke-linecap="round" stroke-linejoin="round" stroke-miterlimit="10" stroke-width="2" d="M 61.6942,37.9501 C 61.6942,52.3371 50.0313,64 35.6443,64 21.2573,64 9.5944,52.3371 9.5944,37.9501 l 7.4428,3.7214 6.5125,-4.6518 8.3732,5.5821 6.2024,-5.5821 8.1758,4.7364 7.0199,-5.6667 z"/></g></svg>