<svg xmlns="http://www.w3.org/2000/svg" xmlns:svg="http://www.w3.org/2000/svg" id="emoji" width="52.998" height="44.813" version="1.1" viewBox="0 0 52.998 44.813"><g id="color" transform="translate(-12.001672,-16.186754)"><path id="path1" fill="#fcea2b" d="m 25.2143,36.3299 c 1.2659,2.4576 2.0766,6.0273 1.1466,11.0493 -0.1711,0.9241 -0.5658,1.8021 -1.1774,2.5156 -0.8871,1.0349 -2.1394,2.1946 -2.2737,0.6823 -0.2101,-2.3671 2.7077,-6.2436 -1.6203,-12.2319 -3.1554,-4.3658 -4.384,-7.6141 -4.384,-7.6141 l 1.3924,0.3202 c 2.9593,0.6805 5.5258,2.5791 6.9163,5.2786 z"/><path id="path2" fill="#61b2e4" d="m 17.6875,19.0625 c 0,0 13.1478,-1.8668 15.2103,-1.0536 2.0625,0.8132 17.0185,21.3663 -1.4898,37.27 0,0 0.092,-3.7789 -0.908,-5.7789 -1,-2 -1.75,-3.875 -0.375,-4.9375 C 31.5,43.5 26.7616,47.75 26.7616,47.75 c 0,0 -1.3944,-12.5467 -4.3944,-15.5467 l 5.8935,3.3461 c 0,0 3.2393,-8.0495 2.2393,-11.0495 -1,-3 -3.625,-5.875 -12.8125,-5.4375 z"/><path id="path3" fill="#61b2e4" d="m 44.5071,23.3149 c 4.8883,5.451 11.6479,19.6212 -1.2262,32.1868 -0.282,0.2752 -0.3795,0.6606 -0.384,1.0546 -0.0104,0.9204 -1.6691,2.3046 -1.6691,2.3046 21.7369,-6.2593 14.7136,-30.274 11.4868,-32.7264 -0.3058,-0.2324 -0.4429,-0.614 -0.7938,-0.77 -0.9298,-0.4135 -3.628,-4.3936 -5.9234,-4.7821 -1.5304,-0.259 -2.5265,1.5769 -1.4902,2.7325 z"/><path id="path4" fill="#fcea2b" d="m 53.3947,29.1554 c 4.1891,10.1345 2.4448,15.7111 2.4448,15.7111 0,0 -0.2911,-2.8084 6.4931,-4.8044 0.4344,-0.1278 0.5296,-0.7003 0.1519,-0.9502 -1.5375,-1.0175 -4.3456,-3.2037 -5.236,-6.0797 -1.2484,-4.0324 -3.8538,-3.8768 -3.8538,-3.8768 z"/><path id="path5" fill="#f1b31c" d="m 34.5728,18.0089 c 0,0 14.0671,22.0723 -3.5728,39.9911 L 41.454,57.4486 C 59.1125,40.421 44.6143,20.008 44.6143,20.008 c 0,0 -5.4687,-2.9903 -10.0415,-1.9991 z"/><path id="path6" fill="#92d3f5" d="m 49,39.7431 c 0,0 -4.4523,-12.9405 -7.7915,-9.7054 -3.3392,3.2351 -1.789,8.0166 -0.9044,9.7054 0,0 0.0873,1.2787 5.5047,2.2569"/></g><g id="line" transform="translate(-12.001672,-16.186754)"><path id="path7" fill="none" stroke="#000" stroke-linecap="round" stroke-linejoin="round" stroke-width="2" d="m 13,20 c 0,0 35.5,-12.25 44.75,14.375 0,0 1.25,4.625 6.25,3.625 0,0 -2,2 0,3 0,0 -4.5,-1 -6.75,2.5 C 55,47 56,54 41,60 v 0 c 0.6448,-0.9672 -0.219,-2.2288 -1.3514,-1.9661 -2.6933,0.6246 -6.671,1.1026 -10.6487,-0.0339 0,0 3.5,-5.5 1.25,-8.75 -2.25,-3.25 -0.25,-5.25 -0.25,-5.25 0,0 -4,9 -8,8 0,0 2.5,-7.5 0.25,-11.25 C 19.9999,37 14.9999,30 15.9999,30 c 1,0 8,1 12,5 0,0 2,-5.5 2.5,-8.25 0.5,-2.75 1.5,-8.75 -17.5,-6.75 z"/><path id="path8" fill="none" stroke="#000" stroke-linecap="round" stroke-linejoin="round" stroke-width="2" d="m 48,39 c 0,0 -4,-12 -7,-9 -3,3 -1.8069,7.45 -0.7042,9.5144 0.3465,0.6487 -0.0299,0.6714 4.8372,1.5785"/><path id="path9" fill="none" stroke="#000" stroke-linecap="round" stroke-linejoin="round" stroke-width="2" d="m 33.5728,18.0089 c 0,0 14.5212,21.521 -3.1188,39.4397"/><path id="path10" fill="none" stroke="#000" stroke-linecap="round" stroke-linejoin="round" stroke-width="2" d="m 44.6143,20.008 c 0,0 14.0984,20.5735 -3.56,37.6011"/><path id="path11" fill="none" stroke="#000" stroke-linecap="round" stroke-linejoin="round" stroke-width="2" d="m 54.0669,50.5597 c 0,0 3.3113,-14.2907 -0.8778,-24.4252"/><path id="path12" fill="none" stroke="#000" stroke-linecap="round" stroke-linejoin="round" stroke-width="2" d="m 20.7477,31.0566 c 0,0 8.9354,6.0382 5.4487,18.6186"/></g></svg>