<svg xmlns="http://www.w3.org/2000/svg" xmlns:svg="http://www.w3.org/2000/svg" id="emoji" width="57.45" height="46.194" version="1.1" viewBox="0 0 57.45 46.194"><g id="color" transform="translate(-5.9741998,-12.0044)"><path id="path1" fill="#6a462f" stroke="none" d="M 51,35 C 51,46.0457 42.0457,55 31,55 19.9543,55 11,46.0457 11,35 11,23.9543 19.9543,15 31,15 c 3.2428,0 6.3053,0.7718 9.0139,2.1416 C 46.5315,20.4378 51,27.1971 51,35 Z"/><path id="path2" fill="#6a462f" stroke="none" d="M 39.5833,16.3333 C 39.5833,16.3333 48,14 49,14 c 1,0 0.1667,5.3333 -1.9167,8.1667"/><path id="path3" fill="#6a462f" stroke="none" d="m 49.2799,29.5668 c 0,0 10.2483,-7.369 12.3507,-6.2343 2.1024,1.1347 -0.1773,20.0286 -4.6971,22.7493 0,0 -4.131,0.7224 -8.3412,-3.5419"/><polyline id="polyline3" fill="#6a462f" stroke="none" points="46.498 48.182 48.449 55.544 40.825 52.403"/><path id="path4" fill="#a57939" stroke="none" d="m 12,40.9264 c 0,0 3,13.3136 19.5,14.0533 C 48,55.7193 52,35.9955 50,35.9955 c -2,0 -5,6.9034 -7,3.9448 -2.4807,-3.6697 -3,-4.931 -5,-3.9448 -1.2649,0.6237 -3,7.8895 -5,3.9448 -1.8439,-3.6369 -3,-3.9448 -3,-3.9448 -4,0 -3,4.931 -6,4.931 -3,0 -2,-3.9448 -5,-4.931 -3,-0.9862 -7,4.9309 -7,4.9309"/></g><g id="line" transform="translate(-5.9741998,-12.0044)"><line id="line4" x1="10.526" x2="7.474" y1="33.46" y2="31.54" fill="none" stroke="#000" stroke-linecap="round" stroke-linejoin="round" stroke-miterlimit="10" stroke-width="3"/><line id="line5" x1="10.293" x2="7.707" y1="36.428" y2="37.572" fill="none" stroke="#000" stroke-linecap="round" stroke-linejoin="round" stroke-miterlimit="10" stroke-width="3"/><line id="line6" x1="14" x2="12" y1="46" y2="47" fill="none" stroke="#000" stroke-linecap="round" stroke-linejoin="round" stroke-miterlimit="10" stroke-width="2"/><line id="line7" x1="18" x2="17" y1="51" y2="52" fill="none" stroke="#000" stroke-linecap="round" stroke-linejoin="round" stroke-miterlimit="10" stroke-width="2"/><line id="line8" x1="37.179" x2="37.821" y1="54.87" y2="56.13" fill="none" stroke="#000" stroke-linecap="round" stroke-linejoin="round" stroke-miterlimit="10" stroke-width="2"/><line id="line9" x1="48.114" x2="49.886" y1="45.819" y2="47.181" fill="none" stroke="#000" stroke-linecap="round" stroke-linejoin="round" stroke-miterlimit="10" stroke-width="2"/><line id="line10" x1="48.706" x2="50.87" y1="25.572" y2="24.337" fill="none" stroke="#000" stroke-linecap="round" stroke-linejoin="round" stroke-miterlimit="10" stroke-width="2"/><line id="line11" x1="33.906" x2="34.094" y1="14.996" y2="13.004" fill="none" stroke="#000" stroke-linecap="round" stroke-linejoin="round" stroke-miterlimit="10" stroke-width="2"/><line id="line12" x1="26.563" x2="26.195" y1="15.181" y2="13.063" fill="none" stroke="#000" stroke-linecap="round" stroke-linejoin="round" stroke-miterlimit="10" stroke-width="2"/><line id="line13" x1="20.148" x2="18.852" y1="17.911" y2="16.089" fill="none" stroke="#000" stroke-linecap="round" stroke-linejoin="round" stroke-miterlimit="10" stroke-width="2"/><line id="line14" x1="15" x2="13" y1="23" y2="21" fill="none" stroke="#000" stroke-linecap="round" stroke-linejoin="round" stroke-miterlimit="10" stroke-width="2"/><line id="line15" x1="30.614" x2="30.386" y1="55.802" y2="57.198" fill="none" stroke="#000" stroke-linecap="round" stroke-linejoin="round" stroke-miterlimit="10" stroke-width="2"/><line id="line16" x1="23.889" x2="23.111" y1="54.91" y2="56.09" fill="none" stroke="#000" stroke-linecap="round" stroke-linejoin="round" stroke-miterlimit="10" stroke-width="2"/><path id="path16" fill="none" stroke="#000" stroke-linecap="round" stroke-linejoin="round" stroke-miterlimit="10" stroke-width="2" d="M 39.5833,16.3333 C 39.5833,16.3333 48,14 49,14 c 1,0 0.1667,5.3333 -1.9167,8.1667"/><path id="path17" fill="none" stroke="#000" stroke-linecap="round" stroke-linejoin="round" stroke-miterlimit="10" stroke-width="2" d="m 50.2961,29.631 c 0,0 9.4861,-7.4171 11.4192,-6.2931 1.933,1.124 -0.262,20.0233 -4.4431,22.7653 0,0 -3.8127,0.7425 -7.6739,-3.4998"/><polyline id="polyline17" fill="none" stroke="#000" stroke-linecap="round" stroke-linejoin="round" stroke-miterlimit="10" stroke-width="2" points="46.498 48.182 48.449 55.544 40.825 52.403"/><path id="path18" fill="none" stroke="#000" stroke-linecap="round" stroke-linejoin="round" stroke-miterlimit="10" stroke-width="2" d="m 12,41 c 0,0 4,-6 7,-5 3,1 2,5 5,5 3,0 2,-5 6,-5 0,0 1.1561,0.3122 3,4 2,4 3.7351,-3.3675 5,-4 2,-1 2.5193,0.279 5,4 2,3 5,-4 7,-4"/><path id="path19" fill="none" stroke="#000" stroke-linecap="round" stroke-linejoin="round" stroke-miterlimit="10" stroke-width="2" d="M 51,35 C 51,46.0457 42.0457,55 31,55 19.9543,55 11,46.0457 11,35 11,23.9543 19.9543,15 31,15 c 3.2428,0 6.3053,0.7718 9.0139,2.1416 C 46.5315,20.4378 51,27.1971 51,35 Z"/><circle id="circle19" cx="34" cy="50" r="2" fill="#000" stroke="none"/><circle id="circle20" cx="40" cy="44" r="2" fill="#000" stroke="none"/><circle id="circle21" cx="22" cy="46" r="2" fill="#000" stroke="none"/><circle id="circle22" cx="30" cy="44" r="1" fill="#000" stroke="none"/><circle id="circle23" cx="17" cy="42" r="1" fill="#000" stroke="none"/><circle id="circle24" cx="27" cy="50" r="1" fill="#000" stroke="none"/><circle id="circle25" cx="40" cy="49" r="1" fill="#000" stroke="none"/></g></svg>