<?xml version="1.0" encoding="UTF-8" standalone="no"?>
<svg
   id="emoji"
   viewBox="0 0 62.606869 53.550396"
   version="1.1"
   sodipodi:docname="1f42d.svg"
   width="62.606869"
   height="53.550396"
   xmlns:inkscape="http://www.inkscape.org/namespaces/inkscape"
   xmlns:sodipodi="http://sodipodi.sourceforge.net/DTD/sodipodi-0.dtd"
   xmlns="http://www.w3.org/2000/svg"
   xmlns:svg="http://www.w3.org/2000/svg">
  <defs
     id="defs7" />
  <sodipodi:namedview
     id="namedview7"
     pagecolor="#ffffff"
     bordercolor="#000000"
     borderopacity="0.25"
     inkscape:showpageshadow="2"
     inkscape:pageopacity="0.0"
     inkscape:pagecheckerboard="0"
     inkscape:deskcolor="#d1d1d1" />
  <g
     id="color"
     transform="translate(-5.6965343,-9.3037385)">
    <path
       fill="#d0cfce"
       d="M 21.7898,17.0696 16.2376,11.5548 C 15.1843,10.6704 13.7737,11.0036 12.4367,11.326 l -0.1283,0.0309 c -0.97,0.2339 -1.6807,0.7571 -2.2845,1.5514 L 7.8485,16.1616 C 7.1481,17.083 7.2317,18.326 7.3945,19.4719 l 0.7144,5.176 c 0.0929,0.6534 0.3338,1.2769 0.7043,1.823 l 2.9633,4.1985 c 0.3294,0.4854 0.7539,0.8988 1.2479,1.2152 l 0.6261,0.401 c 1.4585,0.9342 4.5319,1.7084 2.2028,5.1257 l -0.5496,4.2089 c -0.0838,0.5054 -0.0965,1.6388 0,2.1419 l 0.8244,5.0684 c 0.1383,0.7208 0.5985,1.8179 1.0686,2.3816 l 1.9236,2.1678 c 0.4137,0.4961 1.0909,0.9638 1.678,1.2332 l 10.145,4.5411 3.1033,1.545 c 0.6694,0.3293 1.3242,0.9575 2.069,0.9152 l 0.7909,-0.0449 c 0.5872,-0.0333 1.1614,-0.1859 1.6877,-0.4483 l 2.5888,-1.291 c 0.0691,-0.0344 0.139,-0.067 0.2098,-0.0977 l 9.785,-4.2431 c 0.3436,-0.149 0.6665,-0.342 0.9605,-0.574 l 3.1346,-2.4742 c 0.7805,-0.6161 2.2412,-3.5271 2.4588,-4.4974 l 0.422,-3.9204 c 0.1136,-0.5064 0.1352,-1.0291 0.0639,-1.5432 l -0.588,-7.204 C 57.4185,33.755 57.9303,34.4926 59.1349,33.54 l 0.7478,-0.5914 c 0.3447,-0.2726 0.6458,-0.596 0.8932,-0.9591 l 3.9919,-5.8605 c 0.3464,-0.5086 0.5805,-1.0851 0.6867,-1.6913 l 0.8908,-5.0859 c 0.1252,-0.7148 0.0688,-1.4496 -0.164,-2.137 L 65.2086,14.3432 C 64.8982,13.4268 64.29,12.6408 63.4809,12.1103 l -1.3523,-0.8866 c -1.4326,-0.9392 -2.7883,-0.1713 -4.2277,0.7574 l -1.3094,1.0026 c -0.21,0.1355 -0.4078,0.2889 -0.5914,0.4585 l -3.8723,3.7008 c -2.4911,4.0854 -4.3608,1.0929 -5.9372,0.4037 l -3.1967,-1.0016 c -0.4629,-0.2024 -1.2561,-0.566 -1.7604,-0.5979 h -7.3072 c -0.5376,-0.034 -7.3695,2.5222 -7.3695,2.5222 -1.182,0.5423 -2.6294,0.6851 -3.5373,-0.2459 -0.3021,-0.3099 -0.9443,-0.9143 -1.2296,-1.1539 z"
       id="path1" />
    <path
       fill="#ffa7c0"
       d="m 60.1806,13.2168 -0.3822,0.3024 c -0.2975,0.2353 -0.5511,0.5212 -0.7494,0.8445 l -4.2829,6.9842 c -0.3116,0.5081 -0.4765,1.0925 -0.4765,1.6884 v 7.9029 c 0,0.5676 0.1448,1.1255 0.4322,1.6148 0.0084,0.0144 0.017,0.0289 0.0256,0.0435 1.0318,1.7407 3.4161,2.0759 4.9202,0.7222 l 3.1217,-2.8096 c 0.2928,-0.2635 0.535,-0.5784 0.7145,-0.9291 l 2.2714,-4.4377 c 0.1755,-0.3429 0.2882,-0.7144 0.3329,-1.0969 l 0.675,-5.7795 C 66.8522,17.675 66.7563,17.0755 66.5058,16.5348 L 65.8922,15.21 C 65.7443,14.8907 65.5453,14.5977 65.3029,14.3427 L 64.526,13.525 c -1.1508,-1.2112 -3.0353,-1.3448 -4.3455,-0.3083 z"
       id="path2" />
    <path
       fill="#ffa7c0"
       d="m 13.6032,13.2895 0.3822,0.3024 c 0.2974,0.2353 0.5511,0.5212 0.7494,0.8445 l 4.2829,6.9842 c 0.3116,0.5081 0.4765,1.0924 0.4765,1.6884 v 7.9029 c 0,0.5676 -0.1448,1.1255 -0.4322,1.6148 -0.0084,0.0144 -0.017,0.0289 -0.0256,0.0435 -1.0318,1.7407 -3.2272,1.8327 -4.7313,0.4791 L 11.3649,30.2922 C 11.0721,30.0287 10.83,29.7138 10.6505,29.3631 L 8.458,25.3753 C 8.2825,25.0324 8.1705,24.5453 8.1258,24.1627 L 7.4332,18.3865 C 7.3641,17.7946 7.46,17.1951 7.7105,16.6544 L 7.8917,15.2828 C 8.0396,14.9635 8.2386,14.6706 8.481,14.4155 l 0.7769,-0.8177 c 1.1508,-1.2112 3.0353,-1.3449 4.3455,-0.3083 z"
       id="path3" />
  </g>
  <g
     id="line"
     transform="translate(-5.6965343,-9.3037385)">
    <circle
       cx="26.781799"
       cy="38.6203"
       r="3"
       id="circle3" />
    <line
       x1="37"
       x2="37"
       y1="54.469002"
       y2="57.491001"
       fill="none"
       stroke="#000000"
       stroke-linecap="round"
       stroke-linejoin="round"
       stroke-width="2"
       id="line3" />
    <path
       fill="none"
       stroke="#000000"
       stroke-linecap="round"
       stroke-linejoin="round"
       stroke-width="2"
       d="m 42.0616,59.9329 10.4088,-4.5136 c 10.5713,-5.4638 5.345,-20.6675 5.345,-20.6675 4.3948,-1.7817 6.8394,-6.0914 6.8394,-6.0914 6.3409,-12.3194 -0.2162,-16.7439 -3.6864,-18.1503 -1.0579,-0.4287 -2.2666,-0.1795 -3.0757,0.6257 l -8.3325,7.6996 c -8.3737,-4.9392 -16.7472,-4.9392 -25.1207,0 L 16.107,11.1358 c -0.809,-0.8052 -2.0178,-1.0544 -3.0757,-0.6257 -3.47,1.4064 -10.027,5.8309 -3.6862,18.1503 0,0 2.4446,4.3097 6.8394,6.0914 0,0 -5.2263,15.2037 5.345,20.6675 l 10.4088,4.5136 c 2.7411,2.534 7.3824,2.5339 10.1233,0 z"
       id="path4" />
    <path
       fill="none"
       stroke="#000000"
       stroke-linecap="round"
       stroke-linejoin="round"
       stroke-width="2"
       d="m 13.4527,14.728 c 0,0 8.077,3.8724 5.2263,16.5211"
       id="path5" />
    <circle
       cx="47.218201"
       cy="38.6203"
       r="3"
       id="circle5" />
    <path
       fill="none"
       stroke="#000000"
       stroke-linecap="round"
       stroke-linejoin="round"
       stroke-width="2"
       d="m 60.5473,14.728 c 0,0 -8.077,3.8724 -5.2263,16.5211"
       id="path6" />
    <path
       d="m 34.449,50.265 c 1.4173,-0.2612 3.1422,-0.4049 4.971,-0.1656 1.8102,0.2369 2.6036,1.9215 1.4716,3.0418 l -1.9003,1.8806 c -0.9386,0.9289 -2.7309,0.9772 -3.7505,0.1011 L 33.2186,53.3854 C 31.9765,52.3183 32.645,50.5974 34.449,50.265 Z"
       id="path7" />
  </g>
</svg>
