<?xml version="1.0" encoding="UTF-8" standalone="no"?>
<svg
   id="emoji"
   viewBox="0 0 63.949524 59.998226"
   version="1.1"
   sodipodi:docname="1f42e.svg"
   width="63.949524"
   height="59.998226"
   xmlns:inkscape="http://www.inkscape.org/namespaces/inkscape"
   xmlns:sodipodi="http://sodipodi.sourceforge.net/DTD/sodipodi-0.dtd"
   xmlns="http://www.w3.org/2000/svg"
   xmlns:svg="http://www.w3.org/2000/svg">
  <defs
     id="defs13" />
  <sodipodi:namedview
     id="namedview13"
     pagecolor="#ffffff"
     bordercolor="#000000"
     borderopacity="0.25"
     inkscape:showpageshadow="2"
     inkscape:pageopacity="0.0"
     inkscape:pagecheckerboard="0"
     inkscape:deskcolor="#d1d1d1" />
  <g
     id="color"
     transform="translate(-4.0496377,-6.0477189)">
    <path
       fill="#ffffff"
       d="m 15,12.0211 v 0 c 0,0.6116 0.3056,1.1827 0.8145,1.5219 l 4.2449,2.83 c 0.5764,0.3843 1.774,0.8721 1.688,1.5596 l -1.7051,6.7284 c -0.028,0.2241 -0.0143,0.4514 0.0405,0.6705 l 1.8343,7.3371 c 0.0548,0.2191 0.0685,0.4464 0.0405,0.6705 l -0.9152,7.322 c -0.028,0.2241 -0.0143,0.4514 0.0405,0.6705 l 1.7456,6.9825 c 0.1104,0.4414 0.3813,0.8259 0.7599,1.0783 l 1.7312,1.1541 c 0.433,0.2887 0.7225,0.7481 0.7961,1.2632 l -0.2598,3.7979 c 0,0 -0.2916,3.1088 2.3012,6.051 1.6332,1.8533 5.7148,3.8846 8.2656,3.8847 3.3409,0 5.9547,-1.9378 7.3949,-3.6465 0.8914,-1.0576 2.5398,-2.4978 3.2821,-5.8244 0.2014,-0.9023 -0.0996,-3.6967 -0.0996,-3.6967 0,-0.2477 0.4009,-1.311 0.4985,-1.5386 l 1.3063,-2.5077 c 0.0158,-0.0369 0.0264,-0.0595 0.0389,-0.0795 0.5394,-0.8642 0.7885,-1.8786 0.8851,-2.8927 0,0 0.9043,-4.9747 1.1585,-6.6406 0.005,-0.0325 -0.4996,-5.5158 -0.4953,-5.5485 l 1.5496,-6.8172 c 0.0386,-0.2315 0.0323,-0.4683 -0.0187,-0.6975 l -1.5364,-6.9139 c -0.2151,-0.9678 0.3801,-1.9308 1.3419,-2.1712 l 1.6416,-0.4104 c 0.4075,-0.1019 0.7676,-0.341 1.0196,-0.677 l 2.2445,-2.9927 C 56.8717,12.1716 57,11.7865 57,11.3908 v -0.1102 c 0,-1.1701 -1.1152,-1.1434 -2.2575,-0.8896 l -6.191,0.4868 c -0.3593,0.0798 -0.7343,0.0494 -1.0761,-0.0873 L 43.1152,9.0464 C 43.0385,9.0157 42.9597,8.9902 42.8795,8.9702 L 35.5167,7.1295 c -0.3375,-0.0844 -0.692,-0.0708 -1.022,0.0393 l -5.3714,1.7905 c -0.0821,0.0274 -0.1622,0.0605 -0.2396,0.0992 l -3.4104,1.7052 c -0.3092,0.1546 -0.656,0.2184 -1,0.184 L 17.011,10.2015 c -1.0768,-0.1077 -2.0111,0.7379 -2.0111,1.82 z"
       id="path1" />
    <path
       fill="#a57939"
       d="m 65.1818,16.5746 -3.5658,0.2422 c -0.1304,0.0089 -0.2591,0.0347 -0.3828,0.077 l -7.081,2.42 c -0.043,0.0147 -0.0854,0.0314 -0.1269,0.0499 l -2.6409,1.1807 c -0.1171,0.0524 -0.2341,0.0883 -0.3607,0.1091 -1.3737,0.2264 -10.1731,1.8874 -10.0194,7.2658 0,0 -0.4646,3.6003 1.951,6.1473 1.8803,1.9826 2.9889,4.6478 2.5192,7.3395 -0.3101,1.7768 -1.2515,3.5306 -3.4702,4.594 v 0 l 2.9104,1.0217 c 0.4295,0.1508 0.767,0.4887 0.9174,0.9183 l 1.4763,4.2192 1.6616,-1.7712 c 1.1136,-1.1945 1.9689,-5.8742 1.9689,-5.8742 0.4855,-3.6065 0.5032,-7.264 0.0031,-10.8685 -0.0148,-0.1064 -0.0287,-0.2031 -0.0417,-0.2889 v 0 c 0,0 1.2606,-0.965 1.2606,-0.965 0.1608,-0.1231 0.3449,-0.2123 0.5411,-0.2622 l 5.5633,-1.4149 c 0.1716,-0.0436 0.3341,-0.1174 0.4799,-0.2177 l 4.3017,-2.9608 c 0.1811,-0.1247 0.3326,-0.2877 0.4436,-0.4775 l 2.6005,-4.4465 c 0.1016,-0.1737 0.1671,-0.3661 0.1927,-0.5658 l 0.4849,-3.7874 c 0.1198,-0.9359 -0.6453,-1.748 -1.5867,-1.6841 z"
       id="path2" />
    <path
       fill="#a57939"
       d="m 6.867,16.5746 3.5658,0.2422 c 0.1304,0.0089 0.2591,0.0347 0.3828,0.077 l 7.081,2.42 c 0.043,0.0147 0.0854,0.0314 0.1269,0.0499 l 2.6409,1.1807 c 0.1171,0.0524 0.2341,0.0883 0.3607,0.1091 1.3737,0.2264 10.1731,1.8874 10.0194,7.2658 0,0 0.4645,3.6003 -1.951,6.1473 -1.8803,1.9826 -2.9889,4.6478 -2.5192,7.3395 0.3101,1.7768 1.2515,3.5306 3.4702,4.594 v 0 l -2.9104,1.0217 c -0.4295,0.1508 -0.767,0.4887 -0.9174,0.9183 l -1.4763,4.2192 -1.6616,-1.7712 c -1.1136,-1.1945 -2.0412,-6.9083 -2.0412,-6.9083 -0.3413,-3.1673 -0.1698,-6.3689 0.5077,-9.4817 v 0 c 0.1234,-0.5672 -0.092,-1.1546 -0.553,-1.5075 L 20.5258,32.1335 C 20.34,31.9913 20.1234,31.8946 19.8935,31.8511 L 13.8348,30.707 C 13.6299,30.6683 13.4354,30.5873 13.2637,30.4691 L 9.0021,27.5359 C 8.821,27.4112 8.6695,27.2482 8.5585,27.0584 L 5.958,22.6119 C 5.8564,22.4382 5.7909,22.2458 5.7653,22.0462 L 5.2803,18.2587 C 5.1605,17.3228 5.9256,16.5106 6.867,16.5746 Z"
       id="path3" />
    <path
       fill="#f4aa41"
       d="m 27.3197,47.9945 -0.6598,1.1318 c -0.7217,2.1691 -0.9617,4.4695 -0.7033,6.7408 v 0 c 0.1194,1.0495 0.9592,1.871 2.0111,1.9674 l 0.0811,0.0074 6.4963,-0.5146 c 1.249,-0.0989 2.5045,-0.0796 3.7499,0.0577 l 5.9262,0.6536 c 0.7598,0.0838 1.5171,-0.1772 2.064,-0.7112 v 0 c 0.4669,-0.4559 0.7436,-1.0718 0.7746,-1.7237 l 0.0484,-1.0203 c 0.1133,-2.3893 -0.4008,-4.7667 -1.4912,-6.8958 v 0 c -0.4317,-0.843 -1.2874,-1.3848 -2.234,-1.4148 L 34.7544,46 h -3.9632 c -1.4296,0 -2.7515,0.7595 -3.4715,1.9945 z"
       id="path4" />
  </g>
  <g
     id="line"
     transform="translate(-4.0496377,-6.0477189)">
    <path
       d="m 26.1616,31.0595 c 0,0 -3.0474,-0.219 -3.8284,-1 -0.781,-0.781 -0.781,-2.0474 0,-2.8284 0.781,-0.781 2.0474,-0.781 2.8284,0 0.7811,0.781 1,3.8284 1,3.8284 z"
       id="path5" />
    <path
       fill="none"
       stroke="#000000"
       stroke-linecap="round"
       stroke-linejoin="round"
       stroke-width="2"
       d="m 19.6191,26.2353 2.0377,-9.248 c 0,0 -7.6806,-0.627 -6.505,-7.4454 0,0 9.9534,3.2917 12.7748,0.4702 0,0 6.2375,-6.6642 16.1956,-0.0429 3.3226,2.2093 12.7748,-0.4702 12.7748,-0.4702 1.1756,6.8184 -6.505,7.4454 -6.505,7.4454 l 2.0377,9.248"
       id="path6" />
    <path
       fill="none"
       stroke="#000000"
       stroke-linecap="round"
       stroke-linejoin="round"
       stroke-width="2"
       d="M 28.4825,46 H 44.209 c 0.272,0 0.5324,0.1138 0.7082,0.3213 0.8467,0.9992 3.1442,4.3471 2.0943,10.2966 -0.1836,1.0404 -1.1647,1.7418 -2.2037,1.5503 -3.4759,-0.6406 -11.324,-1.7893 -16.7592,-0.3263 -1.1058,0.2976 -2.2065,-0.454 -2.3432,-1.5909 -0.302,-2.5115 -0.3157,-6.6284 2.0103,-9.8682 C 27.8908,46.139 28.1824,46 28.4825,46 Z"
       id="path7" />
    <path
       fill="none"
       stroke="#000000"
       stroke-linecap="round"
       stroke-linejoin="round"
       stroke-width="2"
       d="m 29.8671,50.277 c 0,0 -0.6865,2.855 3.1538,2.926"
       id="path8" />
    <path
       fill="none"
       stroke="#000000"
       stroke-linecap="round"
       stroke-linejoin="round"
       stroke-width="2"
       d="m 29.1276,61.4663 c 0,0 6.3482,7.9157 13.7936,0.3135"
       id="path9" />
    <path
       fill="none"
       stroke="#000000"
       stroke-linecap="round"
       stroke-linejoin="round"
       stroke-width="2"
       d="m 17.5177,20.1544 c -3.0642,-1.9576 -7.3791,-4.5873 -12.4353,-3.3426 0,0 -1.4891,14.0288 15.3611,15.5179 l 1.2133,0.881 c 0,0 -2.2906,8.9177 1.2618,16.1018"
       id="path10" />
    <path
       d="m 45.8871,31.0139 c 0,0 3.0474,-0.219 3.8284,-1 0.7811,-0.781 0.7811,-2.0474 0,-2.8284 -0.781,-0.781 -2.0474,-0.781 -2.8284,0 -0.781,0.781 -1,3.8284 -1,3.8284 z"
       id="path11" />
    <path
       fill="none"
       stroke="#000000"
       stroke-linecap="round"
       stroke-linejoin="round"
       stroke-width="2"
       d="m 43.1817,50.2341 c 0,0 0.6865,2.855 -3.1538,2.926"
       id="path12" />
    <path
       fill="none"
       stroke="#000000"
       stroke-linecap="round"
       stroke-linejoin="round"
       stroke-width="2"
       d="m 54.7743,19.9585 c 3.0474,-1.888 7.2683,-4.4017 12.1921,-3.1896 0,0 1.4891,14.0288 -15.3611,15.5179 l -1.2133,0.881 c 0,0 2.5382,7.9772 -1.0141,15.1613"
       id="path13" />
  </g>
</svg>
