<?xml version="1.0" encoding="UTF-8" standalone="no"?>
<svg
   id="emoji"
   viewBox="0 0 57.450317 46.193501"
   version="1.1"
   sodipodi:docname="1f421.svg"
   width="57.450317"
   height="46.193501"
   xmlns:inkscape="http://www.inkscape.org/namespaces/inkscape"
   xmlns:sodipodi="http://sodipodi.sourceforge.net/DTD/sodipodi-0.dtd"
   xmlns="http://www.w3.org/2000/svg"
   xmlns:svg="http://www.w3.org/2000/svg">
  <defs
     id="defs25" />
  <sodipodi:namedview
     id="namedview25"
     pagecolor="#ffffff"
     bordercolor="#000000"
     borderopacity="0.25"
     inkscape:showpageshadow="2"
     inkscape:pageopacity="0.0"
     inkscape:pagecheckerboard="0"
     inkscape:deskcolor="#d1d1d1" />
  <g
     id="color"
     transform="translate(-5.9741998,-12.0044)">
    <path
       fill="#6a462f"
       stroke="none"
       d="M 51,35 C 51,46.0457 42.0457,55 31,55 19.9543,55 11,46.0457 11,35 11,23.9543 19.9543,15 31,15 c 3.2428,0 6.3053,0.7718 9.0139,2.1416 C 46.5315,20.4378 51,27.1971 51,35 Z"
       id="path1" />
    <path
       fill="#6a462f"
       stroke="none"
       d="M 39.5833,16.3333 C 39.5833,16.3333 48,14 49,14 c 1,0 0.1667,5.3333 -1.9167,8.1667"
       id="path2" />
    <path
       fill="#6a462f"
       stroke="none"
       d="m 49.2799,29.5668 c 0,0 10.2483,-7.369 12.3507,-6.2343 2.1024,1.1347 -0.1773,20.0286 -4.6971,22.7493 0,0 -4.131,0.7224 -8.3412,-3.5419"
       id="path3" />
    <polyline
       fill="#6a462f"
       stroke="none"
       points="46.4976,48.1823 48.4494,55.5437 40.8246,52.4033"
       id="polyline3" />
    <path
       fill="#a57939"
       stroke="none"
       d="m 12,40.9264 c 0,0 3,13.3136 19.5,14.0533 C 48,55.7193 52,35.9955 50,35.9955 c -2,0 -5,6.9034 -7,3.9448 -2.4807,-3.6697 -3,-4.931 -5,-3.9448 -1.2649,0.6237 -3,7.8895 -5,3.9448 -1.8439,-3.6369 -3,-3.9448 -3,-3.9448 -4,0 -3,4.931 -6,4.931 -3,0 -2,-3.9448 -5,-4.931 -3,-0.9862 -7,4.9309 -7,4.9309"
       id="path4" />
  </g>
  <g
     id="hair"
     transform="translate(-5.9741998,-12.0044)" />
  <g
     id="skin"
     transform="translate(-5.9741998,-12.0044)" />
  <g
     id="skin-shadow"
     transform="translate(-5.9741998,-12.0044)" />
  <g
     id="line"
     transform="translate(-5.9741998,-12.0044)">
    <line
       x1="10.5258"
       x2="7.4741998"
       y1="33.460098"
       y2="31.5399"
       fill="none"
       stroke="#000000"
       stroke-linecap="round"
       stroke-linejoin="round"
       stroke-miterlimit="10"
       stroke-width="3"
       id="line4" />
    <line
       x1="10.2934"
       x2="7.7066002"
       y1="36.428001"
       y2="37.571999"
       fill="none"
       stroke="#000000"
       stroke-linecap="round"
       stroke-linejoin="round"
       stroke-miterlimit="10"
       stroke-width="3"
       id="line5" />
    <line
       x1="14"
       x2="12"
       y1="46"
       y2="47"
       fill="none"
       stroke="#000000"
       stroke-linecap="round"
       stroke-linejoin="round"
       stroke-miterlimit="10"
       stroke-width="2"
       id="line6" />
    <line
       x1="18"
       x2="17"
       y1="51"
       y2="52"
       fill="none"
       stroke="#000000"
       stroke-linecap="round"
       stroke-linejoin="round"
       stroke-miterlimit="10"
       stroke-width="2"
       id="line7" />
    <line
       x1="37.179401"
       x2="37.820599"
       y1="54.869801"
       y2="56.130199"
       fill="none"
       stroke="#000000"
       stroke-linecap="round"
       stroke-linejoin="round"
       stroke-miterlimit="10"
       stroke-width="2"
       id="line8" />
    <line
       x1="48.113602"
       x2="49.886398"
       y1="45.8186"
       y2="47.1814"
       fill="none"
       stroke="#000000"
       stroke-linecap="round"
       stroke-linejoin="round"
       stroke-miterlimit="10"
       stroke-width="2"
       id="line9" />
    <line
       x1="48.706402"
       x2="50.869701"
       y1="25.5716"
       y2="24.3367"
       fill="none"
       stroke="#000000"
       stroke-linecap="round"
       stroke-linejoin="round"
       stroke-miterlimit="10"
       stroke-width="2"
       id="line10" />
    <line
       x1="33.906399"
       x2="34.093601"
       y1="14.9956"
       y2="13.0044"
       fill="none"
       stroke="#000000"
       stroke-linecap="round"
       stroke-linejoin="round"
       stroke-miterlimit="10"
       stroke-width="2"
       id="line11" />
    <line
       x1="26.563101"
       x2="26.194799"
       y1="15.1814"
       y2="13.0627"
       fill="none"
       stroke="#000000"
       stroke-linecap="round"
       stroke-linejoin="round"
       stroke-miterlimit="10"
       stroke-width="2"
       id="line12" />
    <line
       x1="20.1485"
       x2="18.8515"
       y1="17.9107"
       y2="16.0893"
       fill="none"
       stroke="#000000"
       stroke-linecap="round"
       stroke-linejoin="round"
       stroke-miterlimit="10"
       stroke-width="2"
       id="line13" />
    <line
       x1="15"
       x2="13"
       y1="23"
       y2="21"
       fill="none"
       stroke="#000000"
       stroke-linecap="round"
       stroke-linejoin="round"
       stroke-miterlimit="10"
       stroke-width="2"
       id="line14" />
    <line
       x1="30.6136"
       x2="30.3864"
       y1="55.802101"
       y2="57.197899"
       fill="none"
       stroke="#000000"
       stroke-linecap="round"
       stroke-linejoin="round"
       stroke-miterlimit="10"
       stroke-width="2"
       id="line15" />
    <line
       x1="23.889299"
       x2="23.110701"
       y1="54.909698"
       y2="56.090302"
       fill="none"
       stroke="#000000"
       stroke-linecap="round"
       stroke-linejoin="round"
       stroke-miterlimit="10"
       stroke-width="2"
       id="line16" />
    <path
       fill="none"
       stroke="#000000"
       stroke-linecap="round"
       stroke-linejoin="round"
       stroke-miterlimit="10"
       stroke-width="2"
       d="M 39.5833,16.3333 C 39.5833,16.3333 48,14 49,14 c 1,0 0.1667,5.3333 -1.9167,8.1667"
       id="path16" />
    <path
       fill="none"
       stroke="#000000"
       stroke-linecap="round"
       stroke-linejoin="round"
       stroke-miterlimit="10"
       stroke-width="2"
       d="m 50.2961,29.631 c 0,0 9.4861,-7.4171 11.4192,-6.2931 1.933,1.124 -0.262,20.0233 -4.4431,22.7653 0,0 -3.8127,0.7425 -7.6739,-3.4998"
       id="path17" />
    <polyline
       fill="none"
       stroke="#000000"
       stroke-linecap="round"
       stroke-linejoin="round"
       stroke-miterlimit="10"
       stroke-width="2"
       points="46.4976,48.1823 48.4494,55.5437 40.8246,52.4033"
       id="polyline17" />
    <path
       fill="none"
       stroke="#000000"
       stroke-linecap="round"
       stroke-linejoin="round"
       stroke-miterlimit="10"
       stroke-width="2"
       d="m 12,41 c 0,0 4,-6 7,-5 3,1 2,5 5,5 3,0 2,-5 6,-5 0,0 1.1561,0.3122 3,4 2,4 3.7351,-3.3675 5,-4 2,-1 2.5193,0.279 5,4 2,3 5,-4 7,-4"
       id="path18" />
    <path
       fill="none"
       stroke="#000000"
       stroke-linecap="round"
       stroke-linejoin="round"
       stroke-miterlimit="10"
       stroke-width="2"
       d="M 51,35 C 51,46.0457 42.0457,55 31,55 19.9543,55 11,46.0457 11,35 11,23.9543 19.9543,15 31,15 c 3.2428,0 6.3053,0.7718 9.0139,2.1416 C 46.5315,20.4378 51,27.1971 51,35 Z"
       id="path19" />
    <circle
       cx="34"
       cy="50"
       r="2"
       fill="#000000"
       stroke="none"
       id="circle19" />
    <circle
       cx="40"
       cy="44"
       r="2"
       fill="#000000"
       stroke="none"
       id="circle20" />
    <circle
       cx="22"
       cy="46"
       r="2"
       fill="#000000"
       stroke="none"
       id="circle21" />
    <circle
       cx="30"
       cy="44"
       r="1"
       fill="#000000"
       stroke="none"
       id="circle22" />
    <circle
       cx="17"
       cy="42"
       r="1"
       fill="#000000"
       stroke="none"
       id="circle23" />
    <circle
       cx="27"
       cy="50"
       r="1"
       fill="#000000"
       stroke="none"
       id="circle24" />
    <circle
       cx="40"
       cy="49"
       r="1"
       fill="#000000"
       stroke="none"
       id="circle25" />
  </g>
</svg>
