<svg xmlns="http://www.w3.org/2000/svg" xmlns:svg="http://www.w3.org/2000/svg" id="emoji" width="61.798" height="33.713" version="1.1" viewBox="0 0 61.798 33.713"><g id="color" transform="translate(-5.2020379,-22.14355)"><path id="path1" fill="#d0cfce" d="M 50.6975,53.9417 H 43.89 c 0,0 -0.3683,-3.9115 2.5783,-4.2258 2.9466,-0.3143 2.0717,-4.5681 2.0717,-4.5681 h 7.327 v 8.7939 z"/><path id="path2" d="m 7.3036,29.26 c 0,0 1.6438,0.8078 0.69,1.945 -0.2746,0.4704 -0.8786,0.629 -1.3489,0.3544 -0.1506,-0.0879 -0.2752,-0.2142 -0.3611,-0.366 0,0 -1.0958,-0.3741 1.02,-1.9334 z"/><path id="path3" fill="#fff" d="m 55.8671,50.631 c 0,0 -6.6033,0.4392 -5.0148,4.2254 h 9.3464 c 0,0 2.4571,0 1.9707,-5.8393 0,0 1.7093,-15.8608 -0.4973,-16.6883 l 2.8521,1.809 c 0.4545,0.2809 1.0506,0.1403 1.3316,-0.3142 C 65.9545,33.6639 66.0046,33.479 66,33.2913 v -0.7731 c -0.4627,-1.7564 -9.4146,-9.3746 -16.8734,-9.3746 -1.6588,-0.0042 -3.3076,0.2565 -4.8841,0.7724 0,0 -0.0442,0.0113 -0.1105,0.0341 -0.7183,0.1818 -4.5637,1.1926 -5.4808,1.2835 -1.0166,0.0909 -17.6021,-0.5973 -17.6021,-0.5973 -2.3466,-0.0378 -2.7887,-0.8026 -4.3654,-0.3568 -4.084,1.1546 -11.4128,5.399 -10.4,6.9135 1.0783,1.6122 2.0719,4.638 10.5546,1.31 h 0.0442 c 0.2984,0 2.1658,0.2045 6.7737,4.7023 8e-4,0.0087 0.0047,0.0168 0.011,0.0228 3.0168,2.9419 12.0373,14.8597 12.8628,15.5156 0.8255,0.6559 5.851,2.1127 5.16,-3.01 -1.5424,-0.1533 -2.8951,-0.4089 -2.8951,-0.4089 l -0.1156,-3.3284 c 5.0669,1.3752 11.9363,-1.05 11.9363,-1.05"/><path id="path4" fill="#d0cfce" d="m 23.2417,37.1571 c 0.1326,0.5338 3.2727,12.0447 -0.011,12.5056 -3.2837,0.4609 -3.79,1.1586 -3.7018,3.4757 h 8.7516 l 4.1659,-3.8391 c 0,0 -3.7406,-9.7902 -9.2047,-12.1422 z"/></g><g id="line" transform="translate(-5.2020379,-22.14355)"><path id="path5" fill="none" stroke="#000" stroke-linecap="round" stroke-linejoin="round" stroke-width="2" d="m 38.7948,49.3248 c 0,0 1.3527,0.2556 2.8951,0.4089 0.6907,5.1227 -4.3352,3.666 -5.16,3.01 C 35.7051,52.0877 26.684,40.17 23.6673,37.2281 23.661,37.2221 23.6571,37.214 23.6563,37.2053 19.0484,32.7075 17.181,32.503 16.8826,32.503 h -0.0442 c -8.4827,3.328 -9.4763,0.3022 -10.5546,-1.31 -1.0129,-1.5145 6.3159,-5.7589 10.4,-6.9135 1.5767,-0.4458 2.0188,0.319 4.3654,0.3568 0,0 16.5855,0.6882 17.6021,0.5973 0.9171,-0.0909 4.7625,-1.1017 5.4808,-1.2835 0.0663,-0.0228 0.1105,-0.0341 0.1105,-0.0341 1.5765,-0.5159 3.2253,-0.7766 4.8841,-0.7724 7.4588,0 16.4107,7.6182 16.8734,9.3746 v 0.7731 c 0.0131,0.5341 -0.4093,0.9777 -0.9435,0.9908 -0.1877,0.0046 -0.3726,-0.0455 -0.5323,-0.1443 l -2.8521,-1.809"/><path id="path6" fill="none" stroke="#000" stroke-linecap="round" stroke-linejoin="round" stroke-width="2" d="m 23.6673,37.2281 c 0.1326,0.5339 3.2727,12.0447 -0.011,12.5056 -3.2837,0.4609 -3.79,1.1586 -3.7018,3.4757 h 8.7517 L 32.872,49.37"/><path id="path7" fill="none" stroke="#000" stroke-linecap="round" stroke-linejoin="round" stroke-width="2" d="m 50.6155,53.9417 h -6.8076 c 0,0 -0.3684,-3.534 2.5783,-3.818 2.9467,-0.284 2.0719,-4.1273 2.0719,-4.1273 -3.2096,0.8081 -6.5693,0.8081 -9.7789,0"/><path id="path8" fill="none" stroke="#000" stroke-linecap="round" stroke-linejoin="round" stroke-width="2" d="m 55.8671,50.631 c 0,0 -7.2364,-6.3521 -7.8234,-10.9665"/><path id="path9" fill="none" stroke="#000" stroke-linecap="round" stroke-linejoin="round" stroke-width="2" d="m 55.8671,50.631 c 0,0 -6.6033,0.4392 -5.0148,4.2254 h 9.3464 c 0,0 2.3113,-0.1064 1.3994,-5.8564 0,0 3.5266,-9.125 1.3985,-15.8437"/><path id="path10" fill="none" stroke="#000" stroke-linecap="round" stroke-linejoin="round" stroke-width="2" d="m 17.1768,26.1842 c 0,0 2.3021,-0.38 1.3813,3.0754"/></g></svg>