<?xml version="1.0" encoding="UTF-8" standalone="no"?>
<svg
   id="emoji"
   viewBox="0 0 52.756283 60.681152"
   version="1.1"
   sodipodi:docname="1f43e.svg"
   width="52.756283"
   height="60.681152"
   xmlns:inkscape="http://www.inkscape.org/namespaces/inkscape"
   xmlns:sodipodi="http://sodipodi.sourceforge.net/DTD/sodipodi-0.dtd"
   xmlns="http://www.w3.org/2000/svg"
   xmlns:svg="http://www.w3.org/2000/svg">
  <defs
     id="defs15" />
  <sodipodi:namedview
     id="namedview15"
     pagecolor="#ffffff"
     bordercolor="#000000"
     borderopacity="0.25"
     inkscape:showpageshadow="2"
     inkscape:pageopacity="0.0"
     inkscape:pagecheckerboard="0"
     inkscape:deskcolor="#d1d1d1" />
  <g
     id="color"
     transform="translate(-10.058539,-5.7533376)">
    <path
       fill="#3f3f3f"
       d="m 11.9757,19.2767 c 0,0 -0.3253,2.1644 -0.1301,2.4924 0.1952,0.328 1.8214,2.23 2.0817,2.23 0.2603,0 1.9516,0.1968 1.9516,0.1968 l 1.1059,-2.23 -1.3011,-2.23 -2.4069,-0.9838 -1.3011,0.5247 z"
       id="path1" />
    <polygon
       fill="#3f3f3f"
       points="18.5051,15.6777 20.2195,15.6777 21.1084,14.3934 20.7274,11.6315 18.1651,9.7531 17.0448,11.1712 16.9178,13.7029 "
       id="polygon1" />
    <path
       fill="#3f3f3f"
       d="m 26.4409,8.0392 -0.5941,1.9061 0.064,1.8344 0.9599,1.6638 1.6339,0.3148 1.0537,-1.6586 V 9.5038 c 0,0 -1.7239,-1.8702 -2.0572,-1.8702 -0.3333,10e-5 -1.0603,0.4057 -1.0603,0.4057 z"
       id="path2" />
    <path
       fill="#3f3f3f"
       d="M 34.9124,11.8983 33.671,14.002 c 0,0 0.2538,3.1341 0.5038,3.3841 0.25,0.25 2.4519,0.9704 2.4519,0.9704 l 1.711,-1.9378 -0.0327,-3.3291 -1.4997,-1.6604 -1.8929,0.469 z"
       id="path3" />
    <path
       fill="#3f3f3f"
       d="m 22.6372,21.3816 c -0.0833,0.25 -1.8308,3.208 -1.8308,3.208 l 0.3333,3.5833 -1.1667,3.3333 0.6667,3.3333 3.0942,1.6432 2.7207,-0.9913 2.8051,-2.5098 3.8976,1.0272 c 0.7819,0.1921 1.6072,-0.036 2.1765,-0.6054 0.8367,-0.8369 1.6757,-2.1015 1.624,-2.2567 -0.0833,-0.25 -0.2953,-3.0006 -0.2953,-3.0006 0,0 -2.2417,-3.1558 -2.9917,-2.9892 0,0 -1.0548,-4.4404 -4.2214,-5.3571 -3.1667,-0.9167 -4.4502,-0.0844 -4.4502,-0.0844 l -2.3622,1.6662 z"
       id="path4" />
    <path
       fill="#3f3f3f"
       d="m 35.7755,41.081 c 0,0 -1.8649,2.5979 -1.6982,2.8479 0.1667,0.25 1.045,3.0372 1.045,3.0372 0,0 2.3333,0.4567 2.4167,0.2067 0.0833,-0.25 0.9144,-2.2641 0.9144,-2.2641 l -0.5878,-3.0045 -2.0901,-0.8231 z"
       id="path5" />
    <polygon
       fill="#3f3f3f"
       points="44.2426,42.1522 47.0877,40.7521 47.5573,38.2245 46.6524,35.9249 44.171,35.5855 42.421,38.5021 "
       id="polygon5" />
    <path
       fill="#3f3f3f"
       d="m 53.6913,38.0631 c -0.0833,0.25 -2.3255,3.1891 -2.3255,3.1891 l 0.9167,3.1667 1.9583,-0.5763 1.5032,-2.1488 -0.073,-2.5248 -1.9797,-1.1058 z"
       id="path6" />
    <path
       fill="#3f3f3f"
       d="m 58.6422,46.0333 -1.798,2.3723 -0.4994,2.2225 0.874,1.0738 2.2725,-0.4745 c 0,0 1.6482,-1.9942 1.6482,-2.2442 0,-0.25 -0.1249,-2.2008 -0.1249,-2.2008 l -2.3723,-0.7492 z"
       id="path7" />
    <path
       fill="#3f3f3f"
       d="m 40.3568,50.3528 c -0.1975,0.9874 -1.0242,3.0563 -1.0242,3.0563 0,0 -2.6816,1.7442 -2.8482,2.0775 -0.1667,0.3333 -0.9047,2.7141 -0.9047,2.7141 l 0.8712,2.6136 2.178,1.5079 4.7916,-1.2733 3.3508,3.1162 c 0,0 2.8217,1.2827 4.155,-0.134 1.3333,-1.4167 1.8094,-3.8199 1.8094,-3.8199 l -1.2398,-3.1833 0.3016,-4.1215 c 0,0 -1.7229,-4.7152 -4.3896,-5.2152 -2.6667,-0.4999 -6.8013,1.4116 -7.0513,2.6616 z"
       id="path8" />
  </g>
  <g
     id="line"
     transform="translate(-10.058539,-5.7533376)">
    <path
       fill="none"
       stroke="#000000"
       stroke-linecap="round"
       stroke-linejoin="round"
       stroke-width="2"
       d="m 34.2042,25.0412 c -0.0364,-0.2205 -0.0784,-0.4413 -0.134,-0.6623 -1.0117,-4.0167 -4.871,-6.5074 -8.6199,-5.5631 -3.7489,0.9443 -5.9678,4.9659 -4.9561,8.9826 0.0557,0.221 0.1233,0.4353 0.1957,0.6468 -1.1533,1.1787 -1.6914,2.9682 -1.2371,4.7717 0.6745,2.6778 3.2473,4.3382 5.7466,3.7087 1.6833,-0.424 3.7084,-3.5122 3.9147,-3.5641 0.2063,-0.052 3.4527,1.7084 5.136,1.2844 2.4993,-0.6295 3.9785,-3.3106 3.3041,-5.9884 -0.4544,-1.8035 -1.7759,-3.1246 -3.35,-3.6163 z"
       id="path9" />
    <ellipse
       cx="19.0131"
       cy="12.9337"
       rx="2.6882999"
       ry="3.7635"
       transform="rotate(-21.1428,19.013261,12.933663)"
       fill="none"
       stroke="#000000"
       stroke-linecap="round"
       stroke-linejoin="round"
       stroke-width="2"
       id="ellipse9" />
    <ellipse
       cx="14.1245"
       cy="21.5483"
       rx="2.6882"
       ry="3.7632999"
       transform="rotate(-34.0429,14.124425,21.548182)"
       fill="none"
       stroke="#000000"
       stroke-linecap="round"
       stroke-linejoin="round"
       stroke-width="2"
       id="ellipse10" />
    <ellipse
       cx="36.131199"
       cy="14.8264"
       rx="3.7634001"
       ry="2.6882999"
       transform="rotate(-85.7103,36.131193,14.826434)"
       fill="none"
       stroke="#000000"
       stroke-linecap="round"
       stroke-linejoin="round"
       stroke-width="2"
       id="ellipse11" />
    <path
       fill="none"
       stroke="#000000"
       stroke-linecap="round"
       stroke-linejoin="round"
       stroke-width="2"
       d="m 27.1536,6.7703 c 1.3727,-0.2023 3.0014,1.9274 3.2082,3.3312 0.303,2.0562 -0.642,4.1486 -2.1108,4.3651 -1.4688,0.2165 -2.9052,-1.2749 -3.2082,-3.3312 -0.303,-2.0563 0.642,-4.1486 2.1108,-4.3651 z"
       id="path11" />
    <path
       fill="none"
       stroke="#000000"
       stroke-linecap="round"
       stroke-linejoin="round"
       stroke-width="2"
       d="m 52.0157,56.9056 c 0.0775,-0.2096 0.1503,-0.4223 0.2113,-0.6418 1.1089,-3.991 -1.0118,-8.0652 -4.7367,-9.1002 -3.7249,-1.035 -7.6434,1.3613 -8.7523,5.3523 -0.061,0.2196 -0.1083,0.4393 -0.1501,0.6589 -1.5855,0.4534 -2.9387,1.742 -3.4366,3.534 -0.7393,2.6606 0.6745,5.3768 3.1578,6.0668 1.6725,0.4647 4.9607,-1.2164 5.1656,-1.1594 0.2049,0.057 2.1545,3.1934 3.8271,3.6581 2.4832,0.69 5.0956,-0.9076 5.8349,-3.5682 0.4978,-1.7922 0.0033,-3.5942 -1.121,-4.8005 z"
       id="path12" />
    <path
       fill="none"
       stroke="#000000"
       stroke-linecap="round"
       stroke-linejoin="round"
       stroke-width="2.0001"
       d="m 42.4003,38.5324 c 0.3105,-2.0552 1.7481,-3.5436 3.2165,-3.3236 1.4684,0.22 2.409,2.0648 2.101,4.1204 -0.308,2.0556 -1.7454,3.5249 -3.2165,3.3236 -1.481,-0.2026 -2.4122,-2.0604 -2.101,-4.1204 z"
       id="path13" />
    <ellipse
       cx="36.297501"
       cy="44.183102"
       rx="2.6882999"
       ry="3.7635"
       transform="rotate(-4.3759,36.29644,44.182471)"
       fill="none"
       stroke="#000000"
       stroke-linecap="round"
       stroke-linejoin="round"
       stroke-width="2"
       id="ellipse13" />
    <ellipse
       cx="58.750198"
       cy="48.9832"
       rx="3.7636001"
       ry="2.6884"
       transform="rotate(-56.043,58.750153,48.983307)"
       fill="none"
       stroke="#000000"
       stroke-linecap="round"
       stroke-linejoin="round"
       stroke-width="2.0001"
       id="ellipse14" />
    <ellipse
       cx="53.691299"
       cy="41.331001"
       rx="3.7634001"
       ry="2.6882999"
       transform="rotate(-68.7157,53.691304,41.33104)"
       fill="none"
       stroke="#000000"
       stroke-linecap="round"
       stroke-linejoin="round"
       stroke-width="2"
       id="ellipse15" />
  </g>
</svg>
