<?xml version="1.0" encoding="UTF-8" standalone="no"?>
<svg
   id="emoji"
   viewBox="0 0 52.188469 52.708988"
   version="1.1"
   sodipodi:docname="1f431-200d-1f4bb.svg"
   width="52.188469"
   height="52.708988"
   xmlns:inkscape="http://www.inkscape.org/namespaces/inkscape"
   xmlns:sodipodi="http://sodipodi.sourceforge.net/DTD/sodipodi-0.dtd"
   xmlns="http://www.w3.org/2000/svg"
   xmlns:svg="http://www.w3.org/2000/svg">
  <defs
     id="defs19" />
  <sodipodi:namedview
     id="namedview19"
     pagecolor="#ffffff"
     bordercolor="#000000"
     borderopacity="0.25"
     inkscape:showpageshadow="2"
     inkscape:pageopacity="0.0"
     inkscape:pagecheckerboard="0"
     inkscape:deskcolor="#d1d1d1" />
  <g
     id="color"
     transform="translate(-15.898481,-8.0635126)">
    <path
       fill="#92d3f5"
       d="m 17.1347,58.8989 c 0,0 -2,-13.5 10,-13.5 3.1918,2.1279 5.9264,3.5984 9,3.5922 H 36.01 c 3.1016,-0.1525 5.4081,-2.1643 8.6,-4.2922 15.5705,0 10.8,14.2 10.8,14.2"
       id="path1" />
    <polygon
       fill="#61b2e4"
       points="44.806,45.202 44.806,52.447 26.929,52.447 26.931,45.202 22.265,45.986 22.265,58.861 49.297,58.861 49.297,45.986 "
       id="polygon1" />
    <polygon
       fill="#d0cfce"
       points="35.147,59.772 42.097,43.423 67.087,43.423 60.137,59.772 "
       id="polygon2" />
    <polygon
       fill="#9b9b9a"
       points="60.133,59.772 51.363,59.772 58.313,43.423 67.083,43.423 67.303,43.423 60.353,59.772 "
       id="polygon3" />
    <path
       fill="#f4aa41"
       d="m 49.1631,33.7883 c -2.1131,5.2847 -7.4192,8.7024 -13.6311,8.7024 -5.3551,0 -11.31,-3.3075 -13.4233,-8.5922 l -0.0742,-0.1813 c -0.67,-1.6576 -0.5622,-3.6865 -0.5622,-5.5835 L 23.6261,9.37 l 6.0076,5.8429 c 1.7682,-0.7441 3.6676,-1.1263 5.586,-1.1239 h 0.6246 c 1.9184,-0.0024 3.8178,0.3798 5.586,1.1239 L 48.0254,8.79 50.2117,28.4264 c 0.0024,1.8389 -0.3508,3.6609 -1.04,5.3657"
       id="path3" />
    <path
       fill="#e27022"
       d="m 35.532,42.4907 c 6.2312,0.1985 11.9553,-3.3981 14.0684,-8.6828 l 0.0651,-0.1339 c 0.67,-1.6576 0.5626,-3.9976 0.5626,-5.8946 L 48.0254,8.79"
       id="path4" />
    <polygon
       fill="#b399c8"
       points="49.297,20.787 49.014,18.333 22.652,17.7 22.165,22.428 "
       id="polygon4" />
    <path
       fill="#b399c8"
       d="m 50.8972,19.6 c 0,1.1046 -0.8954,2 -2,2 -1.1046,0 -2,-0.8954 -2,-2 0,-1.1046 0.8954,-2 2,-2 1.1044,4e-4 1.9996,0.8956 2,2"
       id="path5" />
    <path
       fill="#ffffff"
       d="m 47.0723,24.9748 c 0,0 -8.1678,3.4075 -7.7837,3.84 7.8154,7.0159 8.4286,-2.8627 7.7837,-3.84 z"
       id="path6" />
    <path
       fill="#ffffff"
       d="m 24.6281,24.9748 c 0,0 7.5569,4.01 7.7837,3.84 -7.5445,7.3839 -8.5455,-2.2369 -7.7837,-3.84 z"
       id="path7" />
    <path
       fill="#ffffff"
       d="m 53.7216,51.7376 c -0.514,1.1362 -1.6057,1.9026 -2.8489,2 -1.1035,0 -1.62,-0.8955 -1.1511,-2 0.5142,-1.1361 1.6058,-1.9024 2.849,-2 1.1035,0 1.6194,0.8965 1.151,2"
       id="path8" />
  </g>
  <g
     id="line"
     transform="translate(-15.898481,-8.0635126)">
    <path
       fill="none"
       stroke="#000000"
       stroke-linecap="round"
       stroke-linejoin="round"
       stroke-width="2"
       d="m 36.8723,47.8986 c -0.3528,0.0548 -0.7094,0.0819 -1.0665,0.0811 h 0.125 c -3.0736,0.0063 -5.8081,-1.4642 -9,-3.5921 -12,0 -9.8856,13.561 -9.8856,13.561"
       id="path9" />
    <polyline
       fill="none"
       stroke="#000000"
       stroke-linecap="round"
       stroke-linejoin="round"
       stroke-width="2"
       points="35.467 52.133 26.929 52.133 26.931 44.888"
       id="polyline9" />
    <line
       x1="22.2649"
       x2="22.2649"
       y1="45.756901"
       y2="57.8666"
       fill="none"
       stroke="#000000"
       stroke-linecap="round"
       stroke-linejoin="round"
       stroke-width="2"
       id="line9" />
    <polygon
       fill="none"
       stroke="#000000"
       stroke-linecap="round"
       stroke-linejoin="round"
       stroke-width="2"
       points="67.087,43.423 42.097,43.423 35.147,59.772 60.137,59.772 "
       id="polygon9" />
    <line
       x1="24.176701"
       x2="35.146702"
       y1="59.772499"
       y2="59.772499"
       fill="none"
       stroke="#000000"
       stroke-linecap="round"
       stroke-linejoin="round"
       stroke-width="2"
       id="line10" />
    <line
       x1="38.293598"
       x2="35.850201"
       y1="35.589001"
       y2="32.574699"
       fill="none"
       stroke="#000000"
       stroke-linecap="round"
       stroke-linejoin="round"
       stroke-width="1.8"
       id="line11" />
    <line
       x1="33.406799"
       x2="35.850201"
       y1="35.589001"
       y2="32.574699"
       fill="none"
       stroke="#000000"
       stroke-linecap="round"
       stroke-linejoin="round"
       stroke-width="1.8"
       id="line12" />
    <line
       x1="33.406799"
       x2="38.293598"
       y1="32.574699"
       y2="32.574699"
       fill="none"
       stroke="#000000"
       stroke-linecap="round"
       stroke-linejoin="round"
       stroke-width="1.8"
       id="line13" />
    <path
       fill="none"
       stroke="#000000"
       stroke-linecap="round"
       stroke-linejoin="round"
       stroke-width="2"
       d="m 49.7667,23.869 0.4387,4.1844 c 0.0021,1.7794 -0.3434,3.5421 -1.0171,5.189"
       id="path13" />
    <path
       fill="none"
       stroke="#000000"
       stroke-linecap="round"
       stroke-linejoin="round"
       stroke-width="2"
       d="M 22.5121,33.2423 C 21.8384,31.5954 21.4929,29.8328 21.495,28.0534 l 2.138,-18.99 6.4492,6.2109 c 1.7311,-0.72 3.5878,-1.0893 5.4626,-1.0868 h 0.6108 c 1.875,-0.0024 3.7319,0.367 5.4632,1.0868 l 6.4485,-6.2109 0.6655,6.399"
       id="path14" />
    <path
       fill="none"
       stroke="#000000"
       stroke-linecap="round"
       stroke-linejoin="round"
       stroke-width="1.8"
       d="m 28.1119,39.9719 c 2.2346,1.3761 4.8085,2.1022 7.4329,2.0969 h 0.6108 c 2.6244,0.0054 5.1983,-0.7207 7.4329,-2.0969"
       id="path15" />
    <ellipse
       cx="28.519899"
       cy="27.752001"
       rx="1.2217"
       ry="1.2057"
       id="ellipse15" />
    <ellipse
       cx="43.1805"
       cy="27.752001"
       rx="1.2217"
       ry="1.2057"
       id="ellipse16" />
    <path
       fill="none"
       stroke="#000000"
       stroke-linecap="round"
       stroke-linejoin="round"
       stroke-width="1.6"
       d="m 47.0723,24.9474 c 0,0 -8.1678,3.4075 -7.7837,3.84 7.8154,7.0159 8.4286,-2.8627 7.7837,-3.84 z"
       id="path16" />
    <line
       x1="50.9216"
       x2="45.423901"
       y1="37.194698"
       y2="34.180401"
       fill="none"
       stroke="#000000"
       stroke-linecap="round"
       stroke-linejoin="round"
       stroke-width="1.6"
       id="line16" />
    <line
       x1="48.6782"
       x2="43.1805"
       y1="39.808899"
       y2="36.794701"
       fill="none"
       stroke="#000000"
       stroke-linecap="round"
       stroke-linejoin="round"
       stroke-width="1.6"
       id="line17" />
    <path
       fill="none"
       stroke="#000000"
       stroke-linecap="round"
       stroke-linejoin="round"
       stroke-width="1.6"
       d="m 24.6281,24.9474 c 0,0 7.5569,4.01 7.7837,3.84 -7.5445,7.3838 -8.5455,-2.2369 -7.7837,-3.84 z"
       id="path17" />
    <line
       x1="20.778799"
       x2="26.276501"
       y1="37.194698"
       y2="34.180401"
       fill="none"
       stroke="#000000"
       stroke-linecap="round"
       stroke-linejoin="round"
       stroke-width="1.6"
       id="line18" />
    <line
       x1="23.0222"
       x2="28.519899"
       y1="39.808899"
       y2="36.794701"
       fill="none"
       stroke="#000000"
       stroke-linecap="round"
       stroke-linejoin="round"
       stroke-width="1.6"
       id="line19" />
    <polyline
       fill="none"
       stroke="#000000"
       stroke-linecap="round"
       stroke-linejoin="round"
       stroke-width="1.6"
       points="46.998 18.284 22.652 17.7 22.165 22.428 47.005 20.926"
       id="polyline19" />
    <path
       fill="none"
       stroke="#000000"
       stroke-linecap="round"
       stroke-linejoin="round"
       stroke-width="1.6"
       d="m 50.4972,19.6 c 0,1.1046 -0.8954,2 -2,2 -1.1046,0 -2,-0.8954 -2,-2 0,-1.1046 0.8954,-2 2,-2 1.1044,4e-4 1.9996,0.8956 2,2"
       id="path19" />
  </g>
</svg>
