<?xml version="1.0" encoding="UTF-8" standalone="no"?>
<svg
   id="emoji"
   viewBox="0 0 60.00177 55.688564"
   version="1.1"
   sodipodi:docname="1f435.svg"
   width="60.00177"
   height="55.688564"
   xmlns:inkscape="http://www.inkscape.org/namespaces/inkscape"
   xmlns:sodipodi="http://sodipodi.sourceforge.net/DTD/sodipodi-0.dtd"
   xmlns="http://www.w3.org/2000/svg"
   xmlns:svg="http://www.w3.org/2000/svg">
  <defs
     id="defs16" />
  <sodipodi:namedview
     id="namedview16"
     pagecolor="#ffffff"
     bordercolor="#000000"
     borderopacity="0.25"
     inkscape:showpageshadow="2"
     inkscape:pageopacity="0.0"
     inkscape:pagecheckerboard="0"
     inkscape:deskcolor="#d1d1d1" />
  <g
     id="color"
     transform="translate(-5.9991153,-7.9753508)">
    <path
       fill="#3f3f3f"
       d="m 36.4139,9.9552 c -0.4743,0.0949 -3.9421,-0.5421 -6.3456,-0.3134 -2.2036,0.2097 -4.3033,1.025 -6.0715,2.3567 l -5.1608,4.8413 -5.6651,9.8592 -1.7766,5.8212 c -0.974,3.1916 -0.798,6.2933 -0.798,9.6303 l 0.07,0.7313 c 0.3101,2.4813 0.5899,4.2256 1.5846,6.0446 0.5691,1.0406 1.3408,1.9529 2.2013,2.7691 1.0973,1.0407 2.7985,2.6424 3.0852,2.8425 1.535,1.0711 4.9167,3.5699 10.903,4.708 0,0 18.5453,2.6127 26.0223,-4.4859 0.086,-0.0816 0.1913,-0.1784 0.311,-0.2864 2.753,-2.4819 4.8275,-5.6593 5.843,-9.2241 0.416,-1.4604 0.7468,-3.0671 0.8624,-4.7115 0.1343,-1.9108 0.3055,-4.1988 0,-5.3529 -0.3724,-1.4069 -1.9698,-5.2727 -1.9698,-5.2727 L 56.5926,23.823 52.5606,16.6628 48.3896,12.654 44.543,10.499 39.7,9.5721 36.4138,9.9551 h 10e-5 z"
       id="path1" />
    <path
       fill="#f4aa41"
       d="m 55.5877,19.5021 2.5,-1.8333 3.0833,-0.5 1.9167,1.25 0.75,1 c 0,0 0.9167,3.6667 1,3.9167 0.0833,0.25 0,6 0,6 l -1.25,3.1667 -2.1667,1.9167 -2.3333,-5.5 -3.1667,-7.25 z"
       id="path2" />
    <polygon
       fill="#f4aa41"
       points="11.2544,17.3011 8.7206,18.8938 7.7894,24.0219 7.9603,29.2618 8.9001,31.8641 10.521,33.4765 11.6624,30.3725 14.421,24.9677 16.671,19.7177 14.0044,17.8844 "
       id="polygon2" />
    <path
       fill="#f4aa41"
       d="m 46.3377,44.5855 4.0833,-2.4167 1.75,-4.6667 1.25,-7.25 -1.0833,-4.75 -2.4167,-2.8333 -4.3333,-1.8333 -5.4167,0.1667 -3.5833,-0.0833 -7,-0.3333 -4.6667,0.3333 -4.25,2.8333 -2,4.5833 0.0833,3.9167 c 0,0 -0.0833,3.5 0.1667,3.9167 0.25,0.4167 1.5833,4.4167 1.5833,4.4167 l 1.1667,1.6667 4,1.8333 -1,4 c 0,0 -0.1667,6.5 1.25,8.4167 1.4167,1.9167 5.8752,4.5693 5.8752,4.5693 l 5.2114,0.9113 4.6419,-1.5378 4.8548,-4.3594 c 0.8412,-2.6884 1.1213,-5.4142 1,-8.1667 l -1.1667,-3.3335 v 0 z"
       id="path3" />
  </g>
  <g
     id="line"
     transform="translate(-5.9991153,-7.9753508)">
    <circle
       cx="27.633801"
       cy="29.677099"
       r="2"
       id="circle3" />
    <path
       fill="none"
       stroke="#000000"
       stroke-linecap="round"
       stroke-linejoin="round"
       stroke-width="2"
       d="m 23.0393,27.9538 c 0,0 4.726,-6.5434 9.4521,0.1023"
       id="path4" />
    <path
       fill="none"
       stroke="#000000"
       stroke-linecap="round"
       stroke-linejoin="round"
       stroke-width="2"
       d="m 30.8968,40.1701 c 0,0 0.6484,2.299 3.537,2.7117"
       id="path5" />
    <path
       fill="none"
       stroke="#000000"
       stroke-linecap="round"
       stroke-linejoin="round"
       stroke-width="2"
       d="m 27.989,51.7674 1.2915,0.8045 c 1.2002,0.7477 2.5573,1.1408 3.9382,1.1408 h 5.6222 c 1.3232,0 2.6255,-0.361 3.7893,-1.0503 l 1.5111,-0.895"
       id="path6" />
    <path
       fill="none"
       stroke="#000000"
       stroke-linecap="round"
       stroke-linejoin="round"
       stroke-width="2"
       d="M 31.0557,35.5878 C 28.4399,37.096 25.0871,40.4167 25.4759,47.464"
       id="path7" />
    <path
       fill="none"
       stroke="#000000"
       stroke-linecap="round"
       stroke-linejoin="round"
       stroke-width="2"
       d="m 26.8178,56.0264 0.2809,0.6695 c 1.0574,2.5206 3.1675,4.4503 5.7723,5.279 l 0.7864,0.2502 c 2.2541,0.7171 4.6965,0.5509 6.8326,-0.4651 v 0 c 2.0135,-0.9577 3.6173,-2.6051 4.5206,-4.6436 l 0.4855,-1.0957"
       id="path8" />
    <path
       fill="none"
       stroke="#000000"
       stroke-linecap="round"
       stroke-linejoin="round"
       stroke-width="2"
       d="m 16.0795,18.8447 -1.7688,-1.228 C 12.691,16.4922 10.5176,16.5976 9.0142,17.8734 v 0 c -0.7659,0.65 -1.2866,1.5421 -1.4642,2.5308 -0.6192,3.4457 -1.5742,11.5715 2.6707,13.7114"
       id="path9" />
    <circle
       cx="43.366199"
       cy="29.9126"
       r="2"
       id="circle9" />
    <path
       fill="none"
       stroke="#000000"
       stroke-linecap="round"
       stroke-linejoin="round"
       stroke-width="2"
       d="m 48.0175,28.1759 c 0,0 -4.726,-6.5434 -9.4521,0.1023"
       id="path10" />
    <path
       fill="none"
       stroke="#000000"
       stroke-linecap="round"
       stroke-linejoin="round"
       stroke-width="2"
       d="m 49.9607,41.4195 c 2.5152,-1.7505 2.6995,-5.9685 3.3012,-10.1803 0.4127,-2.8885 -0.4716,-5.895 -3.5959,-8.4888 -3.1321,-2.6002 -7.3146,-2.1486 -9.39,-1.6993 -1.0224,0.2213 -2.0608,0.3145 -3.1062,0.2758 l -2.7267,-0.1011 c -0.842,-0.0312 -1.6765,-0.1564 -2.4973,-0.3471 -1.9859,-0.4613 -6.3637,-1.0469 -9.6117,1.6496 -3.1243,2.5938 -4.0086,5.6002 -3.5959,8.4888 0.6017,4.2118 0.786,8.4298 3.3012,10.1803"
       id="path11" />
    <path
       fill="none"
       stroke="#000000"
       stroke-linecap="round"
       stroke-linejoin="round"
       stroke-width="2"
       d="m 41.1032,40.1701 c 0,0 -0.6484,2.299 -3.537,2.7117"
       id="path12" />
    <path
       fill="none"
       stroke="#000000"
       stroke-linecap="round"
       stroke-linejoin="round"
       stroke-width="2"
       d="m 41.2534,35.9947 c 2.5625,1.588 5.6444,4.9189 5.2707,11.6914"
       id="path13" />
    <path
       fill="none"
       stroke="#000000"
       stroke-linecap="round"
       stroke-linejoin="round"
       stroke-width="2"
       d="m 41.2534,35.9947 c -0.5708,-0.3538 -1.1928,-0.6531 -1.7718,-0.8958 -1.2375,-0.5188 -2.5724,-0.7524 -3.9139,-0.7201 l -0.0521,0.0013 c -1.5439,0.0372 -3.0699,0.4152 -4.4116,1.18 -0.0161,0.0092 -0.0322,0.0184 -0.0483,0.0277"
       id="path14" />
    <path
       fill="none"
       stroke="#000000"
       stroke-linecap="round"
       stroke-linejoin="round"
       stroke-width="2"
       d="m 54.4627,54.7601 c 0,0 12.6763,-6.0522 3.9518,-28.4623 C 49.69,3.8877 36.0651,9.7105 36.0651,9.7105 c 0,0 -13.755,-6.0449 -22.4795,16.3652 -8.7245,22.4101 3.9518,28.4623 3.9518,28.4623"
       id="path15" />
    <path
       fill="none"
       stroke="#000000"
       stroke-linecap="round"
       stroke-linejoin="round"
       stroke-width="2"
       d="m 55.9205,19.0668 1.7688,-1.228 c 1.6197,-1.1245 3.7931,-1.0191 5.2965,0.2567 v 0 c 0.7659,0.65 1.2866,1.5421 1.4642,2.5308 0.6192,3.4457 1.5742,11.5715 -2.6707,13.7114"
       id="path16" />
  </g>
</svg>
