<?xml version="1.0" encoding="UTF-8" standalone="no"?>
<svg
   id="emoji"
   viewBox="0 0 58.442871 50.916214"
   version="1.1"
   sodipodi:docname="1f436.svg"
   width="58.442871"
   height="50.916214"
   xmlns:inkscape="http://www.inkscape.org/namespaces/inkscape"
   xmlns:sodipodi="http://sodipodi.sourceforge.net/DTD/sodipodi-0.dtd"
   xmlns="http://www.w3.org/2000/svg"
   xmlns:svg="http://www.w3.org/2000/svg">
  <defs
     id="defs10" />
  <sodipodi:namedview
     id="namedview10"
     pagecolor="#ffffff"
     bordercolor="#000000"
     borderopacity="0.25"
     inkscape:showpageshadow="2"
     inkscape:pageopacity="0.0"
     inkscape:pagecheckerboard="0"
     inkscape:deskcolor="#d1d1d1" />
  <g
     id="color"
     transform="translate(-6.6279608,-10.537619)">
    <path
       fill="#f4aa41"
       d="m 24.473,15.1583 -5.0799,1.9352 -7.2963,7.901 -4.1377,10.5005 1.291,5.3405 c 1.2554,3.7911 3.3357,6.4338 7.0626,9.2506 l 2.6874,-2.5839 c 0,0 3.8218,7.7098 10.7384,8.9598 0,0 10.2616,1.936 15.5949,-0.8765 1.4899,-0.7857 2.5141,-1.8291 3.2921,-2.5939 2.0702,-2.0351 3.033,-3.5201 4.5413,-5.2395 v 0 c 0,0 1.6701,1.8077 1.6701,1.8077 l 1.838,-0.0557 5.0169,-7.2292 2.0032,-5.0703 -0.0215,-4.255 L 61.5,27.3355 56.6667,19.9188 c 0,0 -2.6368,-4.2558 -8.1667,-3.9167 0,0 -6.5,-4.8333 -11.8333,-4.0833 -5.3333,0.75 -3.6104,-0.6772 -12.1937,3.2395 z"
       id="path1" />
    <polygon
       fill="#ea5a47"
       points="30.4167,49.1491 30.9413,53.0386 31.362,56.0539 32.1667,58.3991 35,59.8991 39.5833,59.3158 40.4429,57.1116 41.1441,52.9335 41.9167,49.3158 39.9167,49.5658 36,46.7324 32.9167,49.1491 "
       id="polygon1" />
    <polygon
       fill="#3f3f3f"
       points="33.0833,41.9188 34.3333,42.4188 38.6667,42.5855 41.5833,40.3355 39.8333,37.0855 32.5,36.9188 30.9167,40.6688 "
       id="polygon2" />
  </g>
  <g
     id="line"
     transform="translate(-6.6279608,-10.537619)">
    <path
       d="m 29.5059,30.1088 c 0,0 -1.8051,1.2424 -2.7484,0.6679 -0.9434,-0.5745 -1.2424,-1.8051 -0.6679,-2.7484 0.5745,-0.9433 1.805,-1.2424 2.7484,-0.6679 0.9434,0.5745 0.6679,2.7484 0.6679,2.7484 z"
       id="path2" />
    <path
       fill="none"
       stroke="#000000"
       stroke-linecap="round"
       stroke-linejoin="round"
       stroke-width="2"
       d="m 33.1089,37.006 h 6.1457 c 0.4011,0 0.7634,0.2397 0.9203,0.6089 l 1.1579,2.7245 -2.1792,1.1456 c -0.6156,0.3236 -1.3654,-0.0645 -1.4567,-0.754"
       id="path3" />
    <path
       fill="none"
       stroke="#000000"
       stroke-linecap="round"
       stroke-linejoin="round"
       stroke-width="2"
       d="m 34.7606,40.763 c -0.1132,0.6268 -0.7757,0.9895 -1.3647,0.7471 l -2.3132,-0.952 1.0899,-2.9035 c 0.1465,-0.3901 0.5195,-0.6486 0.9362,-0.6486"
       id="path4" />
    <path
       fill="none"
       stroke="#000000"
       stroke-linecap="round"
       stroke-linejoin="round"
       stroke-width="2"
       d="m 30.4364,50.0268 c 0,0 -0.7187,8.7934 3.0072,9.9375 2.6459,0.8125 5.1497,0.5324 6.0625,-0.25 0.875,-0.75 2.6323,-4.4741 1.8267,-9.6875"
       id="path5" />
    <path
       d="m 44.2636,30.1088 c 0,0 1.805,1.2424 2.7484,0.6679 0.9434,-0.5745 1.2424,-1.8051 0.6679,-2.7484 -0.5745,-0.9434 -1.805,-1.2424 -2.7484,-0.6679 -0.9434,0.5745 -0.6679,2.7484 -0.6679,2.7484 z"
       id="path6" />
    <path
       fill="none"
       stroke="#000000"
       stroke-linecap="round"
       stroke-linejoin="round"
       stroke-width="2"
       d="m 25.6245,42.8393 c -0.475,3.6024 2.2343,5.7505 4.2847,6.8414 1.1968,0.6367 2.6508,0.5182 3.7176,-0.3181 l 2.581,-2.0233 2.581,2.0233 c 1.0669,0.8363 2.5209,0.9548 3.7176,0.3181 2.0504,-1.0909 4.7597,-3.239 4.2847,-6.8414"
       id="path7" />
    <path
       fill="none"
       stroke="#000000"
       stroke-linecap="round"
       stroke-linejoin="round"
       stroke-width="2"
       d="m 19.9509,28.3572 c -2.3166,5.1597 -0.5084,13.0249 0.119,15.3759 0.122,0.4571 0.0755,0.9355 -0.1271,1.3631 l -1.9874,4.1937 c -0.623,1.3146 -2.3934,1.5533 -3.331,0.4409 C 11.4323,45.9437 6.066,38.3409 8.0758,33.0448 15.1383,14.4344 23.9435,14.9019 23.9435,14.9019 c 2.8453,-1.9336 13.1042,-6.9375 24.8125,0.875 0,0 8.6323,-1.7175 14.9375,16.9375 1.8036,5.3362 -3.4297,12.8668 -6.5506,16.6442 -0.9312,1.127 -2.7162,0.8939 -3.3423,-0.4272 l -1.9741,-4.1656 c -0.2026,-0.4275 -0.2491,-0.906 -0.1271,-1.3631 0.6275,-2.3509 2.4356,-10.2161 0.119,-15.3759"
       id="path8" />
    <path
       fill="none"
       stroke="#000000"
       stroke-linecap="round"
       stroke-linejoin="round"
       stroke-width="2"
       d="m 52.6309,46.4628 c 0,0 -3.0781,6.7216 -7.8049,8.2712"
       id="path9" />
    <path
       fill="none"
       stroke="#000000"
       stroke-linecap="round"
       stroke-linejoin="round"
       stroke-width="2"
       d="m 19.437,46.969 c 0,0 3.0781,6.0823 7.8049,7.632"
       id="path10" />
    <line
       x1="36.207802"
       x2="36.207802"
       y1="47.339298"
       y2="44.309299"
       fill="none"
       stroke="#000000"
       stroke-linecap="round"
       stroke-linejoin="round"
       stroke-width="2"
       id="line10" />
  </g>
</svg>
