<svg xmlns="http://www.w3.org/2000/svg" xmlns:svg="http://www.w3.org/2000/svg" id="emoji" width="55.359" height="54.165" version="1.1" viewBox="0 0 55.359 54.165"><g id="color" transform="translate(-9.7404317,-10.425268)"><path id="path1" fill="#a57939" d="m 22.8013,11.5956 1.7853,6.5024 -4.5423,5.088 -9.2429,15.2429 1.0459,3.5501 2.0727,0.7209 3.7964,0.6557 2.6585,-2.481 7.3896,-2.2887 c 0,0 0.2531,1.0356 5.6871,5.1042 0.813,0.6087 1.0992,1.1399 1.8695,2.3577 l 0.497,3.2804 c 0.1498,1.7981 -0.4553,3.8449 -1.0686,5.5418 l -0.7455,1.6402 c -0.3802,1.0519 -1.7988,1.9601 -2.4836,2.8444 v 0 c -0.434,0.5604 -1.0926,0.9738 0.4481,1.6369 4.822,2.0754 22.4545,7.3748 31.9997,-6.7292 l -0.2919,-3.5022 c -0.1381,-1.6577 -0.4984,-3.2893 -1.071,-4.851 v 0 c -0.6409,-1.7479 -1.6148,-3.3549 -2.8677,-4.7319 l -2.2909,-2.5178 -1.3111,-2.0403 0.0531,-5.4226 -2.3965,-4.3745 -4.4907,-3.7265 -2.6667,-4.5 -5.1667,-4.1667 -5.6308,-0.9438 c -0.6706,-0.1124 -1.353,-0.1367 -2.0299,-0.0722 l -3.4384,0.3276 c -0.6924,0.1222 -1.4057,0.0126 -2.0295,-0.3118 l -1.1293,-0.5872 c -1.3692,-0.712 -2.8697,-1.136 -4.4091,-1.2459 v 0 z"/><path id="path2" fill="#6a462f" d="m 64.9826,62.3658 c -0.91,-2.3424 -0.4843,-6.7079 -0.6041,-9.2595 -0.5267,-11.2201 -6.8396,-14.651 -6.8396,-14.651 l -1.3155,0.1949 C 57.2981,32.1235 54.5806,27.7828 54.5806,27.7828 l -4.6989,-4.4382 -0.8259,0.3271 c -3.0154,-7.2389 -9.4087,-9.2909 -9.1669,-9.4921 l -10.5991,-0.6148 2.4602,4.0656 5.792,2.0801 3.5322,2.8413 2.2761,4.3124 0.2832,4.8929 -1.4169,5.6426 -0.1918,3.5518 c -0.0886,1.6403 0.1319,3.2826 0.65,4.8414 l 0.7993,2.4051 c 2.321,7.1157 7.7722,7.2844 9.4165,7.1639 l 0.0364,0.7856 0.0416,0.3204 c 1.0128,4.4415 6.5499,7.3209 10.2595,8.0887 1.2447,0.2576 2.2148,-1.0059 1.7545,-2.1908 z m -12.5904,-8.4524 0.4487,0.3732 0.0138,0.2971 C 52.698,54.3606 52.5371,54.1382 52.3922,53.9134 Z"/></g><g id="line" transform="translate(-9.7404317,-10.425268)"><path id="path3" fill="none" stroke="#000" stroke-linecap="round" stroke-linejoin="round" stroke-width="2" d="m 57.2049,36.8681 c 1.768,2.3617 6.5451,6.6821 6.0451,16.2382"/><path id="path4" fill="none" stroke="#000" stroke-linecap="round" stroke-linejoin="round" stroke-width="2" d="m 31.25,40.9708 c 0,0 8.4783,6.7823 0,18.7647"/><path id="path5" fill="none" stroke="#000" stroke-linecap="round" stroke-linejoin="round" stroke-width="2" d="m 33.9462,29.955 c 0.5489,8.3555 -9.3225,9.703 -11.954,10.3347 -0.3325,0.0798 -0.6318,0.25 -0.8736,0.4919 l -2.2227,2.2227 c -0.3494,0.3494 -0.8234,0.5458 -1.3176,0.5458 h -3.5121 c -1.203,0 -2.2711,-0.7698 -2.6515,-1.9111 l -0.531,-1.5931 c -0.258,-0.774 -0.1649,-1.6222 0.2549,-2.3218 l 8.7862,-14.6436 4.7238,-4.7238 -2.1151,-6.9054 c 0,0 7.8026,-0.6987 8.4135,5.3308 0,0 16.9281,2.4418 10.5531,19.383 0,0 -1.625,5.9489 2.375,11.1846"/><path id="path6" fill="none" stroke="#000" stroke-linecap="round" stroke-linejoin="round" stroke-width="2" d="m 29.6667,13.1063 c 0,0 22.2444,-4.0208 19.9583,19.9583"/><path id="path7" fill="none" stroke="#000" stroke-linecap="round" stroke-linejoin="round" stroke-width="2" d="m 48.6687,22.2404 c 0,0 14.7665,6.5865 5.4563,22.22 0,0 -5.375,6.5625 0.625,13.6042"/><circle id="circle7" cx="23.167" cy="28.016" r="2"/></g></svg>