<?xml version="1.0" encoding="UTF-8" standalone="no"?>
<svg
   id="emoji"
   viewBox="0 0 58.165096 63.175591"
   version="1.1"
   sodipodi:docname="1f430.svg"
   width="58.165096"
   height="63.175591"
   xmlns:inkscape="http://www.inkscape.org/namespaces/inkscape"
   xmlns:sodipodi="http://sodipodi.sourceforge.net/DTD/sodipodi-0.dtd"
   xmlns="http://www.w3.org/2000/svg"
   xmlns:svg="http://www.w3.org/2000/svg">
  <defs
     id="defs7" />
  <sodipodi:namedview
     id="namedview7"
     pagecolor="#ffffff"
     bordercolor="#000000"
     borderopacity="0.25"
     inkscape:showpageshadow="2"
     inkscape:pageopacity="0.0"
     inkscape:pagecheckerboard="0"
     inkscape:deskcolor="#d1d1d1" />
  <g
     id="color"
     transform="translate(-6.8159013,-4.5462907)">
    <path
       fill="#ffffff"
       d="m 30.921,28.0021 c 0,0 3.8009,-4.523 10.1088,0.4052 l -0.6097,11.5103 3.9176,6.0845 c 0,0 4.5833,5.503 4.8333,6.2515 0.25,0.7485 1.75,7.9151 1.5833,8.2485 -0.1667,0.3333 -4.5149,5.4097 -4.5149,5.4097 H 26.0543 l -3.3,-4.8928 0.5833,-11.1003 5.5833,-5.1667 2.8333,-7 z"
       id="path1" />
    <path
       fill="#3f3f3f"
       d="m 39.7544,27.7521 c 0,0 -4.8333,14.8333 4.6667,21.6667 0,0 8.3333,7.6667 0.1667,17 L 50.1212,65 53.3483,62.4377 c 0.5819,-0.462 1.0198,-1.0805 1.2624,-1.7828 l 1.2097,-3.503 c 0.1869,-0.5412 0.2771,-1.1073 0.2651,-1.6798 -0.0244,-1.166 -0.1073,-3.1664 -0.3878,-3.9766 -1.6508,-4.7696 -5.7766,-8.5767 -5.7766,-8.5767 0,0 -2.8333,-2.8333 0.1667,-5.5 l 5.4319,-6.7592 c 0.3966,-0.4935 0.7615,-1.0116 1.0926,-1.5513 l 4.3088,-7.0229 2.0447,-7.2442 0.2096,-8.0482 -3.0876,-1.041 -5.6667,1 -5.8333,5 -4,6.1667 -2.6667,6.3333 -2.1668,3.4999 z"
       id="path2" />
    <path
       fill="#3f3f3f"
       d="m 32.1082,27.7521 c 0,0 4.8333,14.8333 -4.6667,21.6667 0,0 -8.3333,7.6667 -0.1667,17 L 22.4459,64.9806 C 21.7944,64.7866 21.188,64.4645 20.6624,64.0334 L 18.6197,62.358 C 18.2317,62.0398 17.9236,61.6352 17.72,61.1765 l -1.4937,-3.3652 c -0.3046,-0.6863 -0.4222,-1.438 -0.3412,-2.1845 0.1361,-1.2547 0.3649,-3.1969 0.5584,-4.0234 0.5508,-2.3521 5.4979,-8.6846 5.4979,-8.6846 0,0 2.8333,-2.8333 -0.1667,-5.5 L 15.6745,30.3554 10.9414,22.0855 8.845,14.8997 7.9172,6.7166 l 3.8575,-0.9644 5.6465,1.0693 5.8535,4.9307 4,6.1667 2.6667,6.3333 z"
       id="path3" />
  </g>
  <g
     id="line"
     transform="translate(-6.8159013,-4.5462907)">
    <path
       fill="none"
       stroke="#000000"
       stroke-linecap="round"
       stroke-linejoin="round"
       stroke-width="2"
       d="m 60.5693,9.8131 c 0,0 -12.4983,-0.3048 -16.784,19.8578"
       id="path4" />
    <polyline
       fill="none"
       stroke="#000000"
       stroke-linecap="round"
       stroke-linejoin="round"
       stroke-width="2"
       points="41.0298 50.553 35.8398 53.9543 30.5638 50.553"
       id="polyline4" />
    <polyline
       fill="none"
       stroke="#000000"
       stroke-linecap="round"
       stroke-linejoin="round"
       stroke-width="2"
       points="31.3767 61.0191 35.7968 58.9868 40.4201 61.0191"
       id="polyline5" />
    <line
       x1="35.839802"
       x2="35.796799"
       y1="53.9543"
       y2="58.986801"
       fill="none"
       stroke="#000000"
       stroke-linecap="round"
       stroke-linejoin="round"
       stroke-width="2"
       id="line5" />
    <ellipse
       cx="45.121399"
       cy="39.917599"
       rx="1.6461"
       ry="2.8118999"
       id="ellipse5" />
    <path
       fill="none"
       stroke="#000000"
       stroke-linecap="round"
       stroke-linejoin="round"
       stroke-width="2"
       d="M 22.3332,36.7338 C 5.6688,23.7275 7.9043,6.2824 7.9043,6.2824 23.959,0.7258 31.3767,27.9952 31.3767,27.9952 c 0,0 4.4135,-3.561 9.0435,0 0,0 7.4177,-27.2693 23.4724,-21.7128 0,0 2.2355,17.4451 -14.4289,30.4514"
       id="path5" />
    <path
       fill="none"
       stroke="#000000"
       stroke-linecap="round"
       stroke-linejoin="round"
       stroke-width="2"
       d="m 11.2275,9.8131 c 0,0 12.4983,-0.3048 16.784,19.8578"
       id="path6" />
    <path
       fill="none"
       stroke="#000000"
       stroke-linecap="round"
       stroke-linejoin="round"
       stroke-width="2"
       d="m 22.3332,43.745 c 0,0 -10.8725,8.2306 -4.7758,17.9853 0,0 2.8451,5.2838 13.2096,4.979 h 10.2628 c 10.3644,0.3048 13.2095,-4.979 13.2095,-4.979 C 60.336,51.9756 49.4635,43.745 49.4635,43.745"
       id="path7" />
    <ellipse
       cx="26.878599"
       cy="39.917599"
       rx="1.6461"
       ry="2.8118999"
       id="ellipse7" />
  </g>
</svg>
