<?xml version="1.0" encoding="UTF-8" standalone="no"?>
<svg
   id="emoji"
   viewBox="0 0 61.505501 51.524811"
   version="1.1"
   sodipodi:docname="1f439.svg"
   width="61.505501"
   height="51.524811"
   xmlns:inkscape="http://www.inkscape.org/namespaces/inkscape"
   xmlns:sodipodi="http://sodipodi.sourceforge.net/DTD/sodipodi-0.dtd"
   xmlns="http://www.w3.org/2000/svg"
   xmlns:svg="http://www.w3.org/2000/svg">
  <defs
     id="defs13" />
  <sodipodi:namedview
     id="namedview13"
     pagecolor="#ffffff"
     bordercolor="#000000"
     borderopacity="0.25"
     inkscape:showpageshadow="2"
     inkscape:pageopacity="0.0"
     inkscape:pagecheckerboard="0"
     inkscape:deskcolor="#d1d1d1" />
  <g
     id="color"
     transform="translate(-5.8769,-9.9815894)">
    <path
       fill="#f4aa41"
       d="m 19.5877,25.3355 c 0,0 -11.3101,6.9212 -8.557,19.1425 3.75,16.5 15.807,14.1075 15.807,14.1075 l 4.75,-1.25 9.5,-0.25 c 0,0 9,2.75 14.25,-0.25 3.6474,-2.0842 5.6518,-8.6888 6.7284,-11.6088 0.4745,-1.2869 0.0591,-7.141 -0.5088,-9.4385 -0.5877,-2.3776 -1.8128,-4.546 -3.5447,-6.2778 l -1.6749,-1.6749 -2.5,-2 c 0,0 5.358,-8.1755 4.0917,-11.543 -0.797,-2.1194 -2.7751,-5.0699 -10.5917,0.293 l -1.25,1 c 0,0 -9.75,-4.75 -19.5,-0.25 0,0 -2.2244,-1.3264 -4.1143,-2.6196 -3.2429,-2.219 -6.5476,-1.0231 -7.6121,2.7594 l 0.0032,0.1189 c 0.0534,1.9843 0.3815,3.9607 1.0747,5.8208 0.7305,1.9603 2.4429,3.5836 3.6486,3.9205 z"
       id="path1" />
    <path
       fill="#ffffff"
       d="m 12.4063,42.2707 c 3.1713,2.4225 10.4003,6.4005 19.2714,1.3542 0.5813,-0.3306 1.3337,-0.0945 1.6059,0.5163 0.5583,1.2526 1.6571,2.9601 3.3873,2.5276 1.9259,-0.4815 3.6345,-2.0497 4.4352,-2.8837 0.3057,-0.3184 0.7624,-0.4306 1.1831,-0.2969 2.7761,0.8828 11.4323,3.7001 18.4357,-1.0987 0.8472,-0.5805 1.981,0.0878 1.8226,1.1026 -0.5144,3.2943 -0.9874,8.9016 -6.6562,13.6938 -0.118,0.0998 -8.2067,2.6994 -13.8111,0.019 -0.1597,-0.0764 -0.3345,-0.117 -0.5116,-0.1125 l -9.3924,0.2388 c -0.1103,0.0028 -0.2144,0.0196 -0.3193,0.0537 -1.0804,0.3511 -7.8663,2.3851 -12.6858,-0.216 -4.6337,-2.2167 -7.9738,-9.3213 -8.5969,-13.8005 -0.1421,-1.0212 1.0128,-1.7235 1.8322,-1.0976 z"
       id="path2" />
    <path
       fill="#ea5a47"
       d="m 32.0877,42.9188 8.375,-0.0833 c 0,0 -0.6875,3.9375 -3.8125,3.9375 -3.125,0 -4.5625,-3.8542 -4.5625,-3.8542 z"
       id="path3" />
  </g>
  <g
     id="line"
     transform="translate(-5.8769,-9.9815894)">
    <circle
       cx="27.8144"
       cy="32.085499"
       r="3"
       id="circle3" />
    <circle
       cx="44.4394"
       cy="32.085499"
       r="3"
       id="circle4" />
    <path
       fill="none"
       stroke="#000000"
       stroke-linecap="round"
       stroke-linejoin="round"
       stroke-width="2"
       d="m 32.3769,43.7564 c 0,0 0.75,2.5833 3.75,2.9167 3,0.3333 4,-2.9167 4,-2.9167"
       id="path4" />
    <path
       fill="none"
       stroke="#000000"
       stroke-linecap="round"
       stroke-linejoin="round"
       stroke-width="2"
       d="m 36.1269,46.673 0.125,4.3334 c 1.6287,1.0459 2.5723,1.5093 5.0416,1"
       id="path5" />
    <path
       fill="none"
       stroke="#000000"
       stroke-linecap="round"
       stroke-linejoin="round"
       stroke-width="2"
       d="m 31.3769,52.0064 c 1.9583,0.3334 2.9167,0 4.875,-1"
       id="path6" />
    <path
       fill="none"
       stroke="#000000"
       stroke-linecap="round"
       stroke-linejoin="round"
       stroke-width="2"
       d="m 41.8823,56.673 c 5.397,2.7745 9.6846,1.7224 12.7521,-0.243"
       id="path7" />
    <path
       fill="none"
       stroke="#000000"
       stroke-linecap="round"
       stroke-linejoin="round"
       stroke-width="2"
       d="m 11.0307,44.478 c -3.7861,-13.5237 9.0129,-18.7216 9.0129,-18.7216 -3,-1 -8.3333,-9.5833 -3.9167,-13.5833 4.4166,-4 10.5,3.3333 10.5,3.3333 0,0 9.8443,-4.1667 20.0055,0 0,0 6.0833,-7.3333 10.5,-3.3333 4.4167,4 -0.9167,12.5833 -3.9167,13.5833 0,0 12.5816,5.0927 9.1061,18.3773"
       id="path8" />
    <path
       fill="none"
       stroke="#000000"
       stroke-linecap="round"
       stroke-linejoin="round"
       stroke-width="2"
       d="m 19.2213,56.7912 c 3.0177,1.722 7.0999,2.4809 12.1556,-0.1181"
       id="path9" />
    <path
       fill="none"
       stroke="#000000"
       stroke-linecap="round"
       stroke-linejoin="round"
       stroke-width="2"
       d="m 26.6269,43.5064 c 0,0 -17,2.6667 -19.75,11.75"
       id="path10" />
    <path
       fill="none"
       stroke="#000000"
       stroke-linecap="round"
       stroke-linejoin="round"
       stroke-width="2"
       d="m 27.3769,47.2267 c 0,0 -12.2519,2.2168 -14.5,13.2797"
       id="path11" />
    <path
       fill="none"
       stroke="#000000"
       stroke-linecap="round"
       stroke-linejoin="round"
       stroke-width="2"
       d="m 46.6324,43.5064 c 0,0 17,2.6667 19.75,11.75"
       id="path12" />
    <path
       fill="none"
       stroke="#000000"
       stroke-linecap="round"
       stroke-linejoin="round"
       stroke-width="2"
       d="m 45.8824,47.2267 c 0,0 11.7426,3.7797 14.5,13.2797"
       id="path13" />
  </g>
</svg>
