<?xml version="1.0" encoding="UTF-8" standalone="no"?>
<svg
   id="emoji"
   viewBox="0 0 61.584995 54.97768"
   version="1.1"
   sodipodi:docname="1f437.svg"
   width="61.584995"
   height="54.97768"
   xmlns:inkscape="http://www.inkscape.org/namespaces/inkscape"
   xmlns:sodipodi="http://sodipodi.sourceforge.net/DTD/sodipodi-0.dtd"
   xmlns="http://www.w3.org/2000/svg"
   xmlns:svg="http://www.w3.org/2000/svg">
  <defs
     id="defs10" />
  <sodipodi:namedview
     id="namedview10"
     pagecolor="#ffffff"
     bordercolor="#000000"
     borderopacity="0.25"
     inkscape:showpageshadow="2"
     inkscape:pageopacity="0.0"
     inkscape:pagecheckerboard="0"
     inkscape:deskcolor="#d1d1d1" />
  <g
     id="color"
     transform="translate(-4.9838554,-9.8856967)">
    <path
       fill="#ffa7c0"
       d="m 28.2027,21.3266 c -0.707,0.093 -1.3764,-0.2934 -1.6465,-0.9533 -0.7644,-1.867 -3.1141,-5.4625 -10.0935,-6.9127 -9.625,-2 -8.556,-1.5899 -8.556,-1.5899 l -0.4976,0.4092 c -0.4626,0.3804 -0.6667,0.9919 -0.5252,1.5739 l 1.9534,8.036 c 0.0114,0.047 0.0207,0.0945 0.0277,0.1423 l 0.9094,6.2054 c 0.0184,0.1256 0.0521,0.2484 0.1002,0.3659 l 2.3674,5.7722 c 0.0274,0.0668 0.0569,0.1276 0.0933,0.1899 0.2693,0.4604 1.5082,2.5335 2.2328,2.9752 1.0618,0.6471 2.8796,0.6222 4.2951,0.47 1.0198,-0.1096 1.873,0.7598 1.7251,1.7747 l -0.8229,5.6476 c -0.1961,1.3457 -0.1921,2.713 0.0119,4.0576 0,0 0.6462,4.1362 0.7526,4.5901 0.2559,1.0915 0.7163,2.1231 1.3077,3.0755 0.6813,1.0972 1.6413,2.6032 2.1855,3.2794 0.9646,1.1988 2.2382,2.0986 3.6932,2.5991 3.7914,1.3043 12.5808,4.0655 18.3808,-1.6158 8.0462,-7.8817 5.9607,-15.8196 5.9607,-15.8196 L 51.1714,39.7885 C 51.0235,38.819 51.7961,37.955 52.776,37.994 l 1.8976,0.0755 c 0.2652,0.0105 0.5286,-0.0467 0.7655,-0.1663 l 1.8312,-0.9249 c 0.3043,-0.1537 0.5499,-0.4028 0.6992,-0.7092 l 2.8262,-5.7985 C 60.835,30.39 60.8672,30.3062 60.8921,30.22 l 1.3359,-4.6241 c 0.0155,-0.0537 0.0281,-0.1083 0.0378,-0.1633 l 0.6971,-3.972 1.4906,-6.6881 0.2433,-1.2819 c 0.1654,-0.8716 -0.4282,-1.7057 -1.3059,-1.8348 l -0.7069,-0.104 c -0.249,-0.0366 -0.5032,-0.0125 -0.7408,0.0704 l -5.4208,1.8898 c -0.0481,0.0168 -0.097,0.0312 -0.1465,0.0432 l -6.2747,1.519 c -0.2611,0.0632 -0.5015,0.1928 -0.6979,0.3762 l -2.5742,2.4041 c -0.1378,0.1287 -0.2512,0.2813 -0.3345,0.4505 l -1.2642,2.5645 c -0.2919,0.5922 -0.9227,0.9358 -1.5786,0.8601 -2.7957,-0.3225 -10.3635,-1.0714 -15.4487,-0.4028 z"
       id="path1" />
    <path
       fill="#e67a94"
       d="m 35.324,42.5099 -6.7238,3.1518 c -0.4053,0.19 -0.7096,0.5449 -0.8353,0.9746 l -1.1797,4.0305 c -0.0802,0.2739 -0.0837,0.5646 -0.0101,0.8404 l 0.6953,2.6075 c 0.1216,0.4559 0.4429,0.8323 0.874,1.0239 l 1.0306,0.458 c 0.3465,0.154 0.7373,0.1766 1.0992,0.0635 l 4.9717,-1.5536 c 0.3039,-0.095 0.6296,-0.0947 0.9333,8e-4 l 3.5673,1.1212 c 0.2245,0.0706 0.4621,0.0894 0.6949,0.0552 l 2.8221,-0.415 c 0.6456,-0.0949 1.164,-0.5816 1.2994,-1.22 l 0.567,-2.6728 c 0.0543,-0.256 0.0434,-0.5215 -0.0318,-0.7722 L 43.9207,46.279 C 43.7888,45.8393 43.47,45.48 43.0491,45.2967 l -6.4397,-2.8044 c -0.4111,-0.179 -0.8793,-0.1726 -1.2853,0.0178 z"
       id="path2" />
    <path
       fill="#e67a94"
       d="m 61.3454,16.3946 v 0 c -0.17,0.126 -0.3639,0.216 -0.5699,0.2647 l -6.1873,1.4624 c -0.2467,0.0583 -0.4754,0.1758 -0.6665,0.3424 l -4.2014,3.6628 c -0.2487,0.2168 -0.4223,0.5069 -0.4958,0.8285 l -0.8411,3.6798 c -0.0308,0.1349 -0.044,0.2664 -0.0383,0.4046 0.0544,1.3251 0.4467,8.6932 2.4925,10.1707 1.7844,1.2887 5.0791,0.2383 6.3663,-0.2516 0.3384,-0.1288 0.6212,-0.3664 0.8026,-0.6798 l 3.6591,-6.3233 c 0.093,-0.1608 0.1566,-0.3369 0.1878,-0.5201 L 63.8125,17.91 c 0.2356,-1.3858 -1.3376,-2.3521 -2.4672,-1.5154 z"
       id="path3" />
    <path
       fill="#e67a94"
       d="m 7.296,14.0855 3.1173,2.3091 c 0.17,0.126 0.3639,0.216 0.5699,0.2647 l 6.1873,1.4624 c 0.2467,0.0583 0.4754,0.1758 0.6665,0.3424 l 4.2014,3.6628 c 0.2487,0.2168 0.4223,0.5069 0.4958,0.8285 l 0.8411,3.6798 c 0.0308,0.1349 0.044,0.2664 0.0383,0.4046 -0.0544,1.3251 -0.4467,8.6932 -2.4925,10.1707 -1.7237,1.2449 -3.6945,1.1691 -4.5222,1.0655 -0.251,-0.0314 -0.4852,-0.1269 -0.6917,-0.2729 L 13.3621,36.3447 C 13.1226,36.1753 12.9357,35.9419 12.8228,35.6712 L 9.879,28.6112 C 9.8279,28.4886 9.7926,28.36 9.7741,28.2284 L 9.0307,22.9539 C 9.0241,22.9068 9.0153,22.86 9.0043,22.8137 L 7.2966,15.5687 C 7.2645,15.4324 7.2508,15.2923 7.2561,15.1523 Z"
       id="path4" />
  </g>
  <g
     id="line"
     transform="translate(-4.9838554,-9.8856967)">
    <path
       fill="none"
       stroke="#000000"
       stroke-linecap="round"
       stroke-linejoin="round"
       stroke-width="2"
       d="m 40.5348,55.6239 -3.9761,-1.494 c -0.363,-0.1364 -0.7632,-0.1364 -1.1261,0 l -3.9761,1.494 c -2.2002,0.8267 -4.5486,-0.7996 -4.5486,-3.1499 v -2.463 c 0,-2.11 1.0916,-4.0698 2.8856,-5.1806 l 2.3807,-1.4741 c 2.3414,-1.4497 5.3015,-1.4497 7.6429,0 l 2.3807,1.4741 c 1.794,1.1108 2.8856,3.0706 2.8856,5.1806 v 2.463 c 0,2.3504 -2.3484,3.9767 -4.5486,3.1499 z"
       id="path5" />
    <ellipse
       cx="32.183399"
       cy="49.711498"
       rx="2.6113999"
       ry="1.6068"
       transform="rotate(-70.5666,32.183483,49.711508)"
       id="ellipse5" />
    <ellipse
       cx="39.806198"
       cy="49.705502"
       rx="1.6068"
       ry="2.6113999"
       transform="rotate(-19.4334,39.806124,49.705312)"
       id="ellipse6" />
    <circle
       cx="26.0833"
       cy="36.085499"
       r="2"
       id="circle6" />
    <circle
       cx="46.041698"
       cy="36.085499"
       r="2"
       id="circle7" />
    <path
       fill="none"
       stroke="#000000"
       stroke-linecap="round"
       stroke-linejoin="round"
       stroke-width="2"
       d="M 25.8333,61.4188 C 15.75,54.9188 20.6666,38.2521 20.6666,38.2521 12.8904,41.1682 11.6451,34.5117 9.7462,30.0459 9.001,28.2934 8.6724,26.4095 8.5828,24.5073 8.4229,21.11 6.9701,16.4312 6.089,13.868 c -0.47,-1.3674 0.6215,-2.7649 2.0621,-2.6417 1.1647,0.0996 2.4527,0.5098 3.5792,0.9664 1.8985,0.7695 3.8733,1.3555 5.9082,1.591 8.4189,0.9743 9.2693,7.3018 9.2693,7.3018 0,0 10.5705,-1.75 17.7588,0.25 0,0 0.8287,-6.9109 9.2476,-7.8852 2.0349,-0.2355 4.0098,-0.8215 5.9082,-1.591 1.1266,-0.4566 2.4145,-0.8668 3.5792,-0.9664 1.4406,-0.1231 2.5321,1.2744 2.0621,2.6417 -0.8811,2.5633 -2.3339,7.242 -2.4939,10.6394 -0.0896,1.9022 -0.4182,3.7862 -1.1634,5.5386 -1.8989,4.4657 -3.1442,11.1222 -10.9204,8.2062 0,0 4.9167,16.6667 -5.1667,23.1667"
       id="path7" />
    <path
       fill="none"
       stroke="#000000"
       stroke-linecap="round"
       stroke-linejoin="round"
       stroke-width="2"
       d="m 30.8333,59.3355 c 0,0 4.6667,4 10.6667,0"
       id="path8" />
    <path
       fill="none"
       stroke="#000000"
       stroke-linecap="round"
       stroke-linejoin="round"
       stroke-width="2"
       d="m 23.0625,26.023 c 0,0 -1.375,-6.4375 -7.1875,-8 -5.8125,-1.5625 -5.5,-2.1875 -5.5,-2.1875"
       id="path9" />
    <path
       fill="none"
       stroke="#000000"
       stroke-linecap="round"
       stroke-linejoin="round"
       stroke-width="2"
       d="m 47.8268,26.023 c 0,0 1.375,-6.4375 7.1875,-8 5.8125,-1.5625 5.5,-2.1875 5.5,-2.1875"
       id="path10" />
  </g>
</svg>
