<?xml version="1.0" encoding="UTF-8" standalone="no"?>
<svg
   id="emoji"
   viewBox="0 0 40.961422 58.2062"
   version="1.1"
   sodipodi:docname="1f446-1f3fc.svg"
   width="40.961422"
   height="58.2062"
   xmlns:inkscape="http://www.inkscape.org/namespaces/inkscape"
   xmlns:sodipodi="http://sodipodi.sourceforge.net/DTD/sodipodi-0.dtd"
   xmlns="http://www.w3.org/2000/svg"
   xmlns:svg="http://www.w3.org/2000/svg">
  <defs
     id="defs11" />
  <sodipodi:namedview
     id="namedview11"
     pagecolor="#ffffff"
     bordercolor="#000000"
     borderopacity="0.25"
     inkscape:showpageshadow="2"
     inkscape:pageopacity="0.0"
     inkscape:pagecheckerboard="0"
     inkscape:deskcolor="#d1d1d1" />
  <g
     id="color"
     transform="translate(-15.522366,-6.8969)" />
  <g
     id="hair"
     transform="translate(-15.522366,-6.8969)" />
  <g
     id="skin"
     transform="translate(-15.522366,-6.8969)">
    <path
       fill="#debb90"
       d="m 55.36,33.7297 c -0.38,-1.44 -1.66,-2.53 -3.23,-2.6 -1.67,-0.07 -3.12,1.04 -3.52,2.6 h -0.19 c 0,0.02 0.01,0.05 0.01,0.08 -0.01,-0.03 -0.01,-0.06 -0.02,-0.08 v -0.0099 c 0,0 0,0 0,-0.01 -0.11,-0.56 -0.35,-1.06 -0.69,-1.49 -0.06,-0.08 -0.1299,-0.16 -0.21,-0.2401 -0.17,-0.18 -0.35,-0.34 -0.56,-0.47 -0.07,-0.05 -0.14,-0.1 -0.21,-0.14 -0.17,-0.1 -0.34,-0.18 -0.52,-0.25 -0.1,-0.04 -0.2,-0.07 -0.3,-0.09 -0.12,-0.04 -0.25,-0.07 -0.38,-0.09 -0.08,-0.01 -0.16,-0.02 -0.24,-0.03 h -0.04 c -0.01,0 -0.01,0 -0.02,0 -0.09,-0.01 -0.17,-0.01 -0.26,-0.01 -0.12,0 -0.23,0 -0.34,0.02 -0.23,0.02 -0.44,0.06 -0.65,0.12 -0.43,0.13 -0.83,0.34 -1.18,0.6201 -0.08,0.06 -0.16,0.1299 -0.24,0.21 -0.09,0.07 -0.16,0.15 -0.23,0.24 -0.07,0.08 -0.14,0.16 -0.2,0.25 -0.06,0.09 -0.12,0.18 -0.18,0.28 -0.11,0.19 -0.2,0.39 -0.28,0.6 -0.05,0.16 -0.1,0.32 -0.12,0.49 h -0.13 c -0.12,-1.72 -1.49,-3.12 -3.26,-3.23 -1.74,-0.11 -3.25,1.06 -3.63,2.7 v 0.58 l -0.09,-0.01 v -22.37 c 0,-0.11 -0.01,-0.23 -0.02,-0.34 -0.17,-1.78 -1.65,-3.16 -3.48,-3.16 -1.93,0 -3.5,1.56 -3.5,3.5 v 24.27 l 0.02,0.03 -0.02,1.25 v -1.28 l -0.79,-1.0699 -1.35,-1.83 -0.69,0.45 c -0.22,-0.23 -0.51,-0.48 -0.87,-0.71 l -0.01,-0.01 c -1.8,-1.28 -5,-2.58 -6.16,-1.46 -1.35,1.3101 -0.56,4.23 4.86,11.3701 0.99,20.84 8.68,19.56 16.58,21.69 7.66,0.71 16.13,-6.3101 16.25,-18.14 h 0.21 V 34.62 c 0,-0.3102 -0.04,-0.6002 -0.12,-0.8903 z m -13.86,0.38 h -0.01 c 0.01,-0.07 0.01,-0.14 0.03,-0.21 -0.01,0.0701 -0.02,0.14 -0.02,0.21 z"
       id="path1" />
  </g>
  <g
     id="skin-shadow"
     transform="translate(-15.522366,-6.8969)" />
  <g
     id="line"
     transform="translate(-15.522366,-6.8969)">
    <path
       fill="none"
       stroke="#000000"
       stroke-linecap="round"
       stroke-linejoin="round"
       stroke-miterlimit="10"
       stroke-width="2"
       d="m 55.4792,47.6473 c 0,9.0883 -7.3675,16.4558 -16.4558,16.4558 -9.0883,0 -16.4558,-7.3675 -16.4558,-16.4558"
       id="path2" />
    <line
       x1="55.479198"
       x2="55.479198"
       y1="46.7738"
       y2="34.7738"
       fill="none"
       stroke="#000000"
       stroke-linecap="round"
       stroke-linejoin="round"
       stroke-miterlimit="10"
       stroke-width="2"
       id="line2" />
    <path
       fill="none"
       stroke="#000000"
       stroke-linecap="round"
       stroke-linejoin="round"
       stroke-miterlimit="10"
       stroke-width="2"
       d="m 48.4869,34.4804 c 0.081,-1.9313 1.7123,-3.4313 3.6436,-3.3502 1.9313,0.081 3.4312,1.7123 3.3502,3.6436"
       id="path3" />
    <path
       fill="none"
       stroke="#000000"
       stroke-linecap="round"
       stroke-linejoin="round"
       stroke-miterlimit="10"
       stroke-width="2"
       d="m 41.49,34.2475 c 0.081,-1.9313 1.7123,-3.4312 3.6436,-3.3502 1.9313,0.081 3.4313,1.7123 3.3502,3.6436"
       id="path4" />
    <path
       fill="none"
       stroke="#000000"
       stroke-linecap="round"
       stroke-linejoin="round"
       stroke-miterlimit="10"
       stroke-width="2"
       d="m 41.494,34.1136 c 0.155,-1.9268 1.8426,-3.3631 3.7694,-3.2081 1.9268,0.155 3.3631,1.8426 3.2081,3.7694"
       id="path5" />
    <path
       fill="none"
       stroke="#000000"
       stroke-linecap="round"
       stroke-linejoin="round"
       stroke-miterlimit="10"
       stroke-width="2"
       d="m 34.4524,33.7692 c 0.1237,-1.929 1.7878,-3.3925 3.7168,-3.2688 1.929,0.1237 3.3925,1.7878 3.2688,3.7168"
       id="path6" />
    <path
       fill="none"
       stroke="#000000"
       stroke-linecap="round"
       stroke-linejoin="round"
       stroke-miterlimit="10"
       stroke-width="2"
       d="m 17.4986,35.9928 c -1.3429,-1.3904 -1.3044,-3.6061 0.086,-4.949 1.3904,-1.3429 3.6061,-1.3044 4.949,0.086"
       id="path7" />
    <path
       fill="none"
       stroke="#000000"
       stroke-linecap="round"
       stroke-linejoin="round"
       stroke-miterlimit="10"
       stroke-width="2"
       d="m 27.4524,11.3969 c 0,-1.933 1.567,-3.5 3.5,-3.5 1.933,0 3.5,1.567 3.5,3.5"
       id="path8" />
    <line
       x1="34.4524"
       x2="34.4524"
       y1="33.732101"
       y2="11.3969"
       fill="none"
       stroke="#000000"
       stroke-linecap="round"
       stroke-linejoin="round"
       stroke-miterlimit="10"
       stroke-width="2"
       id="line8" />
    <line
       x1="27.4524"
       x2="27.4524"
       y1="11.3969"
       y2="39.1875"
       fill="none"
       stroke="#000000"
       stroke-linecap="round"
       stroke-linejoin="round"
       stroke-miterlimit="10"
       stroke-width="2"
       id="line9" />
    <line
       x1="24.4916"
       x2="22.5336"
       y1="33.343498"
       y2="31.129801"
       fill="none"
       stroke="#000000"
       stroke-linecap="round"
       stroke-linejoin="round"
       stroke-miterlimit="10"
       stroke-width="2"
       id="line10" />
    <path
       fill="none"
       stroke="#000000"
       stroke-linecap="round"
       stroke-linejoin="round"
       stroke-miterlimit="10"
       stroke-width="2"
       d="m 19.2663,38.3125 c 1.9526,2.1439 3.3734,5.1677 3.3013,9.5218"
       id="path10" />
    <line
       x1="17.4986"
       x2="19.32"
       y1="35.992802"
       y2="38.373001"
       fill="none"
       stroke="#000000"
       stroke-linecap="round"
       stroke-linejoin="round"
       stroke-miterlimit="10"
       stroke-width="2"
       id="line11" />
  </g>
</svg>
