<?xml version="1.0" encoding="UTF-8" standalone="no"?>
<svg
   id="emoji"
   viewBox="0 0 50.090351 51.138649"
   version="1.1"
   sodipodi:docname="1f44e-1f3fb.svg"
   width="50.090351"
   height="51.138649"
   xmlns:inkscape="http://www.inkscape.org/namespaces/inkscape"
   xmlns:sodipodi="http://sodipodi.sourceforge.net/DTD/sodipodi-0.dtd"
   xmlns="http://www.w3.org/2000/svg"
   xmlns:svg="http://www.w3.org/2000/svg">
  <defs
     id="defs7" />
  <sodipodi:namedview
     id="namedview7"
     pagecolor="#ffffff"
     bordercolor="#000000"
     borderopacity="0.25"
     inkscape:showpageshadow="2"
     inkscape:pageopacity="0.0"
     inkscape:pagecheckerboard="0"
     inkscape:deskcolor="#d1d1d1" />
  <g
     id="color"
     transform="translate(-11.143449,-10.634884)" />
  <g
     id="hair"
     transform="translate(-11.143449,-10.634884)" />
  <g
     id="skin"
     transform="translate(-11.143449,-10.634884)">
    <polygon
       fill="#fadcbc"
       stroke="#fadcbc"
       points="31.75,43.0401 31.687,41.3041 40.812,41.3041 41.666,40.7071 42.5,40.0401 55.666,39.5401 58.25,38.0401 58.083,34.6241 56.916,32.4571 59.416,31.2901 60.333,28.5401 58.416,25.8741 56.833,25.2071 58.416,22.2071 57.583,19.8741 56.25,18.2071 52.666,18.1241 53.416,16.5401 52.666,12.7071 50.271,11.1371 36.229,11.3451 26.604,11.3041 13.666,18.3741 11.667,29.6481 19,42.7071 34.166,60.0401 37.088,60.6851 37.333,57.2071 35.666,52.6241 "
       id="polygon1" />
  </g>
  <g
     id="skin-shadow"
     transform="translate(-11.143449,-10.634884)" />
  <g
     id="line"
     transform="translate(-11.143449,-10.634884)">
    <path
       fill="none"
       stroke="#000000"
       stroke-linecap="round"
       stroke-linejoin="round"
       stroke-width="2"
       d="m 17.236,40.3161 c -3.2007,-3.5759 -4.9796,-8.2009 -5,-13 0,-8.319 5.679,-15 14,-15 h 9"
       id="path1" />
    <path
       fill="none"
       stroke="#000000"
       stroke-linecap="round"
       stroke-linejoin="round"
       stroke-width="2"
       d="m 17.236,40.3161 15,19 c 2.21,2.8 5.811,1.084 5,-1 l -7,-18 h 4.389"
       id="path2" />
    <path
       fill="none"
       stroke="#000000"
       stroke-linecap="round"
       stroke-linejoin="round"
       stroke-width="2"
       d="m 41.448,40.3161 h 13 c 0.3099,0.0413 0.6238,0.0413 0.9337,0 1.933,-0.2578 3.291,-2.0339 3.0331,-3.9669 -0.2579,-1.933 -2.0339,-3.291 -3.9669,-3.0331 h -13 c -2.0658,-0.1226 -3.8473,1.4362 -4,3.5 0.1528,2.0638 1.9343,3.6226 4.0001,3.5 z"
       id="path3" />
    <path
       fill="none"
       stroke="#000000"
       stroke-linecap="round"
       stroke-linejoin="round"
       stroke-width="2"
       d="m 42.305,18.9801 h 7 c 0.3099,0.0413 0.6238,0.0413 0.9337,0 1.933,-0.2578 3.291,-2.0339 3.0331,-3.9669 -0.2579,-1.933 -2.0339,-3.291 -3.9669,-3.0331 h -7 c -2.0658,-0.1226 -3.8473,1.4362 -4,3.5 0.1528,2.0638 1.9343,3.6226 4.0001,3.5 z"
       id="path4" />
    <path
       fill="none"
       stroke="#000000"
       stroke-linecap="round"
       stroke-linejoin="round"
       stroke-width="2"
       d="m 37.236,32.9801 h 19 c 0.3099,0.0413 0.6238,0.0413 0.9337,0 1.933,-0.2578 3.291,-2.0339 3.0331,-3.9669 -0.2579,-1.933 -2.0339,-3.291 -3.9669,-3.0331 h -19 c -2.0658,-0.1226 -3.8473,1.4362 -4,3.5 0.1528,2.0638 1.9343,3.6226 4.0001,3.5 z"
       id="path5" />
    <path
       fill="none"
       stroke="#000000"
       stroke-linecap="round"
       stroke-linejoin="round"
       stroke-width="2"
       d="m 39.236,25.9801 h 15 c 0.3099,0.0413 0.6238,0.0413 0.9337,0 1.933,-0.2578 3.291,-2.0339 3.0331,-3.9669 -0.2579,-1.933 -2.0339,-3.291 -3.9669,-3.0331 h -15 c -2.0658,-0.1226 -3.8473,1.4362 -4,3.5 0.1528,2.0638 1.9343,3.6226 4.0001,3.5 z"
       id="path6" />
    <path
       fill="none"
       stroke="#000000"
       stroke-miterlimit="10"
       stroke-width="2"
       d="m 27.355,12.315 c -10.5,0 -15.125,6.94 -15.125,15.5 0.0807,2.7175 0.73,5.3879 1.906,7.839"
       id="path7" />
  </g>
</svg>
