<svg xmlns="http://www.w3.org/2000/svg" xmlns:svg="http://www.w3.org/2000/svg" id="emoji" width="58.206" height="40.961" version="1.1" viewBox="0 0 58.206 40.961"><g id="skin" transform="translate(-6.9121,-15.537666)"><path id="path1" fill="#a57939" stroke="#a57939" d="m 26.3028,55.2881 c -11.975,0 -18.3906,-7.1612 -18.3906,-16.2494 0,-9.0882 5.9358,-19.2913 31.1527,-16.6171"/><line id="line1" x1="25.242" x2="37.242" y1="55.494" y2="55.494" fill="#a57939" stroke="#a57939"/><path id="path2" fill="#a57939" stroke="#a57939" d="m 37.5349,48.5022 c 1.9313,0.081 3.4313,1.7123 3.3502,3.6436 -0.081,1.9313 -1.7123,3.4313 -3.6436,3.3502"/><path id="path3" fill="#a57939" stroke="#a57939" d="m 37.7678,41.5052 c 1.9313,0.081 3.4313,1.7123 3.3502,3.6436 -0.081,1.9313 -1.7123,3.4313 -3.6436,3.3502"/><path id="path4" fill="#a57939" stroke="#a57939" d="m 37.9016,41.5093 c 1.9268,0.155 3.3631,1.8426 3.2081,3.7694 -0.155,1.9268 -1.8426,3.3631 -3.7694,3.2081"/><path id="path5" fill="#a57939" stroke="#a57939" d="m 38.2461,34.4677 c 1.929,0.1237 3.3925,1.7878 3.2688,3.7168 -0.1237,1.929 -1.7878,3.3925 -3.7168,3.2688"/><path id="path6" fill="#a57939" stroke="#a57939" d="m 28.9418,22.9544 c 7.6195,-5.8672 10.6867,-6.7449 12.0296,-5.3546 1.3429,1.3904 -0.7837,5.6942 -2.1741,7.0371"/><path id="path7" fill="#a57939" stroke="#a57939" d="m 60.6184,27.4677 c 1.933,0 3.5,1.567 3.5,3.5 0,1.933 -1.567,3.5 -3.5,3.5"/><line id="line7" x1="38.283" x2="60.618" y1="34.468" y2="34.468" fill="#a57939" stroke="#a57939"/><line id="line8" x1="60.618" x2="32.828" y1="27.468" y2="27.468" fill="#a57939" stroke="#a57939"/><line id="line9" x1="38.672" x2="40.886" y1="24.507" y2="22.549" fill="#a57939" stroke="#a57939"/><path id="path9" fill="#a57939" stroke="#a57939" d="m 33.7028,19.2815 c -2.1439,1.9526 -5.1677,3.3734 -9.5218,3.3013"/><line id="line10" x1="36.022" x2="33.642" y1="17.514" y2="19.335" fill="#a57939" stroke="#a57939"/><polygon id="polygon10" fill="#a57939" stroke="#a57939" points="60.953 27.515 60.953 34.468 33.203 34.578 35.17 27.515"/><rect id="rect10" width="20.921" height="12.226" x="21.709" y="38.925" fill="#a57939" stroke="#a57939" transform="rotate(90,32.17005,45.03845)"/><polygon id="polygon11" fill="#a57939" stroke="#a57939" points="39.243 25.321 36.313 27.485 35.062 27.468 36.057 24.812"/></g><g id="line" transform="translate(-6.9121,-15.537666)"><path id="path11" fill="none" stroke="#000" stroke-linecap="round" stroke-linejoin="round" stroke-miterlimit="10" stroke-width="2" d="m 24.3679,55.4945 c -9.0883,0 -16.4558,-7.3675 -16.4558,-16.4558 0,-9.0883 7.3675,-16.4558 16.4558,-16.4558"/><line id="line11" x1="25.242" x2="37.242" y1="55.494" y2="55.494" fill="none" stroke="#000" stroke-linecap="round" stroke-linejoin="round" stroke-miterlimit="10" stroke-width="2"/><path id="path12" fill="none" stroke="#000" stroke-linecap="round" stroke-linejoin="round" stroke-miterlimit="10" stroke-width="2" d="m 37.5349,48.5022 c 1.9313,0.081 3.4313,1.7123 3.3502,3.6436 -0.081,1.9313 -1.7123,3.4313 -3.6436,3.3502"/><path id="path13" fill="none" stroke="#000" stroke-linecap="round" stroke-linejoin="round" stroke-miterlimit="10" stroke-width="2" d="m 37.7678,41.5052 c 1.9313,0.081 3.4313,1.7123 3.3502,3.6436 -0.081,1.9313 -1.7123,3.4313 -3.6436,3.3502"/><path id="path14" fill="none" stroke="#000" stroke-linecap="round" stroke-linejoin="round" stroke-miterlimit="10" stroke-width="2" d="m 37.9016,41.5093 c 1.9268,0.155 3.3631,1.8426 3.2081,3.7694 -0.155,1.9268 -1.8426,3.3631 -3.7694,3.2081"/><path id="path15" fill="none" stroke="#000" stroke-linecap="round" stroke-linejoin="round" stroke-miterlimit="10" stroke-width="2" d="m 38.2461,34.4677 c 1.929,0.1237 3.3925,1.7878 3.2688,3.7168 -0.1237,1.929 -1.7878,3.3925 -3.7168,3.2688"/><path id="path16" fill="none" stroke="#000" stroke-linecap="round" stroke-linejoin="round" stroke-miterlimit="10" stroke-width="2" d="m 36.0224,17.5139 c 1.3904,-1.3429 3.6061,-1.3044 4.949,0.086 1.3429,1.3904 1.3044,3.6061 -0.086,4.949"/><path id="path17" fill="none" stroke="#000" stroke-linecap="round" stroke-linejoin="round" stroke-miterlimit="10" stroke-width="2" d="m 60.6184,27.4677 c 1.933,0 3.5,1.567 3.5,3.5 0,1.933 -1.567,3.5 -3.5,3.5"/><line id="line17" x1="38.283" x2="60.618" y1="34.468" y2="34.468" fill="none" stroke="#000" stroke-linecap="round" stroke-linejoin="round" stroke-miterlimit="10" stroke-width="2"/><line id="line18" x1="60.618" x2="32.828" y1="27.468" y2="27.468" fill="none" stroke="#000" stroke-linecap="round" stroke-linejoin="round" stroke-miterlimit="10" stroke-width="2"/><line id="line19" x1="38.672" x2="40.886" y1="24.507" y2="22.549" fill="none" stroke="#000" stroke-linecap="round" stroke-linejoin="round" stroke-miterlimit="10" stroke-width="2"/><path id="path19" fill="none" stroke="#000" stroke-linecap="round" stroke-linejoin="round" stroke-miterlimit="10" stroke-width="2" d="m 33.7028,19.2815 c -2.1439,1.9526 -5.1677,3.3734 -9.5218,3.3013"/><line id="line20" x1="36.022" x2="33.642" y1="17.514" y2="19.335" fill="none" stroke="#000" stroke-linecap="round" stroke-linejoin="round" stroke-miterlimit="10" stroke-width="2"/></g></svg>