<?xml version="1.0" encoding="UTF-8" standalone="no"?>
<svg
   id="emoji"
   viewBox="0 0 38.437878 49.666759"
   version="1.1"
   sodipodi:docname="1f443-1f3fc.svg"
   width="38.437878"
   height="49.666759"
   xmlns:inkscape="http://www.inkscape.org/namespaces/inkscape"
   xmlns:sodipodi="http://sodipodi.sourceforge.net/DTD/sodipodi-0.dtd"
   xmlns="http://www.w3.org/2000/svg"
   xmlns:svg="http://www.w3.org/2000/svg">
  <defs
     id="defs5" />
  <sodipodi:namedview
     id="namedview5"
     pagecolor="#ffffff"
     bordercolor="#000000"
     borderopacity="0.25"
     inkscape:showpageshadow="2"
     inkscape:pageopacity="0.0"
     inkscape:pagecheckerboard="0"
     inkscape:deskcolor="#d1d1d1" />
  <g
     id="color"
     transform="translate(-16.781062,-11.375)" />
  <g
     id="hair"
     transform="translate(-16.781062,-11.375)" />
  <g
     id="skin"
     transform="translate(-16.781062,-11.375)">
    <path
       fill="#debb90"
       stroke="#debb90"
       d="M 46.0495,41.9032 C 44.9714,38.0967 41.6777,27.0362 42.8781,11.875 h -13.391 c 1.2004,15.1611 -2.0933,26.2217 -3.1714,30.0282"
       id="path1" />
    <path
       fill="#debb90"
       stroke="#debb90"
       d="M 50.25,36.7078 C 57.8333,41.3745 53.0834,49.46 48.5625,50.7292 44.6425,51.8296 46,60.0682 36,60.0417 26,60.0682 27.3575,51.8297 23.4375,50.7292 18.9166,49.4601 14.1557,41.3745 21.7391,36.7078"
       id="path2" />
  </g>
  <g
     id="skin-shadow"
     transform="translate(-16.781062,-11.375)" />
  <g
     id="line"
     transform="translate(-16.781062,-11.375)">
    <path
       fill="none"
       stroke="#000000"
       stroke-linecap="round"
       stroke-linejoin="round"
       stroke-miterlimit="10"
       stroke-width="2"
       d="m 29.4871,12.875 c 1.2004,14.6562 -2.0933,25.3484 -3.1714,29.0282"
       id="path3" />
    <path
       fill="none"
       stroke="#000000"
       stroke-linecap="round"
       stroke-linejoin="round"
       stroke-miterlimit="10"
       stroke-width="2"
       d="m 42.8781,12.875 c -1.2004,14.6562 2.0933,25.3484 3.1714,29.0282"
       id="path4" />
    <path
       fill="none"
       stroke="#000000"
       stroke-linecap="round"
       stroke-linejoin="round"
       stroke-miterlimit="10"
       stroke-width="2"
       d="M 50.25,37.7083 C 57.8333,42.375 53.0834,49.46 48.5625,50.7291 44.6425,51.8296 46,60.0682 36,60.0417 26,60.0682 27.3575,51.8297 23.4375,50.7292 18.9166,49.46 14.1667,42.375 21.75,37.7083"
       id="path5" />
  </g>
</svg>
