<svg xmlns="http://www.w3.org/2000/svg" xmlns:svg="http://www.w3.org/2000/svg" id="emoji" width="50.004" height="50.824" version="1.1" viewBox="0 0 50.004 50.824"><g id="skin" transform="translate(-11.23,-10.143165)"><polygon id="polygon1" fill="#fcea2b" stroke="none" points="19 29.21 11.667 42.269 13.666 53.543 26.604 60.613 36.229 60.572 50.271 60.78 52.666 59.21 53.416 55.377 52.666 53.793 56.25 53.71 57.583 52.043 58.416 49.71 56.833 46.71 58.416 46.043 60.333 43.377 59.416 40.627 56.916 39.46 58.083 37.293 58.25 33.877 55.666 32.377 42.5 31.877 41.666 31.21 40.812 30.613 31.687 30.613 31.75 28.877 35.666 19.293 37.333 14.71 37.088 11.232 34.166 11.877"/></g><g id="line" transform="translate(-11.23,-10.143165)"><path id="path1" fill="none" stroke="#000" stroke-linecap="round" stroke-linejoin="round" stroke-width="2" d="m 35.236,59.6006 h -9 c -8.321,0 -14,-6.681 -14,-15 0.0204,-4.7991 1.7993,-9.4241 5,-13"/><path id="path2" fill="none" stroke="#000" stroke-linecap="round" stroke-linejoin="round" stroke-width="2" d="m 34.625,31.6006 h -4.389 l 7,-18 c 0.811,-2.084 -2.79,-3.8 -5,-1 l -15,19"/><path id="path3" fill="none" stroke="#000" stroke-linecap="round" stroke-linejoin="round" stroke-width="2" d="m 37.448,35.1006 c 0.1527,2.0638 1.9342,3.6226 4,3.5 h 13 c 1.933,0.2578 3.709,-1.1001 3.9669,-3.0331 0.2579,-1.933 -1.1001,-3.709 -3.0331,-3.9669 -0.3099,-0.0413 -0.6238,-0.0413 -0.9337,0 h -13 c -2.0659,-0.1226 -3.8474,1.4362 -4.0001,3.5 z"/><path id="path4" fill="none" stroke="#000" stroke-linecap="round" stroke-linejoin="round" stroke-width="2" d="m 38.305,56.4366 c 0.1527,2.0638 1.9342,3.6226 4,3.5 h 7 c 1.933,0.2578 3.709,-1.1001 3.9669,-3.0331 0.2579,-1.933 -1.1001,-3.709 -3.0331,-3.9669 -0.3099,-0.0413 -0.6238,-0.0413 -0.9337,0 h -7 c -2.0659,-0.1226 -3.8474,1.4362 -4.0001,3.5 z"/><path id="path5" fill="none" stroke="#000" stroke-linecap="round" stroke-linejoin="round" stroke-width="2" d="m 33.236,42.4366 c 0.1527,2.0638 1.9342,3.6226 4,3.5 h 19 c 1.933,0.2578 3.709,-1.1001 3.9669,-3.0331 0.2579,-1.933 -1.1001,-3.709 -3.0331,-3.9669 -0.3099,-0.0413 -0.6238,-0.0413 -0.9337,0 h -19 c -2.0659,-0.1226 -3.8474,1.4362 -4.0001,3.5 z"/><path id="path6" fill="none" stroke="#000" stroke-linecap="round" stroke-linejoin="round" stroke-width="2" d="m 35.236,49.4366 c 0.1527,2.0638 1.9342,3.6226 4,3.5 h 15 c 1.933,0.2578 3.709,-1.1001 3.9669,-3.0331 0.2579,-1.933 -1.1001,-3.709 -3.0331,-3.9669 -0.3099,-0.0413 -0.6238,-0.0413 -0.9337,0 h -15 c -2.0659,-0.1226 -3.8474,1.4362 -4.0001,3.5 z"/><path id="path7" fill="none" stroke="#000" stroke-miterlimit="10" stroke-width="2" d="m 14.136,36.2626 c -1.176,2.4511 -1.8253,5.1215 -1.906,7.839 0,8.56 4.625,15.5 15.125,15.5"/></g></svg>