<?xml version="1.0" encoding="UTF-8" standalone="no"?>
<svg
   id="emoji"
   viewBox="0 0 50.09045 51.138649"
   version="1.1"
   sodipodi:docname="1f44d-1f3ff.svg"
   width="50.09045"
   height="51.138649"
   xmlns:inkscape="http://www.inkscape.org/namespaces/inkscape"
   xmlns:sodipodi="http://sodipodi.sourceforge.net/DTD/sodipodi-0.dtd"
   xmlns="http://www.w3.org/2000/svg"
   xmlns:svg="http://www.w3.org/2000/svg">
  <defs
     id="defs7" />
  <sodipodi:namedview
     id="namedview7"
     pagecolor="#ffffff"
     bordercolor="#000000"
     borderopacity="0.25"
     inkscape:showpageshadow="2"
     inkscape:pageopacity="0.0"
     inkscape:pagecheckerboard="0"
     inkscape:deskcolor="#d1d1d1" />
  <g
     id="color"
     transform="translate(-11.143449,-10.143165)" />
  <g
     id="hair"
     transform="translate(-11.143449,-10.143165)" />
  <g
     id="skin"
     transform="translate(-11.143449,-10.143165)">
    <polygon
       fill="#6a462f"
       stroke="#6a462f"
       points="19,29.2096 11.667,42.2686 13.666,53.5426 26.604,60.6126 36.229,60.5716 50.271,60.7796 52.666,59.2096 53.416,55.3766 52.666,53.7926 56.25,53.7096 57.583,52.0426 58.416,49.7096 56.833,46.7096 58.416,46.0426 60.333,43.3766 59.416,40.6266 56.916,39.4596 58.083,37.2926 58.25,33.8766 55.666,32.3766 42.5,31.8766 41.666,31.2096 40.812,30.6126 31.687,30.6126 31.75,28.8766 35.666,19.2926 37.333,14.7096 37.088,11.2316 34.166,11.8766 "
       id="polygon1" />
  </g>
  <g
     id="skin-shadow"
     transform="translate(-11.143449,-10.143165)" />
  <g
     id="line"
     transform="translate(-11.143449,-10.143165)">
    <path
       fill="none"
       stroke="#000000"
       stroke-linecap="round"
       stroke-linejoin="round"
       stroke-width="2"
       d="m 35.236,59.6006 h -9 c -8.321,0 -14,-6.681 -14,-15 0.0204,-4.7991 1.7993,-9.4241 5,-13"
       id="path1" />
    <path
       fill="none"
       stroke="#000000"
       stroke-linecap="round"
       stroke-linejoin="round"
       stroke-width="2"
       d="m 34.625,31.6006 h -4.389 l 7,-18 c 0.811,-2.084 -2.79,-3.8 -5,-1 l -15,19"
       id="path2" />
    <path
       fill="none"
       stroke="#000000"
       stroke-linecap="round"
       stroke-linejoin="round"
       stroke-width="2"
       d="m 37.448,35.1006 c 0.1527,2.0638 1.9342,3.6226 4,3.5 h 13 c 1.933,0.2578 3.709,-1.1001 3.9669,-3.0331 0.2579,-1.933 -1.1001,-3.709 -3.0331,-3.9669 -0.3099,-0.0413 -0.6238,-0.0413 -0.9337,0 h -13 c -2.0659,-0.1226 -3.8474,1.4362 -4.0001,3.5 z"
       id="path3" />
    <path
       fill="none"
       stroke="#000000"
       stroke-linecap="round"
       stroke-linejoin="round"
       stroke-width="2"
       d="m 38.305,56.4366 c 0.1527,2.0638 1.9342,3.6226 4,3.5 h 7 c 1.933,0.2578 3.709,-1.1001 3.9669,-3.0331 0.2579,-1.933 -1.1001,-3.709 -3.0331,-3.9669 -0.3099,-0.0413 -0.6238,-0.0413 -0.9337,0 h -7 c -2.0659,-0.1226 -3.8474,1.4362 -4.0001,3.5 z"
       id="path4" />
    <path
       fill="none"
       stroke="#000000"
       stroke-linecap="round"
       stroke-linejoin="round"
       stroke-width="2"
       d="m 33.236,42.4366 c 0.1527,2.0638 1.9342,3.6226 4,3.5 h 19 c 1.933,0.2578 3.709,-1.1001 3.9669,-3.0331 0.2579,-1.933 -1.1001,-3.709 -3.0331,-3.9669 -0.3099,-0.0413 -0.6238,-0.0413 -0.9337,0 h -19 c -2.0659,-0.1226 -3.8474,1.4362 -4.0001,3.5 z"
       id="path5" />
    <path
       fill="none"
       stroke="#000000"
       stroke-linecap="round"
       stroke-linejoin="round"
       stroke-width="2"
       d="m 35.236,49.4366 c 0.1527,2.0638 1.9342,3.6226 4,3.5 h 15 c 1.933,0.2578 3.709,-1.1001 3.9669,-3.0331 0.2579,-1.933 -1.1001,-3.709 -3.0331,-3.9669 -0.3099,-0.0413 -0.6238,-0.0413 -0.9337,0 h -15 c -2.0659,-0.1226 -3.8474,1.4362 -4.0001,3.5 z"
       id="path6" />
    <path
       fill="none"
       stroke="#000000"
       stroke-miterlimit="10"
       stroke-width="2"
       d="m 14.136,36.2626 c -1.176,2.4511 -1.8253,5.1215 -1.906,7.839 0,8.56 4.625,15.5 15.125,15.5"
       id="path7" />
  </g>
</svg>
