<svg xmlns="http://www.w3.org/2000/svg" xmlns:svg="http://www.w3.org/2000/svg" id="emoji" width="38.438" height="49.667" version="1.1" viewBox="0 0 38.438 49.667"><g id="skin" transform="translate(-16.781062,-11.375)"><path id="path1" fill="#fadcbc" stroke="#fadcbc" d="M 46.0495,41.9032 C 44.9714,38.0967 41.6777,27.0362 42.8781,11.875 h -13.391 c 1.2004,15.1611 -2.0933,26.2217 -3.1714,30.0282"/><path id="path2" fill="#fadcbc" stroke="#fadcbc" d="M 50.25,36.7078 C 57.8333,41.3745 53.0834,49.46 48.5625,50.7292 44.6425,51.8296 46,60.0682 36,60.0417 26,60.0682 27.3575,51.8297 23.4375,50.7292 18.9166,49.4601 14.1557,41.3745 21.7391,36.7078"/></g><g id="line" transform="translate(-16.781062,-11.375)"><path id="path3" fill="none" stroke="#000" stroke-linecap="round" stroke-linejoin="round" stroke-miterlimit="10" stroke-width="2" d="m 29.4871,12.875 c 1.2004,14.6562 -2.0933,25.3484 -3.1714,29.0282"/><path id="path4" fill="none" stroke="#000" stroke-linecap="round" stroke-linejoin="round" stroke-miterlimit="10" stroke-width="2" d="m 42.8781,12.875 c -1.2004,14.6562 2.0933,25.3484 3.1714,29.0282"/><path id="path5" fill="none" stroke="#000" stroke-linecap="round" stroke-linejoin="round" stroke-miterlimit="10" stroke-width="2" d="M 50.25,37.7083 C 57.8333,42.375 53.0834,49.46 48.5625,50.7291 44.6425,51.8296 46,60.0682 36,60.0417 26,60.0682 27.3575,51.8297 23.4375,50.7292 18.9166,49.46 14.1667,42.375 21.75,37.7083"/></g></svg>