<svg xmlns="http://www.w3.org/2000/svg" xmlns:svg="http://www.w3.org/2000/svg" id="emoji" width="44.867" height="40.676" version="1.1" viewBox="0 0 44.867 40.676"><g id="color" transform="translate(-13.563264,-17.638412)"><line id="line1" x1="51" x2="51" y1="47.42" y2="33.14" fill="none"/></g><g id="skin" transform="translate(-13.563264,-17.638412)"><path id="path1" fill="#a57939" d="m 42.03,47.56 c -0.3312,2.471 -2.599,7.032 -5.057,6.7 -0.293,-0.03821 -0.6495,-0.1401 -1.045,-0.293 0.8407,-3.095 5.477,-7.923 6.114,-9.579 l -0.01274,1.987 c 0.05095,0.3949 0.05095,0.8025 0,1.185 z"/><path id="path2" fill="#a57939" d="m 33.19,24.09 -0.01274,1.223 H 33.19 c 0.05095,-0.4204 0.05095,-0.828 0,-1.223 z m 8.917,-1.146 v 1.172 c 0.05095,-0.3949 0.05095,-0.8025 0,-1.172 z"/><path id="path3" fill="#a57939" d="m 56.86,28.69 c -0.2038,-0.1529 -1.745,-0.3482 -1.745,-0.3482 l -3.264,-0.01274 c -0.5987,-0.2802 -0.8247,-1.55 -0.8247,-4.288 0.3312,-2.471 -1.401,-4.726 -3.86,-5.057 -8.881,2.622 -2.133,1.723 -8.917,0.08917 -9.376,2.498 -1.771,2.843 -8.917,1.185 -9.755,0.1624 -1.828,6.409 -9.006,1.274 -2.458,-0.3312 -4.726,1.401 -5.044,3.86 -0.06369,0.3949 -0.06369,0.8025 0,1.197 h -0.03821 l 0.03821,10.97 c -0.3312,2.458 1.401,4.726 3.86,5.057 6.352,-0.265 5.107,-9.398 5.057,1.223 -0.3312,2.458 1.401,4.726 3.86,5.057 4.281,-2.589 4.384,6.516 7.599,8.173 0.8025,2.051 10.28,-0.168 11.56,-0.1043 4.928,2.479 12.18,-2.03 10.32,-4.553 0.05095,-0.3949 0.05095,-8.165 0,-8.56 0.1783,-2.076 1.185,-13.71 -0.6751,-15.16 z"/><path id="path4" fill="#a57939" d="m 32.48,46.77 c -0.293,0.5095 -0.7006,0.9426 -1.172,1.287 0.2165,-0.4331 0.5987,-0.8789 1.172,-1.287 z"/><path id="path5" fill="#a57939" d="m 33.13,41.53 c 0.03821,0.8789 0.02548,2.879 -0.01274,3.401 z"/><path id="path6" fill="#a57939" d="m 32.48,46.77 c -0.293,0.5095 -0.7006,0.9426 -1.172,1.287 0.2165,-0.4331 0.5987,-0.8789 1.172,-1.287 z"/><path id="path7" fill="#a57939" d="m 33.12,44.93 0.01274,-3.401 c 0.03821,0.8789 0.02548,2.879 -0.01274,3.401 z"/><path id="path8" fill="#a57939" d="M 33.19,25.31 H 33.17726 L 33.19,24.087 c 0.05095,0.3949 0.05095,0.8025 0,1.223 z"/><path id="path9" fill="#a57939" d="m 42.11,24.11 v -1.172 c 0.05095,0.3694 0.05095,0.777 0,1.172 z"/><path id="path10" fill="#a57939" d="m 39.17,56.81 c -2.577,0 -9.977,4.548 -8.467,-7.881 z"/><path id="path11" fill="#a57939" d="m 57.31,33.52 c 0,-1.9 0,-4.118 -2.011,-4.118 z"/></g><g id="line" transform="translate(-13.563264,-17.638412)"><path id="path12" fill="none" stroke="#000" stroke-linecap="round" stroke-linejoin="round" stroke-width="2" d="m 41.94,37.24 v 7.074 c -0.3346,2.512 1.428,4.82 3.936,5.156 2.509,0.3352 4.813,-1.43 5.148,-3.942 0.0536,-0.4028 0.0536,-0.8107 0,-1.213 l -5.19e-4,-20.48 c 0.3346,-2.512 -1.428,-4.82 -3.936,-5.156 -2.508,-0.336 -4.813,1.43 -5.148,3.942 v 1.301 c 0.3346,-2.512 -1.428,-4.82 -3.936,-5.156 -2.508,-0.336 -4.813,1.43 -5.148,3.942 v 2.427 c 0.3346,-2.512 -1.428,-4.82 -3.936,-5.156 -2.508,-0.336 -4.813,1.43 -5.148,3.942 -0.02619,0.8746 -0.02488,1.613 -0.08098,2.513 0.3346,-2.512 -1.428,-4.82 -3.936,-5.156 -2.508,-0.336 -4.813,1.43 -5.148,3.942 -0.0536,0.4028 -0.0536,0.8107 -0.02011,1.214 l 0.02064,11.19 c -0.3346,2.512 1.428,4.82 3.936,5.156 2.509,0.3352 4.813,-1.43 5.148,-3.942 0.0536,-0.4028 0.0536,-0.8107 0,-1.213 v -1.341 l 0.04022,-3.517 -0.04023,11.27 c -0.3346,2.512 1.428,4.82 3.936,5.156 2.508,0.336 4.813,-1.43 5.148,-3.942 0.0536,-0.4028 0.0536,-3.548 0,-3.951 v -5.012 l -0.04075,-4.248 0.04075,14.6 c -0.3346,2.512 1.428,4.82 3.936,5.156 2.508,0.336 4.813,-1.43 5.148,-3.942 0.0536,-0.4028 0.0536,-0.8107 0,-1.213 l 0.08046,-15.82 z"/><path id="path13" fill="none" stroke="#000" stroke-linecap="round" stroke-linejoin="round" stroke-width="2" d="m 57.43,52.08 c -0.2117,2.896 -2.598,5.149 -5.497,5.19 h -12.98"/><line id="line13" x1="57.43" x2="57.43" y1="52.08" y2="33.52" fill="none" stroke="#000" stroke-linecap="round" stroke-linejoin="round" stroke-width="2"/><path id="path14" fill="none" stroke="#000" stroke-linecap="round" stroke-linejoin="round" stroke-miterlimit="10" stroke-width="2" d="m 38.95,57.27 c -2.625,0 -7.445,0.6149 -7.445,-3.105"/><path id="path15" fill="none" stroke="#000" stroke-linecap="round" stroke-linejoin="round" stroke-miterlimit="10" stroke-width="2" d="m 57.43,33.52 c 0,-1.938 0,-4.201 -2.049,-4.201"/></g></svg>