<svg xmlns="http://www.w3.org/2000/svg" xmlns:svg="http://www.w3.org/2000/svg" id="emoji" width="54.833" height="49.875" version="1.1" viewBox="0 0 54.833 49.875"><g id="color" transform="translate(-8.5833,-11.5)"><path id="path1" fill="none" stroke="none" d="m 15.625,21.75 c 0,0 18.6733,0 41.75,0"/><path id="path2" fill="#ea5a47" stroke="none" d="m 56.9668,16.7774 c 0,6 -41.7793,7.8191 -41.3418,1.0066 -9.6555,35.2387 9.3367,42.591 20.875,42.591 11.5383,0 31.8952,-6.0205 20.4668,-43.5976 z"/></g><g id="line" transform="translate(-8.5833,-11.5)"><path id="path3" fill="none" stroke="#000" stroke-linecap="round" stroke-linejoin="round" stroke-miterlimit="10" stroke-width="2" d="M 62.4167,12.5 C 56.2812,19.625 48.9688,22.1893 36,22.1875 23.0312,22.1893 15.7188,19.625 9.5833,12.5"/><path id="path4" fill="none" stroke="#000" stroke-linecap="round" stroke-linejoin="round" stroke-miterlimit="10" stroke-width="2" d="M 62.4167,12.5 C 56.2812,19.625 48.9688,22.1893 36,22.1875 23.0312,22.1893 15.7188,19.625 9.5833,12.5"/><path id="path5" fill="none" stroke="#000" stroke-linecap="round" stroke-linejoin="round" stroke-miterlimit="10" stroke-width="2" d="M 57.375,21.75 C 66.5,55.1875 48.0383,60.375 36.5,60.375 24.9617,60.375 6.5,55.1875 15.625,21.75"/><line id="line5" x1="36.5" x2="36.5" y1="60.375" y2="34.195" fill="none" stroke="#000" stroke-linecap="round" stroke-linejoin="round" stroke-miterlimit="10" stroke-width="2"/></g></svg>