<?xml version="1.0" encoding="UTF-8" standalone="no"?>
<svg
   id="emoji"
   viewBox="0 0 58.113998 37.099884"
   version="1.1"
   sodipodi:docname="1f444.svg"
   width="58.113998"
   height="37.099884"
   xmlns:inkscape="http://www.inkscape.org/namespaces/inkscape"
   xmlns:sodipodi="http://sodipodi.sourceforge.net/DTD/sodipodi-0.dtd"
   xmlns="http://www.w3.org/2000/svg"
   xmlns:svg="http://www.w3.org/2000/svg">
  <defs
     id="defs10" />
  <sodipodi:namedview
     id="namedview10"
     pagecolor="#ffffff"
     bordercolor="#000000"
     borderopacity="0.25"
     inkscape:showpageshadow="2"
     inkscape:pageopacity="0.0"
     inkscape:pagecheckerboard="0"
     inkscape:deskcolor="#d1d1d1" />
  <g
     id="color"
     transform="translate(-6.95,-17.454117)">
    <path
       fill="#ea5a47"
       stroke-width="1.226"
       d="M 64.05,34.59 C 59.49,31.627 54.087,25.304 48.36,20.28 47.032,19.111 45.435,17.713 42.51,19.111 l -3.851,2.05 c -0.8882,0.5138 -1.191,0.6898 -2.663,0.6898 -1.472,0 -1.775,-0.176 -2.663,-0.6898 l -3.851,-2.05 c -2.925,-1.399 -4.522,0 -5.85,1.169 -5.722,5.02 -11.13,11.34 -15.69,14.31 l 15.02,14.36 c 2.529,2.452 5.827,4.522 13.03,4.522 7.203,0 10.5,-2.069 13.03,-4.522 z"
       id="path1" />
    <path
       fill="#ffffff"
       stroke-width="1.226"
       d="m 36,39.06 c -7.667,0 -9.791,-4.905 -13.87,-4.292 6.763,-5.096 10.48,-0.6131 13.87,-0.6131 3.39,0 7.108,-4.483 13.87,0.6131 C 45.789,34.1549 43.666,39.06 36,39.06 Z"
       id="path2" />
    <path
       fill="#ffffff"
       stroke-linecap="round"
       stroke-linejoin="round"
       stroke-miterlimit="10"
       stroke-width="2.452"
       d="m 36,39.06 c -7.667,0 -9.791,-4.905 -13.87,-4.292 6.763,-5.096 10.48,-0.6131 13.87,-0.6131 3.39,0 7.108,-4.483 13.87,0.6131 C 45.789,34.1549 43.666,39.06 36,39.06 Z"
       id="path3" />
  </g>
  <g
     id="hair"
     transform="translate(-6.95,-17.454117)" />
  <g
     id="skin"
     transform="translate(-6.95,-17.454117)" />
  <g
     id="skin-shadow"
     transform="translate(-6.95,-17.454117)" />
  <g
     id="line"
     transform="translate(-6.95,-17.454117)">
    <path
       fill="none"
       stroke="#000000"
       stroke-linecap="round"
       stroke-linejoin="round"
       stroke-miterlimit="10"
       stroke-width="2.434"
       d="m 8.167,34.6 c 4.981,1.66 6.255,1.889 14.07,0.1774"
       id="path4" />
    <path
       fill="none"
       stroke="#000000"
       stroke-linecap="round"
       stroke-linejoin="round"
       stroke-miterlimit="10"
       stroke-width="2.434"
       d="m 63.83,34.6 c -4.981,1.66 -6.255,1.889 -14.07,0.1774"
       id="path5" />
    <path
       fill="none"
       stroke="#000000"
       stroke-linecap="round"
       stroke-linejoin="round"
       stroke-miterlimit="10"
       stroke-width="2.434"
       d="m 8.167,34.6 c 4.981,1.66 6.255,1.889 14.07,0.1774"
       id="path6" />
    <path
       fill="none"
       stroke="#000000"
       stroke-linecap="round"
       stroke-linejoin="round"
       stroke-miterlimit="10"
       stroke-width="2.434"
       d="m 8.167,34.6 14.91,14.25 c 2.51,2.434 5.782,4.487 12.93,4.487 7.148,0 10.42,-2.053 12.93,-4.487 L 63.847,34.6"
       id="path7" />
    <path
       fill="none"
       stroke="#000000"
       stroke-linecap="round"
       stroke-linejoin="round"
       stroke-miterlimit="10"
       stroke-width="2.434"
       d="m 8.167,34.6 c 4.525,-2.941 9.886,-9.214 15.56,-14.2 1.318,-1.16 2.902,-2.548 5.805,-1.16 l 3.821,2.034 c 0.8813,0.5098 1.182,0.6844 2.643,0.6844 1.461,0 1.761,-0.1746 2.643,-0.6844 L 42.46,19.24 c 2.902,-1.388 4.487,0 5.805,1.16 5.678,4.981 11.04,11.25 15.56,14.2"
       id="path8" />
    <path
       fill="none"
       stroke="#000000"
       stroke-linecap="round"
       stroke-linejoin="round"
       stroke-miterlimit="10"
       stroke-width="2.434"
       d="m 63.83,34.6 c -4.981,1.66 -6.255,1.889 -14.07,0.1774"
       id="path9" />
    <path
       fill="none"
       stroke="#000000"
       stroke-linecap="round"
       stroke-linejoin="round"
       stroke-miterlimit="10"
       stroke-width="2.434"
       d="m 36,39.03 c -7.608,0 -9.715,-4.867 -13.76,-4.259 6.711,-5.057 10.4,-0.6084 13.76,-0.6084 3.36,0 7.053,-4.449 13.76,0.6084 C 45.711,34.1626 43.604,39.03 36,39.03 Z"
       id="path10" />
  </g>
</svg>
