<?xml version="1.0" encoding="UTF-8" standalone="no"?>
<svg
   id="emoji"
   viewBox="0 0 58.206299 40.96143"
   version="1.1"
   sodipodi:docname="1f449-1f3fb.svg"
   width="58.206299"
   height="40.96143"
   xmlns:inkscape="http://www.inkscape.org/namespaces/inkscape"
   xmlns:sodipodi="http://sodipodi.sourceforge.net/DTD/sodipodi-0.dtd"
   xmlns="http://www.w3.org/2000/svg"
   xmlns:svg="http://www.w3.org/2000/svg">
  <defs
     id="defs20" />
  <sodipodi:namedview
     id="namedview20"
     pagecolor="#ffffff"
     bordercolor="#000000"
     borderopacity="0.25"
     inkscape:showpageshadow="2"
     inkscape:pageopacity="0.0"
     inkscape:pagecheckerboard="0"
     inkscape:deskcolor="#d1d1d1" />
  <g
     id="color"
     transform="translate(-6.9121,-15.537666)" />
  <g
     id="hair"
     transform="translate(-6.9121,-15.537666)" />
  <g
     id="skin"
     transform="translate(-6.9121,-15.537666)">
    <path
       fill="#fadcbc"
       stroke="#fadcbc"
       d="m 26.3028,55.2881 c -11.975,0 -18.3906,-7.1612 -18.3906,-16.2494 0,-9.0882 5.9358,-19.2913 31.1527,-16.6171"
       id="path1" />
    <line
       x1="25.241501"
       x2="37.241501"
       y1="55.494499"
       y2="55.494499"
       fill="#fadcbc"
       stroke="#fadcbc"
       id="line1" />
    <path
       fill="#fadcbc"
       stroke="#fadcbc"
       d="m 37.5349,48.5022 c 1.9313,0.081 3.4313,1.7123 3.3502,3.6436 -0.081,1.9313 -1.7123,3.4313 -3.6436,3.3502"
       id="path2" />
    <path
       fill="#fadcbc"
       stroke="#fadcbc"
       d="m 37.7678,41.5052 c 1.9313,0.081 3.4313,1.7123 3.3502,3.6436 -0.081,1.9313 -1.7123,3.4313 -3.6436,3.3502"
       id="path3" />
    <path
       fill="#fadcbc"
       stroke="#fadcbc"
       d="m 37.9016,41.5093 c 1.9268,0.155 3.3631,1.8426 3.2081,3.7694 -0.155,1.9268 -1.8426,3.3631 -3.7694,3.2081"
       id="path4" />
    <path
       fill="#fadcbc"
       stroke="#fadcbc"
       d="m 38.2461,34.4677 c 1.929,0.1237 3.3925,1.7878 3.2688,3.7168 -0.1237,1.929 -1.7878,3.3925 -3.7168,3.2688"
       id="path5" />
    <path
       fill="#fadcbc"
       stroke="#fadcbc"
       d="m 28.9418,22.9544 c 7.6195,-5.8672 10.6867,-6.7449 12.0296,-5.3546 1.3429,1.3904 -0.7837,5.6942 -2.1741,7.0371"
       id="path6" />
    <path
       fill="#fadcbc"
       stroke="#fadcbc"
       d="m 60.6184,27.4677 c 1.933,0 3.5,1.567 3.5,3.5 0,1.933 -1.567,3.5 -3.5,3.5"
       id="path7" />
    <line
       x1="38.2831"
       x2="60.618401"
       y1="34.467701"
       y2="34.467701"
       fill="#fadcbc"
       stroke="#fadcbc"
       id="line7" />
    <line
       x1="60.618401"
       x2="32.827801"
       y1="27.467699"
       y2="27.467699"
       fill="#fadcbc"
       stroke="#fadcbc"
       id="line8" />
    <line
       x1="38.6717"
       x2="40.885502"
       y1="24.5068"
       y2="22.5488"
       fill="#fadcbc"
       stroke="#fadcbc"
       id="line9" />
    <path
       fill="#fadcbc"
       stroke="#fadcbc"
       d="m 33.7028,19.2815 c -2.1439,1.9526 -5.1677,3.3734 -9.5218,3.3013"
       id="path9" />
    <line
       x1="36.0224"
       x2="33.6423"
       y1="17.513901"
       y2="19.3353"
       fill="#fadcbc"
       stroke="#fadcbc"
       id="line10" />
    <polygon
       fill="#fadcbc"
       stroke="#fadcbc"
       points="60.9528,27.5153 60.9528,34.4677 33.2028,34.5778 35.1704,27.5153 "
       id="polygon10" />
    <rect
       x="21.709299"
       y="38.9254"
       width="20.9214"
       height="12.2262"
       transform="rotate(90,32.17005,45.03845)"
       fill="#fadcbc"
       stroke="#fadcbc"
       id="rect10" />
    <polygon
       fill="#fadcbc"
       stroke="#fadcbc"
       points="39.2427,25.3211 36.313,27.4853 35.0621,27.4677 36.0569,24.8121 "
       id="polygon11" />
  </g>
  <g
     id="skin-shadow"
     transform="translate(-6.9121,-15.537666)" />
  <g
     id="line"
     transform="translate(-6.9121,-15.537666)">
    <path
       fill="none"
       stroke="#000000"
       stroke-linecap="round"
       stroke-linejoin="round"
       stroke-miterlimit="10"
       stroke-width="2"
       d="m 24.3679,55.4945 c -9.0883,0 -16.4558,-7.3675 -16.4558,-16.4558 0,-9.0883 7.3675,-16.4558 16.4558,-16.4558"
       id="path11" />
    <line
       x1="25.241501"
       x2="37.241501"
       y1="55.494499"
       y2="55.494499"
       fill="none"
       stroke="#000000"
       stroke-linecap="round"
       stroke-linejoin="round"
       stroke-miterlimit="10"
       stroke-width="2"
       id="line11" />
    <path
       fill="none"
       stroke="#000000"
       stroke-linecap="round"
       stroke-linejoin="round"
       stroke-miterlimit="10"
       stroke-width="2"
       d="m 37.5349,48.5022 c 1.9313,0.081 3.4313,1.7123 3.3502,3.6436 -0.081,1.9313 -1.7123,3.4313 -3.6436,3.3502"
       id="path12" />
    <path
       fill="none"
       stroke="#000000"
       stroke-linecap="round"
       stroke-linejoin="round"
       stroke-miterlimit="10"
       stroke-width="2"
       d="m 37.7678,41.5052 c 1.9313,0.081 3.4313,1.7123 3.3502,3.6436 -0.081,1.9313 -1.7123,3.4313 -3.6436,3.3502"
       id="path13" />
    <path
       fill="none"
       stroke="#000000"
       stroke-linecap="round"
       stroke-linejoin="round"
       stroke-miterlimit="10"
       stroke-width="2"
       d="m 37.9016,41.5093 c 1.9268,0.155 3.3631,1.8426 3.2081,3.7694 -0.155,1.9268 -1.8426,3.3631 -3.7694,3.2081"
       id="path14" />
    <path
       fill="none"
       stroke="#000000"
       stroke-linecap="round"
       stroke-linejoin="round"
       stroke-miterlimit="10"
       stroke-width="2"
       d="m 38.2461,34.4677 c 1.929,0.1237 3.3925,1.7878 3.2688,3.7168 -0.1237,1.929 -1.7878,3.3925 -3.7168,3.2688"
       id="path15" />
    <path
       fill="none"
       stroke="#000000"
       stroke-linecap="round"
       stroke-linejoin="round"
       stroke-miterlimit="10"
       stroke-width="2"
       d="m 36.0224,17.5139 c 1.3904,-1.3429 3.6061,-1.3044 4.949,0.086 1.3429,1.3904 1.3044,3.6061 -0.086,4.949"
       id="path16" />
    <path
       fill="none"
       stroke="#000000"
       stroke-linecap="round"
       stroke-linejoin="round"
       stroke-miterlimit="10"
       stroke-width="2"
       d="m 60.6184,27.4677 c 1.933,0 3.5,1.567 3.5,3.5 0,1.933 -1.567,3.5 -3.5,3.5"
       id="path17" />
    <line
       x1="38.2831"
       x2="60.618401"
       y1="34.467701"
       y2="34.467701"
       fill="none"
       stroke="#000000"
       stroke-linecap="round"
       stroke-linejoin="round"
       stroke-miterlimit="10"
       stroke-width="2"
       id="line17" />
    <line
       x1="60.618401"
       x2="32.827801"
       y1="27.467699"
       y2="27.467699"
       fill="none"
       stroke="#000000"
       stroke-linecap="round"
       stroke-linejoin="round"
       stroke-miterlimit="10"
       stroke-width="2"
       id="line18" />
    <line
       x1="38.6717"
       x2="40.885502"
       y1="24.5068"
       y2="22.5488"
       fill="none"
       stroke="#000000"
       stroke-linecap="round"
       stroke-linejoin="round"
       stroke-miterlimit="10"
       stroke-width="2"
       id="line19" />
    <path
       fill="none"
       stroke="#000000"
       stroke-linecap="round"
       stroke-linejoin="round"
       stroke-miterlimit="10"
       stroke-width="2"
       d="m 33.7028,19.2815 c -2.1439,1.9526 -5.1677,3.3734 -9.5218,3.3013"
       id="path19" />
    <line
       x1="36.0224"
       x2="33.6423"
       y1="17.513901"
       y2="19.3353"
       fill="none"
       stroke="#000000"
       stroke-linecap="round"
       stroke-linejoin="round"
       stroke-miterlimit="10"
       stroke-width="2"
       id="line20" />
  </g>
</svg>
