<?xml version="1.0" encoding="UTF-8" standalone="no"?>
<svg
   id="emoji"
   viewBox="0 0 60.499802 63.039986"
   version="1.1"
   sodipodi:docname="1f44f-1f3ff.svg"
   width="60.499802"
   height="63.039986"
   xmlns:inkscape="http://www.inkscape.org/namespaces/inkscape"
   xmlns:sodipodi="http://sodipodi.sourceforge.net/DTD/sodipodi-0.dtd"
   xmlns="http://www.w3.org/2000/svg"
   xmlns:svg="http://www.w3.org/2000/svg">
  <defs
     id="defs26" />
  <sodipodi:namedview
     id="namedview26"
     pagecolor="#ffffff"
     bordercolor="#000000"
     borderopacity="0.25"
     inkscape:showpageshadow="2"
     inkscape:pageopacity="0.0"
     inkscape:pagecheckerboard="0"
     inkscape:deskcolor="#d1d1d1" />
  <g
     id="hair"
     transform="translate(-5.5921998,-3.8405419)" />
  <g
     id="skin"
     transform="translate(-5.5921998,-3.8405419)">
    <path
       fill="#6a462f"
       stroke="#6a462f"
       stroke-linecap="round"
       stroke-linejoin="round"
       stroke-miterlimit="10"
       stroke-width="2"
       d="m 56.3522,43.9976 -1.0617,-7.4771 c -0.5114,-3.0215 -0.8271,-7.288 -1.9002,-14.2739 -2.4731,-1.8145 -5.4509,1.6502 -6.2031,4.6336 L 44.4345,8.9599 C 43.8794,5.3465 37.3009,6.0829 37.9846,10.5342 L 40.0714,24.6119 37.5421,7.6536 C 36.9445,3.7633 30.4079,3.38 31.478,10.346 30.9445,6.873 24.3942,6.9233 25.1972,12.1508 l 0.7744,5.4314 0.1014,0.8084 -0.221,-1.6979 C 25.3714,13.5641 19.7815,14.3153 20.4012,18.35 l 1.0803,6.4311"
       id="path1" />
    <path
       fill="#6a462f"
       d="m 22.7484,27.2535 c -3.1923,-3.1923 1.6882,-7.6885 4.2795,-5.0972 L 43.3371,38.4655 39.8796,35.008 c -1.1612,-2.8574 -0.8089,-7.4235 2.2659,-7.4235 5.01,5.01 8.4731,8.9333 10.6782,11.0721 6.2265,6.2265 6.2265,16.3217 0,22.5483 -6.2265,6.2266 -16.1868,6.2579 -22.4133,0.0314 L 13.1717,43.9976 c -2.8935,-2.8935 1.1791,-6.8155 3.4228,-4.5718 l 9.8594,10.043 -8.5742,-8.7339 -4.5079,-4.5918 c -3.7489,-3.7489 1.5155,-7.6739 4.0062,-5.1832 -4.9957,-4.9957 0.5147,-8.5621 3.3047,-5.7722 l 13.3909,13.3909"
       id="path2" />
  </g>
  <g
     id="skin-shadow"
     transform="translate(-5.5921998,-3.8405419)" />
  <g
     id="color"
     transform="translate(-5.5921998,-3.8405419)" />
  <g
     id="line"
     transform="translate(-5.5921998,-3.8405419)">
    <line
       x1="20.3603"
       x2="20.6413"
       y1="18.341499"
       y2="20.171101"
       fill="none"
       stroke="#000000"
       stroke-linecap="round"
       stroke-linejoin="round"
       stroke-miterlimit="10"
       stroke-width="2"
       id="line2" />
    <line
       x1="15.4078"
       x2="14.0603"
       y1="12.9103"
       y2="6.6237001"
       fill="none"
       stroke="#000000"
       stroke-linecap="round"
       stroke-linejoin="round"
       stroke-miterlimit="10"
       stroke-width="2"
       id="line3" />
    <line
       x1="12.5067"
       x2="6.5921998"
       y1="18.5051"
       y2="21.026199"
       fill="none"
       stroke="#000000"
       stroke-linecap="round"
       stroke-linejoin="round"
       stroke-miterlimit="10"
       stroke-width="2"
       id="line4" />
    <line
       x1="13.6526"
       x2="9.2138996"
       y1="15.5204"
       y2="13.2187"
       fill="none"
       stroke="#000000"
       stroke-linecap="round"
       stroke-linejoin="round"
       stroke-miterlimit="10"
       stroke-width="2"
       id="line5" />
    <line
       x1="54.532001"
       x2="54.270199"
       y1="14.4973"
       y2="8.0732002"
       fill="none"
       stroke="#000000"
       stroke-linecap="round"
       stroke-linejoin="round"
       stroke-miterlimit="10"
       stroke-width="2"
       id="line6" />
    <line
       x1="58.735802"
       x2="65.092003"
       y1="19.1926"
       y2="20.1602"
       fill="none"
       stroke="#000000"
       stroke-linecap="round"
       stroke-linejoin="round"
       stroke-miterlimit="10"
       stroke-width="2"
       id="line7" />
    <line
       x1="56.882198"
       x2="60.6073"
       y1="16.587601"
       y2="13.2524"
       fill="none"
       stroke="#000000"
       stroke-linecap="round"
       stroke-linejoin="round"
       stroke-miterlimit="10"
       stroke-width="2"
       id="line8" />
    <line
       x1="29.917299"
       x2="16.835199"
       y1="43.742901"
       y2="30.4172"
       fill="none"
       stroke="#000000"
       stroke-linecap="round"
       stroke-linejoin="round"
       stroke-miterlimit="10"
       stroke-width="2"
       id="line9" />
    <line
       x1="34.073502"
       x2="20.6826"
       y1="38.578602"
       y2="25.1877"
       fill="none"
       stroke="#000000"
       stroke-linecap="round"
       stroke-linejoin="round"
       stroke-miterlimit="10"
       stroke-width="2"
       id="line10" />
    <path
       fill="none"
       stroke="#000000"
       stroke-linecap="round"
       stroke-linejoin="round"
       stroke-miterlimit="10"
       stroke-width="2"
       d="m 13.1717,43.9976 c -2.8935,-2.8935 1.1791,-6.8155 3.4228,-4.5718 l 9.8594,10.043"
       id="path10" />
    <path
       fill="none"
       stroke="#000000"
       stroke-linecap="round"
       stroke-linejoin="round"
       stroke-miterlimit="10"
       stroke-width="2"
       d="m 13.3717,36.1431 c -3.7489,-3.7489 1.5155,-7.6739 4.0062,-5.1832"
       id="path11" />
    <path
       fill="none"
       stroke="#000000"
       stroke-linecap="round"
       stroke-linejoin="round"
       stroke-miterlimit="10"
       stroke-width="2"
       d="m 20.6826,25.1877 c -2.79,-2.79 -8.3004,0.7764 -3.3047,5.7722"
       id="path12" />
    <path
       fill="none"
       stroke="#000000"
       stroke-linecap="round"
       stroke-linejoin="round"
       stroke-miterlimit="10"
       stroke-width="2"
       d="m 52.8236,38.6567 c -2.2051,-2.1389 -5.6682,-6.0622 -10.6782,-11.0721 -3.0748,0 -3.4271,4.5661 -2.2659,7.4235 L 43.337,38.4656 27.0279,22.1564 c -2.5914,-2.5914 -7.4718,1.9049 -4.2795,5.0972"
       id="path13" />
    <line
       x1="13.3717"
       x2="17.879601"
       y1="36.143101"
       y2="40.735001"
       fill="none"
       stroke="#000000"
       stroke-linecap="round"
       stroke-linejoin="round"
       stroke-miterlimit="10"
       stroke-width="2"
       id="line13" />
    <path
       fill="none"
       stroke="#000000"
       stroke-linecap="round"
       stroke-linejoin="round"
       stroke-miterlimit="10"
       stroke-width="2"
       d="m 52.8236,38.6567 c 6.2265,6.2265 6.2265,16.3217 0,22.5483 -6.2265,6.2266 -16.1868,6.2579 -22.4133,0.0314"
       id="path14" />
    <line
       x1="13.1717"
       x2="30.410299"
       y1="43.997601"
       y2="61.236301"
       fill="none"
       stroke="#000000"
       stroke-linecap="round"
       stroke-linejoin="round"
       stroke-miterlimit="10"
       stroke-width="2"
       id="line14" />
    <line
       x1="33.387299"
       x2="31.347601"
       y1="23.7062"
       y2="9.5592003"
       fill="none"
       stroke="#000000"
       stroke-linecap="round"
       stroke-linejoin="round"
       stroke-miterlimit="10"
       stroke-width="2"
       id="line15" />
    <line
       x1="40.078602"
       x2="37.543098"
       y1="24.618601"
       y2="7.6188002"
       fill="none"
       stroke="#000000"
       stroke-linecap="round"
       stroke-linejoin="round"
       stroke-miterlimit="10"
       stroke-width="2"
       id="line16" />
    <path
       fill="none"
       stroke="#000000"
       stroke-linecap="round"
       stroke-linejoin="round"
       stroke-miterlimit="10"
       stroke-width="2"
       d="m 20.3603,18.3415 c -0.6213,-4.0446 4.9823,-4.7977 5.4641,-1.6614 l 0.2215,1.702"
       id="path16" />
    <path
       fill="none"
       stroke="#000000"
       stroke-linecap="round"
       stroke-linejoin="round"
       stroke-miterlimit="10"
       stroke-width="2"
       d="m 25.1679,12.127 c -0.805,-5.2403 5.7614,-5.2907 6.2962,-1.8092"
       id="path17" />
    <path
       fill="none"
       stroke="#000000"
       stroke-linecap="round"
       stroke-linejoin="round"
       stroke-miterlimit="10"
       stroke-width="2"
       d="M 37.5431,7.6188 C 36.944,3.7189 30.3914,3.3347 31.4641,10.3179"
       id="path18" />
    <path
       fill="none"
       stroke="#000000"
       stroke-linecap="round"
       stroke-linejoin="round"
       stroke-miterlimit="10"
       stroke-width="2"
       d="M 55.3349,36.5565 C 54.8222,33.5276 54.5058,29.2506 53.4301,22.2476 50.951,20.4287 47.9658,23.9018 47.2118,26.8925 L 44.4524,8.9283 C 43.896,5.306 37.3013,6.0442 37.9867,10.5064"
       id="path19" />
    <line
       x1="25.1679"
       x2="25.944201"
       y1="12.127"
       y2="17.5718"
       fill="none"
       stroke="#000000"
       stroke-linecap="round"
       stroke-linejoin="round"
       stroke-miterlimit="10"
       stroke-width="2"
       id="line19" />
    <line
       x1="20.3603"
       x2="20.6413"
       y1="18.341499"
       y2="20.171101"
       fill="none"
       stroke="#000000"
       stroke-linecap="round"
       stroke-linejoin="round"
       stroke-miterlimit="10"
       stroke-width="2"
       id="line20" />
    <line
       x1="15.4078"
       x2="14.0603"
       y1="12.9103"
       y2="6.6237001"
       fill="none"
       stroke="#000000"
       stroke-linecap="round"
       stroke-linejoin="round"
       stroke-miterlimit="10"
       stroke-width="2"
       id="line21" />
    <line
       x1="12.5067"
       x2="6.5921998"
       y1="18.5051"
       y2="21.026199"
       fill="none"
       stroke="#000000"
       stroke-linecap="round"
       stroke-linejoin="round"
       stroke-miterlimit="10"
       stroke-width="2"
       id="line22" />
    <line
       x1="13.6526"
       x2="9.2138996"
       y1="15.5204"
       y2="13.2187"
       fill="none"
       stroke="#000000"
       stroke-linecap="round"
       stroke-linejoin="round"
       stroke-miterlimit="10"
       stroke-width="2"
       id="line23" />
    <line
       x1="54.532001"
       x2="54.270199"
       y1="14.4973"
       y2="8.0732002"
       fill="none"
       stroke="#000000"
       stroke-linecap="round"
       stroke-linejoin="round"
       stroke-miterlimit="10"
       stroke-width="2"
       id="line24" />
    <line
       x1="58.735802"
       x2="65.092003"
       y1="19.1926"
       y2="20.1602"
       fill="none"
       stroke="#000000"
       stroke-linecap="round"
       stroke-linejoin="round"
       stroke-miterlimit="10"
       stroke-width="2"
       id="line25" />
    <line
       x1="56.882198"
       x2="60.6073"
       y1="16.587601"
       y2="13.2524"
       fill="none"
       stroke="#000000"
       stroke-linecap="round"
       stroke-linejoin="round"
       stroke-miterlimit="10"
       stroke-width="2"
       id="line26" />
  </g>
</svg>
