<svg xmlns="http://www.w3.org/2000/svg" xmlns:svg="http://www.w3.org/2000/svg" id="emoji" width="66" height="49.891" version="1.1" viewBox="0 0 66 49.891"><g id="color" transform="translate(-3,-10)"><rect id="rect1" width="64" height="7.267" x="4" y="51.624" fill="#fff"/><circle id="circle1" cx="35.996" cy="16.008" r="5" fill="#fff"/><rect id="rect2" width="64" height="7.267" x="4" y="51.624" fill="#f1b31c"/><path id="path2" fill="#fcea2b" d="m 7,11 c 2.7614,0 5,2.2386 5,5 0,2.7614 -2.2386,5 -5,5"/><path id="path3" fill="#fcea2b" d="m 65,21 c -2.7614,0 -5,-2.2386 -5,-5 0,-2.7614 2.2386,-5 5,-5"/><path id="path4" fill="#fcea2b" d="m 64.9674,17.4945 c 0,9.0811 -7.3617,16.4428 -16.4428,16.4428 H 48.238 c -9.0811,0 -11.4428,-7.3617 -11.4428,-16.4428 h -2.0738 c 0,9.0811 -2.3617,16.4428 -11.4428,16.4428 h 0.1643 c -5.3121,0 -10.0359,-2.519 -13.0419,-6.4277 C 8.2681,24.7363 7,21.2635 7,17.4945 V 11 51.624 H 65 V 11"/><circle id="circle4" cx="35.996" cy="16.008" r="5" fill="#fcea2b"/></g><g id="line" transform="translate(-3,-10)"><rect id="rect4" width="64" height="7.267" x="4" y="51.624" fill="none" stroke="#000" stroke-linecap="round" stroke-linejoin="round" stroke-miterlimit="10" stroke-width="2"/><polyline id="polyline4" fill="none" stroke="#000" stroke-linecap="round" stroke-linejoin="round" stroke-miterlimit="10" stroke-width="2" points="7 11 7 51.624 65 51.624 65 11"/><path id="path5" fill="none" stroke="#000" stroke-linecap="round" stroke-linejoin="round" stroke-miterlimit="10" stroke-width="2" d="m 7,11 c 2.7614,0 5,2.2386 5,5 0,2.7614 -2.2386,5 -5,5"/><path id="path6" fill="none" stroke="#000" stroke-linecap="round" stroke-linejoin="round" stroke-miterlimit="10" stroke-width="2" d="m 23.4428,33.9373 c -5.3121,0 -10.0359,-2.519 -13.0419,-6.4277 C 8.2681,24.7363 7,21.2635 7,17.4945"/><path id="path7" fill="none" stroke="#000" stroke-linecap="round" stroke-linejoin="round" stroke-miterlimit="10" stroke-width="2" d="m 64.9674,17.4945 c 0,9.0811 -7.3617,16.4428 -16.4428,16.4428"/><circle id="circle7" cx="35.996" cy="16.008" r="5" fill="none" stroke="#000" stroke-linecap="round" stroke-linejoin="round" stroke-miterlimit="10" stroke-width="2"/><path id="path8" fill="none" stroke="#000" stroke-linecap="round" stroke-linejoin="round" stroke-miterlimit="10" stroke-width="2" d="m 65,21 c -2.7614,0 -5,-2.2386 -5,-5 0,-2.7614 2.2386,-5 5,-5"/><rect id="rect8" width="64" height="7.267" x="4" y="51.624" fill="none" stroke="#000" stroke-linecap="round" stroke-linejoin="round" stroke-miterlimit="10" stroke-width="2"/><path id="path9" fill="none" stroke="#000" stroke-linecap="round" stroke-linejoin="round" stroke-miterlimit="10" stroke-width="2" d="m 7,11 c 2.7614,0 5,2.2386 5,5 0,2.7614 -2.2386,5 -5,5"/><path id="path10" fill="none" stroke="#000" stroke-linecap="round" stroke-linejoin="round" stroke-miterlimit="10" stroke-width="2" d="m 65,21 c -2.7614,0 -5,-2.2386 -5,-5 0,-2.7614 2.2386,-5 5,-5"/><path id="path11" fill="none" stroke="#000" stroke-linecap="round" stroke-linejoin="round" stroke-miterlimit="10" stroke-width="2" d="m 34.597,20.8744 c -0.5876,7.4597 -3.3959,13.0629 -11.3184,13.0629 h 0.1643 c -5.3121,0 -10.0359,-2.519 -13.0419,-6.4277 C 8.2681,24.7363 7,21.2635 7,17.4945 V 11 51.624 H 65 V 11"/><path id="path12" fill="none" stroke="#000" stroke-linecap="round" stroke-linejoin="round" stroke-miterlimit="10" stroke-width="2" d="m 64.9674,17.4945 c 0,9.0811 -7.3617,16.4428 -16.4428,16.4428 H 48.238 c -7.9061,0 -10.7191,-5.5799 -11.3147,-13.0163"/><circle id="circle12" cx="35.996" cy="16.008" r="5" fill="none" stroke="#000" stroke-linecap="round" stroke-linejoin="round" stroke-miterlimit="10" stroke-width="2"/></g></svg>