<svg xmlns="http://www.w3.org/2000/svg" xmlns:svg="http://www.w3.org/2000/svg" id="emoji" width="52" height="53.283" version="1.1" viewBox="0 0 52 53.283"><g id="color" transform="translate(-10.000006,-8.6758)"><polygon id="polygon1" fill="#6a462f" stroke="none" stroke-linecap="round" stroke-linejoin="round" stroke-miterlimit="10" stroke-width="2" points="13 28.5 59 28.5 61 60.958 11 60.958"/><rect id="rect1" width="9.21" height="9.21" x="21.954" y="31.943" fill="#d0cfce" stroke="none" stroke-linecap="round" stroke-linejoin="round" stroke-miterlimit="10" stroke-width="2"/><rect id="rect2" width="9.21" height="9.21" x="42.884" y="31.943" fill="#d0cfce" stroke="none" stroke-linecap="round" stroke-linejoin="round" stroke-miterlimit="10" stroke-width="2"/></g><g id="line" transform="translate(-10.000006,-8.6758)"><polygon id="polygon2" fill="none" stroke="#000" stroke-linecap="round" stroke-linejoin="round" stroke-miterlimit="10" stroke-width="2" points="13 28.5 59 28.5 61 60.958 11 60.958"/><rect id="rect3" width="9.21" height="9.21" x="21.954" y="31.943" fill="none" stroke="#000" stroke-linecap="round" stroke-linejoin="round" stroke-miterlimit="10" stroke-width="2"/><rect id="rect4" width="9.21" height="9.21" x="42.884" y="31.943" fill="none" stroke="#000" stroke-linecap="round" stroke-linejoin="round" stroke-miterlimit="10" stroke-width="2"/><path id="path4" fill="none" stroke="#000" stroke-linecap="round" stroke-linejoin="round" stroke-miterlimit="10" stroke-width="2" d="m 24.5192,25.1873 c 0,-8.5667 1.31,-15.5115 11.4851,-15.5115 10.1751,0 11.4851,6.9447 11.4851,15.5115"/><polygon id="polygon4" fill="none" stroke="#000" stroke-linecap="round" stroke-linejoin="round" stroke-miterlimit="10" stroke-width="2" points="13 28.5 59 28.5 61 60.958 11 60.958"/></g></svg>