<svg xmlns="http://www.w3.org/2000/svg" xmlns:svg="http://www.w3.org/2000/svg" id="emoji" width="52" height="58.764" version="1.1" viewBox="0 0 52 58.764"><g id="color" transform="translate(-9.1712,-6.0132155)"><path id="path1" fill="#61b2e4" stroke="#61b2e4" stroke-miterlimit="10" stroke-width="2" d="m 16.1319,13.7776 c -3.292,0 -5.9607,2.6687 -5.9607,5.9607 v 38.0785 c 0,3.292 2.6687,5.9607 5.9607,5.9607 h 38.0785 c 3.292,0 5.9607,-2.6687 5.9607,-5.9607 V 19.7383 c 0,-3.292 -2.6687,-5.9607 -5.9607,-5.9607 H 51.0469 L 40.696,7.9637 32.168,7.7368 l -8.2214,2.3051 -4.029,3.7356 h -3.7857 z"/><path id="path2" fill="#92d3f5" stroke="#92d3f5" stroke-miterlimit="10" stroke-width="2" d="m 20.2061,12.8622 c 0,0 -4.1164,2.6922 7.013,16.4569 l 3.9887,-7.0302 -6.8234,-8.4142 -2.4456,-1.9713"/><path id="path3" fill="#92d3f5" stroke="#92d3f5" stroke-miterlimit="10" stroke-width="2" d="m 48.531,11.3682 -2.4093,2.4093 -7.1732,8.52 4.6605,7.0331 C 54.7383,15.5659 49.6574,12.952 49.6574,12.952"/><polygon id="polygon3" fill="#8967aa" points="29.646 63.778 40.696 63.778 36.679 31.62 33.672 31.62"/><polygon id="polygon4" fill="#8967aa" points="32.168 28.141 33.672 31.62 36.679 31.62 38.183 28.141 36.679 24.663 33.672 24.663"/></g><g id="line" transform="translate(-9.1712,-6.0132155)"><path id="path4" fill="none" stroke="#000" stroke-linecap="round" stroke-linejoin="round" stroke-width="2" d="m 16.1319,13.7776 c -3.292,0 -5.9607,2.6687 -5.9607,5.9607 v 38.0785 c 0,3.292 2.6687,5.9607 5.9607,5.9607 h 38.0785 c 3.292,0 5.9607,-2.6687 5.9607,-5.9607 V 19.7383 c 0,-3.292 -2.6687,-5.9607 -5.9607,-5.9607"/><path id="path5" fill="none" stroke="#000" stroke-linecap="round" stroke-linejoin="round" stroke-width="2" d="m 24.3844,13.8748 7.8234,8.4142 -4.9887,8.0302 C 16.0898,16.5545 19.9007,12.7775 19.9007,12.7775 c 0,0 14.3783,-13 30.6143,0 0,0 3.8109,3.7769 -7.3184,17.5417 l -4.9887,-8.0302 7.9138,-8.5115"/><polygon id="polygon5" fill="none" stroke="#000" stroke-linecap="round" stroke-linejoin="round" stroke-width="2" points="29.646 63.778 40.696 63.778 36.679 31.62 33.672 31.62"/><polygon id="polygon6" fill="none" stroke="#000" stroke-linecap="round" stroke-linejoin="round" stroke-width="2" points="32.168 28.141 33.672 31.62 36.679 31.62 38.183 28.141 36.679 24.663 33.672 24.663"/></g></svg>