<svg xmlns="http://www.w3.org/2000/svg" xmlns:svg="http://www.w3.org/2000/svg" id="emoji" width="58" height="50.579" version="1.1" viewBox="0 0 58 50.579"><g id="color" transform="translate(-7.0000222,-6.4214399)"><path id="path1" fill="#61b2e4" d="m 23.5126,14.3094 -2.69,1.7114 V 56 H 51.1774 V 16.0208 L 48.3057,14.3892 45.0985,13.5285 45.26,12.9156 c 0.2702,-1.0254 -0.2608,-2.0923 -1.2416,-2.4952 L 40.5604,9.0002 C 38.0759,7.9799 35.3339,7.7647 32.7207,8.385 l -2.029,0.4816 c -2.057,0.4883 -3.7802,1.8857 -4.6828,3.7974 l -0.3728,0.7895 -2.1235,0.8558 z"/><polygon id="polygon1" fill="#61b2e4" points="51.177 16.021 64 22.021 61 31.329 51.177 28.329"/><path id="path2" fill="#92d3f5" d="m 44.8123,11.273 c 0,0 2.5708,1.0866 -3.7875,11.1338 l -3.2087,-5.165 4.5054,-4.8457 1.5524,-1.7815"/><path id="path3" fill="#92d3f5" d="m 27.9297,10.6105 2.0075,2.7494 4.5124,4.8532 -3.2087,5.165 C 24.0826,14.5247 26.5337,12.0954 26.5337,12.0954"/><polygon id="polygon3" fill="#61b2e4" points="20.823 16.021 8 22.021 11 31.329 20.823 28.329"/></g><g id="line" transform="translate(-7.0000222,-6.4214399)"><polyline id="polyline3" fill="none" stroke="#000" stroke-linecap="round" stroke-linejoin="round" stroke-width="2" points="48.306 15.24 51.177 16.021 51.177 56 20.823 56 20.823 16.021 23.513 15.16"/><polygon id="polygon4" fill="none" stroke="#000" stroke-linecap="round" stroke-linejoin="round" stroke-width="2" points="51.177 16.021 64 22.021 61 31.329 51.177 28.329"/><polygon id="polygon5" fill="none" stroke="#000" stroke-linecap="round" stroke-linejoin="round" stroke-width="2" points="20.823 16.021 8 22.021 11 31.329 20.823 28.329"/><path id="path5" fill="none" stroke="#000" stroke-linecap="round" stroke-linejoin="round" stroke-width="2" d="m 42.3216,12.3962 -4.5054,4.8457 3.2087,5.165 c 7.1583,-8.8534 4.7072,-11.2827 4.7072,-11.2827 -10.4429,-8.3615 -19.6909,0 -19.6909,0 0,0 -2.4511,2.4293 4.7072,11.2827 l 3.2087,-5.165 -4.5124,-4.8532"/><circle id="circle5" cx="35.887" cy="21.675" r=".853"/><circle id="circle6" cx="35.887" cy="24.942" r=".853"/><circle id="circle7" cx="35.887" cy="28.208" r=".853"/></g></svg>