<?xml version="1.0" encoding="UTF-8" standalone="no"?>
<svg
   id="emoji"
   viewBox="0 0 66 49.8908"
   version="1.1"
   sodipodi:docname="1f451.svg"
   width="66"
   height="49.8908"
   xmlns:inkscape="http://www.inkscape.org/namespaces/inkscape"
   xmlns:sodipodi="http://sodipodi.sourceforge.net/DTD/sodipodi-0.dtd"
   xmlns="http://www.w3.org/2000/svg"
   xmlns:svg="http://www.w3.org/2000/svg">
  <defs
     id="defs12" />
  <sodipodi:namedview
     id="namedview12"
     pagecolor="#ffffff"
     bordercolor="#000000"
     borderopacity="0.25"
     inkscape:showpageshadow="2"
     inkscape:pageopacity="0.0"
     inkscape:pagecheckerboard="0"
     inkscape:deskcolor="#d1d1d1" />
  <g
     id="color"
     transform="translate(-3,-10)">
    <rect
       x="4"
       y="51.624001"
       width="64"
       height="7.2667999"
       fill="#ffffff"
       id="rect1" />
    <circle
       cx="35.996201"
       cy="16.007999"
       r="5"
       fill="#ffffff"
       id="circle1" />
    <rect
       x="4"
       y="51.624001"
       width="64"
       height="7.2667999"
       fill="#f1b31c"
       id="rect2" />
    <path
       fill="#fcea2b"
       d="m 7,11 c 2.7614,0 5,2.2386 5,5 0,2.7614 -2.2386,5 -5,5"
       id="path2" />
    <path
       fill="#fcea2b"
       d="m 65,21 c -2.7614,0 -5,-2.2386 -5,-5 0,-2.7614 2.2386,-5 5,-5"
       id="path3" />
    <path
       fill="#fcea2b"
       d="m 64.9674,17.4945 c 0,9.0811 -7.3617,16.4428 -16.4428,16.4428 H 48.238 c -9.0811,0 -11.4428,-7.3617 -11.4428,-16.4428 h -2.0738 c 0,9.0811 -2.3617,16.4428 -11.4428,16.4428 h 0.1643 c -5.3121,0 -10.0359,-2.519 -13.0419,-6.4277 C 8.2681,24.7363 7,21.2635 7,17.4945 V 11 51.624 H 65 V 11"
       id="path4" />
    <circle
       cx="35.996201"
       cy="16.007999"
       r="5"
       fill="#fcea2b"
       id="circle4" />
  </g>
  <g
     id="hair"
     transform="translate(-3,-10)" />
  <g
     id="skin"
     transform="translate(-3,-10)" />
  <g
     id="skin-shadow"
     transform="translate(-3,-10)" />
  <g
     id="line"
     transform="translate(-3,-10)">
    <rect
       x="4"
       y="51.624001"
       width="64"
       height="7.2667999"
       fill="none"
       stroke="#000000"
       stroke-linecap="round"
       stroke-linejoin="round"
       stroke-miterlimit="10"
       stroke-width="2"
       id="rect4" />
    <polyline
       fill="none"
       stroke="#000000"
       stroke-linecap="round"
       stroke-linejoin="round"
       stroke-miterlimit="10"
       stroke-width="2"
       points="7,11 7,51.624 65,51.624 65,11"
       id="polyline4" />
    <path
       fill="none"
       stroke="#000000"
       stroke-linecap="round"
       stroke-linejoin="round"
       stroke-miterlimit="10"
       stroke-width="2"
       d="m 7,11 c 2.7614,0 5,2.2386 5,5 0,2.7614 -2.2386,5 -5,5"
       id="path5" />
    <path
       fill="none"
       stroke="#000000"
       stroke-linecap="round"
       stroke-linejoin="round"
       stroke-miterlimit="10"
       stroke-width="2"
       d="m 23.4428,33.9373 c -5.3121,0 -10.0359,-2.519 -13.0419,-6.4277 C 8.2681,24.7363 7,21.2635 7,17.4945"
       id="path6" />
    <path
       fill="none"
       stroke="#000000"
       stroke-linecap="round"
       stroke-linejoin="round"
       stroke-miterlimit="10"
       stroke-width="2"
       d="m 64.9674,17.4945 c 0,9.0811 -7.3617,16.4428 -16.4428,16.4428"
       id="path7" />
    <circle
       cx="35.996201"
       cy="16.007999"
       r="5"
       fill="none"
       stroke="#000000"
       stroke-linecap="round"
       stroke-linejoin="round"
       stroke-miterlimit="10"
       stroke-width="2"
       id="circle7" />
    <path
       fill="none"
       stroke="#000000"
       stroke-linecap="round"
       stroke-linejoin="round"
       stroke-miterlimit="10"
       stroke-width="2"
       d="m 65,21 c -2.7614,0 -5,-2.2386 -5,-5 0,-2.7614 2.2386,-5 5,-5"
       id="path8" />
    <rect
       x="4"
       y="51.624001"
       width="64"
       height="7.2667999"
       fill="none"
       stroke="#000000"
       stroke-linecap="round"
       stroke-linejoin="round"
       stroke-miterlimit="10"
       stroke-width="2"
       id="rect8" />
    <path
       fill="none"
       stroke="#000000"
       stroke-linecap="round"
       stroke-linejoin="round"
       stroke-miterlimit="10"
       stroke-width="2"
       d="m 7,11 c 2.7614,0 5,2.2386 5,5 0,2.7614 -2.2386,5 -5,5"
       id="path9" />
    <path
       fill="none"
       stroke="#000000"
       stroke-linecap="round"
       stroke-linejoin="round"
       stroke-miterlimit="10"
       stroke-width="2"
       d="m 65,21 c -2.7614,0 -5,-2.2386 -5,-5 0,-2.7614 2.2386,-5 5,-5"
       id="path10" />
    <path
       fill="none"
       stroke="#000000"
       stroke-linecap="round"
       stroke-linejoin="round"
       stroke-miterlimit="10"
       stroke-width="2"
       d="m 34.597,20.8744 c -0.5876,7.4597 -3.3959,13.0629 -11.3184,13.0629 h 0.1643 c -5.3121,0 -10.0359,-2.519 -13.0419,-6.4277 C 8.2681,24.7363 7,21.2635 7,17.4945 V 11 51.624 H 65 V 11"
       id="path11" />
    <path
       fill="none"
       stroke="#000000"
       stroke-linecap="round"
       stroke-linejoin="round"
       stroke-miterlimit="10"
       stroke-width="2"
       d="m 64.9674,17.4945 c 0,9.0811 -7.3617,16.4428 -16.4428,16.4428 H 48.238 c -7.9061,0 -10.7191,-5.5799 -11.3147,-13.0163"
       id="path12" />
    <circle
       cx="35.996201"
       cy="16.007999"
       r="5"
       fill="none"
       stroke="#000000"
       stroke-linecap="round"
       stroke-linejoin="round"
       stroke-miterlimit="10"
       stroke-width="2"
       id="circle12" />
  </g>
</svg>
