<svg xmlns="http://www.w3.org/2000/svg" xmlns:svg="http://www.w3.org/2000/svg" id="emoji" width="42" height="65.979" version="1.1" viewBox="0 0 42 65.979"><g id="color" transform="translate(-15.000044,-3)"><path id="path1" fill="#61b2e4" stroke="none" stroke-linecap="round" stroke-linejoin="round" stroke-miterlimit="10" stroke-width="2" d="M 36,24.6438 29.4165,16 V 4 h -5.5052 v 12 c 0,6.0279 4.0037,19.9583 4.0037,19.9583 L 16,67.9792 H 36 56 L 44.0849,35.9583 c 0,0 4.0037,-13.9304 4.0037,-19.9583 V 4 h -5.5052 v 12 z"/></g><g id="line" transform="translate(-15.000044,-3)"><path id="path2" fill="none" stroke="#000" stroke-linecap="round" stroke-linejoin="round" stroke-miterlimit="10" stroke-width="2" d="M 36,24.6438 29.4165,16 V 4 h -5.5052 v 12 c 0,6.0279 4.0037,19.9583 4.0037,19.9583 L 16,67.9792 H 36 56 L 44.0849,35.9583 c 0,0 4.0037,-13.9304 4.0037,-19.9583 V 4 h -5.5052 v 12 z"/><line id="line2" x1="31.682" x2="40.326" y1="35.958" y2="35.958" fill="none" stroke="#000" stroke-linecap="round" stroke-linejoin="round" stroke-miterlimit="10" stroke-width="2"/></g></svg>