<?xml version="1.0" encoding="UTF-8" standalone="no"?>
<svg
   id="emoji"
   viewBox="0 0 64.740799 27.719278"
   version="1.1"
   sodipodi:docname="1f45e.svg"
   width="64.740799"
   height="27.719278"
   xmlns:inkscape="http://www.inkscape.org/namespaces/inkscape"
   xmlns:sodipodi="http://sodipodi.sourceforge.net/DTD/sodipodi-0.dtd"
   xmlns="http://www.w3.org/2000/svg"
   xmlns:svg="http://www.w3.org/2000/svg">
  <defs
     id="defs5" />
  <sodipodi:namedview
     id="namedview5"
     pagecolor="#ffffff"
     bordercolor="#000000"
     borderopacity="0.25"
     inkscape:showpageshadow="2"
     inkscape:pageopacity="0.0"
     inkscape:pagecheckerboard="0"
     inkscape:deskcolor="#d1d1d1" />
  <g
     id="color"
     transform="translate(-3,-27.28072)">
    <path
       fill="#a57939"
       stroke="none"
       d="M 7.6821,50.4643 C 5.4335,48.6114 4,45.8052 4,42.6642 4,39.8746 5.1307,30.3491 6.9588,28.521 c 0,0 16.4385,9.1248 29.0454,0 L 48.478,36 c 0,0 6.7551,0.8268 11.6292,1.2555 4.8929,0.4303 6.6336,4.931 6.6336,7.6336 0,8.6515 -13.338,7.2227 -20.0644,6.8554 C 42.9696,51.5421 37.5379,51.2455 33.4082,51.02 L 12.6955,50.6998 Z"
       id="path1" />
    <path
       fill="#a57939"
       stroke="#a57939"
       stroke-miterlimit="10"
       stroke-width="2"
       d="M 7.6821,50.4643 C 5.4335,48.6114 4,45.8052 4,42.6642 4,39.8746 5.1307,30.3491 6.9588,28.521 c 0,0 16.4385,9.1248 29.0454,0 L 48.478,36 c 0,0 6.7551,0.8268 11.6292,1.2555 4.8929,0.4303 6.6336,4.931 6.6336,7.6336 0,8.6515 -13.338,7.2227 -20.0644,6.8554 -3.7068,-0.2024 -9.1385,-0.499 -13.2682,-0.7245 z"
       id="path2" />
    <rect
       x="11"
       y="50.699699"
       width="16.544001"
       height="3.3002999"
       fill="#3f3f3f"
       stroke="none"
       stroke-linecap="round"
       stroke-linejoin="round"
       stroke-miterlimit="10"
       stroke-width="2"
       id="rect2" />
  </g>
  <g
     id="hair"
     transform="translate(-3,-27.28072)" />
  <g
     id="skin"
     transform="translate(-3,-27.28072)" />
  <g
     id="skin-shadow"
     transform="translate(-3,-27.28072)" />
  <g
     id="line"
     transform="translate(-3,-27.28072)">
    <path
       fill="none"
       stroke="#000000"
       stroke-linecap="round"
       stroke-linejoin="round"
       stroke-miterlimit="10"
       stroke-width="2"
       d="M 7.6821,50.4643 C 5.4335,48.6114 4,45.8052 4,42.6642 4,39.8746 5.1307,30.3491 6.9588,28.521 c 0,0 16.4385,9.1248 29.0454,0 L 48.478,36 c 0,0 6.7551,0.8268 11.6292,1.2555 4.8929,0.4303 6.6336,4.931 6.6336,7.6336 0,8.6515 -13.338,7.2227 -20.0644,6.8554 -3.7068,-0.2024 -9.1385,-0.499 -13.2682,-0.7245"
       id="path3" />
    <rect
       x="11"
       y="50.699699"
       width="16.544001"
       height="3.3002999"
       fill="none"
       stroke="#000000"
       stroke-linecap="round"
       stroke-linejoin="round"
       stroke-miterlimit="10"
       stroke-width="2"
       id="rect3" />
    <line
       x1="37.0975"
       x2="34.327702"
       y1="33.384602"
       y2="35.296299"
       fill="none"
       stroke="#000000"
       stroke-linecap="round"
       stroke-linejoin="round"
       stroke-miterlimit="10"
       stroke-width="2"
       id="line3" />
    <line
       x1="40.662498"
       x2="37.8927"
       y1="35.247799"
       y2="37.159401"
       fill="none"
       stroke="#000000"
       stroke-linecap="round"
       stroke-linejoin="round"
       stroke-miterlimit="10"
       stroke-width="2"
       id="line4" />
    <line
       x1="44.227402"
       x2="41.4576"
       y1="37.110901"
       y2="39.022598"
       fill="none"
       stroke="#000000"
       stroke-linecap="round"
       stroke-linejoin="round"
       stroke-miterlimit="10"
       stroke-width="2"
       id="line5" />
  </g>
</svg>
