<svg xmlns="http://www.w3.org/2000/svg" xmlns:svg="http://www.w3.org/2000/svg" id="emoji" width="64.741" height="27.719" version="1.1" viewBox="0 0 64.741 27.719"><g id="color" transform="translate(-3,-27.28072)"><path id="path1" fill="#a57939" stroke="none" d="M 7.6821,50.4643 C 5.4335,48.6114 4,45.8052 4,42.6642 4,39.8746 5.1307,30.3491 6.9588,28.521 c 0,0 16.4385,9.1248 29.0454,0 L 48.478,36 c 0,0 6.7551,0.8268 11.6292,1.2555 4.8929,0.4303 6.6336,4.931 6.6336,7.6336 0,8.6515 -13.338,7.2227 -20.0644,6.8554 C 42.9696,51.5421 37.5379,51.2455 33.4082,51.02 L 12.6955,50.6998 Z"/><path id="path2" fill="#a57939" stroke="#a57939" stroke-miterlimit="10" stroke-width="2" d="M 7.6821,50.4643 C 5.4335,48.6114 4,45.8052 4,42.6642 4,39.8746 5.1307,30.3491 6.9588,28.521 c 0,0 16.4385,9.1248 29.0454,0 L 48.478,36 c 0,0 6.7551,0.8268 11.6292,1.2555 4.8929,0.4303 6.6336,4.931 6.6336,7.6336 0,8.6515 -13.338,7.2227 -20.0644,6.8554 -3.7068,-0.2024 -9.1385,-0.499 -13.2682,-0.7245 z"/><rect id="rect2" width="16.544" height="3.3" x="11" y="50.7" fill="#3f3f3f" stroke="none" stroke-linecap="round" stroke-linejoin="round" stroke-miterlimit="10" stroke-width="2"/></g><g id="line" transform="translate(-3,-27.28072)"><path id="path3" fill="none" stroke="#000" stroke-linecap="round" stroke-linejoin="round" stroke-miterlimit="10" stroke-width="2" d="M 7.6821,50.4643 C 5.4335,48.6114 4,45.8052 4,42.6642 4,39.8746 5.1307,30.3491 6.9588,28.521 c 0,0 16.4385,9.1248 29.0454,0 L 48.478,36 c 0,0 6.7551,0.8268 11.6292,1.2555 4.8929,0.4303 6.6336,4.931 6.6336,7.6336 0,8.6515 -13.338,7.2227 -20.0644,6.8554 -3.7068,-0.2024 -9.1385,-0.499 -13.2682,-0.7245"/><rect id="rect3" width="16.544" height="3.3" x="11" y="50.7" fill="none" stroke="#000" stroke-linecap="round" stroke-linejoin="round" stroke-miterlimit="10" stroke-width="2"/><line id="line3" x1="37.097" x2="34.328" y1="33.385" y2="35.296" fill="none" stroke="#000" stroke-linecap="round" stroke-linejoin="round" stroke-miterlimit="10" stroke-width="2"/><line id="line4" x1="40.662" x2="37.893" y1="35.248" y2="37.159" fill="none" stroke="#000" stroke-linecap="round" stroke-linejoin="round" stroke-miterlimit="10" stroke-width="2"/><line id="line5" x1="44.227" x2="41.458" y1="37.111" y2="39.023" fill="none" stroke="#000" stroke-linecap="round" stroke-linejoin="round" stroke-miterlimit="10" stroke-width="2"/></g></svg>