<?xml version="1.0" encoding="UTF-8" standalone="no"?>
<svg
   id="emoji"
   viewBox="0 0 52 52.596302"
   version="1.1"
   sodipodi:docname="1f45b.svg"
   width="52"
   height="52.596302"
   xmlns:inkscape="http://www.inkscape.org/namespaces/inkscape"
   xmlns:sodipodi="http://sodipodi.sourceforge.net/DTD/sodipodi-0.dtd"
   xmlns="http://www.w3.org/2000/svg"
   xmlns:svg="http://www.w3.org/2000/svg">
  <defs
     id="defs8" />
  <sodipodi:namedview
     id="namedview8"
     pagecolor="#ffffff"
     bordercolor="#000000"
     borderopacity="0.25"
     inkscape:showpageshadow="2"
     inkscape:pageopacity="0.0"
     inkscape:pagecheckerboard="0"
     inkscape:deskcolor="#d1d1d1" />
  <g
     id="color"
     transform="translate(-10,-9.7018995)">
    <path
       fill="#d0cfce"
       d="M 14.5371,29.8485 V 24.594 c 0,0 11.7262,-1.1745 21.4627,-1.1745 9.7365,0 21.4784,1.1745 21.4784,1.1745 v 5.2545"
       id="path1" />
    <path
       fill="#8967aa"
       d="M 36,27.8933 H 18.2944 C 18.2944,38.8402 11,41.9357 11,48.999 c 0,7.0633 11.1929,12.2992 25,12.2992 13.8071,0 25,-5.2359 25,-12.2992 0,-7.0633 -7.2944,-10.1588 -7.2944,-21.1057 0,0 -17.7056,0 -17.7056,0 z"
       id="path2" />
    <path
       fill="#b399c8"
       d="m 44.0272,27.8933 c 0,0 9.6056,8.8358 5.9753,30.2374 C 49.7215,59.7873 61,53.4135 61,48.999 61,41.9357 53.7056,38.8402 53.7056,27.8933 h -9.6784"
       id="path3" />
    <circle
       cx="37.692101"
       cy="14.942"
       r="3.937"
       fill="#d0cfce"
       id="circle3" />
    <circle
       cx="33.012001"
       cy="13.7019"
       r="3"
       fill="#d0cfce"
       id="circle4" />
    <path
       fill="#d0cfce"
       d="m 38.5215,12.0002 c 1.5921,0.4585 2.5111,2.1209 2.0526,3.7131 -0.4585,1.5922 -2.1209,2.5111 -3.7131,2.0526"
       id="path4" />
  </g>
  <g
     id="line"
     transform="translate(-10,-9.7018995)">
    <path
       fill="none"
       stroke="#000000"
       stroke-linecap="round"
       stroke-linejoin="round"
       stroke-width="2"
       d="M 36,27.8933 H 18.2944 C 18.2944,38.8402 11,41.9357 11,48.999 c 0,7.0633 11.1929,12.2992 25,12.2992 13.8071,0 25,-5.2359 25,-12.2992 0,-7.0633 -7.2944,-10.1588 -7.2944,-21.1057 0,0 -17.7056,0 -17.7056,0 z"
       id="path5" />
    <path
       fill="none"
       stroke="#000000"
       stroke-linecap="round"
       stroke-linejoin="round"
       stroke-width="2"
       d="m 14.5371,28.8933 v -4.4738 c 0,0 11.7262,-1 21.4627,-1 9.7365,0 21.4784,1 21.4784,1 v 4.4738"
       id="path6" />
    <polyline
       fill="none"
       stroke="#000000"
       stroke-linecap="round"
       stroke-linejoin="round"
       stroke-width="2"
       points="18.6989 20.362 24.9529 20.362 28.355 17.396"
       id="polyline6" />
    <polyline
       fill="none"
       stroke="#000000"
       stroke-linecap="round"
       stroke-linejoin="round"
       stroke-width="2"
       points="50.1012 20.362 43.8472 20.362 42.1461 18.879"
       id="polyline7" />
    <circle
       cx="33.012001"
       cy="13.7019"
       r="3"
       fill="none"
       stroke="#000000"
       stroke-linecap="round"
       stroke-linejoin="round"
       stroke-width="2"
       id="circle7" />
    <path
       fill="none"
       stroke="#000000"
       stroke-linecap="round"
       stroke-linejoin="round"
       stroke-width="2"
       d="m 38.5215,12.0002 c 1.5921,0.4585 2.5111,2.1209 2.0526,3.7131 -0.4585,1.5922 -2.1209,2.5111 -3.7131,2.0526"
       id="path7" />
    <path
       fill="none"
       stroke="#000000"
       stroke-linecap="round"
       stroke-linejoin="round"
       stroke-width="2"
       d="M 36,27.8933 H 18.2944 C 18.2944,38.8402 11,41.9357 11,48.999 c 0,7.0633 11.1929,12.2992 25,12.2992 13.8071,0 25,-5.2359 25,-12.2992 0,-7.0633 -7.2944,-10.1588 -7.2944,-21.1057 0,0 -17.7056,0 -17.7056,0 z"
       id="path8" />
  </g>
</svg>
