<?xml version="1.0" encoding="UTF-8" standalone="no"?>
<svg
   id="emoji"
   viewBox="0 0 42 58.9548"
   version="1.1"
   sodipodi:docname="1f456.svg"
   width="42"
   height="58.9548"
   xmlns:inkscape="http://www.inkscape.org/namespaces/inkscape"
   xmlns:sodipodi="http://sodipodi.sourceforge.net/DTD/sodipodi-0.dtd"
   xmlns="http://www.w3.org/2000/svg"
   xmlns:svg="http://www.w3.org/2000/svg">
  <defs
     id="defs4" />
  <sodipodi:namedview
     id="namedview4"
     pagecolor="#ffffff"
     bordercolor="#000000"
     borderopacity="0.25"
     inkscape:showpageshadow="2"
     inkscape:pageopacity="0.0"
     inkscape:pagecheckerboard="0"
     inkscape:deskcolor="#d1d1d1" />
  <g
     id="color"
     transform="translate(-16.625,-9.9583)">
    <path
       fill="#61b2e4"
       stroke="none"
       stroke-linecap="round"
       stroke-linejoin="round"
       stroke-miterlimit="10"
       stroke-width="2"
       d="m 37.6214,29.6711 c -2.5604,0 -4.9347,1.7605 -4.9347,2.8289 0,1.0684 -2,35.4131 -2,35.4131 H 17.625 V 28.5 16 10.9583 h 20 20 V 16 28.5 67.9131 H 44.5633 c 0,0 -2,-34.3446 -2,-35.4131 0,-1.0685 -2.3743,-2.8289 -4.9347,-2.8289"
       id="path1" />
  </g>
  <g
     id="hair"
     transform="translate(-16.625,-9.9583)" />
  <g
     id="skin"
     transform="translate(-16.625,-9.9583)" />
  <g
     id="skin-shadow"
     transform="translate(-16.625,-9.9583)" />
  <g
     id="line"
     transform="translate(-16.625,-9.9583)">
    <path
       fill="none"
       stroke="#000000"
       stroke-linecap="round"
       stroke-linejoin="round"
       stroke-miterlimit="10"
       stroke-width="2"
       d="m 37.6214,29.6711 c -2.5604,0 -4.9347,1.7605 -4.9347,2.8289 0,1.0684 -2,35.4131 -2,35.4131 H 17.625 V 28.5 16 10.9583 h 20 20 V 16 28.5 67.9131 H 44.5633 c 0,0 -2,-34.3446 -2,-35.4131 0,-1.0685 -2.3743,-2.8289 -4.9347,-2.8289"
       id="path2" />
    <circle
       cx="38.125"
       cy="16.070499"
       r="2"
       fill="#000000"
       stroke="none"
       id="circle2" />
    <path
       fill="none"
       stroke="#000000"
       stroke-linecap="round"
       stroke-linejoin="round"
       stroke-miterlimit="10"
       stroke-width="2"
       d="m 48.8653,14.328 c 0,0 -2.403,8.938 6.0876,11.4666"
       id="path3" />
    <path
       fill="none"
       stroke="#000000"
       stroke-linecap="round"
       stroke-linejoin="round"
       stroke-miterlimit="10"
       stroke-width="2"
       d="m 26.3847,14.328 c 0,0 2.403,8.938 -6.0876,11.4666"
       id="path4" />
  </g>
</svg>
