<?xml version="1.0" encoding="UTF-8" standalone="no"?>
<svg
   id="emoji"
   viewBox="0 0 51.999901 58.764385"
   version="1.1"
   sodipodi:docname="1f454.svg"
   width="51.999901"
   height="58.764385"
   xmlns:inkscape="http://www.inkscape.org/namespaces/inkscape"
   xmlns:sodipodi="http://sodipodi.sourceforge.net/DTD/sodipodi-0.dtd"
   xmlns="http://www.w3.org/2000/svg"
   xmlns:svg="http://www.w3.org/2000/svg">
  <defs
     id="defs6" />
  <sodipodi:namedview
     id="namedview6"
     pagecolor="#ffffff"
     bordercolor="#000000"
     borderopacity="0.25"
     inkscape:showpageshadow="2"
     inkscape:pageopacity="0.0"
     inkscape:pagecheckerboard="0"
     inkscape:deskcolor="#d1d1d1" />
  <g
     id="color"
     transform="translate(-9.1712,-6.0132155)">
    <path
       fill="#61b2e4"
       stroke="#61b2e4"
       stroke-miterlimit="10"
       stroke-width="2"
       d="m 16.1319,13.7776 c -3.292,0 -5.9607,2.6687 -5.9607,5.9607 v 38.0785 c 0,3.292 2.6687,5.9607 5.9607,5.9607 h 38.0785 c 3.292,0 5.9607,-2.6687 5.9607,-5.9607 V 19.7383 c 0,-3.292 -2.6687,-5.9607 -5.9607,-5.9607 H 51.0469 L 40.696,7.9637 32.168,7.7368 l -8.2214,2.3051 -4.029,3.7356 h -3.7857 z"
       id="path1" />
    <path
       fill="#92d3f5"
       stroke="#92d3f5"
       stroke-miterlimit="10"
       stroke-width="2"
       d="m 20.2061,12.8622 c 0,0 -4.1164,2.6922 7.013,16.4569 l 3.9887,-7.0302 -6.8234,-8.4142 -2.4456,-1.9713"
       id="path2" />
    <path
       fill="#92d3f5"
       stroke="#92d3f5"
       stroke-miterlimit="10"
       stroke-width="2"
       d="m 48.531,11.3682 -2.4093,2.4093 -7.1732,8.52 4.6605,7.0331 C 54.7383,15.5659 49.6574,12.952 49.6574,12.952"
       id="path3" />
    <polygon
       fill="#8967aa"
       points="29.6463,63.7776 40.696,63.7776 36.6791,31.6198 33.6717,31.6198 "
       id="polygon3" />
    <polygon
       fill="#8967aa"
       points="32.168,28.1411 33.6717,31.6198 36.6791,31.6198 38.1829,28.1411 36.6791,24.6625 33.6717,24.6625 "
       id="polygon4" />
  </g>
  <g
     id="line"
     transform="translate(-9.1712,-6.0132155)">
    <path
       fill="none"
       stroke="#000000"
       stroke-linecap="round"
       stroke-linejoin="round"
       stroke-width="2"
       d="m 16.1319,13.7776 c -3.292,0 -5.9607,2.6687 -5.9607,5.9607 v 38.0785 c 0,3.292 2.6687,5.9607 5.9607,5.9607 h 38.0785 c 3.292,0 5.9607,-2.6687 5.9607,-5.9607 V 19.7383 c 0,-3.292 -2.6687,-5.9607 -5.9607,-5.9607"
       id="path4" />
    <path
       fill="none"
       stroke="#000000"
       stroke-linecap="round"
       stroke-linejoin="round"
       stroke-width="2"
       d="m 24.3844,13.8748 7.8234,8.4142 -4.9887,8.0302 C 16.0898,16.5545 19.9007,12.7775 19.9007,12.7775 c 0,0 14.3783,-13 30.6143,0 0,0 3.8109,3.7769 -7.3184,17.5417 l -4.9887,-8.0302 7.9138,-8.5115"
       id="path5" />
    <polygon
       fill="none"
       stroke="#000000"
       stroke-linecap="round"
       stroke-linejoin="round"
       stroke-width="2"
       points="29.6463,63.7776 40.696,63.7776 36.6791,31.6198 33.6717,31.6198 "
       id="polygon5" />
    <polygon
       fill="none"
       stroke="#000000"
       stroke-linecap="round"
       stroke-linejoin="round"
       stroke-width="2"
       points="32.168,28.1411 33.6717,31.6198 36.6791,31.6198 38.1829,28.1411 36.6791,24.6625 33.6717,24.6625 "
       id="polygon6" />
  </g>
</svg>
