<svg xmlns="http://www.w3.org/2000/svg" xmlns:svg="http://www.w3.org/2000/svg" id="emoji" width="53.496" height="36.661" version="1.1" viewBox="0 0 53.496 36.661"><g id="color" transform="translate(-9.7519999,-18.217199)"><path id="path1" fill="#a57939" stroke="none" stroke-linecap="round" stroke-linejoin="round" stroke-miterlimit="10" stroke-width="2" d="m 56.2271,53.8787 h -37.194 c -3.4707,0 -6.2227,-2.9267 -6.0092,-6.3909 L 14.282,27.0707 c 0.1957,-3.1753 2.8279,-5.6503 6.0092,-5.6503 h 34.6779 c 3.1813,0 5.8136,2.4751 6.0092,5.6503 l 1.2581,20.4171 c 0.2134,3.4642 -2.5386,6.3909 -6.0093,6.3909 z"/></g><g id="line" transform="translate(-9.7519999,-18.217199)"><path id="path2" fill="none" stroke="#000" stroke-linecap="round" stroke-linejoin="round" stroke-miterlimit="10" stroke-width="2" d="m 56.2271,53.8787 h -37.194 c -3.4707,0 -6.2227,-2.9267 -6.0092,-6.3909 L 14.282,27.0707 c 0.1957,-3.1753 2.8279,-5.6503 6.0092,-5.6503 h 34.6779 c 3.1813,0 5.8136,2.4751 6.0092,5.6503 l 1.2581,20.4171 c 0.2134,3.4642 -2.5386,6.3909 -6.0093,6.3909 z"/><path id="path3" fill="none" stroke="#000" stroke-linecap="round" stroke-linejoin="round" stroke-miterlimit="10" stroke-width="1.863" d="m 17.3646,30.0178 c 0.1698,-3.1753 1.4545,-5.6503 4.2158,-5.6503 h 32.0995 c 2.7613,0 4.046,2.4751 4.2158,5.6503"/><line id="line3" x1="13.292" x2="10.752" y1="21.757" y2="19.217" fill="none" stroke="#000" stroke-linecap="round" stroke-linejoin="round" stroke-miterlimit="10" stroke-width="2"/></g></svg>