<svg xmlns="http://www.w3.org/2000/svg" xmlns:svg="http://www.w3.org/2000/svg" id="emoji" width="34.899" height="49.284" version="1.1" viewBox="0 0 34.899 49.284"><g id="color" transform="translate(-18.792313,-11.4844)"><g id="g2"><path id="path1" fill="#d0cfce" d="M 32.0314,59.62 A 12.2758,12.2758 0 0 0 44.4647,47.504 v 0 A 12.2757,12.2757 0 1 0 32.0314,59.62"/><path id="path2" fill="#9b9b9a" d="m 32.2614,41.8219 a 5.524,5.524 0 1 0 5.4523,5.5949 5.5239,5.5239 0 0 0 -5.4523,-5.5949 z"/></g></g><g id="skin" transform="translate(-18.792313,-11.4844)"><path id="path3" fill="#6a462f" d="m 31.5246,22.6606 c -1.6558,-0.1986 -2.7483,0.05 -3.2461,0.9936 L 25.91,28.0483 a 6.7337,6.7337 0 0 0 -1.0211,4.1635 v 6.6548 c 0,1.5175 0.7256,2.1706 1.6838,2.1706 0.9948,0 1.6125,-0.9345 1.6125,-2.2679 v -6.95 a 0.5711,0.5711 0 0 1 0.059,-0.2528 l 1.0521,-2.1276 A 0.6413,0.6413 0 0 1 29.783,29.145 c 0.1663,0 0.2758,0.156 0.2758,0.35 v 1.87 a 0.57,0.57 0 0 0 0.57,0.57 H 31.96"/><path id="path4" fill="#6a462f" d="m 30.7994,31.483 c 0,-1.9677 -0.4633,-6.9142 -0.4633,-8.4783 0,-0.5448 0.5931,-0.0953 3.7775,-0.0953 1.7309,0 2.3181,0.4378 3.38,1.9324 a 5.4388,5.4388 0 0 1 1.4232,2.9516 2.73,2.73 0 0 1 -1.4758,2.2137 l -0.2775,2.3605 z"/><line id="line4" x1="31.389" x2="31.389" y1="30.698" y2="32.912" fill="#6a462f"/><circle id="circle4" cx="34.319" cy="16.028" r="3.543" fill="#6a462f"/><path id="path5" fill="#6a462f" d="m 46.2372,36.77 2.2864,17.174 c 0.2431,1.625 1.0247,2.3289 2.1657,2.3289"/><path id="path6" fill="#6a462f" d="m 50.6893,56.2733 c 1.2029,0 2.0025,-1.1774 2.0025,-2.9466 0,0 -0.5521,-10.1825 -0.7413,-12.6232 C 51.7613,38.2628 49.6163,36.77 46.2372,36.77"/></g><g id="line" transform="translate(-18.792313,-11.4844)"><g id="g15"><path id="path7" fill="none" stroke="#000" stroke-linecap="round" stroke-linejoin="round" stroke-width="2" d="m 50.6893,56.2733 c 1.2029,0 2.0025,-1.1774 2.0025,-2.9466 0,0 -0.5521,-10.1825 -0.7413,-12.6232 C 51.7613,38.2628 49.6163,36.77 46.2372,36.77"/><path id="path8" fill="none" stroke="#000" stroke-linecap="round" stroke-linejoin="round" stroke-width="2" d="m 48.5236,53.9444 c 0.2431,1.625 1.0247,2.3289 2.1657,2.3289"/><path id="path9" fill="none" stroke="#000" stroke-linecap="round" stroke-linejoin="round" stroke-width="2" d="m 26.6665,47.2741 a 5.5241,5.5241 0 1 0 5.595,-5.4522 v 0"/><path id="path10" fill="none" stroke="#000" stroke-linecap="round" stroke-linejoin="round" stroke-width="2" d="m 35.7363,23.1906 -4.2117,-0.53 c -1.6558,-0.1986 -2.778,0.05 -3.2461,0.9936 l -3.2843,7.4285 a 1.24,1.24 0 0 0 -0.1059,0.5016 v 7.2824 c 0,1.5175 0.7256,2.1706 1.6838,2.1706"/><path id="path11" fill="none" stroke="#000" stroke-linecap="round" stroke-linejoin="round" stroke-width="2" d="m 32.0927,22.7321 c -1.6558,-0.1986 -3.3032,0.15 -3.7713,1.0938 l -3.2843,7.4285 a 1.2415,1.2415 0 0 0 -0.1059,0.5016 v 7.2824 c 0,1.5175 0.7256,2.1706 1.6838,2.1706"/><path id="path12" fill="none" stroke="#000" stroke-linecap="round" stroke-linejoin="round" stroke-width="2" d="M 30.3619,31.9354 H 31.96 a 25.3413,25.3413 0 0 1 6.5707,1.4732"/><circle id="circle12" cx="34.319" cy="16.028" r="3.543" fill="none" stroke="#000" stroke-linecap="round" stroke-linejoin="round" stroke-width="2"/><path id="path13" fill="none" stroke="#000" stroke-linecap="round" stroke-linejoin="round" stroke-width="2" d="m 22.6036,39.7447 a 12.2418,12.2418 0 1 0 7.4671,-4.3666"/><path id="path14" fill="none" stroke="#000" stroke-linecap="round" stroke-linejoin="round" stroke-width="2" d="m 33.7712,22.9433 c 1.9651,0.2473 2.4765,0 3.6456,1.553 a 5.2977,5.2977 0 0 1 0.8515,3.1919 4.2853,4.2853 0 0 1 -0.8515,2.51 l 0.0172,2.2355"/><path id="path15" fill="none" stroke="#000" stroke-linecap="round" stroke-linejoin="round" stroke-width="2" d="m 30.1682,12.994 c 0,0 -0.5786,-0.27 -0.9252,0.0177 -0.4081,0.3371 -0.6856,1.5991 -1.168,2.145 a 3.2608,3.2608 0 0 1 -1.8128,1.0716"/></g></g></svg>