<svg xmlns="http://www.w3.org/2000/svg" xmlns:svg="http://www.w3.org/2000/svg" id="emoji" width="35.023" height="49.458" version="1.1" viewBox="0 0 35.023 49.458"><g id="color" transform="translate(-18.672479,-11.17655)"><path id="path1" fill="#d0cfce" d="M 31.9584,59.4823 A 12.319,12.319 0 0 0 44.4356,47.3234 v 0 a 12.3191,12.3191 0 1 0 -12.4772,12.159"/><path id="path2" fill="#9b9b9a" d="m 32.1892,41.6212 a 5.5435,5.5435 0 1 0 5.4715,5.6147 5.5435,5.5435 0 0 0 -5.4715,-5.6147 z"/></g><g id="skin" transform="translate(-18.672479,-11.17655)"><path id="path3" fill="#fcea2b" d="m 28.0981,31.5638 a 0.4877,0.4877 0 0 1 0.05,-0.216 l 1.0645,-2.1529 a 0.6442,0.6442 0 0 1 0.4884,-0.295 c 0.1669,0 0.2768,0.1566 0.2768,0.3513 v 1.9613 a 0.4873,0.4873 0 0 0 0.4873,0.4873 h 1.4215 a 14.0763,14.0763 0 0 1 6.5905,1.5785 0.4873,0.4873 0 0 0 0.7189,-0.4905 l -0.4619,-3.2823 -0.5986,-3.922 a 2.965,2.965 0 0 0 -2.46,-2.6594 L 31.45,22.3922 c -1.6617,-0.1993 -2.758,0.05 -3.2576,0.9971 l -2.3771,4.41 A 6.7577,6.7577 0 0 0 24.79,31.9772 v 6.6783 c 0,1.5228 0.7282,2.1783 1.69,2.1783 0.9983,0 1.6183,-0.9379 1.6183,-2.276 z"/><circle id="circle3" cx="34.254" cy="15.736" r="3.556" fill="#fcea2b"/><path id="path4" fill="#fcea2b" d="m 50.6822,56.1237 c 1.2071,0 2.01,-1.1816 2.01,-2.957 0,0 -0.5541,-10.2185 -0.744,-12.6678 -0.1899,-2.4493 -2.3424,-3.947 -5.7334,-3.947"/><path id="path5" fill="#fcea2b" d="m 46.2144,36.5519 2.2944,17.2346 c 0.244,1.6308 1.0284,2.3372 2.1734,2.3372"/></g><g id="line" transform="translate(-18.672479,-11.17655)"><path id="path6" fill="none" stroke="#000" stroke-linecap="round" stroke-linejoin="round" stroke-width="2.007" d="m 48.5088,53.7865 c 0.244,1.6308 1.0284,2.3372 2.1734,2.3372"/><g id="g10"><path id="path7" fill="none" stroke="#000" stroke-linecap="round" stroke-linejoin="round" stroke-width="2.007" d="m 50.6822,56.1237 c 1.2071,0 2.01,-1.1816 2.01,-2.957 0,0 -0.5541,-10.2185 -0.744,-12.6678 -0.1899,-2.4493 -2.3424,-3.947 -5.7334,-3.947"/><path id="path8" fill="none" stroke="#000" stroke-linecap="round" stroke-linejoin="round" stroke-width="2.007" d="m 26.5745,47.0927 a 5.5436,5.5436 0 1 0 5.6149,-5.4715 v 0"/><path id="path9" fill="none" stroke="#000" stroke-linecap="round" stroke-linejoin="round" stroke-width="2.007" d="m 30.283,31.7 h 1.6041 a 14.0754,14.0754 0 0 1 7.4462,2.0607 l -0.5987,-4.255 -0.5986,-3.922 a 2.965,2.965 0 0 0 -2.46,-2.6594 L 31.45,22.3922 c -1.6617,-0.1993 -2.7878,0.05 -3.2576,0.9971 l -3.2958,7.4548 a 1.2455,1.2455 0 0 0 -0.1064,0.5034 v 7.3081 c 0,1.5228 0.7282,2.1783 1.69,2.1783"/><circle id="circle9" cx="34.254" cy="15.736" r="3.556" fill="none" stroke="#000" stroke-linecap="round" stroke-linejoin="round" stroke-width="2.007"/><path id="path10" fill="none" stroke="#000" stroke-linecap="round" stroke-linejoin="round" stroke-width="2.007" d="m 22.4973,39.5367 a 12.2851,12.2851 0 1 0 7.4935,-4.382"/></g></g></svg>