<svg xmlns="http://www.w3.org/2000/svg" xmlns:svg="http://www.w3.org/2000/svg" id="emoji" width="52.13" height="48.7" version="1.1" viewBox="0 0 52.13 48.7"><g id="color" transform="translate(-10.0003,-12.3001)"><path id="path1" fill="#92d3f5" d="M 11.0003,61 V 44.9552 c 0,-3.2895 3.2918,-5.9566 6.5836,-5.9566 3.9146,3.2895 7.8292,3.2895 11.8327,0 h 13.1673 c 3.9146,3.2895 7.8292,3.2895 11.8327,0 3.2918,0 6.5836,2.6671 6.5836,5.9566 V 61"/><path id="path2" fill="#b1cc33" d="M 26.5004,61 V 58.4667 C 26.5004,56 29.0022,54 31.504,54 c 2.9751,2.4667 5.9502,2.4667 8.9929,0 2.5017,0 5.0035,2 5.0035,4.4667 V 61"/></g><g id="hair" transform="translate(-10.0003,-12.3001)"><path id="path3" fill="#a57939" d="m 37.1268,38.9986 h 5.4571 c 3.9146,3.2895 7.8292,3.2895 11.8327,0 1.2701,0 2.538,0.4002 3.619,1.0768 l 0.3439,-0.1638 1.7012,-2.0374 C 62.0367,35.6516 61.6581,31.97 60.5023,29.214 58.902,25.48 58.4575,25.48 58.1908,20.6791 58.1019,17.923 55.9682,15.6115 53.2121,15.3448 c 0,0 -1.6892,-2.0448 -5.3343,-2.0448 -4.2675,0 -8.1792,2.3115 -9.1572,5.9566 -1.0668,3.734 0.1779,5.2453 -0.889,8.0903 -0.9335,2.4005 -2.9313,3.7391 -2.9105,6.6245 0.0068,0.9417 0.7955,3.0455 1.4623,4.0457 z"/><path id="path4" fill="#a57939" d="m 13.9286,21.3903 c 0.5334,-7.7347 6.4011,-7.8236 9.335,-7.3791 0.2667,0.0889 1.0669,0 1.3336,0 5.3343,-0.7112 8.0014,5.3343 8.0014,8.0014 0,0.978 0.2255,3.3655 -1.1081,4.6991 0,0 -3.2483,-3.7211 -3.4261,-5.8549 0,0 -10.1352,3.8229 -10.8464,0.5334 0,0 -0.7112,2.6671 -1.3336,3.3784 0,0 -0.3288,2.0448 -0.3288,2.6671 2e-4,2e-4 -1.8937,-2.667 -1.627,-6.0454 z"/><path id="path5" fill="#a57939" d="m 36.0004,40.7038 c 3.864,1.3703 5.567,5.8271 5.6943,9.6307 1.4225,0.308 2.8826,-0.3898 3.8057,-1.461 -0.9845,-0.8337 -1.7269,-1.9167 -2.1494,-3.1356 0.7369,-5.7252 -2.03,-9.5793 -7.3506,-8.4862 -5.3206,-1.0931 -8.0875,2.761 -7.3506,8.4862 -0.4225,1.2189 -1.1649,2.3019 -2.1494,3.1356 0.923,1.0712 2.3833,1.769 3.8057,1.461 0.1273,-3.8034 1.8302,-8.2605 5.6943,-9.6307 z"/></g><g id="skin" transform="translate(-10.0003,-12.3001)"><path id="path6" fill="#fcea2b" d="m 41.1209,26.8135 c 0,5.3343 3.3784,9.335 7.3791,9.335 4.0007,0 7.3791,-4.0007 7.3791,-9.335 0,-3.3784 -1.3336,-5.3343 -4.0007,-8.0014 -2.6671,2.6671 -10.6686,6.0455 -10.6686,7.3791 z"/><path id="path7" fill="#fcea2b" d="m 28.0454,20.8569 c 0,0 -10.1351,3.8229 -10.8464,0.5334 0,0 -0.7112,2.6672 -1.3336,3.3784 0,0 -0.3185,1.9835 -0.3273,2.635 0.4585,5.148 3.8411,9.1996 7.9427,9.1996 4.2864,0 7.782,-4.426 7.9809,-9.9028 -0.1045,-0.1204 -3.2414,-3.7454 -3.4163,-5.8436 z"/><path id="path8" fill="#fcea2b" d="m 41.5038,48.517 c -0.0138,-0.0543 -0.0171,-0.1106 -0.0324,-0.1646 -0.5499,-3.1755 -2.2374,-6.5396 -5.471,-7.6487 -3.2336,1.1091 -4.9211,4.4731 -5.471,7.6487 -0.0153,0.054 -0.0186,0.1102 -0.0324,0.1646 0.8397,2.7543 2.9947,4.3117 5.5034,4.3118 2.5087,-1e-4 4.6638,-1.5575 5.5034,-4.3118 z"/></g><g id="line" transform="translate(-10.0003,-12.3001)"><path id="path9" fill="none" stroke="#000" stroke-miterlimit="10" stroke-width="2" d="m 31.5,25.5689 c 0,0.1839 0,0.3678 0,0.6437 0,5.7012 -3.5862,10.3908 -8,10.3908 -4.4138,0 -8,-4.6897 -8,-10.3908 0,-0.1839 0,-0.3678 0,-0.6437"/><path id="path10" fill="none" stroke="#000" stroke-linecap="round" stroke-linejoin="round" stroke-width="2" d="m 13.9286,21.3903 c 0.5334,-7.7347 6.4011,-7.8236 9.335,-7.3791 0.2667,0.0889 1.0669,0 1.3336,0 5.3343,-0.7112 8.0014,5.3343 8.0014,8.0014 0,0.978 0.2255,3.3655 -1.1081,4.6991 0,0 -3.2483,-3.7211 -3.4261,-5.8549 0,0 -10.1352,3.8229 -10.8464,0.5334 0,0 -0.7112,2.6671 -1.3336,3.3784 0,0 -0.3288,2.0448 -0.3288,2.6671 2e-4,2e-4 -1.8937,-2.667 -1.627,-6.0454 z"/><path id="path11" fill="none" stroke="#000" stroke-linecap="round" stroke-linejoin="round" stroke-width="2" d="m 35.8408,33.634 c -0.0323,-2.2288 1.1717,-4.1809 1.9908,-6.287 1.0669,-2.845 -0.1778,-4.3563 0.889,-8.0903 0.978,-3.6451 4.8898,-5.9566 9.1572,-5.9566 3.6451,0 5.3343,2.0448 5.3343,2.0448 2.7561,0.2667 4.8898,2.5782 4.9787,5.3343 0.2667,4.8009 0.7112,4.8009 2.3115,8.5349 1.0621,2.5328 0.7728,5.3659 -0.7991,7.5333"/><path id="path12" fill="none" stroke="#000" stroke-linejoin="round" stroke-miterlimit="10" stroke-width="2" d="m 41.1209,26.8135 c 0,5.3343 3.3784,9.335 7.3791,9.335 4.0007,0 7.3791,-4.0007 7.3791,-9.335 0,-3.3784 -1.3336,-5.3343 -4.0007,-8.0014 -2.6671,2.6671 -10.6686,6.0455 -10.6686,7.3791 z"/><path id="path13" fill="none" stroke="#000" stroke-linecap="round" stroke-linejoin="round" stroke-miterlimit="10" stroke-width="2" d="m 46.2565,41.1188 c 2.6973,0.8481 5.4076,0.1413 8.1601,-2.1202 3.2918,0 6.5836,2.6671 6.5836,5.9566 V 60"/><path id="path14" fill="none" stroke="#000" stroke-linecap="round" stroke-linejoin="round" stroke-miterlimit="10" stroke-width="2" d="M 11.0003,60 V 44.9552 c 0,-3.2895 3.2918,-5.9566 6.5836,-5.9566 2.6822,2.2539 5.3643,2.9634 8.0751,2.1288"/><path id="path15" d="m 47.25,26.5 c 0,0.7143 -0.5357,1.25 -1.25,1.25 -0.7143,0 -1.25,-0.5357 -1.25,-1.25 0,-0.7143 0.5357,-1.25 1.25,-1.25 0.7143,0 1.25,0.5357 1.25,1.25"/><path id="path16" d="m 52.25,26.5 c 0,0.7143 -0.5357,1.25 -1.25,1.25 -0.7143,0 -1.25,-0.5357 -1.25,-1.25 0,-0.7143 0.5357,-1.25 1.25,-1.25 0.7143,0 1.25,0.5357 1.25,1.25"/><path id="path17" fill="none" stroke="#000" stroke-linecap="round" stroke-linejoin="round" stroke-width="2" d="m 46.633,31.5332 c 1.1558,0.6223 2.5782,0.6223 3.734,0"/><path id="path18" d="m 22.25,26.5 c 0,0.7143 -0.5357,1.25 -1.25,1.25 -0.7143,0 -1.25,-0.5357 -1.25,-1.25 0,-0.7143 0.5357,-1.25 1.25,-1.25 0.7143,0 1.25,0.5357 1.25,1.25"/><path id="path19" d="m 27.25,26.5 c 0,0.7143 -0.5357,1.25 -1.25,1.25 -0.7143,0 -1.25,-0.5357 -1.25,-1.25 0,-0.7143 0.5357,-1.25 1.25,-1.25 0.7143,0 1.25,0.5357 1.25,1.25"/><path id="path20" fill="none" stroke="#000" stroke-linecap="round" stroke-linejoin="round" stroke-width="2" d="m 21.633,31.5332 c 1.1558,0.6223 2.5782,0.6223 3.734,0"/><path id="path21" fill="none" stroke="#000" stroke-linecap="round" stroke-linejoin="round" stroke-width="1.6" d="M 26.5003,60.2 V 58.4667 C 26.5003,56 29.0021,54 31.5039,54 c 2.9751,2.4667 5.9502,2.4667 8.9929,0 2.5017,0 5.0035,2 5.0035,4.4667 V 60.2"/><path id="path22" d="m 38.5982,45.7015 c 0.0333,0.4958 -0.3417,0.9247 -0.8377,0.958 -0.4959,0.0333 -0.9249,-0.3417 -0.9582,-0.8375 -0.0333,-0.4958 0.3417,-0.9247 0.8377,-0.958 0.0201,-0.0014 0.0402,-0.002 0.0604,-0.002 0.4796,-0.0155 0.8813,0.3601 0.8978,0.8395 z"/><path id="path23" fill="none" stroke="#000" stroke-linecap="round" stroke-linejoin="round" stroke-width="1.6" d="m 34.6642,49.1857 c 0.7749,0.6425 1.8974,0.6425 2.6723,0"/><path id="path24" fill="none" stroke="#000" stroke-miterlimit="10" stroke-width="1.6" d="M 41.5441,48.407 C 40.7302,51.2337 38.5439,52.8289 36,52.8289 h 6e-4 c -2.5439,0 -4.7302,-1.5952 -5.5441,-4.4219"/><path id="path25" d="m 34.3002,44.862 c 0.0201,0 0.0403,7e-4 0.0604,0.002 0.4959,0.0333 0.871,0.4622 0.8377,0.958 -0.0333,0.4958 -0.4623,0.8707 -0.9582,0.8375 -0.4959,-0.0333 -0.871,-0.4622 -0.8377,-0.958 0.0165,-0.4794 0.4182,-0.855 0.8978,-0.8395 z"/><path id="path26" fill="none" stroke="#000" stroke-linecap="round" stroke-linejoin="round" stroke-width="1.6" d="m 36.0003,40.7038 c 3.864,1.3703 5.567,5.8271 5.6943,9.6307 1.4225,0.308 2.8826,-0.3898 3.8057,-1.461 -0.9845,-0.8337 -1.7269,-1.9167 -2.1494,-3.1356 0.7369,-5.7252 -2.03,-9.5793 -7.3506,-8.4862 -5.3206,-1.0931 -8.0875,2.761 -7.3506,8.4862 -0.4225,1.2189 -1.1649,2.3019 -2.1494,3.1356 0.923,1.0712 2.3833,1.769 3.8057,1.461 0.1273,-3.8034 1.8302,-8.2605 5.6943,-9.6307 z"/></g></svg>