<svg xmlns="http://www.w3.org/2000/svg" xmlns:svg="http://www.w3.org/2000/svg" id="emoji" width="59.97" height="51.937" version="1.1" viewBox="0 0 59.97 51.937"><g id="color" transform="translate(-8.5957286,-7.1732174)"><path id="path1" fill="#b1cc33" d="m 54.8401,58.9748 c 0,0 2,-14.0205 -10,-14.0205 -3.1918,2.1279 -5.9264,3.5984 -9,3.5921 h 0.125 c -3.0736,0.0063 -5.8081,-1.4642 -9,-3.5921 -12,0 -10,14.0205 -10,14.0205"/><rect id="rect1" width="4.288" height="14.027" x="22.032" y="44.995" fill="#61b2e4"/><rect id="rect2" width="4.288" height="14.027" x="44.501" y="44.995" fill="#61b2e4"/><rect id="rect3" width="27.491" height="1.734" x="22.032" y="57.336" fill="#61b2e4"/><polyline id="polyline3" fill="#5c9e31" points="26.903 45.054 32.706 55.241 35.903 49.946"/><polyline id="polyline4" fill="#5c9e31" points="44.903 45.054 39.099 55.241 35.903 49.946"/><polyline id="polyline5" fill="#f4aa41" points="27.062 16.375 27.062 8.173 35.847 9.591 44.633 8.173 44.633 16.375"/><rect id="rect5" width="17.446" height="2.658" x="27.062" y="12.958" fill="#e27022"/><rect id="rect6" width="5.48" height="4.245" x="57.561" y="40.758" fill="#9b9b9a"/><polygon id="polygon6" fill="#a57939" points="58.301 57.954 58.301 58.975 62.301 58.975 62.301 57.954 62.301 54.368 62.301 45.044 58.301 45.044 58.301 54.368"/></g><g id="hair" transform="translate(-8.5957286,-7.1732174)"><path id="path6" fill="#a57939" d="m 9.7129,48.3177 c 6.3524,-0.3944 4.5577,-5.6759 4.5577,-5.6759 0,0 -5.5445,-0.6118 -4.5577,5.6759 z"/><path id="path7" fill="#a57939" d="M 56.2127,38.137 C 58.3179,35.6844 55.248,32.6168 54.0247,33.3915 56.1301,29.2821 54.2372,25.7435 52.186,22.55 49.6954,18.6723 46.1869,16.0405 46.1869,16.0405 H 35.9026 35.6672 26.383 c 0,0 -11.9999,8.7517 -7.3379,17.851 -1.2233,-0.7747 -2.3565,-0.3104 -3.1313,0.9129 -0.7747,1.2233 -0.7801,2.5579 0.4433,3.3326 -1.4183,0 -2.5681,1.1497 -2.5681,2.568 0,1.4183 1.1498,2.5681 2.5681,2.5681 1.4183,0 2.568,-1.1498 2.568,-2.5681 0.6816,1.2776 1.9884,1.2985 3.2872,0.6582 1.9517,-0.9622 1.0791,-3.5474 1.0791,-3.5474 3.6019,6.1061 9.1339,3.8279 9.1625,3.816 -4.5758,-1.8243 -7.8898,-7.181 -7.8898,-13.5056 0,-2.9437 0.718,-5.6779 1.947,-7.9438 l -0.0278,0.0891 0.6342,2.0569 h 8.4873 0.0625 0.2354 0.0625 8.4873 l 0.6342,-2.0569 -0.0278,-0.0891 c 1.229,2.2659 1.947,5.0001 1.947,7.9438 0,6.3246 -3.3141,11.6815 -7.8899,13.5056 0.0289,0.012 5.5607,2.2898 9.1625,-3.816 0,0 -0.8726,2.5852 1.0791,3.5474 1.2988,0.6403 1.9056,1.6194 2.5872,0.3418 0,1.4183 1.1497,2.5681 2.568,2.5681 3.5286,0 3.2681,-2.1498 3.2681,-3.5681 0.4921,-1.1482 0.4472,-2.5546 -1.5682,-2.568 z"/></g><g id="skin" transform="translate(-8.5957286,-7.1732174)"><path id="path8" fill="#fcea2b" d="m 35.9026,22.663 h 8.8477 c 0,0 -0.0171,-3.205 0.2418,-2.78 1.4504,2.3813 2.3116,5.3538 2.3116,8.5778 0,7.8276 -5.0765,14.1732 -11.3386,14.1732 -6.2621,0 -11.3386,-6.3456 -11.3386,-14.1732 0,-3.0831 0.7875,-5.9363 2.1249,-8.2623 0.1858,-0.3231 0.366,2.4645 0.366,2.4645 z"/></g><g id="line" transform="translate(-8.5957286,-7.1732174)"><path id="path9" d="m 41.9027,27.1 c 0,1.1045 -0.8965,2 -2,2 -1.1035,0 -2,-0.8955 -2,-2 0,-1.1035 0.8965,-2 2,-2 1.1035,0 2,0.8965 2,2"/><path id="path10" d="m 33.9027,27.1 c 0,1.1045 -0.8965,2 -2,2 -1.1035,0 -2,-0.8955 -2,-2 0,-1.1035 0.8965,-2 2,-2 1.1035,0 2,0.8965 2,2"/><path id="path11" d="m 35.9026,37.1024 c -1.1518,0 -2.3037,-0.2861 -3.4473,-0.8579 -0.4941,-0.247 -0.6943,-0.8476 -0.4472,-1.3418 0.2466,-0.4936 0.8462,-0.6943 1.3418,-0.4472 1.7177,0.8593 3.3877,0.8593 5.1054,0 0.4947,-0.2471 1.0948,-0.0464 1.3418,0.4472 0.2471,0.4942 0.0469,1.0948 -0.4472,1.3418 -1.1436,0.5718 -2.2954,0.8579 -3.4473,0.8579 z"/><polyline id="polyline11" fill="none" stroke="#000" stroke-linecap="round" stroke-linejoin="round" stroke-miterlimit="10" stroke-width="2" points="26.903 45.054 32.706 55.241 35.903 49.946"/><polyline id="polyline12" fill="none" stroke="#000" stroke-linecap="round" stroke-linejoin="round" stroke-miterlimit="10" stroke-width="2" points="44.903 45.054 39.099 55.241 35.903 49.946"/><path id="path12" fill="none" stroke="#000" stroke-linecap="round" stroke-linejoin="round" stroke-miterlimit="10" stroke-width="2" d="m 54.8401,57.9543 c 0,0 2,-13 -10,-13 -3.1918,2.1279 -5.9264,3.5984 -9,3.5921 h 0.125 c -3.0736,0.0063 -5.8081,-1.4642 -9,-3.5921 -12,0 -10,13 -10,13"/><line id="line12" x1="22.032" x2="22.032" y1="45.906" y2="58.11" fill="none" stroke="#000" stroke-linecap="round" stroke-linejoin="round" stroke-miterlimit="10" stroke-width="2"/><line id="line13" x1="49.523" x2="49.523" y1="45.906" y2="58.11" fill="none" stroke="#000" stroke-linecap="round" stroke-linejoin="round" stroke-miterlimit="10" stroke-width="2"/><polyline id="polyline13" fill="none" stroke="#000" stroke-linecap="round" stroke-linejoin="round" stroke-miterlimit="10" stroke-width="2" points="27.171 45.209 27.171 58.11 44.619 58.096 44.619 45.189"/><path id="path13" fill="none" stroke="#000" stroke-linecap="round" stroke-linejoin="round" stroke-miterlimit="10" stroke-width="2" d="m 16.3571,38.4716 c -1.2234,-0.7748 -1.218,-2.1093 -0.4433,-3.3326 0.7748,-1.2234 1.908,-1.6877 3.1313,-0.9129"/><path id="path14" fill="none" stroke="#000" stroke-linecap="round" stroke-linejoin="round" stroke-miterlimit="10" stroke-width="2" d="m 18.9251,41.0396 c 0,1.4183 -1.1497,2.5681 -2.568,2.5681 -1.4183,0 -2.5681,-1.1498 -2.5681,-2.5681 0,-1.4183 1.1498,-2.568 2.5681,-2.568"/><path id="path15" fill="none" stroke="#000" stroke-linecap="round" stroke-linejoin="round" stroke-miterlimit="10" stroke-width="2" d="m 9.7129,48.6523 c 6.3524,-0.3944 4.5577,-5.6759 4.5577,-5.6759 0,0 -5.5445,-0.6118 -4.5577,5.6759 z"/><path id="path16" fill="none" stroke="#000" stroke-linecap="round" stroke-linejoin="round" stroke-miterlimit="10" stroke-width="2" d="m 23.2914,38.1504 c 0,0 0.8726,2.5851 -1.0791,3.5473 -1.2988,0.6403 -2.6056,0.6195 -3.2872,-0.6581"/><polyline id="polyline16" fill="none" stroke="#000" stroke-linecap="round" stroke-linejoin="round" stroke-miterlimit="10" stroke-width="2" points="27.062 16.375 27.062 8.173 35.847 9.591 44.633 8.173 44.633 16.375"/><line id="line16" x1="27.062" x2="44.633" y1="12.87" y2="12.87" fill="none" stroke="#000" stroke-linecap="round" stroke-linejoin="round" stroke-miterlimit="10" stroke-width="2"/><path id="path17" fill="none" stroke="#000" stroke-linecap="round" stroke-linejoin="round" stroke-miterlimit="10" stroke-width="2" d="m 26.383,16.3751 c 0,0 -11.9999,8.7517 -7.3379,17.851"/><path id="path18" fill="none" stroke="#000" stroke-linecap="round" stroke-linejoin="round" stroke-miterlimit="10" stroke-width="2" d="m 52.6447,41.0396 c 0,0.8066 0.3718,1.5264 0.9535,1.9972"/><path id="path19" fill="none" stroke="#000" stroke-linecap="round" stroke-linejoin="round" stroke-miterlimit="10" stroke-width="2" d="m 48.2784,38.1504 c 0,0 -0.8726,2.5851 1.0791,3.5473 1.2988,0.6403 2.6056,0.6195 3.2872,-0.6581"/><path id="path20" fill="none" stroke="#000" stroke-linecap="round" stroke-linejoin="round" stroke-miterlimit="10" stroke-width="2" d="m 45.1868,16.3751 c 0,0 2.9602,2.159 5.3689,5.4472"/><path id="path21" fill="none" stroke="#000" stroke-linecap="round" stroke-linejoin="round" stroke-miterlimit="10" stroke-width="2" d="m 53.1295,25.1 c 0,0 -2.3767,15.4155 7.0845,15.6583 V 25.1"/><path id="path22" fill="none" stroke="#000" stroke-linecap="round" stroke-linejoin="round" stroke-miterlimit="10" stroke-width="2" d="m 67.2985,25.1 c 0,0 2.3766,15.4155 -7.0845,15.6583 V 25.1"/><rect id="rect22" width="5.48" height="4.245" x="57.561" y="40.758" fill="none" stroke="#000" stroke-linecap="round" stroke-linejoin="round" stroke-miterlimit="10" stroke-width="2"/><polyline id="polyline22" fill="none" stroke="#000" stroke-linecap="round" stroke-linejoin="round" stroke-miterlimit="10" stroke-width="2" points="62.301 57.954 62.301 45.044 58.301 45.044 58.301 57.954"/><line id="line22" x1="19.39" x2="51.958" y1="16.375" y2="16.375" fill="none" stroke="#000" stroke-linecap="round" stroke-linejoin="round" stroke-miterlimit="10" stroke-width="2"/><path id="path23" fill="none" stroke="#000" stroke-linecap="round" stroke-linejoin="round" stroke-miterlimit="10" stroke-width="2" d="m 26.511,20.517 c -1.229,2.2659 -1.947,5 -1.947,7.9438 0,7.8277 5.0765,14.1732 11.3386,14.1732 6.2621,0 11.3386,-6.3455 11.3386,-14.1732 0,-2.7693 -0.6354,-5.3532 -1.734,-7.5362 l -0.2361,-0.8856 -0.5208,2.624 h -8.7852 -0.0625 -8.7852 l -0.6342,-2.0571"/></g></svg>