<svg xmlns="http://www.w3.org/2000/svg" xmlns:svg="http://www.w3.org/2000/svg" id="emoji" width="43.743" height="54.647" version="1.1" viewBox="0 0 43.743 54.647"><g id="color" transform="translate(-10.313399,-7.096404)"><circle id="circle1" cx="42.613" cy="55.744" r="5" fill="#d0cfce"/><circle id="circle2" cx="16.313" cy="55.744" r="5" fill="#d0cfce"/><path id="path2" fill="#ea5a47" d="m 37.1128,42.0437 c -6.2,2.2 -6.9,9.6 -6.9,9.6 l -6.9021,0.0206 1.1021,4.88 8.6,0.1 v 0 a 9.9,9.9 0 0 1 19.8,0 25.5081,25.5081 0 0 0 -2.8,-15.6"/><path id="path3" fill="#a57939" d="m 46.9128,38.7436 a 4.5364,4.5364 0 0 1 -1,0.1 h -13.3 a 1.0021,1.0021 0 0 0 -1,1 v 1.2 a 1.0754,1.0754 0 0 0 1,1 h 16.4 a 1.0754,1.0754 0 0 0 1,-1 v -16.5 a 1.0021,1.0021 0 0 0 -1,-1 h -1.2 c -0.5,0 -0.4193,0.4316 -0.4193,1.0316 l -0.5807,13.0684 a 7.4715,7.4715 0 0 1 0.1,1.1 z"/></g><g id="skin" transform="translate(-10.313399,-7.096404)"><circle id="circle3" cx="44.077" cy="11.544" r="2.599" fill="#fadcbc"/><path id="path4" fill="#fadcbc" d="m 31.5635,34.2571 5.8365,-0.3724 0.0356,-0.0344 1.1977,-8.6156 0.6514,-4.3151 a 3.9744,3.9744 0 0 1 3.9784,-3.2913 v 0 a 3.784,3.784 0 0 1 3.581,3.6439 l -0.3563,15.3264 a 2.5073,2.5073 0 0 1 -2.5067,2.449 H 39.46 l -8.268,0.0259 -7.7533,10.4019 c -0.3652,0.5478 -1.2437,0.2714 -1.4519,-0.3532 a 5.0533,5.0533 0 0 1 0.4709,-2.1191 l 4.295,-9.5054 a 4.3658,4.3658 0 0 1 2.018,-2.3 v 0 a 6.7127,6.7127 0 0 1 2.7928,-0.9406 z"/></g><g id="line" transform="translate(-10.313399,-7.096404)"><circle id="circle4" cx="43.885" cy="11.447" r="2.599" fill="none" stroke="#000" stroke-miterlimit="10" stroke-width="2"/><path id="path5" fill="none" stroke="#000" stroke-linecap="round" stroke-linejoin="round" stroke-width="2" d="m 31.9809,34.0565 5.8364,-0.3725 0.0356,-0.0343 1.1978,-8.6156 0.6513,-4.3151 a 3.9744,3.9744 0 0 1 3.9785,-3.2913 v 0 a 3.7838,3.7838 0 0 1 3.5809,3.6439 l -0.3563,15.3263 a 2.5074,2.5074 0 0 1 -2.5067,2.4491 h -4.5215 l -8.2679,0.0258 -7.9741,10.5633 c -0.3652,0.5478 -1.283,0.6246 -1.4912,0 a 4.2438,4.2438 0 0 1 0.3532,-2.0406 L 27.17,37.2971 a 4.3658,4.3658 0 0 1 2.018,-2.3 v 0 a 6.7113,6.7113 0 0 1 2.7929,-0.9406 z"/><polyline id="polyline5" fill="none" stroke="#000" stroke-linecap="round" stroke-linejoin="round" stroke-width="2" points="43.957 21.04 39.766 28.497 30.342 26.797"/><path id="path6" fill="none" stroke="#000" stroke-linecap="round" stroke-linejoin="round" stroke-width="2" d="m 23.1128,51.6436 a 8.8794,8.8794 0 0 1 1.3,4.9 l 8.6,0.1 v 0 a 9.9,9.9 0 0 1 19.8,0 25.5081,25.5081 0 0 0 -2.8,-15.6"/><path id="path7" fill="none" stroke="#000" stroke-linecap="round" stroke-linejoin="round" stroke-width="2" d="m 37.1128,42.0437 c -6.2,2.2 -6.9,9.6 -6.9,9.6 h -3.2"/><path id="path8" fill="none" stroke="#000" stroke-linecap="round" stroke-linejoin="round" stroke-width="2" d="m 46.9128,38.7436 a 4.5364,4.5364 0 0 1 -1,0.1 h -13.3 a 1.0021,1.0021 0 0 0 -1,1 v 1.2 a 1.0754,1.0754 0 0 0 1,1 h 16.4 a 1.0754,1.0754 0 0 0 1,-1 v -16.5 a 1.0021,1.0021 0 0 0 -1,-1 h -1.2 c -0.5,0 -0.4193,0.4316 -0.4193,1.0316 l -0.5807,13.0684 a 7.4715,7.4715 0 0 1 0.1,1.1 z"/><circle id="circle8" cx="16.313" cy="55.743" r="5" fill="none" stroke="#000" stroke-miterlimit="10" stroke-width="2"/><circle id="circle9" cx="42.613" cy="55.744" r="5" fill="none" stroke="#000" stroke-miterlimit="10" stroke-width="2"/><path id="path9" fill="none" stroke="#000" stroke-linecap="round" stroke-linejoin="round" stroke-width="2" d="m 24.5128,56.6436 a 6.602,6.602 0 0 0 -0.1,-1.4 9.9842,9.9842 0 0 0 -2.8,-5.6 6.8641,6.8641 0 0 0 -6.5392,-2.1517"/><polyline id="polyline9" fill="none" stroke="#000" stroke-linecap="round" stroke-linejoin="round" stroke-width="2" points="18.656 46.985 26.056 29.485 29.056 29.485 31.356 29.585"/><line id="line9" x1="29.056" x2="29.056" y1="27.885" y2="29.485" fill="none" stroke="#000" stroke-linecap="round" stroke-linejoin="round" stroke-width="2"/><path id="path10" fill="none" stroke="#000" stroke-linecap="round" stroke-linejoin="round" stroke-width="2" d="m 46.844,8.213 c 0,0 0.5785,-0.2695 0.9252,0.0177 0.4081,0.3372 0.6855,1.5991 1.1679,2.145 a 3.2608,3.2608 0 0 0 1.8129,1.0717"/></g></svg>