<?xml version="1.0" encoding="UTF-8" standalone="no"?>
<svg
   id="emoji"
   viewBox="0 0 40.1362 51.306801"
   version="1.1"
   sodipodi:docname="1f46e-1f3fd-200d-2642-fe0f.svg"
   width="40.1362"
   height="51.306801"
   xmlns:inkscape="http://www.inkscape.org/namespaces/inkscape"
   xmlns:sodipodi="http://sodipodi.sourceforge.net/DTD/sodipodi-0.dtd"
   xmlns="http://www.w3.org/2000/svg"
   xmlns:svg="http://www.w3.org/2000/svg">
  <defs
     id="defs24" />
  <sodipodi:namedview
     id="namedview24"
     pagecolor="#ffffff"
     bordercolor="#000000"
     borderopacity="0.25"
     inkscape:showpageshadow="2"
     inkscape:pageopacity="0.0"
     inkscape:pagecheckerboard="0"
     inkscape:deskcolor="#d1d1d1" />
  <g
     id="color"
     transform="translate(-15.829801,-8.3682)">
    <path
       fill="#92d3f5"
       d="m 16.9208,59.496 c 0,0 -1.7645,-13.626 9.9992,-13.626 3.1288,2.0859 5.81,3.5274 8.8225,3.5213 H 35.62 c 3.013,0.0061 6.1836,-1.5334 9.3126,-3.6193 11.3366,-0.034 9.42,13.6258 9.6459,13.7239"
       id="path1" />
    <path
       fill="#61b2e4"
       d="m 45.0648,44.7917 c -3.1074,2.0716 -4.9749,3.2349 -8.9573,3.8119 12.8049,0.4033 12.8049,6.9712 13.552,10.8923 h 5.0121 c 0,0 2.1566,-14.7042 -9.6068,-14.7042 z"
       id="path2" />
    <g
       id="g4">
      <path
         fill="#3f3f3f"
         d="m 35.9028,54.214 1.839,3.1852 1.5755,1.9234 a 0.197,0.197 0 0 1 -0.1524,0.3218 h -6.5241 a 0.197,0.197 0 0 1 -0.1524,-0.3218 l 1.5755,-1.9234 z"
         id="path3" />
      <path
         fill="#3f3f3f"
         d="m 38.3879,51.885 v 0.01 c -0.11,1.56 -0.66,3.18 -2.49,3.18 -1.75,0 -2.33,-1.51 -2.47,-3.01 l -0.16,-0.15 2.57,-2.65 z"
         id="path4" />
    </g>
    <path
       fill="#92d3f5"
       d="m 50.3334,17.47 c 1.24,0.33 0.42,2.52 -0.4,3.51 l -2.24,2.72 -0.07,0.04 a 8.2711,8.2711 0 0 0 -1.91,-1.98 l -0.66,-0.54 a 7.6108,7.6108 0 0 0 1.31,-1.22 h -21.07 a 9.199,9.199 0 0 0 1.47,1.19 l -0.76,0.57 a 8.2206,8.2206 0 0 0 -1.75,1.76 l -0.13,-0.1 -2.02,-2.44 c -0.81,-0.99 -1.64,-3.18 -0.39,-3.51 5.74,-1.53 5.95,-7.86 14.31,-7.86 8.36,0 8.57,6.33 14.31,7.86 z m -14.28,0.33 c 2.12,0 2.46,-3.87 2.46,-3.87 a 4.16,4.16 0 0 0 -5,-0.06 c 0,0 0.42,3.93 2.54,3.93 z"
       id="path5" />
    <path
       fill="#61b2e4"
       d="m 42.8657,11.7838 c 0,0 0.9357,8.2184 -2.5907,8.2184 l 5.3484,0.3352 1.7376,2.978 c 0,0 3.6717,-1.9011 3.61,-5.2334 1e-4,0 -7.261,-4.2214 -8.1053,-6.2982 z"
       id="path6" />
    <path
       fill="#fcea2b"
       d="m 36.0953,17.5561 c -2.1207,0.0034 -2.536,-3.9337 -2.536,-3.9337 a 4.1733,4.1733 0 0 1 5,0.0577 c 0,0 -0.3433,3.8725 -2.464,3.876 z"
       id="path7" />
    <path
       fill="#3f3f3f"
       d="m 33.9634,23.57 a 16.5893,16.5893 0 0 1 -7.2,-2.38 9.199,9.199 0 0 1 -1.47,-1.19 h 21.07 a 7.6108,7.6108 0 0 1 -1.31,1.22 11.6275,11.6275 0 0 1 -3.71,1.79 19.1193,19.1193 0 0 1 -7.38,0.56 z"
       id="path8" />
  </g>
  <g
     id="hair"
     transform="translate(-15.829801,-8.3682)">
    <g
       id="hair-2">
      <path
         fill="#6a462f"
         d="m 33.8539,23.2588 c -7.05,1.08 -9.38,7.7 -9.38,7.7 a 6.256,6.256 0 0 1 -0.26,-7.9 10.4794,10.4794 0 0 1 2.17,-2.4 l 0.02,-0.03 a 16.1942,16.1942 0 0 0 7.45,2.63 z"
         id="path9" />
      <path
         fill="#6a462f"
         d="m 47.4439,23.4588 a 5.9831,5.9831 0 0 1 -0.43,7.5 c 0,0 -2.69,-7.96 -5.77,-8.22 a 11.2859,11.2859 0 0 0 3.82,-1.83 l 0.04,0.05 a 10.2793,10.2793 0 0 1 2.34,2.5 z"
         id="path10" />
    </g>
  </g>
  <g
     id="skin"
     transform="translate(-15.829801,-8.3682)">
    <path
       fill="#c19a65"
       d="m 36,23.3618 6.035,-0.5829 c 0,0 5.338,5.4276 5.23,6.948 0,7.8277 -5.0765,14.1733 -11.3386,14.1733 -6.2621,0 -11.3383,-6.3456 -11.3383,-14.1733 C 24.3928,25.6005 36,23.3618 36,23.3618 Z"
       id="path11" />
  </g>
  <g
     id="line"
     transform="translate(-15.829801,-8.3682)">
    <path
       d="m 49.361,55.9954 a 2,2 0 1 1 -2,-2 2.0007,2.0007 0 0 1 2,2"
       id="path12" />
    <path
       fill="none"
       stroke="#000000"
       stroke-linecap="round"
       stroke-linejoin="round"
       stroke-width="2"
       d="m 16.9579,58.675 c 0,0 -2,-13 10,-13 3.16,2.09 5.86,3.55 8.88,3.59 h 0.12 c 2.96,-0.04 5.63,-1.44 8.7,-3.47 l 0.18,-0.12 c 12,0 10,13 10,13"
       id="path13" />
    <polyline
       fill="none"
       stroke="#000000"
       stroke-linecap="round"
       stroke-linejoin="round"
       stroke-width="2"
       points="26.958 45.675 30.708 54.555 33.268 51.915 35.838 49.265"
       id="polyline13" />
    <line
       x1="38.387901"
       x2="35.837898"
       y1="51.884998"
       y2="49.264999"
       fill="none"
       stroke="#000000"
       stroke-linecap="round"
       stroke-linejoin="round"
       stroke-width="2"
       id="line13" />
    <polyline
       fill="none"
       stroke="#000000"
       stroke-linecap="round"
       stroke-linejoin="round"
       stroke-width="2"
       points="44.708 45.675 44.658 45.795 40.968 54.555 38.388 51.895"
       id="polyline14" />
    <path
       fill="none"
       stroke="#000000"
       stroke-linecap="round"
       stroke-linejoin="round"
       stroke-width="2"
       d="m 33.4279,52.065 c 0.14,1.5 0.72,3.01 2.47,3.01 1.83,0 2.38,-1.62 2.49,-3.18 v -0.01"
       id="path14" />
    <line
       x1="35.047901"
       x2="32.637901"
       y1="55.075001"
       y2="58.674999"
       fill="none"
       stroke="#000000"
       stroke-linecap="round"
       stroke-linejoin="round"
       stroke-width="2"
       id="line14" />
    <line
       x1="36.747898"
       x2="39.1679"
       y1="55.075001"
       y2="58.674999"
       fill="none"
       stroke="#000000"
       stroke-linecap="round"
       stroke-linejoin="round"
       stroke-width="2"
       id="line15" />
    <path
       d="m 26.9629,58.1289 h -5.8447 a 1,1 0 0 1 0,-2 h 5.8447 a 1,1 0 1 1 0,2 z"
       id="path15" />
    <path
       d="m 39.9734,25.815 a 2,2 0 1 1 -2,2 1.9994,1.9994 0 0 1 2,-2 z"
       id="path16" />
    <path
       d="m 31.9734,25.815 a 2,2 0 1 1 -2,2 1.9994,1.9994 0 0 1 2,-2 z"
       id="path17" />
    <path
       d="m 36.0224,37.8208 a 7.6524,7.6524 0 0 1 -3.4472,-0.8579 1.0000814,1.0000814 0 1 1 0.8945,-1.789 5.3779,5.3779 0 0 0 5.1055,0 1.0000814,1.0000814 0 1 1 0.8945,1.789 7.6528,7.6528 0 0 1 -3.4473,0.8579 z"
       id="path18" />
    <path
       d="m 36.0225,44.3525 c -6.4161,0 -11.6983,-5.916 -12.2862,-13.7607 l 1.9942,-0.15 c 0.5009,6.68 5.0215,11.9111 10.292,11.9111 5.2578,0 9.6728,-5.0136 10.2714,-11.663 0.045,-0.5 0.0674,-1.0083 0.0674,-1.51 h 2 c 0,0.561 -0.0254,1.1294 -0.0752,1.689 -0.6923,7.6868 -5.9638,13.4836 -12.2636,13.4836 z"
       id="path19" />
    <path
       d="m 36.0928,18.5562 c -2.9346,0 -3.4756,-4.3345 -3.5274,-4.8287 a 1.0009,1.0009 0 0 1 0.38,-0.894 5.1294,5.1294 0 0 1 6.3184,0.1362 1.002,1.002 0 0 1 0.292,0.7989 c -0.044,0.49 -0.51,4.7827 -3.458,4.7876 z m 0.001,-2 0.0019,1 -0.0019,-1 c 0.7539,-0.001 1.2119,-1.4581 1.3916,-2.42 a 3.4077,3.4077 0 0 0 -2.835,-0.02 c 0.2187,1.0708 0.7324,2.44 1.4424,2.44 z"
       id="path20" />
    <path
       d="m 36.2979,24.459 c -4.6973,0 -9.2071,-1.5288 -11.669,-3.9951 a 1,1 0 0 1 0.708,-1.7066 h 21.0684 a 1,1 0 0 1 0.7617,1.6475 c -2.0313,2.3921 -5.6787,3.8633 -10.0059,4.0371 q -0.4321,0.0168 -0.8632,0.0171 z m -7.8243,-3.7017 a 17.9909,17.9909 0 0 0 8.6075,1.6861 14.34,14.34 0 0 0 6.538,-1.6861 z"
       id="path21" />
    <path
       d="m 47.7324,24.46 a 1,1 0 0 1 -0.77,-1.6372 l 2.248,-2.7207 a 3.63,3.63 0 0 0 0.8086,-1.9424 12.2217,12.2217 0 0 1 -5.64,-3.84 c -1.9815,-2.0317 -3.8535,-3.9511 -8.3125,-3.9511 -4.459,0 -6.332,1.9194 -8.3135,3.9511 a 12.2242,12.2242 0 0 1 -5.64,3.84 3.645,3.645 0 0 0 0.8086,1.9424 l 2.0117,2.434 a 1,1 0 0 1 -1.541,1.2745 L 21.3818,21.376 C 20.71,20.563 19.8027,18.7817 20.2256,17.4609 a 1.7748,1.7748 0 0 1 1.2715,-1.207 c 2.1259,-0.564 3.4365,-1.9077 4.8252,-3.3306 2.082,-2.1352 4.4423,-4.5551 9.7451,-4.5551 5.3028,0 7.6621,2.42 9.7441,4.5547 1.3887,1.4233 2.6992,2.767 4.8252,3.3315 a 1.7719,1.7719 0 0 1 1.2715,1.2075 c 0.4238,1.3218 -0.4844,3.1026 -1.1562,3.9146 l -2.2481,2.72 A 0.9973,0.9973 0 0 1 47.7324,24.46 Z"
       id="path22" />
    <g
       id="g24">
      <path
         d="m 24.55,32.0781 a 1,1 0 0 1 -0.7842,-0.38 7.286,7.286 0 0 1 -1.7773,-5.6948 8.6259,8.6259 0 0 1 3.4062,-5.2495 1,1 0 0 1 1.1368,1.6455 v 0 a 6.6752,6.6752 0 0 0 -2.5674,3.9151 4.6381,4.6381 0 0 0 0.458,2.7026 12.7737,12.7737 0 0 1 9.4287,-6.5454 0.9881,0.9881 0 0 1 1.13,0.8511 0.9993,0.9993 0 0 1 -0.8506,1.1293 11.1952,11.1952 0 0 0 -8.6348,6.9512 0.9985,0.9985 0 0 1 -0.7773,0.66 0.9827,0.9827 0 0 1 -0.1681,0.0149 z"
         id="path23" />
      <path
         d="m 47.0908,32.0781 a 1.0009,1.0009 0 0 1 -0.9472,-0.6787 c -1.004,-2.96 -3.26,-7.4038 -4.9131,-7.5415 a 1.0000503,1.0000503 0 0 1 0.166,-1.9932 c 2.6748,0.2227 4.8086,4.3306 5.9082,6.9629 a 4.5658,4.5658 0 0 0 0.3721,-2.5131 6.6757,6.6757 0 0 0 -2.5674,-3.9151 1,1 0 0 1 1.1367,-1.6455 8.6259,8.6259 0 0 1 3.4062,5.2495 7.2857,7.2857 0 0 1 -1.7773,5.6948 1,1 0 0 1 -0.7842,0.3799 z"
         id="path24" />
    </g>
  </g>
</svg>
