<?xml version="1.0" encoding="UTF-8" standalone="no"?>
<svg
   id="emoji"
   viewBox="0 0 51.342899 53.617054"
   version="1.1"
   sodipodi:docname="1f468-1f3fb-200d-1f4bc.svg"
   width="51.342899"
   height="53.617054"
   xmlns:inkscape="http://www.inkscape.org/namespaces/inkscape"
   xmlns:sodipodi="http://sodipodi.sourceforge.net/DTD/sodipodi-0.dtd"
   xmlns="http://www.w3.org/2000/svg"
   xmlns:svg="http://www.w3.org/2000/svg">
  <defs
     id="defs17" />
  <sodipodi:namedview
     id="namedview17"
     pagecolor="#ffffff"
     bordercolor="#000000"
     borderopacity="0.25"
     inkscape:showpageshadow="2"
     inkscape:pageopacity="0.0"
     inkscape:pagecheckerboard="0"
     inkscape:deskcolor="#d1d1d1" />
  <g
     id="color"
     transform="translate(-15.696901,-8.3448466)">
    <path
       fill="#9b9b9a"
       d="m 17.298,58.8535 c 0,0 -2,-13.8 10,-13.8 3.1918,2.1279 5.9264,3.5984 9,3.5921 h -0.125 c 3.0736,0.0063 5.3081,-2.6642 8.5,-4.7921 13.3136,0 10.9,15 10.9,15"
       id="path1" />
    <polyline
       fill="#d0cfce"
       points="36.6129,54.2067 39.0281,58.7515 45.4,44.1365 51.8574,53.9202 40.6996,58.0515"
       id="polyline1" />
    <path
       fill="#ffffff"
       d="m 38.507,57.7426 c -0.5976,1.0349 -4.8914,1.0349 -5.489,0 l -1.842,-2.4101 -3.3864,-8.7387 7.9729,2.7 7.573,-2.7 -3.2865,8.7387 z"
       id="path2" />
    <path
       fill="#d0cfce"
       d="M 65.729,58.4861 H 50.2443 V 38.6837 h 15.2709 c 0.1181,0 0.2138,0.0957 0.2138,0.2138 z"
       id="path3" />
    <path
       fill="#ffffff"
       d="M 62.6179,60.9619 H 48.0103 V 42.0102 h 10.753 c 2.1288,0 3.8546,1.7257 3.8546,3.8545 z"
       id="path4" />
    <path
       fill="#3f3f3f"
       d="m 33.4552,48.5348 c 0,0 -1.2063,6.0215 2.3073,6.0215 3.5136,0 2.3073,-6.0215 2.3073,-6.0215"
       id="path5" />
    <path
       fill="#3f3f3f"
       d="m 35.0163,54.8799 c 0.3249,-0.5627 1.137,-0.5627 1.4619,0 l 1.1645,2.0171 1.8956,1.9831 h -3.7911 -3.791 l 1.8955,-1.9831 z"
       id="path6" />
    <polyline
       fill="#d0cfce"
       points="34.9121,54.5563 32.4969,57.8011 26.825,44.8861 22.8676,53.3698 32.3254,57.8011"
       id="polyline6" />
  </g>
  <g
     id="hair"
     transform="translate(-15.696901,-8.3448466)">
    <path
       fill="#a57939"
       d="m 27.3738,18.7874 c 0,0 10.1357,7.9589 10.5113,2.439 0,0 5.3353,3.8061 9.0176,3.8064 6.4331,5e-4 -0.131,-12.4794 -11.1402,-15.1193 -3.1441,-0.7528 -9.8929,-1.7551 -9.8929,4.4592 0,0 -7.6176,4.2314 -1.3233,12.5495 l 0.0911,-0.3328 c 0.3131,-3.0795 2.7364,-7.802 2.7364,-7.802 z"
       id="path7" />
  </g>
  <g
     id="skin"
     transform="translate(-15.696901,-8.3448466)">
    <path
       fill="#fadcbc"
       d="m 27.3296,19.0923 c -1.7336,2.4893 -2.7833,5.7423 -2.7833,9.3018 0,7.8277 5.0765,14.1732 11.3386,14.1732 6.2622,0 11.3386,-6.3455 11.3386,-14.1732 0,-1.1581 -0.1111,-2.2838 -0.3208,-3.3613 -2.9944,-0.3097 -6.0012,-1.6571 -9.0176,-3.8064 -0.1582,3.7561 -4.7799,1.5781 -10.5555,-2.1341 z"
       id="path8" />
  </g>
  <g
     id="skin-shadow"
     transform="translate(-15.696901,-8.3448466)" />
  <g
     id="line"
     transform="translate(-15.696901,-8.3448466)">
    <path
       fill="none"
       stroke="#000000"
       stroke-linecap="round"
       stroke-linejoin="round"
       stroke-miterlimit="10"
       stroke-width="2"
       d="m 24.6238,26.7277 c -0.0512,0.5466 -0.0775,1.1026 -0.0775,1.6664 0,7.8277 5.0765,14.1732 11.3386,14.1732 6.2622,0 11.3386,-6.3455 11.3386,-14.1732 0,-1.1581 -0.1111,-2.2838 -0.3208,-3.3613"
       id="path9" />
    <path
       d="m 41.8851,27.0333 c 0,1.1045 -0.8965,2 -2,2 -1.1035,0 -2,-0.8955 -2,-2 0,-1.1035 0.8965,-2 2,-2 1.1035,0 2,0.8965 2,2"
       id="path10" />
    <path
       d="m 33.8851,27.0333 c 0,1.1045 -0.8965,2 -2,2 -1.1035,0 -2,-0.8955 -2,-2 0,-1.1035 0.8965,-2 2,-2 1.1035,0 2,0.8965 2,2"
       id="path11" />
    <path
       d="m 35.8849,37.0357 c -1.1518,0 -2.3037,-0.2861 -3.4472,-0.8579 -0.4942,-0.2471 -0.6944,-0.8477 -0.4473,-1.3418 0.2466,-0.4936 0.8462,-0.6943 1.3418,-0.4473 1.7178,0.8594 3.3877,0.8594 5.1055,0 0.4946,-0.247 1.0947,-0.0463 1.3418,0.4473 0.247,0.4941 0.0468,1.0947 -0.4473,1.3418 -1.1436,0.5718 -2.2954,0.8579 -3.4473,0.8579 z"
       id="path12" />
    <polygon
       fill="none"
       stroke="#000000"
       stroke-linecap="round"
       stroke-linejoin="round"
       stroke-miterlimit="10"
       stroke-width="2"
       points="48.0103,42.3261 59.8355,42.3261 59.8355,44.4385 62.6179,44.4385 62.6179,60.9619 48.0103,60.9619 "
       id="polygon12" />
    <polyline
       fill="none"
       stroke="#000000"
       stroke-linecap="round"
       stroke-linejoin="round"
       stroke-miterlimit="10"
       stroke-width="2"
       points="51.2144,38.8631 66.0398,38.8631 66.0398,57.499"
       id="polyline12" />
    <line
       x1="59.835499"
       x2="62.617901"
       y1="42.326099"
       y2="44.438499"
       fill="none"
       stroke="#000000"
       stroke-linecap="round"
       stroke-linejoin="round"
       stroke-miterlimit="10"
       stroke-width="2"
       id="line12" />
    <line
       x1="50.9548"
       x2="59.387501"
       y1="48.534801"
       y2="48.534801"
       fill="none"
       stroke="#000000"
       stroke-linecap="round"
       stroke-linejoin="round"
       stroke-miterlimit="10"
       stroke-width="2"
       id="line13" />
    <line
       x1="50.9548"
       x2="59.387501"
       y1="52.631199"
       y2="52.631199"
       fill="none"
       stroke="#000000"
       stroke-linecap="round"
       stroke-linejoin="round"
       stroke-miterlimit="10"
       stroke-width="2"
       id="line14" />
    <line
       x1="50.9548"
       x2="59.387501"
       y1="56.2155"
       y2="56.2155"
       fill="none"
       stroke="#000000"
       stroke-linecap="round"
       stroke-linejoin="round"
       stroke-miterlimit="10"
       stroke-width="2"
       id="line15" />
    <path
       fill="none"
       stroke="#000000"
       stroke-linecap="round"
       stroke-linejoin="round"
       stroke-miterlimit="10"
       stroke-width="2"
       d="m 33.4552,48.5348 c 0,0 -1.2063,6.0215 2.3073,6.0215 3.5136,0 2.3073,-6.0215 2.3073,-6.0215"
       id="path15" />
    <line
       x1="44.700001"
       x2="38.960098"
       y1="55.6292"
       y2="57.807499"
       fill="none"
       stroke="#000000"
       stroke-linecap="round"
       stroke-linejoin="round"
       stroke-miterlimit="10"
       stroke-width="2"
       id="line16" />
    <path
       fill="none"
       stroke="#000000"
       stroke-linecap="round"
       stroke-linejoin="round"
       stroke-miterlimit="10"
       stroke-width="2"
       d="m 27.3738,18.7874 c 0,0 10.1357,7.9589 10.5113,2.439 0,0 5.3353,3.8061 9.0176,3.8064 6.4331,5e-4 -0.131,-12.4794 -11.1402,-15.1193 -3.1441,-0.7528 -9.8929,-1.7551 -9.8929,4.4592 0,0 -7.6176,4.2314 -1.3233,12.5495 l 0.0911,-0.3328 c 0.3131,-3.0795 2.7364,-7.802 2.7364,-7.802 z"
       id="path16" />
    <path
       fill="none"
       stroke="#000000"
       stroke-linecap="round"
       stroke-linejoin="round"
       stroke-miterlimit="10"
       stroke-width="2"
       d="m 16.825,57.8861 c 0,0 -2,-13 10,-13 3.1919,2.1279 5.9264,3.5984 9,3.5921 H 35.7 c 3.0736,0.0063 5.8081,-1.4642 9,-3.5921"
       id="path17" />
    <polygon
       fill="none"
       stroke="#000000"
       stroke-linecap="round"
       stroke-linejoin="round"
       stroke-miterlimit="10"
       stroke-width="2"
       points="26.825,44.8861 22.8676,53.3698 32.3254,57.8011 34.9121,54.5563 32.4969,57.8011 "
       id="polygon17" />
    <polyline
       fill="none"
       stroke="#000000"
       stroke-linecap="round"
       stroke-linejoin="round"
       stroke-miterlimit="10"
       stroke-width="2"
       points="44.7,44.8861 39.0281,57.8011 36.6129,54.5563"
       id="polyline17" />
  </g>
</svg>
