<?xml version="1.0" encoding="UTF-8" standalone="no"?>
<svg
   id="emoji"
   viewBox="0 0 37.3885 58.9062"
   version="1.1"
   sodipodi:docname="1f468-1f3fe-200d-1f9af.svg"
   width="37.3885"
   height="58.9062"
   xmlns:inkscape="http://www.inkscape.org/namespaces/inkscape"
   xmlns:sodipodi="http://sodipodi.sourceforge.net/DTD/sodipodi-0.dtd"
   xmlns="http://www.w3.org/2000/svg"
   xmlns:svg="http://www.w3.org/2000/svg">
  <defs
     id="defs6" />
  <sodipodi:namedview
     id="namedview6"
     pagecolor="#ffffff"
     bordercolor="#000000"
     borderopacity="0.25"
     inkscape:showpageshadow="2"
     inkscape:pageopacity="0.0"
     inkscape:pagecheckerboard="0"
     inkscape:deskcolor="#d1d1d1" />
  <g
     id="color"
     transform="translate(-16.639801,-6.1266003)">
    <g
       id="skin">
      <circle
         cx="41.226398"
         cy="10.1266"
         r="3"
         fill="#a57939"
         id="circle1" />
      <path
         fill="#a57939"
         d="m 49.05,19.1578 -3.458,-1.333 -9.709,-0.2085 -3.416,4.458 -0.542,4.2915 -1.667,1.167 -6.666,-6.1665 c 0,0 -1.459,1.729 -0.459,3.104 1,1.375 3.7881,5.3242 5.916,5.7285 a 4.1625,4.1625 0 0 0 4.375,-1.416 13.9159,13.9159 0 0 0 1.834,-5.75 l -1.7,41 h 3.3 l 3.4,-25 h 2 l 3.4,25 h 3.3 l -1.7,-41 c 0,0 2.694,16.6912 3.682,18.1162 a 1.3558,1.3558 0 0 0 2.3546,0.2476 z"
         id="path1" />
    </g>
  </g>
  <g
     id="line"
     transform="translate(-16.639801,-6.1266003)">
    <g
       id="g3">
      <g
         id="line-2">
        <circle
           cx="41.226398"
           cy="10.1266"
           r="3"
           fill="none"
           stroke="#000000"
           stroke-miterlimit="10"
           stroke-width="2"
           id="circle2" />
        <path
           fill="none"
           stroke="#000000"
           stroke-linecap="round"
           stroke-linejoin="round"
           stroke-width="2"
           d="m 46.2576,23.0328 2.5684,39.0039 a 1.7151,1.7151 0 0 1 -1.5176,1.9961 2.1831,2.1831 0 0 1 -1.92,-1.9814 L 42.5271,41.0142 c -0.1484,-1.09 -0.72,-1.9814 -1.27,-1.9814 -0.55,0 -1.1211,0.8916 -1.2695,1.9814 l -2.8609,21.0372 a 2.1831,2.1831 0 0 1 -1.92,1.9814 1.7151,1.7151 0 0 1 -1.5176,-1.9961 l 2.5684,-39.0039"
           id="path2" />
        <path
           fill="none"
           stroke="#000000"
           stroke-linecap="round"
           stroke-linejoin="round"
           stroke-width="2"
           d="m 24.2576,22.0328 3.707,4.2373 c 1.8116,2.0693 3.6631,1.543 4.1153,-1.1694 l 0.3554,-2.1358 c 0.4522,-2.7129 2.6221,-5.1572 4.8223,-5.4321 a 38.9051,38.9051 0 0 1 8,0 c 2.2,0.2749 4.37,2.7192 4.8223,5.4321 l 0.3554,2.1358 c 0.4522,2.7124 2.3794,13.6435 2.593,15.7239"
           id="path3" />
      </g>
      <line
         x1="24.199699"
         x2="19.734699"
         y1="22.101"
         y2="61.672501"
         fill="none"
         stroke="#000000"
         stroke-linecap="round"
         stroke-miterlimit="10"
         stroke-width="2"
         id="line3" />
    </g>
  </g>
  <g
     id="color-foreground"
     transform="translate(-16.639801,-6.1266003)">
    <g
       id="g6">
      <line
         x1="22.361601"
         x2="18.812599"
         y1="21.6975"
         y2="52.530499"
         fill="none"
         stroke="#d0cfce"
         stroke-linecap="round"
         stroke-miterlimit="10"
         stroke-width="2"
         id="line4" />
      <line
         x1="18.812599"
         x2="17.737101"
         y1="52.530499"
         y2="62.092098"
         fill="none"
         stroke="#d22f27"
         stroke-linecap="round"
         stroke-miterlimit="10"
         stroke-width="2"
         id="line5" />
      <circle
         cx="17.737101"
         cy="62.171501"
         r="1.0973001"
         fill="#d0cfce"
         id="circle5" />
      <line
         x1="22.361601"
         x2="21.5721"
         y1="21.6975"
         y2="28.556101"
         fill="none"
         stroke="#000000"
         stroke-linecap="round"
         stroke-miterlimit="10"
         stroke-width="2"
         id="line6" />
    </g>
  </g>
</svg>
