<svg xmlns="http://www.w3.org/2000/svg" xmlns:svg="http://www.w3.org/2000/svg" id="emoji" width="41.939" height="57.801" version="1.1" viewBox="0 0 41.939 57.801"><g id="color" transform="translate(-15.668776,-4.285)"><polyline id="polyline1" fill="#9b9b9a" points="44.193 13.086 41.193 5.086 43.193 5.086 47.193 11.086"/><polyline id="polyline2" fill="#9b9b9a" points="50.193 13.086 52.193 10.086 54.193 12.086 50.193 8.086 47.193 11.086"/><polyline id="polyline3" fill="#9b9b9a" points="23.143 13.085 20.143 5.085 22.143 5.085 26.143 11.085"/><polyline id="polyline4" fill="#9b9b9a" points="29.143 13.085 31.143 10.085 33.143 12.085 29.143 8.085 26.143 11.085"/><polyline id="polyline5" points="33.143 12.085 32.143 8.085 29.143 8.085"/></g><g id="skin" transform="translate(-15.668776,-4.285)"><path id="path5" fill="#fcea2b" d="m 51.2773,27.0864 -0.4606,6.248 1.4606,4.752 2,12 2.7,11 h -3.3 l -3.4,-11 -3,-11 h -1 l -1.4,22 h -3.3 l -0.3,-23 1.3356,-5.5752 -0.3356,-5.4248 c 0,0 0,-2 -1,0 l 1,2 v 3 l -3,-3 -1.1673,-2.3027 1.1677,-2.6973 3,-2 1,-1 h 7 l 2,1 1.693,2.0459 1.0525,3.3408 -2.7455,3.6133 h -1"/><circle id="circle5" cx="47.162" cy="14.18" r="3" fill="#fcea2b"/><polyline id="polyline6" points="54.193 12.086 53.193 8.086 50.193 8.086"/><path id="path6" fill="#fcea2b" d="m 30.2275,27.0849 -0.4606,6.2481 1.4606,4.7519 2,12 2.7,11 h -3.3 l -3.4,-11 -3,-11 h -1 l -1.4,22 h -3.3 l -0.3,-23 1.3356,-5.5749 -0.3356,-5.4249 c 0,0 0,-2 -1,0 l 1,2 v 3 l -3,-3 -1.1675,-2.3028 1.1677,-2.6974 3,-2 1,-1 h 7 l 2,1 1.693,2.046 1.0525,3.3408 -2.7455,3.6132 h -1"/><circle id="circle6" cx="26.112" cy="14.179" r="3" fill="#fcea2b"/></g><g id="line" transform="translate(-15.668776,-4.285)"><circle id="circle7" cx="47.285" cy="14.18" r="3" fill="none" stroke="#000" stroke-miterlimit="10" stroke-width="2"/><polyline id="polyline7" fill="none" stroke="#000" stroke-linecap="round" stroke-linejoin="round" stroke-width="1.6" points="44.317 13.086 41.317 5.086 43.317 5.086 47.317 11.086"/><polyline id="polyline8" fill="none" stroke="#000" stroke-linecap="round" stroke-linejoin="round" stroke-width="1.6" points="50.317 13.086 52.317 10.086 54.317 12.086 50.317 8.086 47.317 11.086"/><polyline id="polyline9" fill="none" stroke="#000" stroke-linecap="round" stroke-linejoin="round" stroke-width="1.6" points="54.317 12.086 53.317 8.086 50.317 8.086"/><path id="path9" fill="none" stroke="#000" stroke-linecap="round" stroke-linejoin="round" stroke-width="2" d="m 51.7688,26.7837 -0.1269,4.95 a 16.9817,16.9817 0 0 0 0.0674,3.3141 l 0.2148,1.0782 c 0.2158,1.0781 0.541,2.8486 0.7217,3.9336 l 1.3418,8.0546 c 0.1807,1.085 0.5439,2.8467 0.8057,3.9151 L 56.54,59.144 c 0.2618,1.0684 -0.2656,1.9424 -1.1728,1.9424 A 2.6671,2.6671 0 0 1 53.126,59.1753 L 50.9072,51.9975 C 50.582,50.9458 50.0801,49.2182 49.79,48.1567 l -1.9472,-7.1406 c -0.29,-1.0615 -0.751,-1.93 -1.0264,-1.93 -0.2754,0 -0.5576,0.8984 -0.627,1.9961 L 45.0433,59.09 a 2.0027,2.0027 0 0 1 -1.7774,1.9961 1.8859,1.8859 0 0 1 -1.6758,-2 l -0.247,-19 a 27.0409,27.0409 0 0 1 0.3027,-3.9727 l 0.1281,-2.0785 a 35.1212,35.1212 0 0 0 -0.0308,-4.36 L 41.7408,27.086"/><path id="path10" fill="none" stroke="#000" stroke-linecap="round" stroke-linejoin="round" stroke-width="2" d="m 41.3551,32.8374 -3.1406,-4.1133 a 2.7371,2.7371 0 0 1 0.0629,-3.2334 l 2.309,-2.8086 a 5.1176,5.1176 0 0 1 3.49,-1.5957 h 6.532 a 3.9232,3.9232 0 0 1 3.1516,1.7891 l 1.3184,2.4218 a 3.7088,3.7088 0 0 1 -0.1713,3.49 l -2.8928,4.2988"/><circle id="circle10" cx="26.236" cy="14.179" r="3" fill="none" stroke="#000" stroke-miterlimit="10" stroke-width="2"/><polyline id="polyline10" fill="none" stroke="#000" stroke-linecap="round" stroke-linejoin="round" stroke-width="1.6" points="23.267 13.085 20.267 5.085 22.267 5.085 26.267 11.085"/><polyline id="polyline11" fill="none" stroke="#000" stroke-linecap="round" stroke-linejoin="round" stroke-width="1.6" points="29.267 13.085 31.267 10.085 33.267 12.085 29.267 8.085 26.267 11.085"/><polyline id="polyline12" fill="none" stroke="#000" stroke-linecap="round" stroke-linejoin="round" stroke-width="1.6" points="33.267 12.085 32.267 8.085 29.267 8.085"/><path id="path12" fill="none" stroke="#000" stroke-linecap="round" stroke-linejoin="round" stroke-width="2" d="m 30.719,26.7823 -0.1269,4.95 a 16.98,16.98 0 0 0 0.0674,3.314 l 0.2148,1.0782 c 0.2158,1.0781 0.541,2.8486 0.7217,3.9337 l 1.3418,8.0546 c 0.1807,1.085 0.5439,2.8466 0.8057,3.9151 l 1.747,7.1152 c 0.2618,1.0683 -0.2656,1.9423 -1.1728,1.9423 A 2.6669,2.6669 0 0 1 32.0765,59.1743 L 29.8577,51.996 c -0.3252,-1.0517 -0.8271,-2.7793 -1.1172,-3.8408 l -1.9472,-7.1406 c -0.29,-1.0615 -0.751,-1.93 -1.0264,-1.93 -0.2754,0 -0.5576,0.8984 -0.627,1.9962 l -1.1464,18.008 a 2.0027,2.0027 0 0 1 -1.7774,1.9961 1.8858,1.8858 0 0 1 -1.6758,-2 l -0.247,-19 a 27.042,27.042 0 0 1 0.3027,-3.9727 l 0.1281,-2.0785 a 35.1212,35.1212 0 0 0 -0.0308,-4.36 L 20.691,27.0848"/><path id="path13" fill="none" stroke="#000" stroke-linecap="round" stroke-linejoin="round" stroke-width="2" d="m 20.3053,32.8359 -3.1406,-4.1133 a 2.7371,2.7371 0 0 1 0.0628,-3.2334 l 2.3091,-2.8086 a 5.1176,5.1176 0 0 1 3.49,-1.5957 h 6.532 A 3.9233,3.9233 0 0 1 32.71,22.874 l 1.3184,2.4219 a 3.7088,3.7088 0 0 1 -0.1713,3.49 l -2.8928,4.2987"/></g></svg>