<?xml version="1.0" encoding="UTF-8" standalone="no"?>
<svg
   id="emoji"
   viewBox="0 0 53.954571 57.720848"
   version="1.1"
   sodipodi:docname="1f463.svg"
   width="53.954571"
   height="57.720848"
   xmlns:inkscape="http://www.inkscape.org/namespaces/inkscape"
   xmlns:sodipodi="http://sodipodi.sourceforge.net/DTD/sodipodi-0.dtd"
   xmlns="http://www.w3.org/2000/svg"
   xmlns:svg="http://www.w3.org/2000/svg">
  <defs
     id="defs15" />
  <sodipodi:namedview
     id="namedview15"
     pagecolor="#ffffff"
     bordercolor="#000000"
     borderopacity="0.25"
     inkscape:showpageshadow="2"
     inkscape:pageopacity="0.0"
     inkscape:pagecheckerboard="0"
     inkscape:deskcolor="#d1d1d1" />
  <g
     id="color"
     transform="translate(-8.1554283,-7.1906249)">
    <path
       fill="#3f3f3f"
       d="m 20.02,47.72 c -0.9807,-6.527 -8.532,-22.96 -8.477,-24.99 0.1586,-5.812 11.99,-9.897 12.91,-6.264 0.2885,1.133 3.103,4.632 1.434,8.267 -3.016,6.569 2.844,15.95 5.016,20.55 1.22,2.848 -1.218,5.988 -4.224,6.661 -3.006,0.6728 -5.888,-0.7659 -6.661,-4.224 z"
       id="path1" />
    <circle
       cx="9.9759998"
       cy="18.17"
       r="1"
       fill="#3f3f3f"
       id="circle1" />
    <circle
       cx="3.721"
       cy="18.65"
       transform="rotate(-27.29)"
       fill="#3f3f3f"
       id="ellipse1"
       r="1" />
    <circle
       cx="6.4590001"
       cy="17.969999"
       r="1"
       transform="rotate(-30)"
       fill="#3f3f3f"
       id="circle2" />
    <circle
       cx="18.1"
       cy="11.11"
       r="1"
       fill="#3f3f3f"
       id="circle3" />
    <path
       fill="#3f3f3f"
       d="m 50.18,59.72 c 0.9807,-6.527 8.894,-22.51 8.839,-24.53 -0.1586,-5.812 -12.35,-10.35 -13.27,-6.717 -0.3047,1.196 -2.137,4.667 -1.547,8.938 1.208,8.747 -2.076,15.97 -4.178,20.42 -1.22,2.848 0.494,5.445 3.5,6.118 3.006,0.673 5.888,-0.7658 6.661,-4.224 z"
       id="path3" />
    <circle
       cx="60.619999"
       cy="29.620001"
       r="1"
       fill="#3f3f3f"
       id="circle4" />
    <circle
       cx="2.941"
       cy="64.309998"
       transform="rotate(-62.71)"
       fill="#3f3f3f"
       id="ellipse4"
       r="1" />
    <circle
       cx="6.335"
       cy="60.32"
       transform="rotate(-60)"
       fill="#3f3f3f"
       id="ellipse5"
       r="1" />
    <circle
       cx="52.009998"
       cy="23.42"
       r="1"
       fill="#3f3f3f"
       id="circle5" />
    <ellipse
       cx="52.240002"
       cy="12.96"
       rx="1.561"
       ry="2.5139999"
       transform="matrix(0.982,0.1891,-0.2732,0.9619,0,0)"
       fill="#3f3f3f"
       id="ellipse6" />
    <ellipse
       cx="20.5"
       cy="15.52"
       rx="1.561"
       ry="2.5139999"
       transform="matrix(0.9675,-0.2528,0.1682,0.9857,0,0)"
       fill="#3f3f3f"
       id="ellipse7" />
  </g>
  <g
     id="hair"
     transform="translate(-8.1554283,-7.1906249)" />
  <g
     id="skin"
     transform="translate(-8.1554283,-7.1906249)" />
  <g
     id="skin-shadow"
     transform="translate(-8.1554283,-7.1906249)" />
  <g
     id="line"
     transform="translate(-8.1554283,-7.1906249)">
    <path
       fill="none"
       stroke="#000000"
       stroke-linecap="round"
       stroke-linejoin="round"
       stroke-miterlimit="10"
       stroke-width="2"
       d="M 19.92,47.53 C 18.9393,41.003 11.569,24.3 11.625,22.27 c 0.1586,-5.812 10.49,-9.177 12.76,-6.249 0.7559,0.7541 1.984,4.935 1.528,9.273 -1.062,10.12 1.628,15.72 3.893,19.89 1.22,2.848 -0.2223,5.898 -3.228,6.571 -3.006,0.6728 -5.888,-0.7659 -6.661,-4.224 z"
       id="path7" />
    <circle
       cx="9.2349997"
       cy="18.07"
       r="1.04"
       transform="rotate(-1.534)"
       fill="none"
       stroke="#000000"
       stroke-linecap="round"
       stroke-linejoin="round"
       stroke-miterlimit="10"
       stroke-width="1.04"
       id="circle7" />
    <circle
       cx="3.2850001"
       cy="18.74"
       r="1.04"
       transform="rotate(-28.82)"
       fill="none"
       stroke="#000000"
       stroke-linecap="round"
       stroke-linejoin="round"
       stroke-miterlimit="10"
       stroke-width="1.04"
       id="circle8" />
    <circle
       cx="5.9780002"
       cy="18.35"
       r="1.04"
       transform="rotate(-31.53)"
       fill="none"
       stroke="#000000"
       stroke-linecap="round"
       stroke-linejoin="round"
       stroke-miterlimit="10"
       stroke-width="1.04"
       id="circle9" />
    <circle
       cx="17.66"
       cy="11.5"
       r="1.04"
       transform="rotate(-1.534)"
       fill="none"
       stroke="#000000"
       stroke-linecap="round"
       stroke-linejoin="round"
       stroke-miterlimit="10"
       stroke-width="1.04"
       id="circle10" />
    <path
       fill="none"
       stroke="#000000"
       stroke-linecap="round"
       stroke-linejoin="round"
       stroke-miterlimit="10"
       stroke-width="2"
       d="m 50.09,59.53 c 0.9807,-6.527 8.713,-22.96 8.658,-24.99 -0.1586,-5.812 -10.79,-9.193 -12.81,-6.392 -1.142,0.8976 -1.935,5.439 -1.647,9.219 0.6607,8.697 -1.694,14.58 -3.913,19.27 -1.22,2.848 0.04114,6.441 3.047,7.114 3.006,0.673 5.888,-0.7658 6.661,-4.224 z"
       id="path10" />
    <circle
       cx="60.549999"
       cy="29.940001"
       r="1.04"
       fill="none"
       stroke="#000000"
       stroke-linecap="round"
       stroke-linejoin="round"
       stroke-miterlimit="10"
       stroke-width="1.04"
       id="circle11" />
    <circle
       cx="2.783"
       cy="64.349998"
       r="1.04"
       transform="rotate(-62.71)"
       fill="none"
       stroke="#000000"
       stroke-linecap="round"
       stroke-linejoin="round"
       stroke-miterlimit="10"
       stroke-width="1.04"
       id="circle12" />
    <circle
       cx="6.263"
       cy="60.5"
       r="1.04"
       transform="rotate(-60)"
       fill="none"
       stroke="#000000"
       stroke-linecap="round"
       stroke-linejoin="round"
       stroke-miterlimit="10"
       stroke-width="1.04"
       id="circle13" />
    <circle
       cx="52.259998"
       cy="23.389999"
       r="1.04"
       fill="none"
       stroke="#000000"
       stroke-linecap="round"
       stroke-linejoin="round"
       stroke-miterlimit="10"
       stroke-width="1.04"
       id="circle14" />
    <ellipse
       cx="49.939999"
       cy="18.91"
       rx="1.893"
       ry="2.332"
       transform="matrix(0.9973,0.07399,-0.1025,0.9947,0,0)"
       fill="none"
       stroke="#000000"
       stroke-linecap="round"
       stroke-linejoin="round"
       stroke-miterlimit="10"
       stroke-width="1.155"
       id="ellipse14" />
    <ellipse
       cx="20.93"
       cy="12.69"
       rx="1.888"
       ry="2.3740001"
       transform="matrix(0.9932,-0.1168,0.1312,0.9914,0,0)"
       fill="none"
       stroke="#000000"
       stroke-linecap="round"
       stroke-linejoin="round"
       stroke-miterlimit="10"
       stroke-width="1.164"
       id="ellipse15" />
  </g>
</svg>
