<?xml version="1.0" encoding="UTF-8" standalone="no"?>
<svg
   id="emoji"
   viewBox="0 0 40.131199 47.285801"
   version="1.1"
   sodipodi:docname="1f469-1f3fc-200d-1f680.svg"
   width="40.131199"
   height="47.285801"
   xmlns:inkscape="http://www.inkscape.org/namespaces/inkscape"
   xmlns:sodipodi="http://sodipodi.sourceforge.net/DTD/sodipodi-0.dtd"
   xmlns="http://www.w3.org/2000/svg"
   xmlns:svg="http://www.w3.org/2000/svg">
  <defs
     id="defs25" />
  <sodipodi:namedview
     id="namedview25"
     pagecolor="#ffffff"
     bordercolor="#000000"
     borderopacity="0.25"
     inkscape:showpageshadow="2"
     inkscape:pageopacity="0.0"
     inkscape:pagecheckerboard="0"
     inkscape:deskcolor="#d1d1d1" />
  <g
     id="color"
     transform="translate(-15.742101,-11.5319)">
    <path
       fill="#9b9b9a"
       d="m 50.9032,27.5319 c 0,1.2253 -0.147,2.4163 -0.4242,3.5563 -1.5968,6.5677 -7.5169,11.4437 -14.5758,11.4437 -7.0588,0 -12.9788,-4.8758 -14.5758,-11.4432 -0.2773,-1.1402 -0.4242,-2.3314 -0.4242,-3.5568 0,-8.2843 6.7157,-15 15,-15 8.2842,0 15,6.7157 15,15 z"
       id="path1" />
    <path
       fill="#d0cfce"
       d="m 31.9322,12.938 c 0,0 -6.5189,2.2396 -9.1843,7.3842 -1.1601,2.1133 -3.006,3.5059 -1.4205,10.7665 1.5855,7.2606 10.5603,11.0475 10.5603,11.0475 5.4844,-1.2858 9.8096,-5.5808 11.1387,-11.048 0.2773,-1.14 0.4241,-2.3311 0.4241,-3.5563 0,-7.0858 -4.9129,-13.024 -11.5183,-14.5939 z"
       id="path2" />
    <path
       fill="#d0cfce"
       d="m 16.7643,58.7757 c 0,0 -2,-13.7267 10,-13.7267 3.1919,2.1279 5.9264,3.5984 9,3.5921 h -0.125 c 3.0736,0.0063 5.5082,-2.1642 8.7,-4.2921 15.5705,-10e-5 10.7,14.4267 10.7,14.4267"
       id="path3" />
    <rect
       x="28.1418"
       y="52.9034"
       width="15.5608"
       height="5.8237"
       fill="#9b9b9a"
       id="rect3" />
    <path
       fill="#9b9b9a"
       d="m 44.4374,45.6761 c -3.1699,2.1133 -4.875,3 -8.9375,3.5886 13.0625,0.4114 13.0625,5.5163 13.8246,9.5163 4.2379,0 5.1129,0 5.1129,0 0,0 2,-13.1049 -10,-13.1049 z"
       id="path4" />
  </g>
  <g
     id="hair"
     transform="translate(-15.742101,-11.5319)">
    <path
       fill="#fcea2b"
       d="m 33.8355,22.5789 c 0,0 -3.6548,5.3911 -8.4626,8.0149 l -0.6458,0.4712 c -0.151,-0.9227 -0.2303,-1.878 -0.2303,-2.8564 0,-0.4172 0.0144,-0.8302 0.0426,-1.2383 l -0.6209,0.999 c 1.1596,-2.161 3.1669,-3.8624 5.6726,-4.5972"
       id="path5" />
    <path
       fill="#fcea2b"
       d="m 42.0239,23.3721 c 2.0532,0.6021 3.7718,1.8532 4.9635,3.4744 0.2628,0.3575 0.4999,0.733 0.7094,1.1235 l -0.5597,-0.9119 c 0.0244,0.3794 0.0368,0.7631 0.0368,1.1505 0,2.1136 -0.3701,4.1192 -1.0338,5.921 l 0.2613,-0.6973 c -3.14,1.57 -2.8941,-9.1587 -2.8941,-9.1587"
       id="path6" />
  </g>
  <g
     id="skin"
     transform="translate(-15.742101,-11.5319)">
    <path
       fill="#debb90"
       d="m 46.3562,33.4501 c 0.0154,-0.0072 0.0297,-0.0099 0.0452,-0.0178 L 46.14,34.1296 c 0.0813,-0.2205 0.1439,-0.4531 0.2162,-0.6795 -3.0911,1.4412 -2.8489,-9.1765 -2.8489,-9.1765 L 42.0239,23.372 33.8355,22.5788 c 0,0 -3.6548,5.3911 -8.4626,8.0149 l -0.6458,0.4712 c -0.151,-0.9227 -0.2303,-1.878 -0.2303,-2.8564 0,-0.2066 0.0142,-0.4087 0.0211,-0.6132 -0.0451,0.4537 -0.0798,0.9156 -0.0798,1.2893 0,7.8276 5.0767,14.1732 11.3389,14.1732 5.9453,0 10.813,-5.723 11.2911,-13.0005 -0.1238,1.1849 -0.369,2.3188 -0.7119,3.3928 z"
       id="path7" />
  </g>
  <g
     id="skin-shadow"
     transform="translate(-15.742101,-11.5319)" />
  <g
     id="line"
     transform="translate(-15.742101,-11.5319)">
    <path
       d="m 34.4875,58.7188 c 0.0426,-0.1623 0.0653,-0.3326 0.0653,-0.5082 0,-1.1035 -0.8965,-2 -2,-2 h 0.0068 c -1.1035,0 -2,0.8965 -2,2 0,0.1756 0.0227,0.3459 0.0653,0.5082"
       id="path8" />
    <path
       d="m 41.1895,58.7188 c 0.0426,-0.1623 0.0653,-0.3326 0.0653,-0.5082 0,-1.1035 -0.8965,-2 -2,-2 h 0.0068 c -1.1035,0 -2,0.8965 -2,2 0,0.1756 0.0227,0.3459 0.0653,0.5082"
       id="path9" />
    <polyline
       fill="none"
       stroke="#000000"
       stroke-linecap="round"
       stroke-linejoin="round"
       stroke-miterlimit="10"
       stroke-width="2"
       points="43.5227,57.796 43.5227,52.988 28.2617,52.988 28.2617,57.796"
       id="polyline9" />
    <path
       d="m 41.9302,26.9649 c 0,1.1045 -0.8965,2 -2,2 -1.1035,0 -2,-0.8955 -2,-2 0,-1.1035 0.8965,-2 2,-2 1.1035,0 2,0.8965 2,2"
       id="path10" />
    <path
       d="m 33.9302,26.9649 c 0,1.1045 -0.8965,2 -2,2 -1.1035,0 -2,-0.8955 -2,-2 0,-1.1035 0.8965,-2 2,-2 1.1035,0 2,0.8965 2,2"
       id="path11" />
    <path
       d="m 35.9301,36.9674 c -1.1519,0 -2.3037,-0.2862 -3.4473,-0.858 -0.4941,-0.247 -0.6943,-0.8476 -0.4472,-1.3417 0.2465,-0.4937 0.8462,-0.6944 1.3418,-0.4473 1.7177,0.8594 3.3877,0.8594 5.1054,0 0.4947,-0.2471 1.0948,-0.0464 1.3418,0.4473 0.2471,0.4941 0.0469,1.0947 -0.4472,1.3417 -1.1436,0.5718 -2.2954,0.858 -3.4473,0.858 z"
       id="path12" />
    <path
       fill="none"
       stroke="#000000"
       stroke-miterlimit="10"
       stroke-width="2"
       d="m 46.2349,34.2468 c 0.6636,-1.8018 1.0338,-3.8074 1.0338,-5.9211 0,-0.3873 -0.0125,-0.771 -0.0368,-1.1505"
       id="path13" />
    <path
       fill="none"
       stroke="#000000"
       stroke-miterlimit="10"
       stroke-width="2"
       d="m 24.6342,27.0875 c -0.0283,0.4081 -0.0427,0.821 -0.0427,1.2382 0,7.8277 5.0765,14.1733 11.3386,14.1733"
       id="path14" />
    <path
       fill="none"
       stroke="#000000"
       stroke-linecap="round"
       stroke-linejoin="round"
       stroke-miterlimit="10"
       stroke-width="2"
       d="m 16.8702,57.8177 c 0,0 -2,-13 10,-13 3.1918,2.1279 5.9264,3.5984 9,3.5922 h -0.125 c 3.0736,0.0062 5.8081,-1.4643 9,-3.5922 12,0 10,13 10,13"
       id="path15" />
    <path
       fill="none"
       stroke="#000000"
       stroke-linecap="round"
       stroke-linejoin="round"
       stroke-miterlimit="10"
       stroke-width="2"
       d="m 50.9022,27.5319 c 0,1.2253 -0.1469,2.4163 -0.4241,3.5563 -1.5969,6.5677 -7.5169,11.4437 -14.5759,11.4437 -7.0588,0 -12.9787,-4.8758 -14.5758,-11.4432 -0.2772,-1.1402 -0.4242,-2.3314 -0.4242,-3.5568 0,-8.2843 6.7157,-15 15,-15 8.2843,0 15,6.7157 15,15 z"
       id="path16" />
    <path
       fill="none"
       stroke="#000000"
       stroke-linecap="round"
       stroke-linejoin="round"
       stroke-miterlimit="10"
       stroke-width="2"
       d="m 47.7916,28.0871 c -0.2095,-0.3904 -0.4467,-0.7659 -0.7094,-1.1234 -1.1918,-1.6212 -2.9103,-2.8724 -4.9635,-3.4745 -2.1203,-0.6217 -4.1294,-0.903 -6.2164,-0.8438 -2.0871,-0.0592 -4.0963,0.2221 -6.2165,0.8438 -2.5057,0.7348 -4.513,2.4363 -5.6725,4.5973"
       id="path17" />
    <line
       x1="53.864201"
       x2="53.864201"
       y1="25.466801"
       y2="30.2376"
       fill="none"
       stroke="#000000"
       stroke-linecap="round"
       stroke-linejoin="round"
       stroke-miterlimit="10"
       stroke-width="2"
       id="line17" />
    <line
       x1="17.7512"
       x2="17.7512"
       y1="25.466801"
       y2="30.2376"
       fill="none"
       stroke="#000000"
       stroke-linecap="round"
       stroke-linejoin="round"
       stroke-miterlimit="10"
       stroke-width="2"
       id="line18" />
    <path
       fill="none"
       stroke="#000000"
       stroke-linecap="round"
       stroke-miterlimit="10"
       stroke-width="2"
       d="m 46.148,34.2148 c -2.5512,5.1336 -9.5918,5.1389 -9.5918,5.1389"
       id="path18" />
    <polyline
       fill="none"
       stroke="#000000"
       stroke-linecap="round"
       stroke-linejoin="round"
       stroke-miterlimit="10"
       stroke-width="2"
       points="43.8305,57.796 43.8305,52.988 28.5695,52.988 28.5695,57.796"
       id="polyline18" />
    <path
       fill="none"
       stroke="#000000"
       stroke-linecap="round"
       stroke-miterlimit="10"
       stroke-width="2"
       d="m 43.6021,24.3907 c 0,0 -0.2459,10.7288 2.8941,9.1588"
       id="path19" />
    <path
       fill="none"
       stroke="#000000"
       stroke-linecap="round"
       stroke-miterlimit="10"
       stroke-width="2"
       d="m 33.9302,22.6961 c 0,0 -3.6548,5.391 -8.4626,8.0149"
       id="path20" />
    <path
       fill="none"
       stroke="#000000"
       stroke-miterlimit="10"
       stroke-width="2"
       d="m 46.2349,34.2468 c 0.6636,-1.8018 1.0338,-3.8074 1.0338,-5.9211 0,-0.3873 -0.0125,-0.771 -0.0368,-1.1505"
       id="path21" />
    <path
       fill="none"
       stroke="#000000"
       stroke-miterlimit="10"
       stroke-width="2"
       d="m 24.6342,27.0875 c -0.0283,0.4081 -0.0427,0.821 -0.0427,1.2382 0,7.8277 5.0765,14.1733 11.3386,14.1733"
       id="path22" />
    <path
       fill="none"
       stroke="#000000"
       stroke-linecap="round"
       stroke-linejoin="round"
       stroke-miterlimit="10"
       stroke-width="2"
       d="m 47.7916,28.0871 c -0.2095,-0.3904 -0.4467,-0.7659 -0.7094,-1.1234 -1.1918,-1.6212 -2.9103,-2.8724 -4.9635,-3.4745 -2.1203,-0.6217 -4.1294,-0.903 -6.2164,-0.8438 -2.0871,-0.0592 -4.0963,0.2221 -6.2165,0.8438 -2.5057,0.7348 -4.513,2.4363 -5.6725,4.5973"
       id="path23" />
    <path
       fill="none"
       stroke="#000000"
       stroke-linecap="round"
       stroke-miterlimit="10"
       stroke-width="2"
       d="m 43.6021,24.3907 c 0,0 -0.2459,10.7288 2.8941,9.1588"
       id="path24" />
    <path
       fill="none"
       stroke="#000000"
       stroke-linecap="round"
       stroke-miterlimit="10"
       stroke-width="2"
       d="m 33.9302,22.6961 c 0,0 -3.6548,5.391 -8.4626,8.0149"
       id="path25" />
  </g>
</svg>
