<?xml version="1.0" encoding="UTF-8" standalone="no"?>
<svg
   id="emoji"
   viewBox="0 0 58.429344 44.106857"
   version="1.1"
   sodipodi:docname="1f469-1f3fd-200d-2764-fe0f-200d-1f48b-200d-1f468-1f3fb.svg"
   width="58.429344"
   height="44.106857"
   xmlns:inkscape="http://www.inkscape.org/namespaces/inkscape"
   xmlns:sodipodi="http://sodipodi.sourceforge.net/DTD/sodipodi-0.dtd"
   xmlns="http://www.w3.org/2000/svg"
   xmlns:svg="http://www.w3.org/2000/svg">
  <defs
     id="defs16" />
  <sodipodi:namedview
     id="namedview16"
     pagecolor="#ffffff"
     bordercolor="#000000"
     borderopacity="0.25"
     inkscape:showpageshadow="2"
     inkscape:pageopacity="0.0"
     inkscape:pagecheckerboard="0"
     inkscape:deskcolor="#d1d1d1" />
  <g
     id="color"
     transform="translate(-8.4755259,-10.993143)">
    <path
       fill="#ea5a47"
       d="m 36,14.7 c 1.1,-2.4 4,-3.4 6.3,-2.2 2.3,1.2 3.3,4 2.2,6.4 -0.1,0.3 -0.3,0.5 -0.4,0.7 L 36,30 27.9,19.6 c -0.2,-0.2 -0.3,-0.5 -0.4,-0.7 -1.1,-2.4 -0.1,-5.2 2.2,-6.4 2.3,-1.2 5.2,-0.2 6.3,2.2 z"
       id="path1" />
  </g>
  <g
     id="hair"
     transform="translate(-8.4755259,-10.993143)">
    <g
       id="hair-a">
      <path
         fill="#a57939"
         d="m 9.5,35.8 c 0.6,-8.8 7.3,-8.9 10.6,-8.3 0.3,0.1 1.2,0 1.5,0 6.1,-0.8 9.1,6.1 9.1,9.1 0,1.1 0,3.8 -1.5,5.3 0,0 -3.5,-4.2 -3.6,-6.6 0,0 -11.5,4.4 -12.3,0.6 0,0 -0.8,3 -1.5,3.8 0,0 0,2.3 0,3 0,-0.1 -2.6,-3.2 -2.3,-6.9 z"
         id="path2" />
    </g>
    <g
       id="hair-b">
      <path
         fill="#a57939"
         d="m 38.7,55 c -3,-4.5 -0.6,-8.8 0.8,-12.3 1.2,-3.2 -0.2,-4.9 1,-9.1 1.1,-4.2 5.5,-6.8 10.4,-6.8 4.1,0 6.1,2.3 6.1,2.3 3.2,0.3 5.6,2.9 5.6,6.1 0.3,5.4 0.8,5.4 2.6,9.7 1.3,3.1 0.8,7.6 -1.4,10.2"
         id="path3" />
    </g>
  </g>
  <g
     id="skin"
     transform="translate(-8.4755259,-10.993143)">
    <g
       id="skin-a">
      <path
         fill="#c19a65"
         d="m 25.6,35.3 c 0,0 -11.5,4.4 -12.3,0.6 0,0 -0.7353,2.7525 -1.4128,3.6849 -0.0514,0.4968 -0.0872,1 -0.0872,1.5151 0,6.2408 3.8951,11.3 8.7,11.3 4.6063,0 8.3665,-4.6531 8.6703,-10.5361 C 28.8699,41.4988 25.6953,37.5867 25.6,35.3 Z"
         id="path4" />
    </g>
    <g
       id="skin-b">
      <path
         fill="#fadcbc"
         d="m 43.2,41.9 c 0,6.1 3.8,10.6 8.3,10.6 4.5,0 8.3,-4.5 8.3,-10.6 0,-3.8 -1.5,-6.1 -4.5,-9.1 -3,3 -12.1,6.8 -12.1,8.3 0,0 0,0.8 0,0.8 z"
         id="path5" />
    </g>
  </g>
  <g
     id="skin-shadow"
     transform="translate(-8.4755259,-10.993143)" />
  <g
     id="line"
     transform="translate(-8.4755259,-10.993143)">
    <path
       fill="none"
       stroke="#000000"
       stroke-miterlimit="10"
       stroke-width="2"
       d="m 29.2,40.2 c 0,0.3 0,0.6 0,0.9 0,6.3 -3.9,11.3 -8.7,11.3 -4.8,0 -8.7,-5.1 -8.7,-11.3 0,-0.2 0,-0.4 0,-0.7"
       id="path6" />
    <path
       fill="none"
       stroke="#000000"
       stroke-linecap="round"
       stroke-linejoin="round"
       stroke-width="2"
       d="m 20.2,47.4 c 0.6,0.7 1.4,0.7 2.1,0"
       id="path7" />
    <path
       fill="none"
       stroke="#000000"
       stroke-linecap="round"
       stroke-miterlimit="10"
       stroke-width="2"
       d="m 22.5,41.8 c 0,0 1.5,1.5 3,0"
       id="path8" />
    <path
       fill="none"
       stroke="#000000"
       stroke-linecap="round"
       stroke-miterlimit="10"
       stroke-width="2"
       d="m 14.9,41.1 c 0,0 1.5,1.5 3,0"
       id="path9" />
    <path
       fill="none"
       stroke="#000000"
       stroke-linecap="round"
       stroke-linejoin="round"
       stroke-width="2"
       d="m 9.5,35.8 c 0.6,-8.8 7.3,-8.9 10.6,-8.3 0.3,0.1 1.2,0 1.5,0 6.1,-0.8 9.1,6.1 9.1,9.1 0,1.1 0,3.8 -1.5,5.3 0,0 -3.5,-4.2 -3.6,-6.6 0,0 -11.5,4.4 -12.3,0.6 0,0 -0.8,3 -1.5,3.8 0,0 0,2.3 0,3 0,-0.1 -2.6,-3.2 -2.3,-6.9 z"
       id="path10" />
    <path
       fill="none"
       stroke="#000000"
       stroke-linecap="round"
       stroke-linejoin="round"
       stroke-width="2"
       d="m 36,14.7 c 1.1,-2.4 4,-3.4 6.3,-2.2 2.3,1.2 3.3,4 2.2,6.4 -0.1,0.3 -0.3,0.5 -0.4,0.7 L 36,30 27.9,19.6 c -0.2,-0.2 -0.3,-0.5 -0.4,-0.7 -1.1,-2.4 -0.1,-5.2 2.2,-6.4 2.3,-1.2 5.2,-0.2 6.3,2.2 z"
       id="path11" />
    <path
       fill="none"
       stroke="#000000"
       stroke-linecap="round"
       stroke-linejoin="round"
       stroke-width="2"
       d="m 38.7,54 c -3,-4.5 -0.6,-7.8 0.8,-11.3 1.2,-3.2 -0.2,-4.9 1,-9.1 1.1,-4.2 5.5,-6.8 10.4,-6.8 4.1,0 6.1,2.3 6.1,2.3 3.2,0.3 5.6,2.9 5.6,6.1 0.3,5.4 0.8,5.4 2.6,9.7 1.3,3.1 0.8,6.6 -1.4,9.2"
       id="path12" />
    <path
       fill="none"
       stroke="#000000"
       stroke-linejoin="round"
       stroke-miterlimit="10"
       stroke-width="2"
       d="m 43.2,41.9 c 0,6.1 3.8,10.6 8.3,10.6 4.5,0 8.3,-4.5 8.3,-10.6 0,-3.8 -1.5,-6.1 -4.5,-9.1 -3,3 -12.1,6.8 -12.1,8.3 0,0 0,0.8 0,0.8 z"
       id="path13" />
    <path
       fill="none"
       stroke="#000000"
       stroke-linecap="round"
       stroke-linejoin="round"
       stroke-width="2"
       d="m 49.2,47.4 c 0.6,0.8 1.4,0.8 2.1,0"
       id="path14" />
    <path
       fill="none"
       stroke="#000000"
       stroke-linecap="round"
       stroke-miterlimit="10"
       stroke-width="2"
       d="m 53.9,41.1 c 0,0 1.5,1.5 3,0"
       id="path15" />
    <path
       fill="none"
       stroke="#000000"
       stroke-linecap="round"
       stroke-miterlimit="10"
       stroke-width="2"
       d="m 46.3,41.8 c 0,0 1.5,1.5 3,0"
       id="path16" />
  </g>
</svg>
