<?xml version="1.0" encoding="UTF-8" standalone="no"?>
<svg
   id="emoji"
   viewBox="0 0 56 45"
   version="1.1"
   sodipodi:docname="1f465.svg"
   width="56"
   height="45"
   xmlns:inkscape="http://www.inkscape.org/namespaces/inkscape"
   xmlns:sodipodi="http://sodipodi.sourceforge.net/DTD/sodipodi-0.dtd"
   xmlns="http://www.w3.org/2000/svg"
   xmlns:svg="http://www.w3.org/2000/svg">
  <defs
     id="defs6" />
  <sodipodi:namedview
     id="namedview6"
     pagecolor="#ffffff"
     bordercolor="#000000"
     borderopacity="0.25"
     inkscape:showpageshadow="2"
     inkscape:pageopacity="0.0"
     inkscape:pagecheckerboard="0"
     inkscape:deskcolor="#d1d1d1" />
  <g
     id="color"
     transform="translate(-8,-16)">
    <path
       fill="#d0cfce"
       stroke="none"
       d="m 63,61 c 0,0 0,-4 0,-8 0,-7 -4,-10 -8,-10 -5,0 -5,0 -12,0 -2.7842,0 -5.5645,0.5059 -7,3.75 -1.125,-3.3125 -4.2158,-4.7031 -7,-4.7031 -5,0 -5,0.9531 -12,0.9531 -4,0 -8,3 -8,10 0,1 0,8 0,8"
       id="path1" />
    <path
       fill="#d0cfce"
       stroke="none"
       d="m 15,26 c 0,4 0.876,6.3145 2,8 1.4316,2.1484 3.7061,3 6,3 2.3809,0 4.5664,-0.8516 6,-3 1.123,-1.6855 2,-4 2,-8 0,-2.1484 -1.0771,-9 -8,-9 -6.9229,0 -8,5.4189 -8,9 z"
       id="path2" />
    <path
       fill="#d0cfce"
       stroke="none"
       d="m 41,26 c 0,4 0.876,6.3145 2,8 1.4316,2.1484 3.7061,3 6,3 2.3809,0 4.5664,-0.8516 6,-3 1.123,-1.6855 2,-4 2,-8 0,-2.1484 -1.0771,-9 -8,-9 -6.9229,0 -8,5.4189 -8,9 z"
       id="path3" />
  </g>
  <g
     id="hair"
     transform="translate(-8,-16)" />
  <g
     id="skin"
     transform="translate(-8,-16)" />
  <g
     id="skin-shadow"
     transform="translate(-8,-16)" />
  <g
     id="line"
     transform="translate(-8,-16)">
    <path
       fill="none"
       stroke="#000000"
       stroke-linecap="round"
       stroke-linejoin="round"
       stroke-width="2"
       d="m 35,60 v -7 c 0,-7 4,-10 8,-10 7,0 7,0 12,0 4,0 8,3 8,10 0,4 0,7 0,7 M 34,45.0977 M 9,60 c 0,0 0,-6 0,-7 0,-7 4,-10 8,-10 7,0 7,0 12,0 1.5313,0 3.0605,0.5313 4.3672,1.5488"
       id="path4" />
    <path
       fill="none"
       stroke="#000000"
       stroke-linejoin="round"
       stroke-width="2"
       d="m 15,26 c 0,4 0.876,6.3145 2,8 1.4316,2.1484 3.7061,3 6,3 2.3809,0 4.5664,-0.8516 6,-3 1.123,-1.6855 2,-4 2,-8 0,-2.1484 -1.0771,-9 -8,-9 -6.9229,0 -8,5.4189 -8,9 z"
       id="path5" />
    <path
       fill="none"
       stroke="#000000"
       stroke-linejoin="round"
       stroke-width="2"
       d="m 41,26 c 0,4 0.876,6.3145 2,8 1.4316,2.1484 3.7061,3 6,3 2.3809,0 4.5664,-0.8516 6,-3 1.123,-1.6855 2,-4 2,-8 0,-2.1484 -1.0771,-9 -8,-9 -6.9229,0 -8,5.4189 -8,9 z"
       id="path6" />
  </g>
</svg>
