<svg xmlns="http://www.w3.org/2000/svg" xmlns:svg="http://www.w3.org/2000/svg" id="emoji" width="53.955" height="57.721" version="1.1" viewBox="0 0 53.955 57.721"><g id="color" transform="translate(-8.1554283,-7.1906249)"><path id="path1" fill="#3f3f3f" d="m 20.02,47.72 c -0.9807,-6.527 -8.532,-22.96 -8.477,-24.99 0.1586,-5.812 11.99,-9.897 12.91,-6.264 0.2885,1.133 3.103,4.632 1.434,8.267 -3.016,6.569 2.844,15.95 5.016,20.55 1.22,2.848 -1.218,5.988 -4.224,6.661 -3.006,0.6728 -5.888,-0.7659 -6.661,-4.224 z"/><circle id="circle1" cx="9.976" cy="18.17" r="1" fill="#3f3f3f"/><circle id="ellipse1" cx="3.721" cy="18.65" r="1" fill="#3f3f3f" transform="rotate(-27.29)"/><circle id="circle2" cx="6.459" cy="17.97" r="1" fill="#3f3f3f" transform="rotate(-30)"/><circle id="circle3" cx="18.1" cy="11.11" r="1" fill="#3f3f3f"/><path id="path3" fill="#3f3f3f" d="m 50.18,59.72 c 0.9807,-6.527 8.894,-22.51 8.839,-24.53 -0.1586,-5.812 -12.35,-10.35 -13.27,-6.717 -0.3047,1.196 -2.137,4.667 -1.547,8.938 1.208,8.747 -2.076,15.97 -4.178,20.42 -1.22,2.848 0.494,5.445 3.5,6.118 3.006,0.673 5.888,-0.7658 6.661,-4.224 z"/><circle id="circle4" cx="60.62" cy="29.62" r="1" fill="#3f3f3f"/><circle id="ellipse4" cx="2.941" cy="64.31" r="1" fill="#3f3f3f" transform="rotate(-62.71)"/><circle id="ellipse5" cx="6.335" cy="60.32" r="1" fill="#3f3f3f" transform="rotate(-60)"/><circle id="circle5" cx="52.01" cy="23.42" r="1" fill="#3f3f3f"/><ellipse id="ellipse6" cx="52.24" cy="12.96" fill="#3f3f3f" rx="1.561" ry="2.514" transform="matrix(0.982,0.1891,-0.2732,0.9619,0,0)"/><ellipse id="ellipse7" cx="20.5" cy="15.52" fill="#3f3f3f" rx="1.561" ry="2.514" transform="matrix(0.9675,-0.2528,0.1682,0.9857,0,0)"/></g><g id="line" transform="translate(-8.1554283,-7.1906249)"><path id="path7" fill="none" stroke="#000" stroke-linecap="round" stroke-linejoin="round" stroke-miterlimit="10" stroke-width="2" d="M 19.92,47.53 C 18.9393,41.003 11.569,24.3 11.625,22.27 c 0.1586,-5.812 10.49,-9.177 12.76,-6.249 0.7559,0.7541 1.984,4.935 1.528,9.273 -1.062,10.12 1.628,15.72 3.893,19.89 1.22,2.848 -0.2223,5.898 -3.228,6.571 -3.006,0.6728 -5.888,-0.7659 -6.661,-4.224 z"/><circle id="circle7" cx="9.235" cy="18.07" r="1.04" fill="none" stroke="#000" stroke-linecap="round" stroke-linejoin="round" stroke-miterlimit="10" stroke-width="1.04" transform="rotate(-1.534)"/><circle id="circle8" cx="3.285" cy="18.74" r="1.04" fill="none" stroke="#000" stroke-linecap="round" stroke-linejoin="round" stroke-miterlimit="10" stroke-width="1.04" transform="rotate(-28.82)"/><circle id="circle9" cx="5.978" cy="18.35" r="1.04" fill="none" stroke="#000" stroke-linecap="round" stroke-linejoin="round" stroke-miterlimit="10" stroke-width="1.04" transform="rotate(-31.53)"/><circle id="circle10" cx="17.66" cy="11.5" r="1.04" fill="none" stroke="#000" stroke-linecap="round" stroke-linejoin="round" stroke-miterlimit="10" stroke-width="1.04" transform="rotate(-1.534)"/><path id="path10" fill="none" stroke="#000" stroke-linecap="round" stroke-linejoin="round" stroke-miterlimit="10" stroke-width="2" d="m 50.09,59.53 c 0.9807,-6.527 8.713,-22.96 8.658,-24.99 -0.1586,-5.812 -10.79,-9.193 -12.81,-6.392 -1.142,0.8976 -1.935,5.439 -1.647,9.219 0.6607,8.697 -1.694,14.58 -3.913,19.27 -1.22,2.848 0.04114,6.441 3.047,7.114 3.006,0.673 5.888,-0.7658 6.661,-4.224 z"/><circle id="circle11" cx="60.55" cy="29.94" r="1.04" fill="none" stroke="#000" stroke-linecap="round" stroke-linejoin="round" stroke-miterlimit="10" stroke-width="1.04"/><circle id="circle12" cx="2.783" cy="64.35" r="1.04" fill="none" stroke="#000" stroke-linecap="round" stroke-linejoin="round" stroke-miterlimit="10" stroke-width="1.04" transform="rotate(-62.71)"/><circle id="circle13" cx="6.263" cy="60.5" r="1.04" fill="none" stroke="#000" stroke-linecap="round" stroke-linejoin="round" stroke-miterlimit="10" stroke-width="1.04" transform="rotate(-60)"/><circle id="circle14" cx="52.26" cy="23.39" r="1.04" fill="none" stroke="#000" stroke-linecap="round" stroke-linejoin="round" stroke-miterlimit="10" stroke-width="1.04"/><ellipse id="ellipse14" cx="49.94" cy="18.91" fill="none" stroke="#000" stroke-linecap="round" stroke-linejoin="round" stroke-miterlimit="10" stroke-width="1.155" rx="1.893" ry="2.332" transform="matrix(0.9973,0.07399,-0.1025,0.9947,0,0)"/><ellipse id="ellipse15" cx="20.93" cy="12.69" fill="none" stroke="#000" stroke-linecap="round" stroke-linejoin="round" stroke-miterlimit="10" stroke-width="1.164" rx="1.888" ry="2.374" transform="matrix(0.9932,-0.1168,0.1312,0.9914,0,0)"/></g></svg>