<?xml version="1.0" encoding="UTF-8" standalone="no"?>
<svg
   id="emoji"
   viewBox="0 0 49.783619 52.785084"
   version="1.1"
   sodipodi:docname="1f469-1f3fd-200d-1f527.svg"
   width="49.783619"
   height="52.785084"
   xmlns:inkscape="http://www.inkscape.org/namespaces/inkscape"
   xmlns:sodipodi="http://sodipodi.sourceforge.net/DTD/sodipodi-0.dtd"
   xmlns="http://www.w3.org/2000/svg"
   xmlns:svg="http://www.w3.org/2000/svg">
  <defs
     id="defs19" />
  <sodipodi:namedview
     id="namedview19"
     pagecolor="#ffffff"
     bordercolor="#000000"
     borderopacity="0.25"
     inkscape:showpageshadow="2"
     inkscape:pageopacity="0.0"
     inkscape:pagecheckerboard="0"
     inkscape:deskcolor="#d1d1d1" />
  <g
     id="color"
     transform="translate(-15.804101,-8.2639)">
    <path
       fill="#92d3f5"
       d="m 16.9615,58.9182 c 0,0 -2,-13.5 10,-13.5 3.1919,2.1279 5.9264,3.5984 9,3.5922 h -0.125 c 3.0736,0.0062 5.5081,-2.1643 8.7,-4.2922 15.5705,0 10.7,14.2 10.7,14.2"
       id="path1" />
    <polygon
       fill="#61b2e4"
       points="44.6327,45.2211 44.6327,52.4662 26.7558,52.4662 26.7576,45.2211 22.0917,46.0054 22.0917,58.8804 49.124,58.8804 49.124,46.0054 "
       id="polygon1" />
    <path
       fill="#61b2e4"
       d="M 36.4608,9.2639 H 34.6573 C 23.3621,9.2991 24.6124,20.5778 24.6124,20.5778 c 12.8913,-5.657 21.8933,0 21.8933,0 0,0 1.2502,-11.2787 -10.0449,-11.3139 z"
       id="path2" />
    <path
       fill="#9b9b9a"
       d="m 54.7257,38.1905 c 0.5178,-2.1526 2.3561,-3.6419 4.4485,-3.8148 l -1.1313,4.637 c 0.0816,0.0154 2.7264,0.6496 2.8078,0.6692 l 1.1312,-4.7124 c 1.9373,1.0552 3.007,3.3129 2.4664,5.56 -0.4769,1.9823 -2.0759,3.3944 -3.9597,3.7417 L 57.066,58.4981 c -0.2616,1.0876 -1.3553,1.7572 -2.4429,1.4955 -1.0877,-0.2616 -1.7571,-1.3554 -1.4955,-2.443 l 3.4226,-14.2269 c -1.5196,-1.166 -2.3014,-3.1509 -1.8245,-5.1332 z"
       id="path3" />
    <path
       fill="#ffffff"
       d="m 32.9491,18.2936 v -2.3118 c 0,-1.6568 1.3432,-3 3,-3 1.6569,0 3,1.3432 3,3 v 2.3295"
       id="path4" />
  </g>
  <g
     id="hair"
     transform="translate(-15.804101,-8.2639)">
    <path
       fill="#6a462f"
       d="m 24.8199,26.5593 c 0,0 -10.6339,2.5266 -7.9128,15.7288 0,0 5.3627,0.1413 7.5363,-2.4283 0,0 2.4867,-2.2424 3.5184,-8.1865 1.0317,-5.9442 -3.2501,-5.1369 -3.2501,-5.1369"
       id="path5" />
    <path
       fill="#6a462f"
       d="m 24.7167,26.2827 c 4.7415,-0.4991 11.7795,-7.5645 11.7795,-7.5645 0,0 8.5126,8.7362 10.8925,6.8972 0.2163,-2.3798 -1.2982,-4.7597 -1.2982,-4.7597 0,0 -8.8314,-5.4799 -19.9716,-0.3616 -3.0698,3.8232 -1.6044,6.9598 -1.6044,6.9598"
       id="path6" />
  </g>
  <g
     id="skin"
     transform="translate(-15.804101,-8.2639)">
    <path
       fill="#c19a65"
       d="m 36.4962,18.7182 c 0,0 -6.9597,6.983 -11.7001,7.55 -0.0604,0.5923 -0.1019,1.1918 -0.1019,1.8047 0,7.8277 5.0765,14.1733 11.3386,14.1733 6.2621,0 11.3386,-6.3456 11.3386,-14.1733 0,-0.8017 -0.066,-1.5825 -0.1683,-2.3479 -2.6027,1.3082 -10.7069,-7.0068 -10.7069,-7.0068 z"
       id="path7" />
  </g>
  <g
     id="skin-shadow"
     transform="translate(-15.804101,-8.2639)" />
  <g
     id="line"
     transform="translate(-15.804101,-8.2639)">
    <path
       d="m 42.0075,27.0729 c 0,1.1045 -0.8965,2 -2,2 -1.1035,0 -2,-0.8955 -2,-2 0,-1.1035 0.8965,-2 2,-2 1.1035,0 2,0.8965 2,2"
       id="path8" />
    <path
       d="m 34.0075,27.0729 c 0,1.1045 -0.8965,2 -2,2 -1.1035,0 -2,-0.8955 -2,-2 0,-1.1035 0.8965,-2 2,-2 1.1035,0 2,0.8965 2,2"
       id="path9" />
    <path
       d="m 36.0074,37.0753 c -1.1519,0 -2.3037,-0.2861 -3.4473,-0.8579 -0.4941,-0.2471 -0.6943,-0.8477 -0.4472,-1.3418 0.2465,-0.4937 0.8461,-0.6944 1.3417,-0.4473 1.7178,0.8594 3.3877,0.8594 5.1055,0 0.4946,-0.2471 1.0947,-0.0464 1.3418,0.4473 0.2471,0.4941 0.0469,1.0947 -0.4473,1.3418 -1.1435,0.5718 -2.2954,0.8579 -3.4472,0.8579 z"
       id="path10" />
    <path
       fill="none"
       stroke="#000000"
       stroke-linecap="round"
       stroke-miterlimit="10"
       stroke-width="2"
       d="m 24.7868,26.3818 c -0.0778,0.6699 -0.118,1.355 -0.118,2.0519 0,7.8276 5.0765,14.1732 11.3386,14.1732 6.2621,0 11.3386,-6.3456 11.3386,-14.1732 0,-0.3957 0.0122,-2.8271 0.0122,-2.8271"
       id="path11" />
    <path
       fill="none"
       stroke="#000000"
       stroke-linecap="round"
       stroke-linejoin="round"
       stroke-miterlimit="10"
       stroke-width="2"
       d="m 51.7472,47.208 c -1.513,-1.3672 -3.7236,-2.3012 -6.9399,-2.3012 -3.1919,2.1279 -5.9264,3.5985 -9.0001,3.5922 h 0.1251 c -3.0737,0.0063 -5.8082,-1.4643 -9.0001,-3.5922 -12,0 -10,13 -10,13"
       id="path12" />
    <path
       fill="none"
       stroke="#000000"
       stroke-linecap="round"
       stroke-linejoin="round"
       stroke-miterlimit="10"
       stroke-width="2"
       d="m 54.7257,38.1905 c 0.5178,-2.1526 2.3561,-3.6419 4.4485,-3.8148 l -1.1313,4.637 c 0.0816,0.0154 2.7264,0.6496 2.8078,0.6692 l 1.1312,-4.7124 c 1.9373,1.0552 3.007,3.3129 2.4664,5.56 -0.4769,1.9823 -2.0759,3.3944 -3.9597,3.7417 L 57.066,58.4981 c -0.2616,1.0876 -1.3553,1.7572 -2.4429,1.4955 -1.0877,-0.2616 -1.7571,-1.3554 -1.4955,-2.443 l 3.4226,-14.2269 c -1.5196,-1.166 -2.3014,-3.1509 -1.8245,-5.1332 z"
       id="path13" />
    <path
       fill="none"
       stroke="#000000"
       stroke-linecap="round"
       stroke-linejoin="round"
       stroke-miterlimit="10"
       stroke-width="2"
       d="m 46.8094,20.5778 c 0,0 1.2504,-11.2787 -10.0449,-11.3139 H 34.9612 C 23.6659,9.2991 24.9163,20.5778 24.9163,20.5778"
       id="path14" />
    <path
       fill="none"
       stroke="#000000"
       stroke-linecap="round"
       stroke-miterlimit="10"
       stroke-width="2"
       d="m 32.9491,18.2936 v -2.3118 c 0,-1.6568 1.3432,-3 3,-3 1.6569,0 3,1.3432 3,3 v 2.3295"
       id="path15" />
    <polyline
       fill="none"
       stroke="#000000"
       stroke-linecap="round"
       stroke-linejoin="round"
       stroke-miterlimit="10"
       stroke-width="2"
       points="44.8073,44.9068 44.8073,52.152 26.9304,52.152 26.9322,44.9068"
       id="polyline15" />
    <line
       x1="49.298599"
       x2="49.298599"
       y1="45.691101"
       y2="57.881199"
       fill="none"
       stroke="#000000"
       stroke-linecap="round"
       stroke-linejoin="round"
       stroke-miterlimit="10"
       stroke-width="2"
       id="line15" />
    <line
       x1="22.2663"
       x2="22.2663"
       y1="45.691101"
       y2="57.867802"
       fill="none"
       stroke="#000000"
       stroke-linecap="round"
       stroke-linejoin="round"
       stroke-miterlimit="10"
       stroke-width="2"
       id="line16" />
    <line
       x1="32.605598"
       x2="26.930401"
       y1="56.796902"
       y2="56.796902"
       fill="none"
       stroke="#000000"
       stroke-linecap="round"
       stroke-linejoin="round"
       stroke-miterlimit="10"
       stroke-width="2"
       id="line17" />
    <path
       fill="none"
       stroke="#000000"
       stroke-linecap="round"
       stroke-linejoin="round"
       stroke-miterlimit="10"
       stroke-width="2"
       d="m 26.0884,20.4852 c -3.0698,3.8233 -1.6044,6.9599 -1.6044,6.9599 0,0 -9.3623,2.4885 -6.9666,14.112 0,0 4.3693,-0.1397 6.283,-2.4021"
       id="path17" />
    <path
       fill="none"
       stroke="#000000"
       stroke-linecap="round"
       stroke-linejoin="round"
       stroke-miterlimit="10"
       stroke-width="2"
       d="m 46.0601,20.8468 c 0,0 1.5144,2.3799 1.2981,4.7598 -2.3799,1.839 -10.8925,-6.8972 -10.8925,-6.8972 0,0 -7.038,7.0654 -11.7795,7.5645"
       id="path18" />
    <path
       fill="none"
       stroke="#000000"
       stroke-linecap="round"
       stroke-linejoin="round"
       stroke-miterlimit="10"
       stroke-width="2"
       d="M 49.6421,22.4463 C 43.4538,17.4636 32.67,16.9625 25.6115,20.3084 c -1.2509,0.593 -2.3848,1.3068 -3.3554,2.1379"
       id="path19" />
  </g>
</svg>
