<?xml version="1.0" encoding="UTF-8" standalone="no"?>
<svg
   id="emoji"
   viewBox="0 0 58.567631 39.206539"
   version="1.1"
   sodipodi:docname="1f461.svg"
   width="58.567631"
   height="39.206539"
   xmlns:inkscape="http://www.inkscape.org/namespaces/inkscape"
   xmlns:sodipodi="http://sodipodi.sourceforge.net/DTD/sodipodi-0.dtd"
   xmlns="http://www.w3.org/2000/svg"
   xmlns:svg="http://www.w3.org/2000/svg">
  <defs
     id="defs5" />
  <sodipodi:namedview
     id="namedview5"
     pagecolor="#ffffff"
     bordercolor="#000000"
     borderopacity="0.25"
     inkscape:showpageshadow="2"
     inkscape:pageopacity="0.0"
     inkscape:pagecheckerboard="0"
     inkscape:deskcolor="#d1d1d1" />
  <g
     id="color"
     transform="translate(-10.1292,-24.039037)">
    <polyline
       fill="#6a462f"
       points="11.0443 30.5333 10.7943 58.9583 19.672 58.9583 22.4255 36.7408"
       id="polyline1" />
    <polyline
       fill="#6a462f"
       points="11.2095 34.5333 11.7095 58.7083 18.7988 58.9583 20.7988 40.5333"
       id="polyline2" />
    <path
       fill="#6a462f"
       d="m 59.0643,52.3098 c 2.7748,0.0391 5.9062,-0.1885 8.4416,-1.171 0.7079,6.5249 -0.5933,8.2515 -3.991,9.7438 C 57.852,63.3696 43.9473,62.1745 40.1793,59.3933 35.6117,56.022 37.6186,55.4239 29.8297,44.7373 23.6408,36.2461 11.1292,30.8087 11.1292,30.8087 V 25.039 c 0,0 20.7464,6.6699 25.0042,17.8349 0.7983,2.0934 2.8151,3.4373 4.3049,4.8808 0,0 7.2775,4.3951 18.626,4.5551 z"
       id="path2" />
    <polyline
       fill="#a57939"
       points="41.3426 57.5874 45.3648 36.7408 58.0947 39.2711 55.3813 60.3034"
       id="polyline3" />
  </g>
  <g
     id="line"
     transform="translate(-10.1292,-24.039037)">
    <polyline
       fill="none"
       stroke="#000000"
       stroke-linecap="round"
       stroke-linejoin="round"
       stroke-width="2"
       points="11.2095 34.5333 11.2095 58.9583 19.0488 58.9583 21.0488 40.5333"
       id="polyline4" />
    <path
       fill="none"
       stroke="#000000"
       stroke-linecap="round"
       stroke-linejoin="round"
       stroke-width="2"
       d="m 59.497,53.1771 c 2.7511,-0.3643 5.4735,-1.0558 8.0089,-2.0383 0.7079,6.5249 -0.5933,8.2515 -3.991,9.7438 C 57.852,63.3696 43.9473,62.1745 40.1793,59.3933 35.6117,56.022 37.6186,55.4239 29.8297,44.7373 23.6408,36.2461 11.1292,30.8087 11.1292,30.8087 V 25.039 c 0,0 20.7464,6.6699 25.0042,17.8349 0.7983,2.0934 1.9924,3.8504 3.4823,5.2939"
       id="path4" />
    <polyline
       fill="none"
       stroke="#000000"
       stroke-linecap="round"
       stroke-linejoin="round"
       stroke-width="2"
       points="41.7515 56.773 45.3648 36.7408 58.0947 39.2711 55.4813 59.3034"
       id="polyline5" />
  </g>
</svg>
