<?xml version="1.0" encoding="UTF-8" standalone="no"?>
<svg
   id="emoji"
   viewBox="0 0 52.261112 48.699902"
   version="1.1"
   sodipodi:docname="1f469-200d-1f469-200d-1f467-200d-1f467.svg"
   width="52.261112"
   height="48.699902"
   xmlns:inkscape="http://www.inkscape.org/namespaces/inkscape"
   xmlns:sodipodi="http://sodipodi.sourceforge.net/DTD/sodipodi-0.dtd"
   xmlns="http://www.w3.org/2000/svg"
   xmlns:svg="http://www.w3.org/2000/svg">
  <defs
     id="defs35" />
  <sodipodi:namedview
     id="namedview35"
     pagecolor="#ffffff"
     bordercolor="#000000"
     borderopacity="0.25"
     inkscape:showpageshadow="2"
     inkscape:pageopacity="0.0"
     inkscape:pagecheckerboard="0"
     inkscape:deskcolor="#d1d1d1" />
  <g
     id="color"
     transform="translate(-9.8694435,-12.3001)">
    <path
       fill="#92d3f5"
       d="M 11.0003,61 V 44.9552 c 0,-3.2895 3.2918,-5.9566 6.5836,-5.9566 3.9146,3.2895 7.8292,3.2895 11.8327,0 h 13.1673 c 3.9146,3.2895 7.8292,3.2895 11.8327,0 3.2918,0 6.5836,2.6671 6.5836,5.9566 V 61"
       id="path1" />
    <path
       fill="#b1cc33"
       d="M 17,61 V 58.4667 C 17,56 19.5018,54 22.0036,54 c 2.9751,2.4667 5.9502,2.4667 8.9929,0 C 33.4982,54 36,56 36,58.4667 V 61"
       id="path2" />
    <path
       fill="#b1cc33"
       d="M 36.0003,61 V 58.4667 C 36.0003,56 38.5021,54 41.0039,54 c 2.9751,2.4667 5.9502,2.4667 8.9929,0 2.5018,0 5.0036,2 5.0036,4.4667 V 61"
       id="path3" />
  </g>
  <g
     id="hair"
     transform="translate(-9.8694435,-12.3001)">
    <path
       fill="#a57939"
       d="m 26.5,40.7038 c 3.864,1.3703 5.567,5.8271 5.6943,9.6307 1.4225,0.308 2.8826,-0.3898 3.8057,-1.461 -0.9845,-0.8337 -1.7269,-1.9167 -2.1494,-3.1356 0.7369,-5.7252 -2.03,-9.5793 -7.3506,-8.4862 -5.3206,-1.0931 -8.0875,2.761 -7.3506,8.4862 -0.4225,1.2189 -1.1649,2.3019 -2.1494,3.1356 0.923,1.0712 2.3833,1.769 3.8057,1.461 0.1273,-3.8034 1.8302,-8.2605 5.6943,-9.6307 z"
       id="path4" />
    <path
       fill="#a57939"
       d="m 45.5003,40.7038 c 3.864,1.3703 5.567,5.8271 5.6943,9.6307 1.4225,0.308 2.8826,-0.3898 3.8057,-1.461 -0.9845,-0.8337 -1.7269,-1.9167 -2.1494,-3.1356 0.7369,-5.7252 -2.03,-9.5793 -7.3506,-8.4862 -5.3206,-1.0931 -8.0875,2.761 -7.3506,8.4862 -0.4225,1.2189 -1.1649,2.3019 -2.1494,3.1356 0.923,1.0712 2.3833,1.769 3.8057,1.461 0.1273,-3.8034 1.8302,-8.2605 5.6943,-9.6307 z"
       id="path5" />
    <path
       fill="#a57939"
       d="m 36,38.9986 h 6.5839 c 3.9146,3.2895 7.8292,3.2895 11.8327,0 1.2701,0 2.538,0.4002 3.619,1.0768 l 0.3439,-0.1638 1.7012,-2.0374 C 62.0367,35.6516 61.6581,31.97 60.5023,29.214 58.902,25.48 58.4575,25.48 58.1908,20.6791 58.1019,17.923 55.9682,15.6115 53.2121,15.3448 c 0,0 -1.6892,-2.0448 -5.3343,-2.0448 -4.2675,0 -8.1792,2.3115 -9.1572,5.9566 -1.0668,3.734 -0.2999,7.7047 -3.6364,9.8337 -0.9335,2.4005 -0.1839,1.9957 -0.1631,4.8811 C 34.9279,34.9131 36,38.9986 36,38.9986 Z"
       id="path6" />
    <path
       fill="#a57939"
       d="m 36.1598,33.9714 c 0.0208,-2.8854 -1.0579,-4.224 -1.9914,-6.6245 -1.0669,-2.845 0.1778,-4.3563 -0.889,-8.0903 C 32.3014,15.6115 28.3897,13.3 24.1222,13.3 c -3.6451,0 -5.3343,2.0448 -5.3343,2.0448 -2.7561,0.2667 -4.8898,2.5782 -4.9787,5.3343 -0.2667,4.8009 -0.7112,4.8009 -2.3115,8.5349 -1.1558,2.756 -1.5344,6.4376 0.4216,8.6602 l 1.7012,2.0374 0.3439,0.1638 c 1.081,-0.6766 2.3489,-1.0768 3.619,-1.0768 4.0035,3.2895 7.9181,3.2895 11.8327,0 H 36 c 0,0 0.153,-4.0855 0.1598,-5.0272 z"
       id="path7" />
  </g>
  <g
     id="skin"
     transform="translate(-9.8694435,-12.3001)">
    <path
       fill="#fcea2b"
       d="m 41.1209,26.8135 c 0,5.3343 3.3784,9.335 7.3791,9.335 4.0007,0 7.3791,-4.0007 7.3791,-9.335 0,-3.3784 -1.3336,-5.3343 -4.0007,-8.0014 -2.6671,2.6671 -10.6686,6.0455 -10.6686,7.3791 z"
       id="path8" />
    <path
       fill="#fcea2b"
       d="M 32.0034,48.517 C 31.9896,48.4627 31.9863,48.4064 31.971,48.3524 31.4211,45.1769 29.7336,41.8128 26.5,40.7037 c -3.2336,1.1091 -4.9211,4.4731 -5.471,7.6487 -0.0153,0.054 -0.0186,0.1102 -0.0324,0.1646 0.8397,2.7543 2.9947,4.3117 5.5034,4.3118 2.5087,-1e-4 4.6638,-1.5575 5.5034,-4.3118 z"
       id="path9" />
    <path
       fill="#fcea2b"
       d="M 51.0034,48.517 C 50.9896,48.4627 50.9863,48.4064 50.971,48.3524 50.4211,45.1769 48.7336,41.8128 45.5,40.7037 c -3.2336,1.1091 -4.9211,4.4731 -5.471,7.6487 -0.0153,0.054 -0.0186,0.1102 -0.0324,0.1646 0.8397,2.7543 2.9947,4.3117 5.5034,4.3118 2.5087,-1e-4 4.6638,-1.5575 5.5034,-4.3118 z"
       id="path10" />
    <path
       fill="#fcea2b"
       d="m 30.8927,26.8135 -0.0889,-0.6223 c 0,-1.3336 -8.0015,-4.712 -10.6686,-7.3791 -2.6671,2.6671 -4.0007,4.623 -4.0007,8.0014 0,5.3343 3.3784,9.335 7.3791,9.335 4.0007,0 7.3791,-4.0007 7.3791,-9.335 z"
       id="path11" />
  </g>
  <g
     id="line"
     transform="translate(-9.8694435,-12.3001)">
    <path
       fill="none"
       stroke="#000000"
       stroke-linecap="round"
       stroke-linejoin="round"
       stroke-width="2"
       d="M 11.0003,60 V 44.9552 c 0,-3.2895 3.2918,-5.9566 6.5836,-5.9566 0.541,0.4546 1.082,0.8464 1.6232,1.1754"
       id="path12" />
    <path
       fill="none"
       stroke="#000000"
       stroke-linecap="round"
       stroke-linejoin="round"
       stroke-width="2"
       d="m 52.6455,40.2424 c 0.5886,-0.3426 1.1789,-0.7573 1.7711,-1.2439 3.2918,0 6.5836,2.6671 6.5836,5.9566 V 60"
       id="path13" />
    <path
       d="m 48.0979,45.7015 c 0.0333,0.4958 -0.3417,0.9247 -0.8377,0.958 -0.4959,0.0333 -0.9249,-0.3417 -0.9582,-0.8375 -0.0333,-0.4958 0.3417,-0.9247 0.8377,-0.958 0.0201,-0.0014 0.0402,-0.002 0.0604,-0.002 0.4796,-0.0155 0.8813,0.3601 0.8978,0.8395 z"
       id="path14" />
    <path
       fill="none"
       stroke="#000000"
       stroke-linecap="round"
       stroke-linejoin="round"
       stroke-width="1.6"
       d="m 44.1639,49.1857 c 0.7749,0.6425 1.8974,0.6425 2.6723,0"
       id="path15" />
    <path
       fill="none"
       stroke="#000000"
       stroke-miterlimit="10"
       stroke-width="1.6"
       d="m 51.0438,48.407 c -0.8139,2.8267 -3.0002,4.4219 -5.5441,4.4219 h 6e-4 c -2.5439,0 -4.7302,-1.5952 -5.5441,-4.4219"
       id="path16" />
    <path
       d="m 43.7999,44.862 c 0.0201,0 0.0403,7e-4 0.0604,0.002 0.4959,0.0333 0.871,0.4622 0.8377,0.958 -0.0333,0.4958 -0.4623,0.8707 -0.9582,0.8375 -0.4959,-0.0333 -0.871,-0.4622 -0.8377,-0.958 0.0165,-0.4794 0.4182,-0.855 0.8978,-0.8395 z"
       id="path17" />
    <path
       fill="none"
       stroke="#000000"
       stroke-linecap="round"
       stroke-linejoin="round"
       stroke-width="1.6"
       d="M 17,60.2 V 58.4667 C 17,56 19.5018,54 22.0036,54 c 2.9751,2.4667 5.9502,2.4667 8.9929,0 C 33.4982,54 36,56 36,58.4667 V 60.2"
       id="path18" />
    <path
       fill="none"
       stroke="#000000"
       stroke-linecap="round"
       stroke-linejoin="round"
       stroke-width="1.6"
       d="M 36.0003,60.2 V 58.4667 C 36.0003,56 38.5021,54 41.0039,54 c 2.9751,2.4667 5.9502,2.4667 8.9929,0 2.5018,0 5.0036,2 5.0036,4.4667 V 60.2"
       id="path19" />
    <path
       d="m 29.0979,45.7015 c 0.0333,0.4958 -0.3417,0.9247 -0.8377,0.958 -0.4959,0.0333 -0.9249,-0.3417 -0.9582,-0.8375 -0.0333,-0.4958 0.3417,-0.9247 0.8377,-0.958 0.0201,-0.0014 0.0402,-0.002 0.0604,-0.002 0.4796,-0.0155 0.8813,0.3601 0.8978,0.8395 z"
       id="path20" />
    <path
       fill="none"
       stroke="#000000"
       stroke-linecap="round"
       stroke-linejoin="round"
       stroke-width="1.6"
       d="m 25.1639,49.1857 c 0.7749,0.6425 1.8974,0.6425 2.6723,0"
       id="path21" />
    <path
       fill="none"
       stroke="#000000"
       stroke-miterlimit="10"
       stroke-width="1.6"
       d="m 32.0438,48.407 c -0.8139,2.8267 -3.0002,4.4219 -5.5441,4.4219 h 6e-4 c -2.5439,0 -4.7302,-1.5952 -5.5441,-4.4219"
       id="path22" />
    <path
       d="m 24.7999,44.862 c 0.0201,0 0.0403,7e-4 0.0604,0.002 0.4959,0.0333 0.871,0.4622 0.8377,0.958 -0.0333,0.4958 -0.4623,0.8707 -0.9582,0.8375 -0.4959,-0.0333 -0.871,-0.4622 -0.8377,-0.958 0.0165,-0.4794 0.4182,-0.855 0.8978,-0.8395 z"
       id="path23" />
    <path
       fill="none"
       stroke="#000000"
       stroke-linecap="round"
       stroke-linejoin="round"
       stroke-width="1.6"
       d="m 26.5,40.7038 c 3.864,1.3703 5.567,5.8271 5.6943,9.6307 1.4225,0.308 2.8826,-0.3898 3.8057,-1.461 -0.9845,-0.8337 -1.7269,-1.9167 -2.1494,-3.1356 0.7369,-5.7252 -2.03,-9.5793 -7.3506,-8.4862 -5.3206,-1.0931 -8.0875,2.761 -7.3506,8.4862 -0.4225,1.2189 -1.1649,2.3019 -2.1494,3.1356 0.923,1.0712 2.3833,1.769 3.8057,1.461 0.1273,-3.8034 1.8302,-8.2605 5.6943,-9.6307 z"
       id="path24" />
    <path
       fill="none"
       stroke="#000000"
       stroke-linecap="round"
       stroke-linejoin="round"
       stroke-width="1.6"
       d="m 45.5003,40.7038 c 3.864,1.3703 5.567,5.8271 5.6943,9.6307 1.4225,0.308 2.8826,-0.3898 3.8057,-1.461 -0.9845,-0.8337 -1.7269,-1.9167 -2.1494,-3.1356 0.7369,-5.7252 -2.03,-9.5793 -7.3506,-8.4862 -5.3206,-1.0931 -8.0875,2.761 -7.3506,8.4862 -0.4225,1.2189 -1.1649,2.3019 -2.1494,3.1356 0.923,1.0712 2.3833,1.769 3.8057,1.461 0.1273,-3.8034 1.8302,-8.2605 5.6943,-9.6307 z"
       id="path25" />
    <path
       fill="none"
       stroke="#000000"
       stroke-linecap="round"
       stroke-linejoin="round"
       stroke-width="2"
       d="m 35.0842,29.0903 c 3.4065,-2.3411 2.5696,-6.0996 3.6364,-9.8336 0.978,-3.6451 4.8898,-5.9566 9.1572,-5.9566 3.6451,0 5.3343,2.0448 5.3343,2.0448 2.7561,0.2667 4.8898,2.5782 4.9787,5.3343 0.2667,4.8009 0.7112,4.8009 2.3115,8.5349 1.0621,2.5328 0.7728,5.3659 -0.7991,7.5333"
       id="path26" />
    <path
       fill="none"
       stroke="#000000"
       stroke-linejoin="round"
       stroke-miterlimit="10"
       stroke-width="2"
       d="m 41.1209,26.8135 c 0,5.3343 3.3784,9.335 7.3791,9.335 4.0007,0 7.3791,-4.0007 7.3791,-9.335 0,-3.3784 -1.3336,-5.3343 -4.0007,-8.0014 -2.6671,2.6671 -10.6686,6.0455 -10.6686,7.3791 z"
       id="path27" />
    <path
       d="m 47.25,26.5 c 0,0.7143 -0.5357,1.25 -1.25,1.25 -0.7143,0 -1.25,-0.5357 -1.25,-1.25 0,-0.7143 0.5357,-1.25 1.25,-1.25 0.7143,0 1.25,0.5357 1.25,1.25"
       id="path28" />
    <path
       d="m 52.25,26.5 c 0,0.7143 -0.5357,1.25 -1.25,1.25 -0.7143,0 -1.25,-0.5357 -1.25,-1.25 0,-0.7143 0.5357,-1.25 1.25,-1.25 0.7143,0 1.25,0.5357 1.25,1.25"
       id="path29" />
    <path
       fill="none"
       stroke="#000000"
       stroke-linecap="round"
       stroke-linejoin="round"
       stroke-width="2"
       d="m 46.633,31.5332 c 1.1558,0.6223 2.5782,0.6223 3.734,0"
       id="path30" />
    <path
       fill="none"
       stroke="#000000"
       stroke-linecap="round"
       stroke-linejoin="round"
       stroke-width="2"
       d="m 12.2968,36.7474 c -1.5719,-2.1674 -1.8612,-5.0005 -0.7991,-7.5333 1.6003,-3.734 2.0448,-3.734 2.3115,-8.5349 0.0889,-2.7561 2.2226,-5.0676 4.9787,-5.3343 0,0 1.6892,-2.0448 5.3343,-2.0448 4.2674,0 8.1792,2.3115 9.1572,5.9566 1.0668,3.734 -0.1779,5.2453 0.889,8.0903 0.8191,2.1061 2.0231,4.0582 1.9908,6.287"
       id="path31" />
    <path
       fill="none"
       stroke="#000000"
       stroke-linejoin="round"
       stroke-miterlimit="10"
       stroke-width="2"
       d="m 30.8791,26.8135 -0.0889,-0.6223 c 0,-1.3336 -8.0015,-4.712 -10.6686,-7.3791 -2.6671,2.6671 -4.0007,4.623 -4.0007,8.0014 0,5.3343 3.3784,9.335 7.3791,9.335 4.0007,0 7.3791,-4.0007 7.3791,-9.335 z"
       id="path32" />
    <path
       d="m 24.75,26.5 c 0,-0.7143 0.5357,-1.25 1.25,-1.25 0.7143,0 1.25,0.5357 1.25,1.25 0,0.7143 -0.5357,1.25 -1.25,1.25 -0.7143,0 -1.25,-0.5357 -1.25,-1.25"
       id="path33" />
    <path
       d="m 19.75,26.5 c 0,-0.7143 0.5357,-1.25 1.25,-1.25 0.7143,0 1.25,0.5357 1.25,1.25 0,0.7143 -0.5357,1.25 -1.25,1.25 -0.7143,0 -1.25,-0.5357 -1.25,-1.25"
       id="path34" />
    <path
       fill="none"
       stroke="#000000"
       stroke-linecap="round"
       stroke-linejoin="round"
       stroke-width="2"
       d="m 21.633,31.5332 c 1.1558,0.6223 2.5782,0.6223 3.734,0"
       id="path35" />
  </g>
</svg>
