<?xml version="1.0" encoding="UTF-8" standalone="no"?>
<svg
   id="emoji"
   viewBox="0 0 55.934933 49.08226"
   version="1.1"
   sodipodi:docname="1f469-1f3fb-200d-1f3a4.svg"
   width="55.934933"
   height="49.08226"
   xmlns:inkscape="http://www.inkscape.org/namespaces/inkscape"
   xmlns:sodipodi="http://sodipodi.sourceforge.net/DTD/sodipodi-0.dtd"
   xmlns="http://www.w3.org/2000/svg"
   xmlns:svg="http://www.w3.org/2000/svg">
  <defs
     id="defs14" />
  <sodipodi:namedview
     id="namedview14"
     pagecolor="#ffffff"
     bordercolor="#000000"
     borderopacity="0.25"
     inkscape:showpageshadow="2"
     inkscape:pageopacity="0.0"
     inkscape:pagecheckerboard="0"
     inkscape:deskcolor="#d1d1d1" />
  <g
     id="color"
     transform="translate(-12.162967,-10.70644)">
    <path
       fill="#3f3f3f"
       d="m 45.3045,45.6162 c 2.4514,0 3.7516,0.5425 5.1709,1.4059 l 0.0148,-0.0244 V 58.8985 H 21.5072 V 46.9977 l -0.0826,-0.1495 c 1.3796,-0.7617 2.5886,-1.232 4.871,-1.232 l 0.0885,-0.0119 c 0,0 0.2787,11.8441 8.9179,12.9588 h 0.8504 c 8.6392,-1.1147 8.9179,-12.9588 8.9179,-12.9588"
       id="path1" />
    <rect
       x="58.346802"
       y="37.905998"
       width="4"
       height="10.4297"
       transform="matrix(0.7071,-0.7071,0.7071,0.7071,-12.8159,55.3014)"
       fill="#9b9b9a"
       id="rect1" />
    <circle
       cx="53.622002"
       cy="36.585899"
       fill="#d0cfce"
       id="ellipse1"
       r="4" />
  </g>
  <g
     id="hair"
     transform="translate(-12.162967,-10.70644)">
    <path
       fill="#a57939"
       d="m 58.0265,42.7938 c -1.3223,-0.3647 -1.8445,-1.8761 -1.7502,-3.2374 -1.5707,1.4034 -3.9748,1.3658 -5.4827,-0.1422 -1.5621,-1.5621 -1.5621,-4.0947 0,-5.6568 0.8289,-0.8289 1.9303,-1.2045 3.0157,-1.1536 -0.4639,-0.8731 -0.395,-2.3412 -0.778,-3.8458 0,0 -0.4278,-0.3276 -0.506,-0.7819 -0.0687,-0.3989 -0.1467,-0.8118 -0.2523,-1.2263 -0.5676,-2.2302 -1.2861,-7.7974 -8.3534,-12.6925 -2.4218,-1.6774 -4.865,0.5316 -4.865,0.5316 l -0.3099,-0.2285 c 0,0 -3.767,-6.1694 -10.4646,-0.815 -6.6976,5.3544 -7.7859,10.4623 -8.3535,12.6925 -0.5676,2.2302 -0.3391,4.4139 -2.1568,4.6323 -1.8178,0.2183 -2.7274,3.125 -1.8178,4.5105 0.9096,1.3854 0.6826,4.3608 -1.2472,4.893 -1.9299,0.5323 -2.8215,4.2902 -1.8727,5.8823 0.5701,1.1254 2.2085,2.8893 4.9567,4.5168 1.2208,-3.0382 3.7885,-5.7533 9.0735,-5.7533 3.17,2.1047 5.8896,3.5601 8.9375,3.5739 3.048,-0.0138 5.7676,-1.4692 8.9375,-3.5739 5.4276,0 7.9862,2.8235 9.1662,5.9154 1.8039,-0.6282 3.663,-1.3354 5.5985,-2.1588 2.8642,-1.2183 0.4543,-5.35 -1.4755,-5.8823 z"
       id="path2" />
  </g>
  <g
     id="skin"
     transform="translate(-12.162967,-10.70644)">
    <path
       fill="#fadcbc"
       d="m 24.8142,26.0388 c -0.9299,0.096 1.3287,2.7283 1.3287,3.7068 0,1.1735 -1.4449,1.4633 -1.2299,2.5538 1.2196,6.1835 5.6861,10.769 11.0095,10.769 6.2621,0 11.3385,-6.3455 11.3385,-14.1732 0,-0.9784 -0.0793,-1.9337 -0.2303,-2.8564 0,0 -6.737,-3.4848 -8.3708,-6.8039 V 18.668 c 0,0 -0.8335,2.2193 -2.3769,2.7968 v 0 l -0.7643,-4.8041 v 0 c 0,0 -5.7542,8.867 -10.7045,9.3781 z"
       id="path3" />
    <path
       fill="#fadcbc"
       d="m 44.7375,44.9195 c -3.1699,2.1047 -5.8895,3.5601 -8.9375,3.5739 -3.0479,-0.0138 -5.7675,-1.4692 -8.9375,-3.5739 -12,0 -10,13.9957 -10,13.9957 l 4.6447,-0.0244 V 46.9977 l -0.0826,-0.1495 c 1.3796,-0.7617 2.5886,-1.232 4.871,-1.232 l 0.0885,-0.0119 c 0,0 0.2787,11.8441 8.9179,12.9588 h 0.8504 c 8.6392,-1.1147 8.9179,-12.9588 8.9179,-12.9588 l 0.2342,0.0119 c 2.4514,0 3.7516,0.5425 5.1709,1.4059 l 0.0148,-0.0244 v 11.7414 l 4.2473,-0.0223 c 0,0 2,-13.7973 -10,-13.7973 z"
       id="path4" />
  </g>
  <g
     id="skin-shadow"
     transform="translate(-12.162967,-10.70644)" />
  <g
     id="line"
     transform="translate(-12.162967,-10.70644)">
    <path
       d="m 41.9226,27.0667 c 0,1.1045 -0.8965,2 -2,2 -1.1035,0 -2,-0.8955 -2,-2 0,-1.1035 0.8965,-2 2,-2 1.1035,0 2,0.8965 2,2"
       id="path5" />
    <path
       d="m 33.9226,27.0667 c 0,1.1045 -0.8965,2 -2,2 -1.1035,0 -2,-0.8955 -2,-2 0,-1.1035 0.8965,-2 2,-2 1.1035,0 2,0.8965 2,2"
       id="path6" />
    <path
       d="m 35.9225,37.0691 c -1.1519,0 -2.3037,-0.2861 -3.4473,-0.8579 -0.4941,-0.2471 -0.6943,-0.8477 -0.4473,-1.3418 0.2466,-0.4937 0.8462,-0.6943 1.3418,-0.4473 1.7178,0.8594 3.3877,0.8594 5.1055,0 0.4946,-0.247 1.0947,-0.0464 1.3418,0.4473 0.2471,0.4941 0.0469,1.0947 -0.4473,1.3418 -1.1435,0.5718 -2.2954,0.8579 -3.4472,0.8579 z"
       id="path7" />
    <path
       fill="none"
       stroke="#000000"
       stroke-linecap="round"
       stroke-linejoin="round"
       stroke-miterlimit="10"
       stroke-width="2"
       d="m 25.0079,32.2806 c 1.3428,5.9552 5.7209,10.3201 10.9146,10.3201 4.9713,0 9.1954,-3.9992 10.7256,-9.5644"
       id="path8" />
    <path
       fill="none"
       stroke="#000000"
       stroke-linecap="round"
       stroke-linejoin="round"
       stroke-miterlimit="10"
       stroke-width="2"
       d="m 54.7375,57.9195 c 0,0 2,-13 -10,-13 -3.1918,2.1279 -5.9263,3.5984 -9,3.5921 h 0.125 c -3.0736,0.0063 -5.8081,-1.4642 -9,-3.5921 -12,0 -10,13 -10,13"
       id="path9" />
    <rect
       x="58.346802"
       y="37.905998"
       width="4"
       height="10.4297"
       transform="matrix(0.7071,-0.7071,0.7071,0.7071,-12.8159,55.3014)"
       fill="none"
       stroke="#000000"
       stroke-linecap="round"
       stroke-linejoin="round"
       stroke-miterlimit="10"
       stroke-width="2"
       id="rect9" />
    <circle
       cx="53.622002"
       cy="36.585899"
       fill="none"
       stroke="#000000"
       stroke-linecap="round"
       stroke-linejoin="round"
       stroke-miterlimit="10"
       stroke-width="2"
       id="ellipse9"
       r="4" />
    <line
       x1="64.251801"
       x2="67.0979"
       y1="46.992298"
       y2="49.838402"
       fill="none"
       stroke="#000000"
       stroke-linecap="round"
       stroke-linejoin="round"
       stroke-miterlimit="10"
       stroke-width="2"
       id="line9" />
    <line
       x1="58.852901"
       x2="58.852901"
       y1="44.7887"
       y2="58.7887"
       fill="none"
       stroke="#000000"
       stroke-linecap="round"
       stroke-linejoin="round"
       stroke-miterlimit="10"
       stroke-width="2"
       id="line10" />
    <path
       fill="none"
       stroke="#000000"
       stroke-linecap="round"
       stroke-linejoin="round"
       stroke-miterlimit="10"
       stroke-width="2"
       d="m 38.6599,14.6725 c 0,0 -3.6231,-6.1695 -10.065,-0.8151 -6.4419,5.3544 -7.4886,10.4623 -8.0345,12.6925 -0.5459,2.2303 -0.3262,4.414 -2.0745,4.6323 -1.7484,0.2184 -2.6232,3.1251 -1.7484,4.5105 0.8749,1.3855 0.6565,4.3608 -1.1996,4.8931 -1.8561,0.5322 -3.4939,3.6986 -1.4194,5.8823"
       id="path10" />
    <path
       fill="none"
       stroke="#000000"
       stroke-linecap="round"
       stroke-linejoin="round"
       stroke-miterlimit="10"
       stroke-width="2"
       d="m 38.958,14.389 c 0,0 2.3499,-2.209 4.6792,-0.5316 6.7975,4.8951 7.4886,10.4623 8.0345,12.6925 0.1015,0.4145 0.1765,0.8274 0.2426,1.2263 0.0753,0.4543 0.1391,0.8905 0.2172,1.2905"
       id="path11" />
    <path
       fill="none"
       stroke="#000000"
       stroke-linecap="round"
       stroke-linejoin="round"
       stroke-miterlimit="10"
       stroke-width="2"
       d="m 47.2014,33.4751 c -1.9653,-1.5286 -0.0438,-6.9252 -0.0438,-6.9252 -2.2275,-0.4832 -8.2142,-8.1654 -8.2142,-8.1654 0,0 -0.6951,2.2068 -2.6604,3.0803 l -0.7643,-4.8041 c 0,0 -6.2493,8.9692 -11.0405,9.8892 0,0 3.6159,4.3048 0.122,6.0517 -3.4939,1.747 -2.5532,4.9133 -1.0246,5.2409"
       id="path12" />
    <path
       fill="none"
       stroke="#000000"
       stroke-linecap="round"
       stroke-linejoin="round"
       stroke-miterlimit="10"
       stroke-width="2"
       d="m 45.0703,44.9076 c 0,0 -0.2787,11.844 -8.9179,12.9588 H 35.302 C 26.6628,56.7516 26.3841,44.9076 26.3841,44.9076"
       id="path13" />
    <line
       x1="21.5072"
       x2="21.5072"
       y1="46.300999"
       y2="57.918301"
       fill="none"
       stroke="#000000"
       stroke-linecap="round"
       stroke-linejoin="round"
       stroke-miterlimit="10"
       stroke-width="2"
       id="line13" />
    <line
       x1="50.4902"
       x2="50.4902"
       y1="46.300999"
       y2="57.974998"
       fill="none"
       stroke="#000000"
       stroke-linecap="round"
       stroke-linejoin="round"
       stroke-miterlimit="10"
       stroke-width="2"
       id="line14" />
  </g>
</svg>
