<?xml version="1.0" encoding="UTF-8" standalone="no"?>
<svg
   id="emoji"
   viewBox="0 0 40 57.159801"
   version="1.1"
   sodipodi:docname="1f468-1f3ff-200d-1f373.svg"
   width="40"
   height="57.159801"
   xmlns:inkscape="http://www.inkscape.org/namespaces/inkscape"
   xmlns:sodipodi="http://sodipodi.sourceforge.net/DTD/sodipodi-0.dtd"
   xmlns="http://www.w3.org/2000/svg"
   xmlns:svg="http://www.w3.org/2000/svg">
  <defs
     id="defs16" />
  <sodipodi:namedview
     id="namedview16"
     pagecolor="#ffffff"
     bordercolor="#000000"
     borderopacity="0.25"
     inkscape:showpageshadow="2"
     inkscape:pageopacity="0.0"
     inkscape:pagecheckerboard="0"
     inkscape:deskcolor="#d1d1d1" />
  <g
     id="color"
     transform="translate(-15.9104,-0.6675)">
    <path
       fill="#ffffff"
       d="m 26.2746,20.9035 h 19.2715 v -0.5621 -5.4946 c 2.209,0 4,-1.7908 4,-4 0,-2.2091 -1.791,-4 -4,-4 -0.8757,0 -1.6789,0.2894 -2.3376,0.7666 0.3247,-0.5782 0.5254,-1.2355 0.5254,-1.9459 0,-2.2091 -1.7908,-4 -4,-4 -1.8202,0 -3.339,1.2234 -3.8235,2.8873 -0.4845,-1.6639 -2.0034,-2.8873 -3.8236,-2.8873 -2.2091,0 -4,1.7909 -4,4 0,0.7103 0.2007,1.3677 0.5254,1.9459 -0.6587,-0.4773 -1.4619,-0.7666 -2.3376,-0.7666 -2.2092,0 -4,1.7909 -4,4 0,2.2092 1.7908,4 4,4"
       id="path1" />
    <path
       fill="#ffffff"
       d="m 54.8479,57.7898 c 0,0 2,-12.8016 -10,-12.8016 -3.1919,2.1279 -5.9264,3.5984 -9,3.5921 h 0.125 c -3.0736,0.0063 -5.8082,-1.4642 -9,-3.5921 -12,0 -10,12.8016 -10,12.8016"
       id="path2" />
    <path
       fill="#d0cfce"
       d="M 47.7679,7.081 C 46.7806,6.4066 43.7091,7.4593 43.7091,7.4593 45.2072,3.7014 41.7749,1.8215 41.7749,1.8215 c 0,0 0.7999,3.7291 -1.5665,5.7485 -0.254,0.2167 -0.4339,0.5065 -0.4339,0.8404 v 12.3027 h 0.6366 l 0.3124,0.0363 h 5.3232 v -0.5621 -5.4946 c 2.209,0 4,-1.7908 4,-4 0,-1.5929 -0.9311,-2.9683 -2.2788,-3.6117 l -0.0183,0.3969"
       id="path3" />
    <path
       fill="#d0cfce"
       d="m 44.2544,45.1394 c -3.1699,2.1133 -9.076,6.2728 -17.3439,0 0.3845,5.5358 9.6727,10.6392 19.3119,5.8941 l 0.4192,6.7374 c 4.2378,0 8.1797,0 8.1797,0 0,0 1.4331,-12.6315 -10.5669,-12.6315 z"
       id="path4" />
  </g>
  <g
     id="hair"
     transform="translate(-15.9104,-0.6675)">
    <path
       fill="#000000"
       d="m 45.4255,20.8672 c 0.6529,1.3503 1.1307,2.8478 1.3939,4.4432 l -0.0644,-0.361 c 0,0 -3.2903,0.6195 -8.4569,-3.7624"
       id="path5" />
    <path
       fill="#000000"
       d="m 26.1925,20.8672 c -0.6529,1.3503 -1.1307,2.8478 -1.3939,4.4432 l 0.0644,-0.361 c 0,0 3.2903,0.6195 8.457,-3.7624"
       id="path6" />
  </g>
  <g
     id="skin"
     transform="translate(-15.9104,-0.6675)">
    <path
       fill="#6a462f"
       d="m 24.8922,24.8287 c -0.2094,1.077 -0.3204,2.202 -0.3204,3.3595 0,7.8276 5.0765,14.1732 11.3386,14.1732 6.2621,0 11.3386,-6.3456 11.3386,-14.1732 0,-1.0419 -0.0899,-2.0576 -0.2607,-3.0355 -3.4698,-0.2273 -6.2888,-1.8188 -8.6902,-4.2855 h -4.3876 c -2.5871,2.0607 -5.5438,3.4683 -9.0183,3.9615 z"
       id="path7" />
  </g>
  <g
     id="skin-shadow"
     transform="translate(-15.9104,-0.6675)" />
  <g
     id="line"
     transform="translate(-15.9104,-0.6675)">
    <path
       fill="none"
       stroke="#000000"
       stroke-linecap="round"
       stroke-linejoin="round"
       stroke-miterlimit="10"
       stroke-width="2"
       d="m 26.1996,20.8672 c -1.0332,2.1368 -1.6278,4.6421 -1.6278,7.321 0,7.8276 5.0765,14.1732 11.3386,14.1732 6.2621,0 11.3386,-6.3456 11.3386,-14.1732 0,-2.6789 -0.5946,-5.1842 -1.6278,-7.321"
       id="path8" />
    <path
       d="m 54.9104,57.8273 c -0.5523,0 -1,-0.4477 -1,-1 v -3 c 0,-4.4516 -4.4961,-7.8105 -8.6519,-7.9921 -6.205,5.0117 -12.4912,5.0117 -18.6963,0 -4.1557,0.1816 -8.6518,3.5405 -8.6518,7.9921 v 3 c 0,0.5523 -0.4478,1 -1,1 -0.5523,0 -1,-0.4477 -1,-1 v -3 c 0,-5.3247 5.1401,-9.9975 10.9995,-10 h 5e-4 c 0.2339,0 0.4604,0.0821 0.6401,0.232 5.625,4.6875 11.0947,4.6875 16.7197,0 0.1797,-0.1499 0.4063,-0.232 0.6402,-0.232 h 5e-4 c 5.8593,0.0025 10.9995,4.6753 10.9995,10 v 3 c 0,0.5523 -0.4478,1 -1,1 z"
       id="path9" />
    <path
       d="m 41.9105,26.8274 c 0,1.1045 -0.8965,2 -2,2 -1.1035,0 -2,-0.8955 -2,-2 0,-1.1035 0.8965,-2 2,-2 1.1035,0 2,0.8965 2,2"
       id="path10" />
    <path
       d="m 33.9105,26.8274 c 0,1.1045 -0.8965,2 -2,2 -1.1035,0 -2,-0.8955 -2,-2 0,-1.1035 0.8965,-2 2,-2 1.1035,0 2,0.8965 2,2"
       id="path11" />
    <path
       d="m 35.9104,36.8298 c -1.1519,0 -2.3037,-0.2862 -3.4473,-0.8579 -0.4941,-0.2471 -0.6943,-0.8477 -0.4472,-1.3418 0.2465,-0.4937 0.8461,-0.6944 1.3418,-0.4473 1.7177,0.8594 3.3876,0.8594 5.1054,0 0.4946,-0.2471 1.0947,-0.0464 1.3418,0.4473 0.2471,0.4941 0.0469,1.0947 -0.4472,1.3418 -1.1436,0.5717 -2.2955,0.8579 -3.4473,0.8579 z"
       id="path12" />
    <path
       fill="none"
       stroke="#000000"
       stroke-linecap="round"
       stroke-linejoin="round"
       stroke-miterlimit="10"
       stroke-width="2"
       d="m 26.5622,45.8352 c 0,0 3.6651,10.8583 20.1668,5.0964 v 5.8753"
       id="path13" />
    <circle
       cx="28.4105"
       cy="55.827301"
       r="1.5"
       id="circle13" />
    <circle
       cx="43.4105"
       cy="55.827301"
       r="1.5"
       id="circle14" />
    <path
       fill="none"
       stroke="#000000"
       stroke-linecap="round"
       stroke-linejoin="round"
       stroke-miterlimit="10"
       stroke-width="2"
       d="m 26.1925,20.8672 c -0.6529,1.3503 -1.1307,2.8478 -1.3939,4.4432 l 0.0644,-0.361 c 0,0 3.2903,0.6195 8.457,-3.7624"
       id="path14" />
    <path
       fill="none"
       stroke="#000000"
       stroke-linecap="round"
       stroke-linejoin="round"
       stroke-miterlimit="10"
       stroke-width="2"
       d="m 45.4255,20.8672 c 0.6529,1.3503 1.1307,2.8478 1.3939,4.4432 l -0.0644,-0.361 c 0,0 -3.2903,0.6195 -8.4569,-3.7624"
       id="path15" />
    <line
       x1="26.274599"
       x2="26.274599"
       y1="14.8468"
       y2="20.9035"
       fill="none"
       stroke="#000000"
       stroke-linecap="round"
       stroke-linejoin="round"
       stroke-miterlimit="10"
       stroke-width="2"
       id="line15" />
    <path
       fill="none"
       stroke="#000000"
       stroke-linecap="round"
       stroke-linejoin="round"
       stroke-miterlimit="10"
       stroke-width="2"
       d="m 26.2746,20.9035 h 19.2715 v -0.5621 -5.4946 c 2.209,0 4,-1.7908 4,-4 0,-2.2091 -1.791,-4 -4,-4 -0.8757,0 -1.6789,0.2894 -2.3376,0.7666 0.3247,-0.5782 0.5254,-1.2355 0.5254,-1.9459 0,-2.2091 -1.7908,-4 -4,-4 -1.8202,0 -3.339,1.2234 -3.8235,2.8873 -0.4845,-1.6639 -2.0034,-2.8873 -3.8236,-2.8873 -2.2091,0 -4,1.7909 -4,4 0,0.7103 0.2007,1.3677 0.5254,1.9459 -0.6587,-0.4773 -1.4619,-0.7666 -2.3376,-0.7666 -2.2092,0 -4,1.7909 -4,4 0,2.2092 1.7908,4 4,4"
       id="path16" />
  </g>
</svg>
