<svg xmlns="http://www.w3.org/2000/svg" xmlns:svg="http://www.w3.org/2000/svg" id="emoji" width="39.091" height="50" version="1.1" viewBox="0 0 39.091 50"><g id="color" transform="translate(-16.762661,-11)"><path id="path1" fill="#92d3f5" d="M 18,60.9 V 57 c 0,-5 3.8,-9 8.8,-9 6,5 12,5 18,0 5,0 9.2,4 9.2,9 v 3.9 z"/></g><g id="hair" transform="translate(-16.762661,-11)"><path id="path2" fill="#000" d="m 22.1,49.4 c 1.4,-0.9 3,-1.4 4.7,-1.4 6,5 12,5 18,0 1.7,0 3.3,0.5 4.7,1.3 1.2,-0.9 2.3,-1.8 3.1,-2.6 2.9,-3.1 3.7,-6.8 2,-10.8 -2.4,-5.7 -3,-5.6 -3.4,-12.8 0,-4.2 -3.2,-7.7 -7.4,-8 0,0 -2.6,-3 -8,-3 -6.4,0 -12.2,3.5 -13.7,9 -1.5,5.6 0.3,7.8 -1.3,12 -1.8,4.7 -5.8,8.4 -1.3,13.9 0.6,0.7 1.5,1.6 2.6,2.4 z"/></g><g id="skin" transform="translate(-16.762661,-11)"><path id="path3" fill="#a57939" d="m 25,32 c 0,8 4.8,12.9 10.8,12.9 6,0 11.2,-4.9 11.2,-12.9 0,-4 -1,-6 -1,-6 -2,-2 -4,-4 -4,-4 0,0 -12,2 -16,4 0,0 -1,2 -1,6 z"/></g><g id="line" transform="translate(-16.762661,-11)"><path id="path4" fill="none" stroke="#000" stroke-linecap="round" stroke-linejoin="round" stroke-width="2" d="m 18,60 v -3.1 c 0,-5 3.8,-9 8.8,-9 6,5 12,5 18,0 5,0 9.2,4 9.2,9 V 60"/><path id="path5" d="m 42,31 c 0,1.1 -0.9,2 -2,2 -1.1,0 -2,-0.9 -2,-2 0,-1.1 0.9,-2 2,-2 1.1,0 2,0.9 2,2"/><path id="path6" d="m 34,31 c 0,1.1 -0.9,2 -2,2 -1.1,0 -2,-0.9 -2,-2 0,-1.1 0.9,-2 2,-2 1.1,0 2,0.9 2,2"/><path id="path7" fill="none" stroke="#000" stroke-linejoin="round" stroke-width="2" d="m 25,32 c 0,8 4.8,12.9 10.8,12.9 6,0 11.2,-4.9 11.2,-12.9 0,-4 -1,-6 -1,-6 -2,-2 -4,-4 -4,-4 0,0 -12,2 -16,4 0,0 -1,2 -1,6 z"/><path id="path8" fill="none" stroke="#000" stroke-linecap="round" stroke-linejoin="round" stroke-width="2" d="m 32.8,38.2 c 1.9,1 4.1,1 6,0"/><path id="path9" fill="none" stroke="#000" stroke-linecap="round" stroke-linejoin="round" stroke-width="2" d="m 20,46 c -4,-6 -1.8,-8.3 0.1,-13 1.6,-4.2 -0.2,-6.5 1.3,-12 1.5,-5.5 7.3,-9 13.7,-9 5.4,0 8,3 8,3 4.2,0.4 7.4,3.9 7.4,8 0.4,7.2 1,7.2 3.4,12.8 1.8,4.1 1,6.8 -1.9,10.1"/></g></svg>