<svg xmlns="http://www.w3.org/2000/svg" xmlns:svg="http://www.w3.org/2000/svg" id="emoji" width="34.082" height="58.207" version="1.1" viewBox="0 0 34.082 58.207"><g id="skin" transform="translate(-19.4745,-6.4585253)"><path id="path1" fill="#fcea2b" d="m 51.3813,21.8414 c -0.116,-2.3275 -2.6853,-4.16 -4.9626,-4.1825 h -6.0729 a 4.68,4.68 0 0 0 -1.4263,0.2642 v 0 l -0.296,0.0938 a 4.7155,4.7155 0 0 0 -3.0918,3.8862 l -0.0355,0.195 v 0 l -0.5487,4.3446 -1.6875,1.1814 -6.7484,-6.2427 c 0,0 -1.4771,1.75 -0.4647,3.1424 1.0124,1.3924 3.835,5.39 5.9891,5.7993 a 4.2139,4.2139 0 0 0 4.429,-1.4331 10.6877,10.6877 0 0 0 1.6777,-4.1646 l 1.3162,1.4227 -1.9969,11.1791 -0.82,24.9091 c -0.0325,0.3191 0.8251,0.6521 1.02,0.9035 a 0.2454,0.2454 0 0 0 0.1539,0.091 c 0.2166,0 1.1515,-0.287 1.2315,-0.9945 l 2.0853,-22.96 a 5.026,5.026 0 0 1 0.31,-1.2429 l 1.1925,-0.7458 h 1.6446 l 0.996,0.6308 a 4.9891,4.9891 0 0 1 0.3562,1.3579 L 48.2042,62.09 c 0.08,0.7063 0.5283,1.1394 0.7449,1.1394 a 0.2444,0.2444 0 0 0 0.1538,-0.0912 c 0.1946,-0.2515 0.8313,-0.5207 0.7983,-0.84 l -0.2534,-20.9089 2.5,1.0525 c -0.0529,-0.12 0.8628,-0.7854 0.8569,-0.9171 z"/><circle id="circle1" cx="43.787" cy="10.618" r="3.066" fill="#fcea2b"/></g><g id="line" transform="translate(-19.4745,-6.4585253)"><g id="g4"><path id="path2" fill="none" stroke="#000" stroke-linecap="round" stroke-linejoin="round" stroke-width="2.025" d="m 38.3385,23.5453 c 2.3814,3.5766 0.6854,6.1825 0.0321,8.0989 a 33.7866,33.7866 0 0 0 -0.9086,5.683 c -0.6078,6.05 -1.0149,24.3012 -1.0149,24.3012 -0.0557,1.1136 0.5821,2.0247 1.4173,2.0247 a 2.1016,2.1016 0 0 0 1.75,-2.0115 l 2.57,-22.3034 c 0.1275,-1.1065 0.6874,-2.0116 1.2442,-2.0116 0.5568,0 1.1136,0.9051 1.2442,2.0116 l 2.5742,22.3034 a 2.1016,2.1016 0 0 0 1.75,2.0115 c 0.8352,0 1.473,-0.9111 1.4173,-2.0247 0,0 -0.5291,-18.0621 -1.0864,-24.0565 a 36.3223,36.3223 0 0 0 -0.8371,-5.9277 c -0.6249,-1.9259 -2.4459,-4.7977 -0.0291,-8.0989"/><path id="path3" fill="none" stroke="#000" stroke-linecap="round" stroke-linejoin="round" stroke-width="2.025" d="M 52.5437,41.7679 51.7419,22.533 A 5.3391,5.3391 0 0 0 46.47,17.4712 h -6.0747"/><g id="line-2"><path id="path4" fill="none" stroke="#000" stroke-linecap="round" stroke-linejoin="round" stroke-width="2.025" d="m 27.1857,22.0562 3.7528,4.29 c 1.834,2.0949 3.7084,1.5621 4.1662,-1.1838 L 35.4645,23 c 0.4578,-2.7465 2.64,-5.2417 4.8672,-5.52"/></g><line id="line4" x1="27.127" x2="22.607" y1="22.125" y2="62.186" fill="none" stroke="#000" stroke-linecap="round" stroke-miterlimit="10" stroke-width="2.025"/></g><circle id="circle4" cx="43.852" cy="10.786" r="2.954" fill="none" stroke="#000" stroke-miterlimit="10" stroke-width="1.97"/><path id="path5" fill="none" stroke="#000" stroke-linecap="round" stroke-linejoin="round" stroke-width="2" d="m 47.0922,7.5753 c 0,0 0.5786,-0.27 0.9252,0.0177 0.4081,0.3372 0.6856,1.5991 1.168,2.145 a 3.2605,3.2605 0 0 0 1.8128,1.072"/></g><g id="color-foreground" transform="translate(-19.4745,-6.4585253)"><g id="g7"><line id="line5" x1="25.196" x2="21.647" y1="21.698" y2="52.53" fill="none" stroke="#d0cfce" stroke-linecap="round" stroke-miterlimit="10" stroke-width="2"/><line id="line6" x1="21.647" x2="20.572" y1="52.53" y2="62.092" fill="none" stroke="#d22f27" stroke-linecap="round" stroke-miterlimit="10" stroke-width="2"/><circle id="circle6" cx="20.572" cy="62.172" r="1.097" fill="#d0cfce"/><line id="line7" x1="25.196" x2="24.407" y1="21.698" y2="28.556" fill="none" stroke="#000" stroke-linecap="round" stroke-miterlimit="10" stroke-width="2"/></g></g></svg>