<?xml version="1.0" encoding="UTF-8" standalone="no"?>
<svg
   id="emoji"
   viewBox="0 0 61.376057 44.106857"
   version="1.1"
   sodipodi:docname="1f469-1f3fb-200d-2764-fe0f-200d-1f48b-200d-1f469-1f3ff.svg"
   width="61.376057"
   height="44.106857"
   xmlns:inkscape="http://www.inkscape.org/namespaces/inkscape"
   xmlns:sodipodi="http://sodipodi.sourceforge.net/DTD/sodipodi-0.dtd"
   xmlns="http://www.w3.org/2000/svg"
   xmlns:svg="http://www.w3.org/2000/svg">
  <defs
     id="defs16" />
  <sodipodi:namedview
     id="namedview16"
     pagecolor="#ffffff"
     bordercolor="#000000"
     borderopacity="0.25"
     inkscape:showpageshadow="2"
     inkscape:pageopacity="0.0"
     inkscape:pagecheckerboard="0"
     inkscape:deskcolor="#d1d1d1" />
  <g
     id="color"
     transform="translate(-5.5288115,-10.993143)">
    <path
       fill="#ea5a47"
       d="m 36,14.7 c 1.1,-2.4 4,-3.4 6.3,-2.2 2.3,1.2 3.3,4 2.2,6.4 -0.1,0.3 -0.3,0.5 -0.4,0.7 L 36,30 27.9,19.6 c -0.2,-0.2 -0.3,-0.5 -0.4,-0.7 -1.1,-2.4 -0.1,-5.2 2.2,-6.4 2.3,-1.2 5.2,-0.2 6.3,2.2 z"
       id="path1" />
  </g>
  <g
     id="hair"
     transform="translate(-5.5288115,-10.993143)">
    <g
       id="hair-b">
      <path
         fill="#a57939"
         d="m 38.7,55 c -3,-4.5 -0.6,-8.8 0.8,-12.3 1.2,-3.2 -0.2,-4.9 1,-9.1 1.1,-4.2 5.5,-6.8 10.4,-6.8 4.1,0 6.1,2.3 6.1,2.3 3.2,0.3 5.6,2.9 5.6,6.1 0.3,5.4 0.8,5.4 2.6,9.7 1.3,3.1 0.8,7.6 -1.4,10.2"
         id="path2" />
    </g>
    <g
       id="hair-a">
      <path
         fill="#a57939"
         d="m 11.5,52.6 c -8.1,1.2 -4.2,-6 -2.8,-9.5 1.2,-3.2 -0.2,-4.9 1,-9.1 1.1,-4.1 5.5,-6.7 10.3,-6.7 4.1,0 6,2.3 6,2.3 3.1,0.3 5.5,2.9 5.6,6 0.3,5.4 0,3.1 1.6,7.4 2.6,6.1 1.7,10.1 -3.5,9.7"
         id="path3" />
    </g>
  </g>
  <g
     id="skin"
     transform="translate(-5.5288115,-10.993143)">
    <g
       id="skin-b">
      <path
         fill="#6a462f"
         d="m 43.2,41.9 c 0,6.1 3.8,10.6 8.3,10.6 4.5,0 8.3,-4.5 8.3,-10.6 0,-3.8 -1.5,-6.1 -4.5,-9.1 -3,3 -12.1,6.8 -12.1,8.3 0,0 0,0.8 0,0.8 z"
         id="path4" />
    </g>
    <g
       id="skin-a">
      <path
         fill="#fadcbc"
         d="m 29.2,41.5 c 0,6.2 -3.9,11.3 -8.7,11.3 -4.8,0 -8.7,-5.1 -8.7,-11.3 0,-1.9 1,-4.2 1,-4.2 0,0 4.3,-1.7 7.6,-1.7 3.2,0 7.5,1.5 7.5,1.5 0,0 1.3,2.3 1.3,4.4 z"
         id="path5" />
    </g>
  </g>
  <g
     id="skin-shadow"
     transform="translate(-5.5288115,-10.993143)" />
  <g
     id="line"
     transform="translate(-5.5288115,-10.993143)">
    <path
       fill="none"
       stroke="#000000"
       stroke-linecap="round"
       stroke-linejoin="round"
       stroke-width="2"
       d="m 38.7,54 c -3,-4.5 -0.6,-7.8 0.8,-11.3 1.2,-3.2 -0.2,-4.9 1,-9.1 1.1,-4.2 5.5,-6.8 10.4,-6.8 4.1,0 6.1,2.3 6.1,2.3 3.2,0.3 5.6,2.9 5.6,6.1 0.3,5.4 0.8,5.4 2.6,9.7 1.3,3.1 0.8,6.6 -1.4,9.2"
       id="path6" />
    <path
       fill="none"
       stroke="#000000"
       stroke-linejoin="round"
       stroke-miterlimit="10"
       stroke-width="2"
       d="m 43.2,41.9 c 0,6.1 3.8,10.6 8.3,10.6 4.5,0 8.3,-4.5 8.3,-10.6 0,-3.8 -1.5,-6.1 -4.5,-9.1 -3,3 -12.1,6.8 -12.1,8.3 0,0 0,0.8 0,0.8 z"
       id="path7" />
    <path
       fill="none"
       stroke="#000000"
       stroke-linecap="round"
       stroke-linejoin="round"
       stroke-width="2"
       d="m 49.2,47.4 c 0.6,0.8 1.4,0.8 2.1,0"
       id="path8" />
    <path
       fill="none"
       stroke="#000000"
       stroke-linecap="round"
       stroke-miterlimit="10"
       stroke-width="2"
       d="m 53.9,41.1 c 0,0 1.5,1.5 3,0"
       id="path9" />
    <path
       fill="none"
       stroke="#000000"
       stroke-linecap="round"
       stroke-miterlimit="10"
       stroke-width="2"
       d="m 46.3,41.8 c 0,0 1.5,1.5 3,0"
       id="path10" />
    <path
       fill="none"
       stroke="#000000"
       stroke-linejoin="round"
       stroke-miterlimit="10"
       stroke-width="2"
       d="m 29.2,41.5 c 0,6.2 -3.9,11.3 -8.7,11.3 -4.8,0 -8.7,-5.1 -8.7,-11.3 0,-1.9 1,-4.2 1,-4.2 0,0 4.3,-1.7 7.6,-1.7 3.2,0 7.5,1.5 7.5,1.5 0,0 1.3,2.3 1.3,4.4 z"
       id="path11" />
    <path
       fill="none"
       stroke="#000000"
       stroke-linecap="round"
       stroke-linejoin="round"
       stroke-width="2"
       d="m 21.2,47.4 c 0.6,0.7 1.4,0.7 2.1,0"
       id="path12" />
    <path
       fill="none"
       stroke="#000000"
       stroke-linecap="round"
       stroke-miterlimit="10"
       stroke-width="2"
       d="m 15.8,41.1 c 0,0 1.5,1.5 3,0"
       id="path13" />
    <path
       fill="none"
       stroke="#000000"
       stroke-linecap="round"
       stroke-miterlimit="10"
       stroke-width="2"
       d="m 23.2,41.8 c 0,0 1.5,1.5 3,0"
       id="path14" />
    <path
       fill="none"
       stroke="#000000"
       stroke-linecap="round"
       stroke-linejoin="round"
       stroke-width="2"
       d="m 11.5,51.6 c -8.1,1.2 -4.2,-5 -2.8,-8.5 1.2,-3.2 -0.2,-4.9 1,-9.1 1.1,-4.1 5.5,-6.7 10.3,-6.7 4.1,0 6,2.3 6,2.3 3.1,0.3 5.5,2.9 5.6,6 0.3,5.4 0,3.1 1.6,7.4 2.6,6.1 1.7,9.1 -3.5,8.7"
       id="path15" />
    <path
       fill="none"
       stroke="#000000"
       stroke-linecap="round"
       stroke-linejoin="round"
       stroke-width="2"
       d="m 36,14.7 c 1.1,-2.4 4,-3.4 6.3,-2.2 2.3,1.2 3.3,4 2.2,6.4 -0.1,0.3 -0.3,0.5 -0.4,0.7 L 36,30 27.9,19.6 c -0.2,-0.2 -0.3,-0.5 -0.4,-0.7 -1.1,-2.4 -0.1,-5.2 2.2,-6.4 2.3,-1.2 5.2,-0.2 6.3,2.2 z"
       id="path16" />
  </g>
</svg>
