<?xml version="1.0" encoding="UTF-8" standalone="no"?>
<svg
   id="emoji"
   viewBox="0 0 52.363503 49.148151"
   version="1.1"
   sodipodi:docname="1f468-1f3fd-200d-1f3a4.svg"
   width="52.363503"
   height="49.148151"
   xmlns:inkscape="http://www.inkscape.org/namespaces/inkscape"
   xmlns:sodipodi="http://sodipodi.sourceforge.net/DTD/sodipodi-0.dtd"
   xmlns="http://www.w3.org/2000/svg"
   xmlns:svg="http://www.w3.org/2000/svg">
  <defs
     id="defs20" />
  <sodipodi:namedview
     id="namedview20"
     pagecolor="#ffffff"
     bordercolor="#000000"
     borderopacity="0.25"
     inkscape:showpageshadow="2"
     inkscape:pageopacity="0.0"
     inkscape:pagecheckerboard="0"
     inkscape:deskcolor="#d1d1d1" />
  <g
     id="color"
     transform="translate(-15.774401,-9.715949)">
    <path
       fill="#ffffff"
       d="m 54.7775,58.5922 c 0,0 2,-13.7973 -10,-13.7973 -3.1919,2.1192 -5.9264,3.5837 -9,3.5775 h 0.125 c -3.0736,0.0062 -5.8082,-1.4583 -9,-3.5775 -12,0 -10,13.7973 -10,13.7973"
       id="path1" />
    <path
       fill="#61b2e4"
       d="m 26.9025,44.7949 c -12,0 -10,13.9674 -10,13.9674 h 15.8934 c 0,0 -4.4214,-3.2647 -5.8934,-13.9674"
       id="path2" />
    <path
       fill="#61b2e4"
       d="m 44.7775,44.7949 c 12,0 10,13.9674 10,13.9674 h -15.748 c 0,0 5.4224,-7.4433 5.748,-13.9674"
       id="path3" />
    <path
       fill="#92d3f5"
       d="m 33.5327,48.2842 c 0,0 -1.2063,6.0214 2.3073,6.0214 3.5135,0 2.3072,-6.0214 2.3072,-6.0214"
       id="path4" />
    <rect
       x="58.386902"
       y="37.781399"
       width="4"
       height="10.4297"
       transform="matrix(0.7071,-0.7071,0.7071,0.7071,-12.716,55.2933)"
       fill="#9b9b9a"
       id="rect4" />
    <circle
       cx="53.6619"
       cy="36.461399"
       fill="#d0cfce"
       id="ellipse4"
       r="4" />
    <path
       fill="#92d3f5"
       d="M 34.9896,54.4882 32.5744,58.126 C 28.9446,56.3721 26.9025,45.1638 26.9025,45.1638 l -5.1046,6.9347 2.974,1.842 -0.9985,3.1134 8.8689,1.0721"
       id="path5" />
    <polygon
       fill="#92d3f5"
       points="38.9764,58.7496 32.6649,58.7496 34.1719,56.7063 35.6789,54.0961 37.4694,56.7063 "
       id="polygon5" />
    <path
       fill="#92d3f5"
       d="m 36.6904,54.4882 2.4151,3.6378 c 3.6298,-1.7539 5.672,-12.9622 5.672,-12.9622 l 5.1045,6.9347 -2.974,1.842 0.9985,3.1134 -8.8689,1.0721"
       id="path6" />
  </g>
  <g
     id="hair"
     transform="translate(-15.774401,-9.715949)">
    <path
       fill="#6a462f"
       d="M 41.7739,15.7153 41.1485,15.091 c -0.2869,-0.736 -2.9576,-6.849 -11.302,-3.2994 -2.1059,0.8958 -3.98,2.2516 -5.6163,3.8515 0,0 -2.8374,2.382 -3.9208,4.0349 0,0 -1.6869,-0.2843 -3.267,-1.7639 0,0 -0.435,6.6434 7.5762,7.5773 0,0 2.8584,0.0223 6.1913,-2.8191 L 32.2152,22.05 c 3.0391,-0.1977 5.3514,-1.1826 5.3532,-2.3707 l 1.2075,-0.5347 0.927,-0.2524 c 0,0 4.6008,8.0972 7.3029,6.0499 l 0.0027,-5e-4 c 0.2297,-5.3041 -1.0354,-9.058 -5.2346,-9.2263 z"
       id="path7" />
  </g>
  <g
     id="skin"
     transform="translate(-15.774401,-9.715949)">
    <path
       fill="#c19a65"
       d="m 39.7029,18.8922 -0.927,0.2524 -1.2075,0.5347 c -0.0018,1.1881 -2.3141,2.173 -5.3532,2.3707 l -1.4053,0.6223 c -3.2748,2.7919 -6.0849,2.8188 -6.1821,2.819 -0.2001,1.0543 -0.3173,2.1485 -0.3173,3.2793 0,7.8277 5.0764,14.1733 11.3386,14.1733 6.2622,0 11.3386,-6.3456 11.3386,-14.1733 0,-1.2493 -0.1422,-2.4543 -0.385,-3.6083 -2.7317,1.0607 -6.8998,-6.2701 -6.8998,-6.2701 z"
       id="path8" />
  </g>
  <g
     id="skin-shadow"
     transform="translate(-15.774401,-9.715949)" />
  <g
     id="line"
     transform="translate(-15.774401,-9.715949)">
    <path
       d="m 41.9625,26.9421 c 0,1.1045 -0.8965,2 -2,2 -1.1035,0 -2,-0.8955 -2,-2 0,-1.1035 0.8965,-2 2,-2 1.1035,0 2,0.8965 2,2"
       id="path9" />
    <path
       d="m 33.9625,26.9421 c 0,1.1045 -0.8965,2 -2,2 -1.1035,0 -2,-0.8955 -2,-2 0,-1.1035 0.8965,-2 2,-2 1.1035,0 2,0.8965 2,2"
       id="path10" />
    <path
       d="m 35.9624,36.9445 c -1.1519,0 -2.3037,-0.2861 -3.4473,-0.8579 -0.4941,-0.2471 -0.6943,-0.8476 -0.4473,-1.3418 0.2466,-0.4936 0.8462,-0.6943 1.3418,-0.4473 1.7178,0.8594 3.3877,0.8594 5.1055,0 0.4946,-0.247 1.0947,-0.0463 1.3418,0.4473 0.2471,0.4942 0.0469,1.0947 -0.4473,1.3418 -1.1435,0.5718 -2.2954,0.8579 -3.4472,0.8579 z"
       id="path11" />
    <path
       fill="none"
       stroke="#000000"
       stroke-miterlimit="10"
       stroke-width="2"
       d="m 46.98,24.9598 c 0.21,1.07 0.32,2.2 0.32,3.34 0,7.83 -5.08,14.18 -11.34,14.18 -6.26,0 -11.34,-6.35 -11.34,-14.18 0,-0.97 0.08,-1.91 0.23,-2.82"
       id="path12" />
    <path
       fill="none"
       stroke="#000000"
       stroke-miterlimit="10"
       stroke-width="2"
       d="m 40.95,15.5798 c 0.08,0.04 0.16,0.09 0.23,0.14 0.14,0.09 0.28,0.18 0.41,0.28"
       id="path13" />
    <rect
       x="58.386902"
       y="37.781399"
       width="4"
       height="10.4297"
       transform="matrix(0.7071,-0.7071,0.7071,0.7071,-12.716,55.2933)"
       fill="none"
       stroke="#000000"
       stroke-linecap="round"
       stroke-linejoin="round"
       stroke-miterlimit="10"
       stroke-width="2"
       id="rect13" />
    <circle
       cx="53.6619"
       cy="36.461399"
       fill="none"
       stroke="#000000"
       stroke-linecap="round"
       stroke-linejoin="round"
       stroke-miterlimit="10"
       stroke-width="2"
       id="ellipse13"
       r="4" />
    <line
       x1="64.291702"
       x2="67.137901"
       y1="46.867699"
       y2="49.713799"
       fill="none"
       stroke="#000000"
       stroke-linecap="round"
       stroke-linejoin="round"
       stroke-miterlimit="10"
       stroke-width="2"
       id="line13" />
    <line
       x1="58.892799"
       x2="58.892799"
       y1="44.664101"
       y2="57.864101"
       fill="none"
       stroke="#000000"
       stroke-linecap="round"
       stroke-linejoin="round"
       stroke-miterlimit="10"
       stroke-width="2"
       id="line14" />
    <path
       fill="none"
       stroke="#000000"
       stroke-linecap="round"
       stroke-linejoin="round"
       stroke-miterlimit="10"
       stroke-width="2"
       d="m 41.7739,15.7153 c 4.1992,0.1683 5.4643,3.9222 5.2346,9.2263 l -0.0027,5e-4 c -2.7021,2.0473 -7.3029,-6.0499 -7.3029,-6.0499 z"
       id="path14" />
    <path
       fill="none"
       stroke="#000000"
       stroke-linecap="round"
       stroke-linejoin="round"
       stroke-miterlimit="10"
       stroke-width="2"
       d="m 33.5327,48.0978 c 0,0 -1.2063,6.0215 2.3073,6.0215 3.5135,0 2.3072,-6.0215 2.3072,-6.0215"
       id="path15" />
    <path
       fill="none"
       stroke="#000000"
       stroke-linecap="round"
       stroke-linejoin="round"
       stroke-miterlimit="10"
       stroke-width="2"
       d="M 34.9896,54.1193 32.5744,57.757 C 28.9446,56.0032 26.9025,44.7949 26.9025,44.7949 l -5.1046,6.9346 2.974,1.842 -0.9985,3.1134 8.8689,1.0721 z"
       id="path16" />
    <path
       fill="none"
       stroke="#000000"
       stroke-linecap="round"
       stroke-linejoin="round"
       stroke-miterlimit="10"
       stroke-width="2"
       d="m 36.6904,54.1193 2.4151,3.6377 c 3.6298,-1.7538 5.672,-12.9621 5.672,-12.9621 l 5.1045,6.9346 -2.974,1.842 0.9985,3.1134 -8.8689,1.0721 z"
       id="path17" />
    <path
       fill="none"
       stroke="#000000"
       stroke-linecap="round"
       stroke-linejoin="round"
       stroke-miterlimit="10"
       stroke-width="2"
       d="m 39.0934,19.004 2.0825,-3.8399 c 0,0 -2.4602,-7.1453 -11.3294,-3.3725 -2.1059,0.8958 -3.98,2.2516 -5.6163,3.8515 0,0 -2.8374,2.382 -3.9208,4.0348 0,0 -1.6869,-0.2843 -3.267,-1.7638 0,0 -0.435,6.6434 7.5762,7.5773 0,0 2.8584,0.0223 6.1913,-2.8191"
       id="path18" />
    <path
       fill="none"
       stroke="#000000"
       stroke-linecap="round"
       stroke-linejoin="round"
       stroke-miterlimit="10"
       stroke-width="2"
       d="m 39.1076,18.8922 c -0.0034,-0.463 -3.2917,6.1827 -13.917,2.8403"
       id="path19" />
    <path
       fill="none"
       stroke="#000000"
       stroke-linecap="round"
       stroke-linejoin="round"
       stroke-miterlimit="10"
       stroke-width="2"
       d="m 16.9025,57.7949 c 0,0 -2,-13 10,-13 3.1918,2.1279 5.9264,3.5984 9,3.5921 h -0.125 c 3.0736,0.0063 5.8081,-1.4642 9,-3.5921 12,0 10,13 10,13"
       id="path20" />
  </g>
</svg>
