<svg xmlns="http://www.w3.org/2000/svg" xmlns:svg="http://www.w3.org/2000/svg" id="emoji" width="48.164" height="59.403" version="1.1" viewBox="0 0 48.164 59.403"><g id="color" transform="translate(-8.2048385,-2.5555592)"><polyline id="polyline1" fill="#6a462f" points="10.113 50.156 10.247 60.95 19.888 61.229 21.082 50.176"/><polyline id="polyline2" fill="#6a462f" points="10.369 52.98 11.043 60.958 18.882 60.958 19.556 54.724"/><path id="path2" fill="#a57939" d="m 50.3692,52.6627 c 5.0161,0.1894 5,8.2957 5,8.2957 H 30.3735 L 21.7797,49.9058 H 10.1192 c 1.0244,-3.1706 5.7177,-8.176 6.8115,-11.8457 C 20.5437,25.939 9.2048,10.9584 9.2048,10.9584 21.5547,1.0701 41.451,3.9709 41.6469,3.9998 c 0.0034,5e-4 0.0025,-0.0015 7e-4,0.0015 -0.0738,0.1166 -5.286,8.3971 -6.2784,22.574 -1.0161,14.5157 -0.0139,18.8882 3.2856,22.9289 3.2996,4.0407 6.6983,2.9692 11.7144,3.1586 z"/><line id="line2" x1="22.278" x2="26.036" y1="9.14" y2="25.313" fill="none"/></g><g id="line" transform="translate(-8.2048385,-2.5555592)"><polyline id="polyline3" fill="none" stroke="#000" stroke-linecap="round" stroke-linejoin="round" stroke-width="2" points="10.369 52.98 11.043 60.958 18.882 60.958 19.556 54.724"/><path id="path3" fill="none" stroke="#000" stroke-linecap="round" stroke-linejoin="round" stroke-width="2" d="m 50.3692,52.6627 c 5.0161,0.1894 5,8.2957 5,8.2957 H 30.3735 L 21.7797,49.9058 H 10.3692 c 1.0244,-3.1706 5.4677,-8.176 6.5615,-11.8457 C 20.5437,25.939 9.2048,10.9584 9.2048,10.9584 21.6159,1.0211 41.6484,4 41.6484,4 c 0,0 -5.2797,8.2972 -6.2792,22.5752 -1.0161,14.5157 -0.0139,18.8882 3.2856,22.9289 3.2996,4.0407 6.6983,2.9692 11.7144,3.1586 z"/><line id="line3" x1="22.278" x2="26.036" y1="9.14" y2="25.313" fill="none" stroke="#000" stroke-linecap="round" stroke-linejoin="round" stroke-width="2"/></g></svg>