<?xml version="1.0" encoding="UTF-8" standalone="no"?>
<svg
   id="emoji"
   viewBox="0 0 38 47.983994"
   version="1.1"
   sodipodi:docname="1f466.svg"
   width="38"
   height="47.983994"
   xmlns:inkscape="http://www.inkscape.org/namespaces/inkscape"
   xmlns:sodipodi="http://sodipodi.sourceforge.net/DTD/sodipodi-0.dtd"
   xmlns="http://www.w3.org/2000/svg"
   xmlns:svg="http://www.w3.org/2000/svg">
  <defs
     id="defs9" />
  <sodipodi:namedview
     id="namedview9"
     pagecolor="#ffffff"
     bordercolor="#000000"
     borderopacity="0.25"
     inkscape:showpageshadow="2"
     inkscape:pageopacity="0.0"
     inkscape:pagecheckerboard="0"
     inkscape:deskcolor="#d1d1d1" />
  <g
     id="color"
     transform="translate(-17,-13.016006)">
    <path
       fill="#92d3f5"
       d="M 54,60.9 V 57 c 0,-5 -4.2,-9 -9.2,-9 -6,5 -12,5 -18,0 -5,0 -8.8,4 -8.8,9 v 3.9 z"
       id="path1" />
  </g>
  <g
     id="hair"
     transform="translate(-17,-13.016006)">
    <path
       fill="#f1b31c"
       d="m 24,36 c -2,0 -3,-12 0,-16 6,-8 18,-8 24,0 3,4 2,16 0,16"
       id="path2" />
  </g>
  <g
     id="skin"
     transform="translate(-17,-13.016006)">
    <path
       fill="#fcea2b"
       d="m 25,34 c 0,8 4.8,11.9 10.8,11.9 6,0 11.2,-3.9 11.2,-11.9 0,-8 -3,-10 -3,-10 -8,4 -14,2 -16,0 0,0 -3,2 -3,10 z"
       id="path3" />
  </g>
  <g
     id="skin-shadow"
     transform="translate(-17,-13.016006)" />
  <g
     id="line"
     transform="translate(-17,-13.016006)">
    <path
       fill="none"
       stroke="#000000"
       stroke-linecap="round"
       stroke-linejoin="round"
       stroke-width="2"
       d="m 24,36 c -2,0 -3,-12 0,-16 6,-8 18,-8 24,0 3,4 2,16 0,16"
       id="path4" />
    <path
       fill="none"
       stroke="#000000"
       stroke-linecap="round"
       stroke-linejoin="round"
       stroke-width="2"
       d="m 54,60 v -3.1 c 0,-5 -4.2,-9 -9.2,-9 -6,5 -12,5 -18,0 -5,0 -8.8,4 -8.8,9 V 60"
       id="path5" />
    <path
       d="m 42,33 c 0,1.1 -0.9,2 -2,2 -1.1,0 -2,-0.9 -2,-2 0,-1.1 0.9,-2 2,-2 1.1,0 2,0.9 2,2"
       id="path6" />
    <path
       d="m 34,33 c 0,1.1 -0.9,2 -2,2 -1.1,0 -2,-0.9 -2,-2 0,-1.1 0.9,-2 2,-2 1.1,0 2,0.9 2,2"
       id="path7" />
    <path
       fill="none"
       stroke="#000000"
       stroke-linejoin="round"
       stroke-width="2"
       d="m 25,34 c 0,8 4.8,11.9 10.8,11.9 6,0 11.2,-3.9 11.2,-11.9 0,-8 -3,-10 -3,-10 -8,4 -14,2 -16,0 0,0 -3,2 -3,10 z"
       id="path8" />
    <path
       fill="none"
       stroke="#000000"
       stroke-linecap="round"
       stroke-linejoin="round"
       stroke-width="2"
       d="m 32.8,39.2 c 1.9,1 4.1,1 6,0"
       id="path9" />
  </g>
</svg>
