<svg xmlns="http://www.w3.org/2000/svg" xmlns:svg="http://www.w3.org/2000/svg" id="emoji" width="62.1" height="53.007" version="1.1" viewBox="0 0 62.1 53.007"><g id="color" transform="translate(-5,-7.9931431)"><path id="path1" fill="#92d3f5" d="M 6,61 V 57.7 C 6,54 9.7,51 13.4,51 c 4.4,3.7 8.8,3.7 13.3,0 3.7,0 7.4,3 7.4,6.7 V 61"/><path id="path2" fill="#92d3f5" d="M 38,61 V 57.7 C 38,54 41.7,51 45.4,51 c 4.4,3.7 8.8,3.7 13.3,0 3.7,0 7.4,3 7.4,6.7 V 61"/><path id="path3" fill="#ea5a47" d="m 36,11.7 c 1.1,-2.4 4,-3.4 6.3,-2.2 2.3,1.2 3.3,4 2.2,6.4 -0.1,0.3 -0.3,0.5 -0.4,0.7 L 36,27 27.9,16.6 C 27.7,16.4 27.6,16.1 27.5,15.9 26.4,13.5 27.4,10.7 29.7,9.5 32,8.3 34.9,9.3 36,11.7 Z"/></g><g id="hair" transform="translate(-5,-7.9931431)"><g id="hair-b"><path id="path4" fill="#a57939" d="m 43.2,25.2 c 0,0.3 13.2,-6.8 15.7,1.4 0,0 3.5,1.7 2.8,7.5 -0.1,1 -0.1,3.3 -1.1,4.3 l -2.8,-7.1 c 0,0 -7.4,2.8 -12.4,-0.6 l -2.3,7.5 c 0,0 -0.9,-1.3 -1,-3 0,0 -0.4,-4 0.4,-5.4 0.2,0 1.7,-2.6 0.7,-4.6 z"/></g><g id="hair-a"><path id="path5" fill="#a57939" d="m 9.1,31.2 c 0.6,-8.7 7.2,-8.8 10.5,-8.3 0.3,0.1 1.2,0 1.5,0 6,-0.8 9,6 9,9 0,1.1 0,3.8 -1.5,5.3 0,0 -3.4,-4.2 -3.6,-6.6 0,0 -11.4,4.3 -12.2,0.6 0,0 -0.8,3 -1.5,3.8 0,0 0,2.3 0,3 0,0 -2.5,-3 -2.2,-6.8 z"/></g></g><g id="skin" transform="translate(-5,-7.9931431)"><g id="skin-b"><path id="path6" fill="#fadcbc" d="m 57.8,31.3 c 0,0 -7.4,2.8 -12.4,-0.6 l -2.1,6.8 c 0.3,5.8 4.1,10.5 8.7,10.5 4.4,0 8,-4.2 8.6,-9.6 z"/></g><g id="skin-a"><path id="path7" fill="#a57939" d="m 25,30.8 c 0,0 -11.4,4.3 -12.2,0.6 0,0 -0.8,3 -1.5,3.8 0,0 0,2.3 0,3 v 0 c 0.6,5.5 4.2,9.8 8.6,9.8 4.6,0 8.4,-4.7 8.7,-10.6 C 28.3,37 25.2,33.1 25,30.8 Z"/></g></g><g id="line" transform="translate(-5,-7.9931431)"><path id="path8" fill="none" stroke="#000" stroke-miterlimit="10" stroke-width="2" d="m 60.6,35.6 c 0,0.4 0,0.8 0,1.2 0,6.2 -3.9,11.3 -8.7,11.3 -4.8,0 -8.7,-5.1 -8.7,-11.3 0,-0.2 0,-0.5 0,-0.7"/><path id="path9" fill="none" stroke="#000" stroke-linejoin="round" stroke-miterlimit="10" stroke-width="2" d="m 43.2,25.2 c 0,0.3 13.2,-6.8 15.7,1.4 0,0 3.5,1.7 2.8,7.5 -0.1,1 -0.1,3.3 -1.1,4.3 l -2.8,-7.1 c 0,0 -7.4,2.8 -12.4,-0.6 l -2.3,7.5 c 0,0 -0.9,-1.3 -1,-3 0,0 -0.4,-4 0.4,-5.4 0.2,0 1.7,-2.6 0.7,-4.6 z"/><path id="path10" fill="none" stroke="#000" stroke-linecap="round" stroke-linejoin="round" stroke-width="2" d="m 36,11.7 c 1.1,-2.4 4,-3.4 6.3,-2.2 2.3,1.2 3.3,4 2.2,6.4 -0.1,0.3 -0.3,0.5 -0.4,0.7 L 36,27 27.9,16.6 C 27.7,16.4 27.6,16.1 27.5,15.9 26.4,13.5 27.4,10.7 29.7,9.5 32,8.3 34.9,9.3 36,11.7 Z"/><path id="path11" fill="none" stroke="#000" stroke-miterlimit="10" stroke-width="2" d="m 28.6,36.1 c 0,0.2 0,0.4 0,0.7 0,6.2 -3.9,11.3 -8.7,11.3 -4.8,0 -8.7,-5.1 -8.7,-11.3 0,-0.2 0,-0.4 0,-0.7"/><path id="path12" fill="none" stroke="#000" stroke-linecap="round" stroke-linejoin="round" stroke-width="2" d="m 9.1,31.4 c 0.6,-8.7 7.2,-8.8 10.5,-8.3 0.3,0.1 1.2,0 1.5,0 6,-0.8 9,6 9,9 0,1.1 0,3.8 -1.5,5.3 0,0 -3.4,-4.2 -3.6,-6.6 0,0 -11.4,4.3 -12.2,0.6 0,0 -0.8,3 -1.5,3.8 0,0 0,2.3 0,3 0,0 -2.5,-3 -2.2,-6.8 z"/><path id="path13" fill="none" stroke="#000" stroke-linecap="round" stroke-linejoin="round" stroke-width="2" d="M 6,60 V 57.7 C 6,54 9.7,51 13.4,51 c 4.4,3.7 8.8,3.7 13.3,0 3.7,0 7.4,3 7.4,6.7 V 60"/><path id="path14" d="m 24.2,37.4 c 0,0.8 -0.6,1.4 -1.4,1.4 -0.8,0 -1.4,-0.6 -1.4,-1.4 0,-0.8 0.6,-1.4 1.4,-1.4 0.8,0 1.4,0.7 1.4,1.4"/><path id="path15" d="m 18.6,37.4 c 0,0.8 -0.6,1.4 -1.4,1.4 -0.8,0 -1.4,-0.6 -1.4,-1.4 0,-0.8 0.6,-1.4 1.4,-1.4 0.8,0 1.4,0.7 1.4,1.4"/><path id="path16" fill="none" stroke="#000" stroke-linecap="round" stroke-linejoin="round" stroke-width="2" d="m 17.9,43.2 c 1.3,0.7 2.9,0.7 4.2,0"/><path id="path17" d="m 56.2,37.7 c 0,0.8 -0.6,1.4 -1.4,1.4 -0.8,0 -1.4,-0.6 -1.4,-1.4 0,-0.8 0.6,-1.4 1.4,-1.4 0.8,0 1.4,0.6 1.4,1.4"/><path id="path18" d="m 50.6,37.7 c 0,0.8 -0.6,1.4 -1.4,1.4 -0.8,0 -1.4,-0.6 -1.4,-1.4 0,-0.8 0.6,-1.4 1.4,-1.4 0.8,0 1.4,0.6 1.4,1.4"/><path id="path19" fill="none" stroke="#000" stroke-linecap="round" stroke-linejoin="round" stroke-width="2" d="m 49.9,43.4 c 1.3,0.7 2.9,0.7 4.2,0"/><path id="path20" fill="none" stroke="#000" stroke-linecap="round" stroke-linejoin="round" stroke-width="2" d="M 38,60 V 57.7 C 38,54 41.7,51 45.4,51 c 4.4,3.7 8.8,3.7 13.3,0 3.7,0 7.4,3 7.4,6.7 V 60"/></g></svg>