<?xml version="1.0" encoding="UTF-8" standalone="no"?>
<svg
   id="emoji"
   viewBox="0 0 40 51.099998"
   version="1.1"
   sodipodi:docname="1f469-1f3ff.svg"
   width="40"
   height="51.099998"
   xmlns:inkscape="http://www.inkscape.org/namespaces/inkscape"
   xmlns:sodipodi="http://sodipodi.sourceforge.net/DTD/sodipodi-0.dtd"
   xmlns="http://www.w3.org/2000/svg"
   xmlns:svg="http://www.w3.org/2000/svg">
  <defs
     id="defs9" />
  <sodipodi:namedview
     id="namedview9"
     pagecolor="#ffffff"
     bordercolor="#000000"
     borderopacity="0.25"
     inkscape:showpageshadow="2"
     inkscape:pageopacity="0.0"
     inkscape:pagecheckerboard="0"
     inkscape:deskcolor="#d1d1d1" />
  <g
     id="color"
     transform="translate(-16,-9.9)">
    <path
       fill="#92d3f5"
       d="m 17,61 v -4 c 0,-5 5,-9 10,-9 6,5 12,5 18,0 5,0 10,4 10,9 v 4"
       id="path1" />
  </g>
  <g
     id="hair"
     transform="translate(-16,-9.9)">
    <path
       fill="#000000"
       d="m 18,47.3 c 1.1,1 2.4,1.9 3.6,2.7 1.7,-1.2 3.6,-2 5.4,-2.1 6.2,5 12.5,5 18.7,0 1.4,0.1 2.9,0.6 4.2,1.5 1.1,-0.7 2.1,-1.5 3,-2.3 1.2,-0.7 3.1,-8.3 0.4,-13 -0.4,-0.9 -0.8,-1.7 -1.2,-2.6 -1.5,-3.3 -2,-4.5 -2.3,-10.5 0,-3.7 -3.8,-6.8 -7.5,-7.1 -0.3,0 -0.5,-0.1 -0.7,-0.3 -0.1,-0.1 -2.4,-2.7 -7.2,-2.7 -6.2,0 -11.4,3.4 -12.7,8.2 -0.5,2 -0.7,4.1 -0.6,6.2 0.2,2 -0.1,4.1 -0.8,6 -0.2,0.8 -0.6,1.5 -1.1,2.1 -3.8,4.3 -1,14.2 -1.2,13.9 z"
       id="path2" />
  </g>
  <g
     id="skin"
     transform="translate(-16,-9.9)">
    <path
       fill="#6a462f"
       d="m 25.4,29.4 v 1 C 25.4,38 30,44 35.9,44 c 5.9,0 10.5,-6 10.5,-13.6 0,-4.7 -1.8,-7.5 -5.3,-11.1 -2.8,2.2 -5.8,4.1 -9,5.8 -2.6,1.4 -6.3,3.5 -6.7,4.3 z"
       id="path3" />
  </g>
  <g
     id="skin-shadow"
     transform="translate(-16,-9.9)" />
  <g
     id="line"
     transform="translate(-16,-9.9)">
    <path
       fill="none"
       stroke="#000000"
       stroke-linecap="round"
       stroke-linejoin="round"
       stroke-width="2"
       d="M 18.8,46.6 C 15.1,40.7 18.2,36.5 20,31.9 c 1.6,-4.2 -0.2,-6.5 1.3,-12 1.5,-5.5 7.3,-9 13.7,-9 5.4,0 8,3 8,3 4.2,0.4 7.4,3.9 7.4,8 0.4,7.2 1,7.2 3.4,12.8 1.7,3.9 1.1,8.3 -1.4,11.7"
       id="path4" />
    <path
       fill="none"
       stroke="#000000"
       stroke-linecap="round"
       stroke-linejoin="round"
       stroke-width="2"
       d="m 17,59.9 v -3 c 0,-5 5,-9 10,-9 6,5 12,5 18,0 5,0 10,4 10,9 v 3"
       id="path5" />
    <path
       d="m 42,29.9 c 0,1.1 -0.9,2 -2,2 -1.1,0 -2,-0.9 -2,-2 0,-1.1 0.9,-2 2,-2 1.1,0 2,0.9 2,2"
       id="path6" />
    <path
       d="m 34,29.9 c 0,1.1 -0.9,2 -2,2 -1.1,0 -2,-0.9 -2,-2 0,-1.1 0.9,-2 2,-2 1.1,0 2,0.9 2,2"
       id="path7" />
    <path
       fill="none"
       stroke="#000000"
       stroke-linejoin="round"
       stroke-width="2"
       d="m 25,30.9 c 0,8 5,14 11,14 6,0 11,-6 11,-14 0,-5 -2,-8 -6,-12 -4,4 -16,9 -16,11 z"
       id="path8" />
    <path
       fill="none"
       stroke="#000000"
       stroke-linecap="round"
       stroke-linejoin="round"
       stroke-width="2"
       d="m 33,38.1 c 1.9,1 4.1,1 6,0"
       id="path9" />
  </g>
</svg>
