<svg xmlns="http://www.w3.org/2000/svg" xmlns:svg="http://www.w3.org/2000/svg" id="emoji" width="36.431" height="48.7" version="1.1" viewBox="0 0 36.431 48.7"><g id="color" transform="translate(-9.8694435,-12.3001)"><path id="path1" fill="#92d3f5" d="m 36.0004,38.9986 h -6.5838 c -4.0035,3.2895 -7.9182,3.2895 -11.8327,0 -3.2918,0 -6.5836,2.6671 -6.5836,5.9566 V 61 h 25.0001 z"/><path id="path2" fill="#b1cc33" d="M 26.5004,61 V 58.4667 C 26.5004,56 29.0022,54 31.504,54 c 2.9751,2.4667 5.9502,2.4667 8.9929,0 2.5017,0 5.0035,2 5.0035,4.4667 V 61"/></g><g id="hair" transform="translate(-9.8694435,-12.3001)"><path id="path3" fill="#a57939" d="m 36.0004,40.7038 c 3.864,1.3703 5.567,5.8271 5.6943,9.6307 1.4225,0.308 2.8826,-0.3898 3.8057,-1.461 -0.9845,-0.8337 -1.7269,-1.9167 -2.1494,-3.1356 0.7369,-5.7252 -2.03,-9.5793 -7.3506,-8.4862 -5.3206,-1.0931 -8.0875,2.761 -7.3506,8.4862 -0.4225,1.2189 -1.1649,2.3019 -2.1494,3.1356 0.923,1.0712 2.3833,1.769 3.8057,1.461 0.1273,-3.8034 1.8302,-8.2605 5.6943,-9.6307 z"/><path id="path4" fill="#a57939" d="m 37.1204,33.6878 c 0.0208,-2.8854 -2.0185,-3.9404 -2.952,-6.3409 -1.0669,-2.845 0.1778,-4.3563 -0.889,-8.0903 C 32.3014,15.6115 28.3897,13.3 24.1222,13.3 c -3.6451,0 -5.3343,2.0448 -5.3343,2.0448 -2.7561,0.2667 -4.8898,2.5782 -4.9787,5.3343 -0.2667,4.8009 -0.7112,4.8009 -2.3115,8.5349 -1.1558,2.756 -1.5344,6.4376 0.4216,8.6602 l 1.7012,2.0374 0.3439,0.1638 c 1.081,-0.6766 2.3489,-1.0768 3.619,-1.0768 4.0035,3.2895 7.9181,3.2895 11.8327,0 H 36 c 0,0 1.1205,-2.6547 1.1204,-5.3108 z"/></g><g id="skin" transform="translate(-9.8694435,-12.3001)"><path id="path5" fill="#fcea2b" d="m 41.5038,48.517 c -0.0138,-0.0543 -0.0171,-0.1106 -0.0324,-0.1646 -0.5499,-3.1755 -2.2374,-6.5396 -5.471,-7.6487 -3.2336,1.1091 -4.9211,4.4731 -5.471,7.6487 -0.0153,0.054 -0.0186,0.1102 -0.0324,0.1646 0.8397,2.7543 2.9947,4.3117 5.5034,4.3118 2.5087,-1e-4 4.6638,-1.5575 5.5034,-4.3118 z"/><path id="path6" fill="#fcea2b" d="m 30.8927,26.8135 -0.0889,-0.6223 c 0,-1.3336 -8.0015,-4.712 -10.6686,-7.3791 -2.6671,2.6671 -4.0007,4.623 -4.0007,8.0014 0,5.3343 3.3784,9.335 7.3791,9.335 4.0007,0 7.3791,-4.0007 7.3791,-9.335 z"/></g><g id="line" transform="translate(-9.8694435,-12.3001)"><path id="path7" fill="none" stroke="#000" stroke-linecap="round" stroke-linejoin="round" stroke-miterlimit="10" stroke-width="2" d="M 11.0003,60 V 44.9552 c 0,-3.2895 3.2918,-5.9566 6.5836,-5.9566 2.6822,2.2539 5.3643,2.9634 8.0751,2.1288"/><path id="path8" fill="none" stroke="#000" stroke-linecap="round" stroke-linejoin="round" stroke-width="1.6" d="M 26.5003,60.2 V 58.4667 C 26.5003,56 29.0021,54 31.5039,54 c 2.9751,2.4667 5.9502,2.4667 8.9929,0 2.5017,0 5.0035,2 5.0035,4.4667 V 60.2"/><path id="path9" d="m 38.5982,45.7015 c 0.0333,0.4958 -0.3417,0.9247 -0.8377,0.958 -0.4959,0.0333 -0.9249,-0.3417 -0.9582,-0.8375 -0.0333,-0.4958 0.3417,-0.9247 0.8377,-0.958 0.0201,-0.0014 0.0402,-0.002 0.0604,-0.002 0.4796,-0.0155 0.8813,0.3601 0.8978,0.8395 z"/><path id="path10" fill="none" stroke="#000" stroke-linecap="round" stroke-linejoin="round" stroke-width="1.6" d="m 34.6642,49.1857 c 0.7749,0.6425 1.8974,0.6425 2.6723,0"/><path id="path11" fill="none" stroke="#000" stroke-miterlimit="10" stroke-width="1.6" d="M 41.5441,48.407 C 40.7302,51.2337 38.5439,52.8289 36,52.8289 h 6e-4 c -2.5439,0 -4.7302,-1.5952 -5.5441,-4.4219"/><path id="path12" d="m 34.3002,44.862 c 0.0201,0 0.0403,7e-4 0.0604,0.002 0.4959,0.0333 0.871,0.4622 0.8377,0.958 -0.0333,0.4958 -0.4623,0.8707 -0.9582,0.8375 -0.4959,-0.0333 -0.871,-0.4622 -0.8377,-0.958 0.0165,-0.4794 0.4182,-0.855 0.8978,-0.8395 z"/><path id="path13" fill="none" stroke="#000" stroke-linecap="round" stroke-linejoin="round" stroke-width="1.6" d="m 36.0003,40.7038 c 3.864,1.3703 5.567,5.8271 5.6943,9.6307 1.4225,0.308 2.8826,-0.3898 3.8057,-1.461 -0.9845,-0.8337 -1.7269,-1.9167 -2.1494,-3.1356 0.7369,-5.7252 -2.03,-9.5793 -7.3506,-8.4862 -5.3206,-1.0931 -8.0875,2.761 -7.3506,8.4862 -0.4225,1.2189 -1.1649,2.3019 -2.1494,3.1356 0.923,1.0712 2.3833,1.769 3.8057,1.461 0.1273,-3.8034 1.8302,-8.2605 5.6943,-9.6307 z"/><path id="path14" fill="none" stroke="#000" stroke-linecap="round" stroke-linejoin="round" stroke-width="2" d="m 12.2968,36.7474 c -1.5719,-2.1674 -1.8612,-5.0005 -0.7991,-7.5333 1.6003,-3.734 2.0448,-3.734 2.3115,-8.5349 0.0889,-2.7561 2.2226,-5.0676 4.9787,-5.3343 0,0 1.6892,-2.0448 5.3343,-2.0448 4.2674,0 8.1792,2.3115 9.1572,5.9566 1.0668,3.734 -0.1779,5.2453 0.889,8.0903 0.8191,2.1061 2.0231,4.0582 1.9908,6.287"/><path id="path15" fill="none" stroke="#000" stroke-linejoin="round" stroke-miterlimit="10" stroke-width="2" d="m 30.8791,26.8135 -0.0889,-0.6223 c 0,-1.3336 -8.0015,-4.712 -10.6686,-7.3791 -2.6671,2.6671 -4.0007,4.623 -4.0007,8.0014 0,5.3343 3.3784,9.335 7.3791,9.335 4.0007,0 7.3791,-4.0007 7.3791,-9.335 z"/><path id="path16" d="m 24.75,26.5 c 0,-0.7143 0.5357,-1.25 1.25,-1.25 0.7143,0 1.25,0.5357 1.25,1.25 0,0.7143 -0.5357,1.25 -1.25,1.25 -0.7143,0 -1.25,-0.5357 -1.25,-1.25"/><path id="path17" d="m 19.75,26.5 c 0,-0.7143 0.5357,-1.25 1.25,-1.25 0.7143,0 1.25,0.5357 1.25,1.25 0,0.7143 -0.5357,1.25 -1.25,1.25 -0.7143,0 -1.25,-0.5357 -1.25,-1.25"/><path id="path18" fill="none" stroke="#000" stroke-linecap="round" stroke-linejoin="round" stroke-width="2" d="m 21.633,31.5332 c 1.1558,0.6223 2.5782,0.6223 3.734,0"/></g></svg>