<svg xmlns="http://www.w3.org/2000/svg" xmlns:svg="http://www.w3.org/2000/svg" id="emoji" width="52" height="48.141" version="1.1" viewBox="0 0 52 48.141"><g id="color" transform="translate(-10.0003,-12.858852)"><path id="path1" fill="#92d3f5" d="M 11.0003,61 V 44.9552 c 0,-3.2895 3.2918,-5.9566 6.5836,-5.9566 3.9146,3.2895 7.8292,3.2895 11.8327,0 h 13.1673 c 3.9146,3.2895 7.8292,3.2895 11.8327,0 3.2918,0 6.5836,2.6671 6.5836,5.9566 V 61"/><path id="path2" fill="#b1cc33" d="M 17,61 V 58.4667 C 17,56 19.5018,54 22.0036,54 c 2.9751,2.4667 5.9502,2.4667 8.9929,0 C 33.4982,54 36,56 36,58.4667 V 61"/><path id="path3" fill="#b1cc33" d="M 36.0003,61 V 58.4667 C 36.0003,56 38.5021,54 41.0039,54 c 2.9751,2.4667 5.9502,2.4667 8.9929,0 2.5018,0 5.0036,2 5.0036,4.4667 V 61"/></g><g id="hair" transform="translate(-10.0003,-12.858852)"><path id="path4" fill="#a57939" d="m 13.9286,21.3903 c 0.5334,-7.7347 6.4011,-7.8236 9.335,-7.3791 0.2667,0.0889 1.0669,0 1.3336,0 5.3343,-0.7112 8.0014,5.3343 8.0014,8.0014 0,0.978 0.2255,3.3655 -1.1081,4.6991 0,0 -3.2483,-3.7211 -3.4261,-5.8549 0,0 -10.1352,3.8229 -10.8464,0.5334 0,0 -0.7112,2.6671 -1.3336,3.3784 0,0 -0.3288,2.0448 -0.3288,2.6671 2e-4,2e-4 -1.8937,-2.667 -1.627,-6.0454 z"/><path id="path5" fill="#a57939" d="m 45.5003,40.7038 c 3.864,1.3703 5.567,5.8271 5.6943,9.6307 1.4225,0.308 2.8826,-0.3898 3.8057,-1.461 -0.9845,-0.8337 -1.7269,-1.9167 -2.1494,-3.1356 0.7369,-5.7252 -2.03,-9.5793 -7.3506,-8.4862 -5.3206,-1.0931 -8.0875,2.761 -7.3506,8.4862 -0.4225,1.2189 -1.1649,2.3019 -2.1494,3.1356 0.923,1.0712 2.3833,1.769 3.8057,1.461 0.1273,-3.8034 1.8302,-8.2605 5.6943,-9.6307 z"/><path id="path6" fill="#a57939" d="m 24.1355,42.2716 c 0.4694,3.3631 4.487,-0.8706 4.487,-0.8706 0.5491,1.5737 4.4254,3.8674 4.4254,3.8674 1.0324,-0.9557 0.5259,-2.8525 0.3721,-3.5136 -0.5106,-2.7127 -3.0794,-4.5325 -5.8079,-4.1144 -0.3436,0.0276 -0.6888,0.0276 -1.0324,0 -2.2709,-0.3369 -6.03,-0.1483 -7.12,4.6433 -0.5317,2.3382 0.624,2.9844 0.624,2.9844 0,0 3.764,-5.0588 4.0518,-2.9965 z"/><path id="path7" fill="#a57939" d="m 56.4444,27.4357 c 0,-0.6223 -0.3288,-2.6671 -0.3288,-2.6671 -0.6224,-0.7113 -1.3336,-3.3784 -1.3336,-3.3784 -0.7112,3.2895 -10.8464,-0.5334 -10.8464,-0.5334 -0.1778,2.1338 -3.4261,5.8549 -3.4261,5.8549 -1.3336,-1.3336 -1.1081,-3.7211 -1.1081,-4.6991 0,-2.6671 2.6671,-8.7126 8.0014,-8.0014 0.2667,0 1.0669,0.0889 1.3336,0 2.9339,-0.4445 8.8016,-0.3556 9.335,7.3791 0.2667,3.3784 -1.6272,6.0456 -1.627,6.0454 z"/></g><g id="skin" transform="translate(-10.0003,-12.858852)"><path id="path8" fill="#fcea2b" d="m 28.0454,20.8569 c 0,0 -10.1351,3.8229 -10.8464,0.5334 0,0 -0.7112,2.6672 -1.3336,3.3784 0,0 -0.3185,1.9835 -0.3273,2.635 0.4585,5.148 3.8411,9.1996 7.9427,9.1996 4.2864,0 7.782,-4.426 7.9809,-9.9028 -0.1045,-0.1204 -3.2414,-3.7454 -3.4163,-5.8436 z"/><path id="path9" fill="#fcea2b" d="m 28.6225,41.401 c 0,0 -4.0176,4.2337 -4.487,0.8706 -0.2576,-1.8462 -3.2933,2.0046 -3.9283,2.834 -0.0739,0.3356 -0.1232,0.5668 -0.1232,0.5888 -0.1437,3.7311 2.7579,6.8753 6.4885,7.031 3.7306,-0.1557 6.6323,-3.2999 6.4886,-7.031 0,-0.0303 -0.0594,-0.2263 -0.15,-0.5089 -0.6787,-0.4149 -3.7996,-2.383 -4.2886,-3.7845 z"/><path id="path10" fill="#fcea2b" d="M 51.0034,48.517 C 50.9896,48.4627 50.9863,48.4064 50.971,48.3524 50.4211,45.1769 48.7336,41.8128 45.5,40.7037 c -3.2336,1.1091 -4.9211,4.4731 -5.471,7.6487 -0.0153,0.054 -0.0186,0.1102 -0.0324,0.1646 0.8397,2.7543 2.9947,4.3117 5.5034,4.3118 2.5087,-1e-4 4.6638,-1.5575 5.5034,-4.3118 z"/><path id="path11" fill="#fcea2b" d="m 40.5382,26.7005 c 0.1989,5.4768 3.6945,9.9028 7.9809,9.9028 4.1016,0 7.4842,-4.0516 7.9427,-9.1996 -0.0088,-0.6515 -0.3273,-2.635 -0.3273,-2.635 -0.6224,-0.7112 -1.3336,-3.3784 -1.3336,-3.3784 -0.7113,3.2895 -10.8464,-0.5334 -10.8464,-0.5334 -0.1749,2.0982 -3.3118,5.7232 -3.4163,5.8436 z"/></g><g id="line" transform="translate(-10.0003,-12.858852)"><path id="path12" fill="none" stroke="#000" stroke-miterlimit="10" stroke-width="2" d="m 31.5,25.5689 c 0,0.1839 0,0.3678 0,0.6437 0,5.7012 -3.5862,10.3908 -8,10.3908 -4.4138,0 -8,-4.6897 -8,-10.3908 0,-0.1839 0,-0.3678 0,-0.6437"/><path id="path13" fill="none" stroke="#000" stroke-linecap="round" stroke-linejoin="round" stroke-width="2" d="m 13.9286,21.3903 c 0.5334,-7.7347 6.4011,-7.8236 9.335,-7.3791 0.2667,0.0889 1.0669,0 1.3336,0 5.3343,-0.7112 8.0014,5.3343 8.0014,8.0014 0,0.978 0.2255,3.3655 -1.1081,4.6991 0,0 -3.2483,-3.7211 -3.4261,-5.8549 0,0 -10.1352,3.8229 -10.8464,0.5334 0,0 -0.7112,2.6671 -1.3336,3.3784 0,0 -0.3288,2.0448 -0.3288,2.6671 2e-4,2e-4 -1.8937,-2.667 -1.627,-6.0454 z"/><path id="path14" fill="none" stroke="#000" stroke-linecap="round" stroke-linejoin="round" stroke-width="2" d="M 11.0003,60 V 44.9552 c 0,-3.2895 3.2918,-5.9566 6.5836,-5.9566 0.541,0.4546 1.082,0.8464 1.6232,1.1754"/><path id="path15" fill="none" stroke="#000" stroke-linecap="round" stroke-linejoin="round" stroke-width="2" d="m 52.6455,40.2424 c 0.5886,-0.3426 1.1789,-0.7573 1.7711,-1.2439 3.2918,0 6.5836,2.6671 6.5836,5.9566 V 60"/><path id="path16" d="m 22.25,26.5 c 0,0.7143 -0.5357,1.25 -1.25,1.25 -0.7143,0 -1.25,-0.5357 -1.25,-1.25 0,-0.7143 0.5357,-1.25 1.25,-1.25 0.7143,0 1.25,0.5357 1.25,1.25"/><path id="path17" d="m 27.25,26.5 c 0,0.7143 -0.5357,1.25 -1.25,1.25 -0.7143,0 -1.25,-0.5357 -1.25,-1.25 0,-0.7143 0.5357,-1.25 1.25,-1.25 0.7143,0 1.25,0.5357 1.25,1.25"/><path id="path18" fill="none" stroke="#000" stroke-linecap="round" stroke-linejoin="round" stroke-width="2" d="m 21.633,31.5332 c 1.1558,0.6223 2.5782,0.6223 3.734,0"/><path id="path19" d="m 48.0979,45.7015 c 0.0333,0.4958 -0.3417,0.9247 -0.8377,0.958 -0.4959,0.0333 -0.9249,-0.3417 -0.9582,-0.8375 -0.0333,-0.4958 0.3417,-0.9247 0.8377,-0.958 0.0201,-0.0014 0.0402,-0.002 0.0604,-0.002 0.4796,-0.0155 0.8813,0.3601 0.8978,0.8395 z"/><path id="path20" fill="none" stroke="#000" stroke-linecap="round" stroke-linejoin="round" stroke-width="1.6" d="m 44.1639,49.1857 c 0.7749,0.6425 1.8974,0.6425 2.6723,0"/><path id="path21" fill="none" stroke="#000" stroke-miterlimit="10" stroke-width="1.6" d="m 51.0438,48.407 c -0.8139,2.8267 -3.0002,4.4219 -5.5441,4.4219 h 6e-4 c -2.5439,0 -4.7302,-1.5952 -5.5441,-4.4219"/><path id="path22" d="m 43.7999,44.862 c 0.0201,0 0.0403,7e-4 0.0604,0.002 0.4959,0.0333 0.871,0.4622 0.8377,0.958 -0.0333,0.4958 -0.4623,0.8707 -0.9582,0.8375 -0.4959,-0.0333 -0.871,-0.4622 -0.8377,-0.958 0.0165,-0.4794 0.4182,-0.855 0.8978,-0.8395 z"/><path id="path23" fill="none" stroke="#000" stroke-linecap="round" stroke-linejoin="round" stroke-width="1.6" d="M 17,60.2 V 58.4667 C 17,56 19.5018,54 22.0036,54 c 2.9751,2.4667 5.9502,2.4667 8.9929,0 C 33.4982,54 36,56 36,58.4667 V 60.2"/><path id="path24" fill="none" stroke="#000" stroke-linecap="round" stroke-linejoin="round" stroke-width="1.6" d="M 36.0003,60.2 V 58.4667 C 36.0003,56 38.5021,54 41.0039,54 c 2.9751,2.4667 5.9502,2.4667 8.9929,0 2.5018,0 5.0036,2 5.0036,4.4667 V 60.2"/><path id="path25" d="m 29.298,45.7015 c 0.0333,0.4958 -0.3417,0.9247 -0.8377,0.958 -0.4959,0.0333 -0.9249,-0.3417 -0.9582,-0.8375 -0.0333,-0.4958 0.3417,-0.9247 0.8377,-0.958 0.0201,-0.0014 0.0402,-0.002 0.0604,-0.002 0.4796,-0.0155 0.8813,0.3601 0.8978,0.8395 z"/><path id="path26" fill="none" stroke="#000" stroke-linecap="round" stroke-linejoin="round" stroke-width="1.6" d="m 25.1639,49.1857 c 0.7749,0.6425 1.8974,0.6425 2.6723,0"/><path id="path27" d="m 24.5998,44.862 c 0.0201,0 0.0403,7e-4 0.0604,0.002 0.4959,0.0333 0.871,0.4622 0.8377,0.958 -0.0333,0.4958 -0.4623,0.8707 -0.9582,0.8375 -0.4959,-0.0333 -0.871,-0.4622 -0.8377,-0.958 0.0165,-0.4794 0.4182,-0.855 0.8978,-0.8395 z"/><path id="path28" fill="none" stroke="#000" stroke-linecap="round" stroke-linejoin="round" stroke-width="1.6" d="m 45.5003,40.7038 c 3.864,1.3703 5.567,5.8271 5.6943,9.6307 1.4225,0.308 2.8826,-0.3898 3.8057,-1.461 -0.9845,-0.8337 -1.7269,-1.9167 -2.1494,-3.1356 0.7369,-5.7252 -2.03,-9.5793 -7.3506,-8.4862 -5.3206,-1.0931 -8.0875,2.761 -7.3506,8.4862 -0.4225,1.2189 -1.1649,2.3019 -2.1494,3.1356 0.923,1.0712 2.3833,1.769 3.8057,1.461 0.1273,-3.8034 1.8302,-8.2605 5.6943,-9.6307 z"/><path id="path29" fill="none" stroke="#000" stroke-miterlimit="10" stroke-width="1.6" d="m 33.0493,45.2683 c 0.0078,0.141 0.0117,0.283 0.0118,0.4261 0.1437,3.7311 -2.758,6.8753 -6.4886,7.031 -3.7306,-0.1557 -6.6322,-3.2999 -6.4885,-7.031 0,-0.0952 0.0017,-0.1899 0.0052,-0.2841"/><path id="path30" fill="none" stroke="#000" stroke-linecap="round" stroke-linejoin="round" stroke-width="1.6" d="m 24.1355,42.2716 c 0.4694,3.3631 4.487,-0.8706 4.487,-0.8706 0.5491,1.5737 4.4254,3.8674 4.4254,3.8674 1.0324,-0.9557 0.5259,-2.8525 0.3721,-3.5136 -0.5106,-2.7127 -3.0794,-4.5325 -5.8079,-4.1144 -0.3436,0.0276 -0.6888,0.0276 -1.0324,0 -2.2709,-0.3369 -6.03,-0.1483 -7.12,4.6433 -0.5317,2.3382 0.624,2.9844 0.624,2.9844 0,0 3.764,-5.0588 4.0518,-2.9965 z"/><path id="path31" fill="none" stroke="#000" stroke-linecap="round" stroke-linejoin="round" stroke-width="2" d="m 46.633,31.5332 c 1.1558,0.6223 2.5782,0.6223 3.734,0"/><path id="path32" fill="none" stroke="#000" stroke-miterlimit="10" stroke-width="2" d="m 56.5,25.5689 c 0,0.2759 0,0.4598 0,0.6437 0,5.7011 -3.5862,10.3908 -8,10.3908 -4.4138,0 -8,-4.6896 -8,-10.3908 0,-0.2759 0,-0.4598 0,-0.6437"/><path id="path33" fill="none" stroke="#000" stroke-linecap="round" stroke-linejoin="round" stroke-width="2" d="m 56.4444,27.4357 c 0,-0.6223 -0.3288,-2.6671 -0.3288,-2.6671 -0.6224,-0.7113 -1.3336,-3.3784 -1.3336,-3.3784 -0.7112,3.2895 -10.8464,-0.5334 -10.8464,-0.5334 -0.1778,2.1338 -3.4261,5.8549 -3.4261,5.8549 -1.3336,-1.3336 -1.1081,-3.7211 -1.1081,-4.6991 0,-2.6671 2.6671,-8.7126 8.0014,-8.0014 0.2667,0 1.0669,0.0889 1.3336,0 2.9339,-0.4445 8.8016,-0.3556 9.335,7.3791 0.2667,3.3784 -1.6272,6.0456 -1.627,6.0454 z"/><path id="path34" d="m 49.75,26.5 c 0,-0.7143 0.5357,-1.25 1.25,-1.25 0.7143,0 1.25,0.5357 1.25,1.25 0,0.7143 -0.5357,1.25 -1.25,1.25 -0.7143,0 -1.25,-0.5357 -1.25,-1.25"/><path id="path35" d="m 44.75,26.5 c 0,-0.7143 0.5357,-1.25 1.25,-1.25 0.7143,0 1.25,0.5357 1.25,1.25 0,0.7143 -0.5357,1.25 -1.25,1.25 -0.7143,0 -1.25,-0.5357 -1.25,-1.25"/></g></svg>