<?xml version="1.0" encoding="UTF-8" standalone="no"?>
<svg
   id="emoji"
   viewBox="0 0 40 44.700001"
   version="1.1"
   sodipodi:docname="1f469-1f3fc-200d-1f9b2.svg"
   width="40"
   height="44.700001"
   xmlns:inkscape="http://www.inkscape.org/namespaces/inkscape"
   xmlns:sodipodi="http://sodipodi.sourceforge.net/DTD/sodipodi-0.dtd"
   xmlns="http://www.w3.org/2000/svg"
   xmlns:svg="http://www.w3.org/2000/svg">
  <defs
     id="defs6" />
  <sodipodi:namedview
     id="namedview6"
     pagecolor="#ffffff"
     bordercolor="#000000"
     borderopacity="0.25"
     inkscape:showpageshadow="2"
     inkscape:pageopacity="0.0"
     inkscape:pagecheckerboard="0"
     inkscape:deskcolor="#d1d1d1" />
  <g
     id="skin"
     transform="translate(-16,-16.3)">
    <ellipse
       cx="35.799999"
       cy="31"
       rx="11"
       ry="14"
       fill="#debb90"
       id="ellipse1" />
  </g>
  <g
     id="color"
     transform="translate(-16,-16.3)">
    <path
       fill="#92d3f5"
       d="m 17,61 v -4 c 0,-5 5,-9 10,-9 6,5 12,5 18,0 5,0 10,4 10,9 v 4"
       id="path1" />
  </g>
  <g
     id="line"
     transform="translate(-16,-16.3)">
    <path
       fill="none"
       stroke="#000000"
       stroke-linecap="round"
       stroke-linejoin="round"
       stroke-width="2"
       d="m 17,59.9 v -3 c 0,-5 5,-9 10,-9 6,5 12,5 18,0 5,0 10,4 10,9 v 3"
       id="path2" />
    <path
       d="m 41.8,29.9 c 0,1.1 -0.9,2 -2,2 -1.1,0 -2,-0.9 -2,-2 0,-1.1 0.9,-2 2,-2 1.1,0 2,0.9 2,2"
       id="path3" />
    <path
       d="m 33.8,29.9 c 0,1.1 -0.9,2 -2,2 -1.1,0 -2,-0.9 -2,-2 0,-1.1 0.9,-2 2,-2 1.2,0 2,0.9 2,2"
       id="path4" />
    <path
       fill="none"
       stroke="#000000"
       stroke-linecap="round"
       stroke-linejoin="round"
       stroke-width="2"
       d="m 32.8,38.1 c 1.9,1 4.1,1 6,0"
       id="path5" />
    <path
       fill="none"
       stroke="#000000"
       stroke-linejoin="round"
       stroke-width="2"
       d="m 36,45 c -5.9,0 -11,-6 -11,-14 0,-3.3 1,-7.4 3,-10 0.3,-0.3 0.5,-0.6 0.8,-0.9 2,-1.8 4.5,-2.8 7.2,-2.8 v 0 c 2.7,0 5.2,1 7.2,2.8 0.3,0.3 0.6,0.6 0.8,0.9 2,2.6 3,6.7 3,10 0,8 -5.1,14 -11,14"
       id="path6" />
  </g>
</svg>
