<?xml version="1.0" encoding="UTF-8" standalone="no"?>
<svg
   id="emoji"
   viewBox="0 0 40 50"
   version="1.1"
   sodipodi:docname="1f468-1f3fb-200d-1f9b0.svg"
   width="40"
   height="50"
   xmlns:inkscape="http://www.inkscape.org/namespaces/inkscape"
   xmlns:sodipodi="http://sodipodi.sourceforge.net/DTD/sodipodi-0.dtd"
   xmlns="http://www.w3.org/2000/svg"
   xmlns:svg="http://www.w3.org/2000/svg">
  <defs
     id="defs12" />
  <sodipodi:namedview
     id="namedview12"
     pagecolor="#ffffff"
     bordercolor="#000000"
     borderopacity="0.25"
     inkscape:showpageshadow="2"
     inkscape:pageopacity="0.0"
     inkscape:pagecheckerboard="0"
     inkscape:deskcolor="#d1d1d1" />
  <g
     id="hair"
     transform="translate(-16,-11)">
    <path
       fill="#e27022"
       d="m 26,38 c -3,0 -4,-7 -4,-14 0,-6 5,-12 14,-12 9,0 14,6 14,12 0,7 -1,14 -4,14"
       id="path1" />
  </g>
  <g
     id="skin"
     transform="translate(-16,-11)">
    <path
       fill="#fadcbc"
       d="m 24.9,30.5 c -0.1,8 4.1,14 11,14 7.1,0 11.1,-6 11.1,-14 0,-5 -3,-10 -3,-10 -8,0 -10,3 -16,1 -1.9,2.6 -2.9,5.8 -3.1,9 z"
       id="path2" />
  </g>
  <g
     id="color"
     transform="translate(-16,-11)">
    <path
       fill="#92d3f5"
       d="m 17,61 v -4 c 0,-5 5,-9 10,-9 6,5 12,5 18,0 5,0 10,4 10,9 v 4"
       id="path3" />
  </g>
  <g
     id="line"
     transform="translate(-16,-11)">
    <path
       d="m 41.9,30 c 0,1.1 -0.9,2 -2,2 -1.1,0 -2,-0.9 -2,-2 0,-1.1 0.9,-2 2,-2 1.1,0 2,0.9 2,2"
       id="path4" />
    <path
       d="m 33.9,30 c 0,1.1 -0.9,2 -2,2 -1.1,0 -2,-0.9 -2,-2 0,-1.1 0.9,-2 2,-2 1.1,0 2,0.9 2,2"
       id="path5" />
    <path
       fill="none"
       stroke="#000000"
       stroke-linecap="round"
       stroke-linejoin="round"
       stroke-width="2"
       d="m 32.9,38.2 c 1.9,0.8 4.1,0.8 6,0"
       id="path6" />
    <path
       fill="none"
       stroke="#000000"
       stroke-linecap="round"
       stroke-linejoin="round"
       stroke-width="2"
       d="m 26,38 c -3,0 -4,-7 -4,-14 0,-6 5,-12 14,-12 9,0 14,6 14,12 0,7 -1,14 -4,14"
       id="path7" />
    <path
       fill="none"
       stroke="#000000"
       stroke-linecap="round"
       stroke-linejoin="round"
       stroke-width="2"
       d="m 17,60 v -3 c 0,-5 5,-9 10,-9 6,5 12,5 18,0 5,0 10,4 10,9 v 3"
       id="path8" />
    <path
       d="m 41.9,30 c 0,1.1 -0.9,2 -2,2 -1.1,0 -2,-0.9 -2,-2 0,-1.1 0.9,-2 2,-2 1.1,0 2,0.9 2,2"
       id="path9" />
    <path
       d="m 33.9,30 c 0,1.1 -0.9,2 -2,2 -1.1,0 -2,-0.9 -2,-2 0,-1.1 0.9,-2 2,-2 1.1,0 2,0.9 2,2"
       id="path10" />
    <path
       fill="none"
       stroke="#000000"
       stroke-linejoin="round"
       stroke-width="2"
       d="m 24.9,31 c -0.1,8 4.9,14 11,14 6,0 11.1,-6 11.1,-14 0,-5 -3,-11 -3,-11 -8,0 -10,3 -16,1 0,0 -3,5 -3.1,10 z"
       id="path11" />
    <path
       fill="none"
       stroke="#000000"
       stroke-linecap="round"
       stroke-linejoin="round"
       stroke-width="2"
       d="m 32.9,38.2 c 1.9,0.8 4.1,0.8 6,0"
       id="path12" />
  </g>
</svg>
