<svg xmlns="http://www.w3.org/2000/svg" xmlns:svg="http://www.w3.org/2000/svg" id="emoji" width="40.125" height="49.994" version="1.1" viewBox="0 0 40.125 49.994"><g id="color" transform="translate(-15.76786,-9.8247979)"><path id="path1" fill="#fff" d="m 16.6483,58.8573 c 0,0 -2.1,-14.9 9.9,-14.9 3.1919,2.1279 6.0264,3.7984 9.1001,3.7921 l 0.2749,0.1 c 3.0737,0.0063 5.9081,-1.8642 9.1,-3.9921 11.5646,-0.0346 9.509,14.8999 9.74,15"/><circle id="circle1" cx="24.614" cy="54.782" r="3" fill="#9b9b9a"/><path id="path2" fill="#d0cfce" d="m 45.0771,43.8448 c -3.1699,2.1133 -5.275,3.5 -9.3375,4.0886 13.0625,0.4114 12.9625,6.9114 13.7247,10.9114 4.2378,0 5.1128,0 5.1128,0 0,0 2.6144,-15.0022 -9.5,-15 z"/></g><g id="hair" transform="translate(-15.76786,-9.8247979)"><path id="path3" fill="#a57939" d="m 31.4607,13.9422 c -5.8264,-2.362 -9.8466,6.3904 -6.9708,13.3079 1.8952,-0.7356 4.7204,-7.028 4.7204,-7.028 0,0 6.0436,4.0118 4.6066,0.9647 0,0 6.0003,3.9966 5.125,0.5757 0,0 5.42,5.8571 5.8039,0.4876 0,0 0.5486,5.2658 2.3966,5 C 52.4042,16.5772 34.8889,5.1816 31.4607,13.9422 Z"/></g><g id="skin" transform="translate(-15.76786,-9.8247979)"><path id="path4" fill="#fcea2b" d="m 47.1424,27.2501 c -1.848,0.2657 -2.3966,-5 -2.3966,-5 -0.3839,5.3694 -5.8039,-0.4876 -5.8039,-0.4876 0.8753,3.4209 -5.125,-0.5757 -5.125,-0.5757 1.437,3.0471 -4.6066,-0.9647 -4.6066,-0.9647 0,0 -2.7309,6.0744 -4.6239,6.9752 -0.0135,0.2836 -0.0344,0.5648 -0.0344,0.8526 0,7.8277 5.0765,14.1733 11.3386,14.1733 6.2621,0 11.3386,-6.3456 11.3386,-14.1733 0,-0.3094 -0.0214,-0.6119 -0.037,-0.9164 -0.0186,0.0388 -0.0306,0.0778 -0.0498,0.1166 z"/></g><g id="line" transform="translate(-15.76786,-9.8247979)"><path id="path5" d="m 41.9529,27.0468 c 0,1.1045 -0.8965,2 -2,2 -1.1035,0 -2,-0.8955 -2,-2 0,-1.1035 0.8965,-2 2,-2 1.1035,0 2,0.8965 2,2"/><path id="path6" d="m 33.9529,27.0468 c 0,1.1045 -0.8965,2 -2,2 -1.1035,0 -2,-0.8955 -2,-2 0,-1.1035 0.8965,-2 2,-2 1.1035,0 2,0.8965 2,2"/><path id="path7" d="m 35.9527,37.0492 c -1.1518,0 -2.3037,-0.2861 -3.4472,-0.8579 -0.4942,-0.2471 -0.6944,-0.8476 -0.4473,-1.3418 0.2466,-0.4936 0.8462,-0.6943 1.3418,-0.4472 1.7178,0.8593 3.3877,0.8593 5.1055,0 0.4946,-0.2471 1.0947,-0.0464 1.3418,0.4472 0.247,0.4942 0.0468,1.0947 -0.4473,1.3418 -1.1436,0.5718 -2.2954,0.8579 -3.4473,0.8579 z"/><path id="path8" fill="none" stroke="#000" stroke-linecap="round" stroke-linejoin="round" stroke-miterlimit="10" stroke-width="2" d="m 47.2315,26.9427 c 0.0395,0.4816 0.0598,0.9703 0.0598,1.4649 0,7.8277 -5.0765,14.1732 -11.3386,14.1732 -6.2621,0 -11.3386,-6.3455 -11.3386,-14.1732 l -0.1242,-1.4575"/><path id="path9" fill="none" stroke="#000" stroke-linecap="round" stroke-linejoin="round" stroke-miterlimit="10" stroke-width="2" d="m 31.4607,13.9422 c -5.8264,-2.362 -9.8466,6.3904 -6.9708,13.3079 1.8952,-0.7356 4.7204,-7.028 4.7204,-7.028 0,0 6.0436,4.0118 4.6066,0.9647 0,0 6.0003,3.9966 5.125,0.5757 0,0 5.42,5.8571 5.8039,0.4876 0,0 0.5486,5.2658 2.3966,5 C 52.4042,16.5772 34.8889,5.1816 31.4607,13.9422 Z"/><circle id="circle9" cx="24.614" cy="54.782" r="3" fill="none" stroke="#000" stroke-linecap="round" stroke-linejoin="round" stroke-miterlimit="10" stroke-width="2"/><path id="path10" fill="none" stroke="#000" stroke-linecap="round" stroke-linejoin="round" stroke-miterlimit="10" stroke-width="2" d="m 24.6141,51.7818 c 0,0 -1.3273,-5.4596 2.2791,-9.2021"/><path id="path11" fill="none" stroke="#000" stroke-linecap="round" stroke-linejoin="round" stroke-miterlimit="10" stroke-width="2" d="m 49.9156,45.9787 c 6.2065,3.1183 4.8522,11.9209 4.8522,11.9209"/><path id="path12" fill="none" stroke="#000" stroke-linecap="round" stroke-linejoin="round" stroke-miterlimit="10" stroke-width="2" d="m 28.5935,45.9903 c 2.4969,1.5232 4.7846,2.5066 7.2993,2.5014 h -0.125 c 2.3664,0.0049 4.5318,-0.8657 6.8597,-2.2377"/><path id="path13" fill="none" stroke="#000" stroke-linecap="round" stroke-linejoin="round" stroke-miterlimit="10" stroke-width="2" d="m 16.8928,57.8996 c 0,0 -1.4346,-9.3247 5.4161,-12.1794"/><path id="path14" fill="none" stroke="#000" stroke-linecap="round" stroke-linejoin="round" stroke-miterlimit="10" stroke-width="2" d="m 44.4576,42.5797 c 1.5847,1.6445 2.4274,5.3192 2.4274,5.3192 -3.4246,0.1134 -3.3095,3.8829 -3.3095,3.8829 0,0 -0.7793,5.5625 1.6548,5.4316 l -0.1645,1.6162 0.2835,-2.963"/><path id="path15" fill="none" stroke="#000" stroke-linecap="round" stroke-linejoin="round" stroke-miterlimit="10" stroke-width="2" d="m 47.2913,47.8989 c 3.4246,0.1134 3.3096,3.8829 3.3096,3.8829 0,0 0.7793,5.5625 -1.6549,5.4316 l 0.1645,1.6162 -0.2835,-2.963"/><line id="line15" x1="29.953" x2="35.611" y1="46.767" y2="57.9" fill="none" stroke="#000" stroke-linecap="round" stroke-linejoin="round" stroke-miterlimit="10" stroke-width="2"/><line id="line16" x1="41.268" x2="35.611" y1="46.997" y2="57.9" fill="none" stroke="#000" stroke-linecap="round" stroke-linejoin="round" stroke-miterlimit="10" stroke-width="2"/></g></svg>