<svg xmlns="http://www.w3.org/2000/svg" xmlns:svg="http://www.w3.org/2000/svg" id="emoji" width="40.081" height="61.159" version="1.1" viewBox="0 0 40.081 61.159"><g id="color" transform="translate(-16.432467,-6.4207947)"><path id="path1" fill="#5c9e31" d="M 41.0089,53.7541 H 28.7462 A 0.9979,0.9979 0 0 1 28.07,53.49 l -7.4307,-6.834 a 1,1 0 0 1 -0.2637,-1.0761 c 1.4776,-4.0948 2.5049,-6.8242 3.0547,-8.1114 a 4.274,4.274 0 0 1 4.0176,-2.4843 c 0.1562,-0.0137 0.3105,-0.0264 0.4609,-0.045 A 3.0652,3.0652 0 0 1 30.03,35.4627 11.5665,11.5665 0 0 0 36,37.3416 v 0 a 18.7285,18.7285 0 0 0 7.4141,-2.1 1.8526,1.8526 0 0 1 1.6524,-0.3021 c 0.15,0.0186 0.3047,0.0313 0.46,0.045 a 4.2534,4.2534 0 0 1 3.9961,2.4365 c 1.0136,2.3682 3.1191,8.1963 4.7119,12.6777 a 1,1 0 0 1 -0.7568,1.3174 l -12.2832,2.32 a 0.99,0.99 0 0 1 -0.1856,0.018 z"/><path id="path2" fill="#b1cc33" d="m 36.9777,50.6337 a 27.0456,27.0456 0 0 0 -3.5672,-0.3886 8.2421,8.2421 0 0 1 -12.4241,8.71 9.3928,9.3928 0 0 0 3.2442,4.1349 22.645,22.645 0 0 0 9.8017,4.0635 26.74,26.74 0 0 0 4.6856,0.4258 c 6.14,0 10.8838,-2.3282 11.5488,-6.0538 0.8252,-4.632 -5.0127,-9.4162 -13.289,-10.8918 z"/><path id="path3" fill="#92d3f5" d="m 36.3234,50.4338 a 2.7013,2.7013 0 0 1 -2.55,-1.8115 l -0.79,-2.2754 a 2.7,2.7 0 0 1 1.6621,-3.4307 l 8.583,-2.98 a 2.6968,2.6968 0 0 1 3.4307,1.6611 l 0.79,2.2774 a 2.6982,2.6982 0 0 1 -1.6621,3.43 l -8.583,2.9795 a 2.6768,2.6768 0 0 1 -0.8807,0.1496 z"/><circle id="circle3" cx="33.278" cy="47.434" r="2" fill="#f1b31c"/></g><g id="skin" transform="translate(-16.432467,-6.4207947)"><path id="path4" fill="#fcea2b" d="m 25.3321,60.2209 a 8.2569,8.2569 0 1 1 8.2569,-8.2568 8.2663,8.2663 0 0 1 -8.2569,8.2568 z"/><path id="path5" fill="#fcea2b" d="m 56.0392,55.2209 c 0,0 -0.8418,-2.415 -1.9424,-5.5088 a 0.9456,0.9456 0 0 0 -0.0531,-0.0882 0.925,0.925 0 0 0 -0.0358,-0.0983 c -0.0178,-0.0292 -0.0466,-0.0454 -0.0667,-0.0721 a 0.9721,0.9721 0 0 0 -0.1331,-0.1437 0.96,0.96 0 0 0 -0.1569,-0.1153 0.9942,0.9942 0 0 0 -0.7368,-0.1034 0.2513,0.2513 0 0 0 -0.1834,0.0668 0.9352,0.9352 0 0 0 -0.0981,0.0357 10.1709,10.1709 0 0 1 -5.1561,1.1044 C 46.23,48.2748 44.93,46.33 44.2261,45.1109 A 2.1824,2.1824 0 0 0 41.5,43.9182 a 2.5916,2.5916 0 0 0 -1.5674,3.456 c 3.0694,7.3545 7.545,15.8018 11.9053,15.8018 a 3.3207,3.3207 0 0 0 0.874,-0.1172 c 0.0185,-0.005 0.0313,-0.0186 0.0492,-0.0245 0.02,-0.0066 0.04,-0.0037 0.06,-0.0116 a 5.5823,5.5823 0 0 0 3.27,-3.0127 6.8493,6.8493 0 0 0 -0.0519,-4.7891 z"/><path id="path6" fill="#fcea2b" d="M 32.6124,61.6867 23.6173,57.9875 C 23.5989,57.9799 23.5795,57.983 23.5609,57.9766 23.5475,57.972 23.5382,57.9614 23.5245,57.9572 a 6.2733,6.2733 0 0 1 -4.3845,-5.0859 0.92,0.92 0 0 0 -0.0423,-0.1191 0.99,0.99 0 0 0 -0.0783,-0.2217 0.9758,0.9758 0 0 0 -0.1236,-0.1582 0.6813,0.6813 0 0 0 -0.3469,-0.2591 0.917,0.917 0 0 0 -0.0876,-0.05 c -0.0065,-0.0021 -0.013,0 -0.0195,-0.0022 a 0.958,0.958 0 0 0 -0.2384,-0.0271 0.994,0.994 0 0 0 -0.1648,-0.0074 c -0.0107,0.0014 -0.0206,-0.0032 -0.0314,-0.0014 a 0.9415,0.9415 0 0 0 -0.1482,0.0528 0.9954,0.9954 0 0 0 -0.1875,0.0669 2.5273,2.5273 0 0 0 -0.2922,0.2439 1.0009,1.0009 0 0 0 -0.1141,0.2016 0.9443,0.9443 0 0 0 -0.0647,0.1145 c -0.0058,0.0177 -0.0093,0.0333 -0.0149,0.0509 l -0.0029,0.01 c -2.0249,6.2906 0.6584,8.2629 0.95,8.4537 a 43.2914,43.2914 0 0 0 12.85,5.3174 2.578,2.578 0 0 0 3.0987,-1.7051 2.5489,2.5489 0 0 0 -1.469,-3.145 z"/><path id="path7" fill="#fcea2b" d="M 35.5778,34.49 C 30.611,34.491 25.989,29.6433 24.9606,23.0691 a 12.7968,12.7968 0 0 1 0.543,-6.0459 1.0668,1.0668 0 0 1 1.8291,-0.2266 c 0.02,0.0235 3.43,3.9014 13.9619,-3.1845 a 1.0652,1.0652 0 0 1 1.5938,0.5088 33.6385,33.6385 0 0 1 1.6367,5.9 c 1.1035,7.085 -2.3809,13.5332 -7.77,14.377 A 7.6052,7.6052 0 0 1 35.5778,34.49 Z"/></g><g id="hair" transform="translate(-16.432467,-6.4207947)"><path id="path8" fill="#a57939" d="M 44.2477,9.339 A 7.2335,7.2335 0 0 0 38.8034,6.4211 c -0.4717,0 -11.4433,0.0595 -15.6426,5.1308 a 7.1755,7.1755 0 0 0 -1.4716,6.1895 c 1.8906,9.9541 6.3173,12.4922 6.5048,12.5947 a 0.9858,0.9858 0 0 0 0.4776,0.123 0.9972,0.9972 0 0 0 0.87,-0.51 0.9823,0.9823 0 0 0 0.0389,-0.8638 1.05,1.05 0 0 0 -0.1737,-0.4331 13.94,13.94 0 0 1 -2.3387,-5.9122 12.8015,12.8015 0 0 1 0.0166,-3.5244 c 2.04,1.0664 6.4121,1.8535 14.249,-3.083 a 25.5272,25.5272 0 0 1 1.0781,4.1777 l 0.0045,0.0133 c 6e-4,0.0048 -0.0013,0.0092 -6e-4,0.0141 a 14.5219,14.5219 0 0 1 0.043,4.3066 1.0659,1.0659 0 0 0 0.9043,1.207 1.02,1.02 0 0 0 0.1523,0.0117 1.0532,1.0532 0 0 0 0.7512,-0.3277 0.9748,0.9748 0 0 0 0.3572,-0.4916 C 46.7683,17.8312 46.6413,12.547 44.2477,9.339 Z"/></g><g id="line" transform="translate(-16.432467,-6.4207947)"><path id="path9" fill="none" stroke="#000" stroke-linecap="round" stroke-linejoin="round" stroke-width="2" d="m 21.3154,45.9132 c 1.2325,-3.4162 2.4138,-6.6069 3.0343,-8.0587 0.9436,-1.9239 2.4321,-1.78 3.6765,-1.9282 a 2.6819,2.6819 0 0 1 1.7149,0.3828 11.9015,11.9015 0 0 0 6.2589,1.777 h 0.9747 a 11.9015,11.9015 0 0 0 6.2589,-1.777 2.6819,2.6819 0 0 1 1.7149,-0.3828 c 1.2444,0.1478 2.7329,0.0043 3.6765,1.9282 1.65,3.86 6.47,17.6883 6.47,17.6883 0,0 1.9655,4.681 -2.6193,6.5337 l -0.0256,0.01 C 48.0515,63.2773 42.5756,51.1231 40.8007,46.851"/><path id="path10" fill="none" stroke="#000" stroke-linecap="round" stroke-linejoin="round" stroke-width="2" d="m 43.47,20.1733 a 32.96,32.96 0 0 0 -1.58,-5.6764 v 0 c -11.6718,7.853 -15.406,2.9469 -15.406,2.9469 a 11.8113,11.8113 0 0 0 -0.47,5.461 c 1.02,6.52 5.7549,11.1941 10.5753,10.44 4.8204,-0.7541 7.9007,-6.6513 6.88,-13.1713"/><circle id="circle10" cx="25.332" cy="51.964" r="7.257" fill="none" stroke="#000" stroke-linecap="round" stroke-linejoin="round" stroke-width="2"/><path id="path11" fill="none" stroke="#000" stroke-linecap="round" stroke-linejoin="round" stroke-width="2" d="m 18.7,60.3962 a 42.8516,42.8516 0 0 0 12.8,5.2409"/><path id="path12" fill="none" stroke="#000" stroke-linecap="round" stroke-linejoin="round" stroke-width="2" d="M 41.2136,47.8346 36.8761,49.34 a 1.7005,1.7005 0 0 1 -2.1578,-1.0458 l -0.79,-2.2759 a 1.7,1.7 0 0 1 1.0457,-2.1578 l 8.5828,-2.9794 a 1.7005,1.7005 0 0 1 2.1578,1.0458 l 0.79,2.2759"/><path id="path13" fill="none" stroke="#000" stroke-linecap="round" stroke-linejoin="round" stroke-width="2" d="m 32.552,51.2309 a 25.7011,25.7011 0 0 1 4.2495,0.4043 23.5323,23.5323 0 0 1 7.5264,2.6413"/><path id="path14" fill="none" stroke="#000" stroke-linecap="round" stroke-linejoin="round" stroke-width="2" d="m 46.5572,50.737 a 49.6144,49.6144 0 0 0 4.9284,6.7669"/><path id="path15" fill="none" stroke="#000" stroke-linecap="round" stroke-linejoin="round" stroke-width="2" d="M 31.3262,47.8724 A 2.0016,2.0016 0 0 1 33.838,45.5131"/><path id="path16" fill="none" stroke="#000" stroke-linecap="round" stroke-linejoin="round" stroke-width="2" d="m 34.88,48.6312 a 2,2 0 0 1 -2.9721,0.2593"/><path id="path17" fill="none" stroke="#000" stroke-linecap="round" stroke-linejoin="round" stroke-width="2" d="m 28.6769,29.46 c 0,0 -4.1811,-2.3 -6.005,-11.9059 C 20.7478,7.4205 38.8032,7.4208 38.8032,7.4208 c 0,0 10.0164,0 4.8618,17.3378"/></g></svg>