<?xml version="1.0" encoding="UTF-8" standalone="no"?>
<svg
   id="emoji"
   viewBox="0 0 40.131199 47.2859"
   version="1.1"
   sodipodi:docname="1f468-1f3fd-200d-1f680.svg"
   width="40.131199"
   height="47.2859"
   xmlns:inkscape="http://www.inkscape.org/namespaces/inkscape"
   xmlns:sodipodi="http://sodipodi.sourceforge.net/DTD/sodipodi-0.dtd"
   xmlns="http://www.w3.org/2000/svg"
   xmlns:svg="http://www.w3.org/2000/svg">
  <defs
     id="defs16" />
  <sodipodi:namedview
     id="namedview16"
     pagecolor="#ffffff"
     bordercolor="#000000"
     borderopacity="0.25"
     inkscape:showpageshadow="2"
     inkscape:pageopacity="0.0"
     inkscape:pagecheckerboard="0"
     inkscape:deskcolor="#d1d1d1" />
  <g
     id="color"
     transform="translate(-15.742101,-11.5212)">
    <path
       fill="#9b9b9a"
       stroke="none"
       d="m 50.9022,27.5212 c 0,1.2253 -0.1469,2.4164 -0.4241,3.5564 -1.5969,6.5676 -7.5169,11.4436 -14.5759,11.4436 -7.0588,0 -12.9787,-4.8758 -14.5758,-11.4431 -0.2772,-1.1402 -0.4242,-2.3314 -0.4242,-3.5569 0,-8.2843 6.7157,-15 15,-15 8.2843,0 15,6.7157 15,15 z"
       id="path1" />
    <path
       fill="#d0cfce"
       stroke="none"
       d="m 31.9312,12.9274 c 0,0 -6.5188,2.2396 -9.1842,7.3842 -1.1602,2.1133 -3.0061,3.5059 -1.4206,10.7665 1.5855,7.2605 10.5604,11.0474 10.5604,11.0474 5.4844,-1.2857 9.8095,-5.5807 11.1387,-11.0479 0.2773,-1.1401 0.424,-2.3311 0.424,-3.5564 0,-7.0857 -4.9128,-13.0239 -11.5183,-14.5938 z"
       id="path2" />
    <path
       fill="#d0cfce"
       stroke="none"
       d="m 16.7643,58.7383 c 0,0 -2,-13.5 10,-13.5 3.1919,2.1279 5.9264,3.5984 9,3.5922 h -0.125 c 3.0736,0.0062 5.5082,-2.1643 8.7,-4.2922 15.5705,0 10.7,14.2 10.7,14.2"
       id="path3" />
    <rect
       x="28.4496"
       y="52.892799"
       width="15.5608"
       height="5.8235998"
       fill="#9b9b9a"
       stroke="none"
       id="rect3" />
    <path
       fill="#9b9b9a"
       stroke="none"
       d="m 44.7452,45.6655 c -3.1699,2.1132 -4.875,3 -8.9375,3.5885 13.0625,0.4115 13.0625,5.4115 13.8246,9.4115 4.2379,0 5.1129,0 5.1129,0 0,0 2,-13 -10,-13 z"
       id="path4" />
  </g>
  <g
     id="hair"
     transform="translate(-15.742101,-11.5212)" />
  <g
     id="skin"
     transform="translate(-15.742101,-11.5212)">
    <path
       fill="#c19a65"
       stroke="#c19a65"
       d="m 47.1168,26.5485 c -0.365,-2.5625 -13.943,-8.544 -22.2102,-0.8061 0,0 -0.3152,1.9842 -0.3152,3.1318 0,7.8276 5.0766,14.1732 11.3388,14.1732 6.262,0 11.3384,-6.3456 11.3384,-14.1732 0,-0.7922 0.2131,0.2368 -0.1518,-2.3257 z"
       id="path5" />
  </g>
  <g
     id="skin-shadow"
     transform="translate(-15.742101,-11.5212)" />
  <g
     id="line"
     transform="translate(-15.742101,-11.5212)">
    <path
       fill="#000000"
       stroke="none"
       d="m 34.7953,58.7082 c 0.0426,-0.1623 0.0653,-0.3327 0.0653,-0.5083 0,-1.1035 -0.8965,-2 -2,-2 h 0.0068 c -1.1035,0 -2,0.8965 -2,2 0,0.1756 0.0227,0.346 0.0653,0.5083"
       id="path6" />
    <path
       fill="#000000"
       stroke="none"
       d="m 41.4973,58.7082 c 0.0426,-0.1623 0.0653,-0.3327 0.0653,-0.5083 0,-1.1035 -0.8965,-2 -2,-2 h 0.0068 c -1.1035,0 -2,0.8965 -2,2 0,0.1756 0.0227,0.346 0.0653,0.5083"
       id="path7" />
    <path
       fill="none"
       stroke="#000000"
       stroke-linecap="round"
       stroke-linejoin="round"
       stroke-miterlimit="10"
       stroke-width="2"
       d="m 16.8702,57.8071 c 0,0 -2,-13 10,-13 3.1918,2.1279 5.9264,3.5984 9,3.5921 h -0.125 c 3.0736,0.0063 5.8081,-1.4642 9,-3.5921 12,0 10,13 10,13"
       id="path8" />
    <path
       fill="none"
       stroke="#000000"
       stroke-linecap="round"
       stroke-linejoin="round"
       stroke-miterlimit="10"
       stroke-width="2"
       d="m 47.7916,28.0765 c -0.2095,-0.3905 -0.4467,-0.7659 -0.7094,-1.1234 -1.1918,-1.6212 -2.9103,-2.8724 -4.9635,-3.4745 -2.1203,-0.6217 -4.1294,-0.903 -6.2164,-0.8438 -2.0871,-0.0592 -4.0963,0.2221 -6.2165,0.8438 -2.5057,0.7348 -4.513,2.4362 -5.6725,4.5972"
       id="path9" />
    <line
       x1="53.864201"
       x2="53.864201"
       y1="25.4561"
       y2="30.2269"
       fill="none"
       stroke="#000000"
       stroke-linecap="round"
       stroke-linejoin="round"
       stroke-miterlimit="10"
       stroke-width="2"
       id="line9" />
    <line
       x1="17.7512"
       x2="17.7512"
       y1="25.4561"
       y2="30.2269"
       fill="none"
       stroke="#000000"
       stroke-linecap="round"
       stroke-linejoin="round"
       stroke-miterlimit="10"
       stroke-width="2"
       id="line10" />
    <polyline
       fill="none"
       stroke="#000000"
       stroke-linecap="round"
       stroke-linejoin="round"
       stroke-miterlimit="10"
       stroke-width="2"
       points="43.8305,57.7854 43.8305,52.9773 28.5695,52.9773 28.5695,57.7854"
       id="polyline10" />
    <path
       fill="#000000"
       stroke="none"
       d="m 41.9302,26.9543 c 0,1.1045 -0.8965,2 -2,2 -1.1035,0 -2,-0.8955 -2,-2 0,-1.1035 0.8965,-2 2,-2 1.1035,0 2,0.8965 2,2"
       id="path10" />
    <path
       fill="#000000"
       stroke="none"
       d="m 33.9302,26.9543 c 0,1.1045 -0.8965,2 -2,2 -1.1035,0 -2,-0.8955 -2,-2 0,-1.1035 0.8965,-2 2,-2 1.1035,0 2,0.8965 2,2"
       id="path11" />
    <path
       fill="#000000"
       stroke="none"
       d="m 35.9301,36.9567 c -1.1519,0 -2.3037,-0.2861 -3.4473,-0.8579 -0.4941,-0.2471 -0.6943,-0.8476 -0.4472,-1.3418 0.2465,-0.4936 0.8462,-0.6943 1.3418,-0.4473 1.7177,0.8594 3.3877,0.8594 5.1054,0 0.4947,-0.247 1.0948,-0.0463 1.3418,0.4473 0.2471,0.4942 0.0469,1.0947 -0.4472,1.3418 -1.1436,0.5718 -2.2954,0.8579 -3.4473,0.8579 z"
       id="path12" />
    <path
       fill="none"
       stroke="#000000"
       stroke-miterlimit="10"
       stroke-width="2"
       d="m 46.2349,34.2361 c 0.6636,-1.8017 1.0338,-3.8073 1.0338,-5.921 0,-0.3873 -0.0125,-0.771 -0.0368,-1.1505"
       id="path13" />
    <path
       fill="none"
       stroke="#000000"
       stroke-miterlimit="10"
       stroke-width="2"
       d="m 24.6342,27.0769 c -0.0283,0.408 -0.0427,0.821 -0.0427,1.2382 0,7.8277 5.0765,14.1732 11.3386,14.1732"
       id="path14" />
    <path
       fill="none"
       stroke="#000000"
       stroke-linecap="round"
       stroke-miterlimit="10"
       stroke-width="2"
       d="m 36.5562,39.343 c 0,0 7.0406,-0.0053 9.5918,-5.1389"
       id="path15" />
    <path
       fill="none"
       stroke="#000000"
       stroke-linecap="round"
       stroke-linejoin="round"
       stroke-miterlimit="10"
       stroke-width="2"
       d="m 50.9022,27.5212 c 0,1.2253 -0.1469,2.4164 -0.4241,3.5564 -1.5969,6.5676 -7.5169,11.4436 -14.5759,11.4436 -7.0588,0 -12.9787,-4.8758 -14.5758,-11.4431 -0.2772,-1.1402 -0.4242,-2.3314 -0.4242,-3.5569 0,-8.2843 6.7157,-15 15,-15 8.2843,0 15,6.7157 15,15 z"
       id="path16" />
  </g>
</svg>
