<?xml version="1.0" encoding="UTF-8" standalone="no"?>
<svg
   id="emoji"
   viewBox="0 0 55.923916 52.257057"
   version="1.1"
   sodipodi:docname="1f460.svg"
   width="55.923916"
   height="52.257057"
   xmlns:inkscape="http://www.inkscape.org/namespaces/inkscape"
   xmlns:sodipodi="http://sodipodi.sourceforge.net/DTD/sodipodi-0.dtd"
   xmlns="http://www.w3.org/2000/svg"
   xmlns:svg="http://www.w3.org/2000/svg">
  <defs
     id="defs6" />
  <sodipodi:namedview
     id="namedview6"
     pagecolor="#ffffff"
     bordercolor="#000000"
     borderopacity="0.25"
     inkscape:showpageshadow="2"
     inkscape:pageopacity="0.0"
     inkscape:pagecheckerboard="0"
     inkscape:deskcolor="#d1d1d1" />
  <g
     id="color"
     transform="translate(-9.6503,-13.242422)">
    <path
       fill="#d22f27"
       d="m 25.5011,34.5613 c 2.9156,2.3721 5.4581,5.3848 6.7637,9.1491 4.3333,12.4937 1.0296,12.7289 4.3333,17.3456 3.9794,5.5609 40.7244,5.1768 23.375,-7.0795 0,0 -12.2541,2.9795 -16.9395,-1.3551 0,0 -5.428,-17.9558 -26.1409,-38.379 0,0 -4.5005,2.3277 -6.2424,8.0451 0,0 -1.1042,1.8496 0.5599,3.8163 1.5566,1.8397 14.2909,8.4575 14.2909,8.4575 z"
       id="path1" />
    <path
       fill="#d22f27"
       d="m 25.1077,35.453 c 2.9156,2.3721 5.8515,4.4931 7.1571,8.2574 4.3333,12.4937 1.0296,12.7289 4.3333,17.3456 3.7635,5.2592 36.8343,5.201 25.7347,-5.1888 -1.2857,-1.2035 -3.0747,-1.6967 -4.8131,-1.4148 -2.9056,0.4711 -7.8134,0.9701 -11.482,-0.1862 -1.674,-0.5276 -3.0082,-1.79 -3.6383,-3.4282 -1.7731,-4.6093 -7.5973,-17.608 -21.5715,-32.5555 -2.5696,-2.7485 -5.8837,-2.4176 -7.8364,0.7986 -0.041,0.0676 -0.0817,0.1359 -0.122,0.2051 -0.9074,1.5579 -2.2426,3.4668 -1.5357,5.1254 0.0374,0.0878 0.0751,0.1755 0.1129,0.2627 0.5351,1.2342 13.6611,10.7787 13.6611,10.7787 z"
       id="path2" />
    <path
       fill="#3f3f3f"
       d="m 19.962,33.0858 -2,27.8725 H 14.1227 V 32.0858 l -2.9125,-5.982 c 0,0 6.6505,3.8112 10.5259,6.9115 z"
       id="path3" />
  </g>
  <g
     id="line"
     transform="translate(-9.6503,-13.242422)">
    <path
       fill="none"
       stroke="#000000"
       stroke-linecap="round"
       stroke-linejoin="round"
       stroke-width="2"
       d="m 19.962,33.0858 -2,27.8725 H 14.1227 V 32.0858 l -2.9125,-5.982 c 0,0 6.6505,3.8112 10.5259,6.9115 z"
       id="path4" />
    <path
       fill="none"
       stroke="#000000"
       stroke-linecap="round"
       stroke-linejoin="round"
       stroke-width="2"
       d="m 25.5011,34.5613 c 2.9156,2.3721 5.4581,5.3848 6.7637,9.1491 4.3333,12.4937 1.0296,12.7289 4.3333,17.3456 3.9794,5.5609 40.7244,5.1768 23.375,-7.0795 0,0 -12.2541,2.9795 -16.9395,-1.3551 0,0 -5.428,-17.9558 -26.1409,-38.379 0,0 -4.5005,2.3277 -6.2424,8.0451"
       id="path5" />
    <path
       fill="none"
       stroke="#000000"
       stroke-linecap="round"
       stroke-linejoin="round"
       stroke-width="2"
       d="m 25.5011,34.5613 c 2.9156,2.3721 5.4581,5.3848 6.7637,9.1491 4.3333,12.4937 1.0296,12.7289 4.3333,17.3456 3.9794,5.5609 40.7244,5.1768 23.375,-7.0795 0,0 -12.2541,2.9795 -16.9395,-1.3551 0,0 -5.428,-17.9558 -26.1409,-38.379 0,0 -4.5005,2.3277 -6.2424,8.0451"
       id="path6" />
  </g>
</svg>
