<svg xmlns="http://www.w3.org/2000/svg" xmlns:svg="http://www.w3.org/2000/svg" id="emoji" width="58.568" height="39.207" version="1.1" viewBox="0 0 58.568 39.207"><g id="color" transform="translate(-10.1292,-24.039037)"><polyline id="polyline1" fill="#6a462f" points="11.044 30.533 10.794 58.958 19.672 58.958 22.425 36.741"/><polyline id="polyline2" fill="#6a462f" points="11.21 34.533 11.71 58.708 18.799 58.958 20.799 40.533"/><path id="path2" fill="#6a462f" d="m 59.0643,52.3098 c 2.7748,0.0391 5.9062,-0.1885 8.4416,-1.171 0.7079,6.5249 -0.5933,8.2515 -3.991,9.7438 C 57.852,63.3696 43.9473,62.1745 40.1793,59.3933 35.6117,56.022 37.6186,55.4239 29.8297,44.7373 23.6408,36.2461 11.1292,30.8087 11.1292,30.8087 V 25.039 c 0,0 20.7464,6.6699 25.0042,17.8349 0.7983,2.0934 2.8151,3.4373 4.3049,4.8808 0,0 7.2775,4.3951 18.626,4.5551 z"/><polyline id="polyline3" fill="#a57939" points="41.343 57.587 45.365 36.741 58.095 39.271 55.381 60.303"/></g><g id="line" transform="translate(-10.1292,-24.039037)"><polyline id="polyline4" fill="none" stroke="#000" stroke-linecap="round" stroke-linejoin="round" stroke-width="2" points="11.21 34.533 11.21 58.958 19.049 58.958 21.049 40.533"/><path id="path4" fill="none" stroke="#000" stroke-linecap="round" stroke-linejoin="round" stroke-width="2" d="m 59.497,53.1771 c 2.7511,-0.3643 5.4735,-1.0558 8.0089,-2.0383 0.7079,6.5249 -0.5933,8.2515 -3.991,9.7438 C 57.852,63.3696 43.9473,62.1745 40.1793,59.3933 35.6117,56.022 37.6186,55.4239 29.8297,44.7373 23.6408,36.2461 11.1292,30.8087 11.1292,30.8087 V 25.039 c 0,0 20.7464,6.6699 25.0042,17.8349 0.7983,2.0934 1.9924,3.8504 3.4823,5.2939"/><polyline id="polyline5" fill="none" stroke="#000" stroke-linecap="round" stroke-linejoin="round" stroke-width="2" points="41.752 56.773 45.365 36.741 58.095 39.271 55.481 59.303"/></g></svg>