<svg xmlns="http://www.w3.org/2000/svg" xmlns:svg="http://www.w3.org/2000/svg" id="emoji" width="51.186" height="52.422" version="1.1" viewBox="0 0 51.186 52.422"><g id="color" transform="translate(-15.781992,-9.3943534)"><path id="path1" fill="#3f3f3f" d="m 16.9628,58.9989 c 0,0 -2.1669,-14.8402 9.8331,-14.8402 3.1918,2.128 5.7264,3.6985 8.8,3.6922 h -0.125 c 3.0736,0.0063 6.208,-1.9642 9.3999,-4.0922 12.3378,-10e-5 10.109,15.1402 10.34,15.2402"/><path id="path2" fill="#fff" d="m 44.7853,44.6077 -3.8861,5.9728 -2.5935,4.4989 c -1.2071,2.0939 -4.2282,2.0958 -5.438,0.0035 l -2.5994,-4.4955 -3.4576,-5.9797 c 6.1416,5.2919 12.1328,5.2919 17.9746,0 z"/><path id="path3" fill="#a57939" d="m 64.2334,41.3898 c 1.53,0.73 2.17,2.57 1.43,4.09 l -1.63,3.39 c -0.74,1.52 -2.58,2.16 -4.1,1.43 l -2.05,-1.74 0.36,-0.43 3.41,-7.05 0.04,-0.2 z"/><polygon id="polygon3" fill="#f1b31c" points="58.243 48.13 57.883 48.56 57.353 48.12 57.333 48.1 53.683 46.34 53.663 46.34 52.703 46.13 52.833 45.52 56.243 38.47 56.413 38.27 57.253 38.96 60.893 40.72 61.693 40.88 61.653 41.08"/><path id="path4" fill="#a57939" d="m 57.3334,48.0998 0.02,0.02 -0.06,0.07 -5.5,11.38 c -0.44,0.91 -1.47,1.45 -2.43,1.17 -1.24,-0.37 -1.8,-1.72 -1.26,-2.83 l 5.54,-11.48 0.02,-0.09 h 0.02 z"/><path id="path5" fill="#a57939" d="m 54.4834,36.6798 1.93,1.59 -0.17,0.2 -3.41,7.05 -0.13,0.61 -2.52,-0.54 c -1.53,-0.74 -2.17,-2.57 -1.43,-4.1 l 1.64,-3.38 c 0.73,-1.53 2.57,-2.17 4.09,-1.43 z"/></g><g id="hair" transform="translate(-15.781992,-9.3943534)"><path id="path6" fill="#a57939" d="m 42.8904,12.8176 c -5.4806,-3.95 -13.7306,-2.8042 -16.0004,0.0931 -0.6911,0.9446 -0.8198,2.1893 -0.4031,3.283 0.0143,0.0374 0.0284,0.0773 0.0427,0.1158 l -0.7382,-1.3657 c -6.4964,6.8913 -2.0855,15.7185 -1.3567,13.9137 2.675,-2.5039 3.5089,-8.5252 3.6301,-9.5188 1.8488,2.1545 6.1666,4.0219 18.043,2.7596 l 1.5211,6.7592 c -1e-4,0 9.2179,-6.8378 -4.7385,-16.0399 z"/></g><g id="skin" transform="translate(-15.781992,-9.3943534)"><path id="path7" fill="#fadcbc" d="m 46.4797,23.7515 c -0.1676,-0.5613 -0.3563,-1.109 -0.577,-1.634 -11.7155,1.2176 -16.0002,-0.6372 -17.838,-2.7788 -0.1198,0.9813 -0.9379,6.8611 -3.5354,9.4185 0.0251,7.8008 5.0898,14.1156 11.3363,14.1156 6.2621,0 11.3386,-6.3456 11.3386,-14.1733 0,-0.8993 -0.0745,-1.7759 -0.2026,-2.6287 z"/></g><g id="line" transform="translate(-15.781992,-9.3943534)"><path id="path8" d="m 41.9452,27.1317 c 0,1.1045 -0.8965,2 -2,2 -1.1035,0 -2,-0.8955 -2,-2 0,-1.1035 0.8965,-2 2,-2 1.1035,0 2,0.8965 2,2"/><path id="path9" d="m 33.9452,27.1317 c 0,1.1045 -0.8965,2 -2,2 -1.1035,0 -2,-0.8955 -2,-2 0,-1.1035 0.8965,-2 2,-2 1.1035,0 2,0.8965 2,2"/><path id="path10" d="m 35.9451,37.1341 c -1.1519,0 -2.3038,-0.2861 -3.4473,-0.8579 -0.4942,-0.247 -0.6943,-0.8476 -0.4473,-1.3418 0.2466,-0.4936 0.8462,-0.6943 1.3418,-0.4472 1.7178,0.8593 3.3877,0.8593 5.1055,0 0.4946,-0.2471 1.0947,-0.0464 1.3418,0.4472 0.2471,0.4942 0.0469,1.0948 -0.4473,1.3418 -1.1435,0.5718 -2.2954,0.8579 -3.4472,0.8579 z"/><path id="path11" d="m 16.9082,58.9834 c -0.4844,0 -0.9102,-0.3525 -0.9863,-0.8467 -0.041,-0.2695 -0.9727,-6.6328 2.581,-10.7754 1.8809,-2.1914 4.627,-3.3261 8.166,-3.375 0.3672,-0.1035 0.7666,0.0235 1.0157,0.3116 3.0508,2.0175 5.5049,3.2656 8.1631,3.2783 2.7226,-0.0127 5.2294,-1.3213 8.3828,-3.4239 0.3886,-0.2587 0.9052,-0.2138 1.2441,0.1075 0.3379,0.3222 0.4092,0.8359 0.169,1.2373 -1.6524,2.7705 -7.2334,11.8652 -9.6397,12.5625 -1.9541,0.5713 -5.2012,-3.4942 -9.6621,-12.0645 -2.7637,0.1065 -4.8857,1 -6.3145,2.6612 -2.956,3.4365 -2.1377,9.1201 -2.1289,9.1777 0.083,0.5449 -0.292,1.0547 -0.8379,1.1387 -0.0507,0.0078 -0.1015,0.0107 -0.1523,0.0107 z M 29.6025,47.7959 c 2.3633,4.1709 4.9024,7.9229 5.9258,8.3096 0.9912,-0.4873 3.6455,-4.1123 6.2305,-8.1358 -1.9512,0.9991 -3.7979,1.5782 -5.8047,1.6055 -0.0215,10e-4 -0.0449,0 -0.0664,10e-4 -0.0078,0 -0.0156,0 -0.0234,0 h -0.0332 c -0.0157,9e-4 -0.0323,9e-4 -0.0479,0 -0.0146,0 -0.0283,0 -0.042,-10e-4 -2.1211,-0.0283 -4.0635,-0.6748 -6.1387,-1.7793 z"/><path id="path12" fill="none" stroke="#000" stroke-linecap="round" stroke-linejoin="round" stroke-miterlimit="10" stroke-width="2" d="m 57.2934,48.1898 -5.5,11.38 c -0.44,0.91 -1.47,1.45 -2.43,1.17 -1.24,-0.37 -1.8,-1.72 -1.26,-2.83 l 5.54,-11.48"/><path id="path13" fill="none" stroke="#000" stroke-linecap="round" stroke-linejoin="round" stroke-miterlimit="10" stroke-width="2" d="m 56.4134,38.2698 -1.93,-1.59 c -1.52,-0.74 -3.36,-0.1 -4.09,1.43 l -1.64,3.38 c -0.74,1.53 -0.1,3.36 1.43,4.1 l 2.52,0.54 0.96,0.21 h 0.02 l 3.65,1.76 0.02,0.02 0.53,0.44 2.05,1.74 c 1.52,0.73 3.36,0.09 4.1,-1.43 l 1.63,-3.39 c 0.74,-1.52 0.1,-3.36 -1.43,-4.09 l -2.54,-0.51 -0.8,-0.16 -3.64,-1.76 z"/><line id="line13" x1="61.653" x2="58.243" y1="41.08" y2="48.13" fill="none" stroke="#000" stroke-linecap="round" stroke-linejoin="round" stroke-miterlimit="10" stroke-width="2"/><line id="line14" x1="52.833" x2="56.243" y1="45.52" y2="38.47" fill="none" stroke="#000" stroke-linecap="round" stroke-linejoin="round" stroke-miterlimit="10" stroke-width="2"/><path id="path14" d="m 32.0244,54.6201 c -0.208,0 -0.417,-0.0644 -0.5967,-0.1982 -0.4423,-0.3301 -0.5341,-0.9571 -0.2041,-1.3994 l 3.7598,-5.044 c 0.1904,-0.2558 0.4883,-0.4053 0.8135,-0.4023 0.3203,0.0039 0.6181,0.1601 0.8037,0.4209 l 3.3779,4.7597 c 0.3194,0.4512 0.2139,1.0752 -0.2363,1.3946 -0.4512,0.3203 -1.0742,0.2129 -1.3945,-0.2364 l -2.5821,-3.6386 -2.9385,3.9414 c -0.1962,0.2636 -0.497,0.4023 -0.8027,0.4023 z"/><path id="path15" fill="none" stroke="#000" stroke-linecap="round" stroke-linejoin="round" stroke-miterlimit="10" stroke-width="2" d="m 24.524,28.7554 c 0,0.04 0,0.09 0,0.13 0.06,7.77 5.11,14.04 11.34,14.04 6.2,0 11.25,-6.23 11.34,-13.96 0,-0.07 0,-0.14 0,-0.21 0,-1.16 -0.11,-2.29 -0.32,-3.36 -0.21,-1.06 -0.51,-2.08 -0.89,-3.03"/><path id="path16" fill="none" stroke="#000" stroke-linecap="round" stroke-linejoin="round" stroke-miterlimit="10" stroke-width="2" d="m 47.624,28.9754 c 0,0 3.9,-2.89 2.79,-7.44 -0.59,-2.45 -2.64,-5.38 -7.52,-8.6 -5.48,-3.95 -13.73,-2.8 -16,0.09 -0.44,0.6 -0.65,1.31 -0.65,2.03 0,0.42 0.08,0.85 0.24,1.26 0.31,0.81 0.73,1.88 1.7,2.9 2.07,2.16 6.6,4.14 17.81,3.14 0.49,-0.04 0.99,-0.09 1.51,-0.14"/><path id="path17" fill="none" stroke="#000" stroke-linecap="round" stroke-linejoin="round" stroke-miterlimit="10" stroke-width="2" d="m 25.794,15.0654 c -6.5,6.89 -2.09,15.72 -1.36,13.91 0.03,-0.03 0.06,-0.06 0.09,-0.09 2.85,-2.78 3.56,-9.58 3.56,-9.58"/></g></svg>