<svg xmlns="http://www.w3.org/2000/svg" xmlns:svg="http://www.w3.org/2000/svg" id="emoji" width="42" height="57.6" version="1.1" viewBox="0 0 42 57.6"><g id="skin" transform="translate(-15,-7)"><g id="skin-b"><circle id="circle1" cx="47" cy="11" r="3" fill="#debb90"/><path id="path1" fill="#debb90" d="m 52,23.6 1.9,38.2 c 0.1,1.1 -0.7,1.8 -1.5,1.8 -0.8,0 -1.4,-0.6 -1.5,-1.3 L 48.2,39 c -0.1,-0.6 -0.5,-1.1 -1.2,-1.1 -0.7,0 -1.1,0.5 -1.2,1.1 L 43.1,62.3 C 43,63 42.4,63.6 41.6,63.6 40.8,63.6 40,62.9 40.1,61.8 L 42,23.6"/><path id="path2" fill="#debb90" d="m 56,42.9 c -3.3,0 -5.5,-18.3 -9,-18.3 -3.5,0 -7.2,18.3 -11,18.3 0,0 2.1,-5.7 2.5,-10.6 0.2,-2.5 0.3,-9.3 0.3,-9.3 0.1,-2.8 2.4,-5 5.2,-5 h 6 c 2.8,0 5.1,2.2 5.2,5 z"/></g><g id="skin-a"><circle id="circle2" cx="25" cy="11" r="3" fill="#fadcbc"/><path id="path3" fill="#fadcbc" d="m 30,24 c -2.4,3.5 -0.7,6.1 0,8 0.5,1.3 0.8,4.2 0.9,5.6 0.6,6 1,24.2 1,24.2 0.1,1.1 -0.7,1.8 -1.5,1.8 -0.8,0 -1.4,-0.6 -1.5,-1.3 L 26.2,39 c -0.1,-0.6 -0.5,-1.1 -1.2,-1.1 -0.7,0 -1.1,0.5 -1.2,1.1 l -2.7,23.3 c -0.1,0.7 -0.7,1.3 -1.5,1.3 -0.8,0 -1.6,-0.7 -1.5,-1.8 0,0 0.5,-18.1 1.1,-24 0.1,-1.5 0.4,-4.4 0.8,-5.9 0.6,-1.9 2.4,-4.7 0,-8"/><path id="path4" fill="#fadcbc" d="m 16.8,23 c 0.1,-2.8 2.4,-5 5.2,-5 h 6 c 2.8,0 5.1,2.2 5.2,5 0,0 0.1,6.7 0.3,9.3 0.4,4.9 2.5,10.6 2.5,10.6 -3.8,0 -7.5,-18.3 -11,-18.3 -3.5,0 -5.7,18.3 -9,18.3 z"/></g></g><g id="line" transform="translate(-15,-7)"><circle id="circle4" cx="47" cy="11" r="3" fill="none" stroke="#000" stroke-miterlimit="10" stroke-width="2"/><circle id="circle5" cx="25" cy="11" r="3" fill="none" stroke="#000" stroke-miterlimit="10" stroke-width="2"/><path id="path5" fill="none" stroke="#000" stroke-linecap="round" stroke-linejoin="round" stroke-width="2" d="m 36,41.9 c 0,0 2.1,-4.7 2.5,-9.6 0.2,-2.5 0.3,-9.3 0.3,-9.3 0.1,-2.8 2.4,-5 5.2,-5 h 6 c 2.8,0 5.1,2.2 5.2,5 L 56,41.9"/><path id="path6" fill="none" stroke="#000" stroke-linecap="round" stroke-linejoin="round" stroke-width="2" d="M 16,41.9 16.8,23 c 0.1,-2.8 2.4,-5 5.2,-5 h 6 c 2.8,0 5.1,2.2 5.2,5 0,0 0.1,6.7 0.3,9.3 0.4,4.9 2.5,9.6 2.5,9.6"/><path id="path7" fill="none" stroke="#000" stroke-linecap="round" stroke-linejoin="round" stroke-width="2" d="m 52,23.6 1.9,38.2 c 0.1,1.1 -0.7,1.8 -1.5,1.8 -0.8,0 -1.4,-0.6 -1.5,-1.3 L 48.2,39 c -0.1,-0.6 -0.5,-1.1 -1.2,-1.1 -0.7,0 -1.1,0.5 -1.2,1.1 L 43.1,62.3 C 43,63 42.4,63.6 41.6,63.6 40.8,63.6 40,62.9 40.1,61.8 L 42,23.6"/><path id="path8" fill="none" stroke="#000" stroke-linecap="round" stroke-linejoin="round" stroke-width="2" d="m 30,24 c -2.4,3.5 -0.7,6.1 0,8 0.5,1.3 0.8,4.2 0.9,5.6 0.6,6 1,24.2 1,24.2 0.1,1.1 -0.7,1.8 -1.5,1.8 -0.8,0 -1.4,-0.6 -1.5,-1.3 L 26.2,39 c -0.1,-0.6 -0.5,-1.1 -1.2,-1.1 -0.7,0 -1.1,0.5 -1.2,1.1 l -2.7,23.3 c -0.1,0.7 -0.7,1.3 -1.5,1.3 -0.8,0 -1.6,-0.7 -1.5,-1.8 0,0 0.5,-18.1 1.1,-24 0.1,-1.5 0.4,-4.4 0.8,-5.9 0.6,-1.9 2.4,-4.7 0,-8"/></g></svg>