<svg xmlns="http://www.w3.org/2000/svg" xmlns:svg="http://www.w3.org/2000/svg" id="emoji" width="51.388" height="53.677" version="1.1" viewBox="0 0 51.388 53.677"><g id="color" transform="translate(-15.699001,-8.2478715)"><path id="path1" fill="#9b9b9a" d="m 16.8466,58.8567 c 0,0 -1.5465,-13.8402 10.4535,-13.8402 3.1919,2.1279 5.9264,3.5984 9,3.5922 h -0.125 c 3.0736,0.0062 5.1081,-2.5643 8.3,-4.6922 15.5705,-10e-5 11.1,14.9402 11.1,14.9402"/><polyline id="polyline1" fill="#d0cfce" points="36.615 54.17 39.03 57.439 45.362 44.139 52.194 53.63 40.364 58.348"/><path id="path2" fill="#fff" d="m 38.5091,57.73 c -0.5976,1.035 -4.8914,1.035 -5.4889,0 l -1.8421,-2.4345 -3.3864,-8.7387 7.9729,2.7 7.573,-2.7 -3.2865,8.7387 z"/><path id="path3" fill="#3f3f3f" d="m 33.4574,48.4979 c 0,0 -1.2064,6.0214 2.3072,6.0214 3.5136,0 2.3073,-6.0214 2.3073,-6.0214"/><path id="path4" fill="#3f3f3f" d="m 35.0184,54.8429 c 0.3249,-0.5627 1.137,-0.5627 1.4619,0 l 2.5499,4.0246 h -6.6183 z"/><polyline id="polyline4" fill="#d0cfce" points="34.914 54.519 32.499 57.874 26.827 44.889 22.87 53.333 32.328 57.874"/><path id="path5" fill="#d0cfce" d="M 66.1161,58.4491 H 50.6315 V 38.6467 h 15.2708 c 0.1181,0 0.2138,0.0957 0.2138,0.2138 z"/><path id="path6" fill="#fff" d="M 62.6646,60.925 H 48.057 V 41.9732 H 58.81 c 2.1288,0 3.8546,1.7257 3.8546,3.8546 z"/></g><g id="hair" transform="translate(-15.699001,-8.2478715)"><path id="path7" fill="#3f3f3f" d="m 17.2016,44.7296 c 0.3924,0.644 0.8751,1.2364 1.4433,1.7322 0.4796,0.4185 0.9583,0.8137 1.4365,1.198 1.5671,-1.5598 3.8624,-2.6433 7.2188,-2.6433 3.1714,2.1143 5.892,3.5762 8.9417,3.5889 3.0358,-0.0315 5.0649,-2.5767 8.2333,-4.6888 1.2472,0 2.365,0.0963 3.3664,0.2733 l 0.2155,-1.6545 2.6372,0.0162 v -3.7255 l 5.0351,0.0022 C 55.5253,35.8746 54.3242,32.2565 51.9709,27.6698 51.8404,21.1119 51.0161,11.9845 43.4495,12.2458 41.5959,7.9371 18.6061,2.5796 19.5206,28.0093 c -0.0775,4.3858 -5.13,10.3007 -2.319,16.7203 z"/></g><g id="skin" transform="translate(-15.699001,-8.2478715)"><path id="path8" fill="#fcea2b" d="m 40.9975,15.8576 c -2.0473,3.6729 -11.675,8.6145 -16.3735,10.7562 l 0.0874,0.0102 c -0.078,0.6711 -0.1184,1.3574 -0.1184,2.0556 0,7.8276 5.0765,14.1732 11.3386,14.1732 6.2622,0 11.3386,-6.3456 11.3386,-14.1732 0,-1.1582 -0.1111,-2.2839 -0.3208,-3.3614 -0.7817,-4.0177 -2.9333,-7.3653 -5.8015,-9.2263"/></g><g id="line" transform="translate(-15.699001,-8.2478715)"><path id="path9" fill="none" stroke="#000" stroke-linecap="round" stroke-linejoin="round" stroke-miterlimit="10" stroke-width="2" d="m 18.1626,44.3604 -0.5604,-0.9195 c -2.6609,-6.0766 2.4972,-11.6756 2.5705,-15.8271 -0.8655,-24.0713 20.8962,-19 22.6507,-14.9215 7.1623,-0.2473 7.9426,8.3925 8.0662,14.6002 1.5104,2.9436 2.5194,5.4658 3.0728,7.6563"/><path id="path10" fill="none" stroke="#000" stroke-linecap="round" stroke-linejoin="round" stroke-miterlimit="10" stroke-width="2" d="m 40.9975,15.8576 c -2.0473,3.6729 -11.675,8.6145 -16.3735,10.7562 l 0.0874,0.0102 c -0.078,0.6711 -0.1184,1.3574 -0.1184,2.0556 0,7.8276 5.0765,14.1732 11.3386,14.1732 6.2622,0 11.3386,-6.3456 11.3386,-14.1732 0,-1.1582 -0.1111,-2.2839 -0.3208,-3.3614 -0.7817,-4.0177 -2.9333,-7.3653 -5.8015,-9.2263"/><path id="path11" d="m 41.9318,26.9963 c 0,1.1045 -0.8965,2 -2,2 -1.1035,0 -2,-0.8955 -2,-2 0,-1.1035 0.8965,-2 2,-2 1.1035,0 2,0.8965 2,2"/><path id="path12" d="m 33.9318,26.9963 c 0,1.1045 -0.8965,2 -2,2 -1.1035,0 -2,-0.8955 -2,-2 0,-1.1035 0.8965,-2 2,-2 1.1035,0 2,0.8965 2,2"/><path id="path13" d="m 35.9316,36.9987 c -1.1518,0 -2.3037,-0.2861 -3.4472,-0.8579 -0.4942,-0.247 -0.6944,-0.8476 -0.4473,-1.3418 0.2466,-0.4936 0.8462,-0.6943 1.3418,-0.4472 1.7178,0.8593 3.3877,0.8593 5.1055,0 0.4946,-0.2471 1.0947,-0.0464 1.3418,0.4472 0.247,0.4942 0.0468,1.0948 -0.4473,1.3418 -1.1436,0.5718 -2.2954,0.8579 -3.4473,0.8579 z"/><path id="path14" fill="none" stroke="#000" stroke-linecap="round" stroke-linejoin="round" stroke-miterlimit="10" stroke-width="2" d="m 33.4574,48.4979 c 0,0 -1.2064,6.0214 2.3072,6.0214 3.5136,0 2.3073,-6.0214 2.3073,-6.0214"/><line id="line14" x1="44.702" x2="38.962" y1="55.592" y2="57.88" fill="none" stroke="#000" stroke-linecap="round" stroke-linejoin="round" stroke-miterlimit="10" stroke-width="2"/><path id="path15" fill="none" stroke="#000" stroke-linecap="round" stroke-linejoin="round" stroke-miterlimit="10" stroke-width="2" d="m 16.8271,57.8491 c 0,0 -2,-13 10,-13 3.1919,2.1279 5.9264,3.5984 9,3.5921 h -0.125 c 3.0736,0.0063 5.8082,-1.4642 9,-3.5921"/><polygon id="polygon15" fill="none" stroke="#000" stroke-linecap="round" stroke-linejoin="round" stroke-miterlimit="10" stroke-width="2" points="26.827 44.889 22.87 53.333 32.328 57.874 34.914 54.519 32.499 57.874"/><polyline id="polyline15" fill="none" stroke="#000" stroke-linecap="round" stroke-linejoin="round" stroke-miterlimit="10" stroke-width="2" points="44.702 44.849 39.03 57.874 36.615 54.519"/><polygon id="polygon16" fill="none" stroke="#000" stroke-linecap="round" stroke-linejoin="round" stroke-miterlimit="10" stroke-width="2" points="48.057 42.289 59.882 42.289 59.882 44.401 62.665 44.401 62.665 60.925 48.057 60.925"/><polyline id="polyline16" fill="none" stroke="#000" stroke-linecap="round" stroke-linejoin="round" stroke-miterlimit="10" stroke-width="2" points="51.261 38.826 66.087 38.826 66.087 57.462"/><line id="line16" x1="59.882" x2="62.665" y1="42.289" y2="44.402" fill="none" stroke="#000" stroke-linecap="round" stroke-linejoin="round" stroke-miterlimit="10" stroke-width="2"/><line id="line17" x1="51.001" x2="59.434" y1="48.498" y2="48.498" fill="none" stroke="#000" stroke-linecap="round" stroke-linejoin="round" stroke-miterlimit="10" stroke-width="2"/><line id="line18" x1="51.001" x2="59.434" y1="52.594" y2="52.594" fill="none" stroke="#000" stroke-linecap="round" stroke-linejoin="round" stroke-miterlimit="10" stroke-width="2"/><line id="line19" x1="51.001" x2="59.434" y1="56.179" y2="56.179" fill="none" stroke="#000" stroke-linecap="round" stroke-linejoin="round" stroke-miterlimit="10" stroke-width="2"/></g></svg>