<?xml version="1.0" encoding="UTF-8" standalone="no"?>
<svg
   id="emoji"
   viewBox="0 0 40.126198 51.450508"
   version="1.1"
   sodipodi:docname="1f473-200d-2642-fe0f.svg"
   width="40.126198"
   height="51.450508"
   xmlns:inkscape="http://www.inkscape.org/namespaces/inkscape"
   xmlns:sodipodi="http://sodipodi.sourceforge.net/DTD/sodipodi-0.dtd"
   xmlns="http://www.w3.org/2000/svg"
   xmlns:svg="http://www.w3.org/2000/svg">
  <defs
     id="defs28" />
  <sodipodi:namedview
     id="namedview28"
     pagecolor="#ffffff"
     bordercolor="#000000"
     borderopacity="0.25"
     inkscape:showpageshadow="2"
     inkscape:pageopacity="0.0"
     inkscape:pagecheckerboard="0"
     inkscape:deskcolor="#d1d1d1" />
  <g
     id="color"
     transform="translate(-15.910301,-7.6619917)">
    <path
       fill="#b1cc33"
       d="m 54.8642,59.1073 c 0,0 2,-13.7973 -10,-13.7973 -3.1918,2.1192 -5.9264,3.5837 -9,3.5775 h 0.125 c -3.0736,0.0062 -5.8081,-1.4583 -9,-3.5775 -12,0 -10,13.7973 -10,13.7973"
       id="path1" />
    <path
       fill="#5c9e31"
       d="m 45.2573,44.1632 c -3.1127,2.0751 -4.9833,3.24 -8.9725,3.8184 12.8266,0.404 12.8266,7.1793 13.575,11.1071 h 5.02 c 0,0 2.1607,-14.9255 -9.6225,-14.9255 z"
       id="path2" />
    <path
       fill="#ffffff"
       d="m 40.0184,9.2025 c 10.25,3.13 10.37,9.6 9.18,13.76 h -0.34 a 49.7116,49.7116 0 0 1 -9.3,-10.11 l -2.92,-0.41 a 6.8919,6.8919 0 0 0 -0.53,-3.75 l 0.06,-0.03 a 13.217,13.217 0 0 1 3.85,0.54 z"
       id="path3" />
    <path
       fill="#ffffff"
       d="m 40.4284,20.6325 a 21.3528,21.3528 0 0 1 -4.13,-6.19 l -0.13,-0.05 a 9.0785,9.0785 0 0 0 0.47,-1.95 l 2.92,0.41 a 49.7116,49.7116 0 0 0 9.3,10.11 h 0.34 a 15.582,15.582 0 0 1 -1.69,3.87 c 0,0 -0.03,-0.02 -0.1,-0.07 a 46.092,46.092 0 0 1 -6.98,-6.13 z"
       id="path4" />
    <path
       fill="#ffffff"
       d="m 40.4284,20.6325 c -3.74,3.57 -8.33,0 -8.33,0 a 18.72,18.72 0 0 0 4.07,-6.24 l 0.13,0.05 a 21.3528,21.3528 0 0 0 4.13,6.19 z"
       id="path5" />
    <path
       fill="#ffffff"
       d="m 36.1084,8.6925 a 6.8919,6.8919 0 0 1 0.53,3.75 9.0785,9.0785 0 0 1 -0.47,1.95 18.72,18.72 0 0 1 -4.07,6.24 39.4538,39.4538 0 0 1 -4.08,3.79 c -1.58,1.28 -2.84,2.13 -3.17,2.35 l -0.09,0.06 c 0,0 -8.34,-12.79 7.5,-17.63 a 13.1031,13.1031 0 0 1 3.84,-0.54 c 0,0.01 0.01,0.02 0.01,0.03 z"
       id="path6" />
    <path
       fill="#d0cfce"
       d="m 40.9512,9.512 c 0,0 5.4813,8.9463 1.1446,12.8282 l 5.4149,4.4923 c 0,0 8.3123,-12.2215 -6.5595,-17.3205 z"
       id="path7" />
  </g>
  <g
     id="hair"
     transform="translate(-15.910301,-7.6619917)">
    <path
       fill="#6a462f"
       d="m 45.8284,35.8825 a 17.201,17.201 0 0 1 -9.17,8.38 1.45,1.45 0 0 1 -1.12,0.01 17.5972,17.5972 0 0 1 -9.52,-9.15 18.5724,18.5724 0 0 1 6.73,-3.72 c 3.8,-1.09 8.67,-0.82 13.08,4.48 z m -6.29,0.52 a 1,1 0 0 0 -0.89,-1.79 5.383,5.383 0 0 1 -5.11,0 0.9935,0.9935 0 0 0 -1.34,0.45 1.0108,1.0108 0 0 0 0.45,1.34 7.33,7.33 0 0 0 6.89,0 z"
       id="path8" />
  </g>
  <g
     id="skin"
     transform="translate(-15.910301,-7.6619917)">
    <path
       fill="#fcea2b"
       d="m 47.3484,26.8525 a 17.1416,17.1416 0 0 1 0.09,1.76 16.804,16.804 0 0 1 -1.61,7.27 c -4.41,-5.3 -9.28,-5.57 -13.08,-4.48 l -0.65,-2.15 a 2,2 0 1 0 -1.55,-3.27 l -2.53,-1.56 a 39.4538,39.4538 0 0 0 4.08,-3.79 c 0,0 4.59,3.57 8.33,0 a 46.092,46.092 0 0 0 6.98,6.13 z m -5.25,0.4 a 2,2 0 1 0 -2,2 2.0059,2.0059 0 0 0 2,-2 z"
       id="path9" />
    <path
       fill="#fcea2b"
       d="m 32.0984,29.2525 0.65,2.15 a 18.5724,18.5724 0 0 0 -6.73,3.72 16.973,16.973 0 0 1 -1.26,-6.51 c 0,-0.62 0.03,-1.23 0.09,-1.84 0.33,-0.22 1.59,-1.07 3.17,-2.35 l 2.53,1.56 a 2.0261,2.0261 0 0 0 -0.45,1.27 1.9931,1.9931 0 0 0 2,2 z"
       id="path10" />
  </g>
  <g
     id="line"
     transform="translate(-15.910301,-7.6619917)">
    <path
       d="m 40.0984,25.2525 a 2,2 0 1 1 -2,2 2.0059,2.0059 0 0 1 2,-2 z"
       id="path11" />
    <path
       d="m 39.9884,35.0625 a 0.9935,0.9935 0 0 1 -0.45,1.34 7.33,7.33 0 0 1 -6.89,0 1.0108,1.0108 0 0 1 -0.45,-1.34 0.9935,0.9935 0 0 1 1.34,-0.45 5.383,5.383 0 0 0 5.11,0 0.9935,0.9935 0 0 1 1.34,0.45 z"
       id="path12" />
    <path
       d="m 32.0984,25.2525 a 2,2 0 1 1 -2,2 2.0261,2.0261 0 0 1 0.45,-1.27 2.0009,2.0009 0 0 1 1.55,-0.73 z"
       id="path13" />
    <path
       fill="none"
       stroke="#000000"
       stroke-miterlimit="10"
       d="m 26.0184,35.1225 a 18.5724,18.5724 0 0 1 6.73,-3.72 c 3.8,-1.09 8.67,-0.82 13.08,4.48"
       id="path14" />
    <path
       d="m 40.0984,25.2525 a 2,2 0 1 1 -2,2 2.0059,2.0059 0 0 1 2,-2 z"
       id="path15" />
    <path
       d="m 39.9884,35.0625 a 0.9935,0.9935 0 0 1 -0.45,1.34 7.33,7.33 0 0 1 -6.89,0 1.0108,1.0108 0 0 1 -0.45,-1.34 0.9935,0.9935 0 0 1 1.34,-0.45 5.383,5.383 0 0 0 5.11,0 0.9935,0.9935 0 0 1 1.34,0.45 z"
       id="path16" />
    <path
       d="m 32.0984,25.2525 a 2,2 0 1 1 -2,2 2.0261,2.0261 0 0 1 0.45,-1.27 2.0009,2.0009 0 0 1 1.55,-0.73 z"
       id="path17" />
    <path
       fill="none"
       stroke="#000000"
       stroke-linecap="round"
       stroke-linejoin="round"
       stroke-width="2"
       d="m 24.8484,26.7725 c -0.06,0.61 -0.09,1.22 -0.09,1.84 a 16.973,16.973 0 0 0 1.26,6.51 17.5972,17.5972 0 0 0 9.52,9.15 1.45,1.45 0 0 0 1.12,-0.01 17.201,17.201 0 0 0 9.17,-8.38 16.804,16.804 0 0 0 1.61,-7.27 17.1416,17.1416 0 0 0 -0.09,-1.76"
       id="path18" />
    <path
       fill="none"
       stroke="#000000"
       stroke-linecap="round"
       stroke-linejoin="round"
       stroke-width="2"
       d="m 44.9084,45.1125 c 12,0 10,13 10,13"
       id="path19" />
    <path
       fill="none"
       stroke="#000000"
       stroke-linecap="round"
       stroke-linejoin="round"
       stroke-width="2"
       d="m 41.4684,47.1825 a 35.3342,35.3342 0 0 0 3.33,-2"
       id="path20" />
    <path
       fill="none"
       stroke="#000000"
       stroke-linecap="round"
       stroke-linejoin="round"
       stroke-width="2"
       d="m 17.0384,58.1125 c 0,0 -2,-13 10,-13 3.14,2.09 5.84,3.55 8.87,3.59 h 0.13 a 12.2021,12.2021 0 0 0 5.42,-1.51"
       id="path21" />
    <path
       fill="none"
       stroke="#000000"
       stroke-linecap="round"
       stroke-linejoin="round"
       stroke-width="2"
       d="m 36.1084,8.6925 c 0,-0.01 -0.01,-0.02 -0.01,-0.03 a 13.1031,13.1031 0 0 0 -3.84,0.54 c -15.84,4.84 -7.5,17.63 -7.5,17.63 l 0.09,-0.06 c 0.33,-0.22 1.59,-1.07 3.17,-2.35 a 39.4538,39.4538 0 0 0 4.08,-3.79 18.72,18.72 0 0 0 4.07,-6.24 9.0785,9.0785 0 0 0 0.47,-1.95 6.8919,6.8919 0 0 0 -0.53,-3.75 z"
       id="path22" />
    <path
       fill="none"
       stroke="#000000"
       stroke-linecap="round"
       stroke-linejoin="round"
       stroke-width="2"
       d="m 23.4084,22.9625 a 40.62,40.62 0 0 0 9.66,-10.11"
       id="path23" />
    <path
       fill="none"
       stroke="#000000"
       stroke-linecap="round"
       stroke-linejoin="round"
       stroke-width="2"
       d="m 36.1684,8.6625 a 13.217,13.217 0 0 1 3.85,0.54 c 10.25,3.13 10.37,9.6 9.18,13.76 a 15.582,15.582 0 0 1 -1.69,3.87 c 0,0 -0.03,-0.02 -0.1,-0.07 a 46.092,46.092 0 0 1 -6.98,-6.13 21.3528,21.3528 0 0 1 -4.13,-6.19"
       id="path24" />
    <path
       fill="none"
       stroke="#000000"
       stroke-linecap="round"
       stroke-linejoin="round"
       stroke-width="2"
       d="m 48.8584,22.9625 a 49.7116,49.7116 0 0 1 -9.3,-10.11"
       id="path25" />
    <path
       fill="none"
       stroke="#000000"
       stroke-linecap="round"
       stroke-linejoin="round"
       stroke-width="2"
       d="m 32.0984,20.6325 c 0,0 4.59,3.57 8.33,0 h 0.01"
       id="path26" />
    <path
       fill="none"
       stroke="#000000"
       stroke-linecap="round"
       stroke-linejoin="round"
       stroke-width="2"
       d="m 26.0184,35.1225 a 18.5724,18.5724 0 0 1 6.73,-3.72 c 3.8,-1.09 8.67,-0.82 13.08,4.48"
       id="path27" />
    <path
       fill="none"
       stroke="#000000"
       stroke-linecap="round"
       stroke-linejoin="round"
       stroke-width="2"
       d="m 44.9084,45.1125 a 0.9322,0.9322 0 0 0 -0.11,0.07 c -0.37,0.21 -1.64,0.96 -3.33,2 a 0.01,0.01 0 0 1 -0.01,0.01 c -5.09,3.14 -14.05,8.95 -14.05,10.92"
       id="path28" />
  </g>
</svg>
