<svg xmlns="http://www.w3.org/2000/svg" xmlns:svg="http://www.w3.org/2000/svg" id="emoji" width="40.131" height="50.567" version="1.1" viewBox="0 0 40.131 50.567"><g id="color" transform="translate(-15.80152,-8.3812188)"><path id="path1" fill="#92d3f5" d="m 54.0706,58.8969 c 0,0 2,-13.7974 -10,-13.7974 -3.1919,2.1193 -5.9264,3.5838 -9,3.5775 h 0.125 c -3.0736,0.0063 -5.8082,-1.4582 -9,-3.5775 -12,0 -10,13.7974 -10,13.7974"/><path id="path2" fill="#61b2e4" d="m 43.1009,49.1247 c 5.4463,2.2601 5.5866,6.8076 6.1478,9.7535 4.1614,0 5.0205,0 5.0205,0 0,0 2.1603,-14.9254 -9.6229,-14.9254"/><path id="path3" fill="#e27022" d="M 49.1002,58.8968 V 45.8237 l -4.096,-0.7271 c -2.3626,5.5058 -5.0143,10.899 -6.8354,13.8002 z"/><path id="path4" fill="#e27022" d="M 33.7198,58.8968 C 31.8987,55.9956 29.2469,50.6024 26.8843,45.0966 l -4.3245,0.7271 v 13.0729 z"/><path id="path5" fill="#f1b31c" d="m 46.9269,21.2821 -0.04,0.1 c -0.38,-0.13 -0.79,-0.26 -1.23,-0.39 -2.11,-0.62 -4.99,-1.16 -8.56,-1.16 v -2.57 h 2.89 l 0.06,-5.96 c 6.84,1.21 6.88,9.98 6.88,9.98 z"/><path id="path6" fill="#f1b31c" d="m 37.0969,17.2621 v 2.57 c -0.34,0 -0.68,0.01 -1.03,0.02 h -0.16 c -0.03,0 -0.06,-0.01 -0.08,0 -4.02,-0.11 -7.21,0.47 -9.5,1.13 v 0.01 c -0.59,0.17 -1.12,0.35 -1.59,0.53 l -0.09,-0.24 c 0,0 0.05,-9.2 7.4,-10.06 l -0.06,6.04 z"/><polygon id="polygon6" fill="#fcea2b" points="45.976 45.221 42.187 58.945 44.423 58.948 47.911 45.723"/><polygon id="polygon7" fill="#fcea2b" points="25.619 45.221 29.407 58.945 27.172 58.948 23.683 45.723"/><path id="path7" fill="#fcea2b" d="m 40.0469,11.3021 -0.06,5.96 h -2.89 -5.11 l 0.06,-6.04 c 1.59,-2.81 7.37,-2.07 8,0 z"/></g><g id="hair" transform="translate(-15.80152,-8.3812188)"><path id="path8" fill="#000" d="m 35.8269,19.8521 c 0,0 0.04,0.04 0.12,0.11 -0.92,0.79 -6.87,5.73 -10.22,4.31 l -0.53,-0.21 c 0.28,-1.09 0.66,-2.12 1.13,-3.07 v -0.01 c 2.29,-0.66 5.48,-1.24 9.5,-1.13 z"/><path id="path9" fill="#000" d="m 46.7869,24.0521 -0.62,0.22 c -3.35,1.42 -9.3,-3.52 -10.22,-4.31 0.08,-0.07 0.12,-0.11 0.12,-0.11 0.35,-0.01 0.69,-0.02 1.03,-0.02 3.57,0 6.45,0.54 8.56,1.16 0.47,0.95 0.85,1.98 1.13,3.06 z"/></g><g id="skin" transform="translate(-15.80152,-8.3812188)"><path id="path10" fill="#a57939" d="m 47.0069,25.0321 c 0.21,1.08 0.32,2.21 0.32,3.36 0,7.83 -5.08,14.18 -11.34,14.18 -6.26,0 -11.34,-6.35 -11.34,-14.18 0,-1.51 0.19,-2.97 0.55,-4.33 l 0.53,0.21 c 3.35,1.42 9.3,-3.52 10.22,-4.31 0.92,0.79 6.87,5.73 10.22,4.31 l 0.62,-0.22 c 0.08,0.32 0.16,0.65 0.22,0.98 z m -5.02,2 c 0,-1.1 -0.89,-2 -2,-2 -1.1,0 -2,0.9 -2,2 0,1.11 0.9,2 2,2 1.11,0 2,-0.89 2,-2 z m -2.55,9.15 c 0.49,-0.25 0.69,-0.85 0.45,-1.34 -0.25,-0.5 -0.85,-0.7 -1.34,-0.45 -1.72,0.86 -3.39,0.86 -5.11,0 -0.5,-0.25 -1.1,-0.05 -1.34,0.45 -0.25,0.49 -0.05,1.09 0.45,1.34 1.14,0.57 2.29,0.86 3.44,0.86 1.15,0 2.31,-0.29 3.45,-0.86 z m -5.45,-9.15 c 0,-1.1 -0.89,-2 -2,-2 -1.1,0 -2,0.9 -2,2 0,1.11 0.9,2 2,2 1.11,0 2,-0.89 2,-2 z"/></g><g id="line" transform="translate(-15.80152,-8.3812188)"><line id="line10" x1="24.651" x2="28.14" y1="45.472" y2="58.897" fill="none"/><path id="path11" d="m 54.8066,58.8877 c -0.0507,0 -0.1015,-0.0029 -0.1523,-0.0107 -0.5459,-0.084 -0.9209,-0.5938 -0.8379,-1.1387 0.0088,-0.0576 0.8272,-5.7412 -2.1289,-9.1778 -1.4756,-1.7148 -3.6895,-2.6123 -6.5859,-2.6689 -3.3096,2.1846 -6.0274,3.5449 -9.126,3.5879 -0.0215,0.0019 -0.044,10e-4 -0.0645,10e-4 -0.0078,0 -0.0136,0 -0.0215,0 h -0.0458 c -0.0137,-10e-4 -0.0274,0 -0.0411,0 -0.0146,0 -0.0293,0 -0.0439,-10e-4 -3.1006,-0.043 -5.8174,-1.4033 -9.126,-3.5879 -2.8965,0.0566 -5.1103,0.9541 -6.5859,2.6689 -2.9561,3.4366 -2.1377,9.1202 -2.1289,9.1778 0.083,0.5449 -0.292,1.0547 -0.8379,1.1387 -0.5352,0.083 -1.0547,-0.2901 -1.1387,-0.836 -0.041,-0.2695 -0.9726,-6.6328 2.5811,-10.7754 1.9228,-2.2412 4.7509,-3.3769 8.4072,-3.3769 0.1973,0 0.3906,0.0586 0.5547,0.1679 3.1523,2.1016 5.6592,3.4092 8.3828,3.4239 2.7226,-0.0137 5.2295,-1.3213 8.3828,-3.4239 0.1641,-0.1093 0.3574,-0.1679 0.5547,-0.1679 3.6562,0 6.4844,1.1357 8.4072,3.3769 3.5537,4.1426 2.6221,10.5059 2.5811,10.7754 -0.0762,0.4942 -0.502,0.8467 -0.9864,0.8467 z"/><path id="path12" d="m 33.7656,58.8887 c -0.333,0 -0.6582,-0.166 -0.8476,-0.4688 -1.8311,-2.916 -4.5157,-7.5635 -6.9073,-13.1367 -0.2177,-0.5078 0.0176,-1.0957 0.5245,-1.3135 0.5068,-0.2197 1.0957,0.0166 1.3134,0.5244 2.3409,5.4551 4.9698,10.0059 6.7627,12.8633 0.294,0.4678 0.1524,1.085 -0.3154,1.378 -0.165,0.1035 -0.3486,0.1533 -0.5303,0.1533 z"/><path id="path13" d="m 38.2129,58.8887 c -0.1816,0 -0.3652,-0.0498 -0.5303,-0.1533 -0.4678,-0.293 -0.6094,-0.9102 -0.3154,-1.378 1.793,-2.8574 4.4219,-7.4082 6.7627,-12.8633 0.2168,-0.5078 0.8066,-0.7431 1.3135,-0.5244 0.5068,0.2178 0.7421,0.8057 0.5244,1.3135 -2.3916,5.5732 -5.0762,10.2207 -6.9073,13.1367 -0.1894,0.3028 -0.5146,0.4688 -0.8476,0.4688 z"/><path id="path14" d="m 22.6045,58.8887 c -0.5527,0 -1,-0.4473 -1,-1 V 45.6152 c 0,-0.5527 0.4473,-1 1,-1 0.5527,0 1,0.4473 1,1 v 12.2735 c 0,0.5527 -0.4473,1 -1,1 z"/><path id="path15" d="m 49.1455,58.8887 c -0.5527,0 -1,-0.4473 -1,-1 V 45.6152 c 0,-0.5527 0.4473,-1 1,-1 0.5527,0 1,0.4473 1,1 v 12.2735 c 0,0.5527 -0.4473,1 -1,1 z"/><path id="path16" d="m 39.9869,25.0321 c 1.11,0 2,0.9 2,2 0,1.11 -0.89,2 -2,2 -1.1,0 -2,-0.89 -2,-2 0,-1.1 0.9,-2 2,-2 z"/><path id="path17" d="m 39.8869,34.8421 c 0.24,0.49 0.04,1.09 -0.45,1.34 -1.14,0.57 -2.3,0.86 -3.45,0.86 -1.15,0 -2.3,-0.29 -3.44,-0.86 -0.5,-0.25 -0.7,-0.85 -0.45,-1.34 0.24,-0.5 0.84,-0.7 1.34,-0.45 1.72,0.86 3.39,0.86 5.11,0 0.49,-0.25 1.09,-0.05 1.34,0.45 z"/><path id="path18" d="m 31.9869,25.0321 c 1.11,0 2,0.9 2,2 0,1.11 -0.89,2 -2,2 -1.1,0 -2,-0.89 -2,-2 0,-1.1 0.9,-2 2,-2 z"/><path id="path19" fill="none" stroke="#000" stroke-miterlimit="10" stroke-width="2" d="m 26.3269,20.9921 c -0.47,0.95 -0.85,1.98 -1.13,3.07 -0.36,1.36 -0.55,2.82 -0.55,4.33 0,7.83 5.08,14.18 11.34,14.18 6.26,0 11.34,-6.35 11.34,-14.18 0,-1.15 -0.11,-2.28 -0.32,-3.36 -0.06,-0.33 -0.14,-0.66 -0.22,-0.98 -0.28,-1.08 -0.66,-2.11 -1.13,-3.06"/><path id="path20" fill="none" stroke="#000" stroke-linecap="round" stroke-linejoin="round" stroke-miterlimit="10" stroke-width="2" d="m 26.3269,20.9921 c -0.59,0.17 -1.12,0.35 -1.59,0.53 -1.74,0.64 -2.65,1.22 -2.65,1.22"/><line id="line20" x1="26.327" x2="26.327" y1="20.982" y2="20.992" fill="none" stroke="#000" stroke-miterlimit="10" stroke-width="2"/><path id="path21" fill="none" stroke="#000" stroke-linecap="round" stroke-linejoin="round" stroke-miterlimit="10" stroke-width="2" d="m 49.8869,22.7421 c 0,0 -1.03,-0.66 -3,-1.36 -0.38,-0.13 -0.79,-0.26 -1.23,-0.39 -2.11,-0.62 -4.99,-1.16 -8.56,-1.16 -0.34,0 -0.68,0.01 -1.03,0.02 h -0.16 c -0.03,0 -0.06,-0.01 -0.08,0 -4.02,-0.11 -7.21,0.47 -9.5,1.13"/><path id="path22" fill="none" stroke="#000" stroke-linecap="round" stroke-linejoin="round" stroke-miterlimit="10" stroke-width="2" d="m 40.0469,11.3021 v -0.08 c -0.63,-2.07 -6.41,-2.81 -8,0 l -0.06,6.04 h 5.11 2.89 z"/><path id="path23" fill="none" stroke="#000" stroke-miterlimit="10" stroke-width="2" d="m 24.6469,21.2821 c 0,0 0.05,-9.2 7.4,-10.06"/><path id="path24" fill="none" stroke="#000" stroke-miterlimit="10" stroke-width="2" d="m 46.9269,21.2821 c 0,0 -0.04,-8.77 -6.88,-9.98 -0.16,-0.03 -0.34,-0.06 -0.51,-0.08"/><path id="path25" fill="none" stroke="#000" stroke-linecap="round" stroke-miterlimit="10" stroke-width="2" d="m 36.0669,19.8521 c 0,0 -0.04,0.04 -0.12,0.11 -0.92,0.79 -6.87,5.73 -10.22,4.31 l -0.53,-0.21 h -0.01"/><path id="path26" fill="none" stroke="#000" stroke-linecap="round" stroke-miterlimit="10" stroke-width="2" d="m 35.8269,19.8521 c 0,0 0.04,0.04 0.12,0.11 0.92,0.79 6.87,5.73 10.22,4.31 l 0.62,-0.22"/></g></svg>