<?xml version="1.0" encoding="UTF-8" standalone="no"?>
<svg
   id="emoji"
   viewBox="0 0 48 53.999958"
   version="1.1"
   sodipodi:docname="1f47f.svg"
   width="48"
   height="53.999958"
   xmlns:inkscape="http://www.inkscape.org/namespaces/inkscape"
   xmlns:sodipodi="http://sodipodi.sourceforge.net/DTD/sodipodi-0.dtd"
   xmlns="http://www.w3.org/2000/svg"
   xmlns:svg="http://www.w3.org/2000/svg">
  <defs
     id="defs8" />
  <sodipodi:namedview
     id="namedview8"
     pagecolor="#ffffff"
     bordercolor="#000000"
     borderopacity="0.25"
     inkscape:showpageshadow="2"
     inkscape:pageopacity="0.0"
     inkscape:pagecheckerboard="0"
     inkscape:deskcolor="#d1d1d1" />
  <g
     id="color"
     transform="translate(-12,-6.0000437)">
    <path
       fill="#d22f27"
       d="m 48.8559,16 c 3,-2 4,-5 3,-9 7,2 6,10 3,15"
       id="path1" />
    <path
       fill="#d22f27"
       d="m 23.1441,16 c -3,-2 -4,-5 -3,-9 -7,2 -6,10 -3,15"
       id="path2" />
    <path
       fill="#ea5a47"
       d="M 36,13 C 23.3177,13 13,23.3177 13,36 13,48.6823 23.3177,59 36,59 48.6822,59 59,48.6822 59,36 59,23.3176 48.6822,13 36,13 Z"
       id="path3" />
  </g>
  <g
     id="hair"
     transform="translate(-12,-6.0000437)" />
  <g
     id="skin"
     transform="translate(-12,-6.0000437)" />
  <g
     id="skin-shadow"
     transform="translate(-12,-6.0000437)" />
  <g
     id="line"
     transform="translate(-12,-6.0000437)">
    <circle
       cx="36"
       cy="36"
       r="23"
       fill="none"
       stroke="#000000"
       stroke-miterlimit="10"
       stroke-width="2"
       id="circle3" />
    <path
       d="m 30,32.9252 c 0,1.6567 -1.3448,3 -3,3 -1.6553,0 -3,-1.3433 -3,-3 0,-1.6553 1.3447,-3 3,-3 1.6552,0 3,1.3448 3,3"
       id="path4" />
    <path
       d="m 48,32.9252 c 0,1.6567 -1.3447,3 -3,3 -1.6553,0 -3,-1.3433 -3,-3 0,-1.6553 1.3447,-3 3,-3 1.6553,0 3,1.3448 3,3"
       id="path5" />
    <line
       x1="23"
       x2="30"
       y1="25"
       y2="29"
       fill="none"
       stroke="#000000"
       stroke-linecap="round"
       stroke-linejoin="round"
       stroke-miterlimit="10"
       stroke-width="2"
       id="line5" />
    <line
       x1="49"
       x2="42"
       y1="25"
       y2="29"
       fill="none"
       stroke="#000000"
       stroke-linecap="round"
       stroke-linejoin="round"
       stroke-miterlimit="10"
       stroke-width="2"
       id="line6" />
    <path
       fill="none"
       stroke="#000000"
       stroke-linecap="round"
       stroke-linejoin="round"
       stroke-miterlimit="10"
       stroke-width="2"
       d="m 48.8559,16 c 3,-2 4,-5 3,-9 7,2 6,10 3,15"
       id="path6" />
    <path
       fill="none"
       stroke="#000000"
       stroke-linecap="round"
       stroke-linejoin="round"
       stroke-miterlimit="10"
       stroke-width="2"
       d="m 23.1441,16 c -3,-2 -4,-5 -3,-9 -7,2 -6,10 -3,15"
       id="path7" />
    <path
       fill="none"
       stroke="#000000"
       stroke-linecap="round"
       stroke-linejoin="round"
       stroke-miterlimit="10"
       stroke-width="2"
       d="m 29.5,44 c 1.2841,-0.6376 3.9847,-1.0308 6.8421,-0.9981 2.6235,0.03 4.9897,0.4146 6.1579,0.9981"
       id="path8" />
  </g>
</svg>
