<svg xmlns="http://www.w3.org/2000/svg" xmlns:svg="http://www.w3.org/2000/svg" id="emoji" width="49.132" height="53.335" version="1.1" viewBox="0 0 49.132 53.335"><g id="color" transform="translate(-11.112008,-5.5253)"><path id="path1" fill="#fff" d="m 56.8796,51.9735 c 7,0 -7.4648,-26.2858 -7.4648,-26.2858 H 21.0776 c 0,0 -14.4648,26.2858 -7.4648,26.2858 z"/><path id="path2" fill="#fff" d="M 50.3761,58.8602 C 44.9007,51.1987 37.9358,56.1524 35.9367,57.4584 33.9376,56.1524 26.9728,51.1987 21.4974,58.8602"/></g><g id="hair" transform="translate(-11.112008,-5.5253)"><circle id="circle2" cx="35.734" cy="11.446" r="5.082" fill="#6a462f"/><path id="path3" fill="#6a462f" d="m 50.8631,25.7672 c 0,3.2423 -0.8358,5.6961 -2.2824,7.5154 -2.9998,-2.6292 -22.2248,-3.4287 -25.524,0.1695 -1.551,-1.8407 -2.4526,-4.3491 -2.4526,-7.6849 0,-8.3558 6.7737,-15.1295 15.1295,-15.1295 8.3558,0 15.1295,6.7737 15.1295,15.1295 z"/></g><g id="skin" transform="translate(-11.112008,-5.5253)"><path id="path4" fill="#c19a65" d="m 35.9367,57.4584 c 1.9984,-1.3055 8.9591,-6.2561 14.4338,1.3944 h 4.8175 c -0.231,-0.1 1.3247,-14.4346 -10.2399,-14.4 -3.1709,2.1139 -6.3835,3.6741 -9.4389,3.6884 -3.0474,-0.0143 -5.7666,-1.4755 -8.9361,-3.5884 -12,0 -10,14.3 -10,14.3 h 4.9299 c 5.4747,-7.6505 12.4353,-2.7 14.4337,-1.3944 z"/><path id="path5" fill="#c19a65" d="m 25.0938,31.5186 c 1.1737,6.2639 5.6711,10.9285 11.0401,10.9285 5.2521,0 9.6701,-4.4636 10.9587,-10.5216 l -0.0086,0.0191 c -3.4939,-1.7469 0.122,-6.0516 0.122,-6.0516 -2.2447,-0.4311 -4.8094,-2.6289 -6.9016,-4.8433 l -0.0451,-0.2859 c -1.2647,0.1992 -2.7309,0.3347 -4.3793,0.3347 -1.5215,0 -2.8878,-0.1154 -4.0839,-0.2898 l -0.0352,0.241 c -2.0922,2.2144 -4.657,4.4122 -6.9017,4.8433 0,0 3.616,4.3047 0.1221,6.0516"/></g><g id="line" transform="translate(-11.112008,-5.5253)"><path id="path6" d="m 41.9888,27 c 0,1.1045 -0.8965,2 -2,2 -1.1035,0 -2,-0.8955 -2,-2 0,-1.1035 0.8965,-2 2,-2 1.1035,0 2,0.8965 2,2"/><path id="path7" d="m 33.9888,27 c 0,1.1045 -0.8965,2 -2,2 -1.1035,0 -2,-0.8955 -2,-2 0,-1.1035 0.8965,-2 2,-2 1.1035,0 2,0.8965 2,2"/><path id="path8" d="m 35.9886,37.0024 c -1.1518,0 -2.3037,-0.2861 -3.4472,-0.8579 -0.4942,-0.2471 -0.6944,-0.8477 -0.4473,-1.3418 0.2466,-0.4936 0.8462,-0.6943 1.3418,-0.4473 1.7178,0.8594 3.3877,0.8594 5.1055,0 0.4946,-0.247 1.0947,-0.0463 1.3418,0.4473 0.247,0.4941 0.0468,1.0947 -0.4473,1.3418 -1.1436,0.5718 -2.2954,0.8579 -3.4473,0.8579 z"/><path id="path9" fill="none" stroke="#000" stroke-miterlimit="10" stroke-width="2" d="m 24.9486,31.6055 c 1.1736,6.2639 5.671,10.9285 11.04,10.9285 5.2521,0 9.6702,-4.4636 10.9587,-10.5216"/><path id="path10" fill="none" stroke="#000" stroke-linecap="round" stroke-linejoin="round" stroke-miterlimit="10" stroke-width="2" d="m 16.9287,57.8528 c 0,0 -2,-13 10,-13 3.1919,2.1279 5.9264,3.5984 9,3.5921 h -0.125 c 3.0736,0.0063 5.8082,-1.4642 9,-3.5921 12,0 10,13 10,13"/><path id="path11" fill="none" stroke="#000" stroke-linecap="round" stroke-linejoin="round" stroke-miterlimit="10" stroke-width="2" d="M 50.3761,57.8528 C 44.9007,50.1913 37.9358,56.185 35.9367,57.491 33.9376,56.185 26.9728,50.1913 21.4974,57.8528"/><path id="path12" fill="none" stroke="#000" stroke-linecap="round" stroke-linejoin="round" stroke-miterlimit="10" stroke-width="2" d="m 45.5809,18.8559 c 0,0 -3.6254,1.9295 -9.8462,1.9295 -6.2208,0 -9.8484,-1.9295 -9.8484,-1.9295"/><path id="path13" fill="none" stroke="#000" stroke-linecap="round" stroke-linejoin="round" stroke-miterlimit="10" stroke-width="2" d="m 31.6156,21.1366 c -2.0922,2.2144 -4.6569,4.4122 -6.9016,4.8433 0,0 3.6159,4.3047 0.122,6.0516 -3.4939,1.747 -2.5533,4.9134 -1.0247,5.2409"/><path id="path14" fill="none" stroke="#000" stroke-linecap="round" stroke-linejoin="round" stroke-miterlimit="10" stroke-width="2" d="m 40.1591,21.1366 c 2.0922,2.2144 4.6569,4.4122 6.9016,4.8433 0,0 -3.6159,4.3047 -0.122,6.0516 3.4939,1.747 2.5533,4.9134 1.0247,5.2409"/><path id="path15" fill="none" stroke="#000" stroke-linecap="round" stroke-linejoin="round" stroke-miterlimit="10" stroke-width="2" d="m 21.4974,25 c 0,0 0.5545,-13.4055 14.3666,-13.4055 13.8121,0 14.2706,13.9461 14.2706,13.9461"/><path id="path16" fill="none" stroke="#000" stroke-linecap="round" stroke-linejoin="round" stroke-miterlimit="10" stroke-width="2" d="m 30.816,11.5253 c 0,-2.7614 2.2386,-5 5,-5 2.7614,0 5,2.2386 5,5"/><path id="path17" fill="none" stroke="#000" stroke-linecap="round" stroke-linejoin="round" stroke-miterlimit="10" stroke-width="2" d="m 14.0326,51.2858 c -7,0 7.4648,-26.2858 7.4648,-26.2858 0,0 -0.4777,3.23 0.4,4.9148"/><path id="path18" fill="none" stroke="#000" stroke-linecap="round" stroke-linejoin="round" stroke-miterlimit="10" stroke-width="2" d="m 57.2994,51.2858 c 7,0 -7.2248,-26.2858 -7.2248,-26.2858 0,0 0.4778,3.23 -0.4,4.9148"/></g></svg>