<svg xmlns="http://www.w3.org/2000/svg" xmlns:svg="http://www.w3.org/2000/svg" id="emoji" width="40" height="50" version="1.1" viewBox="0 0 40 50"><g id="color" transform="translate(-16,-11)"><path id="path1" fill="#92d3f5" d="m 17,61 v -4 c 0,-5 5,-9 10,-9 6,5 12,5 18,0 5,0 10,4 10,9 v 4"/></g><g id="hair" transform="translate(-16,-11)"><path id="path2" fill="#fcea2b" d="m 26,39 c -4,0 -4,-6 -4,-13 0,-7 4,-14 14,-14 10,0 14,7 14,14 0,7 0,13 -4,13"/></g><g id="skin" transform="translate(-16,-11)"><path id="path3" fill="#a57939" d="m 24.9,31 c 0,9 4.9,14 11,14 6,0 11.1,-5 11.1,-14 0,-3 -1,-5 -1,-5 -3,-3 -7,-8 -7,-8 -4,3 -7,6 -13,7 0,0 -1.1,1 -1.1,6 z"/></g><g id="line" transform="translate(-16,-11)"><path id="path4" fill="none" stroke="#000" stroke-linecap="round" stroke-linejoin="round" stroke-width="2" d="m 26,39 c -4,0 -4,-6 -4,-13 0,-7 4,-14 14,-14 10,0 14,7 14,14 0,7 0,13 -4,13"/><path id="path5" fill="none" stroke="#000" stroke-linecap="round" stroke-linejoin="round" stroke-width="2" d="m 17,60 v -3 c 0,-5 5,-9 10,-9 6,5 12,5 18,0 5,0 10,4 10,9 v 3"/><path id="path6" d="m 41.9,30 c 0,1.1 -0.9,2 -2,2 -1.1,0 -2,-0.9 -2,-2 0,-1.1 0.9,-2 2,-2 1.1,0 2,0.9 2,2"/><path id="path7" d="m 33.9,30 c 0,1.1 -0.9,2 -2,2 -1.1,0 -2,-0.9 -2,-2 0,-1.1 0.9,-2 2,-2 1.1,0 2,0.9 2,2"/><path id="path8" fill="none" stroke="#000" stroke-linejoin="round" stroke-width="2" d="m 24.9,31 c 0,9 4.9,14 11,14 6,0 11.1,-5 11.1,-14 0,-3 -1,-5 -1,-5 -3,-3 -7,-8 -7,-8 -4,3 -7,6 -13,7 0,0 -1.1,1 -1.1,6 z"/><path id="path9" fill="none" stroke="#000" stroke-linecap="round" stroke-linejoin="round" stroke-width="2" d="m 33,38 c 1.9,0.9 4,1 6,0"/></g></svg>