<?xml version="1.0" encoding="UTF-8" standalone="no"?>
<svg
   id="emoji"
   viewBox="0 0 50.643112 59.046001"
   version="1.1"
   sodipodi:docname="1f472.svg"
   width="50.643112"
   height="59.046001"
   xmlns:inkscape="http://www.inkscape.org/namespaces/inkscape"
   xmlns:sodipodi="http://sodipodi.sourceforge.net/DTD/sodipodi-0.dtd"
   xmlns="http://www.w3.org/2000/svg"
   xmlns:svg="http://www.w3.org/2000/svg">
  <defs
     id="defs16" />
  <sodipodi:namedview
     id="namedview16"
     pagecolor="#ffffff"
     bordercolor="#000000"
     borderopacity="0.25"
     inkscape:showpageshadow="2"
     inkscape:pageopacity="0.0"
     inkscape:pagecheckerboard="0"
     inkscape:deskcolor="#d1d1d1" />
  <g
     id="color"
     transform="translate(-10.60432,-6.95)">
    <path
       fill="#ea5a47"
       d="m 14.2,22.78 42.29,-0.1777 c 0,0 -3.513,-15.66 -22.58,-14.65 -19.067,1.01 -19.7,14.83 -19.7,14.83 z"
       id="path1" />
    <path
       fill="#d22f27"
       d="m 12.83,23.13 c 14.66,-2.151 31.54,-2.378 46.17,0 -0.5201,0.965 2.919,7.022 1.004,7.903 -16.2,-3.621 -31.88,-1.554 -48.18,0 1.078,-1.432 -1.526,-6.867 1.004,-7.903 z"
       id="path2" />
    <circle
       cx="36"
       cy="25.01"
       r="3.5969999"
       fill="#f1b31c"
       id="circle2" />
    <path
       fill="#5c9e31"
       d="m 28.88,8.708 c 1.004,0.2433 8.503,-1.764 13.79,0.2433 v 12.27 h -13.5 z"
       id="path3" />
  </g>
  <g
     id="skin"
     transform="translate(-10.60432,-6.95)">
    <path
       fill="#fcea2b"
       d="m 53.2,30.02 c 3.393,0.861 2.024,6.922 2.024,10.81 0,13.35 -8.613,24.17 -19.24,24.17 -10.627,0 -19.24,-10.82 -19.24,-24.17 -0.01644,-3.822 0.7184,-7.609 2.163,-11.15 0,0 26.49,-1.638 34.29,0.3416 z"
       id="path4" />
  </g>
  <g
     id="hair"
     fill="#f1b31c"
     transform="translate(-10.60432,-6.95)">
    <path
       d="m 13,31 c -3,7 4.0909,11.853 2.476,11.0792 L 18,30 Z"
       id="path5" />
    <path
       d="m 53,30 2.9041,12.0792 C 54.2891,42.853 62,38 59,31 Z"
       id="path6" />
  </g>
  <g
     id="line"
     transform="translate(-10.60432,-6.95)">
    <path
       d="M 32.03,40.84 A 2.839,2.839 0 1 1 29.191,38.001 2.847,2.847 0 0 1 32.03,40.84"
       id="path7" />
    <path
       d="M 45.65,40.84 A 2.839,2.839 0 1 1 42.811,38.001 2.847,2.847 0 0 1 45.65,40.84"
       id="path8" />
    <path
       fill="none"
       stroke="#000000"
       stroke-linecap="round"
       stroke-miterlimit="10"
       stroke-width="2"
       d="m 31.19,52.74 c -0.0466,0.01 5.015,2.831 9.591,0"
       id="path9" />
    <path
       fill="none"
       stroke="#000000"
       stroke-linecap="round"
       stroke-miterlimit="10"
       stroke-width="2"
       d="m 25.9,34.07 a 11.61,11.61 0 0 1 6.596,0"
       id="path10" />
    <path
       fill="none"
       stroke="#000000"
       stroke-linecap="round"
       stroke-miterlimit="10"
       stroke-width="2"
       d="m 39.51,34.07 a 11.61,11.61 0 0 1 6.596,0"
       id="path11" />
    <path
       fill="none"
       stroke="#000000"
       stroke-linecap="round"
       stroke-linejoin="round"
       stroke-width="2"
       d="M 56.99,22 C 56.99,22 54.054,7.95 35.74,7.95 17.426,7.95 14.66,22 14.66,22"
       id="path12" />
    <line
       x1="42.669998"
       x2="42.669998"
       y1="21"
       y2="9.5959997"
       fill="none"
       stroke="#000000"
       stroke-linecap="round"
       stroke-linejoin="round"
       stroke-width="2"
       id="line12" />
    <path
       fill="none"
       stroke="#000000"
       stroke-linecap="round"
       stroke-linejoin="round"
       stroke-width="2"
       d="m 60,31.03 c -23.55,-4.592 -48.21,-0.1832 -48.18,0 -0.5085,-2.755 -0.1064,-5.38 1.004,-7.903 29.86,-4.891 45.62,0.1826 46.17,0 0.5151,1.408 0.9492,2.817 1.144,4.225 0.1694,1.226 0.1575,2.452 -0.1401,3.678 z"
       id="path13" />
    <line
       x1="28.85"
       x2="28.85"
       y1="8.9510002"
       y2="21.219999"
       fill="none"
       stroke="#000000"
       stroke-linecap="round"
       stroke-linejoin="round"
       stroke-width="2"
       id="line13" />
    <path
       fill="none"
       stroke="#000000"
       stroke-linecap="round"
       stroke-linejoin="round"
       stroke-width="2"
       d="m 55.9,41.34 c -0.1719,0.0784 4.626,-2.616 3.092,-10.3"
       id="path14" />
    <path
       fill="none"
       stroke="#000000"
       stroke-linecap="round"
       stroke-linejoin="round"
       stroke-width="2"
       d="m 18.63,30.03 c -0.8024,1.569 -1.333,3.262 -1.568,5.008 -0.3463,1.91 -0.5173,3.847 -0.5107,5.788 v 0.34 c 0.1699,13.28 8.682,23.83 19.25,23.83 10.568,0 19.08,-10.56 19.25,-23.83 v -0.34 c 0.0066,-1.941 -0.1644,-3.878 -0.5107,-5.788 -0.2355,-1.746 -0.7658,-3.439 -1.568,-5.008"
       id="path15" />
    <path
       fill="none"
       stroke="#000000"
       stroke-linecap="round"
       stroke-linejoin="round"
       stroke-width="2"
       d="m 12.61,31.03 c -1.534,7.687 3.264,10.38 3.092,10.3"
       id="path16" />
    <circle
       cx="36"
       cy="24.98"
       r="3.9530001"
       fill="none"
       stroke="#000000"
       stroke-miterlimit="10"
       stroke-width="2"
       id="circle16" />
  </g>
</svg>
