<?xml version="1.0" encoding="UTF-8" standalone="no"?>
<svg
   id="emoji"
   viewBox="0 0 40 55.397331"
   version="1.1"
   sodipodi:docname="1f475-1f3fb.svg"
   width="40"
   height="55.397331"
   xmlns:inkscape="http://www.inkscape.org/namespaces/inkscape"
   xmlns:sodipodi="http://sodipodi.sourceforge.net/DTD/sodipodi-0.dtd"
   xmlns="http://www.w3.org/2000/svg"
   xmlns:svg="http://www.w3.org/2000/svg">
  <defs
     id="defs12" />
  <sodipodi:namedview
     id="namedview12"
     pagecolor="#ffffff"
     bordercolor="#000000"
     borderopacity="0.25"
     inkscape:showpageshadow="2"
     inkscape:pageopacity="0.0"
     inkscape:pagecheckerboard="0"
     inkscape:deskcolor="#d1d1d1" />
  <g
     id="color"
     transform="translate(-16,-5.602667)">
    <path
       fill="#92d3f5"
       d="m 55,61 v -4 c 0,-5 -5,-9 -10,-9 -6,5 -12,5 -18,0 -5,0 -10,4 -10,9 v 4 z"
       id="path1" />
  </g>
  <g
     id="hair"
     transform="translate(-16,-5.602667)">
    <path
       fill="#d0cfce"
       d="m 42,42.2 c 8,-6 9,-7.2 9,-14.2 0,-7 -2.5,-12 -5.5,-13 0,0 -1,-1 -3.1,-1.9 -1.5,-0.6 0.7,-7.6 -5.9,-7.1 -8.2,0.6 -4.7,6.2 -6.4,6.6 -3.9,0.9 -6.2,2.9 -7.6,6.4 -1.2,2.9 -1.2,7.1 -2,11 -1,5 4.4,7.4 11.4,13.4 z"
       id="path2" />
  </g>
  <g
     id="skin"
     transform="translate(-16,-5.602667)">
    <path
       fill="#fadcbc"
       d="m 25,31 c 0,8 4,14 10.9,14 C 43,45 47,39 47,31 c 0,-5 -1.4,-7.7 -2,-9 -1,-2 -2,-3 -2,-3 -5,3 -14,0 -15,1 -1,1 -3,5 -3,11 z"
       id="path3" />
  </g>
  <g
     id="skin-shadow"
     transform="translate(-16,-5.602667)" />
  <g
     id="line"
     transform="translate(-16,-5.602667)">
    <path
       fill="none"
       stroke="#000000"
       stroke-linecap="round"
       stroke-linejoin="round"
       stroke-width="2"
       d="m 17,60 v -3 c 0,-5 5,-9 10,-9 6,5 12,5 18,0 5,0 10,4 10,9 v 3"
       id="path4" />
    <path
       fill="none"
       stroke="#000000"
       stroke-linecap="round"
       stroke-linejoin="round"
       stroke-width="2"
       d="m 38,38 c -1.2,0.8 -2.6,0.8 -4,0"
       id="path5" />
    <path
       fill="none"
       stroke="#000000"
       stroke-linecap="round"
       stroke-linejoin="round"
       stroke-width="2"
       d="m 31,36 c 0,1 -1,2 -1,2"
       id="path6" />
    <path
       fill="none"
       stroke="#000000"
       stroke-linecap="round"
       stroke-linejoin="round"
       stroke-width="2"
       d="m 41,36 c 0,1 1,2 1,2"
       id="path7" />
    <path
       d="m 41.9,29 c 0,1.1 -0.9,2 -2,2 -1.1,0 -2,-0.9 -2,-2 0,-1.1 0.9,-2 2,-2 1.1,0 2,0.9 2,2"
       id="path8" />
    <path
       d="m 33.9,29 c 0,1.1 -0.9,2 -2,2 -1.1,0 -2,-0.9 -2,-2 0,-1.1 0.9,-2 2,-2 1.1,0 2,0.9 2,2"
       id="path9" />
    <path
       fill="none"
       stroke="#000000"
       stroke-linejoin="round"
       stroke-width="2"
       d="m 25,31 c 0,8 4,14 10.9,14 C 43,45 47,39 47,31 c 0,-5 -1.4,-7.7 -2,-9 -1,-2 -2,-3 -2,-3 -5,3 -14,0 -15,1 -1,1 -3,5 -3,11 z"
       id="path10" />
    <path
       fill="none"
       stroke="#000000"
       stroke-linecap="round"
       stroke-linejoin="round"
       stroke-width="2"
       d="m 26,38 c -2,0 -5,-3 -5,-8 0,-4 0,-6 1,-9 1.8,-5.5 6,-9 14,-9 6,0 9,3 9,3 3,1 6,4.9 6,12 0,7 -2,12 -5,12"
       id="path11" />
    <path
       fill="none"
       stroke="#000000"
       stroke-linecap="round"
       stroke-linejoin="round"
       stroke-width="2"
       d="M 42,13 C 43,11 42,9 41,8 39,6 32.7,6 30.7,9 29.9,10.2 30,11.3 30.3,12"
       id="path12" />
  </g>
</svg>
