<svg xmlns="http://www.w3.org/2000/svg" xmlns:svg="http://www.w3.org/2000/svg" id="emoji" width="54" height="45" version="1.1" viewBox="0 0 54 45"><g id="color" transform="translate(-9,-13)"><polygon id="polygon1" fill="#8967aa" points="13 35 13 38 16 38 16 45 22 45 22 51 27 51 28 51 28 45 44 45 44 51 50 51 50 45 56 45 56 38 59 38 59 35 62 35 62 20 56 20 56 24 56 25 49 25 49 20 45 20 45 14 39 14 39 20 32 20 32 14 26 14 26 20 22 20 22 25 16 25 16 20 10 20 10 21 10 35"/><rect id="rect1" width="6" height="6" x="16" y="51" fill="#8967aa"/><rect id="rect2" width="6" height="6" x="50" y="51" fill="#8967aa"/></g><g id="line" transform="translate(-9,-13)"><rect id="rect3" width="3.6" height="6" x="25.175" y="31" stroke="#000" stroke-linecap="round" stroke-linejoin="round" stroke-width="2"/><polyline id="polyline3" fill="none" stroke="#000" stroke-linecap="round" stroke-linejoin="round" stroke-width="2" points="22 45 16 45 16 39"/><polyline id="polyline4" fill="none" stroke="#000" stroke-linecap="round" stroke-linejoin="round" stroke-width="2" points="22.583 25 22.583 20 26 20"/><polyline id="polyline5" fill="none" stroke="#000" stroke-linecap="round" stroke-linejoin="round" stroke-width="2" points="48.708 25 48.708 20 45.292 20"/><polyline id="polyline6" fill="none" stroke="#000" stroke-linecap="round" stroke-linejoin="round" stroke-width="2" points="13 35 10 35 10 20 16 20 16 35"/><polyline id="polyline7" fill="none" stroke="#000" stroke-linecap="round" stroke-linejoin="round" stroke-width="2" points="56 35 56 20 62 20 62 35 59 35"/><polyline id="polyline8" fill="none" stroke="#000" stroke-linecap="round" stroke-linejoin="round" stroke-width="2" points="26 20 26 14 32 14 32 20"/><polyline id="polyline9" fill="none" stroke="#000" stroke-linecap="round" stroke-linejoin="round" stroke-width="2" points="39 20 39 14 45 14 45 20"/><polyline id="polyline10" fill="none" stroke="#000" stroke-linecap="round" stroke-linejoin="round" stroke-width="2" points="16 35 19 35 19 38 13 38 13 35"/><polyline id="polyline11" fill="none" stroke="#000" stroke-linecap="round" stroke-linejoin="round" stroke-width="2" points="59 35 59 38 53 38 53 35 56 35"/><rect id="rect11" width="6" height="6" x="16" y="51" fill="none" stroke="#000" stroke-linecap="round" stroke-linejoin="round" stroke-width="2"/><rect id="rect12" width="6" height="6" x="50" y="51" fill="none" stroke="#000" stroke-linecap="round" stroke-linejoin="round" stroke-width="2"/><polyline id="polyline12" fill="none" stroke="#000" stroke-linecap="round" stroke-linejoin="round" stroke-width="2" points="28 45 28 51 22 51 22 45"/><polyline id="polyline13" fill="none" stroke="#000" stroke-linecap="round" stroke-linejoin="round" stroke-width="2" points="50 45 56 45 56 39"/><polyline id="polyline14" fill="none" stroke="#000" stroke-linecap="round" stroke-linejoin="round" stroke-width="2" points="44 45 44 51 50 51 50 45"/><rect id="rect14" width="3.6" height="6" x="43.425" y="31" stroke="#000" stroke-linecap="round" stroke-linejoin="round" stroke-width="2"/><path id="path14" fill="none" stroke="#000" stroke-linecap="round" stroke-linejoin="round" stroke-width="2" d="M 44,45 Z"/><path id="path15" fill="none" stroke="#000" stroke-linecap="round" stroke-linejoin="round" stroke-width="2" d="M 39,20 Z"/><path id="path16" fill="none" stroke="#000" stroke-linecap="round" stroke-linejoin="round" stroke-width="2" d="M 16,25 Z"/><path id="path17" fill="none" stroke="#000" stroke-linecap="round" stroke-linejoin="round" stroke-width="2" d="M 49,25 Z"/><line id="line17" x1="28" x2="44" y1="45" y2="45" fill="none" stroke="#000" stroke-linecap="round" stroke-linejoin="round" stroke-width="2"/><line id="line18" x1="32" x2="39" y1="20" y2="20" fill="none" stroke="#000" stroke-linecap="round" stroke-linejoin="round" stroke-width="2"/><line id="line19" x1="16" x2="22" y1="25" y2="25" fill="none" stroke="#000" stroke-linecap="round" stroke-linejoin="round" stroke-width="2"/><line id="line20" x1="49" x2="56" y1="25" y2="25" fill="none" stroke="#000" stroke-linecap="round" stroke-linejoin="round" stroke-width="2"/></g></svg>