<?xml version="1.0" encoding="UTF-8" standalone="no"?>
<svg
   id="emoji"
   viewBox="0 0 40 44.944393"
   version="1.1"
   sodipodi:docname="1f474-1f3fe.svg"
   width="40"
   height="44.944393"
   xmlns:inkscape="http://www.inkscape.org/namespaces/inkscape"
   xmlns:sodipodi="http://sodipodi.sourceforge.net/DTD/sodipodi-0.dtd"
   xmlns="http://www.w3.org/2000/svg"
   xmlns:svg="http://www.w3.org/2000/svg">
  <defs
     id="defs14" />
  <sodipodi:namedview
     id="namedview14"
     pagecolor="#ffffff"
     bordercolor="#000000"
     borderopacity="0.25"
     inkscape:showpageshadow="2"
     inkscape:pageopacity="0.0"
     inkscape:pagecheckerboard="0"
     inkscape:deskcolor="#d1d1d1" />
  <g
     id="color"
     transform="translate(-16.1,-15.945609)">
    <path
       fill="#92d3f5"
       d="m 55.1,60.89 v -4 c 0,-5 -5,-9 -10,-9 q -9,7.5 -18,0 c -5,0 -10,4 -10,9 v 4 z"
       id="path1" />
    <path
       fill="#d0cfce"
       d="m 25.41,35.72 a 1,1 0 0 1 -0.5664,-0.1757 c -0.3164,-0.2178 -3.085,-2.33 -3.085,-9.512 a 7.33,7.33 0 0 1 2.1,-5.562 8.029,8.029 0 0 1 5.475,-1.96 1.001,1.001 0 0 1 0.9483,0.999 v 6.218 a 1,1 0 0 1 -1,1 c -1.764,0 -2.756,4.79 -2.872,8.027 a 0.999,0.999 0 0 1 -0.999,0.9648 z"
       id="path2" />
    <path
       fill="#d0cfce"
       d="m 46.33,35.61 a 1.001,1.001 0 0 1 -0.55,-0.8584 c -0.1162,-3.237 -1.108,-8.027 -2.872,-8.027 a 1,1 0 0 1 -1,-1 v -6.218 a 1.001,1.001 0 0 1 0.9483,-0.999 8.029,8.029 0 0 1 5.475,1.96 7.33,7.33 0 0 1 2.1,5.562 c 0,7.182 -2.769,9.294 -3.085,9.512 a 1.001,1.001 0 0 1 -1.016,0.0693 z"
       id="path3" />
  </g>
  <g
     id="skin"
     transform="translate(-16.1,-15.945609)">
    <path
       fill="#a57939"
       d="M 43.42,18.53 A 11.58,11.58 0 0 0 28.88,18.5237 c 0.2579,-0.0091 0.4244,-0.0027 0.4507,-0.0011 a 1.001,1.001 0 0 1 0.9483,0.9991 v 6.218 a 0.9994,0.9994 0 0 1 -1,1 c -1.764,0 -2.756,4.79 -2.872,8.027 a 1,1 0 0 1 -1.565,0.789 3.105,3.105 0 0 1 -0.3272,-0.2733 v 5e-4 c 1.32,6.589 5.624,10.62 11.48,10.62 5.963,0 10.33,-4.018 11.67,-10.59 a 3.113,3.113 0 0 1 -0.3206,0.2672 1,1 0 0 1 -1.565,-0.7891 c -0.1162,-3.237 -1.108,-8.027 -2.872,-8.027 a 1,1 0 0 1 -1,-1 v -6.218 a 1.001,1.001 0 0 1 0.9483,-0.999"
       id="path4" />
  </g>
  <g
     id="line"
     transform="translate(-16.1,-15.945609)">
    <path
       fill="none"
       stroke="#000000"
       stroke-linecap="round"
       stroke-linejoin="round"
       stroke-width="2"
       d="m 17.1,59.89 v -3 c 0,-5 5,-9 10,-9 q 9,7.5 18,0 c 5,0 10,4 10,9 v 3"
       id="path5" />
    <path
       fill="none"
       stroke="#000000"
       stroke-linecap="round"
       stroke-linejoin="round"
       stroke-width="2"
       d="M 43.05,19.5 A 10.59,10.59 0 0 0 29.27,19.48"
       id="path6" />
    <path
       fill="none"
       stroke="#000000"
       stroke-linejoin="round"
       stroke-width="2"
       d="m 25.28,33.75 c 0.85,6.528 4.67,11.14 10.72,11.14 6.243,0 10.09,-4.64 10.93,-11.2"
       id="path7" />
    <path
       fill="none"
       stroke="#000000"
       stroke-linecap="round"
       stroke-linejoin="round"
       stroke-width="2"
       d="m 38.1,37.89 a 3.629,3.629 0 0 1 -4,0"
       id="path8" />
    <path
       fill="none"
       stroke="#000000"
       stroke-linecap="round"
       stroke-linejoin="round"
       stroke-width="2"
       d="m 31.1,35.89 a 3.491,3.491 0 0 1 -1,2"
       id="path9" />
    <path
       fill="none"
       stroke="#000000"
       stroke-linecap="round"
       stroke-linejoin="round"
       stroke-width="2"
       d="m 41.1,35.89 a 3.491,3.491 0 0 0 1,2"
       id="path10" />
    <path
       d="m 42,28.89 a 2,2 0 1 1 -2,-2 2.006,2.006 0 0 1 2,2"
       id="path11" />
    <path
       d="m 34,28.89 a 2,2 0 1 1 -2,-2 2.006,2.006 0 0 1 2,2"
       id="path12" />
    <path
       fill="none"
       stroke="#000000"
       stroke-linecap="round"
       stroke-linejoin="round"
       stroke-width="2"
       d="m 29.28,25.72 v -6.218 c 0,0 -6.523,-0.3406 -6.523,6.523 0,6.8636 2.652,8.687 2.652,8.687 0,0 0.3141,-8.991 3.87,-8.991 z"
       id="path13" />
    <path
       fill="none"
       stroke="#000000"
       stroke-linecap="round"
       stroke-linejoin="round"
       stroke-width="2"
       d="m 42.91,25.72 v -6.218 c 0,0 6.523,-0.3406 6.523,6.523 0,6.8636 -2.652,8.687 -2.652,8.687 0,0 -0.3144,-8.991 -3.871,-8.991 z"
       id="path14" />
  </g>
</svg>
