<?xml version="1.0" encoding="UTF-8" standalone="no"?>
<svg
   id="emoji"
   viewBox="0 0 40.131359 50.556782"
   version="1.1"
   sodipodi:docname="1f477-1f3fc-200d-2640-fe0f.svg"
   width="40.131359"
   height="50.556782"
   xmlns:inkscape="http://www.inkscape.org/namespaces/inkscape"
   xmlns:sodipodi="http://sodipodi.sourceforge.net/DTD/sodipodi-0.dtd"
   xmlns="http://www.w3.org/2000/svg"
   xmlns:svg="http://www.w3.org/2000/svg">
  <defs
     id="defs28" />
  <sodipodi:namedview
     id="namedview28"
     pagecolor="#ffffff"
     bordercolor="#000000"
     borderopacity="0.25"
     inkscape:showpageshadow="2"
     inkscape:pageopacity="0.0"
     inkscape:pagecheckerboard="0"
     inkscape:deskcolor="#d1d1d1" />
  <g
     id="color"
     transform="translate(-16.80172,-8.3812188)">
    <path
       fill="#92d3f5"
       d="m 55.0085,58.8743 c 0,0 1.9935,-13.7522 -9.9672,-13.7522 -3.1814,2.1124 -5.907,3.5721 -8.9705,3.5658 h 0.1246 c -3.0635,0.0063 -5.7892,-1.4534 -8.97,-3.5658 -11.9607,0 -9.9672,13.7522 -9.9672,13.7522"
       id="path1" />
    <path
       fill="#61b2e4"
       d="m 44.1009,49.1247 c 5.4463,2.26 5.5866,6.8076 6.1478,9.7535 h 5.02 c 0,0 2.16,-14.9254 -9.6229,-14.9254"
       id="path2" />
    <path
       fill="#e27022"
       d="M 50.08,58.8863 V 45.8331 l -4.09,-0.726 a 115.9354,115.9354 0 0 1 -6.825,13.7792 z"
       id="path3" />
    <path
       fill="#e27022"
       d="M 34.723,58.8863 A 115.9411,115.9411 0 0 1 27.8979,45.1071 l -4.3179,0.726 v 13.053 z"
       id="path4" />
    <polygon
       fill="#fcea2b"
       points="46.96,45.231 43.178,58.935 45.41,58.938 48.893,45.733 "
       id="polygon4" />
    <polygon
       fill="#fcea2b"
       points="26.634,45.231 30.417,58.935 28.185,58.938 24.702,45.733 "
       id="polygon5" />
    <path
       fill="#f1b31c"
       d="m 47.9269,20.2821 -0.04,0.1 q -0.57,-0.195 -1.23,-0.39 a 30.4168,30.4168 0 0 0 -8.56,-1.16 v -2.57 h 2.89 l 0.06,-5.96 c 6.84,1.21 6.88,9.98 6.88,9.98 z"
       id="path5" />
    <path
       fill="#f1b31c"
       d="m 38.0969,16.2621 v 2.57 c -0.34,0 -0.68,0.01 -1.03,0.02 h -0.16 c -0.03,0 -0.06,-0.01 -0.08,0 a 31.1621,31.1621 0 0 0 -9.5,1.13 v 0.01 c -0.59,0.17 -1.12,0.35 -1.59,0.53 l -0.09,-0.24 c 0,0 0.05,-9.2 7.4,-10.06 l -0.06,6.04 z"
       id="path6" />
    <path
       fill="#fcea2b"
       d="m 41.0469,10.3021 -0.06,5.96 h -8 l 0.06,-6.04 c 1.59,-2.81 7.37,-2.07 8,0 z"
       id="path7" />
  </g>
  <g
     id="hair"
     transform="translate(-16.80172,-8.3812188)">
    <g
       id="g10">
      <g
         id="g8">
        <polygon
           fill="#fcea2b"
           points="24,30 23,33 22,36 23,39 25,39 27,39 28.132,37.559 28,36 25.815,30.832 25.701,27.032 26.727,22.38 27,21 24,23 24,26 "
           id="polygon7" />
        <polygon
           fill="#fcea2b"
           points="50.132,30 51.132,33 52.132,36 51.132,39 49.132,39 47.132,39 46,37.559 46.132,36 48.318,30.832 48.431,27.032 47.405,22.38 47.132,21 50.132,23 50.132,26 "
           id="polygon8" />
      </g>
      <polygon
         fill="#fcea2b"
         points="24,26 29,24 31,23 33,21 33,20 30,20 26.569,21.287 24,22 24,23 24,24.375 "
         id="polygon9" />
      <polygon
         fill="#fcea2b"
         points="49,26 44,24 42,23 40,21 40,20 43,20 46.431,21.287 49,22 49,23 49,24.375 "
         id="polygon10" />
    </g>
  </g>
  <g
     id="skin"
     transform="translate(-16.80172,-8.3812188)">
    <g
       id="skin-2">
      <path
         fill="#debb90"
         d="m 48.0069,25.0321 a 17.6438,17.6438 0 0 1 0.32,3.36 c 0,7.83 -5.08,14.18 -11.34,14.18 -6.26,0 -11.34,-6.35 -11.34,-14.18 A 10.4414,10.4414 0 0 1 26,25 h 1 c 1.457,-0.2256 8.1782,-5.8346 9.9469,-5.0378 C 36.4313,20.2006 45.3483,23.7405 46,25 l 3,1 c 0.08,0.32 -1.0531,-1.2979 -0.9931,-0.9679 z m -5.02,2 a 2,2 0 1 0 -2,2 1.9994,1.9994 0 0 0 2,-2 z m -2.55,9.15 a 1.0108,1.0108 0 0 0 0.45,-1.34 0.9935,0.9935 0 0 0 -1.34,-0.45 5.383,5.383 0 0 1 -5.11,0 1,1 0 0 0 -0.89,1.79 7.33,7.33 0 0 0 6.89,0 z m -5.45,-9.15 a 2,2 0 1 0 -2,2 1.9994,1.9994 0 0 0 2,-2 z"
         id="path10" />
    </g>
  </g>
  <g
     id="line"
     transform="translate(-16.80172,-8.3812188)">
    <path
       d="m 55.8066,58.8877 a 0.9956,0.9956 0 0 1 -0.99,-1.1494 c 0.0088,-0.0576 0.8272,-5.7412 -2.1289,-9.1778 -1.4756,-1.7148 -3.69,-2.6123 -6.5859,-2.6689 -3.31,2.1846 -6.0274,3.5449 -9.126,3.5879 -0.0215,0.0019 -0.044,10e-4 -0.0645,10e-4 H 36.844 c -0.0137,-10e-4 -0.0274,0 -0.0411,0 -0.0137,0 -0.0293,0 -0.0439,-10e-4 -3.1006,-0.043 -5.8174,-1.4033 -9.126,-3.5879 -2.8965,0.0566 -5.11,0.9541 -6.5859,2.6689 -2.9561,3.4366 -2.1377,9.12 -2.1289,9.1778 a 1,1 0 0 1 -1.9766,0.3027 c -0.041,-0.2695 -0.9726,-6.6328 2.5811,-10.7754 1.9228,-2.2412 4.7509,-3.3769 8.4072,-3.3769 a 1.0015,1.0015 0 0 1 0.5547,0.1679 c 3.1523,2.1016 5.6592,3.4092 8.3828,3.4239 2.7226,-0.0137 5.23,-1.3213 8.3828,-3.4239 a 1.0015,1.0015 0 0 1 0.5547,-0.1679 c 3.6562,0 6.4844,1.1357 8.4072,3.3769 3.5537,4.1426 2.6221,10.5059 2.5811,10.7754 a 0.9991,0.9991 0 0 1 -0.9866,0.8467 z"
       id="path11" />
    <path
       d="m 34.7656,58.8887 a 0.9975,0.9975 0 0 1 -0.8476,-0.4688 97.5708,97.5708 0 0 1 -6.9073,-13.1367 1.0000694,1.0000694 0 0 1 1.8379,-0.7891 95.7175,95.7175 0 0 0 6.7627,12.8633 1,1 0 0 1 -0.8457,1.5313 z"
       id="path12" />
    <path
       d="M 39.2129,58.8887 A 1,1 0 0 1 38.3672,57.3574 95.6943,95.6943 0 0 0 45.13,44.4941 1.0000694,1.0000694 0 1 1 46.9679,45.2832 97.5708,97.5708 0 0 1 40.0605,58.42 0.9975,0.9975 0 0 1 39.2129,58.8887 Z"
       id="path13" />
    <path
       d="m 23.6045,58.8887 a 1,1 0 0 1 -1,-1 V 45.6152 a 1,1 0 0 1 2,0 v 12.2735 a 1,1 0 0 1 -1,1 z"
       id="path14" />
    <path
       d="m 50.1455,58.8887 a 1,1 0 0 1 -1,-1 V 45.6152 a 1,1 0 0 1 2,0 v 12.2735 a 1,1 0 0 1 -1,1 z"
       id="path15" />
    <path
       d="m 40.9869,25.0321 a 2,2 0 1 1 -2,2 1.9994,1.9994 0 0 1 2,-2 z"
       id="path16" />
    <path
       d="m 40.8869,34.8421 a 1.0108,1.0108 0 0 1 -0.45,1.34 7.33,7.33 0 0 1 -6.89,0 1,1 0 0 1 0.89,-1.79 5.383,5.383 0 0 0 5.11,0 0.9935,0.9935 0 0 1 1.34,0.45 z"
       id="path17" />
    <path
       d="m 32.9869,25.0321 a 2,2 0 1 1 -2,2 1.9994,1.9994 0 0 1 2,-2 z"
       id="path18" />
    <path
       fill="none"
       stroke="#000000"
       stroke-miterlimit="10"
       stroke-width="2"
       d="m 25.9591,25.1 a 17.2549,17.2549 0 0 0 -0.3122,3.292 c 0,7.83 5.08,14.18 11.34,14.18 6.26,0 11.34,-6.35 11.34,-14.18 a 17.6438,17.6438 0 0 0 -0.32,-3.36"
       id="path19" />
    <path
       fill="none"
       stroke="#000000"
       stroke-linecap="round"
       stroke-linejoin="round"
       stroke-width="2"
       d="m 27.3269,20.9921 c -0.59,0.17 -1.12,0.35 -1.59,0.53 a 15.0574,15.0574 0 0 0 -2.65,1.22"
       id="path20" />
    <line
       x1="27.3269"
       x2="27.3269"
       y1="20.9821"
       y2="20.9921"
       fill="none"
       stroke="#000000"
       stroke-miterlimit="10"
       stroke-width="2"
       id="line20" />
    <path
       fill="none"
       stroke="#000000"
       stroke-linecap="round"
       stroke-linejoin="round"
       stroke-width="2"
       d="m 50.8869,22.7421 a 15.9913,15.9913 0 0 0 -3,-1.36 q -0.57,-0.195 -1.23,-0.39 a 30.4168,30.4168 0 0 0 -8.56,-1.16 c -0.34,0 -0.68,0.01 -1.03,0.02 h -0.16 c -0.03,0 -0.06,-0.01 -0.08,0 a 31.1621,31.1621 0 0 0 -9.5,1.13"
       id="path21" />
    <path
       fill="none"
       stroke="#000000"
       stroke-linecap="round"
       stroke-linejoin="round"
       stroke-width="2"
       d="m 41.0469,11.3021 v -0.08 c -0.63,-2.07 -6.41,-2.81 -8,0 l -0.06,6.04 h 8 z"
       id="path22" />
    <path
       fill="none"
       stroke="#000000"
       stroke-miterlimit="10"
       stroke-width="2"
       d="m 25.6469,21.2821 c 0,0 0.05,-9.2 7.4,-10.06"
       id="path23" />
    <path
       fill="none"
       stroke="#000000"
       stroke-miterlimit="10"
       stroke-width="2"
       d="m 47.9269,21.2821 c 0,0 -0.04,-8.77 -6.88,-9.98 -0.16,-0.03 -0.34,-0.06 -0.51,-0.08"
       id="path24" />
    <g
       id="g28">
      <path
         fill="none"
         stroke="#000000"
         stroke-linecap="round"
         stroke-linejoin="round"
         stroke-width="2"
         d="m 28.1323,37.9718 c -2.8064,1.7134 -4.7476,0.7957 -5.8883,-0.2888 a 1.53,1.53 0 0 1 -0.1494,-2.07 c 1.9553,-2.2983 2.0983,-12.8706 2.0983,-12.8706"
         id="path25" />
      <path
         fill="none"
         stroke="#000000"
         stroke-linecap="round"
         stroke-linejoin="round"
         stroke-width="2"
         d="m 49.6984,22.7421 c 0,0 0.143,10.5723 2.0983,12.8706 a 1.53,1.53 0 0 1 -0.1494,2.07 c -1.1408,1.0845 -3.0819,2.0022 -5.8884,0.2888"
         id="path26" />
      <path
         fill="none"
         stroke="#000000"
         stroke-linecap="round"
         stroke-miterlimit="10"
         stroke-width="2"
         d="M 33.8725,19.8954 C 32.48,23.0338 25,26 25,26"
         id="path27" />
      <path
         fill="none"
         stroke="#000000"
         stroke-linecap="round"
         stroke-miterlimit="10"
         stroke-width="2"
         d="M 39,19.8954 C 40.5491,23.0338 48.8725,26 48.8725,26"
         id="path28" />
    </g>
  </g>
</svg>
