<?xml version="1.0" encoding="UTF-8" standalone="no"?>
<svg
   id="emoji"
   viewBox="0 0 55.999962 52"
   version="1.1"
   sodipodi:docname="1f47c-1f3ff.svg"
   width="55.999962"
   height="52"
   xmlns:inkscape="http://www.inkscape.org/namespaces/inkscape"
   xmlns:sodipodi="http://sodipodi.sourceforge.net/DTD/sodipodi-0.dtd"
   xmlns="http://www.w3.org/2000/svg"
   xmlns:svg="http://www.w3.org/2000/svg">
  <defs
     id="defs11" />
  <sodipodi:namedview
     id="namedview11"
     pagecolor="#ffffff"
     bordercolor="#000000"
     borderopacity="0.25"
     inkscape:showpageshadow="2"
     inkscape:pageopacity="0.0"
     inkscape:pagecheckerboard="0"
     inkscape:deskcolor="#d1d1d1" />
  <g
     id="color"
     transform="translate(-8.0000196,-13.000001)">
    <path
       fill="#d0cfce"
       d="M 18.7,52.9 H 9 c 0,0 1.8,8 6.2,8.8 4.4,0.8 11.5,0 11.5,0 z"
       id="path1" />
    <path
       fill="#d0cfce"
       d="M 53.2,52.9 H 63 c 0,0 -1.8,8 -6.2,8.8 -4.4,0.8 -11.5,0 -11.5,0 z"
       id="path2" />
    <path
       fill="#9b9b9a"
       d="m 16.1,53.8 a 11.9044,11.9044 0 0 0 5.3,7.1 l 1.3,1.2 4,-0.3 c 0,0 -7.9,-8.1 -7.5,-8.9 v 0 z"
       id="path3" />
    <path
       fill="#9b9b9a"
       d="m 55.9,53.8 a 11.9044,11.9044 0 0 1 -5.3,7.1 l -1.3,1.2 -4,-0.3 c 0,0 7.9,-8.1 7.5,-8.9 v 0 z"
       id="path4" />
  </g>
  <g
     id="skin"
     transform="translate(-8.0000196,-13.000001)">
    <ellipse
       cx="35.899399"
       cy="42.6992"
       rx="18.5996"
       ry="20.6996"
       transform="rotate(-0.7229,35.897104,42.702076)"
       fill="#6a462f"
       id="ellipse4" />
  </g>
  <g
     id="hair"
     transform="translate(-8.0000196,-13.000001)">
    <path
       fill="#000000"
       d="M 34.7,22.8 H 40 c 1.3,0 -1.9,11.5 -5.3,8 -0.9,-0.8 1,-5.2 0,-8 z"
       id="path5" />
  </g>
  <g
     id="line"
     transform="translate(-8.0000196,-13.000001)">
    <ellipse
       cx="36.900002"
       cy="16.200001"
       rx="16.4"
       ry="2.2"
       fill="none"
       stroke="#000000"
       stroke-linecap="round"
       stroke-linejoin="round"
       stroke-width="2"
       id="ellipse5" />
    <path
       fill="none"
       stroke="#000000"
       stroke-linecap="round"
       stroke-linejoin="round"
       stroke-width="2"
       d="M 19.2,52.9 H 9 c 0,0 1.6,8.9 8,8.9 h 10.5"
       id="path6" />
    <ellipse
       cx="36"
       cy="43"
       rx="18.9"
       ry="21"
       fill="none"
       stroke="#000000"
       stroke-linecap="round"
       stroke-linejoin="round"
       stroke-width="2"
       id="ellipse6" />
    <path
       fill="none"
       stroke="#000000"
       stroke-linecap="round"
       stroke-linejoin="round"
       stroke-width="2"
       d="M 52.8,52.9 H 63 c 0,0 -1.6,8.9 -8,8.9 H 44.4"
       id="path7" />
    <path
       fill="none"
       stroke="#000000"
       stroke-linecap="round"
       stroke-linejoin="round"
       stroke-width="2"
       d="m 40,22.8 c 0,0 1.8,1.8 -0.9,6.2 -2.7,4.4 -8,2.7 -8,2.7 0,0 3.9,-0.4 4.4,-3.5 a 5.3323,5.3323 0 0 0 -1.8,-5.3"
       id="path8" />
    <path
       d="m 31.9,41.8 a 2.7951,2.7951 0 0 1 -2.8,2.8 2.8616,2.8616 0 0 1 -2.8,-2.8 2.7951,2.7951 0 0 1 2.8,-2.8 v 0 a 2.8616,2.8616 0 0 1 2.8,2.8"
       id="path9" />
    <path
       d="M 45.5,41.8 A 2.8,2.8 0 1 1 42.7,39 v 0 a 2.7951,2.7951 0 0 1 2.8,2.8"
       id="path10" />
    <path
       fill="none"
       stroke="#000000"
       stroke-linecap="round"
       stroke-linejoin="round"
       stroke-width="2"
       d="m 31.4,52.7 c 0,0 5,2.8 9.6,0"
       id="path11" />
  </g>
</svg>
