<svg xmlns="http://www.w3.org/2000/svg" xmlns:svg="http://www.w3.org/2000/svg" id="emoji" width="47.998" height="53.447" version="1.1" viewBox="0 0 47.998 53.447"><g id="color" transform="translate(-11.95437,-7.5112356)"><path id="path1" fill="#fff" d="m 53.6583,27.1555 c -0.0057,-0.0128 -0.0172,-0.02 -0.0234,-0.0329 a 0.9779,0.9779 0 0 0 -0.1238,-0.1745 0.9986,0.9986 0 0 0 -0.1135,-0.1358 2.4417,2.4417 0 0 0 -0.3408,-0.1927 c -0.0126,-0.0041 -0.0213,-0.0141 -0.0342,-0.0178 a 1820.9231,1820.9231 0 0 1 -0.35,-0.0281 0.972,0.972 0 0 0 -0.1948,0.0443 0.93,0.93 0 0 0 -0.1394,0.0317 c -0.0133,0.0059 -0.0212,0.0178 -0.0341,0.0242 a 0.9783,0.9783 0 0 0 -0.1756,0.1249 0.5626,0.5626 0 0 0 -0.2283,0.2644 0.9707,0.9707 0 0 0 -0.0959,0.1844 c -0.0048,0.0139 -0.0157,0.0235 -0.02,0.0378 a 11.2434,11.2434 0 0 1 -5.8818,7.0859 0.9476,0.9476 0 0 0 -0.1109,0.089 0.7144,0.7144 0 0 0 -0.2776,0.3039 0.9232,0.9232 0 0 0 -0.0715,0.1042 c -1.98,4.6533 -5.6133,7.51 -9.4541,7.4141 C 32.807,42.217 29.8558,40.1858 27.8909,36.7112 27.8834,36.6976 27.8698,36.6904 27.8616,36.6773 A 0.9771,0.9771 0 0 0 27.7038,36.4949 0.9991,0.9991 0 0 0 27.5953,36.3931 0.9768,0.9768 0 0 0 27.4072,36.2994 0.9883,0.9883 0 0 0 27.2387,36.236 c -0.02,-0.0044 -0.0353,-0.0176 -0.0558,-0.0209 -2.9531,-0.4775 -6.1132,-6.7031 -7.082,-9.0615 a 0.9267,0.9267 0 0 0 -0.0759,-0.1138 0.67,0.67 0 0 0 -0.33,-0.34 0.9544,0.9544 0 0 0 -0.11,-0.0785 l -0.0121,-0.0026 a 0.9938,0.9938 0 0 0 -0.2614,-0.0589 1.0458,1.0458 0 0 0 -0.1189,-0.0245 1.059,1.059 0 0 0 -0.134,0.0232 1.0077,1.0077 0 0 0 -0.248,0.0473 l -0.0147,0.0028 a 0.9518,0.9518 0 0 0 -0.134,0.0893 0.98,0.98 0 0 0 -0.178,0.1187 0.97,0.97 0 0 0 -0.1482,0.2071 0.91,0.91 0 0 0 -0.072,0.1006 l -0.01,0.0221 -9e-4,0.0018 C 16.6869,30.6417 9.2191,47.9476 13.1075,51.77 a 2.8859,2.8859 0 0 0 2.1065,0.8193 6.7893,6.7893 0 0 0 2.8144,-0.75 c 0.0113,-0.0052 0.0177,-0.0155 0.0286,-0.0212 a 0.9873,0.9873 0 0 0 0.2662,-0.1972 0.9467,0.9467 0 0 0 0.0613,-0.08 0.979,0.979 0 0 0 0.0863,-0.1127 c 1.502,-2.6367 4.1367,-4.0069 7.8311,-4.0762 3.4638,2.2871 6.3047,3.7119 9.542,3.7568 0.0146,10e-4 0.03,10e-4 0.0449,10e-4 h 0.1142 c 0.0215,0 0.044,0 0.0655,-10e-4 3.2383,-0.0449 6.0791,-1.47 9.542,-3.7568 3.5771,0.0674 6.1621,1.3535 7.6845,3.8272 0.0173,0.0278 0.045,0.0431 0.0644,0.0687 a 0.99,0.99 0 0 0 0.52,0.5914 6.79,6.79 0 0 0 2.8145,0.75 2.8843,2.8843 0 0 0 2.1035,-0.8164 C 59.75,50.8381 62.1935,46.304 53.6583,27.1555 Z"/><path id="path2" fill="#fff" d="M 51.1466,60.9583 H 20.9142 a 1,1 0 0 1 -0.8135,-1.5811 c 4.3564,-6.0977 6.6016,-6.0557 10.8672,-5.4053 a 30.9193,30.9193 0 0 0 4.9883,0.4522 33.0315,33.0315 0 0 0 5.2383,-0.459 c 4.3212,-0.6465 6.416,-0.6748 10.7656,5.4121 a 1,1 0 0 1 -0.8135,1.5811 z"/></g><g id="skin" transform="translate(-11.95437,-7.5112356)"><path id="path3" fill="#6a462f" d="m 36.1534,44.2844 c -0.0683,0 -0.1377,-9e-4 -0.206,-0.0019 -6.96,-0.1455 -12.4649,-7.7637 -12.2735,-16.9824 a 23.6216,23.6216 0 0 1 1.2461,-7.6026 1.0008,1.0008 0 0 1 0.586,-0.5517 0.9908,0.9908 0 0 1 0.8037,0.0585 25.3563,25.3563 0 0 0 20.4756,-0.0361 1,1 0 0 1 1.3769,0.7363 43.8643,43.8643 0 0 1 0.7549,7.9336 19.7648,19.7648 0 0 1 -3.8437,11.6219 11.3168,11.3168 0 0 1 -8.92,4.8244 z"/><path id="path4" fill="#6a462f" d="m 54.0792,48.8685 c -2.0039,-2.336 -4.9531,-3.52 -8.7666,-3.52 a 1.0011,1.0011 0 0 0 -0.5547,0.168 C 41.45,47.7229 38.82,49.095 35.9562,49.11 33.0948,49.0953 30.463,47.7223 27.1544,45.5172 a 1.0006,1.0006 0 0 0 -0.5547,-0.168 c -3.8135,0 -6.7617,1.1836 -8.7656,3.5186 -3.7061,4.32 -2.7344,10.9619 -2.6914,11.2431 a 1.0006,1.0006 0 0 0 0.9883,0.8477 h 4.7832 a 1,1 0 0 1 -0.8135,-1.5811 c 4.3564,-6.0976 6.6016,-6.0556 10.8672,-5.4052 a 30.9206,30.9206 0 0 0 4.9883,0.4521 33.02,33.02 0 0 0 5.2383,-0.459 c 4.3212,-0.6464 6.416,-0.6748 10.7656,5.4121 a 1,1 0 0 1 -0.8135,1.5811 h 4.6357 a 1.0006,1.0006 0 0 0 0.9883,-0.8477 c 0.043,-0.2815 1.0147,-6.9221 -2.6914,-11.2424 z"/></g><g id="hair" transform="translate(-11.95437,-7.5112356)"><path id="path5" fill="#000" d="m 53.1564,15.3362 a 5.9711,5.9711 0 0 0 -5.045,-3.5645 7.449,7.449 0 0 0 -4.333,1.0547 c -1.3886,-1.5527 -5.0312,-5.0439 -9.91,-5.3 C 30.173,7.33 26.5958,9.0413 23.2237,12.6624 a 7.2937,7.2937 0 0 1 -6.6425,2.4121 1,1 0 0 0 -1.16,1.1562 c 0.0694,0.3985 0.6377,3.3291 2.5078,4.6973 a 5.8245,5.8245 0 0 0 -1.1963,3.0478 5.5138,5.5138 0 0 0 1.587,4.1035 c 0.6376,1.5121 4.0869,9.2226 8.4044,10.0739 0.0282,0.0088 0.056,0.0161 0.0848,0.0223 0.0181,0.0032 0.0357,0.0113 0.0537,0.0142 A 0.9965,0.9965 0 0 0 27,38.2005 c 0.0073,0 0.0144,0.0029 0.0217,0.0029 a 0.9944,0.9944 0 0 0 0.31,-0.0564 c 0.03,-0.01 0.058,-0.0227 0.087,-0.0354 a 0.9481,0.9481 0 0 0 0.094,-0.0381 c 0.0237,-0.0134 0.0369,-0.0361 0.0591,-0.0511 a 0.9774,0.9774 0 0 0 0.1785,-0.1547 0.9606,0.9606 0 0 0 0.088,-0.1051 1.4962,1.4962 0 0 0 0.1493,-0.3374 c 0.0051,-0.0221 0.0185,-0.04 0.0222,-0.0626 A 131.6715,131.6715 0 0 1 27.9971,37.0364 0.9665,0.9665 0 0 0 27.924,36.813 0.9242,0.9242 0 0 0 27.8906,36.7112 18.5416,18.5416 0 0 1 25.6739,27.32 a 25.0526,25.0526 0 0 1 0.7452,-5.8662 27.24,27.24 0 0 0 19.98,0.0273 36.14,36.14 0 0 1 0.52,6.2774 c 0,0.0045 0.0022,0.0085 0.0019,0.0131 l -0.0029,0.0132 a 19.29,19.29 0 0 1 -1.4746,7.084 c -0.0059,0.0139 -0.0034,0.0285 -0.0088,0.0424 a 1.1873,1.1873 0 0 0 0.0256,0.7608 c 0.007,0.0155 0.0057,0.0321 0.0135,0.0474 a 0.9412,0.9412 0 0 0 0.09,0.1127 1.9119,1.9119 0 0 0 0.4076,0.3482 c 0.0144,0.0061 0.0294,0.0036 0.044,0.009 a 0.9822,0.9822 0 0 0 0.2089,0.0428 1.06,1.06 0 0 0 0.1387,0.0283 c 0.0156,0 0.03,-0.006 0.046,-0.0067 0.03,-0.0013 0.0575,-0.0087 0.0871,-0.0127 a 0.9861,0.9861 0 0 0 0.2683,-0.0759 c 0.0184,-0.0081 0.0384,-0.0067 0.0566,-0.016 11.5004,-5.9399 6.3949,-20.6459 6.3354,-20.8129 z"/></g><g id="line" transform="translate(-11.95437,-7.5112356)"><path id="path6" fill="none" stroke="#000" stroke-linecap="round" stroke-linejoin="round" stroke-width="2" d="M 47.9172,27.8051 A 43.3663,43.3663 0 0 0 47.179,20.0873 v 0 a 26.0907,26.0907 0 0 1 -21.338,0 22.9285,22.9285 0 0 0 -1.1671,7.2327 c -0.1811,8.6818 4.8753,15.8284 11.2939,15.9622 6.4186,0.1338 11.7683,-6.7957 11.9494,-15.4775"/><path id="path7" fill="none" stroke="#000" stroke-linecap="round" stroke-linejoin="round" stroke-width="2" d="m 46.3619,35.26 c 10.856,-5.6062 5.86,-19.5675 5.86,-19.5675 a 4.9807,4.9807 0 0 0 -4.1981,-2.9241 6.7193,6.7193 0 0 0 -4.4341,1.3884 c 0,0 -9.1126,-12.1018 -19.5872,-0.8668 a 8.3451,8.3451 0 0 1 -7.5966,2.7683 c 0,0 0.7136,4.0878 3.1862,4.5277 0,0 -3.9156,3.2042 -0.4165,6.9468 0,0 3.6875,8.9966 7.8474,9.6691"/><path id="path8" d="m 42,29.773 a 2,2 0 1 1 -2,-2 2.0007,2.0007 0 0 1 2,2"/><path id="path9" d="m 34,29.773 a 2,2 0 1 1 -2,-2 2.0007,2.0007 0 0 1 2,2"/><path id="path10" d="m 36,39.7754 a 7.6524,7.6524 0 0 1 -3.4472,-0.8579 1.0001261,1.0001261 0 0 1 0.8945,-1.7891 5.3774,5.3774 0 0 0 5.1055,0 1.0001261,1.0001261 0 1 1 0.8945,1.7891 A 7.6528,7.6528 0 0 1 36,39.7754 Z"/><path id="path11" fill="none" stroke="#000" stroke-linecap="round" stroke-linejoin="round" stroke-width="2" d="m 16.1309,59.9584 c 0,0 -2.0938,-13.61 10.4689,-13.61 3.3416,2.2277 6.2043,3.7671 9.4221,3.7605 H 35.891 c 3.2178,0.0066 6.0806,-1.5328 9.4221,-3.7605 12.5627,0 10.4689,13.61 10.4689,13.61"/><path id="path12" fill="none" stroke="#000" stroke-linecap="round" stroke-linejoin="round" stroke-width="2" d="m 51.1468,59.9584 c -5.7322,-8.0208 -6.9511,-4.5345 -15.19,-4.5345 -7.8374,0 -9.31,-3.4863 -15.0426,4.5345"/><path id="path13" fill="none" stroke="#000" stroke-linecap="round" stroke-linejoin="round" stroke-width="2" d="m 24.6692,16.4756 c 0,0 12.1185,5.7865 23.2631,0"/><path id="path14" fill="none" stroke="#000" stroke-linecap="round" stroke-linejoin="round" stroke-width="2" d="m 19.1756,27.5332 c 0,0 -9.8778,22.0215 -4.7356,23.9245"/><path id="path15" fill="none" stroke="#000" stroke-linecap="round" stroke-linejoin="round" stroke-width="2" d="m 52.745,27.5626 c 0.3992,0.896 9.7523,22.0251 4.725,23.8941"/></g></svg>