<?xml version="1.0" encoding="UTF-8" standalone="no"?>
<svg
   id="emoji"
   viewBox="0 0 40.131199 52.92664"
   version="1.1"
   sodipodi:docname="1f478-1f3fc.svg"
   width="40.131199"
   height="52.92664"
   xmlns:inkscape="http://www.inkscape.org/namespaces/inkscape"
   xmlns:sodipodi="http://sodipodi.sourceforge.net/DTD/sodipodi-0.dtd"
   xmlns="http://www.w3.org/2000/svg"
   xmlns:svg="http://www.w3.org/2000/svg">
  <defs
     id="defs17" />
  <sodipodi:namedview
     id="namedview17"
     pagecolor="#ffffff"
     bordercolor="#000000"
     borderopacity="0.25"
     inkscape:showpageshadow="2"
     inkscape:pageopacity="0.0"
     inkscape:pagecheckerboard="0"
     inkscape:deskcolor="#d1d1d1" />
  <g
     id="color"
     transform="translate(-15.796901,-5.9228609)">
    <path
       fill="#ffa7c0"
       d="m 50.0576,58.8395 c 0,-4.0115 3.8632,-8.1267 3.8632,-8.1267 l -2.1081,-3.3567 c -4.4249,-0.4802 -6.0588,8.7658 -6.0588,8.7658 -3.6822,-4.6369 -9.8914,0.17 -9.8914,0.17 0,0 -6.3702,-4.8069 -10.0525,-0.17 0,0 -1.6339,-9.246 -6.0587,-8.7658 l -2.1081,3.3567 c 0,0 3.8632,4.1152 3.8632,8.1267 z"
       id="path1" />
    <polygon
       fill="#fcea2b"
       points="34.557,10.4685 35.9721,6.9227 37.4406,10.3322 40.2849,7.817 40.2849,17.5603 31.4401,17.5603 31.4417,7.817 "
       id="polygon1" />
  </g>
  <g
     id="hair"
     transform="translate(-15.796901,-5.9228609)">
    <path
       fill="#fcea2b"
       d="m 44.6616,14.1806 c -1.3679,-0.8802 -2.7359,-1.5522 -4.1038,-2.0161 l -0.2729,5.3958 h -8.6702 l 0.0319,-5.4733 c -1.4461,0.4652 -2.8922,1.1631 -4.3383,2.0936 -15.3119,15.2765 6.6157,9.8224 8.6766,4.5452 2.0609,5.2772 23.9886,10.7313 8.6767,-4.5452 z"
       id="path2" />
    <path
       fill="#fcea2b"
       d="m 23.8132,44.829 c 0.9169,-0.246 1.9445,-0.389 3.1118,-0.389 3.17,2.1047 5.8895,3.5601 8.9375,3.574 3.048,-0.0139 5.7675,-1.4693 8.9375,-3.574 1.2405,0 2.3238,0.1609 3.2828,0.4369 0.7167,-0.5253 1.4333,-1.0814 2.15,-1.7 3.1968,-3.5804 0.3021,-14.8257 -0.9258,-19.0057 -8.8832,-8.316 -17.7664,-8.3165 -26.6496,0 -1.2279,4.18 -4.1231,15.4253 -0.9258,19.0057 0.6938,0.5989 1.3877,1.1407 2.0816,1.6521 z"
       id="path3" />
  </g>
  <g
     id="skin"
     transform="translate(-15.796901,-5.9228609)">
    <path
       fill="#debb90"
       d="m 17.6998,50.7747 c -1.3542,3.8632 -0.7748,8.0626 -0.7748,8.0626 h 4.5813 C 21.5049,55.1042 18.163,51.2861 17.6998,50.7747 Z"
       id="path4" />
    <path
       fill="#debb90"
       d="m 44.8,44.44 c -3.17,2.1047 -5.8895,3.5601 -8.9375,3.574 -3.048,-0.0139 -5.7675,-1.4693 -8.9375,-3.574 -5.3155,0 -7.8812,2.8254 -9.0933,5.9727 l 1.9196,-3.0566 c 4.4248,-0.4802 6.0587,8.7658 6.0587,8.7658 3.6823,-4.6369 10.0525,0.17 10.0525,0.17 0,0 6.2092,-4.8069 9.8914,-0.17 0,0 1.6339,-9.246 6.0588,-8.7658 l 2.1081,3.3567 c 0,0 -3.8616,4.1138 -3.863,8.1245 H 54.8 c 0,0 2,-14.3973 -10,-14.3973 z"
       id="path5" />
    <path
       fill="#debb90"
       d="m 36.0133,19.3798 c 0,0 3.5238,5.175 11.1,5.7564 0.1564,0.9382 0.2386,1.9103 0.2386,2.9065 0,7.8277 -5.0765,14.1733 -11.3386,14.1733 -6.2621,0 -11.3386,-6.3456 -11.3386,-14.1733 0,-1.0109 0.0847,-1.9971 0.2456,-2.9481 7.0648,-1.2683 11.093,-5.7148 11.093,-5.7148 z"
       id="path6" />
  </g>
  <g
     id="skin-shadow"
     transform="translate(-15.796901,-5.9228609)" />
  <g
     id="line"
     transform="translate(-15.796901,-5.9228609)">
    <path
       d="m 41.9851,26.9809 c 0,1.1045 -0.8965,2 -2,2 -1.1035,0 -2,-0.8955 -2,-2 0,-1.1035 0.8965,-2 2,-2 1.1035,0 2,0.8965 2,2"
       id="path7" />
    <path
       d="m 33.9851,26.9809 c 0,1.1045 -0.8965,2 -2,2 -1.1035,0 -2,-0.8955 -2,-2 0,-1.1035 0.8965,-2 2,-2 1.1035,0 2,0.8965 2,2"
       id="path8" />
    <path
       d="m 35.9849,36.9833 c -1.1518,0 -2.3037,-0.2861 -3.4472,-0.8579 -0.4942,-0.2471 -0.6944,-0.8477 -0.4473,-1.3418 0.2466,-0.4937 0.8462,-0.6943 1.3418,-0.4473 1.7178,0.8594 3.3877,0.8594 5.1055,0 0.4946,-0.247 1.0947,-0.0464 1.3418,0.4473 0.247,0.4941 0.0468,1.0947 -0.4473,1.3418 -1.1436,0.5718 -2.2954,0.8579 -3.4473,0.8579 z"
       id="path9" />
    <path
       fill="none"
       stroke="#000000"
       stroke-miterlimit="10"
       stroke-width="2"
       d="m 24.9671,24.9804 c -0.2096,1.0775 -0.3208,2.2032 -0.3208,3.3613 0,7.8276 5.0765,14.1732 11.3386,14.1732 6.2622,0 11.3386,-6.3456 11.3386,-14.1732 0,-1.1582 -0.1111,-2.2839 -0.3208,-3.3614"
       id="path10" />
    <path
       fill="none"
       stroke="#000000"
       stroke-linecap="round"
       stroke-linejoin="round"
       stroke-miterlimit="10"
       stroke-width="2"
       d="m 16.925,57.8337 c 0,0 -2,-13 10,-13 3.1919,2.1279 5.9264,3.5984 9,3.5921 H 35.8 c 3.0736,0.0063 5.8081,-1.4642 9,-3.5921 12,0 10,13 10,13"
       id="path11" />
    <polygon
       fill="none"
       stroke="#000000"
       stroke-linecap="round"
       stroke-linejoin="round"
       stroke-miterlimit="10"
       stroke-width="2"
       points="34.557,10.4685 35.9721,6.9227 37.4406,10.3322 40.2849,7.817 40.2849,17.5603 31.4401,17.5603 31.4417,7.817 "
       id="polygon11" />
    <path
       fill="none"
       stroke="#000000"
       stroke-linecap="round"
       stroke-linejoin="round"
       stroke-miterlimit="10"
       stroke-width="2"
       d="m 17.6432,50.7128 c 0,0 3.8632,3.1152 3.8632,7.1267"
       id="path12" />
    <path
       fill="none"
       stroke="#000000"
       stroke-linecap="round"
       stroke-linejoin="round"
       stroke-miterlimit="10"
       stroke-width="2"
       d="m 51.8127,47.3561 c -4.4249,-0.4802 -6.0588,8.7658 -6.0588,8.7658 -3.6822,-4.6369 -9.8914,0.17 -9.8914,0.17 0,0 -6.3702,-4.8069 -10.0525,-0.17 0,0 -1.6339,-9.246 -6.0587,-8.7658"
       id="path13" />
    <path
       fill="none"
       stroke="#000000"
       stroke-linecap="round"
       stroke-linejoin="round"
       stroke-miterlimit="10"
       stroke-width="2"
       d="m 53.9208,50.7128 c 0,0 -3.8632,3.1252 -3.8632,7.1367"
       id="path14" />
    <path
       fill="none"
       stroke="#000000"
       stroke-linecap="round"
       stroke-linejoin="round"
       stroke-miterlimit="10"
       stroke-width="2"
       d="m 44.2693,15.055 c 14.5692,14.5357 -6.295,9.3461 -8.256,4.3248 -1.9611,5.0213 -22.8252,10.2109 -8.2561,-4.3248"
       id="path15" />
    <path
       fill="none"
       stroke="#000000"
       stroke-linecap="round"
       stroke-linejoin="round"
       stroke-miterlimit="10"
       stroke-width="2"
       d="m 23.0563,23.8263 c -1.1906,4.0541 -3.9987,14.9608 -0.898,18.4335"
       id="path16" />
    <path
       fill="none"
       stroke="#000000"
       stroke-linecap="round"
       stroke-linejoin="round"
       stroke-miterlimit="10"
       stroke-width="2"
       d="m 48.9037,23.8263 c 1.1906,4.0541 3.9986,14.9608 0.8979,18.4335"
       id="path17" />
  </g>
</svg>
