<?xml version="1.0" encoding="UTF-8" standalone="no"?>
<svg
   id="emoji"
   viewBox="0 0 40.273399 56"
   version="1.1"
   sodipodi:docname="1f486-1f3fb-200d-2642-fe0f.svg"
   width="40.273399"
   height="56"
   xmlns:inkscape="http://www.inkscape.org/namespaces/inkscape"
   xmlns:sodipodi="http://sodipodi.sourceforge.net/DTD/sodipodi-0.dtd"
   xmlns="http://www.w3.org/2000/svg"
   xmlns:svg="http://www.w3.org/2000/svg">
  <defs
     id="defs19" />
  <sodipodi:namedview
     id="namedview19"
     pagecolor="#ffffff"
     bordercolor="#000000"
     borderopacity="0.25"
     inkscape:showpageshadow="2"
     inkscape:pageopacity="0.0"
     inkscape:pagecheckerboard="0"
     inkscape:deskcolor="#d1d1d1" />
  <g
     id="color"
     transform="translate(-16.0039,-4.9686)">
    <path
       fill="#92d3f5"
       d="m 17.0039,60.9583 v -3.2474 c 0,-5.406 5.0078,-9.7423 10,-9.7423 q 9,8.1186 18,0 c 4.9941,0 10,4.3363 10,9.7423 v 3.2474"
       id="path1" />
  </g>
  <g
     id="skin"
     transform="translate(-16.0039,-4.9686)">
    <path
       fill="#fadcbc"
       d="m 44.706,23.3294 a 13.3183,13.3183 0 0 0 0.8819,5.7007 13.6034,13.6034 0 0 1 1.416,4.9385 c 0,5 -5.127,11 -11.0635,11 -6.0635,0 -11,-6 -11,-11 a 7.6381,7.6381 0 0 1 1.0635,-4 c 1,-2 1.3848,-5.271 1.708,-6.3335 l 3.1378,-2.27 a 12.01,12.01 0 0 1 3.0272,-1.625 c 2.1993,-1.228 2.6093,-1.3 4.1708,-0.3614 a 30.41,30.41 0 0 1 3.5138,2.0613 z"
       id="path2" />
    <path
       fill="#fadcbc"
       d="m 55.0039,4.9686 c 0,3 -1,11 -1,11 v 12 c -1,4 -4,4 -4,4 0,-6 -3,-12 -3,-12 A 14.6523,14.6523 0 0 0 43.6631,24.14 c -1.4863,2.4067 -3.6592,0.8286 -2.6592,-1.1714 0.8379,-1.6758 3.0469,-5.62 4,-7 a 7.4948,7.4948 0 0 1 4,-3 v -8"
       id="path3" />
    <path
       fill="#fadcbc"
       d="m 17.0039,4.9686 c 0,3 1,11 1,11 v 12 c 1,4 4,4 4,4 0,-6 3,-12 3,-12 a 14.6523,14.6523 0 0 1 3.3408,4.1714 c 1.4863,2.4067 3.6592,0.8286 2.6592,-1.1714 -0.8379,-1.6758 -3.0469,-5.62 -4,-7 a 7.4948,7.4948 0 0 0 -4,-3 v -8"
       id="path4" />
  </g>
  <g
     id="hair"
     transform="translate(-16.0039,-4.9686)">
    <path
       fill="#a57939"
       d="m 46.7117,33.3921 -1.5085,-5.4652 a 17.91,17.91 0 0 0 -1.5563,-3.7 L 40.75,24.1092 v -3.0354 c 0.2266,-0.0884 -3.6156,-2.24 -4.7775,-2.1052 -1.1619,0.1348 -4.4668,2.0168 -4.4668,2.0168 l 0.3715,2.24 -3.6426,1.12 c -1.1172,1.3371 -1.65,4.7741 -1.65,4.7741 l -1.2466,7.41 c -1.1972,-0.6336 -3.0356,-0.72 -3.3335,-4.56 a 30.241,30.241 0 0 1 2,-10 l 0.3279,-1.5748 c 4.5569,4.5569 6.3244,2.9827 6.3244,2.9827 1.4085,-0.0552 -4.34,-9.2409 -4.34,-9.2409 3.166,-2.8125 5.8037,-2.7085 9.6563,-2.7085 3.8526,0 5.8242,-0.375 9.8867,2.7705 0,0 -6.3668,9.318 -4.2815,9.63 2.0853,0.312 6.5317,-3.2973 6.5631,-3.3653 0.0314,-0.068 0.3629,2.8645 0.3629,2.8645 a 33.36,33.36 0 0 1 1.5,8.6416 c -1.0381,2.8646 -2.1271,3.6888 -3.9389,4.3007 z"
       id="path5" />
  </g>
  <g
     id="line"
     transform="translate(-16.0039,-4.9686)">
    <path
       d="m 41.8769,29.9686 a 2,2 0 1 1 -2,-2 2,2 0 0 1 2,2"
       id="path6" />
    <path
       d="m 33.8769,29.9686 a 2,2 0 1 1 -2,-2 2,2 0 0 1 2,2"
       id="path7" />
    <path
       fill="none"
       stroke="#000000"
       stroke-linecap="round"
       stroke-linejoin="round"
       stroke-width="2"
       d="m 29.1631,13.3685 a 15.8,15.8 0 0 1 6.8408,-1.4 15.9714,15.9714 0 0 1 6.5928,1.2847"
       id="path8" />
    <path
       fill="none"
       stroke="#000000"
       stroke-linecap="round"
       stroke-linejoin="round"
       stroke-width="2"
       d="m 17.0039,59.9686 v -3 c 0,-4.9941 5.0078,-9 10,-9 q 9,7.5 18,0 c 4.9941,0 10,4.0059 10,9 v 3"
       id="path9" />
    <path
       d="m 41.8769,29.9686 a 2,2 0 1 1 -2,-2 2,2 0 0 1 2,2"
       id="path10" />
    <path
       d="m 33.8769,29.9686 a 2,2 0 1 1 -2,-2 2,2 0 0 1 2,2"
       id="path11" />
    <path
       fill="none"
       stroke="#000000"
       stroke-linecap="round"
       stroke-linejoin="round"
       stroke-width="2"
       d="m 36.0039,17.9681 a 10.6183,10.6183 0 0 0 -2.457,0.8594"
       id="path12" />
    <path
       fill="none"
       stroke="#000000"
       stroke-linecap="round"
       stroke-linejoin="round"
       stroke-width="2"
       d="M 26.0039,27.0765 A 40.3135,40.3135 0 0 0 24.94,33.9686 c 0,5 4.9365,11 11,11 5.9365,0 11.0635,-6 11.0635,-11 a 35.9127,35.9127 0 0 0 -1,-6.8921"
       id="path13" />
    <path
       fill="none"
       stroke="#000000"
       stroke-linecap="round"
       stroke-linejoin="round"
       stroke-width="2"
       d="m 33.0039,37.9686 a 6.5535,6.5535 0 0 0 6,0"
       id="path14" />
    <path
       fill="none"
       stroke="#000000"
       stroke-linecap="round"
       stroke-linejoin="round"
       stroke-width="2"
       d="m 17.0039,5.9686 c 0,3 1,10 1,10 v 12 c 1,4 4,4 4,4 0,-6 3,-12 3,-12 l 4,4 c 1,1 3,0 2,-2 a 66.7658,66.7658 0 0 0 -4,-6 7.4948,7.4948 0 0 0 -4,-3 v -7"
       id="path15" />
    <path
       fill="none"
       stroke="#000000"
       stroke-linecap="round"
       stroke-linejoin="round"
       stroke-width="2"
       d="m 55.2773,5.9686 c 0,3 -1,10 -1,10 v 12 c -1,4 -4,4 -4,4 0,-6 -3,-12 -3,-12 l -4,4 c -1,1 -3,0 -2,-2 a 66.7658,66.7658 0 0 1 4,-6 7.4952,7.4952 0 0 1 4,-3 v -7"
       id="path16" />
    <path
       fill="none"
       stroke="#000000"
       stroke-linecap="round"
       stroke-linejoin="round"
       stroke-width="2"
       d="m 36.0039,17.9676 a 7.2883,7.2883 0 0 1 2.334,0.6675"
       id="path17" />
    <path
       fill="none"
       stroke="#000000"
       stroke-linecap="round"
       stroke-linejoin="round"
       stroke-width="2"
       d="m 25.3374,36.5289 c -1.78,-1.3475 -2.78,-1.512 -3.2673,-5.939"
       id="path18" />
    <path
       fill="none"
       stroke="#000000"
       stroke-linecap="round"
       stroke-linejoin="round"
       stroke-width="2"
       d="m 50.1751,30.6282 c -0.4869,4.4269 -1.4877,4.5914 -3.2674,5.939"
       id="path19" />
  </g>
</svg>
