<?xml version="1.0" encoding="UTF-8" standalone="no"?>
<svg
   id="emoji"
   viewBox="0 0 66 54.103901"
   version="1.1"
   sodipodi:docname="1f48e.svg"
   width="66"
   height="54.103901"
   xmlns:inkscape="http://www.inkscape.org/namespaces/inkscape"
   xmlns:sodipodi="http://sodipodi.sourceforge.net/DTD/sodipodi-0.dtd"
   xmlns="http://www.w3.org/2000/svg"
   xmlns:svg="http://www.w3.org/2000/svg">
  <defs
     id="defs4" />
  <sodipodi:namedview
     id="namedview4"
     pagecolor="#ffffff"
     bordercolor="#000000"
     borderopacity="0.25"
     inkscape:showpageshadow="2"
     inkscape:pageopacity="0.0"
     inkscape:pagecheckerboard="0"
     inkscape:deskcolor="#d1d1d1" />
  <g
     id="color"
     transform="translate(-3,-10.9798)">
    <polygon
       fill="#61b2e4"
       points="4,23.3481 36,64.0837 68,23.3481 56.3771,11.9798 16.3771,11.9798 "
       id="polygon1" />
    <polyline
       fill="#92d3f5"
       points="37.3698,62.3355 55.7486,23.3482 36,11.9798 56.3771,11.9798 68,23.3481 37.3698,62.3355"
       id="polyline1" />
  </g>
  <g
     id="hair"
     transform="translate(-3,-10.9798)" />
  <g
     id="skin"
     transform="translate(-3,-10.9798)" />
  <g
     id="skin-shadow"
     transform="translate(-3,-10.9798)" />
  <g
     id="line"
     transform="translate(-3,-10.9798)">
    <polygon
       fill="none"
       stroke="#000000"
       stroke-linecap="round"
       stroke-linejoin="round"
       stroke-miterlimit="10"
       stroke-width="2"
       points="4,23.3481 36,64.0837 68,23.3481 56.3771,11.9798 16.3771,11.9798 "
       id="polygon2" />
    <polyline
       fill="none"
       stroke="#000000"
       stroke-linecap="round"
       stroke-linejoin="round"
       stroke-miterlimit="10"
       stroke-width="2"
       points="55.7486,23.8595 36,64.0837 36,24.3482 36,11.9798 16.2556,23.3482"
       id="polyline2" />
    <line
       x1="16.2556"
       x2="36.0042"
       y1="23.859501"
       y2="64.083702"
       fill="none"
       stroke="#000000"
       stroke-linecap="round"
       stroke-linejoin="round"
       stroke-miterlimit="10"
       stroke-width="2"
       id="line2" />
    <line
       x1="4"
       x2="68"
       y1="23.3482"
       y2="23.3482"
       fill="none"
       stroke="#000000"
       stroke-linecap="round"
       stroke-linejoin="round"
       stroke-miterlimit="10"
       stroke-width="2"
       id="line3" />
    <line
       x1="36"
       x2="55.7486"
       y1="11.9798"
       y2="23.3482"
       fill="none"
       stroke="#000000"
       stroke-linecap="round"
       stroke-linejoin="round"
       stroke-miterlimit="10"
       stroke-width="2"
       id="line4" />
    <polygon
       fill="none"
       stroke="#000000"
       stroke-linecap="round"
       stroke-linejoin="round"
       stroke-miterlimit="10"
       stroke-width="2"
       points="4,23.3481 36,64.0837 68,23.3481 56.3771,11.9798 16.3771,11.9798 "
       id="polygon4" />
  </g>
</svg>
