<?xml version="1.0" encoding="UTF-8" standalone="no"?>
<svg
   id="emoji"
   viewBox="0 0 51.79475 51.782902"
   version="1.1"
   sodipodi:docname="1f48a.svg"
   width="51.79475"
   height="51.782902"
   xmlns:inkscape="http://www.inkscape.org/namespaces/inkscape"
   xmlns:sodipodi="http://sodipodi.sourceforge.net/DTD/sodipodi-0.dtd"
   xmlns="http://www.w3.org/2000/svg"
   xmlns:svg="http://www.w3.org/2000/svg">
  <defs
     id="defs6" />
  <sodipodi:namedview
     id="namedview6"
     pagecolor="#ffffff"
     bordercolor="#000000"
     borderopacity="0.25"
     inkscape:showpageshadow="2"
     inkscape:pageopacity="0.0"
     inkscape:pagecheckerboard="0"
     inkscape:deskcolor="#d1d1d1" />
  <g
     id="color"
     transform="translate(-9.880525,-10.2699)">
    <path
       fill="#d22f27"
       stroke="none"
       d="M 44.33,44.71 32.52,56.52 c -4.53,4.54 -11.85,4.7 -16.58,0.4901 8.96,0.08 8.4,0.65 24.87,-15.82 z"
       id="path1" />
    <path
       fill="#ea5a47"
       stroke="none"
       d="M 40.81,41.19 C 24.34,57.66 24.9,57.09 15.94,57.01 c -0.18,-0.16 -0.35,-0.32 -0.52,-0.4901 -2.35,-2.35 -3.53,-5.45 -3.53,-8.55 0,-3.1 1.18,-6.2 3.53,-8.55 l 11.81,-11.81 z"
       id="path2" />
    <path
       fill="#92d3f5"
       stroke="none"
       d="m 56.85,15.1 c -2.47,-2.47 -5.75,-3.83 -9.2599,-3.83 -3.51,0 -6.8,1.36 -9.26,3.83 L 25.81,27.61 44.33,46.13 56.84,33.61 c 2.47,-2.46 3.83,-5.75 3.83,-9.26 0,-3.5 -1.36,-6.79 -3.82,-9.25 z M 56.14,32.9 44.33,44.71 40.81,41.19 c 0.42,-0.42 0.86,-0.86 1.31,-1.31 15.72,-15.72 8.77,-25.05 6.21,-27.59 2.85,0.18 5.65,1.35 7.81,3.51 2.35,2.35 3.53,5.45 3.53,8.55 0,3.1 -1.18,6.2 -3.53,8.55 z"
       id="path3" />
    <path
       fill="#92d3f5"
       stroke="none"
       d="m 57.55,14.39 c -2.65,-2.66 -6.19,-4.1201 -9.96,-4.1201 -3.78,0 -7.32,1.46 -9.97,4.1201 l -13.22,13.22 1.41,1.42 17.1,17.1 1.42,1.41 13.22,-13.22 c 2.66,-2.66 4.12,-6.2 4.12,-9.97 0,-3.77 -1.46,-7.31 -4.12,-9.96 z M 44.33,44.71 40.81,41.19 27.23,27.61 39.04,15.8 c 2.35,-2.35 5.45,-3.53 8.55,-3.53 0.25,0 0.49,0.01 0.74,0.02 2.85,0.18 5.65,1.35 7.81,3.51 2.35,2.35 3.53,5.45 3.53,8.55 0,3.1 -1.18,6.2 -3.53,8.55 z"
       id="path4" />
    <path
       fill="#61b2e4"
       stroke="none"
       d="m 59.67,24.35 c 0,3.1 -1.18,6.2 -3.53,8.55 L 44.33,44.71 40.81,41.19 c 0.42,-0.42 0.86,-0.86 1.31,-1.31 15.72,-15.72 8.77,-25.05 6.21,-27.59 2.85,0.18 5.65,1.35 7.81,3.51 2.35,2.35 3.53,5.45 3.53,8.55 z"
       id="path5" />
    <line
       x1="27.2279"
       x2="26.6579"
       y1="27.613501"
       y2="27.033501"
       fill="none"
       stroke="none"
       id="line5" />
    <rect
       x="40.8452"
       y="39.013199"
       width="5.8081999"
       height="6.5640998"
       transform="matrix(0.7071,0.7071,-0.7071,0.7071,42.7211,-18.5474)"
       fill="#61b2e4"
       stroke="none"
       id="rect5" />
  </g>
  <g
     id="hair"
     transform="translate(-9.880525,-10.2699)" />
  <g
     id="skin"
     transform="translate(-9.880525,-10.2699)" />
  <g
     id="skin-shadow"
     transform="translate(-9.880525,-10.2699)" />
  <g
     id="line"
     transform="translate(-9.880525,-10.2699)">
    <path
       fill="#000000"
       stroke="none"
       d="m 47.5877,12.2742 c 3.1001,0 6.2001,1.1759 8.5519,3.5276 v 0 c 4.7035,4.7035 4.7035,12.4002 0,17.1038 L 32.52,56.5251 c -2.3518,2.3518 -5.4518,3.5277 -8.5519,3.5277 -3.1001,0 -6.2001,-1.1759 -8.5519,-3.5277 v 0 c -4.7035,-4.7035 -4.7035,-12.4002 0,-17.1038 L 39.0357,15.8018 c 2.3518,-2.3518 5.4519,-3.5276 8.552,-3.5276 m 0,-2 c -3.7741,0 -7.3135,1.4608 -9.9661,4.1134 L 14.002,38.0071 c -5.4953,5.4953 -5.4953,14.4369 0,19.9322 2.6526,2.6526 6.192,4.1135 9.9661,4.1135 3.7741,0 7.3135,-1.4608 9.9661,-4.1134 L 57.5538,34.3199 c 5.4953,-5.4953 5.4953,-14.4369 0,-19.9322 -2.6526,-2.6527 -6.192,-4.1135 -9.9661,-4.1135 z"
       id="path6" />
    <line
       x1="28.5625"
       x2="41.421902"
       y1="30.4062"
       y2="43.265598"
       fill="none"
       stroke="#000000"
       stroke-linecap="round"
       stroke-miterlimit="10"
       stroke-width="2"
       id="line6" />
  </g>
</svg>
