<svg xmlns="http://www.w3.org/2000/svg" xmlns:svg="http://www.w3.org/2000/svg" id="emoji" width="29" height="50" version="1.1" viewBox="0 0 29 50"><g id="color" transform="translate(-22.5,-11)"><path id="path1" fill="#d0cfce" stroke="none" stroke-linecap="round" stroke-linejoin="round" stroke-miterlimit="10" stroke-width="2" d="m 48.5,16 h -23 c -1.1046,0 -2,-0.8954 -2,-2 v 0 c 0,-1.1046 0.8954,-2 2,-2 h 23 c 1.1046,0 2,0.8954 2,2 v 0 c 0,1.1046 -0.8954,2 -2,2 z"/><path id="path2" fill="#d0cfce" stroke="none" stroke-linecap="round" stroke-linejoin="round" stroke-miterlimit="10" stroke-width="2" d="m 48.5,60 h -23 c -1.1046,0 -2,-0.8954 -2,-2 v 0 c 0,-1.1046 0.8954,-2 2,-2 h 23 c 1.1046,0 2,0.8954 2,2 v 0 c 0,1.1046 -0.8954,2 -2,2 z"/><rect id="rect2" width="22" height="40" x="26" y="16" fill="#ea5a47" stroke="none" stroke-linecap="round" stroke-linejoin="round" stroke-miterlimit="10" stroke-width="2"/><polygon id="polygon2" fill="#fff" stroke="none" stroke-linecap="round" stroke-linejoin="round" stroke-miterlimit="10" stroke-width="2" points="26 21 34.462 16 41.822 16 26 25"/><polygon id="polygon3" fill="#fff" stroke="none" stroke-linecap="round" stroke-linejoin="round" stroke-miterlimit="10" stroke-width="2" points="48 20 26 33 26 37 48 24"/><polygon id="polygon4" fill="#fff" stroke="none" stroke-linecap="round" stroke-linejoin="round" stroke-miterlimit="10" stroke-width="2" points="26 49 48 36 48 32 26 45"/><polygon id="polygon5" fill="#fff" stroke="none" stroke-linecap="round" stroke-linejoin="round" stroke-miterlimit="10" stroke-width="2" points="34.462 56 48 48 48 44 27.692 56"/><polygon id="polygon6" fill="#92d3f5" stroke="none" stroke-linecap="round" stroke-linejoin="round" stroke-miterlimit="10" stroke-width="2" points="26 25 26 33 48 20 48 16 41.822 16"/><polygon id="polygon7" fill="#92d3f5" stroke="none" stroke-linecap="round" stroke-linejoin="round" stroke-miterlimit="10" stroke-width="2" points="26 56 26 49 48 36 48 44 27.692 56"/></g><g id="line" transform="translate(-22.5,-11)"><path id="path7" fill="none" stroke="#000" stroke-linecap="round" stroke-linejoin="round" stroke-miterlimit="10" stroke-width="2" d="m 48.5,16 h -23 c -1.1046,0 -2,-0.8954 -2,-2 v 0 c 0,-1.1046 0.8954,-2 2,-2 h 23 c 1.1046,0 2,0.8954 2,2 v 0 c 0,1.1046 -0.8954,2 -2,2 z"/><path id="path8" fill="none" stroke="#000" stroke-linecap="round" stroke-linejoin="round" stroke-miterlimit="10" stroke-width="2" d="m 48.5,60 h -23 c -1.1046,0 -2,-0.8954 -2,-2 v 0 c 0,-1.1046 0.8954,-2 2,-2 h 23 c 1.1046,0 2,0.8954 2,2 v 0 c 0,1.1046 -0.8954,2 -2,2 z"/><rect id="rect8" width="22" height="40" x="26" y="16" fill="none" stroke="#000" stroke-linecap="round" stroke-linejoin="round" stroke-miterlimit="10" stroke-width="2"/><polygon id="polygon8" fill="none" stroke="#000" stroke-linecap="round" stroke-linejoin="round" stroke-miterlimit="10" stroke-width="2" points="26 21 34.462 16 41.822 16 26 25"/><polygon id="polygon9" fill="none" stroke="#000" stroke-linecap="round" stroke-linejoin="round" stroke-miterlimit="10" stroke-width="2" points="48 20 26 33 26 37 48 24"/><polygon id="polygon10" fill="none" stroke="#000" stroke-linecap="round" stroke-linejoin="round" stroke-miterlimit="10" stroke-width="2" points="26 49 48 36 48 32 26 45"/><polygon id="polygon11" fill="none" stroke="#000" stroke-linecap="round" stroke-linejoin="round" stroke-miterlimit="10" stroke-width="2" points="34.462 56 48 48 48 44 27.692 56"/><polygon id="polygon12" fill="none" stroke="#000" stroke-linecap="round" stroke-linejoin="round" stroke-miterlimit="10" stroke-width="2" points="26 25 26 33 48 20 48 16 41.822 16"/><polygon id="polygon13" fill="none" stroke="#000" stroke-linecap="round" stroke-linejoin="round" stroke-miterlimit="10" stroke-width="2" points="26 56 26 49 48 36 48 44 27.692 56"/></g></svg>