<?xml version="1.0" encoding="UTF-8" standalone="no"?>
<svg
   id="emoji"
   viewBox="0 0 66 42.5"
   version="1.1"
   sodipodi:docname="1f48c.svg"
   width="66"
   height="42.5"
   xmlns:inkscape="http://www.inkscape.org/namespaces/inkscape"
   xmlns:sodipodi="http://sodipodi.sourceforge.net/DTD/sodipodi-0.dtd"
   xmlns="http://www.w3.org/2000/svg"
   xmlns:svg="http://www.w3.org/2000/svg">
  <defs
     id="defs4" />
  <sodipodi:namedview
     id="namedview4"
     pagecolor="#ffffff"
     bordercolor="#000000"
     borderopacity="0.25"
     inkscape:showpageshadow="2"
     inkscape:pageopacity="0.0"
     inkscape:pagecheckerboard="0"
     inkscape:deskcolor="#d1d1d1" />
  <g
     id="color"
     transform="translate(-3,-14)">
    <path
       fill="#ffffff"
       d="M 65.0856,55.5 H 6.8775 C 5.2883,55.5 4,54.2117 4,52.6225 V 17.2483 C 4,16.0066 5.0066,15 6.2483,15 H 65.6942 C 66.9677,15 68,16.0323 68,17.3058 V 52.5857 C 68,54.1952 66.6952,55.5 65.0856,55.5 Z"
       id="path1" />
    <g
       id="line_2_">
      <path
         fill="#ea5a47"
         d="m 47.0637,33.5518 c 0,-3.2502 -2.6348,-5.885 -5.885,-5.885 -2.2378,0 -4.1835,1.2493 -5.1788,3.0883 -0.9952,-1.839 -2.9409,-3.0883 -5.1788,-3.0883 -3.2502,0 -5.885,2.6348 -5.885,5.885 0,1.3982 0.4898,2.6808 1.3043,3.6905 L 26.2384,37.2439 36,49.3421 45.7615,37.2438 45.7595,37.2422 c 0.8144,-1.0097 1.3042,-2.2922 1.3042,-3.6904 z"
         id="path2" />
    </g>
  </g>
  <g
     id="hair"
     transform="translate(-3,-14)" />
  <g
     id="skin"
     transform="translate(-3,-14)" />
  <g
     id="skin-shadow"
     transform="translate(-3,-14)" />
  <g
     id="line"
     transform="translate(-3,-14)">
    <path
       fill="none"
       stroke="#000000"
       stroke-linecap="round"
       stroke-linejoin="round"
       stroke-miterlimit="10"
       stroke-width="2"
       d="M 65.0856,55.5 H 6.8775 C 5.2883,55.5 4,54.2117 4,52.6225 V 17.2483 C 4,16.0066 5.0066,15 6.2483,15 H 65.6942 C 66.9677,15 68,16.0323 68,17.3058 V 52.5857 C 68,54.1952 66.6952,55.5 65.0856,55.5 Z"
       id="path3" />
    <line
       x1="5"
       x2="20"
       y1="16"
       y2="32"
       fill="none"
       stroke="#000000"
       stroke-linecap="round"
       stroke-miterlimit="10"
       stroke-width="2"
       id="line3" />
    <line
       x1="67"
       x2="52"
       y1="16"
       y2="32"
       fill="none"
       stroke="#000000"
       stroke-linecap="round"
       stroke-miterlimit="10"
       stroke-width="2"
       id="line4" />
    <g
       id="line_1_">
      <path
         fill="none"
         stroke="#000000"
         stroke-linejoin="round"
         stroke-miterlimit="10"
         stroke-width="2"
         d="m 47.0637,33.5518 c 0,-3.2502 -2.6348,-5.885 -5.885,-5.885 -2.2378,0 -4.1835,1.2493 -5.1788,3.0883 -0.9952,-1.839 -2.9409,-3.0883 -5.1788,-3.0883 -3.2502,0 -5.885,2.6348 -5.885,5.885 0,1.3982 0.4898,2.6808 1.3043,3.6905 L 26.2384,37.2439 36,49.3421 45.7615,37.2438 45.7595,37.2422 c 0.8144,-1.0097 1.3042,-2.2922 1.3042,-3.6904 z"
         id="path4" />
    </g>
  </g>
</svg>
