<svg xmlns="http://www.w3.org/2000/svg" xmlns:svg="http://www.w3.org/2000/svg" id="emoji" width="40.273" height="56.006" version="1.1" viewBox="0 0 40.273 56.006"><g id="color" transform="translate(-16,-4.994)"><path id="path1" fill="#92d3f5" d="m 17,61 v -3.2515 c 0,-5.4128 5.0078,-9.7545 10,-9.7545 q 9,8.1288 18,0 c 4.9941,0 10,4.3417 10,9.7545 V 61"/></g><g id="skin" transform="translate(-16,-4.994)"><path id="path2" fill="#c19a65" d="M 44.7021,23.3548 A 13.3183,13.3183 0 0 0 45.584,29.0555 13.6034,13.6034 0 0 1 47,33.994 c 0,5 -5.127,11 -11.0635,11 -6.0635,0 -11,-6 -11,-11 a 7.6381,7.6381 0 0 1 1.0635,-4 c 1,-2 1.3848,-5.271 1.708,-6.3335 l 3.0742,-2.7266 A 16.951,16.951 0 0 1 33.873,18.87 c 2.1993,-1.228 3.2931,-0.9559 4.8546,-0.0169 a 24.3432,24.3432 0 0 1 3.21,1.9775 z"/><path id="path3" fill="#c19a65" d="m 55,4.994 c 0,3 -1,11 -1,11 v 12 c -1,4 -4,4 -4,4 0,-6 -3,-12 -3,-12 a 14.6523,14.6523 0 0 0 -3.3408,4.1714 C 42.1729,26.5721 40,24.994 41,22.994 c 0.8379,-1.6758 3.0469,-5.62 4,-7 a 7.4948,7.4948 0 0 1 4,-3 v -8"/><path id="path4" fill="#c19a65" d="m 17,4.994 c 0,3 1,11 1,11 v 12 c 1,4 4,4 4,4 0,-6 3,-12 3,-12 a 14.6523,14.6523 0 0 1 3.3408,4.1714 C 29.8271,26.5721 32,24.994 31,22.994 c -0.8379,-1.6758 -3.0469,-5.62 -4,-7 a 7.4948,7.4948 0 0 0 -4,-3 v -8"/></g><g id="hair" transform="translate(-16,-4.994)"><path id="path5" fill="#6a462f" d="m 46.7078,33.4209 -1.5086,-5.4651 a 17.9055,17.9055 0 0 0 -1.5562,-3.7 l -2.8972,-0.1179 v -3.0352 c 0.2266,-0.0884 -3.6156,-2.24 -4.7775,-2.1052 -1.1619,0.1348 -4.4668,2.0168 -4.4668,2.0168 l 0.3715,2.24 -3.6426,1.12 c -1.1172,1.3371 -1.65,4.7741 -1.65,4.7741 l -1.6436,9.21 c -1.1972,-0.6335 -2.6386,-2.5192 -2.9365,-6.36 a 30.241,30.241 0 0 1 2,-10 l 0.3279,-1.5748 c 4.5569,4.5569 6.3244,2.9827 6.3244,2.9827 1.4085,-0.0552 -4.34,-9.2409 -4.34,-9.2409 3.166,-2.8125 5.8037,-2.7085 9.6563,-2.7085 3.8526,0 5.8242,-0.375 9.8867,2.7705 0,0 -6.3668,9.318 -4.2815,9.63 2.0853,0.312 6.5316,-3.2973 6.5631,-3.3653 0.0315,-0.068 0.3629,2.8645 0.3629,2.8645 A 33.36,33.36 0 0 1 50,31.9975 c -1.0382,2.8646 -1.7939,6.3846 -3.6057,6.9965 z"/></g><g id="line" transform="translate(-16,-4.994)"><path id="path6" d="m 41.873,29.994 a 2,2 0 1 1 -2,-2 2,2 0 0 1 2,2"/><path id="path7" d="m 33.873,29.994 a 2,2 0 1 1 -2,-2 2,2 0 0 1 2,2"/><path id="path8" fill="none" stroke="#000" stroke-linecap="round" stroke-linejoin="round" stroke-width="2" d="M 50.2387,31.908 C 49.9535,35.8348 48.6987,38.994 46,38.994"/><path id="path9" fill="none" stroke="#000" stroke-linecap="round" stroke-linejoin="round" stroke-width="2" d="M 29.1592,13.3939 A 15.8,15.8 0 0 1 36,11.994 a 15.9714,15.9714 0 0 1 6.5928,1.2847"/><path id="path10" fill="none" stroke="#000" stroke-linecap="round" stroke-linejoin="round" stroke-width="2" d="m 26,38.994 c -1.6484,0 -2.6748,-1.2109 -3.2881,-3.0449 A 16.9011,16.9011 0 0 1 22,31.994"/><path id="path11" fill="none" stroke="#000" stroke-linecap="round" stroke-linejoin="round" stroke-width="2" d="m 17,59.994 v -3 c 0,-4.9941 5.0078,-9 10,-9 q 9,7.5 18,0 c 4.9941,0 10,4.0059 10,9 v 3"/><path id="path12" d="m 41.873,29.994 a 2,2 0 1 1 -2,-2 2,2 0 0 1 2,2"/><path id="path13" d="m 33.873,29.994 a 2,2 0 1 1 -2,-2 2,2 0 0 1 2,2"/><path id="path14" fill="none" stroke="#000" stroke-linecap="round" stroke-linejoin="round" stroke-width="2" d="m 36,17.9935 a 10.6183,10.6183 0 0 0 -2.457,0.8594"/><path id="path15" fill="none" stroke="#000" stroke-linecap="round" stroke-linejoin="round" stroke-width="2" d="m 26,27.1019 a 40.3135,40.3135 0 0 0 -1.0635,6.8921 c 0,5 4.9365,11 11,11 5.9365,0 11.0635,-6 11.0635,-11 a 35.9127,35.9127 0 0 0 -1,-6.8921"/><path id="path16" fill="none" stroke="#000" stroke-linecap="round" stroke-linejoin="round" stroke-width="2" d="m 33,37.994 a 6.5535,6.5535 0 0 0 6,0"/><path id="path17" fill="none" stroke="#000" stroke-linecap="round" stroke-linejoin="round" stroke-width="2" d="m 17,5.994 c 0,3 1,10 1,10 v 12 c 1,4 4,4 4,4 0,-6 3,-12 3,-12 l 4,4 c 1,1 3,0 2,-2 a 66.7658,66.7658 0 0 0 -4,-6 7.4948,7.4948 0 0 0 -4,-3 v -7"/><path id="path18" fill="none" stroke="#000" stroke-linecap="round" stroke-linejoin="round" stroke-width="2" d="m 55.2734,5.994 c 0,3 -1,10 -1,10 v 12 c -1,4 -4,4 -4,4 0,-6 -3,-12 -3,-12 l -4,4 c -1,1 -3,0 -2,-2 a 66.7658,66.7658 0 0 1 4,-6 7.4952,7.4952 0 0 1 4,-3 v -7"/><path id="path19" fill="none" stroke="#000" stroke-linecap="round" stroke-linejoin="round" stroke-width="2" d="m 36,17.993 a 7.2883,7.2883 0 0 1 2.334,0.6675"/></g></svg>