<svg xmlns="http://www.w3.org/2000/svg" xmlns:svg="http://www.w3.org/2000/svg" id="emoji" width="45.277" height="50.678" version="1.1" viewBox="0 0 45.277 50.678"><g id="line-supplement" transform="translate(-13.753395,-10.01303)"><g id="g4"><rect id="rect1" width="3.898" height="4.931" x="15.325" y="40.826" fill="none" stroke="#000" stroke-miterlimit="10" stroke-width="1.8" rx="1.949"/><rect id="rect2" width="3.898" height="4.931" x="20.643" y="37.339" fill="none" stroke="#000" stroke-miterlimit="10" stroke-width="1.8" rx="1.949"/><rect id="rect3" width="3.898" height="4.931" x="25.805" y="39.222" fill="none" stroke="#000" stroke-miterlimit="10" stroke-width="1.8" rx="1.949"/><rect id="rect4" width="3.898" height="4.931" x="31.104" y="46.795" fill="none" stroke="#000" stroke-miterlimit="10" stroke-width="1.8" rx="1.949"/></g></g><g id="color" transform="translate(-13.753395,-10.01303)"><polygon id="polygon4" fill="#ea5a47" points="58.03 13.766 48.201 28.747 45.418 26.907 43.152 25.408 52.816 11.013"/><path id="path4" fill="#ea5a47" d="m 38.0542,35.687 c -1.2162,-0.2813 -4.1118,2.1767 -3.2232,4.243 0.7373,1.7147 0.87,1.61 0.4136,3.0789 l 3.2774,-1.3921 c 0,0 1.8132,-1.8914 1.4771,-3.45 -0.1553,-0.7202 -1.0416,-2.2709 -1.9449,-2.4798 z"/><g id="g8"><rect id="rect5" width="3.898" height="4.931" x="15.325" y="40.826" fill="#ea5a47" rx="1.949"/><rect id="rect6" width="3.898" height="4.931" x="20.643" y="37.339" fill="#ea5a47" rx="1.949"/><rect id="rect7" width="3.898" height="4.931" x="25.805" y="39.222" fill="#ea5a47" rx="1.949"/><rect id="rect8" width="3.898" height="4.931" x="31.104" y="46.795" fill="#ea5a47" rx="1.949"/></g></g><g id="skin" transform="translate(-13.753395,-10.01303)"><path id="path8" fill="#fadcbc" d="m 35.5545,49.0123 a 2.5114,2.5114 0 0 0 -1.41,-1.89 2.1722,2.1722 0 0 1 0.29,0.24 1.9859,1.9859 0 0 1 0.57,1.38 v 1.03 a 1.95,1.95 0 0 1 -3.9,0 v -1.03 a 1.9669,1.9669 0 0 1 0.98,-1.69 2.5919,2.5919 0 0 0 -1.67,1.96 l -0.08,-7.13 a 3.04,3.04 0 0 0 -1.63,-2.41 1.9247,1.9247 0 0 1 0.43,0.32 1.9677,1.9677 0 0 1 0.57,1.38 v 1.03 a 1.95,1.95 0 1 1 -3.9,0 v -1.03 a 1.9831,1.9831 0 0 1 0.82,-1.59 3.3848,3.3848 0 0 0 -1.53,2.31 l -0.03,0.01 -0.03,-2.49 a 2.4313,2.4313 0 0 0 -2.49,-2.11 2.5558,2.5558 0 0 0 -2.64,2.11 l 0.02,3.92 h -0.02 a 2.7141,2.7141 0 0 0 -2.65,-2.57 2.4906,2.4906 0 0 0 -2.57,2.57 l 0.06,17.32 h 20.96 z m -16.33,-5.2 a 1.95,1.95 0 0 1 -3.9,0 v -1.04 a 1.95,1.95 0 1 1 3.9,0 z m 5.32,-3.49 a 1.95,1.95 0 1 1 -3.9,0 v -1.03 a 1.95,1.95 0 1 1 3.9,0 z"/><path id="path9" fill="#fadcbc" d="m 35.5545,49.0123 a 2.5114,2.5114 0 0 0 -1.41,-1.89 2.1722,2.1722 0 0 1 0.29,0.24 1.9859,1.9859 0 0 1 0.57,1.38 v 1.03 a 1.95,1.95 0 0 1 -3.9,0 v -1.03 a 1.9669,1.9669 0 0 1 0.98,-1.69 2.5919,2.5919 0 0 0 -1.67,1.96 l -0.08,-7.13 a 3.04,3.04 0 0 0 -1.63,-2.41 1.9247,1.9247 0 0 1 0.43,0.32 1.9677,1.9677 0 0 1 0.57,1.38 v 1.03 a 1.95,1.95 0 1 1 -3.9,0 v -1.03 a 1.9831,1.9831 0 0 1 0.82,-1.59 3.3848,3.3848 0 0 0 -1.53,2.31 l -0.03,0.01 -0.03,-2.49 a 2.4313,2.4313 0 0 0 -2.49,-2.11 2.5558,2.5558 0 0 0 -2.64,2.11 l 0.02,3.92 h -0.02 a 2.7141,2.7141 0 0 0 -2.65,-2.57 2.4906,2.4906 0 0 0 -2.57,2.57 l 0.06,17.32 h 20.96 z m -16.33,-5.2 a 1.95,1.95 0 0 1 -3.9,0 v -1.04 a 1.95,1.95 0 1 1 3.9,0 z m 5.32,-3.49 a 1.95,1.95 0 1 1 -3.9,0 v -1.03 a 1.95,1.95 0 1 1 3.9,0 z"/></g><g id="line" transform="translate(-13.753395,-10.01303)"><g id="g13"><path id="path10" fill="none" stroke="#000" stroke-linecap="round" stroke-linejoin="round" stroke-width="2" d="M 20.1911,56.5317 19.9775,43.071 a 2.7166,2.7166 0 0 0 -2.6543,-2.5732 2.4951,2.4951 0 0 0 -2.5687,2.5682 l 0.0579,16.625"/><path id="path11" fill="none" stroke="#000" stroke-linecap="round" stroke-linejoin="round" stroke-width="2" d="m 30.5822,56.7946 -0.171,-15.1713 c 0,0 -0.2535,-2.584 -2.5475,-2.5838 -2.3,0 -2.7,2.5877 -2.7,2.5877"/><path id="path12" fill="none" stroke="#000" stroke-linecap="round" stroke-linejoin="round" stroke-width="2" d="M 35.7659,59.691 35.6278,48.7521 a 2.4433,2.4433 0 0 0 -2.499,-2.1085 2.5578,2.5578 0 0 0 -2.6371,2.11"/><path id="path13" fill="none" stroke="#000" stroke-linecap="round" stroke-linejoin="round" stroke-width="2" d="M 25.2486,55.2329 25.112,39.1482 A 2.4431,2.4431 0 0 0 22.613,37.04 2.5577,2.5577 0 0 0 19.976,39.1495 l 0.0281,5.6"/></g><line id="line13" x1="39" x2="45.418" y1="36.562" y2="26.907" fill="none" stroke="#000" stroke-linecap="round" stroke-linejoin="round" stroke-width="2"/><path id="path14" fill="none" stroke="#000" stroke-linecap="round" stroke-linejoin="round" stroke-width="2" d="m 36.0822,43.5322 c 0,0 1.87,-1.39 2.44,-1.9154 a 3.9748,3.9748 0 0 0 1.4771,-3.45 1.82,1.82 0 0 0 -2.07,-1.5135"/><polygon id="polygon14" fill="none" stroke="#000" stroke-linecap="round" stroke-linejoin="round" stroke-width="2" points="58.03 13.766 48.201 28.747 45.418 26.907 43.152 25.408 52.816 11.013"/></g></svg>