<?xml version="1.0" encoding="UTF-8" standalone="no"?>
<svg
   id="emoji"
   viewBox="0 0 40.130074 57.7192"
   version="1.1"
   sodipodi:docname="1f482-1f3fc.svg"
   width="40.130074"
   height="57.7192"
   xmlns:inkscape="http://www.inkscape.org/namespaces/inkscape"
   xmlns:sodipodi="http://sodipodi.sourceforge.net/DTD/sodipodi-0.dtd"
   xmlns="http://www.w3.org/2000/svg"
   xmlns:svg="http://www.w3.org/2000/svg">
  <defs
     id="defs19" />
  <sodipodi:namedview
     id="namedview19"
     pagecolor="#ffffff"
     bordercolor="#000000"
     borderopacity="0.25"
     inkscape:showpageshadow="2"
     inkscape:pageopacity="0.0"
     inkscape:pagecheckerboard="0"
     inkscape:deskcolor="#d1d1d1" />
  <g
     id="color"
     transform="translate(-15.810965,-1.2339)">
    <path
       fill="#ea5a47"
       d="m 54.9199,58.9415 c 0,0 4.011,-14.0016 -10.3,-14.8974 -3.1919,2.1193 -5.9264,3.5838 -9,3.5775 h 0.125 c -3.0736,0.0063 -5.8082,-1.4582 -9,-3.5775 -12,0 -10,14.8974 -10,14.8974"
       id="path1" />
    <path
       fill="#d22f27"
       d="m 45.3616,44.0895 c -3.1127,2.0751 -4.9834,3.2404 -8.9725,3.8183 12.8266,0.404 12.8266,7.1094 13.5749,11.0371 4.1614,0 5.0206,0 5.0206,0 0,0 2.1602,-14.8554 -9.623,-14.8554 z"
       id="path2" />
    <polygon
       fill="#ffffff"
       points="34.1167,58.9433 37.8001,58.9433 38.0001,52.0607 33.8167,52.0607 "
       id="polygon2" />
    <path
       fill="#3f3f3f"
       d="M 24.8721,23.026 H 46.1446 V 9.5862 c 0,-4.0604 -3.2916,-7.3521 -7.352,-7.3521 h -6.5685 c -4.0604,0 -7.352,3.2917 -7.352,7.3521 0,0 0,13.4398 0,13.4398 z"
       id="path3" />
    <path
       fill="#3f3f3f"
       d="m 44.8159,44.9433 c 1.19,0 2.24,0.13 3.17,0.36 -7.49,9.31 -18.82,7.44 -24.21,0 0.93,-0.23 1.97,-0.36 3.16,-0.36 3.16,2.09 5.86,3.55 8.88,3.59 h 0.12 c 3.02,-0.04 5.73,-1.5 8.88,-3.59 z"
       id="path4" />
  </g>
  <g
     id="hair"
     transform="translate(-15.810965,-1.2339)" />
  <g
     id="skin"
     transform="translate(-15.810965,-1.2339)">
    <path
       fill="#debb90"
       d="m 47.2076,28.8665 c 0,-2.234 -0.4439,-4.3435 -1.2315,-6.2084 l -20.5866,0.3675 c -0.694,1.7727 -1.082,3.7525 -1.082,5.841 0,0.949 0.0801,1.8756 0.2326,2.7704 1.0677,6.2642 5.4904,10.9764 11.5946,10.9764 6.1042,0 10.2669,-5.1983 10.8175,-10.8467 0.1674,-0.935 0.2554,-1.9053 0.2554,-2.9002 z"
       id="path5" />
  </g>
  <g
     id="skin-shadow"
     transform="translate(-15.810965,-1.2339)" />
  <g
     id="line"
     transform="translate(-15.810965,-1.2339)">
    <path
       d="m 41.8801,27.0871 c 0,1.1045 -0.8965,2 -2,2 -1.1035,0 -2,-0.8955 -2,-2 0,-1.1035 0.8965,-2 2,-2 1.1035,0 2,0.8965 2,2"
       id="path6" />
    <path
       d="m 33.8801,27.0871 c 0,1.1045 -0.8965,2 -2,2 -1.1035,0 -2,-0.8955 -2,-2 0,-1.1035 0.8965,-2 2,-2 1.1035,0 2,0.8965 2,2"
       id="path7" />
    <path
       d="m 35.88,37.0895 c -1.1519,0 -2.3037,-0.2861 -3.4473,-0.8579 -0.4941,-0.2471 -0.6943,-0.8477 -0.4472,-1.3418 0.2466,-0.4937 0.8462,-0.6943 1.3418,-0.4473 1.7177,0.8594 3.3877,0.8594 5.1054,0 0.4947,-0.247 1.0948,-0.0464 1.3418,0.4473 0.2471,0.4941 0.0469,1.0947 -0.4472,1.3418 -1.1436,0.5718 -2.2954,0.8579 -3.4473,0.8579 z"
       id="path8" />
    <path
       fill="none"
       stroke="#000000"
       stroke-linecap="round"
       stroke-linejoin="round"
       stroke-miterlimit="10"
       stroke-width="2"
       d="m 16.9359,57.9433 c 0,0 -1.62,-10.56 6.84,-12.64 0.93,-0.23 1.97,-0.36 3.16,-0.36 3.16,2.09 5.86,3.55 8.88,3.59 h 0.12 c 3.02,-0.04 5.73,-1.5 8.88,-3.59 1.19,0 2.24,0.13 3.17,0.36 8.45,2.09 6.83,12.64 6.83,12.64"
       id="path9" />
    <path
       fill="none"
       stroke="#000000"
       stroke-linecap="round"
       stroke-linejoin="round"
       stroke-miterlimit="10"
       stroke-width="2"
       d="m 23.7759,45.3033 c 5.39,7.44 16.72,9.31 24.21,0"
       id="path10" />
    <path
       d="m 34.2207,58.9531 c -0.5527,0 -1,-0.4472 -1,-1 v -6.4013 c 0,-0.5528 0.4473,-1 1,-1 0.5527,0 1,0.4472 1,1 v 6.4013 c 0,0.5528 -0.4473,1 -1,1 z"
       id="path11" />
    <path
       d="m 37.7793,58.9531 c -0.5527,0 -1,-0.4472 -1,-1 v -6.4326 c 0,-0.5527 0.4473,-1 1,-1 0.5527,0 1,0.4473 1,1 v 6.4326 c 0,0.5528 -0.4473,1 -1,1 z"
       id="path12" />
    <path
       d="M 46.4443,24.0259 H 25.1719 c -0.5528,0 -1,-0.4478 -1,-1 V 9.5864 c 0,-4.6054 3.747,-8.3525 8.3525,-8.3525 h 6.5684 c 4.6054,0 8.3515,3.7471 8.3515,8.3525 v 13.4395 c 0,0.5522 -0.4472,1 -1,1 z m -20.2724,-2 H 45.4443 V 9.5864 c 0,-3.5029 -2.8496,-6.3525 -6.3515,-6.3525 h -6.5684 c -3.5029,0 -6.3525,2.8496 -6.3525,6.3525 z"
       id="path13" />
    <path
       d="m 41.8758,27.0792 c 0,1.1045 -0.8965,2 -2,2 -1.1035,0 -2,-0.8955 -2,-2 0,-1.1035 0.8965,-2 2,-2 1.1035,0 2,0.8965 2,2"
       id="path14" />
    <path
       d="m 33.8758,27.0792 c 0,1.1045 -0.8965,2 -2,2 -1.1035,0 -2,-0.8955 -2,-2 0,-1.1035 0.8965,-2 2,-2 1.1035,0 2,0.8965 2,2"
       id="path15" />
    <path
       d="m 35.8757,37.0817 c -1.1519,0 -2.3037,-0.2862 -3.4473,-0.8579 -0.4941,-0.2471 -0.6943,-0.8477 -0.4472,-1.3418 0.2465,-0.4937 0.8461,-0.6944 1.3418,-0.4473 1.7177,0.8594 3.3876,0.8594 5.1054,0 0.4947,-0.2471 1.0947,-0.0464 1.3418,0.4473 0.2471,0.4941 0.0469,1.0947 -0.4472,1.3418 -1.1436,0.5717 -2.2955,0.8579 -3.4473,0.8579 z"
       id="path16" />
    <path
       d="m 35.876,43.6133 c -6.8037,0 -12.3389,-6.8067 -12.3389,-15.1734 0,-1.8813 0.2764,-3.7172 0.8203,-5.4565 0.1651,-0.5264 0.7227,-0.8203 1.253,-0.6558 0.5263,0.1651 0.8203,0.7261 0.6552,1.2535 -0.4834,1.5454 -0.7285,3.1801 -0.7285,4.8588 0,7.2642 4.6377,13.1734 10.3389,13.1734 5.7002,0 10.3379,-5.9092 10.3379,-13.1734 0,-1.0756 -0.1016,-2.142 -0.3018,-3.1699 -0.1094,-0.563 -0.251,-1.1255 -0.4209,-1.6723 -0.1641,-0.5274 0.1309,-1.0879 0.6582,-1.252 0.5313,-0.165 1.0889,0.1314 1.252,0.6582 0.1914,0.6167 0.3506,1.2505 0.4736,1.8843 0.2246,1.1528 0.3389,2.3481 0.3389,3.5517 0,8.3667 -5.5352,15.1734 -12.3379,15.1734 z"
       id="path17" />
    <path
       fill="none"
       stroke="#000000"
       stroke-linecap="round"
       stroke-linejoin="round"
       stroke-miterlimit="10"
       stroke-width="2"
       d="m 17.7153,44.4632 c 1.5814,-1.107 3.6505,-1.9636 6.3522,-2.3986"
       id="path18" />
    <path
       fill="none"
       stroke="#000000"
       stroke-linecap="round"
       stroke-linejoin="round"
       stroke-miterlimit="10"
       stroke-width="2"
       d="m 54.2847,44.4632 c -1.5814,-1.107 -3.6505,-1.9636 -6.3522,-2.3986"
       id="path19" />
  </g>
</svg>
