<?xml version="1.0" encoding="UTF-8" standalone="no"?>
<svg
   id="emoji"
   viewBox="0 0 57.752556 50.903301"
   version="1.1"
   sodipodi:docname="1f487-1f3fe-200d-2640-fe0f.svg"
   width="57.752556"
   height="50.903301"
   xmlns:inkscape="http://www.inkscape.org/namespaces/inkscape"
   xmlns:sodipodi="http://sodipodi.sourceforge.net/DTD/sodipodi-0.dtd"
   xmlns="http://www.w3.org/2000/svg"
   xmlns:svg="http://www.w3.org/2000/svg">
  <defs
     id="defs15" />
  <sodipodi:namedview
     id="namedview15"
     pagecolor="#ffffff"
     bordercolor="#000000"
     borderopacity="0.25"
     inkscape:showpageshadow="2"
     inkscape:pageopacity="0.0"
     inkscape:pagecheckerboard="0"
     inkscape:deskcolor="#d1d1d1" />
  <g
     id="color"
     transform="translate(-6.9308,-10.08)">
    <path
       fill="#92d3f5"
       d="m 7.9308,60.9413 v -3.958 c 0,-4.9941 5.0078,-9 10,-9 q 9,7.5 18,0 c 4.9941,0 10,4.0059 10,9 v 3.958"
       id="path1" />
    <path
       fill="#9b9b9a"
       d="m 57.8244,39.9335 a 5.0006,5.0006 0 1 1 -8.1446,-0.2012 l -0.499,-0.749 0.6875,-0.5625 -2.75,-3.0625 -1.5,-3.625 -0.1943,-4.3286 2.5732,1.2036 9.6836,9.875 c 0,0 1.0625,0.9355 1,1.249"
       id="path2" />
    <path
       fill="#d0cfce"
       d="m 53.6808,31.7333 a 5.0351,5.0351 0 0 0 0.1006,1 l -15.8506,0.25 c 0,0 0.75,3.75 3.75,3.75 h 17 a 5,5 0 1 0 -5,-5 z"
       id="path3" />
  </g>
  <g
     id="skin"
     transform="translate(-6.9308,-10.08)">
    <path
       fill="#a57939"
       d="m 15.8673,30.9834 c 0.6284,8.978 4.9365,14 11,14 5.9365,0 11.0635,-5 11.0635,-14 a 12.1332,12.1332 0 0 0 -1,-5 A 49.876,49.876 0 0 0 31.862,19.08 125.5714,125.5714 0 0 1 16.392,29.191 c -0.482,0.8809 -0.835,-2.641 -0.5247,1.7924 z"
       id="path4" />
  </g>
  <g
     id="hair"
     transform="translate(-6.9308,-10.08)">
    <path
       fill="#000000"
       d="m 51.2824,47.1215 c -2.7869,0.5105 -2.1016,-8.1382 -2.1016,-8.1382 l 0.6875,-0.5625 -1.4345,-1.672 a 29.2959,29.2959 0 0 0 -6.3235,-0.3276 c -3.1782,0.2293 -3.5059,-3.342 -3.5059,-3.342 l 6.5857,-0.36 c -1.4726,-3.27 -1.0107,-3.9218 -1.3359,-9.953 0.0272,-3.6929 -6.876,-8.4006 -10.5567,-8.7091 a 1.0011,1.0011 0 0 1 -0.6884,-0.3434 c -0.0928,-0.1 -2.4082,-2.6546 -7.2432,-2.6546 -6.2,0 -11.4413,3.3817 -12.7429,8.226 a 18.518,18.518 0 0 0 -0.5646,6.1758 13.3169,13.3169 0 0 1 -0.7607,5.9608 6.8,6.8 0 0 1 -1.1193,2.0879 c -3.7725,4.42 -0.9746,14.3029 -1.167,14.01 a 24.0576,24.0576 0 0 0 3.6332,2.7193 10.4637,10.4637 0 0 1 5.361,-2.09 c 6.2089,5.0127 12.4951,5.0127 18.7,0 a 8.343,8.343 0 0 1 4.2088,1.5136 c 0,0 4.6954,3.0582 5.6024,5.93 0,0 5.776,0.1631 7.4069,-7.0171 z M 27.6039,45.08 C 15.9236,45.6 15.88,29.9794 15.88,29.9794 17.249,27.5499 32.0314,19.6926 32.0314,19.6926 a 14.5083,14.5083 0 0 1 5.56,8.2907 c 0,0 1.6927,16.5767 -9.9875,17.0967 z"
       id="path5" />
  </g>
  <g
     id="line"
     transform="translate(-6.9308,-10.08)">
    <circle
       cx="58.680801"
       cy="31.733299"
       r="2"
       id="circle5" />
    <path
       fill="none"
       stroke="#000000"
       stroke-linecap="round"
       stroke-linejoin="round"
       stroke-width="2"
       d="m 7.9308,59.9833 v -3 c 0,-4.9941 5.0078,-9 10,-9 q 9,7.5 18,0 c 4.9941,0 10,4.0059 10,9 v 3"
       id="path6" />
    <path
       d="m 32.8038,29.9833 a 2,2 0 1 1 -2,-2 2,2 0 0 1 2,2"
       id="path7" />
    <path
       d="m 24.8038,29.9833 a 2,2 0 1 1 -2,-2 2,2 0 0 1 2,2"
       id="path8" />
    <path
       fill="none"
       stroke="#000000"
       stroke-linecap="round"
       stroke-linejoin="round"
       stroke-width="2"
       d="m 23.9308,37.9833 a 6.5535,6.5535 0 0 0 6,0"
       id="path9" />
    <path
       fill="none"
       stroke="#000000"
       stroke-linecap="round"
       stroke-linejoin="round"
       stroke-width="2"
       d="m 53.6808,31.7333 a 5.0351,5.0351 0 0 0 0.1006,1 l -15.8506,0.25 c 0,0 0.75,3.75 3.75,3.75 h 17 a 5,5 0 1 0 -5,-5 z"
       id="path10" />
    <path
       fill="none"
       stroke="#000000"
       stroke-linecap="round"
       stroke-linejoin="round"
       stroke-width="2"
       d="M 57.8244,39.9335 A 5.0006,5.0006 0 1 1 49.6798,39.7323"
       id="path11" />
    <path
       fill="none"
       stroke="#000000"
       stroke-linecap="round"
       stroke-linejoin="round"
       stroke-width="2"
       d="m 44.4093,26.7235 a 3.0643,3.0643 0 0 1 0.749,0.4434 3.2181,3.2181 0 0 1 0.2657,0.2378 l 2.5732,2.5747"
       id="path12" />
    <circle
       cx="53.680901"
       cy="42.7327"
       r="1.9995"
       id="circle12" />
    <path
       fill="none"
       stroke="#000000"
       stroke-linecap="round"
       stroke-linejoin="round"
       stroke-width="2"
       d="m 9.6823,46.8046 c -3.7227,-5.8565 -0.628,-10.08 1.18,-14.7246 1.6357,-4.2 -0.209,-6.4512 1.291,-12.0342 1.4795,-5.5 7.2773,-8.9658 13.709,-8.9658 5.4,0 8,3 8,3 4.1689,0.374 9.0277,3.7029 9.9921,8.6858 0.4,2.2352 0.1331,6.1765 1.57,9.5969"
       id="path13" />
    <path
       fill="none"
       stroke="#000000"
       stroke-linejoin="round"
       stroke-width="2"
       d="m 15.862,31.08 c 0,8 5,14 11,14 6,0 11,-6 11,-14 0,-5 -2,-8 -6,-12 -4,4 -16,9 -16,11 z"
       id="path14" />
    <path
       fill="none"
       stroke="#000000"
       stroke-linecap="round"
       stroke-linejoin="round"
       stroke-width="2"
       d="m 53.3035,47.9833 a 11.5815,11.5815 0 0 1 -2.0211,4.1294"
       id="path15" />
  </g>
</svg>
