<svg xmlns="http://www.w3.org/2000/svg" xmlns:svg="http://www.w3.org/2000/svg" id="emoji" width="49" height="48.04" version="1.1" viewBox="0 0 49 48.04"><g id="color" transform="translate(-11.5,-11.5)"><path id="path1" fill="#ffa7c0" d="M 59.5,25 C 59.5,18.0964 53.9036,12.5 47,12.5 42.2467,12.5 38.1139,15.1536 36,19.0598 33.8861,15.1536 29.7533,12.5 25,12.5 c -6.9036,0 -12.5,5.5964 -12.5,12.5 0,2.9699 1.0403,5.6942 2.7703,7.8387 L 15.266,32.8421 36,58.5397 56.7339,32.8422 56.7296,32.8388 C 58.4597,30.6942 59.5,27.9699 59.5,25 Z"/><path id="path2" fill="#e67a94" d="m 56.4172,29.3999 c 0,-5.9979 -4.8623,-10.8602 -10.8602,-10.8602 -4.1297,0 -7.7204,2.3055 -9.557,5.6992 -1.8366,-3.3937 -5.4272,-5.6992 -9.557,-5.6992 -5.9979,0 -10.8602,4.8623 -10.8602,10.8602 0,2.5803 0.9039,4.9472 2.4069,6.8104 L 17.986,36.2133 36,58.5397 54.014,36.2133 54.0103,36.2103 c 1.503,-1.8633 2.4069,-4.2301 2.4069,-6.8104 z"/><path id="path3" fill="#ffa7c0" d="m 53.865,33.0423 c 0,-5.2482 -4.2545,-9.5027 -9.5027,-9.5027 -3.6135,0 -6.7553,2.0173 -8.3624,4.9868 -1.607,-2.9695 -4.7488,-4.9868 -8.3624,-4.9868 -5.2482,0 -9.5027,4.2545 -9.5027,9.5027 0,2.2578 0.7909,4.3288 2.106,5.9591 L 20.2376,39.004 36,58.5397 51.7622,39.0041 51.759,39.0015 c 1.3151,-1.6304 2.106,-3.7014 2.106,-5.9592 z"/><path id="path4" fill="#e67a94" d="m 51.3129,36.6848 c 0,-4.4984 -3.6467,-8.1451 -8.1451,-8.1451 -3.0973,0 -5.7903,1.7291 -7.1677,4.2744 -1.3774,-2.5453 -4.0704,-4.2744 -7.1677,-4.2744 -4.4984,0 -8.1451,3.6467 -8.1451,8.1451 0,1.9352 0.6779,3.7104 1.8052,5.1078 L 22.4897,41.7948 36,58.5397 49.5105,41.7949 49.5077,41.7927 c 1.1273,-1.3975 1.8052,-3.1726 1.8052,-5.1079 z"/></g><g id="line" transform="translate(-11.5,-11.5)"><path id="path5" fill="none" stroke="#000" stroke-linejoin="round" stroke-miterlimit="10" stroke-width="2" d="M 59.5,25 C 59.5,18.0964 53.9036,12.5 47,12.5 42.2467,12.5 38.1139,15.1536 36,19.0598 33.8861,15.1536 29.7533,12.5 25,12.5 c -6.9036,0 -12.5,5.5964 -12.5,12.5 0,2.9699 1.0403,5.6942 2.7703,7.8387 L 15.266,32.8421 36,58.5397 56.7339,32.8422 56.7296,32.8388 C 58.4597,30.6942 59.5,27.9699 59.5,25 Z"/></g></svg>