<svg xmlns="http://www.w3.org/2000/svg" xmlns:svg="http://www.w3.org/2000/svg" id="emoji" width="42" height="66" version="1.1" viewBox="0 0 42 66"><g id="color" transform="translate(-15.0001,-3.0030248)"><path id="path1" fill="#92d3f5" stroke="none" d="m 56.0001,46.7065 c 0,11.7749 -8.9543,21.2965 -20,21.2965 -11.0457,0 -20,-9.5455 -20,-21.3204 0,0 -0.2191,-14.3086 16.6559,-40.1878 0,0 3.1666,-5.3703 6.3541,-0.3523 16.875,25.8791 16.99,40.564 16.99,40.564"/><path id="path2" fill="#61b2e4" stroke="none" d="m 36,3.9991 c 12.875,10.3759 19.875,40.8753 19.875,40.8753 0,15.0006 -8.8293,23.1265 -19.875,23.1265 0,0 22,-18.1265 0,-64.0018"/></g><g id="line" transform="translate(-15.0001,-3.0030248)"><path id="path3" fill="none" stroke="#000" stroke-linecap="round" stroke-linejoin="round" stroke-miterlimit="10" stroke-width="2" d="m 56.0001,46.7065 c 0,11.7749 -8.9543,21.2965 -20,21.2965 -11.0457,0 -20,-9.5455 -20,-21.3204 0,0 -0.2191,-14.3086 16.6559,-40.1878 0,0 3.1666,-5.3703 6.3541,-0.3523 16.875,25.8791 16.99,40.564 16.99,40.564"/></g></svg>