<?xml version="1.0" encoding="UTF-8" standalone="no"?>
<svg
   id="emoji"
   viewBox="0 0 57.473602 57.6464"
   version="1.1"
   sodipodi:docname="1f4a3.svg"
   width="57.473602"
   height="57.6464"
   xmlns:inkscape="http://www.inkscape.org/namespaces/inkscape"
   xmlns:sodipodi="http://sodipodi.sourceforge.net/DTD/sodipodi-0.dtd"
   xmlns="http://www.w3.org/2000/svg"
   xmlns:svg="http://www.w3.org/2000/svg">
  <defs
     id="defs2" />
  <sodipodi:namedview
     id="namedview2"
     pagecolor="#ffffff"
     bordercolor="#000000"
     borderopacity="0.25"
     inkscape:showpageshadow="2"
     inkscape:pageopacity="0.0"
     inkscape:pagecheckerboard="0"
     inkscape:deskcolor="#d1d1d1" />
  <g
     id="color"
     transform="translate(-7.7689991,-6.7574)">
    <rect
       x="42.999802"
       y="15.7214"
       width="10.9999"
       height="15.5562"
       transform="matrix(0.7071,-0.7071,0.7071,0.7071,-2.4114,41.1773)"
       fill="#9b9b9a"
       id="rect1" />
    <polygon
       fill="#3f3f3f"
       points="57.8891,25.1109 52.5221,30.4779 46.0339,22.2119 50.512,17.7338 "
       id="polygon1" />
    <circle
       cx="31.768999"
       cy="40.403801"
       r="23"
       fill="#9b9b9a"
       id="circle1" />
    <path
       fill="#3f3f3f"
       d="m 19.6333,55.7374 c 12.7025,0 23,-10.2975 23,-23 0,-5.5327 -1.9548,-10.6081 -5.2097,-14.5762 9.8615,2.5932 17.1357,11.5674 17.1357,22.2428 0,12.7025 -10.2975,23 -23,23 -7.1697,0 -13.5723,-3.2816 -17.7903,-8.4237 1.8726,0.4922 3.8373,0.7571 5.8643,0.7571 z"
       id="path1" />
  </g>
  <g
     id="hair"
     transform="translate(-7.7689991,-6.7574)" />
  <g
     id="skin"
     transform="translate(-7.7689991,-6.7574)" />
  <g
     id="skin-shadow"
     transform="translate(-7.7689991,-6.7574)" />
  <g
     id="line"
     transform="translate(-7.7689991,-6.7574)">
    <polyline
       fill="none"
       stroke="#000000"
       stroke-linecap="round"
       stroke-linejoin="round"
       stroke-miterlimit="10"
       stroke-width="2"
       points="41.4601,19.5393 46.8889,14.1105 57.8887,25.1103 52.5218,30.4773"
       id="polyline1" />
    <circle
       cx="31.768999"
       cy="40.403801"
       r="23"
       fill="none"
       stroke="#000000"
       stroke-linecap="round"
       stroke-linejoin="round"
       stroke-miterlimit="10"
       stroke-width="2"
       id="circle2" />
    <line
       x1="55.757401"
       x2="64.242599"
       y1="16.242599"
       y2="7.7574"
       fill="none"
       stroke="#000000"
       stroke-linecap="round"
       stroke-linejoin="round"
       stroke-miterlimit="10"
       stroke-width="2"
       id="line2" />
  </g>
</svg>
