<svg xmlns="http://www.w3.org/2000/svg" xmlns:svg="http://www.w3.org/2000/svg" id="emoji" width="50.897" height="49.998" version="1.1" viewBox="0 0 50.897 49.998"><g id="color" transform="translate(-10.101469,-11.001154)"><path id="path1" fill="#ea5a47" d="m 36,16.54 c -8.293,0 -16.662,-4.3137 -16.662,-4.3137 -0.9777,-0.504 -1.3268,-0.1374 -0.7757,0.8146 0,0 5.9136,10.2144 17.4377,10.1261 11.5242,0.0883 17.4377,-10.1261 17.4377,-10.1261 0.5512,-0.952 0.2021,-1.3186 -0.7757,-0.8146 0,0 -8.3689,4.3137 -16.662,4.3137 z"/><path id="path2" fill="#ea5a47" d="m 36,55.46 c 8.2931,0 16.662,4.3137 16.662,4.3137 0.9778,0.504 1.3269,0.1374 0.7757,-0.8145 0,0 -5.9135,-10.2145 -17.4377,-10.1262 -11.5241,-0.0883 -17.4377,10.1262 -17.4377,10.1262 -0.5511,0.9519 -0.202,1.3185 0.7757,0.8145 0,0 8.369,-4.3137 16.662,-4.3137 z"/><path id="path3" fill="#ea5a47" d="m 55.46,36 c 0,-8.293 4.3137,-16.662 4.3137,-16.662 0.504,-0.9777 0.1374,-1.3268 -0.8146,-0.7756 0,0 -10.2144,5.9135 -10.1261,17.4376 -0.0883,11.5242 10.1261,17.4377 10.1261,17.4377 0.952,0.5512 1.3186,0.2021 0.8146,-0.7756 0,-2e-4 -4.3137,-8.369 -4.3137,-16.6621 z"/><path id="path4" fill="#ea5a47" d="M 22.167,35.9999 C 22.2641,23.323 14.0321,19.7151 12.0409,18.5623 c -0.952,-0.5512 -1.3186,-0.2021 -0.8146,0.7756 0,0 5.0637,8.369 5.0637,16.662 0,8.293 -5.0637,16.6619 -5.0637,16.6621 -0.504,0.9777 -0.1374,1.3268 0.8146,0.7756 1.9912,-1.1528 10.2232,-4.7607 10.1261,-17.4377"/></g><g id="line" transform="translate(-10.101469,-11.001154)"><path id="path5" fill="none" stroke="#000" stroke-linecap="round" stroke-miterlimit="10" stroke-width="2" d="m 36,16.54 c -8.293,0 -16.662,-4.3137 -16.662,-4.3137 -0.9777,-0.504 -1.3268,-0.1374 -0.7757,0.8146 0,0 5.9136,10.2144 17.4377,10.1261 11.5242,0.0883 17.4377,-10.1261 17.4377,-10.1261 0.5512,-0.952 0.2021,-1.3186 -0.7757,-0.8146 0,0 -8.3689,4.3137 -16.662,4.3137 z"/><path id="path6" fill="none" stroke="#000" stroke-linecap="round" stroke-miterlimit="10" stroke-width="2" d="m 36,55.46 c 8.2931,0 16.662,4.3137 16.662,4.3137 0.9778,0.504 1.3269,0.1374 0.7757,-0.8145 0,0 -5.9135,-10.2145 -17.4377,-10.1262 -11.5241,-0.0883 -17.4377,10.1262 -17.4377,10.1262 -0.5511,0.9519 -0.202,1.3185 0.7757,0.8145 0,0 8.369,-4.3137 16.662,-4.3137 z"/><path id="path7" fill="none" stroke="#000" stroke-linecap="round" stroke-miterlimit="10" stroke-width="2" d="m 55.46,36 c 0,-8.293 4.3137,-16.662 4.3137,-16.662 0.504,-0.9777 0.1374,-1.3268 -0.8146,-0.7756 0,0 -10.2144,5.9135 -10.1261,17.4376 -0.0883,11.5242 10.1261,17.4377 10.1261,17.4377 0.952,0.5512 1.3186,0.2021 0.8146,-0.7756 0,-2e-4 -4.3137,-8.369 -4.3137,-16.6621 z"/><path id="path8" fill="none" stroke="#000" stroke-linecap="round" stroke-miterlimit="10" stroke-width="2" d="m 11.2263,52.662 c -0.504,0.9777 0.6126,1.3268 1.5646,0.7756 0,0 9.9644,-5.9135 9.8761,-17.4377 0.0883,-11.5241 -9.8761,-17.4376 -9.8761,-17.4376 -0.952,-0.5512 -1.3186,-0.2021 -0.8146,0.7756 0,0 4.3137,8.369 4.3137,16.662 0,8.293 -5.0637,16.6619 -5.0637,16.6621 z"/></g></svg>