<svg xmlns="http://www.w3.org/2000/svg" xmlns:svg="http://www.w3.org/2000/svg" id="emoji" width="48.007" height="54.4" version="1.1" viewBox="0 0 48.007 54.4"><g id="color" transform="translate(-11.995,-11.9991)"><path id="path1" fill="#fff" d="M 17.09,50.75 C 13.906,46.677 12.002,41.559 12.002,36 c 0,-13.23 10.77,-24 24,-24 13.23,0 24,10.77 24,24 0,13.23 -10.77,24 -24,24 -1.955,0 -3.855,-0.2406 -5.676,-0.6839 -5.919,-1.481 -10.33,-4.341 -13.24,-8.567 z"/><circle id="circle1" cx="23.48" cy="54.97" r="5" fill="#fff"/><circle id="circle2" cx="-15.8" cy="62.94" r="2.5" fill="#fff" transform="scale(-1,1)"/></g><g id="line" transform="translate(-11.995,-11.9991)"><path id="path2" fill="none" stroke="#000" stroke-linecap="round" stroke-miterlimit="10" stroke-width="2" d="m 31.54,58.56 c 1.442,0.2858 2.93,0.4391 4.455,0.4391 12.68,0 23,-10.32 23,-23 0,-12.68 -10.32,-23 -23,-23 -12.68,0 -23,10.32 -23,23 0,4.913 1.552,9.467 4.187,13.21"/><circle id="circle3" cx="26.79" cy="36" r="2"/><circle id="circle4" cx="36" cy="36" r="2"/><circle id="circle5" cx="45.21" cy="36" r="2"/><circle id="circle6" cx="-4.026" cy="64.73" r="2.5" fill="none" stroke="#000" stroke-miterlimit="10" stroke-width="2" transform="matrix(-0.9831,0.1829,0.1829,0.9831,0,0)"/><circle id="circle7" cx="-13.58" cy="57.88" r="4.981" fill="none" stroke="#000" stroke-miterlimit="10" stroke-width="2" transform="matrix(-0.9831,0.1829,0.1829,0.9831,0,0)"/></g></svg>