<?xml version="1.0" encoding="UTF-8" standalone="no"?>
<svg
   id="emoji"
   viewBox="0 0 54.637936 53.746628"
   version="1.1"
   sodipodi:docname="1f4ae.svg"
   width="54.637936"
   height="53.746628"
   xmlns:inkscape="http://www.inkscape.org/namespaces/inkscape"
   xmlns:sodipodi="http://sodipodi.sourceforge.net/DTD/sodipodi-0.dtd"
   xmlns="http://www.w3.org/2000/svg"
   xmlns:svg="http://www.w3.org/2000/svg">
  <defs
     id="defs18" />
  <sodipodi:namedview
     id="namedview18"
     pagecolor="#ffffff"
     bordercolor="#000000"
     borderopacity="0.25"
     inkscape:showpageshadow="2"
     inkscape:pageopacity="0.0"
     inkscape:pagecheckerboard="0"
     inkscape:deskcolor="#d1d1d1" />
  <g
     id="color"
     transform="translate(-9.8274231,-8.2258387)" />
  <g
     id="line"
     transform="translate(-9.8274231,-8.2258387)">
    <path
       fill="none"
       stroke="#000000"
       stroke-linecap="round"
       stroke-linejoin="round"
       stroke-width="2"
       d="M 46.92,17.2654 C 46.7706,14.7545 46.0504,12.3107 44.8143,10.12 l -2.1438,1.3618 -1.333,-2.256 c -2.1398,1.3226 -3.9498,3.1159 -5.2922,5.2433"
       id="path1" />
    <path
       fill="none"
       stroke="#000000"
       stroke-linecap="round"
       stroke-linejoin="round"
       stroke-width="2"
       d="m 14.2585,30.41 c -1.6317,-1.9146 -2.8052,-4.1762 -3.4311,-6.6126 l 2.4895,-0.5028 -0.6013,-2.55 c 2.4595,-0.5283 5.0071,-0.4886 7.4489,0.116"
       id="path2" />
    <path
       fill="none"
       stroke="#000000"
       stroke-linecap="round"
       stroke-linejoin="round"
       stroke-width="2"
       d="m 37.6369,56.4975 c 1.6192,1.9252 3.6561,3.4556 5.9559,4.475 L 44.5,58.6 46.9163,59.6138 C 47.8428,57.2752 48.2237,54.756 48.03,52.248"
       id="path3" />
    <path
       fill="none"
       stroke="#000000"
       stroke-linecap="round"
       stroke-linejoin="round"
       stroke-width="2"
       d="m 58.0122,38.7622 c 2.1801,-1.2552 4.0451,-2.9911 5.4532,-5.0757 l -2.176,-1.31 1.4232,-2.2 c -2.139,-1.3239 -4.5519,-2.1424 -7.0549,-2.3932"
       id="path4" />
    <path
       fill="none"
       stroke="#000000"
       stroke-linecap="round"
       stroke-linejoin="round"
       stroke-width="2"
       d="m 21.4294,53.4844 c -2.4418,0.6048 -4.9894,0.6446 -7.4489,0.1165 l 0.662,-2.452 -2.55,-0.601 c 0.6257,-2.4366 1.799,-4.6983 3.4306,-6.613"
       id="path5" />
    <path
       fill="none"
       stroke="#000000"
       stroke-linecap="round"
       stroke-linejoin="round"
       stroke-width="2"
       d="M 29.5691,32.7 C 26.3469,30.0468 23.038,25.3937 26.0316,17.3664 l 2.3115,0.9849 v 0"
       id="path6" />
    <path
       fill="none"
       stroke="#000000"
       stroke-linecap="round"
       stroke-linejoin="round"
       stroke-width="2"
       d="m 28.24,18.393 v 0 l 0.9849,-2.3115 c 7.7195,3.716 8.5562,9.364 8.07,13.51 l 0.206,-0.0829 c 1.25,-3.7348 4.334,-7.9683 12.6227,-8.1919 l -0.098,2.4333 v 0 l 2.4333,0.098 c -0.3168,5.736 -4.122,10.6894 -9.5825,12.474"
       id="path7" />
    <path
       fill="none"
       stroke="#000000"
       stroke-linecap="round"
       stroke-linejoin="round"
       stroke-width="2"
       d="m 29.5691,32.7 c -3.4885,-1.8278 -8.5424,-2.7863 -14.6753,2.7938 l 1.7562,1.6874 v 0 l -1.6872,1.7562 c 4.2018,3.9178 10.3775,4.8547 15.5522,2.3593"
       id="path8" />
    <path
       fill="none"
       stroke="#000000"
       stroke-linecap="round"
       stroke-linejoin="round"
       stroke-width="2"
       d="m 30.412,41.3381 c -4.4006,3.4813 -6.2347,9.2934 -4.6293,14.67 l 2.3492,-0.706 v 0 l 0.706,2.3492 C 40.953,53.2548 37.7145,42.828 37.7145,42.828 l 0.7211,-0.29 c 0,0 5.0513,9.5776 16.7732,4.5012 l -1.015,-2.2248 v 0 l 2.1833,-1.118 C 53.7805,38.736 48.4533,35.8261 42.8764,36.322"
       id="path9" />
  </g>
  <g
     id="color-foreground"
     transform="translate(-9.8274231,-8.2258387)">
    <path
       fill="none"
       stroke="#d22f27"
       stroke-linecap="round"
       stroke-linejoin="round"
       stroke-width="2"
       d="M 46.92,17.2654 C 46.7706,14.7545 46.0504,12.3107 44.8143,10.12 l -2.1438,1.3618 -1.333,-2.256 c -2.1398,1.3226 -3.9498,3.1159 -5.2922,5.2433"
       id="path10" />
    <path
       fill="none"
       stroke="#d22f27"
       stroke-linecap="round"
       stroke-linejoin="round"
       stroke-width="2"
       d="m 14.2585,30.41 c -1.6317,-1.9146 -2.8052,-4.1762 -3.4311,-6.6126 l 2.4895,-0.5028 -0.6013,-2.55 c 2.4595,-0.5283 5.0071,-0.4886 7.4489,0.116"
       id="path11" />
    <path
       fill="none"
       stroke="#d22f27"
       stroke-linecap="round"
       stroke-linejoin="round"
       stroke-width="2"
       d="m 37.6369,56.4975 c 1.6192,1.9252 3.6561,3.4556 5.9559,4.475 L 44.5,58.6 46.9163,59.6138 C 47.8428,57.2752 48.2237,54.756 48.03,52.248"
       id="path12" />
    <path
       fill="none"
       stroke="#d22f27"
       stroke-linecap="round"
       stroke-linejoin="round"
       stroke-width="2"
       d="m 58.0122,38.7622 c 2.1801,-1.2552 4.0451,-2.9911 5.4532,-5.0757 l -2.176,-1.31 1.4232,-2.2 c -2.139,-1.3239 -4.5519,-2.1424 -7.0549,-2.3932"
       id="path13" />
    <path
       fill="none"
       stroke="#d22f27"
       stroke-linecap="round"
       stroke-linejoin="round"
       stroke-width="2"
       d="m 21.4294,53.4844 c -2.4418,0.6048 -4.9894,0.6446 -7.4489,0.1165 l 0.662,-2.452 -2.55,-0.601 c 0.6257,-2.4366 1.799,-4.6983 3.4306,-6.613"
       id="path14" />
    <path
       fill="none"
       stroke="#d22f27"
       stroke-linecap="round"
       stroke-linejoin="round"
       stroke-width="2"
       d="M 29.5691,32.7 C 26.3469,30.0468 23.038,25.3937 26.0316,17.3664 l 2.3115,0.9849 v 0"
       id="path15" />
    <path
       fill="none"
       stroke="#d22f27"
       stroke-linecap="round"
       stroke-linejoin="round"
       stroke-width="2"
       d="m 28.24,18.393 v 0 l 0.9849,-2.3115 c 7.7195,3.716 8.5562,9.364 8.07,13.51 l 0.206,-0.0829 c 1.25,-3.7348 4.334,-7.9683 12.6227,-8.1919 l -0.098,2.4333 v 0 l 2.4333,0.098 c -0.3168,5.736 -4.122,10.6894 -9.5825,12.474"
       id="path16" />
    <path
       fill="none"
       stroke="#d22f27"
       stroke-linecap="round"
       stroke-linejoin="round"
       stroke-width="2"
       d="m 29.5691,32.7 c -3.4885,-1.8278 -8.5424,-2.7863 -14.6753,2.7938 l 1.7562,1.6874 v 0 l -1.6872,1.7562 c 4.2018,3.9178 10.3775,4.8547 15.5522,2.3593"
       id="path17" />
    <path
       fill="none"
       stroke="#d22f27"
       stroke-linecap="round"
       stroke-linejoin="round"
       stroke-width="2"
       d="m 30.412,41.3381 c -4.4006,3.4813 -6.2347,9.2934 -4.6293,14.67 l 2.3492,-0.706 v 0 l 0.706,2.3492 C 40.953,53.2548 37.7145,42.828 37.7145,42.828 l 0.7211,-0.29 c 0,0 5.0513,9.5776 16.7732,4.5012 l -1.015,-2.2248 v 0 l 2.1833,-1.118 C 53.7805,38.736 48.4533,35.8261 42.8764,36.322"
       id="path18" />
  </g>
</svg>
