<?xml version="1.0" encoding="UTF-8" standalone="no"?>
<svg
   id="emoji"
   viewBox="0 0 42 65.999977"
   version="1.1"
   sodipodi:docname="1f4a7.svg"
   width="42"
   height="65.999977"
   xmlns:inkscape="http://www.inkscape.org/namespaces/inkscape"
   xmlns:sodipodi="http://sodipodi.sourceforge.net/DTD/sodipodi-0.dtd"
   xmlns="http://www.w3.org/2000/svg"
   xmlns:svg="http://www.w3.org/2000/svg">
  <defs
     id="defs3" />
  <sodipodi:namedview
     id="namedview3"
     pagecolor="#ffffff"
     bordercolor="#000000"
     borderopacity="0.25"
     inkscape:showpageshadow="2"
     inkscape:pageopacity="0.0"
     inkscape:pagecheckerboard="0"
     inkscape:deskcolor="#d1d1d1" />
  <g
     id="color"
     transform="translate(-15.0001,-3.0030248)">
    <path
       fill="#92d3f5"
       stroke="none"
       d="m 56.0001,46.7065 c 0,11.7749 -8.9543,21.2965 -20,21.2965 -11.0457,0 -20,-9.5455 -20,-21.3204 0,0 -0.2191,-14.3086 16.6559,-40.1878 0,0 3.1666,-5.3703 6.3541,-0.3523 16.875,25.8791 16.99,40.564 16.99,40.564"
       id="path1" />
    <path
       fill="#61b2e4"
       stroke="none"
       d="m 36,3.9991 c 12.875,10.3759 19.875,40.8753 19.875,40.8753 0,15.0006 -8.8293,23.1265 -19.875,23.1265 0,0 22,-18.1265 0,-64.0018"
       id="path2" />
  </g>
  <g
     id="hair"
     transform="translate(-15.0001,-3.0030248)" />
  <g
     id="skin"
     transform="translate(-15.0001,-3.0030248)" />
  <g
     id="skin-shadow"
     transform="translate(-15.0001,-3.0030248)" />
  <g
     id="line"
     transform="translate(-15.0001,-3.0030248)">
    <path
       fill="none"
       stroke="#000000"
       stroke-linecap="round"
       stroke-linejoin="round"
       stroke-miterlimit="10"
       stroke-width="2"
       d="m 56.0001,46.7065 c 0,11.7749 -8.9543,21.2965 -20,21.2965 -11.0457,0 -20,-9.5455 -20,-21.3204 0,0 -0.2191,-14.3086 16.6559,-40.1878 0,0 3.1666,-5.3703 6.3541,-0.3523 16.875,25.8791 16.99,40.564 16.99,40.564"
       id="path3" />
  </g>
</svg>
