<?xml version="1.0" encoding="UTF-8" standalone="no"?>
<svg
   id="emoji"
   viewBox="0 0 50.3041 44.099998"
   version="1.1"
   sodipodi:docname="1f4af.svg"
   width="50.3041"
   height="44.099998"
   xmlns:inkscape="http://www.inkscape.org/namespaces/inkscape"
   xmlns:sodipodi="http://sodipodi.sourceforge.net/DTD/sodipodi-0.dtd"
   xmlns="http://www.w3.org/2000/svg"
   xmlns:svg="http://www.w3.org/2000/svg">
  <defs
     id="defs5" />
  <sodipodi:namedview
     id="namedview5"
     pagecolor="#ffffff"
     bordercolor="#000000"
     borderopacity="0.25"
     inkscape:showpageshadow="2"
     inkscape:pageopacity="0.0"
     inkscape:pagecheckerboard="0"
     inkscape:deskcolor="#d1d1d1" />
  <g
     id="color"
     transform="translate(-10.9343,-12.009)" />
  <g
     id="hair"
     transform="translate(-10.9343,-12.009)" />
  <g
     id="skin"
     transform="translate(-10.9343,-12.009)" />
  <g
     id="skin-shadow"
     transform="translate(-10.9343,-12.009)" />
  <g
     id="line"
     transform="translate(-10.9343,-12.009)">
    <line
       x1="59.182899"
       x2="13.1829"
       y1="46.058998"
       y2="46.058998"
       fill="none"
       stroke="#000000"
       stroke-linecap="round"
       stroke-linejoin="round"
       stroke-miterlimit="10"
       stroke-width="4"
       id="line1" />
    <line
       x1="59.182899"
       x2="13.1829"
       y1="54.058998"
       y2="54.058998"
       fill="none"
       stroke="#000000"
       stroke-linecap="round"
       stroke-linejoin="round"
       stroke-miterlimit="10"
       stroke-width="4"
       id="line2" />
    <path
       fill="none"
       stroke="#000000"
       stroke-linecap="round"
       stroke-linejoin="round"
       stroke-miterlimit="10"
       stroke-width="4"
       d="m 32.9833,37.0046 v 0 c -3.4677,0 -6.2789,-2.8112 -6.2789,-6.2789 V 20.3382 c 0,-3.4677 2.8112,-6.2792 6.2789,-6.2792 v 0 c 3.4681,0 6.2792,2.8115 6.2792,6.2792 v 10.3875 c 0,3.4677 -2.8112,6.2789 -6.2792,6.2789 z"
       id="path2" />
    <path
       fill="none"
       stroke="#000000"
       stroke-linecap="round"
       stroke-linejoin="round"
       stroke-miterlimit="10"
       stroke-width="4"
       d="m 52.9092,37.0046 v 0 c -3.4677,0 -6.2789,-2.8112 -6.2789,-6.2789 V 20.3382 c 0,-3.4677 2.8112,-6.2792 6.2789,-6.2792 v 0 c 3.4681,0 6.2792,2.8115 6.2792,6.2792 v 10.3875 c 0,3.4677 -2.8111,6.2789 -6.2792,6.2789 z"
       id="path3" />
    <polyline
       fill="none"
       stroke="#000000"
       stroke-linecap="round"
       stroke-linejoin="round"
       stroke-miterlimit="10"
       stroke-width="4"
       points="12.9843,18.8851 19.3366,14.1262 19.3366,37.0718"
       id="polyline3" />
  </g>
  <g
     id="color-foreground"
     transform="translate(-10.9343,-12.009)">
    <line
       x1="59.182899"
       x2="13.1829"
       y1="46.058998"
       y2="46.058998"
       fill="none"
       stroke="#d22f27"
       stroke-linecap="round"
       stroke-linejoin="round"
       stroke-miterlimit="10"
       stroke-width="4.1"
       id="line3" />
    <line
       x1="59.182899"
       x2="13.1829"
       y1="54.058998"
       y2="54.058998"
       fill="none"
       stroke="#d22f27"
       stroke-linecap="round"
       stroke-linejoin="round"
       stroke-miterlimit="10"
       stroke-width="4.1"
       id="line4" />
    <path
       fill="none"
       stroke="#d22f27"
       stroke-linecap="round"
       stroke-linejoin="round"
       stroke-miterlimit="10"
       stroke-width="4.1"
       d="m 32.9833,37.0046 v 0 c -3.4677,0 -6.2789,-2.8112 -6.2789,-6.2789 V 20.3382 c 0,-3.4677 2.8112,-6.2792 6.2789,-6.2792 v 0 c 3.4681,0 6.2792,2.8115 6.2792,6.2792 v 10.3875 c 0,3.4677 -2.8112,6.2789 -6.2792,6.2789 z"
       id="path4" />
    <path
       fill="none"
       stroke="#d22f27"
       stroke-linecap="round"
       stroke-linejoin="round"
       stroke-miterlimit="10"
       stroke-width="4.1"
       d="m 52.9092,37.0046 v 0 c -3.4677,0 -6.2789,-2.8112 -6.2789,-6.2789 V 20.3382 c 0,-3.4677 2.8112,-6.2792 6.2789,-6.2792 v 0 c 3.4681,0 6.2792,2.8115 6.2792,6.2792 v 10.3875 c 0,3.4677 -2.8111,6.2789 -6.2792,6.2789 z"
       id="path5" />
    <polyline
       fill="none"
       stroke="#d22f27"
       stroke-linecap="round"
       stroke-linejoin="round"
       stroke-miterlimit="10"
       stroke-width="4.1"
       points="12.9843,18.8851 19.3366,14.1262 19.3366,37.0718"
       id="polyline5" />
  </g>
</svg>
