<?xml version="1.0" encoding="UTF-8" standalone="no"?>
<svg
   id="emoji"
   viewBox="0 0 52 33.547001"
   version="1.1"
   sodipodi:docname="1f4b3.svg"
   width="52"
   height="33.547001"
   xmlns:inkscape="http://www.inkscape.org/namespaces/inkscape"
   xmlns:sodipodi="http://sodipodi.sourceforge.net/DTD/sodipodi-0.dtd"
   xmlns="http://www.w3.org/2000/svg"
   xmlns:svg="http://www.w3.org/2000/svg">
  <defs
     id="defs6" />
  <sodipodi:namedview
     id="namedview6"
     pagecolor="#ffffff"
     bordercolor="#000000"
     borderopacity="0.25"
     inkscape:showpageshadow="2"
     inkscape:pageopacity="0.0"
     inkscape:pagecheckerboard="0"
     inkscape:deskcolor="#d1d1d1" />
  <g
     id="color"
     transform="translate(-10,-20.2473)">
    <path
       fill="#92d3f5"
       stroke="none"
       stroke-miterlimit="10"
       stroke-width="2"
       d="M 59.9589,52.7943 H 12.0411 c -0.5523,0 -1,-0.4477 -1,-1 v -29.547 c 0,-0.5523 0.4477,-1 1,-1 h 47.9178 c 0.5523,0 1,0.4477 1,1 v 29.547 c 0,0.5523 -0.4477,1 -1,1 z"
       id="path1" />
    <path
       fill="#3f3f3f"
       stroke="none"
       stroke-miterlimit="10"
       stroke-width="2"
       d="M 60,31 H 12 c -0.5523,0 -1,-0.4477 -1,-1 v -2.8 c 0,-0.5523 0.4477,-1 1,-1 h 48 c 0.5523,0 1,0.4477 1,1 V 30 c 0,0.5523 -0.4477,1 -1,1 z"
       id="path2" />
    <path
       fill="#fcea2b"
       stroke="none"
       stroke-linecap="round"
       stroke-linejoin="round"
       stroke-miterlimit="10"
       stroke-width="2"
       d="m 20.9984,47.8 h -1.9471 c -1.6645,0 -3.0264,-1.3619 -3.0264,-3.0264 v -1.9471 c 0,-1.6645 1.3619,-3.0265 3.0264,-3.0265 h 1.9471 c 1.6645,0 3.0264,1.3619 3.0264,3.0265 v 1.9471 C 24.0249,46.4381 22.663,47.8 20.9984,47.8 Z"
       id="path3" />
  </g>
  <g
     id="hair"
     transform="translate(-10,-20.2473)" />
  <g
     id="skin"
     transform="translate(-10,-20.2473)" />
  <g
     id="skin-shadow"
     transform="translate(-10,-20.2473)" />
  <g
     id="line"
     transform="translate(-10,-20.2473)">
    <path
       fill="none"
       stroke="#000000"
       stroke-miterlimit="10"
       stroke-width="2"
       d="M 59.9589,52.7943 H 12.0411 c -0.5523,0 -1,-0.4477 -1,-1 v -29.547 c 0,-0.5523 0.4477,-1 1,-1 h 47.9178 c 0.5523,0 1,0.4477 1,1 v 29.547 c 0,0.5523 -0.4477,1 -1,1 z"
       id="path4" />
    <path
       fill="none"
       stroke="#000000"
       stroke-miterlimit="10"
       stroke-width="2"
       d="M 60,31 H 12 c -0.5523,0 -1,-0.4477 -1,-1 v -2.8 c 0,-0.5523 0.4477,-1 1,-1 h 48 c 0.5523,0 1,0.4477 1,1 V 30 c 0,0.5523 -0.4477,1 -1,1 z"
       id="path5" />
    <path
       fill="none"
       stroke="#000000"
       stroke-linecap="round"
       stroke-linejoin="round"
       stroke-miterlimit="10"
       stroke-width="2"
       d="m 20.9984,47.8 h -1.9471 c -1.6645,0 -3.0264,-1.3619 -3.0264,-3.0264 v -1.9471 c 0,-1.6645 1.3619,-3.0265 3.0264,-3.0265 h 1.9471 c 1.6645,0 3.0264,1.3619 3.0264,3.0265 v 1.9471 C 24.0249,46.4381 22.663,47.8 20.9984,47.8 Z"
       id="path6" />
  </g>
</svg>
