<svg xmlns="http://www.w3.org/2000/svg" xmlns:svg="http://www.w3.org/2000/svg" id="emoji" width="46.156" height="47.097" version="1.1" viewBox="0 0 46.156 47.097"><g id="color" transform="translate(-12.505832,-11.157186)"><rect id="rect1" width="18" height="28.581" x="29.145" y="23.354" fill="#fff" transform="rotate(-45,38.144364,37.644987)"/><path id="path1" fill="#fff" d="m 13.9792,56.7778 c 0.3645,0.3645 0.8533,0.5189 1.325,0.4674 0,0 8.9017,0.0515 13.9615,-4.8025 C 29.33,52.387 29.39,52.327 29.45,52.2669 c 1.8352,-1.8352 1.8309,-4.8068 0,-6.6377 -1.831,-1.831 -4.8025,-1.8352 -6.6377,0 l -8.8331,8.8331 c -0.6389,0.639 -0.6389,1.6766 0,2.3155 z"/><path id="path2" fill="#fff" d="m 22.1465,53.0191 c 0.12,0.81 -0.36,1.98 -1.31,2.98 -0.29,0.3 -0.59,0.56 -0.9,0.76"/><path id="path3" fill="#fff" d="m 17.9665,55.6591 c -0.08,0.58 -0.36,1.11 -0.8,1.49"/><path id="path4" fill="#5c9e31" d="m 33.4807,23.3837 c 0.9091,-0.9091 0.82,-0.9109 1.7292,-0.0018 0.9092,0.9091 1.7731,1.5059 0.864,2.415 -0.9091,0.9091 -2.3831,0.9091 -3.2923,0 -0.9092,-0.9091 -0.21,-1.5041 0.6991,-2.4132 z"/><path id="path5" fill="#5c9e31" d="m 50.4299,39.7151 c 0.9091,-0.9091 1.3987,0.0753 2.3078,0.9844 0.9091,0.9091 0.54,0.6901 -0.3692,1.5993 -0.9092,0.9092 -1.0296,1.6177 -1.9387,0.7086 -0.9091,-0.9091 -0.9091,-2.3831 0,-3.2923 z"/><path id="path6" fill="#5c9e31" d="m 23.4233,33.364 c 0.9091,-0.9091 1.6321,-1.6594 2.5412,-0.7503 0.9091,0.9091 0.9091,2.3831 0,3.2923 -0.9091,0.9092 -1.6254,-0.2646 -2.5346,-1.1737 -0.9092,-0.9091 -0.9158,-0.4591 -0.0066,-1.3683 z"/><path id="path7" fill="#5c9e31" d="m 39.9328,49.8743 c 0.9091,-0.9091 2.3831,-0.9091 3.2923,0 0.9092,0.9091 -0.0749,1.3982 -0.984,2.3074 -0.9091,0.9092 -0.327,1.1598 -1.2362,0.2507 -0.9092,-0.9091 -1.9812,-1.6489 -1.0721,-2.558 z"/><polygon id="polygon7" fill="#5c9e31" points="33.481 22.764 34.161 22.334 53.486 41.658 52.805 42.089"/><polygon id="polygon8" fill="#5c9e31" points="22.735 34.038 23.423 33.364 42.241 52.182 41.579 52.844"/><polygon id="polygon9" fill="#5c9e31" points="23.43 34.732 22.735 34.038 34.672 22.351 35.366 23.046"/><polygon id="polygon10" fill="#5c9e31" points="41.587 52.844 41.1 52.355 52.738 40.7 53.712 40.701"/><ellipse id="ellipse10" cx="38.101" cy="37.468" fill="#5c9e31" rx="5.742" ry="9.277" transform="rotate(-45,38.100886,37.467596)"/><path id="path10" fill="#fff" d="M 47.425,35.1923 35.6923,46.925 c -0.0422,0.0422 -0.0886,0.0725 -0.1392,0.0987 -0.2062,0.1007 -0.4716,0.0578 -0.6501,-0.1206 l -6.2227,-6.2227 c -0.1785,-0.1785 -0.2214,-0.4439 -0.1206,-0.6501 0.0262,-0.0505 0.0565,-0.097 0.0987,-0.1392 L 40.391,28.1583 c 0.0422,-0.0422 0.0887,-0.0725 0.1392,-0.0987 0.2062,-0.1007 0.4716,-0.0578 0.6501,0.1206 l 6.2227,6.2227 c 0.1785,0.1785 0.2214,0.4439 0.1206,0.6501 -0.0262,0.0506 -0.0564,0.0971 -0.0986,0.1393 z"/><path id="path11" fill="#fff" d="m 57.1856,13.5714 c 0.3645,0.3645 0.5189,0.8533 0.4674,1.325 0,0 0.0515,8.9017 -4.8025,13.9615 -0.0557,0.0643 -0.1158,0.1243 -0.1758,0.1844 -1.8352,1.8352 -4.8068,1.8309 -6.6377,0 -1.831,-1.831 -1.8352,-4.8025 0,-6.6377 l 8.8331,-8.8331 c 0.639,-0.639 1.6766,-0.639 2.3155,0 z"/><path id="path12" fill="#fff" d="m 53.4268,21.7387 c 0.81,0.12 1.98,-0.36 2.98,-1.31 0.3,-0.29 0.56,-0.59 0.76,-0.9"/><path id="path13" fill="#fff" d="m 56.0668,17.5587 c 0.58,-0.08 1.11,-0.36 1.49,-0.8"/></g><g id="line" transform="translate(-12.505832,-11.157186)"><path id="path14" fill="none" stroke="#000" stroke-linecap="round" stroke-miterlimit="10" stroke-width="2" d="m 13.9792,56.7778 c 0.3645,0.3645 0.8533,0.5189 1.325,0.4674 0,0 8.9017,0.0515 13.9615,-4.8025 C 29.33,52.387 29.39,52.327 29.45,52.2669 c 1.8352,-1.8352 1.8309,-4.8068 0,-6.6377 -1.831,-1.831 -4.8025,-1.8352 -6.6377,0 l -8.8331,8.8331 c -0.6389,0.639 -0.6389,1.6766 0,2.3155 z"/><line id="line14" x1="17.236" x2="17.227" y1="57.139" y2="57.129" fill="none" stroke="#000" stroke-linecap="round" stroke-miterlimit="10" stroke-width="2"/><path id="path15" fill="none" stroke="#000" stroke-linecap="round" stroke-miterlimit="10" stroke-width="2" d="m 22.1465,53.0191 c 0.12,0.81 -0.36,1.98 -1.31,2.98 -0.29,0.3 -0.59,0.56 -0.9,0.76"/><path id="path16" fill="none" stroke="#000" stroke-linecap="round" stroke-miterlimit="10" stroke-width="2" d="m 17.9665,55.6591 c -0.08,0.58 -0.36,1.11 -0.8,1.49"/><path id="path17" fill="none" stroke="#000" stroke-linecap="round" stroke-linejoin="round" stroke-width="2" d="M 41.0551,53.3579 22.4424,34.7451 c -0.3905,-0.3905 -0.3905,-1.0237 0,-1.4142 L 33.6848,22.0885 c 0.3905,-0.3905 1.0237,-0.3905 1.4142,0 l 18.6127,18.6127 c 0.3905,0.3905 0.3905,1.0237 0,1.4142 L 42.4693,53.3579 c -0.3905,0.3905 -1.0237,0.3905 -1.4142,0 z"/><path id="path18" fill="none" stroke="#000" stroke-linecap="round" stroke-linejoin="round" stroke-width="2" d="M 47.425,35.1923 35.6923,46.925 c -0.0422,0.0422 -0.0886,0.0725 -0.1392,0.0987 -0.2062,0.1007 -0.4716,0.0578 -0.6501,-0.1206 l -6.2227,-6.2227 c -0.1785,-0.1785 -0.2214,-0.4439 -0.1206,-0.6501 0.0262,-0.0505 0.0565,-0.097 0.0987,-0.1392 L 40.391,28.1583 c 0.0422,-0.0422 0.0887,-0.0725 0.1392,-0.0987 0.2062,-0.1007 0.4716,-0.0578 0.6501,0.1206 l 6.2227,6.2227 c 0.1785,0.1785 0.2214,0.4439 0.1206,0.6501 -0.0262,0.0506 -0.0564,0.0971 -0.0986,0.1393 z"/><path id="path19" fill="none" stroke="#000" stroke-linecap="round" stroke-miterlimit="10" stroke-width="2" d="m 57.1856,13.5714 c 0.3645,0.3645 0.5189,0.8533 0.4674,1.325 0,0 0.0515,8.9017 -4.8025,13.9615 -0.0557,0.0643 -0.1158,0.1243 -0.1758,0.1844 -1.8352,1.8352 -4.8068,1.8309 -6.6377,0 -1.831,-1.831 -1.8352,-4.8025 0,-6.6377 l 8.8331,-8.8331 c 0.639,-0.639 1.6766,-0.639 2.3155,0 z"/><line id="line19" x1="57.547" x2="57.537" y1="16.829" y2="16.819" fill="none" stroke="#000" stroke-linecap="round" stroke-miterlimit="10" stroke-width="2"/><path id="path20" fill="none" stroke="#000" stroke-linecap="round" stroke-miterlimit="10" stroke-width="2" d="m 53.4268,21.7387 c 0.81,0.12 1.98,-0.36 2.98,-1.31 0.3,-0.29 0.56,-0.59 0.76,-0.9"/><path id="path21" fill="none" stroke="#000" stroke-linecap="round" stroke-miterlimit="10" stroke-width="2" d="m 56.0668,17.5587 c 0.58,-0.08 1.11,-0.36 1.49,-0.8"/></g></svg>