<svg xmlns="http://www.w3.org/2000/svg" xmlns:svg="http://www.w3.org/2000/svg" id="emoji" width="51.344" height="51.536" version="1.1" viewBox="0 0 51.344 51.536"><g id="color" transform="translate(-9.9580368,-10.524045)"><polygon id="_1F4B9" fill="#b1cc33" points="18.42 47.255 10.958 59.008 14.036 61.06 19.633 52.012 24.017 53.691 27.375 55.09 36.061 34.53 46.777 40.539 60.302 13.389 57.504 11.524 44.911 35.875 34.091 29.625 25.416 50.239"/></g><g id="line" transform="translate(-9.9580368,-10.524045)"><g id="_1F4B9-2"><g id="g1"><polyline id="polyline1" fill="none" stroke="#000" stroke-linecap="round" stroke-linejoin="round" stroke-width="2" points="18.316 32.405 18.316 24.155 23.816 13.155 18.316 24.155 12.816 13.155"/><line id="line1" x1="13.095" x2="23.461" y1="23.744" y2="23.744" fill="none" stroke="#000" stroke-linecap="round" stroke-linejoin="round" stroke-width="2"/></g><polygon id="polygon1" fill="none" stroke="#000" stroke-linecap="round" stroke-linejoin="round" stroke-width="2" points="18.42 47.255 10.958 59.008 14.036 61.06 19.633 52.012 24.017 53.691 27.375 55.09 36.061 34.53 46.777 40.539 60.302 13.389 57.504 11.524 44.911 35.875 34.091 29.625 25.416 50.239"/></g></g></svg>