<?xml version="1.0" encoding="UTF-8" standalone="no"?>
<svg
   id="emoji"
   viewBox="0 0 46.156498 47.097347"
   version="1.1"
   sodipodi:docname="1f4b8.svg"
   width="46.156498"
   height="47.097347"
   xmlns:inkscape="http://www.inkscape.org/namespaces/inkscape"
   xmlns:sodipodi="http://sodipodi.sourceforge.net/DTD/sodipodi-0.dtd"
   xmlns="http://www.w3.org/2000/svg"
   xmlns:svg="http://www.w3.org/2000/svg">
  <defs
     id="defs21" />
  <sodipodi:namedview
     id="namedview21"
     pagecolor="#ffffff"
     bordercolor="#000000"
     borderopacity="0.25"
     inkscape:showpageshadow="2"
     inkscape:pageopacity="0.0"
     inkscape:pagecheckerboard="0"
     inkscape:deskcolor="#d1d1d1" />
  <g
     id="color"
     transform="translate(-12.505832,-11.157186)">
    <rect
       x="29.144501"
       y="23.354401"
       width="17.9998"
       height="28.5812"
       transform="rotate(-45,38.144364,37.644987)"
       fill="#ffffff"
       id="rect1" />
    <path
       fill="#ffffff"
       d="m 13.9792,56.7778 c 0.3645,0.3645 0.8533,0.5189 1.325,0.4674 0,0 8.9017,0.0515 13.9615,-4.8025 C 29.33,52.387 29.39,52.327 29.45,52.2669 c 1.8352,-1.8352 1.8309,-4.8068 0,-6.6377 -1.831,-1.831 -4.8025,-1.8352 -6.6377,0 l -8.8331,8.8331 c -0.6389,0.639 -0.6389,1.6766 0,2.3155 z"
       id="path1" />
    <path
       fill="#ffffff"
       d="m 22.1465,53.0191 c 0.12,0.81 -0.36,1.98 -1.31,2.98 -0.29,0.3 -0.59,0.56 -0.9,0.76"
       id="path2" />
    <path
       fill="#ffffff"
       d="m 17.9665,55.6591 c -0.08,0.58 -0.36,1.11 -0.8,1.49"
       id="path3" />
    <path
       fill="#5c9e31"
       d="m 33.4807,23.3837 c 0.9091,-0.9091 0.82,-0.9109 1.7292,-0.0018 0.9092,0.9091 1.7731,1.5059 0.864,2.415 -0.9091,0.9091 -2.3831,0.9091 -3.2923,0 -0.9092,-0.9091 -0.21,-1.5041 0.6991,-2.4132 z"
       id="path4" />
    <path
       fill="#5c9e31"
       d="m 50.4299,39.7151 c 0.9091,-0.9091 1.3987,0.0753 2.3078,0.9844 0.9091,0.9091 0.54,0.6901 -0.3692,1.5993 -0.9092,0.9092 -1.0296,1.6177 -1.9387,0.7086 -0.9091,-0.9091 -0.9091,-2.3831 0,-3.2923 z"
       id="path5" />
    <path
       fill="#5c9e31"
       d="m 23.4233,33.364 c 0.9091,-0.9091 1.6321,-1.6594 2.5412,-0.7503 0.9091,0.9091 0.9091,2.3831 0,3.2923 -0.9091,0.9092 -1.6254,-0.2646 -2.5346,-1.1737 -0.9092,-0.9091 -0.9158,-0.4591 -0.0066,-1.3683 z"
       id="path6" />
    <path
       fill="#5c9e31"
       d="m 39.9328,49.8743 c 0.9091,-0.9091 2.3831,-0.9091 3.2923,0 0.9092,0.9091 -0.0749,1.3982 -0.984,2.3074 -0.9091,0.9092 -0.327,1.1598 -1.2362,0.2507 -0.9092,-0.9091 -1.9812,-1.6489 -1.0721,-2.558 z"
       id="path7" />
    <polygon
       fill="#5c9e31"
       points="33.4807,22.7644 34.1615,22.3335 53.4859,41.6579 52.8051,42.0888 "
       id="polygon7" />
    <polygon
       fill="#5c9e31"
       points="22.7353,34.0376 23.4233,33.364 42.241,52.1817 41.579,52.8438 "
       id="polygon8" />
    <polygon
       fill="#5c9e31"
       points="23.43,34.7322 22.7353,34.0376 34.6717,22.3512 35.3663,23.0458 "
       id="polygon9" />
    <polygon
       fill="#5c9e31"
       points="41.5871,52.8438 41.0996,52.3555 52.7378,40.6995 53.7117,40.7012 "
       id="polygon10" />
    <ellipse
       cx="38.1008"
       cy="37.467602"
       rx="5.7417002"
       ry="9.2769003"
       transform="rotate(-45,38.100886,37.467596)"
       fill="#5c9e31"
       id="ellipse10" />
    <path
       fill="#ffffff"
       d="M 47.425,35.1923 35.6923,46.925 c -0.0422,0.0422 -0.0886,0.0725 -0.1392,0.0987 -0.2062,0.1007 -0.4716,0.0578 -0.6501,-0.1206 l -6.2227,-6.2227 c -0.1785,-0.1785 -0.2214,-0.4439 -0.1206,-0.6501 0.0262,-0.0505 0.0565,-0.097 0.0987,-0.1392 L 40.391,28.1583 c 0.0422,-0.0422 0.0887,-0.0725 0.1392,-0.0987 0.2062,-0.1007 0.4716,-0.0578 0.6501,0.1206 l 6.2227,6.2227 c 0.1785,0.1785 0.2214,0.4439 0.1206,0.6501 -0.0262,0.0506 -0.0564,0.0971 -0.0986,0.1393 z"
       id="path10" />
    <path
       fill="#ffffff"
       d="m 57.1856,13.5714 c 0.3645,0.3645 0.5189,0.8533 0.4674,1.325 0,0 0.0515,8.9017 -4.8025,13.9615 -0.0557,0.0643 -0.1158,0.1243 -0.1758,0.1844 -1.8352,1.8352 -4.8068,1.8309 -6.6377,0 -1.831,-1.831 -1.8352,-4.8025 0,-6.6377 l 8.8331,-8.8331 c 0.639,-0.639 1.6766,-0.639 2.3155,0 z"
       id="path11" />
    <path
       fill="#ffffff"
       d="m 53.4268,21.7387 c 0.81,0.12 1.98,-0.36 2.98,-1.31 0.3,-0.29 0.56,-0.59 0.76,-0.9"
       id="path12" />
    <path
       fill="#ffffff"
       d="m 56.0668,17.5587 c 0.58,-0.08 1.11,-0.36 1.49,-0.8"
       id="path13" />
  </g>
  <g
     id="line"
     transform="translate(-12.505832,-11.157186)">
    <path
       fill="none"
       stroke="#000000"
       stroke-linecap="round"
       stroke-miterlimit="10"
       stroke-width="2"
       d="m 13.9792,56.7778 c 0.3645,0.3645 0.8533,0.5189 1.325,0.4674 0,0 8.9017,0.0515 13.9615,-4.8025 C 29.33,52.387 29.39,52.327 29.45,52.2669 c 1.8352,-1.8352 1.8309,-4.8068 0,-6.6377 -1.831,-1.831 -4.8025,-1.8352 -6.6377,0 l -8.8331,8.8331 c -0.6389,0.639 -0.6389,1.6766 0,2.3155 z"
       id="path14" />
    <line
       x1="17.2365"
       x2="17.2265"
       y1="57.139099"
       y2="57.129101"
       fill="none"
       stroke="#000000"
       stroke-linecap="round"
       stroke-miterlimit="10"
       stroke-width="2"
       id="line14" />
    <path
       fill="none"
       stroke="#000000"
       stroke-linecap="round"
       stroke-miterlimit="10"
       stroke-width="2"
       d="m 22.1465,53.0191 c 0.12,0.81 -0.36,1.98 -1.31,2.98 -0.29,0.3 -0.59,0.56 -0.9,0.76"
       id="path15" />
    <path
       fill="none"
       stroke="#000000"
       stroke-linecap="round"
       stroke-miterlimit="10"
       stroke-width="2"
       d="m 17.9665,55.6591 c -0.08,0.58 -0.36,1.11 -0.8,1.49"
       id="path16" />
    <path
       fill="none"
       stroke="#000000"
       stroke-linecap="round"
       stroke-linejoin="round"
       stroke-width="2"
       d="M 41.0551,53.3579 22.4424,34.7451 c -0.3905,-0.3905 -0.3905,-1.0237 0,-1.4142 L 33.6848,22.0885 c 0.3905,-0.3905 1.0237,-0.3905 1.4142,0 l 18.6127,18.6127 c 0.3905,0.3905 0.3905,1.0237 0,1.4142 L 42.4693,53.3579 c -0.3905,0.3905 -1.0237,0.3905 -1.4142,0 z"
       id="path17" />
    <path
       fill="none"
       stroke="#000000"
       stroke-linecap="round"
       stroke-linejoin="round"
       stroke-width="2"
       d="M 47.425,35.1923 35.6923,46.925 c -0.0422,0.0422 -0.0886,0.0725 -0.1392,0.0987 -0.2062,0.1007 -0.4716,0.0578 -0.6501,-0.1206 l -6.2227,-6.2227 c -0.1785,-0.1785 -0.2214,-0.4439 -0.1206,-0.6501 0.0262,-0.0505 0.0565,-0.097 0.0987,-0.1392 L 40.391,28.1583 c 0.0422,-0.0422 0.0887,-0.0725 0.1392,-0.0987 0.2062,-0.1007 0.4716,-0.0578 0.6501,0.1206 l 6.2227,6.2227 c 0.1785,0.1785 0.2214,0.4439 0.1206,0.6501 -0.0262,0.0506 -0.0564,0.0971 -0.0986,0.1393 z"
       id="path18" />
    <path
       fill="none"
       stroke="#000000"
       stroke-linecap="round"
       stroke-miterlimit="10"
       stroke-width="2"
       d="m 57.1856,13.5714 c 0.3645,0.3645 0.5189,0.8533 0.4674,1.325 0,0 0.0515,8.9017 -4.8025,13.9615 -0.0557,0.0643 -0.1158,0.1243 -0.1758,0.1844 -1.8352,1.8352 -4.8068,1.8309 -6.6377,0 -1.831,-1.831 -1.8352,-4.8025 0,-6.6377 l 8.8331,-8.8331 c 0.639,-0.639 1.6766,-0.639 2.3155,0 z"
       id="path19" />
    <line
       x1="57.546799"
       x2="57.5368"
       y1="16.828699"
       y2="16.818701"
       fill="none"
       stroke="#000000"
       stroke-linecap="round"
       stroke-miterlimit="10"
       stroke-width="2"
       id="line19" />
    <path
       fill="none"
       stroke="#000000"
       stroke-linecap="round"
       stroke-miterlimit="10"
       stroke-width="2"
       d="m 53.4268,21.7387 c 0.81,0.12 1.98,-0.36 2.98,-1.31 0.3,-0.29 0.56,-0.59 0.76,-0.9"
       id="path20" />
    <path
       fill="none"
       stroke="#000000"
       stroke-linecap="round"
       stroke-miterlimit="10"
       stroke-width="2"
       d="m 56.0668,17.5587 c 0.58,-0.08 1.11,-0.36 1.49,-0.8"
       id="path21" />
  </g>
</svg>
