<svg xmlns="http://www.w3.org/2000/svg" xmlns:svg="http://www.w3.org/2000/svg" id="emoji" width="51.37" height="33.201" version="1.1" viewBox="0 0 51.37 33.201"><g id="color" transform="translate(-10.0762,-19.8782)"><rect id="rect1" width="51.242" height="32.634" x="10.104" y="20.134" fill="#fff"/><rect id="rect2" width="40.032" height="24.2" x="15.33" y="24.4" fill="#ea5a47"/><rect id="rect3" width="4.63" height=".19" x="55.82" y="20.62" fill="#f4aa41"/><circle id="circle3" cx="46.302" cy="34.578" r="5.933" fill="#fff"/><path id="path3" fill="#d0cfce" d="m 37.4939,21.9515 v 29.097 c 0,0.1047 -0.02,0.1998 -0.05,0.295 -0.13,0.3806 -0.51,0.6565 -0.95,0.6565 h -15.34 c -0.44,0 -0.82,-0.276 -0.95,-0.6565 -0.03,-0.0952 -0.05,-0.1903 -0.05,-0.295 v -29.097 c 0,-0.1047 0.02,-0.1998 0.05,-0.295 0.13,-0.3806 0.51,-0.6565 0.95,-0.6565 h 15.34 c 0.44,0 0.82,0.2759 0.95,0.6565 0.03,0.0952 0.05,0.1904 0.05,0.295 z"/></g><g id="line" transform="translate(-10.0762,-19.8782)"><circle id="circle4" cx="46.302" cy="34.578" r="5.933" fill="none" stroke="#000" stroke-miterlimit="10" stroke-width="2"/><path id="path4" fill="none" stroke="#000" stroke-linecap="round" stroke-linejoin="round" stroke-width="2" d="m 37.4939,21.9515 v 29.097 c 0,0.1047 -0.02,0.1998 -0.05,0.295 -0.13,0.3806 -0.51,0.6565 -0.95,0.6565 h -15.34 c -0.44,0 -0.82,-0.276 -0.95,-0.6565 -0.03,-0.0952 -0.05,-0.1903 -0.05,-0.295 v -29.097 c 0,-0.1047 0.02,-0.1998 0.05,-0.295 0.13,-0.3806 0.51,-0.6565 0.95,-0.6565 h 15.34 c 0.44,0 0.82,0.2759 0.95,0.6565 0.03,0.0952 0.05,0.1904 0.05,0.295 z"/><polyline id="polyline4" fill="none" stroke="#000" stroke-linecap="round" stroke-linejoin="round" stroke-width="2" points="29.037 41 29.037 37.13 31.617 31.97 29.037 37.13 26.457 31.97"/><line id="line4" x1="26.588" x2="31.451" y1="36.468" y2="36.468" fill="none" stroke="#000" stroke-linecap="round" stroke-linejoin="round" stroke-width="2"/><path id="path5" fill="none" stroke="#000" stroke-linecap="round" stroke-linejoin="round" stroke-width="2" d="m 15.7058,52.079 h -3.6296 c -0.5523,0 -1,-0.4477 -1,-1 V 21.8782 c 0,-0.5523 0.4477,-1 1,-1 h 3.6296"/><path id="path6" fill="none" stroke="#000" stroke-linecap="round" stroke-linejoin="round" stroke-width="2" d="m 42,21 17.4462,-0.1218 c 0.5523,0 1,0.4477 1,1 V 51.079 c 0,0.5523 -0.4477,1 -1,1 L 42,52"/><polyline id="polyline6" fill="none" stroke="#000" stroke-linecap="round" stroke-linejoin="round" stroke-width="2" points="42 25.156 55.817 25.156 55.817 47.83 42 47.83"/><line id="line6" x1="15.706" x2="15.706" y1="48" y2="25.156" fill="none" stroke="#000" stroke-linecap="round" stroke-linejoin="round" stroke-width="2"/></g></svg>