<?xml version="1.0" encoding="UTF-8" standalone="no"?>
<svg
   id="emoji"
   viewBox="0 0 50 55"
   version="1.1"
   sodipodi:docname="1f4c7.svg"
   width="50"
   height="55"
   xmlns:inkscape="http://www.inkscape.org/namespaces/inkscape"
   xmlns:sodipodi="http://sodipodi.sourceforge.net/DTD/sodipodi-0.dtd"
   xmlns="http://www.w3.org/2000/svg"
   xmlns:svg="http://www.w3.org/2000/svg">
  <defs
     id="defs11" />
  <sodipodi:namedview
     id="namedview11"
     pagecolor="#ffffff"
     bordercolor="#000000"
     borderopacity="0.25"
     inkscape:showpageshadow="2"
     inkscape:pageopacity="0.0"
     inkscape:pagecheckerboard="0"
     inkscape:deskcolor="#d1d1d1" />
  <g
     id="color"
     transform="translate(-11,-6)">
    <path
       fill="#ea5a47"
       stroke="none"
       stroke-linecap="round"
       stroke-linejoin="round"
       stroke-width="2"
       d="m 18.6,7 h 5.87 a 1.57,1.57 0 0 1 1.56,1.57 V 12 h -9 V 8.57 A 1.57,1.57 0 0 1 18.6,7 Z"
       id="path1" />
    <path
       fill="#b1cc33"
       stroke="none"
       stroke-linecap="round"
       stroke-linejoin="round"
       stroke-width="2"
       d="m 30,7 h 5.87 a 1.57,1.57 0 0 1 1.56,1.57 V 12 h -9 V 8.57 A 1.57,1.57 0 0 1 30,7 Z"
       id="path2" />
    <path
       fill="#92d3f5"
       stroke="none"
       stroke-linecap="round"
       stroke-linejoin="round"
       stroke-width="2"
       d="m 45,7 h 5.87 a 1.57,1.57 0 0 1 1.56,1.57 V 12 h -9 V 8.57 A 1.57,1.57 0 0 1 45,7 Z"
       id="path3" />
    <rect
       x="17"
       y="12"
       width="38"
       height="22"
       fill="#d0cfce"
       stroke="none"
       stroke-linecap="round"
       stroke-linejoin="round"
       stroke-width="2"
       id="rect3" />
    <rect
       x="17"
       y="38"
       width="38"
       height="22"
       fill="#d0cfce"
       stroke="none"
       stroke-linecap="round"
       stroke-linejoin="round"
       stroke-width="2"
       id="rect4" />
  </g>
  <g
     id="line"
     transform="translate(-11,-6)">
    <path
       fill="none"
       stroke="#000000"
       stroke-linecap="round"
       stroke-linejoin="round"
       stroke-width="2"
       d="m 18.6,7 h 5.87 a 1.57,1.57 0 0 1 1.56,1.57 V 12 h -9 V 8.57 A 1.57,1.57 0 0 1 18.6,7 Z"
       id="path4" />
    <path
       fill="none"
       stroke="#000000"
       stroke-linecap="round"
       stroke-linejoin="round"
       stroke-width="2"
       d="m 30,7 h 5.87 a 1.57,1.57 0 0 1 1.56,1.57 V 12 h -9 V 8.57 A 1.57,1.57 0 0 1 30,7 Z"
       id="path5" />
    <path
       fill="none"
       stroke="#000000"
       stroke-linecap="round"
       stroke-linejoin="round"
       stroke-width="2"
       d="m 45,7 h 5.87 a 1.57,1.57 0 0 1 1.56,1.57 V 12 h -9 V 8.57 A 1.57,1.57 0 0 1 45,7 Z"
       id="path6" />
    <rect
       x="17"
       y="12"
       width="38"
       height="22"
       fill="none"
       stroke="#000000"
       stroke-linecap="round"
       stroke-linejoin="round"
       stroke-width="2"
       id="rect6" />
    <rect
       x="17"
       y="38"
       width="38"
       height="22"
       fill="none"
       stroke="#000000"
       stroke-linecap="round"
       stroke-linejoin="round"
       stroke-width="2"
       id="rect7" />
    <path
       fill="none"
       stroke="#000000"
       stroke-linecap="round"
       stroke-linejoin="round"
       stroke-width="2"
       d="M 28,31 V 41"
       id="path7" />
    <path
       fill="none"
       stroke="#000000"
       stroke-linecap="round"
       stroke-linejoin="round"
       stroke-width="2"
       d="M 44,31 V 41"
       id="path8" />
    <rect
       x="12"
       y="32"
       width="2"
       height="8"
       fill="#000000"
       stroke="#000000"
       stroke-linecap="round"
       stroke-linejoin="round"
       stroke-width="2"
       id="rect8" />
    <rect
       x="58"
       y="32"
       width="2"
       height="8"
       fill="#000000"
       stroke="#000000"
       stroke-linecap="round"
       stroke-linejoin="round"
       stroke-width="2"
       id="rect9" />
    <path
       fill="none"
       stroke="#000000"
       stroke-linecap="round"
       stroke-linejoin="round"
       stroke-width="2"
       d="M 22,18 H 32"
       id="path9" />
    <path
       fill="none"
       stroke="#000000"
       stroke-linecap="round"
       stroke-linejoin="round"
       stroke-width="2"
       d="M 22,22 H 41"
       id="path10" />
    <path
       fill="none"
       stroke="#000000"
       stroke-linecap="round"
       stroke-linejoin="round"
       stroke-width="2"
       d="M 22,26 H 32"
       id="path11" />
  </g>
</svg>
