<svg xmlns="http://www.w3.org/2000/svg" xmlns:svg="http://www.w3.org/2000/svg" id="emoji" width="39.849" height="61.785" version="1.1" viewBox="0 0 39.849 61.785"><g id="color" transform="translate(-15.82,-6.1884)"><path id="path1" fill="#a57939" d="m 19.4835,11.9519 c -1.6223,0.0879 -2.6548,1.3894 -2.6446,3.0141 l 0.3073,49.0067 c 0,1.1025 1.5713,3.0003 2.6738,3.0003 h 28.4129 c 3.5401,0 6.4365,-2.8964 6.4365,-6.4365 V 14.8499 c 0,-1.6248 -1.2817,-2.8115 -2.9042,-2.898 -0.7359,-0.0392 -31.6955,-0.0318 -32.2816,0 z"/><path id="path2" fill="#d0cfce" d="m 32.9574,11.2092 -4.0841,0.1491 c -1.6251,0 -3.3121,2.401 -3.7826,3.8716 l 21.4716,0.3382 c -0.4705,-1.4707 -1.8325,-4.3589 -3.4576,-4.3589 l -3.8013,-0.3336 c -0.3697,0 -0.1859,-3.8359 -3.3445,-3.6872 -3.1586,0.1487 -2.6318,4.0208 -3.0015,4.0208 z"/><path id="path3" fill="#fff" d="m 51.7802,54.9399 v -0.1743 c -0.0021,0.0239 -0.0102,0.0456 -0.014,0.0689 0.0046,0.0353 0.0131,0.0696 0.014,0.1054 z"/><path id="path4" fill="#fff" d="m 47.1379,14.8526 c 0.008,0.1192 -2.3273,0.5918 -2.88,0.5918 0,0 -20.1393,-0.4492 -20.1313,-0.5685 h -3.0741 c 0,0 2e-4,10e-5 4e-4,10e-5 0.236,0.0377 -0.1528,46.5465 -0.1528,46.5465 h 22.5355 c 0,0 7.3614,-6.4365 7.3614,-6.4623 L 50.6448,52.104 50.797,15.8454 c 0,-0.0543 -0.0221,-0.9928 -0.0221,-0.9928 0,0 -3.637,0 -3.637,0 z"/><path id="path5" fill="#fff" d="m 42.7393,57.1041 c 0.0184,0.0177 0.0435,0.0265 0.0633,0.0427 -0.0199,-0.0159 -0.0447,-0.0253 -0.0633,-0.0427 z"/><path id="path6" fill="#fff" d="m 43.0405,57.301 c 0.1157,0.0482 0.2423,0.076 0.3765,0.076 -0.1336,0 -0.2601,-0.0286 -0.3765,-0.076 z"/><polygon id="polygon6" fill="#d0cfce" points="43.688 54.766 42.432 56.45 42.432 60.423 43.436 61.422 50.514 55.207 45.83 54.853"/><polyline id="polyline6" fill="none" stroke="#6a462f" stroke-linecap="round" stroke-linejoin="round" stroke-width="2" points="50.645 55.927 43.229 62.404 20.914 62.404"/></g><g id="line" transform="translate(-15.82,-6.1884)"><path id="path7" fill="none" stroke="#000" stroke-linecap="round" stroke-linejoin="round" stroke-width="2" d="m 49.6856,11.9519 h 4.9838 V 63.973 c 0,1.6568 -1.3431,3 -3,3 H 19.82 c -1.6569,0 -3,-1.3432 -3,-3 V 11.9519 h 4.6155"/><line id="line7" x1="50.797" x2="50.797" y1="15.845" y2="54.96" fill="none" stroke="#000" stroke-linecap="round" stroke-linejoin="round" stroke-width="2"/><polyline id="polyline7" fill="none" stroke="#000" stroke-linecap="round" stroke-linejoin="round" stroke-width="2" points="43.417 56.377 43.417 54.964 50.796 54.96 43.436 61.422 20.9 61.422 20.9 15.845"/><line id="line8" x1="24.581" x2="37.347" y1="22.615" y2="22.615" fill="none" stroke="#000" stroke-linecap="round" stroke-linejoin="round" stroke-width="2"/><line id="line9" x1="24.581" x2="41.563" y1="26.615" y2="26.615" fill="none" stroke="#000" stroke-linecap="round" stroke-linejoin="round" stroke-width="2"/><line id="line10" x1="24.581" x2="44.781" y1="30.615" y2="30.615" fill="none" stroke="#000" stroke-linecap="round" stroke-linejoin="round" stroke-width="2"/><line id="line11" x1="24.581" x2="38.133" y1="34.615" y2="34.615" fill="none" stroke="#000" stroke-linecap="round" stroke-linejoin="round" stroke-width="2"/><line id="line12" x1="24.581" x2="40.992" y1="38.615" y2="38.615" fill="none" stroke="#000" stroke-linecap="round" stroke-linejoin="round" stroke-width="2"/><line id="line13" x1="24.581" x2="31.703" y1="42.615" y2="42.615" fill="none" stroke="#000" stroke-linecap="round" stroke-linejoin="round" stroke-width="2"/><path id="path13" fill="none" stroke="#000" stroke-linecap="round" stroke-linejoin="round" stroke-width="2" d="m 42.2763,10.9439 h -3.7961 c 0.1302,-0.3182 0.2034,-0.666 0.2034,-1.0311 0,-1.5047 -1.2199,-2.7244 -2.7247,-2.7244 -1.5048,0 -2.7244,1.2197 -2.7244,2.7244 0,0.3651 0.0729,0.7129 0.2033,1.0311 h -4.0611 c -2.367,0 -4.286,1.9189 -4.286,4.286 h 21.4716 c 0,-2.3671 -1.919,-4.286 -4.286,-4.286 z"/></g></svg>