<?xml version="1.0" encoding="UTF-8" standalone="no"?>
<svg
   id="emoji"
   viewBox="0 0 50.002998 53.4034"
   version="1.1"
   sodipodi:docname="1f4c5.svg"
   width="50.002998"
   height="53.4034"
   xmlns:inkscape="http://www.inkscape.org/namespaces/inkscape"
   xmlns:sodipodi="http://sodipodi.sourceforge.net/DTD/sodipodi-0.dtd"
   xmlns="http://www.w3.org/2000/svg"
   xmlns:svg="http://www.w3.org/2000/svg">
  <defs
     id="defs7" />
  <sodipodi:namedview
     id="namedview7"
     pagecolor="#ffffff"
     bordercolor="#000000"
     borderopacity="0.25"
     inkscape:showpageshadow="2"
     inkscape:pageopacity="0.0"
     inkscape:pagecheckerboard="0"
     inkscape:deskcolor="#d1d1d1" />
  <g
     id="color"
     transform="translate(-10.997,-7.6884003)">
    <path
       fill="#ffffff"
       d="M 12,28.1224 11.997,60.0918 43.6564,60.0864 59.7462,48.0382 C 59.739,47.9894 60,44.0918 60,44.0918 l -0.003,-16 z"
       id="path1" />
    <path
       fill="#ea5a47"
       d="M 12.1937,28.2921 59.997,28.0918 60,11.6224 c 0,0 -6.5361,2e-4 -5.9834,2e-4 h -3.5569 l 0.0526,5.272 c 1.7272,0.4562 2.1504,3.0869 2.1504,3.0874 -0.0225,2.1919 -2.6783,2.5299 -2.6907,2.5274 -1.8479,-0.3787 -2.4888,-1.2828 -2.4683,-2.8021 0.0144,-1.0682 0.046,-1.3296 0.8087,-2.0781 0.5122,-0.5019 0.6338,-0.6085 1.3107,-0.7802 l -0.0279,-5.2264 h -3.5395 c 0.261,0 -20.6026,0 -20.0498,0 h -3.6621 l 0.071,5.2264 c 1.7272,0.4562 2.2925,0.8529 2.2752,2.7188 -0.0205,2.1929 -2.706,3.2811 -2.7187,3.2811 C 19.7662,22.8274 18.9795,21.811 19,19.6059 c 0.0098,-1.0683 0.8766,-1.8637 1.6393,-2.6122 0.5122,-0.5019 0.6989,-0.822 1.3758,-0.9937 l -0.2395,-4.3774 h -3.7434 c 0.2142,0 -6.0322,-2e-4 -6.0322,-2e-4 z"
       id="path2" />
    <path
       fill="#d0cfce"
       d="M 59.997,48.0382 H 43.1384 c 0,0 -0.8989,6.1042 -0.9709,5.6225 v 5.4255 l 1.4889,1.0002 z"
       id="path3" />
  </g>
  <g
     id="line"
     transform="translate(-10.997,-7.6884003)">
    <circle
       cx="22.0016"
       cy="19.8486"
       r="3.0000999"
       fill="none"
       stroke="#000000"
       stroke-linecap="round"
       stroke-linejoin="round"
       stroke-width="2.0001"
       id="circle3" />
    <line
       x1="26.005699"
       x2="46.055801"
       y1="12.1224"
       y2="12.1224"
       fill="none"
       stroke="#000000"
       stroke-linecap="round"
       stroke-linejoin="round"
       stroke-width="2"
       id="line3" />
    <polyline
       fill="none"
       stroke="#000000"
       stroke-linecap="round"
       stroke-linejoin="round"
       stroke-width="2"
       points="54.0163 12.1224 60 12.1224 60 28.1224 12 28.1224 12 12.1224 18.0318 12.1224"
       id="polyline3" />
    <line
       x1="22.0151"
       x2="22.0151"
       y1="8.6884003"
       y2="18.997601"
       fill="none"
       stroke="#000000"
       stroke-linecap="round"
       stroke-linejoin="round"
       stroke-width="2"
       id="line4" />
    <circle
       cx="50.003201"
       cy="19.847401"
       r="3.0000999"
       fill="none"
       stroke="#000000"
       stroke-linecap="round"
       stroke-linejoin="round"
       stroke-width="2.0001"
       id="circle4" />
    <line
       x1="50.0158"
       x2="50.0158"
       y1="8.6884003"
       y2="18.997601"
       fill="none"
       stroke="#000000"
       stroke-linecap="round"
       stroke-linejoin="round"
       stroke-width="2"
       id="line5" />
    <path
       fill="none"
       stroke="#000000"
       stroke-linecap="round"
       stroke-linejoin="round"
       stroke-width="2"
       d="m 34.3355,38.092 c 0.5248,-2.5644 2.7937,-4.4936 5.5134,-4.4936 v 0 c 1.5539,0 2.9609,0.63 3.9793,1.6484 1.5843,1.5842 1.438,4.2167 -0.0484,5.8928 l -9.5586,10.7799 h 4.7601"
       id="path5" />
    <polyline
       fill="none"
       stroke="#000000"
       stroke-linecap="round"
       stroke-linejoin="round"
       stroke-width="2"
       points="23.2764 37.3982 28.3485 33.5984 28.3485 51.9195"
       id="polyline5" />
    <polyline
       fill="none"
       stroke="#000000"
       stroke-linecap="round"
       stroke-linejoin="round"
       stroke-width="2"
       points="11.997 28.0918 11.997 60.0918 43.6564 60.0864 59.997 48.0382 59.997 28.0918"
       id="polyline6" />
    <polyline
       fill="none"
       stroke="#000000"
       stroke-linecap="round"
       stroke-linejoin="round"
       stroke-width="2"
       points="59.7462 48.0382 43.1384 48.0382 43.1384 53.5175"
       id="polyline7" />
  </g>
</svg>
