<svg xmlns="http://www.w3.org/2000/svg" xmlns:svg="http://www.w3.org/2000/svg" id="emoji" width="49.9" height="49.9" version="1.1" viewBox="0 0 49.9 49.9"><g id="color" transform="translate(-11.05,-11.05)"><rect id="rect1" width="47.9" height="47.9" x="12.05" y="12.05" fill="#fff"/><rect id="rect2" width="8" height="21.41" x="18.32" y="37.6" fill="#b1cc33"/><rect id="rect3" width="8" height="14.62" x="46.25" y="44.38" fill="#92d3f5"/><rect id="rect4" width="8" height="37.32" x="32.28" y="21.69" fill="#d22f27"/></g><g id="line" transform="translate(-11.05,-11.05)"><path id="path4" fill="none" stroke="#000" stroke-linecap="round" stroke-linejoin="round" stroke-miterlimit="10" stroke-width="2" d="M 18.03,59.01 V 37.6 h 8 v 21.41"/><path id="path5" fill="none" stroke="#000" stroke-linecap="round" stroke-linejoin="round" stroke-miterlimit="10" stroke-width="2" d="M 45.97,59.01 V 44.39 h 8 v 14.62"/><line id="line5" x1="12.75" x2="28.49" y1="31.28" y2="31.28" fill="none" stroke="#000" stroke-linecap="round" stroke-linejoin="round" stroke-miterlimit="10" stroke-width="2"/><line id="line6" x1="43.51" x2="59.45" y1="40.82" y2="40.82" fill="none" stroke="#000" stroke-linecap="round" stroke-linejoin="round" stroke-miterlimit="10" stroke-width="2"/><line id="line7" x1="57.48" x2="59.17" y1="50.37" y2="50.37" fill="none" stroke="#000" stroke-linecap="round" stroke-linejoin="round" stroke-miterlimit="10" stroke-width="2"/><rect id="rect7" width="47.9" height="47.9" x="12.05" y="12.05" fill="none" stroke="#000" stroke-linecap="round" stroke-linejoin="round" stroke-miterlimit="10" stroke-width="2"/><path id="path7" fill="none" stroke="#000" stroke-linecap="round" stroke-linejoin="round" stroke-miterlimit="10" stroke-width="2" d="M 32,59.01 V 21.73 h 8 v 37.28"/><line id="line8" x1="12.39" x2="14.52" y1="40.82" y2="40.82" fill="none" stroke="#000" stroke-linecap="round" stroke-linejoin="round" stroke-miterlimit="10" stroke-width="2"/><line id="line9" x1="12.39" x2="14.52" y1="50.37" y2="50.37" fill="none" stroke="#000" stroke-linecap="round" stroke-linejoin="round" stroke-miterlimit="10" stroke-width="2"/><line id="line10" x1="43.51" x2="59.45" y1="31.28" y2="31.28" fill="none" stroke="#000" stroke-linecap="round" stroke-linejoin="round" stroke-miterlimit="10" stroke-width="2"/><line id="line11" x1="43.51" x2="59.45" y1="21.74" y2="21.74" fill="none" stroke="#000" stroke-linecap="round" stroke-linejoin="round" stroke-miterlimit="10" stroke-width="2"/><line id="line12" x1="12.75" x2="28.49" y1="21.74" y2="21.74" fill="none" stroke="#000" stroke-linecap="round" stroke-linejoin="round" stroke-miterlimit="10" stroke-width="2"/></g></svg>