<?xml version="1.0" encoding="UTF-8" standalone="no"?>
<svg
   id="emoji"
   viewBox="0 0 57.087101 49.915501"
   version="1.1"
   sodipodi:docname="1f4c2.svg"
   width="57.087101"
   height="49.915501"
   xmlns:inkscape="http://www.inkscape.org/namespaces/inkscape"
   xmlns:sodipodi="http://sodipodi.sourceforge.net/DTD/sodipodi-0.dtd"
   xmlns="http://www.w3.org/2000/svg"
   xmlns:svg="http://www.w3.org/2000/svg">
  <defs
     id="defs4" />
  <sodipodi:namedview
     id="namedview4"
     pagecolor="#ffffff"
     bordercolor="#000000"
     borderopacity="0.25"
     inkscape:showpageshadow="2"
     inkscape:pageopacity="0.0"
     inkscape:pagecheckerboard="0"
     inkscape:deskcolor="#d1d1d1" />
  <g
     id="color"
     transform="translate(-10.9589,-11.0571)">
    <path
       fill="#9b9b9a"
       d="m 15.464,59.6264 c 0.1391,-0.1691 2.3559,-7.8264 2.8998,-9.627 0.457,-1.5137 3.9618,-15.2702 6.1601,-25.071 0.0084,-0.1315 32.4839,-0.6133 32.4839,-0.6133 v -4.0109 c 0,0.5522 0,-3.356 0,-3.356 L 29.5147,16.377 c -0.0801,-1.2364 -1.004,-4.1216 -2.1368,-4.1216 L 14.791,12.0571 c -1.1026,0 -2.8321,1.3407 -2.8321,2.4437 0,0 -0.25,36.1831 -0.25,44.977 0,1.3282 3.7343,0.1738 3.7551,0.1486 z"
       id="path1" />
    <path
       fill="#d0cfce"
       d="m 23.9444,24.3151 c 0,0.0782 -0.0083,0.1557 -0.0259,0.2318 -0.2749,1.226 -6.7345,30.0417 -7.363,32.1243 -0.3359,1.1164 -0.9593,2.3082 -1.7645,3.291 l 43.1115,0.0104 c 1.1381,0 1.5216,0 2.1521,-2.3899 0.6676,-2.5305 6.6984,-30.2693 7.342,-33.2323 0.0017,-0.009 0.0066,-0.0353 0.0066,-0.0353 0,0 -43.4588,0 -43.4588,0 z"
       id="path2" />
  </g>
  <g
     id="line"
     transform="translate(-10.9589,-11.0571)">
    <path
       fill="none"
       stroke="#000000"
       stroke-linecap="round"
       stroke-linejoin="round"
       stroke-width="2"
       d="M 57.0078,20.3044 V 16.9482 L 29.6695,16.9457 c -0.198,0 -0.3586,-0.165 -0.3586,-0.3684 l -0.0687,-1.5169 c -0.116,-1.7878 -1.3398,-3.0033 -2.9967,-3.0033 H 14.9589 c -1.6569,0 -3,1.3432 -3,3 V 56"
       id="path3" />
    <path
       fill="none"
       stroke="#000000"
       stroke-linecap="round"
       stroke-linejoin="round"
       stroke-width="2"
       d="m 17.0271,55.5678 c -0.5897,1.954 -2.9723,4.1389 -4.6459,4.394 l 44.6648,0.0108 c 1.6569,0 2.3233,-0.4388 3,-3 0.6767,-2.5612 7,-31.6575 7,-31.6575 0,-0.5523 -0.4477,-1 -1,-1 H 24.9649 c -0.5523,0 -1,0.4477 -1,1 0,0 -6.3481,28.2986 -6.9378,30.2527 z"
       id="path4" />
  </g>
</svg>
