<svg xmlns="http://www.w3.org/2000/svg" xmlns:svg="http://www.w3.org/2000/svg" id="emoji" width="49.897" height="49.897" version="1.1" viewBox="0 0 49.897 49.897"><g id="color" transform="translate(-11.0515,-11.0154)"><path id="path1" fill="#fff" d="m 12.05,59.91 h 47.9 v -47.9 h -47.9 z"/><path id="path2" fill="#92d3f5" stroke="none" d="m 31.2379,28.4166 -6.8898,-8.6812 -2.8384,2.5491 8.7131,11.7972 6.5938,-3.5617 c 0.1425,-0.0713 11.2762,21.2218 11.2762,21.2218 l 3.397,-1.4527 -12.4352,-25.0843 c 0,0 -7.5277,3.5956 -7.8167,3.2118 z"/></g><g id="line" transform="translate(-11.0515,-11.0154)"><polygon id="polygon2" fill="none" stroke="#000" stroke-linecap="round" stroke-linejoin="round" stroke-miterlimit="10" stroke-width="2" points="29.909 34.237 21.151 22.14 24.348 19.735 31.358 29.054 35.484 27.009 35.471 26.982 39.055 25.205 51.49 50.289 47.906 52.066 37.261 30.593"/><rect id="rect2" width="47.897" height="47.897" x="12.052" y="12.015" fill="none" stroke="#000" stroke-linecap="round" stroke-linejoin="round" stroke-miterlimit="10" stroke-width="2"/><line id="line2" x1="51.839" x2="59.805" y1="36.085" y2="36.085" fill="none" stroke="#000" stroke-linecap="round" stroke-linejoin="round" stroke-miterlimit="10" stroke-width="2"/><line id="line3" x1="12.739" x2="26.039" y1="36.085" y2="36.085" fill="none" stroke="#000" stroke-linecap="round" stroke-linejoin="round" stroke-miterlimit="10" stroke-width="2"/><line id="line4" x1="55.207" x2="59.683" y1="47.993" y2="47.993" fill="none" stroke="#000" stroke-linecap="round" stroke-linejoin="round" stroke-miterlimit="10" stroke-width="2"/><line id="line5" x1="12.739" x2="41.361" y1="47.993" y2="47.993" fill="none" stroke="#000" stroke-linecap="round" stroke-linejoin="round" stroke-miterlimit="10" stroke-width="2"/><line id="line6" x1="48.234" x2="48.251" y1="56.081" y2="59.37" fill="none" stroke="#000" stroke-linecap="round" stroke-linejoin="round" stroke-miterlimit="10" stroke-width="2"/><line id="line7" x1="48.033" x2="48.153" y1="12.059" y2="34.505" fill="none" stroke="#000" stroke-linecap="round" stroke-linejoin="round" stroke-miterlimit="10" stroke-width="2"/><line id="line8" x1="36.184" x2="36.184" y1="38.182" y2="59.573" fill="none" stroke="#000" stroke-linecap="round" stroke-linejoin="round" stroke-miterlimit="10" stroke-width="2"/><line id="line9" x1="36.184" x2="36.184" y1="12.33" y2="22.285" fill="none" stroke="#000" stroke-linecap="round" stroke-linejoin="round" stroke-miterlimit="10" stroke-width="2"/><line id="line10" x1="24.225" x2="24.225" y1="33.302" y2="59.573" fill="none" stroke="#000" stroke-linecap="round" stroke-linejoin="round" stroke-miterlimit="10" stroke-width="2"/><line id="line11" x1="24.225" x2="24.225" y1="12.12" y2="15.652" fill="none" stroke="#000" stroke-linecap="round" stroke-linejoin="round" stroke-miterlimit="10" stroke-width="2"/><line id="line12" x1="43.255" x2="59.226" y1="24.177" y2="24.177" fill="none" stroke="#000" stroke-linecap="round" stroke-linejoin="round" stroke-miterlimit="10" stroke-width="2"/><line id="line13" x1="12.264" x2="17.552" y1="24.177" y2="24.177" fill="none" stroke="#000" stroke-linecap="round" stroke-linejoin="round" stroke-miterlimit="10" stroke-width="2"/></g></svg>