<svg xmlns="http://www.w3.org/2000/svg" xmlns:svg="http://www.w3.org/2000/svg" id="emoji" width="25.617" height="56.662" version="1.1" viewBox="0 0 25.617 56.662"><g id="color" transform="translate(-23.1631,-8.5572004)"><path id="path1" fill="#ea5a47" stroke="none" d="m 35.9717,9.7197 c -6.4217,0 -11.6459,5.2242 -11.6459,11.6459 0,6.4217 5.2242,11.6459 11.6459,11.6459 6.4216,0 11.6459,-5.2242 11.6459,-11.6459 0,-6.4217 -5.2243,-11.6459 -11.6459,-11.6459 z"/><path id="path2" fill="#d22f27" stroke="none" d="m 39.1689,32.3818 c 1.7258,-0.6456 3.289,-0.8166 4.8143,-2.212 2.1013,-1.9223 3.9035,-5.3398 3.9035,-8.0238 0,-2.4449 -0.578,-5.3031 -2.3421,-7.6335 -1.6276,-2.15 -4.3608,-3.8416 -6.3757,-4.554 0,0 3.5175,5.6512 3.5175,11.3739 0,5.7227 -3.5175,11.0494 -3.5175,11.0494 z"/><path id="path3" fill="#d0cfce" stroke="none" d="m 35.837,63.4888 2.8467,-7.6704 c 0,0 -0.8248,-19.5768 -0.3788,-19.6775 h -5.1693 c 0.4459,0.1007 -0.2244,19.5589 -0.2244,19.5589 z"/><path id="path4" fill="#9b9b9a" stroke="none" d="m 35.9556,62.7376 2.649,-7.0773 c 0,0 0.1045,-19.0577 0.0622,-19.5266 l -2.9331,0.0072 z"/></g><g id="line" transform="translate(-23.1631,-8.5572004)"><circle id="circle4" cx="35.971" cy="21.366" r="11.808" fill="none" stroke="#000" stroke-linecap="round" stroke-linejoin="round" stroke-miterlimit="10" stroke-width="2"/><polyline id="polyline4" fill="none" stroke="#000" stroke-linecap="round" stroke-linejoin="round" stroke-miterlimit="10" stroke-width="2" points="38.52 37.098 38.52 55.714 35.936 64.219 32.921 55.714 32.921 37.098"/></g></svg>