<?xml version="1.0" encoding="UTF-8" standalone="no"?>
<svg
   id="emoji"
   viewBox="0 0 50.002998 49.8284"
   version="1.1"
   sodipodi:docname="1f4c6.svg"
   width="50.002998"
   height="49.8284"
   xmlns:inkscape="http://www.inkscape.org/namespaces/inkscape"
   xmlns:sodipodi="http://sodipodi.sourceforge.net/DTD/sodipodi-0.dtd"
   xmlns="http://www.w3.org/2000/svg"
   xmlns:svg="http://www.w3.org/2000/svg">
  <defs
     id="defs8" />
  <sodipodi:namedview
     id="namedview8"
     pagecolor="#ffffff"
     bordercolor="#000000"
     borderopacity="0.25"
     inkscape:showpageshadow="2"
     inkscape:pageopacity="0.0"
     inkscape:pagecheckerboard="0"
     inkscape:deskcolor="#d1d1d1" />
  <g
     id="color"
     transform="translate(-10.997,-11.2634)">
    <path
       fill="#ffffff"
       d="m 11.997,27.9165 v 32.1753 l 31.6594,-0.0054 16.489,-11.9 V 28.0918 Z"
       id="path1" />
    <path
       fill="#ea5a47"
       d="m 19.2073,18.736 c 0.0059,-0.6514 -0.7503,-2.3148 -0.4458,-2.8811 -0.1466,-0.5021 1.6993,-3.5815 1.6993,-3.5815 H 12 l -0.003,15 48.1484,0.305 L 60,12.2734 53.3494,11.8984 51.385,15.3966 c 0.3652,1.0116 0.6716,1.8772 0.7819,2.139 0.3596,0.5433 0.7323,3.2262 0.7323,3.2264 -0.0197,1.9187 -2.6538,2.2379 -2.9272,2.2379 -2.4384,-0.3664 -2.7436,-2.0798 -2.7231,-4.2859 0.0058,-0.6514 -0.3112,-2.6719 -0.307,-2.7145 0.0141,-0.1445 1.5385,-3.7261 1.5385,-3.7261 H 25.5657 l -2.2003,3.1232 c 0.3652,1.0116 1.6155,4.6319 1.6155,4.6321 -0.0205,2.1914 -1.2224,2.7459 -3.0285,2.9712 -1.8061,0.2253 -2.7656,-2.0578 -2.7451,-4.2639 z"
       id="path2" />
    <path
       fill="#d0cfce"
       d="M 60.1454,48.1864 42.9337,47.8331 c 0,0 0.7574,3.9405 0.2047,3.9405 -0.502,0 -0.8989,2.3688 -0.9709,1.8871 v 5.9346 l 1.6823,-0.0774 z"
       id="path3" />
  </g>
  <g
     id="line"
     transform="translate(-10.997,-11.2634)">
    <polyline
       fill="none"
       stroke="#000000"
       stroke-linecap="round"
       stroke-linejoin="round"
       stroke-width="2"
       points="53.3494 12.2734 60 12.2734 60 28.2734 12 28.2734 12 12.2734 20.4608 12.2734"
       id="polyline3" />
    <line
       x1="25.565701"
       x2="48.4804"
       y1="12.2734"
       y2="12.2734"
       fill="none"
       stroke="#000000"
       stroke-linecap="round"
       stroke-linejoin="round"
       stroke-width="2"
       id="line3" />
    <path
       fill="none"
       stroke="#000000"
       stroke-linecap="round"
       stroke-linejoin="round"
       stroke-width="2"
       d="m 53.3494,12.2752 -1.9644,3.1214 c 0,0 0.9936,2.767 1.0851,2.8995 0.3399,0.4916 0.5366,1.0894 0.5304,1.7326 -0.0158,1.6567 -1.3717,2.987 -3.0285,2.9712 -1.6568,-0.0159 -2.987,-1.3718 -2.9712,-3.0286 0.006,-0.6212 0.2003,-1.1966 0.5284,-1.6723 0.0816,-0.1184 -0.9091,-2.9024 -0.9091,-2.9024 l 1.8603,-3.1332"
       id="path4" />
    <path
       fill="none"
       stroke="#000000"
       stroke-linecap="round"
       stroke-linejoin="round"
       stroke-width="2"
       d="m 25.3298,12.2752 -1.9644,3.1214 c 0,0 0.9936,2.767 1.0851,2.8995 0.3399,0.4916 0.5366,1.0894 0.5304,1.7326 -0.0158,1.6567 -1.3717,2.987 -3.0285,2.9712 -1.6568,-0.0159 -2.987,-1.3718 -2.9712,-3.0286 0.006,-0.6212 0.2003,-1.1966 0.5284,-1.6723 0.0816,-0.1184 -0.9091,-2.9024 -0.9091,-2.9024 l 1.8603,-3.1332"
       id="path5" />
    <path
       fill="none"
       stroke="#000000"
       stroke-linecap="round"
       stroke-linejoin="round"
       stroke-width="2"
       d="m 34.3355,38.092 c 0.5248,-2.5644 2.7937,-4.4936 5.5134,-4.4936 v 0 c 1.5539,0 2.9609,0.63 3.9793,1.6484 1.5843,1.5842 1.438,4.2167 -0.0484,5.8928 l -9.5586,10.7799 h 4.7601"
       id="path6" />
    <polyline
       fill="none"
       stroke="#000000"
       stroke-linecap="round"
       stroke-linejoin="round"
       stroke-width="2"
       points="23.2764 37.3982 28.3485 33.5984 28.3485 51.9195"
       id="polyline6" />
    <polyline
       fill="none"
       stroke="#000000"
       stroke-linecap="round"
       stroke-linejoin="round"
       stroke-width="2"
       points="11.997 28.0918 11.997 60.0918 43.6564 60.0864 59.997 48.0382 59.997 28.0918"
       id="polyline7" />
    <polyline
       fill="none"
       stroke="#000000"
       stroke-linecap="round"
       stroke-linejoin="round"
       stroke-width="2"
       points="59.7462 48.0382 43.1384 48.0382 43.1384 53.5175"
       id="polyline8" />
  </g>
</svg>
