<?xml version="1.0" encoding="UTF-8" standalone="no"?>
<svg
   id="emoji"
   viewBox="0 0 56.1199 51.987801"
   version="1.1"
   sodipodi:docname="1f4d2.svg"
   width="56.1199"
   height="51.987801"
   xmlns:inkscape="http://www.inkscape.org/namespaces/inkscape"
   xmlns:sodipodi="http://sodipodi.sourceforge.net/DTD/sodipodi-0.dtd"
   xmlns="http://www.w3.org/2000/svg"
   xmlns:svg="http://www.w3.org/2000/svg">
  <defs
     id="defs11" />
  <sodipodi:namedview
     id="namedview11"
     pagecolor="#ffffff"
     bordercolor="#000000"
     borderopacity="0.25"
     inkscape:showpageshadow="2"
     inkscape:pageopacity="0.0"
     inkscape:pagecheckerboard="0"
     inkscape:deskcolor="#d1d1d1" />
  <g
     id="color"
     transform="translate(-6,-10.0122)">
    <path
       fill="#fcea2b"
       stroke="none"
       d="m 60.1001,57.0799 c 0.5632,0 1.0198,-0.4576 1.0198,-1.0222 V 12.0344 c 0,-0.5645 -0.4566,-1.0222 -1.0198,-1.0222 h -43.922 c -0.5632,0 -1.0198,0.4576 -1.0198,1.0222 V 39.163 L 51.2191,57.08 h 8.881 z"
       id="path1" />
    <path
       fill="#fcea2b"
       stroke="none"
       d="m 60.1214,56.0122 c 0.5514,0 0.9985,-0.447 0.9985,-0.9985 v -43.003 c 0,-0.5514 -0.447,-0.9985 -0.9985,-0.9985 h -43.003 c -0.5514,0 -0.9985,0.447 -0.9985,0.9985 v 44.0015 z"
       id="path2" />
    <path
       fill="#fcea2b"
       stroke="none"
       stroke-linecap="round"
       stroke-linejoin="round"
       stroke-miterlimit="10"
       stroke-width="2"
       d="m 16.1199,12.0107 c 0,-0.5514 0.447,-0.9985 0.9985,-0.9985 h 43.003 c 0.5514,0 0.9985,0.447 0.9985,0.9985 v 43.003 c 0,0.5514 -0.447,0.9985 -0.9985,0.9985"
       id="path3" />
    <path
       fill="#f1b31c"
       stroke="none"
       stroke-linecap="round"
       stroke-linejoin="round"
       stroke-miterlimit="10"
       stroke-width="2"
       d="m 55.1336,61 h -43.003 c -0.5514,0 -0.9985,-0.447 -0.9985,-0.9985 V 54.1187 25.6668 22.4352 16.9985 C 11.1321,16.4471 11.5791,16 12.1306,16 h 43.003 c 0.5514,0 0.9985,0.447 0.9985,0.9985 v 43.003 C 56.1321,60.553 55.685,61 55.1336,61 Z"
       id="path4" />
  </g>
  <g
     id="hair"
     transform="translate(-6,-10.0122)" />
  <g
     id="skin"
     transform="translate(-6,-10.0122)" />
  <g
     id="skin-shadow"
     transform="translate(-6,-10.0122)" />
  <g
     id="line"
     transform="translate(-6,-10.0122)">
    <path
       fill="none"
       stroke="#000000"
       stroke-linecap="round"
       stroke-linejoin="round"
       stroke-miterlimit="10"
       stroke-width="2"
       d="m 16.1199,12.0107 c 0,-0.5514 0.447,-0.9985 0.9985,-0.9985 h 43.003 c 0.5514,0 0.9985,0.447 0.9985,0.9985 v 43.003 c 0,0.5514 -0.447,0.9985 -0.9985,0.9985"
       id="path5" />
    <path
       fill="none"
       stroke="#000000"
       stroke-linecap="round"
       stroke-linejoin="round"
       stroke-miterlimit="10"
       stroke-width="2"
       d="m 55.1336,61 h -43.003 c -0.5514,0 -0.9985,-0.447 -0.9985,-0.9985 V 54.1187 25.6668 22.4352 16.9985 C 11.1321,16.4471 11.5791,16 12.1306,16 h 43.003 c 0.5514,0 0.9985,0.447 0.9985,0.9985 v 43.003 C 56.1321,60.553 55.685,61 55.1336,61 Z"
       id="path6" />
    <line
       x1="7"
       x2="15.7116"
       y1="23.4114"
       y2="23.4114"
       fill="none"
       stroke="#000000"
       stroke-linecap="round"
       stroke-linejoin="round"
       stroke-miterlimit="10"
       stroke-width="2"
       id="line6" />
    <line
       x1="7"
       x2="15.7116"
       y1="29.446899"
       y2="29.446899"
       fill="none"
       stroke="#000000"
       stroke-linecap="round"
       stroke-linejoin="round"
       stroke-miterlimit="10"
       stroke-width="2"
       id="line7" />
    <line
       x1="7"
       x2="15.7116"
       y1="35.4823"
       y2="35.4823"
       fill="none"
       stroke="#000000"
       stroke-linecap="round"
       stroke-linejoin="round"
       stroke-miterlimit="10"
       stroke-width="2"
       id="line8" />
    <line
       x1="15.7116"
       x2="7"
       y1="41.5177"
       y2="41.5177"
       fill="none"
       stroke="#000000"
       stroke-linecap="round"
       stroke-linejoin="round"
       stroke-miterlimit="10"
       stroke-width="2"
       id="line9" />
    <line
       x1="7"
       x2="15.7116"
       y1="47.5532"
       y2="47.5532"
       fill="none"
       stroke="#000000"
       stroke-linecap="round"
       stroke-linejoin="round"
       stroke-miterlimit="10"
       stroke-width="2"
       id="line10" />
    <line
       x1="7"
       x2="15.7116"
       y1="53.5886"
       y2="53.5886"
       fill="none"
       stroke="#000000"
       stroke-linecap="round"
       stroke-linejoin="round"
       stroke-miterlimit="10"
       stroke-width="2"
       id="line11" />
  </g>
</svg>
