<?xml version="1.0" encoding="UTF-8" standalone="no"?>
<svg
   id="emoji"
   viewBox="0 0 47.254879 47.254879"
   version="1.1"
   sodipodi:docname="1f4de.svg"
   width="47.254879"
   height="47.254879"
   xmlns:inkscape="http://www.inkscape.org/namespaces/inkscape"
   xmlns:sodipodi="http://sodipodi.sourceforge.net/DTD/sodipodi-0.dtd"
   xmlns="http://www.w3.org/2000/svg"
   xmlns:svg="http://www.w3.org/2000/svg">
  <defs
     id="defs4" />
  <sodipodi:namedview
     id="namedview4"
     pagecolor="#ffffff"
     bordercolor="#000000"
     borderopacity="0.25"
     inkscape:showpageshadow="2"
     inkscape:pageopacity="0.0"
     inkscape:pagecheckerboard="0"
     inkscape:deskcolor="#d1d1d1" />
  <g
     id="color"
     transform="translate(-12.6707,-11.824522)">
    <path
       fill="#d0cfce"
       d="m 13.6707,21.3098 c 1.4142,9.8995 26.8701,35.3553 36.7696,36.7696 0,0 5.6569,0 8.4853,-5.6569 l -9.1924,-9.1924 -3.5355,3.5355 C 39.1266,45.3514 26.3987,32.6235 24.9845,25.5524 L 28.52,22.0169 19.3276,12.8245 c -5.6569,2.8284 -5.6569,8.4853 -5.6569,8.4853 z"
       id="path1" />
    <path
       fill="#9b9b9a"
       d="m 25,26 -9.0844,-8.9594 2.0831,-2.729 c 0.364,-0.4769 1.06,-0.5357 1.4989,-0.1267 l 8.2523,7.6901 -2.75,4.125 z"
       id="path2" />
    <polygon
       fill="#9b9b9a"
       points="49.68,44.3223 58.1993,52.8075 54.8934,55.9074 46.4524,47.5733 "
       id="polygon2" />
  </g>
  <g
     id="line"
     transform="translate(-12.6707,-11.824522)">
    <path
       fill="none"
       stroke="#000000"
       stroke-linecap="round"
       stroke-linejoin="round"
       stroke-width="2"
       d="m 13.6707,21.3098 c 1.4142,9.8995 26.8701,35.3553 36.7696,36.7696 0,0 5.6569,0 8.4853,-5.6569 l -9.1924,-9.1924 -3.5355,3.5355 C 39.1266,45.3514 26.3987,32.6235 24.9845,25.5524 L 28.52,22.0169 19.3276,12.8245 c -5.6569,2.8284 -5.6569,8.4853 -5.6569,8.4853 z"
       id="path3" />
    <path
       fill="none"
       stroke="#000000"
       stroke-linecap="round"
       stroke-linejoin="round"
       stroke-width="2"
       d="m 13.6707,21.3098 c 1.4142,9.8995 26.8701,35.3553 36.7696,36.7696 0,0 5.6569,0 8.4853,-5.6569 l -9.1924,-9.1924 -3.5355,3.5355 C 39.1266,45.3514 26.3987,32.6235 24.9845,25.5524 L 28.52,22.0169 19.3276,12.8245 c -5.6569,2.8284 -5.6569,8.4853 -5.6569,8.4853 z"
       id="path4" />
  </g>
</svg>
