<svg xmlns="http://www.w3.org/2000/svg" xmlns:svg="http://www.w3.org/2000/svg" id="emoji" width="53.833" height="55.047" version="1.1" viewBox="0 0 53.833 55.047"><g id="color" transform="translate(-11.1667,-6)"><rect id="rect1" width="42" height="47.5" x="18" y="12" fill="#92d3f5"/><path id="path1" fill="#61b2e4" d="m 12.5,12 h 6.4925 l -1.25,47.5 H 15.0064 C 13.346,59.5 12.5,58.154 12.5,56.4936 Z"/></g><g id="line" transform="translate(-11.1667,-6)"><line id="line1" x1="18" x2="18" y1="13" y2="59" fill="none" stroke="#000" stroke-linecap="round" stroke-linejoin="round" stroke-width="2"/><path id="path2" fill="none" stroke="#000" stroke-linecap="round" stroke-linejoin="round" stroke-width="2" d="M 62.9087,54.8149 C 63.5764,54.478 63.9982,53.7946 64,53.0467 V 9.0833 C 64,7.9327 63.0673,7 61.9167,7 H 16.4591 c -1.5975,0 -3.0889,0.7996 -3.9733,2.13 v 0 c -0.5776,0.8688 -0.3416,2.0413 0.5271,2.6189 0.3099,0.206 0.6737,0.316 1.0459,0.316 h 3.8086 l 2.1331,-0.0177 h 39.9162 v 48 H 14.0583 c -1.0289,8e-4 -1.8696,-0.8213 -1.8916,-1.85 V 10.575"/><g id="g4"><polyline id="polyline2" fill="none" stroke="#000" stroke-linecap="round" stroke-linejoin="round" stroke-width="2" points="39.533 27.219 39.533 34.219 42.533 34.219"/><path id="path3" fill="none" stroke="#000" stroke-linecap="round" stroke-linejoin="round" stroke-width="2" d="m 33.7078,34.2187 v 0 c -1.3807,0 -2.5,-1.1193 -2.5,-2.5 v -2 c 0,-1.3807 1.1193,-2.5 2.5,-2.5 v 0 c 1.3807,0 2.5,1.1193 2.5,2.5 v 2 c 0,1.3807 -1.1193,2.5 -2.5,2.5 z"/><circle id="circle3" cx="45.533" cy="34.219" r="1"/><polyline id="polyline3" fill="none" stroke="#000" stroke-linecap="round" stroke-linejoin="round" stroke-width="2" points="28.416 27.29 26.898 34.29 26.208 34.29 25.537 34.29 24 27.29"/><path id="path4" fill="none" stroke="#000" stroke-linecap="round" stroke-linejoin="round" stroke-width="2" d="m 49.5633,32.8214 c 0.2456,0.8558 1.0442,1.4328 1.9338,1.3973 v 0 c 0.9665,0.1166 1.8446,-0.5723 1.9612,-1.5388 0.1167,-0.9665 -0.5723,-1.8446 -1.5388,-1.9612 -0.1403,-0.0169 -0.2821,-0.0169 -0.4224,0 0.9665,0.1166 1.8446,-0.5723 1.9612,-1.5388 0.1167,-0.9665 -0.5723,-1.8446 -1.5388,-1.9612 -0.1403,-0.0169 -0.2821,-0.0169 -0.4224,0 v 0 c -0.8896,-0.0355 -1.6882,0.5416 -1.9338,1.3973"/></g></g></svg>