<svg xmlns="http://www.w3.org/2000/svg" xmlns:svg="http://www.w3.org/2000/svg" id="emoji" width="51.784" height="50.021" version="1.1" viewBox="0 0 51.784 50.021"><g id="color" transform="translate(-15.3112,-10.8647)"><rect id="rect1" width="39.564" height="49.066" x="16.405" y="11.378" fill="#fff"/><polyline id="polyline1" fill="#f4aa41" points="39.931 40.222 51.225 28.928 56.856 36.359 46.356 46.871"/><polyline id="polyline2" fill="#a57939" points="37.941 46.819 39.902 41.17 46.356 47.624 40.708 49.585"/><polyline id="polyline3" fill="#ea5a47" points="55.322 25.58 59.3 21.601 66.035 28.185 62.09 32.13"/><polyline id="polyline4" fill="#d0cfce" points="50.494 29.659 55.102 25.052 61.784 31.791 57.215 36.359"/></g><g id="line" transform="translate(-15.3112,-10.8647)"><polygon id="polygon4" points="36.992 50.857 38.07 47.191 40.456 49.577"/><line id="line4" x1="22.322" x2="49.321" y1="19.875" y2="19.875" fill="none" stroke="#000" stroke-linecap="round" stroke-linejoin="round" stroke-width="2"/><line id="line5" x1="22.322" x2="47.922" y1="27.875" y2="27.875" fill="none" stroke="#000" stroke-linecap="round" stroke-linejoin="round" stroke-width="2"/><line id="line6" x1="22.322" x2="39.431" y1="35.875" y2="35.875" fill="none" stroke="#000" stroke-linecap="round" stroke-linejoin="round" stroke-width="2"/><line id="line7" x1="22.322" x2="34.528" y1="43.875" y2="43.875" fill="none" stroke="#000" stroke-linecap="round" stroke-linejoin="round" stroke-width="2"/><line id="line8" x1="22.322" x2="32.467" y1="51.875" y2="51.875" fill="none" stroke="#000" stroke-linecap="round" stroke-linejoin="round" stroke-width="2"/><polygon id="polygon8" points="36.992 50.857 38.07 47.191 40.456 49.577"/><polygon id="polygon9" fill="none" stroke="#000" stroke-linecap="round" stroke-linejoin="round" stroke-width="2" points="61.946 32.034 55.492 25.58 39.902 41.17 37.928 46.841 40.692 49.591 46.356 47.624"/><polyline id="polyline9" fill="none" stroke="#000" stroke-linecap="round" stroke-linejoin="round" stroke-width="2" points="58.086 22.986 59.641 21.431 66.095 27.885 64.463 29.517"/><line id="line9" x1="40.279" x2="46.733" y1="40.793" y2="47.247" fill="none" stroke="#000" stroke-linecap="round" stroke-linejoin="round" stroke-width="2"/><polyline id="polyline10" fill="none" stroke="#000" stroke-linecap="round" stroke-linejoin="round" stroke-width="2" points="37.932 46.828 36.549 50.977 40.708 49.585"/><line id="line10" x1="51.302" x2="57.195" y1="30.157" y2="36.05" fill="none" stroke="#000" stroke-linecap="round" stroke-linejoin="round" stroke-width="2"/><polyline id="polyline11" fill="none" stroke="#000" stroke-linecap="round" stroke-linejoin="round" stroke-width="2.021" points="55.322 44.228 55.322 59.875 16.322 59.875 16.322 11.875 55.322 11.875 55.322 20.331"/></g></svg>