<?xml version="1.0" encoding="UTF-8" standalone="no"?>
<svg
   id="emoji"
   viewBox="0 0 66 47"
   version="1.1"
   sodipodi:docname="1f4d6.svg"
   width="66"
   height="47"
   xmlns:inkscape="http://www.inkscape.org/namespaces/inkscape"
   xmlns:sodipodi="http://sodipodi.sourceforge.net/DTD/sodipodi-0.dtd"
   xmlns="http://www.w3.org/2000/svg"
   xmlns:svg="http://www.w3.org/2000/svg">
  <defs
     id="defs14" />
  <sodipodi:namedview
     id="namedview14"
     pagecolor="#ffffff"
     bordercolor="#000000"
     borderopacity="0.25"
     inkscape:showpageshadow="2"
     inkscape:pageopacity="0.0"
     inkscape:pagecheckerboard="0"
     inkscape:deskcolor="#d1d1d1" />
  <g
     id="color"
     transform="translate(-3,-15)">
    <path
       fill="#9b9b9a"
       stroke="none"
       stroke-linecap="round"
       stroke-linejoin="round"
       stroke-miterlimit="10"
       stroke-width="2"
       d="m 41,56 c 0,2.7614 -2.2386,5 -5,5 -2.7614,0 -5,-2.2386 -5,-5"
       id="path1" />
    <path
       fill="#d0cfce"
       stroke="none"
       stroke-linecap="round"
       stroke-linejoin="round"
       stroke-miterlimit="10"
       stroke-width="2"
       d="M 67.0015,56 H 4.9985 C 4.447,56 4,55.553 4,55.0015 V 16.9985 C 4,16.447 4.447,16 4.9985,16 h 62.003 C 67.553,16 68,16.447 68,16.9985 v 38.003 C 68,55.553 67.553,56 67.0015,56 Z"
       id="path2" />
    <path
       fill="#ffffff"
       stroke="none"
       stroke-linecap="round"
       stroke-linejoin="round"
       stroke-miterlimit="10"
       stroke-width="2"
       d="M 64.0015,51.625 H 7.9985 C 7.447,51.625 7,51.178 7,50.6265 V 21.3735 C 7,20.8221 7.447,20.375 7.9985,20.375 h 56.003 C 64.553,20.375 65,20.822 65,21.3735 v 29.253 c 0,0.5515 -0.447,0.9985 -0.9985,0.9985 z"
       id="path3" />
  </g>
  <g
     id="hair"
     transform="translate(-3,-15)" />
  <g
     id="skin"
     transform="translate(-3,-15)" />
  <g
     id="skin-shadow"
     transform="translate(-3,-15)" />
  <g
     id="line"
     transform="translate(-3,-15)">
    <path
       fill="none"
       stroke="#000000"
       stroke-linecap="round"
       stroke-linejoin="round"
       stroke-miterlimit="10"
       stroke-width="2"
       d="m 41,56 c 0,2.7614 -2.2386,5 -5,5 -2.7614,0 -5,-2.2386 -5,-5"
       id="path4" />
    <path
       fill="none"
       stroke="#000000"
       stroke-linecap="round"
       stroke-linejoin="round"
       stroke-miterlimit="10"
       stroke-width="2"
       d="M 67.0015,56 H 4.9985 C 4.447,56 4,55.553 4,55.0015 V 16.9985 C 4,16.447 4.447,16 4.9985,16 h 62.003 C 67.553,16 68,16.447 68,16.9985 v 38.003 C 68,55.553 67.553,56 67.0015,56 Z"
       id="path5" />
    <path
       fill="none"
       stroke="#000000"
       stroke-linecap="round"
       stroke-linejoin="round"
       stroke-miterlimit="10"
       stroke-width="2"
       d="M 64.0015,51.625 H 7.9985 C 7.447,51.625 7,51.178 7,50.6265 V 21.3735 C 7,20.8221 7.447,20.375 7.9985,20.375 h 56.003 C 64.553,20.375 65,20.822 65,21.3735 v 29.253 c 0,0.5515 -0.447,0.9985 -0.9985,0.9985 z"
       id="path6" />
    <line
       x1="36"
       x2="36"
       y1="17"
       y2="55"
       fill="none"
       stroke="#000000"
       stroke-linecap="round"
       stroke-linejoin="round"
       stroke-miterlimit="10"
       stroke-width="2"
       id="line6" />
    <line
       x1="11"
       x2="31"
       y1="27"
       y2="27"
       fill="none"
       stroke="#000000"
       stroke-linecap="round"
       stroke-linejoin="round"
       stroke-miterlimit="10"
       stroke-width="2"
       id="line7" />
    <line
       x1="11"
       x2="31"
       y1="33"
       y2="33"
       fill="none"
       stroke="#000000"
       stroke-linecap="round"
       stroke-linejoin="round"
       stroke-miterlimit="10"
       stroke-width="2"
       id="line8" />
    <line
       x1="11"
       x2="31"
       y1="39"
       y2="39"
       fill="none"
       stroke="#000000"
       stroke-linecap="round"
       stroke-linejoin="round"
       stroke-miterlimit="10"
       stroke-width="2"
       id="line9" />
    <line
       x1="11"
       x2="31"
       y1="45"
       y2="45"
       fill="none"
       stroke="#000000"
       stroke-linecap="round"
       stroke-linejoin="round"
       stroke-miterlimit="10"
       stroke-width="2"
       id="line10" />
    <line
       x1="41"
       x2="61"
       y1="27"
       y2="27"
       fill="none"
       stroke="#000000"
       stroke-linecap="round"
       stroke-linejoin="round"
       stroke-miterlimit="10"
       stroke-width="2"
       id="line11" />
    <line
       x1="41"
       x2="61"
       y1="33"
       y2="33"
       fill="none"
       stroke="#000000"
       stroke-linecap="round"
       stroke-linejoin="round"
       stroke-miterlimit="10"
       stroke-width="2"
       id="line12" />
    <line
       x1="41"
       x2="61"
       y1="39"
       y2="39"
       fill="none"
       stroke="#000000"
       stroke-linecap="round"
       stroke-linejoin="round"
       stroke-miterlimit="10"
       stroke-width="2"
       id="line13" />
    <line
       x1="41"
       x2="61"
       y1="45"
       y2="45"
       fill="none"
       stroke="#000000"
       stroke-linecap="round"
       stroke-linejoin="round"
       stroke-miterlimit="10"
       stroke-width="2"
       id="line14" />
  </g>
</svg>
