<svg xmlns="http://www.w3.org/2000/svg" xmlns:svg="http://www.w3.org/2000/svg" id="emoji" width="51.343" height="41.234" version="1.1" viewBox="0 0 51.343 41.234"><g id="color" transform="translate(-10.601458,-15.000004)"><path id="path1" fill="#fff" d="M 61.2167,21.6411 37.911,15.0386 a 1.0068,1.0068 0 0 0 -0.5537,0.0019 l -22.5947,6.627 a 0.9484,0.9484 0 0 0 -0.1365,0.0719 5.3829,5.3829 0 0 0 -1.8343,9.5426 5.3642,5.3642 0 0 0 0.0663,8.6968 5.3776,5.3776 0 0 0 1.4856,9.5022 l 23.0146,6.7128 a 1.0034,1.0034 0 0 0 0.5547,0.002 l 23.3057,-6.6514 a 1.0008,1.0008 0 0 0 0.7255,-0.9619 V 22.603 a 1,1 0 0 0 -0.7275,-0.9619 z"/><polygon id="polygon1" fill="#92d3f5" points="37.638 29.231 15.044 22.603 37.638 15.976 60.944 22.579"/><path id="path2" fill="#61b2e4" d="m 15.0823,24.7275 21.9933,6.4465 a 2,2 0 0 0 1.1113,0.0039 l 23.2947,-6.7653 a 0.613,0.613 0 0 0 0.442,-0.5794 L 61.9425,22.5824 37.6381,29.2547 15.08,22.6425 a 4.4,4.4 0 0 0 -0.4554,8.4813 l 23.014,6.713 24.2115,-6.91 0.04,-1.2423 A 0.6255,0.6255 0 0 0 61.0933,29.063 l -23.4491,6.6922 -22.4226,-6.54 a 2.4,2.4 0 0 1 -0.1393,-4.4873"/><path id="path3" fill="#d22f27" d="m 15.0823,33.4092 21.9933,6.4465 a 1.9988,1.9988 0 0 0 1.1113,0.004 l 23.2947,-6.7653 a 0.6131,0.6131 0 0 0 0.442,-0.5794 L 61.9425,31.2642 37.6381,37.9365 15.08,31.3243 a 4.4,4.4 0 0 0 -0.4554,8.4813 l 23.014,6.713 24.2115,-6.91 0.04,-1.2424 A 0.6254,0.6254 0 0 0 61.0933,37.7448 L 37.6442,44.437 15.2216,37.897 a 2.4,2.4 0 0 1 -0.1393,-4.4873"/><path id="path4" fill="#5c9e31" d="m 15.0823,42.1549 21.9933,6.4465 a 2,2 0 0 0 1.1113,0.0039 L 61.4816,41.84 a 0.613,0.613 0 0 0 0.442,-0.5794 L 61.9425,40.0099 37.6381,46.6821 15.08,40.07 a 4.4,4.4 0 0 0 -0.4554,8.4813 l 23.014,6.713 24.2115,-6.91 0.04,-1.2424 a 0.6254,0.6254 0 0 0 -0.7968,-0.6214 l -23.4491,6.6922 -22.4226,-6.54 a 2.4,2.4 0 0 1 -0.1393,-4.4873"/><polygon id="polygon4" fill="#61b2e4" points="16 22.799 21.81 24.504 44.32 17.794 38.594 16.172"/></g><g id="line" transform="translate(-10.601458,-15.000004)"><polygon id="polygon5" fill="none" stroke="#000" stroke-linecap="round" stroke-linejoin="round" stroke-width="2" points="37.638 29.255 15.044 22.627 37.638 16 60.944 22.603"/><path id="path5" fill="none" stroke="#000" stroke-linecap="round" stroke-linejoin="round" stroke-width="2" d="m 15.08,22.6425 a 4.4,4.4 0 0 0 -0.4554,8.4813 l 23.0141,6.713 23.3057,-6.6516"/><path id="path6" fill="none" stroke="#000" stroke-linecap="round" stroke-linejoin="round" stroke-width="2" d="m 15.08,31.2942 a 4.4,4.4 0 0 0 -0.4554,8.4813 l 23.0141,6.713 23.3057,-6.6516"/><path id="path7" fill="none" stroke="#000" stroke-linecap="round" stroke-linejoin="round" stroke-width="2" d="m 15.08,40.04 a 4.4,4.4 0 0 0 -0.4554,8.4813 l 23.0141,6.713 23.3057,-6.6516"/></g></svg>