<?xml version="1.0" encoding="UTF-8" standalone="no"?>
<svg
   id="emoji"
   viewBox="0 0 54.950451 58.096043"
   version="1.1"
   sodipodi:docname="1f4d1.svg"
   width="54.950451"
   height="58.096043"
   xmlns:inkscape="http://www.inkscape.org/namespaces/inkscape"
   xmlns:sodipodi="http://sodipodi.sourceforge.net/DTD/sodipodi-0.dtd"
   xmlns="http://www.w3.org/2000/svg"
   xmlns:svg="http://www.w3.org/2000/svg">
  <defs
     id="defs10" />
  <sodipodi:namedview
     id="namedview10"
     pagecolor="#ffffff"
     bordercolor="#000000"
     borderopacity="0.25"
     inkscape:showpageshadow="2"
     inkscape:pageopacity="0.0"
     inkscape:pagecheckerboard="0"
     inkscape:deskcolor="#d1d1d1" />
  <g
     id="color"
     transform="translate(-8.5407745,-6.944719)">
    <path
       fill="#ffffff"
       stroke="#ffffff"
       stroke-linejoin="round"
       stroke-width="2"
       d="m 14.85,64.04 0.05537,-5.257 -5.343,-0.03324 v -50.79 h 28.89 l 5.287,5.291 h 11.3 v 50.79 z"
       id="path1" />
    <polyline
       transform="matrix(1.057,0,0,1.058,-8.414,-4.737)"
       fill="#d0cfce"
       stroke-width="0.9454"
       points="54.92 23 44 11.65 44 23"
       id="polyline1" />
    <polygon
       transform="matrix(1.057,0,0,1.058,-8.414,-4.737)"
       fill="#92d3f5"
       stroke-width="0.9454"
       points="67,34 59.55,34 57.71,31.52 59.55,29.04 67,29.04 "
       id="polygon1" />
    <polygon
       transform="matrix(1.057,0,0,1.058,-8.414,-4.737)"
       fill="#ea5a47"
       stroke-width="0.9454"
       points="62,52.96 54.55,52.96 52.71,50.48 54.55,48 62,48 "
       id="polygon2" />
  </g>
  <g
     id="line"
     transform="translate(-8.5407745,-6.944719)">
    <polyline
       transform="matrix(1.059,0,0,1.058,-8.462,-4.752)"
       fill="none"
       stroke="#000000"
       stroke-linecap="round"
       stroke-linejoin="round"
       stroke-width="1.889"
       points="60 28.75 60 17 49.32 17"
       id="polyline2" />
    <line
       x1="55.060001"
       x2="55.060001"
       y1="45.529999"
       y2="31.68"
       fill="none"
       stroke="#000000"
       stroke-linecap="round"
       stroke-linejoin="round"
       stroke-width="2"
       id="line2" />
    <polyline
       transform="matrix(1.059,0,0,1.058,-8.462,-4.752)"
       fill="none"
       stroke="#000000"
       stroke-linecap="round"
       stroke-linejoin="round"
       stroke-width="1.889"
       points="22 63.09 22 65 60 65 60 53.33"
       id="polyline3" />
    <polyline
       transform="matrix(1.059,0,0,1.058,-8.462,-4.752)"
       fill="none"
       stroke="#000000"
       stroke-linecap="round"
       stroke-linejoin="round"
       stroke-width="1.889"
       points="55 48 55 22.68 44.32 12 17 12 17 60 55 60 55 53"
       id="polyline4" />
    <polyline
       transform="matrix(1.059,0,0,1.058,-8.462,-4.752)"
       fill="none"
       stroke="#000000"
       stroke-linecap="round"
       stroke-linejoin="round"
       stroke-width="1.889"
       points="55 23 44.3 23 44.32 12"
       id="polyline5" />
    <polygon
       transform="matrix(1.059,0,0,1.058,-8.462,-4.752)"
       fill="none"
       stroke="#000000"
       stroke-linecap="round"
       stroke-linejoin="round"
       stroke-width="1.889"
       points="59.55,29.04 67,29.04 67,34 59.55,34 57.71,31.52 "
       id="polygon5" />
    <polygon
       transform="matrix(1.059,0,0,1.058,-8.462,-4.752)"
       fill="none"
       stroke="#000000"
       stroke-linecap="round"
       stroke-linejoin="round"
       stroke-width="1.889"
       points="54.55,48 62,48 62,52.96 54.55,52.96 52.71,50.48 "
       id="polygon6" />
    <line
       x1="15.89"
       x2="30.709999"
       y1="17.48"
       y2="17.48"
       fill="none"
       stroke="#000000"
       stroke-linecap="round"
       stroke-linejoin="round"
       stroke-width="2"
       id="line6" />
    <line
       x1="15.89"
       x2="43.41"
       y1="25.940001"
       y2="25.940001"
       fill="none"
       stroke="#000000"
       stroke-linecap="round"
       stroke-linejoin="round"
       stroke-width="2"
       id="line7" />
    <line
       x1="15.89"
       x2="43.41"
       y1="33.349998"
       y2="33.349998"
       fill="none"
       stroke="#000000"
       stroke-linecap="round"
       stroke-linejoin="round"
       stroke-width="2"
       id="line8" />
    <line
       x1="15.89"
       x2="43.41"
       y1="41.82"
       y2="41.82"
       fill="none"
       stroke="#000000"
       stroke-linecap="round"
       stroke-linejoin="round"
       stroke-width="2"
       id="line9" />
    <line
       x1="15.89"
       x2="43.41"
       y1="50.290001"
       y2="50.290001"
       fill="none"
       stroke="#000000"
       stroke-linecap="round"
       stroke-linejoin="round"
       stroke-width="2"
       id="line10" />
  </g>
</svg>
