<svg xmlns="http://www.w3.org/2000/svg" xmlns:svg="http://www.w3.org/2000/svg" id="emoji" width="66" height="47" version="1.1" viewBox="0 0 66 47"><g id="color" transform="translate(-3,-15)"><path id="path1" fill="#9b9b9a" stroke="none" stroke-linecap="round" stroke-linejoin="round" stroke-miterlimit="10" stroke-width="2" d="m 41,56 c 0,2.7614 -2.2386,5 -5,5 -2.7614,0 -5,-2.2386 -5,-5"/><path id="path2" fill="#d0cfce" stroke="none" stroke-linecap="round" stroke-linejoin="round" stroke-miterlimit="10" stroke-width="2" d="M 67.0015,56 H 4.9985 C 4.447,56 4,55.553 4,55.0015 V 16.9985 C 4,16.447 4.447,16 4.9985,16 h 62.003 C 67.553,16 68,16.447 68,16.9985 v 38.003 C 68,55.553 67.553,56 67.0015,56 Z"/><path id="path3" fill="#fff" stroke="none" stroke-linecap="round" stroke-linejoin="round" stroke-miterlimit="10" stroke-width="2" d="M 64.0015,51.625 H 7.9985 C 7.447,51.625 7,51.178 7,50.6265 V 21.3735 C 7,20.8221 7.447,20.375 7.9985,20.375 h 56.003 C 64.553,20.375 65,20.822 65,21.3735 v 29.253 c 0,0.5515 -0.447,0.9985 -0.9985,0.9985 z"/></g><g id="line" transform="translate(-3,-15)"><path id="path4" fill="none" stroke="#000" stroke-linecap="round" stroke-linejoin="round" stroke-miterlimit="10" stroke-width="2" d="m 41,56 c 0,2.7614 -2.2386,5 -5,5 -2.7614,0 -5,-2.2386 -5,-5"/><path id="path5" fill="none" stroke="#000" stroke-linecap="round" stroke-linejoin="round" stroke-miterlimit="10" stroke-width="2" d="M 67.0015,56 H 4.9985 C 4.447,56 4,55.553 4,55.0015 V 16.9985 C 4,16.447 4.447,16 4.9985,16 h 62.003 C 67.553,16 68,16.447 68,16.9985 v 38.003 C 68,55.553 67.553,56 67.0015,56 Z"/><path id="path6" fill="none" stroke="#000" stroke-linecap="round" stroke-linejoin="round" stroke-miterlimit="10" stroke-width="2" d="M 64.0015,51.625 H 7.9985 C 7.447,51.625 7,51.178 7,50.6265 V 21.3735 C 7,20.8221 7.447,20.375 7.9985,20.375 h 56.003 C 64.553,20.375 65,20.822 65,21.3735 v 29.253 c 0,0.5515 -0.447,0.9985 -0.9985,0.9985 z"/><line id="line6" x1="36" x2="36" y1="17" y2="55" fill="none" stroke="#000" stroke-linecap="round" stroke-linejoin="round" stroke-miterlimit="10" stroke-width="2"/><line id="line7" x1="11" x2="31" y1="27" y2="27" fill="none" stroke="#000" stroke-linecap="round" stroke-linejoin="round" stroke-miterlimit="10" stroke-width="2"/><line id="line8" x1="11" x2="31" y1="33" y2="33" fill="none" stroke="#000" stroke-linecap="round" stroke-linejoin="round" stroke-miterlimit="10" stroke-width="2"/><line id="line9" x1="11" x2="31" y1="39" y2="39" fill="none" stroke="#000" stroke-linecap="round" stroke-linejoin="round" stroke-miterlimit="10" stroke-width="2"/><line id="line10" x1="11" x2="31" y1="45" y2="45" fill="none" stroke="#000" stroke-linecap="round" stroke-linejoin="round" stroke-miterlimit="10" stroke-width="2"/><line id="line11" x1="41" x2="61" y1="27" y2="27" fill="none" stroke="#000" stroke-linecap="round" stroke-linejoin="round" stroke-miterlimit="10" stroke-width="2"/><line id="line12" x1="41" x2="61" y1="33" y2="33" fill="none" stroke="#000" stroke-linecap="round" stroke-linejoin="round" stroke-miterlimit="10" stroke-width="2"/><line id="line13" x1="41" x2="61" y1="39" y2="39" fill="none" stroke="#000" stroke-linecap="round" stroke-linejoin="round" stroke-miterlimit="10" stroke-width="2"/><line id="line14" x1="41" x2="61" y1="45" y2="45" fill="none" stroke="#000" stroke-linecap="round" stroke-linejoin="round" stroke-miterlimit="10" stroke-width="2"/></g></svg>