<?xml version="1.0" encoding="UTF-8" standalone="no"?>
<svg
   id="emoji"
   viewBox="0 0 40.779064 42.024754"
   version="1.1"
   sodipodi:docname="1f4d0.svg"
   width="40.779064"
   height="42.024754"
   xmlns:inkscape="http://www.inkscape.org/namespaces/inkscape"
   xmlns:sodipodi="http://sodipodi.sourceforge.net/DTD/sodipodi-0.dtd"
   xmlns="http://www.w3.org/2000/svg"
   xmlns:svg="http://www.w3.org/2000/svg">
  <defs
     id="defs16" />
  <sodipodi:namedview
     id="namedview16"
     pagecolor="#ffffff"
     bordercolor="#000000"
     borderopacity="0.25"
     inkscape:showpageshadow="2"
     inkscape:pageopacity="0.0"
     inkscape:pagecheckerboard="0"
     inkscape:deskcolor="#d1d1d1" />
  <g
     id="color"
     transform="translate(-16.0652,-15.0559)">
    <path
       fill="#d0cfce"
       stroke="none"
       d="m 17.1601,15.9546 0.252,39.4373 38.6183,-39.4373 z m 5.2503,16.4361 V 22.1629 c 0,-0.208 0.0871,-0.4079 0.2418,-0.555 0.0773,-0.0733 0.1686,-0.1306 0.2678,-0.1697 0.0992,-0.039 0.2064,-0.0597 0.3156,-0.0597 0,0 10e-5,0 8e-4,0 v 0 l 10.4243,0.0065 c 0.0828,10e-5 0.1636,0.0119 0.2402,0.0342 0.2298,0.0668 0.4223,0.2271 0.5189,0.4445 0.0323,0.0726 0.0523,0.1479 0.0607,0.2238 0.025,0.2273 -0.0554,0.4583 -0.2283,0.628 L 23.8279,32.9369 v 0 0 c -0.1579,0.1555 -0.3731,0.2382 -0.5923,0.2382 -0.1048,0 -0.2095,-0.0184 -0.3103,-0.0574 -0.2332,-0.0902 -0.4063,-0.2743 -0.4782,-0.4955 -0.024,-0.0738 -0.0367,-0.1516 -0.0367,-0.2315 z"
       id="path1" />
    <polygon
       fill="#9b9b9a"
       stroke="none"
       points="17.2476,48.8119 17.1744,55.7579 55.5612,16.2148 48.7852,16.3821 "
       id="polygon1" />
    <line
       x1="23.854799"
       x2="22.565701"
       y1="43.289101"
       y2="42.0462"
       fill="#d0cfce"
       stroke="none"
       stroke-linecap="round"
       stroke-linejoin="round"
       stroke-miterlimit="10"
       stroke-width="2"
       id="line1" />
    <line
       x1="29.4076"
       x2="28.1185"
       y1="37.529999"
       y2="36.287201"
       fill="#d0cfce"
       stroke="none"
       stroke-linecap="round"
       stroke-linejoin="round"
       stroke-miterlimit="10"
       stroke-width="2"
       id="line2" />
    <line
       x1="32.183899"
       x2="30.894899"
       y1="34.6506"
       y2="33.4077"
       fill="#d0cfce"
       stroke="none"
       stroke-linecap="round"
       stroke-linejoin="round"
       stroke-miterlimit="10"
       stroke-width="2"
       id="line3" />
    <line
       x1="34.9604"
       x2="33.671299"
       y1="31.771099"
       y2="30.528099"
       fill="#d0cfce"
       stroke="none"
       stroke-linecap="round"
       stroke-linejoin="round"
       stroke-miterlimit="10"
       stroke-width="2"
       id="line4" />
    <line
       x1="37.736698"
       x2="36.447701"
       y1="28.8915"
       y2="27.6486"
       fill="#d0cfce"
       stroke="none"
       stroke-linecap="round"
       stroke-linejoin="round"
       stroke-miterlimit="10"
       stroke-width="2"
       id="line5" />
    <line
       x1="43.2896"
       x2="42.0005"
       y1="23.1325"
       y2="21.889601"
       fill="#d0cfce"
       stroke="none"
       stroke-linecap="round"
       stroke-linejoin="round"
       stroke-miterlimit="10"
       stroke-width="2"
       id="line6" />
    <line
       x1="26.719101"
       x2="24.5194"
       y1="40.4944"
       y2="38.373402"
       fill="#d0cfce"
       stroke="none"
       stroke-linecap="round"
       stroke-linejoin="round"
       stroke-miterlimit="10"
       stroke-width="2"
       id="line7" />
    <line
       x1="40.6012"
       x2="38.401299"
       y1="26.096901"
       y2="23.9758"
       fill="#d0cfce"
       stroke="none"
       stroke-linecap="round"
       stroke-linejoin="round"
       stroke-miterlimit="10"
       stroke-width="2"
       id="line8" />
  </g>
  <g
     id="hair"
     transform="translate(-16.0652,-15.0559)" />
  <g
     id="skin"
     transform="translate(-16.0652,-15.0559)" />
  <g
     id="skin-shadow"
     transform="translate(-16.0652,-15.0559)" />
  <g
     id="line"
     transform="translate(-16.0652,-15.0559)">
    <polygon
       fill="none"
       stroke="#000000"
       stroke-linecap="round"
       stroke-linejoin="round"
       stroke-miterlimit="10"
       stroke-width="2"
       points="55.8444,16.081 17.0652,56.0808 17.0652,16.0559 "
       id="polygon8" />
    <polygon
       fill="none"
       stroke="#000000"
       stroke-linecap="round"
       stroke-linejoin="round"
       stroke-miterlimit="10"
       stroke-width="2"
       points="35.175,21.3418 22.5418,34.3726 22.5418,21.3336 "
       id="polygon9" />
    <line
       x1="23.854799"
       x2="22.565701"
       y1="43.289101"
       y2="42.0462"
       fill="none"
       stroke="#000000"
       stroke-linecap="round"
       stroke-linejoin="round"
       stroke-miterlimit="10"
       stroke-width="2"
       id="line9" />
    <line
       x1="29.4076"
       x2="28.1185"
       y1="37.529999"
       y2="36.287201"
       fill="none"
       stroke="#000000"
       stroke-linecap="round"
       stroke-linejoin="round"
       stroke-miterlimit="10"
       stroke-width="2"
       id="line10" />
    <line
       x1="32.183899"
       x2="30.894899"
       y1="34.6506"
       y2="33.4077"
       fill="none"
       stroke="#000000"
       stroke-linecap="round"
       stroke-linejoin="round"
       stroke-miterlimit="10"
       stroke-width="2"
       id="line11" />
    <line
       x1="34.9604"
       x2="33.671299"
       y1="31.771099"
       y2="30.528099"
       fill="none"
       stroke="#000000"
       stroke-linecap="round"
       stroke-linejoin="round"
       stroke-miterlimit="10"
       stroke-width="2"
       id="line12" />
    <line
       x1="37.736698"
       x2="36.447701"
       y1="28.8915"
       y2="27.6486"
       fill="none"
       stroke="#000000"
       stroke-linecap="round"
       stroke-linejoin="round"
       stroke-miterlimit="10"
       stroke-width="2"
       id="line13" />
    <line
       x1="43.2896"
       x2="42.0005"
       y1="23.1325"
       y2="21.889601"
       fill="none"
       stroke="#000000"
       stroke-linecap="round"
       stroke-linejoin="round"
       stroke-miterlimit="10"
       stroke-width="2"
       id="line14" />
    <line
       x1="26.719101"
       x2="24.5194"
       y1="40.4944"
       y2="38.373402"
       fill="none"
       stroke="#000000"
       stroke-linecap="round"
       stroke-linejoin="round"
       stroke-miterlimit="10"
       stroke-width="2"
       id="line15" />
    <line
       x1="40.6012"
       x2="38.401299"
       y1="26.096901"
       y2="23.9758"
       fill="none"
       stroke="#000000"
       stroke-linecap="round"
       stroke-linejoin="round"
       stroke-miterlimit="10"
       stroke-width="2"
       id="line16" />
  </g>
</svg>
