<svg xmlns="http://www.w3.org/2000/svg" xmlns:svg="http://www.w3.org/2000/svg" id="emoji" width="56.12" height="51.988" version="1.1" viewBox="0 0 56.12 51.988"><g id="color" transform="translate(-6,-10.0122)"><path id="path1" fill="#fcea2b" stroke="none" d="m 60.1001,57.0799 c 0.5632,0 1.0198,-0.4576 1.0198,-1.0222 V 12.0344 c 0,-0.5645 -0.4566,-1.0222 -1.0198,-1.0222 h -43.922 c -0.5632,0 -1.0198,0.4576 -1.0198,1.0222 V 39.163 L 51.2191,57.08 h 8.881 z"/><path id="path2" fill="#fcea2b" stroke="none" d="m 60.1214,56.0122 c 0.5514,0 0.9985,-0.447 0.9985,-0.9985 v -43.003 c 0,-0.5514 -0.447,-0.9985 -0.9985,-0.9985 h -43.003 c -0.5514,0 -0.9985,0.447 -0.9985,0.9985 v 44.0015 z"/><path id="path3" fill="#fcea2b" stroke="none" stroke-linecap="round" stroke-linejoin="round" stroke-miterlimit="10" stroke-width="2" d="m 16.1199,12.0107 c 0,-0.5514 0.447,-0.9985 0.9985,-0.9985 h 43.003 c 0.5514,0 0.9985,0.447 0.9985,0.9985 v 43.003 c 0,0.5514 -0.447,0.9985 -0.9985,0.9985"/><path id="path4" fill="#f1b31c" stroke="none" stroke-linecap="round" stroke-linejoin="round" stroke-miterlimit="10" stroke-width="2" d="m 55.1336,61 h -43.003 c -0.5514,0 -0.9985,-0.447 -0.9985,-0.9985 V 54.1187 25.6668 22.4352 16.9985 C 11.1321,16.4471 11.5791,16 12.1306,16 h 43.003 c 0.5514,0 0.9985,0.447 0.9985,0.9985 v 43.003 C 56.1321,60.553 55.685,61 55.1336,61 Z"/></g><g id="line" transform="translate(-6,-10.0122)"><path id="path5" fill="none" stroke="#000" stroke-linecap="round" stroke-linejoin="round" stroke-miterlimit="10" stroke-width="2" d="m 16.1199,12.0107 c 0,-0.5514 0.447,-0.9985 0.9985,-0.9985 h 43.003 c 0.5514,0 0.9985,0.447 0.9985,0.9985 v 43.003 c 0,0.5514 -0.447,0.9985 -0.9985,0.9985"/><path id="path6" fill="none" stroke="#000" stroke-linecap="round" stroke-linejoin="round" stroke-miterlimit="10" stroke-width="2" d="m 55.1336,61 h -43.003 c -0.5514,0 -0.9985,-0.447 -0.9985,-0.9985 V 54.1187 25.6668 22.4352 16.9985 C 11.1321,16.4471 11.5791,16 12.1306,16 h 43.003 c 0.5514,0 0.9985,0.447 0.9985,0.9985 v 43.003 C 56.1321,60.553 55.685,61 55.1336,61 Z"/><line id="line6" x1="7" x2="15.712" y1="23.411" y2="23.411" fill="none" stroke="#000" stroke-linecap="round" stroke-linejoin="round" stroke-miterlimit="10" stroke-width="2"/><line id="line7" x1="7" x2="15.712" y1="29.447" y2="29.447" fill="none" stroke="#000" stroke-linecap="round" stroke-linejoin="round" stroke-miterlimit="10" stroke-width="2"/><line id="line8" x1="7" x2="15.712" y1="35.482" y2="35.482" fill="none" stroke="#000" stroke-linecap="round" stroke-linejoin="round" stroke-miterlimit="10" stroke-width="2"/><line id="line9" x1="15.712" x2="7" y1="41.518" y2="41.518" fill="none" stroke="#000" stroke-linecap="round" stroke-linejoin="round" stroke-miterlimit="10" stroke-width="2"/><line id="line10" x1="7" x2="15.712" y1="47.553" y2="47.553" fill="none" stroke="#000" stroke-linecap="round" stroke-linejoin="round" stroke-miterlimit="10" stroke-width="2"/><line id="line11" x1="7" x2="15.712" y1="53.589" y2="53.589" fill="none" stroke="#000" stroke-linecap="round" stroke-linejoin="round" stroke-miterlimit="10" stroke-width="2"/></g></svg>