<svg xmlns="http://www.w3.org/2000/svg" xmlns:svg="http://www.w3.org/2000/svg" id="emoji" width="51" height="51" version="1.1" viewBox="0 0 51 51"><g id="color" transform="translate(-10,-10.9092)"><polygon id="polygon1" fill="#fff" stroke="none" points="60 11.909 15.998 11.909 11.998 15.909 11 57.697 60 57.697"/><path id="path1" fill="#9b9b9a" stroke="none" stroke-linecap="round" stroke-linejoin="round" stroke-miterlimit="10" stroke-width="2" d="M 55.0015,60.9092 H 11.9985 C 11.4471,60.9092 11,60.4622 11,59.9107 v -43.003 c 0,-0.5514 0.447,-0.9985 0.9985,-0.9985 h 43.003 c 0.5514,0 0.9985,0.447 0.9985,0.9985 v 43.003 c 0,0.5514 -0.447,0.9985 -0.9985,0.9985 z"/></g><g id="line" transform="translate(-10,-10.9092)"><path id="path2" fill="none" stroke="#000" stroke-linecap="round" stroke-linejoin="round" stroke-miterlimit="10" stroke-width="2" d="m 11,16.9092 4.9985,-5 h 43.003 c 0.5514,0 0.9985,0.447 0.9985,0.9985 v 43.003 c 0,0.5514 -0.447,0.9985 -0.9985,0.9985"/><path id="path3" fill="none" stroke="#000" stroke-linecap="round" stroke-linejoin="round" stroke-miterlimit="10" stroke-width="2" d="M 55.0015,60.9092 H 11.9985 C 11.4471,60.9092 11,60.4622 11,59.9107 v -43.003 c 0,-0.5514 0.447,-0.9985 0.9985,-0.9985 h 43.003 c 0.5514,0 0.9985,0.447 0.9985,0.9985 v 43.003 c 0,0.5514 -0.447,0.9985 -0.9985,0.9985 z"/><polyline id="polyline3" fill="none" stroke="#000" stroke-linecap="round" stroke-linejoin="round" stroke-miterlimit="10" stroke-width="2" points="47.358 29.799 43.358 29.799 43.358 36.798 47.358 36.798"/><line id="line3" x1="43.358" x2="46.358" y1="33.298" y2="33.298" fill="none" stroke="#000" stroke-linecap="round" stroke-linejoin="round" stroke-miterlimit="10" stroke-width="2"/><polyline id="polyline4" fill="none" stroke="#000" stroke-linecap="round" stroke-linejoin="round" stroke-miterlimit="10" stroke-width="2" points="19.642 36.798 19.642 29.799 24.642 36.798 24.642 29.799"/><path id="path4" fill="none" stroke="#000" stroke-linecap="round" stroke-linejoin="round" stroke-miterlimit="10" stroke-width="2" d="m 30.8583,36.7985 v 0 c -1.3807,0 -2.5,-1.1193 -2.5,-2.5 v -2 c 0,-1.3807 1.1193,-2.5 2.5,-2.5 v 0 c 1.3807,0 2.5,1.1193 2.5,2.5 v 2 c 0,1.3807 -1.1193,2.5 -2.5,2.5 z"/><line id="line4" x1="36.358" x2="40.358" y1="29.829" y2="29.829" fill="none" stroke="#000" stroke-linecap="round" stroke-linejoin="round" stroke-miterlimit="10" stroke-width="2"/><line id="line5" x1="38.358" x2="38.358" y1="29.829" y2="36.829" fill="none" stroke="#000" stroke-linecap="round" stroke-linejoin="round" stroke-miterlimit="10" stroke-width="2"/></g></svg>