<?xml version="1.0" encoding="UTF-8" standalone="no"?>
<svg
   id="emoji"
   viewBox="0 0 51.943268 39.589199"
   version="1.1"
   sodipodi:docname="1f4e9.svg"
   width="51.943268"
   height="39.589199"
   xmlns:inkscape="http://www.inkscape.org/namespaces/inkscape"
   xmlns:sodipodi="http://sodipodi.sourceforge.net/DTD/sodipodi-0.dtd"
   xmlns="http://www.w3.org/2000/svg"
   xmlns:svg="http://www.w3.org/2000/svg">
  <defs
     id="defs13" />
  <sodipodi:namedview
     id="namedview13"
     pagecolor="#ffffff"
     bordercolor="#000000"
     borderopacity="0.25"
     inkscape:showpageshadow="2"
     inkscape:pageopacity="0.0"
     inkscape:pagecheckerboard="0"
     inkscape:deskcolor="#d1d1d1" />
  <g
     id="color"
     transform="translate(-9.8242306,-16.1874)">
    <rect
       x="20.280001"
       y="23.5625"
       width="31.719999"
       height="3.125"
       fill="#d0cfce"
       id="rect1" />
    <path
       fill="#d0cfce"
       d="m 28.2272,40.7829 -3.2868,3.2264 -2.2014,-0.9 -11.3415,10.4474 c -0.35,-0.6201 -0.57,-1.44 -0.57,-2.32 v -26.51 z"
       id="path1" />
    <path
       fill="#9b9b9a"
       d="m 60.7675,24.6767 v 26.56 c 0,0.86 -0.2,1.65 -0.55,2.27 L 48.7783,43.0324 47.2551,43.2293 43.782,40.4221 47.7568,36.6765 Z"
       id="path2" />
    <path
       fill="#d0cfce"
       d="m 26.7475,39.4167 4.47,4.13 c 0.24,0.22 0.48,0.41 0.72,0.57 2.4301,1.8 5.26,1.8 7.6801,-0.01 0.23,-0.16 0.47,-0.36 0.69,-0.56 l 4.5,-4.15"
       id="path3" />
    <path
       fill="#d0cfce"
       stroke="#d0cfce"
       stroke-linecap="round"
       stroke-linejoin="round"
       stroke-width="1.8"
       d="m 26.7475,39.4167 4.47,4.13 c 0.24,0.22 0.48,0.41 0.72,0.57 2.4301,1.8 5.26,1.8 7.6801,-0.01 0.23,-0.16 0.47,-0.36 0.69,-0.56 l 4.5,-4.15 15.41,14.11 c -0.42,0.77 -1.07,1.27 -1.79,1.27 h -45.26 c -0.7,0 -1.34,-0.47 -1.77,-1.22 l 15.3499,-14.14"
       id="path4" />
    <path
       fill="#d0cfce"
       d="m 47.872,42.2026 12.3455,11.304 c -0.42,0.77 -1.07,1.27 -1.79,1.27 h -45.26 c -0.7,0 -1.34,-0.47 -1.77,-1.22 l 12.0782,-11.126"
       id="path5" />
    <path
       fill="#d0cfce"
       d="m 49.5942,23.5667 h 9.46 c 0.59,0 1.16,0.35 1.57,0.91 0.05,0.06 0.1,0.13 0.14,0.2 l -15.96,14.72 -4.5,4.15 c -0.22,0.2 -0.46,0.4 -0.69,0.56 -2.42,1.81 -5.25,1.81 -7.68,0.01 -0.24,-0.16 -0.48,-0.35 -0.72,-0.57 l -4.47,-4.13 -15.92,-14.69 c 0.04,-0.06 0.09,-0.13 0.14,-0.2 0.42,-0.6 0.99,-0.96 1.61,-0.96 h 8.48"
       id="path6" />
    <path
       fill="#ea5a47"
       d="m 29.9493,23.5974 h 1.5889 c 0.5519,0 0.9994,-0.4474 0.9994,-0.9994 v -4.4112 c 0,-0.5519 0.4474,-0.9994 0.9994,-0.9994 h 4.3313 c 0.5519,0 0.9994,0.4474 0.9994,0.9994 v 4.6612 c 0,0.5519 0.4474,0.7494 0.9994,0.7494 h 1.5788 c 0.8109,0 1.2842,0.1649 0.8157,0.8268 l -5.7482,8.1208 c -0.3983,0.5627 -1.2331,0.5627 -1.6314,0 l -5.7482,-7.8708 c -0.4687,-0.6619 0.0046,-1.0768 0.8155,-1.0768 z"
       id="path7" />
  </g>
  <g
     id="line"
     transform="translate(-9.8242306,-16.1874)">
    <path
       fill="none"
       stroke="#000000"
       stroke-linecap="round"
       stroke-linejoin="round"
       stroke-width="2"
       d="M 22.739,43.1093 11.3975,53.5567 c -0.35,-0.6201 -0.57,-1.44 -0.57,-2.32 v -26.51 l 17.3997,16.0562"
       id="path8" />
    <path
       fill="none"
       stroke="#000000"
       stroke-linecap="round"
       stroke-linejoin="round"
       stroke-width="2"
       d="m 43.782,40.4221 3.9748,-3.7456 13.0107,-11.9998 v 26.56 c 0,0.86 -0.2,1.65 -0.55,2.27 L 48.7783,43.0324"
       id="path9" />
    <path
       fill="none"
       stroke="#000000"
       stroke-linecap="round"
       stroke-linejoin="round"
       stroke-width="2"
       d="m 26.7475,39.4167 4.47,4.13 c 0.24,0.22 0.48,0.41 0.72,0.57 2.4301,1.8 5.26,1.8 7.6801,-0.01 0.23,-0.16 0.47,-0.36 0.69,-0.56 l 4.5,-4.15"
       id="path10" />
    <path
       fill="none"
       stroke="#000000"
       stroke-linecap="round"
       stroke-linejoin="round"
       stroke-width="2"
       d="m 47.872,42.2026 12.3455,11.304 c -0.42,0.77 -1.07,1.27 -1.79,1.27 h -45.26 c -0.7,0 -1.34,-0.47 -1.77,-1.22 l 12.0782,-11.126"
       id="path11" />
    <path
       fill="none"
       stroke="#000000"
       stroke-linecap="round"
       stroke-linejoin="round"
       stroke-width="2"
       d="m 49.5942,23.5667 h 9.46 c 0.59,0 1.16,0.35 1.57,0.91 0.05,0.06 0.1,0.13 0.14,0.2 l -15.96,14.72 -4.5,4.15 c -0.22,0.2 -0.46,0.4 -0.69,0.56 -2.42,1.81 -5.25,1.81 -7.68,0.01 -0.24,-0.16 -0.48,-0.35 -0.72,-0.57 l -4.47,-4.13 -15.92,-14.69 c 0.04,-0.06 0.09,-0.13 0.14,-0.2 0.42,-0.6 0.99,-0.96 1.61,-0.96 h 8.48"
       id="path12" />
    <path
       fill="none"
       stroke="#000000"
       stroke-linecap="round"
       stroke-miterlimit="10"
       stroke-width="2"
       d="m 29.9493,23.5974 h 1.5889 c 0.5519,0 0.9994,-0.4474 0.9994,-0.9994 v -4.4112 c 0,-0.5519 0.4474,-0.9994 0.9994,-0.9994 h 4.3313 c 0.5519,0 0.9994,0.4474 0.9994,0.9994 v 4.4112 c 0,0.5519 0.4474,0.9994 0.9994,0.9994 h 1.5788 c 0.8109,0 1.2842,0.4149 0.8157,1.0768 l -5.7482,8.3708 c -0.3983,0.5627 -1.2331,0.5627 -1.6314,0 l -5.7482,-8.3708 c -0.4687,-0.6619 0.0046,-1.0768 0.8155,-1.0768 z"
       id="path13" />
  </g>
</svg>
