<svg xmlns="http://www.w3.org/2000/svg" xmlns:svg="http://www.w3.org/2000/svg" id="emoji" width="47.548" height="46.066" version="1.1" viewBox="0 0 47.548 46.066"><g id="color" transform="translate(-12.2839,-14.9332)"><path id="path1" fill="#d0cfce" d="m 14.276,31.5192 h 3.2117 l -0.0234,-1.1721 -3.2401,0.0106 c -0.0434,0.3279 0.0085,0.8336 0.0519,1.1615 z"/><polygon id="polygon1" fill="#9b9b9a" points="51.704 38.197 48.8 59.999 52.448 59.999 54.953 38.197"/><path id="path2" fill="#d0cfce" d="m 47.6445,29.3771 c 0.0569,0.5118 0.0938,1.0293 0.0938,1.556 0,-0.5267 -0.0369,-1.0442 -0.0938,-1.556 z"/><path id="path3" fill="#d0cfce" d="M 48.8004,29.3771 C 48.3893,25.6818 46.3003,21.6696 42.9909,19.1279 40.3338,17.0872 36.7382,16.1462 33.7378,15.9332 l 0.2712,26.9989 c 0.2486,0.6495 -0.3346,2.4231 0.6547,2.6473 2.0178,0.4572 6.3562,-1.3102 8.0762,-2.6473 1.7857,-1.3882 3.8837,-3.5192 4.9515,-6.3317 0.9164,-2.4136 0.9159,-5.4874 1.109,-7.2233 z"/><path id="path4" fill="#9b9b9a" d="m 34.7383,41.7864 -1.2595,0.1084 0.259,4.0384 c 2.2672,-0.1608 8.4311,-2.5655 10.2455,-4.0463 2.9667,-2.4215 4.7545,-5.8777 4.7545,-10.9537 0,-0.5267 0,-1.7478 -1.0933,-1.5561 -0.7412,6.6622 -6.1689,11.9313 -12.9062,12.4093 z"/><path id="path5" fill="#3f3f3f" d="m 52.7421,27.7526 -3.4453,-0.0401 c -0.499,0.189 -0.6415,5.5357 -0.0034,6.2814 h 3.0961 c 0,0 2.7955,-0.5886 2.4704,-3.7291 -0.3754,-2.5138 -1.5545,-2.5138 -2.1178,-2.5122 z"/></g><g id="line" transform="translate(-12.2839,-14.9332)"><path id="path6" fill="none" stroke="#000" stroke-linecap="round" stroke-linejoin="round" stroke-width="2" d="m 33.7378,45.9332 c 8.2843,0 15,-6.7157 15,-15 0,-8.2843 -6.7157,-15 -15,-15 z"/><path id="path7" fill="none" stroke="#000" stroke-linecap="round" stroke-linejoin="round" stroke-width="2" d="m 52.6418,27.9625 c 1.6565,0.0351 2.9709,1.4064 2.9358,3.0629 -0.0351,1.6565 -1.4064,2.9709 -3.0629,2.9358"/><path id="path8" fill="none" stroke="#000" stroke-linecap="round" stroke-linejoin="round" stroke-width="2" d="m 18.4115,32.4905 h -4.3872 c 0,0 -0.7404,0.0215 -0.7404,-1.5303 0,-1.5518 0.7404,-1.5305 0.7404,-1.5305 h 4.3872 z"/><line id="line8" x1="24.131" x2="33.738" y1="30.933" y2="30.933" fill="none" stroke="#000" stroke-linecap="round" stroke-linejoin="round" stroke-width="2"/><line id="line9" x1="22.121" x2="33.738" y1="27.649" y2="15.933" fill="none" stroke="#000" stroke-linecap="round" stroke-linejoin="round" stroke-width="2"/><line id="line10" x1="22.156" x2="33.738" y1="34.274" y2="45.933" fill="none" stroke="#000" stroke-linecap="round" stroke-linejoin="round" stroke-width="2"/><line id="line11" x1="40.238" x2="58.831" y1="59.999" y2="59.999" fill="none" stroke="#000" stroke-linecap="round" stroke-linejoin="round" stroke-width="2"/><polyline id="polyline11" fill="none" stroke="#000" stroke-linecap="round" stroke-linejoin="round" stroke-width="2" points="48.8 59.999 51.704 38.197 54.953 38.197 52.049 59.999"/></g></svg>