<?xml version="1.0" encoding="UTF-8" standalone="no"?>
<svg
   id="emoji"
   viewBox="0 0 48 47"
   version="1.1"
   sodipodi:docname="1f4e0.svg"
   width="48"
   height="47"
   xmlns:inkscape="http://www.inkscape.org/namespaces/inkscape"
   xmlns:sodipodi="http://sodipodi.sourceforge.net/DTD/sodipodi-0.dtd"
   xmlns="http://www.w3.org/2000/svg"
   xmlns:svg="http://www.w3.org/2000/svg">
  <defs
     id="defs15" />
  <sodipodi:namedview
     id="namedview15"
     pagecolor="#ffffff"
     bordercolor="#000000"
     borderopacity="0.25"
     inkscape:showpageshadow="2"
     inkscape:pageopacity="0.0"
     inkscape:pagecheckerboard="0"
     inkscape:deskcolor="#d1d1d1" />
  <g
     id="color"
     transform="translate(-12,-12)">
    <rect
       x="13"
       y="32"
       width="46"
       height="26"
       fill="#9b9b9a"
       stroke="none"
       stroke-linecap="round"
       stroke-linejoin="round"
       stroke-miterlimit="10"
       stroke-width="2"
       id="rect1" />
    <path
       fill="#d0cfce"
       stroke="none"
       stroke-linecap="round"
       stroke-linejoin="round"
       stroke-miterlimit="10"
       stroke-width="2"
       d="m 21,55 h -1 c -1.6569,0 -3,-1.3431 -3,-3 V 38 c 0,-1.6569 1.3431,-3 3,-3 h 1 c 1.6569,0 3,1.3431 3,3 v 14 c 0,1.6569 -1.3431,3 -3,3 z"
       id="path1" />
    <rect
       x="17"
       y="13"
       width="38"
       height="19"
       fill="#9b9b9a"
       stroke="none"
       stroke-linecap="round"
       stroke-linejoin="round"
       stroke-miterlimit="10"
       stroke-width="2"
       id="rect2" />
    <rect
       x="29"
       y="17"
       width="22"
       height="15"
       fill="#ffffff"
       stroke="none"
       stroke-linecap="round"
       stroke-linejoin="round"
       stroke-miterlimit="10"
       stroke-width="2"
       id="rect3" />
    <rect
       x="46"
       y="37"
       width="9"
       height="8"
       fill="#b1cc33"
       stroke="none"
       stroke-linecap="round"
       stroke-linejoin="round"
       stroke-miterlimit="10"
       stroke-width="2"
       id="rect4" />
  </g>
  <g
     id="hair"
     transform="translate(-12,-12)" />
  <g
     id="skin"
     transform="translate(-12,-12)" />
  <g
     id="skin-shadow"
     transform="translate(-12,-12)" />
  <g
     id="line"
     transform="translate(-12,-12)">
    <rect
       x="13"
       y="32"
       width="46"
       height="26"
       fill="none"
       stroke="#000000"
       stroke-linecap="round"
       stroke-linejoin="round"
       stroke-miterlimit="10"
       stroke-width="2"
       id="rect5" />
    <path
       fill="none"
       stroke="#000000"
       stroke-linecap="round"
       stroke-linejoin="round"
       stroke-miterlimit="10"
       stroke-width="2"
       d="m 21,55 h -1 c -1.6569,0 -3,-1.3431 -3,-3 V 38 c 0,-1.6569 1.3431,-3 3,-3 h 1 c 1.6569,0 3,1.3431 3,3 v 14 c 0,1.6569 -1.3431,3 -3,3 z"
       id="path5" />
    <rect
       x="17"
       y="13"
       width="38"
       height="19"
       fill="none"
       stroke="#000000"
       stroke-linecap="round"
       stroke-linejoin="round"
       stroke-miterlimit="10"
       stroke-width="2"
       id="rect6" />
    <rect
       x="29"
       y="17"
       width="22"
       height="15"
       fill="none"
       stroke="#000000"
       stroke-linecap="round"
       stroke-linejoin="round"
       stroke-miterlimit="10"
       stroke-width="2"
       id="rect7" />
    <circle
       cx="29"
       cy="39"
       r="2"
       fill="#000000"
       stroke="none"
       id="circle7" />
    <circle
       cx="35"
       cy="39"
       r="2"
       fill="#000000"
       stroke="none"
       id="circle8" />
    <circle
       cx="41"
       cy="39"
       r="2"
       fill="#000000"
       stroke="none"
       id="circle9" />
    <circle
       cx="29"
       cy="45"
       r="2"
       fill="#000000"
       stroke="none"
       id="circle10" />
    <circle
       cx="35"
       cy="45"
       r="2"
       fill="#000000"
       stroke="none"
       id="circle11" />
    <circle
       cx="41"
       cy="45"
       r="2"
       fill="#000000"
       stroke="none"
       id="circle12" />
    <circle
       cx="29"
       cy="51"
       r="2"
       fill="#000000"
       stroke="none"
       id="circle13" />
    <circle
       cx="35"
       cy="51"
       r="2"
       fill="#000000"
       stroke="none"
       id="circle14" />
    <circle
       cx="41"
       cy="51"
       r="2"
       fill="#000000"
       stroke="none"
       id="circle15" />
    <rect
       x="46"
       y="37"
       width="9"
       height="8"
       fill="none"
       stroke="#000000"
       stroke-linecap="round"
       stroke-linejoin="round"
       stroke-miterlimit="10"
       stroke-width="2"
       id="rect15" />
  </g>
</svg>
