<svg xmlns="http://www.w3.org/2000/svg" xmlns:svg="http://www.w3.org/2000/svg" id="emoji" width="47.406" height="48.803" version="1.1" viewBox="0 0 47.406 48.803"><g id="color" transform="translate(-12.294448,-11.59677)"><path id="path1" fill="#61b2e4" d="M 58.7,27.6 C 58.7,22.2 55.7373,17.1781 51.4,16 47.9716,15.0688 36,15.4 36,15.4 L 24.1964,15.3024 c -0.7,0 3.5036,6.2976 3.5036,12.2976 v 11.7 a 2.338,2.338 0 0 1 -2.1226,2.3964 L 58.7,41.6 Z"/><path id="path2" fill="#3f3f3f" d="m 34.6,27.6 v 11.8 a 2.1631,2.1631 0 0 1 -2.1,2.3 H 15.3 a 2.15,2.15 0 0 1 -2,-2.3 V 26.6 a 12.27,12.27 0 0 1 4.6,-9.1 9.5025,9.5025 0 0 1 6.1,-2.2 13.5523,13.5523 0 0 1 2,0.2 v 0 c 4.9,1.1 8.6,6.1 8.6,12.1 z"/><path id="path3" fill="#ea5a47" d="m 41.2,33 h 0.9 a 1.12,1.12 0 0 0 1.2,-1 V 22 h 2.1 a 1.12,1.12 0 0 0 1.2,-1 v -7.4 a 1.1256,1.1256 0 0 0 -1.2,-1 h -4.2 a 1.12,1.12 0 0 0 -1.2,1 V 32 a 1.1256,1.1256 0 0 0 1.2,1 z"/><rect id="rect3" width="11.257" height="14.298" x="23.027" y="25.462" fill="#d0cfce" rx="1.563"/><path id="path4" fill="#fff" d="M 39.3,59.4 V 41.6533 L 32.487,41.6615 32.5,46.4 v 13"/></g><g id="line" transform="translate(-12.294448,-11.59677)"><path id="path5" fill="none" stroke="#000" stroke-linecap="round" stroke-linejoin="round" stroke-width="2" d="M 40,15.3463 C 32.5,15.2208 24.196,15.3024 24.196,15.3024"/><path id="path6" fill="none" stroke="#000" stroke-linecap="round" stroke-linejoin="round" stroke-width="2" d="M 25.5774,41.6964 58.7,41.6 v -14 C 58.7,22.2 55.7373,17.1781 51.4,16 a 30.0066,30.0066 0 0 0 -4.8008,-0.4629"/><path id="path7" fill="none" stroke="#000" stroke-linejoin="round" stroke-width="2" d="m 41.2,33 h 0.9 a 1.12,1.12 0 0 0 1.2,-1 V 22 h 2.1 a 1.12,1.12 0 0 0 1.2,-1 v -7.4 a 1.1256,1.1256 0 0 0 -1.2,-1 h -4.2 a 1.12,1.12 0 0 0 -1.2,1 V 32 a 1.1256,1.1256 0 0 0 1.2,1 z"/><path id="path8" fill="none" stroke="#000" stroke-miterlimit="10" stroke-width="2" d="m 34.6,27.6 v 11.8 a 2.1631,2.1631 0 0 1 -2.1,2.3 H 15.3 a 2.15,2.15 0 0 1 -2,-2.3 V 26.6 a 12.27,12.27 0 0 1 4.6,-9.1 9.5025,9.5025 0 0 1 6.1,-2.2 13.5523,13.5523 0 0 1 2,0.2 v 0 c 4.9,1.1 8.6,6.1 8.6,12.1 z"/><path id="path9" fill="none" stroke="#000" stroke-linecap="round" stroke-linejoin="round" stroke-width="2" d="M 39.3,59.4 V 41.6533 L 32.487,41.6615 32.5,46.4 v 13"/><path id="path10" fill="none" stroke="#000" stroke-linecap="round" stroke-linejoin="round" stroke-width="2" d="m 28.2866,34.46 -4.9684,4.72 A 2.44,2.44 0 0 1 23.052,38.126 V 25.9823"/><path id="path11" fill="none" stroke="#000" stroke-linecap="round" stroke-linejoin="round" stroke-width="2" d="m 34.2526,39.73 h -10.18 a 1.0489,1.0489 0 0 1 -0.7985,-0.55 l 5.3677,-5.0866"/><path id="path12" fill="none" stroke="#000" stroke-linecap="round" stroke-linejoin="round" stroke-width="2" d="m 34.1711,25.4324 h -10.365 a 0.9014,0.9014 0 0 0 -0.71,0.4582 c 0,0.0458 -0.0444,0.0458 -0.0444,0.0917 l 7.0091,6.7363 1.9963,1.8788 c 0.0887,0.0916 0.2218,0.1833 0.31,0.2749 a 2.8492,2.8492 0 0 0 1.8032,0.6117"/></g></svg>