<?xml version="1.0" encoding="UTF-8" standalone="no"?>
<svg
   id="emoji"
   viewBox="0 0 56.805 53.069389"
   version="1.1"
   sodipodi:docname="1f4e2.svg"
   width="56.805"
   height="53.069389"
   xmlns:inkscape="http://www.inkscape.org/namespaces/inkscape"
   xmlns:sodipodi="http://sodipodi.sourceforge.net/DTD/sodipodi-0.dtd"
   xmlns="http://www.w3.org/2000/svg"
   xmlns:svg="http://www.w3.org/2000/svg">
  <defs
     id="defs5" />
  <sodipodi:namedview
     id="namedview5"
     pagecolor="#ffffff"
     bordercolor="#000000"
     borderopacity="0.25"
     inkscape:showpageshadow="2"
     inkscape:pageopacity="0.0"
     inkscape:pagecheckerboard="0"
     inkscape:deskcolor="#d1d1d1" />
  <g
     id="color"
     transform="translate(-8.5915,-10.37531)">
    <circle
       cx="59.383202"
       cy="36.380001"
       r="5"
       fill="#3f3f3f"
       stroke="#3f3f3f"
       stroke-miterlimit="10"
       stroke-width="2"
       id="circle1" />
    <path
       fill="#d0cfce"
       d="m 57.7385,11.3752 -16.435,13.346 h -28.712 c -1.6548,0.005 -2.995,1.3452 -3,3 v 16.692 c 0.005,1.6548 1.3452,2.995 3,3 h 28.712 l 16.436,13.128 z"
       id="path1" />
    <polygon
       fill="#9b9b9a"
       points="9.623,26.8593 9.5684,45.0418 11.6979,47.4989 18.5231,47.4443 18.6869,25.0114 11.1519,24.9482 "
       id="polygon1" />
    <path
       fill="#9b9b9a"
       d="m 27.7502,47.7464 v 12.2934 c 0,1.5088 -1.1175,2.7319 -2.4962,2.7319 h -4.9924 c -1.3785,0 -2.4962,-1.2231 -2.4962,-2.7319 V 47.7464"
       id="path2" />
  </g>
  <g
     id="line"
     transform="translate(-8.5915,-10.37531)">
    <path
       fill="none"
       stroke="#000000"
       stroke-linecap="round"
       stroke-linejoin="round"
       stroke-width="2"
       d="m 57.7385,11.3752 -16.435,13.346 h -28.712 c -1.6548,0.005 -2.995,1.3452 -3,3 v 16.692 c 0.005,1.6548 1.3452,2.995 3,3 h 28.712 l 16.436,13.128 z"
       id="path3" />
    <line
       x1="18.750799"
       x2="18.750799"
       y1="25.3332"
       y2="46.583199"
       fill="none"
       stroke="#000000"
       stroke-linecap="round"
       stroke-linejoin="round"
       stroke-width="2"
       id="line3" />
    <path
       fill="none"
       stroke="#000000"
       stroke-linecap="round"
       stroke-linejoin="round"
       stroke-width="2"
       d="m 26.7508,51.4447 v 9 c 0,1.1046 -0.8954,2 -2,2 h -4 c -1.1045,0 -2,-0.8954 -2,-2 v -9"
       id="path4" />
    <path
       fill="none"
       stroke="#000000"
       stroke-linecap="round"
       stroke-linejoin="round"
       stroke-width="2"
       d="m 61.6145,31.9073 c 1.6486,0.8173 2.782,2.5175 2.782,4.4823 0,1.9659 -1.1346,3.6667 -2.7846,4.4836"
       id="path5" />
  </g>
</svg>
