<svg xmlns="http://www.w3.org/2000/svg" xmlns:svg="http://www.w3.org/2000/svg" id="emoji" width="56.805" height="53.069" version="1.1" viewBox="0 0 56.805 53.069"><g id="color" transform="translate(-8.5915,-10.37531)"><circle id="circle1" cx="59.383" cy="36.38" r="5" fill="#3f3f3f" stroke="#3f3f3f" stroke-miterlimit="10" stroke-width="2"/><path id="path1" fill="#d0cfce" d="m 57.7385,11.3752 -16.435,13.346 h -28.712 c -1.6548,0.005 -2.995,1.3452 -3,3 v 16.692 c 0.005,1.6548 1.3452,2.995 3,3 h 28.712 l 16.436,13.128 z"/><polygon id="polygon1" fill="#9b9b9a" points="9.623 26.859 9.568 45.042 11.698 47.499 18.523 47.444 18.687 25.011 11.152 24.948"/><path id="path2" fill="#9b9b9a" d="m 27.7502,47.7464 v 12.2934 c 0,1.5088 -1.1175,2.7319 -2.4962,2.7319 h -4.9924 c -1.3785,0 -2.4962,-1.2231 -2.4962,-2.7319 V 47.7464"/></g><g id="line" transform="translate(-8.5915,-10.37531)"><path id="path3" fill="none" stroke="#000" stroke-linecap="round" stroke-linejoin="round" stroke-width="2" d="m 57.7385,11.3752 -16.435,13.346 h -28.712 c -1.6548,0.005 -2.995,1.3452 -3,3 v 16.692 c 0.005,1.6548 1.3452,2.995 3,3 h 28.712 l 16.436,13.128 z"/><line id="line3" x1="18.751" x2="18.751" y1="25.333" y2="46.583" fill="none" stroke="#000" stroke-linecap="round" stroke-linejoin="round" stroke-width="2"/><path id="path4" fill="none" stroke="#000" stroke-linecap="round" stroke-linejoin="round" stroke-width="2" d="m 26.7508,51.4447 v 9 c 0,1.1046 -0.8954,2 -2,2 h -4 c -1.1045,0 -2,-0.8954 -2,-2 v -9"/><path id="path5" fill="none" stroke="#000" stroke-linecap="round" stroke-linejoin="round" stroke-width="2" d="m 61.6145,31.9073 c 1.6486,0.8173 2.782,2.5175 2.782,4.4823 0,1.9659 -1.1346,3.6667 -2.7846,4.4836"/></g></svg>