<?xml version="1.0" encoding="UTF-8" standalone="no"?>
<svg
   id="emoji"
   viewBox="0 0 49.486084 46.180824"
   version="1.1"
   sodipodi:docname="1f4ed.svg"
   width="49.486084"
   height="46.180824"
   xmlns:inkscape="http://www.inkscape.org/namespaces/inkscape"
   xmlns:sodipodi="http://sodipodi.sourceforge.net/DTD/sodipodi-0.dtd"
   xmlns="http://www.w3.org/2000/svg"
   xmlns:svg="http://www.w3.org/2000/svg">
  <defs
     id="defs9" />
  <sodipodi:namedview
     id="namedview9"
     pagecolor="#ffffff"
     bordercolor="#000000"
     borderopacity="0.25"
     inkscape:showpageshadow="2"
     inkscape:pageopacity="0.0"
     inkscape:pagecheckerboard="0"
     inkscape:deskcolor="#d1d1d1" />
  <g
     id="color"
     transform="translate(-12.294448,-14.219176)">
    <path
       fill="#61b2e4"
       d="M 58.7,27.6 C 58.7,22.2 55.7373,17.1781 51.4,16 47.9716,15.0688 36,15.4 36,15.4 L 24.1964,15.3024 c -0.7,0 3.5036,6.2976 3.5036,12.2976 v 11.7 a 2.338,2.338 0 0 1 -2.1226,2.3964 L 58.7,41.6 Z"
       id="path1" />
    <path
       fill="#3f3f3f"
       d="m 34.6,27.6 v 11.8 a 2.1631,2.1631 0 0 1 -2.1,2.3 H 15.3 a 2.15,2.15 0 0 1 -2,-2.3 V 26.6 a 12.27,12.27 0 0 1 4.6,-9.1 9.5025,9.5025 0 0 1 6.1,-2.2 13.5523,13.5523 0 0 1 2,0.2 v 0 c 4.9,1.1 8.6,6.1 8.6,12.1 z"
       id="path2" />
    <path
       fill="#ea5a47"
       d="m 40.3773,31.53 v 0.9 a 1.12,1.12 0 0 0 1,1.2 h 10 v 2.1 a 1.12,1.12 0 0 0 1,1.2 h 7.4 a 1.1256,1.1256 0 0 0 1,-1.2 v -4.2 a 1.12,1.12 0 0 0 -1,-1.2 h -18.4 a 1.1256,1.1256 0 0 0 -1,1.2 z"
       id="path3" />
    <path
       fill="#ffffff"
       d="M 39.3,59.4 V 41.6533 L 32.487,41.6615 32.5,46.4 v 13"
       id="path4" />
  </g>
  <g
     id="line"
     transform="translate(-12.294448,-14.219176)">
    <path
       fill="none"
       stroke="#000000"
       stroke-linecap="round"
       stroke-linejoin="round"
       stroke-width="2"
       d="M 58.7,30.2954 V 27.6 C 58.7,22.2 55.6713,17.3986 51.4,16 47.9305,14.8639 24.1964,15.3024 24.1964,15.3024"
       id="path5" />
    <path
       fill="none"
       stroke="#000000"
       stroke-linecap="round"
       stroke-linejoin="round"
       stroke-width="2"
       d="M 25.5774,41.6964 58.7,41.6 v -4.6283"
       id="path6" />
    <path
       fill="none"
       stroke="#000000"
       stroke-linejoin="round"
       stroke-width="2"
       d="m 40.3773,31.53 v 0.9 a 1.12,1.12 0 0 0 1,1.2 h 10 v 2.1 a 1.12,1.12 0 0 0 1,1.2 h 7.4 a 1.1256,1.1256 0 0 0 1,-1.2 v -4.2 a 1.12,1.12 0 0 0 -1,-1.2 h -18.4 a 1.1256,1.1256 0 0 0 -1,1.2 z"
       id="path7" />
    <path
       fill="none"
       stroke="#000000"
       stroke-miterlimit="10"
       stroke-width="2"
       d="m 34.6,27.6 v 11.8 a 2.1631,2.1631 0 0 1 -2.1,2.3 H 15.3 a 2.15,2.15 0 0 1 -2,-2.3 V 26.6 a 12.27,12.27 0 0 1 4.6,-9.1 9.5025,9.5025 0 0 1 6.1,-2.2 13.5523,13.5523 0 0 1 2,0.2 v 0 c 4.9,1.1 8.6,6.1 8.6,12.1 z"
       id="path8" />
    <path
       fill="none"
       stroke="#000000"
       stroke-linecap="round"
       stroke-linejoin="round"
       stroke-width="2"
       d="M 39.3,59.4 V 41.6533 L 32.487,41.6615 32.5,46.4 v 13"
       id="path9" />
  </g>
</svg>
