<?xml version="1.0" encoding="UTF-8" standalone="no"?>
<svg
   id="emoji"
   viewBox="0 0 47.547501 46.0658"
   version="1.1"
   sodipodi:docname="1f4e1.svg"
   width="47.547501"
   height="46.0658"
   xmlns:inkscape="http://www.inkscape.org/namespaces/inkscape"
   xmlns:sodipodi="http://sodipodi.sourceforge.net/DTD/sodipodi-0.dtd"
   xmlns="http://www.w3.org/2000/svg"
   xmlns:svg="http://www.w3.org/2000/svg">
  <defs
     id="defs11" />
  <sodipodi:namedview
     id="namedview11"
     pagecolor="#ffffff"
     bordercolor="#000000"
     borderopacity="0.25"
     inkscape:showpageshadow="2"
     inkscape:pageopacity="0.0"
     inkscape:pagecheckerboard="0"
     inkscape:deskcolor="#d1d1d1" />
  <g
     id="color"
     transform="translate(-12.2839,-14.9332)">
    <path
       fill="#d0cfce"
       d="m 14.276,31.5192 h 3.2117 l -0.0234,-1.1721 -3.2401,0.0106 c -0.0434,0.3279 0.0085,0.8336 0.0519,1.1615 z"
       id="path1" />
    <polygon
       fill="#9b9b9a"
       points="51.7041,38.197 48.8004,59.999 52.4477,59.999 54.9527,38.197 "
       id="polygon1" />
    <path
       fill="#d0cfce"
       d="m 47.6445,29.3771 c 0.0569,0.5118 0.0938,1.0293 0.0938,1.556 0,-0.5267 -0.0369,-1.0442 -0.0938,-1.556 z"
       id="path2" />
    <path
       fill="#d0cfce"
       d="M 48.8004,29.3771 C 48.3893,25.6818 46.3003,21.6696 42.9909,19.1279 40.3338,17.0872 36.7382,16.1462 33.7378,15.9332 l 0.2712,26.9989 c 0.2486,0.6495 -0.3346,2.4231 0.6547,2.6473 2.0178,0.4572 6.3562,-1.3102 8.0762,-2.6473 1.7857,-1.3882 3.8837,-3.5192 4.9515,-6.3317 0.9164,-2.4136 0.9159,-5.4874 1.109,-7.2233 z"
       id="path3" />
    <path
       fill="#9b9b9a"
       d="m 34.7383,41.7864 -1.2595,0.1084 0.259,4.0384 c 2.2672,-0.1608 8.4311,-2.5655 10.2455,-4.0463 2.9667,-2.4215 4.7545,-5.8777 4.7545,-10.9537 0,-0.5267 0,-1.7478 -1.0933,-1.5561 -0.7412,6.6622 -6.1689,11.9313 -12.9062,12.4093 z"
       id="path4" />
    <path
       fill="#3f3f3f"
       d="m 52.7421,27.7526 -3.4453,-0.0401 c -0.499,0.189 -0.6415,5.5357 -0.0034,6.2814 h 3.0961 c 0,0 2.7955,-0.5886 2.4704,-3.7291 -0.3754,-2.5138 -1.5545,-2.5138 -2.1178,-2.5122 z"
       id="path5" />
  </g>
  <g
     id="line"
     transform="translate(-12.2839,-14.9332)">
    <path
       fill="none"
       stroke="#000000"
       stroke-linecap="round"
       stroke-linejoin="round"
       stroke-width="2"
       d="m 33.7378,45.9332 c 8.2843,0 15,-6.7157 15,-15 0,-8.2843 -6.7157,-15 -15,-15 z"
       id="path6" />
    <path
       fill="none"
       stroke="#000000"
       stroke-linecap="round"
       stroke-linejoin="round"
       stroke-width="2"
       d="m 52.6418,27.9625 c 1.6565,0.0351 2.9709,1.4064 2.9358,3.0629 -0.0351,1.6565 -1.4064,2.9709 -3.0629,2.9358"
       id="path7" />
    <path
       fill="none"
       stroke="#000000"
       stroke-linecap="round"
       stroke-linejoin="round"
       stroke-width="2"
       d="m 18.4115,32.4905 h -4.3872 c 0,0 -0.7404,0.0215 -0.7404,-1.5303 0,-1.5518 0.7404,-1.5305 0.7404,-1.5305 h 4.3872 z"
       id="path8" />
    <line
       x1="24.130899"
       x2="33.737801"
       y1="30.933201"
       y2="30.933201"
       fill="none"
       stroke="#000000"
       stroke-linecap="round"
       stroke-linejoin="round"
       stroke-width="2"
       id="line8" />
    <line
       x1="22.121201"
       x2="33.737801"
       y1="27.6488"
       y2="15.9332"
       fill="none"
       stroke="#000000"
       stroke-linecap="round"
       stroke-linejoin="round"
       stroke-width="2"
       id="line9" />
    <line
       x1="22.156401"
       x2="33.737801"
       y1="34.274101"
       y2="45.933201"
       fill="none"
       stroke="#000000"
       stroke-linecap="round"
       stroke-linejoin="round"
       stroke-width="2"
       id="line10" />
    <line
       x1="40.237801"
       x2="58.831402"
       y1="59.999001"
       y2="59.999001"
       fill="none"
       stroke="#000000"
       stroke-linecap="round"
       stroke-linejoin="round"
       stroke-width="2"
       id="line11" />
    <polyline
       fill="none"
       stroke="#000000"
       stroke-linecap="round"
       stroke-linejoin="round"
       stroke-width="2"
       points="48.8004 59.999 51.7041 38.197 54.9527 38.197 52.049 59.999"
       id="polyline11" />
  </g>
</svg>
