<?xml version="1.0" encoding="UTF-8" standalone="no"?>
<svg
   id="emoji"
   viewBox="0 0 47.466999 52.150101"
   version="1.1"
   sodipodi:docname="1f4eb.svg"
   width="47.466999"
   height="52.150101"
   xmlns:inkscape="http://www.inkscape.org/namespaces/inkscape"
   xmlns:sodipodi="http://sodipodi.sourceforge.net/DTD/sodipodi-0.dtd"
   xmlns="http://www.w3.org/2000/svg"
   xmlns:svg="http://www.w3.org/2000/svg">
  <defs
     id="defs13" />
  <sodipodi:namedview
     id="namedview13"
     pagecolor="#ffffff"
     bordercolor="#000000"
     borderopacity="0.25"
     inkscape:showpageshadow="2"
     inkscape:pageopacity="0.0"
     inkscape:pagecheckerboard="0"
     inkscape:deskcolor="#d1d1d1" />
  <g
     id="color"
     transform="translate(-12.133,-9.9999)">
    <path
       fill="#ffffff"
       d="m 27.815,13.7636 c -0.6841,0 -1.3577,0.0737 -2.0103,0.221 h -0.0105 c -0.642,-0.1474 -1.3051,-0.221 -1.9891,-0.221 z"
       id="path1" />
    <path
       fill="#ffffff"
       stroke="#ffffff"
       stroke-miterlimit="10"
       stroke-width="1.8"
       d="M 32.4985,57.778 V 35.8865 h 6.7358 V 57.778 c 0,1.8523 -1.5156,3.3679 -3.3679,3.3679 -0.9262,0 -1.7682,-0.3789 -2.3786,-0.9893 -0.6104,-0.6105 -0.9893,-1.4524 -0.9893,-2.3786 z"
       id="path2" />
    <path
       fill="#61b2e4"
       stroke="#61b2e4"
       stroke-linejoin="round"
       stroke-miterlimit="10"
       stroke-width="1.8"
       d="m 58.6049,25.9766 v 10.1458 c 0,2.0313 -1.3472,3.7152 -3.0733,3.9468 -0.1368,0.0211 -0.2736,0.0315 -0.4209,0.0315 L 25.5468,40.0692 c 1.1367,0 2.0523,-1.0419 2.0523,-2.3154 V 25.9766 c 0,-5.957 -4.2099,-12.2086 -3.5257,-12.2086 h 23.8174 c 0.6841,0 1.3471,0.0737 1.9891,0.221 h 0.0105 c 4.9572,1.063 8.7145,6.0307 8.7145,11.9876 z"
       id="path3" />
    <path
       fill="#92d3f5"
       d="m 34.5192,25.9722 v 11.7771 c 0,1.2735 -0.9156,2.3154 -2.0523,2.3154 H 15.1748 c -1.1367,0 -2.0418,-1.0419 -2.0418,-2.3154 V 25.0356 c 0.242,-3.7679 1.9892,-7.0621 4.5782,-9.1039 1.7155,-1.3577 3.831,-2.1681 6.0938,-2.1681 0.6841,0 1.3471,0.0737 1.9891,0.221 h 0.0105 c 4.9573,1.063 8.7146,6.0307 8.7146,11.9876 z"
       id="path4" />
    <path
       fill="#ea5a47"
       d="m 41.0868,31.3539 h 0.9347 c 0.6427,0 1.1684,-0.4404 1.1684,-0.9786 v -9.9812 h 2.1031 c 0.6426,0 1.1684,-0.4404 1.1684,-0.9786 v -7.437 c 0,-0.5383 -0.5258,-0.9786 -1.1684,-0.9786 h -4.2061 c -0.6426,0 -1.1684,0.4403 -1.1684,0.9786 v 18.3968 c -1e-4,0.5382 0.5257,0.9786 1.1683,0.9786 z"
       id="path5" />
    <path
       fill="#ffffff"
       d="M 39.23,44.875 V 57.78 c 0,1.85 -1.51,3.37 -3.36,3.37 -0.93,0 -1.77,-0.38 -2.38,-0.99 C 32.88,59.55 32.5,58.7 32.5,57.78 V 44.8438"
       id="path6" />
  </g>
  <g
     id="hair"
     transform="translate(-12.133,-9.9999)" />
  <g
     id="skin"
     transform="translate(-12.133,-9.9999)" />
  <g
     id="skin-shadow"
     transform="translate(-12.133,-9.9999)" />
  <g
     id="line"
     transform="translate(-12.133,-9.9999)">
    <path
       fill="none"
       stroke="#000000"
       stroke-miterlimit="10"
       stroke-width="2"
       d="m 27.815,13.7636 c -0.6841,0 -1.3577,0.0737 -2.0103,0.221 h -0.0105 c -0.642,-0.1474 -1.3051,-0.221 -1.9891,-0.221 z"
       id="path7" />
    <path
       fill="none"
       stroke="#000000"
       stroke-linecap="round"
       stroke-linejoin="round"
       stroke-miterlimit="10"
       stroke-width="2"
       d="M 35.87,13.7698 H 24.31 c -0.08,0 -0.16,0 -0.24,0"
       id="path8" />
    <path
       fill="none"
       stroke="#000000"
       stroke-linecap="round"
       stroke-linejoin="round"
       stroke-miterlimit="10"
       stroke-width="2"
       d="m 51.35,14.4298 c 4.22,1.63 7.25,6.19 7.25,11.55 v 10.14 c 0,2.03 -1.34,3.72 -3.07,3.95 -0.14,0.02 -0.27,0.03 -0.42,0.03 l -29.56,-0.03 c 0.07,0 0.14,0 0.21,-0.01"
       id="path9" />
    <path
       fill="none"
       stroke="#000000"
       stroke-miterlimit="10"
       stroke-width="2"
       d="m 34.5192,25.9722 v 11.7771 c 0,1.2735 -0.9156,2.3154 -2.0523,2.3154 H 15.1748 c -1.1367,0 -2.0418,-1.0419 -2.0418,-2.3154 V 25.0356 c 0.242,-3.7679 1.9892,-7.0621 4.5782,-9.1039 1.7155,-1.3577 3.831,-2.1681 6.0938,-2.1681 0.6841,0 1.3471,0.0737 1.9891,0.221 h 0.0105 c 4.9573,1.063 8.7146,6.0307 8.7146,11.9876 z"
       id="path10" />
    <path
       fill="none"
       stroke="#000000"
       stroke-linecap="round"
       stroke-miterlimit="10"
       stroke-width="2"
       d="m 21.5528,17.4051 v 3.1153 c 0,0.5789 0.4736,1.0525 1.0525,1.0525 h 2.1049 c 0.5789,0 1.0525,-0.4736 1.0525,-1.0525 V 17.363 17.342"
       id="path11" />
    <path
       fill="none"
       stroke="#000000"
       stroke-linejoin="round"
       stroke-miterlimit="10"
       stroke-width="2"
       d="m 41.0868,31.3539 h 0.9347 c 0.6427,0 1.1684,-0.4404 1.1684,-0.9786 v -9.9812 h 2.1031 c 0.6426,0 1.1684,-0.4404 1.1684,-0.9786 v -7.437 c 0,-0.5383 -0.5258,-0.9786 -1.1684,-0.9786 h -4.2061 c -0.6426,0 -1.1684,0.4403 -1.1684,0.9786 v 18.3968 c -1e-4,0.5382 0.5257,0.9786 1.1683,0.9786 z"
       id="path12" />
    <path
       fill="none"
       stroke="#000000"
       stroke-linecap="round"
       stroke-miterlimit="10"
       stroke-width="2"
       d="M 39.23,44.875 V 57.78 c 0,1.85 -1.51,3.37 -3.36,3.37 -0.93,0 -1.77,-0.38 -2.38,-0.99 C 32.88,59.55 32.5,58.7 32.5,57.78 V 44.8438"
       id="path13" />
  </g>
</svg>
