<?xml version="1.0" encoding="UTF-8" standalone="no"?>
<svg
   id="emoji"
   viewBox="0 0 52.000198 42.000099"
   version="1.1"
   sodipodi:docname="1f4e5.svg"
   width="52.000198"
   height="42.000099"
   xmlns:inkscape="http://www.inkscape.org/namespaces/inkscape"
   xmlns:sodipodi="http://sodipodi.sourceforge.net/DTD/sodipodi-0.dtd"
   xmlns="http://www.w3.org/2000/svg"
   xmlns:svg="http://www.w3.org/2000/svg">
  <defs
     id="defs4" />
  <sodipodi:namedview
     id="namedview4"
     pagecolor="#ffffff"
     bordercolor="#000000"
     borderopacity="0.25"
     inkscape:showpageshadow="2"
     inkscape:pageopacity="0.0"
     inkscape:pagecheckerboard="0"
     inkscape:deskcolor="#d1d1d1" />
  <g
     id="color"
     transform="translate(-9.7358,-15.0208)">
    <path
       fill="#ea5a47"
       stroke="none"
       stroke-linecap="round"
       stroke-miterlimit="10"
       stroke-width="2"
       d="m 29.5067,22.4308 h 1.5889 c 0.5519,0 0.9994,-0.4474 0.9994,-0.9994 v -4.4112 c 0,-0.5519 0.4474,-0.9994 0.9994,-0.9994 h 4.3313 c 0.5519,0 0.9994,0.4474 0.9994,0.9994 v 4.4112 c 0,0.5519 0.4474,0.9994 0.9994,0.9994 h 1.5788 c 0.8109,0 1.2842,0.9149 0.8157,1.5768 l -5.7482,8.1208 c -0.3983,0.5626 -1.2331,0.5626 -1.6314,0 l -5.7482,-8.1208 c -0.4687,-0.6619 0.0046,-1.5768 0.8155,-1.5768 z"
       id="path1" />
    <path
       fill="#d0cfce"
       stroke="none"
       stroke-linecap="round"
       stroke-linejoin="round"
       stroke-miterlimit="10"
       stroke-width="2"
       d="m 60.736,42.1886 v 10.7401 c 0,1.711 -1.3914,3.0922 -3.0922,3.0922 h -43.908 c -1.6569,0 -3,-1.3431 -3,-3 V 42.0964 c 0,-1.6569 1.3431,-3 3,-3 h 5.4067 c 1.1204,0 2.2273,0.523 2.7865,1.4938 0.5049,0.8765 1.4431,1.4643 2.5154,1.4643 l 11.2863,0.0103 11.2864,-0.0103 c 1.0722,0 2.0104,-0.5878 2.5154,-1.4643 0.5593,-0.9708 1.6662,-1.4938 2.7865,-1.4938 h 5.3248 c 1.7008,0 3.0922,1.3812 3.0922,3.0922 z"
       id="path2" />
  </g>
  <g
     id="hair"
     transform="translate(-9.7358,-15.0208)" />
  <g
     id="skin"
     transform="translate(-9.7358,-15.0208)" />
  <g
     id="skin-shadow"
     transform="translate(-9.7358,-15.0208)" />
  <g
     id="line"
     transform="translate(-9.7358,-15.0208)">
    <path
       fill="none"
       stroke="#000000"
       stroke-linecap="round"
       stroke-miterlimit="10"
       stroke-width="2"
       d="m 29.5067,22.4308 h 1.5889 c 0.5519,0 0.9994,-0.4474 0.9994,-0.9994 v -4.4112 c 0,-0.5519 0.4474,-0.9994 0.9994,-0.9994 h 4.3313 c 0.5519,0 0.9994,0.4474 0.9994,0.9994 v 4.4112 c 0,0.5519 0.4474,0.9994 0.9994,0.9994 h 1.5788 c 0.8109,0 1.2842,0.9149 0.8157,1.5768 l -5.7482,8.1208 c -0.3983,0.5626 -1.2331,0.5626 -1.6314,0 l -5.7482,-8.1208 c -0.4687,-0.6619 0.0046,-1.5768 0.8155,-1.5768 z"
       id="path3" />
    <path
       fill="none"
       stroke="#000000"
       stroke-linecap="round"
       stroke-linejoin="round"
       stroke-miterlimit="10"
       stroke-width="2"
       d="m 60.736,42.1886 v 10.7401 c 0,1.711 -1.3914,3.0922 -3.0922,3.0922 h -43.908 c -1.6569,0 -3,-1.3431 -3,-3 V 42.0964 c 0,-1.6569 1.3431,-3 3,-3 h 5.4067 c 1.1204,0 2.2273,0.523 2.7865,1.4938 0.5049,0.8765 1.4431,1.4643 2.5154,1.4643 l 11.2863,0.0103 11.2864,-0.0103 c 1.0722,0 2.0104,-0.5878 2.5154,-1.4643 0.5593,-0.9708 1.6662,-1.4938 2.7865,-1.4938 h 5.3248 c 1.7008,0 3.0922,1.3812 3.0922,3.0922 z"
       id="path4" />
  </g>
</svg>
