<?xml version="1.0" encoding="UTF-8" standalone="no"?>
<svg
   id="emoji"
   viewBox="0 0 38.019501 60.200001"
   version="1.1"
   sodipodi:docname="1f4ee.svg"
   width="38.019501"
   height="60.200001"
   xmlns:inkscape="http://www.inkscape.org/namespaces/inkscape"
   xmlns:sodipodi="http://sodipodi.sourceforge.net/DTD/sodipodi-0.dtd"
   xmlns="http://www.w3.org/2000/svg"
   xmlns:svg="http://www.w3.org/2000/svg">
  <defs
     id="defs14" />
  <sodipodi:namedview
     id="namedview14"
     pagecolor="#ffffff"
     bordercolor="#000000"
     borderopacity="0.25"
     inkscape:showpageshadow="2"
     inkscape:pageopacity="0.0"
     inkscape:pagecheckerboard="0"
     inkscape:deskcolor="#d1d1d1" />
  <g
     id="color"
     transform="translate(-16.7549,-9.8)">
    <polyline
       fill="#ffffff"
       stroke="#ffffff"
       stroke-linecap="round"
       stroke-linejoin="round"
       stroke-miterlimit="10"
       stroke-width="1.8"
       points="29.9921,54.8787 29.9921,65.8787 29.9921,68.8787 38.9921,68.8787 40.9921,68.8787 40.9921,54.8787"
       id="polyline1" />
    <path
       fill="#ea5a47"
       stroke="none"
       stroke-linecap="round"
       stroke-miterlimit="10"
       stroke-width="2"
       d="m 53.7744,13.5015 v 39.6213 c 0,1.4948 -1.2156,2.7015 -2.7015,2.7015 H 20.4564 c -1.4948,0 -2.7015,-1.2066 -2.7015,-2.7015 V 13.5015 c 0,-1.4948 1.2067,-2.7015 2.7015,-2.7015 h 30.6165 c 1.4859,0 2.7015,1.2067 2.7015,2.7015 z"
       id="path1" />
    <path
       fill="#d22f27"
       stroke="#d22f27"
       stroke-linejoin="round"
       stroke-miterlimit="10"
       stroke-width="2"
       d="m 47.4914,11.0835 h 4.6452 c 0.6733,0 1.2242,1.2067 1.2242,2.7015 v 39.6213 c -0.6443,2.8772 -5.832,2.0495 -5.832,2.0495"
       id="path2" />
    <path
       fill="#3f3f3f"
       stroke="#3f3f3f"
       stroke-linecap="round"
       stroke-miterlimit="10"
       stroke-width="2"
       d="m 50.0649,22.2251 v 6.0791 c 0,0.7475 -0.6721,1.3509 -1.5047,1.3509 H 22.7701 c -0.8326,0 -1.5047,-0.6034 -1.5047,-1.3509 v -6.0791 z"
       id="path3" />
    <path
       fill="#d0cfce"
       stroke="#d0cfce"
       stroke-linecap="round"
       stroke-linejoin="round"
       stroke-miterlimit="10"
       stroke-width="2"
       d="m 42.3449,42.8 h -13.41 c -0.44,0 -0.84,-0.1 -1.15,-0.28 -0.39,-0.21 -0.64,-0.54 -0.64,-0.9 V 18.76 c 0,-0.35 0.24,-0.67 0.62,-0.89 0.31,-0.18 0.72,-0.29 1.17,-0.29 h 13.38 l -7.41,8.04 -2.09,2.26 c -0.11,0.12 -0.21,0.24 -0.29,0.36 -0.91,1.23 -0.91,2.66 0.01,3.88 0.08,0.12 0.18,0.24 0.28,0.35 l 2.1,2.27 z"
       id="path4" />
    <line
       x1="42.526501"
       x2="42.5462"
       y1="17.903999"
       y2="17.872499"
       fill="#d0cfce"
       stroke="#d0cfce"
       stroke-linecap="round"
       stroke-linejoin="round"
       stroke-miterlimit="10"
       stroke-width="2"
       id="line4" />
    <path
       fill="#d0cfce"
       stroke="#d0cfce"
       stroke-linecap="round"
       stroke-linejoin="round"
       stroke-miterlimit="10"
       stroke-width="2"
       d="m 42.9049,18.47 v 23.47 c 0,0.29 -0.18,0.58 -0.46,0.79 -0.03,0.02 -0.07,0.05 -0.1,0.07 l -7.43,-8.06 -2.1,-2.27 c -0.1,-0.11 -0.2,-0.23 -0.28,-0.35 -0.92,-1.22 -0.92,-2.65 -0.01,-3.88 0.08,-0.12 0.18,-0.24 0.29,-0.36 l 2.09,-2.26 7.41,-8.04 c 0.03,0.02 0.07,0.05 0.11,0.07 0.3,0.22 0.48,0.5 0.48,0.82 z"
       id="path5" />
    <path
       fill="#ea5a47"
       stroke="none"
       stroke-linecap="round"
       stroke-miterlimit="10"
       stroke-width="2"
       d="M 50.0643,19.1408 V 23.183 H 21.2649 v -4.0422 c 0,-0.8946 0.6721,-1.6169 1.5047,-1.6169 h 25.7901 c 0.8325,0 1.5046,0.7222 1.5046,1.6169 z"
       id="path6" />
    <line
       x1="43.314899"
       x2="43.314899"
       y1="23.25"
       y2="23.18"
       fill="#d22f27"
       stroke="#d22f27"
       stroke-linejoin="round"
       stroke-miterlimit="10"
       stroke-width="2"
       id="line6" />
    <path
       fill="#d22f27"
       stroke="#d22f27"
       stroke-linejoin="round"
       stroke-miterlimit="10"
       stroke-width="2"
       d="m 50.0649,19.14 v 4.04 h -4.04 v -5.66 h 3.1362 c 0.5028,0 0.9038,0.73 0.9038,1.62 z"
       id="path7" />
    <polyline
       fill="#ffffff"
       stroke="none"
       stroke-linecap="round"
       stroke-linejoin="round"
       stroke-miterlimit="10"
       stroke-width="2"
       points="30,60.25 30,66 30,69 39,69 41,69 41,60.0625"
       id="polyline7" />
  </g>
  <g
     id="hair"
     transform="translate(-16.7549,-9.8)" />
  <g
     id="skin"
     transform="translate(-16.7549,-9.8)" />
  <g
     id="skin-shadow"
     transform="translate(-16.7549,-9.8)" />
  <g
     id="line"
     transform="translate(-16.7549,-9.8)">
    <path
       fill="none"
       stroke="#000000"
       stroke-linecap="round"
       stroke-miterlimit="10"
       stroke-width="2"
       d="m 53.7744,13.5015 v 39.6213 c 0,1.4948 -1.2156,2.7015 -2.7015,2.7015 H 20.4564 c -1.4948,0 -2.7015,-1.2066 -2.7015,-2.7015 V 13.5015 c 0,-1.4948 1.2067,-2.7015 2.7015,-2.7015 h 30.6165 c 1.4859,0 2.7015,1.2067 2.7015,2.7015 z"
       id="path8" />
    <path
       fill="none"
       stroke="#000000"
       stroke-linecap="round"
       stroke-miterlimit="10"
       stroke-width="2"
       d="m 53.7744,13.5015 v 39.6213 c 0,1.4948 -1.2156,2.7015 -2.7015,2.7015 H 20.4564 c -1.4948,0 -2.7015,-1.2066 -2.7015,-2.7015 V 13.5015 c 0,-1.4948 1.2067,-2.7015 2.7015,-2.7015 h 30.6165 c 1.4859,0 2.7015,1.2067 2.7015,2.7015 z"
       id="path9" />
    <path
       fill="none"
       stroke="#000000"
       stroke-linecap="round"
       stroke-miterlimit="10"
       stroke-width="2"
       d="m 22.6581,29.6527 c -0.7899,-0.0422 -1.4133,-0.6285 -1.4133,-1.3485 v -6.0791 h 28.7994 v 6.0791 c 0,0.7475 -0.6721,1.3509 -1.5047,1.3509"
       id="path10" />
    <path
       fill="none"
       stroke="#000000"
       stroke-linecap="round"
       stroke-miterlimit="10"
       stroke-width="2"
       d="M 50.0643,19.1408 V 23.183 H 21.2649 v -4.0422 c 0,-0.8946 0.6721,-1.6169 1.5047,-1.6169 h 25.7901 c 0.8325,0 1.5046,0.7222 1.5046,1.6169 z"
       id="path11" />
    <path
       fill="none"
       stroke="#000000"
       stroke-linecap="round"
       stroke-miterlimit="10"
       stroke-width="2"
       d="M 50.0643,19.1408 V 23.183 H 21.2649 v -4.0422 c 0,-0.8946 0.6721,-1.6169 1.5047,-1.6169 h 25.7901 c 0.8325,0 1.5046,0.7222 1.5046,1.6169 z"
       id="path12" />
    <polyline
       fill="none"
       stroke="#000000"
       stroke-linecap="round"
       stroke-linejoin="round"
       stroke-miterlimit="10"
       stroke-width="2"
       points="30,60.25 30,66 30,69 39,69 41,69 41,60.0625"
       id="polyline12" />
    <path
       fill="none"
       stroke="#000000"
       stroke-linecap="round"
       stroke-linejoin="round"
       stroke-miterlimit="10"
       stroke-width="2"
       d="m 34.9306,26.7304 -2.0816,2.2259 c -0.1106,0.1194 -0.2112,0.2388 -0.2917,0.3581 -0.9155,1.2237 -0.9155,2.6464 0.0101,3.8602 0.0804,0.1194 0.1811,0.2388 0.2817,0.3482 l 2.1127,2.2584 7.4748,8.0188 h -13.491 c -0.4427,0 -0.845,-0.0995 -1.1569,-0.2786 -0.3924,-0.2089 -0.6439,-0.5372 -0.6439,-0.8954 L 27,26.5938"
       id="path13" />
    <path
       fill="none"
       stroke="#000000"
       stroke-linecap="round"
       stroke-linejoin="round"
       stroke-miterlimit="10"
       stroke-width="2"
       d="m 43,26.8372 v 16.1072 c 0,0.2885 -0.1811,0.577 -0.4628,0.7859 -0.0301,0.0199 -0.0704,0.0497 -0.1006,0.0696 l -7.4748,-8.0188 -2.1127,-2.2584 c -0.1006,-0.1094 -0.2012,-0.2288 -0.2817,-0.3482 -0.9256,-1.2138 -0.9256,-2.6365 -0.0101,-3.8602 0.0805,-0.1194 0.1811,-0.2388 0.2917,-0.3581 l 2.1026,-2.2484 0.0414,-0.0445"
       id="path14" />
  </g>
</svg>
