<svg xmlns="http://www.w3.org/2000/svg" xmlns:svg="http://www.w3.org/2000/svg" id="emoji" width="56.463" height="44.356" version="1.1" viewBox="0 0 56.463 44.356"><g id="color" transform="translate(-4.6112285,-8.907506)"><circle id="circle1" cx="33.853" cy="37.591" r="5" fill="#d0cfce"/><path id="path1" fill="#3f3f3f" d="m 33.8524,27.5907 c -2.1024,0 -5.0159,1.4642 -6.5495,2.6766 0,0 0.9658,1.2952 0.6406,1.6224 -0.3262,0.3271 -1.3249,0.369 -1.3249,0.369 -1.1046,1.4944 -2.4297,3.3352 -2.4297,5.3321 0,4.9629 4.9985,10.2978 9.9614,10.2978 4.9629,0 9.7021,-5.335 9.7021,-10.2979 0,-4.9629 -5.0371,-10 -10,-10 z m 0,16.0001 c -3.3086,0 -6,-2.6914 -6,-6 0,-3.3086 2.6914,-6 6,-6 3.3086,0 6,2.6914 6,6 0,3.3086 -2.6914,6 -6,6 z"/><polygon id="polygon1" fill="#fff" points="11.135 24.212 12.449 22.683 11.518 21.918 11.135 21.918"/><path id="path2" fill="#fff" d="m 27.5323,31.642 -6.1309,-3.6932 -2.6515,4.7584 c 2.3713,2.2317 7.42,-0.4655 7.8561,-0.4137 z"/><polygon id="polygon2" fill="#fff" points="28.855 32.292 28.854 32.294"/><path id="path3" fill="#fff" d="m 29.4668,22.918 -4.7056,0.5 -1.5291,0.0937 3.5873,5.7254 0.5652,0.7418 c 1.1349,-0.8972 4.6418,-2.4049 4.212,-2.2579 -0.5185,0.1758 2.6106,-1.0071 3.8303,-1.0071 4.1438,0 6.3852,3.4308 6.3851,3.4308 -0.0047,-0.0106 1.1873,1.7282 1.1827,1.7177 0,0 3.6809,-0.5696 3.5087,-0.4292 v 1.2675 c 0.1755,-0.1525 1.5048,-0.8383 1.7557,-0.8383 L 59.3476,31.5907 59.12,24.0533 c 0,-1.1372 -30.2059,-1.1353 -29.6532,-1.1353 z"/><path id="path4" fill="#fff" d="m 28.9241,31.7396 c -0.005,-0.0331 -0.009,-0.0649 -0.0174,-0.0976 0.008,0.0323 0.0126,0.0648 0.0174,0.0976 z"/><path id="path5" fill="#fff" d="m 28.9333,31.9293 c -0.0017,0.0379 -0.0011,0.0759 -0.0072,0.1134 0.006,-0.0379 0.0057,-0.075 0.0072,-0.1134 z"/><path id="path6" fill="#fff" d="m 16.5613,32.6716 -0.7721,-5.4771 -3.404,1.8031 0.25,4.1286 c 0,0 -0.2866,0.6813 0.1414,0.5908 l 1.9292,-0.5908 c 0,0 0.54,-0.4548 1.8555,-0.4546 z"/><path id="path7" fill="#9b9b9a" d="m 57.6162,51.343 c 0.1405,-0.0243 1.9616,-0.7183 1.9582,-4.0029 -0.0052,-5.0782 0,-15.0175 0,-15.0175 0,0 -13.0007,-0.1253 -12.448,-0.1253 h -3.6908 c 0.0046,0.0105 0.0097,0.024 0.0144,0.0346 0,0 0,0 0,0 0.2193,0.3913 -0.7686,0.5787 -0.5976,0.9975 0,0 1.2496,2.3944 0.9999,5.5663 -0.2497,3.1719 -2.8919,6.7518 -5.5648,8.1018 -2.441,1.2329 -2.1896,0.9902 -4.9309,0.6931 -2.7412,-0.2971 -4.7834,-0.8471 -6.2134,-2.2769 -0.0809,-0.0809 -1.2041,-2.1166 -1.7665,-3.0153 -1.2721,-2.033 -1.228,-3.6201 -1.1879,-4.7077 0.0457,-1.2387 0.796,-1.7835 1.0592,-2.8015 0.3098,-1.1985 1.308,-2.4241 1.3705,-2.5306 0.0749,-0.1277 -2.9171,-0.0406 -6.1038,-0.0531 L 15.3271,32.196 c -1.3155,-2e-4 -2.2012,0.0012 -2.2012,0.0012 h -0.5 c 0.1289,0 -0.0278,18.333 0.25,18.3648 0.2867,0.0328 1.712,1.3319 3.2368,1.3497 10.1553,0.1187 41.4669,-0.5625 41.5034,-0.5688 z"/><path id="path8" fill="#f1b31c" d="m 17.1424,37.5907 c 0,0 3.5909,-9.3438 3.8741,-9.4459 0.2841,-0.1035 5.8744,2.4323 5.8744,2.4323 0,0 -4.5214,-7.4033 -4.456,-7.6641 0.0655,-0.2612 7.7379,-4.8892 7.7379,-4.8892 l -8.7435,2.0703 c -0.2832,0.0767 -0.7378,-0.0972 -0.7661,-0.3907 l -1.7091,-8.1953 -2.691,8.0704 c -0.083,0.269 -7.9333,-2.1364 -7.9333,-2.1364 l 5.5443,5.1175 c 0.208,0.1709 -6.1709,7.6712 -6.1709,7.6712 l 7.5566,-3.0363 c 0.1484,-0.0806 1.8826,10.3962 1.8826,10.3962 z"/></g><g id="line" transform="translate(-4.6112285,-8.907506)"><path id="path9" fill="none" stroke="#000" stroke-linecap="round" stroke-linejoin="round" stroke-width="2" d="m 12.1256,33.1975 v 16.0038 c 0,1.6912 1.4076,3.0623 3.1441,3.0623 h 41.6606 c 1.7365,0 3.1441,-1.3711 3.1441,-3.0623 V 25.98 c 0,-1.6912 -1.4076,-3.0622 -3.1441,-3.0622 H 29.4665"/><line id="line9" x1="47.152" x2="59.618" y1="33.197" y2="33.197" fill="none" stroke="#000" stroke-linecap="round" stroke-linejoin="round" stroke-width="2"/><path id="path10" fill="none" stroke="#000" stroke-linecap="round" stroke-linejoin="round" stroke-width="2" d="m 30.6138,28.1268 c 1.0157,-0.3475 2.1051,-0.5361 3.2386,-0.5361 5.5229,0 10,4.4771 10,10 0,5.5229 -4.4771,10 -10,10 -5.5229,0 -10,-4.4772 -10,-10 0,-1.0285 0.1553,-2.0207 0.4436,-2.9544"/><circle id="circle10" cx="33.852" cy="37.591" r="5" fill="none" stroke="#000" stroke-linecap="round" stroke-linejoin="round" stroke-width="2"/><polygon id="polygon10" fill="none" stroke="#000" stroke-linecap="round" stroke-linejoin="round" stroke-width="2" points="15.735 26.697 17.075 39.029 21.02 27.719 27.944 31.89 22.435 22.913 31.889 17.4 20.276 20.58 19.234 9.907 16.107 20.086 5.611 15.774 13.874 22.56 5.611 32.172"/></g></svg>