<svg xmlns="http://www.w3.org/2000/svg" xmlns:svg="http://www.w3.org/2000/svg" id="emoji" width="64" height="52.852" version="1.1" viewBox="0 0 64 52.852"><g id="color" transform="translate(-4,-15)"><path id="path1" fill="#9b9b9a" stroke="none" d="M 5.2629,15.7371 4.5,56.0004 H 66.6729 L 67,16 Z"/><rect id="rect1" width="54" height="26" x="9" y="20" fill="#3f3f3f" stroke="none"/><polygon id="polygon1" fill="#fff" stroke="none" points="48.326 19.676 57.228 45.736 63 46 63 20"/><path id="path2" fill="#9b9b9a" stroke="none" d="m 34.2719,60.958 -0.2095,5.894 4.5437,0.1057 0.1946,-6.6887 c 0,0 -0.8534,-1.3007 -0.3007,-1.3007 h -4 c 0.5527,0 -0.2281,1.9897 -0.2281,1.9897 z"/></g><g id="line" transform="translate(-4,-15)"><rect id="rect2" width="62" height="40" x="5" y="16" fill="none" stroke="#000" stroke-linecap="round" stroke-linejoin="round" stroke-miterlimit="10" stroke-width="2"/><line id="line2" x1="50.923" x2="22.077" y1="66.852" y2="66.852" fill="#000" stroke="#000" stroke-linecap="round" stroke-linejoin="round" stroke-miterlimit="10" stroke-width="2"/><circle id="circle2" cx="36.5" cy="51" r="2" fill="#000" stroke="none"/><rect id="rect3" width="54" height="26" x="9" y="20" fill="none" stroke="#000" stroke-linecap="round" stroke-linejoin="round" stroke-miterlimit="10" stroke-width="2"/><line id="line3" x1="38.5" x2="38.5" y1="59.968" y2="66.354" fill="none" stroke="#000" stroke-linecap="round" stroke-linejoin="round" stroke-miterlimit="10" stroke-width="2"/><line id="line4" x1="34.5" x2="34.5" y1="59.968" y2="66.354" fill="none" stroke="#000" stroke-linecap="round" stroke-linejoin="round" stroke-miterlimit="10" stroke-width="2"/></g></svg>