<?xml version="1.0" encoding="UTF-8" standalone="no"?>
<svg
   id="emoji"
   viewBox="0 0 49.948799 37.242802"
   version="1.1"
   sodipodi:docname="1f4f7.svg"
   width="49.948799"
   height="37.242802"
   xmlns:inkscape="http://www.inkscape.org/namespaces/inkscape"
   xmlns:sodipodi="http://sodipodi.sourceforge.net/DTD/sodipodi-0.dtd"
   xmlns="http://www.w3.org/2000/svg"
   xmlns:svg="http://www.w3.org/2000/svg">
  <defs
     id="defs7" />
  <sodipodi:namedview
     id="namedview7"
     pagecolor="#ffffff"
     bordercolor="#000000"
     borderopacity="0.25"
     inkscape:showpageshadow="2"
     inkscape:pageopacity="0.0"
     inkscape:pagecheckerboard="0"
     inkscape:deskcolor="#d1d1d1" />
  <g
     id="color"
     transform="translate(-11.1256,-16.0208)">
    <path
       fill="#3f3f3f"
       d="m 33.8525,28.0066 c -5.2851,0 -9.5842,4.2991 -9.5842,9.5842 0,5.2851 4.2991,9.5842 9.5842,9.5842 5.2851,0 9.5842,-4.2991 9.5842,-9.5842 0,-5.2851 -4.2991,-9.5842 -9.5842,-9.5842 z m 0,14.5841 c -2.7572,0 -5,-2.2428 -5,-5 0,-2.7572 2.2428,-5 5,-5 2.7572,0 5,2.2428 5,5 0,2.7572 -2.2428,5 -5,5 z"
       id="path1" />
    <circle
       cx="33.852501"
       cy="37.590801"
       r="4.9998999"
       fill="#d0cfce"
       id="circle1" />
    <path
       fill="#ffffff"
       d="M 57.9309,22.9178 H 15.2697 c -1.1816,0 -3.1441,1.9245 -3.1441,3.0622 l 0.4567,7.2175 h 8.0465 l 4.1493,0.1888 c -0.0121,0.0215 3.277,-5.7956 9.0743,-5.7956 4.1504,0 8.7433,5.0107 8.7387,5.0002 L 45.9834,32.89 59.287,33.1202 59.3244,25.98 c 0,-1.1377 -0.2119,-3.0622 -1.3935,-3.0622 z"
       id="path2" />
    <path
       fill="#f1b31c"
       d="m 27.8182,19.1835 c -0.0174,0.2605 -0.3503,-2.1627 -0.3503,-2.1627 h -9.0351 c 0,0 -0.2818,2.5039 -0.3056,2.4387 v 3.3291 l 9.691,-0.1182 c 0,0 0,-3.4869 0,-3.4869 z"
       id="path3" />
    <path
       fill="#9b9b9a"
       d="m 56.7227,51.768 c 0.1326,-0.0026 2.6017,-1.0404 2.6017,-1.1745 L 59.287,33.1202 49.5094,32.8939 47.1264,32.1973 h -3.6908 c 0.0046,0.0105 0.0097,0.024 0.0144,0.0346 0,0 0,2e-4 0,3e-4 0.2194,0.3912 -0.6648,0.7965 -0.4939,1.2153 0.0112,0.0275 0.2962,7.996 0.1552,8.1433 -0.4261,0.4452 -2.2637,3.2105 -3.0595,3.8446 -2.3873,1.9024 -4.5862,2.0301 -4.6733,2.0385 -0.3453,0.0332 -1.9984,0.113 -2.1133,0.0988 -0.1099,-0.0138 -2.3397,-0.3828 -4.2028,-1.3936 -1.7796,-0.9656 -3.1984,-2.5751 -3.2099,-2.5883 -0.5522,-0.6344 -0.9877,-1.9761 -1.0001,-2 -0.119,-0.2288 -1.0291,-2.1258 -0.8403,-4.7821 0.0819,-1.1522 1.348,-4.4997 1.348,-4.4997 l -4.7313,-0.1117 c 0.1805,0 -7.9089,0.3934 -7.9089,0.3934 l 0.1028,16.6105 c 0,0 8e-4,1.4067 0.7237,2.1654 0.8471,0.8893 1.6866,0.4014 1.6944,0.4014 0,0 41.4675,2e-4 41.4818,0 z"
       id="path4" />
  </g>
  <g
     id="line"
     transform="translate(-11.1256,-16.0208)">
    <path
       fill="none"
       stroke="#000000"
       stroke-linecap="round"
       stroke-linejoin="round"
       stroke-width="2"
       d="m 15.2697,22.9178 c -1.7365,0 -3.1441,1.371 -3.1441,3.0622 v 23.2213 c 0,1.6912 1.4076,3.0623 3.1441,3.0623 h 41.6606 c 1.7365,0 3.1441,-1.3711 3.1441,-3.0623 V 25.98 c 0,-1.6912 -1.4076,-3.0622 -3.1441,-3.0622 z"
       id="path5" />
    <line
       x1="47.1521"
       x2="59.617699"
       y1="33.197498"
       y2="33.197498"
       fill="none"
       stroke="#000000"
       stroke-linecap="round"
       stroke-linejoin="round"
       stroke-width="2"
       id="line5" />
    <line
       x1="12.5823"
       x2="20.628799"
       y1="33.197498"
       y2="33.197498"
       fill="none"
       stroke="#000000"
       stroke-linecap="round"
       stroke-linejoin="round"
       stroke-width="2"
       id="line6" />
    <circle
       cx="33.852402"
       cy="37.590698"
       r="10"
       fill="none"
       stroke="#000000"
       stroke-linecap="round"
       stroke-linejoin="round"
       stroke-width="2"
       id="circle6" />
    <circle
       cx="33.852402"
       cy="37.590698"
       r="5"
       fill="none"
       stroke="#000000"
       stroke-linecap="round"
       stroke-linejoin="round"
       stroke-width="2"
       id="circle7" />
    <path
       fill="none"
       stroke="#000000"
       stroke-linecap="round"
       stroke-linejoin="round"
       stroke-width="2"
       d="m 27.831,19.1198 v -1.0782 c 0,-0.5638 -0.4692,-1.0208 -1.048,-1.0208 h -7.6766 c -0.5787,0 -1.048,0.457 -1.048,1.0208 v 1.0782"
       id="path7" />
  </g>
</svg>
