<svg xmlns="http://www.w3.org/2000/svg" xmlns:svg="http://www.w3.org/2000/svg" id="emoji" width="62" height="62" version="1.1" viewBox="0 0 62 62"><g id="color" transform="translate(-5,-5)"><circle id="circle1" cx="36" cy="36" r="26" fill="#fff"/><path id="path1" fill="none" d="M 29.48,20 H 43 c 1.104,0 2,0.8955 2,2 v 13.52"/><path id="path2" fill="none" d="M 42.52,52 H 29 c -1.104,0 -2,-0.8955 -2,-2 V 36.48"/><polyline id="polyline2" fill="#fff" stroke-linecap="round" stroke-linejoin="round" stroke-miterlimit="10" stroke-width="2" points="27 37.48 27 50 39.52 50"/><path id="path3" fill="#fff" stroke-linecap="round" stroke-linejoin="round" stroke-miterlimit="10" stroke-width="2" d="M 41.52,52 H 29 c -1.104,0 -2,-0.8955 -2,-2 h 12.52 z"/><polyline id="polyline3" fill="#fff" stroke-linecap="round" stroke-linejoin="round" stroke-miterlimit="10" stroke-width="2" points="45 34.52 45 22 32.48 22"/><path id="path4" fill="#fff" stroke-linecap="round" stroke-linejoin="round" stroke-miterlimit="10" stroke-width="2" d="M 30.48,20 H 43 c 1.104,0 2,0.8955 2,2 H 32.48 Z"/><path id="path5" fill="#ea5a47" stroke-miterlimit="10" d="M 36,7 C 19.98,7 7,19.98 7,36 7,52.02 19.98,65 36,65 52.02,65 65,52.02 65,36 65,19.98 52.02,7 36,7 Z M 10.79,36.27 c 0,-5.075 3.417,-12.69 6.202,-16.49 l 35.2,35.27 c -3.805,2.784 -10.93,5.904 -16.01,5.904 -12.7,0 -25.39,-11.98 -25.39,-24.68 z M 55.66,51.45 20.6,16.32 c 3.805,-2.784 10.77,-5.441 15.84,-5.441 12.7,0 24.68,12.25 24.68,24.95 0,5.075 -2.686,11.81 -5.47,15.62 z"/></g><g id="line" transform="translate(-5,-5)"><path id="path6" fill="none" stroke="#000" stroke-linecap="round" stroke-linejoin="round" stroke-miterlimit="10" stroke-width="2" d="M 27,35 V 50 H 39.52"/><path id="path7" fill="none" stroke="#000" stroke-linecap="round" stroke-linejoin="round" stroke-miterlimit="10" stroke-width="2" d="M 44.02,52 H 29 c -1.104,0 -2,-0.8955 -2,-2 h 15.02 z"/><path id="path8" fill="none" stroke="#000" stroke-linecap="round" stroke-linejoin="round" stroke-miterlimit="10" stroke-width="2" d="M 45,36 V 22 H 32.48"/><path id="path9" fill="none" stroke="#000" stroke-linecap="round" stroke-linejoin="round" stroke-miterlimit="10" stroke-width="2" d="M 28.98,20 H 43 c 1.104,0 2,0.8955 2,2 H 30.98 Z"/><circle id="circle9" cx="36" cy="36" r="30" fill="none" stroke="#000" stroke-linecap="round" stroke-linejoin="round" stroke-width="2"/><path id="path10" fill="none" stroke="#000" stroke-linecap="round" stroke-linejoin="round" stroke-width="2" d="M 55.66,51.44 A 24.99,24.99 0 0 0 20.6,16.31 Z"/><path id="path11" fill="none" stroke="#000" stroke-linecap="round" stroke-linejoin="round" stroke-width="2" d="m 16.99,19.77 a 24.99,24.99 0 0 0 35.2,35.27 z"/></g></svg>