<svg xmlns="http://www.w3.org/2000/svg" xmlns:svg="http://www.w3.org/2000/svg" id="emoji" width="54.726" height="41.857" version="1.1" viewBox="0 0 54.726 41.857"><g id="color" transform="translate(-8.0366885,-15.095486)"><path id="path1" fill="#d0cfce" d="m 42.6389,31.8639 -12.371,-0.3152 -13.8725,11.1591 0.4431,13.2445 31.7828,-0.7021 -0.0516,-4.1134 -5.425,-1.0927 c -0.5527,0 -0.5058,-18.1802 -0.5058,-18.1802 z"/><rect id="rect1" width="7.066" height="4.556" x="47.945" y="40.226" fill="#d0cfce"/><polygon id="polygon1" fill="#9b9b9a" points="54.907 46.494 55.012 44.069 47.943 44.069 48.05 46.494"/><path id="path2" fill="#d0cfce" d="m 60.7265,44.3793 c 0,-1.7945 0.065,-2.6512 0.1481,-3.6536 h -5.863 v 4.8024 h 5.7347 c 0,0 -0.0198,-0.4653 -0.0198,-1.1488 z"/><path id="path3" fill="#d0cfce" d="m 60.5723,45.494 c -0.0056,-0.052 -0.0103,-0.1144 -0.0155,-0.1698 0.0053,0.0646 0.0105,0.1227 0.0155,0.1698 z"/><path id="path4" fill="#9b9b9a" d="m 55.0116,44.0688 -0.1051,2.4251 h 6.856 c -0.0391,-0.3668 -0.2797,-2.3728 -0.2797,-2.3728 z"/><path id="path5" fill="#9b9b9a" d="m 33.6436,28.4507 c 0.0036,0.0166 0.0153,0.0285 0.0197,0.0447 -0.0312,-0.1137 -0.042,-0.1455 -0.0197,-0.0447 z"/><path id="path6" fill="#9b9b9a" d="m 40.2296,28.3969 c -2e-4,0.0045 3e-4,0.0089 0,0.0135 1e-4,-0.0045 -3e-4,-0.009 0,-0.0135 z"/><path id="path7" fill="#9b9b9a" d="m 47.2993,36.6465 -0.2467,0.0274 c 0.0081,2e-4 0.0155,0.0038 0.0236,0.0038 0.0744,0 0.1487,-0.0138 0.2231,-0.0312 z"/><path id="path8" fill="#9b9b9a" d="m 52.3867,21.4277 c -2.1435,-4.4756 -8.5711,-6.0514 -13.2689,-3.0185 -4.3839,3.3671 -5.3156,10.597 -5.4545,10.0862 0.13,0.4756 0.8648,2.6605 0.8648,2.6605 l 5.1432,0.1189 2.7164,-3.9992 c 0.4883,-0.812 2.268,-1.7955 2.8187,-1.3907 1.253,0.9214 -1.6947,7.2765 -1.6947,7.2765 l 0.1377,3.8894 3.4032,-0.3769 c -0.4261,-0.0105 -0.5357,-1.4421 0.6401,-2.0983 1.7236,-0.9639 3.4569,-2.0367 4.5257,-3.7835 1.7269,-2.8225 1.5726,-6.4323 0.1683,-9.3644 z"/><path id="path9" fill="#9b9b9a" d="m 45.7668,30.0366 c -0.0149,0.007 -0.0302,0.0125 -0.0454,0.0186 0.0154,-0.0065 0.0303,-0.0113 0.0454,-0.0186 z"/><path id="path10" fill="#9b9b9a" d="m 29.8198,32.4042 c 0.1748,-0.1367 0.2202,-1.4755 0.4429,-1.4765 L 29.7062,29.197 c 0.0545,0.4878 -1.5581,0.4131 -1.6948,-0.1221 -0.8066,-3.1538 -3.7063,-5.4551 -6.847,-6.294 -4.7968,-1.2827 -9.3783,2.1105 -10.5237,4.8668 -0.941,1.2724 -1.7668,6.7659 1.3938,10.2806 0.4873,0.2607 2.0774,1.8287 2.4374,2.4736 0,0 0.7204,0.3893 0.5916,0.6928 l 1.3529,1.0333 c 0.3734,0.255 0.2732,1.1737 0.4221,1.0566 l 5.5177,-4.7492 -3.1692,-3.2331 -0.4974,-0.3296 c -0.6143,-0.7217 -1.1222,-1.0329 -0.9992,-2.0036 0.0967,-0.7667 0.0609,-1.1753 0.6195,-1.5689 1.2744,-0.8935 1.7364,-0.7536 2.8497,0.5579 l 1.0812,0.8509 c 0.0157,0.0174 0.4983,0.8929 0.5126,0.911 0,-2e-4 2.8677,1.9541 2.8677,1.9541 z"/><path id="path11" fill="#d0cfce" d="m 23.5283,33.0065 c -0.5374,-0.086 -0.4709,-0.4919 -0.863,-0.1374 -0.4092,0.3721 -0.3022,0.3185 -0.6723,-0.0897 l -1.1997,-1.1322 c -0.4659,-0.5488 -2.3953,-0.1518 -2.4207,0.0445 -0.0518,0.4092 -0.2705,1.6342 0,1.9526 l 0.2098,1.558 c 0.3427,0.4336 1.0781,0.6189 0.6455,0.9617 -0.1846,0.1455 -0.1927,0.7569 -0.39,0.5079 l 2.0237,2.3191 4.775,-3.7469 z"/><path id="path12" fill="#d0cfce" d="m 42.6389,31.8639 1.0028,1.4762 2.4474,-3.5369 c 0,0 -3e-4,-0.005 -3e-4,-0.0052 -0.1923,0.2162 0.964,-3.5686 -1.1614,-4.1405 -2.1253,-0.5718 -4.7971,2.8435 -4.6277,2.4111 l -1.6134,2.8159 v 0.9794 c 0.2725,0.0029 3.9516,-0.2656 3.9526,0 z"/><polygon id="polygon12" fill="#d0cfce" points="40.646 27.464 40.646 27.464"/></g><g id="line" transform="translate(-8.0366885,-15.095486)"><path id="path13" fill="none" stroke="#000" stroke-linecap="round" stroke-linejoin="round" stroke-width="2" d="m 45.3461,29.1377 0.3297,-0.5876 c 0.6377,-1.0595 0.444,-2.2743 -0.3788,-2.879 -0.8227,-0.6047 -2.2838,-0.09 -2.9215,0.9694 l -1.1633,1.7874"/><line id="line13" x1="48.608" x2="47.639" y1="21.428" y2="22.454" fill="none" stroke="#000" stroke-linecap="round" stroke-linejoin="round" stroke-width="2"/><line id="line14" x1="41.647" x2="42.528" y1="20.457" y2="21.712" fill="none" stroke="#000" stroke-linecap="round" stroke-linejoin="round" stroke-width="2"/><line id="line15" x1="46.898" x2="46.943" y1="32.025" y2="32.186" fill="none" stroke="#000" stroke-linecap="round" stroke-linejoin="round" stroke-width="2"/><line id="line16" x1="37.647" x2="38.845" y1="25.526" y2="25.789" fill="none" stroke="#000" stroke-linecap="round" stroke-linejoin="round" stroke-width="2"/><line id="line17" x1="50.652" x2="49.364" y1="27.953" y2="27.51" fill="none" stroke="#000" stroke-linecap="round" stroke-linejoin="round" stroke-width="2"/><line id="line18" x1="21.956" x2="34.263" y1="43.993" y2="43.993" fill="none" stroke="#000" stroke-linecap="round" stroke-linejoin="round" stroke-width="2"/><line id="line19" x1="21.956" x2="34.263" y1="47.993" y2="47.993" fill="none" stroke="#000" stroke-linecap="round" stroke-linejoin="round" stroke-width="2"/><line id="line20" x1="21.956" x2="34.263" y1="51.993" y2="51.993" fill="none" stroke="#000" stroke-linecap="round" stroke-linejoin="round" stroke-width="2"/><line id="line21" x1="21.956" x2="34.263" y1="43.993" y2="43.993" fill="none" stroke="#000" stroke-linecap="round" stroke-linejoin="round" stroke-width="2"/><line id="line22" x1="21.956" x2="34.263" y1="47.993" y2="47.993" fill="none" stroke="#000" stroke-linecap="round" stroke-linejoin="round" stroke-width="2"/><line id="line23" x1="21.956" x2="34.263" y1="51.993" y2="51.993" fill="none" stroke="#000" stroke-linecap="round" stroke-linejoin="round" stroke-width="2"/><polygon id="polygon23" fill="none" stroke="#000" stroke-linecap="round" stroke-linejoin="round" stroke-width="2" points="42.665 44.733 42.639 31.864 30.268 31.928 16.838 42.465 16.838 55.952 41.706 55.952 42.678 55.952 49.323 55.952 49.323 50.343 42.678 50.343 42.678 44.733"/><path id="path23" fill="none" stroke="#000" stroke-linecap="round" stroke-linejoin="round" stroke-width="2" d="m 61.7625,46.4939 h -6.856 v -6.5555 h 6.856 c 0,0 -0.2947,0.8214 -0.2947,3.2778 0,2.4564 0.2947,3.2777 0.2947,3.2777 z"/><polyline id="polyline23" fill="none" stroke="#000" stroke-linecap="round" stroke-linejoin="round" stroke-width="2" points="56.059 46.494 48.05 46.494 48.05 39.938 56.059 39.938"/><path id="path24" fill="none" stroke="#000" stroke-linecap="round" stroke-linejoin="round" stroke-width="2" d="m 14.3144,40.5951 c -4.003,-2.1406 -6.1592,-6.8223 -4.937,-11.3972 1.4254,-5.3358 6.9064,-8.5057 12.2421,-7.0803 3.6206,0.9672 6.244,3.8018 7.1111,7.1913"/><path id="path25" fill="none" stroke="#000" stroke-linecap="round" stroke-linejoin="round" stroke-width="2" d="m 22.7534,33.62 -1.5938,-1.7619 c -0.8012,-0.9419 -2.0144,-1.1452 -2.8497,-0.5579 -0.8352,0.5873 -0.8128,2.1362 -0.0117,3.0781 l 1.3238,1.6721"/><line id="line25" x1="18.235" x2="18.385" y1="25.54" y2="26.944" fill="none" stroke="#000" stroke-linecap="round" stroke-linejoin="round" stroke-width="2"/><line id="line26" x1="12.972" x2="14.498" y1="30.199" y2="30.344" fill="none" stroke="#000" stroke-linecap="round" stroke-linejoin="round" stroke-width="2"/><line id="line27" x1="14.223" x2="15.202" y1="36.534" y2="35.794" fill="none" stroke="#000" stroke-linecap="round" stroke-linejoin="round" stroke-width="2"/><line id="line28" x1="24.522" x2="23.348" y1="28.23" y2="28.92" fill="none" stroke="#000" stroke-linecap="round" stroke-linejoin="round" stroke-width="2"/><path id="path28" fill="none" stroke="#000" stroke-linecap="round" stroke-linejoin="round" stroke-width="2" d="m 47.0768,35.6781 c 0.6124,-0.1736 1.3634,-0.466 2.4997,-1.1004 1.9943,-1.1134 2.9915,-2.7252 2.9915,-2.7252 2.0117,-2.8624 2.46,-6.6986 0.8411,-10.0784 -2.3858,-4.9809 -8.3577,-7.0847 -13.3387,-4.6989 -4.2707,2.0456 -6.4262,6.7276 -5.4503,11.1608"/></g></svg>