<svg xmlns="http://www.w3.org/2000/svg" xmlns:svg="http://www.w3.org/2000/svg" id="emoji" width="63.563" height="39.841" version="1.1" viewBox="0 0 63.563 39.841"><g id="color" transform="translate(-4.2797,-16.0587)"><path id="path1" fill="#d0cfce" stroke="none" d="m 5.2797,17.0587 v 34.841 c 0,1.1026 1.8975,3 3,3 H 63.843 c 1.1025,0 3,-1.8974 3,-3 v -34.841 z"/><polyline id="polyline1" fill="none" stroke="none" points="11 28.115 11 21.076 60.983 21.076 60.983 28.115"/><path id="path2" fill="#fff" stroke="none" d="m 49.1871,42.833 c 2.0872,0 3.7793,-1.6921 3.7793,-3.7793 0,-2.0873 -1.6921,-3.7794 -3.7793,-3.7794 z"/><rect id="rect2" width="17.227" height="13.58" x="27.402" y="31.876" fill="#fcea2b" stroke="none"/><path id="path3" fill="#fff" stroke="none" d="m 51.9668,39.0537 c 0,-1.1797 -0.7393,-2.1904 -1.7793,-2.5937 v 5.1875 c 1.04,-0.4034 1.7793,-1.4141 1.7793,-2.5938 z"/><path id="path4" fill="#fff" stroke="none" d="m 19.9043,39.0537 c 0,1.1797 0.7393,2.1904 1.7793,2.5938 V 36.46 c -1.04,0.4033 -1.7793,1.414 -1.7793,2.5937 z"/><path id="path5" fill="#d0cfce" stroke="none" d="m 13.4614,39.3423 c 0,4.0913 5.0779,7.9026 9.2223,8.4176 V 42.833 c -2.3654,-0.4828 -3.7793,-1.3807 -3.7793,-3.7793 0,-2.3985 1.4139,-3.2966 3.7793,-3.7794 v -4.9268 c 0,0 -4.0828,1.2914 -5.5313,1.9847 -1.3174,0.6305 -3.691,7.0101 -3.691,7.0101 z"/><path id="path6" fill="#d0cfce" stroke="none" d="m 54.1139,31.876 c -1.5628,-1.1186 -4.1301,-1.4925 -4.1301,-1.4925 l 0.2037,5.0282 c 0,0 2.4418,1.3699 2.4418,3.4104 0,1.9308 -1.5522,2.962 -3.1237,4.0109 l -0.3185,5.1634 c 3.7497,-1.3535 9.0277,-4.0938 8.5777,-9.7128 -0.45,-5.6189 -3.156,-6.0533 -3.6509,-6.4076 z"/><path id="path7" fill="#9b9b9a" stroke="none" d="m 22.6837,32.6647 -0.7888,-2.3172 c -3.7783,0.4922 -8.1744,5.1224 -6.9174,8.7062 0,0 0.5725,-1.6479 1.2564,-2.7343 0.6839,-1.0865 1.7737,-2.2682 2.9748,-2.8709 1.3205,-0.6625 3.475,-0.7838 3.475,-0.7838 z"/><path id="path8" fill="#9b9b9a" stroke="none" d="m 51.9681,47.1866 c -0.5646,0.2192 -2.1616,0.7291 -2.781,0.8098 l 0.3185,-5.1634 c 0.6524,-0.1396 1.9366,-0.0236 2.4612,-0.3997 z"/><path id="path9" fill="#9b9b9a" stroke="none" d="m 56.4439,36.4584 c 1.3479,-2.0593 -4.358,-5.7333 -7.2568,-6.1109 v 4.4879 c 0.5391,0.1154 2.0453,0.8634 2.5007,1.1438 l 0.0621,-3.2199 c 0,0 1.3258,0.4776 2.525,1.4021 1.1992,0.9246 2.169,2.297 2.169,2.297 z"/><path id="path10" fill="#9b9b9a" stroke="none" d="M 59.9824,23.3343 V 22.0762 H 12 v 6.039 c 0,0.4141 -0.2512,0.7688 -0.6094,0.9207 0,0 1.823,0.2259 1.823,-0.9206 0,-1.1464 0,-4.781 0,-4.781"/><polygon id="polygon10" fill="#9b9b9a" stroke="none" points="61.982 21.076 61.982 21.076"/></g><g id="line" transform="translate(-4.2797,-16.0587)"><path id="path11" fill="none" stroke="#000" stroke-linecap="round" stroke-linejoin="round" stroke-miterlimit="10" stroke-width="2" d="M 63.843,54.8997 H 8.2797 c -1.6569,0 -3,-1.3431 -3,-3 V 17.0587 H 66.843 v 34.841 c 0,1.6569 -1.3432,3 -3,3 z"/><path id="path12" fill="none" stroke="#000" stroke-linecap="round" stroke-linejoin="round" stroke-miterlimit="10" stroke-width="2" d="m 22.6837,30.3475 c -4.8083,0 -8.7062,3.8979 -8.7062,8.7062 0,4.8083 3.8979,8.7062 8.7062,8.7062 z"/><path id="path13" fill="none" stroke="#000" stroke-linecap="round" stroke-linejoin="round" stroke-miterlimit="10" stroke-width="2" d="m 49.1871,47.7599 c 4.8083,0 8.7062,-3.8979 8.7062,-8.7062 0,-4.8083 -3.8979,-8.7062 -8.7062,-8.7062 z"/><path id="path14" fill="none" stroke="#000" stroke-linecap="round" stroke-linejoin="round" stroke-miterlimit="10" stroke-width="2" d="m 22.6837,35.2743 c -2.0873,0 -3.7793,1.6921 -3.7793,3.7794 0,2.0872 1.692,3.7793 3.7793,3.7793 z"/><rect id="rect14" width="17.556" height="13.58" x="27.074" y="31.876" fill="none" stroke="#000" stroke-linecap="round" stroke-linejoin="round" stroke-miterlimit="10" stroke-width="2"/><polyline id="polyline14" fill="none" stroke="#000" stroke-linecap="round" stroke-linejoin="round" stroke-miterlimit="10" stroke-width="2" points="11 28.115 11 21.076 60.983 21.076 60.983 28.115"/><path id="path15" fill="none" stroke="#000" stroke-linecap="round" stroke-linejoin="round" stroke-miterlimit="10" stroke-width="2" d="m 49.1871,42.833 c 2.0872,0 3.7793,-1.6921 3.7793,-3.7793 0,-2.0873 -1.6921,-3.7794 -3.7793,-3.7794 z"/><line id="line15" x1="16.783" x2="56.122" y1="25.812" y2="25.812" fill="none" stroke="#000" stroke-linecap="round" stroke-linejoin="round" stroke-miterlimit="10" stroke-width="2"/></g></svg>