<svg xmlns="http://www.w3.org/2000/svg" xmlns:svg="http://www.w3.org/2000/svg" id="emoji" width="49.745" height="50.778" version="1.1" viewBox="0 0 49.745 50.778"><g id="color" transform="translate(-11.2227,-10.5691)"><path id="path1" fill="#d0cfce" stroke="none" d="M 13.2227,59.3477 H 58.9678 V 32.7764 H 13.2227 Z"/><path id="path2" fill="#9b9b9a" stroke="none" d="m 18.7401,38.2841 36.479,0.177 0.4075,-2.1818 H 16.6237 v 11.1684 l 2.0825,0.336 z"/><polygon id="polygon2" fill="#d0cfce" stroke="none" points="12.223 26.621 59.968 26.606 59.968 23.793 12.223 23.793"/><circle id="circle2" cx="22.268" cy="13.569" r="1" fill="#d0cfce" stroke="none"/><circle id="circle3" cx="22.49" cy="41.984" r="2" fill="#3f3f3f" stroke="none"/></g><g id="line" transform="translate(-11.2227,-10.5691)"><line id="line3" x1="47.434" x2="55.219" y1="27.214" y2="31.428" fill="none" stroke="#000" stroke-linecap="round" stroke-linejoin="round" stroke-miterlimit="10" stroke-width="2"/><line id="line4" x1="24.028" x2="34.665" y1="14.546" y2="20.303" fill="none" stroke="#000" stroke-linecap="round" stroke-linejoin="round" stroke-miterlimit="10" stroke-width="2"/><circle id="circle4" cx="22.267" cy="13.569" r="2" fill="none" stroke="#000" stroke-linecap="round" stroke-linejoin="round" stroke-miterlimit="10" stroke-width="2"/><rect id="rect4" width="47.745" height="28.571" x="12.223" y="31.777" fill="none" stroke="#000" stroke-linecap="round" stroke-linejoin="round" stroke-miterlimit="10" stroke-width="2"/><line id="line5" x1="16.546" x2="55.118" y1="52.237" y2="52.237" fill="none" stroke="#000" stroke-linecap="round" stroke-linejoin="round" stroke-miterlimit="10" stroke-width="2"/><line id="line6" x1="16.546" x2="55.118" y1="56.237" y2="56.237" fill="none" stroke="#000" stroke-linecap="round" stroke-linejoin="round" stroke-miterlimit="10" stroke-width="2"/><rect id="rect6" width="38.595" height="11.504" x="16.624" y="36.279" fill="none" stroke="#000" stroke-linecap="round" stroke-linejoin="round" stroke-miterlimit="10" stroke-width="2"/><circle id="circle6" cx="22.491" cy="41.985" r="2" fill="none" stroke="#000" stroke-linecap="round" stroke-linejoin="round" stroke-miterlimit="10" stroke-width="2"/><polyline id="polyline6" fill="none" stroke="#000" stroke-linecap="round" stroke-linejoin="round" stroke-miterlimit="10" stroke-width="2" points="12.223 26.946 12.223 23.793 59.968 23.793 59.968 26.946"/><line id="line7" x1="38.293" x2="38.293" y1="41.697" y2="42.364" fill="none" stroke="#000" stroke-linecap="round" stroke-linejoin="round" stroke-miterlimit="10" stroke-width="2"/><line id="line8" x1="42.293" x2="42.293" y1="41.697" y2="42.364" fill="none" stroke="#000" stroke-linecap="round" stroke-linejoin="round" stroke-miterlimit="10" stroke-width="2"/><line id="line9" x1="46.293" x2="46.293" y1="41.697" y2="42.364" fill="none" stroke="#000" stroke-linecap="round" stroke-linejoin="round" stroke-miterlimit="10" stroke-width="2"/></g></svg>