<svg xmlns="http://www.w3.org/2000/svg" xmlns:svg="http://www.w3.org/2000/svg" id="emoji" width="62.456" height="29.016" version="1.1" viewBox="0 0 62.456 29.016"><g id="color" transform="translate(-4.772,-22.1885)"><path id="path1" fill="#d0cfce" stroke="none" d="m 59.971,42.7985 c 0,-0.5523 0.4477,-1 1,-1 h 4.143 v -9.183 h -4.143 c -0.5523,0 -1,-0.4477 -1,-1 m 0,0 v -7.159 H 6.662 v 25.013 h 53.309 v -6.671"/><path id="path2" fill="#d0cfce" stroke="none" d="m 61.083,32.3485 c -0.5523,0 -1,-0.4477 -1,-1 v -7.159 H 36.967 6.773 v 25.013 h 11.736 41.577 v -6.671 c 0,-0.5523 0.4477,-1 1,-1 h 4.143 v -9.183 z"/><path id="path3" fill="#b1cc33" stroke="none" d="M 12.002,45.3665 H 44.241 V 28.3595 H 12.002 Z"/></g><g id="line" transform="translate(-4.772,-22.1885)"><path id="path4" fill="none" stroke="#000" stroke-linecap="round" stroke-linejoin="round" stroke-width="2" d="m 61.081,31.3475 v -7.159 c 0,-0.5523 -0.4477,-1 -1,-1 H 6.772 c -0.5523,0 -1,0.4477 -1,1 v 25.016 c 0,0.5523 0.4477,1 1,1 h 53.313 c 0.5523,0 1,-0.4477 1,-1 v -6.674 h 5.143 v -11.183 z"/><rect id="rect4" width="34.239" height="19.007" x="11" y="27.36" fill="none" stroke="#000" stroke-linecap="round" stroke-linejoin="round" stroke-width="2"/></g></svg>