<svg xmlns="http://www.w3.org/2000/svg" xmlns:svg="http://www.w3.org/2000/svg" id="emoji" width="52.878" height="39.65" version="1.1" viewBox="0 0 52.878 39.65"><g id="color" transform="translate(-9.561,-13.294023)"><g id="_1F50F"><polyline id="polyline1" fill="#fcea2b" points="37.48 34.315 37.48 52.009 10.561 52.009 10.561 34.315 11.907 34.315 36.134 34.315 37.48 34.315"/><polygon id="polygon1" fill="#f1b31c" points="37.551 51.878 37.48 34.365 23.879 51.878"/><path id="path1" fill="none" stroke="#9b9b9a" stroke-linejoin="round" stroke-width="3.625" d="m 14.9071,33.8116 c 0,-6.6518 2.1867,-13.6858 8.9363,-13.6858 6.8717,0 9.0737,5.5584 9.3486,13.6858"/><polyline id="polyline2" fill="#d0cfce" stroke="#d0cfce" stroke-linecap="round" stroke-linejoin="round" stroke-width="1.563" points="42.923 41.776 40.042 46.616 34.701 47.873 34.12 42.889 38.097 38.739"/><path id="path2" fill="#9b9b9a" d="m 61.4392,17.0306 -2.1873,-1.3506 -2.16,-1.386 c 0,0 -7.1483,5.7268 -11.3965,11.7417 a 109.0153,109.0153 0 0 0 -7.9309,12.4935 l 2.8285,1.78 2.6586,1.6735 a 138.8534,138.8534 0 0 0 10.09,-11.1344 63.4177,63.4177 0 0 0 8.0976,-13.8177 z"/><path id="path3" fill="#3f3f3f" d="m 43.3,29.7721 a 60.7017,60.7017 0 0 0 -5.6274,8.6992 l 2.8285,1.78 2.6586,1.6735 A 63.8691,63.8691 0 0 0 50.336,34.201 Z"/></g></g><g id="line" transform="translate(-9.561,-13.294023)"><g id="_1F50F-2"><path id="path4" fill="none" stroke="#000" stroke-linejoin="round" stroke-width="2" d="m 13.6972,34.3068 c 0,-7.5322 2.9241,-15.2583 10.1189,-15.2583 6.899,0 10.2745,6.0553 10.5858,15.2583"/><polyline id="polyline4" fill="none" stroke="#000" stroke-linecap="round" stroke-linejoin="round" stroke-width="2" points="37.48 50.39 37.48 51.944 10.561 51.944 10.561 34.3 11.907 34.3 36.134 34.3 37.48 34.3"/><polyline id="polyline5" fill="none" stroke="#000" stroke-linecap="round" stroke-linejoin="round" stroke-width="2" points="41.799 44.313 40.113 46.606 34.701 47.873 34.106 42.825 35.863 40.522"/><line id="line5" x1="37.088" x2="35.402" y1="44.702" y2="46.995" fill="none" stroke="#000" stroke-linecap="round" stroke-linejoin="round" stroke-width="2"/><path id="path5" fill="none" stroke="#000" stroke-linecap="round" stroke-linejoin="round" stroke-width="2" d="m 61.4392,17.0306 -2.1873,-1.3506 -2.16,-1.386 c 0,0 -7.1483,5.7268 -11.3965,11.7417 a 109.0153,109.0153 0 0 0 -7.9309,12.4935 l 2.8285,1.78 2.6586,1.6735 a 138.8534,138.8534 0 0 0 10.09,-11.1344 63.4177,63.4177 0 0 0 8.0976,-13.8177 z"/><line id="line6" x1="43.208" x2="50.613" y1="29.643" y2="34.301" fill="none" stroke="#000" stroke-linejoin="round" stroke-width="2"/></g></g></svg>