<?xml version="1.0" encoding="UTF-8" standalone="no"?>
<svg
   id="emoji"
   viewBox="0 0 55.186993 51.165783"
   version="1.1"
   sodipodi:docname="1f509.svg"
   width="55.186993"
   height="51.165783"
   xmlns:inkscape="http://www.inkscape.org/namespaces/inkscape"
   xmlns:sodipodi="http://sodipodi.sourceforge.net/DTD/sodipodi-0.dtd"
   xmlns="http://www.w3.org/2000/svg"
   xmlns:svg="http://www.w3.org/2000/svg">
  <defs
     id="defs5" />
  <sodipodi:namedview
     id="namedview5"
     pagecolor="#ffffff"
     bordercolor="#000000"
     borderopacity="0.25"
     inkscape:showpageshadow="2"
     inkscape:pageopacity="0.0"
     inkscape:pagecheckerboard="0"
     inkscape:deskcolor="#d1d1d1" />
  <g
     id="color"
     transform="translate(-10.0718,-10.37531)">
    <path
       fill="#9b9b9a"
       stroke="none"
       d="m 12.0792,44.4113 v -16.694 c 0,-1.1046 0.8955,-2 2,-2 h 11.712 v 20.692 h -11.712 c -1.1038,0 -1.9989,-0.8942 -2,-1.998 z"
       id="path1" />
    <path
       fill="#d0cfce"
       stroke="none"
       d="m 42.2682,58.4333 -14.5,-11.579 c 0.036,-0.0961 0.0566,-0.1974 0.061,-0.3 v -21.25 c -0.0055,-0.0394 -0.0135,-0.0785 -0.024,-0.117 l 14.459,-11.74 z"
       id="path2" />
  </g>
  <g
     id="hair"
     transform="translate(-10.0718,-10.37531)" />
  <g
     id="skin"
     transform="translate(-10.0718,-10.37531)" />
  <g
     id="skin-shadow"
     transform="translate(-10.0718,-10.37531)" />
  <g
     id="line"
     transform="translate(-10.0718,-10.37531)">
    <path
       fill="none"
       stroke="#000000"
       stroke-linecap="round"
       stroke-linejoin="round"
       stroke-width="2"
       d="m 43.2188,11.3752 -16.435,13.346 h -12.712 c -1.6548,0.005 -2.995,1.3452 -3,3 v 16.692 c 0.005,1.6548 1.3452,2.995 3,3 h 12.712 l 16.436,13.128 z"
       id="path3" />
    <line
       x1="26.7838"
       x2="26.7838"
       y1="25.3332"
       y2="46.583199"
       fill="none"
       stroke="#000000"
       stroke-linecap="round"
       stroke-linejoin="round"
       stroke-width="2"
       id="line3" />
    <path
       fill="none"
       stroke="#000000"
       stroke-linecap="round"
       stroke-miterlimit="10"
       stroke-width="2"
       d="m 54.6738,24.6122 c 5.0427,6.7235 5.0427,15.9684 0,22.692"
       id="path4" />
    <path
       fill="none"
       stroke="#000000"
       stroke-linecap="round"
       stroke-miterlimit="10"
       stroke-width="2"
       d="m 58.8689,19.7825 c 7.1892,9.5856 7.1892,22.7658 0,32.3514"
       id="path5" />
  </g>
</svg>
