<?xml version="1.0" encoding="UTF-8" standalone="no"?>
<svg
   id="emoji"
   viewBox="0 0 38.380001 63.193001"
   version="1.1"
   sodipodi:docname="1f50c.svg"
   width="38.380001"
   height="63.193001"
   xmlns:inkscape="http://www.inkscape.org/namespaces/inkscape"
   xmlns:sodipodi="http://sodipodi.sourceforge.net/DTD/sodipodi-0.dtd"
   xmlns="http://www.w3.org/2000/svg"
   xmlns:svg="http://www.w3.org/2000/svg">
  <defs
     id="defs10" />
  <sodipodi:namedview
     id="namedview10"
     pagecolor="#ffffff"
     bordercolor="#000000"
     borderopacity="0.25"
     inkscape:showpageshadow="2"
     inkscape:pageopacity="0.0"
     inkscape:pagecheckerboard="0"
     inkscape:deskcolor="#d1d1d1" />
  <g
     id="color"
     transform="translate(-18.435,-3.9035)">
    <path
       fill="#9b9b9a"
       stroke="none"
       d="m 30.644,51.1065 c 0.5335,-0.1424 1.0815,0.1746 1.224,0.708 l 1.455,5.449 h 8.387 l 1.455,-5.426 c 0.143,-0.5334 0.6913,-0.85 1.2248,-0.7071 10e-5,0 2e-4,0 2e-4,0"
       id="path1" />
    <path
       fill="#3f3f3f"
       stroke="none"
       d="m 33.013,24.1055 c -0.5523,0 -1,-0.4477 -1,-1 V 8.2195 c 0,-1.2744 -1.0331,-2.3075 -2.3075,-2.3075 -1.2744,0 -2.3075,1.0331 -2.3075,2.3075 v 14.883 c 0,0.5523 -0.4477,1 -1,1"
       id="path2" />
    <path
       fill="#3f3f3f"
       stroke="none"
       d="m 49.55,24.1055 c -0.5523,0 -1,-0.4477 -1,-1 V 8.2195 C 48.549,6.9454 47.5154,5.9133 46.2412,5.9143 44.9684,5.9153 43.9369,6.9468 43.936,8.2195 v 14.883 c 0,0.5523 -0.4477,1 -1,1"
       id="path3" />
    <path
       fill="#d0cfce"
       stroke="none"
       d="M 47.601,24.1885 H 20.435 v 10.48 c -0.0125,9.4811 7.6634,17.1771 17.1444,17.1895 3.5425,0.0047 6.9998,-1.0868 9.8976,-3.1245 0.5929,-8.1696 0.6343,-16.3698 0.124,-24.545 z"
       id="path4" />
    <path
       fill="#9b9b9a"
       stroke="none"
       d="m 47.601,24.1885 c 0.5104,8.1755 0.469,16.3761 -0.124,24.546 4.5953,-3.2095 7.3349,-8.4598 7.339,-14.065 v -10.48 z"
       id="path5" />
    <path
       fill="#d0cfce"
       stroke="none"
       d="m 41.657,67.0965 c -0.5523,0 -1,-0.4477 -1,-1 v -7.083 h -6.063 v 7.083 c 0,0.5523 -0.4477,1 -1,1"
       id="path6" />
  </g>
  <g
     id="hair"
     transform="translate(-18.435,-3.9035)" />
  <g
     id="skin"
     transform="translate(-18.435,-3.9035)" />
  <g
     id="skin-shadow"
     transform="translate(-18.435,-3.9035)" />
  <g
     id="line"
     transform="translate(-18.435,-3.9035)">
    <path
       fill="none"
       stroke="#000000"
       stroke-linecap="round"
       stroke-miterlimit="10"
       stroke-width="2"
       d="M 33.013,23.0925 V 8.2105 c 0,-1.8264 -1.4806,-3.307 -3.307,-3.307 v 0 0 c -1.8264,0 -3.307,1.4806 -3.307,3.307 v 0 14.883"
       id="path7" />
    <path
       fill="none"
       stroke="#000000"
       stroke-linecap="round"
       stroke-miterlimit="10"
       stroke-width="2"
       d="M 49.55,23.0925 V 8.2105 c 0,-1.8264 -1.4806,-3.307 -3.307,-3.307 v 0 0 c -1.8264,0 -3.307,1.4806 -3.307,3.307 v 0 14.883"
       id="path8" />
    <path
       fill="none"
       stroke="#000000"
       stroke-linecap="round"
       stroke-linejoin="round"
       stroke-width="2"
       d="m 19.435,23.1885 v 11.48 c 0,10.0461 8.1439,18.19 18.19,18.19 10.0461,0 18.19,-8.144 18.19,-18.19 v -11.48 z"
       id="path9" />
    <polyline
       fill="none"
       stroke="#000000"
       stroke-linecap="round"
       stroke-linejoin="round"
       stroke-width="2"
       points="31.011,51.8095 32.665,58.0005 42.586,58.0005 44.24,51.8335"
       id="polyline9" />
    <polyline
       fill="none"
       stroke="#000000"
       stroke-linecap="round"
       stroke-linejoin="round"
       stroke-width="2"
       points="33.618,66.0835 33.618,58.0005 41.681,58.0005 41.681,66.0835"
       id="polyline10" />
  </g>
</svg>
