<svg xmlns="http://www.w3.org/2000/svg" xmlns:svg="http://www.w3.org/2000/svg" id="emoji" width="63.786" height="46.428" version="1.1" viewBox="0 0 63.786 46.428"><g id="line" transform="translate(-4,-12.7444)"><path id="path1" fill="none" stroke="#000" stroke-linecap="round" stroke-linejoin="round" stroke-miterlimit="10" stroke-width="2" d="m 40.3774,40.4583 6.9093,6.9332 c 1.6139,1.6195 4.0955,2.5668 6.7244,2.5668 H 66.786"/><path id="path2" fill="none" stroke="#000" stroke-linecap="round" stroke-linejoin="round" stroke-miterlimit="10" stroke-width="2" d="m 5,21.9583 h 12.7749 c 2.6288,0 5.1104,0.9473 6.7244,2.5668 l 7.0229,7.0473"/><path id="path3" fill="none" stroke="#000" stroke-linecap="round" stroke-linejoin="round" stroke-miterlimit="10" stroke-width="2" d="m 5,49.9583 h 12.7749 c 2.6288,0 5.1104,-0.9473 6.7244,-2.5668 L 47.2867,24.5251 c 1.6139,-1.6195 4.0955,-2.5668 6.7244,-2.5668 H 66.786"/><line id="line3" x1="66.786" x2="58.6" y1="21.958" y2="13.744" fill="none" stroke="#000" stroke-linecap="round" stroke-linejoin="round" stroke-miterlimit="10" stroke-width="2"/><line id="line4" x1="58.6" x2="66.786" y1="30.172" y2="21.958" fill="none" stroke="#000" stroke-linecap="round" stroke-linejoin="round" stroke-miterlimit="10" stroke-width="2"/><line id="line5" x1="66.786" x2="58.6" y1="49.958" y2="41.744" fill="none" stroke="#000" stroke-linecap="round" stroke-linejoin="round" stroke-miterlimit="10" stroke-width="2"/><line id="line6" x1="58.6" x2="66.786" y1="58.172" y2="49.958" fill="none" stroke="#000" stroke-linecap="round" stroke-linejoin="round" stroke-miterlimit="10" stroke-width="2"/></g></svg>