<?xml version="1.0" encoding="UTF-8" standalone="no"?>
<svg
   id="emoji"
   viewBox="0 0 50.5 51.165882"
   version="1.1"
   sodipodi:docname="1f507.svg"
   width="50.5"
   height="51.165882"
   xmlns:inkscape="http://www.inkscape.org/namespaces/inkscape"
   xmlns:sodipodi="http://sodipodi.sourceforge.net/DTD/sodipodi-0.dtd"
   xmlns="http://www.w3.org/2000/svg"
   xmlns:svg="http://www.w3.org/2000/svg">
  <defs
     id="defs6" />
  <sodipodi:namedview
     id="namedview6"
     pagecolor="#ffffff"
     bordercolor="#000000"
     borderopacity="0.25"
     inkscape:showpageshadow="2"
     inkscape:pageopacity="0.0"
     inkscape:pagecheckerboard="0"
     inkscape:deskcolor="#d1d1d1" />
  <g
     id="color"
     transform="translate(-10.6048,-10.37531)">
    <path
       fill="#d0cfce"
       stroke="#d0cfce"
       stroke-linecap="round"
       stroke-linejoin="round"
       stroke-miterlimit="10"
       stroke-width="2"
       d="m 33.7701,47.4133 16.436,13.128 -10e-4,-49.166 -16.435,13.346"
       id="path1" />
    <line
       x1="33.714901"
       x2="33.714901"
       y1="24.8011"
       y2="46.051102"
       fill="#d0cfce"
       stroke="#d0cfce"
       stroke-linecap="round"
       stroke-linejoin="round"
       stroke-miterlimit="10"
       stroke-width="2"
       id="line1" />
    <path
       fill="#9b9b9a"
       stroke="#9b9b9a"
       stroke-miterlimit="10"
       stroke-width="1.9381"
       d="M 32.7926,24.7213 H 20.8553 c -1.554,0.005 -2.8125,1.3452 -2.8172,3 v 16.692 c 0.0047,1.6548 1.2632,2.995 2.8172,3 h 11.9373"
       id="path2" />
  </g>
  <g
     id="hair"
     transform="translate(-10.6048,-10.37531)" />
  <g
     id="skin"
     transform="translate(-10.6048,-10.37531)" />
  <g
     id="skin-shadow"
     transform="translate(-10.6048,-10.37531)" />
  <g
     id="line"
     transform="translate(-10.6048,-10.37531)">
    <path
       fill="none"
       stroke="#000000"
       stroke-linecap="round"
       stroke-linejoin="round"
       stroke-width="2"
       d="m 50.2195,45.4881 -7e-4,-34.1129 -16.435,13.346 h -4.1277"
       id="path3" />
    <path
       fill="none"
       stroke="#000000"
       stroke-linecap="round"
       stroke-linejoin="round"
       stroke-width="2"
       d="m 20.2294,24.8434 c -1.2445,0.3664 -2.1535,1.5155 -2.1576,2.8778 v 16.692 c 0.005,1.6548 1.3452,2.995 3,3 h 12.712 l 16.436,13.128 -10e-5,-5.659"
       id="path4" />
    <line
       x1="33.783798"
       x2="33.783798"
       y1="25.3332"
       y2="29"
       fill="none"
       stroke="#000000"
       stroke-linecap="round"
       stroke-linejoin="round"
       stroke-width="2"
       id="line4" />
    <line
       x1="33.783798"
       x2="33.783798"
       y1="39"
       y2="47.050999"
       fill="none"
       stroke="#000000"
       stroke-linecap="round"
       stroke-linejoin="round"
       stroke-width="2"
       id="line5" />
    <line
       x1="11.6048"
       x2="60.104801"
       y1="11.7825"
       y2="60.282501"
       fill="none"
       stroke="#000000"
       stroke-linecap="round"
       stroke-linejoin="round"
       stroke-width="2"
       id="line6" />
  </g>
</svg>
