<?xml version="1.0" encoding="UTF-8" standalone="no"?>
<svg
   id="emoji"
   viewBox="0 0 43.655998 40.382874"
   version="1.1"
   sodipodi:docname="1f51b.svg"
   width="43.655998"
   height="40.382874"
   xmlns:inkscape="http://www.inkscape.org/namespaces/inkscape"
   xmlns:sodipodi="http://sodipodi.sourceforge.net/DTD/sodipodi-0.dtd"
   xmlns="http://www.w3.org/2000/svg"
   xmlns:svg="http://www.w3.org/2000/svg">
  <defs
     id="defs7" />
  <sodipodi:namedview
     id="namedview7"
     pagecolor="#ffffff"
     bordercolor="#000000"
     borderopacity="0.25"
     inkscape:showpageshadow="2"
     inkscape:pageopacity="0.0"
     inkscape:pagecheckerboard="0"
     inkscape:deskcolor="#d1d1d1" />
  <g
     id="color"
     transform="translate(-13.5,-15.000126)">
    <path
       fill="#3f3f3f"
       d="m 44.2461,24.531 c -4.438,0.1766 -8.875,0.2289 -13.3145,0.0737 0.1881,0.0066 -4.8325,-0.0267 -4.52,0.2605 -0.2189,-0.2008 0.7571,-5.4961 0.7193,-5.3949 a 1.5137,1.5137 0 0 0 -2.2035,-1.694 30.8578,30.8578 0 0 0 -4.996,4.78 c -1.339,1.4519 -3.3092,2.3781 -4.4444,3.9864 a 1.4971,1.4971 0 0 0 0,1.5142 c 1.7612,3.3448 6.8322,4.8648 8.5793,8.2275 a 1.5108,1.5108 0 0 0 2.7952,-0.7571 c -0.1659,-2.2155 -0.7722,-4.3335 1.9216,-5.5531 1.1515,-0.5213 4.3349,-0.2567 5.59,-0.2873 a 109.1227,109.1227 0 0 1 11.1851,0.3562 l -1.5,-1.5 a 34.1176,34.1176 0 0 1 -0.3838,6.7046 1.5132,1.5132 0 0 0 2.5071,1.4594 q 4.3041,-4.296 8.8361,-8.3365 a 1.5125,1.5125 0 0 0 -0.3036,-2.3558 29.3257,29.3257 0 0 1 -8.8174,-7.718 1.5074,1.5074 0 0 0 -2.5071,0.6619 c -0.5025,2.5414 -0.9116,5.3286 1.1794,7.2821 0.7379,0.6894 2.3153,0.9058 2.6392,1.8029 0.381,1.0555 -0.6294,1.3555 -1.35,2.4079 L 48.6,30.81 a 23.368,23.368 0 0 1 -0.8306,-6.819 l -2.9465,0.3988 a 24.2429,24.2429 0 0 0 2.39,5.3618 1.5011,1.5011 0 0 0 2.59,-1.5142 21.2167,21.2167 0 0 1 -2.0874,-4.6452 1.5071,1.5071 0 0 0 -2.9464,0.3988 25.6527,25.6527 0 0 0 0.9377,7.6165 1.5194,1.5194 0 0 0 2.7417,0.3583 c 1.0819,-1.5791 3.28,-1.9512 3.0009,-4.2675 -0.5529,-4.59 -6.573,-0.83 -5.1667,-7.942 l -2.5071,0.6619 a 31.56,31.56 0 0 0 9.4246,8.1871 L 52.8969,26.25 q -4.5388,4.047 -8.836,8.3365 l 2.5071,1.4594 a 39.316,39.316 0 0 0 0.4909,-7.5021 1.54,1.54 0 0 0 -1.5,-1.5 C 39.8343,26.5958 32.1041,25.5047 26.5261,27.1932 22.9708,28.269 23.63,32.435 23.862,35.5276 l 2.7953,-0.757 C 25.058,31.6925 21.2,30.452 19.4861,27.47 c -0.69,-1.2 -1.639,0.6695 0.7552,-0.9738 2.42,-1.6612 3.7358,-4.403 6.2008,-6.1293 l -2.2035,-1.694 c -0.804,2.1514 -2.16,7.097 0.3023,8.5268 1.6682,0.9689 6.4628,0.4177 8.2925,0.46 3.8064,0.0875 7.6088,0.023 11.4127,-0.1283 1.924,-0.0765 1.9339,-3.0769 0,-3 z"
       id="path1" />
    <path
       fill="#3f3f3f"
       d="m 24.0644,28.5407 0.7282,0.3676 0.1512,1.1559 c 0.1812,-0.8626 1.3087,-1.237 1.5389,-2.1181 a 1.9764,1.9764 0 0 0 -0.8078,-1.99 c -1.0931,-0.8711 -1.9289,-2.65 -3.608,-1.8866 -1.133,0.5154 -3.3277,2.3529 -3.3277,3.7312 0,1.842 2.3059,2.0688 3.6575,2.1107 L 20.95,28.0127 a 6.3441,6.3441 0 0 0 -0.3232,1.2245 l 2.9464,0.3988 a 9.8244,9.8244 0 0 1 0.848,-4.4353 3.3991,3.3991 0 0 0 0.2914,-3.0007 1.499,1.499 0 0 0 -1.2952,-0.7429 l -0.158,-0.0086 a 1.4529,1.4529 0 0 0 -1.2953,0.7429 l -0.0526,0.1232 c -0.7508,1.7556 1.8327,3.2858 2.59,1.5141 l 0.0527,-0.1232 -1.2952,0.743 0.158,0.0086 -1.2952,-0.7429 q -0.2557,-0.8039 -0.3927,0.1943 -0.2652,0.4422 -0.4869,0.9078 a 5.842,5.842 0 0 0 -0.393,1.3609 21.2349,21.2349 0 0 0 -0.2761,3.4587 c -0.016,1.64 2.6662,2.1065 2.9465,0.3987 a 6.3438,6.3438 0 0 1 0.3231,-1.2245 1.513,1.513 0 0 0 -1.4464,-1.8988 c -0.2757,-0.0085 -1.065,-0.2666 -0.8623,0.1322 v 1.5142 A 5.8124,5.8124 0 0 1 23.581,26.66 l -1.1558,0.1512 q -0.5289,-0.3615 -0.0376,0.2 a 5.6955,5.6955 0 0 0 0.5067,0.6093 8.4,8.4 0 0 0 1.2665,0.9263 l -0.6894,-0.8964 0.1184,0.296 0.1512,-1.1564 c -0.7129,0.9754 -1.906,1.675 -1.7169,3.0746 a 1.9186,1.9186 0 0 0 2.04,1.6759 c 1.9014,-0.1965 1.9216,-3.1986 0,-3 z"
       id="path2" />
  </g>
  <g
     id="line"
     transform="translate(-13.5,-15.000126)">
    <g
       id="g6">
      <g
         id="g3">
        <polyline
           fill="none"
           stroke="#000000"
           stroke-linecap="round"
           stroke-linejoin="round"
           stroke-width="2"
           points="14.5 27.5 27.156 39 27.156 30.567 43.5 30.567"
           id="polyline2" />
        <polyline
           fill="none"
           stroke="#000000"
           stroke-linecap="round"
           stroke-linejoin="round"
           stroke-width="2"
           points="27.156 24.433 27.156 16 14.5 27.5"
           id="polyline3" />
      </g>
      <g
         id="g5">
        <polyline
           fill="none"
           stroke="#000000"
           stroke-linecap="round"
           stroke-linejoin="round"
           stroke-width="2"
           points="43.5 30.567 43.5 39 56.156 27.5"
           id="polyline4" />
        <polyline
           fill="none"
           stroke="#000000"
           stroke-linecap="round"
           stroke-linejoin="round"
           stroke-width="2"
           points="56.156 27.5 43.5 16 43.5 24.433 27.156 24.433"
           id="polyline5" />
      </g>
    </g>
    <polyline
       fill="none"
       stroke="#000000"
       stroke-linecap="round"
       stroke-linejoin="round"
       stroke-width="2"
       points="33.392 54.383 33.392 44.383 40.534 54.383 40.534 44.383"
       id="polyline6" />
    <path
       fill="none"
       stroke="#000000"
       stroke-linecap="round"
       stroke-linejoin="round"
       stroke-width="2"
       d="m 26.9631,54.3449 v 0 a 3.5715,3.5715 0 0 1 -3.5715,-3.5714 v -2.8572 a 3.5715,3.5715 0 0 1 3.5715,-3.5714 v 0 a 3.5714,3.5714 0 0 1 3.5714,3.5714 v 2.8572 a 3.5714,3.5714 0 0 1 -3.5714,3.5714 z"
       id="path6" />
    <g
       id="g7">
      <line
         x1="46.328701"
         x2="46.328701"
         y1="44"
         y2="49.9291"
         fill="none"
         stroke="#000000"
         stroke-linecap="round"
         stroke-linejoin="round"
         stroke-width="2"
         id="line6" />
      <circle
         cx="46.328701"
         cy="53.598701"
         r="1.3712"
         id="circle6" />
    </g>
  </g>
</svg>
