<?xml version="1.0" encoding="UTF-8" standalone="no"?>
<svg
   id="emoji"
   viewBox="0 0 53.72794 52.284454"
   version="1.1"
   sodipodi:docname="1f510.svg"
   width="53.72794"
   height="52.284454"
   xmlns:inkscape="http://www.inkscape.org/namespaces/inkscape"
   xmlns:sodipodi="http://sodipodi.sourceforge.net/DTD/sodipodi-0.dtd"
   xmlns="http://www.w3.org/2000/svg"
   xmlns:svg="http://www.w3.org/2000/svg">
  <defs
     id="defs5" />
  <sodipodi:namedview
     id="namedview5"
     pagecolor="#ffffff"
     bordercolor="#000000"
     borderopacity="0.25"
     inkscape:showpageshadow="2"
     inkscape:pageopacity="0.0"
     inkscape:pagecheckerboard="0"
     inkscape:deskcolor="#d1d1d1" />
  <g
     id="color"
     transform="translate(-9.2827,-9.747706)">
    <path
       fill="#d0cfce"
       stroke="#d0cfce"
       stroke-linecap="round"
       stroke-linejoin="round"
       stroke-miterlimit="10"
       stroke-width="2"
       d="m 14.1961,35.6519 c -0.2003,-7.666 5.5788,-16.3843 12.4516,-16.6004 6.9307,-0.218 14.4147,10.2522 12.4099,17.1736 H 35.875 c 0,0 0.7894,-7.1326 -2.2339,-10.144 -0.5425,-1.5365 -4.5505,-4.3006 -7.4804,-3.869 -1.9766,0.2912 -6.3916,2.8073 -7.3105,4.5813 -1.0274,1.9835 -1.1693,8.8584 -1.1693,8.8584 h -3.4848 z"
       id="path1" />
    <polygon
       fill="#fcea2b"
       stroke="none"
       points="43.3283,59.7325 10.2827,59.7325 10.2827,36.3614 11.9132,36.3614 41.6978,36.3614 43.3283,36.3614 "
       id="polygon1" />
    <polygon
       fill="#f1b31c"
       stroke="none"
       points="43.4088,59.5782 42.9415,36.532 26.6186,59.5782 "
       id="polygon2" />
    <path
       fill="#f4aa41"
       stroke="none"
       d="m 55.9395,32.5829 c 3.5838,-1.818 6.0691,-5.786 6.0691,-10.3885 0,-6.3218 -4.689,-11.4467 -10.4731,-11.4467 -5.7841,0 -10.4731,5.1249 -10.4731,11.4467 0,5.1112 3.1002,10.0458 7.3573,10.6187"
       id="path2" />
    <polyline
       fill="#f4aa41"
       stroke="#f4aa41"
       stroke-linecap="round"
       stroke-linejoin="round"
       stroke-miterlimit="10"
       stroke-width="2"
       points="56.0267,32.3492 56.016,35.4262 56.1715,56.1509 51.6701,60.6524 48.0098,55.9921 50.8927,53.1091 47.7357,49.9522 50.3774,46.3105 47.2368,43.17 47.2506,40.1939 49.9604,37.4841 48.7191,36.2429 48.7191,32.3492"
       id="polyline2" />
    <polygon
       fill="#e27022"
       stroke="none"
       points="54.5252,36.0609 53.3114,36.0743 53.5436,57.0903 54.7443,55.8883 "
       id="polygon3" />
    <circle
       cx="51.5355"
       cy="18.1091"
       transform="matrix(0.7071,-0.7071,0.7071,0.7071,2.2893,41.7451)"
       fill="#e27022"
       stroke="none"
       id="ellipse3"
       r="3.5206001" />
  </g>
  <g
     id="hair"
     transform="translate(-9.2827,-9.747706)" />
  <g
     id="skin"
     transform="translate(-9.2827,-9.747706)" />
  <g
     id="skin-shadow"
     transform="translate(-9.2827,-9.747706)" />
  <g
     id="line"
     transform="translate(-9.2827,-9.747706)">
    <path
       fill="none"
       stroke="#000000"
       stroke-linecap="round"
       stroke-linejoin="round"
       stroke-miterlimit="10"
       stroke-width="2"
       d="M 39.4673,33.4202 C 40.0484,25.3864 33.5783,18.8334 26.6477,19.0514 19.7749,19.2676 14.1961,26.134 14.1961,33.4202"
       id="path3" />
    <polygon
       fill="none"
       stroke="#000000"
       stroke-linecap="round"
       stroke-linejoin="round"
       stroke-miterlimit="10"
       stroke-width="2"
       points="43.3283,59.6918 10.2827,59.6918 10.2827,36.3207 11.9132,36.3207 41.6978,36.3207 43.3283,36.3207 "
       id="polygon4" />
    <path
       fill="none"
       stroke="#000000"
       stroke-linecap="round"
       stroke-linejoin="round"
       stroke-miterlimit="10"
       stroke-width="2"
       d="m 17.8248,33.4202 c 0,-5.5092 3.979,-10.701 8.8809,-10.8645 4.9432,-0.1648 9.5578,4.79 9.1434,10.8645"
       id="path4" />
    <polyline
       fill="none"
       stroke="#000000"
       stroke-linecap="round"
       stroke-linejoin="round"
       stroke-miterlimit="10"
       stroke-width="2"
       points="56.0253,36.0256 56.2815,56.4716 51.7209,61.0322 46.9553,56.2666 49.8761,53.3458 46.6478,50.1175 50.3373,46.428 47.1258,43.2165 47.1258,40.1873 49.8712,37.4419 48.6019,36.1726"
       id="polyline4" />
    <circle
       cx="51.5355"
       cy="18.1091"
       transform="matrix(0.7071,-0.7071,0.7071,0.7071,2.2893,41.7451)"
       fill="none"
       stroke="#000000"
       stroke-linecap="round"
       stroke-linejoin="round"
       stroke-miterlimit="10"
       stroke-width="2"
       id="ellipse4"
       r="3.5206001" />
    <path
       fill="none"
       stroke="#000000"
       stroke-linecap="round"
       stroke-linejoin="round"
       stroke-miterlimit="10"
       stroke-width="2"
       d="m 56.0171,31.6362 c 3.5704,-1.7692 6.0267,-5.5901 5.9932,-10 C 61.9642,15.5789 57.238,10.7041 51.454,10.748 45.67,10.792 41.0185,15.7381 41.0646,21.7955 c 0.0372,4.8974 3.1337,9.0217 7.3751,10.3985"
       id="path5" />
  </g>
</svg>
