<svg xmlns="http://www.w3.org/2000/svg" xmlns:svg="http://www.w3.org/2000/svg" id="emoji" width="28.446" height="43.5" version="1.1" viewBox="0 0 28.446 43.5"><g id="color" transform="translate(-22.000124,-13)"><polyline id="polyline1" fill="#3f3f3f" points="35.991 14 23 28.516 32.527 28.516 32.69 40 39.483 40 39.456 28.516 48.982 28.516 35.991 14"/></g><g id="line" transform="translate(-22.000124,-13)"><polyline id="polyline2" fill="none" stroke="#000" stroke-linecap="round" stroke-linejoin="round" stroke-width="2" points="35.991 14 23 28.516 32.527 28.516 32.69 40 39.483 40 39.456 28.516 48.982 28.516 35.991 14"/><path id="path2" fill="none" stroke="#000" stroke-linecap="round" stroke-linejoin="round" stroke-width="2" d="m 36.33,55.47 v 0 A 3.5714,3.5714 0 0 1 32.7586,51.8986 V 49.0413 A 3.5714,3.5714 0 0 1 36.33,45.47 v 0 a 3.5714,3.5714 0 0 1 3.5714,3.5714 v 2.8572 A 3.5714,3.5714 0 0 1 36.33,55.47 Z"/><g id="g3"><line id="line2" x1="24.143" x2="29.857" y1="45.5" y2="45.5" fill="none" stroke="#000" stroke-linecap="round" stroke-linejoin="round" stroke-width="2"/><line id="line3" x1="27" x2="27" y1="45.5" y2="55.5" fill="none" stroke="#000" stroke-linecap="round" stroke-linejoin="round" stroke-width="2"/></g><path id="path3" fill="none" stroke="#000" stroke-linecap="round" stroke-linejoin="round" stroke-width="2" d="m 43.1422,55.47 v -10 h 3.8132 a 2.49,2.49 0 0 1 2.4905,2.4907 v 0 a 2.49,2.49 0 0 1 -2.4905,2.4906 h -3.8132"/></g></svg>