<?xml version="1.0" encoding="UTF-8" standalone="no"?>
<svg
   id="emoji"
   viewBox="0 0 40 48.739555"
   version="1.1"
   sodipodi:docname="1f512.svg"
   width="40"
   height="48.739555"
   xmlns:inkscape="http://www.inkscape.org/namespaces/inkscape"
   xmlns:sodipodi="http://sodipodi.sourceforge.net/DTD/sodipodi-0.dtd"
   xmlns="http://www.w3.org/2000/svg"
   xmlns:svg="http://www.w3.org/2000/svg">
  <defs
     id="defs4" />
  <sodipodi:namedview
     id="namedview4"
     pagecolor="#ffffff"
     bordercolor="#000000"
     borderopacity="0.25"
     inkscape:showpageshadow="2"
     inkscape:pageopacity="0.0"
     inkscape:pagecheckerboard="0"
     inkscape:deskcolor="#d1d1d1" />
  <g
     id="color"
     transform="translate(-15.875,-11.385445)">
    <path
       fill="#d0cfce"
       stroke="#d0cfce"
       stroke-linecap="round"
       stroke-linejoin="round"
       stroke-miterlimit="10"
       stroke-width="2"
       d="m 21.3751,31.1747 c -0.3501,-8.7708 6.4491,-18.5395 14.387,-18.7794 8.0047,-0.2419 16.5412,10.9698 14.333,19.052 h -4.0394 c 0,0 1.5619,-7.922 -2.2164,-11.2535 -1.8494,-1.6307 -5.2556,-4.771 -8.6396,-4.2922 -2.2829,0.323 -6.8677,3.4518 -7.9271,5.4209 -2.0643,3.8367 -1.7248,9.8169 -1.7248,9.8169 z"
       id="path1" />
    <polygon
       fill="#fcea2b"
       stroke="none"
       points="54.875,59.1719 16.875,59.1719 16.875,32.2969 18.75,32.2969 53,32.2969 54.875,32.2969 "
       id="polygon1" />
    <polygon
       fill="#f1b31c"
       stroke="none"
       points="54.9675,58.9944 54.4302,32.493 35.66,58.9944 "
       id="polygon2" />
  </g>
  <g
     id="hair"
     transform="translate(-15.875,-11.385445)" />
  <g
     id="skin"
     transform="translate(-15.875,-11.385445)" />
  <g
     id="skin-shadow"
     transform="translate(-15.875,-11.385445)" />
  <g
     id="line"
     transform="translate(-15.875,-11.385445)">
    <polygon
       fill="none"
       stroke="#000000"
       stroke-linecap="round"
       stroke-linejoin="round"
       stroke-miterlimit="10"
       stroke-width="2"
       points="54.875,59.125 16.875,59.125 16.875,32.25 18.75,32.25 53,32.25 54.875,32.25 "
       id="polygon3" />
    <path
       fill="none"
       stroke="#000000"
       stroke-linecap="round"
       stroke-linejoin="round"
       stroke-miterlimit="10"
       stroke-width="2"
       d="m 21.3751,28.9146 c 0,-8.3786 6.4151,-16.2744 14.3184,-16.523 7.9697,-0.2507 15.4098,7.2847 14.7416,16.523"
       id="path3" />
    <path
       fill="none"
       stroke="#000000"
       stroke-linecap="round"
       stroke-linejoin="round"
       stroke-miterlimit="10"
       stroke-width="2"
       d="m 25.5478,28.9146 c 0,-6.3352 4.5755,-12.3054 10.2123,-12.4934 5.6843,-0.1896 10.9908,5.5081 10.5142,12.4934"
       id="path4" />
  </g>
</svg>
