<svg xmlns="http://www.w3.org/2000/svg" xmlns:svg="http://www.w3.org/2000/svg" id="emoji" width="53.728" height="52.284" version="1.1" viewBox="0 0 53.728 52.284"><g id="color" transform="translate(-9.2827,-9.747706)"><path id="path1" fill="#d0cfce" stroke="#d0cfce" stroke-linecap="round" stroke-linejoin="round" stroke-miterlimit="10" stroke-width="2" d="m 14.1961,35.6519 c -0.2003,-7.666 5.5788,-16.3843 12.4516,-16.6004 6.9307,-0.218 14.4147,10.2522 12.4099,17.1736 H 35.875 c 0,0 0.7894,-7.1326 -2.2339,-10.144 -0.5425,-1.5365 -4.5505,-4.3006 -7.4804,-3.869 -1.9766,0.2912 -6.3916,2.8073 -7.3105,4.5813 -1.0274,1.9835 -1.1693,8.8584 -1.1693,8.8584 h -3.4848 z"/><polygon id="polygon1" fill="#fcea2b" stroke="none" points="43.328 59.733 10.283 59.733 10.283 36.361 11.913 36.361 41.698 36.361 43.328 36.361"/><polygon id="polygon2" fill="#f1b31c" stroke="none" points="43.409 59.578 42.941 36.532 26.619 59.578"/><path id="path2" fill="#f4aa41" stroke="none" d="m 55.9395,32.5829 c 3.5838,-1.818 6.0691,-5.786 6.0691,-10.3885 0,-6.3218 -4.689,-11.4467 -10.4731,-11.4467 -5.7841,0 -10.4731,5.1249 -10.4731,11.4467 0,5.1112 3.1002,10.0458 7.3573,10.6187"/><polyline id="polyline2" fill="#f4aa41" stroke="#f4aa41" stroke-linecap="round" stroke-linejoin="round" stroke-miterlimit="10" stroke-width="2" points="56.027 32.349 56.016 35.426 56.172 56.151 51.67 60.652 48.01 55.992 50.893 53.109 47.736 49.952 50.377 46.31 47.237 43.17 47.251 40.194 49.96 37.484 48.719 36.243 48.719 32.349"/><polygon id="polygon3" fill="#e27022" stroke="none" points="54.525 36.061 53.311 36.074 53.544 57.09 54.744 55.888"/><circle id="ellipse3" cx="51.535" cy="18.109" r="3.521" fill="#e27022" stroke="none" transform="matrix(0.7071,-0.7071,0.7071,0.7071,2.2893,41.7451)"/></g><g id="line" transform="translate(-9.2827,-9.747706)"><path id="path3" fill="none" stroke="#000" stroke-linecap="round" stroke-linejoin="round" stroke-miterlimit="10" stroke-width="2" d="M 39.4673,33.4202 C 40.0484,25.3864 33.5783,18.8334 26.6477,19.0514 19.7749,19.2676 14.1961,26.134 14.1961,33.4202"/><polygon id="polygon4" fill="none" stroke="#000" stroke-linecap="round" stroke-linejoin="round" stroke-miterlimit="10" stroke-width="2" points="43.328 59.692 10.283 59.692 10.283 36.321 11.913 36.321 41.698 36.321 43.328 36.321"/><path id="path4" fill="none" stroke="#000" stroke-linecap="round" stroke-linejoin="round" stroke-miterlimit="10" stroke-width="2" d="m 17.8248,33.4202 c 0,-5.5092 3.979,-10.701 8.8809,-10.8645 4.9432,-0.1648 9.5578,4.79 9.1434,10.8645"/><polyline id="polyline4" fill="none" stroke="#000" stroke-linecap="round" stroke-linejoin="round" stroke-miterlimit="10" stroke-width="2" points="56.025 36.026 56.282 56.472 51.721 61.032 46.955 56.267 49.876 53.346 46.648 50.117 50.337 46.428 47.126 43.217 47.126 40.187 49.871 37.442 48.602 36.173"/><circle id="ellipse4" cx="51.535" cy="18.109" r="3.521" fill="none" stroke="#000" stroke-linecap="round" stroke-linejoin="round" stroke-miterlimit="10" stroke-width="2" transform="matrix(0.7071,-0.7071,0.7071,0.7071,2.2893,41.7451)"/><path id="path5" fill="none" stroke="#000" stroke-linecap="round" stroke-linejoin="round" stroke-miterlimit="10" stroke-width="2" d="m 56.0171,31.6362 c 3.5704,-1.7692 6.0267,-5.5901 5.9932,-10 C 61.9642,15.5789 57.238,10.7041 51.454,10.748 45.67,10.792 41.0185,15.7381 41.0646,21.7955 c 0.0372,4.8974 3.1337,9.0217 7.3751,10.3985"/></g></svg>