<svg xmlns="http://www.w3.org/2000/svg" xmlns:svg="http://www.w3.org/2000/svg" id="emoji" width="22" height="55" version="1.1" viewBox="0 0 22 55"><g id="color" transform="translate(-25,-8.1661)"><path id="path1" fill="#d0cfce" d="m 36.1971,9.536 c -3.149,0 -4.7734,0.6705 -6.7786,2.7026 -1.8633,1.8883 -3.1685,3.6641 -3.1685,6.468 L 26,36.6255 c 0,2.6406 0.3256,4.6911 2,6.5405 2.0169,2.2277 4.6806,4 8,4 6.0751,0 10,-4.7192 10,-10.5405 L 45.75,18.7066 c 0,-2.8667 -1.191,-4.3463 -3.1287,-6.2464 C 40.624,10.5016 39.2806,9.5361 36.1971,9.5361 Z M 40,35.5365 c 0,2.5569 -1.7909,4.6296 -4,4.6296 -1.1563,0 -2.0027,-0.3975 -3,-1 -1.2121,-0.7323 -1.1074,-2.3926 -1,-3.6296 V 19.7957 c 0,-1.1549 -0.6042,-2.8187 0,-3.6296 0.7335,-0.9845 2.7886,-1 4,-1 1.3009,0 3.2695,-0.1131 4,1 0.51,0.7772 0,2.5784 0,3.6296 z"/><path id="path2" fill="#9b9b9a" d="M 32.0061,35.5372 C 32.122,33.1006 33.8658,31.1661 36,31.1661 c 1.2944,0 3.2689,0.8963 4,2 0.5166,0.7799 0,1.5709 0,2.6296 v 15.7407 c 0,1.173 0.6212,2.8138 0,3.6296 -0.733,0.9626 -2.8043,1 -4,1 -1.3246,0 -3.272,-0.852 -4,-2 -0.4861,-0.7666 0,-1.6059 0,-2.6296 v -5.8082 c -3,-0.4378 -6,-9.7281 -6,-9.7281 v 15.8956 c 0,5.6721 3.9249,9.5203 10,9.5203 6.0751,0 10,-3.8482 10,-9.5203 V 34.4364 c 0,-5.6722 -3.9249,-10.2703 -10,-10.2703 -1.6162,0 -3.151,0.3254 -4.5333,0.9099 z"/></g><g id="line" transform="translate(-25,-8.1661)"><path id="path3" fill="none" stroke="#000" stroke-linecap="round" stroke-linejoin="round" stroke-width="2" d="m 37.2318,41.0132 c -0.394,0.0998 -0.8067,0.1529 -1.2318,0.1529 -2.7614,0 -5,-2.2386 -5,-5 v -17 c 0,-2.7614 2.2386,-5 5,-5 2.7614,0 5,2.2386 5,5 v 3"/><path id="path4" fill="none" stroke="#000" stroke-linecap="round" stroke-linejoin="round" stroke-width="2" d="m 37.3602,46.0744 c -0.4448,0.0605 -0.8988,0.0917 -1.3602,0.0917 -5.5228,0 -10,-4.4771 -10,-10 v -17 c 0,-5.5228 4.4772,-10 10,-10 5.5228,0 10,4.4772 10,10 v 7"/><path id="path5" fill="none" stroke="#000" stroke-linecap="round" stroke-linejoin="round" stroke-width="2" d="M 34.7604,30.3209 C 35.1568,30.2198 35.5721,30.166 36,30.166 c 2.7614,0 5,2.2386 5,5 v 17 c 0,2.7614 -2.2386,5 -5,5 -2.7614,0 -5,-2.2386 -5,-5 v -3"/><path id="path6" fill="none" stroke="#000" stroke-linecap="round" stroke-linejoin="round" stroke-width="2" d="m 34.7494,25.2435 c 0.4097,-0.0511 0.8271,-0.0774 1.2506,-0.0774 5.5228,0 10,4.4772 10,10 v 17 c 0,5.5229 -4.4772,10 -10,10 -5.5228,0 -10,-4.4771 -10,-10 v -6"/></g></svg>