<svg xmlns="http://www.w3.org/2000/svg" xmlns:svg="http://www.w3.org/2000/svg" id="emoji" width="45.389" height="45.089" version="1.1" viewBox="0 0 45.389 45.089"><g id="color" transform="translate(-13.3026,-13.832065)"><path id="path1" fill="#f4aa41" stroke="none" d="m 33.5357,31.9911 c -1.4016,-4.2877 -0.2247,-9.41 3.4285,-13.0632 5.018,-5.018 12.8077,-5.3639 17.3989,-0.7727 4.5912,4.5912 4.2452,12.381 -0.7728,17.3989 -4.057,4.057 -10.4347,5.5131 -14.2685,2.5888"/><polyline id="polyline1" fill="#f4aa41" stroke="#f4aa41" stroke-linecap="round" stroke-linejoin="round" stroke-miterlimit="10" stroke-width="2" points="33.652 31.736 31.218 34.187 14.644 50.514 14.644 57.66 21.043 57.66 21.043 53.084 26.054 53.084 26.054 47.302 32.04 47.302 34.391 44.929 34.391 40.627 36.362 40.627 39.452 37.537"/><polygon id="polygon1" fill="#e27022" stroke="none" points="31.898 35.874 32.85 36.848 15.985 53.346 15.986 51.439"/><circle id="circle1" cx="48.52" cy="23.998" r="3.952" fill="#e27022" stroke="none"/></g><g id="line" transform="translate(-13.3026,-13.832065)"><polyline id="polyline2" fill="none" stroke="#000" stroke-linecap="round" stroke-linejoin="round" stroke-miterlimit="10" stroke-width="2" points="30.735 34.656 14.303 50.681 14.303 57.921 21.868 57.921 21.868 53.285 26.993 53.285 26.993 47.427 32.091 47.427 34.496 45.023 34.496 40.665 36.511 40.665"/><circle id="circle2" cx="48.52" cy="23.998" r="3.952" fill="none" stroke="#000" stroke-linecap="round" stroke-linejoin="round" stroke-miterlimit="10" stroke-width="2"/><path id="path2" fill="none" stroke="#000" stroke-linecap="round" stroke-linejoin="round" stroke-miterlimit="10" stroke-width="2" d="M 34.2256,31.1781 C 32.7958,26.9398 33.879,21.9572 37.406,18.4834 42.2506,13.7119 49.8714,13.594 54.4276,18.22 c 4.5562,4.626 4.3223,12.2441 -0.5223,17.0156 -3.9169,3.8577 -9.6484,4.6736 -14.1079,2.3998"/></g></svg>