<?xml version="1.0" encoding="UTF-8" standalone="no"?>
<svg
   id="emoji"
   viewBox="0 0 42.49995 39.47139"
   version="1.1"
   sodipodi:docname="1f51c.svg"
   width="42.49995"
   height="39.47139"
   xmlns:inkscape="http://www.inkscape.org/namespaces/inkscape"
   xmlns:sodipodi="http://sodipodi.sourceforge.net/DTD/sodipodi-0.dtd"
   xmlns="http://www.w3.org/2000/svg"
   xmlns:svg="http://www.w3.org/2000/svg">
  <defs
     id="defs5" />
  <sodipodi:namedview
     id="namedview5"
     pagecolor="#ffffff"
     bordercolor="#000000"
     borderopacity="0.25"
     inkscape:showpageshadow="2"
     inkscape:pageopacity="0.0"
     inkscape:pagecheckerboard="0"
     inkscape:deskcolor="#d1d1d1" />
  <g
     id="color"
     transform="translate(-14.75,-16.263126)">
    <path
       fill="#3f3f3f"
       d="m 15.74,31.83 v -6.134 h 27.84 v -8.433 l 12.66,11.5 -12.66,11.5 V 31.83 H 15.74"
       id="path1" />
  </g>
  <g
     id="line"
     transform="translate(-14.75,-16.263126)">
    <path
       fill="none"
       stroke="#000000"
       stroke-linecap="round"
       stroke-linejoin="round"
       stroke-width="2"
       d="m 15.75,31.83 h 27.84 v 8.433 l 12.66,-11.5 -12.66,-11.5 v 8.433 H 15.75 Z"
       id="path2" />
    <path
       fill="none"
       stroke="#000000"
       stroke-linecap="round"
       stroke-linejoin="round"
       stroke-width="2"
       d="m 23.65,46.72 a 3.049,3.049 0 0 0 -3.073,-1.994 v 0 c -1.732,0 -3.137,1.118 -3.137,2.498 0,1.38 1.404,2.498 3.137,2.498 l -0.0638,0.0093 c 1.733,0 3.137,1.118 3.137,2.498 0,1.38 -1.404,2.498 -3.137,2.498 v 0 a 3.049,3.049 0 0 1 -3.073,-1.994"
       id="path3" />
    <polyline
       transform="translate(-0.75,1.263)"
       fill="none"
       stroke="#000000"
       stroke-linecap="round"
       stroke-linejoin="round"
       stroke-width="2"
       points="47.39 53.38 47.39 43.38 54.53 53.38 54.53 43.38"
       id="polyline3" />
    <path
       fill="none"
       stroke="#000000"
       stroke-linecap="round"
       stroke-linejoin="round"
       stroke-width="2"
       d="m 40.21,54.61 v 0 a 3.572,3.572 0 0 1 -3.572,-3.571 v -2.857 a 3.572,3.572 0 0 1 3.572,-3.571 v 0 a 3.571,3.571 0 0 1 3.571,3.571 v 2.857 A 3.571,3.571 0 0 1 40.21,54.61 Z"
       id="path4" />
    <path
       fill="none"
       stroke="#000000"
       stroke-linecap="round"
       stroke-linejoin="round"
       stroke-width="2"
       d="m 30.21,54.61 v 0 a 3.572,3.572 0 0 1 -3.572,-3.571 v -2.857 a 3.572,3.572 0 0 1 3.572,-3.571 v 0 a 3.571,3.571 0 0 1 3.571,3.571 v 2.857 A 3.571,3.571 0 0 1 30.21,54.61 Z"
       id="path5" />
  </g>
</svg>
