<?xml version="1.0" encoding="UTF-8" standalone="no"?>
<svg
   id="emoji"
   viewBox="0 0 45.389046 45.089336"
   version="1.1"
   sodipodi:docname="1f511.svg"
   width="45.389046"
   height="45.089336"
   xmlns:inkscape="http://www.inkscape.org/namespaces/inkscape"
   xmlns:sodipodi="http://sodipodi.sourceforge.net/DTD/sodipodi-0.dtd"
   xmlns="http://www.w3.org/2000/svg"
   xmlns:svg="http://www.w3.org/2000/svg">
  <defs
     id="defs2" />
  <sodipodi:namedview
     id="namedview2"
     pagecolor="#ffffff"
     bordercolor="#000000"
     borderopacity="0.25"
     inkscape:showpageshadow="2"
     inkscape:pageopacity="0.0"
     inkscape:pagecheckerboard="0"
     inkscape:deskcolor="#d1d1d1" />
  <g
     id="color"
     transform="translate(-13.3026,-13.832065)">
    <path
       fill="#f4aa41"
       stroke="none"
       d="m 33.5357,31.9911 c -1.4016,-4.2877 -0.2247,-9.41 3.4285,-13.0632 5.018,-5.018 12.8077,-5.3639 17.3989,-0.7727 4.5912,4.5912 4.2452,12.381 -0.7728,17.3989 -4.057,4.057 -10.4347,5.5131 -14.2685,2.5888"
       id="path1" />
    <polyline
       fill="#f4aa41"
       stroke="#f4aa41"
       stroke-linecap="round"
       stroke-linejoin="round"
       stroke-miterlimit="10"
       stroke-width="2"
       points="33.652,31.7364 31.2181,34.1872 14.6444,50.5142 14.6444,57.6603 21.0426,57.6603 21.0426,53.0835 26.0544,53.0835 26.0544,47.3024 32.04,47.3024 34.3913,44.9292 34.3913,40.6274 36.3618,40.6274 39.4524,37.5368"
       id="polyline1" />
    <polygon
       fill="#e27022"
       stroke="none"
       points="31.8977,35.8744 32.8505,36.8484 15.9847,53.3457 15.9857,51.4386 "
       id="polygon1" />
    <circle
       cx="48.5201"
       cy="23.998199"
       r="3.9521"
       fill="#e27022"
       stroke="none"
       id="circle1" />
  </g>
  <g
     id="hair"
     transform="translate(-13.3026,-13.832065)" />
  <g
     id="skin"
     transform="translate(-13.3026,-13.832065)" />
  <g
     id="skin-shadow"
     transform="translate(-13.3026,-13.832065)" />
  <g
     id="line"
     transform="translate(-13.3026,-13.832065)">
    <polyline
       fill="none"
       stroke="#000000"
       stroke-linecap="round"
       stroke-linejoin="round"
       stroke-miterlimit="10"
       stroke-width="2"
       points="30.735,34.6557 14.3026,50.6814 14.3026,57.9214 21.868,57.9214 21.868,53.2845 26.9929,53.2845 26.9929,47.4274 32.0913,47.4274 34.4957,45.023 34.4957,40.6647 36.5107,40.6647"
       id="polyline2" />
    <circle
       cx="48.5201"
       cy="23.998199"
       r="3.9521"
       fill="none"
       stroke="#000000"
       stroke-linecap="round"
       stroke-linejoin="round"
       stroke-miterlimit="10"
       stroke-width="2"
       id="circle2" />
    <path
       fill="none"
       stroke="#000000"
       stroke-linecap="round"
       stroke-linejoin="round"
       stroke-miterlimit="10"
       stroke-width="2"
       d="M 34.2256,31.1781 C 32.7958,26.9398 33.879,21.9572 37.406,18.4834 42.2506,13.7119 49.8714,13.594 54.4276,18.22 c 4.5562,4.626 4.3223,12.2441 -0.5223,17.0156 -3.9169,3.8577 -9.6484,4.6736 -14.1079,2.3998"
       id="path2" />
  </g>
</svg>
