<?xml version="1.0" encoding="UTF-8" standalone="no"?>
<svg
   id="emoji"
   viewBox="0 0 63.564499 12.177948"
   version="1.1"
   sodipodi:docname="1f52a.svg"
   width="63.564499"
   height="12.177948"
   xmlns:inkscape="http://www.inkscape.org/namespaces/inkscape"
   xmlns:sodipodi="http://sodipodi.sourceforge.net/DTD/sodipodi-0.dtd"
   xmlns="http://www.w3.org/2000/svg"
   xmlns:svg="http://www.w3.org/2000/svg">
  <defs
     id="defs5" />
  <sodipodi:namedview
     id="namedview5"
     pagecolor="#ffffff"
     bordercolor="#000000"
     borderopacity="0.25"
     inkscape:showpageshadow="2"
     inkscape:pageopacity="0.0"
     inkscape:pagecheckerboard="0"
     inkscape:deskcolor="#d1d1d1" />
  <g
     id="color"
     transform="translate(-3.0012875,-28.671352)">
    <path
       fill="#3f3f3f"
       stroke="#3f3f3f"
       stroke-miterlimit="10"
       stroke-width="2"
       d="m 24.2722,30.1081 c -3.5449,-0.2675 -13.7369,-0.8052 -18.6563,0 0,0 -1.3857,0.7557 0,4.6293 0,0 1.2566,0.5474 3,0.5474 1.491,0 12.8699,1.5386 15.6563,1.1077"
       id="path1" />
    <path
       fill="#3f3f3f"
       stroke="none"
       stroke-linecap="round"
       stroke-linejoin="round"
       stroke-miterlimit="10"
       stroke-width="2"
       d="m 20.4825,30.1081 c -3.5449,-0.2675 -10.9472,-0.8052 -15.8666,0 0,0 -1.3857,1.7557 0,5.6293 0,0 2.2566,-0.4526 4,-0.4526 1.491,0 9.4455,1.1901 12.2319,0.7592"
       id="path2" />
    <path
       fill="#d0cfce"
       stroke="none"
       stroke-linecap="round"
       stroke-linejoin="round"
       stroke-miterlimit="10"
       stroke-width="2"
       d="m 24.2722,39.8493 h 9.3437 c 32,0 31.9499,-9.7411 31.9499,-9.7411 H 33.6159 24.2722 v 9.7411"
       id="path3" />
  </g>
  <g
     id="hair"
     transform="translate(-3.0012875,-28.671352)" />
  <g
     id="skin"
     transform="translate(-3.0012875,-28.671352)" />
  <g
     id="skin-shadow"
     transform="translate(-3.0012875,-28.671352)" />
  <g
     id="line"
     transform="translate(-3.0012875,-28.671352)">
    <path
       fill="none"
       stroke="#000000"
       stroke-linecap="round"
       stroke-linejoin="round"
       stroke-miterlimit="10"
       stroke-width="2"
       d="m 20.4825,30.1081 c -3.5449,-0.2675 -10.9472,-0.8052 -15.8666,0 0,0 -1.3857,1.7557 0,5.6293 0,0 2.2566,-0.4526 4,-0.4526 1.491,0 9.4455,1.1901 12.2319,0.7592"
       id="path4" />
    <path
       fill="none"
       stroke="#000000"
       stroke-linecap="round"
       stroke-linejoin="round"
       stroke-miterlimit="10"
       stroke-width="2"
       d="m 24.2722,39.8493 h 9.3437 c 32,0 31.9499,-9.7411 31.9499,-9.7411 H 33.6159 24.2722 Z"
       id="path5" />
  </g>
</svg>
