<?xml version="1.0" encoding="UTF-8" standalone="no"?>
<svg
   id="emoji"
   viewBox="0 0 44.633865 51.697163"
   version="1.1"
   sodipodi:docname="1f52d.svg"
   width="44.633865"
   height="51.697163"
   xmlns:inkscape="http://www.inkscape.org/namespaces/inkscape"
   xmlns:sodipodi="http://sodipodi.sourceforge.net/DTD/sodipodi-0.dtd"
   xmlns="http://www.w3.org/2000/svg"
   xmlns:svg="http://www.w3.org/2000/svg">
  <defs
     id="defs6" />
  <sodipodi:namedview
     id="namedview6"
     pagecolor="#ffffff"
     bordercolor="#000000"
     borderopacity="0.25"
     inkscape:showpageshadow="2"
     inkscape:pageopacity="0.0"
     inkscape:pagecheckerboard="0"
     inkscape:deskcolor="#d1d1d1" />
  <g
     id="color"
     transform="translate(-8.7475004,-9.5598374)">
    <path
       fill="#3f3f3f"
       d="m 52.3814,18.772 -3.5781,-8.2122 -6.837,3.3699 c 0.2373,-0.1073 3.2886,7.6306 3.2886,7.6306 0.1093,0.2534 7.1265,-2.7883 7.1265,-2.7883 z"
       id="path1" />
    <path
       fill="#9b9b9a"
       d="m 29.095,27.698 3.8277,-1.665 C 32.8608,26.0502 45.328,21.4743 45.328,21.4743 l -3.1999,-7.6428 -15.205,7.5593 z"
       id="path2" />
    <path
       fill="#9b9b9a"
       d="m 14.6585,27.9833 1.7596,3.9323 13.2103,-4.4182 -2.4411,-6.2384 -4.0234,2.1377 c 0.2375,-0.0993 -8.5054,4.5866 -8.5054,4.5866 z"
       id="path3" />
  </g>
  <g
     id="line"
     transform="translate(-8.7475004,-9.5598374)">
    <polyline
       fill="none"
       stroke="#000000"
       stroke-linecap="round"
       stroke-linejoin="round"
       stroke-width="2"
       points="16.0186 56.6623 29.1491 36.039 31.624 36.039 43.8948 56.6564"
       id="polyline3" />
    <line
       x1="30.4618"
       x2="30.4618"
       y1="36.741001"
       y2="60.257"
       fill="none"
       stroke="#000000"
       stroke-linecap="round"
       stroke-linejoin="round"
       stroke-width="2"
       id="line3" />
    <line
       x1="9.7475004"
       x2="11.8352"
       y1="32.574799"
       y2="31.7117"
       fill="none"
       stroke="#000000"
       stroke-linecap="round"
       stroke-linejoin="round"
       stroke-width="2"
       id="line4" />
    <polyline
       fill="none"
       stroke="#000000"
       stroke-linecap="round"
       stroke-linejoin="round"
       stroke-width="2"
       points="45.6328 12.1786 48.8033 10.5598 52.3814 18.772 49.2019 19.9125"
       id="polyline4" />
    <line
       x1="26.821899"
       x2="30.3531"
       y1="19.924"
       y2="31.360701"
       fill="none"
       stroke="#000000"
       stroke-linecap="round"
       stroke-linejoin="round"
       stroke-width="2"
       id="line5" />
    <circle
       cx="30.3531"
       cy="31.360701"
       r="2"
       id="circle5" />
    <polyline
       fill="none"
       stroke="#000000"
       stroke-linecap="round"
       stroke-linejoin="round"
       stroke-width="2"
       points="25.028 28.5329 16.1973 31.7319 14.6585 28.1744 23.5457 23.5568"
       id="polyline5" />
    <polyline
       fill="none"
       stroke="#000000"
       stroke-linecap="round"
       stroke-linejoin="round"
       stroke-width="2"
       points="30.9216 19.7807 42.1281 14.0815 45.2549 21.3103 32.6562 25.8289"
       id="polyline6" />
  </g>
</svg>
