<?xml version="1.0" encoding="UTF-8" standalone="no"?>
<svg
   id="emoji"
   viewBox="0 0 50 50"
   version="1.1"
   sodipodi:docname="1f524.svg"
   width="50"
   height="50"
   xmlns:inkscape="http://www.inkscape.org/namespaces/inkscape"
   xmlns:sodipodi="http://sodipodi.sourceforge.net/DTD/sodipodi-0.dtd"
   xmlns="http://www.w3.org/2000/svg"
   xmlns:svg="http://www.w3.org/2000/svg">
  <defs
     id="defs6" />
  <sodipodi:namedview
     id="namedview6"
     pagecolor="#ffffff"
     bordercolor="#000000"
     borderopacity="0.25"
     inkscape:showpageshadow="2"
     inkscape:pageopacity="0.0"
     inkscape:pagecheckerboard="0"
     inkscape:deskcolor="#d1d1d1" />
  <g
     id="color"
     transform="translate(-11,-11)">
    <path
       fill="#d0cfce"
       stroke="none"
       stroke-linejoin="round"
       stroke-miterlimit="10"
       stroke-width="2"
       d="M 59.0349,60 H 12.9651 C 12.4343,60 12,59.5657 12,59.0349 V 12.9651 C 12,12.4343 12.4343,12 12.9651,12 H 59.0349 C 59.5657,12 60,12.4343 60,12.9651 V 59.0349 C 60,59.5657 59.5657,60 59.0349,60 Z"
       id="path1" />
  </g>
  <g
     id="hair"
     transform="translate(-11,-11)" />
  <g
     id="skin"
     transform="translate(-11,-11)" />
  <g
     id="skin-shadow"
     transform="translate(-11,-11)" />
  <g
     id="line"
     transform="translate(-11,-11)">
    <path
       fill="none"
       stroke="#000000"
       stroke-linejoin="round"
       stroke-miterlimit="10"
       stroke-width="2"
       d="M 59.0349,60 H 12.9651 C 12.4343,60 12,59.5657 12,59.0349 V 12.9651 C 12,12.4343 12.4343,12 12.9651,12 H 59.0349 C 59.5657,12 60,12.4343 60,12.9651 V 59.0349 C 60,59.5657 59.5657,60 59.0349,60 Z"
       id="path2" />
    <path
       fill="none"
       stroke="#000000"
       stroke-linecap="round"
       stroke-linejoin="round"
       stroke-miterlimit="10"
       stroke-width="2"
       d="M 47.5663,40.8709 C 47.125,41.2623 46.5443,41.5 45.908,41.5 v 0 c -1.3807,0 -2.5,-1.1193 -2.5,-2.5 v -2 2 -2 c 0,-1.3807 1.1193,-2.5 2.5,-2.5 v 0 c 0.6363,0 1.217,0.2377 1.6583,0.6292"
       id="path3" />
    <path
       fill="none"
       stroke="#000000"
       stroke-linecap="round"
       stroke-linejoin="round"
       stroke-miterlimit="10"
       stroke-width="2"
       d="m 36.3633,41.75 v 0 c 1.3807,0 2.5,-1.1193 2.5,-2.5 v -2 c 0,-1.3807 -1.1193,-2.5 -2.5,-2.5 v 0 c -1.3807,0 -2.5,1.1193 -2.5,2.5 v 2 c 0,1.3807 1.1193,2.5 2.5,2.5 z"
       id="path4" />
    <line
       x1="33.8633"
       x2="33.8633"
       y1="38.780102"
       y2="29.7801"
       fill="none"
       stroke="#000000"
       stroke-linecap="round"
       stroke-linejoin="round"
       stroke-miterlimit="10"
       stroke-width="2"
       id="line4" />
    <path
       fill="none"
       stroke="#000000"
       stroke-linecap="round"
       stroke-linejoin="round"
       stroke-miterlimit="10"
       stroke-width="2"
       d="m 23.4337,39.9583 v 0 c 0,0.9895 0.8523,1.7917 1.9036,1.7917 h 1.5229 c 1.0513,0 1.9036,-0.8022 1.9036,-1.7917 v 0 c 0,-0.9895 -0.8523,-1.7917 -1.9036,-1.7917 h -1.5229 c -1.0513,10e-5 -1.9036,0.8022 -1.9036,1.7917 z"
       id="path5" />
    <path
       fill="none"
       stroke="#000000"
       stroke-linecap="round"
       stroke-linejoin="round"
       stroke-miterlimit="10"
       stroke-width="2"
       d="m 23.8369,35.5208 c 0.4185,-0.5629 1.1625,-0.9374 2.0105,-0.9374 h 0.8291 c 1.3083,0 2.3689,0.8913 2.3689,1.9907 v 0 5.1759"
       id="path6" />
  </g>
</svg>
