<svg xmlns="http://www.w3.org/2000/svg" xmlns:svg="http://www.w3.org/2000/svg" id="emoji" width="40.748" height="64.308" version="1.1" viewBox="0 0 40.748 64.308"><g id="color" transform="translate(-15.703085,-3.7238186)"><path id="path1" fill="#fcea2b" stroke="none" d="m 51.3344,58.3018 c 7.563,-9.7894 4.0318,-21.8721 2.4461,-25.5688 -0.1799,-0.4193 -0.9302,-0.5566 -0.982,-0.1006 -0.1225,1.0797 -0.4061,2.3611 -2.0041,1.9736 C 49.9741,34.4071 49.4465,34.05 49.4465,32.7258 49.9575,17.6764 38.9356,7.429 35.1002,4.1902 34.5899,3.7593 33.8334,4.2195 33.9415,4.8941 c 2.456,15.3348 -1.6079,14.2846 -3.0986,13.8192 -0.2593,-0.081 -0.5408,0.0546 -0.6603,0.3074 -4.5882,9.7014 -3.4112,14.2653 -3.519,17.4455 0,0.2569 0,0.687 0,0.9581 0,1.746 -1.4154,2.5822 -2.5607,2.0714 -2.0545,-0.9163 -2.4047,-6.3729 -2.4134,-7.8235 -0.0041,-0.6828 -0.8094,-0.8791 -1.202,-0.332 -8.8048,12.267 -2.3251,23.1974 -0.0822,26.3171 0.6459,0.8984 0.9025,2.0748 0.5354,3.1298 -0.0412,0.1183 -0.0896,0.2352 -0.1465,0.349 -0.3988,0.7981 0.6707,1.4 0.6707,1.4 1.3155,1.2339 5.4651,5.1806 14.2817,5.1805 7.1344,-1e-4 11.9478,-3.0595 13.8297,-4.7247 0.8829,-0.7812 1.2761,-0.8594 1.2732,-1.6827 -0.0036,-0.9849 -0.0257,-2.5026 0.4849,-3.0074"/><path id="path2" fill="#f1b31c" stroke="none" d="m 36.2938,32.5579 c -0.2946,1.4609 -1.3196,4.0019 -4.2072,8.3499 -0.0592,0.1064 -0.1172,0.2104 -0.1764,0.3168 -0.3088,0.6893 -1.3555,3.3414 -1.0617,7.0514 0,10e-5 0,0 0,10e-5 -2e-4,0.0018 -0.573,4.337 -2.977,3.9757 -0.5095,-0.0766 -0.9214,-0.2506 -1.2541,-0.4772 -0.6105,-0.4159 -1.4234,0.1082 -1.3489,0.8525 0.3195,3.1924 1.6034,8.0822 6.1526,11.6721 0,0 1.2832,1.0598 1.4415,1.9748 0.0052,0.0303 0.029,0.0506 0.0591,0.0506 h 5.2741 c 0.1832,0 0.2083,-0.024 0.2135,-0.0594 0.0356,-0.2402 0.3643,-1.2504 3.2024,-3.7732 1.9966,-1.7748 3.1652,-3.898 3.7424,-5.3482 0.2048,-0.5145 -0.101,-1.1173 -0.6389,-1.2068 -0.3438,-0.0572 -0.7127,-0.3603 -1.0133,-1.1841 -3e-4,-10e-4 -3e-4,-9e-4 -7e-4,-0.0019 -0.0063,-0.0235 -0.2167,-0.8383 0.6013,-2.5595 0.3805,-0.8006 0.4242,-1.6645 0.36,-2.3655 -0.0579,-0.6322 -0.7233,-0.998 -1.2816,-0.7156 -0.7839,0.3965 -1.8694,0.5304 -2.5993,-1.0753 0,0 -0.6584,-1.5662 -0.0859,-5.4515 0.437,-2.9656 -1.0106,-7.8615 -2.8279,-10.3747 -0.4486,-0.6202 -1.4219,-0.4057 -1.574,0.349 z"/></g><g id="line" transform="translate(-15.703085,-3.7238186)"><path id="path3" fill="none" stroke="#000" stroke-linecap="round" stroke-linejoin="round" stroke-miterlimit="10" stroke-width="2" d="m 21.6298,61.5562 c 3.479,3.6108 8.6702,5.4754 13.9925,5.4754 5.0546,0 10.7077,-1.9624 14.2409,-5.4677"/><path id="path4" fill="none" stroke="#000" stroke-linecap="round" stroke-linejoin="round" stroke-miterlimit="10" stroke-width="2" d="m 21.5108,57.4557 c 0,0 -10.5321,-11.2011 -0.4546,-25.9791 0,0 0.1969,4.0589 1.2551,6.5816 0.4834,1.0362 1.2122,1.9569 2.3487,1.9569 1.3355,0 2.4181,-0.8972 2.4181,-2.5708 0,-0.2599 0,-0.6721 0,-0.9184 0.105,-3.0996 -0.5251,-7.6659 3.5708,-17.19 0,0 7.0365,3.7835 3.9909,-14.6122 0,0 14.8798,10.4421 14.2762,28.217 0,1.2693 0.9678,2.2983 2.1617,2.2983 1.1939,0 2.1617,-1.029 2.1617,-2.2983 0.075,0.1341 6.3219,13.078 -2.514,24.515"/><path id="path5" fill="none" stroke="#000" stroke-linecap="round" stroke-linejoin="round" stroke-miterlimit="10" stroke-width="2" d="m 22.8203,22.9729 c 0.198,-1.0358 0.7082,-2.2802 1.9228,-3.3185 0,0 1.9021,-1.6355 1.5953,-3.8305"/></g></svg>