<svg xmlns="http://www.w3.org/2000/svg" xmlns:svg="http://www.w3.org/2000/svg" id="emoji" width="46.4" height="52.7" version="1.1" viewBox="0 0 46.4 52.7"><g id="color" transform="translate(-12.799999,-9.5999985)"><path id="path1" fill="#3f3f3f" d="M 50.1,55.5 47.3,52.7 C 47.1,52.5 46.8,52.4 46.5,52.4 L 23.1,50.5 c -0.3,0 -1.5,1.3 -1.7,1.5 l -2.5,2.4"/><path id="path2" fill="#3f3f3f" d="m 19.9,53.4 -5.7,5.3 c -0.7,0.7 0.5,2.6 1.5,2.6 h 39.5 c 1,0 1.5,-1.2 0.8,-1.9 l -8.6,-8.2"/><circle id="circle2" cx="36" cy="32.8" r="22.2" fill="#b399c8"/><path id="path3" fill="#8967aa" d="m 58.2,33 c 0,12.3 -9.7,22.1 -22,22.1 11.6,-8 14.8,-16.8 14.4,-24.5 0,-0.3 0,-0.5 -0.1,-0.8 -0.2,-1.7 -0.5,-3.4 -1.1,-5 -0.1,-0.2 -0.1,-0.4 -0.2,-0.6 -0.7,-2 -1.7,-3.8 -2.7,-5.4 C 46.3,18.5 46.2,18.3 46,18.1 45.4,17.2 44.7,16.3 43.9,15.6 43.7,15.4 43.6,15.2 43.4,15.1 43.2,14.9 43,14.7 42.8,14.5 42.6,14.3 42.4,14.2 42.2,14 42.1,13.9 42,13.8 41.9,13.7 41.7,13.5 41.5,13.4 41.4,13.3 40.6,12.7 39.7,12.1 38.9,11.7 38.8,11.6 38.6,11.6 38.5,11.5 38.2,11.4 37.8,11.2 37.5,11.1 37.3,11 37.1,11 37,11 c -0.1,0 -0.2,0 -0.3,0 -0.1,0 -0.2,0 -0.3,0 h 0.1 c 12.1,0.1 21.7,9.9 21.7,22 z"/><path id="path4" fill="none" stroke="#fff" stroke-linecap="round" stroke-linejoin="round" stroke-miterlimit="10" stroke-width="2" d="m 19.4,30.7 c 0.1,-0.5 0.2,-1.1 0.3,-1.6"/><path id="path5" fill="none" stroke="#fff" stroke-linecap="round" stroke-linejoin="round" stroke-miterlimit="10" stroke-width="2" d="m 21.4,24.6 c 1.5,-2.7 3.6,-4.9 6.2,-6.4"/><path id="path6" d="m 48.7,50.8 c 0.1,0 0.2,0.1 0.3,0.2 l 2.8,2.8 2.1,2.1 2.8,2.8 c 0.7,0.7 -0.5,2.6 -1.5,2.6 h -13 v -7.2"/></g><g id="line" transform="translate(-12.799999,-9.5999985)"><circle id="circle6" cx="36" cy="32.8" r="22.2" fill="none" stroke="#000" stroke-linecap="round" stroke-linejoin="round" stroke-miterlimit="10" stroke-width="2"/><circle id="circle7" cx="36" cy="32.8" r="22.2" fill="none" stroke="#000" stroke-linecap="round" stroke-linejoin="round" stroke-miterlimit="10" stroke-width="2"/><path id="path7" fill="none" stroke="#000" stroke-linecap="round" stroke-miterlimit="10" stroke-width="2" d="m 18,56.6 -3,2.8 c -0.7,0.7 -0.3,1.9 0.8,1.9 h 39.5 c 1,0 1.5,-1.2 0.8,-1.9 l -2.8,-2.8"/><path id="path8" fill="none" stroke="#000" stroke-linecap="round" stroke-linejoin="round" stroke-miterlimit="10" stroke-width="2" d="m 53.2,56.6 2.8,2.8 c 0.7,0.7 0.2,1.9 -0.8,1.9"/></g></svg>