<svg xmlns="http://www.w3.org/2000/svg" xmlns:svg="http://www.w3.org/2000/svg" id="emoji" width="63.564" height="12.178" version="1.1" viewBox="0 0 63.564 12.178"><g id="color" transform="translate(-3.0012875,-28.671352)"><path id="path1" fill="#3f3f3f" stroke="#3f3f3f" stroke-miterlimit="10" stroke-width="2" d="m 24.2722,30.1081 c -3.5449,-0.2675 -13.7369,-0.8052 -18.6563,0 0,0 -1.3857,0.7557 0,4.6293 0,0 1.2566,0.5474 3,0.5474 1.491,0 12.8699,1.5386 15.6563,1.1077"/><path id="path2" fill="#3f3f3f" stroke="none" stroke-linecap="round" stroke-linejoin="round" stroke-miterlimit="10" stroke-width="2" d="m 20.4825,30.1081 c -3.5449,-0.2675 -10.9472,-0.8052 -15.8666,0 0,0 -1.3857,1.7557 0,5.6293 0,0 2.2566,-0.4526 4,-0.4526 1.491,0 9.4455,1.1901 12.2319,0.7592"/><path id="path3" fill="#d0cfce" stroke="none" stroke-linecap="round" stroke-linejoin="round" stroke-miterlimit="10" stroke-width="2" d="m 24.2722,39.8493 h 9.3437 c 32,0 31.9499,-9.7411 31.9499,-9.7411 H 33.6159 24.2722 v 9.7411"/></g><g id="line" transform="translate(-3.0012875,-28.671352)"><path id="path4" fill="none" stroke="#000" stroke-linecap="round" stroke-linejoin="round" stroke-miterlimit="10" stroke-width="2" d="m 20.4825,30.1081 c -3.5449,-0.2675 -10.9472,-0.8052 -15.8666,0 0,0 -1.3857,1.7557 0,5.6293 0,0 2.2566,-0.4526 4,-0.4526 1.491,0 9.4455,1.1901 12.2319,0.7592"/><path id="path5" fill="none" stroke="#000" stroke-linecap="round" stroke-linejoin="round" stroke-miterlimit="10" stroke-width="2" d="m 24.2722,39.8493 h 9.3437 c 32,0 31.9499,-9.7411 31.9499,-9.7411 H 33.6159 24.2722 Z"/></g></svg>