<?xml version="1.0" encoding="UTF-8" standalone="no"?>
<svg
   id="emoji"
   viewBox="0 0 51.426533 50.997341"
   version="1.1"
   sodipodi:docname="1f526.svg"
   width="51.426533"
   height="50.997341"
   xmlns:inkscape="http://www.inkscape.org/namespaces/inkscape"
   xmlns:sodipodi="http://sodipodi.sourceforge.net/DTD/sodipodi-0.dtd"
   xmlns="http://www.w3.org/2000/svg"
   xmlns:svg="http://www.w3.org/2000/svg">
  <defs
     id="defs13" />
  <sodipodi:namedview
     id="namedview13"
     pagecolor="#ffffff"
     bordercolor="#000000"
     borderopacity="0.25"
     inkscape:showpageshadow="2"
     inkscape:pageopacity="0.0"
     inkscape:pagecheckerboard="0"
     inkscape:deskcolor="#d1d1d1" />
  <g
     id="color"
     transform="translate(-8.2851002,-13.188662)">
    <line
       x1="13.1977"
       x2="9.3351002"
       y1="46.281399"
       y2="47.2719"
       fill="none"
       stroke="#fcea2b"
       stroke-linecap="round"
       stroke-linejoin="round"
       stroke-miterlimit="10"
       stroke-width="2"
       id="line1" />
    <line
       x1="19.1014"
       x2="15.1726"
       y1="53.195301"
       y2="57.025799"
       fill="none"
       stroke="#fcea2b"
       stroke-linecap="round"
       stroke-linejoin="round"
       stroke-miterlimit="10"
       stroke-width="2"
       id="line2" />
    <line
       x1="26.2418"
       x2="25.143299"
       y1="59.470402"
       y2="63.136002"
       fill="none"
       stroke="#fcea2b"
       stroke-linecap="round"
       stroke-linejoin="round"
       stroke-miterlimit="10"
       stroke-width="2"
       id="line3" />
    <path
       fill="#d0cfce"
       d="m 56.4871,16.9995 c -1.958,-1.958 -3.9941,-3.469 -5.0309,-2.7058 L 29.5787,36.1712 c 1.2786,0.5446 2.8726,1.5088 3.8848,2.5215 1.0128,1.0124 2.8059,3.7926 3.3505,5.0717 L 58.7117,21.3083 c -0.042,-0.4639 -0.2168,-2.3 -2.2246,-4.3088 z"
       id="path3" />
    <path
       fill="#d0cfce"
       d="m 20.4502,38.2151 -4.7805,4.9489 14.1421,14.1421 5.1413,-5.3317 C 36.6533,50.2752 36.5,48.1773 36.5,45.773 36.5,43.3687 35.5852,40.7909 33.885,39.0908 30.3753,35.581 23.96,34.7053 20.4502,38.2151 Z"
       id="path4" />
    <path
       fill="#9b9b9a"
       d="m 35.8144,39.8366 c 0.4458,0.6337 0.6988,3.2212 0.9996,3.9278 L 58.7117,21.3083 c -0.0186,-0.2055 -0.106,-2.1367 -0.647,-2.7353 -0.3112,-0.3443 -1.0305,0.7301 -1.3133,0.3267 z"
       id="path5" />
    <path
       fill="#9b9b9a"
       d="m 27.41,54.9043 2.4018,2.4018 4.7992,-4.8814 c 1.7002,-1.6992 2.3886,-4.5444 2.3886,-6.9487 0,-0.7988 -0.3923,-2.8729 -0.8853,-3.4553 -0.5057,-0.5973 -1.1173,0.2989 -1.52,-0.3901 -0.1932,-0.3305 0.551,2.3353 -0.5895,5.7511 -1.1406,3.4157 -6.5948,7.5226 -6.5948,7.5226 z"
       id="path6" />
  </g>
  <g
     id="hair"
     transform="translate(-8.2851002,-13.188662)" />
  <g
     id="skin"
     transform="translate(-8.2851002,-13.188662)" />
  <g
     id="skin-shadow"
     transform="translate(-8.2851002,-13.188662)" />
  <g
     id="line"
     transform="translate(-8.2851002,-13.188662)">
    <path
       fill="none"
       stroke="#000000"
       stroke-linecap="round"
       stroke-linejoin="round"
       stroke-miterlimit="10"
       stroke-width="2"
       d="M 29.5787,36.1712 51.4562,14.2937 c 0,0 1.4916,-0.8489 4.609,2.2685 3.1174,3.1174 2.6169,4.9574 2.6169,4.9574 L 36.8046,43.3971"
       id="path7" />
    <path
       fill="none"
       stroke="#000000"
       stroke-linecap="round"
       stroke-linejoin="round"
       stroke-miterlimit="10"
       stroke-width="2"
       d="m 19.7429,39.0908 c 3.9052,-3.9053 10.2369,-3.9053 14.1421,0 3.9053,3.9052 3.9053,10.2369 0,14.1421 L 29.8118,57.3061 15.6697,43.164 Z"
       id="path8" />
    <line
       x1="13.1977"
       x2="9.3351002"
       y1="46.281399"
       y2="47.2719"
       fill="none"
       stroke="#000000"
       stroke-linecap="round"
       stroke-linejoin="round"
       stroke-miterlimit="10"
       stroke-width="2"
       id="line8" />
    <line
       x1="19.1014"
       x2="15.1726"
       y1="53.195301"
       y2="57.025799"
       fill="none"
       stroke="#000000"
       stroke-linecap="round"
       stroke-linejoin="round"
       stroke-miterlimit="10"
       stroke-width="2"
       id="line9" />
    <line
       x1="26.2418"
       x2="25.143299"
       y1="59.470402"
       y2="63.136002"
       fill="none"
       stroke="#000000"
       stroke-linecap="round"
       stroke-linejoin="round"
       stroke-miterlimit="10"
       stroke-width="2"
       id="line10" />
  </g>
  <g
     id="color-foreground"
     transform="translate(-8.2851002,-13.188662)">
    <line
       x1="13.1977"
       x2="9.3351002"
       y1="46.281399"
       y2="47.2719"
       fill="none"
       stroke="#fcea2b"
       stroke-linecap="round"
       stroke-linejoin="round"
       stroke-miterlimit="10"
       stroke-width="2.1"
       id="line11" />
    <line
       x1="19.1014"
       x2="15.1726"
       y1="53.195301"
       y2="57.025799"
       fill="none"
       stroke="#fcea2b"
       stroke-linecap="round"
       stroke-linejoin="round"
       stroke-miterlimit="10"
       stroke-width="2.1"
       id="line12" />
    <line
       x1="26.2418"
       x2="25.143299"
       y1="59.470402"
       y2="63.136002"
       fill="none"
       stroke="#fcea2b"
       stroke-linecap="round"
       stroke-linejoin="round"
       stroke-miterlimit="10"
       stroke-width="2.1"
       id="line13" />
  </g>
</svg>
