<?xml version="1.0" encoding="UTF-8" standalone="no"?>
<svg
   id="emoji"
   viewBox="0 0 52.099533 46.134182"
   version="1.1"
   sodipodi:docname="1f53b.svg"
   width="52.099533"
   height="46.134182"
   xmlns:inkscape="http://www.inkscape.org/namespaces/inkscape"
   xmlns:sodipodi="http://sodipodi.sourceforge.net/DTD/sodipodi-0.dtd"
   xmlns="http://www.w3.org/2000/svg"
   xmlns:svg="http://www.w3.org/2000/svg">
  <defs
     id="defs2" />
  <sodipodi:namedview
     id="namedview2"
     pagecolor="#ffffff"
     bordercolor="#000000"
     borderopacity="0.25"
     inkscape:showpageshadow="2"
     inkscape:pageopacity="0.0"
     inkscape:pagecheckerboard="0"
     inkscape:deskcolor="#d1d1d1" />
  <g
     id="color"
     transform="translate(-9.9502536,-13.3983)">
    <path
       fill="#ea5a47"
       stroke="none"
       d="M 38.4549,57.1464 60.6806,18.6503 c 1.0911,-1.8898 -0.2728,-4.252 -2.4549,-4.252 H 13.7743 c -2.1821,0 -3.5459,2.3622 -2.4549,4.252 l 22.2257,38.4961 c 1.0911,1.8898 3.8187,1.8898 4.9098,0 z"
       id="path1" />
  </g>
  <g
     id="hair"
     transform="translate(-9.9502536,-13.3983)" />
  <g
     id="skin"
     transform="translate(-9.9502536,-13.3983)" />
  <g
     id="skin-shadow"
     transform="translate(-9.9502536,-13.3983)" />
  <g
     id="line"
     transform="translate(-9.9502536,-13.3983)">
    <path
       fill="none"
       stroke="#000000"
       stroke-miterlimit="10"
       stroke-width="2"
       d="M 38.4549,57.1464 60.6806,18.6503 c 1.0911,-1.8898 -0.2728,-4.252 -2.4549,-4.252 H 13.7743 c -2.1821,0 -3.5459,2.3622 -2.4549,4.252 l 22.2257,38.4961 c 1.0911,1.8898 3.8187,1.8898 4.9098,0 z"
       id="path2" />
  </g>
</svg>
