<svg xmlns="http://www.w3.org/2000/svg" xmlns:svg="http://www.w3.org/2000/svg" id="emoji" width="42" height="54.447" version="1.1" viewBox="0 0 42 54.447"><g id="color" transform="translate(-15,-10.824196)"><polygon id="polygon1" fill="#fcea2b" points="35 64.007 35 24.007 17 12.007 16 48.007"/><polygon id="polygon2" fill="#5c9e31" points="37 64.007 37 24.007 55 12.007 56 48.007"/></g><g id="line" transform="translate(-15,-10.824196)"><path id="path2" fill="none" stroke="#000" stroke-linecap="round" stroke-miterlimit="10" stroke-width="2" d="M 17.6769,12.0972 C 16.7546,11.4972 16,11.9072 16,13.0072 v 34 a 4.7349,4.7349 0 0 0 1.56,3.2518 l 16.8188,13.4965 a 2.6239,2.6239 0 0 0 3.1235,0.0047 L 54.4364,50.2543 A 4.7148,4.7148 0 0 0 56,47.0072 v -34 c 0,-1.1 -0.7546,-1.5095 -1.6769,-0.91 l -16.6462,10.82 a 3.3519,3.3519 0 0 1 -3.3538,0 z"/><line id="line2" x1="36" x2="36" y1="24.007" y2="64.007" fill="none" stroke="#000" stroke-linecap="round" stroke-miterlimit="10" stroke-width="2"/></g></svg>