<?xml version="1.0" encoding="UTF-8" standalone="no"?>
<svg
   id="emoji"
   viewBox="0 0 52.099491 46.134083"
   version="1.1"
   sodipodi:docname="1f53a.svg"
   width="52.099491"
   height="46.134083"
   xmlns:inkscape="http://www.inkscape.org/namespaces/inkscape"
   xmlns:sodipodi="http://sodipodi.sourceforge.net/DTD/sodipodi-0.dtd"
   xmlns="http://www.w3.org/2000/svg"
   xmlns:svg="http://www.w3.org/2000/svg">
  <defs
     id="defs2" />
  <sodipodi:namedview
     id="namedview2"
     pagecolor="#ffffff"
     bordercolor="#000000"
     borderopacity="0.25"
     inkscape:showpageshadow="2"
     inkscape:pageopacity="0.0"
     inkscape:pagecheckerboard="0"
     inkscape:deskcolor="#d1d1d1" />
  <g
     id="color"
     transform="translate(-9.9502536,-12.865917)">
    <path
       fill="#ea5a47"
       stroke="none"
       d="M 33.5451,15.252 11.3194,53.748 C 10.2284,55.6378 11.5922,58 13.7743,58 h 44.4514 c 2.1821,0 3.5459,-2.3622 2.4549,-4.252 L 38.4549,15.252 c -1.0911,-1.8898 -3.8187,-1.8898 -4.9098,0 z"
       id="path1" />
  </g>
  <g
     id="hair"
     transform="translate(-9.9502536,-12.865917)" />
  <g
     id="skin"
     transform="translate(-9.9502536,-12.865917)" />
  <g
     id="skin-shadow"
     transform="translate(-9.9502536,-12.865917)" />
  <g
     id="line"
     transform="translate(-9.9502536,-12.865917)">
    <path
       fill="none"
       stroke="#000000"
       stroke-miterlimit="10"
       stroke-width="2"
       d="M 33.5451,15.252 11.3194,53.748 C 10.2284,55.6378 11.5922,58 13.7743,58 h 44.4514 c 2.1821,0 3.5459,-2.3622 2.4549,-4.252 L 38.4549,15.252 c -1.0911,-1.8898 -3.8187,-1.8898 -4.9098,0 z"
       id="path2" />
  </g>
</svg>
