<svg xmlns="http://www.w3.org/2000/svg" xmlns:svg="http://www.w3.org/2000/svg" id="emoji" width="50" height="50" version="1.1" viewBox="0 0 50 50"><g id="color" transform="translate(-11,-11)"><rect id="rect1" width="48" height="47.83" x="12" y="12" fill="#b399c8"/></g><g id="line" transform="translate(-11,-11)"><line id="line1" x1="36" x2="36" y1="50.15" y2="21.85" fill="none" stroke="#000" stroke-linecap="round" stroke-linejoin="round" stroke-width="3"/><line id="line2" x1="30.81" x2="41.19" y1="50.26" y2="50.26" fill="none" stroke="#000" stroke-linecap="round" stroke-linejoin="round" stroke-width="3"/><rect id="rect2" width="48" height="48" x="12" y="12" fill="none" stroke="#000" stroke-linecap="round" stroke-linejoin="round" stroke-width="2"/><path id="path2" fill="none" stroke="#000" stroke-linecap="round" stroke-linejoin="round" stroke-width="2" d="m 40.64,21.34 a 4.635,4.618 0 0 1 -2.318,4 4.635,4.618 0 0 1 -4.635,-1e-6 4.635,4.618 0 0 1 -2.318,-4"/><path id="path3" fill="none" stroke="#000" stroke-linecap="round" stroke-linejoin="round" stroke-width="2" d="m 44.87,21.34 a 8.871,8.858 0 0 1 -4.435,7.671 8.871,8.858 0 0 1 -8.871,0 8.871,8.858 0 0 1 -4.435,-7.671"/><path id="path4" fill="none" stroke="#000" stroke-linecap="round" stroke-linejoin="round" stroke-width="2" d="m 49.11,21.34 a 13.11,13.09 0 0 1 -6.552,11.34 13.11,13.09 0 0 1 -13.11,-2e-6 13.11,13.09 0 0 1 -6.552,-11.34"/><path id="path5" fill="none" stroke="#000" stroke-linecap="round" stroke-linejoin="round" stroke-width="2" d="m 53.34,21.34 a 17.34,17.34 0 0 1 -8.67,15.02 17.34,17.34 0 0 1 -17.34,-10e-7 17.34,17.34 0 0 1 -8.67,-15.02"/></g></svg>