<?xml version="1.0" encoding="UTF-8" standalone="no"?>
<svg
   id="emoji"
   viewBox="0 0 50 50"
   version="1.1"
   sodipodi:docname="1f549.svg"
   width="50"
   height="50"
   xmlns:inkscape="http://www.inkscape.org/namespaces/inkscape"
   xmlns:sodipodi="http://sodipodi.sourceforge.net/DTD/sodipodi-0.dtd"
   xmlns="http://www.w3.org/2000/svg"
   xmlns:svg="http://www.w3.org/2000/svg">
  <defs
     id="defs3" />
  <sodipodi:namedview
     id="namedview3"
     pagecolor="#ffffff"
     bordercolor="#000000"
     borderopacity="0.25"
     inkscape:showpageshadow="2"
     inkscape:pageopacity="0.0"
     inkscape:pagecheckerboard="0"
     inkscape:deskcolor="#d1d1d1" />
  <g
     id="color"
     transform="translate(-11,-11)">
    <rect
       x="12"
       y="12"
       width="48"
       height="47.830002"
       fill="#b399c8"
       id="rect1" />
  </g>
  <g
     id="line"
     transform="translate(-11,-11)">
    <path
       fill="none"
       stroke="#000000"
       stroke-linecap="round"
       stroke-linejoin="round"
       stroke-miterlimit="10"
       stroke-width="3"
       d="m 25.24,30.12 c 12.84,-6.27 12.38,4.635 4.133,7.694 0,0 6.959,0.8809 6.9,5.387 -0.05882,4.506 -2.585,7.392 -6.788,7.13 -2.878,-0.2634 -7.598,-1.336 -9.064,-8.283"
       id="path1" />
    <path
       fill="none"
       stroke="#000000"
       stroke-linecap="round"
       stroke-miterlimit="10"
       stroke-width="3"
       d="m 35.37,24.17 c 0,0 5.631,7.013 11.78,0.8959"
       id="path2" />
    <path
       fill="none"
       stroke="#000000"
       stroke-linecap="round"
       stroke-miterlimit="10"
       stroke-width="3"
       d="m 34,39.48 c 0,0 5.35,1.423 6.959,-2.687 0,0 2.813,-6.988 7.322,-4.92 4.509,2.068 3.465,10.09 2.277,11.98 0,0 -4.101,7.366 -9.378,1.375"
       id="path3" />
    <circle
       cx="40.110001"
       cy="22.15"
       r="2"
       id="circle3" />
    <rect
       x="12"
       y="12"
       width="48"
       height="48"
       fill="none"
       stroke="#000000"
       stroke-linecap="round"
       stroke-linejoin="round"
       stroke-width="2"
       id="rect3" />
  </g>
</svg>
