<svg xmlns="http://www.w3.org/2000/svg" xmlns:svg="http://www.w3.org/2000/svg" id="emoji" width="50" height="50" version="1.1" viewBox="0 0 50 50"><g id="color" transform="translate(-11,-11)"><rect id="rect1" width="48" height="47.83" x="12" y="12" fill="#b399c8"/></g><g id="line" transform="translate(-11,-11)"><path id="path1" fill="none" stroke="#000" stroke-linecap="round" stroke-linejoin="round" stroke-miterlimit="10" stroke-width="3" d="m 25.24,30.12 c 12.84,-6.27 12.38,4.635 4.133,7.694 0,0 6.959,0.8809 6.9,5.387 -0.05882,4.506 -2.585,7.392 -6.788,7.13 -2.878,-0.2634 -7.598,-1.336 -9.064,-8.283"/><path id="path2" fill="none" stroke="#000" stroke-linecap="round" stroke-miterlimit="10" stroke-width="3" d="m 35.37,24.17 c 0,0 5.631,7.013 11.78,0.8959"/><path id="path3" fill="none" stroke="#000" stroke-linecap="round" stroke-miterlimit="10" stroke-width="3" d="m 34,39.48 c 0,0 5.35,1.423 6.959,-2.687 0,0 2.813,-6.988 7.322,-4.92 4.509,2.068 3.465,10.09 2.277,11.98 0,0 -4.101,7.366 -9.378,1.375"/><circle id="circle3" cx="40.11" cy="22.15" r="2"/><rect id="rect3" width="48" height="48" x="12" y="12" fill="none" stroke="#000" stroke-linecap="round" stroke-linejoin="round" stroke-width="2"/></g></svg>