<?xml version="1.0" encoding="UTF-8" standalone="no"?>
<svg
   id="emoji"
   viewBox="0 0 50 50"
   version="1.1"
   sodipodi:docname="1f54e.svg"
   width="50"
   height="50"
   xmlns:inkscape="http://www.inkscape.org/namespaces/inkscape"
   xmlns:sodipodi="http://sodipodi.sourceforge.net/DTD/sodipodi-0.dtd"
   xmlns="http://www.w3.org/2000/svg"
   xmlns:svg="http://www.w3.org/2000/svg">
  <defs
     id="defs5" />
  <sodipodi:namedview
     id="namedview5"
     pagecolor="#ffffff"
     bordercolor="#000000"
     borderopacity="0.25"
     inkscape:showpageshadow="2"
     inkscape:pageopacity="0.0"
     inkscape:pagecheckerboard="0"
     inkscape:deskcolor="#d1d1d1" />
  <g
     id="color"
     transform="translate(-11,-11)">
    <rect
       x="12"
       y="12"
       width="48"
       height="47.830002"
       fill="#b399c8"
       id="rect1" />
  </g>
  <g
     id="line"
     transform="translate(-11,-11)">
    <line
       x1="36"
       x2="36"
       y1="50.150002"
       y2="21.85"
       fill="none"
       stroke="#000000"
       stroke-linecap="round"
       stroke-linejoin="round"
       stroke-width="3"
       id="line1" />
    <line
       x1="30.809999"
       x2="41.189999"
       y1="50.259998"
       y2="50.259998"
       fill="none"
       stroke="#000000"
       stroke-linecap="round"
       stroke-linejoin="round"
       stroke-width="3"
       id="line2" />
    <rect
       x="12"
       y="12"
       width="48"
       height="48"
       fill="none"
       stroke="#000000"
       stroke-linecap="round"
       stroke-linejoin="round"
       stroke-width="2"
       id="rect2" />
    <path
       fill="none"
       stroke="#000000"
       stroke-linecap="round"
       stroke-linejoin="round"
       stroke-width="2"
       d="m 40.64,21.34 a 4.635,4.618 0 0 1 -2.318,4 4.635,4.618 0 0 1 -4.635,-1e-6 4.635,4.618 0 0 1 -2.318,-4"
       id="path2" />
    <path
       fill="none"
       stroke="#000000"
       stroke-linecap="round"
       stroke-linejoin="round"
       stroke-width="2"
       d="m 44.87,21.34 a 8.871,8.858 0 0 1 -4.435,7.671 8.871,8.858 0 0 1 -8.871,0 8.871,8.858 0 0 1 -4.435,-7.671"
       id="path3" />
    <path
       fill="none"
       stroke="#000000"
       stroke-linecap="round"
       stroke-linejoin="round"
       stroke-width="2"
       d="m 49.11,21.34 a 13.11,13.09 0 0 1 -6.552,11.34 13.11,13.09 0 0 1 -13.11,-2e-6 13.11,13.09 0 0 1 -6.552,-11.34"
       id="path4" />
    <path
       fill="none"
       stroke="#000000"
       stroke-linecap="round"
       stroke-linejoin="round"
       stroke-width="2"
       d="m 53.34,21.34 a 17.34,17.34 0 0 1 -8.67,15.02 17.34,17.34 0 0 1 -17.34,-10e-7 17.34,17.34 0 0 1 -8.67,-15.02"
       id="path5" />
  </g>
</svg>
