<svg xmlns="http://www.w3.org/2000/svg" xmlns:svg="http://www.w3.org/2000/svg" id="emoji" width="56" height="40.996" version="1.1" viewBox="0 0 56 40.996"><g id="color" transform="translate(-7,-20.003709)"><path id="path1" fill="#f4aa41" stroke="none" stroke-miterlimit="10" stroke-width="2" d="M 52,33.7806 V 60 H 18 V 33.7806 c 0,-0.3181 0.1513,-0.6173 0.4076,-0.8057 l 15.9731,-11.744 c 0.3555,-0.3077 0.8831,-0.3077 1.2386,0 l 15.9731,11.744 C 51.8487,33.1634 52,33.4625 52,33.7806 Z"/><rect id="rect1" width="10" height="21" x="8" y="39" fill="#f4aa41" stroke="none" stroke-linecap="round" stroke-linejoin="round" stroke-miterlimit="10" stroke-width="2"/><rect id="rect2" width="10" height="21" x="52" y="39" fill="#f4aa41" stroke="none" stroke-linecap="round" stroke-linejoin="round" stroke-miterlimit="10" stroke-width="2"/><path id="path2" fill="#a57939" stroke="none" stroke-linecap="round" stroke-linejoin="round" stroke-miterlimit="10" stroke-width="2" d="m 39,60 h -8 v -6 c 0,-1.6569 1.3431,-3 3,-3 h 2 c 1.6569,0 3,1.3431 3,3 z"/><polygon id="polygon2" fill="#3f3f3f" stroke="none" stroke-linecap="round" stroke-linejoin="round" stroke-miterlimit="10" stroke-width="2" points="62 39 57 30 52 39"/><polygon id="polygon3" fill="#3f3f3f" stroke="none" stroke-linecap="round" stroke-linejoin="round" stroke-miterlimit="10" stroke-width="2" points="18 39 13 30 8 39"/><polygon id="polygon4" fill="#fff" stroke="none" stroke-linecap="round" stroke-linejoin="round" stroke-miterlimit="10" stroke-width="2" points="43.66 42 35 27 26.34 42"/><polygon id="polygon5" fill="#d0cfce" stroke="none" stroke-linecap="round" stroke-linejoin="round" stroke-miterlimit="10" stroke-width="2" points="26.34 32 35 47 43.66 32"/><polygon id="polygon6" fill="#d0cfce" stroke="none" stroke-linecap="round" stroke-linejoin="round" stroke-miterlimit="10" stroke-width="2" points="43.66 42 35 27 26.34 42"/></g><g id="line" transform="translate(-7,-20.003709)"><path id="path6" fill="none" stroke="#000" stroke-miterlimit="10" stroke-width="2" d="M 52,33.7806 V 60 H 18 V 33.7806 c 0,-0.3181 0.1513,-0.6173 0.4076,-0.8057 l 15.9731,-11.744 c 0.3555,-0.3077 0.8831,-0.3077 1.2386,0 l 15.9731,11.744 C 51.8487,33.1634 52,33.4625 52,33.7806 Z"/><rect id="rect6" width="10" height="21" x="8" y="39" fill="none" stroke="#000" stroke-linecap="round" stroke-linejoin="round" stroke-miterlimit="10" stroke-width="2"/><rect id="rect7" width="10" height="21" x="52" y="39" fill="none" stroke="#000" stroke-linecap="round" stroke-linejoin="round" stroke-miterlimit="10" stroke-width="2"/><path id="path7" fill="none" stroke="#000" stroke-linecap="round" stroke-linejoin="round" stroke-miterlimit="10" stroke-width="2" d="m 39,60 h -8 v -6 c 0,-1.6569 1.3431,-3 3,-3 h 2 c 1.6569,0 3,1.3431 3,3 z"/><path id="path8" fill="none" stroke="#000" stroke-linecap="round" stroke-linejoin="round" stroke-miterlimit="10" stroke-width="2" d="m 14,47 h -2 v -3 c 0,-0.5523 0.4477,-1 1,-1 v 0"/><path id="path9" fill="none" stroke="#000" stroke-linecap="round" stroke-linejoin="round" stroke-miterlimit="10" stroke-width="2" d="m 58,47 h -2 v -3 c 0,-0.5523 0.4477,-1 1,-1 v 0"/><line id="line9" x1="35" x2="35" y1="60" y2="51" fill="none" stroke="#000" stroke-linecap="round" stroke-linejoin="round" stroke-miterlimit="10" stroke-width="2"/><polygon id="polygon9" fill="none" stroke="#000" stroke-linecap="round" stroke-linejoin="round" stroke-miterlimit="10" stroke-width="2" points="62 39 57 30 52 39"/><polygon id="polygon10" fill="none" stroke="#000" stroke-linecap="round" stroke-linejoin="round" stroke-miterlimit="10" stroke-width="2" points="18 39 13 30 8 39"/><polygon id="polygon11" fill="none" stroke="#000" stroke-linecap="round" stroke-linejoin="round" stroke-miterlimit="10" stroke-width="2" points="43.66 42 35 27 26.34 42"/><polygon id="polygon12" fill="none" stroke="#000" stroke-linecap="round" stroke-linejoin="round" stroke-miterlimit="10" stroke-width="2" points="26.34 32 35 47 43.66 32"/><polygon id="polygon13" fill="none" stroke="#000" stroke-linecap="round" stroke-linejoin="round" stroke-miterlimit="10" stroke-width="2" points="43.66 42 35 27 26.34 42"/><polygon id="polygon14" fill="none" stroke="#000" stroke-linecap="round" stroke-linejoin="round" stroke-miterlimit="10" stroke-width="2" points="26.34 32 35 47 43.66 32"/></g></svg>