<svg xmlns="http://www.w3.org/2000/svg" xmlns:svg="http://www.w3.org/2000/svg" id="emoji" width="57.778" height="57.778" version="1.1" viewBox="0 0 57.778 57.778"><g id="color" transform="translate(-7.1120005,-7.1120005)"><path id="path1" fill="#d0cfce" stroke-width="1.175" d="m 22.08,21.58 c 0,0 8.815,-1.028 13.74,-5.069 0,0 11.09,6.391 13.88,5.289 0,0 2.792,13.74 5.73,13.96 0,0 -5.436,13 -4.775,13.66 0,0 -13.44,2.424 -14.62,6.244 0,0 -8.228,-7.934 -14.1,-5.583 0,0 -3.232,-13.08 -5.73,-13.59 0,0 7.199,-12.86 5.877,-14.91 z"/></g><g id="line" transform="translate(-7.1120005,-7.1120005)"><line id="line1" x1="8.112" x2="63.89" y1="36" y2="36" fill="none" stroke="#000" stroke-linecap="round" stroke-linejoin="round" stroke-miterlimit="10" stroke-width="2"/><line id="line2" x1="36" x2="36" y1="8.112" y2="63.89" fill="none" stroke="#000" stroke-linecap="round" stroke-linejoin="round" stroke-miterlimit="10" stroke-width="2"/><line id="line3" x1="55.72" x2="16.28" y1="16.28" y2="55.72" fill="none" stroke="#000" stroke-linecap="round" stroke-linejoin="round" stroke-miterlimit="10" stroke-width="2"/><line id="line4" x1="55.72" x2="16.28" y1="55.72" y2="16.28" fill="none" stroke="#000" stroke-linecap="round" stroke-linejoin="round" stroke-miterlimit="10" stroke-width="2"/><path id="path4" fill="none" stroke="#000" stroke-linecap="round" stroke-linejoin="round" stroke-miterlimit="10" stroke-width="2" d="m 36.14,55.88 c 0,0 -6.289,-6.553 -14.69,-5.373 0,0 0.1913,-9.123 -5.838,-14.25 0,0 6.442,-6.65 5.997,-14.67 0,0 9.38,-0.112 14.32,-6.1 0,0 6.289,6.553 14.31,6.108 0,0 0.112,9.38 6.214,14.68 0,0 -6.44,6.649 -5.995,14.09 0,0 -9.38,-0.469 -14.32,5.519 z"/><path id="path5" fill="none" stroke="#000" stroke-linecap="round" stroke-linejoin="round" stroke-miterlimit="10" stroke-width="2" d="m 49.25,35.48 c 0,0 -3.624,4.594 -3.49,9.856 0,0 -6.702,0.5071 -10.04,3.803 0,0 -3.846,-3.97 -9.214,-3.803 0,0 -0.9087,-6.074 -4.256,-9.612 0,0 4.338,-4.547 4.091,-9.856 0,0 6.501,-0.1241 10.12,-4.052 0,0 3.352,4.093 9.297,4.052 0,0 0.1421,6.365 3.49,9.612 z"/></g></svg>