<svg xmlns="http://www.w3.org/2000/svg" xmlns:svg="http://www.w3.org/2000/svg" id="emoji" width="67.385" height="29.33" version="1.1" viewBox="0 0 67.385 29.33"><g id="color" transform="translate(-2.4317,-17.89709)"><path id="path1" fill="#3f3f3f" stroke="#3f3f3f" stroke-miterlimit="10" d="m 36.1871,33.1543 c 1.0309,-0.1557 2.3936,-0.355 3.1719,3.5553 0.5088,2.5561 2.4518,2.3815 3.5921,4.0059 2.3054,3.2843 7.0505,5.5111 11.3652,5.5111 6.9036,0 12.5,-5.5964 12.5,-12.5 l 0.105,-4.9141 1.895,0.0501 v -4.1273 c 0,0 -18.9318,-16.1788 -29.4804,5.3212 H 36.3547 35.8932 32.912 C 22.3634,8.5565 3.4316,24.7353 3.4316,24.7353 v 4.1273 l 1.895,-0.0501 0.105,4.9141 c 0,6.9036 5.5964,12.5 12.5,12.5 4.3147,0 9.1189,-2.1861 11.3652,-5.5111"/><path id="path2" fill="#3f3f3f" stroke="#3f3f3f" stroke-miterlimit="10" d="m 36.1871,33.1543 c 1.0309,-0.1557 2.3936,-0.355 3.1719,3.5553 0.5088,2.5561 2.4518,2.3815 3.5921,4.0059 2.3054,3.2843 7.0505,5.5111 11.3652,5.5111"/><path id="path3" fill="#3f3f3f" stroke="#3f3f3f" stroke-miterlimit="10" d="m 18.2602,45.9046 c 4.3147,0 9.0598,-2.2268 11.3652,-5.5111 1.1402,-1.6244 2.2768,-1.3775 3.6757,-3.6507 0.2905,-0.4721 -3.6316,-4.9026 3.0884,-3.9105"/></g><g id="line" transform="translate(-2.4317,-17.89709)"><path id="path4" fill="none" stroke="#000" stroke-linecap="round" stroke-linejoin="round" stroke-miterlimit="10" stroke-width="2" d="m 29.2969,40.7155 c -2.2463,3.325 -7.0505,5.5111 -11.3652,5.5111 -6.9036,0 -12.5,-5.5964 -12.5,-12.5 l -0.105,-4.9141 -1.895,0.0501 v -4.1273 c 0,0 18.9318,-16.1788 29.4804,5.3212 h 2.9812 0.4615 2.9812 c 10.5486,-21.5 29.4804,-5.3212 29.4804,-5.3212 v 4.1273 l -1.895,-0.0501 -0.105,4.9141 c 0,6.9036 -5.5964,12.5 -12.5,12.5 -4.3147,0 -9.1189,-2.1861 -11.3652,-5.5111"/><path id="path5" fill="none" stroke="#000" stroke-linecap="round" stroke-linejoin="round" stroke-miterlimit="10" stroke-width="2" d="m 33.359,36.7096 c 0,-1.6569 1.3431,-3 3,-3 1.6569,0 3,1.3431 3,3"/><circle id="circle5" cx="18.364" cy="32.561" r="9.58" fill="none" stroke="#000" stroke-linecap="round" stroke-linejoin="round" stroke-miterlimit="10" stroke-width="2"/><circle id="circle6" cx="53.884" cy="32.561" r="9.58" fill="none" stroke="#000" stroke-linecap="round" stroke-linejoin="round" stroke-miterlimit="10" stroke-width="2"/></g></svg>