<svg xmlns="http://www.w3.org/2000/svg" xmlns:svg="http://www.w3.org/2000/svg" id="emoji" width="45.059" height="53.695" version="1.1" viewBox="0 0 45.059 53.695"><g id="color" transform="translate(-14.706101,-6.276)"><path id="path1" fill="#a57939" d="m 53.43,58.2881 c 0,0 3.66,-12.2183 -10.084,-13 -3.0654,1.8493 -5.6916,3.1273 -8.6435,3.1218 h 0.12 c -2.9519,0.0055 -5.578,-1.2725 -8.6435,-3.1218 -11.5246,0 -9.6038,13 -9.6038,13"/><polygon id="polygon1" fill="#d0cfce" points="31.609 51.405 28.609 47.97 40.122 47.97 37.662 51.353 37.662 58.919 31.609 58.919"/><path id="path2" fill="#6a462f" d="m 43.771,44.4809 -5.89,7.35 c 5.97,-4.93 6.33,4.28 6.33,4.28 l 8.93,-7.08 c -1.24,-2.76 -3.81,-5.19 -9,-5.19 -0.19,0.12 -0.37,0.24 -0.55,0.36 z"/><path id="path3" fill="#6a462f" d="m 25.8458,44.54 5.89,7.35 c -5.97,-4.93 -6.33,3.48 -6.33,3.48 L 17.2158,49 h -0.01 c 1.36,-2.45 3.92,-4.46 8.64,-4.46 z"/><circle id="circle3" cx="53.765" cy="45.506" r="5" fill="#d0cfce"/><path id="path4" fill="#fff" d="m 53.7959,40.2042 3.6824,6.5849 a 2.7938,2.7938 0 0 1 -1.0754,3.8023 l -0.18,0.1006 -5.0459,-9.0234"/><path id="path5" fill="#a57939" d="m 24.8858,22.07 c -0.55,-0.18 -0.84,-0.82 -1.17,-1.25 a 9.0545,9.0545 0 0 1 2.54,-2.31 c 0.02,-0.01 0.05,-0.03 0.07,-0.04 a 15.1817,15.1817 0 0 1 8.41,-1.89 15.1817,15.1817 0 0 1 8.41,1.89 c 0.02,0.01 0.05,0.03 0.07,0.04 a 9.0545,9.0545 0 0 1 2.54,2.31 c -0.35,0.46 -0.65,1.15 -1.27,1.28 a 44.8079,44.8079 0 0 1 -9.51,0.9 h -0.48 a 44.8706,44.8706 0 0 1 -9.51,-0.9 c -0.04,-0.01 -0.07,-0.02 -0.1,-0.03 z"/><path id="path6" fill="#a57939" d="m 43.2758,18.406 -0.06,0.09 c -0.02,-0.01 -0.05,-0.03 -0.07,-0.04 a 15.1817,15.1817 0 0 0 -8.41,-1.89 15.1817,15.1817 0 0 0 -8.41,1.89 c -0.02,0.01 -0.05,0.03 -0.07,0.04 l -0.06,-0.09 c 1.76,-4.76 6.05,-9.05 8.54,-9.71 2.49,0.66 6.78,4.95 8.54,9.71 z"/><path id="path7" fill="#6a462f" d="m 34.7358,8.47 c 13.63,1.52 13.4,11 11.15,15.53 h -0.01 a 16.8263,16.8263 0 0 0 -0.59,-1.94 l -0.8,-0.2 c 0.62,-0.13 0.92,-0.82 1.27,-1.28 a 9.0545,9.0545 0 0 0 -2.54,-2.31 l 0.06,-0.09 c -1.76,-4.76 -6.05,-9.05 -8.54,-9.71 z"/><path id="path8" fill="#6a462f" d="m 34.7358,8.47 c -2.49,0.66 -6.78,4.95 -8.54,9.71 l 0.06,0.09 a 9.0545,9.0545 0 0 0 -2.54,2.31 c 0.33,0.43 0.62,1.07 1.17,1.25 a 16.0465,16.0465 0 0 0 -0.86,2.93 c -2.61,-4.13 -3.73,-14.68 10.71,-16.29 z"/></g><g id="skin" transform="translate(-14.706101,-6.276)"><g id="skin-2"><path id="path9" fill="#6a462f" d="m 46.03,25.01 a 17.6438,17.6438 0 0 1 0.32,3.36 c 0,7.83 -5.08,14.18 -11.34,14.18 -6.26,0 -11.34,-6.35 -11.34,-14.18 A 16.7949,16.7949 0 0 1 24,25.01 V 25 a 16.0465,16.0465 0 0 1 0.86,-2.93 c 0.03,0.01 0.06,0.02 0.1,0.03 a 44.8706,44.8706 0 0 0 9.51,0.9 h 0.48 a 44.8079,44.8079 0 0 0 9.51,-0.9 l 0.8,0.2 a 16.8263,16.8263 0 0 1 0.59,1.94 c 0.07,0.25 0.13,0.51 0.18,0.77 z m -5.02,2 a 2,2 0 1 0 -2,2 2.0059,2.0059 0 0 0 2,-2 z m -2.55,9.15 a 0.9982,0.9982 0 0 0 0.44,-1.34 0.9879,0.9879 0 0 0 -1.34,-0.45 5.3632,5.3632 0 0 1 -5.1,0 0.9879,0.9879 0 0 0 -1.34,0.45 0.9982,0.9982 0 0 0 0.44,1.34 7.35,7.35 0 0 0 6.9,0 z m -5.45,-9.15 a 2,2 0 1 0 -2,2 2.0059,2.0059 0 0 0 2,-2 z"/></g></g><g id="line" transform="translate(-14.706101,-6.276)"><g id="line-2"><path id="path10" d="m 53.7275,58.8516 a 0.9962,0.9962 0 0 1 -0.99,-1.1495 15.384,15.384 0 0 0 0.082,-2.8984 1,1 0 1 1 1.9961,-0.123 17.1075,17.1075 0 0 1 -0.1015,3.3232 0.9992,0.9992 0 0 1 -0.9866,0.8477 z"/><path id="path11" d="m 48.6152,59.9707 a 1,1 0 0 1 -0.9336,-1.3574 l 3.3643,-8.7988 a 1,1 0 0 1 1.8672,0.7148 l -3.3643,8.7988 a 0.9979,0.9979 0 0 1 -0.9336,0.6426 z"/><path id="path12" d="m 39.0358,24.996 a 2,2 0 1 1 -2,2 2.0059,2.0059 0 0 1 2,-2 z"/><path id="path13" d="m 38.9258,34.806 a 0.9982,0.9982 0 0 1 -0.44,1.34 7.35,7.35 0 0 1 -6.9,0 0.9982,0.9982 0 0 1 -0.44,-1.34 0.9879,0.9879 0 0 1 1.34,-0.45 5.3632,5.3632 0 0 0 5.1,0 0.9879,0.9879 0 0 1 1.34,0.45 z"/><path id="path14" d="m 31.0358,24.996 a 2,2 0 1 1 -2,2 2.0059,2.0059 0 0 1 2,-2 z"/><path id="path15" fill="none" stroke="#000" stroke-linecap="round" stroke-linejoin="round" stroke-width="2" d="m 24.0258,24.986 a 16.0465,16.0465 0 0 1 0.86,-2.93 v -0.01"/><path id="path16" fill="none" stroke="#000" stroke-linecap="round" stroke-linejoin="round" stroke-width="2" d="m 45.2858,22.286 a 16.8263,16.8263 0 0 1 0.59,1.94 c 0.07,0.25 0.13,0.51 0.18,0.77 a 17.6438,17.6438 0 0 1 0.32,3.36 c 0,7.83 -5.08,14.18 -11.34,14.18 -6.26,0 -11.34,-6.35 -11.34,-14.18 a 16.7949,16.7949 0 0 1 0.33,-3.36"/><path id="path17" fill="none" stroke="#000" stroke-linecap="round" stroke-linejoin="round" stroke-width="2" d="m 34.7358,16.566 a 15.1817,15.1817 0 0 0 -8.41,1.89 c -0.02,0.01 -0.05,0.03 -0.07,0.04 a 9.0545,9.0545 0 0 0 -2.54,2.31 c 0.33,0.43 0.62,1.07 1.17,1.25 0.03,0.01 0.06,0.02 0.1,0.03 a 44.8706,44.8706 0 0 0 9.51,0.9"/><path id="path18" fill="none" stroke="#000" stroke-linecap="round" stroke-linejoin="round" stroke-width="2" d="m 26.1958,18.406 c 1.76,-4.76 6.05,-9.05 8.54,-9.71 -14.44,1.61 -13.32,12.16 -10.71,16.29 v 0.01"/><path id="path19" fill="none" stroke="#000" stroke-linecap="round" stroke-linejoin="round" stroke-width="2" d="m 34.7358,16.566 a 15.1817,15.1817 0 0 1 8.41,1.89 c 0.02,0.01 0.05,0.03 0.07,0.04 a 9.0545,9.0545 0 0 1 2.54,2.31 c -0.35,0.46 -0.65,1.15 -1.27,1.28 a 44.8079,44.8079 0 0 1 -9.51,0.9"/><path id="path20" fill="none" stroke="#000" stroke-linecap="round" stroke-linejoin="round" stroke-width="2" d="m 43.2758,18.406 c -1.76,-4.76 -6.05,-9.05 -8.54,-9.71 13.63,1.52 13.4,11 11.15,15.53"/><line id="line20" x1="34.736" x2="34.736" y1="8.696" y2="7.276" fill="none" stroke="#000" stroke-linecap="round" stroke-linejoin="round" stroke-width="2"/><path id="path21" d="m 37.5986,58.9707 a 1,1 0 0 1 -1,-1 v -5.7676 a 1,1 0 0 1 0.3633,-0.7715 c 1.9912,-1.6425 3.7324,-2.1494 5.1768,-1.5078 1.542,0.6856 2.2334,2.4971 2.5429,3.9073 l 2.3536,-1.8282 a 0.9994,0.9994 0 0 1 1.2265,1.5782 l -3.7187,2.8906 a 1,1 0 0 1 -1.6123,-0.7442 c -0.05,-1.0879 -0.5088,-3.49 -1.6055,-3.9765 -0.6113,-0.2686 -1.5684,0.0605 -2.7266,0.9355 v 5.2842 a 0.9994,0.9994 0 0 1 -1,1 z"/><path id="path22" fill="none" stroke="#000" stroke-linecap="round" stroke-linejoin="round" stroke-width="2" d="m 45.4358,45.026 a 8.1174,8.1174 0 0 0 -1.71,-0.17 c -3.15,2.09 -5.86,3.55 -8.88,3.59 h -0.12 c -3.02,-0.04 -5.72,-1.5 -8.88,-3.59 -4.72,0 -7.28,2.01 -8.64,4.46 -2.1,3.76 -1.36,8.54 -1.36,8.54"/><path id="path23" fill="none" stroke="#000" stroke-linecap="round" stroke-linejoin="round" stroke-width="2" d="m 31.7358,57.966 v -5.76 c -5.97,-4.93 -6.33,3.48 -6.33,3.48 l -8.19,-6.37"/><line id="line23" x1="31.736" x2="25.846" y1="52.206" y2="44.856" fill="none" stroke="#000" stroke-linecap="round" stroke-linejoin="round" stroke-width="2"/><path id="path24" d="m 37.5977,53.2031 a 1,1 0 0 1 -0.7676,-1.6406 l 6.1269,-7.3506 a 1.0006,1.0006 0 0 1 1.5371,1.2813 l -6.1269,7.3506 a 0.9989,0.9989 0 0 1 -0.7695,0.3593 z"/><path id="path25" d="m 53.7588,51.502 a 6,6 0 1 1 5.61,-3.8565 5.9581,5.9581 0 0 1 -5.61,3.8565 z M 53.7627,41.5 A 4.01,4.01 0 1 0 55.1934,41.7656 4.0023,4.0023 0 0 0 53.7627,41.5 Z"/></g><path id="path26" fill="none" stroke="#000" stroke-linecap="round" stroke-linejoin="round" stroke-width="1.6" d="m 35,32 c 0,0 1.2,-2 3.6,0 a 2.3614,2.3614 0 0 0 1.3875,0.6875"/><path id="path27" fill="none" stroke="#000" stroke-linecap="round" stroke-linejoin="round" stroke-width="1.6" d="m 34.9875,32 c 0,0 -1.2,-2 -3.6,0 A 2.3614,2.3614 0 0 1 30,32.6875"/></g></svg>