<svg xmlns="http://www.w3.org/2000/svg" xmlns:svg="http://www.w3.org/2000/svg" id="emoji" width="18.072" height="55.073" version="1.1" viewBox="0 0 18.072 55.073"><g id="skin" transform="translate(-25.283099,-6.4116001)"><path id="path1" fill="#debb90" d="m 27.0742,36.74 2.4513,-1.7495 -0.5965,18.4923 a 1.0317,1.0317 0 0 0 0.2089,0.7344 0.1978,0.1978 0 0 0 0.127,0.0752 c 0.1788,0 1.8029,-0.21 1.869,-0.7937 l 2.0452,-18.9231 c 0.041,-0.3517 1.4212,-1.6935 1.4212,-1.6935 a 7.2121,7.2121 0 0 1 1.1162,1.6409 L 37.84,53.3508 c 0.066,0.5831 0.4362,0.94 0.6149,0.94 0.05,-0.0075 1.8064,-0.305 1.78,-0.5681 l -1.5691,-18.7577 3.0286,2.1221 a 4.591,4.591 0 0 1 0.1087,-0.7085 L 40.9776,19.6546 C 40.8815,17.7338 38.2464,16.7012 36.3665,16.6828 H 31.3536 A 3.5927,3.5927 0 0 0 27.837,20.1342 L 27.1753,36.3753 A 0.8406,0.8406 0 0 1 27.0742,36.74 Z"/><circle id="circle1" cx="33.927" cy="10.412" r="2.481" fill="#debb90"/></g><g id="line" transform="translate(-25.283099,-6.4116001)"><path id="path2" fill="none" stroke="#000" stroke-linecap="round" stroke-linejoin="round" stroke-width="2.28" d="m 34.3181,19.3794 v 9.4444"/><circle id="circle2" cx="34.319" cy="10.412" r="3" fill="none" stroke="#000" stroke-miterlimit="10" stroke-width="2"/><path id="path3" fill="none" stroke="#000" stroke-linecap="round" stroke-linejoin="round" stroke-width="2" d="M 38.4944,21.2212 40.0818,52.97 c 0.046,0.919 -0.48,1.671 -1.17,1.671 a 1.7343,1.7343 0 0 1 -1.4446,-1.66 L 35.3438,34.574 c -0.1078,-0.9132 -0.5673,-1.66 -1.0268,-1.66 -0.4595,0 -0.9216,0.7469 -1.0268,1.66 l -2.1214,18.4067 a 1.7351,1.7351 0 0 1 -1.4445,1.66 c -0.6893,0 -1.2157,-0.752 -1.17,-1.671 L 30.142,21.2212"/><path id="path4" fill="none" stroke="#000" stroke-linecap="round" stroke-linejoin="round" stroke-width="2" d="m 26.6619,36.26 0.6617,-15.8743 a 4.4057,4.4057 0 0 1 4.3512,-4.1775 h 5.0129 a 4.4064,4.4064 0 0 1 4.3513,4.1775 l 0.9365,16.1935"/><ellipse id="ellipse4" cx="34.319" cy="59.411" stroke="#000" stroke-linecap="round" stroke-linejoin="round" stroke-width="1.56" rx="8.256" ry="1.294"/></g></svg>