<svg xmlns="http://www.w3.org/2000/svg" xmlns:svg="http://www.w3.org/2000/svg" id="emoji" width="47.992" height="49.12" version="1.1" viewBox="0 0 47.992 49.12"><g id="color" transform="translate(-13.465,-12.226787)"><polygon id="polygon1" fill="#9b9b9a" points="18.314 58.185 16.615 56.386 18.637 51.107 23.673 56.143"/><path id="path1" fill="#d0cfce" stroke="#d0cfce" stroke-miterlimit="10" stroke-width="2" d="m 18.033,59.0699 c 7.3107,-1.7183 14.4552,-7.1937 18.0334,-10.0996 5.2841,-4.2911 15.6814,-15.0196 22.0242,-21.6934 2.9813,-3.137 3.1752,-7.8102 0.4421,-10.5434 v 0 c 0,0 -0.4873,-0.4873 -0.4873,-0.4873 v 0 c -2.7332,-2.7333 -7.4063,-2.5395 -10.5434,0.4419 -6.6738,6.3428 -17.4023,16.7401 -21.6934,22.0243 -2.7631,3.4024 -7.8498,10.0295 -9.8201,16.9581 -0.1883,0.662 0.0198,1.3745 0.5065,1.8612 l 1.5382,1.5382"/></g><g id="line" transform="translate(-13.465,-12.226787)"><line id="line1" x1="16.888" x2="14.465" y1="57.924" y2="60.347" fill="none" stroke="#000" stroke-linecap="round" stroke-linejoin="round" stroke-width="2"/><line id="line2" x1="47.915" x2="57.566" y1="17.153" y2="26.803" fill="none" stroke="#000" stroke-linecap="round" stroke-linejoin="round" stroke-width="2"/><path id="path2" fill="none" stroke="#000" stroke-linecap="round" stroke-linejoin="round" stroke-width="2" d="m 44.7513,14.022 v 0 C 43.5949,12.8657 41.608,12.9779 40.3132,14.2727 L 27.8096,26.7763"/><path id="path3" fill="none" stroke="#000" stroke-linecap="round" stroke-linejoin="round" stroke-width="2" d="m 18.033,59.0699 c 7.3107,-1.7183 14.4552,-7.1937 18.0334,-10.0996 5.2841,-4.2911 15.6814,-15.0196 22.0242,-21.6934 2.9813,-3.137 3.1752,-7.8102 0.4421,-10.5434 v 0 c 0,0 -0.4873,-0.4873 -0.4873,-0.4873 v 0 C 55.3122,13.5129 50.6391,13.7067 47.502,16.6881 40.8282,23.0309 30.0997,33.4282 25.8086,38.7124 22.9028,42.2905 17.4273,49.4349 15.709,56.7457 l 2.3242,2.3242"/><line id="line3" x1="24.474" x2="18.788" y1="55.747" y2="50.061" fill="none" stroke="#000" stroke-linecap="round" stroke-linejoin="round" stroke-width="1.961"/></g></svg>