<?xml version="1.0" encoding="UTF-8" standalone="no"?>
<svg
   id="emoji"
   viewBox="0 0 60.19672 66.194084"
   version="1.1"
   sodipodi:docname="1f596.svg"
   width="60.19672"
   height="66.194084"
   xmlns:inkscape="http://www.inkscape.org/namespaces/inkscape"
   xmlns:sodipodi="http://sodipodi.sourceforge.net/DTD/sodipodi-0.dtd"
   xmlns="http://www.w3.org/2000/svg"
   xmlns:svg="http://www.w3.org/2000/svg">
  <defs
     id="defs3" />
  <sodipodi:namedview
     id="namedview3"
     pagecolor="#ffffff"
     bordercolor="#000000"
     borderopacity="0.25"
     inkscape:showpageshadow="2"
     inkscape:pageopacity="0.0"
     inkscape:pagecheckerboard="0"
     inkscape:deskcolor="#d1d1d1" />
  <g
     id="hair"
     transform="translate(-5.9146272,-2.9047941)" />
  <g
     id="skin"
     transform="translate(-5.9146272,-2.9047941)">
    <path
       fill="#fcea2b"
       d="m 39.8217,32.5222 4.0087,-21.643 C 45.639,3.1291 38.1374,0.8651 36.2152,9.1021 l -3.6586,19.2358 c -0.7941,3.5808 -1.8856,5.1414 -3.2721,5.7653 v 0 c -2.3799,1.0711 -4.5703,-2.4069 -5.5939,-4.8077 L 18.3979,16.8825 C 15.1617,9.8543 8.656,13.151 11.2603,19.6254 l 7.2784,16.5182 -1.2882,-2.9677 -3.1633,-7.2934 c -2.7812,-5.8647 -8.75,-3.521 -6.8125,2.2915 0,0 4.3337,10.6624 5.6042,14.2813 1.6565,4.7184 3.351,14.8214 5.9365,19.1019 5.6263,9.3151 20.6085,8.1089 27.8661,0 2.0403,-2.2795 5.6369,-7.247 7.6442,-9.5556 2.7887,-3.2074 10.0855,-11.5349 10.0855,-11.5349 1.4629,-2.1582 0.3282,-5.4939 -0.8007,-4.6726 l -14.6899,5.3904 c -1.0085,0.339 -1.6661,-0.4599 -2.0902,-1.096 -0.3091,-0.4636 0.0883,-2.0531 0.2066,-2.7705 1.3997,-7.8137 2.7993,-15.6273 4.199,-23.441 1.195,-5.9529 -6.1175,-8.1404 -7.5747,-2.0134"
       id="path1" />
  </g>
  <g
     id="skin-shadow"
     transform="translate(-5.9146272,-2.9047941)" />
  <g
     id="color"
     transform="translate(-5.9146272,-2.9047941)" />
  <g
     id="line"
     transform="translate(-5.9146272,-2.9047941)">
    <path
       fill="none"
       stroke="#000000"
       stroke-linecap="round"
       stroke-linejoin="round"
       stroke-width="2"
       d="m 39.8217,32.5222 4.0087,-21.643 C 45.639,3.1291 38.1374,0.8651 36.2152,9.1021 l -3.6586,19.2358 c -0.7941,3.5808 -1.8856,5.1414 -3.2721,5.7653 v 0 c -2.3799,1.0711 -4.5703,-2.4069 -5.5939,-4.8077 L 18.3979,16.8825 C 15.1617,9.8543 8.656,13.151 11.2603,19.6254 l 7.2784,16.5182 -1.2882,-2.9677 -3.1633,-7.2934 c -2.7812,-5.8647 -8.75,-3.521 -6.8125,2.2915 0,0 4.3337,10.6624 5.6042,14.2813 1.6565,4.7184 3.351,14.8214 5.9365,19.1019 5.6263,9.3151 20.6085,8.1089 27.8661,0 2.0403,-2.2795 5.6369,-7.247 7.6442,-9.5556 2.7887,-3.2074 10.0855,-11.5349 10.0855,-11.5349 1.4629,-2.1582 0.3282,-5.4939 -0.8007,-4.6726 l -14.6899,5.3904 c -1.0085,0.339 -1.6661,-0.4599 -2.0902,-1.096 -0.3091,-0.4636 0.0883,-2.0531 0.2066,-2.7705 1.3997,-7.8137 2.7993,-15.6273 4.199,-23.441 1.195,-5.9529 -6.1175,-8.1404 -7.5747,-2.0134"
       id="path2" />
    <path
       fill="none"
       stroke="#000000"
       stroke-linecap="round"
       stroke-linejoin="round"
       stroke-width="2"
       d="m 39.8217,32.5222 4.0087,-21.643 C 45.639,3.1291 38.1374,0.8651 36.2152,9.1021 l -3.6586,19.2358 c -0.7941,3.5808 -1.8856,5.1414 -3.2721,5.7653 v 0 c -2.3799,1.0711 -4.5703,-2.4069 -5.5939,-4.8077 L 18.3979,16.8825 C 15.1617,9.8543 8.656,13.151 11.2603,19.6254 l 7.2784,16.5182 -1.2882,-2.9677 -3.1633,-7.2934 c -2.7812,-5.8647 -8.75,-3.521 -6.8125,2.2915 0,0 4.3337,10.6624 5.6042,14.2813 1.6565,4.7184 3.351,14.8214 5.9365,19.1019 5.6263,9.3151 20.6085,8.1089 27.8661,0 2.0403,-2.2795 5.6369,-7.247 7.6442,-9.5556 2.7887,-3.2074 10.0855,-11.5349 10.0855,-11.5349 1.4629,-2.1582 0.3282,-5.4939 -0.8007,-4.6726 l -14.6899,5.3904 c -1.0085,0.339 -1.6661,-0.4599 -2.0902,-1.096 -0.3091,-0.4636 0.0883,-2.0531 0.2066,-2.7705 1.3997,-7.8137 2.7993,-15.6273 4.199,-23.441 1.195,-5.9529 -6.1175,-8.1404 -7.5747,-2.0134"
       id="path3" />
  </g>
</svg>
