<?xml version="1.0" encoding="UTF-8" standalone="no"?>
<svg
   id="emoji"
   viewBox="0 0 66.111 59.041599"
   version="1.1"
   sodipodi:docname="1f5a5.svg"
   width="66.111"
   height="59.041599"
   xmlns:inkscape="http://www.inkscape.org/namespaces/inkscape"
   xmlns:sodipodi="http://sodipodi.sourceforge.net/DTD/sodipodi-0.dtd"
   xmlns="http://www.w3.org/2000/svg"
   xmlns:svg="http://www.w3.org/2000/svg">
  <defs
     id="defs8" />
  <sodipodi:namedview
     id="namedview8"
     pagecolor="#ffffff"
     bordercolor="#000000"
     borderopacity="0.25"
     inkscape:showpageshadow="2"
     inkscape:pageopacity="0.0"
     inkscape:pagecheckerboard="0"
     inkscape:deskcolor="#d1d1d1" />
  <g
     id="color"
     transform="translate(-3.1577,-9.9584)">
    <path
       fill="#d0cfce"
       d="m 44.1833,60.9583 c 0,4.9583 7.8401,7.0417 7.8401,7.0417 H 20.4029 c 0,0 7.8401,-2.0833 7.8401,-7.0417 v -4.9336 h 15.7785 z"
       id="path1" />
    <path
       fill="#9b9b9a"
       d="M 63.1941,56 H 9.2323 C 6.4297,56 4.1577,53.728 4.1577,50.9254 V 16.033 c 0,-2.8026 2.272,-5.0746 5.0746,-5.0746 h 53.9618 c 2.8026,0 5.0746,2.272 5.0746,5.0746 V 50.9254 C 68.2687,53.728 65.9967,56 63.1941,56 Z"
       id="path2" />
    <path
       fill="#ffffff"
       d="M 67.5469,46.7214 4.2132,24.2006 V 14.743 c 0,-1.8455 1.827,-3.135 3.5659,-2.5167 l 59.7678,21.2528 z"
       id="path3" />
    <path
       fill="#d0cfce"
       d="m 68.2687,47.5629 c 0,0 0.2122,4.1442 -1.5499,6.0805 -0.359,0.3945 -2.6448,1.8549 -3.5247,1.8535 l -53.9618,0.5 c -2.8026,0 -4.164,-1.852 -4.164,-2.4434 L 4.1577,47.5629"
       id="path4" />
  </g>
  <g
     id="line"
     transform="translate(-3.1577,-9.9584)">
    <path
       fill="none"
       stroke="#000000"
       stroke-linecap="round"
       stroke-linejoin="round"
       stroke-width="2"
       d="M 63.1941,56 H 9.2323 C 6.4297,56 4.1577,53.728 4.1577,50.9254 V 16.033 c 0,-2.8026 2.272,-5.0746 5.0746,-5.0746 h 53.9618 c 2.8026,0 5.0746,2.272 5.0746,5.0746 V 50.9254 C 68.2687,53.728 65.9967,56 63.1941,56 Z"
       id="path5" />
    <path
       fill="none"
       stroke="#000000"
       stroke-linecap="round"
       stroke-linejoin="round"
       stroke-width="0.9187"
       d="m 63.1941,55.2469 -53.9618,0.75 c -2.8026,0 -4.164,-1.852 -4.164,-2.4434 L 4.1577,47.5629"
       id="path6" />
    <path
       fill="none"
       stroke="#000000"
       stroke-linecap="round"
       stroke-linejoin="round"
       stroke-width="2"
       d="M 63.1941,55.5 9.2323,56 C 6.4297,56 4.1577,53.728 4.1577,50.9254 V 16.033 c 0,-2.8026 2.272,-5.0746 5.0746,-5.0746 h 53.9618 c 2.8026,0 5.0746,2.272 5.0746,5.0746 l -0.5,34.8924 c 0,2.8026 -1.772,4.5746 -4.5746,4.5746 z"
       id="path7" />
    <line
       x1="7.2132001"
       x2="65.213203"
       y1="48.492401"
       y2="48.492401"
       fill="none"
       stroke="#000000"
       stroke-linecap="round"
       stroke-linejoin="round"
       stroke-width="2"
       id="line7" />
    <path
       fill="none"
       stroke="#000000"
       stroke-linecap="round"
       stroke-linejoin="round"
       stroke-width="2"
       d="m 43.1833,60.9583 c 0,4.9583 8.8401,7.0417 8.8401,7.0417 H 20.4029 c 0,0 8.8401,-2.0833 8.8401,-7.0417"
       id="path8" />
  </g>
</svg>
