<?xml version="1.0" encoding="UTF-8" standalone="no"?>
<svg
   id="emoji"
   viewBox="0 0 66 65.007698"
   version="1.1"
   sodipodi:docname="1f5a8.svg"
   width="66"
   height="65.007698"
   xmlns:inkscape="http://www.inkscape.org/namespaces/inkscape"
   xmlns:sodipodi="http://sodipodi.sourceforge.net/DTD/sodipodi-0.dtd"
   xmlns="http://www.w3.org/2000/svg"
   xmlns:svg="http://www.w3.org/2000/svg">
  <defs
     id="defs12" />
  <sodipodi:namedview
     id="namedview12"
     pagecolor="#ffffff"
     bordercolor="#000000"
     borderopacity="0.25"
     inkscape:showpageshadow="2"
     inkscape:pageopacity="0.0"
     inkscape:pagecheckerboard="0"
     inkscape:deskcolor="#d1d1d1" />
  <g
     id="color"
     transform="translate(-3.5,-3.9923)">
    <polygon
       fill="#9b9b9a"
       stroke="none"
       points="68.5,15.9286 4.5,15.9286 4.5,57.0387 16.4998,57.0387 56.5,57.0387 68.5,57.0387 "
       id="polygon1" />
    <polyline
       fill="#9b9b9a"
       stroke="none"
       points="16.4998,56 4.5,56 4.5,15.9286 68.5,15.9286 68.5,56 56.5,56"
       id="polyline1" />
    <rect
       x="5.3926001"
       y="15.9286"
       width="7.1410999"
       height="40.0714"
       fill="#d0cfce"
       stroke="none"
       id="rect1" />
    <rect
       x="60.135899"
       y="15.9286"
       width="7.9177999"
       height="40.0714"
       fill="#d0cfce"
       stroke="none"
       id="rect2" />
    <polyline
       fill="#d0cfce"
       stroke="none"
       points="15.5006,15.4123 15.5006,4.9923 57.4994,4.9923 57.4994,15.9286"
       id="polyline2" />
    <polyline
       fill="#d0cfce"
       stroke="none"
       stroke-linecap="round"
       stroke-linejoin="round"
       stroke-miterlimit="10"
       stroke-width="2"
       points="16.5,12.5029 16.5,4.9923 56.5,4.9923 56.5,12.8751"
       id="polyline3" />
    <polyline
       fill="#3f3f3f"
       stroke="none"
       points="52.5398,44.4334 52.5398,68 20.4602,68 20.4602,44.4334"
       id="polyline4" />
    <polyline
       fill="#3f3f3f"
       stroke="none"
       stroke-linecap="round"
       stroke-linejoin="round"
       stroke-miterlimit="10"
       stroke-width="2"
       points="51.5857,50.5871 51.5857,68 21.4143,68 21.4143,50.5871"
       id="polyline5" />
    <line
       x1="61.145401"
       x2="61.145401"
       y1="20.335199"
       y2="52.285099"
       fill="#ffffff"
       stroke="none"
       stroke-linecap="round"
       stroke-linejoin="round"
       stroke-miterlimit="10"
       stroke-width="2"
       id="line5" />
    <polyline
       fill="#ffffff"
       stroke="none"
       stroke-linecap="round"
       stroke-linejoin="round"
       stroke-miterlimit="10"
       stroke-width="2"
       points="46.7833,44.4525 46.7833,63.7559 26.2167,63.7559 26.2167,44.4525"
       id="polyline6" />
    <line
       x1="11.5"
       x2="11.5"
       y1="20.335199"
       y2="52.285099"
       fill="#ffffff"
       stroke="none"
       stroke-linecap="round"
       stroke-linejoin="round"
       stroke-miterlimit="10"
       stroke-width="2"
       id="line6" />
  </g>
  <g
     id="hair"
     transform="translate(-3.5,-3.9923)" />
  <g
     id="skin"
     transform="translate(-3.5,-3.9923)" />
  <g
     id="skin-shadow"
     transform="translate(-3.5,-3.9923)" />
  <g
     id="line"
     transform="translate(-3.5,-3.9923)">
    <polyline
       fill="none"
       stroke="#000000"
       stroke-linecap="round"
       stroke-linejoin="round"
       stroke-miterlimit="10"
       stroke-width="2"
       points="16.5,12.5029 16.5,4.9923 56.5,4.9923 56.5,12.8751"
       id="polyline7" />
    <polyline
       fill="none"
       stroke="#000000"
       stroke-linecap="round"
       stroke-linejoin="round"
       stroke-miterlimit="10"
       stroke-width="2"
       points="51.5857,50.5871 51.5857,68 21.4143,68 21.4143,50.5871"
       id="polyline8" />
    <line
       x1="61.145401"
       x2="61.145401"
       y1="20.335199"
       y2="52.285099"
       fill="none"
       stroke="#000000"
       stroke-linecap="round"
       stroke-linejoin="round"
       stroke-miterlimit="10"
       stroke-width="2"
       id="line8" />
    <polyline
       fill="none"
       stroke="#000000"
       stroke-linecap="round"
       stroke-linejoin="round"
       stroke-miterlimit="10"
       stroke-width="2"
       points="46.7833,44.4525 46.7833,63.7559 26.2167,63.7559 26.2167,44.4525"
       id="polyline9" />
    <line
       x1="29.527599"
       x2="43.472401"
       y1="48.378399"
       y2="48.378399"
       fill="none"
       stroke="#000000"
       stroke-linecap="round"
       stroke-linejoin="round"
       stroke-miterlimit="10"
       stroke-width="2"
       id="line9" />
    <line
       x1="29.527599"
       x2="43.472401"
       y1="53.2052"
       y2="53.2052"
       fill="none"
       stroke="#000000"
       stroke-linecap="round"
       stroke-linejoin="round"
       stroke-miterlimit="10"
       stroke-width="2"
       id="line10" />
    <line
       x1="29.527599"
       x2="43.472401"
       y1="58.504398"
       y2="58.504398"
       fill="none"
       stroke="#000000"
       stroke-linecap="round"
       stroke-linejoin="round"
       stroke-miterlimit="10"
       stroke-width="2"
       id="line11" />
    <line
       x1="11.5"
       x2="11.5"
       y1="20.335199"
       y2="52.285099"
       fill="none"
       stroke="#000000"
       stroke-linecap="round"
       stroke-linejoin="round"
       stroke-miterlimit="10"
       stroke-width="2"
       id="line12" />
    <path
       fill="none"
       stroke="#000000"
       stroke-linecap="round"
       stroke-linejoin="round"
       stroke-miterlimit="10"
       stroke-width="2"
       d="m 16.5,52.2851 v -3.1353 c 0,-2.6048 2.1116,-4.7164 4.7164,-4.7164 h 30.5672 c 2.6048,0 4.7164,2.1116 4.7164,4.7164 v 3.1353"
       id="path12" />
    <polyline
       fill="none"
       stroke="#000000"
       stroke-linecap="round"
       stroke-linejoin="round"
       stroke-miterlimit="10"
       stroke-width="2"
       points="56.5,56 68.5,56 68.5,15.9286 4.5,15.9286 4.5,56 16.4998,56"
       id="polyline12" />
  </g>
</svg>
