<svg xmlns="http://www.w3.org/2000/svg" xmlns:svg="http://www.w3.org/2000/svg" id="emoji" width="32.755" height="50.11" version="1.1" viewBox="0 0 32.755 50.11"><g id="color" transform="translate(-19.625,-10.94)"><path id="path1" fill="#d0cfce" d="m 38.41,11.95 h -4.821 c -7.25,0 -13.18,4.932 -13.18,12.18 v 23.74 c 0,7.25 5.932,12.18 13.18,12.18 h 4.821 c 7.25,0 13.18,-4.932 13.18,-12.18 V 24.13 C 51.5899,16.88 45.658,11.95 38.41,11.95 Z"/><path id="path2" fill="#3f3f3f" d="m 36.15,17.93 h -0.3082 c -1.407,0 -2.558,1.151 -2.558,2.558 v 7.94 c 0,1.407 1.151,2.558 2.558,2.558 H 36.15 c 1.407,0 2.558,-1.151 2.558,-2.558 v -7.94 c 0,-1.407 -1.151,-2.558 -2.558,-2.558 z"/><path id="path3" fill="#9b9b9a" d="m 34.79,12.79 c 3.959,1.699 7.723,4.137 8.161,10.3 0.5077,7.135 -2.133,20.5 -2.982,27.28 -0.5935,4.745 -2.3281,6.4477 -5.4441,8.9377 -1.571,1.256 6.7008,0.6745 10.1818,-1.3614 2.989,-1.747 3.9726,-3.4222 5.7914,-6.5333 l 0.1283,-30.0929 c 0,0 -1.225,-9.075 -11.2,-9.078 0,0 -10.01,-0.5155 -4.635,0.5512 L 34.79,12.7899 Z"/></g><g id="line" transform="translate(-19.625,-10.94)"><path id="path4" fill="none" stroke="#000" stroke-linecap="round" stroke-linejoin="round" stroke-width="2" d="m 36.26,31.12 h -0.5181 c -1.37,0 -2.49,-1.115 -2.49,-2.478 v -8.126 c 0,-1.363 1.121,-2.478 2.49,-2.478 H 36.26 c 1.37,0 2.49,1.115 2.49,2.478 v 8.126 c 0,1.363 -1.121,2.478 -2.49,2.478 z"/><path id="path5" fill="none" stroke="#000" stroke-linecap="round" stroke-linejoin="round" stroke-width="2" d="m 39.61,60.05 h -7.215 c -6.475,0 -11.77,-5.263 -11.77,-11.7 V 23.64 c 0,-6.432 5.298,-11.7 11.77,-11.7 h 7.215 c 6.475,0 11.77,5.263 11.77,11.7 v 24.71 c 0,6.432 -5.298,11.7 -11.77,11.7 z"/></g></svg>