<svg xmlns="http://www.w3.org/2000/svg" xmlns:svg="http://www.w3.org/2000/svg" id="emoji" width="50" height="50" version="1.1" viewBox="0 0 50 50"><g id="color" transform="translate(-11,-11)"><rect id="rect1" width="48" height="48" x="12" y="12" fill="#a57939" stroke="none" stroke-linecap="round" stroke-linejoin="round" stroke-miterlimit="10" stroke-width="2"/><rect id="rect2" width="36" height="36" x="18" y="18" fill="#92d3f5" stroke="none" stroke-linecap="round" stroke-linejoin="round" stroke-miterlimit="10" stroke-width="2"/><circle id="circle2" cx="26" cy="30" r="4" fill="#fcea2b" stroke="none" stroke-linecap="round" stroke-linejoin="round" stroke-miterlimit="10" stroke-width="2"/><path id="path2" fill="#5c9e31" stroke="#5c9e31" stroke-linecap="round" stroke-linejoin="round" stroke-miterlimit="10" stroke-width="2" d="m 50,35 c -2.8958,-0.8542 -6.2795,-7.9886 -8,-8 -4.208,-0.0278 -6.254,5.836 -11,9 -3,2 -3.3745,2.8497 -6,4 -2.2824,1 -3,3 -3.25,3.6406 -0.3031,0.7766 -1.4751,2.5214 -0.9583,3.1094 1.2083,1.375 2.4583,1.5 5,0.7179 2.147,-0.6606 4.9769,-4.8074 6.875,-6.2179 2.2708,-1.6875 4.6458,-2.5 8.0833,-2 2.4795,0.3606 6.66,3.1723 7.8125,3.0625 1.3125,-0.125 -1.5937,-2.5625 -0.5312,-4.1875 1.1327,-1.7325 2.9102,0.1529 3.6354,-1.0833 C 51.9844,36.5 50.632,35.1864 50,35 Z"/></g><g id="line" transform="translate(-11,-11)"><rect id="rect3" width="48" height="48" x="12" y="12" fill="none" stroke="#000" stroke-linecap="round" stroke-linejoin="round" stroke-miterlimit="10" stroke-width="2"/><rect id="rect4" width="36" height="36" x="18" y="18" fill="none" stroke="#000" stroke-linecap="round" stroke-linejoin="round" stroke-miterlimit="10" stroke-width="2"/><circle id="circle4" cx="26" cy="30" r="4" fill="none" stroke="#000" stroke-linecap="round" stroke-linejoin="round" stroke-miterlimit="10" stroke-width="2"/><rect id="rect5" width="36" height="36" x="18" y="18" fill="none" stroke="#000" stroke-linecap="round" stroke-linejoin="round" stroke-miterlimit="10" stroke-width="2"/><path id="path5" fill="none" stroke="#000" stroke-linecap="round" stroke-linejoin="round" stroke-miterlimit="10" stroke-width="2" d="m 22,43 c 0.5259,-1.0198 0.7275,-1.9672 3,-3 2.6096,-1.1859 3,-2 6,-4 4.746,-3.164 6.792,-9.0278 11,-9 1.7205,0.0114 5,7 8,8"/></g></svg>