<?xml version="1.0" encoding="UTF-8" standalone="no"?>
<svg
   id="emoji"
   viewBox="0 0 50.022499 46.671303"
   version="1.1"
   sodipodi:docname="1f5c3.svg"
   width="50.022499"
   height="46.671303"
   xmlns:inkscape="http://www.inkscape.org/namespaces/inkscape"
   xmlns:sodipodi="http://sodipodi.sourceforge.net/DTD/sodipodi-0.dtd"
   xmlns="http://www.w3.org/2000/svg"
   xmlns:svg="http://www.w3.org/2000/svg">
  <defs
     id="defs18" />
  <sodipodi:namedview
     id="namedview18"
     pagecolor="#ffffff"
     bordercolor="#000000"
     borderopacity="0.25"
     inkscape:showpageshadow="2"
     inkscape:pageopacity="0.0"
     inkscape:pagecheckerboard="0"
     inkscape:deskcolor="#d1d1d1" />
  <g
     id="color"
     transform="translate(-10.7263,-14.0026)">
    <path
       fill="#d0cfce"
       stroke="none"
       d="M 11.8799,59.8837 H 59.5337 V 42.6789 H 11.8799 Z"
       id="path1" />
    <path
       fill="#9b9b9a"
       stroke="none"
       d="M 59.6815,21.8342 11.9367,21.738 v 18.5113 l 5.2011,-0.2299 c 1.2388,-0.8432 0.42,-5.6695 0.4861,-5.803 -0.0022,-0.8421 -0.0826,-4.8571 0.0607,-5.1954 0.2868,-0.6767 9.9393,-0.0789 9.935,-0.0607 l 1.3976,4.132 c 0.1213,-0.1646 10.0877,-1.8389 10.0877,-1.8389 0.1342,0 2.8583,5.5594 2.8583,5.5594 0.0507,-0.055 12.5417,2.7334 12.5088,2.8326 l 1.7071,0.1676 3.4293,0.0551 z"
       id="path2" />
    <path
       fill="#d0cfce"
       stroke="none"
       d="m 55.7592,38.8215 c -0.0253,0.0764 -3.9509,-0.8774 -6.2834,-0.8984 -9.4883,-0.0856 -32.1134,0.8027 -32.5203,0.6987 -0.4173,-0.1066 -1.8096,0.2996 -1.8837,0.1519 0.0041,0.5459 -0.1171,1.5355 -0.0912,2.4913 l 40.7035,0.0372 z"
       id="path3" />
    <path
       fill="#3f3f3f"
       stroke="none"
       d="m 16.3455,38.8196 c -0.0255,-0.0511 -0.04,-0.1049 -0.0566,-0.1605 l -4.2857,0.0538 -0.0912,2.9775 4.4966,0.4861 C 16.3835,41.249 16.3514,39.3873 16.3455,38.8196 Z"
       id="path4" />
    <path
       fill="#d0cfce"
       stroke="none"
       d="m 16.4982,33.8659 c 0.0329,-0.0362 0.0706,-0.0638 0.1084,-0.0949 0.0544,-0.0457 0.1121,-0.0849 0.1754,-0.1182 0.0358,-0.0183 0.0694,-0.0365 0.1076,-0.0505 0.1075,-0.0406 0.2206,-0.0691 0.3428,-0.0691 h 0.1123 11.1739 v -0.2734 c 0,-0.4477 0.114,-0.8656 0.3001,-1.2423 0,-10e-5 0,-2e-4 0,-2e-4 0.0117,-0.0232 0.0245,-0.0456 0.0371,-0.0681 0.0445,-0.0842 0.0837,-0.1716 0.1361,-0.2505 -0.0271,0.042 -0.0536,0.0843 -0.0837,0.1332 -0.0051,0.0132 -0.0141,0.0261 -0.0164,0.0394 -10e-5,5e-4 -0.007,9e-4 -0.0084,0.0014 -0.0418,0.0694 -2.2119,-1.3979 -2.2261,-1.3609 0,0 -4.0156,-1.191 -8.5344,0.2555 -0.1652,0.0529 -1.2189,1.2375 -1.361,1.16 h -10e-5 c -0.017,-0.0093 -0.0292,-0.021 -0.0454,-0.0306 -0.1397,-0.0865 -0.2534,-0.2014 -0.336,-0.3438 -0.0136,-0.0231 -0.0329,-0.0417 -0.0445,-0.066 v 2.6199 c 10e-5,-4e-4 4e-4,-6e-4 6e-4,-10e-4 0.0421,-0.088 0.0975,-0.168 0.1617,-0.2399 z"
       id="path5" />
    <path
       fill="#d0cfce"
       stroke="none"
       d="m 16.6149,37.6112 c 0.0517,-0.0429 0.1062,-0.0801 0.1659,-0.1119 0.0369,-0.019 0.0718,-0.0374 0.1113,-0.0518 0.1066,-0.0403 0.2189,-0.0686 0.3403,-0.0686 h 0.2041 23.9307 v -0.1523 c 0,-0.1708 0.0197,-0.3366 0.0536,-0.4977 0.021,-0.1034 0.0577,-0.2005 0.091,-0.2993 0.0171,-0.049 0.0289,-0.1 0.049,-0.1477 0.0535,-0.1308 0.1208,-0.2536 0.1946,-0.3736 0.0055,-0.0087 0.0099,-0.0179 0.0154,-0.0266 0.0819,-0.1296 0.1753,-0.2499 0.2787,-0.3642 0.0016,-0.0027 0.0083,-0.013 0.0083,-0.013 l -1.3591,-1.9881 -8.3805,0.556 -2.8078,1.4664 c 0.1137,0 0.2171,-0.0288 0.3161,-0.0677 -0.0248,0.0081 -0.0521,0.0095 -0.0778,0.0157 -0.0758,0.0186 -0.1484,0.0464 -0.2301,0.0464 v 0 H 17.3447 17.2324 c -0.1203,0 -0.2314,-0.0281 -0.3369,-0.068 -0.041,-0.0148 -0.0776,-0.0334 -0.1158,-0.0532 -0.0545,-0.0293 -0.1043,-0.0637 -0.1521,-0.1025 -0.1126,-0.0878 -0.2056,-0.1933 -0.2721,-0.3209 -2e-4,-3e-4 -5e-4,-5e-4 -6e-4,-7e-4 0.0089,0.7905 -0.0067,2.1071 -0.0116,2.9536 0.0411,-0.0833 0.0932,-0.1601 0.1542,-0.2289 0.0353,-0.0389 0.0764,-0.0684 0.1174,-0.1014 z"
       id="path6" />
    <rect
       x="28.5893"
       y="47.4491"
       width="14.2207"
       height="6.4310002"
       fill="#9b9b9a"
       stroke="none"
       id="rect6" />
    <path
       fill="#d0cfce"
       stroke="none"
       d="M 28.8647,28.1003 C 28.853,28.0854 28.8425,28.0704 28.83,28.0555 c -0.0172,-0.0206 -0.0414,-0.0381 -0.061,-0.0578 0.0157,0.0144 0.0284,0.0307 0.0428,0.0459 0.018,0.0189 0.0367,0.0368 0.0529,0.0567 z"
       id="path7" />
    <path
       fill="#d0cfce"
       stroke="none"
       d="m 28.926,29.303 c 0.0738,-0.1033 0.1195,-0.2172 0.1493,-0.3332 v -0.0225 c -0.0289,0.1242 -0.0805,0.2453 -0.1593,0.3554 -0.1606,0.2242 -0.3967,0.3621 -0.649,0.404 0.256,-0.04 0.4962,-0.1767 0.659,-0.4037 z"
       id="path8" />
    <path
       fill="#fcea2b"
       stroke="none"
       d="m 54.1422,39.3788 c -0.4698,0 0.4545,-2.0977 0.4545,-2.0977 0,-0.3555 -1.1415,-1.7131 -1.5907,-1.7131 l -8.8721,0.0547 c -0.2244,0 -1.4766,1.4823 -1.4766,1.6584 l -0.9439,1.1013 c 0,0.4518 -0.2533,0.5925 -0.6643,0.7167 l 1.5575,0.2707 c 0,0 11.5738,0.009 11.5356,0.009 z"
       id="path9" />
    <path
       fill="#92d3f5"
       stroke="none"
       d="m 42.0212,35.5046 -0.0547,-3.1313 c -0.0071,-0.0147 -0.0197,-0.0325 -0.0276,-0.0476 0.0121,0.0872 -1.1648,0.308 -1.4079,-0.1871 -0.1407,-0.2871 -0.8955,-0.7655 -1.2158,-0.7655 l -7.8576,-0.135 c -0.457,0 -1.6886,0.7136 -1.6886,1.1707 l -0.4953,2.1614 c 0,0.5527 -1.1133,0.9682 -1.6661,0.9682 z"
       id="path10" />
    <polygon
       fill="#3f3f3f"
       stroke="none"
       points="54.9626,41.9304 59.3651,41.8493 59.4114,38.6632 54.9403,38.6897 "
       id="polygon10" />
    <rect
       x="11.7418"
       y="15.1127"
       width="47.915798"
       height="6.5215998"
       fill="#d0cfce"
       stroke="none"
       id="rect10" />
    <path
       fill="#d0cfce"
       stroke="none"
       d="m 17.6263,31.979 c 0.0202,-0.0089 0.0346,-0.0261 0.0541,-0.0364 -0.0196,0.01 -0.0338,0.0277 -0.0541,0.0364 z"
       id="path11" />
    <path
       fill="#d0cfce"
       stroke="none"
       d="m 19.0715,29.3801 h 7.9687 c -4e-4,0 -7e-4,-2e-4 -0.0011,-2e-4 h -7.9776 c -0.1963,0 -0.3694,0.0785 -0.5116,0.193 0.1451,-0.1151 0.3227,-0.1928 0.5216,-0.1928 z"
       id="path12" />
    <path
       fill="#d0cfce"
       stroke="none"
       d="m 18.4786,29.621 c -0.0215,0.0213 -0.0326,0.0506 -0.0516,0.0741 0.0192,-0.0233 0.0299,-0.053 0.0516,-0.0741 z"
       id="path13" />
    <path
       fill="#ea5a47"
       stroke="none"
       d="m 29.0717,31.5764 0.0136,-2.6288 c -0.0289,0.1241 -0.9471,-0.3725 -1.3982,-0.6928 -0.1407,-0.1006 -8.566,-0.0374 -8.566,-0.0374 -0.4571,0 -2.0761,2.0573 -2.0761,2.0573 0,0 0.6088,1.7768 0.0561,1.7768 -0.4336,0 11.6885,-0.0069 11.6885,-0.0069 0.0427,-0.1109 0.2821,-0.4682 0.2821,-0.4682 z"
       id="path14" />
  </g>
  <g
     id="hair"
     transform="translate(-10.7263,-14.0026)" />
  <g
     id="skin"
     transform="translate(-10.7263,-14.0026)" />
  <g
     id="skin-shadow"
     transform="translate(-10.7263,-14.0026)" />
  <g
     id="line"
     transform="translate(-10.7263,-14.0026)">
    <polyline
       fill="none"
       stroke="#000000"
       stroke-linecap="round"
       stroke-linejoin="round"
       stroke-miterlimit="10"
       stroke-width="2"
       points="11.7512,21.6194 11.7631,42.3123 59.7488,42.3123 59.7369,21.6194"
       id="polyline14" />
    <rect
       x="11.7263"
       y="15.0026"
       width="48.010601"
       height="6.6167998"
       fill="none"
       stroke="#000000"
       stroke-linecap="round"
       stroke-linejoin="round"
       stroke-miterlimit="10"
       stroke-width="2"
       id="rect14" />
    <rect
       x="11.7631"
       y="42.312302"
       width="47.985699"
       height="17.361601"
       fill="none"
       stroke="#000000"
       stroke-linecap="round"
       stroke-linejoin="round"
       stroke-miterlimit="10"
       stroke-width="2"
       id="rect15" />
    <rect
       x="28.6098"
       y="47.060699"
       width="14.4258"
       height="6.8478999"
       fill="none"
       stroke="#000000"
       stroke-linecap="round"
       stroke-linejoin="round"
       stroke-miterlimit="10"
       stroke-width="2"
       id="rect16" />
    <path
       fill="none"
       stroke="#000000"
       stroke-linecap="round"
       stroke-linejoin="round"
       stroke-miterlimit="10"
       stroke-width="2"
       d="M 28.1027,28.7207 C 27.803,28.5062 27.4358,28.3799 27.0392,28.3799 h -7.9776 c -1.0102,0 -1.829,0.8189 -1.829,1.829 v 0.8521"
       id="path16" />
    <path
       fill="none"
       stroke="#000000"
       stroke-linecap="round"
       stroke-linejoin="round"
       stroke-miterlimit="10"
       stroke-width="2"
       d="m 40.9698,32.4574 c -0.2972,-0.6082 -0.9219,-1.0271 -1.6444,-1.0271 h -7.9775 c -1.0101,0 -1.8291,0.8189 -1.8291,1.829 v 1.2736 H 17.2326"
       id="path17" />
    <path
       fill="none"
       stroke="#000000"
       stroke-linecap="round"
       stroke-linejoin="round"
       stroke-miterlimit="10"
       stroke-width="2"
       d="m 54.0031,38.3785 v -1.1524 c 0,-0.914 -0.8188,-1.655 -1.829,-1.655 h -7.9776 c -1.0101,0 -1.829,0.741 -1.829,1.655 v 1.1524 H 17.2326"
       id="path18" />
  </g>
</svg>
