<svg xmlns="http://www.w3.org/2000/svg" xmlns:svg="http://www.w3.org/2000/svg" id="emoji" width="40" height="50.003" version="1.1" viewBox="0 0 40 50.003"><g id="color" transform="translate(-16,-11)"><path id="path1" fill="#3f3f3f" stroke="none" d="M 18,55 H 54 V 13 H 18 Z"/><path id="path2" fill="#d0cfce" stroke="none" d="M 22.2695,17.0112 V 31.0117 H 49.7686 V 17.0112 Z"/><path id="path3" fill="#d0cfce" stroke="none" d="m 49.7686,50.8291 v -14 H 22.2695 v 14 z"/><rect id="rect3" width="11.983" height="4.357" x="29.947" y="19.677" fill="#9b9b9a" stroke="none"/><rect id="rect4" width="12.679" height="4.067" x="29.595" y="39.793" fill="#9b9b9a" stroke="none"/><line id="line4" x1="17.009" x2="55" y1="60.003" y2="60.003" fill="#d0cfce" stroke="none" stroke-linecap="round" stroke-linejoin="round" stroke-miterlimit="10" stroke-width="2"/></g><g id="line" transform="translate(-16,-11)"><rect id="rect5" width="38" height="44" x="17" y="12" fill="none" stroke="#000" stroke-linecap="round" stroke-linejoin="round" stroke-miterlimit="10" stroke-width="2"/><line id="line5" x1="17.009" x2="55" y1="60.003" y2="60.003" fill="none" stroke="#000" stroke-linecap="round" stroke-linejoin="round" stroke-miterlimit="10" stroke-width="2"/><rect id="rect6" width="29.5" height="16" x="21.269" y="35.829" fill="none" stroke="#000" stroke-linecap="round" stroke-linejoin="round" stroke-miterlimit="10" stroke-width="2"/><rect id="rect7" width="12.399" height="4.116" x="29.735" y="39.713" fill="none" stroke="#000" stroke-linecap="round" stroke-linejoin="round" stroke-miterlimit="10" stroke-width="2"/><line id="line7" x1="42.134" x2="29.735" y1="47.829" y2="47.829" fill="none" stroke="#000" stroke-linecap="round" stroke-linejoin="round" stroke-miterlimit="10" stroke-width="2"/><rect id="rect8" width="29.5" height="16" x="21.269" y="16.011" fill="none" stroke="#000" stroke-linecap="round" stroke-linejoin="round" stroke-miterlimit="10" stroke-width="2"/><rect id="rect9" width="12.399" height="4.116" x="29.735" y="19.895" fill="none" stroke="#000" stroke-linecap="round" stroke-linejoin="round" stroke-miterlimit="10" stroke-width="2"/><line id="line9" x1="42.134" x2="29.735" y1="28.011" y2="28.011" fill="none" stroke="#000" stroke-linecap="round" stroke-linejoin="round" stroke-miterlimit="10" stroke-width="2"/></g></svg>