<svg xmlns="http://www.w3.org/2000/svg" xmlns:svg="http://www.w3.org/2000/svg" id="emoji" width="52" height="43" version="1.1" viewBox="0 0 52 43"><g id="color" transform="translate(-10,-15)"><rect id="rect1" width="50" height="36" x="11" y="21" fill="#fcea2b"/><rect id="rect2" width="50" height="4" x="11" y="21" fill="#f1b31c"/><rect id="rect3" width="50" height="4" x="11" y="25" fill="#f1b31c"/><path id="path3" fill="#b1cc33" d="m 17.565,16 h 5.87 A 1.565,1.565 0 0 1 25,17.565 V 21 H 16 V 17.565 A 1.565,1.565 0 0 1 17.565,16 Z"/><path id="path4" fill="#ea5a47" d="m 30.565,20 h 5.87 A 1.565,1.565 0 0 1 38,21.565 V 25 H 29 V 21.565 A 1.565,1.565 0 0 1 30.565,20 Z"/><path id="path5" fill="#92d3f5" d="m 19.565,24 h 5.87 A 1.565,1.565 0 0 1 27,25.565 V 29 H 18 V 25.565 A 1.565,1.565 0 0 1 19.565,24 Z"/></g><g id="line" transform="translate(-10,-15)"><line id="line5" x1="11" x2="61" y1="29" y2="29" fill="none" stroke="#000" stroke-linecap="round" stroke-linejoin="round" stroke-width="2"/><line id="line6" x1="26.893" x2="61" y1="25" y2="25" fill="none" stroke="#000" stroke-linecap="round" stroke-linejoin="round" stroke-width="2"/><line id="line7" x1="11" x2="18.108" y1="25" y2="25" fill="none" stroke="#000" stroke-linecap="round" stroke-linejoin="round" stroke-width="2"/><polyline id="polyline7" fill="none" stroke="#000" stroke-linecap="round" stroke-linejoin="round" stroke-width="2" points="29 21 11 21 11 57 61 57 61 21 37.893 21"/><path id="path7" fill="none" stroke="#000" stroke-linecap="round" stroke-linejoin="round" stroke-width="2" d="m 17.565,16 h 5.87 A 1.565,1.565 0 0 1 25,17.565 V 21 H 16 V 17.565 A 1.565,1.565 0 0 1 17.565,16 Z"/><path id="path8" fill="none" stroke="#000" stroke-linecap="round" stroke-linejoin="round" stroke-width="2" d="m 30.565,20 h 5.87 A 1.565,1.565 0 0 1 38,21.565 V 25 H 29 V 21.565 A 1.565,1.565 0 0 1 30.565,20 Z"/><path id="path9" fill="none" stroke="#000" stroke-linecap="round" stroke-linejoin="round" stroke-width="2" d="m 19.565,24 h 5.87 A 1.565,1.565 0 0 1 27,25.565 V 29 H 18 V 25.565 A 1.565,1.565 0 0 1 19.565,24 Z"/></g></svg>