<?xml version="1.0" encoding="UTF-8" standalone="no"?>
<svg
   id="emoji"
   viewBox="0 0 52 43"
   version="1.1"
   sodipodi:docname="1f5c2.svg"
   width="52"
   height="43"
   xmlns:inkscape="http://www.inkscape.org/namespaces/inkscape"
   xmlns:sodipodi="http://sodipodi.sourceforge.net/DTD/sodipodi-0.dtd"
   xmlns="http://www.w3.org/2000/svg"
   xmlns:svg="http://www.w3.org/2000/svg">
  <defs
     id="defs9" />
  <sodipodi:namedview
     id="namedview9"
     pagecolor="#ffffff"
     bordercolor="#000000"
     borderopacity="0.25"
     inkscape:showpageshadow="2"
     inkscape:pageopacity="0.0"
     inkscape:pagecheckerboard="0"
     inkscape:deskcolor="#d1d1d1" />
  <g
     id="color"
     transform="translate(-10,-15)">
    <rect
       x="11"
       y="21"
       width="50"
       height="36"
       fill="#fcea2b"
       id="rect1" />
    <rect
       x="11"
       y="21"
       width="50"
       height="4"
       fill="#f1b31c"
       id="rect2" />
    <rect
       x="11"
       y="25"
       width="50"
       height="4"
       fill="#f1b31c"
       id="rect3" />
    <path
       fill="#b1cc33"
       d="m 17.565,16 h 5.87 A 1.565,1.565 0 0 1 25,17.565 V 21 H 16 V 17.565 A 1.565,1.565 0 0 1 17.565,16 Z"
       id="path3" />
    <path
       fill="#ea5a47"
       d="m 30.565,20 h 5.87 A 1.565,1.565 0 0 1 38,21.565 V 25 H 29 V 21.565 A 1.565,1.565 0 0 1 30.565,20 Z"
       id="path4" />
    <path
       fill="#92d3f5"
       d="m 19.565,24 h 5.87 A 1.565,1.565 0 0 1 27,25.565 V 29 H 18 V 25.565 A 1.565,1.565 0 0 1 19.565,24 Z"
       id="path5" />
  </g>
  <g
     id="line"
     transform="translate(-10,-15)">
    <line
       x1="11"
       x2="61"
       y1="29"
       y2="29"
       fill="none"
       stroke="#000000"
       stroke-linecap="round"
       stroke-linejoin="round"
       stroke-width="2"
       id="line5" />
    <line
       x1="26.892799"
       x2="61"
       y1="25"
       y2="25"
       fill="none"
       stroke="#000000"
       stroke-linecap="round"
       stroke-linejoin="round"
       stroke-width="2"
       id="line6" />
    <line
       x1="11"
       x2="18.107901"
       y1="25"
       y2="25"
       fill="none"
       stroke="#000000"
       stroke-linecap="round"
       stroke-linejoin="round"
       stroke-width="2"
       id="line7" />
    <polyline
       fill="none"
       stroke="#000000"
       stroke-linecap="round"
       stroke-linejoin="round"
       stroke-width="2"
       points="29 21 11 21 11 57 61 57 61 21 37.893 21"
       id="polyline7" />
    <path
       fill="none"
       stroke="#000000"
       stroke-linecap="round"
       stroke-linejoin="round"
       stroke-width="2"
       d="m 17.565,16 h 5.87 A 1.565,1.565 0 0 1 25,17.565 V 21 H 16 V 17.565 A 1.565,1.565 0 0 1 17.565,16 Z"
       id="path7" />
    <path
       fill="none"
       stroke="#000000"
       stroke-linecap="round"
       stroke-linejoin="round"
       stroke-width="2"
       d="m 30.565,20 h 5.87 A 1.565,1.565 0 0 1 38,21.565 V 25 H 29 V 21.565 A 1.565,1.565 0 0 1 30.565,20 Z"
       id="path8" />
    <path
       fill="none"
       stroke="#000000"
       stroke-linecap="round"
       stroke-linejoin="round"
       stroke-width="2"
       d="m 19.565,24 h 5.87 A 1.565,1.565 0 0 1 27,25.565 V 29 H 18 V 25.565 A 1.565,1.565 0 0 1 19.565,24 Z"
       id="path9" />
  </g>
</svg>
