<svg xmlns="http://www.w3.org/2000/svg" xmlns:svg="http://www.w3.org/2000/svg" id="emoji" width="50" height="49.878" version="1.1" viewBox="0 0 50 49.878"><g id="color" transform="translate(-10.997,-11.2142)"><path id="path1" fill="#fff" stroke="none" d="m 11.9726,28.2042 0.123,31.8059 31.6009,-0.082 L 59.9274,47.55 60.0503,28.0812 Z"/><path id="path2" fill="#ea5a47" stroke="none" d="m 12.1421,28.1401 h 47.71 V 12.2523 h -47.71 z M 49.9972,16.7595 c 0.0107,0 0.0207,0 0.0307,0 0.841,0.0081 1.6281,0.3433 2.2169,0.9435 0.5897,0.6004 0.9094,1.3941 0.901,2.2351 -0.0162,1.7261 -1.426,3.1186 -3.1479,3.1186 -0.0099,0 -0.0207,0 -0.0307,0 -1.7357,-0.017 -3.134,-1.4429 -3.1179,-3.1786 0.0162,-1.7261 1.426,-3.1186 3.1479,-3.1186 z m -30.2703,0.848 c 0.6109,-0.5985 1.4156,-0.9273 2.2694,-0.9273 0.0103,0 0.0206,0 0.0317,0 1.7866,0.0174 3.2267,1.4852 3.2101,3.2719 -0.0166,1.7768 -1.4678,3.2102 -3.2403,3.2102 -0.0102,0 -0.0213,0 -0.0316,0 -1.7867,-0.0175 -3.2267,-1.4852 -3.2101,-3.2719 0.0078,-0.8656 0.3528,-1.6763 0.9708,-2.2829 z"/><path id="path3" fill="#d0cfce" stroke="none" d="M 56.9559,49.0381 H 44.1387 v 4.4795 c 0,0.5527 -0.4473,1 -1,1 -0.502,0 -0.8992,-0.3752 -0.9712,-0.8569 v 5.4255 l 1.1596,-3e-4 z"/></g><g id="line" transform="translate(-10.997,-11.2142)"><circle id="ellipse3" cx="21.997" cy="19.941" r="3" fill="none" fill-rule="evenodd" stroke="#000" stroke-linecap="round" stroke-linejoin="round" stroke-miterlimit="10" stroke-width="2" clip-rule="evenodd" transform="matrix(0.0096,-1,1,0.0096,1.8467,41.746)"/><rect id="rect3" width="48" height="16" x="11.997" y="12.214" fill="none" stroke="#000" stroke-linecap="round" stroke-linejoin="round" stroke-miterlimit="10" stroke-width="2"/><circle id="ellipse4" cx="49.998" cy="19.941" r="3" fill="none" fill-rule="evenodd" stroke="#000" stroke-linecap="round" stroke-linejoin="round" stroke-miterlimit="10" stroke-width="2" clip-rule="evenodd" transform="matrix(0.0096,-1,1,0.0096,29.5794,69.7454)"/><polyline id="polyline4" fill="none" stroke="#000" stroke-linecap="round" stroke-linejoin="round" stroke-miterlimit="10" stroke-width="2" points="11.997 28.092 11.997 60.092 43.656 60.086 59.997 48.038 59.997 28.092"/><circle id="ellipse5" cx="18.217" cy="33.673" r="2" fill="#000" stroke="none" transform="matrix(0.0096,-1,1,0.0096,-15.6284,51.5668)"/><circle id="ellipse6" cx="24.217" cy="33.673" r="2" fill="#000" stroke="none" transform="matrix(0.0096,-1,1,0.0096,-9.6857,57.5665)"/><circle id="ellipse7" cx="30.217" cy="33.673" r="2" fill="#000" stroke="none" transform="matrix(0.0096,-1,1,0.0096,-3.743,63.5662)"/><circle id="ellipse8" cx="36.217" cy="33.673" r="2" fill="#000" stroke="none" transform="matrix(0.0096,-1,1,0.0096,2.1997,69.566)"/><circle id="ellipse9" cx="18.217" cy="39.673" r="2" fill="#000" stroke="none" transform="matrix(0.0096,-1,1,0.0096,-21.6282,57.5095)"/><circle id="ellipse10" cx="24.217" cy="39.673" r="2" fill="#000" stroke="none" transform="matrix(0.0096,-1,1,0.0096,-15.6855,63.5092)"/><circle id="ellipse11" cx="30.217" cy="39.673" r="2" fill="#000" stroke="none" transform="matrix(0.0096,-1,1,0.0096,-9.7428,69.5089)"/><circle id="ellipse12" cx="36.217" cy="39.673" r="2" fill="#000" stroke="none" transform="matrix(0.0096,-1,1,0.0096,-3.8001,75.5087)"/><circle id="ellipse13" cx="18.217" cy="45.673" r="2" fill="#000" stroke="none" transform="matrix(0.0096,-1,1,0.0096,-27.6279,63.4522)"/><polyline id="polyline13" fill="none" stroke="#000" stroke-linecap="round" stroke-linejoin="round" stroke-miterlimit="10" stroke-width="2" points="59.869 48.038 43.138 48.038 43.138 53.517"/></g></svg>