<?xml version="1.0" encoding="UTF-8" standalone="no"?>
<svg
   id="emoji"
   viewBox="0 0 36 47.870903"
   version="1.1"
   sodipodi:docname="1f5dc.svg"
   width="36"
   height="47.870903"
   xmlns:inkscape="http://www.inkscape.org/namespaces/inkscape"
   xmlns:sodipodi="http://sodipodi.sourceforge.net/DTD/sodipodi-0.dtd"
   xmlns="http://www.w3.org/2000/svg"
   xmlns:svg="http://www.w3.org/2000/svg">
  <defs
     id="defs6" />
  <sodipodi:namedview
     id="namedview6"
     pagecolor="#ffffff"
     bordercolor="#000000"
     borderopacity="0.25"
     inkscape:showpageshadow="2"
     inkscape:pageopacity="0.0"
     inkscape:pagecheckerboard="0"
     inkscape:deskcolor="#d1d1d1" />
  <g
     id="color"
     transform="translate(-17,-12.0356)">
    <rect
       x="43.000198"
       y="36.1661"
       width="3.0000999"
       height="3.3833001"
       fill="#9b9b9a"
       stroke="none"
       id="rect1" />
    <rect
       x="43.001301"
       y="46.1665"
       width="3.0000999"
       height="12"
       fill="#9b9b9a"
       stroke="none"
       id="rect2" />
    <rect
       x="41"
       y="22.1661"
       width="8"
       height="3.0000999"
       fill="#9b9b9a"
       stroke="none"
       id="rect3" />
    <path
       fill="#d0cfce"
       stroke="none"
       d="M 47,45.7774 H 22.6774 C 20.0942,45.7774 18,43.6833 18,41.1 V 22.3904 c 0,-5.1665 4.1883,-9.3548 9.3548,-9.3548 h 13.0968 1.871 c 2.5833,0 4.6774,2.0942 4.6774,4.6774 v 4.0092 h -4.9714 c 0,-1.6976 -1.3762,-3.0737 -3.0737,-3.0737 h -1.2295 -8.6065 c -3.3952,0 -6.1475,2.7523 -6.1475,6.1475 v 12.2949 c 0,1.6976 1.3762,3.0737 3.0737,3.0737 H 42.0285 47 Z"
       id="path3" />
  </g>
  <g
     id="hair"
     transform="translate(-17,-12.0356)" />
  <g
     id="skin"
     transform="translate(-17,-12.0356)" />
  <g
     id="skin-shadow"
     transform="translate(-17,-12.0356)" />
  <g
     id="line"
     transform="translate(-17,-12.0356)">
    <path
       fill="none"
       stroke="#000000"
       stroke-linecap="round"
       stroke-linejoin="round"
       stroke-miterlimit="10"
       stroke-width="2"
       d="M 47,45.7774 H 22.6774 C 20.0942,45.7774 18,43.6833 18,41.1 V 22.3904 c 0,-5.1665 4.1883,-9.3548 9.3548,-9.3548 h 13.0968 1.871 c 2.5833,0 4.6774,2.0942 4.6774,4.6774 v 4.0092 h -4.9714 c 0,-1.6976 -1.3762,-3.0737 -3.0737,-3.0737 h -1.2295 -8.6065 c -3.3952,0 -6.1475,2.7523 -6.1475,6.1475 v 12.2949 c 0,1.6976 1.3762,3.0737 3.0737,3.0737 H 42.0285 47 Z"
       id="path4" />
    <rect
       x="42"
       y="45.906502"
       width="5"
       height="13"
       fill="none"
       stroke="#000000"
       stroke-linecap="round"
       stroke-linejoin="round"
       stroke-miterlimit="10"
       stroke-width="2"
       id="rect4" />
    <rect
       x="39.999901"
       y="21.9065"
       width="10"
       height="3.6429"
       fill="none"
       stroke="#000000"
       stroke-linecap="round"
       stroke-linejoin="round"
       stroke-miterlimit="10"
       stroke-width="2"
       id="rect5" />
    <path
       fill="none"
       stroke="#000000"
       stroke-linecap="round"
       stroke-linejoin="round"
       stroke-miterlimit="10"
       stroke-width="2"
       d="m 42,36.7186 v 3.1878 h 5 v -3.1878 c 0,-0.4485 -0.4545,-0.8122 -1.0152,-0.8122 H 43.0152 C 42.4545,35.9065 42,36.2701 42,36.7186 Z"
       id="path5" />
    <line
       x1="41"
       x2="37"
       y1="52.1661"
       y2="52.1661"
       fill="none"
       stroke="#000000"
       stroke-linecap="round"
       stroke-linejoin="round"
       stroke-miterlimit="10"
       stroke-width="2"
       id="line5" />
    <line
       x1="52"
       x2="48"
       y1="52.1661"
       y2="52.1661"
       fill="none"
       stroke="#000000"
       stroke-linecap="round"
       stroke-linejoin="round"
       stroke-miterlimit="10"
       stroke-width="2"
       id="line6" />
  </g>
</svg>
