<?xml version="1.0" encoding="UTF-8" standalone="no"?>
<svg
   id="emoji"
   viewBox="0 0 45.0261 62.611164"
   version="1.1"
   sodipodi:docname="1f5fd.svg"
   width="45.0261"
   height="62.611164"
   xmlns:inkscape="http://www.inkscape.org/namespaces/inkscape"
   xmlns:sodipodi="http://sodipodi.sourceforge.net/DTD/sodipodi-0.dtd"
   xmlns="http://www.w3.org/2000/svg"
   xmlns:svg="http://www.w3.org/2000/svg">
  <defs
     id="defs14" />
  <sodipodi:namedview
     id="namedview14"
     pagecolor="#ffffff"
     bordercolor="#000000"
     borderopacity="0.25"
     inkscape:showpageshadow="2"
     inkscape:pageopacity="0.0"
     inkscape:pagecheckerboard="0"
     inkscape:deskcolor="#d1d1d1" />
  <g
     id="color"
     transform="translate(-12.3641,-4.4412368)">
    <path
       fill="#92d3f5"
       d="m 16.5981,20.0261 c 0.2385,1.888 0.5742,4.4455 1.0114,7.4916 0.3632,2.5311 0.55,3.6847 0.9446,3.7248 0.8178,0.0831 1.8815,-4.52 2.0733,-5.3493 0.4461,-1.9284 0.7298,-3.8909 0.848,-5.8667"
       id="path1" />
    <rect
       x="13.7806"
       y="15.0562"
       width="9.6857004"
       height="4.4081001"
       fill="#61b2e4"
       id="rect1" />
    <path
       fill="#61b2e4"
       d="m 23.3318,29.8713 c 0.5089,0.07 0.8658,0.7737 2.2723,6.4554 1.4457,5.84 1.2648,5.8906 1.8236,6.9854 1.5813,3.0984 3.0307,2.6985 5.6034,6.57 2.2186,3.3391 1.5077,4.1888 2.974,5.16 2.9662,1.9642 7.2971,-0.5636 12.2657,0.9579 1.9874,0.4691 2.0906,1.4083 3.4356,2.9447 0.9128,1.1351 2.0858,3.1364 2.8077,5.1142 0.2018,0.5528 -0.064,1.1921 -0.6271,1.3631 -2.4852,0.7551 -8.9824,-2.2026 -18.4919,-0.543 -4.4528,0.7771 -8.1449,2.4 -8.9074,1.1731 -0.8429,-1.3566 3.2392,-4.0335 2.7288,-7.7332 -0.304,-2.2033 -2.6284,-4.5662 -4.0429,-7.5645 -2.4409,-5.1743 -3.4515,-10.3541 -4.7242,-15.0509 0.6506,-3.1536 1.7295,-5.992 2.8824,-5.8323 z"
       id="path2" />
    <ellipse
       cx="41.903301"
       cy="46.206001"
       rx="4.8575001"
       ry="5.8056002"
       fill="#92d3f5"
       id="ellipse2" />
    <path
       fill="#f4aa41"
       d="M 16.141,13.3549 C 15.8063,12.5736 15.8417,11.6829 16.2373,10.9306 16.751,9.9191 17.6151,9.789 18.8821,9.0063 21.6066,7.3231 22.0213,5.2 22.931,5.4387 c 0.9368,0.2462 1.0335,2.6385 1.0592,3.2765 0.0611,1.5111 0.1668,4.1281 -1.7152,5.4653 -1.9431,1.3807 -5.2823,0.8836 -6.134,-0.8256 z"
       id="path3" />
    <line
       x1="41.483601"
       x2="41.483601"
       y1="30.5289"
       y2="36.6297"
       fill="none"
       stroke="#92d3f5"
       stroke-linecap="round"
       stroke-miterlimit="10"
       stroke-width="2"
       id="line3" />
    <line
       x1="52.3009"
       x2="47.487"
       y1="34.369801"
       y2="38.683701"
       fill="none"
       stroke="#92d3f5"
       stroke-linecap="round"
       stroke-miterlimit="10"
       stroke-width="2"
       id="line4" />
    <line
       x1="31.559799"
       x2="35.873699"
       y1="34.186401"
       y2="38.500301"
       fill="none"
       stroke="#92d3f5"
       stroke-linecap="round"
       stroke-miterlimit="10"
       stroke-width="2"
       id="line5" />
    <line
       x1="30.6619"
       x2="34.2672"
       y1="42.9888"
       y2="42.9888"
       fill="none"
       stroke="#92d3f5"
       stroke-linecap="round"
       stroke-miterlimit="10"
       stroke-width="2"
       id="line6" />
    <line
       x1="50.289299"
       x2="56.390202"
       y1="43.2388"
       y2="43.2388"
       fill="none"
       stroke="#92d3f5"
       stroke-linecap="round"
       stroke-miterlimit="10"
       stroke-width="2"
       id="line7" />
  </g>
  <g
     id="line"
     transform="translate(-12.3641,-4.4412368)">
    <rect
       x="13.3641"
       y="15.0561"
       width="10.1022"
       height="4.4081001"
       fill="none"
       stroke="#000000"
       stroke-linecap="round"
       stroke-linejoin="round"
       stroke-width="2"
       id="rect7" />
    <path
       fill="none"
       stroke="#000000"
       stroke-linecap="round"
       stroke-linejoin="round"
       stroke-width="2"
       d="m 16.2825,13.737 c -0.3437,-0.7338 -0.4255,-1.5632 -0.2317,-2.35 0.3477,-1.1915 1.3361,-1.5593 3.1781,-2.9133 2.8393,-2.0875 3.3071,-3.2837 4.0057,-3.013 0.9422,0.3653 0.9595,2.8983 0.53,4.6017 -0.1613,0.6364 -0.4062,1.2486 -0.7283,1.8207"
       id="path7" />
    <path
       fill="none"
       stroke="#000000"
       stroke-linecap="round"
       stroke-linejoin="round"
       stroke-width="2"
       d="m 16.5777,19.8417 c 0.8754,7.9774 1.7028,11.9615 2.4823,11.9523 0.68,-0.0082 1.3236,-3.0576 1.9308,-9.1481"
       id="path8" />
    <path
       fill="none"
       stroke="#000000"
       stroke-linecap="round"
       stroke-linejoin="round"
       stroke-width="2"
       d="m 19.5715,35.4569 c 0.5808,1.9816 1.17,3.9994 2.34,8.04 1.4379,4.9662 1.4817,5.1645 1.7946,5.9219 2.4368,5.899 5.0141,6.542 4.6657,9.6007 -0.3555,1.8839 -0.835,3.7422 -1.4356,5.5629 -0.1826,0.6184 -0.3406,1.1272 -0.4486,1.47"
       id="path9" />
    <path
       fill="none"
       stroke="#000000"
       stroke-linecap="round"
       stroke-linejoin="round"
       stroke-width="2"
       d="m 22.987,29.0992 c 1.1843,2.62 2.1452,5.3353 2.8724,8.117 1.2757,4.5187 0.834,4.78 1.8842,6.7294 2.2749,4.2229 5.0484,4.2982 7.0883,8.7932 0.3357,0.917 0.8901,1.7383 1.6151,2.3925 1.3913,1.0323 3.1251,1.4925 4.8452,1.2862 1.9679,-0.2039 3.2155,-1.0839 4.8973,-1.342 1.9713,-0.245 3.9174,0.6159 5.0622,2.2393 1.0959,1.0032 1.912,3.135 3.4994,7.3575"
       id="path10" />
    <ellipse
       cx="41.903301"
       cy="46.206001"
       rx="5.0001998"
       ry="6.1008"
       fill="none"
       stroke="#000000"
       stroke-linecap="round"
       stroke-linejoin="round"
       stroke-width="2"
       id="ellipse10" />
    <line
       x1="50.289299"
       x2="56.390202"
       y1="43.717201"
       y2="43.717201"
       fill="none"
       stroke="#000000"
       stroke-linecap="round"
       stroke-linejoin="round"
       stroke-width="2"
       id="line10" />
    <line
       x1="48.137501"
       x2="52.951401"
       y1="39.009102"
       y2="34.695099"
       fill="none"
       stroke="#000000"
       stroke-linecap="round"
       stroke-linejoin="round"
       stroke-width="2"
       id="line11" />
    <line
       x1="42.118"
       x2="42.118"
       y1="36.6138"
       y2="30.513"
       fill="none"
       stroke="#000000"
       stroke-linecap="round"
       stroke-linejoin="round"
       stroke-width="2"
       id="line12" />
    <line
       x1="34.2672"
       x2="30.6619"
       y1="43.467201"
       y2="43.467201"
       fill="none"
       stroke="#000000"
       stroke-linecap="round"
       stroke-linejoin="round"
       stroke-width="2"
       id="line13" />
    <line
       x1="35.3554"
       x2="31.0415"
       y1="38.963902"
       y2="34.650002"
       fill="none"
       stroke="#000000"
       stroke-linecap="round"
       stroke-linejoin="round"
       stroke-width="2"
       id="line14" />
  </g>
</svg>
