<svg xmlns="http://www.w3.org/2000/svg" xmlns:svg="http://www.w3.org/2000/svg" id="emoji" width="48" height="48" version="1.1" viewBox="0 0 48 48"><g id="color" transform="translate(-11.8871,-12.056499)"><circle id="circle1" cx="36" cy="36" r="23" fill="#fcea2b"/><path id="path1" fill="#3f3f3f" d="m 45.331,38.5639 c 3.9628,0 7.1782,-2.8618 7.1782,-6.3889 0,-1.7646 0.4473,-3.5291 -0.8519,-4.6852 -1.2992,-1.1561 -4.3449,-1.7037 -6.3264,-1.7037 -2.3567,0 -5.1428,0.1434 -6.4514,1.7037 -0.8933,1.0652 -0.7268,3.2534 -0.7268,4.6852 10e-5,3.5271 3.2128,6.3889 7.1783,6.3889 z"/><path id="path2" fill="#3f3f3f" d="m 25.7384,38.5639 c 3.9628,0 7.1782,-2.8618 7.1782,-6.3889 0,-1.7646 0.4473,-3.5291 -0.8519,-4.6852 -1.2992,-1.1561 -4.3449,-1.7037 -6.3264,-1.7037 -2.3567,0 -5.1428,0.1434 -6.4514,1.7037 -0.8933,1.0652 -0.7268,3.2534 -0.7268,4.6852 10e-5,3.5271 3.2128,6.3889 7.1783,6.3889 z"/></g><g id="line" transform="translate(-11.8871,-12.056499)"><circle id="circle2" cx="35.887" cy="36.056" r="23" fill="none" stroke="#000" stroke-linecap="round" stroke-linejoin="round" stroke-miterlimit="10" stroke-width="2"/><path id="path3" fill="none" stroke="#000" stroke-linecap="round" stroke-linejoin="round" stroke-miterlimit="10" stroke-width="2" d="m 45.7019,44.862 c -6.574,3.5248 -14.0454,3.6576 -19.6295,0"/><path id="path4" fill="none" stroke="#000" stroke-linecap="round" stroke-linejoin="round" stroke-miterlimit="10" stroke-width="2" d="m 18.8826,30.4638 c 0,0 -0.953,8.5508 6.8608,7.9185 2.6197,-0.212 7.8164,-0.6507 7.867,-8.3427 0.0046,-0.6979 -0.0078,-1.5989 -0.8108,-2.6298 -1.0647,-1.3669 -3.5716,-1.9711 -9.9446,-1.422 10e-5,10e-5 -3.4462,-0.099 -3.9724,4.476 z"/><polyline id="polyline4" fill="none" stroke="#000" stroke-linecap="round" stroke-linejoin="round" stroke-miterlimit="10" stroke-width="2" points="18.953 29.931 18.52 26.559 22.353 26.032"/><path id="path5" fill="none" stroke="#000" stroke-linecap="round" stroke-linejoin="round" stroke-miterlimit="10" stroke-width="2" d="m 52.7412,30.4638 c 0,0 0.953,8.5508 -6.8608,7.9185 -2.6197,-0.212 -7.8164,-0.6507 -7.867,-8.3427 -0.0046,-0.6979 0.0078,-1.5989 0.8108,-2.6298 1.0647,-1.3669 3.5716,-1.9711 9.9446,-1.422 0,10e-5 3.4463,-0.099 3.9724,4.476 z"/><path id="path6" fill="none" stroke="#000" stroke-linecap="round" stroke-linejoin="round" stroke-miterlimit="10" stroke-width="2" d="m 31.5048,26.4158 c 0,0 4.1241,2.5339 8.6569,0"/><path id="path7" fill="none" stroke="#000" stroke-linecap="round" stroke-linejoin="round" stroke-miterlimit="10" stroke-width="2" d="m 33.5361,31.3179 c 0,0 2.2019,-3.7509 4.5362,0"/><polyline id="polyline7" fill="none" stroke="#000" stroke-linecap="round" stroke-linejoin="round" stroke-miterlimit="10" stroke-width="2" points="52.664 29.933 53.097 26.562 49.264 26.034"/><path id="path8" fill="none" stroke="#000" stroke-linecap="round" stroke-linejoin="round" stroke-miterlimit="10" stroke-width="2" d="m 33.9549,30.0271 c 0,0 1.7954,-3.7509 3.6988,0"/></g></svg>