<svg xmlns="http://www.w3.org/2000/svg" xmlns:svg="http://www.w3.org/2000/svg" id="emoji" width="52.1" height="51.5" version="1.1" viewBox="0 0 52.1 51.5"><g id="color" transform="translate(-9.95,-8.5000002)"><path id="path1" fill="#fcea2b" d="M 36,60 A 24,24 0 0 0 54.157,20.3047 Q 54.0261,20.1532 53.8924,20.0039 A 24,24 0 1 0 36,60 Z"/></g><g id="line" transform="translate(-9.95,-8.5000002)"><path id="path2" fill="none" stroke="#000" stroke-linecap="round" stroke-linejoin="round" stroke-width="2" d="m 45.8147,45.2268 a 15.4294,15.4294 0 0 1 -19.6294,0"/><path id="path3" fill="none" stroke="#000" stroke-linecap="round" stroke-linejoin="round" stroke-width="2" d="M 47.7657,16.233 A 23.0273,23.0273 0 0 0 24.3964,16.137"/><path id="path4" fill="none" stroke="#000" stroke-linecap="round" stroke-linejoin="round" stroke-width="2" d="m 17.6381,22.1467 a 23,23 0 1 0 36.625,-0.1294"/><ellipse id="ellipse4" cx="36" cy="14.8" fill="none" stroke="#000" stroke-miterlimit="10" stroke-width="2" rx="25" ry="5.25"/><path id="path5" fill="none" stroke="#000" stroke-linecap="round" stroke-miterlimit="10" stroke-width="2" d="m 31.6941,33.4036 a 4.7262,4.7262 0 0 0 -8.6382,0"/><path id="path6" fill="none" stroke="#000" stroke-linecap="round" stroke-miterlimit="10" stroke-width="2" d="m 48.9441,33.4036 a 4.7262,4.7262 0 0 0 -8.6382,0"/></g><g id="color-foreground" transform="translate(-9.95,-8.5000002)"><ellipse id="ellipse6" cx="36" cy="14.8" fill="none" stroke="#61b2e4" stroke-miterlimit="10" stroke-width="2.1" rx="25" ry="5.25"/></g></svg>