<svg xmlns="http://www.w3.org/2000/svg" xmlns:svg="http://www.w3.org/2000/svg" id="emoji" width="48" height="54" version="1.1" viewBox="0 0 48 54"><g id="color" transform="translate(-12,-6.0000437)"><path id="path1" fill="#d22f27" d="m 48.8559,16 c 3,-2 4,-5 3,-9 7,2 6,10 3,15"/><path id="path2" fill="#d22f27" d="m 23.1441,16 c -3,-2 -4,-5 -3,-9 -7,2 -6,10 -3,15"/><path id="path3" fill="#ea5a47" d="M 36,13 C 23.3177,13 13,23.3177 13,36 13,48.6823 23.3177,59 36,59 48.6822,59 59,48.6822 59,36 59,23.3176 48.6822,13 36,13 Z"/></g><g id="line" transform="translate(-12,-6.0000437)"><circle id="circle3" cx="36" cy="36" r="23" fill="none" stroke="#000" stroke-miterlimit="10" stroke-width="2"/><path id="path4" d="m 30,32.9252 c 0,1.6567 -1.3448,3 -3,3 -1.6553,0 -3,-1.3433 -3,-3 0,-1.6553 1.3447,-3 3,-3 1.6552,0 3,1.3448 3,3"/><path id="path5" d="m 48,32.9252 c 0,1.6567 -1.3447,3 -3,3 -1.6553,0 -3,-1.3433 -3,-3 0,-1.6553 1.3447,-3 3,-3 1.6553,0 3,1.3448 3,3"/><line id="line5" x1="23" x2="30" y1="25" y2="29" fill="none" stroke="#000" stroke-linecap="round" stroke-linejoin="round" stroke-miterlimit="10" stroke-width="2"/><line id="line6" x1="49" x2="42" y1="25" y2="29" fill="none" stroke="#000" stroke-linecap="round" stroke-linejoin="round" stroke-miterlimit="10" stroke-width="2"/><path id="path6" fill="none" stroke="#000" stroke-linecap="round" stroke-linejoin="round" stroke-miterlimit="10" stroke-width="2" d="m 48.8559,16 c 3,-2 4,-5 3,-9 7,2 6,10 3,15"/><path id="path7" fill="none" stroke="#000" stroke-linecap="round" stroke-linejoin="round" stroke-miterlimit="10" stroke-width="2" d="m 23.1441,16 c -3,-2 -4,-5 -3,-9 -7,2 -6,10 -3,15"/><path id="path8" fill="none" stroke="#000" stroke-linecap="round" stroke-linejoin="round" stroke-miterlimit="10" stroke-width="2" d="m 42.5,43 c -1.2841,0.6376 -3.9847,1.0308 -6.8421,0.9981 C 33.0344,43.9681 30.6682,43.5835 29.5,43"/></g></svg>