<?xml version="1.0" encoding="UTF-8" standalone="no"?>
<svg
   id="emoji"
   viewBox="0 0 52.099998 51.5"
   version="1.1"
   sodipodi:docname="1f607.svg"
   width="52.099998"
   height="51.5"
   xmlns:inkscape="http://www.inkscape.org/namespaces/inkscape"
   xmlns:sodipodi="http://sodipodi.sourceforge.net/DTD/sodipodi-0.dtd"
   xmlns="http://www.w3.org/2000/svg"
   xmlns:svg="http://www.w3.org/2000/svg">
  <defs
     id="defs6" />
  <sodipodi:namedview
     id="namedview6"
     pagecolor="#ffffff"
     bordercolor="#000000"
     borderopacity="0.25"
     inkscape:showpageshadow="2"
     inkscape:pageopacity="0.0"
     inkscape:pagecheckerboard="0"
     inkscape:deskcolor="#d1d1d1" />
  <g
     id="color"
     transform="translate(-9.95,-8.5000002)">
    <path
       fill="#fcea2b"
       d="M 36,60 A 24,24 0 0 0 54.157,20.3047 Q 54.0261,20.1532 53.8924,20.0039 A 24,24 0 1 0 36,60 Z"
       id="path1" />
  </g>
  <g
     id="hair"
     transform="translate(-9.95,-8.5000002)" />
  <g
     id="skin"
     transform="translate(-9.95,-8.5000002)" />
  <g
     id="skin-shadow"
     transform="translate(-9.95,-8.5000002)" />
  <g
     id="line"
     transform="translate(-9.95,-8.5000002)">
    <path
       fill="none"
       stroke="#000000"
       stroke-linecap="round"
       stroke-linejoin="round"
       stroke-width="2"
       d="m 45.8147,45.2268 a 15.4294,15.4294 0 0 1 -19.6294,0"
       id="path2" />
    <path
       fill="none"
       stroke="#000000"
       stroke-linecap="round"
       stroke-linejoin="round"
       stroke-width="2"
       d="M 47.7657,16.233 A 23.0273,23.0273 0 0 0 24.3964,16.137"
       id="path3" />
    <path
       fill="none"
       stroke="#000000"
       stroke-linecap="round"
       stroke-linejoin="round"
       stroke-width="2"
       d="m 17.6381,22.1467 a 23,23 0 1 0 36.625,-0.1294"
       id="path4" />
    <ellipse
       cx="36"
       cy="14.8"
       rx="25"
       ry="5.25"
       fill="none"
       stroke="#000000"
       stroke-miterlimit="10"
       stroke-width="2"
       id="ellipse4" />
    <path
       fill="none"
       stroke="#000000"
       stroke-linecap="round"
       stroke-miterlimit="10"
       stroke-width="2"
       d="m 31.6941,33.4036 a 4.7262,4.7262 0 0 0 -8.6382,0"
       id="path5" />
    <path
       fill="none"
       stroke="#000000"
       stroke-linecap="round"
       stroke-miterlimit="10"
       stroke-width="2"
       d="m 48.9441,33.4036 a 4.7262,4.7262 0 0 0 -8.6382,0"
       id="path6" />
  </g>
  <g
     id="color-foreground"
     transform="translate(-9.95,-8.5000002)">
    <ellipse
       cx="36"
       cy="14.8"
       rx="25"
       ry="5.25"
       fill="none"
       stroke="#61b2e4"
       stroke-miterlimit="10"
       stroke-width="2.1"
       id="ellipse6" />
  </g>
</svg>
