<?xml version="1.0" encoding="UTF-8" standalone="no"?>
<svg
   id="emoji"
   viewBox="0 0 48 48"
   version="1.1"
   sodipodi:docname="1f612.svg"
   width="48"
   height="48"
   xmlns:inkscape="http://www.inkscape.org/namespaces/inkscape"
   xmlns:sodipodi="http://sodipodi.sourceforge.net/DTD/sodipodi-0.dtd"
   xmlns="http://www.w3.org/2000/svg"
   xmlns:svg="http://www.w3.org/2000/svg">
  <defs
     id="defs6" />
  <sodipodi:namedview
     id="namedview6"
     pagecolor="#ffffff"
     bordercolor="#000000"
     borderopacity="0.25"
     inkscape:showpageshadow="2"
     inkscape:pageopacity="0.0"
     inkscape:pagecheckerboard="0"
     inkscape:deskcolor="#d1d1d1" />
  <g
     id="color"
     transform="translate(-12,-12)">
    <path
       fill="#fcea2b"
       d="M 36,13 C 23.3177,13 13,23.3177 13,36 13,48.6822 23.3177,59 36,59 48.6822,59 59,48.6822 59,36 59,23.3177 48.6822,13 36,13 Z"
       id="path1" />
  </g>
  <g
     id="hair"
     transform="translate(-12,-12)" />
  <g
     id="skin"
     transform="translate(-12,-12)" />
  <g
     id="skin-shadow"
     transform="translate(-12,-12)" />
  <g
     id="line"
     transform="translate(-12,-12)">
    <circle
       cx="36"
       cy="36"
       r="23"
       fill="none"
       stroke="#000000"
       stroke-miterlimit="10"
       stroke-width="2"
       id="circle1" />
    <path
       fill="none"
       stroke="#000000"
       stroke-linecap="round"
       stroke-linejoin="round"
       stroke-miterlimit="10"
       stroke-width="2"
       d="m 30.09,43.09 c 3.126,-0.7889 4.815,-1.229 8.332,-1.098 3.229,0.1204 6.141,0.5955 7.579,2.936"
       id="path2" />
    <path
       fill="none"
       stroke="#000000"
       stroke-linecap="round"
       stroke-linejoin="round"
       stroke-miterlimit="10"
       stroke-width="2"
       d="m 23.29,26.7 c 0.3266,-0.4271 1.792,-2.245 4.424,-2.685 2.135,-0.3566 3.794,0.4017 4.352,0.688"
       id="path3" />
    <path
       fill="none"
       stroke="#000000"
       stroke-linecap="round"
       stroke-linejoin="round"
       stroke-miterlimit="10"
       stroke-width="2"
       d="m 42.93,25 c 0.4667,-0.25 2.52,-1.1 5.042,-0.5743 2.118,0.3921 2.421,0.8283 3.73,1.725"
       id="path4" />
    <path
       d="m 32,31 c 0,1.6568 -1.3448,3 -3,3 -1.6553,0 -3,-1.3433 -3,-3 0,-1.6552 1.3447,-3 3,-3 1.6552,0 3,1.3448 3,3"
       id="path5" />
    <path
       d="m 50,31 c 0,1.6568 -1.3447,3 -3,3 -1.6553,0 -3,-1.3433 -3,-3 0,-1.6552 1.3447,-3 3,-3 1.6553,0 3,1.3448 3,3"
       id="path6" />
  </g>
</svg>
