<?xml version="1.0" encoding="UTF-8" standalone="no"?>
<svg
   id="emoji"
   viewBox="0 0 48.000198 48.000198"
   version="1.1"
   sodipodi:docname="1f619.svg"
   width="48.000198"
   height="48.000198"
   xmlns:inkscape="http://www.inkscape.org/namespaces/inkscape"
   xmlns:sodipodi="http://sodipodi.sourceforge.net/DTD/sodipodi-0.dtd"
   xmlns="http://www.w3.org/2000/svg"
   xmlns:svg="http://www.w3.org/2000/svg">
  <defs
     id="defs3" />
  <sodipodi:namedview
     id="namedview3"
     pagecolor="#ffffff"
     bordercolor="#000000"
     borderopacity="0.25"
     inkscape:showpageshadow="2"
     inkscape:pageopacity="0.0"
     inkscape:pagecheckerboard="0"
     inkscape:deskcolor="#d1d1d1" />
  <g
     id="color"
     transform="translate(-11.999901,-11.999901)">
    <circle
       cx="36"
       cy="36"
       r="23"
       fill="#fcea2b"
       id="circle1" />
  </g>
  <g
     id="hair"
     transform="translate(-11.999901,-11.999901)" />
  <g
     id="skin"
     transform="translate(-11.999901,-11.999901)" />
  <g
     id="skin-shadow"
     transform="translate(-11.999901,-11.999901)" />
  <g
     id="line"
     transform="translate(-11.999901,-11.999901)">
    <path
       fill="none"
       stroke="#000000"
       stroke-linecap="round"
       stroke-linejoin="round"
       stroke-miterlimit="10"
       stroke-width="2"
       d="m 36.4152,41.0924 c 0,0 10.5248,3.1956 0,5.5637 0,0 10.4577,2.9883 0,4.9125"
       id="path1" />
    <circle
       cx="36"
       cy="36"
       fill="none"
       stroke="#000000"
       stroke-linecap="round"
       stroke-linejoin="round"
       stroke-miterlimit="10"
       stroke-width="2"
       id="ellipse1"
       r="23.000099" />
    <path
       fill="none"
       stroke="#000000"
       stroke-linecap="round"
       stroke-miterlimit="10"
       stroke-width="2"
       d="m 31.6941,32.4036 c -1.0598,-2.3854 -3.8527,-3.46 -6.238,-2.4002 -1.0697,0.4752 -1.9249,1.3305 -2.4002,2.4002"
       id="path2" />
    <path
       fill="none"
       stroke="#000000"
       stroke-linecap="round"
       stroke-miterlimit="10"
       stroke-width="2"
       d="m 48.9441,32.4036 c -1.0598,-2.3854 -3.8527,-3.46 -6.238,-2.4002 -1.0697,0.4752 -1.9249,1.3305 -2.4002,2.4002"
       id="path3" />
  </g>
</svg>
