<svg xmlns="http://www.w3.org/2000/svg" xmlns:svg="http://www.w3.org/2000/svg" id="emoji" width="48" height="48" version="1.1" viewBox="0 0 48 48"><g id="color" transform="translate(-12,-12)"><path id="path1" fill="#fcea2b" d="m 36,13.1161 c -12.6823,0 -23,10.3177 -23,23 0,12.6822 10.3177,23 23,23 12.6822,0 23,-10.3178 23,-23 0,-12.6823 -10.3178,-23 -23,-23 z"/></g><g id="line" transform="translate(-12,-12)"><circle id="circle1" cx="36" cy="36" r="23" fill="none" stroke="#000" stroke-miterlimit="10" stroke-width="2"/><path id="path2" fill="none" stroke="#000" stroke-linecap="round" stroke-linejoin="round" stroke-miterlimit="10" stroke-width="2" d="m 26.5,46 c 1.8768,-2.5502 5.8239,-4.1232 10,-3.9924 3.8343,0.1201 7.2926,1.6586 9,3.9924"/><path id="path3" fill="none" stroke="#000" stroke-linecap="round" stroke-linejoin="round" stroke-miterlimit="10" stroke-width="2" d="m 22.5,23.0774 c 0.4132,0.344 2.2456,1.7915 4.9091,1.6364 2.1608,-0.1259 3.61,-1.2333 4.0909,-1.6364"/><path id="path4" fill="none" stroke="#000" stroke-linecap="round" stroke-linejoin="round" stroke-miterlimit="10" stroke-width="2" d="m 40.5,23.0774 c 0.4132,0.344 2.2456,1.7915 4.9091,1.6364 2.1608,-0.1259 3.61,-1.2333 4.0909,-1.6364"/><path id="path5" d="m 30,31 c 0,1.6568 -1.3448,3 -3,3 -1.6553,0 -3,-1.3433 -3,-3 0,-1.6552 1.3447,-3 3,-3 1.6552,0 3,1.3448 3,3"/><path id="path6" d="m 48,31 c 0,1.6568 -1.3447,3 -3,3 -1.6553,0 -3,-1.3433 -3,-3 0,-1.6552 1.3447,-3 3,-3 1.6553,0 3,1.3448 3,3"/></g></svg>