<?xml version="1.0" encoding="UTF-8" standalone="no"?>
<svg
   id="emoji"
   viewBox="0 0 48 48"
   version="1.1"
   sodipodi:docname="1f616.svg"
   width="48"
   height="48"
   xmlns:inkscape="http://www.inkscape.org/namespaces/inkscape"
   xmlns:sodipodi="http://sodipodi.sourceforge.net/DTD/sodipodi-0.dtd"
   xmlns="http://www.w3.org/2000/svg"
   xmlns:svg="http://www.w3.org/2000/svg">
  <defs
     id="defs4" />
  <sodipodi:namedview
     id="namedview4"
     pagecolor="#ffffff"
     bordercolor="#000000"
     borderopacity="0.25"
     inkscape:showpageshadow="2"
     inkscape:pageopacity="0.0"
     inkscape:pagecheckerboard="0"
     inkscape:deskcolor="#d1d1d1" />
  <g
     id="color"
     transform="translate(-12,-12)">
    <path
       fill="#fcea2b"
       d="m 36,13.1161 c -12.6823,0 -23,10.3177 -23,23 0,12.6822 10.3177,23 23,23 12.6822,0 23,-10.3178 23,-23 0,-12.6823 -10.3178,-23 -23,-23 z"
       id="path1" />
  </g>
  <g
     id="hair"
     transform="translate(-12,-12)" />
  <g
     id="skin"
     transform="translate(-12,-12)" />
  <g
     id="skin-shadow"
     transform="translate(-12,-12)" />
  <g
     id="line"
     transform="translate(-12,-12)">
    <circle
       cx="36"
       cy="36"
       r="23"
       fill="none"
       stroke="#000000"
       stroke-miterlimit="10"
       stroke-width="2"
       id="circle1" />
    <path
       fill="none"
       stroke="#000000"
       stroke-linecap="round"
       stroke-linejoin="round"
       stroke-miterlimit="10"
       stroke-width="2"
       d="m 23.64,27.87 7.928,2.431 -7.862,3.248"
       id="path2" />
    <path
       fill="none"
       stroke="#000000"
       stroke-linecap="round"
       stroke-linejoin="round"
       stroke-miterlimit="10"
       stroke-width="2"
       d="m 48.36,27.87 -7.928,2.431 7.862,3.248"
       id="path3" />
    <path
       fill="none"
       stroke="#000000"
       stroke-linecap="round"
       stroke-linejoin="round"
       stroke-width="2"
       d="m 23.93,44.39 3.533,-2.896 3.931,5.55 4.608,-4.044 4.608,4.044 3.944,-5.55 3.532,2.905 v -0.0107"
       id="path4" />
  </g>
</svg>
