<svg xmlns="http://www.w3.org/2000/svg" xmlns:svg="http://www.w3.org/2000/svg" id="emoji" width="48" height="48" version="1.1" viewBox="0 0 48 48"><g id="color" transform="translate(-12,-12)"><path id="path1" fill="#fcea2b" d="m 36.2002,13.3163 c -12.5719,0 -22.7998,10.2279 -22.7998,22.7998 0,12.5718 10.2279,22.7998 22.7998,22.7998 C 48.772,58.9159 59,48.6879 59,36.1161 59,23.5442 48.772,13.3163 36.2002,13.3163 Z"/></g><g id="line" transform="translate(-12,-12)"><circle id="circle1" cx="36" cy="36" r="23" fill="none" stroke="#000" stroke-miterlimit="10" stroke-width="2"/><path id="path2" fill="none" stroke="#000" stroke-linecap="round" stroke-linejoin="round" stroke-width="2" d="M 44.7,43.92 C 38.372,42.184 33.29,43.014 27.3,45.822"/><path id="path3" d="m 30,31 c 0,1.6568 -1.3448,3 -3,3 -1.6553,0 -3,-1.3433 -3,-3 0,-1.6552 1.3447,-3 3,-3 1.6552,0 3,1.3448 3,3"/><path id="path4" d="m 48,31 c 0,1.6568 -1.3447,3 -3,3 -1.6553,0 -3,-1.3433 -3,-3 0,-1.6552 1.3447,-3 3,-3 1.6553,0 3,1.3448 3,3"/></g></svg>