<svg xmlns="http://www.w3.org/2000/svg" xmlns:svg="http://www.w3.org/2000/svg" id="emoji" width="48" height="48" version="1.1" viewBox="0 0 48 48"><g id="color" transform="translate(-12,-12)"><path id="path1" fill="#fcea2b" d="m 36,13.1161 c -12.6823,0 -23,10.3177 -23,23 0,12.6822 10.3177,23 23,23 12.6822,0 23,-10.3178 23,-23 0,-12.6823 -10.3178,-23 -23,-23 z"/></g><g id="line" transform="translate(-12,-12)"><circle id="circle1" cx="36" cy="36" r="23" fill="none" stroke="#000" stroke-miterlimit="10" stroke-width="2"/><path id="path2" fill="none" stroke="#000" stroke-linecap="round" stroke-linejoin="round" stroke-miterlimit="10" stroke-width="2" d="m 23.64,27.87 7.928,2.431 -7.862,3.248"/><path id="path3" fill="none" stroke="#000" stroke-linecap="round" stroke-linejoin="round" stroke-miterlimit="10" stroke-width="2" d="m 48.36,27.87 -7.928,2.431 7.862,3.248"/><path id="path4" fill="none" stroke="#000" stroke-linecap="round" stroke-linejoin="round" stroke-width="2" d="m 23.93,44.39 3.533,-2.896 3.931,5.55 4.608,-4.044 4.608,4.044 3.944,-5.55 3.532,2.905 v -0.0107"/></g></svg>