<svg xmlns="http://www.w3.org/2000/svg" xmlns:svg="http://www.w3.org/2000/svg" id="emoji" width="48" height="48" version="1.1" viewBox="0 0 48 48"><g id="color" transform="translate(-12,-12)"><path id="path1" fill="#fcea2b" d="M 36,13 C 23.2975,13 13,23.2975 13,36 13,48.7025 23.2975,59 36,59 48.7025,59 59,48.7025 59,36 58.9857,23.3034 48.6966,13.0143 36,13 Z"/><path id="path2" fill="#fff" d="m 44.5,49.2708 h -17 c -2.2064,-0.0065 -3.9935,-1.7936 -4,-4 v 0 c 0.0065,-2.2064 1.7936,-3.9935 4,-4 h 17 c 2.2064,0.0065 3.9935,1.7936 4,4 v 0 c -0.0065,2.2064 -1.7936,3.9935 -4,4 z"/></g><g id="line" transform="translate(-12,-12)"><line id="line2" x1="28" x2="28" y1="41.771" y2="48.771" fill="none" stroke="#000" stroke-linecap="round" stroke-linejoin="round" stroke-width="2"/><line id="line3" x1="33" x2="33" y1="41.771" y2="48.771" fill="none" stroke="#000" stroke-linecap="round" stroke-linejoin="round" stroke-width="2"/><line id="line4" x1="38" x2="38" y1="41.771" y2="48.771" fill="none" stroke="#000" stroke-linecap="round" stroke-linejoin="round" stroke-width="2"/><line id="line5" x1="43" x2="43" y1="41.771" y2="48.771" fill="none" stroke="#000" stroke-linecap="round" stroke-linejoin="round" stroke-width="2"/><circle id="circle5" cx="36" cy="36" r="23" fill="none" stroke="#000" stroke-miterlimit="10" stroke-width="2"/><path id="path5" fill="none" stroke="#000" stroke-miterlimit="2" stroke-width="2" d="m 44.5,49.2708 h -17 c -2.2064,-0.0065 -3.9935,-1.7936 -4,-4 v 0 c 0.0065,-2.2064 1.7936,-3.9935 4,-4 h 17 c 2.2064,0.0065 3.9935,1.7936 4,4 v 0 c -0.0065,2.2064 -1.7936,3.9935 -4,4 z"/><path id="path6" d="m 30,31 c 0,1.6568 -1.3448,3 -3,3 -1.6553,0 -3,-1.3433 -3,-3 0,-1.6552 1.3447,-3 3,-3 1.6552,0 3,1.3448 3,3"/><path id="path7" d="m 48,31 c 0,1.6568 -1.3447,3 -3,3 -1.6553,0 -3,-1.3433 -3,-3 0,-1.6552 1.3447,-3 3,-3 1.6553,0 3,1.3448 3,3"/></g></svg>