<svg xmlns="http://www.w3.org/2000/svg" xmlns:svg="http://www.w3.org/2000/svg" id="emoji" width="48" height="48" version="1.1" viewBox="0 0 48 48"><g id="line-supplement" transform="translate(-11.9772,-11.958302)"><path id="path1" d="m 42.8472,45.6583 c 0,-2.592 -3.834,-4.694 -6.869,-4.694 -3.035,0 -6.869,2.101 -6.869,4.694 0,2.593 3.659,0.9248 6.694,0.9248 3.035,0 7.044,1.6669 7.044,-0.9248 z"/></g><g id="color" transform="translate(-11.9772,-11.958302)"><path id="path2" fill="#fcea2b" d="m 35.9772,12.9583 a 23,23 0 1 0 23,23 23.026,23.026 0 0 0 -23,-23 z"/><path id="path3" fill="#92d3f5" d="m 35.9772,24.7689 a 23.0392,23.0392 0 0 1 22.2281,17.0947 23,23 0 1 0 -44.4561,0 23.0389,23.0389 0 0 1 22.228,-17.0947 z"/><path id="path4" d="m 42.8472,45.6583 c 0,-2.592 -3.834,-4.694 -6.869,-4.694 -3.035,0 -6.869,2.101 -6.869,4.694 0,2.593 3.659,0.9248 6.694,0.9248 3.035,0 7.044,1.6669 7.044,-0.9248 z"/></g><g id="line" transform="translate(-11.9772,-11.958302)"><path id="path5" fill="none" stroke="#000" stroke-linecap="round" stroke-linejoin="round" stroke-width="2" d="m 29.3564,22.669 a 8.44,8.44 0 0 0 -9.0659,4.4981"/><path id="path6" fill="none" stroke="#000" stroke-linecap="round" stroke-linejoin="round" stroke-width="2" d="M 51.664,27.1671 A 8.44,8.44 0 0 0 42.5981,22.669"/><circle id="circle6" cx="35.977" cy="35.958" r="23" fill="none" stroke="#000" stroke-miterlimit="10" stroke-width="2"/><path id="path7" fill="none" stroke="#000" stroke-miterlimit="10" stroke-width="2" d="m 42.8472,45.6583 c 0,-2.592 -3.834,-4.694 -6.869,-4.694 -3.035,0 -6.869,2.101 -6.869,4.694 0,2.593 3.659,0.9248 6.694,0.9248 3.035,0 7.044,1.6669 7.044,-0.9248 z"/><path id="path8" d="m 29.9772,32.9583 a 3,3 0 1 1 -3,-3 3.0011,3.0011 0 0 1 3,3"/><path id="path9" d="m 47.9772,32.9583 a 3,3 0 1 1 -3,-3 3.0011,3.0011 0 0 1 3,3"/></g></svg>