<svg xmlns="http://www.w3.org/2000/svg" xmlns:svg="http://www.w3.org/2000/svg" id="emoji" width="48" height="48" version="1.1" viewBox="0 0 48 48"><g id="color" transform="translate(-12,-12)"><path id="path1" fill="#fcea2b" stroke="none" d="m 36.2002,13.3163 c -12.5719,0 -22.7998,10.2279 -22.7998,22.7998 0,12.5718 10.2279,22.7998 22.7998,22.7998 C 48.772,58.9159 59,48.6879 59,36.1161 59,23.5442 48.772,13.3163 36.2002,13.3163 Z"/><path id="path2" fill="#fff" stroke="none" d="m 28,51 c 0.2704,-0.3562 3.3099,-8.2177 8.4211,-8.0038 4.6054,0.1927 7.2288,7.541 7.5789,8.0038 -5.3333,0 -10.6667,0 -16,0 z"/></g><g id="line" transform="translate(-12,-12)"><circle id="circle2" cx="36" cy="36" r="23" fill="none" stroke="#000" stroke-miterlimit="10" stroke-width="2"/><line id="line2" x1="44.536" x2="50.921" y1="21.439" y2="24.716" fill="none" stroke="#000" stroke-linecap="round" stroke-linejoin="round" stroke-miterlimit="10" stroke-width="2"/><line id="line3" x1="26.921" x2="20.536" y1="21.439" y2="24.716" fill="none" stroke="#000" stroke-linecap="round" stroke-linejoin="round" stroke-miterlimit="10" stroke-width="2"/><path id="path3" fill="none" stroke="#000" stroke-linecap="round" stroke-linejoin="round" stroke-miterlimit="10" stroke-width="2" d="m 24,28 c 2.3334,1.3333 4.6666,2.6667 7,4 -2.3334,1.3333 -4.6666,2.6667 -7,4"/><path id="path4" fill="none" stroke="#000" stroke-linecap="round" stroke-linejoin="round" stroke-miterlimit="10" stroke-width="2" d="m 48,28 c -2.3334,1.3333 -4.6666,2.6667 -7,4 2.3334,1.3333 4.6666,2.6667 7,4"/><path id="path5" fill="none" stroke="#000" stroke-linecap="round" stroke-linejoin="round" stroke-miterlimit="10" stroke-width="2" d="m 28,51 c 0.2704,-0.3562 1,-8 8.4211,-8.0038 C 43,42.9929 43.6499,50.5372 44,51 38.6667,51 33.3333,51 28,51 Z"/></g></svg>