<?xml version="1.0" encoding="UTF-8" standalone="no"?>
<svg
   id="emoji"
   viewBox="0 0 48 48"
   version="1.1"
   sodipodi:docname="1f62d.svg"
   width="48"
   height="48"
   xmlns:inkscape="http://www.inkscape.org/namespaces/inkscape"
   xmlns:sodipodi="http://sodipodi.sourceforge.net/DTD/sodipodi-0.dtd"
   xmlns="http://www.w3.org/2000/svg"
   xmlns:svg="http://www.w3.org/2000/svg">
  <defs
     id="defs12" />
  <sodipodi:namedview
     id="namedview12"
     pagecolor="#ffffff"
     bordercolor="#000000"
     borderopacity="0.25"
     inkscape:showpageshadow="2"
     inkscape:pageopacity="0.0"
     inkscape:pagecheckerboard="0"
     inkscape:deskcolor="#d1d1d1" />
  <g
     id="line-supplement"
     transform="translate(-12,-12)">
    <path
       fill="none"
       stroke="#000000"
       stroke-linecap="round"
       stroke-linejoin="round"
       stroke-width="2"
       d="M 52,52.38 C 52.8775,50.749 53,47 53,45 53,41 49,34 49,34"
       id="path1" />
    <path
       fill="none"
       stroke="#000000"
       stroke-linecap="round"
       stroke-linejoin="round"
       stroke-width="2"
       d="m 44,36 c 0,0 3,6.728 3,10 0,3.065 -1,8 -1,10"
       id="path2" />
    <path
       fill="none"
       stroke="#000000"
       stroke-linecap="round"
       stroke-linejoin="round"
       stroke-width="2"
       d="M 20,52.4 C 19.1225,50.769 19,47 19,45 19,41 23,34 23,34"
       id="path3" />
    <path
       fill="none"
       stroke="#000000"
       stroke-linecap="round"
       stroke-linejoin="round"
       stroke-width="2"
       d="m 28,36 c 0,0 -3,6.728 -3,10 0,3.065 1,8 1,10"
       id="path4" />
  </g>
  <g
     id="color"
     transform="translate(-12,-12)">
    <path
       fill="#fcea2b"
       d="m 36.2,13.32 c -12.57,0 -22.8,10.23 -22.8,22.8 0,12.57 10.23,22.8 22.8,22.8 C 48.77,58.92 59,48.69 59,36.12 59,23.55 48.77,13.32 36.2,13.32 Z"
       id="path5" />
    <path
       fill-rule="evenodd"
       d="m 35.93,51.58 c -2.461,0 -4.742,-2.368 -4.742,-4.987 0,-2.619 2.444,-4.66 4.905,-4.66 2.461,0 4.701,2.205 4.701,4.823 0,2.618 -2.403,4.823 -4.864,4.823 z"
       id="path6" />
    <path
       fill="#ffffff"
       d="m 31.37,45.29 c 2.025,1.288 7.318,1.288 9.26,0 L 36,41.285 Z"
       id="path7" />
    <path
       fill="#92d3f5"
       d="m 29.7,32.02 c -5.762,9.541 -3.86,14.27 -3.696,23.98 0,1.803 -5.146,-2.412 -6,-4 -2.17,-5.92 -0.3989,-13.81 2.5,-19.18 2.887,-1.622 6.992,-2.084 7.196,-0.8031 z"
       id="path8" />
    <path
       fill="#92d3f5"
       d="m 42.3,32.4 c 5.762,9.541 3.86,13.27 3.696,22.98 0,1.803 5.396,-2.412 6.25,-4 2.17,-5.92 0.1489,-12.81 -2.75,-18.18 -2.887,-1.622 -6.992,-2.084 -7.196,-0.8031 z"
       id="path9" />
  </g>
  <g
     id="line"
     transform="translate(-12,-12)">
    <path
       fill="none"
       stroke="#000000"
       stroke-linecap="round"
       stroke-linejoin="round"
       stroke-width="2"
       d="m 40.5,32.82 c 0.4132,-0.344 2.246,-1.792 4.909,-1.636 2.161,0.1259 3.61,1.233 4.091,1.636"
       id="path10" />
    <path
       fill="none"
       stroke="#000000"
       stroke-linecap="round"
       stroke-linejoin="round"
       stroke-width="2"
       d="m 22.5,32.82 c 0.4132,-0.344 2.246,-1.792 4.909,-1.636 2.161,0.1259 3.61,1.233 4.091,1.636"
       id="path11" />
    <circle
       cx="36"
       cy="36"
       r="23"
       fill="none"
       stroke="#000000"
       stroke-miterlimit="10"
       stroke-width="2"
       id="circle11" />
    <circle
       cx="36"
       cy="46.599998"
       r="4.7589998"
       fill="none"
       stroke="#000000"
       stroke-linecap="round"
       stroke-linejoin="round"
       stroke-width="2"
       id="circle12" />
  </g>
</svg>
