<svg xmlns="http://www.w3.org/2000/svg" xmlns:svg="http://www.w3.org/2000/svg" id="emoji" width="48" height="48" version="1.1" viewBox="0 0 48 48"><g id="color" transform="translate(-12,-12)"><path id="path1" fill="#fcea2b" d="m 36.2002,13.3163 c -12.5719,0 -22.7998,10.2279 -22.7998,22.7998 0,12.5718 10.2279,22.7998 22.7998,22.7998 C 48.772,58.9159 59,48.6879 59,36.1161 59,23.5442 48.772,13.3163 36.2002,13.3163 Z"/><path id="path2" fill="#92d3f5" d="m 22.7747,33.8245 c -1.0767,1.1019 -3.115,3.4878 -3.2924,5.9164 -0.1111,1.521 1.1185,2.9431 2.6365,3.0534 1.5693,0.1143 2.9388,-1.0681 3.0546,-2.6364 v 0 c 0.1769,-2.4292 -1.4936,-5.0861 -2.3987,-6.3334 z"/></g><g id="line" transform="translate(-12,-12)"><circle id="circle2" cx="36" cy="36" r="23" fill="none" stroke="#000" stroke-miterlimit="10" stroke-width="2"/><path id="path3" fill="none" stroke="#000" stroke-linecap="round" stroke-linejoin="round" stroke-miterlimit="10" stroke-width="2" d="m 26.5,48 c 1.8768,-3.8326 5.8239,-6.1965 10,-6 3.8343,0.1804 7.2926,2.4926 9,6"/><path id="path4" fill="none" stroke="#000" stroke-miterlimit="10" stroke-width="2" d="m 20.3869,41.6299 c -0.5326,-0.5326 -0.8258,-1.2405 -0.8256,-1.9936 0,-2.4789 2.3433,-4.8508 2.443,-4.9505 0.2074,-0.2074 0.5431,-0.2072 0.7503,0 0.0998,0.0998 2.4432,2.4718 2.4437,4.9512 l 2e-4,2e-4 c -7e-4,1.5535 -1.2653,2.8177 -2.8189,2.8175 -0.7523,9e-4 -1.4601,-0.2923 -1.9927,-0.8248 z"/><path id="path5" d="m 30,31 c 0,1.6568 -1.3448,3 -3,3 -1.6553,0 -3,-1.3433 -3,-3 0,-1.6552 1.3447,-3 3,-3 1.6552,0 3,1.3448 3,3"/><path id="path6" d="m 48,31 c 0,1.6568 -1.3447,3 -3,3 -1.6553,0 -3,-1.3433 -3,-3 0,-1.6552 1.3447,-3 3,-3 1.6553,0 3,1.3448 3,3"/></g></svg>