<svg xmlns="http://www.w3.org/2000/svg" xmlns:svg="http://www.w3.org/2000/svg" id="emoji" width="48.003" height="56.283" version="1.1" viewBox="0 0 48.003 56.283"><g id="color" transform="translate(-12.167624,-7.7197396)"><path id="path1" fill="#fcea2b" d="m 22.729,51.4623 a 23.8831,23.8831 0 1 1 27.72,-0.5986 c 0,0 -6.6507,4.6412 -14.279,4.6412 A 24.4594,24.4594 0 0 1 22.729,51.4623 Z"/><path id="path2" fill="#d0cfce" d="m 40.452,59.156 a 3.1437,3.1437 0 0 0 -0.0224,-0.3616 2.6344,2.6344 0 0 0 2.17,-2.4056 2.1583,2.1583 0 0 0 -0.3752,-1.2049 3.9224,3.9224 0 0 0 3.136,-3.5746 c -6e-4,-2.0838 -2.062,-3.7726 -4.6044,-3.7721 a 5.6077,5.6077 0 0 0 -0.6185,0.0381 l -2.3021,-5.29 H 33.6321 L 31.2693,47.84 31.2422,47.8389 c -2.5424,0 -4.6029,1.69 -4.6024,3.7737 a 3.8021,3.8021 0 0 0 2.6453,3.41 2.19,2.19 0 0 0 -0.4957,1.3686 2.7049,2.7049 0 0 0 2.4742,2.4667 c -0.0095,0.0992 -0.0184,0.1985 -0.0184,0.3 6e-4,2.0837 2.062,3.7726 4.6044,3.7721 2.5424,-5e-4 4.6029,-1.69 4.6024,-3.774 z"/><path id="path3" fill="#fff" d="M 40.452,59.3012 A 3.16,3.16 0 0 0 40.43,58.94 a 2.6345,2.6345 0 0 0 2.17,-2.4056 2.1583,2.1583 0 0 0 -0.3752,-1.2049 3.9224,3.9224 0 0 0 3.136,-3.5746 c -6e-4,-2.0838 -2.062,-3.7726 -4.6044,-3.7721 a 5.6077,5.6077 0 0 0 -0.6185,0.0381 l -0.6468,-1.2458 a 4.4852,4.4852 0 0 1 -2.6157,1.8326 2.1584,2.1584 0 0 1 0.3752,1.205 2.6342,2.6342 0 0 1 -2.17,2.4055 3.1454,3.1454 0 0 1 0.0224,0.3617 c 0,2.0837 -2.06,3.7732 -4.6024,3.7737 a 5.479,5.479 0 0 1 -1.6588,-0.2563 2.0627,2.0627 0 0 0 -0.0521,0.44 2.7051,2.7051 0 0 0 2.4743,2.4666 c -0.0095,0.0992 -0.0184,0.1986 -0.0184,0.3 6e-4,2.0837 2.062,3.7725 4.6044,3.772 2.5424,-5e-4 4.6025,-1.691 4.602,-3.7747 z"/><path id="path4" fill="#fff" d="m 36.0219,38.6794 c 2.2919,0.0047 6.3823,0.9679 6.3823,2.4233 0,3.06 -3.09,3.2728 -6.4042,3.2722 -3.2912,0 -6.624,-0.1615 -6.624,-3.1813 0,-1.0505 4.164,-2.5193 6.6459,-2.5142 z"/></g><g id="line" transform="translate(-12.167624,-7.7197396)"><path id="path5" fill="none" stroke="#000" stroke-linecap="round" stroke-linejoin="round" stroke-width="2" d="m 33.6029,43.5631 -2.3336,4.4614 -0.0271,-0.0011 c -2.5424,0 -4.6029,1.6775 -4.6024,3.7457 a 3.7782,3.7782 0 0 0 2.6453,3.3847 2.1643,2.1643 0 0 0 -0.4957,1.3585 2.6943,2.6943 0 0 0 2.4742,2.4484 c -0.0095,0.0984 -0.0184,0.1971 -0.0184,0.2975 6e-4,2.0683 2.062,3.7446 4.6044,3.7441 2.5424,-5e-4 4.6029,-1.6774 4.6024,-3.7457 A 3.0971,3.0971 0 0 0 40.4296,58.8977 2.6218,2.6218 0 0 0 42.6,56.51 a 2.1319,2.1319 0 0 0 -0.3752,-1.196 3.9022,3.9022 0 0 0 3.136,-3.5481 c -6e-4,-2.0682 -2.062,-3.7446 -4.6044,-3.7441 a 5.6567,5.6567 0 0 0 -0.6185,0.0378 l -2.352,-4.4964"/><path id="path6" fill="none" stroke="#000" stroke-linecap="round" stroke-linejoin="round" stroke-width="2" d="M 23.2256,50.7311 A 23.0008,23.0008 0 1 1 49.9217,50.1546"/><path id="path7" fill="none" stroke="#000" stroke-linecap="round" stroke-miterlimit="10" stroke-width="2" d="m 40.4759,26.3119 a 4.7262,4.7262 0 0 0 8.6382,0"/><path id="path8" fill="none" stroke="#000" stroke-linecap="round" stroke-miterlimit="10" stroke-width="2" d="m 23.2259,26.3119 a 4.7262,4.7262 0 0 0 8.6382,0"/><path id="path9" fill="none" stroke="#000" stroke-linecap="round" stroke-linejoin="round" stroke-width="2" d="m 31.1048,42.6884 a 1.5162,1.5162 0 0 1 -0.8222,-1.3939 c 0,-2.198 3.4938,-3.4248 5.6918,-3.4248 2.198,0 5.52,1.2268 5.52,3.4248 A 1.6853,1.6853 0 0 1 40.1185,42.95"/></g></svg>