<?xml version="1.0" encoding="UTF-8" standalone="no"?>
<svg
   id="emoji"
   viewBox="0 0 54 58.679832"
   version="1.1"
   sodipodi:docname="1f63c.svg"
   width="54"
   height="58.679832"
   xmlns:inkscape="http://www.inkscape.org/namespaces/inkscape"
   xmlns:sodipodi="http://sodipodi.sourceforge.net/DTD/sodipodi-0.dtd"
   xmlns="http://www.w3.org/2000/svg"
   xmlns:svg="http://www.w3.org/2000/svg">
  <defs
     id="defs12" />
  <sodipodi:namedview
     id="namedview12"
     pagecolor="#ffffff"
     bordercolor="#000000"
     borderopacity="0.25"
     inkscape:showpageshadow="2"
     inkscape:pageopacity="0.0"
     inkscape:pagecheckerboard="0"
     inkscape:deskcolor="#d1d1d1" />
  <g
     id="color"
     transform="translate(-9,-5.3202146)">
    <path
       fill="#f4aa41"
       d="m 58.6655,48.9454 c -3.5976,9.1169 -12.6313,15.0413 -23.2072,15.0413 -9.1173,0 -19.256,-5.7342 -22.8537,-14.8511 L 12.4784,48.8229 C 11.3369,45.9632 11.5211,42.463 11.5211,39.1905 L 15.188,6.8192 25.4161,16.8991 c 2.9226,-1.2477 6.137,-1.9388 9.5103,-1.9388 H 35.99 c 3.3734,0 6.5877,0.6911 9.5103,1.9388 L 56.7285,5.8192 60.4508,39.695 c 0,3.2725 -0.6283,6.3969 -1.7707,9.2566"
       id="path1" />
    <path
       fill="#e27022"
       d="M 35.4583,63.9866 C 46.0671,64.3291 55.8124,58.0961 59.41,48.9792 l 0.1109,-0.231 c 1.1415,-2.8597 0.9579,-6.8965 0.9579,-10.169 l -3.7503,-31.76"
       id="path2" />
    <path
       fill="#ea5a47"
       d="M 33.4302,53.7799 C 37.7056,56.5813 43,53.2461 43.7606,50.0969 l 1.0825,-0.96 c 0,0 -4.7131,3.6039 -7.9674,-1.0495 0.2153,4.0063 -1.5621,5.151 -3.3756,5.7404"
       id="path3" />
    <path
       fill="#ffffff"
       d="m 55.1059,33.7407 c 0,0 -13.9059,5.8784 -13.2519,6.6249 13.3058,12.1032 14.3499,-4.9389 13.2519,-6.6249 z"
       id="path4" />
    <path
       fill="#ffffff"
       d="m 16.8941,33.7407 c 0,0 12.8659,6.9184 13.2519,6.6249 C 17.3013,53.1035 15.5971,36.5063 16.8941,33.7407 Z"
       id="path5" />
  </g>
  <g
     id="hair"
     transform="translate(-9,-5.3202146)" />
  <g
     id="skin"
     transform="translate(-9,-5.3202146)" />
  <g
     id="skin-shadow"
     transform="translate(-9,-5.3202146)" />
  <g
     id="line"
     transform="translate(-9,-5.3202146)">
    <line
       x1="34"
       x2="40.16"
       y1="46.8801"
       y2="46.8801"
       fill="none"
       stroke="#000000"
       stroke-linecap="round"
       stroke-linejoin="round"
       stroke-miterlimit="10"
       stroke-width="2"
       id="line5" />
    <path
       fill="none"
       stroke="#000000"
       stroke-linecap="round"
       stroke-linejoin="round"
       stroke-miterlimit="10"
       stroke-width="2"
       d="M 33.4302,53.7609 C 37.7056,56.5623 43,53.2271 43.7606,50.0779 l 1.0825,-0.96 c 0,0 -4.7131,3.6039 -7.9674,-1.0495 0.2153,4.0063 -1.5621,5.151 -3.3756,5.7404"
       id="path6" />
    <path
       fill="none"
       stroke="#000000"
       stroke-linecap="round"
       stroke-linejoin="round"
       stroke-miterlimit="10"
       stroke-width="2"
       d="m 55.1059,33.7217 c 0,0 -13.9059,5.8784 -13.2519,6.6249 13.3058,12.1032 14.3499,-4.939 13.2519,-6.6249 z"
       id="path7" />
    <line
       x1="62"
       x2="52.639999"
       y1="54.160099"
       y2="48.960098"
       fill="none"
       stroke="#000000"
       stroke-linecap="round"
       stroke-linejoin="round"
       stroke-miterlimit="10"
       stroke-width="2"
       id="line7" />
    <line
       x1="57.84"
       x2="48.48"
       y1="59.3601"
       y2="54.160099"
       fill="none"
       stroke="#000000"
       stroke-linecap="round"
       stroke-linejoin="round"
       stroke-miterlimit="10"
       stroke-width="2"
       id="line8" />
    <path
       fill="none"
       stroke="#000000"
       stroke-linecap="round"
       stroke-linejoin="round"
       stroke-miterlimit="10"
       stroke-width="2"
       d="M 13.2916,48.0318 C 12.1744,45.2663 11.56,42.2448 11.56,39.0801 L 15.2,6.3201 26.1799,17.035 c 2.858,-1.2066 6.0013,-1.8749 9.3001,-1.8749 h 1.04 c 3.2988,0 6.4411,0.6683 9.3011,1.8749 L 56.8,6.3201 l 3.64,32.76 c 0,3.1647 -0.6144,6.1862 -1.7316,8.9517"
       id="path8" />
    <path
       fill="none"
       stroke="#000000"
       stroke-linecap="round"
       stroke-linejoin="round"
       stroke-miterlimit="10"
       stroke-width="2"
       d="M 22.8253,59.3824 C 26.4968,61.6757 30.8335,63 35.48,63 h 1.04 c 4.6465,0 8.9842,-1.3243 12.6547,-3.6176"
       id="path9" />
    <path
       fill="none"
       stroke="#000000"
       stroke-linecap="round"
       stroke-linejoin="round"
       stroke-miterlimit="10"
       stroke-width="2"
       d="m 16.8941,33.7217 c 0,0 12.8659,6.9184 13.2519,6.6249 C 17.3013,53.0845 15.5971,36.4872 16.8941,33.7217 Z"
       id="path10" />
    <line
       x1="10"
       x2="19.360001"
       y1="54.160099"
       y2="48.960098"
       fill="none"
       stroke="#000000"
       stroke-linecap="round"
       stroke-linejoin="round"
       stroke-miterlimit="10"
       stroke-width="2"
       id="line10" />
    <line
       x1="14.16"
       x2="23.52"
       y1="59.3601"
       y2="54.160099"
       fill="none"
       stroke="#000000"
       stroke-linecap="round"
       stroke-linejoin="round"
       stroke-miterlimit="10"
       stroke-width="2"
       id="line11" />
    <circle
       cx="23.52"
       cy="38.560101"
       r="2.0799999"
       id="circle11" />
    <circle
       cx="48.48"
       cy="38.560101"
       r="2.0799999"
       id="circle12" />
  </g>
</svg>
