<svg xmlns="http://www.w3.org/2000/svg" xmlns:svg="http://www.w3.org/2000/svg" id="emoji" width="48" height="48" version="1.1" viewBox="0 0 48 48"><g id="color" transform="translate(-12,-11.999936)"><circle id="circle1" cx="36" cy="36" r="24" fill="#fcea2b"/><path id="path1" stroke="#fff" stroke-linecap="round" stroke-linejoin="round" stroke-miterlimit="10" stroke-width="2" d="M 58.87,38.37 44.59,51.97"/><path id="path2" fill="#fff" d="m 40.55,55.13 c -1.106,0.342 -8.026,0.6917 -9.083,0.2118 -9.386,-4.261 -9.325,-11.73 -10.13,-16.94 2.693,-1.103 26.93,-0.07676 28.96,-0.1059 -0.5355,9.32 -2.022,11.1 -9.751,16.84 z"/><path id="path3" stroke="#fff" stroke-linecap="round" stroke-linejoin="round" stroke-miterlimit="10" stroke-width="2" d="m 58.91,34.37 -8.4,4.853"/><path id="path4" stroke="#fff" stroke-linecap="round" stroke-linejoin="round" stroke-miterlimit="10" stroke-width="2" d="m 13.17,38.37 13.96,13.6"/><path id="path5" stroke="#fff" stroke-linecap="round" stroke-linejoin="round" stroke-miterlimit="10" stroke-width="2" d="m 13.13,34.37 8.4,4.853"/></g><g id="line" fill="none" stroke="#000" stroke-linecap="round" stroke-linejoin="round" stroke-miterlimit="10" stroke-width="2" transform="translate(-12,-11.999936)"><path id="path6" d="m 23.24,32.01 c 0,0 3.439,-2.888 7.849,-1.546"/><path id="path7" d="m 48.76,32.01 c 0,0 -3.439,-2.888 -7.849,-1.546"/><path id="path8" d="m 58.91,33.52 -8.427,4.775"/><path id="path9" d="M 58.23,30.14 C 55.642,20.298 46.69,13.03 36.04,13 25.36,12.975 16.36,20.237 13.75,30.1"/><path id="path10" d="M 14.49,44.21 C 17.788,52.84 26.14,58.98 35.93,59 45.763,59.02297 54.17,52.872 57.48,44.2"/><path id="path11" d="m 21.52,38.4 28.96,-0.1059 c 0,22.21 -28.96,22.25 -28.96,0.1118 z"/><path id="path12" d="M 58.96,37.35 48.37,47.65"/><path id="path13" d="m 13.05,33.52 8.427,4.775"/><path id="path14" d="m 13,37.35 10.59,10.3"/></g></svg>