<svg xmlns="http://www.w3.org/2000/svg" xmlns:svg="http://www.w3.org/2000/svg" id="emoji" width="54" height="58.68" version="1.1" viewBox="0 0 54 58.68"><g id="color" transform="translate(-9,-5.3201146)"><path id="path1" fill="#f4aa41" d="m 58.6655,48.8322 c -3.5976,9.1169 -12.6313,15.1546 -23.2072,15.1546 -9.1173,0 -19.256,-5.8476 -22.8536,-14.9645 L 12.4785,48.7096 C 11.337,45.8499 11.5212,42.3497 11.5212,39.0772 L 15.1881,6.706 25.4162,16.7859 c 2.9226,-1.2477 6.137,-1.9388 9.5103,-1.9388 H 35.99 c 3.3733,0 6.5877,0.6911 9.5103,1.9388 L 56.7285,5.706 60.4508,39.5818 c 0,3.2725 -0.6283,6.3969 -1.7707,9.2566"/><path id="path2" fill="#e27022" d="M 35.4583,63.9868 C 46.0671,64.3293 55.8124,57.9828 59.41,48.866 l 0.1109,-0.231 c 1.1415,-2.8597 0.9579,-6.8965 0.9579,-10.169 L 56.7285,5.706"/></g><g id="line" transform="translate(-9,-5.3201146)"><line id="line2" x1="62" x2="52.64" y1="54.16" y2="48.96" fill="none" stroke="#000" stroke-linecap="round" stroke-linejoin="round" stroke-miterlimit="10" stroke-width="2"/><line id="line3" x1="57.84" x2="48.48" y1="59.36" y2="54.16" fill="none" stroke="#000" stroke-linecap="round" stroke-linejoin="round" stroke-miterlimit="10" stroke-width="2"/><path id="path3" fill="none" stroke="#000" stroke-linecap="round" stroke-linejoin="round" stroke-miterlimit="10" stroke-width="2" d="M 13.2916,48.0317 C 12.1744,45.2662 11.56,42.2447 11.56,39.08 L 15.2,6.32 26.1799,17.0349 C 29.0379,15.8283 32.1812,15.16 35.48,15.16 h 1.04 c 3.2988,0 6.4421,0.6683 9.3001,1.8749 L 56.8,6.3201 l 3.64,32.76 c 0,3.1647 -0.6144,6.1862 -1.7316,8.9517"/><path id="path4" fill="none" stroke="#000" stroke-linecap="round" stroke-linejoin="round" stroke-miterlimit="10" stroke-width="2" d="M 22.8253,59.3824 C 26.4968,61.6757 30.8335,63 35.48,63 h 1.04 c 4.6465,0 8.9852,-1.3243 12.6547,-3.6176"/><line id="line4" x1="10" x2="19.36" y1="54.16" y2="48.96" fill="none" stroke="#000" stroke-linecap="round" stroke-linejoin="round" stroke-miterlimit="10" stroke-width="2"/><line id="line5" x1="14.16" x2="23.52" y1="59.36" y2="54.16" fill="none" stroke="#000" stroke-linecap="round" stroke-linejoin="round" stroke-miterlimit="10" stroke-width="2"/><path id="path5" fill="none" stroke="#000" stroke-linecap="round" stroke-linejoin="round" stroke-miterlimit="10" stroke-width="2" d="m 55.24,38.9292 c -3.12,-4.16 -9.36,-4.16 -11.44,0"/><path id="path6" fill="none" stroke="#000" stroke-linecap="round" stroke-linejoin="round" stroke-miterlimit="10" stroke-width="2" d="m 16.76,38.9292 c 3.12,-4.16 9.36,-4.16 11.44,0"/><path id="path7" fill="none" stroke="#000" stroke-linecap="round" stroke-linejoin="round" stroke-miterlimit="10" stroke-width="2" d="m 35.6476,47.6836 c 0,0 10.9458,3.3234 0,5.7862 0,0 10.876,3.1078 0,5.109"/></g></svg>