<svg xmlns="http://www.w3.org/2000/svg" xmlns:svg="http://www.w3.org/2000/svg" id="emoji" width="48" height="48" version="1.1" viewBox="0 0 48 48"><g id="color" transform="translate(-12,-12)"><circle id="circle1" cx="36" cy="36" r="23" fill="#fcea2b"/><path id="path1" fill="#fff" d="M 43.1797,51.8701 H 28.8106 c 0,-4 2.3896,-7.1796 7.1797,-7.1796 4.789,0 7.2099,3.1894 7.2099,7.1796"/></g><g id="line" transform="translate(-12,-12)"><path id="path2" fill="none" stroke="#000" stroke-linecap="round" stroke-linejoin="round" stroke-miterlimit="10" stroke-width="2" d="M 43.1797,51.8701 H 28.8106 c 0,-4 2.3896,-7.1796 7.1797,-7.1796 4.789,0 7.2099,3.1894 7.2099,7.1796"/><path id="path3" fill="none" stroke="#000" stroke-linecap="round" stroke-linejoin="round" stroke-miterlimit="10" stroke-width="2" d="m 20.2793,27.2002 c 0.7207,-1.3857 1.9278,-2.4541 3.3907,-3 1.4052,-0.7002 3.0205,-0.8486 4.5302,-0.4209"/><path id="path4" fill="none" stroke="#000" stroke-linecap="round" stroke-linejoin="round" stroke-miterlimit="10" stroke-width="2" d="M 50.8897,27.2002 C 49.3077,24.4278 46.086,23.0303 42.9805,23.7696"/><circle id="circle4" cx="36" cy="36" r="23" fill="none" stroke="#000" stroke-linecap="round" stroke-linejoin="round" stroke-miterlimit="10" stroke-width="2"/><path id="path5" d="m 30,34 c 0,1.6568 -1.3448,3 -3,3 -1.6553,0 -3,-1.3433 -3,-3 0,-1.6552 1.3447,-3 3,-3 1.6552,0 3,1.3448 3,3"/><path id="path6" d="m 48,34 c 0,1.6568 -1.3447,3 -3,3 -1.6553,0 -3,-1.3433 -3,-3 0,-1.6552 1.3447,-3 3,-3 1.6553,0 3,1.3448 3,3"/><path id="path7" fill="none" stroke="#000" stroke-linecap="round" stroke-linejoin="round" stroke-miterlimit="10" stroke-width="2" d="m 20.6948,27.2002 c 0.7207,-1.3857 1.9278,-2.4541 3.3907,-3 1.4052,-0.7002 3.0205,-0.8486 4.5302,-0.4209"/><path id="path8" fill="none" stroke="#000" stroke-linecap="round" stroke-linejoin="round" stroke-miterlimit="10" stroke-width="2" d="M 51.3052,27.2002 C 49.7232,24.4278 46.5015,23.0303 43.396,23.7696"/></g></svg>