<svg xmlns="http://www.w3.org/2000/svg" xmlns:svg="http://www.w3.org/2000/svg" id="emoji" width="51.875" height="48.012" version="1.1" viewBox="0 0 51.875 48.012"><g id="color" transform="translate(-8.1312319,-11.9939)"><circle id="circle1" cx="36" cy="36" r="24" fill="#fcea2b"/><path id="path1" fill="#92d3f5" d="m 9.2458,27.724 c -0.2538,-1.041 -0.087,-2.1185 0.4698,-3.0339 1.8322,-3.0136 6.4342,-4.1651 6.629,-4.2126 0.4053,-0.0988 0.8134,0.1495 0.9122,0.5546 0.0476,0.1952 1.1432,4.8107 -0.6888,7.8253 l 10e-5,4e-4 C 15.419,30.7458 12.9473,31.348 11.0587,30.1994 10.1434,29.6445 9.4996,28.765 9.2458,27.724 Z"/></g><g id="line" transform="translate(-8.1312319,-11.9939)"><path id="path2" d="m 30,31 c 0,1.6568 -1.3448,3 -3,3 -1.6553,0 -3,-1.3433 -3,-3 0,-1.6552 1.3447,-3 3,-3 1.6552,0 3,1.3448 3,3"/><path id="path3" d="m 48,31 c 0,1.6568 -1.3447,3 -3,3 -1.6553,0 -3,-1.3433 -3,-3 0,-1.6552 1.3447,-3 3,-3 1.6553,0 3,1.3448 3,3"/><path id="path4" fill="none" stroke="#000" stroke-linecap="round" stroke-linejoin="round" stroke-miterlimit="10" stroke-width="2" d="m 26.5,48 c 1.8768,-3.8326 5.8239,-6.1965 10,-6 3.8343,0.1804 7.2926,2.4926 9,6"/><path id="path5" fill="none" stroke="#000" stroke-linecap="round" stroke-linejoin="round" stroke-miterlimit="10" stroke-width="2" d="m 23.1483,24.2501 c 0.4872,0.2275 2.6277,1.1608 5.1639,0.3327 2.0576,-0.6718 3.1771,-2.1117 3.5396,-2.6239"/><path id="path6" fill="none" stroke="#000" stroke-linecap="round" stroke-linejoin="round" stroke-miterlimit="10" stroke-width="2" d="m 48.8517,24.2501 c -0.4872,0.2275 -2.6277,1.1608 -5.1639,0.3327 -2.0576,-0.6718 -3.1771,-2.1117 -3.5396,-2.6239"/><path id="path7" fill="none" stroke="#000" stroke-miterlimit="10" stroke-width="2" d="m 9.2458,27.724 c -0.2538,-1.041 -0.087,-2.1185 0.4698,-3.0339 1.8322,-3.0136 6.4342,-4.1651 6.629,-4.2126 0.4053,-0.0988 0.8134,0.1495 0.9122,0.5546 0.0476,0.1952 1.1432,4.8107 -0.6888,7.8253 l 10e-5,4e-4 C 15.419,30.7458 12.9473,31.348 11.0587,30.1994 10.1434,29.6445 9.4996,28.765 9.2458,27.724 Z"/><path id="path8" fill="none" stroke="#000" stroke-linecap="round" stroke-miterlimit="10" stroke-width="2" d="M 21.9967,17.7451 C 25.8754,14.7653 30.7308,12.9939 36,12.9939 48.7059,12.9939 59.0061,23.2941 59.0061,36 59.0061,48.7059 48.7059,59.0061 36,59.0061 23.2941,59.0061 12.9939,48.7059 12.9939,36 c 0,-0.396 0.01,-0.7896 0.0298,-1.1807"/></g></svg>