<?xml version="1.0" encoding="UTF-8" standalone="no"?>
<svg
   id="emoji"
   viewBox="0 0 48 48"
   version="1.1"
   sodipodi:docname="1f635.svg"
   width="48"
   height="48"
   xmlns:inkscape="http://www.inkscape.org/namespaces/inkscape"
   xmlns:sodipodi="http://sodipodi.sourceforge.net/DTD/sodipodi-0.dtd"
   xmlns="http://www.w3.org/2000/svg"
   xmlns:svg="http://www.w3.org/2000/svg">
  <defs
     id="defs5" />
  <sodipodi:namedview
     id="namedview5"
     pagecolor="#ffffff"
     bordercolor="#000000"
     borderopacity="0.25"
     inkscape:showpageshadow="2"
     inkscape:pageopacity="0.0"
     inkscape:pagecheckerboard="0"
     inkscape:deskcolor="#d1d1d1" />
  <g
     id="color"
     transform="translate(-12,-12)">
    <path
       fill="#fcea2b"
       d="M 36,13 C 23.3177,13 13,23.3177 13,36 13,48.6822 23.3177,59 36,59 48.6822,59 59,48.6822 59,36 59,23.3177 48.6822,13 36,13 Z"
       id="path1" />
  </g>
  <g
     id="hair"
     transform="translate(-12,-12)" />
  <g
     id="skin"
     transform="translate(-12,-12)" />
  <g
     id="skin-shadow"
     transform="translate(-12,-12)" />
  <g
     id="line"
     transform="translate(-12,-12)">
    <circle
       cx="36"
       cy="36"
       r="23"
       fill="none"
       stroke="#000000"
       stroke-miterlimit="10"
       stroke-width="2"
       id="circle1" />
    <path
       fill="none"
       stroke="#000000"
       stroke-linecap="round"
       stroke-linejoin="round"
       stroke-miterlimit="10"
       stroke-width="2"
       d="m 29.5,43 c 1.2841,-0.6376 3.9847,-1.0308 6.8421,-0.9981 2.6235,0.03 4.9897,0.4146 6.1579,0.9981"
       id="path2" />
    <line
       x1="47.5"
       x2="42.5"
       y1="29"
       y2="33"
       fill="none"
       stroke="#000000"
       stroke-linecap="round"
       stroke-linejoin="round"
       stroke-miterlimit="10"
       stroke-width="2"
       id="line2" />
    <line
       x1="42.5"
       x2="47.5"
       y1="29"
       y2="33"
       fill="none"
       stroke="#000000"
       stroke-linecap="round"
       stroke-linejoin="round"
       stroke-miterlimit="10"
       stroke-width="2"
       id="line3" />
    <line
       x1="29.5"
       x2="24.5"
       y1="29"
       y2="33"
       fill="none"
       stroke="#000000"
       stroke-linecap="round"
       stroke-linejoin="round"
       stroke-miterlimit="10"
       stroke-width="2"
       id="line4" />
    <line
       x1="24.5"
       x2="29.5"
       y1="29"
       y2="33"
       fill="none"
       stroke="#000000"
       stroke-linecap="round"
       stroke-linejoin="round"
       stroke-miterlimit="10"
       stroke-width="2"
       id="line5" />
  </g>
</svg>
