<?xml version="1.0" encoding="UTF-8" standalone="no"?>
<svg
   id="emoji"
   viewBox="0 0 64.999977 58.569386"
   version="1.1"
   sodipodi:docname="1f639.svg"
   width="64.999977"
   height="58.569386"
   xmlns:inkscape="http://www.inkscape.org/namespaces/inkscape"
   xmlns:sodipodi="http://sodipodi.sourceforge.net/DTD/sodipodi-0.dtd"
   xmlns="http://www.w3.org/2000/svg"
   xmlns:svg="http://www.w3.org/2000/svg">
  <defs
     id="defs12" />
  <sodipodi:namedview
     id="namedview12"
     pagecolor="#ffffff"
     bordercolor="#000000"
     borderopacity="0.25"
     inkscape:showpageshadow="2"
     inkscape:pageopacity="0.0"
     inkscape:pagecheckerboard="0"
     inkscape:deskcolor="#d1d1d1" />
  <g
     id="color"
     transform="translate(-3.5,-5.4306146)">
    <path
       fill="#f4aa41"
       d="M 58.6505,48.8749 C 55.0598,57.974 46.0437,64 35.4885,64 26.389,64 16.27,58.1638 12.6794,49.0646 L 12.5535,48.7525 C 11.4142,45.8985 10.6,42.4051 10.6,39.139 L 15.2597,6.8328 25.4659,16.8911 c 2.9169,-1.2453 6.125,-1.935 9.4918,-1.935 h 1.0614 c 3.3668,0 6.5749,0.6897 9.4918,1.935 l 11.2064,-11.0583 3.715,33.8098 c 0,3.2661 -0.6271,6.3845 -1.7673,9.2386"
       id="path1" />
    <path
       fill="#e27022"
       d="m 35.4885,63.6979 c 10.4781,0.3382 20.1034,-5.93 23.6567,-14.9346 l 0.1095,-0.2282 c 1.1274,-2.8244 1.9338,-6.8115 1.9338,-10.0437 L 56.4967,6.135"
       id="path2" />
    <path
       fill="#92d3f5"
       d="m 14.2466,42.8494 c -1.8488,0.1561 -5.5872,0.7259 -7.6631,2.8018 -0.6507,0.6487 -1.0076,1.5123 -1.0076,2.4286 0,0.9184 0.3569,1.782 1.0076,2.4328 1.2995,1.2994 3.564,1.2994 4.8614,0 v 0 c 2.076,-2.0759 2.6457,-5.8142 2.8017,-7.6632 z"
       id="path3" />
    <path
       fill="#92d3f5"
       d="m 57.7564,42.8494 c 0.1561,1.8489 0.7257,5.5873 2.8017,7.6632 1.2995,1.2994 3.564,1.2975 4.8615,0 1.34,-1.3401 1.34,-3.5214 0.0021,-4.8614 v 0 c -2.076,-2.0759 -5.8144,-2.6457 -7.6653,-2.8018 z"
       id="path4" />
    <path
       fill="#ea5a47"
       d="m 25.0988,49.036 c 0,0 7.7848,4.1519 10.3797,-3.1139 2.5949,7.2658 10.784,3.0641 10.784,3.0641 0,0 -2.6883,4.3726 -3.4807,5.2235 -4.0095,4.3055 -9.3823,4.0459 -13.645,0.1165 -0.9334,-0.8604 -4.038,-5.2902 -4.038,-5.2902 z"
       id="path5" />
  </g>
  <g
     id="hair"
     transform="translate(-3.5,-5.4306146)" />
  <g
     id="skin"
     transform="translate(-3.5,-5.4306146)" />
  <g
     id="skin-shadow"
     transform="translate(-3.5,-5.4306146)" />
  <g
     id="line"
     transform="translate(-3.5,-5.4306146)">
    <line
       x1="61.949799"
       x2="52.608101"
       y1="54.177299"
       y2="48.9874"
       fill="none"
       stroke="#000000"
       stroke-linecap="round"
       stroke-linejoin="round"
       stroke-miterlimit="10"
       stroke-width="2"
       id="line5" />
    <line
       x1="57.797901"
       x2="48.4562"
       y1="59.3671"
       y2="54.177299"
       fill="none"
       stroke="#000000"
       stroke-linecap="round"
       stroke-linejoin="round"
       stroke-miterlimit="10"
       stroke-width="2"
       id="line6" />
    <path
       fill="none"
       stroke="#000000"
       stroke-linecap="round"
       stroke-linejoin="round"
       stroke-miterlimit="10"
       stroke-width="2"
       d="m 11.7403,37.9376 3.5008,-31.5071 10.9585,10.694 c 2.8525,-1.2043 5.9896,-1.8713 9.282,-1.8713 h 1.038 c 3.2923,0 6.4295,0.667 9.282,1.8713 L 56.76,6.4305 60.2819,38.128"
       id="path6" />
    <path
       fill="none"
       stroke="#000000"
       stroke-linecap="round"
       stroke-linejoin="round"
       stroke-miterlimit="10"
       stroke-width="2"
       d="M 22.8515,59.3894 C 26.5159,61.6782 30.8441,63 35.4816,63 h 1.038 c 4.6375,0 8.9677,-1.3218 12.6301,-3.6106"
       id="path7" />
    <line
       x1="9.0131998"
       x2="18.355"
       y1="54.177299"
       y2="48.9874"
       fill="none"
       stroke="#000000"
       stroke-linecap="round"
       stroke-linejoin="round"
       stroke-miterlimit="10"
       stroke-width="2"
       id="line7" />
    <line
       x1="14.2031"
       x2="23.5448"
       y1="59.3671"
       y2="54.177299"
       fill="none"
       stroke="#000000"
       stroke-linecap="round"
       stroke-linejoin="round"
       stroke-miterlimit="10"
       stroke-width="2"
       id="line8" />
    <path
       fill="none"
       stroke="#000000"
       stroke-linecap="round"
       stroke-linejoin="round"
       stroke-miterlimit="10"
       stroke-width="2"
       d="m 55.203,37.9382 c -3.1139,-4.1519 -9.3418,-4.1519 -11.4177,0"
       id="path8" />
    <path
       fill="none"
       stroke="#000000"
       stroke-linecap="round"
       stroke-linejoin="round"
       stroke-miterlimit="10"
       stroke-width="2"
       d="m 16.798,37.9382 c 3.1139,-4.1519 9.3418,-4.1519 11.4177,0"
       id="path9" />
    <path
       d="m 9.0142,53.5476 c -1.4718,0 -2.8564,-0.5738 -3.8985,-1.6158 C 4.0737,50.8897 3.5,49.5051 3.5,48.0313 c 0,-1.4718 0.5737,-2.8564 1.6157,-3.8964 3.4302,-3.4302 9.952,-3.4687 10.2278,-3.4687 0.5737,0 1.038,0.4643 1.038,1.038 0,0.2757 -0.0385,6.7975 -3.4687,10.2277 v 0 c -1.0401,1.0419 -2.4248,1.6157 -3.8986,1.6157 z m 5.2324,-10.7468 c -1.8488,0.1561 -5.5872,0.7259 -7.6631,2.8018 -0.6507,0.6487 -1.0076,1.5123 -1.0076,2.4286 0,0.9184 0.3569,1.782 1.0076,2.4328 1.2995,1.2994 3.564,1.2994 4.8614,0 v 0 c 2.076,-2.0759 2.6457,-5.8142 2.8017,-7.6632 z"
       id="path10" />
    <path
       d="m 62.9909,53.5476 c -1.4739,0 -2.8585,-0.5738 -3.9006,-1.6158 -3.4301,-3.4302 -3.4686,-9.952 -3.4686,-10.2277 0,-0.5737 0.4642,-1.038 1.038,-1.038 0.2757,0 6.7994,0.0385 10.2296,3.4687 v 0 c 2.1489,2.1489 2.1469,5.648 -0.002,7.7969 -1.04,1.0421 -2.4247,1.6159 -3.8964,1.6159 z M 57.7564,42.8008 c 0.1561,1.8489 0.7257,5.5873 2.8017,7.6632 1.2995,1.2994 3.564,1.2975 4.8615,0 1.34,-1.3401 1.34,-3.5214 0.0021,-4.8614 v 0 c -2.076,-2.0759 -5.8144,-2.6457 -7.6653,-2.8018 z"
       id="path11" />
    <line
       x1="31.637501"
       x2="39.9575"
       y1="45.465698"
       y2="45.465698"
       fill="none"
       stroke="#000000"
       stroke-linecap="round"
       stroke-linejoin="round"
       stroke-miterlimit="10"
       stroke-width="2"
       id="line11" />
    <path
       fill="none"
       stroke="#000000"
       stroke-linecap="round"
       stroke-linejoin="round"
       stroke-miterlimit="10"
       stroke-width="2"
       d="m 25.3975,48.5857 c 0,0 7.8,4.16 10.4,-3.12 2.6,7.28 10.805,3.0701 10.805,3.0701 0,0 -2.6936,4.3812 -3.4875,5.2337 -4.0173,4.3139 -9.4006,4.0538 -13.6716,0.1167 -0.9352,-0.8621 -4.0459,-5.3005 -4.0459,-5.3005 z"
       id="path12" />
  </g>
</svg>
