<?xml version="1.0" encoding="UTF-8" standalone="no"?>
<svg
   id="emoji"
   viewBox="0 0 54 58.679905"
   version="1.1"
   sodipodi:docname="1f63d.svg"
   width="54"
   height="58.679905"
   xmlns:inkscape="http://www.inkscape.org/namespaces/inkscape"
   xmlns:sodipodi="http://sodipodi.sourceforge.net/DTD/sodipodi-0.dtd"
   xmlns="http://www.w3.org/2000/svg"
   xmlns:svg="http://www.w3.org/2000/svg">
  <defs
     id="defs7" />
  <sodipodi:namedview
     id="namedview7"
     pagecolor="#ffffff"
     bordercolor="#000000"
     borderopacity="0.25"
     inkscape:showpageshadow="2"
     inkscape:pageopacity="0.0"
     inkscape:pagecheckerboard="0"
     inkscape:deskcolor="#d1d1d1" />
  <g
     id="color"
     transform="translate(-9,-5.3201146)">
    <path
       fill="#f4aa41"
       d="m 58.6655,48.8322 c -3.5976,9.1169 -12.6313,15.1546 -23.2072,15.1546 -9.1173,0 -19.256,-5.8476 -22.8536,-14.9645 L 12.4785,48.7096 C 11.337,45.8499 11.5212,42.3497 11.5212,39.0772 L 15.1881,6.706 25.4162,16.7859 c 2.9226,-1.2477 6.137,-1.9388 9.5103,-1.9388 H 35.99 c 3.3733,0 6.5877,0.6911 9.5103,1.9388 L 56.7285,5.706 60.4508,39.5818 c 0,3.2725 -0.6283,6.3969 -1.7707,9.2566"
       id="path1" />
    <path
       fill="#e27022"
       d="M 35.4583,63.9868 C 46.0671,64.3293 55.8124,57.9828 59.41,48.866 l 0.1109,-0.231 c 1.1415,-2.8597 0.9579,-6.8965 0.9579,-10.169 L 56.7285,5.706"
       id="path2" />
  </g>
  <g
     id="hair"
     transform="translate(-9,-5.3201146)" />
  <g
     id="skin"
     transform="translate(-9,-5.3201146)" />
  <g
     id="skin-shadow"
     transform="translate(-9,-5.3201146)" />
  <g
     id="line"
     transform="translate(-9,-5.3201146)">
    <line
       x1="62"
       x2="52.639999"
       y1="54.16"
       y2="48.959999"
       fill="none"
       stroke="#000000"
       stroke-linecap="round"
       stroke-linejoin="round"
       stroke-miterlimit="10"
       stroke-width="2"
       id="line2" />
    <line
       x1="57.84"
       x2="48.48"
       y1="59.360001"
       y2="54.16"
       fill="none"
       stroke="#000000"
       stroke-linecap="round"
       stroke-linejoin="round"
       stroke-miterlimit="10"
       stroke-width="2"
       id="line3" />
    <path
       fill="none"
       stroke="#000000"
       stroke-linecap="round"
       stroke-linejoin="round"
       stroke-miterlimit="10"
       stroke-width="2"
       d="M 13.2916,48.0317 C 12.1744,45.2662 11.56,42.2447 11.56,39.08 L 15.2,6.32 26.1799,17.0349 C 29.0379,15.8283 32.1812,15.16 35.48,15.16 h 1.04 c 3.2988,0 6.4421,0.6683 9.3001,1.8749 L 56.8,6.3201 l 3.64,32.76 c 0,3.1647 -0.6144,6.1862 -1.7316,8.9517"
       id="path3" />
    <path
       fill="none"
       stroke="#000000"
       stroke-linecap="round"
       stroke-linejoin="round"
       stroke-miterlimit="10"
       stroke-width="2"
       d="M 22.8253,59.3824 C 26.4968,61.6757 30.8335,63 35.48,63 h 1.04 c 4.6465,0 8.9852,-1.3243 12.6547,-3.6176"
       id="path4" />
    <line
       x1="10"
       x2="19.360001"
       y1="54.16"
       y2="48.959999"
       fill="none"
       stroke="#000000"
       stroke-linecap="round"
       stroke-linejoin="round"
       stroke-miterlimit="10"
       stroke-width="2"
       id="line4" />
    <line
       x1="14.16"
       x2="23.52"
       y1="59.360001"
       y2="54.16"
       fill="none"
       stroke="#000000"
       stroke-linecap="round"
       stroke-linejoin="round"
       stroke-miterlimit="10"
       stroke-width="2"
       id="line5" />
    <path
       fill="none"
       stroke="#000000"
       stroke-linecap="round"
       stroke-linejoin="round"
       stroke-miterlimit="10"
       stroke-width="2"
       d="m 55.24,38.9292 c -3.12,-4.16 -9.36,-4.16 -11.44,0"
       id="path5" />
    <path
       fill="none"
       stroke="#000000"
       stroke-linecap="round"
       stroke-linejoin="round"
       stroke-miterlimit="10"
       stroke-width="2"
       d="m 16.76,38.9292 c 3.12,-4.16 9.36,-4.16 11.44,0"
       id="path6" />
    <path
       fill="none"
       stroke="#000000"
       stroke-linecap="round"
       stroke-linejoin="round"
       stroke-miterlimit="10"
       stroke-width="2"
       d="m 35.6476,47.6836 c 0,0 10.9458,3.3234 0,5.7862 0,0 10.876,3.1078 0,5.109"
       id="path7" />
  </g>
</svg>
