<?xml version="1.0" encoding="UTF-8" standalone="no"?>
<svg
   id="emoji"
   viewBox="0 0 48 48.00013"
   version="1.1"
   sodipodi:docname="1f637.svg"
   width="48"
   height="48.00013"
   xmlns:inkscape="http://www.inkscape.org/namespaces/inkscape"
   xmlns:sodipodi="http://sodipodi.sourceforge.net/DTD/sodipodi-0.dtd"
   xmlns="http://www.w3.org/2000/svg"
   xmlns:svg="http://www.w3.org/2000/svg">
  <defs
     id="defs14" />
  <sodipodi:namedview
     id="namedview14"
     pagecolor="#ffffff"
     bordercolor="#000000"
     borderopacity="0.25"
     inkscape:showpageshadow="2"
     inkscape:pageopacity="0.0"
     inkscape:pagecheckerboard="0"
     inkscape:deskcolor="#d1d1d1" />
  <g
     id="color"
     transform="translate(-12,-11.999936)">
    <circle
       cx="36"
       cy="36"
       r="24"
       fill="#fcea2b"
       id="circle1" />
    <path
       stroke="#ffffff"
       stroke-linecap="round"
       stroke-linejoin="round"
       stroke-miterlimit="10"
       stroke-width="2"
       d="M 58.87,38.37 44.59,51.97"
       id="path1" />
    <path
       fill="#ffffff"
       d="m 40.55,55.13 c -1.106,0.342 -8.026,0.6917 -9.083,0.2118 -9.386,-4.261 -9.325,-11.73 -10.13,-16.94 2.693,-1.103 26.93,-0.07676 28.96,-0.1059 -0.5355,9.32 -2.022,11.1 -9.751,16.84 z"
       id="path2" />
    <path
       stroke="#ffffff"
       stroke-linecap="round"
       stroke-linejoin="round"
       stroke-miterlimit="10"
       stroke-width="2"
       d="m 58.91,34.37 -8.4,4.853"
       id="path3" />
    <path
       stroke="#ffffff"
       stroke-linecap="round"
       stroke-linejoin="round"
       stroke-miterlimit="10"
       stroke-width="2"
       d="m 13.17,38.37 13.96,13.6"
       id="path4" />
    <path
       stroke="#ffffff"
       stroke-linecap="round"
       stroke-linejoin="round"
       stroke-miterlimit="10"
       stroke-width="2"
       d="m 13.13,34.37 8.4,4.853"
       id="path5" />
  </g>
  <g
     id="line"
     fill="none"
     stroke="#000000"
     stroke-linecap="round"
     stroke-linejoin="round"
     stroke-miterlimit="10"
     stroke-width="2"
     transform="translate(-12,-11.999936)">
    <path
       d="m 23.24,32.01 c 0,0 3.439,-2.888 7.849,-1.546"
       id="path6" />
    <path
       d="m 48.76,32.01 c 0,0 -3.439,-2.888 -7.849,-1.546"
       id="path7" />
    <path
       d="m 58.91,33.52 -8.427,4.775"
       id="path8" />
    <path
       d="M 58.23,30.14 C 55.642,20.298 46.69,13.03 36.04,13 25.36,12.975 16.36,20.237 13.75,30.1"
       id="path9" />
    <path
       d="M 14.49,44.21 C 17.788,52.84 26.14,58.98 35.93,59 45.763,59.02297 54.17,52.872 57.48,44.2"
       id="path10" />
    <path
       d="m 21.52,38.4 28.96,-0.1059 c 0,22.21 -28.96,22.25 -28.96,0.1118 z"
       id="path11" />
    <path
       d="M 58.96,37.35 48.37,47.65"
       id="path12" />
    <path
       d="m 13.05,33.52 8.427,4.775"
       id="path13" />
    <path
       d="m 13,37.35 10.59,10.3"
       id="path14" />
  </g>
</svg>
