<svg xmlns="http://www.w3.org/2000/svg" xmlns:svg="http://www.w3.org/2000/svg" id="emoji" width="57.35" height="52.061" version="1.1" viewBox="0 0 57.35 52.061"><g id="line-supplement" transform="translate(-7.3661193,-12)"><path id="path1" fill="none" stroke="#000" stroke-linecap="round" stroke-miterlimit="10" stroke-width="2" d="M 53.3026,38.9999 C 54.638,35.0209 53.2264,30.2155 49.6488,28 45.4709,25.4128 39.1954,26.8881 36.1579,31.952 33.1952,26.8785 26.8991,25.3716 22.667,28 c -3.4854,2.1647 -5.2226,6.9179 -3.6538,11"/></g><g id="color" transform="translate(-7.3661193,-12)"><path id="path2" fill="#6a462f" d="m 19.6924,19.3322 c -0.3299,0 -7.1412,-2.2454 -10.3066,3.9209 -2.7954,5.4454 0.1467,9.812 3.4856,13.3114"/><path id="path3" fill="#6a462f" d="m 52.2203,19.3322 c 0.3299,0 7.1412,-2.2454 10.3066,3.9209 2.7954,5.4454 -0.1467,9.812 -3.4856,13.3114"/><path id="path4" fill="#6a462f" d="M 59.8151,35.5725 C 59.8151,49.0635 49.5415,60 36.1189,60 22.6963,60 11.8151,49.0635 11.8151,35.5725 13.7908,21.8287 22.6963,12 36.1189,12 48.885,12 58.2975,22.3954 59.8151,35.5725 Z"/><path id="path5" fill="#a57939" d="m 49.6488,27.0208 c -4.1779,-2.5872 -10.4534,-1.1119 -13.4909,3.952 -2.9627,-5.0735 -9.2588,-6.5804 -13.4909,-3.952 -3.4854,2.1647 -5.2226,6.9179 -3.6538,11 1.7617,4.5837 6.6722,5.6682 7.0266,5.7402 -1.3571,6.1786 -0.9503,11.8229 0.0668,15.2261 6.6579,1.3446 13.2877,1.3563 19.8885,0 1.8269,-3.5132 2.108,-7.9185 0.5621,-14.664 0.4676,-0.1376 5.1701,-1.6083 6.7454,-6.3024 1.3354,-3.979 -0.0762,-8.7844 -3.6538,-10.9999 z"/><path id="path6" fill="#fff" d="m 41.9781,49.017 c -0.2036,0.2681 -0.7527,6.0217 -6.3387,6.0246 -4.9521,0.0025 -5.4413,-5.6762 -5.7048,-6.0246 4.0145,0 8.029,0 12.0435,0 z"/><path id="path7" fill="#a57939" d="m 22.3305,60.6233 c 1.8841,-3.9279 -0.7967,1.6609 1.0874,-2.267 -0.5664,-1.6119 -1.2604,-4.0223 -1.5384,-7.0087 -0.425,-4.5648 0.1233,-10.4598 1.5384,-10.6624 0.555,-0.0795 1.4734,0.6838 3.0324,4.7202 2.6006,-3.0933 8.3652,-6.2699 8.999,-5.4998 0.6228,0.7568 -0.0903,2.5375 -0.0098,3.503 2.6552,-1.2069 3.9497,-1.4041 4.2664,-1.0505 0.3186,0.3557 -0.0824,1.6942 -1.7721,4.3494 3.1158,-0.7429 4.1039,0.1181 3.9426,0.8046 -0.6076,2.5859 -2.7004,5.9308 -6.4366,9.6067 -2.0968,2.0629 -4.741,2.5726 -6.3992,2.9133 -0.6095,5.022 0.0557,-1.9975 -0.5538,3.0245"/><path id="path8" fill="#6a462f" d="m 23.6494,58.3562 c 0,0 -1.0936,1.828 -1.7359,3.0995 l 6.1562,2.4335 c 0.6311,-1.5839 1.2022,-3.857 1.2022,-3.857 z"/><path id="path9" fill="#a57939" d="m 50.0931,60.3934 c -1.8841,-3.9279 0.6032,0.978 -1.2808,-2.9498 0.5664,-1.6119 1.2604,-4.0223 1.5384,-7.0087 0.425,-4.5648 -0.1233,-10.4598 -1.5384,-10.6624 -0.555,-0.0795 -1.4734,0.6838 -3.0324,4.7202 -2.6006,-3.0933 -8.3652,-6.2699 -8.999,-5.4998 -0.6228,0.7568 0.0903,2.5375 0.0098,3.503 -2.6552,-1.2069 -3.9497,-1.4041 -4.2664,-1.0505 -0.3186,0.3557 0.0824,1.6942 1.7721,4.3494 -3.1158,-0.7429 -4.1039,0.1181 -3.9426,0.8046 0.6076,2.5859 2.7004,5.9308 6.4366,9.6067 2.0968,2.0629 4.741,2.5726 6.3992,2.9133 0.6095,5.022 -0.1317,-1.0847 0.4778,3.9373"/><path id="path10" fill="#6a462f" d="m 43.1868,59.0958 c -0.0058,-0.0477 -0.0171,-0.1411 0,0 z"/><path id="path11" fill="#6a462f" d="m 43.1897,59.1195 v 0 c -9e-4,-0.0074 -0.0021,-0.0173 -0.0029,-0.0237 0.0016,0.013 0.0029,0.0237 0.0029,0.0237 z"/><path id="path12" fill="#6a462f" d="m 48.7522,57.4615 0.0601,-0.0179 c 0,-1e-4 -0.1545,-0.2501 -0.0601,0.0179 z"/><path id="path13" fill="#6a462f" d="m 50.6131,60.9934 c 0,0 -1.7696,-3.2729 -1.8609,-3.5319 l -5.5625,1.658 c 0.0319,0.2634 0.1424,1.1735 0.4778,4.9373 z"/></g><g id="line" transform="translate(-7.3661193,-12)"><circle id="circle13" cx="26.837" cy="35.251" r="3"/><circle id="circle14" cx="45.393" cy="35.251" r="3"/><path id="path14" fill="none" stroke="#000" stroke-linecap="round" stroke-linejoin="round" stroke-miterlimit="10" stroke-width="2" d="m 19.7774,19.6545 c -0.3299,0 -7.1412,-2.2454 -10.3066,3.9209 -2.7954,5.4454 0.1467,9.8121 3.4855,13.3115"/><path id="path15" fill="none" stroke="#000" stroke-linecap="round" stroke-linejoin="round" stroke-miterlimit="10" stroke-width="2" d="m 52.3053,19.6545 c 0.3299,0 7.1412,-2.2454 10.3066,3.9209 2.7954,5.4454 -0.1467,9.812 -3.4856,13.3114"/><path id="path16" fill="none" stroke="#000" stroke-linecap="round" stroke-linejoin="round" stroke-miterlimit="10" stroke-width="2" d="m 28.49,63.0606 0.55,-3.03 c 0,0 4.3,-0.85 6.4,-2.91 0.39,-0.38 0.76,-0.77 1.12,-1.14"/><path id="path17" fill="none" stroke="#000" stroke-linecap="round" stroke-linejoin="round" stroke-miterlimit="10" stroke-width="2" d="m 35.59,41.9806 c 0.12,-0.79 0.23,-1.62 -0.14,-2.07 -0.63,-0.78 -6.4,2.4 -9,5.49 -1.56,-4.03 -2.48,-4.79 -3.03,-4.72 -1.42,0.21 -1.97,6.1 -1.54,10.67 0.28,2.98 0.97,5.39 1.54,7.01 -0.16,0.33 -0.29,0.59 -0.39,0.8 v 0.01 c -0.01,0.03 -0.03,0.06 -0.04,0.08 -0.02,0.03 -0.04,0.07 -0.05,0.11 -0.02,0.04 -0.03,0.07 -0.05,0.09 0,0.02 -0.01,0.03 -0.01,0.04 -0.01,0 -0.01,0.01 -0.01,0.02 -0.01,0.01 -0.02,0.03 -0.02,0.04 -0.02,0.04 -0.04,0.07 -0.05,0.1"/><path id="path18" fill="none" stroke="#000" stroke-linecap="round" stroke-linejoin="round" stroke-miterlimit="10" stroke-width="2" d="m 22.33,60.6206 c 0.15,-0.32 0.28,-0.58 0.38,-0.78 0,0 0,-0.01 0.01,-0.02 v -0.01 c 0.01,-0.01 0.02,-0.02 0.02,-0.04 0.02,-0.04 0.04,-0.08 0.06,-0.12 0.01,-0.03 0.03,-0.06 0.05,-0.1 0,-0.01 0.01,-0.03 0.02,-0.04 0,-0.01 0,-0.02 0.01,-0.02 0.02,-0.05 0.04,-0.09 0.06,-0.13"/><path id="path19" fill="none" stroke="#000" stroke-linecap="round" stroke-linejoin="round" stroke-miterlimit="10" stroke-width="2" d="m 35.59,41.9806 c 0.12,-0.79 0.23,-1.62 -0.14,-2.07 -0.63,-0.78 -6.4,2.4 -9,5.49 -1.56,-4.03 -2.48,-4.79 -3.03,-4.72 -1.42,0.21 -1.97,6.1 -1.54,10.67 0.28,2.98 0.97,5.39 1.54,7.01 -0.16,0.33 -0.29,0.59 -0.39,0.8 v 0.01 c -0.01,0.03 -0.03,0.06 -0.04,0.08 -0.02,0.03 -0.04,0.07 -0.05,0.11 -0.02,0.04 -0.03,0.07 -0.05,0.09 -0.01,0.02 -0.02,0.04 -0.02,0.06 -0.01,0.01 -0.02,0.03 -0.02,0.04 -0.02,0.04 -0.04,0.07 -0.05,0.1 -0.02,0.04 -0.04,0.08 -0.06,0.12 0,0.02 -0.01,0.03 -0.02,0.04 v 0.01 c -0.01,0.01 -0.01,0.02 -0.01,0.02 -0.1,0.2 -0.23,0.46 -0.38,0.78"/><path id="path20" fill="none" stroke="#000" stroke-linecap="round" stroke-linejoin="round" stroke-miterlimit="10" stroke-width="2" d="m 50.0931,60.1137 c -1.8841,-3.9279 0.6032,1.2576 -1.2808,-2.6702 0.5664,-1.6119 1.2604,-4.0223 1.5384,-7.0087 0.425,-4.5648 -0.1233,-10.4598 -1.5384,-10.6624 -0.555,-0.0795 -1.4734,0.6838 -3.0324,4.7202 -2.6006,-3.0933 -8.3652,-6.2699 -8.999,-5.4998 -0.6228,0.7568 0.0903,2.5375 0.0098,3.503 -2.6552,-1.2069 -3.9497,-1.4041 -4.2664,-1.0505 -0.3186,0.3557 0.0824,1.6942 1.7721,4.3494 -3.1158,-0.7429 -4.1039,0.1181 -3.9426,0.8046 0.6076,2.5859 2.7004,5.9308 6.4366,9.6067 2.0968,2.0629 4.741,2.5726 6.3992,2.9133 0.6095,5.022 -0.1317,-1.0847 0.4778,3.9373"/><path id="path21" fill="none" stroke="#000" stroke-linecap="round" stroke-miterlimit="10" stroke-width="2" d="M 17.9101,50.2056 C 14.8346,46.2945 13,41.3615 13,36 13,23.2975 23.2975,13 36,13 c 12.7025,0 23,10.2975 23,23 0,5.2036 -1.728,10.0035 -4.6415,13.8573"/></g></svg>