<?xml version="1.0" encoding="UTF-8" standalone="no"?>
<svg
   id="emoji"
   viewBox="0 0 40.000198 50.002361"
   version="1.1"
   sodipodi:docname="1f645-1f3ff-200d-2642-fe0f.svg"
   width="40.000198"
   height="50.002361"
   xmlns:inkscape="http://www.inkscape.org/namespaces/inkscape"
   xmlns:sodipodi="http://sodipodi.sourceforge.net/DTD/sodipodi-0.dtd"
   xmlns="http://www.w3.org/2000/svg"
   xmlns:svg="http://www.w3.org/2000/svg">
  <defs
     id="defs18" />
  <sodipodi:namedview
     id="namedview18"
     pagecolor="#ffffff"
     bordercolor="#000000"
     borderopacity="0.25"
     inkscape:showpageshadow="2"
     inkscape:pageopacity="0.0"
     inkscape:pagecheckerboard="0"
     inkscape:deskcolor="#d1d1d1" />
  <g
     id="color"
     transform="translate(-15.9872,-10.955942)">
    <path
       fill="#92d3f5"
       d="m 16.9872,60.9583 v -4 c 0,-4.9941 2.7617,-7.12 6.9844,-9.4121 5.3633,-2.458 16.5615,-2.918 23.9482,-0.13 3.3184,1.4609 7.0674,4.5479 7.0674,9.542 v 4"
       id="path1" />
  </g>
  <g
     id="skin"
     transform="translate(-15.9872,-10.955942)">
    <path
       fill="#6a462f"
       d="m 25.82,30.2923 c 0,9 4.04,14.666 10.1035,14.666 5.9365,0 10.1055,-5.9307 10.1055,-14.9307 0,-3 0.0694,-4.1025 0.0694,-4.1025 -1.2455,-3.5288 -2.2834,-6.1582 -2.2834,-6.1582 -4.4284,0.83 -12.524,2.2142 -15.9837,1.5222 A 22.2068,22.2068 0 0 0 25.82,30.2923 Z"
       id="path2" />
    <path
       fill="#6a462f"
       d="m 42.5429,38.4026 8,-7 a 1.4142136,1.4142136 0 0 1 2,2 l -5,6"
       id="path3" />
    <path
       fill="#6a462f"
       d="m 49.9872,60.9163 -16,-17 -3.5557,-4 -1,-1 -6,-4.5557 a 1.4142136,1.4142136 0 0 0 -2,2 l 3,3.5557 a 39.3264,39.3264 0 0 0 2,6 c 0.6328,1.2647 3.5557,2 3.5557,2 l 2,2 8,11"
       id="path4" />
    <path
       fill="#6a462f"
       d="m 21.9872,60.9163 16,-17 3.5557,-4 1,-1 6,-4.5557 a 1.4142136,1.4142136 0 0 1 2,2 l -3,3.5557 a 39.3264,39.3264 0 0 1 -2,6 c -0.6328,1.2647 -3.5557,2 -3.5557,2 l -2,2 -8,11"
       id="path5" />
    <path
       fill="#6a462f"
       d="m 29.4315,38.4026 -8,-7 a 1.4142136,1.4142136 0 0 0 -2,2 l 5,6"
       id="path6" />
  </g>
  <g
     id="hair"
     transform="translate(-15.9872,-10.955942)">
    <path
       fill="#000000"
       d="m 43.8152,19.7669 c 0.1744,0.9826 -13.5955,0.7245 -15.4988,1.7056 -1.9033,0.9811 -2.4381,8.7575 -2.4381,8.7575 a 28.57,28.57 0 0 0 0.3878,4.764 l -5.0339,-3.75 a 48.8842,48.8842 0 0 1 -0.245,-5.2236 c 0,-7 5,-14.0625 15,-14.0625 10,0 15,7.0625 15,14.0625 0,1.7359 -0.0615,3.4065 -0.215,4.9374 l -5.1891,3.9026 a 16.7243,16.7243 0 0 0 0.3348,-4.5617 l 0.6717,-2.3408 z"
       id="path7" />
  </g>
  <g
     id="line"
     transform="translate(-15.9872,-10.955942)">
    <path
       fill="none"
       stroke="#000000"
       stroke-linecap="round"
       stroke-linejoin="round"
       stroke-width="2"
       d="m 21.99,27.9583 c -0.0029,-0.6543 -0.0029,-1.3223 -0.0029,-2 0,-7 5,-14 14,-14 a 13.75,13.75 0 0 1 14,14 c 0,0.6 0.0039,1.1318 0.0049,1.666"
       id="path8" />
    <path
       d="m 41.86,29.9583 a 2,2 0 1 1 -2,-2 2,2 0 0 1 2,2"
       id="path9" />
    <path
       d="m 33.86,29.9583 a 2,2 0 1 1 -2,-2 2,2 0 0 1 2,2"
       id="path10" />
    <path
       fill="none"
       stroke="#000000"
       stroke-linecap="round"
       stroke-linejoin="round"
       stroke-width="2"
       d="m 33.9872,37.9583 h 4"
       id="path11" />
    <path
       fill="none"
       stroke="#000000"
       stroke-linecap="round"
       stroke-linejoin="round"
       stroke-width="2"
       d="m 47.92,48.4075 c 3.85,1.1778 7.0674,4.5469 7.0674,8.5508 v 3"
       id="path12" />
    <path
       fill="none"
       stroke="#000000"
       stroke-linecap="round"
       stroke-linejoin="round"
       stroke-width="2"
       d="m 16.9872,59.9583 v -3 c 0,-3.9756 3.1719,-7.3242 6.9844,-8.5244"
       id="path13" />
    <path
       fill="none"
       stroke="#000000"
       stroke-linecap="round"
       stroke-linejoin="round"
       stroke-width="2"
       d="m 42.5429,38.4026 8,-7 a 1.4142136,1.4142136 0 0 1 2,2 l -5,6"
       id="path14" />
    <path
       fill="none"
       stroke="#000000"
       stroke-linecap="round"
       stroke-linejoin="round"
       stroke-width="2"
       d="m 29.4315,38.4026 -8,-7 a 1.4142136,1.4142136 0 0 0 -2,2 l 5,6"
       id="path15" />
    <line
       x1="35.989201"
       x2="31.9872"
       y1="54.905602"
       y2="59.958302"
       fill="none"
       stroke="#000000"
       stroke-linecap="round"
       stroke-linejoin="round"
       stroke-width="2"
       id="line15" />
    <path
       fill="none"
       stroke="#000000"
       stroke-linecap="round"
       stroke-linejoin="round"
       stroke-width="2"
       d="m 35.956,45.4935 5.5869,-6.0909 1,-1 6,-4.5556 a 1.4142136,1.4142136 0 0 1 2,2 l -3,3.5556 a 39.3264,39.3264 0 0 1 -2,6 c -0.6328,1.2647 -3.5557,2 -3.5557,2 l -2.127,2"
       id="path16" />
    <line
       x1="21.9872"
       x2="31.9872"
       y1="59.958302"
       y2="49.402599"
       fill="none"
       stroke="#000000"
       stroke-linecap="round"
       stroke-linejoin="round"
       stroke-width="2"
       id="line16" />
    <path
       fill="none"
       stroke="#000000"
       stroke-linecap="round"
       stroke-linejoin="round"
       stroke-width="2"
       d="m 49.9872,59.9583 -16,-16.5557 -3.5557,-4 -1,-1 -6,-4.5556 a 1.4142136,1.4142136 0 0 0 -2,2 l 3,3.5556 a 39.3264,39.3264 0 0 0 2,6 c 0.6328,1.2647 3.5557,2 3.5557,2 l 2,2 8,10.5557"
       id="path17" />
    <path
       fill="none"
       stroke="#000000"
       stroke-linecap="round"
       stroke-linejoin="round"
       stroke-width="2"
       d="m 46.8755,30.1743 c -0.3017,-4.803 -2.9724,-10.1444 -2.9724,-10.1444 -8,0 -10,3 -16,1 a 23.8144,23.8144 0 0 0 -3.0418,9.3945"
       id="path18" />
  </g>
</svg>
