<svg xmlns="http://www.w3.org/2000/svg" xmlns:svg="http://www.w3.org/2000/svg" id="emoji" width="40" height="50.002" version="1.1" viewBox="0 0 40 50.002"><g id="color" transform="translate(-16.0083,-10.955942)"><path id="path1" fill="#92d3f5" d="m 17.0083,60.9583 v -4 c 0,-4.9941 2.7617,-7.12 6.9844,-9.4121 5.3633,-2.458 16.5615,-2.918 23.9482,-0.13 3.3184,1.4609 7.0674,4.5479 7.0674,9.542 v 4"/></g><g id="skin" transform="translate(-16.0083,-10.955942)"><path id="path2" fill="#fadcbc" d="m 25.8413,30.2923 c 0,9 4.04,14.666 10.1035,14.666 5.9365,0 10.1055,-5.9307 10.1055,-14.9307 0,-3 -0.042,-4.0693 -0.042,-4.0693 -3,-3 -7,-8 -7,-8 -4,3 -7,6 -13,7 0,0 -0.167,0.334 -0.167,5.334 z"/><path id="path3" fill="#fadcbc" d="m 42.564,38.4026 8,-7 a 1.4142136,1.4142136 0 0 1 2,2 l -5,6"/><path id="path4" fill="#fadcbc" d="m 50.0083,60.9163 -16,-17 -3.5557,-4 -1,-1 -6,-4.5557 a 1.4142136,1.4142136 0 0 0 -2,2 l 3,3.5557 a 39.3264,39.3264 0 0 0 2,6 c 0.6328,1.2647 3.5557,2 3.5557,2 l 2,2 8,11"/><path id="path5" fill="#fadcbc" d="m 22.0083,60.9163 16,-17 3.5557,-4 1,-1 6,-4.5557 a 1.4142136,1.4142136 0 0 1 2,2 l -3,3.5557 a 39.3264,39.3264 0 0 1 -2,6 c -0.6328,1.2647 -3.5557,2 -3.5557,2 l -2,2 -8,11"/><path id="path6" fill="#fadcbc" d="m 29.4526,38.4026 -8,-7 a 1.4142136,1.4142136 0 0 0 -2,2 l 5,6"/></g><g id="hair" transform="translate(-16.0083,-10.955942)"><path id="path7" fill="#a57939" d="m 39.2435,18.4458 c 0.1743,0.9826 -11.0921,5.57 -12.9954,6.551 -1.9033,0.981 -0.3463,5.2567 -0.3463,5.2567 a 28.5824,28.5824 0 0 0 0.3878,4.764 l -5.0339,-3.75 A 48.8833,48.8833 0 0 1 21.0108,26.044 c 0,-7 5,-14.0625 15,-14.0625 10,0 15,7.0625 15,14.0625 0,1.7359 -0.0615,3.4065 -0.215,4.9373 l -5.1892,3.9026 a 30.7683,30.7683 0 0 0 0.4437,-4.8562 l 0.5629,-2.0462 z"/></g><g id="line" transform="translate(-16.0083,-10.955942)"><path id="path8" fill="none" stroke="#000" stroke-linecap="round" stroke-linejoin="round" stroke-width="2" d="m 22.0112,27.9583 c -0.0029,-0.6543 -0.0029,-1.3223 -0.0029,-2 0,-7 5,-14 14,-14 a 13.75,13.75 0 0 1 14,14 c 0,0.6 0.0039,1.1318 0.0049,1.666"/><path id="path9" d="m 41.8813,29.9583 a 2,2 0 1 1 -2,-2 2,2 0 0 1 2,2"/><path id="path10" d="m 33.8813,29.9583 a 2,2 0 1 1 -2,-2 2,2 0 0 1 2,2"/><path id="path11" fill="none" stroke="#000" stroke-linecap="round" stroke-linejoin="round" stroke-width="2" d="m 46.9712,29.9563 a 11.66,11.66 0 0 0 -0.9629,-3.998 c -3,-3 -7,-8 -7,-8 -4,3 -7,6 -13,7 0,0 -0.9287,0.873 -1.05,5.0693"/><path id="path12" fill="none" stroke="#000" stroke-linecap="round" stroke-linejoin="round" stroke-width="2" d="m 34.0083,37.9583 h 4"/><path id="path13" fill="none" stroke="#000" stroke-linecap="round" stroke-linejoin="round" stroke-width="2" d="m 47.9409,48.4075 c 3.85,1.1778 7.0674,4.5469 7.0674,8.5508 v 3"/><path id="path14" fill="none" stroke="#000" stroke-linecap="round" stroke-linejoin="round" stroke-width="2" d="m 17.0083,59.9583 v -3 c 0,-3.9756 3.1719,-7.3242 6.9844,-8.5244"/><path id="path15" fill="none" stroke="#000" stroke-linecap="round" stroke-linejoin="round" stroke-width="2" d="m 42.564,38.4026 8,-7 a 1.4142136,1.4142136 0 0 1 2,2 l -5,6"/><path id="path16" fill="none" stroke="#000" stroke-linecap="round" stroke-linejoin="round" stroke-width="2" d="m 29.4526,38.4026 -8,-7 a 1.4142136,1.4142136 0 0 0 -2,2 l 5,6"/><line id="line16" x1="36.01" x2="32.008" y1="54.906" y2="59.958" fill="none" stroke="#000" stroke-linecap="round" stroke-linejoin="round" stroke-width="2"/><path id="path17" fill="none" stroke="#000" stroke-linecap="round" stroke-linejoin="round" stroke-width="2" d="m 35.9771,45.4935 5.5869,-6.0909 1,-1 6,-4.5556 a 1.4142136,1.4142136 0 0 1 2,2 l -3,3.5556 a 39.3264,39.3264 0 0 1 -2,6 c -0.6328,1.2647 -3.5557,2 -3.5557,2 l -2.127,2"/><line id="line17" x1="22.008" x2="32.008" y1="59.958" y2="49.403" fill="none" stroke="#000" stroke-linecap="round" stroke-linejoin="round" stroke-width="2"/><path id="path18" fill="none" stroke="#000" stroke-linecap="round" stroke-linejoin="round" stroke-width="2" d="m 50.0083,59.9583 -16,-16.5557 -3.5557,-4 -1,-1 -6,-4.5556 a 1.4142136,1.4142136 0 0 0 -2,2 l 3,3.5556 a 39.3264,39.3264 0 0 0 2,6 c 0.6328,1.2647 3.5557,2 3.5557,2 l 2,2 8,10.5557"/></g></svg>