<svg xmlns="http://www.w3.org/2000/svg" xmlns:svg="http://www.w3.org/2000/svg" id="emoji" width="67.458" height="65.078" version="1.1" viewBox="0 0 67.458 65.078"><g id="color" transform="translate(-3,-3.9215995)"><path id="path1" fill="#92d3f5" stroke="none" d="M 27.1667,68 H 4 V 56.3333 l 15,-7.5 C 16.3966,57.37 26.4551,63.3903 31.5,60.5 Z"/><path id="path2" fill="#92d3f5" stroke="none" d="M 46.2917,68 H 69.4584 V 56.3333 l -15,-7.5 c 2.6034,8.5367 -7.4551,14.557 -12.5,11.6667 z"/></g><g id="skin" transform="translate(-3,-3.9215995)"><path id="path3" fill="#debb90" stroke="#debb90" d="m 29.8302,61.109 c -6.1759,0 -11.1733,-4.7888 -11.1733,-10.7068 6.625,-4.0208 7.2806,-13.8397 7.9681,-19.4647 0.5,-2.8906 1.7917,-2.8906 2.25,-5.7812 L 31.5,7.3474 C 32.125,4 36.079,4.3418 36.7292,7 v 46.9167 c 0,1.9346 -2.8958,3.5 -3.8958,3.5 -0.8126,0 -3.0032,3.0295 -3.0032,3.6923 z"/><path id="path4" fill="#debb90" stroke="#debb90" d="m 43.6281,61.109 c 6.1759,0 11.1733,-4.7888 11.1733,-10.7068 -6.625,-4.0208 -7.2806,-13.8397 -7.9681,-19.4647 -0.5,-2.8906 -1.7917,-2.8906 -2.25,-5.7812 L 41.9583,7.3475 C 41.3333,4 37.3794,4.3418 36.7292,7 v 46.9167 c 0,1.9346 2.8958,3.5 3.8958,3.5 0.8125,0 3.0031,3.0295 3.0031,3.6923 z"/></g><g id="line" transform="translate(-3,-3.9215995)"><path id="path5" fill="none" stroke="#000" stroke-linecap="round" stroke-linejoin="round" stroke-miterlimit="10" stroke-width="2" d="M 27.1667,68 H 4 V 56.3333 l 15,-7.5 C 16.3966,57.37 26.4551,63.3903 31.5,60.5 Z"/><path id="path6" fill="none" stroke="#000" stroke-linecap="round" stroke-linejoin="round" stroke-miterlimit="10" stroke-width="2" d="m 29.8302,61.109 c 0,-0.6628 2.1906,-3.6923 3.0031,-3.6923 1,0 3.8958,-1.5654 3.8958,-3.5 V 7 C 36.079,4.3418 32.125,4 31.5,7.3474 l -2.625,17.8088 c -0.4583,2.8906 -1.75,2.8906 -2.25,5.7812 -0.6875,5.625 -1.3431,15.4439 -7.9681,19.4647"/><path id="path7" fill="none" stroke="#000" stroke-linecap="round" stroke-linejoin="round" stroke-miterlimit="10" stroke-width="2" d="M 46.2917,68 H 69.4584 V 56.3333 l -15,-7.5 c 2.6034,8.5367 -7.4551,14.557 -12.5,11.6667 z"/><path id="path8" fill="none" stroke="#000" stroke-linecap="round" stroke-linejoin="round" stroke-miterlimit="10" stroke-width="2" d="m 43.6281,61.109 c 0,-0.6628 -2.1906,-3.6923 -3.0031,-3.6923 -1,0 -3.8958,-1.5654 -3.8958,-3.5 V 7 c 0.6502,-2.6582 4.6042,-3 5.2292,0.3474 l 2.625,17.8088 c 0.4583,2.8906 1.75,2.8906 2.25,5.7812 0.6875,5.625 1.3431,15.4439 7.9681,19.4647"/></g></svg>