<svg xmlns="http://www.w3.org/2000/svg" xmlns:svg="http://www.w3.org/2000/svg" id="emoji" width="53.339" height="59.78" version="1.1" viewBox="0 0 53.339 59.78"><g id="color" transform="translate(-9.2253575,-5.2198916)"><path id="path1" fill="#92d3f5" d="M 22.4944,65 22.2758,62.1866 A 23.4263,23.4263 0 0 1 17.94,58.6693 L 21.9169,48.6 c 1.0234,-2.5912 1.6347,-3.5607 3.0234,-2.5912 3.0068,2.0987 6.3457,2.9219 7.625,3.85 4.3281,3.6926 12.34,4.625 19.3405,1.46 3,0 9.5687,3.8215 9.5687,9.09 v 4.5458 z"/></g><g id="skin" transform="translate(-9.2253575,-5.2198916)"><path id="path2" fill="#fcea2b" d="m 31.9068,32.5076 v 0.957 c 0,7.6494 4.6093,13.6426 10.4941,13.6426 5.8848,0 10.4942,-5.9932 10.4942,-13.6426 0,-4.6533 -1.7784,-7.5151 -5.2842,-11.1343 a 64.1459,64.1459 0 0 1 -8.9883,5.772 c -2.6465,1.5142 -6.2549,3.5693 -6.7158,4.4053 z"/><path id="path3" fill="#fcea2b" d="m 18.63,55.99 c -2.624,-3.249 -5.712,-4.458 -6.212,-6.458 -0.543,-2.169 -3.193,-15.63 -2.192,-19.88 0.4003,-2.535 0.4843,-5.111 0.25,-7.666 -0.06,-0.998 0.8437,-4.688 0.8437,-6.688 -0.04883,-1.323 0.07726,-2.647 0.375,-3.938 1.188,-1.725 2.872,-0.7321 2.898,0.4981 l 1.039,-4.342 c 0.1875,-1.281 3.698,-2.219 3.188,1.25 l 0.4502,-2.481 c 0.6811,-1.425 2.381,-1.16 2.758,-0.6921 0.6222,0.809 0.3033,1.542 0.256,2.536 0,0 2.254,-0.01883 1.671,3.002 -0.19,0.9824 -1.633,10.23 -1.633,10.23 0.458,-0.458 1.541,-4.699 3.124,-4.699 2.119,0 1.904,1.65 1.904,1.65 0,0 -0.6026,1.433 -1.281,2.673 -1.012,1.851 -2.281,5.5 -3.281,6.5 -1.673,1.114 -3.417,2.116 -5.222,3 l 2.91,12.25 c 0,0 0.167,0.5381 2.496,2.256"/></g><g id="hair" transform="translate(-9.2253575,-5.2198916)"><path id="path4" fill="#f1b31c" d="m 59.7535,37.1893 a 23.7419,23.7419 0 0 1 -1.1573,-2.6329 c -1.4726,-3.2695 -2.0234,-4.4927 -2.3486,-10.5239 0.0273,-3.6929 -3.794,-6.7842 -7.4746,-7.0928 a 1.0016,1.0016 0 0 1 -0.6885,-0.3433 c -0.0928,-0.0995 -2.4082,-2.6546 -7.2432,-2.6546 -6.2,0 -11.4412,3.3817 -12.743,8.2259 a 18.5186,18.5186 0 0 0 -0.5645,6.1759 13.317,13.317 0 0 1 -0.7607,5.9608 38.8843,38.8843 0 0 1 -3.12,4.7343 l -1.6771,4.4389 c 0.92,0.9473 9.7846,7.629 11.505,7.5535 4.953,1.2891 10.8956,2.9162 18.7,0 a 8.3428,8.3428 0 0 1 4.209,1.5135 22.7842,22.7842 0 0 0 2.972,-2.33 C 60.55,49.5 62.4869,41.9324 59.7535,37.1893 Z M 41.56,47.93 C 30.6042,47.8829 31.4556,32.501 31.4556,32.501 33.7691,30.1075 46.95,22.33 46.95,22.33 c 6.0806,1.9552 6.3829,10.9722 6.3829,10.9722 0,0 -0.817,14.6745 -11.7729,14.6278 z"/></g><g id="line" transform="translate(-9.2253575,-5.2198916)"><path id="path5" d="m 48.3323,32.9718 a 2,2 0 1 1 -2,-2 2,2 0 0 1 2,2"/><path id="path6" d="m 40.3323,32.9718 a 2,2 0 1 1 -2,-2 2,2 0 0 1 2,2"/><path id="path7" fill="none" stroke="#000" stroke-linecap="round" stroke-linejoin="round" stroke-width="2" d="m 39.4593,40.9718 a 6.5535,6.5535 0 0 0 6,0"/><path id="path8" fill="none" stroke="#000" stroke-linecap="round" stroke-linejoin="round" stroke-width="2" d="M 22.4738,63.99 A 2.9818,2.9818 0 0 0 21.6319,61.2918 C 18.4738,58.846 17.4738,57.99 17.4738,57.99 l 5,-12"/><path id="path9" fill="none" stroke="#000" stroke-linecap="round" stroke-linejoin="round" stroke-width="2" d="m 20.1828,6.7816 c -0.709,3.9248 -1.125,6.6318 -1.709,11.208"/><path id="path10" fill="none" stroke="#000" stroke-linecap="round" stroke-linejoin="round" stroke-width="2" d="M 21.5421,21.3651 C 21.835,19.2025 22.64,14.6146 23.0988,9.99"/><path id="path11" fill="none" stroke="#000" stroke-linecap="round" stroke-linejoin="round" stroke-width="2" d="m 61.4738,63.99 c 0,0 0.0908,-2.25 0.0908,-3 0,-7 -9.0908,-10 -9.0908,-10 -7,2 -11,2 -16,1 -3.2754,-0.6553 -10.0273,-4.59 -15,-8 0,0 -3.9093,-9.5 -3.9093,-13.5005 0,-0.5825 5.5518,-1.9936 7,-6.5 0.7813,-2.4307 1.8106,-5.6738 1.8106,-5.6738"/><path id="path12" fill="none" stroke="#000" stroke-linecap="round" stroke-linejoin="round" stroke-width="2" d="m 14.4738,17.99 c 0.86,-5.0757 1.5645,-8.6211 2,-10"/><path id="path13" fill="none" stroke="#000" stroke-linecap="round" stroke-linejoin="round" stroke-width="2" d="m 18.6281,55.221 c -5,-4 -6.5879,-5.12 -7.1543,-8.2314 -2,-11 -1,-14.5811 -1,-18 0,-1 0.0156,0 0.0156,-6 10e-4,-0.812 0.5078,-4.3931 0.9844,-7 a 25.2783,25.2783 0 0 1 1,-4"/><path id="path14" fill="none" stroke="#000" stroke-linecap="round" stroke-linejoin="round" stroke-width="2" d="m 24.1413,40.2425 c 0.6148,-1.774 1.4978,-3.4939 2.1913,-5.2759 1.6357,-4.2 -0.209,-6.4512 1.291,-12.0342 1.48,-5.5 7.2773,-8.9658 13.709,-8.9658 5.4,0 8,3 8,3 a 8.1321,8.1321 0 0 1 7.4052,8.0371 c 0.3867,7.18 1.0244,7.1523 3.4287,12.8222 A 11.5986,11.5986 0 0 1 58.72,49.489"/><path id="path15" fill="none" stroke="#000" stroke-linejoin="round" stroke-width="2" d="m 31.3326,33.9666 c 0,8 5,14 11,14 6,0 11,-6 11,-14 0,-5 -2,-8 -6,-12 -4,4 -16,9 -16,11 z"/></g></svg>