<?xml version="1.0" encoding="UTF-8" standalone="no"?>
<svg
   id="emoji"
   viewBox="0 0 59.335228 48.5755"
   version="1.1"
   sodipodi:docname="1f649.svg"
   width="59.335228"
   height="48.5755"
   xmlns:inkscape="http://www.inkscape.org/namespaces/inkscape"
   xmlns:sodipodi="http://sodipodi.sourceforge.net/DTD/sodipodi-0.dtd"
   xmlns="http://www.w3.org/2000/svg"
   xmlns:svg="http://www.w3.org/2000/svg">
  <defs
     id="defs21" />
  <sodipodi:namedview
     id="namedview21"
     pagecolor="#ffffff"
     bordercolor="#000000"
     borderopacity="0.25"
     inkscape:showpageshadow="2"
     inkscape:pageopacity="0.0"
     inkscape:pagecheckerboard="0"
     inkscape:deskcolor="#d1d1d1" />
  <g
     id="line-supplement"
     transform="translate(-6.3762863,-12)">
    <path
       fill="none"
       stroke="#000000"
       stroke-linecap="round"
       stroke-linejoin="round"
       stroke-miterlimit="10"
       stroke-width="2"
       d="m 50.3838,47.2065 c -1.7396,1.4508 -3.5449,2.0133 -3.8255,2.096 1.2769,3.8998 1.5308,7.3335 0.8554,9.3629"
       id="path1" />
    <path
       fill="none"
       stroke="#000000"
       stroke-linecap="round"
       stroke-linejoin="round"
       stroke-miterlimit="10"
       stroke-width="2"
       d="m 23.7414,31.4072 c 4.0808,-1.403 9.8253,0.1056 12.4177,4.5449 2.5249,-4.2094 7.8873,-5.739 11.8223,-4.7169"
       id="path2" />
    <path
       fill="none"
       stroke="#000000"
       stroke-linecap="round"
       stroke-linejoin="round"
       stroke-miterlimit="10"
       stroke-width="2"
       d="m 25.721,59.5755 c -0.7095,-2.8184 -0.848,-5.5181 0.3199,-10.8352 -0.2215,-0.045 -2.2221,-0.4854 -4.1217,-1.928"
       id="path3" />
  </g>
  <g
     id="color"
     transform="translate(-6.3762863,-12)">
    <circle
       cx="36.116299"
       cy="36"
       r="24"
       fill="#6a462f"
       id="circle3" />
    <path
       fill="#a57939"
       d="m 26.1077,57.8872 c -1.017,-3.4032 -1.4239,-6.0475 -0.0668,-12.2261 -0.3544,-0.072 -5.2649,-1.1565 -7.0265,-5.7402 -1.5688,-4.0821 0.1684,-8.8353 3.6538,-11 4.2321,-2.6284 10.5282,-1.1215 13.4909,3.952 3.0375,-5.0639 9.313,-6.5391 13.4909,-3.952 3.5775,2.2155 4.9892,7.0209 3.6538,11 -1.5753,4.6941 -6.2779,6.1647 -6.7455,6.3024 0.9411,4.1067 1.2051,6.2341 0.8554,8.0629 -0.1115,0.583 -0.6968,1.054 -1.4137,2.6346 -0.3895,0.8587 -3.7481,0.5225 -4,1"
       id="path4" />
    <path
       fill="#ffffff"
       d="m 41.9792,48.917 c -0.2036,0.2681 -0.7527,6.0217 -6.3387,6.0246 -4.9521,0.0025 -5.4413,-5.6762 -5.7048,-6.0246 4.0146,0 8.0291,0 12.0435,0 z"
       id="path5" />
    <path
       fill="#6a462f"
       d="m 19.2323,18.4382 c -0.361,0 -8.0248,-2.1272 -11.4888,4.6208 -3.059,5.959 -0.3874,10.2553 4.0243,14.2371"
       id="path6" />
    <path
       fill="#6a462f"
       d="m 52.9327,18.8067 c 0.3466,0 8.0022,-2.5589 11.3277,3.9191 2.9367,5.7207 0.4686,11.8919 -4.1618,14.1844"
       id="path7" />
    <path
       fill="#a57939"
       d="m 18.945,50.4547 c -0.4804,-6.0396 0.0392,-0.0793 -0.4413,-6.1189 0.7336,-1.8542 1.6918,-4.7683 2.059,-8.4418 0.2878,-2.8791 -0.0143,-3.9562 -0.4118,-10.2995 -0.5229,-8.3456 -0.2387,-10.2904 -1.0295,-10.4961 -1.4192,-0.3691 -4.4446,5.3461 -5.971,10.4961 -1.6205,5.4675 -1.5585,10.3212 -1.2354,13.5938 -0.8922,7.6868 -0.3078,-2.4173 -1.2001,5.2695"
       id="path8" />
    <path
       fill="#6a462f"
       d="m 11.3043,39.1904 0.0609,0.0441 c 0.1711,-0.7626 -0.0609,-0.0441 -0.0609,-0.0441 z"
       id="path9" />
    <path
       fill="#6a462f"
       d="M 19,57.9208 C 18.4778,51.8402 18.4654,44.3728 18.4654,44.3728 L 11.3652,39.2345 C 11.2353,39.8132 10.8734,41.2443 10,44.4957 Z"
       id="path10" />
    <path
       fill="#a57939"
       d="m 53.4019,50.4547 c 0.4804,-6.0396 -0.0392,-0.0793 0.4413,-6.1189 -0.7336,-1.8542 -1.6918,-4.7683 -2.059,-8.4418 -0.2878,-2.8791 0.0143,-3.9562 0.4118,-10.2995 0.5229,-8.3456 0.2387,-10.2904 1.0295,-10.4961 1.4192,-0.3691 4.4446,5.3461 5.971,10.4961 1.6205,5.4675 1.5585,10.3212 1.2354,13.5938 0.8922,7.6868 0.5987,-1.1402 1.4909,6.5466"
       id="path11" />
    <path
       fill="#6a462f"
       d="m 60.8928,39.5034 0.4278,-0.313 c 0,0 -0.3159,-0.2516 -0.4278,0.313 z"
       id="path12" />
    <path
       fill="#6a462f"
       d="m 62,45.9208 c -1.1036,-4.1549 -1.2314,-5.7905 -1.1072,-6.4174 l -6.9938,5.1184 c 0,0 0.0441,7.9261 -0.4971,14.299 z"
       id="path13" />
  </g>
  <g
     id="hair"
     transform="translate(-6.3762863,-12)" />
  <g
     id="skin"
     transform="translate(-6.3762863,-12)" />
  <g
     id="skin-shadow"
     transform="translate(-6.3762863,-12)" />
  <g
     id="line"
     transform="translate(-6.3762863,-12)">
    <circle
       cx="26.8381"
       cy="38.2509"
       r="3"
       id="circle13" />
    <circle
       cx="45.394501"
       cy="38.2509"
       r="3"
       id="circle14" />
    <path
       fill="none"
       stroke="#000000"
       stroke-linecap="round"
       stroke-linejoin="round"
       stroke-miterlimit="10"
       stroke-width="2"
       d="m 41.9792,49.017 c -0.2036,0.2681 -0.7527,6.0217 -6.3387,6.0246 -4.9521,0.0025 -5.4413,-5.6762 -5.7048,-6.0246 4.0146,0 8.0291,0 12.0435,0 z"
       id="path14" />
    <circle
       cx="34.098801"
       cy="44.5578"
       r="1"
       id="circle15" />
    <circle
       cx="37.7384"
       cy="44.5578"
       r="1"
       id="circle16" />
    <path
       fill="none"
       stroke="#000000"
       stroke-linecap="round"
       stroke-linejoin="round"
       stroke-miterlimit="10"
       stroke-width="2"
       d="m 11.6836,20.1837 c -1.2053,0.6459 -2.3451,1.7036 -3.2117,3.3917 -1.708,3.3272 -1.274,6.2517 0.0837,8.8217"
       id="path16" />
    <path
       fill="none"
       stroke="#000000"
       stroke-linecap="round"
       stroke-linejoin="round"
       stroke-miterlimit="10"
       stroke-width="2"
       d="m 60.5424,20.2614 c 1.1529,0.6519 2.2379,1.6919 3.0706,3.3141 1.6027,3.122 1.3194,5.8895 0.1566,8.3422"
       id="path17" />
    <path
       fill="none"
       stroke="#000000"
       stroke-linecap="round"
       stroke-linejoin="round"
       stroke-miterlimit="10"
       stroke-width="2"
       d="m 50.0121,54.2076 c -3.8867,3.0046 -8.7619,4.7923 -14.0546,4.7923 -5.1125,0 -9.8354,-1.6681 -13.6542,-4.4897"
       id="path18" />
    <path
       fill="none"
       stroke="#000000"
       stroke-linecap="round"
       stroke-linejoin="round"
       stroke-miterlimit="10"
       stroke-width="2"
       d="M 23.838,16.4485 C 27.3571,14.2624 31.5099,13 35.9575,13 c 4.5893,0 8.8647,1.3441 12.4539,3.6602"
       id="path19" />
    <path
       fill="none"
       stroke="#000000"
       stroke-linecap="round"
       stroke-linejoin="round"
       stroke-miterlimit="10"
       stroke-width="2"
       d="m 18.945,56.8993 c -0.4804,-6.0396 0.0392,-6.4239 -0.4413,-12.4635 0.7336,-1.8542 1.6918,-4.7683 2.059,-8.4418 C 20.8505,33.1149 20.5484,32.0378 20.1509,25.6945 19.628,17.3489 19.9122,15.4041 19.1214,15.1984 17.7022,14.8293 14.6768,20.5445 13.1504,25.6945 11.5299,31.162 11.915,39.2883 11.915,39.2883 l -1.2,5.2695"
       id="path20" />
    <path
       fill="none"
       stroke="#000000"
       stroke-linecap="round"
       stroke-linejoin="round"
       stroke-miterlimit="10"
       stroke-width="2"
       d="m 53.4019,57.9872 c 0.4804,-6.0396 -0.0392,-7.5118 0.4413,-13.5514 -0.7336,-1.8542 -1.6918,-4.7683 -2.059,-8.4418 -0.2878,-2.8791 0.0143,-3.9562 0.4118,-10.2995 0.5229,-8.3456 0.2387,-10.2904 1.0295,-10.4961 1.4192,-0.3691 4.4446,5.3461 5.971,10.4961 1.6205,5.4675 1.2354,13.5938 1.2354,13.5938 l 1.4909,6.5466"
       id="path21" />
  </g>
</svg>
