<svg xmlns="http://www.w3.org/2000/svg" xmlns:svg="http://www.w3.org/2000/svg" id="emoji" width="40" height="50.994" version="1.1" viewBox="0 0 40 50.994"><g id="color" transform="translate(-16,-9.9647)"><path id="path1" fill="#92d3f5" d="m 17,60.9583 v -4 c 0,-4.9941 5.0078,-9 10,-9 q 9,7.5 18,0 c 4.9941,0 10,4.0059 10,9 v 4"/></g><g id="skin" transform="translate(-16,-9.9647)"><path id="path2" fill="#fadcbc" d="m 25.6173,29.5057 v 0.957 c 0,7.6494 4.6093,13.6426 10.4941,13.6426 5.8848,0 10.4942,-5.9932 10.4942,-13.6426 0,-4.6533 -1.7784,-7.5151 -5.2842,-11.1343 A 64.1459,64.1459 0 0 1 32.3331,25.1 c -2.6465,1.5146 -6.2549,3.57 -6.7158,4.4057 z"/></g><g id="hair" transform="translate(-16,-9.9647)"><path id="path3" fill="#a57939" d="m 53.41,34.1466 a 23.7322,23.7322 0 0 1 -1.1573,-2.6328 c -1.4726,-3.27 -2.0234,-4.4927 -2.3486,-10.5239 0.0273,-3.6929 -3.794,-6.7842 -7.4746,-7.0928 A 1.0016,1.0016 0 0 1 41.741,13.5538 c -0.0928,-0.1 -2.4082,-2.6547 -7.2432,-2.6547 -6.2,0 -11.4413,3.3818 -12.743,8.226 a 18.518,18.518 0 0 0 -0.5645,6.1758 13.3173,13.3173 0 0 1 -0.7607,5.9609 6.8034,6.8034 0 0 1 -1.1188,2.0882 c -3.7725,4.42 -0.9747,14.3028 -1.167,14.01 a 24.0468,24.0468 0 0 0 3.6331,2.7193 10.4646,10.4646 0 0 1 5.361,-2.09 c 6.209,5.0127 12.4951,5.0127 18.7,0 a 8.343,8.343 0 0 1 4.2087,1.5136 22.7842,22.7842 0 0 0 2.972,-2.33 C 54.2072,46.4572 56.1438,38.89 53.41,34.1466 Z m -12.4457,8.835 c -3.3783,2.5447 -9.6082,1.083 -9.6082,1.083 0,0 -8.6462,-7.4083 -5.7928,-14.6 0,0 15.2693,-9.2095 15.401,-10.7889 4e-4,4e-4 13.8514,13.8727 4e-4,24.3059 z"/></g><g id="line" transform="translate(-16,-9.9647)"><path id="path4" fill="none" stroke="#000" stroke-linecap="round" stroke-linejoin="round" stroke-width="2" d="m 17,59.9583 v -3 c 0,-4.9941 5.0078,-9 10,-9 q 9,7.5 18,0 c 4.9941,0 10,4.0059 10,9 v 3"/><path id="path5" d="m 41.873,29.9583 a 2,2 0 0 1 -4,0 c 0,-1.1045 2.0225,-2 3.127,-2 a 3.2627,3.2627 0 0 1 0.873,2"/><path id="path6" d="m 34,29.9583 a 2,2 0 0 1 -4,0 3.1184,3.1184 0 0 1 1,-2 c 1.1045,0 3,0.8955 3,2"/><path id="path7" fill="none" stroke="#000" stroke-linecap="round" stroke-linejoin="round" stroke-width="2" d="m 39,37.9583 c -1,-2 -5,-2 -6,0"/><path id="path8" fill="none" stroke="#000" stroke-linecap="round" stroke-linejoin="round" stroke-width="2" d="m 18.8634,46.6893 c -3.7227,-5.8565 -0.628,-10.08 1.18,-14.7246 1.6357,-4.2 -0.209,-6.4512 1.291,-12.0342 1.48,-5.5 7.2773,-8.9658 13.709,-8.9658 5.4,0 8,3 8,3 a 8.1321,8.1321 0 0 1 7.4052,8.0371 c 0.3867,7.18 1.0244,7.1523 3.4287,12.8222 A 11.5986,11.5986 0 0 1 52.431,46.4871"/><path id="path9" fill="none" stroke="#000" stroke-linejoin="round" stroke-width="2" d="m 25.0431,30.9647 c 0,8 5,14 11,14 6,0 11,-6 11,-14 0,-5 -2,-8 -6,-12 -4,4 -16,9 -16,11 z"/></g></svg>