<svg xmlns="http://www.w3.org/2000/svg" xmlns:svg="http://www.w3.org/2000/svg" id="emoji" width="53.339" height="59.78" version="1.1" viewBox="0 0 53.339 59.78"><g id="color" transform="translate(-9.2253575,-5.2198916)"><path id="path1" fill="#92d3f5" d="M 22.4944,65 22.2758,62.1866 A 23.4263,23.4263 0 0 1 17.94,58.6693 L 21.9169,48.6 c 1.0234,-2.5912 1.6347,-3.5607 3.0234,-2.5912 3.0068,2.0987 6.3457,2.9219 7.625,3.85 4.3281,3.6926 12.34,4.625 19.3405,1.46 3,0 9.5687,3.8215 9.5687,9.09 v 4.5458 z"/></g><g id="skin" transform="translate(-9.2253575,-5.2198916)"><path id="path2" fill="#fadcbc" d="m 31.4025,33.985 c 0,9 4.9365,14 11,14 5.9365,0 11.0635,-5 11.0635,-14 a 12.1371,12.1371 0 0 0 -1,-5 c -3,-3 -7,-8 -7,-8 -4,3 -7,6 -13,7 0,0 -1.0635,0.9995 -1.0635,6 z"/><path id="path3" fill="#fadcbc" d="m 18.63,55.99 c -2.624,-3.249 -5.712,-4.458 -6.212,-6.458 -0.543,-2.169 -3.193,-15.63 -2.192,-19.88 0.4003,-2.535 0.4843,-5.111 0.25,-7.666 -0.06,-0.998 0.8437,-4.688 0.8437,-6.688 -0.04883,-1.323 0.07726,-2.647 0.375,-3.938 1.188,-1.725 2.872,-0.7321 2.898,0.4981 l 1.039,-4.342 c 0.1875,-1.281 3.698,-2.219 3.188,1.25 l 0.4502,-2.481 c 0.6811,-1.425 2.381,-1.16 2.758,-0.6921 0.6222,0.809 0.3033,1.542 0.256,2.536 0,0 2.254,-0.01883 1.671,3.002 -0.19,0.9824 -1.633,10.23 -1.633,10.23 0.458,-0.458 1.541,-4.699 3.124,-4.699 2.119,0 1.904,1.65 1.904,1.65 0,0 -0.6026,1.433 -1.281,2.673 -1.012,1.851 -2.281,5.5 -3.281,6.5 -1.673,1.114 -3.417,2.116 -5.222,3 l 2.91,12.25 c 0,0 0.167,0.5381 2.496,2.256"/></g><g id="hair" transform="translate(-9.2253575,-5.2198916)"><path id="path4" fill="#a57939" d="m 52.5829,29.0768 c -2.6614,-0.8555 -7.3665,-7.9369 -7.3665,-7.9369 -2.6615,3.2318 -12.737,6.9864 -12.737,6.9864 -2.9942,2.9941 -0.0451,13.8587 -0.0451,13.8587 -4,0 -4,-6 -4,-13 0,-7 4,-14 14,-14 10,0 14,7 14,14 0,7 0,13 -4,13 1.3246,-2.2527 0.1486,-12.9082 0.1486,-12.9082 z"/></g><g id="line" transform="translate(-9.2253575,-5.2198916)"><path id="path5" fill="none" stroke="#000" stroke-linecap="round" stroke-linejoin="round" stroke-width="2" d="m 32.466,41.985 c -4,0 -4,-6 -4,-13 0,-7 4,-14 14,-14 10,0 14,7 14,14 0,7 0,13 -4,13"/><path id="path6" d="m 48.339,32.985 a 2,2 0 1 1 -2,-2 2,2 0 0 1 2,2"/><path id="path7" d="m 40.339,32.985 a 2,2 0 1 1 -2,-2 2,2 0 0 1 2,2"/><path id="path8" fill="none" stroke="#000" stroke-linejoin="round" stroke-width="2" d="m 31.4025,33.985 c 0,9 4.9365,14 11,14 5.9365,0 11.0635,-5 11.0635,-14 a 12.1371,12.1371 0 0 0 -1,-5 c -3,-3 -7,-8 -7,-8 -4,3 -7,6 -13,7 0,0 -1.0635,0.9995 -1.0635,6 z"/><path id="path9" fill="none" stroke="#000" stroke-linecap="round" stroke-linejoin="round" stroke-width="2" d="m 39.466,40.985 a 6.5535,6.5535 0 0 0 6,0"/><path id="path10" fill="none" stroke="#000" stroke-linecap="round" stroke-linejoin="round" stroke-width="2" d="M 22.4738,63.99 A 2.9818,2.9818 0 0 0 21.6319,61.2918 C 18.4738,58.846 17.4738,57.99 17.4738,57.99 l 5,-12"/><path id="path11" fill="none" stroke="#000" stroke-linecap="round" stroke-linejoin="round" stroke-width="2" d="m 20.1828,6.7816 c -0.709,3.9248 -1.125,6.6318 -1.709,11.208"/><path id="path12" fill="none" stroke="#000" stroke-linecap="round" stroke-linejoin="round" stroke-width="2" d="M 21.5421,21.3651 C 21.835,19.2025 22.64,14.6146 23.0988,9.99"/><path id="path13" fill="none" stroke="#000" stroke-linecap="round" stroke-linejoin="round" stroke-width="2" d="m 61.4738,63.99 c 0,0 0.0908,-2.25 0.0908,-3 0,-7 -9.0908,-10 -9.0908,-10 -7,2 -11,2 -16,1 -3.2754,-0.6553 -10.0273,-4.59 -15,-8 0,0 -3.9093,-9.5 -3.9093,-13.5005 0,-0.5825 5.5518,-1.9936 7,-6.5 0.7813,-2.4307 1.8106,-5.6738 1.8106,-5.6738"/><path id="path14" fill="none" stroke="#000" stroke-linecap="round" stroke-linejoin="round" stroke-width="2" d="m 14.4738,17.99 c 0.86,-5.0757 1.5645,-8.6211 2,-10"/><path id="path15" fill="none" stroke="#000" stroke-linecap="round" stroke-linejoin="round" stroke-width="2" d="m 18.6281,55.221 c -5,-4 -6.5879,-5.12 -7.1543,-8.2314 -2,-11 -1,-14.5811 -1,-18 0,-1 0.0156,0 0.0156,-6 10e-4,-0.812 0.5078,-4.3931 0.9844,-7 a 25.2783,25.2783 0 0 1 1,-4"/></g></svg>