<?xml version="1.0" encoding="UTF-8" standalone="no"?>
<svg
   id="emoji"
   viewBox="0 0 48 48"
   version="1.1"
   sodipodi:docname="1f643.svg"
   width="48"
   height="48"
   xmlns:inkscape="http://www.inkscape.org/namespaces/inkscape"
   xmlns:sodipodi="http://sodipodi.sourceforge.net/DTD/sodipodi-0.dtd"
   xmlns="http://www.w3.org/2000/svg"
   xmlns:svg="http://www.w3.org/2000/svg">
  <defs
     id="defs4" />
  <sodipodi:namedview
     id="namedview4"
     pagecolor="#ffffff"
     bordercolor="#000000"
     borderopacity="0.25"
     inkscape:showpageshadow="2"
     inkscape:pageopacity="0.0"
     inkscape:pagecheckerboard="0"
     inkscape:deskcolor="#d1d1d1" />
  <g
     id="color"
     transform="translate(-12,-12)">
    <circle
       cx="36"
       cy="36"
       r="23"
       fill="#fcea2b"
       id="circle1" />
  </g>
  <g
     id="hair"
     transform="translate(-12,-12)" />
  <g
     id="skin"
     transform="translate(-12,-12)" />
  <g
     id="skin-shadow"
     transform="translate(-12,-12)" />
  <g
     id="line"
     transform="translate(-12,-12)">
    <circle
       cx="36"
       cy="36"
       r="23"
       fill="none"
       stroke="#000000"
       stroke-linecap="round"
       stroke-linejoin="round"
       stroke-width="2"
       id="circle2" />
    <path
       fill="none"
       stroke="#000000"
       stroke-linecap="round"
       stroke-linejoin="round"
       stroke-width="2"
       d="m 26.1851,27.0707 c 2.8995,-1.6362 6.2482,-2.5699 9.8149,-2.5699 3.5667,0 6.9153,0.9336 9.8149,2.5699"
       id="path2" />
    <path
       d="m 42,41 c 0,-1.6568 1.3448,-3 3,-3 1.6553,0 3,1.3433 3,3 0,1.6552 -1.3447,3 -3,3 -1.6552,0 -3,-1.3448 -3,-3"
       id="path3" />
    <path
       d="m 24,41 c 0,-1.6568 1.3447,-3 3,-3 1.6553,0 3,1.3433 3,3 0,1.6552 -1.3447,3 -3,3 -1.6553,0 -3,-1.3448 -3,-3"
       id="path4" />
  </g>
</svg>
