<svg xmlns="http://www.w3.org/2000/svg" xmlns:svg="http://www.w3.org/2000/svg" id="emoji" width="40" height="50.076" version="1.1" viewBox="0 0 40 50.076"><g id="color" transform="translate(-15.9948,-10.8626)"><path id="path1" fill="#92d3f5" d="m 16.9948,60.9383 v -4 c 0,-4.9941 5.0078,-9 10,-9 q 9,7.5 18,0 c 4.9941,0 10,4.0059 10,9 v 4"/></g><g id="skin" transform="translate(-15.9948,-10.8626)"><path id="path2" fill="#fadcbc" d="m 25.0615,30.8626 c -0.1015,7.999 4.0635,14 11,14 7.0635,0 11.0635,-6 11.0635,-14 0,-5 -3,-10 -3,-10 -8,0 -10,3 -16,1 a 17.0768,17.0768 0 0 0 -3.0635,9 z"/></g><g id="hair" transform="translate(-15.9948,-10.8626)"><path id="path3" fill="#a57939" d="m 43.9039,19.42 c -1.4663,0.7739 -15.4769,2.0364 -15.4769,2.0364 -5.4169,2.3623 -2.4322,16.4063 -2.4322,16.4063 -3,0 -4,-7 -4,-14 0,-6 5,-12 14,-12 9,0 14,6 14,12 0,7 -1,14 -4,14 C 48.493,37.896 45.37,18.6461 43.9039,19.42 Z"/></g><g id="line" transform="translate(-15.9948,-10.8626)"><path id="path4" fill="none" stroke="#000" stroke-linecap="round" stroke-linejoin="round" stroke-width="2" d="m 16.9948,59.9383 v -3 c 0,-4.9941 5.0078,-9 10,-9 q 9,7.5 18,0 c 4.9941,0 10,4.0059 10,9 v 3"/><path id="path5" d="m 41.8678,29.9383 a 2,2 0 0 1 -4,0 c 0,-1.1045 2.0225,-2 3.127,-2 a 3.2627,3.2627 0 0 1 0.873,2"/><path id="path6" d="m 33.9948,29.9383 a 2,2 0 0 1 -4,0 3.1184,3.1184 0 0 1 1,-2 c 1.1045,0 3,0.8955 3,2"/><path id="path7" fill="none" stroke="#000" stroke-linecap="round" stroke-linejoin="round" stroke-width="2" d="m 38.9948,37.9383 c -1,-2 -5,-2 -6,0"/><path id="path8" fill="none" stroke="#000" stroke-linecap="round" stroke-linejoin="round" stroke-width="2" d="m 26.125,37.8626 c -3,0 -4,-7 -4,-14 0,-6 5,-12 14,-12 9,0 14,6 14,12 0,7 -1,14 -4,14"/><path id="path9" fill="none" stroke="#000" stroke-linejoin="round" stroke-width="2" d="m 25.0615,30.8626 c -0.1015,7.999 4.9365,14 11,14 5.9365,0 11.0635,-6 11.0635,-14 0,-5 -3,-11 -3,-11 -8,0 -10,3 -16,1 0,0 -3,5 -3.0635,10 z"/></g></svg>