<?xml version="1.0" encoding="UTF-8" standalone="no"?>
<svg
   id="emoji"
   viewBox="0 0 46.000191 50"
   version="1.1"
   sodipodi:docname="1f647-1f3fb-200d-2640-fe0f.svg"
   width="46.000191"
   height="50"
   xmlns:inkscape="http://www.inkscape.org/namespaces/inkscape"
   xmlns:sodipodi="http://sodipodi.sourceforge.net/DTD/sodipodi-0.dtd"
   xmlns="http://www.w3.org/2000/svg"
   xmlns:svg="http://www.w3.org/2000/svg">
  <defs
     id="defs16" />
  <sodipodi:namedview
     id="namedview16"
     pagecolor="#ffffff"
     bordercolor="#000000"
     borderopacity="0.25"
     inkscape:showpageshadow="2"
     inkscape:pageopacity="0.0"
     inkscape:pagecheckerboard="0"
     inkscape:deskcolor="#d1d1d1" />
  <g
     id="color"
     transform="translate(-13.166654,-11.0423)">
    <path
       fill="#92d3f5"
       d="m 21.1668,33.0423 a 23.705,23.705 0 0 0 -3.665,2.333 c -2.2159,1.7734 -3.918,16.334 -3.834,17.667 0.084,1.333 1.583,7.916 2.25,7.916 H 56.25 c 0,0 2.166,-3.333 2.083,-4.333 -0.083,-1 0.25,-14.749 -1.166,-16.583 -1.416,-1.834 -1.5459,-4.1895 -2.418,-4.833 a 28.5671,28.5671 0 0 0 -3.582,-2.167"
       id="path1" />
  </g>
  <g
     id="skin"
     transform="translate(-13.166654,-11.0423)">
    <path
       fill="#fadcbc"
       d="m 39.1668,36.0423 c 0,4 -14,2 -14,6 v 0 c 0,4 4.873,8 10.9365,8 5.9365,0 11.0635,-4 11.0635,-10 v 0 c 0,-2 -7,-2 -8,-4"
       id="path2" />
    <path
       fill="#fadcbc"
       d="m 34.1668,58.0423 a 1.92,1.92 0 0 1 -2,1.9414 c -1.1025,0 -6,0.0586 -6,0.0586 h -6 c 0,0 0,-4 5,-4 h 7 a 1.9588,1.9588 0 0 1 2,2 z"
       id="path3" />
    <path
       fill="#fadcbc"
       d="m 38.1668,58.0423 a 1.92,1.92 0 0 0 2,1.9414 c 1.1025,0 6,0.0586 6,0.0586 h 6 c 0,0 0,-4 -5,-4 h -7 a 1.9588,1.9588 0 0 0 -2,2 z"
       id="path4" />
  </g>
  <g
     id="hair"
     transform="translate(-13.166654,-11.0423)">
    <path
       fill="#a57939"
       d="m 43.0879,47.899 c 2.9254,-1.5092 4.157,-7.0041 3.9423,-7.9341 -0.2147,-0.93 -7.9409,-3.9226 -7.9409,-3.9226 -2.0747,5.6638 -7.4411,0.42 -12.9225,4.4718 -4.6763,3.457 5.18,8.6662 5.18,8.6662 -8.7621,5.2459 -10.3325,-3.9487 -10.3325,-3.9487 -2.187,-5.7992 1.1523,-5.1893 1.1523,-12.1893 0,-7 4,-14 14,-14 10,0 14,7 14,14 0,7 2.7234,10.3449 1.2489,15.5177 0,0 -4.2487,5.6569 -9.2487,0.6922 z"
       id="path5" />
  </g>
  <g
     id="line"
     transform="translate(-13.166654,-11.0423)">
    <path
       fill="none"
       stroke="#000000"
       stroke-linecap="round"
       stroke-linejoin="round"
       stroke-width="2"
       d="m 25.878,49.8 c -9.9825,-1.7577 -3.7112,-9.7577 -3.7112,-16.7577 0,-7 4,-14 14,-14 10,0 14,7 14,14 0,7 5.6037,16.0533 -3.3329,17.2439"
       id="path6" />
    <path
       fill="none"
       stroke="#000000"
       stroke-linecap="round"
       stroke-linejoin="round"
       stroke-width="2"
       d="m 39.1668,36.0423 c 0,4 -14,2 -14,6 v 0 c 0,4 4.873,8 10.9365,8 5.9365,0 11.0635,-4 11.0635,-10 v 0 c 0,-2 -7,-2 -8,-4"
       id="path7" />
    <path
       fill="none"
       stroke="#000000"
       stroke-linecap="round"
       stroke-linejoin="round"
       stroke-width="2"
       d="m 34.1668,58.0423 a 1.92,1.92 0 0 1 -2,1.9414 c -1.1025,0 -6,0.0586 -6,0.0586 h -6 c 0,0 0,-4 5,-4 h 7 a 1.9588,1.9588 0 0 1 2,2 z"
       id="path8" />
    <path
       fill="none"
       stroke="#000000"
       stroke-linecap="round"
       stroke-linejoin="round"
       stroke-width="2"
       d="m 38.1668,58.0423 a 1.92,1.92 0 0 0 2,1.9414 c 1.1025,0 6,0.0586 6,0.0586 h 6 c 0,0 0,-4 -5,-4 h -7 a 1.9588,1.9588 0 0 0 -2,2 z"
       id="path9" />
    <path
       fill="none"
       stroke="#000000"
       stroke-linecap="round"
       stroke-linejoin="round"
       stroke-width="2"
       d="m 18.1668,36.0423 c 0,0 -4,3 -4,12 v 4 c 0,3 0,6 2,8"
       id="path10" />
    <path
       fill="none"
       stroke="#000000"
       stroke-linecap="round"
       stroke-linejoin="round"
       stroke-width="2"
       d="m 54.1668,36.0423 c 0,0 4,3 4,12 v 5 c 0,3 0,5 -2,7"
       id="path11" />
    <line
       x1="23.1668"
       x2="26.1668"
       y1="15.0423"
       y2="18.042299"
       fill="none"
       stroke="#000000"
       stroke-linecap="round"
       stroke-linejoin="round"
       stroke-width="2"
       id="line11" />
    <line
       x1="31.1668"
       x2="29.1668"
       y1="15.0423"
       y2="12.0423"
       fill="none"
       stroke="#000000"
       stroke-linecap="round"
       stroke-linejoin="round"
       stroke-width="2"
       id="line12" />
    <line
       x1="49.166801"
       x2="46.166801"
       y1="15.0423"
       y2="18.042299"
       fill="none"
       stroke="#000000"
       stroke-linecap="round"
       stroke-linejoin="round"
       stroke-width="2"
       id="line13" />
    <line
       x1="41.166801"
       x2="43.166801"
       y1="15.0423"
       y2="12.0423"
       fill="none"
       stroke="#000000"
       stroke-linecap="round"
       stroke-linejoin="round"
       stroke-width="2"
       id="line14" />
    <path
       fill="none"
       stroke="#000000"
       stroke-linecap="round"
       stroke-linejoin="round"
       stroke-width="2"
       d="m 39.1668,36.0423 v -7"
       id="path14" />
    <path
       fill="none"
       stroke="#000000"
       stroke-linecap="round"
       stroke-miterlimit="10"
       stroke-width="2"
       d="m 33.1668,43.0423 a 2.7822,2.7822 0 0 1 -3,0"
       id="path15" />
    <path
       fill="none"
       stroke="#000000"
       stroke-linecap="round"
       stroke-miterlimit="10"
       stroke-width="2"
       d="m 39.1668,43.0423 a 2.9662,2.9662 0 0 0 3,0"
       id="path16" />
  </g>
</svg>
