<svg xmlns="http://www.w3.org/2000/svg" xmlns:svg="http://www.w3.org/2000/svg" id="emoji" width="53.3" height="59.75" version="1.1" viewBox="0 0 53.3 59.75"><g id="color" transform="translate(-9.3500004,-6.2499146)"><path id="path1" fill="#f4aa41" d="M 58.3627,49.2828 C 54.8131,58.2779 45.9001,64.0933 35.4655,64.0933 26.47,64.0933 16.4668,58.4655 12.9172,49.4704 L 12.7927,49.1619 C 11.6665,46.3404 11.8616,42.887 11.8616,39.6582 l 3.6179,-31.9254 10.0781,9.9318 c 2.8836,-1.231 6.055,-1.9129 9.3833,-1.9129 h 1.0493 c 3.3283,0 6.4997,0.6818 9.3833,1.9129 L 56.4516,6.7328 60.1242,40.1561 c 0,3.2288 -0.6199,6.3115 -1.7471,9.1329"/><path id="path2" fill="#e27022" d="m 35.4655,64.0933 c 10.4671,0.3379 20.0822,-5.782 23.6318,-14.7771 l 0.1094,-0.2279 c 1.1262,-2.8215 0.9317,-6.8043 0.9317,-10.0331 L 56.4516,6.7328"/><ellipse id="ellipse2" cx="36" cy="51.719" fill="#ea5a47" rx="6.452" ry="7.751"/><ellipse id="ellipse3" cx="24.456" cy="34.194" fill="#fff" rx="7.751" ry="6.452" transform="matrix(0.3339,-0.9426,0.9426,0.3339,-15.9415,45.8287)"/><ellipse id="ellipse4" cx="46.84" cy="34.195" fill="#fff" rx="6.452" ry="7.751" transform="matrix(0.9426,-0.3339,0.3339,0.9426,-8.7295,17.6024)"/><path id="path4" fill="#f4aa41" d="m 15.2952,65 h 9.0343 c 0,0 1.3738,-13.3688 0,-15.8101 -0.9984,-1.7742 -2.5479,-5.2709 -6.8527,-5.1379 -1.5576,0.0481 -6.0111,1.347 -4.7097,5.2514 1.8131,5.4394 3.4222,4.5051 4.2929,6.1777 C 18.2042,57.6789 15.2952,65 15.2952,65 Z"/><path id="path5" fill="#f4aa41" d="m 56.3242,65 h -9.0343 c 0,0 -1.3738,-13.3688 0,-15.8101 0.9984,-1.7742 2.5479,-5.2709 6.8527,-5.1379 1.5577,0.0481 6.0111,1.347 4.7097,5.2514 -1.8131,5.4394 -3.4222,4.5051 -4.2929,6.1777 C 53.4152,57.6789 56.3242,65 56.3242,65 Z"/></g><g id="line" transform="translate(-9.3500004,-6.2499146)"><line id="line5" x1="61.65" x2="57.61" y1="54.45" y2="52.2" fill="none" stroke="#000" stroke-linecap="round" stroke-linejoin="round" stroke-miterlimit="10" stroke-width="2"/><line id="line6" x1="57.55" x2="54.34" y1="59.58" y2="57.8" fill="none" stroke="#000" stroke-linecap="round" stroke-linejoin="round" stroke-miterlimit="10" stroke-width="2"/><path id="path6" fill="none" stroke="#000" stroke-linecap="round" stroke-linejoin="round" stroke-miterlimit="10" stroke-width="2" d="m 12.92,46.4798 c 0,0 -0.01,-0.01 0,-0.01 -0.67,-2.19 -1.03,-4.5 -1.03,-6.9 l 3.59,-32.32 10.83,10.57 c 2.82,-1.19 5.92,-1.85 9.18,-1.85 h 1.02 c 3.26,0 6.36,0.66 9.18,1.85 l 10.83,-10.57 3.59,32.32 c 0,2.59 -0.41,5.07 -1.19,7.4"/><path id="path7" fill="none" stroke="#000" stroke-linecap="round" stroke-linejoin="round" stroke-miterlimit="10" stroke-width="2" d="m 24.7,60.5598 c 3.23,1.67 6.9,2.61 10.79,2.61 h 1.02 c 3.75,0 7.28,-0.87 10.43,-2.42"/><line id="line7" x1="14.1" x2="10.35" y1="52.36" y2="54.45" fill="none" stroke="#000" stroke-linecap="round" stroke-linejoin="round" stroke-miterlimit="10" stroke-width="2"/><line id="line8" x1="17.25" x2="14.45" y1="58.02" y2="59.58" fill="none" stroke="#000" stroke-linecap="round" stroke-linejoin="round" stroke-miterlimit="10" stroke-width="2"/><ellipse id="ellipse8" cx="36" cy="51.719" fill="none" stroke="#000" stroke-linecap="round" stroke-linejoin="round" stroke-miterlimit="10" stroke-width="2" rx="6.452" ry="7.751"/><ellipse id="ellipse9" cx="24.456" cy="34.194" fill="none" stroke="#000" stroke-linecap="round" stroke-linejoin="round" stroke-miterlimit="10" stroke-width="2" rx="7.751" ry="6.452" transform="matrix(0.3339,-0.9426,0.9426,0.3339,-15.9415,45.8287)"/><ellipse id="ellipse10" cx="46.84" cy="34.195" fill="none" stroke="#000" stroke-linecap="round" stroke-linejoin="round" stroke-miterlimit="10" stroke-width="2" rx="6.452" ry="7.751" transform="matrix(0.9426,-0.3339,0.3339,0.9426,-8.7295,17.6024)"/><path id="path10" fill="none" stroke="#000" stroke-linecap="round" stroke-linejoin="round" stroke-miterlimit="10" stroke-width="2" d="m 15.2952,65 h 9.0343 c 0,0 1.3738,-13.3688 0,-15.8101 -0.9984,-1.7742 -2.5479,-5.2709 -6.8527,-5.1379 -1.5576,0.0481 -6.0111,1.347 -4.7097,5.2514 1.8131,5.4394 3.4222,4.5051 4.2929,6.1777 C 18.2042,57.6789 15.2952,65 15.2952,65 Z"/><path id="path11" fill="none" stroke="#000" stroke-linecap="round" stroke-linejoin="round" stroke-miterlimit="10" stroke-width="2" d="m 56.3242,65 h -9.0343 c 0,0 -1.3738,-13.3688 0,-15.8101 0.9984,-1.7742 2.5479,-5.2709 6.8527,-5.1379 1.5577,0.0481 6.0111,1.347 4.7097,5.2514 -1.8131,5.4394 -3.4222,4.5051 -4.2929,6.1777 C 53.4152,57.6789 56.3242,65 56.3242,65 Z"/></g></svg>