<svg xmlns="http://www.w3.org/2000/svg" xmlns:svg="http://www.w3.org/2000/svg" id="emoji" width="48" height="48" version="1.1" viewBox="0 0 48 48"><g id="color" transform="translate(-12,-12)"><circle id="circle1" cx="36" cy="36" r="23" fill="#fcea2b"/></g><g id="line" transform="translate(-12,-12)"><circle id="circle2" cx="36" cy="36" r="23" fill="none" stroke="#000" stroke-linecap="round" stroke-linejoin="round" stroke-width="2"/><path id="path2" fill="none" stroke="#000" stroke-linecap="round" stroke-linejoin="round" stroke-width="2" d="m 26.1851,27.0707 c 2.8995,-1.6362 6.2482,-2.5699 9.8149,-2.5699 3.5667,0 6.9153,0.9336 9.8149,2.5699"/><path id="path3" d="m 42,41 c 0,-1.6568 1.3448,-3 3,-3 1.6553,0 3,1.3433 3,3 0,1.6552 -1.3447,3 -3,3 -1.6552,0 -3,-1.3448 -3,-3"/><path id="path4" d="m 24,41 c 0,-1.6568 1.3447,-3 3,-3 1.6553,0 3,1.3433 3,3 0,1.6552 -1.3447,3 -3,3 -1.6553,0 -3,-1.3448 -3,-3"/></g></svg>