<svg xmlns="http://www.w3.org/2000/svg" xmlns:svg="http://www.w3.org/2000/svg" id="emoji" width="50" height="52.775" version="1.1" viewBox="0 0 50 52.775"><g id="color" transform="translate(-10.992019,-8.1832668)"><path id="path1" fill="#92d3f5" d="m 56.4921,60.9261 4,-17 -10.9375,-4.375 -0.1543,-0.624 c -2.4082,3.0312 -2.7539,1.3447 -4.334,2.3974 -6.6572,8.6026 -13.8242,6.1338 -19.0742,0.05 -1.8174,-1.3633 -1.6562,0.584 -2.5039,-1.4482 h -0.9961 l -10,3 4,18"/></g><g id="skin" transform="translate(-10.992019,-8.1832668)"><path id="path2" fill="#debb90" d="m 24.9286,32.9583 c 0,9 4.9365,14 11,14 5.9365,0 11.0635,-5 11.0635,-14 a 12.1371,12.1371 0 0 0 -1,-5.0005 c -3,-2.9995 -7,-8 -7,-8 -4,3 -7,6 -13,7.0005 0,0 -1.0635,0.9995 -1.0635,6 z"/><path id="path3" fill="#debb90" d="m 22.9882,39.9583 c -1.0918,-4.1 -1.6553,-8.4766 -1.9961,-10.25 -0.6426,-3.3394 5,-12.75 5,-12.75 h 2 c 3,0 5,-2 11,-2 A 0.8313,0.8313 0 0 0 39.9335,14.41 L 28.9491,11.5423 a 25.4338,25.4338 0 0 0 -3.957,0.416 11.464,11.464 0 0 0 -4,2 c 0,0 -7,11 -7,15 v 13"/><path id="path4" fill="#debb90" d="m 48.9,38.9593 c 0.9219,-3.7 1.6182,-7.6348 2.0918,-10.001 0.667,-3.3345 -5,-12 -5,-12 a 3.4914,3.4914 0 0 0 -2,-1 c -3,0 -4,-2 -6,-3 a 53.8435,53.8435 0 0 0 -8,-1 0.9794,0.9794 0 0 1 -1,-1 c 0,0 0.041,-1.0835 1.041,-1.0835 2.58,0 7.2276,0.0835 10.959,0.0835 a 32.8785,32.8785 0 0 1 8,2 11.0667,11.0667 0 0 1 2,2 c 0,0 7,11 7,15 v 13"/></g><g id="hair" transform="translate(-10.992019,-8.1832668)"><path id="path5" fill="#fcea2b" d="m 45.493,27.45 c -1.9017,0 -4.6484,-7.4922 -6.239,-6.916 -3.9214,1.4205 -10.8788,5.6591 -13.2619,6.617 -1.6562,0.6658 -0.3539,13.4249 -0.3539,13.4249 -2.7372,0 -5.08,-5.5828 -3.8667,-12.4769 1.5823,-8.9916 2.0123,-11.0515 13.3523,-12.44 12.5681,-1.5393 15.4053,5.3756 15.4079,12.4768 0.0025,7 -0.54,12.44 -4.54,12.44 C 47.0506,40.0237 47.4091,27.45 45.493,27.45 Z"/></g><g id="line" transform="translate(-10.992019,-8.1832668)"><path id="path6" fill="none" stroke="#000" stroke-linecap="round" stroke-linejoin="round" stroke-width="2" d="m 48.578,39.5384 a 2.9,2.9 0 0 1 -2.5859,1.42"/><path id="path7" fill="none" stroke="#000" stroke-linecap="round" stroke-linejoin="round" stroke-width="2" d="M 25.9921,40.9583 A 3.5531,3.5531 0 0 1 22.68,39.0208"/><path id="path8" d="m 41.8651,31.9583 a 2,2 0 1 1 -2,-2 2,2 0 0 1 2,2"/><path id="path9" d="m 33.8651,31.9583 a 2,2 0 1 1 -2,-2 2,2 0 0 1 2,2"/><path id="path10" fill="none" stroke="#000" stroke-linejoin="round" stroke-width="2" d="m 24.9286,32.9583 c 0,9 4.9365,14 11,14 5.9365,0 11.0635,-5 11.0635,-14 a 12.1371,12.1371 0 0 0 -1,-5.0005 c -3,-2.9995 -7,-8 -7,-8 -4,3 -7,6 -13,7.0005 0,0 -1.0635,0.9995 -1.0635,6 z"/><path id="path11" fill="none" stroke="#000" stroke-linecap="round" stroke-linejoin="round" stroke-width="2" d="m 38.9921,39.4583 c -1,2 -5,2 -6,0"/><path id="path12" fill="none" stroke="#000" stroke-linecap="round" stroke-linejoin="round" stroke-width="2" d="m 48.7743,39.4593 c 0.9844,-3.8408 1.7237,-8.0274 2.2178,-10.501 0.667,-3.3345 -5,-12 -5,-12 a 3.4914,3.4914 0 0 0 -2,-1 c -3,0 -4,-2 -6,-3 a 52.19,52.19 0 0 0 -7.5547,-0.9932 1.3266,1.3266 0 0 1 -1.4033,-1.3242 c 0,0 -0.042,-1.4785 2.0791,-1.4453 a 49.99,49.99 0 0 1 9.8789,0.7627 c 0.98,0.1963 6.0244,1.0508 8,2 a 11.0667,11.0667 0 0 1 2,2 c 0,0 7,11 7,15 v 13.9678"/><path id="path13" fill="none" stroke="#000" stroke-linecap="round" stroke-linejoin="round" stroke-width="2" d="m 39.9335,14.41 a 0.8313,0.8313 0 0 1 -0.9414,0.5483 c -6,0 -8,2 -11,2 h -2 c 0,0 -5.6426,9.4106 -5,12.75 0.3125,1.625 0.8125,5.4375 1.7344,9.2188"/><path id="path14" fill="none" stroke="#000" stroke-linecap="round" stroke-linejoin="round" stroke-width="2" d="m 13.9921,41.9583 v -13 c 0,-4 7,-15 7,-15 a 11.464,11.464 0 0 1 4,-2 13.3688,13.3688 0 0 1 4.7363,-0.187"/><polyline id="polyline14" fill="none" stroke="#000" stroke-linecap="round" stroke-linejoin="round" stroke-width="2" points="22.492 39.926 11.992 42.958 15.992 59.958"/><polyline id="polyline15" fill="none" stroke="#000" stroke-linecap="round" stroke-linejoin="round" stroke-width="2" points="48.578 39.538 59.992 43.958 55.992 59.958"/></g></svg>