<svg xmlns="http://www.w3.org/2000/svg" xmlns:svg="http://www.w3.org/2000/svg" id="emoji" width="63.734" height="33.552" version="1.1" viewBox="0 0 63.734 33.552"><g id="color" transform="translate(-4.2723303,-20.948)">d<path id="path1" fill="#fff" d="M 68,48 6.22,47.4974 5.089,43.5394 36.849,22.5194 67.999,21.941 Z"/><path id="path2" fill="#9b9b9a" d="m 68,48 v 5.5 H 12.65 A 1.004,1.004 0 0 1 12.1469,51.627 L 18.4109,48 Z"/><path id="path3" fill="#3f3f3f" d="M 68,36.5 H 41.84 a 1.286,1.286 0 0 1 -0.69,-2.37 l 7.259,-4.62 a 12.86,12.86 0 0 1 6.903,-2.01 h 12.68"/><path id="path4" fill="#3f3f3f" d="m 15.61,36.5 h 9.502 a 12.86,12.86 0 0 0 6.903,-2.01 l 7.259,-4.62 A 1.286,1.286 0 0 0 38.584,27.5 H 29.11"/><path id="path5" fill="#d22f27" d="M 67.93,44 H 18.64 a 0.5714,0.5714 0 0 1 -0.3068,-1.054 l 3.227,-2.053 a 5.714,5.714 0 0 1 3.068,-0.8934 h 43.3"/></g><g id="line" transform="translate(-4.2723303,-20.948)"><path id="path6" fill="none" stroke="#000" stroke-linecap="round" stroke-miterlimit="10" stroke-width="2" d="M 67,36.5 H 41.84 a 1.286,1.286 0 0 1 -0.69,-2.37 l 7.259,-4.62 a 12.86,12.86 0 0 1 6.903,-2.01 h 11.68"/><path id="path7" fill="none" stroke="#000" stroke-linecap="round" stroke-miterlimit="10" stroke-width="2" d="m 15.61,36.5 h 9.502 a 12.86,12.86 0 0 0 6.903,-2.01 l 7.259,-4.62 A 1.286,1.286 0 0 0 38.584,27.5 H 29.11"/><path id="path8" fill="none" stroke="#000" stroke-linecap="round" stroke-miterlimit="10" stroke-width="2" d="M 67,48 H 8.27 A 3,3 0 0 1 6.606,42.504 l 24.95,-16.63 a 23.38,23.38 0 0 1 12.97,-3.926 h 22.48"/><path id="path9" fill="none" stroke="#000" stroke-linecap="round" stroke-miterlimit="10" stroke-width="2" d="M 67,53.5 H 12.65 A 1.004,1.004 0 0 1 12.1469,51.627 L 18.4109,48"/><path id="path10" fill="none" stroke="#000" stroke-linecap="round" stroke-miterlimit="10" stroke-width="2" d="M 66.93,44 H 18.64 a 0.5714,0.5714 0 0 1 -0.3068,-1.054 l 3.227,-2.053 a 5.714,5.714 0 0 1 3.068,-0.8934 h 42.3"/></g></svg>