<?xml version="1.0" encoding="UTF-8" standalone="no"?>
<svg
   id="emoji"
   viewBox="0 0 66.099998 31.361082"
   version="1.1"
   sodipodi:docname="1f685.svg"
   width="66.099998"
   height="31.361082"
   xmlns:inkscape="http://www.inkscape.org/namespaces/inkscape"
   xmlns:sodipodi="http://sodipodi.sourceforge.net/DTD/sodipodi-0.dtd"
   xmlns="http://www.w3.org/2000/svg"
   xmlns:svg="http://www.w3.org/2000/svg">
  <defs
     id="defs4" />
  <sodipodi:namedview
     id="namedview4"
     pagecolor="#ffffff"
     bordercolor="#000000"
     borderopacity="0.25"
     inkscape:showpageshadow="2"
     inkscape:pageopacity="0.0"
     inkscape:pagecheckerboard="0"
     inkscape:deskcolor="#d1d1d1" />
  <g
     id="line-supplement"
     transform="translate(-3.4000001,-25.638918)">
    <path
       id="xx"
       fill="none"
       stroke="#000000"
       stroke-linecap="round"
       stroke-linejoin="round"
       stroke-miterlimit="10"
       stroke-width="2"
       d="m 15.1,47.5 c 0,0 14.4,-2.1 49.4,-1" />
  </g>
  <g
     id="color"
     transform="translate(-3.4000001,-25.638918)">
    <path
       fill="#d0cfce"
       d="m 52.6,26.7 c 0,0 -13.7,-1 -23.8,5.6 C 18.7,38.9 12.6,44 12.6,44 c 0,0 -1.8,1.8 -1.9,3.9 -0.2,3 6.9,3.9 6.9,3.9 L 33,52.9 c 0.3,0 0.7,0 1,0 h 34.5 c 0,0 -0.2,-26.2 0,-26.2 0.1,0 -15.9,0 -15.9,0 z"
       id="path1" />
    <path
       fill="#3f3f3f"
       d="m 27.8,38.1 3,3 h 34.7 v -7 c 0,-0.6 -0.4,-1 -1,-1 h -19 c 0,0 -8.6,-0.2 -18.1,4.1"
       id="path2" />
    <path
       fill="none"
       stroke="#ea5a47"
       stroke-linecap="round"
       stroke-linejoin="round"
       stroke-miterlimit="10"
       stroke-width="2"
       d="m 15.1,47.5 c 0,0 14.4,-2.1 49.4,-1"
       id="path3" />
  </g>
  <g
     id="hair"
     transform="translate(-3.4000001,-25.638918)" />
  <g
     id="skin"
     transform="translate(-3.4000001,-25.638918)" />
  <g
     id="skin-shadow"
     transform="translate(-3.4000001,-25.638918)" />
  <g
     id="line"
     transform="translate(-3.4000001,-25.638918)">
    <circle
       cx="42.200001"
       cy="54"
       r="2"
       id="circle3" />
    <circle
       cx="55.299999"
       cy="54"
       r="2"
       id="circle4" />
    <line
       x1="4.4000001"
       x2="67.5"
       y1="56"
       y2="56"
       fill="none"
       stroke="#000000"
       stroke-linecap="round"
       stroke-linejoin="round"
       stroke-miterlimit="10"
       stroke-width="2"
       id="line4" />
    <path
       fill="none"
       stroke="#000000"
       stroke-linecap="round"
       stroke-linejoin="round"
       stroke-miterlimit="10"
       stroke-width="2"
       d="m 52.6,26.7 c 0,0 -13.7,-1 -23.8,5.6 C 18.7,38.9 12.6,44 12.6,44 c 0,0 -1.8,1.8 -1.9,3.9 -0.2,3 6.9,3.9 6.9,3.9 L 33,52.9 c 0.3,0 0.7,0 1,0 h 34.5 c 0,0 -0.2,-26.2 0,-26.2 0.1,0 -15.9,0 -15.9,0 z"
       id="path4" />
    <polyline
       fill="none"
       stroke="#000000"
       stroke-linecap="round"
       stroke-linejoin="round"
       stroke-miterlimit="10"
       stroke-width="2"
       points="27.8,38.1 30.8,41.2 64.5,41.2"
       id="polyline4" />
  </g>
</svg>
