<svg xmlns="http://www.w3.org/2000/svg" xmlns:svg="http://www.w3.org/2000/svg" id="emoji" width="58" height="58" version="1.1" viewBox="0 0 58 58"><g id="color" transform="translate(-7,-7)"><circle id="circle1" cx="36" cy="36" r="29" fill="#3f3f3f"/><path id="path1" fill="#d0cfce" d="M 24.83,14 H 47.1695 A 7.2305,7.2305 0 0 1 54.4,21.2305 V 47.5 A 1.5,1.5 0 0 1 52.9,49 H 19.1 A 1.5,1.5 0 0 1 17.6,47.5 V 21.23 A 7.23,7.23 0 0 1 24.83,14 Z"/><rect id="rect1" width="9" height="5" x="42" y="39" fill="#fcea2b"/><rect id="rect2" width="9" height="5" x="20" y="39" fill="#fcea2b"/><line id="line2" x1="51" x2="21" y1="35" y2="35" fill="none" stroke="#ea5a47" stroke-linecap="round" stroke-linejoin="round" stroke-width="2"/><line id="line3" x1="17" x2="21" y1="60.811" y2="54" fill="none" stroke="#fff" stroke-linecap="round" stroke-miterlimit="10" stroke-width="4"/><line id="line4" x1="55" x2="51" y1="60.811" y2="54" fill="none" stroke="#fff" stroke-linecap="round" stroke-miterlimit="10" stroke-width="4"/><rect id="rect4" width="31" height="10" x="20" y="22" fill="#3f3f3f"/></g><g id="line" transform="translate(-7,-7)"><path id="path4" fill="none" stroke="#000" stroke-linecap="round" stroke-linejoin="round" stroke-width="2" d="M 24.83,14 H 47.1695 A 7.2305,7.2305 0 0 1 54.4,21.2305 V 47.5 A 1.5,1.5 0 0 1 52.9,49 H 19.1 A 1.5,1.5 0 0 1 17.6,47.5 V 21.23 A 7.23,7.23 0 0 1 24.83,14 Z"/><path id="path5" fill="none" stroke="#000" stroke-linecap="round" stroke-linejoin="round" stroke-width="2" d="m 51,23 v 8.8 H 21"/><polyline id="polyline5" fill="none" stroke="#000" stroke-linecap="round" stroke-linejoin="round" stroke-width="2" points="21 44 29 44 29 40"/><polyline id="polyline6" fill="none" stroke="#000" stroke-linecap="round" stroke-linejoin="round" stroke-width="2" points="43 44 51 44 51 40"/></g></svg>