<svg xmlns="http://www.w3.org/2000/svg" xmlns:svg="http://www.w3.org/2000/svg" id="emoji" width="66.737" height="42" version="1.1" viewBox="0 0 66.737 42"><g id="color" transform="translate(-2,-15)"><polygon id="polygon1" fill="#fff" points="65 36 65.118 27.867 22.645 27.793 22.645 35.244"/><rect id="rect1" width="45.278" height="12.025" x="21.526" y="35.564" fill="#ea5a47"/><rect id="rect2" width="6.341" height="10.646" x="34.358" y="32.235" fill="#92d3f5" rx="1.058" ry="1.058"/><rect id="rect3" width="6.341" height="10.646" x="21.402" y="32.235" fill="#92d3f5" rx="1.058" ry="1.058"/><rect id="rect4" width="6.341" height="10.646" x="47.368" y="32.235" fill="#92d3f5" rx="1.058" ry="1.058"/><rect id="rect5" width="6.341" height="10.646" x="60.379" y="32.235" fill="#92d3f5" rx="1.058" ry="1.058"/><path id="path5" fill="#d0cfce" d="m 33.749,51.1115 c -0.0114,2.3441 -1.921,4.2352 -4.2652,4.2237 -2.328,-0.0114 -4.2124,-1.8958 -4.2237,-4.2237"/><path id="path6" fill="#d0cfce" d="m 62.7161,51.1115 c -0.0114,2.3441 -1.921,4.2352 -4.2652,4.2237 -2.328,-0.0114 -4.2124,-1.8958 -4.2237,-4.2237"/><rect id="rect6" width="43.938" height="4.063" x="22.196" y="47.049" fill="#3f3f3f"/></g><g id="line" transform="translate(-2,-15)"><line id="line6" x1="3" x2="67" y1="56" y2="56" fill="none" stroke="#000" stroke-linecap="round" stroke-linejoin="round" stroke-width="2"/><line id="line7" x1="21" x2="67" y1="16" y2="16" fill="none" stroke="#000" stroke-linecap="round" stroke-linejoin="round" stroke-width="2"/><polyline id="polyline7" fill="none" stroke="#000" stroke-linecap="round" stroke-linejoin="round" stroke-width="2" points="34.358 26.392 40 21 34 16"/><path id="path7" fill="none" stroke="#000" stroke-linecap="round" stroke-miterlimit="10" stroke-width="2.074" d="M 23.149,50.1115 H 22.33 C 21.8399,50.1101 21.443,49.7132 21.4416,49.2231 V 28.2888 c 0.003,-1.0463 0.8505,-1.8938 1.8968,-1.8968 h 41.4841 c 1.0463,0.003 1.8938,0.8505 1.8968,1.8968 v 20.9347 c -0.0014,0.4898 -0.3982,0.8866 -0.888,0.888 h -0.8291"/><line id="line8" x1="51.971" x2="35.845" y1="50.111" y2="50.111" fill="none" stroke="#000" stroke-linecap="round" stroke-miterlimit="10" stroke-width="2.074"/><path id="path8" fill="none" stroke="#000" stroke-linecap="round" stroke-miterlimit="10" stroke-width="2.074" d="m 33.749,51.3635 c 0.0114,2.3441 -1.8796,4.2537 -4.2237,4.2652 -2.3441,0.0114 -4.2537,-1.8796 -4.2652,-4.2237 0,-0.0138 0,-0.0276 0,-0.0414"/><path id="path9" fill="none" stroke="#000" stroke-linecap="round" stroke-miterlimit="10" stroke-width="2.074" d="m 62.7161,51.1115 c -0.0114,2.3441 -1.921,4.2352 -4.2652,4.2237 -2.328,-0.0114 -4.2124,-1.8958 -4.2237,-4.2237"/><rect id="rect9" width="6.341" height="10.646" x="34.358" y="32.245" fill="none" stroke="#000" stroke-linecap="round" stroke-miterlimit="10" stroke-width="2.074" rx="1.058" ry="1.058"/><rect id="rect10" width="6.341" height="10.646" x="21.402" y="32.245" fill="none" stroke="#000" stroke-linecap="round" stroke-miterlimit="10" stroke-width="2.074" rx="1.058" ry="1.058"/><rect id="rect11" width="6.341" height="10.646" x="47.196" y="32.324" fill="none" stroke="#000" stroke-linecap="round" stroke-miterlimit="10" stroke-width="2.074" rx="1.058" ry="1.058"/><rect id="rect12" width="6.341" height="10.646" x="60.379" y="32.324" fill="none" stroke="#000" stroke-linecap="round" stroke-miterlimit="10" stroke-width="2.074" rx="1.058" ry="1.058"/><line id="line12" x1="20.384" x2="67.752" y1="47.031" y2="47.031" fill="none" stroke="#000" stroke-linecap="round" stroke-miterlimit="10" stroke-width="1.97"/></g></svg>