<svg xmlns="http://www.w3.org/2000/svg" xmlns:svg="http://www.w3.org/2000/svg" id="emoji" width="63" height="38" version="1.1" viewBox="0 0 63 38"><g id="color" transform="translate(-6.3315,-19)"><path id="path1" fill="#d0cfce" d="M 68.1967,49 H 18.769 C 12.4783,49 7.3315,44.5257 7.3315,39.0571 v 0 C 7.3315,33.5886 21.0565,20 27.3471,20 H 68.3315 V 48.8828 A 0.1273,0.1273 0 0 1 68.1967,49 Z"/><polyline id="polyline1" fill="#92d3f5" points="30.331 38 40.92 29 45.331 29 45.331 38 30.331 38"/><polyline id="polyline2" fill="#92d3f5" points="49.331 38 59.92 29 64.331 29 64.331 38 49.331 38"/><path id="path2" fill="#92d3f5" d="m 10.3315,37 c 0,0 5,-7 10,-8 a 22.7948,22.7948 0 0 1 8,0 l -7.569,7.7824 z"/><line id="line2" x1="64.331" x2="12.332" y1="43" y2="43" fill="none" stroke="#ea5a47" stroke-linecap="round" stroke-linejoin="round" stroke-width="2"/><polygon id="polygon2" fill="#3f3f3f" points="17.566 52 68.331 52 68.331 56 11.331 56"/></g><g id="line" transform="translate(-6.3315,-19)"><polygon id="polygon3" fill="none" stroke="#000" stroke-linecap="round" stroke-linejoin="round" stroke-width="2" points="17.566 52 68.331 52 68.331 56 11.331 56"/><polyline id="polyline3" fill="none" stroke="#000" stroke-linecap="round" stroke-linejoin="round" stroke-width="2" points="31.331 38 45.331 38 45.331 29.643"/><polyline id="polyline4" fill="none" stroke="#000" stroke-linecap="round" stroke-linejoin="round" stroke-width="2" points="50.331 38 64.331 38 64.331 29.643"/><polyline id="polyline5" fill="none" stroke="#000" stroke-linecap="round" stroke-linejoin="round" stroke-width="2" points="28.331 30 21.331 37 11.331 37"/><path id="path5" fill="none" stroke="#000" stroke-linecap="round" stroke-linejoin="round" stroke-width="2" d="M 68.1967,49 H 18.769 C 12.4783,49 7.3315,44.5257 7.3315,39.0571 v 0 C 7.3315,33.5886 21.0565,20 27.3471,20 H 68.3315 V 48.8828 A 0.1273,0.1273 0 0 1 68.1967,49 Z"/></g></svg>