<svg xmlns="http://www.w3.org/2000/svg" xmlns:svg="http://www.w3.org/2000/svg" id="emoji" width="67.437" height="60.852" version="1.1" viewBox="0 0 67.437 60.852"><g id="color" transform="translate(-2.7813,-8.1667004)"><polygon id="polygon1" fill="#fff" points="53.454 51.721 53.775 18.792 17.003 20.119 16.836 51.387"/><polyline id="polyline1" fill="#d0cfce" points="53.775 42.583 53.775 18.792 60.781 18.792 60.781 42.583"/><polyline id="polyline2" fill="#d0cfce" points="34.438 62.519 3.781 62.519 3.781 50.929 34.813 50.929"/><path id="path2" fill="#3f3f3f" d="m 35.0781,22.5 h -18 c -0.5522,0 -1,0.4477 -1,1 v 10 c 0,0.5522 0.4478,1 1,1 h 18 c 0.5523,0 1,-0.4478 1,-1 v -10 c 0,-0.5523 -0.4477,-1 -1,-1 z"/><path id="path3" fill="#9b9b9a" d="M 31.7449,25.5 H 20.4114 c -0.5523,0 -1,0.4477 -1,1 v 4 c 0,0.5522 0.4477,1 1,1 h 11.3335 c 0.5522,0 1,-0.4478 1,-1 v -4 c 0,-0.5523 -0.4478,-1 -1,-1 z"/><rect id="rect3" width="64.469" height="9.625" x="3.781" y="9.167" fill="#d0cfce"/><polyline id="polyline3" fill="#d0cfce" points="14.813 51.911 10.781 51.911 10.781 18.792 15.587 18.792 15.587 51.911 14.813 51.911"/><path id="path4" fill="#d0cfce" d="m 55.2813,38.7689 c 0,0 -13.6875,-1 -23.75,5.625 -10.0625,6.625 -16.25,11.625 -16.25,11.625 0,0 -1.7671,1.7819 -1.875,3.875 -0.1563,3.0312 6.875,3.9375 6.875,3.9375 L 35.7,64.9198 c 0.3458,0.0244 0.6923,0.0366 1.0389,0.0366 h 32.4798 c 0,0 -0.1874,-26.1875 0,-26.1875 z"/><path id="path5" fill="#3f3f3f" d="m 30.4063,50.1439 3.0313,3.0312 h 32.7187 v -6.9687 c 0,-0.5523 -0.4478,-1 -1,-1 h -17 c 0,0 -8.5625,-0.25 -18.125,4.125"/><path id="path6" fill="none" stroke="#ea5a47" stroke-linecap="round" stroke-linejoin="round" stroke-width="2" d="m 17.7813,59.5189 c 0,0 12.375,-2.125 47.375,-1"/></g><g id="line" transform="translate(-2.7813,-8.1667004)"><polyline id="polyline6" fill="none" stroke="#000" stroke-linecap="round" stroke-linejoin="round" stroke-width="2" points="54.875 34.917 54.875 18.792 59.681 18.792 59.681 34.917"/><circle id="circle6" cx="57.934" cy="66.021" r="2"/><polyline id="polyline7" fill="none" stroke="#000" stroke-linecap="round" stroke-linejoin="round" stroke-width="2" points="7.438 61.536 3.781 61.536 3.781 51.911 14.813 51.911"/><path id="path7" fill="none" stroke="#000" stroke-linecap="round" stroke-linejoin="round" stroke-width="2" d="m 35.0781,22.5 h -18 c -0.5522,0 -1,0.4477 -1,1 v 10 c 0,0.5522 0.4478,1 1,1 h 18 c 0.5523,0 1,-0.4478 1,-1 v -10 c 0,-0.5523 -0.4477,-1 -1,-1 z"/><path id="path8" fill="none" stroke="#000" stroke-linecap="round" stroke-linejoin="round" stroke-width="2" d="M 31.7449,25.5 H 20.4114 c -0.5523,0 -1,0.4477 -1,1 v 4 c 0,0.5522 0.4477,1 1,1 h 11.3335 c 0.5522,0 1,-0.4478 1,-1 v -4 c 0,-0.5523 -0.4478,-1 -1,-1 z"/><rect id="rect8" width="64.469" height="9.625" x="3.781" y="9.167" fill="none" stroke="#000" stroke-linecap="round" stroke-linejoin="round" stroke-width="2"/><polyline id="polyline8" fill="none" stroke="#000" stroke-linecap="round" stroke-linejoin="round" stroke-width="2.077" points="14.813 51.911 10.781 51.911 10.781 18.792 15.587 18.792 15.587 51.911 14.813 51.911"/><circle id="circle8" cx="44.872" cy="66.021" r="2"/><line id="line8" x1="6.094" x2="68" y1="68.019" y2="68.019" fill="none" stroke="#000" stroke-linecap="round" stroke-linejoin="round" stroke-width="2"/><path id="path9" fill="none" stroke="#000" stroke-linecap="round" stroke-linejoin="round" stroke-width="2" d="m 55.2813,38.7689 c 0,0 -13.6875,-1 -23.75,5.625 -10.0625,6.625 -16.25,11.625 -16.25,11.625 0,0 -1.7671,1.7819 -1.875,3.875 -0.1563,3.0312 6.875,3.9375 6.875,3.9375 L 35.7,64.9198 c 0.3458,0.0244 0.6923,0.0366 1.0389,0.0366 h 32.4798 c 0,0 -0.1874,-26.1875 0,-26.1875 z"/><polyline id="polyline9" fill="none" stroke="#000" stroke-linecap="round" stroke-linejoin="round" stroke-width="2" points="30.406 50.144 33.438 53.175 65.156 53.175"/></g></svg>