<svg xmlns="http://www.w3.org/2000/svg" xmlns:svg="http://www.w3.org/2000/svg" id="emoji" width="48" height="51" version="1.1" viewBox="0 0 48 51"><g id="color" transform="translate(-12,-9.9583)"><rect id="rect1" width="16.946" height="4.941" x="27.689" y="10.958" fill="#fcea2b" rx="2.47" ry="2.47"/><path id="path1" fill="#fcea2b" d="M 24.23,13.9583 H 47.7695 A 7.2305,7.2305 0 0 1 55,21.1888 v 26.2695 a 1.5,1.5 0 0 1 -1.5,1.5 h -35 a 1.5,1.5 0 0 1 -1.5,-1.5 v -26.27 a 7.23,7.23 0 0 1 7.23,-7.23 z"/><rect id="rect2" width="38" height="10" x="17" y="38.958" fill="#f4aa41"/><rect id="rect3" width="31" height="13" x="20" y="20.958" fill="#92d3f5"/><rect id="rect4" width="7" height="3" x="20" y="41.958" fill="#fff"/><rect id="rect5" width="7" height="3" x="44" y="41.958" fill="#fff"/><rect id="rect6" width="40" height="8" x="16" y="48.958" fill="#3f3f3f" rx="2.621" ry="2.621"/><rect id="rect7" width="10.911" height="2.866" x="30.044" y="13.217" fill="#3f3f3f" rx="1.433" ry="1.433"/></g><g id="line" transform="translate(-12,-9.9583)"><rect id="rect8" width="40" height="8" x="16" y="48.958" fill="none" stroke="#000" stroke-linecap="round" stroke-linejoin="round" stroke-width="2" rx="2.621" ry="2.621"/><rect id="rect9" width="6" height="4" x="18" y="56.958" rx="2" ry="2"/><rect id="rect10" width="6" height="4" x="48" y="56.958" rx="2" ry="2"/><line id="line10" x1="16" x2="13" y1="25.958" y2="25.958" fill="none" stroke="#000" stroke-linecap="round" stroke-linejoin="round" stroke-width="2"/><line id="line11" x1="13" x2="13" y1="22.958" y2="28.958" fill="none" stroke="#000" stroke-linecap="round" stroke-linejoin="round" stroke-width="2"/><line id="line12" x1="56" x2="59" y1="25.958" y2="25.958" fill="none" stroke="#000" stroke-linecap="round" stroke-linejoin="round" stroke-width="2"/><line id="line13" x1="59" x2="59" y1="22.958" y2="28.958" fill="none" stroke="#000" stroke-linecap="round" stroke-linejoin="round" stroke-width="2"/><path id="path13" fill="none" stroke="#000" stroke-linecap="round" stroke-linejoin="round" stroke-width="2" d="M 44.1556,13.9583 H 47.77 A 7.2518,7.2518 0 0 1 55,21.1888 v 26.27 a 1.5044,1.5044 0 0 1 -1.5,1.5 h -35 a 1.5044,1.5044 0 0 1 -1.5,-1.5 v -26.27 a 7.2515,7.2515 0 0 1 7.23,-7.23 h 2.6142"/><path id="path14" fill="none" stroke="#000" stroke-linecap="round" stroke-linejoin="round" stroke-width="2" d="m 51,21.9583 v 11.8 H 21"/><polyline id="polyline14" fill="none" stroke="#000" stroke-linecap="round" stroke-linejoin="round" stroke-width="2" points="21 44.958 27 44.958 27 42.958"/><polyline id="polyline15" fill="none" stroke="#000" stroke-linecap="round" stroke-linejoin="round" stroke-width="2" points="45 44.958 51 44.958 51 42.958"/><line id="line15" x1="32" x2="41" y1="41.958" y2="41.958" fill="none" stroke="#000" stroke-linecap="round" stroke-miterlimit="10" stroke-width="2"/><line id="line16" x1="32" x2="41" y1="44.958" y2="44.958" fill="none" stroke="#000" stroke-linecap="round" stroke-miterlimit="10" stroke-width="2"/><path id="path16" fill="none" stroke="#000" stroke-linecap="round" stroke-linejoin="round" stroke-width="2" d="m 26.8444,13.9583 v -0.4791 a 2.5283,2.5283 0 0 1 2.5209,-2.5209 h 12.2694 a 2.5283,2.5283 0 0 1 2.5209,2.5209 v 0.4791"/></g></svg>