<?xml version="1.0" encoding="UTF-8" standalone="no"?>
<svg
   id="emoji"
   viewBox="0 0 66.73735 42"
   version="1.1"
   sodipodi:docname="1f68b.svg"
   width="66.73735"
   height="42"
   xmlns:inkscape="http://www.inkscape.org/namespaces/inkscape"
   xmlns:sodipodi="http://sodipodi.sourceforge.net/DTD/sodipodi-0.dtd"
   xmlns="http://www.w3.org/2000/svg"
   xmlns:svg="http://www.w3.org/2000/svg">
  <defs
     id="defs12" />
  <sodipodi:namedview
     id="namedview12"
     pagecolor="#ffffff"
     bordercolor="#000000"
     borderopacity="0.25"
     inkscape:showpageshadow="2"
     inkscape:pageopacity="0.0"
     inkscape:pagecheckerboard="0"
     inkscape:deskcolor="#d1d1d1" />
  <g
     id="color"
     transform="translate(-2,-15)">
    <polygon
       fill="#ffffff"
       points="65,36 65.1178,27.8674 22.6453,27.7929 22.6453,35.2442 "
       id="polygon1" />
    <rect
       x="21.5264"
       y="35.564201"
       width="45.277802"
       height="12.0246"
       fill="#ea5a47"
       id="rect1" />
    <rect
       x="34.358002"
       y="32.235298"
       rx="1.0578001"
       ry="1.0578001"
       width="6.3407998"
       height="10.6464"
       fill="#92d3f5"
       id="rect2" />
    <rect
       x="21.402399"
       y="32.235298"
       rx="1.0578001"
       ry="1.0578001"
       width="6.3407998"
       height="10.6464"
       fill="#92d3f5"
       id="rect3" />
    <rect
       x="47.368198"
       y="32.235298"
       rx="1.0578001"
       ry="1.0578001"
       width="6.3407998"
       height="10.6464"
       fill="#92d3f5"
       id="rect4" />
    <rect
       x="60.378502"
       y="32.235298"
       rx="1.0578001"
       ry="1.0578001"
       width="6.3407998"
       height="10.6464"
       fill="#92d3f5"
       id="rect5" />
    <path
       fill="#d0cfce"
       d="m 33.749,51.1115 c -0.0114,2.3441 -1.921,4.2352 -4.2652,4.2237 -2.328,-0.0114 -4.2124,-1.8958 -4.2237,-4.2237"
       id="path5" />
    <path
       fill="#d0cfce"
       d="m 62.7161,51.1115 c -0.0114,2.3441 -1.921,4.2352 -4.2652,4.2237 -2.328,-0.0114 -4.2124,-1.8958 -4.2237,-4.2237"
       id="path6" />
    <rect
       x="22.196199"
       y="47.048698"
       width="43.938099"
       height="4.0627999"
       fill="#3f3f3f"
       id="rect6" />
  </g>
  <g
     id="line"
     transform="translate(-2,-15)">
    <line
       x1="3"
       x2="67"
       y1="56"
       y2="56"
       fill="none"
       stroke="#000000"
       stroke-linecap="round"
       stroke-linejoin="round"
       stroke-width="2"
       id="line6" />
    <line
       x1="21"
       x2="67"
       y1="16"
       y2="16"
       fill="none"
       stroke="#000000"
       stroke-linecap="round"
       stroke-linejoin="round"
       stroke-width="2"
       id="line7" />
    <polyline
       fill="none"
       stroke="#000000"
       stroke-linecap="round"
       stroke-linejoin="round"
       stroke-width="2"
       points="34.358 26.392 40 21 34 16"
       id="polyline7" />
    <path
       fill="none"
       stroke="#000000"
       stroke-linecap="round"
       stroke-miterlimit="10"
       stroke-width="2.0737"
       d="M 23.149,50.1115 H 22.33 C 21.8399,50.1101 21.443,49.7132 21.4416,49.2231 V 28.2888 c 0.003,-1.0463 0.8505,-1.8938 1.8968,-1.8968 h 41.4841 c 1.0463,0.003 1.8938,0.8505 1.8968,1.8968 v 20.9347 c -0.0014,0.4898 -0.3982,0.8866 -0.888,0.888 h -0.8291"
       id="path7" />
    <line
       x1="51.9715"
       x2="35.845402"
       y1="50.1115"
       y2="50.1115"
       fill="none"
       stroke="#000000"
       stroke-linecap="round"
       stroke-miterlimit="10"
       stroke-width="2.0737"
       id="line8" />
    <path
       fill="none"
       stroke="#000000"
       stroke-linecap="round"
       stroke-miterlimit="10"
       stroke-width="2.0737"
       d="m 33.749,51.3635 c 0.0114,2.3441 -1.8796,4.2537 -4.2237,4.2652 -2.3441,0.0114 -4.2537,-1.8796 -4.2652,-4.2237 0,-0.0138 0,-0.0276 0,-0.0414"
       id="path8" />
    <path
       fill="none"
       stroke="#000000"
       stroke-linecap="round"
       stroke-miterlimit="10"
       stroke-width="2.0737"
       d="m 62.7161,51.1115 c -0.0114,2.3441 -1.921,4.2352 -4.2652,4.2237 -2.328,-0.0114 -4.2124,-1.8958 -4.2237,-4.2237"
       id="path9" />
    <rect
       x="34.358002"
       y="32.245499"
       rx="1.0578001"
       ry="1.0578001"
       width="6.3407998"
       height="10.6464"
       fill="none"
       stroke="#000000"
       stroke-linecap="round"
       stroke-miterlimit="10"
       stroke-width="2.0737"
       id="rect9" />
    <rect
       x="21.402399"
       y="32.245499"
       rx="1.0578001"
       ry="1.0578001"
       width="6.3407998"
       height="10.6464"
       fill="none"
       stroke="#000000"
       stroke-linecap="round"
       stroke-miterlimit="10"
       stroke-width="2.0737"
       id="rect10" />
    <rect
       x="47.196301"
       y="32.323799"
       rx="1.0578001"
       ry="1.0578001"
       width="6.3407998"
       height="10.6464"
       fill="none"
       stroke="#000000"
       stroke-linecap="round"
       stroke-miterlimit="10"
       stroke-width="2.0737"
       id="rect11" />
    <rect
       x="60.378502"
       y="32.323799"
       rx="1.0578001"
       ry="1.0578001"
       width="6.3407998"
       height="10.6464"
       fill="none"
       stroke="#000000"
       stroke-linecap="round"
       stroke-miterlimit="10"
       stroke-width="2.0737"
       id="rect12" />
    <line
       x1="20.3843"
       x2="67.752403"
       y1="47.030602"
       y2="47.030602"
       fill="none"
       stroke="#000000"
       stroke-linecap="round"
       stroke-miterlimit="10"
       stroke-width="1.9699"
       id="line12" />
  </g>
</svg>
