<svg xmlns="http://www.w3.org/2000/svg" xmlns:svg="http://www.w3.org/2000/svg" id="emoji" width="54.96" height="38.691" version="1.1" viewBox="0 0 54.96 38.691"><g id="color" transform="translate(-9.02,-18.899019)"><path id="path1" fill="#fff" d="m 38.4759,25.1614 -0.248,10.5806 h 0.8266 c 0,0 4.877,-6.1169 8.5141,-6.1996 l -0.0827,-4.877 z"/><rect id="rect1" width="3.167" height="4.417" x="26.682" y="28.364" fill="#3f3f3f"/><path id="path2" fill="#b1cc33" d="m 51.0954,20.2843 c 0,0 -9.8301,-1.17 -16.1602,0.58 l -0.5,10.5799 c 0,0 -18.8398,1.5901 -22.5898,5.5901 l 1.25,13.5 h 40.25 c 0,0 1.1543,-10.4774 0.4938,-19.4245 C 53.5066,26.6037 52.06,22.7428 51.0954,20.2843 Z M 39.8333,37.5649 37.1544,37.5962 37.295,24.9617 c 5.3893,-1.8888 11.6402,0.0726 11.6402,0.0726 l 0.0701,4.9 c -7.85,2.07 -9.172,7.6306 -9.172,7.6306 z"/><path id="path3" fill="#3f3f3f" d="m 11.4801,42.5186 c 0,0 16.6362,-2.6442 30.9971,-3.035 0,0 4.0063,-4.2064 6.0381,-4.911 1.9375,-0.6719 4.8815,-1.2129 5.2787,-0.875 0.4009,0.341 0.2324,2.6722 0.331,5.9151 L 53.4037,51.567 12.3425,51.3533 Z"/><circle id="circle3" cx="52.98" cy="46.59" r="5" fill="#ea5a47"/><circle id="circle4" cx="15.02" cy="51.59" r="3" fill="#ea5a47"/><path id="path4" fill="#fcea2b" d="m 14.07,41.1351 h 1.7578 c 0.9668,0 1.7578,-0.45 1.7578,-1 v -2.12 c -0.1406,0.2258 0.3418,-1 -0.625,-1 l -1.4721,0.3355 c -0.4164,0.0949 -0.7386,0.425 -0.8233,0.8437 z"/></g><g id="line" transform="translate(-9.02,-18.899019)"><path id="path5" d="m 52.9805,35.59 c -6.0654,0 -11,4.9346 -11,11 0,6.0654 4.9346,11 11,11 6.0654,0 11,-4.9346 11,-11 0,-6.0654 -4.9346,-11 -11,-11 z m 4,11 c 0,2.2061 -1.7939,4 -4,4 -2.2061,0 -4,-1.7939 -4,-4 0,-2.2061 1.7939,-4 4,-4 2.2061,0 4,1.7939 4,4 z"/><path id="path6" d="m 15.02,45.59 c -3.3086,0 -6,2.6914 -6,6 0,3.3086 2.6914,6 6,6 3.3086,0 6,-2.6914 6,-6 0,-3.3086 -2.6914,-6 -6,-6 z m 0,8 c -1.103,0 -2,-0.8975 -2,-2 0,-1.1025 0.897,-2 2,-2 1.103,0 2,0.8975 2,2 0,1.1025 -0.897,2 -2,2 z"/><polyline id="polyline6" fill="none" stroke="#000" stroke-linecap="round" stroke-linejoin="round" stroke-width="2" points="26.682 32.3 26.682 28.364 29.849 28.364 29.849 31.851"/><path id="path7" fill="none" stroke="#000" stroke-linecap="round" stroke-linejoin="round" stroke-width="2" d="m 26.682,32.2999 c -5.1431,0.7998 -11.7743,2.1973 -14.4066,4.3368 -0.2664,0.2165 -0.4129,0.5443 -0.3812,0.8861 l 0.6871,6.5445"/><path id="path8" fill="none" stroke="#000" stroke-linecap="round" stroke-linejoin="round" stroke-width="2" d="M 29.8486,31.8513 C 28.9085,31.972 27.8325,32.121 26.682,32.3"/><path id="path9" fill="none" stroke="#000" stroke-linecap="round" stroke-linejoin="round" stroke-width="2" d="m 52.8185,30.467 c -0.3456,-3.6951 -0.8852,-8.0548 -1.7199,-10.1861 0,0 -10.8333,-1.1666 -17.1666,0.5834 l -0.5,10.5833 c 0,0 -1.4378,0.1282 -3.5834,0.4037"/><line id="line9" x1="22.515" x2="40.352" y1="50.531" y2="50.531" fill="none" stroke="#000" stroke-linecap="round" stroke-linejoin="round" stroke-width="2"/><path id="path10" fill="none" stroke="#000" stroke-linecap="round" stroke-linejoin="round" stroke-width="2" d="m 40.3521,43.4723 c 1.537,-6.9462 8.414,-11.3309 15.36,-9.7939 2.792,0.6178 5.1703,2.0984 6.9165,4.0996"/><path id="path11" fill="none" stroke="#000" stroke-linecap="round" stroke-linejoin="round" stroke-width="2" d="m 48.9672,23.6688 c 0,0 -5.919,-0.8771 -11.669,0.2895 l -0.2845,13.4635 h 2.5016 c 0,0 2.875,-4.6409 9.5223,-6.8492 z"/><path id="path12" stroke="#000" stroke-linecap="round" stroke-linejoin="round" stroke-width="2" d="m 28.1193,28.3643 c 0,0 0.3381,-3.5834 -1.2846,-3.5834"/><path id="path13" fill="none" stroke="#000" stroke-linecap="round" stroke-linejoin="round" stroke-width="2" d="m 37.0168,37.2787 h 2.6602 c 0,0 2.7485,-4.8599 9.3606,-6.7061"/><path id="path14" fill="none" stroke="#000" stroke-linecap="round" stroke-linejoin="round" stroke-width="2" d="m 17.044,38.0151 v 2.12 c 0,0.55 -0.4501,1 -1,1 h -1"/></g></svg>