<svg xmlns="http://www.w3.org/2000/svg" xmlns:svg="http://www.w3.org/2000/svg" id="emoji" width="42.939" height="36.994" version="1.1" viewBox="0 0 42.939 36.994"><g id="color" transform="translate(-14.5041,-19.0062)"><polygon id="polygon1" fill="#d0cfce" points="44.988 24.812 50.21 28.861 52.822 38.045 54.853 39.798 54.397 52.154 17.384 52.531 17.384 39.051 18.414 38.511 22.647 27.358 27.455 24.854"/><polygon id="polygon2" fill="#92d3f5" points="45.846 28.155 26.314 28.155 23.192 37.462 48.756 37.443"/><rect id="rect2" width="5" height="3.51" x="19.978" y="41.33" fill="#fcea2b"/><rect id="rect3" width="5" height="3.51" x="45.978" y="41.33" fill="#fcea2b"/><polygon id="polygon3" fill="#61b2e4" points="27.217 24.839 35.956 24.839 35.956 20.533 29.839 20.533 27.217 20.533"/><polygon id="polygon4" fill="#d22f27" points="35.956 24.839 44.889 24.839 44.889 20.533 38.636 20.533 35.956 20.533"/><polygon id="polygon5" fill="#fff" points="33.815 24.839 38.185 24.839 38.185 20.533 35.126 20.533 33.815 20.533"/><rect id="rect5" width="37.242" height="4.236" x="17.641" y="47.844" fill="#3f3f3f" rx="2.118" ry="2.118"/></g><g id="line" transform="translate(-14.5041,-19.0062)"><polyline id="polyline5" fill="none" stroke="#000" stroke-linecap="round" stroke-linejoin="round" stroke-width="2" points="24.095 37.443 48.756 37.443 45.878 28.852"/><line id="line5" x1="32" x2="41" y1="42.161" y2="42.161" fill="none" stroke="#000" stroke-linecap="round" stroke-miterlimit="10" stroke-width="2"/><line id="line6" x1="32" x2="41" y1="44.793" y2="44.793" fill="none" stroke="#000" stroke-linecap="round" stroke-miterlimit="10" stroke-width="2"/><polyline id="polyline6" fill="none" stroke="#000" stroke-linecap="round" stroke-linejoin="round" stroke-width="2" points="21 44.793 25 44.793 25 42.161"/><polyline id="polyline7" fill="none" stroke="#000" stroke-linecap="round" stroke-linejoin="round" stroke-width="2" points="47 44.793 51 44.793 51 42.161"/><rect id="rect7" width="6" height="3.51" x="18" y="52.49" rx="1.755" ry="1.755"/><rect id="rect8" width="6" height="3.51" x="48" y="52.49" rx="1.755" ry="1.755"/><rect id="rect9" width="4.965" height="3.274" x="52.478" y="35.502" rx="1.637" ry="1.637"/><rect id="rect10" width="4.965" height="3.274" x="14.504" y="35.686" rx="1.637" ry="1.637"/><path id="path10" fill="none" stroke="#000" stroke-linecap="round" stroke-linejoin="round" stroke-width="2" d="m 26.3876,24.3126 v 0 c 0,-2.3685 1.18,-4.3064 2.6216,-4.3064 h 13.9816 c 1.4419,0 2.6216,1.9379 2.6216,4.3064 v 0"/><path id="path11" fill="none" stroke="#000" stroke-linecap="round" stroke-linejoin="round" stroke-width="2" d="m 19.598,38.3373 2.0507,-6.9637 c 1.1278,-3.83 4.8183,-6.9636 8.201,-6.9636 H 36"/><path id="path12" fill="none" stroke="#000" stroke-linecap="round" stroke-linejoin="round" stroke-width="2" d="M 52.4019,38.3371 50.3513,31.3736 C 49.2234,27.5436 45.533,24.41 42.1503,24.41 H 36"/><path id="path13" fill="none" stroke="#000" stroke-linecap="round" stroke-linejoin="round" stroke-width="2" d="m 36.2624,52.49 h -16.349 a 2.9458,2.9458 0 0 1 -2.9267,-2.9474 v -7.0373 c 0,-1.5965 0.89,-4.0754 2.4927,-4.0754"/><path id="path14" fill="none" stroke="#000" stroke-linecap="round" stroke-linejoin="round" stroke-width="2" d="m 35.6851,52.49 h 16.349 a 2.9458,2.9458 0 0 0 2.9267,-2.9474 v -7.0373 c 0,-1.5965 -0.89,-4.0754 -2.4927,-4.0754"/></g></svg>