<?xml version="1.0" encoding="UTF-8" standalone="no"?>
<svg
   id="emoji"
   viewBox="0 0 59.534698 25.617205"
   version="1.1"
   sodipodi:docname="1f69a.svg"
   width="59.534698"
   height="25.617205"
   xmlns:inkscape="http://www.inkscape.org/namespaces/inkscape"
   xmlns:sodipodi="http://sodipodi.sourceforge.net/DTD/sodipodi-0.dtd"
   xmlns="http://www.w3.org/2000/svg"
   xmlns:svg="http://www.w3.org/2000/svg">
  <defs
     id="defs8" />
  <sodipodi:namedview
     id="namedview8"
     pagecolor="#ffffff"
     bordercolor="#000000"
     borderopacity="0.25"
     inkscape:showpageshadow="2"
     inkscape:pageopacity="0.0"
     inkscape:pagecheckerboard="0"
     inkscape:deskcolor="#d1d1d1" />
  <g
     id="color"
     transform="translate(-5.9993586,-31.084998)">
    <path
       fill="#ffffff"
       stroke="none"
       d="m 61.3365,52.9588 c 0.5526,-0.0137 0.851,-1.0213 0.851,-1.0213 0,0 2,0.125 2.3125,-1.1875 0.0414,-0.1738 0.2878,-13.7904 -1.529,-17.571 -0.148,-0.3081 -0.4411,-0.5118 -0.7806,-0.552 -3.0415,-0.3603 -19.4332,-1.1578 -32.2529,0.3105 0,0 -4.6406,1.2031 -12.75,6.875 0,0 -5.5,2.25 -7.875,3.875 -2.375,1.625 -2.3125,4.75 -2.3125,4.75 0,0 0.25,3 0.75,3.9375 0.0763,0.1431 0.3975,1.2323 2.5817,1.2808"
       id="path1" />
    <path
       fill="#3f3f3f"
       stroke="none"
       d="m 64.5334,48.9168 h -9.3181 v 0.8025 c 0,1.7924 1.453,3.2454 3.2454,3.2454 h 3.1061 c 0.985,0 1.9167,-0.4473 2.5326,-1.2159 L 65,50.625 Z"
       id="path2" />
    <polygon
       fill="#3f3f3f"
       stroke="none"
       points="8.1305,52.2384 10.0938,53.6558 16.0403,53.6558 17.9153,51.4851 17.4486,49.7001 8.1305,49.7001 "
       id="polygon2" />
    <circle
       cx="17.131901"
       cy="52.702202"
       r="3"
       fill="#9b9b9a"
       stroke="none"
       stroke-miterlimit="10"
       stroke-width="2"
       id="circle2" />
    <circle
       cx="55.215302"
       cy="52.702202"
       r="3"
       fill="#9b9b9a"
       stroke="none"
       stroke-miterlimit="10"
       stroke-width="2"
       id="circle3" />
    <path
       fill="#3f3f3f"
       stroke="none"
       d="M 33.9167,35.0833 V 41.75 L 19.75,42.1458 c 0,0 6.9167,-7.8958 14.1667,-7.0625 z"
       id="path3" />
    <path
       fill="#d0cfce"
       stroke="none"
       d="m 14.4147,45.7213 c 0,0 0.0855,-1.0781 -1.2895,-1.2031 -1.375,-0.125 -3.898,1.2031 -4.0386,1.5625 -0.1406,0.3594 -0.3489,1.4328 0.2812,1.625 0.6302,0.1922 5.0469,-1.9844 5.0469,-1.9844 z"
       id="path4" />
    <path
       fill="#d0cfce"
       stroke="none"
       stroke-linecap="round"
       stroke-linejoin="round"
       stroke-miterlimit="10"
       stroke-width="2"
       d="m 13.4649,45.6334 c 0,0 -1.9647,1.6588 -3.5765,1.9176"
       id="path5" />
  </g>
  <g
     id="hair"
     transform="translate(-5.9993586,-31.084998)" />
  <g
     id="skin"
     transform="translate(-5.9993586,-31.084998)" />
  <g
     id="skin-shadow"
     transform="translate(-5.9993586,-31.084998)" />
  <g
     id="line"
     transform="translate(-5.9993586,-31.084998)">
    <path
       fill="none"
       stroke="#000000"
       stroke-linecap="round"
       stroke-linejoin="round"
       stroke-miterlimit="10"
       stroke-width="2"
       d="m 22.8341,52.6719 c 8.2686,-0.0728 17.415,-0.2643 25.3341,-0.4335"
       id="path6" />
    <circle
       cx="17.131901"
       cy="52.702202"
       r="3"
       fill="none"
       stroke="#000000"
       stroke-miterlimit="10"
       stroke-width="2"
       id="circle6" />
    <circle
       cx="55.215302"
       cy="52.702202"
       r="3"
       fill="none"
       stroke="#000000"
       stroke-miterlimit="10"
       stroke-width="2"
       id="circle7" />
    <polyline
       fill="none"
       stroke="#000000"
       stroke-linecap="round"
       stroke-linejoin="round"
       stroke-miterlimit="10"
       stroke-width="2"
       points="33.9167,36.0833 33.9167,41.75 20.5,42.6667"
       id="polyline7" />
    <line
       x1="24.0833"
       x2="49.083302"
       y1="49.083302"
       y2="48.083302"
       fill="none"
       stroke="#000000"
       stroke-linecap="round"
       stroke-linejoin="round"
       stroke-miterlimit="10"
       stroke-width="2"
       id="line7" />
    <path
       fill="none"
       stroke="#000000"
       stroke-linecap="round"
       stroke-linejoin="round"
       stroke-miterlimit="10"
       stroke-width="2"
       d="m 13.4649,45.6334 c 0,0 -1.9647,1.6588 -3.5765,1.9176"
       id="path7" />
    <path
       fill="none"
       stroke="#000000"
       stroke-linecap="round"
       stroke-linejoin="round"
       stroke-miterlimit="10"
       stroke-width="2"
       d="m 61.3365,51.9588 c 0.5526,-0.0137 0.851,-0.0213 0.851,-0.0213 0,0 2,0.125 2.3125,-1.1875 0.0414,-0.1738 0.2878,-13.7904 -1.529,-17.571 -0.148,-0.3081 -0.4411,-0.5118 -0.7806,-0.552 -3.0415,-0.3603 -19.4332,-1.1578 -32.2529,0.3105 0,0 -4.6406,1.2031 -12.75,6.875 0,0 -5.5,2.25 -7.875,3.875 -2.375,1.625 -2.3125,4.75 -2.3125,4.75 0,0 0.25,3 0.75,3.9375 0.0763,0.1431 0.3975,0.2323 2.5817,0.2808"
       id="path8" />
  </g>
</svg>
