<svg xmlns="http://www.w3.org/2000/svg" xmlns:svg="http://www.w3.org/2000/svg" id="emoji" width="66" height="52.111" version="1.1" viewBox="0 0 66 52.111"><g id="color" transform="translate(-3,-16.888875)"><path id="path1" fill="#3f3f3f" d="m 68,45 v 3.8 H 4 V 42 h 22.5 l 1.2,2.5 c 0.2,0.3 0.5,0.5 0.9,0.5 z"/><rect id="rect1" width="4" height="19.2" x="14" y="48.8" fill="#3f3f3f"/><rect id="rect2" width="4" height="19.2" x="54" y="48.8" fill="#3f3f3f"/><path id="path2" fill="#d0cfce" d="M 68,41 H 26 l 0.5,1 c 0,0 -1,-0.2 -2.4,-0.5 -0.1,0 -0.2,0 -0.3,-0.1 -1.1,-0.3 -2.5,-0.6 -4,-1.1 C 19.5,40.2 19.3,40.1 19,40 18.8,39.9 18.7,39.9 18.5,39.8 18.1,39.7 17.7,39.5 17.3,39.3 H 17.2 C 16.8,39.2 16.5,39 16.1,38.9 15.7,38.7 15.3,38.6 14.9,38.4 14.7,38.3 14.5,38.2 14.3,38.2 14.2,38.2 14.2,38.1 14.1,38.1 13.5,37.8 13,37.6 12.6,37.3 11.9,36.8 11.4,36.4 11.2,36 c -0.3,-0.7 -0.4,-1.3 -0.3,-1.8 0,-0.1 0,-0.2 0,-0.3 0,-0.1 0.1,-0.2 0.1,-0.3 0,-0.1 0.1,-0.2 0.1,-0.3 0,-0.1 0.1,-0.2 0.1,-0.3 0,-0.1 0.1,-0.2 0.2,-0.3 0.1,-0.1 0.1,-0.2 0.2,-0.2 l 0.1,-0.1 v 0 C 13.2,29.8 19.3,24 26,21 35,17 68,18 68,18 Z"/><path id="path3" fill="#d0cfce" d="m 11,36 c 0,0 -0.8,-0.8 -0.2,-2.5 -0.2,0.7 -0.3,1.6 0.2,2.5 z"/><path id="path4" fill="#d0cfce" d="m 10.9,33.3 c 0,0.1 -0.1,0.2 -0.1,0.3 0,-0.1 0,-0.2 0.1,-0.3 z"/><path id="path5" fill="#d0cfce" d="m 18.4,39.9 c -0.5,-0.2 -0.9,-0.3 -1.4,-0.5 0.5,0.1 0.9,0.3 1.4,0.5 z"/><path id="path6" fill="#d0cfce" d="m 17,39.4 c -0.3,-0.1 -0.7,-0.2 -1,-0.4 -5,-2 -5,-3 -5,-3 0.5,1 3.2,2.3 6,3.4 z"/><path id="path7" fill="#61b2e4" d="m 11,33 c 0.2,-0.4 0.4,-0.6 0.4,-0.6 -0.2,0.2 -0.3,0.4 -0.4,0.6 z"/><path id="path8" fill="#61b2e4" d="m 23.8,41.4 c -1,-0.2 -2.4,-0.6 -4,-1.1 1.5,0.5 2.9,0.8 4,1.1 z"/><path id="path9" fill="#92d3f5" d="M 68,40.2 V 45 H 28.6 c -0.4,0 -0.7,-0.3 -0.9,-0.7 l -1.2,-3 -0.5,-1.1 z"/><path id="path10" fill="#3f3f3f" d="m 59,30 -21.9,0.1 v -7 c 0,-0.5 0.4,-1 0.9,-1 7,-0.5 14.6,-0.6 21,0 z"/><polyline id="polyline10" fill="#d0cfce" points="34 23 34 30 19 30"/><path id="path11" fill="#3f3f3f" d="m 33.9,23.1 v -1 c 0,0 -3.9,0.9 -6.9,1.9 0,0 -6.9,2.8 -8.9,5.8 h 1.3 L 19,30 h 15 v -7 z"/><polyline id="polyline11" fill="#3f3f3f" points="59 23 59 30 38 30"/></g><g id="line" transform="translate(-3,-16.888875)"><path id="path12" fill="none" stroke="#000" stroke-linecap="round" stroke-linejoin="round" stroke-miterlimit="10" stroke-width="2" d="m 68,45 v 3.8 H 4 V 42 h 22.5 l 1.2,2.5 c 0.2,0.3 0.5,0.5 0.9,0.5 z"/><rect id="rect12" width="4" height="19.2" x="14" y="48.8" fill="none" stroke="#000" stroke-linecap="round" stroke-linejoin="round" stroke-miterlimit="10" stroke-width="2"/><rect id="rect13" width="4" height="19.2" x="54" y="48.8" fill="none" stroke="#000" stroke-linecap="round" stroke-linejoin="round" stroke-miterlimit="10" stroke-width="2"/><path id="path13" fill="none" stroke="#000" stroke-linecap="round" stroke-linejoin="round" stroke-miterlimit="10" stroke-width="2" d="M 68,41 H 26 l 0.5,1 c 0,0 -1,-0.2 -2.4,-0.5 -0.1,0 -0.2,0 -0.3,-0.1 -1.1,-0.3 -2.5,-0.6 -4,-1.1 C 19.5,40.2 19.3,40.1 19,40 18.8,39.9 18.7,39.9 18.5,39.8 18.1,39.7 17.7,39.5 17.3,39.3 H 17.2 C 16.8,39.2 16.5,39 16.1,38.9 15.7,38.7 15.3,38.6 14.9,38.4 14.7,38.3 14.5,38.2 14.3,38.2 14.2,38.2 14.2,38.1 14.1,38.1 13.5,37.8 13,37.6 12.6,37.3 11.9,36.8 11.4,36.4 11.2,36 c -0.3,-0.7 -0.4,-1.3 -0.3,-1.8 0,-0.1 0,-0.2 0,-0.3 0,-0.1 0.1,-0.2 0.1,-0.3 0,-0.1 0.1,-0.2 0.1,-0.3 0,-0.1 0.1,-0.2 0.1,-0.3 0,-0.1 0.1,-0.2 0.2,-0.3 0.1,-0.1 0.1,-0.2 0.2,-0.2 l 0.1,-0.1 v 0 C 13.2,29.8 19.3,24 26,21 35,17 68,18 68,18 Z"/><path id="path14" fill="none" stroke="#000" stroke-linecap="round" stroke-linejoin="round" stroke-miterlimit="10" stroke-width="2" d="m 11,36 c 0,0 -0.8,-0.8 -0.2,-2.5 -0.2,0.7 -0.3,1.6 0.2,2.5 z"/><path id="path15" fill="none" stroke="#000" stroke-linecap="round" stroke-linejoin="round" stroke-miterlimit="10" stroke-width="2" d="m 10.9,33.3 c 0,0.1 -0.1,0.2 -0.1,0.3 0,-0.1 0,-0.2 0.1,-0.3 z"/><path id="path16" fill="none" stroke="#000" stroke-linecap="round" stroke-linejoin="round" stroke-miterlimit="10" stroke-width="2" d="m 18.4,39.9 c -0.5,-0.2 -0.9,-0.3 -1.4,-0.5 0.5,0.1 0.9,0.3 1.4,0.5 z"/><path id="path17" fill="none" stroke="#000" stroke-linecap="round" stroke-linejoin="round" stroke-miterlimit="10" stroke-width="2" d="m 17,39.4 c -0.3,-0.1 -0.7,-0.2 -1,-0.4 -5,-2 -5,-3 -5,-3 0.5,1 3.2,2.3 6,3.4 z"/><path id="path18" fill="none" stroke="#000" stroke-linecap="round" stroke-linejoin="round" stroke-miterlimit="10" stroke-width="2" d="m 11,33 c 0.2,-0.4 0.4,-0.6 0.4,-0.6 -0.2,0.2 -0.3,0.4 -0.4,0.6 z"/><path id="path19" fill="none" stroke="#000" stroke-linecap="round" stroke-linejoin="round" stroke-miterlimit="10" stroke-width="2" d="m 23.8,41.4 c -1,-0.2 -2.4,-0.6 -4,-1.1 1.5,0.5 2.9,0.8 4,1.1 z"/><path id="path20" fill="none" stroke="#000" stroke-linecap="round" stroke-linejoin="round" stroke-miterlimit="10" stroke-width="2" d="M 68,40.2 V 45 H 28.6 c -0.4,0 -0.7,-0.3 -0.9,-0.7 l -1.2,-3 -0.5,-1.1 z"/><polyline id="polyline20" fill="none" stroke="#000" stroke-linecap="round" stroke-linejoin="round" stroke-miterlimit="10" stroke-width="2" points="34 23 34 30 19 30"/><polyline id="polyline21" fill="none" stroke="#000" stroke-linecap="round" stroke-linejoin="round" stroke-miterlimit="10" stroke-width="2" points="34 23 34 30 19 30"/><polyline id="polyline22" fill="none" stroke="#000" stroke-linecap="round" stroke-linejoin="round" stroke-miterlimit="10" stroke-width="2" points="59 23 59 30 38 30"/></g></svg>