<svg xmlns="http://www.w3.org/2000/svg" xmlns:svg="http://www.w3.org/2000/svg" id="emoji" width="59.7" height="30.792" version="1.1" viewBox="0 0 59.7 30.792"><g id="color" transform="translate(-5.7998209,-26.5417)"><path id="path1" fill="#ea5a47" stroke="none" d="m 54.4688,53.625 4.2812,-0.9167 5.9167,-2.625 V 35 L 62.2083,32.5417 H 20.5 c 0,0 -7.9167,0 -9.75,0.5 -1.8333,0.5 -4.5417,7.9166 -3.5833,17.5833 l 5.9036,2 h 11.888 v 0.0833 l 17.073,0.9167"/><path id="path2" fill="#3f3f3f" stroke="none" d="m 23.0625,36.625 v 4.3591 c 0,0.5523 0.395,1 0.8822,1 l 7.4991,-0.6091 c 0.4873,0 0.8823,-0.4477 0.8823,-1 l 0.5697,-3.79 c 0,-0.5523 -0.395,-1 -0.8822,-1 l -8.0689,0.04 c -0.4872,0 -0.8822,0.4477 -0.8822,1 z"/><path id="path3" fill="#92d3f5" stroke="none" stroke-linecap="round" stroke-linejoin="round" stroke-miterlimit="10" stroke-width="2" d="m 12.9052,32.0047 c 0,0 -0.1443,-2.0991 2.375,-2.1875 2.375,-0.0833 2.375,2.1875 2.375,2.1875"/><circle id="circle3" cx="19" cy="53.333" r="3" fill="#9b9b9a" stroke="none" stroke-miterlimit="10" stroke-width="2"/><path id="path4" fill="#3f3f3f" stroke="none" d="m 16.7577,35.0777 h -3.1014 c -1.6569,0 -3,1.3432 -3,3 l -0.3674,2.995 5.8357,-1.12 z"/><circle id="circle4" cx="48.208" cy="53.333" r="3" fill="#9b9b9a" stroke="none" stroke-miterlimit="10" stroke-width="2"/><path id="path5" fill="#3f3f3f" stroke="none" stroke-linecap="round" stroke-linejoin="round" stroke-miterlimit="10" stroke-width="2" d="M 24.0208,41.375 H 31.25 c 0.5523,0 1,-0.4477 1,-1 v -3.75"/><path id="path6" fill="#d0cfce" stroke="none" stroke-linecap="round" stroke-linejoin="round" stroke-miterlimit="10" stroke-width="1.916" d="m 60.71,36.55 v 11.84 c 0,0.31 -0.26,0.57 -0.57,0.57 H 53.8201 C 53.51,48.96 53.25,48.7 53.25,48.39 v -1.22 h -9.46 v 1.22 c 0,0.31 -0.26,0.57 -0.57,0.57 h -6.3101 c -0.3198,0 -0.5798,-0.26 -0.5798,-0.57 V 36.55 c 0,-0.51 0.4199,-0.92 0.9299,-0.92 h 22.52 c 0.51,0 0.93,0.41 0.93,0.92 z"/><path id="path7" fill="#d0cfce" stroke="none" d="m 9.9241,45.4881 h 1.9542 c 0.2667,0.2828 -0.5473,0.5778 -0.5473,1.2905 v 1.4115 c 0,0.7128 -0.5726,1.2906 -1.2788,1.2906 h -10e-4 c -0.6614,0 -1.2136,-0.509 -1.2735,-1.1737 L 8.6505,46.8954 C 8.5824,46.1397 9.1721,45.4881 9.9241,45.4881 Z"/></g><g id="line" transform="translate(-5.7998209,-26.5417)"><polyline id="polyline7" fill="none" stroke="#000" stroke-linecap="round" stroke-linejoin="round" stroke-miterlimit="10" stroke-width="2" points="24.792 51.625 24.792 52.708 41.792 52.708"/><path id="path8" fill="none" stroke="#000" stroke-linecap="round" stroke-linejoin="round" stroke-miterlimit="10" stroke-width="2" d="m 54.5833,52.7083 h 4 L 64.5,50.0833 V 35 L 62.0417,32.5417 H 20.3333 c 0,0 -7.9166,0 -9.75,0.5 C 8.75,33.5417 6.0417,41.9583 7,51.625 h 5.9037"/><path id="path9" fill="none" stroke="#000" stroke-linecap="round" stroke-linejoin="round" stroke-miterlimit="10" stroke-width="2" d="m 12.9052,32.0047 c 0,0 -0.1443,-2.0991 2.375,-2.1875 2.375,-0.0833 2.375,2.1875 2.375,2.1875"/><circle id="circle9" cx="19" cy="53.333" r="3" fill="none" stroke="#000" stroke-miterlimit="10" stroke-width="2"/><circle id="circle10" cx="48.208" cy="53.333" r="3" fill="none" stroke="#000" stroke-miterlimit="10" stroke-width="2"/><path id="path10" fill="none" stroke="#000" stroke-linecap="round" stroke-linejoin="round" stroke-miterlimit="10" stroke-width="2" d="m 11.2825,40.8835 4.3681,-0.6897 c 0.4706,-0.0743 0.8235,-0.4704 0.8431,-0.9465 l 0.1315,-3.1817"/><path id="path11" fill="none" stroke="#000" stroke-linecap="round" stroke-linejoin="round" stroke-miterlimit="10" stroke-width="2" d="M 24.0208,41.375 H 31.25 c 0.5523,0 1,-0.4477 1,-1 v -3.75"/><path id="path12" fill="none" stroke="#000" stroke-linecap="round" stroke-linejoin="round" stroke-miterlimit="10" stroke-width="1.916" d="m 60.71,36.55 v 11.84 c 0,0.31 -0.26,0.57 -0.57,0.57 H 53.8201 C 53.51,48.96 53.25,48.7 53.25,48.39 v -1.22 h -9.46 v 1.22 c 0,0.31 -0.26,0.57 -0.57,0.57 h -6.3101 c -0.3198,0 -0.5798,-0.26 -0.5798,-0.57 V 36.55 c 0,-0.51 0.4199,-0.92 0.9299,-0.92 h 22.52 c 0.51,0 0.93,0.41 0.93,0.92 z"/><line id="line12" x1="61.25" x2="21.25" y1="32.542" y2="32.542" fill="none" stroke="#000" stroke-linecap="round" stroke-linejoin="round" stroke-miterlimit="10" stroke-width="2"/><line id="line13" x1="61.25" x2="21.25" y1="27.542" y2="27.542" fill="none" stroke="#000" stroke-linecap="round" stroke-linejoin="round" stroke-miterlimit="10" stroke-width="2"/><line id="line14" x1="26.25" x2="26.25" y1="32.542" y2="27.542" fill="none" stroke="#000" stroke-linecap="round" stroke-linejoin="round" stroke-miterlimit="10" stroke-width="2"/><line id="line15" x1="32.25" x2="32.25" y1="32.542" y2="27.542" fill="none" stroke="#000" stroke-linecap="round" stroke-linejoin="round" stroke-miterlimit="10" stroke-width="2"/><line id="line16" x1="38.25" x2="38.25" y1="32.542" y2="27.542" fill="none" stroke="#000" stroke-linecap="round" stroke-linejoin="round" stroke-miterlimit="10" stroke-width="2"/><line id="line17" x1="56.25" x2="56.25" y1="32.542" y2="27.542" fill="none" stroke="#000" stroke-linecap="round" stroke-linejoin="round" stroke-miterlimit="10" stroke-width="2"/><line id="line18" x1="50.25" x2="50.25" y1="32.542" y2="27.542" fill="none" stroke="#000" stroke-linecap="round" stroke-linejoin="round" stroke-miterlimit="10" stroke-width="2"/><line id="line19" x1="44.25" x2="44.25" y1="32.542" y2="27.542" fill="none" stroke="#000" stroke-linecap="round" stroke-linejoin="round" stroke-miterlimit="10" stroke-width="2"/><path id="path19" fill="none" stroke="#000" stroke-linecap="round" stroke-linejoin="round" stroke-miterlimit="10" stroke-width="2" d="m 11.7454,46.4375 v 1.0938 c 0,0.5522 -1.4477,1 -2,1 h -7e-4"/></g></svg>