<?xml version="1.0" encoding="UTF-8" standalone="no"?>
<svg
   id="emoji"
   viewBox="0 0 60 29.0833"
   version="1.1"
   sodipodi:docname="1f691.svg"
   width="60"
   height="29.0833"
   xmlns:inkscape="http://www.inkscape.org/namespaces/inkscape"
   xmlns:sodipodi="http://sodipodi.sourceforge.net/DTD/sodipodi-0.dtd"
   xmlns="http://www.w3.org/2000/svg"
   xmlns:svg="http://www.w3.org/2000/svg">
  <defs
     id="defs11" />
  <sodipodi:namedview
     id="namedview11"
     pagecolor="#ffffff"
     bordercolor="#000000"
     borderopacity="0.25"
     inkscape:showpageshadow="2"
     inkscape:pageopacity="0.0"
     inkscape:pagecheckerboard="0"
     inkscape:deskcolor="#d1d1d1" />
  <g
     id="line-supplement"
     transform="translate(-6,-26.6667)">
    <line
       x1="57"
       x2="57"
       y1="32"
       y2="38"
       fill="none"
       stroke="#000000"
       stroke-linecap="round"
       stroke-linejoin="round"
       stroke-miterlimit="10"
       stroke-width="2"
       id="line1" />
    <line
       x1="54.400002"
       x2="59.599998"
       y1="33.5"
       y2="36.5"
       fill="none"
       stroke="#000000"
       stroke-linecap="round"
       stroke-linejoin="round"
       stroke-miterlimit="10"
       stroke-width="2"
       id="line2" />
    <line
       x1="54.400002"
       x2="59.599998"
       y1="36.5"
       y2="33.5"
       fill="none"
       stroke="#000000"
       stroke-linecap="round"
       stroke-linejoin="round"
       stroke-miterlimit="10"
       stroke-width="2"
       id="line3" />
    <rect
       x="32"
       y="40"
       width="33"
       height="4"
       fill="#000000"
       id="rect3" />
  </g>
  <g
     id="color"
     transform="translate(-6,-26.6667)">
    <path
       fill="#ffffff"
       stroke="none"
       d="m 65,28.67 v 21.08 c 0,0.55 -0.45,1.9583 -1,1.9583 h -6.67 c 0,-2.76 -1.24,-5.9583 -4,-5.9583 -2.76,0 -4,3.1983 -4,5.9583 H 32.17 V 27.67 H 64 c 0.55,0 1,0.44 1,1 z"
       id="path3" />
    <path
       fill="#ffffff"
       stroke="none"
       d="M 32.17,27.67 V 51.75 L 20.2382,51.7324 C 20.1182,49.0824 18.08,45.75 15.4,45.75 c -2.61,0 -4.76,3.01 -4.97,5.57 L 7,51.25 c 0,0 0,-2.75 0,-5.67 0,-0.12 0,-0.23 0.01,-0.34 0,-0.11 0.01,-0.21 0.02,-0.31 0.05,-0.62 0.18,-1.11 0.34,-1.48 0.1,-0.25 0.21,-0.44 0.32,-0.6 0,-0.01 0,-0.01 0,-0.01 C 7.75,42.77 7.8,42.7 7.85,42.64 7.89,42.58 7.94,42.53 7.99,42.49 8.02,42.47 8.04,42.44 8.06,42.42 8.08,42.4 8.1,42.39 8.12,42.37 8.15,42.34 8.17,42.34 8.17,42.34 l 4.5,-3.13 c 0.94,-1.04 1.84,-1.99 2.72,-2.85 0.28,-0.29 0.57,-0.57 0.85,-0.84 0.55,-0.54 1.1,-1.04 1.62,-1.51 0.52,-0.47 1.02,-0.9 1.51,-1.3 1.45,-1.2 2.74,-2.12 3.85,-2.81 0.38,-0.24 0.73,-0.44 1.06,-0.63 0.33,-0.19 0.65,-0.35 0.94,-0.5 0.29,-0.15 0.56,-0.27 0.82,-0.38 0.18,-0.08 0.36,-0.15 0.53,-0.22 0.08,-0.03 0.16,-0.06 0.24,-0.09 1,-0.37 1.52,-0.41 1.52,-0.41 z"
       id="path4" />
    <circle
       cx="53.330002"
       cy="50.75"
       r="3"
       fill="#d0cfce"
       stroke="none"
       id="circle4" />
    <path
       fill="#d0cfce"
       stroke="none"
       d="m 18.4,50.75 c 0,1.66 -1.34,3 -3,3 -1.66,0 -3,-1.34 -3,-3 0,-0.13 0.01,-0.26 0.03,-0.39 0.18,-1.47 1.44,-2.61 2.97,-2.61 1.57,0 2.85,1.2 2.98,2.73 0.02,0.09 0.02,0.18 0.02,0.27 z"
       id="path5" />
    <line
       x1="57"
       x2="57"
       y1="32"
       y2="38"
       fill="none"
       stroke="#92d3f5"
       stroke-linecap="round"
       stroke-linejoin="round"
       stroke-miterlimit="10"
       stroke-width="2"
       id="line5" />
    <line
       x1="54.400002"
       x2="59.599998"
       y1="33.5"
       y2="36.5"
       fill="none"
       stroke="#92d3f5"
       stroke-linecap="round"
       stroke-linejoin="round"
       stroke-miterlimit="10"
       stroke-width="2"
       id="line6" />
    <line
       x1="54.400002"
       x2="59.599998"
       y1="36.5"
       y2="33.5"
       fill="none"
       stroke="#92d3f5"
       stroke-linecap="round"
       stroke-linejoin="round"
       stroke-miterlimit="10"
       stroke-width="2"
       id="line7" />
    <path
       fill="#92d3f5"
       stroke="none"
       d="m 26.9434,33.1235 -0.1517,5.3559 c 0,0.1598 -2.101,1.3501 -2.2604,1.3607 l -6.3812,-0.0017 c -0.9195,0.0608 -1.4213,-1.0409 -0.7717,-1.6946 l 4.7033,-5.0286 C 22.2694,32.9263 22.5248,32.82 22.7911,32.82 h 3.8488 c 0.1676,0 0.3035,0.1359 0.3035,0.3035 z"
       id="path7" />
    <rect
       x="32"
       y="40"
       width="33"
       height="4"
       fill="#ea5a47"
       id="rect7" />
  </g>
  <g
     id="hair"
     transform="translate(-6,-26.6667)" />
  <g
     id="skin"
     transform="translate(-6,-26.6667)" />
  <g
     id="skin-shadow"
     transform="translate(-6,-26.6667)" />
  <g
     id="line"
     transform="translate(-6,-26.6667)">
    <path
       fill="none"
       stroke="#000000"
       stroke-linecap="round"
       stroke-linejoin="round"
       stroke-miterlimit="10"
       stroke-width="2"
       d="M 61.5,50.75 H 64 c 0.5523,0 1,-0.4477 1,-1 V 28.6667 c 0,-0.5523 -0.4477,-1 -1,-1 H 28.3333 c 0,0 -5.5833,0.4166 -15.6666,11.5416 l -4.5,3.125 c 0,0 -1.1667,0.7292 -1.1667,3.25 C 7,48.5 7,50.25 7,50.25 h 0.9167"
       id="path8" />
    <line
       x1="22.75"
       x2="45.583302"
       y1="50.75"
       y2="50.75"
       fill="none"
       stroke="#000000"
       stroke-linecap="round"
       stroke-linejoin="round"
       stroke-miterlimit="10"
       stroke-width="2"
       id="line8" />
    <path
       fill="#000000"
       stroke="none"
       d="m 53.33,45.75 c -2.76,0 -5,2.24 -5,5 0,2.76 2.24,5 5,5 2.76,0 5,-2.24 5,-5 0,-2.76 -2.24,-5 -5,-5 z m 0,8 c -1.66,0 -3,-1.34 -3,-3 0,-1.66 1.34,-3 3,-3 1.66,0 3,1.34 3,3 0,1.66 -1.34,3 -3,3 z"
       id="path9" />
    <path
       fill="#000000"
       stroke="none"
       d="m 20.39,50.52 c -0.12,-2.65 -2.31,-4.77 -4.99,-4.77 -2.61,0 -4.76,2.01 -4.97,4.57 -0.02,0.14 -0.03,0.28 -0.03,0.43 0,2.76 2.24,5 5,5 2.76,0 5,-2.24 5,-5 0,-0.08 0,-0.16 -0.01,-0.23 z m -4.99,3.23 c -1.66,0 -3,-1.34 -3,-3 0,-0.13 0.01,-0.26 0.03,-0.39 0.18,-1.47 1.44,-2.61 2.97,-2.61 1.57,0 2.85,1.2 2.98,2.73 0.02,0.09 0.02,0.18 0.02,0.27 0,1.66 -1.34,3 -3,3 z"
       id="path10" />
    <path
       fill="none"
       stroke="#000000"
       stroke-linecap="round"
       stroke-linejoin="round"
       stroke-miterlimit="10"
       stroke-width="2"
       d="m 26.75,33.8333 v 2.1459 c 0,1.6569 -1.3431,3 -3,3 H 18"
       id="path11" />
    <line
       x1="32.166698"
       x2="32.166698"
       y1="27.6667"
       y2="50.75"
       fill="none"
       stroke="#000000"
       stroke-linecap="round"
       stroke-linejoin="round"
       stroke-miterlimit="10"
       stroke-width="2"
       id="line11" />
  </g>
</svg>
