<?xml version="1.0" encoding="UTF-8" standalone="no"?>
<svg
   id="emoji"
   viewBox="0 0 62.446896 27.500195"
   version="1.1"
   sodipodi:docname="1f697.svg"
   width="62.446896"
   height="27.500195"
   xmlns:inkscape="http://www.inkscape.org/namespaces/inkscape"
   xmlns:sodipodi="http://sodipodi.sourceforge.net/DTD/sodipodi-0.dtd"
   xmlns="http://www.w3.org/2000/svg"
   xmlns:svg="http://www.w3.org/2000/svg">
  <defs
     id="defs6" />
  <sodipodi:namedview
     id="namedview6"
     pagecolor="#ffffff"
     bordercolor="#000000"
     borderopacity="0.25"
     inkscape:showpageshadow="2"
     inkscape:pageopacity="0.0"
     inkscape:pagecheckerboard="0"
     inkscape:deskcolor="#d1d1d1" />
  <g
     id="color"
     transform="translate(-5,-28.899806)">
    <path
       fill="#ea5a47"
       stroke="none"
       d="m 64.8,44 -1.1,-0.6 c -0.4,-0.2 -0.6,-0.6 -0.5,-1 0.3,-1.9 0.5,-8.5 -9.7,-11.5 -0.2,-0.1 -0.4,-0.1 -0.6,-0.1 l -19.6,0.1 c -0.4,0 -0.8,0.1 -1.1,0.3 l -10.3,6.9 c -0.2,0.1 -0.4,0.2 -0.6,0.2 -1.9,-0.1 -3.7,0.1 -5.6,0.4 -5.4,1.1 -7.6,4 -8.4,5.5 -0.2,0.3 -0.2,0.7 -0.2,1 0.1,2.4 -1.5,5.1 0.9,7.3 l 19.4,-0.1 20.4,-0.5 16.1,-0.2 c 0.9,-0.1001 2.4,-1.4 2.8,-2.2001 C 68.4,46.8 65,44.1 64.8,44 Z"
       id="path1" />
    <path
       fill="#9b9b9a"
       stroke="none"
       d="m 17.3,46.4 c -2.2,0 -4,1.8 -4,4 0,2.2 1.8,4 4,4 2.2,0 4,-1.8 4,-4 0,-2.2 -1.8,-4 -4,-4 z"
       id="path2" />
    <path
       fill="#9b9b9a"
       stroke="none"
       d="m 57.1,46.4 c -2.2,0 -4,1.8 -4,4 0,2.2 1.8,4 4,4 2.2,0 4,-1.8 4,-4 0,-2.2 -1.8,-4 -4,-4 z"
       id="path3" />
    <path
       fill="#92d3f5"
       stroke="none"
       d="M 56.1,39.3 V 35 c 0,-0.9 -0.8,-1.7 -1.7,-1.7 v 0 H 33.2 c -0.1,0 -0.2,0 -0.2,0.1 l -8,5.7 c -0.2,0.1 -0.2,0.4 -0.1,0.6 0.1,0.1 0.2,0.2 0.3,0.2 5.6,0 27.2,-0.2 30.4,-0.1 0.3,0 0.5,-0.2 0.5,-0.5 0,0.1 0,0.1 0,0 z"
       id="path4" />
    <polygon
       fill="#fcea2b"
       stroke="none"
       points="10.8,45 5.8,45.1 8.9,40.5 12.9,42.1 "
       id="polygon4" />
  </g>
  <g
     id="hair"
     transform="translate(-5,-28.899806)" />
  <g
     id="skin"
     transform="translate(-5,-28.899806)" />
  <g
     id="skin-shadow"
     transform="translate(-5,-28.899806)" />
  <g
     id="line"
     transform="translate(-5,-28.899806)">
    <line
       x1="47.599998"
       x2="27"
       y1="51"
       y2="51.400002"
       fill="none"
       stroke="#000000"
       stroke-linecap="round"
       stroke-linejoin="round"
       stroke-width="2"
       id="line4" />
    <path
       fill="none"
       stroke="#000000"
       stroke-linecap="round"
       stroke-linejoin="round"
       stroke-width="2"
       d="M 8.1,51.4 C 7.2,51.2 6.4,50.9 6.3,50.4 6.2,49.4 6,46.6 6,45.3 6,44.8 6.1,44.2 6.4,43.8 7.5,41.8 11.2,37 21.3,37.4 L 31.6,30.5 C 32.1,30.2 32.7,30 33.2,30 l 19.6,-0.1 c 0.3,0 0.6,0 0.9,0.1 2.2,0.6 11.7,4 10.4,12.6 l 1.1,0.6 c 0.5,0.2 0.9,0.7 1,1.2 0.4,1.4 0.3,2.9 -0.2,4.3"
       id="path5" />
    <polyline
       fill="none"
       stroke="#000000"
       stroke-linecap="round"
       stroke-linejoin="round"
       stroke-width="2"
       points="24.9,39.9 55.1,39.7 55.1,35.2"
       id="polyline5" />
    <circle
       cx="17.299999"
       cy="50.400002"
       r="5"
       fill="none"
       stroke="#000000"
       stroke-linecap="round"
       stroke-linejoin="round"
       stroke-width="2"
       id="circle5" />
    <circle
       cx="57.099998"
       cy="50.400002"
       r="5"
       fill="none"
       stroke="#000000"
       stroke-linecap="round"
       stroke-linejoin="round"
       stroke-width="2"
       id="circle6" />
    <polyline
       fill="none"
       stroke="#000000"
       stroke-linecap="round"
       stroke-linejoin="round"
       stroke-width="2"
       points="12.3,42.9 10.5,45.1 6.8,45"
       id="polyline6" />
  </g>
</svg>
