<svg xmlns="http://www.w3.org/2000/svg" xmlns:svg="http://www.w3.org/2000/svg" id="emoji" width="63.323" height="28.837" version="1.1" viewBox="0 0 63.323 28.837"><g id="color" transform="translate(-4.6773831,-27.454697)"><path id="path1" fill="#d0cfce" stroke="none" d="m 61.0833,53.0625 3.4792,-1 H 67 L 66.875,47.5 h -0.6875 c 0,0 0.625,-17.625 -1.75,-18.5 C 62.0625,28.125 36.75,28.4375 33.625,29 30.5,29.5625 27,28.625 15.75,39.9375 L 8,42.48 c 0,0 -1.5,0.8325 -1.5625,5.2075 0,0 -0.875,0.25 -0.75,1.5 0.1164,1.1644 -0.2544,4.2792 4.9688,4.5313"/><circle id="circle1" cx="16.48" cy="52.292" r="3" fill="#d0cfce" stroke="none" stroke-linecap="round" stroke-linejoin="round" stroke-miterlimit="10" stroke-width="2"/><circle id="circle2" cx="55" cy="52.292" r="3" fill="#d0cfce" stroke="none" stroke-linecap="round" stroke-linejoin="round" stroke-miterlimit="10" stroke-width="2"/><path id="path2" fill="#fcea2b" stroke="none" d="m 14.2402,44.5641 c 0,0 0.0855,-1.0781 -1.2895,-1.2031 -1.375,-0.125 -3.898,1.2031 -4.0386,1.5625 -0.1406,0.3593 -0.3489,1.4328 0.2813,1.625 0.6301,0.1921 5.0468,-1.9844 5.0468,-1.9844 z"/><path id="path3" fill="#3f3f3f" stroke="none" d="m 18.9688,41.625 c 0.375,0.02 10.2187,-0.25 10.8437,-1.75 0.625,-1.5 0.625,-7.4375 0.625,-7.4375 0,0 -5.2365,1.799 -7.4062,3.9688 -4,4 -4.0625,5.2187 -4.0625,5.2187 z"/><path id="path4" fill="#3f3f3f" stroke="none" d="m 34.0625,32.9375 v 7.5566 c 0,0.5523 0.4477,1 1,1 l 21.7707,-0.8402 c 0.2292,0 0.4515,-0.0788 0.6296,-0.2231 l 2.1667,-1.7556 C 59.8639,38.4853 60,38.1998 60,37.8982 l 0.7059,-4.9607 c 0,-0.5523 -0.4477,-1 -1,-1 H 35.0625 c -0.5523,0 -1,0.4477 -1,1 z"/><path id="path5" fill="#ea5a47" stroke="none" d="M 64.0923,48.0003 H 61.6577 V 41.865 h 1.437 c 0.5509,0 0.9976,0.4466 0.9976,0.9976 z"/></g><g id="line" transform="translate(-4.6773831,-27.454697)"><path id="path6" fill="none" stroke="#000" stroke-linecap="round" stroke-linejoin="round" stroke-miterlimit="10" stroke-width="2" d="m 61,52.1363 3.5625,-0.0738 H 67 L 66.875,47.5 h -0.6875 c 0,0 0.625,-17.625 -1.75,-18.5 C 62.0625,28.125 36.75,28.4375 33.625,29 30.5,29.5625 27,28.625 15.75,39.9375 L 8,42.48 c 0,0 -1.5,0.8325 -1.5625,5.2075 0,0 -0.875,0.25 -0.75,1.5 0.1164,1.1644 -0.4721,3.4134 4.7511,3.6655"/><line id="line6" x1="23.063" x2="48.438" y1="52.75" y2="52.307" fill="none" stroke="#000" stroke-linecap="round" stroke-linejoin="round" stroke-miterlimit="10" stroke-width="2"/><circle id="circle6" cx="16.48" cy="52.292" r="3" fill="none" stroke="#000" stroke-linecap="round" stroke-linejoin="round" stroke-miterlimit="10" stroke-width="2"/><circle id="circle7" cx="55" cy="52.292" r="3" fill="none" stroke="#000" stroke-linecap="round" stroke-linejoin="round" stroke-miterlimit="10" stroke-width="2"/><path id="path7" fill="none" stroke="#000" stroke-linecap="round" stroke-linejoin="round" stroke-miterlimit="10" stroke-width="2" d="m 13.2904,44.4762 c 0,0 -1.9647,1.6588 -3.5765,1.9176"/><path id="path8" fill="none" stroke="#000" stroke-linecap="round" stroke-linejoin="round" stroke-miterlimit="10" stroke-width="2" d="m 19.875,41.48 c 0.375,0.02 9.3125,-0.105 9.9375,-1.605 0.625,-1.5 0.625,-6.5 0.625,-6.5"/><path id="path9" fill="none" stroke="#000" stroke-linecap="round" stroke-linejoin="round" stroke-miterlimit="10" stroke-width="2" d="m 35.0625,40.6539 h 21.7707 c 0.2292,0 0.4515,-0.0788 0.6296,-0.2231 l 2.1667,-1.7556 C 59.8639,38.4853 60,38.1998 60,37.8982 v -4.9607"/><polyline id="polyline9" fill="none" stroke="#000" stroke-linecap="round" stroke-linejoin="round" stroke-miterlimit="10" stroke-width="2" points="61.658 42.849 61.658 47.599 63.116 48.048"/></g></svg>