<?xml version="1.0" encoding="UTF-8" standalone="no"?>
<svg
   id="emoji"
   viewBox="0 0 66.297844 49.200478"
   version="1.1"
   sodipodi:docname="1f69e.svg"
   width="66.297844"
   height="49.200478"
   xmlns:inkscape="http://www.inkscape.org/namespaces/inkscape"
   xmlns:sodipodi="http://sodipodi.sourceforge.net/DTD/sodipodi-0.dtd"
   xmlns="http://www.w3.org/2000/svg"
   xmlns:svg="http://www.w3.org/2000/svg">
  <defs
     id="defs12" />
  <sodipodi:namedview
     id="namedview12"
     pagecolor="#ffffff"
     bordercolor="#000000"
     borderopacity="0.25"
     inkscape:showpageshadow="2"
     inkscape:pageopacity="0.0"
     inkscape:pagecheckerboard="0"
     inkscape:deskcolor="#d1d1d1" />
  <g
     id="color"
     transform="translate(-3,-8.0000231)">
    <polygon
       fill="#ffffff"
       points="67.7106,54.9661 68.0175,23.0543 49.9137,10.3203 29.0483,24.9721 20.9936,17.6079 4.1698,33.447 3.9638,54.8894 "
       id="polygon1" />
    <rect
       x="22.0868"
       y="36.099098"
       width="45.277802"
       height="12.0246"
       fill="#b1cc33"
       id="rect1" />
    <rect
       x="34.918499"
       y="32.770199"
       rx="1.0578001"
       ry="1.0578001"
       width="6.3407998"
       height="10.6464"
       fill="#92d3f5"
       id="rect2" />
    <rect
       x="21.962799"
       y="32.770199"
       rx="1.0578001"
       ry="1.0578001"
       width="6.3407998"
       height="10.6464"
       fill="#92d3f5"
       id="rect3" />
    <rect
       x="47.928699"
       y="32.770199"
       rx="1.0578001"
       ry="1.0578001"
       width="6.3407998"
       height="10.6464"
       fill="#92d3f5"
       id="rect4" />
    <rect
       x="60.9389"
       y="32.770199"
       rx="1.0578001"
       ry="1.0578001"
       width="6.3407998"
       height="10.6464"
       fill="#92d3f5"
       id="rect5" />
    <path
       fill="#d0cfce"
       d="m 34.31,51.6463 c 0.0114,2.3441 -1.8796,4.2537 -4.2237,4.2652 -2.3441,0.0114 -4.2537,-1.8796 -4.2652,-4.2237 0,-0.0138 0,-0.0276 0,-0.0414"
       id="path5" />
    <path
       fill="#d0cfce"
       d="m 63.2766,51.6463 c 0,2.3442 -1.9003,4.2445 -4.2445,4.2445 -2.3442,0 -4.2445,-1.9003 -4.2445,-4.2445"
       id="path6" />
    <polygon
       fill="#92d3f5"
       points="26,22 24,23 22,21 20,23 18,22 15,24 14,23 16,22 21,17 "
       id="polygon6" />
    <polygon
       fill="#92d3f5"
       points="58,15.429 54.833,16.714 51.667,14.143 48.5,16.714 45.333,15.429 40.583,18 39,16.714 42.167,15.429 50.083,9 "
       id="polygon7" />
    <rect
       x="22.756701"
       y="47.583599"
       width="43.938099"
       height="4.0627999"
       fill="#3f3f3f"
       id="rect7" />
  </g>
  <g
     id="line"
     transform="translate(-3,-8.0000231)">
    <line
       x1="4"
       x2="68"
       y1="56"
       y2="56"
       fill="none"
       stroke="#000000"
       stroke-linecap="round"
       stroke-linejoin="round"
       stroke-width="2"
       id="line7" />
    <polyline
       fill="none"
       stroke="#000000"
       stroke-linecap="round"
       stroke-linejoin="round"
       stroke-width="2"
       points="68 22 50 9 29 24 21 16 4 32"
       id="polyline7" />
    <path
       fill="none"
       stroke="#000000"
       stroke-linecap="round"
       stroke-miterlimit="10"
       stroke-width="2.0737"
       d="M 23.71,50.6463 H 22.89 C 22.4,50.6449 22.003,50.248 22.0016,49.758 V 28.8236 c 0.0031,-1.0462 0.8505,-1.8936 1.8967,-1.8967 H 65.383 c 1.0464,0.0029 1.8939,0.8503 1.897,1.8967 v 20.9347 c -0.0014,0.4898 -0.3982,0.8866 -0.888,0.888 h -0.8291"
       id="path7" />
    <line
       x1="52.532001"
       x2="36.405899"
       y1="50.646301"
       y2="50.646301"
       fill="none"
       stroke="#000000"
       stroke-linecap="round"
       stroke-miterlimit="10"
       stroke-width="2.0737"
       id="line8" />
    <path
       fill="none"
       stroke="#000000"
       stroke-linecap="round"
       stroke-miterlimit="10"
       stroke-width="2.0737"
       d="m 34.31,51.8984 c 0.0114,2.3441 -1.8796,4.2537 -4.2237,4.2652 -2.3441,0.0114 -4.2537,-1.8796 -4.2652,-4.2237 0,-0.0138 0,-0.0276 0,-0.0414"
       id="path8" />
    <path
       fill="none"
       stroke="#000000"
       stroke-linecap="round"
       stroke-miterlimit="10"
       stroke-width="2.0737"
       d="m 63.2766,51.6463 c 0,2.3442 -1.9003,4.2445 -4.2445,4.2445 -2.3442,0 -4.2445,-1.9003 -4.2445,-4.2445"
       id="path9" />
    <rect
       x="34.918499"
       y="32.780399"
       rx="1.0578001"
       ry="1.0578001"
       width="6.3407998"
       height="10.6464"
       fill="none"
       stroke="#000000"
       stroke-linecap="round"
       stroke-miterlimit="10"
       stroke-width="2.0737"
       id="rect9" />
    <rect
       x="21.962799"
       y="32.780399"
       rx="1.0578001"
       ry="1.0578001"
       width="6.3407998"
       height="10.6464"
       fill="none"
       stroke="#000000"
       stroke-linecap="round"
       stroke-miterlimit="10"
       stroke-width="2.0737"
       id="rect10" />
    <rect
       x="47.756802"
       y="32.8587"
       rx="1.0578001"
       ry="1.0578001"
       width="6.3407998"
       height="10.6464"
       fill="none"
       stroke="#000000"
       stroke-linecap="round"
       stroke-miterlimit="10"
       stroke-width="2.0737"
       id="rect11" />
    <rect
       x="60.9389"
       y="32.8587"
       rx="1.0578001"
       ry="1.0578001"
       width="6.3407998"
       height="10.6464"
       fill="none"
       stroke="#000000"
       stroke-linecap="round"
       stroke-miterlimit="10"
       stroke-width="2.0737"
       id="rect12" />
    <line
       x1="20.944799"
       x2="68.312897"
       y1="47.565498"
       y2="47.565498"
       fill="none"
       stroke="#000000"
       stroke-linecap="round"
       stroke-miterlimit="10"
       stroke-width="1.9699"
       id="line12" />
  </g>
</svg>
