<svg xmlns="http://www.w3.org/2000/svg" xmlns:svg="http://www.w3.org/2000/svg" id="emoji" width="64.476" height="30.94" version="1.1" viewBox="0 0 64.476 30.94"><g id="color" transform="translate(-3.7738913,-26.31)"><path id="path1" fill="#d0cfce" stroke="none" d="M 10.3401,52.88 H 5.86 c -0.5499,0 -0.99,-0.44 -1,-0.99 L 4.7741,44.613 C 4.7685,44.1376 4.8752,43.669 5.087,43.2433 5.3508,42.713 5.6873,42.042 5.7274,41.9888 5.7851,41.9123 5.8302,41.8309 5.8632,41.7408 6.0311,41.2842 6.6257,39.552 8.0601,34.38 c 1.4499,-5.23 10.53,-5.92 13.6098,-6 0.5601,-0.01 1.02,0.44 1.02,1 v 22.5 c 0,0.32 -0.0024,0.745 -0.0024,0.745"/><path id="path2" fill="#3f3f3f" stroke="none" d="M 44.625,52.19 H 26.1899 V 28.31 c 0,-0.55 0.4501,-1 1,-1 H 66.25 c 0.55,0 1,0.45 1,1 v 21.88 c 0,0.55 -0.8091,1.968 -1.3591,1.968 L 58.14,52.19"/><circle id="circle2" cx="16.333" cy="53.25" r="3" fill="#d0cfce" stroke="none" stroke-miterlimit="10" stroke-width="2"/><path id="path3" fill="#3f3f3f" stroke="none" d="m 9.8333,41 5.875,0.0208 0.125,-6.8958 -3.1939,0.068 c -0.4314,0.0091 -0.8082,0.294 -0.9347,0.7065 L 9.8333,41"/><circle id="circle3" cx="57.417" cy="53.25" r="3" fill="#d0cfce" stroke="none" stroke-miterlimit="10" stroke-width="2"/><circle id="circle4" cx="48.417" cy="53.25" r="3" fill="#d0cfce" stroke="none" stroke-miterlimit="10" stroke-width="2"/></g><g id="line" transform="translate(-3.7738913,-26.31)"><circle id="circle5" cx="16.333" cy="53.25" r="3" fill="none" stroke="#000" stroke-miterlimit="10" stroke-width="2"/><polyline id="polyline5" fill="none" stroke="#000" stroke-linecap="round" stroke-linejoin="round" stroke-miterlimit="10" stroke-width="2" points="10.75 41 15.833 41 15.833 35.083"/><circle id="circle6" cx="57.417" cy="53.25" r="3" fill="none" stroke="#000" stroke-miterlimit="10" stroke-width="2"/><circle id="circle7" cx="48.417" cy="53.25" r="3" fill="none" stroke="#000" stroke-miterlimit="10" stroke-width="2"/><path id="path7" fill="none" stroke="#000" stroke-linecap="round" stroke-linejoin="round" stroke-miterlimit="10" stroke-width="2" d="M 10.3401,51.88 H 5.86 c -0.5499,0 -0.99,-0.44 -1,-0.99 L 4.7741,44.613 C 4.7685,44.1376 4.8752,43.669 5.087,43.2433 5.3508,42.713 5.6873,42.042 5.7274,41.9888 5.7851,41.9123 6.6257,39.552 8.0601,34.38 c 1.4499,-5.23 10.53,-5.92 13.6098,-6 0.5601,-0.01 1.02,0.44 1.02,1 v 21.5 c 0,0.32 -0.0024,0.745 -0.0024,0.745"/><path id="path8" fill="none" stroke="#000" stroke-linecap="round" stroke-linejoin="round" stroke-miterlimit="10" stroke-width="2" d="M 42.625,51.19 H 26.1899 V 28.31 c 0,-0.55 0.4501,-1 1,-1 H 66.25 c 0.55,0 1,0.45 1,1 v 21.88 c 0,0.55 -0.45,1 -1,1 h -3.11"/></g></svg>