<svg xmlns="http://www.w3.org/2000/svg" xmlns:svg="http://www.w3.org/2000/svg" id="emoji" width="62.447" height="30.202" version="1.1" viewBox="0 0 62.447 30.202"><g id="color" transform="translate(-5,-25.997509)"><path id="path1" fill="#d0cfce" d="m 64.8,43.8 -1.1,-0.6 c -0.4,-0.2 -0.6,-0.6 -0.5,-1 0.3,-1.9 0.5,-8.5 -9.7,-11.5 -0.2,-0.1 -0.4,-0.1 -0.6,-0.1 l -19.6,0.1 c -0.4,0 -0.8,0.1 -1.1,0.3 l -10.3,6.9 c -0.2,0.1 -0.4,0.2 -0.6,0.2 -1.9,-0.1 -3.7,0.1 -5.6,0.4 -5.4,1.1 -7.6,4 -8.4,5.5 -0.2,0.3 -0.2,0.7 -0.2,1 0.1,2.4 -1.5,5.1 0.9,7.3 l 19.4,-0.1 20.4,-0.5 16.1,-0.2 c 0.9,-0.1 2.4,-1.4 2.8,-2.2 1.7,-2.7 -1.7,-5.4 -1.9,-5.5 z"/><path id="path2" fill="#9b9b9a" d="m 17.3,46.2 c -2.2,0 -4,1.8 -4,4 0,2.2 1.8,4 4,4 2.2,0 4,-1.8 4,-4 0,-2.2 -1.8,-4 -4,-4 z"/><path id="path3" fill="#9b9b9a" d="m 57.1,46.2 c -2.2,0 -4,1.8 -4,4 0,2.2 1.8,4 4,4 2.2,0 4,-1.8 4,-4 0,-2.2 -1.8,-4 -4,-4 z"/><path id="path4" fill="#3f3f3f" d="m 56.1,39.1 v -4.3 c 0,-0.9 -0.8,-1.7 -1.7,-1.7 v 0 H 33.2 c -0.1,0 -0.2,0 -0.2,0.1 l -8,5.7 c -0.2,0.1 -0.2,0.4 -0.1,0.6 0.1,0.1 0.2,0.2 0.3,0.2 5.6,0 27.2,-0.2 30.4,-0.1 0.3,0 0.5,-0.2 0.5,-0.5 0,0.1 0,0.1 0,0 z"/><polygon id="polygon4" fill="#fcea2b" points="10.8 44.8 5.8 44.9 8.9 40.3 12.9 41.9"/><path id="path5" fill="#92d3f5" d="m 34.9,29.2 c 0,0 -0.1,-2.1 2.4,-2.2 2.4,-0.1 2.4,2.2 2.4,2.2"/></g><g id="line" transform="translate(-5,-25.997509)"><path id="path6" fill="none" stroke="#000" stroke-linecap="round" stroke-linejoin="round" stroke-miterlimit="10" stroke-width="2" d="m 34.9,29.2 c 0,0 -0.1,-2.1 2.4,-2.2 2.4,-0.1 2.4,2.2 2.4,2.2"/><line id="line6" x1="47.6" x2="27" y1="50.8" y2="51.2" fill="none" stroke="#000" stroke-linecap="round" stroke-linejoin="round" stroke-width="2"/><path id="path7" fill="none" stroke="#000" stroke-linecap="round" stroke-linejoin="round" stroke-width="2" d="M 8.1,51.2 C 7.2,51 6.4,50.7 6.3,50.2 6.2,49.2 6,46.4 6,45.1 6,44.6 6.1,44 6.4,43.6 c 1.1,-2 4.8,-6.8 14.9,-6.4 l 10.3,-6.9 c 0.5,-0.3 1.1,-0.5 1.6,-0.5 l 19.6,-0.1 c 0.3,0 0.6,0 0.9,0.1 2.2,0.6 11.7,4 10.4,12.6 l 1.1,0.6 c 0.5,0.2 0.9,0.7 1,1.2 0.4,1.4 0.3,2.9 -0.2,4.3"/><polyline id="polyline7" fill="none" stroke="#000" stroke-linecap="round" stroke-linejoin="round" stroke-width="2" points="24.9 39.7 55.1 39.5 55.1 35"/><circle id="circle7" cx="17.3" cy="50.2" r="5" fill="none" stroke="#000" stroke-linecap="round" stroke-linejoin="round" stroke-width="2"/><circle id="circle8" cx="57.1" cy="50.2" r="5" fill="none" stroke="#000" stroke-linecap="round" stroke-linejoin="round" stroke-width="2"/><polyline id="polyline8" fill="none" stroke="#000" stroke-linecap="round" stroke-linejoin="round" stroke-width="2" points="12.3 42.7 10.5 44.9 6.8 44.8"/><line id="line8" x1="24.1" x2="50.1" y1="43.2" y2="43.2" fill="none" stroke="#000" stroke-linecap="round" stroke-linejoin="round" stroke-miterlimit="10" stroke-width="2"/></g><g id="color-foreground" transform="translate(-5,-25.997509)"><line id="xx" x1="24.1" x2="50.1" y1="43.2" y2="43.2" fill="none" stroke="#61b2e4" stroke-linecap="round" stroke-linejoin="round" stroke-miterlimit="10" stroke-width="2.1"/></g></svg>