<?xml version="1.0" encoding="UTF-8" standalone="no"?>
<svg
   id="emoji"
   viewBox="0 0 38 56"
   version="1.1"
   sodipodi:docname="1f6aa.svg"
   width="38"
   height="56"
   xmlns:inkscape="http://www.inkscape.org/namespaces/inkscape"
   xmlns:sodipodi="http://sodipodi.sourceforge.net/DTD/sodipodi-0.dtd"
   xmlns="http://www.w3.org/2000/svg"
   xmlns:svg="http://www.w3.org/2000/svg">
  <defs
     id="defs6" />
  <sodipodi:namedview
     id="namedview6"
     pagecolor="#ffffff"
     bordercolor="#000000"
     borderopacity="0.25"
     inkscape:showpageshadow="2"
     inkscape:pageopacity="0.0"
     inkscape:pagecheckerboard="0"
     inkscape:deskcolor="#d1d1d1" />
  <g
     id="color"
     transform="translate(-17,-8)">
    <rect
       x="18"
       y="9"
       width="36"
       height="54"
       fill="#a57939"
       stroke="none"
       stroke-linejoin="round"
       stroke-miterlimit="10"
       stroke-width="2"
       id="rect1" />
    <rect
       x="24"
       y="14.0943"
       width="24"
       height="16.301901"
       fill="#6a462f"
       stroke="none"
       stroke-linejoin="round"
       stroke-miterlimit="10"
       stroke-width="2"
       id="rect2" />
    <rect
       x="24"
       y="45.679199"
       width="24"
       height="11.2075"
       fill="#6a462f"
       stroke="none"
       stroke-linejoin="round"
       stroke-miterlimit="10"
       stroke-width="2"
       id="rect3" />
  </g>
  <g
     id="hair"
     transform="translate(-17,-8)" />
  <g
     id="skin"
     transform="translate(-17,-8)" />
  <g
     id="skin-shadow"
     transform="translate(-17,-8)" />
  <g
     id="line"
     transform="translate(-17,-8)">
    <rect
       x="18"
       y="9"
       width="36"
       height="54"
       fill="none"
       stroke="#000000"
       stroke-linejoin="round"
       stroke-miterlimit="10"
       stroke-width="2"
       id="rect4" />
    <ellipse
       cx="49"
       cy="36.509399"
       rx="2.5"
       ry="2.0376999"
       fill="#000000"
       stroke="none"
       id="ellipse4" />
    <path
       fill="#000000"
       stroke="none"
       d="m 49.5,41.6038 h -1 c -0.5523,0 -1,-0.4477 -1,-1 v -6.1509 c 0,-0.5523 0.4477,-1 1,-1 h 1 c 0.5523,0 1,0.4477 1,1 v 6.1509 c 0,0.5523 -0.4477,1 -1,1 z"
       id="path4" />
    <rect
       x="24"
       y="14.0943"
       width="24"
       height="16.301901"
       fill="none"
       stroke="#000000"
       stroke-linejoin="round"
       stroke-miterlimit="10"
       stroke-width="2"
       id="rect5" />
    <rect
       x="24"
       y="45.679199"
       width="24"
       height="11.2075"
       fill="none"
       stroke="#000000"
       stroke-linejoin="round"
       stroke-miterlimit="10"
       stroke-width="2"
       id="rect6" />
  </g>
</svg>
