<svg xmlns="http://www.w3.org/2000/svg" xmlns:svg="http://www.w3.org/2000/svg" id="emoji" width="38" height="56" version="1.1" viewBox="0 0 38 56"><g id="color" transform="translate(-17,-8)"><rect id="rect1" width="36" height="54" x="18" y="9" fill="#a57939" stroke="none" stroke-linejoin="round" stroke-miterlimit="10" stroke-width="2"/><rect id="rect2" width="24" height="16.302" x="24" y="14.094" fill="#6a462f" stroke="none" stroke-linejoin="round" stroke-miterlimit="10" stroke-width="2"/><rect id="rect3" width="24" height="11.207" x="24" y="45.679" fill="#6a462f" stroke="none" stroke-linejoin="round" stroke-miterlimit="10" stroke-width="2"/></g><g id="line" transform="translate(-17,-8)"><rect id="rect4" width="36" height="54" x="18" y="9" fill="none" stroke="#000" stroke-linejoin="round" stroke-miterlimit="10" stroke-width="2"/><ellipse id="ellipse4" cx="49" cy="36.509" fill="#000" stroke="none" rx="2.5" ry="2.038"/><path id="path4" fill="#000" stroke="none" d="m 49.5,41.6038 h -1 c -0.5523,0 -1,-0.4477 -1,-1 v -6.1509 c 0,-0.5523 0.4477,-1 1,-1 h 1 c 0.5523,0 1,0.4477 1,1 v 6.1509 c 0,0.5523 -0.4477,1 -1,1 z"/><rect id="rect5" width="24" height="16.302" x="24" y="14.094" fill="none" stroke="#000" stroke-linejoin="round" stroke-miterlimit="10" stroke-width="2"/><rect id="rect6" width="24" height="11.207" x="24" y="45.679" fill="none" stroke="#000" stroke-linejoin="round" stroke-miterlimit="10" stroke-width="2"/></g></svg>