<svg xmlns="http://www.w3.org/2000/svg" xmlns:svg="http://www.w3.org/2000/svg" id="emoji" width="52" height="24" version="1.1" viewBox="0 0 52 24"><g id="color" transform="translate(-9.91,-23.91)"><path id="path1" fill="#d0cfce" stroke="none" stroke-miterlimit="10" d="m 54.09,46.91 h -36 c -3.85,0 -7,-3.15 -7,-7 v -8 c 0,-3.85 3.15,-7 7,-7 h 36 c 3.85,0 7,3.15 7,7 v 8 c 0,3.85 -3.15,7 -7,7 z"/><circle id="circle1" cx="21.618" cy="35.91" r="5" fill="#b1cc33" stroke="none" stroke-miterlimit="10"/><circle id="circle2" cx="35.618" cy="35.91" r="5" fill="#f4aa41" stroke="none" stroke-miterlimit="10"/><circle id="circle3" cx="50.618" cy="35.91" r="5" fill="#ea5a47" stroke="none" stroke-miterlimit="10"/></g><g id="line" transform="translate(-9.91,-23.91)"><path id="path3" fill="none" stroke="#000" stroke-miterlimit="10" d="m 54.09,46.91 h -36 c -3.85,0 -7,-3.15 -7,-7 v -8 c 0,-3.85 3.15,-7 7,-7 h 36 c 3.85,0 7,3.15 7,7 v 8 c 0,3.85 -3.15,7 -7,7 z"/><circle id="circle4" cx="21.618" cy="35.91" r="5" fill="none" stroke="#000" stroke-miterlimit="10"/><circle id="circle5" cx="35.618" cy="35.91" r="5" fill="none" stroke="#000" stroke-miterlimit="10"/><circle id="circle6" cx="50.618" cy="35.91" r="5" fill="none" stroke="#000" stroke-miterlimit="10"/><path id="path6" fill="none" stroke="#000" stroke-linecap="round" stroke-linejoin="round" stroke-miterlimit="10" stroke-width="2" d="m 53.91,46.91 h -36 c -3.85,0 -7,-3.15 -7,-7 v -8 c 0,-3.85 3.15,-7 7,-7 h 36 c 3.85,0 7,3.15 7,7 v 8 c 0,3.85 -3.15,7 -7,7 z"/><circle id="circle7" cx="21.438" cy="35.91" r="5" fill="none" stroke="#000" stroke-linecap="round" stroke-linejoin="round" stroke-miterlimit="10" stroke-width="2"/><circle id="circle8" cx="35.438" cy="35.91" r="5" fill="none" stroke="#000" stroke-linecap="round" stroke-linejoin="round" stroke-miterlimit="10" stroke-width="2"/><circle id="circle9" cx="50.438" cy="35.91" r="5" fill="none" stroke="#000" stroke-linecap="round" stroke-linejoin="round" stroke-miterlimit="10" stroke-width="2"/></g></svg>