<?xml version="1.0" encoding="UTF-8" standalone="no"?>
<svg
   id="emoji"
   viewBox="0 0 47.699997 54.599998"
   version="1.1"
   sodipodi:docname="1f6a8.svg"
   width="47.699997"
   height="54.599998"
   xmlns:inkscape="http://www.inkscape.org/namespaces/inkscape"
   xmlns:sodipodi="http://sodipodi.sourceforge.net/DTD/sodipodi-0.dtd"
   xmlns="http://www.w3.org/2000/svg"
   xmlns:svg="http://www.w3.org/2000/svg">
  <defs
     id="defs6" />
  <sodipodi:namedview
     id="namedview6"
     pagecolor="#ffffff"
     bordercolor="#000000"
     borderopacity="0.25"
     inkscape:showpageshadow="2"
     inkscape:pageopacity="0.0"
     inkscape:pagecheckerboard="0"
     inkscape:deskcolor="#d1d1d1" />
  <g
     id="color"
     transform="translate(-12.1,-7)">
    <path
       fill="#ea5a47"
       d="M 21.4,51 V 36 A 14.9585,14.9585 0 0 1 36.3,21 v 0 a 15.0887,15.0887 0 0 1 14.9,15 v 15"
       id="path1" />
    <path
       fill="#d0cfce"
       d="m 21.4,51 h 30 a 4.9514,4.9514 0 0 1 5,5 v 0 a 4.9514,4.9514 0 0 1 -5,5 h -30 a 4.9514,4.9514 0 0 1 -5,-5 v 0 a 4.9514,4.9514 0 0 1 5,-5 z"
       id="path2" />
    <path
       fill="#d22f27"
       d="M 51.4,36 A 14.9381,14.9381 0 0 0 36.6,21 v 0 a 14.7059,14.7059 0 0 0 -4.2,0.6 c 9.4,3.8 10.3,23.2 10.4,29.4 h 8.7 V 36 Z"
       id="path3" />
  </g>
  <g
     id="line"
     transform="translate(-12.1,-7)">
    <line
       x1="17.799999"
       x2="13.1"
       y1="23.5"
       y2="18.799999"
       fill="none"
       stroke="#000000"
       stroke-linecap="round"
       stroke-linejoin="round"
       stroke-width="2"
       id="line3" />
    <line
       x1="54.099998"
       x2="58.799999"
       y1="23.5"
       y2="18.799999"
       fill="none"
       stroke="#000000"
       stroke-linecap="round"
       stroke-linejoin="round"
       stroke-width="2"
       id="line4" />
    <line
       x1="36.400002"
       x2="36.400002"
       y1="14"
       y2="8"
       fill="none"
       stroke="#000000"
       stroke-linecap="round"
       stroke-linejoin="round"
       stroke-width="2"
       id="line5" />
    <path
       fill="none"
       stroke="#000000"
       stroke-linecap="round"
       stroke-linejoin="round"
       stroke-width="2"
       d="M 21.4,51 V 36 A 14.9585,14.9585 0 0 1 36.3,21 v 0 a 15.0887,15.0887 0 0 1 14.9,15 v 15"
       id="path5" />
    <path
       fill="none"
       stroke="#000000"
       stroke-linecap="round"
       stroke-linejoin="round"
       stroke-width="2"
       d="m 21.1,51 h 30.5 a 4.8011,4.8011 0 0 1 4.8,4.8 v 0 a 4.8011,4.8011 0 0 1 -4.8,4.8 H 21.1 a 4.8011,4.8011 0 0 1 -4.8,-4.8 v 0 A 4.9353,4.9353 0 0 1 21.1,51 Z"
       id="path6" />
  </g>
</svg>
