<svg xmlns="http://www.w3.org/2000/svg" xmlns:svg="http://www.w3.org/2000/svg" id="emoji" width="62" height="62" version="1.1" viewBox="0 0 62 62"><g id="color" transform="translate(-5,-5)"><circle id="circle1" cx="36" cy="36" r="26" fill="#fff"/><rect id="rect1" width="4.002" height="8.99" x="51" y="32.97" fill="#9b9b9a"/><rect id="rect2" width="7" height="7" x="17" y="34" fill="#f1b31c"/><path id="path2" fill="#ea5a47" stroke-miterlimit="10" d="M 36,7 C 19.98,7 7,19.98 7,36 7,52.02 19.98,65 36,65 52.02,65 65,52.02 65,36 65,19.98 52.02,7 36,7 Z M 10.79,36.27 c 0,-5.075 3.417,-12.69 6.202,-16.49 l 35.2,35.27 c -3.805,2.784 -10.93,5.904 -16.01,5.904 -12.7,0 -25.39,-11.98 -25.39,-24.68 z M 55.66,51.45 20.6,16.32 c 3.805,-2.784 10.77,-5.441 15.84,-5.441 12.7,0 24.68,12.25 24.68,24.95 0,5.075 -2.686,11.81 -5.47,15.62 z"/></g><g id="line" transform="translate(-5,-5)"><path id="path3" fill="none" stroke="#000" stroke-linecap="round" stroke-linejoin="round" stroke-miterlimit="10" stroke-width="1.99" d="m 26.48,33.96 h -9.479 l 10e-4,7 h 16.52 m 16.32,0 h 1.165 v -7 h -8.201"/><line id="line3" x1="55" x2="55" y1="33.95" y2="40.95" fill="none" stroke="#000" stroke-linecap="round" stroke-linejoin="round" stroke-miterlimit="10" stroke-width="1.99"/><path id="path4" fill="none" stroke="#000" stroke-linecap="round" stroke-linejoin="round" stroke-miterlimit="10" stroke-width="1.99" d="m 49,24 c 0,1.657 1.343,3 3,3 1.657,0 3,1.343 3,3"/><circle id="circle4" cx="36" cy="36" r="30" fill="none" stroke="#000" stroke-linecap="round" stroke-linejoin="round" stroke-width="2"/><path id="path5" fill="none" stroke="#000" stroke-linecap="round" stroke-linejoin="round" stroke-width="2" d="M 55.66,51.44 A 24.99,24.99 0 0 0 20.6,16.31 Z"/><path id="path6" fill="none" stroke="#000" stroke-linecap="round" stroke-linejoin="round" stroke-width="2" d="m 16.99,19.77 a 24.99,24.99 0 0 0 35.2,35.27 z"/></g></svg>