<svg xmlns="http://www.w3.org/2000/svg" xmlns:svg="http://www.w3.org/2000/svg" id="emoji" width="61.103" height="46.897" version="1.1" viewBox="0 0 61.103 46.897"><g id="skin" transform="translate(-3.7665,-17.9252)"><circle id="circle1" cx="33.505" cy="21.785" r="3" fill="#fcea2b"/><path id="path1" fill="#fcea2b" d="m 44.8039,31.4579 c -3.8131,-0.9532 -10.5813,-3.05 -14.2991,-3.813 -4.7663,-0.9533 -9.5327,10.4859 -9.5327,10.4859 h 7.6262 l 4.29,-7.4355 9.7234,2.0972"/></g><g id="color" transform="translate(-3.7665,-17.9252)"><path id="path2" fill="#d0cfce" d="M 55.29,45.757 62.9161,37.8449 41.9442,37.1776 H 31.4581 L 5.72,38.4168 l 5.72,7.34 5.72,2.0972 8.3878,-1.334 8.77,-1.7159 6.8636,1.144 8.3886,1.7155 z"/><path id="path3" fill="#92d3f5" d="m 64.8226,44.8037 c -7.6262,0 -10.486,2.86 -15.2524,2.86 -4.7664,0 -9.5327,-2.86 -15.2523,-2.86 -5.7196,0 -9.5327,2.86 -15.2523,2.86 -5.7196,0 -12.3926,-2.86 -15.2524,-2.86 V 56.91 c 0,1.3346 1.3346,7.9121 6.6729,7.9121 h 48.7122 c 5.5289,0 5.6243,-5.5289 5.6243,-10.0093 z"/><path id="path4" fill="#a57939" d="m 23.8319,46.71 c 0,0 2.9552,-2.0972 3.8131,-2.86 a 8.3133,8.3133 0 0 1 4.7664,-1.9066 l 12.3925,-10.486 0.7626,-0.6672 c 0,0 0.8579,1.5252 0.572,2.0972 -0.2859,0.572 -5.815,4.957 -5.815,4.957 l -6.0056,5.3383 0.286,2.0018 -8.8654,1.2393 z"/></g><g id="line" transform="translate(-3.7665,-17.9252)"><path id="path5" fill="none" stroke="#000" stroke-linecap="round" stroke-linejoin="round" stroke-width="2" d="m 11.4394,45.757 -5.72,-7.34 25.7383,-0.2859"/><path id="path6" fill="none" stroke="#000" stroke-linecap="round" stroke-linejoin="round" stroke-width="2" d="m 4.7665,44.8038 c 2.86,0 8.5794,2.86 14.2991,2.86 5.7197,0 9.5327,-2.86 15.2523,-2.86 5.7196,0 10.486,2.86 15.2523,2.86 4.7663,0 6.6729,-2.86 14.2991,-2.86"/><path id="path7" fill="none" stroke="#000" stroke-linecap="round" stroke-linejoin="round" stroke-width="2" d="m 23.8319,46.71 c 0,0 2.9552,-2.0972 3.8131,-2.86 a 8.3133,8.3133 0 0 1 4.7664,-1.9066 L 44.8039,31.458"/><path id="path8" fill="none" stroke="#000" stroke-linecap="round" stroke-linejoin="round" stroke-width="2" d="m 54.3366,46.71 8.5794,-8.8654 -20.9719,0.286"/><circle id="circle8" cx="33.365" cy="21.925" r="3" fill="none" stroke="#000" stroke-linecap="round" stroke-linejoin="round" stroke-width="2"/><path id="path9" fill="none" stroke="#000" stroke-linecap="round" stroke-linejoin="round" stroke-width="2" d="m 44.8039,31.4579 c -3.8131,-0.9532 -10.5813,-3.05 -14.2991,-3.813 -4.7663,-0.9533 -9.5327,10.4859 -9.5327,10.4859"/><path id="path10" fill="none" stroke="#000" stroke-linecap="round" stroke-linejoin="round" stroke-width="2" d="m 28.5983,38.1308 3.8131,-6.6729"/><path id="path11" fill="none" stroke="#000" stroke-linecap="round" stroke-linejoin="round" stroke-width="2" d="m 29.9286,19.5309 c 0,0 -0.47,-0.4613 -0.9055,-0.3015 -0.5128,0.1872 -1.2172,1.3184 -1.8741,1.6829 a 3.3629,3.3629 0 0 1 -2.1313,0.4173"/></g></svg>