<?xml version="1.0" encoding="UTF-8" standalone="no"?>
<svg
   id="emoji"
   viewBox="0 0 62 62"
   version="1.1"
   sodipodi:docname="1f6ab.svg"
   width="62"
   height="62"
   xmlns:inkscape="http://www.inkscape.org/namespaces/inkscape"
   xmlns:sodipodi="http://sodipodi.sourceforge.net/DTD/sodipodi-0.dtd"
   xmlns="http://www.w3.org/2000/svg"
   xmlns:svg="http://www.w3.org/2000/svg">
  <defs
     id="defs3" />
  <sodipodi:namedview
     id="namedview3"
     pagecolor="#ffffff"
     bordercolor="#000000"
     borderopacity="0.25"
     inkscape:showpageshadow="2"
     inkscape:pageopacity="0.0"
     inkscape:pagecheckerboard="0"
     inkscape:deskcolor="#d1d1d1" />
  <g
     id="color"
     transform="translate(-5,-5)">
    <circle
       cx="36"
       cy="36"
       r="26"
       fill="#ffffff"
       id="circle1" />
    <path
       fill="#ea5a47"
       stroke-miterlimit="10"
       d="M 36,7 C 19.98,7 7,19.98 7,36 7,52.02 19.98,65 36,65 52.02,65 65,52.02 65,36 65,19.98 52.02,7 36,7 Z M 10.79,36.27 c 0,-5.075 3.417,-12.69 6.202,-16.49 l 35.2,35.27 c -3.805,2.784 -10.93,5.904 -16.01,5.904 -12.7,0 -25.39,-11.98 -25.39,-24.68 z M 55.66,51.45 20.6,16.32 c 3.805,-2.784 10.77,-5.441 15.84,-5.441 12.7,0 24.68,12.25 24.68,24.95 0,5.075 -2.686,11.81 -5.47,15.62 z"
       id="path1" />
  </g>
  <g
     id="hair"
     transform="translate(-5,-5)" />
  <g
     id="skin"
     transform="translate(-5,-5)" />
  <g
     id="skin-shadow"
     transform="translate(-5,-5)" />
  <g
     id="line"
     transform="translate(-5,-5)">
    <circle
       cx="36"
       cy="36"
       r="30"
       fill="none"
       stroke="#000000"
       stroke-linecap="round"
       stroke-linejoin="round"
       stroke-width="2"
       id="circle2" />
    <path
       fill="none"
       stroke="#000000"
       stroke-linecap="round"
       stroke-linejoin="round"
       stroke-width="2"
       d="M 55.66,51.44 A 24.99,24.99 0 0 0 20.6,16.31 Z"
       id="path2" />
    <path
       fill="none"
       stroke="#000000"
       stroke-linecap="round"
       stroke-linejoin="round"
       stroke-width="2"
       d="m 16.99,19.77 a 24.99,24.99 0 0 0 35.2,35.27 z"
       id="path3" />
  </g>
</svg>
