<?xml version="1.0" encoding="UTF-8" standalone="no"?>
<svg
   id="emoji"
   viewBox="0 0 52 52"
   version="1.1"
   sodipodi:docname="1f6ae.svg"
   width="52"
   height="52"
   xmlns:inkscape="http://www.inkscape.org/namespaces/inkscape"
   xmlns:sodipodi="http://sodipodi.sourceforge.net/DTD/sodipodi-0.dtd"
   xmlns="http://www.w3.org/2000/svg"
   xmlns:svg="http://www.w3.org/2000/svg">
  <defs
     id="defs8" />
  <sodipodi:namedview
     id="namedview8"
     pagecolor="#ffffff"
     bordercolor="#000000"
     borderopacity="0.25"
     inkscape:showpageshadow="2"
     inkscape:pageopacity="0.0"
     inkscape:pagecheckerboard="0"
     inkscape:deskcolor="#d1d1d1" />
  <g
     id="color"
     transform="translate(-10,-10)">
    <path
       fill="#61b2e4"
       stroke="none"
       stroke-linecap="round"
       stroke-linejoin="round"
       stroke-miterlimit="10"
       stroke-width="2"
       d="M 60,61 H 12 c -0.5523,0 -1,-0.4477 -1,-1 V 12 c 0,-0.5523 0.4477,-1 1,-1 h 48 c 0.5523,0 1,0.4477 1,1 v 48 c 0,0.5523 -0.4477,1 -1,1 z"
       id="path1" />
    <polyline
       fill="#ffffff"
       stroke="none"
       points="33.9633,43.4587 32.8958,58.4031 24.8958,58.4031 23.8284,43.4587"
       id="polyline1" />
    <path
       fill="#ffffff"
       stroke="none"
       stroke-linecap="round"
       stroke-linejoin="round"
       stroke-miterlimit="10"
       stroke-width="1.8266"
       d="m 31.231,41.1948 c 0,0 -5.6067,0.3386 -5.7333,0.411 -0.1267,0.0725 1.1619,-1.6144 0.9723,-3.4846 0,0 3.0416,1.0383 5.8834,-0.5198 z"
       id="path2" />
    <path
       fill="#ffffff"
       stroke="none"
       d="m 42.6258,25.6433 c 0,0 -0.5443,3.9503 -2.9983,6.9077 -0.5911,0.7122 -2.7561,2.0885 -3.3567,2.34 -2.25,0.9423 -4.4827,-0.1479 -4.4827,-0.1479 l 5.9378,-3.6298 1.8399,-5.32 z"
       id="path3" />
    <path
       fill="#ffffff"
       stroke="none"
       d="M 52.6764,41.2839 52.0229,25.2425 c -0.0946,-1.8972 -1.6166,-3.3911 -3.4733,-3.4092 h -4.9512 c -1.8567,0.0181 -3.3787,1.512 -3.4733,3.4092 l 1.1038,2.0442 c -0.0048,0.1074 0.1508,0.6019 0.1076,0.6998 l 0.4657,11.9296 -0.7693,18.2453 c -0.0269,0.2599 0.2184,0.5377 0.377,0.7427 0.0313,0.0399 0.076,0.0664 0.1255,0.0743 0.1765,0 0.5421,-0.3529 0.6073,-0.9287 l 2.0977,-18.5953 c 0.0442,-0.3814 0.1421,-0.7542 0.2904,-1.1069 l 0.812,-0.5142 h 1.341 l 0.5979,0.6645 c 0.1269,0.325 0.2916,0.6363 0.3324,0.9838 l 2.3919,18.5698 c 0.0652,0.5766 0.43,0.9287 0.6065,0.9287 0.0494,-0.0079 0.0942,-0.0344 0.1255,-0.0743 0.1587,-0.2049 0.2328,-0.4652 0.2063,-0.7253 l -0.5889,-18.2644 2.4208,1.7283 c -0.0598,-0.1107 -0.094,-0.2341 -0.0998,-0.3605 z"
       id="path4" />
    <circle
       cx="45.9925"
       cy="16.510201"
       r="2.3752"
       fill="#ffffff"
       stroke="none"
       id="circle4" />
  </g>
  <g
     id="hair"
     transform="translate(-10,-10)" />
  <g
     id="skin"
     transform="translate(-10,-10)" />
  <g
     id="skin-shadow"
     transform="translate(-10,-10)" />
  <g
     id="line"
     transform="translate(-10,-10)">
    <path
       fill="none"
       stroke="#000000"
       stroke-linecap="round"
       stroke-linejoin="round"
       stroke-miterlimit="10"
       stroke-width="2"
       d="M 60,61 H 12 c -0.5523,0 -1,-0.4477 -1,-1 V 12 c 0,-0.5523 0.4477,-1 1,-1 h 48 c 0.5523,0 1,0.4477 1,1 v 48 c 0,0.5523 -0.4477,1 -1,1 z"
       id="path5" />
    <polyline
       fill="none"
       stroke="#000000"
       stroke-linecap="round"
       stroke-linejoin="round"
       stroke-miterlimit="10"
       stroke-width="2"
       points="33.8958,44.4031 32.8958,58.4031 24.8958,58.4031 23.8958,44.4031"
       id="polyline5" />
    <path
       fill="none"
       stroke="#000000"
       stroke-linecap="round"
       stroke-linejoin="round"
       stroke-miterlimit="10"
       stroke-width="1.8266"
       d="m 31.231,41.1948 c 0,0 -5.6067,0.3386 -5.7333,0.411 -0.1267,0.0725 1.1619,-1.6144 0.9723,-3.4846 0,0 3.0416,1.0383 5.8834,-0.5198 z"
       id="path6" />
    <circle
       cx="45.9925"
       cy="16.510201"
       r="2.3752"
       fill="none"
       stroke="#000000"
       stroke-miterlimit="10"
       stroke-width="2"
       id="circle6" />
    <path
       fill="none"
       stroke="#000000"
       stroke-linecap="round"
       stroke-linejoin="round"
       stroke-width="2"
       d="m 50.0173,26.8606 1.52,30.4 c 0.044,0.88 -0.46,1.6 -1.12,1.6 C 49.6361,58.7285 49.057,58.063 49.0341,57.271 L 47.0029,39.6462 c -0.1008,-0.8744 -0.5431,-1.5896 -0.9832,-1.5896 -0.44,0 -0.88,0.7152 -0.9832,1.5896 L 43.0029,57.271 c -0.0228,0.792 -0.602,1.4575 -1.3832,1.5896 -0.66,0 -1.1639,-0.72 -1.12,-1.6 l 1.52,-30.4"
       id="path7" />
    <path
       fill="none"
       stroke="#000000"
       stroke-linecap="round"
       stroke-linejoin="round"
       stroke-width="2"
       d="m 32.1458,33.8333 c 0,0 3.9208,-1.4164 5,-3 1.0447,-1.5328 4.2447,-8.9751 6.4715,-9 h 4.8 c 2.2268,0.0249 4.0509,1.7761 4.1664,4 l 0.6336,15.2"
       id="path8" />
  </g>
</svg>
