<?xml version="1.0" encoding="UTF-8" standalone="no"?>
<svg
   id="emoji"
   viewBox="0 0 48.407909 36.978981"
   version="1.1"
   sodipodi:docname="1f6a1.svg"
   width="48.407909"
   height="36.978981"
   xmlns:inkscape="http://www.inkscape.org/namespaces/inkscape"
   xmlns:sodipodi="http://sodipodi.sourceforge.net/DTD/sodipodi-0.dtd"
   xmlns="http://www.w3.org/2000/svg"
   xmlns:svg="http://www.w3.org/2000/svg">
  <defs
     id="defs14" />
  <sodipodi:namedview
     id="namedview14"
     pagecolor="#ffffff"
     bordercolor="#000000"
     borderopacity="0.25"
     inkscape:showpageshadow="2"
     inkscape:pageopacity="0.0"
     inkscape:pagecheckerboard="0"
     inkscape:deskcolor="#d1d1d1" />
  <g
     id="color"
     transform="translate(-11.796046,-17.02102)">
    <path
       fill="#3f3f3f"
       d="m 33.429,22.5141 c 0.0563,0.261 -0.4737,0.8975 -0.1653,0.5925 a 1.5438,1.5438 0 0 0 0.4295,-0.9446 1.6034,1.6034 0 0 0 -0.8064,-1.61 1.5000751,1.5000751 0 1 0 -1.5142,2.59 l 0.0649,0.0374 -0.6893,-0.8964 0.0254,0.078 v -0.7976 l -0.017,0.0834 0.3858,-0.6619 a 2.5641,2.5641 0 0 0 -0.64,1.0319 2.8242,2.8242 0 0 0 0.0336,1.2944 1.5003581,1.5003581 0 1 0 2.8928,-0.7975 z"
       id="path1" />
    <path
       fill="#3f3f3f"
       d="m 41.997,25.426 a 1.5009,1.5009 0 0 0 0,-3 1.5009,1.5009 0 0 0 0,3 z"
       id="path2" />
    <path
       fill="#3f3f3f"
       d="m 37.1958,24.4221 a 1.5009,1.5009 0 0 0 0,-3 1.5009,1.5009 0 0 0 0,3 z"
       id="path3" />
    <path
       fill="#3f3f3f"
       d="m 26.2273,20.0344 a 1.61,1.61 0 0 0 1.5666,2.701 1.515,1.515 0 0 0 1.0477,-1.8454 2.7206,2.7206 0 0 0 -1.0805,-1.438 1.5105,1.5105 0 0 0 -2.0523,0.5381 1.5349,1.5349 0 0 0 0.5381,2.0523 0.632,0.632 0 0 1 -0.2982,-0.3549 l 1.0477,-1.8452 -0.0942,0.0243 1.1558,0.1512 -0.0807,-0.0542 0.7429,1.2952 -0.0029,-0.0972 -0.4393,1.0607 0.0706,-0.0669 a 1.5,1.5 0 1 0 -2.1213,-2.1213 z"
       id="path4" />
    <rect
       x="27"
       y="30"
       width="15"
       height="23"
       fill="#fcea2b"
       stroke="#000000"
       stroke-linejoin="round"
       stroke-width="2"
       id="rect4" />
    <line
       x1="28"
       x2="42"
       y1="50"
       y2="50"
       fill="none"
       stroke="#61b2e4"
       stroke-linejoin="round"
       stroke-width="2"
       id="line4" />
    <rect
       x="27"
       y="42"
       width="6"
       height="4"
       fill="#d0cfce"
       stroke="#d0cfce"
       stroke-linejoin="round"
       stroke-width="1.633"
       id="rect5" />
    <rect
       x="27"
       y="34"
       width="6"
       height="6.5"
       fill="#3f3f3f"
       stroke="#3f3f3f"
       stroke-linejoin="round"
       stroke-width="1.472"
       id="rect6" />
    <rect
       x="36"
       y="34"
       width="6"
       height="11"
       fill="#d0cfce"
       stroke="#d0cfce"
       stroke-linejoin="round"
       stroke-width="2"
       id="rect7" />
  </g>
  <g
     id="line"
     transform="translate(-11.796046,-17.02102)">
    <rect
       x="30"
       y="20"
       rx="1.732"
       width="4"
       height="4"
       transform="rotate(9.6714,31.999751,21.999766)"
       fill="none"
       stroke="#000000"
       stroke-miterlimit="10"
       stroke-width="2"
       id="rect8" />
    <rect
       x="35"
       y="21"
       rx="1.732"
       width="4"
       height="4"
       transform="rotate(9.6714,36.999924,22.999989)"
       fill="none"
       stroke="#000000"
       stroke-miterlimit="10"
       stroke-width="2"
       id="rect9" />
    <rect
       x="40"
       y="22"
       rx="1.732"
       width="4"
       height="4"
       transform="matrix(0.9858,0.168,-0.168,0.9858,4.6289,-6.7148)"
       fill="none"
       stroke="#000000"
       stroke-miterlimit="10"
       stroke-width="2"
       id="rect10" />
    <rect
       x="25"
       y="19"
       rx="1.732"
       width="4"
       height="4"
       transform="matrix(0.9858,0.168,-0.168,0.9858,3.9117,-4.2375)"
       fill="none"
       stroke="#000000"
       stroke-miterlimit="10"
       stroke-width="2"
       id="rect11" />
    <line
       x1="12"
       x2="60"
       y1="18"
       y2="28"
       fill="none"
       stroke="#000000"
       stroke-miterlimit="10"
       stroke-width="2"
       id="line11" />
    <line
       x1="35"
       x2="35"
       y1="23"
       y2="31"
       fill="none"
       stroke="#000000"
       stroke-miterlimit="10"
       stroke-width="2"
       id="line12" />
    <rect
       x="36"
       y="34"
       width="6"
       height="11"
       fill="none"
       stroke="#000000"
       stroke-linejoin="round"
       stroke-width="2"
       id="rect12" />
    <rect
       x="27"
       y="34"
       width="6"
       height="13"
       fill="none"
       stroke="#000000"
       stroke-linejoin="round"
       stroke-width="2"
       id="rect13" />
    <rect
       x="27"
       y="30"
       width="15"
       height="23"
       fill="none"
       stroke="#000000"
       stroke-linejoin="round"
       stroke-width="2"
       id="rect14" />
  </g>
</svg>
