<svg xmlns="http://www.w3.org/2000/svg" xmlns:svg="http://www.w3.org/2000/svg" id="emoji" width="24" height="52" version="1.1" viewBox="0 0 24 52"><g id="color" transform="translate(-24,-8)"><path id="path1" fill="#d0cfce" stroke="none" d="m 47,15.82 v 36 c 0,3.85 -3.15,7 -7,7 h -8 c -3.85,0 -7,-3.15 -7,-7 v -36 c 0,-3.85 3.15,-7 7,-7 h 8 c 3.85,0 7,3.15 7,7 z"/><circle id="circle1" cx="36" cy="48.292" r="5" fill="#b1cc33" stroke="none"/><circle id="circle2" cx="36" cy="34.292" r="5" fill="#f4aa41" stroke="none"/><circle id="circle3" cx="36" cy="19.292" r="5" fill="#ea5a47" stroke="none"/></g><g id="line" transform="translate(-24,-8)"><path id="path3" fill="none" stroke="#000" stroke-linecap="round" stroke-linejoin="round" stroke-miterlimit="10" stroke-width="2" d="m 47,16 v 36 c 0,3.85 -3.15,7 -7,7 h -8 c -3.85,0 -7,-3.15 -7,-7 V 16 c 0,-3.85 3.15,-7 7,-7 h 8 c 3.85,0 7,3.15 7,7 z"/><circle id="circle4" cx="36" cy="48.472" r="5" fill="none" stroke="#000" stroke-linecap="round" stroke-linejoin="round" stroke-miterlimit="10" stroke-width="2"/><circle id="circle5" cx="36" cy="34.472" r="5" fill="none" stroke="#000" stroke-linecap="round" stroke-linejoin="round" stroke-miterlimit="10" stroke-width="2"/><circle id="circle6" cx="36" cy="19.472" r="5" fill="none" stroke="#000" stroke-linecap="round" stroke-linejoin="round" stroke-miterlimit="10" stroke-width="2"/></g></svg>