<svg xmlns="http://www.w3.org/2000/svg" xmlns:svg="http://www.w3.org/2000/svg" id="emoji" width="47.7" height="54.6" version="1.1" viewBox="0 0 47.7 54.6"><g id="color" transform="translate(-12.1,-7)"><path id="path1" fill="#ea5a47" d="M 21.4,51 V 36 A 14.9585,14.9585 0 0 1 36.3,21 v 0 a 15.0887,15.0887 0 0 1 14.9,15 v 15"/><path id="path2" fill="#d0cfce" d="m 21.4,51 h 30 a 4.9514,4.9514 0 0 1 5,5 v 0 a 4.9514,4.9514 0 0 1 -5,5 h -30 a 4.9514,4.9514 0 0 1 -5,-5 v 0 a 4.9514,4.9514 0 0 1 5,-5 z"/><path id="path3" fill="#d22f27" d="M 51.4,36 A 14.9381,14.9381 0 0 0 36.6,21 v 0 a 14.7059,14.7059 0 0 0 -4.2,0.6 c 9.4,3.8 10.3,23.2 10.4,29.4 h 8.7 V 36 Z"/></g><g id="line" transform="translate(-12.1,-7)"><line id="line3" x1="17.8" x2="13.1" y1="23.5" y2="18.8" fill="none" stroke="#000" stroke-linecap="round" stroke-linejoin="round" stroke-width="2"/><line id="line4" x1="54.1" x2="58.8" y1="23.5" y2="18.8" fill="none" stroke="#000" stroke-linecap="round" stroke-linejoin="round" stroke-width="2"/><line id="line5" x1="36.4" x2="36.4" y1="14" y2="8" fill="none" stroke="#000" stroke-linecap="round" stroke-linejoin="round" stroke-width="2"/><path id="path5" fill="none" stroke="#000" stroke-linecap="round" stroke-linejoin="round" stroke-width="2" d="M 21.4,51 V 36 A 14.9585,14.9585 0 0 1 36.3,21 v 0 a 15.0887,15.0887 0 0 1 14.9,15 v 15"/><path id="path6" fill="none" stroke="#000" stroke-linecap="round" stroke-linejoin="round" stroke-width="2" d="m 21.1,51 h 30.5 a 4.8011,4.8011 0 0 1 4.8,4.8 v 0 a 4.8011,4.8011 0 0 1 -4.8,4.8 H 21.1 a 4.8011,4.8011 0 0 1 -4.8,-4.8 v 0 A 4.9353,4.9353 0 0 1 21.1,51 Z"/></g></svg>