<?xml version="1.0" encoding="UTF-8" standalone="no"?>
<svg
   id="emoji"
   viewBox="0 0 58.099998 47.256001"
   version="1.1"
   sodipodi:docname="1f6a7.svg"
   width="58.099998"
   height="47.256001"
   xmlns:inkscape="http://www.inkscape.org/namespaces/inkscape"
   xmlns:sodipodi="http://sodipodi.sourceforge.net/DTD/sodipodi-0.dtd"
   xmlns="http://www.w3.org/2000/svg"
   xmlns:svg="http://www.w3.org/2000/svg">
  <defs
     id="defs27" />
  <sodipodi:namedview
     id="namedview27"
     pagecolor="#ffffff"
     bordercolor="#000000"
     borderopacity="0.25"
     inkscape:showpageshadow="2"
     inkscape:pageopacity="0.0"
     inkscape:pagecheckerboard="0"
     inkscape:deskcolor="#d1d1d1" />
  <g
     id="color"
     transform="translate(-6.95,-12.372)">
    <path
       fill="#ffffff"
       d="m 15.35,59.08 h -1.779 c -0.6839,0 -1.238,-0.578 -1.238,-1.291 v -34.83 c 0,-0.713 0.5544,-1.291 1.238,-1.291 h 1.779 c 0.6839,0 1.238,0.578 1.238,1.291 v 34.83 c 0,0.713 -0.5545,1.291 -1.238,1.291 z"
       id="path1" />
    <path
       fill="#ffffff"
       d="m 58.46,59.08 h -1.779 c -0.6839,0 -1.238,-0.7131 -1.238,-1.593 v -32.97 c 0,-0.8796 0.5544,-1.593 1.238,-1.593 h 1.779 c 0.6839,0 1.238,0.7131 1.238,1.593 v 32.97 c 0,0.8796 -0.5545,1.593 -1.238,1.593 z"
       id="path2" />
    <path
       fill="#fcea2b"
       d="m 7.45,43.47 h 7.743 L 7.45,51.213 Z"
       id="path3" />
    <path
       fill="#3f3f3f"
       d="M 15.19,43.47 H 27.53 L 19.787,51.213 7.447,51.1549 Z"
       id="path4" />
    <path
       fill="#fcea2b"
       d="m 27.48,43.47 h 12.34 l -7.743,7.743 h -12.29 z"
       id="path5" />
    <path
       fill="#3f3f3f"
       d="m 39.82,43.47 h 12.34 l -7.743,7.743 h -12.34 z"
       id="path6" />
    <path
       fill="#fcea2b"
       d="m 52.16,43.47 11.89,-0.1839 -7.9181,7.9511 H 44.3676 Z"
       id="path7" />
    <path
       fill="#3f3f3f"
       d="m 64.0079,43.3319 v 7.612 h -7.612 z"
       id="path8" />
    <path
       fill="#fcea2b"
       d="m 7.95,28.33 7.646,-0.0337 -7.646,7.646 z"
       id="path9" />
    <path
       fill="#3f3f3f"
       d="m 15.6,28.3 h 11.94 l -7.695,7.646 H 7.955 Z"
       id="path10" />
    <path
       fill="#fcea2b"
       d="m 27.48,28.3 h 12.34 l -7.743,7.743 h -12.29 z"
       id="path11" />
    <path
       fill="#3f3f3f"
       d="m 39.82,28.3 h 12.34 l -7.743,7.743 h -12.34 z"
       id="path12" />
    <path
       fill="#fcea2b"
       d="m 52.16,28.3 10.9084,-0.0069 -0.015,1.0493 -6.6154,6.6036 -12.02,0.0976 z"
       id="path13" />
    <path
       fill="#3f3f3f"
       d="m 64.05,28.33 v 7.612 h -7.612 z"
       id="path14" />
  </g>
  <g
     id="line"
     transform="translate(-6.95,-12.372)">
    <path
       fill="none"
       stroke="#000000"
       stroke-linecap="round"
       stroke-linejoin="round"
       stroke-width="2"
       d="M 12.74,42.72 V 36.372"
       id="path15" />
    <path
       fill="none"
       stroke="#000000"
       stroke-linecap="round"
       stroke-linejoin="round"
       stroke-width="2"
       d="m 16.92,50.9 v 6.509 c 0,0.6723 -0.5448,1.217 -1.217,1.217 h -1.748 c -0.672,0 -1.217,-0.5451 -1.217,-1.217 v -6.071"
       id="path16" />
    <path
       fill="none"
       stroke="#000000"
       stroke-linecap="round"
       stroke-linejoin="round"
       stroke-width="2"
       d="m 16.92,36.37 v 6.348"
       id="path17" />
    <path
       fill="none"
       stroke="#000000"
       stroke-linecap="round"
       stroke-linejoin="round"
       stroke-width="2"
       d="m 12.74,28.24 v -5.907 m 4.181,0 v 5.812"
       id="path18" />
    <path
       fill="none"
       stroke="#000000"
       stroke-linecap="round"
       stroke-linejoin="round"
       stroke-width="2"
       d="M 55.1,43.29 V 36.369"
       id="path19" />
    <path
       fill="none"
       stroke="#000000"
       stroke-linecap="round"
       stroke-linejoin="round"
       stroke-width="2"
       d="m 59.28,51.34 v 6.071 c 0,0.6723 -0.5448,1.217 -1.217,1.217 h -1.748 c -0.672,0 -1.217,-0.5451 -1.217,-1.217 V 51.34"
       id="path20" />
    <path
       fill="none"
       stroke="#000000"
       stroke-linecap="round"
       stroke-linejoin="round"
       stroke-width="2"
       d="m 59.28,36.37 v 5.969"
       id="path21" />
    <path
       fill="none"
       stroke="#000000"
       stroke-linecap="round"
       stroke-linejoin="round"
       stroke-width="2"
       d="m 55.1,28.03 v -5.891 m 4.181,0 v 5.796"
       id="path22" />
    <path
       fill="none"
       stroke="#000000"
       stroke-linecap="round"
       stroke-linejoin="round"
       stroke-width="2"
       d="m 7.95,28.33 h 56.1 v 7.612 H 7.95 Z"
       id="path23" />
    <path
       fill="none"
       stroke="#000000"
       stroke-linecap="round"
       stroke-linejoin="round"
       stroke-width="2"
       d="m 7.95,43.29 h 56.1 v 7.612 H 7.95 Z"
       id="path24" />
    <circle
       cx="14.83"
       cy="17.969999"
       r="4.5939999"
       fill="none"
       stroke="#000000"
       stroke-linecap="round"
       stroke-linejoin="round"
       stroke-width="2"
       id="circle24" />
    <circle
       cx="57.189999"
       cy="17.969999"
       r="4.5939999"
       fill="none"
       stroke="#000000"
       stroke-linecap="round"
       stroke-linejoin="round"
       stroke-width="2"
       id="circle25" />
  </g>
  <g
     id="color-foreground"
     transform="translate(-6.95,-12.372)">
    <circle
       cx="14.835"
       cy="17.966"
       r="4.5939999"
       fill="#f4aa41"
       stroke="#e27022"
       stroke-linecap="round"
       stroke-linejoin="round"
       stroke-width="2"
       id="circle26" />
    <circle
       cx="57.185001"
       cy="17.966"
       r="4.5939999"
       fill="#f4aa41"
       stroke="#e27022"
       stroke-linecap="round"
       stroke-linejoin="round"
       stroke-width="2"
       id="circle27" />
  </g>
</svg>
