<?xml version="1.0" encoding="UTF-8" standalone="no"?>
<svg
   id="emoji"
   viewBox="0 0 64.0047 64"
   version="1.1"
   sodipodi:docname="1f6a2.svg"
   width="64.0047"
   height="64"
   xmlns:inkscape="http://www.inkscape.org/namespaces/inkscape"
   xmlns:sodipodi="http://sodipodi.sourceforge.net/DTD/sodipodi-0.dtd"
   xmlns="http://www.w3.org/2000/svg"
   xmlns:svg="http://www.w3.org/2000/svg">
  <defs
     id="defs16" />
  <sodipodi:namedview
     id="namedview16"
     pagecolor="#ffffff"
     bordercolor="#000000"
     borderopacity="0.25"
     inkscape:showpageshadow="2"
     inkscape:pageopacity="0.0"
     inkscape:pagecheckerboard="0"
     inkscape:deskcolor="#d1d1d1" />
  <g
     id="color"
     transform="translate(-4,-4)">
    <path
       fill="#ea5a47"
       d="M 68,26.0871 H 32.9622 C 32.4308,26.0871 32,26.4781 32,26.9604 v 2.4004 h 36 z"
       id="path1" />
    <path
       fill="#ffffff"
       d="M 68,25.0871 H 46.7416 l 6.1518,-13.0284 c 0.1277,-0.31 0.4055,-0.5086 0.7113,-0.5086 H 68"
       id="path2" />
    <path
       fill="#3f3f3f"
       d="m 32,29.3608 c 0,0 13.4044,6.7981 15.6724,22.2469 0.0637,0.4344 0.4686,0.7673 0.9515,0.7673 H 68 V 29.3608"
       id="path3" />
    <path
       fill="#3f3f3f"
       d="M 63.146,11.5501 V 5.8734 C 63.146,5.391 63.4699,5 63.8695,5 h 2.261 c 0.3996,0 0.7235,0.391 0.7235,0.8734 v 5.6767 z"
       id="path4" />
    <path
       fill="#3f3f3f"
       d="m 32,29.3608 c 0,0 10.4044,6.7981 12.6724,22.2469 0.0637,0.4344 0.4686,0.7673 0.9515,0.7673 H 67"
       id="path5" />
    <path
       fill="#ea5a47"
       d="M 67,25.625 H 32.9622 C 32.4308,25.625 32,26.016 32,26.4984 v 2.4004 h 35"
       id="path6" />
    <path
       fill="none"
       d="M 67,26.0871 H 45.7416 l 7.1518,-14.0284 c 0.1277,-0.31 0.4055,-0.5086 0.7113,-0.5086 H 68"
       id="path7" />
    <line
       x1="68.0047"
       x2="68"
       y1="48.052601"
       y2="68"
       fill="none"
       id="line7" />
    <path
       fill="#92d3f5"
       d="M 68,47 V 68 H 4 V 47 h 1 c 3,0 9,3 15,3 6,0 10,-3 16,-3 6,0 11,3 16,3 5,0 7,-3 15,-3 z"
       id="path8" />
  </g>
  <g
     id="line"
     transform="translate(-4,-4)">
    <path
       fill="none"
       stroke="#000000"
       stroke-linecap="round"
       stroke-linejoin="round"
       stroke-width="2"
       d="M 63.146,11.5501 V 5.8734 C 63.146,5.391 63.4699,5 63.8695,5 h 2.261 c 0.3996,0 0.7235,0.391 0.7235,0.8734 v 5.6767 z"
       id="path9" />
    <line
       x1="53.7229"
       x2="64.377296"
       y1="16.3536"
       y2="16.3536"
       fill="none"
       stroke="#000000"
       stroke-linecap="round"
       stroke-linejoin="round"
       stroke-width="2"
       id="line9" />
    <line
       x1="51.534901"
       x2="64.377296"
       y1="20.447399"
       y2="20.447399"
       fill="none"
       stroke="#000000"
       stroke-linecap="round"
       stroke-linejoin="round"
       stroke-width="2"
       id="line10" />
    <path
       fill="none"
       stroke="#000000"
       stroke-linecap="round"
       stroke-linejoin="round"
       stroke-width="2"
       d="m 32,29.3608 c 0,0 8.8829,5.804 12.0224,18.8735"
       id="path10" />
    <line
       x1="53.7229"
       x2="64.377296"
       y1="16.3536"
       y2="16.3536"
       fill="none"
       stroke="#000000"
       stroke-linecap="round"
       stroke-linejoin="round"
       stroke-width="2"
       id="line11" />
    <line
       x1="51.534901"
       x2="64.377296"
       y1="20.447399"
       y2="20.447399"
       fill="none"
       stroke="#000000"
       stroke-linecap="round"
       stroke-linejoin="round"
       stroke-width="2"
       id="line12" />
    <path
       fill="none"
       stroke="#000000"
       stroke-linecap="round"
       stroke-linejoin="round"
       stroke-width="2"
       d="M 67,25.625 H 32.9622 C 32.4308,25.625 32,26.016 32,26.4984 v 2.4004 h 35"
       id="path12" />
    <path
       fill="none"
       stroke="#000000"
       stroke-linecap="round"
       stroke-linejoin="round"
       stroke-width="2"
       d="M 66,25.625 H 45.7416 l 7.1518,-13.5663 c 0.1277,-0.31 0.4055,-0.5086 0.7113,-0.5086 H 67"
       id="path13" />
    <line
       x1="53.7229"
       x2="64.377296"
       y1="16.3536"
       y2="16.3536"
       fill="none"
       stroke="#000000"
       stroke-linecap="round"
       stroke-linejoin="round"
       stroke-width="2"
       id="line13" />
    <line
       x1="51.534901"
       x2="64.377296"
       y1="20.447399"
       y2="20.447399"
       fill="none"
       stroke="#000000"
       stroke-linecap="round"
       stroke-linejoin="round"
       stroke-width="2"
       id="line14" />
    <line
       x1="53.7229"
       x2="64.377296"
       y1="16.3536"
       y2="16.3536"
       fill="none"
       stroke="#000000"
       stroke-linecap="round"
       stroke-linejoin="round"
       stroke-width="2"
       id="line15" />
    <line
       x1="51.534901"
       x2="64.377296"
       y1="20.447399"
       y2="20.447399"
       fill="none"
       stroke="#000000"
       stroke-linecap="round"
       stroke-linejoin="round"
       stroke-width="2"
       id="line16" />
    <path
       fill="none"
       stroke="#000000"
       stroke-linecap="round"
       stroke-linejoin="round"
       stroke-width="2"
       d="m 5,47 c 3,0 9,3 15,3 6,0 10,-3 16,-3 6,0 11,3 16,3 5,0 7,-3 15,-3"
       id="path16" />
  </g>
</svg>
