<svg xmlns="http://www.w3.org/2000/svg" xmlns:svg="http://www.w3.org/2000/svg" id="emoji" width="64" height="49" version="1.1" viewBox="0 0 64 49"><g id="color" transform="translate(-4,-19)"><polygon id="polygon1" fill="#d0cfce" stroke="none" points="44 39 33 39 6 40.3 12 48 18 50.167 26.833 48.75 36 47 43.167 48.167 52 50 58 48 66 39.7"/><path id="path1" fill="#92d3f5" stroke="none" d="M 67.958,46.958 C 59.958,46.958 57,50 52,50 47,50 42,47 36,47 30,47 26,50 20,50 14,50 7,47 4,47 4,47 4,57.916 4,59.666 4,61.082 5.4189,68 11,68 c 5.6689,0 19.0635,0 24.9795,0 3.083,0 20.1035,0 26.1035,0 5.832,0 5.876,-5.834 5.876,-10.5215 0,-2.666 -0.001,-10.5205 -0.001,-10.5205 z"/><path id="path2" fill="#a57939" stroke="none" d="m 25,49 c 0,0 3.0557,-2.1807 4,-3 2.1367,-1.8535 5,-2 5,-2 l 13,-11 0.75,-0.666 c 0,0 0.916,1.582 0.582,2.249 -0.334,0.667 -6.082,5.167 -6.082,5.167 l -6.334,5.583 0.251,2.084 -9.334,1.333 z"/></g><g id="skin" transform="translate(-4,-19)"><circle id="circle2" cx="35" cy="23" r="3" fill="#c19a65" stroke="#c19a65"/><path id="path3" fill="#c19a65" stroke="#c19a65" d="M 47,33 C 43,32 35.9004,29.7998 32,29 27,28 22,40 22,40 h 8 l 4.5039,-7.791 10.166,2.166"/></g><g id="line" transform="translate(-4,-19)"><polyline id="polyline3" fill="none" stroke="#000" stroke-linecap="round" stroke-linejoin="round" stroke-miterlimit="10" stroke-width="2" points="12 48 6 40.3 33 40"/><circle id="circle3" cx="35" cy="23" r="3" fill="none" stroke="#000" stroke-linecap="round" stroke-linejoin="round" stroke-miterlimit="10" stroke-width="2"/><path id="path4" fill="none" stroke="#000" stroke-linecap="round" stroke-linejoin="round" stroke-miterlimit="10" stroke-width="2" d="M 47,33 C 43,32 35.9004,29.7998 32,29 27,28 22,40 22,40"/><line id="line4" x1="30" x2="34" y1="40" y2="33" fill="none" stroke="#000" stroke-linecap="round" stroke-linejoin="round" stroke-miterlimit="10" stroke-width="2"/><path id="path5" fill="none" stroke="#000" stroke-linecap="round" stroke-linejoin="round" stroke-miterlimit="10" stroke-width="2" d="m 5,47 c 3,0 9,3 15,3 6,0 10,-3 16,-3 6,0 11,3 16,3 5,0 7,-3 15,-3"/><path id="path6" fill="none" stroke="#000" stroke-linecap="round" stroke-linejoin="round" stroke-miterlimit="10" stroke-width="2" d="m 25,49 c 0,0 3.0557,-2.1807 4,-3 2.1367,-1.8535 5,-2 5,-2 L 47,33"/><polyline id="polyline6" fill="none" stroke="#000" stroke-linecap="round" stroke-linejoin="round" stroke-miterlimit="10" stroke-width="2" points="56.977 49 66 39.7 44 40"/></g></svg>