<svg xmlns="http://www.w3.org/2000/svg" xmlns:svg="http://www.w3.org/2000/svg" id="emoji" width="58.1" height="47.256" version="1.1" viewBox="0 0 58.1 47.256"><g id="color" transform="translate(-6.95,-12.372)"><path id="path1" fill="#fff" d="m 15.35,59.08 h -1.779 c -0.6839,0 -1.238,-0.578 -1.238,-1.291 v -34.83 c 0,-0.713 0.5544,-1.291 1.238,-1.291 h 1.779 c 0.6839,0 1.238,0.578 1.238,1.291 v 34.83 c 0,0.713 -0.5545,1.291 -1.238,1.291 z"/><path id="path2" fill="#fff" d="m 58.46,59.08 h -1.779 c -0.6839,0 -1.238,-0.7131 -1.238,-1.593 v -32.97 c 0,-0.8796 0.5544,-1.593 1.238,-1.593 h 1.779 c 0.6839,0 1.238,0.7131 1.238,1.593 v 32.97 c 0,0.8796 -0.5545,1.593 -1.238,1.593 z"/><path id="path3" fill="#fcea2b" d="m 7.45,43.47 h 7.743 L 7.45,51.213 Z"/><path id="path4" fill="#3f3f3f" d="M 15.19,43.47 H 27.53 L 19.787,51.213 7.447,51.1549 Z"/><path id="path5" fill="#fcea2b" d="m 27.48,43.47 h 12.34 l -7.743,7.743 h -12.29 z"/><path id="path6" fill="#3f3f3f" d="m 39.82,43.47 h 12.34 l -7.743,7.743 h -12.34 z"/><path id="path7" fill="#fcea2b" d="m 52.16,43.47 11.89,-0.1839 -7.9181,7.9511 H 44.3676 Z"/><path id="path8" fill="#3f3f3f" d="m 64.0079,43.3319 v 7.612 h -7.612 z"/><path id="path9" fill="#fcea2b" d="m 7.95,28.33 7.646,-0.0337 -7.646,7.646 z"/><path id="path10" fill="#3f3f3f" d="m 15.6,28.3 h 11.94 l -7.695,7.646 H 7.955 Z"/><path id="path11" fill="#fcea2b" d="m 27.48,28.3 h 12.34 l -7.743,7.743 h -12.29 z"/><path id="path12" fill="#3f3f3f" d="m 39.82,28.3 h 12.34 l -7.743,7.743 h -12.34 z"/><path id="path13" fill="#fcea2b" d="m 52.16,28.3 10.9084,-0.0069 -0.015,1.0493 -6.6154,6.6036 -12.02,0.0976 z"/><path id="path14" fill="#3f3f3f" d="m 64.05,28.33 v 7.612 h -7.612 z"/></g><g id="line" transform="translate(-6.95,-12.372)"><path id="path15" fill="none" stroke="#000" stroke-linecap="round" stroke-linejoin="round" stroke-width="2" d="M 12.74,42.72 V 36.372"/><path id="path16" fill="none" stroke="#000" stroke-linecap="round" stroke-linejoin="round" stroke-width="2" d="m 16.92,50.9 v 6.509 c 0,0.6723 -0.5448,1.217 -1.217,1.217 h -1.748 c -0.672,0 -1.217,-0.5451 -1.217,-1.217 v -6.071"/><path id="path17" fill="none" stroke="#000" stroke-linecap="round" stroke-linejoin="round" stroke-width="2" d="m 16.92,36.37 v 6.348"/><path id="path18" fill="none" stroke="#000" stroke-linecap="round" stroke-linejoin="round" stroke-width="2" d="m 12.74,28.24 v -5.907 m 4.181,0 v 5.812"/><path id="path19" fill="none" stroke="#000" stroke-linecap="round" stroke-linejoin="round" stroke-width="2" d="M 55.1,43.29 V 36.369"/><path id="path20" fill="none" stroke="#000" stroke-linecap="round" stroke-linejoin="round" stroke-width="2" d="m 59.28,51.34 v 6.071 c 0,0.6723 -0.5448,1.217 -1.217,1.217 h -1.748 c -0.672,0 -1.217,-0.5451 -1.217,-1.217 V 51.34"/><path id="path21" fill="none" stroke="#000" stroke-linecap="round" stroke-linejoin="round" stroke-width="2" d="m 59.28,36.37 v 5.969"/><path id="path22" fill="none" stroke="#000" stroke-linecap="round" stroke-linejoin="round" stroke-width="2" d="m 55.1,28.03 v -5.891 m 4.181,0 v 5.796"/><path id="path23" fill="none" stroke="#000" stroke-linecap="round" stroke-linejoin="round" stroke-width="2" d="m 7.95,28.33 h 56.1 v 7.612 H 7.95 Z"/><path id="path24" fill="none" stroke="#000" stroke-linecap="round" stroke-linejoin="round" stroke-width="2" d="m 7.95,43.29 h 56.1 v 7.612 H 7.95 Z"/><circle id="circle24" cx="14.83" cy="17.97" r="4.594" fill="none" stroke="#000" stroke-linecap="round" stroke-linejoin="round" stroke-width="2"/><circle id="circle25" cx="57.19" cy="17.97" r="4.594" fill="none" stroke="#000" stroke-linecap="round" stroke-linejoin="round" stroke-width="2"/></g><g id="color-foreground" transform="translate(-6.95,-12.372)"><circle id="circle26" cx="14.835" cy="17.966" r="4.594" fill="#f4aa41" stroke="#e27022" stroke-linecap="round" stroke-linejoin="round" stroke-width="2"/><circle id="circle27" cx="57.185" cy="17.966" r="4.594" fill="#f4aa41" stroke="#e27022" stroke-linecap="round" stroke-linejoin="round" stroke-width="2"/></g></svg>