<svg xmlns="http://www.w3.org/2000/svg" xmlns:svg="http://www.w3.org/2000/svg" id="emoji" width="61.103" height="46.897" version="1.1" viewBox="0 0 61.103 46.897"><g id="skin" transform="translate(-3.7669,-17.9252)"><circle id="circle1" cx="33.505" cy="21.785" r="3" fill="#6a462f"/><path id="path1" fill="#6a462f" d="m 44.804,31.4579 c -3.8131,-0.9532 -10.5813,-3.05 -14.299,-3.813 -4.7664,-0.9533 -9.5327,10.4859 -9.5327,10.4859 h 7.6261 l 4.29,-7.4355 9.7234,2.0972"/></g><g id="color" transform="translate(-3.7669,-17.9252)"><path id="path2" fill="#d0cfce" d="m 55.29,45.757 7.6262,-7.9121 -20.972,-0.6673 H 31.4582 L 5.72,38.4168 l 5.72,7.34 5.72,2.0972 8.388,-1.334 8.77,-1.7159 6.8636,1.144 8.3884,1.7155 z"/><path id="path3" fill="#92d3f5" d="m 64.8227,44.8037 c -7.6261,0 -10.486,2.86 -15.2523,2.86 -4.7663,0 -9.5327,-2.86 -15.2524,-2.86 -5.7197,0 -9.5327,2.86 -15.2523,2.86 -5.7196,0 -12.3925,-2.86 -15.2523,-2.86 V 56.91 c 0,1.3346 1.3346,7.9121 6.6729,7.9121 h 48.7121 c 5.529,0 5.6243,-5.5289 5.6243,-10.0093 z"/><path id="path4" fill="#a57939" d="m 23.8321,46.71 c 0,0 2.9551,-2.0972 3.8131,-2.86 a 8.3129,8.3129 0 0 1 4.7663,-1.9066 L 44.804,31.4579 45.5666,30.7907 c 0,0 0.858,1.5252 0.572,2.0972 -0.286,0.572 -5.8149,4.957 -5.8149,4.957 l -6.0057,5.3383 0.286,2.0018 -8.8654,1.2393 z"/></g><g id="line" transform="translate(-3.7669,-17.9252)"><path id="path5" fill="none" stroke="#000" stroke-linecap="round" stroke-linejoin="round" stroke-width="2" d="M 11.44,45.757 5.72,38.417 31.4583,38.1311"/><path id="path6" fill="none" stroke="#000" stroke-linecap="round" stroke-linejoin="round" stroke-width="2" d="m 4.7669,44.8038 c 2.86,0 8.58,2.86 14.2991,2.86 5.7191,0 9.5327,-2.86 15.2523,-2.86 5.7196,0 10.486,2.86 15.2524,2.86 4.7664,0 6.6729,-2.86 14.299,-2.86"/><path id="path7" fill="none" stroke="#000" stroke-linecap="round" stroke-linejoin="round" stroke-width="2" d="m 23.8323,46.71 c 0,0 2.9552,-2.0972 3.8131,-2.86 a 8.3133,8.3133 0 0 1 4.7664,-1.9066 L 44.8043,31.458"/><path id="path8" fill="none" stroke="#000" stroke-linecap="round" stroke-linejoin="round" stroke-width="2" d="m 54.337,46.71 8.5795,-8.8654 -20.972,0.286"/><circle id="circle8" cx="33.365" cy="21.925" r="3" fill="none" stroke="#000" stroke-linecap="round" stroke-linejoin="round" stroke-width="2"/><path id="path9" fill="none" stroke="#000" stroke-linecap="round" stroke-linejoin="round" stroke-width="2" d="m 44.804,31.4579 c -3.8131,-0.9532 -10.5813,-3.05 -14.299,-3.813 -4.7664,-0.9533 -9.5327,10.4859 -9.5327,10.4859"/><path id="path10" fill="none" stroke="#000" stroke-linecap="round" stroke-linejoin="round" stroke-width="2" d="m 28.5984,38.1308 3.8131,-6.6729"/></g></svg>