<?xml version="1.0" encoding="UTF-8" standalone="no"?>
<svg
   id="emoji"
   viewBox="0 0 52 24"
   version="1.1"
   sodipodi:docname="1f6a5.svg"
   width="52"
   height="24"
   xmlns:inkscape="http://www.inkscape.org/namespaces/inkscape"
   xmlns:sodipodi="http://sodipodi.sourceforge.net/DTD/sodipodi-0.dtd"
   xmlns="http://www.w3.org/2000/svg"
   xmlns:svg="http://www.w3.org/2000/svg">
  <defs
     id="defs9" />
  <sodipodi:namedview
     id="namedview9"
     pagecolor="#ffffff"
     bordercolor="#000000"
     borderopacity="0.25"
     inkscape:showpageshadow="2"
     inkscape:pageopacity="0.0"
     inkscape:pagecheckerboard="0"
     inkscape:deskcolor="#d1d1d1" />
  <g
     id="color"
     transform="translate(-9.91,-23.91)">
    <path
       fill="#d0cfce"
       stroke="none"
       stroke-miterlimit="10"
       d="m 54.09,46.91 h -36 c -3.85,0 -7,-3.15 -7,-7 v -8 c 0,-3.85 3.15,-7 7,-7 h 36 c 3.85,0 7,3.15 7,7 v 8 c 0,3.85 -3.15,7 -7,7 z"
       id="path1" />
    <circle
       cx="21.617701"
       cy="35.91"
       r="5.0001001"
       fill="#b1cc33"
       stroke="none"
       stroke-miterlimit="10"
       id="circle1" />
    <circle
       cx="35.617699"
       cy="35.91"
       r="5.0001001"
       fill="#f4aa41"
       stroke="none"
       stroke-miterlimit="10"
       id="circle2" />
    <circle
       cx="50.617699"
       cy="35.91"
       r="5.0001001"
       fill="#ea5a47"
       stroke="none"
       stroke-miterlimit="10"
       id="circle3" />
  </g>
  <g
     id="hair"
     transform="translate(-9.91,-23.91)" />
  <g
     id="skin"
     transform="translate(-9.91,-23.91)" />
  <g
     id="skin-shadow"
     transform="translate(-9.91,-23.91)" />
  <g
     id="line"
     transform="translate(-9.91,-23.91)">
    <path
       fill="none"
       stroke="#000000"
       stroke-miterlimit="10"
       d="m 54.09,46.91 h -36 c -3.85,0 -7,-3.15 -7,-7 v -8 c 0,-3.85 3.15,-7 7,-7 h 36 c 3.85,0 7,3.15 7,7 v 8 c 0,3.85 -3.15,7 -7,7 z"
       id="path3" />
    <circle
       cx="21.617701"
       cy="35.91"
       r="5.0001001"
       fill="none"
       stroke="#000000"
       stroke-miterlimit="10"
       id="circle4" />
    <circle
       cx="35.617699"
       cy="35.91"
       r="5.0001001"
       fill="none"
       stroke="#000000"
       stroke-miterlimit="10"
       id="circle5" />
    <circle
       cx="50.617699"
       cy="35.91"
       r="5.0001001"
       fill="none"
       stroke="#000000"
       stroke-miterlimit="10"
       id="circle6" />
    <path
       fill="none"
       stroke="#000000"
       stroke-linecap="round"
       stroke-linejoin="round"
       stroke-miterlimit="10"
       stroke-width="2"
       d="m 53.91,46.91 h -36 c -3.85,0 -7,-3.15 -7,-7 v -8 c 0,-3.85 3.15,-7 7,-7 h 36 c 3.85,0 7,3.15 7,7 v 8 c 0,3.85 -3.15,7 -7,7 z"
       id="path6" />
    <circle
       cx="21.4377"
       cy="35.91"
       r="5.0001001"
       fill="none"
       stroke="#000000"
       stroke-linecap="round"
       stroke-linejoin="round"
       stroke-miterlimit="10"
       stroke-width="2"
       id="circle7" />
    <circle
       cx="35.437698"
       cy="35.91"
       r="5.0001001"
       fill="none"
       stroke="#000000"
       stroke-linecap="round"
       stroke-linejoin="round"
       stroke-miterlimit="10"
       stroke-width="2"
       id="circle8" />
    <circle
       cx="50.437698"
       cy="35.91"
       r="5.0001001"
       fill="none"
       stroke="#000000"
       stroke-linecap="round"
       stroke-linejoin="round"
       stroke-miterlimit="10"
       stroke-width="2"
       id="circle9" />
  </g>
</svg>
