<?xml version="1.0" encoding="UTF-8" standalone="no"?>
<svg
   id="emoji"
   viewBox="0 0 54.400272 36.200001"
   version="1.1"
   sodipodi:docname="1f6b2.svg"
   width="54.400272"
   height="36.200001"
   xmlns:inkscape="http://www.inkscape.org/namespaces/inkscape"
   xmlns:sodipodi="http://sodipodi.sourceforge.net/DTD/sodipodi-0.dtd"
   xmlns="http://www.w3.org/2000/svg"
   xmlns:svg="http://www.w3.org/2000/svg">
  <defs
     id="defs16" />
  <sodipodi:namedview
     id="namedview16"
     pagecolor="#ffffff"
     bordercolor="#000000"
     borderopacity="0.25"
     inkscape:showpageshadow="2"
     inkscape:pageopacity="0.0"
     inkscape:pagecheckerboard="0"
     inkscape:deskcolor="#d1d1d1" />
  <g
     id="line"
     transform="translate(-9.6,-21)">
    <g
       id="g4">
      <path
         d="m 31,45 c -0.5209,-0.0314 -0.9686,0.3653 -1,0.8862 -0.0023,0.0379 -0.0023,0.0759 0,0.1138 0,5.081 -4.119,9.2 -9.2,9.2 -5.081,0 -9.2,-4.119 -9.2,-9.2 0,-5.081 4.119,-9.2 9.2,-9.2 v 0 l 0.2,-2 H 20.8 C 14.6144,34.8 9.6,39.8144 9.6,46 9.6,52.1856 14.6144,57.2 20.8,57.2 26.9856,57.2 32,52.1856 32,46 32.0314,45.4791 31.6347,45.0314 31.1138,45 31.0759,44.9977 31.0379,44.9977 31,45 Z"
         id="path1" />
      <path
         d="m 52.8,34.8 c -1.3293,0.0205 -2.6465,0.2569 -3.9,0.7 l 0.9,1.8 c 0.9703,-0.3117 1.981,-0.4802 3,-0.5 5.0808,-0.0477 9.2383,4.0324 9.286,9.1132 0.0477,5.0808 -4.0324,9.2383 -9.1132,9.286 C 48.053,55.2454 43.9677,51.4127 43.7,46.5 l -2,-0.1 c 0.2461,6.1555 5.4356,10.9461 11.5912,10.7 6.1555,-0.2461 10.9461,-5.4356 10.7,-11.5912 C 63.7513,39.5088 58.8047,34.7754 52.8,34.8 Z"
         id="path2" />
      <path
         d="m 48,38.2 -0.9,-1.8 c -2.8634,1.7037 -4.8094,4.6043 -5.3,7.9 l 2,0.1 c 0.478,-2.5604 1.9995,-4.8065 4.2,-6.2 z"
         id="path3" />
      <line
         x1="23"
         x2="27"
         y1="22"
         y2="22"
         fill="none"
         stroke="#000000"
         stroke-linecap="round"
         stroke-linejoin="round"
         stroke-width="2"
         id="line3" />
      <line
         x1="42"
         x2="48"
         y1="25.700001"
         y2="25.700001"
         fill="none"
         stroke="#000000"
         stroke-linecap="round"
         stroke-linejoin="round"
         stroke-width="2"
         id="line4" />
    </g>
    <g
       id="g10">
      <line
         x1="21.1"
         x2="22.799999"
         y1="46"
         y2="24.6"
         fill="none"
         stroke="#000000"
         stroke-linecap="round"
         stroke-linejoin="round"
         stroke-width="2"
         id="line5" />
      <line
         x1="36"
         x2="23"
         y1="45"
         y2="30"
         fill="none"
         stroke="#000000"
         stroke-linecap="round"
         stroke-linejoin="round"
         stroke-width="2"
         id="line6" />
      <line
         x1="45"
         x2="53"
         y1="30"
         y2="46"
         fill="none"
         stroke="#000000"
         stroke-linecap="round"
         stroke-linejoin="round"
         stroke-width="2"
         id="line7" />
      <line
         x1="23"
         x2="44"
         y1="30"
         y2="30"
         fill="none"
         stroke="#000000"
         stroke-linecap="round"
         stroke-linejoin="round"
         stroke-width="2"
         id="line8" />
      <line
         x1="46"
         x2="36"
         y1="28.4"
         y2="45"
         fill="none"
         stroke="#000000"
         stroke-linecap="round"
         stroke-linejoin="round"
         stroke-width="2"
         id="line9" />
      <line
         x1="36"
         x2="53"
         y1="45"
         y2="46"
         fill="none"
         stroke="#000000"
         stroke-linecap="round"
         stroke-linejoin="round"
         stroke-width="2"
         id="line10" />
    </g>
  </g>
  <g
     id="color"
     transform="translate(-9.6,-21)">
    <circle
       cx="53.262299"
       cy="45.9184"
       r="8.5632"
       fill="#ffffff"
       id="circle10" />
    <circle
       cx="20.805901"
       cy="46.1306"
       r="8.5632"
       fill="#ffffff"
       id="circle11" />
    <polygon
       fill="#ffffff"
       points="35.7758,39.5561 30.9117,33.2459 38.5365,33.3774 "
       id="polygon11" />
  </g>
  <g
     id="color-foreground"
     transform="translate(-9.6,-21)">
    <line
       x1="21.1"
       x2="22.799999"
       y1="46"
       y2="24.6"
       fill="none"
       stroke="#ea5a47"
       stroke-linecap="round"
       stroke-linejoin="round"
       stroke-width="2.1"
       id="line11" />
    <line
       x1="36"
       x2="23"
       y1="45"
       y2="30"
       fill="none"
       stroke="#ea5a47"
       stroke-linecap="round"
       stroke-linejoin="round"
       stroke-width="2.1"
       id="line12" />
    <line
       x1="45"
       x2="53"
       y1="30"
       y2="46"
       fill="none"
       stroke="#ea5a47"
       stroke-linecap="round"
       stroke-linejoin="round"
       stroke-width="2.1"
       id="line13" />
    <line
       x1="23"
       x2="44"
       y1="30"
       y2="30"
       fill="none"
       stroke="#ea5a47"
       stroke-linecap="round"
       stroke-linejoin="round"
       stroke-width="2.1"
       id="line14" />
    <line
       x1="46"
       x2="36"
       y1="28.4"
       y2="45"
       fill="none"
       stroke="#ea5a47"
       stroke-linecap="round"
       stroke-linejoin="round"
       stroke-width="2.1"
       id="line15" />
    <line
       x1="36"
       x2="53"
       y1="45"
       y2="46"
       fill="none"
       stroke="#ea5a47"
       stroke-linecap="round"
       stroke-linejoin="round"
       stroke-width="2.1"
       id="line16" />
  </g>
</svg>
