<?xml version="1.0" encoding="UTF-8" standalone="no"?>
<svg
   id="emoji"
   viewBox="0 0 52 52"
   version="1.1"
   sodipodi:docname="1f6b0.svg"
   width="52"
   height="52"
   xmlns:inkscape="http://www.inkscape.org/namespaces/inkscape"
   xmlns:sodipodi="http://sodipodi.sourceforge.net/DTD/sodipodi-0.dtd"
   xmlns="http://www.w3.org/2000/svg"
   xmlns:svg="http://www.w3.org/2000/svg">
  <defs
     id="defs6" />
  <sodipodi:namedview
     id="namedview6"
     pagecolor="#ffffff"
     bordercolor="#000000"
     borderopacity="0.25"
     inkscape:showpageshadow="2"
     inkscape:pageopacity="0.0"
     inkscape:pagecheckerboard="0"
     inkscape:deskcolor="#d1d1d1" />
  <g
     id="color"
     transform="translate(-10,-10.0208)">
    <path
       fill="#61b2e4"
       stroke="none"
       stroke-linecap="round"
       stroke-linejoin="round"
       stroke-miterlimit="10"
       stroke-width="2"
       d="M 60,61.0208 H 12 c -0.5523,0 -1,-0.4477 -1,-1 v -48 c 0,-0.5523 0.4477,-1 1,-1 h 48 c 0.5523,0 1,0.4477 1,1 v 48 c 0,0.5523 -0.4477,1 -1,1 z"
       id="path1" />
    <path
       fill="#ffffff"
       stroke="none"
       d="m 26.4479,45.3958 2.1368,10.3194 9.6236,0.0556 2.1146,-10.1667 c 0,0 -7,-4.375 -14.0833,-0.2083"
       id="path2" />
    <path
       fill="#ffffff"
       stroke="none"
       stroke-linecap="round"
       stroke-linejoin="round"
       stroke-miterlimit="10"
       stroke-width="2"
       d="m 58.5,24.6808 v 4.87 c 0,0.56 -0.45,1 -1,1 H 40.62 c -2.84,0 -3.51,2.46 -3.66,3.83 -0.06,0.5 -0.48,0.88 -0.99,0.88 h -5.02 c -0.55,0 -0.99,-0.43 -1,-0.9801 -0.0101,-2.7999 0.82,-10.5999 10.6301,-10.5999 H 45.75 v -4.45 H 41 v -3.21 h 13.25 v 3.21 H 49.5 v 4.45 h 8 c 0.55,0 1,0.45 1,1 z"
       id="path3" />
  </g>
  <g
     id="hair"
     transform="translate(-10,-10.0208)" />
  <g
     id="skin"
     transform="translate(-10,-10.0208)" />
  <g
     id="skin-shadow"
     transform="translate(-10,-10.0208)" />
  <g
     id="line"
     transform="translate(-10,-10.0208)">
    <path
       fill="none"
       stroke="#000000"
       stroke-linecap="round"
       stroke-linejoin="round"
       stroke-miterlimit="10"
       stroke-width="2"
       d="M 60,61.0208 H 12 c -0.5523,0 -1,-0.4477 -1,-1 v -48 c 0,-0.5523 0.4477,-1 1,-1 h 48 c 0.5523,0 1,0.4477 1,1 v 48 c 0,0.5523 -0.4477,1 -1,1 z"
       id="path4" />
    <polyline
       fill="none"
       stroke="#000000"
       stroke-linecap="round"
       stroke-linejoin="round"
       stroke-miterlimit="10"
       stroke-width="2"
       points="24.3333,34.8184 28.2619,55.7708 38.7381,55.7708 42.6667,34.8184"
       id="polyline4" />
    <path
       fill="none"
       stroke="#000000"
       stroke-linecap="round"
       stroke-linejoin="round"
       stroke-miterlimit="10"
       stroke-width="2"
       d="m 26.7336,45.0446 c 0,0 6.5477,-2.619 13.0953,0"
       id="path5" />
    <path
       fill="none"
       stroke="#000000"
       stroke-linecap="round"
       stroke-linejoin="round"
       stroke-miterlimit="10"
       stroke-width="2"
       d="m 58.5,24.6808 v 4.87 c 0,0.56 -0.45,1 -1,1 H 40.62 c -2.84,0 -3.51,2.46 -3.66,3.83 -0.06,0.5 -0.48,0.88 -0.99,0.88 h -5.02 c -0.55,0 -0.99,-0.43 -1,-0.9801 -0.0101,-2.7999 0.82,-10.5999 10.6301,-10.5999 H 45.75 v -4.45 H 41 v -3.21 h 13.25 v 3.21 H 49.5 v 4.45 h 8 c 0.55,0 1,0.45 1,1 z"
       id="path6" />
  </g>
</svg>
