<?xml version="1.0" encoding="UTF-8" standalone="no"?>
<svg
   id="emoji"
   viewBox="0 0 21.385303 58.103001"
   version="1.1"
   sodipodi:docname="1f6b6-1f3fb-200d-2642-fe0f.svg"
   width="21.385303"
   height="58.103001"
   xmlns:inkscape="http://www.inkscape.org/namespaces/inkscape"
   xmlns:sodipodi="http://sodipodi.sourceforge.net/DTD/sodipodi-0.dtd"
   xmlns="http://www.w3.org/2000/svg"
   xmlns:svg="http://www.w3.org/2000/svg">
  <defs
     id="defs4" />
  <sodipodi:namedview
     id="namedview4"
     pagecolor="#ffffff"
     bordercolor="#000000"
     borderopacity="0.25"
     inkscape:showpageshadow="2"
     inkscape:pageopacity="0.0"
     inkscape:pagecheckerboard="0"
     inkscape:deskcolor="#d1d1d1" />
  <g
     id="color"
     transform="translate(-25.311578,-6.951)" />
  <g
     id="skin"
     transform="translate(-25.311578,-6.951)">
    <circle
       cx="34.369999"
       cy="10.73"
       r="3"
       fill="#fadcbc"
       id="circle1" />
    <path
       fill="#fadcbc"
       d="m 31.19,19.48 -4.872,42.77 1.689,2.021 2.016,-2.205 3.646,-15.09 8.79,14.17 3.414,-0.8954 -6.826,-14.91 -0.7835,-26.22 -5.001,-2.252 z"
       id="path1" />
  </g>
  <g
     id="line"
     transform="translate(-25.311578,-6.951)">
    <ellipse
       cx="34.439999"
       cy="10.67"
       rx="2.7019999"
       ry="2.7190001"
       fill="none"
       stroke="#000000"
       stroke-miterlimit="10"
       stroke-width="2"
       id="ellipse1" />
    <path
       fill="none"
       stroke="#000000"
       stroke-linecap="round"
       stroke-linejoin="round"
       stroke-miterlimit="10"
       stroke-width="2"
       d="m 26.32,62.25 c -0.09673,0.992 0.5172,1.804 1.365,1.804 0.8479,0 1.756,-0.7868 2.016,-1.749 l 4.941,-18.23 c 0.2604,-0.9619 0.9394,-2.417 1.508,-3.233 l 1.981,-2.845 c 0.5682,-0.8159 0.9939,-2.299 0.9464,-3.295 l -0.4498,-9.289 -0.2873,-4.827 c -0.1187,-1.99 -1.837,-3.656 -3.819,-3.656 h -0.04666 c -1.982,0 -3.783,1.659 -4.005,3.64 l -0.4987,4.506 z"
       id="path2" />
    <path
       fill="none"
       stroke="#000000"
       stroke-linecap="round"
       stroke-linejoin="round"
       stroke-miterlimit="10"
       stroke-width="2"
       d="m 38.2,37.9 1.64,10.44 c 0.1539,0.985 0.7019,2.488 1.216,3.339 l 4.345,7.196 c 0.5137,0.8514 0.3272,1.957 -0.416,2.455 -0.7432,0.498 -1.832,0.2505 -2.421,-0.5522 l -4.745,-6.466 c -0.5884,-0.8027 -1.364,-2.219 -1.724,-3.147 l -1.984,-5.123"
       id="path3" />
    <path
       fill="none"
       stroke="#000000"
       stroke-linecap="round"
       stroke-linejoin="round"
       stroke-miterlimit="10"
       stroke-width="2"
       d="m 34.62,21.46 0.04927,5.664 c 0.0087,0.9969 -0.1768,2.604 -0.4117,3.573 l -2.562,10.55"
       id="path4" />
  </g>
</svg>
