<svg xmlns="http://www.w3.org/2000/svg" xmlns:svg="http://www.w3.org/2000/svg" id="emoji" width="58.677" height="60.848" version="1.1" viewBox="0 0 58.677 60.848"><g id="skin" transform="translate(-4.5317004,-4.1524)"><circle id="circle1" cx="45.532" cy="8.013" r="2.999" fill="#fcea2b"/><path id="path1" fill="#fcea2b" d="m 45.4415,14.8705 3.3818,-0.6646 1.65,1.9544 3.7617,12.5246 -3.1758,2.6541 -3.0834,1.361 -6.614,8.887 -5.33,4.7839 -1.4442,-2.6046 3.2461,-6.0006 -0.966,-7.5311 1.2258,-2.8987 8.6932,-2.49 -1.22,-6.8035"/></g><g id="color" transform="translate(-4.5317004,-4.1524)"><path id="path2" fill="#d0cfce" stroke="#d0cfce" stroke-linejoin="round" stroke-width="2.32" d="m 60.2377,63.7816 c -2.751,0 -6.8155,-0.153 -6.8155,-0.153 L 37.7887,61.4223 22.7923,57.9774 5.7149,49.1993 l -0.0232,-5.02 1.723,-0.7064 2.3324,1.625 4.6334,4.1579 4.87,1.4494 9.3431,4.7737 5.1819,-1.1965 7.3514,1.414 10.1588,5.2013 5.22,-0.1261"/></g><g id="line" transform="translate(-4.5317004,-4.1524)"><path id="path3" fill="none" stroke="#000" stroke-linecap="round" stroke-linejoin="round" stroke-width="2" d="M 51.5248,60.693 56.5062,60.5715 60.1722,64"/><path id="path4" fill="none" stroke="#000" stroke-linecap="round" stroke-linejoin="round" stroke-width="2" d="m 22.9708,52.3383 6.2039,2.8146 4.7953,-1.0571 5.2653,1.0212"/><path id="path5" fill="none" stroke="#000" stroke-linecap="round" stroke-linejoin="round" stroke-width="2" d="m 5.609,43.9473 1.7866,-0.7215 2.949,2.1407"/><path id="path6" fill="none" stroke="#000" stroke-linecap="round" stroke-linejoin="round" stroke-width="2" d="m 21.6878,36.3682 14.304,-16.6914 2.9446,2.11"/><circle id="circle6" cx="21.599" cy="36.334" r="9.723" fill="none" stroke="#000" stroke-miterlimit="10" stroke-width="2"/><circle id="circle7" cx="52.485" cy="48.247" r="9.723" fill="none" stroke="#000" stroke-miterlimit="10" stroke-width="2"/><circle id="circle8" cx="45.393" cy="8.152" r="3" fill="none" stroke="#000" stroke-miterlimit="10" stroke-width="2"/><path id="path8" fill="none" stroke="#000" stroke-linecap="round" stroke-linejoin="round" stroke-width="2" d="m 38.4586,20.5583 2.5119,-0.5473 a 13.2985,13.2985 0 0 0 3.7966,-1.2442 c 0,0 0.4293,-2.64 0.6235,-3.5021 a 0.8013,0.8013 0 0 1 0.423,-0.679 3.1211,3.1211 0 0 1 3.01,-0.38 c 1.3024,0.5516 1.9216,2.389 2.16,2.9884 a 63.0047,63.0047 0 0 1 3.1264,9.7041 4.1364,4.1364 0 0 1 -1.33,3.1654 l -0.1578,0.1433 a 5.8749,5.8749 0 0 1 -3.35,1.2575 l -5.7155,0.2384 a 1.935,1.935 0 0 0 -1.8735,1.932 l 0.1061,6.5843 A 2.2848,2.2848 0 0 1 40.2025,42.4667 1.73,1.73 0 0 1 38.256,40.8943 L 37.1705,32.09 a 8.651,8.651 0 0 1 0.3714,-3.3322 3.6663,3.6663 0 0 1 2.4413,-1.8141 l 5.0877,-0.9929 c 1.0067,-0.2232 2.4916,-1.7072 2.316,-2.8626"/><path id="path9" fill="none" stroke="#000" stroke-miterlimit="10" stroke-width="2" d="m 40.2029,42.4667 -1.9568,2.4109 a 2.6608,2.6608 0 0 1 -2.7878,0.8619 1.6222,1.6222 0 0 1 -0.7331,-2.3289 l 3.1082,-5.6451"/><path id="path10" fill="none" stroke="#000" stroke-miterlimit="10" stroke-width="2" d="M 48.9715,31.45 41.81,40.4313"/></g></svg>