<svg xmlns="http://www.w3.org/2000/svg" xmlns:svg="http://www.w3.org/2000/svg" id="emoji" width="54.332" height="56.072" version="1.1" viewBox="0 0 54.332 56.072"><g id="skin" transform="translate(-8.9179993,-7.0938001)"><circle id="circle1" cx="34.386" cy="11.063" r="2.969" fill="#fcea2b" stroke="none"/><polyline id="polyline1" fill="#fcea2b" stroke="none" points="34.386 20.925 36.417 18 40.25 18.084 46.457 32.234 44.417 36 41.89 38.514 38.77 49.668 35.364 56.418 32.96 54.381 33.879 47.303 30.108 40.326 30.205 37 38.25 32 35.364 24.5"/></g><g id="line" transform="translate(-8.9179993,-7.0938001)"><circle id="circle2" cx="34.386" cy="11.063" r="2.969" fill="none" stroke="#000" stroke-miterlimit="10" stroke-width="2"/><path id="path2" fill="none" stroke="#000" stroke-linecap="round" stroke-linejoin="round" stroke-miterlimit="10" stroke-width="2" d="m 26.333,28.083 4.2705,-2.9473 c 0.9053,-0.6245 2.1602,-1.875 2.7871,-2.7783 l 1.8858,-2.7148 c 0.6269,-0.9033 2.0029,-1.6236 3.0576,-1.6006 1.0537,0.0229 2.2773,0.8662 2.7197,1.8735 l 4.5996,10.4868 c 0.4424,1.0079 0.375,2.6231 -0.1494,3.5909 l -0.1338,0.248 c -0.5244,0.9678 -1.7803,2.1143 -2.79,2.5498 l -5.4922,2.3633 c -1.0098,0.4355 -1.4922,1.6221 -1.0713,2.6387 l 2.6348,6.3593 c 0.4209,1.0166 0.0908,2.2979 -0.7344,2.8477 -0.8252,0.5498 -1.9277,0.208 -2.4512,-0.7598 l -4.4062,-8.1543 c -0.5235,-0.9677 -0.9297,-2.5078 -0.9033,-3.4228 0.0273,-0.9151 0.8134,-2.1377 1.747,-2.7188 l 4.6485,-2.8886 c 0.9336,-0.5811 1.4795,-1.9287 1.2128,-2.9961 L 36.25,24"/><circle id="circle3" cx="20.084" cy="52" r="10.166" fill="none" stroke="#000" stroke-miterlimit="10" stroke-width="2"/><circle id="circle4" cx="52.084" cy="52" r="10.166" fill="none" stroke="#000" stroke-miterlimit="10" stroke-width="2"/><polyline id="polyline4" fill="none" stroke="#000" stroke-linecap="round" stroke-linejoin="round" stroke-miterlimit="10" stroke-width="2" points="20.25 52 22.25 28 26 28"/><path id="path4" fill="none" stroke="#000" stroke-miterlimit="10" stroke-width="2" d="m 37.9785,50.959 -0.9844,3.1328 C 36.6641,55.1416 35.5742,56 34.5723,56 c -1.002,0 -1.7071,-0.8926 -1.5655,-1.9834 l 0.8692,-6.7178"/><line id="line4" x1="42.407" x2="38.77" y1="36.865" y2="48.439" fill="none" stroke="#000" stroke-miterlimit="10" stroke-width="2"/></g></svg>