<svg xmlns="http://www.w3.org/2000/svg" xmlns:svg="http://www.w3.org/2000/svg" id="emoji" width="52" height="52" version="1.1" viewBox="0 0 52 52"><g id="color" transform="translate(-10,-10)"><path id="path1" fill="#61b2e4" stroke-linecap="round" stroke-linejoin="round" stroke-miterlimit="10" stroke-width="2" d="M 60,61 H 12 c -0.5523,0 -1,-0.4477 -1,-1 V 12 c 0,-0.5523 0.4477,-1 1,-1 h 48 c 0.5523,0 1,0.4477 1,1 v 48 c 0,0.5523 -0.4477,1 -1,1 z"/><path id="path2" fill="#fff" d="m 43.2,40.83 -0.6336,-15.2 c -0.0917,-1.839 -2.366,-3.982 -4.166,-4 h -4.8 c -1.8,0.0175 -4.075,2.161 -4.166,4 l -0.6336,15.2 c -0.0047,0.1041 0.6157,0.6698 0.5739,0.7648 l 2.524,-1.98 -0.7458,17.69 c -0.026,0.252 0.2117,0.5213 0.3655,0.72 0.0303,0.0387 0.0737,0.0644 0.1216,0.0721 0.1712,0 0.5256,-0.3422 0.5888,-0.9004 l 2.034,-18.03 c 0.0429,-0.3697 0.1378,-0.7311 0.2816,-1.073 l 0.7872,-0.4984 h 1.3 l 0.5796,0.6441 c 0.123,0.3151 0.2828,0.6169 0.3223,0.9538 l 2.319,18 c 0.0632,0.5591 0.4168,0.9004 0.588,0.9004 0.0479,-0.0077 0.0912,-0.0333 0.1216,-0.072 0.1539,-0.1987 0.2257,-0.451 0.2,-0.7031 l -0.5709,-17.71 2.401,1.945 c -0.058,-0.1074 0.6151,-0.6073 0.6094,-0.7299 z"/><circle id="circle2" cx="36" cy="16.08" r="2.375" fill="#fff"/></g><g id="line" transform="translate(-10,-10)"><path id="path3" fill="none" stroke="#000" stroke-linecap="round" stroke-linejoin="round" stroke-miterlimit="10" stroke-width="2" d="M 60,61 H 12 c -0.5523,0 -1,-0.4477 -1,-1 V 12 c 0,-0.5523 0.4477,-1 1,-1 h 48 c 0.5523,0 1,0.4477 1,1 v 48 c 0,0.5523 -0.4477,1 -1,1 z"/><circle id="circle3" cx="36" cy="16.01" r="2.375" fill="none" stroke="#000" stroke-miterlimit="10" stroke-width="2"/><path id="path4" fill="none" stroke="#000" stroke-linecap="round" stroke-linejoin="round" stroke-width="2" d="m 40,26.36 1.52,30.4 c 0.044,0.88 -0.46,1.6 -1.12,1.6 -0.7812,-0.1321 -1.36,-0.7976 -1.383,-1.59 L 36.986,39.15 c -0.1008,-0.8744 -0.5432,-1.59 -0.9832,-1.59 -0.44,0 -0.88,0.7152 -0.9832,1.59 l -2.034,17.62 c -0.0229,0.792 -0.602,1.458 -1.383,1.59 -0.66,0 -1.164,-0.72 -1.12,-1.6 l 1.52,-30.4"/><path id="path5" fill="none" stroke="#000" stroke-linecap="round" stroke-linejoin="round" stroke-width="2" d="m 43.2,40.76 -0.6336,-15.2 c -0.1156,-2.224 -1.94,-3.975 -4.166,-4 h -4.8 c -2.227,0.0249 -4.051,1.776 -4.166,4 l -0.6336,15.2"/></g></svg>