<svg xmlns="http://www.w3.org/2000/svg" xmlns:svg="http://www.w3.org/2000/svg" id="emoji" width="51.952" height="53.712" version="1.1" viewBox="0 0 51.952 53.712"><g id="skin" transform="translate(-8.4379005,-6.5812998)"><circle id="circle1" cx="32.793" cy="10.581" r="2.86" fill="#a57939"/><path id="path1" fill="#a57939" d="m 32.7928,19.9234 1.9066,-2.7645 3.6224,0.0953 6.0056,13.4411 -2.0019,3.6225 -2.3832,2.3831 -2.9551,10.6767 -3.2411,6.3869 -2.2879,-1.9066 0.858,-6.7682 -3.6225,-6.6729 0.0954,-3.1458 7.6261,-4.7663 -2.6691,-7.15"/></g><g id="line" transform="translate(-8.4379005,-6.5812998)"><circle id="circle2" cx="19.161" cy="49.57" r="9.723" fill="none" stroke="#000" stroke-miterlimit="10" stroke-width="2"/><circle id="circle3" cx="49.666" cy="49.57" r="9.723" fill="none" stroke="#000" stroke-miterlimit="10" stroke-width="2"/><path id="path3" fill="none" stroke="#000" stroke-linecap="round" stroke-linejoin="round" stroke-width="2" d="m 19.2566,49.57 1.9066,-22.8785 h 3.6224"/><circle id="circle4" cx="32.793" cy="10.581" r="3" fill="none" stroke="#000" stroke-miterlimit="10" stroke-width="2"/><path id="path4" fill="none" stroke="#000" stroke-linecap="round" stroke-linejoin="round" stroke-width="2" d="M 25.0713,26.7869 29.17,24.0224 a 11.8183,11.8183 0 0 0 2.67,-2.6691 l 1.8113,-2.5739 a 3.9415,3.9415 0 0 1 2.9551,-1.5252 3.0555,3.0555 0 0 1 2.5736,1.8112 l 4.3851,10.0094 a 4.7412,4.7412 0 0 1 -0.0954,3.4317 l -0.0953,0.1907 A 5.875,5.875 0 0 1 40.705,35.08 l -5.243,2.2878 a 1.9349,1.9349 0 0 0 -1.0486,2.4785 l 2.4785,6.101 a 2.2847,2.2847 0 0 1 -0.6673,2.6691 1.73,1.73 0 0 1 -2.3832,-0.7626 L 29.647,40.0374 a 8.65,8.65 0 0 1 -0.8579,-3.2411 3.6664,3.6664 0 0 1 1.62,-2.5739 l 4.3851,-2.7645 a 2.7844,2.7844 0 0 0 1.1439,-2.86 l -1.43,-5.72"/><path id="path5" fill="none" stroke="#000" stroke-miterlimit="10" stroke-width="2" d="m 36.2246,48.6168 -0.9533,2.9552 a 2.6607,2.6607 0 0 1 -2.2878,1.8112 1.6224,1.6224 0 0 1 -1.5253,-1.9066 l 0.858,-6.3869"/><path id="path6" fill="none" stroke="#000" stroke-miterlimit="10" stroke-width="2" d="M 40.419,35.1757 36.9872,46.1383"/></g></svg>