<svg xmlns="http://www.w3.org/2000/svg" xmlns:svg="http://www.w3.org/2000/svg" id="emoji" width="42.313" height="48.51" version="1.1" viewBox="0 0 42.313 48.51"><g id="color" transform="translate(-14.653,-11.875)"><line id="line1" x1="34.617" x2="43.91" y1="59.349" y2="59.349" fill="#d0cfce" stroke="#d0cfce" stroke-linecap="round" stroke-linejoin="round" stroke-width="2"/><line id="line2" x1="35.991" x2="41.894" y1="30.055" y2="30.055" fill="none" stroke="#9b9b9a" stroke-linecap="round" stroke-linejoin="round" stroke-width="2"/><line id="line3" x1="15.653" x2="15.653" y1="30.788" y2="35.627" fill="#d0cfce" stroke="#9b9b9a" stroke-linecap="round" stroke-linejoin="round" stroke-width="2"/><rect id="rect3" width="11.319" height="28.277" x="35.264" y="31.053" fill="#d0cfce"/><path id="path3" fill="#d0cfce" stroke="#d0cfce" stroke-linejoin="round" stroke-width="2" d="m 42.0698,59.2955 h 6.9469 C 46.3266,50.0316 47.2341,41.907 47.2341,41.907 c 0,0 0.1739,-4.8033 3.4783,-5.8033 0,0 3.7391,-1.087 5,-1.8261 V 16.893 H 42.1083 v 14.1367 z"/><path id="path4" fill="#9b9b9a" d="m 15.5848,36 c -0.3215,-5.6425 0.6741,-5.1006 0.6741,-5.1006 l 26.8505,-0.04 -0.0014,3.0626 c -5e-4,1.1479 -0.5209,2.0779 -1.1625,2.0779 H 15.5848 Z"/><path id="path5" fill="#d0cfce" d="m 15.661,35.5399 c 0,0 -0.201,5.0192 4.9803,8.9725 l 2.9011,1.7458 c 0,0 -0.8331,7.4562 -0.9581,11.4135 0,0 0.0723,1.5872 3.2907,1.7079 h 9.6223 c 0,0 1.9343,0.0514 2.4769,-1.4407 V 46.0925 c 0,0 2.8109,-2.3107 3.4363,-3.3459 0,0 2.8044,-3.9765 1.6135,-7.0315 0,0 -0.93,-0.1194 -4.1375,-0.1263 L 20.0704,35.5487 Z"/></g><g id="line" transform="translate(-14.653,-11.875)"><path id="path6" fill="none" stroke="#000" stroke-linecap="round" stroke-linejoin="round" stroke-width="2" d="m 15.661,35.5399 c 0,0 -0.201,5.0192 4.9803,8.9725 l 2.9011,1.7458 c 0,0 -0.9857,7.4544 -0.9581,11.4135 0.0065,0.9269 0.0723,1.5872 3.2907,1.7079 h 9.6223 c 0,0 2.4297,0.1463 2.4769,-1.4407 0.0894,-3.0038 0,-11.8463 0,-11.8463 0,0 2.8109,-2.3107 3.4363,-3.3459 0,0 2.8044,-3.9765 1.6135,-7.0315 0,0 -0.93,-0.1194 -4.1375,-0.1263 L 20.0704,35.5488 Z"/><path id="path7" fill="none" stroke="#000" stroke-linecap="round" stroke-linejoin="round" stroke-width="2" d="M 38.1354,30.0615 H 16.4951 c 0,0 -0.9323,0.0764 -0.8214,1.6588"/><path id="path8" fill="none" stroke="#000" stroke-linecap="round" stroke-linejoin="round" stroke-width="2" d="m 42.0698,59.2955 h 6.9469 C 46.3266,50.0316 47.2341,41.907 47.2341,41.907 c 0,0 0.1739,-4.8033 3.4783,-5.8033 0,0 3.7391,-1.087 5,-1.8261 V 16.893 H 42.1083 v 14.1367"/><line id="line8" x1="42" x2="55.965" y1="12.875" y2="12.875" fill="none" stroke="#000" stroke-linecap="round" stroke-linejoin="round" stroke-width="2"/></g></svg>