<svg xmlns="http://www.w3.org/2000/svg" xmlns:svg="http://www.w3.org/2000/svg" id="emoji" width="52" height="52" version="1.1" viewBox="0 0 52 52"><g id="color" transform="translate(-9.92,-10)"><path id="path1" fill="#61b2e4" stroke-linecap="round" stroke-linejoin="round" stroke-miterlimit="10" stroke-width="2" d="m 59.92,61 h -48 c -0.5523,0 -1,-0.4477 -1,-1 V 12 c 0,-0.5523 0.4477,-1 1,-1 h 48 c 0.5523,0 1,0.4477 1,1 v 48 c 0,0.5523 -0.4477,1 -1,1 z"/><path id="path2" fill="#fff" d="M 52.9,40.76 52.2591,25.45 c -0.0917,-1.839 -1.369,-3.742 -3.169,-3.759 l -6.159,-0.1083 c -1.8,0.0175 -3.688,1.917 -3.78,3.756 L 38.5,40.7587 c -0.0047,0.1041 0.4262,0.8047 0.3844,0.8997 l 2.713,-2.115 -0.7458,17.69 c -0.026,0.252 0.2117,0.5213 0.3655,0.72 0.0304,0.0387 0.0737,0.0644 0.1216,0.0721 0.1712,0 0.5256,-0.3422 0.5888,-0.9004 l 2.034,-18.03 3.271,0.0264 2.319,18 c 0.0632,0.5591 0.4168,0.9004 0.588,0.9004 0.0479,-0.0077 0.0912,-0.0333 0.1216,-0.072 0.1539,-0.1987 0.2257,-0.451 0.2,-0.7031 l -0.5709,-17.71 2.482,2.026 c -0.058,-0.1074 0.5342,-0.6882 0.5285,-0.8108 z"/><circle id="circle2" cx="45.68" cy="16.01" r="2.375" fill="#fff"/><path id="path3" fill="#fff" d="m 33.5,40.76 -0.6593,-15.5 c -0.0917,-1.839 -1.111,-3.489 -2.911,-3.507 l -6.537,-0.1605 c -1.8,0.0175 -3.51,1.617 -3.601,3.456 l -0.6906,15.71 c -0.0047,0.1041 0.3547,0.7432 0.3129,0.8381 l 1.976,-0.8318 -0.2002,16.52 c -0.0261,0.252 0.4771,0.4648 0.6308,0.6635 0.0303,0.0387 0.0737,0.0644 0.1216,0.0721 0.1711,0 0.5255,-0.3422 0.5886,-0.9004 l 2.033,-18.03 h 3.555 l 1.648,18.14 c 0.0632,0.559 0.802,0.7859 0.9731,0.7859 0.0479,-0.0077 0.0913,-0.0333 0.1216,-0.072 0.1539,-0.1987 0.8316,-0.4618 0.8059,-0.7139 l -0.1949,-16.52 1.684,0.9198 c -0.058,-0.1074 0.3499,-0.7567 0.3443,-0.8792 z"/><circle id="circle3" cx="26.35" cy="16.01" r="2.375" fill="#fff"/></g><g id="line" transform="translate(-9.92,-10)"><path id="path4" fill="none" stroke="#000" stroke-linecap="round" stroke-linejoin="round" stroke-miterlimit="10" stroke-width="2" d="m 59.92,61 h -48 c -0.5523,0 -1,-0.4477 -1,-1 V 12 c 0,-0.5523 0.4477,-1 1,-1 h 48 c 0.5523,0 1,0.4477 1,1 v 48 c 0,0.5523 -0.4477,1 -1,1 z"/><circle id="circle4" cx="45.68" cy="16.01" r="2.375" fill="none" stroke="#000" stroke-miterlimit="10" stroke-width="2"/><path id="path5" fill="none" stroke="#000" stroke-linecap="round" stroke-linejoin="round" stroke-width="2" d="m 49.7,26.36 1.52,30.4 c 0.044,0.88 -0.46,1.6 -1.12,1.6 -0.7812,-0.1321 -1.36,-0.7976 -1.383,-1.59 L 46.686,39.15 c -0.1008,-0.8744 -0.5432,-1.59 -0.9832,-1.59 -0.44,0 -0.88,0.7152 -0.9832,1.59 l -2.034,17.62 c -0.0229,0.792 -0.602,1.458 -1.383,1.59 -0.66,0 -1.164,-0.72 -1.12,-1.6 l 1.52,-30.4"/><circle id="circle5" cx="26.36" cy="16.01" r="2.375" fill="none" stroke="#000" stroke-miterlimit="10" stroke-width="2"/><path id="path6" fill="none" stroke="#000" stroke-linecap="round" stroke-linejoin="round" stroke-width="2" d="m 30.33,26.67 c -1.882,2.826 -0.5416,4.886 -0.0253,6.4 0.3669,1.076 0.6043,3.36 0.718,4.491 0.4803,4.781 0.802,19.2 0.802,19.2 0.044,0.88 -0.46,1.6 -1.12,1.6 -0.7812,-0.1321 -1.36,-0.7976 -1.383,-1.59 l -2.031,-17.62 c -0.1008,-0.8744 -0.5432,-1.59 -0.9832,-1.59 -0.44,0 -0.88,0.7152 -0.9832,1.59 l -2.034,17.62 c -0.0229,0.792 -0.602,1.458 -1.383,1.59 -0.66,0 -1.164,-0.72 -1.12,-1.6 0,0 0.4181,-14.27 0.8585,-19.01 0.1095,-1.178 0.2965,-3.559 0.6615,-4.684 0.4939,-1.522 1.933,-3.791 0.0229,-6.4"/><path id="path7" fill="none" stroke="#000" stroke-linecap="round" stroke-linejoin="round" stroke-width="2" d="m 38.5,40.76 0.6336,-15.2 c 0.1155,-2.224 1.94,-3.975 4.166,-4 h 4.8 c 2.227,0.0249 4.051,1.776 4.166,4 l 0.6336,15.2"/><path id="path8" fill="none" stroke="#000" stroke-linecap="round" stroke-linejoin="round" stroke-width="2" d="m 19.1,40.76 0.6336,-15.2 c 0.1155,-2.224 1.94,-3.975 4.166,-4 h 4.8 c 2.227,0.0249 4.051,1.776 4.166,4 l 0.6336,15.2"/></g></svg>