<svg xmlns="http://www.w3.org/2000/svg" xmlns:svg="http://www.w3.org/2000/svg" id="emoji" width="52" height="52" version="1.1" viewBox="0 0 52 52"><g id="color" transform="translate(-10,-10)"><path id="path1" fill="#61b2e4" stroke="none" stroke-linecap="round" stroke-linejoin="round" stroke-miterlimit="10" stroke-width="2" d="M 60,61 H 12 c -0.5523,0 -1,-0.4477 -1,-1 V 12 c 0,-0.5523 0.4477,-1 1,-1 h 48 c 0.5523,0 1,0.4477 1,1 v 48 c 0,0.5523 -0.4477,1 -1,1 z"/><path id="path2" fill="#fff" stroke="none" d="m 40.4155,37.6526 c 0,0 -1.1088,-0.2837 -0.7159,0.8999 l -3.6179,-1.9927 1.0397,-1.1799 z"/><path id="path3" fill="#fff" stroke="none" d="m 30.4567,37.6526 c 0,0 1.1088,-0.2837 0.7159,0.8999 l 3.6179,-1.9927 -1.0397,-1.1799 z"/><path id="path4" fill="none" stroke="#fff" stroke-linecap="round" stroke-linejoin="round" stroke-miterlimit="10" stroke-width="3" d="M 46.2,39.6 C 40.9,35 35.5,35.3666 35.5,35.3666 35.5,35.3666 29.9,35 24.6,39.6"/><polyline id="polyline4" fill="#fff" stroke="none" points="31 39 33 35 38.889 34.971 40 39 31 39"/><path id="path5" fill="#fff" stroke="none" stroke-linecap="round" stroke-linejoin="round" stroke-miterlimit="10" stroke-width="2" d="m 39,38.6 5.6,11.2 c 0,0 0,1.4 -1.4,1.4 -1.4,0 -5.6,-4.2 -5.6,-4.2 h -2.8 1.4 -2.8 c 0,0 -4.2,4.2 -5.6,4.2 -1.4,0 -1.4,-1.4 -1.4,-1.4 L 32,38.6"/><polygon id="polygon5" fill="#fff" stroke="none" stroke-linecap="round" stroke-linejoin="round" stroke-miterlimit="10" stroke-width="2" points="30.6 41.4 40.4 41.4 40.4 44.2 37.6 47 33.4 47 30.6 44.2"/><circle id="circle5" cx="36.2" cy="27" r="4.2" fill="#fff" stroke="none" stroke-linecap="round" stroke-linejoin="round" stroke-miterlimit="10" stroke-width="2"/></g><g id="line" transform="translate(-10,-10)"><path id="path6" fill="none" stroke="#000" stroke-linecap="round" stroke-linejoin="round" stroke-miterlimit="10" stroke-width="2" d="M 60,61 H 12 c -0.5523,0 -1,-0.4477 -1,-1 V 12 c 0,-0.5523 0.4477,-1 1,-1 h 48 c 0.5523,0 1,0.4477 1,1 v 48 c 0,0.5523 -0.4477,1 -1,1 z"/><path id="path7" fill="none" stroke="#000" stroke-linecap="round" stroke-linejoin="round" stroke-miterlimit="10" stroke-width="2" d="m 47.4,40 c -4.536,-5.67 -11.9,-5.684 -11.9,-5.684 0,0 -7.364,0.014 -11.9,5.684"/><path id="path8" fill="none" stroke="#000" stroke-linecap="round" stroke-linejoin="round" stroke-miterlimit="10" stroke-width="2" d="m 39,38.6 5.6,11.2 c 0,0 0,1.4 -1.4,1.4 -1.4,0 -5.6,-4.2 -5.6,-4.2 h -2.8 1.4 -2.8 c 0,0 -4.2,4.2 -5.6,4.2 -1.4,0 -1.4,-1.4 -1.4,-1.4 L 32,38.6"/><polygon id="polygon8" fill="none" stroke="#000" stroke-linecap="round" stroke-linejoin="round" stroke-miterlimit="10" stroke-width="2" points="30.6 41.4 40.4 41.4 40.4 44.2 37.6 47 33.4 47 30.6 44.2"/><circle id="circle8" cx="36.2" cy="27" r="4.2" fill="none" stroke="#000" stroke-linecap="round" stroke-linejoin="round" stroke-miterlimit="10" stroke-width="2"/></g></svg>