<?xml version="1.0" encoding="UTF-8" standalone="no"?>
<svg
   id="emoji"
   viewBox="0 0 58.676701 60.847599"
   version="1.1"
   sodipodi:docname="1f6b5-1f3fc-200d-2640-fe0f.svg"
   width="58.676701"
   height="60.847599"
   xmlns:inkscape="http://www.inkscape.org/namespaces/inkscape"
   xmlns:sodipodi="http://sodipodi.sourceforge.net/DTD/sodipodi-0.dtd"
   xmlns="http://www.w3.org/2000/svg"
   xmlns:svg="http://www.w3.org/2000/svg">
  <defs
     id="defs10" />
  <sodipodi:namedview
     id="namedview10"
     pagecolor="#ffffff"
     bordercolor="#000000"
     borderopacity="0.25"
     inkscape:showpageshadow="2"
     inkscape:pageopacity="0.0"
     inkscape:pagecheckerboard="0"
     inkscape:deskcolor="#d1d1d1" />
  <g
     id="skin"
     transform="translate(-4.5314004,-4.1524)">
    <circle
       cx="45.531601"
       cy="8.0129995"
       r="2.9992001"
       fill="#debb90"
       id="circle1" />
    <path
       fill="#debb90"
       d="m 45.4412,14.8705 3.3818,-0.6646 1.65,1.9544 3.7617,12.5246 -3.1758,2.6541 -3.0834,1.361 -6.614,8.887 -5.33,4.7839 -1.4445,-2.6048 3.246,-6.0006 -0.9659,-7.5311 1.2257,-2.8987 8.6933,-2.49 -1.22,-6.8035"
       id="path1" />
  </g>
  <g
     id="color"
     transform="translate(-4.5314004,-4.1524)">
    <path
       fill="#d0cfce"
       stroke="#d0cfce"
       stroke-linejoin="round"
       stroke-width="2.32"
       d="m 60.2374,63.7816 c -2.751,0 -6.8155,-0.153 -6.8155,-0.153 L 37.7884,61.4223 22.792,57.9774 5.7146,49.1993 l -0.0232,-5.02 1.723,-0.7064 2.3324,1.625 4.6332,4.1583 4.87,1.4494 9.3431,4.7737 5.1819,-1.1965 7.3514,1.414 10.1588,5.2013 5.22,-0.1261"
       id="path2" />
  </g>
  <g
     id="line"
     transform="translate(-4.5314004,-4.1524)">
    <path
       fill="none"
       stroke="#000000"
       stroke-linecap="round"
       stroke-linejoin="round"
       stroke-width="2"
       d="M 51.5245,60.693 56.5059,60.5715 60.1719,64"
       id="path3" />
    <path
       fill="none"
       stroke="#000000"
       stroke-linecap="round"
       stroke-linejoin="round"
       stroke-width="2"
       d="m 22.9705,52.3383 6.2039,2.8146 4.7947,-1.0571 5.2654,1.0212"
       id="path4" />
    <path
       fill="none"
       stroke="#000000"
       stroke-linecap="round"
       stroke-linejoin="round"
       stroke-width="2"
       d="m 5.6087,43.9473 1.7866,-0.7215 2.949,2.1407"
       id="path5" />
    <circle
       cx="21.5986"
       cy="36.333801"
       r="9.7234001"
       fill="none"
       stroke="#000000"
       stroke-miterlimit="10"
       stroke-width="2"
       id="circle5" />
    <circle
       cx="52.484699"
       cy="48.247299"
       r="9.7234001"
       fill="none"
       stroke="#000000"
       stroke-miterlimit="10"
       stroke-width="2"
       id="circle6" />
    <path
       fill="none"
       stroke="#000000"
       stroke-linecap="round"
       stroke-linejoin="round"
       stroke-width="2"
       d="m 21.6874,36.3682 14.3041,-16.6914 2.9446,2.11"
       id="path6" />
    <circle
       cx="45.3922"
       cy="8.1524"
       r="3"
       fill="none"
       stroke="#000000"
       stroke-miterlimit="10"
       stroke-width="2"
       id="circle7" />
    <path
       fill="none"
       stroke="#000000"
       stroke-linecap="round"
       stroke-linejoin="round"
       stroke-width="2"
       d="M 38.4583,20.5583 40.97,20.011 a 13.2985,13.2985 0 0 0 3.7966,-1.2442 c 0,0 0.4293,-2.64 0.6235,-3.5021 a 0.8012,0.8012 0 0 1 0.4229,-0.679 3.1213,3.1213 0 0 1 3.01,-0.38 c 1.3024,0.5516 1.9216,2.389 2.16,2.9884 a 63.0047,63.0047 0 0 1 3.1266,9.7039 4.1364,4.1364 0 0 1 -1.3296,3.1656 l -0.1578,0.1433 a 5.8752,5.8752 0 0 1 -3.35,1.2575 l -5.7154,0.2384 a 1.9349,1.9349 0 0 0 -1.8735,1.932 l 0.1061,6.5843 a 2.2848,2.2848 0 0 1 -1.5868,2.2476 1.73,1.73 0 0 1 -1.9465,-1.5724 L 37.17,32.09 a 8.651,8.651 0 0 1 0.3714,-3.3322 3.6664,3.6664 0 0 1 2.4412,-1.8141 l 5.0878,-0.9929 c 1.0067,-0.2232 2.4916,-1.7072 2.316,-2.8626"
       id="path7" />
    <path
       fill="none"
       stroke="#000000"
       stroke-miterlimit="10"
       stroke-width="2"
       d="m 40.2026,42.4667 -1.9569,2.4109 a 2.6607,2.6607 0 0 1 -2.7878,0.8619 1.6224,1.6224 0 0 1 -0.7331,-2.3289 l 3.1082,-5.6451"
       id="path8" />
    <path
       fill="none"
       stroke="#000000"
       stroke-miterlimit="10"
       stroke-width="2"
       d="m 48.9711,31.45 -7.1617,8.9814"
       id="path9" />
    <path
       fill="none"
       stroke="#000000"
       stroke-linecap="round"
       stroke-linejoin="round"
       stroke-width="2"
       d="m 49.008,5.9936 c 0,0 0.5982,-0.2747 0.9541,0.0234 0.4189,0.35 0.698,1.653 1.1924,2.2187 A 3.3623,3.3623 0 0 0 53.018,9.351"
       id="path10" />
  </g>
</svg>
