<svg xmlns="http://www.w3.org/2000/svg" xmlns:svg="http://www.w3.org/2000/svg" id="emoji" width="56" height="48" version="1.1" viewBox="0 0 56 48"><g id="color" transform="translate(-8.0000004,-12)"><rect id="rect1" width="18" height="33" x="43" y="21" fill="#61b2e4"/><rect id="rect2" width="32" height="33" x="11" y="21" fill="#92d3f5"/></g><g id="line" transform="translate(-8.0000004,-12)"><polyline id="polyline2" fill="none" stroke="#000" stroke-linecap="round" stroke-linejoin="round" stroke-width="2" points="17 21.552 11.343 21.552 11.343 53.313 17 53.313"/><rect id="rect3" width="37.612" height="31.761" x="17.194" y="21.552" fill="none" stroke="#000" stroke-linecap="round" stroke-linejoin="round" stroke-width="2"/><polyline id="polyline3" fill="none" stroke="#000" stroke-linecap="round" stroke-linejoin="round" stroke-width="2" points="55.138 21.517 60.798 21.568 60.515 53.328 54.855 53.277"/><polyline id="polyline4" fill="none" stroke="#000" stroke-linecap="round" stroke-linejoin="round" stroke-width="2" points="45 21.552 54.657 21.552 54.657 53.313 45 53.313"/><circle id="circle4" cx="15.522" cy="58.328" r="1.672"/><circle id="circle5" cx="9.672" cy="58.328" r="1.672"/><circle id="circle6" cx="62.328" cy="58.328" r="1.672"/><circle id="circle7" cx="56.478" cy="58.328" r="1.672"/><circle id="circle8" cx="50.627" cy="58.328" r="1.672"/><circle id="circle9" cx="44.776" cy="58.328" r="1.672"/><circle id="circle10" cx="38.925" cy="58.328" r="1.672"/><circle id="circle11" cx="33.075" cy="58.328" r="1.672"/><circle id="circle12" cx="27.224" cy="58.328" r="1.672"/><circle id="circle13" cx="21.373" cy="58.328" r="1.672"/><g id="g14"><path id="path13" fill="none" stroke="#000" stroke-linecap="round" stroke-linejoin="round" stroke-width="2" d="m 28,21 v -4 c 0,0 0,-4 4.7143,-4 H 39"/><path id="path14" fill="none" stroke="#000" stroke-linecap="round" stroke-linejoin="round" stroke-width="2" d="m 44,21 v -4 c 0,0 0,-4 -4.7143,-4 H 33"/></g></g></svg>