<?xml version="1.0" encoding="UTF-8" standalone="no"?>
<svg
   id="emoji"
   viewBox="0 0 64 40.07"
   version="1.1"
   sodipodi:docname="1f6cf.svg"
   width="64"
   height="40.07"
   xmlns:inkscape="http://www.inkscape.org/namespaces/inkscape"
   xmlns:sodipodi="http://sodipodi.sourceforge.net/DTD/sodipodi-0.dtd"
   xmlns="http://www.w3.org/2000/svg"
   xmlns:svg="http://www.w3.org/2000/svg">
  <defs
     id="defs6" />
  <sodipodi:namedview
     id="namedview6"
     pagecolor="#ffffff"
     bordercolor="#000000"
     borderopacity="0.25"
     inkscape:showpageshadow="2"
     inkscape:pageopacity="0.0"
     inkscape:pagecheckerboard="0"
     inkscape:deskcolor="#d1d1d1" />
  <g
     id="color"
     transform="translate(-4,-15.969999)">
    <rect
       x="5"
       y="42.5"
       width="62"
       height="6.5"
       fill="#a57939"
       id="rect1" />
    <path
       fill="#d0cfce"
       d="m 5,42 v -4 c 0,-1.65 1.35,-3 3,-3 h 56 c 1.65,0 3,1.35 3,3 v 4"
       id="path1" />
    <path
       fill="#92d3f5"
       d="m 5.125,30.44 c 0,0 6.387,-2.767 12.27,-2.721 2.296,0.01784 5.686,1.897 5.712,3.874 l -1.104,2.16 -15,1 -0.8125,1.25 -1.062,-1.625 -0.125,-3.625 z"
       id="path2" />
    <path
       fill="#92d3f5"
       d="m 22,41.6 0.4337,-8.291 c -3.052,-4.924 32.48,-2.528 44.6,-2.638 0.8175,4.338 0.0439,6.264 -0.0301,11.32"
       id="path3" />
  </g>
  <g
     id="hair"
     transform="translate(-4,-15.969999)" />
  <g
     id="skin"
     transform="translate(-4,-15.969999)" />
  <g
     id="skin-shadow"
     transform="translate(-4,-15.969999)" />
  <g
     id="line"
     transform="translate(-4,-15.969999)">
    <rect
       x="5"
       y="42"
       width="62"
       height="7"
       fill="none"
       stroke="#000000"
       stroke-linecap="round"
       stroke-linejoin="round"
       stroke-miterlimit="10"
       stroke-width="2"
       id="rect3" />
    <path
       fill="none"
       stroke="#000000"
       stroke-linecap="round"
       stroke-linejoin="round"
       stroke-miterlimit="10"
       stroke-width="2"
       d="m 5,40.99 v -4 c 0,-1.65 1.35,-3 3,-3 h 13.83"
       id="path4" />
    <line
       x1="5"
       x2="5"
       y1="55.029999"
       y2="16.969999"
       fill="none"
       stroke="#000000"
       stroke-linecap="round"
       stroke-linejoin="round"
       stroke-miterlimit="10"
       stroke-width="2"
       id="line4" />
    <line
       x1="67"
       x2="67"
       y1="27.040001"
       y2="55.040001"
       fill="none"
       stroke="#000000"
       stroke-linecap="round"
       stroke-linejoin="round"
       stroke-miterlimit="10"
       stroke-width="2"
       id="line5" />
    <path
       fill="none"
       stroke="#000000"
       stroke-linecap="round"
       stroke-linejoin="round"
       stroke-miterlimit="10"
       stroke-width="2"
       d="M 20.42,29.73 C 18.81,28.533 15.816,28.192 13.063,28.132 8.481,28.14316 4.181,29.461 5.13,33.406"
       id="path5" />
    <path
       fill="none"
       stroke="#000000"
       stroke-linecap="round"
       stroke-linejoin="round"
       stroke-miterlimit="10"
       stroke-width="2"
       d="m 67,41.99 v -8.32 c 0,-1.65 -1.35,-3 -2.99,-3.001 L 25.2,30.6676 c -1.65,-5.9e-5 -3,1.35 -3,3 v 8"
       id="path6" />
  </g>
</svg>
