<?xml version="1.0" encoding="UTF-8" standalone="no"?>
<svg
   id="emoji"
   viewBox="0 0 64 40.07"
   version="1.1"
   sodipodi:docname="1f6cc-1f3fb.svg"
   width="64"
   height="40.07"
   xmlns:inkscape="http://www.inkscape.org/namespaces/inkscape"
   xmlns:sodipodi="http://sodipodi.sourceforge.net/DTD/sodipodi-0.dtd"
   xmlns="http://www.w3.org/2000/svg"
   xmlns:svg="http://www.w3.org/2000/svg">
  <defs
     id="defs8" />
  <sodipodi:namedview
     id="namedview8"
     pagecolor="#ffffff"
     bordercolor="#000000"
     borderopacity="0.25"
     inkscape:showpageshadow="2"
     inkscape:pageopacity="0.0"
     inkscape:pagecheckerboard="0"
     inkscape:deskcolor="#d1d1d1" />
  <g
     id="color"
     transform="translate(-4,-15.969999)">
    <rect
       x="5"
       y="42.5"
       width="62"
       height="6.5"
       fill="#a57939"
       id="rect1" />
    <path
       fill="#d0cfce"
       d="m 5,42 v -4 c 0,-1.65 1.35,-3 3,-3 h 56 c 1.65,0 3,1.35 3,3 v 4"
       id="path1" />
    <path
       fill="#92d3f5"
       d="m 5.125,30.44 c 0,0 4.875,-3.688 16.88,-0.6875 v 4 l -15,1 -0.8125,1.25 -1.062,-1.625 -0.125,-3.625 z"
       id="path2" />
    <path
       fill="#92d3f5"
       d="M 22,41.6 V 28.88 c 0,0 0.2674,-3.099 2.535,-4.415 2.535,-1.472 7.606,0 11.41,-1.472 8.606,-3.331 19.96,2.94 25.55,6.831 7.497,2.256 5.579,7.111 5.505,12.17"
       id="path3" />
  </g>
  <g
     id="hair"
     transform="translate(-4,-15.969999)" />
  <g
     id="skin"
     transform="translate(-4,-15.969999)">
    <path
       fill="#fadcbc"
       d="m 15.08,27.56 c -0.0498,-0.2168 -0.0762,-0.4429 -0.0762,-0.6748 0,-1.657 1.344,-3 3,-3 1.656,0 3,1.343 3,3 0,0.3926 -0.0752,0.7676 -0.2129,1.111"
       id="path4" />
  </g>
  <g
     id="skin-shadow"
     transform="translate(-4,-15.969999)" />
  <g
     id="line"
     transform="translate(-4,-15.969999)">
    <rect
       x="5"
       y="42"
       width="62"
       height="7"
       fill="none"
       stroke="#000000"
       stroke-linecap="round"
       stroke-linejoin="round"
       stroke-miterlimit="10"
       stroke-width="2"
       id="rect4" />
    <path
       fill="none"
       stroke="#000000"
       stroke-linecap="round"
       stroke-linejoin="round"
       stroke-miterlimit="10"
       stroke-width="2"
       d="m 5,40.99 v -4 c 0,-1.65 1.35,-3 3,-3 h 13.83"
       id="path5" />
    <line
       x1="5"
       x2="5"
       y1="55.029999"
       y2="16.969999"
       fill="none"
       stroke="#000000"
       stroke-linecap="round"
       stroke-linejoin="round"
       stroke-miterlimit="10"
       stroke-width="2"
       id="line5" />
    <line
       x1="67"
       x2="67"
       y1="27.040001"
       y2="55.040001"
       fill="none"
       stroke="#000000"
       stroke-linecap="round"
       stroke-linejoin="round"
       stroke-miterlimit="10"
       stroke-width="2"
       id="line6" />
    <path
       fill="none"
       stroke="#000000"
       stroke-linecap="round"
       stroke-linejoin="round"
       stroke-miterlimit="10"
       stroke-width="2"
       d="m 15.08,27.66 c -0.0498,-0.2168 -0.0762,-0.4429 -0.0762,-0.6748 0,-1.657 1.344,-3 3,-3 1.656,0 3,1.343 3,3 0,0.3926 -0.0752,0.7676 -0.2129,1.111"
       id="path6" />
    <path
       fill="none"
       stroke="#000000"
       stroke-linecap="round"
       stroke-linejoin="round"
       stroke-miterlimit="10"
       stroke-width="2"
       d="m 22,41.99 v -14 c 0,0 0.2109,-2.106 2,-3 2,-1 9.301,-0.959 12.3,-1.959 6.789,-2.263 18.59,3.356 23,6 5,3 7.699,1.813 7.699,4.959"
       id="path7" />
    <path
       fill="none"
       stroke="#000000"
       stroke-linecap="round"
       stroke-linejoin="round"
       stroke-miterlimit="10"
       stroke-width="2"
       d="m 5.042,29.9 c 1.854,-1.855 9.25,-3.042 15.96,-0.9175"
       id="path8" />
  </g>
</svg>
