<?xml version="1.0" encoding="UTF-8" standalone="no"?>
<svg
   id="emoji"
   viewBox="0 0 62.618 56.642197"
   version="1.1"
   sodipodi:docname="1f6cb.svg"
   width="62.618"
   height="56.642197"
   xmlns:inkscape="http://www.inkscape.org/namespaces/inkscape"
   xmlns:sodipodi="http://sodipodi.sourceforge.net/DTD/sodipodi-0.dtd"
   xmlns="http://www.w3.org/2000/svg"
   xmlns:svg="http://www.w3.org/2000/svg">
  <defs
     id="defs14" />
  <sodipodi:namedview
     id="namedview14"
     pagecolor="#ffffff"
     bordercolor="#000000"
     borderopacity="0.25"
     inkscape:showpageshadow="2"
     inkscape:pageopacity="0.0"
     inkscape:pagecheckerboard="0"
     inkscape:deskcolor="#d1d1d1" />
  <g
     id="color"
     transform="translate(-4.848,-6.8198029)">
    <rect
       x="6.8330002"
       y="55.619999"
       width="5.4219999"
       height="7.0640001"
       fill="#a57939"
       stroke-width="1.042"
       id="rect1" />
    <rect
       x="51.82"
       y="55.619999"
       width="5.4219999"
       height="7.0640001"
       fill="#a57939"
       stroke-width="1.042"
       id="rect2" />
    <path
       fill="#92d3f5"
       d="m 12.54,28.49 h 38.94 l 0.243,26.82 -38.96,-0.2078 z"
       id="path2" />
    <rect
       x="12.62"
       y="46.360001"
       width="39.099998"
       height="8.9519997"
       fill="#61b2e4"
       stroke-width="0.9064"
       id="rect3" />
    <path
       transform="rotate(90,56.28,44.95)"
       fill="#61b2e4"
       d="m 45.93,43.3 h 20.69 l 0.01452,6.212 -20.71,-0.1735 z"
       id="path3" />
    <path
       transform="rotate(90,7.178,44.95)"
       fill="#61b2e4"
       d="m -1.848,39.65 19.39,-0.1405 -0.01452,7.167 h -21.36 z"
       id="path4" />
    <polyline
       fill="#a57939"
       points="52.74 57.65 52.74 62.46 56.17 62.46 56.17 57.65"
       id="polyline4" />
    <polyline
       fill="#a57939"
       points="7.444 57.61 7.444 62.46 10.87 62.46 10.87 57.61"
       id="polyline5" />
    <path
       fill="#fcea2b"
       d="m 34.46,9.549 v 8.465 c 0,0 6.279,3.422 12.56,0 V 9.549 c 10e-5,0 -6.279,-3.782 -12.56,0 z"
       id="path5" />
  </g>
  <g
     id="hair"
     transform="translate(-4.848,-6.8198029)" />
  <g
     id="skin"
     transform="translate(-4.848,-6.8198029)" />
  <g
     id="skin-shadow"
     transform="translate(-4.848,-6.8198029)" />
  <g
     id="line"
     transform="translate(-4.848,-6.8198029)">
    <path
       fill="none"
       stroke="#000000"
       stroke-linecap="round"
       stroke-linejoin="round"
       stroke-miterlimit="10"
       stroke-width="2"
       d="m 12.61,36.87 v -8.385 h 38.94 v 8.274 c 2.138,-2.907 3.386,-2.824 6.768,-2.824 v 21.36 H 5.848 v -21.36 c 3.594,-0.509 4.265,0.6135 6.768,2.935 z"
       id="path6" />
    <path
       fill="none"
       stroke="#000000"
       stroke-linecap="round"
       stroke-linejoin="round"
       stroke-miterlimit="10"
       stroke-width="2"
       d="m 7.833,58.61 v 3.852 h 3.422 V 58.61"
       id="path7" />
    <path
       fill="none"
       stroke="#000000"
       stroke-linecap="round"
       stroke-linejoin="round"
       stroke-miterlimit="10"
       stroke-width="2"
       d="m 52.82,58.61 v 3.852 h 3.422 V 58.61"
       id="path8" />
    <path
       fill="none"
       stroke="#000000"
       stroke-linecap="round"
       stroke-linejoin="round"
       stroke-miterlimit="10"
       stroke-width="2"
       d="m 34.53,9.549 v 8.465 c 4.382,2.115 8.559,2.125 12.56,0 V 9.549 c -4.033,-2.29 -8.197,-2.384 -12.56,0 z"
       id="path9" />
    <path
       fill="none"
       stroke="#000000"
       stroke-linecap="round"
       stroke-linejoin="round"
       stroke-miterlimit="10"
       stroke-width="2"
       d="M 12.7,46.42 H 51.56"
       id="path10" />
    <path
       fill="none"
       stroke="#000000"
       stroke-linecap="round"
       stroke-linejoin="round"
       stroke-miterlimit="10"
       stroke-width="2"
       d="M 51.56,54.6 51.5487,36.76"
       id="path11" />
    <path
       fill="none"
       stroke="#000000"
       stroke-linecap="round"
       stroke-linejoin="round"
       stroke-miterlimit="10"
       stroke-width="2"
       d="m 12.61,36.87 0.01095,18.44"
       id="path12" />
    <path
       fill="none"
       stroke="#000000"
       stroke-linecap="round"
       stroke-linejoin="round"
       stroke-miterlimit="10"
       stroke-width="2"
       d="m 47.09,13.7 c 0,0 15.18,-2.847 15.56,19.74 0.0985,5.856 0,23.43 0,23.43"
       id="path13" />
    <path
       fill="none"
       stroke="#000000"
       stroke-linecap="round"
       stroke-linejoin="round"
       stroke-miterlimit="10"
       stroke-width="2"
       d="m 58.92,59.61 h 7.546"
       id="path14" />
  </g>
</svg>
