<svg xmlns="http://www.w3.org/2000/svg" xmlns:svg="http://www.w3.org/2000/svg" id="emoji" width="52" height="54.346" version="1.1" viewBox="0 0 52 54.346"><g id="color" transform="translate(-10.0074,-9.7816473)"><path id="path1" fill="#9b9b9a" stroke="none" d="m 22.7591,54.4599 h -5.4412 l -2.5565,7.3286 c -0.336,0.9633 0.3791,1.9701 1.3993,1.9701 h 3.3547 z"/><path id="path2" fill="#9b9b9a" stroke="none" d="m 47.124,54.4599 h 5.4412 l 2.5565,7.3286 c 0.336,0.9633 -0.3791,1.9701 -1.3993,1.9701 h -3.3547 z"/><polyline id="polyline2" fill="#9b9b9a" stroke="none" points="16.534 59.598 15.391 63.128 18.915 63.128 19.582 61.074"/><polyline id="polyline3" fill="#9b9b9a" stroke="none" points="53.439 59.598 54.582 63.128 51.058 63.128 50.391 61.074"/><path id="path3" fill="#d0cfce" stroke="none" stroke-linecap="round" stroke-linejoin="round" stroke-miterlimit="10" stroke-width="2" d="m 11.0074,34.2178 v 9.4286 c 0,6.9143 5.4,12.5714 12,12.5714 h 26 c 6.6,0 12,-5.6571 12,-12.5714 v -9.4286 c 0,0 -23,2.0952 -50,0 z"/><path id="path4" fill="#9b9b9a" stroke="none" d="M 43.8036,56.2178 60.5643,34.5089 60.508,47.2743 c 0,0 -1.9682,5.6235 -6.8045,8.0979 0,-10e-5 -5.3449,1.408 -9.8999,0.8456 z"/><path id="path5" fill="#d0cfce" stroke="none" stroke-linecap="round" stroke-linejoin="round" stroke-miterlimit="10" stroke-width="2" d="m 46.1661,14.3051 c 1.6097,-2.1022 4.2966,-2.7481 6.0014,-1.4428 1.7048,1.3053 1.7819,4.0678 0.1722,6.17 z"/></g><g id="line" transform="translate(-10.0074,-9.7816473)"><path id="path6" fill="none" stroke="#000" stroke-linecap="round" stroke-linejoin="round" stroke-miterlimit="10" stroke-width="2" d="m 11.0074,34.2178 v 9.4286 c 0,6.9143 5.4,12.5714 12,12.5714 h 26 c 6.6,0 12,-5.6571 12,-12.5714 v -9.4286 c 0,0 -23,2.0952 -50,0 z"/><path id="path7" fill="none" stroke="#000" stroke-linecap="round" stroke-linejoin="round" stroke-miterlimit="10" stroke-width="2" d="M 58.6681,34.2178 V 14.3617 c 0,0 0,-6.9454 -6.5006,-1.4994"/><path id="path8" fill="none" stroke="#000" stroke-linecap="round" stroke-linejoin="round" stroke-miterlimit="10" stroke-width="2" d="m 46.1661,14.3051 c 1.6097,-2.1022 4.2966,-2.7481 6.0014,-1.4428 1.7048,1.3053 1.7819,4.0678 0.1722,6.17 z"/><polyline id="polyline8" fill="none" stroke="#000" stroke-linecap="round" stroke-linejoin="round" stroke-miterlimit="10" stroke-width="2" points="53.439 59.598 54.582 63.128 51.058 63.128 50.391 61.074"/><polyline id="polyline9" fill="none" stroke="#000" stroke-linecap="round" stroke-linejoin="round" stroke-miterlimit="10" stroke-width="2" points="16.534 59.598 15.391 63.128 18.915 63.128 19.582 61.074"/><path id="path9" fill="none" stroke="#000" stroke-linecap="round" stroke-linejoin="round" stroke-miterlimit="10" stroke-width="2" d="m 11.0074,34.2178 v 9.4286 c 0,6.9143 5.4,12.5714 12,12.5714 h 26 c 6.6,0 12,-5.6571 12,-12.5714 v -9.4286 c 0,0 -23,2.0952 -50,0 z"/></g></svg>