<svg xmlns="http://www.w3.org/2000/svg" xmlns:svg="http://www.w3.org/2000/svg" id="emoji" width="52" height="55.958" version="1.1" viewBox="0 0 52 55.958"><g id="color" transform="translate(-10.001513,-6.0015)"><line id="line1" x1="25.747" x2="36.001" y1="21.001" y2="21.001" fill="#ea5a47" stroke="none"/><polyline id="polyline1" fill="#fcea2b" stroke="none" points="36.002 60.96 61.002 60.96 56.002 20.093 53.432 20.093 18.571 20.093 16.002 20.093 11.002 60.96 36.002 60.96"/><line id="line2" x1="46.256" x2="36.002" y1="21.001" y2="21.001" fill="#ea5a47" stroke="none"/></g><g id="line" transform="translate(-10.001513,-6.0015)"><polyline id="polyline2" fill="none" stroke="#000" stroke-linecap="round" stroke-linejoin="round" stroke-miterlimit="10" stroke-width="2" points="36.002 60.96 11.002 60.96 16.002 21.002 18.571 21.002"/><line id="line3" x1="25.747" x2="36.001" y1="21.001" y2="21.001" fill="none" stroke="#000" stroke-linecap="round" stroke-linejoin="round" stroke-miterlimit="10" stroke-width="2"/><polyline id="polyline3" fill="none" stroke="#000" stroke-linecap="round" stroke-linejoin="round" stroke-miterlimit="10" stroke-width="2" points="36.002 60.96 61.002 60.96 56.002 21.002 53.432 21.002"/><line id="line4" x1="46.256" x2="36.002" y1="21.001" y2="21.001" fill="none" stroke="#000" stroke-linecap="round" stroke-linejoin="round" stroke-miterlimit="10" stroke-width="2"/><path id="path4" fill="none" stroke="#000" stroke-linecap="round" stroke-linejoin="round" stroke-miterlimit="10" stroke-width="2" d="m 22.049,27.662 v -6.6199 c 0,-7.7544 6.2862,-14.0406 14.0406,-14.0406 7.7544,0 14.0406,6.2862 14.0406,14.0406 v 6.6199"/></g></svg>