<?xml version="1.0" encoding="UTF-8" standalone="no"?>
<svg
   id="emoji"
   viewBox="0 0 40 58.077698"
   version="1.1"
   sodipodi:docname="1f6d5.svg"
   width="40"
   height="58.077698"
   xmlns:inkscape="http://www.inkscape.org/namespaces/inkscape"
   xmlns:sodipodi="http://sodipodi.sourceforge.net/DTD/sodipodi-0.dtd"
   xmlns="http://www.w3.org/2000/svg"
   xmlns:svg="http://www.w3.org/2000/svg">
  <defs
     id="defs28" />
  <sodipodi:namedview
     id="namedview28"
     pagecolor="#ffffff"
     bordercolor="#000000"
     borderopacity="0.25"
     inkscape:showpageshadow="2"
     inkscape:pageopacity="0.0"
     inkscape:pagecheckerboard="0"
     inkscape:deskcolor="#d1d1d1" />
  <g
     id="color"
     transform="translate(-16,-6.3806)">
    <rect
       x="17"
       y="52.758598"
       width="38"
       height="10.6997"
       fill="#f4aa41"
       id="rect1" />
    <rect
       x="17"
       y="43.458302"
       width="38"
       height="9.3002996"
       fill="#f4aa41"
       id="rect2" />
    <rect
       x="47"
       y="56.458302"
       width="2"
       height="4"
       fill="#92d3f5"
       stroke="#92d3f5"
       stroke-linecap="round"
       stroke-linejoin="round"
       stroke-width="2"
       id="rect3" />
    <rect
       x="23"
       y="56.458302"
       width="2"
       height="4"
       fill="#92d3f5"
       stroke="#92d3f5"
       stroke-linecap="round"
       stroke-linejoin="round"
       stroke-width="2"
       id="rect4" />
    <rect
       x="48"
       y="47.436001"
       width="2"
       height="2"
       fill="#92d3f5"
       stroke="#92d3f5"
       stroke-linecap="round"
       stroke-linejoin="round"
       stroke-width="2"
       id="rect5" />
    <rect
       x="41.5"
       y="47.436001"
       width="2"
       height="2"
       fill="#92d3f5"
       stroke="#92d3f5"
       stroke-linecap="round"
       stroke-linejoin="round"
       stroke-width="2"
       id="rect6" />
    <rect
       x="35"
       y="47.436001"
       width="2"
       height="2"
       fill="#92d3f5"
       stroke="#92d3f5"
       stroke-linecap="round"
       stroke-linejoin="round"
       stroke-width="2"
       id="rect7" />
    <rect
       x="28.5"
       y="47.436001"
       width="2"
       height="2"
       fill="#92d3f5"
       stroke="#92d3f5"
       stroke-linecap="round"
       stroke-linejoin="round"
       stroke-width="2"
       id="rect8" />
    <rect
       x="22"
       y="47.436001"
       width="2"
       height="2"
       fill="#92d3f5"
       stroke="#92d3f5"
       stroke-linecap="round"
       stroke-linejoin="round"
       stroke-width="2"
       id="rect9" />
    <circle
       cx="36.0625"
       cy="12.3806"
       r="5"
       fill="#f4aa41"
       id="circle9" />
    <rect
       x="21.129299"
       y="38.436501"
       width="29.995001"
       height="5.0218"
       fill="#f4aa41"
       id="rect10" />
    <rect
       x="27"
       y="23.4079"
       width="18"
       height="4.0503998"
       fill="#f4aa41"
       id="rect11" />
    <rect
       x="25"
       y="28.487301"
       width="22"
       height="6.9710002"
       fill="#f4aa41"
       id="rect12" />
    <rect
       x="22.5874"
       y="33.520599"
       width="27.4126"
       height="3.8752999"
       fill="#f4aa41"
       id="rect13" />
    <rect
       x="29.5"
       y="19.7796"
       width="13"
       height="4.0503998"
       fill="#f4aa41"
       id="rect14" />
    <path
       fill="#e27022"
       d="m 37.5829,7.511 a 4.9687,4.9687 0 0 1 -5.0007,8.32 4.9894,4.9894 0 1 0 5.0007,-8.32 z"
       id="path14" />
    <polyline
       fill="#e27022"
       points="25.311 42.651 36.062 31.899 46.814 42.651"
       id="polyline14" />
    <polygon
       fill="#e27022"
       points="30.5,56.458 34.125,56.458 41.5,56.458 41.5,63.458 30.5,63.458 "
       id="polygon14" />
  </g>
  <g
     id="line"
     transform="translate(-16,-6.3806)">
    <rect
       x="17"
       y="43.458302"
       width="38"
       height="9.3002996"
       fill="none"
       stroke="#000000"
       stroke-linecap="round"
       stroke-linejoin="round"
       stroke-width="2"
       id="rect15" />
    <rect
       x="17"
       y="52.758598"
       width="38"
       height="10.6997"
       fill="none"
       stroke="#000000"
       stroke-linecap="round"
       stroke-linejoin="round"
       stroke-width="2"
       id="rect16" />
    <polyline
       fill="none"
       stroke="#000000"
       stroke-linecap="round"
       stroke-linejoin="round"
       stroke-width="2"
       points="43.5 38.436 51.124 38.436 51.124 43.458 21.129 43.458 21.129 38.436 28.178 38.436"
       id="polyline16" />
    <rect
       x="27"
       y="24.4079"
       width="18"
       height="4.0503998"
       fill="none"
       stroke="#000000"
       stroke-linecap="round"
       stroke-linejoin="round"
       stroke-width="2"
       id="rect17" />
    <polyline
       fill="none"
       stroke="#000000"
       stroke-linecap="round"
       stroke-linejoin="round"
       stroke-width="2"
       points="25 32.613 25 28.487 47 28.487 47 32.613"
       id="polyline17" />
    <polyline
       fill="none"
       stroke="#000000"
       stroke-linecap="round"
       stroke-linejoin="round"
       stroke-width="2"
       points="37.517 32.947 50 32.947 50 37.969 42.63 37.969"
       id="polyline18" />
    <rect
       x="29.0923"
       y="20.343901"
       width="13.8425"
       height="4.0503998"
       fill="none"
       stroke="#000000"
       stroke-linecap="round"
       stroke-linejoin="round"
       stroke-width="2"
       id="rect18" />
    <polyline
       fill="none"
       stroke="#000000"
       stroke-linecap="round"
       stroke-linejoin="round"
       stroke-width="2"
       points="25.311 42.651 36.062 31.899 46.814 42.651"
       id="polyline19" />
    <polyline
       fill="none"
       stroke="#000000"
       stroke-linecap="round"
       stroke-linejoin="round"
       stroke-width="2"
       points="29.485 37.969 22.587 37.969 22.587 32.947 34.524 32.947"
       id="polyline20" />
    <polygon
       fill="none"
       stroke="#000000"
       stroke-linecap="round"
       stroke-linejoin="round"
       stroke-width="2"
       points="30.5,56.458 34.125,56.458 41.5,56.458 41.5,63.458 30.5,63.458 "
       id="polygon20" />
    <polyline
       fill="none"
       stroke="#000000"
       stroke-linecap="round"
       stroke-linejoin="round"
       stroke-width="2"
       points="34.062 63.458 34.062 56.458 38.062 56.458 38.062 63.458"
       id="polyline21" />
    <polyline
       fill="none"
       stroke="#000000"
       stroke-linecap="round"
       stroke-linejoin="round"
       stroke-width="2"
       points="49 60.458 47 60.458 47 56.458"
       id="polyline22" />
    <polyline
       fill="none"
       stroke="#000000"
       stroke-linecap="round"
       stroke-linejoin="round"
       stroke-width="2"
       points="24 49.458 22 49.458 22 47.458"
       id="polyline23" />
    <polyline
       fill="none"
       stroke="#000000"
       stroke-linecap="round"
       stroke-linejoin="round"
       stroke-width="2"
       points="50 49.458 48 49.458 48 47.458"
       id="polyline24" />
    <polyline
       fill="none"
       stroke="#000000"
       stroke-linecap="round"
       stroke-linejoin="round"
       stroke-width="2"
       points="43.5 49.458 41.5 49.458 41.5 47.458"
       id="polyline25" />
    <polyline
       fill="none"
       stroke="#000000"
       stroke-linecap="round"
       stroke-linejoin="round"
       stroke-width="2"
       points="37 49.458 35 49.458 35 47.458"
       id="polyline26" />
    <polyline
       fill="none"
       stroke="#000000"
       stroke-linecap="round"
       stroke-linejoin="round"
       stroke-width="2"
       points="30.5 49.458 28.5 49.458 28.5 47.458"
       id="polyline27" />
    <polyline
       fill="none"
       stroke="#000000"
       stroke-linecap="round"
       stroke-linejoin="round"
       stroke-width="2"
       points="25 60.458 23 60.458 23 56.458"
       id="polyline28" />
    <circle
       cx="36.0625"
       cy="12.3806"
       r="5"
       fill="none"
       stroke="#000000"
       stroke-linecap="round"
       stroke-linejoin="round"
       stroke-width="2"
       id="circle28" />
    <line
       x1="36.0625"
       x2="36.0625"
       y1="17.6693"
       y2="20.0553"
       fill="none"
       stroke="#000000"
       stroke-linecap="round"
       stroke-linejoin="round"
       stroke-width="2"
       id="line28" />
  </g>
</svg>
