<svg xmlns="http://www.w3.org/2000/svg" xmlns:svg="http://www.w3.org/2000/svg" id="emoji" width="59.255" height="47.706" version="1.1" viewBox="0 0 59.255 47.706"><g id="color" transform="translate(-6.3723998,-11.596926)"><polygon id="polygon1" fill="#fff" points="19.815 52.539 25.186 34.359 21.746 27.031 17.419 28.499 9.931 52.603"/><path id="path1" fill="#d22f27" d="m 29.2434,22.9412 1.7632,-6.88 0.0151,-0.07 c 0.2801,-1.3514 1.154,-2.5048 2.3793,-3.14 1.9853,-0.88 4.13,0.52 4.8041,3.14 l 1.8186,7.09 13.8743,22.58 c 1.3552,2.4993 3.919,4.1076 6.759,4.24 h 2.3641 c 1.018,0.1605 1.7273,1.0966 1.6065,2.12 l -0.0753,4.7872 c 0,1.1046 -0.6589,2.4829 -1.7635,2.4829 H 59.9647 L 59.8854,54.4965 H 59.369 c -3.7218,0 -7.1777,-1.9292 -9.1309,-5.0973 L 36.4471,27.0308 h -9.2884 l 1.1244,-4.373 z"/><path id="path2" fill="#d0cfce" d="M 42.0947,48.9733 38.9366,45.2377 28.9374,28.9643 v -1.9335 h 7.51 c 0,0 9.4916,13.5437 12.46,18.3579 1.9184,3.1115 2.9723,5.03 4.7426,6.25 1.0031,0.8894 1.9461,1.8442 2.823,2.8582 h 3.4129 v 4.7908 H 47.4791 l 2.4471,-2.9847 v -4.402 c 0,-1.1046 -0.8954,-2 -2,-2 z"/><path id="path3" fill="#ea5a47" d="m 21.7457,27.0308 h -8.2518 l 2.8112,-10.97 0.0152,-0.07 c 0.2801,-1.3514 1.154,-2.5048 2.3793,-3.14 1.9853,-0.88 4.13,0.52 4.8041,3.14 l 1.8186,7.09 13.8743,22.58 c 1.3552,2.4993 3.919,4.1076 6.759,4.24 h 3.0448 c 0.5113,0 0.9258,0.4145 0.9258,0.9258 v 6.5502 c 0,0.5113 -0.4145,0.9258 -0.9258,0.9258 l -0.9839,0.9329 h -6.5551 z"/></g><g id="line" transform="translate(-6.3723998,-11.596926)"><line id="line3" x1="24.861" x2="18.52" y1="37.751" y2="58.303" fill="none" stroke="#000" stroke-linecap="round" stroke-linejoin="round" stroke-width="2"/><line id="line4" x1="16.03" x2="7.372" y1="30.243" y2="58.303" fill="none" stroke="#000" stroke-linecap="round" stroke-linejoin="round" stroke-width="2"/><line id="line5" x1="22.138" x2="15.426" y1="33.84" y2="33.84" fill="none" stroke="#000" stroke-linecap="round" stroke-linejoin="round" stroke-width="2"/><line id="line6" x1="23.595" x2="13.441" y1="40.276" y2="40.276" fill="none" stroke="#000" stroke-linecap="round" stroke-linejoin="round" stroke-width="2"/><line id="line7" x1="21.61" x2="11.455" y1="46.711" y2="46.711" fill="none" stroke="#000" stroke-linecap="round" stroke-linejoin="round" stroke-width="2"/><line id="line8" x1="19.625" x2="9.47" y1="53.147" y2="53.147" fill="none" stroke="#000" stroke-linecap="round" stroke-linejoin="round" stroke-width="2"/><polyline id="polyline8" fill="none" stroke="#000" stroke-linecap="round" stroke-linejoin="round" stroke-width="2" points="48.119 45.962 36.447 27.031 28.115 27.031"/><path id="path8" fill="none" stroke="#000" stroke-linecap="round" stroke-linejoin="round" stroke-width="2" d="m 53.2028,58.3026 h 6.6826 V 54.4965 H 59.369 c -1.9375,2e-4 -3.8388,-0.5245 -5.5019,-1.5185"/><path id="path9" fill="none" stroke="#000" stroke-linecap="round" stroke-linejoin="round" stroke-width="2" d="m 29.2434,22.9412 1.7632,-6.88 0.0151,-0.07 c 0.2801,-1.3514 1.154,-2.5048 2.3793,-3.14 1.9853,-0.88 4.13,0.52 4.8041,3.14 l 1.8186,7.09 13.8743,22.58 c 1.3552,2.4993 3.919,4.1076 6.759,4.24 h 1.9706 c 1.1046,0 2,0.8954 2,2 v 4.4018 c 0,1.1046 -0.8954,2 -2,2 h -2.7422"/><path id="path10" fill="none" stroke="#000" stroke-linecap="round" stroke-linejoin="round" stroke-width="2" d="m 21.7457,27.0308 h -8.2518 l 2.8112,-10.97 0.0152,-0.07 c 0.2801,-1.3514 1.154,-2.5048 2.3793,-3.14 1.9853,-0.88 4.13,0.52 4.8041,3.14 l 1.8186,7.09 13.8743,22.58 c 1.3552,2.4993 3.919,4.1076 6.759,4.24 h 1.9706 c 1.1046,0 2,0.8954 2,2 v 4.4018 c 0,1.1046 -0.8954,2 -2,2 h -6.9044 z"/></g></svg>