<?xml version="1.0" encoding="UTF-8" standalone="no"?>
<svg
   id="emoji"
   viewBox="0 0 57.857601 57.857601"
   version="1.1"
   sodipodi:docname="1f6de.svg"
   width="57.857601"
   height="57.857601"
   xmlns:inkscape="http://www.inkscape.org/namespaces/inkscape"
   xmlns:sodipodi="http://sodipodi.sourceforge.net/DTD/sodipodi-0.dtd"
   xmlns="http://www.w3.org/2000/svg"
   xmlns:svg="http://www.w3.org/2000/svg">
  <defs
     id="defs9" />
  <sodipodi:namedview
     id="namedview9"
     pagecolor="#ffffff"
     bordercolor="#000000"
     borderopacity="0.25"
     inkscape:showpageshadow="2"
     inkscape:pageopacity="0.0"
     inkscape:pagecheckerboard="0"
     inkscape:deskcolor="#d1d1d1" />
  <g
     id="color"
     transform="translate(-7.0711994,-7.0711994)">
    <circle
       cx="36"
       cy="36"
       r="21.297899"
       fill="#ffffff"
       id="circle1" />
    <path
       fill="#3f3f3f"
       d="M 36,8.0712 C 20.5754,8.0712 8.0712,20.5754 8.0712,36 8.0712,51.4246 20.5754,63.9288 36,63.9288 51.4246,63.9288 63.9288,51.4246 63.9288,36 63.9288,20.5754 51.4246,8.0712 36,8.0712 Z m 0,48.8445 c -11.5514,0 -20.9156,-9.3643 -20.9156,-20.9156 0,-11.5513 9.3642,-20.9157 20.9156,-20.9157 11.5514,0 20.9156,9.3642 20.9156,20.9156 0,11.5514 -9.3643,20.9156 -20.9156,20.9156 v 0 z"
       id="path1" />
    <path
       fill="#3f3f3f"
       d="m 36,29.2437 c -3.7314,0 -6.7562,3.0249 -6.7562,6.7563 0,3.7314 3.0248,6.7562 6.7562,6.7562 3.7314,0 6.7562,-3.0248 6.7562,-6.7562 0,-3.7314 -3.0248,-6.7563 -6.7562,-6.7563 z M 36,39 c -1.6569,0 -3,-1.3431 -3,-3 0,-1.6569 1.3431,-3 3,-3 1.6569,0 3,1.3431 3,3 0,1.6569 -1.3431,3 -3,3 z"
       id="path2" />
  </g>
  <g
     id="line"
     transform="translate(-7.0711994,-7.0711994)">
    <circle
       cx="36"
       cy="36"
       r="27.928801"
       fill="none"
       stroke="#000000"
       stroke-miterlimit="10"
       stroke-width="2"
       id="circle2" />
    <circle
       cx="36"
       cy="36"
       r="21.297899"
       fill="none"
       stroke="#000000"
       stroke-miterlimit="10"
       stroke-width="2"
       id="circle3" />
    <line
       x1="21.0324"
       x2="31.2227"
       y1="50.967602"
       y2="40.777302"
       fill="none"
       stroke="#000000"
       stroke-linecap="round"
       stroke-miterlimit="10"
       stroke-width="2"
       id="line3" />
    <line
       x1="41.4785"
       x2="37.748699"
       y1="56.446098"
       y2="42.526402"
       fill="none"
       stroke="#000000"
       stroke-linecap="round"
       stroke-miterlimit="10"
       stroke-width="2"
       id="line4" />
    <line
       x1="56.446098"
       x2="42.525799"
       y1="41.4785"
       y2="37.7486"
       fill="none"
       stroke="#000000"
       stroke-linecap="round"
       stroke-miterlimit="10"
       stroke-width="2"
       id="line5" />
    <line
       x1="50.967602"
       x2="40.777401"
       y1="21.0324"
       y2="31.222601"
       fill="none"
       stroke="#000000"
       stroke-linecap="round"
       stroke-miterlimit="10"
       stroke-width="2"
       id="line6" />
    <line
       x1="30.5215"
       x2="34.251701"
       y1="15.5539"
       y2="29.4751"
       fill="none"
       stroke="#000000"
       stroke-linecap="round"
       stroke-miterlimit="10"
       stroke-width="2"
       id="line7" />
    <line
       x1="15.5539"
       x2="29.473"
       y1="30.5215"
       y2="34.251099"
       fill="none"
       stroke="#000000"
       stroke-linecap="round"
       stroke-miterlimit="10"
       stroke-width="2"
       id="line8" />
    <circle
       cx="36"
       cy="36"
       r="6.7563"
       fill="none"
       stroke="#000000"
       stroke-miterlimit="10"
       stroke-width="2"
       id="circle8" />
    <circle
       cx="36"
       cy="36"
       r="3"
       fill="none"
       stroke="#000000"
       stroke-miterlimit="10"
       stroke-width="2"
       id="circle9" />
  </g>
</svg>
