<?xml version="1.0" encoding="UTF-8" standalone="no"?>
<svg
   id="emoji"
   viewBox="0 0 59.94733 59.901249"
   version="1.1"
   sodipodi:docname="1f6df.svg"
   width="59.94733"
   height="59.901249"
   xmlns:inkscape="http://www.inkscape.org/namespaces/inkscape"
   xmlns:sodipodi="http://sodipodi.sourceforge.net/DTD/sodipodi-0.dtd"
   xmlns="http://www.w3.org/2000/svg"
   xmlns:svg="http://www.w3.org/2000/svg">
  <defs
     id="defs24" />
  <sodipodi:namedview
     id="namedview24"
     pagecolor="#ffffff"
     bordercolor="#000000"
     borderopacity="0.25"
     inkscape:showpageshadow="2"
     inkscape:pageopacity="0.0"
     inkscape:pagecheckerboard="0"
     inkscape:deskcolor="#d1d1d1" />
  <g
     id="line-supplement"
     transform="translate(-5.7517926,-5.8939197)">
    <path
       fill="none"
       stroke="#000000"
       stroke-linecap="round"
       stroke-linejoin="round"
       stroke-width="2"
       d="M 16.8742,15.0481 C 2.3563,28.1948 4.886,45.9647 15.4493,56.3005 A 30.3559,30.3559 0 0 0 44.75,63.6551 C 69.6439,53.2674 68.4718,28.893 56.2756,15.7239 47.1666,5.8883 31.8768,2.4252 16.8742,15.0481 Z"
       id="path1" />
  </g>
  <g
     id="color"
     transform="translate(-5.7517926,-5.8939197)">
    <path
       fill="none"
       stroke="#d0cfce"
       stroke-linecap="round"
       stroke-linejoin="round"
       stroke-width="2"
       d="M 16.8742,15.0481 C 2.3563,28.1948 4.886,45.9647 15.4493,56.3005 A 30.3559,30.3559 0 0 0 44.75,63.6551 C 69.6439,53.2674 68.4718,28.893 56.2756,15.7239 47.1666,5.8883 31.8768,2.4252 16.8742,15.0481 Z"
       id="path2" />
    <path
       fill="#ea5a47"
       d="M 36,11 A 25,25 0 1 0 61,36 25,25 0 0 0 36,11 Z m 0,39.9874 A 14.9875,14.9875 0 1 1 50.9876,36 14.9875,14.9875 0 0 1 36,50.9874 Z"
       id="path3" />
    <path
       fill="#ffffff"
       d="m 20.8574,15.0481 a 24.3423,24.3423 0 0 0 -5.8431,5.843 l 7.8266,7.8189 a 13.5056,13.5056 0 0 1 5.5628,-5.6964 z"
       id="path4" />
    <path
       fill="#ffffff"
       d="m 57.0614,20.88 a 24.5793,24.5793 0 0 0 -5.9,-5.9 l -7.89,7.8888 a 13.6355,13.6355 0 0 1 5.9048,5.8977 z"
       id="path5" />
    <path
       fill="#ffffff"
       d="m 51.113,56.9855 a 24.3441,24.3441 0 0 0 5.8431,-5.843 L 49.13,43.3237 A 13.5058,13.5058 0 0 1 43.5666,49.02 Z"
       id="path6" />
    <path
       fill="#ffffff"
       d="m 14.7922,51.3478 a 24.9933,24.9933 0 0 0 6,6 l 8.0237,-8.0224 a 13.8661,13.8661 0 0 1 -6.0047,-5.9976 z"
       id="path7" />
    <path
       fill="#d22f27"
       d="m 49.1986,43.3237 2.3154,2.3131 A 18.0762,18.0762 0 0 0 51.4361,26.5751 l -2.1909,2.1913 A 13.6339,13.6339 0 0 0 43.34,22.8687 l 2.1814,-2.181 a 18.0808,18.0808 0 0 0 -19.18,0.0765 l 2.1308,2.2493 A 13.5059,13.5059 0 0 0 22.91,28.71 L 20.6366,26.4389 A 18.0873,18.0873 0 0 0 20.5118,45.6961 L 22.88,43.3274 a 13.8663,13.8663 0 0 0 6.0048,5.9976 l -2.3615,2.3611 a 18.1038,18.1038 0 0 0 19.3843,-0.268 L 43.6358,49.02 a 13.5062,13.5062 0 0 0 5.5628,-5.6963 z M 21.1036,36 A 14.9876,14.9876 0 1 1 36.0911,50.9874 14.9876,14.9876 0 0 1 21.1036,36 Z"
       id="path8" />
    <path
       fill="#d0cfce"
       d="M 28.551,22.8413 26.42,20.592 a 18.2635,18.2635 0 0 0 -5.7053,5.6746 l 2.2734,2.2711 a 13.5062,13.5062 0 0 1 5.5629,-5.6964 z"
       id="path9" />
    <path
       fill="#d0cfce"
       d="m 49.3234,28.5942 2.191,-2.1913 A 18.2586,18.2586 0 0 0 45.6,20.5155 l -2.1814,2.181 a 13.6342,13.6342 0 0 1 5.9048,5.8977 z"
       id="path10" />
    <path
       fill="#d0cfce"
       d="m 51.5922,45.4646 -2.3154,-2.3131 a 13.5059,13.5059 0 0 1 -5.5627,5.6964 l 2.2717,2.398 a 18.2661,18.2661 0 0 0 5.6064,-5.7813 z"
       id="path11" />
    <path
       fill="#d0cfce"
       d="M 22.9582,43.1552 20.59,45.5239 a 18.26,18.26 0 0 0 6.0115,5.99 l 2.3616,-2.3611 a 13.8666,13.8666 0 0 1 -6.0049,-5.9976 z"
       id="path12" />
  </g>
  <g
     id="line"
     transform="translate(-5.7517926,-5.8939197)">
    <path
       fill="none"
       stroke="#000000"
       stroke-linecap="round"
       stroke-linejoin="round"
       stroke-width="2"
       d="m 15.3611,50.1122 a 25.0141,25.0141 0 0 1 -0.0915,-28.09"
       id="path13" />
    <path
       fill="none"
       stroke="#000000"
       stroke-linecap="round"
       stroke-linejoin="round"
       stroke-width="2"
       d="M 50.0832,56.6588 A 25.0144,25.0144 0 0 1 22.0223,56.7304"
       id="path14" />
    <path
       fill="none"
       stroke="#000000"
       stroke-linecap="round"
       stroke-linejoin="round"
       stroke-width="2"
       d="M 56.6288,21.8731 A 25.014,25.014 0 0 1 56.73,49.9777"
       id="path15" />
    <path
       fill="none"
       stroke="#000000"
       stroke-linecap="round"
       stroke-linejoin="round"
       stroke-width="2"
       d="m 21.8739,15.3706 a 25.0141,25.0141 0 0 1 28.1038,-0.101"
       id="path16" />
    <path
       fill="none"
       stroke="#000000"
       stroke-linecap="round"
       stroke-linejoin="round"
       stroke-width="2"
       d="m 20.8574,15.0481 a 24.3423,24.3423 0 0 0 -5.8431,5.843 l 7.8266,7.8189 a 13.5056,13.5056 0 0 1 5.5628,-5.6964 z"
       id="path17" />
    <path
       stroke="#000000"
       stroke-linecap="round"
       stroke-linejoin="round"
       stroke-width="2"
       d="M 18.3305,16.4054 16.338,14.3022 a 7.712,7.712 0 0 0 -1.851,1.8509 l 2.05,2.0478"
       id="path18" />
    <path
       stroke="#000000"
       stroke-linecap="round"
       stroke-linejoin="round"
       stroke-width="2"
       d="m 55.7109,18.1848 2.1032,-1.9925 a 7.712,7.712 0 0 0 -1.8509,-1.851 l -2.0479,2.05"
       id="path19" />
    <path
       stroke="#000000"
       stroke-linecap="round"
       stroke-linejoin="round"
       stroke-width="2"
       d="m 53.9706,55.6468 1.9925,2.1032 a 7.71,7.71 0 0 0 1.851,-1.8509 l -2.05,-2.0479"
       id="path20" />
    <path
       stroke="#000000"
       stroke-linecap="round"
       stroke-linejoin="round"
       stroke-width="2"
       d="m 16.1538,54.0667 -2.1032,1.9926 a 7.71,7.71 0 0 0 1.851,1.8509 l 2.0478,-2.05"
       id="path21" />
    <path
       fill="none"
       stroke="#000000"
       stroke-linecap="round"
       stroke-linejoin="round"
       stroke-width="2"
       d="m 57.0614,20.88 a 24.5793,24.5793 0 0 0 -5.9,-5.9 l -7.89,7.8888 a 13.6355,13.6355 0 0 1 5.9048,5.8977 z"
       id="path22" />
    <path
       fill="none"
       stroke="#000000"
       stroke-linecap="round"
       stroke-linejoin="round"
       stroke-width="2"
       d="m 51.113,56.9855 a 24.3441,24.3441 0 0 0 5.8431,-5.843 L 49.13,43.3237 A 13.5058,13.5058 0 0 1 43.5666,49.02 Z"
       id="path23" />
    <path
       fill="none"
       stroke="#000000"
       stroke-linecap="round"
       stroke-linejoin="round"
       stroke-width="2"
       d="m 14.7922,51.3478 a 24.9933,24.9933 0 0 0 6,6 l 8.0237,-8.0224 a 13.8661,13.8661 0 0 1 -6.0047,-5.9976 z"
       id="path24" />
    <circle
       cx="36.000099"
       cy="36.170101"
       r="14.9875"
       fill="none"
       stroke="#000000"
       stroke-linecap="round"
       stroke-linejoin="round"
       stroke-width="2"
       id="circle24" />
  </g>
</svg>
