<?xml version="1.0" encoding="UTF-8" standalone="no"?>
<svg
   id="emoji"
   viewBox="0 0 51.699799 52.155449"
   version="1.1"
   sodipodi:docname="1f6d0.svg"
   width="51.699799"
   height="52.155449"
   xmlns:inkscape="http://www.inkscape.org/namespaces/inkscape"
   xmlns:sodipodi="http://sodipodi.sourceforge.net/DTD/sodipodi-0.dtd"
   xmlns="http://www.w3.org/2000/svg"
   xmlns:svg="http://www.w3.org/2000/svg">
  <defs
     id="defs4" />
  <sodipodi:namedview
     id="namedview4"
     pagecolor="#ffffff"
     bordercolor="#000000"
     borderopacity="0.25"
     inkscape:showpageshadow="2"
     inkscape:pageopacity="0.0"
     inkscape:pagecheckerboard="0"
     inkscape:deskcolor="#d1d1d1" />
  <g
     id="color"
     transform="translate(-10.07396,-9.8087568)">
    <polygon
       fill="#ffffff"
       points="34.5983,49.0069 34.4868,47.2231 35.676,45.588 36.9395,49.1927 "
       id="polygon1" />
    <circle
       cx="32.02"
       cy="25.040001"
       r="3"
       fill="#fcea2b"
       stroke="#fcea2b"
       stroke-linecap="round"
       stroke-linejoin="round"
       stroke-width="1.8"
       id="circle1" />
    <path
       fill="#fcea2b"
       stroke="#fcea2b"
       stroke-linecap="round"
       stroke-linejoin="round"
       stroke-width="1.8"
       d="m 47.86,53.59 -1.4895,2.9113 c -0.2151,0.4204 -0.1054,0.9638 0.3007,1.2048 0.3727,0.2212 0.6688,0.6192 0.6688,1.3239 0,1.91 -1.82,1.93 -1.82,1.93 L 32.21,60.94 c 0,0 -5.72,0.61 -5.72,-4.62 0,-5.05 5.31,-5.14 5.7,-5.14 h 6.3304 c 0.5494,0 0.9902,-0.4627 0.9455,-1.0103 -0.2579,-3.161 -2.6477,-9.2505 -4.7459,-6.4887 -0.3418,0.4495 -2.372,2.349 -3.272,2.87 -2.74,1.584 -9.22,-3.191 -8.526,-6.356 0.0952,-0.434 4.15,5.601 6.753,4.617 1.2358,-0.4677 2.994,-4.5673 3.325,-5.569 0.01,-0.0303 0.0161,-0.0542 0.023,-0.0853 0.5231,-2.367 1.557,-5.6653 4.528,-7.0266 5.23,-2.41 14.21,14.38 10.31,21.46 l -10e-4,-10e-4 z"
       id="path1" />
  </g>
  <g
     id="line"
     transform="translate(-10.07396,-9.8087568)">
    <circle
       cx="32.02"
       cy="25.040001"
       r="3"
       fill="none"
       stroke="#000000"
       stroke-linecap="round"
       stroke-linejoin="round"
       stroke-width="2"
       id="circle2" />
    <path
       fill="none"
       stroke="#000000"
       stroke-linecap="round"
       stroke-linejoin="round"
       stroke-width="2"
       d="m 36.54,43.58 c 2.15,2.33 2.92,7.6 2.92,7.6 l -6.848,-0.0016 c 0,0 -6.124,-0.094 -6.124,5.138 0,5.232 5.724,4.624 5.724,4.624 l 13.31,0.0216 c 0,0 1.824,-0.0216 1.824,-1.932 0,-1.9104 -2.171,-1.563 -2.171,-1.563 h -8.004 l -5.206,-1.39"
       id="path2" />
    <path
       fill="none"
       stroke="#000000"
       stroke-linecap="round"
       stroke-linejoin="round"
       stroke-width="2"
       d="m 23.29,39.46 c 0,0 2.67,4.92 6.02,4.92 3.35,0 1.649,-9.221 8.239,-12.25 5.227,-2.407 14.21,14.38 10.31,21.46"
       id="path3" />
    <path
       fill="#000000"
       d="m 10.6165,24.0605 c -0.5261,0.2976 -0.7008,0.972 -0.3852,1.4876 l 0.0064,0.0105 c 0.2621,0.4282 0.8167,0.5711 1.2531,0.3229 L 35.8396,12.0338 c 0.0737,-0.0419 0.1637,-0.0427 0.2381,-0.0021 l 24.3348,13.2849 c 0.4454,0.2432 1.0037,0.0729 1.2376,-0.3774 v 0 c 0.2752,-0.5297 0.076,-1.1821 -0.448,-1.4679 L 36.3249,9.8903 C 36.1227,9.7799 35.8779,9.7817 35.6774,9.8951 Z"
       id="path4" />
  </g>
</svg>
