<?xml version="1.0" encoding="UTF-8" standalone="no"?>
<svg
   id="emoji"
   viewBox="0 0 64.558815 23.747782"
   version="1.1"
   sodipodi:docname="1f6eb.svg"
   width="64.558815"
   height="23.747782"
   xmlns:inkscape="http://www.inkscape.org/namespaces/inkscape"
   xmlns:sodipodi="http://sodipodi.sourceforge.net/DTD/sodipodi-0.dtd"
   xmlns="http://www.w3.org/2000/svg"
   xmlns:svg="http://www.w3.org/2000/svg">
  <defs
     id="defs4" />
  <sodipodi:namedview
     id="namedview4"
     pagecolor="#ffffff"
     bordercolor="#000000"
     borderopacity="0.25"
     inkscape:showpageshadow="2"
     inkscape:pageopacity="0.0"
     inkscape:pagecheckerboard="0"
     inkscape:deskcolor="#d1d1d1" />
  <g
     id="color"
     transform="translate(-3.4746928,-25.091787)">
    <polyline
       fill="#9b9b9a"
       stroke="none"
       points="24,39.5 8.1194,34.5078 3.6819,35.8828 13.3,45"
       id="polyline1" />
    <path
       fill="#d0cfce"
       stroke="none"
       d="m 42.5887,30.5 13.6352,-4.637 c 0,0 13.4999,-0.2289 10.3294,3.2551 -3.1706,3.484 -25.4249,12.196 -32.0018,14.6509 -6.5769,2.455 -14.7118,3.7502 -20.337,3.8592 -4.9236,0.0953 0.5896,-2.8912 0.5896,-2.8912 0,0 6.2557,-3.55 9.0249,-4.7568 l 2.6347,-1.9489"
       id="path1" />
    <polyline
       fill="#9b9b9a"
       stroke="none"
       points="48.2,35 22.4454,32.6408 20.3515,34.1342 38,40.5"
       id="polyline2" />
  </g>
  <g
     id="hair"
     transform="translate(-3.4746928,-25.091787)" />
  <g
     id="skin"
     transform="translate(-3.4746928,-25.091787)" />
  <g
     id="skin-shadow"
     transform="translate(-3.4746928,-25.091787)" />
  <g
     id="line"
     transform="translate(-3.4746928,-25.091787)">
    <polyline
       fill="none"
       stroke="#000000"
       stroke-linecap="round"
       stroke-linejoin="round"
       stroke-miterlimit="10"
       stroke-width="2"
       points="19.9738,39.1394 7.5418,34.7361 4.4746,35.8087 12.6436,43.1314"
       id="polyline3" />
    <polyline
       fill="none"
       stroke="#000000"
       stroke-linecap="round"
       stroke-linejoin="round"
       stroke-miterlimit="10"
       stroke-width="2"
       points="47.0508,34.6931 22.4454,32.6408 20.3515,34.1342 37.1065,40.1126"
       id="polyline4" />
    <path
       fill="none"
       stroke="#000000"
       stroke-linecap="round"
       stroke-linejoin="round"
       stroke-miterlimit="10"
       stroke-width="2"
       d="m 43.174,31.3231 11.1493,-4.4864 c 1.3266,-0.5338 2.7434,-0.7839 4.1727,-0.74 3.6995,0.1136 10.3898,0.6672 8.0573,3.2304 -3.1706,3.4839 -25.4249,12.196 -32.0018,14.6509 -6.5769,2.4549 -14.7118,3.7502 -20.337,3.8591 -4.9236,0.0953 0.5896,-2.8912 0.5896,-2.8912 0,0 6.2557,-3.55 9.0249,-4.7568 l 2.7841,-1.2132"
       id="path4" />
  </g>
</svg>
