<svg xmlns="http://www.w3.org/2000/svg" xmlns:svg="http://www.w3.org/2000/svg" id="emoji" width="57.129" height="34.316" version="1.1" viewBox="0 0 57.129 34.316"><g id="color" transform="translate(-7.9545872,-13.893145)"><path id="path1" fill="#d0cfce" stroke="none" d="m 43.1374,33.3 11.8622,4.1237 c 1.2058,0.4192 2.3293,1.0434 3.315,1.8546 2.8064,2.3099 8.0677,7.0692 4.5695,7.67 -4.6427,0.7974 -27.5488,-6.0191 -34.2446,-8.128 -6.6959,-2.1089 -13.9071,-6.0905 -18.4098,-9.464 -3.941,-2.9528 2.243,-1.9173 2.243,-1.9173 0,0 7.116,1.0479 10.0418,1.7994 l 3.2761,0.0835"/><polyline id="polyline1" fill="#9b9b9a" stroke="none" points="23.5 29.423 14.69 16.109 10.345 14.464 11.4 27.956"/><polyline id="polyline2" fill="#9b9b9a" stroke="none" points="44 40.2 26.105 22.62 23.535 22.51 33.4 38.4"/></g><g id="line" transform="translate(-7.9545872,-13.893145)"><polyline id="polyline3" fill="none" stroke="#000" stroke-linecap="round" stroke-linejoin="round" stroke-miterlimit="10" stroke-width="2" points="20.382 26.398 14.094 15.934 11.016 14.893 12.147 25.038"/><polyline id="polyline4" fill="none" stroke="#000" stroke-linecap="round" stroke-linejoin="round" stroke-miterlimit="10" stroke-width="2" points="44.245 39.371 26.105 22.62 23.535 22.51 33.07 37.529"/><circle id="ellipse4" cx="32.453" cy="44.192" r="2" fill="#000" stroke="none"/><circle id="ellipse5" cx="37.772" cy="45.77" r="2" fill="#000" stroke="none"/><path id="path5" fill="none" stroke="#000" stroke-linecap="round" stroke-linejoin="round" stroke-miterlimit="10" stroke-width="2" d="m 43.2603,34.3292 11.4341,3.2856 c 1.4513,0.417 2.7953,1.1264 3.9549,2.0935 2.86,2.3851 7.6527,6.8448 4.2739,7.425 -4.6427,0.7974 -27.5488,-6.0191 -34.2447,-8.128 -6.6958,-2.109 -13.907,-6.0905 -18.4097,-9.4641 -3.941,-2.9527 2.243,-1.9172 2.243,-1.9172 0,0 7.116,1.0479 10.0418,1.7994 l 2.9414,0.7554"/></g></svg>