<?xml version="1.0" encoding="UTF-8" standalone="no"?>
<svg
   id="emoji"
   viewBox="0 0 56.184231 53.901566"
   version="1.1"
   sodipodi:docname="1f6e0.svg"
   width="56.184231"
   height="53.901566"
   xmlns:inkscape="http://www.inkscape.org/namespaces/inkscape"
   xmlns:sodipodi="http://sodipodi.sourceforge.net/DTD/sodipodi-0.dtd"
   xmlns="http://www.w3.org/2000/svg"
   xmlns:svg="http://www.w3.org/2000/svg">
  <defs
     id="defs6" />
  <sodipodi:namedview
     id="namedview6"
     pagecolor="#ffffff"
     bordercolor="#000000"
     borderopacity="0.25"
     inkscape:showpageshadow="2"
     inkscape:pageopacity="0.0"
     inkscape:pagecheckerboard="0"
     inkscape:deskcolor="#d1d1d1" />
  <g
     id="color"
     transform="translate(-5.9383053,-9.3253936)">
    <path
       fill="#d0cfce"
       stroke="none"
       d="m 9.5037,22.9282 4.7907,6.4314 v 0 c -0.4471,1.2757 -1.6109,2.1572 -2.9506,2.2346 v 0 L 6.5531,25.1628 v 0 c 0.2042,-1.4367 1.5252,-2.4372 2.9506,-2.2346 z"
       id="path1" />
    <polygon
       fill="#9b9b9a"
       stroke="none"
       points="23.9661,61.9889 45.813,34.6609 48.0968,31.9466 42.9334,27.8189 18.4324,58.077 "
       id="polygon1" />
    <path
       fill="#9b9b9a"
       stroke="none"
       d="m 46.7811,32.0332 c 3.2442,2.5754 8.6578,1.1565 12.0916,-3.169 3.4338,-4.3255 3.5876,-9.9199 0.3434,-12.4953 l -5.1471,6.4838 -2.8327,-0.0507 -0.6772,-2.7661 5.1323,-6.4651 c -3.2442,-2.5754 -8.6578,-1.1565 -12.0916,3.169 -3.4338,4.3255 -3.5876,9.9199 -0.3434,12.4953"
       id="path2" />
    <polygon
       fill="#a57939"
       stroke="none"
       points="42.5132,44.0908 51.6308,58.4759 51.6308,58.4759 48.4324,60.7522 47.3663,61.511 37.1826,47.8846 35.8987,43.9813 24.1483,28.2586 27.3466,25.9823 39.097,41.705 "
       id="polygon2" />
    <path
       fill="#9b9b9a"
       stroke="none"
       d="m 12.0253,19.9354 5.9453,7.9154 10.177,-7.6439 -3.3973,-4.5231 c 0,0 6.7846,-5.0959 10.7448,-4.5331 0,0 -6.6489,-2.9652 -13.2928,1.1407 -6.6439,4.1059 -10.177,7.644 -10.177,7.644 z"
       id="path3" />
  </g>
  <g
     id="hair"
     transform="translate(-5.9383053,-9.3253936)" />
  <g
     id="skin"
     transform="translate(-5.9383053,-9.3253936)" />
  <g
     id="skin-shadow"
     transform="translate(-5.9383053,-9.3253936)" />
  <g
     id="line"
     transform="translate(-5.9383053,-9.3253936)">
    <line
       x1="41.7188"
       x2="46.781101"
       y1="38.509201"
       y2="32.033199"
       fill="#000000"
       stroke="none"
       id="line3" />
    <line
       x1="43.3629"
       x2="38.703201"
       y1="29.3197"
       y2="35.080002"
       fill="#000000"
       stroke="none"
       id="line4" />
    <polygon
       fill="none"
       stroke="#000000"
       stroke-linecap="round"
       stroke-linejoin="round"
       stroke-miterlimit="10"
       stroke-width="2"
       points="37.8076,40.9408 27.2299,26.2257 24.2936,28.3506 34.8713,43.0658 36.0081,46.7171 47.4967,62.227 52,58.9064 40.9019,43.1756 "
       id="polygon4" />
    <path
       fill="none"
       stroke="#000000"
       stroke-linecap="round"
       stroke-linejoin="round"
       stroke-miterlimit="10"
       stroke-width="2"
       d="m 12.5106,19.7899 5.7909,8.029 10.323,-7.4455 -3.3091,-4.588 c 0,0 6.882,-4.9637 10.8306,-4.3242 0,0 -6.5903,-3.0933 -13.3124,0.8832 -6.7221,3.9765 -10.323,7.4455 -10.323,7.4455 z"
       id="path4" />
    <path
       fill="none"
       stroke="#000000"
       stroke-linecap="round"
       stroke-linejoin="round"
       stroke-miterlimit="10"
       stroke-width="2"
       d="m 9.9316,22.7333 4.6653,6.5229 v 0 c -0.4717,1.2669 -1.6524,2.1256 -2.9933,2.1771 v 0 L 6.9383,24.9104 v 0 c 0.2319,-1.4325 1.5721,-2.4073 2.9933,-2.1771 z"
       id="path5" />
    <line
       x1="41.289299"
       x2="46.351601"
       y1="38.509201"
       y2="32.033199"
       fill="none"
       stroke="#000000"
       stroke-linecap="round"
       stroke-linejoin="round"
       stroke-miterlimit="10"
       stroke-width="2"
       id="line5" />
    <line
       x1="42.933399"
       x2="38.273701"
       y1="29.3197"
       y2="35.080002"
       fill="none"
       stroke="#000000"
       stroke-linecap="round"
       stroke-linejoin="round"
       stroke-miterlimit="10"
       stroke-width="2"
       id="line6" />
    <path
       fill="none"
       stroke="#000000"
       stroke-linecap="round"
       stroke-linejoin="round"
       stroke-miterlimit="10"
       stroke-width="2"
       d="m 46.3516,32.0332 c 3.2442,2.5754 8.6578,1.1565 12.0916,-3.169 3.4338,-4.3255 3.5876,-9.9199 0.3434,-12.4953 l -5.1471,6.4838 -2.8327,-0.0507 -0.6772,-2.7661 5.1323,-6.4651 c -3.2442,-2.5754 -8.6578,-1.1565 -12.0916,3.169 -3.4338,4.3256 -3.5876,9.9199 -0.3434,12.4953"
       id="path6" />
    <polyline
       fill="none"
       stroke="#000000"
       stroke-linecap="round"
       stroke-linejoin="round"
       stroke-miterlimit="10"
       stroke-width="2"
       points="30.818,44.3856 19,58.9064 23,61.9064 32.9587,49.1665"
       id="polyline6" />
  </g>
</svg>
