<svg xmlns="http://www.w3.org/2000/svg" xmlns:svg="http://www.w3.org/2000/svg" id="emoji" width="64.559" height="23.748" version="1.1" viewBox="0 0 64.559 23.748"><g id="color" transform="translate(-3.4746928,-25.091787)"><polyline id="polyline1" fill="#9b9b9a" stroke="none" points="24 39.5 8.119 34.508 3.682 35.883 13.3 45"/><path id="path1" fill="#d0cfce" stroke="none" d="m 42.5887,30.5 13.6352,-4.637 c 0,0 13.4999,-0.2289 10.3294,3.2551 -3.1706,3.484 -25.4249,12.196 -32.0018,14.6509 -6.5769,2.455 -14.7118,3.7502 -20.337,3.8592 -4.9236,0.0953 0.5896,-2.8912 0.5896,-2.8912 0,0 6.2557,-3.55 9.0249,-4.7568 l 2.6347,-1.9489"/><polyline id="polyline2" fill="#9b9b9a" stroke="none" points="48.2 35 22.445 32.641 20.352 34.134 38 40.5"/></g><g id="line" transform="translate(-3.4746928,-25.091787)"><polyline id="polyline3" fill="none" stroke="#000" stroke-linecap="round" stroke-linejoin="round" stroke-miterlimit="10" stroke-width="2" points="19.974 39.139 7.542 34.736 4.475 35.809 12.644 43.131"/><polyline id="polyline4" fill="none" stroke="#000" stroke-linecap="round" stroke-linejoin="round" stroke-miterlimit="10" stroke-width="2" points="47.051 34.693 22.445 32.641 20.352 34.134 37.106 40.113"/><path id="path4" fill="none" stroke="#000" stroke-linecap="round" stroke-linejoin="round" stroke-miterlimit="10" stroke-width="2" d="m 43.174,31.3231 11.1493,-4.4864 c 1.3266,-0.5338 2.7434,-0.7839 4.1727,-0.74 3.6995,0.1136 10.3898,0.6672 8.0573,3.2304 -3.1706,3.4839 -25.4249,12.196 -32.0018,14.6509 -6.5769,2.4549 -14.7118,3.7502 -20.337,3.8591 -4.9236,0.0953 0.5896,-2.8912 0.5896,-2.8912 0,0 6.2557,-3.55 9.0249,-4.7568 l 2.7841,-1.2132"/></g></svg>