<svg xmlns="http://www.w3.org/2000/svg" xmlns:svg="http://www.w3.org/2000/svg" id="emoji" width="50" height="39.83" version="1.1" viewBox="0 0 50 39.83"><g id="color" transform="translate(-11,-16.17)"><rect id="rect1" width="50" height="38.83" x="11" y="17.17" fill="#b1cc33"/><polygon id="polygon1" fill="#6a462f" points="11 56 15.989 56 55.978 56 61 56 56 43.649 45.436 17.552 26.564 17.552 16 43.649"/><polygon id="polygon2" fill="#a57939" points="53.925 49.653 56 54.941 16 54.941 18.075 49.653"/><polygon id="polygon3" fill="#a57939" points="50.829 41.761 21.171 41.761 19.174 46.852 52.826 46.852"/><polygon id="polygon4" fill="#a57939" points="47.836 33.93 24.164 33.93 22.199 38.939 49.801 38.939"/><polygon id="polygon5" fill="#a57939" points="44.586 25.848 27.414 25.848 25.351 31.108 46.649 31.108"/><polygon id="polygon6" fill="#a57939" points="41.512 18.682 30.046 18.682 28.509 23.059 43.491 23.059"/></g><g id="line" transform="translate(-11,-16.17)"><line id="line6" x1="12.233" x2="59.935" y1="17.17" y2="17.17" fill="none" stroke="#000" stroke-linecap="round" stroke-linejoin="round" stroke-width="2"/><polygon id="polygon7" fill="none" stroke="#000" stroke-linecap="round" stroke-linejoin="round" stroke-width="2" points="53.925 49.653 56 54.941 16 54.941 18.075 49.653"/><polygon id="polygon8" fill="none" stroke="#000" stroke-linecap="round" stroke-linejoin="round" stroke-width="2" points="50.829 41.761 21.171 41.761 19.174 46.852 52.826 46.852"/><polygon id="polygon9" fill="none" stroke="#000" stroke-linecap="round" stroke-linejoin="round" stroke-width="2" points="47.836 33.93 24.164 33.93 22.199 38.939 49.801 38.939"/><polygon id="polygon10" fill="none" stroke="#000" stroke-linecap="round" stroke-linejoin="round" stroke-width="2" points="44.586 25.848 27.414 25.848 25.351 31.108 46.649 31.108"/><polygon id="polygon11" fill="none" stroke="#000" stroke-linecap="round" stroke-linejoin="round" stroke-width="2" points="41.512 18.682 30.046 18.682 28.509 23.059 43.491 23.059"/><line id="line11" x1="23.199" x2="32.891" y1="54.526" y2="18.725" fill="none" stroke="#000" stroke-linecap="round" stroke-linejoin="round" stroke-width="2"/><line id="line12" x1="48.801" x2="39.109" y1="54.526" y2="18.725" fill="none" stroke="#000" stroke-linecap="round" stroke-linejoin="round" stroke-width="2"/></g></svg>