<svg xmlns="http://www.w3.org/2000/svg" xmlns:svg="http://www.w3.org/2000/svg" id="emoji" width="56.184" height="53.902" version="1.1" viewBox="0 0 56.184 53.902"><g id="color" transform="translate(-5.9383053,-9.3253936)"><path id="path1" fill="#d0cfce" stroke="none" d="m 9.5037,22.9282 4.7907,6.4314 v 0 c -0.4471,1.2757 -1.6109,2.1572 -2.9506,2.2346 v 0 L 6.5531,25.1628 v 0 c 0.2042,-1.4367 1.5252,-2.4372 2.9506,-2.2346 z"/><polygon id="polygon1" fill="#9b9b9a" stroke="none" points="23.966 61.989 45.813 34.661 48.097 31.947 42.933 27.819 18.432 58.077"/><path id="path2" fill="#9b9b9a" stroke="none" d="m 46.7811,32.0332 c 3.2442,2.5754 8.6578,1.1565 12.0916,-3.169 3.4338,-4.3255 3.5876,-9.9199 0.3434,-12.4953 l -5.1471,6.4838 -2.8327,-0.0507 -0.6772,-2.7661 5.1323,-6.4651 c -3.2442,-2.5754 -8.6578,-1.1565 -12.0916,3.169 -3.4338,4.3255 -3.5876,9.9199 -0.3434,12.4953"/><polygon id="polygon2" fill="#a57939" stroke="none" points="42.513 44.091 51.631 58.476 51.631 58.476 48.432 60.752 47.366 61.511 37.183 47.885 35.899 43.981 24.148 28.259 27.347 25.982 39.097 41.705"/><path id="path3" fill="#9b9b9a" stroke="none" d="m 12.0253,19.9354 5.9453,7.9154 10.177,-7.6439 -3.3973,-4.5231 c 0,0 6.7846,-5.0959 10.7448,-4.5331 0,0 -6.6489,-2.9652 -13.2928,1.1407 -6.6439,4.1059 -10.177,7.644 -10.177,7.644 z"/></g><g id="line" transform="translate(-5.9383053,-9.3253936)"><line id="line3" x1="41.719" x2="46.781" y1="38.509" y2="32.033" fill="#000" stroke="none"/><line id="line4" x1="43.363" x2="38.703" y1="29.32" y2="35.08" fill="#000" stroke="none"/><polygon id="polygon4" fill="none" stroke="#000" stroke-linecap="round" stroke-linejoin="round" stroke-miterlimit="10" stroke-width="2" points="37.808 40.941 27.23 26.226 24.294 28.351 34.871 43.066 36.008 46.717 47.497 62.227 52 58.906 40.902 43.176"/><path id="path4" fill="none" stroke="#000" stroke-linecap="round" stroke-linejoin="round" stroke-miterlimit="10" stroke-width="2" d="m 12.5106,19.7899 5.7909,8.029 10.323,-7.4455 -3.3091,-4.588 c 0,0 6.882,-4.9637 10.8306,-4.3242 0,0 -6.5903,-3.0933 -13.3124,0.8832 -6.7221,3.9765 -10.323,7.4455 -10.323,7.4455 z"/><path id="path5" fill="none" stroke="#000" stroke-linecap="round" stroke-linejoin="round" stroke-miterlimit="10" stroke-width="2" d="m 9.9316,22.7333 4.6653,6.5229 v 0 c -0.4717,1.2669 -1.6524,2.1256 -2.9933,2.1771 v 0 L 6.9383,24.9104 v 0 c 0.2319,-1.4325 1.5721,-2.4073 2.9933,-2.1771 z"/><line id="line5" x1="41.289" x2="46.352" y1="38.509" y2="32.033" fill="none" stroke="#000" stroke-linecap="round" stroke-linejoin="round" stroke-miterlimit="10" stroke-width="2"/><line id="line6" x1="42.933" x2="38.274" y1="29.32" y2="35.08" fill="none" stroke="#000" stroke-linecap="round" stroke-linejoin="round" stroke-miterlimit="10" stroke-width="2"/><path id="path6" fill="none" stroke="#000" stroke-linecap="round" stroke-linejoin="round" stroke-miterlimit="10" stroke-width="2" d="m 46.3516,32.0332 c 3.2442,2.5754 8.6578,1.1565 12.0916,-3.169 3.4338,-4.3255 3.5876,-9.9199 0.3434,-12.4953 l -5.1471,6.4838 -2.8327,-0.0507 -0.6772,-2.7661 5.1323,-6.4651 c -3.2442,-2.5754 -8.6578,-1.1565 -12.0916,3.169 -3.4338,4.3256 -3.5876,9.9199 -0.3434,12.4953"/><polyline id="polyline6" fill="none" stroke="#000" stroke-linecap="round" stroke-linejoin="round" stroke-miterlimit="10" stroke-width="2" points="30.818 44.386 19 58.906 23 61.906 32.959 49.166"/></g></svg>