<?xml version="1.0" encoding="UTF-8" standalone="no"?>
<svg
   id="emoji"
   viewBox="0 0 55.2854 38.607052"
   version="1.1"
   sodipodi:docname="1f6fa.svg"
   width="55.2854"
   height="38.607052"
   xmlns:inkscape="http://www.inkscape.org/namespaces/inkscape"
   xmlns:sodipodi="http://sodipodi.sourceforge.net/DTD/sodipodi-0.dtd"
   xmlns="http://www.w3.org/2000/svg"
   xmlns:svg="http://www.w3.org/2000/svg">
  <defs
     id="defs9" />
  <sodipodi:namedview
     id="namedview9"
     pagecolor="#ffffff"
     bordercolor="#000000"
     borderopacity="0.25"
     inkscape:showpageshadow="2"
     inkscape:pageopacity="0.0"
     inkscape:pagecheckerboard="0"
     inkscape:deskcolor="#d1d1d1" />
  <g
     id="color"
     transform="translate(-11.0817,-16.95625)">
    <path
       fill="#ffffff"
       d="m 21.1281,18.9106 c 0,0 1.3542,23.9889 7.4804,25.4076 l 34.7581,-1.2897 0.0645,-22.1833 c 0,0 -0.2579,-1.5477 -1.8056,-1.8056 -1.5477,-0.2579 -40.4974,-0.129 -40.4974,-0.129 z"
       id="path1" />
    <path
       fill="#6a462f"
       d="m 20.2992,19 c 0,0 -1.1617,18.5109 9.2929,25.5631 H 19 c 0,0 -7.0974,-7.155 1.2992,-25.5631 z"
       id="path2" />
    <polygon
       fill="#6a462f"
       points="64.22,43.514 43,43.514 43,38 44,38 64.22,38 "
       id="polygon2" />
    <circle
       cx="17.0818"
       cy="49.563202"
       r="5.0001001"
       fill="#d0cfce"
       id="circle2" />
    <circle
       cx="54.6092"
       cy="49.563202"
       r="5.0001001"
       fill="#d0cfce"
       id="circle3" />
  </g>
  <g
     id="line"
     transform="translate(-11.0817,-16.95625)">
    <polyline
       fill="none"
       stroke="#000000"
       stroke-linecap="round"
       stroke-linejoin="round"
       stroke-width="2"
       points="23.718 37 27.588 37 28.389 29.575"
       id="polyline3" />
    <path
       fill="none"
       stroke="#000000"
       stroke-linecap="round"
       stroke-linejoin="round"
       stroke-width="2.0875"
       d="M 64.22,44.5631 H 19 L 17.4022,41.6 C 16.4819,39.8934 16,37.9848 16,36.0458 V 35.2805 C 15.9538,33.7642 16.1564,32.2507 16.6,30.8 L 19,22 c 0,-1.4712 1.5288,-4 3,-4 l 39.5557,0.3893 c 1.4712,-3e-4 2.664,1.1921 2.6643,2.6633 z"
       id="path3" />
    <line
       x1="45.7985"
       x2="25.218201"
       y1="48.4706"
       y2="48.4706"
       fill="none"
       stroke="#000000"
       stroke-linecap="round"
       stroke-linejoin="round"
       stroke-width="2"
       id="line3" />
    <circle
       cx="17.0818"
       cy="49.563202"
       r="5.0001001"
       fill="none"
       stroke="#000000"
       stroke-linecap="round"
       stroke-linejoin="round"
       stroke-width="2"
       id="circle4" />
    <circle
       cx="54.6092"
       cy="49.563202"
       r="5.0001001"
       fill="none"
       stroke="#000000"
       stroke-linecap="round"
       stroke-linejoin="round"
       stroke-width="2"
       id="circle5" />
    <line
       x1="43"
       x2="43"
       y1="19"
       y2="44"
       fill="none"
       stroke="#000000"
       stroke-linecap="round"
       stroke-linejoin="round"
       stroke-width="2.0875"
       id="line5" />
    <line
       x1="44"
       x2="64.219498"
       y1="35"
       y2="35"
       fill="none"
       stroke="#000000"
       stroke-linecap="round"
       stroke-linejoin="round"
       stroke-width="2.0875"
       id="line6" />
    <polygon
       fill="none"
       stroke="#000000"
       stroke-linecap="round"
       stroke-linejoin="round"
       stroke-width="2.0875"
       points="64.22,43.514 43,43.514 43,38 44,38 64.22,38 "
       id="polygon6" />
    <line
       x1="61"
       x2="62"
       y1="37"
       y2="32"
       fill="none"
       stroke="#000000"
       stroke-linecap="round"
       stroke-linejoin="round"
       stroke-width="2.0875"
       id="line7" />
    <path
       fill="none"
       stroke="#000000"
       stroke-linecap="round"
       stroke-linejoin="round"
       stroke-width="2"
       d="m 20.2992,19 c 0,0 -1.1617,18.5109 9.2929,25.5631"
       id="path7" />
    <line
       x1="25.641899"
       x2="25.641899"
       y1="37"
       y2="39.784698"
       fill="none"
       stroke="#000000"
       stroke-linecap="round"
       stroke-linejoin="round"
       stroke-width="2"
       id="line8" />
    <path
       d="m 60.072,44.5631 v 0 c 0,-0.5795 0.4697,-1.0492 1.0492,-1.0492 h 4.1967 c 0.5794,0 1.0491,0.4698 1.0492,1.0492 v 0 c 0,0.5795 -0.4697,1.0492 -1.0492,1.0492 h -4.1967 c -0.5794,0 -1.0491,-0.4696 -1.0492,-1.049 z"
       id="path8" />
    <path
       fill="none"
       stroke="#000000"
       stroke-linecap="round"
       stroke-linejoin="round"
       stroke-width="2"
       d="M 18,42.5319 C 15.5181,40.6309 13.1486,42.901 13,43"
       id="path9" />
  </g>
</svg>
