<?xml version="1.0" encoding="UTF-8" standalone="no"?>
<svg
   id="emoji"
   viewBox="0 0 52.000557 15.024922"
   version="1.1"
   sodipodi:docname="1f6f9.svg"
   width="52.000557"
   height="15.024922"
   xmlns:inkscape="http://www.inkscape.org/namespaces/inkscape"
   xmlns:sodipodi="http://sodipodi.sourceforge.net/DTD/sodipodi-0.dtd"
   xmlns="http://www.w3.org/2000/svg"
   xmlns:svg="http://www.w3.org/2000/svg">
  <defs
     id="defs6" />
  <sodipodi:namedview
     id="namedview6"
     pagecolor="#ffffff"
     bordercolor="#000000"
     borderopacity="0.25"
     inkscape:showpageshadow="2"
     inkscape:pageopacity="0.0"
     inkscape:pagecheckerboard="0"
     inkscape:deskcolor="#d1d1d1" />
  <g
     id="line-supplement"
     transform="translate(-9.9999999,-36.000347)">
    <g
       id="g2">
      <circle
         cx="51"
         cy="47.9995"
         r="3"
         id="circle1" />
      <circle
         cx="21"
         cy="47.9995"
         r="3"
         id="circle2" />
    </g>
  </g>
  <g
     id="color"
     transform="translate(-9.9999999,-36.000347)">
    <path
       fill="#61b2e4"
       d="M 56.4082,43 H 15.5918 c -2.8975,0 -5.4512,-3.4863 -5.47,-3.5215 A 0.9948,0.9948 0 0 1 10,39.001 v -2 a 1,1 0 0 1 1.7861,-0.6182 C 12.3213,37.0615 14.1689,39 15.5918,39 h 40.8164 c 1.4326,0 3.2725,-1.9375 3.8037,-2.6152 A 1,1 0 0 1 62,37 v 2 a 0.9979,0.9979 0 0 1 -0.2109,0.6143 C 61.5186,39.9609 59.0732,43 56.4082,43 Z M 15.5918,41 Z M 60.999,39.001 Z m -49.999,0 z"
       id="path2" />
    <g
       id="g4">
      <circle
         cx="51"
         cy="47.9995"
         r="3"
         fill="#d22f27"
         id="circle3" />
      <circle
         cx="21"
         cy="47.9995"
         r="3"
         fill="#d22f27"
         id="circle4" />
    </g>
  </g>
  <g
     id="line"
     transform="translate(-9.9999999,-36.000347)">
    <path
       d="M 56.4082,43 H 15.5918 c -2.8594,0 -5.4453,-3.4775 -5.4658,-3.5127 a 1,1 0 0 1 1.6963,-1.0547 C 12.3477,39.1289 14.1855,41 15.5918,41 h 40.8164 c 1.4326,0 3.2725,-1.9375 3.8037,-2.6152 a 1.0000575,1.0000575 0 0 1 1.5772,1.23 C 61.5186,39.9609 59.0732,43 56.4082,43 Z"
       id="path4" />
    <path
       fill="none"
       stroke="#000000"
       stroke-linecap="round"
       stroke-miterlimit="10"
       stroke-width="2"
       d="m 52,46.2674 a 2,2 0 1 1 -2,3.4641"
       id="path5" />
    <path
       fill="none"
       stroke="#000000"
       stroke-linecap="round"
       stroke-miterlimit="10"
       stroke-width="2"
       d="m 22,46.2674 a 2,2 0 1 1 -2,3.4641"
       id="path6" />
  </g>
</svg>
