<svg xmlns="http://www.w3.org/2000/svg" xmlns:svg="http://www.w3.org/2000/svg" id="emoji" width="48.517" height="52.006" version="1.1" viewBox="0 0 48.517 52.006"><g id="color" transform="translate(-12.8247,-9.0515632)"><circle id="circle1" cx="18.825" cy="55.057" r="5" fill="#d0cfce"/><circle id="circle2" cx="55.342" cy="55.057" r="5" fill="#d0cfce"/><path id="path2" fill="#ea5a47" d="m 27.7376,52.0572 h 22.6042 v 0.5833 c 0,1.6568 -1.2226,3 -2.7307,3 H 30.4683 c -1.5081,0 -2.7307,-1.3432 -2.7307,-3 z"/><path id="path3" fill="#d0cfce" d="m 28.1981,17.3755 -1.0583,-0.2316 c -0.5395,-0.118 -0.8812,-0.6511 -0.7631,-1.1906 l 0.4453,-2.0352 c 0.118,-0.5395 0.6511,-0.8812 1.1906,-0.7631 l 1.0583,0.2315 c 0.5395,0.1181 0.8812,0.6511 0.7631,1.1907 l -0.4453,2.0351 c -0.118,0.5396 -0.6511,0.8812 -1.1906,0.7632 z"/><path id="path4" fill="#ea5a47" d="m 41.0482,15.8642 -0.2506,1.3235 c -0.0974,0.5142 -0.5977,0.8553 -1.1119,0.7579 l -4.132,-0.7824 c -0.5141,-0.0974 -0.8552,-0.5978 -0.7578,-1.1119 l 0.2506,-1.3236 c 0.0974,-0.5141 0.5977,-0.8552 1.1119,-0.7578 l 4.132,0.7824 c 0.5142,0.0974 0.8552,0.5978 0.7578,1.1119 z"/><path id="path5" fill="#ea5a47" d="m 21.548,11.9126 -0.2511,1.3257 c -0.0972,0.5136 -0.597,0.8542 -1.1106,0.757 l -4.12,-0.7802 c -0.5136,-0.0973 -0.8542,-0.597 -0.7569,-1.1106 l 0.251,-1.3257 c 0.0972,-0.5136 0.597,-0.8542 1.1106,-0.757 l 4.12,0.7802 c 0.5136,0.0973 0.8542,0.597 0.757,1.1106 z"/></g><g id="line" transform="translate(-12.8247,-9.0515632)"><line id="line5" x1="29.915" x2="34.779" y1="14.262" y2="15.216" fill="none" stroke="#000" stroke-linecap="round" stroke-linejoin="round" stroke-miterlimit="10" stroke-width="2"/><line id="line6" x1="21.903" x2="26.833" y1="12.69" y2="13.657" fill="none" stroke="#000" stroke-linecap="round" stroke-linejoin="round" stroke-miterlimit="10" stroke-width="2"/><circle id="circle6" cx="18.825" cy="55.057" r="5" fill="none" stroke="#000" stroke-miterlimit="10" stroke-width="2"/><circle id="circle7" cx="55.342" cy="55.057" r="5" fill="none" stroke="#000" stroke-miterlimit="10" stroke-width="2"/><polyline id="polyline7" fill="none" stroke="#000" stroke-linecap="round" stroke-linejoin="round" stroke-miterlimit="10" stroke-width="2" points="27.529 17.318 20.416 48.158 18.825 55.057"/><path id="path7" fill="none" stroke="#000" stroke-linecap="round" stroke-linejoin="round" stroke-miterlimit="10" stroke-width="1.908" d="m 27.7376,52.0572 h 22.6042 v 0.5833 c 0,1.6568 -1.2226,3 -2.7307,3 H 30.4683 c -1.5081,0 -2.7307,-1.3432 -2.7307,-3 z"/><path id="path8" fill="none" stroke="#000" stroke-linecap="round" stroke-linejoin="round" stroke-miterlimit="10" stroke-width="2" d="m 29.8508,14.2491 c 0.0123,0.1067 0.0074,0.2173 -0.0168,0.3281 l -0.4453,2.0351 c -0.118,0.5396 -0.6511,0.8812 -1.1906,0.7632 l -1.0583,-0.2316 c -0.5395,-0.118 -0.8812,-0.6511 -0.7631,-1.1906 l 0.4453,-2.0352 c 0.0191,-0.0875 0.0492,-0.1698 0.0885,-0.2458"/><path id="path9" fill="none" stroke="#000" stroke-linecap="round" stroke-linejoin="round" stroke-miterlimit="10" stroke-width="2" d="m 26.9105,13.6723 c 0.2027,-0.3924 0.6502,-0.6162 1.1021,-0.5173 l 1.0583,0.2315 c 0.4287,0.0938 0.7325,0.4497 0.7799,0.8626"/><line id="line9" x1="22.654" x2="27.738" y1="39.917" y2="52.057" fill="none" stroke="#000" stroke-linecap="round" stroke-linejoin="round" stroke-miterlimit="10" stroke-width="2"/><path id="path10" fill="none" stroke="#000" stroke-linecap="round" stroke-linejoin="round" stroke-miterlimit="10" stroke-width="1.908" d="m 41.0482,15.8642 -0.2506,1.3235 c -0.0974,0.5142 -0.5977,0.8553 -1.1119,0.7579 l -4.132,-0.7824 c -0.5141,-0.0974 -0.8552,-0.5978 -0.7578,-1.1119 l 0.2506,-1.3236 c 0.0974,-0.5141 0.5977,-0.8552 1.1119,-0.7578 l 4.132,0.7824 c 0.5142,0.0974 0.8552,0.5978 0.7578,1.1119 z"/><path id="path11" fill="none" stroke="#000" stroke-linecap="round" stroke-linejoin="round" stroke-miterlimit="10" stroke-width="1.908" d="m 21.548,11.9126 -0.2511,1.3257 c -0.0972,0.5136 -0.597,0.8542 -1.1106,0.757 l -4.12,-0.7802 c -0.5136,-0.0973 -0.8542,-0.597 -0.7569,-1.1106 l 0.251,-1.3257 c 0.0972,-0.5136 0.597,-0.8542 1.1106,-0.757 l 4.12,0.7802 c 0.5136,0.0973 0.8542,0.597 0.757,1.1106 z"/></g></svg>