<svg xmlns="http://www.w3.org/2000/svg" xmlns:svg="http://www.w3.org/2000/svg" id="emoji" width="47.013" height="59.214" version="1.1" viewBox="0 0 47.013 59.214"><g id="skin" transform="translate(-8.986879,-6.8231367)"><g id="Pinching_Hand"><path id="path1" fill="#6a462f" stroke="#6a462f" stroke-linecap="round" stroke-linejoin="round" stroke-width="2" d="m 40.2352,29.0807 -1.4888,-2.4294 c -2.5346,-4.25 -9.4391,-14.6418 -9.5951,-14.8465 -1.15,-1.511 -2.63,-2.3 -4.141,-1.15 -1.511,1.1406 -0.4124,2.6109 0.4625,4.6891 l 6.92,14.4918 2.7722,5.6993 -7.0191,-5.5072 a 3.4042,3.4042 0 0 0 -0.787,-0.6514 2.7335,2.7335 0 0 0 -1.3831,-0.5222 3.6991,3.6991 0 0 0 -1.8252,0.0552 l -9.6243,3.05 a 6.0112,6.0112 0 0 0 -1.1023,0.4777 c -1.3964,0.9851 -1.8472,1.29 -1.6537,3.1734 a 3.04,3.04 0 0 0 4.1514,1.8256 l 8.7156,-1.9756 0.3726,0.31 6.9921,6.2168 a 52.2867,52.2867 0 0 1 -2.0653,5.88 2.1935,2.1935 0 0 1 -2.582,1.0227 47.2022,47.2022 0 0 0 -6.2064,-1.4551 2.1478,2.1478 0 0 1 -0.6908,-0.2417 C 16.3628,44.95 11.9489,43.7854 11,44.7342 c -0.9452,0.8718 -0.6212,1.3305 -0.1455,2.7578 0.7646,2.2939 6.5975,5.4205 7.9342,6.9346 l 6.55,5.4488 c 0,0 6.4019,4.6095 10.2273,4.5885 12.0634,-0.0664 18.9492,-14.75 18.9621,-18.52 0.0056,-1.6424 0.1925,-3.6251 0.1925,-3.6252 a 19.0358,19.0358 0 0 0 -0.7777,-3.0063 l -0.0111,-0.0058 a 3.2427,3.2427 0 0 0 0.0292,-0.5362 c 0,0 -0.9329,-16.3193 -1.1653,-20.2392 A 5.2716,5.2716 0 0 0 52.2389,16.355 2.464,2.464 0 0 0 49.6766,14.8572 c -1.6321,0.1867 -2.1575,1.8759 -2.2763,3.7827 L 46.834,26.731 C 45.45,21.2134 42.0178,10.33 41.93,10.1062 A 2.7783,2.7783 0 0 0 38.4958,8.053 c -1.7839,0.6726 -2.02,2.6906 -1.7391,4.4593 l 0.9758,6.688 1.0139,7.451"/></g></g><g id="line" transform="translate(-8.986879,-6.8231367)"><g id="Pinching_Hand-2"><path id="path2" fill="none" stroke="#000" stroke-linecap="round" stroke-linejoin="round" stroke-width="2" d="m 31.7356,42.1428 c -0.869,2.5155 -1.12,4.3475 -1.7985,5.5912 a 2.1933,2.1933 0 0 1 -2.582,1.0226 47.1968,47.1968 0 0 0 -6.2064,-1.455 2.15,2.15 0 0 1 -0.6908,-0.2417 C 16.3628,44.8164 11.9489,43.6516 11,44.6005 a 2.3467,2.3467 0 0 0 -0.7764,2.9644 c 0.7646,2.2938 7.2284,5.2139 8.5651,6.728 l 5.849,5.8491 c 0,0 6.9723,4.9163 10.7973,4.8952 C 47.4984,64.9708 54.9871,49.2418 55,45.4723 A 21.652,21.652 0 0 0 54.7207,42.1851 19.0358,19.0358 0 0 0 53.943,39.1788"/><path id="path3" fill="none" stroke="#000" stroke-linecap="round" stroke-linejoin="round" stroke-width="2" d="m 24.5042,35.6935 -8.5093,2.0318 a 3.4311,3.4311 0 0 1 -4.429,-2.0319 c -0.1935,-1.8834 0.4621,-2.4049 1.8585,-3.39 a 6.0112,6.0112 0 0 1 1.1023,-0.4777 l 9.6243,-3.05 a 3.6991,3.6991 0 0 1 1.8252,-0.0553"/><line id="line3" x1="31.736" x2="24.638" y1="42.143" y2="35.771" fill="none" stroke="#000" stroke-linecap="round" stroke-linejoin="round" stroke-width="2"/><path id="path4" fill="none" stroke="#000" stroke-linecap="round" stroke-linejoin="round" stroke-width="2" d="m 25.01,28.6125 a 4.3334,4.3334 0 0 1 2.349,0.6306 3.4038,3.4038 0 0 1 0.787,0.6513 l 8.3294,6.694"/><path id="path5" fill="none" stroke="#000" stroke-linecap="round" stroke-linejoin="round" stroke-width="2" d="M 32.4365,29.9218 25.01,15.2084 c -0.875,-2.0782 -1.511,-3.5464 0,-4.687 1.511,-1.15 2.9907,-0.3613 4.141,1.15 0.156,0.2047 8.5493,13.0158 11.0839,17.2661 v 0.01"/><path id="path6" fill="none" stroke="#000" stroke-linecap="round" stroke-linejoin="round" stroke-width="2" d="M 48.0929,31.395 C 46.7086,25.8774 42.0178,10.1967 41.93,9.9724 A 2.7784,2.7784 0 0 0 38.4958,7.9192 c -1.7839,0.6727 -2.02,2.6907 -1.7391,4.4594 l 0.9758,6.6879"/><path id="path7" fill="none" stroke="#000" stroke-linecap="round" stroke-linejoin="round" stroke-width="2" d="m 47.4,18.5064 c 0.1188,-1.9068 0.6442,-3.596 2.2763,-3.7827 a 2.4638,2.4638 0 0 1 2.5623,1.4977 5.272,5.272 0 0 1 0.5568,2.1762 c 0.2324,3.92 1.1653,20.2393 1.1653,20.2393 a 3.2433,3.2433 0 0 1 -0.0292,0.5362"/><line id="line7" x1="39.675" x2="43.166" y1="28.081" y2="33.594" fill="none" stroke="#000" stroke-linecap="round" stroke-linejoin="round" stroke-width="2"/></g></g></svg>