<svg xmlns="http://www.w3.org/2000/svg" xmlns:svg="http://www.w3.org/2000/svg" id="emoji" width="49" height="48.04" version="1.1" viewBox="0 0 49 48.04"><g id="color" transform="translate(-11.5,-11.5)"><g id="color-2"><g id="line_1_"><path id="path1" fill="#fff" d="M 59.5,25 C 59.5,18.0964 53.9036,12.5 47,12.5 42.2467,12.5 38.1139,15.1536 36,19.0598 33.8861,15.1536 29.7533,12.5 25,12.5 c -6.9036,0 -12.5,5.5964 -12.5,12.5 0,2.9699 1.0403,5.6942 2.7703,7.8387 L 15.266,32.8421 36,58.5397 56.7339,32.8422 56.7296,32.8388 C 58.4597,30.6942 59.5,27.9699 59.5,25 Z"/></g></g></g><g id="line" transform="translate(-11.5,-11.5)"><path id="path2" fill="none" stroke="#000" stroke-linejoin="round" stroke-miterlimit="10" stroke-width="2" d="M 59.5,25 C 59.5,18.0964 53.9036,12.5 47,12.5 42.2467,12.5 38.1139,15.1536 36,19.0598 33.8861,15.1536 29.7533,12.5 25,12.5 c -6.9036,0 -12.5,5.5964 -12.5,12.5 0,2.9699 1.0403,5.6942 2.7703,7.8387 L 15.266,32.8421 36,58.5397 56.7339,32.8422 56.7296,32.8388 C 58.4597,30.6942 59.5,27.9699 59.5,25 Z"/></g></svg>