<?xml version="1.0" encoding="UTF-8" standalone="no"?>
<svg
   id="emoji"
   viewBox="0 0 44.225269 47.146854"
   version="1.1"
   sodipodi:docname="1f90c-1f3fd.svg"
   width="44.225269"
   height="47.146854"
   xmlns:inkscape="http://www.inkscape.org/namespaces/inkscape"
   xmlns:sodipodi="http://sodipodi.sourceforge.net/DTD/sodipodi-0.dtd"
   xmlns="http://www.w3.org/2000/svg"
   xmlns:svg="http://www.w3.org/2000/svg">
  <defs
     id="defs5" />
  <sodipodi:namedview
     id="namedview5"
     pagecolor="#ffffff"
     bordercolor="#000000"
     borderopacity="0.25"
     inkscape:showpageshadow="2"
     inkscape:pageopacity="0.0"
     inkscape:pagecheckerboard="0"
     inkscape:deskcolor="#d1d1d1" />
  <g
     id="color"
     transform="translate(-13.8881,-15.000347)" />
  <g
     id="skin"
     transform="translate(-13.8881,-15.000347)">
    <path
       fill="#c19a65"
       d="M 58.0473,37.3569 55.892,17.8921 a 3.25,3.25 0 0 0 -1.4268,-2.3486 3.1816,3.1816 0 0 0 -2.665,-0.417 5.1412,5.1412 0 0 0 -1.9934,1.0919 2.6586,2.6586 0 0 0 -0.3328,0 5.2528,5.2528 0 0 0 -4.33,2.9328 4.18,4.18 0 0 0 -3.48,-0.0832 c -2.5957,1.1074 -3.9454,4.6015 -4.1895,5.291 -1.728,4.0018 -6.1411,11.571 -10.4761,11.571 a 13.4336,13.4336 0 0 0 -7.3056,2.2177 c -3.4746,1.9522 -5.8047,6.3194 -5.8047,10.8887 a 13.1256,13.1256 0 0 0 13.1143,13.11 c 0.53,-0.002 13.0634,-0.0655 19.2861,-1.79 4.32,-1.1982 8.4785,-10.5781 11.206,-18.2363 a 10.6553,10.6553 0 0 0 0.5528,-4.7632 z"
       id="path1" />
  </g>
  <g
     id="line"
     transform="translate(-13.8881,-15.000347)">
    <path
       fill="none"
       stroke="#000000"
       stroke-linecap="round"
       stroke-linejoin="round"
       stroke-width="2"
       d="m 44.2809,43.9275 3.9746,-8.4261 a 1.5937,1.5937 0 0 0 0.15,-0.7672 l -0.629,-11.4366 a 1.8032,1.8032 0 0 0 -2.0552,-1.6982 c -1.7265,0.2671 -3.9661,1.4784 -3.9661,5.9663 v 4.98 a 1.5938,1.5938 0 0 1 -0.1559,0.6874 l -3.7839,7.9114 A 1.5812,1.5812 0 0 1 36.73,42.0111 c -1.9,0.4183 -6.9555,1.3069 -10.3228,-0.181"
       id="path2" />
    <path
       fill="none"
       stroke="#000000"
       stroke-linecap="round"
       stroke-linejoin="round"
       stroke-width="2"
       d="m 45.43,21.6532 c 0.4887,-3.4242 2.6038,-4.2829 4.1451,-4.44 a 1.6589,1.6589 0 0 1 1.81,1.51 L 52.8879,35.45 a 2.616,2.616 0 0 1 -0.25,1.3725 l -3.4369,7.105"
       id="path3" />
    <path
       fill="none"
       stroke="#000000"
       stroke-linecap="round"
       stroke-linejoin="round"
       stroke-width="2"
       d="m 31.0544,35.3131 c 4.1148,-3.195 7.1215,-10.0539 7.3385,-10.5576 0.0092,-0.0213 0.0163,-0.04 0.0241,-0.0623 0.1758,-0.4961 2.3675,-6.4132 6.327,-4.6275"
       id="path4" />
    <path
       fill="none"
       stroke="#000000"
       stroke-linecap="round"
       stroke-linejoin="round"
       stroke-width="2"
       d="m 50.16,17.2593 a 4.114,4.114 0 0 1 1.92,-1.1726 2.2321,2.2321 0 0 1 2.8183,1.9156 l 2.155,19.4649 a 9.705,9.705 0 0 1 -0.5014,4.3182 c -1.7368,4.8784 -6.2583,16.4236 -10.531,17.6079 -6.1645,1.7086 -19.0223,1.7539 -19.0223,1.7539 a 12.11,12.11 0 0 1 -12.11,-12.11 c 0,-4.18 2.118,-8.26 5.3394,-10.0422 a 12.41,12.41 0 0 1 6.771,-2.0645"
       id="path5" />
  </g>
</svg>
