<svg xmlns="http://www.w3.org/2000/svg" xmlns:svg="http://www.w3.org/2000/svg" id="emoji" width="41.626" height="55.184" version="1.1" viewBox="0 0 41.626 55.184"><g id="skin" transform="translate(-15.373854,-6.000499)"><path id="path1" fill="#c19a65" stroke="#c19a65" d="m 41.7659,13.7375 c -0.284,-1.9293 1.0499,-3.7236 2.9792,-4.0075 1.9293,-0.284 3.7236,1.0498 4.0075,2.9792 0.0455,0.3093 0.0498,0.6232 0.0126,0.9336 l 0.2571,18.9983 -0.0217,4.3248 -0.1759,-12.9989 c -0.284,-1.9293 1.0499,-3.7236 2.9792,-4.0075 1.9293,-0.2839 3.7236,1.0498 4.0075,2.9792 0.0455,0.3093 0.0498,0.6232 0.0126,0.9336 L 56,36.8711 55.9474,46.9564 C 55.5226,55.2666 48.1955,60.5857 39.8874,60.161 35.0956,59.8956 30.5674,57.8829 27.1596,54.5038 24.2418,51.4134 17.074,42.969 17.074,42.969 15.6111,40.8108 16.7458,37.4751 17.8747,38.2964 l 9.8756,4.6509 0.0389,-5.3996 -0.0389,5.3996 0.0389,-5.3996 -0.0395,-21.8505 c -0.284,-1.9293 1.0499,-3.7236 2.9792,-4.0075 1.9293,-0.2839 3.7236,1.0498 4.0075,2.9792 0.0455,0.3093 0.0498,0.6232 0.0126,0.9336 l 0.0947,6.9994 0.1861,10.6365 -0.3671,-22.1928 c -0.284,-1.9293 1.0499,-3.7236 2.9792,-4.0075 1.9293,-0.284 3.7236,1.0498 4.0075,2.9792 0.0455,0.3093 0.0498,0.6232 0.0126,0.9336 l 0.2064,24.016"/></g><g id="line" transform="translate(-15.373854,-6.000499)"><path id="path2" fill="none" stroke="#000" stroke-linecap="round" stroke-linejoin="round" stroke-width="2" d="m 41.7659,13.7375 c -0.284,-1.9293 1.0499,-3.7236 2.9792,-4.0075 1.9293,-0.284 3.7236,1.0498 4.0075,2.9792 0.0455,0.3093 0.0498,0.6232 0.0126,0.9336 l 0.2571,18.9983 -0.0048,0.9513 -0.1928,-9.6253 c -0.284,-1.9293 1.0499,-3.7236 2.9792,-4.0075 1.9293,-0.2839 3.7236,1.0498 4.0075,2.9792 0.0455,0.3093 0.0498,0.6232 0.0126,0.9336 L 56,36.8711 55.9474,46.9564 C 55.5226,55.2666 48.1955,60.5857 39.8874,60.161 35.0956,59.8956 30.5674,57.8829 27.1596,54.5038 24.2418,51.4134 17.074,42.969 17.074,42.969 15.6111,40.8108 16.7458,37.4751 17.8747,38.2964 l 9.8756,4.6509 0.0389,-5.3996 -0.0389,5.3996 0.0389,-5.3996 -0.0395,-21.8505 c -0.284,-1.9293 1.0499,-3.7236 2.9792,-4.0075 1.9293,-0.2839 3.7236,1.0498 4.0075,2.9792 0.0455,0.3093 0.0498,0.6232 0.0126,0.9336 l 0.0947,6.9994 0.1861,10.6365 -0.3671,-22.1928 c -0.284,-1.9293 1.0499,-3.7236 2.9792,-4.0075 1.9293,-0.284 3.7236,1.0498 4.0075,2.9792 0.0455,0.3093 0.0498,0.6232 0.0126,0.9336 l 0.1758,20.4538"/></g></svg>