<svg xmlns="http://www.w3.org/2000/svg" xmlns:svg="http://www.w3.org/2000/svg" id="emoji" width="48" height="48" version="1.1" viewBox="0 0 48 48"><g id="color" transform="translate(-12,-12)"><circle id="ellipse1" cx="36" cy="35.643" r="23" fill="#fcea2b"/><path id="path1" fill="#9b9b9a" d="m 58.2965,54.1981 -1.9462,1.9462 c -0.9381,0.9381 -2.459,0.9381 -3.397,0 l -4.8606,-4.8606 c -0.9381,-0.9381 -0.9381,-2.459 0,-3.397 l 1.9462,-1.9462 c 0.9381,-0.9381 2.459,-0.9381 3.397,0 l 4.8606,4.8606 c 0.938,0.938 0.938,2.4589 0,3.397 z"/><path id="path2" fill="#d0cfce" d="m 50.3547,47.7874 -0.5122,0.5122 c -0.2878,0.2878 -0.7544,0.2878 -1.0421,0 l -1.6157,-1.6157 c -0.2878,-0.2878 -0.2878,-0.7544 0,-1.0421 l 0.5122,-0.5122 c 0.2878,-0.2878 0.7544,-0.2878 1.0421,0 l 1.6157,1.6157 c 0.2878,0.2877 0.2878,0.7543 0,1.0421 z"/></g><g id="line" transform="translate(-12,-12)"><line id="line2" x1="47.705" x2="24.04" y1="45.684" y2="45.595" fill="none" stroke="#000" stroke-linecap="round" stroke-linejoin="round" stroke-miterlimit="10" stroke-width="2"/><line id="line3" x1="24.561" x2="24.561" y1="45.865" y2="49.168" fill="none" stroke="#000" stroke-linecap="round" stroke-linejoin="round" stroke-miterlimit="10" stroke-width="2"/><line id="line4" x1="26.472" x2="26.472" y1="42.026" y2="45.329" fill="none" stroke="#000" stroke-linecap="round" stroke-linejoin="round" stroke-miterlimit="10" stroke-width="2"/><line id="line5" x1="28.413" x2="28.413" y1="45.865" y2="49.168" fill="none" stroke="#000" stroke-linecap="round" stroke-linejoin="round" stroke-miterlimit="10" stroke-width="2"/><line id="line6" x1="30.324" x2="30.324" y1="42.026" y2="45.329" fill="none" stroke="#000" stroke-linecap="round" stroke-linejoin="round" stroke-miterlimit="10" stroke-width="2"/><line id="line7" x1="32.253" x2="32.253" y1="45.865" y2="49.168" fill="none" stroke="#000" stroke-linecap="round" stroke-linejoin="round" stroke-miterlimit="10" stroke-width="2"/><line id="line8" x1="34.164" x2="34.164" y1="42.026" y2="45.329" fill="none" stroke="#000" stroke-linecap="round" stroke-linejoin="round" stroke-miterlimit="10" stroke-width="2"/><line id="line9" x1="36.105" x2="36.105" y1="45.865" y2="49.168" fill="none" stroke="#000" stroke-linecap="round" stroke-linejoin="round" stroke-miterlimit="10" stroke-width="2"/><line id="line10" x1="38.016" x2="38.016" y1="42.026" y2="45.329" fill="none" stroke="#000" stroke-linecap="round" stroke-linejoin="round" stroke-miterlimit="10" stroke-width="2"/><line id="line11" x1="39.932" x2="39.932" y1="45.865" y2="49.168" fill="none" stroke="#000" stroke-linecap="round" stroke-linejoin="round" stroke-miterlimit="10" stroke-width="2"/><line id="line12" x1="41.844" x2="41.844" y1="42.026" y2="45.329" fill="none" stroke="#000" stroke-linecap="round" stroke-linejoin="round" stroke-miterlimit="10" stroke-width="2"/><line id="line13" x1="43.813" x2="43.813" y1="45.865" y2="49.168" fill="none" stroke="#000" stroke-linecap="round" stroke-linejoin="round" stroke-miterlimit="10" stroke-width="2"/><line id="line14" x1="45.7" x2="45.7" y1="42.026" y2="45.329" fill="none" stroke="#000" stroke-linecap="round" stroke-linejoin="round" stroke-miterlimit="10" stroke-width="2"/><path id="path14" fill="none" stroke="#000" stroke-linecap="round" stroke-miterlimit="10" stroke-width="2" d="m 50.9177,45.3276 c 0.8493,-0.3076 1.8373,-0.121 2.5182,0.56 l 4.8606,4.8606 c 0.938,0.938 0.938,2.4589 0,3.397 l -1.9462,1.9462 c -0.9381,0.9381 -2.459,0.9381 -3.397,0 l -4.8606,-4.8606 c -0.6461,-0.6461 -0.8472,-1.5687 -0.6033,-2.3869"/><path id="path15" fill="none" stroke="#000" stroke-linecap="round" stroke-linejoin="round" stroke-miterlimit="10" stroke-width="2" d="M 57.4811,44.2366 C 58.4623,41.6794 59,38.9025 59,36 59,23.2969 48.7021,13 36,13 23.2977,12.9999 13,23.2969 13,36 c 0,12.7022 10.2978,23 23,23 4.0701,0 7.8933,-1.0574 11.21,-2.9123"/><path id="path16" d="m 30,31 c 0,1.6568 -1.3448,3 -3,3 -1.6553,0 -3,-1.3433 -3,-3 0,-1.6552 1.3447,-3 3,-3 1.6552,0 3,1.3448 3,3"/><path id="path17" d="m 48,31 c 0,1.6568 -1.3447,3 -3,3 -1.6553,0 -3,-1.3433 -3,-3 0,-1.6552 1.3447,-3 3,-3 1.6553,0 3,1.3448 3,3"/></g></svg>