<svg xmlns="http://www.w3.org/2000/svg" xmlns:svg="http://www.w3.org/2000/svg" id="emoji" width="64" height="42.696" version="1.1" viewBox="0 0 64 42.696"><g id="skin" stroke-width="1.018" transform="matrix(0.9824,0,0,0.9824,-3.7418251,-14.724785)"><path id="path1" fill="#c19a65" stroke-width="1.036" d="m 64.73,33.52 -9.04,1.92 c -1.07,0.25 -2.07,0.56 -3.35,2.15 l -8.46,9.82 c -0.79,0.95 -1.27,1.51 -2.54,1.91 l -20.9,7.74 C 16,58.19 12,57.06 13,48.63 8.66,50.28 4.53,48.94 4.83,45.17 L 4.82,24.71 C 5.4,20.45 9.21,18.42 12.5,18.08 L 63.83,16 c 5.09,4.59 5.49,12.43 0.9,17.52 z"/></g><g id="line" stroke-miterlimit="10" stroke-width="1.018" transform="matrix(0.9826,0,0,0.9823,-3.7426251,-14.718785)"><path id="path2" fill="none" stroke="#000" stroke-linecap="round" stroke-linejoin="round" stroke-miterlimit="10" stroke-width="2.036" d="m 43.88,47.41 8.469,-9.812 c 1.281,-1.594 2.281,-1.906 3.344,-2.156 l 9.04,-1.92 c 4.59,-5.084 4.19,-12.93 -0.8941,-17.52 l -51.33,2.083 c -3.292,0.3333 -7.099,2.364 -7.682,6.622 l 0.0156,20.46 c -0.3021,3.771 3.823,5.115 8.167,3.458 -1,8.438 3,9.562 7.438,8.438 l 20.91,-7.739"/><path id="path3" fill="none" stroke="#000" stroke-linecap="round" stroke-linejoin="round" stroke-miterlimit="10" stroke-width="2.036" d="m 15.31,29.17 c 0,4.062 4.892,4.344 10.94,4.344 -0.5,4.031 -2.594,8.625 -10.03,13"/><path id="path4" fill="none" stroke="#000" stroke-linecap="round" stroke-linejoin="round" stroke-miterlimit="10" stroke-width="2.036" d="m 43.88,47.41 8.469,-9.812 c 1.281,-1.594 2.281,-1.906 3.344,-2.156 l 9.04,-1.92 c 4.59,-5.084 4.19,-12.93 -0.8941,-17.52 l -51.33,2.083 c -3.292,0.3333 -7.099,2.364 -7.682,6.622 l 0.0156,20.46 c -0.3021,3.771 3.823,5.115 8.167,3.458 -1,8.438 3,9.562 7.438,8.438 l 20.91,-7.739 c 1.296,-0.6802 1.853,-1.293 2.531,-1.917 z"/><path id="path5" fill="none" stroke="#000" stroke-linecap="round" stroke-linejoin="round" stroke-miterlimit="10" stroke-width="2.036" d="m 15.31,29.17 c 0,4.062 4.892,4.344 10.94,4.344 -0.5,4.031 -2.594,8.625 -10.03,13"/></g></svg>