<?xml version="1.0" encoding="UTF-8" standalone="no"?>
<svg
   id="emoji"
   viewBox="0 0 64.095222 53.448364"
   version="1.1"
   sodipodi:docname="1f91d.svg"
   width="64.095222"
   height="53.448364"
   xmlns:inkscape="http://www.inkscape.org/namespaces/inkscape"
   xmlns:sodipodi="http://sodipodi.sourceforge.net/DTD/sodipodi-0.dtd"
   xmlns="http://www.w3.org/2000/svg"
   xmlns:svg="http://www.w3.org/2000/svg">
  <defs
     id="defs16" />
  <sodipodi:namedview
     id="namedview16"
     pagecolor="#ffffff"
     bordercolor="#000000"
     borderopacity="0.25"
     inkscape:showpageshadow="2"
     inkscape:pageopacity="0.0"
     inkscape:pagecheckerboard="0"
     inkscape:deskcolor="#d1d1d1" />
  <g
     id="color"
     transform="translate(-3.9504458,-9.2862521)" />
  <g
     id="skin"
     transform="translate(-3.9504458,-9.2862521)">
    <g
       id="skin-a">
      <path
         fill="#fcea2b"
         d="m 62.622,40.338 c 0.96,3.25 -1.109,5.983 -4.435,5.392 0.443,3.249 -2.735,6.13 -6.579,4.283 1.478,3.766 -1.997,5.908 -4.731,4.283 1.403,1.6985 -0.813,7.46 -9.387,1.994 L 35.8474,55.3867 16.5088,44.7522 15.05,43.95 c 0,0 -7.133,-5.822 -8.537,-8.259 -4.392,-7.595 0.9489,-19.79 10.44,-21.82 l 7.9426,-1.4243 5.2391,7.9469 13.0738,6.0043 L 56,33.58 l 3.6854,3.7675 z"
         id="path1" />
    </g>
    <g
       id="skin-b">
      <path
         fill="#fcea2b"
         d="m 62.622,40.338 c 6.721,-4.585 5.041,-19.03 -0.0988,-25.36 -9.287,-1.459 -11,-2.362 -20.98,-3.943 l -13.53,-0.6185 a 3.9934,3.9934 0 0 0 -4.779,2.533 32.8568,32.8568 0 0 1 -3.599,8.378 3.5387,3.5387 0 0 0 1.872,4.588 c 1.908,0.4767 2.78,-0.386 4.46,-1.686 a 25.9541,25.9541 0 0 0 3.805,-4.575 l 13.64,6.204 12.72,7.164 c 2.514,1.698 5.012,5.844 6.51,7.321"
         id="path2" />
      <path
         fill="#fcea2b"
         d="m 31.51,54.15 a 3.0218,3.0218 0 0 1 4.144,-0.9 c 1.405,0.8125 2.439,2.362 1.478,4.063 l -1.774,3.101 A 3.27,3.27 0 0 1 29.7,57.2424 l 1.81,-3.094 z"
         id="path3" />
      <path
         fill="#fcea2b"
         d="m 25.84,50.98 a 3.0218,3.0218 0 0 1 4.144,-0.9 c 1.405,0.8125 2.439,2.362 1.478,4.063 l -1.774,3.101 A 3.27,3.27 0 0 1 24.03,54.0727 l 1.81,-3.094 z"
         id="path4" />
      <path
         fill="#fcea2b"
         d="m 20.18,47.82 a 3.0218,3.0218 0 0 1 4.144,-0.9 c 1.405,0.8125 2.439,2.362 1.478,4.063 l -1.774,3.101 A 3.27,3.27 0 0 1 18.37,50.9127 l 1.81,-3.094 z"
         id="path5" />
      <path
         fill="#fcea2b"
         d="m 14.53,44.65 a 3.0218,3.0218 0 0 1 4.144,-0.9 c 1.405,0.8125 2.439,2.362 1.478,4.063 l -1.774,3.101 A 3.27,3.27 0 0 1 12.72,47.7427 l 1.81,-3.094 z"
         id="path6" />
    </g>
  </g>
  <g
     id="line"
     transform="translate(-3.9504458,-9.2862521)">
    <path
       fill="none"
       stroke="#000000"
       stroke-linecap="round"
       stroke-linejoin="round"
       stroke-width="2"
       d="m 15.05,43.95 c 0,0 -7.133,-5.822 -8.537,-8.259 -4.392,-7.595 0.9489,-19.79 10.44,-21.82"
       id="path7" />
    <path
       fill="none"
       stroke="#000000"
       stroke-linecap="round"
       stroke-linejoin="round"
       stroke-width="2"
       d="M 38.71,42.99 51.6,50.011"
       id="path8" />
    <path
       fill="none"
       stroke="#000000"
       stroke-linecap="round"
       stroke-linejoin="round"
       stroke-width="2"
       d="m 33.87,47.79 13,6.498"
       id="path9" />
    <path
       fill="none"
       stroke="#000000"
       stroke-linecap="round"
       stroke-linejoin="round"
       stroke-width="2"
       d="m 58.18,45.72 -5.1,-4.358 -8.279,-4.335"
       id="path10" />
    <path
       fill="none"
       stroke="#000000"
       stroke-linecap="round"
       stroke-linejoin="round"
       stroke-width="2"
       d="m 29.772,19.654 13.64,6.204 12.72,7.164 c 2.514,1.698 5.012,5.844 6.51,7.321"
       id="path11" />
    <path
       fill="none"
       stroke="#000000"
       stroke-linecap="round"
       stroke-linejoin="round"
       stroke-width="2"
       d="m 37.49,56.29 c 8.574,5.466 10.79,-0.2955 9.387,-1.994 2.734,1.625 6.209,-0.517 4.731,-4.283 3.844,1.847 7.022,-1.034 6.579,-4.283 3.326,0.591 5.395,-2.142 4.435,-5.392 6.721,-4.585 5.041,-19.03 -0.0988,-25.36 -9.287,-1.459 -11,-2.362 -20.98,-3.943 l -13.53,-0.6185 a 3.9934,3.9934 0 0 0 -4.779,2.533 32.8568,32.8568 0 0 1 -3.599,8.378 3.5387,3.5387 0 0 0 1.872,4.588 c 1.908,0.4767 2.78,-0.386 4.46,-1.686 a 25.9541,25.9541 0 0 0 3.805,-4.575"
       id="path12" />
    <path
       fill="none"
       stroke="#000000"
       stroke-linecap="round"
       stroke-linejoin="round"
       stroke-width="2"
       d="m 31.51,54.15 a 3.0218,3.0218 0 0 1 4.144,-0.9 c 1.405,0.8125 2.439,2.362 1.478,4.063 l -1.774,3.101 A 3.27,3.27 0 0 1 29.7,57.2424 l 1.81,-3.094 z"
       id="path13" />
    <path
       fill="none"
       stroke="#000000"
       stroke-linecap="round"
       stroke-linejoin="round"
       stroke-width="2"
       d="m 25.84,50.98 a 3.0218,3.0218 0 0 1 4.144,-0.9 c 1.405,0.8125 2.439,2.362 1.478,4.063 l -1.774,3.101 A 3.27,3.27 0 0 1 24.03,54.0727 l 1.81,-3.094 z"
       id="path14" />
    <path
       fill="none"
       stroke="#000000"
       stroke-linecap="round"
       stroke-linejoin="round"
       stroke-width="2"
       d="m 20.18,47.82 a 3.0218,3.0218 0 0 1 4.144,-0.9 c 1.405,0.8125 2.439,2.362 1.478,4.063 l -1.774,3.101 A 3.27,3.27 0 0 1 18.37,50.9127 l 1.81,-3.094 z"
       id="path15" />
    <path
       fill="none"
       stroke="#000000"
       stroke-linecap="round"
       stroke-linejoin="round"
       stroke-width="2"
       d="m 14.53,44.65 a 3.0218,3.0218 0 0 1 4.144,-0.9 c 1.405,0.8125 2.439,2.362 1.478,4.063 l -1.774,3.101 A 3.27,3.27 0 0 1 12.72,47.7427 l 1.81,-3.094 z"
       id="path16" />
  </g>
</svg>
