<svg xmlns="http://www.w3.org/2000/svg" xmlns:svg="http://www.w3.org/2000/svg" id="emoji" width="48" height="55.462" version="1.1" viewBox="0 0 48 55.462"><g id="color" transform="translate(-12,-12.200001)"><circle id="circle1" cx="36" cy="36.2" r="24" fill="#fcea2b"/><path id="path1" fill="#fcea2b" d="m 19.1,62.3 c -0.3,-1.2 -0.4,-2.4 -0.3,-3.6 0.2,-1.1 2.3,-6.5 2.7,-7.3 0.4,-0.8 1.4,-4.5 2.4,-4.8 1,-0.3 1.2,0.1 1.1,0.7 -0.1,0.6 -0.6,7.7 -0.6,7.7 l 9.4,-2.8 c 0,0 7.7,-1.9 7.9,-1 2.1,2 -5.4,4.5 -7.5,4.4 0,0 1.1,0.6 0.9,1.3 -0.2,0.7 -0.8,1.2 -1,1.2 -0.2,0 0.5,0.5 0.6,1.4 0.9,1.8 -2.8,2.3 -2.8,2.3 1.3,-0.2 3.3,2.1 0.1,2.7 -1,0.3 -4.8,1.4 -4.8,1.4 0,0 -3.3,1.2 -5.2,-0.1 -1.2,-0.8 -2.3,-2 -2.9,-3.5 z"/></g><g id="line" transform="translate(-12,-12.200001)"><path id="path2" fill="none" stroke="#000" stroke-linecap="round" stroke-linejoin="round" stroke-width="2" d="M 28.9,44.5 C 31.3,43.8 40.8,45 43,46.6"/><path id="path3" fill="none" stroke="#000" stroke-linecap="round" stroke-linejoin="round" stroke-width="2" d="m 22.4,22.5 c 1.3,-0.9 2.8,-1.3 4.4,-1.1 1.6,0 3.1,0.6 4.2,1.7"/><path id="path4" fill="none" stroke="#000" stroke-linecap="round" stroke-linejoin="round" stroke-width="2" d="M 51.1,26.5 C 48.4,25.8 45.6,25.7 42.9,26.2"/><path id="path5" fill="none" stroke="#000" stroke-linecap="round" stroke-linejoin="round" stroke-width="2" d="M 42,58.4 C 54.3,55.1 61.5,42.5 58.2,30.2 54.9,17.9 42.3,10.7 30,14 20,16.7 13,25.8 13,36.2 c 0,4.6 1.4,9.2 4,13"/><path id="path6" d="m 31,30.7 c 0,1.7 -1.3,3 -3,3 -1.7,0 -3,-1.3 -3,-3 0,-1.7 1.3,-3 3,-3 1.7,0 3,1.3 3,3"/><path id="path7" d="m 48,33.7 c 0,1.7 -1.3,3 -3,3 -1.7,0 -3,-1.3 -3,-3 0,-1.7 1.3,-3 3,-3 1.7,0 3,1.3 3,3"/><path id="path8" fill="none" stroke="#000" stroke-linecap="round" stroke-linejoin="round" stroke-width="2" d="m 19.7,56.7 c -1,1.6 -1.2,3.7 -0.5,5.5 1.1,3.3 4,5.2 7.2,4.2 l 4.9,-1.4 1,-0.3 c 0.8,-0.2 1.3,-1.1 1.1,-1.8 v 0 c -0.2,-0.5 -0.6,-0.9 -1.2,-1 l 1.2,-0.3 c 0.8,-0.2 1.3,-1.1 1.1,-1.8 -0.2,-0.5 -0.6,-1 -1.2,-1.1 l 1.2,-0.4 c 0.8,-0.2 1.3,-1.1 1.1,-1.8 -0.1,-0.5 -0.5,-0.9 -1,-1 L 41,53.6 c 0.8,-0.2 1.3,-1.1 1.1,-1.8 -0.2,-0.7 -1.1,-1.3 -1.8,-1.1 v 0 l -10.2,3 -5.1,1.5 0.6,-7.8 c 0.1,-0.9 -1.5,-1.2 -2.1,0.2 z"/></g></svg>