<svg xmlns="http://www.w3.org/2000/svg" xmlns:svg="http://www.w3.org/2000/svg" id="emoji" width="48.616" height="62.887" version="1.1" viewBox="0 0 48.616 62.887"><g id="skin" transform="translate(-9.2733141,-3.867358)"><path id="path1" fill="#6a462f" stroke="#6a462f" d="m 41.7188,53.1875 3.4339,1.7393 c 3.6875,1.2188 5.4784,-6.7014 -0.4496,-9.3474 l -1.8747,-1.2578 3.1326,1.2578 c 3.5282,1.6578 7.6417,-6.2371 0.4894,-9.6956 l -2.8458,-0.5622 4.9913,0.5622 c 3.1056,1.8351 3.6609,-6.0827 -1.2092,-8.3927 L 31.5,24.3125 C 32.625,13.4375 33.5,6.4375 25.4375,5 c -2.4622,-0.375 -5.5,0 -4.875,2.5 3.25,14.625 -3.125,22.6042 -4.8966,24.4548 -7.1985,7.1985 -7.1985,18.8695 0,26.068 3.1257,2.9355 6.1596,2.7272 13.7716,2.7272 1.4375,0 19.6007,4.4807 19.6007,4.4807 6.875,1.8125 10.648,-5.5724 6.023,-7.1349 l -1.53,-1.0489"/></g><g id="line" transform="translate(-9.2733141,-3.867358)"><path id="path2" fill="none" stroke="#000" stroke-linecap="round" stroke-linejoin="round" stroke-width="2" d="m 45.5271,36.5453 c 5.8565,1.4749 9.2792,-7.5763 0.8148,-9.3306 L 31.5,24.3125 C 32.625,13.4375 33.5,6.4375 25.4375,5 c -2.4622,-0.375 -5.5,0 -4.875,2.5 3.25,14.625 -3.125,22.6042 -4.8966,24.4548 -7.1985,7.1985 -7.1985,18.8695 0,26.068 3.1257,2.9355 6.1596,2.7272 13.7716,2.7272 1.4375,0 20.6327,4.7314 20.6327,4.7314 6.875,1.8125 8.9705,-5.5167 4.3455,-7.0792 l -4.3455,-1.5669"/><path id="path3" fill="none" stroke="#000" stroke-linecap="round" stroke-linejoin="round" stroke-width="2" d="m 44.703,45.5795 c 5.8255,1.5323 8.0626,-7.4024 0.8241,-9.0342"/><path id="path4" fill="none" stroke="#000" stroke-linecap="round" stroke-linejoin="round" stroke-width="2" d="m 43.4119,54.7786 c 5.8275,1.5711 7.1882,-7.5953 1.2911,-9.1992"/><line id="line4" x1="43.412" x2="37.719" y1="54.779" y2="53.195" fill="none" stroke="#000" stroke-linecap="round" stroke-linejoin="round" stroke-miterlimit="10" stroke-width="2"/><line id="line5" x1="44.703" x2="39.675" y1="45.579" y2="44.147" fill="none" stroke="#000" stroke-linecap="round" stroke-linejoin="round" stroke-miterlimit="10" stroke-width="2"/><line id="line6" x1="45.527" x2="41.394" y1="36.545" y2="35.702" fill="none" stroke="#000" stroke-linecap="round" stroke-linejoin="round" stroke-miterlimit="10" stroke-width="2"/></g></svg>