<?xml version="1.0" encoding="UTF-8" standalone="no"?>
<svg
   id="emoji"
   viewBox="0 0 48.003284 50.681419"
   version="1.1"
   sodipodi:docname="1f911.svg"
   width="48.003284"
   height="50.681419"
   xmlns:inkscape="http://www.inkscape.org/namespaces/inkscape"
   xmlns:sodipodi="http://sodipodi.sourceforge.net/DTD/sodipodi-0.dtd"
   xmlns="http://www.w3.org/2000/svg"
   xmlns:svg="http://www.w3.org/2000/svg">
  <defs
     id="defs15" />
  <sodipodi:namedview
     id="namedview15"
     pagecolor="#ffffff"
     bordercolor="#000000"
     borderopacity="0.25"
     inkscape:showpageshadow="2"
     inkscape:pageopacity="0.0"
     inkscape:pagecheckerboard="0"
     inkscape:deskcolor="#d1d1d1" />
  <g
     id="color"
     transform="translate(-11.998206,-12)">
    <circle
       cx="36"
       cy="36"
       r="24"
       fill="#fcea2b"
       id="circle1" />
    <path
       fill="#ffffff"
       d="m 30.498,53.374 c -4.296,-1.49 -6.4614,-4.8011 -6.4614,-8.6835 h 0.0939 c 0,0 12.1375,3.0627 23.683,0.066 l 0.1606,-0.066 a 8.881,8.881 0 0 1 -6.4152,8.6842"
       id="path1" />
    <path
       fill="#b1cc33"
       d="m 40.5383,49.2888 c 0,0 1.518,8.819 -1.0644,10.9394 l 0.0255,-0.0218 a 4.8842,4.8842 0 0 1 -7.0087,0 C 29.9083,58.0864 31.4263,49.267 31.4263,49.267"
       id="path2" />
  </g>
  <g
     id="hair"
     transform="translate(-11.998206,-12)" />
  <g
     id="skin"
     transform="translate(-11.998206,-12)" />
  <g
     id="skin-shadow"
     transform="translate(-11.998206,-12)" />
  <g
     id="line"
     transform="translate(-11.998206,-12)">
    <path
       fill="none"
       stroke="#000000"
       stroke-linecap="round"
       stroke-linejoin="round"
       stroke-width="2"
       d="m 30.498,53.374 c -4.296,-1.49 -6.4614,-4.8011 -6.4614,-8.6835 h 0.0939 c 0,0 12.1375,3.0627 23.683,0.066 l 0.1606,-0.066 a 8.881,8.881 0 0 1 -6.4152,8.6842"
       id="path3" />
    <path
       fill="none"
       stroke="#000000"
       stroke-linecap="round"
       stroke-linejoin="round"
       stroke-width="2"
       d="m 20.2793,27.2 a 6.3062,6.3062 0 0 1 3.3907,-3 6.3038,6.3038 0 0 1 4.53,-0.4209"
       id="path4" />
    <path
       fill="none"
       stroke="#000000"
       stroke-linecap="round"
       stroke-linejoin="round"
       stroke-width="2"
       d="M 50.89,27.2 A 7.19,7.19 0 0 0 42.9805,23.77"
       id="path5" />
    <path
       fill="none"
       stroke="#000000"
       stroke-linecap="round"
       stroke-linejoin="round"
       stroke-width="2"
       d="M 44.324,57.4474 A 23,23 0 1 0 27.7349,57.4703"
       id="path6" />
    <path
       fill="none"
       stroke="#000000"
       stroke-linecap="round"
       stroke-linejoin="round"
       stroke-width="2"
       d="m 20.2793,27.2 a 6.3062,6.3062 0 0 1 3.3907,-3 6.3038,6.3038 0 0 1 4.53,-0.4209"
       id="path7" />
    <path
       fill="none"
       stroke="#000000"
       stroke-linecap="round"
       stroke-linejoin="round"
       stroke-width="2"
       d="M 50.89,27.2 A 7.19,7.19 0 0 0 42.9805,23.77"
       id="path8" />
    <path
       fill="none"
       stroke="#000000"
       stroke-linecap="round"
       stroke-linejoin="round"
       stroke-width="2"
       d="m 40.5383,49.2888 c 0,0 1.518,8.819 -1.0644,10.9394 l 0.0255,-0.0218 a 4.8842,4.8842 0 0 1 -7.0087,0 C 29.9083,58.0864 31.4263,49.267 31.4263,49.267"
       id="path9" />
    <path
       fill="none"
       stroke="#000000"
       stroke-linecap="round"
       stroke-linejoin="round"
       stroke-width="2"
       d="m 29.23,31.5494 a 1.9352,1.9352 0 0 0 -1.9506,-1.2659 v 0 a 1.8234,1.8234 0 0 0 -1.9911,1.5854 1.8233,1.8233 0 0 0 1.9911,1.5854 l -0.04,0.0059 a 1.8234,1.8234 0 0 1 1.9906,1.5854 1.8233,1.8233 0 0 1 -1.9911,1.5854 v 0 a 1.9353,1.9353 0 0 1 -1.9507,-1.2659"
       id="path10" />
    <line
       x1="27.2589"
       x2="27.2589"
       y1="30.283501"
       y2="28.7721"
       fill="none"
       stroke="#000000"
       stroke-linecap="round"
       stroke-linejoin="round"
       stroke-width="2"
       id="line10" />
    <line
       x1="27.2589"
       x2="27.2589"
       y1="38.142399"
       y2="36.631001"
       fill="none"
       stroke="#000000"
       stroke-linecap="round"
       stroke-linejoin="round"
       stroke-width="2"
       id="line11" />
    <path
       fill="none"
       stroke="#000000"
       stroke-linecap="round"
       stroke-linejoin="round"
       stroke-width="2"
       d="m 46.2668,31.5494 a 1.9352,1.9352 0 0 0 -1.9506,-1.2659 v 0 a 1.8234,1.8234 0 0 0 -1.9911,1.5854 1.8233,1.8233 0 0 0 1.9911,1.5854 l -0.04,0.0059 a 1.8234,1.8234 0 0 1 1.9911,1.5854 1.8233,1.8233 0 0 1 -1.9911,1.5854 v 0 a 1.9353,1.9353 0 0 1 -1.9507,-1.2659"
       id="path11" />
    <line
       x1="44.295898"
       x2="44.295898"
       y1="30.283501"
       y2="28.7721"
       fill="none"
       stroke="#000000"
       stroke-linecap="round"
       stroke-linejoin="round"
       stroke-width="2"
       id="line12" />
    <line
       x1="44.295898"
       x2="44.295898"
       y1="38.142399"
       y2="36.631001"
       fill="none"
       stroke="#000000"
       stroke-linecap="round"
       stroke-linejoin="round"
       stroke-width="2"
       id="line13" />
    <path
       fill="none"
       stroke="#000000"
       stroke-linecap="round"
       stroke-linejoin="round"
       stroke-width="2"
       d="M 37.8973,53.146 A 1.9352,1.9352 0 0 0 35.9467,51.88 v 0 a 1.6267,1.6267 0 1 0 0,3.1708 l -0.04,0.0059 a 1.6267,1.6267 0 1 1 0,3.1708 v 0 A 1.9353,1.9353 0 0 1 33.956,56.9616"
       id="path13" />
    <line
       x1="35.926399"
       x2="35.926399"
       y1="51.8801"
       y2="50.368599"
       fill="none"
       stroke="#000000"
       stroke-linecap="round"
       stroke-linejoin="round"
       stroke-width="2"
       id="line14" />
    <line
       x1="35.926399"
       x2="35.926399"
       y1="59.738998"
       y2="58.2276"
       fill="none"
       stroke="#000000"
       stroke-linecap="round"
       stroke-linejoin="round"
       stroke-width="2"
       id="line15" />
  </g>
</svg>
