<svg xmlns="http://www.w3.org/2000/svg" xmlns:svg="http://www.w3.org/2000/svg" id="emoji" width="48.003" height="50.681" version="1.1" viewBox="0 0 48.003 50.681"><g id="color" transform="translate(-11.998206,-12)"><circle id="circle1" cx="36" cy="36" r="24" fill="#fcea2b"/><path id="path1" fill="#fff" d="m 30.498,53.374 c -4.296,-1.49 -6.4614,-4.8011 -6.4614,-8.6835 h 0.0939 c 0,0 12.1375,3.0627 23.683,0.066 l 0.1606,-0.066 a 8.881,8.881 0 0 1 -6.4152,8.6842"/><path id="path2" fill="#b1cc33" d="m 40.5383,49.2888 c 0,0 1.518,8.819 -1.0644,10.9394 l 0.0255,-0.0218 a 4.8842,4.8842 0 0 1 -7.0087,0 C 29.9083,58.0864 31.4263,49.267 31.4263,49.267"/></g><g id="line" transform="translate(-11.998206,-12)"><path id="path3" fill="none" stroke="#000" stroke-linecap="round" stroke-linejoin="round" stroke-width="2" d="m 30.498,53.374 c -4.296,-1.49 -6.4614,-4.8011 -6.4614,-8.6835 h 0.0939 c 0,0 12.1375,3.0627 23.683,0.066 l 0.1606,-0.066 a 8.881,8.881 0 0 1 -6.4152,8.6842"/><path id="path4" fill="none" stroke="#000" stroke-linecap="round" stroke-linejoin="round" stroke-width="2" d="m 20.2793,27.2 a 6.3062,6.3062 0 0 1 3.3907,-3 6.3038,6.3038 0 0 1 4.53,-0.4209"/><path id="path5" fill="none" stroke="#000" stroke-linecap="round" stroke-linejoin="round" stroke-width="2" d="M 50.89,27.2 A 7.19,7.19 0 0 0 42.9805,23.77"/><path id="path6" fill="none" stroke="#000" stroke-linecap="round" stroke-linejoin="round" stroke-width="2" d="M 44.324,57.4474 A 23,23 0 1 0 27.7349,57.4703"/><path id="path7" fill="none" stroke="#000" stroke-linecap="round" stroke-linejoin="round" stroke-width="2" d="m 20.2793,27.2 a 6.3062,6.3062 0 0 1 3.3907,-3 6.3038,6.3038 0 0 1 4.53,-0.4209"/><path id="path8" fill="none" stroke="#000" stroke-linecap="round" stroke-linejoin="round" stroke-width="2" d="M 50.89,27.2 A 7.19,7.19 0 0 0 42.9805,23.77"/><path id="path9" fill="none" stroke="#000" stroke-linecap="round" stroke-linejoin="round" stroke-width="2" d="m 40.5383,49.2888 c 0,0 1.518,8.819 -1.0644,10.9394 l 0.0255,-0.0218 a 4.8842,4.8842 0 0 1 -7.0087,0 C 29.9083,58.0864 31.4263,49.267 31.4263,49.267"/><path id="path10" fill="none" stroke="#000" stroke-linecap="round" stroke-linejoin="round" stroke-width="2" d="m 29.23,31.5494 a 1.9352,1.9352 0 0 0 -1.9506,-1.2659 v 0 a 1.8234,1.8234 0 0 0 -1.9911,1.5854 1.8233,1.8233 0 0 0 1.9911,1.5854 l -0.04,0.0059 a 1.8234,1.8234 0 0 1 1.9906,1.5854 1.8233,1.8233 0 0 1 -1.9911,1.5854 v 0 a 1.9353,1.9353 0 0 1 -1.9507,-1.2659"/><line id="line10" x1="27.259" x2="27.259" y1="30.284" y2="28.772" fill="none" stroke="#000" stroke-linecap="round" stroke-linejoin="round" stroke-width="2"/><line id="line11" x1="27.259" x2="27.259" y1="38.142" y2="36.631" fill="none" stroke="#000" stroke-linecap="round" stroke-linejoin="round" stroke-width="2"/><path id="path11" fill="none" stroke="#000" stroke-linecap="round" stroke-linejoin="round" stroke-width="2" d="m 46.2668,31.5494 a 1.9352,1.9352 0 0 0 -1.9506,-1.2659 v 0 a 1.8234,1.8234 0 0 0 -1.9911,1.5854 1.8233,1.8233 0 0 0 1.9911,1.5854 l -0.04,0.0059 a 1.8234,1.8234 0 0 1 1.9911,1.5854 1.8233,1.8233 0 0 1 -1.9911,1.5854 v 0 a 1.9353,1.9353 0 0 1 -1.9507,-1.2659"/><line id="line12" x1="44.296" x2="44.296" y1="30.284" y2="28.772" fill="none" stroke="#000" stroke-linecap="round" stroke-linejoin="round" stroke-width="2"/><line id="line13" x1="44.296" x2="44.296" y1="38.142" y2="36.631" fill="none" stroke="#000" stroke-linecap="round" stroke-linejoin="round" stroke-width="2"/><path id="path13" fill="none" stroke="#000" stroke-linecap="round" stroke-linejoin="round" stroke-width="2" d="M 37.8973,53.146 A 1.9352,1.9352 0 0 0 35.9467,51.88 v 0 a 1.6267,1.6267 0 1 0 0,3.1708 l -0.04,0.0059 a 1.6267,1.6267 0 1 1 0,3.1708 v 0 A 1.9353,1.9353 0 0 1 33.956,56.9616"/><line id="line14" x1="35.926" x2="35.926" y1="51.88" y2="50.369" fill="none" stroke="#000" stroke-linecap="round" stroke-linejoin="round" stroke-width="2"/><line id="line15" x1="35.926" x2="35.926" y1="59.739" y2="58.228" fill="none" stroke="#000" stroke-linecap="round" stroke-linejoin="round" stroke-width="2"/></g></svg>