<?xml version="1.0" encoding="UTF-8" standalone="no"?>
<svg
   id="emoji"
   viewBox="0 0 40.166782 65.694458"
   version="1.1"
   sodipodi:docname="1f918-1f3fd.svg"
   width="40.166782"
   height="65.694458"
   xmlns:inkscape="http://www.inkscape.org/namespaces/inkscape"
   xmlns:sodipodi="http://sodipodi.sourceforge.net/DTD/sodipodi-0.dtd"
   xmlns="http://www.w3.org/2000/svg"
   xmlns:svg="http://www.w3.org/2000/svg">
  <defs
     id="defs11" />
  <sodipodi:namedview
     id="namedview11"
     pagecolor="#ffffff"
     bordercolor="#000000"
     borderopacity="0.25"
     inkscape:showpageshadow="2"
     inkscape:pageopacity="0.0"
     inkscape:pagecheckerboard="0"
     inkscape:deskcolor="#d1d1d1" />
  <g
     id="color"
     transform="translate(-14.711418,-3.1209194)" />
  <g
     id="hair"
     transform="translate(-14.711418,-3.1209194)" />
  <g
     id="skin"
     transform="translate(-14.711418,-3.1209194)">
    <path
       fill="#c19a65"
       stroke="#c19a65"
       d="M 33.44,29.64 V 28.7 c 0.04,0.31 0.04,0.63 0,0.94 z"
       id="path1" />
    <path
       fill="#c19a65"
       stroke="#c19a65"
       d="m 53.88,50.93 v 0.01 c 0,10.04 -8.23,16.87 -17.89,16.87 C 27.31,67.94 19.91,61.56 18.77,52.96 18.38,50.07 17.71,45.08 17.71,38.08 l -2,-18.37 c -1.61,-7.79 5.1565,-8.15 6.8165,-2.03 l 1.13,9.0466 L 23.865,27 c 0,0 1.272,7.0058 2.1919,7.2158 0.37,0.08 0.1231,-3.1858 0.3831,-0.6258 v -3.95 c -0.25,-1.9301 1.1,-3.71 3.04,-3.97 1.93,-0.26 3.71,1.1 3.96,3.03 v 0.94 c 0.04,-0.3101 0.04,-0.63 0,-0.94 -0.25,-1.9301 1.17,-3.72 3.1,-3.98 1.35,-0.18 3.08,2.7677 4.09,3.8577 1.19,-1.18 1.6835,-5.2277 1.6835,-5.2277 l 0.53,-14.94 c 0,-5.88 9.2846,-5.4635 9.2846,-0.0734 l 1.0634,31.32 0.0485,0.5134 z"
       id="path2" />
    <path
       fill="#c19a65"
       stroke="#c19a65"
       d="M 33.44,29.64 V 28.7 c 0.04,0.31 0.04,0.63 0,0.94 z"
       id="path3" />
  </g>
  <g
     id="skin-shadow"
     transform="translate(-14.711418,-3.1209194)" />
  <g
     id="line"
     transform="translate(-14.711418,-3.1209194)">
    <path
       fill="none"
       stroke="#000000"
       stroke-linecap="round"
       stroke-miterlimit="10"
       stroke-width="2"
       d="m 18.7712,52.9565 c 1.1419,8.6001 8.5393,14.9847 17.214,14.857 9.667,0 17.893,-6.833 17.893,-16.878 l -10e-4,-10e-4 -0.657,-11.129 c -0.1631,-2.228 -2.0023,-3.9616 -4.236,-3.993 h -10 c -2.0658,-0.1226 -3.8473,1.4362 -4,3.5 0.1821,2.1099 1.8646,3.7781 3.976,3.942 l 1.049,0.117 c 2.187,0.242 3.976,1.342 3.976,2.442 v 2 0.44 c -2.1534,0.4577 -4.1469,1.4784 -5.777,2.958"
       id="path4" />
    <path
       fill="none"
       stroke="#000000"
       stroke-linecap="round"
       stroke-miterlimit="10"
       stroke-width="2"
       d="M 18.7712,52.9565 C 18.3804,50.0667 17.7083,45.0833 17.7083,38.0833"
       id="path5" />
    <line
       x1="17.7083"
       x2="15.7708"
       y1="38.083302"
       y2="19.5676"
       fill="none"
       stroke="#000000"
       stroke-linecap="round"
       stroke-miterlimit="10"
       stroke-width="2"
       id="line5" />
    <line
       x1="22"
       x2="22.943501"
       y1="17.9167"
       y2="26.6073"
       fill="none"
       stroke="#000000"
       stroke-linecap="round"
       stroke-miterlimit="10"
       stroke-width="2"
       id="line6" />
    <line
       x1="43.5"
       x2="43.041698"
       y1="8.25"
       y2="23.16"
       fill="none"
       stroke="#000000"
       stroke-linecap="round"
       stroke-miterlimit="10"
       stroke-width="2"
       id="line7" />
    <line
       x1="51.875"
       x2="52.375"
       y1="8.4582996"
       y2="33.291698"
       fill="none"
       stroke="#000000"
       stroke-linecap="round"
       stroke-miterlimit="10"
       stroke-width="2"
       id="line8" />
    <path
       fill="none"
       stroke="#000000"
       stroke-linecap="round"
       stroke-miterlimit="10"
       stroke-width="2"
       d="M 15.7708,19.5676 C 15.0472,11.8374 21.269,11.9722 22,17.9166"
       id="path8" />
    <path
       fill="none"
       stroke="#000000"
       stroke-linecap="round"
       stroke-miterlimit="10"
       stroke-width="2"
       d="m 43.5,8.25 c 0,-5.875 8.375,-5.1875 8.375,0.2083"
       id="path9" />
    <path
       fill="none"
       stroke="#000000"
       stroke-linecap="round"
       stroke-linejoin="round"
       stroke-width="2"
       d="m 31.3179,40.6385 c -3.322,1.2271 -4.997,-1.9342 -4.8744,-4 v -7 c -0.2578,-1.933 1.1001,-3.709 3.0331,-3.9669 1.933,-0.2578 3.709,1.1001 3.9669,3.0331 0.0413,0.3099 0.0413,0.6239 0,0.9337"
       id="path10" />
    <path
       fill="none"
       stroke="#000000"
       stroke-linecap="round"
       stroke-linejoin="round"
       stroke-width="2"
       d="m 33.5059,34.0036 v -5.3175 c -0.2578,-1.933 1.1001,-3.709 3.0331,-3.9669 1.933,-0.2578 3.709,1.1001 3.9669,3.0331 0.0413,0.3099 0.0413,0.6239 0,0.9337 l 0.031,3.5043"
       id="path11" />
  </g>
</svg>
