<svg xmlns="http://www.w3.org/2000/svg" xmlns:svg="http://www.w3.org/2000/svg" id="emoji" width="49.574" height="48" version="1.1" viewBox="0 0 49.574 48"><g id="line-supplement" transform="translate(-12,-12)"><path id="xx" fill="none" stroke="#000" stroke-linecap="round" stroke-linejoin="round" stroke-miterlimit="10" stroke-width="2" d="m 47.7437,38.6413 c 0.1,-0.1 0.3,-0.2 0.5,-0.3 2,-0.6 3.9,1.4 3.3,3.4 -0.1,0.3 -0.2,0.6 -0.5,0.8"/></g><g id="color" transform="translate(-12,-12)"><circle id="circle1" cx="36" cy="36" r="24" fill="#fcea2b"/><path id="path1" fill="#fff" d="m 40,49.2 -0.7,-0.8 c -0.7,-0.9 -0.6,-2.2 0.2,-2.9 l 17,-14.4 c 0.9,-0.7 2.2,-0.6 2.9,0.2 l 0.7,0.8 c 0.7,0.9 0.6,2.2 -0.2,2.9 l -17,14.4 c -0.8,0.8 -2.1,0.7 -2.9,-0.2 z"/><path id="path2" fill="#ea5a47" d="M 39.8,49 39.6,48.7 C 39,48 39.1,47 39.8,46.4 l 8.6,-7.3 c 0.7,-0.6 1.7,-0.5 2.3,0.2 l 0.2,0.3 c 0.6,0.7 0.5,1.7 -0.2,2.3 l -8.6,7.3 c -0.7,0.6 -1.7,0.5 -2.3,-0.2 z"/></g><g id="line" transform="translate(-12,-12)"><path id="path3" fill="none" stroke="#000" stroke-linecap="round" stroke-linejoin="round" stroke-miterlimit="10" stroke-width="2" d="m 50.975,27.2 c -1.6,-2.8 -4.8,-4.1 -7.9,-3.4"/><path id="path4" fill="none" stroke="#000" stroke-linecap="round" stroke-linejoin="round" stroke-miterlimit="10" stroke-width="2" d="M 56.9913,26.6594 C 53.3755,18.6245 45.3406,13 36,13 23.345,13 13,23.2445 13,36 13,48.655 23.2445,59 36,59 46.6463,59 55.5852,51.7686 58.1965,42.0262"/><path id="path5" d="m 30,33 c 0,1.6568 -1.3448,3 -3,3 -1.6553,0 -3,-1.3433 -3,-3 0,-1.6552 1.3447,-3 3,-3 1.6552,0 3,1.3448 3,3"/><path id="path6" d="m 48,33 c 0,1.6568 -1.3447,3 -3,3 -1.6553,0 -3,-1.3433 -3,-3 0,-1.6552 1.3447,-3 3,-3 1.6553,0 3,1.3448 3,3"/><path id="path7" fill="none" stroke="#000" stroke-linecap="round" stroke-linejoin="round" stroke-miterlimit="10" stroke-width="2" d="m 21.025,27.2 c 0.7,-1.4 1.9,-2.4 3.4,-3 1.4,-0.7 3,-0.8 4.5,-0.4"/><path id="path8" fill="none" stroke="#000" stroke-miterlimit="10" d="m 40,49.3 -0.7,-0.8 c -0.7,-0.9 -0.6,-2.2 0.2,-2.9 l 17,-14.4 c 0.9,-0.7 2.2,-0.6 2.9,0.2 l 0.7,0.8 c 0.7,0.9 0.6,2.2 -0.2,2.9 l -17,14.4 c -0.8,0.8 -2.1,0.7 -2.9,-0.2 z"/><path id="path9" fill="none" stroke="#000" stroke-linecap="round" stroke-linejoin="round" stroke-miterlimit="10" stroke-width="2" d="m 29.6,50.7 c 4.3,-2.3 9.1,-2.4 12.8,0"/><path id="path10" fill="none" stroke="#000" stroke-miterlimit="10" stroke-width="2" d="m 40,49.3 -0.7,-0.8 c -0.7,-0.9 -0.6,-2.2 0.2,-2.9 l 17,-14.4 c 0.9,-0.7 2.2,-0.6 2.9,0.2 l 0.7,0.8 c 0.7,0.9 0.6,2.2 -0.2,2.9 l -17,14.4 c -0.8,0.8 -2.1,0.7 -2.9,-0.2 z"/></g></svg>