<?xml version="1.0" encoding="UTF-8" standalone="no"?>
<svg
   id="emoji"
   viewBox="0 0 56.812515 60.295666"
   version="1.1"
   sodipodi:docname="1f91f-1f3fd.svg"
   width="56.812515"
   height="60.295666"
   xmlns:inkscape="http://www.inkscape.org/namespaces/inkscape"
   xmlns:sodipodi="http://sodipodi.sourceforge.net/DTD/sodipodi-0.dtd"
   xmlns="http://www.w3.org/2000/svg"
   xmlns:svg="http://www.w3.org/2000/svg">
  <defs
     id="defs4" />
  <sodipodi:namedview
     id="namedview4"
     pagecolor="#ffffff"
     bordercolor="#000000"
     borderopacity="0.25"
     inkscape:showpageshadow="2"
     inkscape:pageopacity="0.0"
     inkscape:pagecheckerboard="0"
     inkscape:deskcolor="#d1d1d1" />
  <g
     id="color"
     transform="translate(-7.788479,-2.624103)" />
  <g
     id="hair"
     transform="translate(-7.788479,-2.624103)" />
  <g
     id="skin"
     transform="translate(-7.788479,-2.624103)">
    <path
       fill="#c19a65"
       d="M 18,25.4375 16,14.25 C 15.125,9.7518 8.3125,10.625 8.8125,16 c 0,0 3.8903,21.9482 4.4479,29.3481 v -0.2559 c 0.5404,10.5716 9.8613,17.3382 20.4303,16.7979 6.0957,-0.3376 11.8562,-2.898 16.1913,-7.1966 3.7118,-3.9314 12.8301,-14.6738 12.8301,-14.6738 1.861,-2.7454 0.4175,-6.9889 -1.0186,-5.9441 l -12.563,5.9165 0.3194,-0.107 C 47.0525,40.7318 46.4104,38.3533 46.625,36.6404 L 48.7361,8.7563 C 49.2633,1.9879 41.478,2.1708 41.478,7.7942 L 40.3125,23.5 l -9.6782,0.8404 -0.5949,0.6013 -0.6767,-0.4909 z"
       id="path1" />
  </g>
  <g
     id="skin-shadow"
     transform="translate(-7.788479,-2.624103)" />
  <g
     id="line"
     transform="translate(-7.788479,-2.624103)">
    <path
       fill="none"
       stroke="#000000"
       stroke-linecap="round"
       stroke-linejoin="round"
       stroke-width="2"
       d="M 18,25.4375 16,14.25 C 15.125,9.7518 8.3125,10.625 8.8125,16 c 0,0 3.8903,21.9482 4.4479,29.3481 v -0.2559 c 0.5404,10.5716 9.8613,17.3382 20.4303,16.7979 6.0957,-0.3376 11.8562,-2.898 16.1913,-7.1966 3.7118,-3.9314 12.8301,-14.6738 12.8301,-14.6738 1.861,-2.7454 0.4175,-6.9889 -1.0186,-5.9441 l -12.563,5.9165 0.3194,-0.107 C 47.0525,40.7318 46.4104,38.3533 46.625,36.6404 L 48.7361,8.7563 C 49.2633,1.9879 41.478,2.1708 41.478,7.7942 L 40.3125,23.5"
       id="path2" />
    <path
       fill="none"
       stroke="#000000"
       stroke-linecap="round"
       stroke-linejoin="round"
       stroke-width="2"
       d="m 30.0394,27.604 c 0.2371,-2.1519 1.7598,-3.4091 3.8076,-3.4552 1.9138,-0.043 3.9409,0.9576 3.9591,3.2774 0,0 0.1972,6.9598 0.1592,7.3048 -0.2371,2.1519 -2.1736,3.7041 -4.3255,3.467 C 31.488,37.961 30.258,36 30.1728,33.8726 Z"
       id="path3" />
    <path
       fill="none"
       stroke="#000000"
       stroke-linecap="round"
       stroke-linejoin="round"
       stroke-width="2"
       d="m 22.1086,27.604 c 0.2371,-2.1519 1.7598,-3.4091 3.8076,-3.4552 1.9138,-0.043 3.9409,0.9576 3.9591,3.2774 0,0 0.1972,6.9598 0.1592,7.3048 -0.2371,2.1519 -2.1736,3.7041 -4.3255,3.467 C 23.5572,37.961 22.3272,36 22.242,33.8726 Z"
       id="path4" />
  </g>
</svg>
