<svg xmlns="http://www.w3.org/2000/svg" xmlns:svg="http://www.w3.org/2000/svg" id="emoji" width="38.72" height="64.587" version="1.1" viewBox="0 0 38.72 64.587"><g id="skin" transform="translate(-16.6667,-3.9444939)"><path id="path1" fill="#a57939" stroke="#a57939" d="m 21.6616,43.9634 c -2.0638,-0.1527 -3.6226,-1.9342 -3.5,-4 v -7 c -0.2578,-1.933 1.1001,-3.709 3.0331,-3.9669 1.933,-0.2578 3.709,1.1001 3.9669,3.0331 0.0413,0.3099 0.0413,0.6239 0,0.9337 v 7 c 0.1226,2.0659 -1.4362,3.8474 -3.5,4.0001 z"/><path id="path2" fill="#a57939" stroke="#a57939" d="m 28.724,50.1933 c -2.0638,-0.1527 -3.6226,-1.9342 -3.5,-4 v -15 c -0.2578,-1.933 1.1001,-3.709 3.0331,-3.9669 1.933,-0.2578 3.709,1.1001 3.9669,3.0331 0.0413,0.3099 0.0413,0.6239 0,0.9337 v 15 c 0.1226,2.0659 -1.4362,3.8474 -3.5,4.0001 z"/><path id="path3" fill="#a57939" stroke="#a57939" d="M 54.3862,37.9375 42.2667,7.68 C 40.25,3.0625 33.0625,5.9375 34.7519,10.3928 l 3.1856,9.0447 2.5625,16.1667"/><path id="path4" fill="#a57939" stroke="#a57939" d="M 46.6991,19.3468 49.9957,9.6819 C 50.9506,4.7345 43.3993,3.0305 42.2667,7.6587"/><path id="path5" fill="#a57939" stroke="#a57939" d="M 33.9375,54.375 43.8708,23.8548 C 44.8257,18.9074 40.7501,7.5236 32.2551,31.8125"/><path id="path6" fill="#a57939" stroke="#a57939" d="m 18.6704,46.5 v 6.1723 c 1.1617,8.6001 8.6874,14.9847 17.5125,14.857 9.8346,0 18.2033,-6.833 18.2033,-16.878 l -0.0011,-10e-4 -0.6684,-11.129 c -0.1659,-2.228 -2.037,-3.9616 -4.3095,-3.993 H 39.2339 c -2.1016,-0.1226 -3.914,1.4362 -4.0694,3.5 0.1852,2.1099 1.8969,3.7781 4.045,3.942 l 1.0672,0.117 c 2.2249,0.242 4.045,1.342 4.045,2.442 v 2 0.44 c -2.1907,0.4577 -4.2188,1.4784 -5.8772,2.958"/><polygon id="polygon6" fill="#a57939" stroke="#a57939" points="17.167 39.958 44.594 39.781 43.438 54.875 17.167 46.917"/></g><g id="line" transform="translate(-16.6667,-3.9444939)"><path id="path7" fill="none" stroke="#000" stroke-linecap="round" stroke-linejoin="round" stroke-width="2" d="m 21.6616,43.9634 c -2.0638,-0.1527 -3.6226,-1.9342 -3.5,-4 v -7 c -0.2578,-1.933 1.1001,-3.709 3.0331,-3.9669 1.933,-0.2578 3.709,1.1001 3.9669,3.0331 0.0413,0.3099 0.0413,0.6239 0,0.9337 v 7 c 0.1226,2.0659 -1.4362,3.8474 -3.5,4.0001 z"/><path id="path8" fill="none" stroke="#000" stroke-linecap="round" stroke-linejoin="round" stroke-width="2" d="m 28.724,50.1933 c -2.0638,-0.1527 -3.6226,-1.9342 -3.5,-4 v -15 c -0.2578,-1.933 1.1001,-3.709 3.0331,-3.9669 1.933,-0.2578 3.709,1.1001 3.9669,3.0331 0.0413,0.3099 0.0413,0.6239 0,0.9337 v 15 c 0.1226,2.0659 -1.4362,3.8474 -3.5,4.0001 z"/><line id="line8" x1="37.938" x2="34.966" y1="19.438" y2="27.195" fill="none" stroke="#000" stroke-linecap="round" stroke-linejoin="round" stroke-width="2"/><path id="path9" fill="none" stroke="#000" stroke-linecap="round" stroke-linejoin="round" stroke-width="2" d="M 51.5391,32.0863 42.2667,7.68 C 40.25,3.0625 33.0625,5.9375 34.7519,10.3928 l 3.1856,9.0447 4.4316,12.533"/><path id="path10" fill="none" stroke="#000" stroke-linecap="round" stroke-linejoin="round" stroke-width="2" d="M 46.6991,19.3468 49.9957,9.6819 C 50.9506,4.7345 43.3993,3.0305 42.2667,7.6587"/><path id="path11" fill="none" stroke="#000" stroke-linecap="round" stroke-linejoin="round" stroke-width="2" d="m 18.1302,47.0806 c 0,0 -0.0905,4.1182 0,5.487 0.5722,8.6567 9.6883,15.0894 18.363,14.9617 9.667,0 17.893,-6.833 17.893,-16.878 l -0.001,-10e-4 -0.657,-11.129 c -0.1631,-2.228 -2.0023,-3.9616 -4.236,-3.993 h -10 c -2.0658,-0.1226 -3.8473,1.4362 -4,3.5 0.1821,2.1099 1.8646,3.7781 3.976,3.942 l 1.049,0.117 c 2.187,0.242 3.976,1.342 3.976,2.442 v 2 0.44 c -2.1534,0.4577 -4.1469,1.4784 -5.777,2.958"/></g></svg>