<svg xmlns="http://www.w3.org/2000/svg" xmlns:svg="http://www.w3.org/2000/svg" id="emoji" width="48" height="48" version="1.1" viewBox="0 0 48 48"><g id="color" transform="translate(-12,-12)"><circle id="circle1" cx="36" cy="36" r="23" fill="#fcea2b"/><path id="path1" fill="#fff" d="m 32.1434,47.3742 c -0.282,1.7234 -0.4344,5.4883 3.8566,4.64 v -4.3697"/><path id="path2" fill="#fff" d="m 39.8566,47.3742 c 0.282,1.7234 0.4344,5.4883 -3.8566,4.64 v -4.3697"/></g><g id="line" transform="translate(-12,-12)"><circle id="circle2" cx="36" cy="36" r="23" fill="none" stroke="#000" stroke-linecap="round" stroke-linejoin="round" stroke-miterlimit="10" stroke-width="2"/><path id="path3" fill="none" stroke="#000" stroke-linecap="round" stroke-linejoin="round" stroke-miterlimit="10" stroke-width="2" d="m 19.074,30.4073 c 0,0 -0.953,8.5508 6.8608,7.9185 2.6197,-0.212 7.8164,-0.6507 7.867,-8.3427 0.0046,-0.6979 -0.0078,-1.5989 -0.8108,-2.6298 -1.0647,-1.3669 -3.5716,-1.9711 -9.9446,-1.422 1e-4,10e-5 -3.4462,-0.099 -3.9724,4.476 z"/><polyline id="polyline3" fill="none" stroke="#000" stroke-linecap="round" stroke-linejoin="round" stroke-miterlimit="10" stroke-width="2" points="19.145 29.874 18.712 26.503 22.545 25.975"/><path id="path4" fill="none" stroke="#000" stroke-linecap="round" stroke-linejoin="round" stroke-miterlimit="10" stroke-width="2" d="m 52.9325,30.4073 c 0,0 0.953,8.5508 -6.8608,7.9185 -2.6197,-0.212 -7.8164,-0.6507 -7.867,-8.3427 -0.0046,-0.6979 0.0078,-1.5989 0.8108,-2.6298 1.0647,-1.3669 3.5716,-1.9711 9.9446,-1.422 0,10e-5 3.4463,-0.099 3.9724,4.476 z"/><path id="path5" fill="none" stroke="#000" stroke-linecap="round" stroke-linejoin="round" stroke-miterlimit="10" stroke-width="2" d="m 31.6962,26.3593 c 0,0 4.1241,2.5339 8.6569,0"/><path id="path6" fill="none" stroke="#000" stroke-linecap="round" stroke-linejoin="round" stroke-miterlimit="10" stroke-width="2" d="m 33.8022,31.2614 c 0,0 2.1275,-3.7509 4.383,0"/><polyline id="polyline6" fill="none" stroke="#000" stroke-linecap="round" stroke-linejoin="round" stroke-miterlimit="10" stroke-width="2" points="52.855 29.877 53.288 26.505 49.455 25.978"/><path id="path7" fill="none" stroke="#000" stroke-linecap="round" stroke-linejoin="round" stroke-miterlimit="10" stroke-width="2" d="m 34.1463,29.9706 c 0,0 1.7954,-3.7509 3.6988,0"/><path id="path8" fill="none" stroke="#000" stroke-miterlimit="10" stroke-width="2" d="m 32.1434,47.3742 c -0.282,1.7234 -0.4344,5.4883 3.8566,4.64 v -4.3697"/><path id="path9" d="m 30,31 c 0,1.6568 -1.3448,3 -3,3 -1.6553,0 -3,-1.3433 -3,-3 0,-1.6552 1.3447,-3 3,-3 1.6552,0 3,1.3448 3,3"/><path id="path10" d="m 48,31 c 0,1.6568 -1.3447,3 -3,3 -1.6553,0 -3,-1.3433 -3,-3 0,-1.6552 1.3447,-3 3,-3 1.6553,0 3,1.3448 3,3"/><path id="path11" fill="none" stroke="#000" stroke-miterlimit="10" stroke-width="2" d="m 39.8566,47.3742 c 0.282,1.7234 0.4344,5.4883 -3.8566,4.64 v -4.3697"/><path id="path12" fill="none" stroke="#000" stroke-linecap="round" stroke-linejoin="round" stroke-miterlimit="10" stroke-width="2" d="m 45.8148,44.8055 c -6.574,3.5248 -14.0454,3.6576 -19.6295,0"/></g></svg>