<?xml version="1.0" encoding="UTF-8" standalone="no"?>
<svg
   id="emoji"
   viewBox="0 0 49.743954 48.720554"
   version="1.1"
   sodipodi:docname="1f921.svg"
   width="49.743954"
   height="48.720554"
   xmlns:inkscape="http://www.inkscape.org/namespaces/inkscape"
   xmlns:sodipodi="http://sodipodi.sourceforge.net/DTD/sodipodi-0.dtd"
   xmlns="http://www.w3.org/2000/svg"
   xmlns:svg="http://www.w3.org/2000/svg">
  <defs
     id="defs13" />
  <sodipodi:namedview
     id="namedview13"
     pagecolor="#ffffff"
     bordercolor="#000000"
     borderopacity="0.25"
     inkscape:showpageshadow="2"
     inkscape:pageopacity="0.0"
     inkscape:pagecheckerboard="0"
     inkscape:deskcolor="#d1d1d1" />
  <g
     id="color"
     transform="translate(-11.128023,-11.279445)">
    <path
       fill="#d22f27"
       d="m 13.8451,27.9329 c 0,0 -2.047,-1.4682 -0.6019,-3.1236 0,0 -2.2788,-2.0129 -0.4281,-3.9039 0,0 -1.2382,-4.0732 2.1382,-4.309 0,0 -0.3899,-4.0721 4.079,-3.5985 0,0 2.5018,-1.8015 4.3561,0.2489 0,0 2.5324,-1.6079 3.8427,0.4026"
       id="path1" />
    <path
       fill="#d22f27"
       d="m 58.1549,27.9329 c 0,0 2.047,-1.4682 0.6019,-3.1236 0,0 2.2788,-2.0129 0.4281,-3.9039 0,0 1.2382,-4.0732 -2.1382,-4.309 0,0 0.3899,-4.0721 -4.079,-3.5985 0,0 -2.5018,-1.8015 -4.3561,0.2489 0,0 -2.5324,-1.6079 -3.8427,0.4026"
       id="path2" />
    <circle
       cx="36"
       cy="36"
       r="23"
       fill="#ffffff"
       id="circle2" />
    <path
       fill="#d22f27"
       d="m 49.8069,46.5463 c 0,0 -1.58,8.43 -13.81,8.76 -12.18,-0.44 -13.81,-8.76 -13.81,-8.76 -0.46,-1.73 -1.2401,-5.76 2.28,-3.81 2.7,1.5 5.38,4.37 11.53,4.55 6.16,-0.18 8.83,-3.05 11.53,-4.55 3.52,-1.95 2.75,2.08 2.28,3.81 z"
       id="path3" />
    <path
       fill="#ffffff"
       d="m 35.9981,52.7344 c -6.0618,0 -9.9298,-3.3099 -10.9113,-4.9147 -0.9815,-1.6048 0.5505,-1.1552 0.866,-1.003 2.3137,1.1164 4.0412,2.6979 10.0453,2.9036 m 0,3.0141 c 6.0618,0 9.9298,-3.3099 10.9113,-4.9147 0.9815,-1.6048 -0.5505,-1.1552 -0.866,-1.003 -2.3138,1.1164 -4.0412,2.6979 -10.0453,2.9036"
       id="path4" />
  </g>
  <g
     id="hair"
     transform="translate(-11.128023,-11.279445)" />
  <g
     id="skin"
     transform="translate(-11.128023,-11.279445)" />
  <g
     id="skin-shadow"
     transform="translate(-11.128023,-11.279445)" />
  <g
     id="line"
     transform="translate(-11.128023,-11.279445)">
    <path
       fill="none"
       stroke="#000000"
       stroke-linecap="round"
       stroke-linejoin="round"
       stroke-miterlimit="10"
       stroke-width="2"
       d="m 23.4432,21.1746 c 2.8989,-1.5543 6.1935,-1.6129 8.6558,0"
       id="path5" />
    <path
       fill="none"
       stroke="#000000"
       stroke-linecap="round"
       stroke-linejoin="round"
       stroke-miterlimit="10"
       stroke-width="2"
       d="m 39.901,21.1746 c 2.8989,-1.5543 6.1935,-1.6129 8.6558,0"
       id="path6" />
    <path
       fill="none"
       stroke="#000000"
       stroke-linecap="round"
       stroke-linejoin="round"
       stroke-miterlimit="10"
       stroke-width="2"
       d="m 49.8078,46.5463 c 0,0 -1.58,8.43 -13.81,8.76 -12.18,-0.44 -13.81,-8.76 -13.81,-8.76 -0.46,-1.73 -1.2401,-5.76 2.28,-3.81 2.7,1.5 5.38,4.37 11.53,4.55 6.16,-0.18 8.83,-3.05 11.53,-4.55 3.52,-1.95 2.75,2.08 2.28,3.81 z"
       id="path7" />
    <path
       fill="none"
       stroke="#000000"
       stroke-linecap="round"
       stroke-linejoin="round"
       stroke-miterlimit="10"
       stroke-width="2"
       d="m 13.8451,27.9329 c 0,0 -2.047,-1.4682 -0.6019,-3.1236 0,0 -2.2788,-2.0129 -0.4281,-3.9039 0,0 -1.2382,-4.0732 2.1382,-4.309 0,0 -0.3899,-4.0721 4.079,-3.5985 0,0 2.5018,-1.8015 4.3561,0.2489 0,0 2.5324,-1.6079 3.8427,0.4026"
       id="path8" />
    <circle
       cx="36"
       cy="36"
       r="23"
       fill="none"
       stroke="#000000"
       stroke-linecap="round"
       stroke-linejoin="round"
       stroke-miterlimit="10"
       stroke-width="2"
       id="circle8" />
    <path
       fill="none"
       stroke="#000000"
       stroke-linecap="round"
       stroke-linejoin="round"
       stroke-miterlimit="10"
       stroke-width="2"
       d="m 58.1549,27.9329 c 0,0 2.047,-1.4682 0.6019,-3.1236 0,0 2.2788,-2.0129 0.4281,-3.9039 0,0 1.2382,-4.0732 -2.1382,-4.309 0,0 0.3899,-4.0721 -4.079,-3.5985 0,0 -2.5018,-1.8015 -4.3561,0.2489 0,0 -2.5324,-1.6079 -3.8427,0.4026"
       id="path9" />
    <ellipse
       cx="27.771099"
       cy="30.818001"
       rx="3.5"
       ry="6.3045001"
       fill="none"
       stroke="#000000"
       stroke-miterlimit="10"
       stroke-width="2"
       id="ellipse9" />
    <ellipse
       cx="44.228901"
       cy="30.8216"
       rx="3.5"
       ry="6.3045001"
       fill="none"
       stroke="#000000"
       stroke-miterlimit="10"
       stroke-width="2"
       id="ellipse10" />
    <circle
       cx="36"
       cy="38.977901"
       r="2.7351"
       id="circle10" />
  </g>
  <g
     id="color-foreground"
     transform="translate(-11.128023,-11.279445)">
    <ellipse
       cx="27.771099"
       cy="30.818001"
       rx="3.5"
       ry="6.3045001"
       fill="none"
       stroke="#92d3f5"
       stroke-miterlimit="10"
       stroke-width="2.1"
       id="ellipse11" />
    <ellipse
       cx="44.228901"
       cy="30.8216"
       rx="3.5"
       ry="6.3045001"
       fill="none"
       stroke="#92d3f5"
       stroke-miterlimit="10"
       stroke-width="2.1"
       id="ellipse12" />
    <path
       d="m 30.2676,30.816 c 0,3.04 -1.32,5.31 -2.5,5.31 -1.18,0 -2.5,-2.27 -2.5,-5.31 0,-3.03 1.32,-5.3 2.5,-5.3 1.18,0 2.5,2.2701 2.5,5.3 z"
       id="path12" />
    <path
       d="m 46.7276,30.8261 c 0,3.03 -1.32,5.3 -2.5,5.3 -1.18,0 -2.5,-2.27 -2.5,-5.3 0,-3.04 1.32,-5.31 2.5,-5.31 1.18,0 2.5,2.27 2.5,5.31 z"
       id="path13" />
    <circle
       cx="36.056301"
       cy="38.977901"
       r="2.7351"
       fill="#d22f27"
       id="circle13" />
  </g>
</svg>
