<svg xmlns="http://www.w3.org/2000/svg" xmlns:svg="http://www.w3.org/2000/svg" id="emoji" width="40.125" height="50" version="1.1" viewBox="0 0 40.125 50"><g id="color" transform="translate(-15.875,-11)"><path id="path1" fill="#92d3f5" d="M 16,60.958 15.875,57 c 0,-5.875 6.1328,-10 11.125,-10 6,5 12,5 18,0 4.9941,0 10,5.0059 10,10 v 3.958"/></g><g id="hair" transform="translate(-15.875,-11)"><path id="path2" fill="#a57939" d="m 26,38 c -3,0 -4.958,-6.333 -5,-14 -0.0332,-6 6,-12 15,-12 9,0 14,6 14,12 0,7 -1,14 -4,14"/></g><g id="skin" transform="translate(-15.875,-11)"><path id="path3" fill="#fadcbc" d="M 24.125,31 C 23.9688,39.7187 28.5313,46 35.9365,46 43,46 47,39 47,31 47,26 44,21 44,21 c -8,0 -10.124,3.729 -16,1.2515 0,0 -3.7852,3.749 -3.875,8.7485 z"/><path id="path4" fill="#fadcbc" d="m 28.875,60.958 c 0.0049,-0.5703 -0.6973,-10.4092 0,-14.9717 0.2666,-1.7461 2,-1.9863 3,-3.9863 3,-6 1.833,-8.333 4,-14 1.1299,-2.9541 -1.5645,-3.7236 -3.127,-0.6001 L 35.7559,23.606 C 36.96,20.2915 33.168,19.1665 31.5,21 l -1.8271,3.6265 C 31.2422,22.2729 28.6914,20.478 27,22.2515 25.4209,23.9072 23.376,28.5464 21.875,33 c 0,0 -0.1172,-2.1943 0.8125,-4.1875 C 23.252,27.6025 22.916,25.8633 21,26 c -0.9971,0.0713 -1.7637,2.7734 -2.54,5.667 -0.7803,2.9067 0.0879,7.1562 0.7197,8.4209 1.4141,2.8281 1.6953,2.8984 1.6953,2.8984 0,0 -2,8.9717 -4,17.9717"/></g><g id="line" transform="translate(-15.875,-11)"><path id="path5" fill="none" stroke="#000" stroke-linecap="round" stroke-linejoin="round" stroke-miterlimit="10" stroke-width="2" d="M 32.3457,21.542 C 30.1553,24.8276 30.4473,24.3462 27,31"/><path id="path6" fill="none" stroke="#000" stroke-linecap="round" stroke-linejoin="round" stroke-miterlimit="10" stroke-width="2" d="m 22,32.6025 c 2.25,-4.333 4.1094,-7.81 5.5313,-9.6025"/><path id="path7" fill="none" stroke="#000" stroke-linecap="round" stroke-linejoin="round" stroke-miterlimit="10" stroke-width="2" d="m 17,60 c 2,-9 4,-17.4111 4,-17.4111 0,0 -0.5859,-0.7603 -2,-3.5889 -2,-4 0,-9 2,-12"/><path id="path8" fill="none" stroke="#000" stroke-linecap="round" stroke-linejoin="round" stroke-miterlimit="10" stroke-width="2" d="m 35,23 c -1.2832,2.5649 -2.8262,5.4771 -4,9"/><path id="path9" fill="none" stroke="#000" stroke-linecap="round" stroke-linejoin="round" stroke-miterlimit="10" stroke-width="2" d="m 29,60 c 0.0049,-0.5703 -0.6973,-9.4512 0,-14.0137 0.2666,-1.7461 2.1914,-2.289 3,-3.9863 1.9063,-4 2.334,-7.8057 3.9365,-14"/><path id="path10" fill="none" stroke="#000" stroke-linecap="round" stroke-linejoin="round" stroke-width="2" d="m 46,38 c 3,0 4,-7 4,-14 0,-6 -5,-12 -14,-12 -8.7617,0 -13.7324,3.7915 -13.9893,11.3735"/><path id="path11" d="m 41.873,30 c 0,1.1045 -0.8955,2 -2,2 -1.1044,0 -2,-0.8955 -2,-2 0,-1.1045 0.8956,-2 2,-2 1.1045,0 2,0.8955 2,2"/><path id="path12" fill="none" stroke="#000" stroke-linecap="round" stroke-linejoin="round" stroke-width="2" d="m 37.4375,38 c 1.75,0 -0.875,0 1.5625,0"/><path id="path13" fill="none" stroke="#000" stroke-linecap="round" stroke-linejoin="round" stroke-width="2" d="M 37.998,20.6182 C 38.71,20.4756 39.4561,20.3437 40.25,20.2393 41.3477,20.0947 42.5791,20 44,20 c 0,0 3,6 3,11 0,8 -5.127,14 -11.0635,14 -0.4795,0 -0.9531,-0.0381 -1.4179,-0.1113"/><path id="path14" fill="none" stroke="#000" stroke-linecap="round" stroke-linejoin="round" stroke-width="2" d="m 55,60 v -3 c 0,-4.9941 -5.0059,-9 -10,-9 -3.3652,2.8027 -6.8389,3.6934 -10.0937,3.6934 -0.7042,0 -1.4415,-0.0655 -2.0538,-0.1402"/></g></svg>