<?xml version="1.0" encoding="UTF-8" standalone="no"?>
<svg
   id="emoji"
   viewBox="0 0 40.125 51.123001"
   version="1.1"
   sodipodi:docname="1f926-1f3fc-200d-2640-fe0f.svg"
   width="40.125"
   height="51.123001"
   xmlns:inkscape="http://www.inkscape.org/namespaces/inkscape"
   xmlns:sodipodi="http://sodipodi.sourceforge.net/DTD/sodipodi-0.dtd"
   xmlns="http://www.w3.org/2000/svg"
   xmlns:svg="http://www.w3.org/2000/svg">
  <defs
     id="defs14" />
  <sodipodi:namedview
     id="namedview14"
     pagecolor="#ffffff"
     bordercolor="#000000"
     borderopacity="0.25"
     inkscape:showpageshadow="2"
     inkscape:pageopacity="0.0"
     inkscape:pagecheckerboard="0"
     inkscape:deskcolor="#d1d1d1" />
  <g
     id="color"
     transform="translate(-15.875,-9.877)">
    <path
       fill="#92d3f5"
       d="M 17,60.958 15.875,57 c 0,-5.875 6.1328,-10 11.125,-10 6,5 12,5 18,0 4.9941,0 10,5.0059 10,10 v 3.958"
       id="path1" />
  </g>
  <g
     id="hair"
     transform="translate(-15.875,-9.877)">
    <path
       fill="#fcea2b"
       d="M 20.2654,49.272 C 22.305,47.8316 24.765,47 27,47 c 6,5 12,5 18,0 1.8959,0 3.7919,0.7239 5.4167,1.8923 0.7012,-0.423 1.4046,-0.861 2.1135,-1.3337 -0.3916,0.3906 3.5781,-7.6279 0.8447,-12.3711 -0.4385,-0.8535 -0.9805,-2.3496 -1.3125,-3.25 -1.4727,-3.2695 -1.8623,-4.0313 -2.1875,-10.0625 0.0273,-3.6929 -3.1562,-6.999 -6.8369,-7.3076 -0.2656,-0.0181 -0.5137,-0.1416 -0.6885,-0.3433 -0.0928,-0.0996 -2.8271,-3.0366 -7.6621,-3.0366 -6.2002,0 -11.3057,4.0464 -12.6074,8.8906 -0.5342,2.0122 -2.6553,2.0952 -2.4951,4.171 0.2041,2.019 -0.0098,7.0098 -0.7139,8.912 -0.2481,0.7559 -0.627,1.463 -1.1191,2.088 -3.7725,4.4199 0.4316,12.4463 0.2392,12.1533 0.7491,0.6817 1.509,1.2935 2.2743,1.8696 z"
       id="path2" />
  </g>
  <g
     id="skin"
     transform="translate(-15.875,-9.877)">
    <path
       fill="#debb90"
       d="m 28.875,60.958 c 0.0049,-0.5703 -0.6973,-10.4092 0,-14.9717 0.2666,-1.7461 2,-1.9863 3,-3.9863 3,-6 1.833,-8.333 4,-14 1.1299,-2.9541 -1.5645,-3.7236 -3.127,-0.6001 L 35.7559,23.606 C 36.96,20.2915 33.168,19.1665 31.5,21 l -1.8271,3.6265 C 31.2422,22.2729 28.6914,20.478 27,22.2515 25.4209,23.9072 23.376,28.5464 21.875,33 c 0,0 -0.1172,-2.1943 0.8125,-4.1875 C 23.252,27.6025 22.916,25.8633 21,26 c -0.9971,0.0713 -1.7637,2.7734 -2.54,5.667 -0.7803,2.9067 0.0879,7.1562 0.7197,8.4209 1.4141,2.8281 1.6953,2.8984 1.6953,2.8984 0,0 -2,8.9717 -4,17.9717"
       id="path3" />
    <path
       fill="#debb90"
       d="M 24.125,31 C 23.9688,39.7187 28.5313,46 35.9365,46 43,46 47,39 47,31 47,26 38.084,17.501 38.084,17.501 c -3.75,3.583 -6.874,12.7778 -12.75,10.3003 0,0 -1.1192,-1.8008 -1.209,3.1987 z"
       id="path4" />
  </g>
  <g
     id="skin-shadow"
     transform="translate(-15.875,-9.877)" />
  <g
     id="line"
     transform="translate(-15.875,-9.877)">
    <path
       fill="none"
       stroke="#000000"
       stroke-linecap="round"
       stroke-linejoin="round"
       stroke-width="2"
       d="m 20.4785,24.0044 c 0.0371,-1.1914 0.1895,-2.5352 0.627,-4.1616 1.4795,-5.5 7.2773,-8.9658 13.709,-8.9658 5.4003,0 8,3 8,3 4.1689,0.374 7.373,3.8515 7.4052,8.0371 0.3867,7.1796 1.0244,7.1523 3.4287,12.8222 1.7159,3.9698 1.0762,8.5567 -1.6377,11.9038"
       id="path5" />
    <path
       d="m 41.873,30 c 0,1.1045 -0.8955,2 -2,2 -1.1044,0 -2,-0.8955 -2,-2 0,-1.1045 0.8956,-2 2,-2 1.1045,0 2,0.8955 2,2"
       id="path6" />
    <path
       fill="none"
       stroke="#000000"
       stroke-linecap="round"
       stroke-linejoin="round"
       stroke-width="2"
       d="m 37.4375,38 c 1.75,0 -0.875,0 1.5625,0"
       id="path7" />
    <path
       fill="none"
       stroke="#000000"
       stroke-linecap="round"
       stroke-linejoin="round"
       stroke-width="2"
       d="m 55,60 v -3 c 0,-4.9941 -5.0059,-9 -10,-9 -3.3652,2.8027 -6.8389,3.6934 -10.0937,3.6934 -0.7042,0 -1.4415,-0.0655 -2.0538,-0.1402"
       id="path8" />
    <path
       fill="none"
       stroke="#000000"
       stroke-linecap="round"
       stroke-linejoin="round"
       stroke-miterlimit="10"
       stroke-width="2"
       d="M 32.3457,21.542 C 30.1553,24.8276 30.4473,24.3462 27,31"
       id="path9" />
    <path
       fill="none"
       stroke="#000000"
       stroke-linecap="round"
       stroke-linejoin="round"
       stroke-miterlimit="10"
       stroke-width="2"
       d="m 22,32.6025 c 2.25,-4.333 4.1094,-7.81 5.5313,-9.6025"
       id="path10" />
    <path
       fill="none"
       stroke="#000000"
       stroke-linecap="round"
       stroke-linejoin="round"
       stroke-miterlimit="10"
       stroke-width="2"
       d="m 17,60 c 2,-9 4,-17.4111 4,-17.4111 0,0 -0.5859,-0.7603 -2,-3.5889 -2,-4 0,-9 2,-12"
       id="path11" />
    <path
       fill="none"
       stroke="#000000"
       stroke-linecap="round"
       stroke-linejoin="round"
       stroke-miterlimit="10"
       stroke-width="2"
       d="m 35,23 c -1.2832,2.5649 -2.8262,5.4771 -4,9"
       id="path12" />
    <path
       fill="none"
       stroke="#000000"
       stroke-linecap="round"
       stroke-linejoin="round"
       stroke-miterlimit="10"
       stroke-width="2"
       d="m 29,60 c 0.0049,-0.5703 -0.6973,-9.4512 0,-14.0137 0.2666,-1.7461 2.1914,-2.289 3,-3.9863 1.9063,-4 2.334,-7.8057 3.9365,-14"
       id="path13" />
    <path
       fill="none"
       stroke="#000000"
       stroke-linecap="round"
       stroke-linejoin="round"
       stroke-width="2"
       d="m 37.3262,19.7109 c 0.5107,-0.5605 0.9062,-1.1352 1.6738,-1.7114 0,0 4,5.0005 7,8 0,0 1,2.0005 1,5.0005 0,9 -5.127,14 -11.0635,14 C 35.7178,45 35.377,44.9771 35,44.9438"
       id="path14" />
  </g>
</svg>
