<svg xmlns="http://www.w3.org/2000/svg" xmlns:svg="http://www.w3.org/2000/svg" id="emoji" width="40.125" height="50" version="1.1" viewBox="0 0 40.125 50"><g id="color" transform="translate(-15.875,-11)"><path id="path1" fill="#92d3f5" d="M 16,60.958 15.875,57 c 0,-5.875 6.1328,-10 11.125,-10 6,5 12,5 18,0 4.9941,0 10,5.0059 10,10 v 3.958"/></g><g id="hair" transform="translate(-15.875,-11)"><path id="path2" fill="#f1b31c" d="m 25.7715,39 c -4,0 -4.832,-6.5 -4.832,-13.5 0,-7 4.832,-13.5 14.832,-13.5 10,0 14,7 14,14 0,7 0,13 -4,13"/></g><g id="skin" transform="translate(-15.875,-11)"><path id="path3" fill="#fcea2b" d="M 28.8438,43.0937 C 29.5947,44.0117 32.8525,46 35.75,46 c 5.9365,0 11.125,-5.25 11.125,-14.25 0,-3 -1,-5.0005 -1,-5.0005 -3,-2.9995 -7.6562,-9.4995 -7.6562,-9.4995 -1.1211,0.8413 -2.0743,2.5479 -3.3243,3.978"/><path id="path4" fill="#fcea2b" d="m 28.875,60.958 c 0.0049,-0.5703 -0.6973,-10.4092 0,-14.9717 0.2666,-1.7461 2,-1.9863 3,-3.9863 3,-6 1.833,-8.333 4,-14 1.1299,-2.9541 -1.5645,-3.7236 -3.127,-0.6001 L 35.7559,23.606 C 36.96,20.2915 33.168,19.1665 31.5,21 l -1.8271,3.6265 C 31.2422,22.2729 28.6914,20.478 27,22.2515 25.4209,23.9072 23.376,28.5464 21.875,33 c 0,0 -0.1172,-2.1943 0.8125,-4.1875 C 23.252,27.6025 22.916,25.8633 21,26 c -0.9971,0.0713 -1.7637,2.7734 -2.54,5.667 -0.7803,2.9067 0.0879,7.1562 0.7197,8.4209 1.4141,2.8281 1.6953,2.8984 1.6953,2.8984 0,0 -2,8.9717 -4,17.9717"/></g><g id="line" transform="translate(-15.875,-11)"><path id="path5" fill="none" stroke="#000" stroke-linecap="round" stroke-linejoin="round" stroke-width="2" d="M 22.1895,23.4019 C 23.0879,17.3662 27.2441,12 36,12 c 10,0 14,7 14,14 0,7 0,13 -4,13"/><path id="path6" d="m 41.873,30 c 0,1.1045 -0.8955,2 -2,2 -1.1044,0 -2,-0.8955 -2,-2 0,-1.1045 0.8956,-2 2,-2 1.1045,0 2,0.8955 2,2"/><path id="path7" fill="none" stroke="#000" stroke-linecap="round" stroke-linejoin="round" stroke-width="2" d="m 37.4375,38 c 1.75,0 -0.875,0 1.5625,0"/><path id="path8" fill="none" stroke="#000" stroke-linecap="round" stroke-linejoin="round" stroke-width="2" d="m 55,60 v -3 c 0,-4.9941 -5.0059,-9 -10,-9 -3.3652,2.8027 -6.8389,3.6934 -10.0937,3.6934 -0.7042,0 -1.4415,-0.0655 -2.0538,-0.1402"/><path id="path9" fill="none" stroke="#000" stroke-linecap="round" stroke-linejoin="round" stroke-miterlimit="10" stroke-width="2" d="M 32.3457,21.542 C 30.1553,24.8276 30.4473,24.3462 27,31"/><path id="path10" fill="none" stroke="#000" stroke-linecap="round" stroke-linejoin="round" stroke-miterlimit="10" stroke-width="2" d="m 22,32.6025 c 2.25,-4.333 4.1094,-7.81 5.5313,-9.6025"/><path id="path11" fill="none" stroke="#000" stroke-linecap="round" stroke-linejoin="round" stroke-miterlimit="10" stroke-width="2" d="m 17,60 c 2,-9 4,-17.4111 4,-17.4111 0,0 -0.5859,-0.7603 -2,-3.5889 -2,-4 0,-9 2,-12"/><path id="path12" fill="none" stroke="#000" stroke-linecap="round" stroke-linejoin="round" stroke-miterlimit="10" stroke-width="2" d="m 35,23 c -1.2832,2.5649 -2.8262,5.4771 -4,9"/><path id="path13" fill="none" stroke="#000" stroke-linecap="round" stroke-linejoin="round" stroke-miterlimit="10" stroke-width="2" d="m 29,60 c 0.0049,-0.5703 -0.6973,-9.4512 0,-14.0137 0.2666,-1.7461 2.1914,-2.289 3,-3.9863 1.9063,-4 2.334,-7.8057 3.9365,-14"/><path id="path14" fill="none" stroke="#000" stroke-linecap="round" stroke-linejoin="round" stroke-width="2" d="m 37.3262,19.7109 c 0.5107,-0.5605 0.9062,-1.1352 1.6738,-1.7114 0,0 4,5.0005 7,8 0,0 1,2.0005 1,5.0005 0,9 -5.127,14 -11.0635,14 C 35.7178,45 35.377,44.9771 35,44.9438"/></g></svg>