<svg xmlns="http://www.w3.org/2000/svg" xmlns:svg="http://www.w3.org/2000/svg" id="emoji" width="49.744" height="48.721" version="1.1" viewBox="0 0 49.744 48.721"><g id="color" transform="translate(-11.128023,-11.279445)"><path id="path1" fill="#d22f27" d="m 13.8451,27.9329 c 0,0 -2.047,-1.4682 -0.6019,-3.1236 0,0 -2.2788,-2.0129 -0.4281,-3.9039 0,0 -1.2382,-4.0732 2.1382,-4.309 0,0 -0.3899,-4.0721 4.079,-3.5985 0,0 2.5018,-1.8015 4.3561,0.2489 0,0 2.5324,-1.6079 3.8427,0.4026"/><path id="path2" fill="#d22f27" d="m 58.1549,27.9329 c 0,0 2.047,-1.4682 0.6019,-3.1236 0,0 2.2788,-2.0129 0.4281,-3.9039 0,0 1.2382,-4.0732 -2.1382,-4.309 0,0 0.3899,-4.0721 -4.079,-3.5985 0,0 -2.5018,-1.8015 -4.3561,0.2489 0,0 -2.5324,-1.6079 -3.8427,0.4026"/><circle id="circle2" cx="36" cy="36" r="23" fill="#fff"/><path id="path3" fill="#d22f27" d="m 49.8069,46.5463 c 0,0 -1.58,8.43 -13.81,8.76 -12.18,-0.44 -13.81,-8.76 -13.81,-8.76 -0.46,-1.73 -1.2401,-5.76 2.28,-3.81 2.7,1.5 5.38,4.37 11.53,4.55 6.16,-0.18 8.83,-3.05 11.53,-4.55 3.52,-1.95 2.75,2.08 2.28,3.81 z"/><path id="path4" fill="#fff" d="m 35.9981,52.7344 c -6.0618,0 -9.9298,-3.3099 -10.9113,-4.9147 -0.9815,-1.6048 0.5505,-1.1552 0.866,-1.003 2.3137,1.1164 4.0412,2.6979 10.0453,2.9036 m 0,3.0141 c 6.0618,0 9.9298,-3.3099 10.9113,-4.9147 0.9815,-1.6048 -0.5505,-1.1552 -0.866,-1.003 -2.3138,1.1164 -4.0412,2.6979 -10.0453,2.9036"/></g><g id="line" transform="translate(-11.128023,-11.279445)"><path id="path5" fill="none" stroke="#000" stroke-linecap="round" stroke-linejoin="round" stroke-miterlimit="10" stroke-width="2" d="m 23.4432,21.1746 c 2.8989,-1.5543 6.1935,-1.6129 8.6558,0"/><path id="path6" fill="none" stroke="#000" stroke-linecap="round" stroke-linejoin="round" stroke-miterlimit="10" stroke-width="2" d="m 39.901,21.1746 c 2.8989,-1.5543 6.1935,-1.6129 8.6558,0"/><path id="path7" fill="none" stroke="#000" stroke-linecap="round" stroke-linejoin="round" stroke-miterlimit="10" stroke-width="2" d="m 49.8078,46.5463 c 0,0 -1.58,8.43 -13.81,8.76 -12.18,-0.44 -13.81,-8.76 -13.81,-8.76 -0.46,-1.73 -1.2401,-5.76 2.28,-3.81 2.7,1.5 5.38,4.37 11.53,4.55 6.16,-0.18 8.83,-3.05 11.53,-4.55 3.52,-1.95 2.75,2.08 2.28,3.81 z"/><path id="path8" fill="none" stroke="#000" stroke-linecap="round" stroke-linejoin="round" stroke-miterlimit="10" stroke-width="2" d="m 13.8451,27.9329 c 0,0 -2.047,-1.4682 -0.6019,-3.1236 0,0 -2.2788,-2.0129 -0.4281,-3.9039 0,0 -1.2382,-4.0732 2.1382,-4.309 0,0 -0.3899,-4.0721 4.079,-3.5985 0,0 2.5018,-1.8015 4.3561,0.2489 0,0 2.5324,-1.6079 3.8427,0.4026"/><circle id="circle8" cx="36" cy="36" r="23" fill="none" stroke="#000" stroke-linecap="round" stroke-linejoin="round" stroke-miterlimit="10" stroke-width="2"/><path id="path9" fill="none" stroke="#000" stroke-linecap="round" stroke-linejoin="round" stroke-miterlimit="10" stroke-width="2" d="m 58.1549,27.9329 c 0,0 2.047,-1.4682 0.6019,-3.1236 0,0 2.2788,-2.0129 0.4281,-3.9039 0,0 1.2382,-4.0732 -2.1382,-4.309 0,0 0.3899,-4.0721 -4.079,-3.5985 0,0 -2.5018,-1.8015 -4.3561,0.2489 0,0 -2.5324,-1.6079 -3.8427,0.4026"/><ellipse id="ellipse9" cx="27.771" cy="30.818" fill="none" stroke="#000" stroke-miterlimit="10" stroke-width="2" rx="3.5" ry="6.305"/><ellipse id="ellipse10" cx="44.229" cy="30.822" fill="none" stroke="#000" stroke-miterlimit="10" stroke-width="2" rx="3.5" ry="6.305"/><circle id="circle10" cx="36" cy="38.978" r="2.735"/></g><g id="color-foreground" transform="translate(-11.128023,-11.279445)"><ellipse id="ellipse11" cx="27.771" cy="30.818" fill="none" stroke="#92d3f5" stroke-miterlimit="10" stroke-width="2.1" rx="3.5" ry="6.305"/><ellipse id="ellipse12" cx="44.229" cy="30.822" fill="none" stroke="#92d3f5" stroke-miterlimit="10" stroke-width="2.1" rx="3.5" ry="6.305"/><path id="path12" d="m 30.2676,30.816 c 0,3.04 -1.32,5.31 -2.5,5.31 -1.18,0 -2.5,-2.27 -2.5,-5.31 0,-3.03 1.32,-5.3 2.5,-5.3 1.18,0 2.5,2.2701 2.5,5.3 z"/><path id="path13" d="m 46.7276,30.8261 c 0,3.03 -1.32,5.3 -2.5,5.3 -1.18,0 -2.5,-2.27 -2.5,-5.3 0,-3.04 1.32,-5.31 2.5,-5.31 1.18,0 2.5,2.27 2.5,5.31 z"/><circle id="circle13" cx="36.056" cy="38.978" r="2.735" fill="#d22f27"/></g></svg>