<?xml version="1.0" encoding="UTF-8" standalone="no"?>
<svg
   id="emoji"
   viewBox="0 0 38.172447 60.682198"
   version="1.1"
   sodipodi:docname="1f939-200d-2640-fe0f.svg"
   width="38.172447"
   height="60.682198"
   xmlns:inkscape="http://www.inkscape.org/namespaces/inkscape"
   xmlns:sodipodi="http://sodipodi.sourceforge.net/DTD/sodipodi-0.dtd"
   xmlns="http://www.w3.org/2000/svg"
   xmlns:svg="http://www.w3.org/2000/svg">
  <defs
     id="defs7" />
  <sodipodi:namedview
     id="namedview7"
     pagecolor="#ffffff"
     bordercolor="#000000"
     borderopacity="0.25"
     inkscape:showpageshadow="2"
     inkscape:pageopacity="0.0"
     inkscape:pagecheckerboard="0"
     inkscape:deskcolor="#d1d1d1" />
  <g
     id="skin"
     transform="translate(-16.640853,-4.1870002)">
    <circle
       cx="34.000301"
       cy="12.4879"
       r="3"
       fill="#fcea2b"
       id="circle1" />
    <path
       fill="#fcea2b"
       d="m 28.5984,24.785 2.2259,2.6339 a 26.9255,26.9255 0 0 1 -1.2621,7.3326 c -0.62,1.9844 -1.44,18.8563 -1.615,28.0769 a 0.4051,0.4051 0 0 0 0.398,0.4114 l 1.4226,0.0463 a 0.4792,0.4792 0 0 0 0.49,-0.4123 l 3.3243,-23.6938 1.52,-0.03 3.36,23.9338 2.3489,-0.5462 c 0,0 -0.3289,-16.5393 -0.7741,-22.3514 C 39.6383,35 38.1359,31.7944 38.1359,27.67 l 1.9018,-2.8846 c 0,0 0.1906,3.9085 1.3346,5.72 a 5.7319,5.7319 0 0 0 5.8149,2.7645 c 0,0 4.29,-0.572 5.0523,-2.0972 a 1.89,1.89 0 0 0 0,-1.8113 c -0.0953,-0.2859 -2.5738,0.6673 -2.5738,0.6673 l -2.7645,0.4767 -2.0018,-1.0486 -1.2393,-1.43 -1.9065,-6.9589 -3.3365,-1.2399 -9.2471,-0.1906 -3.2411,4.1944 -0.4767,4.099 -1.62,1.144 -6.387,-5.91 c 0,0 -1.43,1.62 -0.4766,2.9551 0.9534,1.3351 3.6224,5.0524 5.6243,5.4337 a 3.9687,3.9687 0 0 0 4.1944,-1.3346 11.804,11.804 0 0 0 1.8111,-5.434 z"
       id="path1" />
  </g>
  <g
     id="color"
     transform="translate(-16.640853,-4.1870002)">
    <circle
       cx="18.906799"
       cy="17.0935"
       r="1.9065"
       fill="#ea5a47"
       id="circle2" />
    <circle
       cx="38.906799"
       cy="6.0935001"
       r="1.9065"
       fill="#92d3f5"
       id="circle3" />
    <circle
       cx="52.906799"
       cy="26.0935"
       r="1.9065"
       fill="#b1cc33"
       id="circle4" />
  </g>
  <g
     id="line"
     transform="translate(-16.640853,-4.1870002)">
    <circle
       cx="34.500301"
       cy="12.3"
       r="3"
       fill="none"
       stroke="#000000"
       stroke-miterlimit="10"
       stroke-width="2"
       id="circle5" />
    <path
       fill="none"
       stroke="#000000"
       stroke-linecap="round"
       stroke-linejoin="round"
       stroke-width="2"
       d="m 18.1124,23.8318 3.5276,4.0037 c 1.7159,2.0019 3.5271,1.43 3.9085,-1.1439 l 0.3813,-2.0019 c 0.4766,-2.5738 2.4785,-4.957 4.5757,-5.1476 a 33.9985,33.9985 0 0 1 7.6261,0 c 2.0972,0.2859 4.1944,2.5738 4.5757,5.1476 l 0.3813,2.0019 c 0.4767,2.5738 2.4785,4.29 4.5757,3.7177 2.0972,-0.4766 3.8131,-0.9532 3.8131,-0.9532"
       id="path5" />
    <path
       fill="none"
       stroke="#000000"
       stroke-linecap="round"
       stroke-linejoin="round"
       stroke-width="2"
       d="m 38.9891,25.4968 c -2.2879,3.3915 -0.6673,5.9109 0,7.752 a 25.7538,25.7538 0 0 1 0.8579,5.4264 c 0.572,5.814 0.9533,23.256 0.9533,23.256 a 1.6382,1.6382 0 0 1 -1.3346,1.938 1.9619,1.9619 0 0 1 -1.6206,-1.938 L 35.462,40.6132 c -0.0954,-1.0659 -0.6673,-1.938 -1.144,-1.938 -0.4767,0 -1.0486,0.8721 -1.1439,1.938 l -2.3832,21.318 a 2.4384,2.4384 0 0 1 -1.62,1.938 1.6382,1.6382 0 0 1 -1.3346,-1.938 c 0,0 0.4766,-17.2482 1.0486,-23.0622 a 39.1681,39.1681 0 0 1 0.7626,-5.7171 c 0.572,-1.8411 2.2879,-4.5543 0,-7.752"
       id="path6" />
    <path
       fill="none"
       stroke="#000000"
       stroke-linecap="round"
       stroke-linejoin="round"
       stroke-width="2"
       d="m 38.4948,10.6994 c 0,0 0.6433,-0.14 0.9268,0.228 0.3339,0.4318 0.3264,1.7643 0.6877,2.4231 a 3.3629,3.3629 0 0 0 1.58,1.49"
       id="path7" />
  </g>
</svg>
