<?xml version="1.0" encoding="UTF-8" standalone="no"?>
<svg
   id="emoji"
   viewBox="0 0 58.942997 49.995998"
   version="1.1"
   sodipodi:docname="1f937-1f3fd-200d-2642-fe0f.svg"
   width="58.942997"
   height="49.995998"
   xmlns:inkscape="http://www.inkscape.org/namespaces/inkscape"
   xmlns:sodipodi="http://sodipodi.sourceforge.net/DTD/sodipodi-0.dtd"
   xmlns="http://www.w3.org/2000/svg"
   xmlns:svg="http://www.w3.org/2000/svg">
  <defs
     id="defs16" />
  <sodipodi:namedview
     id="namedview16"
     pagecolor="#ffffff"
     bordercolor="#000000"
     borderopacity="0.25"
     inkscape:showpageshadow="2"
     inkscape:pageopacity="0.0"
     inkscape:pagecheckerboard="0"
     inkscape:deskcolor="#d1d1d1" />
  <g
     id="color"
     transform="translate(-6.5285013,-10.9623)">
    <path
       fill="#92d3f5"
       d="m 23,38.9583 c 0,0 -4,1 -4,3 l 2,2 a 35.36,35.36 0 0 1 1,6 c 0,2 -1,11 -1,11 h 30 c 0,0 -2,-15 -1,-16 l 3,-3 c 0,-2 -4,-3 -4,-3"
       id="path1" />
  </g>
  <g
     id="skin"
     transform="translate(-6.5285013,-10.9623)">
    <path
       fill="#c19a65"
       d="m 25,30.9583 c 0,9 4.9365,14 11,14 5.9365,0 11.0635,-5 11.0635,-14 a 12.1332,12.1332 0 0 0 -1,-5 c -0.9553,-3.0582 -1.6273,-6.0451 -1.6273,-6.0451 -5.3017,-0.8214 -11.0514,2.1655 -16.5024,1.2694 0,0 -2.9338,4.7757 -2.9338,9.7757 z"
       id="path2" />
    <path
       fill="#c19a65"
       d="m 13.9678,60.9583 2.9375,-12.3057 -0.9375,-1.25 -4,-3 -4,-6 a 1.4142136,1.4142136 0 0 1 2,-2 l 4,4 c 1,1 2,1 5,2 3,1 3.1308,3.2373 3,5 -0.666,8.9727 -1,13.5557 -1,13.5557"
       id="path3" />
    <path
       fill="#c19a65"
       d="m 19.9912,42.8479 c 0,0 -1.0234,-2.89 -2.1172,-5.89 -0.4316,-1.1816 -1.9062,-1.0312 -1.9062,-0.166 v 3.69"
       id="path4" />
    <path
       fill="#c19a65"
       d="m 58.0322,60.9583 -2.9375,-12.3057 0.9375,-1.25 4,-3 4,-6 a 1.4142136,1.4142136 0 0 0 -2,-2 l -4,4 c -1,1 -2,1 -5,2 -3,1 -3.1308,3.2373 -3,5 0.667,8.9727 1,13.5557 1,13.5557"
       id="path5" />
    <path
       fill="#c19a65"
       d="m 52.01,42.8479 c 0,0 1.0224,-2.89 2.1162,-5.89 0.4306,-1.1816 1.9062,-1.0312 1.9062,-0.166 v 3.69"
       id="path6" />
  </g>
  <g
     id="hair"
     transform="translate(-6.5285013,-10.9623)">
    <path
       fill="#6a462f"
       d="m 44.2784,19.65 c -7.473,0 -8.7162,3.5912 -16.36,1.88 C 24.5143,20.7679 26,37.9623 26,37.9623 c -3,0 -4,-7 -4,-14 0,-6 5,-12 14,-12 9,0 14,6 14,12 0,7 -1,14 -4,14 0,0 0.7172,-18.3123 -1.7216,-18.3123 z"
       id="path7" />
  </g>
  <g
     id="line"
     transform="translate(-6.5285013,-10.9623)">
    <path
       d="m 41.873,29.9583 a 2,2 0 1 1 -2,-2 2,2 0 0 1 2,2"
       id="path8" />
    <path
       d="m 33.873,29.9583 a 2,2 0 1 1 -2,-2 2,2 0 0 1 2,2"
       id="path9" />
    <path
       fill="none"
       stroke="#000000"
       stroke-linecap="round"
       stroke-linejoin="round"
       stroke-width="2"
       d="m 34.084,37.9583 a 11.5,11.5 0 0 0 3.9365,0"
       id="path10" />
    <path
       fill="none"
       stroke="#000000"
       stroke-linecap="round"
       stroke-linejoin="round"
       stroke-width="2"
       d="m 13.9678,59.9583 2.9375,-11.3057 -0.9375,-1.25 -4,-3 -4,-6 a 1.4142136,1.4142136 0 0 1 2,-2 l 4,4 c 1,1 2,1 5,2 3,1 3.1308,3.2373 3,5 -0.666,8.9727 -1,12.5557 -1,12.5557"
       id="path11" />
    <path
       fill="none"
       stroke="#000000"
       stroke-linecap="round"
       stroke-linejoin="round"
       stroke-width="2"
       d="m 19.9912,42.8479 c 0,0 -1.0234,-2.89 -2.1172,-5.89 -0.4316,-1.1816 -1.9062,-1.0312 -1.9062,-0.166 v 3.69"
       id="path12" />
    <path
       fill="none"
       stroke="#000000"
       stroke-linecap="round"
       stroke-linejoin="round"
       stroke-width="2"
       d="m 58.0322,59.9583 -2.9375,-11.3057 0.9375,-1.25 4,-3 4,-6 a 1.4142136,1.4142136 0 0 0 -2,-2 l -4,4 c -1,1 -2,1 -5,2 -3,1 -3.1308,3.2373 -3,5 0.667,8.9727 1,12.5557 1,12.5557"
       id="path13" />
    <path
       fill="none"
       stroke="#000000"
       stroke-linecap="round"
       stroke-linejoin="round"
       stroke-width="2"
       d="m 52.01,42.8479 c 0,0 1.0224,-2.89 2.1162,-5.89 0.4306,-1.1816 1.9062,-1.0312 1.9062,-0.166 v 3.69"
       id="path14" />
    <line
       x1="23"
       x2="26"
       y1="39.958302"
       y2="38.958302"
       fill="none"
       stroke="#000000"
       stroke-linecap="round"
       stroke-linejoin="round"
       stroke-width="2"
       id="line14" />
    <line
       x1="46.0056"
       x2="49.444302"
       y1="38.812099"
       y2="39.958302"
       fill="none"
       stroke="#000000"
       stroke-linecap="round"
       stroke-linejoin="round"
       stroke-width="2"
       id="line15" />
    <path
       fill="none"
       stroke="#000000"
       stroke-linejoin="round"
       stroke-width="2"
       d="m 24.9507,30.9623 c -0.1015,7.999 4.9365,14 11,14 5.9365,0 11.0635,-6 11.0635,-14 0,-5 -3,-11 -3,-11 -8,0 -10,3 -16,1 0,0 -3,5 -3.0635,10 z"
       id="path15" />
    <path
       fill="none"
       stroke="#000000"
       stroke-linecap="round"
       stroke-linejoin="round"
       stroke-width="2"
       d="m 26.0142,37.9623 c -3,0 -4,-7 -4,-14 0,-6 5,-12 14,-12 9,0 14,6 14,12 0,7 -1,14 -4,14"
       id="path16" />
  </g>
</svg>
