<svg xmlns="http://www.w3.org/2000/svg" xmlns:svg="http://www.w3.org/2000/svg" id="emoji" width="40.939" height="63.906" version="1.1" viewBox="0 0 40.939 63.906"><g id="color" transform="translate(-17.029687,-4.0938001)"><circle id="circle1" cx="19.969" cy="18.094" r="2" fill="#ea5a47" stroke="none"/><circle id="circle2" cx="40.969" cy="6.094" r="2" fill="#92d3f5" stroke="none"/><circle id="circle3" cx="55.969" cy="27.094" r="2" fill="#b1cc33" stroke="none"/></g><g id="skin" transform="translate(-17.029687,-4.0938001)"><circle id="circle4" cx="35.969" cy="13.094" r="3" fill="#a57939" stroke="#a57939"/><path id="path4" fill="#a57939" stroke="#a57939" d="m 30,26 -1.7002,41 h 3.2998 L 35,42 h 2 l 3.4004,25 h 3.2998 L 42,26 c 0,0 0.2139,4.1162 1.417,6 0.8574,1.3428 2.666,3.375 6.125,2.875 0,0 4.5205,-0.5625 5.333,-2.25 C 55.3398,31.6592 55,31.041 54.917,30.75 54.834,30.459 52.25,31.459 52.25,31.459 L 49.167,32 47.084,30.875 45.75,29.417 43.792,22.125 40.334,20.792 30.625,20.5835 27.209,25.0415 26.667,29.333 25,30.5 18.334,24.3335 c 0,0 -1.459,1.729 -0.459,3.104 1,1.375 3.7881,5.3242 5.916,5.7285 2.417,0.459 3.793,-0.6152 4.375,-1.416 C 28.833,30.833 29.667,28.667 30,26 Z"/></g><g id="line" transform="translate(-17.029687,-4.0938001)"><circle id="circle5" cx="35.969" cy="13.094" r="3" fill="none" stroke="#000" stroke-miterlimit="10" stroke-width="2"/><path id="path5" fill="none" stroke="#000" stroke-linecap="round" stroke-linejoin="round" stroke-miterlimit="10" stroke-width="2" d="m 41,26 2.5684,39.0039 C 43.6406,66.1016 42.958,67 42.0508,67 41.1426,67 40.2793,66.1084 40.1309,65.0186 L 37.2695,43.9814 C 37.1211,42.8916 36.5498,42 36,42 c -0.5498,0 -1.1211,0.8916 -1.2695,1.9814 L 31.8691,65.0186 C 31.7207,66.1084 30.8574,67 29.9492,67 29.042,67 28.3594,66.1016 28.4316,65.0039 L 31,26"/><path id="path6" fill="none" stroke="#000" stroke-linecap="round" stroke-linejoin="round" stroke-miterlimit="10" stroke-width="2" d="m 19,25 3.707,4.2373 c 1.8116,2.0693 3.6631,1.543 4.1153,-1.1694 l 0.3554,-2.1358 C 27.6299,23.2192 29.7998,20.7749 32,20.5 c 2.2002,-0.2749 5.7998,-0.2749 8,0 2.2002,0.2749 4.3701,2.7192 4.8223,5.4321 l 0.3554,2.1358 C 45.6299,30.7803 47.7998,32.5498 50,32 c 2.2002,-0.5498 4,-1 4,-1"/></g></svg>