<svg xmlns="http://www.w3.org/2000/svg" xmlns:svg="http://www.w3.org/2000/svg" id="emoji" width="58.943" height="49.996" version="1.1" viewBox="0 0 58.943 49.996"><g id="color" transform="translate(-6.5285013,-10.9623)"><path id="path1" fill="#92d3f5" d="m 23,38.9583 c 0,0 -4,1 -4,3 l 2,2 a 35.36,35.36 0 0 1 1,6 c 0,2 -1,11 -1,11 h 30 c 0,0 -2,-15 -1,-16 l 3,-3 c 0,-2 -4,-3 -4,-3"/></g><g id="skin" transform="translate(-6.5285013,-10.9623)"><path id="path2" fill="#a57939" d="m 25,30.9583 c 0,9 4.9365,14 11,14 5.9365,0 11.0635,-5 11.0635,-14 a 12.1332,12.1332 0 0 0 -1,-5 c -0.9553,-3.0582 -1.6273,-6.0451 -1.6273,-6.0451 -5.3017,-0.8214 -11.0514,2.1655 -16.5024,1.2694 0,0 -2.9338,4.7757 -2.9338,9.7757 z"/><path id="path3" fill="#a57939" d="m 13.9678,60.9583 2.9375,-12.3057 -0.9375,-1.25 -4,-3 -4,-6 a 1.4142136,1.4142136 0 0 1 2,-2 l 4,4 c 1,1 2,1 5,2 3,1 3.1308,3.2373 3,5 -0.666,8.9727 -1,13.5557 -1,13.5557"/><path id="path4" fill="#a57939" d="m 19.9912,42.8479 c 0,0 -1.0234,-2.89 -2.1172,-5.89 -0.4316,-1.1816 -1.9062,-1.0312 -1.9062,-0.166 v 3.69"/><path id="path5" fill="#a57939" d="m 58.0322,60.9583 -2.9375,-12.3057 0.9375,-1.25 4,-3 4,-6 a 1.4142136,1.4142136 0 0 0 -2,-2 l -4,4 c -1,1 -2,1 -5,2 -3,1 -3.1308,3.2373 -3,5 0.667,8.9727 1,13.5557 1,13.5557"/><path id="path6" fill="#a57939" d="m 52.01,42.8479 c 0,0 1.0224,-2.89 2.1162,-5.89 0.4306,-1.1816 1.9062,-1.0312 1.9062,-0.166 v 3.69"/></g><g id="hair" transform="translate(-6.5285013,-10.9623)"><path id="path7" fill="#000" d="m 44.2784,19.65 c -7.473,0 -8.7162,3.5912 -16.36,1.88 C 24.5143,20.7679 26,37.9623 26,37.9623 c -3,0 -4,-7 -4,-14 0,-6 5,-12 14,-12 9,0 14,6 14,12 0,7 -1,14 -4,14 0,0 0.7172,-18.3123 -1.7216,-18.3123 z"/></g><g id="line" transform="translate(-6.5285013,-10.9623)"><path id="path8" d="m 41.873,29.9583 a 2,2 0 1 1 -2,-2 2,2 0 0 1 2,2"/><path id="path9" d="m 33.873,29.9583 a 2,2 0 1 1 -2,-2 2,2 0 0 1 2,2"/><path id="path10" fill="none" stroke="#000" stroke-linecap="round" stroke-linejoin="round" stroke-width="2" d="m 34.084,37.9583 a 11.5,11.5 0 0 0 3.9365,0"/><path id="path11" fill="none" stroke="#000" stroke-linecap="round" stroke-linejoin="round" stroke-width="2" d="m 13.9678,59.9583 2.9375,-11.3057 -0.9375,-1.25 -4,-3 -4,-6 a 1.4142136,1.4142136 0 0 1 2,-2 l 4,4 c 1,1 2,1 5,2 3,1 3.1308,3.2373 3,5 -0.666,8.9727 -1,12.5557 -1,12.5557"/><path id="path12" fill="none" stroke="#000" stroke-linecap="round" stroke-linejoin="round" stroke-width="2" d="m 19.9912,42.8479 c 0,0 -1.0234,-2.89 -2.1172,-5.89 -0.4316,-1.1816 -1.9062,-1.0312 -1.9062,-0.166 v 3.69"/><path id="path13" fill="none" stroke="#000" stroke-linecap="round" stroke-linejoin="round" stroke-width="2" d="m 58.0322,59.9583 -2.9375,-11.3057 0.9375,-1.25 4,-3 4,-6 a 1.4142136,1.4142136 0 0 0 -2,-2 l -4,4 c -1,1 -2,1 -5,2 -3,1 -3.1308,3.2373 -3,5 0.667,8.9727 1,12.5557 1,12.5557"/><path id="path14" fill="none" stroke="#000" stroke-linecap="round" stroke-linejoin="round" stroke-width="2" d="m 52.01,42.8479 c 0,0 1.0224,-2.89 2.1162,-5.89 0.4306,-1.1816 1.9062,-1.0312 1.9062,-0.166 v 3.69"/><line id="line14" x1="23" x2="26" y1="39.958" y2="38.958" fill="none" stroke="#000" stroke-linecap="round" stroke-linejoin="round" stroke-width="2"/><line id="line15" x1="46.006" x2="49.444" y1="38.812" y2="39.958" fill="none" stroke="#000" stroke-linecap="round" stroke-linejoin="round" stroke-width="2"/><path id="path15" fill="none" stroke="#000" stroke-linejoin="round" stroke-width="2" d="m 24.9507,30.9623 c -0.1015,7.999 4.9365,14 11,14 5.9365,0 11.0635,-6 11.0635,-14 0,-5 -3,-11 -3,-11 -8,0 -10,3 -16,1 0,0 -3,5 -3.0635,10 z"/><path id="path16" fill="none" stroke="#000" stroke-linecap="round" stroke-linejoin="round" stroke-width="2" d="m 26.0142,37.9623 c -3,0 -4,-7 -4,-14 0,-6 5,-12 14,-12 9,0 14,6 14,12 0,7 -1,14 -4,14"/></g></svg>