<svg xmlns="http://www.w3.org/2000/svg" xmlns:svg="http://www.w3.org/2000/svg" id="emoji" width="64.017" height="52.157" version="1.1" viewBox="0 0 64.017 52.157"><g id="color" transform="translate(-3.987112,-11.0938)"><path id="path1" fill="#92d3f5" d="m 68,43.334 c 0,-1.916 -11.917,3.041 -16.917,3.041 -5,0 -10,-3 -16,-3 -6,0 -10,3 -16,3 -6,0 -15.083,-4.958 -15.083,-3.125 0,5.3125 -0.2705,7.4795 1.667,11.167 1.9619,3.7344 9.958,3.667 13.083,6.917 2.415,2.5117 7.125,1.833 10.25,1.833 2.166,0 4.5518,0.083 8.9688,0.083 3.833,0 10.4882,-1.334 13.2802,-1.334 2.333,0 5.791,-3.3857 6.5,-4.8027 2.003,-4.0029 6.5508,-0.96 8.25,-4.0664 2.1875,-4 2.001,-4.2344 2.001,-9.7129 z"/><circle id="circle1" cx="14.969" cy="15.094" r="3" fill="#ea5a47"/></g><g id="skin" transform="translate(-3.987112,-11.0938)"><path id="path2" fill="#c19a65" d="m 47.417,45 c 0,0 -3.709,-7.75 -4.4795,-10.375 L 41.0625,44 36,42.875 30.875,43.1875 29,32.1875 28.0313,31.3125 C 27.418,29.667 21.959,29.458 19.5625,27.375 c -1.7422,-1.5146 -3.25,-6.8437 -3.7812,-9.1562 l 1.25,-1.5938 3.9062,7.2188 8.75,3.1562 11.6875,1.4375 2.875,2.125 5.625,12.25 0.8125,3.0625 z"/><circle id="circle2" cx="34.969" cy="20.094" r="3" fill="#c19a65"/></g><g id="line" transform="translate(-3.987112,-11.0938)"><circle id="circle3" cx="34.969" cy="20.094" r="3" fill="none" stroke="#000" stroke-miterlimit="10" stroke-width="2"/><path id="path3" fill="none" stroke="#000" stroke-linecap="round" stroke-linejoin="round" stroke-miterlimit="10" stroke-width="2" d="M 30,43 V 36 C 30,34.9004 29.7754,33.3252 29.5,32.5 29.2246,31.6748 29,31 29,31"/><line id="line3" x1="42" x2="41" y1="35" y2="43" fill="none" stroke="#000" stroke-linecap="round" stroke-linejoin="round" stroke-miterlimit="10" stroke-width="2"/><path id="path4" fill="none" stroke="#000" stroke-linecap="round" stroke-linejoin="round" stroke-miterlimit="10" stroke-width="2" d="m 5,43 c 3,0 9,3 15,3 6,0 10,-3 16,-3 6,0 11,3 16,3 5,0 7,-3 15,-3"/><path id="path5" fill="none" stroke="#000" stroke-linecap="round" stroke-linejoin="round" stroke-miterlimit="10" stroke-width="2" d="M 46.0059,50.9639 C 48.0449,51.5313 50.0225,52 52,52 c 2.7441,0 4.585,-0.9043 7.0088,-1.7197"/><path id="path6" fill="none" stroke="#000" stroke-linecap="round" stroke-linejoin="round" stroke-miterlimit="10" stroke-width="2" d="M 12.7773,50.8867 C 15.0439,51.4883 17.5225,52 20,52 c 6,0 10,-3 16,-3"/><path id="path7" fill="none" stroke="#000" stroke-linecap="round" stroke-linejoin="round" stroke-miterlimit="10" stroke-width="2" d="m 26.001,57.959 c 3.208,-0.8828 6.2031,-2.084 9.999,-2.084 4.4063,0 8.2734,1.6182 11.9971,2.4775"/><circle id="circle7" cx="14.969" cy="15.094" r="3" fill="none" stroke="#000" stroke-miterlimit="10" stroke-width="2"/><path id="path8" fill="none" stroke="#000" stroke-linecap="round" stroke-linejoin="round" stroke-miterlimit="10" stroke-width="2" d="m 17.875,16 2.4688,7.1108 c 0.3613,1.0391 1.5292,2.1075 2.5966,2.3741 l 4.1192,1.0302 c 1.0674,0.2666 2.8379,0.5537 3.9345,0.6382 l 9.0118,0.6934 c 1.0966,0.0845 2.6308,0.7895 3.4082,1.5674 l 0.1718,0.1718 c 0.7774,0.7774 1.708,2.2647 2.0664,3.3047 l 0.7657,2.2207 c 0.3584,1.0401 1.0097,2.7168 1.4472,3.7256 L 50.75,45.5"/></g></svg>