<?xml version="1.0" encoding="UTF-8" standalone="no"?>
<svg
   id="emoji"
   viewBox="0 0 40.030724 49.663399"
   version="1.1"
   sodipodi:docname="1f938-1f3fc-200d-2642-fe0f.svg"
   width="40.030724"
   height="49.663399"
   xmlns:inkscape="http://www.inkscape.org/namespaces/inkscape"
   xmlns:sodipodi="http://sodipodi.sourceforge.net/DTD/sodipodi-0.dtd"
   xmlns="http://www.w3.org/2000/svg"
   xmlns:svg="http://www.w3.org/2000/svg">
  <defs
     id="defs3" />
  <sodipodi:namedview
     id="namedview3"
     pagecolor="#ffffff"
     bordercolor="#000000"
     borderopacity="0.25"
     inkscape:showpageshadow="2"
     inkscape:pageopacity="0.0"
     inkscape:pagecheckerboard="0"
     inkscape:deskcolor="#d1d1d1" />
  <g
     id="color"
     transform="translate(-8.9767047,-8.5329)" />
  <g
     id="skin"
     transform="translate(-8.9767047,-8.5329)">
    <circle
       cx="32.697201"
       cy="49.570099"
       r="2.8598001"
       fill="#debb90"
       id="circle1" />
    <path
       fill="#debb90"
       d="m 22.5925,44.8991 c -1.2392,1.9065 -0.9532,5.1476 -0.9532,10.5813 0,1.8112 0.0953,2.6691 2.2878,2.6691 a 41.4923,41.4923 0 0 1 0,-8.77 c 0.4766,-5.72 3.6224,-5.3383 7.4355,-6.3869 3.8131,-1.0486 7.6262,1.8112 8.77,3.3365 1.1438,1.5253 0.9534,11.8209 0.9534,11.8209 3.05,0 2.1925,-2.4785 2.1925,-2.4785 0,2.4785 1.2393,-9.7233 -0.7626,-12.2018 a 34.2846,34.2846 0 0 0 -3.4318,-3.4318 l -1.9065,-1.9066 0.6606,-8.2772 c 0,0 3.6825,-5.0295 5.7663,-7.589 L 48.6168,9.5327 h -2.86 l -6.6727,11.4393 -5.72,4.7663 -2.0286,0.27 -10.3635,-2.1765 -10.486,-4.7664 -0.9533,2.86 9.5327,5.72 7.4679,2.8893 1.5834,4.5938 c 0,0 -1.4461,2.9371 -2.2526,4.6959 -0.7797,1.7001 -1.7463,2.5962 -3.2716,5.0747 z"
       id="path1" />
  </g>
  <g
     id="line"
     transform="translate(-8.9767047,-8.5329)">
    <circle
       cx="32.697201"
       cy="49.570099"
       r="3"
       fill="none"
       stroke="#000000"
       stroke-miterlimit="10"
       stroke-width="2"
       id="circle2" />
    <path
       fill="none"
       stroke="#000000"
       stroke-linecap="round"
       stroke-linejoin="round"
       stroke-width="2"
       d="m 26.9366,39.63 1.469,-4.3173 c 0.1906,-1.0486 -0.9018,-4.1506 -1.76,-4.7225 l -15.4925,-7.712 a 2.286,2.286 0 0 1 -1.144,-2.3832 1.5909,1.5909 0 0 1 2.1926,-0.6673 l 9.7119,3.96 c 0.8684,0.4338 7.2782,1.9962 7.2782,1.9962 1.0486,0.286 4.84,-0.7131 5.6024,-1.38 0,0 4.671,-4.29 5.1477,-5.1476 l 4.7663,-8.1028 a 3.2328,3.2328 0 0 1 2.3832,-1.6206 c 0.7626,0 1.1439,0.7626 0.7626,1.8112 0,0 -3.2564,8.39 -3.7244,9.4031 -0.6235,1.35 -4.4518,5.711 -5.6234,7.6691 a 14.267,14.267 0 0 0 -1.3088,3.5966 26.6978,26.6978 0 0 0 -0.6006,3.6625 12.1721,12.1721 0 0 0 0.5482,3.5977"
       id="path2" />
    <path
       fill="none"
       stroke="#000000"
       stroke-linecap="round"
       stroke-linejoin="round"
       stroke-width="2"
       d="M 23.8318,57.1963 V 49.57 c 0,-3.2411 1.7159,-5.243 3.8131,-5.72 a 16.2448,16.2448 0 0 1 9.5327,0 c 2.0972,0.4766 3.8131,2.5738 3.8131,5.72 v 7.6262"
       id="path3" />
  </g>
</svg>
