<svg xmlns="http://www.w3.org/2000/svg" xmlns:svg="http://www.w3.org/2000/svg" id="emoji" width="40.131" height="54.172" version="1.1" viewBox="0 0 40.131 54.172"><g id="color" transform="translate(-15.691001,-5.0007609)"><path id="path1" fill="#ffa7c0" d="m 54.5509,58.8718 c 0,0 2,-13.7973 -10,-13.7973 -3.1918,2.1192 -5.9264,3.5837 -9,3.5775 h 0.125 c -3.0736,0.0062 -5.8081,-1.4583 -9,-3.5775 -12,0 -10,13.7973 -10,13.7973"/><polygon id="polygon1" fill="#fff" points="30.019 47.595 35.832 47.595 41.645 47.595 38.739 52.629 35.832 57.664 32.926 52.629"/><path id="path2" fill="none" d="m 47.6172,27.8152 c 0,-1.1581 -0.1111,-2.2838 -0.3208,-3.3613 -0.7817,-4.0178 -2.9333,-7.3654 -5.8015,-9.2263 -1.5615,-1.0131 -3.3354,-1.5856 -5.2163,-1.5856 -6.2621,0 -11.3385,6.3456 -11.3385,14.1732 0,7.8277 5.0764,14.1733 11.3385,14.1733 6.2622,0 11.3386,-6.3456 11.3386,-14.1733 z"/><path id="path3" fill="none" d="m 39.4239,18.4045 c -0.0034,-0.463 -3.2918,6.1828 -13.917,2.8403"/><polygon id="polygon3" fill="#fcea2b" points="34.587 9.546 36.002 6.001 37.47 9.41 40.315 6.895 40.315 16.638 31.47 16.638 31.471 6.895"/><path id="path4" fill="#e67a94" d="m 26.7074,45.5127 c 0,0 8.353,8.1081 9.1847,12.6615 l -9e-4,-0.0399 -1.1954,0.0321 c -7.9884,0 -5.061,-4.7397 -5.061,-4.7397 -8.7662,0 -2.8498,-8.2603 -2.8498,-8.2603"/><path id="path5" fill="#e67a94" d="m 44.9413,45.5127 c 0,0 -8.353,8.1081 -9.1847,12.6615 l 9e-4,-0.0399 1.1954,0.0321 c 7.9884,0 5.0609,-4.7397 5.0609,-4.7397 8.7663,0 2.8499,-8.2603 2.8499,-8.2603"/></g><g id="hair" transform="translate(-15.691001,-5.0007609)"><path id="path6" fill="#a57939" d="m 30.836,10.0039 c -2.1058,0.8958 -3.9799,2.6516 -5.6162,4.2515 0,0 -2.2375,3.282 -3.3208,4.9348 0,0 -1.687,-0.2842 -3.2671,-1.7638 0,0 -0.4349,6.6434 7.5762,7.5773 0,0 2.8585,0.0224 6.1913,-2.8192 l 1.5839,-0.5867 c 0.0505,4e-4 0.0996,0.0028 0.1504,0.0028 3.5746,0 6.4724,-1.0792 6.4724,-2.4105 0,-0.0146 -0.0052,-0.0287 -0.0059,-0.0433 l 0.0827,-0.0306 c 0,0 1.8004,-0.3126 3.5826,-3.5399 1.0088,-1.8269 -0.5858,-4.5801 -3.7686,-5.9411 l 0.0153,7.3184 -9.6546,-0.0311 z"/><path id="path7" fill="#a57939" d="m 42.0901,15.2276 c 4.1993,0.1683 5.4644,3.9222 5.2347,9.2263 l -0.0027,5e-4 c -2.7022,2.0473 -7.303,-6.0499 -7.303,-6.0499 z"/></g><g id="skin" transform="translate(-15.691001,-5.0007609)"><path id="path8" fill="#fadcbc" d="m 35.9652,21.5023 c 8.3683,-4.5936 8.1936,3.2838 10.7847,2.6929 0.3595,1.3815 0.5538,2.8562 0.5538,4.3876 0,7.8277 -5.0764,14.1733 -11.3385,14.1733 -6.2621,0 -11.3385,-6.3456 -11.3385,-14.1733 0,-1.3929 0.1607,-2.7388 0.4603,-4.0104 5.2644,0.1714 5.7304,-3.0701 10.8782,-3.0701 z"/></g><g id="line" transform="translate(-15.691001,-5.0007609)"><path id="path9" d="m 41.8791,27.0302 c 0,1.1045 -0.8965,2 -2,2 -1.1035,0 -2,-0.8955 -2,-2 0,-1.1035 0.8965,-2 2,-2 1.1035,0 2,0.8965 2,2"/><path id="path10" d="m 33.8791,27.0302 c 0,1.1045 -0.8965,2 -2,2 -1.1035,0 -2,-0.8955 -2,-2 0,-1.1035 0.8965,-2 2,-2 1.1035,0 2,0.8965 2,2"/><path id="path11" d="m 35.879,37.0326 c -1.1519,0 -2.3037,-0.2861 -3.4473,-0.8579 -0.4941,-0.2471 -0.6943,-0.8476 -0.4472,-1.3418 0.2466,-0.4936 0.8462,-0.6943 1.3418,-0.4473 1.7177,0.8594 3.3877,0.8594 5.1054,0 0.4947,-0.247 1.0948,-0.0463 1.3418,0.4473 0.2471,0.4942 0.0469,1.0947 -0.4472,1.3418 -1.1436,0.5718 -2.2954,0.8579 -3.4473,0.8579 z"/><path id="path12" fill="none" stroke="#000" stroke-miterlimit="10" stroke-width="2" d="m 24.9194,24.7438 c -0.2472,1.1637 -0.379,2.3862 -0.379,3.6472 0,7.8277 5.0765,14.1732 11.3386,14.1732 6.2621,0 11.3386,-6.3455 11.3386,-14.1732 0,-1.1581 -0.1111,-2.2838 -0.3208,-3.3613"/><path id="path13" fill="none" stroke="#000" stroke-linecap="round" stroke-linejoin="round" stroke-miterlimit="10" stroke-width="2" d="m 16.8191,57.883 c 0,0 -2,-13 10,-13 3.1918,2.1279 5.9264,3.5984 9,3.5921 h -0.125 c 3.0736,0.0063 5.8081,-1.4642 9,-3.5921 12,0 10,13 10,13"/><polygon id="polygon13" fill="none" stroke="#000" stroke-linecap="round" stroke-linejoin="round" stroke-miterlimit="10" stroke-width="2" points="34.587 9.546 36.002 6.001 37.47 9.41 40.315 6.895 40.315 16.638 31.47 16.638 31.471 6.895"/><path id="path14" fill="none" stroke="#000" stroke-linecap="round" stroke-linejoin="round" stroke-miterlimit="10" stroke-width="2" d="m 26.7074,45.5127 c 0,0 8.353,8.1081 9.1847,12.6615 l -9e-4,-0.0399 -1.1954,0.0321 c -7.9884,0 -5.061,-4.7397 -5.061,-4.7397 -8.7662,0 -2.8498,-8.2603 -2.8498,-8.2603"/><path id="path15" fill="none" stroke="#000" stroke-linecap="round" stroke-linejoin="round" stroke-miterlimit="10" stroke-width="2" d="m 44.9413,45.5127 c 0,0 -8.353,8.1081 -9.1847,12.6615 l 9e-4,-0.0399 1.1954,0.0321 c 7.9884,0 5.0609,-4.7397 5.0609,-4.7397 8.7663,0 2.8499,-8.2603 2.8499,-8.2603"/><path id="path16" fill="none" stroke="#000" stroke-linecap="round" stroke-linejoin="round" stroke-miterlimit="10" stroke-width="2" d="m 44.1837,15.8194 c 2.6323,2.029 4.1215,5.5213 4.1007,8.3759 l -0.0026,5e-4 c -2.7022,2.0473 -6.7361,-4.9161 -6.7361,-4.9161 z"/><path id="path17" fill="none" stroke="#000" stroke-linecap="round" stroke-linejoin="round" stroke-miterlimit="10" stroke-width="2" d="m 28.6729,12.3492 c -1.1387,0.7329 -2.1947,1.5972 -3.1667,2.5476 0,0 -2.8375,2.382 -3.9208,4.0348 0,0 -1.687,-0.2843 -3.2671,-1.7638 0,0 -0.435,6.6434 7.5762,7.5773 0,0 2.8585,0.3058 6.1913,-2.5357"/><path id="path18" fill="none" stroke="#000" stroke-linecap="round" stroke-linejoin="round" stroke-miterlimit="10" stroke-width="2" d="m 41.8009,18.9963 c -0.0034,-0.463 -4.7091,5.3323 -15.3343,1.9899"/><path id="path19" fill="none" stroke="#000" stroke-linecap="round" stroke-linejoin="round" stroke-miterlimit="10" stroke-width="2" d="m 44.1837,15.8194 c 0,0 0.7576,-1.7372 -1.1344,-3.4702"/></g></svg>