<svg xmlns="http://www.w3.org/2000/svg" xmlns:svg="http://www.w3.org/2000/svg" id="emoji" width="40.131" height="52.555" version="1.1" viewBox="0 0 40.131 52.555"><g id="color" transform="translate(-15.851801,-8.4498)"><path id="path1" fill="#d0cfce" d="m 46.9799,21.4051 c 0,0 15,22.8504 0,22.8504 h -22 c -15,0 0,-22.8504 0,-22.8504"/><path id="path2" fill="#ea5a47" d="m 25.4342,19.9935 c 0,-5.8242 4.7215,-10.5457 10.5457,-10.5457 5.8242,0 10.5457,4.7215 10.5457,10.5457"/><path id="path3" fill="#ea5a47" d="m 54.8549,60.9901 c 0,0 2,-13.985 -10,-13.985 -3.1919,2.128 -5.9264,3.5985 -9,3.5922 h 0.125 c -3.0736,0.0063 -5.8081,-1.4642 -9,-3.5922 -12,0 -10,13.985 -10,13.985"/><path id="path4" fill="#d22f27" d="m 44.8549,47.0051 c -3.1699,2.1133 -4.875,3 -8.9375,3.5886 13.0625,0.4114 13.0625,6.4098 13.8246,10.4098 4.2379,0 5.1129,0 5.1129,0 0,0 2,-13.9984 -10,-13.9984 z"/><path id="path5" fill="#fff" d="m 39.6005,55.0472 c 5.1878,-0.4859 8.9539,-2.9065 10.3535,-6.9774 -1.3294,-0.6591 -2.9951,-1.0647 -5.0991,-1.0647 -3.1699,2.1133 -5.8895,3.5747 -8.9375,3.5886 -3.048,-0.0139 -5.7676,-1.4753 -8.9375,-3.5886 -2.0474,0 -3.6792,0.3847 -4.991,1.0124 2.3627,3.939 5.8207,6.1638 10.3565,6.8708 0.4155,0.0648 0.8336,0.09 1.254,0.0954 0.9342,0.012 2.8034,0.0403 4.7616,0.0941 0.4119,0.0114 0.8292,0.0078 1.2395,-0.0306 z"/><path id="path6" fill="#fff" d="m 28.9799,31.4051 c 0,1.6569 1.3431,3 3,3 1.6569,0 3,-1.3431 3,-3 h 2 c 0,1.6569 1.3431,3 3,3 1.6569,0 3,-1.3431 3,-3"/><path id="path7" fill="#fff" d="m 45.099,17.545 c -0.8798,0 -1.6738,0.3416 -2.2798,0.8875 -0.606,-0.5459 -1.3999,-0.8875 -2.2798,-0.8875 -0.8798,0 -1.6737,0.3416 -2.2797,0.8875 -0.606,-0.5459 -1.4,-0.8875 -2.2798,-0.8875 -0.8798,0 -1.6738,0.3416 -2.2798,0.8875 -0.606,-0.5459 -1.3999,-0.8875 -2.2797,-0.8875 -0.8799,0 -1.6738,0.3416 -2.2798,0.8875 -0.606,-0.5459 -1.4,-0.8875 -2.2798,-0.8875 -1.8886,0 -3.4196,1.5311 -3.4196,3.4197 0,1.8886 1.531,3.4196 3.4196,3.4196 0.8798,0 1.6738,-0.3416 2.2798,-0.8874 0.606,0.5458 1.3999,0.8874 2.2798,0.8874 0.8798,0 1.6737,-0.3416 2.2797,-0.8874 0.606,0.5458 1.4,0.8874 2.2798,0.8874 0.8798,0 1.6738,-0.3416 2.2798,-0.8874 0.606,0.5458 1.3999,0.8874 2.2797,0.8874 0.8799,0 1.6738,-0.3416 2.2798,-0.8874 0.606,0.5458 1.4,0.8874 2.2798,0.8874 1.8886,0 3.4196,-1.531 3.4196,-3.4196 0,-1.8886 -1.531,-3.4197 -3.4196,-3.4197 z"/></g><g id="skin" transform="translate(-15.851801,-8.4498)"><path id="path8" fill="#a57939" d="m 46.9971,27.041 -0.0172,0.0033 c -5,0.6392 -13,-3.7038 -13,-3.7038 0,0 -4,4.3429 -9,3.7038 L 24.9626,27.041 c -0.21,1.0783 -0.3213,2.205 -0.3213,3.3641 0,7.8277 5.0765,14.1733 11.3386,14.1733 6.2621,0 11.3386,-6.3456 11.3386,-14.1733 0,-1.1591 -0.1113,-2.2858 -0.3214,-3.3641 z m -15.0172,7.3641 c -1.6569,0 -3,-1.3431 -3,-3 h 6 c 0,1.6569 -1.3431,3 -3,3 z m 8,0 c -1.6569,0 -3,-1.3431 -3,-3 h 6 c 0,1.6569 -1.3431,3 -3,3 z"/></g><g id="line" transform="translate(-15.851801,-8.4498)"><path id="path9" fill="none" stroke="#000" stroke-linecap="round" stroke-linejoin="round" stroke-miterlimit="10" stroke-width="2" d="m 25.66,17.7698 c 1.03,-4.76 5.26,-8.32 10.32,-8.32 5.06,0 9.29,3.56 10.32,8.32"/><path id="path10" fill="none" stroke="#000" stroke-linecap="round" stroke-linejoin="round" stroke-miterlimit="10" stroke-width="2" d="m 54.8549,60.0051 c 0,0 2,-13 -10,-13 -3.1919,2.128 -5.9264,3.5985 -9,3.5922 h 0.125 c -3.0736,0.0063 -5.8081,-1.4642 -9,-3.5922 -12,0 -10,13 -10,13"/><path id="path11" fill="none" stroke="#000" stroke-linecap="round" stroke-linejoin="round" stroke-miterlimit="10" stroke-width="2" d="m 39.6005,55.0472 c 5.1878,-0.4859 8.9539,-2.9065 10.3535,-6.9774 -1.3294,-0.6591 -2.9951,-1.0647 -5.0991,-1.0647 -3.1699,2.1133 -5.8895,3.5747 -8.9375,3.5886 -3.048,-0.0139 -5.7676,-1.4753 -8.9375,-3.5886 -2.0474,0 -3.6792,0.3847 -4.991,1.0124 2.3627,3.939 5.8207,6.1638 10.3565,6.8708 0.4155,0.0648 0.8336,0.09 1.254,0.0954 0.9342,0.012 2.8034,0.0403 4.7616,0.0941 0.4119,0.0114 0.8292,0.0078 1.2395,-0.0306 z"/><path id="path12" fill="none" stroke="#000" stroke-linecap="round" stroke-linejoin="round" stroke-miterlimit="10" stroke-width="2" d="m 23.9407,23.0308 c -3.1231,5.0885 -11.4641,20.3743 1.0392,20.3743"/><path id="path13" fill="none" stroke="#000" stroke-linecap="round" stroke-linejoin="round" stroke-miterlimit="10" stroke-width="2" d="m 46.9799,43.4051 c 12.4833,0 4.1889,-15.237 1.0542,-20.3499"/><path id="path14" fill="none" stroke="#000" stroke-linecap="round" stroke-linejoin="round" stroke-miterlimit="10" stroke-width="2" d="m 47,27.0398 c 0.21,1.08 0.32,2.21 0.32,3.37 0,7.82 -5.08,14.17 -11.34,14.17 -6.26,0 -11.34,-6.35 -11.34,-14.17 0,-1.16 0.11,-2.29 0.32,-3.37 h 0.02 c 2.95,0.38 5.55,-1.3 7.19,-2.75"/><path id="path15" fill="none" stroke="#000" stroke-linecap="round" stroke-linejoin="round" stroke-miterlimit="10" stroke-width="2" d="m 37.06,24.1898 c 2.78,1.47 6.9,3.24 9.92,2.85"/><path id="path16" d="m 41.98,29.0443 c 0,1.1045 -0.8965,2 -2,2 -1.1035,0 -2,-0.8955 -2,-2 0,-1.1035 0.8965,-2 2,-2 1.1035,0 2,0.8965 2,2"/><path id="path17" d="m 33.98,29.0443 c 0,1.1045 -0.8965,2 -2,2 -1.1035,0 -2,-0.8955 -2,-2 0,-1.1035 0.8965,-2 2,-2 1.1035,0 2,0.8965 2,2"/><path id="path18" d="m 35.9799,39.0468 c -1.1519,0 -2.3037,-0.2862 -3.4473,-0.858 -0.4941,-0.247 -0.6943,-0.8476 -0.4472,-1.3417 0.2465,-0.4937 0.8462,-0.6944 1.3418,-0.4473 1.7177,0.8594 3.3877,0.8594 5.1054,0 0.4947,-0.2471 1.0948,-0.0464 1.3418,0.4473 0.2471,0.4941 0.0469,1.0947 -0.4472,1.3417 -1.1436,0.5718 -2.2954,0.858 -3.4473,0.858 z"/><path id="path19" fill="none" stroke="#000" stroke-linecap="round" stroke-linejoin="round" stroke-miterlimit="10" stroke-width="2" d="m 28.9799,31.4051 c 0,1.6569 1.3431,3 3,3 1.6569,0 3,-1.3431 3,-3 h 2 c 0,1.6569 1.3431,3 3,3 1.6569,0 3,-1.3431 3,-3"/><path id="path20" fill="none" stroke="#000" stroke-linecap="round" stroke-linejoin="round" stroke-miterlimit="10" stroke-width="2" d="m 45.099,17.545 c -0.8798,0 -1.6738,0.3416 -2.2798,0.8875 -0.606,-0.5459 -1.3999,-0.8875 -2.2798,-0.8875 -0.8798,0 -1.6737,0.3416 -2.2797,0.8875 -0.606,-0.5459 -1.4,-0.8875 -2.2798,-0.8875 -0.8798,0 -1.6738,0.3416 -2.2798,0.8875 -0.606,-0.5459 -1.3999,-0.8875 -2.2797,-0.8875 -0.8799,0 -1.6738,0.3416 -2.2798,0.8875 -0.606,-0.5459 -1.4,-0.8875 -2.2798,-0.8875 -1.8886,0 -3.4196,1.5311 -3.4196,3.4197 0,1.8886 1.531,3.4196 3.4196,3.4196 0.8798,0 1.6738,-0.3416 2.2798,-0.8874 0.606,0.5458 1.3999,0.8874 2.2798,0.8874 0.8798,0 1.6737,-0.3416 2.2797,-0.8874 0.606,0.5458 1.4,0.8874 2.2798,0.8874 0.8798,0 1.6738,-0.3416 2.2798,-0.8874 0.606,0.5458 1.3999,0.8874 2.2797,0.8874 0.8799,0 1.6738,-0.3416 2.2798,-0.8874 0.606,0.5458 1.4,0.8874 2.2798,0.8874 1.8886,0 3.4196,-1.531 3.4196,-3.4196 0,-1.8886 -1.531,-3.4197 -3.4196,-3.4197 z"/></g></svg>