<?xml version="1.0" encoding="UTF-8" standalone="no"?>
<svg
   id="emoji"
   viewBox="0 0 42.007328 53.477646"
   version="1.1"
   sodipodi:docname="1f935-1f3fe.svg"
   width="42.007328"
   height="53.477646"
   xmlns:inkscape="http://www.inkscape.org/namespaces/inkscape"
   xmlns:sodipodi="http://sodipodi.sourceforge.net/DTD/sodipodi-0.dtd"
   xmlns="http://www.w3.org/2000/svg"
   xmlns:svg="http://www.w3.org/2000/svg">
  <defs
     id="defs14" />
  <sodipodi:namedview
     id="namedview14"
     pagecolor="#ffffff"
     bordercolor="#000000"
     borderopacity="0.25"
     inkscape:showpageshadow="2"
     inkscape:pageopacity="0.0"
     inkscape:pagecheckerboard="0"
     inkscape:deskcolor="#d1d1d1" />
  <g
     id="color"
     transform="translate(-14.996485,-7.5112479)">
    <path
       fill="#3f3f3f"
       d="M 55.8691,60.9583 H 16.1309 A 1.0006,1.0006 0 0 1 15.1426,60.1106 C 15.1,59.8294 14.126,53.1741 17.84,48.845 c 2.0079,-2.3388 4.9629,-3.5254 8.7832,-3.5254 a 1.0006,1.0006 0 0 1 0.5547,0.168 c 3.3164,2.2109 5.9541,3.5869 8.8223,3.6006 2.8682,-0.0137 5.5049,-1.39 8.8223,-3.6006 a 1.0006,1.0006 0 0 1 0.5547,-0.168 c 3.8212,0 6.7763,1.1866 8.7832,3.5264 3.7138,4.3291 2.74,10.9834 2.6972,11.2646 a 1.0006,1.0006 0 0 1 -0.9885,0.8477 z"
       id="path1" />
    <path
       fill="#ffffff"
       d="m 46.3577,46.5128 0.0025,-0.0138 a 0.9189,0.9189 0 0 0 -0.0019,-0.1076 0.7117,0.7117 0 0 0 -0.1,-0.5066 0.9543,0.9543 0 0 0 -0.0493,-0.12 l -0.0059,-0.0059 a 1.0011,1.0011 0 0 0 -0.2189,-0.2184 c -0.0213,-0.0166 -0.036,-0.0423 -0.0583,-0.0569 -0.0088,-0.0057 -0.0206,-0.0067 -0.03,-0.0121 A 0.9941,0.9941 0 0 0 45.5635,45.339 l -0.0073,-0.0029 a 0.9346,0.9346 0 0 0 -0.136,0.0022 0.7009,0.7009 0 0 0 -0.498,0.1082 0.9354,0.9354 0 0 0 -0.1,0.041 C 41.5048,47.6982 38.868,49.0742 36,49.0879 33.1379,49.0742 30.5049,47.7035 27.1986,45.5009 l -0.0129,-0.0085 -0.008,-0.0051 C 27.1604,45.4758 27.14,45.475 27.1222,45.4647 a 0.7658,0.7658 0 0 0 -0.5419,-0.1266 0.9484,0.9484 0 0 0 -0.136,-0.0022 l -0.0072,0.0029 a 0.9841,0.9841 0 0 0 -0.47,0.25 1.0019,1.0019 0 0 0 -0.1682,0.1681 l -0.0076,0.0075 a 0.9631,0.9631 0 0 0 -0.062,0.1512 0.7244,0.7244 0 0 0 -0.0872,0.5172 c 0.0025,0.0222 -0.0053,0.0428 -0.0012,0.065 l 0.0015,0.0084 0.0031,0.0164 c 0.2471,1.3512 2.46,12.3042 6.5851,14.2965 a 0.9968,0.9968 0 0 0 0.4346,0.1 h 6.64 a 0.9968,0.9968 0 0 0 0.4346,-0.1 c 4.1308,-1.9949 6.3751,-12.9741 6.6178,-14.3017 z"
       id="path2" />
    <path
       fill="#000000"
       d="m 40.2587,59.4671 -2.0665,-3.1528 a 4.6535,4.6535 0 0 0 0.3741,-0.3768 c 1.6455,-2.0078 0.9228,-5.9111 0.8349,-6.35 -0.0012,-0.0063 -0.0057,-0.0108 -0.007,-0.017 -0.0013,-0.0062 8e-4,-0.0127 -8e-4,-0.0191 a 0.936,0.936 0 0 0 -0.0672,-0.1445 1.0025,1.0025 0 0 0 -0.0939,-0.2017 0.9654,0.9654 0 0 0 -0.1005,-0.1 1.21,1.21 0 0 0 -0.5311,-0.3 901.051,901.051 0 0 0 -0.3752,-0.0026 c -0.01,0.002 -0.0171,0.009 -0.0269,0.0112 -0.0041,10e-4 -0.008,-5e-4 -0.0122,0 a 8.9047,8.9047 0 0 1 -4.3721,0 c -0.0045,-0.0011 -0.0088,5e-4 -0.0133,0 -0.01,-0.0023 -0.0168,-0.0092 -0.0267,-0.0112 a 0.982,0.982 0 0 0 -0.2222,0.0014 1.0029,1.0029 0 0 0 -0.15,8e-4 4.706,4.706 0 0 0 -0.3533,0.1366 0.9917,0.9917 0 0 0 -0.1933,0.176 0.943,0.943 0 0 0 -0.0856,0.0852 0.9859,0.9859 0 0 0 -0.1039,0.2226 0.9252,0.9252 0 0 0 -0.0585,0.1255 c -0.0013,0.0056 7e-4,0.0109 -6e-4,0.0165 -0.0016,0.0072 -0.0067,0.0123 -0.0082,0.02 -0.0879,0.4385 -0.8105,4.3418 0.835,6.35 a 4.69,4.69 0 0 0 0.38,0.3733 l -2.073,3.1395 a 0.9187,0.9187 0 0 0 -0.0479,0.9809 0.9985,0.9985 0 0 0 0.8809,0.5273 h 6.852 a 0.9983,0.9983 0 0 0 0.8808,-0.5273 0.89,0.89 0 0 0 -0.0478,-0.9638 z"
       id="path3" />
  </g>
  <g
     id="skin"
     transform="translate(-14.996485,-7.5112479)">
    <path
       fill="#a57939"
       d="m 36.3219,44.2844 c -0.0683,0 -0.1377,-9e-4 -0.206,-0.0019 C 29.1559,44.137 23.651,36.5188 23.8424,27.3 a 23.6216,23.6216 0 0 1 1.2461,-7.6026 1.0008,1.0008 0 0 1 0.586,-0.5517 0.9908,0.9908 0 0 1 0.8037,0.0585 25.3563,25.3563 0 0 0 20.4756,-0.0361 1,1 0 0 1 1.3769,0.7363 43.874,43.874 0 0 1 0.7549,7.9336 19.7642,19.7642 0 0 1 -3.8438,11.622 11.3165,11.3165 0 0 1 -8.9199,4.8244 z"
       id="path4" />
  </g>
  <g
     id="hair"
     transform="translate(-14.996485,-7.5112479)">
    <path
       fill="#000000"
       d="m 53.3249,15.3362 a 5.9711,5.9711 0 0 0 -5.045,-3.5645 7.4488,7.4488 0 0 0 -4.333,1.0547 c -1.3886,-1.5527 -5.0312,-5.0439 -9.91,-5.3 -3.6953,-0.1963 -7.2725,1.5147 -10.6446,5.1358 a 7.2939,7.2939 0 0 1 -6.6423,2.4123 1,1 0 0 0 -1.16,1.1562 c 0.0693,0.3985 0.6377,3.3291 2.5078,4.6973 a 5.8245,5.8245 0 0 0 -1.1963,3.0478 5.5141,5.5141 0 0 0 1.5869,4.1035 c 0.6377,1.5121 4.087,9.2226 8.4045,10.0739 0.0282,0.0088 0.056,0.0161 0.0848,0.0223 0.0181,0.0032 0.0356,0.0113 0.0537,0.0142 a 0.9953,0.9953 0 0 0 0.1375,0.0108 c 0.0073,0 0.0144,0.0029 0.0217,0.0029 a 0.9944,0.9944 0 0 0 0.31,-0.0564 c 0.03,-0.01 0.058,-0.0227 0.087,-0.0354 a 0.9481,0.9481 0 0 0 0.094,-0.0381 c 0.0237,-0.0134 0.0369,-0.0361 0.0591,-0.0511 a 0.9767,0.9767 0 0 0 0.1784,-0.1547 0.9616,0.9616 0 0 0 0.0881,-0.1051 0.9818,0.9818 0 0 0 0.1027,-0.2058 0.9621,0.9621 0 0 0 0.0466,-0.1316 c 0.0051,-0.0221 0.0185,-0.04 0.0222,-0.0626 A 131.6715,131.6715 0 0 1 28.166,37.0364 215.6587,215.6587 0 0 0 28.0595,36.7112 18.5416,18.5416 0 0 1 25.8424,27.32 a 25.05,25.05 0 0 1 0.7451,-5.8662 27.24,27.24 0 0 0 19.98,0.0273 36.13,36.13 0 0 1 0.52,6.2774 c 0,0.0045 0.0022,0.0085 0.0019,0.0131 l -0.0029,0.0132 a 19.2923,19.2923 0 0 1 -1.4746,7.084 c -0.0059,0.0139 -0.0034,0.0285 -0.0088,0.0424 a 0.9934,0.9934 0 0 0 -0.0452,0.219 0.5841,0.5841 0 0 0 0.0171,0.3531 0.98,0.98 0 0 0 0.0537,0.1887 c 0.007,0.0155 0.0056,0.0321 0.0135,0.0474 a 0.9412,0.9412 0 0 0 0.09,0.1127 1.9119,1.9119 0 0 0 0.4076,0.3482 c 0.0144,0.0061 0.0294,0.0036 0.044,0.009 a 0.9822,0.9822 0 0 0 0.2089,0.0428 1.06,1.06 0 0 0 0.1387,0.0283 c 0.0156,0 0.03,-0.006 0.046,-0.0067 0.03,-0.0013 0.0575,-0.0087 0.0871,-0.0127 a 0.9871,0.9871 0 0 0 0.2683,-0.0759 c 0.0184,-0.0081 0.0384,-0.0067 0.0566,-0.016 11.5006,-5.9399 6.395,-20.6459 6.3355,-20.8129 z"
       id="path5" />
  </g>
  <g
     id="line"
     transform="translate(-14.996485,-7.5112479)">
    <path
       fill="none"
       stroke="#000000"
       stroke-linecap="round"
       stroke-linejoin="round"
       stroke-width="2"
       d="m 48.0857,27.8051 a 43.3764,43.3764 0 0 0 -0.7382,-7.7178 v 0 a 26.0907,26.0907 0 0 1 -21.338,0 22.9285,22.9285 0 0 0 -1.1671,7.2327 c -0.1811,8.6818 4.8753,15.8284 11.2939,15.9622 6.4186,0.1338 11.7683,-6.7957 11.9494,-15.4775"
       id="path6" />
    <path
       fill="none"
       stroke="#000000"
       stroke-linecap="round"
       stroke-linejoin="round"
       stroke-width="2"
       d="m 46.53,35.26 c 10.8564,-5.6063 5.86,-19.5676 5.86,-19.5676 a 4.9809,4.9809 0 0 0 -4.1981,-2.9241 6.7193,6.7193 0 0 0 -4.4341,1.3884 c 0,0 -9.1122,-12.1017 -19.5868,-0.8667 a 8.3451,8.3451 0 0 1 -7.5966,2.7683 c 0,0 0.7136,4.0878 3.1862,4.5277 0,0 -3.9156,3.2042 -0.4165,6.9468 0,0 3.6874,8.9966 7.8474,9.6691"
       id="path7" />
    <path
       d="m 42.1685,29.773 a 2,2 0 1 1 -2,-2 2.0007,2.0007 0 0 1 2,2"
       id="path8" />
    <path
       d="m 34.1685,29.773 a 2,2 0 1 1 -2,-2 2.0007,2.0007 0 0 1 2,2"
       id="path9" />
    <path
       d="m 36.1683,39.7754 a 7.6524,7.6524 0 0 1 -3.4472,-0.8579 1.0001261,1.0001261 0 0 1 0.8945,-1.7891 5.3774,5.3774 0 0 0 5.1055,0 1.0001261,1.0001261 0 1 1 0.8945,1.7891 7.6528,7.6528 0 0 1 -3.4473,0.8579 z"
       id="path10" />
    <path
       fill="none"
       stroke="#000000"
       stroke-linecap="round"
       stroke-linejoin="round"
       stroke-width="2"
       d="m 33.5793,49.7846 c 0,0 -1.2656,6.3176 2.4207,6.3176 3.6863,0 2.4207,-6.3176 2.4207,-6.3176"
       id="path11" />
    <path
       fill="none"
       stroke="#000000"
       stroke-linecap="round"
       stroke-linejoin="round"
       stroke-width="2"
       d="m 35.1083,56.1526 -2.534,3.8363 c -3.8085,-1.8495 -5.9508,-13.67 -5.9508,-13.67 l -5.3557,7.3132 3.12,1.9425 -1.0476,3.2834 9.3051,1.1306 z"
       id="path12" />
    <path
       fill="none"
       stroke="#000000"
       stroke-linecap="round"
       stroke-linejoin="round"
       stroke-width="2"
       d="m 36.8919,56.1526 2.5339,3.8363 c 3.8085,-1.8495 5.9509,-13.67 5.9509,-13.67 l 5.3556,7.3132 -3.12,1.9425 1.0477,3.2837 -9.305,1.1306 z"
       id="path13" />
    <path
       fill="none"
       stroke="#000000"
       stroke-linecap="round"
       stroke-linejoin="round"
       stroke-width="2"
       d="m 16.1313,59.9586 c 0,0 -2.0984,-13.6394 10.4918,-13.6394 3.3487,2.2326 6.2178,3.7754 9.4426,3.7688 h -0.1312 c 3.2248,0.0066 6.0938,-1.5362 9.4427,-3.7688 12.59,0 10.4918,13.6394 10.4918,13.6394"
       id="path14" />
  </g>
</svg>
