<svg xmlns="http://www.w3.org/2000/svg" xmlns:svg="http://www.w3.org/2000/svg" id="emoji" width="40.03" height="49.664" version="1.1" viewBox="0 0 40.03 49.664"><g id="skin" transform="translate(-8.9775995,-8.5327)"><circle id="circle1" cx="32.698" cy="49.57" r="2.86" fill="#fadcbc"/><path id="path1" fill="#fadcbc" d="m 22.593,44.8991 c -1.2393,1.9065 -0.953,5.1476 -0.953,10.5809 0,1.8112 0.0953,2.6691 2.2878,2.6691 a 41.4923,41.4923 0 0 1 0,-8.77 c 0.4767,-5.72 3.6225,-5.3383 7.4356,-6.3869 3.8131,-1.0486 7.6261,1.8112 8.77,3.3365 1.1439,1.5253 0.9533,11.8205 0.9533,11.8205 3.05,0 2.1925,-2.4785 2.1925,-2.4785 0,2.4785 1.2393,-9.7233 -0.7626,-12.2018 a 34.2846,34.2846 0 0 0 -3.4318,-3.4318 l -1.9068,-1.9063 0.6606,-8.2772 c 0,0 3.6825,-5.0295 5.7664,-7.589 L 48.6173,9.5327 h -2.86 l -6.6728,11.4393 -5.72,4.7663 -2.0285,0.27 -10.364,-2.1763 -10.486,-4.7664 -0.9533,2.86 9.5328,5.72 7.4679,2.8893 1.5834,4.5938 c 0,0 -1.4461,2.9371 -2.2526,4.6959 -0.7794,1.6999 -1.746,2.596 -3.2712,5.0745 z"/></g><g id="line" transform="translate(-8.9775995,-8.5327)"><circle id="circle2" cx="32.698" cy="49.57" r="3" fill="none" stroke="#000" stroke-miterlimit="10" stroke-width="2"/><path id="path2" fill="none" stroke="#000" stroke-linecap="round" stroke-linejoin="round" stroke-width="2" d="m 26.937,39.63 1.469,-4.3173 c 0.1907,-1.0486 -0.9018,-4.1506 -1.76,-4.7225 L 11.1534,22.8782 A 2.286,2.286 0 0 1 10.01,20.4953 1.5908,1.5908 0 0 1 12.2025,19.828 l 9.7119,3.96 c 0.8685,0.4338 7.2783,1.9962 7.2783,1.9962 1.0486,0.286 4.84,-0.7131 5.6023,-1.38 0,0 4.6711,-4.29 5.1477,-5.1476 l 4.7663,-8.1028 a 3.2328,3.2328 0 0 1 2.383,-1.6211 c 0.7626,0 1.1439,0.7626 0.7626,1.8112 0,0 -3.2563,8.39 -3.7244,9.4031 -0.6234,1.35 -4.4518,5.711 -5.6233,7.6691 a 14.269,14.269 0 0 0 -1.3089,3.5966 26.6874,26.6874 0 0 0 -0.6005,3.6625 12.17,12.17 0 0 0 0.5481,3.5977"/><path id="path3" fill="none" stroke="#000" stroke-linecap="round" stroke-linejoin="round" stroke-width="2" d="M 23.8322,57.1963 V 49.57 c 0,-3.2411 1.7159,-5.243 3.8131,-5.72 a 16.2448,16.2448 0 0 1 9.5327,0 c 2.0972,0.4766 3.8131,2.5738 3.8131,5.72 v 7.6262"/><path id="path4" fill="none" stroke="#000" stroke-linecap="round" stroke-linejoin="round" stroke-width="2" d="m 27.3863,54.6458 c 0,0 0.6582,-0.0084 0.8517,-0.43 0.2284,-0.4959 -0.0785,-1.7926 0.1255,-2.5157 a 3.3622,3.3622 0 0 1 1.2049,-1.8068"/></g></svg>