<svg xmlns="http://www.w3.org/2000/svg" xmlns:svg="http://www.w3.org/2000/svg" id="emoji" width="58.943" height="50" version="1.1" viewBox="0 0 58.943 50"><g id="color" transform="translate(-6.5285013,-10.9654)"><path id="path1" fill="#92d3f5" d="m 23,38.9654 c 0,0 -4,1 -4,3 l 2,2 a 35.36,35.36 0 0 1 1,6 c 0,2 -1,11 -1,11 h 30 c 0,0 -2,-15 -1,-16 l 3,-3 c 0,-2 -4,-3 -4,-3"/></g><g id="skin" transform="translate(-6.5285013,-10.9654)"><path id="path2" fill="#fcea2b" d="m 25,30.9654 c 0,9 4.9365,14 11,14 5.9365,0 11.0635,-5 11.0635,-14 a 12.1332,12.1332 0 0 0 -1,-5 c -3,-3 -7,-8 -7,-8 -4,3 -7,6 -13,7 0,0 -1.0635,1 -1.0635,6 z"/><path id="path3" fill="#fcea2b" d="m 13.9678,60.9654 2.9375,-12.3054 -0.9375,-1.25 -4,-3 -4,-6 a 1.4142136,1.4142136 0 0 1 2,-2 l 4,4 c 1,1 2,1 5,2 3,1 3.1308,3.2373 3,5 -0.666,8.9727 -1,13.5557 -1,13.5557"/><path id="path4" fill="#fcea2b" d="m 19.9912,42.855 c 0,0 -1.0234,-2.89 -2.1172,-5.89 -0.4316,-1.1816 -1.9062,-1.0312 -1.9062,-0.166 v 3.69"/><path id="path5" fill="#fcea2b" d="M 58.0322,60.9654 55.0947,48.66 l 0.9375,-1.25 4,-3 4,-6 a 1.4142136,1.4142136 0 0 0 -2,-2 l -4,4 c -1,1 -2,1 -5,2 -3,1 -3.1308,3.2373 -3,5 0.667,8.9727 1,13.5557 1,13.5557"/><path id="path6" fill="#fcea2b" d="m 52.01,42.855 c 0,0 1.0224,-2.89 2.1162,-5.89 0.4306,-1.1816 1.9062,-1.0312 1.9062,-0.166 v 3.69"/></g><g id="hair" transform="translate(-6.5285013,-10.9654)"><path id="path7" fill="#f1b31c" d="m 46.2024,26.0541 c -2.6614,-0.8555 -7.3665,-7.9369 -7.3665,-7.9369 -2.6615,3.2318 -12.737,6.9864 -12.737,6.9864 -2.9942,2.9941 -0.0451,13.8587 -0.0451,13.8587 -4,0 -4,-6 -4,-13 0,-7 4,-14 14,-14 10,0 14,7 14,14 0,7 0,13 -4,13 1.3246,-2.2523 0.1486,-12.9082 0.1486,-12.9082 z"/></g><g id="line" transform="translate(-6.5285013,-10.9654)"><path id="path8" fill="none" stroke="#000" stroke-linecap="round" stroke-linejoin="round" stroke-width="2" d="m 46,38.9654 c 4,0 4,-6 4,-13 0,-7 -4,-14 -14,-14 -10,0 -14,7 -14,14 0,7 0,13 4,13"/><path id="path9" d="m 41.873,29.9654 a 2,2 0 1 1 -2,-2 2,2 0 0 1 2,2"/><path id="path10" d="m 33.873,29.9654 a 2,2 0 1 1 -2,-2 2,2 0 0 1 2,2"/><path id="path11" fill="none" stroke="#000" stroke-linejoin="round" stroke-width="2" d="m 24.9365,30.9654 c 0,9 4.9365,14 11,14 5.9365,0 11.0635,-5 11.0635,-14 a 12.1332,12.1332 0 0 0 -1,-5 c -3,-3 -7,-8 -7,-8 -4,3 -7,6 -13,7 0,0 -1.0635,1 -1.0635,6 z"/><path id="path12" fill="none" stroke="#000" stroke-linecap="round" stroke-linejoin="round" stroke-width="2" d="m 34.084,37.9654 a 11.5,11.5 0 0 0 3.9365,0"/><path id="path13" fill="none" stroke="#000" stroke-linecap="round" stroke-linejoin="round" stroke-width="2" d="m 13.9678,59.9654 2.9375,-11.3054 -0.9375,-1.25 -4,-3 -4,-6 a 1.4142136,1.4142136 0 0 1 2,-2 l 4,4 c 1,1 2,1 5,2 3,1 3.1308,3.2373 3,5 -0.666,8.9727 -1,12.5557 -1,12.5557"/><path id="path14" fill="none" stroke="#000" stroke-linecap="round" stroke-linejoin="round" stroke-width="2" d="m 19.9912,42.855 c 0,0 -1.0234,-2.89 -2.1172,-5.89 -0.4316,-1.1816 -1.9062,-1.0312 -1.9062,-0.166 v 3.69"/><path id="path15" fill="none" stroke="#000" stroke-linecap="round" stroke-linejoin="round" stroke-width="2" d="M 58.0322,59.9654 55.0947,48.66 l 0.9375,-1.25 4,-3 4,-6 a 1.4142136,1.4142136 0 0 0 -2,-2 l -4,4 c -1,1 -2,1 -5,2 -3,1 -3.1308,3.2373 -3,5 0.667,8.9727 1,12.5557 1,12.5557"/><path id="path16" fill="none" stroke="#000" stroke-linecap="round" stroke-linejoin="round" stroke-width="2" d="m 52.01,42.855 c 0,0 1.0224,-2.89 2.1162,-5.89 0.4306,-1.1816 1.9062,-1.0312 1.9062,-0.166 v 3.69"/><line id="line16" x1="23" x2="26" y1="39.965" y2="38.965" fill="none" stroke="#000" stroke-linecap="round" stroke-linejoin="round" stroke-width="2"/><line id="line17" x1="46" x2="49.444" y1="38.965" y2="39.965" fill="none" stroke="#000" stroke-linecap="round" stroke-linejoin="round" stroke-width="2"/></g></svg>