<svg xmlns="http://www.w3.org/2000/svg" xmlns:svg="http://www.w3.org/2000/svg" id="emoji" width="54.482" height="53.561" version="1.1" viewBox="0 0 54.482 53.561"><g id="color" transform="translate(-10.9688,-7.0937996)"><circle id="circle1" cx="14.969" cy="19.094" r="3" fill="#92d3f5" stroke="none"/><circle id="circle2" cx="14.969" cy="19.094" r="3" fill="#ea5a47" stroke="none" stroke-miterlimit="10" stroke-width="2"/></g><g id="skin" transform="translate(-10.9688,-7.0937996)"><circle id="circle3" cx="39.969" cy="11.094" r="3" fill="#6a462f" stroke="#6a462f"/><polygon id="polygon3" fill="#6a462f" stroke="#6a462f" points="34.969 24.166 33.834 22 34.995 24.763"/><path id="path3" fill="#6a462f" stroke="#6a462f" d="M 39.6807,17.916 25.083,18.9814 17.5,18.0156 c 0,0 -1.3682,0.6846 0.4688,2.0274 1.5458,1.1308 5.3251,2.541 7.3652,2.541 3.5,0 6.333,-2.0835 7.668,-0.3623 0.7666,0.9887 1.9931,2.541 1.9931,2.541 L 35.1357,28 l -3,7 -2,6 -10.1738,4 0.4238,3 13.75,-2 3.5616,-5.3418 L 37.1357,42 v 7 l -6.1669,9 3,2 8.1669,-9 3,-13 c 0,0 1.0909,-13.1929 1.2706,-16 0.1357,-2.125 4.7255,0.146 8.1425,1.0625 1.8731,0.5024 4.4512,1.562 7.4512,2.187 2.1816,0.4546 2.8438,-1.937 2.8438,-1.937 L 46.5645,16.9399 Z"/></g><g id="line" transform="translate(-10.9688,-7.0937996)"><circle id="circle4" cx="39.969" cy="11.094" r="3" fill="none" stroke="#000" stroke-miterlimit="10" stroke-width="2"/><circle id="circle5" cx="14.969" cy="19.094" r="3" fill="none" stroke="#000" stroke-miterlimit="10" stroke-width="2"/><path id="path5" fill="none" stroke="#000" stroke-linecap="round" stroke-linejoin="round" stroke-miterlimit="10" stroke-width="2" d="m 40.1357,37 -4.8906,7.3359 c -0.6103,0.9151 -2,1.794 -3.0888,1.9522 l -9.7911,1.4238 C 21.2764,47.8701 20.29,47.3252 20.1738,46.5 c -0.1162,-0.8252 0.626,-1.8291 1.6494,-2.2314 l 6.4512,-2.5372 c 1.0235,-0.4023 2.1455,-1.5849 2.4942,-2.6289 l 0.7343,-2.205 c 0.3487,-1.044 0.9873,-2.7246 1.4209,-3.7354 l 1.4239,-3.3242 c 0.4336,-1.0108 0.7509,-2.7002 0.705,-3.7549 -0.0468,-1.0542 -0.3388,-2.4038 -0.6513,-3 C 34.0889,22.4873 33.834,22 33.834,22"/><path id="path6" fill="none" stroke="#000" stroke-linecap="round" stroke-linejoin="round" stroke-miterlimit="10" stroke-width="2" d="m 37,42 v 5 c 0,1.0996 -0.4414,2.7422 -1.0625,3.6494 l -3.8721,5.7012 c -0.622,0.9072 -0.4384,2.0996 0.3867,2.6494 0.8252,0.5498 2.1124,0.334 2.8516,-0.4814 l 5.4844,-6.0372 c 0.7392,-0.8154 1.5478,-2.3584 1.7959,-3.4306 l 2.1006,-9.1016 c 0.248,-1.0722 0.4707,-2.8486 0.4961,-3.9482 L 45.4316,22"/><path id="path7" fill="none" stroke="#000" stroke-linecap="round" stroke-linejoin="round" stroke-miterlimit="10" stroke-width="2" d="m 15.875,16 7.293,3.1973 c 1.0078,0.4414 2.6855,0.518 3.7295,0.1704 l 2.205,-0.7354 c 1.044,-0.3476 2.7959,-0.6924 3.8926,-0.7651 l 11.0098,-0.7344 c 1.0967,-0.0727 2.8486,0.1519 3.8926,0.4995 L 64,23"/></g></svg>