<?xml version="1.0" encoding="UTF-8" standalone="no"?>
<svg
   id="emoji"
   viewBox="0 0 38.17205 60.682198"
   version="1.1"
   sodipodi:docname="1f939-1f3fd-200d-2642-fe0f.svg"
   width="38.17205"
   height="60.682198"
   xmlns:inkscape="http://www.inkscape.org/namespaces/inkscape"
   xmlns:sodipodi="http://sodipodi.sourceforge.net/DTD/sodipodi-0.dtd"
   xmlns="http://www.w3.org/2000/svg"
   xmlns:svg="http://www.w3.org/2000/svg">
  <defs
     id="defs6" />
  <sodipodi:namedview
     id="namedview6"
     pagecolor="#ffffff"
     bordercolor="#000000"
     borderopacity="0.25"
     inkscape:showpageshadow="2"
     inkscape:pageopacity="0.0"
     inkscape:pagecheckerboard="0"
     inkscape:deskcolor="#d1d1d1" />
  <g
     id="skin"
     transform="translate(-16.640953,-4.1870002)">
    <circle
       cx="34.318199"
       cy="12.4879"
       r="2.8598001"
       fill="#c19a65"
       id="circle1" />
    <path
       fill="#c19a65"
       d="M 28.5986,24.785 26.978,63.8692 h 3.1458 l 3.2411,-23.8318 h 1.9066 l 3.2411,23.8318 h 3.1458 L 40.0378,24.785 c 0,0 0.1907,3.9085 1.3346,5.72 a 5.732,5.732 0 0 0 5.815,2.7645 c 0,0 4.29,-0.572 5.0523,-2.0972 a 1.89,1.89 0 0 0 0,-1.8113 c -0.0953,-0.2859 -2.5738,0.6673 -2.5738,0.6673 L 46.9014,30.505 44.9,29.4561 l -1.2393,-1.43 -1.9065,-6.9589 -3.3369,-1.2392 -9.2468,-0.1906 -3.2411,4.1944 -0.4766,4.099 -1.6206,1.144 -6.3869,-5.91 c 0,0 -1.43,1.62 -0.4766,2.9551 0.9534,1.3351 3.6224,5.0524 5.6243,5.4337 a 3.9687,3.9687 0 0 0 4.1944,-1.3346 11.8051,11.8051 0 0 0 1.8112,-5.434 z"
       id="path1" />
  </g>
  <g
     id="color"
     transform="translate(-16.640953,-4.1870002)">
    <circle
       cx="18.9065"
       cy="17.0935"
       r="1.9065"
       fill="#ea5a47"
       id="circle2" />
    <circle
       cx="38.906502"
       cy="6.0935001"
       r="1.9065"
       fill="#92d3f5"
       id="circle3" />
    <circle
       cx="52.906502"
       cy="26.0935"
       r="1.9065"
       fill="#b1cc33"
       id="circle4" />
  </g>
  <g
     id="line"
     transform="translate(-16.640953,-4.1870002)">
    <circle
       cx="34.5"
       cy="12.3"
       r="3"
       fill="none"
       stroke="#000000"
       stroke-miterlimit="10"
       stroke-width="2"
       id="circle5" />
    <path
       fill="none"
       stroke="#000000"
       stroke-linecap="round"
       stroke-linejoin="round"
       stroke-width="2"
       d="m 39.0845,24.785 2.4786,37.1776 a 1.6148,1.6148 0 0 1 -1.43,1.9066 2.0408,2.0408 0 0 1 -1.8112,-1.9066 L 35.5574,41.9439 c -0.0953,-1.0486 -0.6672,-1.9065 -1.2392,-1.9065 -0.4766,0 -1.0486,0.8579 -1.2393,1.9065 l -2.7644,20.0187 a 2.0408,2.0408 0 0 1 -1.8113,1.9066 1.6148,1.6148 0 0 1 -1.43,-1.9066 L 29.5518,24.785"
       id="path5" />
    <path
       fill="none"
       stroke="#000000"
       stroke-linecap="round"
       stroke-linejoin="round"
       stroke-width="2"
       d="m 18.1126,23.8318 3.5274,4.0037 c 1.7159,2.0019 3.5271,1.43 3.9084,-1.1439 l 0.3813,-2.0019 c 0.4766,-2.5738 2.4785,-4.957 4.5757,-5.1476 a 33.9994,33.9994 0 0 1 7.6262,0 c 2.0972,0.2859 4.1944,2.5738 4.5757,5.1476 l 0.3813,2.0019 c 0.4766,2.5738 2.4785,4.29 4.5757,3.7177 2.0972,-0.4766 3.8131,-0.9532 3.8131,-0.9532"
       id="path6" />
  </g>
</svg>
