<?xml version="1.0" encoding="UTF-8" standalone="no"?>
<svg
   id="emoji"
   viewBox="0 0 61.102798 49.712101"
   version="1.1"
   sodipodi:docname="1f93d-1f3fe-200d-2642-fe0f.svg"
   width="61.102798"
   height="49.712101"
   xmlns:inkscape="http://www.inkscape.org/namespaces/inkscape"
   xmlns:sodipodi="http://sodipodi.sourceforge.net/DTD/sodipodi-0.dtd"
   xmlns="http://www.w3.org/2000/svg"
   xmlns:svg="http://www.w3.org/2000/svg">
  <defs
     id="defs9" />
  <sodipodi:namedview
     id="namedview9"
     pagecolor="#ffffff"
     bordercolor="#000000"
     borderopacity="0.25"
     inkscape:showpageshadow="2"
     inkscape:pageopacity="0.0"
     inkscape:pagecheckerboard="0"
     inkscape:deskcolor="#d1d1d1" />
  <g
     id="skin"
     transform="translate(-3.7667,-10.5348)">
    <path
       fill="#a57939"
       d="m 45.185,42.8973 c 0,0 -3.5271,-7.4355 -4.29,-9.914 l -1.7159,8.9608 -4.8616,-1.0486 -4.8617,0.286 -1.8112,-10.486 -0.9533,-0.858 c -0.572,-1.5252 -5.815,-1.8112 -8.1028,-3.7177 -1.6206,-1.43 -3.05,-6.4823 -3.6224,-8.77 l 1.2392,-1.5253 3.7178,6.8636 8.3888,3.05 11.1535,1.3349 2.7646,2.0019 5.3383,11.63 0.7626,2.9552 z"
       id="path1" />
    <circle
       cx="33.5047"
       cy="19.0207"
       r="3"
       fill="#a57939"
       id="circle1" />
  </g>
  <g
     id="color"
     transform="translate(-3.7667,-10.5348)">
    <path
       fill="#92d3f5"
       d="m 64.8224,41.2768 c 0,-1.8112 -11.3439,2.86 -16.11,2.86 -4.7661,0 -9.5327,-2.86 -15.2523,-2.86 -5.7196,0 -9.5327,2.86 -15.2523,2.86 -5.7196,0 -14.3947,-4.6712 -14.3947,-2.9553 0,5.0523 -0.286,7.15 1.6205,10.6766 1.9065,3.5266 9.5328,3.5271 12.4879,6.5776 2.2878,2.3831 6.7682,1.7158 9.7234,1.7158 2.0972,0 4.385,0.0954 8.5794,0.0954 3.6224,0 10.0093,-1.2393 12.6785,-1.2393 2.1925,0 5.529,-3.2411 6.1963,-4.5757 1.9065,-3.8131 6.2916,-0.9533 7.8168,-3.9084 2.0972,-3.8135 1.9065,-4.0035 1.9065,-9.2467 z"
       id="path2" />
    <circle
       cx="14.2991"
       cy="14.3945"
       r="2.8598001"
       fill="#ea5a47"
       id="circle2" />
  </g>
  <g
     id="line"
     transform="translate(-3.7667,-10.5348)">
    <path
       fill="none"
       stroke="#000000"
       stroke-linecap="round"
       stroke-linejoin="round"
       stroke-width="2"
       d="m 4.7667,40.9908 c 2.86,0 8.5794,2.86 14.299,2.86 5.7196,0 9.5327,-2.86 15.2524,-2.86 5.7197,0 10.4859,2.86 15.2523,2.86 4.7664,0 6.6729,-2.86 14.2991,-2.86"
       id="path3" />
    <path
       fill="none"
       stroke="#000000"
       stroke-linecap="round"
       stroke-linejoin="round"
       stroke-width="2"
       d="m 43.8508,48.617 a 19.97,19.97 0 0 0 5.72,0.9533 c 2.5738,0 4.385,-0.858 6.6729,-1.6206"
       id="path4" />
    <path
       fill="none"
       stroke="#000000"
       stroke-linecap="round"
       stroke-linejoin="round"
       stroke-width="2"
       d="m 12.2022,48.5217 a 26.5085,26.5085 0 0 0 6.8635,1.0483 c 5.72,0 9.5327,-2.86 15.2524,-2.86"
       id="path5" />
    <path
       fill="none"
       stroke="#000000"
       stroke-linecap="round"
       stroke-linejoin="round"
       stroke-width="2"
       d="m 24.7853,55.29 c 3.05,-0.858 5.91,-2.0019 9.5328,-2.0019 4.1943,0 7.9121,1.5252 11.4392,2.3832"
       id="path6" />
    <circle
       cx="14.2994"
       cy="14.3946"
       r="2.8598001"
       fill="none"
       stroke="#000000"
       stroke-miterlimit="10"
       stroke-width="2"
       id="circle6" />
    <circle
       cx="33.364498"
       cy="19.1609"
       r="3"
       fill="none"
       stroke="#000000"
       stroke-miterlimit="10"
       stroke-width="2"
       id="circle7" />
    <path
       fill="none"
       stroke="#000000"
       stroke-linecap="round"
       stroke-linejoin="round"
       stroke-width="2"
       d="m 28.5981,40.9908 v -6.6729 a 11.7283,11.7283 0 0 0 -0.4766,-3.3364 c -0.286,-0.7627 -0.4766,-1.43 -0.4766,-1.43"
       id="path7" />
    <path
       fill="none"
       stroke="#000000"
       stroke-linecap="round"
       stroke-linejoin="round"
       stroke-width="2"
       d="m 40.0374,33.3646 -0.9533,7.6262"
       id="path8" />
    <path
       fill="none"
       stroke="#000000"
       stroke-linecap="round"
       stroke-linejoin="round"
       stroke-width="2"
       d="m 17.0636,15.2525 2.3831,6.7682 a 4.1985,4.1985 0 0 0 2.4785,2.2879 l 3.9084,0.9532 a 16.7367,16.7367 0 0 0 3.7178,0.572 l 8.5794,0.6673 a 6.0312,6.0312 0 0 1 3.2412,1.5252 l 0.1906,0.1907 a 11.0074,11.0074 0 0 1 2.0019,3.1458 l 0.7626,2.0972 c 0.3813,0.9532 0.9533,2.5738 1.3346,3.5271 l 2.7645,6.3869"
       id="path9" />
  </g>
</svg>
