<?xml version="1.0" encoding="UTF-8" standalone="no"?>
<svg
   id="emoji"
   viewBox="0 0 42.310684 52.4688"
   version="1.1"
   sodipodi:docname="1f938-1f3fc.svg"
   width="42.310684"
   height="52.4688"
   xmlns:inkscape="http://www.inkscape.org/namespaces/inkscape"
   xmlns:sodipodi="http://sodipodi.sourceforge.net/DTD/sodipodi-0.dtd"
   xmlns="http://www.w3.org/2000/svg"
   xmlns:svg="http://www.w3.org/2000/svg">
  <defs
     id="defs3" />
  <sodipodi:namedview
     id="namedview3"
     pagecolor="#ffffff"
     bordercolor="#000000"
     borderopacity="0.25"
     inkscape:showpageshadow="2"
     inkscape:pageopacity="0.0"
     inkscape:pagecheckerboard="0"
     inkscape:deskcolor="#d1d1d1" />
  <g
     id="color"
     transform="translate(-9.3988191,-9)" />
  <g
     id="hair"
     transform="translate(-9.3988191,-9)" />
  <g
     id="skin"
     transform="translate(-9.3988191,-9)">
    <circle
       cx="34.334"
       cy="52"
       r="3"
       fill="#debb90"
       stroke="#debb90"
       id="circle1" />
    <path
       fill="#debb90"
       stroke="#debb90"
       d="m 23.666,47.085 c -1.292,2.042 -0.959,5.417 -1.042,11.125 -0.0283,1.917 0.084,2.7588 2.4073,2.7588 0,0 -0.5313,-3.2813 -0.0313,-9.25 0.5,-5.9688 3.8125,-5.5938 7.8125,-6.6563 4,-1.0625 8,1.875 9.1563,3.4688 1.1562,1.5937 1,12.4375 1,12.4375 3.2187,0 2.2812,-2.5938 2.2812,-2.5938 0,2.5938 1.291,-10.168 -0.751,-12.793 C 43.126,43.8174 41,42 41,42 l -2,-2 1,-7 6,-9 5,-14 h -3 l -7,12 -6,5 -2,1 -11,-3 -11,-4.9995 -1,3 10,5.9995 9,6 -2,7 c -0.3115,1.3945 -1.667,2.4502 -3.334,5.085 z"
       id="path1" />
  </g>
  <g
     id="skin-shadow"
     transform="translate(-9.3988191,-9)" />
  <g
     id="line"
     transform="translate(-9.3988191,-9)">
    <circle
       cx="34.334"
       cy="52"
       r="3"
       fill="none"
       stroke="#000000"
       stroke-miterlimit="10"
       stroke-width="2"
       id="circle2" />
    <path
       fill="none"
       stroke="#000000"
       stroke-linecap="round"
       stroke-linejoin="round"
       stroke-miterlimit="10"
       stroke-width="2"
       d="m 28,42 0.7168,-5.0205 C 28.873,35.8906 28.251,34.501 27.3359,33.8906 L 21.6641,30.1094 C 20.749,29.499 19.2285,28.5371 18.2852,27.9712 L 11.7148,24.0293 C 10.7715,23.4634 10.2246,22.3257 10.5,21.5005 c 0.2754,-0.8252 1.3193,-1.1275 2.3203,-0.6724 l 7.3594,3.3443 c 1.001,0.455 2.6885,1.0644 3.75,1.354 l 7.1406,1.9472 c 1.0615,0.2896 2.3799,0.3013 2.9297,0.0264 0.5498,-0.2749 1.6914,-1.0762 2.5361,-1.7803 l 2.9278,-2.4394 c 0.8447,-0.7041 1.9892,-2.0576 2.5439,-3.0078 l 4.9844,-8.545 C 47.5469,10.7773 48.6748,10 49.5,10 c 0.8252,0 1.1973,0.8477 0.8271,1.8833 l -3.6542,10.2334 c -0.3702,1.0356 -1.1719,2.6323 -1.7823,3.5474 l -3.7812,5.6718 c -0.6104,0.9151 -1.2364,2.5547 -1.3926,3.6436 l -0.4336,3.041 C 39.127,39.1094 39.2246,40.4502 39.5,41 c 0.2754,0.5498 0.5,1 0.5,1"
       id="path2" />
    <path
       fill="none"
       stroke="#000000"
       stroke-linecap="round"
       stroke-linejoin="round"
       stroke-miterlimit="10"
       stroke-width="2"
       d="m 25,60 c 0,-4 0,-6 0,-8 0,-3.4307 1.8301,-5.458 4,-6 4,-1 6,-1 10,0 2.1689,0.542 4,2.6543 4,6 0,2 0,5.0957 0,8"
       id="path3" />
  </g>
</svg>
