<svg xmlns="http://www.w3.org/2000/svg" xmlns:svg="http://www.w3.org/2000/svg" id="emoji" width="40.131" height="50.109" version="1.1" viewBox="0 0 40.131 50.109"><g id="hair" transform="translate(-15.934401,-11)"><g id="hair-2"><path id="path1" fill="#000" d="m 26,38 c -3,0 -4,-7 -4,-14 0,-6 5,-12 14,-12 9,0 14,6 14,12 0,7 -1,14 -4,14"/></g></g><g id="skin" transform="translate(-15.934401,-11)"><g id="skin-2"><path id="path2" fill="#6a462f" d="m 24.8422,30.5 c -0.1015,7.999 4.0635,14 11,14 7.0635,0 11.0635,-6 11.0635,-14 0,-5 -3,-10 -3,-10 -8,0 -10,3 -16,1 a 17.0768,17.0768 0 0 0 -3.0635,9 z"/></g></g><g id="color" transform="translate(-15.934401,-11)"><g id="g9"><g id="g8"><g id="g7"><g id="g6"><path id="path3" fill="#fff" d="m 54.9375,60.9063 c 0,0 2,-13.7973 -10,-13.7973 -3.1919,2.1192 -5.9264,3.5837 -9,3.5775 h 0.125 c -3.0736,0.0062 -5.8082,-1.4583 -9,-3.5775 -12,0 -10,13.7973 -10,13.7973"/><g id="g5"><path id="path4" fill="#3f3f3f" d="m 27.0625,47.109 c -12,0 -10,13.9674 -10,13.9674 h 15.8934 c 0,0 -4.4214,-3.2647 -5.8934,-13.9674"/><path id="path5" fill="#3f3f3f" d="m 44.9375,47.109 c 12,0 10,13.9674 10,13.9674 H 39.19 c 0,0 5.4224,-7.4433 5.748,-13.9674"/></g></g><path id="path6" d="m 33.6927,50.5983 c 0,0 -1.2063,6.0217 2.3073,6.0217 3.5136,0 2.3072,-6.0214 2.3072,-6.0214"/></g><path id="path7" fill="#3f3f3f" d="M 35.15,56.8023 32.7344,60.44 c -3.63,-1.7539 -5.6719,-12.9622 -5.6719,-12.9622 l -5.1046,6.9347 2.974,1.842 -0.9985,3.1134 8.8689,1.0721"/><path id="path8" fill="#3f3f3f" d="m 36.85,56.8023 2.4155,3.6377 c 3.63,-1.7539 5.672,-12.9622 5.672,-12.9622 l 5.1045,6.9347 -2.974,1.842 0.9985,3.1134 -8.8689,1.0721"/></g><polygon id="polygon8" points="40.288 61.076 36 55.569 31.647 61.076"/></g></g><g id="line" transform="translate(-15.934401,-11)"><g id="g20"><path id="path9" d="m 41.873,30 a 2,2 0 1 1 -2,-2 2,2 0 0 1 2,2"/><path id="path10" d="m 33.873,30 a 2,2 0 1 1 -2,-2 2,2 0 0 1 2,2"/><path id="path11" fill="none" stroke="#000" stroke-linecap="round" stroke-linejoin="round" stroke-width="2" d="m 32.873,38.25 a 8.2737,8.2737 0 0 0 6,0"/><path id="path12" fill="none" stroke="#000" stroke-linecap="round" stroke-linejoin="round" stroke-width="2" d="m 26,38 c -3,0 -4,-7 -4,-14 0,-6 5,-12 14,-12 9,0 14,6 14,12 0,7 -1,14 -4,14"/><path id="path13" d="m 41.873,30 a 2,2 0 1 1 -2,-2 2,2 0 0 1 2,2"/><path id="path14" d="m 33.873,30 a 2,2 0 1 1 -2,-2 2,2 0 0 1 2,2"/><path id="path15" fill="none" stroke="#000" stroke-linejoin="round" stroke-width="2" d="m 24.9365,31 c -0.1015,7.999 4.9365,14 11,14 C 41.873,45 47,39 47,31 47,26 44,20 44,20 c -8,0 -10,3 -16,1 0,0 -3,5 -3.0635,10 z"/><path id="path16" fill="none" stroke="#000" stroke-linecap="round" stroke-linejoin="round" stroke-width="2" d="m 32.873,38.25 a 8.2737,8.2737 0 0 0 6,0"/><path id="path17" fill="none" stroke="#000" stroke-linecap="round" stroke-linejoin="round" stroke-width="2" d="m 33.6927,50.4119 c 0,0 -1.2063,6.0215 2.3073,6.0215 3.5136,0 2.3072,-6.0215 2.3072,-6.0215"/><path id="path18" fill="none" stroke="#000" stroke-linecap="round" stroke-linejoin="round" stroke-width="2" d="m 35.15,56.4334 -2.4152,3.6377 C 29.1048,58.3173 27.0629,47.109 27.0629,47.109 l -5.1046,6.9346 2.974,1.842 -0.9985,3.1134 8.8689,1.0721 z"/><path id="path19" fill="none" stroke="#000" stroke-linecap="round" stroke-linejoin="round" stroke-width="2" d="m 36.85,56.4334 2.4151,3.6377 c 3.63,-1.7538 5.672,-12.9621 5.672,-12.9621 l 5.1045,6.9346 -2.974,1.842 0.9985,3.1134 -8.8689,1.0721 z"/><path id="path20" fill="none" stroke="#000" stroke-linecap="round" stroke-linejoin="round" stroke-width="2" d="m 17.0625,60.109 c 0,0 -2,-13 10,-13 3.1918,2.1279 5.9264,3.5984 9,3.5921 h -0.125 c 3.0736,0.0063 5.8081,-1.4642 9,-3.5921 12,0 10,13 10,13"/></g></g></svg>