<svg xmlns="http://www.w3.org/2000/svg" xmlns:svg="http://www.w3.org/2000/svg" id="emoji" width="58.943" height="51.001" version="1.1" viewBox="0 0 58.943 51.001"><g id="color" transform="translate(-6.4002013,-10)"><path id="path1" fill="#92d3f5" d="m 22.8717,39.0005 c 0,0 -4,1 -4,3 l 2,2 a 35.36,35.36 0 0 1 1,6 c 0,2 -1,11 -1,11 h 30 c 0,0 -2,-15 -1,-16 l 3,-3 c 0,-2 -4,-3 -4,-3"/></g><g id="skin" transform="translate(-6.4002013,-10)"><path id="path2" fill="#debb90" d="m 24.8717,31.0005 c 0,9 4.9365,14 11,14 5.9365,0 11.0635,-5 11.0635,-14 a 12.1332,12.1332 0 0 0 -1,-5 C 43.6887,22.8028 40.7434,19 40.7434,19 c -4,3 -7.255,5.9946 -13.1492,8.4027 0,-5e-4 -2.7225,-1.4022 -2.7225,3.5978 z"/><path id="path3" fill="#debb90" d="m 13.84,61.0005 2.937,-12.3057 -0.9375,-1.25 -4,-3 -4,-6 a 1.4142136,1.4142136 0 1 1 2,-2 l 4,4 c 1,1 2,1 5,2 3,1 3.1308,3.2373 3,5 -0.666,8.9727 -1,13.5557 -1,13.5557"/><path id="path4" fill="#debb90" d="m 19.8629,42.89 c 0,0 -1.0234,-2.89 -2.1172,-5.89 -0.4316,-1.1816 -1.9062,-1.0312 -1.9062,-0.166 v 3.69"/><path id="path5" fill="#debb90" d="m 57.9039,61.0005 -2.9375,-12.3057 0.9375,-1.25 4,-3 4,-6 a 1.4142136,1.4142136 0 0 0 -2,-2 l -4,4 c -1,1 -2,1 -5,2 -3,1 -3.1308,3.2373 -3,5 0.667,8.9727 1,13.5557 1,13.5557"/><path id="path6" fill="#debb90" d="m 51.8815,42.89 c 0,0 1.0224,-2.89 2.1162,-5.89 0.4306,-1.1816 1.9062,-1.0312 1.9062,-0.166 v 3.69"/></g><g id="hair" transform="translate(-6.4002013,-10)"><path id="path7" fill="#fcea2b" d="m 54.0641,33.4987 c -1.5667,-0.7289 -4.1927,-8.9038 -4.1927,-8.9038 0.3093,-10.3035 -7.4984,-10.27 -7.4984,-10.27 -1.6565,-3.5694 -8.6283,-2.6173 -8.6283,-2.6173 -12.24,-0.2651 -13.6019,12.49 -13.6019,12.49 2.0872,2.3522 -1.9546,9.1108 -1.9546,9.1108 l -1.1265,2.1534 2.7,4.9723 c 1.8684,-1.557 6.3619,-2.1681 6.3619,-2.1681 0.4173,0.5534 0.8294,1.05 1.2389,1.521 a 23.5766,23.5766 0 0 1 -2.447,-9.7862 c 1.2917,-2.7882 15.76,-10.7785 15.76,-10.7785 3.6094,1.4314 6.0685,9.5155 6.0685,9.5155 a 23.9989,23.9989 0 0 1 -1.3872,9.6794 c 4.5278,0.1711 6.667,2.0694 6.667,2.0694 L 54.789,35.39 Z"/></g><g id="line" transform="translate(-6.4002013,-10)"><path id="path8" d="m 41.7447,30.0005 a 2,2 0 1 1 -2,-2 2,2 0 0 1 2,2"/><path id="path9" d="m 33.7447,30.0005 a 2,2 0 1 1 -2,-2 2,2 0 0 1 2,2"/><path id="path10" fill="none" stroke="#000" stroke-linecap="round" stroke-linejoin="round" stroke-width="2" d="m 33.9557,38.0005 a 11.5,11.5 0 0 0 3.9365,0"/><path id="path11" fill="none" stroke="#000" stroke-linecap="round" stroke-linejoin="round" stroke-width="2" d="m 13.84,60.0005 2.937,-11.3057 -0.9375,-1.25 -4,-3 -4,-6 a 1.4142136,1.4142136 0 1 1 2,-2 l 4,4 c 1,1 2,1 5,2 3,1 3.1308,3.2373 3,5 -0.666,8.9727 -1,12.5557 -1,12.5557"/><path id="path12" fill="none" stroke="#000" stroke-linecap="round" stroke-linejoin="round" stroke-width="2" d="m 19.8629,42.89 c 0,0 -1.0234,-2.89 -2.1172,-5.89 -0.4316,-1.1816 -1.9062,-1.0312 -1.9062,-0.166 v 3.69"/><path id="path13" fill="none" stroke="#000" stroke-linecap="round" stroke-linejoin="round" stroke-width="2" d="m 57.9039,60.0005 -2.9375,-11.3057 0.9375,-1.25 4,-3 4,-6 a 1.4142136,1.4142136 0 0 0 -2,-2 l -4,4 c -1,1 -2,1 -5,2 -3,1 -3.1308,3.2373 -3,5 0.667,8.9727 1,12.5557 1,12.5557"/><path id="path14" fill="none" stroke="#000" stroke-linecap="round" stroke-linejoin="round" stroke-width="2" d="m 51.8815,42.89 c 0,0 1.0224,-2.89 2.1162,-5.89 0.4306,-1.1816 1.9062,-1.0312 1.9062,-0.166 v 3.69"/><line id="line14" x1="22.872" x2="25.872" y1="40.001" y2="39.001" fill="none" stroke="#000" stroke-linecap="round" stroke-linejoin="round" stroke-width="2"/><line id="line15" x1="45.773" x2="49.316" y1="38.819" y2="40.001" fill="none" stroke="#000" stroke-linecap="round" stroke-linejoin="round" stroke-width="2"/><path id="path15" fill="none" stroke="#000" stroke-linecap="round" stroke-linejoin="round" stroke-width="2" d="m 18.9392,33.9119 c 0.2784,-0.633 0.5537,-1.2686 0.8042,-1.9124 1.6357,-4.2 -0.209,-6.4512 1.291,-12.0342 1.4795,-5.5 7.2773,-8.9653 13.709,-8.9653 5.4,0 8,3 8,3 a 8.1321,8.1321 0 0 1 7.4052,8.0371 c 0.3639,6.756 0.95,7.1305 3.0212,11.8753"/><path id="path16" fill="none" stroke="#000" stroke-linejoin="round" stroke-width="2" d="m 24.7434,31 c 0,8 5,14 11,14 6,0 11,-6 11,-14 0,-5 -2,-8 -6,-12 -4,4 -16,9 -16,11 z"/></g></svg>