<svg xmlns="http://www.w3.org/2000/svg" xmlns:svg="http://www.w3.org/2000/svg" id="emoji" width="49.739" height="51.708" version="1.1" viewBox="0 0 49.739 51.708"><g id="color" transform="translate(-11.0184,-9.3591995)"><path id="path1" fill="#ea5a47" stroke="none" d="M 58.7568,59.0674 V 37.2188 H 13.0186 v 21.8486 z"/><path id="path2" fill="#a57939" stroke="none" d="m 23.9005,30.2761 c 0.29,0.3853 0.7142,0.6346 1.1935,0.7018 0.4827,0.0603 0.9547,-0.0583 1.3402,-0.3482 0,0 0,0 0,-0.0018 0.7974,-0.5995 0.9565,-1.7382 0.3554,-2.5346 -0.3554,-0.4713 -0.8982,-0.7197 -1.4463,-0.7197 -0.3802,0 -0.762,0.1186 -1.0874,0.3643 -0.7974,0.6011 -0.9565,1.7407 -0.3554,2.5382 z"/><path id="path3" fill="#a57939" stroke="none" d="m 46.5235,30.5392 c 0.6857,-0.8679 0.5369,-2.1317 -0.3291,-2.8185 -0.3683,-0.2909 -0.8073,-0.432 -1.2443,-0.432 -0.5917,0 -1.1793,0.2617 -1.5752,0.7613 -0.6857,0.8669 -0.5389,2.1307 0.3293,2.8185 0.4231,0.331 0.9502,0.4897 1.4772,0.4193 0.5329,-0.0628 1.009,-0.3293 1.3421,-0.7486 z"/><path id="path4" fill="#d22f27" stroke="none" d="M 47.6811,54.4482 47.624,59.0674 H 58.7568 V 37.2188 H 47.894 l -0.0804,6.5125 0.08,-0.0038 c 0.5527,0 1,0.4473 1,1 v 8.7442 c 0,0.5527 -0.4473,1 -1,1 z"/></g><g id="line" transform="translate(-11.0184,-9.3591995)"><line id="line4" x1="35.815" x2="35.815" y1="44.728" y2="53.472" fill="none" stroke="#000" stroke-linecap="round" stroke-linejoin="round" stroke-miterlimit="10" stroke-width="2"/><line id="line5" x1="23.736" x2="23.736" y1="44.728" y2="53.472" fill="none" stroke="#000" stroke-linecap="round" stroke-linejoin="round" stroke-miterlimit="10" stroke-width="2"/><line id="line6" x1="47.894" x2="47.894" y1="44.728" y2="53.472" fill="none" stroke="#000" stroke-linecap="round" stroke-linejoin="round" stroke-miterlimit="10" stroke-width="2"/><circle id="ellipse6" cx="25.34" cy="29.179" r="2" fill="none" stroke="#000" stroke-linecap="round" stroke-linejoin="round" stroke-miterlimit="10" stroke-width="2" transform="matrix(0.7984,-0.6021,0.6021,0.7984,-12.4611,21.141)"/><line id="line7" x1="38.775" x2="50.293" y1="19.046" y2="10.359" fill="none" stroke="#000" stroke-linecap="round" stroke-linejoin="round" stroke-miterlimit="10" stroke-width="2"/><line id="line8" x1="26.937" x2="31.978" y1="27.975" y2="24.173" fill="none" stroke="#000" stroke-linecap="round" stroke-linejoin="round" stroke-miterlimit="10" stroke-width="2"/><circle id="ellipse8" cx="44.944" cy="29.234" r="2" fill="none" stroke="#000" stroke-linecap="round" stroke-linejoin="round" stroke-miterlimit="10" stroke-width="2" transform="matrix(0.6204,-0.7843,0.7843,0.6204,-5.8665,46.3483)"/><line id="line9" x1="21.337" x2="43.375" y1="10.562" y2="27.993" fill="none" stroke="#000" stroke-linecap="round" stroke-linejoin="round" stroke-miterlimit="10" stroke-width="2"/><rect id="rect9" width="47.739" height="23.849" x="12.018" y="36.219" fill="none" stroke="#000" stroke-linecap="round" stroke-linejoin="round" stroke-miterlimit="10" stroke-width="2"/></g></svg>