<?xml version="1.0" encoding="UTF-8" standalone="no"?>
<svg
   id="emoji"
   viewBox="0 0 13.6646 50.6647"
   version="1.1"
   sodipodi:docname="1f944.svg"
   width="13.6646"
   height="50.6647"
   xmlns:inkscape="http://www.inkscape.org/namespaces/inkscape"
   xmlns:sodipodi="http://sodipodi.sourceforge.net/DTD/sodipodi-0.dtd"
   xmlns="http://www.w3.org/2000/svg"
   xmlns:svg="http://www.w3.org/2000/svg">
  <defs
     id="defs2" />
  <sodipodi:namedview
     id="namedview2"
     pagecolor="#ffffff"
     bordercolor="#000000"
     borderopacity="0.25"
     inkscape:showpageshadow="2"
     inkscape:pageopacity="0.0"
     inkscape:pagecheckerboard="0"
     inkscape:deskcolor="#d1d1d1" />
  <g
     id="color"
     transform="translate(-30.7927,-11.1641)">
    <path
       fill="#d0cfce"
       stroke="none"
       stroke-linecap="round"
       stroke-linejoin="round"
       stroke-miterlimit="10"
       stroke-width="2"
       d="m 43.4573,21.3227 c 0,-5.0582 -2.6112,-9.1586 -5.8323,-9.1586 -3.2211,0 -5.8323,4.1004 -5.8323,9.1586 0,4.6982 1.3551,8.5665 4.257,9.0938 v 0 l -0.8108,28.4123 c 0,1.1046 0.8954,2 2,2 1.1046,0 2,-0.8954 2,-2 L 39.2104,30.4107 v 0 c 2.8967,-0.5347 4.2469,-4.3954 4.2469,-9.088 z"
       id="path1" />
  </g>
  <g
     id="hair"
     transform="translate(-30.7927,-11.1641)" />
  <g
     id="skin"
     transform="translate(-30.7927,-11.1641)" />
  <g
     id="skin-shadow"
     transform="translate(-30.7927,-11.1641)" />
  <g
     id="line"
     transform="translate(-30.7927,-11.1641)">
    <path
       fill="none"
       stroke="#000000"
       stroke-linecap="round"
       stroke-linejoin="round"
       stroke-miterlimit="10"
       stroke-width="2"
       d="m 43.4573,21.3227 c 0,-5.0582 -2.6112,-9.1586 -5.8323,-9.1586 -3.2211,0 -5.8323,4.1004 -5.8323,9.1586 0,4.6982 1.3551,8.5665 4.257,9.0938 v 0 l -0.8108,28.4123 c 0,1.1046 0.8954,2 2,2 1.1046,0 2,-0.8954 2,-2 L 39.2104,30.4107 v 0 c 2.8967,-0.5347 4.2469,-4.3954 4.2469,-9.088 z"
       id="path2" />
  </g>
</svg>
