<svg xmlns="http://www.w3.org/2000/svg" xmlns:svg="http://www.w3.org/2000/svg" id="emoji" width="67.864" height="67.617" version="1.1" viewBox="0 0 67.864 67.617"><g id="line-supplement" transform="translate(-2.0129,-2.0716)"><path id="path1" fill="none" stroke="#000" stroke-linecap="round" stroke-linejoin="round" stroke-miterlimit="10" stroke-width="1.943" d="m 26.51,14.13 h -23"/><path id="path2" fill="none" stroke="#000" stroke-linecap="round" stroke-linejoin="round" stroke-miterlimit="10" stroke-width="1.974" d="M 57.4035,12.0455 34.4427,17.485"/></g><g id="color" transform="translate(-2.0129,-2.0716)"><path id="path3" fill="#fcea2b" d="M 3.1295,13 C 3.9803,29.9708 8.97,43 15,43 21.03,43 26.0197,29.9708 26.8705,13 Z"/><path id="path4" fill="#f1b31c" d="M 11.4042,13 H 3.1295 C 3.9803,29.9708 8.97,43 15,43 16.5552,43 18.0402,42.1274 19.4039,40.5499 15.4642,35.5093 12.4703,25.3695 11.4042,13 Z"/><path id="path5" fill="#fcea2b" d="m 34.1327,16.355 c 4.7545,16.3133 12.6235,27.8345 18.4899,26.4393 5.8664,-1.3952 7.7059,-15.2254 4.6069,-31.9325 z"/><path id="path6" fill="#f1b31c" d="m 42.1829,14.4403 -8.0502,1.9146 c 4.7545,16.3133 12.6235,27.8345 18.4899,26.4393 1.513,-0.3599 2.7558,-1.5524 3.7175,-3.4026 C 51.341,35.3994 46.0821,26.2275 42.1829,14.4403 Z"/></g><g id="line" transform="translate(-2.0129,-2.0716)"><line id="line6" x1="15" x2="15" y1="44" y2="67" fill="none" stroke="#000" stroke-linecap="round" stroke-linejoin="round" stroke-miterlimit="10" stroke-width="2"/><line id="line7" x1="4" x2="26" y1="67" y2="67" fill="none" stroke="#000" stroke-linecap="round" stroke-linejoin="round" stroke-miterlimit="10" stroke-width="2"/><path id="path7" fill="none" stroke="#000" stroke-linecap="round" stroke-linejoin="round" stroke-miterlimit="10" stroke-width="1.974" d="M 3.0427,5 C 3.0168,5.9411 3,6.8895 3,7.85 3,27.2628 8.3726,43 15,43 21.6274,43 27,27.2628 27,7.85 27,6.8895 26.9832,5.9411 26.9573,5"/><line id="line8" x1="52.854" x2="58.176" y1="43.767" y2="66.143" fill="none" stroke="#000" stroke-linecap="round" stroke-linejoin="round" stroke-miterlimit="10" stroke-width="2"/><line id="line9" x1="47.474" x2="68.877" y1="68.688" y2="63.598" fill="none" stroke="#000" stroke-linecap="round" stroke-linejoin="round" stroke-miterlimit="10" stroke-width="2"/><path id="path9" fill="none" stroke="#000" stroke-linecap="round" stroke-linejoin="round" stroke-miterlimit="10" stroke-width="1.974" d="m 32.1972,8.5922 c 0.1926,0.9215 0.3957,1.8481 0.6179,2.7825 4.4918,18.886 13.3599,32.953 19.8074,31.4195 C 59.07,41.2607 60.6555,24.7075 56.1638,5.8215 55.9416,4.8871 55.7057,3.9683 55.4629,3.0587"/></g></svg>