<?xml version="1.0" encoding="UTF-8" standalone="no"?>
<svg
   id="emoji"
   viewBox="0 0 67.864395 67.6166"
   version="1.1"
   sodipodi:docname="1f942.svg"
   width="67.864395"
   height="67.6166"
   xmlns:inkscape="http://www.inkscape.org/namespaces/inkscape"
   xmlns:sodipodi="http://sodipodi.sourceforge.net/DTD/sodipodi-0.dtd"
   xmlns="http://www.w3.org/2000/svg"
   xmlns:svg="http://www.w3.org/2000/svg">
  <defs
     id="defs9" />
  <sodipodi:namedview
     id="namedview9"
     pagecolor="#ffffff"
     bordercolor="#000000"
     borderopacity="0.25"
     inkscape:showpageshadow="2"
     inkscape:pageopacity="0.0"
     inkscape:pagecheckerboard="0"
     inkscape:deskcolor="#d1d1d1" />
  <g
     id="line-supplement"
     transform="translate(-2.0129,-2.0716)">
    <path
       fill="none"
       stroke="#000000"
       stroke-linecap="round"
       stroke-linejoin="round"
       stroke-miterlimit="10"
       stroke-width="1.9431"
       d="m 26.51,14.13 h -23"
       id="path1" />
    <path
       fill="none"
       stroke="#000000"
       stroke-linecap="round"
       stroke-linejoin="round"
       stroke-miterlimit="10"
       stroke-width="1.9742"
       d="M 57.4035,12.0455 34.4427,17.485"
       id="path2" />
  </g>
  <g
     id="color"
     transform="translate(-2.0129,-2.0716)">
    <path
       fill="#fcea2b"
       d="M 3.1295,13 C 3.9803,29.9708 8.97,43 15,43 21.03,43 26.0197,29.9708 26.8705,13 Z"
       id="path3" />
    <path
       fill="#f1b31c"
       d="M 11.4042,13 H 3.1295 C 3.9803,29.9708 8.97,43 15,43 16.5552,43 18.0402,42.1274 19.4039,40.5499 15.4642,35.5093 12.4703,25.3695 11.4042,13 Z"
       id="path4" />
    <path
       fill="#fcea2b"
       d="m 34.1327,16.355 c 4.7545,16.3133 12.6235,27.8345 18.4899,26.4393 5.8664,-1.3952 7.7059,-15.2254 4.6069,-31.9325 z"
       id="path5" />
    <path
       fill="#f1b31c"
       d="m 42.1829,14.4403 -8.0502,1.9146 c 4.7545,16.3133 12.6235,27.8345 18.4899,26.4393 1.513,-0.3599 2.7558,-1.5524 3.7175,-3.4026 C 51.341,35.3994 46.0821,26.2275 42.1829,14.4403 Z"
       id="path6" />
  </g>
  <g
     id="hair"
     transform="translate(-2.0129,-2.0716)" />
  <g
     id="skin"
     transform="translate(-2.0129,-2.0716)" />
  <g
     id="skin-shadow"
     transform="translate(-2.0129,-2.0716)" />
  <g
     id="line"
     transform="translate(-2.0129,-2.0716)">
    <line
       x1="15"
       x2="15"
       y1="44"
       y2="67"
       fill="none"
       stroke="#000000"
       stroke-linecap="round"
       stroke-linejoin="round"
       stroke-miterlimit="10"
       stroke-width="2"
       id="line6" />
    <line
       x1="4"
       x2="26"
       y1="67"
       y2="67"
       fill="none"
       stroke="#000000"
       stroke-linecap="round"
       stroke-linejoin="round"
       stroke-miterlimit="10"
       stroke-width="2"
       id="line7" />
    <path
       fill="none"
       stroke="#000000"
       stroke-linecap="round"
       stroke-linejoin="round"
       stroke-miterlimit="10"
       stroke-width="1.9742"
       d="M 3.0427,5 C 3.0168,5.9411 3,6.8895 3,7.85 3,27.2628 8.3726,43 15,43 21.6274,43 27,27.2628 27,7.85 27,6.8895 26.9832,5.9411 26.9573,5"
       id="path7" />
    <line
       x1="52.854"
       x2="58.1758"
       y1="43.767101"
       y2="66.142899"
       fill="none"
       stroke="#000000"
       stroke-linecap="round"
       stroke-linejoin="round"
       stroke-miterlimit="10"
       stroke-width="2"
       id="line8" />
    <line
       x1="47.4743"
       x2="68.877296"
       y1="68.688202"
       y2="63.597698"
       fill="none"
       stroke="#000000"
       stroke-linecap="round"
       stroke-linejoin="round"
       stroke-miterlimit="10"
       stroke-width="2"
       id="line9" />
    <path
       fill="none"
       stroke="#000000"
       stroke-linecap="round"
       stroke-linejoin="round"
       stroke-miterlimit="10"
       stroke-width="1.9742"
       d="m 32.1972,8.5922 c 0.1926,0.9215 0.3957,1.8481 0.6179,2.7825 4.4918,18.886 13.3599,32.953 19.8074,31.4195 C 59.07,41.2607 60.6555,24.7075 56.1638,5.8215 55.9416,4.8871 55.7057,3.9683 55.4629,3.0587"
       id="path9" />
  </g>
</svg>
