<?xml version="1.0" encoding="UTF-8" standalone="no"?>
<svg
   id="emoji"
   viewBox="0 0 54.946537 59.774841"
   version="1.1"
   sodipodi:docname="1f94b.svg"
   width="54.946537"
   height="59.774841"
   xmlns:inkscape="http://www.inkscape.org/namespaces/inkscape"
   xmlns:sodipodi="http://sodipodi.sourceforge.net/DTD/sodipodi-0.dtd"
   xmlns="http://www.w3.org/2000/svg"
   xmlns:svg="http://www.w3.org/2000/svg">
  <defs
     id="defs9" />
  <sodipodi:namedview
     id="namedview9"
     pagecolor="#ffffff"
     bordercolor="#000000"
     borderopacity="0.25"
     inkscape:showpageshadow="2"
     inkscape:pageopacity="0.0"
     inkscape:pagecheckerboard="0"
     inkscape:deskcolor="#d1d1d1" />
  <g
     id="color"
     transform="translate(-8.5267308,-6.1124)">
    <path
       fill="#d0cfce"
       stroke="none"
       d="m 62.48,46.02 c -0.74,-0.16 -1.45,-0.22 -2.13,-0.22 -3.8199,0 -6.58,2.09 -6.58,2.09 L 47.71,28.21 47.2,47.45 51.86,63.41 c 0,0 -2.19,0.85 -3.86,1.21 l -0.01,-0.14 c -4.28,1.03 -12.01,2.11 -22.63,0.4 v -2.92 c 0,0 -2.73,0.85 -4.52,-1.15 L 24.82,47.16 24.31,27.92 18.25,47.6 v -0.03 c 0,0 -2.76,-2.09 -6.58,-2.09 -0.68,0 -1.38,0.06 -2.12,0.22 l 7.11,-23.02 c 0,0 1.56,-5.47 3.44,-7.19 1.87,-1.72 8.1801,-2.46 8.1801,-2.46 l 2.1,-5.37 c 0.12,-0.3 0.47,-0.55 1.22,-0.55 h 9.01 c 0.76,0 1.1,0.24 1.22,0.55 l 2.11,5.37 c 0,0 6.11,1.04 7.98,2.76 1.88,1.71 3.44,7.18 3.44,7.18 z"
       id="path1" />
    <polygon
       fill="#9b9b9a"
       stroke="none"
       points="36,16.9583 30.9212,7.875 41.5833,7.875 "
       id="polygon1" />
    <rect
       x="25.25"
       y="42.25"
       width="21.9505"
       height="3.6875"
       fill="#3f3f3f"
       stroke="none"
       id="rect1" />
    <path
       fill="#3f3f3f"
       stroke="none"
       d="m 33.7748,22.0446 -5.0167,-8.8259 1.9294,-4.3596 5.5648,8.6206 5.3311,-8.6206 1.5417,3.5575 v 1.3958 C 36.0625,23 31.1678,42.4148 31.1678,42.4148 l -4.2859,-0.2612 c 0,0 2.9838,-12.2832 6.8929,-20.109 z"
       id="path2" />
  </g>
  <g
     id="hair"
     transform="translate(-8.5267308,-6.1124)" />
  <g
     id="skin"
     transform="translate(-8.5267308,-6.1124)" />
  <g
     id="skin-shadow"
     transform="translate(-8.5267308,-6.1124)" />
  <g
     id="line"
     transform="translate(-8.5267308,-6.1124)">
    <path
       fill="none"
       stroke="#000000"
       stroke-linecap="round"
       stroke-linejoin="round"
       stroke-miterlimit="10"
       stroke-width="2"
       d="m 28.2667,12.9217 c 0,0 -6.3025,0.7358 -8.1775,2.4233 -1.875,1.6875 -3.4375,7.0625 -3.4375,7.0625 l -7.1241,22.6417 -9e-4,0.0041 9e-4,-0.0303 -9e-4,0.0041 c 4.875,-1.0208 8.7083,1.8333 8.7083,1.8333 v 0.0262 l 6.0634,-19.3333 0.5143,18.9039 -4.156,13.9804 c 1.7944,1.9678 4.6915,1.352 4.6915,1.352 v 2.2188 c 10.6269,1.6752 18.3598,0.6209 22.6412,-0.3947"
       id="path3" />
    <path
       fill="none"
       stroke="#000000"
       stroke-linecap="round"
       stroke-linejoin="round"
       stroke-miterlimit="10"
       stroke-width="2"
       d="m 43.9299,12.9217 c 0,0 6.1059,1.0241 7.9809,2.7116 1.875,1.6875 3.4375,7.0625 3.4375,7.0625 l 7.1241,22.6418 9e-4,0.0041 C 57.5983,44.3209 53.765,47.175 53.765,47.175 L 47.7016,27.8417 47.1873,46.7456 51.8484,62.425"
       id="path4" />
    <path
       fill="none"
       stroke="#000000"
       stroke-linecap="round"
       stroke-linejoin="round"
       stroke-miterlimit="10"
       stroke-width="2"
       d="M 36.0952,17.5229 C 33.4044,12.634 31.161,9.6898 30.6329,8.9041 c 0,0 -1.1458,-1.7917 0.9583,-1.7917 h 4.5 0.0071 4.5 c 2.1042,0 0.9583,1.7917 0.9583,1.7917 -1.1477,1.7075 -10.3965,13.609 -14.7321,33.5106"
       id="path5" />
    <path
       fill="none"
       stroke="#000000"
       stroke-linecap="round"
       stroke-linejoin="round"
       stroke-miterlimit="10"
       stroke-width="2"
       d="M 30.9212,42.692 C 35.0424,24.8867 42.8943,14.5515 43.9299,12.9217 L 41.8151,7.6513"
       id="path6" />
    <path
       fill="none"
       stroke="#000000"
       stroke-linecap="round"
       stroke-linejoin="round"
       stroke-miterlimit="10"
       stroke-width="2"
       d="M 33.7748,22.0448 C 31.0982,16.8443 28.7951,13.7462 28.2667,12.9146"
       id="path7" />
    <line
       x1="28.266701"
       x2="30.3815"
       y1="12.9217"
       y2="7.6511998"
       fill="none"
       stroke="#000000"
       stroke-linecap="round"
       stroke-linejoin="round"
       stroke-miterlimit="10"
       stroke-width="2"
       id="line7" />
    <path
       fill="none"
       stroke="#000000"
       stroke-linecap="round"
       stroke-linejoin="round"
       stroke-miterlimit="10"
       stroke-width="2"
       d="M 47.3123,42.1536 C 37.4195,43.0672 29.5099,42.866 24.6956,42.1547"
       id="path8" />
    <path
       fill="none"
       stroke="#000000"
       stroke-linecap="round"
       stroke-linejoin="round"
       stroke-miterlimit="10"
       stroke-width="2"
       d="m 47.2005,46.2577 c -9.7712,0.8963 -17.5847,0.7032 -22.393,0.0074"
       id="path9" />
  </g>
</svg>
