<svg xmlns="http://www.w3.org/2000/svg" xmlns:svg="http://www.w3.org/2000/svg" id="emoji" width="50" height="39.667" version="1.1" viewBox="0 0 50 39.667"><g id="color" transform="translate(-11,-16)"><rect id="rect1" width="16" height="3" x="30" y="17" fill="#d22f27"/><path id="path1" fill="#d22f27" d="m 28,17 h 2 v 6 h -4 v -4 a 2,2 0 0 1 2,-2 z"/><rect id="rect2" width="25" height="3" x="24" y="25" fill="#d22f27"/><path id="path2" fill="#9b9b9a" d="m 15.0235,45.3165 43.7822,-0.014 A 5.12,5.12 0 0 1 59,47.9306 6.665,6.665 0 0 1 56,51.83 12.842,12.842 0 0 1 51.54,53.9393 c -6.4185,1.5916 -14.5788,0.9581 -22.54,0.815 -1.5659,-0.0281 -3.9957,-0.053 -7,0 A 11.7664,11.7664 0 0 1 16,51.83 c -1.9575,-1.84 -3.823,-5.0163 -2.8989,-6.1266 0.4139,-0.4976 1.2965,-0.4705 1.9224,-0.3869 z"/><path id="path3" fill="#9b9b9a" d="M 59,40 H 13 a 5.281,5.281 0 0 1 -1,-3.3854 c 0.2236,-2.9774 3.4077,-5.7207 8,-6.7707 4.2214,-0.4553 8.91,-0.7783 14,-0.8463 a 149.3349,149.3349 0 0 1 18,0.8463 c 4.98,1.5891 8.1729,4.6559 8,7.6171 A 4.6653,4.6653 0 0 1 59,40 Z"/><path id="path4" fill="#3f3f3f" d="M 47.1538,28 A 14.0551,14.0551 0 0 0 41,29.42 a 13.3317,13.3317 0 0 1 0,24.16 14.0551,14.0551 0 0 0 6.1538,1.42 13.5043,13.5043 0 1 0 0,-27 z"/><path id="path5" fill="#9b9b9a" d="M 60,42.5 A 14.3243,14.3243 0 0 0 59.7729,40 H 48.446 a 13.8981,13.8981 0 0 1 0,5 H 59.7729 A 14.3252,14.3252 0 0 0 60,42.5 Z"/></g><g id="line" transform="translate(-11,-16)"><rect id="rect5" width="4" height="7" x="26" y="17" fill="none" stroke="#000" stroke-linecap="round" stroke-linejoin="round" stroke-width="2"/><rect id="rect6" width="48" height="25.6" x="12" y="29.067" fill="none" stroke="#000" stroke-linecap="round" stroke-linejoin="round" stroke-width="2" rx="12"/><rect id="rect7" width="48" height="5" x="12" y="40" fill="none" stroke="#000" stroke-linecap="round" stroke-linejoin="round" stroke-width="2" rx="2.5"/><rect id="rect8" width="26" height="4" x="23" y="25" fill="none" stroke="#000" stroke-linecap="round" stroke-linejoin="round" stroke-width="2" rx="2"/><path id="path8" fill="none" stroke="#000" stroke-linecap="round" stroke-linejoin="round" stroke-width="2" d="M 44.5,20 H 30 v -3 h 14.5 a 1.5,1.5 0 0 1 0,3 z"/></g></svg>