<svg xmlns="http://www.w3.org/2000/svg" xmlns:svg="http://www.w3.org/2000/svg" id="emoji" width="58" height="58" version="1.1" viewBox="0 0 58 58"><g id="color" transform="translate(-7,-7)"><circle id="circle1" cx="36" cy="36" r="28" fill="#fcea2b"/></g><g id="line" transform="translate(-7,-7)"><polyline id="polyline1" fill="none" stroke="none" stroke-linecap="round" stroke-linejoin="round" stroke-width="2" points="23.111 58.006 21.594 53.799 17.319 52.488"/><polyline id="polyline2" fill="none" stroke="none" stroke-linecap="round" stroke-linejoin="round" stroke-width="2" points="27.658 51.94 25.199 48.205 20.736 47.93"/><polyline id="polyline3" fill="none" stroke="none" stroke-linecap="round" stroke-linejoin="round" stroke-width="2" points="30.692 45.113 27.415 42.069 23.014 42.864"/><polyline id="polyline4" fill="none" stroke="none" stroke-linecap="round" stroke-linejoin="round" stroke-width="2" points="31.997 37.918 28.076 35.767 24.003 37.613"/><polyline id="polyline5" fill="none" stroke="none" stroke-linecap="round" stroke-linejoin="round" stroke-width="2" points="31.295 29.888 26.963 28.777 23.475 31.576"/><polyline id="polyline6" fill="none" stroke="none" stroke-linecap="round" stroke-linejoin="round" stroke-width="2" points="28.666 21.957 24.194 21.938 21.496 25.505"/><polyline id="polyline7" fill="none" stroke="none" stroke-linecap="round" stroke-linejoin="round" stroke-width="2" points="24.457 15.353 20.109 16.399 18.336 20.505"/><polyline id="polyline8" fill="none" stroke="none" stroke-linecap="round" stroke-linejoin="round" stroke-width="2" points="49.889 58.006 51.406 53.799 55.681 52.488"/><polyline id="polyline9" fill="none" stroke="none" stroke-linecap="round" stroke-linejoin="round" stroke-width="2" points="45.342 51.94 47.801 48.205 52.264 47.93"/><polyline id="polyline10" fill="none" stroke="none" stroke-linecap="round" stroke-linejoin="round" stroke-width="2" points="42.308 45.113 45.585 42.069 49.986 42.864"/><polyline id="polyline11" fill="none" stroke="none" stroke-linecap="round" stroke-linejoin="round" stroke-width="2" points="41.003 37.918 44.924 35.767 48.997 37.613"/><polyline id="polyline12" fill="none" stroke="none" stroke-linecap="round" stroke-linejoin="round" stroke-width="2" points="41.705 29.888 46.037 28.777 49.525 31.576"/><polyline id="polyline13" fill="none" stroke="none" stroke-linecap="round" stroke-linejoin="round" stroke-width="2" points="44.334 21.957 48.806 21.938 51.504 25.505"/><polyline id="polyline14" fill="none" stroke="none" stroke-linecap="round" stroke-linejoin="round" stroke-width="2" points="48.543 15.353 52.891 16.399 54.664 20.505"/><path id="path14" fill="none" stroke="#000" stroke-linecap="round" stroke-miterlimit="10" stroke-width="2" d="m 18,14.5579 a 27.9882,27.9882 0 0 1 0,42.8842"/><path id="path15" fill="none" stroke="#000" stroke-linecap="round" stroke-miterlimit="10" stroke-width="2" d="m 54.5,14.991 a 27.98,27.98 0 0 0 0,42.018"/><polyline id="polyline15" fill="none" stroke="#000" stroke-linecap="round" stroke-linejoin="round" stroke-width="2" points="23.111 58.006 21.594 53.799 17.319 52.488"/><polyline id="polyline16" fill="none" stroke="#000" stroke-linecap="round" stroke-linejoin="round" stroke-width="2" points="27.658 51.94 25.199 48.205 20.736 47.93"/><polyline id="polyline17" fill="none" stroke="#000" stroke-linecap="round" stroke-linejoin="round" stroke-width="2" points="27.658 51.94 25.199 48.205 20.736 47.93"/><polyline id="polyline18" fill="none" stroke="#000" stroke-linecap="round" stroke-linejoin="round" stroke-width="2" points="30.692 45.113 27.415 42.069 23.014 42.864"/><polyline id="polyline19" fill="none" stroke="#000" stroke-linecap="round" stroke-linejoin="round" stroke-width="2" points="31.997 37.918 28.076 35.767 24.003 37.613"/><polyline id="polyline20" fill="none" stroke="#000" stroke-linecap="round" stroke-linejoin="round" stroke-width="2" points="31.295 29.888 26.963 28.777 23.475 31.576"/><polyline id="polyline21" fill="none" stroke="#000" stroke-linecap="round" stroke-linejoin="round" stroke-width="2" points="28.666 21.957 24.194 21.938 21.496 25.505"/><polyline id="polyline22" fill="none" stroke="#000" stroke-linecap="round" stroke-linejoin="round" stroke-width="2" points="24.457 15.353 20.109 16.399 18.336 20.505"/><polyline id="polyline23" fill="none" stroke="#000" stroke-linecap="round" stroke-linejoin="round" stroke-width="2" points="49.889 58.006 51.406 53.799 55.681 52.488"/><polyline id="polyline24" fill="none" stroke="#000" stroke-linecap="round" stroke-linejoin="round" stroke-width="2" points="45.342 51.94 47.801 48.205 52.264 47.93"/><polyline id="polyline25" fill="none" stroke="#000" stroke-linecap="round" stroke-linejoin="round" stroke-width="2" points="42.308 45.113 45.585 42.069 49.986 42.864"/><polyline id="polyline26" fill="none" stroke="#000" stroke-linecap="round" stroke-linejoin="round" stroke-width="2" points="41.003 37.918 44.924 35.767 48.997 37.613"/><polyline id="polyline27" fill="none" stroke="#000" stroke-linecap="round" stroke-linejoin="round" stroke-width="2" points="41.705 29.888 46.037 28.777 49.525 31.576"/><polyline id="polyline28" fill="none" stroke="#000" stroke-linecap="round" stroke-linejoin="round" stroke-width="2" points="44.334 21.957 48.806 21.938 51.504 25.505"/><polyline id="polyline29" fill="none" stroke="#000" stroke-linecap="round" stroke-linejoin="round" stroke-width="2" points="48.543 15.353 52.891 16.399 54.664 20.505"/><circle id="circle29" cx="36" cy="36" r="28" fill="none" stroke="#000" stroke-miterlimit="10" stroke-width="2"/></g><g id="color-foreground" transform="translate(-7,-7)"><polyline id="polyline30" fill="none" stroke="#d22f27" stroke-linecap="round" stroke-linejoin="round" stroke-width="2" points="23.111 58.006 21.594 53.799 17.319 52.488"/><polyline id="polyline31" fill="none" stroke="#d22f27" stroke-linecap="round" stroke-linejoin="round" stroke-width="2" points="27.658 51.94 25.199 48.205 20.736 47.93"/><polyline id="polyline32" fill="none" stroke="#d22f27" stroke-linecap="round" stroke-linejoin="round" stroke-width="2" points="30.692 45.113 27.415 42.069 23.014 42.864"/><polyline id="polyline33" fill="none" stroke="#d22f27" stroke-linecap="round" stroke-linejoin="round" stroke-width="2" points="31.997 37.918 28.076 35.767 24.003 37.613"/><polyline id="polyline34" fill="none" stroke="#d22f27" stroke-linecap="round" stroke-linejoin="round" stroke-width="2" points="31.295 29.888 26.963 28.777 23.475 31.576"/><polyline id="polyline35" fill="none" stroke="#d22f27" stroke-linecap="round" stroke-linejoin="round" stroke-width="2" points="28.666 21.957 24.194 21.938 21.496 25.505"/><polyline id="polyline36" fill="none" stroke="#d22f27" stroke-linecap="round" stroke-linejoin="round" stroke-width="2" points="24.457 15.353 20.109 16.399 18.336 20.505"/><polyline id="polyline37" fill="none" stroke="#d22f27" stroke-linecap="round" stroke-linejoin="round" stroke-width="2" points="49.889 58.006 51.406 53.799 55.681 52.488"/><polyline id="polyline38" fill="none" stroke="#d22f27" stroke-linecap="round" stroke-linejoin="round" stroke-width="2" points="45.342 51.94 47.801 48.205 52.264 47.93"/><polyline id="polyline39" fill="none" stroke="#d22f27" stroke-linecap="round" stroke-linejoin="round" stroke-width="2" points="42.308 45.113 45.585 42.069 49.986 42.864"/><polyline id="polyline40" fill="none" stroke="#d22f27" stroke-linecap="round" stroke-linejoin="round" stroke-width="2" points="41.003 37.918 44.924 35.767 48.997 37.613"/><polyline id="polyline41" fill="none" stroke="#d22f27" stroke-linecap="round" stroke-linejoin="round" stroke-width="2" points="41.705 29.888 46.037 28.777 49.525 31.576"/><polyline id="polyline42" fill="none" stroke="#d22f27" stroke-linecap="round" stroke-linejoin="round" stroke-width="2" points="44.334 21.957 48.806 21.938 51.504 25.505"/><polyline id="polyline43" fill="none" stroke="#d22f27" stroke-linecap="round" stroke-linejoin="round" stroke-width="2" points="48.543 15.353 52.891 16.399 54.664 20.505"/></g></svg>