<svg xmlns="http://www.w3.org/2000/svg" xmlns:svg="http://www.w3.org/2000/svg" id="emoji" width="48" height="65.986" version="1.1" viewBox="0 0 48 65.986"><g id="color" transform="translate(-12,-2.9883001)"><polyline id="polyline1" fill="#fcea2b" stroke="none" points="28.057 22.427 28.057 17 43.915 17 43.915 22.427"/><polyline id="polyline2" fill="#92d3f5" stroke="#92d3f5" stroke-linecap="round" stroke-linejoin="round" stroke-miterlimit="10" stroke-width="1.8" points="54.999 4.022 43 16.021 36 16.021 30.958 10.979 37.921 4.017 54.999 4.017"/><polyline id="polyline3" fill="#ea5a47" stroke="#ea5a47" stroke-linecap="round" stroke-linejoin="round" stroke-miterlimit="10" stroke-width="1.8" points="23.983 4.004 36 16.021 29 16.021 16.968 3.988 23.983 3.988"/><circle id="circle3" cx="36" cy="44.975" r="23" fill="#fcea2b" stroke="none" stroke-linecap="round" stroke-linejoin="round" stroke-miterlimit="10" stroke-width="2"/></g><g id="line" transform="translate(-12,-2.9883001)"><circle id="circle4" cx="36" cy="44.975" r="23" fill="none" stroke="#000" stroke-miterlimit="10" stroke-width="2"/><circle id="circle5" cx="36" cy="44.975" r="23" fill="none" stroke="#000" stroke-linecap="round" stroke-linejoin="round" stroke-miterlimit="10" stroke-width="2"/><line id="line5" x1="29" x2="29" y1="19" y2="16.021" fill="none" stroke="#000" stroke-linecap="round" stroke-linejoin="round" stroke-miterlimit="10" stroke-width="2"/><line id="line6" x1="43" x2="43" y1="19" y2="16.021" fill="none" stroke="#000" stroke-linecap="round" stroke-linejoin="round" stroke-miterlimit="10" stroke-width="2"/><line id="line7" x1="29" x2="43" y1="16.021" y2="16.021" fill="none" stroke="#000" stroke-linecap="round" stroke-linejoin="round" stroke-miterlimit="10" stroke-width="2"/><line id="line8" x1="25.99" x2="16.968" y1="13.01" y2="3.988" fill="none" stroke="#000" stroke-linecap="round" stroke-linejoin="round" stroke-miterlimit="10" stroke-width="2"/><line id="line9" x1="31.99" x2="23.983" y1="12.01" y2="4.004" fill="none" stroke="#000" stroke-linecap="round" stroke-linejoin="round" stroke-miterlimit="10" stroke-width="2"/><line id="line10" x1="34" x2="37.921" y1="8" y2="4.017" fill="none" stroke="#000" stroke-linecap="round" stroke-linejoin="round" stroke-miterlimit="10" stroke-width="2"/><line id="line11" x1="46" x2="54.999" y1="13" y2="4.022" fill="none" stroke="#000" stroke-linecap="round" stroke-linejoin="round" stroke-miterlimit="10" stroke-width="2"/><line id="line12" x1="16.968" x2="23.983" y1="3.988" y2="3.988" fill="none" stroke="#000" stroke-linecap="round" stroke-linejoin="round" stroke-miterlimit="10" stroke-width="2"/><line id="line13" x1="37.921" x2="54.999" y1="4.017" y2="4.017" fill="none" stroke="#000" stroke-linecap="round" stroke-linejoin="round" stroke-miterlimit="10" stroke-width="2"/><polyline id="polyline13" fill="none" stroke="#000" stroke-linecap="round" stroke-linejoin="round" stroke-miterlimit="10" stroke-width="2" points="30.359 37.392 37.557 32 37.557 58"/></g></svg>