<svg xmlns="http://www.w3.org/2000/svg" xmlns:svg="http://www.w3.org/2000/svg" id="emoji" width="45.357" height="51.863" version="1.1" viewBox="0 0 45.357 51.863"><g id="color" transform="translate(-14.69775,-10.045623)"><path id="path1" fill="#f4aa41" stroke="#f4aa41" stroke-linecap="round" stroke-linejoin="round" stroke-miterlimit="10" stroke-width="2" d="m 43.8744,19.1062 c -2.3448,0.8863 -5.1547,3.1861 -7.338,6.2834 L 18.5417,50.9171 c -6.5373,9.2739 -0.804,13.9743 7.0082,5.7457 l 21.504,-22.6504 c 4.2279,-4.4533 6.0798,-10.1092 3.8963,-11.8994 l -3.5093,-2.8771 c -0.836,-0.6854 -2.1117,-0.6796 -3.5665,-0.1297"/><path id="path2" fill="#d22f27" stroke="#d22f27" stroke-linejoin="round" stroke-miterlimit="10" stroke-width="2" d="m 51.735,23.36 c -0.13,-0.46 -0.34,-0.85 -0.66,-1.14"/><path id="path3" fill="#e27022" stroke="#e27022" stroke-linecap="round" stroke-linejoin="round" stroke-width="2" d="m 51.695,26 c -0.1,0.46 -0.24,0.94 -0.42,1.44 -0.05,0.15 -0.11,0.31 -0.1801,0.46 -0.06,0.17 -0.1299,0.34 -0.21,0.5 -0.09,0.21 -0.19,0.41 -0.29,0.62 -0.43,0.86 -0.96,1.75 -1.59,2.6201 -0.12,0.18 -0.25,0.35 -0.39,0.53 -0.13,0.18 -0.28,0.37 -0.42,0.55 -0.36,0.44 -0.74,0.87 -1.14,1.29 l -21.51,22.65 c -3.66,3.86 -6.86,4.87 -8.56,3.9 6.4143,0.1209 35.7538,-37.3765 34.09,-40.16 1e-4,-10e-5 1.3313,3.8811 0.6201,5.5999 z"/><path id="path4" fill="#b1cc33" stroke="#b1cc33" stroke-linejoin="round" stroke-miterlimit="10" stroke-width="2" d="m 48.3844,13.6361 c 0.926,-1.558 2.003,-2.5905 2.003,-2.5905 0,0 1.8608,1.0058 1.8355,3.6491 2.357,-2.2668 4.8651,-2.6375 4.8651,-2.6375 0,0 -0.0095,2.5317 -1.913,5.1908 0.6025,-0.094 1.1372,-0.0757 1.5959,0.0135 1.5347,0.2795 2.2838,1.2805 2.2838,1.2805 0,0 -2.2545,3.1413 -5.3876,4.0649 -0.6449,0.194 -1.2192,0.2554 -1.7259,0.2386 -1.9705,-0.0642 -5.2636,-2.639 -4.804,-5.8863 0.1736,-1.2266 0.6823,-2.3726 1.2472,-3.3231"/><path id="path5" fill="#5c9e31" stroke="none" d="m 59.05,18.54 c 0,0 -2.25,3.14 -5.38,4.07 -0.65,0.19 -1.22,0.25 -1.73,0.24 -0.92,-0.04 -2.14,-0.62 -3.11,-1.56 l 8.26,-9.23 c 0,0 -0.01,2.53 -1.92,5.19 0.61,-0.1 1.14,-0.08 1.6,0.01 1.54,0.28 2.28,1.28 2.28,1.28 z"/></g><g id="line" transform="translate(-14.69775,-10.045623)"><path id="path6" fill="none" stroke="#000" stroke-linecap="round" stroke-linejoin="round" stroke-miterlimit="10" stroke-width="2" d="m 42.2577,19.8977 c -1.9435,1.1541 -4.0222,3.0815 -5.7213,5.4919 L 18.5417,50.9171 c -6.5373,9.2739 -0.804,13.9743 7.0082,5.7457 l 21.504,-22.6504 c 1.9941,-2.1004 3.4596,-4.4682 4.2225,-6.5719"/><path id="path7" fill="none" stroke="#000" stroke-linejoin="round" stroke-miterlimit="10" stroke-width="2" d="m 48.3844,13.6361 c 0.926,-1.558 2.003,-2.5905 2.003,-2.5905 0,0 1.8608,1.0058 1.8355,3.6491 2.357,-2.2668 4.8651,-2.6375 4.8651,-2.6375 0,0 -0.0095,2.5317 -1.913,5.1908 0.6025,-0.094 1.1372,-0.0757 1.5959,0.0135 1.5347,0.2795 2.2838,1.2805 2.2838,1.2805 0,0 -2.2545,3.1413 -5.3876,4.0649 -0.6449,0.194 -1.2192,0.2554 -1.7259,0.2386 -1.9705,-0.0642 -5.2636,-2.639 -4.804,-5.8863 0.1736,-1.2266 0.6823,-2.3726 1.2472,-3.3231"/></g></svg>