<svg xmlns="http://www.w3.org/2000/svg" xmlns:svg="http://www.w3.org/2000/svg" id="emoji" width="50.718" height="50.088" version="1.1" viewBox="0 0 50.718 50.088"><g id="color" transform="translate(-10.617651,-10.906447)"><path id="path1" fill="#b1cc33" d="m 17.3164,60.9941 a 6.4958,6.4958 0 0 1 -1.9531,-0.291 6.72,6.72 0 0 1 -4.4815,-8.289 9.829,9.829 0 0 1 2.8565,-5.1621 c 2.56,-2.34 5.126,-4.5723 7.8418,-6.9356 l 0.7373,-0.6416 c -10e-4,-0.0215 -10e-4,-0.042 -10e-4,-0.0635 a 2.7982,2.7982 0 0 1 2.7949,-2.7949 2.8522,2.8522 0 0 1 0.42,0.0313 c 1.1591,-1.0645 3.791,-3.545 7.0127,-6.9761 a 2.7642,2.7642 0 0 1 -0.1133,-0.7857 2.7969,2.7969 0 0 1 2.7939,-2.7944 2.676,2.676 0 0 1 0.5225,0.0513 c 1.7568,-2.0025 3.3984,-3.9927 4.8867,-5.9243 l 0.7217,-0.7959 c 3.167,-3.4756 6.7558,-7.4151 11.7412,-8.5347 a 6.3777,6.3777 0 0 1 5.2392,1.0221 6.4488,6.4488 0 0 1 2.33,4.8564 14.6784,14.6784 0 0 1 -0.19,2.7808 2.7875,2.7875 0 0 1 -1.4873,4.7656 c -0.2568,0.5566 -0.54,1.1147 -0.8467,1.6694 a 2.7867,2.7867 0 0 1 -2.3867,4.2388 2.6466,2.6466 0 0 1 -0.3789,-0.0269 c -0.8565,1.1573 -1.7471,2.28 -2.6123,3.37 -0.3643,0.459 -0.7256,0.9141 -1.0791,1.3653 -2.6651,3.09 -5.3477,5.9941 -8.0088,8.6738 a 2.7563,2.7563 0 0 1 0.0566,0.5518 2.7982,2.7982 0 0 1 -2.7952,2.795 2.6772,2.6772 0 0 1 -0.625,-0.0733 q -0.9463,0.8892 -1.918,1.7647 a 2.7509,2.7509 0 0 1 0.02,0.3359 2.7965,2.7965 0 0 1 -2.7939,2.794 2.7352,2.7352 0 0 1 -0.7471,-0.1055 c -5.9873,4.8965 -11.2763,7.8936 -15.7265,8.9111 a 8.1947,8.1947 0 0 1 -1.8306,0.2172 z"/><path id="path2" fill="#5c9e31" d="m 58.55,27.627 a 2.7771,2.7771 0 0 0 -0.4082,-1.4444 c 0.3066,-0.5547 0.59,-1.1128 0.8467,-1.6694 a 2.7875,2.7875 0 0 0 1.4873,-4.7656 14.6784,14.6784 0 0 0 0.19,-2.7808 6.4488,6.4488 0 0 0 -2.33,-4.8564 5.3966,5.3966 0 0 0 -1.0422,-0.6266 c 0.0754,0.1037 3.9138,5.5355 -9.1477,20.4691 -6.3694,7.2821 -28.58,29.626 -34.4487,25.3333 a 6.1754,6.1754 0 0 0 0.7818,2.489 l 2.7475,1.2124 c 0.03,0 0.0593,0.0065 0.09,0.0065 a 8.1947,8.1947 0 0 0 1.8311,-0.2168 c 4.45,-1.0175 9.7392,-4.0146 15.7265,-8.9111 a 2.7352,2.7352 0 0 0 0.7471,0.1055 2.7965,2.7965 0 0 0 2.7939,-2.794 2.7509,2.7509 0 0 0 -0.02,-0.3359 q 0.9727,-0.873 1.918,-1.7647 a 2.6772,2.6772 0 0 0 0.625,0.0733 2.7982,2.7982 0 0 0 2.7949,-2.7949 2.7563,2.7563 0 0 0 -0.0566,-0.5518 c 2.6611,-2.68 5.3437,-5.584 8.0088,-8.6738 0.3535,-0.4512 0.7148,-0.9063 1.0791,-1.3653 0.8652,-1.09 1.7558,-2.2128 2.6123,-3.37 a 2.6466,2.6466 0 0 0 0.3789,0.0269 2.7978,2.7978 0 0 0 2.7945,-2.7945 z"/></g><g id="line" transform="translate(-10.617651,-10.906447)"><path id="path3" fill="none" stroke="#000" stroke-linecap="round" stroke-linejoin="round" stroke-width="2" d="m 59.3817,20.1784 a 14.0723,14.0723 0 0 0 0.2861,-3.153 c -0.2129,-3.6418 -2.8083,-5.6666 -6.3528,-4.9621 -5.0126,1.1263 -8.5724,5.3478 -11.8889,8.9653 -1.7863,2.3186 -3.6149,4.4943 -5.37,6.4761 a 1.774,1.774 0 0 0 -0.8312,-0.213 1.7918,1.7918 0 0 0 -1.4982,2.7783 c -3.8474,4.1362 -6.983,7.0326 -7.9256,7.8849 a 1.7781,1.7781 0 0 0 -2.4172,2.1169 c -3.0591,2.6638 -6.0539,5.2525 -8.971,7.918 a 8.9163,8.9163 0 0 0 -2.5578,4.6512 5.7534,5.7534 0 0 0 3.8075,7.1076 6.2525,6.2525 0 0 0 3.2625,0.0534 c 4.9681,-1.1362 10.5263,-4.7363 15.7778,-9.0908 A 1.7886,1.7886 0 0 0 37.28,48.4974 c 0.9511,-0.8459 1.8851,-1.7076 2.7989,-2.5752 a 1.7742,1.7742 0 0 0 0.8587,0.228 1.7947,1.7947 0 0 0 1.7947,-1.7945 1.7727,1.7727 0 0 0 -0.2053,-0.8165 c 3.2693,-3.2648 6.1616,-6.4663 8.3707,-9.0259 1.3274,-1.6954 2.763,-3.4441 4.0835,-5.2739 a 1.7865,1.7865 0 0 0 1.951,-2.957 23.9246,23.9246 0 0 0 1.3989,-2.7547 1.784,1.784 0 0 0 1.05,-3.3493 z"/></g></svg>