<?xml version="1.0" encoding="UTF-8" standalone="no"?>
<svg
   id="emoji"
   viewBox="0 0 55.986271 55.988056"
   version="1.1"
   sodipodi:docname="1f956.svg"
   width="55.986271"
   height="55.988056"
   xmlns:inkscape="http://www.inkscape.org/namespaces/inkscape"
   xmlns:sodipodi="http://sodipodi.sourceforge.net/DTD/sodipodi-0.dtd"
   xmlns="http://www.w3.org/2000/svg"
   xmlns:svg="http://www.w3.org/2000/svg">
  <defs
     id="defs6" />
  <sodipodi:namedview
     id="namedview6"
     pagecolor="#ffffff"
     bordercolor="#000000"
     borderopacity="0.25"
     inkscape:showpageshadow="2"
     inkscape:pageopacity="0.0"
     inkscape:pagecheckerboard="0"
     inkscape:deskcolor="#d1d1d1" />
  <g
     id="color"
     transform="translate(-8.0079883,-8.0062051)">
    <path
       fill="#f4aa41"
       stroke="none"
       d="m 11.9307,45.9297 c -3.9043,3.9043 -3.9063,10.2363 0,14.1416 3.9043,3.9053 10.2382,3.9053 14.1425,10e-4 l 33.9991,-34.001 c 3.9043,-3.9063 3.9043,-10.2373 0,-14.1416 C 56.166,8.0234 49.835,8.0234 45.9297,11.9287 Z"
       id="path1" />
  </g>
  <g
     id="hair"
     transform="translate(-8.0079883,-8.0062051)" />
  <g
     id="skin"
     transform="translate(-8.0079883,-8.0062051)" />
  <g
     id="skin-shadow"
     transform="translate(-8.0079883,-8.0062051)" />
  <g
     id="line"
     transform="translate(-8.0079883,-8.0062051)">
    <path
       fill="none"
       stroke="#000000"
       stroke-linecap="round"
       stroke-linejoin="round"
       stroke-miterlimit="10"
       stroke-width="2"
       d="m 11.9307,45.9297 c -3.9043,3.9043 -3.9063,10.2363 0,14.1416 3.9043,3.9053 10.2382,3.9053 14.1425,10e-4 l 33.9991,-34.001 c 3.9043,-3.9063 3.9043,-10.2373 0,-14.1416 C 56.166,8.0234 49.835,8.0234 45.9297,11.9287 Z"
       id="path2" />
    <path
       fill="none"
       stroke="#000000"
       stroke-linecap="round"
       stroke-linejoin="round"
       stroke-miterlimit="10"
       stroke-width="2"
       d="m 45.9297,11.9287 c -3.9043,3.9053 -3.9043,10.2373 0,14.1426"
       id="path3" />
    <path
       fill="none"
       stroke="#000000"
       stroke-linecap="round"
       stroke-linejoin="round"
       stroke-miterlimit="10"
       stroke-width="2"
       d="m 37.4297,20.4287 c -3.9043,3.9053 -3.9043,10.2373 0,14.1426"
       id="path4" />
    <path
       fill="none"
       stroke="#000000"
       stroke-linecap="round"
       stroke-linejoin="round"
       stroke-miterlimit="10"
       stroke-width="2"
       d="m 28.9297,28.9287 c -3.9033,3.9063 -3.9033,10.2383 0,14.1426"
       id="path5" />
    <path
       fill="none"
       stroke="#000000"
       stroke-linecap="round"
       stroke-linejoin="round"
       stroke-miterlimit="10"
       stroke-width="2"
       d="m 20.4307,37.4297 c -3.9043,3.9053 -3.9043,10.2373 0,14.1426"
       id="path6" />
  </g>
</svg>
