<svg xmlns="http://www.w3.org/2000/svg" xmlns:svg="http://www.w3.org/2000/svg" id="emoji" width="45.677" height="63.992" version="1.1" viewBox="0 0 45.677 63.992"><g id="color" transform="translate(-13.159097,-4.0015855)"><path id="path1" fill="none" stroke="#fff" stroke-linecap="round" stroke-miterlimit="10" stroke-width="2" d="m 47.5822,25.0317 c 0,0 -2.9145,0.1995 -3.4722,4.5683 -0.5577,4.3688 -4.09,4.5548 -5.2984,4.6477 -1.2084,0.0929 -4.1829,0.6507 -4.8336,6.135 -0.6507,5.4843 -3.7182,3.5323 -4.3689,3.6252"/><path id="path2" fill="#ea5a47" d="m 14.2412,39.418 c -0.2002,0.6806 -0.042,1.4443 0.4942,1.9795 l 3.6943,3.7011 c 0.7803,0.7813 2.0469,0.7813 2.8281,0 l 1.4912,-1.5058 c 0.9053,-0.9043 2.1543,-1.4639 3.5371,-1.4639 2.7608,10e-4 5,-2.2383 5,-5 -9e-4,-2.7627 2.2383,-5.001 5,-5 2.7618,0 5,-2.2393 5,-5.001 -9e-4,-2.7617 2.2383,-5 5,-5 2.7617,0 5,-2.2383 5,-4.999 0,-1.3818 0.5596,-2.6328 1.4649,-3.5371 l 1.5058,-1.4922 c 0.7813,-0.7803 0.7813,-2.0469 0,-2.8281 L 50.5557,5.5781 C 50.0166,5.04 49.251,4.8818 48.5693,5.0859 c -2.4687,0.3047 -4.3877,2.3868 -4.3877,4.9375 10e-4,2.7627 -2.2373,5.001 -5,5 -2.7617,0 -5.0009,2.2393 -5,5.001 10e-4,2.7617 -2.2382,5 -5.0009,5 -2.7608,0 -5,2.2383 -5,5 9e-4,2.7617 -2.2383,5.001 -5,5 -2.5528,0 -4.6368,1.9219 -4.9395,4.3936 z"/><path id="path3" fill="#ea5a47" d="m 17.2412,60.7334 c -0.2002,0.6797 -0.042,1.4434 0.4942,1.9795 l 3.6943,3.7012 c 0.7803,0.7812 2.0469,0.7812 2.8281,0 l 1.4912,-1.5059 c 0.9053,-0.9053 2.1543,-1.4639 3.5371,-1.4639 2.7608,0 5,-2.2382 5,-5 -9e-4,-2.7627 2.2383,-5.0009 5,-5 2.7618,0 5,-2.2392 5,-5.0009 -9e-4,-2.7618 2.2383,-5 5,-5 2.7617,0 5,-2.2383 5,-5 0,-1.3809 0.5596,-2.6319 1.4649,-3.5362 l 1.5058,-1.4922 c 0.7813,-0.7802 0.7813,-2.0468 0,-2.8281 l -3.7011,-3.6933 c -0.5391,-0.5381 -1.3047,-0.6963 -1.9864,-0.4932 -2.4687,0.3057 -4.3877,2.3867 -4.3877,4.9385 10e-4,2.7627 -2.2373,5.0009 -5,5 -2.7617,0 -5.0009,2.2392 -5,5 10e-4,2.7627 -2.2382,5.0009 -5.0009,5.0009 -2.7608,-9e-4 -5,2.2383 -5,5 9e-4,2.7618 -2.2383,5.001 -5,5 -2.5528,0 -4.6368,1.9219 -4.9395,4.3936 z"/></g><g id="line" transform="translate(-13.159097,-4.0015855)"><path id="path4" fill="none" stroke="#000" stroke-linecap="round" stroke-linejoin="round" stroke-width="2" d="m 47.7334,13.5762 c 0,2.7617 -2.2383,5 -5,5 -2.7617,-0.001 -5,2.2383 -5,5 0,2.7617 -2.2383,5.0009 -5,5.0009 -2.7617,-0.0019 -5,2.2374 -5,5 0,2.7626 -2.2383,5 -5,5"/><path id="path5" fill="none" stroke="#000" stroke-linecap="round" stroke-linejoin="round" stroke-width="2" d="m 14.2412,39.418 c -0.2002,0.6806 -0.042,1.4443 0.4942,1.9795 l 3.6943,3.7011 c 0.7803,0.7813 2.0469,0.7813 2.8281,0 l 1.4912,-1.5058 c 0.9053,-0.9043 2.1543,-1.4639 3.5371,-1.4639 2.7608,10e-4 5,-2.2383 5,-5 -9e-4,-2.7627 2.2383,-5.001 5,-5 2.7618,0 5,-2.2393 5,-5.001 -9e-4,-2.7617 2.2383,-5 5,-5 2.7617,0 5,-2.2383 5,-4.999 0,-1.3818 0.5596,-2.6328 1.4649,-3.5371 l 1.5058,-1.4922 c 0.7813,-0.7803 0.7813,-2.0469 0,-2.8281 L 50.5557,5.5781 C 50.0166,5.04 49.251,4.8818 48.5693,5.0859 c -2.4687,0.3047 -4.3877,2.3868 -4.3877,4.9375 10e-4,2.7627 -2.2373,5.001 -5,5 -2.7617,0 -5.0009,2.2393 -5,5.001 10e-4,2.7617 -2.2382,5 -5.0009,5 -2.7608,0 -5,2.2383 -5,5 9e-4,2.7617 -2.2383,5.001 -5,5 -2.5528,0 -4.6368,1.9219 -4.9395,4.3936 z"/><path id="path6" fill="none" stroke="#000" stroke-linecap="round" stroke-linejoin="round" stroke-width="2" d="m 50.7334,34.8916 c 0,2.7617 -2.2383,5 -5,5 -2.7617,-10e-4 -5,2.2383 -5,5 0,2.7617 -2.2383,5 -5,5 -2.7617,-10e-4 -5,2.2383 -5,5 0,2.7617 -2.2383,5.001 -5,5"/><path id="path7" fill="none" stroke="#000" stroke-linecap="round" stroke-linejoin="round" stroke-width="2" d="m 17.2412,60.7334 c -0.2002,0.6797 -0.042,1.4434 0.4942,1.9795 l 3.6943,3.7012 c 0.7803,0.7812 2.0469,0.7812 2.8281,0 l 1.4912,-1.5059 c 0.9053,-0.9053 2.1543,-1.4639 3.5371,-1.4639 2.7608,0 5,-2.2382 5,-5 -9e-4,-2.7627 2.2383,-5.0009 5,-5 2.7618,0 5,-2.2392 5,-5.0009 -9e-4,-2.7618 2.2383,-5 5,-5 2.7617,0 5,-2.2383 5,-5 0,-1.3809 0.5596,-2.6319 1.4649,-3.5362 l 1.5058,-1.4922 c 0.7813,-0.7802 0.7813,-2.0468 0,-2.8281 l -3.7011,-3.6933 c -0.5391,-0.5381 -1.3047,-0.6963 -1.9864,-0.4932 -2.4687,0.3057 -4.3877,2.3867 -4.3877,4.9385 10e-4,2.7627 -2.2373,5.0009 -5,5 -2.7617,0 -5.0009,2.2392 -5,5 10e-4,2.7627 -2.2382,5.0009 -5.0009,5.0009 -2.7608,-9e-4 -5,2.2383 -5,5 9e-4,2.7618 -2.2383,5.001 -5,5 -2.5528,0 -4.6368,1.9219 -4.9395,4.3936 z"/></g></svg>