<?xml version="1.0" encoding="UTF-8" standalone="no"?>
<svg
   id="emoji"
   viewBox="0 0 60 54.200474"
   version="1.1"
   sodipodi:docname="1f957.svg"
   width="60"
   height="54.200474"
   xmlns:inkscape="http://www.inkscape.org/namespaces/inkscape"
   xmlns:sodipodi="http://sodipodi.sourceforge.net/DTD/sodipodi-0.dtd"
   xmlns="http://www.w3.org/2000/svg"
   xmlns:svg="http://www.w3.org/2000/svg">
  <defs
     id="defs9" />
  <sodipodi:namedview
     id="namedview9"
     pagecolor="#ffffff"
     bordercolor="#000000"
     borderopacity="0.25"
     inkscape:showpageshadow="2"
     inkscape:pageopacity="0.0"
     inkscape:pagecheckerboard="0"
     inkscape:deskcolor="#d1d1d1" />
  <g
     id="color"
     transform="translate(-6,-10.799513)">
    <path
       fill="#b1cc33"
       stroke="#b1cc33"
       stroke-miterlimit="10"
       stroke-width="2"
       d="m 57.4,40.6 5,-0.8 -0.3,-1 a 2.948,2.948 0 0 0 2.1,-3.7 3.0871,3.0871 0 0 0 -1.7,-2 5.0751,5.0751 0 0 0 1.2637,-3.1343 A 4.9061,4.9061 0 0 0 63.1,27.3 5.0971,5.0971 0 0 0 57.4,25 a 2.9614,2.9614 0 0 0 -3.3,-3.7 4.9778,4.9778 0 0 0 -8.5,-4.4 3.1021,3.1021 0 0 0 -2.1,-2.2 3.4405,3.4405 0 0 0 -2.6,0.5 4.9559,4.9559 0 0 0 -4.7,-3.4 4.8455,4.8455 0 0 0 -4.8,3.8 2.8031,2.8031 0 0 0 -2.9,-0.8 3.0871,3.0871 0 0 0 -2,1.7 4.9736,4.9736 0 0 0 -5.8,-0.6 5.0971,5.0971 0 0 0 -2.3,5.7 2.9614,2.9614 0 0 0 -3.7,3.3 4.9778,4.9778 0 0 0 -4.4,8.5 2.99,2.99 0 0 0 -0.1,5.8 v 1 l 3.1,0.7"
       id="path1" />
    <circle
       cx="21.697201"
       cy="34.300201"
       r="5.9998002"
       fill="#ea5a47"
       id="circle1" />
    <circle
       cx="36.697201"
       cy="33.300201"
       r="5.9998002"
       fill="#ea5a47"
       id="circle2" />
    <circle
       cx="51.697201"
       cy="33.300201"
       r="5.9998002"
       fill="#ea5a47"
       id="circle3" />
    <path
       fill="#ffffff"
       d="M 65,35 A 29,29 0 0 1 7,35 Z"
       id="path3" />
    <path
       fill="#d0cfce"
       d="M 49,35 C 49,51 45,64 36,64 A 29.0208,29.0208 0 0 0 65,35 Z"
       id="path4" />
  </g>
  <g
     id="line"
     transform="translate(-6,-10.799513)">
    <path
       fill="none"
       stroke="#000000"
       stroke-linecap="round"
       stroke-linejoin="round"
       stroke-width="2"
       d="m 50.2693,28.2022 a 5.1615,5.1615 0 0 1 2.9807,0.0393 5.83,5.83 0 0 1 2.56,1.689"
       id="path5" />
    <path
       fill="none"
       stroke="#000000"
       stroke-linecap="round"
       stroke-linejoin="round"
       stroke-width="2"
       d="m 33.2771,29.2289 a 5.8288,5.8288 0 0 1 2.8281,-1.1871 5.16,5.16 0 0 1 2.9367,0.5118"
       id="path6" />
    <path
       fill="none"
       stroke="#000000"
       stroke-linecap="round"
       stroke-linejoin="round"
       stroke-width="2"
       d="m 17.5841,30.9305 a 5.8307,5.8307 0 0 1 2.56,-1.689 5.1611,5.1611 0 0 1 2.9806,-0.0393"
       id="path7" />
    <path
       fill="none"
       stroke="#000000"
       stroke-linecap="round"
       stroke-linejoin="round"
       stroke-width="2"
       d="M 63.6508,30.9359 A 4.9051,4.9051 0 0 0 63.1,27.4 5.0971,5.0971 0 0 0 57.4,25.1 2.9614,2.9614 0 0 0 54.1,21.4 4.9778,4.9778 0 0 0 45.6,17 a 3.1021,3.1021 0 0 0 -2.1,-2.2 3.4405,3.4405 0 0 0 -2.6,0.5 4.9559,4.9559 0 0 0 -4.7,-3.4 4.8455,4.8455 0 0 0 -4.8,3.8 2.8031,2.8031 0 0 0 -2.9,-0.8 3.0871,3.0871 0 0 0 -2,1.7 4.9736,4.9736 0 0 0 -5.8,-0.6 5.0971,5.0971 0 0 0 -2.3,5.7 2.9614,2.9614 0 0 0 -3.7,3.3 5.0362,5.0362 0 0 0 -5.3,2.4 4.7548,4.7548 0 0 0 -0.6441,2.8857"
       id="path8" />
    <path
       fill="none"
       stroke="#000000"
       stroke-linecap="round"
       stroke-linejoin="round"
       stroke-width="2"
       d="M 65,35 A 29,29 0 0 1 7,35 Z"
       id="path9" />
  </g>
</svg>
