<svg xmlns="http://www.w3.org/2000/svg" xmlns:svg="http://www.w3.org/2000/svg" id="emoji" width="52.025" height="52.025" version="1.1" viewBox="0 0 52.025 52.025"><g id="color" transform="translate(-10.125,-9.75)"><circle id="circle1" cx="36.138" cy="35.763" r="25.013" fill="#5c9e31" stroke="none" stroke-linecap="round" stroke-linejoin="round" stroke-miterlimit="10" stroke-width="2"/><path id="path1" fill="#b1cc33" stroke="none" stroke-linecap="round" stroke-linejoin="round" stroke-miterlimit="10" stroke-width="2" d="m 37.3152,26.3316 2.3679,-2.1883 c 1.156,-1.0683 3.0228,-0.1693 2.9083,1.4006 l -0.2345,3.2157 c -0.0658,0.9029 0.5736,1.7048 1.4686,1.8415 l 3.1872,0.4869 c 1.5559,0.2377 2.017,2.2578 0.7183,3.147 l -2.6603,1.8216 c -0.747,0.5115 -0.9752,1.5114 -0.5241,2.2963 l 1.6065,2.7955 c 0.7843,1.3647 -0.5076,2.9846 -2.0126,2.5237 l -3.0829,-0.9442 c -0.8657,-0.2651 -1.7897,0.1799 -2.1221,1.022 l -1.184,2.999 c -0.578,1.464 -2.65,1.464 -3.228,0 l -1.184,-2.999 c -0.3324,-0.8421 -1.2565,-1.2871 -2.1221,-1.022 l -3.0829,0.9442 c -1.505,0.4609 -2.7969,-1.159 -2.0126,-2.5237 l 1.6065,-2.7955 c 0.4511,-0.785 0.2229,-1.7848 -0.5241,-2.2963 L 24.544,34.235 c -1.2987,-0.8893 -0.8377,-2.9093 0.7183,-3.147 l 3.1872,-0.4869 c 0.895,-0.1367 1.5344,-0.9386 1.4685,-1.8415 l -0.2345,-3.2157 c -0.1145,-1.5698 1.7523,-2.4688 2.9083,-1.4006 l 2.3679,2.1883 c 0.665,0.6145 1.6906,0.6145 2.3555,0 z"/></g><g id="line" transform="translate(-10.125,-9.75)"><circle id="circle2" cx="36.138" cy="35.763" r="25.013" fill="none" stroke="#000" stroke-linecap="round" stroke-linejoin="round" stroke-miterlimit="10" stroke-width="2"/><path id="path2" fill="none" stroke="#000" stroke-linecap="round" stroke-linejoin="round" stroke-miterlimit="10" stroke-width="2" d="m 37.3152,26.3316 2.3679,-2.1883 c 1.156,-1.0683 3.0228,-0.1693 2.9083,1.4006 l -0.2345,3.2157 c -0.0658,0.9029 0.5736,1.7048 1.4686,1.8415 l 3.1872,0.4869 c 1.5559,0.2377 2.017,2.2578 0.7183,3.147 l -2.6603,1.8216 c -0.747,0.5115 -0.9752,1.5114 -0.5241,2.2963 l 1.6065,2.7955 c 0.7843,1.3647 -0.5076,2.9846 -2.0126,2.5237 l -3.0829,-0.9442 c -0.8657,-0.2651 -1.7897,0.1799 -2.1221,1.022 l -1.184,2.999 c -0.578,1.464 -2.65,1.464 -3.228,0 l -1.184,-2.999 c -0.3324,-0.8421 -1.2565,-1.2871 -2.1221,-1.022 l -3.0829,0.9442 c -1.505,0.4609 -2.7969,-1.159 -2.0126,-2.5237 l 1.6065,-2.7955 c 0.4511,-0.785 0.2229,-1.7848 -0.5241,-2.2963 L 24.544,34.235 c -1.2987,-0.8893 -0.8377,-2.9093 0.7183,-3.147 l 3.1872,-0.4869 c 0.895,-0.1367 1.5344,-0.9386 1.4685,-1.8415 l -0.2345,-3.2157 c -0.1145,-1.5698 1.7523,-2.4688 2.9083,-1.4006 l 2.3679,2.1883 c 0.665,0.6145 1.6906,0.6145 2.3555,0 z"/><ellipse id="ellipse2" cx="24.191" cy="25.13" fill="#000" stroke="none" rx=".914" ry="1.827" transform="matrix(0.6637,-0.748,0.748,0.6637,-10.6616,26.5469)"/><ellipse id="ellipse3" cx="36.039" cy="19.052" fill="#000" stroke="none" rx=".914" ry="1.827"/><ellipse id="ellipse4" cx="48.069" cy="25.24" fill="#000" stroke="none" rx="1.827" ry=".914" transform="matrix(0.7071,-0.7071,0.7071,0.7071,-3.7684,41.3823)"/><ellipse id="ellipse5" cx="50.808" cy="38.1" fill="#000" stroke="none" rx=".914" ry="1.827" transform="matrix(0.1109,-0.9938,0.9938,0.1109,7.3099,84.3716)"/><ellipse id="ellipse6" cx="21.473" cy="37.99" fill="#000" stroke="none" rx="1.827" ry=".914"/><ellipse id="ellipse7" cx="29.379" cy="48.704" fill="#000" stroke="none" rx="1.827" ry=".914" transform="matrix(0.5,-0.866,0.866,0.5,-27.4894,49.7953)"/><ellipse id="ellipse8" cx="43.053" cy="48.737" fill="#000" stroke="none" rx=".914" ry="1.827" transform="matrix(0.882,-0.4712,0.4712,0.882,-17.8857,26.0367)"/></g></svg>