<svg xmlns="http://www.w3.org/2000/svg" xmlns:svg="http://www.w3.org/2000/svg" id="emoji" width="56" height="48" version="1.1" viewBox="0 0 56 48"><g id="color" transform="translate(-8,-12)"><circle id="circle1" cx="36" cy="37" r="23" fill="#3f3f3f"/><circle id="circle2" cx="36" cy="36" r="20" fill="#e27022"/><path id="path2" fill="#f4aa41" stroke="#f4aa41" stroke-miterlimit="10" stroke-width="1.6" d="m 49.2846,30.5994 a 1.6533,1.6533 0 0 0 -2.9758,-0.73 7.5663,7.5663 0 0 0 -2.436,8.4811 L 43.5,39.8683 a 0.9212,0.9212 0 0 0 0.6874,1.1346 l 1.8219,0.4472 a 0.9212,0.9212 0 0 0 1.1346,-0.6873 l 0.3727,-1.5183 a 7.5664,7.5664 0 0 0 1.768,-8.6451 z"/><path id="path3" fill="#fff" stroke="#fff" stroke-miterlimit="10" stroke-width="1.6" d="m 43.398,45.3032 a 0.9349,0.9349 0 0 0 0.8561,-0.2084 0.9347,0.9347 0 0 0 0.6622,0.5811 0.938,0.938 0 1 0 0.4472,-1.8219 l 0.4473,-1.822 -1.5183,-0.3727 -0.4472,1.822 a 0.93800279,0.93800279 0 1 0 -0.4473,1.8219 z"/><circle id="circle3" cx="38" cy="24" r="3" fill="#f4aa41" stroke="#f4aa41" stroke-miterlimit="10" stroke-width="1.6"/><circle id="circle4" cx="25" cy="40" r="2" fill="#f4aa41" stroke="#f4aa41" stroke-miterlimit="10" stroke-width="1.6"/><circle id="circle5" cx="38.5" cy="35.5" r="2" fill="#f4aa41" stroke="#f4aa41" stroke-miterlimit="10" stroke-width="1.6"/><path id="path5" fill="#5c9e31" stroke="#5c9e31" stroke-linejoin="round" stroke-width="1.6" d="m 38.59,48.1584 a 4.6627,4.6627 0 0 1 -8.3986,-2.86 4.6637,4.6637 0 1 0 8.732,2.338 4.6953,4.6953 0 0 1 -0.3334,0.522 z"/><path id="path6" fill="#5c9e31" stroke="#5c9e31" stroke-linecap="round" stroke-linejoin="round" stroke-width="1.6" d="m 24.985,30.3813 a 3.6683,3.6683 0 0 1 5.0457,4.8232 3.6692,3.6692 0 1 0 -5.4566,-4.5612 3.6908,3.6908 0 0 1 0.4109,-0.262 z"/></g><g id="line" transform="translate(-8,-12)"><circle id="circle6" cx="36" cy="36" r="23" fill="none" stroke="#000" stroke-miterlimit="10" stroke-width="2"/><path id="path7" fill="none" stroke="#000" stroke-linecap="round" stroke-linejoin="round" stroke-width="2" d="m 60,33 c 1.6569,0 3,1.7909 3,4 0,2.2091 -1.3431,4 -3,4"/><path id="path8" fill="none" stroke="#000" stroke-linecap="round" stroke-linejoin="round" stroke-width="2" d="m 12,33 c -1.6569,0 -3,1.7909 -3,4 0,2.2091 1.3431,4 3,4"/><path id="path9" fill="none" stroke="#000" stroke-linecap="round" stroke-linejoin="round" stroke-width="1.6" d="m 30.1909,45.2984 a 4.6637,4.6637 0 1 0 8.732,2.338 4.6953,4.6953 0 0 1 -0.3334,0.522"/><path id="path10" fill="none" stroke="#000" stroke-linecap="round" stroke-linejoin="round" stroke-width="1.6" d="m 30.0307,35.2045 a 3.6692,3.6692 0 1 0 -5.4566,-4.5612 3.6908,3.6908 0 0 1 0.4109,-0.262"/><path id="path11" fill="none" stroke="#000" stroke-linecap="round" stroke-linejoin="round" stroke-width="1.6" d="m 46.0094,41.45 a 0.9212,0.9212 0 0 0 1.1346,-0.6873 l 0.3727,-1.5183 a 7.5664,7.5664 0 0 0 1.7679,-8.6451 1.6806,1.6806 0 0 0 -1.242,-1.3673"/><path id="path12" stroke="#000" stroke-linecap="round" stroke-linejoin="round" stroke-width="1.6" d="m 45.5815,45.6005 a 0.9316,0.9316 0 0 0 0.4694,-0.612 0.9212,0.9212 0 0 0 -0.6874,-1.1345 l 0.4473,-1.822"/><path id="path13" fill="none" stroke="#000" stroke-linecap="round" stroke-linejoin="round" stroke-width="1.6" d="m 38,21 a 3,3 0 0 1 0,6"/><path id="path14" fill="none" stroke="#000" stroke-linecap="round" stroke-linejoin="round" stroke-width="1.6" d="m 38.5,37.5 a 2,2 0 0 1 0,-4"/><path id="path15" fill="none" stroke="#000" stroke-linecap="round" stroke-linejoin="round" stroke-width="1.6" d="m 25,42 a 2,2 0 0 1 0,-4"/></g></svg>