<?xml version="1.0" encoding="UTF-8" standalone="no"?>
<svg
   id="emoji"
   viewBox="0 0 43.921799 58"
   version="1.1"
   sodipodi:docname="1f95a.svg"
   width="43.921799"
   height="58"
   xmlns:inkscape="http://www.inkscape.org/namespaces/inkscape"
   xmlns:sodipodi="http://sodipodi.sourceforge.net/DTD/sodipodi-0.dtd"
   xmlns="http://www.w3.org/2000/svg"
   xmlns:svg="http://www.w3.org/2000/svg">
  <defs
     id="defs3" />
  <sodipodi:namedview
     id="namedview3"
     pagecolor="#ffffff"
     bordercolor="#000000"
     borderopacity="0.25"
     inkscape:showpageshadow="2"
     inkscape:pageopacity="0.0"
     inkscape:pagecheckerboard="0"
     inkscape:deskcolor="#d1d1d1" />
  <g
     id="color"
     transform="translate(-14.0391,-7)">
    <path
       fill="#ffffff"
       d="M 36,64 C 48.8581,64 56.9609,52.0227 56.9609,37.8428 56.9609,23.1911 48.5448,8 36,8 23.4552,8 15.0391,23.1911 15.0391,37.8428 15.0391,52.0227 23.1419,64 36,64 Z"
       id="path1" />
    <path
       fill="#d0cfce"
       d="M 56.96,37.84 C 56.96,52.02 48.86,64 36,64 23.14,64 15.04,52.02 15.04,37.84 17.8665,54.2605 32.6873,56.8209 41.68,50.3326 51.3772,43.3359 54.5687,18.6632 41.67,9.1 c 9.34,3.73 15.29,16.4301 15.29,28.7401 v 0 z"
       id="path2" />
  </g>
  <g
     id="line"
     transform="translate(-14.0391,-7)">
    <path
       fill="none"
       stroke="#000000"
       stroke-linecap="round"
       stroke-linejoin="round"
       stroke-width="2"
       d="M 36,64 C 48.8581,64 56.9609,52.0227 56.9609,37.8428 56.9609,23.1911 48.5448,8 36,8 23.4552,8 15.0391,23.1911 15.0391,37.8428 15.0391,52.0227 23.1419,64 36,64 Z"
       id="path3" />
  </g>
</svg>
