<svg xmlns="http://www.w3.org/2000/svg" xmlns:svg="http://www.w3.org/2000/svg" id="emoji" width="51.736" height="51.734" version="1.1" viewBox="0 0 51.736 51.734"><g id="color" transform="translate(-9.6226497,-10.015538)"><path id="path1" fill="#a57939" stroke="#a57939" stroke-linecap="round" stroke-linejoin="round" stroke-miterlimit="10" stroke-width="2" d="m 52.7379,53.1335 c -1.8989,1.899 -4.0249,3.4471 -6.2955,4.6442 -0.7534,0.3922 -1.5274,0.7534 -2.3118,1.0734 C 41.0035,60.1101 37.67,60.75 34.3468,60.75 27.6901,60.75 21.0334,58.2112 15.9557,53.1335 5.8004,42.9782 11.4663,32.1726 21.6217,22.0173 31.777,11.8516 42.5826,6.196 52.7379,16.3513 c 1.1972,1.1972 2.2499,2.4769 3.1684,3.8289 6.8528,10.1141 5.8001,23.9951 -3.1684,32.9533 z"/><path id="path2" fill="#d0cfce" stroke="#d0cfce" stroke-linecap="round" stroke-linejoin="round" stroke-miterlimit="10" stroke-width="2" d="m 21.56,45.5 c -2.7683,0.2917 -4.5408,1.4543 -6.0183,0.4583 C 8,40.875 31.625,12.2917 42.75,14.4583 38.0321,15.9531 17.8324,28.3262 21.56,45.5 Z"/><path id="path3" fill="#fff" stroke="#fff" stroke-linecap="round" stroke-linejoin="round" stroke-miterlimit="10" stroke-width="2" d="M 35.99,36.01 C 31.96,40.04 27.65,43.04 23.95,44.64 23.12,45 22.32,45.29 21.56,45.5 13.8003,29.5559 41.1619,12.7341 44.8,15.51 c 3.6259,2.7667 -0.72,12.41 -8.81,20.5 z"/><path id="path4" fill="#fff" stroke="none" stroke-linecap="round" stroke-linejoin="round" stroke-miterlimit="10" stroke-width="2" d="M 45.6667,15.875 C 43.8957,14.104 40.5569,13.842 36.625,15.4583"/><path id="path5" fill="#fff" stroke="none" stroke-linecap="round" stroke-linejoin="round" stroke-miterlimit="10" stroke-width="2" d="m 14.3712,40.6667 c -0.6125,2.4641 -0.3948,4.4784 0.8066,5.6797"/><path id="path6" fill="#6a462f" stroke="none" d="M 52.7379,53.1335 C 47.6602,58.2112 41.0035,60.75 34.3468,60.75 31.7021,60.7468 66.2862,45.8932 47.3537,12.4218 64.9749,22.9772 61.7064,44.1753 52.7379,53.1335 Z"/></g><g id="line" transform="translate(-9.6226497,-10.015538)"><path id="path7" fill="none" stroke="#000" stroke-linecap="round" stroke-linejoin="round" stroke-miterlimit="10" stroke-width="2" d="M 45.6667,15.875 C 43.8957,14.104 40.5569,13.842 36.625,15.4583"/><path id="path8" fill="none" stroke="#000" stroke-linecap="round" stroke-linejoin="round" stroke-miterlimit="10" stroke-width="2" d="m 14.3712,40.6667 c -0.6125,2.4641 -0.3948,4.4784 0.8066,5.6797"/><path id="path9" fill="none" stroke="#000" stroke-linecap="round" stroke-linejoin="round" stroke-miterlimit="10" stroke-width="2" d="m 45.6662,15.8579 c 1.1431,1.1431 1.4082,2.0153 0.8338,4.3921 -0.4408,1.824 0.875,7.5 -2.7014,7.1824 C 42.0282,27.2752 41.386,33.147 40.125,34.75 38.864,36.353 38.0786,34.4214 36.5,36 c -1.2405,1.2405 -3.6268,2.9832 -5.25,4.125 -0.5293,0.3723 0.0439,0.7503 -0.125,1.375 -0.3324,1.2299 -5.9607,3.9444 -7.7968,4.7164 C 22.0241,46.7646 20.2273,45.8219 19.125,46 c -1.953,0.3156 -2.9552,1.3383 -3.9472,0.3464"/><path id="path10" fill="none" stroke="#000" stroke-linecap="round" stroke-linejoin="round" stroke-miterlimit="10" stroke-width="2" d="m 52.7379,53.1335 c -1.8989,1.899 -4.0249,3.4471 -6.2955,4.6442 -0.7534,0.3922 -1.5274,0.7534 -2.3118,1.0734 C 41.0035,60.1101 37.67,60.75 34.3468,60.75 27.6901,60.75 21.0334,58.2112 15.9557,53.1335 5.8004,42.9782 11.4663,32.1726 21.6217,22.0173 31.777,11.8516 42.5826,6.196 52.7379,16.3513 c 1.1972,1.1972 2.2186,2.6717 3.1371,4.0237 6.8528,10.1141 5.8314,23.8003 -3.1371,32.7585 z"/></g></svg>