<?xml version="1.0" encoding="UTF-8" standalone="no"?>
<svg
   id="emoji"
   viewBox="0 0 64 51.382301"
   version="1.1"
   sodipodi:docname="1f968.svg"
   width="64"
   height="51.382301"
   xmlns:inkscape="http://www.inkscape.org/namespaces/inkscape"
   xmlns:sodipodi="http://sodipodi.sourceforge.net/DTD/sodipodi-0.dtd"
   xmlns="http://www.w3.org/2000/svg"
   xmlns:svg="http://www.w3.org/2000/svg">
  <defs
     id="defs9" />
  <sodipodi:namedview
     id="namedview9"
     pagecolor="#ffffff"
     bordercolor="#000000"
     borderopacity="0.25"
     inkscape:showpageshadow="2"
     inkscape:pageopacity="0.0"
     inkscape:pagecheckerboard="0"
     inkscape:deskcolor="#d1d1d1" />
  <g
     id="color"
     transform="translate(-3.9063,-10.3091)">
    <path
       fill="#ffffff"
       d="m 32.6012,23.5699 c 0,0 -13.6855,-10.3791 -19.9449,6.1352 C 6.3969,46.2194 30.9762,51.6025 36.8671,52.0088 42.758,52.4151 62.8587,41.5281 59.1563,29.7051 55.4539,17.8821 46.6238,17.8311 38.7969,24.484 c -4.0627,3.4533 -3.758,-0.711 -6.1956,-0.9141 z"
       id="path1" />
    <path
       fill="#f4aa41"
       d="M 67.0928,29.5254 C 67.084,19.0562 58.8311,10.5415 48.6875,10.5415 c -4.873,0 -8.7354,1.5693 -12.0312,4.7725 -1.1817,-1.1475 -2.67,-2.0293 -4.1094,-2.8282 -0.1563,-0.0859 -0.7149,0.1299 -0.8731,0.0479 -2.4629,-1.2744 -5.2363,-1.9922 -8.1738,-1.9922 -10.1436,0 -18.3965,8.5147 -18.4053,18.9839 0,-0.0029 -9e-4,-0.0049 -9e-4,-0.0078 v 0.0244 c 0,0.0049 0.0019,0.0088 0.0019,0.0137 v 0.0088 c 0,-0.0079 -0.0019,-0.0147 -0.0019,-0.0225 0,0.7305 0.0312,1.4551 0.0781,2.1777 0.0049,0.0782 0.0097,0.1563 0.0156,0.2344 0.0518,0.7246 0.126,1.4443 0.2246,2.1592 0.002,0.0117 0.0039,0.0234 0.0059,0.0351 0.207,1.4883 0.5175,2.9512 0.9228,4.3819 0.003,0.0107 0.0059,0.0205 0.0088,0.0302 0.8682,3.0557 1.9824,5.5254 3.6973,8.1915 C 10.1787,46.9561 9,46.8301 9,46.8301 c 0,0 2.4414,3.5244 2.8652,4.1025 0.4092,0.5547 0.0098,0.7891 0.0098,1.6094 0,2.209 1.7354,4 3.875,4 1.1309,0 2.2422,-0.083 3.3359,-0.2275 5.086,3.7187 7.6485,3.75 11.043,4.6816 1.1328,0.3105 4.0859,0.5019 4.3799,0.4551 0.5283,0.0273 6.4941,-0.3535 7.6475,-0.5742 3.5156,-0.6719 6.497,-1.8028 9.458,-3.5674 0.5283,-0.3145 1.0429,-0.6446 1.5478,-0.9873 1.0742,0.1396 2.166,0.2197 3.2754,0.2197 2.1396,0 3.875,-1.791 3.875,-4 0,-0.7979 0.2021,-1.0566 -0.1875,-1.6807 0.6709,-0.8125 2.2471,-3.3935 2.8438,-4.2812 0.1308,-0.1953 -1.1563,0.2402 -1.0625,0.0312 1.7265,-2.6767 3.0605,-4.9814 3.9316,-8.0508 0.0029,-0.0097 0.0059,-0.0195 0.0088,-0.0302 0.4053,-1.4307 0.7158,-2.8936 0.9228,-4.3819 0.002,-0.0117 0.0039,-0.0234 0.0049,-0.0351 0.0996,-0.7149 0.1738,-1.4346 0.2256,-2.1592 0.0059,-0.0781 0.0107,-0.1562 0.0156,-0.2344 0.0469,-0.7226 0.0782,-1.4472 0.0782,-2.1777 0,0.0078 -0.002,0.0146 -0.002,0.0225 v -0.0088 c 0,-0.0049 0.002,-0.0088 0.002,-0.0137 v -0.0244 c 0,0.0029 -0.001,0.0049 -0.001,0.0078 z m -29.374,22.1787 c -0.5723,0.043 -1.252,0.0557 -1.8331,0.083 -1.333,0.0625 -3.1669,-0.2705 -3.8955,-0.666 1.75,-1.375 2.75,-2.2715 3.8536,-3.959 1.8632,2.3809 2.5917,2.3008 5.125,3.916 -1.5743,0.4844 -1.5938,0.4981 -3.25,0.626 z M 18.4531,43.3457 c -0.1631,-0.2207 -0.6133,1.0215 -0.9189,0.5986 -2.2217,-3.0341 -3.711,-6.5332 -4.3408,-10.2666 -0.0069,-0.041 -0.0137,-0.082 -0.0205,-0.123 -0.1026,-0.6299 -0.1827,-1.2656 -0.2364,-1.9063 -0.0049,-0.0546 -0.0078,-0.1084 -0.0117,-0.163 -0.0508,-0.6465 -0.081,-1.2979 -0.081,-1.9541 0.0068,-6.0611 4.7841,-10.9898 10.6562,-10.9898 1.6016,0 3.1221,0.3682 4.4863,1.0254 0.1162,0.0566 -0.5547,1.2178 -0.4394,1.2783 1.2646,0.668 2.7295,1.5469 3.6406,2.6563 -0.8604,2.1953 -0.9062,3.5293 -0.9062,6.0405 0,3.2226 0.5605,6.3096 1.5683,9.1777 -0.332,0.6162 -0.4101,-0.8681 -0.8027,-0.2959 -0.0762,0.1104 -2.1875,2.4844 -2.5781,2.7969 -0.0586,0.0469 0.0234,0.9463 -0.0215,1.0068 -2.3418,3.1797 -6.9375,4.1866 -6.9375,4.1866 0,0 -1.541,-1.0205 -3.0567,-3.0684 z M 59.2627,31.4854 c -0.0039,0.0546 -0.0068,0.1084 -0.0117,0.163 -0.0537,0.6407 -0.1338,1.2774 -0.2364,1.9073 -0.0068,0.04 -0.0136,0.081 -0.0195,0.1211 -0.6738,3.9912 -2.4013,7.4179 -4.8857,10.5908 l -0.8438,-0.8125 c -0.4697,0.6015 -1.3593,1.8281 -2.6875,2.8906 -0.0595,0.0479 1.1475,1.0176 0.6924,1.4209 -4.6894,-1.4199 -8.4726,-4.3271 -10.8017,-8.6553 1.0078,-2.8681 2.1933,-5.4365 2.25,-9.5625 0.0625,-4.5317 -0.7959,-5.3676 -1.6563,-7.563 1.9561,-2.3828 4.3701,-3.4443 7.625,-3.4443 5.8721,0 10.6494,4.9287 10.6563,10.9898 0,0.6562 -0.0303,1.3076 -0.0811,1.9541 z"
       id="path2" />
  </g>
  <g
     id="line"
     transform="translate(-3.9063,-10.3091)">
    <path
       fill="none"
       stroke="#000000"
       stroke-linecap="round"
       stroke-linejoin="round"
       stroke-width="2"
       d="m 32.0957,13.5435 c -2.6123,-1.4239 -5.6045,-2.2344 -8.7832,-2.2344 -10.1445,0 -18.3965,8.249 -18.4053,18.3901 0,-0.0039 -9e-4,-0.0058 -9e-4,-0.0078 v 0.0234 c 0,0.0059 0.0019,0.0098 0.0019,0.0137 0.0068,5.9746 1.7031,11.7031 4.8574,16.6289"
       id="path3" />
    <path
       fill="none"
       stroke="#000000"
       stroke-linecap="round"
       stroke-linejoin="round"
       stroke-width="2"
       d="m 41.6484,31.6309 c 0.0469,-0.6309 0.0704,-1.2715 0.0704,-1.9161 0,-0.6347 -0.0323,-1.2592 -0.0958,-1.8774"
       id="path4" />
    <path
       fill="none"
       stroke="#000000"
       stroke-linecap="round"
       stroke-linejoin="round"
       stroke-width="2"
       d="m 29.168,42.0996 c -3.3682,3.6973 -8.2207,6.0215 -13.6055,6.0215 -2.1396,0 -3.875,1.7344 -3.875,3.875 0,2.1406 1.7354,3.875 3.875,3.875 6.6924,0 12.8066,-2.5254 17.4375,-6.6777"
       id="path5" />
    <path
       fill="none"
       stroke="#000000"
       stroke-linecap="round"
       stroke-linejoin="round"
       stroke-width="2"
       d="m 17.7998,44.2793 c -3.3291,-4.1172 -5.1396,-9.2148 -5.1435,-14.5742 0.0068,-5.8716 4.7841,-10.646 10.6562,-10.646 1.7676,0 3.4355,0.4326 4.9043,1.1972"
       id="path6" />
    <path
       fill="none"
       stroke="#000000"
       stroke-linecap="round"
       stroke-linejoin="round"
       stroke-width="2"
       d="m 37.7422,52.8672 c -0.6084,0.0508 -1.2207,0.0742 -1.8359,0.0742 -0.6152,0 -1.2276,-0.0234 -1.836,-0.0742"
       id="path7" />
    <path
       fill="none"
       stroke="#000000"
       stroke-linecap="round"
       stroke-linejoin="round"
       stroke-width="2"
       d="m 47.5547,58.4258 c -0.543,0.2187 -1.0938,0.4258 -1.6484,0.6172 -3.2149,1.0937 -6.5801,1.6484 -10,1.6484 -3.4199,0 -6.7852,-0.5547 -10,-1.6484 -0.5547,-0.1914 -1.1055,-0.3985 -1.6485,-0.6172"
       id="path8" />
    <path
       fill="none"
       stroke="#000000"
       stroke-linecap="round"
       stroke-linejoin="round"
       stroke-width="2"
       d="m 54.0127,44.2793 c 3.3291,-4.1172 5.1396,-9.2148 5.1436,-14.5742 -0.0069,-5.8716 -4.7842,-10.646 -10.6563,-10.646 -5.876,0 -10.6562,4.7803 -10.6562,10.6557 0,10.1485 8.2568,18.4063 18.4062,18.4063 2.1396,0 3.875,1.7344 3.875,3.875 0,2.1406 -1.7354,3.875 -3.875,3.875 -14.4229,0 -26.1562,-11.7324 -26.1562,-26.1563 0,-10.1479 8.2568,-18.4057 18.4062,-18.4057 10.1494,0 18.3965,8.249 18.4053,18.3901 0,-0.0039 0.001,-0.0058 0.001,-0.0078 v 0.0234 c 0,0.0059 -0.002,0.0098 -0.002,0.0137 -0.0068,5.9746 -1.7031,11.7031 -4.8574,16.6289"
       id="path9" />
  </g>
</svg>
