<?xml version="1.0" encoding="UTF-8" standalone="no"?>
<svg
   id="emoji"
   viewBox="0 0 43.162857 49.546394"
   version="1.1"
   sodipodi:docname="1f962.svg"
   width="43.162857"
   height="49.546394"
   xmlns:inkscape="http://www.inkscape.org/namespaces/inkscape"
   xmlns:sodipodi="http://sodipodi.sourceforge.net/DTD/sodipodi-0.dtd"
   xmlns="http://www.w3.org/2000/svg"
   xmlns:svg="http://www.w3.org/2000/svg">
  <defs
     id="defs4" />
  <sodipodi:namedview
     id="namedview4"
     pagecolor="#ffffff"
     bordercolor="#000000"
     borderopacity="0.25"
     inkscape:showpageshadow="2"
     inkscape:pageopacity="0.0"
     inkscape:pagecheckerboard="0"
     inkscape:deskcolor="#d1d1d1" />
  <g
     id="color"
     transform="translate(-14.421099,-10.410203)">
    <path
       fill="#d22f27"
       stroke="none"
       stroke-linecap="round"
       stroke-linejoin="round"
       stroke-miterlimit="10"
       stroke-width="2"
       d="M 53.7603,58.9583 18.829,20.2998 c -0.781,-0.781 -2.0474,-0.781 -2.8284,0 -0.781,0.781 -0.781,2.0474 0,2.8284 z"
       id="path1" />
    <path
       fill="#d22f27"
       stroke="none"
       stroke-linecap="round"
       stroke-linejoin="round"
       stroke-miterlimit="10"
       stroke-width="2"
       d="M 56.5852,57.4276 30.512,12.3181 c -0.6004,-0.9271 -1.8388,-1.192 -2.7659,-0.5916 -0.9271,0.6004 -1.192,1.8388 -0.5916,2.7659 z"
       id="path2" />
  </g>
  <g
     id="hair"
     transform="translate(-14.421099,-10.410203)" />
  <g
     id="skin"
     transform="translate(-14.421099,-10.410203)" />
  <g
     id="skin-shadow"
     transform="translate(-14.421099,-10.410203)" />
  <g
     id="line"
     transform="translate(-14.421099,-10.410203)">
    <path
       fill="none"
       stroke="#000000"
       stroke-linecap="round"
       stroke-linejoin="round"
       stroke-miterlimit="10"
       stroke-width="2"
       d="M 53.7603,58.9583 18.829,20.2998 c -0.781,-0.781 -2.0474,-0.781 -2.8284,0 -0.781,0.781 -0.781,2.0474 0,2.8284 z"
       id="path3" />
    <path
       fill="none"
       stroke="#000000"
       stroke-linecap="round"
       stroke-linejoin="round"
       stroke-miterlimit="10"
       stroke-width="2"
       d="M 56.5852,57.4276 30.512,12.3181 c -0.6004,-0.9271 -1.8388,-1.192 -2.7659,-0.5916 -0.9271,0.6004 -1.192,1.8388 -0.5916,2.7659 z"
       id="path4" />
  </g>
</svg>
