<svg xmlns="http://www.w3.org/2000/svg" xmlns:svg="http://www.w3.org/2000/svg" id="emoji" width="43.163" height="49.546" version="1.1" viewBox="0 0 43.163 49.546"><g id="color" transform="translate(-14.421099,-10.410203)"><path id="path1" fill="#d22f27" stroke="none" stroke-linecap="round" stroke-linejoin="round" stroke-miterlimit="10" stroke-width="2" d="M 53.7603,58.9583 18.829,20.2998 c -0.781,-0.781 -2.0474,-0.781 -2.8284,0 -0.781,0.781 -0.781,2.0474 0,2.8284 z"/><path id="path2" fill="#d22f27" stroke="none" stroke-linecap="round" stroke-linejoin="round" stroke-miterlimit="10" stroke-width="2" d="M 56.5852,57.4276 30.512,12.3181 c -0.6004,-0.9271 -1.8388,-1.192 -2.7659,-0.5916 -0.9271,0.6004 -1.192,1.8388 -0.5916,2.7659 z"/></g><g id="line" transform="translate(-14.421099,-10.410203)"><path id="path3" fill="none" stroke="#000" stroke-linecap="round" stroke-linejoin="round" stroke-miterlimit="10" stroke-width="2" d="M 53.7603,58.9583 18.829,20.2998 c -0.781,-0.781 -2.0474,-0.781 -2.8284,0 -0.781,0.781 -0.781,2.0474 0,2.8284 z"/><path id="path4" fill="none" stroke="#000" stroke-linecap="round" stroke-linejoin="round" stroke-miterlimit="10" stroke-width="2" d="M 56.5852,57.4276 30.512,12.3181 c -0.6004,-0.9271 -1.8388,-1.192 -2.7659,-0.5916 -0.9271,0.6004 -1.192,1.8388 -0.5916,2.7659 z"/></g></svg>