<svg xmlns="http://www.w3.org/2000/svg" xmlns:svg="http://www.w3.org/2000/svg" id="emoji" width="53.269" height="51.87" version="1.1" viewBox="0 0 53.269 51.87"><g id="color" transform="translate(-8.9995027,-10.099811)"><path id="path1" fill="#a57939" d="M 57.7532,31.0717 V 31.67 a 5.1841,5.1841 0 0 0 -2.521,-1.5216 c 0.002,-0.06 0.0178,-0.1165 0.0178,-0.1773 A 5.1714,5.1714 0 0 0 50.0786,24.8 a 5.1167,5.1167 0 0 0 -1.4079,0.2185 5.1394,5.1394 0 0 0 -8.3856,-2.8527 5.1325,5.1325 0 0 0 -8.8559,0 5.1394,5.1394 0 0 0 -8.3857,2.8527 5.116,5.116 0 0 0 -1.4078,-0.2185 5.1714,5.1714 0 0 0 -5.1714,5.1714 c 0,0.0608 0.0158,0.1171 0.0178,0.1773 a 5.1869,5.1869 0 0 0 -2.0809,1.09 V 31.0712 H 10 c 0,0 0,9.6827 0.0245,9.6827 q 0.0246,0.2412 0.0679,0.4767 c 0.016,0.0892 0.035,0.1761 0.0556,0.2636 a 5.0226,5.0226 0 0 0 0.2039,0.6568 c 0.0464,0.1215 0.0971,0.2388 0.1521,0.3556 a 5.0994,5.0994 0 0 0 0.28,0.516 c 0.0881,0.1424 0.1847,0.2761 0.2857,0.4088 0.0482,0.0624 0.0991,0.1218 0.15,0.1818 a 5.16,5.16 0 0 0 1.4344,1.192 4.9523,4.9523 0 0 0 3.828,5.6748 c -0.002,0.06 -0.0178,0.1166 -0.0178,0.1773 a 5.1714,5.1714 0 0 0 5.1714,5.1715 5.116,5.116 0 0 0 1.4078,-0.2185 5.1395,5.1395 0 0 0 8.3857,2.8526 5.1324,5.1324 0 0 0 8.8559,0 5.1394,5.1394 0 0 0 8.3856,-2.8529 5.1167,5.1167 0 0 0 1.4079,0.2185 5.1714,5.1714 0 0 0 5.1714,-5.1714 c 0,-0.0607 -0.0158,-0.1171 -0.0178,-0.1773 a 5.16,5.16 0 0 0 3.8964,-4.9941 5.2318,5.2318 0 0 0 -0.0679,-0.68 5.1574,5.1574 0 0 0 1.4338,-1.1916 c 0.0509,-0.06 0.1018,-0.1194 0.15,-0.1818 0.1011,-0.1327 0.1977,-0.2664 0.2859,-0.4088 a 5.0834,5.0834 0 0 0 0.784,-2.5828 v -9.369 z"/><path id="path2" fill="#f1b31c" d="m 60.0592,34.8474 c 0.05,-0.06 0.1009,-0.1185 0.1486,-0.18 0.1,-0.1316 0.196,-0.2642 0.2834,-0.4053 a 5.0805,5.0805 0 0 0 0.2776,-0.5115 c 0.0545,-0.1158 0.1048,-0.2321 0.1508,-0.3525 a 4.9924,4.9924 0 0 0 0.2022,-0.6512 c 0.02,-0.0868 0.0393,-0.1729 0.0551,-0.2613 a 4.5556,4.5556 0 0 0 0,-1.8179 c -0.0158,-0.0884 -0.0348,-0.1745 -0.0551,-0.2613 a 4.9924,4.9924 0 0 0 -0.2022,-0.6512 c -0.046,-0.12 -0.0963,-0.2367 -0.1508,-0.3525 a 5.0914,5.0914 0 0 0 -0.2776,-0.5115 c -0.0874,-0.1411 -0.1832,-0.2737 -0.2834,-0.4053 -0.0477,-0.0618 -0.0981,-0.1207 -0.1486,-0.18 a 5.1113,5.1113 0 0 0 -1.4214,-1.1812 h -7e-4 a 5.0646,5.0646 0 0 0 0.0679,-0.6742 5.1157,5.1157 0 0 0 -3.8628,-4.9511 c 0.0021,-0.06 0.0177,-0.1155 0.0177,-0.1757 a 5.1268,5.1268 0 0 0 -5.1268,-5.1269 5.0754,5.0754 0 0 0 -1.3957,0.2166 5.0951,5.0951 0 0 0 -8.3134,-2.828 5.0881,5.0881 0 0 0 -8.78,0 5.0951,5.0951 0 0 0 -8.3134,2.828 5.0754,5.0754 0 0 0 -1.3957,-0.2166 5.1268,5.1268 0 0 0 -5.1268,5.1269 c 0,0.06 0.0156,0.1161 0.0176,0.1757 a 4.91,4.91 0 0 0 -3.7949,5.6253 h -6e-4 a 5.1113,5.1113 0 0 0 -1.4214,1.1812 c -0.0505,0.06 -0.1009,0.1185 -0.1487,0.18 -0.1,0.1316 -0.1959,0.2642 -0.2833,0.4053 a 5.0714,5.0714 0 0 0 -0.2776,0.5115 c -0.0546,0.1158 -0.1049,0.2321 -0.1509,0.3525 a 5.0074,5.0074 0 0 0 -0.2021,0.6512 c -0.02,0.0868 -0.0393,0.1729 -0.0551,0.2613 a 4.5556,4.5556 0 0 0 0,1.8179 c 0.0158,0.0884 0.0347,0.1745 0.0551,0.2613 a 5.0074,5.0074 0 0 0 0.2021,0.6512 c 0.046,0.12 0.0963,0.2367 0.1509,0.3525 a 5.0606,5.0606 0 0 0 0.2776,0.5115 c 0.0874,0.1411 0.1831,0.2737 0.2833,0.4053 0.0478,0.0618 0.0982,0.1207 0.1487,0.18 a 5.1113,5.1113 0 0 0 1.4214,1.1812 h 6e-4 a 4.91,4.91 0 0 0 3.7949,5.6253 c -0.002,0.06 -0.0176,0.1155 -0.0176,0.1757 a 5.1268,5.1268 0 0 0 5.1268,5.1269 5.0754,5.0754 0 0 0 1.3957,-0.2166 5.0952,5.0952 0 0 0 8.3134,2.8281 5.0882,5.0882 0 0 0 8.78,0 5.0952,5.0952 0 0 0 8.3134,-2.828 5.0754,5.0754 0 0 0 1.3957,0.2166 A 5.1268,5.1268 0 0 0 54.86,41.83 c 0,-0.06 -0.0156,-0.116 -0.0177,-0.1757 a 5.1157,5.1157 0 0 0 3.8628,-4.9511 5.0646,5.0646 0 0 0 -0.0679,-0.6742 h 7e-4 a 5.1113,5.1113 0 0 0 1.4213,-1.1816 z"/></g><g id="line" transform="translate(-8.9995027,-10.099811)"><path id="path3" fill="none" stroke="#000" stroke-linecap="round" stroke-linejoin="round" stroke-width="2" d="m 60.0592,34.8474 c 0.05,-0.06 0.1009,-0.1185 0.1486,-0.18 0.1,-0.1316 0.196,-0.2642 0.2834,-0.4053 a 5.0805,5.0805 0 0 0 0.2776,-0.5115 c 0.0545,-0.1158 0.1048,-0.2321 0.1508,-0.3525 a 4.9924,4.9924 0 0 0 0.2022,-0.6512 c 0.02,-0.0868 0.0393,-0.1729 0.0551,-0.2613 a 4.5556,4.5556 0 0 0 0,-1.8179 c -0.0158,-0.0884 -0.0348,-0.1745 -0.0551,-0.2613 a 4.9924,4.9924 0 0 0 -0.2022,-0.6512 c -0.046,-0.12 -0.0963,-0.2367 -0.1508,-0.3525 a 5.0914,5.0914 0 0 0 -0.2776,-0.5115 c -0.0874,-0.1411 -0.1832,-0.2737 -0.2834,-0.4053 -0.0477,-0.0618 -0.0981,-0.1207 -0.1486,-0.18 a 5.1113,5.1113 0 0 0 -1.4214,-1.1812 h -7e-4 a 5.0646,5.0646 0 0 0 0.0679,-0.6742 5.1157,5.1157 0 0 0 -3.8628,-4.9511 c 0.0021,-0.06 0.0177,-0.1155 0.0177,-0.1757 a 5.1268,5.1268 0 0 0 -5.1268,-5.1269 5.0754,5.0754 0 0 0 -1.3957,0.2166 5.0951,5.0951 0 0 0 -8.3134,-2.828 5.0881,5.0881 0 0 0 -8.78,0 5.0951,5.0951 0 0 0 -8.3134,2.828 5.0754,5.0754 0 0 0 -1.3957,-0.2166 5.1268,5.1268 0 0 0 -5.1268,5.1269 c 0,0.06 0.0156,0.1161 0.0176,0.1757 a 4.91,4.91 0 0 0 -3.7949,5.6253 h -6e-4 a 5.1113,5.1113 0 0 0 -1.4214,1.1812 c -0.0505,0.06 -0.1009,0.1185 -0.1487,0.18 -0.1,0.1316 -0.1959,0.2642 -0.2833,0.4053 a 5.0714,5.0714 0 0 0 -0.2776,0.5115 c -0.0546,0.1158 -0.1049,0.2321 -0.1509,0.3525 a 5.0074,5.0074 0 0 0 -0.2021,0.6512 c -0.02,0.0868 -0.0393,0.1729 -0.0551,0.2613 a 4.5556,4.5556 0 0 0 0,1.8179 c 0.0158,0.0884 0.0347,0.1745 0.0551,0.2613 a 5.0074,5.0074 0 0 0 0.2021,0.6512 c 0.046,0.12 0.0963,0.2367 0.1509,0.3525 a 5.0606,5.0606 0 0 0 0.2776,0.5115 c 0.0874,0.1411 0.1831,0.2737 0.2833,0.4053 0.0478,0.0618 0.0982,0.1207 0.1487,0.18 a 5.1113,5.1113 0 0 0 1.4214,1.1812 h 6e-4 a 4.91,4.91 0 0 0 3.7949,5.6253 c -0.002,0.06 -0.0176,0.1155 -0.0176,0.1757 a 5.1268,5.1268 0 0 0 5.1268,5.1269 5.0754,5.0754 0 0 0 1.3957,-0.2166 5.0952,5.0952 0 0 0 8.3134,2.8281 5.0882,5.0882 0 0 0 8.78,0 5.0952,5.0952 0 0 0 8.3134,-2.828 5.0754,5.0754 0 0 0 1.3957,0.2166 A 5.1268,5.1268 0 0 0 54.86,41.83 c 0,-0.06 -0.0156,-0.116 -0.0177,-0.1757 a 5.1157,5.1157 0 0 0 3.8628,-4.9511 5.0646,5.0646 0 0 0 -0.0679,-0.6742 h 7e-4 a 5.1113,5.1113 0 0 0 1.4213,-1.1816 z"/><path id="path4" fill="none" stroke="#000" stroke-linecap="round" stroke-linejoin="round" stroke-width="2" d="m 10.8814,40.9339 c 0.0023,0.263 0.0049,0.4135 0.0079,0.4135 q 0.0239,0.2342 0.0659,0.4627 c 0.0155,0.0866 0.034,0.1709 0.0539,0.2559 a 4.89,4.89 0 0 0 0.198,0.6376 c 0.045,0.1179 0.0942,0.2318 0.1477,0.3451 a 4.9518,4.9518 0 0 0 0.2718,0.5009 c 0.0856,0.1382 0.1793,0.268 0.2774,0.3969 0.0467,0.06 0.0962,0.1182 0.1456,0.1765 a 5.0073,5.0073 0 0 0 1.3924,1.157 4.9544,4.9544 0 0 0 -0.0665,0.66 5.0089,5.0089 0 0 0 3.7823,4.8478 c -0.002,0.0585 -0.0173,0.1132 -0.0173,0.1722 a 5.02,5.02 0 0 0 5.02,5.02 4.9639,4.9639 0 0 0 1.3666,-0.2121 4.989,4.989 0 0 0 8.14,2.7692 4.9821,4.9821 0 0 0 8.5965,0 4.9889,4.9889 0 0 0 8.14,-2.7692 4.965,4.965 0 0 0 1.3664,0.2121 5.02,5.02 0 0 0 5.02,-5.02 c 0,-0.059 -0.0153,-0.1137 -0.0173,-0.1722 a 5.009,5.009 0 0 0 3.7825,-4.8478 5.0864,5.0864 0 0 0 -0.0659,-0.66 5.0051,5.0051 0 0 0 1.3918,-1.1566 c 0.0494,-0.0583 0.0988,-0.116 0.1455,-0.1765 0.0981,-0.1289 0.1919,-0.2587 0.2775,-0.3969 a 4.9347,4.9347 0 0 0 0.7611,-2.5072 q 0,-0.3159 0,-0.6319"/></g><g id="color-foreground" transform="translate(-8.9995027,-10.099811)"><path id="path5" fill="none" stroke="#fcea2b" stroke-linecap="round" stroke-linejoin="round" stroke-width="2" d="m 32.8,20.8768 c -3.9767,0.6577 -6.635,2.4619 -7.1729,5.35 h 3.98 l 0.0593,-1.7833"/><path id="path6" fill="none" stroke="#fcea2b" stroke-linecap="round" stroke-linejoin="round" stroke-width="2" d="m 41.2943,24.4433 0.0594,1.7833 h 3.98 c -0.5378,-2.8879 -3.1961,-4.6921 -7.1729,-5.35 L 38.0224,28.562 H 53.69 C 52.5076,22.2153 44.7848,17.31 35.4113,17.31 26.0378,17.31 18.315,22.2153 17.133,28.5622 H 32.8 v -7.6854"/><line id="line6" x1="32.8" x2="38.022" y1="23.552" y2="23.552" fill="none" stroke="#fcea2b" stroke-linecap="round" stroke-linejoin="round" stroke-width="2"/><path id="path7" fill="none" stroke="#fcea2b" stroke-linecap="round" stroke-linejoin="round" stroke-width="2" d="m 32.8,41.0449 c -3.9767,-0.6577 -6.635,-2.4618 -7.1729,-5.35 h 3.98 l 0.0593,1.7832"/><path id="path8" fill="none" stroke="#fcea2b" stroke-linecap="round" stroke-linejoin="round" stroke-width="2" d="m 41.2943,37.4784 0.0594,-1.7832 h 3.98 c -0.5378,2.8879 -3.1961,4.692 -7.1729,5.35 L 38.0225,33.36 H 53.69 C 52.5079,39.7069 44.7851,44.6118 35.4116,44.6118 26.0381,44.6118 18.315,39.7065 17.133,33.36 H 32.8 v 7.6853"/><line id="line8" x1="32.8" x2="38.022" y1="38.37" y2="38.37" fill="none" stroke="#fcea2b" stroke-linecap="round" stroke-linejoin="round" stroke-width="2"/><line id="line9" x1="43.245" x2="43.245" y1="33.36" y2="28.902" fill="none" stroke="#fcea2b" stroke-linecap="round" stroke-linejoin="round" stroke-width="2"/><line id="line10" x1="27.578" x2="27.578" y1="33.36" y2="28.902" fill="none" stroke="#fcea2b" stroke-linecap="round" stroke-linejoin="round" stroke-width="2"/></g></svg>