<?xml version="1.0" encoding="UTF-8" standalone="no"?>
<svg
   id="emoji"
   viewBox="0 0 48.611683 52.591801"
   version="1.1"
   sodipodi:docname="1f977-1f3fc.svg"
   width="48.611683"
   height="52.591801"
   xmlns:inkscape="http://www.inkscape.org/namespaces/inkscape"
   xmlns:sodipodi="http://sodipodi.sourceforge.net/DTD/sodipodi-0.dtd"
   xmlns="http://www.w3.org/2000/svg"
   xmlns:svg="http://www.w3.org/2000/svg">
  <defs
     id="defs16" />
  <sodipodi:namedview
     id="namedview16"
     pagecolor="#ffffff"
     bordercolor="#000000"
     borderopacity="0.25"
     inkscape:showpageshadow="2"
     inkscape:pageopacity="0.0"
     inkscape:pagecheckerboard="0"
     inkscape:deskcolor="#d1d1d1" />
  <g
     id="color"
     transform="translate(-8.3290363,-8.3247)">
    <path
       fill="#3f3f3f"
       d="m 53.7451,45.4219 c -1.9346,-1.958 -4.6582,-2.9512 -8.0937,-2.9512 h -2.4151 a 0.1406,0.1406 0 0 1 -0.1387,-0.1191 l -0.1535,-0.9195 c 5.456,-2.6888 9.2766,-8.7594 9.2766,-15.8125 0,-9.5366 -6.9756,-17.2949 -15.5508,-17.2949 -8.5752,0 -15.5508,7.7583 -15.5508,17.2953 0,7.0512 3.8185,13.12 9.2722,15.81 l -0.154,0.9228 a 0.14,0.14 0 0 1 -0.1387,0.1182 h -2.415 c -3.4356,0 -6.1592,0.9932 -8.0938,2.9512 -2.8437,2.8779 -3.2217,7.1406 -3.1943,9.4131 v 5.081 a 0.9994,0.9994 0 0 0 1,1 h 38.5439 a 0.9993,0.9993 0 0 0 1,-1 V 54.8467 C 56.9668,52.5625 56.5889,48.3 53.7451,45.4219 Z"
       id="path1" />
    <path
       d="m 36.6675,19.0969 c 7.6593,0 14.1047,1.4272 15.381,9.5449 a 19.1457,19.1457 0 0 0 0.2478,-3.0222 c 0,-9.5366 -6.9756,-17.2949 -15.5508,-17.2949 -8.5752,0 -15.5508,7.7583 -15.5508,17.2953 a 19.1325,19.1325 0 0 0 0.2478,3.0221 c 1.2762,-8.1181 7.5657,-9.5452 15.225,-9.5452 z"
       id="path2" />
    <path
       d="m 53.7336,45.7445 a 1.6758,1.6758 0 0 0 -0.1092,-0.362 0.979,0.979 0 0 0 -0.1248,-0.1707 0.9266,0.9266 0 0 0 -0.0769,-0.1053 c -0.0217,-0.02 -0.0464,-0.0364 -0.0682,-0.0561 L 53.3432,45.0412 A 11.14,11.14 0 0 0 45.6571,42.4707 H 43.33 a 0.96,0.96 0 0 0 -0.2274,0.0459 c -0.0276,0.0069 -0.056,0.0075 -0.0828,0.0166 a 0.97,0.97 0 0 0 -0.2808,0.1519 c -0.0163,0.0121 -0.034,0.02 -0.0494,0.0333 a 0.9786,0.9786 0 0 0 -0.1821,0.2159 0.6007,0.6007 0 0 0 -0.1326,0.3135 0.9392,0.9392 0 0 0 -0.04,0.1272 c -0.0046,0.0431 -0.4961,4.1746 -5.6138,9.3931 -5.1178,-5.2276 -5.6157,-9.3356 -5.6206,-9.3872 a 0.9206,0.9206 0 0 0 -0.0429,-0.143 0.9916,0.9916 0 0 0 -0.06,-0.1983 0.96,0.96 0 0 0 -0.0924,-0.1371 0.991,0.991 0 0 0 -0.14,-0.1705 1.0137,1.0137 0 0 0 -0.1262,-0.0851 0.6779,0.6779 0 0 0 -0.3785,-0.1447 0.9456,0.9456 0 0 0 -0.156,-0.0315 H 27.69 a 11.1617,11.1617 0 0 0 -7.6866,2.5625 0.9408,0.9408 0 0 0 -0.0913,0.122 0.9794,0.9794 0 0 0 -0.1132,0.1513 1.8309,1.8309 0 0 0 -0.1143,0.363 0.9838,0.9838 0 0 0 0.0088,0.216 0.9273,0.9273 0 0 0 0.0054,0.1331 26.3764,26.3764 0 0 0 10.2659,14.6992 0.9953,0.9953 0 0 0 0.5967,0.1982 h 13.7177 a 1.0007,1.0007 0 0 0 0.9629,-0.7285 0.9905,0.9905 0 0 0 -0.1219,-0.7894 25.9952,25.9952 0 0 0 8.5985,-13.3121 0.9588,0.9588 0 0 0 0.0061,-0.1374 0.9768,0.9768 0 0 0 0.0089,-0.2041 z"
       id="path3" />
    <path
       fill="#3f3f3f"
       d="m 17.7479,44.9834 a 0.9987,0.9987 0 0 0 0.8574,0.4863 0.9678,0.9678 0 0 0 0.21,-0.0224 1,1 0 0 0 0.7832,-0.8614 L 20.366,38.02 a 1,1 0 0 0 -0.8212,-1.1015 l -5.2491,-0.9141 c -0.0182,-0.0031 -0.0356,6e-4 -0.0537,-0.0015 a 0.9812,0.9812 0 0 0 0.0664,-0.2172 L 15.7293,25.751 a 1,1 0 0 0 -1.52,-0.9888 L 8.8,28.1367 A 1,1 0 0 0 8.4719,29.499 Z"
       id="path4" />
    <path
       fill="#d0cfce"
       d="M 26.7359,43.0131 15.5887,25.0825 a 1.0006,1.0006 0 0 0 -1.8428,0.41 l -1.2314,10.35 a 1,1 0 0 0 0.8183,1.1025 l 6.0486,1.065 -0.9189,7.7243 a 1,1 0 0 0 0.8183,1.1025 12.2311,12.2311 0 0 1 7.4551,-3.8237 z"
       id="path5" />
  </g>
  <g
     id="skin"
     transform="translate(-8.3290363,-8.3247)">
    <path
       fill="#debb90"
       d="m 50.286,22.7772 c -2.3516,-2.8491 -6.9366,-4.2939 -13.628,-4.2939 -6.3808,0 -10.8613,1.41 -13.3154,4.1919 a 7.1445,7.1445 0 0 0 -1.87,5.1928 18.4938,18.4938 0 0 0 1.2715,4.99 l 0.0644,0.1035 -0.1933,0.1623 v 0 l 0.2323,-0.0958 a 0.7813,0.7813 0 0 0 0.1142,0.1118 l 0.0528,0.0479 a 0.76,0.76 0 0 0 0.1533,0.0761 l -0.0635,0.2451 0.124,-0.2168 a 0.7743,0.7743 0 0 0 0.1739,0.0293 l 0.0439,-9e-4 a 0.7206,0.7206 0 0 0 0.2246,-0.0362 c 0.0791,-0.0254 8.1221,-2.6235 12.9873,-2.6235 5.5928,0 13.086,2.2192 13.1612,2.2412 a 0.7509,0.7509 0 0 0 0.9218,-0.4722 l 0.0518,-0.1186 a 18.709,18.709 0 0 0 1.05,-4.44 V 27.8546 A 6.68,6.68 0 0 0 50.286,22.7772 Z"
       id="path6" />
  </g>
  <g
     id="line"
     transform="translate(-8.3290363,-8.3247)">
    <polyline
       fill="none"
       stroke="#000000"
       stroke-linecap="round"
       stroke-linejoin="round"
       stroke-width="2"
       points="19.875 46.59 9.329 28.985 14.739 25.611 25.91 43.573"
       id="polyline6" />
    <polyline
       fill="none"
       stroke="#000000"
       stroke-linecap="round"
       stroke-linejoin="round"
       stroke-width="2"
       points="14.206 30.088 13.508 35.961 22.129 37.493"
       id="polyline7" />
    <line
       x1="20.0702"
       x2="19.447399"
       y1="40.624599"
       y2="45.8582"
       fill="none"
       stroke="#000000"
       stroke-linecap="round"
       stroke-linejoin="round"
       stroke-width="2"
       id="line7" />
    <path
       d="m 42.7455,24.9444 a 2,2 0 1 1 -2,-2 2.0007,2.0007 0 0 1 2,2"
       id="path7" />
    <path
       d="m 34.7455,24.9444 a 2,2 0 1 1 -2,-2 2.0007,2.0007 0 0 1 2,2"
       id="path8" />
    <path
       fill="none"
       stroke="#000000"
       stroke-linecap="round"
       stroke-linejoin="round"
       stroke-width="2"
       d="M 17.3926,59.9165 V 54.8349 C 17.349,51.2 18.3529,43.47 27.6814,43.47 h 2.4147 a 1.1408,1.1408 0 0 0 1.1253,-0.9534 l 0.2768,-1.6607"
       id="path9" />
    <path
       fill="none"
       stroke="#000000"
       stroke-linecap="round"
       stroke-linejoin="round"
       stroke-width="2"
       d="M 55.9373,59.9165 V 54.8349 C 55.9809,51.2 54.977,43.47 45.6485,43.47 h -2.4147 a 1.1408,1.1408 0 0 1 -1.1253,-0.9534 l -0.2768,-1.6607"
       id="path10" />
    <ellipse
       cx="36.6675"
       cy="25.619801"
       rx="14.5511"
       ry="16.295099"
       fill="none"
       stroke="#000000"
       stroke-linecap="round"
       stroke-linejoin="round"
       stroke-width="2"
       id="ellipse10" />
    <path
       fill="none"
       stroke="#000000"
       stroke-linecap="round"
       stroke-linejoin="round"
       stroke-width="2"
       d="m 23.4484,32.4355 c 0,0 8.1953,-2.6606 13.2191,-2.6606 5.753,0 13.375,2.2727 13.375,2.2727"
       id="path11" />
    <path
       fill="none"
       stroke="#000000"
       stroke-linecap="round"
       stroke-linejoin="round"
       stroke-width="2"
       d="m 22.2285,27.6524 c 0,0 -1.07,-8.5555 14.439,-8.5555 16.0874,0 14.4364,8.5555 14.4364,8.5555"
       id="path12" />
    <path
       fill="none"
       stroke="#000000"
       stroke-linecap="round"
       stroke-linejoin="round"
       stroke-width="2"
       d="m 30.0961,43.47 c 0,0 0.7425,8.2231 14.1742,16.4462"
       id="path13" />
    <path
       fill="none"
       stroke="#000000"
       stroke-linecap="round"
       stroke-linejoin="round"
       stroke-width="2"
       d="m 20.662,45.7805 c 0.78,3.1761 3.091,9.0738 9.8905,14.136"
       id="path14" />
    <path
       fill="none"
       stroke="#000000"
       stroke-linecap="round"
       stroke-linejoin="round"
       stroke-width="2"
       d="m 43.3209,43.47 c 0,0 -0.4327,4.7916 -6.6119,10.7171"
       id="path15" />
    <path
       fill="none"
       stroke="#000000"
       stroke-linecap="round"
       stroke-linejoin="round"
       stroke-width="2"
       d="m 52.7394,45.8433 a 25.1692,25.1692 0 0 1 -9.2432,13.59"
       id="path16" />
  </g>
</svg>
