<svg xmlns="http://www.w3.org/2000/svg" xmlns:svg="http://www.w3.org/2000/svg" id="emoji" width="55.026" height="41.495" version="1.1" viewBox="0 0 55.026 41.495"><g id="color" transform="translate(-10.838874,-15.218332)"><path id="Hiking_Boot_Color_1" fill="#a57939" d="m 11.8858,52.4674 c -0.3688,-6.2627 1.5818,-16.9916 2.1224,-18.043 l 0.0374,-13.5109 c 0,0 10.6921,-0.1226 13.854,-1.591 1.3724,-0.6373 3.6348,-1.9031 5.1773,-2.7855 a 1.0709,1.0709 0 0 1 1.6044,0.95 c -0.0684,3.6668 -0.0626,11.5241 1.1608,13.682 1.1185,1.9729 4.3469,4.1119 6.3355,5.6121 5.3352,4.0247 13.07,4.3073 16.4858,5.0048 5.3308,1.0883 5.9,5.6343 5.9,7.9125 0,7.2931 -17.9438,4.8129 -17.9438,4.8129 C 43.4947,54.341 39.3368,52.74 35.8556,52.55"/><path id="Hiking_Boot_Color_2" fill="#6a462f" d="m 11.84,53.209 c -0.0636,-1.08 0,-6.2566 0,-6.2566 12.1743,1.4221 38.3753,4.8793 52.6567,0.7787 a 5.4179,5.4179 0 0 1 -2.7282,6.1262 c -2.5564,1.4219 -8.0734,0.6116 -15.1487,0.4647 -3.1288,-0.0649 -7.27,-0.8124 -10.7508,-1.0025"/><rect id="Hiking_Boot_Color_3" width="17.221" height="3.435" x="11.84" y="52.278" fill="#3f3f3f"/></g><g id="line" transform="translate(-10.838874,-15.218332)"><path id="Hiking_Boot_Line_1" fill="none" stroke="#000" stroke-linecap="round" stroke-linejoin="round" stroke-width="2" d="m 11.8858,52.2778 c -0.3688,-6.2626 1.5818,-16.9916 2.1224,-18.043 l 0.0374,-13.5109 c 0,0 10.6921,-0.1226 13.854,-1.591 1.3724,-0.6373 3.6348,-1.9031 5.1773,-2.7855 a 1.0709,1.0709 0 0 1 1.6044,0.95 c -0.0684,3.6668 -0.0626,11.5241 1.1608,13.682 1.1185,1.9729 4.3469,4.1119 6.3355,5.6121 5.3352,4.0248 13.0351,4.5045 16.4858,5.0048 7.7281,1.12 6.928,9.9315 4.5453,11.5757 -3.7407,2.5814 -16.5893,1.15 -16.5893,1.15 -3.1247,-0.1707 -9.9086,-1.571 -13.39,-1.7611"/><rect id="Hiking_Boot_Line_2" width="17.221" height="3.435" x="11.84" y="52.278" fill="none" stroke="#000" stroke-linecap="round" stroke-linejoin="round" stroke-width="2"/><line id="Hiking_Boot_Line_3" x1="32.218" x2="29.381" y1="25.885" y2="25.871" fill="none" stroke="#000" stroke-linecap="round" stroke-linejoin="round" stroke-width="2"/><line id="Hiking_Boot_Line_4" x1="32.741" x2="29.982" y1="30.994" y2="31.656" fill="none" stroke="#000" stroke-linecap="round" stroke-linejoin="round" stroke-width="2"/><line id="Hiking_Boot_Line_5" x1="35.09" x2="32.741" y1="34.754" y2="36.344" fill="none" stroke="#000" stroke-linecap="round" stroke-linejoin="round" stroke-width="2"/><path id="Hiking_Boot_Line_6" fill="none" stroke="#000" stroke-linecap="round" stroke-linejoin="round" stroke-width="2" d="m 16.5226,48.3745 c 0,0 30.323,2.903 34.496,2.0077"/></g></svg>