<svg xmlns="http://www.w3.org/2000/svg" xmlns:svg="http://www.w3.org/2000/svg" id="emoji" width="48.006" height="55.082" version="1.1" viewBox="0 0 48.006 55.082"><g id="line-supplement" transform="translate(-11.948044,-11.336314)"><path id="path1" d="m 35.9772,30.4187 a 10.9345,10.9345 0 0 0 -10.8786,12.6553 2.5,2.5 0 0 1 1.3786,-0.4414 2.5356,2.5356 0 0 1 2.3448,1.4746 39.3435,39.3435 0 0 1 2.6435,-5.2178 3.39,3.39 0 0 1 2.6651,-1.9629 2.4872,2.4872 0 0 1 1.4521,0.4073 c 1.2295,-1.5811 2.6338,-1.69 3.6338,-1.1846 a 3.3452,3.3452 0 0 1 1.7051,2.76 2.554,2.554 0 0 1 0.83,0.2011 2.3206,2.3206 0 0 1 1.4755,2.2735 5.8368,5.8368 0 0 1 -0.6005,2.5029 2.6279,2.6279 0 0 1 0.6005,0.77 4.0262,4.0262 0 0 1 -0.12,3.6875 l -0.8525,1.6123 c -0.0711,0.2164 -0.1292,0.4324 -0.19,0.6486 A 11.01,11.01 0 0 0 35.9772,30.4184 Z"/></g><g id="color" transform="translate(-11.948044,-11.336314)"><circle id="circle1" cx="36.004" cy="35.318" r="23.9" fill="#fcea2b"/><path id="path2" fill="#fcea2b" d="m 35.6039,66.3682 c -0.0225,0 -0.0459,-0.001 -0.0684,-0.003 L 25.8363,65.666 A 0.95,0.95 0 0 1 24.973,64.5322 c 0.5381,-2.6924 0.9893,-4.709 1.23,-5.792 l 0.001,-0.0019 c -0.1533,-0.3145 -0.3066,-0.6406 -0.46,-0.9658 -0.1963,-0.418 -0.3925,-0.836 -0.59,-1.23 -0.2061,-0.4112 -0.6358,-1.2686 -1.2969,-8.64 -0.2021,-2.0176 -0.1514,-3.48 0.7246,-4.5029 a 2.4611,2.4611 0 0 1 1.9219,-0.9326 2.5354,2.5354 0 0 1 2.3447,1.4746 39.3438,39.3438 0 0 1 2.6436,-5.2178 3.39,3.39 0 0 1 2.665,-1.9629 2.4882,2.4882 0 0 1 1.4522,0.4072 c 1.23,-1.581 2.6338,-1.69 3.6338,-1.1845 a 3.345,3.345 0 0 1 1.705,2.76 2.5531,2.5531 0 0 1 0.83,0.2012 2.32,2.32 0 0 1 1.4756,2.2735 5.8357,5.8357 0 0 1 -0.6006,2.5029 2.6265,2.6265 0 0 1 0.6006,0.77 4.0262,4.0262 0 0 1 -0.12,3.6875 l -0.8526,1.6123 c -0.2158,0.6582 -0.3769,1.3184 -0.5332,1.959 l -0.122,0.498 a 21.71,21.71 0 0 1 -2.39,6.5274 5.8081,5.8081 0 0 1 -1.625,1.9775 c -0.0683,0.0664 -0.1338,0.1279 -0.1953,0.1865 a 1.7238,1.7238 0 0 0 -0.29,0.3076 l -0.0723,0.4434 a 36.5458,36.5458 0 0 0 -0.5019,3.7861 0.95,0.95 0 0 1 -0.9483,0.8907 z"/><path id="path3" d="m 35.9772,30.4187 a 10.9345,10.9345 0 0 0 -10.8786,12.6553 2.5,2.5 0 0 1 1.3786,-0.4414 2.5356,2.5356 0 0 1 2.3448,1.4746 39.3435,39.3435 0 0 1 2.6435,-5.2178 3.39,3.39 0 0 1 2.6651,-1.9629 2.4872,2.4872 0 0 1 1.4521,0.4073 c 1.2295,-1.5811 2.6338,-1.69 3.6338,-1.1846 a 3.3452,3.3452 0 0 1 1.7051,2.76 2.554,2.554 0 0 1 0.83,0.2011 2.3206,2.3206 0 0 1 1.4755,2.2735 5.8368,5.8368 0 0 1 -0.6005,2.5029 2.6279,2.6279 0 0 1 0.6005,0.77 4.0262,4.0262 0 0 1 -0.12,3.6875 l -0.8525,1.6123 c -0.0711,0.2164 -0.1292,0.4324 -0.19,0.6486 A 11.01,11.01 0 0 0 35.9772,30.4184 Z"/></g><g id="line" transform="translate(-11.948044,-11.336314)"><path id="path4" fill="none" stroke="#000" stroke-linecap="round" stroke-linejoin="round" stroke-width="2" d="m 42.8042,57.3184 a 22.9792,22.9792 0 1 0 -28.8,-15.2 23.7912,23.7912 0 0 0 7.1,10.8"/><path id="path5" fill="none" stroke="#000" stroke-linecap="round" stroke-linejoin="round" stroke-width="2" d="m 23.1042,26.0684 c 4.4,-0.1 7.9,-1.4 8.8,-3.1"/><path id="path6" fill="none" stroke="#000" stroke-linecap="round" stroke-linejoin="round" stroke-width="2" d="m 48.9042,26.0684 c -4.4,-0.1 -7.9,-1.4 -8.8,-3.1"/><path id="path7" fill="none" stroke="#000" stroke-linecap="round" stroke-linejoin="round" stroke-width="2" d="m 25.9042,64.7184 c 0.6,-3 1.1,-5.2 1.3,-6.1 -0.4,-0.8 -0.8,-1.7 -1.2,-2.5 -0.2,-0.4 -0.6,-1.6 -1.2,-8.3 -0.2,-2 -0.1,-3.1 0.5,-3.8 a 1.5628,1.5628 0 0 1 1.2,-0.6 c 1.3,0 1.7,1.2 2,2.4 l 0.1,0.3 0.2,0.6 a 39.4783,39.4783 0 0 1 3.5,-7.5 c 1.8,-3 3.5,-0.6 3.5,-0.6 2.2,-4.1 5,-0.8 4,1.3 a 1.9811,1.9811 0 0 1 1.6,-0.1 1.4158,1.4158 0 0 1 0.9,1.4 5.2848,5.2848 0 0 1 -0.9,2.8 2.1889,2.1889 0 0 1 1,0.9 3.0777,3.0777 0 0 1 -0.1,2.8 l -0.9,1.7 c -0.3,0.9 -0.5,1.8 -0.7,2.6 a 20.7835,20.7835 0 0 1 -2.3,6.3 4.7436,4.7436 0 0 1 -1.4,1.7 c -0.4,0.4 -0.7,0.6 -0.8,1 a 42.7765,42.7765 0 0 0 -0.6,4.4"/><path id="path8" fill="none" stroke="#000" stroke-linecap="round" stroke-linejoin="round" stroke-width="2" d="m 26.2418,43.4453 a 10.001,10.001 0 1 1 15.0545,6.31"/></g></svg>