<?xml version="1.0" encoding="UTF-8" standalone="no"?>
<svg
   id="emoji"
   viewBox="0 0 55.444504 61.479301"
   version="1.1"
   sodipodi:docname="1f973.svg"
   width="55.444504"
   height="61.479301"
   xmlns:inkscape="http://www.inkscape.org/namespaces/inkscape"
   xmlns:sodipodi="http://sodipodi.sourceforge.net/DTD/sodipodi-0.dtd"
   xmlns="http://www.w3.org/2000/svg"
   xmlns:svg="http://www.w3.org/2000/svg">
  <defs
     id="defs25" />
  <sodipodi:namedview
     id="namedview25"
     pagecolor="#ffffff"
     bordercolor="#000000"
     borderopacity="0.25"
     inkscape:showpageshadow="2"
     inkscape:pageopacity="0.0"
     inkscape:pagecheckerboard="0"
     inkscape:deskcolor="#d1d1d1" />
  <g
     id="color"
     transform="translate(-11.981995,-4.9801002)">
    <circle
       cx="36"
       cy="36"
       r="23"
       fill="#fcea2b"
       id="circle1" />
    <polygon
       fill="#f4aa41"
       points="33.0628,15.4465 15.0628,6.4465 17.0628,21.4465 "
       id="polygon1" />
    <polyline
       fill="#e27022"
       points="26.9838,12.4065 33.0628,15.4465 19.9118,20.3785"
       id="polyline1" />
    <polygon
       fill="#ea5a47"
       points="23.4538,10.5795 15.5628,13.9465 15.3958,10.8345 20.6208,8.8175 "
       id="polygon2" />
    <polyline
       fill="#d22f27"
       points="25.4208,12.3925 26.5628,11.9465 30.5628,12.9465 24.0628,15.7315"
       id="polyline2" />
    <polyline
       fill="#ea5a47"
       points="24.0628,15.7315 16.5588,18.9465 16.3958,15.9125 25.4208,12.3925"
       id="polyline3" />
  </g>
  <g
     id="line"
     transform="translate(-11.981995,-4.9801002)">
    <g
       id="g19">
      <g
         id="line-2">
        <path
           fill="none"
           stroke="#000000"
           stroke-linecap="round"
           stroke-linejoin="round"
           stroke-width="2"
           d="m 36.4495,42.1182 c 0,0 10.5509,3.1081 0.0462,5.5636 0,0 10.4821,2.9013 0.0408,4.9123"
           id="path3" />
        <path
           fill="none"
           stroke="#000000"
           stroke-linecap="round"
           stroke-linejoin="round"
           stroke-width="2"
           d="m 21.0196,27.355 c 0.7084,-1.3911 1.9076,-2.4701 3.3656,-3.028 1.3992,-0.711 3.0133,-0.8745 4.5266,-0.4585"
           id="path4" />
        <path
           fill="none"
           stroke="#000000"
           stroke-linecap="round"
           stroke-linejoin="round"
           stroke-width="2"
           d="m 50.6289,27.1092 c -1.6054,-2.7593 -4.838,-4.1297 -7.9374,-3.3648"
           id="path5" />
        <path
           fill="none"
           stroke="#000000"
           stroke-linecap="round"
           stroke-linejoin="round"
           stroke-width="2"
           d="m 23.4538,34.3787 c 2.5075,-1.2805 5.4716,-1.3051 8,-0.0664"
           id="path6" />
        <path
           fill="none"
           stroke="#000000"
           stroke-linecap="round"
           stroke-linejoin="round"
           stroke-width="2"
           d="m 40.7028,34.2355 c 2.5075,-1.2805 5.4716,-1.3051 8,-0.0665"
           id="path7" />
        <path
           fill="none"
           stroke="#000000"
           stroke-linecap="round"
           stroke-linejoin="round"
           stroke-width="2"
           d="M 45.9475,15.294 C 57.3967,20.7967 62.2173,34.5389 56.7146,45.988 51.2119,57.4371 37.4697,62.2578 26.0206,56.7551 14.5715,51.2524 9.7508,37.5103 15.2535,26.0611 c 0.3849,-0.8008 0.8159,-1.5787 1.2907,-2.3296"
           id="path8" />
        <path
           fill="none"
           stroke="#000000"
           stroke-linecap="round"
           stroke-linejoin="round"
           stroke-width="2"
           d="m 34.9564,13.0521 c 0.2775,-0.0123 0.5563,-0.0196 0.8362,-0.0219 3.5138,-0.0343 6.9884,0.7403 10.1549,2.2638"
           id="path9" />
      </g>
      <g
         id="g11">
        <line
           x1="17.3843"
           x2="14.5628"
           y1="20.980101"
           y2="5.9801002"
           fill="none"
           stroke="#000000"
           stroke-linecap="round"
           stroke-linejoin="round"
           stroke-width="2"
           id="line9" />
        <line
           x1="33.562801"
           x2="14.5628"
           y1="15.2458"
           y2="5.9801002"
           fill="none"
           stroke="#000000"
           stroke-linecap="round"
           stroke-linejoin="round"
           stroke-width="2"
           id="line10" />
        <line
           x1="17.3843"
           x2="33.562801"
           y1="20.980101"
           y2="15.2458"
           fill="none"
           stroke="#000000"
           stroke-linecap="round"
           stroke-linejoin="round"
           stroke-width="2"
           id="line11" />
      </g>
      <path
         fill="none"
         stroke="#000000"
         stroke-linecap="round"
         stroke-linejoin="round"
         stroke-width="2"
         d="m 61.9463,11.6129 c -0.0716,0.5158 -0.2255,1.0168 -0.4556,1.484 -1.2886,2.5208 -4.3362,3.5763 -6.9079,2.3925"
         id="path11" />
      <path
         fill="none"
         stroke="#000000"
         stroke-linecap="round"
         stroke-linejoin="round"
         stroke-width="2"
         d="m 66.4265,43.3491 c -0.5082,-0.1136 -0.995,-0.3079 -1.4418,-0.5754 -2.4074,-1.4903 -3.2103,-4.6144 -1.82,-7.0809"
         id="path12" />
      <path
         fill="none"
         stroke="#000000"
         stroke-linecap="round"
         stroke-linejoin="round"
         stroke-width="2"
         d="m 61.9463,62.9681 c -0.0716,-0.5158 -0.2255,-1.0168 -0.4556,-1.484 -1.2886,-2.5208 -4.3362,-3.5763 -6.9079,-2.3925"
         id="path13" />
      <path
         fill="none"
         stroke="#000000"
         stroke-linecap="round"
         stroke-linejoin="round"
         stroke-width="2"
         d="m 24.7394,55.925 c -0.3282,-0.4043 -0.7191,-0.7534 -1.1578,-1.0341 -2.4073,-1.4907 -5.562,-0.8167 -7.15,1.5276"
         id="path14" />
      <path
         d="m 62.2115,25.4594 c 0.8284,-0.0287 1.4767,-0.7235 1.448,-1.552 -0.0273,-0.7881 -0.6599,-1.4207 -1.448,-1.448 -0.8284,0.0287 -1.4767,0.7235 -1.448,1.552 0.0273,0.7881 0.6599,1.4207 1.448,1.448 z"
         id="path15" />
      <path
         d="m 62.2115,50.4594 c 0.8284,-0.0287 1.4767,-0.7235 1.448,-1.552 -0.0273,-0.7881 -0.6599,-1.4207 -1.448,-1.448 -0.8284,0.0287 -1.4767,0.7235 -1.448,1.552 0.0273,0.7881 0.6599,1.4207 1.448,1.448 z"
         id="path16" />
      <path
         d="m 29.2115,66.4594 c 0.8284,-0.0287 1.4767,-0.7235 1.448,-1.552 -0.0273,-0.7881 -0.6599,-1.4207 -1.448,-1.448 -0.8284,0.0287 -1.4767,0.7235 -1.448,1.552 0.0273,0.7881 0.6599,1.4207 1.448,1.448 z"
         id="path17" />
      <path
         d="m 20.2115,48.4594 c 0.8284,-0.0287 1.4767,-0.7235 1.448,-1.552 -0.0273,-0.7881 -0.6599,-1.4207 -1.448,-1.448 -0.8284,0.0287 -1.4767,0.7235 -1.448,1.552 0.0273,0.7881 0.6599,1.4207 1.448,1.448 z"
         id="path18" />
      <path
         d="m 44.2115,64.4594 c 0.8284,-0.0287 1.4767,-0.7235 1.448,-1.552 -0.0273,-0.7881 -0.6599,-1.4207 -1.448,-1.448 -0.8284,0.0287 -1.4767,0.7235 -1.448,1.552 0.0273,0.7881 0.6599,1.4207 1.448,1.448 z"
         id="path19" />
    </g>
    <path
       fill="none"
       stroke="#000000"
       stroke-linecap="round"
       stroke-linejoin="round"
       stroke-width="2"
       d="m 38.5628,47.9801 h 5.5 c 0,0 5.5,0 5.5,-3 0,-2.2319 -1.5221,-2.8033 -3.4339,-2.95"
       id="path20" />
  </g>
  <g
     id="color-foreground"
     transform="translate(-11.981995,-4.9801002)">
    <path
       fill="#8967aa"
       d="m 62.2115,25.457 c 0.8284,-0.0287 1.4767,-0.7235 1.448,-1.552 -0.0273,-0.7881 -0.6599,-1.4207 -1.448,-1.448 -0.8284,0.0287 -1.4767,0.7235 -1.448,1.552 0.0273,0.7881 0.6599,1.4207 1.448,1.448 z"
       id="path21" />
    <path
       fill="#8967aa"
       d="m 44.2115,64.457 c 0.8284,-0.0287 1.4767,-0.7235 1.448,-1.552 -0.0273,-0.7881 -0.6599,-1.4207 -1.448,-1.448 -0.8284,0.0287 -1.4767,0.7235 -1.448,1.552 0.0273,0.7881 0.6599,1.4207 1.448,1.448 z"
       id="path22" />
    <path
       fill="#f4aa41"
       d="m 29.2115,66.457 c 0.8284,-0.0287 1.4767,-0.7235 1.448,-1.552 -0.0273,-0.7881 -0.6599,-1.4207 -1.448,-1.448 -0.8284,0.0287 -1.4767,0.7235 -1.448,1.552 0.0273,0.7881 0.6599,1.4207 1.448,1.448 z"
       id="path23" />
    <path
       fill="#d22f27"
       d="m 20.2115,48.457 c 0.8284,-0.0287 1.4767,-0.7235 1.448,-1.552 -0.0273,-0.7881 -0.6599,-1.4207 -1.448,-1.448 -0.8284,0.0287 -1.4767,0.7235 -1.448,1.552 0.0273,0.7881 0.6599,1.4207 1.448,1.448 z"
       id="path24" />
    <path
       fill="#d22f27"
       d="m 62.2115,50.457 c 0.8284,-0.0287 1.4767,-0.7235 1.448,-1.552 -0.0273,-0.7881 -0.6599,-1.4207 -1.448,-1.448 -0.8284,0.0287 -1.4767,0.7235 -1.448,1.552 0.0273,0.7881 0.6599,1.4207 1.448,1.448 z"
       id="path25" />
  </g>
</svg>
