<svg xmlns="http://www.w3.org/2000/svg" xmlns:svg="http://www.w3.org/2000/svg" id="emoji" width="54.973" height="64.087" version="1.1" viewBox="0 0 54.973 64.087"><g id="color" transform="translate(-6.4396606,-3.9389)"><path id="path1" fill="#fff" stroke="none" d="m 55.0252,31.0855 1.2292,9.9167 c 0,0 -1,6.75 4.6667,3.8333 l -1.6667,-3.1667 1.0833,-4.5833 -0.9167,-4.1667 z"/><path id="path2" fill="#a57939" stroke="none" d="m 17.7127,20.398 -10.375,5.625 0.625,2.1875 c 0,0 6.625,0.3125 7.25,1.6875 0.625,1.375 -2.375,13.8125 10.875,18.4375 l 3.375,15.25 c 0,0 -1.75,4.5625 -1.5625,4.4375 0.1875,-0.125 2.875,-0.0625 2.875,-0.0625 l 1.875,-5.5625 -0.25,-7.8125 -0.5,-5 4.3125,0.3125 7.25,-1.0625 4.3125,-0.1875 2.75,4.375 -2.9375,10.8125 -2.6875,4.125 h 3.875 l 5.5,-10.0625 1.25,-3.75 -1.75,-7.1875 3.3125,-9.8125 c 0,0 0.3125,-3.5625 -2.0625,-6.0625 -2.375,-2.5 -13.25,0.5 -13.25,0.5 l -11.5625,-1.4375 -4.3125,0.3125 -1.4375,-2.5 -0.6875,-2.8125 c 0,0 3,-0.125 3.1875,-3.1875 0,0 -3.375,-2.75 -6.5,-0.1875 0,0 -2.5,-2.0625 -2.75,-1.375 z"/><polygon id="polygon2" fill="#6a462f" stroke="none" points="23.838 62.419 21.921 67.835 24.838 67.835 27.421 62.169 27.338 53.502 26.088 48.336 20.921 45.586 22.088 51.336"/></g><g id="line" transform="translate(-6.4396606,-3.9389)"><path id="path3" fill="none" stroke="#000" stroke-linecap="round" stroke-linejoin="round" stroke-miterlimit="10" stroke-width="2" d="M 28.1685,67.0208 29.3473,63.5681 25.9181,48.107 C 13.5946,44.2492 15.5254,30.4209 15.5254,30.4209 15.3333,28.6554 12.2016,28.6038 12.2016,28.6038 L 9.5517,28.8164 C 8.7512,28.8806 8.0077,28.3982 7.7401,27.6411 l -0.2103,-0.595 c -0.2696,-0.7629 0.0713,-1.6072 0.795,-1.969 l 9.0205,-4.5102 c 0,0 2.2172,-0.8563 3.168,1.5187 0,0 1.1184,-2.6975 6.4764,-0.5542 0,0 -0.4286,4.0721 -5.1437,4.0721"/><path id="path4" fill="none" stroke="#000" stroke-linecap="round" stroke-linejoin="round" stroke-miterlimit="10" stroke-width="2" d="m 33.0263,39.7485 0.5358,5.6795 c 0,0 -3.0005,3.0188 -2.1432,9.0642"/><polyline id="polyline4" fill="none" stroke="#000" stroke-linecap="round" stroke-linejoin="round" stroke-miterlimit="10" stroke-width="2" points="23.096 51.184 24.061 62.663 22.239 66.842"/><path id="path5" fill="none" stroke="#000" stroke-linecap="round" stroke-linejoin="round" stroke-miterlimit="10" stroke-width="2" d="m 23.7837,28.6554 c 0,0 0.671,3.2268 4.8768,1.8649 0.9554,-0.3094 1.9838,-0.2964 2.9608,-0.064 2.4541,0.5839 10.0605,1.4413 13.8729,0.783 0.5614,-0.0969 1.1066,-0.2553 1.637,-0.4631 1.5592,-0.6108 6.7173,-2.1085 11.707,2.3083 2.0034,1.7733 1.7879,4.751 1.0301,7.2283 -0.0102,0.0336 -0.8683,2.7102 0.5438,3.7727"/><polyline id="polyline5" fill="none" stroke="#000" stroke-linecap="round" stroke-linejoin="round" stroke-miterlimit="10" stroke-width="2" points="47.636 37.391 46.778 46.584 50.85 53.251 47.468 63.891 45.117 67.021"/><path id="path6" fill="none" stroke="#000" stroke-linecap="round" stroke-linejoin="round" stroke-miterlimit="10" stroke-width="2" d="m 56.125,37.391 c 0,0 0.9716,4.995 -2.0778,9.7294 0,0 0.1072,3.88 1.3931,6.2375 l -2.036,4.1551"/><path id="path7" fill="none" stroke="#000" stroke-linecap="round" stroke-linejoin="round" stroke-miterlimit="10" stroke-width="2" d="m 18.2026,20.2453 c 0,0 0.8573,-4.1257 7.5548,-2.4647 0,0 6.001,0.4822 7.9835,-5.1437 1.9825,-5.6259 -2.1788,-7.698 -2.1788,-7.698"/><path id="path8" fill="none" stroke="#000" stroke-linecap="round" stroke-linejoin="round" stroke-miterlimit="10" stroke-width="2" d="m 37.8498,8.1547 c 0,0 2.8621,1.9342 0.2904,4.8651 -2.5013,2.8506 -4.8487,2.0226 -4.8487,2.0226"/><path id="path9" fill="none" stroke="#000" stroke-linecap="round" stroke-linejoin="round" stroke-miterlimit="10" stroke-width="2" d="m 14.5055,11.0295 c 0,0 -1.2151,4.9964 1.2859,6.9654 2.501,1.969 2.4111,2.5629 2.4111,2.5629"/><path id="path10" fill="none" stroke="#000" stroke-linecap="round" stroke-linejoin="round" stroke-miterlimit="10" stroke-width="2" d="m 27.847,10.6544 c 0,0 -1.3159,1.711 0.1307,4.1802 0,0 0.6376,1.6171 -0.6575,2.8709"/><path id="path11" fill="none" stroke="#000" stroke-linecap="round" stroke-linejoin="round" stroke-miterlimit="10" stroke-width="2" d="m 20.5065,17.7055 c 0,0 -1.9289,-2.3896 0.6965,-5.015"/><path id="path12" fill="none" stroke="#000" stroke-linecap="round" stroke-linejoin="round" stroke-miterlimit="10" stroke-width="2" d="m 36.24,48.9236 c 4.753,0.5107 8.8861,0.5288 11.6242,-0.5618"/></g></svg>