<?xml version="1.0" encoding="UTF-8" standalone="no"?>
<svg
   id="emoji"
   viewBox="0 0 45.306202 51.468037"
   version="1.1"
   sodipodi:docname="1f983.svg"
   width="45.306202"
   height="51.468037"
   xmlns:inkscape="http://www.inkscape.org/namespaces/inkscape"
   xmlns:sodipodi="http://sodipodi.sourceforge.net/DTD/sodipodi-0.dtd"
   xmlns="http://www.w3.org/2000/svg"
   xmlns:svg="http://www.w3.org/2000/svg">
  <defs
     id="defs5" />
  <sodipodi:namedview
     id="namedview5"
     pagecolor="#ffffff"
     bordercolor="#000000"
     borderopacity="0.25"
     inkscape:showpageshadow="2"
     inkscape:pageopacity="0.0"
     inkscape:pagecheckerboard="0"
     inkscape:deskcolor="#d1d1d1" />
  <g
     id="color"
     transform="translate(-15.693797,-9.5319626)">
    <path
       fill="#ea5a47"
       stroke="#ea5a47"
       stroke-linecap="round"
       stroke-linejoin="round"
       stroke-miterlimit="10"
       stroke-width="2"
       d="M 29.5,28.25 C 29,24.5 30,27 32.75,21 c 2.75,-6 -1,-8 -1,-8 C 23,5 18,19 18,19 c 2,-4 7,-2 7,-2 l -1,3 2,2 -3.9167,2.8333 -3,4.0833 L 18,33 c 0,0 -0.1667,2.25 2,3 2.1667,0.75 11,-1 11,-1 z"
       id="path1" />
    <path
       fill="#a57939"
       stroke="#a57939"
       stroke-miterlimit="10"
       stroke-width="2"
       d="M 43,49 C 41,52 34.0645,54.6585 26.5953,53.6317 22,53 15.125,49 17,42 21.2595,26.098 39,32 39,32 c 0,0 0.5,-15.75 9.75,-16.375 9.25,-0.625 -2,10.75 -2,10.75 0,0 4.25,-5.375 8.25,-3.375 4,2 -1.75,6 -4.875,6.5 C 47,30 57,28 59,30 c 2,2 0.375,3 -6,4 -6.375,1 7,-1 7,2 0,3 -7,4 -7,4 0,0 3.5,-0.75 5.25,2.125 C 60,45 52.25,45 52.25,45 c 0,0 7.75,3 5.75,6 -2,3 -11,-1 -11,-3"
       id="path2" />
  </g>
  <g
     id="hair"
     transform="translate(-15.693797,-9.5319626)" />
  <g
     id="skin"
     transform="translate(-15.693797,-9.5319626)" />
  <g
     id="skin-shadow"
     transform="translate(-15.693797,-9.5319626)" />
  <g
     id="line"
     transform="translate(-15.693797,-9.5319626)">
    <polyline
       fill="none"
       stroke="#000000"
       stroke-linecap="round"
       stroke-linejoin="round"
       stroke-miterlimit="10"
       stroke-width="2"
       points="28,53.875 28,59 25,60"
       id="polyline2" />
    <line
       x1="31"
       x2="28"
       y1="59"
       y2="59"
       fill="none"
       stroke="#000000"
       stroke-linecap="round"
       stroke-linejoin="round"
       stroke-miterlimit="10"
       stroke-width="2"
       id="line2" />
    <polyline
       fill="none"
       stroke="#000000"
       stroke-linecap="round"
       stroke-linejoin="round"
       stroke-miterlimit="10"
       stroke-width="2"
       points="36,53.875 36,59 33,60"
       id="polyline3" />
    <line
       x1="39"
       x2="36"
       y1="59"
       y2="59"
       fill="none"
       stroke="#000000"
       stroke-linecap="round"
       stroke-linejoin="round"
       stroke-miterlimit="10"
       stroke-width="2"
       id="line3" />
    <path
       fill="none"
       stroke="#000000"
       stroke-linecap="round"
       stroke-linejoin="round"
       stroke-miterlimit="10"
       stroke-width="2"
       d="M 43,49 C 41,52 34.0645,54.6585 26.5953,53.6317 22,53 15.125,49 17,42 21.2595,26.098 39,32 39,32 c 0,0 0.5,-15.75 9.75,-16.375 9.25,-0.625 -2,10.75 -2,10.75 0,0 4.25,-5.375 8.25,-3.375 4,2 -1.75,6 -4.875,6.5 C 47,30 57,28 59,30 c 2,2 0.375,3 -6,4 -6.375,1 7,-1 7,2 0,3 -7,4 -7,4 0,0 3.5,-0.75 5.25,2.125 C 60,45 52.25,45 52.25,45 c 0,0 7.75,3 5.75,6 -2,3 -11,-1 -11,-3"
       id="path3" />
    <path
       fill="none"
       stroke="#000000"
       stroke-linecap="round"
       stroke-linejoin="round"
       stroke-miterlimit="10"
       stroke-width="2"
       d="m 25,17 c 0,0 -5,-2 -7,2 0,0 5,-14 13.75,-6 0,0 3.75,2 1,8 C 30,27 29,24.5 29.5,28.25"
       id="path4" />
    <path
       fill="none"
       stroke="#000000"
       stroke-linecap="round"
       stroke-linejoin="round"
       stroke-miterlimit="10"
       stroke-width="2"
       d="m 24,20 c 0,0 2,2 -1.375,4.25 C 17,28 18.25,32.875 18.25,32.875"
       id="path5" />
  </g>
</svg>
