<?xml version="1.0" encoding="UTF-8" standalone="no"?>
<svg
   id="emoji"
   viewBox="0 0 69.490051 51.312492"
   version="1.1"
   sodipodi:docname="1f987.svg"
   width="69.490051"
   height="51.312492"
   xmlns:inkscape="http://www.inkscape.org/namespaces/inkscape"
   xmlns:sodipodi="http://sodipodi.sourceforge.net/DTD/sodipodi-0.dtd"
   xmlns="http://www.w3.org/2000/svg"
   xmlns:svg="http://www.w3.org/2000/svg">
  <defs
     id="defs4" />
  <sodipodi:namedview
     id="namedview4"
     pagecolor="#ffffff"
     bordercolor="#000000"
     borderopacity="0.25"
     inkscape:showpageshadow="2"
     inkscape:pageopacity="0.0"
     inkscape:pagecheckerboard="0"
     inkscape:deskcolor="#d1d1d1" />
  <g
     id="color"
     transform="translate(-1.5926626,-11.959479)">
    <path
       fill="#3f3f3f"
       stroke="none"
       d="m 25.5252,30.898 c -2.3813,-1.68 -3.9042,-4.1204 -3.9326,-9.0256 -6.2917,-12.3683 -15.8333,-7.6799 -19,-2.2433 7.8333,0.9798 4,14.6667 4,14.6667 10,-0.5 7.3714,10.1238 7.3714,10.1238 10.087,-3.1417 16.7953,6.148 16.7953,6.148 -1.648,2.36 -1.8159,6.5996 -0.3112,7.4402 1.5047,0.8406 6.6325,4.2642 6.6325,4.2642 l 4.6115,-4.752 c 0,0 2.1197,-2.0094 -2.1947,-7.0703 2.5572,-5.0901 5.9141,-7.7066 11.6354,-7.725 1.6323,-12.2941 10.176,-11.3334 10.176,-11.3334 0.9549,-10.5438 8.774,-13.0505 8.774,-13.0505 C 59.0926,7.1309 47.0926,16.129 44.797,20.7561 44.5087,21.3373 44.4031,27.6753 41.4001,30.3355 36.3207,33.04 31.0574,33.5633 25.5252,30.898 Z"
       id="path1" />
    <path
       fill="#3f3f3f"
       stroke="none"
       d="M 30.4007,35.4677 C 27.2151,32.9585 27.7339,29.18 27.7339,29.18 l 0.706,-6.3877 c 0,0 3.373,3.7061 3.448,3.9106 l 2.5254,0.2349 3.0896,-4.4012 c 0,0 2.7828,10.0625 -0.6418,13.1611"
       id="path2" />
  </g>
  <g
     id="hair"
     transform="translate(-1.5926626,-11.959479)" />
  <g
     id="skin"
     transform="translate(-1.5926626,-11.959479)" />
  <g
     id="skin-shadow"
     transform="translate(-1.5926626,-11.959479)" />
  <g
     id="line"
     transform="translate(-1.5926626,-11.959479)">
    <path
       fill="none"
       stroke="#000000"
       stroke-linecap="round"
       stroke-linejoin="round"
       stroke-miterlimit="10"
       stroke-width="2"
       d="m 24.7381,31.5162 c -2.3813,-1.68 -3.1171,-4.7386 -3.1455,-9.6438 -6.2917,-12.3683 -15.8333,-7.6799 -19,-2.2433 7.8333,0.9798 4,14.6667 4,14.6667 10,-0.5 7.3714,10.1238 7.3714,10.1238 10.087,-3.1417 16.7953,6.148 16.7953,6.148 -1.648,2.36 -1.8159,6.5996 -0.3112,7.4402 1.5047,0.8406 6.6325,4.2642 6.6325,4.2642 l 4.6115,-4.752 c 0,0 2.1197,-2.0094 -2.1947,-7.0703 2.5572,-5.0901 5.9141,-7.7066 11.6354,-7.725 1.6323,-12.2941 10.176,-11.3334 10.176,-11.3334 0.9549,-10.5438 8.774,-13.0505 8.774,-13.0505 C 59.0926,7.1309 47.0926,16.129 44.797,20.7561 c -0.2883,0.5812 0.4585,7.3598 -2.5445,10.02"
       id="path3" />
    <path
       fill="none"
       stroke="#000000"
       stroke-linecap="round"
       stroke-linejoin="round"
       stroke-miterlimit="10"
       stroke-width="2"
       d="m 30.4007,35.1344 c -3.1856,-2.5092 -2.6668,-6.2877 -2.6668,-6.2877 l 0.706,-6.3877 c 0,0 3.373,3.7061 3.448,3.9106 l 2.5254,0.2349 3.0896,-4.4012 c 0,0 2.7828,10.0625 -0.6418,13.1611"
       id="path4" />
  </g>
</svg>
