<?xml version="1.0" encoding="UTF-8" standalone="no"?>
<svg
   id="emoji"
   viewBox="0 0 50.622101 63.752369"
   version="1.1"
   sodipodi:docname="1f98a.svg"
   width="50.622101"
   height="63.752369"
   xmlns:inkscape="http://www.inkscape.org/namespaces/inkscape"
   xmlns:sodipodi="http://sodipodi.sourceforge.net/DTD/sodipodi-0.dtd"
   xmlns="http://www.w3.org/2000/svg"
   xmlns:svg="http://www.w3.org/2000/svg">
  <defs
     id="defs16" />
  <sodipodi:namedview
     id="namedview16"
     pagecolor="#ffffff"
     bordercolor="#000000"
     borderopacity="0.25"
     inkscape:showpageshadow="2"
     inkscape:pageopacity="0.0"
     inkscape:pagecheckerboard="0"
     inkscape:deskcolor="#d1d1d1" />
  <g
     id="color"
     transform="translate(-10.688952,-4.2248372)">
    <path
       fill="#e27022"
       stroke="none"
       d="m 17.1228,5.3057 -3.3235,4.0423 -2.1112,12.8954 2.5003,11.9161 -2.5003,5.0356 0.4829,11.3882 2.2344,4.5 c 0,0 6.9323,-3.3333 8.7656,3.9167 l 12.9023,3.8333 13.216,-4.25 0.715,-2.439 3.5745,-2.2785 3.5235,0.5481 2.5725,-6.1293 0.6371,-6.2846 -1.7215,-6.5752 -0.7776,-1.2636 1.4468,-4.7673 0.2177,-8.9431 -0.9631,-9.823 -1.7047,-3.8692 -2.6385,-2.0919 -5.1846,6.5784 -5.482,6.707 H 42.171 l -5.1591,-1.4108 -9.1742,0.5805 -4.75,-5.0384 -3.2746,-5.1667 -2.6903,-1.611"
       id="path1" />
    <path
       fill="#ffffff"
       stroke="none"
       d="m 11.3377,45.0833 c 6.0422,-0.6554 11.9908,4.5417 15.9913,10.0022 v 0 l 6.0087,2.2478 2.6566,0.7608 3.0517,-0.8441 5.7089,-2.0836 c 0,0 5.0827,-11.2498 15.9161,-10.1392 L 58.5877,53.2814 56.9002,55 l -3.1875,-0.8438 -3.0625,1.3865 -1.5173,3.0909 c 0,0 -3.5452,4.4554 -12.8684,4.4497 -5.8283,-0.0036 -12.2601,-1.375 -13.473,-4.484 -0.8609,-2.2069 -3.8288,-5.0369 -3.8288,-5.0369 l -4.493,0.3564 z"
       id="path2" />
    <path
       fill="#d0cfce"
       stroke="none"
       d="m 28.796,60.9583 c 0,0 -0.3695,3.5417 1.3778,5.0417 1.7472,1.5 6.4139,1.7083 6.4139,1.7083 l 5.9583,-1.7917 c 0,0 1.7083,-1.6667 0.875,-5 l -2.75,0.7917 -6.4972,0.2083 z"
       id="path3" />
    <path
       fill="#ffffff"
       stroke="none"
       d="m 57.671,7.375 -3.0417,2.0417 -4.4583,5.9583 -1.5416,7.125 0.2083,1.9583 c 0,0 5,8.375 11.25,0.2917 l -0.5833,-8.5833 -0.9167,-7.25 z"
       id="path4" />
    <path
       fill="#ffffff"
       stroke="none"
       d="m 14.2714,7.375 3.0417,2.0417 4.4583,5.9583 1.5417,7.125 -0.2083,1.9583 c 0,0 -5,8.375 -11.25,0.2917 l 0.5833,-8.5833 0.9167,-7.25 z"
       id="path5" />
  </g>
  <g
     id="hair"
     transform="translate(-10.688952,-4.2248372)" />
  <g
     id="skin"
     transform="translate(-10.688952,-4.2248372)" />
  <g
     id="skin-shadow"
     transform="translate(-10.688952,-4.2248372)" />
  <g
     id="line"
     transform="translate(-10.688952,-4.2248372)">
    <path
       fill="#000000"
       stroke="none"
       d="m 29.0454,41.681 c 0,0 -3.0393,1.5997 -4.5092,1.0171 -1.4698,-0.5826 -2.2313,-2.14 -1.7007,-3.4785 0.5306,-1.3386 2.1522,-1.9514 3.622,-1.3688 1.4699,0.5826 2.5879,3.8302 2.5879,3.8302 z"
       id="path6" />
    <path
       fill="none"
       stroke="#000000"
       stroke-linecap="round"
       stroke-linejoin="round"
       stroke-miterlimit="10"
       stroke-width="2"
       d="m 35.9943,56.9292 c -1.513,-0.2346 -2.7355,-0.9125 -3.641,-2.075 v -0.698"
       id="path7" />
    <path
       fill="none"
       stroke="#000000"
       stroke-linecap="round"
       stroke-linejoin="round"
       stroke-miterlimit="10"
       stroke-width="2"
       d="m 16.9156,10.2884 c 0,0 7.7517,5.915 5.3244,13.6668"
       id="path8" />
    <path
       fill="none"
       stroke="#000000"
       stroke-linecap="round"
       stroke-linejoin="round"
       stroke-miterlimit="10"
       stroke-width="2"
       d="m 23.6069,58.0941 c -1.4877,-3.2886 -4.481,-4.3848 -5.1857,-4.2282 L 14.8977,54.414 C 12.2355,51.7518 11.7657,44.2349 11.7657,44.2349 11.332,39.4644 12.7959,36.1592 14.1884,34.1595 L 13.8015,33.4294 C 11.2959,27.2437 12.7836,17.7693 13.3317,11.7402 13.7292,7.3679 15.9385,5.824 17.1228,5.3057 17.5381,5.1239 18.0187,5.2458 18.3017,5.6 c 1.2956,1.6213 5.3162,6.5744 9.1241,10.4468 1.6822,1.7107 2.4508,3.2218 2.748,4.4518"
       id="path9" />
    <path
       fill="#000000"
       stroke="none"
       d="m 42.9546,41.681 c 0,0 3.0393,1.5997 4.5092,1.0171 1.4698,-0.5826 2.2313,-2.14 1.7007,-3.4785 -0.5306,-1.3385 -2.1522,-1.9514 -3.622,-1.3688 -1.4699,0.5826 -2.5879,3.8302 -2.5879,3.8302 z"
       id="path10" />
    <path
       fill="none"
       stroke="#000000"
       stroke-linecap="round"
       stroke-linejoin="round"
       stroke-miterlimit="10"
       stroke-width="2"
       d="m 36.0733,61.7083 v -4.7791 c 1.513,-0.2346 2.7355,-0.9125 3.641,-2.075 v -0.698"
       id="path11" />
    <path
       fill="none"
       stroke="#000000"
       stroke-linecap="round"
       stroke-linejoin="round"
       stroke-miterlimit="10"
       stroke-width="2"
       d="m 43.7468,50.1562 1.1745,5.8367 c 0,0 0,6.6555 -7.4385,6.1074 H 34.585 c -7.4385,0.5481 -7.4385,-6.1074 -7.4385,-6.1074 l 1.1745,-5.8367"
       id="path12" />
    <path
       fill="none"
       stroke="#000000"
       stroke-linecap="round"
       stroke-linejoin="round"
       stroke-miterlimit="10"
       stroke-width="2"
       d="m 55.0844,10.2884 c 0,0 -7.7517,5.915 -5.3244,13.6668"
       id="path13" />
    <path
       fill="none"
       stroke="#000000"
       stroke-linecap="round"
       stroke-linejoin="round"
       stroke-miterlimit="10"
       stroke-width="2"
       d="m 48.3931,58.0941 c 1.4877,-3.2886 4.481,-4.3848 5.1857,-4.2282 l 3.5235,0.5481 c 2.6622,-2.6622 3.132,-10.1791 3.132,-10.1791 0.4336,-4.7691 -1.0294,-8.0739 -2.4216,-10.0737 l 0.3858,-0.7317 C 60.7041,27.2438 59.2164,17.7694 58.6683,11.7403 58.2708,7.368 56.0615,5.8241 54.8772,5.3058 54.4619,5.1239 53.9814,5.2458 53.6983,5.6 c -1.2956,1.6213 -5.3162,6.5744 -9.1241,10.4468 -1.7324,1.7618 -2.4958,3.3118 -2.7734,4.5611"
       id="path14" />
    <path
       fill="none"
       stroke="#000000"
       stroke-linecap="round"
       stroke-linejoin="round"
       stroke-miterlimit="10"
       stroke-width="2"
       d="m 41.6672,65.4494 c -3.804,2.0509 -7.418,2.0886 -10.8055,0"
       id="path15" />
    <path
       fill="none"
       stroke="#000000"
       stroke-linecap="round"
       stroke-linejoin="round"
       stroke-miterlimit="10"
       stroke-width="2"
       d="m 29.0178,17.9521 c 0,0 6.0552,-3.1842 13.7809,-0.1044"
       id="path16" />
  </g>
</svg>
