<svg xmlns="http://www.w3.org/2000/svg" xmlns:svg="http://www.w3.org/2000/svg" id="emoji" width="66.533" height="24.124" version="1.1" viewBox="0 0 66.533 24.124"><g id="color" transform="translate(-2.465863,-30.247132)"><path id="path1" fill="#b1cc33" stroke="none" d="m 39.9167,47.3583 c 0,0 7.8819,-2.3583 13.9826,-0.8583 C 60,48 68,46 68,46 68,46 60.3333,46.6667 52.6667,42.3333 45.0001,37.9999 39,40.8333 32.5,40.4167 26,40 18.3333,35.8334 14.6667,33.4167 11,31 8.5833,31.25 8.5833,31.25 8.5833,31.25 8,32 6,33 c -2,1 -5,2 1,4 6,2 8.8333,5.8333 8.8333,5.8333 0,0 6,6.025 24.0834,4.525 z"/></g><g id="line" transform="translate(-2.465863,-30.247132)"><path id="path2" fill="none" stroke="#000" stroke-linecap="round" stroke-linejoin="round" stroke-miterlimit="10" stroke-width="2" d="m 39.9167,46.5 c 0,0 7.8819,-1.5 13.9826,0 C 60,48 68,46 68,46 68,46 60.3333,46.6667 52.6667,42.3333 45.0001,37.9999 39,40.8333 32.5,40.4167 26,40 18.3333,35.8334 14.6667,33.4167 11,31 8.5833,31.25 8.5833,31.25 8.5833,31.25 8,32 6,33 c -2,1 -5,2 1,4 6,2 8.8333,4.8333 8.8333,4.8333"/><path id="path3" fill="none" stroke="#000" stroke-linecap="round" stroke-linejoin="round" stroke-miterlimit="10" stroke-width="2" d="m 21.387,45.0264 c 0,0 5.7159,1.8069 10.613,1.3902"/><line id="line3" x1="19" x2="16" y1="43" y2="50" fill="none" stroke="#000" stroke-linecap="round" stroke-linejoin="round" stroke-miterlimit="10" stroke-width="2"/><line id="line4" x1="16" x2="15" y1="48" y2="48" fill="none" stroke="#000" stroke-linecap="round" stroke-linejoin="round" stroke-miterlimit="10" stroke-width="2"/><line id="line5" x1="17" x2="18" y1="48" y2="49" fill="none" stroke="#000" stroke-linecap="round" stroke-linejoin="round" stroke-miterlimit="10" stroke-width="2"/><line id="line6" x1="36.547" x2="36.079" y1="46.506" y2="53.371" fill="none" stroke="#000" stroke-linecap="round" stroke-linejoin="round" stroke-miterlimit="10" stroke-width="2"/><line id="line7" x1="35.418" x2="34.49" y1="51.73" y2="52.104" fill="none" stroke="#000" stroke-linecap="round" stroke-linejoin="round" stroke-miterlimit="10" stroke-width="2"/><line id="line8" x1="36.345" x2="37.603" y1="51.356" y2="51.803" fill="none" stroke="#000" stroke-linecap="round" stroke-linejoin="round" stroke-miterlimit="10" stroke-width="2"/></g></svg>