<svg xmlns="http://www.w3.org/2000/svg" xmlns:svg="http://www.w3.org/2000/svg" id="emoji" width="30.951" height="52.239" version="1.1" viewBox="0 0 30.951 52.239"><g id="color" transform="translate(-21.18647,-9.7604322)"><path id="path1" fill="#9b9b9a" stroke="#9b9b9a" stroke-linecap="round" stroke-linejoin="round" stroke-miterlimit="10" stroke-width="1.8" d="m 30,29 -3,2 c -9.5,4.375 -2,30 -2,30 0,0 8.75,-9.25 15.875,-10.125 C 48,50 51.75,36.75 50,32 l -2,-4"/><path id="path2" fill="#9b9b9a" stroke="none" d="M 30,30 C 30,30 23.5,24.5 29.75,15.25 29.75,15.25 29,12 27,12 c -2,0 5,-3 6,1 0,0 7,-3 11,0 0,0 5.25,-3.5 7.125,-1.75 0,0 -4.125,2.75 -2.125,4.75 2,2 4,10 -1,14"/><path id="path3" fill="#a57939" stroke="none" d="m 40,30 c 0,0 -10,0 -10,-7.875 0,-8.7341 8.1907,-4.7359 9,-3.125 0,0 7,-6 9.125,1.5 C 50.1834,27.7649 40,30 40,30 Z"/><path id="path4" fill="#a57939" stroke="none" d="m 25.0192,59 c 0,0 -0.8782,-7 1.9027,-9 C 29.7028,48 40,40 37,35"/></g><g id="line" transform="translate(-21.18647,-9.7604322)"><path id="path5" fill="none" stroke="#000" stroke-linecap="round" stroke-linejoin="round" stroke-miterlimit="10" stroke-width="1.5" d="m 37,22 c 0,0 0.5,-1.5 -3,-2"/><path id="path6" fill="none" stroke="#000" stroke-linecap="round" stroke-linejoin="round" stroke-miterlimit="10" stroke-width="1.5" d="m 41,22 c 0,0 -0.5,-1.5 3,-2"/><polyline id="polyline6" fill="none" stroke="#000" stroke-linecap="round" stroke-linejoin="round" stroke-miterlimit="10" stroke-width="1.5" points="37.625 25.43 39.375 27 41.375 25.344"/><path id="path7" fill="none" stroke="#000" stroke-linecap="round" stroke-linejoin="round" stroke-miterlimit="10" stroke-width="2" d="m 38,60 c 0,0 1,-4 -5,-3 v -2.375"/><path id="path8" fill="none" stroke="#000" stroke-linecap="round" stroke-linejoin="round" stroke-miterlimit="10" stroke-width="2" d="m 43,57.375 c 0,0 1,-4 -5,-3 V 52"/><path id="path9" fill="none" stroke="#000" stroke-linecap="round" stroke-linejoin="round" stroke-miterlimit="10" stroke-width="2" d="M 30,30 C 30,30 23.5,24.5 29.75,15.25 29.75,15.25 29,12 27,12 c -2,0 5,-3 6,1 0,0 7,-3 11,0 0,0 5.25,-3.5 7.125,-1.75 0,0 -4.125,2.75 -2.125,4.75 2,2 4,10 -1,14"/><path id="path10" fill="none" stroke="#000" stroke-linecap="round" stroke-linejoin="round" stroke-miterlimit="10" stroke-width="2" d="m 40,30 c 0,0 -10,0 -10,-7.875 0,-8.7341 8.1907,-4.7359 9,-3.125 0,0 7,-6 9.125,1.5 C 50.1834,27.7649 40,30 40,30 Z"/><path id="path11" fill="none" stroke="#000" stroke-linecap="round" stroke-linejoin="round" stroke-miterlimit="10" stroke-width="2" d="m 27,31 c -9.5,4.375 -2,30 -2,30 0,0 8.75,-9.25 15.875,-10.125 C 48,50 51.75,36.75 50,32"/><path id="path12" fill="none" stroke="#000" stroke-linecap="round" stroke-linejoin="round" stroke-miterlimit="10" stroke-width="2" d="m 25,59 c 0,0 -0.75,-7 1.625,-9 C 29,48 37,41 36,35"/></g></svg>