<?xml version="1.0" encoding="UTF-8" standalone="no"?>
<svg
   id="emoji"
   viewBox="0 0 27.314291 65.084869"
   version="1.1"
   sodipodi:docname="1f991.svg"
   width="27.314291"
   height="65.084869"
   xmlns:inkscape="http://www.inkscape.org/namespaces/inkscape"
   xmlns:sodipodi="http://sodipodi.sourceforge.net/DTD/sodipodi-0.dtd"
   xmlns="http://www.w3.org/2000/svg"
   xmlns:svg="http://www.w3.org/2000/svg">
  <defs
     id="defs15" />
  <sodipodi:namedview
     id="namedview15"
     pagecolor="#ffffff"
     bordercolor="#000000"
     borderopacity="0.25"
     inkscape:showpageshadow="2"
     inkscape:pageopacity="0.0"
     inkscape:pagecheckerboard="0"
     inkscape:deskcolor="#d1d1d1" />
  <g
     id="color"
     transform="translate(-22.748209,-3.9151291)">
    <path
       fill="#ffffff"
       stroke="none"
       d="m 43.5,42.5 c 0,3.866 -3.134,4 -7,4 -3.866,0 -7,-0.134 -7,-4 0,-3.866 3.134,-7 7,-7 3.866,0 7,3.134 7,7 z"
       id="path1" />
    <path
       fill="none"
       stroke="#ffffff"
       stroke-linecap="round"
       stroke-linejoin="round"
       stroke-miterlimit="10"
       stroke-width="2"
       d="M 25.2835,62.4614 C 29.1914,59.6942 32.9108,47.2868 32,45"
       id="path2" />
    <path
       fill="none"
       stroke="#ffffff"
       stroke-linecap="round"
       stroke-linejoin="round"
       stroke-miterlimit="10"
       stroke-width="2"
       d="m 32,58 c 0,0 3,-7 2,-13"
       id="path3" />
    <path
       fill="none"
       stroke="#ffffff"
       stroke-linecap="round"
       stroke-linejoin="round"
       stroke-miterlimit="10"
       stroke-width="2"
       d="m 37,45 c 0,0 1,9.5 -1.7449,14.0283 0,0 0.7449,5.0725 0.7449,6.3118"
       id="path4" />
    <line
       x1="38"
       x2="38"
       y1="62"
       y2="47"
       fill="none"
       stroke="#ffffff"
       stroke-linecap="round"
       stroke-linejoin="round"
       stroke-miterlimit="10"
       stroke-width="2"
       id="line4" />
    <path
       fill="none"
       stroke="#ffffff"
       stroke-linecap="round"
       stroke-linejoin="round"
       stroke-miterlimit="10"
       stroke-width="2"
       d="m 38.7413,45.6518 c 0,0 5.0712,17.5829 1.3744,22.1837"
       id="path5" />
    <line
       x1="40.1157"
       x2="45.148102"
       y1="45"
       y2="62"
       fill="none"
       stroke="#ffffff"
       stroke-linecap="round"
       stroke-linejoin="round"
       stroke-miterlimit="10"
       stroke-width="2"
       id="line5" />
    <path
       fill="none"
       stroke="#ffffff"
       stroke-linecap="round"
       stroke-linejoin="round"
       stroke-miterlimit="10"
       stroke-width="2"
       d="M 48.3081,62.915 C 46.0321,62.915 41.1884,48.6238 40.7078,47"
       id="path6" />
    <rect
       x="31"
       y="44.385101"
       width="11"
       height="11.6149"
       fill="#ffffff"
       stroke="none"
       id="rect6" />
    <path
       fill="#f4aa41"
       stroke="#f4aa41"
       stroke-miterlimit="10"
       stroke-width="2"
       d="m 34.3784,10 c -5.79,12.9984 -4.5556,22.9931 -4.1231,25.429 0.0639,0.3599 0.3185,0.6466 0.6698,0.7476 1.4744,0.4242 5.7267,1.3672 10.8636,-0.0046 0.3743,-0.1 0.6502,-0.4197 0.6987,-0.8041 0.37,-2.934 1.4,-15.6638 -6.1921,-29.3488 C 36.0012,5.489 35.2877,5.3649 34.8309,5.7633 33.2533,7.1395 29.7741,10.2346 26.1231,13.8771 26.0382,13.9618 25.9718,14.0564 25.9232,14.166 25.4067,15.3311 22.68,22.34 30,26"
       id="path7" />
    <path
       fill="#e27022"
       stroke="#e27022"
       stroke-miterlimit="10"
       d="m 41.4704,22 c 0,0 5.5151,-4.1668 2.7575,-8.3336 L 42.9835,11.5509 C 42.9743,11.5353 42.9668,11.5203 42.9598,11.5033 41.986,9.1324 40.079,4.797 37.3341,4.5 35.8369,4.338 35.2667,4.4037 35.4957,4.8119 L 36.4149,6.5"
       id="path8" />
  </g>
  <g
     id="hair"
     transform="translate(-22.748209,-3.9151291)" />
  <g
     id="skin"
     transform="translate(-22.748209,-3.9151291)" />
  <g
     id="skin-shadow"
     transform="translate(-22.748209,-3.9151291)" />
  <g
     id="line"
     transform="translate(-22.748209,-3.9151291)">
    <path
       fill="none"
       stroke="#000000"
       stroke-linecap="round"
       stroke-linejoin="round"
       stroke-miterlimit="10"
       stroke-width="2"
       d="M 32.6875,49.6875 C 32.6875,49.6875 33,54 31,57"
       id="path9" />
    <line
       x1="42"
       x2="43.8125"
       y1="55"
       y2="62.5"
       fill="none"
       stroke="#000000"
       stroke-linecap="round"
       stroke-linejoin="round"
       stroke-miterlimit="10"
       stroke-width="2"
       id="line9" />
    <path
       fill="none"
       stroke="#000000"
       stroke-linecap="round"
       stroke-linejoin="round"
       stroke-miterlimit="10"
       stroke-width="2"
       d="m 38,48 c 0,0 4,18 1,20"
       id="path10" />
    <line
       x1="37"
       x2="37"
       y1="58"
       y2="62"
       fill="none"
       stroke="#000000"
       stroke-linecap="round"
       stroke-linejoin="round"
       stroke-miterlimit="10"
       stroke-width="2"
       id="line10" />
    <path
       fill="none"
       stroke="#000000"
       stroke-linecap="round"
       stroke-linejoin="round"
       stroke-miterlimit="10"
       stroke-width="2"
       d="m 36,48 c 0,0 -1,8 -2,10 -1,2 1,8 1,8"
       id="path11" />
    <circle
       cx="32.222198"
       cy="42"
       r="1.2222"
       fill="#000000"
       stroke="none"
       id="circle11" />
    <circle
       cx="40.777802"
       cy="42"
       r="1.2222"
       fill="#000000"
       stroke="none"
       id="circle12" />
    <path
       fill="none"
       stroke="#000000"
       stroke-linecap="round"
       stroke-linejoin="round"
       stroke-miterlimit="10"
       stroke-width="2"
       d="m 34.3784,10 c -6.6815,15 -4.0089,26 -4.0089,26 0,0 5.3452,2 12.0268,0 0,0 2.6726,-15 -6.6816,-31 0,0 -4.7147,4 -9.7147,9 0,0 -5.6816,6 1,10"
       id="path12" />
    <path
       fill="none"
       stroke="#000000"
       stroke-linecap="round"
       stroke-linejoin="round"
       stroke-miterlimit="10"
       stroke-width="2"
       d="m 42,22 c 0,0 6,-4 3,-8 L 41,8"
       id="path13" />
    <path
       fill="none"
       stroke="#000000"
       stroke-linecap="round"
       stroke-linejoin="round"
       stroke-miterlimit="10"
       stroke-width="2"
       d="m 31.0625,37.3125 c 0,0 -1.6875,4.0625 -0.375,6.875 C 32,47 25,62 24,62"
       id="path14" />
    <path
       fill="none"
       stroke="#000000"
       stroke-linecap="round"
       stroke-linejoin="round"
       stroke-miterlimit="10"
       stroke-width="2"
       d="m 42,37.3125 c 0,0 1.6875,4.0625 0.375,6.875 C 41.0625,47 48.0625,62 49.0625,62"
       id="path15" />
  </g>
</svg>
