<svg xmlns="http://www.w3.org/2000/svg" xmlns:svg="http://www.w3.org/2000/svg" id="emoji" width="63.489" height="32.943" version="1.1" viewBox="0 0 63.489 32.943"><g id="color" transform="translate(-4.2614002,-19.508922)"><path id="path1" fill="#3f3f3f" d="m 18.9388,41.85 a 11.0562,11.0562 0 0 0 2.6675,6.8626 h 0.0111 c 2.8225,-0.1218 3.066,1.7378 3.0439,2.4794 a 1.6765,1.6765 0 0 1 -0.0222,0.2988 H 19.6914 L 19.68,51.48 h -0.011 c -3.3981,-1.3282 -5.0764,-4.1679 -5.8844,-7.732 z"/><path id="path2" fill="#3f3f3f" d="m 46.3215,50.97 h -4.5727 c -1.6533,-2.18 -0.516,-9.57 -0.516,-9.57 a 2.1562,2.1562 0 0 1 1.114,1.25 c 0.3281,4.12 1.7117,6.81 3.9747,8.32 z"/><path id="path3" fill="#9b9b9a" d="m 66.4915,46.6305 -2.23,-6.04 c 2.28,-1.11 1.44,-1.76 1.44,-1.76 -2.88,-2.04 -0.84,-3.74 -0.84,-3.74 a 4.2769,4.2769 0 0 1 -0.47,0.09 2.8419,2.8419 0 0 1 -1.92,-0.45 l -2.57,-1.67 a 4.9849,4.9849 0 0 1 -1.3,-1.25 23.0591,23.0591 0 0 0 -7.04,-6.33 28.0481,28.0481 0 0 0 -3.93,-1.93 c -0.38,-0.14 -0.77,-0.28 -1.16,-0.4 a 19.4188,19.4188 0 0 0 -5.87,-1 2.6456,2.6456 0 0 0 -0.28,-0.01 c -0.22,-0.01 -0.43,-0.01 -0.65,-0.01 a 23.1483,23.1483 0 0 0 -2.51,0.14 c -8.64,0.69 -12.81,-1.44 -17.2,-1.73 -6.66,-0.44 -12.02,3.74 -14.27,10.36 a 4.0813,4.0813 0 0 0 -0.43,1.65 c 0,0 0.16,1.54 1.61,0.41 a 8.2794,8.2794 0 0 0 -0.04,0.86 9.1669,9.1669 0 0 0 2.74,6.54 10.023,10.023 0 0 0 -0.9,4.14 9.8288,9.8288 0 0 0 2.05,6.04 h 5.02 c 0,0 0,-1.84 -1.48,-2.1 a 1.646,1.646 0 0 1 -1.42,-1.57 v -0.63 a 4.1069,4.1069 0 0 1 1.2,-2.79 5.095,5.095 0 0 1 0.62,-0.61 c 0.01,0 0.01,-0.01 0.02,-0.02 a 5.4358,5.4358 0 0 1 4.81,-0.99 5.1115,5.1115 0 0 1 0.63,0.2 22.61,22.61 0 0 0 8.08,1.64 c 0.16,0.01 0.31,0.01 0.47,0.01 a 22.7584,22.7584 0 0 0 7.46,-1.24 22.976,22.976 0 0 0 3.41,-1.48 2.7925,2.7925 0 0 1 1.49,-0.34 2.3888,2.3888 0 0 1 1.13,0.35 2.0806,2.0806 0 0 1 0.95,1.25 c 0.28,4.12 1.46,6.81 3.39,8.32 h 4.96 a 0.7,0.7 0 0 0 0.32,-1.32 c -1.63,-0.86 -3.28,-2.14 -3.39,-3.79 -0.21,-3.3 0.99,-4.08 0.99,-4.08 l 3.34,3.44 a 1.4092,1.4092 0 0 0 0.63,0.38 l 0.92,0.27 a 1.3751,1.3751 0 0 1 0.67,0.41 l 2.81,3.11 a 7.19,7.19 0 0 0 4.96,2.47 3.94,3.94 0 0 0 2.95,-0.9 3.5626,3.5626 0 0 0 0.83,-3.9 z"/></g><g id="line" transform="translate(-4.2614002,-19.508922)"><path id="path4" fill="none" stroke="#000" stroke-linecap="round" stroke-linejoin="round" stroke-width="2" d="m 47.6314,23.55 c -0.38,-0.14 -0.77,-0.28 -1.16,-0.4"/><path id="path5" fill="none" stroke="#000" stroke-linecap="round" stroke-linejoin="round" stroke-width="2" d="m 19.4914,41.83 a 9.9887,9.9887 0 0 0 2.41,6.2 h 0.01 c 2.55,-0.11 2.77,1.57 2.75,2.24 a 1.52,1.52 0 0 1 -0.02,0.27"/><path id="path6" fill="none" stroke="#000" stroke-linecap="round" stroke-linejoin="round" stroke-width="2" d="m 46.5014,50.54 c -1.93,-1.51 -3.11,-4.2 -3.39,-8.32 a 2.08,2.08 0 0 0 -0.95,-1.25 2.4488,2.4488 0 0 0 -1.13,-0.35"/><path id="path7" fill="none" stroke="#000" stroke-linecap="round" stroke-linejoin="round" stroke-width="2" d="m 42.6014,50.54 h 8.86 a 0.7,0.7 0 0 0 0.32,-1.32 c -0.18,-0.09 -0.35,-0.19 -0.53,-0.3 -1.44,-0.84 -2.76,-2.02 -2.86,-3.49 -0.21,-3.3 0.99,-4.08 0.99,-4.08 l 1.39,1.43 1.95,2.01 a 1.4087,1.4087 0 0 0 0.63,0.38 l 0.92,0.27 a 1.376,1.376 0 0 1 0.67,0.41 l 2.81,3.11 a 7.1909,7.1909 0 0 0 4.96,2.47 3.9408,3.9408 0 0 0 2.95,-0.9 3.5629,3.5629 0 0 0 0.83,-3.9 l -2.23,-6.04 c 2.28,-1.11 1.44,-1.76 1.44,-1.76 -2.88,-2.04 -0.84,-3.74 -0.84,-3.74 a 4.2989,4.2989 0 0 1 -0.47,0.09 2.8423,2.8423 0 0 1 -1.92,-0.45 l -2.57,-1.67 a 4.9849,4.9849 0 0 1 -1.3,-1.25 23.0578,23.0578 0 0 0 -7.04,-6.33 28.0479,28.0479 0 0 0 -3.93,-1.93 c -0.38,-0.14 -0.77,-0.28 -1.16,-0.4 a 19.4188,19.4188 0 0 0 -5.87,-1 2.62,2.62 0 0 0 -0.28,-0.01 c -0.22,-0.01 -0.43,-0.01 -0.65,-0.01 a 23.1723,23.1723 0 0 0 -2.51,0.14 c -8.64,0.69 -12.81,-1.44 -17.2,-1.73 -6.66,-0.44 -12.02,3.74 -14.27,10.36 a 4.0791,4.0791 0 0 0 -0.43,1.65 c 0,0 0.16,1.54 1.61,0.41 a 8.25,8.25 0 0 0 -0.04,0.86 9.1671,9.1671 0 0 0 2.74,6.54 10.021,10.021 0 0 0 -0.9,4.14 9.8288,9.8288 0 0 0 2.05,6.04 h 5.02 c 0,0 0,-1.84 -1.48,-2.1 a 1.6458,1.6458 0 0 1 -1.42,-1.57 v -0.63 a 4.1077,4.1077 0 0 1 1.2,-2.79 5.11,5.11 0 0 1 0.62,-0.61 c 0.01,0 0.01,-0.01 0.02,-0.02 a 5.4359,5.4359 0 0 1 4.81,-0.99 5.098,5.098 0 0 1 0.63,0.2 22.5034,22.5034 0 0 0 7.72,1.63 c 0.12,0 0.24,0.01 0.36,0.01 0.16,0.01 0.31,0.01 0.47,0.01 a 22.7593,22.7593 0 0 0 7.46,-1.24 1.458,1.458 0 0 0 0.19,-0.07 21.9656,21.9656 0 0 0 3.22,-1.41 2.7937,2.7937 0 0 1 1.49,-0.34 2.48,2.48 0 0 1 1.13,0.35"/></g></svg>