<?xml version="1.0" encoding="UTF-8" standalone="no"?>
<svg
   id="emoji"
   viewBox="0 0 49.667549 52.9874"
   version="1.1"
   sodipodi:docname="1f99a.svg"
   width="49.667549"
   height="52.9874"
   xmlns:inkscape="http://www.inkscape.org/namespaces/inkscape"
   xmlns:sodipodi="http://sodipodi.sourceforge.net/DTD/sodipodi-0.dtd"
   xmlns="http://www.w3.org/2000/svg"
   xmlns:svg="http://www.w3.org/2000/svg">
  <defs
     id="defs41" />
  <sodipodi:namedview
     id="namedview41"
     pagecolor="#ffffff"
     bordercolor="#000000"
     borderopacity="0.25"
     inkscape:showpageshadow="2"
     inkscape:pageopacity="0.0"
     inkscape:pagecheckerboard="0"
     inkscape:deskcolor="#d1d1d1" />
  <g
     id="line-supplement"
     transform="translate(-11.165893,-9.3436)">
    <circle
       cx="22.25"
       cy="36.98"
       r="1.5"
       id="circle1" />
    <circle
       cx="49.75"
       cy="36.98"
       r="1.5"
       id="circle2" />
    <circle
       cx="28.75"
       cy="32"
       r="1.5"
       id="circle3" />
    <circle
       cx="43.68"
       cy="31.91"
       r="1.5"
       id="circle4" />
    <circle
       cx="22.25"
       cy="47.540001"
       r="1.5"
       id="circle5" />
    <circle
       cx="49.75"
       cy="47.540001"
       r="1.5"
       id="circle6" />
    <circle
       cx="28.75"
       cy="42.57"
       r="1.5"
       id="circle7" />
    <circle
       cx="43.68"
       cy="42.48"
       r="1.5"
       id="circle8" />
    <circle
       cx="22.25"
       cy="27.16"
       r="1.5"
       id="circle9" />
    <circle
       cx="36"
       cy="17.469999"
       r="1.5"
       id="circle10" />
    <circle
       cx="49.75"
       cy="26.66"
       r="1.5"
       id="circle11" />
    <circle
       cx="28.75"
       cy="22.26"
       r="1.5"
       id="circle12" />
    <circle
       cx="43.34"
       cy="22.26"
       r="1.5"
       id="circle13" />
  </g>
  <g
     id="color"
     transform="translate(-11.165893,-9.3436)">
    <path
       fill="#5c9e31"
       d="m 41.2843,56.5638 c 0,0 3.7847,1.5119 4.6456,0.9267 0.7594,-0.5162 0,-3.6731 0,-3.6731 0,0 4.2762,2.12 5.1621,1.1394 0.7968,-0.8819 -1.4891,-4.5147 -1.4891,-4.5147 0,0 5.04,-0.4134 5.46,-1.7869 0.331,-1.0824 -2.78,-3.5738 -2.78,-3.5738 0,0 6.5379,-0.9356 6.4527,-2.68 -0.0746,-1.5291 -5.8571,-1.7869 -5.8571,-1.7869 0,0 6.3441,-1.6645 6.3539,-3.4745 0.0063,-1.1667 -4.07,-2.2832 -4.07,-2.2832 0,0 4.81,-2.1116 4.6658,-3.5739 -0.1043,-1.0619 -3.8289,-1.8861 -3.8289,-1.8861 0,0 3.4575,-3.7435 2.7369,-4.9637 -0.6057,-1.0257 -4.7651,0 -4.7651,0 0,0 2.505,-4.54 1.4891,-5.5592 -1.2326,-1.2363 -6.4579,0.6951 -6.4579,0.6951 0,0 1.3259,-4.27 0.0052,-5.0631 -1.2881,-0.7735 -5.1622,3.0774 -5.1622,3.0774 0,0 1.2242,-3.4669 -0.4634,-4.956 -1.5819,-1.3961 -4.4263,1.4887 -4.4263,1.4887 0,0 -1.7966,-3.7724 -2.9556,-3.7724 -1.159,0 -2.9561,4.2687 -2.9561,4.2687 0,0 -2.2019,-3.0338 -4.1556,-2.3825 -1.4891,0.4963 -0.7339,5.3531 -0.7339,5.3531 0,0 -3.8744,-3.8509 -5.1626,-3.0774 -1.3207,0.7931 -0.5566,4.9712 -0.5566,4.9712 0,0 -4.64,-1.8161 -5.8961,-0.6032 -1.5494,1.4966 1.4891,5.5592 1.4891,5.5592 0,0 -4.1593,-1.0257 -4.7651,0 C 12.5425,25.6529 16,29.3964 16,29.3964 c 0,0 -3.7245,0.8242 -3.8289,1.8861 -0.1437,1.4623 4.6658,3.5739 4.6658,3.5739 0,0 -4.0765,1.1165 -4.07,2.2832 0.01,1.81 4.3827,2.8651 4.3827,2.8651 0,0 -3.8116,0.8673 -3.8863,2.3964 -0.0852,1.7447 6.4527,2.68 6.4527,2.68 0,0 -3.1106,2.4914 -2.78,3.5738 0.42,1.3735 5.46,1.7869 5.46,1.7869 0,0 -2.2858,3.6328 -1.4891,4.5147 0.886,0.9807 5.1622,-1.1394 5.1622,-1.1394 0,0 -0.7595,3.1569 0,3.6731 0.8609,0.5852 4.5071,-0.7879 4.5071,-0.7879 l 1.8438,-1.3679 7.1981,0.02 z"
       id="path13" />
    <path
       fill="#1e50a0"
       d="m 34.8924,22.6011 a 3.1363,3.1363 0 0 1 3.0744,2.1959 c 1.3045,3.1451 -0.2042,10.2555 0.3486,13.6152 0.4289,2.6071 4.2757,7.02 4.2822,9.6624 C 42.6093,52.9057 39.0648,56 36,55.9583 31.7853,55.901 29.4533,50.6441 29.4024,48.0746 c -0.0651,-3.294 3.399,-7.1722 4.2822,-9.6624 0.8375,-2.3612 1.576,-9.1151 0.0765,-10.5019 -0.6311,-0.5837 -4.3587,-0.5879 -4.3587,-0.5879 0,0 3.1842,-4.7213 5.49,-4.7213 z"
       id="path14" />
    <circle
       cx="22.248699"
       cy="36.978802"
       r="1.5"
       fill="#fcea2b"
       id="circle14" />
    <circle
       cx="22.248699"
       cy="37.478802"
       r="1"
       fill="#1e50a0"
       id="circle15" />
    <circle
       cx="49.751301"
       cy="36.978802"
       r="1.5"
       fill="#fcea2b"
       id="circle16" />
    <circle
       cx="49.751301"
       cy="37.478802"
       r="1"
       fill="#1e50a0"
       id="circle17" />
    <circle
       cx="28.752001"
       cy="32"
       r="1.5"
       fill="#fcea2b"
       id="circle18" />
    <circle
       cx="28.752001"
       cy="32.5"
       r="1"
       fill="#1e50a0"
       id="circle19" />
    <circle
       cx="43.675999"
       cy="31.9121"
       r="1.5"
       fill="#fcea2b"
       id="circle20" />
    <circle
       cx="43.675999"
       cy="32.412102"
       r="1"
       fill="#1e50a0"
       id="circle21" />
    <circle
       cx="22.248699"
       cy="47.544201"
       r="1.5"
       fill="#fcea2b"
       id="circle22" />
    <circle
       cx="22.248699"
       cy="48.044201"
       r="1"
       fill="#1e50a0"
       id="circle23" />
    <circle
       cx="49.751301"
       cy="47.544201"
       r="1.5"
       fill="#fcea2b"
       id="circle24" />
    <circle
       cx="49.751301"
       cy="48.044201"
       r="1"
       fill="#1e50a0"
       id="circle25" />
    <circle
       cx="28.752001"
       cy="42.5653"
       r="1.5"
       fill="#fcea2b"
       id="circle26" />
    <circle
       cx="28.752001"
       cy="43.0653"
       r="1"
       fill="#1e50a0"
       id="circle27" />
    <circle
       cx="43.675999"
       cy="42.477402"
       r="1.5"
       fill="#fcea2b"
       id="circle28" />
    <circle
       cx="43.675999"
       cy="42.977402"
       r="1"
       fill="#1e50a0"
       id="circle29" />
    <circle
       cx="22.248699"
       cy="27.156799"
       r="1.5"
       fill="#fcea2b"
       id="circle30" />
    <circle
       cx="22.248699"
       cy="27.656799"
       r="1"
       fill="#1e50a0"
       id="circle31" />
    <circle
       cx="36"
       cy="17.468"
       r="1.5"
       fill="#fcea2b"
       id="circle32" />
    <circle
       cx="36"
       cy="17.968"
       r="1"
       fill="#1e50a0"
       id="circle33" />
    <circle
       cx="49.751301"
       cy="26.656799"
       r="1.5"
       fill="#fcea2b"
       id="circle34" />
    <circle
       cx="49.751301"
       cy="27.156799"
       r="1"
       fill="#1e50a0"
       id="circle35" />
    <circle
       cx="28.752001"
       cy="22.259501"
       r="1.5"
       fill="#fcea2b"
       id="circle36" />
    <circle
       cx="28.752001"
       cy="22.759501"
       r="1"
       fill="#1e50a0"
       id="circle37" />
    <circle
       cx="43.340302"
       cy="22.259501"
       r="1.5"
       fill="#fcea2b"
       id="circle38" />
    <circle
       cx="43.340302"
       cy="22.759501"
       r="1"
       fill="#1e50a0"
       id="circle39" />
  </g>
  <g
     id="line"
     transform="translate(-11.165893,-9.3436)">
    <path
       fill="none"
       stroke="#000000"
       stroke-linecap="round"
       stroke-linejoin="round"
       stroke-width="2"
       d="m 42.0582,55.9583 c 0,0 3.0108,2.1174 3.8717,1.5322 0.7594,-0.5162 0,-3.6731 0,-3.6731 0,0 4.2762,2.12 5.1621,1.1394 0.7968,-0.8819 -1.4891,-4.5147 -1.4891,-4.5147 0,0 5.04,-0.4134 5.46,-1.7869 0.331,-1.0824 -2.78,-3.5738 -2.78,-3.5738 0,0 6.5379,-0.9356 6.4527,-2.68 -0.0746,-1.5291 -5.8571,-1.7869 -5.8571,-1.7869 0,0 6.3441,-1.6645 6.3539,-3.4745 0.0063,-1.1667 -4.07,-2.2832 -4.07,-2.2832 0,0 4.81,-2.1116 4.6658,-3.5739 -0.1043,-1.0619 -3.8289,-1.8861 -3.8289,-1.8861 0,0 3.4575,-3.7435 2.7369,-4.9637 -0.6057,-1.0257 -4.7651,0 -4.7651,0 0,0 2.505,-4.54 1.4891,-5.5592 -1.2326,-1.2363 -6.4579,0.6951 -6.4579,0.6951 0,0 1.3259,-4.27 0.0052,-5.0631 -1.2881,-0.7735 -5.1622,3.0774 -5.1622,3.0774 0,0 1.2242,-3.4669 -0.4634,-4.956 -1.5819,-1.3961 -4.4263,1.4887 -4.4263,1.4887 0,0 -1.7966,-3.7724 -2.9556,-3.7724 -1.159,0 -2.9561,4.2687 -2.9561,4.2687 0,0 -2.2019,-3.0338 -4.1556,-2.3825 -1.4891,0.4963 -0.7339,5.3531 -0.7339,5.3531 0,0 -3.8744,-3.8509 -5.1626,-3.0774 -1.3207,0.7931 -0.5566,4.9712 -0.5566,4.9712 0,0 -4.64,-1.8161 -5.8961,-0.6032 -1.5494,1.4966 1.4891,5.5592 1.4891,5.5592 0,0 -4.1593,-1.0257 -4.7651,0 C 12.5425,25.6529 16,29.3964 16,29.3964 c 0,0 -3.7245,0.8242 -3.8289,1.8861 -0.1437,1.4623 4.6658,3.5739 4.6658,3.5739 0,0 -4.0765,1.1165 -4.07,2.2832 0.01,1.81 4.3827,2.8651 4.3827,2.8651 0,0 -4.3762,0.6956 -3.8863,2.3964 1.0317,3.5813 6.4527,2.68 6.4527,2.68 0,0 -3.1106,2.4914 -2.78,3.5738 0.42,1.3735 5.46,1.7869 5.46,1.7869 0,0 -2.2858,3.6328 -1.4891,4.5147 0.886,0.9807 5.1622,-1.1394 5.1622,-1.1394 0,0 -0.7595,3.1569 0,3.6731 0.8609,0.5852 3.8716,-1.5322 3.8716,-1.5322"
       id="path39" />
    <path
       fill="none"
       stroke="#000000"
       stroke-linecap="round"
       stroke-linejoin="round"
       stroke-width="2"
       d="m 34.8924,22.6011 a 3.1363,3.1363 0 0 1 3.0744,2.1959 c 1.3045,3.1451 -0.2042,10.2555 0.3486,13.6152 0.4289,2.6071 4.2757,7.02 4.2822,9.6624 C 42.6093,52.9057 39.0648,56 36,55.9583 31.7853,55.901 29.4533,50.6441 29.4024,48.0746 c -0.0651,-3.294 3.399,-7.1722 4.2822,-9.6624 0.8375,-2.3612 1.576,-9.0158 0.7686,-9.9918 -0.548,-0.6624 -5.0508,-1.098 -5.0508,-1.098 0,0 3.1842,-4.7213 5.49,-4.7213 z"
       id="path40" />
    <polyline
       fill="none"
       stroke="#000000"
       stroke-linecap="round"
       stroke-linejoin="round"
       stroke-width="2"
       points="33.044 54.957 33.044 60.592 30.827 61.331"
       id="polyline40" />
    <line
       x1="35.260601"
       x2="33.043499"
       y1="60.591801"
       y2="60.591801"
       fill="none"
       stroke="#000000"
       stroke-linecap="round"
       stroke-linejoin="round"
       stroke-width="2"
       id="line40" />
    <polyline
       fill="none"
       stroke="#000000"
       stroke-linecap="round"
       stroke-linejoin="round"
       stroke-width="2"
       points="38.956 55.081 38.956 60.592 36.739 61.331"
       id="polyline41" />
    <line
       x1="41.1726"
       x2="38.955601"
       y1="60.591801"
       y2="60.591801"
       fill="none"
       stroke="#000000"
       stroke-linecap="round"
       stroke-linejoin="round"
       stroke-width="2"
       id="line41" />
  </g>
</svg>
