<svg xmlns="http://www.w3.org/2000/svg" xmlns:svg="http://www.w3.org/2000/svg" id="emoji" width="58.739" height="40.364" version="1.1" viewBox="0 0 58.739 40.364"><g id="color" transform="translate(-5.7170269,-16.636168)"><path id="path1" fill="#a57939" d="m 63.4565,57 h -6.1016 a 0.9991,0.9991 0 0 1 -0.9941,-0.8945 c -0.5352,-5.0459 -2.21,-9.0528 -4.0723,-9.7451 -0.8076,-0.3028 -1.7666,0.0556 -2.8428,1.0654 -2.5791,2.3252 -5.5439,1.4287 -7.9248,0.7109 -1.6006,-0.4834 -2.9824,-0.9023 -3.7891,-0.2959 -1.0957,0.82 -1.6308,3.5625 -1.5918,8.15 A 1,1 0 0 1 35.14,57 H 29.3725 A 1,1 0 0 1 28.391,55.81 c 2.2256,-11.458 0.5918,-16.7325 -0.0957,-18.3018 -2.2881,0.3467 -2.8564,0.6436 -5.1963,2.1358 a 76.999,76.999 0 0 0 1.6641,13.371 1.0007,1.0007 0 0 1 -0.6816,1.167 l -2.2666,0.7012 a 1,1 0 0 1 -1.1407,-0.42 C 15.5063,46.305 15.6674,35.7923 15.6762,35.348 c 0,-5.4268 4.2353,-10.1016 7.9717,-14.2266 0.7724,-0.8525 1.5322,-1.6914 2.24,-2.5195 a 0.9982,0.9982 0 0 1 0.2041,-0.1807 c 5.49,-3.6758 9.08,-0.9688 11.5908,1.7988 a 0.939,0.939 0 0 1 0.1231,0.168 c 0.89,1.5234 3.6054,2.2021 6.2314,2.8584 2.7061,0.6758 5.5029,1.375 7.0039,3.1269 a 19.4814,19.4814 0 0 0 5.3488,3.6121 c 2.254,1.1328 4.1788,2.1005 5.5157,5.2187 0.01,0.0225 0.0195,0.0449 0.0283,0.0674 a 22.1667,22.1667 0 0 1 1.3691,5.4736 1,1 0 1 1 -1.98,0.2793 c -0.1231,-0.8682 -0.26,-1.6406 -0.4112,-2.331 -0.84,5.5087 2.6094,15.2363 3.4356,16.8515 A 1.0009,1.0009 0 0 1 63.4565,57 Z"/><path id="path2" fill="#6a462f" d="m 43.2221,57 h -4.625 a 0.9994,0.9994 0 0 1 -1,-1 c 0,-1.9873 -1.6621,-5.8271 -2.3028,-7.14 a 1,1 0 0 1 0.46,-1.337 c 0.4961,-0.2431 5.6924,-0.86 6.1953,-1.0888 a 0.9969,0.9969 0 0 1 1.3242,0.4961 c 0.8282,1.82 0.9356,7.8652 0.9483,9.0586 a 1,1 0 0 1 -1,1.0107 z"/><path id="path3" fill="#6a462f" d="M 54.2748,57 H 48.768 a 0.9994,0.9994 0 0 1 -1,-1 c 0,-2.6338 -0.586,-8.6885 -0.5918,-8.749 a 1,1 0 0 1 0.8984,-1.0918 c 0.5664,-0.0469 5.4971,-0.3887 6.042,-0.4756 a 1.0009,1.0009 0 0 1 1.1455,0.8291 55.1518,55.1518 0 0 1 0.01,9.5664 A 1,1 0 0 1 54.2748,57 Z"/><path id="path4" fill="#d0cfce" d="M 14.4272,43.3652 A 9.6285,9.6285 0 0 1 8.2494,41.4141 7.7354,7.7354 0 0 1 5.7328,35.1963 8.6835,8.6835 0 0 1 8.2582,28.6123 c 2.8887,-2.7441 7.1553,-2.5576 7.3379,-2.55 a 1,1 0 0 1 0.0928,1.9883 6.5232,6.5232 0 0 0 -5.4756,6.6594 3.1332,3.1332 0 0 0 0.8672,2.1386 5.1525,5.1525 0 0 0 3.8066,1.2188 c 4.8389,0 6.53,-4.9492 6.6,-5.16 a 1,1 0 0 1 0.9239,-0.6865 0.9411,0.9411 0 0 1 0.958,0.6357 c 0.9521,2.4493 0.8974,4.5909 -0.1621,6.3653 -2.003,3.3574 -6.876,4.0029 -7.0821,4.0283 a 11.32,11.32 0 0 1 -1.6976,0.115 z"/></g><g id="line" transform="translate(-5.7170269,-16.636168)"><path id="path5" fill="none" stroke="#000" stroke-linecap="round" stroke-linejoin="round" stroke-width="2" d="M 22.4372,33.219 C 25.4878,41.0712 16,42.2575 16,42.2575 c 0,0 -9.2673,1.5253 -9.2673,-7.0614 0,-8.5867 8.8126,-8.1347 8.8126,-8.1347"/><path id="path6" fill="none" stroke="#000" stroke-linecap="round" stroke-linejoin="round" stroke-width="2" d="m 30.619,21.6929 a 2.78,2.78 0 0 1 1.87,-0.8014 c 1.122,0 3.511,2.3509 3.511,8.0144 0,5.6635 -3.0912,2.5723 -3.0912,2.5723 0,0 -1.1827,3.75 -4.1114,0.22 h -1.5647"/><path id="path7" fill="none" stroke="#000" stroke-linecap="round" stroke-linejoin="round" stroke-width="2" d="m 16.6764,35.3693 c 0,-6.125 5.8544,-11.3033 9.971,-16.1176 4.6372,-3.1014 7.6315,-1.2966 10.2955,1.64 2.1029,3.6044 10.6727,2.9453 13.3667,6.1655 6.0884,5.9367 10.4218,2.6495 12.0032,13.8278"/><path id="path8" fill="none" stroke="#000" stroke-linecap="round" stroke-linejoin="round" stroke-width="2" d="M 23.7851,53.2265 21.5188,53.928 A 32.6584,32.6584 0 0 1 17.2543,41.9972"/><path id="path9" fill="none" stroke="#000" stroke-linecap="round" stroke-linejoin="round" stroke-width="2" d="M 59.7938,40.8848 C 59.8755,46.8315 62.77,54.6585 63.4562,56 H 57.3548 C 56.6566,49.4187 53.6814,42.0866 48.7621,46.6959 43.155,51.7505 34.991,38.4012 35.14,56 H 29.3723 C 32.2448,41.218 28.8534,36.4171 28.8534,36.4171"/><path id="path10" fill="none" stroke="#000" stroke-linecap="round" stroke-linejoin="round" stroke-width="2" d="m 36.1923,48.4223 c 0,0 2.4047,4.9194 2.4047,7.5777 h 4.6255"/><path id="path11" fill="none" stroke="#000" stroke-linecap="round" stroke-linejoin="round" stroke-width="2" d="m 48.1713,47.1546 c 0,0 0.5967,6.132 0.5967,8.8454 h 5.5066"/></g></svg>