<svg xmlns="http://www.w3.org/2000/svg" xmlns:svg="http://www.w3.org/2000/svg" id="emoji" width="45.609" height="44.244" version="1.1" viewBox="0 0 45.609 44.244"><g id="line-supplement" transform="translate(-13.183002,-13.878095)"><line id="line1" x1="41.84" x2="39.428" y1="16.692" y2="24.209" fill="none" stroke="#000" stroke-linecap="round" stroke-miterlimit="10" stroke-width="2"/><line id="line2" x1="28.69" x2="31.157" y1="15.836" y2="23.836" fill="none" stroke="#000" stroke-linecap="round" stroke-miterlimit="10" stroke-width="2"/><line id="line3" x1="17.149" x2="24.541" y1="23.052" y2="28.299" fill="none" stroke="#000" stroke-linecap="round" stroke-miterlimit="10" stroke-width="2"/><line id="line4" x1="14.71" x2="22.605" y1="36.234" y2="36.205" fill="none" stroke="#000" stroke-linecap="round" stroke-miterlimit="10" stroke-width="2"/><line id="line5" x1="18.412" x2="24.781" y1="48.696" y2="44.032" fill="none" stroke="#000" stroke-linecap="round" stroke-miterlimit="10" stroke-width="2"/><line id="line6" x1="29.135" x2="32.047" y1="55.308" y2="47.291" fill="none" stroke="#000" stroke-linecap="round" stroke-miterlimit="10" stroke-width="2"/><line id="line7" x1="42.285" x2="40.318" y1="56.164" y2="49.164" fill="none" stroke="#000" stroke-linecap="round" stroke-miterlimit="10" stroke-width="2"/><line id="line8" x1="52.839" x2="46.935" y1="48.317" y2="43.701" fill="none" stroke="#000" stroke-linecap="round" stroke-miterlimit="10" stroke-width="2"/><line id="line9" x1="57.765" x2="48.87" y1="35.766" y2="35.795" fill="none" stroke="#000" stroke-linecap="round" stroke-miterlimit="10" stroke-width="2"/><line id="line10" x1="53.564" x2="46.194" y1="23.304" y2="28.468" fill="none" stroke="#000" stroke-linecap="round" stroke-miterlimit="10" stroke-width="2"/></g><g id="color" transform="translate(-13.183002,-13.878095)"><path id="path10" fill="#ea5a47" d="m 50.4876,36 a 15,15 0 1 1 -15,-15 15,15 0 0 1 15,15 z"/><path id="path11" fill="#d22f27" d="M 45.2977,24.67 A 16.9861,16.9861 0 0 1 30.4876,50 c -0.1382,0 -0.2728,-0.0143 -0.41,-0.0176 A 14.9871,14.9871 0 0 0 45.2977,24.67 Z"/><g id="g20"><line id="line11" x1="41.84" x2="39.428" y1="16.692" y2="24.209" fill="none" stroke="#d22f27" stroke-linecap="round" stroke-miterlimit="10" stroke-width="2"/><line id="line12" x1="28.69" x2="31.157" y1="15.836" y2="23.836" fill="none" stroke="#d22f27" stroke-linecap="round" stroke-miterlimit="10" stroke-width="2"/><line id="line13" x1="17.149" x2="24.541" y1="23.052" y2="28.299" fill="none" stroke="#d22f27" stroke-linecap="round" stroke-miterlimit="10" stroke-width="2"/><line id="line14" x1="14.71" x2="22.605" y1="36.234" y2="36.205" fill="none" stroke="#d22f27" stroke-linecap="round" stroke-miterlimit="10" stroke-width="2"/><line id="line15" x1="18.412" x2="24.781" y1="48.696" y2="44.032" fill="none" stroke="#d22f27" stroke-linecap="round" stroke-miterlimit="10" stroke-width="2"/><line id="line16" x1="29.135" x2="32.047" y1="55.308" y2="47.291" fill="none" stroke="#d22f27" stroke-linecap="round" stroke-miterlimit="10" stroke-width="2"/><line id="line17" x1="42.285" x2="40.318" y1="56.164" y2="49.164" fill="none" stroke="#d22f27" stroke-linecap="round" stroke-miterlimit="10" stroke-width="2"/><line id="line18" x1="52.839" x2="46.935" y1="48.317" y2="43.701" fill="none" stroke="#d22f27" stroke-linecap="round" stroke-miterlimit="10" stroke-width="2"/><line id="line19" x1="57.765" x2="48.87" y1="35.766" y2="35.795" fill="none" stroke="#d22f27" stroke-linecap="round" stroke-miterlimit="10" stroke-width="2"/><line id="line20" x1="53.564" x2="46.194" y1="23.304" y2="28.468" fill="none" stroke="#d22f27" stroke-linecap="round" stroke-miterlimit="10" stroke-width="2"/></g></g><g id="line" transform="translate(-13.183002,-13.878095)"><path id="path20" fill="none" stroke="#000" stroke-linecap="round" stroke-linejoin="round" stroke-width="2" d="m 50.4876,36 a 15,15 0 1 1 -15,-15 15,15 0 0 1 15,15 z"/><g id="g29"><polygon id="polygon20" fill="none" stroke="#000" stroke-linecap="round" stroke-linejoin="round" stroke-width="1.5" points="41.606 17.42 38.983 15.497 44.898 17.42"/><polygon id="polygon21" fill="none" stroke="#000" stroke-linecap="round" stroke-linejoin="round" stroke-width="1.5" points="28.804 16.115 30.592 14.628 25.97 15.954"/><polygon id="polygon22" fill="none" stroke="#000" stroke-linecap="round" stroke-linejoin="round" stroke-width="1.5" points="17.925 23.596 15.303 25.328 18.484 20.142"/><polygon id="polygon23" fill="none" stroke="#000" stroke-linecap="round" stroke-linejoin="round" stroke-width="1.5" points="15.149 36.134 13.933 38.166 13.958 34.101"/><polygon id="polygon24" fill="none" stroke="#000" stroke-linecap="round" stroke-linejoin="round" stroke-width="1.5" points="18.929 48.317 19.549 51.064 16.365 47.31"/><polygon id="polygon25" fill="none" stroke="#000" stroke-linecap="round" stroke-linejoin="round" stroke-width="1.5" points="29.153 55.319 31.612 57.008 25.697 55.086"/><polygon id="polygon26" fill="none" stroke="#000" stroke-linecap="round" stroke-linejoin="round" stroke-width="1.5" points="42.142 55.729 45.005 55.546 39.884 57.372"/><polygon id="polygon27" fill="none" stroke="#000" stroke-linecap="round" stroke-linejoin="round" stroke-width="1.5" points="52.529 48.075 54.382 46.814 51.702 50.5"/><polygon id="polygon28" fill="none" stroke="#000" stroke-linecap="round" stroke-linejoin="round" stroke-width="1.5" points="57.187 35.766 58.018 38.899 58.042 32.834"/><polygon id="polygon29" fill="none" stroke="#000" stroke-linecap="round" stroke-linejoin="round" stroke-width="1.5" points="53.163 23.582 52.016 20.787 55.465 25.415"/></g><g id="g35"><circle id="circle29" cx="42.654" cy="32.49" r="1.25"/><circle id="circle30" cx="28.654" cy="29.49" r="1.25"/><circle id="circle31" cx="35.654" cy="28.49" r="1.25"/><circle id="circle32" cx="37.654" cy="44.49" r="1.25"/><circle id="circle33" cx="31.654" cy="34.74" r="2"/><circle id="circle34" cx="31.154" cy="41.74" r="2"/><circle id="circle35" cx="39.654" cy="37.74" r="3"/></g></g><g id="color-foreground" transform="translate(-13.183002,-13.878095)"><line id="line35" x1="40.634" x2="39.428" y1="20.45" y2="24.209" fill="none" stroke="#d22f27" stroke-linecap="round" stroke-miterlimit="10" stroke-width="2"/><line id="line36" x1="29.598" x2="31.157" y1="18.782" y2="23.836" fill="none" stroke="#d22f27" stroke-linecap="round" stroke-miterlimit="10" stroke-width="2"/><line id="line37" x1="20.094" x2="24.541" y1="25.143" y2="28.299" fill="none" stroke="#d22f27" stroke-linecap="round" stroke-miterlimit="10" stroke-width="2"/><line id="line38" x1="17.989" x2="22.605" y1="36.234" y2="36.205" fill="none" stroke="#d22f27" stroke-linecap="round" stroke-miterlimit="10" stroke-width="2"/><line id="line39" x1="21.318" x2="24.781" y1="46.568" y2="44.032" fill="none" stroke="#d22f27" stroke-linecap="round" stroke-miterlimit="10" stroke-width="2"/><line id="line40" x1="30.226" x2="31.547" y1="52.304" y2="48.291" fill="none" stroke="#d22f27" stroke-linecap="round" stroke-miterlimit="10" stroke-width="2"/><line id="line41" x1="41.403" x2="40.318" y1="53.025" y2="49.164" fill="none" stroke="#d22f27" stroke-linecap="round" stroke-miterlimit="10" stroke-width="2"/><line id="line42" x1="50.206" x2="46.935" y1="46.258" y2="43.701" fill="none" stroke="#d22f27" stroke-linecap="round" stroke-miterlimit="10" stroke-width="2"/><line id="line43" x1="53.931" x2="48.87" y1="35.779" y2="35.795" fill="none" stroke="#d22f27" stroke-linecap="round" stroke-miterlimit="10" stroke-width="2"/><line id="line44" x1="50.552" x2="46.194" y1="25.415" y2="28.468" fill="none" stroke="#d22f27" stroke-linecap="round" stroke-miterlimit="10" stroke-width="2"/></g></svg>