<?xml version="1.0" encoding="UTF-8" standalone="no"?>
<svg
   id="emoji"
   viewBox="0 0 46.412979 46.763477"
   version="1.1"
   sodipodi:docname="1f9ae.svg"
   width="46.412979"
   height="46.763477"
   xmlns:inkscape="http://www.inkscape.org/namespaces/inkscape"
   xmlns:sodipodi="http://sodipodi.sourceforge.net/DTD/sodipodi-0.dtd"
   xmlns="http://www.w3.org/2000/svg"
   xmlns:svg="http://www.w3.org/2000/svg">
  <defs
     id="defs22" />
  <sodipodi:namedview
     id="namedview22"
     pagecolor="#ffffff"
     bordercolor="#000000"
     borderopacity="0.25"
     inkscape:showpageshadow="2"
     inkscape:pageopacity="0.0"
     inkscape:pagecheckerboard="0"
     inkscape:deskcolor="#d1d1d1" />
  <g
     id="color"
     transform="translate(-12.578635,-12.369342)">
    <path
       fill="#ffffff"
       d="m 46.0864,57.1092 c 0,0 2.3035,-5.5769 2.1216,-7.456 -0.1819,-1.8791 2.3035,0.8487 2.3035,0.8487 l -0.4243,5.7587 c 0,0 -3.8796,2.6066 -4.0008,0.8487 z"
       id="path1" />
    <path
       fill="#ffffff"
       d="m 35.6601,52.381 c 0,0 -0.1378,-6.3898 -0.4243,-8.6078 -0.2865,-2.218 4.0614,-0.7274 4.0614,-0.7274 l 1.8792,6.0618 c 0,0 -5.3253,5.3483 -5.5163,3.2734 z"
       id="path2" />
    <path
       fill="#ffffff"
       d="m 47.9656,25.0421 c 0,0 2.061,-3.8796 3.4552,-3.2734 1.3942,0.6062 2.1823,2.3641 1.273,2.7884 -0.9093,0.4243 -1.8792,1.3336 -2.9097,1.2124 -1.0305,-0.1212 -1.5761,0.3637 -1.8185,-0.7274 z"
       id="path3" />
    <path
       fill="#ffffff"
       d="m 40.2998,25.4565 c 0,0 2.061,-3.8796 3.4552,-3.2734 1.3942,0.6062 2.1823,2.3641 1.273,2.7884 -0.9093,0.4243 -1.8792,1.3336 -2.9097,1.2124 -1.0305,-0.1212 -1.5761,0.3637 -1.8185,-0.7274 z"
       id="path4" />
    <g
       id="g7">
      <path
         fill="#6a462f"
         d="m 43.8655,56.8472 c 2.2959,-3.7382 3.2914,-8.1306 2.8315,-12.4934 l -2.099,-3.083 -4.108,-1.5343 c 0.0547,0.6407 1.5706,5.5234 2.0129,6.7978 0.0999,0.2885 0.1443,0.5932 0.131,0.8982 -0.248,5.4982 -1.561,6.9861 -1.8953,7.2784 -0.0212,0.0166 -0.0421,0.0331 -0.0625,0.05 l -0.0157,0.0108 0.0025,0.0023 c -0.3653,0.3105 -0.5897,0.7554 -0.622,1.2338 -0.0281,1.0642 0.804,1.9535 1.8677,1.996 0.6068,0.0468 1.2021,-0.1845 1.6182,-0.6287 l 0.0024,0.0022 0.0078,-0.0123 c 0.1385,-0.1524 0.2497,-0.3275 0.3285,-0.5178 z"
         id="path5" />
      <path
         fill="#6a462f"
         d="m 33.3114,55.9593 c 0.1824,-2.433 0.2363,-4.874 0.1614,-7.3127 0.1175,-1.8275 -0.2525,-3.6535 -1.0721,-5.2911 l -2.1249,0.3931 -1.1014,2.5814 0.8961,2.64 c 1.1916,3.3886 0.69,4.9746 0.1641,5.6835 -0.231,0.1377 -0.4358,0.3152 -0.605,0.5242 l -0.0077,0.0033 0.0036,0.0015 c -0.4493,0.5203 -0.5685,1.2488 -0.3085,1.8852 0.5109,0.9717 1.7098,1.3496 2.6855,0.8465 0.5521,-0.2383 0.9839,-0.6904 1.1966,-1.2529 v 0 c 0.0019,-0.0089 0.0079,-0.0189 0.01,-0.028 0.0767,-0.2161 0.1114,-0.4449 0.1023,-0.674 z"
         id="path6" />
      <path
         fill="#a57939"
         d="m 20.368,26.8513 c 1.7688,2.6878 2.7536,5.8153 2.8439,9.0316 6e-4,0.0317 0.0045,0.0633 0.0116,0.0942 0.0861,0.376 0.7177,2.9384 2.1366,3.9037 0,0 2.4232,2.3935 -1.8351,3.6861 0,0 -6.8524,2.4151 -4.76,6.544 0,0 1.4839,2.58 3.3571,0.0708 0.036,-0.0467 0.0646,-0.0986 0.0849,-0.154 0.1715,-0.5642 0.1345,-1.1713 -0.1041,-1.7106 -0.1001,-0.2204 -0.0401,-0.4806 0.1464,-0.635 1.1133,-0.9593 2.6309,-1.3022 4.0485,-0.9147 0,0 2.32,0.98 5.221,-3.5682 0.0278,-0.0453 0.0628,-0.0858 0.1035,-0.12 0.4942,-0.4091 4.0807,-3.1572 10.555,-2.52 0.1256,0.0114 0.2435,0.0651 0.3345,0.1524 0.866,0.838 5.6769,5.4328 8.5311,6.8831 0.0458,0.0221 0.0874,0.0518 0.1231,0.088 1.686,1.7868 2.3922,4.2849 1.8911,6.69 -0.0205,0.1054 -0.0711,0.2026 -0.1455,0.28 -0.4252,0.4341 -1.8257,2.12 0.8921,3.1532 0.0704,0.0271 0.1455,0.0401 0.2209,0.0383 0.5794,-0.0219 3.1319,-0.3129 2.0291,-3.7774 -0.016,-0.0472 -0.0246,-0.0966 -0.0254,-0.1465 -0.0041,-0.7223 -0.088,-6.956 -1.7424,-10.4368 -0.034,-0.0718 -0.0836,-0.1352 -0.1451,-0.1855 -0.3782,-0.3157 -1.8671,-2.1484 -0.7375,-10.9222 0.0058,-0.0447 0.1809,-0.1465 0.1683,-0.19 -0.1975,-0.6747 1.1232,-2.7292 1.743,-3.3268 v 0 c 0.1846,-0.1662 6.445,-6.5168 2.2092,-10.8378 -0.0293,-0.03 0.03,0.03 0,0 -0.4411,-0.4445 -5.5293,-4.0273 -8.61,-0.5261 -0.8007,1.0612 -1.4293,2.242 -1.8627,3.4988 -0.7463,2.6171 1.0645,4.7977 2.0617,2.2655 0.09,-0.2279 1.31,-2.0434 1.3959,-2.3088 0.0268,-0.0863 0.075,-0.1644 0.14,-0.2272 0.5137,-0.4753 2.9136,-2.4076 4.1177,1.7125 0,0 1.0682,3.6264 -4.444,5.4868 -0.1323,0.0459 -0.277,0.0402 -0.4053,-0.016 -0.7856,-0.3523 -4.0565,-1.5641 -9.216,-0.0783 -0.0136,0.0042 -0.0275,0.0076 -0.0416,0.01 -0.4561,0.0772 -10.2279,1.6335 -11.3375,-6.6 0,0 -0.74,-4.5766 -3.08,-4.64 l -5.2076,-0.7865 c 0,0 -2.2711,-0.0165 -2.6165,1.6937 0,0 -0.0406,1.4028 -2.6234,1.3287 -0.6628,0.0024 -3.1142,-0.4216 -2.0858,2.3116 0.0461,0.1153 0.0517,0.2429 0.0159,0.3618 -0.2187,0.6733 -0.7872,3.15 2.5768,3.4085 8e-4,-8e-4 2.9437,-0.1502 4.0666,1.9351 z"
         id="path7" />
    </g>
  </g>
  <g
     id="line"
     transform="translate(-12.578635,-12.369342)">
    <g
       id="g19">
      <path
         fill="none"
         stroke="#000000"
         stroke-linecap="round"
         stroke-miterlimit="10"
         stroke-width="2"
         d="m 40.9145,41.4186 c 0.2106,0.6232 1.7517,4.7609 1.8826,5.1157 0.106,0.2871 0.1534,0.5925 0.1394,0.8982 -0.2637,5.4982 -1.66,6.9861 -2.0154,7.2784 -0.0225,0.0166 0.0218,-0.0175 0,0"
         id="path8" />
      <path
         fill="none"
         stroke="#000000"
         stroke-linecap="round"
         stroke-miterlimit="10"
         stroke-width="2"
         d="M 43.1465,57.53 C 47.02,54.076 46.69,44.3538 46.69,44.3538"
         id="path9" />
      <path
         fill="none"
         stroke="#000000"
         stroke-miterlimit="10"
         stroke-width="2"
         d="m 40.9211,54.7109 c -0.3898,0.3338 -0.6521,0.7922 -0.7423,1.2974 -0.0705,1.0101 0.6737,1.8937 1.6811,1.996 0.559,0.041 1.1028,-0.1937 1.4564,-0.6287 l 0.0022,0.0022"
         id="path10" />
      <path
         fill="none"
         stroke="#000000"
         stroke-miterlimit="10"
         stroke-width="2"
         d="m 29.1744,46.33 0.8961,2.64 c 1.1916,3.3886 0.69,4.9746 0.1641,5.6835 l -0.6091,0.529 c -0.4493,0.5203 -0.5685,1.2488 -0.3085,1.8852 0.5109,0.9717 1.7098,1.3496 2.6855,0.8465 0.5521,-0.2383 0.9839,-0.6904 1.1966,-1.2529 v 0 c 0.0019,-0.0089 0.0079,-0.0189 0.01,-0.028 0.0766,-0.2158 0.1114,-0.4443 0.1025,-0.6732 0.1824,-2.433 0.2363,-4.874 0.1614,-7.3127 0.0507,-0.77 0.0132,-1.5433 -0.112,-2.3048 -0.1589,-1.0402 -0.4829,-2.0484 -0.96,-2.9863"
         id="path11" />
      <g
         id="g18">
        <path
           fill="none"
           stroke="#000000"
           stroke-linecap="round"
           stroke-miterlimit="10"
           stroke-width="2"
           d="m 18.5614,47.6026 c -0.2448,0.8325 -0.1721,1.7263 0.204,2.5083 0.3765,0.9688 1.4638,1.4527 2.4356,1.0839 0.8852,-0.4055 0.8639,-1.798 0.56,-2.8257"
           id="path12" />
        <path
           fill="none"
           stroke="#000000"
           stroke-linecap="round"
           stroke-miterlimit="10"
           stroke-width="2"
           d="m 21.7158,48.219 c 0.9199,-1.083 2.2899,-1.6784 3.7093,-1.6119 0.1856,0.0021 0.3701,0.03 0.548,0.0831 1.3948,0.5023 2.9482,-0.0795 3.67,-1.3744"
           id="path13" />
        <g
           id="g15">
          <path
             fill="none"
             stroke="#000000"
             stroke-linecap="round"
             stroke-miterlimit="10"
             stroke-width="2"
             d="m 53.5147,32.9083 -0.2959,5.6328 c 0,0 -0.2094,3.6923 0.8078,4.5411 0.9776,1.3819 1.4287,3.0679 1.2718,4.7533 0,0 0.5363,5.7575 0.6973,7.9907"
             id="path14" />
          <path
             fill="none"
             stroke="#000000"
             stroke-linecap="round"
             stroke-miterlimit="10"
             stroke-width="2"
             d="m 48.5415,23.6767 c 2.5433,-6.4561 5.1809,-3.19 5.1809,-3.19 3.1773,3.94 -0.9928,6.3629 -2.8305,7.1889 -0.4465,0.184 -0.949,0.1768 -1.39,-0.02 -2.5616,-1.029 -8.8257,0.179 -8.8257,0.179 -2.142,0.2748 -4.3174,0.1152 -6.3963,-0.4692 -0.0878,-0.0282 -0.1733,-0.0571 -0.2566,-0.0866 -0.6045,-0.2069 -1.178,-0.4951 -1.7047,-0.8568 -0.4561,-0.2903 -0.8395,-0.6815 -1.1206,-1.1433 -1.2138,-2.3231 -2.2386,-4.7402 -3.0644,-7.2278 -0.1591,-0.524 -0.5431,-0.9501 -1.0479,-1.1626 -1.6668,-0.5622 -3.3983,-0.9099 -5.1529,-1.0346 -3.1365,-0.3594 -3.5144,1.6507 -3.5144,1.6507 -0.532,1.369 -1.4378,1.3243 -1.4378,1.3243 l -1.8637,0.0069 c -2.3111,0.1288 -1.3312,2.5027 -1.3312,2.5027 -0.5857,3.0884 3.0884,3.7274 3.0884,3.7274 1.1941,0.0281 2.3342,0.5031 3.195,1.3312 1.5722,2.3456 2.575,5.026 2.9286,7.8276 0.213,3.6741 1.7347,4.9613 1.7347,4.9613 2.8549,2.7709 0,3.8205 0,3.8205 -4.2084,1.5247 -5.75,3.2313 -6.1435,4.606"
             id="path15" />
        </g>
        <path
           fill="none"
           stroke="#000000"
           stroke-linecap="round"
           stroke-miterlimit="10"
           stroke-width="2"
           d="m 55.9957,55.8263 c 0.1855,1.6659 -0.9823,2.0907 -2.0845,2.0184 -1.0393,-0.007 -1.8785,-0.8507 -1.88,-1.89 0.0726,-0.4946 0.1857,-0.9823 0.3382,-1.4583"
           id="path16" />
        <path
           fill="none"
           stroke="#000000"
           stroke-linecap="round"
           stroke-miterlimit="10"
           stroke-width="2"
           d="m 55.9957,55.8263 c 0.0105,0.1455 0.02,0.2771 0.0266,0.39"
           id="path17" />
        <path
           fill="none"
           stroke="#000000"
           stroke-linecap="round"
           stroke-miterlimit="10"
           stroke-width="2"
           d="m 52.22,55.11 c 0.3731,-1.2449 1.0885,-4.4928 -0.6281,-7.0155 -0.1283,-0.1855 -0.2917,-0.344 -0.481,-0.4666 -1.13,-0.7421 -5.4176,-3.6535 -7.3255,-6.34 -0.2637,-0.3621 -0.6733,-0.59 -1.12,-0.623 -2.4893,-0.218 -10.3347,-0.4413 -13.209,4.9821"
           id="path18" />
      </g>
    </g>
  </g>
  <g
     id="color-foreground"
     transform="translate(-12.578635,-12.369342)">
    <g
       id="g22">
      <path
         fill="none"
         stroke="#3f3f3f"
         stroke-linecap="round"
         stroke-miterlimit="10"
         stroke-width="2"
         d="M 48.4455,14.1812 46.661,13.5135 c -0.8312,-0.4187 -1.021,0.0567 -1.3429,0.3191 l -12.3224,9.8418"
         id="path19" />
      <path
         fill="none"
         stroke="#3f3f3f"
         stroke-linecap="round"
         stroke-miterlimit="10"
         stroke-width="2"
         d="m 33.23,27.1318 c -1.5801,4.9707 -1.3804,10.3365 0.5648,15.176"
         id="path20" />
      <path
         fill="none"
         stroke="#3f3f3f"
         stroke-linecap="round"
         stroke-miterlimit="10"
         stroke-width="2"
         d="m 33.23,27.1318 c 0,0 -6.0878,6.0749 -10.8849,5.27"
         id="path21" />
      <path
         fill="none"
         stroke="#3f3f3f"
         stroke-linecap="round"
         stroke-miterlimit="10"
         stroke-width="2"
         d="M 29.1744,30.3174 48.3755,14.8491 c 0.2039,-0.1643 0.2361,-0.4628 0.0718,-0.6668 -0.0642,-0.0798 -0.1526,-0.1366 -0.2518,-0.1619 L 45.83,13.4155"
         id="path22" />
    </g>
  </g>
</svg>
