<svg xmlns="http://www.w3.org/2000/svg" xmlns:svg="http://www.w3.org/2000/svg" id="emoji" width="50.784" height="50.478" version="1.1" viewBox="0 0 50.784 50.478"><g id="line-supplement" transform="translate(-8.6042231,-12.3861)"><g id="_790Luc"><path id="path1" fill="none" stroke="#000" stroke-miterlimit="10" stroke-width="2" d="m 48.1275,18.3578 a 13.2415,13.2415 0 0 1 1.7215,0.3209 c 1.5622,0.4786 2.2719,1.8225 2.6327,3.4557 a 11.7982,11.7982 0 0 1 -0.1157,5.1717 c -0.4984,2.207 -1.1045,4.3854 -1.7123,6.5593 a 14.1,14.1 0 0 0 -0.3114,4.3735 22.593,22.593 0 0 1 -0.0251,4.5267 3.4324,3.4324 0 0 1 -0.87,1.7845 11.8577,11.8577 0 0 1 -1.006,0.9937 5.0531,5.0531 0 0 0 -1.6331,2.8834 16.5128,16.5128 0 0 1 -0.57,2.0025 5.6829,5.6829 0 0 1 -2.4343,3.0074 2.7874,2.7874 0 0 1 -1.9869,0.2424 1.8119,1.8119 0 0 0 -1.7622,0.5345 10.7525,10.7525 0 0 1 -2.7711,2.2015 3.0127,3.0127 0 0 1 -2.28,0.391 2.2219,2.2219 0 0 1 -0.8038,-0.4436 3.8683,3.8683 0 0 0 -2.9082,-0.8751 c -0.93,0.0511 -1.8621,0.1048 -2.7932,0.1039 a 5.5664,5.5664 0 0 1 -5.235,-3.48 25.2946,25.2946 0 0 1 -1.3066,-3.5511 5.0183,5.0183 0 0 0 -1.6912,-2.604 8.3293,8.3293 0 0 1 -1.126,-1.0833 4.9929,4.9929 0 0 1 -1.1286,-2.9983 6.6485,6.6485 0 0 1 2.44,-5.8956 5.0969,5.0969 0 0 1 0.4949,-0.4116 3.3926,3.3926 0 0 0 1.4441,-2.1409 3.0426,3.0426 0 0 1 1.4754,-1.9592 c 0.5545,-0.33 1.1348,-0.6111 1.6706,-0.9744 a 4.1935,4.1935 0 0 0 1.1892,-1.0262 13.3484,13.3484 0 0 1 4.202,-3.9194 66.1844,66.1844 0 0 1 10.4628,-5.5814 23.35,23.35 0 0 1 5.1875,-1.4722 c 0.4425,-0.0641 0.8909,-0.08 1.55,-0.1363 z"/></g></g><g id="color" transform="translate(-8.6042231,-12.3861)"><g id="_790Luc-2"><path id="path2" fill="#a57939" d="M 34.4066,62.8638 A 4.4762,4.4762 0 0 1 33.2572,62.7153 4.2644,4.2644 0 0 1 31.7719,61.981 4.832,4.832 0 0 0 28.348,61.0884 l -0.1552,0.0078 c -1.2383,0.06 -2.5176,0.124 -3.7891,0.124 H 24.3754 A 8.9018,8.9018 0 0 1 16.1459,56.3208 30.2853,30.2853 0 0 1 14.2445,51.7056 5.3047,5.3047 0 0 0 12.2436,48.9243 12.206,12.206 0 0 1 10.5189,47.4419 6.8644,6.8644 0 0 1 8.6518,43.06 8.973,8.973 0 0 1 12.4662,34.7621 l 0.1709,-0.1367 a 5.341,5.341 0 0 1 0.624,-0.4492 3.309,3.309 0 0 0 1.5713,-2.0928 4.8884,4.8884 0 0 1 2.5676,-3.0849 c 0.2988,-0.1591 0.6016,-0.3105 0.9053,-0.46 0.4922,-0.2442 0.956,-0.4737 1.3916,-0.7383 l 0.1084,-0.0654 a 4.6969,4.6969 0 0 0 1.2822,-0.9707 18.864,18.864 0 0 1 6.2149,-5.2032 98.5247,98.5247 0 0 1 14.8457,-7.0888 36.3921,36.3921 0 0 1 7.4892,-1.8994 c 0.4277,-0.0567 0.8594,-0.085 1.3789,-0.1192 0.2569,-0.0166 0.5371,-0.0342 0.8506,-0.0586 l 0.1191,-0.0088 0.1172,0.0186 c 0.168,0.0273 0.36,0.0508 0.5694,0.0771 a 13.8958,13.8958 0 0 1 1.9531,0.3506 c 2.2764,0.624 3.7168,2.2822 4.4033,5.07 a 14.1793,14.1793 0 0 1 -0.1631,6.9883 c -0.7256,2.877 -1.6259,5.76 -2.42,8.3027 a 15.3043,15.3043 0 0 0 -0.3926,5.1622 c 0.0166,0.4033 0.04,0.8066 0.0635,1.2089 a 19.4079,19.4079 0 0 1 -0.1143,4.7051 5.166,5.166 0 0 1 -1.5024,2.7758 17.0172,17.0172 0 0 1 -1.5029,1.3281 5.2453,5.2453 0 0 0 -1.9336,3.0655 19.894,19.894 0 0 1 -0.8409,2.65 8.377,8.377 0 0 1 -3.86,4.2919 5.27,5.27 0 0 1 -3.4141,0.4258 1.7605,1.7605 0 0 0 -1.6591,0.41 15.7619,15.7619 0 0 1 -4.1553,2.9463 6.4988,6.4988 0 0 1 -2.7275,0.7008 z"/></g><g id="_790Luc-3"><path id="path3" fill="#fff" d="m 35.646,57.9 a 3.1944,3.1944 0 0 1 -2.1006,-0.7812 2.8927,2.8927 0 0 0 -2.1992,-0.6329 l -0.14,0.0079 c -0.875,0.0478 -1.78,0.0976 -2.6836,0.0976 H 28.4972 A 6.5545,6.5545 0 0 1 22.3634,52.5484 25.9675,25.9675 0 0 1 21.0011,48.857 4.0253,4.0253 0 0 0 19.6525,46.7477 9.1809,9.1809 0 0 1 18.3878,45.5338 5.9226,5.9226 0 0 1 17.0138,41.9557 7.6454,7.6454 0 0 1 19.8,35.22 l 0.12,-0.1064 a 4.2783,4.2783 0 0 1 0.4756,-0.3819 2.3819,2.3819 0 0 0 1.0225,-1.54 4.0224,4.0224 0 0 1 1.9355,-2.584 c 0.2168,-0.1289 0.4366,-0.25 0.6563,-0.3711 0.3271,-0.1806 0.6543,-0.36 0.9658,-0.5713 a 3.54,3.54 0 0 0 0.918,-0.7549 14.2107,14.2107 0 0 1 4.5063,-4.2126 67.717,67.717 0 0 1 10.624,-5.6622 24.11,24.11 0 0 1 5.41,-1.5312 c 0.3174,-0.0459 0.6357,-0.07 1.0225,-0.0977 l 0.7177,-0.0566 0.13,0.0234 c 0.1162,0.02 0.249,0.0391 0.3936,0.06 a 9.3623,9.3623 0 0 1 1.4433,0.2891 c 1.7246,0.5293 2.81,1.9013 3.3174,4.1963 a 12.6762,12.6762 0 0 1 -0.1172,5.6084 c -0.5136,2.2744 -1.1572,4.5771 -1.7246,6.6084 a 13.4412,13.4412 0 0 0 -0.2754,4.0673 c 0.0118,0.3184 0.0284,0.6368 0.045,0.9551 a 17.1874,17.1874 0 0 1 -0.0831,3.77 4.4358,4.4358 0 0 1 -1.1152,2.294 12.7981,12.7981 0 0 1 -1.0928,1.0779 4.0749,4.0749 0 0 0 -1.3086,2.333 17.3094,17.3094 0 0 1 -0.6044,2.125 6.6915,6.6915 0 0 1 -2.8457,3.5254 3.7079,3.7079 0 0 1 -2.668,0.3848 c -0.4971,-0.0762 -0.6709,0.0068 -0.89,0.2363 A 11.6436,11.6436 0 0 1 37.7424,57.3039 4.5781,4.5781 0 0 1 35.646,57.9 Z"/></g><path id="path4" fill="#f4aa41" d="M 32.0637,50.5956 A 8.4587,8.4587 0 0 1 26.1066,47.7333 5.3485,5.3485 0 0 1 24.508,43.1474 c 0.93,-8.1475 18.29,-19.0723 19.0283,-19.5342 a 1.0655,1.0655 0 0 1 1.459,0.3281 3.93,3.93 0 0 0 3.2373,1.8633 1.069,1.069 0 0 1 1.0625,1.3769 C 49.0295,28.038 42.6926,48.1727 33.7307,50.3886 a 6.9119,6.9119 0 0 1 -1.667,0.207 z"/><circle id="circle4" cx="31.001" cy="37.023" r="5" fill="#fff"/><path id="path5" fill="#d0cfce" d="m 29.3307,32.6713 a 4.5642,4.5642 0 0 1 1.098,8.74 4.6121,4.6121 0 0 1 -0.463,0.1617 4.5653,4.5653 0 1 0 -0.635,-8.9019 z"/><g id="_790Luc-4"><path id="path6" fill="none" stroke="#d0cfce" stroke-miterlimit="10" stroke-width="2" d="m 48.1275,18.3578 a 13.2415,13.2415 0 0 1 1.7215,0.3209 c 1.5622,0.4786 2.2719,1.8225 2.6327,3.4557 a 11.7982,11.7982 0 0 1 -0.1157,5.1717 c -0.4984,2.207 -1.1045,4.3854 -1.7123,6.5593 a 14.1,14.1 0 0 0 -0.3114,4.3735 22.593,22.593 0 0 1 -0.0251,4.5267 3.4324,3.4324 0 0 1 -0.87,1.7845 11.8577,11.8577 0 0 1 -1.006,0.9937 5.0531,5.0531 0 0 0 -1.6331,2.8834 16.5128,16.5128 0 0 1 -0.57,2.0025 5.6829,5.6829 0 0 1 -2.4343,3.0074 2.7874,2.7874 0 0 1 -1.9869,0.2424 1.8119,1.8119 0 0 0 -1.7622,0.5345 10.7525,10.7525 0 0 1 -2.7711,2.2015 3.0127,3.0127 0 0 1 -2.28,0.391 2.2219,2.2219 0 0 1 -0.8038,-0.4436 3.8683,3.8683 0 0 0 -2.9082,-0.8751 c -0.93,0.0511 -1.8621,0.1048 -2.7932,0.1039 a 5.5664,5.5664 0 0 1 -5.235,-3.48 25.2946,25.2946 0 0 1 -1.3066,-3.5511 5.0183,5.0183 0 0 0 -1.6912,-2.604 8.3293,8.3293 0 0 1 -1.126,-1.0833 4.9929,4.9929 0 0 1 -1.1286,-2.9983 6.6485,6.6485 0 0 1 2.44,-5.8956 5.0969,5.0969 0 0 1 0.4949,-0.4116 3.3926,3.3926 0 0 0 1.4441,-2.1409 3.0426,3.0426 0 0 1 1.4754,-1.9592 c 0.5545,-0.33 1.1348,-0.6111 1.6706,-0.9744 a 4.1935,4.1935 0 0 0 1.1892,-1.0262 13.3484,13.3484 0 0 1 4.202,-3.9194 66.1844,66.1844 0 0 1 10.4628,-5.5814 23.35,23.35 0 0 1 5.1875,-1.4722 c 0.4425,-0.0641 0.8909,-0.08 1.55,-0.1363 z"/></g></g><g id="line" transform="translate(-8.6042231,-12.3861)"><g id="_790Luc-5"><path id="path7" fill="none" stroke="#000" stroke-miterlimit="10" stroke-width="2" d="m 51.9434,13.3926 a 20.5288,20.5288 0 0 1 2.4178,0.4036 c 2.1939,0.6019 3.1906,2.292 3.6972,4.3461 a 13.3281,13.3281 0 0 1 -0.1625,6.5042 c -0.7,2.7757 -1.5511,5.5154 -2.4047,8.25 a 15.9333,15.9333 0 0 0 -0.4372,5.5 25.4664,25.4664 0 0 1 -0.0354,5.6931 4.1557,4.1557 0 0 1 -1.2218,2.2442 15.9048,15.9048 0 0 1 -1.4128,1.25 6.2312,6.2312 0 0 0 -2.2935,3.6262 19.1265,19.1265 0 0 1 -0.8,2.5185 7.3713,7.3713 0 0 1 -3.4187,3.7822 4.3231,4.3231 0 0 1 -2.79,0.3049 2.7389,2.7389 0 0 0 -2.4748,0.6722 14.9577,14.9577 0 0 1 -3.8917,2.7688 4.6516,4.6516 0 0 1 -3.2022,0.4917 3.2429,3.2429 0 0 1 -1.1288,-0.5579 5.878,5.878 0 0 0 -4.085,-1.1004 c -1.3066,0.0643 -2.6151,0.1319 -3.9227,0.1307 a 7.8881,7.8881 0 0 1 -7.3519,-4.376 29.7614,29.7614 0 0 1 -1.835,-4.4661 6.2988,6.2988 0 0 0 -2.3752,-3.275 11.2476,11.2476 0 0 1 -1.5813,-1.3624 5.9124,5.9124 0 0 1 -1.585,-3.7712 7.9788,7.9788 0 0 1 3.426,-7.4147 7.08,7.08 0 0 1 0.695,-0.5177 4.2858,4.2858 0 0 0 2.0293,-2.6931 3.9057,3.9057 0 0 1 2.0721,-2.464 c 0.7786,-0.4155 1.5935,-0.7686 2.346,-1.2256 a 5.7566,5.7566 0 0 0 1.67,-1.2905 18.1066,18.1066 0 0 1 5.9013,-4.9293 97.0057,97.0057 0 0 1 14.693,-7.02 35.7891,35.7891 0 0 1 7.2852,-1.8515 c 0.622,-0.0805 1.2518,-0.1003 2.1773,-0.171 z"/></g><path id="path8" fill="none" stroke="#000" stroke-linecap="round" stroke-linejoin="round" stroke-width="2.127" d="M 44.1,24.5157 A 92.9134,92.9134 0 0 0 33.298,32.5812"/><path id="path9" fill="none" stroke="#000" stroke-linecap="round" stroke-linejoin="round" stroke-width="2.127" d="m 26.8551,39.8181 c -1.5775,2.67 -1.9478,5.212 0.0034,7.1632 11.5921,11.5921 21.4208,-20.1146 21.4208,-20.1146"/><circle id="circle9" cx="31.001" cy="37.023" r="5" fill="none" stroke="#000" stroke-linecap="round" stroke-linejoin="round" stroke-width="2.435"/></g></svg>