<?xml version="1.0" encoding="UTF-8" standalone="no"?>
<svg
   id="emoji"
   viewBox="0 0 63.554771 34.549618"
   version="1.1"
   sodipodi:docname="1f9a1.svg"
   width="63.554771"
   height="34.549618"
   xmlns:inkscape="http://www.inkscape.org/namespaces/inkscape"
   xmlns:sodipodi="http://sodipodi.sourceforge.net/DTD/sodipodi-0.dtd"
   xmlns="http://www.w3.org/2000/svg"
   xmlns:svg="http://www.w3.org/2000/svg">
  <defs
     id="defs1" />
  <sodipodi:namedview
     id="namedview1"
     pagecolor="#ffffff"
     bordercolor="#000000"
     borderopacity="0.25"
     inkscape:showpageshadow="2"
     inkscape:pageopacity="0.0"
     inkscape:pagecheckerboard="0"
     inkscape:deskcolor="#d1d1d1" />
  <g
     id="color"
     transform="translate(-4.452696,-18.679735)">
    <path
       id="Badger_Color_1"
       fill="#9b9b9a"
       d="M 66.345,45.6765 C 68.3684,45.7733 67.4703,20.2182 50.8318,20.1665 45.4029,20.15 34.7472,22.99 29.32,23.1375 c -1.3974,0.038 -4.4352,0.048 -5.5315,-0.8195 -0.6186,-0.49 -0.2131,-2.0038 -1.8438,-2.5609 -1.1324,-0.3868 -2.5413,0.9451 -3.38,1.2805 a 23.09,23.09 0 0 0 -8.2973,4.9681 c -1.0957,1.0031 -4.95,2.0035 -4.8145,3.4828 0.1849,2.0187 7.2729,3.5853 7.2729,3.5853 0,0 7.0964,1.9422 9.1168,3.2779 3.1615,2.09 10.39,10.7109 10.1412,11.268 -0.1254,0.28 -4.8936,0.3328 -4.8145,2.8682 0.0543,1.7409 2.7658,1.7414 2.7658,1.7414 h 5.0193 c 0.9442,-0.6272 1.3347,-3.1729 1.4305,-4.3023 0.0854,-1.0068 -1.5759,-3.6953 -0.611,-3.995 2.4779,-0.77 4.77,0.3993 10.6533,0.6146 0.8446,0.0309 0,3.38 0,3.38 0,0 -4.6731,1.5124 -4.61,2.8682 0.0672,1.4341 2.356,1.4341 2.356,1.4341 h 5.634 c 0,0 4.0166,-7.5875 4.712,-8.1949 2.6539,-2.3175 4.9935,-1.83 9.1168,-4.5072 2e-4,4e-4 0.5775,6.0478 2.709,6.1497 z" />
    <path
       id="Badger_Color_2"
       fill="#ffffff"
       d="m 12.5971,27.7718 c 2.95,-2.6329 12.8133,-4.2885 12.0353,-5.3581 -2.488,-3.4211 -5.2288,-1.764 -6.0679,-1.4286 -2.2451,0.8973 -5.8749,1.2566 -8.2973,4.9682 -0.8119,1.244 -5.8456,2.4133 -4.8145,3.4828 2.4693,2.5611 8.6828,3.1357 14.4573,3.4639 a 60.57,60.57 0 0 1 13.016,2.354 c 0,0 -4.476,-12.666 -19.5118,-5.4328 -1.2083,0.5813 -1.7108,-1.2518 -0.8171,-2.0494 z" />
    <path
       id="Badger_Color_3"
       fill="#3f3f3f"
       d="m 53.1224,51.7357 7.5048,0.4936 c 0,0 2.7368,-3.1236 2.4876,-5.7715 -0.13,-1.384 -2.4173,-5.7715 -2.4173,-5.7715 l -4.49,1.5637 2.3011,4.3785 -4.0365,1.9379 z" />
    <path
       id="Badger_Color_4"
       fill="#3f3f3f"
       d="m 24.8284,51.2053 c -1.0614,1.5379 -7.4582,-0.4936 -7.4582,-0.4936 l 1.0783,-3.0751 4.6564,-1.4519 0.6847,-9.0428 c 0,0 3.2307,2.6146 3.5553,3.8918 0.6451,2.5389 -0.8181,7.7109 -2.5165,10.1716 z" />
  </g>
  <g
     id="line"
     transform="translate(-4.452696,-18.679735)">
    <path
       id="Badger_Line_1"
       fill="none"
       stroke="#000000"
       stroke-linecap="round"
       stroke-linejoin="round"
       stroke-width="2"
       d="M 66.6878,44.68 C 67.6429,40.5412 67.4703,20.2187 50.8318,20.1674 45.4029,20.15 34.7472,22.99 29.32,23.1375 c -1.3974,0.038 -4.4352,0.048 -5.5315,-0.8195 -0.6186,-0.49 -0.2131,-2.0038 -1.8438,-2.5609 -1.1324,-0.3868 -2.5413,0.9451 -3.38,1.2805 a 23.3153,23.3153 0 0 0 -8.2973,4.9681 c 0,0 -4.8182,2.0843 -4.8147,3.4828 0.0065,2.5891 7.2729,3.5853 7.2729,3.5853 0,0 7.0964,1.9422 9.1168,3.2779 3.1615,2.09 10.39,10.7109 10.1412,11.268 -0.1254,0.28 -4.8936,0.3328 -4.8145,2.8682 0.0543,1.7409 2.7658,1.7414 2.7658,1.7414 h 5.0193 c 0.9442,-0.6272 1.3347,-3.1729 1.4305,-4.3023 0.0854,-1.0068 -1.5759,-3.6953 -0.611,-3.995 2.4779,-0.77 4.77,0.3993 10.6533,0.6146 0.8446,0.0309 0,3.38 0,3.38 0,0 -4.6731,1.5124 -4.61,2.8682 0.0672,1.4341 2.356,1.4341 2.356,1.4341 h 5.634 c 0,0 4.0166,-7.5875 4.712,-8.1949 2.6539,-2.3175 4.9935,-1.83 9.1168,-4.5072" />
    <path
       id="Badger_Line_2"
       fill="none"
       stroke="#000000"
       stroke-linecap="round"
       stroke-linejoin="round"
       stroke-width="2"
       d="m 55.8961,43.0439 3.2286,3.9687 c -0.6286,0.92 -7.115,0.4826 -6.0023,4.7231 0.1348,0.5136 1.5354,0.49 2.0664,0.492 1.0578,0.0036 4.2311,0 4.2311,0" />
    <path
       id="Badger_Line_3"
       fill="none"
       stroke="#000000"
       stroke-linecap="round"
       stroke-linejoin="round"
       stroke-width="2"
       d="m 22.55,36.88 c 0,0 2.1119,7.22 0.8225,9.1084 -0.6286,0.92 -7.115,0.4826 -6.0023,4.7231 0.1348,0.5136 1.5354,0.49 2.0664,0.492 1.0578,0.0036 4.2311,0 4.2311,0" />
    <path
       id="Badger_Line_4"
       d="m 7.9183,27.2494 0.2742,4.7876 c -0.9434,0.379 -3.314,-2.3569 -3.314,-2.3569 0,0 2.1515,-2.8271 3.0398,-2.4307 z" />
  </g>
</svg>
