<svg xmlns="http://www.w3.org/2000/svg" xmlns:svg="http://www.w3.org/2000/svg" id="emoji" width="63.063" height="56.11" version="1.1" viewBox="0 0 63.063 56.11"><g id="color" transform="translate(-8.1388,-5.9084)"><path id="path1" fill="#3f3f3f" d="m 54.26,17.4722 6.5031,-6.5031 a 1.2343,1.2343 0 0 0 0,-1.7455 L 60.044,8.5044 a 1.2259,1.2259 0 0 0 -1.7335,0 l -6.5091,6.5091 z"/><rect id="rect1" width="45.035" height="3.477" x="14.59" y="30.427" fill="#d0cfce" transform="rotate(-45,37.107699,32.165288)"/><polygon id="polygon1" fill="#ea5a47" points="22.415 49.317 12.506 59.226 9.842 56.973 19.956 46.858"/><path id="path2" fill="#d0cfce" d="m 9.6356,57.0559 0.206,-0.0831 2.664,2.2532 -0.0426,0.1656 c -0.1756,1.1215 -2.8462,1.9481 -3.3242,1.47 L 8.4155,60.1384 C 7.9352,59.658 8.4063,57.6706 9.6356,57.0559 Z"/></g><g id="line" transform="translate(-8.1388,-5.9084)"><path id="path3" fill="none" stroke="#000" stroke-linecap="round" stroke-linejoin="round" stroke-width="2" d="M 54.26,17.4722 12.5056,59.226 12.463,59.3916 c -0.1756,1.1215 -2.8462,1.9481 -3.3242,1.47"/><path id="path4" fill="none" stroke="#000" stroke-linecap="round" stroke-linejoin="round" stroke-width="2" d="m 54.26,17.4722 6.5031,-6.5031 a 1.2343,1.2343 0 0 0 0,-1.7455 L 60.044,8.5044"/><path id="path5" fill="none" stroke="#000" stroke-miterlimit="10" d="m 61.6354,8.867 c 0,0 1.2293,-2.4586 4.9172,-2.4586 3.6879,0 4.9172,7.3758 3.6879,8.6051 -1.2293,1.2293 -3.6879,-2.4586 -4.9172,-3.6879 A 17.684,17.684 0 0 0 61.6354,8.867 Z"/></g></svg>