<?xml version="1.0" encoding="UTF-8" standalone="no"?>
<svg
   id="emoji"
   viewBox="0 0 57.731491 42.712631"
   version="1.1"
   sodipodi:docname="1f9ac.svg"
   width="57.731491"
   height="42.712631"
   xmlns:inkscape="http://www.inkscape.org/namespaces/inkscape"
   xmlns:sodipodi="http://sodipodi.sourceforge.net/DTD/sodipodi-0.dtd"
   xmlns="http://www.w3.org/2000/svg"
   xmlns:svg="http://www.w3.org/2000/svg">
  <defs
     id="defs11" />
  <sodipodi:namedview
     id="namedview11"
     pagecolor="#ffffff"
     bordercolor="#000000"
     borderopacity="0.25"
     inkscape:showpageshadow="2"
     inkscape:pageopacity="0.0"
     inkscape:pagecheckerboard="0"
     inkscape:deskcolor="#d1d1d1" />
  <g
     id="color"
     transform="translate(-7.1397747,-14.379668)">
    <path
       fill="#a57939"
       d="m 11.3922,31.7927 a 8.1054,8.1054 0 0 0 1.0984,3.4817 7.9042,7.9042 0 0 1 0.4561,6.7451 5.5677,5.5677 0 0 0 -0.1055,5.21 v 7.27 a 2.5032,2.5032 0 0 0 2.5,2.501 h 3.1162 a 1,1 0 0 0 0.9991,-0.9619 c 0.0107,-0.2686 0.0664,-2.669 -1.1709,-3.9551 a 2.599,2.599 0 0 0 -0.9131,-0.62 v -3.624 c 1.1328,-0.8155 3.9883,-3.11 4.8955,-6.0967 a 11.3837,11.3837 0 0 0 6.2558,1.97 c 4.5606,0 8.4033,-3.9813 8.4336,-4.2109 0.33,-2.5035 1.3,-3.3047 1.14,-3.833 C 36.4036,30.08 31.2733,24.0108 28.5738,21.09 l -2.4679,0.3068 C 23.4,22.13 17,24.16 12.3782,27.9849 c 0,0 -0.986,1.0581 -0.986,3.8078 z"
       id="path1" />
    <path
       fill="#6a462f"
       d="m 46.5793,38.987 c 0.2176,-0.1511 0.4292,-0.2939 0.6252,-0.4206 l 0.0056,-0.0055 c 0.4334,-0.2823 0.856,-0.54 1.2473,-0.763 v 7.59 a 1,1 0 0 0 1.7071,0.707 c 3.3134,-3.3135 5.957,-4.1992 7.5918,-4.3584 a 4.81,4.81 0 0 0 4.0927,-3.1054 l 2.6582,-7.1719 A 5.7884,5.7884 0 0 0 63.7436,26.0061 L 61.2592,22.623 A 4.1907,4.1907 0 0 0 57.893,20.918 l -4.98,-0.003 C 49.4149,16.5771 40.9514,10.1876 25.2541,18.2794 a 0.9993,0.9993 0 0 0 -0.25,1.5947 c 0.0772,0.0781 8.1247,8.6093 11.06,16.0722 -0.9991,2.5185 -2.09,6.915 0.3652,10.5849 2.0889,3.1211 2.13,9.4991 2.13,9.5626 a 1,1 0 0 0 1,0.998 h 8.583 a 1,1 0 0 0 1,-1 c 0,-2.5322 -0.5928,-4.3594 -1.7608,-5.4316 a 3.5456,3.5456 0 0 0 -1.59,-0.8545 l -1.3477,-4.4063 a 9.7222,9.7222 0 0 0 2.13,-6.41 l 0.0042,-0.0029"
       id="path2" />
    <path
       fill="#6a462f"
       d="m 26.4291,57 h -4.2129 a 1,1 0 0 1 -0.99,-0.8613 c -0.25,-1.7891 -0.9229,-4.63 -1.6348,-5.3418 -1.4541,-1.4541 -2.0449,-4.6328 -2.1074,-4.9912 a 0.858,0.858 0 0 1 0.2783,-0.8789 6.8691,6.8691 0 0 0 2.9077,-5.1168 1,1 0 0 1 1.89,-0.0625 14.7308,14.7308 0 0 0 3.0224,1.44 1,1 0 0 1 0.6514,0.9375 c 0,2.4385 -1.9746,4.752 -2.9522,5.748 l 1.459,3.4483 a 2.9848,2.9848 0 0 1 1.7051,0.9512 5.4017,5.4017 0 0 1 0.9766,3.8427 A 0.9994,0.9994 0 0 1 26.4291,57 Z M 22.6254,40.1025 Z"
       id="path3" />
    <path
       fill="#3f3f3f"
       d="M 63.7436,26.0059 61.2592,22.623 A 4.1907,4.1907 0 0 0 57.893,20.918 l -5.4658,-0.003 h -10e-4 c -0.0139,0 -0.0254,0.0074 -0.0393,0.008 a 1.1925,1.1925 0 0 0 -0.6914,0.32 c -0.0086,0.0093 -0.0208,0.013 -0.0291,0.0227 a 11.3506,11.3506 0 0 0 -1.6044,2.8565 3.404,3.404 0 0 1 -1.6966,-1.7554 1.0135,1.0135 0 0 0 -1.0166,-0.59 1,1 0 0 0 -0.875,0.7851 c -0.051,0.2351 -1.0817,5.3088 2.081,7.7528 a 32.6211,32.6211 0 0 0 -0.0974,5.8476 v 9.2253 a 1,1 0 0 0 1.7071,0.707 c 3.3134,-3.3135 5.957,-4.1992 7.5918,-4.3584 a 4.81,4.81 0 0 0 4.0927,-3.1054 l 2.6582,-7.1719 a 5.7884,5.7884 0 0 0 -0.7636,-5.453 z"
       id="path4" />
  </g>
  <g
     id="line"
     transform="translate(-7.1397747,-14.379668)">
    <path
       fill="none"
       stroke="#000000"
       stroke-linecap="round"
       stroke-linejoin="round"
       stroke-width="2"
       d="m 12.7288,33.3849 a 8.5288,8.5288 0 0 0 0.634,1.4 8.9671,8.9671 0 0 1 0.4782,7.6845 4.5549,4.5549 0 0 0 0,4.485 V 54.5 a 1.5005,1.5005 0 0 0 1.5005,1.5 h 3.116 c 0,0 0.1438,-3.7251 -2.0851,-3.7251 v -4.9611 c 0,0 5.1768,-3.3074 5.1768,-7.4057 a 10.6935,10.6935 0 0 0 6.9744,2.8041 8.92,8.92 0 0 0 4.2664,-1.2285"
       id="path5" />
    <path
       fill="none"
       stroke="#000000"
       stroke-linecap="round"
       stroke-linejoin="round"
       stroke-width="2"
       d="m 19.4154,48.73 a 4.78,4.78 0 0 0 0.8825,1.36 C 21.57,51.3621 22.2166,56 22.2166,56 h 4.2128 c 0,0 0.4348,-3.7412 -2.3784,-3.7412 l -1.9585,-4.63 c 0,0 3.1415,-2.7488 3.1415,-5.5035"
       id="path6" />
    <path
       fill="none"
       stroke="#000000"
       stroke-linecap="round"
       stroke-linejoin="round"
       stroke-width="2"
       d="m 27.5971,22.0525 c 0,0 -23.0812,5.0896 -18.9778,18.9775"
       id="path7" />
    <path
       fill="none"
       stroke="#000000"
       stroke-linecap="round"
       stroke-linejoin="round"
       stroke-width="2"
       d="m 49.4575,36.1544 v 9.2331 c 3.4941,-3.4942 6.3579,-4.4669 8.2011,-4.6467 a 3.8288,3.8288 0 0 0 3.2526,-2.4574 L 63.57,31.1109 a 4.8041,4.8041 0 0 0 -0.6324,-4.5133 l -2.4844,-3.383 A 3.1777,3.1777 0 0 0 57.892,21.9179 l -5.4661,-0.0027 c -3.436,-4.529 -11.4876,-10.5947 -26.7,-2.7541"
       id="path8" />
    <path
       fill="none"
       stroke="#000000"
       stroke-linecap="round"
       stroke-linejoin="round"
       stroke-width="2"
       d="m 38.1329,33.9789 a 15.277,15.277 0 0 0 -0.9928,1.9787 c -1.02,2.4154 -2.1653,6.6 0.1209,10.0169 2.2862,3.4169 2.299,10.1178 2.299,10.1178 h 5.4665 c 0.0041,-3.7518 -2.3121,-3.8816 -2.3121,-3.8816 l -1.8707,-6.8232 c 0,-3.2753 3.3023,-6.0344 5.8175,-7.6608"
       id="path9" />
    <path
       fill="none"
       stroke="#000000"
       stroke-linecap="round"
       stroke-linejoin="round"
       stroke-width="2"
       d="m 51.8065,25.5027 a 4.6449,4.6449 0 0 1 -4.3549,-2.731 c 0,0 -1.1809,5.5021 2.51,7.2536"
       id="path10" />
    <path
       fill="none"
       stroke="#000000"
       stroke-linecap="round"
       stroke-linejoin="round"
       stroke-width="2"
       d="m 44.9647,56.0923 h 3.1778 c 0,-5.6393 -3.1159,-5.3716 -3.1159,-5.3716 l -1.2792,-5.6851"
       id="path11" />
  </g>
</svg>
