<?xml version="1.0" encoding="UTF-8" standalone="no"?>
<svg
   id="emoji"
   viewBox="0 0 49.991661 53.311462"
   version="1.1"
   sodipodi:docname="1f9a2.svg"
   width="49.991661"
   height="53.311462"
   xmlns:inkscape="http://www.inkscape.org/namespaces/inkscape"
   xmlns:sodipodi="http://sodipodi.sourceforge.net/DTD/sodipodi-0.dtd"
   xmlns="http://www.w3.org/2000/svg"
   xmlns:svg="http://www.w3.org/2000/svg">
  <defs
     id="defs1" />
  <sodipodi:namedview
     id="namedview1"
     pagecolor="#ffffff"
     bordercolor="#000000"
     borderopacity="0.25"
     inkscape:showpageshadow="2"
     inkscape:pageopacity="0.0"
     inkscape:pagecheckerboard="0"
     inkscape:deskcolor="#d1d1d1" />
  <g
     id="color"
     transform="translate(-11.001907,-9.5365628)">
    <path
       id="Swan_Color_1"
       fill="#ffffff"
       d="m 23.8422,42.51 c 22.03,-12.5653 24.21,-0.1553 27.4673,-3.3092 0.9953,-0.9637 8.6841,-3.7561 8.6841,-3.7561 0,0 -2.7489,23.3 -12.5891,24.9166 -7.3779,1.2119 -22.7242,2.1761 -28.0357,0 -9.18,-3.7611 -7.1649,-16.3457 -5.3956,-20.54 2.0552,-4.8718 11.4376,-8.7859 9.3355,-19.3019 -0.1854,-0.9278 -0.1975,-2.0708 -1.2787,-2.53 -1.5226,-0.6471 -4.48,3.2944 -7.426,2.1242 0,0 3.7917,-8.7431 6.9386,-9.7333 4.5181,-1.4216 7.8633,4.1879 8.3879,6.8218 1.1173,5.61 -4.2908,14.0131 -4.7958,18.1 -0.0273,0.2201 -1.2925,7.2079 -1.2925,7.2079 z" />
    <path
       id="Swan_Color_2"
       fill="#f4aa41"
       d="m 17.7632,15.7092 c -0.135,1.2855 1.933,2.4762 2.1626,3.2628 0.2953,1.0119 -4.1957,0.4178 -4.1957,0.4178 0,0 2.1429,-4.7261 2.0331,-3.6806 z" />
  </g>
  <g
     id="line"
     transform="translate(-11.001907,-9.5365628)">
    <path
       id="Swan_Line_1"
       fill="none"
       stroke="#000000"
       stroke-linecap="round"
       stroke-linejoin="round"
       stroke-width="2"
       d="m 27.1986,41.0877 c 3.045,-0.91 8.4833,-7.14 19.8118,-2.7989 8.2484,3.1606 12.9832,-2.8445 12.9832,-2.8445 0,0 -2.102,22.3487 -12.5891,24.9166 -7.2623,1.7782 -22.7242,2.1761 -28.0357,0 -9.18,-3.7611 -8.2246,-15.4921 -5.3956,-20.54 2.911,-5.1941 10.142,-8.5786 10.2681,-19.3019" />
    <path
       id="Swan_Line_2"
       fill="none"
       stroke="#000000"
       stroke-linecap="round"
       stroke-linejoin="round"
       stroke-width="2"
       d="m 23.77,43.5077 c 0.71,-12.0817 7.0657,-20.416 6.1609,-26.3062 -0.6954,-4.5273 -3.7741,-7.76 -8.2922,-6.3379 -3.1468,0.99 -7.0343,9.2494 -7.0343,9.2494 2.9462,1.17 7.426,-2.1242 7.426,-2.1242" />
    <path
       id="Swan_Line_3"
       fill="none"
       stroke="#000000"
       stroke-linecap="round"
       stroke-linejoin="round"
       stroke-width="2"
       d="m 49.6121,44.31 c -2.1331,3.4989 -11.9,5.3058 -16.6525,5.4247" />
  </g>
</svg>
