<svg xmlns="http://www.w3.org/2000/svg" xmlns:svg="http://www.w3.org/2000/svg" id="emoji" width="52.6" height="52.741" version="1.1" viewBox="0 0 52.6 52.741"><g id="color" transform="translate(-9.3555796,-6.7433314)"><path id="path1" fill="#d0cfce" d="m 46.0938,29.8141 a 8.0935,8.0935 0 0 0 1.231,-5.1156 c -0.3322,-8.5131 -6.5889,-10.9008 -9.5933,-13.4778 4.1911,5.4922 5.9607,10.7559 2.6157,20.8539 0,0 3.3328,1.5065 5.7466,-2.2605 z"/></g><g id="skin" transform="translate(-9.3555796,-6.7433314)"><path id="path2" fill="#fadcbc" d="M 15.2237,17.3624 C 19.8487,-0.1792 51.1166,4.6141 39.8279,33.2791 25.236,69.0708 7.0362,57.9562 10.0987,46.2791"/></g><g id="skin-shadow" transform="translate(-9.3555796,-6.7433314)"><path id="path3" fill="#debb90" d="M 35.5248,33.6662 C 39.1885,11.7887 20.9623,16.4268 19.5192,21.9893 23.4935,6.1143 43.6107,12.3969 35.5248,33.6662 Z"/><path id="path4" fill="#debb90" d="m 24,25.6855 c 4.4385,7 8.3371,13.9079 2.3371,16.6163 -1.3969,0.5735 -2.8765,0.4132 -4.3824,1.1735 -1.5343,0.7223 -1.8192,1.3265 -3.6385,3.2848 -2.5625,2.0625 -5.7708,-1.5465 -3.9583,-3.6875 3.0729,-3.3958 6.4479,-3.9271 4.6667,-7.2083 -1.2187,-2.2047 0.4957,-5.0277 4.402,-3.9027 z"/></g><g id="line" transform="translate(-9.3555796,-6.7433314)"><g id="g11"><path id="path5" fill="none" stroke="#000" stroke-linecap="round" stroke-miterlimit="10" stroke-width="2" d="m 50.45,18.001 a 20.3132,20.3132 0 0 1 1.2748,9.7546 13.6741,13.6741 0 0 1 -0.5124,2.2184"/><path id="path6" fill="none" stroke="#000" stroke-linecap="round" stroke-miterlimit="10" stroke-width="2" d="m 54.6652,15.0123 a 27.8846,27.8846 0 0 1 1.6739,13.0089 18.6581,18.6581 0 0 1 -0.6573,2.9564"/><path id="path7" fill="none" stroke="#000" stroke-linecap="round" stroke-miterlimit="10" stroke-width="2" d="m 58.9094,13.9284 a 32.3379,32.3379 0 0 1 1.868,14.7126 21.5331,21.5331 0 0 1 -0.7184,3.3416"/><path id="path8" fill="none" stroke="#000" stroke-linecap="round" stroke-linejoin="round" stroke-width="2" d="m 46.0938,29.8141 a 8.0935,8.0935 0 0 0 1.231,-5.1156 c -0.3322,-8.5131 -6.5889,-10.9008 -9.5933,-13.4778 4.1911,5.4922 5.9607,10.7559 2.6157,20.8539 0,0 3.3328,1.5065 5.7466,-2.2605 z"/><path id="path9" fill="none" stroke="#000" stroke-linecap="round" stroke-linejoin="round" stroke-width="2" d="m 19.5192,21.9893 c 3.9744,-15.875 24.8326,-10.2582 15.24,11.1183"/><path id="path10" fill="none" stroke="#000" stroke-linecap="round" stroke-linejoin="round" stroke-width="2" d="M 10.7123,47.333 C 7.65,59.01 24.9329,69.8018 39.5248,34.01 50.8373,5.9268 20.5873,0.1351 15.9623,17.6768 c 0,0 -2.7758,9.8921 5.3911,14.0507"/><path id="path11" fill="none" stroke="#000" stroke-linecap="round" stroke-linejoin="round" stroke-width="2" d="m 24.8373,26.0518 c 4.4386,7 7.5,13.5417 1.5,16.25 -1.3969,0.5735 -2.8765,0.4132 -4.3824,1.1735 -1.5343,0.7223 -1.8192,1.3265 -3.6385,3.2848 -2.5625,2.0625 -5.7708,-1.5465 -3.9583,-3.6875"/><circle id="circle11" cx="20.028" cy="35.552" r="4.048" fill="none" stroke="#000" stroke-linecap="round" stroke-linejoin="round" stroke-width="2"/></g></g><g id="color-foreground" transform="translate(-9.3555796,-6.7433314)"><circle id="circle12" cx="20.01" cy="35.494" r="3.054" fill="#d0cfce"/></g></svg>