<?xml version="1.0" encoding="UTF-8" standalone="no"?>
<svg
   id="emoji"
   viewBox="0 0 44.002235 47"
   version="1.1"
   sodipodi:docname="1f9b6-1f3ff.svg"
   width="44.002235"
   height="47"
   xmlns:inkscape="http://www.inkscape.org/namespaces/inkscape"
   xmlns:sodipodi="http://sodipodi.sourceforge.net/DTD/sodipodi-0.dtd"
   xmlns="http://www.w3.org/2000/svg"
   xmlns:svg="http://www.w3.org/2000/svg">
  <defs
     id="defs4" />
  <sodipodi:namedview
     id="namedview4"
     pagecolor="#ffffff"
     bordercolor="#000000"
     borderopacity="0.25"
     inkscape:showpageshadow="2"
     inkscape:pageopacity="0.0"
     inkscape:pagecheckerboard="0"
     inkscape:deskcolor="#d1d1d1" />
  <g
     id="color"
     transform="translate(-10.997765,-12)" />
  <g
     id="skin"
     transform="translate(-10.997765,-12)">
    <path
       fill="#6a462f"
       d="m 38,13 c 0,0 2,18 2,23 0,4.1231 -2.1716,7.5858 -5,9 -4,2 -14,7 -19,7 H 12.6 A 4.8944,4.8944 0 0 0 12,54.5 3.5,3.5 0 0 0 15.5,58 H 49 a 5,5 0 0 0 5,-5 C 54,47 51,42 51,36 51,30 54,13 54,13 V 12 H 38 Z"
       id="path1" />
  </g>
  <g
     id="skin-shadow"
     transform="translate(-10.997765,-12)">
    <path
       fill="#352318"
       d="M 45.5,58 H 49 a 5,5 0 0 0 5,-5 c 0,-6 -3,-11 -3,-17 0,-6 3,-23 3,-23 v -1 h -4 c 0,0 -3,17 -3,23 0,6 3,11 3,17 a 5,5 0 0 1 -5,5 z"
       id="path2" />
  </g>
  <g
     id="line"
     transform="translate(-10.997765,-12)">
    <path
       fill="none"
       stroke="#000000"
       stroke-linecap="round"
       stroke-linejoin="round"
       stroke-width="2"
       d="m 38,13 c 0,0 2,18 2,23 0,4.1231 -2.1716,7.5858 -5,9 -4,2 -14,7 -19,7 H 12.6 A 4.8944,4.8944 0 0 0 12,54.5 3.5,3.5 0 0 0 15.5,58 H 49 a 5,5 0 0 0 5,-5 c 0,-6 -3,-11 -3,-17 0,-6 3,-23 3,-23"
       id="path3" />
    <path
       fill="none"
       stroke="#000000"
       stroke-linecap="round"
       stroke-miterlimit="10"
       stroke-width="2"
       d="m 48,47 a 4,4 0 0 1 -4,4"
       id="path4" />
  </g>
</svg>
