<?xml version="1.0" encoding="UTF-8" standalone="no"?>
<svg
   id="emoji"
   viewBox="0 0 42 37.950001"
   version="1.1"
   sodipodi:docname="1f9b0.svg"
   width="42"
   height="37.950001"
   xmlns:inkscape="http://www.inkscape.org/namespaces/inkscape"
   xmlns:sodipodi="http://sodipodi.sourceforge.net/DTD/sodipodi-0.dtd"
   xmlns="http://www.w3.org/2000/svg"
   xmlns:svg="http://www.w3.org/2000/svg">
  <defs
     id="defs4" />
  <sodipodi:namedview
     id="namedview4"
     pagecolor="#ffffff"
     bordercolor="#000000"
     borderopacity="0.25"
     inkscape:showpageshadow="2"
     inkscape:pageopacity="0.0"
     inkscape:pagecheckerboard="0"
     inkscape:deskcolor="#d1d1d1" />
  <g
     id="color"
     transform="translate(-15,-17.05)">
    <path
       fill="#e27022"
       stroke="#e27022"
       stroke-miterlimit="10"
       stroke-width="2"
       d="M 16,53.86 H 53.82 C 54,51 56,48.11 56,45.19 56,31.62 44.69,18.05 24.34,18.05 c -3,0 -5.75,2.14 -8.34,2.68 z"
       id="path1" />
    <path
       fill="#fcea2b"
       stroke="#fcea2b"
       stroke-miterlimit="10"
       stroke-width="2"
       d="M 16,53.89 H 46.34 C 44.71,44.89 42.57,37.2 42.57,37.2 29.46,37.2 23.47,41.77 16,42 Z"
       id="path2" />
  </g>
  <g
     id="line"
     transform="translate(-15,-17.05)">
    <path
       fill="none"
       stroke="#000000"
       stroke-linecap="round"
       stroke-linejoin="round"
       stroke-width="2"
       d="M 55.75,54 C 55.92,51.15 56,48.19 56,45.24 56,31.67 44.69,18.1 24.34,18.1 A 40.5956,40.5956 0 0 0 16,18.96"
       id="path3" />
    <path
       fill="none"
       stroke="#000000"
       stroke-linecap="round"
       stroke-linejoin="round"
       stroke-width="2"
       d="m 48.48,54 a 78.845,78.845 0 0 0 -6,-17.81 c -13,0 -19,3.5 -26.43,3.78"
       id="path4" />
  </g>
</svg>
