<svg xmlns="http://www.w3.org/2000/svg" xmlns:svg="http://www.w3.org/2000/svg" id="emoji" width="44.002" height="47" version="1.1" viewBox="0 0 44.002 47"><g id="skin" transform="translate(-10.997765,-12)"><path id="path1" fill="#a57939" d="m 38,13 c 0,0 2,18 2,23 0,4.1231 -2.1716,7.5858 -5,9 -4,2 -14,7 -19,7 H 12.6 A 4.8944,4.8944 0 0 0 12,54.5 3.5,3.5 0 0 0 15.5,58 H 49 a 5,5 0 0 0 5,-5 C 54,47 51,42 51,36 51,30 54,13 54,13 V 12 H 38 Z"/></g><g id="skin-shadow" transform="translate(-10.997765,-12)"><path id="path2" fill="#6a462f" d="M 45.5,58 H 49 a 5,5 0 0 0 5,-5 c 0,-6 -3,-11 -3,-17 0,-6 3,-23 3,-23 v -1 h -4 c 0,0 -3,17 -3,23 0,6 3,11 3,17 a 5,5 0 0 1 -5,5 z"/></g><g id="line" transform="translate(-10.997765,-12)"><path id="path3" fill="none" stroke="#000" stroke-linecap="round" stroke-linejoin="round" stroke-width="2" d="m 38,13 c 0,0 2,18 2,23 0,4.1231 -2.1716,7.5858 -5,9 -4,2 -14,7 -19,7 H 12.6 A 4.8944,4.8944 0 0 0 12,54.5 3.5,3.5 0 0 0 15.5,58 H 49 a 5,5 0 0 0 5,-5 c 0,-6 -3,-11 -3,-17 0,-6 3,-23 3,-23"/><path id="path4" fill="none" stroke="#000" stroke-linecap="round" stroke-miterlimit="10" stroke-width="2" d="m 48,47 a 4,4 0 0 1 -4,4"/></g></svg>