<?xml version="1.0" encoding="UTF-8" standalone="no"?>
<svg
   id="emoji"
   viewBox="0 0 43.9142 44.078899"
   version="1.1"
   sodipodi:docname="1f9bd.svg"
   width="43.9142"
   height="44.078899"
   xmlns:inkscape="http://www.inkscape.org/namespaces/inkscape"
   xmlns:sodipodi="http://sodipodi.sourceforge.net/DTD/sodipodi-0.dtd"
   xmlns="http://www.w3.org/2000/svg"
   xmlns:svg="http://www.w3.org/2000/svg">
  <defs
     id="defs5" />
  <sodipodi:namedview
     id="namedview5"
     pagecolor="#ffffff"
     bordercolor="#000000"
     borderopacity="0.25"
     inkscape:showpageshadow="2"
     inkscape:pageopacity="0.0"
     inkscape:pagecheckerboard="0"
     inkscape:deskcolor="#d1d1d1" />
  <g
     id="color"
     transform="translate(-12.9409,-10.7483)">
    <path
       fill="#ffffff"
       d="m 26.307,29.4551 c 0,0 -2.6641,-0.6524 -4.0777,0.5981 -1.4136,1.2505 -3.0991,10.2758 -3.2622,11.2545 -0.1631,0.9787 2.3923,3.534 2.3923,3.534 l 2.9903,-1.1961 c 0,0 0.2718,-11.472 1.9573,-14.1905 z"
       id="path1" />
    <path
       fill="#ea5a47"
       d="m 50.33,11.0293 c 0.9038,-0.1443 1.4512,0.6169 1.2165,1.6916 l -3.5293,16.16 c -0.2482,1.0838 -1.2989,1.7857 -2.3952,1.6 L 24.4888,26.6791 c -0.6015,0.001 -1.09,-0.4859 -1.091,-1.0874 -5e-4,-0.3166 0.1368,-0.6178 0.3761,-0.8251 l 0.073,-0.0908 c 0.8156,-0.9055 2.0157,-1.3653 3.2275,-1.2367 l 15.6617,2.5533 c 1.1146,0.1582 2.1753,-0.5295 2.4857,-1.6116 L 48.175,13.2251 c 0.2783,-1.0622 1.0982,-1.8976 2.155,-2.1958 z"
       id="path2" />
    <circle
       cx="40.892899"
       cy="38.8172"
       r="14.9622"
       fill="#d0cfce"
       id="circle2" />
    <circle
       cx="22.520399"
       cy="50.1301"
       r="3.8971"
       fill="#d0cfce"
       id="circle3" />
  </g>
  <g
     id="line"
     transform="translate(-12.9409,-10.7483)">
    <line
       x1="19.246799"
       x2="13.9409"
       y1="45.2892"
       y2="45.2892"
       fill="none"
       stroke="#000000"
       stroke-linecap="round"
       stroke-linejoin="round"
       stroke-width="2"
       id="line3" />
    <line
       x1="51.758999"
       x2="48.741901"
       y1="11.7483"
       y2="25.5634"
       fill="none"
       stroke="#000000"
       stroke-linecap="round"
       stroke-linejoin="round"
       stroke-width="2"
       id="line4" />
    <path
       fill="none"
       stroke="#000000"
       stroke-linecap="round"
       stroke-linejoin="round"
       stroke-width="2"
       d="M 30.35,27.3077 24.6045,26.325 c -2.2158,-0.1266 -4.229,1.284 -4.8664,3.41 0,0 -4.2077,9.749 -2.3324,17.2505"
       id="path4" />
    <circle
       cx="40.892899"
       cy="38.8172"
       r="14.9622"
       fill="none"
       stroke="#000000"
       stroke-linecap="round"
       stroke-linejoin="round"
       stroke-width="2"
       id="circle4" />
    <circle
       cx="22.520399"
       cy="50.1301"
       r="3.8971"
       fill="none"
       stroke="#000000"
       stroke-linecap="round"
       stroke-linejoin="round"
       stroke-width="1.6"
       id="circle5" />
    <line
       x1="17.182199"
       x2="20.2143"
       y1="43.0317"
       y2="46.233002"
       fill="none"
       stroke="#000000"
       stroke-linecap="round"
       stroke-linejoin="round"
       stroke-width="2"
       id="line5" />
  </g>
</svg>
