<?xml version="1.0" encoding="UTF-8" standalone="no"?>
<svg
   id="emoji"
   viewBox="0 0 42.48 66"
   version="1.1"
   sodipodi:docname="1f9ba.svg"
   width="42.48"
   height="66"
   xmlns:inkscape="http://www.inkscape.org/namespaces/inkscape"
   xmlns:sodipodi="http://sodipodi.sourceforge.net/DTD/sodipodi-0.dtd"
   xmlns="http://www.w3.org/2000/svg"
   xmlns:svg="http://www.w3.org/2000/svg">
  <defs
     id="defs9" />
  <sodipodi:namedview
     id="namedview9"
     pagecolor="#ffffff"
     bordercolor="#000000"
     borderopacity="0.25"
     inkscape:showpageshadow="2"
     inkscape:pageopacity="0.0"
     inkscape:pagecheckerboard="0"
     inkscape:deskcolor="#d1d1d1" />
  <g
     id="color"
     transform="translate(-15,-3)">
    <path
       fill="#e27022"
       d="m 15.52,11.4 v 49.2 a 7.4,7.4 0 0 0 7.4,7.4 H 48.8 a 7.4,7.4 0 0 0 7.4,-7.4 V 11.4 A 7.4,7.4 0 0 0 48.8,4 V 4 L 36.2773,5.47 q -0.2772,0.01 -0.5546,0 L 23.2,4 h -0.28 a 7.4,7.4 0 0 0 -7.4,7.4 z"
       id="path1" />
    <line
       x1="51.360001"
       x2="43.076"
       y1="4.0377002"
       y2="48.799999"
       fill="none"
       stroke="#fcea2b"
       stroke-miterlimit="10"
       stroke-width="2"
       id="line1" />
    <line
       x1="20.639999"
       x2="28.32"
       y1="4.0377002"
       y2="48.799999"
       fill="none"
       stroke="#fcea2b"
       stroke-miterlimit="10"
       stroke-width="2"
       id="line2" />
    <line
       x1="38"
       x2="56.48"
       y1="48.799999"
       y2="48.799999"
       fill="none"
       stroke="#fcea2b"
       stroke-miterlimit="10"
       stroke-width="2"
       id="line3" />
    <line
       x1="15.52"
       x2="34"
       y1="48.799999"
       y2="48.799999"
       fill="none"
       stroke="#fcea2b"
       stroke-miterlimit="10"
       stroke-width="2"
       id="line4" />
    <line
       x1="38"
       x2="56.48"
       y1="59.040001"
       y2="59.040001"
       fill="none"
       stroke="#fcea2b"
       stroke-miterlimit="10"
       stroke-width="2"
       id="line5" />
    <line
       x1="15.52"
       x2="34"
       y1="59.040001"
       y2="59.040001"
       fill="none"
       stroke="#fcea2b"
       stroke-miterlimit="10"
       stroke-width="2"
       id="line6" />
    <polygon
       fill="#ea5a47"
       points="34.48,63.984 33.085,67 39.384,67 38,63.984 38,21.794 47.24,6 36,6 25.24,6 34.48,21.694 "
       id="polygon6" />
  </g>
  <g
     id="line"
     transform="translate(-15,-3)">
    <path
       fill="none"
       stroke="#000000"
       stroke-linecap="round"
       stroke-linejoin="round"
       stroke-width="2"
       d="M 44.0325,68 H 48.97 a 7.51,7.51 0 0 0 7.51,-7.51 V 9.5156 C 56.48,5 52.2,4 50.92,4 H 49.5094 A 1.28,1.28 0 0 0 48.424,4.6016 l -9.81,16.2647 a 4.2317,4.2317 0 0 0 -0.5984,1.8988 l -0.0063,0.0915 Q 38,23 38,23.1437 V 61.9675 A 6.0326,6.0326 0 0 0 44.0325,68 Z"
       id="path6" />
    <path
       fill="none"
       stroke="#000000"
       stroke-linecap="round"
       stroke-miterlimit="10"
       stroke-width="2"
       d="M 48,5 C 48,5 38,6 36,6 34,6 25,5 25,5"
       id="path7" />
    <path
       fill="none"
       stroke="#000000"
       stroke-linecap="round"
       stroke-miterlimit="10"
       stroke-width="2"
       d="m 32,67 c 0,0 3.2571,0.1077 4.38,0.1 C 37.44,67.0927 40.5,67 40.5,67"
       id="path8" />
    <path
       fill="none"
       stroke="#000000"
       stroke-linecap="round"
       stroke-linejoin="round"
       stroke-width="2"
       d="M 28.4475,68 H 23.51 A 7.51,7.51 0 0 1 16,60.49 V 9.5156 C 16,5 20.28,4 21.56,4 h 1.4106 a 1.28,1.28 0 0 1 1.0854,0.6016 l 9.81,16.2647 a 4.2317,4.2317 0 0 1 0.5984,1.8988 l 0.0062,0.0915 q 0.01,0.1434 0.01,0.2871 V 61.9675 A 6.0326,6.0326 0 0 1 28.4475,68 Z"
       id="path9" />
  </g>
</svg>
