<svg xmlns="http://www.w3.org/2000/svg" xmlns:svg="http://www.w3.org/2000/svg" id="emoji" width="42" height="37.95" version="1.1" viewBox="0 0 42 37.95"><g id="color" transform="translate(-15,-17.05)"><path id="path1" fill="#e27022" stroke="#e27022" stroke-miterlimit="10" stroke-width="2" d="M 16,53.86 H 53.82 C 54,51 56,48.11 56,45.19 56,31.62 44.69,18.05 24.34,18.05 c -3,0 -5.75,2.14 -8.34,2.68 z"/><path id="path2" fill="#fcea2b" stroke="#fcea2b" stroke-miterlimit="10" stroke-width="2" d="M 16,53.89 H 46.34 C 44.71,44.89 42.57,37.2 42.57,37.2 29.46,37.2 23.47,41.77 16,42 Z"/></g><g id="line" transform="translate(-15,-17.05)"><path id="path3" fill="none" stroke="#000" stroke-linecap="round" stroke-linejoin="round" stroke-width="2" d="M 55.75,54 C 55.92,51.15 56,48.19 56,45.24 56,31.67 44.69,18.1 24.34,18.1 A 40.5956,40.5956 0 0 0 16,18.96"/><path id="path4" fill="none" stroke="#000" stroke-linecap="round" stroke-linejoin="round" stroke-width="2" d="m 48.48,54 a 78.845,78.845 0 0 0 -6,-17.81 c -13,0 -19,3.5 -26.43,3.78"/></g></svg>