<?xml version="1.0" encoding="UTF-8" standalone="no"?>
<svg
   id="emoji"
   viewBox="0 0 47.217335 51.0271"
   version="1.1"
   sodipodi:docname="1f9b9-1f3fc-200d-2640-fe0f.svg"
   width="47.217335"
   height="51.0271"
   xmlns:inkscape="http://www.inkscape.org/namespaces/inkscape"
   xmlns:sodipodi="http://sodipodi.sourceforge.net/DTD/sodipodi-0.dtd"
   xmlns="http://www.w3.org/2000/svg"
   xmlns:svg="http://www.w3.org/2000/svg">
  <defs
     id="defs22" />
  <sodipodi:namedview
     id="namedview22"
     pagecolor="#ffffff"
     bordercolor="#000000"
     borderopacity="0.25"
     inkscape:showpageshadow="2"
     inkscape:pageopacity="0.0"
     inkscape:pagecheckerboard="0"
     inkscape:deskcolor="#d1d1d1" />
  <g
     id="hair"
     transform="translate(-12.391382,-9.9729)">
    <path
       fill="#fcea2b"
       d="m 18.0392,47.4084 c 1.1226,1.0189 2.3391,1.9294 3.6331,2.7193 1.5566,-1.1839 3.4138,-1.908 5.361,-2.09 6.209,5.0127 12.4951,5.0127 18.7,0 1.5145,0.1121 2.9697,0.6354 4.2087,1.5136 1.0534,-0.6931 2.0475,-1.4724 2.972,-2.33 1.1884,-0.7148 3.125,-8.2822 0.3916,-13.0254 -0.4386,-0.8534 -0.8251,-1.7326 -1.1573,-2.6328 -1.4726,-3.27 -2.0234,-4.4927 -2.3486,-10.5239 0.0273,-3.6929 -3.794,-6.7842 -7.4746,-7.0928 -0.266,-0.0182 -0.5139,-0.1418 -0.6885,-0.3433 -0.0928,-0.1 -2.4082,-2.6547 -7.2432,-2.6547 -6.2,0 -11.4413,3.3818 -12.743,8.226 -0.534,2.0122 -0.7248,4.1001 -0.5645,6.1758 0.2039,2.019 -0.0563,4.0578 -0.7607,5.9609 -0.2481,0.7561 -0.6269,1.4627 -1.1192,2.0879 -3.7723,4.4196 -0.9745,14.3024 -1.1668,14.0094 z"
       id="path1" />
  </g>
  <g
     id="skin"
     transform="translate(-12.391382,-9.9729)">
    <path
       fill="#debb90"
       d="m 25.1846,29.878 v 0.9912 C 25.1846,38.7924 29.9144,45 35.9532,45 41.992,45 46.722,38.7921 46.722,30.8693 c 0,-4.8198 -1.8249,-7.784 -5.4224,-11.5327 -2.9045,2.2482 -5.9896,4.248 -9.2235,5.9785 -2.7158,1.5684 -6.4186,3.697 -6.8915,4.5629 z"
       id="path2" />
  </g>
  <g
     id="color"
     transform="translate(-12.391382,-9.9729)">
    <path
       fill="#3f3f3f"
       d="m 35.9935,45 c -2.7523,0 -5.2888,-1.2704 -7.2341,-3.4094 L 13.3912,41.583 c 1.694,2.6777 4.6436,8.9425 5.1442,10.7899 h 34.9291 c 0.4994,-1.8426 3.4345,-8.0783 5.1306,-10.7675 L 43.2224,41.5978 C 41.2778,43.7329 38.7431,45 35.9935,45 Z"
       id="path3" />
    <path
       fill="#5c9e31"
       d="m 36,32.706 c -0.4906,0.9134 -2.9358,2.556 -5.8905,2.566 -2.4937,0.0084 -5.3503,-1.146 -7.7007,-4.8833 -0.8499,-1.3361 -2.4223,-5.0381 -2.4223,-8.0675 1.9916,6.7499 6.304,3.5056 10.6368,3.5306 1.848,0.0107 3.6998,0.6161 5.3767,2.8456 1.6769,-2.2294 3.5286,-2.8349 5.3767,-2.8456 4.3328,-0.025 8.6452,3.2193 10.6368,-3.5306 0,3.0294 -1.5724,6.7314 -2.4223,8.0675 -2.3504,3.7372 -5.207,4.8917 -7.7007,4.8833 C 38.9358,35.262 36.4906,33.6194 36,32.706 Z"
       id="path4" />
    <path
       fill="#b1cc33"
       d="m 17,61 v -4 c 0,-4.9941 5.0078,-9 10,-9 6,5 12,5 18,0 4.9941,0 10,4.0059 10,9 v 4"
       id="path5" />
    <path
       fill="#3f3f3f"
       d="M 47.392,61 C 47.1203,59.9876 46.7717,57.8412 46.3491,56.882 45.3123,54.5445 43.8576,52.4158 42.0565,50.6006 H 29.9435 C 28.1424,52.4158 26.6877,54.5445 25.6509,56.882 25.2283,57.8412 24.8797,59.9876 24.608,61"
       id="path6" />
  </g>
  <g
     id="line"
     transform="translate(-12.391382,-9.9729)">
    <path
       fill="none"
       stroke="#000000"
       stroke-linecap="round"
       stroke-linejoin="round"
       stroke-width="2"
       d="m 54.7803,40.7757 c 0.2364,-2.0235 -0.0649,-4.0736 -0.8736,-5.9435 -2.4043,-5.67 -3.042,-5.6425 -3.4287,-12.8222 -0.0322,-4.1856 -3.2362,-7.6631 -7.4052,-8.0371 0,0 -2.6,-3 -8,-3 -6.4317,0 -12.23,3.4658 -13.709,8.9658 -1.5,5.583 0.3447,7.834 -1.291,12.0342 -1.2173,3.1275 -3.0181,6.0642 -2.928,9.4371"
       id="path7" />
    <path
       fill="none"
       stroke="#000000"
       stroke-linejoin="round"
       stroke-width="2"
       d="M 25.1846,33.6654 C 26.1526,40.2963 30.6811,45 35.9935,45 c 5.3363,0 9.8817,-4.7461 10.8219,-11.4242"
       id="path8" />
    <path
       fill="none"
       stroke="#000000"
       stroke-linecap="round"
       stroke-linejoin="round"
       stroke-width="2"
       d="m 46.2879,26.1914 c -0.9234,-2.519 -2.6619,-4.665 -5.2154,-7.2185 -2.117,2.117 -7.282,4.8159 -10.9157,6.9"
       id="path9" />
    <path
       fill="none"
       stroke="#000000"
       stroke-linecap="round"
       stroke-linejoin="round"
       stroke-width="2"
       d="m 39,38.9729 c -1.875,-1 -4.125,-1 -6,0"
       id="path10" />
    <path
       d="m 42,29.9729 c 0,1.1046 -0.8954,2 -2,2 -1.1046,0 -2,-0.8954 -2,-2 0,-1.1046 0.8954,-2 2,-2 1.1046,0 2,0.8954 2,2"
       id="path11" />
    <path
       d="m 34,29.9729 c 0,1.1046 -0.8954,2 -2,2 -1.1046,0 -2,-0.8954 -2,-2 0,-1.1046 0.8954,-2 2,-2 1.1046,0 2,0.8954 2,2"
       id="path12" />
    <path
       fill="none"
       stroke="#000000"
       stroke-linecap="round"
       stroke-linejoin="round"
       stroke-width="2"
       d="M 28.773,41.6054 13.3913,41.583 c 1.694,2.6777 4.6436,8.9425 5.1442,10.7899"
       id="path13" />
    <path
       fill="none"
       stroke="#000000"
       stroke-linecap="round"
       stroke-miterlimit="10"
       stroke-width="2"
       d="m 20.5496,53.6671 c 1.0817,-1.4077 2.4649,-2.5554 4.048,-3.3589 1.0422,-0.5249 2.1568,-0.8916 3.3071,-1.088"
       id="path14" />
    <path
       fill="none"
       stroke="#000000"
       stroke-linecap="round"
       stroke-miterlimit="10"
       stroke-width="2"
       d="m 29.2085,49.7066 c -3.4125,1.1596 -5.9768,4.0098 -6.7705,7.5255"
       id="path15" />
    <path
       fill="none"
       stroke="#000000"
       stroke-linecap="round"
       stroke-miterlimit="10"
       stroke-width="2"
       d="M 29.9435,50.6006 C 28.1424,52.4158 26.6877,54.5445 25.6509,56.882 25.2283,57.8412 24.8797,58.9876 24.608,60"
       id="path16" />
    <path
       fill="none"
       stroke="#000000"
       stroke-linejoin="round"
       stroke-width="2"
       d="m 36,32.706 c -0.4906,0.9134 -2.9358,2.556 -5.8905,2.566 -2.4937,0.0084 -5.3503,-1.146 -7.7007,-4.8833 -0.8499,-1.3361 -2.4223,-5.0381 -2.4223,-8.0675 1.9916,6.7499 6.304,3.5056 10.6368,3.5306 1.848,0.0107 3.6998,0.6161 5.3767,2.8456 1.6769,-2.2294 3.5286,-2.8349 5.3767,-2.8456 4.3328,-0.025 8.6452,3.2193 10.6368,-3.5306 0,3.0294 -1.5724,6.7314 -2.4223,8.0675 -2.3504,3.7372 -5.207,4.8917 -7.7007,4.8833 C 38.9358,35.262 36.4906,33.6194 36,32.706 Z"
       id="path17" />
    <path
       fill="none"
       stroke="#000000"
       stroke-linecap="round"
       stroke-linejoin="round"
       stroke-width="2"
       d="m 17,60 v -3 c 0,-4.9941 5.0078,-9 10,-9 6,5 12,5 18,0 4.9941,0 10,4.0059 10,9 v 3"
       id="path18" />
    <path
       fill="none"
       stroke="#000000"
       stroke-linecap="round"
       stroke-linejoin="round"
       stroke-width="2"
       d="m 53.4646,52.3729 c 0.5006,-1.8474 3.4502,-8.1122 5.1442,-10.7899 L 43.227,41.6054"
       id="path19" />
    <path
       fill="none"
       stroke="#000000"
       stroke-linecap="round"
       stroke-miterlimit="10"
       stroke-width="2"
       d="m 44.0953,49.2202 c 1.1503,0.1964 2.2649,0.5631 3.3071,1.088 1.5831,0.8035 2.9663,1.9512 4.048,3.3589"
       id="path20" />
    <path
       fill="none"
       stroke="#000000"
       stroke-linecap="round"
       stroke-miterlimit="10"
       stroke-width="2"
       d="M 49.562,57.2321 C 48.7683,53.7164 46.204,50.8662 42.7915,49.7066"
       id="path21" />
    <path
       fill="none"
       stroke="#000000"
       stroke-linecap="round"
       stroke-miterlimit="10"
       stroke-width="2"
       d="M 47.392,60 C 47.1203,58.9876 46.7717,57.8412 46.3491,56.882 45.3123,54.5445 43.8576,52.4158 42.0565,50.6006"
       id="path22" />
  </g>
</svg>
