<?xml version="1.0" encoding="UTF-8" standalone="no"?>
<svg
   id="emoji"
   viewBox="0 0 54.635155 48.723202"
   version="1.1"
   sodipodi:docname="1f9bc.svg"
   width="54.635155"
   height="48.723202"
   xmlns:inkscape="http://www.inkscape.org/namespaces/inkscape"
   xmlns:sodipodi="http://sodipodi.sourceforge.net/DTD/sodipodi-0.dtd"
   xmlns="http://www.w3.org/2000/svg"
   xmlns:svg="http://www.w3.org/2000/svg">
  <defs
     id="defs6" />
  <sodipodi:namedview
     id="namedview6"
     pagecolor="#ffffff"
     bordercolor="#000000"
     borderopacity="0.25"
     inkscape:showpageshadow="2"
     inkscape:pageopacity="0.0"
     inkscape:pagecheckerboard="0"
     inkscape:deskcolor="#d1d1d1" />
  <g
     id="color"
     transform="translate(-7.8851477,-9.3682)">
    <path
       fill="#a57939"
       d="m 53.5813,29.472 a 3.5128,3.5128 0 0 1 -1,0.0729 H 35.4045 a 1.0029,1.0029 0 0 0 -1,1 v 2.0076 a 1.0029,1.0029 0 0 0 1,1 h 21.1843 a 1.0029,1.0029 0 0 0 1,-1 V 11.3682 a 1.0029,1.0029 0 0 0 -1,-1 h -2.0075 a 1.0029,1.0029 0 0 0 -1,1 z"
       id="path1" />
    <path
       fill="#ea5a47"
       d="m 41.3058,33.5525 c -7.8,2.8289 -8.5532,11.1565 -8.5532,11.1565 l -9.29,0.1483 a 14.883,14.883 0 0 1 1.9152,7.0546 l 10.81,0.1463 v -0.1463 a 12.4838,12.4838 0 1 1 24.9676,0 c 1.7835,-10.7 -3.5667,-19.6176 -3.5667,-19.6176"
       id="path2" />
    <circle
       cx="48.1964"
       cy="50.800201"
       r="6.2912002"
       fill="#d0cfce"
       id="circle2" />
    <circle
       cx="15.1762"
       cy="50.800201"
       r="6.2912002"
       fill="#d0cfce"
       id="circle3" />
  </g>
  <g
     id="line"
     transform="translate(-7.8851477,-9.3682)">
    <path
       fill="none"
       stroke="#000000"
       stroke-linecap="round"
       stroke-linejoin="round"
       stroke-width="2"
       d="m 23.6968,45.7191 a 10.9438,10.9438 0 0 1 1.6812,6.1928 l 10.81,0.1463 v -0.1463 a 12.4838,12.4838 0 1 1 24.9676,0 c 1.7835,-10.7 -3.5667,-19.6176 -3.5667,-19.6176"
       id="path3" />
    <path
       fill="none"
       stroke="#000000"
       stroke-linecap="round"
       stroke-linejoin="round"
       stroke-width="2"
       d="m 41.3058,33.5525 c -7.8,2.8289 -8.7086,12.14 -8.7086,12.14 l -4.079,0.0123"
       id="path4" />
    <circle
       cx="48.1964"
       cy="50.800201"
       r="6.2912002"
       fill="none"
       stroke="#000000"
       stroke-miterlimit="10"
       stroke-width="2"
       id="circle4" />
    <path
       fill="none"
       stroke="#000000"
       stroke-linecap="round"
       stroke-linejoin="round"
       stroke-width="2"
       d="M 25.378,51.9119 A 12.505,12.505 0 0 0 17.0339,40.1882"
       id="path5" />
    <path
       fill="none"
       stroke="#000000"
       stroke-linecap="round"
       stroke-linejoin="round"
       stroke-width="2"
       d="m 53.5813,29.472 a 3.5128,3.5128 0 0 1 -1,0.0729 H 35.4045 a 1.0029,1.0029 0 0 0 -1,1 v 2.0076 a 1.0029,1.0029 0 0 0 1,1 h 21.1843 a 1.0029,1.0029 0 0 0 1,-1 V 11.3682 a 1.0029,1.0029 0 0 0 -1,-1 h -2.0075 a 1.0029,1.0029 0 0 0 -1,1 z"
       id="path6" />
    <polyline
       fill="none"
       stroke="#000000"
       stroke-linecap="round"
       stroke-linejoin="round"
       stroke-width="2"
       points="21.275 42.528 30.619 20.544 34.405 20.581 37.301 20.61"
       id="polyline6" />
    <line
       x1="34.404499"
       x2="34.404499"
       y1="18.4809"
       y2="20.580999"
       fill="none"
       stroke="#000000"
       stroke-linecap="round"
       stroke-linejoin="round"
       stroke-width="2"
       id="line6" />
    <circle
       cx="15.1762"
       cy="50.798801"
       r="6.2911"
       transform="rotate(-1.3352,15.175316,50.795828)"
       fill="none"
       stroke="#000000"
       stroke-miterlimit="10"
       stroke-width="2"
       id="circle6" />
  </g>
</svg>
