<svg xmlns="http://www.w3.org/2000/svg" xmlns:svg="http://www.w3.org/2000/svg" id="emoji" width="49.194" height="57.612" version="1.1" viewBox="0 0 49.194 57.612"><g id="color" transform="translate(-11.4029,-6.9802075)"><path id="Bone_Color_1" fill="#fff" d="m 57.6308,16.2773 c -0.7492,-0.6747 -2.1534,-0.5925 -3.69,-0.3074 l 0.002,-0.0034 c -3.0382,0.3833 -3.745,-4.61 -5.3217,-6.3872 A 5.5988,5.5988 0 0 0 43.8269,7.7749 c -3.3581,0.503 -4.6862,4.6674 -4.8625,5.22 a 8.98,8.98 0 0 0 -0.0162,5.23 7.259,7.259 0 0 1 -0.2871,4.8751 57.3478,57.3478 0 0 1 -16.7081,21.3656 10.2284,10.2284 0 0 0 -6.0247,1.645 c -1.167,0.7675 -3.44,2.2622 -3.5253,4.742 a 5.3774,5.3774 0 0 0 1.9662,3.9574 c 0.7508,0.6761 2.1591,0.5924 3.6994,0.3058 l -0.0114,0.005 c 3.0382,-0.3833 3.745,4.6095 5.3217,6.3872 a 5.5986,5.5986 0 0 0 4.7942,1.8044 c 3.3581,-0.503 4.6862,-4.6674 4.8626,-5.22 a 8.9807,8.9807 0 0 0 0.0161,-5.23 5.5407,5.5407 0 0 1 0.01,-3.365 l 0.37,-0.1363 8.6435,-14.0464 0.3368,-0.5492 a 55.5006,55.5006 0 0 1 7.5605,-8.1871 10.3173,10.3173 0 0 0 6.0991,-1.6015 c 1.1669,-0.7675 3.44,-2.2622 3.5252,-4.742 a 5.3774,5.3774 0 0 0 -1.9661,-3.9576 z"/><path id="Bone_Color_2" fill="#d0cfce" d="m 22.4243,59.1764 c -0.9465,1.4995 2.1858,6.5792 8.5527,2.83 1.4108,-0.8308 1.85,-3.9655 2.7855,-5.8362 0.4811,-0.9627 -1.3408,-5.5054 -0.8416,-6.5355 4.8771,-10.0636 12.8184,-19.207 17.0519,-22.8138 a 10.3166,10.3166 0 0 0 6.099,-1.6015 c 1.1669,-0.7674 3.44,-2.2621 3.5252,-4.7419 A 5.3776,5.3776 0 0 0 57.6308,16.52 c -2.0734,-1.867 -3.8687,-0.9947 -4.0321,-0.6918 0,0 1.1287,2.1825 -1.8611,5.2919 -7.0907,7.3738 -18.9706,22.7162 -24.7271,34.4531 -2.6189,5.3397 -4.5862,3.6032 -4.5862,3.6032 z"/></g><g id="line" transform="translate(-11.4029,-6.9802075)"><path id="Bone_Line_1" fill="none" stroke="#000" stroke-linecap="round" stroke-linejoin="round" stroke-width="2" d="m 47.39,16.6351 c 1.0969,1.92 8.1674,-1.9826 10.2408,-0.1156 a 5.3776,5.3776 0 0 1 1.9662,3.9577 c -0.0856,2.48 -2.3583,3.9745 -3.5252,4.7419 a 10.3166,10.3166 0 0 1 -6.099,1.6015 c -7.2788,6.2013 -13.999,17.304 -16.541,21.9142 a 5.9007,5.9007 0 0 0 -0.38,4.37 8.9807,8.9807 0 0 1 -0.0161,5.23 c -0.1764,0.5528 -1.5045,4.7173 -4.8626,5.22 A 5.5986,5.5986 0 0 1 23.379,61.7504 c -1.5768,-1.7777 -2.2836,-6.7706 -5.3218,-6.3873"/><path id="Bone_Line_1-2" fill="none" stroke="#000" stroke-linecap="round" stroke-linejoin="round" stroke-width="2" d="m 24.61,54.9369 c -1.097,-1.92 -8.1675,1.9826 -10.2409,0.1156 a 5.3776,5.3776 0 0 1 -1.9662,-3.9577 c 0.0856,-2.48 2.3583,-3.9745 3.5252,-4.7419 a 10.2279,10.2279 0 0 1 6.0247,-1.645 57.3482,57.3482 0 0 0 16.7083,-21.3662 7.26,7.26 0 0 0 0.2871,-4.8744 8.98,8.98 0 0 1 0.0162,-5.23 c 0.1763,-0.5528 1.5044,-4.7173 4.8625,-5.22 a 5.5988,5.5988 0 0 1 4.7942,1.8044 c 1.5767,1.7777 2.2835,6.7706 5.3218,6.3873"/></g></svg>