<svg xmlns="http://www.w3.org/2000/svg" xmlns:svg="http://www.w3.org/2000/svg" id="emoji" width="47.217" height="49.904" version="1.1" viewBox="0 0 47.217 49.904"><g id="hair" transform="translate(-12.391382,-11.0959)"><path id="path1" fill="#000" d="m 26,38.0959 c -3,0 -4,-7 -4,-14 0,-6 5,-12 14,-12 9,0 14,6 14,12 0,7 -1,14 -4,14"/></g><g id="skin" transform="translate(-12.391382,-11.0959)"><path id="path2" fill="#a57939" d="m 24.9623,30.4706 c -0.1015,8.299 4.0635,14.5251 11,14.5251 7.0635,0 11.0635,-6.225 11.0635,-14.5251 0,-5.1875 -3,-10.3751 -3,-10.3751 -8,0 -10,3.1125 -16,1.0375 -1.8525,2.7489 -2.9148,5.9869 -3.0635,9.3376 z"/></g><g id="color" transform="translate(-12.391382,-11.0959)"><path id="path3" fill="#3f3f3f" d="m 35.9935,45 c -2.7523,0 -5.2888,-1.2704 -7.2341,-3.4094 L 13.3912,41.583 c 1.694,2.6777 4.6436,8.9425 5.1442,10.7899 h 34.9291 c 0.4994,-1.8426 3.4345,-8.0783 5.1306,-10.7675 L 43.2224,41.5978 C 41.2778,43.7329 38.7431,45 35.9935,45 Z"/><path id="path4" fill="#5c9e31" d="m 36,32.706 c -0.4906,0.9134 -2.9358,2.556 -5.8905,2.566 -2.4937,0.0084 -5.3503,-1.146 -7.7007,-4.8833 -0.8499,-1.3361 -2.4223,-5.0381 -2.4223,-8.0675 1.9916,6.7499 6.304,3.5056 10.6368,3.5306 1.848,0.0107 3.6998,0.6161 5.3767,2.8456 1.6769,-2.2294 3.5286,-2.8349 5.3767,-2.8456 4.3328,-0.025 8.6452,3.2193 10.6368,-3.5306 0,3.0294 -1.5724,6.7314 -2.4223,8.0675 -2.3504,3.7372 -5.207,4.8917 -7.7007,4.8833 C 38.9358,35.262 36.4906,33.6194 36,32.706 Z"/><path id="path5" fill="#b1cc33" d="m 17,61 v -4 c 0,-4.9941 5.0078,-9 10,-9 6,5 12,5 18,0 4.9941,0 10,4.0059 10,9 v 4"/><path id="path6" fill="#3f3f3f" d="M 47.392,61 C 47.1203,59.9876 46.7717,57.8412 46.3491,56.882 45.3123,54.5445 43.8576,52.4158 42.0565,50.6006 H 29.9435 C 28.1424,52.4158 26.6877,54.5445 25.6509,56.882 25.2283,57.8412 24.8797,59.9876 24.608,61"/></g><g id="line" transform="translate(-12.391382,-11.0959)"><path id="path7" fill="none" stroke="#000" stroke-linecap="round" stroke-linejoin="round" stroke-width="2" d="m 39,38.9729 c -1.875,-1 -4.125,-1 -6,0"/><path id="path8" d="m 42,29.9729 c 0,1.1046 -0.8954,2 -2,2 -1.1046,0 -2,-0.8954 -2,-2 0,-1.1046 0.8954,-2 2,-2 1.1046,0 2,0.8954 2,2"/><path id="path9" d="m 34,29.9729 c 0,1.1046 -0.8954,2 -2,2 -1.1046,0 -2,-0.8954 -2,-2 0,-1.1046 0.8954,-2 2,-2 1.1046,0 2,0.8954 2,2"/><path id="path10" fill="none" stroke="#000" stroke-linecap="round" stroke-linejoin="round" stroke-width="2" d="M 28.4297,41.6054 13.3913,41.583 c 1.694,2.6777 4.6436,8.9425 5.1442,10.7899"/><path id="path11" fill="none" stroke="#000" stroke-linecap="round" stroke-miterlimit="10" stroke-width="2" d="m 20.5496,53.6671 c 1.0817,-1.4077 2.4649,-2.5554 4.048,-3.3589 1.0422,-0.5249 2.1568,-0.8916 3.3071,-1.088"/><path id="path12" fill="none" stroke="#000" stroke-linecap="round" stroke-miterlimit="10" stroke-width="2" d="m 29.2085,49.7066 c -3.4125,1.1596 -5.9768,4.0098 -6.7705,7.5255"/><path id="path13" fill="none" stroke="#000" stroke-linecap="round" stroke-miterlimit="10" stroke-width="2" d="M 29.9435,50.6006 C 28.1424,52.4158 26.6877,54.5445 25.6509,56.882 25.2283,57.8412 24.8797,58.9876 24.608,60"/><path id="path14" fill="none" stroke="#000" stroke-linecap="round" stroke-linejoin="round" stroke-width="2" d="m 46.53,26.5543 c -0.8517,-3.5967 -2.5042,-6.4587 -2.5042,-6.4587 -8,0 -10,3.1125 -16,1.0375 -1.1138,1.6528 -1.9359,3.4845 -2.4515,5.4092"/><path id="path15" fill="none" stroke="#000" stroke-linecap="round" stroke-linejoin="round" stroke-width="2" d="m 25.1249,33.4997 c 0.8301,6.7393 4.7748,11.496 10.8375,11.496 6.1623,0 9.9912,-4.7392 10.8683,-11.4594"/><path id="path16" fill="none" stroke="#000" stroke-linecap="round" stroke-linejoin="round" stroke-width="2" d="m 17,60 v -3 c 0,-4.9941 5.0078,-9 10,-9 6,5 12,5 18,0 4.9941,0 10,4.0059 10,9 v 3"/><path id="path17" fill="none" stroke="#000" stroke-linecap="round" stroke-linejoin="round" stroke-width="2" d="m 53.4646,52.3729 c 0.5006,-1.8474 3.4502,-8.1122 5.1442,-10.7899 l -15.0685,0.0224"/><path id="path18" fill="none" stroke="#000" stroke-linecap="round" stroke-miterlimit="10" stroke-width="2" d="m 44.0953,49.2202 c 1.1503,0.1964 2.2649,0.5631 3.3071,1.088 1.5831,0.8035 2.9663,1.9512 4.048,3.3589"/><path id="path19" fill="none" stroke="#000" stroke-linecap="round" stroke-miterlimit="10" stroke-width="2" d="M 49.562,57.2321 C 48.7683,53.7164 46.204,50.8662 42.7915,49.7066"/><path id="path20" fill="none" stroke="#000" stroke-linecap="round" stroke-miterlimit="10" stroke-width="2" d="M 47.392,60 C 47.1203,58.9876 46.7717,57.8412 46.3491,56.882 45.3123,54.5445 43.8576,52.4158 42.0565,50.6006"/><path id="path21" fill="none" stroke="#000" stroke-linejoin="round" stroke-width="2" d="m 36,32.706 c -0.4906,0.9134 -2.9358,2.556 -5.8905,2.566 -2.4937,0.0084 -5.3503,-1.146 -7.7007,-4.8833 -0.8499,-1.3361 -2.4223,-5.0381 -2.4223,-8.0675 1.9916,6.7499 6.304,3.5056 10.6368,3.5306 1.848,0.0107 3.6998,0.6161 5.3767,2.8456 1.6769,-2.2294 3.5286,-2.8349 5.3767,-2.8456 4.3328,-0.025 8.6452,3.2193 10.6368,-3.5306 0,3.0294 -1.5724,6.7314 -2.4223,8.0675 -2.3504,3.7372 -5.207,4.8917 -7.7007,4.8833 C 38.9358,35.262 36.4906,33.6194 36,32.706 Z"/><path id="path22" fill="none" stroke="#000" stroke-linecap="round" stroke-linejoin="round" stroke-width="2" d="m 46,38.0959 c 2.1009,0 3.2185,-3.4368 3.7012,-7.8987 -0.0357,0.06 -0.0764,0.1387 -0.11,0.1915"/><path id="path23" fill="none" stroke="#000" stroke-linecap="round" stroke-linejoin="round" stroke-width="2" d="m 22.4088,30.3887 c -0.0336,-0.0528 -0.0743,-0.1315 -0.11,-0.1915 0.4827,4.4619 1.6003,7.8987 3.7012,7.8987"/><path id="path24" fill="none" stroke="#000" stroke-linecap="round" stroke-linejoin="round" stroke-width="2" d="M 49.9761,25.8292 C 49.9904,25.2535 50,24.6755 50,24.0959 c 0,-6 -5,-12 -14,-12 -9,0 -14,6 -14,12 0,0.5797 0.0096,1.1577 0.0239,1.7333"/></g></svg>