<svg xmlns="http://www.w3.org/2000/svg" xmlns:svg="http://www.w3.org/2000/svg" id="emoji" width="41.939" height="32.714" version="1.1" viewBox="0 0 41.939 32.714"><g id="color" transform="translate(-15.08,-19.645604)"><path id="path1" fill="#f4aa41" stroke="#f4aa41" stroke-miterlimit="10" stroke-width="2" d="M 16.43,51.36 H 54.1 c 0,-0.51 1.9,-1 1.82,-1.61 A 8.34,8.34 0 0 0 52.66,44.36 8.17,8.17 0 0 0 54,35.89 7.78,7.78 0 0 0 49.32,31.78 7.12,7.12 0 0 0 46.41,25.19 6.69,6.69 0 0 0 38.33,25.7 7.32,7.32 0 0 0 32.45,20.9 7.58,7.58 0 0 0 26,23.69 a 10,10 0 0 0 -9.55,-2 z"/><path id="path2" fill="#fcea2b" stroke="#fcea2b" stroke-miterlimit="10" stroke-width="2" d="M 16.37,51.36 H 43.3 a 13.15,13.15 0 0 0 -0.37,-6.3 12.8809,12.8809 0 0 0 -2.4,-4.41 16.26,16.26 0 0 1 -7.13,3.1 c -4.53,0.6 -6,-2.41 -9.52,-1.29 -1.27,0.4 -1.54,0.94 -3.17,1.26 -1.63,0.32 -3.32,-1.81 -4.34,-2.08 -0.02,2.61 0.02,7.11 0,9.72 z"/></g><g id="line" transform="translate(-15.08,-19.645604)"><path id="path3" fill="none" stroke="#000" stroke-linecap="round" stroke-linejoin="round" stroke-width="2" d="M 56,51.36 A 7.3679,7.3679 0 0 0 55.94,49.75 8.34,8.34 0 0 0 52.68,44.36 8.17,8.17 0 0 0 54,35.89 7.78,7.78 0 0 0 49.32,31.78 7.12,7.12 0 0 0 46.41,25.19 6.69,6.69 0 0 0 38.33,25.7 7.32,7.32 0 0 0 32.45,20.9 7.58,7.58 0 0 0 26,23.69 c 0,0 -4.13,-4.62 -9.92,-2.49"/><path id="path4" fill="none" stroke="#000" stroke-linecap="round" stroke-linejoin="round" stroke-width="2" d="m 44.93,51.36 a 49.76,49.76 0 0 0 -4.59,-12.45 8.7,8.7 0 0 1 -5.29,4.2 8.65,8.65 0 0 1 -8.53,-2.8 6.59,6.59 0 0 1 -5.18,2.69 6.53,6.53 0 0 1 -5,-2.49 v 0"/></g></svg>