<?xml version="1.0" encoding="UTF-8" standalone="no"?>
<svg
   id="emoji"
   viewBox="0 0 64.239998 25.010387"
   version="1.1"
   sodipodi:docname="1f9c8.svg"
   width="64.239998"
   height="25.010387"
   xmlns:inkscape="http://www.inkscape.org/namespaces/inkscape"
   xmlns:sodipodi="http://sodipodi.sourceforge.net/DTD/sodipodi-0.dtd"
   xmlns="http://www.w3.org/2000/svg"
   xmlns:svg="http://www.w3.org/2000/svg">
  <defs
     id="defs4" />
  <sodipodi:namedview
     id="namedview4"
     pagecolor="#ffffff"
     bordercolor="#000000"
     borderopacity="0.25"
     inkscape:showpageshadow="2"
     inkscape:pageopacity="0.0"
     inkscape:pagecheckerboard="0"
     inkscape:deskcolor="#d1d1d1" />
  <g
     id="color"
     transform="translate(-3.88,-32)">
    <path
       fill="#fcea2b"
       d="m 19,33 a 3.416,3.416 0 0 0 -3.3141,2.9835 l -1.3718,13.033 A 2.65,2.65 0 0 0 17,52 h 38 a 2.65,2.65 0 0 0 2.6859,-2.9835 L 56.3141,35.9835 A 3.416,3.416 0 0 0 53,33 Z"
       id="path1" />
    <polyline
       fill="#ffffff"
       points="12.251 52 60.189 52 58 56 13.616 56 12.251 52"
       id="polyline1" />
  </g>
  <g
     id="line"
     transform="translate(-3.88,-32)">
    <path
       fill="none"
       stroke="#000000"
       stroke-linecap="round"
       stroke-linejoin="round"
       stroke-width="2"
       d="m 19,33 a 3.416,3.416 0 0 0 -3.3141,2.9835 l -1.3718,13.033 A 2.65,2.65 0 0 0 17,52 h 38 a 2.65,2.65 0 0 0 2.6859,-2.9835 L 56.3141,35.9835 A 3.416,3.416 0 0 0 53,33 Z"
       id="path2" />
    <polyline
       fill="none"
       stroke="#000000"
       stroke-linecap="round"
       stroke-linejoin="round"
       stroke-width="2"
       points="11.38 52 14.448 52 36 52"
       id="polyline2" />
    <path
       fill="none"
       stroke="#000000"
       stroke-linecap="round"
       stroke-linejoin="round"
       stroke-width="2"
       d="M 36,56 H 15 A 2.4394,2.4394 0 0 1 13.18,55.4167 L 12.9411,55.1786 9.0074,47.17 4.88,47.1514"
       id="path3" />
    <polyline
       fill="none"
       stroke="#000000"
       stroke-linecap="round"
       stroke-linejoin="round"
       stroke-width="2"
       points="60.62 52 57.552 52 36 52"
       id="polyline3" />
    <path
       fill="none"
       stroke="#000000"
       stroke-linecap="round"
       stroke-linejoin="round"
       stroke-width="2"
       d="m 36,56 h 21 a 2.4394,2.4394 0 0 0 1.82,-0.5833 l 0.2389,-0.2381 3.934,-8.0083 4.1271,-0.0189"
       id="path4" />
  </g>
</svg>
