<?xml version="1.0" encoding="UTF-8" standalone="no"?>
<svg
   id="emoji"
   viewBox="0 0 19.927099 58.022404"
   version="1.1"
   sodipodi:docname="1f9cd-1f3fb-200d-2640-fe0f.svg"
   width="19.927099"
   height="58.022404"
   xmlns:inkscape="http://www.inkscape.org/namespaces/inkscape"
   xmlns:sodipodi="http://sodipodi.sourceforge.net/DTD/sodipodi-0.dtd"
   xmlns="http://www.w3.org/2000/svg"
   xmlns:svg="http://www.w3.org/2000/svg">
  <defs
     id="defs4" />
  <sodipodi:namedview
     id="namedview4"
     pagecolor="#ffffff"
     bordercolor="#000000"
     borderopacity="0.25"
     inkscape:showpageshadow="2"
     inkscape:pageopacity="0.0"
     inkscape:pagecheckerboard="0"
     inkscape:deskcolor="#d1d1d1" />
  <g
     id="color"
     transform="translate(-25.3729,-6.5945973)" />
  <g
     id="skin"
     transform="translate(-25.3729,-6.5945973)">
    <g
       id="color-2">
      <path
         fill="#fadcbc"
         d="m 42.533,22.2881 a 4.3,4.3 0 0 0 -4.209,-4.1314 h -6 a 4.3,4.3 0 0 0 -4.209,4.1314 l -0.792,19.4393 a 1.0173,1.0173 0 0 1 -0.1209,0.4369 l 1.3961,-0.9967 0.8239,21.0356 a 1.2322,1.2322 0 0 0 0.25,0.8789 0.2412,0.2412 0 0 0 0.152,0.09 c 0.214,0 0.656,-0.4266 0.735,-1.1254 l 2.8986,-22.5033 a 4.9252,4.9252 0 0 1 0.4028,-1.1922 L 34.5851,37.546 H 36.21 l 0.984,0.6231 a 4.9259,4.9259 0 0 1 0.352,1.3413 l 2.542,22.5343 c 0.079,0.6978 0.522,1.1254 0.736,1.1254 a 0.242,0.242 0 0 0 0.152,-0.09 c 0.1922,-0.2483 0.4894,-0.585 0.4568,-0.9 L 41.3566,40.6644 44,42.5"
         id="path1" />
      <circle
         cx="35.4039"
         cy="10.6511"
         r="2.9690001"
         fill="#fadcbc"
         id="circle1" />
    </g>
  </g>
  <g
     id="line"
     transform="translate(-25.3729,-6.5945973)">
    <g
       id="Standing_Woman">
      <g
         id="line-2">
        <circle
           cx="35.4039"
           cy="10.6511"
           r="2.9690001"
           fill="none"
           stroke="#000000"
           stroke-miterlimit="10"
           stroke-width="2"
           id="circle2" />
        <path
           fill="none"
           stroke="#000000"
           stroke-linecap="round"
           stroke-linejoin="round"
           stroke-width="2"
           d="m 30.47,23.9986 c 2.3523,3.5329 0.677,6.107 0.0317,8 a 33.37,33.37 0 0 0 -0.8975,5.6136 c -0.6,5.9762 -1.0025,24.0044 -1.0025,24.0044 -0.055,1.1 0.575,2 1.4,2 a 2.076,2.076 0 0 0 1.729,-1.987 l 2.539,-22.031 c 0.126,-1.093 0.679,-1.987 1.229,-1.987 0.55,0 1.1,0.894 1.229,1.987 L 39.27,61.63 a 2.076,2.076 0 0 0 1.729,1.987 c 0.825,0 1.455,-0.9 1.4,-2 0,0 -0.5226,-17.8415 -1.0731,-23.7627 A 35.8732,35.8732 0 0 0 40.499,31.999 c -0.6173,-1.9024 -2.416,-4.7392 -0.0287,-8"
           id="path2" />
      </g>
      <path
         fill="none"
         stroke="#000000"
         stroke-linecap="round"
         stroke-linejoin="round"
         stroke-width="2"
         d="m 26.3729,41.5891 0.792,-19 a 5.274,5.274 0 0 1 5.208,-5 H 38.3 a 5.274,5.274 0 0 1 5.208,5 l 0.792,19"
         id="path3" />
    </g>
    <path
       fill="none"
       stroke="#000000"
       stroke-linecap="round"
       stroke-linejoin="round"
       stroke-width="2"
       d="m 39.1284,7.7112 c 0,0 0.5786,-0.2695 0.9252,0.0177 0.4081,0.3372 0.6856,1.5991 1.168,2.145 a 3.2605,3.2605 0 0 0 1.8128,1.0717"
       id="path4" />
  </g>
</svg>
