<svg xmlns="http://www.w3.org/2000/svg" xmlns:svg="http://www.w3.org/2000/svg" id="emoji" width="53.328" height="33.273" version="1.1" viewBox="0 0 53.328 33.273"><g id="line-supplement" transform="translate(-9.3361469,-23.062906)"><line id="line1" x1="17.534" x2="49.179" y1="26.878" y2="38.01" fill="none" stroke="#000" stroke-linecap="round" stroke-linejoin="round" stroke-width="2"/><line id="line2" x1="32.361" x2="58.893" y1="24.15" y2="33.483" fill="none" stroke="#000" stroke-linecap="round" stroke-linejoin="round" stroke-width="2"/><line id="line3" x1="22.674" x2="54.154" y1="25.364" y2="36.515" fill="none" stroke="#000" stroke-linecap="round" stroke-linejoin="round" stroke-width="2"/><line id="line4" x1="12.697" x2="38.419" y1="30.188" y2="39.236" fill="none" stroke="#000" stroke-linecap="round" stroke-linejoin="round" stroke-width="2"/><line id="line5" x1="51.864" x2="19.949" y1="26.058" y2="37.285" fill="none" stroke="#000" stroke-linecap="round" stroke-linejoin="round" stroke-width="2"/><line id="line6" x1="41.163" x2="13.761" y1="24.716" y2="34.356" fill="none" stroke="#000" stroke-linecap="round" stroke-linejoin="round" stroke-width="2"/><line id="line7" x1="57.972" x2="29.363" y1="28.92" y2="38.984" fill="none" stroke="#000" stroke-linecap="round" stroke-linejoin="round" stroke-width="2"/><path id="path7" d="m 41.1875,29.7323 c -2.4421,-1.3366 -4.6916,-2.63 -8.0178,-1.3488 -2.4131,0.93 -3.365,1.8461 -3.4348,2.6691 h -0.0115 l 0.0027,0.093 c 0,0.0194 7e-4,0.0387 0.0017,0.0581 l 0.0264,0.9179 c -0.4688,2.0237 4.5068,3.5277 6.9087,3.351 1.1667,-0.0859 5.0561,-1.6 5.31,-3.1837 v -1.35 a 1.3972,1.3972 0 0 0 -0.7854,-1.2066 z"/><path id="path8" d="m 33.1638,28.3835 c 3.3262,-1.2815 5.5758,0.0122 8.0178,1.3488 2.9283,1.94 -3.0306,4.3928 -4.5247,4.5027 -3.326,0.245 -11.5869,-2.7334 -3.4931,-5.8515 z"/><line id="line8" x1="49.179" x2="32.006" y1="43.442" y2="49.566" fill="none" stroke="#000" stroke-linecap="round" stroke-linejoin="round" stroke-width="2"/><line id="line9" x1="54.065" x2="59.042" y1="42.12" y2="43.827" fill="none" stroke="#000" stroke-linecap="round" stroke-linejoin="round" stroke-width="2"/><line id="line10" x1="20.395" x2="31.627" y1="48.111" y2="44.614" fill="none" stroke="#000" stroke-linecap="round" stroke-linejoin="round" stroke-width="2"/><line id="line11" x1="20.773" x2="14.169" y1="42.973" y2="45.135" fill="none" stroke="#000" stroke-linecap="round" stroke-linejoin="round" stroke-width="2"/><line id="line12" x1="44.664" x2="53.599" y1="44.152" y2="47.406" fill="none" stroke="#000" stroke-linecap="round" stroke-linejoin="round" stroke-width="2"/><line id="line13" x1="28.058" x2="43.274" y1="44.224" y2="49.577" fill="none" stroke="#000" stroke-linecap="round" stroke-linejoin="round" stroke-width="2"/></g><g id="color" transform="translate(-9.3361469,-23.062906)"><path id="path13" fill="#a57939" d="M 60.4877,41.6427 C 59.4403,36.5172 47.3354,33.7591 35.9071,33.7591 a 64.6014,64.6014 0 0 0 -13.4433,1.3227 0.9967,0.9967 0 0 0 -0.6543,0.478 l -1.1758,2.042 -2.7666,-0.9731 a 1.0046,1.0046 0 0 0 -0.7,0.0137 c -4.3706,1.7284 -5.6545,3.7026 -5.88,5.204 a 5.3278,5.3278 0 0 0 -1.3408,6.5967 c 2.5264,4.7945 12.6846,7.8926 25.88,7.8926 h 0.3506 c 13.1953,0 23.3525,-3.0981 25.8564,-7.8535 a 5.3669,5.3669 0 0 0 -1.5456,-6.8395 z"/><line id="line14" x1="49.179" x2="32.006" y1="43.442" y2="49.566" fill="none" stroke="#6a462f" stroke-linecap="round" stroke-linejoin="round" stroke-width="2"/><line id="line15" x1="54.065" x2="59.042" y1="42.12" y2="43.827" fill="none" stroke="#6a462f" stroke-linecap="round" stroke-linejoin="round" stroke-width="2"/><path id="path15" fill="#a57939" d="M 60.4877,30.96 C 59.4403,25.8345 47.3354,23.0764 35.9071,23.0764 a 64.5944,64.5944 0 0 0 -13.4433,1.3228 0.9964,0.9964 0 0 0 -0.6543,0.478 l -1.1758,2.042 -2.7666,-0.9731 a 1.0052,1.0052 0 0 0 -0.7,0.0136 c -4.3706,1.7284 -5.6545,3.7027 -5.88,5.2041 A 5.3278,5.3278 0 0 0 9.9462,37.76 c 2.5264,4.7944 12.6846,7.8926 25.88,7.8926 h 0.3506 c 13.1953,0 23.3525,-3.0982 25.8564,-7.8535 A 5.3671,5.3671 0 0 0 60.4877,30.96 Z"/><polygon id="polygon15" fill="#6a462f" points="51.667 39.916 49.178 37.97 20.243 27.831 21.6 25.244 53.855 37.184"/><line id="line16" x1="17.534" x2="49.179" y1="26.878" y2="38.01" fill="none" stroke="#6a462f" stroke-linecap="round" stroke-linejoin="round" stroke-width="2"/><line id="line17" x1="32.361" x2="58.893" y1="24.15" y2="33.483" fill="none" stroke="#6a462f" stroke-linecap="round" stroke-linejoin="round" stroke-width="2"/><line id="line18" x1="22.674" x2="54.154" y1="25.364" y2="36.515" fill="none" stroke="#6a462f" stroke-linecap="round" stroke-linejoin="round" stroke-width="2"/><line id="line19" x1="12.697" x2="38.419" y1="30.188" y2="39.236" fill="none" stroke="#6a462f" stroke-linecap="round" stroke-linejoin="round" stroke-width="2"/><line id="line20" x1="51.864" x2="19.949" y1="26.058" y2="37.285" fill="none" stroke="#6a462f" stroke-linecap="round" stroke-linejoin="round" stroke-width="2"/><line id="line21" x1="41.163" x2="13.761" y1="24.716" y2="34.356" fill="none" stroke="#6a462f" stroke-linecap="round" stroke-linejoin="round" stroke-width="2"/><line id="line22" x1="57.972" x2="29.363" y1="28.92" y2="38.984" fill="none" stroke="#6a462f" stroke-linecap="round" stroke-linejoin="round" stroke-width="2"/><path id="path22" fill="#f1b31c" d="m 40.6358,29.7323 c -2.4422,-1.3366 -4.6917,-2.63 -8.0179,-1.3488 -2.4131,0.93 -3.365,1.8461 -3.4348,2.6691 h -0.0115 l 0.0027,0.093 c 0,0.0194 8e-4,0.0387 0.0017,0.0581 l 0.0264,0.9179 c -0.4687,2.0237 4.5068,3.5277 6.9087,3.351 1.1667,-0.0859 5.0561,-1.6 5.31,-3.1837 v -1.35 a 1.3974,1.3974 0 0 0 -0.7853,-1.2066 z"/><path id="path23" fill="#fcea2b" d="m 32.612,28.3835 c 3.3263,-1.2815 5.5759,0.0122 8.0178,1.3488 2.9283,1.94 -3.0306,4.3928 -4.5247,4.5027 -3.326,0.245 -11.5867,-2.7334 -3.4931,-5.8515 z"/><line id="line23" x1="20.395" x2="31.627" y1="48.111" y2="44.614" fill="none" stroke="#6a462f" stroke-linecap="round" stroke-linejoin="round" stroke-width="2"/><line id="line24" x1="20.773" x2="14.169" y1="42.973" y2="45.135" fill="none" stroke="#6a462f" stroke-linecap="round" stroke-linejoin="round" stroke-width="2"/><line id="line25" x1="44.664" x2="53.599" y1="44.152" y2="47.406" fill="none" stroke="#6a462f" stroke-linecap="round" stroke-linejoin="round" stroke-width="2"/><line id="line26" x1="28.058" x2="43.274" y1="44.224" y2="49.577" fill="none" stroke="#6a462f" stroke-linecap="round" stroke-linejoin="round" stroke-width="2"/></g><g id="line" transform="translate(-9.3361469,-23.062906)"><path id="path26" fill="none" stroke="#000" stroke-linecap="round" stroke-linejoin="round" stroke-width="2" d="m 21.0847,28.1268 1.59,-2.7624 a 63.5552,63.5552 0 0 1 13.2319,-1.3 c 13.0682,0 23.6621,3.4057 23.6621,7.6069 0,1.84 -2.0324,3.5277 -5.4149,4.8433 L 51.667,39.9162 49.1785,37.97 a 63.4878,63.4878 0 0 1 -13.2721,1.3084 c -13.0682,0 -23.6621,-3.4058 -23.6621,-7.607 0,-1.8173 1.9823,-3.4858 5.29,-4.7941"/><path id="path27" fill="none" stroke="#000" stroke-linecap="round" stroke-linejoin="round" stroke-width="2.054" d="m 12.2443,31.6717 a 4.36,4.36 0 0 0 -1.39,5.5979 c 2.1367,4.0564 11.1794,7.3447 24.97,7.3447 h 0.3508 A 65.915,65.915 0 0 0 49.1786,43.442 45.2446,45.2446 0 0 0 54.0647,42.12 c 3.5717,-1.3737 6.1014,-2.9914 7.0806,-4.85 a 4.36,4.36 0 0 0 -1.39,-5.5979"/><path id="path28" fill="none" stroke="#000" stroke-linecap="round" stroke-linejoin="round" stroke-width="2" d="m 13.4861,39.9162 a 3.42,3.42 0 0 0 -1.2418,2.4385 c 0,1.84 2.0323,3.5276 5.4148,4.8432 a 28.7656,28.7656 0 0 0 4.9752,1.4553 66.4254,66.4254 0 0 0 13.2721,1.3084 c 13.0682,0 23.6621,-3.4057 23.6621,-7.6069 a 3.3306,3.3306 0 0 0 -1.1276,-2.327"/><path id="path29" fill="none" stroke="#000" stroke-linecap="round" stroke-linejoin="round" stroke-width="2.054" d="m 12.2443,42.3547 a 4.36,4.36 0 0 0 -1.39,5.5978 c 2.1367,4.0564 11.1794,7.3448 24.97,7.3448 h 0.3508 A 65.915,65.915 0 0 0 49.1786,54.125 c 0,0 2.9172,-0.6432 4.8861,-1.3223 3.6176,-1.2476 6.1014,-2.9913 7.0806,-4.85 a 4.36,4.36 0 0 0 -1.39,-5.5978"/></g></svg>