<?xml version="1.0" encoding="UTF-8" standalone="no"?>
<svg
   id="emoji"
   viewBox="0 0 27.97506 46.704723"
   version="1.1"
   sodipodi:docname="1f9c2.svg"
   width="27.97506"
   height="46.704723"
   xmlns:inkscape="http://www.inkscape.org/namespaces/inkscape"
   xmlns:sodipodi="http://sodipodi.sourceforge.net/DTD/sodipodi-0.dtd"
   xmlns="http://www.w3.org/2000/svg"
   xmlns:svg="http://www.w3.org/2000/svg">
  <defs
     id="defs5" />
  <sodipodi:namedview
     id="namedview5"
     pagecolor="#ffffff"
     bordercolor="#000000"
     borderopacity="0.25"
     inkscape:showpageshadow="2"
     inkscape:pageopacity="0.0"
     inkscape:pagecheckerboard="0"
     inkscape:deskcolor="#d1d1d1" />
  <g
     id="color"
     transform="translate(-22.116435,-12.295276)">
    <path
       fill="#ffffff"
       d="m 47.005,23.6808 q -0.0165,-0.1244 -0.0344,-0.2486 c -0.6379,-4.42 -3.0608,-8.2535 -7.464,-9.6336 -4.6024,-1.4424 -10.3,0.3264 -12.82,4.5724 -1.69,2.847 -1.5438,6.097 -1.7552,9.2756 -0.1392,2.0924 -0.2538,4.1868 -0.3806,6.28 l -0.91,15.01 C 23.61,49.45 23.1764,58 23.0915,58 h 26 C 48.4415,47.2724 47.8682,36.54 47.204,25.8272 47.16,25.11 47.1,24.3934 47.005,23.6808 Z"
       id="path1" />
    <path
       fill="#d0cfce"
       d="m 47.204,25.8272 c -0.0445,-0.7175 -0.1045,-1.4339 -0.199,-2.1464 q -0.0163,-0.1244 -0.0344,-0.2486 c -0.6379,-4.42 -3.0609,-8.2536 -7.464,-9.6336 a 11.4619,11.4619 0 0 0 -5.43,-0.3033 10.62,10.62 0 0 1 1.27,0.3033 c 4.4031,1.38 6.8261,5.2141 7.464,9.6336 q 0.018,0.1242 0.0344,0.2486 c 0.0945,0.7125 0.1545,1.4289 0.199,2.1464 C 43.7082,36.54 44.2813,47.2724 44.9315,58 h 4.16 C 48.4413,47.2724 47.8682,36.54 47.204,25.8272 Z"
       id="path2" />
  </g>
  <g
     id="line"
     transform="translate(-22.116435,-12.295276)">
    <path
       fill="none"
       stroke="#000000"
       stroke-linecap="round"
       stroke-linejoin="round"
       stroke-width="2"
       d="m 47.005,23.6808 q -0.0165,-0.1244 -0.0344,-0.2486 c -0.6379,-4.42 -3.0608,-8.2535 -7.464,-9.6336 -4.6024,-1.4424 -10.3,0.3264 -12.82,4.5724 -1.69,2.847 -1.5438,6.097 -1.7552,9.2756 -0.1392,2.0924 -0.2538,4.1868 -0.3806,6.28 l -0.91,15.01 C 23.61,49.45 23.1764,58 23.0915,58 h 26 C 48.4415,47.2724 47.8682,36.54 47.204,25.8272 47.16,25.11 47.1,24.3934 47.005,23.6808 Z"
       id="path3" />
  </g>
  <g
     id="color-foreground"
     transform="translate(-22.116435,-12.295276)">
    <circle
       cx="36.6115"
       cy="17.5762"
       r="1.4703"
       id="circle3" />
    <circle
       cx="39.731499"
       cy="19.6562"
       r="1.4703"
       id="circle4" />
    <circle
       cx="33.491501"
       cy="19.6562"
       r="1.4703"
       id="circle5" />
  </g>
</svg>
