<?xml version="1.0" encoding="UTF-8" standalone="no"?>
<svg
   id="emoji"
   viewBox="0 0 27.342062 42.704258"
   version="1.1"
   sodipodi:docname="1f9ce-200d-2640-fe0f.svg"
   width="27.342062"
   height="42.704258"
   xmlns:inkscape="http://www.inkscape.org/namespaces/inkscape"
   xmlns:sodipodi="http://sodipodi.sourceforge.net/DTD/sodipodi-0.dtd"
   xmlns="http://www.w3.org/2000/svg"
   xmlns:svg="http://www.w3.org/2000/svg">
  <defs
     id="defs4" />
  <sodipodi:namedview
     id="namedview4"
     pagecolor="#ffffff"
     bordercolor="#000000"
     borderopacity="0.25"
     inkscape:showpageshadow="2"
     inkscape:pageopacity="0.0"
     inkscape:pagecheckerboard="0"
     inkscape:deskcolor="#d1d1d1" />
  <g
     id="color"
     transform="translate(-18.917938,-14.091926)" />
  <g
     id="skin"
     transform="translate(-18.917938,-14.091926)">
    <circle
       cx="37.9688"
       cy="17.0938"
       r="3"
       fill="#fcea2b"
       id="circle1" />
    <path
       fill="#fcea2b"
       d="m 29.1644,51.3625 c 4.0423,0 6.7854,-0.434 8.864,-0.5845 3.02,-0.2186 5.4881,-2.515 5.2635,-5.5345 l -0.96,-14.881 c 0,-0.7383 -0.1846,-4.916 -4.5,-4.916 A 3.3534,3.3534 0 0 0 35.206,26.6449 7.7321,7.7321 0 0 0 33.2869,31.99 l 0.0445,4.3723 -1.9057,4.0393 -0.3792,4.2217 -7.7206,2.4354 a 4.4272,4.4272 0 0 0 -1.75,1.0181 l -0.075,0.071 a 4.3761,4.3761 0 0 0 0.31,6.7008 7.7935,7.7935 0 0 0 4.413,1.3025 c 6.94,0.2112 16.4115,-1.8578 16.4115,-1.8578 l -3.224,-3.4764"
       id="path1" />
  </g>
  <g
     id="line"
     transform="translate(-18.917938,-14.091926)">
    <g
       id="Kneeing_Woman">
      <circle
         cx="37.9688"
         cy="18.094"
         r="3"
         fill="none"
         stroke="#000000"
         stroke-miterlimit="10"
         stroke-width="2"
         id="circle2" />
      <path
         fill="none"
         stroke="#000000"
         stroke-linecap="round"
         stroke-linejoin="round"
         stroke-width="2"
         d="m 29,51.042 c 4.0423,0 6.95,-0.1135 9.0284,-0.264 a 5.4916,5.4916 0 0 0 5.0991,-5.855 l -0.2027,-5.3 -0.6323,-10.5385 A 4.3671,4.3671 0 0 0 38,25.042 v 0 a 4.6314,4.6314 0 0 0 -4.4463,4.0171 L 33,34.021 32.3,41.042"
         id="path2" />
      <path
         fill="none"
         stroke="#000000"
         stroke-linecap="round"
         stroke-linejoin="round"
         stroke-width="2"
         d="m 31.89,44.762 -8.7493,2.4432 a 4.4945,4.4945 0 0 0 -1.75,0.9614 l -0.075,0.067 a 3.9881,3.9881 0 0 0 0.3105,6.3276 8.1207,8.1207 0 0 0 4.4127,1.23 145.2047,145.2047 0 0 0 15.94,-0.7448"
         id="path3" />
      <polyline
         fill="none"
         stroke="#000000"
         stroke-linecap="round"
         stroke-linejoin="round"
         stroke-width="2"
         points="38.115 29.992 37.369 40.305 26.845 43.248"
         id="polyline3" />
    </g>
    <path
       fill="none"
       stroke="#000000"
       stroke-linecap="round"
       stroke-linejoin="round"
       stroke-width="2"
       d="m 41.354,15.2087 c 0,0 0.5786,-0.27 0.9253,0.0177 0.408,0.3372 0.6855,1.5991 1.1679,2.145 a 3.2612,3.2612 0 0 0 1.8128,1.0717"
       id="path4" />
  </g>
</svg>
