<?xml version="1.0" encoding="UTF-8" standalone="no"?>
<svg
   id="emoji"
   viewBox="0 0 37.652199 54.286861"
   version="1.1"
   sodipodi:docname="1f9cb.svg"
   width="37.652199"
   height="54.286861"
   xmlns:inkscape="http://www.inkscape.org/namespaces/inkscape"
   xmlns:sodipodi="http://sodipodi.sourceforge.net/DTD/sodipodi-0.dtd"
   xmlns="http://www.w3.org/2000/svg"
   xmlns:svg="http://www.w3.org/2000/svg">
  <defs
     id="defs15" />
  <sodipodi:namedview
     id="namedview15"
     pagecolor="#ffffff"
     bordercolor="#000000"
     borderopacity="0.25"
     inkscape:showpageshadow="2"
     inkscape:pageopacity="0.0"
     inkscape:pagecheckerboard="0"
     inkscape:deskcolor="#d1d1d1" />
  <g
     id="color"
     transform="translate(-16.25,-7.6714373)">
    <path
       fill="#f4aa41"
       d="M 42.9778,61.958 H 27.1451 A 4.0845,4.0845 0 0 1 23.21,58.3763 L 19.0916,31.1494 A 1,1 0 0 1 20.08,30 h 29.9842 a 0.9994,0.9994 0 0 1 0.9883,1.15 l -4.1752,27.4567 a 3.9444,3.9444 0 0 1 -3.8995,3.3513 z"
       id="path1" />
    <path
       fill="#b399c8"
       d="m 39.0727,32.0166 -1.3786,15.1667 a 1,1 0 0 1 -0.9756,0.7851 0.5574,0.5574 0 0 1 -0.1564,0 l -4.546,-0.0926 A 1.11,1.11 0 0 1 31.253,47.4115 0.998,0.998 0 0 1 31.1192,46.6527 L 32.1,32.0166 Z m -5.2507,-6.6221 0.2588,-1.1523 c 1.336,-5.9443 3.0879,-8.4473 8.1514,-11.6426 l 7.4844,-4.77 a 0.9983,0.9983 0 0 1 1.3721,0.293 l 2.6142,3.9687 a 0.9987,0.9987 0 0 1 -0.293,1.39 l -8.0156,5.1709 A 10.5358,10.5358 0 0 0 40.8,25.2373 l -0.043,0.195 z"
       id="path2" />
    <path
       fill="#92d3f5"
       d="M 52.9021,32.0166 H 17.25 a 1,1 0 0 1 -1,-1 v -2.1133 a 3.513,3.513 0 0 1 3.5088,-3.5088 h 30.6345 a 3.513,3.513 0 0 1 3.5088,3.5088 v 2.1133 a 0.9994,0.9994 0 0 1 -1,1 z"
       id="path3" />
  </g>
  <g
     id="line"
     transform="translate(-16.25,-7.6714373)">
    <path
       fill="none"
       stroke="#000000"
       stroke-linecap="round"
       stroke-linejoin="round"
       stroke-width="2"
       d="M 49.55,34.1934 45.9024,58.3491 A 3.0671,3.0671 0 0 1 42.87,60.9583 H 27.25 A 3.0672,3.0672 0 0 1 24.2164,58.35 L 20.5626,34.1934"
       id="path4" />
    <circle
       cx="28.806299"
       cy="55.731499"
       r="2"
       id="circle4" />
    <circle
       cx="39.117298"
       cy="56.565701"
       r="2"
       id="circle5" />
    <circle
       cx="27.8773"
       cy="47.2169"
       r="2"
       id="circle6" />
    <circle
       cx="42.2668"
       cy="43.979"
       r="2"
       id="circle7" />
    <circle
       cx="25.8773"
       cy="41.001701"
       r="2"
       id="circle8" />
    <circle
       cx="34.403599"
       cy="52.0518"
       r="2"
       id="circle9" />
    <circle
       cx="42.2668"
       cy="50.452099"
       r="2"
       id="circle10" />
    <path
       fill="none"
       stroke="#000000"
       stroke-linecap="round"
       stroke-linejoin="round"
       stroke-width="2"
       d="M 52.9022,28.9037 A 2.5163,2.5163 0 0 0 50.3933,26.3948 H 19.7587 A 2.5162,2.5162 0 0 0 17.25,28.9037 v 2.1127 h 35.6522 z"
       id="path10" />
    <path
       fill="none"
       stroke="#000000"
       stroke-linecap="round"
       stroke-linejoin="round"
       stroke-width="2"
       d="m 34.6406,26.3948 0.76,-3.3468 c 1.2233,-4.62 2.9271,-6.8011 7.3659,-9.6029 l 7.4875,-4.7737 2.614,3.9693 -8.0154,5.1712 a 11.5951,11.5951 0 0 0 -4.3971,5.2362 l -0.7969,3.3467"
       id="path11" />
    <line
       x1="38.371101"
       x2="42.0205"
       y1="16.967501"
       y2="20.392599"
       fill="none"
       stroke="#000000"
       stroke-linecap="round"
       stroke-linejoin="round"
       stroke-width="2"
       id="line11" />
    <line
       x1="41.1451"
       x2="43.730099"
       y1="14.5306"
       y2="18.6355"
       fill="none"
       stroke="#000000"
       stroke-linecap="round"
       stroke-linejoin="round"
       stroke-width="2"
       id="line12" />
    <line
       x1="36.3922"
       x2="40.858398"
       y1="20.108999"
       y2="22.193001"
       fill="none"
       stroke="#000000"
       stroke-linecap="round"
       stroke-linejoin="round"
       stroke-width="2"
       id="line13" />
    <line
       x1="32.939701"
       x2="32.096699"
       y1="34.193401"
       y2="46.874901"
       fill="none"
       stroke="#000000"
       stroke-linecap="round"
       stroke-linejoin="round"
       stroke-width="2"
       id="line14" />
    <line
       x1="37.8713"
       x2="36.7104"
       y1="34.193401"
       y2="46.980202"
       fill="none"
       stroke="#000000"
       stroke-linecap="round"
       stroke-linejoin="round"
       stroke-width="2"
       id="line15" />
  </g>
</svg>
