<svg xmlns="http://www.w3.org/2000/svg" xmlns:svg="http://www.w3.org/2000/svg" id="emoji" width="25.223" height="42.702" version="1.1" viewBox="0 0 25.223 42.702"><g id="skin" transform="translate(-18.757238,-14.053101)"><circle id="circle1" cx="37.809" cy="18.053" r="3" fill="#fcea2b"/><path id="path1" fill="#fcea2b" d="m 29.0042,51.3216 c 4.0423,0 6.7848,-0.2676 8.8634,-0.4181 a 5.4876,5.4876 0 0 0 5.2641,-5.7009 l -0.9605,-14.881 c 0,-0.7383 -0.1846,-4.916 -4.5,-4.916 a 3.3534,3.3534 0 0 0 -2.6258,1.1984 7.7317,7.7317 0 0 0 -1.9187,5.3453 l 0.0445,4.3723 -1.9169,4.0574 -0.4723,4.1287 -7.6163,2.51 a 4.4272,4.4272 0 0 0 -1.75,1.0181 l -0.075,0.071 a 4.3761,4.3761 0 0 0 0.31,6.7008 7.7935,7.7935 0 0 0 4.4133,1.3024 c 6.94,0.2112 16.3947,-1.8511 16.3947,-1.8511 l -3.0541,-3.2582"/></g><g id="line" transform="translate(-18.757238,-14.053101)"><g id="Kneeing_Woman"><circle id="circle2" cx="37.809" cy="18.053" r="3" fill="none" stroke="#000" stroke-miterlimit="10" stroke-width="2"/><path id="path2" fill="none" stroke="#000" stroke-linecap="round" stroke-linejoin="round" stroke-width="2" d="m 28.84,51.0011 c 4.0423,0 6.95,-0.1135 9.0285,-0.264 a 5.4916,5.4916 0 0 0 5.099,-5.855 l -0.2027,-5.3 -0.6323,-10.5385 A 4.3671,4.3671 0 0 0 37.84,25.0011 v 0 a 4.6314,4.6314 0 0 0 -4.4463,4.0171 L 32.84,33.98 l -0.7,7.021"/><path id="path3" fill="none" stroke="#000" stroke-linecap="round" stroke-linejoin="round" stroke-width="2" d="m 31.438,44.8535 -8.458,2.3108 a 4.4945,4.4945 0 0 0 -1.75,0.9614 l -0.075,0.067 a 3.9881,3.9881 0 0 0 0.3105,6.3276 8.1207,8.1207 0 0 0 4.4127,1.23 145.2047,145.2047 0 0 0 15.94,-0.7448"/><polyline id="polyline3" fill="none" stroke="#000" stroke-linecap="round" stroke-linejoin="round" stroke-width="2" points="37.955 29.952 37.209 40.265 26.685 43.207"/></g></g></svg>