<svg xmlns="http://www.w3.org/2000/svg" xmlns:svg="http://www.w3.org/2000/svg" id="emoji" width="58" height="58" version="1.1" viewBox="0 0 58 58"><g id="color" transform="translate(-7.0099983,-7)"><circle id="circle1" cx="36" cy="35.998" r="28" fill="#fff"/><path id="path1" fill="#a57939" stroke="#a57939" stroke-width="2" d="m 52.99,45.478 c -2.627,4.555 -6.949,7.882 -12.02,9.248 -5.067,1.365 -10.49,0.6441 -15.03,-1.979 l 3.463,-6.007 c 8.406,-15.49 5.906,-11.48 21.62,-2.395 z"/><ellipse id="ellipse1" cx="35.04" cy="24.707" fill="#6a462f" stroke="#6a462f" stroke-miterlimit="4" stroke-width="2" rx="7.993" ry="8.057" transform="rotate(-70,35.040423,24.706795)"/><ellipse id="ellipse2" cx="26.906" cy="36.213" fill="#5c9e31" rx="8.057" ry="7.99" transform="rotate(-9.9996,26.905366,36.213276)"/><path id="path2" fill="#6a462f" d="m 20.32,40.538 c 1.4953,2.2077 4.0002,3.5329 6.682,3.535 4.4498,0 8.057,-3.5772 8.057,-7.99 0,-4.4128 -3.6072,-7.99 -8.057,-7.99 -0.2132,0.0014 -0.4263,0.0112 -0.6387,0.0293 0.033,0.0452 0.0656,0.0908 0.0976,0.1367 0.145,0.2237 0.2786,0.4545 0.4004,0.6914 0.1216,0.2379 0.2311,0.4817 0.3281,0.7305 0.0973,0.2482 0.1821,0.5012 0.2539,0.7578 0.0723,0.2567 0.1316,0.5168 0.1777,0.7793 0.0452,0.2626 0.0771,0.5273 0.0957,0.793 0.0139,0.1879 0.021,0.3761 0.0215,0.5645 -3e-4,0.2661 -0.014,0.5321 -0.041,0.7969 -0.027,0.2655 -0.0674,0.5295 -0.1211,0.791 -0.0534,0.2609 -0.1199,0.5191 -0.1992,0.7734 -0.0791,0.2544 -0.1711,0.5047 -0.2754,0.75 -0.1044,0.2452 -0.2211,0.4851 -0.3496,0.7187 -0.1291,0.234 -0.2699,0.4615 -0.4219,0.6816 -0.1513,0.2201 -0.3136,0.4326 -0.4863,0.6367 -0.1737,0.2037 -0.3575,0.3986 -0.5508,0.584 -0.1922,0.1856 -0.3936,0.3616 -0.6035,0.5273 -0.2108,0.1657 -0.4298,0.3208 -0.6562,0.4648 -0.2256,0.1436 -0.4584,0.2759 -0.6973,0.3965 -0.2398,0.1209 -0.4855,0.2297 -0.7363,0.3262 -0.2502,0.0966 -0.5051,0.1807 -0.7637,0.252 -0.2586,0.0715 -0.5207,0.1302 -0.7852,0.1758 -0.242,0.0403 -0.4858,0.0696 -0.7305,0.0879 z"/><ellipse id="ellipse3" cx="43.124" cy="36.559" fill="#6a462f" rx="7.99" ry="8.057" transform="rotate(-70,43.124071,36.55937)"/></g><g id="line" transform="translate(-7.0099983,-7)"><path id="path3" fill="none" stroke="#000" stroke-linecap="round" stroke-width="2" d="m 51.28,44.49 1.703,0.9851 c -5.471,9.48 -17.57,12.74 -27.02,7.278 l 3.463,-6.007"/><circle id="circle3" cx="36.01" cy="36" r="28" fill="none" stroke="#000" stroke-miterlimit="10" stroke-width="2"/><path id="path4" fill="none" stroke="#000" stroke-linecap="round" stroke-width="2" d="m 27.02,24.79 c -0.029,-0.9764 0.123,-1.974 0.477,-2.947 1.509,-4.147 6.122,-6.274 10.3,-4.752 3.519,1.281 5.611,4.739 5.286,8.274"/><ellipse id="ellipse4" cx="26.715" cy="35.927" fill="none" stroke="#000" stroke-miterlimit="4" stroke-width="2" rx="8.057" ry="7.99" transform="rotate(-10.0001,26.71457,35.926669)"/><ellipse id="ellipse5" cx="43.333" cy="36.491" fill="none" stroke="#000" stroke-miterlimit="4" stroke-width="2" rx="8.345" ry="8.411" transform="rotate(-70,43.332517,36.491319)"/><path id="path5" fill="none" stroke="#000" stroke-linecap="round" stroke-linejoin="round" stroke-width="2" d="m 20.02,40.39 c 1.4953,2.2077 4.0002,3.5329 6.682,3.535 4.4498,0 8.057,-3.5772 8.057,-7.99 v 0 c 0,-4.4128 -3.6072,-7.99 -8.057,-7.99 -0.2132,0.0014 -0.4263,0.0112 -0.6387,0.0293 0.033,0.0452 0.0656,0.0908 0.0977,0.1367 0.145,0.2237 0.2786,0.4545 0.4004,0.6914 0.1216,0.2379 0.2311,0.4817 0.3281,0.7305 0.0973,0.2482 0.1821,0.5012 0.2539,0.7578 0.0723,0.2567 0.1316,0.5168 0.1777,0.7793 0.0452,0.2626 0.0772,0.5273 0.0957,0.793 0.0139,0.1879 0.021,0.3761 0.0215,0.5645 -3e-4,0.2661 -0.014,0.5321 -0.041,0.7969 -0.027,0.2655 -0.0674,0.5295 -0.1211,0.791 -0.0534,0.2609 -0.1198,0.5191 -0.1992,0.7734 -0.0791,0.2544 -0.1711,0.5047 -0.2754,0.75 -0.1044,0.2452 -0.2211,0.4851 -0.3496,0.7187 -0.1291,0.234 -0.2699,0.4615 -0.4219,0.6816 -0.1513,0.2201 -0.3136,0.4326 -0.4863,0.6367 -0.1737,0.2037 -0.3575,0.3986 -0.5508,0.584 -0.1922,0.1856 -0.3936,0.3616 -0.6035,0.5273 -0.2108,0.1657 -0.4298,0.3208 -0.6562,0.4648 -0.2256,0.1436 -0.4584,0.2759 -0.6973,0.3965 -0.2398,0.1209 -0.4855,0.2297 -0.7363,0.3262 -0.2502,0.0966 -0.5051,0.1807 -0.7637,0.252 -0.2586,0.0715 -0.5207,0.1302 -0.7852,0.1758 -0.242,0.0403 -0.4858,0.0696 -0.7305,0.0879 l -2e-4,-3e-4 z"/></g></svg>