<svg xmlns="http://www.w3.org/2000/svg" xmlns:svg="http://www.w3.org/2000/svg" id="emoji" width="45.794" height="41.982" version="1.1" viewBox="0 0 45.794 41.982"><g id="color" transform="translate(-13.7106,-13.560077)"><path id="path1" fill="#92d3f5" d="M 36.6352,54.5916 58.47,48.923 58.318,20.5487 l -21.7013,4.55 -21.85,-5.0948 V 44.91 a 5.0437,5.0437 0 0 0 3.637,4.9572 l 18.1976,4.7244 v -25.358"/><path id="path2" fill="#61b2e4" d="M 36.6352,54.5916 56.8116,49.3535 A 2.2146,2.2146 0 0 0 58.47,47.21 V 22.7943 a 2.2148,2.2148 0 0 0 -2.7176,-2.1569 l -19.1357,4.4613"/><path id="path3" fill="#fff" d="M 36.6182,43.7113 36.3582,54.1291 31.0047,53.3978 15.076,33.0374 V 20.5487 l 2.955,0.2794 18.5872,22.8832"/><polyline id="polyline3" fill="#92d3f5" points="14.767 20.004 36.808 14.309 57.949 20.579"/><polyline id="polyline4" fill="#92d3f5" points="57.398 20.254 36.451 25.368 14.745 19.869"/></g><g id="line" transform="translate(-13.7106,-13.560077)"><path id="path4" fill="none" stroke="#000" stroke-linecap="round" stroke-linejoin="round" stroke-width="2.069" d="m 36.6013,29.2336 v 22.644 a 2.0994,2.0994 0 0 1 -2.627,2.032 L 32.8302,53.6126 32.6657,53.5699 18.151,49.8016 a 4.6932,4.6932 0 0 1 -3.3843,-4.6127 v -22.54 a 2.0993,2.0993 0 0 1 2.5761,-2.0445 l 17.7214,4.1321 a 6.8379,6.8379 0 0 0 3.105,0 L 55.8937,20.6043 A 2.0994,2.0994 0 0 1 58.47,22.649 v 24.65 a 2.1,2.1 0 0 1 -1.5719,2.032 l -19.5738,5.0817 a 2.9706,2.9706 0 0 1 -1.3844,0.0261 L 33.9743,53.91"/><path id="path5" fill="none" stroke="#000" stroke-linecap="round" stroke-linejoin="round" stroke-width="2.069" d="m 14.7451,24.4107 0.0168,-3.4268 a 1.2719,1.2719 0 0 1 0.9537,-1.2252 L 34.83,14.82 a 7.0928,7.0928 0 0 1 3.926,0.1089 l 18.5261,5.0135 a 1.6083,1.6083 0 0 1 1.1879,1.5528 v 2.6654"/></g></svg>