<?xml version="1.0" encoding="UTF-8" standalone="no"?>
<svg
   id="emoji"
   viewBox="0 0 64 45"
   version="1.1"
   sodipodi:docname="1f9c0.svg"
   width="64"
   height="45"
   xmlns:inkscape="http://www.inkscape.org/namespaces/inkscape"
   xmlns:sodipodi="http://sodipodi.sourceforge.net/DTD/sodipodi-0.dtd"
   xmlns="http://www.w3.org/2000/svg"
   xmlns:svg="http://www.w3.org/2000/svg">
  <defs
     id="defs12" />
  <sodipodi:namedview
     id="namedview12"
     pagecolor="#ffffff"
     bordercolor="#000000"
     borderopacity="0.25"
     inkscape:showpageshadow="2"
     inkscape:pageopacity="0.0"
     inkscape:pagecheckerboard="0"
     inkscape:deskcolor="#d1d1d1" />
  <g
     id="color"
     transform="translate(-4,-10.9961)">
    <path
       fill="#fcea2b"
       stroke="none"
       d="m 57,11.9961 c 5.5225,0 10,4.4775 10,10 v 31 c 0,1.1045 -0.8955,2 -2,2 H 7 c -1.1045,0 -2,-0.8955 -2,-2 v -31 c 0,-1.1045 0.8955,-2 2,-2 L 20,17.916 Z"
       id="path1" />
    <circle
       cx="16"
       cy="43.996101"
       r="5"
       fill="#f1b31c"
       stroke="none"
       id="circle1" />
    <circle
       cx="56"
       cy="29.996099"
       r="5"
       fill="#f1b31c"
       stroke="none"
       id="circle2" />
    <circle
       cx="49"
       cy="44.996101"
       r="3"
       fill="#f1b31c"
       stroke="none"
       id="circle3" />
    <circle
       cx="40"
       cy="31.996099"
       r="3"
       fill="#f1b31c"
       stroke="none"
       id="circle4" />
    <circle
       cx="32"
       cy="40.996101"
       r="3"
       fill="#f1b31c"
       stroke="none"
       id="circle5" />
    <circle
       cx="21"
       cy="28.996099"
       r="3"
       fill="#f1b31c"
       stroke="none"
       id="circle6" />
  </g>
  <g
     id="hair"
     transform="translate(-4,-10.9961)" />
  <g
     id="skin"
     transform="translate(-4,-10.9961)" />
  <g
     id="skin-shadow"
     transform="translate(-4,-10.9961)" />
  <g
     id="line"
     transform="translate(-4,-10.9961)">
    <path
       fill="none"
       stroke="#000000"
       stroke-linecap="round"
       stroke-linejoin="round"
       stroke-miterlimit="10"
       stroke-width="2"
       d="m 67,21.9961 v 31 c 0,1.1045 -0.8955,2 -2,2 H 7 c -1.1045,0 -2,-0.8955 -2,-2 v -31 c 0,-1.1045 0.8955,-2 2,-2 l 50,-8"
       id="path6" />
    <path
       fill="none"
       stroke="#000000"
       stroke-linecap="round"
       stroke-linejoin="round"
       stroke-miterlimit="10"
       stroke-width="2"
       d="m 57,11.9961 c 5.5225,0 10,4.4775 10,10"
       id="path7" />
    <circle
       cx="16"
       cy="43.996101"
       r="5"
       fill="none"
       stroke="#000000"
       stroke-linecap="round"
       stroke-linejoin="round"
       stroke-miterlimit="10"
       stroke-width="2"
       id="circle7" />
    <circle
       cx="56"
       cy="29.996099"
       r="5"
       fill="none"
       stroke="#000000"
       stroke-linecap="round"
       stroke-linejoin="round"
       stroke-miterlimit="10"
       stroke-width="2"
       id="circle8" />
    <circle
       cx="49"
       cy="44.996101"
       r="3"
       fill="none"
       stroke="#000000"
       stroke-linecap="round"
       stroke-linejoin="round"
       stroke-miterlimit="10"
       stroke-width="2"
       id="circle9" />
    <circle
       cx="40"
       cy="31.996099"
       r="3"
       fill="none"
       stroke="#000000"
       stroke-linecap="round"
       stroke-linejoin="round"
       stroke-miterlimit="10"
       stroke-width="2"
       id="circle10" />
    <circle
       cx="32"
       cy="40.996101"
       r="3"
       fill="none"
       stroke="#000000"
       stroke-linecap="round"
       stroke-linejoin="round"
       stroke-miterlimit="10"
       stroke-width="2"
       id="circle11" />
    <circle
       cx="21"
       cy="28.996099"
       r="3"
       fill="none"
       stroke="#000000"
       stroke-linecap="round"
       stroke-linejoin="round"
       stroke-miterlimit="10"
       stroke-width="2"
       id="circle12" />
  </g>
</svg>
