<svg xmlns="http://www.w3.org/2000/svg" xmlns:svg="http://www.w3.org/2000/svg" id="emoji" width="19.927" height="57.907" version="1.1" viewBox="0 0 19.927 57.907"><g id="skin" transform="translate(-25.3729,-6.6821001)"><g id="color-2"><path id="path1" fill="#debb90" d="m 42.533,22.2881 a 4.3,4.3 0 0 0 -4.209,-4.1314 h -6 a 4.3,4.3 0 0 0 -4.209,4.1314 l -0.792,19.4393 a 1.0173,1.0173 0 0 1 -0.1209,0.4369 L 30.1357,40.07 29.4221,62.2033 a 1.2322,1.2322 0 0 0 0.25,0.8789 0.2412,0.2412 0 0 0 0.152,0.09 c 0.214,0 0.656,-0.4266 0.735,-1.1254 l 2.8986,-22.5033 a 4.9252,4.9252 0 0 1 0.4028,-1.1922 l 0.7246,-0.8052 H 36.21 l 0.984,0.6231 a 4.9259,4.9259 0 0 1 0.352,1.3413 l 2.542,22.5343 c 0.079,0.6978 0.522,1.1254 0.736,1.1254 a 0.242,0.242 0 0 0 0.152,-0.09 c 0.1922,-0.2483 0.4894,-0.585 0.4568,-0.9 L 40.5006,40.0702 44,42.5"/><circle id="circle1" cx="35.404" cy="10.651" r="2.969" fill="#debb90"/></g></g><g id="line" transform="translate(-25.3729,-6.6821001)"><g id="Standing_Man"><g id="line-2"><circle id="circle2" cx="35.404" cy="10.651" r="2.969" fill="none" stroke="#000" stroke-miterlimit="10" stroke-width="2"/><path id="path2" fill="none" stroke="#000" stroke-linecap="round" stroke-linejoin="round" stroke-width="2" d="m 40.37,23.5891 1.9,38 c 0.055,1.1 -0.575,2 -1.4,2 a 2.076,2.076 0 0 1 -1.729,-1.987 l -2.542,-22.031 c -0.129,-1.093 -0.679,-1.987 -1.229,-1.987 -0.55,0 -1.103,0.894 -1.229,1.987 l -2.539,22.031 a 2.076,2.076 0 0 1 -1.729,1.987 c -0.825,0 -1.455,-0.9 -1.4,-2 l 1.9,-38"/><path id="path3" fill="none" stroke="#000" stroke-linecap="round" stroke-linejoin="round" stroke-width="2" d="m 26.3729,41.5891 0.792,-19 a 5.274,5.274 0 0 1 5.208,-5 h 6"/></g><path id="path4" fill="none" stroke="#000" stroke-linecap="round" stroke-linejoin="round" stroke-width="2" d="m 38.3,17.589 a 5.274,5.274 0 0 1 5.208,5 l 0.792,19"/></g></g></svg>