<svg xmlns="http://www.w3.org/2000/svg" xmlns:svg="http://www.w3.org/2000/svg" id="emoji" width="46.535" height="50.029" version="1.1" viewBox="0 0 46.535 50.029"><g id="color" transform="translate(-12.5636,-10.9995)"><path id="path1" fill="#92d3f5" d="m 17.0985,61 1,-4 a 13.7126,13.7126 0 0 1 6.6115,-8.785 10.25,10.25 0 0 1 5.6353,-1.148 c 0.225,0.0313 -1.3287,0.251 -1.0783,0.3947 7.9961,4.5894 12.1261,4.8623 16.9794,1.8752 a 6.4655,6.4655 0 0 1 5.9806,-0.4431 c 3.2977,1.4523 5.8715,4.5252 5.8715,8.1062 v 4"/></g><g id="hair" transform="translate(-12.5636,-10.9995)"><path id="path2" fill="#000" d="m 39.0985,12 c -10,0 -14,7 -14,14 0,7 0,13 4,13 h 0.6336 A 17.7974,17.7974 0 0 1 28.035,31 c 0,-5 1.0635,-6 1.0635,-6 6,-1 9,-4 13,-7 0,0 4,5 7,8 a 12.1371,12.1371 0 0 1 1,5 17.4511,17.4511 0 0 1 -1.7462,8 h 0.7462 c 4,0 4,-6 4,-13 0,-7 -4,-14 -14,-14 z"/></g><g id="skin" transform="translate(-12.5636,-10.9995)"><path id="path3" fill="#a57939" d="m 28.035,31 c 0,9 4.9365,14 11,14 5.9365,0 11.0635,-5 11.0635,-14 a 12.1371,12.1371 0 0 0 -1,-5 c -3,-3 -7,-8 -7,-8 -4,3 -7,6 -13,7 0,0 -1.0635,1 -1.0635,6 z"/><path id="path4" fill="#a57939" d="m 18.8459,60.9583 3.2252,-10.22 a 8.7039,8.7039 0 0 0 3.5366,-1.5662 3.0988,3.0988 0 0 0 1.21,-2.4507 l 0.0062,-0.8187 -0.9673,-0.9151 c 2.9608,-3.0021 -2.9,-5.0627 -2.9,-5.0627 l 3.2259,-3.271 a 2.8641,2.8641 0 0 0 0.9285,-2.28 c -0.1839,-1.4763 -2.15,-0.483 -2.15,-0.483 l -5.6295,5.7082 a 1.5349,1.5349 0 0 0 -0.3945,0.7046 l -1.2649,5.0423 a 6.3773,6.3773 0 0 0 0.071,3.3616 l 0.22,0.7427 -4.7955,11.508 z"/></g><g id="line" transform="translate(-12.5636,-10.9995)"><path id="path5" fill="none" stroke="#000" stroke-linecap="round" stroke-linejoin="round" stroke-width="2" d="m 29.0985,39 a 2.8777,2.8777 0 0 1 -2.4938,-1.2827 c -0.724,-1.0235 4.6251,-4.803 -1.2952,-4.5278 0,0 -0.211,-4.5645 -0.211,-7.19 0,-7 4,-14 14,-14 10,0 14,7 14,14 0,7 0,13 -4,13"/><path id="path6" fill="none" stroke="#000" stroke-linecap="round" stroke-linejoin="round" stroke-width="2" d="m 58.0985,60 v -3 c 0,-4.9941 -5.0059,-9 -10,-9 q -9,7.5 -18,0"/><path id="path7" d="m 44.9715,30 a 2,2 0 1 1 -2,-2 2,2 0 0 1 2,2"/><path id="path8" d="m 36.9715,30 a 2,2 0 1 1 -2,-2 2,2 0 0 1 2,2"/><path id="path9" fill="none" stroke="#000" stroke-linejoin="round" stroke-width="2" d="m 28.035,31 c 0,9 4.9365,14 11,14 5.9365,0 11.0635,-5 11.0635,-14 a 12.1371,12.1371 0 0 0 -1,-5 c -3,-3 -7,-8 -7,-8 -4,3 -7,6 -13,7 0,0 -1.0635,1 -1.0635,6 z"/><path id="path10" fill="none" stroke="#000" stroke-linecap="round" stroke-linejoin="round" stroke-width="2" d="m 36.0985,37.7271 a 6.5535,6.5535 0 0 1 6,0 V 38 a 6.5535,6.5535 0 0 1 -6,0 z"/><path id="path11" fill="none" stroke="#000" stroke-linecap="round" stroke-miterlimit="10" stroke-width="2" d="m 19.8838,29.3344 a 4.447,4.447 0 0 1 -0.0575,5.3848"/><path id="path12" fill="none" stroke="#000" stroke-linecap="round" stroke-miterlimit="10" stroke-width="2" d="m 15.7264,27.5 c 0,0 2.5694,4.9484 -0.6794,9.3943"/><path id="path13" fill="none" stroke="#000" stroke-linecap="round" stroke-linejoin="round" stroke-width="2" d="m 26.1041,45.1212 c 2.9607,-3.0021 -2.9,-5.0627 -2.9,-5.0627 l 3.226,-3.271 a 2.864,2.864 0 0 0 0.9284,-2.28 c -0.1838,-1.4763 -2.15,-0.483 -2.15,-0.483 l -5.6295,5.7083 a 1.5347,1.5347 0 0 0 -0.3944,0.7046 L 17.92,45.48 a 6.3777,6.3777 0 0 0 0.071,3.3617 l 0.22,0.7427 -4.6474,10.4446"/><path id="path14" fill="none" stroke="#000" stroke-linecap="round" stroke-linejoin="round" stroke-width="2" d="m 27.0713,46.0363 -0.0062,0.8187 a 3.0988,3.0988 0 0 1 -1.21,2.4507 8.0641,8.0641 0 0 1 -3.4333,1.6379"/><line id="line14" x1="22.422" x2="19.157" y1="50.944" y2="60.001" fill="none" stroke="#000" stroke-linecap="round" stroke-linejoin="round" stroke-width="2"/></g></svg>