<svg xmlns="http://www.w3.org/2000/svg" xmlns:svg="http://www.w3.org/2000/svg" id="emoji" width="49.881" height="53.429" version="1.1" viewBox="0 0 49.881 53.429"><g id="color" transform="translate(-15.266333,-5.3894494)"><path id="path1" fill="#e27022" d="m 50.63,15.6 a 1.2,1.2 0 0 1 -1.73,1.18 c -1.08,-0.56 -2.98,-1.24 -3.92,-0.35 a 0.3039,0.3039 0 0 1 -0.07,0.05 C 43.39,14.39 40.7,12.69 36,12.69 a 3.7944,3.7944 0 0 1 3.56,-4.24 8.4848,8.4848 0 0 0 4.73,-2.06 5.0935,5.0935 0 0 1 0.65,3.96 l 0.49,0.01 c 3.72,0 4.97,3.05 5.2,5.24 z"/><path id="path2" fill="#b1cc33" d="m 36.0022,42.0333 c -15.2776,0 -10.5548,-6.0794 -10.5548,-12.7628 0,-3.5808 -0.3769,-3.4016 -0.3769,-5.9038 0,-2.5022 0.6328,-10.681 10.9317,-10.681 10.2989,0 10.9317,8.1789 10.9317,10.681 0,2.5021 -0.3769,2.323 -0.3769,5.9038 0,6.6834 4.723,12.7628 -10.5548,12.7628 z"/><path id="path3" fill="#b1cc33" d="m 46.9339,23.3667 c 2.137,-2.8369 5.3093,-2.0623 8.8,-4.36 -0.548,3.5228 -1.6172,12.3056 -8.9959,12.787 z"/><path id="path4" fill="#b1cc33" d="m 25.2622,31.7941 c -7.3787,-0.4814 -8.4479,-9.2642 -8.9959,-12.787 3.49,2.2973 6.6628,1.5227 8.8,4.36 z"/><path id="path5" fill="#b1cc33" d="m 17.0625,57.8177 c 0,0 -2,-13 10,-13 3.1918,2.1279 5.9264,3.5984 9,3.5922 h -0.125 c 3.0736,0.0062 5.8081,-1.4643 9,-3.5922 12,0 10,13 10,13 l 0.0076,1 h -37.909 z"/><path id="path6" fill="#5c9e31" d="m 36,58.8164 c 8.1262,-10.7061 8.3828,-14.831 8.3828,-14.831 a 1.0008,1.0008 0 0 1 0.5547,-0.168 c 3.6563,0 6.4844,1.1357 8.4072,3.3769 3.5537,4.1426 2.6221,10.5057 2.5811,10.7757 a 0.9991,0.9991 0 0 1 -0.9863,0.8467 z"/><path id="path7" fill="#a57939" d="M 44.9635,57.8182 A 47.8735,47.8735 0 0 1 51.43,50.9394 c 4.4058,-3.4682 6.7662,-3.56 10.948,-8.9061 2.0629,-2.6374 2.6374,-7.2817 0,-9.3447 -2.6374,-2.063 -6.354,-1.2434 -8.878,1.8278 -4.681,5.6962 -3.8249,8.713 -6.1991,13.1933 A 102.5608,102.5608 0 0 1 40.4972,57.816 v 1 h 4.4654 z"/><path id="path8" fill="#fff" d="m 31.0551,31.4981 v 0 a 2.6068,2.6068 0 0 1 2.6068,2.6068 v 0.651 h -2.6068 z"/><path id="path9" fill="#fff" d="m 38.3959,31.4981 h 2.6068 v 0.651 a 2.6068,2.6068 0 0 1 -2.6068,2.6068 v 0 z" transform="rotate(180,39.69935,33.127)"/></g><g id="line" transform="translate(-15.266333,-5.3894494)"><path id="path10" fill="none" stroke="#000" stroke-linecap="round" stroke-linejoin="round" stroke-width="2" d="m 54.7288,52.4471 a 16.7057,16.7057 0 0 1 0.2087,5.3706"/><path id="path11" fill="none" stroke="#000" stroke-linecap="round" stroke-linejoin="round" stroke-width="2" d="m 17.0625,57.8177 c 0,0 -2,-13 10,-13 3.1918,2.1279 5.9264,3.5984 9,3.5922 h -0.125 c 3.0736,0.0062 5.8081,-1.4643 9,-3.5922"/><path id="path12" fill="none" stroke="#000" stroke-linecap="round" stroke-linejoin="round" stroke-width="2" d="m 44.287,12.09 a 5.0267,5.0267 0 0 0 0,-5.7006 8.4359,8.4359 0 0 1 -4.7251,2.0561 3.7937,3.7937 0 0 0 -3.56,4.24"/><path id="path13" fill="none" stroke="#000" stroke-linecap="round" stroke-linejoin="round" stroke-width="2" d="m 46.9339,23.3667 c 2.137,-2.8369 5.3093,-2.0623 8.8,-4.36 -0.548,3.5228 -1.6172,12.3056 -8.9959,12.787"/><path id="path14" fill="none" stroke="#000" stroke-linecap="round" stroke-linejoin="round" stroke-width="2" d="m 25.2622,31.7941 c -7.3787,-0.4814 -8.4479,-9.2642 -8.9959,-12.787 3.49,2.2973 6.6628,1.5227 8.8,4.36"/><path id="path15" fill="none" stroke="#000" stroke-linecap="round" stroke-linejoin="round" stroke-width="2" d="m 36.0022,42.0333 c -15.2776,0 -10.5548,-6.0794 -10.5548,-12.7628 0,-3.5808 -0.3769,-3.4016 -0.3769,-5.9038 0,-2.5022 0.6328,-10.681 10.9317,-10.681 10.2989,0 10.9317,8.1789 10.9317,10.681 0,2.5021 -0.3769,2.323 -0.3769,5.9038 0,6.6834 4.723,12.7628 -10.5548,12.7628 z"/><path id="path16" d="m 42.0023,26.4993 a 2,2 0 1 1 -2,-2 2,2 0 0 1 2,2"/><path id="path17" d="m 34.0023,26.4993 a 2,2 0 1 1 -2,-2 2,2 0 0 1 2,2"/><path id="path18" fill="none" stroke="#000" stroke-linecap="round" stroke-linejoin="round" stroke-width="2" d="m 38.039,23.0265 a 5.4257,5.4257 0 0 1 5.0488,-1.2713"/><path id="path19" fill="none" stroke="#000" stroke-linecap="round" stroke-linejoin="round" stroke-width="2" d="m 28.97,21.7552 a 5.4256,5.4256 0 0 1 5.0488,1.2713"/><path id="path20" fill="none" stroke="#000" stroke-linecap="round" stroke-linejoin="round" stroke-width="2" d="M 44.9635,57.8182 A 47.8735,47.8735 0 0 1 51.43,50.9394 c 4.4058,-3.4682 6.7662,-3.56 10.948,-8.9061 2.0629,-2.6374 2.6374,-7.2817 0,-9.3447 -2.6374,-2.063 -6.354,-1.2434 -8.878,1.8278 -4.681,5.6962 -3.8249,8.713 -6.1991,13.1933 A 102.5608,102.5608 0 0 1 40.4972,57.816"/><line id="line20" x1="50.373" x2="53.516" y1="36.073" y2="37.974" fill="none" stroke="#000" stroke-linecap="round" stroke-linejoin="round" stroke-width="2"/><line id="line21" x1="56.472" x2="58.399" y1="45.212" y2="48.34" fill="none" stroke="#000" stroke-linecap="round" stroke-linejoin="round" stroke-width="2"/><line id="line22" x1="59.361" x2="59.052" y1="29.433" y2="33.093" fill="none" stroke="#000" stroke-linecap="round" stroke-linejoin="round" stroke-width="2"/><line id="line23" x1="31.055" x2="31.055" y1="32.496" y2="35.272" fill="none" stroke="#000" stroke-linecap="round" stroke-linejoin="round" stroke-width="2"/><line id="line24" x1="42.249" x2="29.808" y1="35.272" y2="35.272" fill="none" stroke="#000" stroke-linecap="round" stroke-linejoin="round" stroke-width="2"/><line id="line25" x1="41.003" x2="41.003" y1="32.496" y2="35.272" fill="none" stroke="#000" stroke-linecap="round" stroke-linejoin="round" stroke-width="2"/><path id="path25" fill="none" stroke="#000" stroke-linecap="round" stroke-linejoin="round" stroke-width="2" d="m 47.2467,15.1081 a 9.3183,9.3183 0 0 1 2.754,1.1523 c 0,0 0,-5.21 -4.4936,-5.21"/></g></svg>