<svg xmlns="http://www.w3.org/2000/svg" xmlns:svg="http://www.w3.org/2000/svg" id="emoji" width="40" height="51.1" version="1.1" viewBox="0 0 40 51.1"><g id="color" transform="translate(-16,-9.9)"><path id="path1" fill="#92d3f5" d="m 17,61 v -4 c 0,-5 5,-9 10,-9 6,5 12,5 18,0 5,0 10,4 10,9 v 4"/></g><g id="skin" transform="translate(-16,-9.9)"><path id="path2" fill="#fcea2b" d="m 25.4,29.4 v 1 C 25.4,38 30,44 35.9,44 c 5.9,0 10.5,-6 10.5,-13.6 0,-4.7 -1.8,-7.5 -5.3,-11.1 -2.8215,2.1972 -5.8334,4.1382 -9,5.8 -2.6,1.4 -6.3,3.5 -6.7,4.3 z"/></g><g id="hair" transform="translate(-16,-9.9)"><path id="path3" fill="#f1b31c" d="M 53.3,34.1 C 52.9,33.2 52.5,32.4 52.1,31.5 50.6,28.2 50.1,27 49.8,21 c 0,-3.7 -3.8,-6.8 -7.5,-7.1 -0.266,0.0074 -0.5219,-0.1022 -0.7,-0.3 -1.916,-1.8685 -4.5278,-2.848 -7.2,-2.7 -6.2,0 -11.4,3.4 -12.7,8.2 -0.5009,2.0264 -0.7031,4.1151 -0.6,6.2 0.1854,2.0347 -0.088,4.085 -0.8,6 -0.2031,0.7742 -0.5792,1.4922 -1.1,2.1 -3.7,4.2 -1.1,13.9 -1.2,13.9 1.1134,1.01 2.3186,1.914 3.6,2.7 1.5698,-1.1883 3.4398,-1.9155 5.4,-2.1 6.2,5 12.5,5 18.7,0 1.5148,0.0874 2.9726,0.6081 4.2,1.5 1.0596,-0.6856 2.0628,-1.4547 3,-2.3 1.2,-0.7 3.1,-8.3 0.4,-13 z M 40,39 c 0,0.7 -1.6,2 -4,2 -2.4,0 -4,-1.3 -4,-2 v -1.9 c 0.0012,-0.5518 0.4482,-0.9988 1,-1 l 3,1.5 3.1,-1.5 c 0.5209,-0.0314 0.9686,0.3653 1,0.8862 0.0023,0.0379 0.0023,0.0759 0,0.1138 V 39 Z m 7,-10 c -0.4891,2.0033 -1.1932,3.9479 -2.1,5.8 0,0 -1.9,3 -2.7,-1.2 -4.2842,-1.2 -8.8158,-1.2 -13.1,0 -0.7,4.2 -2.7,1.2 -2.7,1.2 -0.6789,-1.3053 -1.2153,-2.6799 -1.6,-4.1 V 29.6 C 24.7,28.3 37.2,23 41,18.5 c 3.0604,2.6697 5.196,6.2407 6.1,10.2 z"/></g><g id="line" transform="translate(-16,-9.9)"><path id="path4" fill="none" stroke="#000" stroke-linecap="round" stroke-linejoin="round" stroke-width="2" d="M 18.8,46.6 C 15.1,40.7 18.2,36.5 20,31.9 c 1.6,-4.2 -0.2,-6.5 1.3,-12 1.5,-5.5 7.3,-9 13.7,-9 5.4,0 8,3 8,3 4.1708,0.3386 7.387,3.8155 7.4,8 0.4,7.2 1,7.2 3.4,12.8 1.667,3.8686 1.1327,8.3339 -1.4,11.7"/><path id="path5" fill="none" stroke="#000" stroke-linecap="round" stroke-linejoin="round" stroke-width="2" d="m 17,59.9 v -3 c 0,-5 5,-9 10,-9 6,5 12,5 18,0 5,0 10,4 10,9 v 3"/><path id="path6" d="m 42,29.3 c 0,1.1046 -0.8954,2 -2,2 -1.1046,0 -2,-0.8954 -2,-2 0,-1.1046 0.8954,-2 2,-2 1.1032,0.0032 1.9968,0.8968 2,2"/><path id="path7" d="m 34,29.3 c 0,1.1046 -0.8954,2 -2,2 -1.1046,0 -2,-0.8954 -2,-2 0,-1.1046 0.8954,-2 2,-2 1.1032,0.0032 1.9968,0.8968 2,2"/><path id="path8" fill="none" stroke="#000" stroke-linejoin="round" stroke-width="2" d="m 47,30.9 c 0,-5 -2,-8 -6,-12 -4,4 -16,9 -16,11 v 1"/><path id="path9" d="m 39.9,36.5 c 0.2165,0.4972 -0.0061,1.0761 -0.5,1.3 -1.0802,0.5583 -2.2845,0.8336 -3.5,0.8 -1.1781,-0.0154 -2.3386,-0.2885 -3.4,-0.8 -0.4939,-0.2239 -0.7165,-0.8028 -0.5,-1.3 0.1662,-0.4582 0.6724,-0.6948 1.1306,-0.5286 0.0235,0.0086 0.0467,0.0181 0.0694,0.0286 0.1,0 0.1,0 0.1,0.1 1.5809,0.9 3.5191,0.9 5.1,0 0.5269,-0.2862 1.1856,-0.1105 1.5,0.4 z"/><path id="path10" fill="none" stroke="#000" stroke-linecap="round" stroke-linejoin="round" stroke-width="2" d="m 24.9,31 c -0.2,3.1 -0.3,6.6 1.2,9.3 0.5866,0.9827 1.2919,1.8896 2.1,2.7 2.0576,1.7465 4.7048,2.6408 7.4,2.5"/><path id="path11" fill="none" stroke="#000" stroke-linecap="round" stroke-linejoin="round" stroke-width="2" d="m 47,31 c -0.2804,1.4441 -0.9357,2.7891 -1.9,3.9 0,0 -1.9,3 -2.7,-1.2 -4.2842,-1.2 -8.8158,-1.2 -13.1,0 -0.8,4.2 -2.7,1.2 -2.7,1.2 C 25.8225,33.7141 25.2793,32.3903 25,31"/><path id="path12" fill="none" stroke="#000" stroke-linecap="round" stroke-linejoin="round" stroke-width="2" d="m 47,31.4 c 0.3271,3.0586 -0.2281,6.1469 -1.6,8.9 -0.5204,1.0263 -1.2333,1.943 -2.1,2.7 -2.0255,1.8025 -4.6964,2.7048 -7.4,2.5 h -0.3"/></g></svg>