<svg xmlns="http://www.w3.org/2000/svg" xmlns:svg="http://www.w3.org/2000/svg" id="emoji" width="51.343" height="53.381" version="1.1" viewBox="0 0 51.343 53.381"><g id="color" transform="translate(-15.696901,-8.5808)"><path id="path1" fill="#9b9b9a" d="m 17.298,58.8535 c 0,0 -2,-13.8 10,-13.8 3.1918,2.1279 5.9264,3.5984 9,3.5921 h -0.125 c 3.0736,0.0063 5.3081,-2.6642 8.5,-4.7921 13.3136,0 10.9,15 10.9,15"/><polyline id="polyline1" fill="#d0cfce" points="36.613 54.207 39.028 58.752 45.4 44.136 51.857 53.92 40.7 58.051"/><path id="path2" fill="#fff" d="m 38.507,57.7426 c -0.5976,1.0349 -4.8914,1.0349 -5.489,0 l -1.842,-2.4101 -3.3864,-8.7387 7.9729,2.7 7.573,-2.7 -3.2865,8.7387 z"/><path id="path3" fill="#d0cfce" d="M 65.729,58.4861 H 50.2443 V 38.6837 h 15.2709 c 0.1181,0 0.2138,0.0957 0.2138,0.2138 z"/><path id="path4" fill="#fff" d="M 62.6179,60.9619 H 48.0103 V 42.0102 h 10.753 c 2.1288,0 3.8546,1.7257 3.8546,3.8545 z"/><path id="path5" fill="#3f3f3f" d="m 33.4552,48.5348 c 0,0 -1.2063,6.0215 2.3073,6.0215 3.5136,0 2.3073,-6.0215 2.3073,-6.0215"/><path id="path6" fill="#3f3f3f" d="m 35.0163,54.8799 c 0.3249,-0.5627 1.137,-0.5627 1.4619,0 l 1.1645,2.0171 1.8956,1.9831 h -3.7911 -3.791 l 1.8955,-1.9831 z"/><polyline id="polyline6" fill="#d0cfce" points="34.912 54.556 32.497 57.801 26.825 44.886 22.868 53.37 32.325 57.801"/></g><g id="hair" transform="translate(-15.696901,-8.5808)"><path id="path7" fill="#000" d="m 26,36.5808 c -4,0 -4,-6 -4,-13 0,-7 4,-14 14,-14 10,0 14,7 14,14 0,7 0,13 -4,13"/></g><g id="skin" transform="translate(-15.696901,-8.5808)"><path id="path8" fill="#a57939" d="m 24.9365,28.5808 c 0,9 4.9365,14 11,14 5.9365,0 11.0635,-5 11.0635,-14 0.0245,-1.7187 -0.3164,-3.4229 -1,-5 -3,-3 -7,-8 -7,-8 -4,3 -7,6 -13,7.0005 0,-5e-4 -1.0635,0.9987 -1.0635,5.9995 z"/></g><g id="line" transform="translate(-15.696901,-8.5808)"><polygon id="polygon8" fill="none" stroke="#000" stroke-linecap="round" stroke-linejoin="round" stroke-miterlimit="10" stroke-width="2" points="48.01 42.326 59.836 42.326 59.836 44.438 62.618 44.438 62.618 60.962 48.01 60.962"/><polyline id="polyline8" fill="none" stroke="#000" stroke-linecap="round" stroke-linejoin="round" stroke-miterlimit="10" stroke-width="2" points="51.214 38.863 66.04 38.863 66.04 57.499"/><line id="line8" x1="59.835" x2="62.618" y1="42.326" y2="44.438" fill="none" stroke="#000" stroke-linecap="round" stroke-linejoin="round" stroke-miterlimit="10" stroke-width="2"/><line id="line9" x1="50.955" x2="59.388" y1="48.535" y2="48.535" fill="none" stroke="#000" stroke-linecap="round" stroke-linejoin="round" stroke-miterlimit="10" stroke-width="2"/><line id="line10" x1="50.955" x2="59.388" y1="52.631" y2="52.631" fill="none" stroke="#000" stroke-linecap="round" stroke-linejoin="round" stroke-miterlimit="10" stroke-width="2"/><line id="line11" x1="50.955" x2="59.388" y1="56.215" y2="56.215" fill="none" stroke="#000" stroke-linecap="round" stroke-linejoin="round" stroke-miterlimit="10" stroke-width="2"/><path id="path11" fill="none" stroke="#000" stroke-linecap="round" stroke-linejoin="round" stroke-miterlimit="10" stroke-width="2" d="m 33.4552,48.5348 c 0,0 -1.2063,6.0215 2.3073,6.0215 3.5136,0 2.3073,-6.0215 2.3073,-6.0215"/><line id="line12" x1="44.7" x2="38.96" y1="55.629" y2="57.807" fill="none" stroke="#000" stroke-linecap="round" stroke-linejoin="round" stroke-miterlimit="10" stroke-width="2"/><path id="path12" fill="none" stroke="#000" stroke-linecap="round" stroke-linejoin="round" stroke-miterlimit="10" stroke-width="2" d="m 16.825,57.8861 c 0,0 -2,-13 10,-13 3.1919,2.1279 5.9264,3.5984 9,3.5921 H 35.7 c 3.0736,0.0063 5.8081,-1.4642 9,-3.5921"/><polygon id="polygon12" fill="none" stroke="#000" stroke-linecap="round" stroke-linejoin="round" stroke-miterlimit="10" stroke-width="2" points="26.825 44.886 22.868 53.37 32.325 57.801 34.912 54.556 32.497 57.801"/><polyline id="polyline12" fill="none" stroke="#000" stroke-linecap="round" stroke-linejoin="round" stroke-miterlimit="10" stroke-width="2" points="44.7 44.886 39.028 57.801 36.613 54.556"/><path id="path13" d="m 41.9529,27.0468 c 0,1.1046 -0.8954,2 -2,2 -1.1046,0 -2,-0.8954 -2,-2 0,-1.1046 0.8954,-2 2,-2 1.1044,4e-4 1.9996,0.8956 2,2"/><path id="path14" d="m 33.9529,27.0468 c 0,1.1046 -0.8954,2 -2,2 -1.1046,0 -2,-0.8954 -2,-2 0,-1.1046 0.8954,-2 2,-2 1.1044,4e-4 1.9996,0.8956 2,2"/><path id="path15" d="m 35.9527,37.0492 c -1.2005,-0.0116 -2.3813,-0.3055 -3.4472,-0.8579 -0.494,-0.247 -0.6943,-0.8477 -0.4473,-1.3418 0.247,-0.4941 0.8477,-0.6943 1.3418,-0.4473 1.5934,0.8593 3.5121,0.8593 5.1055,0 0.494,-0.247 1.0947,-0.0468 1.3418,0.4473 0.2471,0.4941 0.0468,1.0947 -0.4473,1.3418 -1.0659,0.5524 -2.2468,0.8463 -3.4473,0.8579 z"/><path id="path16" fill="none" stroke="#000" stroke-linecap="round" stroke-linejoin="round" stroke-width="2" d="m 26,36.5808 c -4,0 -4,-6 -4,-13 0,-7 4,-14 14,-14 10,0 14,7 14,14 0,7 0,13 -4,13"/><path id="path17" fill="none" stroke="#000" stroke-linejoin="round" stroke-width="2" d="m 24.9365,28.5808 c 0,9 4.9365,14 11,14 5.9365,0 11.0635,-5 11.0635,-14 0.0245,-1.7187 -0.3164,-3.4229 -1,-5 -3,-3 -7,-8 -7,-8 -4,3 -7,6 -13,7.0005 0,-5e-4 -1.0635,0.9987 -1.0635,5.9995 z"/></g></svg>