<svg xmlns="http://www.w3.org/2000/svg" xmlns:svg="http://www.w3.org/2000/svg" id="emoji" width="52.95" height="52.001" version="1.1" viewBox="0 0 52.95 52.001"><g id="color" transform="translate(-15.967101,-7.0684174)"><path id="path1" fill="#b1cc33" d="m 54.9702,59.0416 c 0,0 2,-13.9922 -10,-13.9922 -3.1919,2.1279 -5.9264,3.5985 -9,3.5922 h 0.125 c -3.0736,0.0063 -5.8082,-1.4643 -9,-3.5922 -12,0 -10,13.9922 -10,13.9922"/><polyline id="polyline1" fill="#5c9e31" points="27.033 45.049 32.836 53.936 36.033 48.642"/><polyline id="polyline2" fill="#5c9e31" points="45.033 45.049 39.229 53.936 36.033 48.642"/><rect id="rect2" width="5.48" height="4.245" x="57.912" y="39.453" fill="#9b9b9a"/><polygon id="polygon2" fill="#a57939" points="58.652 43.739 58.652 54.839 58.652 58.059 58.652 59.042 62.855 59.042 62.855 54.839 62.652 54.839 62.652 43.739"/><rect id="rect3" width="4.288" height="13.971" x="22.162" y="45.09" fill="#61b2e4"/><polygon id="polygon3" fill="#61b2e4" points="22.162 59.013 49.653 59.013 49.653 58.205 22.162 58.035"/><polygon id="polygon4" fill="#61b2e4" points="44.631 50.773 44.631 59.032 48.92 59.032 48.92 45.09 44.631 45.09"/><polyline id="polyline4" fill="#f4aa41" points="27.185 16.27 27.185 8.068 35.97 9.486 44.755 8.068 44.755 16.27"/><rect id="rect4" width="17.446" height="2.659" x="27.185" y="12.854" fill="#e27022"/></g><g id="hair" transform="translate(-15.967101,-7.0684174)"><path id="path4" fill="#a57939" d="m 24.724,24.9937 c -0.2098,1.0778 -0.321,2.2038 -0.321,3.3623 0,0.7929 0.0521,1.5707 0.1523,2.3282 l -0.4737,-0.5234 c 0,0 -4.6525,-6.8512 2.5534,-13.8906 h 18.2132 c 7.206,7.0394 2.5535,13.8906 2.5535,13.8906 L 41.7418,17.5364 c 0,0 -1.4782,3.8056 -5.6542,3.4931 0,0 1.0645,-4.7593 -0.2835,-4.7593 0,0 -5.1834,6.2171 -11.0729,8.7249"/></g><g id="skin" transform="translate(-15.967101,-7.0684174)"><path id="path5" fill="#fadcbc" d="m 41.7418,17.5364 c 0,0 -1.4782,3.8056 -5.6542,3.4931 0,0 1.0645,-4.7593 -0.2835,-4.7593 0,0 -5.1794,6.2122 -11.0663,8.7219 -0.0145,0.0745 -0.0322,0.1473 -0.0458,0.2222 -0.0624,0.3441 -0.1099,0.6948 -0.1518,1.0479 -0.0198,0.1668 -0.0459,0.3309 -0.061,0.4996 -0.047,0.5239 -0.0762,1.0546 -0.0762,1.5942 0,0.4494 0.0211,0.8925 0.0538,1.3311 0.0104,0.1393 0.0273,0.2761 0.0409,0.4142 0.6894,7.0025 5.4556,12.428 11.2439,12.428 5.9927,0 10.8871,-5.8153 11.2983,-13.1756 z"/></g><g id="line" transform="translate(-15.967101,-7.0684174)"><path id="path6" d="m 41.9703,26.9951 c 0,1.1045 -0.8965,2 -2,2 -1.1035,0 -2,-0.8955 -2,-2 0,-1.1035 0.8965,-2 2,-2 1.1035,0 2,0.8965 2,2"/><path id="path7" d="m 33.9703,26.9951 c 0,1.1045 -0.8965,2 -2,2 -1.1035,0 -2,-0.8955 -2,-2 0,-1.1035 0.8965,-2 2,-2 1.1035,0 2,0.8965 2,2"/><path id="path8" d="m 35.9702,36.9976 c -1.1519,0 -2.3038,-0.2862 -3.4473,-0.8579 -0.4942,-0.2471 -0.6943,-0.8477 -0.4473,-1.3418 0.2466,-0.4937 0.8462,-0.6944 1.3418,-0.4473 1.7178,0.8594 3.3877,0.8594 5.1055,0 0.4946,-0.2471 1.0947,-0.0464 1.3418,0.4473 0.2471,0.4941 0.0469,1.0947 -0.4473,1.3418 -1.1435,0.5717 -2.2954,0.8579 -3.4472,0.8579 z"/><polyline id="polyline8" fill="none" stroke="#000" stroke-linecap="round" stroke-linejoin="round" stroke-miterlimit="10" stroke-width="2" points="27.033 45.049 32.836 53.936 36.033 48.642"/><polyline id="polyline9" fill="none" stroke="#000" stroke-linecap="round" stroke-linejoin="round" stroke-miterlimit="10" stroke-width="2" points="45.033 45.049 39.229 53.936 36.033 48.642"/><path id="path9" fill="none" stroke="#000" stroke-linecap="round" stroke-linejoin="round" stroke-miterlimit="10" stroke-width="2" d="m 53.4805,23.7951 c 0,0 -2.3766,15.4155 7.0845,15.6583 V 23.7951"/><path id="path10" fill="none" stroke="#000" stroke-linecap="round" stroke-linejoin="round" stroke-miterlimit="10" stroke-width="2" d="m 67.6495,23.7951 c 0,0 2.3767,15.4155 -7.0845,15.6583 V 23.7951"/><rect id="rect10" width="5.48" height="4.245" x="57.912" y="39.453" fill="none" stroke="#000" stroke-linecap="round" stroke-linejoin="round" stroke-miterlimit="10" stroke-width="2"/><polyline id="polyline10" fill="none" stroke="#000" stroke-linecap="round" stroke-linejoin="round" stroke-miterlimit="10" stroke-width="2" points="62.652 58.069 62.652 43.739 58.652 43.739 58.652 58.059"/><path id="path11" fill="none" stroke="#000" stroke-linecap="round" stroke-linejoin="round" stroke-miterlimit="10" stroke-width="2" d="m 54.9702,58.0494 c 0,0 2,-13 -10,-13 -3.1919,2.1279 -5.9264,3.5985 -9,3.5922 h 0.125 c -3.0736,0.0063 -5.8082,-1.4643 -9,-3.5922 -12,0 -10,13 -10,13"/><line id="line11" x1="22.162" x2="22.162" y1="46.001" y2="58.035" fill="none" stroke="#000" stroke-linecap="round" stroke-linejoin="round" stroke-miterlimit="10" stroke-width="2"/><line id="line12" x1="49.653" x2="49.653" y1="46.001" y2="58.064" fill="none" stroke="#000" stroke-linecap="round" stroke-linejoin="round" stroke-miterlimit="10" stroke-width="2"/><polyline id="polyline12" fill="none" stroke="#000" stroke-linecap="round" stroke-linejoin="round" stroke-miterlimit="10" stroke-width="2" points="27.301 45.305 27.301 58.035 44.749 58.021 44.749 45.284"/><path id="path12" fill="none" stroke="#000" stroke-miterlimit="10" d="m 24.724,24.9937 c -0.2098,1.0778 -0.321,2.2038 -0.321,3.3623 0,0.7929 0.0521,1.5707 0.1523,2.3282 l -0.4737,-0.5234 c 0,0 -4.6525,-6.8512 2.5534,-13.8906 h 18.2132 c 7.206,7.0394 2.5535,13.8906 2.5535,13.8906 L 41.7418,17.5364 c 0,0 -1.4782,3.8056 -5.6542,3.4931 0,0 1.0645,-4.7593 -0.2835,-4.7593 0,0 -5.1834,6.2171 -11.0729,8.7249"/><path id="path13" fill="none" stroke="#000" stroke-miterlimit="10" stroke-width="2" d="m 24.9525,24.9937 c -0.2097,1.0778 -0.3209,2.2038 -0.3209,3.3623 0,7.8276 5.0764,14.1732 11.3386,14.1732 5.9698,0 10.8621,-5.7671 11.3058,-13.0874"/><path id="path14" fill="none" stroke="#000" stroke-linecap="round" stroke-linejoin="round" stroke-miterlimit="10" stroke-width="2" d="m 45.0768,16.2702 c 7.2059,7.0394 2.5534,13.8906 2.5534,13.8906 L 41.9703,17.5364 c 0,0 -1.4782,3.8056 -5.6542,3.4931 0,0 1.0646,-4.7593 -0.2834,-4.7593 0,0 -5.1834,6.2171 -11.0729,8.7249"/><path id="path15" fill="none" stroke="#000" stroke-linecap="round" stroke-linejoin="round" stroke-miterlimit="10" stroke-width="2" d="m 24.3101,30.1608 c 0,0 -4.6525,-6.8512 2.5534,-13.8906"/><polyline id="polyline15" fill="none" stroke="#000" stroke-linecap="round" stroke-linejoin="round" stroke-miterlimit="10" stroke-width="2" points="27.185 16.27 27.185 8.068 35.97 9.486 44.755 8.068 44.755 16.27"/><line id="line15" x1="27.185" x2="44.755" y1="12.765" y2="12.765" fill="none" stroke="#000" stroke-linecap="round" stroke-linejoin="round" stroke-miterlimit="10" stroke-width="2"/><line id="line16" x1="19.513" x2="52.081" y1="16.27" y2="16.27" fill="none" stroke="#000" stroke-linecap="round" stroke-linejoin="round" stroke-miterlimit="10" stroke-width="2"/></g></svg>