<svg xmlns="http://www.w3.org/2000/svg" xmlns:svg="http://www.w3.org/2000/svg" id="emoji" width="40.131" height="56.367" version="1.1" viewBox="0 0 40.131 56.367"><g id="color" transform="translate(-15.938001,-8.3877)"><path id="path1" fill="#b1cc33" d="m 45.5218,50.5618 0.797,2.48 -1.1339,4.9948 -5.1813,5.6743 a 23.9672,23.9672 0 0 0 14.9375,-4.1124 c 0,0 2,-13 -10,-13 -3.1918,2.1279 -5.9264,3.5984 -9,3.5921 h 0.125 c -3.0736,0.0063 -5.8081,-1.4642 -9,-3.5921 -12,0 -10,13 -10,13 9.9776,6.0208 14.368,3.708 28.1188,-1.5619 l 0.6171,-3.5208 -24.0677,1.35 5.3094,-0.9076"/><path id="path2" fill="#b1cc33" d="m 54.9259,59.5988 c 0,0 2,-13 -10,-13 -3.1919,2.1279 -5.9264,3.5984 -9,3.5921 h 0.125 c -3.0736,0.0063 -5.8081,-1.4642 -9,-3.5921 -12,0 -10,13 -10,13"/><path id="path3" fill="#5c9e31" d="m 45.2082,46.5988 a 18.0129,18.0129 0 0 1 -8.9375,3.5885 c 13.0625,0.4115 13.0625,5.4115 13.8247,9.4115 h 5.1128 c 0,0 2,-13 -10,-13 z"/><path id="path4" fill="#5c9e31" d="m 55.2082,59.5988 c 0,0 -11.7562,9.0259 -20.7368,2.9632 l 10.7135,-4.5251 1.1339,-4.9948 c 0,0 8.977,-2.4641 8.8894,6.5567 z"/><ellipse id="ellipse4" cx="36.004" cy="30.099" fill="#b1cc33" rx="11.339" ry="14.173"/><path id="path5" fill="#fff" d="m 49.1748,14.6732 c -13.1713,4.1165 -24.51,13.5184 -24.51,13.5184 0,0 -3.96,-5.3394 -2.2369,-10.7265 0,0 2.2369,-8.0773 13.036,-8.0773 7.7035,0 11.5948,3.1694 13.7108,5.2854 6.1464,8.7249 -2.1347,13.6042 -2.1347,13.6042 a 126.1662,126.1662 0 0 1 -9.655,-8.3413"/><path id="path6" fill="#d0cfce" d="M 49.1748,14.6732 C 55.3211,23.3981 47.04,28.2774 47.04,28.2774 a 126.1662,126.1662 0 0 1 -9.655,-8.3413"/><path id="path7" fill="#fcea2b" d="m 36.0036,25.7654 v 0 a 2,2 0 0 1 -2,-2 v -4 a 2,2 0 0 1 2,-2 v 0 a 2,2 0 0 1 2,2 v 4 a 2,2 0 0 1 -2,2 z"/><polygon id="polygon7" fill="#fcea2b" points="40.773 54.623 45.802 54.623 45.185 58.037 40.773 59.868"/></g><g id="line" transform="translate(-15.938001,-8.3877)"><path id="path8" fill="none" stroke="#000" stroke-linecap="round" stroke-linejoin="round" stroke-width="2" d="m 40.0036,63.7112 a 23.9672,23.9672 0 0 0 14.9375,-4.1124 c 0,0 2,-13 -10,-13 -3.1918,2.1279 -5.9264,3.5984 -9,3.5921 h 0.125 c -3.0736,0.0063 -5.8081,-1.4642 -9,-3.5921 -12,0 -10,13 -10,13 9.9776,6.0208 14.368,3.708 28.1188,-1.5619 l 0.6171,-3.5208 -24.0677,1.35"/><path id="path9" fill="none" stroke="#000" stroke-linecap="round" stroke-linejoin="round" stroke-width="2" d="m 45.5218,50.5618 0.797,2.48 -1.1339,4.9948"/><path id="path10" d="m 42.0036,28.738 a 2,2 0 1 1 -2,-2 2.0007,2.0007 0 0 1 2,2"/><path id="path11" d="m 34.0036,28.738 a 2,2 0 1 1 -2,-2 2.0007,2.0007 0 0 1 2,2"/><path id="path12" d="m 36.0035,38.74 a 7.6528,7.6528 0 0 1 -3.4473,-0.8579 1.0001485,1.0001485 0 0 1 0.8946,-1.7891 5.3772,5.3772 0 0 0 5.1054,0 1.0001485,1.0001485 0 0 1 0.8946,1.7891 7.6528,7.6528 0 0 1 -3.4473,0.8579 z"/><path id="path13" fill="none" stroke="#000" stroke-linecap="round" stroke-linejoin="round" stroke-width="2" d="m 34.006,21.7177 c -1.28,0.77 -2.47,1.53 -3.53,2.24 -3.13,2.09 -5.21,3.75 -5.7,4.14 -0.07,0.06 -0.11,0.09 -0.11,0.09 0,0 -3.96,-5.34 -2.24,-10.72 0,0 2.24,-8.08 13.04,-8.08 7.7,0 11.59,3.17 13.71,5.29 5.58,7.91 -0.72,12.65 -1.94,13.47 -0.13,0.09 -0.2,0.13 -0.2,0.13 0,0 -4.41,-3.38 -9.03,-7.75"/><path id="path14" fill="none" stroke="#000" stroke-linecap="round" stroke-linejoin="round" stroke-width="2" d="m 37.976,19.4577 a 66.4314,66.4314 0 0 1 11.2,-4.78"/><path id="path15" fill="none" stroke="#000" stroke-linecap="round" stroke-linejoin="round" stroke-width="2" d="m 36.0036,25.7654 v 0 a 2,2 0 0 1 -2,-2 v -4 a 2,2 0 0 1 2,-2 v 0 a 2,2 0 0 1 2,2 v 4 a 2,2 0 0 1 -2,2 z"/><line id="line15" x1="40.773" x2="40.773" y1="54.916" y2="59.665" fill="none" stroke="#000" stroke-linecap="round" stroke-linejoin="round" stroke-width="2"/><path id="path16" fill="none" stroke="#000" stroke-linecap="round" stroke-linejoin="round" stroke-width="2" d="m 24.7429,28.2805 a 17.8611,17.8611 0 0 0 -0.0948,1.8417 c 0,7.8276 5.0765,14.1732 11.3386,14.1732 6.2621,0 11.3386,-6.3454 11.3386,-14.1732 a 17.8264,17.8264 0 0 0 -0.101,-1.9"/></g></svg>