<?xml version="1.0" encoding="UTF-8" standalone="no"?>
<svg
   id="emoji"
   viewBox="0 0 52.0098 59.574505"
   version="1.1"
   sodipodi:docname="1f9d7-1f3fe.svg"
   width="52.0098"
   height="59.574505"
   xmlns:inkscape="http://www.inkscape.org/namespaces/inkscape"
   xmlns:sodipodi="http://sodipodi.sourceforge.net/DTD/sodipodi-0.dtd"
   xmlns="http://www.w3.org/2000/svg"
   xmlns:svg="http://www.w3.org/2000/svg">
  <defs
     id="defs7" />
  <sodipodi:namedview
     id="namedview7"
     pagecolor="#ffffff"
     bordercolor="#000000"
     borderopacity="0.25"
     inkscape:showpageshadow="2"
     inkscape:pageopacity="0.0"
     inkscape:pagecheckerboard="0"
     inkscape:deskcolor="#d1d1d1" />
  <g
     id="color"
     transform="translate(-3.959,-4)">
    <polyline
       fill="#92d3f5"
       points="51.1123,33.1885 54.1621,34.2051 52.8975,38 49.8477,36.9834"
       id="polyline1" />
    <path
       fill="#d0cfce"
       d="m 40,7 v 1 l -2,8 c 0,0 -1,3 -3,6 -2,3 -4,4 -4,4 l -3,2 -2,2 -5,11 1,2 v 1 l 1,1 -3,4 -3.2656,7.6875 L 11,62 3.959,63 4,9 20,4 h 16 z"
       id="path1" />
  </g>
  <g
     id="hair"
     transform="translate(-3.959,-4)" />
  <g
     id="skin-shadow"
     transform="translate(-3.959,-4)" />
  <g
     id="skin"
     transform="translate(-3.959,-4)">
    <circle
       cx="51.9688"
       cy="15.0938"
       r="3"
       fill="#a57939"
       id="circle1" />
    <path
       fill="#a57939"
       d="M 48,21 52.9688,23.375 50.207,36.6104 49.1348,38.1406 47,50 50,62 47,63 42,50 v -9 -1 l -9,-5 -9,9 -2,-2 10,-12 9.6025,2.8809 c 0,0 3.0225,-6.6309 4.3975,-8.8809 0,0 -4.917,-0.75 -11.8262,-2.9106 -1.5439,-0.483 -3.0175,-1.5581 -2.0175,-3.5581"
       id="path2" />
  </g>
  <g
     id="line"
     transform="translate(-3.959,-4)">
    <circle
       cx="51.9688"
       cy="15.0938"
       r="3"
       fill="none"
       stroke="#000000"
       stroke-miterlimit="10"
       stroke-width="2"
       id="circle2" />
    <path
       fill="none"
       stroke="#000000"
       stroke-linecap="round"
       stroke-linejoin="round"
       stroke-miterlimit="10"
       stroke-width="2"
       d="m 42,33 -8.084,-2.4258 c -1.0537,-0.3154 -2.4922,0.1172 -3.1963,0.9619 l -7.4394,8.9278 C 22.5762,41.3086 22.4502,42.4502 23,43 c 0.5498,0.5498 1.6367,0.3633 2.4141,-0.4141 l 6.1718,-6.1718 c 0.7774,-0.7774 2.2012,-0.9766 3.1621,-0.4424 l 5.504,3.0566 C 41.2129,39.5625 42.9004,40 44,40 h 1 c 1.0996,0 2.6182,-0.6533 3.375,-1.4531 l 0.457,-0.4834 c 0.7569,-0.7998 1.5537,-2.2656 1.7715,-3.2588 C 50.8213,33.8125 51,33 51,33"
       id="path3" />
    <path
       fill="none"
       stroke="#000000"
       stroke-linecap="round"
       stroke-linejoin="round"
       stroke-miterlimit="10"
       stroke-width="2"
       d="m 49.1348,38.1406 -1.7803,9.8907 c -0.1953,1.083 -0.1357,2.8417 0.1309,3.9091 l 2.0292,8.1192 C 49.7813,61.127 49.3252,62.2246 48.5,62.5 47.6748,62.7754 46.6768,62.1602 46.2822,61.1338 L 42.7178,51.8662 C 42.3232,50.8398 42,49.0996 42,48 v -7"
       id="path4" />
    <path
       fill="none"
       stroke="#000000"
       stroke-linecap="round"
       stroke-linejoin="round"
       stroke-miterlimit="10"
       stroke-width="2"
       d="m 51,33 1.8506,-6.1685 C 53.4824,24.7241 52.6504,22.5498 51,22 49.3496,21.4502 46.2139,20.7769 44.0313,20.5039 L 43.9688,20.4961 C 41.7861,20.2231 38.4248,19.5713 36.5,19.0469 34.5752,18.5225 33,18.0938 33,18.0938"
       id="path5" />
    <polyline
       fill="none"
       stroke="#000000"
       stroke-linecap="round"
       stroke-linejoin="round"
       stroke-miterlimit="10"
       stroke-width="2"
       points="16,56 23,45 21,41 27,28 32,25 34,22"
       id="polyline5" />
    <line
       x1="43"
       x2="51"
       y1="30"
       y2="33"
       fill="none"
       stroke="#000000"
       stroke-linecap="round"
       stroke-linejoin="round"
       stroke-miterlimit="10"
       stroke-width="2"
       id="line5" />
    <polyline
       fill="none"
       stroke="#000000"
       stroke-linecap="round"
       stroke-linejoin="round"
       stroke-miterlimit="10"
       stroke-width="2"
       points="52.2646,33.5723 54.1621,34.2051 52.8975,38 51,37.3672"
       id="polyline6" />
    <line
       x1="37"
       x2="39"
       y1="16"
       y2="8"
       fill="none"
       stroke="#000000"
       stroke-linecap="round"
       stroke-linejoin="round"
       stroke-miterlimit="10"
       stroke-width="2"
       id="line6" />
    <line
       x1="46"
       x2="45"
       y1="25"
       y2="27"
       fill="none"
       stroke="#000000"
       stroke-linecap="round"
       stroke-linejoin="round"
       stroke-miterlimit="10"
       stroke-width="2"
       id="line7" />
  </g>
</svg>
