<svg xmlns="http://www.w3.org/2000/svg" xmlns:svg="http://www.w3.org/2000/svg" id="emoji" width="38" height="47.984" version="1.1" viewBox="0 0 38 47.984"><g id="color" transform="translate(-17,-13.016006)"><path id="path1" fill="#92d3f5" d="m 18,61 v -4.1 c 0,-5 3.8,-9 8.8,-9 6,5 12,5 18,0 5,0 9.2,4 9.2,9 V 61"/></g><g id="hair" transform="translate(-17,-13.016006)"><path id="path2" fill="#fcea2b" d="m 26,40 c -6,0 -5,-16 -2,-20 6,-8 18,-8 24,0 3,4 4,20 -2,20"/></g><g id="skin" transform="translate(-17,-13.016006)"><path id="path3" fill="#debb90" d="m 25,34 c 0,8 4.8,11.9 10.8,11.9 6,0 11.2,-3.9 11.2,-11.9 0,-5.9 -2.2,-9.2 -2.2,-9.2 -2,0 -5.8,-3.5 -5.8,-3.5 0,0 -8.2,5.5 -12.8,5.5 0,0 -1.2,1.2 -1.2,7.2 z"/></g><g id="line" transform="translate(-17,-13.016006)"><path id="path4" fill="none" stroke="#000" stroke-linecap="round" stroke-linejoin="round" stroke-width="2" d="m 26,40 c -6,0 -5,-16 -2,-20 6,-8 18,-8 24,0 3,4 4,20 -2,20"/><path id="path5" fill="none" stroke="#000" stroke-linecap="round" stroke-linejoin="round" stroke-width="2" d="m 18,60 v -3.1 c 0,-5 3.8,-9 8.8,-9 6,5 12,5 18,0 5,0 9.2,4 9.2,9 V 60"/><path id="path6" d="m 42,33 c 0,1.1 -0.9,2 -2,2 -1.1,0 -2,-0.9 -2,-2 0,-1.1 0.9,-2 2,-2 1.1,0 2,0.9 2,2"/><path id="path7" d="m 34,33 c 0,1.1 -0.9,2 -2,2 -1.1,0 -2,-0.9 -2,-2 0,-1.1 0.9,-2 2,-2 1.1,0 2,0.9 2,2"/><path id="path8" fill="none" stroke="#000" stroke-linejoin="round" stroke-width="2" d="m 25,34 c 0,8 4.8,11.9 10.8,11.9 6,0 11.2,-3.9 11.2,-11.9 0,-5.9 -2.2,-9.2 -2.2,-9.2 -2,0 -5.8,-3.5 -5.8,-3.5 0,0 -8.2,5.5 -12.8,5.5 0,0 -1.2,1.2 -1.2,7.2 z"/><path id="path9" fill="none" stroke="#000" stroke-linecap="round" stroke-linejoin="round" stroke-width="2" d="m 32.8,39.2 c 1.9,1 4.1,1 6,0"/></g></svg>