<?xml version="1.0" encoding="UTF-8" standalone="no"?>
<svg
   id="emoji"
   viewBox="0 0 40 50"
   version="1.1"
   sodipodi:docname="1f9d4.svg"
   width="40"
   height="50"
   xmlns:inkscape="http://www.inkscape.org/namespaces/inkscape"
   xmlns:sodipodi="http://sodipodi.sourceforge.net/DTD/sodipodi-0.dtd"
   xmlns="http://www.w3.org/2000/svg"
   xmlns:svg="http://www.w3.org/2000/svg">
  <defs
     id="defs12" />
  <sodipodi:namedview
     id="namedview12"
     pagecolor="#ffffff"
     bordercolor="#000000"
     borderopacity="0.25"
     inkscape:showpageshadow="2"
     inkscape:pageopacity="0.0"
     inkscape:pagecheckerboard="0"
     inkscape:deskcolor="#d1d1d1" />
  <g
     id="color"
     transform="translate(-16,-11)">
    <path
       fill="#92d3f5"
       d="m 17,61 v -4 c 0,-5 5,-9 10,-9 6,5 12,5 18,0 5,0 10,4 10,9 v 4"
       id="path1" />
  </g>
  <g
     id="skin"
     transform="translate(-16,-11)">
    <path
       fill="#fcea2b"
       d="m 24.9,31 c 0,9 4.9,14 11,14 6,0 11.1,-5 11.1,-14 0.0164,-1.7179 -0.3241,-3.4205 -1,-5 -3,-3 -7,-8 -7,-8 -4,3 -7,6 -13,7 0,0 -1.1,1 -1.1,6 z"
       id="path2" />
  </g>
  <g
     id="hair"
     transform="translate(-16,-11)">
    <path
       fill="#f1b31c"
       d="m 36,12 c -10,0 -14,7 -14,14 0,6.7 0,12.4 3.5,12.9 0.2,0.5 0.4,0.9 0.6,1.4 0.5866,0.9827 1.2919,1.8896 2.1,2.7 2.0255,1.8025 4.6964,2.7048 7.4,2.5 h 0.3 c 2.7037,0.2048 5.3745,-0.6975 7.4,-2.5 0.8667,-0.757 1.5796,-1.6737 2.1,-2.7 0.3745,-0.7139 0.7084,-1.4484 1,-2.2 L 46.1,39 C 50,38.9 50,33 50,26 50,19 46,12 36,12 Z m 4,27 c 0,0.7 -1.6,2 -4,2 -2.4,0 -4,-1.3 -4,-2 v -1.9 c 0.0012,-0.5518 0.4482,-0.9988 1,-1 l 3,1.5 3.1,-1.5 c 0.5209,-0.0314 0.9686,0.3653 1,0.8862 0.0023,0.0379 0.0023,0.0759 0,0.1138 z m 4.9,-4.2 c 0,0 -1.9,3 -2.7,-1.2 -4.2842,-1.2 -8.8158,-1.2 -13.1,0 -0.7,4.2 -2.7,1.2 -2.7,1.2 -0.6363,-1.3242 -1.1712,-2.6948 -1.6,-4.1 0.1925,-1.8639 0.5608,-3.7054 1.1,-5.5 7.2,-1 12.9,-7.1 12.9,-7.1 0,0 1.4,1.2 7.2,7.8 0.3133,1.3181 0.5471,2.6538 0.7,4 -0.3723,1.7082 -0.978,3.357 -1.8,4.9 z"
       id="path3" />
  </g>
  <g
     id="line"
     transform="translate(-16,-11)">
    <path
       fill="none"
       stroke="#000000"
       stroke-linecap="round"
       stroke-linejoin="round"
       stroke-width="2"
       d="M 25.5,39.2 C 20.7,39.2 22,33 22,26 c 0,-7 4,-14 14,-14 10,0 14,7 14,14 0,7 0.9,13.4 -4,13"
       id="path4" />
    <path
       fill="none"
       stroke="#000000"
       stroke-linecap="round"
       stroke-linejoin="round"
       stroke-width="2"
       d="m 17,60 v -3 c 0,-5 5,-9 10,-9 6,5 12,5 18,0 5,0 10,4 10,9 v 3"
       id="path5" />
    <path
       d="m 41.9,29 c 0,1.1046 -0.8954,2 -2,2 -1.1046,0 -2,-0.8954 -2,-2 0,-1.1046 0.8954,-2 2,-2 1.1032,0.0032 1.9968,0.8968 2,2"
       id="path6" />
    <path
       d="m 33.9,29 c 0,1.1046 -0.8954,2 -2,2 -1.1046,0 -2,-0.8954 -2,-2 0,-1.1046 0.8954,-2 2,-2 1.1032,0.0032 1.9968,0.8968 2,2"
       id="path7" />
    <path
       fill="none"
       stroke="#000000"
       stroke-linejoin="round"
       stroke-width="2"
       d="m 47,31 c 0.0164,-1.7179 -0.3241,-3.4205 -1,-5 -3,-3 -7,-8 -7,-8 -4,3 -7,6 -13,7 0,0 -1.1,1 -1.1,6"
       id="path8" />
    <path
       d="m 39.9,36.5 c 0.2165,0.4972 -0.0061,1.0761 -0.5,1.3 -1.0802,0.5583 -2.2845,0.8336 -3.5,0.8 -1.1781,-0.0154 -2.3386,-0.2885 -3.4,-0.8 -0.4939,-0.2239 -0.7165,-0.8028 -0.5,-1.3 0.1662,-0.4582 0.6724,-0.6948 1.1306,-0.5286 0.0235,0.0086 0.0467,0.0181 0.0694,0.0286 0.1,0 0.1,0 0.1,0.1 1.5809,0.9 3.5191,0.9 5.1,0 0.5269,-0.2862 1.1856,-0.1105 1.5,0.4 z"
       id="path9" />
    <path
       fill="none"
       stroke="#000000"
       stroke-linecap="round"
       stroke-linejoin="round"
       stroke-width="2"
       d="m 24.9,31 c -0.2,3.1 -0.3,6.6 1.2,9.3 0.5866,0.9827 1.2919,1.8896 2.1,2.7 2.0576,1.7465 4.7048,2.6408 7.4,2.5"
       id="path10" />
    <path
       fill="none"
       stroke="#000000"
       stroke-linecap="round"
       stroke-linejoin="round"
       stroke-width="2"
       d="m 47,31 c -0.2804,1.4441 -0.9357,2.7891 -1.9,3.9 0,0 -1.9,3 -2.7,-1.2 -4.2842,-1.2 -8.8158,-1.2 -13.1,0 -0.8,4.2 -2.7,1.2 -2.7,1.2 C 25.8225,33.7141 25.2793,32.3903 25,31"
       id="path11" />
    <path
       fill="none"
       stroke="#000000"
       stroke-linecap="round"
       stroke-linejoin="round"
       stroke-width="2"
       d="m 47,31.4 c 0.3271,3.0586 -0.2281,6.1469 -1.6,8.9 -0.5204,1.0263 -1.2333,1.943 -2.1,2.7 -2.0255,1.8025 -4.6964,2.7048 -7.4,2.5 h -0.3"
       id="path12" />
  </g>
</svg>
