<svg xmlns="http://www.w3.org/2000/svg" xmlns:svg="http://www.w3.org/2000/svg" id="emoji" width="52.364" height="50.283" version="1.1" viewBox="0 0 52.364 50.283"><g id="color" transform="translate(-15.774401,-8.5808)"><path id="path1" fill="#fff" d="m 54.7775,58.5922 c 0,0 2,-13.7973 -10,-13.7973 -3.1919,2.1192 -5.9264,3.5837 -9,3.5775 h 0.125 c -3.0736,0.0062 -5.8082,-1.4583 -9,-3.5775 -12,0 -10,13.7973 -10,13.7973"/><path id="path2" fill="#61b2e4" d="m 26.9025,44.7949 c -12,0 -10,13.9674 -10,13.9674 h 15.8934 c 0,0 -4.4214,-3.2647 -5.8934,-13.9674"/><path id="path3" fill="#61b2e4" d="m 44.7775,44.7949 c 12,0 10,13.9674 10,13.9674 h -15.748 c 0,0 5.4224,-7.4433 5.748,-13.9674"/><path id="path4" fill="#92d3f5" d="m 33.5327,48.2842 c 0,0 -1.2063,6.0214 2.3073,6.0214 3.5135,0 2.3072,-6.0214 2.3072,-6.0214"/><rect id="rect4" width="4" height="10.43" x="59.386" y="38.782" fill="#9b9b9a" transform="matrix(0.7071,-0.7071,0.7071,0.7071,-13.1305,56.2929)"/><circle id="ellipse4" cx="54.662" cy="37.461" r="4" fill="#d0cfce"/><path id="path5" fill="#92d3f5" d="M 34.9896,54.4882 32.5744,58.126 C 28.9446,56.3721 26.9025,45.1638 26.9025,45.1638 l -5.1046,6.9347 2.974,1.842 -0.9985,3.1134 8.8689,1.0721"/><polygon id="polygon5" fill="#92d3f5" points="38.976 58.75 32.665 58.75 34.172 56.706 35.679 54.096 37.469 56.706"/><path id="path6" fill="#92d3f5" d="m 36.6904,54.4882 2.4151,3.6378 c 3.6298,-1.7539 5.672,-12.9622 5.672,-12.9622 l 5.1045,6.9347 -2.974,1.842 0.9985,3.1134 -8.8689,1.0721"/></g><g id="hair" transform="translate(-15.774401,-8.5808)"><path id="path7" fill="#a57939" d="m 26,35.0808 c -4,0 -4,-4.5 -4,-11.5 0,-7 4,-14 14,-14 10,0 14,7 14,14 0,7 0,11.5 -4,11.5"/></g><g id="skin" transform="translate(-15.774401,-8.5808)"><path id="path8" fill="#fcea2b" d="m 24.9365,28.5808 c 0,9 4.9365,14 11,14 5.9365,0 11.0635,-5 11.0635,-14 0.0245,-1.7187 -0.3164,-3.4229 -1,-5 -3,-3 -7,-8 -7,-8 -4,3 -7,6 -13,7.0005 0,-5e-4 -1.0635,0.9987 -1.0635,5.9995 z"/></g><g id="line" transform="translate(-15.774401,-8.5808)"><circle id="ellipse8" cx="54.662" cy="37.461" r="4" fill="none" stroke="#000" stroke-linecap="round" stroke-linejoin="round" stroke-miterlimit="10" stroke-width="2"/><line id="line8" x1="65.091" x2="67.138" y1="47.667" y2="49.714" fill="none" stroke="#000" stroke-linecap="round" stroke-linejoin="round" stroke-miterlimit="10" stroke-width="2"/><line id="line9" x1="58.893" x2="58.893" y1="44.664" y2="57.864" fill="none" stroke="#000" stroke-linecap="round" stroke-linejoin="round" stroke-miterlimit="10" stroke-width="2"/><path id="path9" fill="none" stroke="#000" stroke-linecap="round" stroke-linejoin="round" stroke-miterlimit="10" stroke-width="2" d="m 33.5327,48.0978 c 0,0 -1.2063,6.0215 2.3073,6.0215 3.5135,0 2.3072,-6.0215 2.3072,-6.0215"/><path id="path10" fill="none" stroke="#000" stroke-linecap="round" stroke-linejoin="round" stroke-miterlimit="10" stroke-width="2" d="M 34.9896,54.1193 32.5744,57.757 C 28.9446,56.0032 26.9025,44.7949 26.9025,44.7949 l -5.1046,6.9346 2.974,1.842 -0.9985,3.1134 8.8689,1.0721 z"/><path id="path11" fill="none" stroke="#000" stroke-linecap="round" stroke-linejoin="round" stroke-miterlimit="10" stroke-width="2" d="m 36.6904,54.1193 2.4151,3.6377 c 3.6298,-1.7538 5.672,-12.9621 5.672,-12.9621 l 5.1045,6.9346 -2.974,1.842 0.9985,3.1134 -8.8689,1.0721 z"/><path id="path12" fill="none" stroke="#000" stroke-linecap="round" stroke-linejoin="round" stroke-miterlimit="10" stroke-width="2" d="m 16.9025,57.7949 c 0,0 -2,-13 10,-13 3.1918,2.1279 5.9264,3.5984 9,3.5921 h -0.125 c 3.0736,0.0063 5.8081,-1.4642 9,-3.5921 12,0 10,13 10,13"/><path id="path13" fill="none" stroke="#000" stroke-linecap="round" stroke-linejoin="round" stroke-width="2" d="m 26,35.0808 c -4,0 -4,-4.5 -4,-11.5 0,-7 4,-14 14,-14 10,0 14,7 14,14 0,7 0,11.5 -4,11.5"/><path id="path14" fill="none" stroke="#000" stroke-linejoin="round" stroke-width="2" d="m 24.9365,28.5808 c 0,9 4.9365,14 11,14 5.9365,0 11.0635,-5 11.0635,-14 0.0245,-1.7187 -0.3164,-3.4229 -1,-5 -3,-3 -7,-8 -7,-8 -4,3 -7,6 -13,7.0005 0,-5e-4 -1.0635,0.9987 -1.0635,5.9995 z"/><path id="path15" d="m 33.9529,27.0468 c 0,1.1046 -0.8954,2 -2,2 -1.1046,0 -2,-0.8954 -2,-2 0,-1.1046 0.8954,-2 2,-2 1.1044,4e-4 1.9996,0.8956 2,2"/><path id="path16" d="m 35.9527,37.0492 c -1.2005,-0.0116 -2.3813,-0.3055 -3.4472,-0.8579 -0.494,-0.247 -0.6943,-0.8477 -0.4473,-1.3418 0.247,-0.4941 0.8477,-0.6943 1.3418,-0.4473 1.5934,0.8593 3.5121,0.8593 5.1055,0 0.494,-0.247 1.0947,-0.0468 1.3418,0.4473 0.2471,0.4941 0.0468,1.0947 -0.4473,1.3418 -1.0659,0.5524 -2.2468,0.8463 -3.4473,0.8579 z"/><path id="path17" d="m 41.9529,27.0468 c 0,1.1046 -0.8954,2 -2,2 -1.1046,0 -2,-0.8954 -2,-2 0,-1.1046 0.8954,-2 2,-2 1.1044,4e-4 1.9996,0.8956 2,2"/><rect id="rect17" width="4" height="10.43" x="59.386" y="38.782" fill="none" stroke="#000" stroke-linecap="round" stroke-linejoin="round" stroke-miterlimit="10" stroke-width="2" transform="matrix(0.7071,-0.7071,0.7071,0.7071,-13.1305,56.2929)"/></g></svg>