<?xml version="1.0" encoding="UTF-8" standalone="no"?>
<svg
   id="emoji"
   viewBox="0 0 58.906601 57.947987"
   version="1.1"
   sodipodi:docname="1f9dc-1f3fc.svg"
   width="58.906601"
   height="57.947987"
   xmlns:inkscape="http://www.inkscape.org/namespaces/inkscape"
   xmlns:sodipodi="http://sodipodi.sourceforge.net/DTD/sodipodi-0.dtd"
   xmlns="http://www.w3.org/2000/svg"
   xmlns:svg="http://www.w3.org/2000/svg">
  <defs
     id="defs26" />
  <sodipodi:namedview
     id="namedview26"
     pagecolor="#ffffff"
     bordercolor="#000000"
     borderopacity="0.25"
     inkscape:showpageshadow="2"
     inkscape:pageopacity="0.0"
     inkscape:pagecheckerboard="0"
     inkscape:deskcolor="#d1d1d1" />
  <g
     id="color"
     transform="translate(-7.9634,-6.4579107)">
    <path
       fill="#5c9e31"
       d="m 33.9813,59.6181 10.4571,-8.456 8.0469,3.77 c 0,0 -8.8184,11.1636 -18.504,4.686 z"
       id="path1" />
    <path
       fill="#b1cc33"
       d="m 26.9458,51.872 a 3.3642,3.3642 0 0 0 2.6313,-2.9073 c 0.4863,-2.61 3.8554,2.7655 4.9433,-1.6475 0,0 6.9443,1.4931 6.043,-2.1972 l 4.1066,5.1758 c 0,0 -1.6572,4.1552 -5.8935,3.1132 0,0 1.43,5.9 -3.4453,4.23 0,0 0.6464,1.8926 -3.5469,0.1288 z"
       id="path2" />
    <path
       fill="none"
       stroke="#b1cc33"
       stroke-miterlimit="10"
       stroke-width="2"
       d="m 38.7606,53.16 a 3.01,3.01 0 0 1 -4.747,3.6084"
       id="path3" />
    <path
       fill="none"
       stroke="#b1cc33"
       stroke-miterlimit="10"
       stroke-width="2"
       d="m 43.5126,49.5507 a 3.013,3.013 0 0 1 -4.752,3.6094"
       id="path4" />
    <path
       fill="none"
       stroke="#5c9e31"
       stroke-miterlimit="10"
       stroke-width="2"
       d="m 30.2226,49.4366 c 0.4033,1.373 0.0986,2.6924 -1.3877,3.1288 -1.4208,0.4182 -1.6247,-1.0567 -2.1006,-2.4092"
       id="path5" />
    <path
       fill="none"
       stroke="#5c9e31"
       stroke-miterlimit="10"
       stroke-width="2"
       d="m 35.6083,47.8505 a 2.8159,2.8159 0 0 1 -5.3857,1.586"
       id="path6" />
    <path
       fill="none"
       stroke="#5c9e31"
       stroke-miterlimit="10"
       stroke-width="2"
       d="m 40.9958,46.2627 a 2.8173,2.8173 0 0 1 -5.3877,1.5878"
       id="path7" />
    <path
       fill="#5c9e31"
       d="m 23.7708,42.6844 c 0,0 0.1152,2.5156 1.6465,0.3467 1.5332,-2.169 5.8418,3.3535 8.6748,-0.2032 0,0 4.77,2.3125 5.4932,-1.416 l 1.9658,5.0586 c 0,0 -2.3418,4.4248 -5.7529,1.7061 0,0 -1.6192,4.7138 -5.35,1.1572 0,0 -0.3271,5.0762 -4.664,1.1436 z"
       id="path8" />
    <path
       fill="#b1cc33"
       d="m 59.35,44.06 c 2.0088,0.9151 -3.1621,9.8683 -5.707,9.252 -2.5449,-0.6163 4.0092,-10.022 5.707,-9.252 z"
       id="path9" />
    <path
       fill="#b1cc33"
       d="m 53.8563,54.0908 c -1.1386,-2.3561 10.2895,-3.2656 10.7706,-1.4667 0.5712,2.1357 -9.6309,3.8242 -10.7706,1.4668"
       id="path10" />
  </g>
  <g
     id="skin"
     transform="translate(-7.9634,-6.4579107)">
    <path
       fill="#debb90"
       d="m 24.6616,30.4525 c 0,0 -5.3071,7.4758 -9.9653,6.8441 l -0.1582,-2.9991 c 0,0 3.8691,-0.08 9.8711,-8.292 l 12.3965,-0.6323 c 0,0 3.6318,1.3433 4.8964,6.6333 0.781,3.2721 1.3691,5.9449 2.1778,7.28 a 4.2977,4.2977 0 0 1 0.5628,1.485 c -0.0774,1.5863 -3.5015,2.128 -4.1537,-0.4342 -1.8155,-2.3711 -1.5272,2.6116 -1.5272,2.6116 l -14.589,0.4519"
       id="path11" />
    <path
       fill="#debb90"
       d="m 36.3124,16.5014 a 4.7677,4.7677 0 1 1 0,-6e-4 z"
       id="path12" />
  </g>
  <g
     id="hair"
     transform="translate(-7.9634,-6.4579107)">
    <path
       fill="#fcea2b"
       d="m 27.8164,18.3751 -0.4311,-3.6251 6.55,-2.382 1.9277,5.6207 c -2.3358,2.3062 1.1344,4.8271 2.9425,2.6781 l 0.3722,-1.7357 C 39.5428,17.5652 39.191,11.818 37.4317,8.8858 37.0548,8.2577 30.1353,6.9427 26.2894,9.0743 c -3.263,1.8085 -3.046,9.9422 -2.4177,10.6962 1.5514,2.3381 5.0695,0.7107 3.9447,-1.3954 z"
       id="path13" />
  </g>
  <g
     id="line"
     transform="translate(-7.9634,-6.4579107)">
    <path
       fill="none"
       stroke="#000000"
       stroke-linecap="round"
       stroke-miterlimit="10"
       stroke-width="2"
       d="m 33.16,12.0137 a 4.6631,4.6631 0 1 1 -6.1231,3.0382"
       id="path14" />
    <path
       fill="none"
       stroke="#000000"
       stroke-linecap="round"
       stroke-linejoin="round"
       stroke-width="2"
       d="m 33.1013,11.9935 c -1.5565,-0.0258 -2.5552,2.905 -6.0126,2.958"
       id="path15" />
    <path
       fill="none"
       stroke="#000000"
       stroke-linecap="round"
       stroke-miterlimit="10"
       stroke-width="2"
       d="m 38.0241,20.05 a 10.9487,10.9487 0 0 0 1.1913,-5.3027 C 38.71,7.338 32.5428,7.478 31.4994,7.46 31.3805,7.4892 23.8394,7.2979 23.8213,14.7453 A 10.245,10.245 0 0 0 24.8,19.3569"
       id="path16" />
    <path
       fill="none"
       stroke="#000000"
       stroke-linecap="round"
       stroke-miterlimit="10"
       stroke-width="2"
       d="m 15.2437,34.402 c 7.3261,-2.5693 6.3125,-8.9961 10.8828,-8.9961 h 9.9707 c 4.5713,0 5.7744,7.5483 7.4062,15.2461"
       id="path17" />
    <path
       fill="none"
       stroke="#000000"
       stroke-linecap="round"
       stroke-miterlimit="10"
       stroke-width="2"
       d="m 24.7456,31.193 -0.3877,9.867 a 21.666,21.666 0 0 0 9.5635,17.8047 c 0,0 7.6973,6.6094 19.4375,-5.5029"
       id="path18" />
    <line
       x1="39.48"
       x2="37.214401"
       y1="40.494801"
       y2="31.193001"
       fill="none"
       stroke="#000000"
       stroke-linecap="round"
       stroke-miterlimit="10"
       stroke-width="2"
       id="line18" />
    <path
       fill="none"
       stroke="#000000"
       stroke-linecap="round"
       stroke-miterlimit="10"
       stroke-width="2"
       d="M 53.2424,53.4987 C 42.5129,54.5487 39.48,40.4381 39.48,40.4381"
       id="path19" />
    <line
       x1="14.9624"
       x2="14.9624"
       y1="63.405899"
       y2="11.4059"
       fill="none"
       stroke="#000000"
       stroke-linecap="round"
       stroke-linejoin="round"
       stroke-width="2"
       id="line19" />
    <path
       fill="none"
       stroke="#000000"
       stroke-linecap="round"
       stroke-miterlimit="10"
       stroke-width="2"
       d="m 8.9634,16.4113 c 0,3.8 2.6279,6.8818 5.87,6.8818 3.2421,0 5.87,-3.0815 5.87,-6.8818 l -0.2656,-4.8907"
       id="path20" />
    <path
       fill="none"
       stroke="#000000"
       stroke-linecap="round"
       stroke-miterlimit="10"
       stroke-width="2"
       d="m 20.7036,16.4113 c 0,3.8 -2.6279,6.8818 -5.87,6.8818 -3.2421,0 -5.87,-3.0815 -5.87,-6.8818 l 0.2646,-4.8907"
       id="path21" />
    <path
       fill="none"
       stroke="#000000"
       stroke-linecap="round"
       stroke-miterlimit="10"
       stroke-width="2"
       d="m 53.437,53.2282 c 0,0 -0.8555,-7.0772 6.1426,-9.6045"
       id="path22" />
    <path
       fill="none"
       stroke="#000000"
       stroke-linecap="round"
       stroke-miterlimit="10"
       stroke-width="2"
       d="m 59.5454,43.6227 c 0,0 0.8574,7.0762 -6.1406,9.6045"
       id="path23" />
    <path
       fill="none"
       stroke="#000000"
       stroke-linecap="round"
       stroke-miterlimit="10"
       stroke-width="2"
       d="m 54.6,53.9625 c 0,0 4.7549,-5.3115 11.27,-1.7168"
       id="path24" />
    <path
       fill="none"
       stroke="#000000"
       stroke-linecap="round"
       stroke-miterlimit="10"
       stroke-width="2"
       d="m 65.8472,52.22 c 0,0 -4.753,5.31 -11.27,1.7158"
       id="path25" />
    <path
       fill="none"
       stroke="#000000"
       stroke-linecap="round"
       stroke-miterlimit="10"
       stroke-width="2"
       d="m 39.54,40.903 c 0,1.4443 -4.0068,2.624 -8.5947,2.624 -4.5918,0 -6.5859,-1.0635 -6.5859,-2.5078"
       id="path26" />
  </g>
</svg>
