<svg xmlns="http://www.w3.org/2000/svg" xmlns:svg="http://www.w3.org/2000/svg" id="emoji" width="58.907" height="54" version="1.1" viewBox="0 0 58.907 54"><g id="color" transform="translate(-7.9566,-10.363)"><path id="path1" fill="#61b2e4" d="m 33.8921,59.4666 10.4571,-8.4561 8.0469,3.77 c 0,0 -8.8184,11.1637 -18.504,4.6861 z"/><path id="path2" fill="#92d3f5" d="m 26.8566,51.72 a 3.3641,3.3641 0 0 0 2.6313,-2.9073 c 0.4863,-2.61 3.8554,2.7655 4.9433,-1.6475 0,0 6.9443,1.4932 6.043,-2.1972 l 4.1064,5.1758 c 0,0 -1.6572,4.1552 -5.8935,3.1132 0,0 1.43,5.9 -3.4453,4.23 0,0 0.6464,1.8926 -3.5469,0.1289 z"/><path id="path3" fill="none" stroke="#92d3f5" stroke-linecap="round" stroke-miterlimit="10" stroke-width="2" d="m 38.6714,53.0086 a 3.01,3.01 0 0 1 -4.747,3.6083"/><path id="path4" fill="none" stroke="#92d3f5" stroke-linecap="round" stroke-miterlimit="10" stroke-width="2" d="m 43.4234,49.3991 a 3.013,3.013 0 0 1 -4.752,3.61"/><path id="path5" fill="none" stroke="#61b2e4" stroke-linecap="round" stroke-miterlimit="10" stroke-width="2" d="m 30.1518,49.285 c 0.3577,1.373 0.0874,2.6924 -1.231,3.1289 -1.32,0.4394 -1.5046,-1.0342 -1.8633,-2.4092"/><path id="path6" fill="none" stroke="#61b2e4" stroke-linecap="round" stroke-miterlimit="10" stroke-width="2" d="m 35.5191,47.6989 a 2.8159,2.8159 0 0 1 -5.3857,1.586"/><path id="path7" fill="none" stroke="#61b2e4" stroke-linecap="round" stroke-miterlimit="10" stroke-width="2" d="m 40.9066,46.1111 a 2.8173,2.8173 0 0 1 -5.3877,1.5878"/><path id="path8" fill="#61b2e4" d="m 23.648,42.7137 c 0,0 0.1152,2.5156 1.6465,0.3467 1.5332,-2.169 5.8418,3.3535 8.6748,-0.2033 0,0 4.7705,2.3125 5.4932,-1.416 L 41.4283,46.5 c 0,0 -2.3418,4.4248 -5.7529,1.7061 0,0 -1.6192,4.7137 -5.35,1.1572 0,0 -0.3271,5.0761 -4.664,1.1436 z"/><path id="path9" fill="#92d3f5" d="m 59.26,43.9079 c 2.0088,0.9151 -3.1621,9.8683 -5.707,9.252 -2.5449,-0.6163 4.01,-10.0215 5.707,-9.252 z"/><path id="path10" fill="#92d3f5" d="m 53.7671,53.9392 c -1.1386,-2.3561 10.29,-3.2656 10.7706,-1.4667 0.5712,2.1357 -9.6309,3.8242 -10.7706,1.4668"/></g><g id="skin" transform="translate(-7.9566,-10.363)"><path id="path11" fill="#a57939" d="m 36.3446,16.6341 a 4.7677,4.7677 0 1 1 0,-6e-4 z"/><path id="path12" fill="#a57939" d="m 24.7177,30.2908 c 0,0 -5.3072,7.4758 -9.9654,6.8441 l -0.1582,-2.9991 c 0,0 3.8691,-0.08 9.8711,-8.292 l 12.3965,-0.6323 c 0,0 3.6318,1.3433 4.8964,6.6333 0.7811,3.2721 1.3692,5.9449 2.1778,7.28 a 4.2952,4.2952 0 0 1 0.5628,1.485 c -0.0774,1.5863 -3.5014,2.128 -4.1537,-0.4342 -1.8155,-2.3711 -1.5271,2.6117 -1.5271,2.6117 l -14.5891,0.4518"/></g><g id="line" transform="translate(-7.9566,-10.363)"><path id="path13" fill="none" stroke="#000" stroke-linecap="round" stroke-miterlimit="10" stroke-width="2" d="M 15.2369,34.3591 C 22.563,31.79 21.5494,25.363 26.12,25.363 h 9.97 c 4.5713,0 5.7744,7.5483 7.4062,15.2461"/><path id="path14" fill="none" stroke="#000" stroke-linecap="round" stroke-miterlimit="10" stroke-width="2" d="m 24.7388,31.15 -0.3877,9.8672 a 21.6657,21.6657 0 0 0 9.5635,17.8048 c 0,0 7.6973,6.6094 19.4375,-5.5029"/><line id="line14" x1="39.473" x2="37.208" y1="40.452" y2="31.15" fill="none" stroke="#000" stroke-linecap="round" stroke-miterlimit="10" stroke-width="2"/><path id="path15" fill="none" stroke="#000" stroke-linecap="round" stroke-miterlimit="10" stroke-width="2" d="M 53.2356,53.4558 C 42.5061,54.5058 39.4729,40.3952 39.4729,40.3952"/><line id="line15" x1="14.956" x2="14.956" y1="63.363" y2="11.363" fill="none" stroke="#000" stroke-linecap="round" stroke-linejoin="round" stroke-width="2"/><path id="path16" fill="none" stroke="#000" stroke-linecap="round" stroke-miterlimit="10" stroke-width="2" d="m 8.9566,16.3684 c 0,3.8 2.6279,6.8818 5.87,6.8818 3.2421,0 5.87,-3.0815 5.87,-6.8818 L 20.431,11.4777"/><path id="path17" fill="none" stroke="#000" stroke-linecap="round" stroke-miterlimit="10" stroke-width="2" d="m 20.6968,16.3684 c 0,3.8 -2.6279,6.8818 -5.87,6.8818 -3.2421,0 -5.87,-3.0815 -5.87,-6.8818 l 0.2646,-4.8907"/><path id="path18" fill="none" stroke="#000" stroke-linecap="round" stroke-miterlimit="10" stroke-width="2" d="m 53.43,53.1853 c 0,0 -0.8555,-7.0772 6.1426,-9.6045"/><path id="path19" fill="none" stroke="#000" stroke-linecap="round" stroke-miterlimit="10" stroke-width="2" d="m 59.5386,43.58 c 0,0 0.8574,7.0762 -6.1406,9.6045"/><path id="path20" fill="none" stroke="#000" stroke-linecap="round" stroke-miterlimit="10" stroke-width="2" d="m 54.5933,53.92 c 0,0 4.7549,-5.3115 11.27,-1.7168"/><path id="path21" fill="none" stroke="#000" stroke-linecap="round" stroke-miterlimit="10" stroke-width="2" d="m 65.84,52.1775 c 0,0 -4.753,5.31 -11.27,1.7158"/><path id="path22" fill="none" stroke="#000" stroke-linecap="round" stroke-miterlimit="10" stroke-width="2" d="m 39.5327,40.86 c 0,1.4443 -4.0068,2.624 -8.5947,2.624 -4.5918,0 -6.5859,-1.0635 -6.5859,-2.5078"/><path id="path23" fill="none" stroke="#000" stroke-miterlimit="10" stroke-width="2" d="m 36.1942,16.6437 a 4.6655,4.6655 0 1 1 -4.6659,-4.6651 h 9e-4 a 4.6657,4.6657 0 0 1 4.665,4.6651 z"/></g></svg>