<?xml version="1.0" encoding="UTF-8" standalone="no"?>
<svg
   id="emoji"
   viewBox="0 0 61.745434 51.8825"
   version="1.1"
   sodipodi:docname="1f9da-1f3ff-200d-2642-fe0f.svg"
   width="61.745434"
   height="51.8825"
   xmlns:inkscape="http://www.inkscape.org/namespaces/inkscape"
   xmlns:sodipodi="http://sodipodi.sourceforge.net/DTD/sodipodi-0.dtd"
   xmlns="http://www.w3.org/2000/svg"
   xmlns:svg="http://www.w3.org/2000/svg">
  <defs
     id="defs17" />
  <sodipodi:namedview
     id="namedview17"
     pagecolor="#ffffff"
     bordercolor="#000000"
     borderopacity="0.25"
     inkscape:showpageshadow="2"
     inkscape:pageopacity="0.0"
     inkscape:pagecheckerboard="0"
     inkscape:deskcolor="#d1d1d1" />
  <g
     id="hair"
     transform="translate(-6.9272457,-11)">
    <path
       fill="#000000"
       d="m 26,38 c -3,0 -4,-7 -4,-14 0,-6 5,-12 14,-12 9,0 14,6 14,12 0,7 -1,14 -4,14"
       id="path1" />
  </g>
  <g
     id="skin"
     transform="translate(-6.9272457,-11)">
    <path
       fill="#6a462f"
       d="M 24.9,30.4167 C 24.8,38.75 29,45 35.9,45 43,45 47,38.75 47,30.4167 47,25.2083 44,20 44,20 c -8,0 -10,3.125 -16,1.0417 0,0 -3,4.1666 -3.1,9.375 z"
       id="path2" />
    <path
       fill="#6a462f"
       d="m 17,61 v -4 c 0,-4.9941 5.0078,-9 10,-9 6,5 12,5 18,0 4.9941,0 10,4.0059 10,9 v 4"
       id="path3" />
  </g>
  <g
     id="color"
     transform="translate(-6.9272457,-11)">
    <path
       fill="#b1cc33"
       d="m 64.2206,31.343 c -0.28,1.27 0.3061,2.9919 -0.1539,5.4719 -0.46,2.52 -0.6695,4.4305 -1.0495,7.7605 -0.67,6.01 -1.0319,6.9518 -1.0219,7.9518 -0.042,1.0297 -1.5076,5.1479 -1.7648,6.1458 -0.0487,0.1797 -0.1157,0.354 -0.2,0.52 -0.0507,0.0841 -0.1075,0.1643 -0.17,0.24 -0.681,0.6066 -1.4292,1.1334 -2.23,1.57 L 55,61 v -3.8327 c 0,-4.99 -4.9294,-9.0043 -9.9294,-9.0043 -2.1181,1.9044 -4.7324,3.1699 -7.54,3.65 0.9864,-2.6874 2.5225,-5.1396 4.51,-7.2 1.35,-1.35 6.54,-4.33 16.87,-10.25 2.2199,-1.27 4.06,-2.32 5.31,-3.02 z"
       id="path4" />
    <path
       fill="#b1cc33"
       d="m 34.6206,51.8131 c -2.8121,-0.4755 -5.4307,-1.7415 -7.55,-3.65 -4.99,0 -10,4.01 -10,9 v 3.84 h -2.55 c -0.805,-0.4348 -1.5567,-0.9617 -2.24,-1.57 -0.0574,-0.0772 -0.1108,-0.1573 -0.16,-0.24 -0.0937,-0.1617 -0.1612,-0.3372 -0.2,-0.52 -0.2626,-0.9972 -0.4168,-2.0197 -0.46,-3.05 0.02,-1 -0.38,-4 -1.05,-10.01 -0.37,-3.33 -0.85,-5.98 -1.32,-8.5 -0.46,-2.48 -0.88,-4.5 -1.16,-5.77 1.24,0.7 3.08,1.75 5.3,3.02 10.33,5.92 15.52,8.9 16.87,10.25 1.891,1.96 3.3761,4.2743 4.37,6.81 z"
       id="path5" />
    <polygon
       fill="#fcea2b"
       points="55.5748,46.218 58.3798,43.045 57.3558,38.935 61.2408,40.622 64.8328,38.378 64.4288,42.594 67.6728,45.317 63.5388,46.236 61.9508,50.163 59.7998,46.514 "
       id="polygon5" />
    <path
       fill="#a57939"
       d="m 24.7,61 c 0.1979,-1.9479 0.3825,-5.3371 0.3971,-6.6899 0.0484,-4.4969 -0.7975,-5.8392 -0.7975,-5.8392 0.904,-0.2618 1.8406,-0.4026 2.7767,-0.4026 6,5 12,5 18,0 0.8579,0.0117 1.7011,0.1266 2.5139,0.3363 l 6e-4,2e-4 c 0,0 -0.7422,1.4085 -0.6938,5.9054 0.0146,1.3528 0.1992,4.742 0.3971,6.6899"
       id="path6" />
  </g>
  <g
     id="line"
     transform="translate(-6.9272457,-11)">
    <path
       fill="none"
       stroke="#000000"
       stroke-linecap="round"
       stroke-linejoin="round"
       stroke-width="2"
       d="m 26,38 c -3,0 -4,-7 -4,-14 0,-6 5,-12 14,-12 9,0 14,6 14,12 0,7 -1,14 -4,14"
       id="path7" />
    <path
       fill="none"
       stroke="#000000"
       stroke-linejoin="round"
       stroke-width="2"
       d="m 24.9,31 c -0.1,8 4.9,14 11,14 6,0 11.1,-6 11.1,-14 0,-5 -3,-11 -3,-11 -8,0 -10,3 -16,1 0,0 -3,5 -3.1,10 z"
       id="path8" />
    <path
       fill="none"
       stroke="#000000"
       stroke-linecap="round"
       stroke-linejoin="round"
       stroke-width="2"
       d="m 37.7929,51.4488 c 1.0309,-2.496 2.4667,-4.8047 4.2495,-6.8331 1.983,-2.2291 2.9034,-2.25 16.8669,-10.2481 2.2246,-1.2743 4.0655,-2.3206 5.3082,-3.0253 -0.2364,1.0767 -0.5789,2.685 -0.9563,4.6577"
       id="path9" />
    <path
       fill="none"
       stroke="#000000"
       stroke-linecap="round"
       stroke-linejoin="round"
       stroke-width="2"
       d="m 59.1293,58.7552 c 0.0972,-0.1878 0.7619,-1.5115 0.9072,-1.88 0.4825,-1.1863 0.8064,-2.4301 0.9641,-3.6992"
       id="path10" />
    <path
       fill="none"
       stroke="#000000"
       stroke-linecap="round"
       stroke-linejoin="round"
       stroke-width="2"
       d="m 13.0155,58.7552 c -0.0973,-0.1878 -0.7619,-1.5115 -0.9072,-1.88 -1.5871,-4.025 -0.647,-6.9374 -3.0149,-19.7594 -0.4587,-2.4838 -0.8866,-4.5 -1.1662,-5.7736 1.2428,0.7047 3.0837,1.751 5.3083,3.0253 13.9634,7.998 14.8839,8.019 16.8668,10.2481 1.7273,1.9632 3.1284,4.1908 4.15,6.5979"
       id="path11" />
    <line
       x1="59.434101"
       x2="51.005199"
       y1="47.742001"
       y2="61.8825"
       fill="none"
       stroke="#000000"
       stroke-linecap="round"
       stroke-linejoin="round"
       stroke-width="2"
       id="line11" />
    <polygon
       fill="none"
       stroke="#000000"
       stroke-linecap="round"
       stroke-linejoin="round"
       stroke-width="2"
       points="55.5748,46.218 58.3798,43.045 57.3558,38.935 61.2408,40.622 64.8328,38.378 64.4288,42.594 67.6728,45.317 63.5388,46.236 61.9508,50.163 59.7998,46.514 "
       id="polygon11" />
    <path
       fill="none"
       stroke="#000000"
       stroke-linecap="round"
       stroke-linejoin="round"
       stroke-width="2"
       d="m 17.0763,60.0683 v -3 c 0,-4.9941 5.0078,-9 10,-9 6,5 12,5 18,0 3.1629,0.0432 6.1254,1.4887 8.1051,3.915"
       id="path12" />
    <path
       fill="none"
       stroke="#000000"
       stroke-linecap="round"
       stroke-linejoin="round"
       stroke-width="2"
       d="m 24.41,48.6432 c 0,0 0.7355,1.17 0.6871,5.6669 C 25.0825,55.6629 24.8979,58.0521 24.7,60"
       id="path13" />
    <path
       fill="none"
       stroke="#000000"
       stroke-linecap="round"
       stroke-linejoin="round"
       stroke-width="2"
       d="m 47.5908,48.4047 c 0,0 -0.7422,1.4085 -0.6938,5.9054 0.0146,1.3528 0.1992,3.742 0.3971,5.6899"
       id="path14" />
    <path
       d="m 42.0003,29.9424 c 0,1.1046 -0.8954,2 -2,2 -1.1046,0 -2,-0.8954 -2,-2 0,-1.1046 0.8954,-2 2,-2 1.1046,0 2,0.8954 2,2"
       id="path15" />
    <path
       d="m 34.0003,29.9424 c 0,1.1046 -0.8954,2 -2,2 -1.1046,0 -2,-0.8954 -2,-2 0,-1.1046 0.8954,-2 2,-2 1.1046,0 2,0.8954 2,2"
       id="path16" />
    <path
       fill="none"
       stroke="#000000"
       stroke-linecap="round"
       stroke-linejoin="round"
       stroke-width="2"
       d="m 33.0003,38.1924 c 1.875,1 4.125,1 6,0"
       id="path17" />
  </g>
</svg>
