<svg xmlns="http://www.w3.org/2000/svg" xmlns:svg="http://www.w3.org/2000/svg" id="emoji" width="43.743" height="53.896" version="1.1" viewBox="0 0 43.743 53.896"><g id="color" transform="translate(-13.765401,-7.5451999)"><circle id="circle1" cx="46.065" cy="55.441" r="5" fill="#d0cfce"/><circle id="circle2" cx="19.765" cy="55.441" r="5" fill="#d0cfce"/><path id="path2" fill="#ea5a47" d="m 40.5647,41.7408 c -6.2,2.2 -6.9,9.6 -6.9,9.6 l -6.9021,0.0206 1.1021,4.8794 8.6,0.1 v 0 a 9.9,9.9 0 0 1 19.8,0 25.5081,25.5081 0 0 0 -2.8,-15.6"/><path id="path3" fill="#a57939" d="m 50.3648,38.4408 a 4.5375,4.5375 0 0 1 -1,0.1 h -13.3 a 1.0021,1.0021 0 0 0 -1,1 v 1.2 a 1.0754,1.0754 0 0 0 1,1 h 16.4 a 1.0754,1.0754 0 0 0 1,-1 v -16.5 a 1.0021,1.0021 0 0 0 -1,-1 h -1.2 c -0.5,0 -0.4192,0.4315 -0.4192,1.0315 l -0.5808,13.0685 a 7.4642,7.4642 0 0 1 0.1,1.1 z"/></g><g id="skin" transform="translate(-13.765401,-7.5451999)"><circle id="circle3" cx="47.529" cy="11.241" r="2.599" fill="#6a462f"/><path id="path4" fill="#6a462f" d="m 35.0155,33.9542 5.8363,-0.3724 0.0356,-0.0343 1.1978,-8.6156 0.6513,-4.3151 a 3.9744,3.9744 0 0 1 3.9785,-3.2913 v 0 a 3.7838,3.7838 0 0 1 3.5809,3.6439 L 49.94,36.2957 a 2.5073,2.5073 0 0 1 -2.5066,2.4491 h -4.522 l -8.2679,0.0258 -7.7528,10.4019 c -0.3652,0.5478 -1.2438,0.2714 -1.452,-0.3532 A 5.0532,5.0532 0 0 1 25.91,46.7 l 4.2951,-9.5055 a 4.365,4.365 0 0 1 2.0179,-2.3 v 0 a 6.7132,6.7132 0 0 1 2.7925,-0.9403 z"/></g><g id="line" transform="translate(-13.765401,-7.5451999)"><circle id="circle4" cx="47.337" cy="11.145" r="2.599" fill="none" stroke="#000" stroke-miterlimit="10" stroke-width="2"/><path id="path5" fill="none" stroke="#000" stroke-linecap="round" stroke-linejoin="round" stroke-width="2" d="m 35.4329,33.7536 5.8364,-0.3724 0.0355,-0.0344 1.1978,-8.6155 0.6513,-4.3151 a 3.9744,3.9744 0 0 1 3.9785,-3.2913 v 0 a 3.7838,3.7838 0 0 1 3.5809,3.6439 L 50.357,36.0951 a 2.5073,2.5073 0 0 1 -2.507,2.4491 h -4.5212 l -8.2679,0.0258 -7.974,10.5633 c -0.3652,0.5478 -1.283,0.6246 -1.4912,0 a 4.2411,4.2411 0 0 1 0.3532,-2.0406 l 4.6732,-10.0985 a 4.3656,4.3656 0 0 1 2.0179,-2.3 v 0 a 6.715,6.715 0 0 1 2.7929,-0.9406 z"/><polyline id="polyline5" fill="none" stroke="#000" stroke-linecap="round" stroke-linejoin="round" stroke-width="2" points="47.409 20.737 43.218 28.194 33.794 26.495"/><path id="path6" fill="none" stroke="#000" stroke-linecap="round" stroke-linejoin="round" stroke-width="2" d="m 26.5647,51.3408 a 8.8792,8.8792 0 0 1 1.3,4.9 l 8.6,0.1 v 0 a 9.9,9.9 0 0 1 19.8,0 25.5081,25.5081 0 0 0 -2.8,-15.6"/><path id="path7" fill="none" stroke="#000" stroke-linecap="round" stroke-linejoin="round" stroke-width="2" d="m 40.5647,41.7408 c -6.2,2.2 -6.9,9.6 -6.9,9.6 h -3.2"/><path id="path8" fill="none" stroke="#000" stroke-linecap="round" stroke-linejoin="round" stroke-width="2" d="m 50.3648,38.4408 a 4.5375,4.5375 0 0 1 -1,0.1 h -13.3 a 1.0021,1.0021 0 0 0 -1,1 v 1.2 a 1.0754,1.0754 0 0 0 1,1 h 16.4 a 1.0754,1.0754 0 0 0 1,-1 v -16.5 a 1.0021,1.0021 0 0 0 -1,-1 h -1.2 c -0.5,0 -0.4192,0.4315 -0.4192,1.0315 l -0.5808,13.0685 a 7.4642,7.4642 0 0 1 0.1,1.1 z"/><circle id="circle8" cx="19.765" cy="55.44" r="5" fill="none" stroke="#000" stroke-miterlimit="10" stroke-width="2"/><circle id="circle9" cx="46.065" cy="55.441" r="5" fill="none" stroke="#000" stroke-miterlimit="10" stroke-width="2"/><path id="path9" fill="none" stroke="#000" stroke-linecap="round" stroke-linejoin="round" stroke-width="2" d="m 27.9647,56.3408 a 6.602,6.602 0 0 0 -0.1,-1.4 9.9842,9.9842 0 0 0 -2.8,-5.6 6.8638,6.8638 0 0 0 -6.5391,-2.1518"/><polyline id="polyline9" fill="none" stroke="#000" stroke-linecap="round" stroke-linejoin="round" stroke-width="2" points="22.108 46.682 29.508 29.182 32.508 29.182 34.808 29.282"/><line id="line9" x1="32.508" x2="32.508" y1="27.582" y2="29.182" fill="none" stroke="#000" stroke-linecap="round" stroke-linejoin="round" stroke-width="2"/></g></svg>