<?xml version="1.0" encoding="UTF-8" standalone="no"?>
<svg
   id="emoji"
   viewBox="0 0 51.989403 49.737801"
   version="1.1"
   sodipodi:docname="1f9d1-1f3fe-200d-1f3ed.svg"
   width="51.989403"
   height="49.737801"
   xmlns:inkscape="http://www.inkscape.org/namespaces/inkscape"
   xmlns:sodipodi="http://sodipodi.sourceforge.net/DTD/sodipodi-0.dtd"
   xmlns="http://www.w3.org/2000/svg"
   xmlns:svg="http://www.w3.org/2000/svg">
  <defs
     id="defs26" />
  <sodipodi:namedview
     id="namedview26"
     pagecolor="#ffffff"
     bordercolor="#000000"
     borderopacity="0.25"
     inkscape:showpageshadow="2"
     inkscape:pageopacity="0.0"
     inkscape:pagecheckerboard="0"
     inkscape:deskcolor="#d1d1d1" />
  <g
     id="color"
     transform="translate(-15.69702,-9.7261)">
    <path
       fill="#9b9b9a"
       d="m 35.5735,10.7259 c 0.0293,8e-4 0.0557,0.0033 0.0845,0.0041 0.0293,-8e-4 0.0554,-0.0033 0.0845,-0.0041 z"
       id="path1" />
    <path
       fill="#9b9b9a"
       d="m 35.658,10.73 c -12.6145,0.3537 -10.76,9.6192 -10.76,9.6192 6.4833,-3.498 18.0292,-2.5454 21.5203,0 0,0 1.8545,-9.2655 -10.7603,-9.6192 z"
       id="path2" />
    <path
       fill="#d0cfce"
       d="m 16.825,58.8833 c 0,0 -2,-13.6701 10,-13.6701 3.1919,2.1279 5.9264,3.5984 9,3.5922 H 35.7 c 3.0736,0.0062 4.7081,-2.1643 7.9,-4.2922 5.715,0 9.042,1.9359 10.5843,4.3867 2.0157,4.2358 0.6039,9.9834 0.6039,9.9834"
       id="path3" />
    <path
       fill="#e27022"
       d="m 58.8271,33.29 c 4.5773,3.7761 7.8593,-1.1008 7.8593,-1.1008 0,0 -3.238,-4.9716 -7.7812,-1.5403"
       id="path4" />
    <polyline
       fill="#92d3f5"
       points="31.8851,11.1748 31.8851,14.262 39.1489,14.262 39.1489,11.1748"
       id="polyline4" />
    <line
       x1="57.9505"
       x2="58.3321"
       y1="29.1036"
       y2="35.230099"
       fill="none"
       id="line4" />
    <path
       fill="#61b2e4"
       d="M 50.7166,46.0662 V 58.8833 H 21.5135 V 45.8111 l -0.0033,-0.0058 c 1.3944,-0.797 3.203,-1.2921 5.5449,-1.2921 v 9.2652 h 17.8378 v -9.2085 l 7e-4,-0.055 c 2.3927,0.0347 4.4908,0.5958 5.8761,1.467"
       id="path5" />
    <rect
       x="39.6894"
       y="48.2318"
       width="15.9782"
       height="4"
       transform="matrix(0.2706,-0.9627,0.9627,0.2706,-13.5809,82.5389)"
       fill="#3f3f3f"
       id="rect5" />
    <path
       fill="#fcea2b"
       d="m 58.4145,32.71 c 2.1562,1.7788 3.7022,-0.5186 3.7022,-0.5186 0,0 -1.5253,-2.3419 -3.6654,-0.7255"
       id="path6" />
  </g>
  <g
     id="hair"
     transform="translate(-15.69702,-9.7261)">
    <path
       fill="#000000"
       d="m 46.7217,20.5249 c 1.5075,5.4986 0.1748,6.9726 0.1748,6.9726 l -5.2598,-8.6243 c 0,0 -1.4783,4.1056 -5.6542,3.7931 0,0 0.6471,-2.8931 0.2934,-4.168 L 35.23,18.4437 c -1.4018,1.5624 -5.7645,6.1275 -10.6039,8.1882 l -0.0072,-0.0014 0.0286,0.0037 c 0,0 -0.9446,-0.6107 0.024,-5.8262 0,0 9.1232,-4.933 22.3137,-0.3234"
       id="path7" />
  </g>
  <g
     id="skin"
     transform="translate(-15.69702,-9.7261)">
    <path
       fill="#a57939"
       d="m 41.7729,19.0966 c -0.0721,-0.0135 -0.1415,-0.0229 -0.2133,-0.0359 -0.349,0.7975 -1.9385,3.878 -5.5772,3.6057 0,0 0.6364,-2.8483 0.2999,-4.1375 -0.3898,-0.0062 -0.7635,-10e-5 -1.137,0.0079 -1.4785,1.6367 -5.759,6.0634 -10.5077,8.0898 0.006,0.0051 0.0098,0.0077 0.0098,0.0077 l -0.0206,-0.0027 c -2e-4,10e-5 -5e-4,2e-4 -8e-4,4e-4 l -0.0072,-0.0014 0.008,10e-4 c 0.0037,-0.0015 0.0071,-0.0035 0.0108,-0.005 -0.0365,-0.0309 -0.1722,-0.1763 -0.2765,-0.6118 -0.1128,0.8022 -0.1827,1.623 -0.1827,2.4657 0,7.8276 5.0764,14.1732 11.3385,14.1732 6.262,0 11.3385,-6.3456 11.3385,-14.1732 0,-0.3797 -0.022,-0.7525 -0.0454,-1.1246 z"
       id="path8" />
  </g>
  <g
     id="skin-shadow"
     transform="translate(-15.69702,-9.7261)" />
  <g
     id="line"
     transform="translate(-15.69702,-9.7261)">
    <path
       d="m 41.8851,27.0744 c 0,1.1045 -0.8965,2 -2,2 -1.1035,0 -2,-0.8955 -2,-2 0,-1.1035 0.8965,-2 2,-2 1.1035,0 2,0.8965 2,2"
       id="path9" />
    <path
       d="m 33.8851,27.0744 c 0,1.1045 -0.8965,2 -2,2 -1.1035,0 -2,-0.8955 -2,-2 0,-1.1035 0.8965,-2 2,-2 1.1035,0 2,0.8965 2,2"
       id="path10" />
    <path
       d="m 35.8849,37.0769 c -1.1518,0 -2.3037,-0.2862 -3.4472,-0.858 -0.4942,-0.247 -0.6944,-0.8476 -0.4473,-1.3418 0.2466,-0.4936 0.8462,-0.6943 1.3418,-0.4472 1.7178,0.8594 3.3877,0.8594 5.1055,0 0.4946,-0.2471 1.0947,-0.0464 1.3418,0.4472 0.247,0.4942 0.0468,1.0948 -0.4473,1.3418 -1.1436,0.5718 -2.2954,0.858 -3.4473,0.858 z"
       id="path11" />
    <path
       d="m 39.1484,15.2622 h -7.2636 c -0.5528,0 -1,-0.4477 -1,-1 v -3.0874 c 0,-0.5522 0.4472,-1 1,-1 0.5527,0 1,0.4478 1,1 v 2.0874 h 5.2636 v -2.0874 c 0,-0.5522 0.4473,-1 1,-1 0.5528,0 1,0.4478 1,1 v 3.0874 c 0,0.5523 -0.4472,1 -1,1 z"
       id="path12" />
    <path
       d="m 47.3643,18.3247 c -0.5528,0 -1,-0.4477 -1,-1 v -2.6763 c 0,-0.5522 0.4472,-1 1,-1 0.5527,0 1,0.4478 1,1 v 2.6763 c 0,0.5523 -0.4473,1 -1,1 z"
       id="path13" />
    <path
       d="m 23.9668,18.3247 c -0.5527,0 -1,-0.4477 -1,-1 v -2.6763 c 0,-0.5522 0.4473,-1 1,-1 0.5527,0 1,0.4478 1,1 v 2.6763 c 0,0.5523 -0.4473,1 -1,1 z"
       id="path14" />
    <path
       d="m 35.7168,43.6084 c -6.8037,0 -12.3389,-6.8066 -12.3389,-15.1733 0,-0.8765 0.0616,-1.7535 0.1817,-2.606 l 1.9804,0.2803 c -0.1074,0.7597 -0.1621,1.5425 -0.1621,2.3257 0,7.2641 4.6377,13.1733 10.3389,13.1733 5.7012,0 10.3389,-5.9092 10.3389,-13.1733 0,-1.0723 -0.1016,-2.1387 -0.3028,-3.17 l 1.9629,-0.3828 c 0.2256,1.1573 0.3399,2.3526 0.3399,3.5528 0,8.3667 -5.5352,15.1733 -12.3389,15.1733 z"
       id="path15" />
    <path
       d="m 46.8965,28.4976 c -0.0313,0 -0.0625,-0.0015 -0.0938,-0.0044 -0.3144,-0.0293 -0.5957,-0.2056 -0.7597,-0.4751 l -4.3614,-7.1514 c -1.0771,1.4902 -2.9824,3.001 -5.7734,2.7969 -0.29,-0.0215 -0.5557,-0.168 -0.7285,-0.4014 -0.1738,-0.2334 -0.2363,-0.5303 -0.1729,-0.814 0.1651,-0.7421 0.336,-1.8344 0.3702,-2.685 -1.9405,2.0683 -5.8399,5.8149 -10.2032,7.7217 -0.1894,0.1172 -0.4189,0.1704 -0.6504,0.1416 -0.0361,-0.0035 -0.0713,-0.0093 -0.1074,-0.0166 -0.2715,-0.0586 -0.4961,-0.2232 -0.6357,-0.4419 -0.6973,-0.92 -0.7285,-3.1148 -0.0918,-6.5425 0.0556,-0.2969 0.2422,-0.5532 0.5078,-0.6968 0.251,-0.1362 4.2334,-2.2309 10.6611,-2.4126 0.1348,-0.0542 0.2871,-0.0801 0.4248,-0.0708 L 36.3281,17.5 c 0.0352,0.002 0.0694,0.0054 0.1035,0.0107 1.4883,0.0318 3.0879,0.1695 4.7872,0.4541 0.0986,-0.0454 0.205,-0.0752 0.3173,-0.0869 0.3047,-0.0307 0.6055,0.0816 0.8155,0.2954 1.5791,0.3179 3.2373,0.7637 4.9638,1.3672 0.5215,0.1822 0.7959,0.7525 0.6143,1.274 -0.0176,0.0493 -0.0381,0.0966 -0.0625,0.1411 1.2822,5.1933 0.043,6.9116 -0.2285,7.2129 -0.1914,0.2104 -0.461,0.3291 -0.7422,0.3291 z M 25.5664,21.4878 c -0.3369,1.957 -0.3643,3.1035 -0.3154,3.7495 2.916,-1.4761 5.6084,-3.8071 7.3906,-5.5459 -3.6377,0.3945 -6.1328,1.3731 -7.0752,1.7964 z m 18.2783,-0.915 2.5948,4.2548 c -0.0206,-0.8676 -0.168,-2.063 -0.584,-3.6684 -0.6817,-0.2207 -1.3526,-0.4155 -2.0108,-0.5864 z m -6.4638,-1.0093 c -0.003,0.6938 -0.0889,1.436 -0.1846,2.0503 1.3262,-0.2403 2.2207,-1.0694 2.7744,-1.8067 -0.8955,-0.1216 -1.7598,-0.2002 -2.5898,-0.2436 z"
       id="path16" />
    <path
       d="m 49.6641,23.4844 c -0.2891,0 -0.5743,-0.124 -0.7725,-0.3638 -1.7725,-2.1484 -7.1289,-3.7241 -13.1494,-3.895 -6.0195,0.1709 -11.376,1.7466 -13.1484,3.895 -0.3506,0.4253 -0.9805,0.4883 -1.4083,0.1353 -0.4257,-0.3516 -0.4863,-0.982 -0.1347,-1.4078 2.4951,-3.0239 8.7178,-4.333 13.8359,-4.5893 0.0938,-0.0293 0.1934,-0.0449 0.2969,-0.0449 h 1.1172 c 0.1035,0 0.2031,0.0156 0.2969,0.0449 5.1181,0.2563 11.3418,1.5654 13.8369,4.5893 0.3515,0.4258 0.291,1.0562 -0.1348,1.4078 -0.1865,0.1538 -0.4121,0.2285 -0.6357,0.2285 z"
       id="path17" />
    <path
       d="m 51.2832,42.9463 -2.8887,-0.8125 2.0088,-7.1465 c 0.1113,-0.3887 1.1309,-3.709 3.6533,-3.8057 l 3.8926,-0.5019 0.3848,2.9746 -3.9727,0.5127 c -0.0644,0.0088 -0.1279,0.0127 -0.1924,0.0127 h -9e-4 c -0.2022,0.1035 -0.6836,0.9433 -0.878,1.625 z"
       id="path18" />
    <path
       d="m 58.3311,36.2305 c -0.5235,0 -0.9639,-0.4082 -0.9971,-0.9375 l -0.3819,-6.127 c -0.0341,-0.5513 0.3848,-1.0264 0.9356,-1.0605 0.5723,-0.0406 1.0254,0.3852 1.0605,0.9355 l 0.3819,6.127 c 0.0342,0.5517 -0.3848,1.0263 -0.9356,1.0605 -0.0215,0.001 -0.0429,0.002 -0.0634,0.002 z"
       id="path19" />
    <path
       d="m 46.4189,21.3491 c -0.0654,0 -0.1308,-0.0063 -0.1972,-0.0195 -0.5401,-0.1084 -0.8906,-0.6328 -0.7852,-1.1733 v 0 c 0.0059,-0.0293 0.541,-2.9542 -1.3398,-5.2886 -1.585,-1.9668 -4.4238,-3.0225 -8.4385,-3.1392 -4.0283,0.1167 -6.8721,1.1792 -8.4541,3.1582 -1.8818,2.355 -1.3311,5.2368 -1.3252,5.2656 0.1084,0.5415 -0.2422,1.0689 -0.7842,1.1773 -0.539,0.1074 -1.0674,-0.2422 -1.1767,-0.7837 -0.0313,-0.1553 -0.7334,-3.8325 1.7246,-6.9077 1.9424,-2.4312 5.2383,-3.7442 9.7998,-3.9038 0.043,-0.0054 0.0869,-0.0083 0.1308,-0.0083 h 0.169 c 0.0439,0 0.0879,0.0029 0.1308,0.0083 4.5616,0.1596 7.8584,1.4726 9.8008,3.9043 2.4571,3.0747 1.7559,6.7519 1.7246,6.9072 -0.0957,0.4751 -0.5127,0.8032 -0.9795,0.8032 z"
       id="path20" />
    <path
       d="m 62.3047,35.7246 c -1.3936,0 -2.7734,-0.5576 -4.1143,-1.6631 -0.4258,-0.3515 -0.4863,-0.9814 -0.1347,-1.4082 0.3515,-0.4248 0.9804,-0.4863 1.4082,-0.1347 1.124,0.9287 2.2314,1.3222 3.3007,1.1738 1.1817,-0.167 2.1163,-0.9629 2.6377,-1.5166 -0.5312,-0.5938 -1.5048,-1.4756 -2.7392,-1.6875 -1.0205,-0.1699 -2.0811,0.1484 -3.1553,0.958 -0.4424,0.334 -1.0683,0.2451 -1.4004,-0.1953 -0.333,-0.4405 -0.2451,-1.0674 0.1953,-1.4004 1.5381,-1.1621 3.127,-1.6104 4.7159,-1.3301 2.7578,0.4824 4.4355,3.0156 4.5058,3.1231 0.2188,0.3369 0.2158,0.7714 -0.0078,1.1044 -0.0693,0.1026 -1.7285,2.5254 -4.4521,2.9219 -0.254,0.0362 -0.5069,0.0547 -0.7598,0.0547 z"
       id="path21" />
    <path
       d="m 54.7021,58.8848 c -0.0507,0 -0.1015,-0.003 -0.1523,-0.0108 -0.5459,-0.083 -0.9209,-0.5937 -0.8379,-1.1386 0.0069,-0.045 0.6485,-4.4786 -1.2334,-7.8829 -0.2676,-0.4824 -0.0918,-1.0918 0.3916,-1.3584 0.4854,-0.2695 1.0918,-0.0908 1.3584,0.3916 2.2178,4.0108 1.4922,8.9444 1.46,9.1524 -0.0762,0.4941 -0.502,0.8467 -0.9864,0.8467 z"
       id="path22" />
    <path
       d="m 21.2832,58.8857 c -0.5527,0 -1,-0.4472 -1,-1 V 46.1836 c 0,-0.5527 0.4473,-1 1,-1 0.5527,0 1,0.4473 1,1 v 11.7021 c 0,0.5528 -0.4473,1 -1,1 z"
       id="path23" />
    <path
       d="M 41.0557,55.8027 H 26.8252 c -0.5527,0 -1,-0.4472 -1,-1 v -9.917 c 0,-0.5527 0.4473,-1 1,-1 0.5527,0 1,0.4473 1,1 v 8.917 h 13.2305 c 0.5527,0 1,0.4473 1,1 0,0.5528 -0.4473,1 -1,1 z"
       id="path24" />
    <path
       d="m 16.8232,58.8848 c -0.4843,0 -0.9101,-0.3526 -0.9863,-0.8467 -0.041,-0.2695 -0.9726,-6.6328 2.5811,-10.7754 1.9228,-2.2412 4.7509,-3.377 8.4072,-3.377 0.1973,0 0.3906,0.0586 0.5547,0.168 3.1533,2.1026 5.6601,3.4111 8.3828,3.4248 2.1543,-0.0107 4.2734,-0.8008 7.293,-2.7148 0.4677,-0.2969 1.0839,-0.1563 1.3798,0.3095 0.2959,0.4659 0.1573,1.084 -0.3095,1.3799 -2.4385,1.5459 -5.125,2.9776 -8.253,3.0244 -0.0214,0.002 -0.0439,0 -0.0664,10e-4 -0.0078,0 -0.0136,0 -0.0214,0 h -0.0489 c -0.0127,0 -0.0254,-10e-4 -0.0381,0 -0.0146,0 -0.0293,0 -0.0439,-10e-4 -3.0996,-0.0429 -5.8164,-1.4033 -9.126,-3.5888 -2.8965,0.0566 -5.1103,0.9541 -6.5859,2.6689 -2.9561,3.4365 -2.1377,9.1201 -2.1289,9.1778 0.083,0.5449 -0.292,1.0546 -0.8379,1.1386 -0.0508,0.0078 -0.1016,0.0108 -0.1524,0.0108 z"
       id="path25" />
    <path
       d="m 47.4414,59.4639 c -0.0908,0 -0.1816,-0.0127 -0.2705,-0.0371 l -3.8506,-1.083 c -0.5322,-0.1495 -0.8418,-0.7022 -0.6924,-1.2334 l 4.3233,-15.3819 c 0.1494,-0.5322 0.7041,-0.8408 1.2334,-0.6924 l 3.8506,1.0821 c 0.2548,0.0722 0.4716,0.2422 0.6015,0.4736 0.1299,0.2314 0.1621,0.5049 0.0908,0.7598 l -4.3232,15.3828 c -0.0723,0.2558 -0.2422,0.4717 -0.4736,0.6015 -0.1504,0.085 -0.3194,0.128 -0.4893,0.128 z m -2.6172,-2.7754 1.9248,0.542 3.7823,-13.4571 -1.9249,-0.541 z"
       id="path26" />
  </g>
</svg>
