<svg xmlns="http://www.w3.org/2000/svg" xmlns:svg="http://www.w3.org/2000/svg" id="emoji" width="48.312" height="52.751" version="1.1" viewBox="0 0 48.312 52.751"><g id="color" transform="translate(-13.000409,-8.3)"><path id="path1" fill="#92d3f5" d="M 58,25.7 46.1,20.9 C 45.9,16.6 44.2,9.6 35.5,9.3 c -12,0 -14.6,11 -14.6,11 l -1,2 -0.6,1.2 -5.3,2.2"/><path id="path2" fill="#61b2e4" d="M 19.0858,25.7 16.8,31.4 c -0.3115,0.5831 -0.3832,1.2648 -0.2,1.9 L 19.5,44 c 0.0564,0.1933 0.2588,0.3043 0.4521,0.2479 C 20.0717,44.213 20.1651,44.1195 20.2,44 l 0.2,-7.7 0.6,-0.6 1,-1.3 8,-8.8"/><path id="path3" fill="#92d3f5" d="m 17,60.949 v -4 c 0,-4.9941 4.6413,-9.3352 9.6335,-9.3352 6,5 12.9974,4.9176 18.9974,-0.0824 4.9941,0 9.3691,4.4235 9.3691,9.4176 v 4"/><path id="path4" fill="#61b2e4" d="M 45.6624,60.949 V 56.9368 C 45.522,54.3058 44.0138,51.5747 41.9601,49.924 42.9553,49.3698 44.6357,48.3607 45.6309,47.5313 50.625,47.5314 55,51.9549 55,56.949 v 4"/><path id="path5" fill="#61b2e4" d="m 53.3683,40.539 c -2.5437,-1.0747 -3.7346,-4.008 -2.6599,-6.5517 1.0747,-2.5437 4.008,-3.7346 6.5517,-2.6599 2.5437,1.0747 3.7346,4.008 2.6599,6.5517 -0.4479,1.0601 -1.2477,1.9332 -2.2646,2.4721"/><path id="path6" fill="#92d3f5" d="m 55.3145,32.4717 c -0.8786,0.137 -1.6948,0.5381 -2.34,1.15 1.5407,-0.3467 3.1393,-0.3467 4.68,0 -0.6452,-0.6119 -1.4614,-1.013 -2.34,-1.15 z"/><polyline id="polyline6" fill="#a57939" points="57.314 61 57.314 40.539 53.314 40.539 53.314 61"/></g><g id="hair" transform="translate(-13.000409,-8.3)"><path id="path7" fill="#000" d="M 35.7577,54.3964 C 49.1792,44.703 48.852,32.2491 47.4577,26.8137 h -1.7 c 0,0 1.5809,7.897 -9.7577,7.897 -11.3386,0 -9.496,-7.897 -9.496,-7.897 h -1.7463 c -1.6019,4.7451 -2.3969,15.6744 11,27.5827 z"/></g><g id="skin" transform="translate(-13.000409,-8.3)"><path id="path8" fill="#a57939" d="m 45.7577,25.8136 c 0,0 1.5809,8.897 -9.7577,8.897 -11.3386,0 -9.496,-8.897 -9.496,-8.897"/></g><g id="line" transform="translate(-13.000409,-8.3)"><path id="path9" fill="none" stroke="#000" stroke-linecap="round" stroke-linejoin="round" stroke-width="2" d="M 19.0858,25.8 16.9,31.4 c -0.3115,0.5831 -0.3832,1.2648 -0.2,1.9 L 19.5,44 c 0.0564,0.1933 0.2588,0.3043 0.4521,0.2479 C 20.0717,44.213 20.1651,44.1195 20.2,44 l 0.2,-7.7 c 0.0103,-0.473 0.0775,-0.943 0.2,-1.4"/><path id="path10" fill="none" stroke="#000" stroke-linecap="round" stroke-linejoin="round" stroke-width="2" d="m 26.9,17.5 c -0.4245,1.0967 -0.7263,2.2369 -0.9,3.4 v 0 L 14,25.8 H 58 L 46.1,20.9 C 45.9,16.6 43.9,9.6 35.2,9.3 22.2,9.3 20,22.8 20,22.8"/><path id="path11" fill="none" stroke="#000" stroke-linecap="round" stroke-linejoin="round" stroke-width="2" d="m 53.3683,40.59 c -2.5437,-1.0747 -3.7346,-4.008 -2.6599,-6.5517 1.0747,-2.5437 4.008,-3.7346 6.5517,-2.6599 2.5437,1.0747 3.7346,4.008 2.6599,6.5517 -0.4479,1.0601 -1.2477,1.9332 -2.2646,2.4721"/><polyline id="polyline11" fill="none" stroke="#000" stroke-linecap="round" stroke-linejoin="round" stroke-width="2" points="57.314 60.051 57.314 40.605 53.314 40.605 53.314 60.051"/><path id="path12" fill="none" stroke="#000" stroke-linecap="round" stroke-linejoin="round" stroke-width="2" d="m 46.4401,48.109 c 2.7065,0.407 5.2719,1.9246 6.8759,4.0597"/><path id="path13" fill="none" stroke="#000" stroke-linecap="round" stroke-linejoin="round" stroke-width="2" d="m 17,60 v -3 c 0,-4.5823 4.2159,-8.3326 8.7675,-8.92"/><path id="path14" d="m 42,29.9 c 0,1.1 -0.9,2 -2,2 -1.1,0 -2,-0.9 -2,-2 0,-1.1 0.9,-2 2,-2 1.1,0 2,0.9 2,2"/><path id="path15" d="m 34,29.9 c 0,1.1 -0.9,2 -2,2 -1.1,0 -2,-0.9 -2,-2 0,-1.1 0.9,-2 2,-2 1.1,0 2,0.9 2,2"/><path id="path16" fill="none" stroke="#000" stroke-linecap="round" stroke-linejoin="round" stroke-width="2" d="m 33,38.1 c 1.9,1 4.1,1 6,0"/><path id="path17" fill="none" stroke="#000" stroke-linecap="round" stroke-linejoin="round" stroke-width="2" d="M 35.7577,54.3964 C 49.1792,44.703 48.852,32.2491 47.4577,26.8137 h -1.7 c 0,0 1.5809,7.897 -9.7577,7.897 -11.3386,0 -9.496,-7.897 -9.496,-7.897 h -1.7463 c -1.6019,4.7451 -2.3969,15.6744 11,27.5827 z"/></g></svg>