<svg xmlns="http://www.w3.org/2000/svg" xmlns:svg="http://www.w3.org/2000/svg" id="emoji" width="45.877" height="50.18" version="1.1" viewBox="0 0 45.877 50.18"><g id="color" transform="translate(-13.143901,-10.892252)"><path id="path1" fill="#92d3f5" d="m 54.9224,60.9315 c 0,0 2,-14.0268 -10,-14.0268 -3.1919,2.1279 -5.9264,3.5984 -9,3.5921 h 0.125 c -3.0736,0.0063 -5.8082,-1.4642 -9,-3.5921 -12,0 -10,14.0268 -10,14.0268 z"/><path id="path2" fill="#61b2e4" d="m 45.3084,46.9047 a 18.0129,18.0129 0 0 1 -8.9375,3.5885 c 13.0625,0.4115 12.9775,6.395 13.74,10.395 h 5.1129 c 0,0 2.0846,-13.9835 -9.9154,-13.9835 z"/><polyline id="polyline2" fill="#6a462f" points="18.056 52.064 18.056 42.499 25.141 42.499 25.141 46.063"/><path id="path3" fill="#a57939" d="m 47.9673,60.9583 c -18.4989,-5.1358 -20.92,-14.0536 -20.92,-14.0536 0,0 -4.2,0.2046 -5.6776,1.3537 3.1163,6.4287 5.9346,9.5505 14.1044,12.6807"/></g><g id="skin" transform="translate(-13.143901,-10.892252)"><path id="path4" fill="#fadcbc" d="m 38.1326,20.5319 a 9.3955,9.3955 0 0 1 -2.18,-5.054 c -0.028,0 -0.0549,-0.0052 -0.0829,-0.0052 a 8.2719,8.2719 0 0 1 -1.98,5.0591 10.8766,10.8766 0 0 1 -8.7937,4.7087 17.3993,17.3993 0 0 0 -0.5656,4.4052 c 0,7.8277 5.0765,14.1732 11.3386,14.1732 6.2621,0 11.339,-6.3455 11.339,-14.1732 a 17.3453,17.3453 0 0 0 -0.6258,-4.6109 9.7529,9.7529 0 0 1 -8.4496,-4.5029 z"/><path id="path5" fill="#fadcbc" d="m 46.5844,24.451 11.45,-1.6359 c 0,0 -6.2681,9.8488 -10.4944,8.7989"/><path id="path6" fill="#fadcbc" d="M 25.4747,24.4322 14.1572,22.8151 c 0,0 6.1889,9.7351 10.3663,8.6973"/></g><g id="hair" transform="translate(-13.143901,-10.892252)"><path id="path7" fill="#a57939" d="M 35.7974,11.7565 A 15.35,15.35 0 0 0 20.661,24.6021 c 8.8261,3.0574 13.1564,-3.9388 13.1564,-3.9388 a 8.2716,8.2716 0 0 0 1.98,-5.0592 H 35.88 a 9.3969,9.3969 0 0 0 2.18,5.0592 c 0,0 3.413,6.46 12.8727,3.93 A 15.3509,15.3509 0 0 0 35.7974,11.7565 Z"/><path id="path8" fill="#a57939" d="M 37.48,44.3806 32.2842,43.7358 28.0742,41.119 24.6609,35.013 24.2816,32.1685 21.9302,31.7514 19.02,29.4878 v 12.5531 l 6.159,0.3305 v 4.5958 l 1.9062,-0.19 c 3.17,2.1133 5.8895,3.5747 8.9375,3.5885 3.048,-0.0138 5.7675,-1.4752 8.9375,-3.5885 a 9.6884,9.6884 0 0 1 6.5536,2.1348 12.86,12.86 0 0 0 0.6612,-4.1082 c 0,-16.6561 -0.27,-14.3257 -0.27,-14.3257 l -2.3265,1.4249 -2.2,0.2654 -1.29,4.8924 -3.6029,4.9683 z"/></g><g id="line" transform="translate(-13.143901,-10.892252)"><path id="path9" d="m 42.0163,28.5884 a 2,2 0 1 1 -2,-2 2.0007,2.0007 0 0 1 2,2"/><path id="path10" d="m 34.0163,28.5884 a 2,2 0 1 1 -2,-2 2.0007,2.0007 0 0 1 2,2"/><path id="path11" d="m 36.0162,38.5908 a 7.6528,7.6528 0 0 1 -3.4473,-0.8579 1.0001261,1.0001261 0 0 1 0.8945,-1.7891 5.3774,5.3774 0 0 0 5.1055,0 1.0001261,1.0001261 0 1 1 0.8945,1.7891 7.6524,7.6524 0 0 1 -3.4472,0.8579 z"/><path id="path12" fill="none" stroke="#000" stroke-linecap="round" stroke-linejoin="round" stroke-width="2" d="M 50.9636,24.15 C 46.49,10.5289 36.0162,11.9284 36.0162,11.9284 c 0,0 -10.3532,-1.3834 -14.8692,11.9864"/><circle id="circle12" cx="36.016" cy="22.15" r="1.5"/><path id="path13" fill="none" stroke="#000" stroke-linecap="round" stroke-linejoin="round" stroke-width="2" d="M 25.4613,24.7355 14.1438,23.1184 c 0,0 6.1889,9.7351 10.3663,8.6973"/><path id="path14" fill="none" stroke="#000" stroke-linecap="round" stroke-linejoin="round" stroke-width="2" d="m 36.0162,15.776 a 20.4581,20.4581 0 0 1 -3.08,5.0592"/><path id="path15" fill="none" stroke="#000" stroke-linecap="round" stroke-linejoin="round" stroke-width="2" d="m 46.571,24.7543 11.45,-1.6359 c 0,0 -6.2678,9.8488 -10.494,8.7989"/><path id="path16" fill="none" stroke="#000" stroke-linecap="round" stroke-linejoin="round" stroke-width="2" d="m 36.0162,15.776 a 20.4558,20.4558 0 0 0 3.08,5.0592"/><line id="line16" x1="51.216" x2="51.216" y1="31.033" y2="44.536" fill="none" stroke="#000" stroke-linecap="round" stroke-linejoin="round" stroke-width="2"/><polyline id="polyline16" fill="none" stroke="#000" stroke-linecap="round" stroke-linejoin="round" stroke-width="2" points="18.088 52.108 18.088 42.543 25.173 42.543 25.173 46.108"/><line id="line17" x1="20.022" x2="20.022" y1="42.505" y2="37.761" fill="none" stroke="#000" stroke-linecap="round" stroke-linejoin="round" stroke-width="2"/><line id="line18" x1="23.393" x2="23.393" y1="42.543" y2="39.102" fill="none" stroke="#000" stroke-linecap="round" stroke-linejoin="round" stroke-width="2"/><path id="path18" fill="none" stroke="#000" stroke-linecap="round" stroke-linejoin="round" stroke-width="2" d="m 54.9537,59.9492 c 0,0 2,-13 -10,-13 -3.1919,2.1279 -5.9264,3.5984 -9,3.5921 h 0.125 c -3.0736,0.0063 -5.8082,-1.4642 -9,-3.5921 -12,0 -10,13 -10,13"/><path id="path19" fill="none" stroke="#000" stroke-linecap="round" stroke-linejoin="round" stroke-width="2" d="m 26.4391,24.5466 -0.9825,0.2293 a 17.29,17.29 0 0 0 -0.779,5.1733 c 0,7.8276 5.0765,14.1732 11.3386,14.1732 6.2621,0 11.3386,-6.3456 11.3386,-14.1732 A 17.29,17.29 0 0 0 46.5757,24.7759 L 45.7634,24.452"/><path id="path20" fill="none" stroke="#000" stroke-linecap="round" stroke-linejoin="round" stroke-width="2" d="m 46.571,24.7543 11.45,-1.6359 c 0,0 -6.2678,9.8488 -10.494,8.7989"/><line id="line20" x1="19.947" x2="19.947" y1="30.333" y2="33.501" fill="none" stroke="#000" stroke-linecap="round" stroke-linejoin="round" stroke-width="2"/><path id="path21" fill="none" stroke="#000" stroke-linecap="round" stroke-linejoin="round" stroke-width="2" d="M 47.8955,60.0059 C 29.3966,54.87 27.0787,46.9492 27.0787,46.9492 c 0,0 -4.2,0.2046 -5.6776,1.3537 3.1163,6.4287 5.69,8.6387 13.8595,11.7689"/><path id="path22" fill="none" stroke="#000" stroke-linecap="round" stroke-linejoin="round" stroke-width="2" d="m 46.7244,21.2945 c -2.6425,-0.6931 -3.2409,2.473 -6.127,1.7854"/><path id="path23" fill="none" stroke="#000" stroke-linecap="round" stroke-linejoin="round" stroke-width="2" d="m 31.3867,23.08 c -2.886,0.6876 -2.8758,-2.7625 -5.5183,-2.0694"/></g></svg>