<svg xmlns="http://www.w3.org/2000/svg" xmlns:svg="http://www.w3.org/2000/svg" id="emoji" width="40.082" height="61.079" version="1.1" viewBox="0 0 40.082 61.079"><g id="color" transform="translate(-16.432267,-6.9207959)"><path id="path1" fill="#e27022" d="M 41.0089,54.175 H 28.7462 a 0.9978,0.9978 0 0 1 -0.6767,-0.2636 l -7.4307,-6.834 A 1,1 0 0 1 20.3751,46.0012 C 21.8527,41.9065 22.88,39.177 23.43,37.89 a 4.2739,4.2739 0 0 1 4.0176,-2.4844 c 0.1562,-0.0137 0.3105,-0.0264 0.4609,-0.0449 a 2.9169,2.9169 0 0 1 2.0635,0.5234 c 1.04,0.6319 3.4657,2.14 6.0194,2.0681 v 0 c 2.5556,0.0313 6.384,-1.6566 7.424,-2.2894 a 1.85,1.85 0 0 1 1.6513,-0.3021 c 0.15,0.0185 0.3047,0.0312 0.46,0.0449 a 4.2536,4.2536 0 0 1 3.9961,2.4365 c 1.0136,2.3682 3.1191,8.1963 4.7119,12.6778 a 1,1 0 0 1 -0.7568,1.3174 l -12.2832,2.32 a 0.99,0.99 0 0 1 -0.1858,0.0177 z"/><path id="path2" fill="#b1cc33" d="m 36.9777,51.0547 a 27.0291,27.0291 0 0 0 -3.5672,-0.3887 8.2421,8.2421 0 0 1 -12.4241,8.71 9.3928,9.3928 0 0 0 3.2442,4.1351 22.6438,22.6438 0 0 0 9.8017,4.0635 A 26.73,26.73 0 0 0 38.7179,68 c 6.14,0 10.8838,-2.3281 11.5488,-6.0537 C 51.0919,57.3145 45.254,52.53 36.9777,51.0547 Z"/><path id="path3" fill="#92d3f5" d="m 36.3234,50.8547 a 2.7013,2.7013 0 0 1 -2.55,-1.8115 l -0.79,-2.2754 a 2.7,2.7 0 0 1 1.6621,-3.4306 l 8.583,-2.98 a 2.6968,2.6968 0 0 1 3.4307,1.6611 l 0.79,2.2773 a 2.6982,2.6982 0 0 1 -1.6621,3.43 l -8.583,2.98 a 2.6742,2.6742 0 0 1 -0.8807,0.1491 z"/><circle id="circle3" cx="33.278" cy="47.855" r="2" fill="#f1b31c"/></g><g id="skin" transform="translate(-16.432267,-6.9207959)"><path id="path4" fill="#fcea2b" d="M 25.3321,60.6418 A 8.2568,8.2568 0 1 1 33.589,52.385 8.2663,8.2663 0 0 1 25.3321,60.6418 Z"/><path id="path5" fill="#fcea2b" d="m 56.0392,55.6418 c 0,0 -0.8418,-2.415 -1.9424,-5.5087 a 0.5389,0.5389 0 0 1 -0.0889,-0.1866 c -0.0178,-0.0291 -0.0466,-0.0454 -0.0667,-0.0721 a 0.9664,0.9664 0 0 0 -0.1331,-0.1436 0.9552,0.9552 0 0 0 -0.1569,-0.1154 0.9756,0.9756 0 0 0 -0.163,-0.0747 0.99,0.99 0 0 0 -0.5738,-0.0286 0.25,0.25 0 0 0 -0.1834,0.0668 0.9346,0.9346 0 0 0 -0.0981,0.0356 10.17,10.17 0 0 1 -5.1561,1.1044 c -1.2471,-2.0232 -2.5472,-3.968 -3.2507,-5.1871 A 2.1824,2.1824 0 0 0 41.5,44.3391 2.5917,2.5917 0 0 0 39.9326,47.7952 c 3.0694,7.3545 7.545,15.8017 11.9053,15.8017 a 3.3207,3.3207 0 0 0 0.874,-0.1172 c 0.0185,-0.0049 0.0313,-0.0186 0.0492,-0.0245 0.02,-0.0065 0.04,-0.0037 0.06,-0.0116 a 5.5817,5.5817 0 0 0 3.27,-3.0127 6.85,6.85 0 0 0 -0.0519,-4.7891 z"/><path id="path6" fill="#fcea2b" d="M 32.6124,62.1077 23.6173,58.4084 C 23.5989,58.4009 23.5795,58.404 23.5609,58.3976 23.5475,58.3929 23.5382,58.3823 23.5245,58.3782 a 6.2736,6.2736 0 0 1 -4.3847,-5.086 0.9191,0.9191 0 0 0 -0.0423,-0.119 0.9881,0.9881 0 0 0 -0.0783,-0.2217 0.9714,0.9714 0 0 0 -0.1236,-0.1582 0.9607,0.9607 0 0 0 -0.1162,-0.129 0.9749,0.9749 0 0 0 -0.2307,-0.13 0.9392,0.9392 0 0 0 -0.0876,-0.05 c -0.0065,-0.0021 -0.013,0 -0.0195,-0.0022 A 0.9628,0.9628 0 0 0 18.2032,52.455 1.0161,1.0161 0 0 0 18.0384,52.4476 C 18.0277,52.449 18.0178,52.4445 18.007,52.4462 a 0.9319,0.9319 0 0 0 -0.1482,0.0529 0.9884,0.9884 0 0 0 -0.1875,0.0669 0.9757,0.9757 0 0 0 -0.1648,0.1283 0.9623,0.9623 0 0 0 -0.1274,0.1156 0.9955,0.9955 0 0 0 -0.1141,0.2016 0.943,0.943 0 0 0 -0.0647,0.1144 c -0.0058,0.0178 -0.0093,0.0333 -0.0149,0.051 l -0.0029,0.01 c -2.0249,6.2905 0.6584,8.2629 0.95,8.4537 a 43.2961,43.2961 0 0 0 12.85,5.3173 2.5775,2.5775 0 0 0 3.0987,-1.705 2.5489,2.5489 0 0 0 -1.4688,-3.1452 z"/><path id="path7" fill="#fcea2b" d="M 35.5778,34.9113 C 30.611,34.9123 25.989,30.0647 24.9606,23.4904 a 12.7968,12.7968 0 0 1 0.543,-6.0459 1.0668,1.0668 0 0 1 1.8291,-0.2265 c 0.02,0.0234 3.43,3.9013 13.9619,-3.1846 a 1.0654,1.0654 0 0 1 1.5938,0.5088 33.6378,33.6378 0 0 1 1.6367,5.9 c 1.1035,7.085 -2.3809,13.5332 -7.77,14.3769 a 7.5929,7.5929 0 0 1 -1.1773,0.0922 z"/></g><g id="hair" transform="translate(-16.432267,-6.9207959)"><path id="path8" fill="#a57939" d="m 45.9923,10.4082 a 4.8358,4.8358 0 0 0 -4.5381,-2.1416 5.8878,5.8878 0 0 0 -3.0791,1.28 C 36.9767,8.4929 33.8341,6.5397 30.2208,6.986 c -2.8935,0.36 -5.4082,2.16 -7.5107,5.4141 a 5.232,5.232 0 0 1 -4.3809,2.5332 1.0661,1.0661 0 0 0 -1.0029,1.4307 6.79,6.79 0 0 0 2.3877,3.2041 4.5969,4.5969 0 0 0 -0.3916,2.3457 4.459,4.459 0 0 0 1.8086,3.0341 c 0.7636,1.1719 4.4453,6.5264 7.92,6.5264 l 0.0333,-6e-4 0.0028,6e-4 0.0044,-7e-4 h 0.0122 c 0.0142,0 0.0257,-0.0078 0.04,-0.0086 a 1.052,1.052 0 0 0 0.3384,-0.0737 1.0225,1.0225 0 0 0 0.1313,-0.0743 1.0094,1.0094 0 0 0 0.1528,-0.0865 c 0.0159,-0.0131 0.0224,-0.0321 0.0373,-0.0459 a 1.989,1.989 0 0 0 0.2437,-0.3323 1.02,1.02 0 0 0 0.0569,-0.193 1.04,1.04 0 0 0 0.0386,-0.2083 c 10e-4,-0.021 0.0116,-0.039 0.0112,-0.06 A 0.9961,0.9961 0 0 0 30.1227,30.2461 0.7908,0.7908 0 0 0 29.968,29.8396 0.9813,0.9813 0 0 0 29.9088,29.7289 13.7645,13.7645 0 0 1 27.068,23.1625 12.8273,12.8273 0 0 1 27.0856,19.6381 c 2.041,1.0684 6.414,1.8516 14.248,-3.084 a 25.5726,25.5726 0 0 1 1.0791,4.1787 l 0.0045,0.0133 c 7e-4,0.0048 -0.0013,0.0092 -6e-4,0.0141 a 14.3637,14.3637 0 0 1 -0.1582,5.3867 c -0.0036,0.0157 0.0017,0.0306 -0.0012,0.0462 a 2.3953,2.3953 0 0 0 0.0073,0.4244 1.0989,1.0989 0 0 0 0.0464,0.1208 1.0506,1.0506 0 0 0 0.1283,0.2636 c 0.0058,0.0081 0.0065,0.0179 0.0126,0.0258 0.0177,0.0232 0.0439,0.0339 0.063,0.0552 a 1.0264,1.0264 0 0 0 0.23,0.2017 223.3026,223.3026 0 0 1 0.3123,0.1416 1.0862,1.0862 0 0 0 0.2412,0.0283 1.0471,1.0471 0 0 0 0.2317,-0.04 c 0.0162,-0.0037 0.0321,-0.0039 0.0482,-0.0083 a 1.0541,1.0541 0 0 0 0.4076,-0.2127 c 6.3694,-4.9127 4.1104,-13.1096 2.0065,-16.7853 z"/></g><g id="line" transform="translate(-16.432267,-6.9207959)"><path id="path9" fill="none" stroke="#000" stroke-linecap="round" stroke-linejoin="round" stroke-width="2" d="m 21.3154,46.3271 c 1.2325,-3.4161 2.4138,-6.6069 3.0343,-8.0586 0.9436,-1.9239 2.4321,-1.7805 3.6765,-1.9283 A 2.682,2.682 0 0 1 29.7411,36.7231 11.9033,11.9033 0 0 0 36,38.5 h 0.9747 a 11.9033,11.9033 0 0 0 6.2589,-1.777 2.682,2.682 0 0 1 1.7149,-0.3829 c 1.2444,0.1478 2.7329,0.0044 3.6765,1.9283 1.65,3.86 6.47,17.6883 6.47,17.6883 0,0 1.9655,4.6809 -2.6193,6.5336 l -0.0256,0.01 C 48.0515,63.6911 42.5756,51.5369 40.8007,47.2649"/><path id="path10" fill="none" stroke="#000" stroke-linecap="round" stroke-linejoin="round" stroke-width="2" d="m 43.47,20.5943 a 32.96,32.96 0 0 0 -1.58,-5.6764 v 0 c -11.6718,7.853 -15.406,2.9469 -15.406,2.9469 a 11.8108,11.8108 0 0 0 -0.47,5.4609 c 1.02,6.52 5.7549,11.1942 10.5753,10.44 4.8204,-0.7542 7.9007,-6.6513 6.88,-13.1713"/><circle id="circle10" cx="25.332" cy="52.385" r="7.257" fill="none" stroke="#000" stroke-linecap="round" stroke-linejoin="round" stroke-width="2"/><path id="path11" fill="none" stroke="#000" stroke-linecap="round" stroke-linejoin="round" stroke-width="2" d="M 18.7,60.8171 A 42.8484,42.8484 0 0 0 31.5,66.058"/><path id="path12" fill="none" stroke="#000" stroke-linecap="round" stroke-linejoin="round" stroke-width="2" d="m 41.2136,48.2555 -4.3375,1.5057 a 1.7,1.7 0 0 1 -2.1578,-1.0457 l -0.79,-2.276 a 1.7,1.7 0 0 1 1.0457,-2.1577 l 8.5828,-2.9794 a 1.7,1.7 0 0 1 2.1578,1.0457 l 0.79,2.276"/><path id="path13" fill="none" stroke="#000" stroke-linecap="round" stroke-linejoin="round" stroke-width="2" d="m 32.552,51.6519 a 25.7007,25.7007 0 0 1 4.2495,0.4042 23.5323,23.5323 0 0 1 7.5264,2.6414"/><path id="path14" fill="none" stroke="#000" stroke-linecap="round" stroke-linejoin="round" stroke-width="2" d="m 46.5572,51.158 a 49.6121,49.6121 0 0 0 4.9284,6.7668"/><path id="path15" fill="none" stroke="#000" stroke-linecap="round" stroke-linejoin="round" stroke-width="2" d="M 31.3262,48.2934 A 2.0016,2.0016 0 0 1 33.838,45.9341"/><path id="path16" fill="none" stroke="#000" stroke-linecap="round" stroke-linejoin="round" stroke-width="2" d="m 34.88,49.0522 a 2,2 0 0 1 -2.9721,0.2593"/><path id="path17" fill="none" stroke="#000" stroke-linecap="round" stroke-linejoin="round" stroke-width="2" d="m 43.2985,26.3791 c 7.3764,-5.64 1.7794,-15.4208 1.7794,-15.4208 a 3.7853,3.7853 0 0 0 -3.53,-1.6291 5.1064,5.1064 0 0 0 -3.1329,1.6291 c 0,0 -8.4289,-7.8418 -14.7706,1.9592 A 6.3419,6.3419 0 0 1 18.3287,16 c 0,0 1.0781,2.9636 2.9867,2.9636 0,0 -2.5032,2.9187 0.6131,5.2533 0,0 3.9567,6.2405 7.1588,6.19"/></g></svg>