<?xml version="1.0" encoding="UTF-8" standalone="no"?>
<svg
   id="emoji"
   viewBox="0 0 42 46.150749"
   version="1.1"
   sodipodi:docname="1f9d1-200d-1faa9.svg"
   width="42"
   height="46.150749"
   xmlns:inkscape="http://www.inkscape.org/namespaces/inkscape"
   xmlns:sodipodi="http://sodipodi.sourceforge.net/DTD/sodipodi-0.dtd"
   xmlns="http://www.w3.org/2000/svg"
   xmlns:svg="http://www.w3.org/2000/svg">
  <defs
     id="defs7" />
  <sodipodi:namedview
     id="namedview7"
     pagecolor="#ffffff"
     bordercolor="#000000"
     borderopacity="0.25"
     inkscape:showpageshadow="2"
     inkscape:pageopacity="0.0"
     inkscape:pagecheckerboard="0"
     inkscape:deskcolor="#d1d1d1" />
  <g
     id="color"
     transform="translate(-14.9981,-10.84925)">
    <rect
       x="15.9998"
       y="49.322498"
       rx="3.3385999"
       ry="3.3385999"
       width="40"
       height="6.6773"
       fill="#9b9b9a"
       id="rect1" />
    <polyline
       fill="#d0cfce"
       points="56 52.661 56 56 39.924 56 39.924 49.323 56 49.323 56 52.661"
       id="polyline1" />
  </g>
  <g
     id="skin"
     transform="translate(-14.9981,-10.84925)">
    <g
       id="skin-2">
      <circle
         cx="35.9981"
         cy="19.886"
         r="3.5"
         fill="#fcea2b"
         id="circle1" />
    </g>
    <path
       fill="#fcea2b"
       d="m 53.65,15.0305 c -0.6812,-0.2344 -1.4234,0.1279 -1.6578,0.8091 -0.0092,0.0267 -0.0175,0.0537 -0.0249,0.0809 l -2.3187,7.6376 c -0.3387,0.6366 -0.9167,1.1122 -1.6066,1.3219 l -3.747,0.9189 c -1.2893,0.3249 -2.5974,0.5695 -3.917,0.7324 l -8.6944,0.6436 c -1.3353,-0.049 -2.6476,0.3581 -3.7207,1.1543 l -0.62,0.4609 -0.15,0.1268 c -1.0378,0.9775 -1.8588,2.1619 -2.41,3.4767 l -0.6856,2.0508 c -0.2178,0.6162 -0.5517,1.55 -0.8721,2.334 -0.5294,1.2229 -0.5112,2.6137 0.05,3.8223 l 3.803,5.0484 c 0.2434,0.5371 0.7785,0.882 1.3681,0.8819 0.2061,0 0.0424,0.0423 0.2436,-0.0475 0.6968,-0.2562 1.054,-1.0287 0.7978,-1.7255 -0.0145,-0.0393 -0.0307,-0.0779 -0.0488,-0.1157 l -3.11,-5.5567 c -0.1934,-0.4475 -0.1867,-0.9563 0.0185,-1.3985 0.4809,-0.9643 1.0174,-1.8998 1.6068,-2.8018 l 1.0511,8.052 c 0.0633,0.4846 0.4759,0.8473 0.9646,0.8479 l 10.9788,0.0127 c 0.5657,6e-4 1.0247,-0.4575 1.0253,-1.0231 v -6.9467 c -0.0478,-1.6113 0.2722,-3.2124 0.9357,-4.6815 l 6.3146,-3.0707 c 1.534,-0.695 2.7168,-1.9875 3.2736,-3.5769 l 2.02,-7.6445 c 0.2242,-0.7408 -0.1516,-1.5307 -0.8679,-1.824 z"
       id="path1" />
  </g>
  <g
     id="skin-shadow"
     transform="translate(-14.9981,-10.84925)" />
  <g
     id="hair"
     transform="translate(-14.9981,-10.84925)" />
  <g
     id="line"
     transform="translate(-14.9981,-10.84925)">
    <circle
       cx="36.002499"
       cy="19.886"
       r="3.5"
       fill="none"
       stroke="#000000"
       stroke-miterlimit="10"
       stroke-width="2.3333"
       id="circle2" />
    <path
       fill="none"
       stroke="#000000"
       stroke-linecap="round"
       stroke-linejoin="round"
       stroke-width="2"
       d="m 41.9713,30.7922 c 0,0 -0.2246,0.6748 -0.5,1.5 -0.3205,1.1395 -0.4886,2.3164 -0.5,3.5 v 7"
       id="path2" />
    <line
       x1="29.9713"
       x2="28.9713"
       y1="42.792198"
       y2="34.792198"
       fill="none"
       stroke="#000000"
       stroke-linecap="round"
       stroke-linejoin="round"
       stroke-width="2"
       id="line2" />
    <path
       fill="none"
       stroke="#000000"
       stroke-linecap="round"
       stroke-linejoin="round"
       stroke-width="2"
       d="m 27.657,45.649 -4.5089,-5.66 c -0.4156,-0.8471 -0.455,-1.8301 -0.1086,-2.7078 0.3291,-0.8289 0.6675,-1.7276 0.8915,-2.3777 l 0.7652,-2.2192 c 0.473,-1.2232 1.1745,-2.3452 2.0669,-3.3062 l 0.1715,-0.1714 c 0.9502,-0.8572 2.1393,-1.4041 3.4085,-1.5678 l 9.0178,-0.6938 c 1.3227,-0.1212 2.6354,-0.3344 3.9285,-0.6378 l 4.1205,-1.03 c 1.1751,-0.3659 2.1263,-1.2359 2.5953,-2.3738 l 2.4688,-7.1108"
       id="path3" />
    <path
       fill="none"
       stroke="#000000"
       stroke-linecap="round"
       stroke-linejoin="round"
       stroke-width="2.2161"
       d="m 30.7455,20.4549 v -3.2356 c 0,-2.9061 2.3559,-5.262 5.262,-5.262 v 0 c 2.9061,0 5.262,2.3559 5.262,5.262 v 3.2356"
       id="path4" />
    <line
       x1="21.5343"
       x2="34.299801"
       y1="46.483398"
       y2="46.483398"
       fill="none"
       stroke="#000000"
       stroke-linecap="round"
       stroke-linejoin="round"
       stroke-width="2"
       id="line4" />
    <line
       x1="37.6926"
       x2="50.458099"
       y1="46.483398"
       y2="46.483398"
       fill="none"
       stroke="#000000"
       stroke-linecap="round"
       stroke-linejoin="round"
       stroke-width="2"
       id="line5" />
    <polygon
       fill="none"
       stroke="#000000"
       stroke-linecap="round"
       stroke-linejoin="round"
       stroke-width="2"
       points="15.9981,49.323 15.9981,52.661 15.9981,56 55.9981,56 55.9981,52.661 55.9981,49.323 "
       id="polygon5" />
    <circle
       cx="46.657398"
       cy="52.661201"
       r="1"
       id="circle5" />
    <circle
       cx="49.645"
       cy="52.661201"
       r="1"
       id="circle6" />
    <path
       fill="none"
       stroke="#000000"
       stroke-linecap="round"
       stroke-linejoin="round"
       stroke-width="2.2161"
       d="m 30.5259,20.61 c -0.9027,0 -1.6344,-0.7317 -1.6344,-1.6344 0,-0.9027 0.7317,-1.6344 1.6344,-1.6344"
       id="path6" />
    <path
       fill="none"
       stroke="#000000"
       stroke-linecap="round"
       stroke-linejoin="round"
       stroke-width="2.2161"
       d="m 41.2571,17.3412 c 0.9027,0 1.6344,0.7317 1.6344,1.6344 0,0.9027 -0.7317,1.6344 -1.6344,1.6344"
       id="path7" />
  </g>
</svg>
