<svg xmlns="http://www.w3.org/2000/svg" xmlns:svg="http://www.w3.org/2000/svg" id="emoji" width="38.199" height="48.71" version="1.1" viewBox="0 0 38.199 48.71"><g id="hair" transform="translate(-15.2535,-9.5201)"><path id="path1" fill="#6a462f" d="m 21.2176,47.98 a 23.37,23.37 0 0 1 -3.7511,-2.7264 c 0.0991,-0.0238 -2.427,-9.2257 1.1373,-13.3524 a 5.0455,5.0455 0 0 0 1.0486,-2.0019 13.024,13.024 0 0 0 0.7626,-5.72 20.4231,20.4231 0 0 1 0.5719,-5.91 c 1.2393,-4.5757 6.1963,-7.8168 12.1066,-7.8168 a 9.2646,9.2646 0 0 1 6.8635,2.5738 0.8657,0.8657 0 0 0 0.6673,0.286 c 3.5271,0.286 7.15,3.2411 7.15,6.7682 0.2859,5.72 0.7626,6.8636 2.1925,10.0094 0.1668,0.3755 0.3336,0.7321 0.5,1.0876 l 0.143,0.3032 c 0.1669,0.3555 0.3337,0.7121 0.5005,1.0876 2.5738,4.48 0.7626,11.7253 -0.3813,12.3926 a 21.6989,21.6989 0 0 1 -3.0371,2.3841 l -0.1335,-1.5214 -3.38,-2.8713 c 0,0 -3.4442,0.4319 -3.4442,4.7216 l -0.0076,2.7549 a 26.3227,26.3227 0 0 1 -12.4869,0.2927 l -0.0076,-3.0476 c 0,-4.29 -3.4442,-4.7216 -3.4442,-4.7216 l -3.38,2.8713 z M 17.4665,45.2536 17.4598,45.247 Z m 7.1429,-17.1655 v 0.9533 c 0,7.2448 4.385,12.9644 10.0093,12.9644 5.6243,0 10.0093,-5.7198 10.0093,-12.9646 0,-4.48 -1.7158,-7.15 -5.0523,-10.5814 a 57.3022,57.3022 0 0 1 -8.5794,5.529 c -2.4785,1.3346 -6.0056,3.3364 -6.3869,4.0991 z"/></g><g id="skin" transform="translate(-15.2535,-9.5201)"><path id="path2" fill="#c19a65" d="m 24.4516,28.1556 v 0.9532 c 0,7.2449 4.3851,12.9645 10.0094,12.9645 5.6243,0 10.009,-5.7196 10.009,-12.9645 0,-4.48 -1.7159,-7.1495 -5.0523,-10.5813 a 57.31,57.31 0 0 1 -8.5794,5.529 C 28.36,25.3911 24.833,27.393 24.4516,28.1556 Z"/><path id="path3" fill="#c19a65" d="m 52.9544,58.1836 a 0.9006,0.9006 0 0 1 -0.9532,-0.9533 v -2.86 c 0,-4.29 -4.29,-8.3888 -8.2935,-8.5794 -5.91,4.7663 -11.9159,4.7663 -17.8261,0 -4.0038,0.1906 -9.2468,4.29 -9.2468,8.5794 v 2.86 a 0.9006,0.9006 0 0 1 -0.9532,0.9533"/></g><g id="color" transform="translate(-15.2535,-9.5201)"><path id="path4" fill="#92d3f5" d="m 29,58.1836 c 0,0 -0.9094,-3.6072 -0.9094,-4.1791 l -0.0162,-6.263 c 0,-4.29 -3.4442,-4.7216 -3.4442,-4.7216 l -3.38,2.8713 -0.734,8.3554 0.13,3.937 z"/><path id="path5" fill="#92d3f5" d="m 39.6506,58.1836 c 0,0 0.9094,-3.6072 0.9094,-4.1791 l 0.0162,-6.263 c 0,-4.29 3.4442,-4.7216 3.4442,-4.7216 l 3.38,2.8713 0.734,8.3554 -0.13,3.937 z"/></g><g id="line" transform="translate(-15.2535,-9.5201)"><path id="path6" fill="none" stroke="#000" stroke-linecap="round" stroke-linejoin="round" stroke-width="2" d="m 20.6347,57.2294 -0.08,-8.2906 c 0,-0.9552 0.0782,-2.6339 0.713,-3.1639 a 5.2776,5.2776 0 0 1 1.5729,-0.5015 c 0.9009,-0.3145 1.3842,-2.7635 2.0982,-2.8683 0.5786,-0.0849 2.9208,2.7635 3.0638,2.9 a 6.0315,6.0315 0 0 1 0.1153,2.1678 28.1171,28.1171 0 0 0 -0.2259,6.0561 c 0.1,0.8789 0.837,3.7006 0.837,3.7006"/><path id="path7" fill="none" stroke="#000" stroke-linecap="round" stroke-linejoin="round" stroke-width="2" d="m 48.0149,57.2294 0.08,-8.2906 c 0,-0.9552 -0.0781,-2.6339 -0.713,-3.1639 A 5.2776,5.2776 0 0 0 45.809,45.2734 c -0.9008,-0.3145 -1.3841,-2.7635 -2.0982,-2.8683 -0.5786,-0.0849 -2.9208,2.7635 -3.0638,2.9 a 6.0315,6.0315 0 0 0 -0.1153,2.1678 28.1171,28.1171 0 0 1 0.2259,6.0561 c -0.1,0.8789 -0.8369,3.7006 -0.8369,3.7006"/><path id="path8" fill="none" stroke="#000" stroke-linecap="round" stroke-linejoin="round" stroke-width="2" d="m 31.506,36.5 a 7.7957,7.7957 0 0 0 6,0"/><path id="path9" fill="#000" d="M 40.0855,28.9065 A 1.9066,1.9066 0 1 1 38.179,27 a 1.9122,1.9122 0 0 1 1.9065,1.9065"/><path id="path10" fill="#000" d="M 32.46,28.9065 A 1.9066,1.9066 0 1 1 30.553,27 1.9122,1.9122 0 0 1 32.46,28.9065"/><path id="path11" fill="none" stroke="#000" stroke-linejoin="round" stroke-width="2" d="m 23.88,29.5855 c 0,7.6261 4.7663,13.3458 10.486,13.3458 5.7197,0 10.4859,-5.72 10.4859,-13.3458 0,-4.7664 -1.9065,-7.6262 -5.72,-11.4393 -3.8131,3.8131 -15.2523,8.58 -15.2523,10.486 z"/><path id="path12" fill="none" stroke="#000" stroke-linecap="round" stroke-linejoin="round" stroke-width="2" d="M 28.2206,47.5319 A 11.3883,11.3883 0 0 0 36,49.2361 v 0 a 12.3365,12.3365 0 0 0 3.9668,-1.3941"/><path id="path13" fill="none" stroke="#000" stroke-linecap="round" stroke-linejoin="round" stroke-width="2" d="m 16.2535,57.23 v -2.86 a 8.921,8.921 0 0 1 0.5752,-2.7366 C 17.2757,50.3061 17.9355,49.3658 20,48"/><path id="path14" fill="none" stroke="#000" stroke-linecap="round" stroke-linejoin="round" stroke-width="2" d="m 17.9694,44.5518 c -3.5271,-5.6243 -0.572,-9.628 1.1439,-14.0131 1.5253,-4.0037 -0.1906,-6.1962 1.2393,-11.4392 1.4299,-5.243 6.9589,-8.5794 13.06,-8.5794 5.1477,0 7.6262,2.86 7.6262,2.86 a 7.7436,7.7436 0 0 1 7.0542,7.6261 c 0.3813,6.8636 0.9532,6.8636 3.2411,12.2019 a 11.1874,11.1874 0 0 1 -1.3346,11.1533"/><path id="path15" fill="none" stroke="#000" stroke-linecap="round" stroke-linejoin="round" stroke-width="2" d="M 52.4525,57.23 V 54.37 A 8.921,8.921 0 0 0 51.8773,51.6334 C 51.43,50.3061 50.7705,49.3658 48.7056,48"/></g></svg>