<?xml version="1.0" encoding="UTF-8" standalone="no"?>
<svg
   id="emoji"
   viewBox="0 0 35.661598 38.402431"
   version="1.1"
   sodipodi:docname="1f9d8-1f3fb-200d-2642-fe0f.svg"
   width="35.661598"
   height="38.402431"
   xmlns:inkscape="http://www.inkscape.org/namespaces/inkscape"
   xmlns:sodipodi="http://sodipodi.sourceforge.net/DTD/sodipodi-0.dtd"
   xmlns="http://www.w3.org/2000/svg"
   xmlns:svg="http://www.w3.org/2000/svg">
  <defs
     id="defs6" />
  <sodipodi:namedview
     id="namedview6"
     pagecolor="#ffffff"
     bordercolor="#000000"
     borderopacity="0.25"
     inkscape:showpageshadow="2"
     inkscape:pageopacity="0.0"
     inkscape:pagecheckerboard="0"
     inkscape:deskcolor="#d1d1d1" />
  <g
     id="color"
     transform="translate(-16.4125,-15.020701)" />
  <g
     id="skin"
     transform="translate(-16.4125,-15.020701)">
    <circle
       cx="33.886501"
       cy="18.880501"
       r="3"
       fill="#fadcbc"
       id="circle1" />
    <path
       fill="#fadcbc"
       d="m 36.0006,45 c 1.066,1.9778 7.7058,1.4761 8.9146,-1.0219 0.2092,-0.4324 0.3383,-0.9295 0.25,-1.0266 -0.3518,-0.3851 -2.3909,-3.957 -2.3909,-3.957 l -1.4216,-4.8769 -0.399,-5.0915 -3.0663,-3.568 h -3.9986 l -4.4426,0.0953 -1.6144,1.6348 -0.949,3.0667 -1.5095,7.4889 -1.68,4.7054 -1.4474,1.56 a 1.6942,1.6942 0 0 0 0.3248,1.044 c 0.8042,1.0179 3.2,0.9607 4.43,-0.0527"
       id="path1" />
    <path
       fill="#fadcbc"
       d="M 29.4071,38.1251 A 15.1843,15.1843 0 0 1 27.29,43.2718 c 0,0 -0.6868,0.68 -5.5737,3.2535 -1.5993,0.858 -4.3741,3.3994 -4.3741,4.6387 0,1.2393 8.0366,1.0838 10.5049,1.0057 1.8632,-0.0582 5.9308,-1.8437 5.9308,-1.8437 l 7.7736,1.591 4.5145,0.6969 3.8215,-0.0439 1.4074,-1.6291 -1.4954,-2.2983 -7.2342,-3.571 -2.399,-2.3632 a 26.6905,26.6905 0 0 1 -1.6171,-5.9846 c -0.088,-2.14 -0.4372,-6.9779 0.1111,-6.9055"
       id="path2" />
  </g>
  <g
     id="line"
     transform="translate(-16.4125,-15.020701)">
    <circle
       cx="33.886501"
       cy="18.880501"
       r="2.8598001"
       fill="none"
       stroke="#000000"
       stroke-miterlimit="10"
       stroke-width="2"
       id="circle2" />
    <path
       fill="none"
       stroke="#000000"
       stroke-linecap="round"
       stroke-linejoin="round"
       stroke-width="2"
       d="m 22.7981,44.1789 c 0,0 2.4019,-5.5042 2.9719,-7.6558 a 16.8842,16.8842 0 0 0 0.4461,-5.2563 c -0.08,-2.1124 1.19,-5.2363 3.08,-5.8083 a 14.0485,14.0485 0 0 1 3.0209,-0.3536 c 0.1963,-0.0039 0.4956,-0.0106 0.692,-0.0077 0.1954,-0.0029 2.3622,0.0038 2.5577,0.0077 a 14.05,14.05 0 0 1 3.0218,0.3536 c 1.89,0.572 3.16,3.6959 3.08,5.8083 a 16.8594,16.8594 0 0 0 0.4451,5.2563 c 0.57,2.1516 2.4452,6.62 2.4452,6.62"
       id="path3" />
    <path
       fill="none"
       stroke="#000000"
       stroke-linecap="round"
       stroke-linejoin="round"
       stroke-width="2"
       d="m 27.9927,42.7723 a 28.2241,28.2241 0 0 0 1.5593,-3.7892 20.66,20.66 0 0 0 0.0844,-3.6234"
       id="path4" />
    <path
       fill="none"
       stroke="#000000"
       stroke-linecap="round"
       stroke-linejoin="round"
       stroke-width="2"
       d="m 27.414,51.9426 c 0,0 -0.5834,0.08 -1.25,0.24 -0.6668,0.08 -2,0.16 -2.9171,0.16 h -4.1675 a 1.6389,1.6389 0 0 1 -1.6669,-1.5991 3.0748,3.0748 0 0 1 1.5,-2.3988 l 3.0838,-1.5991"
       id="path5" />
    <path
       fill="none"
       stroke="#000000"
       stroke-linecap="round"
       stroke-linejoin="round"
       stroke-width="2"
       d="m 38.5223,35.36 a 20.6425,20.6425 0 0 0 0.0849,3.6233 28.2159,28.2159 0 0 0 1.5586,3.7893 c 0.42,1.1182 2.3241,1.8942 3.1572,2.3736 l 6.2506,3.2783 a 2.955,2.955 0 0 1 1.5005,2.3984 1.6391,1.6391 0 0 1 -1.6664,1.6 c 0,0 -5.04,-0.3108 -7.5012,-0.7436 -3.4871,-0.613 -13.22,-3.2783 -13.22,-3.2783 -0.917,-0.2393 -1.265,-0.5758 -1.0982,-1.2154 0.1668,-0.6396 0.5653,-0.7445 1.4824,-0.755 l 10.0265,0.0133"
       id="path6" />
  </g>
</svg>
