<?xml version="1.0" encoding="UTF-8" standalone="no"?>
<svg
   id="emoji"
   viewBox="0 0 42 42.9062"
   version="1.1"
   sodipodi:docname="1f9d8-1f3fb.svg"
   width="42"
   height="42.9062"
   xmlns:inkscape="http://www.inkscape.org/namespaces/inkscape"
   xmlns:sodipodi="http://sodipodi.sourceforge.net/DTD/sodipodi-0.dtd"
   xmlns="http://www.w3.org/2000/svg"
   xmlns:svg="http://www.w3.org/2000/svg">
  <defs
     id="defs5" />
  <sodipodi:namedview
     id="namedview5"
     pagecolor="#ffffff"
     bordercolor="#000000"
     borderopacity="0.25"
     inkscape:showpageshadow="2"
     inkscape:pageopacity="0.0"
     inkscape:pagecheckerboard="0"
     inkscape:deskcolor="#d1d1d1" />
  <g
     id="color"
     transform="translate(-15,-15.0938)" />
  <g
     id="hair"
     transform="translate(-15,-15.0938)" />
  <g
     id="skin-shadow"
     transform="translate(-15,-15.0938)" />
  <g
     id="skin"
     transform="translate(-15,-15.0938)">
    <circle
       cx="35.9688"
       cy="19.0938"
       r="3"
       fill="#fadcbc"
       id="circle1" />
    <path
       fill="#fadcbc"
       d="m 30,32 c 0,0 0,10 -1,13 l -0.543,0.126 c 0,0 -0.666,1.333 -6.208,3.958 C 20.4482,49.9365 17,53.7461 17,55.0801 17,56.4141 28.501,57 28.501,57 L 29,57.4141 39.4375,56 l 8.0635,1 4.5,0.4141 L 53.917,57 55,54.2471 53.3359,52.0918 45.501,47.9141 l -3.167,-3.834 -0.417,-12.5 c 0,0 1.1143,1.3262 1.709,7.8789 0.3086,3.3984 2.917,6.1142 3.791,6.9551 1.6377,1.5761 6.3203,4.7509 6.7627,4.9668 1.6123,0.7861 3.0703,-0.96 2.6533,-1.3809 -0.417,-0.4209 -5.5,-3.3369 -5.5,-3.3369 L 49.083,44.4971 45.9883,41.1826 45.5967,35.958 44.833,30.5791 40.5,27 H 35.9688 L 31,27.1113 l -2,1.3848 -1.667,2.833 -2.251,10.166 -2.3789,3.7539 -7.5381,5.3291 c 0,0 1.0176,1.96 2.96,0.6709 2.2666,-1.5049 6.8555,-4.9658 7.542,-5.709 C 26.6689,44.4551 28.3037,41.4004 28.625,39 29.334,33.707 30,32 30,32 Z"
       id="path1" />
  </g>
  <g
     id="line"
     transform="translate(-15,-15.0938)">
    <circle
       cx="35.9688"
       cy="19.0938"
       r="3"
       fill="none"
       stroke="#000000"
       stroke-miterlimit="10"
       stroke-width="2"
       id="circle2" />
    <path
       fill="none"
       stroke="#000000"
       stroke-linecap="round"
       stroke-linejoin="round"
       stroke-miterlimit="10"
       stroke-width="2"
       d="m 16,50 5.7959,-4.1084 c 2.2432,-1.5908 4.2471,-5.1357 4.4531,-7.8779 l 0.377,-5.0274 C 26.832,30.2441 29.0254,27.5498 31.5,27 c 2.4746,-0.5498 6.5254,-0.5498 9,0 2.4746,0.5498 4.668,3.2441 4.874,5.9863 l 0.377,5.0274 c 0.206,2.7422 2.2099,6.2871 4.4531,7.8779 L 56,50"
       id="path2" />
    <path
       fill="none"
       stroke="#000000"
       stroke-linecap="round"
       stroke-linejoin="round"
       stroke-miterlimit="10"
       stroke-width="2"
       d="m 29,46 c 0,0 0.2246,-0.4355 0.5,-0.9687 0.2754,-0.5333 0.5742,-1.8653 0.665,-2.962 L 31,32"
       id="path3" />
    <path
       fill="none"
       stroke="#000000"
       stroke-linecap="round"
       stroke-linejoin="round"
       stroke-miterlimit="10"
       stroke-width="2"
       d="m 29,56.4541 c 0,0 -0.6748,0.123 -1.5,0.2725 C 26.6748,56.877 25.0996,57 24,57 h -5 c -1.0996,0 -2,-0.9004 -2,-2 v 0 c 0,-1.0996 0.79,-2.4307 1.7559,-2.958 L 22.5,50"
       id="path4" />
    <path
       fill="none"
       stroke="#000000"
       stroke-linecap="round"
       stroke-linejoin="round"
       stroke-miterlimit="10"
       stroke-width="2"
       d="m 41,32 0.8467,11.0059 C 41.9307,44.1025 42.4502,45.4502 43,46 c 0.5498,0.5498 1.79,1.4307 2.7559,1.958 l 7.4882,4.084 C 54.21,52.5693 55,53.9004 55,55 v 0 c 0,1.0996 -0.9004,2 -2,2 h -5 c -1.0996,0 -2.8789,-0.1953 -3.9521,-0.4336 l -5.0958,-1.1328 c -1.0732,-0.2383 -2.8203,-0.6699 -3.8818,-0.96 L 27.9297,52.5264 C 26.8682,52.2363 26.1494,51.3252 26.333,50.5 c 0.1836,-0.8252 1.2324,-1.459 2.3311,-1.4092 L 48.666,50"
       id="path5" />
  </g>
</svg>
