<svg xmlns="http://www.w3.org/2000/svg" xmlns:svg="http://www.w3.org/2000/svg" id="emoji" width="47.2" height="49.9" version="1.1" viewBox="0 0 47.2 49.9"><g id="hair" transform="translate(-12.40008,-11.1)"><path id="path1" fill="#fcea2b" d="m 26.1,39.2 c -4,0 -4,-6 -4,-13 0,-7 4,-14 14,-14 10,0 14,7 14,14 0,7 0,13 -4,13"/></g><g id="skin" transform="translate(-12.40008,-11.1)"><path id="path2" fill="#debb90" d="m 24.9494,31.1 c 0,9 4.9,14 11,14 5.9,0 11.1,-5 11.1,-14 0.0246,-1.7187 -0.3163,-3.423 -1,-5 -3,-3 -7,-8 -7,-8 -4,3 -7,6 -13,7 0,0 -1.1,1 -1.1,6 z"/></g><g id="color" transform="translate(-12.40008,-11.1)"><path id="path3" fill="#d22f27" d="m 35.65,45.1 c -3.4,-0.1 -8.6,-5.7 -8.6,-5.7 h -13.6 c 1.5916,2.7161 3.0272,5.5207 4.3,8.4 1.281,3.1916 2.2196,6.5102 2.8,9.9 h 30.9 c 0.5804,-3.3898 1.519,-6.7084 2.8,-9.9 1.2728,-2.8793 2.7084,-5.6839 4.3,-8.4 h -13.9 c 0.1,0 -5.5,5.7 -9,5.7 z"/><path id="path4" fill="#3f3f3f" d="m 17,61 v -3.8 c 0,-5 5,-9 10,-9 6,5 12,5 18,0 5,0 10,4 10,9 V 61 Z"/><path id="path5" d="m 31.45,61 h 9 c 3.6,-2.9 5.6,-13.5 5.6,-13.5 -5.7672,5 -14.3328,5 -20.1,0 0,-0.1 2,10.5 5.5,13.5 z"/></g><g id="line" transform="translate(-12.40008,-11.1)"><path id="path6" fill="none" stroke="#000" stroke-linejoin="round" stroke-width="2" d="M 26.5,39.4 H 13.4 c 1.6694,2.6727 3.1079,5.4829 4.3,8.4 0.5072,1.2402 0.9413,2.509 1.3,3.8"/><path id="path7" fill="none" stroke="#000" stroke-linejoin="round" stroke-width="2" d="m 53,51.4 c 0.4,-1.2 0.8,-2.4 1.3,-3.6 1.1713,-2.9266 2.6108,-5.7385 4.3,-8.4 H 44.7"/><path id="path8" d="m 42,30.1 c 0,1.1046 -0.8954,2 -2,2 -1.1046,0 -2,-0.8954 -2,-2 0,-1.1046 0.8954,-2 2,-2 1.1032,0.0032 1.9968,0.8968 2,2"/><path id="path9" d="m 34,30.1 c 0,1.1046 -0.8954,2 -2,2 -1.1046,0 -2,-0.8954 -2,-2 0,-1.1046 0.8954,-2 2,-2 1.1032,0.0032 1.9968,0.8968 2,2"/><path id="path10" fill="none" stroke="#000" stroke-linecap="round" stroke-linejoin="round" stroke-width="2" d="m 33,39 c 1.875,-1 4.125,-1 6,0"/><path id="path11" fill="none" stroke="#000" stroke-linecap="round" stroke-linejoin="round" d="m 38,38.5 c 0.2408,0.0816 0.4748,0.1819 0.7,0.3"/><path id="path12" fill="none" stroke="#000" stroke-linecap="round" stroke-linejoin="round" stroke-width="2" d="m 17,60 v -3 c 0,-5 5,-9 10,-9 6,5 12,5 18,0 5,0 10,4 10,9 v 3"/><polygon id="polygon12" stroke="#000" stroke-linecap="round" stroke-linejoin="round" points="35.1 38.8 35 38.7 34 38.7 34.3 41.1"/><polygon id="polygon13" stroke="#000" stroke-linecap="round" stroke-linejoin="round" points="36.9 38.8 36.8 38.7 37.9 38.7 37.7 41.1"/><path id="path13" fill="none" stroke="#000" stroke-linejoin="round" stroke-width="2" d="m 24.9494,31.1 c 0,9 4.9,14 11,14 5.9,0 11.1,-5 11.1,-14 0.0246,-1.7187 -0.3163,-3.423 -1,-5 -3,-3 -7,-8 -7,-8 -4,3 -7,6 -13,7 0,0 -1.1,1 -1.1,6 z"/><path id="path14" fill="none" stroke="#000" stroke-linecap="round" stroke-linejoin="round" stroke-width="2" d="m 26,39.1 c -4,0 -4,-6 -4,-13 0,-7 4,-14 14,-14 10,0 14,7 14,14 0,7 0,13 -4,13"/></g></svg>