<?xml version="1.0" encoding="UTF-8" standalone="no"?>
<svg
   id="emoji"
   viewBox="0 0 53.171631 50.179546"
   version="1.1"
   sodipodi:docname="1f9dd-1f3fb-200d-2640-fe0f.svg"
   width="53.171631"
   height="50.179546"
   xmlns:inkscape="http://www.inkscape.org/namespaces/inkscape"
   xmlns:sodipodi="http://sodipodi.sourceforge.net/DTD/sodipodi-0.dtd"
   xmlns="http://www.w3.org/2000/svg"
   xmlns:svg="http://www.w3.org/2000/svg">
  <defs
     id="defs24" />
  <sodipodi:namedview
     id="namedview24"
     pagecolor="#ffffff"
     bordercolor="#000000"
     borderopacity="0.25"
     inkscape:showpageshadow="2"
     inkscape:pageopacity="0.0"
     inkscape:pagecheckerboard="0"
     inkscape:deskcolor="#d1d1d1" />
  <g
     id="color"
     transform="translate(-9.3315716,-10.855453)">
    <path
       fill="#ffa7c0"
       d="m 54.9246,60.9315 c 0,0 2,-14.0268 -10,-14.0268 -3.1919,2.1279 -5.9264,3.5984 -9,3.5921 h 0.125 c -3.0736,0.0063 -5.8082,-1.4642 -9,-3.5921 -12,0 -10,14.0268 -10,14.0268 z"
       id="path1" />
    <path
       fill="#e67a94"
       d="m 45.3106,46.9047 a 18.0129,18.0129 0 0 1 -8.9375,3.5885 c 13.0625,0.4115 12.9775,6.395 13.74,10.395 h 5.1129 c 0,0 2.0846,-13.9835 -9.9154,-13.9835 z"
       id="path2" />
    <polyline
       fill="#6a462f"
       points="18.058 52.064 18.058 42.499 25.143 42.499 25.143 46.063"
       id="polyline2" />
    <path
       fill="#a57939"
       d="M 47.97,60.9583 C 29.4706,55.8225 27.05,46.9047 27.05,46.9047 c 0,0 -4.2,0.2046 -5.6776,1.3537 3.1163,6.4287 5.9346,9.5505 14.1044,12.6807"
       id="path3" />
  </g>
  <g
     id="skin"
     transform="translate(-9.3315716,-10.855453)">
    <path
       fill="#fadcbc"
       d="m 38.1556,20.7562 a 9.3946,9.3946 0 0 1 -2.18,-5.054 c -0.028,0 -0.0549,-0.0052 -0.0829,-0.0052 a 8.2719,8.2719 0 0 1 -1.98,5.0591 10.8766,10.8766 0 0 1 -8.7937,4.7087 17.3993,17.3993 0 0 0 -0.5656,4.4052 c 0,7.8277 5.0765,14.1732 11.3386,14.1732 6.2621,0 11.339,-6.3455 11.339,-14.1732 a 17.3453,17.3453 0 0 0 -0.6258,-4.6109 9.7529,9.7529 0 0 1 -8.4496,-4.5029 z"
       id="path4" />
    <path
       fill="#fadcbc"
       d="m 46.6784,24.6989 11.45,-1.6359 c 0,0 -6.2678,9.8488 -10.494,8.7989"
       id="path5" />
    <path
       fill="#fadcbc"
       d="M 25.5687,24.68 14.2512,23.063 c 0,0 6.1888,9.7351 10.3663,8.697"
       id="path6" />
  </g>
  <g
     id="hair"
     transform="translate(-9.3315716,-10.855453)">
    <path
       fill="#a57939"
       d="M 35.8617,11.9194 A 15.35,15.35 0 0 0 20.7253,24.765 c 8.8261,3.0574 13.1564,-3.9388 13.1564,-3.9388 a 8.2716,8.2716 0 0 0 1.98,-5.0592 h 0.0826 a 9.3969,9.3969 0 0 0 2.18,5.0592 c 0,0 3.413,6.46 12.8727,3.93 A 15.3509,15.3509 0 0 0 35.8617,11.9194 Z"
       id="path7" />
    <path
       fill="#a57939"
       d="m 47.2631,32.3374 4.8794,-1.5357 c 0,0 -0.943,1.64 1.023,3.999 1.6993,2.0393 5.1445,3.7393 4.2145,7.2732 a 9.8857,9.8857 0 0 0 2.8549,9.9242 c 3.4065,3.23 0.0162,8.9354 0.0162,8.9354 h -5.4117 c 1.767,-13.95 -9.5789,-13.8569 -9.5789,-13.8569 -10.4159,8.0909 -17.3908,0 -17.3908,0 l -2.139,0.372 -0.093,-4.371 -7.6259,-0.186 0.2789,9.3 -1.2285,8.7 h -5.4537 c -3.19,-7.3723 -0.3577,-8.8028 1.5455,-11.1139 1.4022,-1.7026 1.7421,-7.0244 1.7421,-7.0244 0,0 -1.7374,-3.9066 2.4935,-7.603 3.5625,-3.1125 2.4133,-4.8758 2.4133,-4.8758 l 4.7671,2.164 c 0,0 4.325,12.2015 10.8485,11.6415 7.2879,-0.6255 10.248,-3.8931 11.8446,-11.7429"
       id="path8" />
  </g>
  <g
     id="line"
     transform="translate(-9.3315716,-10.855453)">
    <path
       d="m 42.0105,28.5516 a 2,2 0 1 1 -2,-2 2.0007,2.0007 0 0 1 2,2"
       id="path9" />
    <path
       d="m 34.0105,28.5516 a 2,2 0 1 1 -2,-2 2.0007,2.0007 0 0 1 2,2"
       id="path10" />
    <path
       d="m 36.01,38.554 a 7.6528,7.6528 0 0 1 -3.4473,-0.8579 1.0001261,1.0001261 0 0 1 0.8945,-1.7891 5.3774,5.3774 0 0 0 5.1055,0 1.0001261,1.0001261 0 1 1 0.8945,1.7891 7.6524,7.6524 0 0 1 -3.4472,0.8579 z"
       id="path11" />
    <path
       fill="none"
       stroke="#000000"
       stroke-linecap="round"
       stroke-linejoin="round"
       stroke-width="2"
       d="M 50.9578,24.1129 C 46.4844,10.4921 36.01,11.8916 36.01,11.8916 c 0,0 -10.3528,-1.3834 -14.8688,11.9864"
       id="path12" />
    <path
       fill="none"
       stroke="#000000"
       stroke-linecap="round"
       stroke-linejoin="round"
       stroke-width="2"
       d="M 25.4555,24.6987 14.138,23.0816 c 0,0 6.1889,9.7351 10.3663,8.6973"
       id="path13" />
    <path
       fill="none"
       stroke="#000000"
       stroke-linecap="round"
       stroke-linejoin="round"
       stroke-width="2"
       d="m 46.5652,24.7175 11.45,-1.6359 c 0,0 -6.2678,9.8488 -10.494,8.7989"
       id="path14" />
    <circle
       cx="36.010399"
       cy="22.1129"
       r="1.5"
       id="circle14" />
    <path
       fill="none"
       stroke="#000000"
       stroke-linecap="round"
       stroke-linejoin="round"
       stroke-width="2"
       d="m 36.01,15.7392 a 20.4581,20.4581 0 0 1 -3.08,5.0592"
       id="path15" />
    <path
       fill="none"
       stroke="#000000"
       stroke-linecap="round"
       stroke-linejoin="round"
       stroke-width="2"
       d="m 36.01,15.7392 a 20.4558,20.4558 0 0 0 3.08,5.0592"
       id="path16" />
    <polyline
       fill="none"
       stroke="#000000"
       stroke-linecap="round"
       stroke-linejoin="round"
       stroke-width="2"
       points="18.082 52.072 18.082 42.506 25.167 42.506 25.167 46.071"
       id="polyline16" />
    <line
       x1="20.0159"
       x2="20.0159"
       y1="42.467701"
       y2="37.724499"
       fill="none"
       stroke="#000000"
       stroke-linecap="round"
       stroke-linejoin="round"
       stroke-width="2"
       id="line16" />
    <line
       x1="23.3874"
       x2="23.3874"
       y1="42.5065"
       y2="39.065201"
       fill="none"
       stroke="#000000"
       stroke-linecap="round"
       stroke-linejoin="round"
       stroke-width="2"
       id="line17" />
    <path
       fill="none"
       stroke="#000000"
       stroke-linecap="round"
       stroke-linejoin="round"
       stroke-width="2"
       d="m 54.9479,59.9124 c 0,0 2,-13 -10,-13 -3.1919,2.1279 -5.9264,3.5984 -9,3.5921 h 0.125 c -3.0736,0.0063 -5.8082,-1.4642 -9,-3.5921 -12,0 -10,13 -10,13"
       id="path17" />
    <path
       fill="none"
       stroke="#000000"
       stroke-linecap="round"
       stroke-linejoin="round"
       stroke-width="2"
       d="m 26.4333,24.51 -0.9825,0.2293 a 17.29,17.29 0 0 0 -0.779,5.1733 c 0,7.8276 5.0765,14.1732 11.3386,14.1732 6.2621,0 11.3386,-6.3458 11.3386,-14.1734 a 17.29,17.29 0 0 0 -0.7791,-5.1733 l -0.8123,-0.3239"
       id="path18" />
    <path
       fill="none"
       stroke="#000000"
       stroke-linecap="round"
       stroke-linejoin="round"
       stroke-width="2"
       d="m 46.5652,24.7175 11.45,-1.6359 c 0,0 -6.2678,9.8488 -10.494,8.7989"
       id="path19" />
    <path
       fill="none"
       stroke="#000000"
       stroke-linecap="round"
       stroke-linejoin="round"
       stroke-width="2"
       d="M 47.89,59.9691 C 29.3908,54.8333 27.0729,46.9124 27.0729,46.9124 c 0,0 -4.2,0.2046 -5.6776,1.3537 3.1163,6.4287 5.69,8.6387 13.86,11.7689"
       id="path20" />
    <path
       fill="none"
       stroke="#000000"
       stroke-linecap="round"
       stroke-linejoin="round"
       stroke-width="2"
       d="m 19.6347,30.2912 c 0,0 -0.06,3.717 -2.7115,5.1447 -2.5417,1.4408 -2.7524,4.5177 -2.2435,7.0705 0.7479,3.5353 0.4079,5.7108 -2.2435,8.0223 -3.12,2.72 -2.1923,7.7515 -0.9,9.3831"
       id="path21" />
    <path
       fill="none"
       stroke="#000000"
       stroke-linecap="round"
       stroke-linejoin="round"
       stroke-width="2"
       d="m 26.8294,21.54 a 6.5528,6.5528 0 0 0 6.0977,1.5354"
       id="path22" />
    <path
       fill="none"
       stroke="#000000"
       stroke-linecap="round"
       stroke-linejoin="round"
       stroke-width="2"
       d="m 45.19,21.54 a 6.5525,6.5525 0 0 1 -6.0976,1.5354"
       id="path23" />
    <path
       fill="none"
       stroke="#000000"
       stroke-linecap="round"
       stroke-linejoin="round"
       stroke-width="2"
       d="m 52.2,30.2912 c 0,0 0.06,3.717 2.7115,5.1447 2.5417,1.4408 2.7524,4.5177 2.2435,7.0705 -0.7478,3.5353 -0.4079,5.7108 2.2435,8.0223 3.12,2.72 2.1923,7.7515 0.9006,9.3831"
       id="path24" />
  </g>
</svg>
