<?xml version="1.0" encoding="UTF-8" standalone="no"?>
<svg
   id="emoji"
   viewBox="0 0 49.6087 56.632683"
   version="1.1"
   sodipodi:docname="1f9d7-1f3fb-200d-2642-fe0f.svg"
   width="49.6087"
   height="56.632683"
   xmlns:inkscape="http://www.inkscape.org/namespaces/inkscape"
   xmlns:sodipodi="http://sodipodi.sourceforge.net/DTD/sodipodi-0.dtd"
   xmlns="http://www.w3.org/2000/svg"
   xmlns:svg="http://www.w3.org/2000/svg">
  <defs
     id="defs10" />
  <sodipodi:namedview
     id="namedview10"
     pagecolor="#ffffff"
     bordercolor="#000000"
     borderopacity="0.25"
     inkscape:showpageshadow="2"
     inkscape:pageopacity="0.0"
     inkscape:pagecheckerboard="0"
     inkscape:deskcolor="#d1d1d1" />
  <g
     id="skin"
     transform="translate(-7.7812,-5.9520001)">
    <path
       fill="#fadcbc"
       d="m 49.5811,21.6466 4.7663,2.2879 -2.6692,12.5832 -1.0486,1.43 -2.0018,11.3438 2.86,11.4393 -2.86,0.9532 -4.7664,-12.3925 V 39.7588 L 35.282,34.9924 28.0981,42.2583 26.0534,40.5538 34.3287,30.2261 44.92,33.4987 c 0,0 2.4737,-8.53 2.7549,-8.9922 A 96.0264,96.0264 0 0 1 36.4259,21.742 c -1.43,-0.4767 -2.86,-1.5253 -1.9065,-3.4318"
       id="path1" />
    <circle
       cx="53.3899"
       cy="16.022301"
       r="2.8598001"
       fill="#fadcbc"
       id="circle1" />
  </g>
  <g
     id="color"
     transform="translate(-7.7812,-5.9520001)">
    <path
       fill="#d0cfce"
       stroke="#d0cfce"
       stroke-linejoin="round"
       stroke-width="2"
       d="M 42.0227,8.3009 V 9.2541 L 40.54,15.16 l -5.5639,1.11 -2.6968,2.2116 1.817,4.2544 -0.653,3.6768 -2.86,1.9065 -1.9066,1.9066 -5.182,10.4965 0.817,2.1191 0.6473,1.2173 0.387,0.8894 -2.52,4.4842 -3.87,5.793 -4.5786,5.5052 L 8.7913,61.5847 8.7812,6.952 37.4727,6.9853 Z"
       id="path2" />
    <path
       fill="#92d3f5"
       d="m 52.532,33.2766 2.9551,0.9532 -1.2392,3.6225 -2.9552,-0.9533"
       id="path3" />
  </g>
  <g
     id="line"
     transform="translate(-7.7812,-5.9520001)">
    <path
       fill="none"
       stroke="#000000"
       stroke-linecap="round"
       stroke-linejoin="round"
       stroke-width="2"
       d="M 19.0722,55.0112 25.7451,44.5252 23.6593,40.2431 29.5467,29.2843 34.62,25.781 34.31,23.12"
       id="path4" />
    <path
       fill="none"
       stroke="#000000"
       stroke-linecap="round"
       stroke-linejoin="round"
       stroke-width="2"
       d="m 45.9677,30.7714 6.4689,2.3145"
       id="path5" />
    <path
       fill="none"
       stroke="#000000"
       stroke-linecap="round"
       stroke-linejoin="round"
       stroke-width="2"
       d="m 52.532,33.2766 2.9551,0.9533 -1.2392,3.6224 -2.9552,-0.9533"
       id="path6" />
    <path
       fill="none"
       stroke="#000000"
       stroke-linecap="round"
       stroke-linejoin="round"
       stroke-width="2"
       d="M 40.6908,14.4533 41.9072,9.4105"
       id="path7" />
    <circle
       cx="53.3899"
       cy="16.022301"
       r="3"
       fill="none"
       stroke="#000000"
       stroke-miterlimit="10"
       stroke-width="2"
       id="circle7" />
    <path
       fill="none"
       stroke="#000000"
       stroke-linecap="round"
       stroke-linejoin="round"
       stroke-width="2"
       d="M 44.4092,33.1669 36.1357,30.798 a 3.05,3.05 0 0 0 -3.05,0.9533 l -6.1452,7.6967 a 2.0726,2.0726 0 0 0 -0.3041,2.5348 c 0.44,0.51 1.7187,0.1649 2.4814,-0.5977 l 4.8254,-5.0581 a 2.59,2.59 0 0 1 3.05,-0.3813 l 5.243,2.9551 a 9.2638,9.2638 0 0 0 3.5271,0.9533 h 0.9532 a 5.2968,5.2968 0 0 0 3.2412,-1.43 l 0.4766,-0.4766 a 7.3208,7.3208 0 0 0 1.7159,-3.1458 c 0.1906,-0.9533 0.3813,-1.7159 0.3813,-1.7159"
       id="path8" />
    <path
       fill="none"
       stroke="#000000"
       stroke-linecap="round"
       stroke-linejoin="round"
       stroke-width="2"
       d="M 50.6255,37.9476 49.0049,47.385 A 12.1659,12.1659 0 0 0 49.1,51.1027 l 1.9066,7.7215 a 1.8053,1.8053 0 0 1 -0.9533,2.2879 1.7817,1.7817 0 0 1 -2.0972,-1.3346 L 44.5243,50.9121 A 12.201,12.201 0 0 1 43.857,47.1943 v -6.6729"
       id="path9" />
    <path
       fill="none"
       stroke="#000000"
       stroke-linecap="round"
       stroke-linejoin="round"
       stroke-width="2"
       d="m 52.4367,33.0859 1.8112,-5.91 c 0.5719,-2.0019 -0.1907,-4.099 -1.8112,-4.5757 a 54.1713,54.1713 0 0 0 -6.6729,-1.43 h -0.0954 c -2.0972,-0.286 -5.2429,-0.8579 -7.1495,-1.3346 -1.8112,-0.4766 -3.3364,-0.9532 -3.3364,-0.9532"
       id="path10" />
  </g>
</svg>
