<?xml version="1.0" encoding="UTF-8" standalone="no"?>
<svg
   id="emoji"
   viewBox="0 0 38.200096 48.799999"
   version="1.1"
   sodipodi:docname="1f9d6.svg"
   width="38.200096"
   height="48.799999"
   xmlns:inkscape="http://www.inkscape.org/namespaces/inkscape"
   xmlns:sodipodi="http://sodipodi.sourceforge.net/DTD/sodipodi-0.dtd"
   xmlns="http://www.w3.org/2000/svg"
   xmlns:svg="http://www.w3.org/2000/svg">
  <defs
     id="defs16" />
  <sodipodi:namedview
     id="namedview16"
     pagecolor="#ffffff"
     bordercolor="#000000"
     borderopacity="0.25"
     inkscape:showpageshadow="2"
     inkscape:pageopacity="0.0"
     inkscape:pagecheckerboard="0"
     inkscape:deskcolor="#d1d1d1" />
  <g
     id="color"
     transform="translate(-15.299951,-9.5)">
    <path
       fill="#92d3f5"
       d="m 29,58.2 c 0,0 -0.9,-3.6 -0.9,-4.2 V 47.7 C 28.1,43.4 24.7,43 24.7,43 l -3.4,2.9 -0.7,8.4 0.1,3.9 z"
       id="path1" />
    <path
       fill="#92d3f5"
       d="m 39.7,58.2 c 0,0 0.9,-3.6 0.9,-4.2 V 47.7 C 40.6,43.4 44,43 44,43 l 3.4,2.9 0.7,8.4 -0.1,3.9 z"
       id="path2" />
  </g>
  <g
     id="skin"
     transform="translate(-15.299951,-9.5)">
    <path
       fill="#fcea2b"
       d="M 20.6,58.2 20,48.3 c -2,1.6 -3.5,3.8 -3.5,6.1 v 2.9 a 1.9074,1.9074 0 0 1 -0.4,1"
       id="path3" />
    <path
       fill="#fcea2b"
       d="m 23.3,29.3 c -0.1,7.7 4.1,13.4 11,13.4 7.1,0 11.1,-5.8 11.1,-13.4 0,-4.8 -7.2,-12.5 -7.2,-12.5 -3.6,1.5 -8.6,4.9 -13.7,7.2 -1.9,2.5 -1.1,2.2 -1.2,5.3 z"
       id="path4" />
    <path
       fill="#fcea2b"
       d="M 28.9,58.2 28.1,47.5 c 0,0 7.4,3.2 12.1,-0.2 l -0.3,10.9 z"
       id="path5" />
    <polygon
       fill="#fcea2b"
       points="51.9,51.6 52.3,58.2 48,58.2 48.1,48.3 "
       id="polygon5" />
  </g>
  <g
     id="hair"
     transform="translate(-15.299951,-9.5)">
    <path
       fill="#f1b31c"
       d="M 44.1,37.2 C 46,33.9 44.7,27.3 44.3,25.4 43.9,23.5 37.8,16 37.8,16 c -2.3,4.1 -9,5.1 -12.8,7.9 -3.8,2.8 -0.2,13.9 -0.2,13.9 -4,0 -4,-6 -4,-13 0,-7 4,-14 14,-14 10,0 14,7 14,14 0,7 0,13 -4,13 l -0.7,-0.6"
       id="path6" />
  </g>
  <g
     id="line"
     transform="translate(-15.299951,-9.5)">
    <path
       fill="none"
       stroke="#000000"
       stroke-linecap="round"
       stroke-linejoin="round"
       stroke-width="2"
       d="m 20.6,57.2 -0.1,-8.3 c 0,-1 0.1,-2.6 0.7,-3.2 a 7.4939,7.4939 0 0 1 1.6,-0.5 c 0.9,-0.3 1.4,-2.8 2.1,-2.9 0.6,-0.1 2.9,2.8 3.1,2.9 a 5.3665,5.3665 0 0 1 0.1,2.2 24.7765,24.7765 0 0 0 -0.2,6.1 c 0.1,0.9 0.8,3.7 0.8,3.7"
       id="path7" />
    <path
       fill="none"
       stroke="#000000"
       stroke-linecap="round"
       stroke-linejoin="round"
       stroke-width="2"
       d="m 48,57.2 0.1,-8.3 c 0,-1 -0.1,-2.6 -0.7,-3.2 a 7.4939,7.4939 0 0 0 -1.6,-0.5 c -0.9,-0.3 -1.4,-2.8 -2.1,-2.9 -0.6,-0.1 -2.9,2.8 -3.1,2.9 a 5.3665,5.3665 0 0 0 -0.1,2.2 24.7765,24.7765 0 0 1 0.2,6.1 c -0.1,0.9 -0.8,3.7 -0.8,3.7"
       id="path8" />
    <path
       fill="none"
       stroke="#000000"
       stroke-linecap="round"
       stroke-linejoin="round"
       stroke-width="2"
       d="m 28.2,47.5 a 11.3052,11.3052 0 0 0 7.8,1.7 v 0 a 11.9485,11.9485 0 0 0 4,-1.4"
       id="path9" />
    <path
       fill="none"
       stroke="#000000"
       stroke-linecap="round"
       stroke-linejoin="round"
       stroke-width="2"
       d="m 16.3,57.2 v -2.9 a 6.264,6.264 0 0 1 0.6,-2.7 C 17.3,50.3 18,49.3 20.1,48"
       id="path10" />
    <path
       fill="none"
       stroke="#000000"
       stroke-linecap="round"
       stroke-linejoin="round"
       stroke-width="2"
       d="M 52.5,57.2 V 54.3 A 6.264,6.264 0 0 0 51.9,51.6 C 51.5,50.3 50.8,49.3 48.7,48"
       id="path11" />
    <g
       id="g16">
      <path
         fill="none"
         stroke="#000000"
         stroke-linecap="round"
         stroke-linejoin="round"
         stroke-width="2"
         d="m 24.5,37.5 c -4,0 -4,-6 -4,-13 0,-7 4,-14 14,-14 10,0 14,7 14,14 0,7 0,13 -4,13"
         id="path12" />
      <path
         d="m 40.4,28.5 a 2,2 0 1 1 -2,-2 2.0059,2.0059 0 0 1 2,2"
         id="path13" />
      <path
         d="m 32.4,28.5 a 2,2 0 1 1 -2,-2 2.0059,2.0059 0 0 1 2,2"
         id="path14" />
      <path
         fill="none"
         stroke="#000000"
         stroke-linejoin="round"
         stroke-width="2"
         d="m 23.4,29.5 c 0,9 4.9,14 11,14 5.9,0 11.1,-5 11.1,-14 a 12.1332,12.1332 0 0 0 -1,-5 c -3,-3 -7,-8 -7,-8 -4,3 -7,6 -13,7 0,0 -1.1,1 -1.1,6 z"
         id="path15" />
      <path
         fill="none"
         stroke="#000000"
         stroke-linecap="round"
         stroke-linejoin="round"
         stroke-width="2"
         d="m 31.5,36.5 a 6.6712,6.6712 0 0 0 6,0"
         id="path16" />
    </g>
  </g>
</svg>
