<?xml version="1.0" encoding="UTF-8" standalone="no"?>
<svg
   id="emoji"
   viewBox="0 0 48.311867 52.750999"
   version="1.1"
   sodipodi:docname="1f9d9-1f3fc-200d-2640-fe0f.svg"
   width="48.311867"
   height="52.750999"
   xmlns:inkscape="http://www.inkscape.org/namespaces/inkscape"
   xmlns:sodipodi="http://sodipodi.sourceforge.net/DTD/sodipodi-0.dtd"
   xmlns="http://www.w3.org/2000/svg"
   xmlns:svg="http://www.w3.org/2000/svg">
  <defs
     id="defs18" />
  <sodipodi:namedview
     id="namedview18"
     pagecolor="#ffffff"
     bordercolor="#000000"
     borderopacity="0.25"
     inkscape:showpageshadow="2"
     inkscape:pageopacity="0.0"
     inkscape:pagecheckerboard="0"
     inkscape:deskcolor="#d1d1d1" />
  <g
     id="hair"
     transform="translate(-13.000409,-8.3)">
    <path
       fill="#fcea2b"
       d="m 41.4163,13.561 c -0.0928,-0.1 -2.4082,-2.6547 -7.2432,-2.6547 -6.2,0 -11.4413,3.3818 -12.743,8.226 -0.534,2.0122 0.2752,4.1001 0.4355,6.1758 0.2039,2.019 -0.0563,4.0578 -0.7607,5.9609 -0.2481,0.7561 -0.6269,1.4627 -1.1192,2.0879 -3.7725,4.42 -0.9237,14.1072 -1.1159,13.8144 1.1226,1.0189 1.288,2.125 2.5821,2.9149 1.5566,-1.1839 3.4138,-1.908 5.361,-2.09 6.209,5.0127 12.4951,5.0127 18.7,0 1.5145,0.1121 2.9697,0.6354 4.2087,1.5136 1.0534,-0.6931 2.0475,-1.4724 2.972,-2.33 1.1884,-0.7148 4.6164,-8.3882 1.883,-13.1314 -0.4386,-0.8534 -0.8251,-1.7326 -1.1573,-2.6328 -0.5702,-1.1775 -1.0541,-2.3948 -1.4479,-3.6424 -0.6,-2.0685 -0.1322,-2.4675 -0.6672,-3.7278 -0.5729,-1.2495 -3.0276,-2.1732 -4.2363,-2.8278"
       id="path1" />
  </g>
  <g
     id="skin"
     transform="translate(-13.000409,-8.3)">
    <path
       fill="#debb90"
       d="M 25.9065,25.7998 C 25.3022,27.3152 25,28.9565 25,30.9 c 0,8 5,14 11,14 6,0 11,-6 11,-14 0,-1.9435 -0.3022,-3.5848 -0.9065,-5.1002"
       id="path2" />
  </g>
  <g
     id="color"
     transform="translate(-13.000409,-8.3)">
    <path
       fill="#92d3f5"
       d="m 17,60.949 v -4 c 0,-4.9941 5.0078,-9 10,-9 6,5 12,5 18,0 4.9941,0 10,4.0059 10,9 v 4"
       id="path3" />
    <path
       fill="#61b2e4"
       d="m 45.6624,60.949 v -4.0122 c -0.1404,-2.631 -1.5943,-5.2619 -3.6479,-6.9125 0.9952,-0.5542 1.9904,-1.246 2.9855,-2.0753 4.9941,0 10,4.0059 10,9 v 4"
       id="path4" />
    <path
       fill="#92d3f5"
       d="M 14,25.685 H 58 L 46.149,20.835 C 45.9308,16.5838 43.919,9.4857 35.2382,9.2681 c -12.97,0 -15.2347,13.47 -15.2347,13.47"
       id="path5" />
    <path
       fill="#61b2e4"
       d="m 20.0701,31.9327 c -0.72,1.87 -1.66,3.68 -2.28,5.55 l -1.15,-4.23 c -0.1404,-0.6378 -0.0593,-1.3045 0.23,-1.89 l 1.59,-5.68 h 2.29 c 0.251,2.1079 0.0184,4.2453 -0.68,6.25 z"
       id="path6" />
    <path
       fill="#61b2e4"
       d="m 53.3683,40.539 c -2.5437,-1.0747 -3.7346,-4.008 -2.6599,-6.5517 1.0747,-2.5437 4.008,-3.7346 6.5517,-2.6599 2.5437,1.0747 3.7346,4.008 2.6599,6.5517 -0.4479,1.0601 -1.2477,1.9332 -2.2646,2.4721"
       id="path7" />
    <path
       fill="#92d3f5"
       d="m 55.3145,32.4717 c -0.8786,0.137 -1.6948,0.5381 -2.34,1.15 1.5407,-0.3467 3.1393,-0.3467 4.68,0 -0.6452,-0.6119 -1.4614,-1.013 -2.34,-1.15 z"
       id="path8" />
    <polyline
       fill="#a57939"
       points="57.314,61 57.314,40.539 53.314,40.539 53.314,61"
       id="polyline8" />
  </g>
  <g
     id="line"
     transform="translate(-13.000409,-8.3)">
    <path
       fill="none"
       stroke="#000000"
       stroke-linecap="round"
       stroke-linejoin="round"
       stroke-width="2"
       d="m 53.3683,40.59 c -2.5437,-1.0747 -3.7346,-4.008 -2.6599,-6.5517 1.0747,-2.5437 4.008,-3.7346 6.5517,-2.6599 2.5437,1.0747 3.7346,4.008 2.6599,6.5517 -0.4479,1.0601 -1.2477,1.9332 -2.2646,2.4721"
       id="path9" />
    <polyline
       fill="none"
       stroke="#000000"
       stroke-linecap="round"
       stroke-linejoin="round"
       stroke-width="2"
       points="57.314,60.051 57.314,40.605 53.314,40.605 53.314,60.051"
       id="polyline9" />
    <path
       fill="none"
       stroke="#000000"
       stroke-linecap="round"
       stroke-linejoin="round"
       stroke-width="2"
       d="m 17,60 v -3 c 0,-4.9941 5.0078,-9 10,-9 6,5 12,5 18,0 3.2121,0 6.4292,1.6572 8.316,4.1687"
       id="path10" />
    <path
       fill="none"
       stroke="#000000"
       stroke-linecap="round"
       stroke-linejoin="round"
       stroke-width="2"
       d="M 19.0858,25.8 16.9,31.4 c -0.3115,0.5831 -0.3832,1.2648 -0.2,1.9 l 1.425,5.4454"
       id="path11" />
    <path
       fill="none"
       stroke="#000000"
       stroke-linecap="round"
       stroke-linejoin="round"
       stroke-width="2"
       d="m 26.9,17.5 c -0.4245,1.0967 -0.7263,2.2369 -0.9,3.4 v 0 L 14,25.8 H 58 L 46.1,20.9 C 45.9,16.6 43.9,9.6 35.2,9.3 22.2,9.3 20,22.8 20,22.8"
       id="path12" />
    <path
       fill="none"
       stroke="#000000"
       stroke-linecap="round"
       stroke-linejoin="round"
       stroke-width="2"
       d="m 50.7171,25.8 c 0.1484,1.2016 0.3347,2.1097 0.587,2.9501"
       id="path13" />
    <path
       fill="none"
       stroke="#000000"
       stroke-linecap="round"
       stroke-linejoin="round"
       stroke-width="2"
       d="m 19.6646,46.6 c -3.7,-5.9 -0.6,-10.1 1.2,-14.7 0.8867,-2.3275 0.7292,-4.0715 0.6678,-6.1"
       id="path14" />
    <path
       d="m 42,29.9 c 0,1.1 -0.9,2 -2,2 -1.1,0 -2,-0.9 -2,-2 0,-1.1 0.9,-2 2,-2 1.1,0 2,0.9 2,2"
       id="path15" />
    <path
       d="m 34,29.9 c 0,1.1 -0.9,2 -2,2 -1.1,0 -2,-0.9 -2,-2 0,-1.1 0.9,-2 2,-2 1.1,0 2,0.9 2,2"
       id="path16" />
    <path
       fill="none"
       stroke="#000000"
       stroke-linecap="round"
       stroke-linejoin="round"
       stroke-width="2"
       d="M 25.9065,25.7998 C 25.3022,27.3152 25,28.9565 25,30.9 c 0,8 5,14 11,14 6,0 11,-6 11,-14 0,-1.9435 -0.3022,-3.5848 -0.9065,-5.1002"
       id="path17" />
    <path
       fill="none"
       stroke="#000000"
       stroke-linecap="round"
       stroke-linejoin="round"
       stroke-width="2"
       d="m 33,38.1 c 1.9,1 4.1,1 6,0"
       id="path18" />
  </g>
</svg>
