<?xml version="1.0" encoding="UTF-8" standalone="no"?>
<svg
   id="emoji"
   viewBox="0 0 52.295902 52.1917"
   version="1.1"
   sodipodi:docname="1f9d1-1f3fd-200d-1f4bb.svg"
   width="52.295902"
   height="52.1917"
   xmlns:inkscape="http://www.inkscape.org/namespaces/inkscape"
   xmlns:sodipodi="http://sodipodi.sourceforge.net/DTD/sodipodi-0.dtd"
   xmlns="http://www.w3.org/2000/svg"
   xmlns:svg="http://www.w3.org/2000/svg">
  <defs
     id="defs13" />
  <sodipodi:namedview
     id="namedview13"
     pagecolor="#ffffff"
     bordercolor="#000000"
     borderopacity="0.25"
     inkscape:showpageshadow="2"
     inkscape:pageopacity="0.0"
     inkscape:pagecheckerboard="0"
     inkscape:deskcolor="#d1d1d1" />
  <g
     id="color"
     transform="translate(-15.790747,-8.5808)">
    <path
       fill="#92d3f5"
       d="m 17.2831,58.8244 c 0,0 -2,-13.5 10,-13.5 3.1918,2.1279 5.9264,3.5984 9,3.5921 h -0.125 c 3.0736,0.0063 4.7081,-2.1642 7.9,-4.2921 15.5705,-1e-4 11.5,14.2 11.5,14.2"
       id="path1" />
    <polygon
       fill="#ffffff"
       points="29.0593,47.6344 35.5372,47.6344 42.0152,47.6344 38.7762,51.5662 35.5372,55.498 32.2983,51.5662 "
       id="polygon1" />
    <path
       fill="#61b2e4"
       d="m 26.5302,44.9199 c 0,0 -5.9003,4.0266 -2.161,7.4669 h 4.5729 l -0.8335,3.7419 7.8919,1.9525 0.2903,-2.5055 -8.3606,-10.3636"
       id="path2" />
    <polygon
       fill="#d0cfce"
       points="35.1467,59.7725 42.0967,43.4225 67.0867,43.4225 60.1367,59.7725 "
       id="polygon2" />
    <polygon
       fill="#9b9b9a"
       points="60.1333,59.7725 51.3633,59.7725 58.3133,43.4225 67.0833,43.4225 67.3033,43.4225 60.3533,59.7725 "
       id="polygon3" />
  </g>
  <g
     id="hair"
     transform="translate(-15.790747,-8.5808)">
    <path
       fill="#6a462f"
       d="m 26,36.5808 c -4,0 -4,-6 -4,-13 0,-7 4,-14 14,-14 10,0 14,7 14,14 0,7 0,13 -4,13"
       id="path3" />
  </g>
  <g
     id="skin"
     transform="translate(-15.790747,-8.5808)">
    <path
       fill="#c19a65"
       d="m 24.9365,28.5808 c 0,9 4.9365,14 11,14 5.9365,0 11.0635,-5 11.0635,-14 0.0245,-1.7187 -0.3164,-3.4229 -1,-5 -3,-3 -7,-8 -7,-8 -4,3 -7,6 -13,7.0005 0,-5e-4 -1.0635,0.9987 -1.0635,5.9995 z"
       id="path4" />
  </g>
  <g
     id="skin-shadow"
     transform="translate(-15.790747,-8.5808)" />
  <g
     id="line"
     transform="translate(-15.790747,-8.5808)">
    <path
       d="m 16.917,58.9189 c -0.4844,10e-4 -0.9102,-0.3525 -0.9863,-0.8466 -0.0411,-0.2696 -0.9727,-6.6328 2.581,-10.7754 1.9229,-2.2412 4.751,-3.377 8.4072,-3.377 0.1973,0 0.3907,0.0586 0.5547,0.168 3.1631,2.1084 5.6758,3.418 8.4053,3.4238 h 0.04 c 0.5518,0 0.9991,0.4473 1,0.999 10e-4,0.5518 -0.4462,1 -0.998,1.001 -0.001,0 -0.001,0 -0.002,0 H 35.916 c -0.0107,-10e-4 -0.0254,-10e-4 -0.0381,0 h -0.084 c -0.0146,0 -0.0302,0 -0.0449,-10e-4 -3.0986,-0.0419 -5.8164,-1.4023 -9.1269,-3.5878 -2.8965,0.0566 -5.1104,0.9541 -6.586,2.6689 -2.956,3.4365 -2.1377,9.1201 -2.1289,9.1777 0.083,0.545 -0.292,1.0547 -0.8379,1.1387 -0.0507,0.0078 -0.1015,0.0107 -0.1523,0.0107 z"
       id="path5" />
    <path
       d="m 33.9961,55.2832 c -0.294,0 -0.584,-0.1279 -0.7813,-0.375 l -7.2646,-9.0713 c -0.3457,-0.4306 -0.2764,-1.0605 0.1553,-1.4053 0.4326,-0.3486 1.0615,-0.2753 1.4052,0.1553 l 7.2647,9.0713 c 0.3457,0.4307 0.2764,1.0606 -0.1553,1.4053 -0.1846,0.1484 -0.4053,0.2197 -0.624,0.2197 z"
       id="path6" />
    <path
       d="m 33.0068,57.3555 c -0.0742,0 -0.1494,-0.0078 -0.2255,-0.0254 l -4.8975,-1.127 c -0.2686,-0.0615 -0.499,-0.2314 -0.6387,-0.4697 -0.1387,-0.2373 -0.1738,-0.5225 -0.0967,-0.7861 l 0.458,-1.5606 h -3.2373 c -0.2509,0 -0.4921,-0.0947 -0.6767,-0.2637 -1.4043,-1.2919 -1.6201,-2.6455 -1.5537,-3.5546 0.2129,-2.9268 3.459,-5.2227 3.8281,-5.4746 0.4551,-0.3116 1.0762,-0.1934 1.3877,0.2617 0.3115,0.455 0.1953,1.0771 -0.2598,1.3896 -0.7832,0.5381 -2.8427,2.3008 -2.9619,3.9717 -0.042,0.5918 0.1709,1.1406 0.6504,1.6699 h 4.1592 c 0.3154,0 0.6113,0.1485 0.8008,0.4004 0.1884,0.2529 0.247,0.5791 0.1591,0.8809 l -0.5351,1.8242 3.8633,0.8887 c 0.5381,0.124 0.874,0.6601 0.75,1.1992 -0.1065,0.4619 -0.5186,0.7754 -0.9737,0.7754 z"
       id="path7" />
    <polygon
       fill="none"
       stroke="#000000"
       stroke-linecap="round"
       stroke-linejoin="round"
       stroke-miterlimit="10"
       stroke-width="2"
       points="67.0867,43.4225 42.0967,43.4225 35.1467,59.7725 60.1367,59.7725 "
       id="polygon7" />
    <line
       x1="24.176701"
       x2="35.146702"
       y1="59.772499"
       y2="59.772499"
       fill="none"
       stroke="#000000"
       stroke-linecap="round"
       stroke-linejoin="round"
       stroke-miterlimit="10"
       stroke-width="2"
       id="line7" />
    <path
       d="m 41.9529,27.0468 c 0,1.1046 -0.8954,2 -2,2 -1.1046,0 -2,-0.8954 -2,-2 0,-1.1046 0.8954,-2 2,-2 1.1044,4e-4 1.9996,0.8956 2,2"
       id="path8" />
    <path
       d="m 33.9529,27.0468 c 0,1.1046 -0.8954,2 -2,2 -1.1046,0 -2,-0.8954 -2,-2 0,-1.1046 0.8954,-2 2,-2 1.1044,4e-4 1.9996,0.8956 2,2"
       id="path9" />
    <path
       d="m 35.9527,37.0492 c -1.2005,-0.0116 -2.3813,-0.3055 -3.4472,-0.8579 -0.494,-0.247 -0.6943,-0.8477 -0.4473,-1.3418 0.247,-0.4941 0.8477,-0.6943 1.3418,-0.4473 1.5934,0.8593 3.5121,0.8593 5.1055,0 0.494,-0.247 1.0947,-0.0468 1.3418,0.4473 0.2471,0.4941 0.0468,1.0947 -0.4473,1.3418 -1.0659,0.5524 -2.2468,0.8463 -3.4473,0.8579 z"
       id="path10" />
    <path
       fill="none"
       stroke="#000000"
       stroke-linecap="round"
       stroke-linejoin="round"
       stroke-width="2"
       d="m 26,36.5808 c -4,0 -4,-6 -4,-13 0,-7 4,-14 14,-14 10,0 14,7 14,14 0,7 0,13 -4,13"
       id="path11" />
    <path
       fill="none"
       stroke="#000000"
       stroke-linejoin="round"
       stroke-width="2"
       d="m 24.9365,28.5808 c 0,9 4.9365,14 11,14 5.9365,0 11.0635,-5 11.0635,-14 0.0245,-1.7187 -0.3164,-3.4229 -1,-5 -3,-3 -7,-8 -7,-8 -4,3 -7,6 -13,7.0005 0,-5e-4 -1.0635,0.9987 -1.0635,5.9995 z"
       id="path12" />
    <path
       d="m 41.4707,32.668 h -2.0078 c -1.5479,0 -2.8828,-0.9258 -3.4815,-2.253 -0.5976,1.3272 -1.9335,2.253 -3.4804,2.253 h -2.0078 c -2.1045,0 -3.8164,-1.7119 -3.8164,-3.8164 v -1.2378 h -0.6924 c -0.5528,0 -1,-0.4478 -1,-1 0,-0.5523 0.4472,-1 1,-1 h 1.6924 c 0.5527,0 1,0.4477 1,1 v 2.2378 c 0,1.0019 0.8144,1.8164 1.8164,1.8164 h 2.0078 c 1.001,0 1.8154,-0.8145 1.8154,-1.8164 v -1.104 c 0,-0.5523 0.4473,-1 1,-1 h 1.3301 c 0.5527,0 1,0.4477 1,1 v 1.104 c 0,1.0019 0.8144,1.8164 1.8164,1.8164 h 2.0078 c 1.001,0 1.8154,-0.8145 1.8154,-1.8164 v -2.2378 c 0,-0.5523 0.4473,-1 1,-1 h 1.1573 c 0.5527,0 1,0.4477 1,1 0,0.5522 -0.4473,1 -1,1 h -0.1573 v 1.2378 c 0,2.1045 -1.7119,3.8164 -3.8154,3.8164 z"
       id="path13" />
  </g>
</svg>
