<?xml version="1.0" encoding="UTF-8" standalone="no"?>
<svg
   id="emoji"
   viewBox="0 0 48.311867 52.750999"
   version="1.1"
   sodipodi:docname="1f9d9-1f3fe.svg"
   width="48.311867"
   height="52.750999"
   xmlns:inkscape="http://www.inkscape.org/namespaces/inkscape"
   xmlns:sodipodi="http://sodipodi.sourceforge.net/DTD/sodipodi-0.dtd"
   xmlns="http://www.w3.org/2000/svg"
   xmlns:svg="http://www.w3.org/2000/svg">
  <defs
     id="defs15" />
  <sodipodi:namedview
     id="namedview15"
     pagecolor="#ffffff"
     bordercolor="#000000"
     borderopacity="0.25"
     inkscape:showpageshadow="2"
     inkscape:pageopacity="0.0"
     inkscape:pagecheckerboard="0"
     inkscape:deskcolor="#d1d1d1" />
  <g
     id="color"
     transform="translate(-13.000409,-8.3)">
    <path
       fill="#92d3f5"
       d="M 58,25.7 46.1,20.9 C 45.9,16.6 44.2,9.6 35.5,9.3 c -12,0 -14.6,11 -14.6,11 l -1,2 -0.6,1.2 -5.3,2.2"
       id="path1" />
    <path
       fill="#61b2e4"
       d="M 19.0858,25.7 16.8,31.4 c -0.3115,0.5831 -0.3832,1.2648 -0.2,1.9 L 19.5,44 c 0.0564,0.1933 0.2588,0.3043 0.4521,0.2479 C 20.0717,44.213 20.1651,44.1195 20.2,44 l 0.2,-7.7 0.6,-0.6 1,-1.3 8,-8.8"
       id="path2" />
    <path
       fill="#92d3f5"
       d="m 17,60.949 v -4 c 0,-4.9941 5.0078,-9 10,-9 6,5 12,5 18,0 4.9941,0 10,4.0059 10,9 v 4"
       id="path3" />
    <path
       fill="#61b2e4"
       d="m 45.6624,60.949 v -4.0122 c -0.1404,-2.631 -1.5943,-5.2619 -3.6479,-6.9125 0.9952,-0.5542 1.9904,-1.246 2.9855,-2.0753 4.9941,0 10,4.0059 10,9 v 4"
       id="path4" />
    <path
       fill="#61b2e4"
       d="m 53.3683,40.539 c -2.5437,-1.0747 -3.7346,-4.008 -2.6599,-6.5517 1.0747,-2.5437 4.008,-3.7346 6.5517,-2.6599 2.5437,1.0747 3.7346,4.008 2.6599,6.5517 -0.4479,1.0601 -1.2477,1.9332 -2.2646,2.4721"
       id="path5" />
    <path
       fill="#92d3f5"
       d="m 55.3145,32.4717 c -0.8786,0.137 -1.6948,0.5381 -2.34,1.15 1.5407,-0.3467 3.1393,-0.3467 4.68,0 -0.6452,-0.6119 -1.4614,-1.013 -2.34,-1.15 z"
       id="path6" />
    <polyline
       fill="#a57939"
       points="57.314,61 57.314,40.539 53.314,40.539 53.314,61"
       id="polyline6" />
  </g>
  <g
     id="skin"
     transform="translate(-13.000409,-8.3)">
    <path
       fill="#a57939"
       d="M 25.9065,25.7998 C 25.3022,27.3152 25,28.9565 25,30.9 c 0,8 5,14 11,14 6,0 11,-6 11,-14 0,-1.9435 -0.3022,-3.5848 -0.9065,-5.1002"
       id="path7" />
  </g>
  <g
     id="line"
     transform="translate(-13.000409,-8.3)">
    <path
       fill="none"
       stroke="#000000"
       stroke-linecap="round"
       stroke-linejoin="round"
       stroke-width="2"
       d="M 19.0858,25.8 16.9,31.4 c -0.3115,0.5831 -0.3832,1.2648 -0.2,1.9 L 19.5,44 c 0.0564,0.1933 0.2588,0.3043 0.4521,0.2479 C 20.0717,44.213 20.1651,44.1195 20.2,44 l 0.2,-7.7 c 0.0103,-0.473 0.0775,-0.943 0.2,-1.4"
       id="path8" />
    <path
       fill="none"
       stroke="#000000"
       stroke-linecap="round"
       stroke-linejoin="round"
       stroke-width="2"
       d="m 26.9,17.5 c -0.4245,1.0967 -0.7263,2.2369 -0.9,3.4 v 0 L 14,25.8 H 58 L 46.1,20.9 C 45.9,16.6 43.9,9.6 35.2,9.3 22.2,9.3 20,22.8 20,22.8"
       id="path9" />
    <path
       fill="none"
       stroke="#000000"
       stroke-linecap="round"
       stroke-linejoin="round"
       stroke-width="2"
       d="m 53.3683,40.59 c -2.5437,-1.0747 -3.7346,-4.008 -2.6599,-6.5517 1.0747,-2.5437 4.008,-3.7346 6.5517,-2.6599 2.5437,1.0747 3.7346,4.008 2.6599,6.5517 -0.4479,1.0601 -1.2477,1.9332 -2.2646,2.4721"
       id="path10" />
    <polyline
       fill="none"
       stroke="#000000"
       stroke-linecap="round"
       stroke-linejoin="round"
       stroke-width="2"
       points="57.314,60.051 57.314,40.605 53.314,40.605 53.314,60.051"
       id="polyline10" />
    <path
       fill="none"
       stroke="#000000"
       stroke-linecap="round"
       stroke-linejoin="round"
       stroke-width="2"
       d="m 17,60 v -3 c 0,-4.9941 5.0078,-9 10,-9 6,5 12,5 18,0 3.2121,0 6.4292,1.6572 8.316,4.1687"
       id="path11" />
    <path
       d="m 42,29.9 c 0,1.1 -0.9,2 -2,2 -1.1,0 -2,-0.9 -2,-2 0,-1.1 0.9,-2 2,-2 1.1,0 2,0.9 2,2"
       id="path12" />
    <path
       d="m 34,29.9 c 0,1.1 -0.9,2 -2,2 -1.1,0 -2,-0.9 -2,-2 0,-1.1 0.9,-2 2,-2 1.1,0 2,0.9 2,2"
       id="path13" />
    <path
       fill="none"
       stroke="#000000"
       stroke-linecap="round"
       stroke-linejoin="round"
       stroke-width="2"
       d="M 25.9065,25.7998 C 25.3022,27.3152 25,28.9565 25,30.9 c 0,8 5,14 11,14 6,0 11,-6 11,-14 0,-1.9435 -0.3022,-3.5848 -0.9065,-5.1002"
       id="path14" />
    <path
       fill="none"
       stroke="#000000"
       stroke-linecap="round"
       stroke-linejoin="round"
       stroke-width="2"
       d="m 33,38.1 c 1.9,1 4.1,1 6,0"
       id="path15" />
  </g>
</svg>
