<svg xmlns="http://www.w3.org/2000/svg" xmlns:svg="http://www.w3.org/2000/svg" id="emoji" width="40" height="64" version="1.1" viewBox="0 0 40 64"><g id="color" transform="translate(-16,-4)"><g id="g1"><rect id="rect1" width="38" height="62" x="17" y="5" fill="#d22f27"/><circle id="circle1" cx="36" cy="27" r="10" fill="#f1b31c"/></g></g><g id="line" transform="translate(-16,-4)"><g id="g8"><g id="g5"><line id="line1" x1="31.887" x2="31.887" y1="21.413" y2="23.867" fill="none" stroke="#000" stroke-linecap="round" stroke-linejoin="round"/><path id="path1" fill="none" stroke="#000" stroke-linecap="round" stroke-linejoin="round" d="m 29.9242,23.8669 h 3.8493 A 12.01,12.01 0 0 1 29.7,28.85"/><path id="path2" fill="none" stroke="#000" stroke-linecap="round" stroke-linejoin="round" d="m 33.5868,28.2638 a 5.2377,5.2377 0 0 1 -1.7,-1.4514 v 5.7744"/><line id="line2" x1="34.812" x2="41.7" y1="22.148" y2="22.148" fill="none" stroke="#000" stroke-linecap="round" stroke-linejoin="round"/><rect id="rect2" width="4.488" height="2.01" x="35.98" y="23.84" fill="none" stroke="#000" stroke-linecap="round" stroke-linejoin="round"/><polyline id="polyline2" fill="none" stroke="#000" stroke-linecap="round" stroke-linejoin="round" points="35.37 32.537 35.37 27.615 38.268 27.615 41.166 27.615 41.166 32.537"/><line id="line3" x1="35.37" x2="41.166" y1="29.667" y2="29.667" fill="none" stroke="#000" stroke-linecap="round" stroke-linejoin="round"/><line id="line4" x1="35.37" x2="41.166" y1="31.716" y2="31.716" fill="none" stroke="#000" stroke-linecap="round" stroke-linejoin="round"/><line id="line5" x1="38.229" x2="38.229" y1="31.716" y2="27.615" fill="none" stroke="#000" stroke-linecap="round" stroke-linejoin="round"/></g><g id="g7"><circle id="circle5" cx="36" cy="27" r="10" fill="none" stroke="#000" stroke-linecap="round" stroke-miterlimit="10" stroke-width="2"/><g id="g6"><path id="path5" fill="none" stroke="#000" stroke-linecap="round" stroke-miterlimit="10" stroke-width="2" d="m 55,18 a 25.4,25.4 0 0 1 -9.2886,6.6522"/><path id="path6" fill="none" stroke="#000" stroke-linecap="round" stroke-miterlimit="10" stroke-width="2" d="M 26.2886,24.6522 A 25.4,25.4 0 0 1 17,18"/></g></g><rect id="rect7" width="38" height="62" x="17" y="5" fill="none" stroke="#000" stroke-linejoin="round" stroke-width="2"/></g></g></svg>