<svg xmlns="http://www.w3.org/2000/svg" xmlns:svg="http://www.w3.org/2000/svg" id="emoji" width="49.816" height="48" version="1.1" viewBox="0 0 49.816 48"><g id="color" transform="translate(-11.0921,-11.8737)"><polygon id="polygon1" fill="#fff" points="58.41 39.097 58.217 21.373 13.331 20.892 13.523 39.289"/><circle id="circle1" cx="20.197" cy="19.736" r="2.724" fill="#ea5a47"/><path id="path1" fill="#d22f27" d="m 21.2765,17.0572 c 0.8111,1.2649 0.4432,2.9478 -0.8216,3.7589 -0.895,0.5739 -2.0423,0.5739 -2.9373,0 0.8086,1.2674 2.4915,1.6394 3.7589,0.8309 1.2674,-0.8085 1.6394,-2.4915 0.8309,-3.7589 -0.2132,-0.3341 -0.4967,-0.6177 -0.8309,-0.8309 z"/><circle id="circle2" cx="30.834" cy="19.736" r="2.724" fill="#ea5a47"/><path id="path2" fill="#d22f27" d="m 31.9139,17.0572 c 0.8111,1.2649 0.4432,2.9478 -0.8216,3.7589 -0.895,0.5739 -2.0423,0.5739 -2.9373,0 0.8086,1.2674 2.4915,1.6394 3.7589,0.8309 1.2674,-0.8085 1.6394,-2.4915 0.8309,-3.7589 -0.2132,-0.3341 -0.4967,-0.6177 -0.8309,-0.8309 z"/><circle id="circle3" cx="37.697" cy="19.736" r="2.724" fill="#ea5a47"/><path id="path3" fill="#d22f27" d="m 38.7767,17.0572 c 0.8111,1.2649 0.4432,2.9478 -0.8216,3.7589 -0.895,0.5739 -2.0423,0.5739 -2.9373,0 0.8086,1.2674 2.4915,1.6394 3.7589,0.8309 1.2674,-0.8085 1.6394,-2.4915 0.8309,-3.7589 -0.2132,-0.3341 -0.4967,-0.6177 -0.8309,-0.8309 z"/><circle id="circle4" cx="45.246" cy="19.736" r="2.724" fill="#ea5a47"/><path id="path4" fill="#d22f27" d="m 46.3258,17.0572 c 0.8111,1.2649 0.4432,2.9478 -0.8216,3.7589 -0.895,0.5739 -2.0423,0.5739 -2.9373,0 0.8086,1.2674 2.4915,1.6394 3.7589,0.8309 1.2674,-0.8085 1.6394,-2.4915 0.8309,-3.7589 C 46.9435,17.554 46.66,17.2704 46.3258,17.0572 Z"/><circle id="circle5" cx="23.931" cy="30.374" r="2.724" fill="#fcea2b"/><path id="path5" fill="#f1b31c" d="m 25.0105,27.6946 c 0.8111,1.2648 0.4434,2.9477 -0.8214,3.7588 -0.895,0.574 -2.0424,0.574 -2.9374,0 0.8086,1.2673 2.4915,1.6392 3.7588,0.8307 1.2673,-0.8085 1.6392,-2.4915 0.8307,-3.7588 -0.2131,-0.334 -0.4966,-0.6175 -0.8307,-0.8307 z"/><circle id="circle6" cx="31.137" cy="30.374" r="2.724" fill="#fcea2b"/><path id="path6" fill="#f1b31c" d="m 32.2165,27.6946 c 0.8112,1.2648 0.4435,2.9476 -0.8213,3.7588 -0.8951,0.5741 -2.0426,0.5741 -2.9376,0 0.8085,1.2675 2.4914,1.6396 3.7588,0.8311 1.2675,-0.8085 1.6396,-2.4914 0.8311,-3.7588 -0.2132,-0.3342 -0.4968,-0.6179 -0.8311,-0.8311 z"/><circle id="circle7" cx="47.264" cy="30.374" r="2.724" fill="#fcea2b"/><path id="path7" fill="#f1b31c" d="m 48.3441,27.6946 c 0.8111,1.2648 0.4434,2.9477 -0.8214,3.7588 -0.895,0.574 -2.0424,0.574 -2.9374,0 0.8086,1.2673 2.4915,1.6392 3.7588,0.8307 1.2673,-0.8085 1.6392,-2.4915 0.8307,-3.7588 -0.2131,-0.334 -0.4966,-0.6175 -0.8307,-0.8307 z"/><circle id="circle8" cx="54.814" cy="30.374" r="2.724" fill="#fcea2b"/><path id="path8" fill="#f1b31c" d="m 55.8933,27.6946 c 0.8112,1.2648 0.4435,2.9476 -0.8213,3.7588 -0.8951,0.5741 -2.0426,0.5741 -2.9376,0 0.8085,1.2675 2.4914,1.6396 3.7588,0.8311 1.2675,-0.8085 1.6396,-2.4914 0.8311,-3.7588 -0.2132,-0.3342 -0.4968,-0.6179 -0.8311,-0.8311 z"/><circle id="circle9" cx="23.931" cy="41.011" r="2.724" fill="#f4aa41"/><path id="path9" fill="#e27022" d="m 25.0106,38.332 c 0.8112,1.2648 0.4435,2.9476 -0.8213,3.7588 -0.8951,0.5741 -2.0426,0.5741 -2.9376,0 0.8085,1.2675 2.4914,1.6396 3.7588,0.8311 1.2674,-0.8085 1.6396,-2.4914 0.8311,-3.7588 -0.2132,-0.3342 -0.4968,-0.6179 -0.8311,-0.8311 z"/><circle id="circle10" cx="31.137" cy="41.011" r="2.724" fill="#f4aa41"/><path id="path10" fill="#e27022" d="m 32.2165,38.332 c 0.8112,1.2648 0.4435,2.9476 -0.8213,3.7588 -0.8951,0.5741 -2.0426,0.5741 -2.9376,0 0.8085,1.2675 2.4914,1.6396 3.7588,0.8311 1.2674,-0.8085 1.6396,-2.4914 0.8311,-3.7588 -0.2132,-0.3342 -0.4968,-0.6179 -0.8311,-0.8311 z"/><circle id="circle11" cx="41.088" cy="41.011" r="2.724" fill="#f4aa41"/><path id="path11" fill="#e27022" d="m 42.1676,38.332 c 0.8112,1.2648 0.4435,2.9476 -0.8213,3.7588 -0.8951,0.5741 -2.0426,0.5741 -2.9376,0 0.8085,1.2675 2.4914,1.6396 3.7588,0.8311 1.2674,-0.8085 1.6396,-2.4914 0.8311,-3.7588 -0.2132,-0.3342 -0.4968,-0.6179 -0.8311,-0.8311 z"/><circle id="circle12" cx="51.423" cy="41.011" r="2.724" fill="#f4aa41"/><path id="path12" fill="#e27022" d="m 52.5024,38.332 c 0.8112,1.2648 0.4435,2.9476 -0.8213,3.7588 -0.8951,0.5741 -2.0426,0.5741 -2.9376,0 0.8085,1.2675 2.4914,1.6396 3.7588,0.8311 1.2674,-0.8085 1.6396,-2.4914 0.8311,-3.7588 -0.2132,-0.3342 -0.4968,-0.6179 -0.8311,-0.8311 z"/></g><g id="line" transform="translate(-11.0921,-11.8737)"><line id="line12" x1="12.092" x2="12.092" y1="58.874" y2="12.874" fill="none" stroke="#000" stroke-linecap="round" stroke-linejoin="round" stroke-width="2"/><line id="line13" x1="48.651" x2="59.546" y1="19.737" y2="19.736" fill="none" stroke="#000" stroke-linecap="round" stroke-linejoin="round" stroke-width="2"/><line id="line14" x1="41.023" x2="41.891" y1="19.737" y2="19.737" fill="none" stroke="#000" stroke-linecap="round" stroke-linejoin="round" stroke-width="2"/><line id="line15" x1="34.144" x2="34.407" y1="19.737" y2="19.737" fill="none" stroke="#000" stroke-linecap="round" stroke-linejoin="round" stroke-width="2"/><line id="line16" x1="23.586" x2="27.473" y1="19.737" y2="19.737" fill="none" stroke="#000" stroke-linecap="round" stroke-linejoin="round" stroke-width="2"/><line id="line17" x1="12.859" x2="16.891" y1="19.737" y2="19.737" fill="none" stroke="#000" stroke-linecap="round" stroke-linejoin="round" stroke-width="2"/><line id="line18" x1="59.908" x2="59.908" y1="58.874" y2="12.874" fill="none" stroke="#000" stroke-linecap="round" stroke-linejoin="round" stroke-width="2"/><circle id="circle18" cx="20.197" cy="19.736" r="2.724" fill="none" stroke="#000" stroke-miterlimit="10" stroke-width="1.362"/><circle id="circle19" cx="30.834" cy="19.736" r="2.724" fill="none" stroke="#000" stroke-miterlimit="10" stroke-width="1.362"/><circle id="circle20" cx="37.697" cy="19.736" r="2.724" fill="none" stroke="#000" stroke-miterlimit="10" stroke-width="1.362"/><circle id="circle21" cx="45.246" cy="19.736" r="2.724" fill="none" stroke="#000" stroke-miterlimit="10" stroke-width="1.362"/><line id="line21" x1="58.075" x2="58.859" y1="30.374" y2="30.374" fill="none" stroke="#000" stroke-linecap="round" stroke-linejoin="round" stroke-width="2"/><line id="line22" x1="50.557" x2="51.542" y1="30.374" y2="30.374" fill="none" stroke="#000" stroke-linecap="round" stroke-linejoin="round" stroke-width="2"/><line id="line23" x1="34.48" x2="43.922" y1="30.374" y2="30.374" fill="none" stroke="#000" stroke-linecap="round" stroke-linejoin="round" stroke-width="2"/><line id="line24" x1="27.183" x2="27.885" y1="30.374" y2="30.374" fill="none" stroke="#000" stroke-linecap="round" stroke-linejoin="round" stroke-width="2"/><line id="line25" x1="12.859" x2="20.634" y1="30.374" y2="30.374" fill="none" stroke="#000" stroke-linecap="round" stroke-linejoin="round" stroke-width="2"/><circle id="circle25" cx="23.931" cy="30.374" r="2.724" fill="none" stroke="#000" stroke-miterlimit="10" stroke-width="1.362"/><circle id="circle26" cx="31.137" cy="30.374" r="2.724" fill="none" stroke="#000" stroke-miterlimit="10" stroke-width="1.362"/><circle id="circle27" cx="47.264" cy="30.374" r="2.724" fill="none" stroke="#000" stroke-miterlimit="10" stroke-width="1.362"/><circle id="circle28" cx="54.814" cy="30.374" r="2.724" fill="none" stroke="#000" stroke-miterlimit="10" stroke-width="1.362"/><line id="line28" x1="54.76" x2="58.859" y1="41.011" y2="41.011" fill="none" stroke="#000" stroke-linecap="round" stroke-linejoin="round" stroke-width="2"/><line id="line29" x1="44.44" x2="48.071" y1="41.011" y2="41.011" fill="none" stroke="#000" stroke-linecap="round" stroke-linejoin="round" stroke-width="2"/><line id="line30" x1="34.458" x2="37.791" y1="41.011" y2="41.011" fill="none" stroke="#000" stroke-linecap="round" stroke-linejoin="round" stroke-width="2"/><line id="line31" x1="27.252" x2="27.812" y1="41.011" y2="41.011" fill="none" stroke="#000" stroke-linecap="round" stroke-linejoin="round" stroke-width="2"/><line id="line32" x1="12.859" x2="20.606" y1="41.011" y2="41.011" fill="none" stroke="#000" stroke-linecap="round" stroke-linejoin="round" stroke-width="2"/><circle id="circle32" cx="23.931" cy="41.011" r="2.724" fill="none" stroke="#000" stroke-miterlimit="10" stroke-width="1.362"/><circle id="circle33" cx="31.137" cy="41.011" r="2.724" fill="none" stroke="#000" stroke-miterlimit="10" stroke-width="1.362"/><circle id="circle34" cx="41.088" cy="41.011" r="2.724" fill="none" stroke="#000" stroke-miterlimit="10" stroke-width="1.362"/><circle id="circle35" cx="51.423" cy="41.011" r="2.724" fill="none" stroke="#000" stroke-miterlimit="10" stroke-width="1.362"/></g></svg>