<?xml version="1.0" encoding="UTF-8" standalone="no"?>
<svg
   id="emoji"
   viewBox="0 0 62.072006 62.071907"
   version="1.1"
   sodipodi:docname="1f9ec.svg"
   width="62.072006"
   height="62.071907"
   xmlns:inkscape="http://www.inkscape.org/namespaces/inkscape"
   xmlns:sodipodi="http://sodipodi.sourceforge.net/DTD/sodipodi-0.dtd"
   xmlns="http://www.w3.org/2000/svg"
   xmlns:svg="http://www.w3.org/2000/svg">
  <defs
     id="defs25" />
  <sodipodi:namedview
     id="namedview25"
     pagecolor="#ffffff"
     bordercolor="#000000"
     borderopacity="0.25"
     inkscape:showpageshadow="2"
     inkscape:pageopacity="0.0"
     inkscape:pagecheckerboard="0"
     inkscape:deskcolor="#d1d1d1" />
  <g
     id="color"
     transform="translate(-4.963946,-4.964046)">
    <rect
       x="22.184401"
       y="50.233601"
       width="2"
       height="6.8467002"
       transform="rotate(-45,23.184416,53.6569)"
       fill="#92d3f5"
       id="rect1" />
    <rect
       x="17.342899"
       y="45.391899"
       width="2"
       height="6.8471999"
       transform="rotate(-45,18.342908,48.815419)"
       fill="#ea5a47"
       id="rect2" />
    <rect
       x="30.141199"
       y="33.313801"
       width="2"
       height="6.2505002"
       transform="rotate(-45,31.141221,36.438984)"
       fill="#92d3f5"
       id="rect3" />
    <rect
       x="34.560799"
       y="37.733601"
       width="2"
       height="6.25"
       transform="rotate(-45,35.5608,40.858634)"
       fill="#ea5a47"
       id="rect4" />
    <rect
       x="38.4468"
       y="33.971199"
       width="2"
       height="6.8467002"
       transform="rotate(-45,39.446808,37.394497)"
       fill="#92d3f5"
       id="rect5" />
    <rect
       x="33.605301"
       y="29.1294"
       width="2"
       height="6.8471999"
       transform="rotate(-45,34.6053,32.553015)"
       fill="#ea5a47"
       id="rect6" />
    <polygon
       fill="#92d3f5"
       points="37.1138,29.0815 38.1518,28.0435 41.7477,30.2523 40.0161,31.9839 "
       id="polygon6" />
    <polygon
       fill="#ea5a47"
       points="40.0161,31.9839 41.7477,30.2523 44.0376,33.767 42.9185,34.8862 "
       id="polygon7" />
    <rect
       x="51.351799"
       y="20.9426"
       width="2"
       height="6.25"
       transform="rotate(-45,52.351899,24.067534)"
       fill="#92d3f5"
       id="rect7" />
    <rect
       x="46.932301"
       y="16.522699"
       width="2"
       height="6.2505002"
       transform="rotate(-45,47.93227,19.648004)"
       fill="#ea5a47"
       id="rect8" />
    <rect
       x="55.8358"
       y="16.582199"
       width="2"
       height="6.8467002"
       transform="rotate(-45,56.835857,20.005517)"
       fill="#92d3f5"
       id="rect9" />
    <rect
       x="50.994301"
       y="11.7404"
       width="2"
       height="6.8471999"
       transform="rotate(-45,51.994349,15.164035)"
       fill="#ea5a47"
       id="rect10" />
    <rect
       x="17.888901"
       y="54.529099"
       width="2"
       height="6.8467002"
       transform="rotate(-45,18.888861,57.952378)"
       fill="#92d3f5"
       id="rect11" />
    <rect
       x="13.0474"
       y="49.687302"
       width="2"
       height="6.8471999"
       transform="rotate(-45,14.047353,53.110896)"
       fill="#ea5a47"
       id="rect12" />
    <path
       fill="#92d3f5"
       d="m 48.8128,31.8422 c 0.792,3.9598 0.3747,8.4358 -4.08,12.8905 -4.4548,4.4548 -8.9308,4.872 -12.8905,4.08 C 29.7139,48.3814 27.7269,47.5965 25.9662,46.9106 25.754,46.8258 25.542,46.7409 25.3369,46.6631 20.7478,44.8883 18.0962,44.2165 15.091,47.2217 l -4.4407,4.4407 c -1.0748,1.0748 -2.8143,1.0748 -3.8891,0 -1.0748,-1.0748 -1.0748,-2.8143 0,-3.8891 l 4.4407,-4.4407 c 4.0446,-4.0446 8.2024,-4.1436 11.9854,-3.1749 1.6829,0.4101 3.2951,1.0465 4.7871,1.6334 0.5586,0.2192 1.0961,0.4313 1.6122,0.6223 4.5326,1.6758 7.5731,2.1142 11.2571,-1.5698 3.684,-3.684 3.2456,-6.7245 1.5698,-11.2571 0.5162,0.1909 1.0536,0.4031 1.6122,0.6223 1.4919,0.5869 3.1042,1.2233 4.7871,1.6334 z"
       id="path12" />
    <path
       fill="#92d3f5"
       d="m 51.6624,6.7612 c 1.0748,1.0748 1.0748,2.8143 0,3.8891 l -4.4407,4.4407 c -3.0052,3.0052 -2.3334,5.6568 -0.5586,10.2459 -0.2051,-0.0778 -0.4172,-0.1626 -0.6293,-0.2475 -1.7607,-0.6859 -3.7477,-1.4708 -5.8761,-1.9021 -0.9687,-3.783 -0.8697,-7.9408 3.1749,-11.9854 l 4.4407,-4.4407 c 1.0748,-1.0748 2.8143,-1.0748 3.8891,0 z"
       id="path13" />
    <path
       fill="#ea5a47"
       d="m 25.9662,46.9107 c 1.7607,0.6859 3.7477,1.4708 5.8761,1.9021 0.9687,3.783 0.8697,7.9408 -3.1749,11.9854 l -4.4407,4.4407 c -1.0748,1.0748 -2.8143,1.0748 -3.8891,0 -1.0748,-1.0748 -1.0748,-2.8143 0,-3.8891 l 4.4407,-4.4407 c 3.0052,-3.0052 2.3334,-5.6568 0.5586,-10.2459 0.2051,0.0778 0.4172,0.1626 0.6293,0.2475 z"
       id="path14" />
    <path
       fill="#ea5a47"
       d="m 65.2388,20.3376 c 1.0748,1.0748 1.0748,2.8143 0,3.8891 l -4.4407,4.4407 c -4.0446,4.0446 -8.2024,4.1436 -11.9854,3.1749 -1.6829,-0.4101 -3.2951,-1.0465 -4.7871,-1.6334 -0.5586,-0.2192 -1.0961,-0.4313 -1.6122,-0.6223 -4.5326,-1.6758 -7.5731,-2.1142 -11.2571,1.5698 -3.684,3.684 -3.2456,6.7245 -1.5698,11.2571 -0.5162,-0.1909 -1.0536,-0.4031 -1.6122,-0.6223 -1.4919,-0.5869 -3.1042,-1.2233 -4.7871,-1.6334 -0.792,-3.9598 -0.3747,-8.4358 4.08,-12.8905 4.4547,-4.4547 8.9308,-4.872 12.8905,-4.08 2.1284,0.4313 4.1154,1.2162 5.8761,1.9021 0.2122,0.0848 0.4242,0.1697 0.6293,0.2475 4.5891,1.7748 7.2407,2.4466 10.2459,-0.5586 l 4.4407,-4.4407 c 1.0748,-1.0748 2.8143,-1.0748 3.8891,0 z"
       id="path15" />
  </g>
  <g
     id="line"
     transform="translate(-4.963946,-4.964046)">
    <g
       id="g17">
      <path
         fill="none"
         stroke="#000000"
         stroke-miterlimit="10"
         stroke-width="2"
         d="m 23.1932,40.1518 c -0.7944,-3.9626 -0.3766,-8.4301 4.076,-12.8827 6.8508,-6.8508 13.7371,-4.1505 18.7646,-2.1779 4.9843,1.9542 7.7305,2.8277 10.8738,-0.3156 l 4.4401,-4.4401 c 1.0738,-1.0738 2.8153,-1.0738 3.8891,0 1.0738,1.0738 1.0738,2.8153 0,3.8891 l -4.4401,4.4401 c -5.835,5.835 -11.8986,3.4575 -16.7703,1.5468 -5.469,-2.1448 -8.7629,-3.1585 -12.8681,0.9467 -3.684,3.684 -3.2459,6.7149 -1.5669,11.2503"
         id="path16" />
      <path
         fill="none"
         stroke="#000000"
         stroke-miterlimit="10"
         stroke-width="2"
         d="m 31.8511,48.8057 c 0.9568,3.7914 0.8586,7.946 -3.1864,11.991 l -4.4401,4.4401 c -1.0738,1.0738 -2.8153,1.0738 -3.8891,0 -1.0738,-1.0738 -1.0738,-2.8153 0,-3.8891 l 4.4401,-4.4401 c 3.0081,-3.0081 2.3373,-5.6531 0.5607,-10.2439"
         id="path17" />
    </g>
    <g
       id="g19">
      <path
         fill="none"
         stroke="#000000"
         stroke-miterlimit="10"
         stroke-width="2"
         d="m 40.1484,23.193 c -0.9565,-3.7911 -0.8576,-7.9453 3.1868,-11.9897 l 4.4401,-4.4401 c 1.0738,-1.0738 2.8153,-1.0738 3.8891,0 1.0738,1.0738 1.0738,2.8153 0,3.8891 l -4.4401,4.4401 c -3.0084,3.0084 -2.337,5.6534 -0.5609,10.2443"
         id="path18" />
      <path
         fill="none"
         stroke="#000000"
         stroke-miterlimit="10"
         stroke-width="2"
         d="m 48.8073,31.851 c 0.7937,3.9617 0.3748,8.4283 -4.0766,12.8797 -6.8508,6.8508 -13.7371,4.1498 -18.7649,2.1783 -4.9836,-1.9542 -7.7305,-2.8277 -10.8735,0.3152 l -4.4401,4.4401 c -1.0738,1.0738 -2.8153,1.0738 -3.8891,0 -1.0738,-1.0738 -1.0738,-2.8153 0,-3.8891 l 4.4401,-4.4401 c 5.835,-5.835 11.8982,-3.4572 16.7707,-1.5465 5.4683,2.1448 8.7625,3.1582 12.8678,-0.9471 3.6841,-3.6841 3.2456,-6.7147 1.5671,-11.2501"
         id="path19" />
    </g>
    <line
       x1="50.983799"
       x2="60.667099"
       y1="11.3328"
       y2="21.0161"
       fill="none"
       stroke="#000000"
       stroke-linecap="round"
       stroke-linejoin="round"
       stroke-width="2"
       id="line19" />
    <line
       x1="46.712399"
       x2="56.347099"
       y1="15.6527"
       y2="25.2875"
       fill="none"
       stroke="#000000"
       stroke-linecap="round"
       stroke-linejoin="round"
       stroke-width="2"
       id="line20" />
    <line
       x1="35.223701"
       x2="43.423"
       y1="28.5769"
       y2="36.776199"
       fill="none"
       stroke="#000000"
       stroke-linecap="round"
       stroke-linejoin="round"
       stroke-width="2"
       id="line21" />
    <line
       x1="30.7892"
       x2="40.459"
       y1="31.540899"
       y2="41.210602"
       fill="none"
       stroke="#000000"
       stroke-linecap="round"
       stroke-linejoin="round"
       stroke-width="2"
       id="line22" />
    <line
       x1="28.361099"
       x2="35.488701"
       y1="36.5112"
       y2="43.638802"
       fill="none"
       stroke="#000000"
       stroke-linecap="round"
       stroke-linejoin="round"
       stroke-width="2"
       id="line23" />
    <line
       x1="17.735001"
       x2="26.546301"
       y1="45.453602"
       y2="54.2649"
       fill="none"
       stroke="#000000"
       stroke-linecap="round"
       stroke-linejoin="round"
       stroke-width="2"
       id="line24" />
    <line
       x1="13.0033"
       x2="22.686701"
       y1="49.313202"
       y2="58.996601"
       fill="none"
       stroke="#000000"
       stroke-linecap="round"
       stroke-linejoin="round"
       stroke-width="2"
       id="line25" />
  </g>
</svg>
