<?xml version="1.0" encoding="UTF-8" standalone="no"?>
<svg
   id="emoji"
   viewBox="0 0 51.999802 52.000099"
   version="1.1"
   sodipodi:docname="1f9e9.svg"
   width="51.999802"
   height="52.000099"
   xmlns:inkscape="http://www.inkscape.org/namespaces/inkscape"
   xmlns:sodipodi="http://sodipodi.sourceforge.net/DTD/sodipodi-0.dtd"
   xmlns="http://www.w3.org/2000/svg"
   xmlns:svg="http://www.w3.org/2000/svg">
  <defs
     id="defs12" />
  <sodipodi:namedview
     id="namedview12"
     pagecolor="#ffffff"
     bordercolor="#000000"
     borderopacity="0.25"
     inkscape:showpageshadow="2"
     inkscape:pageopacity="0.0"
     inkscape:pagecheckerboard="0"
     inkscape:deskcolor="#d1d1d1" />
  <g
     id="color"
     transform="translate(-13.4016,-6.8819)">
    <path
       fill="#92d3f5"
       d="M 39.7792,57.8819 H 52.77 V 44.851 c 5.2976,0 11.6314,1.4 11.6314,-6.1934 0,-6.7613 -6.3338,-5.8535 -11.6314,-5.8535 V 19.5133 H 39.7792 c 1.8239,-5.8157 1.8239,-11.6314 -4.9774,-11.6314 -6.8013,0 -6.73,6.3338 -6.73,11.6314 H 14.4016 v 14.0106 c 4.2433,-1.5715 11.6314,-4.4184 11.6314,5.1737 0,9.5921 -8.48,6.5814 -11.6314,5.1737 v 14.0106 h 11.9713 c 0,-5.2976 0,-12.383 7.213,-12.3112 6.7827,0.0675 6.1933,7.0136 6.1933,12.3112 z"
       id="path1" />
    <path
       fill="#61b2e4"
       d="m 39.0542,51.0992 c 1.7359,1.7359 1.11,4.1339 1.11,6.7827 H 52.77 V 43.8713 c 5.8157,1.0357 10.9968,3.6045 10.9968,-5.2137 0,-5.2976 -4.9743,-6.1934 -10.2719,-6.1934 V 19.8154 h -4.1161"
       id="path2" />
  </g>
  <g
     id="line"
     transform="translate(-13.4016,-6.8819)">
    <polyline
       fill="none"
       stroke="#000000"
       stroke-linecap="round"
       stroke-linejoin="round"
       stroke-width="2"
       points="14.402 33.524 14.402 19.513 29.628 19.513"
       id="polyline2" />
    <polyline
       fill="none"
       stroke="#000000"
       stroke-linecap="round"
       stroke-linejoin="round"
       stroke-width="2"
       points="28 57.882 14.402 57.882 14.402 43.871"
       id="polyline3" />
    <polyline
       fill="none"
       stroke="#000000"
       stroke-linecap="round"
       stroke-linejoin="round"
       stroke-width="2"
       points="52.77 43.871 52.77 57.882 38.348 57.882"
       id="polyline4" />
    <polyline
       fill="none"
       stroke="#000000"
       stroke-linecap="round"
       stroke-linejoin="round"
       stroke-width="2"
       points="39.976 19.513 52.77 19.513 52.77 33.524"
       id="polyline5" />
    <g
       id="g6">
      <path
         fill="none"
         stroke="#000000"
         stroke-linecap="round"
         stroke-linejoin="round"
         stroke-width="2"
         d="M 14.4016,33.5239 C 17.0829,31.1826 26.033,30.2366 26.033,38.6976"
         id="path5" />
      <path
         fill="none"
         stroke="#000000"
         stroke-linecap="round"
         stroke-linejoin="round"
         stroke-width="2"
         d="m 14.4016,43.8713 c 2.6813,2.3413 11.6314,3.2873 11.6314,-5.1737"
         id="path6" />
    </g>
    <g
       id="g8">
      <path
         fill="none"
         stroke="#000000"
         stroke-linecap="round"
         stroke-linejoin="round"
         stroke-width="2"
         d="M 28.0005,57.8819 C 25.6591,55.2005 24.7132,46.2505 33.1742,46.2505"
         id="path7" />
      <path
         fill="none"
         stroke="#000000"
         stroke-linecap="round"
         stroke-linejoin="round"
         stroke-width="2"
         d="M 38.3479,57.8819 C 40.6892,55.2005 41.6352,46.2505 33.1742,46.2505"
         id="path8" />
    </g>
    <g
       id="g10">
      <path
         fill="none"
         stroke="#000000"
         stroke-linecap="round"
         stroke-linejoin="round"
         stroke-width="2"
         d="M 29.6281,19.5133 C 27.2867,16.8319 26.3408,7.8819 34.8018,7.8819"
         id="path9" />
      <path
         fill="none"
         stroke="#000000"
         stroke-linecap="round"
         stroke-linejoin="round"
         stroke-width="2"
         d="M 39.9755,19.5133 C 42.3168,16.8319 43.2628,7.8819 34.8018,7.8819"
         id="path10" />
    </g>
    <g
       id="g12">
      <path
         fill="none"
         stroke="#000000"
         stroke-linecap="round"
         stroke-linejoin="round"
         stroke-width="2"
         d="m 52.77,43.8713 c 2.6813,2.3413 11.6314,3.2873 11.6314,-5.1737"
         id="path11" />
      <path
         fill="none"
         stroke="#000000"
         stroke-linecap="round"
         stroke-linejoin="round"
         stroke-width="2"
         d="m 52.77,33.5239 c 2.6813,-2.3413 11.6314,-3.2873 11.6314,5.1737"
         id="path12" />
    </g>
  </g>
</svg>
