<?xml version="1.0" encoding="UTF-8" standalone="no"?>
<svg
   id="emoji"
   viewBox="0 0 39.832699 53.969536"
   version="1.1"
   sodipodi:docname="1f9e5.svg"
   width="39.832699"
   height="53.969536"
   xmlns:inkscape="http://www.inkscape.org/namespaces/inkscape"
   xmlns:sodipodi="http://sodipodi.sourceforge.net/DTD/sodipodi-0.dtd"
   xmlns="http://www.w3.org/2000/svg"
   xmlns:svg="http://www.w3.org/2000/svg">
  <defs
     id="defs8" />
  <sodipodi:namedview
     id="namedview8"
     pagecolor="#ffffff"
     bordercolor="#000000"
     borderopacity="0.25"
     inkscape:showpageshadow="2"
     inkscape:pageopacity="0.0"
     inkscape:pagecheckerboard="0"
     inkscape:deskcolor="#d1d1d1" />
  <g
     id="color"
     transform="translate(-16.1673,-7.0304636)">
    <path
       fill="#a57939"
       d="M 54,17 39,8 h -6 l -15,9 h -1 v 20 h 5 V 26 h 1 l 3.9311,7.62 Q 25.4655,46.81 24,60 H 48 Q 46.5344,46.81 45.0689,33.62 L 49,26 h 1 v 11 h 5 V 17 Z"
       id="path1" />
    <path
       fill="#6a462f"
       d="m 30,10 c -0.7039,1.9925 2.3578,6.0016 6,6 3.6255,-0.0016 6.6992,-3.977 6,-6 C 41.2459,7.8183 36.1268,7.9748 35.5,8 34.3643,8.0456 30.6376,8.1953 30,10 Z"
       id="path2" />
  </g>
  <g
     id="line"
     transform="translate(-16.1673,-7.0304636)">
    <circle
       cx="35.900002"
       cy="39.900002"
       r="0.89999998"
       fill="#000000"
       id="circle2" />
    <circle
       cx="35.900002"
       cy="43.900002"
       r="0.89999998"
       fill="#000000"
       id="circle3" />
    <circle
       cx="35.900002"
       cy="47.900002"
       r="0.89999998"
       fill="#000000"
       id="circle4" />
    <g
       id="_">
      <polyline
         fill="none"
         stroke="#000000"
         stroke-linecap="round"
         stroke-linejoin="round"
         stroke-width="2"
         points="26.944 35 24 60 36.079 60 48.158 60 45.214 35"
         id="polyline4" />
      <path
         fill="none"
         stroke="#000000"
         stroke-linecap="round"
         stroke-linejoin="round"
         stroke-width="2"
         d="m 22.4461,26.3725 v 10.5687 h -5.2788 v -18.95 A 1.4518,1.4518 0 0 1 18.01,16.7129 L 27,11"
         id="path4" />
      <line
         x1="30"
         x2="42"
         y1="35"
         y2="35"
         fill="none"
         stroke="#000000"
         stroke-linecap="round"
         stroke-linejoin="round"
         stroke-width="2"
         id="line4" />
      <path
         fill="none"
         stroke="#000000"
         stroke-linecap="round"
         stroke-linejoin="round"
         stroke-width="2"
         d="m 45.1673,11 8.99,5.7132 A 1.4518,1.4518 0 0 1 55,17.9915 v 18.95 h -5.2788 v -10.569"
         id="path5" />
    </g>
    <g
       id="_2">
      <path
         fill="none"
         stroke="#000000"
         stroke-linecap="round"
         stroke-linejoin="round"
         stroke-width="2"
         d="M 29,10.5385 34.376,15.22 31.6271,17 C 25.528,10.5308 27.59,10.7137 27.59,10.7137 a 14.6763,14.6763 0 0 1 16.923,0 c 0,0 2.1475,-0.2556 -4.0375,6.2136 L 37.7266,15.1473 43,10.5385"
         id="path6" />
    </g>
    <circle
       cx="35.900002"
       cy="21.9"
       r="0.89999998"
       fill="#000000"
       id="circle6" />
    <circle
       cx="35.900002"
       cy="25.9"
       r="0.89999998"
       fill="#000000"
       id="circle7" />
    <circle
       cx="35.900002"
       cy="29.9"
       r="0.89999998"
       fill="#000000"
       id="circle8" />
  </g>
</svg>
