<?xml version="1.0" encoding="UTF-8" standalone="no"?>
<svg
   id="emoji"
   viewBox="0 0 49.815804 48"
   version="1.1"
   sodipodi:docname="1f9ee.svg"
   width="49.815804"
   height="48"
   xmlns:inkscape="http://www.inkscape.org/namespaces/inkscape"
   xmlns:sodipodi="http://sodipodi.sourceforge.net/DTD/sodipodi-0.dtd"
   xmlns="http://www.w3.org/2000/svg"
   xmlns:svg="http://www.w3.org/2000/svg">
  <defs
     id="defs35" />
  <sodipodi:namedview
     id="namedview35"
     pagecolor="#ffffff"
     bordercolor="#000000"
     borderopacity="0.25"
     inkscape:showpageshadow="2"
     inkscape:pageopacity="0.0"
     inkscape:pagecheckerboard="0"
     inkscape:deskcolor="#d1d1d1" />
  <g
     id="color"
     transform="translate(-11.0921,-11.8737)">
    <polygon
       fill="#ffffff"
       points="58.4098,39.0967 58.2172,21.3732 13.3305,20.8916 13.5232,39.2893 "
       id="polygon1" />
    <circle
       cx="20.196899"
       cy="19.7365"
       r="2.7237"
       fill="#ea5a47"
       id="circle1" />
    <path
       fill="#d22f27"
       d="m 21.2765,17.0572 c 0.8111,1.2649 0.4432,2.9478 -0.8216,3.7589 -0.895,0.5739 -2.0423,0.5739 -2.9373,0 0.8086,1.2674 2.4915,1.6394 3.7589,0.8309 1.2674,-0.8085 1.6394,-2.4915 0.8309,-3.7589 -0.2132,-0.3341 -0.4967,-0.6177 -0.8309,-0.8309 z"
       id="path1" />
    <circle
       cx="30.834299"
       cy="19.7365"
       r="2.7237"
       fill="#ea5a47"
       id="circle2" />
    <path
       fill="#d22f27"
       d="m 31.9139,17.0572 c 0.8111,1.2649 0.4432,2.9478 -0.8216,3.7589 -0.895,0.5739 -2.0423,0.5739 -2.9373,0 0.8086,1.2674 2.4915,1.6394 3.7589,0.8309 1.2674,-0.8085 1.6394,-2.4915 0.8309,-3.7589 -0.2132,-0.3341 -0.4967,-0.6177 -0.8309,-0.8309 z"
       id="path2" />
    <circle
       cx="37.697102"
       cy="19.7365"
       r="2.7237"
       fill="#ea5a47"
       id="circle3" />
    <path
       fill="#d22f27"
       d="m 38.7767,17.0572 c 0.8111,1.2649 0.4432,2.9478 -0.8216,3.7589 -0.895,0.5739 -2.0423,0.5739 -2.9373,0 0.8086,1.2674 2.4915,1.6394 3.7589,0.8309 1.2674,-0.8085 1.6394,-2.4915 0.8309,-3.7589 -0.2132,-0.3341 -0.4967,-0.6177 -0.8309,-0.8309 z"
       id="path3" />
    <circle
       cx="45.246201"
       cy="19.7365"
       r="2.7237"
       fill="#ea5a47"
       id="circle4" />
    <path
       fill="#d22f27"
       d="m 46.3258,17.0572 c 0.8111,1.2649 0.4432,2.9478 -0.8216,3.7589 -0.895,0.5739 -2.0423,0.5739 -2.9373,0 0.8086,1.2674 2.4915,1.6394 3.7589,0.8309 1.2674,-0.8085 1.6394,-2.4915 0.8309,-3.7589 C 46.9435,17.554 46.66,17.2704 46.3258,17.0572 Z"
       id="path4" />
    <circle
       cx="23.930901"
       cy="30.373899"
       r="2.7237"
       fill="#fcea2b"
       id="circle5" />
    <path
       fill="#f1b31c"
       d="m 25.0105,27.6946 c 0.8111,1.2648 0.4434,2.9477 -0.8214,3.7588 -0.895,0.574 -2.0424,0.574 -2.9374,0 0.8086,1.2673 2.4915,1.6392 3.7588,0.8307 1.2673,-0.8085 1.6392,-2.4915 0.8307,-3.7588 -0.2131,-0.334 -0.4966,-0.6175 -0.8307,-0.8307 z"
       id="path5" />
    <circle
       cx="31.1369"
       cy="30.373899"
       r="2.7237"
       fill="#fcea2b"
       id="circle6" />
    <path
       fill="#f1b31c"
       d="m 32.2165,27.6946 c 0.8112,1.2648 0.4435,2.9476 -0.8213,3.7588 -0.8951,0.5741 -2.0426,0.5741 -2.9376,0 0.8085,1.2675 2.4914,1.6396 3.7588,0.8311 1.2675,-0.8085 1.6396,-2.4914 0.8311,-3.7588 -0.2132,-0.3342 -0.4968,-0.6179 -0.8311,-0.8311 z"
       id="path6" />
    <circle
       cx="47.2645"
       cy="30.373899"
       r="2.7237"
       fill="#fcea2b"
       id="circle7" />
    <path
       fill="#f1b31c"
       d="m 48.3441,27.6946 c 0.8111,1.2648 0.4434,2.9477 -0.8214,3.7588 -0.895,0.574 -2.0424,0.574 -2.9374,0 0.8086,1.2673 2.4915,1.6392 3.7588,0.8307 1.2673,-0.8085 1.6392,-2.4915 0.8307,-3.7588 -0.2131,-0.334 -0.4966,-0.6175 -0.8307,-0.8307 z"
       id="path7" />
    <circle
       cx="54.813599"
       cy="30.373899"
       r="2.7237"
       fill="#fcea2b"
       id="circle8" />
    <path
       fill="#f1b31c"
       d="m 55.8933,27.6946 c 0.8112,1.2648 0.4435,2.9476 -0.8213,3.7588 -0.8951,0.5741 -2.0426,0.5741 -2.9376,0 0.8085,1.2675 2.4914,1.6396 3.7588,0.8311 1.2675,-0.8085 1.6396,-2.4914 0.8311,-3.7588 -0.2132,-0.3342 -0.4968,-0.6179 -0.8311,-0.8311 z"
       id="path8" />
    <circle
       cx="23.930901"
       cy="41.011299"
       r="2.7237"
       fill="#f4aa41"
       id="circle9" />
    <path
       fill="#e27022"
       d="m 25.0106,38.332 c 0.8112,1.2648 0.4435,2.9476 -0.8213,3.7588 -0.8951,0.5741 -2.0426,0.5741 -2.9376,0 0.8085,1.2675 2.4914,1.6396 3.7588,0.8311 1.2674,-0.8085 1.6396,-2.4914 0.8311,-3.7588 -0.2132,-0.3342 -0.4968,-0.6179 -0.8311,-0.8311 z"
       id="path9" />
    <circle
       cx="31.1369"
       cy="41.011299"
       r="2.7237"
       fill="#f4aa41"
       id="circle10" />
    <path
       fill="#e27022"
       d="m 32.2165,38.332 c 0.8112,1.2648 0.4435,2.9476 -0.8213,3.7588 -0.8951,0.5741 -2.0426,0.5741 -2.9376,0 0.8085,1.2675 2.4914,1.6396 3.7588,0.8311 1.2674,-0.8085 1.6396,-2.4914 0.8311,-3.7588 -0.2132,-0.3342 -0.4968,-0.6179 -0.8311,-0.8311 z"
       id="path10" />
    <circle
       cx="41.088001"
       cy="41.011299"
       r="2.7237"
       fill="#f4aa41"
       id="circle11" />
    <path
       fill="#e27022"
       d="m 42.1676,38.332 c 0.8112,1.2648 0.4435,2.9476 -0.8213,3.7588 -0.8951,0.5741 -2.0426,0.5741 -2.9376,0 0.8085,1.2675 2.4914,1.6396 3.7588,0.8311 1.2674,-0.8085 1.6396,-2.4914 0.8311,-3.7588 -0.2132,-0.3342 -0.4968,-0.6179 -0.8311,-0.8311 z"
       id="path11" />
    <circle
       cx="51.422699"
       cy="41.011299"
       r="2.7237"
       fill="#f4aa41"
       id="circle12" />
    <path
       fill="#e27022"
       d="m 52.5024,38.332 c 0.8112,1.2648 0.4435,2.9476 -0.8213,3.7588 -0.8951,0.5741 -2.0426,0.5741 -2.9376,0 0.8085,1.2675 2.4914,1.6396 3.7588,0.8311 1.2674,-0.8085 1.6396,-2.4914 0.8311,-3.7588 -0.2132,-0.3342 -0.4968,-0.6179 -0.8311,-0.8311 z"
       id="path12" />
  </g>
  <g
     id="line"
     transform="translate(-11.0921,-11.8737)">
    <line
       x1="12.0921"
       x2="12.0921"
       y1="58.873699"
       y2="12.8737"
       fill="none"
       stroke="#000000"
       stroke-linecap="round"
       stroke-linejoin="round"
       stroke-width="2"
       id="line12" />
    <line
       x1="48.651001"
       x2="59.5457"
       y1="19.736601"
       y2="19.7365"
       fill="none"
       stroke="#000000"
       stroke-linecap="round"
       stroke-linejoin="round"
       stroke-width="2"
       id="line13" />
    <line
       x1="41.023499"
       x2="41.891499"
       y1="19.736601"
       y2="19.736601"
       fill="none"
       stroke="#000000"
       stroke-linecap="round"
       stroke-linejoin="round"
       stroke-width="2"
       id="line14" />
    <line
       x1="34.144199"
       x2="34.407001"
       y1="19.736601"
       y2="19.736601"
       fill="none"
       stroke="#000000"
       stroke-linecap="round"
       stroke-linejoin="round"
       stroke-width="2"
       id="line15" />
    <line
       x1="23.586399"
       x2="27.473101"
       y1="19.736601"
       y2="19.736601"
       fill="none"
       stroke="#000000"
       stroke-linecap="round"
       stroke-linejoin="round"
       stroke-width="2"
       id="line16" />
    <line
       x1="12.8594"
       x2="16.8908"
       y1="19.736601"
       y2="19.736601"
       fill="none"
       stroke="#000000"
       stroke-linecap="round"
       stroke-linejoin="round"
       stroke-width="2"
       id="line17" />
    <line
       x1="59.907902"
       x2="59.907902"
       y1="58.873699"
       y2="12.8737"
       fill="none"
       stroke="#000000"
       stroke-linecap="round"
       stroke-linejoin="round"
       stroke-width="2"
       id="line18" />
    <circle
       cx="20.196899"
       cy="19.7365"
       r="2.7237"
       fill="none"
       stroke="#000000"
       stroke-miterlimit="10"
       stroke-width="1.3618"
       id="circle18" />
    <circle
       cx="30.834299"
       cy="19.7365"
       r="2.7237"
       fill="none"
       stroke="#000000"
       stroke-miterlimit="10"
       stroke-width="1.3618"
       id="circle19" />
    <circle
       cx="37.697102"
       cy="19.7365"
       r="2.7237"
       fill="none"
       stroke="#000000"
       stroke-miterlimit="10"
       stroke-width="1.3618"
       id="circle20" />
    <circle
       cx="45.246201"
       cy="19.7365"
       r="2.7237"
       fill="none"
       stroke="#000000"
       stroke-miterlimit="10"
       stroke-width="1.3618"
       id="circle21" />
    <line
       x1="58.074902"
       x2="58.859402"
       y1="30.373899"
       y2="30.373899"
       fill="none"
       stroke="#000000"
       stroke-linecap="round"
       stroke-linejoin="round"
       stroke-width="2"
       id="line21" />
    <line
       x1="50.557098"
       x2="51.5424"
       y1="30.373899"
       y2="30.373899"
       fill="none"
       stroke="#000000"
       stroke-linecap="round"
       stroke-linejoin="round"
       stroke-width="2"
       id="line22" />
    <line
       x1="34.479698"
       x2="43.921799"
       y1="30.373899"
       y2="30.373899"
       fill="none"
       stroke="#000000"
       stroke-linecap="round"
       stroke-linejoin="round"
       stroke-width="2"
       id="line23" />
    <line
       x1="27.182899"
       x2="27.885"
       y1="30.373899"
       y2="30.373899"
       fill="none"
       stroke="#000000"
       stroke-linecap="round"
       stroke-linejoin="round"
       stroke-width="2"
       id="line24" />
    <line
       x1="12.8594"
       x2="20.634399"
       y1="30.373899"
       y2="30.373899"
       fill="none"
       stroke="#000000"
       stroke-linecap="round"
       stroke-linejoin="round"
       stroke-width="2"
       id="line25" />
    <circle
       cx="23.930901"
       cy="30.373899"
       r="2.7237"
       fill="none"
       stroke="#000000"
       stroke-miterlimit="10"
       stroke-width="1.3618"
       id="circle25" />
    <circle
       cx="31.1369"
       cy="30.373899"
       r="2.7237"
       fill="none"
       stroke="#000000"
       stroke-miterlimit="10"
       stroke-width="1.3618"
       id="circle26" />
    <circle
       cx="47.2645"
       cy="30.373899"
       r="2.7237"
       fill="none"
       stroke="#000000"
       stroke-miterlimit="10"
       stroke-width="1.3618"
       id="circle27" />
    <circle
       cx="54.813702"
       cy="30.373899"
       r="2.7237"
       fill="none"
       stroke="#000000"
       stroke-miterlimit="10"
       stroke-width="1.3618"
       id="circle28" />
    <line
       x1="54.7598"
       x2="58.859402"
       y1="41.011299"
       y2="41.011299"
       fill="none"
       stroke="#000000"
       stroke-linecap="round"
       stroke-linejoin="round"
       stroke-width="2"
       id="line28" />
    <line
       x1="44.439602"
       x2="48.071201"
       y1="41.011299"
       y2="41.011299"
       fill="none"
       stroke="#000000"
       stroke-linecap="round"
       stroke-linejoin="round"
       stroke-width="2"
       id="line29" />
    <line
       x1="34.457802"
       x2="37.791401"
       y1="41.011299"
       y2="41.011299"
       fill="none"
       stroke="#000000"
       stroke-linecap="round"
       stroke-linejoin="round"
       stroke-width="2"
       id="line30" />
    <line
       x1="27.2519"
       x2="27.812"
       y1="41.011299"
       y2="41.011299"
       fill="none"
       stroke="#000000"
       stroke-linecap="round"
       stroke-linejoin="round"
       stroke-width="2"
       id="line31" />
    <line
       x1="12.8594"
       x2="20.606001"
       y1="41.011299"
       y2="41.011299"
       fill="none"
       stroke="#000000"
       stroke-linecap="round"
       stroke-linejoin="round"
       stroke-width="2"
       id="line32" />
    <circle
       cx="23.930901"
       cy="41.011299"
       r="2.7237"
       fill="none"
       stroke="#000000"
       stroke-miterlimit="10"
       stroke-width="1.3618"
       id="circle32" />
    <circle
       cx="31.1369"
       cy="41.011299"
       r="2.7237"
       fill="none"
       stroke="#000000"
       stroke-miterlimit="10"
       stroke-width="1.3618"
       id="circle33" />
    <circle
       cx="41.088001"
       cy="41.011299"
       r="2.7237"
       fill="none"
       stroke="#000000"
       stroke-miterlimit="10"
       stroke-width="1.3618"
       id="circle34" />
    <circle
       cx="51.422798"
       cy="41.011299"
       r="2.7237"
       fill="none"
       stroke="#000000"
       stroke-miterlimit="10"
       stroke-width="1.3618"
       id="circle35" />
  </g>
</svg>
