<?xml version="1.0" encoding="UTF-8" standalone="no"?>
<svg
   id="emoji"
   viewBox="0 0 51.335148 39.602859"
   version="1.1"
   sodipodi:docname="1f9e2.svg"
   width="51.335148"
   height="39.602859"
   xmlns:inkscape="http://www.inkscape.org/namespaces/inkscape"
   xmlns:sodipodi="http://sodipodi.sourceforge.net/DTD/sodipodi-0.dtd"
   xmlns="http://www.w3.org/2000/svg"
   xmlns:svg="http://www.w3.org/2000/svg">
  <defs
     id="defs8" />
  <sodipodi:namedview
     id="namedview8"
     pagecolor="#ffffff"
     bordercolor="#000000"
     borderopacity="0.25"
     inkscape:showpageshadow="2"
     inkscape:pageopacity="0.0"
     inkscape:pagecheckerboard="0"
     inkscape:deskcolor="#d1d1d1" />
  <g
     id="color"
     transform="translate(-8.5083996,-14.28977)">
    <path
       fill="#186648"
       d="m 49.08,43.82 c -0.8521,1.2378 -1.8604,2.3604 -3,3.34 -2.8864,2.6725 -6.5101,4.4147 -10.4,5 -2.1292,0.3873 -4.3175,0.3019 -6.41,-0.25 C 28.2298,51.5942 27.2568,51.0891 26.4,50.42 23.0654,48.0244 19.022,46.8198 14.92,47 c -1.5111,-0.0804 -3.0162,0.2442 -4.36,0.94 -0.42,0.23 -0.71,0.11 -1.11,-0.38 v -0.58 c 1.0155,-0.9504 2.1094,-1.8135 3.27,-2.58 2.28,-1.59 4.58,-3.17 6.87,-4.75 0.28,-0.32 0.68,-0.25 1,-0.3 2.1966,-0.2056 4.4112,-0.1046 6.58,0.3 3.13,0.53 6.18,1.39 9.26,2.12 2.7502,0.6808 5.534,1.2181 8.34,1.61 1,0.06 2.07,0.23 3.12,0.24 0.4079,-0.0739 0.8287,-0.0032 1.19,0.2 z"
       id="path1" />
    <path
       fill="#186648"
       d="M 49.08,43.82 45,43.51 c -0.0744,-0.0132 -0.1457,-0.0403 -0.21,-0.08 1.0146,-3.1517 1.6851,-6.404 2,-9.7 0.3436,-2.9199 0.1539,-5.8779 -0.56,-8.73 -0.5571,-2.4579 -2.0398,-4.6068 -4.14,-6 -0.16,-0.1 -0.36,-0.18 -0.35,-0.42 0,0 0.07,-0.08 0.12,-0.07 0.7671,0.0343 1.5191,0.2248 2.21,0.56 1.2897,0.4153 2.555,0.9027 3.79,1.46 3.1699,1.3851 5.8915,3.6254 7.86,6.47 1.6434,2.5599 2.5944,5.5025 2.76,8.54 0.1548,2.001 0.0911,4.0128 -0.19,6 0.0056,0.0966 0.0056,0.1934 0,0.29 -0.46,2.08 -1.26,2.65 -3.4,2.47 -1.9269,-0.2615 -3.8663,-0.4218 -5.81,-0.48 z"
       id="path2" />
    <path
       fill="#b1cc33"
       d="m 27.25,39.72 c -1.08,-0.1 -2.14,-0.26 -3.22,-0.33 -1.4832,-0.1005 -2.973,-0.0301 -4.44,0.21 0.0791,-1.2709 0.2699,-2.5325 0.57,-3.77 0.4893,-2.3482 1.2268,-4.6377 2.2,-6.83 1.7482,-3.9802 5.0406,-7.0777 9.12,-8.58 2.4213,-0.9149 4.9476,-1.523 7.52,-1.81 0.4901,-0.227 1.0364,-0.3036 1.57,-0.22 0.11,0 0.25,0 0.27,0.16 0.02,0.16 -0.14,0.17 -0.24,0.2 -0.53,0.19 -1.08,0.33 -1.62,0.53 -2.6337,1.0616 -4.895,2.8776 -6.5,5.22 -2.109,3.0663 -3.5814,6.5245 -4.33,10.17 -0.3653,1.5618 -0.6325,3.1449 -0.8,4.74 0.0086,0.1124 -0.0273,0.2238 -0.1,0.31 z"
       id="path3" />
    <path
       fill="#3f3f3f"
       d="m 40.67,18.51 -1.65,0.1 c -0.0726,-1.4065 1.0087,-2.6055 2.4152,-2.6781 0.5308,-0.0274 1.057,0.1118 1.5048,0.3981 0.8508,0.3702 1.3352,1.277 1.17,2.19 V 19 c -0.78,-0.12 -1.53,-0.41 -2.32,-0.47 -0.4,0.18 -0.79,-0.1 -1.12,-0.02 z"
       id="path4" />
    <path
       fill="#5c9e31"
       d="m 40.67,18.51 c 0.3473,-0.1351 0.7327,-0.1351 1.08,0 0.9098,0.1621 2.162,0.6015 2.7266,1.0821 1.5245,1.5383 1.6205,3.7359 2.0534,5.8579 0.3164,1.3679 0.484,2.766 0.5,4.17 0.0461,1.6695 -0.0241,3.3402 -0.21,5 -0.3357,2.6219 -0.8638,5.2156 -1.58,7.76 -0.1,0.36 -0.07,0.81 -0.46,1 -1.7019,-0.1792 -3.3915,-0.4597 -5.06,-0.84 -3.29,-0.67 -6.53,-1.56 -9.8,-2.32 -0.88,-0.2 -1.77,-0.37 -2.65,-0.55 0.0946,-1.5407 0.3255,-3.07 0.69,-4.57 0.5709,-2.8671 1.5474,-5.6383 2.9,-8.23 1.3418,-2.6863 3.3661,-4.9727 5.87,-6.63 1.234,-0.7721 2.5848,-1.3395 4,-1.68 h 0.08 z"
       id="path5" />
  </g>
  <g
     id="line"
     transform="translate(-8.5083996,-14.28977)">
    <line
       x1="19.34"
       x2="9.5100002"
       y1="38.779999"
       y2="46.919998"
       fill="none"
       stroke="#000000"
       stroke-linecap="round"
       stroke-linejoin="round"
       stroke-width="2"
       id="line5" />
    <path
       fill="none"
       stroke="#000000"
       stroke-linecap="round"
       stroke-linejoin="round"
       stroke-width="2"
       d="m 58,41.24 c 1.41,-5 3.12,-17.65 -13.85,-23 0,0 0.27,-2.72 -2.28,-2.94 -2.55,-0.22 -2.93,2.66 -2.93,2.66 C 19.12,19 19.5,38.72 19.5,38.72 c 2.5468,-0.3449 5.1338,-0.2536 7.65,0.27 2.44,0.51 7.44,1.74 12.38,2.66 1.91,0.36 3.83,0.64 5.55,0.88 0,0 2.2292,0.2878 3.85,0.53 1.6208,0.2422 4.679,0.71 6,0.71 1.321,0 2.6956,-1.1153 3.07,-2.53 z"
       id="path6" />
    <path
       fill="none"
       stroke="#000000"
       stroke-linecap="round"
       stroke-linejoin="round"
       stroke-width="2"
       d="m 9.51,46.92 c -0.06,1 1.08,0.87 2,0.54 0.92,-0.33 8.21,-2.06 16.49,3.91 8.28,5.97 22.9689,-7.4612 20.9981,-8.1632"
       id="path7" />
    <path
       fill="none"
       stroke="#000000"
       stroke-linecap="round"
       stroke-linejoin="round"
       stroke-width="2"
       d="m 27.15,39 c 1.54,-9.93 5.17,-15.39 8,-18.24 C 37,18.88 38,17.8791 42.79,18.5091 l 0.0614,0.01 c 1.4606,0.2488 2.5919,1.4016 3.0183,2.8205 0.7794,2.5933 2.7449,10.419 -0.6837,20.9014"
       id="path8" />
  </g>
</svg>
