<svg xmlns="http://www.w3.org/2000/svg" xmlns:svg="http://www.w3.org/2000/svg" id="emoji" width="54.689" height="40.187" version="1.1" viewBox="0 0 54.689 40.187"><g id="color" transform="translate(-8.6553439,-15.963371)"><path id="Gloves_Color_2" fill="#ea5a47" d="m 33.76,32.4295 c -1.5816,-1.582 -4.1121,0.5854 -4.9849,2.6526 l 0.0014,-10.4373 a 7.29,7.29 0 0 0 -2.6321,-5.6982 c -6.617,-5.3284 -15.4657,0.4108 -15.7323,7.0178 -0.2336,5.79 -0.0016,11.5886 -0.0025,17.383 0,3.0637 1.4989,10.5377 1.4989,10.5377 0,0 6.3562,1.1788 9.5168,1.32 3.38,0.1506 6.7166,-0.0164 8.9268,-2.1929 2.1361,-2.1035 3.2031,-6.1585 3.2036,-9.3933 -0.0342,-2.235 0.2032,-6.0348 0.2043,-11.1894 z"/><path id="Gloves_Color_2-2" fill="#ea5a47" d="m 38.0406,32.5248 c 1.5815,-1.5821 4.1121,0.5853 4.9849,2.6525 L 43.024,24.74 a 7.29,7.29 0 0 1 2.6322,-5.6982 c 6.6169,-5.3284 15.4656,0.4109 15.7322,7.0179 0.2336,5.79 0.0017,11.5886 0.0025,17.3829 0,3.0638 -1.4988,10.5378 -1.4988,10.5378 0,0 -6.3563,1.1788 -9.5169,1.32 -3.38,0.1506 -6.7166,-0.0165 -8.9268,-2.1929 -2.1361,-2.1035 -3.2031,-6.1585 -3.2036,-9.3933 0.0338,-2.235 -0.2035,-6.0348 -0.2042,-11.1894 z"/></g><g id="line" transform="translate(-8.6553439,-15.963371)"><path id="Gloves_Line_1" fill="none" stroke="#000" stroke-linecap="round" stroke-linejoin="round" stroke-width="2" d="m 12.9834,55.1505 h 15.5327 c 4.6471,-3.7963 6.7794,-10.2411 5.5558,-21.5825 a 1.6534,1.6534 0 0 0 -2.1567,-1.4435 5.79,5.79 0 0 0 -2.9407,3.0528 L 28.976,24.74 a 7.3549,7.3549 0 0 0 -2.8,-5.8308 C 19.5783,13.8105 11.1374,19.5243 10.612,26.0597 9.7764,36.4475 8.13,49.7477 12.9834,55.1505 Z"/><path id="Gloves_Line_1-2" fill="none" stroke="#000" stroke-linecap="round" stroke-linejoin="round" stroke-width="2" d="M 59.0166,55.1505 H 43.4839 C 38.8368,51.3542 36.7045,44.9094 37.9281,33.568 a 1.6534,1.6534 0 0 1 2.1567,-1.4435 5.79,5.79 0 0 1 2.9407,3.0528 L 43.024,24.74 a 7.3549,7.3549 0 0 1 2.8,-5.8308 c 6.5977,-5.0987 15.0386,0.6151 15.564,7.1505 0.8356,10.3878 2.482,23.688 -2.3714,29.0908 z"/><line id="line1" x1="43.484" x2="43.026" y1="41.882" y2="35.177" fill="none" stroke="#000" stroke-linecap="round" stroke-linejoin="round" stroke-width="2"/><line id="line2" x1="28.516" x2="28.975" y1="41.882" y2="35.177" fill="none" stroke="#000" stroke-linecap="round" stroke-linejoin="round" stroke-width="2"/></g></svg>