<?xml version="1.0" encoding="UTF-8" standalone="no"?>
<svg
   id="emoji"
   viewBox="0 0 47.457825 52.027878"
   version="1.1"
   sodipodi:docname="1f9e3.svg"
   width="47.457825"
   height="52.027878"
   xmlns:inkscape="http://www.inkscape.org/namespaces/inkscape"
   xmlns:sodipodi="http://sodipodi.sourceforge.net/DTD/sodipodi-0.dtd"
   xmlns="http://www.w3.org/2000/svg"
   xmlns:svg="http://www.w3.org/2000/svg">
  <defs
     id="defs1" />
  <sodipodi:namedview
     id="namedview1"
     pagecolor="#ffffff"
     bordercolor="#000000"
     borderopacity="0.25"
     inkscape:showpageshadow="2"
     inkscape:pageopacity="0.0"
     inkscape:pagecheckerboard="0"
     inkscape:deskcolor="#d1d1d1" />
  <g
     id="color"
     transform="translate(-12.244468,-10.079622)">
    <path
       id="Scarf_Color_1"
       fill="#ea5a47"
       d="m 58.5325,26.2869 c -0.7637,-4.5368 -5.5179,-3.3408 -6.6654,-4.8738 0,0 1.5728,-3.7014 0.79,-6.2409 -0.84,-2.7235 -4.5033,-4.4717 -5.0751,-4.0175 a 20.7541,20.7541 0 0 1 -11.6084,4.017 20.7541,20.7541 0 0 1 -11.6084,-4.017 c -0.5718,-0.4542 -4.2353,1.294 -5.0751,4.0175 a 8.2083,8.2083 0 0 0 0.1069,4.0978 2.65,2.65 0 0 1 -1.9159,3.2084 c -1.6963,0.422 -3.6067,1.0736 -4.067,3.8084 -1.1975,7.1144 3.9252,8.4664 6.6654,8.8068 7.8862,0.98 23.8853,0.8409 31.7876,0 2.7457,-0.292 7.8629,-1.6923 6.6654,-8.8067 z" />
    <path
       id="Scarf_Color_2"
       fill="#ea5a47"
       d="m 41.786,35.7819 c 0,0 7.049,-0.4124 7.4305,-0.4535 a 33.6533,33.6533 0 0 0 7.8259,-1.8118 c 0.0192,-0.0058 0,5.6384 0,5.6384 -0.1608,6.5671 -0.8528,16.53 -0.8528,16.53 L 42.8,57.1252 c 0,0 -0.156,-10.7842 -0.2307,-17.1464 -0.0015,-0.13 -0.7821,-0.834 -0.7836,-0.96 z" />
    <line
       id="Scarf_Color_3"
       x1="46.140301"
       x2="46.140301"
       y1="61.107498"
       y2="55.092999"
       fill="none"
       stroke="#ea5a47"
       stroke-linecap="round"
       stroke-linejoin="round"
       stroke-width="2" />
    <line
       id="Scarf_Color_4"
       x1="48.806301"
       x2="48.806301"
       y1="60.7794"
       y2="54.764801"
       fill="none"
       stroke="#ea5a47"
       stroke-linecap="round"
       stroke-linejoin="round"
       stroke-width="2" />
    <line
       id="Scarf_Color_5"
       x1="51.472301"
       x2="51.472301"
       y1="60.451199"
       y2="54.436699"
       fill="none"
       stroke="#ea5a47"
       stroke-linecap="round"
       stroke-linejoin="round"
       stroke-width="2" />
    <path
       id="Scarf_Color_6"
       fill="#d22f27"
       d="m 58.5325,26.2869 c -1.11,-4.4648 -5.5179,-3.3408 -6.6654,-4.8738 0,0 1.5728,-3.7014 0.79,-6.2409 -0.84,-2.7235 -4.5033,-4.4717 -5.0751,-4.0175 A 24.6416,24.6416 0 0 1 46.14,23.4324 c 0,0 1.0507,7.1627 -3.45,12.3451 0,0 18.3283,0.5115 15.8425,-9.4906 z" />
    <polygon
       id="Scarf_Color_7"
       fill="#d22f27"
       points="55.616,55.585 57.042,37.575 57.042,33.517 51.088,56.159 " />
  </g>
  <g
     id="line"
     transform="translate(-12.244468,-10.079622)">
    <path
       id="Scarf_Line_1"
       fill="none"
       stroke="#000000"
       stroke-miterlimit="10"
       stroke-width="2"
       d="m 58.5325,26.2869 c -0.5538,-3.29 -3.2062,-3.5652 -5.06,-4.0526 a 1.65,1.65 0 0 1 -1.1647,-2.0749 9.3069,9.3069 0 0 0 0.3488,-4.9872 c -0.84,-2.7235 -4.5033,-4.4717 -5.0751,-4.0175 a 20.7541,20.7541 0 0 1 -11.6084,4.017 20.7541,20.7541 0 0 1 -11.6084,-4.017 c -0.5718,-0.4542 -4.2353,1.294 -5.0751,4.0175 a 9.497,9.497 0 0 0 0.394,5.1338 1.472,1.472 0 0 1 -0.9778,1.8647 c -1.8562,0.533 -4.7145,0.6862 -5.2919,4.1162 -1.1975,7.1144 3.9252,8.4664 6.6654,8.8068 7.8862,0.98 23.8853,0.8409 31.7876,0 2.7459,-0.2921 7.8631,-1.6924 6.6656,-8.8068 z" />
    <line
       id="Scarf_Line_2"
       x1="56.056499"
       x2="56.056499"
       y1="54.711201"
       y2="37.3367"
       fill="none"
       stroke="#000000"
       stroke-linecap="round"
       stroke-linejoin="round"
       stroke-width="2" />
    <line
       id="Scarf_Line_3"
       x1="42.800301"
       x2="42.800301"
       y1="56.117599"
       y2="38.743099"
       fill="none"
       stroke="#000000"
       stroke-linecap="round"
       stroke-linejoin="round"
       stroke-width="2" />
    <line
       id="Scarf_Line_4"
       x1="52.219398"
       x2="52.219398"
       y1="59.979401"
       y2="53.964802"
       fill="none"
       stroke="#000000"
       stroke-linecap="round"
       stroke-linejoin="round"
       stroke-width="2" />
    <line
       id="Scarf_Line_5"
       x1="49.553398"
       x2="49.553398"
       y1="60.307499"
       y2="54.292999"
       fill="none"
       stroke="#000000"
       stroke-linecap="round"
       stroke-linejoin="round"
       stroke-width="2" />
    <line
       id="Scarf_Line_6"
       x1="46.887402"
       x2="46.887402"
       y1="60.635601"
       y2="54.621101"
       fill="none"
       stroke="#000000"
       stroke-linecap="round"
       stroke-linejoin="round"
       stroke-width="2" />
    <path
       id="Scarf_Line_7"
       fill="none"
       stroke="#000000"
       stroke-linecap="round"
       stroke-miterlimit="10"
       stroke-width="2"
       d="m 22.98,23.4314 c 3.7066,1.6744 7.5693,2.1755 12.993,2.1755 a 25.1354,25.1354 0 0 0 7.1648,-1.0878" />
  </g>
</svg>
