<svg xmlns="http://www.w3.org/2000/svg" xmlns:svg="http://www.w3.org/2000/svg" id="emoji" width="50" height="50" version="1.1" viewBox="0 0 50 50"><g id="line-supplement" transform="translate(-11,-11)"><polyline id="polyline1" points="33.2 33.2 48 24 38.8 38.8"/></g><g id="color" transform="translate(-11,-11)"><circle id="circle1" cx="36" cy="36" r="24" fill="#fcea2b"/><path id="path1" fill="#f1b31c" d="M 53,19 A 24.0417,24.0417 0 0 1 36,60 24.302,24.302 0 0 1 19,53"/><polyline id="polyline2" fill="#fff" points="33.2 33.2 24 48 38.8 38.8"/><polyline id="polyline3" fill="#ea5a47" points="33.2 33.2 48 24 38.8 38.8"/></g><g id="line" transform="translate(-11,-11)"><circle id="circle3" cx="36" cy="36" r="24" fill="none" stroke="#000" stroke-linecap="round" stroke-linejoin="round" stroke-width="2"/><polyline id="polyline4" fill="none" stroke="#000" stroke-linecap="round" stroke-linejoin="round" stroke-width="2" points="33.2 33.2 24 48 38.8 38.8"/><polyline id="polyline5" fill="none" stroke="#000" stroke-linecap="round" stroke-linejoin="round" stroke-width="2" points="33.2 33.2 48 24 38.8 38.8"/><line id="line5" x1="36" x2="36" y1="21" y2="16" fill="none" stroke="#000" stroke-linecap="round" stroke-linejoin="round" stroke-width="2"/><line id="line6" x1="36" x2="36" y1="56" y2="51" fill="none" stroke="#000" stroke-linecap="round" stroke-linejoin="round" stroke-width="2"/><line id="line7" x1="51" x2="56" y1="36" y2="36" fill="none" stroke="#000" stroke-linecap="round" stroke-linejoin="round" stroke-width="2"/><line id="line8" x1="16" x2="21" y1="36" y2="36" fill="none" stroke="#000" stroke-linecap="round" stroke-linejoin="round" stroke-width="2"/></g></svg>