<?xml version="1.0" encoding="UTF-8" standalone="no"?>
<svg
   id="emoji"
   viewBox="0 0 56 44"
   version="1.1"
   sodipodi:docname="1f9f3.svg"
   width="56"
   height="44"
   xmlns:inkscape="http://www.inkscape.org/namespaces/inkscape"
   xmlns:sodipodi="http://sodipodi.sourceforge.net/DTD/sodipodi-0.dtd"
   xmlns="http://www.w3.org/2000/svg"
   xmlns:svg="http://www.w3.org/2000/svg">
  <defs
     id="defs18" />
  <sodipodi:namedview
     id="namedview18"
     pagecolor="#ffffff"
     bordercolor="#000000"
     borderopacity="0.25"
     inkscape:showpageshadow="2"
     inkscape:pageopacity="0.0"
     inkscape:pagecheckerboard="0"
     inkscape:deskcolor="#d1d1d1" />
  <g
     id="line-supplement"
     transform="translate(-8,-15)">
    <g
       id="g5">
      <path
         d="m 40.701,37.6519 2.598,1.5 -1,1.7321 -2.598,-1.5 1,-1.7321 m -0.3651,-2.3662 a 1,1 0 0 0 -0.867,0.5 l -2,3.4641 a 1,1 0 0 0 0.366,1.366 l 4.33,2.5 a 0.9994,0.9994 0 0 0 1.366,-0.366 l 2,-3.4641 a 1,1 0 0 0 -0.366,-1.366 l -4.33,-2.5 a 0.9944,0.9944 0 0 0 -0.499,-0.1342 z"
         id="path1" />
      <path
         d="M 30.4974,29.2674 A 1.0015,1.0015 0 1 1 30,29.4019 0.9926,0.9926 0 0 1 30.4974,29.2674 m 0,-2 a 3,3 0 1 0 2.6009,1.5005 2.987,2.987 0 0 0 -2.6009,-1.5005 z"
         id="path2" />
      <path
         d="M 58.4972,42.2681 A 1.0008,1.0008 0 1 1 58,42.4026 0.9922,0.9922 0 0 1 58.4974,42.2681 m 0,-2 a 3,3 0 1 0 2.6009,1.5005 2.9869,2.9869 0 0 0 -2.6009,-1.5005 z"
         id="path3" />
      <path
         d="m 33.299,47.6519 1,1.7321 -2.598,1.5 -1,-1.7321 2.598,-1.5 m 0.3651,-2.3662 a 0.9946,0.9946 0 0 0 -0.499,0.1342 l -4.33,2.5 a 1,1 0 0 0 -0.366,1.366 l 2,3.4641 a 0.9994,0.9994 0 0 0 1.366,0.366 l 4.33,-2.5 a 1,1 0 0 0 0.366,-1.366 l -2,-3.4641 a 1,1 0 0 0 -0.867,-0.5 z"
         id="path4" />
      <path
         d="m 15,38.5 v 3 h -2 v -3 h 2 m 1,-2 h -4 a 1,1 0 0 0 -1,1 v 5 a 1,1 0 0 0 1,1 h 4 a 1,1 0 0 0 1,-1 v -5 a 1,1 0 0 0 -1,-1 z"
         id="path5" />
    </g>
  </g>
  <g
     id="color"
     transform="translate(-8,-15)">
    <g
       id="g10">
      <rect
         x="9"
         y="22"
         rx="3"
         width="54"
         height="34"
         fill="#a57939"
         id="rect5" />
      <rect
         x="19"
         y="20"
         rx="1"
         width="4"
         height="38"
         fill="#6a462f"
         id="rect6" />
      <rect
         x="49"
         y="20"
         rx="1"
         width="4"
         height="38"
         fill="#6a462f"
         id="rect7" />
      <rect
         x="38"
         y="36.267899"
         rx="1"
         width="7"
         height="6"
         transform="matrix(0.866,0.5,-0.5,0.866,25.194,-15.4891)"
         fill="#e67a94"
         id="rect8" />
      <circle
         cx="30.5"
         cy="30.2679"
         r="3"
         fill="#fcea2b"
         id="circle8" />
      <circle
         cx="58.499802"
         cy="43.2686"
         r="3"
         fill="#61b2e4"
         id="circle9" />
      <rect
         x="29"
         y="46.267899"
         rx="1"
         width="7"
         height="6"
         transform="rotate(-30,32.500087,49.267972)"
         fill="#f4aa41"
         id="rect9" />
      <rect
         x="10.5"
         y="37"
         rx="1"
         width="7"
         height="6"
         transform="rotate(90.0001,14.000023,39.999953)"
         fill="#b1cc33"
         id="rect10" />
      <path
         fill="#a57939"
         d="m 33.5,22 v -2 a 1,1 0 0 1 1,-1 h 3 a 1,1 0 0 1 1,1 v 2 h 3 V 18.2 A 2.2,2.2 0 0 0 39.3,16 h -6.6 a 2.2,2.2 0 0 0 -2.2,2.2 V 22 Z"
         id="path10" />
    </g>
  </g>
  <g
     id="line"
     transform="translate(-8,-15)">
    <g
       id="g18">
      <path
         fill="none"
         stroke="#000000"
         stroke-linejoin="round"
         stroke-width="2"
         d="m 33.5,22 v -2 a 1,1 0 0 1 1,-1 h 3 a 1,1 0 0 1 1,1 v 2 h 3 V 18.2 A 2.2,2.2 0 0 0 39.3,16 h -6.6 a 2.2,2.2 0 0 0 -2.2,2.2 V 22 Z"
         id="path11" />
      <path
         fill="none"
         stroke="#000000"
         stroke-miterlimit="10"
         stroke-width="2"
         d="m 53,56 h 7 a 3,3 0 0 0 3,-3 V 25 a 3,3 0 0 0 -3,-3 h -7"
         id="path12" />
      <path
         fill="none"
         stroke="#000000"
         stroke-miterlimit="10"
         stroke-width="2"
         d="m 19,22 h -7 a 3,3 0 0 0 -3,3 v 28 a 3,3 0 0 0 3,3 h 7"
         id="path13" />
      <polyline
         fill="none"
         stroke="#000000"
         stroke-linecap="round"
         stroke-linejoin="round"
         stroke-width="2"
         points="40.067 40.75 38.335 39.75 40.335 36.286 43.366 38.036"
         id="polyline13" />
      <path
         fill="none"
         stroke="#000000"
         stroke-linecap="round"
         stroke-miterlimit="10"
         stroke-width="2"
         d="m 31.5,32 a 2,2 0 1 1 -2,-3.4635"
         id="path14" />
      <path
         fill="none"
         stroke="#000000"
         stroke-linecap="round"
         stroke-miterlimit="10"
         stroke-width="2"
         d="m 57.5,41.5365 a 2,2 0 1 1 2,3.4641"
         id="path15" />
      <polyline
         fill="none"
         stroke="#000000"
         stroke-linecap="round"
         stroke-linejoin="round"
         stroke-width="2"
         points="31.067 47.786 29.335 48.786 31.335 52.25 34.366 50.5"
         id="polyline15" />
      <polyline
         fill="none"
         stroke="#000000"
         stroke-linecap="round"
         stroke-linejoin="round"
         stroke-width="2"
         points="12 39.5 12 37.5 16 37.5 16 41"
         id="polyline16" />
      <rect
         x="19"
         y="20"
         rx="1"
         width="4"
         height="38"
         fill="none"
         stroke="#000000"
         stroke-miterlimit="10"
         stroke-width="2"
         id="rect16" />
      <rect
         x="49"
         y="20"
         rx="1"
         width="4"
         height="38"
         fill="none"
         stroke="#000000"
         stroke-miterlimit="10"
         stroke-width="2"
         id="rect17" />
      <line
         x1="23"
         x2="49"
         y1="22"
         y2="22"
         fill="none"
         stroke="#000000"
         stroke-miterlimit="10"
         stroke-width="2"
         id="line17" />
      <line
         x1="49"
         x2="23"
         y1="56"
         y2="56"
         fill="none"
         stroke="#000000"
         stroke-miterlimit="10"
         stroke-width="2"
         id="line18" />
    </g>
  </g>
</svg>
