<svg xmlns="http://www.w3.org/2000/svg" xmlns:svg="http://www.w3.org/2000/svg" id="emoji" width="26.883" height="53.579" version="1.1" viewBox="0 0 26.883 53.579"><g id="color" transform="translate(-25.738995,-9.4277857)"><path id="path1" fill="#d0cfce" d="m 46.16,18.741 c -0.374,-2.402 -1.617,-4.589 -3.501,-6.132 l -0.312,-0.243 c -0.396,-0.293 -0.811,-0.557 -1.245,-0.79 L 40.764,11.403 C 40.731,11.387 40.699,11.372 40.666,11.358 L 40.373,11.226 C 40.295,11.185 40.213,11.15 40.129,11.122 L 39.884,11.028 C 39.821,11.002 39.756,10.979 39.691,10.961 V 10.96 c -0.103,-0.035 -0.208,-0.07 -0.309,-0.099 l -0.029,-0.008 v -10e-4 c -0.15,-0.046 -0.3,-0.091 -0.394,-0.112 -0.149,-0.04 -0.298,-0.078 -0.455,-0.11 -0.059,-0.014 -0.118,-0.025 -0.178,-0.034 l -0.115,-0.019 c -0.085,-0.016 -0.157,-0.028 -0.166,-0.028 -0.118,-0.021 -0.237,-0.037 -0.356,-0.047 -0.749,-0.092 -1.506,-0.099 -2.256,-0.018 -0.148,0.013 -0.296,0.035 -0.377,0.051 -0.095,0.012 -0.185,0.027 -0.274,0.043 l -0.109,0.018 c -0.065,0.009 -0.129,0.022 -0.192,0.039 -0.283,0.058 -0.563,0.131 -0.838,0.218 -0.295,0.091 -0.591,0.194 -0.867,0.307 -0.05,0.02 -0.099,0.043 -0.147,0.068 l -0.288,0.13 c -0.027,0.012 -0.056,0.025 -0.083,0.038 -0.56,0.273 -1.094,0.597 -1.594,0.969 l -0.374,0.291 c -2.251,1.856 -3.554,4.622 -3.551,7.539 0,0.172 10e-4,0.343 0.011,0.509 0.011,0.188 0.023,0.354 0.046,0.53 0.109,0.852 0.834,1.49 1.692,1.491 0.271,0.003 0.538,-0.068 0.771,-0.204 0.634,-0.379 0.992,-1.09 0.917,-1.824 -0.006,-0.062 -0.009,-0.125 -0.013,-0.196 -0.006,-0.102 -0.005,-0.204 -0.005,-0.306 -0.006,-1.873 0.819,-3.653 2.253,-4.858 L 32.714,15.1 c 0.326,-0.24 0.672,-0.45 1.035,-0.628 l 0.287,-0.129 c 0.035,-0.014 0.07,-0.03 0.104,-0.047 0.166,-0.065 0.343,-0.124 0.533,-0.183 0.179,-0.057 0.362,-0.104 0.546,-0.141 l 0.04,-0.009 0.306,-0.048 c 0.057,-0.01 0.114,-0.021 0.214,-0.03 0.481,-0.057 0.966,-0.056 1.446,0.004 0.022,0.003 0.067,0.008 0.089,0.01 l 0.297,0.044 c 0.051,0.009 0.102,0.017 0.152,0.025 0.018,0.005 0.293,0.077 0.31,0.08 L 37.815,13.98 c 0.09,0.016 0.175,0.04 0.316,0.077 0.072,0.016 0.144,0.041 0.216,0.062 0.018,0.006 0.037,0.012 0.057,0.017 0.025,0.008 0.048,0.015 0.069,0.021 l 0.204,0.07 0.007,0.002 0.056,0.022 c 0.058,0.023 0.115,0.045 0.171,0.065 0.021,0.01 0.042,0.019 0.063,0.028 l 0.545,0.262 c 0.27,0.146 0.53,0.312 0.777,0.496 l 0.242,0.188 c 1.22,1.005 2.021,2.429 2.247,3.994 0.031,0.242 -0.043,0.486 -0.205,0.669 -0.161,0.184 -0.394,0.289 -0.638,0.288 -1.397,0.011 -2.788,-0.2 -4.119,-0.625 -0.358,-0.113 -0.749,-0.001 -0.993,0.285 -0.244,0.285 -0.294,0.689 -0.127,1.026 1.197,2.364 3.734,5.69 8.316,4.843 0.742,-0.153 1.276,-0.804 1.28,-1.562 0.079,-1.823 0.033,-3.65 -0.139,-5.467 z"/><ellipse id="ellipse1" cx="36.489" cy="57.306" fill="#d0cfce" rx="4.725" ry="4.701"/></g><g id="line" transform="translate(-25.738995,-9.4277857)"><path id="path2" fill="none" stroke="#000" stroke-linecap="round" stroke-linejoin="round" stroke-width="2" d="m 41.1433,58.223 c 0,0 7.4435,-25.2046 10.4789,-35.0066"/><path id="path3" fill="none" stroke="#000" stroke-miterlimit="10" stroke-width="2" d="m 26.7958,21.234 c 0.6752,7.2821 4.9723,36.496 4.9723,36.496"/><ellipse id="ellipse3" cx="36.489" cy="57.306" fill="none" stroke="#000" stroke-miterlimit="10" stroke-width="2" rx="4.725" ry="4.701"/><ellipse id="ellipse4" cx="36.51" cy="57.306" fill="none" stroke="#000" stroke-miterlimit="10" stroke-width="2" rx="1.667" ry="1.675"/><path id="path4" fill="none" stroke="#000" stroke-miterlimit="10" stroke-width="2" d="m 26.739,20.195 c 0,0.172 10e-4,0.343 0.011,0.509 0.011,0.188 0.023,0.354 0.046,0.53 0.109,0.852 0.834,1.49 1.692,1.491"/><path id="path5" fill="none" stroke="#000" stroke-miterlimit="10" stroke-width="2" d="m 46.16,18.741 c -0.374,-2.402 -1.617,-4.589 -3.501,-6.132 l -0.312,-0.243 c -0.396,-0.293 -0.811,-0.557 -1.245,-0.79 L 40.764,11.403 C 40.732,11.387 40.699,11.372 40.666,11.358 L 40.373,11.226 C 40.295,11.185 40.213,11.15 40.129,11.122 L 39.884,11.028 C 39.821,11.002 39.756,10.979 39.691,10.961 V 10.96 c -0.103,-0.035 -0.208,-0.07 -0.309,-0.099 l -0.029,-0.008 v -10e-4 c -0.15,-0.046 -0.3,-0.091 -0.394,-0.112 -0.149,-0.04 -0.298,-0.078 -0.455,-0.11 -0.059,-0.014 -0.118,-0.025 -0.178,-0.034 l -0.115,-0.019 c -0.084,-0.016 -0.157,-0.028 -0.166,-0.028 -0.118,-0.021 -0.237,-0.037 -0.356,-0.047 -0.749,-0.092 -1.506,-0.099 -2.256,-0.018 -0.148,0.013 -0.296,0.035 -0.377,0.05 -0.095,0.013 -0.185,0.028 -0.274,0.044 l -0.109,0.018 c -0.065,0.009 -0.129,0.022 -0.192,0.039 -0.283,0.058 -0.563,0.131 -0.838,0.218 -0.295,0.091 -0.591,0.194 -0.867,0.307 -0.05,0.02 -0.099,0.043 -0.147,0.068 l -0.288,0.129 c -0.027,0.013 -0.056,0.026 -0.083,0.039 -0.56,0.273 -1.094,0.597 -1.594,0.969 l -0.374,0.291 c -2.251,1.856 -3.554,4.622 -3.551,7.539 0,0.172 10e-4,0.343 0.011,0.509 0.011,0.188 0.023,0.354 0.046,0.53 0.111,0.862 0,1.746 1.692,1.491 0.269,-0.015 0.531,-0.085 0.771,-0.204 0.634,-0.379 0.992,-1.09 0.917,-1.824 -0.006,-0.062 -0.009,-0.125 -0.013,-0.196 -0.006,-0.102 -0.005,-0.204 -0.005,-0.306 -0.006,-1.873 0.819,-3.653 2.253,-4.858 L 32.714,15.1 c 0.326,-0.24 0.672,-0.45 1.035,-0.628 l 0.287,-0.129 c 0.035,-0.014 0.07,-0.03 0.104,-0.047 0.166,-0.065 0.343,-0.124 0.533,-0.183 0.179,-0.057 0.362,-0.104 0.546,-0.141 l 0.04,-0.009 0.306,-0.048 c 0.057,-0.01 0.114,-0.021 0.214,-0.03 0.481,-0.057 0.966,-0.056 1.446,0.004 0.022,0.003 0.067,0.008 0.089,0.01 l 0.297,0.043 c 0.051,0.01 0.102,0.018 0.152,0.026 0.018,0.005 0.293,0.077 0.31,0.08 L 37.815,13.98 c 0.09,0.016 0.175,0.04 0.316,0.077 0.072,0.016 0.144,0.041 0.216,0.062 0.018,0.006 0.037,0.012 0.057,0.017 0.025,0.008 0.048,0.015 0.069,0.021 l 0.204,0.07 0.007,0.002 0.056,0.022 c 0.058,0.023 0.115,0.045 0.171,0.065 0.021,0.01 0.042,0.019 0.063,0.028 l 0.545,0.262 c 0.27,0.146 0.53,0.312 0.777,0.496 l 0.242,0.188 c 1.22,1.005 2.021,2.429 2.247,3.994 0.031,0.242 -0.043,0.486 -0.205,0.669 -0.161,0.184 -0.394,0.289 -0.638,0.288 -1.397,0.011 -2.788,-0.2 -4.119,-0.625 -0.358,-0.113 -0.749,-0.001 -0.993,0.285 -0.244,0.285 -0.294,0.689 -0.127,1.025 1.197,2.365 3.734,5.691 8.316,4.844 0.742,-0.153 1.276,-0.804 1.28,-1.562 0.079,-1.823 0.033,-3.65 -0.139,-5.467 z"/></g></svg>