<svg xmlns="http://www.w3.org/2000/svg" xmlns:svg="http://www.w3.org/2000/svg" id="emoji" width="58.937" height="46.494" version="1.1" viewBox="0 0 58.937 46.494"><g id="color" transform="translate(-7.5824013,-11.598402)"><circle id="circle1" cx="30.806" cy="34.822" r="22.224" fill="#f4aa41"/><path id="path1" fill="#e27022" d="m 43.2943,15.8254 c -6.2393,2.6787 -12.0117,8.0346 -12.0117,17.646 0,9.6114 2.7688,16.8558 11.31,19.955 5.712,-4.986 11.01,-8.8868 11.01,-18.4984 0,-9.6116 -6.5126,-16.0487 -10.3083,-19.1026 z"/></g><g id="line" transform="translate(-7.5824013,-11.598402)"><circle id="circle2" cx="30.806" cy="34.822" r="22.224" fill="none" stroke="#000" stroke-linecap="round" stroke-linejoin="round" stroke-width="2"/><path id="path2" fill="none" stroke="#000" stroke-linecap="round" stroke-linejoin="round" stroke-width="2" d="m 43.92,17.0156 a 22.124,22.124 0 0 1 -13.1141,4.28 22.1238,22.1238 0 0 1 -13.1232,-4.2865"/><path id="path3" fill="none" stroke="#000" stroke-linecap="round" stroke-linejoin="round" stroke-width="2" d="m 46.7354,19.6607 c -3.3016,4.46 -9.726,8.3615 -15.9293,8.3615 a 21.241,21.241 0 0 1 -16.21,-8.2991"/><path id="path4" fill="none" stroke="#000" stroke-linecap="round" stroke-linejoin="round" stroke-width="2" d="M 49.1487,22.6555 C 46.3245,29.142 38.6345,34.7491 30.8061,34.7491 A 21.24,21.24 0 0 1 12.3428,23.0609"/><path id="path5" fill="none" stroke="#000" stroke-linecap="round" stroke-linejoin="round" stroke-width="2" d="m 51.2308,26.4248 c -2.6184,8.1809 -11.28,15.0511 -20.4247,15.0511 A 22.361,22.361 0 0 1 10.2507,26.6609"/><path id="path6" fill="none" stroke="#000" stroke-linecap="round" stroke-linejoin="round" stroke-width="2" d="M 52.559,30.5513 A 22.2316,22.2316 0 0 1 30.8061,48.2027 22.6412,22.6412 0 0 1 8.8738,31.2144"/><path id="path7" fill="none" stroke="#000" stroke-linecap="round" stroke-linejoin="round" stroke-width="2" d="m 45.1424,51.971 c 1.3165,0.9452 3.7331,3.6351 6.6276,3.6753 2.8945,0.0402 5.5935,-3.1506 7.0575,-2.3287 2.6065,1.4632 3.7516,3.7282 6.6919,3.7746"/><path id="path8" fill="none" stroke="#000" stroke-linecap="round" stroke-linejoin="round" stroke-width="2" d="M 37.8184,55.8438 A 22.7078,22.7078 0 0 1 23.7208,34.8221 22.2316,22.2316 0 0 1 37.8392,14.1228"/><path id="path9" fill="none" stroke="#000" stroke-linecap="round" stroke-linejoin="round" stroke-width="2" d="M 41.5632,15.8254 A 22.2229,22.2229 0 0 0 30.3879,34.8221 21.8953,21.8953 0 0 0 41.66,53.9286"/><path id="path10" fill="none" stroke="#000" stroke-linecap="round" stroke-linejoin="round" stroke-width="2" d="M 44.5777,17.8248 A 22.926,22.926 0 0 0 37.055,34.8221 c 0,6.904 2.8854,13.414 8.0874,17.1489"/></g></svg>