<?xml version="1.0" encoding="UTF-8" standalone="no"?>
<svg
   id="emoji"
   viewBox="0 0 50.652 50.6535"
   version="1.1"
   sodipodi:docname="1f9f0.svg"
   width="50.652"
   height="50.6535"
   xmlns:inkscape="http://www.inkscape.org/namespaces/inkscape"
   xmlns:sodipodi="http://sodipodi.sourceforge.net/DTD/sodipodi-0.dtd"
   xmlns="http://www.w3.org/2000/svg"
   xmlns:svg="http://www.w3.org/2000/svg">
  <defs
     id="defs7" />
  <sodipodi:namedview
     id="namedview7"
     pagecolor="#ffffff"
     bordercolor="#000000"
     borderopacity="0.25"
     inkscape:showpageshadow="2"
     inkscape:pageopacity="0.0"
     inkscape:pagecheckerboard="0"
     inkscape:deskcolor="#d1d1d1" />
  <g
     id="color"
     transform="translate(-10.674,-10.6325)">
    <rect
       x="11.6742"
       y="11.6325"
       width="48.6516"
       height="24.3664"
       fill="#d22f27"
       id="rect1" />
    <rect
       x="11.6742"
       y="35.998901"
       width="48.6516"
       height="24.2852"
       fill="#ea5a47"
       id="rect2" />
    <polygon
       fill="#a57939"
       points="41.809,35.999 41.848,29.061 44.407,29.061 44.368,35.999 "
       id="polygon2" />
    <path
       fill="#9b9b9a"
       d="M 38.5888,22.0886 V 29.11 h 9.0071 v -4.0427 c 0,0 6.0283,0 8.0141,1.9858 a 10.6528,10.6528 0 0 0 -8.0141,-5.0354 39.6255,39.6255 0 0 0 -9.0071,0.0709 z"
       id="path2" />
    <path
       fill="#d0cfce"
       d="m 36.2832,22.7269 v 5.6737 0 a 2.2354,2.2354 0 0 1 -2.6241,0 v 0 -5.6737 0 a 1.8842,1.8842 0 0 1 2.6241,0 z"
       id="path3" />
    <path
       fill="#d0cfce"
       d="m 27.8655,23.9041 a 7.3568,7.3568 0 0 1 -0.0681,0.9049 4.9929,4.9929 0 0 1 -3.1527,3.98 l -0.5838,0.2044 v 7.0058 H 20.3342 V 28.9931 L 19.838,28.8277 a 5.05,5.05 0 0 1 -3.23,-3.98 V 24.809 a 4.6961,4.6961 0 0 1 1.2454,-4.184 6.12,6.12 0 0 1 1.4888,-1.0411 0.4248,0.4248 0 0 1 0.5838,0.3794 v 3.1429 l 0.8271,1.2455 h 2.9 l 0.8271,-1.2455 v -3.1429 a 0.4125,0.4125 0 0 1 0.5838,-0.3794 6.3726,6.3726 0 0 1 1.4887,1.0411 4.4486,4.4486 0 0 1 1.3128,3.2791 z"
       id="path4" />
    <rect
       x="32.4231"
       y="40.422901"
       width="7.1539001"
       height="3.6129"
       fill="#d0cfce"
       id="rect4" />
  </g>
  <g
     id="line"
     transform="translate(-10.674,-10.6325)">
    <rect
       x="11.6742"
       y="11.6325"
       width="48.6516"
       height="24.3664"
       fill="none"
       stroke="#000000"
       stroke-linecap="round"
       stroke-linejoin="round"
       stroke-width="2"
       id="rect5" />
    <g
       id="_">
      <path
         fill="none"
         stroke="#000000"
         stroke-linecap="round"
         stroke-linejoin="round"
         stroke-width="2.0013"
         d="M 20.3342,35.9989 V 28.74 l -0.4963,-0.1654 a 5.0391,5.0391 0 0 1 -3.23,-3.9311 V 24.595 a 4.5741,4.5741 0 0 1 1.2451,-4.135 5.4741,5.4741 0 0 1 1.4887,-1.0022 0.429,0.429 0 0 1 0.5838,0.3794 v 3.104 l 0.8271,1.2455 h 2.9 l 0.8271,-1.2455 v -3.104 a 0.416,0.416 0 0 1 0.5838,-0.3794 5.6789,5.6789 0 0 1 1.4884,1.0022 4.4289,4.4289 0 0 1 1.3136,3.25 7.0368,7.0368 0 0 1 -0.0682,0.8855 4.9093,4.9093 0 0 1 -3.1526,3.9407 l -0.5838,0.2044 v 7.2588"
         id="path5" />
    </g>
    <polyline
       fill="none"
       stroke="#000000"
       stroke-linecap="round"
       stroke-linejoin="round"
       stroke-width="2"
       points="44.368 35.999 60.326 35.999 60.326 60.286 11.674 60.286 11.674 35.999 20.334 35.999"
       id="polyline5" />
    <line
       x1="41.808998"
       x2="24.0609"
       y1="35.998901"
       y2="35.998901"
       fill="none"
       stroke="#000000"
       stroke-miterlimit="10"
       stroke-width="2"
       id="line5" />
    <rect
       x="32.4231"
       y="40.422901"
       width="7.1539001"
       height="3.6129"
       fill="none"
       stroke="#000000"
       stroke-miterlimit="10"
       stroke-width="2"
       id="rect6" />
    <g
       id="_2">
      <g
         id="g7">
        <polyline
           fill="none"
           stroke="#000000"
           stroke-linecap="round"
           stroke-linejoin="round"
           stroke-width="2.0013"
           points="44.368 35.999 44.407 29.061 41.848 29.061 41.809 35.999"
           id="polyline6" />
        <path
           fill="none"
           stroke="#000000"
           stroke-linecap="round"
           stroke-linejoin="round"
           stroke-width="2.0013"
           d="m 38.5888,22.04 v 7.0212 h 9.0071 v -4.0425 c 0,0 6.0283,0 8.0141,1.9858 A 10.6531,10.6531 0 0 0 47.5959,21.969 39.6283,39.6283 0 0 0 38.5888,22.04 Z"
           id="path6" />
        <path
           fill="none"
           stroke="#000000"
           stroke-linecap="round"
           stroke-linejoin="round"
           stroke-width="2.0013"
           d="m 36.2832,22.6783 v 5.6737 0 a 2.2357,2.2357 0 0 1 -2.6241,0 v 0 -5.6737 0 a 1.884,1.884 0 0 1 2.6241,0 z"
           id="path7" />
      </g>
    </g>
  </g>
</svg>
