<svg xmlns="http://www.w3.org/2000/svg" xmlns:svg="http://www.w3.org/2000/svg" id="emoji" width="56" height="44" version="1.1" viewBox="0 0 56 44"><g id="line-supplement" transform="translate(-8,-15)"><g id="g5"><path id="path1" d="m 40.701,37.6519 2.598,1.5 -1,1.7321 -2.598,-1.5 1,-1.7321 m -0.3651,-2.3662 a 1,1 0 0 0 -0.867,0.5 l -2,3.4641 a 1,1 0 0 0 0.366,1.366 l 4.33,2.5 a 0.9994,0.9994 0 0 0 1.366,-0.366 l 2,-3.4641 a 1,1 0 0 0 -0.366,-1.366 l -4.33,-2.5 a 0.9944,0.9944 0 0 0 -0.499,-0.1342 z"/><path id="path2" d="M 30.4974,29.2674 A 1.0015,1.0015 0 1 1 30,29.4019 0.9926,0.9926 0 0 1 30.4974,29.2674 m 0,-2 a 3,3 0 1 0 2.6009,1.5005 2.987,2.987 0 0 0 -2.6009,-1.5005 z"/><path id="path3" d="M 58.4972,42.2681 A 1.0008,1.0008 0 1 1 58,42.4026 0.9922,0.9922 0 0 1 58.4974,42.2681 m 0,-2 a 3,3 0 1 0 2.6009,1.5005 2.9869,2.9869 0 0 0 -2.6009,-1.5005 z"/><path id="path4" d="m 33.299,47.6519 1,1.7321 -2.598,1.5 -1,-1.7321 2.598,-1.5 m 0.3651,-2.3662 a 0.9946,0.9946 0 0 0 -0.499,0.1342 l -4.33,2.5 a 1,1 0 0 0 -0.366,1.366 l 2,3.4641 a 0.9994,0.9994 0 0 0 1.366,0.366 l 4.33,-2.5 a 1,1 0 0 0 0.366,-1.366 l -2,-3.4641 a 1,1 0 0 0 -0.867,-0.5 z"/><path id="path5" d="m 15,38.5 v 3 h -2 v -3 h 2 m 1,-2 h -4 a 1,1 0 0 0 -1,1 v 5 a 1,1 0 0 0 1,1 h 4 a 1,1 0 0 0 1,-1 v -5 a 1,1 0 0 0 -1,-1 z"/></g></g><g id="color" transform="translate(-8,-15)"><g id="g10"><rect id="rect5" width="54" height="34" x="9" y="22" fill="#a57939" rx="3"/><rect id="rect6" width="4" height="38" x="19" y="20" fill="#6a462f" rx="1"/><rect id="rect7" width="4" height="38" x="49" y="20" fill="#6a462f" rx="1"/><rect id="rect8" width="7" height="6" x="38" y="36.268" fill="#e67a94" rx="1" transform="matrix(0.866,0.5,-0.5,0.866,25.194,-15.4891)"/><circle id="circle8" cx="30.5" cy="30.268" r="3" fill="#fcea2b"/><circle id="circle9" cx="58.5" cy="43.269" r="3" fill="#61b2e4"/><rect id="rect9" width="7" height="6" x="29" y="46.268" fill="#f4aa41" rx="1" transform="rotate(-30,32.500087,49.267972)"/><rect id="rect10" width="7" height="6" x="10.5" y="37" fill="#b1cc33" rx="1" transform="rotate(90.0001,14.000023,39.999953)"/><path id="path10" fill="#a57939" d="m 33.5,22 v -2 a 1,1 0 0 1 1,-1 h 3 a 1,1 0 0 1 1,1 v 2 h 3 V 18.2 A 2.2,2.2 0 0 0 39.3,16 h -6.6 a 2.2,2.2 0 0 0 -2.2,2.2 V 22 Z"/></g></g><g id="line" transform="translate(-8,-15)"><g id="g18"><path id="path11" fill="none" stroke="#000" stroke-linejoin="round" stroke-width="2" d="m 33.5,22 v -2 a 1,1 0 0 1 1,-1 h 3 a 1,1 0 0 1 1,1 v 2 h 3 V 18.2 A 2.2,2.2 0 0 0 39.3,16 h -6.6 a 2.2,2.2 0 0 0 -2.2,2.2 V 22 Z"/><path id="path12" fill="none" stroke="#000" stroke-miterlimit="10" stroke-width="2" d="m 53,56 h 7 a 3,3 0 0 0 3,-3 V 25 a 3,3 0 0 0 -3,-3 h -7"/><path id="path13" fill="none" stroke="#000" stroke-miterlimit="10" stroke-width="2" d="m 19,22 h -7 a 3,3 0 0 0 -3,3 v 28 a 3,3 0 0 0 3,3 h 7"/><polyline id="polyline13" fill="none" stroke="#000" stroke-linecap="round" stroke-linejoin="round" stroke-width="2" points="40.067 40.75 38.335 39.75 40.335 36.286 43.366 38.036"/><path id="path14" fill="none" stroke="#000" stroke-linecap="round" stroke-miterlimit="10" stroke-width="2" d="m 31.5,32 a 2,2 0 1 1 -2,-3.4635"/><path id="path15" fill="none" stroke="#000" stroke-linecap="round" stroke-miterlimit="10" stroke-width="2" d="m 57.5,41.5365 a 2,2 0 1 1 2,3.4641"/><polyline id="polyline15" fill="none" stroke="#000" stroke-linecap="round" stroke-linejoin="round" stroke-width="2" points="31.067 47.786 29.335 48.786 31.335 52.25 34.366 50.5"/><polyline id="polyline16" fill="none" stroke="#000" stroke-linecap="round" stroke-linejoin="round" stroke-width="2" points="12 39.5 12 37.5 16 37.5 16 41"/><rect id="rect16" width="4" height="38" x="19" y="20" fill="none" stroke="#000" stroke-miterlimit="10" stroke-width="2" rx="1"/><rect id="rect17" width="4" height="38" x="49" y="20" fill="none" stroke="#000" stroke-miterlimit="10" stroke-width="2" rx="1"/><line id="line17" x1="23" x2="49" y1="22" y2="22" fill="none" stroke="#000" stroke-miterlimit="10" stroke-width="2"/><line id="line18" x1="49" x2="23" y1="56" y2="56" fill="none" stroke="#000" stroke-miterlimit="10" stroke-width="2"/></g></g></svg>