<svg xmlns="http://www.w3.org/2000/svg" xmlns:svg="http://www.w3.org/2000/svg" id="emoji" width="48.623" height="34.798" version="1.1" viewBox="0 0 48.623 34.798"><g id="color" transform="translate(-9.6159997,-18.355851)"><rect id="rect1" width="41.633" height="26.487" x="15.605" y="25.672" fill="#ffa7c0" rx="10.965" ry="10.965"/><path id="path1" fill="#61b2e4" d="m 18.9426,34.3527 a 4.1622,4.1622 0 0 1 -4.1633,4.1634 3.9106,3.9106 0 0 1 -1.5613,-0.3123 4.1509,4.1509 0 0 1 0,-7.7022 3.9088,3.9088 0 0 1 1.5613,-0.3122 4.1621,4.1621 0 0 1 4.1633,4.1633 z"/><ellipse id="ellipse1" cx="14.259" cy="34.353" fill="#92d3f5" rx="2.602" ry="3.851"/><ellipse id="ellipse2" cx="19.675" cy="23.708" fill="#92d3f5" rx="3.802" ry="4.684" transform="rotate(-25.3628,19.675417,23.708363)"/><path id="path2" fill="#61b2e4" d="m 31.6443,23.2787 a 5.2061,5.2061 0 0 1 -1.8034,7.1354 5.5518,5.5518 0 0 1 -1.4581,0.6032 5.2188,5.2188 0 0 1 -5.0975,-8.5455 5.5512,5.5512 0 0 1 1.2235,-0.9965 5.2062,5.2062 0 0 1 7.1355,1.8034 z"/><ellipse id="ellipse3" cx="25.853" cy="26.851" fill="#92d3f5" rx="3.691" ry="5.154" transform="rotate(-50.3837,25.852693,26.851284)"/></g><g id="line" transform="translate(-9.6159997,-18.355851)"><path id="path3" fill="none" stroke="#000" stroke-miterlimit="10" stroke-width="2" d="m 21.2364,27.2573 a 11.3923,11.3923 0 0 0 -3.9031,3.8094"/><path id="path4" fill="none" stroke="#000" stroke-miterlimit="10" stroke-width="2" d="m 31.499,25.6752 h 14.3219 a 11.4406,11.4406 0 0 1 11.418,11.4075 v 3.6638 A 11.4406,11.4406 0 0 1 45.8209,52.154 H 27.0234 A 11.4406,11.4406 0 0 1 15.6055,40.7465 v -2.3107"/><line id="line4" x1="24.948" x2="47.896" y1="35.896" y2="35.896" fill="none" stroke="#000" stroke-linecap="round" stroke-linejoin="round" stroke-width="2"/><line id="line5" x1="24.948" x2="47.896" y1="41.935" y2="41.935" fill="none" stroke="#000" stroke-linecap="round" stroke-linejoin="round" stroke-width="2"/><circle id="circle5" cx="14.779" cy="34.353" r="4.163" fill="none" stroke="#000" stroke-miterlimit="10" stroke-width="2"/><path id="path5" fill="none" stroke="#000" stroke-linecap="round" stroke-linejoin="round" stroke-width="2" d="m 23.6752,21.87 a 5.1348,5.1348 0 0 0 -0.4909,0.3643 4.1077,4.1077 0 0 0 -0.1777,-0.4986 4.1633,4.1633 0 1 0 -1.9787,5.5454 c 0.0665,-0.0315 0.1208,-0.0771 0.1848,-0.1116 A 5.1985,5.1985 0 1 0 23.6752,21.87 Z"/></g></svg>