<?xml version="1.0" encoding="UTF-8" standalone="no"?>
<svg
   id="emoji"
   viewBox="0 0 26.0716 46.164299"
   version="1.1"
   sodipodi:docname="1f9f4.svg"
   width="26.0716"
   height="46.164299"
   xmlns:inkscape="http://www.inkscape.org/namespaces/inkscape"
   xmlns:sodipodi="http://sodipodi.sourceforge.net/DTD/sodipodi-0.dtd"
   xmlns="http://www.w3.org/2000/svg"
   xmlns:svg="http://www.w3.org/2000/svg">
  <defs
     id="defs7" />
  <sodipodi:namedview
     id="namedview7"
     pagecolor="#ffffff"
     bordercolor="#000000"
     borderopacity="0.25"
     inkscape:showpageshadow="2"
     inkscape:pageopacity="0.0"
     inkscape:pagecheckerboard="0"
     inkscape:deskcolor="#d1d1d1" />
  <g
     id="color"
     transform="translate(-22.96,-13.2218)">
    <path
       fill="#61b2e4"
       d="m 48.0312,34.43 v 18.7113 a 5.2419,5.2419 0 0 1 -5.2493,5.24 H 29.905 a 5.24,5.24 0 0 1 -5.24,-5.24 V 34.43 a 9.5463,9.5463 0 0 1 8.7611,-9.5137 c 0.2509,-0.0186 0.5111,-0.0279 0.7712,-0.0279 h 4.3016 a 9.542,9.542 0 0 1 9.5323,9.5416 z"
       id="path1" />
    <path
       fill="#92d3f5"
       d="m 42.1781,34.43 v 18.7113 a 5.24,5.24 0 0 1 -5.24,5.24 H 29.905 a 5.24,5.24 0 0 1 -5.24,-5.24 V 34.43 a 9.5463,9.5463 0 0 1 8.7611,-9.5137 9.5383,9.5383 0 0 1 8.752,9.5137 z"
       id="path2" />
    <path
       fill="#ea5a47"
       d="m 36.0746,17.7765 v 0 a 3.7,3.7 0 0 1 3.7,3.7 v 3.1971 h -7.4 v -3.1971 a 3.7,3.7 0 0 1 3.7,-3.7 z"
       id="path3" />
    <ellipse
       cx="36.348099"
       cy="41.634701"
       rx="6.8339"
       ry="10.5612"
       fill="#ea5a47"
       id="ellipse3" />
  </g>
  <g
     id="line"
     transform="translate(-22.96,-13.2218)">
    <path
       d="m 38.97,14.268 h -5.5828 c -0.1475,-0.1475 2.7839,4.4322 2.7916,4.42 0.0076,0.012 2.9391,-4.5675 2.7912,-4.42 z"
       id="path4" />
    <path
       fill="none"
       stroke="#000000"
       stroke-linecap="round"
       stroke-linejoin="round"
       stroke-width="2"
       d="m 23.96,17.1731 c 0.0775,-0.0278 5.1429,-2.9513 5.1429,-2.9513 H 42.18"
       id="path5" />
    <path
       fill="none"
       stroke="#000000"
       stroke-linecap="round"
       stroke-linejoin="round"
       stroke-width="2"
       d="m 34.9279,24.8908 h 2.8388 A 10.2649,10.2649 0 0 1 48.0316,35.1557 V 52.74 a 5.6461,5.6461 0 0 1 -5.6461,5.6461 H 30.309 A 5.6461,5.6461 0 0 1 24.6629,52.74 V 35.1557 a 10.2649,10.2649 0 0 1 10.265,-10.2649 z"
       id="path6" />
    <path
       fill="none"
       stroke="#000000"
       stroke-linecap="round"
       stroke-linejoin="round"
       stroke-width="2"
       d="m 36.0746,17.7765 v 0 a 3.7,3.7 0 0 1 3.7,3.7 v 3.1971 h -7.4 v -3.1971 a 3.7,3.7 0 0 1 3.7,-3.7 z"
       id="path7" />
    <ellipse
       cx="36.348099"
       cy="41.634701"
       rx="6.8339"
       ry="10.5612"
       fill="none"
       stroke="#000000"
       stroke-miterlimit="10"
       stroke-width="2"
       id="ellipse7" />
  </g>
</svg>
