<?xml version="1.0" encoding="UTF-8" standalone="no"?>
<svg
   id="emoji"
   viewBox="0 0 26.302 46.460957"
   version="1.1"
   sodipodi:docname="1f9fe.svg"
   width="26.302"
   height="46.460957"
   xmlns:inkscape="http://www.inkscape.org/namespaces/inkscape"
   xmlns:sodipodi="http://sodipodi.sourceforge.net/DTD/sodipodi-0.dtd"
   xmlns="http://www.w3.org/2000/svg"
   xmlns:svg="http://www.w3.org/2000/svg">
  <defs
     id="defs10" />
  <sodipodi:namedview
     id="namedview10"
     pagecolor="#ffffff"
     bordercolor="#000000"
     borderopacity="0.25"
     inkscape:showpageshadow="2"
     inkscape:pageopacity="0.0"
     inkscape:pagecheckerboard="0"
     inkscape:deskcolor="#d1d1d1" />
  <g
     id="color"
     transform="translate(-22.729,-12.725021)">
    <polygon
       fill="#d0cfce"
       points="48.031,20.375 48.031,15.646 48.031,14.658 23.729,14.658 23.729,15.646 23.729,20.375 23.729,53.067 23.729,57.253 48.031,57.253 48.031,53.067 "
       id="polygon1" />
  </g>
  <g
     id="line"
     transform="translate(-22.729,-12.725021)">
    <polyline
       fill="none"
       stroke="#000000"
       stroke-linecap="round"
       stroke-linejoin="round"
       stroke-width="2"
       points="23.729 15.428 23.729 20.076 23.729 52.206 23.729 56.32"
       id="polyline1" />
    <polyline
       fill="none"
       stroke="#000000"
       stroke-linecap="round"
       stroke-linejoin="round"
       stroke-width="2"
       points="48.031 56.32 48.031 52.206 48.031 20.076 48.031 15.428"
       id="polyline2" />
    <polyline
       fill="none"
       stroke="#000000"
       stroke-linecap="round"
       stroke-linejoin="round"
       stroke-width="2"
       points="23.729 15.428 26.966 13.725 28.993 15.561 32.667 13.962 35.75 15.591 39.297 14.05 42.253 15.413 45.252 13.962 47.976 15.36"
       id="polyline3" />
    <polyline
       fill="none"
       stroke="#000000"
       stroke-linecap="round"
       stroke-linejoin="round"
       stroke-width="2"
       points="48.031 56.32 44.507 58.186 42.479 56.349 38.805 57.949 35.722 56.32 32.175 57.86 29.219 56.498 26.22 57.949 23.776 56.434"
       id="polyline4" />
    <line
       x1="27.2749"
       x2="35.601898"
       y1="28.212601"
       y2="28.212601"
       fill="none"
       stroke="#000000"
       stroke-linecap="round"
       stroke-linejoin="round"
       stroke-width="2"
       id="line4" />
    <line
       x1="40.728699"
       x2="44.316399"
       y1="28.215401"
       y2="28.215401"
       fill="none"
       stroke="#000000"
       stroke-linecap="round"
       stroke-linejoin="round"
       stroke-width="2"
       id="line5" />
    <line
       x1="27.2749"
       x2="34.9818"
       y1="33.747101"
       y2="33.747101"
       fill="none"
       stroke="#000000"
       stroke-linecap="round"
       stroke-linejoin="round"
       stroke-width="2"
       id="line6" />
    <line
       x1="40.728699"
       x2="44.316399"
       y1="33.7519"
       y2="33.7519"
       fill="none"
       stroke="#000000"
       stroke-linecap="round"
       stroke-linejoin="round"
       stroke-width="2"
       id="line7" />
    <line
       x1="27.2749"
       x2="34.007301"
       y1="39.261501"
       y2="39.261501"
       fill="none"
       stroke="#000000"
       stroke-linecap="round"
       stroke-linejoin="round"
       stroke-width="2"
       id="line8" />
    <line
       x1="40.728699"
       x2="44.316399"
       y1="39.288502"
       y2="39.288502"
       fill="none"
       stroke="#000000"
       stroke-linecap="round"
       stroke-linejoin="round"
       stroke-width="2"
       id="line9" />
    <line
       x1="40.728699"
       x2="44.316399"
       y1="45.821602"
       y2="45.821602"
       fill="none"
       stroke="#000000"
       stroke-linecap="round"
       stroke-linejoin="round"
       stroke-width="2"
       id="line10" />
  </g>
</svg>
