<svg xmlns="http://www.w3.org/2000/svg" xmlns:svg="http://www.w3.org/2000/svg" id="emoji" width="51.9" height="58.101" version="1.1" viewBox="0 0 51.9 58.101"><g id="color" transform="translate(-10.049999,-6.9519997)"><path id="path1" fill="#fff" d="m 11.41,56.6 c 8.303,12.49 32.7,6.093 39.05,3.446 l 0.7008,-44.25 c -0.9537,-3.003 -22.19,-15.83 -39.75,-0.3751 z"/><path id="path2" fill="#d0cfce" d="M 47.37,61.41 C 51.884,58.357 60.6,51.743 60.6,51.743 v -38.44 c -2.321,2.072 -9.972,5.775 -13.23,6.769"/><ellipse id="ellipse2" cx="30.85" cy="15.3" fill="#fff" rx="4.666" ry="2.13"/></g><g id="line" transform="translate(-10.049999,-6.9519997)"><ellipse id="ellipse3" cx="31.23" cy="15.32" fill="none" stroke="#000" stroke-miterlimit="10" stroke-width="2" rx="20.18" ry="7.368"/><path id="path3" fill="none" stroke="#000" stroke-linecap="round" stroke-linejoin="round" stroke-miterlimit="10" stroke-width="2" d="m 11.05,14.93 10e-7,41.76 c 0,4.074 9.037,7.363 20.18,7.363 6.02,0 10.53,-0.6946 14.26,-1.873 8.515,-2.892 15.46,-10.42 15.46,-10.42 V 12.78 c -3.73,3.326 -13.38,6.865 -13.38,6.865"/><line id="line3" x1="31.23" x2="31.23" y1="22.69" y2="26.01" fill="none" stroke="#000" stroke-linecap="round" stroke-linejoin="round" stroke-width="2"/><line id="line4" x1="31.23" x2="31.23" y1="32.96" y2="57.25" fill="none" stroke="#000" stroke-dasharray="5.213 5.213" stroke-linecap="round" stroke-linejoin="round" stroke-width="2"/><line id="line5" x1="31.23" x2="31.23" y1="60.72" y2="64.05" fill="none" stroke="#000" stroke-linecap="round" stroke-linejoin="round" stroke-width="2"/><ellipse id="ellipse5" cx="30.79" cy="15.31" fill="none" stroke="#000" stroke-linecap="round" stroke-linejoin="round" stroke-width="2" rx="4.739" ry="2.16"/></g></svg>