<?xml version="1.0" encoding="UTF-8" standalone="no"?>
<svg
   id="emoji"
   viewBox="0 0 51.900002 58.101002"
   version="1.1"
   sodipodi:docname="1f9fb.svg"
   width="51.900002"
   height="58.101002"
   xmlns:inkscape="http://www.inkscape.org/namespaces/inkscape"
   xmlns:sodipodi="http://sodipodi.sourceforge.net/DTD/sodipodi-0.dtd"
   xmlns="http://www.w3.org/2000/svg"
   xmlns:svg="http://www.w3.org/2000/svg">
  <defs
     id="defs5" />
  <sodipodi:namedview
     id="namedview5"
     pagecolor="#ffffff"
     bordercolor="#000000"
     borderopacity="0.25"
     inkscape:showpageshadow="2"
     inkscape:pageopacity="0.0"
     inkscape:pagecheckerboard="0"
     inkscape:deskcolor="#d1d1d1" />
  <g
     id="color"
     transform="translate(-10.049999,-6.9519997)">
    <path
       fill="#ffffff"
       d="m 11.41,56.6 c 8.303,12.49 32.7,6.093 39.05,3.446 l 0.7008,-44.25 c -0.9537,-3.003 -22.19,-15.83 -39.75,-0.3751 z"
       id="path1" />
    <path
       fill="#d0cfce"
       d="M 47.37,61.41 C 51.884,58.357 60.6,51.743 60.6,51.743 v -38.44 c -2.321,2.072 -9.972,5.775 -13.23,6.769"
       id="path2" />
    <ellipse
       cx="30.85"
       cy="15.3"
       rx="4.6659999"
       ry="2.1300001"
       fill="#ffffff"
       id="ellipse2" />
  </g>
  <g
     id="line"
     transform="translate(-10.049999,-6.9519997)">
    <ellipse
       cx="31.23"
       cy="15.32"
       rx="20.18"
       ry="7.368"
       fill="none"
       stroke="#000000"
       stroke-miterlimit="10"
       stroke-width="2"
       id="ellipse3" />
    <path
       fill="none"
       stroke="#000000"
       stroke-linecap="round"
       stroke-linejoin="round"
       stroke-miterlimit="10"
       stroke-width="2"
       d="m 11.05,14.93 10e-7,41.76 c 0,4.074 9.037,7.363 20.18,7.363 6.02,0 10.53,-0.6946 14.26,-1.873 8.515,-2.892 15.46,-10.42 15.46,-10.42 V 12.78 c -3.73,3.326 -13.38,6.865 -13.38,6.865"
       id="path3" />
    <line
       x1="31.23"
       x2="31.23"
       y1="22.690001"
       y2="26.01"
       fill="none"
       stroke="#000000"
       stroke-linecap="round"
       stroke-linejoin="round"
       stroke-width="2"
       id="line3" />
    <line
       x1="31.23"
       x2="31.23"
       y1="32.959999"
       y2="57.25"
       fill="none"
       stroke="#000000"
       stroke-dasharray="5.2132, 5.2132"
       stroke-linecap="round"
       stroke-linejoin="round"
       stroke-width="2"
       id="line4" />
    <line
       x1="31.23"
       x2="31.23"
       y1="60.720001"
       y2="64.050003"
       fill="none"
       stroke="#000000"
       stroke-linecap="round"
       stroke-linejoin="round"
       stroke-width="2"
       id="line5" />
    <ellipse
       cx="30.790001"
       cy="15.31"
       rx="4.7389998"
       ry="2.1600001"
       fill="none"
       stroke="#000000"
       stroke-linecap="round"
       stroke-linejoin="round"
       stroke-width="2"
       id="ellipse5" />
  </g>
</svg>
