<svg xmlns="http://www.w3.org/2000/svg" xmlns:svg="http://www.w3.org/2000/svg" id="emoji" width="22.584" height="51.891" version="1.1" viewBox="0 0 22.584 51.891"><g id="color" transform="translate(-23.505013,-9.9574492)"><path id="path1" fill="#fcea2b" d="m 37.2373,61.8457 a 8.756,8.756 0 0 1 -5.542,-1.7978 c -3.4931,-2.73 -3.9316,-7.544 -3.9482,-7.7471 L 24.2305,30.4 c -0.9248,-7.2568 0.1211,-12.7666 3.1054,-16.4063 a 10.9052,10.9052 0 0 1 7.0889,-4.0214 10.1811,10.1811 0 0 1 7.5059,2.7441 c 2.1816,2.2275 3.0615,5.5879 2.6142,9.9883 -0.7744,7.626 1.0547,24.3271 1.169,25.3554 0.1435,0.6836 1.2959,6.6407 -1.3223,10.5059 a 7.2109,7.2109 0 0 1 -5.0283,3.1 13.2293,13.2293 0 0 1 -2.126,0.1797 z M 34.502,10.97 Z"/></g><g id="line" transform="translate(-23.505013,-9.9574492)"><path id="path2" fill="none" stroke="#000" stroke-linecap="round" stroke-linejoin="round" stroke-width="2" d="M 43.55,22.6038 C 44.816,10.1385 34.5016,10.97 34.5016,10.97 c 0,0 -8.1434,0.5758 -9.4276,11.5684"/><path id="path3" fill="none" stroke="#000" stroke-linecap="round" stroke-linejoin="round" stroke-width="2" d="m 26.3811,37.4927 2.3622,14.7248 c 0,0 0.8348,10.0291 10.4589,8.4611 8,-1.3034 5.5232,-12.4566 5.5232,-12.4566 0,0 -0.6125,-5.412 -1.0188,-11.602"/><path id="path4" fill="none" stroke="#000" stroke-linecap="round" stroke-linejoin="round" stroke-width="2" d="m 28.1894,35.1471 c 0,0 -11.22,-3.6806 5.464,-15.1572 l 0.3479,-2.83"/><path id="path5" fill="none" stroke="#000" stroke-linecap="round" stroke-linejoin="round" stroke-width="2" d="m 40.6653,34.1658 c 0,0 10.6415,-4.6618 -7.0119,-14.1758"/></g></svg>