<svg xmlns="http://www.w3.org/2000/svg" xmlns:svg="http://www.w3.org/2000/svg" id="emoji" width="33" height="66.499" version="1.1" viewBox="0 0 33 66.499"><g id="color" transform="translate(-19.114132,-3.5005432)"><path id="path1" fill="#b399c8" d="m 23.1141,22.5 3.5,16.5 -6.5,14.5 c 7.4469,3.4679 11.7477,8.9461 13.175,15.5 h 4.65 c 0.5613,-6.3319 5.6639,-11.2823 13.175,-15.5 l -6.5,-14.5 4.05,-16.5 c -1.55,6 -22.55,7 -25.55,0 z"/><path id="path2" fill="#8967aa" d="m 44.8859,4.5 c 0,0 6.6123,18.22 2,21 -3.9956,2.4081 -16.822,2.8488 -22,0 -5.8774,-3.2336 2,-21 2,-21 -0.2888,0.29 -2.0408,4.0444 2,12 6.1492,6.2577 8.1287,6.8691 13,0 5.2049,-9.105 3.1913,-11.8579 3,-12 z"/></g><g id="line" transform="translate(-19.114132,-3.5005432)"><path id="path3" fill="none" stroke="#000" stroke-linecap="round" stroke-linejoin="round" stroke-width="2" d="m 23.1141,22.5 3.5,16.5 -6.5,14.5 c 7.4469,3.4679 11.7477,8.9461 13.175,15.5 h 4.65 c 0.5613,-6.3319 5.6639,-11.2823 13.175,-15.5 l -6.5,-14.5 4.05,-16.5"/><path id="path4" fill="none" stroke="#000" stroke-linecap="round" stroke-linejoin="round" stroke-width="2" d="m 45.1218,4.5 c 0,0 6.6123,18.22 2,21 -3.9956,2.4081 -16.822,2.8488 -22,0 -5.8774,-3.2336 2,-21 2,-21 0,0 -3.4311,4.2216 2,12 4.1942,6.0068 9.225,6.4472 13,0 4.9764,-8.4991 3,-12 3,-12 z"/></g></svg>