<svg xmlns="http://www.w3.org/2000/svg" xmlns:svg="http://www.w3.org/2000/svg" id="emoji" width="19.547" height="61.65" version="1.1" viewBox="0 0 19.547 61.65"><g id="color" transform="translate(-27.447598,-5.1760712)"><path id="path1" fill="#61b2e4" d="m 37.8086,65.8265 c 0,-2.3872 -1.0786,-4.3224 -2.4092,-4.3224 -1.3306,0 -2.4092,1.9352 -2.4092,4.3224 z"/><path id="path2" fill="#61b2e4" d="m 46.31,26.29 c -0.52,0.18 -1.09,-0.1 -1.27,-0.63 L 44.77,24.85 37.89,27.23 36,27.89 35.35,26 29.7801,9.89 c -0.1801,-0.52 0.1,-1.09 0.62,-1.27 0.52,-0.18 1.09,0.1 1.27,0.62 l 5.57,16.1 7.83,-2.71 c 0.25,-0.09 0.53,-0.07 0.77,0.05 0.24,0.12 0.42,0.32 0.5099,0.58 l 0.59,1.77 c 0.18,0.52 -0.1,1.09 -0.63,1.2599 z"/><path id="path3" fill="#61b2e4" d="m 29.3642,6.8332 h 7.8265 c 2.089,0 3.7849,1.696 3.7849,3.7849 v 0 c 0,2.089 -1.696,3.7849 -3.7849,3.7849 h -7.8265 z" transform="rotate(-19.0221,35.170035,10.618239)"/></g><g id="line" transform="translate(-27.447598,-5.1760712)"><line id="line3" x1="35.399" x2="35.399" y1="29.098" y2="61.504" fill="none" stroke="#000" stroke-miterlimit="10" stroke-width="2"/><path id="path4" fill="none" stroke="#000" stroke-linecap="round" stroke-linejoin="round" stroke-width="2" d="m 37.8086,65.8265 c 0,-2.3872 -1.0786,-4.3224 -2.4092,-4.3224 -1.3306,0 -2.4092,1.9352 -2.4092,4.3224 z"/><path id="path5" fill="none" stroke="#000" stroke-linecap="round" stroke-linejoin="round" stroke-width="2" d="m 29.3642,6.8332 h 7.8265 c 2.089,0 3.7849,1.696 3.7849,3.7849 v 0 c 0,2.089 -1.696,3.7849 -3.7849,3.7849 h -7.8265 z" transform="rotate(-19.0221,35.170035,10.618239)"/><polyline id="polyline5" fill="none" stroke="#000" stroke-linecap="round" stroke-linejoin="round" stroke-width="2" points="45.993 25.44 35.41 29.098 28.448 8.954"/></g></svg>