<svg xmlns="http://www.w3.org/2000/svg" xmlns:svg="http://www.w3.org/2000/svg" id="emoji" width="60.858" height="21.14" version="1.1" viewBox="0 0 60.858 21.14"><g id="color" transform="translate(-6,-35.034131)"><path id="path1" fill="#ffa7c0" d="M 10,54.9042 C 7.7515,53.0514 7,46.6486 7,43.5076 c 0,-2.79 1.1307,-4.3151 2.9588,-6.1432 0,0 2.6586,-2.1324 4.0412,-1 4.5288,3.7092 15.6575,15.2147 27.0042,3 0,0 15.5773,2.3421 20.32,3.5458 C 67,45 65.7407,45.03 65.7407,47.7325 c 0,8.6515 -6.0838,7.5391 -12.81,7.1718 -3.7068,-0.2025 -38.8008,0.2254 -42.93,0"/></g><g id="line" transform="translate(-6,-35.034131)"><path id="path2" fill="none" stroke="#000" stroke-linecap="round" stroke-linejoin="round" stroke-width="2" d="M 10,54.9042 C 7.7515,53.0514 7,46.6486 7,43.5076 c 0,-2.79 1.1307,-4.3151 2.9588,-6.1432 0,0 2.6586,-2.1324 4.0412,-1 4.5288,3.7092 15.6575,14.2147 27.0042,2 0,0 15.9958,2.6356 20.32,4.5458 C 67,45 65.7407,45.03 65.7407,47.7325 c 0,8.6515 -6.0838,7.5391 -12.81,7.1718 -3.7068,-0.2025 -38.8008,0.2254 -42.93,0"/><line id="line2" x1="46.526" x2="41.455" y1="39.802" y2="45.74" fill="none" stroke="#000" stroke-linecap="round" stroke-linejoin="round" stroke-width="2"/><line id="line3" x1="42.37" x2="45.903" y1="39.604" y2="43.74" fill="none" stroke="#000" stroke-linecap="round" stroke-linejoin="round" stroke-width="2"/></g></svg>