<?xml version="1.0" encoding="UTF-8" standalone="no"?>
<svg
   id="emoji"
   viewBox="0 0 50.321289 43.107994"
   version="1.1"
   sodipodi:docname="1fa83.svg"
   width="50.321289"
   height="43.107994"
   xmlns:inkscape="http://www.inkscape.org/namespaces/inkscape"
   xmlns:sodipodi="http://sodipodi.sourceforge.net/DTD/sodipodi-0.dtd"
   xmlns="http://www.w3.org/2000/svg"
   xmlns:svg="http://www.w3.org/2000/svg">
  <defs
     id="defs8" />
  <sodipodi:namedview
     id="namedview8"
     pagecolor="#ffffff"
     bordercolor="#000000"
     borderopacity="0.25"
     inkscape:showpageshadow="2"
     inkscape:pageopacity="0.0"
     inkscape:pagecheckerboard="0"
     inkscape:deskcolor="#d1d1d1" />
  <g
     id="color"
     transform="translate(-9.234073,-13.464098)">
    <path
       fill="#a57939"
       d="m 56.2572,56.5079 a 3.6438,3.6438 0 0 1 -1.8248,-0.12 4.12,4.12 0 0 1 -2.537,-2.5472 C 51.7209,53.3719 51.0501,51.4456 50.1588,48.8862 48.1064,42.9898 44.2847,32.0138 43.6974,30.8206 A 7.6229,7.6229 0 0 0 36.3243,26.4389 C 31.0866,26.4161 15.9708,26.5152 13.4782,26.543 A 4.2774,4.2774 0 0 1 10.0814,25.0909 3.8181,3.8181 0 0 1 9.3336,21.8264 4.1547,4.1547 0 0 1 9.6915,20.8629 C 9.7377,20.7661 9.784,20.6694 9.8251,20.5716 L 9.9206,20.394 a 4.2413,4.2413 0 0 1 2.9806,-1.72 c 1.904,-0.3271 4.4137,-0.7626 7.1784,-1.2426 12.1,-2.1007 22.2222,-3.8469 23.5236,-3.9344 a 10.0771,10.0771 0 0 1 10.7184,8.48 c 1.42,8.1167 4.853,28.01 5.1405,29.7239 a 3.9712,3.9712 0 0 1 -1.7366,4.2 4.0343,4.0343 0 0 1 -1.4683,0.607 z"
       id="path1" />
    <polygon
       fill="#fcea2b"
       points="19.499,19.042 22.382,25.205 18.108,25.507 15.424,19.771 "
       id="polygon1" />
    <polygon
       fill="#d22f27"
       points="25.512,18.159 29.365,26.447 24.964,26.476 21.432,18.877 "
       id="polygon2" />
    <polygon
       fill="#fcea2b"
       points="57.062,47.767 50.367,46.555 51.167,50.764 57.399,51.892 "
       id="polygon3" />
    <polygon
       fill="#d22f27"
       points="56.379,41.728 47.068,40.043 48.589,44.382 56.728,45.855 "
       id="polygon4" />
  </g>
  <g
     id="line"
     transform="translate(-9.234073,-13.464098)">
    <path
       fill="none"
       stroke="#000000"
       stroke-linecap="round"
       stroke-miterlimit="10"
       stroke-width="2"
       d="m 48.4022,40.8228 c -1.7382,-4.9513 -3.41,-9.6347 -3.8074,-10.4437 a 8.6038,8.6038 0 0 0 -8.2664,-4.94 c -1.7794,-0.0078 -4.6533,-0.0018 -7.78,0.0107"
       id="path4" />
    <path
       fill="none"
       stroke="#000000"
       stroke-miterlimit="10"
       stroke-width="2"
       d="m 25.6211,25.4632 c -5.4429,0.0268 -10.8706,0.0656 -12.1543,0.08 -2.1544,0.0241 -3.5618,-1.5206 -3.1534,-3.5158 a 6.14,6.14 0 0 1 0.4354,-1.0723 3.2263,3.2263 0 0 1 2.322,-1.2948 c 8.4613,-1.4536 28.8507,-5.0473 30.5994,-5.1652 a 9.0219,9.0219 0 0 1 9.6663,7.654 c 1.4457,8.2642 4.8648,28.0768 5.1394,29.7168 a 2.986,2.986 0 0 1 -1.301,3.2 2.85,2.85 0 0 1 -4.3429,-1.5744 c -0.2771,-0.7445 -1.8107,-5.18 -3.4878,-9.9791"
       id="path5" />
    <line
       x1="19.202999"
       x2="17.592199"
       y1="25.4998"
       y2="22.0557"
       fill="none"
       stroke="#000000"
       stroke-linecap="round"
       stroke-linejoin="round"
       stroke-width="2"
       id="line5" />
    <line
       x1="25.621099"
       x2="24.0103"
       y1="25.4744"
       y2="22.0303"
       fill="none"
       stroke="#000000"
       stroke-linecap="round"
       stroke-linejoin="round"
       stroke-width="2"
       id="line6" />
    <line
       x1="51.5331"
       x2="55.276402"
       y1="49.830002"
       y2="50.4963"
       fill="none"
       stroke="#000000"
       stroke-linecap="round"
       stroke-linejoin="round"
       stroke-width="2"
       id="line7" />
    <line
       x1="49.347198"
       x2="53.090599"
       y1="43.5116"
       y2="44.177898"
       fill="none"
       stroke="#000000"
       stroke-linecap="round"
       stroke-linejoin="round"
       stroke-width="2"
       id="line8" />
  </g>
</svg>
