<svg xmlns="http://www.w3.org/2000/svg" xmlns:svg="http://www.w3.org/2000/svg" id="emoji" width="51.682" height="58.53" version="1.1" viewBox="0 0 51.682 58.53"><g id="color" transform="translate(-10.3006,-7.4092601)"><polygon id="polygon1" fill="#fff" points="39.858 29.988 13.501 33.294 32.8 59.204 38.607 58.936 59.692 32.937"/><path id="path1" fill="#b1cc33" d="M 60.709,28.9912 C 58.7211,17.0091 48.2866,8.2706 36.1416,8.417 c -13.7193,0 -24.841,10.88 -24.841,24.3005 0,0 3.0573,-1.8827 5.1108,-0.2893 0.2137,0.1642 0.5015,0.1942 0.7445,0.0778 3.2218,-1.543 6.9739,-1.5198 10.1763,0.0629 0.167,0.0925 0.3642,0.1141 0.5473,0.06 1.5773,-0.4857 9.6051,-2.708 16.679,-0.0346 0.2018,0.0755 0.4263,0.0605 0.6163,-0.0411 3.196,-1.5665 6.9329,-1.5849 10.1442,-0.05 0.2478,0.1179 0.5409,0.0858 0.7574,-0.0829 2.0348,-1.5919 4.906,0.1853 4.906,0.1853"/><path id="path2" fill="#5c9e31" d="M 55.72,32.5682 C 51.2562,7.0727 36.1416,8.417 36.1416,8.417 c 0,0 7.76,0.7192 8.73,24.2229 3.2933,-2.1354 7.5271,-2.1634 10.8484,-0.0717 z"/><path id="path3" fill="#5c9e31" d="m 56.3414,31.952 c 1.6572,-0.05 3.4387,-0.54 5.5345,0.6879 0,-20.2924 -21.8072,-23.19 -21.8072,-23.19 0,0 4.8854,1.1285 9.3779,6.7089 z"/><rect id="rect3" width="6.586" height="6.586" x="32.081" y="58.353" rx="1.42" ry="1.42"/></g><g id="line" transform="translate(-10.3006,-7.4092601)"><path id="path4" fill="none" stroke="#000" stroke-linecap="round" stroke-linejoin="round" stroke-width="2" d="M 60.9824,32.6058 38.6664,59.7729"/><path id="path5" fill="none" stroke="#000" stroke-linecap="round" stroke-linejoin="round" stroke-width="2" d="M 60.709,28.9912 C 58.7211,17.0091 48.2866,8.2706 36.1416,8.417 c -13.7193,0 -24.841,10.88 -24.841,24.3005 0,0 3.0573,-1.8827 5.1108,-0.2893 0.2137,0.1642 0.5015,0.1942 0.7445,0.0778 3.2218,-1.543 6.9739,-1.5198 10.1763,0.0629 0.167,0.0925 0.3642,0.1141 0.5473,0.06 1.5773,-0.4857 9.6051,-2.708 16.679,-0.0346 0.2018,0.0755 0.4263,0.0605 0.6163,-0.0411 3.196,-1.5665 6.9329,-1.5849 10.1442,-0.05 0.2478,0.1179 0.5409,0.0858 0.7574,-0.0829 2.0348,-1.5919 4.906,0.1853 4.906,0.1853"/><path id="path6" fill="none" stroke="#000" stroke-linecap="round" stroke-linejoin="round" stroke-width="2" d="M 16.7606,32.57 C 21.2242,7.0746 36.1416,8.417 36.1416,8.417 c 0,0 -7.5643,0.7338 -8.5346,24.2376 l 6.78,25.0408"/><path id="path7" fill="none" stroke="#000" stroke-linecap="round" stroke-linejoin="round" stroke-width="2" d="M 44.8716,32.64 37.2465,58.353"/><path id="path8" fill="none" stroke="#000" stroke-linecap="round" stroke-linejoin="round" stroke-width="2" d="M 55.72,32.5682 C 51.2562,7.0727 36.1416,8.417 36.1416,8.417 c 0,0 7.76,0.7192 8.73,24.2229"/><line id="line8" x1="16.761" x2="33.5" y1="32.66" y2="58.353" fill="none" stroke="#000" stroke-linecap="round" stroke-linejoin="round" stroke-width="2"/><line id="line9" x1="55.72" x2="37.246" y1="32.69" y2="58.353" fill="none" stroke="#000" stroke-linecap="round" stroke-linejoin="round" stroke-width="2"/><polyline id="polyline9" fill="none" stroke="#000" stroke-linecap="round" stroke-linejoin="round" stroke-width="2" points="32.081 59.773 11.301 32.718 32.081 59.773"/><rect id="rect9" width="6.586" height="6.586" x="32.081" y="58.353" fill="none" stroke="#000" stroke-linecap="round" stroke-linejoin="round" stroke-width="2" rx="1.42" ry="1.42"/></g></svg>