<?xml version="1.0" encoding="UTF-8" standalone="no"?>
<svg
   id="emoji"
   viewBox="0 0 51.681801 58.52964"
   version="1.1"
   sodipodi:docname="1fa82.svg"
   width="51.681801"
   height="58.52964"
   xmlns:inkscape="http://www.inkscape.org/namespaces/inkscape"
   xmlns:sodipodi="http://sodipodi.sourceforge.net/DTD/sodipodi-0.dtd"
   xmlns="http://www.w3.org/2000/svg"
   xmlns:svg="http://www.w3.org/2000/svg">
  <defs
     id="defs9" />
  <sodipodi:namedview
     id="namedview9"
     pagecolor="#ffffff"
     bordercolor="#000000"
     borderopacity="0.25"
     inkscape:showpageshadow="2"
     inkscape:pageopacity="0.0"
     inkscape:pagecheckerboard="0"
     inkscape:deskcolor="#d1d1d1" />
  <g
     id="color"
     transform="translate(-10.3006,-7.4092601)">
    <polygon
       fill="#ffffff"
       points="39.8577,29.9882 13.5009,33.294 32.7995,59.2041 38.6069,58.9361 59.6924,32.9366 "
       id="polygon1" />
    <path
       fill="#b1cc33"
       d="M 60.709,28.9912 C 58.7211,17.0091 48.2866,8.2706 36.1416,8.417 c -13.7193,0 -24.841,10.88 -24.841,24.3005 0,0 3.0573,-1.8827 5.1108,-0.2893 0.2137,0.1642 0.5015,0.1942 0.7445,0.0778 3.2218,-1.543 6.9739,-1.5198 10.1763,0.0629 0.167,0.0925 0.3642,0.1141 0.5473,0.06 1.5773,-0.4857 9.6051,-2.708 16.679,-0.0346 0.2018,0.0755 0.4263,0.0605 0.6163,-0.0411 3.196,-1.5665 6.9329,-1.5849 10.1442,-0.05 0.2478,0.1179 0.5409,0.0858 0.7574,-0.0829 2.0348,-1.5919 4.906,0.1853 4.906,0.1853"
       id="path1" />
    <path
       fill="#5c9e31"
       d="M 55.72,32.5682 C 51.2562,7.0727 36.1416,8.417 36.1416,8.417 c 0,0 7.76,0.7192 8.73,24.2229 3.2933,-2.1354 7.5271,-2.1634 10.8484,-0.0717 z"
       id="path2" />
    <path
       fill="#5c9e31"
       d="m 56.3414,31.952 c 1.6572,-0.05 3.4387,-0.54 5.5345,0.6879 0,-20.2924 -21.8072,-23.19 -21.8072,-23.19 0,0 4.8854,1.1285 9.3779,6.7089 z"
       id="path3" />
    <rect
       x="32.080502"
       y="58.353001"
       rx="1.4198999"
       ry="1.4198999"
       width="6.5858998"
       height="6.5858998"
       id="rect3" />
  </g>
  <g
     id="line"
     transform="translate(-10.3006,-7.4092601)">
    <path
       fill="none"
       stroke="#000000"
       stroke-linecap="round"
       stroke-linejoin="round"
       stroke-width="2"
       d="M 60.9824,32.6058 38.6664,59.7729"
       id="path4" />
    <path
       fill="none"
       stroke="#000000"
       stroke-linecap="round"
       stroke-linejoin="round"
       stroke-width="2"
       d="M 60.709,28.9912 C 58.7211,17.0091 48.2866,8.2706 36.1416,8.417 c -13.7193,0 -24.841,10.88 -24.841,24.3005 0,0 3.0573,-1.8827 5.1108,-0.2893 0.2137,0.1642 0.5015,0.1942 0.7445,0.0778 3.2218,-1.543 6.9739,-1.5198 10.1763,0.0629 0.167,0.0925 0.3642,0.1141 0.5473,0.06 1.5773,-0.4857 9.6051,-2.708 16.679,-0.0346 0.2018,0.0755 0.4263,0.0605 0.6163,-0.0411 3.196,-1.5665 6.9329,-1.5849 10.1442,-0.05 0.2478,0.1179 0.5409,0.0858 0.7574,-0.0829 2.0348,-1.5919 4.906,0.1853 4.906,0.1853"
       id="path5" />
    <path
       fill="none"
       stroke="#000000"
       stroke-linecap="round"
       stroke-linejoin="round"
       stroke-width="2"
       d="M 16.7606,32.57 C 21.2242,7.0746 36.1416,8.417 36.1416,8.417 c 0,0 -7.5643,0.7338 -8.5346,24.2376 l 6.78,25.0408"
       id="path6" />
    <path
       fill="none"
       stroke="#000000"
       stroke-linecap="round"
       stroke-linejoin="round"
       stroke-width="2"
       d="M 44.8716,32.64 37.2465,58.353"
       id="path7" />
    <path
       fill="none"
       stroke="#000000"
       stroke-linecap="round"
       stroke-linejoin="round"
       stroke-width="2"
       d="M 55.72,32.5682 C 51.2562,7.0727 36.1416,8.417 36.1416,8.417 c 0,0 7.76,0.7192 8.73,24.2229"
       id="path8" />
    <line
       x1="16.760599"
       x2="33.500401"
       y1="32.659801"
       y2="58.353001"
       fill="none"
       stroke="#000000"
       stroke-linecap="round"
       stroke-linejoin="round"
       stroke-width="2"
       id="line8" />
    <line
       x1="55.719898"
       x2="37.246498"
       y1="32.6898"
       y2="58.353001"
       fill="none"
       stroke="#000000"
       stroke-linecap="round"
       stroke-linejoin="round"
       stroke-width="2"
       id="line9" />
    <polyline
       fill="none"
       stroke="#000000"
       stroke-linecap="round"
       stroke-linejoin="round"
       stroke-width="2"
       points="32.0805 59.7729 11.3006 32.7175 32.0805 59.7729"
       id="polyline9" />
    <rect
       x="32.080502"
       y="58.353001"
       rx="1.4198999"
       ry="1.4198999"
       width="6.5858998"
       height="6.5858998"
       fill="none"
       stroke="#000000"
       stroke-linecap="round"
       stroke-linejoin="round"
       stroke-width="2"
       id="rect9" />
  </g>
</svg>
