<svg xmlns="http://www.w3.org/2000/svg" xmlns:svg="http://www.w3.org/2000/svg" id="emoji" width="38.465" height="60.308" version="1.1" viewBox="0 0 38.465 60.308"><g id="color" transform="translate(-16.580924,-6.1916445)"><path id="path1" fill="#a57939" d="m 17.5,8.5 c 4,11 10,31 5,49 l -2,8 h 2 c 0,0 7,-16 7,-21 h 19 l 3,21 h 2 v -21 c 0,0 1.2367,-2.0532 0,-7 -1,-4 -1.75,-4.03 -3,-4 -5.2545,0.125 -21,1 -21,1 0,0 -2.4645,-22.4645 -6,-26 -3,-3 -6,0 -6,0 z"/><path id="path2" fill="#fcea2b" d="M 24.587,44 H 54 c 0,0 0.5339,-1.07 -1,-7.2056 -1,-4 -0.1437,-3.53 -8.5718,-3.265 C 36.0001,33.7944 29.5,34.5 29.5,34.5 29.5,34.5 27.6454,19.2167 24.9363,11.4719 24.3662,9.8423 21.8424,5.4021 18,8 a 2.4561,2.4561 0 0 0 0,1 c 5.8665,16.8218 6.587,35 6.587,35 z"/><path id="path3" fill="#f1b31c" d="M 44.587,44 H 54 C 54.231,40.268 53.78,36.839 52,34 L 44.4282,33.5292 C 44.4282,33.5292 49,42 44.587,44 Z"/></g><g id="line" transform="translate(-16.580924,-6.1916445)"><path id="path4" fill="none" stroke="#000" stroke-linecap="round" stroke-linejoin="round" stroke-width="2" d="M 17.7592,8.2729 A 0.4635,0.4635 0 0 0 17.6075,8.7965 C 21.6062,19.8566 27.4554,39.6606 22.5,57.5 l -1.7193,6.8773 A 0.9035,0.9035 0 0 0 21.6572,65.5 h 1.1593 a 1.0322,1.0322 0 0 0 0.9533,-0.6248 C 25.0143,61.9711 29.1546,49.732 29.4835,44.9507 A 0.4736,0.4736 0 0 1 29.9535,44.5 H 48.09 a 0.4722,0.4722 0 0 1 0.4675,0.4055 L 50.3743,64.62 a 1.0252,1.0252 0 0 0 1.0149,0.88 h 1.1757 A 0.9352,0.9352 0 0 0 53.5,64.5649 V 44.615 a 0.4933,0.4933 0 0 1 0.0506,-0.2126 c 0.22,-0.46 1.0317,-2.573 -0.0506,-6.9024 -1,-4 -1.75,-4.03 -3,-4 -4.7344,0.1127 -17.986,0.8342 -20.5627,0.9759 A 0.4654,0.4654 0 0 1 29.4497,34.0582 C 29.083,30.8967 26.7417,11.7417 23.5,8.5 A 4.0406,4.0406 0 0 0 17.7592,8.2729 Z"/><line id="line4" x1="30" x2="24.5" y1="44.5" y2="44.5" fill="none" stroke="#000" stroke-miterlimit="10" stroke-width="2"/><line id="line5" x1="54" x2="47" y1="44.5" y2="44.5" fill="none" stroke="#000" stroke-miterlimit="10" stroke-width="2"/></g></svg>