<svg xmlns="http://www.w3.org/2000/svg" xmlns:svg="http://www.w3.org/2000/svg" id="emoji" width="34" height="63" version="1.1" viewBox="0 0 34 63"><g id="color" transform="translate(-19,-5.5)"><path id="path1" fill="#92d3f5" d="m 32.5,22.5 c 0,0 0,38 1,42 1,4 4,4 5,0 2.0308,-8.123 1,-42 1,-42"/><path id="path2" fill="#92d3f5" d="m 22.5,15.5 c 0,0 10,5 10,7 h 7 c 0,-1.6987 7.214,-5.5616 9.3876,-6.6869 C 49.2731,15.6131 49.5,15.5 49.5,15.5 Z"/><rect id="rect2" width="32" height="9" x="20" y="6.5" fill="#d0cfce" rx="2.244" ry="2.244"/></g><g id="line" transform="translate(-19,-5.5)"><path id="path3" fill="none" stroke="#000" stroke-linecap="round" stroke-miterlimit="10" stroke-width="2" d="m 32.5,22.5 c 0,0 0,38 1,42 1,4 4,4 5,0 2.0308,-8.123 1,-42 1,-42"/><rect id="rect3" width="32" height="9" x="20" y="6.5" fill="none" stroke="#000" stroke-linecap="round" stroke-miterlimit="10" stroke-width="2" rx="2.244" ry="2.244"/><path id="path4" fill="none" stroke="#000" stroke-linecap="round" stroke-miterlimit="10" stroke-width="2" d="m 22.5,15.5 c 0,0 10,5 10,7"/><path id="path5" fill="none" stroke="#000" stroke-linecap="round" stroke-miterlimit="10" stroke-width="2" d="m 39.5,22.5 c 0,-1.6987 7.214,-5.5616 9.3876,-6.6869 C 49.2731,15.6131 49.5,15.5 49.5,15.5"/><line id="line5" x1="20" x2="52" y1="11" y2="11" fill="none" stroke="#000" stroke-miterlimit="10" stroke-width="2"/></g></svg>