<svg xmlns="http://www.w3.org/2000/svg" xmlns:svg="http://www.w3.org/2000/svg" id="emoji" width="34.199" height="52.092" version="1.1" viewBox="0 0 34.199 52.092"><g id="color" transform="translate(-19.1315,-9.9419)"><polygon id="polygon1" fill="#fff" points="42.203 24.601 36.971 24.601 37.759 20.229 43.852 20.229"/><polygon id="polygon2" fill="#fff" points="38.333 36.5 33.315 36.142 34.534 32.199 40.196 32.056"/><polygon id="polygon3" fill="#fff" points="34.319 47.61 30.161 47.538 30.95 44.456 35.752 44.385"/><path id="path3" fill="#6a462f" d="m 22.2648,62.0342 h -2.0576 c -0.5942,-10e-5 -1.0758,-0.4819 -1.0757,-1.0761 0,-0.1124 0.0177,-0.2241 0.0523,-0.3311 l 16.164,-49.94 c 0.1433,-0.4441 0.5568,-0.7451 1.0235,-0.7451 H 38.43 c 0.5942,0 1.0758,0.4818 1.0758,1.076 0,0.1124 -0.0177,0.2242 -0.0523,0.3312 l -16.1653,49.94 c -0.1433,0.4441 -0.5567,0.7452 -1.0234,0.7451 z"/><path id="path4" fill="#a57939" d="m 36.09,62.0342 h -2.0576 c -0.5942,-10e-5 -1.0758,-0.4819 -1.0757,-1.0761 0,-0.1124 0.0177,-0.2241 0.0523,-0.3311 l 16.1641,-49.94 c 0.1433,-0.4441 0.5567,-0.7452 1.0234,-0.7451 h 2.0586 c 0.5942,10e-5 1.0758,0.4819 1.0757,1.0761 0,0.1124 -0.0177,0.2241 -0.0523,0.3311 l -16.165,49.94 c -0.1433,0.4442 -0.5568,0.7452 -1.0235,0.7451 z"/><path id="path5" fill="#a57939" d="M 47.9377,18.6777 H 34.12 c -0.5523,0 -1,-0.4478 -0.9999,-1.0001 0,-0.1214 0.0221,-0.2418 0.0653,-0.3553 l 0.6387,-1.6778 C 33.9717,15.2564 34.3438,14.9999 34.759,15 h 13.8173 c 0.5523,0 1,0.4478 0.9999,1.0001 0,0.1215 -0.0221,0.2419 -0.0653,0.3554 l -0.6387,1.6777 c -0.1476,0.388 -0.5194,0.6444 -0.9345,0.6445 z"/><path id="path6" fill="#a57939" d="M 44.1359,30.3166 H 30.3185 c -0.5523,0 -0.9999,-0.4479 -0.9998,-1.0002 0,-0.1214 0.0222,-0.2418 0.0653,-0.3553 l 0.6386,-1.6777 c 0.1475,-0.388 0.5195,-0.6446 0.9346,-0.6446 h 13.8174 c 0.5523,0 1,0.4478 0.9999,1.0001 0,0.1215 -0.0221,0.2419 -0.0653,0.3554 l -0.6387,1.6777 c -0.1475,0.388 -0.5195,0.6446 -0.9346,0.6446 z"/><path id="path7" fill="#a57939" d="M 40.4338,42 H 26.6164 c -0.5523,0 -1,-0.4478 -0.9999,-1.0001 0,-0.1215 0.0221,-0.2419 0.0653,-0.3554 l 0.6387,-1.6777 c 0.1475,-0.388 0.5195,-0.6446 0.9346,-0.6446 h 13.8174 c 0.5523,0 0.9999,0.4479 0.9998,1.0002 0,0.1214 -0.0222,0.2418 -0.0653,0.3553 l -0.6386,1.6778 C 41.2207,41.7434 40.8489,41.9998 40.4338,42 Z"/><path id="path8" fill="#a57939" d="M 36.6485,53.6528 H 22.8311 c -0.5523,0 -0.9999,-0.4479 -0.9998,-1.0002 0,-0.1214 0.0222,-0.2418 0.0653,-0.3553 l 0.6386,-1.6777 c 0.1475,-0.388 0.5195,-0.6446 0.9346,-0.6446 h 13.8174 c 0.5523,0 1,0.4478 0.9999,1.0001 0,0.1215 -0.0221,0.2419 -0.0653,0.3554 l -0.6387,1.6777 c -0.1475,0.388 -0.5195,0.6446 -0.9346,0.6446 z"/></g><g id="line" transform="translate(-19.1315,-9.9419)"><line id="line8" x1="20.207" x2="36.371" y1="60.958" y2="11.018" fill="none" stroke="#000" stroke-linecap="round" stroke-linejoin="round" stroke-width="2"/><line id="line9" x1="34.024" x2="50.189" y1="60.958" y2="11.018" fill="none" stroke="#000" stroke-linecap="round" stroke-linejoin="round" stroke-width="2"/><line id="line10" x1="34.759" x2="48.576" y1="16" y2="16" fill="none" stroke="#000" stroke-linecap="round" stroke-linejoin="round" stroke-width="2"/><line id="line11" x1="30.985" x2="44.803" y1="27.658" y2="27.658" fill="none" stroke="#000" stroke-linecap="round" stroke-linejoin="round" stroke-width="2"/><line id="line12" x1="37.256" x2="23.438" y1="50.974" y2="50.974" fill="none" stroke="#000" stroke-linecap="round" stroke-linejoin="round" stroke-width="2"/><line id="line13" x1="27.212" x2="41.029" y1="39.316" y2="39.316" fill="none" stroke="#000" stroke-linecap="round" stroke-linejoin="round" stroke-width="2"/></g></svg>