<?xml version="1.0" encoding="UTF-8" standalone="no"?>
<svg
   id="emoji"
   viewBox="0 0 64.049301 45.085602"
   version="1.1"
   sodipodi:docname="1fa90.svg"
   width="64.049301"
   height="45.085602"
   xmlns:inkscape="http://www.inkscape.org/namespaces/inkscape"
   xmlns:sodipodi="http://sodipodi.sourceforge.net/DTD/sodipodi-0.dtd"
   xmlns="http://www.w3.org/2000/svg"
   xmlns:svg="http://www.w3.org/2000/svg">
  <defs
     id="defs6" />
  <sodipodi:namedview
     id="namedview6"
     pagecolor="#ffffff"
     bordercolor="#000000"
     borderopacity="0.25"
     inkscape:showpageshadow="2"
     inkscape:pageopacity="0.0"
     inkscape:pagecheckerboard="0"
     inkscape:deskcolor="#d1d1d1" />
  <g
     id="color"
     transform="translate(-4.1192626,-13.885399)">
    <circle
       cx="36.145599"
       cy="36.4282"
       r="22.542801"
       fill="#ea5a47"
       id="circle1" />
    <path
       fill="#d22f27"
       d="M 52.5238,20.931 A 22.5441,22.5441 0 0 1 16.2821,47.0757 22.5423,22.5423 0 1 0 52.5238,20.931 Z"
       id="path1" />
    <path
       fill="#f1b31c"
       d="M 52.7935,22.7551 C 60.4681,21.8295 65.9319,22.7315 66.9853,25.604 68.8256,30.6221 56.51,39.7536 39.4777,46 22.4454,52.2464 7.1461,53.2415 5.3059,48.2235 c -1.07,-2.9183 2.6472,-7.2279 9.2958,-11.552 l 0.0766,1.5538 c -2.5091,2.2523 -3.7143,4.3411 -3.1382,5.9122 1.4336,3.909 13.3515,3.1334 26.6194,-1.7323 C 51.4274,37.5395 61.0211,30.4263 59.5875,26.5173 59.0348,25.01 56.9231,24.1992 53.7763,24.0509 Z"
       id="path2" />
  </g>
  <g
     id="line"
     transform="translate(-4.1192626,-13.885399)">
    <path
       fill="none"
       stroke="#000000"
       stroke-linecap="round"
       stroke-linejoin="round"
       stroke-width="2"
       d="M 17.1562,46.5937 A 21.5389,21.5389 0 1 1 55.9267,27.9065"
       id="path3" />
    <path
       fill="none"
       stroke="#000000"
       stroke-linecap="round"
       stroke-linejoin="round"
       stroke-width="2"
       d="M 57.6771,37.1641 A 21.5552,21.5552 0 0 1 22.7851,53.3282"
       id="path4" />
    <path
       fill="none"
       stroke="#000000"
       stroke-linecap="round"
       stroke-linejoin="round"
       stroke-width="2"
       d="M 52.7935,22.7551 C 60.4681,21.8295 65.9319,22.7315 66.9853,25.604 68.8256,30.6221 56.51,39.7536 39.4777,46 22.4454,52.2464 7.1461,53.2415 5.3059,48.2235 c -1.07,-2.9183 2.6472,-7.2279 9.2958,-11.552"
       id="path5" />
    <path
       fill="none"
       stroke="#000000"
       stroke-linecap="round"
       stroke-linejoin="round"
       stroke-width="2"
       d="m 53.7763,24.0509 c 3.1468,0.1483 5.2585,0.9591 5.8112,2.4664 1.4336,3.909 -8.16,11.0223 -21.428,15.8879 -13.268,4.8656 -25.1858,5.6413 -26.6195,1.7323 -0.5761,-1.5711 0.6291,-3.66 3.1382,-5.9122"
       id="path6" />
  </g>
</svg>
