<?xml version="1.0" encoding="UTF-8" standalone="no"?>
<svg
   id="emoji"
   viewBox="0 0 20 53.672859"
   version="1.1"
   sodipodi:docname="1fa93.svg"
   width="20"
   height="53.672859"
   xmlns:inkscape="http://www.inkscape.org/namespaces/inkscape"
   xmlns:sodipodi="http://sodipodi.sourceforge.net/DTD/sodipodi-0.dtd"
   xmlns="http://www.w3.org/2000/svg"
   xmlns:svg="http://www.w3.org/2000/svg">
  <defs
     id="defs4" />
  <sodipodi:namedview
     id="namedview4"
     pagecolor="#ffffff"
     bordercolor="#000000"
     borderopacity="0.25"
     inkscape:showpageshadow="2"
     inkscape:pageopacity="0.0"
     inkscape:pagecheckerboard="0"
     inkscape:deskcolor="#d1d1d1" />
  <g
     id="color"
     transform="translate(-26,-10.000141)">
    <polygon
       fill="#a57939"
       points="39.639,47.205 39.614,62.911 38.405,62.913 34.781,62.919 33.573,62.921 33.598,47.214 34.812,43.588 34.841,11.466 38.465,11.46 38.436,43.582 "
       id="polygon1" />
    <polygon
       fill="#a57939"
       points="38.465,10.46 38.436,13.582 34.812,13.588 34.841,10.466 "
       id="polygon2" />
    <path
       fill="#d0cfce"
       d="m 45,15 v 7 c -9,0 -15,1 -18,4 V 11 c 3,3 9,4 18,4 z"
       id="path2" />
  </g>
  <g
     id="line"
     transform="translate(-26,-10.000141)">
    <polygon
       fill="none"
       stroke="#000000"
       stroke-linecap="round"
       stroke-linejoin="round"
       stroke-width="2"
       points="39.639,46.957 39.614,62.663 38.405,62.665 34.781,62.671 33.573,62.673 33.598,46.967 34.812,43.34 34.841,22.7 38.465,22.212 38.436,43.334 "
       id="polygon3" />
    <polygon
       fill="none"
       stroke="#000000"
       stroke-linecap="round"
       stroke-linejoin="round"
       stroke-width="2"
       points="38.465,11.212 38.436,14.334 34.812,14.34 34.841,11.218 "
       id="polygon4" />
    <path
       fill="none"
       stroke="#000000"
       stroke-linecap="round"
       stroke-linejoin="round"
       stroke-width="2"
       d="m 45,15 v 7 c -9,0 -15,1 -18,4 V 11 c 3,3 9,4 18,4 z"
       id="path4" />
  </g>
</svg>
