<?xml version="1.0" encoding="UTF-8" standalone="no"?>
<svg
   id="emoji"
   viewBox="0 0 34 63"
   version="1.1"
   sodipodi:docname="1fa92.svg"
   width="34"
   height="63"
   xmlns:inkscape="http://www.inkscape.org/namespaces/inkscape"
   xmlns:sodipodi="http://sodipodi.sourceforge.net/DTD/sodipodi-0.dtd"
   xmlns="http://www.w3.org/2000/svg"
   xmlns:svg="http://www.w3.org/2000/svg">
  <defs
     id="defs5" />
  <sodipodi:namedview
     id="namedview5"
     pagecolor="#ffffff"
     bordercolor="#000000"
     borderopacity="0.25"
     inkscape:showpageshadow="2"
     inkscape:pageopacity="0.0"
     inkscape:pagecheckerboard="0"
     inkscape:deskcolor="#d1d1d1" />
  <g
     id="color"
     transform="translate(-19,-5.5)">
    <path
       fill="#92d3f5"
       d="m 32.5,22.5 c 0,0 0,38 1,42 1,4 4,4 5,0 2.0308,-8.123 1,-42 1,-42"
       id="path1" />
    <path
       fill="#92d3f5"
       d="m 22.5,15.5 c 0,0 10,5 10,7 h 7 c 0,-1.6987 7.214,-5.5616 9.3876,-6.6869 C 49.2731,15.6131 49.5,15.5 49.5,15.5 Z"
       id="path2" />
    <rect
       x="20"
       y="6.5"
       rx="2.2437"
       ry="2.2437"
       width="32"
       height="9"
       fill="#d0cfce"
       id="rect2" />
  </g>
  <g
     id="line"
     transform="translate(-19,-5.5)">
    <path
       fill="none"
       stroke="#000000"
       stroke-linecap="round"
       stroke-miterlimit="10"
       stroke-width="2"
       d="m 32.5,22.5 c 0,0 0,38 1,42 1,4 4,4 5,0 2.0308,-8.123 1,-42 1,-42"
       id="path3" />
    <rect
       x="20"
       y="6.5"
       rx="2.2437"
       ry="2.2437"
       width="32"
       height="9"
       fill="none"
       stroke="#000000"
       stroke-linecap="round"
       stroke-miterlimit="10"
       stroke-width="2"
       id="rect3" />
    <path
       fill="none"
       stroke="#000000"
       stroke-linecap="round"
       stroke-miterlimit="10"
       stroke-width="2"
       d="m 22.5,15.5 c 0,0 10,5 10,7"
       id="path4" />
    <path
       fill="none"
       stroke="#000000"
       stroke-linecap="round"
       stroke-miterlimit="10"
       stroke-width="2"
       d="m 39.5,22.5 c 0,-1.6987 7.214,-5.5616 9.3876,-6.6869 C 49.2731,15.6131 49.5,15.5 49.5,15.5"
       id="path5" />
    <line
       x1="20"
       x2="52"
       y1="11"
       y2="11"
       fill="none"
       stroke="#000000"
       stroke-miterlimit="10"
       stroke-width="2"
       id="line5" />
  </g>
</svg>
