<?xml version="1.0" encoding="UTF-8" standalone="no"?>
<svg
   id="emoji"
   viewBox="0 0 55.227127 53.789684"
   version="1.1"
   sodipodi:docname="1fa95.svg"
   width="55.227127"
   height="53.789684"
   xmlns:inkscape="http://www.inkscape.org/namespaces/inkscape"
   xmlns:sodipodi="http://sodipodi.sourceforge.net/DTD/sodipodi-0.dtd"
   xmlns="http://www.w3.org/2000/svg"
   xmlns:svg="http://www.w3.org/2000/svg">
  <defs
     id="defs4" />
  <sodipodi:namedview
     id="namedview4"
     pagecolor="#ffffff"
     bordercolor="#000000"
     borderopacity="0.25"
     inkscape:showpageshadow="2"
     inkscape:pageopacity="0.0"
     inkscape:pagecheckerboard="0"
     inkscape:deskcolor="#d1d1d1" />
  <g
     id="color"
     transform="translate(-8.3486996,-8.5522171)">
    <path
       fill="#a57939"
       d="m 59.65,9.6142 c -0.0625,0.0039 -4.9,4.8677 -5.9621,5.5117 -1.541,1.0313 -2.5045,3.7789 -2.6432,3.9146 L 29.1194,39.7588 a 15.9732,15.9732 0 0 1 1.9548,2.1867 l 22.8869,-21.65 a 7.5276,7.5276 0 0 0 3.3142,-1.9664 c 0.3054,-0.3617 4.6013,-4.24 4.97,-4.97 C 63.0017,11.8616 60.1521,9.5815 59.65,9.6142 Z"
       id="path1" />
    <path
       fill="#ea5a47"
       d="m 34.708,38.4357 a 0.8932,0.8932 0 0 0 -0.2148,0.2158 0.9811,0.9811 0 0 1 0.2163,-0.2139 z"
       id="path2" />
    <path
       fill="#ea5a47"
       d="m 30.4344,41.4778 c -0.0324,-0.0472 -0.0661,-0.0932 -0.1,-0.14 0.0339,0.0468 0.0676,0.0929 0.1,0.14 z"
       id="path3" />
    <circle
       cx="21.3487"
       cy="49.3419"
       r="12"
       fill="#d0cfce"
       id="circle3" />
  </g>
  <g
     id="line"
     transform="translate(-8.3486996,-8.5522171)">
    <line
       x1="15.2475"
       x2="20.3487"
       y1="50.251999"
       y2="55.194599"
       fill="none"
       stroke="#000000"
       stroke-linecap="round"
       stroke-linejoin="round"
       stroke-width="2"
       id="line3" />
    <path
       fill="none"
       stroke="#000000"
       stroke-linecap="round"
       stroke-linejoin="round"
       stroke-width="2"
       d="m 54.6873,19.6056 a 5.0443,5.0443 0 0 0 2.2362,-0.58 c 0.6314,-0.3969 3.5323,-3.3609 5.1821,-5.068 a 1.6979,1.6979 0 0 0 -0.0232,-2.3817 l -1.529,-1.5289 a 1.6943,1.6943 0 0 0 -2.379,-0.0257 c -1.8269,1.7649 -5.1332,4.9724 -5.4614,5.3846 a 3.3166,3.3166 0 0 0 -0.4651,1.4471 1.7237,1.7237 0 0 1 -0.4994,1.0055 L 29.5532,39.4956"
       id="path4" />
    <circle
       cx="21.3487"
       cy="49.3419"
       r="12"
       fill="none"
       stroke="#000000"
       stroke-linecap="round"
       stroke-linejoin="round"
       stroke-width="2"
       id="circle4" />
  </g>
</svg>
