<svg xmlns="http://www.w3.org/2000/svg" xmlns:svg="http://www.w3.org/2000/svg" id="emoji" width="40.467" height="52" version="1.1" viewBox="0 0 40.467 52"><g id="line-supplement" transform="translate(-15.577295,-9.958)"><line id="line1" x1="39.843" x2="43.477" y1="24.552" y2="29.65" fill="none" stroke="#000" stroke-linecap="round" stroke-linejoin="round" stroke-width="2"/><line id="line2" x1="34.824" x2="42.804" y1="25.212" y2="36.406" fill="none" stroke="#000" stroke-linecap="round" stroke-linejoin="round" stroke-width="2"/></g><g id="color" transform="translate(-15.577295,-9.958)"><path id="path2" fill="#fcea2b" d="m 35.8447,61.958 c -3.7715,0 -7.0723,-2.167 -8.0274,-5.27 A 4.387,4.387 0 0 0 25.19,54.3721 V 57.27 a 0.9994,0.9994 0 0 1 -1,1 h -3.4283 a 0.9993,0.9993 0 0 1 -1,-1 V 51.916 C 17.3242,51.1514 15.583,48.1602 15.583,44.4971 a 9.83,9.83 0 0 1 1.1728,-4.7617 11.4276,11.4276 0 0 0 -0.0039,-7.5469 9.8345,9.8345 0 0 1 -1.1689,-4.7549 c 0,-2.9346 1.1484,-5.5518 2.997,-6.83 a 4.4373,4.4373 0 0 1 1.1817,-0.5869 v -5.7052 a 0.9994,0.9994 0 0 1 1,-1 H 24.19 a 1,1 0 0 1 1,1 v 3.2256 a 4.4515,4.4515 0 0 0 2.6494,-2.374 C 28.772,12.125 32.0728,9.958 35.8443,9.958 c 3.874,0 7.2685,2.3164 8.1064,5.5195 A 4.2416,4.2416 0 0 0 46.499,17.6 v -3.2885 a 1,1 0 0 1 1,-1 h 3.4287 a 1,1 0 0 1 1,1 v 5.7276 a 4.4646,4.4646 0 0 1 1.0225,0.5048 1.1831,1.1831 0 0 1 0.207,0.1456 8.3647,8.3647 0 0 1 2.8769,6.7441 9.9323,9.9323 0 0 1 -1.08,4.5937 0.8654,0.8654 0 0 1 -0.0323,0.1045 11.4664,11.4664 0 0 0 -0.0078,7.6465 0.9736,0.9736 0 0 1 0.0449,0.1338 9.9375,9.9375 0 0 1 1.0752,4.585 8.3669,8.3669 0 0 1 -2.8711,6.7392 1.03,1.03 0 0 1 -0.1816,0.128 4.411,4.411 0 0 1 -1.0537,0.5263 V 57.27 a 0.9994,0.9994 0 0 1 -1,1 H 47.499 a 0.9994,0.9994 0 0 1 -1,-1 v -2.959 a 4.2432,4.2432 0 0 0 -2.5479,2.128 c -0.8379,3.2026 -4.2324,5.519 -8.1064,5.519 z"/><path id="path3" fill="#92d3f5" d="m 36,55.93 c -8.044,0 -14.5879,-8.87 -14.5879,-19.7735 0,-10.9035 6.5439,-19.7727 14.5879,-19.7727 8.044,0 14.5879,8.87 14.5879,19.7724 C 50.5879,47.0586 44.0439,55.93 36,55.93 Z"/><line id="line3" x1="39.843" x2="43.477" y1="24.552" y2="29.65" fill="none" stroke="#fff" stroke-linecap="round" stroke-linejoin="round" stroke-width="2"/><line id="line4" x1="34.824" x2="42.804" y1="25.212" y2="36.406" fill="none" stroke="#fff" stroke-linecap="round" stroke-linejoin="round" stroke-width="2"/></g><g id="line" transform="translate(-15.577295,-9.958)"><ellipse id="ellipse4" cx="36" cy="36.156" fill="none" stroke="#000" stroke-linecap="round" stroke-linejoin="round" stroke-width="2" rx="13.588" ry="18.773"/><path id="path4" fill="none" stroke="#000" stroke-linecap="round" stroke-linejoin="round" stroke-width="2" d="M 24.1909,18.8628 V 14.3115 H 20.762 v 6.5222"/><path id="path5" fill="none" stroke="#000" stroke-linecap="round" stroke-linejoin="round" stroke-width="2" d="m 44.9041,17.9478 a 4.572,4.572 0 0 1 -1.9029,-2.1506 c -0.684,-2.7619 -3.628,-4.8389 -7.1565,-4.8389 -3.409,0 -6.2643,1.9414 -7.0712,4.5635 A 4.8632,4.8632 0 0 1 26.7079,17.9"/><path id="path6" fill="none" stroke="#000" stroke-linecap="round" stroke-linejoin="round" stroke-width="2" d="M 50.9275,20.8392 V 14.3115 H 47.4986 V 18.89"/><path id="path7" fill="none" stroke="#000" stroke-linecap="round" stroke-linejoin="round" stroke-width="2" d="m 53.2382,49.8211 a 8.028,8.028 0 0 0 1.7963,-5.3245 8.7693,8.7693 0 0 0 -1.05,-4.2829 l 0.0073,-0.0506 a 12.3867,12.3867 0 0 1 0,-8.3983 l -0.0071,-0.0489 a 8.7692,8.7692 0 0 0 1.05,-4.2824 8.0279,8.0279 0 0 0 -1.7962,-5.3245"/><path id="path8" fill="none" stroke="#000" stroke-linecap="round" stroke-linejoin="round" stroke-width="2" d="m 47.4986,53.0217 v 4.2474 h 3.4289 v -6.1783"/><path id="path9" fill="none" stroke="#000" stroke-linecap="round" stroke-linejoin="round" stroke-width="2" d="m 26.7061,54.0136 a 4.872,4.872 0 0 1 2.0674,2.3812 c 0.8069,2.6221 3.6622,4.5635 7.0712,4.5635 3.5285,0 6.4725,-2.077 7.1565,-4.8389 A 4.5494,4.5494 0 0 1 44.83,54.0135"/><path id="path10" fill="none" stroke="#000" stroke-linecap="round" stroke-linejoin="round" stroke-width="2" d="m 20.762,51.0963 v 6.1728 h 3.4289 v -4.22"/><path id="path11" fill="none" stroke="#000" stroke-linecap="round" stroke-linejoin="round" stroke-width="2" d="m 18.482,21.9973 a 7.9338,7.9338 0 0 0 -1.8994,5.4362 8.7366,8.7366 0 0 0 1.079,4.3308 v 5e-4 a 12.3867,12.3867 0 0 1 0,8.3983 v 0.0023 a 8.7366,8.7366 0 0 0 -1.0793,4.3312 7.9289,7.9289 0 0 0 1.9,5.4372"/></g></svg>