<?xml version="1.0" encoding="UTF-8" standalone="no"?>
<svg
   id="emoji"
   viewBox="0 0 49.204102 49.204102"
   version="1.1"
   sodipodi:docname="1faaf.svg"
   width="49.204102"
   height="49.204102"
   xmlns:inkscape="http://www.inkscape.org/namespaces/inkscape"
   xmlns:sodipodi="http://sodipodi.sourceforge.net/DTD/sodipodi-0.dtd"
   xmlns="http://www.w3.org/2000/svg"
   xmlns:svg="http://www.w3.org/2000/svg">
  <defs
     id="defs6" />
  <sodipodi:namedview
     id="namedview6"
     pagecolor="#ffffff"
     bordercolor="#000000"
     borderopacity="0.25"
     inkscape:showpageshadow="2"
     inkscape:pageopacity="0.0"
     inkscape:pagecheckerboard="0"
     inkscape:deskcolor="#d1d1d1" />
  <g
     id="color"
     transform="translate(-11.3055,-11.3517)">
    <g
       id="color-2">
      <rect
         x="11.896"
         y="12.3358"
         width="47.235901"
         height="47.235901"
         fill="#b399c8"
         id="rect1" />
    </g>
  </g>
  <g
     id="line"
     transform="translate(-11.3055,-11.3517)">
    <rect
       x="12.2896"
       y="12.3358"
       width="47.235901"
       height="47.235901"
       fill="none"
       stroke="#000000"
       stroke-linecap="round"
       stroke-linejoin="round"
       stroke-width="1.9682"
       id="rect2" />
    <polyline
       fill="none"
       stroke="#000000"
       stroke-linecap="round"
       stroke-linejoin="round"
       stroke-width="1.9682"
       points="35.9076 54.9466 35.9076 49.0421 35.9076 48.6484 35.9076 45.1057"
       id="polyline2" />
    <path
       fill="none"
       stroke="#000000"
       stroke-linecap="round"
       stroke-linejoin="round"
       stroke-width="1.9682"
       d="m 40.4343,46.2866 c 0.5904,1.1809 2.2634,4.5268 2.9522,5.9045 4.5268,-3.8379 9.5456,-9.152 9.5456,-14.1708 0,-5.0188 -2.2634,-9.644 -5.8061,-12.5962 1.5745,2.165 2.3618,4.7236 2.3618,7.5774 v 0.3936 c -0.2952,4.1331 -4.5268,8.7583 -8.2663,11.9074 -0.2952,0.2952 -0.5904,0.492 -0.7873,0.6889 l -4.0347,3.1491 -0.1968,0.1968 -4.0347,3.2475"
       id="path2" />
    <path
       fill="none"
       stroke="#000000"
       stroke-linejoin="round"
       stroke-width="1.9682"
       d="m 38.171,30.2461 c -0.0984,3.7395 0,6.6918 0.3936,9.644 0.0984,0.492 0.0984,0.8857 0.1968,1.3777 0.0984,0.6889 0.1968,1.3777 0.2952,1.9682 -1.8698,1.2793 -3.0507,2.0666 -3.0507,2.0666 0,0 -1.1809,-0.7873 -2.8538,-2.0666 0.0984,-0.6889 0.1968,-1.3777 0.2952,-1.9682 0.0984,-0.3936 0.0984,-0.8857 0.1968,-1.2793 0.2952,-2.8538 0.492,-5.9045 0.3936,-9.644 -0.0984,-3.4443 -0.3936,-5.2156 -0.7873,-7.2822 -0.0984,-0.2952 -0.0984,-0.6889 -0.1968,-0.9841 -0.1968,-0.6889 -0.2952,-1.3777 -0.492,-2.165 l 3.5427,-2.3618 3.5427,2.3618 c -0.1968,0.7873 -0.3936,1.5745 -0.492,2.165 -0.0984,0.3936 -0.1968,0.6889 -0.1968,0.9841 -0.492,1.8698 -0.6889,3.7395 -0.7873,7.1838 z"
       id="path3" />
    <path
       fill="none"
       stroke="#000000"
       stroke-linecap="round"
       stroke-miterlimit="10"
       stroke-width="1.9682"
       d="m 33.9394,30.2461 c 0.0984,3.7395 0,6.7902 -0.3936,9.644 -3.7395,-1.0825 -6.4949,-4.4284 -6.4949,-8.5615 0,-3.9363 2.5586,-7.1838 6.0029,-8.3647 0.492,1.9682 0.7873,3.8379 0.8857,7.2822 z"
       id="path4" />
    <path
       fill="none"
       stroke="#000000"
       stroke-linecap="round"
       stroke-miterlimit="10"
       stroke-width="1.9682"
       d="m 44.8627,31.3286 c 0,4.0347 -2.657,7.3806 -6.2981,8.4631 -0.2952,-2.8538 -0.492,-5.9045 -0.3936,-9.644 0.0984,-3.4443 0.3936,-5.314 0.7873,-7.1838 3.4443,1.2793 5.9045,4.5268 5.9045,8.3647 z"
       id="path5" />
    <path
       fill="none"
       stroke="#000000"
       stroke-linecap="round"
       stroke-linejoin="round"
       stroke-width="1.9682"
       d="M 39.6471,52.388 35.6124,49.1405 35.4156,48.9437 31.3809,45.7946 C 31.0857,45.5978 30.7905,45.401 30.5936,45.1057 26.9525,41.9566 22.6225,37.3315 22.3273,33.1983 v -0.3936 c 0,-2.8538 0.7873,-5.4125 2.3618,-7.5774 -3.4443,3.0507 -5.8061,7.5774 -5.8061,12.5962 0,5.0188 5.0188,10.3329 9.5456,14.1708 0.6889,-1.3777 2.3618,-4.6252 2.9522,-5.9045"
       id="path6" />
  </g>
</svg>
