<svg xmlns="http://www.w3.org/2000/svg" xmlns:svg="http://www.w3.org/2000/svg" id="emoji" width="41.358" height="41.601" version="1.1" viewBox="0 0 41.358 41.601"><g id="color" transform="translate(-15.002225,-11.916668)"><path id="path1" fill="#92d3f5" d="m 17.7061,53.5176 a 2.6421,2.6421 0 0 1 -1.875,-0.7744 l -0.043,-0.042 a 2.666,2.666 0 0 1 -0.0117,-3.7686 l 17.6328,-16.5742 8.33,-5.0088 10.0382,-10.0615 A 2.6926,2.6926 0 0 1 55.59,21.0908 L 44.794,31.8779 36.6104,37.0179 19.56,52.7637 a 2.61,2.61 0 0 1 -1.85,0.7529 z"/><path id="path2" fill="#fff" d="M 42.7,28.6167 A 1,1 0 0 1 41.9969,28.3276 L 37.0205,23.35 a 0.9883,0.9883 0 0 1 -0.18,-0.2412 2.9024,2.9024 0 0 1 -0.12,-2.6718 2.398,2.398 0 0 1 2.2491,-1.04 1.2056,1.2056 0 0 0 0.8779,-0.2373 0.8234,0.8234 0 0 0 0.0879,-0.5869 2.9549,2.9549 0 0 1 0.5859,-2.3809 2.8473,2.8473 0 0 1 2.4239,-0.8486 c 0.7861,0.0352 1.0175,-0.34 1.082,-0.6943 a 2.8273,2.8273 0 0 1 0.9023,-2.3028 2.4079,2.4079 0 0 1 2.4268,-0.1865 1.0052,1.0052 0 0 1 0.3584,0.2276 l 4.9767,4.9778 a 1,1 0 0 1 0.0137,1.4082 l -9.2881,9.541 a 1.0015,1.0015 0 0 1 -0.707,0.3028 z"/></g><g id="line" transform="translate(-15.002225,-11.916668)"><path id="path3" fill="none" stroke="#000" stroke-linecap="round" stroke-miterlimit="10" stroke-width="2" d="m 22.2733,48.8968 -3.392,3.1332 a 1.66,1.66 0 0 1 -2.3473,0.0029 l -0.0464,-0.0463 a 1.66,1.66 0 0 1 -0.0029,-2.3473 l 17.44,-16.4231 8.4353,-5.0721 10.125,-10.15 a 1.66,1.66 0 0 1 2.3473,-0.0029 l 0.0464,0.0464 a 1.66,1.66 0 0 1 0.0029,2.3472 L 44.2614,31.0312 36,36.2194 25.2054,46.256"/><line id="line3" x1="42.993" x2="44.071" y1="21.404" y2="22.481" fill="none" stroke="#000" stroke-linecap="round" stroke-miterlimit="10" stroke-width="2"/><line id="line4" x1="45.631" x2="46.708" y1="18.767" y2="19.844" fill="none" stroke="#000" stroke-linecap="round" stroke-miterlimit="10" stroke-width="2"/><path id="path4" fill="none" stroke="#000" stroke-linecap="round" stroke-miterlimit="10" stroke-width="2" d="m 40.919,25.8338 -3.1877,-3.1877 c 0,0 -1.1923,-2.2415 1.2458,-2.2415 2.4381,0 1.9419,-2.0462 1.9419,-2.0462 a 1.6659,1.6659 0 0 1 1.9763,-2.01 1.8756,1.8756 0 0 0 2.144,-1.65 c 0,0 -0.2173,-2.3987 1.98,-1.5939 l 3.1877,3.1877"/></g></svg>