<svg xmlns="http://www.w3.org/2000/svg" xmlns:svg="http://www.w3.org/2000/svg" id="emoji" width="64" height="40" version="1.1" viewBox="0 0 64 40"><g id="line-supplement" transform="translate(-4,-16)"><line id="line1" x1="9.915" x2="26.613" y1="22.002" y2="22.002" fill="none" stroke="#000" stroke-linecap="round" stroke-linejoin="round" stroke-width="2"/><line id="line2" x1="34.861" x2="62.032" y1="22.002" y2="22.002" fill="none" stroke="#000" stroke-linecap="round" stroke-linejoin="round" stroke-width="2"/><line id="line3" x1="34.934" x2="54.109" y1="29.556" y2="29.556" fill="none" stroke="#000" stroke-linecap="round" stroke-linejoin="round" stroke-width="2"/><line id="line4" x1="34.934" x2="54.109" y1="33.554" y2="33.554" fill="none" stroke="#000" stroke-linecap="round" stroke-linejoin="round" stroke-width="2"/><line id="line5" x1="34.934" x2="54.109" y1="37.552" y2="37.552" fill="none" stroke="#000" stroke-linecap="round" stroke-linejoin="round" stroke-width="2"/></g><g id="color" transform="translate(-4,-16)"><rect id="rect5" width="62" height="38" x="5" y="17" fill="#d0cfce" rx="3.508"/><rect id="rect6" width="16.528" height="19.462" x="10" y="29.544" fill="#fff" stroke="#fff" stroke-linecap="round" stroke-linejoin="round" stroke-width="2"/><path id="path6" fill="#fcea2b" d="m 26.6131,51 -1.1526,-4.5626 a 4.3,4.3 0 0 0 -4.209,-4.1314 h -6 a 4.3,4.3 0 0 0 -4.209,4.1314 L 9.9148,51 Z"/><circle id="circle6" cx="18.331" cy="34.8" r="3" fill="#fcea2b"/></g><g id="line" transform="translate(-4,-16)"><path id="path7" fill="none" stroke="#000" stroke-linecap="round" stroke-linejoin="round" stroke-width="2" d="m 34.474,50.0058 4.706,-7.1323 1.255,6.2152 3.1695,-4.1457 0.77,3.4347 c 4.7928,-2.6426 9.5335,1.4738 13.2683,0.1157"/><rect id="rect7" width="62" height="38" x="5" y="17" fill="none" stroke="#000" stroke-linecap="round" stroke-linejoin="round" stroke-width="2" rx="3.508"/><circle id="circle7" cx="18.331" cy="34.8" r="3" fill="none" stroke="#000" stroke-miterlimit="10" stroke-width="2"/><path id="path8" fill="none" stroke="#000" stroke-linecap="round" stroke-linejoin="round" stroke-width="2" d="m 26.6131,50.0058 -0.1776,-3.2675 a 5.274,5.274 0 0 0 -5.2075,-5 H 15.3 a 5.274,5.274 0 0 0 -5.208,5 l -0.1776,3.2674"/></g><g id="color-foreground" transform="translate(-4,-16)"><line id="line8" x1="9.915" x2="26.613" y1="22.002" y2="22.002" fill="none" stroke="#9b9b9a" stroke-linecap="round" stroke-linejoin="round" stroke-width="2"/><line id="line9" x1="34.861" x2="62.032" y1="22.002" y2="22.002" fill="none" stroke="#9b9b9a" stroke-linecap="round" stroke-linejoin="round" stroke-width="2"/><line id="line10" x1="34.934" x2="54.109" y1="29.556" y2="29.556" fill="none" stroke="#9b9b9a" stroke-linecap="round" stroke-linejoin="round" stroke-width="2"/><line id="line11" x1="34.934" x2="54.109" y1="33.554" y2="33.554" fill="none" stroke="#9b9b9a" stroke-linecap="round" stroke-linejoin="round" stroke-width="2"/><line id="line12" x1="34.934" x2="54.109" y1="37.552" y2="37.552" fill="none" stroke="#9b9b9a" stroke-linecap="round" stroke-linejoin="round" stroke-width="2"/></g></svg>