<?xml version="1.0" encoding="UTF-8" standalone="no"?>
<svg
   id="emoji"
   viewBox="0 0 41.848793 54.983601"
   version="1.1"
   sodipodi:docname="1faac.svg"
   width="41.848793"
   height="54.983601"
   xmlns:inkscape="http://www.inkscape.org/namespaces/inkscape"
   xmlns:sodipodi="http://sodipodi.sourceforge.net/DTD/sodipodi-0.dtd"
   xmlns="http://www.w3.org/2000/svg"
   xmlns:svg="http://www.w3.org/2000/svg">
  <defs
     id="defs5" />
  <sodipodi:namedview
     id="namedview5"
     pagecolor="#ffffff"
     bordercolor="#000000"
     borderopacity="0.25"
     inkscape:showpageshadow="2"
     inkscape:pageopacity="0.0"
     inkscape:pagecheckerboard="0"
     inkscape:deskcolor="#d1d1d1" />
  <g
     id="skin"
     transform="translate(-15.074965,-8.5082)">
    <path
       fill="#fcea2b"
       d="m 48.0056,34.1314 -8e-4,5.0108 0.0038,-23.6357 c 6e-4,-3.7005 -7.4368,-4.0258 -7.6548,0.3919 -0.0032,0.0655 -0.0374,18.5258 -0.0374,18.5934 v -20 c 0,-3.7329 -2.29,-4.8444 -4.1235,-4.9836 H 35.807 c -1.8333,0.1392 -4.1238,1.2507 -4.1234,4.9836 v 20 c 0,-0.0676 -0.0342,-18.5279 -0.0374,-18.5934 -0.218,-4.4177 -7.6554,-4.0924 -7.6548,-0.3919 l 0.0038,23.6357 -8e-4,-5.0108 c -1.3859,-2.9117 -5.4041,-5.9646 -7.9155,-3.7363 a 73.2708,73.2708 0 0 0 2.0768,18.0967 C 21.473,57.32 25.8632,62.2879 35.6293,62.474 v 0.0178 c 0.0973,0 0.1857,-0.008 0.282,-0.0089 0.0962,9e-4 0.1845,0.0089 0.2817,0.0089 v -0.0177 c 9.7729,-0.186 14.3341,-5.1542 17.6514,-13.9823 A 74.5043,74.5043 0 0 0 55.9212,30.3951 C 53.41,28.1668 49.3915,31.22 48.0056,34.1314 Z"
       id="path1" />
  </g>
  <g
     id="color"
     transform="translate(-15.074965,-8.5082)">
    <path
       fill="#ffffff"
       d="m 36.1257,40.9548 c 6.1218,0 11.0845,6.505 11.0845,6.505 0,0 -4.9627,6.505 -11.0845,6.505 -6.1218,0 -11.0845,-6.5048 -11.0845,-6.5048 0,0 4.9627,-6.5052 11.0845,-6.5052 z"
       id="path2" />
    <circle
       cx="36.205299"
       cy="47.3102"
       r="5.8448"
       fill="#61b2e4"
       id="circle2" />
  </g>
  <g
     id="line"
     transform="translate(-15.074965,-8.5082)">
    <path
       fill="none"
       stroke="#000000"
       stroke-linecap="round"
       stroke-linejoin="round"
       stroke-width="2"
       d="m 48.0056,34.1314 -8e-4,5.0108 0.0038,-23.6357 c 6e-4,-3.7005 -7.4368,-4.0258 -7.6548,0.3919 -0.0032,0.0655 -0.0374,18.5258 -0.0374,18.5934 v -20 c 0,-3.7329 -2.29,-4.8444 -4.1235,-4.9836 H 35.807 c -1.8333,0.1392 -4.1238,1.2507 -4.1234,4.9836 v 20 c 0,-0.0676 -0.0342,-18.5279 -0.0374,-18.5934 -0.218,-4.4177 -7.6554,-4.0924 -7.6548,-0.3919 l 0.0038,23.6357 -8e-4,-5.0108 c -1.3859,-2.9117 -5.4041,-5.9646 -7.9155,-3.7363 a 73.2708,73.2708 0 0 0 2.0768,18.0967 C 21.473,57.32 25.8632,62.2879 35.6293,62.474 v 0.0178 c 0.0973,0 0.1857,-0.008 0.282,-0.0089 0.0962,9e-4 0.1845,0.0089 0.2817,0.0089 v -0.0177 c 9.7729,-0.186 14.3341,-5.1542 17.6514,-13.9823 A 74.5043,74.5043 0 0 0 55.9212,30.3951 C 53.41,28.1668 49.3915,31.22 48.0056,34.1314 Z"
       id="path3" />
    <path
       fill="none"
       stroke="#000000"
       stroke-linecap="round"
       stroke-linejoin="round"
       stroke-width="1.9984"
       d="m 36.1257,40.4278 c 6.6178,0 11.9826,7.032 11.9826,7.032 0,0 -5.3648,7.032 -11.9826,7.032 -6.6178,0 -11.9826,-7.0318 -11.9826,-7.0318 0,0 5.3648,-7.0322 11.9826,-7.0322 z"
       id="path4" />
    <circle
       cx="36.205299"
       cy="47.3102"
       r="2.6881001"
       id="circle4" />
    <circle
       cx="36.205299"
       cy="47.3102"
       r="5.8448"
       fill="none"
       stroke="#000000"
       stroke-linecap="round"
       stroke-linejoin="round"
       stroke-width="1.9984"
       id="circle5" />
  </g>
</svg>
