<svg xmlns="http://www.w3.org/2000/svg" xmlns:svg="http://www.w3.org/2000/svg" id="emoji" width="46.962" height="46.961" version="1.1" viewBox="0 0 46.962 46.961"><g id="color" transform="translate(-15.03923,-14.99758)"><path id="path1" fill="#a57939" d="m 38.3053,42.0308 a 0.9969,0.9969 0 0 1 -0.707,-0.293 L 15.9049,20.0444 a 2.9565195,2.9565195 0 0 1 4.1817,-4.1806 L 41.78,37.5571 a 1,1 0 0 1 0,1.4141 c -0.3906,0.3906 -2.3769,2.376 -2.7675,2.7666 a 0.9971,0.9971 0 0 1 -0.7072,0.293 z"/><path id="path2" fill="#d22f27" d="m 61.0807,41.7407 a 3.224,3.224 0 0 0 -3.28,-0.7073 11.778,11.778 0 0 0 -12.737,-1.9821 l -2.39,-2.3887 a 1,1 0 0 0 -1.4141,0 l -4.5566,4.5557 a 0.9995,0.9995 0 0 0 0,1.414 l 2.39,2.39 a 11.7809,11.7809 0 0 0 1.9652,12.7177 3.1428,3.1428 0 0 0 5.1749,3.2982 L 61.0807,46.1919 a 3.15,3.15 0 0 0 0,-4.4512 z"/><path id="path3" fill="#ea5a47" d="m 61.0807,41.7407 a 3.23,3.23 0 0 0 -4.4512,0 L 41.7819,56.5874 a 3.1475,3.1475 0 0 0 4.4512,4.4512 L 61.0807,46.1919 a 3.15,3.15 0 0 0 0,-4.4512 z"/></g><g id="line" transform="translate(-15.03923,-14.99758)"><path id="path4" fill="none" stroke="#000" stroke-linecap="round" stroke-linejoin="round" stroke-width="2" d="m 56,43.7834 1.3361,-1.336 a 2.1541,2.1541 0 0 1 3.0374,0 v 0 a 2.1541,2.1541 0 0 1 0,3.0374 l -14.847,14.847 a 2.1541,2.1541 0 0 1 -3.0374,0 v 0 a 2.1541,2.1541 0 0 1 0,-3.0374 L 43.7834,56 Z"/><path id="path5" fill="none" stroke="#000" stroke-linecap="round" stroke-linejoin="round" stroke-width="2" d="M 36,38.7255 16.6124,19.3379 a 1.9626,1.9626 0 0 1 0,-2.7672 v 0 a 1.9626,1.9626 0 0 1 2.7672,0 l 19.3876,19.3876"/><path id="path6" fill="none" stroke="#000" stroke-linecap="round" stroke-linejoin="round" stroke-width="2" d="M 55.4327,40.5239 A 10.8744,10.8744 0 0 0 44.8608,40.2627 l -2.8933,-2.8933 -4.5565,4.5564 2.8934,2.8933 a 10.8747,10.8747 0 0 0 0.239,10.5343"/></g></svg>