<?xml version="1.0" encoding="UTF-8" standalone="no"?>
<svg
   id="emoji"
   viewBox="0 0 42.003796 53.075001"
   version="1.1"
   sodipodi:docname="1faa3.svg"
   width="42.003796"
   height="53.075001"
   xmlns:inkscape="http://www.inkscape.org/namespaces/inkscape"
   xmlns:sodipodi="http://sodipodi.sourceforge.net/DTD/sodipodi-0.dtd"
   xmlns="http://www.w3.org/2000/svg"
   xmlns:svg="http://www.w3.org/2000/svg">
  <defs
     id="defs9" />
  <sodipodi:namedview
     id="namedview9"
     pagecolor="#ffffff"
     bordercolor="#000000"
     borderopacity="0.25"
     inkscape:showpageshadow="2"
     inkscape:pageopacity="0.0"
     inkscape:pagecheckerboard="0"
     inkscape:deskcolor="#d1d1d1" />
  <g
     id="color"
     transform="translate(-14.998101,-7.8870001)">
    <path
       fill="#92d3f5"
       d="M 44.01,60.96 H 27.44 c -1.9631,-0.0096 -3.6058,-1.4922 -3.816,-3.444 l -2.695,-23.7 h 29.83 l -2.936,23.74 c -0.2307,1.9334 -1.864,3.393 -3.811,3.406 z"
       id="path1" />
    <path
       fill="#61b2e4"
       d="m 45.04,33.81 -2.937,23.74 c -0.2307,1.9334 -1.864,3.393 -3.811,3.406 h 5.716 c 1.947,-0.013 3.5803,-1.4726 3.811,-3.406 l 2.936,-23.74 z"
       id="path2" />
    <path
       fill="#61b2e4"
       d="M 50.97,35.87 H 20.95 c -1.1976,-0.0088 -2.1621,-0.9854 -2.156,-2.183 v -0.7919 c -0.015,-3.0095 2.4085,-5.4634 5.418,-5.486 h 23.5 c 3.0095,0.0226 5.433,2.4765 5.418,5.486 v 0.7919 c 0.0061,1.1972 -0.9578,2.1736 -2.155,2.183 z"
       id="path3" />
    <path
       fill="#ffffff"
       d="m 40.73,8.888 v 5.155 H 31.178 V 8.888 Z"
       id="path4" />
  </g>
  <g
     id="line"
     transform="translate(-14.998101,-7.8870001)">
    <path
       fill="none"
       stroke="#000000"
       stroke-linecap="round"
       stroke-linejoin="round"
       stroke-width="2"
       d="m 49.18,38.23 -2.374,19.19 c -0.1677,1.4225 -1.3697,2.4967 -2.802,2.504 H 27.434 C 25.991,59.9165 24.7837,58.8267 24.629,57.392 L 22.45,38.222"
       id="path5" />
    <path
       fill="none"
       stroke="#000000"
       stroke-linecap="round"
       stroke-linejoin="round"
       stroke-width="2"
       d="m 50.97,34.84 c 0.6324,-0.0038 1.1419,-0.5196 1.138,-1.152 0,-4e-4 0,-7e-4 0,-0.001 v -0.7926 c 0.0155,-2.4455 -1.9544,-4.4405 -4.3998,-4.456 0,0 -10e-5,0 -2e-4,0 h -23.5 c -2.4455,0.0154 -4.4154,2.0104 -4.4,4.4558 0,0 0,1e-4 0,2e-4 v 0.7926 c -0.0039,0.6324 0.5056,1.1481 1.138,1.152 v 0 z"
       id="path6" />
    <rect
       x="31.177999"
       y="8.8870001"
       width="9.552"
       height="5.1550002"
       fill="none"
       stroke="#000000"
       stroke-linecap="round"
       stroke-linejoin="round"
       stroke-width="2"
       id="rect6" />
    <path
       fill="none"
       stroke="#000000"
       stroke-linecap="round"
       stroke-linejoin="round"
       stroke-width="2"
       d="M 40.71,11.54 C 49.8349,14.0098 56.1274,22.3476 56,31.8"
       id="path7" />
    <path
       fill="none"
       stroke="#000000"
       stroke-linecap="round"
       stroke-linejoin="round"
       stroke-width="2"
       d="M 31.18,11.57 C 22.1097,14.0787 15.8731,22.39 16,31.8"
       id="path8" />
    <line
       x1="16.0077"
       x2="17.0921"
       y1="31.823299"
       y2="31.823299"
       fill="none"
       stroke="#000000"
       stroke-linecap="round"
       stroke-linejoin="round"
       stroke-width="2"
       id="line8" />
    <line
       x1="54.9174"
       x2="56.001701"
       y1="31.8967"
       y2="31.8967"
       fill="none"
       stroke="#000000"
       stroke-linecap="round"
       stroke-linejoin="round"
       stroke-width="2"
       id="line9" />
  </g>
</svg>
