<?xml version="1.0" encoding="UTF-8" standalone="no"?>
<svg
   id="emoji"
   viewBox="0 0 62.599998 34.000004"
   version="1.1"
   sodipodi:docname="1faad.svg"
   width="62.599998"
   height="34.000004"
   xmlns:inkscape="http://www.inkscape.org/namespaces/inkscape"
   xmlns:sodipodi="http://sodipodi.sourceforge.net/DTD/sodipodi-0.dtd"
   xmlns="http://www.w3.org/2000/svg"
   xmlns:svg="http://www.w3.org/2000/svg">
  <defs
     id="defs23" />
  <sodipodi:namedview
     id="namedview23"
     pagecolor="#ffffff"
     bordercolor="#000000"
     borderopacity="0.25"
     inkscape:showpageshadow="2"
     inkscape:pageopacity="0.0"
     inkscape:pagecheckerboard="0"
     inkscape:deskcolor="#d1d1d1" />
  <g
     id="color"
     transform="translate(-5,-18.999997)">
    <path
       fill="#ea5a47"
       d="m 24.1,46.2 c -0.4,0.8 -0.7,1.6 -1,2.4 L 5,43.8 c 0.7,-2.4 1.7,-4.9 2.8,-7 z"
       id="path1" />
    <path
       fill="#ea5a47"
       d="m 28.7,41 c -0.6,0.4 -1.2,0.9 -1.7,1.4 L 13.8,29 c 1.7,-1.7 3.6,-3.1 5.7,-4.4 z"
       id="path2" />
    <path
       fill="#ea5a47"
       d="m 35.4,20.1 -0.1,18.7 c -0.8,0 -1.5,0.1 -2.2,0.3 L 28.3,20.9 c 2.4,-0.5 4.7,-0.8 7.1,-0.8 z"
       id="path3" />
    <path
       fill="#ea5a47"
       d="m 51.5,24.1 -9.3,16.3 c -0.7,-0.3 -1.4,-0.6 -2,-0.9 L 45,21.3 c 2.3,0.6 4.5,1.6 6.5,2.8 z"
       id="path4" />
    <path
       fill="#ea5a47"
       d="M 63.4735,35.9694 47.5,45.1 C 47.1,44.5 46.7,43.9 46.2,43.4 L 59.4,30.5 c 1.6,1.7 2.7735,3.3694 4.0735,5.4694 z"
       id="path5" />
    <path
       fill="#d22f27"
       d="m 66.3808,44.0643 -17.5079,4.3559 c -0.4,-1.4 -0.9,-2.6 -1.7,-3.7 l 15.945,-8.9731 c 1.7,2.5 3.2629,8.3172 3.2629,8.3172 z"
       id="path6" />
    <path
       fill="#d22f27"
       d="M 59.1392,30.1508 46.2549,43.1374 c -1.1,-1.3 -2.4,-2.3 -3.9,-3.1 l 9.1058,-15.9356 c 3,1.6 7.9746,5.9277 7.6785,6.0491 z"
       id="path7" />
    <path
       fill="#d22f27"
       d="M 44.9,21.3 40,39.5 C 38.7,39.1 37.4,38.8 35.9,38.8 H 35.2 L 35.3,20.1 H 36 c 3.1,0 6.1,0.4 8.9,1.2 z"
       id="path8" />
    <path
       fill="#d22f27"
       d="m 33.2,39.1 c -1.6,0.4 -3.1,1 -4.4,1.8 L 19.5,24.6 c 2.7,-1.7 5.7,-2.9 8.9,-3.7 z"
       id="path9" />
    <path
       fill="#d22f27"
       d="m 27,42.3 c -1.2,1.1 -2.2,2.4 -2.9,3.9 L 7.8,36.8 c 1.6,-2.8 3.6,-5.4 5.9,-7.7 z"
       id="path10" />
    <path
       fill="#ffffff"
       d="m 23.3105,48.6424 12.6573,3.6879 12.2384,-3.1065 c 1.0934,-0.2903 1.2803,-1.8214 0.3892,-2.5184 l -2.3209,-1.8155 -2.2801,-3.5462 -8.0802,-2.4905 -7.2604,2.6921"
       id="path11" />
  </g>
  <g
     id="line"
     transform="translate(-5,-18.999997)">
    <line
       x1="36.099998"
       x2="33.700001"
       y1="52"
       y2="43.099998"
       fill="none"
       stroke="#000000"
       stroke-linecap="round"
       stroke-linejoin="round"
       stroke-width="2"
       id="line11" />
    <line
       x1="36.099998"
       x2="43"
       y1="52"
       y2="45.200001"
       fill="none"
       stroke="#000000"
       stroke-linecap="round"
       stroke-linejoin="round"
       stroke-width="2"
       id="line12" />
    <line
       x1="36.099998"
       x2="38.5"
       y1="52"
       y2="42.900002"
       fill="none"
       stroke="#000000"
       stroke-linecap="round"
       stroke-linejoin="round"
       stroke-width="2"
       id="line13" />
    <line
       x1="36.099998"
       x2="29.200001"
       y1="52"
       y2="45.299999"
       fill="none"
       stroke="#000000"
       stroke-linecap="round"
       stroke-linejoin="round"
       stroke-width="2"
       id="line14" />
    <polyline
       fill="none"
       stroke="#000000"
       stroke-linecap="round"
       stroke-linejoin="round"
       stroke-width="2"
       points="27.1 49.7 36.1 52 45.3 49.9"
       id="polyline14" />
    <path
       fill="none"
       stroke="#000000"
       stroke-linecap="round"
       stroke-linejoin="round"
       stroke-width="2"
       d="M 66.6,44.6 48.5,49.1 C 47.5,43.2 42.4,38.7 36.2,38.7 30.1,38.7 25.1,43.1 24,48.8 L 6,44 C 9.2,30.3 21.5,20.0061 36.2,20 51.1333,19.9938 63.7203,30.4777 66.6,44.6"
       id="path14" />
    <line
       x1="9.1000004"
       x2="24.700001"
       y1="37.599998"
       y2="46.299999"
       fill="none"
       stroke="#000000"
       stroke-linecap="round"
       stroke-linejoin="round"
       stroke-width="2"
       id="line15" />
    <line
       x1="14.2"
       x2="26.700001"
       y1="29.700001"
       y2="42.099998"
       fill="none"
       stroke="#000000"
       stroke-linecap="round"
       stroke-linejoin="round"
       stroke-width="2"
       id="line16" />
    <line
       x1="19.9"
       x2="28.6"
       y1="25.5"
       y2="40.599998"
       fill="none"
       stroke="#000000"
       stroke-linecap="round"
       stroke-linejoin="round"
       stroke-width="2"
       id="line17" />
    <line
       x1="28.5"
       x2="33"
       y1="21.4"
       y2="38.5"
       fill="none"
       stroke="#000000"
       stroke-linecap="round"
       stroke-linejoin="round"
       stroke-width="2"
       id="line18" />
    <line
       x1="35.5"
       x2="35.400002"
       y1="20.700001"
       y2="38.099998"
       fill="none"
       stroke="#000000"
       stroke-linecap="round"
       stroke-linejoin="round"
       stroke-width="2"
       id="line19" />
    <line
       x1="44.799999"
       x2="40.299999"
       y1="21.9"
       y2="38.700001"
       fill="none"
       stroke="#000000"
       stroke-linecap="round"
       stroke-linejoin="round"
       stroke-width="2"
       id="line20" />
    <line
       x1="51.200001"
       x2="42.5"
       y1="24.6"
       y2="39.700001"
       fill="none"
       stroke="#000000"
       stroke-linecap="round"
       stroke-linejoin="round"
       stroke-width="2"
       id="line21" />
    <line
       x1="58.799999"
       x2="46.5"
       y1="30.6"
       y2="43"
       fill="none"
       stroke="#000000"
       stroke-linecap="round"
       stroke-linejoin="round"
       stroke-width="2"
       id="line22" />
    <line
       x1="62.700001"
       x2="47.799999"
       y1="36.200001"
       y2="45"
       fill="none"
       stroke="#000000"
       stroke-linecap="round"
       stroke-linejoin="round"
       stroke-width="2"
       id="line23" />
  </g>
</svg>
