<svg xmlns="http://www.w3.org/2000/svg" xmlns:svg="http://www.w3.org/2000/svg" id="emoji" width="50.607" height="48.567" version="1.1" viewBox="0 0 50.607 48.567"><g id="color" transform="translate(-11.351456,-10.082138)"><path id="path1" fill="#9b9b9a" stroke-width="0" d="m 21.3983,45.3113 c 0,0 -3.1232,-0.9157 -6.9678,3.2213 -3.2593,3.5072 -0.7076,6.4226 0.6759,7.6017 0.4634,0.3949 1.0362,0.6231 1.6437,0.6637 1.8777,0.1255 7.7714,0.25 7.7714,-4.0738 0,-4.1643 3.1232,-6.2464 5.2054,-6.2464 2.0822,0 7.9262,1.0307 8.6479,1.0359 0.7217,0.0052 3.7124,-0.9215 6.9681,-4.1591 3.2557,-3.2376 11.4518,-13.5339 11.4518,-13.5339 l -12.4928,9.3696 c 0,0 -3.1877,0.1939 -3.1232,-1.0411 0.0645,-1.235 1.0411,-1.0411 3.1232,-4.1643 2.0821,-3.1232 5.2054,-7.2875 5.2054,-7.2875 l -9.3696,7.2875 c 0,0 -3.5257,1.7696 -3.1232,-1.0411 0.4025,-2.8107 9.3696,-13.5339 9.3696,-13.5339 l -11.4518,9.3696 c 0,0 -3.3543,0.7918 -3.1232,-1.0411 0.2311,-1.8329 10.4107,-14.575 10.4107,-14.575 l -4.187,2.9083 c -0.2266,0.1574 -0.4451,0.3261 -0.6547,0.5054 l -4.3832,3.75 c -0.0964,0.0825 -0.1896,0.1687 -0.2794,0.2585 l -8.1939,8.1939 c -1.0411,1.0411 -2.0821,2.0821 -1.0411,8.3286 0.7654,4.5925 0,8.3286 -2.0821,8.2032 z"/><line id="line1" x1="37.014" x2="30.768" y1="17.328" y2="22.533" fill="none" stroke="#9b9b9a" stroke-linecap="round" stroke-miterlimit="10" stroke-width="2"/><circle id="circle1" cx="18.275" cy="51.683" r="2.082" fill="#fff" stroke-width="0"/></g><g id="line" transform="translate(-11.351456,-10.082138)"><circle id="circle2" cx="18.275" cy="51.683" r="2.082" fill="none" stroke="#000" stroke-miterlimit="10" stroke-width="2"/><path id="path2" fill="none" stroke="#000" stroke-linecap="round" stroke-linejoin="round" stroke-width="2" d="m 30.7679,22.5331 -6.2353,6.2353 c -0.8032,0.8032 -1.313,1.847 -1.4608,2.9732 -0.1768,1.3468 -0.2203,3.2528 0.4086,5.2251 1.0411,3.2646 0,5.3468 0,5.3468 0,0 -1.0411,3.1232 -4.1643,3.1232 -7.2875,0 -9.1787,8.9445 -4.1643,11.4518 4.0012,2.0006 8.9635,0.1567 10.2696,-6.4552 0.1714,-0.8678 0.4858,-1.7144 1.0521,-2.3939 0.6507,-0.7808 1.6917,-1.5616 3.2533,-1.5616 3.1232,0 5.2054,1.0411 7.2875,1.0411 3.1232,0 5.2054,-1.0411 7.2875,-3.1232 3.1232,-3.1232 16.6571,-17.6982 16.6571,-17.6982 v 0 L 43.4242,39.075 c -0.1084,0.0765 -0.2274,0.1367 -0.3533,0.1787 l -0.0444,0.0148 c -1.1903,0.3968 -2.3227,-0.7357 -1.926,-1.926 v 0 c 0.0516,-0.1547 0.133,-0.2976 0.2398,-0.4208 L 54.7125,21.4922 39.2903,33.8299 c -0.1289,0.1031 -0.2683,0.1923 -0.416,0.2662 l -0.1007,0.0504 c -1.2694,0.6347 -2.628,-0.6864 -2.0292,-1.9731 l 0.004,-0.0085 c 0.0705,-0.1514 0.162,-0.292 0.272,-0.4176 L 50.5483,16.2869 v 0 c 0,0 -16.1857,12.1392 -16.1857,12.1392 -0.3123,0.2342 -0.6602,0.4165 -1.0305,0.54 v 0 c -1.0565,0.3522 -2.0616,-0.6529 -1.7094,-1.7094 v 0 c 0.123,-0.3691 0.3175,-0.7104 0.5723,-1.0044 L 45.3429,11.0816 37.0143,17.328"/></g></svg>