<svg xmlns="http://www.w3.org/2000/svg" xmlns:svg="http://www.w3.org/2000/svg" id="emoji" width="49.204" height="49.204" version="1.1" viewBox="0 0 49.204 49.204"><g id="color" transform="translate(-11.3055,-11.3517)"><g id="color-2"><rect id="rect1" width="47.236" height="47.236" x="11.896" y="12.336" fill="#b399c8"/></g></g><g id="line" transform="translate(-11.3055,-11.3517)"><rect id="rect2" width="47.236" height="47.236" x="12.29" y="12.336" fill="none" stroke="#000" stroke-linecap="round" stroke-linejoin="round" stroke-width="1.968"/><polyline id="polyline2" fill="none" stroke="#000" stroke-linecap="round" stroke-linejoin="round" stroke-width="1.968" points="35.908 54.947 35.908 49.042 35.908 48.648 35.908 45.106"/><path id="path2" fill="none" stroke="#000" stroke-linecap="round" stroke-linejoin="round" stroke-width="1.968" d="m 40.4343,46.2866 c 0.5904,1.1809 2.2634,4.5268 2.9522,5.9045 4.5268,-3.8379 9.5456,-9.152 9.5456,-14.1708 0,-5.0188 -2.2634,-9.644 -5.8061,-12.5962 1.5745,2.165 2.3618,4.7236 2.3618,7.5774 v 0.3936 c -0.2952,4.1331 -4.5268,8.7583 -8.2663,11.9074 -0.2952,0.2952 -0.5904,0.492 -0.7873,0.6889 l -4.0347,3.1491 -0.1968,0.1968 -4.0347,3.2475"/><path id="path3" fill="none" stroke="#000" stroke-linejoin="round" stroke-width="1.968" d="m 38.171,30.2461 c -0.0984,3.7395 0,6.6918 0.3936,9.644 0.0984,0.492 0.0984,0.8857 0.1968,1.3777 0.0984,0.6889 0.1968,1.3777 0.2952,1.9682 -1.8698,1.2793 -3.0507,2.0666 -3.0507,2.0666 0,0 -1.1809,-0.7873 -2.8538,-2.0666 0.0984,-0.6889 0.1968,-1.3777 0.2952,-1.9682 0.0984,-0.3936 0.0984,-0.8857 0.1968,-1.2793 0.2952,-2.8538 0.492,-5.9045 0.3936,-9.644 -0.0984,-3.4443 -0.3936,-5.2156 -0.7873,-7.2822 -0.0984,-0.2952 -0.0984,-0.6889 -0.1968,-0.9841 -0.1968,-0.6889 -0.2952,-1.3777 -0.492,-2.165 l 3.5427,-2.3618 3.5427,2.3618 c -0.1968,0.7873 -0.3936,1.5745 -0.492,2.165 -0.0984,0.3936 -0.1968,0.6889 -0.1968,0.9841 -0.492,1.8698 -0.6889,3.7395 -0.7873,7.1838 z"/><path id="path4" fill="none" stroke="#000" stroke-linecap="round" stroke-miterlimit="10" stroke-width="1.968" d="m 33.9394,30.2461 c 0.0984,3.7395 0,6.7902 -0.3936,9.644 -3.7395,-1.0825 -6.4949,-4.4284 -6.4949,-8.5615 0,-3.9363 2.5586,-7.1838 6.0029,-8.3647 0.492,1.9682 0.7873,3.8379 0.8857,7.2822 z"/><path id="path5" fill="none" stroke="#000" stroke-linecap="round" stroke-miterlimit="10" stroke-width="1.968" d="m 44.8627,31.3286 c 0,4.0347 -2.657,7.3806 -6.2981,8.4631 -0.2952,-2.8538 -0.492,-5.9045 -0.3936,-9.644 0.0984,-3.4443 0.3936,-5.314 0.7873,-7.1838 3.4443,1.2793 5.9045,4.5268 5.9045,8.3647 z"/><path id="path6" fill="none" stroke="#000" stroke-linecap="round" stroke-linejoin="round" stroke-width="1.968" d="M 39.6471,52.388 35.6124,49.1405 35.4156,48.9437 31.3809,45.7946 C 31.0857,45.5978 30.7905,45.401 30.5936,45.1057 26.9525,41.9566 22.6225,37.3315 22.3273,33.1983 v -0.3936 c 0,-2.8538 0.7873,-5.4125 2.3618,-7.5774 -3.4443,3.0507 -5.8061,7.5774 -5.8061,12.5962 0,5.0188 5.0188,10.3329 9.5456,14.1708 0.6889,-1.3777 2.3618,-4.6252 2.9522,-5.9045"/></g></svg>