<?xml version="1.0" encoding="UTF-8" standalone="no"?>
<svg
   id="emoji"
   viewBox="0 0 50.82 37.858799"
   version="1.1"
   sodipodi:docname="1faba.svg"
   width="50.82"
   height="37.858799"
   xmlns:inkscape="http://www.inkscape.org/namespaces/inkscape"
   xmlns:sodipodi="http://sodipodi.sourceforge.net/DTD/sodipodi-0.dtd"
   xmlns="http://www.w3.org/2000/svg"
   xmlns:svg="http://www.w3.org/2000/svg">
  <defs
     id="defs14" />
  <sodipodi:namedview
     id="namedview14"
     pagecolor="#ffffff"
     bordercolor="#000000"
     borderopacity="0.25"
     inkscape:showpageshadow="2"
     inkscape:pageopacity="0.0"
     inkscape:pagecheckerboard="0"
     inkscape:deskcolor="#d1d1d1" />
  <g
     id="color"
     transform="translate(-10.5905,-18.3832)">
    <path
       fill="#a57939"
       d="m 11.5905,31.688 c 0,-6.7958 10.9285,-12.3048 24.41,-12.3048 13.4815,0 24.41,5.509 24.41,12.3048 v 1.0556 c 0,5.6918 -2.0093,12.49 -5.0625,16.3445 -3.0887,3.8978 -9.5935,6.1539 -19.348,6.1539 -9.7545,0 -15.8538,-1.8262 -19.347,-6.1539 -3.0884,-3.8263 -5.0625,-9.6808 -5.0625,-16.3445 z"
       id="path1" />
    <path
       fill="#6a462f"
       d="m 56.616,47.215 c 0,2.1079 -7.3333,8.027 -17.6307,8.027 -10.2974,0 -18.6453,-1.7089 -18.6453,-3.8168 0,-2.1079 7.4581,0.6442 19.3909,-1.3738 C 49.8844,48.3343 56.616,45.1071 56.616,47.215 Z"
       id="path2" />
    <g
       id="line-2">
      <path
         fill="#ffffff"
         d="m 30.1896,39.9811 c -0.5807,-1.2291 -0.8903,-2.6807 -0.8903,-4.2194 0,-3.2033 1.3258,-6.5034 3.4936,-8.1002 0.842,-0.629 1.8194,-0.9968 2.8936,-0.9968 1.5291,0 2.8646,0.7452 3.9098,1.9258 1.5581,1.7613 2.4871,4.5001 2.4871,7.1711 0,1.5775 -0.329,3.0678 -0.9484,4.3259"
         id="path3" />
    </g>
    <g
       id="line-2-2">
      <path
         fill="#ffffff"
         d="m 22.0701,36.8553 c -0.3774,-1.0452 -0.571,-2.2065 -0.571,-3.4259 0,-4.4614 2.5646,-9.097 6.3969,-9.097 2.071,0 3.7743,1.3645 4.8969,3.3291 l -3.628,12.4261 z"
         id="path4" />
    </g>
    <g
       id="line-2-3">
      <path
         fill="#ffffff"
         d="m 48.0352,38.065 0.0097,-0.0097 c 2.7968,-3.1646 3.9581,-7.8486 1.4033,-10.4131 -2.4097,-2.4097 -6.7066,-1.5097 -9.8518,0.9484 l 0.5354,11.497 7.9035,-2.0226 z"
         id="path5" />
    </g>
    <path
       fill="#d0cfce"
       d="m 31.1051,25.573 c -5.0101,4.9391 -5.1766,10.2623 -3.8755,13.721 l 3.6002,1.0064 -1.2569,-5.7734 2.9144,-6.5852 z"
       id="path6" />
    <path
       fill="#d0cfce"
       d="m 37.9326,27.8259 c 2.8534,3.1015 -0.3711,12.4745 -0.3711,12.4745 l 3.2281,-0.3812 1.0281,-5.5714 -1.3209,-4.1974 z"
       id="path7" />
    <path
       fill="#d0cfce"
       d="M 41.8177,40.0876 47.223,38.5777 50.769,32.52 49.8097,29.4395 c -0.9535,7.4157 -7.7263,7.606 -7.7263,7.606 z"
       id="path8" />
  </g>
  <g
     id="line"
     transform="translate(-10.5905,-18.3832)">
    <path
       fill="none"
       stroke="#000000"
       stroke-linecap="round"
       stroke-linejoin="round"
       stroke-width="2"
       d="m 52.3244,33.688 c 0,3.8911 -7.3087,7.0454 -16.3244,7.0454 -9.0157,0 -16.3244,-3.1543 -16.3244,-7.0454"
       id="path9" />
    <path
       fill="none"
       stroke="#000000"
       stroke-linecap="round"
       stroke-linejoin="round"
       stroke-width="2"
       d="m 53.3015,42.5287 c -1.5841,2.241 -5.687,4.008 -10.885,4.6863"
       id="path10" />
    <path
       fill="none"
       stroke="#000000"
       stroke-linecap="round"
       stroke-linejoin="round"
       stroke-width="2"
       d="m 11.5905,31.688 c 0,-6.7958 10.9285,-12.3048 24.41,-12.3048 13.4815,0 24.41,5.509 24.41,12.3048 v 1.0556 c 0,5.6918 -2.0093,12.49 -5.0625,16.3445 -3.0887,3.8978 -9.5935,6.1539 -19.348,6.1539 -9.7545,0 -15.8538,-1.8262 -19.347,-6.1539 -3.0884,-3.8263 -5.0625,-9.6808 -5.0625,-16.3445 z"
       id="path11" />
    <g
       id="line-2-4">
      <path
         fill="none"
         stroke="#000000"
         stroke-linecap="round"
         stroke-linejoin="round"
         stroke-width="2"
         d="m 30.1896,39.9811 c -0.5807,-1.2291 -0.8903,-2.6807 -0.8903,-4.2194 0,-3.2033 1.3258,-6.5034 3.4936,-8.1002 0.842,-0.629 1.8194,-0.9968 2.8936,-0.9968 1.5291,0 2.8646,0.7452 3.9098,1.9258 1.5581,1.7613 2.4871,4.5001 2.4871,7.1711 0,1.5775 -0.329,3.0678 -0.9484,4.3259"
         id="path12" />
    </g>
    <g
       id="line-2-5">
      <path
         fill="none"
         stroke="#000000"
         stroke-linecap="round"
         stroke-linejoin="round"
         stroke-width="2"
         d="m 22.2547,37.3126 c -0.3774,-1.0452 -0.7556,-2.6638 -0.7556,-3.8832 0,-4.4614 2.5646,-9.097 6.3969,-9.097 2.071,0 3.7743,1.3645 4.8969,3.3291"
         id="path13" />
    </g>
    <g
       id="line-2-6">
      <path
         fill="none"
         stroke="#000000"
         stroke-linecap="round"
         stroke-linejoin="round"
         stroke-width="2"
         d="m 47.859,38.4898 c 2.7968,-3.1646 4.144,-8.2831 1.5891,-10.8477 -2.4097,-2.4097 -6.7066,-1.5097 -9.8518,0.9484"
         id="path14" />
    </g>
  </g>
</svg>
