<svg xmlns="http://www.w3.org/2000/svg" xmlns:svg="http://www.w3.org/2000/svg" id="emoji" width="39.607" height="51.151" version="1.1" viewBox="0 0 39.607 51.151"><g id="color" transform="translate(-16.153901,-9.9781544)"><rect id="rect1" width="3.382" height="4.416" x="38.918" y="33.812" fill="#fff" rx=".803" ry=".803"/><rect id="rect2" width="3.382" height="4.416" x="28.639" y="33.668" fill="#fff" rx=".803" ry=".803"/><path id="path2" fill="#f4aa41" d="M 42.2688,60.9583 H 28.6752 c -0.4066,-2e-4 -0.7532,-0.2951 -0.8187,-0.6964 l -2.4489,-15.05 c -0.0735,-0.452 0.2334,-0.8779 0.6853,-0.9514 2e-4,0 5e-4,0 7e-4,-1e-4 0.4526,-0.0737 18.3067,-0.0745 18.7569,0 0.452,0.0732 0.7592,0.4989 0.686,0.9509 0,2e-4 0,4e-4 0,6e-4 l -2.4488,15.05 c -0.0655,0.4014 -0.4121,0.6962 -0.8188,0.6964 z"/><path id="path3" fill="#ea5a47" d="M 47.7634,45.9079 H 23.1806 c -0.4577,2e-4 -0.829,-0.3707 -0.8292,-0.8284 v -5.1481 c -2e-4,-0.4577 0.3707,-0.829 0.8284,-0.8292 h 24.5836 c 0.4577,-3e-4 0.829,0.3706 0.8293,0.8283 v 5.1481 c 3e-4,0.4577 -0.3706,0.829 -0.8283,0.8293 z"/><path id="path4" fill="#5c9e31" d="m 35.2717,32.3523 c -0.4262,-4e-4 -0.8054,-0.2709 -0.9444,-0.6738 -1.2588,-3.6514 -13.1757,-11.21 -17.6611,-13.8144 -0.4777,-0.2772 -0.6402,-0.8891 -0.3631,-1.3668 0.0866,-0.1492 0.2103,-0.2735 0.3592,-0.3608 3.188,-1.8011 7.0204,-2.0604 10.4219,-0.7051 l 0.0175,0.0088 c 8.8291,4.1338 9.1612,15.4131 9.1709,15.8916 0.0101,0.4922 -0.3396,0.9185 -0.8242,1.0049 -0.0583,0.0105 -0.1174,0.0157 -0.1767,0.0156 z"/><path id="path5" fill="#b1cc33" d="m 50.0949,12.8416 c 0.4594,-0.308 0.5821,-0.93 0.2742,-1.3894 -0.0835,-0.1245 -0.1939,-0.2287 -0.323,-0.3049 C 45.8962,8.942 40.7664,9.9747 37.7932,13.6141 32.942,19.0741 34.0543,27.6671 34.3754,29.5777 32.05,27.86 27.3221,25.2581 21.98,27.4031 c -0.0127,0.0049 -0.0254,0.01 -0.0371,0.0156 -0.1719,0.0762 -4.2041,1.9356 -4.2608,6.3428 -0.0073,0.5519 0.4341,1.0053 0.986,1.0126 0.0047,0 0.0093,0 0.014,0 0.0891,0 0.1777,-0.0119 0.2637,-0.0351 0.1082,-0.0293 10.8372,-2.9316 16.073,-2.1958 l 0.0163,0.0019 0.0123,0.0015 c 0.0587,0.0045 0.1177,0.0038 0.1762,-0.0023 0.0408,0.0024 0.0818,0.0022 0.1226,-7e-4 l 0.01,-0.0012 0.01,-0.0011 c 4.8706,-0.7582 13.4261,1.5561 13.5129,1.5795 0.086,0.0232 0.1746,0.035 0.2637,0.0351 0.5519,3e-4 0.9995,-0.4469 0.9998,-0.9988 0,-0.0766 -0.0087,-0.153 -0.0262,-0.2277 -0.8019,-2.9072 -3.2561,-5.0589 -6.2432,-5.4736 h -9e-4 c -2.6292,-0.2871 -5.2731,0.3906 -7.44,1.9071 0.174,-7.4212 13.5253,-16.4302 13.6626,-16.5214 z"/><path id="path6" fill="#5c9e31" d="m 35.1935,31.323 c -0.5523,-4e-4 -0.9996,-0.4485 -0.9992,-1.0008 0,-0.109 0.018,-0.2172 0.053,-0.3204 0.123,-0.3614 3.082,-8.8575 10.2128,-11.3184 v 0 c 7.4122,-2.5606 11.0938,3.1465 11.1309,3.2041 0.2932,0.4684 0.1512,1.0858 -0.3172,1.3791 -0.1326,0.083 -0.2829,0.1338 -0.4388,0.1482 -4.3261,0.4 -16.1289,2.5069 -18.7607,7.3828 -0.1746,0.3239 -0.513,0.5257 -0.8809,0.5254 z m 9.5928,-11.6943 z"/><path id="path7" fill="#a57939" d="m 31.19,39.1022 v -1.32 c 0.0045,-1.1162 0.4746,-2.1798 1.2969,-2.9345 -0.1952,-0.4024 -0.2968,-0.8438 -0.2969,-1.2911 0,-1.6569 1.3431,-3 3,-3 1.6569,0 3,1.3431 3,3 -10e-5,0.4473 -0.1016,0.8887 -0.2968,1.2911 0.8224,0.7546 1.2925,1.8182 1.2968,2.9343 v 1.32 z"/></g><g id="line" transform="translate(-16.153901,-9.9781544)"><rect id="rect7" width="24.583" height="5.147" x="23.181" y="39.931" fill="none" stroke="#000" stroke-linecap="round" stroke-linejoin="round" stroke-width="2"/><polyline id="polyline7" fill="none" stroke="#000" stroke-linecap="round" stroke-linejoin="round" stroke-width="2" points="26.678 47.853 28.675 60.129 42.269 60.129 44.266 47.853"/><path id="path8" fill="none" stroke="#000" stroke-linecap="round" stroke-linejoin="round" stroke-width="2" d="m 38.1376,37.2208 c -0.1831,-0.9379 -0.8014,-1.7327 -1.6655,-2.1408 0.848,-0.7078 0.9617,-1.969 0.2539,-2.817 -0.7078,-0.848 -1.969,-0.9617 -2.817,-0.2539 -0.848,0.7078 -0.9617,1.969 -0.2539,2.817 0.0769,0.0921 0.1618,0.1771 0.2539,0.2539 -0.8673,0.4096 -1.4869,1.2088 -1.6674,2.1509"/><path id="path9" fill="none" stroke="#000" stroke-linecap="round" stroke-linejoin="round" stroke-width="2" d="m 41.8864,31.7085 c 2.453,0.3379 4.8835,0.8226 7.2784,1.4515 -0.7188,-2.5052 -2.8456,-4.3522 -5.4268,-4.7128 -4.4986,-0.7141 -8.5255,3.1133 -8.5255,3.1133"/><path id="path10" fill="none" stroke="#000" stroke-linecap="round" stroke-linejoin="round" stroke-width="2" d="m 35.2585,31.3474 c 0,0 -0.2277,-11.089 -8.5947,-15.0072 -3.108,-1.2167 -6.5975,-0.977 -9.51,0.653 4.0046,2.3534 7.8824,4.9162 11.6173,7.6777"/><path id="path11" fill="none" stroke="#000" stroke-linecap="round" stroke-linejoin="round" stroke-width="2" d="m 35.1953,31.5564 c 0,0 -5.9594,-5.9847 -12.8388,-3.2258 0,0 -3.6211,1.6242 -3.67,5.4432 3.5205,-0.9345 7.0981,-1.639 10.71,-2.1093"/><path id="path12" fill="none" stroke="#000" stroke-linecap="round" stroke-linejoin="round" stroke-width="2" d="m 35.2122,30.3226 c 3.4659,-6.4211 19.5492,-7.9037 19.5492,-7.9037 0,0 -3.2069,-5.12 -9.9567,-2.7906"/><path id="path13" fill="none" stroke="#000" stroke-linecap="round" stroke-linejoin="round" stroke-width="2" d="M 35.4193,29.7723 C 35.1153,21.6311 49.5322,12.01 49.5322,12.01 c -3.7338,-1.9917 -8.357,-1.0382 -10.9982,2.2682 -1.2157,1.4059 -2.1149,3.0568 -2.6366,4.8407"/></g></svg>