<?xml version="1.0" encoding="UTF-8" standalone="no"?>
<svg
   id="emoji"
   viewBox="0 0 41.778034 45.579002"
   version="1.1"
   sodipodi:docname="1fabb.svg"
   width="41.778034"
   height="45.579002"
   xmlns:inkscape="http://www.inkscape.org/namespaces/inkscape"
   xmlns:sodipodi="http://sodipodi.sourceforge.net/DTD/sodipodi-0.dtd"
   xmlns="http://www.w3.org/2000/svg"
   xmlns:svg="http://www.w3.org/2000/svg">
  <defs
     id="defs17" />
  <sodipodi:namedview
     id="namedview17"
     pagecolor="#ffffff"
     bordercolor="#000000"
     borderopacity="0.25"
     inkscape:showpageshadow="2"
     inkscape:pageopacity="0.0"
     inkscape:pagecheckerboard="0"
     inkscape:deskcolor="#d1d1d1" />
  <g
     id="color"
     transform="translate(-15.022818,-15.326596)">
    <g
       id="g7">
      <g
         id="g2">
        <circle
           cx="42.955399"
           cy="36.240101"
           r="4.6578002"
           fill="#8967aa"
           id="circle1" />
        <circle
           cx="37.121101"
           cy="31.119101"
           r="4.6578002"
           fill="#b399c8"
           id="circle2" />
      </g>
      <g
         id="g4">
        <circle
           cx="51.148998"
           cy="26.905199"
           r="4.6578002"
           fill="#8967aa"
           id="circle3" />
        <circle
           cx="45.314701"
           cy="21.784201"
           r="4.6578002"
           fill="#b399c8"
           id="circle4" />
      </g>
      <circle
         cx="50.7939"
         cy="20.396"
         r="4.0756001"
         fill="#b399c8"
         id="circle5" />
      <g
         id="g6">
        <circle
           cx="47.0522"
           cy="31.572599"
           r="6.2104001"
           fill="#b399c8"
           id="circle6" />
        <path
           fill="#8967aa"
           d="m 36.083,22.9575 c 0.1417,-0.2076 0.2975,-0.4089 0.4675,-0.6026 2.2626,-2.5778 6.1865,-2.8333 8.7642,-0.5707 2.5778,2.2626 2.8333,6.1865 0.5707,8.7642 -2.2626,2.5777 -6.1865,2.8333 -8.7642,0.5707 -2.3841,-2.0926 -2.7817,-5.6061 -1.0381,-8.1616"
           id="path6" />
      </g>
      <circle
         cx="42.853199"
         cy="31.502199"
         r="4.0756001"
         fill="#8967aa"
         id="circle7" />
    </g>
    <path
       fill="#b1cc33"
       d="m 24.3025,37.0053 c 2.7895,3.4142 1.96,8.708 1.96,8.708 0,0 -5.3525,-0.2425 -8.1427,-3.6566 -2.7902,-3.4142 -1.96,-8.708 -1.96,-8.708 0,0 5.3532,0.2453 8.1427,3.6566 z"
       id="path7" />
  </g>
  <g
     id="line"
     transform="translate(-15.022818,-15.326596)">
    <path
       fill="none"
       stroke="#000000"
       stroke-linecap="round"
       stroke-linejoin="round"
       stroke-width="2"
       d="m 24.3025,36.7998 c 2.7895,3.4142 1.96,8.708 1.96,8.708 0,0 -5.3525,-0.2425 -8.1427,-3.6566 -2.7902,-3.4142 -1.96,-8.708 -1.96,-8.708 0,0 5.3532,0.2453 8.1427,3.6566 z"
       id="path8" />
    <g
       id="g15">
      <path
         fill="none"
         stroke="#000000"
         stroke-linecap="round"
         stroke-linejoin="round"
         stroke-width="2"
         d="m 39.7837,34.9422 c -1.7171,1.1979 -4.0912,1.1205 -5.7352,-0.3225 -1.4478,-1.2708 -1.9189,-3.2403 -1.3515,-4.9614"
         id="path9" />
      <path
         fill="none"
         stroke="#000000"
         stroke-linecap="round"
         stroke-linejoin="round"
         stroke-width="2"
         d="m 46.4228,17.2592 c 0.7054,0.1721 1.3809,0.5123 1.9644,1.0244 0.4245,0.3726 0.7651,0.8053 1.0201,1.2742"
         id="path10" />
      <path
         fill="none"
         stroke="#000000"
         stroke-linecap="round"
         stroke-linejoin="round"
         stroke-width="2"
         d="m 52.4265,16.6606 c 0.3751,0.1641 0.7317,0.3879 1.0559,0.6724 1.6917,1.4848 1.8593,4.0599 0.3745,5.7515 -0.5568,0.6344 -1.2669,1.0544 -2.0263,1.2534"
         id="path11" />
      <path
         fill="none"
         stroke="#000000"
         stroke-linecap="round"
         stroke-linejoin="round"
         stroke-width="2"
         d="m 51.9278,27.7242 c 1.8246,2.3061 1.8009,5.6563 -0.2082,7.9452 -1.9392,2.2093 -5.0987,2.7128 -7.5852,1.3871"
         id="path12" />
      <path
         fill="none"
         stroke="#000000"
         stroke-linecap="round"
         stroke-linejoin="round"
         stroke-width="2"
         d="m 35.1695,25.037 c 0.2244,-0.9633 0.6828,-1.8868 1.3809,-2.6821 2.2626,-2.5778 6.1865,-2.8333 8.7642,-0.5707 0.6585,0.578 1.1654,1.2643 1.5175,2.0089"
         id="path13" />
      <path
         fill="none"
         stroke="#000000"
         stroke-linecap="round"
         stroke-linejoin="round"
         stroke-width="2"
         d="M 36.1224,30.0045 C 34.9885,28.3809 34.7101,26.3163 35.3303,24.4707"
         id="path14" />
      <path
         fill="none"
         stroke="#000000"
         stroke-linecap="round"
         stroke-linejoin="round"
         stroke-width="2"
         d="m 43.6893,27.5126 c 0.6654,0.1388 1.3051,0.4462 1.8524,0.9266 1.6917,1.4848 1.8593,4.0599 0.3745,5.7515"
         id="path15" />
    </g>
    <path
       fill="none"
       stroke="#000000"
       stroke-linecap="round"
       stroke-linejoin="round"
       stroke-width="2"
       d="m 54.2215,23.4046 c -0.1262,-0.1108 -0.2668,-0.1915 -0.401,-0.2862 0.0113,-0.0126 0.0252,-0.0212 0.0364,-0.0339 1.4848,-1.6917 1.3171,-4.2667 -0.3745,-5.7515 -1.6916,-1.4848 -4.2667,-1.3171 -5.7515,0.3745 -0.0197,0.0225 -0.0318,0.0485 -0.0509,0.0713 -1.89,-1.1185 -4.3643,-0.7779 -5.8659,0.9328 -0.4082,0.4651 -0.701,0.9904 -0.8928,1.541 -1.6232,0.0778 -3.2142,0.7845 -4.3708,2.1023 -1.1567,1.3178 -1.6512,2.987 -1.5178,4.6066 -0.5211,0.2615 -1.0039,0.6199 -1.4121,1.085 -1.697,1.9333 -1.5053,4.8762 0.428,6.5732 1.2191,1.0701 2.8387,1.3856 4.2952,0.9905 -0.2028,1.4954 0.32,3.0604 1.5391,4.1304 1.9333,1.697 4.8763,1.5053 6.5732,-0.428 0.4082,-0.4651 0.701,-0.9904 0.8928,-1.541 1.6232,-0.0778 3.2142,-0.7845 4.3709,-2.1023 1.1567,-1.3178 1.6511,-2.9871 1.5178,-4.6066 0.5211,-0.2615 1.0039,-0.6199 1.4122,-1.085 1.6969,-1.9333 1.5053,-4.8762 -0.428,-6.5732 z"
       id="path16" />
    <path
       fill="none"
       stroke="#000000"
       stroke-linecap="round"
       stroke-linejoin="round"
       stroke-width="2"
       d="m 35.26,39.1706 c -3.438,3.548 -7.676,10.246 -5.829,20.735"
       id="path17" />
  </g>
</svg>
