<?xml version="1.0" encoding="UTF-8" standalone="no"?>
<svg
   id="emoji"
   viewBox="0 0 40.27557 50.000065"
   version="1.1"
   sodipodi:docname="1fabd.svg"
   width="40.27557"
   height="50.000065"
   xmlns:inkscape="http://www.inkscape.org/namespaces/inkscape"
   xmlns:sodipodi="http://sodipodi.sourceforge.net/DTD/sodipodi-0.dtd"
   xmlns="http://www.w3.org/2000/svg"
   xmlns:svg="http://www.w3.org/2000/svg">
  <defs
     id="defs5" />
  <sodipodi:namedview
     id="namedview5"
     pagecolor="#ffffff"
     bordercolor="#000000"
     borderopacity="0.25"
     inkscape:showpageshadow="2"
     inkscape:pageopacity="0.0"
     inkscape:pagecheckerboard="0"
     inkscape:deskcolor="#d1d1d1" />
  <g
     id="color"
     transform="translate(-15.904788,-10.999937)">
    <path
       fill="#d0cfce"
       stroke="#d0cfce"
       stroke-linecap="round"
       stroke-linejoin="round"
       stroke-width="2"
       d="M 51.21,22.55 C 53,25 53,31 49,33 c 0.57,1.33 0.81,2.51 0.81,3.56 0,4.49 -4.34,6.59 -5.81,7.44 1.39,3.14 0.04,7.24 -3,9 L 28,60 18,42 C 15.91,38.37 16.84,33.63 20.47,31.54 L 54,12 c 1.05,1.81 3,7 -2.79,10.55 z"
       id="path1" />
    <path
       fill="#ffffff"
       d="m 18,42 6.6635,11.983 C 28,54 32.284,52.0381 34,49 c 10,1 12,-8 10,-13 4,-2 4,-10 3,-11 4,-3 2.4207,-8.8948 2,-10 L 20,32 c -3.63,2.1 -4.09,6.37 -2,10 z"
       id="path2" />
  </g>
  <g
     id="line"
     transform="translate(-15.904788,-10.999937)">
    <path
       fill="none"
       stroke="#000000"
       stroke-linecap="round"
       stroke-linejoin="round"
       stroke-width="2"
       d="M 51.2095,22.5533 C 53,25 53,31 49,33 l -9,5"
       id="path3" />
    <path
       fill="none"
       stroke="#000000"
       stroke-linecap="round"
       stroke-linejoin="round"
       stroke-width="2"
       d="m 41,53 c 3.043,-1.7569 4.3855,-5.8565 3,-9 v 0 c 1.814,-1.0473 8,-4 5,-11"
       id="path4" />
    <path
       fill="none"
       stroke="#000000"
       stroke-linecap="round"
       stroke-linejoin="round"
       stroke-width="2"
       d="M 32,51 C 38,48 33.1532,41.2151 28.0575,44.6832 32,42 33,38 30.8353,34.3163 L 51.2095,22.5532 C 57,18.9999 55.0473,13.8139 54,11.9999 L 20.4684,31.5386 C 16.8405,33.6332 15.9054,38.3721 18,42 l 10,18"
       id="path5" />
  </g>
</svg>
