<svg xmlns="http://www.w3.org/2000/svg" xmlns:svg="http://www.w3.org/2000/svg" id="emoji" width="50.373" height="52.287" version="1.1" viewBox="0 0 50.373 52.287"><g id="color" transform="translate(-10.808201,-12.5195)"><path id="path1" fill="#3f3f3f" d="m 40.2451,32.9176 h -8.5328 c 3.2564,11.704 -1.0771,20.0171 -1.0771,20.0171 l 1.1848,2.0015 c 0.5108,0.8526 2.3242,3.6358 4.18,3.6358 1.8457,0 3.7158,-2.7725 4.2451,-3.6211 l 1.1885,-1.8978 c 0,0 -3.8923,-7.5849 -1.1885,-20.1355 z"/><path id="path2" fill="#d22f27" d="m 29.9766,22.8725 a 5.0792,5.0792 0 1 1 5.1463,-5.0787 5.1185,5.1185 0 0 1 -5.1463,5.0787 z"/><path id="path3" fill="#d22f27" d="m 35.8391,17.775 a 5.161,5.161 0 1 1 5.16,5.0665 5.1194,5.1194 0 0 1 -5.16,-5.0665 z"/><path id="path4" fill="#d0cfce" d="m 17.6953,60.0554 a 7.809,7.809 0 0 1 -3.9014,-0.9209 5.7966,5.7966 0 0 1 -2.8457,-3.9756 c -0.3447,-1.2315 -1.4648,-9.1963 17.61,-30.9307 a 1.018,1.018 0 0 1 0.9238,-0.3262 1,1 0 0 1 0.7588,0.62 63.5309,63.5309 0 0 1 3.4727,13.9316 c 0.855,7.0692 -0.1541,12.4784 -2.93,15.968 a 11.2475,11.2475 0 0 1 -4.22,3.27 22.3942,22.3942 0 0 1 -8.8682,2.3638 z"/><path id="path5" fill="#d0cfce" d="M 54.2939,60.0554 A 22.3764,22.3764 0 0 1 45.4268,57.6921 C 39.5488,55.029 37.0752,48.3767 38.2754,38.4538 a 63.5591,63.5591 0 0 1 3.4726,-13.9316 1,1 0 0 1 0.7579,-0.62 1.0123,1.0123 0 0 1 0.9248,0.3262 c 19.0752,21.7344 17.955,29.6992 17.61,30.9307 a 5.7962,5.7962 0 0 1 -2.8457,3.9756 7.8087,7.8087 0 0 1 -3.9011,0.9207 z"/><path id="path6" d="m 35.5107,34.5954 h -7e-4 c -0.0254,0 -0.0889,-0.002 -0.1153,-0.0039 -4.2832,-0.2041 -6.8183,-4.4844 -7.5039,-12.7227 a 4.4428,4.4428 0 0 1 1.01,-3.2841 c 1.916,-2.2891 5.8418,-2.4053 6.6094,-2.4053 h 0.97 c 0.7676,0 4.6943,0.1162 6.6094,2.4053 A 4.4424,4.4424 0 0 1 44.1,21.8679 c -0.6885,8.2392 -3.2236,12.52 -7.5342,12.7255 z"/></g><g id="line" transform="translate(-10.808201,-12.5195)"><path id="path7" fill="none" stroke="#000" stroke-linecap="round" stroke-linejoin="round" stroke-width="2" d="m 39.3963,54.4212 c 0,0 -1.9625,3.1506 -3.3963,3.1506 -1.4338,0 -3.322,-3.1506 -3.322,-3.1506"/><path id="path8" fill="none" stroke="#000" stroke-linecap="round" stroke-linejoin="round" stroke-width="2" d="m 31.2176,30.9159 c 2.1195,8.0259 4.1409,21.6941 -5.0676,25.865 -13.3088,6.0279 -14.2239,-1.844 -14.2239,-1.844 0,0 -2.5216,-7.3556 17.3456,-30.0053"/><path id="path9" fill="none" stroke="#000" stroke-linecap="round" stroke-linejoin="round" stroke-width="2" d="m 40.8129,30.7616 c -2.134,8.004 -4.2411,21.8216 5.0267,26.0193 13.3087,6.0279 14.2239,-1.844 14.2239,-1.844 0,0 2.5215,-7.3557 -17.3461,-30.0059"/><path id="path10" fill="none" stroke="#000" stroke-linecap="round" stroke-linejoin="round" stroke-width="2" d="m 26.0142,19.098 a 4.1674,4.1674 0 1 1 8.1116,-1.7954"/><path id="path11" fill="none" stroke="#000" stroke-linecap="round" stroke-linejoin="round" stroke-width="2" d="M 44.9808,19.098 A 4.1674,4.1674 0 1 0 36.8692,17.3026"/><polyline id="polyline11" fill="none" stroke="#000" stroke-linecap="round" stroke-miterlimit="10" stroke-width="2" points="29.469 54.421 29.977 57.479 25.875 63.807"/><polyline id="polyline12" fill="none" stroke="#000" stroke-linecap="round" stroke-miterlimit="10" stroke-width="2" points="42.674 54.586 42.194 57.479 46.295 63.807"/><path id="path12" fill="none" stroke="#000" stroke-linecap="round" stroke-linejoin="round" stroke-width="2" d="m 34.0092,33.3341 a 3.9639,3.9639 0 0 1 -1.59,-1.0147 c -1.91,-1.7455 -3.0941,-5.2687 -3.5324,-10.534 a 3.4564,3.4564 0 0 1 0.7809,-2.559 c 1.6648,-1.99 5.4193,-2.0472 5.8419,-2.0472 h 0.97 c 0.4225,0 4.1771,0.0571 5.8419,2.0472 a 3.4569,3.4569 0 0 1 0.7809,2.559 c -0.4388,5.257 -1.62,8.7774 -3.5245,10.5258 A 5.8964,5.8964 0 0 1 37.98,33.3341"/><polyline id="polyline13" fill="none" stroke="#000" stroke-linecap="round" stroke-miterlimit="10" stroke-width="2" points="15.545 15.444 19.758 23.888 26.446 28.229"/><polyline id="polyline14" fill="none" stroke="#000" stroke-linecap="round" stroke-miterlimit="10" stroke-width="2" points="56.327 15.444 52.113 23.888 45.503 28.179"/></g></svg>