<svg xmlns="http://www.w3.org/2000/svg" xmlns:svg="http://www.w3.org/2000/svg" id="emoji" width="50.385" height="63.59" version="1.1" viewBox="0 0 50.385 63.59"><g id="color" transform="translate(-10.849739,-4.3633645)"><path id="path1" fill="#b399c8" d="m 60.3313,22.6804 c -0.0733,6.6927 -12.4664,13.1075 -23.3934,13.352 -11.613,0.2599 -24.8213,-6.3767 -24.9794,-13.352 -0.1,-4.4124 5.0419,-8.0886 9.7142,-11.4291 3.8209,-2.7317 8.2526,-5.9002 14.4722,-5.8879 6.47,0.0128 11.5456,2.9314 15.7938,6.1522 4.9387,3.7443 8.4346,7.3242 8.3925,11.1648 z"/><path id="path2" fill="#8967aa" d="M 60.4614,22.7634 C 60.3943,29.0329 49.498,35.0342 39.1383,35.973 48.1235,34.0619 56.3374,28.7646 56.4045,23.3333 56.4716,19.4778 52.9513,15.924 48.0228,12.169 43.7648,8.9503 38.7024,6.0335 32.2316,6 h -0.5028 c 1.4081,-0.3352 2.8833,-0.5699 4.526,-0.5699 6.4707,0 11.5668,2.9168 15.8248,6.1688 4.9284,3.7216 8.4153,7.3088 8.3817,11.1645 z"/><path id="path3" fill="none" stroke="#fff" stroke-linecap="round" stroke-linejoin="round" stroke-width="2" d="M 24.4051,29.593 C 21.5615,28.7283 19.0669,27.198 17.1295,25.0556"/><path id="path4" fill="none" stroke="#fff" stroke-linecap="round" stroke-linejoin="round" stroke-width="2" d="M 29.0942,31.1665 C 28.44,31.0956 27.8816,30.9194 27.4669,30.6418"/><g id="g8"><path id="path5" fill="none" stroke="#b399c8" stroke-linecap="round" stroke-linejoin="round" stroke-width="3" d="m 28.4217,39.5354 c -1.6525,1.9218 -3.448,4.6933 -3.1126,7.7666 0.4201,3.8499 3.8533,5.1421 5.2098,9.2927 0.6992,2.1393 0.9435,5.3339 -1.217,9.8589"/><path id="path6" fill="none" stroke="#b399c8" stroke-linecap="round" stroke-linejoin="round" stroke-width="3" d="m 43.5783,39.4977 c 1.6525,1.9218 3.448,4.6933 3.1126,7.7666 -0.4201,3.8499 -3.8533,5.1421 -5.2098,9.2927 -0.6992,2.1393 -0.9435,5.3339 1.217,9.8589"/><path id="path7" fill="none" stroke="#b399c8" stroke-linecap="round" stroke-linejoin="round" stroke-width="3" d="m 17.4898,36.3647 c -3.118,3.1517 -3.4886,5.3113 -3.164,6.7461 0.5667,2.5053 3.3372,3.174 4.6307,6.39 0.8208,2.0408 0.608,4.0163 0.2687,5.4243"/><path id="path8" fill="none" stroke="#b399c8" stroke-linecap="round" stroke-linejoin="round" stroke-width="3" d="m 54.5102,36.2218 c 3.118,3.1517 3.4886,5.3113 3.164,6.7461 -0.5667,2.5053 -3.3372,3.174 -4.6307,6.39 -0.8208,2.0408 -0.608,4.0163 -0.2687,5.4243"/></g></g><g id="line" transform="translate(-10.849739,-4.3633645)"><path id="path9" fill="none" stroke="#000" stroke-linecap="round" stroke-linejoin="round" stroke-width="2" d="m 30.0078,39.2208 c -1.6525,1.9218 -3.448,4.6933 -3.1126,7.7666 0.4201,3.8499 3.8533,5.1421 5.2098,9.2927 0.6992,2.1393 0.9435,5.3339 -1.217,9.8589"/><path id="path10" fill="none" stroke="#000" stroke-linecap="round" stroke-linejoin="round" stroke-width="2" d="m 41.6206,39.2208 c 1.6525,1.9218 3.448,4.6933 3.1126,7.7666 -0.4201,3.8499 -3.8533,5.1421 -5.2098,9.2927 -0.6992,2.1393 -0.9435,5.3339 1.217,9.8589"/><path id="path11" fill="none" stroke="#000" stroke-miterlimit="10" stroke-width="2" d="m 60.224,22.6804 c -0.0733,6.6927 -12.4664,13.1075 -23.3934,13.352 -11.613,0.2599 -24.8213,-6.3767 -24.9794,-13.352 -0.1,-4.4124 5.0419,-8.0886 9.7142,-11.4291 3.8209,-2.7317 8.2526,-5.9002 14.4722,-5.8879 6.47,0.0128 11.5456,2.9314 15.7938,6.1522 4.9387,3.7443 8.4346,7.3242 8.3925,11.1648 z"/><path id="path12" fill="none" stroke="#000" stroke-linecap="round" stroke-linejoin="round" stroke-width="2" d="m 19.0759,36.0878 c -3.118,3.1517 -3.4886,5.3113 -3.164,6.7461 0.5667,2.5053 3.3372,3.174 4.6307,6.39 0.8208,2.0408 0.608,4.0163 0.2687,5.4243"/><path id="path13" fill="none" stroke="#000" stroke-linecap="round" stroke-linejoin="round" stroke-width="2" d="m 52.9241,35.9449 c 3.118,3.1517 3.4886,5.3113 3.164,6.7461 -0.5667,2.5053 -3.3372,3.174 -4.6307,6.39 -0.8208,2.0408 -0.608,4.0163 -0.2687,5.4243"/></g></svg>