<svg xmlns="http://www.w3.org/2000/svg" xmlns:svg="http://www.w3.org/2000/svg" id="emoji" width="41.744" height="43.974" version="1.1" viewBox="0 0 41.744 43.974"><g id="color" transform="translate(-14.43965,-14.715499)"><path id="path1" fill="#b399c8" d="M 42.3339,49.147 A 29.9446,29.9446 0 0 1 22.9961,40.9956 v 0 C 14.9824,33.6313 14.6181,22.9204 14.4629,18.3472 l -0.0215,-0.627 a 2.9039,2.9039 0 0 1 3.457,-2.9512 c 17.0049,3.3555 21.6943,16.3243 22.0557,17.4 a 49.5426,49.5426 0 0 1 3.5742,15.9219 1,1 0 0 1 -0.9668,1.0518 C 42.5322,49.144 42.455,49.147 42.3339,49.147 Z"/><path id="path2" fill="#61b2e4" d="m 44.4355,55.3159 c -11.6455,0 -17.3757,-6.9734 -17.6521,-7.3542 a 1,1 0 0 1 0.2617,-1.4239 11.1031,11.1031 0 0 1 12.7742,-1.5734 c -1.4648,-9.0782 1.877,-13.5684 2.0312,-13.77 a 0.9982,0.9982 0 0 1 0.75,-0.39 0.9705,0.9705 0 0 1 0.78,0.3242 c 8.9434,9.7715 8.793,16.5322 7.9072,19.6914 -0.0341,0.1406 -1.0615,4.0918 -4.7714,4.4063 -0.7117,0.0613 -1.405,0.0896 -2.0808,0.0896 z"/></g><g id="line" transform="translate(-14.43965,-14.715499)"><path id="path3" fill="none" stroke="#000" stroke-linecap="round" stroke-linejoin="round" stroke-width="2" d="m 55.1837,57.69 c 0,0 -20.2237,-11.813 -32.0863,-33.4838"/><path id="path4" fill="none" stroke="#000" stroke-linecap="round" stroke-linejoin="round" stroke-width="2" d="M 45.2281,54.3024 C 33.2973,54.7629 27.6,47.4216 27.6,47.4216"/><path id="path5" fill="none" stroke="#000" stroke-linecap="round" stroke-linejoin="round" stroke-width="2" d="m 40.528,42.4827 c -0.5595,-7.1945 2.1157,-10.6784 2.1157,-10.6784 8.8346,9.6533 8.4063,16.1616 7.6813,18.7468"/><path id="path6" fill="none" stroke="#000" stroke-linecap="round" stroke-linejoin="round" stroke-width="2" d="M 37.0138,47.4216 A 30.15,30.15 0 0 1 23.673,40.26 C 15.6005,32.8414 15.6056,22.0186 15.4409,17.6826 a 1.9032,1.9032 0 0 1 2.2642,-1.9314 C 34.6938,19.1027 39.02,32.5284 39.02,32.5284"/></g></svg>