<?xml version="1.0" encoding="UTF-8" standalone="no"?>
<svg
   id="emoji"
   viewBox="0 0 38.030212 52.546101"
   version="1.1"
   sodipodi:docname="1fab2.svg"
   width="38.030212"
   height="52.546101"
   xmlns:inkscape="http://www.inkscape.org/namespaces/inkscape"
   xmlns:sodipodi="http://sodipodi.sourceforge.net/DTD/sodipodi-0.dtd"
   xmlns="http://www.w3.org/2000/svg"
   xmlns:svg="http://www.w3.org/2000/svg">
  <defs
     id="defs21" />
  <sodipodi:namedview
     id="namedview21"
     pagecolor="#ffffff"
     bordercolor="#000000"
     borderopacity="0.25"
     inkscape:showpageshadow="2"
     inkscape:pageopacity="0.0"
     inkscape:pagecheckerboard="0"
     inkscape:deskcolor="#d1d1d1" />
  <g
     id="line-supplement"
     transform="translate(-16.984894,-9.958)">
    <circle
       cx="31.591999"
       cy="45.623299"
       r="1"
       id="circle1" />
    <circle
       cx="30.158899"
       cy="41.738998"
       r="1"
       id="circle2" />
    <circle
       cx="32.813999"
       cy="39.749199"
       r="1"
       id="circle3" />
    <circle
       cx="40.427799"
       cy="45.623299"
       r="1"
       id="circle4" />
    <circle
       cx="41.860802"
       cy="41.738998"
       r="1"
       id="circle5" />
    <circle
       cx="39.205799"
       cy="39.749199"
       r="1"
       id="circle6" />
  </g>
  <g
     id="color"
     transform="translate(-16.984894,-9.958)">
    <rect
       x="46.9021"
       y="36.420799"
       rx="1.3081"
       ry="1.3081"
       width="2.6162"
       height="6.8796"
       fill="#ffffff"
       id="rect6" />
    <rect
       x="22.5895"
       y="36.106201"
       rx="1.3081"
       ry="1.3081"
       width="2.6162"
       height="6.8796"
       fill="#ffffff"
       id="rect7" />
    <path
       fill="#5c9e31"
       d="M 43.12,34.5381 H 28.8805 c -0.1782,-2e-4 -0.3531,-0.0477 -0.5068,-0.1377 -2.2959,-1.4515 -3.5611,-4.0868 -3.2578,-6.7861 0.0539,-0.5894 0.2703,-1.1522 0.625,-1.626 0.5926,-0.625 1.3894,-1.0171 2.2461,-1.1055 0.205,-0.043 0.4111,-0.084 0.6064,-0.1426 0.7037,-0.2713 1.3555,-0.6617 1.9266,-1.1543 0.2158,-0.1621 0.4306,-0.3252 0.6494,-0.4795 1.0998,-0.9412 2.5686,-1.3298 3.99,-1.0556 0.0439,0.0117 0.087,0.0263 0.1289,0.0439 v 0 c 0.4596,0.1649 0.9623,0.1649 1.4219,0 1.498,-0.6289 2.9892,0.21 4.12,1.0117 0.2178,0.1543 0.4316,0.3155 0.6455,0.4776 0.5728,0.4936 1.2264,0.8847 1.9322,1.156 0.1943,0.0586 0.4,0.1 0.6064,0.1426 0.8564,0.0884 1.6528,0.4806 2.2451,1.1055 0.3553,0.4737 0.5714,1.0371 0.624,1.6269 0.3035,2.6988 -0.9613,5.3337 -3.2568,6.785 -0.1537,0.0901 -0.3285,0.1378 -0.5066,0.1381 z"
       id="path7" />
    <path
       fill="#186648"
       d="m 44.5006,33.2559 c -2.7872,-2.2383 -7.4574,-1.51 -8.5009,-1.3124 -1.043,-0.1981 -5.711,-0.9269 -8.5,1.3114 -1.4029,1.1712 -2.1689,2.9371 -2.0655,4.7617 0,3.4863 0,14.0967 9.1084,15.6582 0.4266,0.0741 0.8522,-0.1354 1.0537,-0.5186 L 36,52.3921 l 0.4033,0.7641 c 0.2015,0.3832 0.6271,0.5927 1.0537,0.5186 9.1094,-1.5615 9.1094,-12.1719 9.1094,-15.6582 0.1035,-1.8244 -0.6627,-3.5901 -2.0658,-4.7607 z"
       id="path8" />
    <circle
       cx="31.591999"
       cy="45.623299"
       r="1"
       fill="#fcea2b"
       id="circle8" />
    <circle
       cx="30.158899"
       cy="41.738998"
       r="1"
       fill="#fcea2b"
       id="circle9" />
    <circle
       cx="32.813999"
       cy="39.749199"
       r="1"
       fill="#fcea2b"
       id="circle10" />
    <circle
       cx="40.427799"
       cy="45.623299"
       r="1"
       fill="#fcea2b"
       id="circle11" />
    <circle
       cx="41.860802"
       cy="41.738998"
       r="1"
       fill="#fcea2b"
       id="circle12" />
    <circle
       cx="39.205799"
       cy="39.749199"
       r="1"
       fill="#fcea2b"
       id="circle13" />
  </g>
  <g
     id="line"
     transform="translate(-16.984894,-9.958)">
    <path
       fill="none"
       stroke="#000000"
       stroke-linecap="round"
       stroke-linejoin="round"
       stroke-width="2"
       d="M 31.746,51.6805 C 27.3014,49.2278 26.4342,43.3874 26.4342,38.0166 26.4342,30.8477 36,32.9631 36,32.9631 V 50.2488 L 34.7119,52.69"
       id="path13" />
    <line
       x1="36"
       x2="37.287998"
       y1="50.248798"
       y2="52.6898"
       fill="none"
       stroke="#000000"
       stroke-linecap="round"
       stroke-linejoin="round"
       stroke-width="2"
       id="line13" />
    <path
       fill="none"
       stroke="#000000"
       stroke-linecap="round"
       stroke-linejoin="round"
       stroke-width="2"
       d="M 40.2539,51.6805 C 44.6985,49.2278 45.5657,43.3874 45.5657,38.0166 45.5657,30.8477 36,32.9631 36,32.9631"
       id="path14" />
    <polyline
       fill="none"
       stroke="#000000"
       stroke-linecap="round"
       stroke-linejoin="round"
       stroke-width="2"
       points="26.817 43.343 23.045 46.301 26.092 52.145"
       id="polyline14" />
    <path
       fill="none"
       stroke="#000000"
       stroke-linecap="round"
       stroke-linejoin="round"
       stroke-width="2"
       d="m 25.1274,50.2952 c 0,0 -3.0066,6.004 -0.8821,11.2089"
       id="path15" />
    <polyline
       fill="none"
       stroke="#000000"
       stroke-linecap="round"
       stroke-linejoin="round"
       stroke-width="2"
       points="27.12 35.201 20.879 34.117 21.124 38.691"
       id="polyline15" />
    <path
       fill="none"
       stroke="#000000"
       stroke-linecap="round"
       stroke-linejoin="round"
       stroke-width="2"
       d="M 18.3507,46.24 C 17.3698,42.7696 18.3939,39.0414 21.01,36.559"
       id="path16" />
    <path
       fill="none"
       stroke="#000000"
       stroke-linecap="round"
       stroke-linejoin="round"
       stroke-width="2"
       d="m 26.8806,31.4565 c -0.6473,-1.1235 -0.918,-2.4247 -0.7723,-3.7131 0.0302,-0.4055 0.1715,-0.7948 0.4085,-1.1252 0.5429,-0.6693 1.5368,-0.6726 2.3623,-0.92 1.0459,-0.4332 2.0146,-1.0331 2.8685,-1.7764 0.8691,-0.747 2.0209,-1.0777 3.1539,-0.9056 0.7079,0.2677 1.4891,0.2677 2.197,0 1.0423,-0.4384 2.2315,0.2515 3.1539,0.9056 0.8539,0.7433 1.8226,1.3432 2.8685,1.7764 0.8255,0.2474 1.8194,0.2507 2.3623,0.92 0.237,0.3304 0.3783,0.7197 0.4085,1.1252 0.1457,1.2884 -0.125,2.5896 -0.7723,3.7131"
       id="path17" />
    <polyline
       fill="none"
       stroke="#000000"
       stroke-linecap="round"
       stroke-linejoin="round"
       stroke-width="2"
       points="45.183 43.343 48.955 46.301 45.908 52.145"
       id="polyline17" />
    <path
       fill="none"
       stroke="#000000"
       stroke-linecap="round"
       stroke-linejoin="round"
       stroke-width="2"
       d="m 46.8726,50.2952 c 0,0 3.0066,6.004 0.8821,11.2089"
       id="path18" />
    <polyline
       fill="none"
       stroke="#000000"
       stroke-linecap="round"
       stroke-linejoin="round"
       stroke-width="2"
       points="44.88 35.201 51.121 34.117 50.876 38.691"
       id="polyline18" />
    <path
       fill="none"
       stroke="#000000"
       stroke-linecap="round"
       stroke-linejoin="round"
       stroke-width="2"
       d="M 53.6493,46.24 C 54.6302,42.7696 53.6061,39.0414 50.99,36.559"
       id="path19" />
    <polyline
       fill="none"
       stroke="#000000"
       stroke-linecap="round"
       stroke-linejoin="round"
       stroke-width="2"
       points="31.57 10.958 36 15.106 40.43 10.958"
       id="polyline19" />
    <line
       x1="36"
       x2="36"
       y1="15.1064"
       y2="23.2178"
       fill="none"
       stroke="#000000"
       stroke-linecap="round"
       stroke-linejoin="round"
       stroke-width="2"
       id="line19" />
    <line
       x1="26.108299"
       x2="23.5215"
       y1="27.743401"
       y2="23.840799"
       fill="none"
       stroke="#000000"
       stroke-linecap="round"
       stroke-linejoin="round"
       stroke-width="2"
       id="line20" />
    <path
       fill="none"
       stroke="#000000"
       stroke-linecap="round"
       stroke-linejoin="round"
       stroke-width="2"
       d="m 20.3839,15.1064 c 0,0 -3.0817,8.29 4.2655,10.4359"
       id="path20" />
    <line
       x1="45.893799"
       x2="48.480598"
       y1="27.743401"
       y2="23.840799"
       fill="none"
       stroke="#000000"
       stroke-linecap="round"
       stroke-linejoin="round"
       stroke-width="2"
       id="line21" />
    <path
       fill="none"
       stroke="#000000"
       stroke-linecap="round"
       stroke-linejoin="round"
       stroke-width="2"
       d="m 51.6182,15.1064 c 0,0 3.0817,8.29 -4.2654,10.4359"
       id="path21" />
  </g>
</svg>
