<svg xmlns="http://www.w3.org/2000/svg" xmlns:svg="http://www.w3.org/2000/svg" id="emoji" width="42.2" height="56.264" version="1.1" viewBox="0 0 42.2 56.264"><g id="color" transform="translate(-15.344118,-7.9335869)"><path id="path1" fill="#fff" d="M 46.205,37.484 C 40.1512,33.4481 33.9052,33.5442 32.3677,32.295 31.3107,31.4302 30.7341,23.1662 32.4638,17.7851 35.2505,9.1368 29.2928,7.5032 25.9295,9.8094 l -4.5163,2.8828 c -2.8828,2.8828 -6.0538,2.8828 -4.9968,3.9398 0.9609,0.9609 6.7265,0.1922 7.9757,1.5375 2.4023,2.5945 -1.3453,15.3748 -1.9218,20.2755 -0.8648,6.3421 -0.0961,9.0327 6.0538,12.3959 1.7297,0.9609 4.4202,1.6336 6.6304,2.114 v 0 4.4202 h -8.7444 l 2.2101,2.8828 h 2.2101 l 2.2101,2.8828 h 4.4202 l 2.114,-2.8828 v -6.5343 l 4.7085,0.6726 c 7.0147,0.8648 12.1076,0.0961 12.1076,0.0961 0,0 -2.3062,-11.7233 -10.1858,-17.0083 z"/><polygon id="foot" fill="#e27022" stroke="#e27022" stroke-linecap="round" stroke-linejoin="round" stroke-width="1.922" points="28.812 60.354 33.233 60.354 35.251 57.471 26.602 57.471"/><polygon id="foot_fill" fill="#f4aa41" stroke="#f4aa41" stroke-linecap="round" stroke-linejoin="round" stroke-width="1.922" points="33.136 63.237 37.557 63.237 39.671 60.354 30.926 60.354"/><path id="beak" fill="#f4aa41" stroke="#f4aa41" stroke-linecap="round" stroke-linejoin="round" stroke-width="1.922" d="m 24.5842,18.2656 c -1.2492,-1.4414 -7.0147,-0.5766 -7.9757,-1.5375 -1.057,-1.057 2.114,-1.057 4.9968,-3.9398 1.9218,-1.9218 3.3632,-0.5766 3.3632,1.7297 l -0.3844,3.7476 z"/></g><g id="line" transform="translate(-15.344118,-7.9335869)"><path id="body_back" fill="none" stroke="#000" stroke-linecap="round" stroke-linejoin="round" stroke-width="1.922" d="m 24.8725,14.518 c 0.0961,-2.3062 -1.4414,-3.6515 -3.3632,-1.7297 -2.8828,2.8828 -6.0538,2.8828 -4.9968,3.9398 0.9609,0.9609 6.7265,0.1922 7.9757,1.5375 2.4023,2.5945 -1.3453,15.3748 -1.9218,20.2755 -0.8648,6.3421 -0.0961,9.0327 6.0538,12.3959 3.4593,1.9218 11.0506,2.8828 11.0506,2.8828 v 6.5343"/><path id="body_front" fill="none" stroke="#000" stroke-linecap="round" stroke-linejoin="round" stroke-width="1.922" d="m 26.1217,9.9055 c 3.2671,-2.4023 9.2249,-0.7687 6.5343,7.9757 -1.7297,5.3812 -1.1531,13.6451 -0.0961,14.5099 1.5375,1.2492 7.6874,1.057 13.8373,5.189 7.8796,5.2851 10.1858,17.1044 10.1858,17.1044 0,0 -5.0929,0.7687 -12.1076,-0.0961"/><path id="wing" fill="none" stroke="#000" stroke-linecap="round" stroke-miterlimit="10" stroke-width="1.922" d="m 30.7341,40.4629 c 2.3062,7.8796 12.5881,9.321 12.5881,9.321"/><polyline id="foot_outline_back" fill="none" stroke="#000" stroke-linecap="round" stroke-linejoin="round" stroke-width="1.922" points="33.233 60.354 28.812 60.354 26.602 57.471 35.251 57.471 35.251 53.051"/><polyline id="foot_outline_front" fill="none" stroke="#000" stroke-linecap="round" stroke-linejoin="round" stroke-width="1.922" points="39.671 60.354 30.926 60.354 33.136 63.237 37.557 63.237"/></g></svg>