<?xml version="1.0" encoding="UTF-8" standalone="no"?>
<svg
   id="emoji"
   viewBox="0 0 27.862566 63.410114"
   version="1.1"
   sodipodi:docname="1fac3-1f3fb.svg"
   width="27.862566"
   height="63.410114"
   xmlns:inkscape="http://www.inkscape.org/namespaces/inkscape"
   xmlns:sodipodi="http://sodipodi.sourceforge.net/DTD/sodipodi-0.dtd"
   xmlns="http://www.w3.org/2000/svg"
   xmlns:svg="http://www.w3.org/2000/svg">
  <defs
     id="defs14" />
  <sodipodi:namedview
     id="namedview14"
     pagecolor="#ffffff"
     bordercolor="#000000"
     borderopacity="0.25"
     inkscape:showpageshadow="2"
     inkscape:pageopacity="0.0"
     inkscape:pagecheckerboard="0"
     inkscape:deskcolor="#d1d1d1" />
  <g
     id="color"
     transform="translate(-19.272748,-4.5918358)">
    <path
       fill="#9b9b9a"
       d="m 46.0353,49.5 c -5,-1.2 -11.6,6.1 -15.9,6.1 l 0.5,7.5 1.1,4.9 h 9 l 1,-4.2 4.6,-9.3 c 0.5577,-1.6418 0.45,-3.4367 -0.3,-5 z"
       id="path1" />
    <path
       fill="#3f3f3f"
       d="m 40.0353,51.7 c 0.4899,3.5368 -2.7,9.9 -2.8,16.3 h 3.4 c 0,0 0.3,-3.2 1,-4.2 0.7,-1.1 4.1,-9.3 4.1,-9.3 0,0 1.7,-4 0.1,-4.9 -0.6,-0.2 -4.5,1.1 -5.8,2.1 z"
       id="path2" />
    <path
       fill="#92d3f5"
       d="m 43.0353,43.5 c -0.4986,-1.133 -0.6042,-2.4001 -0.3,-3.6 1.0357,-3.4825 1.8705,-7.0217 2.5,-10.6 0.1,-2.1 -3.2,-4.4 -3.2,-4.4 0,0 -5.7,-5.8 -13.1,12.6 l -3.4,3.1 c -1.2551,1.5103 -2.1449,3.2897 -2.6,5.2 -0.3009,1.3164 -0.3009,2.6836 0,4 0.5378,1.7883 1.7117,3.3179 3.3,4.3 1.6436,1.0027 3.3468,1.9044 5.1,2.7 7.4,-1.2 6.3,-6.1 14.5,-7.3 z"
       id="path3" />
    <path
       fill="#61b2e4"
       d="m 40.9353,24.4 c 1.0907,2.25 1.7036,4.7015 1.8,7.2 0.2,4.1 -1,6.3 -1.9,12.2 -0.4454,2.6122 -0.7127,5.2516 -0.8,7.9 1.8032,-1.0389 3.7614,-1.7817 5.8,-2.2 -0.3,-2.8 -0.6,-5.7 -0.9,-8.5 0.3,-4 0.7,-8 1,-12.1 -0.2208,-2.583 -2.4081,-4.5516 -5,-4.5 z"
       id="path4" />
    <path
       fill="#ea5a47"
       d="m 21.8353,36.8 v 0 c -0.3073,-0.0286 -0.5927,-0.1714 -0.8,-0.4 l -1.6,-2.3 c -0.3038,-0.4694 -0.1694,-1.0962 0.3,-1.4 0.4694,-0.3038 1.0962,-0.1694 1.4,0.3 l 0.8,1.1 0.8,-1.1 c 0.3314,-0.4418 0.9582,-0.5314 1.4,-0.2 0.4418,0.3314 0.5314,0.9582 0.2,1.4 l -1.7,2.3 c -0.2174,0.2003 -0.5044,0.308 -0.8,0.3 z"
       id="path5" />
  </g>
  <g
     id="skin"
     transform="translate(-19.272748,-4.5918358)">
    <path
       fill="#fadcbc"
       d="m 32.2353,8.1 c 3.6,-2.6 9.4,-0.9 11.1,3.3 1.6,3.8 -0.6,8.8 -4.6,9.9 -3.4266,0.8846 -6.9975,-0.7959 -8.5,-4 -1.6,-3.2 -0.8,-7.3 2,-9.2 z"
       id="path6" />
    <path
       fill="#fadcbc"
       d="m 28.3353,50.5 c -1.0372,0.0218 -1.9128,-0.7662 -2,-1.8 -0.1491,-1.0627 0.5916,-2.0451 1.6544,-2.1942 L 28.0353,46.5 c 3,-0.4 4.8,-1.7 5.5,-2.7 0.4009,-0.7132 0.6718,-1.492 0.8,-2.3 0.1,-0.3 0.1,-0.6 0.2,-0.8 0.8798,-3.3672 1.3828,-6.8217 1.5,-10.3 -0.0092,-1.0463 0.8315,-1.9019 1.8777,-1.9111 0.0742,-7e-4 0.1485,0.0031 0.2223,0.0111 1.0753,0.0229 1.9285,0.9132 1.9056,1.9885 -8e-4,0.0372 -0.0027,0.0744 -0.0056,0.1115 -0.1773,3.7492 -0.7471,7.4696 -1.7,11.1 -0.1,0.2 -0.1,0.5 -0.2,0.7 -0.2715,1.2205 -0.7089,2.3982 -1.3,3.5 -1.5,2.4 -4.6,4.1 -8.3,4.5 0,0.1 -0.1,0.1 -0.2,0.1 z"
       id="path7" />
  </g>
  <g
     id="hair"
     transform="translate(-19.272748,-4.5918358)">
    <path
       fill="#a57939"
       d="M 40.6353,13.4 C 38.2157,13.3736 35.8766,12.5276 34,11 33.79,10.8169 31.4,8.6987 31.9353,7.6 32.1353,7.1885 32.6753,7.0721 33,7 c 4.3771,-0.97 6.5657,-1.4556 8.5353,-0.3 1.4394,0.8727 2.5342,2.2147 3.1,3.8 0.666,2.05 0.3721,4.2911 -0.8,6.1 -0.5201,0.6944 -1.2084,1.245 -2,1.6 -0.5,-1.6 -0.8,-3.2 -1.2,-4.8 z"
       id="path8" />
  </g>
  <g
     id="line"
     transform="translate(-19.272748,-4.5918358)">
    <path
       fill="none"
       stroke="#000000"
       stroke-linecap="round"
       stroke-linejoin="round"
       stroke-width="2"
       d="m 40.6353,67 c 0.2,-1.1 0.3,-2.1 0.5,-3.2 1.4,-2.8 2.8,-5.6 4.1,-8.4 0.5781,-0.9315 0.8894,-2.0038 0.9,-3.1 0.0018,-0.8907 -0.1679,-1.7735 -0.5,-2.6 -0.5638,-1.746 -0.8671,-3.5655 -0.9,-5.4 0,-1.3 0.2,-2.8 0.5,-5.7 0.3,-2.4 0.5,-4.1 0.5,-4.1 0.2708,-1.2135 0.3717,-2.4587 0.3,-3.7 0.0293,-0.9904 -0.1407,-1.9766 -0.5,-2.9 -0.7124,-1.9229 -2.3169,-3.3781 -4.3,-3.9 -1.8535,-0.2929 -3.7441,0.2161 -5.2,1.4 -1.4385,1.1737 -1.6496,2.4069 -3.0353,5.6 -0.8923,2.0521 -1.8937,4.0549 -3,6 -1.4642,0.713 -2.8031,1.6586 -3.9647,2.8 -1.3444,1.2601 -2.4017,2.7949 -3.1,4.5 -0.9317,2.0594 -0.9679,4.4129 -0.1,6.5 0.5091,1.0896 1.2618,2.0476 2.2,2.8 1.0868,0.8853 2.3473,1.5325 3.7,1.9 0.7209,0.243 1.4555,0.4434 2.2,0.6"
       id="path9" />
    <path
       d="m 31.6353,68 c -0.5518,-0.0012 -0.9988,-0.4482 -1,-1 l -0.3,-7.7 c 0,-0.5523 0.4477,-1 1,-1 0.5523,0 1,0.4477 1,1 l 0.3,7.7 c 0.0332,0.5191 -0.3607,0.9668 -0.8798,1 -0.04,0.0026 -0.0802,0.0026 -0.1202,0 z"
       id="path10" />
    <path
       fill="none"
       stroke="#000000"
       stroke-linecap="round"
       stroke-linejoin="round"
       stroke-width="2"
       d="m 37.3353,20.8 c -3.1,0.6 -6.4,-1.6 -7.6,-5.2 -0.0075,-0.0228 -0.0227,-0.0665 -0.043,-0.1291 C 28.9239,13.0798 29.3092,10.4674 30.7353,8.4 31.0968,7.8824 31.5217,7.4121 32,7"
       id="path11" />
    <path
       fill="none"
       stroke="#000000"
       stroke-linecap="round"
       stroke-linejoin="round"
       stroke-width="2"
       d="m 32.0353,7.9 c 1.682,3.2201 4.9689,5.284 8.6,5.4"
       id="path12" />
    <path
       fill="none"
       stroke="#000000"
       stroke-linecap="round"
       stroke-linejoin="round"
       stroke-width="2"
       d="m 32,7 c 0.264,-0.1469 5.3761,-2.8916 9.5353,-0.3 1.4139,0.9017 2.5006,2.2338 3.1,3.8 0.6974,1.8451 0.5133,3.9077 -0.5,5.6 C 43.5941,16.9023 42.8598,17.5557 42,18 l -1.2647,-4.5"
       id="path13" />
    <path
       d="m 29.6353,50.7 c -0.7699,-0.0212 -1.5379,-0.088 -2.3,-0.2 -0.5135,-0.1221 -0.882,-0.5725 -0.9,-1.1 0,-0.5 0.6,-0.9 1.1,-0.9 5.7,0.8 7.2,-1.5 8.7,-4.7 2.3,-5.7 1.9,-13.4 1.9,-13.5 -0.0141,-0.539 0.3688,-1.0071 0.9,-1.1 0.5,-0.1 1,0.4 1.1,0.9 0,0.3 0.4,8.2 -2.1,14.4 -1.4,3.4 -3.2,6.2 -8.4,6.2 z"
       id="path14" />
  </g>
</svg>
