<svg xmlns="http://www.w3.org/2000/svg" xmlns:svg="http://www.w3.org/2000/svg" id="emoji" width="51.999" height="50.508" version="1.1" viewBox="0 0 51.999 50.508"><g id="color" transform="translate(-9.8819341,-14.21793)"><path id="path1" fill="#6a462f" d="m 35.8973,64.7256 c -3.4639,0 -6.3277,-2.367 -6.9793,-4.9037 L 27.7188,51.97 c -0.2064,-1.3515 -0.5599,-2.6813 -1.0663,-3.9512 -2.6082,-6.5412 -2.0971,-7.4668 -1.0318,-10.3323 0.926,-2.4909 2.2957,-4.5322 4.2441,-4.5322 l 5.3523,0.9445 c 3.6922,1.0018 6.952,4.0742 6.952,6.8399 l 0.8311,19.1816 c 0,2.7657 -3.6392,4.6052 -7.1031,4.6052"/><path id="path2" fill="#6a462f" d="m 36.1609,64.7256 c -3.4639,0 -7.1031,-1.8395 -7.1031,-4.6052 l 0.8311,-19.1816 c 0,-2.7657 3.2103,-5.924 6.5304,-6.6396 l 5.5527,-0.9159 c 1.9485,0 3.2085,1.6238 4.1345,4.1147 1.0653,2.8655 1.9073,3.9796 -0.7009,10.5208 -0.5064,1.2699 -0.8599,2.5997 -1.0663,3.9512 l -1.1992,7.8519 c -0.6516,2.5366 -3.5154,4.9037 -6.9793,4.9037"/><path id="path3" fill="#6a462f" d="m 52.5458,15.2313 -4.4568,6.8216 c -1.4078,0.8477 -1.713,1.0482 -3.3009,1.8415 0,0 -2.9192,10.5941 -2.8436,10.8861 l 3.1203,7.0233 c 1.6321,-1.5401 4.8402,-4.5332 7.7257,-7.0021 0,0 6.4225,-6.5928 6.4743,-6.6965 l 1.7128,-5.4124 c -0.7854,-0.6237 -7.4846,-6.653 -8.4317,-7.4615 z"/><path id="path4" fill="#6a462f" d="m 19.1506,15.693 c 1.8169,2.6118 4.8877,7.9475 6.0941,8.0624 0,0 2.7763,1.658 3.1417,2.6118 0.2015,0.5259 1.5072,8.2636 1.4316,8.5556 l -4.8004,4.6925 C 23.3855,38.0752 18.2509,34.476 15.3654,32.0071 L 10.7096,22.847 c 1.2113,-0.9841 8.4409,-7.154 8.4409,-7.154 z"/><path id="path5" fill="#a57939" d="m 35.9898,44.317 v 0 c -2.6192,0 -2.8048,3.172 -2.8048,2.3859 L 31.65,40.4795 c -0.5401,-2.1899 0.9628,-4.3606 3.2035,-4.6185 0.4552,-0.0524 0.9232,-0.0816 1.3884,-0.0816 v 0 c 0.4503,0 0.9022,0.0273 1.3418,0.0766 2.2469,0.2519 3.7485,2.4401 3.198,4.6331 l -1.5596,6.2138 c 0,0.786 -0.6131,-2.3859 -3.2323,-2.3859 z"/><path id="path6" fill="#a57939" d="m 40.2803,45.5578 0.5425,15.0955 c 0,2.1765 -2.3753,3.6242 -4.6361,3.6242 v 0 c -2.2609,0 -4.5553,-1.6825 -4.5553,-3.8591 L 32.093,45.5578 c 0,-2.1765 1.8328,-3.941 4.0937,-3.941 v 0 c 2.2609,0 4.0937,1.7644 4.0937,3.941 v 0 z"/><circle id="circle6" cx="29.694" cy="42.492" r="1.099"/><circle id="circle7" cx="42.543" cy="42.784" r="1.081"/></g><g id="line" transform="translate(-9.8819341,-14.21793)"><path id="path7" fill="none" stroke="#000" stroke-linecap="round" stroke-linejoin="round" stroke-width="2" d="m 39.4036,42.2144 c 0,0 -0.1933,5.4421 1.7193,11.2793 0.3049,0.9307 0.5365,1.8962 0.5706,2.8889 0.0267,0.7785 -0.0542,1.5753 -0.4262,1.9477 -0.338,0.3383 -0.4832,0.7981 -0.5429,1.1831 -0.1212,0.7808 -0.367,1.528 -0.6712,2.2411 v 0 c -0.0989,0.2318 -0.2557,0.4254 -0.4573,0.5423 -0.3497,0.2028 -0.9402,0.3439 -1.657,-0.2808"/><path id="path8" fill="none" stroke="#000" stroke-linecap="round" stroke-linejoin="round" stroke-width="2" d="m 33.0412,42.2144 c 0,0 0.196,5.4421 -1.7166,11.2793 -0.3049,0.9307 -0.5365,1.8962 -0.5706,2.8889 -0.0267,0.7785 0.0542,1.5753 0.4262,1.9477 0.338,0.3383 0.4832,0.7981 0.5429,1.1831 0.1212,0.7808 0.367,1.528 0.6712,2.2411 v 0 c 0.0989,0.2318 0.2557,0.4254 0.4573,0.5423 0.3497,0.2028 0.9402,0.3439 1.657,-0.2808"/><path id="path9" fill="none" stroke="#000" stroke-linecap="round" stroke-linejoin="round" stroke-width="2" d="m 60.4206,21.702 -6.538,-5.7317 c -0.5504,-0.4825 -1.4212,-1.2484 -2.0323,-0.307"/><path id="path10" fill="none" stroke="#000" stroke-linecap="round" stroke-linejoin="round" stroke-width="2" d="m 60.4206,21.702 v 0 c 1.7531,1.4818 -1.7928,9.0787 -7.3015,12.9285 -1.1637,0.8132 -5.0478,2.1997 -6.6787,6.114"/><path id="path11" fill="none" stroke="#000" stroke-linecap="round" stroke-linejoin="round" stroke-width="2" d="m 51.828,15.6531 c -0.2956,0.5505 -3.8049,6.219 -4.3576,7.1273 -0.3626,0.5959 -1.7971,0.8999 -2.0695,0.8728 -0.2283,-0.0227 -0.46,0.0609 -0.6108,0.2655 -0.5685,0.7712 -2.3056,3.3194 -2.7405,8.8749"/><path id="path12" fill="none" stroke="#000" stroke-linecap="round" stroke-linejoin="round" stroke-width="2" d="m 11.3419,21.8443 6.538,-5.7317 c 0.5504,-0.4825 1.4212,-1.2484 2.0323,-0.307"/><path id="path13" fill="none" stroke="#000" stroke-linecap="round" stroke-linejoin="round" stroke-width="2" d="m 11.3419,21.8443 v 0 c -1.7531,1.4818 1.7928,9.0787 7.3015,12.9285 1.1637,0.8132 5.0478,2.1997 6.6787,6.114"/><path id="path14" fill="none" stroke="#000" stroke-linecap="round" stroke-linejoin="round" stroke-width="2" d="m 19.9345,15.7954 c 0.2956,0.5505 3.8049,6.219 4.3576,7.1273 0.3626,0.5959 1.7971,0.8999 2.0695,0.8728 0.2283,-0.0227 0.46,0.0609 0.6108,0.2655 0.5685,0.7712 2.3761,3.1771 2.8109,8.7326"/></g></svg>