<?xml version="1.0" encoding="UTF-8" standalone="no"?>
<svg
   id="emoji"
   viewBox="0 0 40 58.299641"
   version="1.1"
   sodipodi:docname="1fac5-1f3fd.svg"
   width="40"
   height="58.299641"
   xmlns:inkscape="http://www.inkscape.org/namespaces/inkscape"
   xmlns:sodipodi="http://sodipodi.sourceforge.net/DTD/sodipodi-0.dtd"
   xmlns="http://www.w3.org/2000/svg"
   xmlns:svg="http://www.w3.org/2000/svg">
  <defs
     id="defs10" />
  <sodipodi:namedview
     id="namedview10"
     pagecolor="#ffffff"
     bordercolor="#000000"
     borderopacity="0.25"
     inkscape:showpageshadow="2"
     inkscape:pageopacity="0.0"
     inkscape:pagecheckerboard="0"
     inkscape:deskcolor="#d1d1d1" />
  <g
     id="color"
     transform="translate(-16,-2.7003608)">
    <polygon
       fill="#fcea2b"
       points="34.557,7.2462 35.972,3.7002 37.441,7.1092 40.285,4.5942 40.285,14.3372 31.44,14.3372 31.442,4.5942 "
       id="polygon1" />
    <path
       fill="#92d3f5"
       d="m 17,61 v -4 c 0,-4.9941 5.0078,-9 10,-9 6,5 12,5 18,0 4.9941,0 10,4.0059 10,9 v 4"
       id="path1" />
  </g>
  <g
     id="skin"
     transform="translate(-16,-2.7003608)">
    <path
       fill="#c19a65"
       d="m 24.9365,31 c 0,9 4.9365,14 11,14 C 41.873,45 47,40 47,31 c 0.0245,-1.7187 -0.3164,-3.4229 -1,-5 -3,-3 -7,-8 -7,-8 -4,3 -7,6 -13,7 0,0 -1.0635,1 -1.0635,6 z"
       id="path2" />
  </g>
  <g
     id="hair"
     transform="translate(-16,-2.7003608)">
    <path
       fill="#6a462f"
       d="M 31.44,11.5854 C 24.7638,13.45 22,19.4844 22,25.5185 22,32.7778 22,39 26,39 l -0.7854,-5.7856 0.5528,-7.7389 8.43,-4.0077 5.2515,-2.9712 L 46,26 46.9772,32 46,39 c 4,0 4,-6.2222 4,-13.4815 0,-6.1163 -2.84,-12.2326 -9.715,-14.007 v 2.8257 H 31.44 Z"
       id="path3" />
  </g>
  <g
     id="line"
     transform="translate(-16,-2.7003608)">
    <path
       fill="none"
       stroke="#000000"
       stroke-linecap="round"
       stroke-linejoin="round"
       stroke-width="2"
       d="M 44.0974,14.0887 C 48.2289,16.6842 50,21.3421 50,26 c 0,7 0,13 -4,13"
       id="path4" />
    <path
       fill="none"
       stroke="#000000"
       stroke-linecap="round"
       stroke-linejoin="round"
       stroke-width="2"
       d="m 26,39 c -4,0 -4,-6 -4,-13 0,-4.6575 1.7708,-9.3149 5.9014,-11.9106"
       id="path5" />
    <path
       fill="none"
       stroke="#000000"
       stroke-linecap="round"
       stroke-linejoin="round"
       stroke-width="2"
       d="m 17,60 v -3 c 0,-4.9941 5.0078,-9 10,-9 6,5 12,5 18,0 4.9941,0 10,4.0059 10,9 v 3"
       id="path6" />
    <path
       d="m 41.873,30 c 0,1.1046 -0.8954,2 -2,2 -1.1046,0 -2,-0.8954 -2,-2 0,-1.1046 0.8954,-2 2,-2 1.1046,0 2,0.8954 2,2"
       id="path7" />
    <path
       d="m 33.873,30 c 0,1.1046 -0.8954,2 -2,2 -1.1046,0 -2,-0.8954 -2,-2 0,-1.1046 0.8954,-2 2,-2 1.1046,0 2,0.8954 2,2"
       id="path8" />
    <path
       fill="none"
       stroke="#000000"
       stroke-linejoin="round"
       stroke-width="2"
       d="m 24.9365,31 c 0,9 4.9365,14 11,14 C 41.873,45 47,40 47,31 c 0.0245,-1.7187 -0.3164,-3.4229 -1,-5 -3,-3 -7,-8 -7,-8 -4,3 -7,6 -13,7 0,0 -1.0635,1 -1.0635,6 z"
       id="path9" />
    <path
       fill="none"
       stroke="#000000"
       stroke-linecap="round"
       stroke-linejoin="round"
       stroke-width="2"
       d="m 33,38 c 1.8826,0.9693 4.1174,0.9693 6,0"
       id="path10" />
    <polygon
       fill="none"
       stroke="#000000"
       stroke-linecap="round"
       stroke-linejoin="round"
       stroke-width="2"
       points="34.557,7.2462 35.972,3.7002 37.441,7.1092 40.285,4.5942 40.285,14.3372 31.44,14.3372 31.442,4.5942 "
       id="polygon10" />
  </g>
</svg>
