<svg xmlns="http://www.w3.org/2000/svg" xmlns:svg="http://www.w3.org/2000/svg" id="emoji" width="27.807" height="62.997" version="1.1" viewBox="0 0 27.807 62.997"><g id="color" transform="translate(-19.256596,-5.0025382)"><path id="path1" fill="#9b9b9a" d="m 45.9548,49.59 c -5,-1.15 -11.5,6.08 -15.87,6.08 l 0.45,7.49 1.09,4.84 h 9 l 1,-4.2 4.58,-9.29 c 0.6058,-1.6032 0.5152,-3.3865 -0.25,-4.92 z"/><path id="path2" fill="#3f3f3f" d="m 39.9748,51.76 c 0.68,2.72 -2.72,9.85 -2.72,16.24 h 3.37 c 0,0 0.3,-3.14 1,-4.2 0.7,-1.06 4.09,-9.29 4.09,-9.29 0,0 1.73,-4 0.12,-4.92 -2.0828,0.3085 -4.0786,1.0476 -5.86,2.17 z"/><path id="path3" fill="#92d3f5" d="m 42.9148,43.62 c -0.5333,-1.1022 -0.6436,-2.3619 -0.31,-3.54 1.0285,-3.481 1.8466,-7.0207 2.45,-10.6 0.07,-2.07 -3.22,-4.34 -3.22,-4.34 0,0 -5.65,-5.81 -13,12.56 l -3.43,3.13 c -1.2554,1.4959 -2.1395,3.2674 -2.58,5.17 -0.3182,1.2907 -0.3182,2.6393 0,3.93 0.5251,1.7907 1.717,3.3117 3.33,4.25 1.6334,1.0148 3.3378,1.9104 5.1,2.68 7.39,-1.2 6.26,-6.11 14.48,-7.27 z"/><path id="path4" fill="#61b2e4" d="m 40.8148,24.65 -2.81,17 2,10.09 c 1.7862,-1.0607 3.7467,-1.7955 5.79,-2.17 l -3.37,-8.26 2.3,-12.39 z"/><path id="path5" fill="#ea5a47" d="m 21.8048,37 v 0 c -0.3201,-0.007 -0.6176,-0.1669 -0.8,-0.43 l -1.57,-2.25 c -0.314,-0.453 -0.2022,-1.0748 0.25,-1.39 0.4556,-0.312 1.0779,-0.1956 1.39,0.26 l 0.77,1.13 0.89,-1.17 c 0.3535,-0.4243 0.9841,-0.4817 1.4084,-0.1281 0.398,0.3317 0.4768,0.9124 0.1816,1.3381 l -1.72,2.25 c -0.1909,0.248 -0.487,0.3924 -0.8,0.39 z"/></g><g id="skin" transform="translate(-19.256596,-5.0025382)"><ellipse id="ellipse5" cx="35.398" cy="14.973" fill="#fcea2b" rx="5.86" ry="7.36" transform="rotate(-26.19,35.398049,14.973009)"/><path id="path6" fill="#fcea2b" d="m 28.3048,50.61 c -1.1046,0.0663 -2.0537,-0.7754 -2.12,-1.88 -0.0663,-1.1046 0.7754,-2.0537 1.88,-2.12 3,-0.37 4.78,-1.68 5.44,-2.7 0.3689,-0.6944 0.6222,-1.4442 0.75,-2.22 0.07,-0.28 0.13,-0.55 0.2,-0.82 0.8517,-3.3436 1.3676,-6.7639 1.54,-10.21 0.0387,-1.1046 0.9654,-1.9687 2.07,-1.93 1.1046,0.0387 1.9687,0.9654 1.93,2.07 v 0 c -0.1842,3.7432 -0.7436,7.4585 -1.67,11.09 -0.06,0.23 -0.12,0.48 -0.17,0.72 -0.2311,1.2336 -0.6744,2.4178 -1.31,3.5 -1.53,2.35 -4.63,4 -8.29,4.48 z"/></g><g id="hair" transform="translate(-19.256596,-5.0025382)"><path id="path7" fill="#f1b31c" d="m 40.8348,13.69 -0.09,5 c -0.0178,0.8526 0.575,1.5967 1.41,1.77 1.1237,0.2546 2.2867,-0.2209 2.91,-1.19 0.66,-1.12 1.35,-4 -0.39,-8.46 -3.21,-7.53 -11.27,-4 -11.27,-4 -0.9878,0.3704 -1.8605,0.9947 -2.53,1.81 v 0 c 0,0.35 0.63,6.84 10,5 v 0"/></g><g id="line" transform="translate(-19.256596,-5.0025382)"><path id="path8" d="m 40.5948,68 h -0.14 c -0.5427,-0.0823 -0.9176,-0.5866 -0.84,-1.13 l 0.46,-3.2 c 0.0086,-0.1052 0.0392,-0.2074 0.09,-0.3 l 4.59,-9.29 c 0.4732,-1.3052 0.4048,-2.7455 -0.19,-4 l -2.85,-6 c -0.6293,-1.3228 -0.7606,-2.8282 -0.37,-4.24 1.0113,-3.4152 1.8161,-6.8881 2.41,-10.4 0,-1 -1.61,-2.66 -2.79,-3.48 l -0.14,-0.12 c -0.6196,-0.5155 -1.4479,-0.7049 -2.23,-0.51 -1.65,0.35 -5,2.48 -9.16,12.74 -0.0557,0.137 -0.1411,0.26 -0.25,0.36 l -2.25,2.07 c -1.1155,0.998 -2.0258,2.2038 -2.68,3.55 -0.3204,0.6881 -0.5652,1.409 -0.73,2.15 -0.2761,1.1368 -0.2761,2.3232 0,3.46 0.4599,1.5502 1.4982,2.8641 2.9,3.67 1.446,0.8742 3.0439,1.4679 4.71,1.75 0.5463,0.0726 0.9309,0.5735 0.86,1.12 -0.0775,0.5423 -0.5769,0.9212 -1.12,0.85 -1.9526,-0.3013 -3.8276,-0.9807 -5.52,-2 -1.8198,-1.0686 -3.1616,-2.7933 -3.75,-4.82 -0.3616,-1.4511 -0.3616,-2.9689 0,-4.42 0.1889,-0.8844 0.4809,-1.7436 0.87,-2.56 0.7478,-1.607 1.8046,-3.0511 3.11,-4.25 l 2.08,-1.91 c 3.41,-8.41 7,-13 10.6,-13.75 1.3848,-0.2913 2.8262,0.0783 3.9,1 0.59,0.42 3.67,2.72 3.58,5.16 -0.06,1.72 -1.7,8 -2.48,10.82 -0.2643,0.949 -0.1755,1.9616 0.25,2.85 l 2.85,6 c 0.8522,1.7935 0.9282,3.8588 0.21,5.71 l -4.55,9.22 -0.44,3.06 c -0.0787,0.4853 -0.4984,0.8414 -0.99,0.84 z"/><path id="path9" d="m 31.6248,68 c -0.5523,0 -1,-0.4477 -1,-1 l -0.31,-7.69 c -7e-4,-0.5333 0.4173,-0.9733 0.95,-1 0.5523,0 1,0.4477 1,1 l 0.36,7.69 c 0,0.5523 -0.4477,1 -1,1 z"/><path id="path10" fill="none" stroke="#000" stroke-linecap="round" stroke-linejoin="round" stroke-width="2" d="m 37.2548,21 c -3.06,0.59 -6.34,-1.59 -7.56,-5.17 -0.8919,-2.4129 -0.5165,-5.1121 1,-7.19 0.6396,-0.8445 1.5173,-1.4783 2.52,-1.82"/><path id="path11" fill="none" stroke="#000" stroke-linecap="round" stroke-linejoin="round" stroke-width="2" d="m 30.6448,8.65 v 0 c 0,0.35 0.62,6.84 9.94,5"/><path id="path12" fill="none" stroke="#000" stroke-linecap="round" stroke-linejoin="round" stroke-width="2" d="m 33.1648,6.84 c 0,0 8.07,-3.56 11.27,4 1.75,4.46 1.06,7.34 0.39,8.46 -0.6233,0.9691 -1.7863,1.4446 -2.91,1.19 -0.8306,-0.1804 -1.4199,-0.9201 -1.41,-1.77 l 0.09,-5 v 0"/><path id="path13" d="m 29.6148,50.81 c -0.7893,-0.0012 -1.5777,-0.0546 -2.36,-0.16 -0.5523,-0.0746 -0.9396,-0.5827 -0.865,-1.135 0.0746,-0.5523 0.5827,-0.9396 1.135,-0.865 5.73,0.79 7.18,-1.45 8.73,-4.65 2.31,-5.72 1.92,-13.35 1.91,-13.43 -10e-4,-0.5297 0.4113,-0.9682 0.94,-1 0.5488,-0.0284 1.0178,0.3914 1.05,0.94 0,0.32 0.42,8.15 -2.07,14.32 -1.54,3.17 -3.34,5.98 -8.47,5.98 z"/></g></svg>