<?xml version="1.0" encoding="UTF-8" standalone="no"?>
<svg
   id="emoji"
   viewBox="0 0 49.642742 42.859257"
   version="1.1"
   sodipodi:docname="1facf.svg"
   width="49.642742"
   height="42.859257"
   xmlns:inkscape="http://www.inkscape.org/namespaces/inkscape"
   xmlns:sodipodi="http://sodipodi.sourceforge.net/DTD/sodipodi-0.dtd"
   xmlns="http://www.w3.org/2000/svg"
   xmlns:svg="http://www.w3.org/2000/svg">
  <defs
     id="defs9" />
  <sodipodi:namedview
     id="namedview9"
     pagecolor="#ffffff"
     bordercolor="#000000"
     borderopacity="0.25"
     inkscape:showpageshadow="2"
     inkscape:pageopacity="0.0"
     inkscape:pagecheckerboard="0"
     inkscape:deskcolor="#d1d1d1" />
  <g
     id="color"
     transform="translate(-11.177808,-14.325745)">
    <g
       id="color-2">
      <path
         fill="#9b9b9a"
         d="m 44.8558,41.7055 1.8786,3.808 c 0.6568,1.1378 0.7836,2.5059 0.347,3.7451 l -0.5114,1.8044 -2.0759,2.672 -0.1644,0.8016 0.7399,0.4522 2.8651,-0.7223 c 3.101,-5.0856 3.6135,-7.7164 3.6135,-7.7164 l -0.6095,0.0923 c 0,0 -1.838,-5.0974 -2.791,-6.6006 l -3.2918,1.664 v -2e-4 0 z"
         id="path1" />
      <path
         fill="#9b9b9a"
         d="m 26.3104,44.8565 c 0.2066,0.9312 0.5895,1.8143 1.1281,2.6015 l 0.3661,1.8989 -1.521,4.604 0.3289,0.7605 0.9044,0.0617 2.308,-1.3851 1.1164,-2.6048 -1.0929,-7.2182 -1.3366,-2.1303 -2.2675,-1.0804 c -0.3199,-0.1524 -0.6788,0.1189 -0.6193,0.4683 l 0.6855,4.024 z"
         id="path2" />
      <path
         fill="#d0cfce"
         d="m 16.3106,16.1175 c 0.9122,2.7165 0.8009,4.0043 -1.6017,7.2077 -1.4375,1.5953 -4.0042,7.8419 -0.8009,8.0085 1.5753,-1.5224 6.4131,-4.2214 6.5845,-3.8169 l 1.1252,1.866 c 0,0 3.5408,5.419 3.5961,7.1849 0.5579,4.0751 3.6627,4.2449 4.3661,5.4334 0.9818,3.6078 1.8931,7.9973 2.0573,11.7581 -1.7411,2.0734 2.0133,4.8428 2.6164,1.6818 0.9274,-2.9327 -0.5833,-5.091 -0.5432,-8.0566 0.2073,-1.8195 -1.3827,-5.6395 0.219,-4.8387 1.6017,0.8008 11.2119,0 11.2119,0 l 2.6263,-2.2494 c 0,0 3.0376,3.7816 4.2605,6.2787 0.6858,2.855 0.3896,5.3039 -0.48,7.9835 -0.9306,2.0758 1.464,2.3946 2.4026,0 1.1372,-3.4549 1.5676,-5.2582 1.7302,-8.9221 -0.6032,-2.0222 -0.6152,-2.1156 0.4507,-4.3196 1.1664,-0.5832 1.5104,-4.3346 2.3113,-5.9363 -0.3085,-2.3657 -2.6165,-6.7119 -6.0293,-7.129 -6.5602,-1.6685 -10.504,3.0336 -21.0079,-0.3413 -1.8964,-2.8262 -4.8797,-7.0751 -8.1961,-8.1146 -2.1062,-0.5507 -3.8521,-5.087 -6.1578,-4.4864 l -0.7411,0.8085 v 0 z"
         id="path3" />
      <polygon
         fill="#3f3f3f"
         points="25.6162,19.3191 23.2139,18.2766 22.8967,19.1604 26.772,21.2227 30.33,24.9847 30.9192,23.9422 "
         id="polygon3" />
    </g>
  </g>
  <g
     id="line"
     transform="translate(-11.177808,-14.325745)">
    <g
       id="line-2">
      <path
         fill="none"
         stroke="#000000"
         stroke-linecap="round"
         stroke-linejoin="round"
         stroke-width="1.6017"
         d="m 21.1157,25.7278 c 0,1.619 -2.4554,3.095 -4.057,3.8856 -0.6723,0.3319 -1.28,0.7727 -1.8244,1.2882 -0.8505,0.8053 -2.1252,0.3942 -2.8394,-0.4097 -0.4605,-0.5183 -0.5325,-1.2832 -0.2398,-1.9117 1.1074,-2.378 2.1582,-3.9569 2.1582,-3.9569 -0.4052,-3.7007 3.4533,-4.5048 3.4533,-4.5048 l -1.8243,-3.8217 c -0.3495,-0.4553 -0.0575,-1.1116 0.5139,-1.1652 1.0035,-0.095 3.6959,2.2857 4.464,3.9858 0,0 6.2987,0.7471 10.379,8.3529 0.1906,0.3557 8.7109,1.8484 13.6705,0.3541 3.4309,-1.0331 13.6545,-1.6514 13.8387,8.4089 0.0936,5.1303 -0.1496,3.1393 1.2113,7.2219"
         id="path4" />
      <path
         fill="none"
         stroke="#000000"
         stroke-linecap="round"
         stroke-linejoin="round"
         stroke-width="1.6017"
         d="m 56.3259,39.7615 c -0.5832,1.3609 -0.5832,1.1664 -0.7776,1.7497 0,0 -0.3888,2.9161 0.4301,4.4613 l -1.0999,6.9794 c -0.0766,0.4863 -0.2262,0.9548 -0.4448,1.3959 -0.4347,0.8774 -1.013,2.113 -1.8942,2.0326 -1.072,0.019 -1.7077,-1.1798 -1.2363,-2.0318 0.7676,-1.7292 0.8919,-3.1506 1.0721,-7.3566 0,0 -5.3833,-5.2728 -4.8884,-9.9946"
         id="path5" />
      <path
         fill="none"
         stroke="#000000"
         stroke-linecap="round"
         stroke-linejoin="round"
         stroke-width="1.6017"
         d="m 22.3482,29.1737 2.1367,4.5112 c 0,0 -0.9234,5.0798 2.6324,7.3422 l 1.9397,1.2469 2.0125,7.3951 0.7341,3.8705 -0.3875,0.9714 c -0.3561,0.8921 0.3012,1.862 1.2621,1.862 v 0 c 0.5707,0 1.0803,-0.3567 1.2766,-0.893 l 0.5978,-1.6377 c 0.1923,-0.5266 0.2391,-1.0956 0.1357,-1.6466 l -1.0659,-4.0755 -0.1279,-5.3529 c 0,0 5.799,1.7146 11.4682,-0.482"
         id="path6" />
      <path
         fill="none"
         stroke="#000000"
         stroke-linecap="round"
         stroke-linejoin="round"
         stroke-width="1.6017"
         d="m 26.9371,44.9666 0.4833,3.5398 -1.3935,4.2341 -0.2941,0.7361 c -0.386,0.9666 0.3258,2.0173 1.3663,2.0173 v 0 c 0.5874,0 1.1188,-0.3493 1.351,-0.8889 l 0.6326,-1.4664"
         id="path7" />
      <path
         fill="none"
         stroke="#000000"
         stroke-linecap="round"
         stroke-linejoin="round"
         stroke-width="1.6017"
         d="m 47.2707,53.816 -1.1628,1.323 c -0.3347,0.3808 -0.8497,0.5495 -1.3454,0.4401 v 0 c -0.9794,-0.2163 -1.4183,-1.3598 -0.8273,-2.1703 1.1388,-1.5625 2.7181,-2.6829 3.8209,-6.8233 L 46.743,44.1474"
         id="path8" />
      <path
         fill="none"
         stroke="#000000"
         stroke-linecap="round"
         stroke-linejoin="round"
         stroke-width="1.6017"
         d="m 30.7259,25.7278 0.8009,-1.6017 c 0,0 -4.0043,-5.606 -8.8094,-6.4068 l -0.7135,1.6444"
         id="path9" />
    </g>
  </g>
</svg>
