<svg xmlns="http://www.w3.org/2000/svg" xmlns:svg="http://www.w3.org/2000/svg" id="emoji" width="40" height="58.3" version="1.1" viewBox="0 0 40 58.3"><g id="color" transform="translate(-16,-2.7003608)"><polygon id="polygon1" fill="#fcea2b" points="34.557 7.246 35.972 3.7 37.441 7.109 40.285 4.594 40.285 14.337 31.44 14.337 31.442 4.594"/><path id="path1" fill="#92d3f5" d="m 17,61 v -4 c 0,-4.9941 5.0078,-9 10,-9 6,5 12,5 18,0 4.9941,0 10,4.0059 10,9 v 4"/></g><g id="skin" transform="translate(-16,-2.7003608)"><path id="path2" fill="#fadcbc" d="m 24.9365,31 c 0,9 4.9365,14 11,14 C 41.873,45 47,40 47,31 c 0.0245,-1.7187 -0.3164,-3.4229 -1,-5 -3,-3 -7,-8 -7,-8 -4,3 -7,6 -13,7 0,0 -1.0635,1 -1.0635,6 z"/></g><g id="hair" transform="translate(-16,-2.7003608)"><path id="path3" fill="#a57939" d="M 31.44,11.5854 C 24.7638,13.45 22,19.4844 22,25.5185 22,32.7778 22,39 26,39 l -0.7854,-5.7856 0.5528,-7.7389 8.43,-4.0077 5.2515,-2.9712 L 46,26 46.9772,32 46,39 c 4,0 4,-6.2222 4,-13.4815 0,-6.1163 -2.84,-12.2326 -9.715,-14.007 v 2.8257 H 31.44 Z"/></g><g id="line" transform="translate(-16,-2.7003608)"><path id="path4" fill="none" stroke="#000" stroke-linecap="round" stroke-linejoin="round" stroke-width="2" d="M 44.0974,14.0887 C 48.2289,16.6842 50,21.3421 50,26 c 0,7 0,13 -4,13"/><path id="path5" fill="none" stroke="#000" stroke-linecap="round" stroke-linejoin="round" stroke-width="2" d="m 26,39 c -4,0 -4,-6 -4,-13 0,-4.6575 1.7708,-9.3149 5.9014,-11.9106"/><path id="path6" fill="none" stroke="#000" stroke-linecap="round" stroke-linejoin="round" stroke-width="2" d="m 17,60 v -3 c 0,-4.9941 5.0078,-9 10,-9 6,5 12,5 18,0 4.9941,0 10,4.0059 10,9 v 3"/><path id="path7" d="m 41.873,30 c 0,1.1046 -0.8954,2 -2,2 -1.1046,0 -2,-0.8954 -2,-2 0,-1.1046 0.8954,-2 2,-2 1.1046,0 2,0.8954 2,2"/><path id="path8" d="m 33.873,30 c 0,1.1046 -0.8954,2 -2,2 -1.1046,0 -2,-0.8954 -2,-2 0,-1.1046 0.8954,-2 2,-2 1.1046,0 2,0.8954 2,2"/><path id="path9" fill="none" stroke="#000" stroke-linejoin="round" stroke-width="2" d="m 24.9365,31 c 0,9 4.9365,14 11,14 C 41.873,45 47,40 47,31 c 0.0245,-1.7187 -0.3164,-3.4229 -1,-5 -3,-3 -7,-8 -7,-8 -4,3 -7,6 -13,7 0,0 -1.0635,1 -1.0635,6 z"/><path id="path10" fill="none" stroke="#000" stroke-linecap="round" stroke-linejoin="round" stroke-width="2" d="m 33,38 c 1.8826,0.9693 4.1174,0.9693 6,0"/><polygon id="polygon10" fill="none" stroke="#000" stroke-linecap="round" stroke-linejoin="round" stroke-width="2" points="34.557 7.246 35.972 3.7 37.441 7.109 40.285 4.594 40.285 14.337 31.44 14.337 31.442 4.594"/></g></svg>