<?xml version="1.0" encoding="UTF-8" standalone="no"?>
<svg
   id="emoji"
   viewBox="0 0 57.434666 40.027355"
   version="1.1"
   sodipodi:docname="1fad6.svg"
   width="57.434666"
   height="40.027355"
   xmlns:inkscape="http://www.inkscape.org/namespaces/inkscape"
   xmlns:sodipodi="http://sodipodi.sourceforge.net/DTD/sodipodi-0.dtd"
   xmlns="http://www.w3.org/2000/svg"
   xmlns:svg="http://www.w3.org/2000/svg">
  <defs
     id="defs1" />
  <sodipodi:namedview
     id="namedview1"
     pagecolor="#ffffff"
     bordercolor="#000000"
     borderopacity="0.25"
     inkscape:showpageshadow="2"
     inkscape:pageopacity="0.0"
     inkscape:pagecheckerboard="0"
     inkscape:deskcolor="#d1d1d1" />
  <g
     id="color"
     transform="translate(-7.4922821,-16)">
    <path
       id="color_fill"
       fill="#d0cfce"
       stroke-width="0"
       d="m 18.273,38 c -1.41,-0.60931 -4.279,-4.2418 -5.055,-5.3813 L 8.4924,31 c -0.10467,5.4196 7.2272,11.308 9.7639,12.939 1.4424,3.4789 3.1394,8.0545 10.465,11.076 h 14.557 c 9.8158,-1.9951 13.468,-11.723 9.0037,-21.151 l 5.0324,-0.03843 c 2.8145,-1.105 3.4014,5.3433 0.80722,9.292 -0.10454,3.1149 2.479,3.3155 3.5719,2.1226 1.1365,-1.6516 4.1237,-13.588 -1.125,-15.251 h -9.8858 l -1.0248,-1.9884 c -2.3831,-2.6294 -6.9124,-5.8892 -10.571,-6.25 -0.2155,-1.9868 -0.34607,-4.7443 -3.0875,-4.75 -3.9817,0.0072 -2.7102,2.8187 -3.0875,4.75 -4.8988,0.93751 -8.2176,2.9875 -10.571,5.8968 z" />
  </g>
  <g
     id="line"
     transform="translate(-7.4922821,-16)">
    <path
       id="top"
       fill="none"
       stroke="#000000"
       stroke-linecap="round"
       stroke-linejoin="round"
       stroke-width="2"
       d="m 22.341,28 c 1.9346,-2.9518 4.598,-6.25 10.571,-6.25 L 32.9995,19 c 0.40077,-1.6654 1.6087,-1.9855 3,-2 1.3913,0.01446 2.5992,0.33461 3,2 l 0.0875,2.75 c 5.9732,0 8.6367,3.2982 10.571,6.25" />
    <path
       id="spout"
       fill="none"
       stroke="#000000"
       stroke-linecap="round"
       stroke-linejoin="round"
       stroke-width="2"
       d="M 18.273,38 C 16.5956,37.49919 14.3088,34.6786 13.218,32.6187 L 8.4924,31 c -0.03625,7.2702 8.4702,12.736 9.7639,12.939" />
    <path
       id="body_lhs"
       fill="none"
       stroke="#000000"
       stroke-linejoin="round"
       stroke-width="2"
       d="m 22.342,28 c -10.115,19.308 1.7766,27.301 7.3792,27.016 h 12.556 C 47.8798,55.36397 59.7742,47.3082 49.6584,28 Z" />
    <path
       id="handle_in"
       fill="none"
       stroke="#000000"
       stroke-linecap="round"
       stroke-linejoin="round"
       stroke-width="2"
       d="m 52.282,33.863 4.7565,-0.0625 c 4.3904,-0.19398 2.059,7.2093 1.1784,9.0661 -0.94319,2.3026 1.6621,4.2152 3.4766,2.3726 3.4084,-4.9319 2.8179,-14.73 -1.125,-15.251 h -9.8858" />
  </g>
</svg>
