<svg xmlns="http://www.w3.org/2000/svg" xmlns:svg="http://www.w3.org/2000/svg" id="emoji" width="41.455" height="56.153" version="1.1" viewBox="0 0 41.455 56.153"><g id="color" transform="translate(-11.62118,-8.5419149)"><path id="path1" fill="#a57939" d="m 35,63 c -0.7613,-1.5092 -1.508,-3.3395 -2.2364,-5.5246 v 0 c -0.0081,-0.0173 -1.7458,-3.7139 -4.7288,-6.7613 -5.5137,-5.6328 -14.1275,-5.4056 -15.2306,-9.0947 -0.2293,-0.7668 -0.2058,-1.6502 0.1436,-2.6886 2.557,-7.5986 10.8739,0.5712 13.0677,-3.6912 2.1938,-4.2625 -11.9304,-17.2592 -2.7292,-22.1503 0.0305,-0.0162 0.0865,-0.0467 0.1654,-0.0873 1.6545,-0.8507 3.559,-0.8972 4.2232,-0.8497 2.079,0.1487 5.1074,2.194 6.6842,5.9143 0.5168,-0.6862 0.9225,-1.248 1.1781,-1.6062 2.0315,-2.846 2.5882,-4.033 4.2713,-5.7688 0.5566,-0.574 0.8348,-0.8611 1.0638,-1 2.4872,-1.5092 6.4337,0.4716 7.8704,1.9373 0.0977,0.0997 0.2027,0.2144 0.2028,0.2145 0.4602,0.4999 1.4159,1.6316 1.8069,2.9056 1.3909,4.5317 -4.4766,7.8831 -7.0121,17.2515 -1.3618,5.0316 -0.2039,6.0403 0.1034,6.2565 1.1708,0.8238 2.8069,-0.8426 5.0754,-0.0419 1.7794,0.628 3.2764,2.5368 3.1073,4.143 -0.1748,1.6599 -2.0282,2.0398 -3.1107,3.4991 -1.2216,1.6468 -1.641,4.9099 2.0749,12.0374 -0.7359,1.0051 -2.9545,3.7603 -6.9907,5.1055 -4.2443,1.4146 -7.8414,0.3846 -9,0 z"/><path id="path2" fill="#6a462f" d="M 48.92,38.21 C 46.6923,37.3995 45.0175,39.1235 43.84,38.26 43.54,38.04 42.43,37.05 43.74,32 46.15,22.71 52.16,19.33 50.75,14.75 50.23,13.04 48.84,11.72 48.74,11.63 48.042,11.0023 46.3383,9.3357 43.93,9.58 41.6091,9.8154 40.2538,11.6437 40,12 c 3.5078,1.259 4.5957,2.8936 5,4 1.7636,4.8259 -6.0008,9.1149 -6.0819,18.1552 -0.0184,2.054 -0.0488,5.4406 2.0112,6.9299 1.3246,0.9576 2.74,1.2464 3.1133,2.5319 0.2196,0.7563 0.1676,1.2026 0.1158,1.4451 -0.3128,1.462 -1.286,1.4485 -2.0094,3.0017 -0.4974,1.068 -0.1383,2.7074 2.0957,7.6702 0.8358,-0.1053 2.6593,-0.2131 4.6011,0.7285 0.9723,0.4715 1.6802,1.0634 2.1542,1.5374 -3.7136,-7.3849 -3.3669,-10.618 -2.08,-12.14 1.0446,-1.2355 2.7166,-1.353 3.08,-2.86 0.4091,-1.6965 -1.1013,-4.0701 -3.08,-4.79 z"/><path id="path3" fill="#fcea2b" d="m 50.9907,57.8945 c 0.3278,1.8473 -3.8676,4.2765 -7.2503,5.1788 -3.6598,0.9762 -8.7281,0.7945 -9.3219,-1.0358 -0.5881,-1.8129 3.2259,-5.2065 7.2503,-6.2146 4.0375,-1.0113 8.9902,0.2022 9.3219,2.0715 z"/></g><g id="line" transform="translate(-11.62118,-8.5419149)"><path id="path4" fill="none" stroke="#000" stroke-linecap="round" stroke-width="2.071" d="m 34.4185,62.0375 c -0.3044,-1.1874 -0.8051,-2.782 -1.6549,-4.5621 -0.248,-0.5196 -1.9914,-3.9647 -4.7289,-6.7613 -5.5137,-5.6328 -14.1275,-5.4056 -15.2306,-9.0947 -0.2293,-0.7668 -0.2058,-1.6502 0.1436,-2.6886 2.557,-7.5986 10.8739,0.5712 13.0677,-3.6912 2.1938,-4.2625 -11.9304,-17.2592 -2.7292,-22.1503 0,0 1.9276,-1.0906 4.3887,-0.937 3.4658,0.2162 7.3156,4.5237 9.0098,10.9051"/><path id="path5" fill="none" stroke="#000" stroke-linecap="round" stroke-width="2.071" d="m 37.5258,15.4282 c 2.0715,-3.1073 3.6306,-5.7691 6.4036,-5.8484 2.4715,-0.0706 4.41,1.6913 4.8134,2.049 0.102,0.0904 1.4851,1.411 2.0097,3.1201 1.4059,4.5804 -4.6028,7.9578 -7.0121,17.2515 -1.308,5.0458 -0.2039,6.0403 0.1034,6.2565 1.1708,0.8238 2.8069,-0.8426 5.0754,-0.0419 1.7794,0.628 3.2764,2.5368 3.1073,4.143 -0.1748,1.6599 -2.0282,2.0398 -3.1107,3.4991 -1.2216,1.6468 -1.641,4.9099 2.0749,12.0373"/><path id="path6" fill="none" stroke="#000" stroke-linecap="round" stroke-width="2.071" d="m 50.9907,57.8945 c 0.3278,1.8473 -3.8676,4.2765 -7.2503,5.1788 -3.6598,0.9762 -8.7281,0.7945 -9.3219,-1.0358 -0.5881,-1.8129 3.2259,-5.2065 7.2503,-6.2146 4.0375,-1.0113 8.9902,0.2022 9.3219,2.0715 z"/><path id="path7" fill="none" stroke="#000" stroke-linecap="round" stroke-width="2.071" d="M 43.7761,49.7495 C 45.89,49.966 47.4424,50.7121 48,51"/><path id="path8" fill="none" stroke="#000" stroke-linecap="round" stroke-width="2.071" d="M 28.4185,50.0375 C 28.748,49.3965 32.9906,45.2075 38,44 c 0.7552,-0.1821 1.6276,-0.2744 2.5509,-0.3015"/><path id="path9" fill="none" stroke="#000" stroke-linecap="round" stroke-width="2.071" d="M 33.5,33.5168 C 34.9896,32.7687 36.193,32.1295 38,32 c 2.107,-0.1511 3.8717,0.4741 5,1"/><path id="path10" fill="none" stroke="#000" stroke-linecap="round" stroke-width="2.071" d="M 32.6923,20.0707 C 33.5692,19.9967 34.3477,19.985 35,20"/><path id="path11" fill="none" stroke="#000" stroke-linecap="round" stroke-width="2.071" d="m 22,24 c 1.3145,-0.9385 3.3268,-2.1524 6,-3 0.106,-0.0336 0.2115,-0.0661 0.3164,-0.0977"/></g></svg>