<?xml version="1.0" encoding="UTF-8" standalone="no"?>
<svg
   id="emoji"
   viewBox="0 0 21.386875 41.999779"
   version="1.1"
   sodipodi:docname="1fad4.svg"
   width="21.386875"
   height="41.999779"
   xmlns:inkscape="http://www.inkscape.org/namespaces/inkscape"
   xmlns:sodipodi="http://sodipodi.sourceforge.net/DTD/sodipodi-0.dtd"
   xmlns="http://www.w3.org/2000/svg"
   xmlns:svg="http://www.w3.org/2000/svg">
  <defs
     id="defs11" />
  <sodipodi:namedview
     id="namedview11"
     pagecolor="#ffffff"
     bordercolor="#000000"
     borderopacity="0.25"
     inkscape:showpageshadow="2"
     inkscape:pageopacity="0.0"
     inkscape:pagecheckerboard="0"
     inkscape:deskcolor="#d1d1d1" />
  <g
     id="color"
     transform="translate(-25.306413,-15.108661)">
    <path
       fill="#fcea2b"
       d="m 43.5,39.3372 a 49.359,49.359 0 0 1 2.1921,12.5928 3.5779,3.5779 0 0 1 -2.9713,3.6183 41.7747,41.7747 0 0 1 -13.4416,0.0317 3.5806,3.5806 0 0 1 -2.9713,-3.6183 53.1249,53.1249 0 0 1 1.93,-12.057 L 28.5,32.88 A 49.3636,49.3636 0 0 1 26.3076,20.2871 3.5779,3.5779 0 0 1 29.2789,16.6688 41.7747,41.7747 0 0 1 42.7205,16.6371 3.5806,3.5806 0 0 1 45.6918,20.2554 51.9888,51.9888 0 0 1 43.4326,33.4 Z"
       id="path1" />
    <path
       fill="#f1b31c"
       d="M 38.53,16.1691 A 73.9661,73.9661 0 0 1 36,34.8579 l 2.9519,0.6275 4.4807,-2.0854 2.0733,-10.4947 v -4.6 l -3.3634,-1.94 z"
       id="path2" />
    <path
       fill="#f1b31c"
       d="m 37.1559,37.9509 a 43.66,43.66 0 0 1 2.3964,18.1575 L 43.817,55.3217 45.6921,51.93 43.5,39.3372 Z"
       id="path3" />
    <rect
       x="26.3064"
       y="34.555099"
       rx="1.5533"
       width="19.387199"
       height="3.1066"
       transform="rotate(-167.673,36,36.108)"
       fill="#b1cc33"
       id="rect3" />
    <rect
       x="26.3064"
       y="34.839901"
       rx="1.5533"
       width="19.387199"
       height="3.1066"
       transform="rotate(-12.328,35.997,36.391)"
       fill="#b1cc33"
       id="rect4" />
  </g>
  <g
     id="line"
     transform="translate(-25.306413,-15.108661)">
    <path
       fill="none"
       stroke="#000000"
       stroke-linecap="round"
       stroke-linejoin="round"
       stroke-width="2"
       d="M 28.5,32.88 A 49.3636,49.3636 0 0 1 26.3076,20.2871 3.5779,3.5779 0 0 1 29.2789,16.6688 41.7747,41.7747 0 0 1 42.7205,16.6371 3.5806,3.5806 0 0 1 45.6918,20.2554 51.9888,51.9888 0 0 1 43.4326,33.4"
       id="path4" />
    <rect
       x="26.3064"
       y="34.555099"
       rx="1.5533"
       width="19.387199"
       height="3.1066"
       transform="matrix(-0.976,-0.213,0.213,-0.976,63.461,79.069)"
       fill="none"
       stroke="#000000"
       stroke-linecap="round"
       stroke-linejoin="round"
       stroke-width="2"
       id="rect5" />
    <path
       fill="none"
       stroke="#000000"
       stroke-linecap="round"
       stroke-linejoin="round"
       stroke-width="2"
       d="m 37.1559,37.9509 -8.7769,1.918 A 1.5579,1.5579 0 0 1 26.53,38.683 v 0 a 1.5579,1.5579 0 0 1 1.1859,-1.8491 L 29.88,36.361"
       id="path5" />
    <path
       fill="none"
       stroke="#000000"
       stroke-linecap="round"
       stroke-linejoin="round"
       stroke-width="2"
       d="m 37.308,34.7378 6.313,-1.38 a 1.5578,1.5578 0 0 1 1.849,1.1864 v 0 a 1.5577,1.5577 0 0 1 -1.1859,1.849"
       id="path6" />
    <path
       fill="none"
       stroke="#000000"
       stroke-linecap="round"
       stroke-linejoin="round"
       stroke-width="2"
       d="m 31.2846,21.06 a 55.1412,55.1412 0 0 0 2.3261,12.9364"
       id="path7" />
    <path
       fill="none"
       stroke="#000000"
       stroke-linecap="round"
       stroke-linejoin="round"
       stroke-width="2"
       d="m 39.3742,21.06 a 43.6505,43.6505 0 0 1 -0.8446,6.7476"
       id="path8" />
    <path
       fill="none"
       stroke="#000000"
       stroke-linecap="round"
       stroke-linejoin="round"
       stroke-width="2"
       d="m 43.5,39.3372 a 49.359,49.359 0 0 1 2.1921,12.5928 3.5779,3.5779 0 0 1 -2.9713,3.6183 41.7747,41.7747 0 0 1 -13.4416,0.0317 3.5806,3.5806 0 0 1 -2.9713,-3.6183 53.1249,53.1249 0 0 1 1.93,-12.057"
       id="path9" />
    <path
       fill="none"
       stroke="#000000"
       stroke-linecap="round"
       stroke-linejoin="round"
       stroke-width="2"
       d="M 40.7154,51.1569 A 55.1427,55.1427 0 0 0 38.3893,38.22"
       id="path10" />
    <path
       fill="none"
       stroke="#000000"
       stroke-linecap="round"
       stroke-linejoin="round"
       stroke-width="2"
       d="m 32.6258,51.1569 a 43.6505,43.6505 0 0 1 0.8446,-6.7476"
       id="path11" />
  </g>
</svg>
