<?xml version="1.0" encoding="UTF-8" standalone="no"?>
<svg
   id="emoji"
   viewBox="0 0 55.599998 49.41161"
   version="1.1"
   sodipodi:docname="1fae1.svg"
   width="55.599998"
   height="49.41161"
   xmlns:inkscape="http://www.inkscape.org/namespaces/inkscape"
   xmlns:sodipodi="http://sodipodi.sourceforge.net/DTD/sodipodi-0.dtd"
   xmlns="http://www.w3.org/2000/svg"
   xmlns:svg="http://www.w3.org/2000/svg">
  <defs
     id="defs7" />
  <sodipodi:namedview
     id="namedview7"
     pagecolor="#ffffff"
     bordercolor="#000000"
     borderopacity="0.25"
     inkscape:showpageshadow="2"
     inkscape:pageopacity="0.0"
     inkscape:pagecheckerboard="0"
     inkscape:deskcolor="#d1d1d1" />
  <g
     id="color"
     transform="translate(-6.2,-11.38839)">
    <g
       id="salute">
      <path
         fill="#fcea2b"
         d="m 38,13.7 c -12.7025,0 -23,10.2975 -23,23 0,12.7025 10.2975,23 23,23 12.7025,0 23,-10.2975 23,-23 C 60.9982,23.9982 50.7018,13.7018 38,13.7 Z"
         id="path1" />
      <path
         fill="#fcea2b"
         d="M 10,34.3 16.6,28 c 1.7,1.3 2.6,0.9 4.7,0.8 2,-0.1 3.3,-2.3 5.6,-2.7 2.1,-0.4 3.3,-1.5 2.6,-2.8 -0.5036,-0.6877 -1.3723,-1.0036 -2.2,-0.8 -2.1,0.5 -4.7,1.4 -6.5,1 0,0 7.8988,-5.1721 13.6988,-9.4721 0.2209,-0.1343 0.2911,-0.4222 0.1569,-0.6431 -0.039,-0.0641 -0.0928,-0.1179 -0.1569,-0.1569 C 33.6988,12.7279 31.6,12.1 28.4,13.5 l -13,6.8 c 0,0 -5.2512,4.2515 -8.1512,6.4515 L 6.3465,27.4916 9.325,34.3 Z"
         id="path2" />
    </g>
  </g>
  <g
     id="line"
     transform="translate(-6.2,-11.38839)">
    <g
       id="line-2">
      <g
         id="line-3">
        <path
           fill="none"
           stroke="#000000"
           stroke-miterlimit="10"
           stroke-width="2"
           d="m 35.6,13.9 c 0.7302,-0.0832 1.4652,-0.1166 2.2,-0.1 12.7025,0 23,10.2975 23,23 0,12.7025 -10.2975,23 -23,23 -12.7025,0 -23,-10.2975 -23,-23 v 0 c 0.0076,-2.3758 0.3785,-4.7364 1.1,-7"
           id="path3" />
        <path
           fill="none"
           stroke="#000000"
           stroke-linecap="round"
           stroke-linejoin="round"
           stroke-width="2"
           d="m 28.9,43.8 5.9,0.5 c 2.0618,0.2 4.1382,0.2 6.2,0 l 6,-0.5"
           id="path4" />
        <path
           d="m 31.9,31.8 c 0,1.6569 -1.3431,3 -3,3 -1.6569,0 -3,-1.3431 -3,-3 0,-1.6569 1.3431,-3 3,-3 v 0 c 1.6549,0.0047 2.9953,1.3451 3,3"
           id="path5" />
        <path
           d="m 49.9,31.8 c 0,1.6569 -1.3431,3 -3,3 -1.6569,0 -3,-1.3431 -3,-3 0,-1.6569 1.3431,-3 3,-3 v 0 c 1.627,-0.0298 2.9702,1.265 3,2.892 7e-4,0.036 7e-4,0.072 0,0.108"
           id="path6" />
      </g>
      <path
         fill="none"
         stroke="#000000"
         stroke-linecap="round"
         stroke-linejoin="round"
         stroke-width="2"
         d="m 10.3,34 7.3,-5.9 c 1.7,1.3 1.8,1.1 3.9,1 2.5,0 4.2,-2.7 7.1,-3 2.7,-0.5 2.1,-3.2 0.4,-3.4 l -7.3,0.9 c 0,0 8.6,-5.5 14.4,-9.9 0,0 -1.0156,-0.9766 -2.9004,-1.2451 C 32.0687,12.2938 30.625,12.3875 28.9,13.1 l -10.3,5.6 c -1.9183,1.0122 -3.7278,2.2185 -5.4,3.6 -2.3,1.8 -4.2,3.3 -6,4.7"
         id="path7" />
    </g>
  </g>
</svg>
