<?xml version="1.0" encoding="UTF-8" standalone="no"?>
<svg
   id="emoji"
   viewBox="0 0 58.000732 34.5"
   version="1.1"
   sodipodi:docname="1fae6.svg"
   width="58.000732"
   height="34.5"
   xmlns:inkscape="http://www.inkscape.org/namespaces/inkscape"
   xmlns:sodipodi="http://sodipodi.sourceforge.net/DTD/sodipodi-0.dtd"
   xmlns="http://www.w3.org/2000/svg"
   xmlns:svg="http://www.w3.org/2000/svg">
  <defs
     id="defs14" />
  <sodipodi:namedview
     id="namedview14"
     pagecolor="#ffffff"
     bordercolor="#000000"
     borderopacity="0.25"
     inkscape:showpageshadow="2"
     inkscape:pageopacity="0.0"
     inkscape:pagecheckerboard="0"
     inkscape:deskcolor="#d1d1d1" />
  <g
     id="color"
     transform="translate(-6.9998082,-21.5)">
    <rect
       x="17"
       y="33"
       width="45"
       height="11"
       fill="#ffffff"
       id="rect1" />
    <path
       fill="#d22f27"
       d="M 23.5,36.5 H 20 L 14.5,38 8,37.5 C 18,47 40,55.5 50.5,55 61,54.5 64,37 64,37 60.1667,39 51.4,43 47,43 42.6,43 36.8333,39.3333 34.5,37.5 h -11 z"
       id="path1" />
    <path
       fill="#d22f27"
       fill-rule="evenodd"
       d="M 36.2503,23.9974 C 34.5557,23.9614 33.4161,23.5619 32.6015,23.1207 32.1671,22.8854 31.8082,22.629 31.4867,22.3806 31.4034,22.3162 31.3137,22.2449 31.2213,22.1715 30.9977,21.9938 30.7583,21.8035 30.555,21.6679 30.3907,21.5584 30.1977,21.5 30.0003,21.5 c -5.2896,0 -10.7438,2.4976 -14.9632,5.5663 -2.1203,1.542 -3.9644,3.2534 -5.35193,4.9185 -1.36216,1.6346 -2.35861,3.3129 -2.66164,4.8 -0.01981,0.0895 -0.02686,0.1796 -0.0221,0.2682 0.01596,0.2969 0.16444,0.5767 0.40933,0.7551 0.07152,0.0522 0.15072,0.0954 0.23627,0.1276 C 8.62077,38.3208 11.2027,39 14.5003,39 c 1.2214,0 2.2572,-0.3876 3.3148,-0.8721 0.3299,-0.1511 0.6596,-0.3101 1.0023,-0.4755 C 19.606,37.2719 20.4638,36.858 21.5529,36.431 24.6051,35.234 29.3531,34 38.0003,34 c 5.9042,0 12.3304,0.9859 17.3038,1.9806 2.4816,0.4963 4.5909,0.9926 6.0786,1.3645 0.7437,0.186 1.3316,0.3407 1.7326,0.4486 0.2005,0.054 0.3541,0.0963 0.4572,0.1249 l 0.116,0.0324 0.02,0.0057 c 0.0804,0.0246 0.1646,0.0392 0.2508,0.0427 0.1217,0.0051 0.2413,-0.0123 0.3535,-0.0494 0.2683,-0.0885 0.4949,-0.2891 0.6094,-0.5625 0.0457,-0.1084 0.0726,-0.2256 0.0775,-0.3467 0.0036,-0.0877 -0.0044,-0.1744 -0.0231,-0.2581 -0.3009,-1.4749 -1.2561,-3.1474 -2.572,-4.7843 C 61.0654,30.3325 59.2843,28.6193 57.2253,27.075 53.127,24.0013 47.7945,21.5 42.5003,21.5 c -0.1975,0 -0.3905,0.0584 -0.5547,0.1679 -0.2033,0.1356 -0.4427,0.3258 -0.6663,0.5035 -0.0922,0.0733 -0.1823,0.145 -0.2655,0.2092 -0.3215,0.2484 -0.6804,0.5048 -1.1148,0.7401 -0.8145,0.4412 -1.9542,0.8407 -3.6487,0.8767 z"
       clip-rule="evenodd"
       id="path2" />
    <path
       fill="none"
       stroke="#ea5a47"
       stroke-linecap="round"
       stroke-width="2"
       d="m 22,41 c 11,0 14.5,7.5 25.5,7.5"
       id="path3" />
    <path
       fill="none"
       stroke="#d22f27"
       stroke-linecap="round"
       stroke-width="2"
       d="M 64,37 C 64,42.5 61,55 50.5,55 24,55 8,37 8,37"
       id="path4" />
    <path
       fill="none"
       stroke="#d22f27"
       stroke-linecap="round"
       stroke-width="2"
       d="m 33,37.5 c 4,0 7.5,6 15.5,5.5 6.4,-0.4 13,-4 15.5,-6"
       id="path5" />
  </g>
  <g
     id="line"
     transform="translate(-6.9998082,-21.5)">
    <path
       fill="none"
       stroke="#000000"
       stroke-linecap="round"
       stroke-width="2"
       d="M 64,37 C 64,42.5 61,55 50.5,55 31.7819,55 18.3025,46.0195 12,40.745"
       id="path6" />
    <path
       fill="none"
       stroke="#000000"
       stroke-linecap="round"
       stroke-width="2"
       d="m 64,37 c -2.5,2 -9.1,5.6 -15.5,6 -4.4055,0.2753 -7.4463,-1.4205 -9.9575,-3"
       id="path7" />
    <path
       fill="none"
       stroke="#000000"
       stroke-linecap="round"
       stroke-width="2"
       d="m 8,37 c 0.83333,0.3333 3.3,1 6.5,1 4,0 6,-5 23.5,-5 12,0 26,4 26,4"
       id="path8" />
    <path
       fill="#000000"
       d="m 7.01942,36.8039 c -0.10831,0.5415 0.2429,1.0684 0.78446,1.1767 0.54156,0.1083 1.06839,-0.2429 1.1767,-0.7845 z M 30,22.5 30.5547,21.6679 C 30.3904,21.5584 30.1974,21.5 30,21.5 Z m 6.5,3.5 c 0.5523,0 1,-0.4477 1,-1 0,-0.5523 -0.4477,-1 -1,-1 z M 8.98058,37.1961 C 9.18221,36.188 9.93308,34.8111 11.2213,33.2652 12.49,31.7428 14.2085,30.1417 16.2132,28.6837 20.2438,25.7524 25.2896,23.5 30,23.5 v -2 c -5.2896,0 -10.7438,2.4976 -14.9632,5.5663 -2.1203,1.542 -3.9643,3.2534 -5.3519,4.9185 -1.36798,1.6416 -2.36711,3.3272 -2.66548,4.8191 z M 29.4453,23.3321 c 0.2127,0.1418 0.4158,0.3201 0.8183,0.6311 0.366,0.2828 0.8195,0.6097 1.3851,0.9161 C 32.7948,25.5001 34.3334,26 36.5,26 v -2 c -1.8334,0 -3.0448,-0.4167 -3.8987,-0.8793 -0.4344,-0.2353 -0.7934,-0.4917 -1.1149,-0.7401 -0.285,-0.2203 -0.6444,-0.5211 -0.9317,-0.7127 z"
       id="path9" />
    <path
       fill="#000000"
       d="m 64.9806,36.8039 c 0.1083,0.5415 -0.2429,1.0684 -0.7845,1.1767 -0.5415,0.1083 -1.0684,-0.2429 -1.1767,-0.7845 z M 42.5,22.5 41.9453,21.6679 C 42.1096,21.5584 42.3026,21.5 42.5,21.5 Z M 36,26 c -0.5523,0 -1,-0.4477 -1,-1 0,-0.5523 0.4477,-1 1,-1 z M 63.0194,37.1961 C 62.8154,36.1762 62.0859,34.7944 60.8456,33.2516 59.6224,31.73 57.9659,30.1307 56.025,28.675 52.1233,25.7487 47.2058,23.5 42.5,23.5 v -2 c 5.2942,0 10.6267,2.5013 14.725,5.575 2.0591,1.5443 3.8401,3.2575 5.1794,4.9234 1.3222,1.6447 2.2802,3.3254 2.5762,4.8055 z M 43.0547,23.3321 c -0.2127,0.1418 -0.4158,0.3201 -0.8183,0.6311 -0.366,0.2828 -0.8195,0.6097 -1.3851,0.9161 C 39.7052,25.5001 38.1666,26 36,26 v -2 c 1.8334,0 3.0448,-0.4167 3.8987,-0.8793 0.4344,-0.2353 0.7934,-0.4917 1.1149,-0.7401 0.285,-0.2203 0.6444,-0.5211 0.9317,-0.7127 z"
       id="path10" />
    <path
       fill="none"
       stroke="#000000"
       stroke-linecap="round"
       stroke-width="2"
       d="m 28,36 c 0,0.5 0.3,1.5 1.5,1.5 1.2,0 3.1667,0 5,0 0.5,0 1.5,-0.3 1.5,-1.5"
       id="path11" />
    <path
       fill="none"
       stroke="#000000"
       stroke-linecap="round"
       stroke-width="2"
       d="m 36,36 c 0,0.5 0.3,1.5 1.5,1.5 1.2,0 3.1667,0 5,0 0.5,0 1.5,-0.3 1.5,-1.5"
       id="path12" />
    <path
       fill="none"
       stroke="#000000"
       stroke-linecap="round"
       stroke-width="2"
       d="m 44,36 c 0,0.5 0.3,1.5 1.5,1.5 1.2,0 3.1667,0 5,0"
       id="path13" />
    <path
       fill="none"
       stroke="#000000"
       stroke-linecap="round"
       stroke-width="2"
       d="m 28,36 c 0,0.5 -0.3,1.5 -1.5,1.5 -1.2,0 -1.6667,0 -3.5,0"
       id="path14" />
  </g>
</svg>
