<?xml version="1.0" encoding="UTF-8" standalone="no"?>
<svg
   id="emoji"
   viewBox="0 0 48 48"
   version="1.1"
   sodipodi:docname="1fae3.svg"
   width="48"
   height="48"
   xmlns:inkscape="http://www.inkscape.org/namespaces/inkscape"
   xmlns:sodipodi="http://sodipodi.sourceforge.net/DTD/sodipodi-0.dtd"
   xmlns="http://www.w3.org/2000/svg"
   xmlns:svg="http://www.w3.org/2000/svg">
  <defs
     id="defs14" />
  <sodipodi:namedview
     id="namedview14"
     pagecolor="#ffffff"
     bordercolor="#000000"
     borderopacity="0.25"
     inkscape:showpageshadow="2"
     inkscape:pageopacity="0.0"
     inkscape:pagecheckerboard="0"
     inkscape:deskcolor="#d1d1d1" />
  <g
     id="color"
     transform="translate(-12,-12)">
    <path
       fill="#ffffff"
       d="m 41.62,48.55 v 0.01 c -0.56,2.6 -2.86,4.53 -5.62,4.53 -2.76,0 -5.06,-1.93 -5.62,-4.53 v -0.01 l 2.68,-6.1 c 0.01,-0.01 0.01,-0.02 0.02,-0.04 0.86,-0.52 1.86,-0.81 2.92,-0.81 1.06,0 2.06,0.29 2.92,0.81 h 0.01 z"
       id="path1" />
    <path
       fill="#ffffff"
       d="m 47.04,38.39 c -0.56,0.25 -1.19,0.39 -1.84,0.41 -1.17,-1.97 -1.89,-3.42 -2.52,-4.77 -0.87,-1.8701 -1.76,-2.46 -2.44,-2.45 0.43,-0.97 1.13,-1.79 2.02,-2.34 0.8,-0.5 1.74,-0.79 2.74,-0.79 0.88,0 1.7,0.22 2.43,0.61 -0.49,1.8 -0.01,5.37 -0.39,9.33 z"
       id="path2" />
  </g>
  <g
     id="skin"
     transform="translate(-12,-12)">
    <circle
       cx="36"
       cy="36"
       r="23"
       fill="none"
       stroke="#fcea2b"
       stroke-linecap="round"
       stroke-linejoin="round"
       stroke-width="2"
       id="circle2" />
    <path
       id="skin-2"
       fill="#fcea2b"
       d="M 36,13 C 23.2974,13 13,23.2974 13,36 13,48.7026 23.2974,59 36,59 48.7026,59 59,48.7026 59,36 59,23.2974 48.7026,13 36,13 Z m 5.62,35.56 c -0.56,2.6 -2.86,4.53 -5.62,4.53 -2.76,0 -5.06,-1.9301 -5.62,-4.53 v -0.01 l 2.68,-6.1 c 0.01,-0.01 0.01,-0.02 0.02,-0.04 0.86,-0.52 1.86,-0.81 2.92,-0.81 1.06,0 2.06,0.29 2.92,0.81 h 0.01 l 2.69,6.14 z m 5.42,-10.17 c -0.56,0.25 -1.19,0.39 -1.84,0.41 -1.17,-1.97 -1.89,-3.42 -2.52,-4.77 -0.87,-1.8701 -1.76,-2.46 -2.44,-2.45 0.43,-0.97 1.13,-1.79 2.02,-2.34 0.8,-0.5 1.74,-0.79 2.74,-0.79 0.88,0 1.7,0.22 2.43,0.61 -0.49,1.8 -0.01,5.37 -0.39,9.33 z" />
    <path
       fill="#fcea2b"
       d="m 16.0359,57.8762 c 0.6,-3 1.169,-6.1968 1.369,-7.0968 -0.4,-0.8 -0.8,-1.7 -1.2,-2.5 -0.2,-0.4 -0.6,-1.6 -1.2,-8.3 -0.2,-2 -0.1,-3.1 0.5,-3.8 0.2894,-0.3703 0.7301,-0.5906 1.2,-0.6 1.3,0 2.1128,1.1756 2.3896,3.4044 2.7603,-7.3627 4.0952,-11.5004 6.4169,-10.2728 1.1145,0.5893 0.898,1.837 0.898,1.837 1.774,-4.0421 5.0508,-1.4963 3.3908,1.4442 0,0 1.6297,-1.3548 2.658,-0.029 0.6537,0.8428 0.2595,1.7936 -1.036,4.5196 1.6014,-1.8518 3.3371,-0.0749 2.9059,1.7059 -2.4426,10.0891 -7.8439,16.3489 -7.8439,16.3489 0,0 -0.6175,2.5635 -0.7412,4.0396 l -9.7071,-0.7009 z"
       id="path3" />
    <path
       fill="#fcea2b"
       d="M 46.3837,58.5627 C 46.2537,57.0827 45.52,54.54 45.52,54.54 c 0,0 -5.41,-6.26 -7.85,-16.35 -0.43,-1.78 1.14,-3.18 2.53,-1.79 -1.55,-2.92 -1.78,-4.25 -0.33,-4.76 0.12,-0.04 0.23,-0.06 0.37,-0.06 0.68,-0.01 1.57,0.58 2.44,2.45 0.63,1.35 1.35,2.8 2.52,4.77 0.41,0.7 0.89,1.47 1.43,2.33 0.2,-0.92 0.33,-1.84 0.41,-2.74 0.38,-3.96 -0.1,-7.53 0.39,-9.33 0.22,-0.83 0.65,-1.29 1.46,-1.24 0.89,0.06 1.56,0.91 1.4,2.18 0,0 0.75,-1.49 2.21,-0.72 1.22,0.65 0.74,1.89 0.41,9.7 0.27,-2.22 1.09,-3.4 2.39,-3.4 0.46,0.01 0.91,0.23 1.2,0.6 0.6,0.7 0.7,1.8 0.5,3.8 -0.6,6.7 -1,7.9 -1.2,8.3 -0.4,0.8 -0.8,1.7 -1.2,2.5 0.2,0.9 0.7549,4.101 1.3549,7.101 l -9.5713,0.6816 z"
       id="path4" />
  </g>
  <g
     id="line"
     transform="translate(-12,-12)">
    <path
       fill="none"
       stroke="#000000"
       stroke-linecap="round"
       stroke-linejoin="round"
       stroke-width="2"
       d="M 42.2391,58.1437 C 40.2551,58.7016 38.1624,59 36,59 33.7611,59 31.5969,58.6801 29.5506,58.0835"
       id="path5" />
    <path
       fill="none"
       stroke="#000000"
       stroke-linecap="round"
       stroke-linejoin="round"
       stroke-width="2"
       d="M 15.8745,47.1427 C 14.043,43.8417 13,40.0427 13,36 13,23.2975 23.2975,13 36,13 c 12.7025,0 23,10.2975 23,23 0,4.0427 -1.043,7.8418 -2.8747,11.1429"
       id="path6" />
    <path
       fill="none"
       stroke="#000000"
       stroke-linecap="round"
       stroke-linejoin="round"
       stroke-width="2"
       d="m 33.08,42.41 c 0.86,-0.52 1.86,-0.81 2.92,-0.81 1.06,0 2.06,0.29 2.92,0.81 h 0.01"
       id="path7" />
    <path
       fill="none"
       stroke="#000000"
       stroke-linecap="round"
       stroke-linejoin="round"
       stroke-width="2"
       d="m 41.62,48.55 v 0.01 c -0.56,2.6 -2.86,4.53 -5.62,4.53 -2.76,0 -5.06,-1.93 -5.62,-4.53 v -0.01"
       id="path8" />
    <path
       fill="none"
       stroke="#000000"
       stroke-linecap="round"
       stroke-linejoin="round"
       stroke-width="2"
       d="m 28.6372,22.3427 c -3.076,-0.8804 -6.4735,0.3898 -8.163,3.2789"
       id="path9" />
    <path
       fill="none"
       stroke="#000000"
       stroke-linecap="round"
       stroke-linejoin="round"
       stroke-width="2"
       d="m 43.3628,22.3427 c 3.076,-0.8804 6.4735,0.3898 8.163,3.2789"
       id="path10" />
    <path
       fill="none"
       stroke="#000000"
       stroke-linecap="round"
       stroke-linejoin="round"
       stroke-width="2"
       d="m 16.1049,56.8794 c 0.6,-3 1.1,-5.2 1.3,-6.1 -0.4,-0.8 -0.8,-1.7 -1.2,-2.5 -0.2,-0.4 -0.6,-1.6 -1.2,-8.3 -0.2,-2 -0.1,-3.1 0.5,-3.8 0.2894,-0.3703 0.7301,-0.5906 1.2,-0.6 1.3,0 2.1128,1.1756 2.3896,3.4044 2.7603,-7.3627 4.0952,-11.5004 6.4169,-10.2728 1.1145,0.5893 0.898,1.837 0.898,1.837 1.774,-4.0421 5.0508,-1.4963 3.3908,1.4442 0,0 1.6297,-1.3548 2.658,-0.029 0.6537,0.8428 0.2595,1.7936 -1.036,4.5196 1.6014,-1.8518 3.3371,-0.0749 2.9059,1.7059 -2.4426,10.0891 -7.8439,16.3489 -7.8439,16.3489 0,0 -0.5556,1.5658 -0.6793,3.0419"
       id="path11" />
    <path
       d="m 46.9428,33.6341 c 0,1.0703 -0.8693,1.9388 -1.9388,1.9388 -1.0695,0 -1.9388,-0.8678 -1.9388,-1.9388 0,-1.0695 0.8693,-1.9388 1.9388,-1.9388 1.0695,0 1.9388,0.8693 1.9388,1.9388"
       id="path12" />
    <path
       fill="none"
       stroke="#000000"
       stroke-linecap="round"
       stroke-linejoin="round"
       stroke-width="2"
       d="m 46.2,57.58 c -0.13,-1.48 -0.68,-3.04 -0.68,-3.04 0,0 -5.41,-6.26 -7.85,-16.35 -0.43,-1.78 1.14,-3.18 2.53,-1.79 -1.55,-2.92 -1.78,-4.25 -0.33,-4.76 0.12,-0.04 0.23,-0.06 0.37,-0.06 0.68,-0.01 1.57,0.58 2.44,2.45 0.63,1.35 1.35,2.8 2.52,4.77 0.41,0.7 0.89,1.47 1.43,2.33 0.2,-0.92 0.33,-1.84 0.41,-2.74 0.38,-3.96 -0.1,-7.53 0.39,-9.33 0.22,-0.83 0.65,-1.29 1.46,-1.24 0.89,0.06 1.56,0.91 1.4,2.18 0,0 0.75,-1.49 2.21,-0.72 1.22,0.65 0.74,1.89 0.41,9.7 0.27,-2.22 1.09,-3.4 2.39,-3.4 0.46,0.01 0.91,0.23 1.2,0.6 0.6,0.7 0.7,1.8 0.5,3.8 -0.6,6.7 -1,7.9 -1.2,8.3 -0.4,0.8 -0.8,1.7 -1.2,2.5 0.2,0.9 0.7,3.1 1.3,6.1"
       id="path13" />
    <path
       fill="none"
       stroke="#000000"
       stroke-miterlimit="10"
       stroke-width="2"
       d="m 40.24,31.58 c 0.43,-0.97 1.13,-1.79 2.02,-2.34 0.8,-0.5 1.74,-0.79 2.74,-0.79 0.88,0 1.7,0.22 2.43,0.61"
       id="path14" />
  </g>
</svg>
