<svg xmlns="http://www.w3.org/2000/svg" xmlns:svg="http://www.w3.org/2000/svg" id="emoji" width="50" height="50" version="1.1" viewBox="0 0 50 50"><g id="line-supplement" transform="translate(-11,-11)"><path id="path1" fill="none" stroke="#000" stroke-linecap="round" stroke-linejoin="round" stroke-width="4" d="m 40,47.091 c 0.243,-0.4392 0.5461,-0.8404 0.8984,-1.1926 C 41.2506,45.5461 41.6518,45.243 42.091,45"/><path id="path2" fill="none" stroke="#000" stroke-linecap="round" stroke-linejoin="round" stroke-width="3" d="m 48.5,25.5 c 0.1162,-0.21 0.2612,-0.4019 0.4296,-0.5704 C 49.0981,24.7612 49.29,24.6162 49.5,24.5"/><path id="path3" fill="none" stroke="#000" stroke-linecap="round" stroke-linejoin="round" stroke-width="4" d="m 18,21.3456 c 0.3888,-0.7027 0.8738,-1.3447 1.4374,-1.9082 0.5635,-0.5636 1.2055,-1.0486 1.9082,-1.4374"/></g><g id="color" transform="translate(-11,-11)"><path id="path4" fill="#92d3f5" d="M 24.5,39 C 31.9558,39 38,32.9558 38,25.5 38,18.0442 31.9558,12 24.5,12 17.0442,12 11,18.0442 11,25.5 11,32.9558 17.0442,39 24.5,39 Z"/><path id="path5" fill="#92d3f5" d="m 51.2987,35.7002 c 4.3591,0 7.8929,-3.5337 7.8929,-7.8929 0,-4.3591 -3.5338,-7.8929 -7.8929,-7.8929 -4.3592,0 -7.8929,3.5338 -7.8929,7.8929 0,4.3592 3.5337,7.8929 7.8929,7.8929 z"/><path id="path6" fill="#92d3f5" d="m 44,60 c 5.5228,0 10,-4.4772 10,-10 0,-5.5228 -4.4772,-10 -10,-10 -5.5228,0 -10,4.4772 -10,10 0,5.5228 4.4772,10 10,10 z"/><path id="path7" fill="none" stroke="#61b2e4" stroke-linecap="round" stroke-linejoin="round" stroke-width="10" d="M 32,25.5 C 32,29.0899 29.0899,32 25.5,32"/><path id="path8" fill="none" stroke="#61b2e4" stroke-linecap="round" stroke-linejoin="round" stroke-width="6" d="m 50,50 c 0,2.7614 -2.2386,5 -5,5"/><path id="path9" fill="none" stroke="#61b2e4" stroke-linecap="round" stroke-linejoin="round" stroke-width="5" d="m 55.5,28.5 c 0,1.6569 -1.3431,3 -3,3"/><path id="path10" fill="none" stroke="#fff" stroke-linecap="round" stroke-linejoin="round" stroke-width="4" d="m 40,47.091 c 0.243,-0.4392 0.5461,-0.8404 0.8984,-1.1926 C 41.2506,45.5461 41.6518,45.243 42.091,45"/><path id="path11" fill="none" stroke="#fff" stroke-linecap="round" stroke-linejoin="round" stroke-width="3" d="m 48.5,25.5 c 0.1162,-0.21 0.2612,-0.4019 0.4296,-0.5704 C 49.0981,24.7612 49.29,24.6162 49.5,24.5"/><path id="path12" fill="none" stroke="#fff" stroke-linecap="round" stroke-linejoin="round" stroke-width="4" d="m 18,21.3456 c 0.3888,-0.7027 0.8738,-1.3447 1.4374,-1.9082 0.5635,-0.5636 1.2055,-1.0486 1.9082,-1.4374"/></g><g id="line" transform="translate(-11,-11)"><path id="path13" fill="none" stroke="#000" stroke-linecap="round" stroke-linejoin="round" stroke-width="2" d="M 25.5,39 C 32.9558,39 39,32.9558 39,25.5 39,18.0442 32.9558,12 25.5,12 18.0442,12 12,18.0442 12,25.5 12,32.9558 18.0442,39 25.5,39 Z"/><path id="path14" fill="none" stroke="#000" stroke-linecap="round" stroke-linejoin="round" stroke-width="2" d="m 52,36 c 4.4183,0 8,-3.5817 8,-8 0,-4.4183 -3.5817,-8 -8,-8 -4.4183,0 -8,3.5817 -8,8 0,4.4183 3.5817,8 8,8 z"/><path id="path15" fill="none" stroke="#000" stroke-linecap="round" stroke-linejoin="round" stroke-width="2" d="m 45,60 c 5.5228,0 10,-4.4772 10,-10 0,-5.5228 -4.4772,-10 -10,-10 -5.5228,0 -10,4.4772 -10,10 0,5.5228 4.4772,10 10,10 z"/><path id="path16" fill="none" stroke="#000" stroke-linecap="round" stroke-linejoin="round" stroke-width="2" d="m 45,60 c 5.5228,0 10,-4.4772 10,-10 0,-5.5228 -4.4772,-10 -10,-10 -5.5228,0 -10,4.4772 -10,10 0,5.5228 4.4772,10 10,10 z"/></g></svg>