<?xml version="1.0" encoding="UTF-8" standalone="no"?>
<svg
   id="emoji"
   viewBox="0 0 59.090237 61.534725"
   version="1.1"
   sodipodi:docname="1faf7-1f3fc.svg"
   width="59.090237"
   height="61.534725"
   xmlns:inkscape="http://www.inkscape.org/namespaces/inkscape"
   xmlns:sodipodi="http://sodipodi.sourceforge.net/DTD/sodipodi-0.dtd"
   xmlns="http://www.w3.org/2000/svg"
   xmlns:svg="http://www.w3.org/2000/svg">
  <defs
     id="defs6" />
  <sodipodi:namedview
     id="namedview6"
     pagecolor="#ffffff"
     bordercolor="#000000"
     borderopacity="0.25"
     inkscape:showpageshadow="2"
     inkscape:pageopacity="0.0"
     inkscape:pagecheckerboard="0"
     inkscape:deskcolor="#d1d1d1" />
  <g
     id="color"
     transform="translate(-8.5123635,-6.0615741)">
    <path
       fill="#92d3f5"
       d="m 22.6059,66.6568 c 6.5766,-2.8186 10.5132,-10.3347 8.0799,-18.4052 l 36.0775,3.3729 V 66.6568 H 26.3639 c 0,0 -3.7581,0 -3.7581,0 z"
       id="path1" />
    <path
       fill="#61b2e4"
       d="m 22.6059,66.6568 q 4.6976,-2.8186 6.5766,-5.6371 l 37.5807,0.9395 v 4.6976 H 26.3639 c 0,0 -3.7581,0 -3.7581,0 z"
       id="path2" />
  </g>
  <g
     id="skin"
     transform="translate(-8.5123635,-6.0615741)">
    <path
       fill="#debb90"
       d="m 18.8478,59.1406 c -0.9395,0 -5.6371,-3.8238 -5.6371,-5.6371 l -3.7581,-15.9718 1.879,-4.6976 h 2.6776 c 0,0 0,-23.8732 0,-23.8732 0.2323,-1.0679 1.134,-1.8595 2.223,-1.9516 1.3701,-0.1159 2.5748,0.9009 2.6907,2.271 l 2.5085,16.7422 c 0.4322,2.7152 1.6442,2.7152 2.1139,5.4304 0.6765,5.2895 1.2871,14.5344 7.5161,18.2924 0,5.5432 0.9395,12.2137 -6.5766,15.0323 0,-0.6107 -4.8949,-5.6371 -5.6371,-5.6371 z"
       id="path3" />
  </g>
  <g
     id="line"
     transform="translate(-8.5123635,-6.0615741)">
    <path
       fill="none"
       stroke="#000000"
       stroke-linecap="round"
       stroke-linejoin="round"
       stroke-width="1.879"
       d="m 22.5057,66.6568 c 6.5766,-2.8186 10.5132,-10.3347 8.0799,-18.4052 l 36.0775,3.3729 v 15.0323 z"
       id="path4" />
    <g
       id="line-2">
      <path
         fill="none"
         stroke="#000000"
         stroke-linecap="round"
         stroke-linejoin="round"
         stroke-width="1.879"
         d="m 19.6872,46.9269 c 0,-3.7581 -3.7581,-5.6371 -3.7581,-8.4557 0,-4.6976 -1.879,-6.5766 -4.6976,-5.6371 -2.8186,0.9395 -1.879,9.3952 0,13.1533 0.8174,1.6348 0.9395,5.6371 0.9395,5.6371 0.1127,2.3488 3.7581,7.5161 6.5766,7.5161 1.879,0 5.6371,5.017 5.6371,5.6371"
         id="path5" />
    </g>
    <path
       fill="none"
       stroke="#000000"
       stroke-linecap="round"
       stroke-linejoin="round"
       stroke-width="1.879"
       d="M 30.8956,49.7455 C 24.6666,45.9874 24.0559,36.7332 23.4076,31.4437 22.9378,28.7285 21.7259,28.7285 21.2937,26.0133 L 18.8228,9.2805 C 18.7307,8.1915 17.9391,7.2899 16.8712,7.0575 15.5276,6.7652 14.2014,7.6174 13.9091,8.961 v 20.1621"
       id="path6" />
  </g>
</svg>
