<svg xmlns="http://www.w3.org/2000/svg" xmlns:svg="http://www.w3.org/2000/svg" id="emoji" width="38.196" height="58.742" version="1.1" viewBox="0 0 38.196 58.742"><g id="color" transform="translate(-16.901403,-6.2829)"><circle id="circle1" cx="39.866" cy="46.247" r="3.866" fill="#fcea2b"/></g><g id="skin" transform="translate(-16.901403,-6.2829)"><path id="path1" fill="#fcea2b" d="m 31.2093,13.9433 c 0.6705,-3.2503 4.0434,-6.6603 6.857,-6.6603 1.6504,0 2.3534,0.6565 2.3534,2.0065 0,7.0439 0.9289,9.4563 3.4356,15.1189 L 48.462,33.5441 31.1413,17.3864 Z"/><path id="path2" fill="#fcea2b" d="m 33.7419,32.0882 c -1.6066,-1.6066 -4.2115,-1.6066 -5.8182,0 -1.6067,1.6066 -1.6066,4.2115 0,5.8182 l 1.4969,1.4387 c -1.6066,-1.6066 -4.2115,-1.6066 -5.8182,0 -1.6067,1.6066 -1.6066,4.2115 0,5.8182 l 1.4545,1.4545 c -1.6066,-1.6066 -4.2115,-1.6066 -5.8182,0 -1.6067,1.6066 -1.6066,4.2115 0,5.8182 l 6.7966,6.7757 c 6.4264,6.4264 16.8456,6.4264 23.272,0 6.4264,-6.4264 6.3817,-16.8009 -0.0447,-23.2273 l -5.982,-5.982 -18.3699,-18.37 c -1.6049,-1.6049 -4.207,-1.6049 -5.8119,0 -1.6049,1.6049 -1.6049,4.207 0,5.8119 l 14.6435,14.6435"/></g><g id="line" transform="translate(-16.901403,-6.2829)"><path id="path3" fill="none" stroke="#000" stroke-linecap="round" stroke-linejoin="round" stroke-width="2" d="m 33.7419,32.0882 c -1.6066,-1.6066 -4.2115,-1.6066 -5.8182,0 -1.6067,1.6066 -1.6066,4.2115 0,5.8182 l 1.4969,1.4387 c -1.6066,-1.6066 -4.2115,-1.6066 -5.8182,0 -1.6067,1.6066 -1.6066,4.2115 0,5.8182 l 1.4545,1.4545 c -1.6066,-1.6066 -4.2115,-1.6066 -5.8182,0 -1.6067,1.6066 -1.6066,4.2115 0,5.8182 l 6.7966,6.7757 c 6.4264,6.4264 16.8456,6.4264 23.272,0 6.4264,-6.4264 6.3817,-16.8009 -0.0447,-23.2273 l -5.982,-5.982 -18.3699,-18.37 c -1.6049,-1.6049 -4.207,-1.6049 -5.8119,0 -1.6049,1.6049 -1.6049,4.207 0,5.8119 l 14.6435,14.6435 z"/><path id="path4" fill="none" stroke="#000" stroke-linecap="round" stroke-linejoin="round" stroke-width="2" d="m 32.2004,13.6461 c 0,-3.688 3.0522,-6.3632 5.8659,-6.3632 1.6504,0 2.3534,0.6565 2.3534,2.0065 0,6.8778 0.2017,10.1006 2.5447,15.5202"/></g></svg>