<?xml version="1.0" encoding="UTF-8" standalone="no"?>
<svg
   id="emoji"
   viewBox="0 0 45.743233 44.912403"
   version="1.1"
   sodipodi:docname="1faf5-1f3fd.svg"
   width="45.743233"
   height="44.912403"
   xmlns:inkscape="http://www.inkscape.org/namespaces/inkscape"
   xmlns:sodipodi="http://sodipodi.sourceforge.net/DTD/sodipodi-0.dtd"
   xmlns="http://www.w3.org/2000/svg"
   xmlns:svg="http://www.w3.org/2000/svg">
  <defs
     id="defs9" />
  <sodipodi:namedview
     id="namedview9"
     pagecolor="#ffffff"
     bordercolor="#000000"
     borderopacity="0.25"
     inkscape:showpageshadow="2"
     inkscape:pageopacity="0.0"
     inkscape:pagecheckerboard="0"
     inkscape:deskcolor="#d1d1d1" />
  <g
     id="color"
     transform="translate(-12.4,-12.717583)" />
  <g
     id="skin"
     transform="translate(-12.4,-12.717583)">
    <path
       fill="#c19a65"
       d="m 13.1,25.7 c 0,0 0.1,6.3 0.4,10.7 0.3,3.2 0,5.2 0,5.2 0,0 0.1,3.2 1,5.2 1,2.1 8.3,7.2 8.3,7.2 0,0 9.5,2.4 12.4,2.1 9.3,-1 14.4,-4.2 16.5,-5.7 2.1,-1.5 5.1,-2.8 6.2,-8.9 1.1,-6.1 -1.7,-12 -5,-15.2 l 0.6,-4.4 c 0,0 -0.4,-7.1 -1.1,-7.1 -0.7,0 -6.9,-0.8 -6.9,-0.8 l -3,3.5 -3.1,-2.2 H 34.6 L 32.3,19 28.1,18 H 25 l -2.4,3.1 -0.8,2.5 -4.2,-1.8 -2.1,0.5 z"
       id="path1" />
  </g>
  <g
     id="line"
     transform="translate(-12.4,-12.717583)">
    <g
       id="g9">
      <path
         fill="none"
         stroke="#000000"
         stroke-linecap="round"
         stroke-linejoin="round"
         stroke-width="2"
         d="m 13.6,42.9 c 2.4,5.6 7,10.2 13.2,12.4 6.4,2.3 13.2,1.5 18.7,-1.5"
         id="path2" />
      <path
         fill="none"
         stroke="#000000"
         stroke-linecap="round"
         stroke-linejoin="round"
         stroke-width="2"
         d="m 31.8,37.3 c 0,1.3 -0.9,2.4 -2.3,3.1 -1.4,0.6 -3.2,0.6 -4.6,0 -1.4,-0.6 -2.3,-1.8 -2.3,-3.1 l 0.1,-16.1 c 0,-1.3 0.9,-2.4 2.3,-3.1 1.4,-0.7 3.2,-0.6 4.6,0 1.4,0.6 2.4,1.9 2.4,3.1 z"
         id="path3" />
      <path
         fill="none"
         stroke="#000000"
         stroke-linecap="round"
         stroke-linejoin="round"
         stroke-width="2"
         d="m 22.6,35.7 c 0,1.4 -0.9,2.6 -2.3,3.3 -1.4,0.7 -3.2,0.6 -4.6,0 -1.4,-0.6 -2.3,-1.9 -2.3,-3.3 l 0.1,-10 c 0,-1.4 0.9,-2.6 2.3,-3.3 1.4,-0.7 3.2,-0.6 4.6,0 1.4,0.7 2.3,1.9 2.3,3.3 z"
         id="path4" />
      <path
         fill="none"
         stroke="#000000"
         stroke-linecap="round"
         stroke-linejoin="round"
         stroke-width="2"
         d="m 32,38 0.1,-18.8 c 0,-1.5 0.9,-2.9 2.3,-3.7 1.4,-0.8 3.2,-0.7 4.6,0 1.4,0.8 2.3,2.2 2.3,3.7 V 36"
         id="path5" />
      <path
         fill="none"
         stroke="#000000"
         stroke-linecap="round"
         stroke-linejoin="round"
         stroke-width="2"
         d="M 47.1,37.1 C 46,41 42,39.9 39.9,40 c -2.8,0.1 -4,0.5 -5.6,1.8 -0.7,0.6 -1.2,1.4 -1.3,2.1 -0.5,2.4 1.6,3.7 4.4,4.2 0,0 4.5,1.2 11.1,1.6 3.2,0.2 6.4,-1.7 7.4,-5.7 0,0 3,-7 -1,-14"
         id="path6" />
      <g
         id="g8">
        <path
           fill="none"
           stroke="#000000"
           stroke-linecap="round"
           stroke-linejoin="round"
           stroke-width="2"
           d="m 52.4,24.7 c -0.1,1.5 -1.2,2.8 -2.9,3.4 -1.7,0.6 -3.7,0.5 -5.3,-0.4 -1.6,-0.9 -2.5,-2.3 -2.4,-3.8 L 42,17.5 c 0.1,-1.5 1.2,-2.8 2.9,-3.4 1.7,-0.6 3.7,-0.5 5.3,0.4 1.6,0.9 2.5,2.3 2.4,3.8 z"
           id="path7" />
        <path
           fill="none"
           stroke="#000000"
           stroke-linecap="round"
           stroke-linejoin="round"
           stroke-width="2"
           d="m 45.2,22.8 c 0,0 1.6,-0.7 3.8,0.2"
           id="path8" />
      </g>
    </g>
  </g>
</svg>
