<?xml version="1.0" encoding="UTF-8" standalone="no"?>
<svg
   id="emoji"
   viewBox="0 0 55.183846 43.800594"
   version="1.1"
   sodipodi:docname="1faf1-1f3fe.svg"
   width="55.183846"
   height="43.800594"
   xmlns:inkscape="http://www.inkscape.org/namespaces/inkscape"
   xmlns:sodipodi="http://sodipodi.sourceforge.net/DTD/sodipodi-0.dtd"
   xmlns="http://www.w3.org/2000/svg"
   xmlns:svg="http://www.w3.org/2000/svg">
  <defs
     id="defs2" />
  <sodipodi:namedview
     id="namedview2"
     pagecolor="#ffffff"
     bordercolor="#000000"
     borderopacity="0.25"
     inkscape:showpageshadow="2"
     inkscape:pageopacity="0.0"
     inkscape:pagecheckerboard="0"
     inkscape:deskcolor="#d1d1d1" />
  <g
     id="color"
     transform="translate(-8.4081821,-14.129506)" />
  <g
     id="skin"
     transform="translate(-8.4081821,-14.129506)">
    <path
       fill="#a57939"
       d="m 55.8548,42.6458 c 1.9293,-0.284 3.7235,1.0497 4.0075,2.979 0.284,1.9293 -1.0497,3.7235 -2.979,4.0075 -0.3092,0.0455 -0.623,0.0498 -0.9333,0.0127 L 36.9517,49.9021 32.6264,49.88 45.6253,49.7041 c 1.9293,-0.2841 3.7236,1.0496 4.0077,2.9789 0.2841,1.9293 -1.0496,3.7236 -2.9789,4.0077 -0.3094,0.0456 -0.6235,0.0498 -0.9341,0.0126 l -12.9988,0.176 -10.0853,-0.0526 c -8.31,-0.4248 -13.6293,-7.7519 -13.2046,-16.06 0.2654,-4.7918 2.2781,-9.32 5.6572,-12.7278 3.09,-2.9178 14.128,-12.2869 14.128,-12.2869 1.271,-0.8724 2.9761,-0.751 4.1107,0.2926 1.2945,1.2114 1.4189,3.2224 0.2835,4.5841 l -6.9657,8.0012 5.4,0.0389 -5.4,-0.0389 5.4,0.0389 21.85,-0.04 c 1.9293,-0.2839 3.7235,1.05 4.0074,2.9794 0.2839,1.9294 -1.05,3.7235 -2.9794,4.0074 -0.3092,0.0455 -0.623,0.0497 -0.9333,0.0126 l -6.9994,0.0946 -10.6364,0.1871 22.1928,-0.367 c 1.9293,-0.2841 3.7236,1.0496 4.0077,2.9789 0.2841,1.9293 -1.0496,3.7236 -2.9789,4.0077 -0.3094,0.0456 -0.6235,0.0498 -0.9341,0.0126 l -24.016,0.2063"
       id="path1" />
  </g>
  <g
     id="line"
     transform="translate(-8.4081821,-14.129506)">
    <path
       fill="none"
       stroke="#000000"
       stroke-linecap="round"
       stroke-linejoin="round"
       stroke-width="2"
       d="m 55.8548,42.6962 c 1.9293,-0.2841 3.7236,1.0496 4.0077,2.9789 0.2841,1.9293 -1.0496,3.7236 -2.9789,4.0077 -0.3094,0.0456 -0.6235,0.0498 -0.9341,0.0126 L 36.9512,49.9525 36,49.9477 45.6253,49.7549 c 1.9293,-0.2841 3.7236,1.0496 4.0077,2.9789 0.2841,1.9293 -1.0496,3.7236 -2.9789,4.0077 -0.3094,0.0456 -0.6235,0.0498 -0.9341,0.0126 L 32.7213,56.9301 22.636,56.8775 c -8.31,-0.4248 -13.6293,-7.7519 -13.2046,-16.06 0.2654,-4.7917 2.278,-9.3199 5.6571,-12.7277 3.09,-2.9178 13.8165,-12.2811 13.8165,-12.2811 1.4091,-1.0107 3.3356,-0.8867 4.6036,0.2962 1.1904,1.177 1.3134,3.0579 0.2865,4.38 l -7.15,8.1952 5.4,0.0389 -5.4,-0.0389 5.4,0.0389 21.85,-0.04 c 1.9293,-0.2841 3.7236,1.0496 4.0077,2.9789 0.2841,1.9293 -1.0496,3.7236 -2.9789,4.0077 -0.3094,0.0456 -0.6235,0.0498 -0.9341,0.0126 l -6.9998,0.0955 -10.6361,0.186 22.1928,-0.3671 c 1.9293,-0.2841 3.7236,1.0496 4.0077,2.9789 0.2841,1.9293 -1.0496,3.7236 -2.9789,4.0077 -0.3094,0.0456 -0.6235,0.0498 -0.9341,0.0126 l -20.4538,0.1758"
       id="path2" />
  </g>
</svg>
