<svg xmlns="http://www.w3.org/2000/svg" xmlns:svg="http://www.w3.org/2000/svg" id="emoji" width="59.09" height="61.535" version="1.1" viewBox="0 0 59.09 61.535"><g id="color" transform="translate(-4.2631,-6.0615432)"><path id="path1" fill="#92d3f5" d="M 45.6019,66.6568 H 5.2026 V 51.6245 l 36.0775,-3.3729 c -2.4334,8.0705 1.5032,15.5866 8.0799,18.4052 z"/><path id="path2" fill="#61b2e4" d="M 45.6019,66.6568 H 5.2026 v -4.6976 l 37.5807,-0.9395 q 1.879,2.8186 6.5766,5.6371 h -3.7581 z"/></g><g id="skin" transform="translate(-4.2631,-6.0615432)"><path id="path3" fill="#c19a65" d="m 47.481,64.7778 c -7.5161,-2.8186 -6.5766,-9.4891 -6.5766,-15.0323 6.229,-3.7581 6.8397,-13.0029 7.5161,-18.2924 0.4698,-2.7152 1.6817,-2.7152 2.1139,-5.4304 L 53.0429,9.2805 c 0.1159,-1.3701 1.3206,-2.3869 2.6907,-2.271 1.089,0.0921 1.9906,0.8837 2.223,1.9516 v 23.8732 h 2.6776 l 1.879,4.6976 -3.7581,15.9718 c 0,1.8133 -4.6976,5.6371 -5.6371,5.6371 -0.7422,0 -5.6371,5.0264 -5.6371,5.6371 z"/></g><g id="line" transform="translate(-4.2631,-6.0615432)"><path id="path4" fill="none" stroke="#000" stroke-linecap="round" stroke-linejoin="round" stroke-width="1.879" d="M 5.2026,66.6568 V 51.6245 l 36.0775,-3.3729 c -2.4334,8.0705 1.5032,15.5866 8.0799,18.4052 z"/><g id="line-2"><path id="path5" fill="none" stroke="#000" stroke-linecap="round" stroke-linejoin="round" stroke-width="1.879" d="m 47.481,64.7778 c 0,-0.6201 3.7581,-5.6371 5.6371,-5.6371 2.8186,0 6.4639,-5.1674 6.5766,-7.5161 0,0 0.1221,-4.0024 0.9395,-5.6371 1.879,-3.7581 2.8186,-12.2137 0,-13.1533 -2.8186,-0.9396 -4.6976,0.9395 -4.6976,5.6371 0,2.8186 -3.7581,4.6976 -3.7581,8.4557"/></g><path id="path6" fill="none" stroke="#000" stroke-linecap="round" stroke-linejoin="round" stroke-width="1.879" d="M 57.9566,29.123 V 8.961 C 57.6643,7.6174 56.3381,6.7651 54.9945,7.0575 53.9266,7.2898 53.135,8.1915 53.0429,9.2805 L 50.572,26.0133 c -0.4322,2.7152 -1.6442,2.7152 -2.1139,5.4304 -0.6483,5.2895 -1.259,14.5437 -7.488,18.3018"/></g></svg>