<svg xmlns="http://www.w3.org/2000/svg" xmlns:svg="http://www.w3.org/2000/svg" id="emoji" width="45.743" height="44.912" version="1.1" viewBox="0 0 45.743 44.912"><g id="skin" transform="translate(-12.4,-12.717583)"><path id="path1" fill="#fcea2b" d="m 13.1,25.7 c 0,0 0.1,6.3 0.4,10.7 0.3,3.2 0,5.2 0,5.2 0,0 0.1,3.2 1,5.2 1,2.1 8.3,7.2 8.3,7.2 0,0 9.5,2.4 12.4,2.1 9.3,-1 14.4,-4.2 16.5,-5.7 2.1,-1.5 5.1,-2.8 6.2,-8.9 1.1,-6.1 -1.7,-12 -5,-15.2 l 0.6,-4.4 c 0,0 -0.4,-7.1 -1.1,-7.1 -0.7,0 -6.9,-0.8 -6.9,-0.8 l -3,3.5 -3.1,-2.2 H 34.6 L 32.3,19 28.1,18 H 25 l -2.4,3.1 -0.8,2.5 -4.2,-1.8 -2.1,0.5 z"/></g><g id="line" transform="translate(-12.4,-12.717583)"><g id="g9"><path id="path2" fill="none" stroke="#000" stroke-linecap="round" stroke-linejoin="round" stroke-width="2" d="m 13.6,42.9 c 2.4,5.6 7,10.2 13.2,12.4 6.4,2.3 13.2,1.5 18.7,-1.5"/><path id="path3" fill="none" stroke="#000" stroke-linecap="round" stroke-linejoin="round" stroke-width="2" d="m 31.8,37.3 c 0,1.3 -0.9,2.4 -2.3,3.1 -1.4,0.6 -3.2,0.6 -4.6,0 -1.4,-0.6 -2.3,-1.8 -2.3,-3.1 l 0.1,-16.1 c 0,-1.3 0.9,-2.4 2.3,-3.1 1.4,-0.7 3.2,-0.6 4.6,0 1.4,0.6 2.4,1.9 2.4,3.1 z"/><path id="path4" fill="none" stroke="#000" stroke-linecap="round" stroke-linejoin="round" stroke-width="2" d="m 22.6,35.7 c 0,1.4 -0.9,2.6 -2.3,3.3 -1.4,0.7 -3.2,0.6 -4.6,0 -1.4,-0.6 -2.3,-1.9 -2.3,-3.3 l 0.1,-10 c 0,-1.4 0.9,-2.6 2.3,-3.3 1.4,-0.7 3.2,-0.6 4.6,0 1.4,0.7 2.3,1.9 2.3,3.3 z"/><path id="path5" fill="none" stroke="#000" stroke-linecap="round" stroke-linejoin="round" stroke-width="2" d="m 32,38 0.1,-18.8 c 0,-1.5 0.9,-2.9 2.3,-3.7 1.4,-0.8 3.2,-0.7 4.6,0 1.4,0.8 2.3,2.2 2.3,3.7 V 36"/><path id="path6" fill="none" stroke="#000" stroke-linecap="round" stroke-linejoin="round" stroke-width="2" d="M 47.1,37.1 C 46,41 42,39.9 39.9,40 c -2.8,0.1 -4,0.5 -5.6,1.8 -0.7,0.6 -1.2,1.4 -1.3,2.1 -0.5,2.4 1.6,3.7 4.4,4.2 0,0 4.5,1.2 11.1,1.6 3.2,0.2 6.4,-1.7 7.4,-5.7 0,0 3,-7 -1,-14"/><g id="g8"><path id="path7" fill="none" stroke="#000" stroke-linecap="round" stroke-linejoin="round" stroke-width="2" d="m 52.4,24.7 c -0.1,1.5 -1.2,2.8 -2.9,3.4 -1.7,0.6 -3.7,0.5 -5.3,-0.4 -1.6,-0.9 -2.5,-2.3 -2.4,-3.8 L 42,17.5 c 0.1,-1.5 1.2,-2.8 2.9,-3.4 1.7,-0.6 3.7,-0.5 5.3,0.4 1.6,0.9 2.5,2.3 2.4,3.8 z"/><path id="path8" fill="none" stroke="#000" stroke-linecap="round" stroke-linejoin="round" stroke-width="2" d="m 45.2,22.8 c 0,0 1.6,-0.7 3.8,0.2"/></g></g></g></svg>