<?xml version="1.0" encoding="UTF-8" standalone="no"?>
<svg
   id="emoji"
   viewBox="0 0 26.661798 55.626499"
   version="1.1"
   sodipodi:docname="203c.svg"
   width="26.661798"
   height="55.626499"
   xmlns:inkscape="http://www.inkscape.org/namespaces/inkscape"
   xmlns:sodipodi="http://sodipodi.sourceforge.net/DTD/sodipodi-0.dtd"
   xmlns="http://www.w3.org/2000/svg"
   xmlns:svg="http://www.w3.org/2000/svg">
  <defs
     id="defs5" />
  <sodipodi:namedview
     id="namedview5"
     pagecolor="#ffffff"
     bordercolor="#000000"
     borderopacity="0.25"
     inkscape:showpageshadow="2"
     inkscape:pageopacity="0.0"
     inkscape:pagecheckerboard="0"
     inkscape:deskcolor="#d1d1d1" />
  <g
     id="color"
     transform="translate(-22.6691,-8.4773011)">
    <ellipse
       cx="26.6691"
       cy="59.435501"
       rx="3"
       ry="3.0228"
       fill="#d22f27"
       id="ellipse1" />
    <path
       fill="#d22f27"
       d="m 26.5691,49.964 a 2.4852,2.4852 0 0 1 -2.5,-2.519 V 11.9773 a 2.5,2.5 0 1 1 5,0 V 47.445 a 2.4852,2.4852 0 0 1 -2.5,2.519 z"
       id="path1" />
    <ellipse
       cx="45.330898"
       cy="59.435501"
       rx="3"
       ry="3.0228"
       fill="#d22f27"
       id="ellipse2" />
    <path
       fill="#d22f27"
       d="m 45.2309,49.964 a 2.4852,2.4852 0 0 1 -2.5,-2.519 V 11.9773 a 2.5,2.5 0 1 1 5,0 V 47.445 a 2.4852,2.4852 0 0 1 -2.5,2.519 z"
       id="path2" />
  </g>
  <g
     id="line"
     transform="translate(-22.6691,-8.4773011)">
    <ellipse
       cx="26.6691"
       cy="60.081001"
       rx="3"
       ry="3.0228"
       fill="none"
       stroke="#000000"
       stroke-linecap="round"
       stroke-linejoin="round"
       stroke-width="2"
       id="ellipse3" />
    <ellipse
       cx="45.330898"
       cy="60.081001"
       rx="3"
       ry="3.0228"
       fill="none"
       stroke="#000000"
       stroke-linecap="round"
       stroke-linejoin="round"
       stroke-width="2"
       id="ellipse4" />
    <path
       fill="none"
       stroke="#000000"
       stroke-linecap="round"
       stroke-linejoin="round"
       stroke-width="2"
       d="m 26.6691,49.964 a 2.4852,2.4852 0 0 1 -2.5,-2.519 V 11.9773 a 2.5,2.5 0 1 1 5,0 V 47.445 a 2.4852,2.4852 0 0 1 -2.5,2.519 z"
       id="path4" />
    <path
       fill="none"
       stroke="#000000"
       stroke-linecap="round"
       stroke-linejoin="round"
       stroke-width="2"
       d="m 45.3309,49.964 a 2.4852,2.4852 0 0 1 -2.5,-2.519 V 11.9773 a 2.5,2.5 0 1 1 5,0 V 47.445 a 2.4852,2.4852 0 0 1 -2.5,2.519 z"
       id="path5" />
  </g>
</svg>
