<svg xmlns="http://www.w3.org/2000/svg" xmlns:svg="http://www.w3.org/2000/svg" id="emoji" width="26.662" height="55.626" version="1.1" viewBox="0 0 26.662 55.626"><g id="color" transform="translate(-22.6691,-8.4773011)"><ellipse id="ellipse1" cx="26.669" cy="59.436" fill="#d22f27" rx="3" ry="3.023"/><path id="path1" fill="#d22f27" d="m 26.5691,49.964 a 2.4852,2.4852 0 0 1 -2.5,-2.519 V 11.9773 a 2.5,2.5 0 1 1 5,0 V 47.445 a 2.4852,2.4852 0 0 1 -2.5,2.519 z"/><ellipse id="ellipse2" cx="45.331" cy="59.436" fill="#d22f27" rx="3" ry="3.023"/><path id="path2" fill="#d22f27" d="m 45.2309,49.964 a 2.4852,2.4852 0 0 1 -2.5,-2.519 V 11.9773 a 2.5,2.5 0 1 1 5,0 V 47.445 a 2.4852,2.4852 0 0 1 -2.5,2.519 z"/></g><g id="line" transform="translate(-22.6691,-8.4773011)"><ellipse id="ellipse3" cx="26.669" cy="60.081" fill="none" stroke="#000" stroke-linecap="round" stroke-linejoin="round" stroke-width="2" rx="3" ry="3.023"/><ellipse id="ellipse4" cx="45.331" cy="60.081" fill="none" stroke="#000" stroke-linecap="round" stroke-linejoin="round" stroke-width="2" rx="3" ry="3.023"/><path id="path4" fill="none" stroke="#000" stroke-linecap="round" stroke-linejoin="round" stroke-width="2" d="m 26.6691,49.964 a 2.4852,2.4852 0 0 1 -2.5,-2.519 V 11.9773 a 2.5,2.5 0 1 1 5,0 V 47.445 a 2.4852,2.4852 0 0 1 -2.5,2.519 z"/><path id="path5" fill="none" stroke="#000" stroke-linecap="round" stroke-linejoin="round" stroke-width="2" d="m 45.3309,49.964 a 2.4852,2.4852 0 0 1 -2.5,-2.519 V 11.9773 a 2.5,2.5 0 1 1 5,0 V 47.445 a 2.4852,2.4852 0 0 1 -2.5,2.519 z"/></g></svg>