<svg xmlns="http://www.w3.org/2000/svg" xmlns:svg="http://www.w3.org/2000/svg" id="emoji" width="50.099" height="29.61" version="1.1" viewBox="0 0 50.099 29.61"><g id="color" transform="translate(-10.951,-21.200564)"><ellipse id="ellipse1" cx="21.496" cy="30.418" fill="#fff" rx="3.055" ry="4.02" transform="rotate(-86.7792,21.495925,30.418247)"/><ellipse id="ellipse2" cx="21.326" cy="41.742" fill="#fff" rx="3.055" ry="4.02" transform="rotate(-86.7792,21.326296,41.742235)"/><rect id="rect2" width="3.981" height="5.627" x="30.763" y="31.92" fill="#fff" rx=".585" ry=".585"/></g><g id="line" transform="translate(-10.951,-21.200564)"><path id="path2" fill="none" stroke="#000" stroke-linecap="round" stroke-linejoin="round" stroke-width="6.581" d="M 57.76,47.52 V 24.49 L 47.889,44.23 38.018,24.49 v 23.03"/><path id="path3" fill="none" stroke="#000" stroke-linecap="round" stroke-linejoin="round" stroke-width="6.574" d="m 28.54,29.08 c -0.6739,-2.623 -3.586,-4.592 -7.077,-4.592 -3.991,0 -7.225,2.574 -7.225,5.753 0,3.175 3.235,5.753 7.225,5.753 l -0.1479,0.0197 c 3.991,0 7.225,2.577 7.225,5.753 0,3.179 -3.235,5.753 -7.225,5.753 -3.491,0 -6.403,-1.972 -7.077,-4.596"/></g></svg>