<?xml version="1.0" encoding="UTF-8" standalone="no"?>
<svg
   id="emoji"
   viewBox="0 0 33.530117 63.999908"
   version="1.1"
   sodipodi:docname="2195.svg"
   width="33.530117"
   height="63.999908"
   xmlns:inkscape="http://www.inkscape.org/namespaces/inkscape"
   xmlns:sodipodi="http://sodipodi.sourceforge.net/DTD/sodipodi-0.dtd"
   xmlns="http://www.w3.org/2000/svg"
   xmlns:svg="http://www.w3.org/2000/svg">
  <defs
     id="defs2" />
  <sodipodi:namedview
     id="namedview2"
     pagecolor="#ffffff"
     bordercolor="#000000"
     borderopacity="0.25"
     inkscape:showpageshadow="2"
     inkscape:pageopacity="0.0"
     inkscape:pagecheckerboard="0"
     inkscape:deskcolor="#d1d1d1" />
  <g
     id="color"
     transform="translate(-19.234942,-3.9995458)">
    <polygon
       fill="#3f3f3f"
       stroke="none"
       stroke-linecap="round"
       stroke-linejoin="round"
       stroke-miterlimit="10"
       stroke-width="2"
       points="39.062,55.7613 39.062,16.2377 47.7305,25.4453 51.7651,21.7363 36.0015,4.9995 20.2349,21.7363 24.2681,25.4453 32.9331,16.2445 32.9331,55.7546 24.2681,46.5533 20.2349,50.2627 36.0015,66.9995 51.7651,50.2627 47.7305,46.5533 "
       id="polygon1" />
  </g>
  <g
     id="hair"
     transform="translate(-19.234942,-3.9995458)" />
  <g
     id="skin"
     transform="translate(-19.234942,-3.9995458)" />
  <g
     id="skin-shadow"
     transform="translate(-19.234942,-3.9995458)" />
  <g
     id="line"
     transform="translate(-19.234942,-3.9995458)">
    <polygon
       fill="none"
       stroke="#000000"
       stroke-linecap="round"
       stroke-linejoin="round"
       stroke-miterlimit="10"
       stroke-width="2"
       points="39.062,55.7613 39.062,16.2377 47.7305,25.4453 51.7651,21.7363 36.0015,4.9995 20.2349,21.7363 24.2681,25.4453 32.9331,16.2445 32.9331,55.7546 24.2681,46.5533 20.2349,50.2627 36.0015,66.9995 51.7651,50.2627 47.7305,46.5533 "
       id="polygon2" />
  </g>
</svg>
