<?xml version="1.0" encoding="UTF-8" standalone="no"?>
<svg
   id="emoji"
   viewBox="0 0 36.695 58"
   version="1.1"
   sodipodi:docname="231a.svg"
   width="36.695"
   height="58"
   xmlns:inkscape="http://www.inkscape.org/namespaces/inkscape"
   xmlns:sodipodi="http://sodipodi.sourceforge.net/DTD/sodipodi-0.dtd"
   xmlns="http://www.w3.org/2000/svg"
   xmlns:svg="http://www.w3.org/2000/svg">
  <defs
     id="defs8" />
  <sodipodi:namedview
     id="namedview8"
     pagecolor="#ffffff"
     bordercolor="#000000"
     borderopacity="0.25"
     inkscape:showpageshadow="2"
     inkscape:pageopacity="0.0"
     inkscape:pagecheckerboard="0"
     inkscape:deskcolor="#d1d1d1" />
  <g
     id="color"
     transform="translate(-21,-7)">
    <path
       fill="#9b9b9a"
       stroke="#9b9b9a"
       stroke-miterlimit="10"
       stroke-width="2"
       d="m 53.9958,40.5232 h 0.6992 c 1.1,0 2,-0.9 2,-2 v -5.1541 c 0,-1.1 -0.9,-2 -2,-2 H 53.9959 50 v 9.1648 z"
       id="path1" />
    <path
       fill="#9b9b9a"
       stroke="none"
       stroke-miterlimit="10"
       stroke-width="2"
       d="M 25,21 V 9 c 0,-0.5523 0.4477,-1 1,-1 h 20 c 0.5523,0 1,0.4477 1,1 v 12"
       id="path2" />
    <path
       fill="#9b9b9a"
       stroke="#9b9b9a"
       stroke-miterlimit="10"
       stroke-width="2"
       d="m 47,51 v 12 c 0,0.5523 -0.4477,1 -1,1 H 26 c -0.5523,0 -1,-0.4477 -1,-1 V 51"
       id="path3" />
    <path
       fill="#d0cfce"
       stroke="#d0cfce"
       stroke-miterlimit="10"
       stroke-width="2"
       d="M 48,51 H 24 c -1.1,0 -2,-0.9 -2,-2 V 23 c 0,-1.1 0.9,-2 2,-2 h 24 c 1.1,0 2,0.9 2,2 v 26 c 0,1.1 -0.9,2 -2,2 z"
       id="path4" />
  </g>
  <g
     id="hair"
     transform="translate(-21,-7)" />
  <g
     id="skin"
     transform="translate(-21,-7)" />
  <g
     id="skin-shadow"
     transform="translate(-21,-7)" />
  <g
     id="line"
     transform="translate(-21,-7)">
    <path
       fill="none"
       stroke="#000000"
       stroke-miterlimit="10"
       stroke-width="2"
       d="M 25,21 V 9 c 0,-0.5523 0.4477,-1 1,-1 h 20 c 0.5523,0 1,0.4477 1,1 v 12"
       id="path5" />
    <polyline
       fill="none"
       stroke="#000000"
       stroke-linecap="round"
       stroke-linejoin="round"
       stroke-miterlimit="10"
       stroke-width="2"
       points="35.8442,26.1875 35.8442,36.1875 44.1558,36.1875"
       id="polyline5" />
    <polyline
       fill="none"
       stroke="#000000"
       stroke-linecap="round"
       stroke-linejoin="round"
       stroke-miterlimit="10"
       stroke-width="2"
       points="47,54.9997 47,64 25,64 25,54.9997"
       id="polyline6" />
    <polyline
       fill="none"
       stroke="#000000"
       stroke-linecap="round"
       stroke-linejoin="round"
       stroke-miterlimit="10"
       stroke-width="2"
       points="25,17.0003 25,8 47,8 47,17.0003"
       id="polyline7" />
    <path
       fill="none"
       stroke="#000000"
       stroke-linecap="round"
       stroke-linejoin="round"
       stroke-miterlimit="10"
       stroke-width="2"
       d="m 53.9959,31.3691 h 0.6991 c 1.1,0 2,0.9 2,2 v 5.1541 c 0,1.1 -0.9,2 -2,2 h -0.6992"
       id="path7" />
    <path
       fill="none"
       stroke="#000000"
       stroke-linecap="round"
       stroke-linejoin="round"
       stroke-miterlimit="10"
       stroke-width="2"
       d="M 48,51 H 24 c -1.1,0 -2,-0.9 -2,-2 V 23 c 0,-1.1 0.9,-2 2,-2 h 24 c 1.1,0 2,0.9 2,2 v 26 c 0,1.1 -0.9,2 -2,2 z"
       id="path8" />
    <polyline
       fill="none"
       stroke="#000000"
       stroke-linecap="round"
       stroke-linejoin="round"
       stroke-miterlimit="10"
       stroke-width="2"
       points="35.8442,26.1875 35.8442,36.1875 44.1558,36.1875"
       id="polyline8" />
  </g>
</svg>
