<?xml version="1.0" encoding="UTF-8" standalone="no"?>
<svg
   id="emoji"
   viewBox="0 0 40 58"
   version="1.1"
   sodipodi:docname="231b.svg"
   width="40"
   height="58"
   xmlns:inkscape="http://www.inkscape.org/namespaces/inkscape"
   xmlns:sodipodi="http://sodipodi.sourceforge.net/DTD/sodipodi-0.dtd"
   xmlns="http://www.w3.org/2000/svg"
   xmlns:svg="http://www.w3.org/2000/svg">
  <defs
     id="defs14" />
  <sodipodi:namedview
     id="namedview14"
     pagecolor="#ffffff"
     bordercolor="#000000"
     borderopacity="0.25"
     inkscape:showpageshadow="2"
     inkscape:pageopacity="0.0"
     inkscape:pagecheckerboard="0"
     inkscape:deskcolor="#d1d1d1" />
  <g
     id="color"
     transform="translate(-16,-7)">
    <path
       fill="#ffffff"
       d="m 35.4423,37.8357 h 1.0165 c 7.6245,0 13.8146,6.1901 13.8146,13.8146 v 6.4581 H 21.9452 v -6.7757 c 0,-7.4492 6.0478,-13.4971 13.4971,-13.4971 z"
       id="path1" />
    <path
       transform="rotate(180,35.9343,23.72885)"
       fill="#ffffff"
       d="m 35.2673,13.5925 h 1.0165 c 7.6245,0 13.8146,6.1901 13.8146,13.8146 v 6.4581 H 21.7702 v -6.7757 c 0,-7.4492 6.0478,-13.4971 13.4971,-13.4971 z"
       id="path2" />
    <path
       fill="#ffffff"
       d="m 39.2568,33.55 c 0,0 -2.8222,2.0175 -0.1707,4.5474 0,0 -2.0336,-0.5557 -6.3872,0.0707 0,0 2.7562,-2.0985 -0.094,-4.7294 l 6.6519,0.1114 z"
       id="path3" />
    <path
       fill="#9b9b9a"
       d="M 44.0449,43 H 27.9561 C 25.1357,45.584 24,49.665 24,52.3184 V 59 H 48 V 52.3184 C 48,49.665 46.8643,45.584 44.0449,43 Z"
       id="path4" />
    <path
       fill="#a57939"
       d="m 55,11 c 0,1.1001 -0.9004,2 -2,2 H 19 c -1.0996,0 -2,-0.8999 -2,-2 v -1 c 0,-1.1001 0.9004,-2 2,-2 h 34 c 1.0996,0 2,0.8999 2,2 z"
       id="path5" />
    <path
       fill="#a57939"
       d="m 55,62 c 0,1.0996 -0.9004,2 -2,2 H 19 c -1.0996,0 -2,-0.9004 -2,-2 v -1 c 0,-1.0996 0.9004,-2 2,-2 h 34 c 1.0996,0 2,0.9004 2,2 z"
       id="path6" />
  </g>
  <g
     id="line"
     transform="translate(-16,-7)">
    <path
       fill="none"
       stroke="#000000"
       stroke-linecap="round"
       stroke-linejoin="round"
       stroke-width="2"
       d="M 31,34 C 23.7275,32.0908 21,24.4546 21,19.6816 V 13"
       id="path7" />
    <path
       fill="none"
       stroke="#000000"
       stroke-linecap="round"
       stroke-linejoin="round"
       stroke-width="2"
       d="M 21,59 V 52.3184 C 21,47.5459 23.7275,39.9092 31,38"
       id="path8" />
    <path
       fill="none"
       stroke="#000000"
       stroke-linecap="round"
       stroke-linejoin="round"
       stroke-width="2"
       d="m 31,38 c 1,-0.2715 2,-0.8945 2,-2 0,-1.1045 -1,-1.7285 -2,-2"
       id="path9" />
    <path
       fill="none"
       stroke="#000000"
       stroke-linecap="round"
       stroke-linejoin="round"
       stroke-width="2"
       d="M 41,34 C 48.2725,32.0908 51,24.4546 51,19.6816 V 13"
       id="path10" />
    <path
       fill="none"
       stroke="#000000"
       stroke-linecap="round"
       stroke-linejoin="round"
       stroke-width="2"
       d="M 51,59 V 52.3184 C 51,47.5459 48.2725,39.9092 41,38"
       id="path11" />
    <path
       fill="none"
       stroke="#000000"
       stroke-linecap="round"
       stroke-linejoin="round"
       stroke-width="2"
       d="m 41,38 c -1,-0.2715 -2,-0.8945 -2,-2 0,-1.1045 1,-1.7285 2,-2"
       id="path12" />
    <path
       fill="none"
       stroke="#000000"
       stroke-linecap="round"
       stroke-linejoin="round"
       stroke-width="2"
       d="m 55,11 c 0,1.1001 -0.9004,2 -2,2 H 19 c -1.0996,0 -2,-0.8999 -2,-2 v -1 c 0,-1.1001 0.9004,-2 2,-2 h 34 c 1.0996,0 2,0.8999 2,2 z"
       id="path13" />
    <path
       fill="none"
       stroke="#000000"
       stroke-linecap="round"
       stroke-linejoin="round"
       stroke-width="2"
       d="m 55,62 c 0,1.0996 -0.9004,2 -2,2 H 19 c -1.0996,0 -2,-0.9004 -2,-2 v -1 c 0,-1.0996 0.9004,-2 2,-2 h 34 c 1.0996,0 2,0.9004 2,2 z"
       id="path14" />
    <line
       x1="29"
       x2="43"
       y1="43"
       y2="43"
       fill="none"
       stroke="#000000"
       stroke-linecap="round"
       stroke-linejoin="round"
       stroke-width="2"
       id="line14" />
  </g>
</svg>
