<?xml version="1.0" encoding="UTF-8" standalone="no"?>
<svg
   id="emoji"
   viewBox="0 0 40.044601 44.720802"
   version="1.1"
   sodipodi:docname="23cf.svg"
   width="40.044601"
   height="44.720802"
   xmlns:inkscape="http://www.inkscape.org/namespaces/inkscape"
   xmlns:sodipodi="http://sodipodi.sourceforge.net/DTD/sodipodi-0.dtd"
   xmlns="http://www.w3.org/2000/svg"
   xmlns:svg="http://www.w3.org/2000/svg">
  <defs
     id="defs2" />
  <sodipodi:namedview
     id="namedview2"
     pagecolor="#ffffff"
     bordercolor="#000000"
     borderopacity="0.25"
     inkscape:showpageshadow="2"
     inkscape:pageopacity="0.0"
     inkscape:pagecheckerboard="0"
     inkscape:deskcolor="#d1d1d1" />
  <g
     id="color"
     transform="translate(-16,-13.6592)">
    <path
       fill="#ffffff"
       d="m 54.4095,48.0658 c 0.1653,-0.4497 0.2755,-0.9554 0.2755,-1.4618 0,-0.787 -0.2755,-1.5741 -0.7163,-2.2484 L 39.1448,16.529 38.8693,16.2479 c -0.7163,-0.7308 -1.5983,-1.1242 -2.59,-1.1242 -0.9917,0 -1.9286,0.3935 -2.59,1.1242 L 33.4138,16.529 18.4786,44.3556 c -0.7714,1.012 -0.9369,2.4738 -0.4408,3.7102 0.551,1.4052 1.9286,2.305 3.4165,2.305 h 29.5364 c 1.488,0 2.8655,-0.8994 3.4165,-2.305 h 0.0022 z"
       id="path1" />
  </g>
  <g
     id="line"
     transform="translate(-16,-13.6592)">
    <path
       fill="none"
       stroke="#000000"
       stroke-linejoin="round"
       stroke-width="1.9088"
       d="m 54.8067,48.5091 c 0.1701,-0.4627 0.2835,-0.983 0.2835,-1.5041 0,-0.8098 -0.2835,-1.6196 -0.7371,-2.3135 L 39.1002,16.0595 38.8167,15.7703 c -0.7371,-0.752 -1.6446,-1.1567 -2.665,-1.1567 -1.0204,0 -1.9844,0.4049 -2.665,1.1567 l -0.2835,0.2892 -15.3675,28.632 c -0.7938,1.0413 -0.964,2.5454 -0.4536,3.8176 0.567,1.4459 1.9844,2.3717 3.5154,2.3717 h 30.3913 c 1.531,0 2.9485,-0.9254 3.5154,-2.3717 h 0.0023 z"
       id="path2" />
    <line
       x1="17"
       x2="55"
       y1="57.380001"
       y2="57.380001"
       fill="none"
       stroke="#000000"
       stroke-linecap="round"
       stroke-linejoin="round"
       stroke-width="2"
       id="line2" />
  </g>
</svg>
