<svg xmlns="http://www.w3.org/2000/svg" xmlns:svg="http://www.w3.org/2000/svg" id="emoji" width="50" height="40.003" version="1.1" viewBox="0 0 50 40.003"><g id="color" transform="translate(-11,-15.997468)"><path id="path1" fill="#fff" d="m 14.736,54.1869 c 0.4103,0.1658 0.8719,0.2763 1.3336,0.2763 0.7181,0 1.4362,-0.2763 2.0518,-0.7185 l 25.39,-14.8661 0.2565,-0.2763 c 0.6668,-0.7184 1.0258,-1.6027 1.0258,-2.5974 0,-0.9947 -0.359,-1.9342 -1.0258,-2.5974 l -0.2565,-0.2763 -25.39,-14.9767 c -0.9233,-0.7737 -2.2569,-0.9395 -3.3854,-0.4422 -1.2823,0.5527 -2.103,1.9343 -2.103,3.4264 v 29.6217 c 0,1.4922 0.8207,2.8738 2.103,3.4265 z"/></g><g id="line" transform="translate(-11,-15.997468)"><path id="path2" fill="none" stroke="#000" stroke-linecap="round" stroke-linejoin="round" stroke-width="2" d="M 14.1579,54.7165 C 14.5789,54.8866 15.0526,55 15.5263,55 16.2631,55 17,54.7165 17.6316,54.2628 L 43.6842,39.0087 43.9474,38.7252 C 44.6316,37.988 45,37.0807 45,36.06 45,35.0393 44.6316,34.0753 43.9474,33.3948 L 43.6842,33.1113 17.6316,17.7438 C 16.6842,16.9499 15.3158,16.7798 14.1579,17.2901 12.8421,17.8572 12,19.2749 12,20.8059 v 30.3947 c 0,1.5311 0.8421,2.9488 2.1579,3.5159 z"/><line id="line2" x1="60" x2="60" y1="17" y2="55" fill="none" stroke="#000" stroke-linecap="round" stroke-linejoin="round" stroke-width="2"/><line id="line3" x1="52" x2="52" y1="17" y2="55" fill="none" stroke="#000" stroke-linecap="round" stroke-linejoin="round" stroke-width="2"/></g></svg>