<svg xmlns="http://www.w3.org/2000/svg" xmlns:svg="http://www.w3.org/2000/svg" id="emoji" width="48" height="50.654" version="1.1" viewBox="0 0 48 50.654"><g id="color" transform="translate(-12,-10.2106)"><line id="line1" x1="50.258" x2="53.142" y1="55.036" y2="59.864" fill="#fff" stroke="none" stroke-linecap="round" stroke-linejoin="round" stroke-miterlimit="10" stroke-width="2"/><line id="line2" x1="21.742" x2="18.858" y1="55.036" y2="59.864" fill="#fff" stroke="none" stroke-linecap="round" stroke-linejoin="round" stroke-miterlimit="10" stroke-width="2"/><path id="path2" fill="#d0cfce" stroke="none" d="m 46.1859,14.7917 c 2.2534,-4.6476 4.2653,-4.0842 6.1673,-4.3168 1.2869,-0.1573 6.4609,3.1641 6.4609,6.5799 0,3.4158 -2.2433,4.739 -3.5597,5.4867"/><path id="path3" fill="#d0cfce" stroke="none" d="m 25.8141,14.7917 c -2.2533,-4.6476 -4.2652,-4.0842 -6.1672,-4.3168 -1.287,-0.1573 -6.461,3.1641 -6.461,6.5799 0,3.4158 2.2433,4.739 3.5597,5.4867"/><circle id="circle3" cx="36" cy="36.294" r="23" fill="#fff" stroke="none" stroke-linecap="round" stroke-linejoin="round" stroke-miterlimit="10" stroke-width="2"/><line id="line3" x1="36.026" x2="36.026" y1="18.989" y2="35.989" fill="#fff" stroke="none" stroke-linecap="round" stroke-linejoin="round" stroke-miterlimit="10" stroke-width="2"/><line id="line4" x1="35.974" x2="29.974" y1="35.935" y2="46.327" fill="#fff" stroke="none" stroke-linecap="round" stroke-linejoin="round" stroke-miterlimit="10" stroke-width="2.079"/></g><g id="line" transform="translate(-12,-10.2106)"><line id="line5" x1="50.258" x2="53.142" y1="55.036" y2="59.864" fill="none" stroke="#000" stroke-linecap="round" stroke-linejoin="round" stroke-miterlimit="10" stroke-width="2"/><line id="line6" x1="21.742" x2="18.858" y1="55.036" y2="59.864" fill="none" stroke="#000" stroke-linecap="round" stroke-linejoin="round" stroke-miterlimit="10" stroke-width="2"/><path id="path6" fill="none" stroke="#000" stroke-linecap="round" stroke-linejoin="round" stroke-miterlimit="10" stroke-width="2" d="m 48.8497,12.5761 c 0.9692,-0.8502 2.2395,-1.3655 3.6301,-1.3655 3.0417,0 5.5076,2.4657 5.5076,5.5075 0,1.1088 -0.3277,2.1411 -0.8914,3.0052"/><path id="path7" fill="none" stroke="#000" stroke-linecap="round" stroke-linejoin="round" stroke-miterlimit="10" stroke-width="2" d="m 23.1504,12.5761 c -0.9693,-0.8502 -2.2396,-1.3655 -3.6302,-1.3655 -3.0417,0 -5.5075,2.4657 -5.5075,5.5075 0,1.1088 0.3276,2.1411 0.8914,3.0052"/><circle id="circle7" cx="36" cy="36.294" r="23" fill="none" stroke="#000" stroke-linecap="round" stroke-linejoin="round" stroke-miterlimit="10" stroke-width="2"/><line id="line7" x1="36.026" x2="36.026" y1="18.989" y2="35.989" fill="none" stroke="#000" stroke-linecap="round" stroke-linejoin="round" stroke-miterlimit="10" stroke-width="2"/><line id="line8" x1="35.974" x2="29.974" y1="35.935" y2="46.327" fill="none" stroke="#000" stroke-linecap="round" stroke-linejoin="round" stroke-miterlimit="10" stroke-width="2.079"/></g></svg>