<svg xmlns="http://www.w3.org/2000/svg" xmlns:svg="http://www.w3.org/2000/svg" id="emoji" width="49.581" height="54.294" version="1.1" viewBox="0 0 49.581 54.294"><g id="color" transform="translate(-12.8214,-6)"><polyline id="polyline1" fill="#d0cfce" stroke="#d0cfce" stroke-linecap="round" stroke-linejoin="round" stroke-miterlimit="10" stroke-width="2" points="53.756 19.737 58.342 16.187 61.402 20.141 57.149 23.432"/><rect id="rect1" width="11.008" height="6.294" x="31.313" y="7" fill="#d0cfce" stroke="none"/><circle id="circle1" cx="36.821" cy="36.294" r="23" fill="#fff" stroke="none" stroke-linecap="round" stroke-linejoin="round" stroke-miterlimit="10" stroke-width="2"/></g><g id="line" transform="translate(-12.8214,-6)"><circle id="circle2" cx="36.821" cy="36.294" r="23" fill="none" stroke="#000" stroke-linecap="round" stroke-linejoin="round" stroke-miterlimit="10" stroke-width="2"/><polyline id="polyline2" fill="none" stroke="#000" stroke-linecap="round" stroke-linejoin="round" stroke-miterlimit="10" stroke-width="2" points="56.366 17.717 58.342 16.187 61.402 20.141 59.57 21.559"/><polyline id="polyline3" fill="none" stroke="#000" stroke-linecap="round" stroke-linejoin="round" stroke-miterlimit="10" stroke-width="2" points="32.321 9.727 32.321 7 41.321 7 41.321 9.893"/><circle id="circle3" cx="36.347" cy="16.982" r="1" fill="#000" stroke="none"/><circle id="circle4" cx="36.347" cy="55.024" r="1" fill="#000" stroke="none"/><ellipse id="ellipse4" cx="49.798" cy="22.553" fill="#000" stroke="none" rx=".988" ry="1.012" transform="matrix(0.7071,-0.7071,0.7071,0.7071,-1.3619,41.8177)"/><ellipse id="ellipse5" cx="22.897" cy="49.453" fill="#000" stroke="none" rx=".988" ry="1.012" transform="matrix(0.7071,-0.7071,0.7071,0.7071,-28.2619,30.6754)"/><circle id="circle5" cx="55.369" cy="36.003" r="1" fill="#000" stroke="none"/><circle id="circle6" cx="17.326" cy="36.003" r="1" fill="#000" stroke="none"/><line id="line6" x1="36.84" x2="21.44" y1="35.91" y2="35.91" fill="#000" stroke="#000" stroke-linecap="round" stroke-linejoin="round" stroke-miterlimit="10" stroke-width="2"/><line id="line7" x1="36.885" x2="25.995" y1="35.925" y2="46.815" fill="#000" stroke="#000" stroke-linecap="round" stroke-linejoin="round" stroke-miterlimit="10" stroke-width="2"/><ellipse id="ellipse7" cx="49.798" cy="49.453" fill="#000" stroke="none" rx="1.012" ry=".988" transform="matrix(0.7071,-0.7071,0.7071,0.7071,-20.3831,49.6965)"/><ellipse id="ellipse8" cx="22.897" cy="22.553" fill="#000" stroke="none" rx="1.012" ry=".988" transform="matrix(0.7071,-0.7071,0.7071,0.7071,-9.2407,22.7965)"/></g></svg>