<?xml version="1.0" encoding="UTF-8" standalone="no"?>
<svg
   id="emoji"
   viewBox="0 0 40 58"
   version="1.1"
   sodipodi:docname="23f3.svg"
   width="40"
   height="58"
   xmlns:inkscape="http://www.inkscape.org/namespaces/inkscape"
   xmlns:sodipodi="http://sodipodi.sourceforge.net/DTD/sodipodi-0.dtd"
   xmlns="http://www.w3.org/2000/svg"
   xmlns:svg="http://www.w3.org/2000/svg">
  <defs
     id="defs16" />
  <sodipodi:namedview
     id="namedview16"
     pagecolor="#ffffff"
     bordercolor="#000000"
     borderopacity="0.25"
     inkscape:showpageshadow="2"
     inkscape:pageopacity="0.0"
     inkscape:pagecheckerboard="0"
     inkscape:deskcolor="#d1d1d1" />
  <g
     id="color"
     transform="translate(-16,-7)">
    <path
       fill="#ffffff"
       d="m 35.498,37.967 h 1.0165 c 7.6245,0 13.8146,6.1901 13.8146,13.8146 v 6.4581 H 22.0009 V 51.464 c 0,-7.4492 6.0478,-13.4971 13.4971,-13.4971 z"
       id="path1" />
    <path
       transform="rotate(180,35.99,23.86015)"
       fill="#ffffff"
       d="m 35.323,13.7238 h 1.0165 c 7.6245,0 13.8146,6.1901 13.8146,13.8146 v 6.4581 H 21.8259 v -6.7757 c 0,-7.4492 6.0478,-13.4971 13.4971,-13.4971 z"
       id="path2" />
    <path
       fill="#ffffff"
       d="m 39.3125,33.6813 c 0,0 -2.8222,2.0175 -0.1707,4.5474 0,0 -2.0336,-0.5557 -6.3872,0.0707 0,0 2.7562,-2.0985 -0.094,-4.7294 l 6.6519,0.1114 z"
       id="path3" />
    <path
       fill="#9b9b9a"
       d="m 40.2139,31.1055 c 0.0039,-0.002 0.0068,-0.002 0.0107,-0.002 0.0049,-0.0019 0.0088,-0.0039 0.0137,-0.0058 C 45.8926,29.6133 48,23.3076 48,19.6816 V 18 H 24 v 1.6816 c 0,3.626 2.1074,9.9317 7.7617,11.4161 0.0049,0.0019 0.0088,0.0039 0.0137,0.0058 0.0039,0 0.0068,0 0.0107,0.002 1.792,0.4863 3.0996,1.5361 3.7491,2.8945 h 0.9296 c 0.6495,-1.3584 1.9571,-2.4082 3.7491,-2.8945 z"
       id="path4" />
    <path
       fill="#9b9b9a"
       d="M 47,55 C 40.9258,55 36,50.0742 36,44 36,50.0742 31.0742,55 25,55 h -1 v 4 h 24 v -4 z"
       id="path5" />
    <path
       fill="#a57939"
       d="m 55,11 c 0,1.1001 -0.9004,2 -2,2 H 19 c -1.0996,0 -2,-0.8999 -2,-2 v -1 c 0,-1.1001 0.9004,-2 2,-2 h 34 c 1.0996,0 2,0.8999 2,2 z"
       id="path6" />
    <path
       fill="#a57939"
       d="m 55,62 c 0,1.0996 -0.9004,2 -2,2 H 19 c -1.0996,0 -2,-0.9004 -2,-2 v -1 c 0,-1.0996 0.9004,-2 2,-2 h 34 c 1.0996,0 2,0.9004 2,2 z"
       id="path7" />
  </g>
  <g
     id="line"
     transform="translate(-16,-7)">
    <path
       fill="none"
       stroke="#000000"
       stroke-linecap="round"
       stroke-linejoin="round"
       stroke-width="2"
       d="M 31,34 C 23.7275,32.0908 21,24.4546 21,19.6816 V 13"
       id="path8" />
    <path
       fill="none"
       stroke="#000000"
       stroke-linecap="round"
       stroke-linejoin="round"
       stroke-width="2"
       d="M 21,59 V 52.3184 C 21,47.5459 23.7275,39.9092 31,38"
       id="path9" />
    <path
       fill="none"
       stroke="#000000"
       stroke-linecap="round"
       stroke-linejoin="round"
       stroke-width="2"
       d="m 31,38 c 1,-0.2715 2,-0.8945 2,-2 0,-1.1045 -1,-1.7285 -2,-2"
       id="path10" />
    <path
       fill="none"
       stroke="#000000"
       stroke-linecap="round"
       stroke-linejoin="round"
       stroke-width="2"
       d="M 41,34 C 48.2725,32.0908 51,24.4546 51,19.6816 V 13"
       id="path11" />
    <path
       fill="none"
       stroke="#000000"
       stroke-linecap="round"
       stroke-linejoin="round"
       stroke-width="2"
       d="M 51,59 V 52.3184 C 51,47.5459 48.2725,39.9092 41,38"
       id="path12" />
    <path
       fill="none"
       stroke="#000000"
       stroke-linecap="round"
       stroke-linejoin="round"
       stroke-width="2"
       d="m 41,38 c -1,-0.2715 -2,-0.8945 -2,-2 0,-1.1045 1,-1.7285 2,-2"
       id="path13" />
    <path
       fill="none"
       stroke="#000000"
       stroke-linecap="round"
       stroke-linejoin="round"
       stroke-width="2"
       d="m 25,55 c 6.0742,0 11,-4.9258 11,-11 0,6.0742 4.9258,11 11,11"
       id="path14" />
    <path
       fill="none"
       stroke="#000000"
       stroke-linecap="round"
       stroke-linejoin="round"
       stroke-width="2"
       d="m 55,11 c 0,1.1001 -0.9004,2 -2,2 H 19 c -1.0996,0 -2,-0.8999 -2,-2 v -1 c 0,-1.1001 0.9004,-2 2,-2 h 34 c 1.0996,0 2,0.8999 2,2 z"
       id="path15" />
    <line
       x1="47"
       x2="25"
       y1="18"
       y2="18"
       fill="none"
       stroke="#000000"
       stroke-linecap="round"
       stroke-linejoin="round"
       stroke-width="2"
       id="line15" />
    <path
       fill="none"
       stroke="#000000"
       stroke-linecap="round"
       stroke-linejoin="round"
       stroke-width="2"
       d="m 55,62 c 0,1.0996 -0.9004,2 -2,2 H 19 c -1.0996,0 -2,-0.9004 -2,-2 v -1 c 0,-1.0996 0.9004,-2 2,-2 h 34 c 1.0996,0 2,0.9004 2,2 z"
       id="path16" />
    <line
       x1="36"
       x2="36"
       y1="39"
       y2="44"
       fill="none"
       stroke="#000000"
       stroke-linecap="round"
       stroke-linejoin="round"
       stroke-width="2"
       id="line16" />
  </g>
</svg>
