<svg xmlns="http://www.w3.org/2000/svg" xmlns:svg="http://www.w3.org/2000/svg" id="emoji" width="40" height="40" version="1.1" viewBox="0 0 40 40"><g id="color" transform="translate(-16,-16)"><rect id="rect1" width="36.442" height="36.442" x="17.885" y="17.784" fill="#fff" rx="5.039" ry="5.039"/></g><g id="line" transform="translate(-16,-16)"><path id="path1" d="M 49.2614,18 C 51.8743,18 54,20.1257 54,22.7386 V 49.2615 C 54,51.8743 51.8743,54 49.2614,54 H 22.7386 C 20.1257,54 18,51.8743 18,49.2614 V 22.7386 C 18,20.1257 20.1257,18 22.7386,18 h 26.5228 m 0,-2 H 22.7386 C 19.017,16 16,19.017 16,22.7386 V 49.2615 C 16,52.983 19.017,56 22.7386,56 H 49.2615 C 52.983,56 56,52.983 56,49.2614 V 22.7386 C 56,19.017 52.983,16 49.2614,16 Z"/></g></svg>