<svg xmlns="http://www.w3.org/2000/svg" xmlns:svg="http://www.w3.org/2000/svg" id="emoji" width="42" height="42" version="1.1" viewBox="0 0 42 42"><g id="color" transform="translate(-15,-15)"><path id="Vector_6" fill="#fff" d="m 36.0583,55.1726 c 10.5936,0 19.1814,-8.5878 19.1814,-19.1814 0,-10.5936 -8.5878,-19.1814 -19.1814,-19.1814 -10.5936,0 -19.1814,8.5878 -19.1814,19.1814 0,10.5936 8.5878,19.1814 19.1814,19.1814 z"/></g><g id="line" transform="translate(-15,-15)"><path id="Line_1" fill="none" stroke="#000" stroke-linecap="round" stroke-width="2" d="M 36,24 V 48"/><path id="Vector_6-2" fill="none" stroke="#000" stroke-linejoin="round" stroke-width="2" d="M 36,56 C 47.0457,56 56,47.0457 56,36 56,24.9543 47.0457,16 36,16 24.9543,16 16,24.9543 16,36 c 0,11.0457 8.9543,20 20,20 z"/></g></svg>