<?xml version="1.0" encoding="UTF-8" standalone="no"?>
<svg
   id="emoji"
   viewBox="0 0 39.536404 38.335869"
   version="1.1"
   sodipodi:docname="23fe.svg"
   width="39.536404"
   height="38.335869"
   xmlns:inkscape="http://www.inkscape.org/namespaces/inkscape"
   xmlns:sodipodi="http://sodipodi.sourceforge.net/DTD/sodipodi-0.dtd"
   xmlns="http://www.w3.org/2000/svg"
   xmlns:svg="http://www.w3.org/2000/svg">
  <defs
     id="defs2" />
  <sodipodi:namedview
     id="namedview2"
     pagecolor="#ffffff"
     bordercolor="#000000"
     borderopacity="0.25"
     inkscape:showpageshadow="2"
     inkscape:pageopacity="0.0"
     inkscape:pagecheckerboard="0"
     inkscape:deskcolor="#d1d1d1" />
  <g
     id="color"
     transform="translate(-15,-18.664132)">
    <path
       fill="#ffffff"
       d="M 53.4371,45.8226 C 45.6301,51.3482 34.75,50.6151 27.7584,43.6235 21.323,37.1881 20.19,27.4582 24.3594,19.8628 c -5.1179,3.6223 -8.4589,9.589 -8.4589,16.3361 0,11.0457 8.9543,20 20,20 7.5571,0 14.1353,-4.1914 17.5366,-10.3763 z"
       id="path1" />
  </g>
  <g
     id="line"
     transform="translate(-15,-18.664132)">
    <path
       fill="none"
       stroke="#000000"
       stroke-linejoin="round"
       stroke-width="2"
       d="M 53.5366,45.6237 C 45.7296,51.1493 34.8495,50.4162 27.8579,43.4246 21.4225,36.9892 20.2895,27.2593 24.4589,19.6639 19.341,23.2862 16,29.2529 16,36 c 0,11.0457 8.9543,20 20,20 7.5571,0 14.1353,-4.1914 17.5366,-10.3763 z"
       id="path2" />
  </g>
</svg>
