<?xml version="1.0" encoding="UTF-8" standalone="no"?>
<svg
   id="emoji"
   viewBox="0 0 39.999901 41.813023"
   version="1.1"
   sodipodi:docname="25b6.svg"
   width="39.999901"
   height="41.813023"
   xmlns:inkscape="http://www.inkscape.org/namespaces/inkscape"
   xmlns:sodipodi="http://sodipodi.sourceforge.net/DTD/sodipodi-0.dtd"
   xmlns="http://www.w3.org/2000/svg"
   xmlns:svg="http://www.w3.org/2000/svg">
  <defs
     id="defs2" />
  <sodipodi:namedview
     id="namedview2"
     pagecolor="#ffffff"
     bordercolor="#000000"
     borderopacity="0.25"
     inkscape:showpageshadow="2"
     inkscape:pageopacity="0.0"
     inkscape:pagecheckerboard="0"
     inkscape:deskcolor="#d1d1d1" />
  <g
     id="color"
     transform="translate(-16.0968,-15.090177)">
    <path
       fill="#ffffff"
       d="m 20.0838,54.8805 c 0.4669,0.1716 0.9922,0.286 1.5175,0.286 0.8171,0 1.6342,-0.286 2.3345,-0.7436 l 28.8896,-15.3878 0.2918,-0.286 c 0.7587,-0.7436 1.1672,-1.6589 1.1672,-2.6886 0,-1.0297 -0.4085,-2.0021 -1.1672,-2.6886 L 52.8254,33.0859 23.9358,17.5836 c -1.0505,-0.8008 -2.568,-0.9724 -3.8519,-0.4576 -1.4591,0.572 -2.3928,2.0021 -2.3928,3.5467 v 30.6612 c 0,1.5445 0.9337,2.9746 2.3928,3.5466 z"
       id="path1" />
  </g>
  <g
     id="line"
     transform="translate(-16.0968,-15.090177)">
    <path
       fill="none"
       stroke="#000000"
       stroke-linejoin="round"
       stroke-width="2"
       d="m 19.5816,55.6062 c 0.4848,0.1782 1.0303,0.297 1.5758,0.297 0.8485,0 1.697,-0.297 2.4242,-0.7722 l 30,-15.9793 0.303,-0.297 c 0.7879,-0.7722 1.2121,-1.7227 1.2121,-2.7919 0,-1.0692 -0.4242,-2.0791 -1.2121,-2.7919 l -0.303,-0.297 -30,-16.0981 c -1.0909,-0.8316 -2.6667,-1.0098 -4,-0.4752 -1.5152,0.594 -2.4848,2.0791 -2.4848,3.683 v 31.8397 c 0,1.6039 0.9696,3.0889 2.4848,3.6829 z"
       id="path2" />
  </g>
</svg>
