<?xml version="1.0" encoding="UTF-8" standalone="no"?>
<svg
   id="emoji"
   viewBox="0 0 58 58"
   version="1.1"
   sodipodi:docname="25d0.svg"
   width="58"
   height="58"
   xmlns:inkscape="http://www.inkscape.org/namespaces/inkscape"
   xmlns:sodipodi="http://sodipodi.sourceforge.net/DTD/sodipodi-0.dtd"
   xmlns="http://www.w3.org/2000/svg"
   xmlns:svg="http://www.w3.org/2000/svg">
  <defs
     id="defs4" />
  <sodipodi:namedview
     id="namedview4"
     pagecolor="#ffffff"
     bordercolor="#000000"
     borderopacity="0.25"
     inkscape:showpageshadow="2"
     inkscape:pageopacity="0.0"
     inkscape:pagecheckerboard="0"
     inkscape:deskcolor="#d1d1d1" />
  <g
     id="color"
     transform="translate(-7,-7)">
    <path
       fill="#ffffff"
       d="M 36.7946,44.5356 V 8.9226 c 7.4261,0 13.7534,3.0274 19.0044,8.2784 5.251,5.251 7.6176,11.6901 7.6176,19.1162 0,7.4261 -2.6864,13.5741 -7.9374,18.8251 -5.251,5.251 -10.9775,8.0077 -18.4036,8.0077 l -0.281,-18.6143 z"
       id="path1" />
    <path
       fill="#3f3f3f"
       d="M 37,44.2857 35.1468,8.9836 c -7.9565,0 -13.6584,3.1402 -19.2845,8.5788 -5.6261,5.4386 -8.3703,14.6227 -6.8135,22.5479 1.5453,7.8672 3.9269,11.6304 9.553,17.069 6.6731,4.8468 10.4418,6.0409 18.3983,6.0409 V 44.2857 Z"
       id="path2" />
  </g>
  <g
     id="line"
     transform="translate(-7,-7)">
    <path
       fill="none"
       stroke="#000000"
       stroke-linejoin="round"
       stroke-width="2"
       d="M 36,64 C 51.464,64 64,51.464 64,36 64,20.536 51.464,8 36,8 20.536,8 8,20.536 8,36 8,51.464 20.536,64 36,64 Z"
       id="path3" />
    <path
       fill="none"
       stroke="#000000"
       stroke-linecap="round"
       stroke-width="2"
       d="M 36,8 V 61"
       id="path4" />
  </g>
</svg>
