<?xml version="1.0" encoding="UTF-8" standalone="no"?>
<svg
   id="emoji"
   viewBox="0 0 50 50"
   version="1.1"
   sodipodi:docname="25e9.svg"
   width="50"
   height="50"
   xmlns:inkscape="http://www.inkscape.org/namespaces/inkscape"
   xmlns:sodipodi="http://sodipodi.sourceforge.net/DTD/sodipodi-0.dtd"
   xmlns="http://www.w3.org/2000/svg"
   xmlns:svg="http://www.w3.org/2000/svg">
  <defs
     id="defs4" />
  <sodipodi:namedview
     id="namedview4"
     pagecolor="#ffffff"
     bordercolor="#000000"
     borderopacity="0.25"
     inkscape:showpageshadow="2"
     inkscape:pageopacity="0.0"
     inkscape:pagecheckerboard="0"
     inkscape:deskcolor="#d1d1d1" />
  <g
     id="color"
     transform="translate(-11,-11)">
    <path
       fill="#ffffff"
       d="M 60,12 V 60 H 12 Z"
       id="path1" />
    <path
       fill="#3f3f3f"
       d="M 12.9952,12.9336 57.8765,12.8535 14.6953,59.0491 12.7644,58.9879 12.9953,12.9336 Z"
       id="path2" />
  </g>
  <g
     id="line"
     transform="translate(-11,-11)">
    <path
       fill="none"
       stroke="#000000"
       stroke-linejoin="round"
       stroke-width="2"
       d="m 59.0349,60 h -46.07 C 12.7092,59.9992 12.4642,59.8973 12.2834,59.7164 12.1026,59.5356 12.0007,59.2906 12,59.0349 v -46.07 c 8e-4,-0.2557 0.1027,-0.5007 0.2836,-0.6815 0.1808,-0.1808 0.4258,-0.2827 0.6815,-0.2834 h 46.07 c 0.2557,8e-4 0.5007,0.1027 0.6815,0.2836 0.1808,0.1808 0.2827,0.4258 0.2834,0.6815 v 46.07 c -8e-4,0.2557 -0.1027,0.5007 -0.2836,0.6815 -0.1808,0.1808 -0.4258,0.2827 -0.6815,0.2834 z"
       id="path3" />
    <path
       fill="none"
       stroke="#000000"
       stroke-linecap="round"
       stroke-width="2"
       d="M 59,13 15,57"
       id="path4" />
  </g>
</svg>
