<?xml version="1.0" encoding="UTF-8" standalone="no"?>
<svg
   id="emoji"
   viewBox="0 0 61.999741 61.999741"
   version="1.1"
   sodipodi:docname="2600.svg"
   width="61.999741"
   height="61.999741"
   xmlns:inkscape="http://www.inkscape.org/namespaces/inkscape"
   xmlns:sodipodi="http://sodipodi.sourceforge.net/DTD/sodipodi-0.dtd"
   xmlns="http://www.w3.org/2000/svg"
   xmlns:svg="http://www.w3.org/2000/svg">
  <defs
     id="defs2" />
  <sodipodi:namedview
     id="namedview2"
     pagecolor="#ffffff"
     bordercolor="#000000"
     borderopacity="0.25"
     inkscape:showpageshadow="2"
     inkscape:pageopacity="0.0"
     inkscape:pagecheckerboard="0"
     inkscape:deskcolor="#d1d1d1" />
  <g
     id="color"
     transform="translate(-5.000129,-5.000129)">
    <polygon
       fill="#fcea2b"
       stroke="none"
       points="61.9819,51.0063 50.1418,50.1424 51.0056,61.9823 41.1813,55.3236 36,66 30.8184,55.3235 20.9937,61.9819 21.8576,50.1418 10.0177,51.0056 16.6764,41.1813 6,36 16.6765,30.8184 10.0181,20.9937 21.8582,21.8576 20.9944,10.0177 30.8187,16.6764 36,6 41.1816,16.6765 51.0063,10.0181 50.1424,21.8582 61.9823,20.9944 55.3236,30.8187 66,36 55.3235,41.1816 "
       id="polygon1" />
  </g>
  <g
     id="hair"
     transform="translate(-5.000129,-5.000129)" />
  <g
     id="skin"
     transform="translate(-5.000129,-5.000129)" />
  <g
     id="skin-shadow"
     transform="translate(-5.000129,-5.000129)" />
  <g
     id="line"
     transform="translate(-5.000129,-5.000129)">
    <circle
       cx="36"
       cy="35.950001"
       r="19.8276"
       fill="none"
       stroke="#000000"
       stroke-linecap="round"
       stroke-linejoin="round"
       stroke-miterlimit="10"
       stroke-width="2"
       id="circle1" />
    <polygon
       fill="none"
       stroke="#000000"
       stroke-linecap="round"
       stroke-linejoin="round"
       stroke-miterlimit="10"
       stroke-width="2"
       points="61.9819,51.0063 50.1418,50.1424 51.0056,61.9823 41.1813,55.3236 36,66 30.8184,55.3235 20.9937,61.9819 21.8576,50.1418 10.0177,51.0056 16.6764,41.1813 6,36 16.6765,30.8184 10.0181,20.9937 21.8582,21.8576 20.9944,10.0177 30.8187,16.6764 36,6 41.1816,16.6765 51.0063,10.0181 50.1424,21.8582 61.9823,20.9944 55.3236,30.8187 66,36 55.3235,41.1816 "
       id="polygon2" />
  </g>
</svg>
