<svg xmlns="http://www.w3.org/2000/svg" xmlns:svg="http://www.w3.org/2000/svg" id="emoji" width="62" height="62" version="1.1" viewBox="0 0 62 62"><g id="color" transform="translate(-5.000129,-5.000129)"><polygon id="polygon1" fill="#fcea2b" stroke="none" points="61.982 51.006 50.142 50.142 51.006 61.982 41.181 55.324 36 66 30.818 55.324 20.994 61.982 21.858 50.142 10.018 51.006 16.676 41.181 6 36 16.677 30.818 10.018 20.994 21.858 21.858 20.994 10.018 30.819 16.676 36 6 41.182 16.677 51.006 10.018 50.142 21.858 61.982 20.994 55.324 30.819 66 36 55.324 41.182"/></g><g id="line" transform="translate(-5.000129,-5.000129)"><circle id="circle1" cx="36" cy="35.95" r="19.828" fill="none" stroke="#000" stroke-linecap="round" stroke-linejoin="round" stroke-miterlimit="10" stroke-width="2"/><polygon id="polygon2" fill="none" stroke="#000" stroke-linecap="round" stroke-linejoin="round" stroke-miterlimit="10" stroke-width="2" points="61.982 51.006 50.142 50.142 51.006 61.982 41.181 55.324 36 66 30.818 55.324 20.994 61.982 21.858 50.142 10.018 51.006 16.676 41.181 6 36 16.677 30.818 10.018 20.994 21.858 21.858 20.994 10.018 30.819 16.676 36 6 41.182 16.677 51.006 10.018 50.142 21.858 61.982 20.994 55.324 30.819 66 36 55.324 41.182"/></g></svg>