<svg xmlns="http://www.w3.org/2000/svg" xmlns:svg="http://www.w3.org/2000/svg" id="emoji" width="47.057" height="44.888" version="1.1" viewBox="0 0 47.057 44.888"><g id="color" transform="translate(-14.943044,-11.151073)"><path id="path1" fill="#fff" fill-rule="evenodd" d="m 36,52 c 9.9411,0 18,-8.0589 18,-18 H 18 c 0,9.9411 8.0589,18 18,18 z"/><path id="path2" fill="#d0cfce" fill-rule="evenodd" d="m 48.6162,50.6071 c 0.3634,-0.0085 0.8242,-0.035 0.3004,0.786 -0.6808,1.067 -1.109,1.7206 -1.8992,2.6872 -0.1829,0.2652 -0.4863,0.1697 -0.8084,0.1697 h 8.4206 c 0.2789,0 1.8401,-1.7679 2.9604,-2.7771 0.4262,-0.6415 0.9505,-0.7229 0.1803,-0.7229 0,0 -8.5204,-0.1429 -9.1541,-0.1429 z"/><path id="path3" fill="#d0cfce" fill-rule="evenodd" d="m 46.5067,49.5237 c 5.5804,-3.5502 7.7456,-7.7841 7.7456,-14.75 h -8.5 c -0.466,6.9489 -1.0169,10.097 -4.7056,14.75 z"/><path id="path4" fill="#fff" d="m 55.0324,34.751 -2.8466,9.3477 c 0,0 7.7321,1.3848 7.9244,-3.9622 0.1827,-5.0781 -5.0778,-5.3855 -5.0778,-5.3855 z"/><path id="path5" fill="#d0cfce" fill-rule="evenodd" stroke="#d0cfce" stroke-miterlimit="10" stroke-width="3" d="m 39.5295,21.1886 c 0.0038,-0.0038 0.0076,-0.0076 0.0114,-0.0114 1.9526,-1.9526 1.9526,-5.1184 0,-7.0711 -1.9526,-1.9526 -5.1184,-1.9526 -7.071,0 1.1715,-1.1715 3.071,-1.1715 4.2426,0 1.1716,1.1716 1.1716,3.0711 0,4.2427 l -3.4534,3.4534 c -0.0038,0.0038 -0.0076,0.0076 -0.0114,0.0114 -1.9526,1.9526 -1.9526,5.1184 0,7.071 1.9526,1.9526 5.1184,1.9526 7.0711,0 -1.1716,1.1716 -3.0711,1.1716 -4.2427,0 -1.1716,-1.1716 -1.1716,-3.071 0,-4.2426 0,0 3.4534,-3.4534 3.4534,-3.4534 z"/><path id="path6" fill="#d0cfce" fill-rule="evenodd" stroke="#d0cfce" stroke-miterlimit="10" stroke-width="1.498" d="m 33.0109,14.6184 c -0.2916,0.2935 -0.766,0.2951 -1.0596,0.0034 -0.2936,-0.2917 -0.2951,-0.766 -0.0034,-1.0596"/><path id="path7" fill="#d0cfce" fill-rule="evenodd" stroke="#d0cfce" stroke-miterlimit="10" stroke-width="1.498" d="m 40.8723,29.4025 c 0.294,-0.2912 0.2963,-0.7656 0.0051,-1.0596 -0.2912,-0.294 -0.7656,-0.2963 -1.0596,-0.0051"/></g><g id="line" transform="translate(-14.943044,-11.151073)"><path id="path8" fill="none" stroke="#000" stroke-linecap="round" stroke-linejoin="round" stroke-width="2" d="M 24,47.4166 C 20.3175,44.1207 18,39.331 18,34 h 36 c 0,5.331 -2.3175,10.1207 -6,13.4166"/><path id="path9" fill="none" stroke="#000" stroke-linecap="round" stroke-width="2" d="m 51,45 h 4.5 C 58.5376,45 61,42.5376 61,39.5 61,36.4624 58.5376,34 55.5,34 H 53"/><path id="path10" fill="none" stroke="#000" stroke-miterlimit="10" stroke-width="2" d="m 16.5086,49.9385 h 41.8588 c 0.69,0 1.0356,0.8343 0.5477,1.3222 l -3.4059,3.1559 c -0.3985,0.3985 -0.9389,0.6223 -1.5025,0.6223 H 20.73 c -0.661,0 -1.2877,-0.2941 -1.7102,-0.8025 l -2.9687,-3.3231 c -0.322,-0.3875 -0.0464,-0.9748 0.4574,-0.9748 z"/></g></svg>