<svg xmlns="http://www.w3.org/2000/svg" xmlns:svg="http://www.w3.org/2000/svg" id="emoji" width="35.168" height="65.431" version="1.1" viewBox="0 0 35.168 65.431"><g id="skin" transform="translate(-19.278183,-3.2429194)"><path id="path1" fill="#debb90" stroke="#debb90" d="m 20.2385,52.0665 c 1.0756,8.6001 8.0438,14.9847 16.215,14.857 9.106,0 16.8546,-6.833 16.8546,-16.878 l -0.0019,0.251 -0.6189,-11.213 c -0.1679,-2.1944 -1.9158,-3.8708 -3.9892,-3.826 H 39.2784 C 33.6445,32.0349 20.414,41.8444 20.414,43.7674"/><path id="path2" fill="#debb90" stroke="#debb90" d="m 23.6714,48.4689 c -1.9056,-0.1527 -4.0021,-1.6337 -3.8889,-3.6995 l 0.0538,-14.7823 c -0.2381,-1.933 3.3124,-3.8158 5.0972,-4.0736 1.7848,-0.2578 2.473,2.9834 2.7111,4.9164 0.9887,-5.0982 0.2472,-0.932 -0.7415,6.639 v 7 c 0.1132,2.0658 -1.3261,3.8473 -3.2317,4 z"/><path id="path3" fill="#debb90" stroke="#debb90" d="m 31.5339,53.2379 c -1.9056,-0.1527 -3.345,-1.9342 -3.2317,-4 l -0.029,-19.7702 c -0.6874,-1.8063 -5.2848,-1.2272 2.9078,-3.2917 1.7538,-0.4419 2.9939,0.7177 3.2319,2.6507 0.0382,0.3099 0.3909,5.1012 0.3528,5.4111 v 15 c 0.1132,2.0659 -1.3262,3.8474 -3.2318,4.0001 z"/><path id="path4" fill="#debb90" stroke="#debb90" d="m 33.7593,37.9333 v -7.3098 c -0.0213,-1.9167 2.1944,-5.08 4.2141,-5.3379 2.0197,-0.2578 6.9202,1.697 7.1896,3.63 0.0432,0.3099 0.0171,1.1216 -0.0261,1.4314 l -2.0281,5.8444"/><path id="path5" fill="#debb90" stroke="#debb90" d="m 43.1089,37.6294 0.366,-29.2067 c 0,-6.175 9.417,-5.3884 9.417,0.283 l 1.0547,30.9545"/></g><g id="line" transform="translate(-19.278183,-3.2429194)"><path id="path6" fill="none" stroke="#000" stroke-linecap="round" stroke-linejoin="round" stroke-width="2" d="m 24.3121,40.8979 c -2.0638,-0.1527 -3.6226,-1.9342 -3.5,-4 v -7 c -0.2578,-1.933 1.1001,-3.709 3.0331,-3.9669 1.933,-0.2578 3.709,1.1001 3.9669,3.0331 0.0413,0.3099 0.0413,0.6239 0,0.9337 v 7 c 0.1226,2.0659 -1.4362,3.8474 -3.5,4.0001 z"/><path id="path7" fill="none" stroke="#000" stroke-linecap="round" stroke-miterlimit="10" stroke-width="2" d="M 53.3092,51.072 V 40.7288 c -0.1631,-2.228 -1.7835,-4.5373 -4.8134,-4.5373"/><path id="path8" fill="none" stroke="#000" stroke-linecap="round" stroke-miterlimit="10" stroke-width="2" d="m 48.4958,36.1982 h -8.2889 c -1.7123,-0.1206 -3.189,1.4125 -3.3155,3.4423 0.1509,2.0752 1.5455,3.7158 3.2957,3.877 l 0.8695,0.1151 c 1.8128,0.238 3.2957,1.3199 3.2957,2.4018 v 1.967 0.4327 c -1.7849,0.4502 -3.4373,1.4541 -4.7885,2.9093"/><path id="path9" fill="none" stroke="#000" stroke-linecap="round" stroke-miterlimit="10" stroke-width="2" d="m 20.7807,53.0597 c 1.058,8.4584 7.9121,14.7378 15.9497,14.6122 8.957,0 16.5788,-6.7204 16.5788,-16.5999 l -10e-4,-0.001"/><line id="line9" x1="44.308" x2="44.308" y1="8.372" y2="23.361" fill="none" stroke="#000" stroke-linecap="round" stroke-miterlimit="10" stroke-width="2"/><line id="line10" x1="52.683" x2="52.683" y1="8.58" y2="33.399" fill="none" stroke="#000" stroke-linecap="round" stroke-miterlimit="10" stroke-width="2"/><path id="path10" fill="none" stroke="#000" stroke-linecap="round" stroke-miterlimit="10" stroke-width="2" d="m 44.3083,8.372 c 0,-5.875 8.375,-5.1875 8.375,0.2083"/><path id="path11" fill="none" stroke="#000" stroke-linecap="round" stroke-linejoin="round" stroke-width="2" d="m 32.7489,40.7605 c -3.322,1.2271 -4.997,-1.9342 -4.8744,-4 v -7 c -0.2578,-1.933 1.1001,-3.709 3.0331,-3.9669 1.933,-0.2578 3.709,1.1001 3.9669,3.0331 0.0413,0.3099 0.0413,0.6239 0,0.9337"/><path id="path12" fill="none" stroke="#000" stroke-linecap="round" stroke-linejoin="round" stroke-width="2" d="m 34.9369,34.1256 v -5.3175 c -0.2578,-1.933 1.1001,-3.709 3.0331,-3.9669 1.933,-0.2578 3.709,1.1001 3.9669,3.0331 0.0413,0.3099 0.0413,0.6239 0,0.9337 l 0.031,3.5043"/><path id="path13" fill="none" stroke="#000" stroke-linecap="round" stroke-miterlimit="10" stroke-width="2" d="m 20.7807,53.0597 c -0.08,-1.5115 0,-8.9394 0,-8.9394"/></g></svg>