<svg xmlns="http://www.w3.org/2000/svg" xmlns:svg="http://www.w3.org/2000/svg" id="emoji" width="50" height="50" version="1.1" viewBox="0 0 50 50"><g id="color" transform="translate(-11,-11)"><rect id="rect1" width="48" height="47.83" x="12" y="12" fill="#b399c8"/></g><g id="line" transform="translate(-11,-11)"><path id="path1" fill="none" stroke="#000" stroke-linecap="round" stroke-linejoin="round" stroke-width="3" d="m 51.01,35.99 a 15,15 0 1 1 -15,-15 15,15 0 0 1 15,15 z"/><path id="path2" fill="none" stroke="#000" stroke-linecap="round" stroke-linejoin="round" stroke-width="3" d="M 41,36 A 5,5 0 1 1 36,30.999 5.001,5.001 0 0 1 41,36 Z"/><line id="line2" x1="36" x2="36" y1="31" y2="19" fill="none" stroke="#000" stroke-linecap="round" stroke-linejoin="round" stroke-width="3"/><line id="line3" x1="36" x2="36" y1="53" y2="41" fill="none" stroke="#000" stroke-linecap="round" stroke-linejoin="round" stroke-width="3"/><rect id="rect3" width="48" height="48" x="12" y="12" fill="none" stroke="#000" stroke-linecap="round" stroke-linejoin="round" stroke-width="2"/><line id="line4" x1="41" x2="53" y1="36" y2="36" fill="none" stroke="#000" stroke-linecap="round" stroke-linejoin="round" stroke-width="3"/><line id="line5" x1="19" x2="31" y1="36" y2="36" fill="none" stroke="#000" stroke-linecap="round" stroke-linejoin="round" stroke-width="3"/><line id="line6" x1="39.54" x2="48.02" y1="32.46" y2="23.98" fill="none" stroke="#000" stroke-linecap="round" stroke-linejoin="round" stroke-width="3"/><line id="line7" x1="23.98" x2="32.46" y1="48.02" y2="39.54" fill="none" stroke="#000" stroke-linecap="round" stroke-linejoin="round" stroke-width="3"/><line id="line8" x1="32.46" x2="23.98" y1="32.46" y2="23.98" fill="none" stroke="#000" stroke-linecap="round" stroke-linejoin="round" stroke-width="3"/><line id="line9" x1="48.02" x2="39.54" y1="48.02" y2="39.54" fill="none" stroke="#000" stroke-linecap="round" stroke-linejoin="round" stroke-width="3"/></g></svg>