<svg xmlns="http://www.w3.org/2000/svg" xmlns:svg="http://www.w3.org/2000/svg" id="emoji" width="43.976" height="43.976" version="1.1" viewBox="0 0 43.976 43.976"><g id="color" transform="translate(-11.761865,-13.9214)"><circle id="circle1" cx="27.839" cy="42.035" r="11.87" fill="#fff"/><path id="path1" fill="#9b9b9a" d="m 40.0944,33.0963 0.9439,-0.9438 7.5124,-7.5121 1.3506,-1.3432 V 36.0217 L 54.851,31.072 V 14.8084 H 38.5877 l -4.9497,4.9497 h 12.7278 l -0.0836,0.0835 -0.4706,0.4706 -8.4264,8.4268 -0.8243,0.8243 c -5.858,-4.1749 -14.0433,-3.6346 -19.2989,1.621 -5.8579,5.8579 -5.8579,15.3553 0,21.2132 5.8578,5.8578 15.3553,5.8579 21.2132,0 5.2562,-5.2562 5.796,-13.443 1.6192,-19.3012 z M 20.7663,48.8932 c -3.9052,-3.9052 -3.9052,-10.2369 0,-14.1421 3.9052,-3.9052 10.2369,-3.9052 14.1421,0 3.9052,3.9052 3.9052,10.2369 0,14.1421 -3.9052,3.9052 -10.2369,3.9052 -14.1421,0 z"/></g><g id="line" transform="translate(-11.761865,-13.9214)"><path id="path2" fill="none" stroke="#000" stroke-linecap="round" stroke-linejoin="round" stroke-width="2" d="M 54.7381,14.9214 H 38.4746 l -4.9497,4.9497 h 12.7279 l -0.0835,0.0835 -0.4707,0.4707 -8.4264,8.4267 -0.8243,0.8243 c -5.858,-4.1749 -14.0433,-3.6346 -19.2989,1.621 -5.8579,5.8579 -5.8579,15.3553 0,21.2132 5.8579,5.8579 15.3553,5.8579 21.2132,0 5.2563,-5.2563 5.7961,-13.4431 1.6193,-19.3013 l 0.9439,-0.9439 7.5124,-7.5121 1.3505,-1.3433 v 12.7245 l 4.9497,-4.9497 v -16.2633 0 z"/><circle id="circle2" cx="27.755" cy="41.904" r="10" fill="none" stroke="#000" stroke-linecap="round" stroke-linejoin="round" stroke-width="2"/></g></svg>