<svg xmlns="http://www.w3.org/2000/svg" xmlns:svg="http://www.w3.org/2000/svg" id="emoji" width="50" height="50" version="1.1" viewBox="0 0 50 50"><g id="color" transform="translate(-11,-11)"><rect id="rect1" width="48" height="48" x="12" y="12" fill="#b399c8"/></g><g id="line" transform="translate(-11,-11)"><rect id="rect2" width="48" height="48" x="12" y="12" fill="none" stroke="#000" stroke-linecap="round" stroke-linejoin="round" stroke-width="2"/><path id="path2" fill="none" stroke="#000" stroke-linecap="round" stroke-linejoin="round" stroke-width="3" d="M 35.23,44.91 35.355,31.23"/><path id="path3" fill="none" stroke="#000" stroke-linecap="round" stroke-linejoin="round" stroke-width="3" d="M 26.31,44.91 V 30.88 c -0.1453,-1.558 -0.6264,-3.32 -2.212,-5.754"/><path id="path4" fill="none" stroke="#000" stroke-linecap="round" stroke-linejoin="round" stroke-width="3" d="m 26.31,31.22 c 0,0 0.766,-6.485 4.523,-6.437 3.757,0.048 4.405,4.103 4.523,6.437 0.1828,-2.264 0.9161,-6.54 4.478,-6.544 3.562,-0.0042 4.31,3.958 4.478,6.544 l 1.15e-4,13.68 c 0.3653,2.829 2.394,5.11 3.829,5.112"/><path id="path5" fill="none" stroke="#000" stroke-linecap="round" stroke-linejoin="round" stroke-width="3" d="m 48.141,50.012 c 3.042,0.4881 3.964,-9.966 1.124,-10.73 -3.348,-0.5788 -5.387,7.691 -7.545,13.16"/></g></svg>