<?xml version="1.0" encoding="UTF-8" standalone="no"?>
<svg
   id="emoji"
   viewBox="0 0 50 50"
   version="1.1"
   sodipodi:docname="2652.svg"
   width="50"
   height="50"
   xmlns:inkscape="http://www.inkscape.org/namespaces/inkscape"
   xmlns:sodipodi="http://sodipodi.sourceforge.net/DTD/sodipodi-0.dtd"
   xmlns="http://www.w3.org/2000/svg"
   xmlns:svg="http://www.w3.org/2000/svg">
  <defs
     id="defs3" />
  <sodipodi:namedview
     id="namedview3"
     pagecolor="#ffffff"
     bordercolor="#000000"
     borderopacity="0.25"
     inkscape:showpageshadow="2"
     inkscape:pageopacity="0.0"
     inkscape:pagecheckerboard="0"
     inkscape:deskcolor="#d1d1d1" />
  <g
     id="color"
     transform="translate(-11,-11)">
    <rect
       x="12"
       y="12"
       width="48"
       height="47.830002"
       fill="#b399c8"
       id="rect1" />
  </g>
  <g
     id="line"
     transform="translate(-11,-11)">
    <rect
       x="12"
       y="12"
       width="48"
       height="48"
       fill="none"
       stroke="#000000"
       stroke-linecap="round"
       stroke-linejoin="round"
       stroke-width="2"
       id="rect2" />
    <path
       fill="none"
       stroke="#000000"
       stroke-linecap="round"
       stroke-miterlimit="10"
       stroke-width="3"
       d="m 52.05,41.23 c 0,0 -0.0772,-3.854 -3.211,-3.802 0,0 -3.21,-0.0224 -3.21,3.622 0,3.6444 -3.211,3.622 -3.211,3.622 -3.133,0.0508 -3.21,-3.763 -3.21,-3.763 1e-4,-3.683 -3.21,-3.66 -3.21,-3.66 -3.134,-0.0517 -3.211,3.75 -3.211,3.75 -10e-5,3.669 -3.211,3.647 -3.211,3.647 -3.134,0.0508 -3.211,-3.776 -3.211,-3.776 0,-3.695 -3.209,-3.673 -3.209,-3.673 -3.135,-0.0508 -3.211,3.802 -3.211,3.802"
       id="path2" />
    <path
       fill="none"
       stroke="#000000"
       stroke-linecap="round"
       stroke-miterlimit="10"
       stroke-width="3"
       d="m 52.05,31.36 c 0,0 -0.0772,-3.854 -3.211,-3.802 0,0 -3.21,-0.0224 -3.21,3.622 0,3.6444 -3.211,3.622 -3.211,3.622 -3.133,0.0508 -3.21,-3.763 -3.21,-3.763 1e-4,-3.683 -3.21,-3.66 -3.21,-3.66 -3.134,-0.0517 -3.211,3.75 -3.211,3.75 -10e-5,3.669 -3.211,3.647 -3.211,3.647 C 26.442,34.8268 26.365,31 26.365,31 c 0,-3.695 -3.209,-3.673 -3.209,-3.673 -3.135,-0.0508 -3.211,3.802 -3.211,3.802"
       id="path3" />
  </g>
</svg>
