<?xml version="1.0" encoding="UTF-8" standalone="no"?>
<svg
   id="emoji"
   viewBox="0 0 49.400002 56.099941"
   version="1.1"
   sodipodi:docname="2660.svg"
   width="49.400002"
   height="56.099941"
   xmlns:inkscape="http://www.inkscape.org/namespaces/inkscape"
   xmlns:sodipodi="http://sodipodi.sourceforge.net/DTD/sodipodi-0.dtd"
   xmlns="http://www.w3.org/2000/svg"
   xmlns:svg="http://www.w3.org/2000/svg">
  <defs
     id="defs4" />
  <sodipodi:namedview
     id="namedview4"
     pagecolor="#ffffff"
     bordercolor="#000000"
     borderopacity="0.25"
     inkscape:showpageshadow="2"
     inkscape:pageopacity="0.0"
     inkscape:pagecheckerboard="0"
     inkscape:deskcolor="#d1d1d1" />
  <g
     id="color"
     transform="translate(-11.3,-7.1000596)">
    <path
       fill="#3f3f3f"
       d="m 39.4,51.9 c 0.8,3.6 5.4,9.5 7.3,10.3 H 36 25.3 c 1.9,-0.8 6.6,-6.8 7.3,-10.3 L 36,48 Z"
       id="path1" />
    <path
       fill="#3f3f3f"
       d="m 12.3,42 c 0,7 5.6,12.6 12.6,12.6 4.8,0 9,-2.7 11.1,-6.6 2.1,3.9 6.3,6.6 11.1,6.6 7,0 12.6,-5.6 12.6,-12.6 0,-3 -1,-5.7 -2.8,-7.9 v 0 L 36,8.1 15.1,34.1 v 0 C 13.3,36.2 12.3,39 12.3,42 Z"
       id="path2" />
  </g>
  <g
     id="line"
     transform="translate(-11.3,-7.1000596)">
    <path
       fill="none"
       stroke="#000000"
       stroke-linecap="round"
       stroke-linejoin="round"
       stroke-width="2"
       d="m 39.4,52.1 c 0.8,3.6 5.4,9.3 7.3,10.1 H 36 25.3 c 1.9,-0.8 6.6,-6.6 7.3,-10.1"
       id="path3" />
    <path
       fill="none"
       stroke="#000000"
       stroke-linecap="round"
       stroke-linejoin="round"
       stroke-width="2"
       d="m 12.3,42 c 0,7 5.6,12.6 12.6,12.6 4.8,0 9,-2.7 11.1,-6.6 2.1,3.9 6.3,6.6 11.1,6.6 7,0 12.6,-5.6 12.6,-12.6 0,-3 -1,-5.7 -2.8,-7.9 v 0 L 36,8.1 15.1,34.1 v 0 C 13.3,36.2 12.3,39 12.3,42 Z"
       id="path4" />
  </g>
</svg>
