<?xml version="1.0" encoding="UTF-8" standalone="no"?>
<svg
   id="emoji"
   viewBox="0 0 57.825401 51.700001"
   version="1.1"
   sodipodi:docname="2668.svg"
   width="57.825401"
   height="51.700001"
   xmlns:inkscape="http://www.inkscape.org/namespaces/inkscape"
   xmlns:sodipodi="http://sodipodi.sourceforge.net/DTD/sodipodi-0.dtd"
   xmlns="http://www.w3.org/2000/svg"
   xmlns:svg="http://www.w3.org/2000/svg">
  <defs
     id="defs14" />
  <sodipodi:namedview
     id="namedview14"
     pagecolor="#ffffff"
     bordercolor="#000000"
     borderopacity="0.25"
     inkscape:showpageshadow="2"
     inkscape:pageopacity="0.0"
     inkscape:pagecheckerboard="0"
     inkscape:deskcolor="#d1d1d1" />
  <g
     id="color"
     transform="translate(-7.0872,-11.099)">
    <path
       fill="none"
       stroke="#ea5a47"
       stroke-linecap="round"
       stroke-linejoin="round"
       stroke-width="2"
       d="m 31.9614,12.3875 c 0,0 -9.4036,7.4062 -1.7964,16.3364 7.6072,8.9302 -1.7964,16.3361 -1.7964,16.3361 h -2 c 0,0 9.4036,-7.4061 1.7964,-16.3363 -7.6072,-8.9302 1.7964,-16.3364 1.7964,-16.3364 z"
       id="path1" />
    <path
       fill="none"
       stroke="#ea5a47"
       stroke-linecap="round"
       stroke-linejoin="round"
       stroke-width="2"
       d="m 40.277,12.099 c 0,0 -9.4036,7.4062 -1.7964,16.3364 7.6072,8.9302 -1.7964,16.3363 -1.7964,16.3363 h -2 c 0,0 9.4036,-7.4062 1.7964,-16.3363 C 28.8734,19.5053 38.277,12.099 38.277,12.099 Z"
       id="path2" />
    <path
       fill="#ea5a47"
       d="m 20.201,31.7718 c -6.445,2.6625 -8.29,6.1415 -8.29,11.195 0,8.1563 11.0084,14.7683 24.588,14.7683 13.5796,0 24.588,-6.612 24.588,-14.7683 0,-4.9282 -2.5719,-8.2879 -8.7486,-10.9706 7.0119,2.99 11.5742,7.8532 11.5742,13.3451 0,9.0894 -12.497,16.4577 -27.9128,16.4577 -15.4158,0 -27.9126,-7.3683 -27.9126,-16.4577 0,-5.6313 4.7973,-10.6025 12.1138,-13.5695 z"
       id="path3" />
    <path
       fill="#d22f27"
       d="m 36,57.62 q 0.249,0.003 0.4992,0.0029 c 13.58,0 24.588,-6.6119 24.588,-14.7683 0,-4.9281 -2.5719,-8.2878 -8.7486,-10.9705 7.0119,2.99 11.5742,7.8532 11.5742,13.3451 0,9.0894 -12.497,16.4577 -27.9128,16.4577"
       id="path4" />
    <path
       fill="none"
       stroke="#ea5a47"
       stroke-linecap="round"
       stroke-miterlimit="10"
       stroke-width="2"
       d="m 26.7814,45.06 c 0,0 9.4036,-7.4061 1.7964,-16.3363 -7.6072,-8.9302 1.7964,-16.3364 1.7964,-16.3364"
       id="path5" />
    <path
       fill="none"
       stroke="#ea5a47"
       stroke-linecap="round"
       stroke-linejoin="round"
       stroke-width="2"
       d="m 48.782,12.099 c 0,0 -9.4036,7.4062 -1.7964,16.3364 7.6072,8.9302 -1.7964,16.3363 -1.7964,16.3363 h -2 c 0,0 9.4036,-7.4062 1.7964,-16.3363 C 37.3784,19.5053 46.782,12.099 46.782,12.099 Z"
       id="path6" />
    <path
       fill="none"
       stroke="#ea5a47"
       stroke-linecap="round"
       stroke-miterlimit="10"
       stroke-width="2"
       d="m 35.2036,44.7717 c 0,0 9.4036,-7.4062 1.7964,-16.3363 -7.6072,-8.9301 1.7964,-16.3364 1.7964,-16.3364"
       id="path7" />
  </g>
  <g
     id="line"
     transform="translate(-7.0872,-11.099)">
    <path
       fill="none"
       stroke="#000000"
       stroke-linecap="round"
       stroke-linejoin="round"
       stroke-width="2"
       d="m 20.201,31.7718 c -6.445,2.6625 -8.29,6.1415 -8.29,11.195 0,8.1563 11.0084,14.7683 24.588,14.7683 13.5796,0 24.588,-6.612 24.588,-14.7683 0,-4.9282 -2.5719,-8.2879 -8.7486,-10.9706 7.0119,2.99 11.5742,7.8532 11.5742,13.3451 0,9.0894 -12.497,16.4577 -27.9128,16.4577 -15.4158,0 -27.9126,-7.3683 -27.9126,-16.4577 0,-5.6313 4.7973,-10.6025 12.1138,-13.5695 z"
       id="path8" />
    <path
       fill="none"
       stroke="#000000"
       stroke-linecap="round"
       stroke-linejoin="round"
       stroke-width="2"
       d="m 29.3742,12.3875 c 0,0 -9.4036,7.4062 -1.7964,16.3364"
       id="path9" />
    <path
       fill="none"
       stroke="#000000"
       stroke-linecap="round"
       stroke-linejoin="round"
       stroke-width="2"
       d="m 25.7814,45.06 c 0,0 9.4036,-7.4061 1.7964,-16.3363"
       id="path10" />
    <path
       fill="none"
       stroke="#000000"
       stroke-linecap="round"
       stroke-linejoin="round"
       stroke-width="2"
       d="m 46.2186,12.099 c 0,0 -9.4036,7.4062 -1.7964,16.3364"
       id="path11" />
    <path
       fill="none"
       stroke="#000000"
       stroke-linecap="round"
       stroke-linejoin="round"
       stroke-width="2"
       d="m 42.6258,44.7717 c 0,0 9.4036,-7.4062 1.7964,-16.3363"
       id="path12" />
    <path
       fill="none"
       stroke="#000000"
       stroke-linecap="round"
       stroke-linejoin="round"
       stroke-width="2"
       d="m 37.7964,12.099 c 0,0 -9.4036,7.4062 -1.7964,16.3364"
       id="path13" />
    <path
       fill="none"
       stroke="#000000"
       stroke-linecap="round"
       stroke-linejoin="round"
       stroke-width="2"
       d="m 34.2036,44.7717 c 0,0 9.4036,-7.4062 1.7964,-16.3363"
       id="path14" />
  </g>
</svg>
