<?xml version="1.0" encoding="UTF-8" standalone="no"?>
<svg
   id="emoji"
   viewBox="0 0 42.287457 41.37413"
   version="1.1"
   sodipodi:docname="267b.svg"
   width="42.287457"
   height="41.37413"
   xmlns:inkscape="http://www.inkscape.org/namespaces/inkscape"
   xmlns:sodipodi="http://sodipodi.sourceforge.net/DTD/sodipodi-0.dtd"
   xmlns="http://www.w3.org/2000/svg"
   xmlns:svg="http://www.w3.org/2000/svg">
  <defs
     id="defs9" />
  <sodipodi:namedview
     id="namedview9"
     pagecolor="#ffffff"
     bordercolor="#000000"
     borderopacity="0.25"
     inkscape:showpageshadow="2"
     inkscape:pageopacity="0.0"
     inkscape:pagecheckerboard="0"
     inkscape:deskcolor="#d1d1d1" />
  <g
     id="color"
     transform="translate(-13.301088,-14.896103)">
    <polygon
       fill="#ffffff"
       points="44.6545,41.7291 24.6001,40.688 34.5992,22.9548 "
       id="polygon1" />
    <path
       fill="#5c9e31"
       stroke="#5c9e31"
       stroke-linecap="round"
       stroke-linejoin="round"
       stroke-width="2"
       d="m 34.5992,22.9548 -3.6234,5.9466 -10,-6 2.9936,-5.047 c 1.4882,-1.9298 4.1084,-2.4725 6.2065,-1.4143 0.4895,0.2469 0.8889,0.6454 1.1717,1.1151 l 3.2209,5.3487 z"
       id="path1" />
    <path
       fill="#5c9e31"
       stroke="#5c9e31"
       stroke-linecap="round"
       stroke-linejoin="round"
       stroke-width="2"
       d="m 44.595,41.7316 -3.4823,-6.0303 10.0589,-5.9007 2.9947,5.0464 c 0.9804,2.2311 0.2008,4.7908 -1.7335,6.125 -0.4513,0.3113 -0.9925,0.4708 -1.5402,0.4939 l -6.2381,0.2632 z"
       id="path2" />
    <path
       fill="#b1cc33"
       stroke="#b1cc33"
       stroke-linecap="round"
       stroke-linejoin="round"
       stroke-width="2"
       d="m 15.1736,40.4773 6.3786,11.7153 0.0905,0.1672 c 0.457,0.8345 1.0227,0.8014 1.7954,0.8014 h 1.7755 l 5.9275,-0.0201 -0.1741,-11.6606 -3.6013,0.0292 -9.9074,-0.0291 h -0.0168 c -0.0084,-0.0037 -1.6263,0.0036 -1.6346,0 l -0.6333,-1.0032 z"
       id="path3" />
    <path
       fill="#b1cc33"
       stroke="#b1cc33"
       stroke-linecap="round"
       stroke-linejoin="round"
       stroke-width="2"
       d="M 31.3718,17.5602 37,26.9064 35.0962,28.1583 44,28.9064 l 5,-8 -2,1 -3,-5 -0.0966,-0.1637 C 43.4157,15.9258 42.7817,15.9125 42.0428,15.9125 L 27.6754,15.9071 c 0,0 2.6027,-0.1772 3.6964,1.6531 z"
       id="path4" />
    <path
       fill="#5c9e31"
       stroke="#5c9e31"
       stroke-linecap="round"
       stroke-linejoin="round"
       stroke-width="2"
       d="m 28,37.9061 -2,-1 -0.46,0.6599 -2.37,3.9301 -5.71,-0.0199 h -0.02 c -0.01,0 -0.02,0 -0.02,-0.01 -2.14,-0.9501 -3.7,-3.4701 -2.69,-5.7001 l 3.03,-4.98 -1.82,-1.3099 9.41,0.7 z"
       id="path5" />
    <path
       fill="#b1cc33"
       stroke="#b1cc33"
       stroke-linecap="round"
       stroke-linejoin="round"
       stroke-width="2"
       d="m 53.7867,39.5333 -6.5944,12.0412 c -0.3555,0.6477 -0.6895,1.5434 -1.6403,1.5779 l -0.2891,4e-4 -5.7482,-0.008 -0.0478,2.1256 -4.6071,-8.2326 4.754,-7.761 v 2.2145 l 6.6396,-0.0378 5.9102,0.1376 z"
       id="path6" />
  </g>
  <g
     id="line"
     transform="translate(-13.301088,-14.896103)">
    <path
       fill="none"
       stroke="#000000"
       stroke-linecap="round"
       stroke-linejoin="round"
       stroke-width="2"
       d="M 32.2615,26.8361 31,28.9064 l -10,-6 2.9936,-5.047 c 1.4882,-1.9298 4.1084,-2.4725 6.2065,-1.4143 0.4895,0.2469 0.8889,0.6454 1.1717,1.1151 L 37,26.9064 35.0962,28.1583 44,28.9064 l 5,-8 -2,1 -3,-5 -0.0966,-0.1637 c -0.4877,-0.8169 -1.1217,-0.8302 -1.8606,-0.8302 l -7.0917,-0.0054"
       id="path7" />
    <path
       fill="none"
       stroke="#000000"
       stroke-linecap="round"
       stroke-linejoin="round"
       stroke-width="2"
       d="m 14.7341,35.7661 c -1.0145,2.2288 -0.2617,4.7593 1.8762,5.7145 0,0 0.7482,-0.0046 0.7566,-9e-4 l 0.0915,10e-4 9.9074,0.0291 3.6013,-0.0292 0.1741,11.6605 -5.9275,0.0201 h -1.7755 c -0.7727,0 -1.3384,0.0331 -1.7954,-0.8014 l -0.0905,-0.1672 -3.6618,-6.7839"
       id="path8" />
    <polyline
       fill="none"
       stroke="#000000"
       stroke-linecap="round"
       stroke-linejoin="round"
       stroke-width="2"
       points="14.7341 35.7661 17.76 30.7817 15.9432 29.4782 25.3515 30.1741 28 37.9064 26 36.9064 25.5367 37.5666"
       id="polyline8" />
    <path
       fill="none"
       stroke="#000000"
       stroke-linecap="round"
       stroke-linejoin="round"
       stroke-width="2"
       d="m 42.3269,37.7505 -1.2117,-2.1088 10.0715,-5.8791 2.9838,5.0528 c 0.9756,2.2332 0.1905,4.7912 -1.7467,6.1213 -0.4519,0.3103 -0.9935,0.4687 -1.5413,0.4906 l -11.2687,0.0641 v -2.2145 l -4.754,7.761 4.6071,8.2326 0.0478,-2.1256 5.7482,0.008 0.2891,-4e-4 c 0.9508,-0.0344 1.2847,-0.9301 1.6403,-1.5779 l 3.3361,-6.0667"
       id="path9" />
  </g>
</svg>
