<?xml version="1.0" encoding="UTF-8" standalone="no"?>
<svg
   id="emoji"
   viewBox="0 0 50.457706 46.856754"
   version="1.1"
   sodipodi:docname="2692.svg"
   width="50.457706"
   height="46.856754"
   xmlns:inkscape="http://www.inkscape.org/namespaces/inkscape"
   xmlns:sodipodi="http://sodipodi.sourceforge.net/DTD/sodipodi-0.dtd"
   xmlns="http://www.w3.org/2000/svg"
   xmlns:svg="http://www.w3.org/2000/svg">
  <defs
     id="defs4" />
  <sodipodi:namedview
     id="namedview4"
     pagecolor="#ffffff"
     bordercolor="#000000"
     borderopacity="0.25"
     inkscape:showpageshadow="2"
     inkscape:pageopacity="0.0"
     inkscape:pagecheckerboard="0"
     inkscape:deskcolor="#d1d1d1" />
  <g
     id="color"
     transform="translate(-10.771007,-12.57921)">
    <g
       id="_2692">
      <path
         fill="#d0cfce"
         d="M 45.4575,14.6959 40.69,22.18 l 9.6,6.1162 c 0,0 6.4676,1.63 9.9388,2.3534 l -5.1229,-9.9128 z"
         id="path1" />
      <polygon
         fill="#6a462f"
         points="40.302,43.594 47.787,55.511 46.88,56.089 44.159,57.822 43.252,58.4 35.691,46.532 34.864,43.233 24.391,26.476 27.112,24.743 37.585,41.499 "
         id="polygon1" />
      <polygon
         fill="#a57939"
         points="36.175,46.616 28.538,58.436 27.631,57.858 24.91,56.124 24.003,55.547 31.564,43.678 34.204,41.535 44.801,24.743 47.522,26.476 36.926,43.268 "
         id="polygon2" />
      <path
         fill="#9b9b9a"
         d="M 37.5652,14.9432 A 13.4631,13.4631 0 0 0 25.6038,15.0179 50.0827,50.0827 0 0 0 16.0515,21.21 l 1.3323,2.0913 -1.8766,1.1373 -0.9392,-1.4742 a 2.3813,2.3813 0 0 0 -2.797,1.7819 l 3.8527,6.0475 a 2.8253,2.8253 0 0 0 2.797,-1.7818 l -0.9875,-1.55 1.8668,-1.1527 1.5189,2.3842 9.6011,-6.1161 -2.7451,-4.3089 c 0,0 6.4251,-4.0935 9.8903,-3.3253 z"
         id="path2" />
    </g>
  </g>
  <g
     id="line"
     transform="translate(-10.771007,-12.57921)">
    <g
       id="_2692-2">
      <polyline
         fill="none"
         stroke="#000000"
         stroke-linecap="round"
         stroke-linejoin="round"
         stroke-width="2"
         points="37.893 41.736 40.302 43.594 47.787 55.511 46.88 56.089 44.159 57.822 43.252 58.4 37.507 49.384 35.958 46.952"
         id="polyline2" />
      <polyline
         fill="none"
         stroke="#000000"
         stroke-linecap="round"
         stroke-linejoin="round"
         stroke-width="2"
         points="33.934 41.754 32.335 39.214 24.391 26.476 27.112 24.743 34.258 36.212 35.908 38.834"
         id="polyline3" />
      <path
         fill="none"
         stroke="#000000"
         stroke-linecap="round"
         stroke-linejoin="round"
         stroke-width="2"
         d="M 37.5652,14.9432 A 13.4631,13.4631 0 0 0 25.6038,15.0179 50.0827,50.0827 0 0 0 16.0515,21.21 l 1.3323,2.0913 -1.8766,1.1373 -0.9392,-1.4742 a 2.3813,2.3813 0 0 0 -2.797,1.7819 l 3.8527,6.0475 a 2.8253,2.8253 0 0 0 2.797,-1.7818 l -0.9875,-1.55 1.8668,-1.1527 1.5189,2.3842 9.6011,-6.1161 -2.7451,-4.3089 c 0,0 6.4251,-4.0935 9.8903,-3.3253 z"
         id="path3" />
      <path
         fill="none"
         stroke="#000000"
         stroke-linecap="round"
         stroke-linejoin="round"
         stroke-width="2"
         d="M 45.4575,14.6959 40.69,22.18 l 9.6,6.1162 c 0,0 6.4676,1.63 9.9388,2.3534 l -5.1229,-9.9128 z"
         id="path4" />
      <polyline
         fill="none"
         stroke="#000000"
         stroke-linecap="round"
         stroke-linejoin="round"
         stroke-width="2"
         points="35.908 38.834 44.801 24.743 47.522 26.476 36.926 43.268 36.175 46.616 28.538 58.436 27.631 57.858 24.91 56.124 24.003 55.547 31.564 43.678 34.204 41.535 35.908 38.834"
         id="polyline4" />
    </g>
  </g>
</svg>
