<svg xmlns="http://www.w3.org/2000/svg" xmlns:svg="http://www.w3.org/2000/svg" id="emoji" width="52.165" height="54.923" version="1.1" viewBox="0 0 52.165 54.923"><g id="color" transform="translate(-11.741719,-9.0383997)"><path id="path1" fill="#b1cc33" stroke="#b1cc33" stroke-linecap="round" stroke-linejoin="round" stroke-miterlimit="10" stroke-width="1.8" d="m 31.8796,32.5444 h 3.0758 c 1.081,0 1.9573,0.8763 1.9573,1.9573 0,1.081 -0.8763,1.9573 -1.9573,1.9573 H 22.0928 c -3.4747,0 -6.2915,2.8168 -6.2915,6.2915 0,3.4747 2.8168,6.2915 6.2915,6.2915 h 5.82 l 0.1518,-4.1943 h -5.6921 c -1.081,0 -2.1149,-0.8916 -2.1149,-1.9726 0,-1.081 1.0339,-1.9421 2.1149,-1.9421 h 12.0237 0.4194 c 3.4747,0 6.2915,-2.8168 6.2915,-6.2915 0,-3.4747 -2.8168,-6.2915 -6.2915,-6.2915 h -2.936 z"/><path id="path2" fill="#5c9e31" stroke="#5c9e31" stroke-linecap="round" stroke-linejoin="round" stroke-miterlimit="10" stroke-width="1.8" d="m 25.6815,52.9568 h 6.2564 c 1.0718,0 2.0064,-0.8259 2.0385,-1.8971 0.0333,-1.1085 -0.8554,-2.0176 -1.9564,-2.0176 v -4.1943 h 0.2686 c 3.4114,0 6.317,2.6528 6.4382,6.062 0.1273,3.5793 -2.7365,6.5209 -6.2874,6.5209 h -11.045 v 0 c 0.3544,-1.7722 1.476,-3.2963 3.0626,-4.1617 v 0 c 0.3756,-0.2049 0.7967,-0.3122 1.2245,-0.3122 z"/><path id="path3" fill="#b1cc33" stroke="#b1cc33" stroke-linecap="round" stroke-linejoin="round" stroke-miterlimit="10" stroke-width="2" d="m 38.5255,49.5541 c 0.1156,0.4344 0.1846,0.8879 0.2013,1.3557 0.1273,3.5793 -2.7365,6.5209 -6.2874,6.5209 h -11.045 v 0 c 0.3544,-1.7722 1.476,-3.2963 3.0626,-4.1617 v 0 c 0.3756,-0.2049 0.7966,-0.3122 1.2245,-0.3122 h 6.2564 c 0.6261,0 1.2055,-0.2819 1.5854,-0.7299 z"/><polyline id="polyline3" fill="#5c9e31" stroke="#5c9e31" stroke-linecap="round" stroke-linejoin="round" stroke-miterlimit="10" stroke-width="1.8" points="32.02 49.042 28.264 49.042 28.264 44.848 32.02 44.848"/><path id="path4" fill="#5c9e31" stroke="none" d="m 22.0172,39.9504 c 0,0 -7.0835,1.3718 -6.6981,5.5566 0,0 1.5016,2.8532 3.3237,3.3165 l 5.4135,1.2276 h 2.9924 v -6.2 l -5.1829,-0.0391 -1.4931,-0.648 1.4261,-1.743 z"/><path id="path5" fill="#b1cc33" stroke="#b1cc33" stroke-linecap="round" stroke-linejoin="round" stroke-miterlimit="10" stroke-width="1.8" d="m 53.1287,19.8834 c 0,4.333 -7.5,4.5 -7.5,4.5 l -9.0336,0.0479 -0.2124,0.0041 H 19.4174 c -0.975,0 -1.8787,0.6663 -2.0353,1.6286 -0.1995,1.2263 0.7418,2.2861 1.9306,2.2861 h 8.7861 l -0.0654,4.1943 h -3.9671 -4.7694 c -3.4449,0 -6.449,-2.6546 -6.5523,-6.0979 -0.1069,-3.563 2.7496,-6.485 6.2886,-6.485 h 16.7773 l 0.0694,-10e-5 v 0 c 0.9191,-0.0536 1.6803,-0.7117 1.8908,-1.608 0.6815,-2.9017 3.2865,-5.062 6.3961,-5.062"/><path id="path6" fill="#b1cc33" stroke="none" d="m 44.1667,13.2914 c 3.628,0 8.962,2.964 8.962,6.592"/><path id="path7" fill="#5c9e31" stroke="none" d="m 40.0554,35.0975 c 0,0 0.3106,-2.1447 -0.5502,-3.2538 -1.1194,-1.4422 -2.6599,-3.9045 -5.0267,-4.4977 h -6.0243 l 0.184,6.203 h 6.6038 v 0 c 0.8129,-0.2732 1.2617,-0.2283 1.7893,-0.07 0.8758,0.2629 1.6941,0.689 2.4436,1.2129 z"/><path id="path8" fill="#5c9e31" stroke="none" d="m 17.3177,27.8429 c 0.9637,0.7905 2.4037,0.5477 3.0549,-0.515 l 6.8774,0.0181 -0.0809,6.1896 c -1.7968,-0.0299 -3.6842,0.107 -5.0206,-0.1243 -7.325,-1.2678 -8.0362,-5.2822 -8.0362,-5.2822 0,0 0.4486,-4.6934 5.3821,-4.6934 l -1.5559,1.5603 c -0.8572,0.2494 -1.4626,1.014 -1.5088,1.9056 z"/></g><g id="line" transform="translate(-11.741719,-9.0383997)"><path id="path9" fill="none" stroke="#000" stroke-linecap="round" stroke-linejoin="round" stroke-miterlimit="10" stroke-width="2" d="M 24.1293,44.8478 H 22.33 c -1.081,0 -1.9573,-0.8763 -1.9573,-1.9573 0,-1.081 0.8763,-1.9573 1.9573,-1.9573 h 12.0237 0.4194 c 3.4747,0 6.2915,-2.8168 6.2915,-6.2915 0,-3.4747 -2.8168,-6.2915 -6.2915,-6.2915 h -2.936"/><path id="path10" fill="none" stroke="#000" stroke-linecap="round" stroke-linejoin="round" stroke-miterlimit="10" stroke-width="2" d="m 31.8371,32.5444 h 3.0758 c 1.081,0 1.9573,0.8763 1.9573,1.9573 0,1.081 -0.8763,1.9573 -1.9573,1.9573 H 22.0504 c -3.4747,0 -6.2915,2.8168 -6.2915,6.2915 0,3.4747 2.8168,6.2915 6.2915,6.2915 h 2.0789"/><path id="path11" fill="none" stroke="#000" stroke-linecap="round" stroke-linejoin="round" stroke-width="2" d="m 24.0663,32.5444 h -4.7694 c -3.4449,0 -6.449,-2.6546 -6.5523,-6.0979 -0.1069,-3.563 2.7496,-6.485 6.2886,-6.485 h 16.7773 l 0.0694,-10e-5 v 0 c 0.9191,-0.0536 1.6803,-0.7117 1.8908,-1.608 0.6815,-2.9017 3.2865,-5.062 6.3961,-5.062"/><path id="path12" fill="none" stroke="#000" stroke-linecap="round" stroke-linejoin="round" stroke-width="2" d="m 53.1287,19.8834 c 0,4.333 -7.5,4.5 -7.5,4.5 l -9.0336,0.0479 -0.2124,0.0041 H 19.4174 c -0.975,0 -1.8787,0.6663 -2.0353,1.6286 -0.1995,1.2263 0.7418,2.2861 1.9306,2.2861 h 4.7536"/><path id="path13" fill="none" stroke="#000" stroke-linecap="round" stroke-linejoin="round" stroke-width="1.8" d="m 44.1667,13.2914 c 3.628,0 8.962,2.964 8.962,6.592"/><path id="path14" fill="none" stroke="#000" stroke-linecap="round" stroke-miterlimit="10" stroke-width="2" d="m 50.9807,23.8384 c 0,0 3.793,4.054 7.585,4.577"/><line id="line14" x1="58.069" x2="62.907" y1="28.415" y2="26.192" fill="none" stroke="#000" stroke-linecap="round" stroke-miterlimit="10" stroke-width="2"/><line id="line15" x1="59.115" x2="58.069" y1="32.992" y2="28.415" fill="none" stroke="#000" stroke-linecap="round" stroke-miterlimit="10" stroke-width="2"/><line id="line16" x1="28.065" x2="28.065" y1="58.237" y2="62.962" fill="none" stroke="#000" stroke-linecap="round" stroke-linejoin="round" stroke-width="2"/><line id="line17" x1="28.065" x2="28.065" y1="41.859" y2="51.877" fill="none" stroke="#000" stroke-linecap="round" stroke-linejoin="round" stroke-width="2"/><polyline id="polyline17" fill="none" stroke="#000" stroke-linecap="round" stroke-linejoin="round" stroke-width="2" points="28.065 25.398 28.065 27.349 28.065 33.542 28.065 35.576"/><line id="line18" x1="28.065" x2="28.065" y1="15.038" y2="18.881" fill="none" stroke="#000" stroke-linecap="round" stroke-linejoin="round" stroke-width="2"/><circle id="circle18" cx="28.065" cy="12.038" r="3" fill="#000" stroke="none"/><path id="path18" fill="none" stroke="#000" stroke-linecap="round" stroke-linejoin="round" stroke-miterlimit="10" stroke-width="2" d="m 32.02,44.8478 h 0.2686 c 3.4114,0 6.317,2.6528 6.4382,6.062 0.1273,3.5793 -2.7365,6.5209 -6.2874,6.5209 h -11.045 v 0 c 0.3544,-1.7722 1.476,-3.2963 3.0626,-4.1617 v 0 c 0.3756,-0.2049 0.7966,-0.3122 1.2245,-0.3122 h 6.2564 c 1.0718,0 2.0064,-0.8259 2.0385,-1.8971 0.0333,-1.1085 -0.8554,-2.0176 -1.9564,-2.0176"/></g></svg>