<?xml version="1.0" encoding="UTF-8" standalone="no"?>
<svg
   id="emoji"
   viewBox="0 0 47 52.024998"
   version="1.1"
   sodipodi:docname="2696.svg"
   width="47"
   height="52.024998"
   xmlns:inkscape="http://www.inkscape.org/namespaces/inkscape"
   xmlns:sodipodi="http://sodipodi.sourceforge.net/DTD/sodipodi-0.dtd"
   xmlns="http://www.w3.org/2000/svg"
   xmlns:svg="http://www.w3.org/2000/svg">
  <defs
     id="defs7" />
  <sodipodi:namedview
     id="namedview7"
     pagecolor="#ffffff"
     bordercolor="#000000"
     borderopacity="0.25"
     inkscape:showpageshadow="2"
     inkscape:pageopacity="0.0"
     inkscape:pagecheckerboard="0"
     inkscape:deskcolor="#d1d1d1" />
  <g
     id="color"
     transform="translate(-13,-10.895)">
    <path
       fill="#9b9b9a"
       stroke="none"
       d="m 48.0626,62.92 c 0,-3.3137 -5.5964,-6 -12.5,-6 -6.9036,0 -12.5,2.6863 -12.5,6 z"
       id="path1" />
    <path
       fill="#d0cfce"
       stroke="none"
       d="m 24.9006,46.9656 c 0,2.1938 -2.1985,3.9723 -4.9106,3.9723 -2.7121,0 -4.9106,-1.7785 -4.9106,-3.9723 z"
       id="path2" />
    <path
       fill="#d0cfce"
       stroke="none"
       d="m 57.9006,46.9248 c 0,2.1938 -2.1985,3.9723 -4.9106,3.9723 -2.712,0 -4.9106,-1.7785 -4.9106,-3.9723 z"
       id="path3" />
  </g>
  <g
     id="hair"
     transform="translate(-13,-10.895)" />
  <g
     id="skin"
     transform="translate(-13,-10.895)" />
  <g
     id="skin-shadow"
     transform="translate(-13,-10.895)" />
  <g
     id="line"
     transform="translate(-13,-10.895)">
    <path
       fill="none"
       stroke="#000000"
       stroke-linecap="round"
       stroke-linejoin="round"
       stroke-miterlimit="10"
       stroke-width="2"
       d="m 15.9996,25.1697 c 2.6667,10e-5 8.9544,-5.3333 20.0002,-5.3333 11.0458,0 14.6668,4.0001 20.0002,5.3333"
       id="path4" />
    <line
       x1="35.999802"
       x2="35.999802"
       y1="23.906401"
       y2="51.906399"
       fill="none"
       stroke="#000000"
       stroke-linecap="round"
       stroke-linejoin="round"
       stroke-miterlimit="10"
       stroke-width="2"
       id="line4" />
    <circle
       cx="35.999802"
       cy="13.895"
       r="3"
       fill="#000000"
       stroke="none"
       id="circle4" />
    <path
       fill="none"
       stroke="#000000"
       stroke-linecap="round"
       stroke-linejoin="round"
       stroke-miterlimit="10"
       stroke-width="2"
       d="m 48,61.9064 c 0,-3.3137 -5.5964,-6 -12.5,-6 -6.9036,0 -12.5,2.6863 -12.5,6"
       id="path5" />
    <path
       fill="none"
       stroke="#000000"
       stroke-linecap="round"
       stroke-linejoin="round"
       stroke-miterlimit="10"
       stroke-width="2"
       d="m 26,45.9064 c 0,3.3137 -2.6863,6 -6,6 -3.3137,0 -6,-2.6863 -6,-6 z"
       id="path6" />
    <polygon
       fill="none"
       stroke="#000000"
       stroke-linecap="round"
       stroke-linejoin="round"
       stroke-miterlimit="10"
       stroke-width="2"
       points="25,45.9064 20,27.9064 15,45.9064 "
       id="polygon6" />
    <line
       x1="20"
       x2="20"
       y1="27.906401"
       y2="45.906399"
       fill="none"
       stroke="#000000"
       stroke-linecap="round"
       stroke-linejoin="round"
       stroke-miterlimit="10"
       stroke-width="2"
       id="line6" />
    <path
       fill="none"
       stroke="#000000"
       stroke-linecap="round"
       stroke-linejoin="round"
       stroke-miterlimit="10"
       stroke-width="2"
       d="m 59,45.9064 c 0,3.3137 -2.6863,6 -6,6 -3.3137,0 -6,-2.6863 -6,-6 z"
       id="path7" />
    <polygon
       fill="none"
       stroke="#000000"
       stroke-linecap="round"
       stroke-linejoin="round"
       stroke-miterlimit="10"
       stroke-width="2"
       points="58,45.9064 53,27.9064 48,45.9064 "
       id="polygon7" />
    <line
       x1="53"
       x2="53"
       y1="27.906401"
       y2="45.906399"
       fill="none"
       stroke="#000000"
       stroke-linecap="round"
       stroke-linejoin="round"
       stroke-miterlimit="10"
       stroke-width="2"
       id="line7" />
  </g>
</svg>
