<svg xmlns="http://www.w3.org/2000/svg" xmlns:svg="http://www.w3.org/2000/svg" id="emoji" width="47" height="52.025" version="1.1" viewBox="0 0 47 52.025"><g id="color" transform="translate(-13,-10.895)"><path id="path1" fill="#9b9b9a" stroke="none" d="m 48.0626,62.92 c 0,-3.3137 -5.5964,-6 -12.5,-6 -6.9036,0 -12.5,2.6863 -12.5,6 z"/><path id="path2" fill="#d0cfce" stroke="none" d="m 24.9006,46.9656 c 0,2.1938 -2.1985,3.9723 -4.9106,3.9723 -2.7121,0 -4.9106,-1.7785 -4.9106,-3.9723 z"/><path id="path3" fill="#d0cfce" stroke="none" d="m 57.9006,46.9248 c 0,2.1938 -2.1985,3.9723 -4.9106,3.9723 -2.712,0 -4.9106,-1.7785 -4.9106,-3.9723 z"/></g><g id="line" transform="translate(-13,-10.895)"><path id="path4" fill="none" stroke="#000" stroke-linecap="round" stroke-linejoin="round" stroke-miterlimit="10" stroke-width="2" d="m 15.9996,25.1697 c 2.6667,10e-5 8.9544,-5.3333 20.0002,-5.3333 11.0458,0 14.6668,4.0001 20.0002,5.3333"/><line id="line4" x1="36" x2="36" y1="23.906" y2="51.906" fill="none" stroke="#000" stroke-linecap="round" stroke-linejoin="round" stroke-miterlimit="10" stroke-width="2"/><circle id="circle4" cx="36" cy="13.895" r="3" fill="#000" stroke="none"/><path id="path5" fill="none" stroke="#000" stroke-linecap="round" stroke-linejoin="round" stroke-miterlimit="10" stroke-width="2" d="m 48,61.9064 c 0,-3.3137 -5.5964,-6 -12.5,-6 -6.9036,0 -12.5,2.6863 -12.5,6"/><path id="path6" fill="none" stroke="#000" stroke-linecap="round" stroke-linejoin="round" stroke-miterlimit="10" stroke-width="2" d="m 26,45.9064 c 0,3.3137 -2.6863,6 -6,6 -3.3137,0 -6,-2.6863 -6,-6 z"/><polygon id="polygon6" fill="none" stroke="#000" stroke-linecap="round" stroke-linejoin="round" stroke-miterlimit="10" stroke-width="2" points="25 45.906 20 27.906 15 45.906"/><line id="line6" x1="20" x2="20" y1="27.906" y2="45.906" fill="none" stroke="#000" stroke-linecap="round" stroke-linejoin="round" stroke-miterlimit="10" stroke-width="2"/><path id="path7" fill="none" stroke="#000" stroke-linecap="round" stroke-linejoin="round" stroke-miterlimit="10" stroke-width="2" d="m 59,45.9064 c 0,3.3137 -2.6863,6 -6,6 -3.3137,0 -6,-2.6863 -6,-6 z"/><polygon id="polygon7" fill="none" stroke="#000" stroke-linecap="round" stroke-linejoin="round" stroke-miterlimit="10" stroke-width="2" points="58 45.906 53 27.906 48 45.906"/><line id="line7" x1="53" x2="53" y1="27.906" y2="45.906" fill="none" stroke="#000" stroke-linecap="round" stroke-linejoin="round" stroke-miterlimit="10" stroke-width="2"/></g></svg>