<svg xmlns="http://www.w3.org/2000/svg" xmlns:svg="http://www.w3.org/2000/svg" id="emoji" width="48.556" height="41.119" version="1.1" viewBox="0 0 48.556 41.119"><g id="color" transform="translate(-11.722,-15.439857)"><ellipse id="ellipse1" cx="32.369" cy="32.724" fill="#fff" rx="15.616" ry="15.304"/><path id="path1" fill="#fff" d="m 44.0986,22.2548 c 0,0 10.663,7.561 13.1834,12.4079 l -0.6786,0.8724 -7.8519,-5.5254 c 0,0 -0.369,-1.3571 -0.4753,2.3265 -0.1063,3.6836 -4.1777,-10.0814 -4.1777,-10.0814 z"/><g id="_2697"><path id="path2" fill="#92d3f5" d="m 17.9744,37.97 c 2.3079,5.3821 8.3214,10.7641 14.7,10.7641 6.3786,0 11.9117,-5.6449 14.7,-10.7641 z"/><path id="path3" fill="#61b2e4" d="m 41.749,37.97 c -2.46,4.5156 -6.9725,9.914 -12.4,10.6176 0.735,0.0965 1.4755,0.1454 2.2169,0.1465 6.3789,0 14.1287,-5.6449 16.9172,-10.7641 z"/></g></g><g id="line" transform="translate(-11.722,-15.439857)"><g id="_2697-2"><path id="path4" fill="none" stroke="#000" stroke-linecap="round" stroke-linejoin="round" stroke-width="2" d="m 49.3016,32.5878 7.6734,5.4653 2.3028,-2.2361 c 0,0 -12.4413,-19.3754 -26.6032,-19.3754 -9.0493,-0.1308 -16.4923,7.097 -16.627,16.1462 0.1348,9.0492 7.5777,16.2769 16.627,16.1461 9.0493,0.1308 16.4922,-7.0969 16.627,-16.1461"/><polyline id="polyline4" fill="none" stroke="#000" stroke-linecap="round" stroke-linejoin="round" stroke-width="2" points="12.722 55.558 18.265 44.794 47.085 44.794 52.627 55.558"/><line id="line4" x1="32.675" x2="32.675" y1="44.794" y2="55.558" fill="none" stroke="#000" stroke-linecap="round" stroke-linejoin="round" stroke-width="2"/></g></g></svg>