<?xml version="1.0" encoding="UTF-8" standalone="no"?>
<svg
   id="emoji"
   viewBox="0 0 54.940166 59.919498"
   version="1.1"
   sodipodi:docname="269b.svg"
   width="54.940166"
   height="59.919498"
   xmlns:inkscape="http://www.inkscape.org/namespaces/inkscape"
   xmlns:sodipodi="http://sodipodi.sourceforge.net/DTD/sodipodi-0.dtd"
   xmlns="http://www.w3.org/2000/svg"
   xmlns:svg="http://www.w3.org/2000/svg">
  <defs
     id="defs36" />
  <sodipodi:namedview
     id="namedview36"
     pagecolor="#ffffff"
     bordercolor="#000000"
     borderopacity="0.25"
     inkscape:showpageshadow="2"
     inkscape:pageopacity="0.0"
     inkscape:pagecheckerboard="0"
     inkscape:deskcolor="#d1d1d1" />
  <g
     id="color"
     transform="translate(-9.0183888,-6.0403)">
    <path
       fill="#92d3f5"
       stroke="#92d3f5"
       stroke-linejoin="round"
       stroke-miterlimit="10"
       stroke-width="1.8"
       d="m 28.1271,22.7636 c -0.3952,2.3126 -0.6857,4.7995 -0.8483,7.4259 -3.3469,1.871 -6.3451,3.8466 -8.8669,5.8105 -6.1591,-4.7995 -9.4596,-9.5293 -8.0767,-12.4346 1.5689,-3.3003 8.6925,-3.405 17.7919,-0.8018 z"
       id="path1" />
    <path
       fill="#92d3f5"
       stroke="#92d3f5"
       stroke-linejoin="round"
       stroke-miterlimit="10"
       stroke-width="1.8"
       d="m 62.6417,48.4346 c -1.5688,3.3004 -8.6926,3.405 -17.8035,0.8019 -2.638,-0.7554 -5.4504,-1.7432 -8.344,-2.9518 -1.3363,-0.5462 -2.6844,-1.1388 -4.0441,-1.7896 -1.8013,-0.8599 -3.5329,-1.7548 -5.1713,-2.6728 -0.128,-1.8826 -0.1976,-3.8233 -0.1976,-5.8222 0,-1.9872 0.0697,-3.9396 0.1976,-5.8105 1.6385,-0.918 3.37,-1.8129 5.1713,-2.6728 1.3597,-0.6508 2.7078,-1.2551 4.0441,-1.8013 1.325,0.5578 2.6729,1.1505 4.0325,1.8013 1.8013,0.8483 3.5212,1.7432 5.1598,2.6612 0.1278,1.8826 0.1976,3.8234 0.1976,5.8222 0,1.9989 -0.0698,3.9512 -0.1976,5.8338 3.3585,-1.8826 6.3568,-3.8582 8.8785,-5.8338 6.1593,4.7993 9.4597,9.5291 8.0767,12.4344 z"
       id="path2" />
    <path
       fill="#92d3f5"
       stroke="#92d3f5"
       stroke-linejoin="round"
       stroke-miterlimit="10"
       stroke-width="1.8"
       d="m 44.8382,49.2364 c -1.5456,9.3433 -4.7065,15.7233 -8.3556,15.7233 -3.6489,0 -6.8098,-6.38 -8.3555,-15.7233 2.6496,-0.7554 5.4619,-1.7432 8.3671,-2.9518 2.8937,1.2087 5.706,2.1964 8.344,2.9518 z"
       id="path3" />
    <path
       fill="#92d3f5"
       stroke="#92d3f5"
       stroke-linejoin="round"
       stroke-miterlimit="10"
       stroke-width="1.8"
       d="m 44.8382,22.7636 c -2.638,0.7554 -5.4504,1.7432 -8.344,2.9518 -2.9053,-1.2086 -5.7175,-2.1964 -8.3671,-2.9518 1.5573,-9.3433 4.7066,-15.7233 8.3555,-15.7233 3.6492,-1e-4 6.7985,6.3799 8.3556,15.7233 z"
       id="path4" />
    <path
       fill="#92d3f5"
       stroke="#92d3f5"
       stroke-linejoin="round"
       stroke-miterlimit="10"
       stroke-width="2"
       d="m 36.4942,25.7154 c -1.3363,0.5462 -2.6844,1.1505 -4.0441,1.8013 -1.8013,0.8599 -3.5329,1.7548 -5.1713,2.6728 0.1626,-2.6264 0.4531,-5.1133 0.8483,-7.4259 2.6496,0.7554 5.4619,1.7431 8.3671,2.9518 z"
       id="path5" />
    <path
       fill="#92d3f5"
       stroke="#92d3f5"
       stroke-linejoin="round"
       stroke-miterlimit="10"
       stroke-width="2"
       d="m 45.8842,36 c 0,1.9989 -0.0698,3.9512 -0.1976,5.8338 -0.1627,2.6147 -0.4532,5.1016 -0.8483,7.4026 -2.638,-0.7554 -5.4504,-1.7432 -8.344,-2.9518 C 35.158,45.7384 33.8099,45.1458 32.4502,44.495 30.6489,43.6351 28.9173,42.7402 27.2789,41.8222 27.1509,39.9396 27.0813,37.9989 27.0813,36 c 0,-1.9872 0.0697,-3.9396 0.1976,-5.8105 1.6385,-0.918 3.37,-1.8129 5.1713,-2.6728 1.3597,-0.6508 2.7078,-1.2551 4.0441,-1.8013 1.325,0.5578 2.6729,1.1505 4.0325,1.8013 1.8013,0.8483 3.5212,1.7432 5.1598,2.6612 0.1278,1.8825 0.1976,3.8233 0.1976,5.8221 z"
       id="path6" />
    <path
       fill="#92d3f5"
       stroke="#92d3f5"
       stroke-linejoin="round"
       stroke-miterlimit="10"
       stroke-width="2"
       d="m 36.4942,46.2846 c -2.9053,1.2086 -5.7175,2.1964 -8.3671,2.9518 -0.3952,-2.301 -0.6857,-4.7995 -0.8483,-7.4143 1.6385,0.918 3.37,1.8129 5.1713,2.6728 1.3597,0.6509 2.7078,1.2436 4.0441,1.7897 z"
       id="path7" />
    <path
       fill="#92d3f5"
       stroke="#92d3f5"
       stroke-linejoin="round"
       stroke-miterlimit="10"
       stroke-width="1.8"
       d="m 28.1271,49.2364 c -9.111,2.6031 -16.223,2.4869 -17.792,-0.8019 -1.3828,-2.9052 1.9177,-7.635 8.0768,-12.4345 2.5218,1.9756 5.52,3.9512 8.8669,5.8222 0.1625,2.6147 0.4531,5.1132 0.8483,7.4142 z"
       id="path8" />
    <path
       fill="#92d3f5"
       stroke="#92d3f5"
       stroke-linejoin="round"
       stroke-miterlimit="10"
       stroke-width="2"
       d="m 27.0812,36 c 0,1.9989 0.0697,3.9396 0.1976,5.8222 -3.3469,-1.871 -6.3451,-3.8466 -8.8669,-5.8222 2.5218,-1.964 5.52,-3.9396 8.8669,-5.8105 -0.128,1.8709 -0.1976,3.8233 -0.1976,5.8105 z"
       id="path9" />
    <path
       fill="#92d3f5"
       stroke="#92d3f5"
       stroke-linejoin="round"
       stroke-miterlimit="10"
       stroke-width="2"
       d="m 45.6866,30.1778 c -1.6386,-0.918 -3.3585,-1.8129 -5.1598,-2.6612 -1.3596,-0.6508 -2.7075,-1.2435 -4.0325,-1.8013 2.8936,-1.2086 5.706,-2.1964 8.344,-2.9518 0.395,2.3011 0.6855,4.7996 0.8483,7.4143 z"
       id="path10" />
    <path
       fill="#92d3f5"
       stroke="#92d3f5"
       stroke-linejoin="round"
       stroke-miterlimit="10"
       stroke-width="1.8"
       d="m 54.5651,36 c -2.5217,-1.964 -5.52,-3.9396 -8.8785,-5.8222 -0.1627,-2.6147 -0.4532,-5.1132 -0.8483,-7.4143 9.1109,-2.6031 16.2346,-2.4985 17.8035,0.8019 1.3829,2.9053 -1.9175,7.6351 -8.0767,12.4346 z"
       id="path11" />
    <path
       fill="#92d3f5"
       stroke="#92d3f5"
       stroke-linejoin="round"
       stroke-miterlimit="10"
       stroke-width="2"
       d="m 45.6866,41.8338 c 0.1278,-1.8826 0.1976,-3.8349 0.1976,-5.8338 0,-1.9988 -0.0698,-3.9396 -0.1976,-5.8222 3.3585,1.8826 6.3568,3.8582 8.8785,5.8222 -2.5217,1.9756 -5.52,3.9512 -8.8785,5.8338 z"
       id="path12" />
    <path
       fill="#92d3f5"
       stroke="#92d3f5"
       stroke-linejoin="round"
       stroke-miterlimit="10"
       stroke-width="2"
       d="m 45.8842,36 c 0,1.9989 -0.0698,3.9512 -0.1976,5.8338 -1.6386,0.918 -3.3585,1.8129 -5.1598,2.6612 -1.3596,0.6391 -2.7075,1.2435 -4.0325,1.7896 C 35.158,45.7384 33.8099,45.1458 32.4502,44.495 30.6489,43.6351 28.9173,42.7402 27.2789,41.8222 27.1509,39.9396 27.0813,37.9989 27.0813,36 c 0,-1.9872 0.0697,-3.9396 0.1976,-5.8105 1.6385,-0.918 3.37,-1.8129 5.1713,-2.6728 1.3597,-0.6508 2.7078,-1.2551 4.0441,-1.8013 1.325,0.5578 2.6729,1.1505 4.0325,1.8013 1.8013,0.8483 3.5212,1.7432 5.1598,2.6612 0.1278,1.8825 0.1976,3.8233 0.1976,5.8221 z"
       id="path13" />
  </g>
  <g
     id="hair"
     transform="translate(-9.0183888,-6.0403)" />
  <g
     id="skin"
     transform="translate(-9.0183888,-6.0403)" />
  <g
     id="skin-shadow"
     transform="translate(-9.0183888,-6.0403)" />
  <g
     id="line"
     transform="translate(-9.0183888,-6.0403)">
    <path
       fill="none"
       stroke="#000000"
       stroke-linejoin="round"
       stroke-miterlimit="10"
       stroke-width="2"
       d="m 18.4119,36 c -6.1591,-4.7995 -9.4596,-9.5293 -8.0767,-12.4346 1.569,-3.3004 8.6926,-3.405 17.792,-0.8019"
       id="path14" />
    <path
       fill="none"
       stroke="#000000"
       stroke-linejoin="round"
       stroke-miterlimit="10"
       stroke-width="2"
       d="m 54.5651,36 c 6.1592,4.7995 9.4596,9.5293 8.0766,12.4346 -1.5688,3.3004 -8.6926,3.405 -17.8035,0.8019 -2.638,-0.7554 -5.4504,-1.7432 -8.344,-2.9518 -1.3363,-0.5462 -2.6844,-1.1388 -4.0441,-1.7896 -1.8013,-0.8599 -3.5329,-1.7548 -5.1713,-2.6728"
       id="path15" />
    <path
       fill="none"
       stroke="#000000"
       stroke-linecap="round"
       stroke-linejoin="round"
       stroke-miterlimit="10"
       stroke-width="2"
       d="m 44.0918,53 c -1.6996,7.2511 -4.4743,11.9598 -7.6092,11.9598 -3.6489,0 -6.8098,-6.38 -8.3555,-15.7233 L 27.6429,46.891"
       id="path16" />
    <path
       fill="none"
       stroke="#000000"
       stroke-linecap="round"
       stroke-linejoin="round"
       stroke-miterlimit="10"
       stroke-width="2"
       d="m 28.9271,18.7895 c 1.7085,-7.1316 4.4512,-11.7492 7.5555,-11.7492 3.6492,0 6.7985,6.38 8.3556,15.7233"
       id="path17" />
    <path
       fill="none"
       stroke="#000000"
       stroke-linejoin="round"
       stroke-miterlimit="10"
       stroke-width="2"
       d="m 28.1271,22.7636 c 2.6496,0.7554 5.4619,1.7432 8.3671,2.9518"
       id="path18" />
    <path
       fill="none"
       stroke="#000000"
       stroke-linejoin="round"
       stroke-miterlimit="10"
       stroke-width="2"
       d="M 44.8382,49.2364 C 42.2002,48.481 39.3878,47.4932 36.4942,46.2846 35.1579,45.7384 33.8098,45.1458 32.4501,44.495 30.6488,43.6351 28.9172,42.7402 27.2788,41.8222"
       id="path19" />
    <path
       fill="none"
       stroke="#000000"
       stroke-linecap="round"
       stroke-linejoin="round"
       stroke-miterlimit="10"
       stroke-width="2"
       d="m 45.8683,34.3501 c 0.0105,0.5455 0.0159,1.0955 0.0159,1.6499 0,1.9989 -0.0698,3.9512 -0.1976,5.8338 -0.0533,0.8571 -0.1204,1.7004 -0.2004,2.528"
       id="path20" />
    <path
       fill="none"
       stroke="#000000"
       stroke-linecap="round"
       stroke-linejoin="round"
       stroke-miterlimit="10"
       stroke-width="2"
       d="m 23.7183,50.3166 c -6.9369,1.3942 -12.078,0.8539 -13.3832,-1.882 -1.1056,-2.3228 0.7824,-5.8117 4.7314,-9.5702"
       id="path21" />
    <path
       fill="none"
       stroke="#000000"
       stroke-linejoin="round"
       stroke-miterlimit="10"
       stroke-width="2"
       d="M 27.1335,41.7408 C 23.8451,39.8939 20.8971,37.947 18.4119,36"
       id="path22" />
    <path
       fill="none"
       stroke="#000000"
       stroke-linejoin="round"
       stroke-miterlimit="10"
       stroke-width="2"
       d="m 27.2788,41.8222 c -0.0485,-0.0271 -0.097,-0.0543 -0.1453,-0.0814"
       id="path23" />
    <path
       fill="none"
       stroke="#000000"
       stroke-linecap="round"
       stroke-linejoin="round"
       stroke-miterlimit="10"
       stroke-width="2"
       d="m 44.8382,22.7636 c 0.1379,0.803 0.263,1.63 0.3744,2.4777"
       id="path24" />
    <path
       fill="none"
       stroke="#000000"
       stroke-linecap="round"
       stroke-linejoin="round"
       stroke-miterlimit="10"
       stroke-width="2"
       d="m 49.1309,21.7063 c 6.9986,-1.4263 12.1984,-0.9018 13.5108,1.8591 1.0638,2.2348 -0.6435,5.5491 -4.2915,9.1443"
       id="path25" />
    <path
       fill="none"
       stroke="#000000"
       stroke-linecap="round"
       stroke-linejoin="round"
       stroke-miterlimit="10"
       stroke-width="2"
       d="m 54.5651,36 c -2.5217,-1.964 -5.52,-3.9396 -8.8785,-5.8222"
       id="path26" />
    <path
       fill="none"
       stroke="#000000"
       stroke-linejoin="round"
       stroke-miterlimit="10"
       stroke-width="2"
       d="M 45.6866,30.1778 C 49.0451,32.0604 52.0434,34.036 54.5651,36"
       id="path27" />
    <path
       fill="none"
       stroke="#000000"
       stroke-linecap="round"
       stroke-linejoin="round"
       stroke-miterlimit="10"
       stroke-width="2"
       d="m 41.666,43.947 c -0.2817,0.1403 -0.5677,0.2787 -0.8578,0.4148"
       id="path28" />
    <path
       fill="none"
       stroke="#000000"
       stroke-linejoin="round"
       stroke-miterlimit="10"
       stroke-width="2"
       d="m 36.4942,25.7154 c 1.325,0.5578 2.6729,1.1505 4.0325,1.8013 1.8013,0.8483 3.5212,1.7432 5.1598,2.6612"
       id="path29" />
    <path
       fill="none"
       stroke="#000000"
       stroke-linecap="round"
       stroke-linejoin="round"
       stroke-miterlimit="10"
       stroke-width="2"
       d="m 27.0903,36.7225 c -0.0061,-0.5548 -0.0092,-1.1129 -0.0092,-1.6746 0,-2.6514 0.0697,-5.2563 0.1976,-7.7526"
       id="path30" />
    <path
       fill="none"
       stroke="#000000"
       stroke-linejoin="round"
       stroke-miterlimit="10"
       stroke-width="2"
       d="M 36.4942,46.2846 C 35.1579,45.7384 33.8098,45.1458 32.4501,44.495 30.6488,43.6351 28.9172,42.7402 27.2788,41.8222"
       id="path31" />
    <circle
       cx="36.826199"
       cy="36.326801"
       r="3.2625"
       fill="none"
       stroke="#000000"
       stroke-miterlimit="10"
       stroke-width="2"
       id="circle31" />
    <path
       fill="none"
       stroke="#000000"
       stroke-linecap="round"
       stroke-linejoin="round"
       stroke-miterlimit="10"
       stroke-width="2"
       d="m 31.61,48.3635 c 0,0 0.3376,-0.0601 0.9707,-0.3281"
       id="path32" />
    <path
       fill="none"
       stroke="#000000"
       stroke-linecap="round"
       stroke-linejoin="round"
       stroke-miterlimit="10"
       stroke-width="2"
       d="m 49.7017,39.9667 c 0,0 1.4042,-0.8972 1.6463,-1.1023"
       id="path33" />
    <path
       fill="none"
       stroke="#000000"
       stroke-linecap="round"
       stroke-linejoin="round"
       stroke-miterlimit="10"
       stroke-width="2"
       d="m 31.7066,27.2953 c -0.2829,0.143 -0.5659,0.2907 -0.8485,0.4432"
       id="path34" />
    <path
       fill="none"
       stroke="#000000"
       stroke-linecap="round"
       stroke-linejoin="round"
       stroke-miterlimit="10"
       stroke-width="2"
       d="m 22.2214,32.7675 c 0,0 0.2273,-0.2384 0.8141,-0.5891"
       id="path35" />
    <path
       fill="none"
       stroke="#000000"
       stroke-linecap="round"
       stroke-linejoin="round"
       stroke-miterlimit="10"
       stroke-width="2"
       d="m 39.7525,23.2019 c 0,0 1.6145,-0.5904 1.9449,-0.6609"
       id="path36" />
  </g>
</svg>
