<svg xmlns="http://www.w3.org/2000/svg" xmlns:svg="http://www.w3.org/2000/svg" id="emoji" width="57.001" height="62.908" version="1.1" viewBox="0 0 57.001 62.908"><g id="color" transform="translate(-7.61675,-4.5458935)"><rect id="rect1" width="19.083" height="3.543" x="26.589" y="46.453" fill="#fcea2b" stroke="#fcea2b" stroke-miterlimit="10" stroke-width=".954"/><path id="path1" fill="#fcea2b" d="m 38.3593,53.3015 c 0.7194,2.8877 1.9365,3.03 1.9365,6.2157 0,4.5215 -4.2132,6.9738 -4.2132,6.9738 L 36.0672,66.5 36.0519,66.491 c 0,0 -4.2132,-2.4523 -4.2132,-6.9738 0,-3.1847 1.2166,-3.3279 1.936,-6.2137"/><path id="path2" fill="#fcea2b" d="m 33.78,42.8976 c -1.7823,-7.1024 -7.612,-13.29 -7.612,-19.5871 0,-7.4337 9.8842,-17.7944 9.8842,-17.7944 L 36.0673,5.5 36.0826,5.5161 c 0,0 9.8843,10.3607 9.8843,17.7944 0,6.2974 -5.83,12.4848 -7.612,19.5872"/><path id="path3" fill="#fcea2b" d="m 42.3976,42.8984 c 2.1073,-3.01 5.6779,-5.8795 8.4984,-5.8795 4.28,0 5.43,1.93 5.43,3.77 a 19.4669,19.4669 0 0 1 -1.3034,5.1371 c 0,0 8.6413,-0.46 8.6413,-6.9005 0,-6.4405 -5.1139,-9.281 -10.7879,-9.281 -4.8767,0 -12.547,4.2982 -14.5211,13.1532"/><path id="path4" fill="#fcea2b" d="m 38.3593,53.3015 c 2.18,6.6031 9.303,5.1565 9.303,5.1565 a 5.732,5.732 0 0 0 4.6,-6.21 10.2325,10.2325 0 0 1 -5.98,1.9168 6.1052,6.1052 0 0 1 -3.3222,-0.861"/><path id="path5" fill="#fcea2b" d="m 33.7747,53.3035 c -2.18,6.6006 -9.2022,5.1545 -9.2022,5.1545 a 5.732,5.732 0 0 1 -4.6,-6.21 10.2325,10.2325 0 0 0 5.98,1.9168 6.106,6.106 0 0 0 3.3218,-0.8607"/><path id="path6" fill="#fcea2b" d="m 29.8373,42.8984 c -2.1073,-3.01 -5.678,-5.8795 -8.4985,-5.8795 -4.28,0 -5.43,1.93 -5.43,3.77 a 19.4669,19.4669 0 0 0 1.3034,5.1371 c 0,0 -8.6413,-0.46 -8.6413,-6.9005 0,-6.4405 5.1144,-9.2814 10.7881,-9.2814 4.8768,0 12.4469,4.2977 14.4209,13.1531"/><path id="path7" fill="#f1b31c" d="m 36.0826,66.491 c 0,0 4.2132,-2.4523 4.2132,-6.9738 0,-3.1855 -1.2171,-3.328 -1.9365,-6.2157 h -2.292 z"/><path id="path8" fill="#f1b31c" d="m 36.0673,42.8977 h 2.2876 c 1.7822,-7.1024 7.612,-13.29 7.612,-19.5872 0,-7.4337 -9.8843,-17.7944 -9.8843,-17.7944 z"/><path id="path9" fill="#f1b31c" d="m 54.4016,45.9264 a 19.4657,19.4657 0 0 0 1.3035,-5.1371 c 0,-1.84 -1.15,-3.77 -5.43,-3.77 -2.8206,0 -6.3912,2.8693 -8.4985,5.88 H 40.234 c 0,0 3.2832,-8.4891 9.9579,-8.4891 0,0 8.55,-0.75 8.55,6.3372 -4e-4,-9e-4 0.2198,5.179 -4.3403,5.179 z"/><path id="path10" fill="#f1b31c" d="m 17.86,45.9264 a 19.4669,19.4669 0 0 1 -1.3034,-5.1371 c 0,-1.84 1.15,-3.77 5.43,-3.77 2.82,0 6.3912,2.8693 8.4984,5.88 h 1.5425 c 0,0 -3.2833,-8.4891 -9.9579,-8.4891 0,0 -8.55,-0.75 -8.55,6.3372 4e-4,-9e-4 -0.2196,5.179 4.3404,5.179 z"/><path id="path11" fill="#f1b31c" d="m 51.5135,52.694 a 10.2325,10.2325 0 0 1 -5.98,1.9168 4.2434,4.2434 0 0 1 -3.3753,-1.3093 h -1.5643 c 0,0 1.852,3.1942 4.9038,3.1942 0,0 6.0158,0.2348 6.0158,-3.8017 z"/><path id="path12" fill="#f1b31c" d="m 20.5569,52.694 a 10.2329,10.2329 0 0 0 5.98,1.9168 4.2436,4.2436 0 0 0 3.3754,-1.3093 h 1.5638 c 0,0 -1.852,3.1942 -4.9038,3.1942 4e-4,0 -6.0154,0.2348 -6.0154,-3.8017 z"/></g><g id="line" transform="translate(-7.61675,-4.5458935)"><path id="path13" fill="none" stroke="#000" stroke-linecap="round" stroke-linejoin="round" stroke-width="1.908" d="m 38.3593,53.3015 c 0.7194,2.8877 1.9365,3.03 1.9365,6.2157 0,4.5215 -4.2132,6.9738 -4.2132,6.9738 L 36.0672,66.5 36.0519,66.491 c 0,0 -4.2132,-2.4523 -4.2132,-6.9738 0,-3.1847 1.2166,-3.3279 1.936,-6.2137"/><path id="path14" fill="none" stroke="#000" stroke-linecap="round" stroke-linejoin="round" stroke-width="1.908" d="m 33.78,42.8976 c -1.7823,-7.1024 -7.612,-13.29 -7.612,-19.5871 0,-7.4337 9.8842,-17.7944 9.8842,-17.7944 L 36.0673,5.5 36.0826,5.5161 c 0,0 9.8843,10.3607 9.8843,17.7944 0,6.2974 -5.83,12.4848 -7.612,19.5872"/><path id="path15" fill="none" stroke="#000" stroke-linecap="round" stroke-linejoin="round" stroke-width="1.908" d="m 42.3976,42.8984 c 2.1073,-3.01 5.6779,-5.8795 8.4984,-5.8795 4.28,0 5.43,1.93 5.43,3.77 a 19.4669,19.4669 0 0 1 -1.3034,5.1371 c 0,0 8.6413,-0.46 8.6413,-6.9005 0,-6.4405 -5.1139,-9.281 -10.7879,-9.281 -4.8767,0 -12.547,4.2982 -14.5211,13.1532"/><path id="path16" fill="none" stroke="#000" stroke-linecap="round" stroke-linejoin="round" stroke-width="1.908" d="m 38.3593,53.3015 c 2.18,6.6031 9.303,5.1565 9.303,5.1565 a 5.732,5.732 0 0 0 4.6,-6.21 10.2325,10.2325 0 0 1 -5.98,1.9168 6.1052,6.1052 0 0 1 -3.3222,-0.861"/><path id="path17" fill="none" stroke="#000" stroke-linecap="round" stroke-linejoin="round" stroke-width="1.908" d="m 33.7747,53.3035 c -2.18,6.6006 -9.2022,5.1545 -9.2022,5.1545 a 5.732,5.732 0 0 1 -4.6,-6.21 10.2325,10.2325 0 0 0 5.98,1.9168 6.106,6.106 0 0 0 3.3218,-0.8607"/><path id="path18" fill="none" stroke="#000" stroke-linecap="round" stroke-linejoin="round" stroke-width="1.908" d="m 29.8373,42.8984 c -2.1073,-3.01 -5.678,-5.8795 -8.4985,-5.8795 -4.28,0 -5.43,1.93 -5.43,3.77 a 19.4669,19.4669 0 0 0 1.3034,5.1371 c 0,0 -8.6413,-0.46 -8.6413,-6.9005 0,-6.4405 5.1144,-9.2814 10.7881,-9.2814 4.8768,0 12.4469,4.2977 14.4209,13.1531"/><line id="line18" x1="45.672" x2="26.589" y1="49.996" y2="49.996" fill="none" stroke="#000" stroke-linecap="round" stroke-linejoin="round" stroke-width="1.908"/><line id="line19" x1="26.589" x2="45.672" y1="46.453" y2="46.453" fill="none" stroke="#000" stroke-linecap="round" stroke-linejoin="round" stroke-width="1.908"/></g></svg>