<?xml version="1.0" encoding="UTF-8" standalone="no"?>
<svg
   id="emoji"
   viewBox="0 0 41.872818 65.832344"
   version="1.1"
   sodipodi:docname="26a1.svg"
   width="41.872818"
   height="65.832344"
   xmlns:inkscape="http://www.inkscape.org/namespaces/inkscape"
   xmlns:sodipodi="http://sodipodi.sourceforge.net/DTD/sodipodi-0.dtd"
   xmlns="http://www.w3.org/2000/svg"
   xmlns:svg="http://www.w3.org/2000/svg">
  <defs
     id="defs2" />
  <sodipodi:namedview
     id="namedview2"
     pagecolor="#ffffff"
     bordercolor="#000000"
     borderopacity="0.25"
     inkscape:showpageshadow="2"
     inkscape:pageopacity="0.0"
     inkscape:pagecheckerboard="0"
     inkscape:deskcolor="#d1d1d1" />
  <g
     id="color"
     transform="translate(-15.063441,-3.4409996)">
    <path
       fill="#fcea2b"
       stroke="none"
       d="M 48.143,3.7261 16.316,37.8507 c -0.6029,0.6465 -0.1141,1.6589 0.801,1.6589 H 36.2236 L 19.1503,67.0482 c -0.1662,0.2681 0.215,0.5364 0.4424,0.3114 l 36.0628,-35.704 c 0.6436,-0.6372 0.1626,-1.6882 -0.7725,-1.6882 H 36.3826 Z"
       id="path1" />
  </g>
  <g
     id="hair"
     transform="translate(-15.063441,-3.4409996)" />
  <g
     id="skin"
     transform="translate(-15.063441,-3.4409996)" />
  <g
     id="skin-shadow"
     transform="translate(-15.063441,-3.4409996)" />
  <g
     id="line"
     transform="translate(-15.063441,-3.4409996)">
    <path
       fill="none"
       stroke="#000000"
       stroke-linecap="round"
       stroke-linejoin="round"
       stroke-miterlimit="10"
       stroke-width="2"
       d="M 48.1628,4.4406 16.3224,37.7817 c -0.6174,0.6465 -0.1168,1.6589 0.8201,1.6589 H 36.2254 L 17.9214,68.2739 55.6483,31.7954 c 0.659,-0.6372 0.1665,-1.6882 -0.791,-1.6882 H 36.3846 Z"
       id="path2" />
  </g>
</svg>
