<svg xmlns="http://www.w3.org/2000/svg" xmlns:svg="http://www.w3.org/2000/svg" id="emoji" width="36.262" height="61.274" version="1.1" viewBox="0 0 36.262 61.274"><g id="color" transform="translate(-17.8689,-5.3624505)"><g id="_26B1"><path id="path1" fill="#f4aa41" stroke="#000" stroke-linecap="round" stroke-linejoin="round" stroke-width="2" d="m 44.7967,15.1753 3.3621,-2.9411 C 49.038,11.4603 49.1233,10.1202 48.3494,9.241 48.1462,9.0102 47.8952,8.8263 47.6139,8.7021 44.0431,7.1281 40.1786,6.331 36.2764,6.3634 32.3742,6.331 28.5097,7.1281 24.9389,8.7021 c -1.0715,0.473 -1.5568,1.7251 -1.0838,2.7966 0.1242,0.2813 0.3081,0.5323 0.5389,0.7355 l 3.6591,3.2009 c -4.8465,3.0433 -9.1842,8.3556 -9.1842,14.4156 0,10.7391 8.5614,35.7859 8.5614,35.7859 H 44.57 c 0,0 8.5611,-25.0466 8.5611,-35.7859 C 53.1293,23.833 49.964,18.2594 44.7967,15.1753 Z"/><path id="path2" fill="none" stroke="#e27022" stroke-linecap="square" stroke-linejoin="round" stroke-width="2" d="m 28.0531,15.4351 c 5.4513,-1.6237 11.2446,-1.7136 16.7436,-0.26"/><polygon id="polygon2" fill="#e27022" points="25.793 57.217 41.02 57.217 40.1 61.289 27.043 61.289"/><line id="line2" x1="19.645" x2="52.355" y1="29.522" y2="29.522" fill="none" stroke="#e27022" stroke-linecap="round" stroke-linejoin="round" stroke-width="2"/><line id="line3" x1="19.645" x2="51.821" y1="34.088" y2="34.088" fill="none" stroke="#e27022" stroke-linecap="round" stroke-linejoin="round" stroke-width="2"/><path id="path3" fill="#e27022" d="m 44.7967,15.1753 h -1.1416 c 0,1.0928 2.6269,8.4364 2.6269,14.6754 0,10.7391 -8.5613,35.7859 -8.5613,35.7859 H 44.57 c 0,0 8.5611,-25.0466 8.5611,-35.7859 C 53.1293,23.833 49.964,18.2594 44.7967,15.1753 Z"/><path id="path4" fill="#e27022" d="m 44.7967,8.1159 c 2.4548,3.0045 0.4662,2.303 -1.1416,7.0594 3.5167,2.5048 5.2063,-4.7835 5.2063,-4.7835 0,0 -1.875,-2.8456 -4.0647,-2.2759 z"/></g></g><g id="line" transform="translate(-17.8689,-5.3624505)"><path id="_26B1-2" fill="none" stroke="#000" stroke-linecap="round" stroke-linejoin="round" stroke-width="2" d="m 44.7967,15.1753 3.3621,-2.9411 C 49.038,11.4603 49.1233,10.1202 48.3494,9.241 48.1462,9.0102 47.8952,8.8263 47.6139,8.7021 44.0431,7.1281 40.1786,6.331 36.2764,6.3634 32.3742,6.331 28.5097,7.1281 24.9389,8.7021 c -1.0715,0.473 -1.5568,1.7251 -1.0838,2.7966 0.1242,0.2813 0.3081,0.5323 0.5389,0.7355 l 3.6591,3.2009 c -4.8465,3.0433 -9.1842,8.3556 -9.1842,14.4156 0,10.7391 8.5614,35.7859 8.5614,35.7859 H 44.57 c 0,0 8.5611,-25.0466 8.5611,-35.7859 C 53.1293,23.833 49.964,18.2594 44.7967,15.1753 Z"/></g></svg>