<?xml version="1.0" encoding="UTF-8" standalone="no"?>
<svg
   id="emoji"
   viewBox="0 0 60 60"
   version="1.1"
   sodipodi:docname="26be.svg"
   width="60"
   height="60"
   xmlns:inkscape="http://www.inkscape.org/namespaces/inkscape"
   xmlns:sodipodi="http://sodipodi.sourceforge.net/DTD/sodipodi-0.dtd"
   xmlns="http://www.w3.org/2000/svg"
   xmlns:svg="http://www.w3.org/2000/svg">
  <defs
     id="defs18" />
  <sodipodi:namedview
     id="namedview18"
     pagecolor="#ffffff"
     bordercolor="#000000"
     borderopacity="0.25"
     inkscape:showpageshadow="2"
     inkscape:pageopacity="0.0"
     inkscape:pagecheckerboard="0"
     inkscape:deskcolor="#d1d1d1" />
  <g
     id="color"
     transform="translate(-6,-5.9583015)">
    <circle
       cx="36"
       cy="35.958302"
       r="29"
       fill="#ffffff"
       id="circle1" />
    <path
       fill="none"
       stroke="#d0cfce"
       stroke-miterlimit="10"
       stroke-width="3"
       d="m 54.8295,55.7853 c -5.2796,-5.2522 -6.8833,-10.7914 -6.8833,-18.8269 0,-8.0081 3.2459,-15.2581 8.4939,-20.5061"
       id="path1" />
    <path
       fill="none"
       stroke="#d0cfce"
       stroke-miterlimit="10"
       stroke-width="3"
       d="m 15.5331,16.4522 c 5.248,5.248 8.4939,12.498 8.4939,20.5061 0,8.0287 -2.409,14.4908 -7.6808,19.7419"
       id="path2" />
    <path
       fill="#d0cfce"
       d="m 50.738,10.9985 c 4.8254,5.1792 7.7822,12.1224 7.7822,19.7596 0,16.0162 -12.9837,29 -29,29 -5.3519,0 -10.3612,-1.4558 -14.6646,-3.9839 5.2892,5.6453 12.7977,9.1841 21.1444,9.1841 16.0162,0 29,-12.9838 29,-29 C 65,25.327 59.2692,16.047 50.738,10.9985 Z"
       id="path3" />
  </g>
  <g
     id="line"
     transform="translate(-6,-5.9583015)">
    <circle
       cx="36"
       cy="35.958302"
       r="29"
       fill="none"
       stroke="#000000"
       stroke-linecap="round"
       stroke-linejoin="round"
       stroke-width="2"
       id="circle3" />
    <path
       fill="none"
       stroke="#000000"
       stroke-linecap="round"
       stroke-linejoin="round"
       stroke-width="2"
       d="M 56.494,56.5182 C 51.2144,51.266 47.9462,43.9939 47.9462,35.9584 c 0,-8.0081 3.2459,-15.2581 8.4939,-20.5061"
       id="path4" />
    <path
       fill="none"
       stroke="#000000"
       stroke-linecap="round"
       stroke-linejoin="round"
       stroke-width="2"
       d="m 15.5331,15.4522 c 5.248,5.248 8.4939,12.498 8.4939,20.5061 0,8.0287 -3.2455,15.2768 -8.5172,20.5279"
       id="path5" />
    <polyline
       fill="none"
       stroke="#000000"
       stroke-linecap="round"
       stroke-linejoin="round"
       stroke-width="2"
       points="45.9462 35.4583 47.9462 36.4583 49.9462 35.4583"
       id="polyline5" />
    <polyline
       fill="none"
       stroke="#000000"
       stroke-linecap="round"
       stroke-linejoin="round"
       stroke-width="2"
       points="26.0271 36.4583 24.027 35.4583 22.027 36.4583"
       id="polyline6" />
    <polyline
       fill="none"
       stroke="#000000"
       stroke-linecap="round"
       stroke-linejoin="round"
       stroke-width="2"
       points="25.2025 43.3317 23.4241 41.9762 21.2726 42.5856"
       id="polyline7" />
    <polyline
       fill="none"
       stroke="#000000"
       stroke-linecap="round"
       stroke-linejoin="round"
       stroke-width="2"
       points="23.0012 49.4547 21.523 47.7769 19.2938 47.9528"
       id="polyline8" />
    <polyline
       fill="none"
       stroke="#000000"
       stroke-linecap="round"
       stroke-linejoin="round"
       stroke-width="2"
       points="19.5977 54.6466 18.8245 52.5484 16.6821 51.9081"
       id="polyline9" />
    <polyline
       fill="none"
       stroke="#000000"
       stroke-linecap="round"
       stroke-linejoin="round"
       stroke-width="2"
       points="20.2695 17.7956 18.1198 18.411 17.3222 20.4999"
       id="polyline10" />
    <polyline
       fill="none"
       stroke="#000000"
       stroke-linecap="round"
       stroke-linejoin="round"
       stroke-width="2"
       points="23.4875 23.5425 21.2891 23.6516 20.0026 25.5061"
       id="polyline11" />
    <polyline
       fill="none"
       stroke="#000000"
       stroke-linecap="round"
       stroke-linejoin="round"
       stroke-width="2"
       points="25.4746 29.7549 23.27 29.3806 21.6479 30.9197"
       id="polyline12" />
    <polyline
       fill="none"
       stroke="#000000"
       stroke-linecap="round"
       stroke-linejoin="round"
       stroke-width="2"
       points="46.7708 28.5842 48.5492 29.9397 50.7006 29.3303"
       id="polyline13" />
    <polyline
       fill="none"
       stroke="#000000"
       stroke-linecap="round"
       stroke-linejoin="round"
       stroke-width="2"
       points="48.972 22.4611 50.4502 24.1389 52.6794 23.9631"
       id="polyline14" />
    <polyline
       fill="none"
       stroke="#000000"
       stroke-linecap="round"
       stroke-linejoin="round"
       stroke-width="2"
       points="52.4993 17.1179 53.2724 19.216 55.4149 19.8564"
       id="polyline15" />
    <polyline
       fill="none"
       stroke="#000000"
       stroke-linecap="round"
       stroke-linejoin="round"
       stroke-width="2"
       points="51.5447 53.912 53.6945 53.2967 54.4921 51.2077"
       id="polyline16" />
    <polyline
       fill="none"
       stroke="#000000"
       stroke-linecap="round"
       stroke-linejoin="round"
       stroke-width="2"
       points="48.4822 48.4289 50.7156 48.3183 51.9671 46.4653"
       id="polyline17" />
    <polyline
       fill="none"
       stroke="#000000"
       stroke-linecap="round"
       stroke-linejoin="round"
       stroke-width="2"
       points="46.4986 42.161 48.7032 42.5352 50.3253 40.9962"
       id="polyline18" />
  </g>
</svg>
