<svg xmlns="http://www.w3.org/2000/svg" xmlns:svg="http://www.w3.org/2000/svg" id="emoji" width="47.3" height="52" version="1.1" viewBox="0 0 47.3 52"><g id="color" transform="translate(-12.300061,-10.7)"><polygon id="polygon1" fill="#a57939" points="38.6 46.2 38.6 61.9 37.4 61.9 33.8 61.9 32.6 61.9 32.6 46.2 33.8 42.6 33.8 11.5 37.5 11.5 37.4 42.6"/><path id="path1" fill="#d0cfce" d="m 58.6,23.3 c -2,-4.7 -11.3,-8.2 -22.6,-8.2 -11.4,0 -20.8,3.6 -22.7,8.3 l 8,-1.5 a 80.71,80.71 0 0 1 29.4,-0.1 z"/></g><g id="line" transform="translate(-12.300061,-10.7)"><polygon id="polygon2" fill="none" stroke="#000" stroke-linecap="round" stroke-linejoin="round" stroke-width="2" points="38.6 46 38.6 61.7 37.4 61.7 33.8 61.7 32.6 61.7 32.6 46 33.8 42.3 33.8 20.4 37.5 20.4 37.4 42.3"/><polygon id="polygon3" fill="none" stroke="#000" stroke-linecap="round" stroke-linejoin="round" stroke-width="2" points="33.8 14.9 33.8 11.7 37.5 11.7 37.4 14.9"/><path id="path3" fill="none" stroke="#000" stroke-linecap="round" stroke-linejoin="round" stroke-width="2" d="m 58.6,23.1 c -2,-4.7 -11.3,-8.2 -22.6,-8.2 -11.4,0 -20.8,3.6 -22.7,8.3 l 8,-1.5 a 80.71,80.71 0 0 1 29.4,-0.1 z"/></g></svg>