<svg xmlns="http://www.w3.org/2000/svg" xmlns:svg="http://www.w3.org/2000/svg" id="emoji" width="57.632" height="58.482" version="1.1" viewBox="0 0 57.632 58.482"><g id="color" transform="translate(-7.091722,-6.4948986)"><path id="path1" fill="#ea5a47" d="M 35.8616,7.8594 C 27.3764,8.0165 17.4771,11.9448 17.32,27.501 l -0.4714,3.2714 c 0.9428,-0.1572 3.2124,2.1023 4.1552,2.2595 2.9855,0.1571 3.9861,-1.4142 6.5,0 2.5139,1.4142 5.8436,0.5973 8.5148,0.5973 2.6712,0 5.686,0.8169 8.2,-0.5973 2.514,-1.4142 5.5291,0.1571 8.3575,0 h 2.7858 L 54.2462,27.501 c 0,-15.5562 -9.8994,-19.4845 -18.3846,-19.6416 z"/><path id="path2" fill="#d22f27" d="m 60.9337,30.246 c 0,0 7.4289,4.6431 -3.7144,6.5 0.6423,-0.1714 8.3064,-0.0721 -15.7863,1.8572 a 32.6848,32.6848 0 0 0 -6.5,0 c -1.2857,0.1775 -1.5794,-0.032 -7.4289,0 C 21.5011,38.636 17.1852,38.1905 14.3994,37.2619 11.6136,36.3333 9.86,35.8177 9.86,35.8177 c -0.6713,0.3837 -4.6452,-3.05 1.8572,-5.5717 -0.0746,-0.3231 -2.41,0.7826 24.1438,1.8573 6.2805,0.2541 25.0727,-1.8573 25.0727,-1.8573 z"/></g><g id="line" transform="translate(-7.091722,-6.4948986)"><path id="path3" fill="none" stroke="#000" stroke-miterlimit="10" stroke-width="2" d="m 43.29,9.1081 v 14.5473 a 15.278,15.278 0 0 1 -14.8577,0 V 8.8881"/><path id="path4" fill="none" stroke="#000" stroke-linecap="round" stroke-miterlimit="10" stroke-width="2" d="m 16.825,30.71 c 0,-8.3786 4.7,-18.3651 11.4251,-21.5167 a 17.8729,17.8729 0 0 1 7.6113,-1.6984 c 10.5135,0 19.0364,9.1465 19.0364,20.4293 0,0.4376 0.0252,2.3551 0,2.7858"/><path id="path5" fill="none" stroke="#000" stroke-linecap="round" stroke-miterlimit="10" stroke-width="2" d="m 18.2179,41.3893 c 0,0 0.9286,21.3579 17.6435,21.3579 16.7149,0 17.6435,-21.3579 17.6435,-21.3579"/><g id="g7"><path id="path6" fill="none" stroke="#000" stroke-linecap="round" stroke-miterlimit="10" stroke-width="2" d="m 59.6708,30.311 c 0.0252,0.0041 3.86,-0.21 4.0487,2.7209 0.067,1.04 -0.5021,2.632 -3.12,3.2538 a 136.3459,136.3459 0 0 1 -24.7,2.3157"/><path id="path7" fill="none" stroke="#000" stroke-linecap="round" stroke-miterlimit="10" stroke-width="2" d="m 12.1443,30.311 c -0.0252,0.0041 -3.86,-0.21 -4.0487,2.7209 -0.067,1.04 0.5021,2.632 3.12,3.2538 a 136.3463,136.3463 0 0 0 24.7,2.3157"/></g><path id="path8" fill="none" stroke="#000" stroke-linecap="round" stroke-linejoin="round" stroke-width="2" d="m 27.5039,32.1033 a 86.4178,86.4178 0 0 0 16.7149,0"/><path id="path9" fill="none" stroke="#000" stroke-linecap="round" stroke-miterlimit="10" stroke-width="4" d="m 28.4325,60.9222 c 0,0 7.4289,4.6751 14.8577,0"/><path id="path10" d="m 28.9477,8.8881 c 0,0 8.354,-3.3824 14.1341,0.166 L 43.29,23.7458 c 0,0 -7.4288,4.643 -14.8577,0 z"/></g><g id="color-foreground" transform="translate(-7.091722,-6.4948986)"><line id="line10" x1="35.9" x2="35.9" y1="12.383" y2="20.276" fill="none" stroke="#fff" stroke-linecap="round" stroke-miterlimit="10" stroke-width="2"/><line id="line11" x1="32.418" x2="39.382" y1="16.33" y2="16.33" fill="none" stroke="#fff" stroke-linecap="round" stroke-miterlimit="10" stroke-width="2"/></g></svg>