<svg xmlns="http://www.w3.org/2000/svg" xmlns:svg="http://www.w3.org/2000/svg" id="emoji" width="16.785" height="62.215" version="1.1" viewBox="0 0 16.785 62.215"><g id="color" transform="translate(-26.9075,-4.985)"><ellipse id="ellipse1" cx="35.253" cy="15.34" fill="#fff" rx="3.848" ry="4.664"/><ellipse id="ellipse2" cx="35.338" cy="36.02" fill="#fff" rx="3.848" ry="4.664"/><ellipse id="ellipse3" cx="35.508" cy="57.039" fill="#fff" rx="3.848" ry="4.664"/><path id="path3" fill="#d0cfce" d="M 42.6346,12.4476 C 42.1772,8.8038 39.0678,5.985 35.3,5.985 c -4.0828,0 -7.3925,3.3097 -7.3925,7.3925 v 3.8019 c 0,4.0828 3.3098,7.3925 7.3925,7.3925 4.0827,0 7.3925,-3.3097 7.3925,-7.3925 v -3.8019 c 0,-0.315 -0.0197,-0.6253 -0.0579,-0.9299 z m -3.0878,3.9228 c 0,2.3455 -1.9014,4.2468 -4.2468,4.2468 -2.3454,0 -4.2468,-1.9014 -4.2468,-4.2468 v -2.184 c 0,-2.3455 1.9014,-4.2467 4.2468,-4.2467 2.1645,0 3.9507,1.6191 4.2135,3.7124 0.022,0.175 0.0333,0.3533 0.0333,0.5343 z"/><path id="path4" fill="#d0cfce" d="M 42.6346,33.2616 C 42.1772,29.6178 39.0678,26.7991 35.3,26.7991 c -4.0828,0 -7.3925,3.3097 -7.3925,7.3925 v 3.8019 c 0,4.0828 3.3098,7.3925 7.3925,7.3925 4.0827,0 7.3925,-3.3097 7.3925,-7.3925 v -3.8019 c 0,-0.315 -0.0197,-0.6253 -0.0579,-0.93 z m -3.0878,3.9228 c 0,2.3455 -1.9014,4.2468 -4.2468,4.2468 -2.3454,0 -4.2468,-1.9014 -4.2468,-4.2468 v -2.184 c 0,-2.3455 1.9014,-4.2467 4.2468,-4.2467 2.1645,0 3.9507,1.6191 4.2135,3.7124 0.022,0.175 0.0333,0.3533 0.0333,0.5343 z"/><path id="path5" fill="#d0cfce" d="M 42.6346,54.0756 C 42.1772,50.4318 39.0678,47.6131 35.3,47.6131 c -4.0828,0 -7.3925,3.3097 -7.3925,7.3925 v 3.8019 c 0,4.0828 3.3098,7.3925 7.3925,7.3925 4.0827,0 7.3925,-3.3097 7.3925,-7.3925 v -3.8019 c 0,-0.315 -0.0197,-0.6253 -0.0579,-0.93 z m -3.0878,3.9228 c 0,2.3455 -1.9014,4.2468 -4.2468,4.2468 -2.3454,0 -4.2468,-1.9014 -4.2468,-4.2468 v -2.184 c 0,-2.3455 1.9014,-4.2467 4.2468,-4.2467 2.1645,0 3.9507,1.6191 4.2135,3.7124 0.022,0.175 0.0333,0.3533 0.0333,0.5343 z"/></g><g id="line" transform="translate(-26.9075,-4.985)"><path id="path6" fill="none" stroke="#000" stroke-linecap="round" stroke-linejoin="round" stroke-width="2" d="m 39.5468,57.9985 c 0,2.3454 -1.9013,4.2468 -4.2468,4.2468 -2.3455,0 -4.2468,-1.9013 -4.2468,-4.2468 v -2.184 c 0,-2.3454 1.9013,-4.2468 4.2468,-4.2468 2.1645,0 3.9507,1.6193 4.2135,3.7125 0.022,0.175 0.0333,0.3533 0.0333,0.5342 z"/><path id="path7" fill="none" stroke="#000" stroke-linecap="round" stroke-linejoin="round" stroke-width="2" d="m 42.6925,58.8074 c 0,4.0828 -3.3097,7.3925 -7.3925,7.3925 -4.0828,0 -7.3925,-3.3097 -7.3925,-7.3925 v -3.8019 c 0,-4.0828 3.3097,-7.3925 7.3925,-7.3925 3.7678,0 6.8772,2.8188 7.3346,6.4625 0.0382,0.3046 0.0579,0.615 0.0579,0.93 z"/><path id="path8" fill="none" stroke="#000" stroke-linecap="round" stroke-linejoin="round" stroke-width="2" d="m 39.5468,37.1845 c 0,2.3454 -1.9013,4.2468 -4.2468,4.2468 -2.3455,0 -4.2468,-1.9013 -4.2468,-4.2468 v -2.184 c 0,-2.3454 1.9013,-4.2468 4.2468,-4.2468 2.1645,0 3.9507,1.6193 4.2135,3.7125 0.022,0.175 0.0333,0.3533 0.0333,0.5342 z"/><path id="path9" fill="none" stroke="#000" stroke-linecap="round" stroke-linejoin="round" stroke-width="2" d="m 42.6925,37.9934 c 0,4.0828 -3.3097,7.3925 -7.3925,7.3925 -4.0828,0 -7.3925,-3.3097 -7.3925,-7.3925 v -3.8019 c 0,-4.0828 3.3097,-7.3925 7.3925,-7.3925 3.7678,0 6.8772,2.8188 7.3346,6.4625 0.0382,0.3046 0.0579,0.615 0.0579,0.93 z"/><path id="path10" fill="none" stroke="#000" stroke-linecap="round" stroke-linejoin="round" stroke-width="2" d="m 39.5468,16.3705 c 0,2.3454 -1.9013,4.2468 -4.2468,4.2468 -2.3455,0 -4.2468,-1.9013 -4.2468,-4.2468 v -2.184 c 0,-2.3454 1.9013,-4.2468 4.2468,-4.2468 2.1645,0 3.9507,1.6193 4.2135,3.7125 0.022,0.175 0.0333,0.3533 0.0333,0.5342 z"/><path id="path11" fill="none" stroke="#000" stroke-linecap="round" stroke-linejoin="round" stroke-width="2" d="m 42.6925,17.1794 c 0,4.0828 -3.3097,7.3925 -7.3925,7.3925 -4.0828,0 -7.3925,-3.3097 -7.3925,-7.3925 v -3.8019 c 0,-4.0828 3.3097,-7.3925 7.3925,-7.3925 3.7678,0 6.8772,2.8188 7.3346,6.4625 0.0382,0.3046 0.0579,0.615 0.0579,0.93 z"/><line id="line11" x1="35.5" x2="35.5" y1="38.892" y2="54" fill="none" stroke="#000" stroke-linecap="round" stroke-linejoin="round" stroke-width="2"/><line id="line12" x1="35.5" x2="35.5" y1="17.931" y2="33.039" fill="none" stroke="#000" stroke-linecap="round" stroke-linejoin="round" stroke-width="2"/></g></svg>