<?xml version="1.0" encoding="UTF-8" standalone="no"?>
<svg
   id="emoji"
   viewBox="0 0 48.999393 40.999931"
   version="1.1"
   sodipodi:docname="26e9.svg"
   width="48.999393"
   height="40.999931"
   xmlns:inkscape="http://www.inkscape.org/namespaces/inkscape"
   xmlns:sodipodi="http://sodipodi.sourceforge.net/DTD/sodipodi-0.dtd"
   xmlns="http://www.w3.org/2000/svg"
   xmlns:svg="http://www.w3.org/2000/svg">
  <defs
     id="defs14" />
  <sodipodi:namedview
     id="namedview14"
     pagecolor="#ffffff"
     bordercolor="#000000"
     borderopacity="0.25"
     inkscape:showpageshadow="2"
     inkscape:pageopacity="0.0"
     inkscape:pagecheckerboard="0"
     inkscape:deskcolor="#d1d1d1" />
  <g
     id="color"
     transform="translate(-11.500296,-19.999872)">
    <rect
       x="16"
       y="33"
       width="40"
       height="4"
       fill="#d22f27"
       id="rect1" />
    <rect
       x="22"
       y="27"
       width="4"
       height="28"
       fill="#ea5a47"
       id="rect2" />
    <rect
       x="46"
       y="27"
       width="4"
       height="28"
       fill="#ea5a47"
       id="rect3" />
    <rect
       x="20.5"
       y="55"
       width="7"
       height="5"
       fill="#3f3f3f"
       id="rect4" />
    <rect
       x="44.5"
       y="55"
       width="7"
       height="5"
       fill="#3f3f3f"
       id="rect5" />
    <rect
       x="34"
       y="27"
       width="4"
       height="6"
       fill="#3f3f3f"
       id="rect6" />
    <path
       fill="#ea5a47"
       d="m 12.5,21 c 0,0 11.2502,2 15.0003,2 4.625,0 13.875,0 18.5,0 C 49.3752,23 59.5,21 59.5,21 l -4,3 -2,3 h -35 l -2,-3 z"
       id="path6" />
  </g>
  <g
     id="hair"
     transform="translate(-11.500296,-19.999872)" />
  <g
     id="skin"
     transform="translate(-11.500296,-19.999872)" />
  <g
     id="skin-shadow"
     transform="translate(-11.500296,-19.999872)" />
  <g
     id="line"
     transform="translate(-11.500296,-19.999872)">
    <rect
       x="16"
       y="32.999802"
       width="6"
       height="4"
       fill="none"
       stroke="#000000"
       stroke-linecap="round"
       stroke-linejoin="round"
       stroke-miterlimit="10"
       stroke-width="2"
       id="rect7" />
    <rect
       x="26"
       y="32.999802"
       width="20"
       height="4"
       fill="none"
       stroke="#000000"
       stroke-linecap="round"
       stroke-linejoin="round"
       stroke-miterlimit="10"
       stroke-width="2"
       id="rect8" />
    <rect
       x="50"
       y="32.999802"
       width="6"
       height="4"
       fill="none"
       stroke="#000000"
       stroke-linecap="round"
       stroke-linejoin="round"
       stroke-miterlimit="10"
       stroke-width="2"
       id="rect9" />
    <rect
       x="22"
       y="26.9998"
       width="4"
       height="28"
       fill="none"
       stroke="#000000"
       stroke-linecap="round"
       stroke-linejoin="round"
       stroke-miterlimit="10"
       stroke-width="2"
       id="rect10" />
    <rect
       x="46"
       y="26.9998"
       width="4"
       height="28"
       fill="none"
       stroke="#000000"
       stroke-linecap="round"
       stroke-linejoin="round"
       stroke-miterlimit="10"
       stroke-width="2"
       id="rect11" />
    <rect
       x="20.5"
       y="54.999802"
       width="7"
       height="5"
       fill="none"
       stroke="#000000"
       stroke-linecap="round"
       stroke-linejoin="round"
       stroke-miterlimit="10"
       stroke-width="2"
       id="rect12" />
    <rect
       x="44.5"
       y="54.999802"
       width="7"
       height="5"
       fill="none"
       stroke="#000000"
       stroke-linecap="round"
       stroke-linejoin="round"
       stroke-miterlimit="10"
       stroke-width="2"
       id="rect13" />
    <rect
       x="34"
       y="27"
       width="4"
       height="6"
       fill="none"
       stroke="#000000"
       stroke-linecap="round"
       stroke-linejoin="round"
       stroke-miterlimit="10"
       stroke-width="2"
       id="rect14" />
    <path
       fill="none"
       stroke="#000000"
       stroke-linecap="round"
       stroke-linejoin="round"
       stroke-miterlimit="10"
       stroke-width="2"
       d="m 59.5,20.9998 -4,3 -2,3 h -35 l -2,-3 -4,-3 c 0,0 11.25,2 15,2 H 46 c 3.38,0 13.5,-2 13.5,-2 z"
       id="path14" />
  </g>
</svg>
