<?xml version="1.0" encoding="UTF-8" standalone="no"?>
<svg
   id="emoji"
   viewBox="0 0 36 62"
   version="1.1"
   sodipodi:docname="26ea.svg"
   width="36"
   height="62"
   xmlns:inkscape="http://www.inkscape.org/namespaces/inkscape"
   xmlns:sodipodi="http://sodipodi.sourceforge.net/DTD/sodipodi-0.dtd"
   xmlns="http://www.w3.org/2000/svg"
   xmlns:svg="http://www.w3.org/2000/svg">
  <defs
     id="defs5" />
  <sodipodi:namedview
     id="namedview5"
     pagecolor="#ffffff"
     bordercolor="#000000"
     borderopacity="0.25"
     inkscape:showpageshadow="2"
     inkscape:pageopacity="0.0"
     inkscape:pagecheckerboard="0"
     inkscape:deskcolor="#d1d1d1" />
  <g
     id="color"
     transform="translate(-18,-5)">
    <path
       fill="#d0cfce"
       stroke="none"
       d="M 44,36 V 20.9009 20.4917 l -7.2941,-5.2706 c -0.4081,-0.2948 -1.0039,-0.2948 -1.412,0 L 28,20.4917 V 20.9009 36"
       id="path1" />
    <polygon
       fill="#ffffff"
       stroke="none"
       points="36.0449,26.9849 53.0078,42.1133 53,66 18.9473,66 19,42.1016 "
       id="polygon1" />
    <path
       fill="#a57939"
       stroke="none"
       stroke-linecap="round"
       stroke-miterlimit="10"
       stroke-width="2"
       d="m 41,57.943 c 0,-3.8509 -3.3484,-6.1256 -4.5649,-6.8249 -0.274,-0.1575 -0.5962,-0.1575 -0.8702,0 C 34.3483,51.8174 31,54.0921 31,57.943 v 7.0894 C 31,65.5668 31.4092,66 31.914,66 h 8.172 C 40.5908,66 41,65.5668 41,65.0324 Z"
       id="path2" />
    <circle
       cx="36"
       cy="42"
       r="5"
       fill="#92d3f5"
       stroke="none"
       stroke-miterlimit="10"
       stroke-width="2"
       id="circle2" />
  </g>
  <g
     id="hair"
     transform="translate(-18,-5)" />
  <g
     id="skin"
     transform="translate(-18,-5)" />
  <g
     id="skin-shadow"
     transform="translate(-18,-5)" />
  <g
     id="line"
     transform="translate(-18,-5)">
    <path
       fill="#000000"
       stroke="none"
       d="M 36,28.3609 52,42.5558 V 65 H 20 V 42.5558 L 36,28.3609 M 35.9999,26 c -0.2207,0 -0.4415,0.0789 -0.6193,0.2367 L 18.3281,41.3654 C 18.1197,41.5502 18,41.819 18,42.1017 V 66.027 C 18,66.5644 18.4241,67 18.9474,67 H 53.0526 C 53.5759,67 54,66.5644 54,66.027 V 42.1017 C 54,41.819 53.8803,41.5502 53.6719,41.3654 L 36.6193,26.2367 C 36.4414,26.0789 36.2207,26 35.9999,26 Z"
       id="path3" />
    <path
       fill="none"
       stroke="#000000"
       stroke-linecap="round"
       stroke-linejoin="round"
       stroke-miterlimit="10"
       stroke-width="2"
       d="m 43,29 v -8.0991 -0.4092 l -6.3823,-5.2706 c -0.3571,-0.2948 -0.8784,-0.2948 -1.2355,0 L 29,20.4917 V 20.9009 29"
       id="path4" />
    <line
       x1="36"
       x2="36"
       y1="14"
       y2="6"
       fill="none"
       stroke="#000000"
       stroke-linecap="round"
       stroke-miterlimit="10"
       stroke-width="2"
       id="line4" />
    <line
       x1="32.5"
       x2="39.5"
       y1="10"
       y2="10"
       fill="none"
       stroke="#000000"
       stroke-linecap="round"
       stroke-miterlimit="10"
       stroke-width="2"
       id="line5" />
    <path
       fill="none"
       stroke="#000000"
       stroke-linecap="round"
       stroke-miterlimit="10"
       stroke-width="2"
       d="m 41,57.943 c 0,-3.8509 -3.3484,-6.1256 -4.5649,-6.8249 -0.274,-0.1575 -0.5962,-0.1575 -0.8702,0 C 34.3483,51.8174 31,54.0921 31,57.943 v 7.0894 C 31,65.5668 31.4092,66 31.914,66 h 8.172 C 40.5908,66 41,65.5668 41,65.0324 Z"
       id="path5" />
    <circle
       cx="36"
       cy="42"
       r="5"
       fill="none"
       stroke="#000000"
       stroke-miterlimit="10"
       stroke-width="2"
       id="circle5" />
  </g>
</svg>
