<?xml version="1.0" encoding="UTF-8" standalone="no"?>
<svg
   id="emoji"
   viewBox="0 0 50 38.99992"
   version="1.1"
   sodipodi:docname="26f0.svg"
   width="50"
   height="38.99992"
   xmlns:inkscape="http://www.inkscape.org/namespaces/inkscape"
   xmlns:sodipodi="http://sodipodi.sourceforge.net/DTD/sodipodi-0.dtd"
   xmlns="http://www.w3.org/2000/svg"
   xmlns:svg="http://www.w3.org/2000/svg">
  <defs
     id="defs5" />
  <sodipodi:namedview
     id="namedview5"
     pagecolor="#ffffff"
     bordercolor="#000000"
     borderopacity="0.25"
     inkscape:showpageshadow="2"
     inkscape:pageopacity="0.0"
     inkscape:pagecheckerboard="0"
     inkscape:deskcolor="#d1d1d1" />
  <g
     id="color"
     transform="translate(-11,-17.000081)">
    <path
       fill="#3f3f3f"
       d="m 52,42.2 c 0,0 -0.2,-6.2 -0.3,-6.8 -0.1,-0.6 -0.7,-1.6 -1,-2.1 L 48.2,29 42,24.5 l -7.2,5.4 2.6,4.5 4.9,-0.4 10.2,13.3 z"
       id="path1" />
    <polyline
       fill="#9b9b9a"
       points="50,39 53.4,48.1 60,56 12,56 16,49 18,37 25,18 29,22 33,25 37,33 42,33 50,39"
       id="polyline1" />
  </g>
  <g
     id="hair"
     transform="translate(-11,-17.000081)" />
  <g
     id="skin"
     transform="translate(-11,-17.000081)" />
  <g
     id="skin-shadow"
     transform="translate(-11,-17.000081)" />
  <g
     id="line"
     transform="translate(-11,-17.000081)">
    <polyline
       fill="none"
       stroke="#000000"
       stroke-linecap="round"
       stroke-linejoin="round"
       stroke-miterlimit="10"
       stroke-width="2"
       points="60,55 53.4,48.1 50,39"
       id="polyline2" />
    <polyline
       fill="none"
       stroke="#000000"
       stroke-linecap="round"
       stroke-linejoin="round"
       stroke-miterlimit="10"
       stroke-width="2"
       points="37,33 33,25 29,22 25,18 18,37 16,49 12,55"
       id="polyline3" />
    <polyline
       fill="none"
       stroke="#000000"
       stroke-linecap="round"
       stroke-linejoin="round"
       stroke-miterlimit="10"
       stroke-width="2"
       points="31,24 32,33 42,33 50,39 49,45 50,50 48,52 45,55"
       id="polyline4" />
    <polyline
       fill="none"
       stroke="#000000"
       stroke-linecap="round"
       stroke-linejoin="round"
       stroke-miterlimit="10"
       stroke-width="2"
       points="39,28 43,25 47,29 50,34"
       id="polyline5" />
  </g>
</svg>
