<?xml version="1.0" encoding="UTF-8" standalone="no"?>
<svg
   id="emoji"
   viewBox="0 0 40.013039 66"
   version="1.1"
   sodipodi:docname="26f3.svg"
   width="40.013039"
   height="66"
   xmlns:inkscape="http://www.inkscape.org/namespaces/inkscape"
   xmlns:sodipodi="http://sodipodi.sourceforge.net/DTD/sodipodi-0.dtd"
   xmlns="http://www.w3.org/2000/svg"
   xmlns:svg="http://www.w3.org/2000/svg">
  <defs
     id="defs10" />
  <sodipodi:namedview
     id="namedview10"
     pagecolor="#ffffff"
     bordercolor="#000000"
     borderopacity="0.25"
     inkscape:showpageshadow="2"
     inkscape:pageopacity="0.0"
     inkscape:pagecheckerboard="0"
     inkscape:deskcolor="#d1d1d1" />
  <g
     id="color"
     transform="translate(-15.99026,-3)">
    <path
       fill="#b1cc33"
       stroke="none"
       d="m 17.0033,68 c 0,-5.6246 -0.5417,-10.3318 8.1621,-11.6317 0.1915,2.5172 2.2717,3.5067 4.8379,3.5067 2.5662,0 4.6464,-0.9896 4.8379,-3.5067 8.7037,1.2999 8.4122,6.0071 8.4122,11.6317 z"
       id="path1" />
    <path
       fill="#5c9e31"
       stroke="none"
       d="m 24.4252,68 h 18.8293 c 0,-2.5777 0.097,-5.6094 -1.0543,-7.6507 0,6.609 -12.028,7.6507 -17.775,7.6507 z"
       id="path2" />
    <path
       fill="#d0cfce"
       stroke="none"
       d="M 32.0033,7.8785 V 5.7001 C 31.9095,4.0469 28.4877,3.5313 28.097,5.7813 l -0.0156,2.0973"
       id="path3" />
    <path
       fill="#d0cfce"
       stroke="none"
       d="m 27.1701,6.0755 v 53.3806 c 0,0 2.6005,0.9454 5.7165,0 V 6.0755"
       id="path4" />
    <path
       fill="#ea5a47"
       stroke="none"
       d="m 28.0033,10.8878 h 4 l 21.0625,4.9899 c 1.0231,0.2948 1.9375,0.8674 1.9375,1.9375 0,1.0701 -0.855,1.6071 -1.9375,1.9375 h 0.0013 l -21.0638,4.9902 -3.9987,0.0017 -0.0013,-6.9294 z"
       id="path5" />
    <path
       fill="#d22f27"
       stroke="none"
       d="m 55.0033,17.8152 c 0,1.0701 -0.855,1.6071 -1.9375,1.9375 h 0.0013 l -21.0638,4.9902 -3.9987,0.0017 -0.0013,-6.9294 z"
       id="path6" />
  </g>
  <g
     id="hair"
     transform="translate(-15.99026,-3)" />
  <g
     id="skin"
     transform="translate(-15.99026,-3)" />
  <g
     id="skin-shadow"
     transform="translate(-15.99026,-3)" />
  <g
     id="line"
     transform="translate(-15.99026,-3)">
    <path
       fill="none"
       stroke="#000000"
       stroke-linecap="round"
       stroke-linejoin="round"
       stroke-miterlimit="10"
       stroke-width="2"
       d="m 17.0033,68 c 0,-5.6246 -0.5417,-10.3318 8.1621,-11.6317 0.1915,2.5172 2.2717,3.5067 4.8379,3.5067 2.5662,0 4.6464,-0.9896 4.8379,-3.5067 8.7037,1.2999 8.4122,6.0071 8.4122,11.6317 z"
       id="path7" />
    <path
       fill="none"
       stroke="#000000"
       stroke-linecap="round"
       stroke-linejoin="round"
       stroke-miterlimit="10"
       stroke-width="2"
       d="M 32.0033,6.8824 V 6 c 0,-1.1 -0.9,-2 -2,-2 v 0 c -1.1,0 -2,0.9 -2,2 v 0.8824"
       id="path8" />
    <path
       fill="none"
       stroke="#000000"
       stroke-linecap="round"
       stroke-linejoin="round"
       stroke-miterlimit="10"
       stroke-width="2"
       d="m 28.0033,28.75 v 30.8832 c 0,0 1.8471,0.5469 4,0 V 28.75"
       id="path9" />
    <path
       fill="none"
       stroke="#000000"
       stroke-linecap="round"
       stroke-linejoin="round"
       stroke-miterlimit="10"
       stroke-width="2"
       d="m 28.0045,24.7409 3.9988,-0.0017 21.0638,-4.9902 h -0.0013 c 1.0825,-0.3304 1.9375,-0.8674 1.9375,-1.9375 0,-1.0701 -0.9144,-1.6427 -1.9375,-1.9375 L 32.0033,10.8841 h -4 z"
       id="path10" />
  </g>
</svg>
