<svg xmlns="http://www.w3.org/2000/svg" xmlns:svg="http://www.w3.org/2000/svg" id="emoji" width="64.02" height="52.076" version="1.1" viewBox="0 0 64.02 52.076"><g id="color" transform="translate(-4,-16.92395)"><path id="path1" fill="#92d3f5" d="m 39.5247,59.5143 a 16.3123,16.3123 0 0 0 3.7228,-0.2481 1.5488,1.5488 0 0 0 1.5,-1.5 1.5292,1.5292 0 0 0 -1.5,-1.5 7.3831,7.3831 0 0 0 -4.1107,0.9318 c -1.6938,0.9277 -0.1817,3.5192 1.5142,2.59 a 4.5086,4.5086 0 0 1 2.5965,-0.5222 v -3 a 16.3123,16.3123 0 0 1 -3.7228,0.2481 1.51,1.51 0 0 0 -1.5,1.5 1.5335,1.5335 0 0 0 1.5,1.5 z"/><path id="path2" fill="#92d3f5" stroke="#92d3f5" stroke-linecap="round" stroke-linejoin="round" stroke-width="2" d="m 66.0159,55.0026 c 0,0 -8.541,2.02 -11.44,1.9974 C 51.9112,56.98 46.7525,55.082 44.0888,55.0026 41.4251,54.9232 36.2642,56.9 33.6012,57 30.8912,57.1016 25.6324,55.0924 22.9212,55.0026 20.3055,54.916 15.2444,56.9883 12.627,57 10.6616,57.0088 5,55.0026 5,55.0026 V 68 L 67,67.5 V 55 Z"/><path id="path3" fill="#3f3f3f" stroke="#3f3f3f" stroke-miterlimit="10" d="m 67.5,43.5 v 24 L 45.313,67.3142 c 0,0 -3.7584,-19.794 -11.813,-22.814 -8,-3 20,2 34,-1 z"/><line id="line3" x1="33" x2="68" y1="42" y2="42" fill="none" stroke="#d22f27" stroke-miterlimit="10" stroke-width="3"/><rect id="rect3" width="3" height="5" x="53.5" y="19.5" fill="#3f3f3f" stroke="#3f3f3f" stroke-miterlimit="10" stroke-width="2"/><rect id="rect4" width="3" height="5" x="62" y="19" fill="#3f3f3f" stroke="#3f3f3f" stroke-miterlimit="10"/></g><g id="line" fill="none" stroke="#000" stroke-linecap="round" stroke-linejoin="round" transform="translate(-4,-16.92395)"><path id="path4" stroke-width="2.152" d="m 64.8,18 v 6.6 H 61.1 V 18 Z"/><path id="path5" stroke-width="2" d="m 56.8,18.9 v 5.7 h -3.7 v -5.7 z"/><line id="line5" x1="47" x2="65.4" y1="36.241" y2="36.241" stroke-width="2.904"/><path id="path6" stroke-width="2" d="m 32,44.4 c 0,0 10.4,6.8 12.7,22.2 a 1.0767,1.0767 0 0 0 1,0.8 H 67"/><path id="path7" stroke-width="2" d="M 67,40.6 H 33 l -1,3.3 h 35"/><path id="path8" stroke-width="2" d="M 65.6028,40.6 47.1205,40.5081 a 1.4694,1.4694 0 0 1 -0.9642,-0.2726 l -7.1359,-7.33 27.9993,0.1393"/><line id="line8" x1="46" x2="64.4" y1="28.662" y2="28.662" stroke-width="3"/><polyline id="polyline8" stroke-width="2" points="67 33 42 33 42 25 67 25"/><path id="path9" fill="none" stroke="#000" stroke-linecap="round" stroke-linejoin="round" stroke-miterlimit="10" stroke-width="2" d="m 5,55.003 c 1.5483,0.386 4.9902,0.94992 6.9719,0.94992 1.9817,0 5.8272,-2.0724 10.331,-2.2042 4.5038,-0.1318 7.0209,2.1243 10.207,2.4509 3.1857,0.32664 5.6912,-1.2372 7.6966,-1.2372"/></g></svg>