<svg xmlns="http://www.w3.org/2000/svg" xmlns:svg="http://www.w3.org/2000/svg" id="emoji" width="54.636" height="50.005" version="1.1" viewBox="0 0 54.636 50.005"><g id="color" transform="translate(-6.6920999,-10.833319)"><g id="g5"><path id="path1" fill="#fff" d="m 45.5635,53.4091 c 0,0 0.1371,1.3707 1.5992,1.4164 1.4621,0.0457 6.4881,-0.0914 6.4881,-0.0914 0,0 1.188,-0.3655 0.594,-1.4621 -0.594,-1.0966 -8.6813,0.1371 -8.6813,0.1371 z"/><path id="path2" fill="#fff" d="m 24.6826,50.759 c 0,0 -2.3759,2.6958 0.8224,3.4268 3.1983,0.731 10.8288,0.3198 10.8288,0.3198 0,0 0.7767,-1.3707 0.2741,-1.4164 -0.5026,-0.0457 -6.9451,-2.5587 -11.9254,-2.3302 z"/><path id="path3" fill="#d0cfce" stroke="#d0cfce" stroke-linecap="round" stroke-linejoin="round" stroke-width="2" d="m 58.439,49.9792 c -0.5974,0.6251 -1.3702,1.0545 -2.2165,1.2315 0.016,1.5921 -0.2583,5.0364 -2.95,5.0364 H 47.44 c -3.8651,0 -4.127,-3.195 -4.1035,-4.2935 -1.2174,0.0228 -2.4108,0.0176 -3.494,-0.0344 -0.1707,4.3151 -3.4828,4.3279 -3.4828,4.3279 H 25.8628 c -5.2485,0 -4.6654,-5.8318 -4.6654,-5.8318 0.1019,0.1018 -6.4149,0 -6.4149,0 1.2749,0.604 1.8189,2.1271 1.2149,3.402 -0.0155,0.0327 -0.0317,0.0651 -0.0485,0.0971 -1.5648,3.1296 -6.9981,2.9156 -6.9981,2.9156 0,0 -1.1664,0.5832 -1.1664,2.9159 h 44.3212 c 5.8318,0 6.7521,-1.5811 7.29,-2.2575 1.9085,-2.3997 0.0172,-5.9837 -0.9566,-7.5092 z"/><path id="path4" fill="#9b9b9a" stroke="#9b9b9a" stroke-linecap="round" stroke-linejoin="round" stroke-width="2" d="m 12.45,41.0845 1.1664,9.3308 h 9.3306 v -3.499 c 4.5827,1.793 9.2542,3.3501 13.9961,4.6654 3.6893,0.8709 12.83,0 15.1625,0 2.3325,0 6.9981,0 6.9981,-3.4991 0,0 -15.1625,1.1664 -19.8279,1.1664 -2.3327,0 -16.3288,-5.8318 -16.3288,-5.8318 z"/><path id="path5" fill="#92d3f5" d="m 48.6066,38.7518 c -2.8193,-0.5755 -5.3679,-2.0706 -7.2457,-4.2509 l -1.3452,1.6154 1.3452,-1.6154 c -1.1756,-1.2815 -2.2083,-2.687 -3.08,-4.1918 l -2.3216,1.7178 2.3216,-1.7178 c -0.9021,-1.5342 -1.6581,-3.1498 -2.2581,-4.8254 l -2.787,1.1973 2.787,-1.1973 c -0.088,-0.2495 -0.1734,-0.4966 -0.2458,-0.7281 -0.9735,-3.1112 -2.3327,-12.83 -2.3327,-12.83 l -18.6618,3.4993 c 0,0 1.1664,8.1644 0,12.83 -1.1664,4.6656 -3.499,8.1644 -2.3327,12.83 l 10.4971,2.3327 c 0,0 13.9962,5.8317 16.3289,5.8317 4.6654,0 19.8279,-1.1663 19.8279,-1.1663 0,-6.9985 -3.499,-8.1649 -10.4971,-9.3312 z"/></g></g><g id="line" transform="translate(-6.6920999,-10.833319)"><g id="g10"><path id="path6" fill="none" stroke="#000" stroke-linecap="round" stroke-linejoin="round" stroke-width="2.185" d="m 15.9489,53.9144 c -0.7488,1.2651 -1.9924,2.1595 -3.43,2.4669"/><path id="path7" fill="none" stroke="#000" stroke-linecap="round" stroke-linejoin="round" stroke-width="2.185" d="m 38.8657,54.9569 c -0.6168,0.763 -1.5263,1.2312 -2.5057,1.29 H 25.8628 c -1.7509,0.141 -3.3997,-0.8397 -4.1116,-2.4455"/><path id="path8" fill="none" stroke="#000" stroke-linecap="round" stroke-linejoin="round" stroke-width="2.185" d="m 48.6066,38.7518 c -2.8193,-0.5755 -5.3679,-2.0706 -7.2457,-4.2509 l -2.79,2.2189 2.79,-2.2189 c -1.1756,-1.2815 -2.2083,-2.687 -3.08,-4.1918 l -3.6509,1.6818 3.6506,-1.6818 c -0.9021,-1.5342 -1.6581,-3.1498 -2.2581,-4.8254 l -4.4137,0.99 4.4137,-0.99 c -0.088,-0.2495 -0.1734,-0.4966 -0.2458,-0.7281 -0.9735,-3.1112 -2.3327,-12.83 -2.3327,-12.83 l -18.6615,3.4993 c 0,0 1.1664,8.1644 0,12.83 -1.1664,4.6656 -3.499,8.1644 -2.3327,12.83 l 10.4971,2.3327 c 0,0 13.9962,5.8317 16.3289,5.8317 4.6654,0 19.8279,-1.1663 19.8279,-1.1663 0,-6.9985 -3.499,-8.1649 -10.4971,-9.3312 z"/><path id="path9" fill="none" stroke="#000" stroke-linecap="round" stroke-linejoin="round" stroke-width="2.185" d="m 55.757,54.3411 c -0.3069,1.1209 -1.3229,1.9001 -2.485,1.906 H 47.44 c -1.2206,0.0967 -2.4149,-0.3902 -3.22,-1.3127"/><path id="path10" fill="none" stroke="#000" stroke-linecap="round" stroke-linejoin="round" stroke-width="2.185" d="m 7.7844,59.7461 h 44.3212 c 5.8318,0 6.7521,-1.5811 7.29,-2.2575 0.8235,-1.1464 1.0581,-2.614 0.6329,-3.96 -0.05,-0.2081 -0.1083,-0.414 -0.1731,-0.6163"/><polyline id="polyline10" fill="none" stroke="#000" stroke-linecap="round" stroke-linejoin="round" stroke-width="2.185" points="13.043 45.576 13.634 50.306 22.965 50.306 22.965 47.754"/></g></g></svg>