<?xml version="1.0" encoding="UTF-8" standalone="no"?>
<svg
   id="emoji"
   viewBox="0 0 49.800323 51.9062"
   version="1.1"
   sodipodi:docname="26f9-1f3ff.svg"
   width="49.800323"
   height="51.9062"
   xmlns:inkscape="http://www.inkscape.org/namespaces/inkscape"
   xmlns:sodipodi="http://sodipodi.sourceforge.net/DTD/sodipodi-0.dtd"
   xmlns="http://www.w3.org/2000/svg"
   xmlns:svg="http://www.w3.org/2000/svg">
  <defs
     id="defs7" />
  <sodipodi:namedview
     id="namedview7"
     pagecolor="#ffffff"
     bordercolor="#000000"
     borderopacity="0.25"
     inkscape:showpageshadow="2"
     inkscape:pageopacity="0.0"
     inkscape:pagecheckerboard="0"
     inkscape:deskcolor="#d1d1d1" />
  <g
     id="color"
     transform="translate(-10.9688,-10.0938)">
    <circle
       cx="16.9688"
       cy="41.0938"
       r="5"
       fill="#ea5a47"
       stroke="none"
       id="circle1" />
  </g>
  <g
     id="hair"
     transform="translate(-10.9688,-10.0938)" />
  <g
     id="skin"
     transform="translate(-10.9688,-10.0938)">
    <circle
       cx="29.9688"
       cy="14.0938"
       r="3"
       fill="#6a462f"
       stroke="#6a462f"
       id="circle2" />
    <path
       fill="#6a462f"
       stroke="#6a462f"
       d="m 29.665,23.585 c 0,0 0.3038,3.708 3.3038,9.042 C 33.2129,33.0615 34,34.335 34,34.335 L 31,46 30.75,61 h 3.4238 L 36,49 39,43 45,38 V 34 L 39,23"
       id="path2" />
    <polyline
       fill="#6a462f"
       stroke="#6a462f"
       points="45,37 50,47 60.167,53 59.167,56 47,51 40,43"
       id="polyline2" />
    <path
       fill="#6a462f"
       stroke="#6a462f"
       d="M 39,23 C 37,19 34.6406,18.7671 32.9688,19.417 30.7148,20.293 30.0898,22.9971 31,25"
       id="path3" />
  </g>
  <g
     id="skin-shadow"
     transform="translate(-10.9688,-10.0938)" />
  <g
     id="line"
     transform="translate(-10.9688,-10.0938)">
    <circle
       cx="29.9688"
       cy="14.0938"
       r="3"
       fill="none"
       stroke="#000000"
       stroke-miterlimit="10"
       stroke-width="2"
       id="circle3" />
    <circle
       cx="16.9688"
       cy="41.0938"
       r="5"
       fill="none"
       stroke="#000000"
       stroke-miterlimit="10"
       stroke-width="2"
       id="circle4" />
    <path
       fill="none"
       stroke="#000000"
       stroke-linecap="round"
       stroke-linejoin="round"
       stroke-miterlimit="10"
       stroke-width="2"
       d="m 33.2676,31.4463 c 0,0 0.3896,0.7998 0.8662,1.7764 0.4766,0.9775 0.5586,2.623 0.1826,3.6572 l -2.6328,7.2402 C 31.3076,45.1543 30.9854,46.8994 30.9668,48 l -0.1836,11 c -0.0186,1.1006 0.7373,2 1.6787,2 0.9414,0 1.8477,-0.8896 2.0127,-1.9775 l 1.2246,-8.045 c 0.1651,-1.0879 0.7031,-2.7822 1.1953,-3.7666 l 1.211,-2.4218 c 0.4922,-0.9844 1.5859,-2.3653 2.4306,-3.0694 l 2.9278,-2.4394 C 44.3086,38.5762 45,37.0996 45,36 v 0 c 0,-1.0996 -0.4307,-2.79 -0.958,-3.7559 L 39,23"
       id="path4" />
    <path
       fill="none"
       stroke="#000000"
       stroke-linecap="round"
       stroke-linejoin="round"
       stroke-miterlimit="10"
       stroke-width="2"
       d="m 45,37 4.1055,8.2109 c 0.4922,0.9844 1.6699,2.2461 2.6172,2.8057 l 6.7216,3.9668 c 0.9473,0.5596 1.4981,1.6914 1.2227,2.5166 -0.2754,0.8252 -1.332,1.1582 -2.3496,0.7402 l -8.4678,-3.4804 c -1.0176,-0.418 -2.4424,-1.4375 -3.167,-2.2647 L 40,43"
       id="path5" />
    <path
       fill="none"
       stroke="#000000"
       stroke-linecap="round"
       stroke-linejoin="round"
       stroke-miterlimit="10"
       stroke-width="2"
       d="m 39,23 c -2,-4 -4.3594,-4.2329 -6.0312,-3.583 -1.1915,0.4629 -1.9278,1.437 -2.2227,2.5478"
       id="path6" />
    <path
       fill="none"
       stroke="#000000"
       stroke-linecap="round"
       stroke-linejoin="round"
       stroke-miterlimit="10"
       stroke-width="2"
       d="m 34,23 -3.0078,5.2637 c -0.5459,0.9551 -1.8701,1.9345 -2.9434,2.1758 L 21.125,32"
       id="path7" />
  </g>
</svg>
