<svg xmlns="http://www.w3.org/2000/svg" xmlns:svg="http://www.w3.org/2000/svg" id="emoji" width="44.616" height="50.126" version="1.1" viewBox="0 0 44.616 50.126"><g id="skin" transform="translate(-11.7399,-9.0461061)"><circle id="circle1" cx="27.107" cy="13.464" r="3" fill="#c19a65"/><path id="path1" fill="#c19a65" stroke="#c19a65" stroke-miterlimit="10" stroke-width="2" d="m 29.1183,23.7569 c 0.0938,0.385 0.237,0.928 0.4435,1.57 0,0 0.18,0.56 0.3549,1.02 0.5914,1.557 1.5083,1.9274 2.2425,3.5317 a 12.0038,12.0038 0 0 1 0.7549,2.9865 c 0.3046,1.5615 -0.0608,2.3043 -0.8454,4.1877 0,0 -0.3461,0.0921 -3.3226,7.1368 l -0.3146,12.8974 1.2141,0.8828 a 1.3746,1.3746 0 0 0 1.6716,-1.1348 l 1.495,-9.9662 2.86,-5.72 5.2629,-4.9217 0.1351,-3.22 Q 38.3711,27.545 35.6722,22.0829"/><path id="path2" fill="#c19a65" d="m 41.4064,35.2937 4.7663,9.5327 9.7234,5.72 -0.9533,2.86 L 43.3129,48.64 36.64,41.0133"/><path id="path3" fill="#c19a65" stroke="#c19a65" stroke-miterlimit="10" stroke-width="2" d="m 35.6868,21.9479 c -1.9066,-3.8131 -4.1944,-4.0037 -5.72,-3.4318 -2.1925,0.858 -1.0924,4.2249 -0.5357,6.3869"/></g><g id="color" transform="translate(-11.7399,-9.0461061)"><circle id="circle3" cx="17.507" cy="40.287" r="4.766" fill="#ea5a47"/></g><g id="line" transform="translate(-11.7399,-9.0461061)"><circle id="circle4" cx="17.506" cy="40.286" r="4.766" fill="none" stroke="#000" stroke-miterlimit="10" stroke-width="2"/><circle id="circle5" cx="27.247" cy="13.324" r="3" fill="none" stroke="#000" stroke-miterlimit="10" stroke-width="2"/><path id="path5" fill="none" stroke="#000" stroke-linecap="round" stroke-linejoin="round" stroke-width="2" d="m 31.8832,29.3167 c 0,0 0.3889,0.9819 0.6425,1.8741 a 6.9907,6.9907 0 0 1 -0.102,4.4318 c 0,0 -3.94,7.8464 -3.94,8.8949 l -0.5185,11.7482 a 1.7453,1.7453 0 0 0 1.62,1.9065 2.2158,2.2158 0 0 0 1.9066,-1.9065 l 1.3345,-9.5327 c 0.1907,-1.0486 3.6225,-6.2916 4.3851,-6.9589 l 2.7645,-2.2879 a 5.8093,5.8093 0 0 0 1.0381,-3.039 5.9848,5.9848 0 0 0 -0.48,-3.5262 l -4.8483,-8.9731"/><path id="path6" fill="none" stroke="#000" stroke-linecap="round" stroke-linejoin="round" stroke-width="2" d="m 41.0851,34.8743 c 0,0 3.6911,8.4479 4.8779,9.5336 1.2593,1.1521 8.217,5.1849 8.217,5.1849 a 2.2856,2.2856 0 0 1 1.1439,2.3831 1.5205,1.5205 0 0 1 -2.1925,0.6673 c 0,0 -10.1771,-4.7177 -11.1533,-5.5289 -1.0867,-0.9028 -4.7425,-6.36 -4.7425,-6.36"/><path id="path7" fill="none" stroke="#000" stroke-linecap="round" stroke-linejoin="round" stroke-width="2" d="m 35.6868,21.9479 c -1.9066,-3.8131 -4.2894,-4.0441 -5.8146,-3.4722 a 2.24,2.24 0 0 0 -1.17,1.9012"/><path id="path8" fill="none" stroke="#000" stroke-linecap="round" stroke-linejoin="round" stroke-width="2" d="m 30.9207,21.9484 c 0,0 -1.5142,6.3832 -1.7977,6.6967 -0.2415,0.2663 -7.2937,3.9028 -7.2937,3.9028"/><path id="path9" fill="none" stroke="#000" stroke-linecap="round" stroke-linejoin="round" stroke-width="2" d="m 30.2475,10.4518 c 0,0 0.4242,-0.5033 0.8732,-0.3851 0.5281,0.1382 1.3355,1.1982 2.0238,1.4995 a 3.3634,3.3634 0 0 0 2.1611,0.2154"/></g></svg>