<?xml version="1.0" encoding="UTF-8" standalone="no"?>
<svg
   id="emoji"
   viewBox="0 0 57 42"
   version="1.1"
   sodipodi:docname="26fd.svg"
   width="57"
   height="42"
   xmlns:inkscape="http://www.inkscape.org/namespaces/inkscape"
   xmlns:sodipodi="http://sodipodi.sourceforge.net/DTD/sodipodi-0.dtd"
   xmlns="http://www.w3.org/2000/svg"
   xmlns:svg="http://www.w3.org/2000/svg">
  <defs
     id="defs9" />
  <sodipodi:namedview
     id="namedview9"
     pagecolor="#ffffff"
     bordercolor="#000000"
     borderopacity="0.25"
     inkscape:showpageshadow="2"
     inkscape:pageopacity="0.0"
     inkscape:pagecheckerboard="0"
     inkscape:deskcolor="#d1d1d1" />
  <g
     id="color"
     transform="translate(-7,-15)">
    <rect
       x="15"
       y="16"
       width="20"
       height="40"
       fill="#d0cfce"
       stroke="none"
       stroke-linecap="round"
       stroke-linejoin="round"
       stroke-miterlimit="10"
       stroke-width="2"
       id="rect1" />
    <polyline
       fill="#ea5a47"
       stroke="none"
       stroke-linecap="round"
       stroke-linejoin="round"
       stroke-miterlimit="10"
       stroke-width="2"
       points="35,46 35,36 63,36 63,46"
       id="polyline1" />
    <polyline
       fill="#d0cfce"
       stroke="none"
       stroke-linecap="round"
       stroke-linejoin="round"
       stroke-miterlimit="10"
       stroke-width="2"
       points="63,46 63,56 35,56 35,46"
       id="polyline2" />
    <rect
       x="20"
       y="21"
       width="9"
       height="5"
       fill="#92d3f5"
       stroke="none"
       stroke-linecap="round"
       stroke-linejoin="round"
       stroke-miterlimit="10"
       stroke-width="2"
       id="rect2" />
    <rect
       x="35"
       y="18"
       width="17"
       height="10"
       fill="#d0cfce"
       stroke="none"
       stroke-linecap="round"
       stroke-linejoin="round"
       stroke-miterlimit="10"
       stroke-width="2"
       id="rect3" />
  </g>
  <g
     id="hair"
     transform="translate(-7,-15)" />
  <g
     id="skin"
     transform="translate(-7,-15)" />
  <g
     id="skin-shadow"
     transform="translate(-7,-15)" />
  <g
     id="line"
     transform="translate(-7,-15)">
    <rect
       x="15"
       y="16"
       width="20"
       height="40"
       fill="none"
       stroke="#000000"
       stroke-linecap="round"
       stroke-linejoin="round"
       stroke-miterlimit="10"
       stroke-width="2"
       id="rect4" />
    <polyline
       fill="none"
       stroke="#000000"
       stroke-linecap="round"
       stroke-linejoin="round"
       stroke-miterlimit="10"
       stroke-width="2"
       points="35,46 35,36 63,36 63,46"
       id="polyline4" />
    <polyline
       fill="none"
       stroke="#000000"
       stroke-linecap="round"
       stroke-linejoin="round"
       stroke-miterlimit="10"
       stroke-width="2"
       points="63,46 63,56 35,56 35,46"
       id="polyline5" />
    <rect
       x="20"
       y="21"
       width="9"
       height="5"
       fill="none"
       stroke="#000000"
       stroke-linecap="round"
       stroke-linejoin="round"
       stroke-miterlimit="10"
       stroke-width="2"
       id="rect5" />
    <rect
       x="35"
       y="18"
       width="17"
       height="10"
       fill="none"
       stroke="#000000"
       stroke-linecap="round"
       stroke-linejoin="round"
       stroke-miterlimit="10"
       stroke-width="2"
       id="rect6" />
    <line
       x1="41"
       x2="46"
       y1="21"
       y2="21"
       fill="none"
       stroke="#000000"
       stroke-linecap="round"
       stroke-linejoin="round"
       stroke-miterlimit="10"
       stroke-width="2"
       id="line6" />
    <line
       x1="41"
       x2="46"
       y1="24"
       y2="24"
       fill="none"
       stroke="#000000"
       stroke-linecap="round"
       stroke-linejoin="round"
       stroke-miterlimit="10"
       stroke-width="2"
       id="line7" />
    <polyline
       fill="none"
       stroke="#000000"
       stroke-linecap="round"
       stroke-linejoin="round"
       stroke-miterlimit="10"
       stroke-width="2"
       points="10,34 10,30 9,28"
       id="polyline7" />
    <path
       fill="#000000"
       stroke="none"
       d="M 8,37 V 33.96 C 8,33.432 8.45,33 9,33 h 2 c 0.55,0 1,0.432 1,0.96 V 37"
       id="path7" />
    <path
       fill="#000000"
       stroke="none"
       d="m 13,38 c 0,0.55 -0.3375,1 -0.75,1 H 7.75 C 7.3375,39 7,38.55 7,38 7,37.45 7.3375,37 7.75,37 h 4.5 c 0.4125,0 0.75,0.45 0.75,1 z"
       id="path8" />
    <path
       fill="none"
       stroke="#000000"
       stroke-linecap="round"
       stroke-linejoin="round"
       stroke-miterlimit="10"
       stroke-width="2"
       d="M 12,52 C 8,46 11,45 10,38"
       id="path9" />
  </g>
</svg>
