<svg xmlns="http://www.w3.org/2000/svg" xmlns:svg="http://www.w3.org/2000/svg" id="emoji" width="54.231" height="54.231" version="1.1" viewBox="0 0 54.231 54.231"><g id="color" transform="translate(-7.6408919,-10.561925)"><path id="path1" fill="#ea5a47" stroke="none" d="m 24.4876,52.1172 c -0.5439,2.6905 -0.4393,4.9935 0.3049,6.6602 2.0541,4.6004 7.4659,6.6766 12.0697,4.6202 2.2292,-0.9951 3.9378,-2.7983 4.8096,-5.0782 0.873,-2.2798 0.8058,-4.7633 -0.1893,-6.9926 -1.0976,-2.4583 -2.4708,-4.353 -5.0665,-5.1028 -0.3095,-0.0891 -0.0393,-1.1312 0.0839,-1.4273 l 0.8396,-2.8127 -7.5987,-2.5299 c -3.4214,7.729 -5.1046,11.9233 -5.2532,12.6631 z m 10.0328,-2.0056 c 1.2255,0.2796 2.2689,1.0194 2.9376,2.0835 0.6685,1.0642 0.8821,2.3254 0.6024,3.5509 -0.2797,1.2255 -1.0195,2.269 -2.0837,2.9376 -0.7596,0.4767 -1.6194,0.7224 -2.494,0.7224 -0.3518,0 -0.7059,-0.0397 -1.0568,-0.12 -1.2255,-0.2797 -2.2689,-1.0194 -2.9376,-2.0836 -0.6686,-1.0642 -0.8821,-2.3253 -0.6024,-3.5508 0.2796,-1.2256 1.0195,-2.269 2.0837,-2.9376 1.0658,-0.6687 2.3302,-0.8813 3.5508,-0.6024 z"/><path id="path2" fill="#d0cfce" stroke="none" d="M 37.0087,42.0773 49.1421,12.0325 c -2.1868,0.6951 -4.5552,1.2401 -6.5,3.2139 -2.4429,2.4793 -4.2251,6.3918 -4.2251,6.3918 0,0 -7.5842,16.5213 -7.9522,17.3439 -0.0134,0.03 6.5439,3.0952 6.5439,3.0952 z"/><path id="path3" fill="#9b9b9a" stroke="none" d="m 61.0114,24.5002 c 0,0 -15.2911,5.18 -14.8124,4.9513 -0.0013,-6e-4 -0.0027,-0.0042 -0.0039,-0.0047 l -3.9462,1.6485 -5.1362,12.9661 5.7091,-2.7443 0.0016,-0.0152 c -0.1026,0.034 9.4146,-5.6414 9.5884,-5.731 4.0244,-2.0782 7.0273,-6.1439 8.5996,-11.0707 z"/><path id="path4" fill="#d22f27" stroke="none" d="m 21.8327,32.8842 c -4.082,-1.8222 -10.3997,0.2072 -12.2219,4.2873 -1.8223,4.083 -0.1787,10.4317 3.9033,12.254 1.4775,0.6601 3.9424,1.0561 6.3301,0.5737 0.1025,-0.0205 3.3664,-0.2273 2.9776,0.0254 l 2.2852,-1.0631 c 1.1782,-2.9712 4.7164,-11.342 5.0059,-11.9878 l -2.738,1.3137 -0.0062,0.0115 c -0.0176,0.2838 -3.4774,-4.4947 -5.536,-5.4147 z m -0.2485,10.3505 c -0.6457,1.0277 -1.6534,1.7422 -2.837,2.0124 -0.3389,0.0775 -0.6777,0.115 -1.0118,0.115 -2.0731,0 -3.9503,-1.4297 -4.4298,-3.5339 -0.2709,-1.1836 -0.064,-2.4015 0.5818,-3.4293 0.6457,-1.0277 1.6535,-1.7422 2.837,-2.0123 1.182,-0.2701 2.4008,-0.0631 3.4293,0.5819 1.0277,0.6456 1.7422,1.6534 2.0123,2.837 0.2701,1.1835 0.0639,2.4015 -0.5818,3.4292 z"/></g><g id="line" transform="translate(-7.6408919,-10.561925)"><path id="path5" fill="none" stroke="#000" stroke-linecap="round" stroke-linejoin="round" stroke-miterlimit="10" stroke-width="2" d="m 29.5835,39.6214 c 3.0581,-6.8803 6.6525,-14.6439 7.7996,-16.8652 2.0717,-4.012 5.7336,-10.1903 12.5418,-11.1943 L 37.2636,42.1156"/><path id="path6" fill="none" stroke="#000" stroke-linecap="round" stroke-linejoin="round" stroke-miterlimit="10" stroke-width="2" d="m 41.4622,50.9758 c -1.1378,-2.5493 -3.3045,-4.3145 -5.7916,-5.0337 l 1.593,-3.8265 -7.6801,-2.4942 c -2.5052,5.6398 -4.8798,11.2159 -5.0918,12.2646 -0.3613,1.7873 -0.6165,4.374 0.3383,6.5134 2.0499,4.5928 7.435,6.6542 12.0278,4.6044 4.5929,-2.0499 6.6543,-7.4351 4.6044,-12.028 z m -3.5499,4.7362 c -0.5596,2.4517 -3.0009,3.9855 -5.4525,3.4258 -2.4517,-0.5597 -3.9856,-3.0008 -3.4259,-5.4525 0.5597,-2.4518 3.0009,-3.9856 5.4526,-3.4259 2.4517,0.5597 3.9855,3.0009 3.4258,5.4526 z"/><path id="path7" fill="none" stroke="#000" stroke-linecap="round" stroke-linejoin="round" stroke-miterlimit="10" stroke-width="2" d="m 26.3726,38.2375 c -0.7838,-2.3259 -2.4964,-4.3306 -4.9143,-5.4099 -4.5928,-2.0498 -9.9779,0.0115 -12.0279,4.6045 -2.0499,4.5928 0.0116,9.9778 4.6044,12.0277 2.1394,0.955 4.7261,0.6996 6.5134,0.3384 0.2928,-0.0592 0.8983,-0.2697 1.7418,-0.5971 M 18.749,45.256 c -2.4518,0.5597 -4.893,-0.9741 -5.4526,-3.4259 -0.5597,-2.4517 0.974,-4.8928 3.4258,-5.4525 2.4517,-0.5597 4.8929,0.974 5.4526,3.4257 0.5596,2.4518 -0.9741,4.893 -3.4258,5.4527 z"/><path id="path8" fill="none" stroke="#000" stroke-linecap="round" stroke-linejoin="round" stroke-miterlimit="10" stroke-width="2" d="M 46.6251,30.3466 60.8723,24.365 c -1.004,6.8082 -7.1823,10.4701 -11.1943,12.5418 -1.3118,0.6774 -3.3115,1.6931 -7.1655,3.463"/></g></svg>