<svg xmlns="http://www.w3.org/2000/svg" xmlns:svg="http://www.w3.org/2000/svg" id="emoji" width="39.808" height="41.971" version="1.1" viewBox="0 0 39.808 41.971"><g id="skin" transform="translate(-15.254506,-14.150123)"><path id="path1" fill="#c19a65" stroke="#c19a65" d="m 21.2413,36.1672 c -2.0638,-0.1527 -3.6226,-1.9342 -3.5,-4 v -7 c -0.2578,-1.933 1.1001,-3.709 3.0331,-3.9669 1.933,-0.2578 3.709,1.1001 3.9669,3.0331 0.0413,0.3099 0.0413,0.6239 0,0.9337 v 7 c 0.1227,2.0659 -1.4362,3.8474 -3.5,4.0001 z"/><path id="path2" fill="#c19a65" stroke="#c19a65" d="m 41.7566,38.9362 c -2.0638,-0.1527 -3.6226,-1.9342 -3.5,-4 v -15 c -0.2578,-1.933 1.1001,-3.709 3.0331,-3.9669 1.933,-0.2578 3.709,1.1001 3.9669,3.0331 0.0413,0.3099 0.0413,0.6239 0,0.9337 v 15 c 0.1226,2.0659 -1.4362,3.8474 -3.5,4.0001 z"/><path id="path3" fill="#c19a65" stroke="#c19a65" d="m 35.2055,38.9362 c -2.0638,-0.1527 -3.6226,-1.9342 -3.5,-4 v -15 c -0.2578,-1.933 1.1001,-3.709 3.0331,-3.9669 1.933,-0.2578 3.709,1.1001 3.9669,3.0331 0.0413,0.3099 0.0413,0.6239 0,0.9337 v 15 c 0.1226,2.0659 -1.4362,3.8474 -3.5,4.0001 z"/><path id="path4" fill="#c19a65" stroke="#c19a65" d="m 27.5528,40.1672 c -2.0638,-0.1527 -3.6226,-1.9342 -3.5,-4 v -15 c -0.2578,-1.933 1.1001,-3.709 3.0331,-3.9669 1.933,-0.2578 3.709,1.1001 3.9669,3.0331 0.0413,0.3099 0.0413,0.6239 0,0.9337 v 15 c 0.1226,2.0659 -1.4362,3.8474 -3.5,4.0001 z"/><path id="path5" fill="#c19a65" stroke="#c19a65" d="m 20.0368,41.1694 c -2.0638,-0.1527 -3.6226,-1.9342 -3.5,-4 v -15 c -0.2578,-1.933 1.1001,-3.709 3.0331,-3.9669 1.933,-0.2578 3.709,1.1001 3.9669,3.0331 0.0413,0.3099 0.0413,0.6239 0,0.9337 v 15 c 0.1226,2.0659 -1.4362,3.8474 -3.5,4.0001 z"/><path id="path6" fill="#c19a65" stroke="#c19a65" d="m 31.9818,16.3328 c -0.2578,-1.933 2.7585,-0.1838 6.218,0.4567 2.3329,0.4319 4.5808,-3.02 4.8386,-1.087 -0.2372,0.8694 3.7325,-2.5368 3.1508,7.8034"/><line id="line6" x1="44.212" x2="44.178" y1="20.053" y2="20.695" fill="#c19a65" stroke="#c19a65"/><path id="path7" fill="#c19a65" stroke="#c19a65" d="m 15.7504,36.1672 c 1.1419,8.8555 10.7801,19.5839 19.4548,19.4524 9.667,0 19.3573,-8.7184 19.3573,-19.0617 v 0 L 53.6343,26.0234 c 0,-5.1523 -14.0999,-4.1388 -16.301,-4.0927 L 16,29.4275"/></g><g id="line" transform="translate(-15.254506,-14.150123)"><path id="path8" fill="none" stroke="#000" stroke-linecap="round" stroke-linejoin="round" stroke-width="2" d="m 43.7413,34.9892 v -2.333 c 0,-1.1 -1.789,-2.2 -3.976,-2.441 l -1.049,-0.117 c -2.187,-0.242 -3.976,-1.851 -3.976,-3.774 0,-1.923 1.8,-3.334 4,-3.334 h 10 c 2.2011,-0.0448 4.0567,1.6316 4.235,3.826 l 0.657,11.213"/><path id="path9" fill="none" stroke="#000" stroke-linecap="round" stroke-linejoin="round" stroke-width="2" d="m 37.9633,38.0552 c 1.6302,-1.4796 3.6236,-2.5003 5.777,-2.958"/><path id="path10" fill="none" stroke="#000" stroke-linecap="round" stroke-miterlimit="10" stroke-width="2" d="m 16.7761,39.479 c 1.1988,9.0291 8.9653,15.7322 18.0727,15.5981 10.1492,0 18.7855,-7.1738 18.7855,-17.7199"/><line id="line10" x1="16.776" x2="16.776" y1="39.479" y2="35.958" fill="none" stroke="#000" stroke-linecap="round" stroke-linejoin="round" stroke-width="2"/><path id="path11" fill="none" stroke="#000" stroke-linecap="round" stroke-linejoin="round" stroke-width="2" d="m 20.3076,32.9647 c -2.0638,-0.1527 -3.6226,-1.9342 -3.5,-4 v -7 c -0.2578,-1.933 1.1001,-3.709 3.0331,-3.9669 1.933,-0.2578 3.709,1.1001 3.9669,3.0331 0.0413,0.3099 0.0413,0.6239 0,0.9337 v 7 c 0.1226,2.0659 -1.4362,3.8474 -3.5,4.0001 z"/><path id="path12" fill="none" stroke="#000" stroke-linecap="round" stroke-linejoin="round" stroke-width="2" d="m 28.7444,31.8273 c -3.322,1.2271 -4.997,-1.9342 -4.8744,-4 v -7 c -0.2578,-1.933 1.1001,-3.709 3.0331,-3.9669 1.933,-0.2578 3.709,1.1001 3.9669,3.0331 0.0413,0.3099 0.0413,0.6239 0,0.9337"/><path id="path13" fill="none" stroke="#000" stroke-linecap="round" stroke-linejoin="round" stroke-width="2" d="M 30.9324,24.4656 V 19.148 c -0.2578,-1.933 1.1001,-3.709 3.0331,-3.9669 1.933,-0.2578 3.709,1.1001 3.9669,3.0331 0.0413,0.3099 0.0413,0.6239 0,0.9337"/><path id="path14" fill="none" stroke="#000" stroke-linecap="round" stroke-linejoin="round" stroke-width="2" d="m 37.9948,19.148 c -0.2578,-1.933 1.1001,-3.709 3.0331,-3.9669 1.933,-0.2578 3.709,1.1001 3.9669,3.0331 0.0413,0.3099 0.0413,0.6239 0,0.9337"/></g></svg>