<?xml version="1.0" encoding="UTF-8" standalone="no"?>
<svg
   id="emoji"
   viewBox="0 0 57.844872 60.635574"
   version="1.1"
   sodipodi:docname="270d-1f3fc.svg"
   width="57.844872"
   height="60.635574"
   xmlns:inkscape="http://www.inkscape.org/namespaces/inkscape"
   xmlns:sodipodi="http://sodipodi.sourceforge.net/DTD/sodipodi-0.dtd"
   xmlns="http://www.w3.org/2000/svg"
   xmlns:svg="http://www.w3.org/2000/svg">
  <defs
     id="defs16" />
  <sodipodi:namedview
     id="namedview16"
     pagecolor="#ffffff"
     bordercolor="#000000"
     borderopacity="0.25"
     inkscape:showpageshadow="2"
     inkscape:pageopacity="0.0"
     inkscape:pagecheckerboard="0"
     inkscape:deskcolor="#d1d1d1" />
  <g
     id="color"
     transform="translate(-7.7398033,-5.2368382)">
    <polyline
       fill="#3f3f3f"
       points="26.2964,36.76 45.9,6.2368 50.2011,9.0841 34.088,35.1123"
       id="polyline1" />
    <polyline
       fill="#3f3f3f"
       points="18.943,53.7111 15.5519,58.5351 9.7396,62.8728 11.7478,55.8081 15.5519,50.2713"
       id="polyline2" />
  </g>
  <g
     id="hair"
     transform="translate(-7.7398033,-5.2368382)" />
  <g
     id="skin"
     transform="translate(-7.7398033,-5.2368382)">
    <path
       fill="#debb90"
       d="M 12.5112,54.6969 C 11.3291,53.3518 10.177,51.6513 10.267,50.6849 l 2.6885,-18.4595 c 0,-0.8427 0.1873,-1.5918 1.0708,-2.0703 l 16.3478,-8.2712 c 0.5202,-0.2526 -1.2442,-2.812 4.2487,-0.4575"
       id="path2" />
    <path
       fill="#debb90"
       d="m 20.5423,40.4964 0.659,-3.9539 C 21.2682,36 21.8077,35.1916 22.2002,35.0334 l 2.1077,-0.8445"
       id="path3" />
    <path
       fill="#debb90"
       d="m 21.943,53.1389 c 2.3774,7.0276 10.894,6.7402 5.0421,-2.1684"
       id="path4" />
    <path
       fill="#debb90"
       d="m 23.4274,51.9706 c 4.8738,8.5664 15.5709,8.7109 6.3068,-4.2992"
       id="path5" />
    <path
       fill="#debb90"
       d="m 28.1211,49.2805 c 13.3104,17.7473 14.1027,4.4061 5.0706,-1.307"
       id="path6" />
    <path
       fill="#debb90"
       d="M 56.7973,52.2387 C 43.7496,55.0266 41.837,48.8271 35.5827,47.8866 30.4957,46.8321 24.7938,50.1376 22.8431,51.7479 18.3995,56.0312 12.5802,50.1767 18.0789,46.059 l 7.2546,-6.7291 8.2677,-3.938 7.8137,-10.3699 18.6391,10.0114 c 5.6531,5.6531 5.6531,14.8187 0,20.4719 C 55.5271,56 47.5057,59.6859 36.5,58.1731"
       id="path7" />
    <polygon
       fill="#debb90"
       points="25.1355,35.4801 26.0625,36.581 34.088,35.1123 40.7208,23.534 44.2882,25.4333 38.1318,42.8737 16.516,42.8737 "
       id="polygon7" />
    <rect
       x="32.058998"
       y="45.907001"
       width="21.480801"
       height="11.2677"
       fill="#debb90"
       id="rect7" />
  </g>
  <g
     id="skin-shadow"
     transform="translate(-7.7398033,-5.2368382)" />
  <g
     id="line"
     transform="translate(-7.7398033,-5.2368382)">
    <path
       fill="none"
       stroke="#000000"
       stroke-linecap="round"
       stroke-linejoin="round"
       stroke-miterlimit="10"
       stroke-width="2"
       d="m 10.6323,52.6212 2.3232,-20.3958 c 0,-0.8427 0.1873,-1.5918 1.0708,-2.0703 l 17.1784,-8.7194"
       id="path8" />
    <path
       fill="none"
       stroke="#000000"
       stroke-linecap="round"
       stroke-linejoin="round"
       stroke-miterlimit="10"
       stroke-width="2"
       d="m 19.5423,39.4964 0.659,-3.9539 C 20.2682,35 20.8077,34.1916 21.2002,34.0334 l 2.1077,-0.8445"
       id="path9" />
    <polyline
       fill="none"
       stroke="#000000"
       stroke-linecap="round"
       stroke-linejoin="round"
       stroke-miterlimit="10"
       stroke-width="2"
       points="26.0625,35.7879 45.9,6.2368 50.2011,9.0841 33.7304,34.1889"
       id="polyline9" />
    <polyline
       fill="none"
       stroke="#000000"
       stroke-linecap="round"
       stroke-linejoin="round"
       stroke-miterlimit="10"
       stroke-width="2"
       points="15.5519,56.7748 13.5163,59.5388 8.7396,64.8728 11.4942,58 13.534,54.9614"
       id="polyline10" />
    <path
       fill="none"
       stroke="#000000"
       stroke-linecap="round"
       stroke-linejoin="round"
       stroke-miterlimit="10"
       stroke-width="2"
       d="m 43.7044,26.2517 c 0,0 12.6258,6.0141 16.3497,8.7817 6.4166,4.769 5.6531,14.8187 0,20.4719 -4.527,0.4947 -8.1479,2.0335 -18.2172,2.0335"
       id="path10" />
    <path
       fill="none"
       stroke="#000000"
       stroke-linecap="round"
       stroke-linejoin="round"
       stroke-width="2"
       d="m 29.078,55.9386 c 0.6067,3.2292 -4.422,4.7876 -5.0939,0.133"
       id="path11" />
    <path
       fill="none"
       stroke="#000000"
       stroke-linecap="round"
       stroke-linejoin="round"
       stroke-width="2"
       d="M 34.0112,55.7907 C 34.65,59.0049 29.724,59.9234 29.078,55.9385"
       id="path12" />
    <path
       fill="none"
       stroke="#000000"
       stroke-linecap="round"
       stroke-linejoin="round"
       stroke-width="2"
       d="m 39.0495,55.3947 c 0.6599,3.2167 -4.3629,3.6515 -5.0383,0.396"
       id="path13" />
    <line
       x1="39.0495"
       x2="38.456001"
       y1="55.394699"
       y2="52.6134"
       fill="none"
       stroke="#000000"
       stroke-linecap="round"
       stroke-linejoin="round"
       stroke-miterlimit="10"
       stroke-width="2"
       id="line13" />
    <line
       x1="34.0112"
       x2="33.009102"
       y1="55.790699"
       y2="51.234402"
       fill="none"
       stroke="#000000"
       stroke-linecap="round"
       stroke-linejoin="round"
       stroke-miterlimit="10"
       stroke-width="2"
       id="line14" />
    <line
       x1="29.077999"
       x2="28.4548"
       y1="55.938599"
       y2="52.861698"
       fill="none"
       stroke="#000000"
       stroke-linecap="round"
       stroke-linejoin="round"
       stroke-miterlimit="10"
       stroke-width="2"
       id="line15" />
    <line
       x1="23.9842"
       x2="23.8906"
       y1="56.071499"
       y2="55.394699"
       fill="none"
       stroke="#000000"
       stroke-linecap="round"
       stroke-linejoin="round"
       stroke-miterlimit="10"
       stroke-width="2"
       id="line16" />
    <path
       fill="none"
       stroke="#000000"
       stroke-linecap="round"
       stroke-linejoin="round"
       stroke-miterlimit="10"
       stroke-width="2"
       d="M 56.7973,52.2387 C 43.7496,55.0266 41.837,48.8271 35.5827,47.8866 c -5.087,-1.0545 -10.7889,2.251 -12.7396,3.8613 -4.4436,4.2833 -10.2629,-1.5712 -4.7642,-5.6889 0,0 5.0087,-4.6922 7.2546,-5.7291 2.183,-1.0079 9.5516,-2.1251 9.5516,-2.1251"
       id="path16" />
  </g>
</svg>
