<?xml version="1.0" encoding="UTF-8" standalone="no"?>
<svg
   id="emoji"
   viewBox="0 0 50.830891 50.830788"
   version="1.1"
   sodipodi:docname="270f.svg"
   width="50.830891"
   height="50.830788"
   xmlns:inkscape="http://www.inkscape.org/namespaces/inkscape"
   xmlns:sodipodi="http://sodipodi.sourceforge.net/DTD/sodipodi-0.dtd"
   xmlns="http://www.w3.org/2000/svg"
   xmlns:svg="http://www.w3.org/2000/svg">
  <defs
     id="defs6" />
  <sodipodi:namedview
     id="namedview6"
     pagecolor="#ffffff"
     bordercolor="#000000"
     borderopacity="0.25"
     inkscape:showpageshadow="2"
     inkscape:pageopacity="0.0"
     inkscape:pagecheckerboard="0"
     inkscape:deskcolor="#d1d1d1" />
  <g
     id="color"
     transform="translate(-10.907369,-9.4839414)">
    <polygon
       fill="#3f3f3f"
       stroke="none"
       points="12.6242,59.0928 14.5943,53.154 18.2544,56.814 "
       id="polygon1" />
    <polyline
       fill="#f4aa41"
       stroke="none"
       points="18.0381,41.8761 36.8684,23.0457 48.1813,34.3586 29.5108,53.0291"
       id="polyline1" />
    <polyline
       fill="#a57939"
       stroke="none"
       points="14.4132,52.5663 17.9281,43.3946 27.8278,53.2939 18.6558,56.809"
       id="polyline2" />
    <polyline
       fill="#ea5a47"
       stroke="none"
       points="42.9209,16.9933 50.4228,9.4913 61.7357,20.8042 54.2975,28.2424"
       id="polyline3" />
    <polyline
       fill="#9b9b9a"
       stroke="none"
       points="35.6498,24.2643 43.3318,16.5823 54.6447,27.8952 47.0278,35.512"
       id="polyline4" />
  </g>
  <g
     id="hair"
     transform="translate(-10.907369,-9.4839414)" />
  <g
     id="skin"
     transform="translate(-10.907369,-9.4839414)" />
  <g
     id="skin-shadow"
     transform="translate(-10.907369,-9.4839414)" />
  <g
     id="line"
     transform="translate(-10.907369,-9.4839414)">
    <polygon
       fill="none"
       stroke="#000000"
       stroke-linecap="round"
       stroke-linejoin="round"
       stroke-miterlimit="10"
       stroke-width="2"
       points="53.8207,27.301 43.9212,17.4015 17.9281,43.3946 14.3904,52.6032 18.6304,56.8203 27.8278,53.2939 "
       id="polygon4" />
    <polyline
       fill="none"
       stroke="#000000"
       stroke-linecap="round"
       stroke-linejoin="round"
       stroke-miterlimit="10"
       stroke-width="2"
       points="47.3354,13.9873 50.8388,10.4839 60.7383,20.3834 57.2645,23.8572"
       id="polyline5" />
    <line
       x1="18.5562"
       x2="28.4557"
       y1="42.766499"
       y2="52.665901"
       fill="none"
       stroke="#000000"
       stroke-linecap="round"
       stroke-linejoin="round"
       stroke-miterlimit="10"
       stroke-width="2"
       id="line5" />
    <polyline
       fill="none"
       stroke="#000000"
       stroke-linecap="round"
       stroke-linejoin="round"
       stroke-miterlimit="10"
       stroke-width="2"
       points="14.3979,52.5817 11.9073,59.3148 18.6558,56.809"
       id="polyline6" />
    <line
       x1="36.909901"
       x2="46.422501"
       y1="25.007299"
       y2="34.519901"
       fill="none"
       stroke="#000000"
       stroke-linecap="round"
       stroke-linejoin="round"
       stroke-miterlimit="10"
       stroke-width="2"
       id="line6" />
  </g>
</svg>
