<svg xmlns="http://www.w3.org/2000/svg" xmlns:svg="http://www.w3.org/2000/svg" id="emoji" width="48.565" height="48.566" version="1.1" viewBox="0 0 48.565 48.566"><g id="color" transform="translate(-14.1,-9.28)"><path id="path1" fill="#3f3f3f" d="m 50.8751,34.0285 a 2.7147,2.7147 0 0 1 -1.9317,-0.8 v 0 L 38.7169,23.0021 a 2.7308,2.7308 0 0 1 9e-4,-3.8628 l 9.5557,-9.5566 a 1.0168,1.0168 0 0 1 1.3965,0 L 62.3634,22.276 a 0.988,0.988 0 0 1 0,1.3955 l -9.5567,9.5571 a 2.714,2.714 0 0 1 -1.9316,0.7999 z"/><path id="path2" fill="#fcea2b" d="m 48.1407,35.0242 a 1.8386,1.8386 0 0 1 -1.2992,-0.54 v 0 L 37.48,25.1205 a 1.8007,1.8007 0 0 1 -0.03,-2.5431 l 1.1156,-1.1156 a 1.0078,1.0078 0 0 1 1.4266,0 l 10.51,10.51 a 1.0087,1.0087 0 0 1 0,1.426 l -1.1166,1.1152 a 1.7548,1.7548 0 0 1 -1.2449,0.5112 z m 0.1264,-1.9679 9e-4,0.0015 v -5e-4 z"/><path id="path3" fill="#d0cfce" d="m 14.5049,57.4578 a 0.934,0.934 0 0 1 0,-1.3217 c 5.6313,-5.6313 5.0519,-22.5735 5.0457,-22.7441 a 0.9344,0.9344 0 0 1 0.7119,-0.9439 C 20.3889,32.417 32.9373,29.3137 38.07,24.181 a 0.9343,0.9343 0 0 1 1.3217,0 l 8.3907,8.3907 a 0.9342,0.9342 0 0 1 0,1.3216 C 42.65,39.0261 39.5457,51.5738 39.5146,51.7 a 0.9345,0.9345 0 0 1 -0.9439,0.712 C 38.4001,52.4058 21.453,51.8313 15.8266,57.4577 a 0.934,0.934 0 0 1 -1.3217,10e-5 z"/><circle id="circle3" cx="36.07" cy="35.876" r="3" fill="#fff"/></g><g id="line" transform="translate(-14.1,-9.28)"><path id="path4" fill="none" stroke="#000" stroke-linecap="round" stroke-linejoin="round" stroke-width="1.869" d="m 15.1,56.8458 c 5.9849,-5.9849 5.3187,-23.441 5.3187,-23.441 0,0 10.0435,-2.446 16.0946,-6.7283"/><path id="path5" fill="none" stroke="#000" stroke-linecap="round" stroke-linejoin="round" stroke-width="1.869" d="m 15.1,56.8458 c 5.9849,-5.9849 23.441,-5.3187 23.441,-5.3187 0,0 2.446,-10.0435 6.7283,-16.0946"/><circle id="circle5" cx="36.07" cy="35.876" r="3" fill="none" stroke="#000" stroke-linecap="round" stroke-linejoin="round" stroke-width="1.974"/><line id="line5" x1="15.1" x2="33.951" y1="56.846" y2="37.995" fill="none" stroke="#000" stroke-linecap="round" stroke-linejoin="round" stroke-width="2"/><path id="path6" fill="none" stroke="#000" stroke-linecap="round" stroke-linejoin="round" stroke-width="2" d="m 48.9721,10.28 -9.5573,9.5573 a 1.7446,1.7446 0 0 0 -0.155,2.29 l -1.1337,1.1307 a 0.7948,0.7948 0 0 0 0.03,1.123 l 9.4089,9.409 a 0.7948,0.7948 0 0 0 1.123,0.03 l 1.1291,-1.1349 a 1.7446,1.7446 0 0 0 2.2911,-0.1539 l 9.5573,-9.5572"/></g></svg>