<svg xmlns="http://www.w3.org/2000/svg" xmlns:svg="http://www.w3.org/2000/svg" id="emoji" width="52.003" height="52.003" version="1.1" viewBox="0 0 52.003 52.003"><g id="line-supplement" transform="translate(-9.9983542,-9.9566542)"><path id="path1" fill="none" stroke="#000" stroke-linecap="round" stroke-linejoin="round" stroke-width="2" d="m 35.1062,18.8152 c 0,0 -0.7537,16.3242 -16.1286,16.37 a 0.6482,0.6482 0 1 0 0,1.2963 h 0.0046 c 0,0 16.3242,1.0989 16.37,16.4738 l -5e-4,0.1462 a 0.6482,0.6482 0 0 0 1.2963,0 c 0.0457,-15.375 16.37,-16.62 16.37,-16.62 h 0.0046 a 0.6482,0.6482 0 1 0 0,-1.2963 c -15.3749,-0.0457 -16.62,-16.37 -16.62,-16.37 a 0.6482,0.6482 0 0 0 -1.2963,0 z"/></g><g id="color" transform="translate(-9.9983542,-9.9566542)"><path id="path2" fill="#5c9e31" d="M 60,61 H 12 A 0.9448,0.9448 0 0 1 11,60 V 12 a 0.9448,0.9448 0 0 1 1,-1 h 48 a 0.9448,0.9448 0 0 1 1,1 v 48 a 0.9448,0.9448 0 0 1 -1,1 z"/><path id="path3" fill="#fff" stroke="#fff" stroke-linecap="round" stroke-linejoin="round" stroke-width="2" d="m 35.1062,18.8569 c 0,0 -0.7537,16.3242 -16.1286,16.37 a 0.6482,0.6482 0 1 0 0,1.2963 h 0.0046 c 0,0 16.3242,1.0989 16.37,16.4738 l -5e-4,0.1462 a 0.6482,0.6482 0 0 0 1.2963,0 c 0.0457,-15.375 16.37,-16.62 16.37,-16.62 h 0.0046 a 0.6482,0.6482 0 1 0 0,-1.2963 c -15.3749,-0.0457 -16.62,-16.37 -16.62,-16.37 a 0.6482,0.6482 0 0 0 -1.2963,0 z"/></g><g id="line" transform="translate(-9.9983542,-9.9566542)"><path id="path4" fill="none" stroke="#000" stroke-linecap="round" stroke-linejoin="round" stroke-width="2" d="M 60,60.9583 H 12 a 0.9448,0.9448 0 0 1 -1,-1 v -48 a 0.9448,0.9448 0 0 1 1,-1 h 48 a 0.9448,0.9448 0 0 1 1,1 v 48 a 0.9448,0.9448 0 0 1 -1,1 z"/></g></svg>