<svg xmlns="http://www.w3.org/2000/svg" xmlns:svg="http://www.w3.org/2000/svg" id="emoji" width="50" height="50" version="1.1" viewBox="0 0 50 50"><g id="color" transform="translate(-11,-11.1661)"><path id="path1" fill="#b1cc33" stroke="none" d="M 59.04,60.1661 H 12.96 c -0.5302,0 -0.96,-0.4298 -0.96,-0.96 v -46.08 c 0,-0.5302 0.4298,-0.96 0.96,-0.96 h 46.08 c 0.5302,0 0.96,0.4298 0.96,0.96 v 46.08 c 0,0.5302 -0.4298,0.96 -0.96,0.96 z"/><polygon id="polygon1" fill="#d0cfce" stroke="none" points="53.979 24.243 47.299 17.447 38.633 26.263 36.275 28.66 35.97 28.966 24.709 17.509 18.029 24.305 29.095 35.563 29.288 35.758 26.639 38.449 17.232 48.019 23.912 54.815 33.321 45.243 35.74 42.785 35.966 42.553 48.088 54.885 54.768 48.089 42.651 35.762 42.837 35.575 45.318 33.054"/></g><g id="line" transform="translate(-11,-11.1661)"><path id="path2" fill="none" stroke="#000" stroke-linecap="round" stroke-linejoin="round" stroke-miterlimit="10" stroke-width="2" d="M 59.04,60.1661 H 12.96 c -0.5302,0 -0.96,-0.4298 -0.96,-0.96 v -46.08 c 0,-0.5302 0.4298,-0.96 0.96,-0.96 h 46.08 c 0.5302,0 0.96,0.4298 0.96,0.96 v 46.08 c 0,0.5302 -0.4298,0.96 -0.96,0.96 z"/><polygon id="polygon2" fill="none" stroke="#000" stroke-linecap="round" stroke-linejoin="round" stroke-miterlimit="10" stroke-width="2" points="53.979 24.243 47.299 17.447 38.633 26.263 36.275 28.66 35.97 28.966 24.709 17.509 18.029 24.305 29.095 35.563 29.288 35.758 26.639 38.449 17.232 48.019 23.912 54.815 33.321 45.243 35.74 42.785 35.966 42.553 48.088 54.885 54.768 48.089 42.651 35.762 42.837 35.575 45.318 33.054"/></g></svg>