<?xml version="1.0" encoding="UTF-8" standalone="no"?>
<svg
   id="emoji"
   viewBox="0 0 50 50"
   version="1.1"
   sodipodi:docname="274e.svg"
   width="50"
   height="50"
   xmlns:inkscape="http://www.inkscape.org/namespaces/inkscape"
   xmlns:sodipodi="http://sodipodi.sourceforge.net/DTD/sodipodi-0.dtd"
   xmlns="http://www.w3.org/2000/svg"
   xmlns:svg="http://www.w3.org/2000/svg">
  <defs
     id="defs2" />
  <sodipodi:namedview
     id="namedview2"
     pagecolor="#ffffff"
     bordercolor="#000000"
     borderopacity="0.25"
     inkscape:showpageshadow="2"
     inkscape:pageopacity="0.0"
     inkscape:pagecheckerboard="0"
     inkscape:deskcolor="#d1d1d1" />
  <g
     id="color"
     transform="translate(-11,-11.1661)">
    <path
       fill="#b1cc33"
       stroke="none"
       d="M 59.04,60.1661 H 12.96 c -0.5302,0 -0.96,-0.4298 -0.96,-0.96 v -46.08 c 0,-0.5302 0.4298,-0.96 0.96,-0.96 h 46.08 c 0.5302,0 0.96,0.4298 0.96,0.96 v 46.08 c 0,0.5302 -0.4298,0.96 -0.96,0.96 z"
       id="path1" />
    <polygon
       fill="#d0cfce"
       stroke="none"
       points="53.9787,24.2428 47.299,17.4473 38.6332,26.2634 36.2747,28.6596 35.9704,28.9662 24.7089,17.5094 18.0292,24.305 29.0954,35.563 29.2876,35.7585 26.6393,38.4493 17.2324,48.0192 23.9121,54.8147 33.3207,45.243 35.7397,42.7853 35.9659,42.5527 48.0879,54.8849 54.7676,48.0894 42.6507,35.7624 42.8365,35.5749 45.318,33.0537 "
       id="polygon1" />
  </g>
  <g
     id="hair"
     transform="translate(-11,-11.1661)" />
  <g
     id="skin"
     transform="translate(-11,-11.1661)" />
  <g
     id="skin-shadow"
     transform="translate(-11,-11.1661)" />
  <g
     id="line"
     transform="translate(-11,-11.1661)">
    <path
       fill="none"
       stroke="#000000"
       stroke-linecap="round"
       stroke-linejoin="round"
       stroke-miterlimit="10"
       stroke-width="2"
       d="M 59.04,60.1661 H 12.96 c -0.5302,0 -0.96,-0.4298 -0.96,-0.96 v -46.08 c 0,-0.5302 0.4298,-0.96 0.96,-0.96 h 46.08 c 0.5302,0 0.96,0.4298 0.96,0.96 v 46.08 c 0,0.5302 -0.4298,0.96 -0.96,0.96 z"
       id="path2" />
    <polygon
       fill="none"
       stroke="#000000"
       stroke-linecap="round"
       stroke-linejoin="round"
       stroke-miterlimit="10"
       stroke-width="2"
       points="53.9787,24.2428 47.299,17.4473 38.6332,26.2634 36.2747,28.6596 35.9704,28.9662 24.7089,17.5094 18.0292,24.305 29.0954,35.563 29.2876,35.7585 26.6393,38.4493 17.2324,48.0192 23.9121,54.8147 33.3207,45.243 35.7397,42.7853 35.9659,42.5527 48.0879,54.8849 54.7676,48.0894 42.6507,35.7624 42.8365,35.5749 45.318,33.0537 "
       id="polygon2" />
  </g>
</svg>
