<?xml version="1.0" encoding="UTF-8" standalone="no"?>
<svg
   id="emoji"
   viewBox="0 0 8 54.678299"
   version="1.1"
   sodipodi:docname="2755.svg"
   width="8"
   height="54.678299"
   xmlns:inkscape="http://www.inkscape.org/namespaces/inkscape"
   xmlns:sodipodi="http://sodipodi.sourceforge.net/DTD/sodipodi-0.dtd"
   xmlns="http://www.w3.org/2000/svg"
   xmlns:svg="http://www.w3.org/2000/svg">
  <defs
     id="defs2" />
  <sodipodi:namedview
     id="namedview2"
     pagecolor="#ffffff"
     bordercolor="#000000"
     borderopacity="0.25"
     inkscape:showpageshadow="2"
     inkscape:pageopacity="0.0"
     inkscape:pagecheckerboard="0"
     inkscape:deskcolor="#d1d1d1" />
  <g
     id="color"
     transform="translate(-32.0928,-8.1636)">
    <circle
       cx="36.0928"
       cy="58.8419"
       r="3"
       fill="#ffffff"
       stroke="none"
       stroke-linecap="round"
       stroke-linejoin="round"
       stroke-miterlimit="10"
       stroke-width="2"
       id="circle1" />
    <path
       fill="#ffffff"
       stroke="none"
       stroke-linecap="round"
       stroke-linejoin="round"
       stroke-miterlimit="10"
       stroke-width="2"
       d="m 35.9873,49.3729 c -1.3809,0 -2.5,-1.1191 -2.5,-2.5 V 11.6636 c 0,-1.3809 1.1191,-2.5 2.5,-2.5 1.3809,0 2.5,1.1191 2.5,2.5 v 35.2093 c 0,1.3809 -1.1191,2.5 -2.5,2.5 z"
       id="path1" />
  </g>
  <g
     id="hair"
     transform="translate(-32.0928,-8.1636)" />
  <g
     id="skin"
     transform="translate(-32.0928,-8.1636)" />
  <g
     id="skin-shadow"
     transform="translate(-32.0928,-8.1636)" />
  <g
     id="line"
     transform="translate(-32.0928,-8.1636)">
    <circle
       cx="36.0928"
       cy="58.8419"
       r="3"
       fill="none"
       stroke="#000000"
       stroke-linecap="round"
       stroke-linejoin="round"
       stroke-miterlimit="10"
       stroke-width="2"
       id="circle2" />
    <path
       fill="none"
       stroke="#000000"
       stroke-linecap="round"
       stroke-linejoin="round"
       stroke-miterlimit="10"
       stroke-width="2"
       d="m 35.9873,49.3729 c -1.3809,0 -2.5,-1.1191 -2.5,-2.5 V 11.6636 c 0,-1.3809 1.1191,-2.5 2.5,-2.5 1.3809,0 2.5,1.1191 2.5,2.5 v 35.2093 c 0,1.3809 -1.1191,2.5 -2.5,2.5 z"
       id="path2" />
  </g>
</svg>
