<svg xmlns="http://www.w3.org/2000/svg" xmlns:svg="http://www.w3.org/2000/svg" id="emoji" width="8" height="54.678" version="1.1" viewBox="0 0 8 54.678"><g id="color" transform="translate(-32.0928,-8.1636)"><circle id="circle1" cx="36.093" cy="58.842" r="3" fill="#fff" stroke="none" stroke-linecap="round" stroke-linejoin="round" stroke-miterlimit="10" stroke-width="2"/><path id="path1" fill="#fff" stroke="none" stroke-linecap="round" stroke-linejoin="round" stroke-miterlimit="10" stroke-width="2" d="m 35.9873,49.3729 c -1.3809,0 -2.5,-1.1191 -2.5,-2.5 V 11.6636 c 0,-1.3809 1.1191,-2.5 2.5,-2.5 1.3809,0 2.5,1.1191 2.5,2.5 v 35.2093 c 0,1.3809 -1.1191,2.5 -2.5,2.5 z"/></g><g id="line" transform="translate(-32.0928,-8.1636)"><circle id="circle2" cx="36.093" cy="58.842" r="3" fill="none" stroke="#000" stroke-linecap="round" stroke-linejoin="round" stroke-miterlimit="10" stroke-width="2"/><path id="path2" fill="none" stroke="#000" stroke-linecap="round" stroke-linejoin="round" stroke-miterlimit="10" stroke-width="2" d="m 35.9873,49.3729 c -1.3809,0 -2.5,-1.1191 -2.5,-2.5 V 11.6636 c 0,-1.3809 1.1191,-2.5 2.5,-2.5 1.3809,0 2.5,1.1191 2.5,2.5 v 35.2093 c 0,1.3809 -1.1191,2.5 -2.5,2.5 z"/></g></svg>