<svg xmlns="http://www.w3.org/2000/svg" xmlns:svg="http://www.w3.org/2000/svg" id="emoji" width="34" height="49.868" version="1.1" viewBox="0 0 34 49.868"><g id="color" transform="translate(-19,-11.1394)"><g id="line_2_"><path id="path1" fill="#ffa7c0" d="m 52,20.65 c 0,-4.7003 -3.8103,-8.5106 -8.5106,-8.5106 -3.2363,0 -6.0501,1.8067 -7.4894,4.4662 -1.4392,-2.6595 -4.2531,-4.4662 -7.4894,-4.4662 -4.7003,0 -8.5106,3.8103 -8.5106,8.5106 0,2.0221 0.7083,3.8769 1.8862,5.337 L 21.8833,25.9893 36,43.4855 50.1167,25.9893 50.1138,25.987 C 51.2917,24.5268 52,22.672 52,20.65 Z"/></g><circle id="ellipse1" cx="36.022" cy="55.007" r="5" fill="#ffa7c0"/></g><g id="line" transform="translate(-19,-11.1394)"><circle id="ellipse2" cx="36.022" cy="55.007" r="5" fill="none" stroke="#000" stroke-miterlimit="10" stroke-width="2"/><g id="line_1_"><path id="path2" fill="none" stroke="#000" stroke-linejoin="round" stroke-miterlimit="10" stroke-width="2" d="m 52,20.65 c 0,-4.7003 -3.8103,-8.5106 -8.5106,-8.5106 -3.2363,0 -6.0501,1.8067 -7.4894,4.4662 -1.4392,-2.6595 -4.2531,-4.4662 -7.4894,-4.4662 -4.7003,0 -8.5106,3.8103 -8.5106,8.5106 0,2.0221 0.7083,3.8769 1.8862,5.337 L 21.8833,25.9893 36,43.4855 50.1167,25.9893 50.1138,25.987 C 51.2917,24.5268 52,22.672 52,20.65 Z"/></g></g></svg>