<?xml version="1.0" encoding="UTF-8" standalone="no"?>
<svg
   id="emoji"
   viewBox="0 0 34.764408 54.315643"
   version="1.1"
   sodipodi:docname="2764-fe0f-200d-1f525.svg"
   width="34.764408"
   height="54.315643"
   xmlns:inkscape="http://www.inkscape.org/namespaces/inkscape"
   xmlns:sodipodi="http://sodipodi.sourceforge.net/DTD/sodipodi-0.dtd"
   xmlns="http://www.w3.org/2000/svg"
   xmlns:svg="http://www.w3.org/2000/svg">
  <defs
     id="defs10" />
  <sodipodi:namedview
     id="namedview10"
     pagecolor="#ffffff"
     bordercolor="#000000"
     borderopacity="0.25"
     inkscape:showpageshadow="2"
     inkscape:pageopacity="0.0"
     inkscape:pagecheckerboard="0"
     inkscape:deskcolor="#d1d1d1" />
  <g
     id="color"
     transform="translate(-18.573909,-6.6997964)">
    <path
       fill="#fcea2b"
       d="m 18.629,32.33 c 0.1652,-3.6387 1.89,-7.3368 3.8645,-10.5555 0.3726,5.0515 2.7617,5.2415 4.132,5.2415 a 2.6076,2.6076 0 0 0 2.194,-2.6642 c 0.0709,-1.8961 0.5482,-3.0035 3.4863,-7.6968 a 1.8858,1.8858 0 0 0 0.8226,0.1982 c 1.151,0 3.004,-1.0749 1.4831,-9.1284 0,0 11.3024,6.5754 10.8772,17.4629 a 1.4253,1.4253 0 0 0 1.4413,1.4091 h 0.0178 a 1.7886,1.7886 0 0 0 0.2071,-0.002 4.1813,4.1813 0 0 0 3.1888,-1.8491 c 1.1984,2.0805 2.7433,4.5031 2.6821,6.826 1.6978,13.285 -4.6306,16.3244 -16.885,28.9311 a 0.1908,0.1908 0 0 1 -0.2578,0.023 C 23.8059,48.6091 17.9349,47.6206 18.629,32.33 Z"
       id="path1" />
    <path
       fill="#f1b31c"
       d="m 37.0662,21.1478 c -0.307,1.0194 -1.3305,2.7184 -4.2988,5.6408 -0.1023,0.0679 -0.1023,0.1359 -0.2047,0.2039 a 4.7606,4.7606 0 0 0 -1.6545,3.2764 3.1742,3.1742 0 0 0 0.5287,1.5489 A 4.1463,4.1463 0 0 1 29,32.85 c -0.5977,0 -1.8494,-0.4916 -1.9461,-1.2591 a 3.1109,3.1109 0 0 0 -1.3628,2.5383 c 0,3.0341 1.6156,6.3085 6.3238,8.7552 0,0 1.3664,0.6226 1.4687,1.2343 0,0 0,0.068 0.1023,0.068 h 5.4251 c 0.2047,0 0.2047,0 0.2047,-0.068 0,-0.1359 0.4094,-0.8835 3.2752,-2.5825 a 10.4424,10.4424 0 0 0 3.7871,-3.602 0.573,0.573 0 0 0 -0.3872,-0.774 0.7864,0.7864 0 0 0 -0.2269,-0.0415 1.5464,1.5464 0 0 1 -1.0232,-0.8156 v 0 c 0,0 -0.2048,-0.5438 0.6141,-1.7671 a 2.9946,2.9946 0 0 0 0.6737,-1.6311 1.0119,1.0119 0 0 0 -1.2319,-0.511 1.0437,1.0437 0 0 0 -0.0987,0.0353 2.5017,2.5017 0 0 1 -2.9255,-0.7476 c 0,0 -0.7164,-1.0873 -0.1023,-3.7378 0.4094,-2.0389 -1.0235,-5.369 -2.8659,-7.0681 -0.5121,-0.4076 -1.5356,-0.2717 -1.638,0.2721 z"
       id="path2" />
    <path
       fill="#ea5a47"
       d="m 52.0066,38.55 a 8.2608,8.2608 0 0 0 -8.4989,-8 8.6741,8.6741 0 0 0 -6.764,3.1565 0.91,0.91 0 0 1 -1.43,0 8.6743,8.6743 0 0 0 -6.7637,-3.1565 8.2607,8.2607 0 0 0 -8.4989,8 8.3857,8.3857 0 0 0 1.6157,5.1966 v 0 L 34.65,59.7928 c 0.363,0.4235 2.2357,0.661 2.6589,0.1471 2.6445,-3.2111 13.1279,-16.2238 13.1279,-16.2238 L 50.461,43.6836 A 7.729,7.729 0 0 0 52.0066,38.55 Z"
       id="path3" />
    <path
       fill="#fcea2b"
       d="m 29.6627,45.1479 c -0.4856,-0.1059 0.71,2.3744 -0.3283,4.1533 -1.1264,1.93 -2.0578,2.9 -1.5336,4.8814 0.5386,2.0351 3.7443,3.7842 3.8745,3.2175 a 1.5336,1.5336 0 0 0 -0.0495,-0.5452 3.469,3.469 0 0 1 0.836,-2.6247 4.4581,4.4581 0 0 0 0.9262,-3.8142 C 33.1442,48.4964 31.63,45.5771 29.6627,45.1479 Z"
       id="path4" />
    <path
       fill="#fcea2b"
       d="m 46.223,36.2711 c 0.5993,-0.225 -0.5392,2.8218 1.0472,4.5927 1.721,1.9211 3.0491,2.8077 2.6857,5.1473 -0.3733,2.4033 -4.1707,5.068 -4.4218,4.46 a 1.5572,1.5572 0 0 1 -0.02,-0.6231 3.5041,3.5041 0 0 0 -1.4585,-2.7652 4.5134,4.5134 0 0 1 -1.7537,-4.0813 c 0.0172,-2.2092 1.4922,-5.8185 3.9211,-6.7304 z"
       id="path5" />
  </g>
  <g
     id="line"
     transform="translate(-18.573909,-6.6997964)">
    <path
       fill="none"
       stroke="#000000"
       stroke-linecap="round"
       stroke-linejoin="round"
       stroke-width="2"
       d="m 51.0551,38.55 a 8.0007,8.0007 0 0 0 -15.04,-3.8018 7.9991,7.9991 0 1 0 -13.267,8.8185 l -0.0028,0.0022 2.946,3.6513"
       id="path6" />
    <path
       fill="none"
       stroke="#000000"
       stroke-linecap="round"
       stroke-linejoin="round"
       stroke-width="2"
       d="m 34.4615,58.09 1.5536,1.9255 6.2851,-7.79"
       id="path7" />
    <path
       fill="none"
       stroke="#000000"
       stroke-linecap="round"
       stroke-linejoin="round"
       stroke-width="2"
       d="M 19.63,32.1845 A 20.7728,20.7728 0 0 1 22.7537,21.75 c 0.3726,5.0516 2.7617,5.2416 4.132,5.2416 1.0236,0 2.3016,-1.906 2.4353,-4.0118 a 10.2418,10.2418 0 0 1 3.245,-6.35 1.883,1.883 0 0 0 0.8226,0.1982 c 1.151,0 3.004,-1.0749 1.4831,-9.1283 0,0 11.3024,6.5754 10.8772,17.4629 a 1.4254,1.4254 0 0 0 1.4411,1.4093 h 0.0176 a 1.813,1.813 0 0 0 0.2072,-0.002 4.1811,4.1811 0 0 0 3.1887,-1.85 12.724,12.724 0 0 1 1.7315,6.7043"
       id="path8" />
    <path
       fill="none"
       stroke="#000000"
       stroke-miterlimit="10"
       stroke-width="2"
       d="m 32.4618,54.23 a 4.4581,4.4581 0 0 0 0.9262,-3.8142 c -0.2438,-1.92 -1.7576,-4.8389 -3.7253,-5.2681 -0.4856,-0.1059 0.71,2.3744 -0.3283,4.1533 -1.1264,1.93 -2.0578,2.9 -1.5336,4.8814 0.5386,2.0351 3.7443,3.7842 3.8745,3.2175 a 1.5336,1.5336 0 0 0 -0.0495,-0.5452 3.469,3.469 0 0 1 0.836,-2.6247 z"
       id="path9" />
    <path
       fill="none"
       stroke="#000000"
       stroke-miterlimit="10"
       stroke-width="2"
       d="m 46.223,36.2711 c 0.5993,-0.225 -0.5392,2.8218 1.0472,4.5927 1.721,1.9211 3.0491,2.8077 2.6857,5.1473 -0.3733,2.4033 -4.1707,5.068 -4.4218,4.46 a 1.5572,1.5572 0 0 1 -0.02,-0.6231 3.5041,3.5041 0 0 0 -1.4585,-2.7652 4.5134,4.5134 0 0 1 -1.7537,-4.0813 c 0.0172,-2.2092 1.4922,-5.8185 3.9211,-6.7304 z"
       id="path10" />
  </g>
</svg>
