<svg xmlns="http://www.w3.org/2000/svg" xmlns:svg="http://www.w3.org/2000/svg" id="emoji" width="37.481" height="50" version="1.1" viewBox="0 0 37.481 50"><g id="color" transform="translate(-17.7592,-11.000046)"><path id="path1" fill="#3f3f3f" stroke="none" stroke-linecap="round" stroke-linejoin="round" stroke-miterlimit="10" stroke-width="2" d="m 40.1841,12 -14.0547,14.8587 3.7285,3.413 7.5107,-7.9438 v 16.4924 c 0,10.5232 -5.7598,15.6386 -17.6094,15.6386 h -1 V 60 h 1 C 34.7494,60 43.0053,52.478 43.0053,38.8203 V 22.3331 l 7.5078,7.9386 3.7275,-3.413 z"/></g><g id="line" transform="translate(-17.7592,-11.000046)"><path id="path2" fill="none" stroke="#000" stroke-linecap="round" stroke-linejoin="round" stroke-miterlimit="10" stroke-width="2" d="m 40.1841,12 -14.0547,14.8587 3.7285,3.413 7.5107,-7.9438 v 16.4924 c 0,10.5232 -5.7598,15.6386 -17.6094,15.6386 h -1 V 60 h 1 C 34.7494,60 43.0053,52.478 43.0053,38.8203 V 22.3331 l 7.5078,7.9386 3.7275,-3.413 z"/></g></svg>