<svg xmlns="http://www.w3.org/2000/svg" xmlns:svg="http://www.w3.org/2000/svg" id="emoji" width="60.701" height="33.6" version="1.1" viewBox="0 0 60.701 33.6"><g id="color" transform="translate(-5.3400455,-18.828043)"><polygon id="_" fill="#3f3f3f" points="53.841 32.528 17.54 32.528 26.74 23.928 23.04 19.828 6.34 35.628 23.04 51.428 26.74 47.328 17.54 38.728 53.841 38.728 44.641 47.328 48.341 51.428 65.041 35.628 48.341 19.828 44.641 23.928"/></g><g id="line" transform="translate(-5.3400455,-18.828043)"><polygon id="_2" fill="none" stroke="#000" stroke-linecap="round" stroke-linejoin="round" stroke-width="2" points="53.841 32.528 17.54 32.528 26.74 23.928 23.04 19.828 6.34 35.628 23.04 51.428 26.74 47.328 17.54 38.728 53.841 38.728 44.641 47.328 48.341 51.428 65.041 35.628 48.341 19.828 44.641 23.928"/></g></svg>