<?xml version="1.0" encoding="UTF-8" standalone="no"?>
<svg
   id="emoji"
   viewBox="0 0 60.700909 33.599915"
   version="1.1"
   sodipodi:docname="2b0c.svg"
   width="60.700909"
   height="33.599915"
   xmlns:inkscape="http://www.inkscape.org/namespaces/inkscape"
   xmlns:sodipodi="http://sodipodi.sourceforge.net/DTD/sodipodi-0.dtd"
   xmlns="http://www.w3.org/2000/svg"
   xmlns:svg="http://www.w3.org/2000/svg">
  <defs
     id="defs1" />
  <sodipodi:namedview
     id="namedview1"
     pagecolor="#ffffff"
     bordercolor="#000000"
     borderopacity="0.25"
     inkscape:showpageshadow="2"
     inkscape:pageopacity="0.0"
     inkscape:pagecheckerboard="0"
     inkscape:deskcolor="#d1d1d1" />
  <g
     id="color"
     transform="translate(-5.3400455,-18.828043)">
    <polygon
       id="_"
       fill="#3f3f3f"
       points="53.841,32.528 17.54,32.528 26.74,23.928 23.04,19.828 6.34,35.628 23.04,51.428 26.74,47.328 17.54,38.728 53.841,38.728 44.641,47.328 48.341,51.428 65.041,35.628 48.341,19.828 44.641,23.928 " />
  </g>
  <g
     id="line"
     transform="translate(-5.3400455,-18.828043)">
    <polygon
       id="_2"
       fill="none"
       stroke="#000000"
       stroke-linecap="round"
       stroke-linejoin="round"
       stroke-width="2"
       points="53.841,32.528 17.54,32.528 26.74,23.928 23.04,19.828 6.34,35.628 23.04,51.428 26.74,47.328 17.54,38.728 53.841,38.728 44.641,47.328 48.341,51.428 65.041,35.628 48.341,19.828 44.641,23.928 " />
  </g>
</svg>
