<svg xmlns="http://www.w3.org/2000/svg" xmlns:svg="http://www.w3.org/2000/svg" id="emoji" width="56.457" height="53.987" version="1.1" viewBox="0 0 56.457 53.987"><g id="color" transform="translate(-7.7713081,-9.0707794)"><path id="path1" fill="#fff" d="m 34.824,10.451 c 0.701,-0.509 1.651,-0.509 2.352,0 l 25.229,18.33 c 0.701,0.51 0.994,1.412 0.727,2.236 l -9.637,29.659 c -0.268,0.824 -1.036,1.382 -1.902,1.382 H 20.407 c -0.866,0 -1.634,-0.558 -1.902,-1.382 L 8.868,31.017 C 8.601,30.193 8.894,29.291 9.595,28.781 Z"/></g><g id="line" transform="translate(-7.7713081,-9.0707794)"><path id="path2" fill="none" stroke="#000" stroke-width="2" d="m 34.824,10.451 c 0.701,-0.509 1.651,-0.509 2.352,0 l 25.229,18.33 c 0.701,0.51 0.994,1.412 0.727,2.236 l -9.637,29.659 c -0.268,0.824 -1.036,1.382 -1.902,1.382 H 20.407 c -0.866,0 -1.634,-0.558 -1.902,-1.382 L 8.868,31.017 C 8.601,30.193 8.894,29.291 9.595,28.781 Z"/></g></svg>