<svg xmlns="http://www.w3.org/2000/svg" xmlns:svg="http://www.w3.org/2000/svg" id="emoji" width="51.021" height="57.999" version="1.1" viewBox="0 0 51.021 57.999"><g id="color" transform="translate(-10.4896,-7.0006519)"><path id="path1" fill="#b399c8" fill-rule="evenodd" d="M 33.7447,63 17.8143,53.8022 H 54.1857 L 38.2553,63 Z" clip-rule="evenodd"/><path id="path2" fill="#92d3f5" fill-rule="evenodd" d="M 17.8142,53.8022 12.4655,50.714 c -0.604,-0.3484 -0.9759,-0.9925 -0.9759,-1.6903 v -4.1226 h 49.0207 v 4.1226 c 0,0.6978 -0.3718,1.3419 -0.9759,1.6903 l -5.3487,3.0882 z" clip-rule="evenodd"/><path id="path3" fill="#b1cc33" fill-rule="evenodd" d="M 11.4896,44.9011 V 36 h 49.0207 v 8.9011 z" clip-rule="evenodd"/><path id="path4" fill="#fcea2b" fill-rule="evenodd" d="M 11.4896,36 V 27.0989 H 60.5103 V 36 Z" clip-rule="evenodd"/><path id="path5" fill="#f4aa41" fill-rule="evenodd" d="m 11.4896,27.0989 v -4.1226 c 0,-0.6978 0.3719,-1.3419 0.9759,-1.6903 l 5.3487,-3.0882 h 36.3715 l 5.3487,3.0882 c 0.6041,0.3484 0.9759,0.9925 0.9759,1.6903 v 4.1226 z" clip-rule="evenodd"/><path id="path6" fill="#ea5a47" fill-rule="evenodd" d="M 17.8142,18.1978 33.7446,9 h 4.5107 l 15.9304,9.1978 z" clip-rule="evenodd"/></g><g id="line" transform="translate(-10.4896,-7.0006519)"><path id="path7" fill="none" stroke="#000" stroke-width="2" d="m 35.024,8.2613 c 0.6041,-0.3484 1.3478,-0.3484 1.9519,0 L 59.5344,21.286 c 0.6041,0.3484 0.9759,0.9925 0.9759,1.6903 v 26.0474 c 0,0.6978 -0.3718,1.3419 -0.9759,1.6903 L 36.9759,63.7387 c -0.6041,0.3484 -1.3478,0.3484 -1.9519,0 L 12.4655,50.714 c -0.604,-0.3484 -0.9759,-0.9925 -0.9759,-1.6903 V 22.9763 c 0,-0.6978 0.3719,-1.3419 0.9759,-1.6903 z"/></g></svg>