<?xml version="1.0" encoding="UTF-8" standalone="no"?>
<svg
   id="emoji"
   viewBox="0 0 51.020699 57.998695"
   version="1.1"
   sodipodi:docname="2b21-fe0f-200d-1f7e6.svg"
   width="51.020699"
   height="57.998695"
   xmlns:inkscape="http://www.inkscape.org/namespaces/inkscape"
   xmlns:sodipodi="http://sodipodi.sourceforge.net/DTD/sodipodi-0.dtd"
   xmlns="http://www.w3.org/2000/svg"
   xmlns:svg="http://www.w3.org/2000/svg">
  <defs
     id="defs2" />
  <sodipodi:namedview
     id="namedview2"
     pagecolor="#ffffff"
     bordercolor="#000000"
     borderopacity="0.25"
     inkscape:showpageshadow="2"
     inkscape:pageopacity="0.0"
     inkscape:pagecheckerboard="0"
     inkscape:deskcolor="#d1d1d1" />
  <g
     id="color"
     transform="translate(-10.4896,-7.0006519)">
    <path
       fill="#92d3f5"
       d="m 35.024,8.2613 c 0.6041,-0.3484 1.3478,-0.3484 1.9519,0 L 59.5344,21.286 c 0.6041,0.3484 0.9759,0.9925 0.9759,1.6903 v 26.0474 c 0,0.6978 -0.3718,1.3419 -0.9759,1.6903 L 36.9759,63.7387 c -0.6041,0.3484 -1.3478,0.3484 -1.9519,0 L 12.4655,50.714 c -0.604,-0.3484 -0.9759,-0.9925 -0.9759,-1.6903 V 22.9763 c 0,-0.6978 0.3719,-1.3419 0.9759,-1.6903 z"
       id="path1" />
  </g>
  <g
     id="line"
     transform="translate(-10.4896,-7.0006519)">
    <path
       fill="none"
       stroke="#000000"
       stroke-width="2"
       d="m 35.024,8.2613 c 0.6041,-0.3484 1.3478,-0.3484 1.9519,0 L 59.5344,21.286 c 0.6041,0.3484 0.9759,0.9925 0.9759,1.6903 v 26.0474 c 0,0.6978 -0.3718,1.3419 -0.9759,1.6903 L 36.9759,63.7387 c -0.6041,0.3484 -1.3478,0.3484 -1.9519,0 L 12.4655,50.714 c -0.604,-0.3484 -0.9759,-0.9925 -0.9759,-1.6903 V 22.9763 c 0,-0.6978 0.3719,-1.3419 0.9759,-1.6903 z"
       id="path2" />
  </g>
</svg>
