<svg xmlns="http://www.w3.org/2000/svg" xmlns:svg="http://www.w3.org/2000/svg" id="emoji" width="51.021" height="57.999" version="1.1" viewBox="0 0 51.021 57.999"><g id="line-supplement" transform="translate(-10.5,-7.0006519)"><path id="path1" fill="#000" d="m 35.0344,8.2613 c 0.6041,-0.3484 1.3478,-0.3484 1.9519,0 L 59.5448,21.286 c 0.6041,0.3484 0.9759,0.9925 0.9759,1.6903 v 26.0474 c 0,0.6978 -0.3718,1.3419 -0.9759,1.6903 L 36.9863,63.7387 c -0.6041,0.3484 -1.3478,0.3484 -1.9519,0 L 12.4759,50.714 C 11.8718,50.3656 11.5,49.7215 11.5,49.0237 V 22.9763 c 0,-0.6978 0.3718,-1.3419 0.9759,-1.6903 z"/></g><g id="color" transform="translate(-10.5,-7.0006519)"><path id="path2" fill="#3f3f3f" d="m 35.0344,8.2613 c 0.6041,-0.3484 1.3478,-0.3484 1.9519,0 L 59.5448,21.286 c 0.6041,0.3484 0.9759,0.9925 0.9759,1.6903 v 26.0474 c 0,0.6978 -0.3718,1.3419 -0.9759,1.6903 L 36.9863,63.7387 c -0.6041,0.3484 -1.3478,0.3484 -1.9519,0 L 12.4759,50.714 C 11.8718,50.3656 11.5,49.7215 11.5,49.0237 V 22.9763 c 0,-0.6978 0.3718,-1.3419 0.9759,-1.6903 z"/></g><g id="line" transform="translate(-10.5,-7.0006519)"><path id="path3" fill="none" stroke="#000" stroke-width="2" d="m 35.0344,8.2613 c 0.6041,-0.3484 1.3478,-0.3484 1.9519,0 L 59.5448,21.286 c 0.6041,0.3484 0.9759,0.9925 0.9759,1.6903 v 26.0474 c 0,0.6978 -0.3718,1.3419 -0.9759,1.6903 L 36.9863,63.7387 c -0.6041,0.3484 -1.3478,0.3484 -1.9519,0 L 12.4759,50.714 C 11.8718,50.3656 11.5,49.7215 11.5,49.0237 V 22.9763 c 0,-0.6978 0.3718,-1.3419 0.9759,-1.6903 z"/></g></svg>