<?xml version="1.0" encoding="UTF-8" standalone="no"?>
<svg
   id="emoji"
   viewBox="0 0 57.998661 51.020699"
   version="1.1"
   sodipodi:docname="2b23.svg"
   width="57.998661"
   height="51.020699"
   xmlns:inkscape="http://www.inkscape.org/namespaces/inkscape"
   xmlns:sodipodi="http://sodipodi.sourceforge.net/DTD/sodipodi-0.dtd"
   xmlns="http://www.w3.org/2000/svg"
   xmlns:svg="http://www.w3.org/2000/svg">
  <defs
     id="defs3" />
  <sodipodi:namedview
     id="namedview3"
     pagecolor="#ffffff"
     bordercolor="#000000"
     borderopacity="0.25"
     inkscape:showpageshadow="2"
     inkscape:pageopacity="0.0"
     inkscape:pagecheckerboard="0"
     inkscape:deskcolor="#d1d1d1" />
  <g
     id="line-supplement"
     transform="translate(-7.0006698,-10.4897)">
    <path
       fill="#000000"
       d="m 8.2613,36.976 c -0.3484,-0.6041 -0.3484,-1.3477 0,-1.9518 L 21.286,12.4657 c 0.3484,-0.6041 0.9925,-0.976 1.6903,-0.976 h 26.0474 c 0.6978,0 1.3419,0.3719 1.6903,0.976 l 13.0247,22.5585 c 0.3484,0.6041 0.3484,1.3477 0,1.9518 L 50.714,59.5345 c -0.3484,0.6041 -0.9925,0.9759 -1.6903,0.9759 H 22.9763 c -0.6978,0 -1.3419,-0.3718 -1.6903,-0.9759 z"
       id="path1" />
  </g>
  <g
     id="color"
     transform="translate(-7.0006698,-10.4897)">
    <path
       fill="#3f3f3f"
       d="m 8.2613,36.976 c -0.3484,-0.6041 -0.3484,-1.3477 0,-1.9518 L 21.286,12.4657 c 0.3484,-0.6041 0.9925,-0.976 1.6903,-0.976 h 26.0474 c 0.6978,0 1.3419,0.3719 1.6903,0.976 l 13.0247,22.5585 c 0.3484,0.6041 0.3484,1.3477 0,1.9518 L 50.714,59.5345 c -0.3484,0.6041 -0.9925,0.9759 -1.6903,0.9759 H 22.9763 c -0.6978,0 -1.3419,-0.3718 -1.6903,-0.9759 z"
       id="path2" />
  </g>
  <g
     id="line"
     transform="translate(-7.0006698,-10.4897)">
    <path
       fill="none"
       stroke="#000000"
       stroke-width="2"
       d="m 8.2613,36.976 c -0.3484,-0.6041 -0.3484,-1.3477 0,-1.9518 L 21.286,12.4657 c 0.3484,-0.6041 0.9925,-0.976 1.6903,-0.976 h 26.0474 c 0.6978,0 1.3419,0.3719 1.6903,0.976 l 13.0247,22.5585 c 0.3484,0.6041 0.3484,1.3477 0,1.9518 L 50.714,59.5345 c -0.3484,0.6041 -0.9925,0.9759 -1.6903,0.9759 H 22.9763 c -0.6978,0 -1.3419,-0.3718 -1.6903,-0.9759 z"
       id="path3" />
  </g>
</svg>
