<svg xmlns="http://www.w3.org/2000/svg" xmlns:svg="http://www.w3.org/2000/svg" id="emoji" width="60" height="60" version="1.1" viewBox="0 0 60 60"><g id="color" transform="translate(-5.7952003,-5.9371986)"><path id="path1" fill="#ea5a47" stroke="none" d="m 35.5661,6.4066 c -16.0162,0 -29,12.9838 -29,29 0,16.0164 12.9838,29 29,29 16.0162,0 29,-12.9836 29,-29 0,-16.0163 -12.9838,-29 -29,-29 z m 0,49 c -11.0457,0 -20,-8.9543 -20,-20 0,-11.0457 8.9543,-20 20,-20 11.0457,0 20,8.9543 20,20 0,11.0457 -8.9543,20 -20,20 z"/></g><g id="line" transform="translate(-5.7952003,-5.9371986)"><circle id="circle1" cx="35.795" cy="35.937" r="29" fill="none" stroke="#000" stroke-linecap="round" stroke-linejoin="round" stroke-width="2"/><circle id="circle2" cx="35.795" cy="35.937" r="20" fill="none" stroke="#000" stroke-linecap="round" stroke-linejoin="round" stroke-width="2"/></g></svg>