<svg xmlns="http://www.w3.org/2000/svg" xmlns:svg="http://www.w3.org/2000/svg" id="emoji" width="55.415" height="48.934" version="1.1" viewBox="0 0 55.415 48.934"><g id="color" transform="translate(-9.45,-13.79)"><path id="path1" fill="#3f3f3f" d="m 50.1655,50.5238 9.6,-10.4 4.1,3.8 -16.5,17.8 -16.5,-17.8 4.1,-3.8 9.6,9.9806 L 44.5621,35.41 c 0,-9.8053 -3.9989,-15.24 -14.522,-15.24 C 19.3324,20.17 15.83,26.9312 15.83,35.41 V 58.209 H 10.45 V 35.38 c 0,-12.4 6.3149,-20.59 19.59,-20.59 13.5,0 20.1253,8.09 20.1253,20.59 z"/></g><g id="line" transform="translate(-9.45,-13.79)"><path id="path2" fill="none" stroke="#000" stroke-linecap="round" stroke-linejoin="round" stroke-width="2" d="m 50.1655,50.5238 9.6,-10.4 4.1,3.8 -16.5,17.8 -16.5,-17.8 4.1,-3.8 9.6,9.9806 L 44.5621,35.41 c 0,-9.8053 -3.9989,-15.24 -14.522,-15.24 C 19.3324,20.17 15.83,26.9312 15.83,35.41 V 58.209 H 10.45 V 35.38 c 0,-12.4 6.3149,-20.59 19.59,-20.59 13.5,0 20.1253,8.09 20.1253,20.59 z"/></g></svg>