<svg xmlns="http://www.w3.org/2000/svg" xmlns:svg="http://www.w3.org/2000/svg" id="emoji" width="55.121" height="52.527" version="1.1" viewBox="0 0 55.121 52.527"><g id="line-supplement" transform="translate(-8.4395049,-9.7364259)"><path id="path1" fill="#000" d="M 37.0606,11 27.8519,26.8699 9.5,29.5436 22.7851,42.4838 19.6568,60.7637 37.0606,52.5 Z"/></g><g id="color" transform="translate(-8.4395049,-9.7364259)"><path id="path2" fill="#fcea2b" d="M 35,11.5 44.6481,27.3699 63,30.0436 49.7149,42.9838 52.8432,61.2637 35,52.5 Z"/><path id="path3" fill="#3f3f3f" d="M 37.0606,11 27.8519,26.8699 9.5,29.5436 22.7851,42.4838 19.6568,60.7637 37.0606,52.5 Z"/></g><g id="line" transform="translate(-8.4395049,-9.7364259)"><path id="path4" fill="none" stroke="#000" stroke-linecap="round" stroke-linejoin="round" stroke-miterlimit="10" stroke-width="2" d="M 35.9928,10.7363 27.7913,27.3699 9.43939,30.0436 22.7245,42.9838 19.5962,61.2637 36.0084,52.6276 52.427,61.2515 49.2851,42.9739 62.5606,30.0239 44.2067,27.3638 Z"/><line id="line4" x1="36" x2="36" y1="12" y2="49" stroke="#000" stroke-linecap="round" stroke-width="2"/></g></svg>