<?xml version="1.0" encoding="UTF-8" standalone="no"?>
<svg
   id="emoji"
   viewBox="0 0 55.120979 52.527191"
   version="1.1"
   sodipodi:docname="2bea.svg"
   width="55.120979"
   height="52.527191"
   xmlns:inkscape="http://www.inkscape.org/namespaces/inkscape"
   xmlns:sodipodi="http://sodipodi.sourceforge.net/DTD/sodipodi-0.dtd"
   xmlns="http://www.w3.org/2000/svg"
   xmlns:svg="http://www.w3.org/2000/svg">
  <defs
     id="defs4" />
  <sodipodi:namedview
     id="namedview4"
     pagecolor="#ffffff"
     bordercolor="#000000"
     borderopacity="0.25"
     inkscape:showpageshadow="2"
     inkscape:pageopacity="0.0"
     inkscape:pagecheckerboard="0"
     inkscape:deskcolor="#d1d1d1" />
  <g
     id="line-supplement"
     transform="translate(-8.4395049,-9.7364259)">
    <path
       fill="#000000"
       d="M 37.0606,11 27.8519,26.8699 9.5,29.5436 22.7851,42.4838 19.6568,60.7637 37.0606,52.5 Z"
       id="path1" />
  </g>
  <g
     id="color"
     transform="translate(-8.4395049,-9.7364259)">
    <path
       fill="#fcea2b"
       d="M 35,11.5 44.6481,27.3699 63,30.0436 49.7149,42.9838 52.8432,61.2637 35,52.5 Z"
       id="path2" />
    <path
       fill="#3f3f3f"
       d="M 37.0606,11 27.8519,26.8699 9.5,29.5436 22.7851,42.4838 19.6568,60.7637 37.0606,52.5 Z"
       id="path3" />
  </g>
  <g
     id="line"
     transform="translate(-8.4395049,-9.7364259)">
    <path
       fill="none"
       stroke="#000000"
       stroke-linecap="round"
       stroke-linejoin="round"
       stroke-miterlimit="10"
       stroke-width="2"
       d="M 35.9928,10.7363 27.7913,27.3699 9.43939,30.0436 22.7245,42.9838 19.5962,61.2637 36.0084,52.6276 52.427,61.2515 49.2851,42.9739 62.5606,30.0239 44.2067,27.3638 Z"
       id="path4" />
    <line
       x1="36"
       x2="36"
       y1="12"
       y2="49"
       stroke="#000000"
       stroke-linecap="round"
       stroke-width="2"
       id="line4" />
  </g>
</svg>
