<svg xmlns="http://www.w3.org/2000/svg" xmlns:svg="http://www.w3.org/2000/svg" id="emoji" width="60" height="26" version="1.1" viewBox="0 0 60 26"><g id="color" transform="translate(-6,-23)"><path id="path1" fill="#f1b31c" stroke="none" d="m 7,24 c 0,4.5035 1.4885,8.6593 4.0003,12.0024 l -0.0056,0.0027 C 8.4863,39.3469 7,43.4999 7,48 12.7457,47.0402 17.2971,43.4039 18.6138,38.7566 l 0.0066,-0.0057 C 21.0555,44.0525 30.375,48 41.5,48 54.4787,48 65,42.6274 65,36 65,29.3726 54.4787,24 41.5,24 30.373,24 21.0522,27.9489 18.6191,33.252 l 0.0089,0.0042 C 17.3466,28.6438 12.8817,25.0183 7.2187,24"/><path id="path2" fill="#e27022" stroke="none" d="M 33.5741,47.3004 C 36.0503,47.7533 38.7187,48 41.5,48 54.4787,48 65,42.6274 65,36 65,30.5461 57.8747,25.9419 48.1182,24.4825 Z"/></g><g id="line" transform="translate(-6,-23)"><path id="path3" fill="none" stroke="#000" stroke-linecap="round" stroke-linejoin="round" stroke-miterlimit="10" stroke-width="2" d="m 7,24 c 0,4.5035 1.4885,8.6593 4.0003,12.0024 l -0.0056,0.0027 C 8.4863,39.3469 7,43.4999 7,48 12.7457,47.0402 17.2971,43.4039 18.6138,38.7566 l 0.0066,-0.0057 C 21.0555,44.0525 30.375,48 41.5,48 54.4787,48 65,42.6274 65,36 65,29.3726 54.4787,24 41.5,24 30.373,24 21.0522,27.9489 18.6191,33.252 l 0.0089,0.0042 C 17.3466,28.6438 12.8817,25.0183 7.2187,24 Z"/><circle id="circle3" cx="53" cy="34" r="2" fill="#000" stroke="none"/></g></svg>