<svg xmlns="http://www.w3.org/2000/svg" xmlns:svg="http://www.w3.org/2000/svg" id="emoji" width="54.969" height="48.611" version="1.1" viewBox="0 0 54.969 48.611"><g id="color" transform="translate(-8.5115831,-19.420499)"><path id="path1" fill="#a57939" d="m 57.46,34.32 1.229,9.917 c 0,0 -1.358,6.826 4.309,3.909 l 0.1778,-0.1522 -1.487,-3.09 1.083,-4.583 -0.9167,-4.167 z"/><path id="path2" fill="#a57939" d="m 19.82,20.4 -10.37,5.625 0.625,2.188 c 0,0 6.392,0.4445 7.25,1.688 2.699,3.91 2.994,20.37 10.88,18.44 l 3.375,15.25 c 0,0 -1.75,4.562 -1.562,4.438 0.188,-0.124 2.875,-0.0625 2.875,-0.0625 l 1.875,-5.562 -0.4954,-6.248 -0.2546,-6.564 4.312,0.3125 7.25,-1.062 4.312,-0.1875 2.75,4.375 -2.938,10.81 -2.688,4.125 h 3.875 l 5.5,-10.06 1.25,-3.75 -1.75,-7.188 3.312,-6.613 c 0,0 0.3125,-3.562 -2.062,-6.062 -7.343,-2.515 -16.92,-0.9039 -24.81,-0.9375 l -5.079,0.3125 -0.4434,-2.125 c 0,0 -1.543,-3.265 -1.528,-5.651 0.457,-1.763 3.613,-0.8611 3.801,-3.924 0,0 -3.375,-2.75 -6.5,-0.1875 0,0 -2.5,-2.062 -2.75,-1.375 z"/><path id="path3" fill="#6a462f" d="m 23.03,45.59 1.167,5.75 1.75,11.08 -1.917,5.417 h 2.917 l 2.583,-5.667 -0.0833,-8.667 -1.25,-5.167 z"/></g><g id="line" transform="translate(-8.5115831,-19.420499)"><path id="path4" fill="none" stroke="#000" stroke-linecap="round" stroke-linejoin="round" stroke-miterlimit="10" stroke-width="2" d="m 30.24,67.02 1.179,-3.453 -3.429,-15.46 c -8.506,1.177 -6.194,-11.73 -9.872,-18.03 -1.055,-1.766 -3.844,-1.47 -3.844,-1.47 l -2.65,0.2126 c -0.8005,0.0642 -1.544,-0.4182 -1.812,-1.175 l -0.2103,-0.595 c -0.2696,-0.7629 0.0713,-1.607 0.795,-1.969 l 9.02,-4.51 c 0,0 2.217,-0.8563 3.168,1.519 0,0 1.118,-2.698 6.476,-0.5542 0,0 -0.4286,4.072 -5.144,4.072"/><path id="path5" fill="none" stroke="#000" stroke-linecap="round" stroke-linejoin="round" stroke-miterlimit="10" stroke-width="2" d="m 34.92,44.6 0.5358,4.18 c 0,0 -2.677,3.045 -2.143,7.364"/><polyline id="polyline5" fill="none" stroke="#000" stroke-linecap="round" stroke-linejoin="round" stroke-miterlimit="10" stroke-width="2" points="23.1 51.18 24.06 62.66 22.24 66.84" transform="translate(2.068)"/><path id="path6" fill="none" stroke="#000" stroke-linecap="round" stroke-linejoin="round" stroke-miterlimit="10" stroke-width="2" d="m 25.85,31.85 c 0,0 0.3027,1.456 1.776,1.999 15.26,-1.156 28.85,-1.296 33.28,2.43 2.003,1.773 1.788,4.751 1.03,7.228 -0.0102,0.0336 -0.8683,2.71 0.5438,3.773"/><path id="path7" fill="none" stroke="#000" stroke-linecap="round" stroke-linejoin="round" stroke-miterlimit="10" stroke-width="2" d="m 49.7,40.59 -0.8572,6.537 4.072,6.122 -3.383,10.64 -2.35,3.129"/><path id="path8" fill="none" stroke="#000" stroke-linecap="round" stroke-linejoin="round" stroke-miterlimit="10" stroke-width="2" d="m 58.19,40.59 c 0,0 0.9716,2.495 -2.078,7.229 0,0 0.1072,3.18 1.393,5.538 l -2.036,4.155"/><path id="path9" fill="none" stroke="#000" stroke-linecap="round" stroke-linejoin="round" stroke-miterlimit="10" stroke-width="2" d="m 38.31,48.92 c 4.753,0.5107 8.797,0.815 11.54,-0.2756"/></g></svg>