<svg xmlns="http://www.w3.org/2000/svg" xmlns:svg="http://www.w3.org/2000/svg" id="emoji" width="53.601" height="57.672" version="1.1" viewBox="0 0 53.601 57.672"><g id="color" transform="translate(-11.456797,-6)"><path id="path1" fill="#3f3f3f" d="m 30.488,54.618 c 0.40316,1.0322 1.1544,4.1685 0.56439,4.5874 -0.0393,0.0283 -0.0851,0.0437 -0.13677,0.0467 -0.19108,0.009 -0.47061,-0.16726 -0.86303,-0.59882 -2.0599,-1.5336 -4.9982,0.51116 -6.9868,-0.6529 -0.80032,-0.46845 -1.2022,-1.2239 -1.4915,-1.7917 -0.46148,0.7394 -1.075,2.2683 -2.1236,2.6224 -1.8358,0.5511 -4.5889,0.37522 -5.8969,3.8416 -1.1916,-3.6368 -2.3829,-6.2308 2.0593,-9.292 1.5604,-1.057 3.9738,-2.9534 4.04,-4.4242 -0.016,-2.082 0.215,-16.534 11.348,-23.956 0,0 24,-15 33,9 0,0 2,4 -16,4 0,0 -2,5 -9,5 0,0 -2,0 1,-5 0,0 -12.846,1.3245 -16.145,11.339 -1.0633,4.0723 5.5319,2.4578 6.6335,5.2783 z"/><path id="path2" fill="#fff" d="m 52.984,33.612 c -1.0181,-0.0458 -2.2292,0.0491 -3.7988,0.41406 -4.1857,0.9733 -3.1856,0.97461 -3.1856,0.97461 l 2.9863,2.9863 c 9.9552,-0.0888 13.402,-1.4506 14.531,-2.5625 l -0.51758,-0.42383 c 0,0 -3.5,-0.16739 -5.75,-0.58399 -1.4062,-0.26043 -2.5688,-0.72836 -4.2656,-0.80468 z"/></g><g id="line" transform="translate(-11.456797,-6)"><line id="line2" x1="40" x2="37" y1="16" y2="7" fill="none" stroke="#000" stroke-linecap="round" stroke-linejoin="round" stroke-miterlimit="10" stroke-width="2"/><path id="path3" fill="none" stroke="#000" stroke-linecap="round" stroke-linejoin="round" stroke-miterlimit="10" stroke-width="2" d="m 43.571,16.947 c 0,0 -0.8919,-8.1978 1.8078,-5.8079"/><path id="path4" fill="none" stroke="#000" stroke-linecap="round" stroke-linejoin="round" stroke-miterlimit="10" stroke-width="2" d="m 38.268,18.596 c 0,0 -5.2012,-6.399 -5.4005,-2.799"/><circle id="circle4" cx="47" cy="13" r="1"/><path id="path5" fill="none" stroke="#000" stroke-linecap="round" stroke-linejoin="round" stroke-miterlimit="10" stroke-width="2" d="M 63,35 C 63,35 59.5,34.833 57.25,34.417 55,34 53.371,33.053 49.186,34.027 45,35 46,35 46,35 l 3,3"/><path id="path6" fill="none" stroke="#000" stroke-linecap="round" stroke-linejoin="round" stroke-miterlimit="10" stroke-width="2" d="m 30.488,54.618 c 0.40316,1.0322 1.1544,4.1685 0.56439,4.5874 v 0 c -0.0393,0.0283 -0.0851,0.0437 -0.13677,0.0467 -0.19108,0.009 -0.47061,-0.16726 -0.86303,-0.59882 -2.0599,-1.5336 -4.9982,0.51116 -6.9868,-0.6529 -0.80032,-0.46845 -1.2022,-1.2239 -1.4915,-1.7917 -0.46148,0.7394 -1.075,2.2683 -2.1236,2.6224 -1.8358,0.5511 -4.5889,0.37522 -5.8969,3.8416 -1.1916,-3.6368 -2.3829,-6.2308 2.0593,-9.292 1.5604,-1.057 3.9738,-2.9534 4.04,-4.4242 -0.016,-2.082 0.215,-16.534 11.348,-23.956 0,0 24,-15 33,9 0,0 2,4 -16,4 0,0 -2,5 -9,5 0,0 -2,0 1,-5 0,0 -12.846,1.3245 -16.145,11.339 -1.0633,4.0723 5.5319,2.4578 6.6335,5.2783 z"/></g></svg>