<?xml version="1.0" encoding="UTF-8" standalone="no"?>
<svg
   id="emoji"
   viewBox="0 0 45.643387 57.305096"
   version="1.1"
   sodipodi:docname="e009.svg"
   width="45.643387"
   height="57.305096"
   xmlns:inkscape="http://www.inkscape.org/namespaces/inkscape"
   xmlns:sodipodi="http://sodipodi.sourceforge.net/DTD/sodipodi-0.dtd"
   xmlns="http://www.w3.org/2000/svg"
   xmlns:svg="http://www.w3.org/2000/svg">
  <defs
     id="defs8" />
  <sodipodi:namedview
     id="namedview8"
     pagecolor="#ffffff"
     bordercolor="#000000"
     borderopacity="0.25"
     inkscape:showpageshadow="2"
     inkscape:pageopacity="0.0"
     inkscape:pagecheckerboard="0"
     inkscape:deskcolor="#d1d1d1" />
  <g
     id="color"
     stroke-width="2"
     transform="translate(-13.503191,-7.3407119)">
    <path
       fill="#9b9b9a"
       stroke-width="2"
       d="m 19.16,40.04 0.4275,-2.06 c -1.417,-1.417 -1.523,-2.998 -1.462,-3.717 0.04535,-0.5339 -0.206,-4.356 6.538,-10.89 0.6766,-0.6558 1.265,-1.384 1.735,-2.201 0.9457,-1.645 2.712,-4.998 5.3,-11.03 3.851,-8.978 8.116,12.15 7.396,18.19 -0.09423,0.7913 -0.9772,5.316 -1.11,6.102 l -2.88,10.79"
       id="path1" />
    <path
       fill="#d0cfce"
       stroke-width="2"
       d="M 37.99,46.28 C 66.76,45.352 56.55,8.23 55.62,12.87 54.692,17.51 27.78,44.42 25,40.71 c -2.784,-3.712 -6.496,-4.64 -8.352,-1.856 -1.856,2.784 -2.784,3.712 -2.784,3.712 0,0 5.568,-0.928 6.496,0.928 0.928,1.856 3.871,7.946 9.28,8.352 0,0 1.847,0.6304 5.568,8.352 4.339,9.004 22.27,0 16.7,-4.64 -5.568,-4.64 -9.28,-2.784 -12.06,-4.64 -2.784,-1.856 -1.856,-4.64 -1.856,-4.64 z"
       id="path2" />
    <path
       fill="#3f3f3f"
       stroke-width="2"
       d="m 36.85,60.94 c 0.03734,0.3547 9.492,1.853 15.31,-5.424 0.1631,-0.2042 0.8717,0.177 1.083,0.2394 1.388,4.093 -7.656,9.271 -11.99,8.019 -3.685,-1.276 -4.394,-2.835 -4.394,-2.835 z"
       id="path3" />
    <path
       fill="#3f3f3f"
       stroke-width="2"
       d="m 37.69,45.48 c 0.08512,-1.762 21.08,-2.961 18.18,-31.95 -0.1461,-1.46 2.328,6.428 2.414,7.844 1.692,14.66 -8.256,26.27 -20.59,24.11 z"
       id="path4" />
    <path
       fill="#3f3f3f"
       stroke-width="2"
       d="m 32.52,37.72 c 3.818,-5.379 4.203,-19.26 0.9526,-29.22 -0.4548,-1.395 3.475,4.933 3.964,6.265 2.39,6.636 2.672,12.93 0.5642,18.39 z"
       id="path5" />
    <path
       fill="#9b9b9a"
       stroke-width="2"
       d="m 23.88,47.87 c 2.378,0.01091 3.846,-3.287 3.168,-5.632 -3.239,-5.856 -9.319,-7.524 -12.55,0.231 5.872,-1.98 6.828,1.455 9.382,5.401 z"
       id="path6" />
  </g>
  <g
     id="line"
     transform="translate(-13.503191,-7.3407119)">
    <path
       fill="none"
       stroke="#000000"
       stroke-linecap="round"
       stroke-linejoin="round"
       stroke-miterlimit="10"
       stroke-width="2"
       d="M 38.29,46.13 C 66.65,45.2151 56.59,8.62 55.67,13.2 54.75,17.78 28.23,44.3 25.48,40.64 c -2.744,-3.659 -6.404,-4.574 -8.233,-1.83 -1.83,2.744 -2.744,3.659 -2.744,3.659 0,0 5.489,-0.9149 6.404,0.9149 0.9149,1.83 3.816,7.833 9.148,8.233 0,0 1.821,0.6215 5.489,8.233 4.277,8.876 21.96,0 16.47,-4.574 -5.489,-4.574 -9.148,-2.744 -11.89,-4.574 -2.744,-1.83 -1.83,-4.574 -1.83,-4.574 z"
       id="path7" />
    <path
       fill="none"
       stroke="#000000"
       stroke-linecap="round"
       stroke-linejoin="round"
       stroke-miterlimit="10"
       stroke-width="2"
       d="M 38.37,26.51 C 38.6838,19.491 35.108,2.4 31.889,10.45 28.23,19.598 26.4,22.34 26.4,22.34 c -4.348,4.13 -5.957,7.228 -6.529,9.162"
       id="path8" />
  </g>
</svg>
