<?xml version="1.0" encoding="UTF-8" standalone="no"?>
<svg
   id="emoji"
   viewBox="0 0 50 61.741856"
   version="1.1"
   sodipodi:docname="e010.svg"
   width="50"
   height="61.741856"
   xmlns:inkscape="http://www.inkscape.org/namespaces/inkscape"
   xmlns:sodipodi="http://sodipodi.sourceforge.net/DTD/sodipodi-0.dtd"
   xmlns="http://www.w3.org/2000/svg"
   xmlns:svg="http://www.w3.org/2000/svg">
  <defs
     id="defs13" />
  <sodipodi:namedview
     id="namedview13"
     pagecolor="#ffffff"
     bordercolor="#000000"
     borderopacity="0.25"
     inkscape:showpageshadow="2"
     inkscape:pageopacity="0.0"
     inkscape:pagecheckerboard="0"
     inkscape:deskcolor="#d1d1d1" />
  <g
     id="color"
     transform="translate(-12,-6.4599919)">
    <path
       fill="#fcea2b"
       d="m 31.7,20.78 c -1.9,-1.365 -3.032,-3.556 -3.046,-5.896 0.07614,-4.174 3.52,-7.497 7.695,-7.424 4.023,0.01017 7.367,3.104 7.689,7.114 0.1765,3.132 -0.7592,6.319 -0.6687,9.455 l 0.04922,1.705 c 1.5,1.79 4.644,5.406 6.544,15.99 0.4,2.226 4.176,19.17 4.482,22.96 -0.7893,0.3807 -1.495,1.904 -2.284,2.284 -1.615,-3.704 -5,-14.09 -7.808,-15.65 -2.744,-1.455 -5.133,-3.324 -8.991,-5.195 -4.576,0 -7.83,-8.397 -7.83,-15.02 0,-5.159 1.011,-8.631 4.169,-10.32 z"
       id="path1" />
    <path
       fill="#9b9b9a"
       d="m 27.82,16.86 -0.003,-0.0145 1.737,2.219 a 3.469,3.469 0 0 1 -5.339,-0.749 z"
       id="path2" />
    <path
       fill="#92d3f5"
       d="m 31.91,31 c -0.0114,-3.585 -0.4921,-5.533 3.071,-6.999 1.763,-0.7317 3.744,-0.7332 5.507,-0.0042 2.973,1.276 4.603,4.463 5.713,7.502 1.097,3.059 1.97,6.194 2.61,9.38 0.2643,1.276 0.4358,2.577 0.6448,3.863 0.16,0.9815 1.122,3.675 0.7448,4.594 -0.55,1.342 -3.679,-2.059 -4.855,-2.525 -2.511,-1.024 -4.842,-2.441 -6.906,-4.2 -2.392,-1.88 -4.31,-4.295 -5.599,-7.051 -0.6108,-1.443 -0.9273,-2.994 -0.9308,-4.561 z"
       id="path3" />
    <path
       fill="#9b9b9a"
       d="m 28.72,10.92 c -1.132,1.764 -1.451,3.93 -0.8762,5.945 l -4.768,1.915 c -0.05075,-0.3438 0.08842,-1.022 0.0859,-1.37 -0.1227,-3.405 2.184,-6.02 5.559,-6.49 z"
       id="path4" />
    <path
       fill="#ffffff"
       d="M 31,10 C 30.8752,9.9819 30.7268,9.98 30.5921,9.9688 c -2.981,3.195 -2.461,8.286 1.105,10.81 -0.0874,0.0469 -0.1714,0.1034 -0.2575,0.1544 2.172,-0.193 4.176,-1.251 5.56,-2.935 0.4447,-0.6049 1.369,-3.276 1.587,-3.994 -0.3762,-0.7827 -3.251,-3.376 -7.587,-4.006 z"
       id="path5" />
    <path
       fill="#92d3f5"
       d="m 31,10 c 2.574,1.207 5.972,2.061 6.516,4.138 l 15.57,44.42 0.6404,-5.275 -5.674,-17.59 c -4.849,-7.338 -4.754,-14.03 -4.995,-22.48 -2.645,-5.391 -6.649,-8.372 -12.06,-3.217 z"
       id="path6" />
  </g>
  <g
     id="line"
     transform="translate(-12,-6.4599919)">
    <path
       fill="none"
       stroke="#000000"
       stroke-linecap="round"
       stroke-linejoin="round"
       stroke-miterlimit="10"
       stroke-width="2"
       d="m 34.98,24.01 c 1.763,-0.7317 3.744,-0.7332 5.507,-0.0042 5.245,2.136 10.97,20.55 9.796,26.09 -3.318,-0.2344 -8.878,-4.857 -11.38,-6.965 -2.392,-1.88 -4.31,-4.295 -5.599,-7.051 -1.473,-4.584 -1.456,-10.68 1.68,-12.07 z"
       id="path7" />
    <path
       fill="none"
       stroke="#000000"
       stroke-linecap="round"
       stroke-linejoin="round"
       stroke-width="2"
       d="m 27.85,16.86 -4.768,1.915 a 7.48,7.48 0 0 1 -0.08,-1.038 6.646,6.646 0 0 1 5.725,-6.822"
       id="path8" />
    <path
       fill="none"
       stroke="#000000"
       stroke-linecap="round"
       stroke-linejoin="round"
       stroke-width="2"
       d="m 52.77,53.42 c 0.435,1.401 1.492,9.806 1.673,11.26 0.05333,1.684 -0.7742,3.102 -2.284,2.284 -1.291,-3.902 -3.765,-14.54 -7.046,-16.26"
       id="path9" />
    <path
       fill="none"
       stroke="#000000"
       stroke-linecap="round"
       stroke-linejoin="round"
       stroke-width="2"
       d="M 29.56,19.07 A 3.469,3.469 0 0 1 24.221,18.321"
       id="path10" />
    <path
       fill="none"
       stroke="#000000"
       stroke-linecap="round"
       stroke-linejoin="round"
       stroke-width="2"
       d="m 34.82,45.62 -0.1244,6.378"
       id="path11" />
    <line
       x1="57.09"
       x2="61"
       y1="52"
       y2="52"
       fill="none"
       stroke="#000000"
       stroke-linecap="round"
       stroke-linejoin="round"
       stroke-width="2"
       id="line11" />
    <line
       x1="13"
       x2="42.990002"
       y1="52.169998"
       y2="52.169998"
       fill="none"
       stroke="#000000"
       stroke-linecap="round"
       stroke-linejoin="round"
       stroke-width="2"
       id="line12" />
    <path
       fill="none"
       stroke="#000000"
       stroke-linecap="round"
       stroke-linejoin="round"
       stroke-width="2"
       d="M 34.82,45.62 C 30.773,42.584 28.58,39.814 27.758,33.75 27.0644,28.638 28.4603,22.47 31.507,20.78 25.836,16.488 28.881,7.45 35.993,7.46 c 3.949,0.07524 7.178,3.171 7.418,7.114 0.12,2.217 0.0732,4.46 0.0353,6.694 -0.0156,0.9227 -0.03,1.844 -0.03,2.761 v 1.705"
       id="path12" />
    <path
       fill="none"
       stroke="#000000"
       stroke-linecap="round"
       stroke-linejoin="round"
       stroke-width="2"
       d="m 31.7,20.78 c -0.0874,0.0469 -0.1714,0.1034 -0.2575,0.1544 4.347,-0.8279 5.867,-2.954 7.147,-6.93 -0.3762,-0.7827 -3.251,-3.376 -7.587,-4.006 -0.1248,-0.0181 -0.2732,-0.02 -0.4079,-0.0312"
       id="path13" />
    <line
       x1="40.700001"
       x2="40.700001"
       y1="48"
       y2="52"
       fill="none"
       stroke="#000000"
       stroke-linecap="round"
       stroke-linejoin="round"
       stroke-width="2"
       id="line13" />
  </g>
</svg>
