<svg xmlns="http://www.w3.org/2000/svg" xmlns:svg="http://www.w3.org/2000/svg" id="emoji" width="52" height="52.009" version="1.1" viewBox="0 0 52 52.009"><g id="color" transform="translate(-10,-11)"><path id="path1" fill="#61b2e4" d="M 57,12 H 15 c -2.2091,0 -4,1.7909 -4,4 v 42 c 0,2.2091 1.7909,4 4,4 h 42 c 2.2091,0 4,-1.7909 4,-4 V 16 c 0,-2.2091 -1.7909,-4 -4,-4 z"/><line id="line1" x1="36.935" x2="46.435" y1="62.009" y2="62.009" fill="none" stroke="#fff" stroke-miterlimit="10" stroke-width="2"/><path id="path2" fill="#fff" d="m 48.5,26.8438 h 4.6875 v -7.0312 c -3.125,0 -15.625,-3.125 -15.625,10.1562 v 4.6875 h -6.25 v 7.8125 h 6.25 V 61.0332 L 45.375,61.0193 V 42.4688 h 7.0312 l 0.7812,-7.8125 H 45.375 v -4.6875 c 0,-3.125 2.3438,-3.125 3.125,-3.125 z"/></g><g id="line" transform="translate(-10,-11)"><path id="path3" fill="none" stroke="#000" stroke-miterlimit="10" stroke-width="2" d="M 45.6188,62 H 57.7742 C 59.5558,62 61,60.5558 61,58.7742 V 15.2258 C 61,13.4442 59.5558,12 57.7742,12 H 14.2258 C 12.4442,12 11,13.4442 11,15.2258 V 58.7742 C 11,60.5558 12.4442,62 14.2258,62 h 23.4761"/><path id="path4" fill="none" stroke="#000" stroke-linecap="round" stroke-linejoin="round" stroke-width="2" d="M 45.6183,62 V 42.208 h 7.1251 l 0.7917,-7.9168 h -7.9168 v -4.7501 c 0,-3.1667 2.375,-3.1667 3.1667,-3.1667 h 4.7501 V 19.2493 C 50.3354,18.925 37.7015,16.0826 37.7015,29.5411 v 4.7501 h -6.3334 v 7.9168 h 6.3334 V 62"/></g></svg>