<svg xmlns="http://www.w3.org/2000/svg" xmlns:svg="http://www.w3.org/2000/svg" id="emoji" width="48.773" height="48.773" version="1.1" viewBox="0 0 48.773 48.773"><g id="color" transform="translate(-11.6136,-11.6136)"><path id="path1" fill="#fff" d="m 46.7845,12.6136 h -21.569 c -6.9598,0 -12.6019,5.6421 -12.6019,12.6019 v 21.5689 c 0,6.9598 5.6421,12.6019 12.6019,12.6019 h 21.5689 c 6.9598,0 12.6019,-5.6421 12.6019,-12.6019 V 25.2155 c 1e-4,-6.9598 -5.642,-12.6019 -12.6018,-12.6019 z"/></g><g id="line" transform="translate(-11.6136,-11.6136)"><path id="path2" fill="none" stroke="#000" stroke-miterlimit="10" stroke-width="2" d="m 46.7845,12.6136 h -21.569 c -6.9598,0 -12.6019,5.6421 -12.6019,12.6019 v 21.5689 c 0,6.9598 5.6421,12.6019 12.6019,12.6019 h 21.5689 c 6.9598,0 12.6019,-5.6421 12.6019,-12.6019 V 25.2155 c 1e-4,-6.9598 -5.642,-12.6019 -12.6018,-12.6019 z"/><circle id="circle2" cx="36" cy="36" r="11.29" fill="none" stroke="#000" stroke-miterlimit="10" stroke-width="2"/><circle id="circle3" cx="49.709" cy="22.291" r="2.419"/></g></svg>