<?xml version="1.0" encoding="UTF-8" standalone="no"?>
<svg
   id="emoji"
   viewBox="0 0 58.126598 58.619797"
   version="1.1"
   sodipodi:docname="e045.svg"
   width="58.126598"
   height="58.619797"
   xmlns:inkscape="http://www.inkscape.org/namespaces/inkscape"
   xmlns:sodipodi="http://sodipodi.sourceforge.net/DTD/sodipodi-0.dtd"
   xmlns="http://www.w3.org/2000/svg"
   xmlns:svg="http://www.w3.org/2000/svg">
  <defs
     id="defs4" />
  <sodipodi:namedview
     id="namedview4"
     pagecolor="#ffffff"
     bordercolor="#000000"
     borderopacity="0.25"
     inkscape:showpageshadow="2"
     inkscape:pageopacity="0.0"
     inkscape:pagecheckerboard="0"
     inkscape:deskcolor="#d1d1d1" />
  <g
     id="color"
     transform="translate(-6.9367,-6.6604)">
    <path
       fill="none"
       stroke="#ffffff"
       stroke-linecap="round"
       stroke-linejoin="round"
       stroke-width="2"
       d="m 27.1141,62.9864 c 0,0 9.1707,2.9222 17.9267,-0.0418"
       id="path1" />
    <circle
       cx="35.9002"
       cy="35.898499"
       r="27.2258"
       fill="#ffffff"
       id="circle1" />
    <path
       fill="#d0cfce"
       d="m 29.044,61.6111 c 0,-0.9275 -0.0347,-3.9798 -0.0347,-7.7645 0,-2.6461 0.874,-4.3727 1.863,-5.2521 -6.2277,-0.7217 -12.7788,-3.1539 -12.7788,-14.035 0,-3.0978 1.0959,-5.6316 2.8866,-7.6149 -0.286,-0.719 -1.2536,-3.6056 0.278,-7.5133 0,0 2.3548,-0.7644 7.7164,2.908 2.2372,-0.6281 4.6373,-0.9462 7.0268,-0.9515 2.3842,0.0054 4.7843,0.3234 7.0268,0.9515 5.3563,-3.6725 7.7111,-2.908 7.7111,-2.908 1.5315,3.9077 0.5693,6.7943 0.278,7.5133 1.7961,1.9832 2.8813,4.5144 2.8813,7.6149 0,10.9051 -6.5591,13.308 -12.8162,14.0083 1.013,0.882 1.9084,2.6113 1.9084,5.2628 0,3.7927 -0.0347,6.8504 -0.0347,7.7806 0,0.7618 0.5052,1.6411 1.9298,1.3685 11.1457,-3.758 19.1775,-14.3958 19.1775,-26.9313 0,-15.6788 -12.5676,-28.388 -28.0673,-28.388 -15.4997,0 -28.0593,12.7064 -28.0593,28.3879 0,12.5409 8.0398,23.1814 19.2015,26.934 1.3952,0.2619 1.9057,-0.6147 1.9057,-1.3712 v 0 z"
       id="path2" />
  </g>
  <g
     id="line"
     transform="translate(-6.9367,-6.6604)">
    <path
       fill="none"
       stroke="#000000"
       stroke-linecap="round"
       stroke-linejoin="round"
       stroke-width="2"
       d="m 29.044,61.6111 c 0,-0.9275 -0.0347,-3.9798 -0.0347,-7.7645 0,-2.6461 0.874,-4.3727 1.863,-5.2521 -6.2277,-0.7217 -12.7788,-3.1539 -12.7788,-14.035 0,-3.0978 1.0959,-5.6316 2.8866,-7.6149 -0.286,-0.719 -1.2536,-3.6056 0.278,-7.5133 0,0 2.3548,-0.7644 7.7164,2.908 2.2372,-0.6281 4.6373,-0.9462 7.0268,-0.9515 2.3842,0.0054 4.7843,0.3234 7.0268,0.9515 5.3563,-3.6725 7.7111,-2.908 7.7111,-2.908 1.5315,3.9077 0.5693,6.7943 0.278,7.5133 1.7961,1.9832 2.8813,4.5144 2.8813,7.6149 0,10.9051 -6.5591,13.308 -12.8162,14.0083 1.013,0.882 1.9084,2.6113 1.9084,5.2628 0,3.7927 -0.0347,6.8504 -0.0347,7.7806 0,0.7618 0.5052,1.6411 1.9298,1.3685 11.1457,-3.758 19.1775,-14.3958 19.1775,-26.9313 0,-15.6788 -12.5676,-28.388 -28.0673,-28.388 -15.4997,0 -28.0593,12.7064 -28.0593,28.3879 0,12.5409 8.0398,23.1814 19.2015,26.934 1.3952,0.2619 1.9057,-0.6147 1.9057,-1.3712 v 0 z"
       id="path3" />
    <path
       fill="none"
       stroke="#000000"
       stroke-linecap="round"
       stroke-linejoin="round"
       stroke-width="2"
       d="m 16.2893,48.0893 c 2.5686,0.7805 3.5816,1.6358 4.7897,3.6618 1.2054,2.026 2.6194,4.2872 7.9329,2.9989"
       id="path4" />
  </g>
</svg>
