<svg xmlns="http://www.w3.org/2000/svg" xmlns:svg="http://www.w3.org/2000/svg" id="emoji" width="52" height="52" version="1.1" viewBox="0 0 52 52"><g id="color" transform="translate(-10,-10)"><rect id="rect1" width="50" height="50" x="11" y="11" fill="#61b2e4" rx="3"/><rect id="rect2" width="6" height="21" x="20" y="30" fill="#fff"/><circle id="circle2" cx="23" cy="22" r="3.5" fill="#fff"/><path id="path2" fill="#fff" d="m 42.5,35 c -2.209,0 -4,1.168 -4,4.5 V 51 h -6 V 30 h 6 v 2.21 h -0.0016 a 7.981,7.981 0 0 1 6.002,-2.71 c 4.418,0 8,3.3 8,9 V 51 h -6 V 39.5 c 0,-3.332 -1.791,-4.5 -4,-4.5"/></g><g id="line" transform="translate(-10,-10)"><rect id="rect3" width="50" height="50" x="11" y="11" fill="none" stroke="#000" stroke-miterlimit="10" stroke-width="2" rx="3"/><rect id="rect4" width="6" height="21" x="20" y="30" fill="none" stroke="#000" stroke-linecap="round" stroke-linejoin="round" stroke-width="2"/><circle id="circle4" cx="23" cy="22" r="3.5" fill="none" stroke="#000" stroke-linecap="round" stroke-linejoin="round" stroke-width="2"/><path id="path4" fill="none" stroke="#000" stroke-linecap="round" stroke-linejoin="round" stroke-width="2" d="m 42.5,35 c -2.209,0 -4,1.168 -4,4.5 V 51 h -6 V 30 h 6 v 2.21 h -0.0016 a 7.981,7.981 0 0 1 6.002,-2.71 c 4.418,0 8,3.3 8,9 V 51 h -6 V 39.5 c 0,-3.332 -1.791,-4.5 -4,-4.5"/></g></svg>