<?xml version="1.0" encoding="UTF-8" standalone="no"?>
<svg
   id="emoji"
   viewBox="0 0 51.805359 51.108147"
   version="1.1"
   sodipodi:docname="e04a.svg"
   width="51.805359"
   height="51.108147"
   xmlns:inkscape="http://www.inkscape.org/namespaces/inkscape"
   xmlns:sodipodi="http://sodipodi.sourceforge.net/DTD/sodipodi-0.dtd"
   xmlns="http://www.w3.org/2000/svg"
   xmlns:svg="http://www.w3.org/2000/svg">
  <defs
     id="defs21" />
  <sodipodi:namedview
     id="namedview21"
     pagecolor="#ffffff"
     bordercolor="#000000"
     borderopacity="0.25"
     inkscape:showpageshadow="2"
     inkscape:pageopacity="0.0"
     inkscape:pagecheckerboard="0"
     inkscape:deskcolor="#d1d1d1" />
  <g
     id="line-supplement"
     transform="translate(-11,-10.999967)">
    <path
       fill="none"
       stroke="#000000"
       stroke-linecap="round"
       stroke-linejoin="round"
       stroke-width="2"
       d="m 21,13 -2,5 5,2 2,9 -5,5 2,3 -3,2 v 1 l 5,7 4,-2 m 5.5,11 1.5,-3 3,-2 7,4 5,-1 v -4 l -2,-2 1.5,-3.5"
       id="path1" />
  </g>
  <g
     id="color"
     transform="translate(-11,-10.999967)">
    <g
       id="g3">
      <path
         fill="#b1cc33"
         fill-rule="evenodd"
         d="M 25,13 12,12 V 24 L 12.9967,35.04 12,47 v 12 l 13,1 11,-1 12,1 12,-1 V 47 L 59.0033,35.04 60,24 V 12 L 48,13 36,12 Z"
         clip-rule="evenodd"
         id="path2" />
      <path
         fill="#b1cc33"
         d="m 12,12 0.0767,-0.9971 C 11.799,10.9816 11.5249,11.077 11.3206,11.2663 11.1162,11.4555 11,11.7215 11,12 Z m 13,1 -0.0767,0.9971 c 0.0557,0.0042 0.1116,0.0038 0.1672,-0.0012 z M 12,24 h -1 c 0,0.03 0.0014,0.06 0.0041,0.0899 z m 0.9967,11.04 0.9965,0.083 c 0.0048,-0.0575 0.0046,-0.1154 -6e-4,-0.1729 z M 12,47 11.0035,46.917 C 11.0012,46.9446 11,46.9723 11,47 Z m 0,12 h -1 c 0,0.5225 0.4023,0.957 0.9233,0.9971 z m 13,1 -0.0767,0.9971 c 0.0557,0.0042 0.1116,0.0038 0.1672,-0.0012 z m 11,-1 0.083,-0.9965 c -0.0577,-0.0049 -0.1158,-0.0046 -0.1735,6e-4 z m 12,1 -0.083,0.9965 c 0.0552,0.0047 0.1108,0.0047 0.166,0 z m 12,-1 0.083,0.9965 C 60.6013,59.9534 61,59.5201 61,59 Z m 0,-12 h 1 c 0,-0.0277 -0.0012,-0.0554 -0.0035,-0.083 z M 59.0033,35.04 58.0074,34.9501 c -0.0052,0.0575 -0.0054,0.1154 -6e-4,0.1729 z M 60,24 60.9959,24.0899 C 60.9986,24.06 61,24.03 61,24 Z m 0,-12 h 1 c 0,-0.2797 -0.1171,-0.5465 -0.3229,-0.7359 -0.2058,-0.1893 -0.4815,-0.2839 -0.7601,-0.2606 z m -12,1 -0.083,0.9965 c 0.0552,0.0047 0.1108,0.0047 0.166,0 z m -12,-1 0.083,-0.9965 c -0.0577,-0.0049 -0.1158,-0.0046 -0.1735,6e-4 z m -24.0767,0.9971 13,1 0.1534,-1.9942 -13,-1 z M 13,24 V 12 h -2 v 12 z m 0.9926,10.9501 -0.9967,-11.04 -1.9918,0.1798 0.9966,11.04 z m -0.9961,12.1329 0.9967,-11.96 -1.9931,-0.166 -0.9966,11.96 z M 13,59 V 47 h -2 v 12 z m 12.0767,0.0029 -13,-1 -0.1534,1.9942 13,1 z m 10.8328,-0.9988 -11,1 0.181,1.9918 11,-1 z m 12.1735,0.9994 -12,-1 -0.166,1.993 12,1 z m 11.834,-1 -12,1 0.166,1.993 12,-1 z M 59,47 v 12 h 2 V 47 Z m -0.9932,-11.877 0.9967,11.96 1.993,-0.166 -0.9966,-11.96 z m 0.9973,-11.2129 -0.9967,11.04 1.9919,0.1798 0.9966,-11.04 z M 59,12 v 12 h 2 V 12 Z m -10.917,1.9965 12,-1 -0.166,-1.993 -12,1 z m -12.166,-1 12,1 0.166,-1.993 -12,-1 z m -10.8265,0.9994 11,-1 -0.181,-1.9918 -11,1 z"
         id="path3" />
    </g>
    <path
       fill="none"
       stroke="#ea5a47"
       stroke-linejoin="round"
       stroke-width="2"
       d="m 21,13 -2,5 5,2 2,9 -5,5 2,3 -3,2 v 1 l 5,7 4,-2 4,6 -2,6 2,2 3,-6 3,-2 7,4 5,-1 v -4 l -2,-2 3,-7 8,-1"
       id="path4" />
    <path
       fill="#5c9e31"
       fill-rule="evenodd"
       d="m 16,49 c 1.6569,0 3,-1.3431 3,-3 0,-1.6569 -1.3431,-3 -3,-3 -1.6569,0 -3,1.3431 -3,3 v 7.9996 c -0.3786,0.2844 -0.7156,0.6213 -1,0.9999 V 59 h 1 3 4.9 c 0.0656,-0.3231 0.1,-0.6575 0.1,-1 0,-2.7614 -2.2386,-5 -5,-5 -1.1046,0 -2,-0.8954 -2,-2 0,-1.1046 0.8954,-2 2,-2 z"
       clip-rule="evenodd"
       id="path5" />
    <path
       fill="#5c9e31"
       fill-rule="evenodd"
       d="m 57.25,53.9 c -1.4083,0 -2.55,1.1417 -2.55,2.55 0,1.4083 1.1417,2.55 2.55,2.55 1.4083,0 2.55,-1.1417 2.55,-2.55 v -0.0058 -6.7939 c 0.3218,-0.2417 0.6082,-0.5281 0.85,-0.8499 V 43.6996 C 59.8746,42.6675 58.6403,42 57.25,42 54.9028,42 53,43.9028 53,46.25 c 0,2.3472 1.9028,4.25 4.25,4.25 0.9389,0 1.7,0.7611 1.7,1.7 0,0.9389 -0.7611,1.7 -1.7,1.7 z"
       clip-rule="evenodd"
       id="path6" />
    <path
       fill="#92d3f5"
       fill-rule="evenodd"
       d="M 48.8675,39.8669 C 48.2576,39.9546 47.6341,40 47,40 39.8203,40 34,34.1797 34,27 34,26.3659 34.0454,25.7423 34.1331,25.1325 30.4992,26.9282 28,30.6723 28,35 c 0,6.0751 4.9249,11 11,11 4.3277,0 8.0718,-2.4992 9.8675,-6.1331 z"
       clip-rule="evenodd"
       id="path7" />
    <path
       fill="#5c9e31"
       fill-rule="evenodd"
       d="M 31.5,19 C 33.9853,19 36,16.9853 36,14.5 36,13.5749 35.7209,12.715 35.2422,12 H 27.7578 C 27.2791,12.715 27,13.5749 27,14.5 c 0,2.4853 2.0147,4.5 4.5,4.5 z"
       clip-rule="evenodd"
       id="path8" />
    <path
       fill="#b1cc33"
       d="m 56.7067,33.4246 c 3.317,-5.1984 1.7918,-12.1016 -3.4066,-15.4186 -5.1984,-3.317 -12.1016,-1.7918 -15.4186,3.4067 -3.3171,5.1985 -1.7919,12.1016 3.4065,15.4187 5.1985,3.317 12.1016,1.7917 15.4187,-3.4068 z"
       id="path9" />
    <path
       fill="#92d3f5"
       fill-rule="evenodd"
       d="M 50.9731,14.6183 C 50.66,18.1947 47.6576,21 44,21 c -2.2091,0 -4,1.7909 -4,4 0,2.2091 1.7909,4 4,4 3.866,0 7,3.134 7,7 0,1.3414 -0.3773,2.5947 -1.0316,3.6596 C 49.015,39.8822 48.0212,40 47,40 42.9791,40 39.3846,38.1745 37,35.3071 V 18.6929 C 39.3846,15.8255 42.9791,14 47,14 c 1.3857,0 2.7207,0.2168 3.9731,0.6183 z"
       clip-rule="evenodd"
       id="path10" />
    <path
       fill="#5c9e31"
       d="m 56.7639,33.7898 c 1.461,-2.289 2.284,-6.5149 1.6981,-9.1673 -0.4014,-1.8161 -2.6553,-3.8396 -3.8988,-5.1585 0.6487,2.3544 1.0384,7.3509 -2.1852,11.9716 -2.7358,3.9212 -6.6908,5.6353 -8.9477,6.0576 4.2488,1.2831 10.8311,0.2175 13.3336,-3.7034 z"
       id="path11" />
    <path
       fill="#61b2e4"
       fill-rule="evenodd"
       d="M 50.5686,33.5751 C 50.8476,34.3306 51,35.1475 51,36 c 0,0.5419 -0.0616,1.0695 -0.1781,1.5761 -2.5086,0.614 -5.2473,0.5646 -7.3916,-0.0829 1.7946,-0.3358 4.663,-1.4884 7.1383,-3.9181 z"
       clip-rule="evenodd"
       id="path12" />
    <path
       fill="#d0cfce"
       d="m 55.1011,15.1854 c -3.2684,-2.0837 -7.1512,-2.7717 -10.9373,-1.9372 -3.785,0.8366 -7.0182,3.097 -9.1041,6.3645 -4.3036,6.746 -2.3176,15.7369 4.4283,20.0415 6.745,4.3047 15.7348,2.3197 20.0415,-4.4273 2.0849,-3.2675 2.7728,-7.1524 1.9362,-10.9374 -0.8366,-3.7851 -3.096,-7.0182 -6.3646,-9.1041 z m 1.8363,18.3876 c -2.1788,3.4147 -5.8819,5.2814 -9.6611,5.2814 -2.1045,9e-4 -4.2319,-0.5785 -6.1343,-1.7924 -5.3172,-3.3926 -6.8818,-10.4791 -3.4892,-15.7954 1.6436,-2.5754 4.1915,-4.3576 7.1747,-5.0159 2.9841,-0.6584 6.0444,-0.1176 8.6208,1.5269 2.5755,1.6426 4.3567,4.1905 5.016,7.1747 0.6593,2.9831 0.1166,6.0443 -1.5269,8.6207 z"
       id="path13" />
    <path
       fill="#3f3f3f"
       d="m 34.7666,41.2091 -6.918,10.335 -3.7106,5.8155 c -0.4778,0.75 0.3797,3.2105 1.1294,3.6888 0.3613,0.2305 2.5325,0.011 2.5325,0.011 L 39.3237,43.8671 Z"
       id="path14" />
    <path
       fill="none"
       stroke="#ffffff"
       stroke-linecap="round"
       stroke-width="2"
       d="M 42.5,21 H 52"
       id="path15" />
    <path
       fill="none"
       stroke="#ffffff"
       stroke-linecap="round"
       stroke-width="2"
       d="M 40,24 H 53"
       id="path16" />
    <path
       fill="none"
       stroke="#ffffff"
       stroke-linecap="round"
       stroke-width="2"
       d="M 39,27 H 52"
       id="path17" />
  </g>
  <g
     id="line"
     transform="translate(-11,-10.999967)">
    <path
       fill="none"
       stroke="#000000"
       stroke-linecap="round"
       stroke-linejoin="round"
       stroke-miterlimit="10"
       stroke-width="2"
       d="m 59.5371,35.0666 c 4.3067,-6.5674 2.3264,-15.2885 -4.4231,-19.479 -6.7495,-4.1905 -15.7124,-2.2637 -20.0191,4.3037 -4.3067,6.5675 -2.3264,15.2885 4.4231,19.479 6.7495,4.1905 15.7124,2.2637 20.0191,-4.3037 z"
       id="path18" />
    <path
       fill="none"
       stroke="#000000"
       stroke-linecap="round"
       stroke-linejoin="round"
       stroke-miterlimit="10"
       stroke-width="2"
       d="m 56.6385,33.2669 c 3.2853,-5.0098 1.7748,-11.6625 -3.3739,-14.8591 -5.1487,-3.1966 -11.9858,-1.7267 -15.2711,3.2831 -3.2853,5.0098 -1.7747,11.6624 3.374,14.8591 5.1487,3.1966 11.9858,1.7267 15.271,-3.2831 z"
       id="path19" />
    <path
       fill="none"
       stroke="#000000"
       stroke-linecap="round"
       stroke-linejoin="round"
       stroke-miterlimit="10"
       stroke-width="2"
       d="m 34.777,41.444 4.3636,2.709 -10.3955,15.853 c -0.7427,1.1326 -2.3216,1.4442 -3.5265,0.6962 -1.205,-0.7481 -1.5798,-2.2726 -0.8371,-3.4053 z"
       id="path20" />
    <path
       fill="none"
       stroke="#000000"
       stroke-linecap="round"
       stroke-linejoin="round"
       stroke-width="2"
       d="M 40,12.3333 36,12 25,13 12,12 V 24 L 12.9967,35.04 12,47 v 12 l 9,0.6923 M 54.2656,12.4779 60,12 v 4.5 M 59.375,39.5 60,47 v 12 l -12,1 -12,-1 -3.5,0.3182"
       id="path21" />
  </g>
</svg>
