<?xml version="1.0" encoding="UTF-8" standalone="no"?>
<svg
   id="emoji"
   viewBox="0 0 64 40"
   version="1.1"
   sodipodi:docname="e04b.svg"
   width="64"
   height="40"
   xmlns:inkscape="http://www.inkscape.org/namespaces/inkscape"
   xmlns:sodipodi="http://sodipodi.sourceforge.net/DTD/sodipodi-0.dtd"
   xmlns="http://www.w3.org/2000/svg"
   xmlns:svg="http://www.w3.org/2000/svg">
  <defs
     id="defs22" />
  <sodipodi:namedview
     id="namedview22"
     pagecolor="#ffffff"
     bordercolor="#000000"
     borderopacity="0.25"
     inkscape:showpageshadow="2"
     inkscape:pageopacity="0.0"
     inkscape:pagecheckerboard="0"
     inkscape:deskcolor="#d1d1d1" />
  <g
     id="line-supplement"
     transform="translate(-4,-16)">
    <rect
       x="8"
       y="20"
       width="3.027"
       height="32"
       fill="#000000"
       id="rect1" />
    <rect
       x="12.5406"
       y="20"
       width="6.0541"
       height="32"
       fill="#000000"
       id="rect2" />
    <rect
       x="20.108101"
       y="20"
       width="6.0541"
       height="32"
       fill="#000000"
       id="rect3" />
    <rect
       x="36.756802"
       y="20"
       width="6.0541"
       height="32"
       fill="#000000"
       id="rect4" />
    <rect
       x="48.864799"
       y="20"
       width="6.0541"
       height="32"
       fill="#000000"
       id="rect5" />
    <rect
       x="27.675699"
       y="20"
       width="3.027"
       height="32"
       fill="#000000"
       id="rect6" />
    <rect
       x="32.216202"
       y="20"
       width="3.027"
       height="32"
       fill="#000000"
       id="rect7" />
    <rect
       x="44.324299"
       y="20"
       width="3.027"
       height="32"
       fill="#000000"
       id="rect8" />
    <rect
       x="56.4324"
       y="20"
       width="3.027"
       height="32"
       fill="#000000"
       id="rect9" />
    <rect
       x="60.973"
       y="20"
       width="3.027"
       height="32"
       fill="#000000"
       id="rect10" />
  </g>
  <g
     id="color"
     transform="translate(-4,-16)">
    <rect
       x="5"
       y="17"
       width="62"
       height="38"
       fill="#ffffff"
       id="rect11" />
    <rect
       x="8"
       y="20"
       width="3.027"
       height="32"
       fill="#d22f27"
       id="rect12" />
    <rect
       x="12.5406"
       y="20"
       width="6.0541"
       height="32"
       fill="#d22f27"
       id="rect13" />
    <rect
       x="20.108101"
       y="20"
       width="6.0541"
       height="32"
       fill="#d22f27"
       id="rect14" />
    <rect
       x="36.756802"
       y="20"
       width="6.0541"
       height="32"
       fill="#61b2e4"
       id="rect15" />
    <rect
       x="48.864799"
       y="20"
       width="6.0541"
       height="32"
       fill="#61b2e4"
       id="rect16" />
    <rect
       x="27.675699"
       y="20"
       width="3.027"
       height="32"
       fill="#5c9e31"
       id="rect17" />
    <rect
       x="32.216202"
       y="20"
       width="3.027"
       height="32"
       fill="#5c9e31"
       id="rect18" />
    <rect
       x="44.324299"
       y="20"
       width="3.027"
       height="32"
       fill="#61b2e4"
       id="rect19" />
    <rect
       x="56.4324"
       y="20"
       width="3.027"
       height="32"
       fill="#5c9e31"
       id="rect20" />
    <rect
       x="60.973"
       y="20"
       width="3.027"
       height="32"
       fill="#5c9e31"
       id="rect21" />
  </g>
  <g
     id="line"
     transform="translate(-4,-16)">
    <rect
       x="5"
       y="17"
       width="62"
       height="38"
       fill="none"
       stroke="#000000"
       stroke-linejoin="round"
       stroke-width="2"
       id="rect22" />
  </g>
</svg>
