<svg xmlns="http://www.w3.org/2000/svg" xmlns:svg="http://www.w3.org/2000/svg" id="emoji" width="53" height="54.961" version="1.1" viewBox="0 0 53 54.961"><g id="color" transform="translate(-10,-8.3779392)"><path id="path1" fill="#ea5a47" d="m 28.5,19 c -2.4,0 -5.3333,3.3333 -6.5,5 l 6,2 c -0.5,-1.8333 -1.1,-5.8 0.5,-7 z"/><path id="path2" fill="#f1b31c" fill-rule="evenodd" d="M 48.7832,47.4143 C 54.3792,43.2189 58,36.5323 58,29 58,27.3736 57.8312,25.7866 57.5101,24.2556 51.2647,21.2251 46.3388,15.9009 43.8273,9.37788 38.4682,13.3903 35,19.7901 35,27 c 0,9.2455 5.7031,17.1589 13.7832,20.4143 z" clip-rule="evenodd"/><circle id="circle2" cx="36" cy="36" r="13" fill="#8967aa" stroke="#8967aa" stroke-width="2"/><g id="g4"><path id="path3" fill="#d22f27" fill-rule="evenodd" d="m 39,48.0506 c 0.8012,0.1956 1.6385,0.2994 2.5,0.2994 5.799,0 10.5,-4.701 10.5,-10.5 0,-5.799 -4.701,-10.5 -10.5,-10.5 -0.8615,0 -1.6988,0.1038 -2.5,0.2994 4.592,1.1216 8,5.2631 8,10.2006 0,4.9375 -3.408,9.079 -8,10.2006 z" clip-rule="evenodd"/><path id="path4" fill="#d22f27" d="M 39,48.0506 38.7627,47.0791 V 49.022 Z M 52,37.85 h 1 z M 39,27.6494 38.7627,26.678 v 1.9429 z M 41.5,47.35 c -0.7809,0 -1.5386,-0.094 -2.2627,-0.2709 l -0.4746,1.9429 c 0.8783,0.2145 1.7952,0.328 2.7373,0.328 z m 9.5,-9.5 c 0,5.2467 -4.2533,9.5 -9.5,9.5 v 2 c 6.3513,0 11.5,-5.1487 11.5,-11.5 z m -9.5,-9.5 c 5.2467,0 9.5,4.2533 9.5,9.5 h 2 c 0,-6.3513 -5.1487,-11.5 -11.5,-11.5 z m -2.2627,0.2709 C 39.9614,28.444 40.7191,28.35 41.5,28.35 v -2 c -0.9421,0 -1.859,0.1135 -2.7373,0.328 z m -0.4746,0 C 42.9175,29.6356 46,33.3841 46,37.85 h 2 C 48,32.4409 44.2666,27.9064 39.2373,26.678 Z M 46,37.85 c 0,4.4659 -3.0825,8.2143 -7.2373,9.2291 l 0.4746,1.9429 C 44.2666,47.7936 48,43.259 48,37.85 Z"/></g><path id="path5" fill="#ea5a47" d="m 27.5,25 c -2,-2 -5.1667,-2.1667 -6.5,-2 h -1 v 10.5 h 11 l 5,-2 c -3.5,0 -6,-4 -8.5,-6.5 z"/><path id="path6" fill="#ea5a47" fill-rule="evenodd" d="m 11,36.5 c 0,-7.4661 3.2087,-14.1829 8.3224,-18.8464 0.2612,-0.2382 0.6783,-0.0327 0.6776,0.3209 0,0.0085 0,0.017 0,0.0255 0,1.7106 0.3068,3.3496 0.8684,4.8649 0.0313,0.0846 0.0341,0.1771 0.0076,0.2634 C 20.3073,24.9774 20,26.9508 20,29 c 0,0.2959 0.0064,0.5903 0.0191,0.8829 3e-4,0.0065 -2e-4,0.013 -0.0013,0.0195 l -0.0153,0.0841 c -0.0013,0.0072 0.0039,0.0139 0.0112,0.0143 0.0062,3e-4 0.0111,0.0053 0.0114,0.0115 0.0011,0.0228 0.0023,0.0456 0.0035,0.0684 0.0028,0.0517 0.0494,0.0897 0.1007,0.0825 0.199,-0.0279 0.4055,-0.0531 0.6188,-0.0748 0.0125,-0.0013 0.0231,-0.0098 0.0269,-0.0218 0.0045,-0.0136 0.0175,-0.0225 0.0318,-0.0217 l 0.2574,0.0143 C 21.5156,30.0217 21.9953,30 22.5,30 c 1.8174,0 3.3652,0.5393 4.8533,1.0578 C 28.7311,31.5378 30.0578,32 31.5,32 c 1.5453,0 2.759,-0.1382 3.5609,-0.2811 0.3508,-0.0625 0.6419,0.3134 0.434,0.6028 C 35.0205,32.9821 34.3139,33.7287 33.5,34 33.1764,34.1079 32.6434,34.1692 31.9913,34.2443 29.6207,34.517 25.6764,34.9708 24.5,38.5 l -0.0367,0.1592 c -0.0139,0.0603 -0.0137,0.1231 0.0011,0.1833 0.4219,1.7117 1.1194,3.315 2.0426,4.7601 0.0202,0.0316 0.0449,0.0602 0.0733,0.0848 C 29.6874,46.3822 33.6647,48 38,48 47.9411,48 56,39.4934 56,29 56,24.8757 54.7551,21.0584 52.6403,17.9438 52.3693,17.5447 52.9012,16.9677 53.2646,17.285 58.6179,21.9595 62,28.8348 62,36.5 62,50.5833 50.5833,62 36.5,62 22.4167,62 11,50.5833 11,36.5 Z" clip-rule="evenodd"/><path id="path7" fill="#f1b31c" d="m 22.5,30 c -2.8,0 -4.8333,0.6667 -5.5,1 0,0 2,4 6,4 0,0 1,2 2,6 0.5,-6.5 7,-6.5 8.5,-7 1.2,-0.4 2.1667,-1.8333 2.5,-2.5 -0.5,0.1667 -2.1,0.5 -4.5,0.5 -3,0 -5.5,-2 -9,-2 z"/><path id="path8" fill="#b399c8" fill-rule="evenodd" d="M 61.8836,34.387 C 60.6498,47.32 49.7562,57.4351 36.5,57.4351 23.2438,57.4351 12.3502,47.32 11.1164,34.387 11.0394,35.1939 11,36.0118 11,36.8389 c 0,14.0833 11.4167,25.5 25.5,25.5 14.0833,0 25.5,-11.4167 25.5,-25.5 0,-0.8271 -0.0394,-1.6449 -0.1164,-2.4519 z" clip-rule="evenodd"/></g><g id="line" transform="translate(-10,-8.3779392)"><path id="path9" fill="none" stroke="#000" stroke-linecap="round" stroke-linejoin="round" stroke-width="2" d="m 52,37.85 c 0,-5.799 -4.701,-10.5 -10.5,-10.5 -0.8615,0 -1.6988,0.1038 -2.5,0.2995 4.592,1.1215 8,5.263 8,10.2005 0,4.9375 -3.408,9.0284 -8,10.15 -4,0.977 -11.5,-0.5 -14.5,-7"/><path id="path10" fill="none" stroke="#000" stroke-linecap="round" stroke-linejoin="round" stroke-width="2" d="M 55.0537,22.9043 C 49.9777,19.7645 45.9995,15.0196 43.8273,9.37788 40.1296,12.1465 37.332,16.0517 35.9529,20.5753 M 35,31.3902 C 32.7597,30.8964 30.9316,28.8204 29.2069,26.8618 28.7458,26.3381 28.2921,25.8229 27.8398,25.3484 27.3972,23.3541 27.0702,20.0724 28.5,19 26.522,19 24.1816,21.2643 22.7667,22.9936 22.1412,22.9352 21.5,22.95 20.9159,23 l 0.0015,-0.0047 C 20.3247,21.4438 20,19.7598 20,18 20,17.6736 20.0112,17.3498 20.0331,17.029 14.5078,21.7066 11,28.6937 11,36.5 c 0,0.0566 2e-4,0.113 6e-4,0.1695 -4e-4,0.0564 -6e-4,0.1129 -6e-4,0.1694 0,14.0833 11.4167,25.5 25.5,25.5 14.0833,0 25.5,-11.4167 25.5,-25.5 0,-0.0565 -2e-4,-0.113 -5e-4,-0.1694 C 61.9998,36.613 62,36.5566 62,36.5 62,28.9478 58.7169,22.1624 53.5,17.4931"/><path id="path11" fill="none" stroke="#000" stroke-linecap="round" stroke-width="2" d="M 30,24.4644 C 31.795,23.5289 33.8357,23 36,23 c 2.3679,0 4.5879,0.6331 6.5,1.7392"/></g></svg>