<svg xmlns="http://www.w3.org/2000/svg" xmlns:svg="http://www.w3.org/2000/svg" id="emoji" width="58" height="58" version="1.1" viewBox="0 0 58 58"><g id="color" transform="translate(-7,-7)"><circle id="circle1" cx="36" cy="36" r="28" fill="#92d3f5"/><path id="path1" fill="#61b2e4" d="M 15.5122,55.0858 55.0854,15.5126 c 0.2429,0.2264 0.4828,0.458 0.7195,0.6947 10.9347,10.9347 10.9347,28.6633 0,39.598 -10.9347,10.9347 -28.6633,10.9347 -39.598,0 -0.2367,-0.2367 -0.4683,-0.4766 -0.6947,-0.7195 z"/><path id="path2" fill="#fff" d="M 33.2,33.2 24,48 38.8,38.8"/><path id="path3" fill="#ea5a47" d="M 33.2,33.2 48,24 38.8,38.8"/><g id="g27"><path id="path4" fill="none" stroke="#fff" stroke-linecap="round" stroke-linejoin="round" stroke-width="2" d="M 36,14 V 11"/><path id="path5" fill="none" stroke="#fff" stroke-linecap="round" stroke-linejoin="round" stroke-width="2" d="M 36,61 V 58"/><path id="path6" fill="none" stroke="#fff" stroke-linecap="round" stroke-linejoin="round" stroke-width="2" d="m 58,36 h 3"/><path id="path7" fill="none" stroke="#fff" stroke-linecap="round" stroke-linejoin="round" stroke-width="2" d="m 11,36 h 3"/><path id="path8" fill="none" stroke="#fff" stroke-linecap="round" stroke-linejoin="round" stroke-width="2" d="m 51.5564,20.4436 2.1213,-2.1213"/><path id="path9" fill="none" stroke="#fff" stroke-linecap="round" stroke-linejoin="round" stroke-width="2" d="m 18.3223,53.6777 2.1214,-2.1214"/><path id="path10" fill="none" stroke="#fff" stroke-linecap="round" stroke-linejoin="round" stroke-width="2" d="m 51.5563,51.5563 2.1214,2.1214"/><path id="path11" fill="none" stroke="#fff" stroke-linecap="round" stroke-linejoin="round" stroke-width="2" d="m 18.3223,18.3223 2.1213,2.1213"/><path id="path12" fill="none" stroke="#fff" stroke-linecap="round" stroke-linejoin="round" stroke-width="2" d="m 47,16.9474 1.5,-2.598"/><path id="path13" fill="none" stroke="#fff" stroke-linecap="round" stroke-linejoin="round" stroke-width="2" d="M 23.5,57.6506 25,55.0526"/><path id="path14" fill="none" stroke="#fff" stroke-linecap="round" stroke-linejoin="round" stroke-width="2" d="m 55.0526,47 2.598,1.5"/><path id="path15" fill="none" stroke="#fff" stroke-linecap="round" stroke-linejoin="round" stroke-width="2" d="m 14.3494,23.5 2.598,1.5"/><path id="path16" fill="none" stroke="#fff" stroke-linecap="round" stroke-linejoin="round" stroke-width="2" d="m 57.2504,30.306 2.8978,-0.7765"/><path id="path17" fill="none" stroke="#fff" stroke-linecap="round" stroke-linejoin="round" stroke-width="2" d="M 11.8519,42.4705 14.7496,41.694"/><path id="path18" fill="none" stroke="#fff" stroke-linecap="round" stroke-linejoin="round" stroke-width="2" d="m 41.694,57.2504 0.7765,2.8977"/><path id="path19" fill="none" stroke="#fff" stroke-linecap="round" stroke-linejoin="round" stroke-width="2" d="m 29.5295,11.8519 0.7765,2.8977"/><path id="path20" fill="none" stroke="#fff" stroke-linecap="round" stroke-linejoin="round" stroke-width="2" d="m 55.0526,25 2.598,-1.5"/><path id="path21" fill="none" stroke="#fff" stroke-linecap="round" stroke-linejoin="round" stroke-width="2" d="M 14.3494,48.5 16.9474,47"/><path id="path22" fill="none" stroke="#fff" stroke-linecap="round" stroke-linejoin="round" stroke-width="2" d="m 47,55.0526 1.5,2.598"/><path id="path23" fill="none" stroke="#fff" stroke-linecap="round" stroke-linejoin="round" stroke-width="2" d="m 23.5,14.3494 1.5,2.598"/><path id="path24" fill="none" stroke="#fff" stroke-linecap="round" stroke-linejoin="round" stroke-width="2" d="m 57.2504,41.694 2.8978,0.7765"/><path id="path25" fill="none" stroke="#fff" stroke-linecap="round" stroke-linejoin="round" stroke-width="2" d="m 11.8519,29.5295 2.8977,0.7765"/><path id="path26" fill="none" stroke="#fff" stroke-linecap="round" stroke-linejoin="round" stroke-width="2" d="m 30.306,57.2504 -0.7765,2.8977"/><path id="path27" fill="none" stroke="#fff" stroke-linecap="round" stroke-linejoin="round" stroke-width="2" d="M 42.4705,11.8519 41.694,14.7496"/></g></g><g id="line" transform="translate(-7,-7)"><path id="path28" fill="none" stroke="#000" stroke-linecap="round" stroke-linejoin="round" stroke-width="2" d="M 36,64 C 51.464,64 64,51.464 64,36 64,20.536 51.464,8 36,8 20.536,8 8,20.536 8,36 8,51.464 20.536,64 36,64 Z"/><path id="path29" fill="none" stroke="#000" stroke-linecap="round" stroke-linejoin="round" stroke-width="2" d="M 33.2,33.2 24,48 38.8,38.8"/><path id="path30" fill="none" stroke="#000" stroke-linecap="round" stroke-linejoin="round" stroke-width="2" d="M 33.2,33.2 48,24 38.8,38.8"/></g></svg>