<svg xmlns="http://www.w3.org/2000/svg" xmlns:svg="http://www.w3.org/2000/svg" id="emoji" width="58" height="58" version="1.1" viewBox="0 0 58 58"><g id="color" transform="translate(-7,-7)"><circle id="circle1" cx="36" cy="36" r="28" fill="#92d3f5"/><path id="path1" fill="#92d3f5" fill-rule="evenodd" d="m 34.3116,27.1581 0.008,0.0467 c 2.0031,-0.3473 4.1346,-0.0214 6.0328,1.0745 4.3047,2.4853 5.7795,7.9896 3.2943,12.2942 L 30.3856,63.5424 C 41.8282,65.8209 53.9433,60.7391 60.1011,50.0735 64.3105,42.7826 64.8683,34.3855 62.3419,27 H 36 c -0.5771,0 -1.1415,0.0543 -1.6884,0.1581 z" clip-rule="evenodd"/><path id="path2" fill="#61b2e4" fill-rule="evenodd" d="M 27,43.5 8.20227,32.6171 C 9.87243,18.7484 21.681,8 36,8 48.3156,8 58.7741,15.9511 62.5222,27 H 36 c -4.9706,0 -9,4.0294 -9,9 0,2.1919 0.7836,4.2008 2.0858,5.7618 z" clip-rule="evenodd"/><circle id="circle2" cx="36" cy="36" r="9" fill="#61b2e4"/></g><g id="line" transform="translate(-7,-7)"><circle id="circle3" cx="36" cy="36" r="10" fill="none" stroke="#000" stroke-width="2"/><path id="path3" fill="none" stroke="#000" stroke-linecap="round" stroke-width="2" d="m 44.6602,41 -11.5,19.9186"/><path id="path4" fill="none" stroke="#000" stroke-linecap="round" stroke-width="2" d="M 11.0814,33.1603 31,44.6603"/><path id="path5" fill="none" stroke="#000" stroke-linecap="round" stroke-width="2" d="M 36,26 H 59"/><circle id="circle5" cx="36" cy="36" r="28" fill="none" stroke="#000" stroke-width="2"/></g></svg>