<?xml version="1.0" encoding="UTF-8" standalone="no"?>
<svg
   id="emoji"
   viewBox="0 0 52 52"
   version="1.1"
   sodipodi:docname="e055.svg"
   width="52"
   height="52"
   xmlns:inkscape="http://www.inkscape.org/namespaces/inkscape"
   xmlns:sodipodi="http://sodipodi.sourceforge.net/DTD/sodipodi-0.dtd"
   xmlns="http://www.w3.org/2000/svg"
   xmlns:svg="http://www.w3.org/2000/svg">
  <defs
     id="defs7" />
  <sodipodi:namedview
     id="namedview7"
     pagecolor="#ffffff"
     bordercolor="#000000"
     borderopacity="0.25"
     inkscape:showpageshadow="2"
     inkscape:pageopacity="0.0"
     inkscape:pagecheckerboard="0"
     inkscape:deskcolor="#d1d1d1" />
  <g
     id="color"
     transform="translate(-10,-10)">
    <path
       fill="#61b2e4"
       d="M 58,11 H 14 c -1.6569,0 -3,1.3431 -3,3 v 44 c 0,1.6569 1.3431,3 3,3 h 44 c 1.6569,0 3,-1.3431 3,-3 V 14 c 0,-1.6569 -1.3431,-3 -3,-3 z"
       id="path1" />
    <path
       fill="#3f3f3f"
       fill-rule="evenodd"
       d="M 61,46.2467 C 53.3528,42.8732 44.8952,41 36,41 27.1048,41 18.6472,42.8732 11,46.2467 V 58 c 0,1.6569 1.3431,3 3,3 h 44 c 1.6569,0 3,-1.3431 3,-3 z"
       id="path2" />
    <g
       id="g4">
      <path
         fill="#ffffff"
         fill-rule="evenodd"
         d="m 44,19 h -1 v 3 h 1 c 1.1046,0 2,0.8954 2,2 V 39 L 29,20 h -8 v 3 h 2 c 1.1046,0 2,0.8954 2,2 v 17 c 0,1.1046 -0.8954,2 -2,2 h -1 v 3 h 9 v -3 h -1 c -1.1046,0 -2,-0.8954 -2,-2 V 25 l 13.9564,16.2824 c 2.39,0.2278 4.7405,0.5913 7.0436,1.0827 V 24 c 0,-1.1046 0.8954,-2 2,-2 h 1 v -3 z"
         id="path3" />
      <path
         fill="#ffffff"
         d="m 43,19 v -1 c -0.5523,0 -1,0.4477 -1,1 z m 0,3 h -1 c 0,0.5523 0.4477,1 1,1 z m 3,17 -0.7452,0.6668 c 0.2764,0.309 0.7148,0.4153 1.1021,0.2673 C 46.7442,39.7862 47,39.4146 47,39 Z M 29,20 29.7452,19.3332 C 29.5555,19.1212 29.2845,19 29,19 Z m -8,0 v -1 c -0.5523,0 -1,0.4477 -1,1 z m 0,3 h -1 c 0,0.5523 0.4477,1 1,1 z m 4,2 h -1 z m 0,17 h 1 z m -3,2 v -1 c -0.5523,0 -1,0.4477 -1,1 z m 0,3 h -1 c 0,0.2652 0.1054,0.5196 0.2929,0.7071 C 21.4804,47.8946 21.7348,48 22,48 Z m 9,0 v 1 c 0.5523,0 1,-0.4477 1,-1 z m 0,-3 h 1 c 0,-0.5523 -0.4477,-1 -1,-1 z m -3,-2 h 1 z m 0,-17 0.7593,-0.6508 C 28.4869,24.0315 28.0455,23.9169 27.6531,24.0621 27.2606,24.2073 27,24.5815 27,25 Z m 13.9564,16.2824 -0.7593,0.6508 c 0.1685,0.1966 0.4066,0.3201 0.6644,0.3447 z M 49,42.3651 l -0.2087,0.978 c 0.2952,0.063 0.6031,-0.0107 0.8377,-0.2006 C 49.8637,42.9527 50,42.667 50,42.3651 Z M 52,22 v 1 c 0.5523,0 1,-0.4477 1,-1 z m 0,-3 h 1 c 0,-0.5523 -0.4477,-1 -1,-1 z m -9,1 h 1 v -2 h -1 z m 1,2 v -3 h -2 v 3 z m 0,-1 h -1 v 2 h 1 z m 3,3 c 0,-1.6569 -1.3431,-3 -3,-3 v 2 c 0.5523,0 1,0.4477 1,1 z m 0,15 V 24 h -2 v 15 z m -18.7452,-18.3332 17,19 1.4904,-1.3336 -17,-19 z M 28,21 h 1 v -2 h -1 z m -5,0 h 5 v -2 h -5 z m -2,0 h 2 v -2 h -2 z m 1,2 v -3 h -2 v 3 z m 1,-1 h -2 v 2 h 2 z m 3,3 c 0,-1.6569 -1.3431,-3 -3,-3 v 2 c 0.5523,0 1,0.4477 1,1 z m 0,17 V 25 h -2 v 17 z m -3,3 c 1.6569,0 3,-1.3431 3,-3 h -2 c 0,0.5523 -0.4477,1 -1,1 z m -1,0 h 1 v -2 h -1 z m 1,2 v -3 h -2 v 3 z m 0,-1 h -1 v 2 h 1 z m 7,0 h -7 v 2 h 7 z m 1,0 h -1 v 2 h 1 z m -1,-2 v 3 h 2 v -3 z m 0,1 h 1 v -2 h -1 z m -3,-3 c 0,1.6569 1.3431,3 3,3 v -2 c -0.5523,0 -1,-0.4477 -1,-1 z m 0,-17 v 17 h 2 V 25 Z M 42.7156,40.6316 28.7593,24.3492 27.2407,25.6508 41.1971,41.9332 Z m 6.4931,0.7555 c -2.3405,-0.4993 -4.729,-0.8687 -7.1574,-1.1002 l -0.1898,1.991 c 2.3516,0.2242 4.6641,0.5818 6.9298,1.0652 z M 48,42 v 0.3651 h 2 V 42 Z m 0,-18 v 18 h 2 V 24 Z m 3,-3 c -1.6569,0 -3,1.3431 -3,3 h 2 c 0,-0.5523 0.4477,-1 1,-1 z m 1,0 h -1 v 2 h 1 z m -1,-2 v 3 h 2 v -3 z m 0,1 h 1 v -2 h -1 z m -7,0 h 7 v -2 h -7 z"
         id="path4" />
    </g>
  </g>
  <g
     id="line"
     transform="translate(-10,-10)">
    <path
       fill="none"
       stroke="#000000"
       stroke-miterlimit="10"
       stroke-width="2"
       d="M 58,11 H 14 c -1.6569,0 -3,1.3431 -3,3 v 44 c 0,1.6569 1.3431,3 3,3 h 44 c 1.6569,0 3,-1.3431 3,-3 V 14 c 0,-1.6569 -1.3431,-3 -3,-3 z"
       id="path5" />
    <path
       fill="none"
       stroke="#000000"
       stroke-linecap="round"
       stroke-linejoin="round"
       stroke-width="2"
       d="M 40,39 C 36.1331,34.4886 32.7808,30.5776 28,25 v 17 c 0,1.1046 0.8954,2 2,2 h 1 v 3 h -9 v -3 h 1 c 1.1046,0 2,-0.8954 2,-2 V 25 c 0,-1.1046 -0.8954,-2 -2,-2 h -2 v -3 h 8 L 46,39 V 24 c 0,-1.1046 -0.8954,-2 -2,-2 h -1 v -3 h 9 v 3 h -1 c -1.1046,0 -2,0.8954 -2,2 v 16"
       id="path6" />
    <path
       fill="none"
       stroke="#000000"
       stroke-linecap="round"
       stroke-width="2"
       d="M 61,46.2467 C 53.3528,42.8732 44.8952,41 36,41 c -1.6832,0 -3.3507,0.0671 -5,0.1987 m -20,5.048 c 2.8909,-1.2753 5.8976,-2.3362 9,-3.1625"
       id="path7" />
  </g>
</svg>
