<?xml version="1.0" encoding="UTF-8" standalone="no"?>
<svg
   id="emoji"
   viewBox="0 0 49.99902 49.998989"
   version="1.1"
   sodipodi:docname="e056.svg"
   width="49.99902"
   height="49.998989"
   xmlns:inkscape="http://www.inkscape.org/namespaces/inkscape"
   xmlns:sodipodi="http://sodipodi.sourceforge.net/DTD/sodipodi-0.dtd"
   xmlns="http://www.w3.org/2000/svg"
   xmlns:svg="http://www.w3.org/2000/svg">
  <defs
     id="defs6" />
  <sodipodi:namedview
     id="namedview6"
     pagecolor="#ffffff"
     bordercolor="#000000"
     borderopacity="0.25"
     inkscape:showpageshadow="2"
     inkscape:pageopacity="0.0"
     inkscape:pagecheckerboard="0"
     inkscape:deskcolor="#d1d1d1" />
  <g
     id="color"
     transform="translate(-11.000989,-11.000989)">
    <path
       fill="#ffffff"
       d="m 26.7202,38.0016 c 10.1533,16.7933 17.0133,0.2112 17.0133,0.2112 z"
       id="path1" />
    <g
       id="g3">
      <path
         fill="#61b2e4"
         fill-rule="evenodd"
         d="M 58.9787,37 C 58.9928,36.6684 59,36.3351 59,36 59,23.2975 48.7025,13 36,13 23.2975,13 13,23.2975 13,36 13,48.7025 23.2975,59 36,59 46.6402,59 55.5929,51.7748 58.2195,41.963 H 45.2451 C 43.2862,44.9939 39.8774,47 36,47 30.262,47 25.5501,42.6065 25.0449,37 Z M 45.8006,31 C 43.9799,27.4383 40.2747,25 36,25 c -4.2747,0 -7.9799,2.4383 -9.8006,6 z"
         id="path2" />
      <path
         fill="#61b2e4"
         d="m 58.9787,37 v 1 c 0.5356,0 0.9761,-0.4221 0.999,-0.9573 z m -0.7592,4.963 0.966,0.2585 C 59.2659,41.9213 59.202,41.6007 59.0128,41.3541 58.8235,41.1075 58.5303,40.963 58.2195,40.963 Z m -12.9744,0 v -1 c -0.3394,0 -0.6556,0.1721 -0.8398,0.4571 z M 25.0449,37 v -1 c -0.2809,0 -0.5488,0.1181 -0.7382,0.3254 -0.1895,0.2073 -0.283,0.4847 -0.2578,0.7644 z m 20.7557,-6 v 1 c 0.3482,0 0.6713,-0.1811 0.853,-0.4781 0.1817,-0.2969 0.1959,-0.6671 0.0374,-0.9771 z M 26.1994,31 25.309,30.5448 c -0.1585,0.31 -0.1443,0.6802 0.0374,0.9771 C 25.5282,31.8189 25.8513,32 26.1994,32 Z M 58,36 c 0,0.3208 -0.0069,0.6399 -0.0204,0.9573 l 1.9981,0.0854 C 59.9925,36.6969 60,36.3493 60,36 Z M 36,14 c 12.1503,0 22,9.8497 22,22 h 2 C 60,22.7452 49.2548,12 36,12 Z M 14,36 C 14,23.8497 23.8497,14 36,14 V 12 C 22.7452,12 12,22.7452 12,36 Z M 36,58 C 23.8497,58 14,48.1503 14,36 h -2 c 0,13.2548 10.7452,24 24,24 z M 57.2535,41.7044 C 54.7411,51.0899 46.1762,58 36,58 v 2 C 47.1043,60 56.4448,52.4596 59.1855,42.2215 Z M 45.2451,42.963 h 12.9744 v -2 H 45.2451 Z M 36,48 c 4.2309,0 7.9496,-2.1903 10.085,-5.4942 L 44.4053,41.4201 C 42.6228,44.1781 39.5239,46 36,46 Z M 24.0489,37.0898 C 24.6001,43.207 29.7398,48 36,48 v -2 c -5.2158,0 -9.5,-3.994 -9.9592,-9.0898 z M 58.9787,36 H 25.0449 v 2 H 58.9787 Z M 36,26 c 3.8847,0 7.2537,2.2148 8.9102,5.4552 L 46.691,30.5448 C 44.706,26.6618 40.6647,24 36,24 Z m -8.9102,5.4552 C 28.7463,28.2148 32.1154,26 36,26 v -2 c -4.6647,0 -8.706,2.6618 -10.691,6.5448 z M 45.8006,30 H 26.1994 v 2 h 19.6012 z"
         id="path3" />
    </g>
    <path
       fill="#fcea2b"
       fill-rule="evenodd"
       d="m 59.9989,25.3658 c -0.3613,-2.6684 -1.408,-5.0042 -3.192,-6.7882 -6.4964,-6.4965 -20.3106,-3.2152 -30.8547,7.329 -10.5442,10.5441 -13.8255,24.3583 -7.329,30.8547 1.8526,1.8526 4.3003,2.9101 7.0976,3.2307 -4.0602,0.1159 -7.6284,-1.0258 -10.1577,-3.5551 -6.9459,-6.9458 -3.4267,-21.7265 7.8603,-33.0135 11.287,-11.287 26.0677,-14.8062 33.0135,-7.8603 2.4554,2.4553 3.603,5.8897 3.562,9.8027 z"
       id="path4" />
  </g>
  <g
     id="line"
     transform="translate(-11.000989,-11.000989)">
    <path
       fill="none"
       stroke="#000000"
       stroke-linecap="round"
       stroke-linejoin="round"
       stroke-width="2"
       d="M 17.8799,50.1671 C 22.0899,55.5443 28.6414,59 36,59 46.6402,59 55.5929,51.7748 58.2195,41.963 H 45.2451 C 43.2862,44.9939 39.8774,47 36,47 30.262,47 25.5501,42.6065 25.0449,37 H 58.9787 C 58.9928,36.6684 59,36.3351 59,36 59,28.5654 55.4725,21.9547 50,17.7503 M 13.1939,33 C 14.4923,23.0325 22.1723,15.07 32,13.3466 M 36,25 c 4.2747,0 7.9799,2.4383 9.8006,6 H 26.1994 C 28.0201,27.4383 31.7253,25 36,25 Z"
       id="path5" />
    <path
       d="m 56.8069,18.5776 -0.7071,0.7071 v 0 z m 3.192,6.7882 L 59.008,25.5 c 0.0703,0.5194 0.5298,0.8964 1.053,0.8639 0.5231,-0.0325 0.9324,-0.4635 0.9379,-0.9876 z m -34.0467,0.5408 0.7071,0.7071 z m -7.329,30.8547 -0.7072,0.7071 v 0 l 0.7071,-0.7071 z m 7.0976,3.2307 0.0285,0.9996 c 0.5244,-0.015 0.9481,-0.4327 0.9705,-0.9568 0.0225,-0.5242 -0.364,-0.9765 -0.8852,-1.0363 z m -10.1577,-3.5551 0.7071,-0.7071 v 0 z m 7.8603,-33.0135 0.7071,0.7071 z m 33.0135,-7.8603 -0.7071,0.7071 z m -0.3371,3.7216 c 1.6052,1.6052 2.5713,3.7275 2.9082,6.2153 l 1.9819,-0.2684 c -0.3858,-2.849 -1.5131,-5.3983 -3.4759,-7.3611 z m -29.4405,7.329 c 5.1626,-5.1626 11.0933,-8.512 16.4692,-9.7889 5.3942,-1.2813 10.0598,-0.4516 12.9713,2.4599 L 57.514,17.8705 C 53.9291,14.2855 48.4393,13.5076 42.6663,14.8789 36.875,16.2545 30.6266,19.8179 25.245,25.1995 Z m -7.329,29.4405 C 16.4187,53.1427 15.5891,48.4771 16.8704,43.0829 18.1473,37.707 21.4967,31.7763 26.6593,26.6137 L 25.245,25.1995 c -5.3815,5.3815 -8.9449,11.6299 -10.3205,17.4212 -1.3713,5.773 -0.5934,11.2628 2.9915,14.8477 z m 6.5043,2.9443 c -2.613,-0.2995 -4.8379,-1.2778 -6.5043,-2.9443 l -1.4142,1.4142 c 2.0387,2.0388 4.7093,3.1754 7.6908,3.5171 z m -0.1424,-0.0061 c -3.8598,0.1102 -7.1344,-0.975 -9.422,-3.2626 L 14.856,57.144 c 2.771,2.7711 6.6329,3.9692 10.8933,3.8476 z m -9.422,-3.2626 C 13.1344,52.594 12.2513,47.575 13.6287,41.7897 15.0018,36.023 18.5963,29.6647 24.1305,24.1305 L 22.7163,22.7163 C 16.9635,28.4691 13.155,35.1447 11.6831,41.3265 10.2157,47.4898 11.0459,53.334 14.856,57.144 Z M 24.1305,24.1305 C 29.6647,18.5963 36.023,15.0018 41.7897,13.6287 47.575,12.2513 52.594,13.1344 55.7298,16.2702 L 57.144,14.856 C 53.334,11.0459 47.4898,10.2157 41.3265,11.6831 35.1447,13.155 28.4691,16.9635 22.7163,22.7163 Z m 31.5993,-7.8603 c 2.2211,2.2211 3.3081,5.3714 3.2692,9.0851 l 1.9999,0.021 C 61.0419,21.264 59.8336,17.5455 57.144,14.856 Z"
       id="path6" />
  </g>
</svg>
