<svg xmlns="http://www.w3.org/2000/svg" xmlns:svg="http://www.w3.org/2000/svg" id="emoji" width="58.515" height="58.013" version="1.1" viewBox="0 0 58.515 58.013"><g id="color" transform="translate(-7,-7)"><path id="path1" fill="#61b2e4" d="M 29,36.5 V 32 c -2.1667,0 -6.5,2.7 -6.5,13.5 0,10.8 8.6667,16.8333 13,18.5 0.6667,0 3.6,-0.4 10,-2 6.4,-1.6 11.3333,-7.3333 13,-10 -5.1667,1.6667 -17,3.6 -23,-2 -6,-5.6 -6.8333,-11.3333 -6.5,-13.5 z"/><path id="path2" fill="#92d3f5" fill-rule="evenodd" d="M 63.3049,26.2072 C 59.2885,15.0096 48.5796,7 36,7 19.9837,7 7,19.9837 7,36 7,52.0163 19.9837,65 36,65 36.1937,65 36.3869,64.9981 36.5797,64.9943 28.1007,62.4485 22,55.3538 22,47 22,36.5066 24.5,28.5 40.5,28.5 c 6.7548,0 13.7528,2.591 18.5315,6.7569 z" clip-rule="evenodd"/><path id="path3" fill="#92d3f5" fill-rule="evenodd" d="M 64.9111,33.7122 C 64.8662,33.1366 64.8044,32.5657 64.7264,32 62.7779,17.8766 50.6591,7 36,7 21.2487,7 9.0698,18.0138 7.23807,32.2668 c 1.28508,-1.105 2.22933,-2.4875 3.14053,-3.8215 1.1978,-1.7539 2.3385,-3.424 4.1214,-4.2697 8.3824,-3.9763 18.6973,-1.9904 23.4544,2.7666 3.4941,3.4942 4.4141,8.908 3.0805,14.8581 0.9264,1.2048 2.4059,2.4423 4.4651,2.6997 4,0.5 14.5,-2 18,-8 0.5321,-0.9122 1.0004,-1.8508 1.4111,-2.7878 z" clip-rule="evenodd"/><path id="path4" fill="#61b2e4" fill-rule="evenodd" d="M 41.5654,38.2603 C 44.9644,34.226 47,29.091 47,23.5 47,17.2254 44.4362,11.5252 40.2587,7.31049 52.9522,9.17851 62.9702,19.2705 64.7264,32 c 0.0781,0.5657 0.1398,1.1366 0.1847,1.7121 -0.4107,0.9371 -0.879,1.8757 -1.4111,2.7879 -3.5,6 -14,8.5 -18,8 -2.0592,-0.2574 -3.5387,-1.4949 -4.4651,-2.6997 0.2703,-1.2059 0.448,-2.3897 0.5305,-3.54 z" clip-rule="evenodd"/></g><g id="line" transform="translate(-7,-7)"><path id="path5" fill="none" stroke="#000" stroke-linecap="round" stroke-linejoin="round" stroke-width="2" d="m 28,36 c 0,12 12,17.5 20,17.5 6.4,0 10.6667,-1.6667 12,-2.5 C 57,55.5 48,64.4 36,64 31.5,62.3333 22.5,56.4 22.5,46 22.5,33 32,28 36,28"/><path id="path6" fill="none" stroke="#000" stroke-linecap="round" stroke-linejoin="round" stroke-width="2" d="M 12,21.5 C 15,16.3333 23,8 36,8 52.5076,8 65,19 64.5,30.5 64,42 55,45 48.5,45 c -5.2,0 -7.3169,-3 -7.7253,-4.5 1.0227,-1.4316 1.7253,-3.1126 1.7253,-5 0,-6.5 -8,-14 -18.5,-14 -7.5,0 -16,2 -16,14"/><path id="path7" fill="none" stroke="#000" stroke-linecap="round" stroke-linejoin="round" stroke-width="2" d="M 8,36 C 8,52 21,62 29,63"/></g></svg>