<?xml version="1.0" encoding="UTF-8" standalone="no"?>
<svg
   id="emoji"
   viewBox="0 0 60.000099 60"
   version="1.1"
   sodipodi:docname="e05c.svg"
   width="60.000099"
   height="60"
   xmlns:inkscape="http://www.inkscape.org/namespaces/inkscape"
   xmlns:sodipodi="http://sodipodi.sourceforge.net/DTD/sodipodi-0.dtd"
   xmlns="http://www.w3.org/2000/svg"
   xmlns:svg="http://www.w3.org/2000/svg">
  <defs
     id="defs17" />
  <sodipodi:namedview
     id="namedview17"
     pagecolor="#ffffff"
     bordercolor="#000000"
     borderopacity="0.25"
     inkscape:showpageshadow="2"
     inkscape:pageopacity="0.0"
     inkscape:pagecheckerboard="0"
     inkscape:deskcolor="#d1d1d1" />
  <g
     id="color"
     transform="translate(-6.0417,-6)">
    <path
       fill="#ffffff"
       d="M 26.2806,46.9744 V 28.6516 c 0,0 0.2051,-4.1558 5.3376,-4.1346 5.1325,0.0212 8.9965,0.0213 8.9965,0.0213 0,0 9.2334,1.134 7.3589,8.9805 -1.8745,7.8465 -4.7414,8.2204 -12.22,8.3451 l -9.0057,7.6503 -0.4673,-2.5399 z"
       id="path1" />
    <path
       fill="#ea5a47"
       d="m 38.795,24.2591 c 0.011,-0.0335 0.018,-0.0682 0.021,-0.1034 10e-4,-0.0119 0.0069,-0.022 0.0069,-0.0341 -0.0026,-0.0201 -0.0066,-0.0399 -0.012,-0.0594 3e-4,-0.0223 -9e-4,-0.0445 -0.0036,-0.0666 -2.1175,-8.1217 -10.418,-12.9891 -18.5398,-10.8716 -3.1774,0.8284 -6.001,2.6636 -8.0481,5.2309 -0.0342,0.0246 -0.0651,0.0535 -0.0918,0.0861 -7.4461,10.4136 -7.3282,24.4406 0.292,34.7275 0.1642,0.2216 0.4769,0.2682 0.6986,0.104 2e-4,-2e-4 4e-4,-3e-4 6e-4,-5e-4 l 0.008,-0.009 0.0086,-0.0027 c 0.224,-0.1615 0.2751,-0.4738 0.1142,-0.6982 -4.5721,-6.3718 -3.1133,-15.2436 3.2585,-19.8157 2.4129,-1.7314 5.3079,-2.6627 8.2777,-2.6629 0.48,0 0.9677,0.0245 1.4531,0.0733 0.0137,0.0014 0.0268,-0.0045 0.04,-0.0043 0.0132,2e-4 0.023,0.0072 0.0357,0.0072 0.2761,0 0.5,-0.2239 0.5,-0.5 v -0.1533 c 0.0029,-2.6962 2.1876,-4.8814 4.8838,-4.8848 h 6.624 c 0.0425,0 0.0848,-0.0052 0.126,-0.0156 0.0126,-0.0034 0.0217,-0.0124 0.0339,-0.0166 0.0923,-0.0288 0.1725,-0.087 0.2285,-0.1658 0.0415,-0.0468 0.0704,-0.1034 0.0837,-0.1645 z"
       id="path2" />
    <path
       fill="#d22f27"
       d="m 38.8107,24.0622 c 5e-4,-0.0223 -6e-4,-0.0445 -0.0034,-0.0666 C 36.695,15.8779 28.4019,11.0097 20.2843,13.122 c -2.6712,0.6951 -5.1024,2.1049 -7.0325,4.078 7.4022,-3.9146 16.5763,-1.0873 20.4909,6.315 0.1912,0.3616 0.3678,0.7308 0.5291,1.1067 h 4.0515 c 0.0425,0 0.0848,-0.0052 0.126,-0.0156 0.0126,-0.0034 0.0214,-0.0124 0.0336,-0.0166 0.0311,-0.0114 0.0608,-0.026 0.0889,-0.0435 0.0278,-0.0151 0.0541,-0.0328 0.0786,-0.0528 0.0226,-0.0211 0.043,-0.0444 0.0611,-0.0695 0.0208,-0.0247 0.039,-0.0515 0.0542,-0.08 0.0255,-0.0598 0.0426,-0.1229 0.0507,-0.1875 10e-4,-0.0119 0.0069,-0.022 0.0069,-0.0341 -0.0027,-0.0203 -0.0069,-0.0403 -0.0126,-0.0599 z"
       id="path3" />
    <path
       fill="#f4aa41"
       d="m 47.9169,34.247 c 0.0353,-0.0015 0.0703,-0.007 0.1043,-0.0165 0.0114,-0.0032 0.023,-0.0013 0.0343,-0.0055 0.0179,-0.0095 0.0351,-0.0202 0.0515,-0.032 0.0209,-0.0075 0.0413,-0.0164 0.061,-0.0267 5.6608,-3.9777 7.9205,-11.2767 5.4975,-17.7571 C 52.0374,12.0505 48.5704,9.2331 44.1489,7.7854 44.1125,7.7649 43.5789,7.4908 43.5361,7.4796 37.7899,5.7802 31.6475,5.9904 26.0309,8.0785 c -5.9334,2.1976 -10.9946,6.2593 -14.4248,11.5761 -0.1501,0.2314 -0.0843,0.5406 0.1471,0.6908 2e-4,10e-5 4e-4,3e-4 6e-4,4e-4 l 0.0112,0.0044 0.0056,0.0071 c 0.2297,0.1533 0.5401,0.0919 0.6941,-0.1373 4.3692,-6.5126 13.1906,-8.2502 19.7032,-3.881 2.4661,1.6545 4.3515,4.0405 5.3909,6.8224 0.1677,0.4492 0.3157,0.9151 0.44,1.3869 0.0034,0.0133 0.0136,0.0236 0.0182,0.0365 0.0046,0.0129 0.0013,0.024 0.0057,0.0359 0.0966,0.2587 0.3847,0.39 0.6434,0.2934 v 0 c 0,0 0.1436,-0.0536 0.1436,-0.0536 2.5231,-0.9425 7.1979,1.6706 8.14,4.1937 l 0.4623,4.8774 c 0.0149,0.0398 0.0346,0.0776 0.0588,0.1125 0.0075,0.0107 0.0192,0.016 0.0274,0.026 0.0591,0.0765 0.1418,0.1313 0.2353,0.156 0.0306,0.0108 0.0622,0.0184 0.0943,0.0227 0.0297,0.0023 0.0595,0.0017 0.0891,-0.0018 z"
       id="path4" />
    <path
       fill="#e27022"
       d="m 48.6187,34.4428 c 0.021,-0.0073 0.0415,-0.0162 0.0612,-0.0265 6.8654,-4.8191 8.5242,-14.2913 3.7051,-21.1567 -1.5858,-2.2592 -3.7573,-4.0435 -6.2811,-5.1611 6.2571,5.5646 6.8184,15.1479 1.2539,21.4049 -0.2718,0.3056 -0.5559,0.6001 -0.8515,0.8828 l 1.4177,3.7954 c 0.0148,0.0398 0.0345,0.0776 0.0587,0.1125 0.0076,0.0107 0.0191,0.0158 0.0273,0.0258 0.0216,0.0251 0.0457,0.0479 0.0719,0.068 0.0239,0.0208 0.0496,0.0392 0.0769,0.0552 0.0577,0.026 0.1184,0.0447 0.1808,0.0555 0.0297,0.0024 0.0596,0.0019 0.0892,-0.0016 0.0353,-0.0015 0.0702,-0.007 0.1042,-0.0165 0.0115,-0.0032 0.023,-0.0013 0.0343,-0.0055 0.0179,-0.0095 0.0351,-0.0202 0.0514,-0.0322 z"
       id="path5" />
    <path
       fill="#b1cc33"
       d="m 49.7537,11.1423 c 3.5792,2.9005 5.5188,7.3644 5.1967,11.96 -0.4089,4.5888 -3.0301,8.6898 -7.0231,10.9877 -0.6998,5.1177 -5.4157,8.6991 -10.5334,7.9993 -0.0663,-0.0091 -0.1325,-0.0188 -0.1986,-0.0293 1.78,5.689 8.0883,9.3666 14.0137,8.7158 C 57.1344,50.125 62.2825,45.5942 64.3131,39.9896 66.3437,34.385 63.9071,26.5433 61.8331,22.7345 59.766,18.9391 54.9932,13.4432 49.7537,11.1423 Z"
       id="path6" />
    <path
       fill="#5c9e31"
       d="m 52.6479,47.257 c -4.7436,0.4534 -9.3854,-1.5726 -12.2785,-5.359 -1.0469,0.2134 -2.1258,0.2171 -3.1741,0.0108 1.78,5.689 8.0884,9.3666 14.0137,8.7158 5.9253,-0.6508 11.0737,-5.1816 13.1042,-10.7862 0.0967,-0.2666 0.1741,-0.5427 0.251,-0.8188 -2.4478,4.474 -6.866,7.5282 -11.9163,8.2374 z"
       id="path7" />
    <path
       fill="#92d3f5"
       d="m 37.013,42.4657 c 3.8223,7.3391 12.8704,10.1901 20.2096,6.3678 2.7521,-1.4333 4.9913,-3.6858 6.4083,-6.4463 -1.314,12.7223 -12.6926,21.9706 -25.4149,20.6566 -1.4914,-0.154 -2.9643,-0.4525 -4.398,-0.8913 -4.8108,-1.6306 -7.7576,-6.4787 -6.99,-11.5 0.8856,-4.8276 5.7208,-8.5931 10.185,-8.1868 z"
       id="path8" />
    <path
       fill="#61b2e4"
       d="m 29.8513,46.7682 c -2.091,11.028 8.54,17.673 15.304,15.9089 C 32.5665,66.3008 27.15,56.0786 26.7479,49.5143 c 1.2079,-1.1089 1.6658,-1.4678 3.1034,-2.7461 z"
       id="path9" />
    <path
       fill="#b399c8"
       d="M 40.2554,64.3535 C 32.56,63.773 26.5343,57.4947 26.27,49.782 l 0.0016,-19.6892 c -5.3557,-0.9959 -11.0613,1.989 -13.7831,6.7078 -2.6234,4.8872 -2.6799,10.751 -0.1512,15.6879 2.5771,4.8656 6.8598,8.6084 12.0266,10.5108 5.0717,1.9048 10.5706,2.3734 15.8915,1.3542 z"
       id="path10" />
    <path
       fill="#8967aa"
       d="m 12.37,36.9481 c -1.4981,2.557 -2.1417,5.5251 -1.8372,8.473 0.1731,-2.0218 0.8011,-3.9784 1.8372,-5.7232 2.7557,-4.4668 7.9047,-6.866 13.0974,-6.1027 v -2.75 C 20.2747,30.0818 15.1256,32.4811 12.37,36.9481 Z"
       id="path11" />
  </g>
  <g
     id="line"
     transform="translate(-6.0417,-6)">
    <path
       fill="none"
       stroke="#000000"
       stroke-linecap="round"
       stroke-linejoin="round"
       stroke-width="2"
       d="m 12.4647,19.1348 c 5.0234,-6.3796 14.2673,-7.4791 20.6469,-2.4557 2.5189,1.9834 4.3205,4.7359 5.1303,7.838"
       id="path12" />
    <path
       fill="none"
       stroke="#000000"
       stroke-linecap="round"
       stroke-linejoin="round"
       stroke-width="2"
       d="m 44.4456,8.2722 c 7.7606,2.3916 12.1131,10.6216 9.7215,18.3822 -1.0445,3.3892 -3.2787,6.2868 -6.2909,8.1587"
       id="path13" />
    <path
       fill="none"
       stroke="#000000"
       stroke-linecap="round"
       stroke-linejoin="round"
       stroke-width="2"
       d="M 65.0418,36 C 65.0406,44.1194 58.4575,50.7004 50.3382,50.6992 44.5921,50.6983 39.3731,47.3497 36.9775,42.1268"
       id="path14" />
    <path
       fill="none"
       stroke="#000000"
       stroke-linecap="round"
       stroke-linejoin="round"
       stroke-width="2"
       d="M 46.2926,63.1262 C 38.7261,66.0813 30.1967,62.3431 27.2416,54.7766 26.5767,53.0742 26.2349,51.2627 26.2338,49.435"
       id="path15" />
    <path
       fill="none"
       stroke="#000000"
       stroke-linecap="round"
       stroke-linejoin="round"
       stroke-width="2"
       d="M 12.7623,53.2494 C 8.0292,46.6532 9.5395,37.4691 16.1357,32.736 c 2.4979,-1.7924 5.4949,-2.7564 8.5693,-2.7566 0.5019,0 1.0035,0.0252 1.5028,0.0759"
       id="path16" />
    <path
       fill="none"
       stroke="#000000"
       stroke-linecap="round"
       stroke-linejoin="round"
       stroke-width="2"
       d="m 36.0417,7 c -16.0163,0 -29,12.9837 -29,29 0,16.0163 12.9837,29 29,29 16.0163,0 29,-12.9837 29,-29 0,-16.0163 -12.9837,-29 -29,-29 z m 11.9319,26.5189 c -10e-5,4.7539 -3.854,8.6077 -8.6079,8.6077 h -5.8325 l -7.2993,7.3083 V 29.9013 c 0,-2.9736 2.4106,-5.3842 5.3842,-5.3842 h 7.7476 c 4.754,0 8.6078,3.8537 8.6079,8.6077 z"
       id="path17" />
  </g>
</svg>
