<?xml version="1.0" encoding="UTF-8" standalone="no"?>
<svg
   id="emoji"
   viewBox="0 0 58 58"
   version="1.1"
   sodipodi:docname="e05e.svg"
   width="58"
   height="58"
   xmlns:inkscape="http://www.inkscape.org/namespaces/inkscape"
   xmlns:sodipodi="http://sodipodi.sourceforge.net/DTD/sodipodi-0.dtd"
   xmlns="http://www.w3.org/2000/svg"
   xmlns:svg="http://www.w3.org/2000/svg">
  <defs
     id="defs8" />
  <sodipodi:namedview
     id="namedview8"
     pagecolor="#ffffff"
     bordercolor="#000000"
     borderopacity="0.25"
     inkscape:showpageshadow="2"
     inkscape:pageopacity="0.0"
     inkscape:pagecheckerboard="0"
     inkscape:deskcolor="#d1d1d1" />
  <g
     id="color"
     transform="translate(-7,-7)">
    <circle
       cx="36"
       cy="36"
       r="28"
       fill="#b1cc33"
       id="circle1" />
    <path
       fill="#ffffff"
       fill-rule="evenodd"
       d="m 30.698,20.513 c 0,-1.171 0.95,-2.12 2.124,-2.12 7.95,0 14.395,6.432 14.395,14.366 0,1.17 -0.95,2.12 -2.124,2.12 a 2.122,2.122 0 0 1 -2.123,-2.12 c 0,-5.593 -4.544,-10.127 -10.148,-10.127 a 2.122,2.122 0 0 1 -2.124,-2.12 z"
       clip-rule="evenodd"
       id="path1" />
    <path
       fill="#ffffff"
       fill-rule="evenodd"
       d="m 51.483,30.639 c 1.173,0 2.124,0.949 2.124,2.12 0,7.933 -6.445,14.365 -14.395,14.365 a 2.122,2.122 0 0 1 -2.124,-2.12 c 0,-1.17 0.95,-2.119 2.124,-2.119 5.604,0 10.147,-4.534 10.147,-10.126 0,-1.171 0.95,-2.12 2.124,-2.12 z"
       clip-rule="evenodd"
       id="path2" />
    <path
       fill="#ffffff"
       fill-rule="evenodd"
       d="m 41.335,51.487 c 0,1.171 -0.95,2.12 -2.124,2.12 -7.95,0 -14.395,-6.432 -14.395,-14.366 0,-1.17 0.951,-2.119 2.124,-2.119 1.173,0 2.124,0.949 2.124,2.12 0,5.592 4.543,10.126 10.147,10.126 1.173,0 2.124,0.949 2.124,2.12 z"
       clip-rule="evenodd"
       id="path3" />
    <path
       fill="#ffffff"
       fill-rule="evenodd"
       d="m 20.517,41.36 a 2.122,2.122 0 0 1 -2.124,-2.118 c 0,-7.934 6.445,-14.366 14.395,-14.366 1.173,0 2.124,0.949 2.124,2.12 0,1.17 -0.95,2.119 -2.124,2.119 -5.604,0 -10.147,4.534 -10.147,10.127 0,1.17 -0.951,2.119 -2.124,2.119 z"
       clip-rule="evenodd"
       id="path4" />
  </g>
  <g
     id="line"
     transform="translate(-7,-7)">
    <circle
       cx="36"
       cy="36"
       r="28"
       fill="none"
       stroke="#000000"
       stroke-width="2"
       id="circle4" />
    <path
       fill="none"
       stroke="#000000"
       stroke-linecap="round"
       stroke-width="2"
       d="m 30.698,20.513 c 0,-1.171 0.95,-2.12 2.124,-2.12 7.95,0 14.395,6.432 14.395,14.366 0,1.17 -0.95,2.12 -2.124,2.12 a 2.122,2.122 0 0 1 -2.123,-2.12 c 0,-5.593 -4.544,-10.127 -10.148,-10.127 a 2.122,2.122 0 0 1 -2.124,-2.12 z"
       id="path5" />
    <path
       fill="none"
       stroke="#000000"
       stroke-linecap="round"
       stroke-width="2"
       d="m 51.483,30.639 c 1.173,0 2.124,0.949 2.124,2.12 0,7.933 -6.445,14.365 -14.395,14.365 a 2.122,2.122 0 0 1 -2.124,-2.12 c 0,-1.17 0.95,-2.119 2.124,-2.119 5.604,0 10.147,-4.534 10.147,-10.126 0,-1.171 0.95,-2.12 2.124,-2.12 z"
       id="path6" />
    <path
       fill="none"
       stroke="#000000"
       stroke-linecap="round"
       stroke-width="2"
       d="m 41.335,51.487 c 0,1.171 -0.95,2.12 -2.124,2.12 -7.95,0 -14.395,-6.432 -14.395,-14.366 0,-1.17 0.951,-2.119 2.124,-2.119 1.173,0 2.124,0.949 2.124,2.12 0,5.592 4.543,10.126 10.147,10.126 1.173,0 2.124,0.949 2.124,2.12 z"
       id="path7" />
    <path
       fill="none"
       stroke="#000000"
       stroke-linecap="round"
       stroke-width="2"
       d="m 20.517,41.36 a 2.122,2.122 0 0 1 -2.124,-2.118 c 0,-7.934 6.445,-14.366 14.395,-14.366 1.173,0 2.124,0.949 2.124,2.12 0,1.17 -0.95,2.119 -2.124,2.119 -5.604,0 -10.147,4.534 -10.147,10.127 0,1.17 -0.951,2.119 -2.124,2.119 z"
       id="path8" />
  </g>
</svg>
