<svg xmlns="http://www.w3.org/2000/svg" xmlns:svg="http://www.w3.org/2000/svg" id="emoji" width="58" height="58" version="1.1" viewBox="0 0 58 58"><g id="color" transform="translate(-7,-7)"><path id="path1" fill="#fff" d="m 50.995,21.4693 c 0,1.6616 -1.347,3.0085 -3.0085,3.0085 -1.6169,0 -2.9359,-1.2755 -3.0056,-2.8752 l -6.3984,-1.3601 -1.8886,9.04 c 4.4619,0.1602 8.4679,1.5293 11.3634,3.6489 0.7734,-0.7483 1.8269,-1.2087 2.9881,-1.2087 2.3736,0 4.2978,1.9242 4.2978,4.2978 0,1.7946 -1.0999,3.3323 -2.6624,3.9757 0.0511,0.3754 0.0772,0.7559 0.0772,1.1407 0,6.5557 -7.5868,11.8701 -16.9456,11.8701 -9.3589,0 -16.9457,-5.3144 -16.9457,-11.8701 0,-0.4162 0.0306,-0.8273 0.0902,-1.2324 -1.4518,-0.6899 -2.4554,-2.1697 -2.4554,-3.884 0,-2.3736 1.9242,-4.2978 4.2978,-4.2978 1.1138,0 2.1287,0.4237 2.8923,1.1188 2.9328,-2.1024 6.9711,-3.4447 11.4566,-3.5658 l 2.1015,-10.0595 c 0.0509,-0.2439 0.214,-0.4356 0.424,-0.5327 0.1521,-0.0815 0.3327,-0.1117 0.5147,-0.073 l 7.1078,1.5108 c 0.4944,-0.9847 1.5134,-1.6604 2.6903,-1.6604 1.6615,0 3.0085,1.3469 3.0085,3.0084 z"/><path id="path2" fill="#ea5a47" fill-rule="evenodd" d="M 36,65 C 52.0163,65 65,52.0163 65,36 65,19.9837 52.0163,7 36,7 19.9837,7 7,19.9837 7,36 7,52.0163 19.9837,65 36,65 Z M 50.995,21.4693 c 0,1.6615 -1.347,3.0085 -3.0085,3.0085 -1.6169,0 -2.9359,-1.2755 -3.0056,-2.8753 l -6.3984,-1.36 -1.8886,9.04 c 4.4619,0.1602 8.4679,1.5293 11.3634,3.6489 0.7734,-0.7483 1.8269,-1.2088 2.9881,-1.2088 2.3736,0 4.2978,1.9242 4.2978,4.2979 0,1.7946 -1.0999,3.3323 -2.6624,3.9757 0.0511,0.3754 0.0772,0.7559 0.0772,1.1406 0,6.5557 -7.5868,11.8702 -16.9456,11.8702 -9.3589,0 -16.9457,-5.3145 -16.9457,-11.8702 0,-0.4161 0.0306,-0.8272 0.0902,-1.2323 -1.4518,-0.6899 -2.4554,-2.1698 -2.4554,-3.884 0,-2.3737 1.9242,-4.2979 4.2978,-4.2979 1.1138,0 2.1287,0.4238 2.8923,1.1189 2.9328,-2.1024 6.9711,-3.4448 11.4566,-3.5659 l 2.1015,-10.0594 c 0.0509,-0.2439 0.214,-0.4357 0.424,-0.5328 0.1521,-0.0814 0.3327,-0.1116 0.5147,-0.073 l 7.1078,1.5109 c 0.4944,-0.9847 1.5134,-1.6605 2.6903,-1.6605 1.6615,0 3.0085,1.347 3.0085,3.0085 z" clip-rule="evenodd"/></g><g id="line" transform="translate(-7,-7)"><path id="path3" fill="none" stroke="#000" stroke-linecap="round" stroke-width="1.75" d="m 28.8633,46.2124 c 3.2745,2.8652 11.0515,2.8652 13.9167,0"/><circle id="circle3" cx="42.659" cy="39.063" r="2" fill="#000"/><circle id="circle4" cx="29.334" cy="39.063" r="2" fill="#000"/><path id="path4" fill="none" stroke="#000" stroke-width="2" d="M 64,36 C 64,51.464 51.464,64 36,64 20.536,64 8,51.464 8,36 8,20.536 20.536,8 36,8 51.464,8 64,20.536 64,36 Z M 47.9865,25.4778 c 2.2138,0 4.0085,-1.7947 4.0085,-4.0085 0,-2.2138 -1.7947,-4.0085 -4.0085,-4.0085 -1.2832,0 -2.4244,0.6031 -3.1573,1.5388 l -6.4329,-1.3673 c -0.4112,-0.0874 -0.8217,-0.0225 -1.1688,0.156 -0.4721,0.2279 -0.8405,0.6671 -0.9567,1.2234 l -1.9424,9.2981 c -4.048,0.2363 -7.7396,1.4319 -10.6001,3.2956 -0.839,-0.5574 -1.8467,-0.8828 -2.929,-0.8828 -2.9259,0 -5.2978,2.372 -5.2978,5.2979 0,1.8533 0.9517,3.4829 2.3902,4.4291 -0.0166,0.2276 -0.025,0.4568 -0.025,0.6872 0,3.6935 2.1385,6.9352 5.3895,9.2126 3.2542,2.2794 7.6966,3.6576 12.5562,3.6576 4.8595,0 9.3019,-1.3782 12.5561,-3.6576 3.251,-2.2774 5.3895,-5.5191 5.3895,-9.2126 0,-0.186 -0.0054,-0.3711 -0.0163,-0.5553 1.5562,-0.9219 2.6015,-2.6185 2.6015,-4.561 0,-2.9259 -2.3719,-5.2979 -5.2978,-5.2979 -1.1293,0 -2.1772,0.3542 -3.0369,0.9565 -2.7322,-1.8108 -6.2399,-3.0057 -10.0989,-3.326 l 1.4465,-6.9238 4.7395,1.0074 c 0.433,1.7467 2.0106,3.0411 3.8909,3.0411 z"/></g></svg>