<?xml version="1.0" encoding="UTF-8" standalone="no"?>
<svg
   id="emoji"
   viewBox="0 0 51.032902 57.991383"
   version="1.1"
   sodipodi:docname="e062.svg"
   width="51.032902"
   height="57.991383"
   xmlns:inkscape="http://www.inkscape.org/namespaces/inkscape"
   xmlns:sodipodi="http://sodipodi.sourceforge.net/DTD/sodipodi-0.dtd"
   xmlns="http://www.w3.org/2000/svg"
   xmlns:svg="http://www.w3.org/2000/svg">
  <defs
     id="defs7" />
  <sodipodi:namedview
     id="namedview7"
     pagecolor="#ffffff"
     bordercolor="#000000"
     borderopacity="0.25"
     inkscape:showpageshadow="2"
     inkscape:pageopacity="0.0"
     inkscape:pagecheckerboard="0"
     inkscape:deskcolor="#d1d1d1" />
  <g
     id="line-supplement"
     fill="none"
     transform="translate(-10.4841,-7.0003092)">
    <path
       fill="#000000"
       stroke="#000000"
       stroke-linejoin="round"
       stroke-width="2.25"
       d="m 37.9,21.38 c 2.481,0 4.867,0.9047 6.72,2.547 0.4647,0.4131 1.177,0.3691 1.588,-0.09506 0.4125,-0.4653 0.3697,-1.176 -0.09506,-1.588 -2.266,-2.008 -5.182,-3.114 -8.212,-3.114 -6.823,0 -12.38,5.552 -12.38,12.38 v 9 c 0,6.823 5.552,12.38 12.38,12.38 3.031,0 5.948,-1.106 8.212,-3.114 0.4647,-0.412 0.5076,-1.123 0.09506,-1.588 -0.412,-0.4642 -1.124,-0.5086 -1.588,-0.09506 -1.852,1.643 -4.239,2.547 -6.72,2.547 -5.582,0 -10.12,-4.543 -10.12,-10.12 v -9 c 0,-5.582 4.543,-10.12 10.12,-10.12 z"
       id="path1" />
  </g>
  <g
     id="color"
     transform="translate(-10.4841,-7.0003092)">
    <path
       fill="#92d3f5"
       stroke="#92d3f5"
       d="m 35.02,8.261 c 0.6041,-0.3484 1.348,-0.3484 1.952,0 l 22.56,13.02 c 0.6041,0.3484 0.9759,0.9925 0.9759,1.69 v 26.05 c 0,0.6978 -0.3718,1.342 -0.9759,1.69 l -22.56,13.02 c -0.6041,0.3484 -1.348,0.3484 -1.952,0 L 12.46,50.711 c -0.604,-0.3484 -0.9759,-0.9925 -0.9759,-1.69 v -26.05 c 0,-0.6978 0.3719,-1.342 0.9759,-1.69 z"
       id="path2" />
    <path
       fill="#1e50a0"
       stroke="#1e50a0"
       stroke-linejoin="bevel"
       stroke-width="2"
       d="M 12.47,50.71 60.51,22.97 v 26.05 l -0.9759,1.69 -22.56,13.02 h -1.952 z"
       id="path3" />
    <path
       fill="#61b2e4"
       stroke="#61b2e4"
       stroke-linejoin="bevel"
       stroke-width="2"
       d="M 12.47,50.71 60.51,22.97 v 26.05 l -0.9759,1.69 -22.56,13.02 h -1.952 z"
       id="path4" />
    <path
       fill="#61b2e4"
       stroke="#61b2e4"
       stroke-width="2"
       d="M 60.51,22.98 36.49,36.85 59.18,48.4 c 0,-0.9954 1.337,-1.317 1.337,-2.228 v -23.19"
       id="path5" />
    <path
       fill="#ffffff"
       stroke="#ffffff"
       stroke-linejoin="round"
       stroke-width="2.25"
       d="m 37.9,21.38 c 2.481,0 4.867,0.9047 6.72,2.547 0.4647,0.4131 1.177,0.3691 1.588,-0.09506 0.4125,-0.4653 0.3697,-1.176 -0.09506,-1.588 -2.266,-2.008 -5.182,-3.114 -8.212,-3.114 -6.823,0 -12.38,5.552 -12.38,12.38 v 9 c 0,6.823 5.552,12.38 12.38,12.38 3.031,0 5.948,-1.106 8.212,-3.114 0.4647,-0.412 0.5076,-1.123 0.09506,-1.588 -0.412,-0.4642 -1.124,-0.5086 -1.588,-0.09506 -1.852,1.643 -4.239,2.547 -6.72,2.547 -5.582,0 -10.12,-4.543 -10.12,-10.12 v -9 c 0,-5.582 4.543,-10.12 10.12,-10.12 z"
       id="path6" />
  </g>
  <g
     id="line"
     fill="none"
     transform="translate(-10.4841,-7.0003092)">
    <path
       stroke="#000000"
       stroke-width="2"
       d="m 35.02,8.261 c 0.6041,-0.3484 1.348,-0.3484 1.952,0 l 22.56,13.02 c 0.6041,0.3484 0.9759,0.9925 0.9759,1.69 v 26.05 c 0,0.6978 -0.3718,1.342 -0.9759,1.69 l -22.56,13.02 c -0.6041,0.3484 -1.348,0.3484 -1.952,0 L 12.46,50.711 c -0.604,-0.3484 -0.9759,-0.9925 -0.9759,-1.69 v -26.05 c 0,-0.6978 0.3719,-1.342 0.9759,-1.69 z"
       id="path7" />
  </g>
</svg>
