<svg xmlns="http://www.w3.org/2000/svg" xmlns:svg="http://www.w3.org/2000/svg" id="emoji" width="50" height="50" version="1.1" viewBox="0 0 50 50"><g id="color" transform="translate(-11,-11)"><path id="path1" fill="#fcea2b" d="m 59.0349,60 h -46.07 A 0.9679,0.9679 0 0 1 12,59.0349 v -46.07 A 0.9679,0.9679 0 0 1 12.9651,12 h 46.07 A 0.9679,0.9679 0 0 1 60,12.9651 v 46.07 A 0.9679,0.9679 0 0 1 59.0349,60 Z"/></g><g id="line" fill="none" stroke="#000" stroke-linejoin="round" transform="translate(-11,-11)"><path id="path2" stroke-width="2" d="m 59.0349,60 h -46.07 A 0.9679,0.9679 0 0 1 12,59.0349 v -46.07 A 0.9679,0.9679 0 0 1 12.9651,12 h 46.07 A 0.9679,0.9679 0 0 1 60,12.9651 v 46.07 A 0.9679,0.9679 0 0 1 59.0349,60 Z"/><path id="path3" stroke-linecap="round" stroke-miterlimit="10" stroke-width="4.453" d="m 53.82,41.34 c -0.4564,-1.777 -2.429,-3.11 -4.793,-3.11 -2.703,0 -4.893,1.743 -4.893,3.896 0,2.151 2.191,3.896 4.893,3.896 l -0.1002,0.01336 c 2.703,0 4.893,1.745 4.893,3.896 0,2.153 -2.191,3.896 -4.893,3.896 -2.364,0 -4.337,-1.336 -4.793,-3.112" clip-rule="evenodd"/><path id="path4" stroke-linecap="round" stroke-miterlimit="10" stroke-width="4.456" d="m 36.74,38.23 v 10.03 c 0,3.077 -2.493,5.569 -5.569,5.569 -1.432,0 -2.738,-0.5414 -3.727,-1.43" clip-rule="evenodd"/></g></svg>