<?xml version="1.0" encoding="UTF-8" standalone="no"?>
<svg
   id="emoji"
   viewBox="0 0 50 50"
   version="1.1"
   sodipodi:docname="e069.svg"
   width="50"
   height="50"
   xmlns:inkscape="http://www.inkscape.org/namespaces/inkscape"
   xmlns:sodipodi="http://sodipodi.sourceforge.net/DTD/sodipodi-0.dtd"
   xmlns="http://www.w3.org/2000/svg"
   xmlns:svg="http://www.w3.org/2000/svg">
  <defs
     id="defs5" />
  <sodipodi:namedview
     id="namedview5"
     pagecolor="#ffffff"
     bordercolor="#000000"
     borderopacity="0.25"
     inkscape:showpageshadow="2"
     inkscape:pageopacity="0.0"
     inkscape:pagecheckerboard="0"
     inkscape:deskcolor="#d1d1d1" />
  <g
     id="color"
     transform="translate(-11,-11)">
    <path
       fill="#92d3f5"
       d="m 59.0349,60 h -46.07 A 0.9679,0.9679 0 0 1 12,59.0349 v -46.07 A 0.9679,0.9679 0 0 1 12.9651,12 h 46.07 A 0.9679,0.9679 0 0 1 60,12.9651 v 46.07 A 0.9679,0.9679 0 0 1 59.0349,60 Z"
       id="path1" />
  </g>
  <g
     id="line"
     fill="none"
     stroke="#000000"
     stroke-linejoin="round"
     transform="translate(-11,-11)">
    <path
       stroke-width="2"
       d="m 59.0349,60 h -46.07 A 0.9679,0.9679 0 0 1 12,59.0349 v -46.07 A 0.9679,0.9679 0 0 1 12.9651,12 h 46.07 A 0.9679,0.9679 0 0 1 60,12.9651 v 46.07 A 0.9679,0.9679 0 0 1 59.0349,60 Z"
       id="path2" />
    <path
       stroke-linecap="round"
       stroke-miterlimit="10"
       stroke-width="4.453"
       d="m 53.82,41.34 c -0.4564,-1.777 -2.429,-3.11 -4.793,-3.11 -2.703,0 -4.893,1.743 -4.893,3.896 0,2.151 2.191,3.896 4.893,3.896 l -0.1002,0.01336 c 2.703,0 4.893,1.745 4.893,3.896 0,2.153 -2.191,3.896 -4.893,3.896 -2.364,0 -4.337,-1.336 -4.793,-3.112"
       clip-rule="evenodd"
       id="path3" />
    <g
       transform="matrix(2.228,0,0,2.228,29.64,38.23)"
       fill-rule="evenodd"
       stroke-linecap="round"
       stroke-miterlimit="10"
       stroke-width="2"
       clip-rule="evenodd"
       id="g5">
      <path
         transform="matrix(0,1,1,0,5.5,3.5)"
         stroke-linecap="round"
         stroke-linejoin="round"
         stroke-miterlimit="10"
         d="m -3.5,-3.5 h 7"
         clip-rule="evenodd"
         id="path4" />
      <path
         d="M 0,0 H 4"
         id="path5" />
    </g>
  </g>
</svg>
