<svg xmlns="http://www.w3.org/2000/svg" xmlns:svg="http://www.w3.org/2000/svg" id="emoji" width="50" height="50" version="1.1" viewBox="0 0 50 50"><g id="color" fill="#b399c8" transform="translate(-10.9952,-11)"><path id="path1" d="m 12.96,12 a 0.9679,0.9679 0 0 0 -0.9648,0.9648 v 46.07 a 0.9679,0.9679 0 0 0 0.9648,0.9648 h 46.07 a 0.9679,0.9679 0 0 0 0.9648,-0.9648 v -46.07 A 0.9679,0.9679 0 0 0 59.03,12 H 40.34 c 0,2.401 -1.946,4.348 -4.348,4.348 -2.402,0 -4.348,-1.946 -4.348,-4.348 z" display="none"/><path id="path2" d="m 12.96,12 c -0.5321,0.0017 -0.9631,0.4327 -0.9648,0.9648 v 46.07 c 0.0017,0.5321 0.4327,0.9631 0.9648,0.9648 h 46.07 c 0.5321,-0.0017 0.9631,-0.4327 0.9648,-0.9648 v -46.07 C 59.993098,12.4327 59.5621,12.0017 59.03,12 h -16.8 c -1.801,0.3379 -1.804,0.3453 -2.472,2.173 -0.7515,1.3 -2.157,2.175 -3.767,2.175 -1.531,0 -2.877,-0.7908 -3.652,-1.986 C 31.5485,12.313 31.5567,12.307 29.596,12 Z"/></g><g id="line" fill="none" stroke="#000" stroke-linecap="round" stroke-linejoin="round" transform="translate(-10.9952,-11)"><path id="path3" stroke-width="2" d="m 12.96,12 a 0.9679,0.9679 0 0 0 -0.9648,0.9648 v 46.07 a 0.9679,0.9679 0 0 0 0.9648,0.9648 h 46.07 a 0.9679,0.9679 0 0 0 0.9648,-0.9648 v -46.07 A 0.9679,0.9679 0 0 0 59.03,12 H 40.34 c 0,2.401 -1.946,4.348 -4.348,4.348 -2.402,0 -4.348,-1.946 -4.348,-4.348 h -18.69 z"/><path id="path4" stroke-miterlimit="10" stroke-width="4.456" d="M 38.55,38.23 34.095,53.82 29.637,38.22 25.182,53.81 20.726,38.22" clip-rule="evenodd"/><g id="g6" fill-rule="evenodd" stroke-miterlimit="10" stroke-width="2" clip-rule="evenodd" transform="matrix(2.138,0,0,2.239,53.91,38.14)"><path id="path5" stroke-linecap="round" stroke-linejoin="round" stroke-miterlimit="10" d="M 0,0 H 4" clip-rule="evenodd" transform="translate(-5,5.32)"/><path id="path6" d="M 0,7 -3,0 -6,7"/></g></g></svg>