<svg xmlns="http://www.w3.org/2000/svg" xmlns:svg="http://www.w3.org/2000/svg" id="emoji" width="51.346" height="41.234" version="1.1" viewBox="0 0 51.346 41.234"><g id="color" transform="translate(-10.602389,-15.00014)"><path id="path1" fill="#fff" d="M 61.22,21.64 37.91,15.038 a 1.007,1.007 0 0 0 -0.5537,0.0019 l -22.59,6.627 a 0.9484,0.9484 0 0 0 -0.1365,0.0719 5.383,5.383 0 0 0 -1.834,9.543 5.364,5.364 0 0 0 0.0663,8.697 5.378,5.378 0 0 0 1.486,9.502 l 23.01,6.713 a 1.003,1.003 0 0 0 0.5547,0.002 l 23.31,-6.651 a 1.001,1.001 0 0 0 0.7255,-0.9619 v -25.98 A 1,1 0 0 0 61.2208,21.641 Z"/><polygon id="polygon1" fill="#b399c8" points="37.64 15.98 60.94 22.58 37.64 29.23 15.04 22.6"/><path id="path2" fill="#b399c8" d="m 15.08,24.73 21.99,6.446 a 2,2 0 0 0 1.111,0.0039 l 23.29,-6.765 a 0.613,0.613 0 0 0 0.442,-0.5794 l 0.0189,-1.251 -24.3,6.672 -22.56,-6.612 a 4.4,4.4 0 0 0 -0.4554,8.481 l 23.01,6.713 24.21,-6.91 0.04,-1.242 A 0.6255,0.6255 0 0 0 61.0797,29.065 l -23.45,6.692 -22.42,-6.54 A 2.4,2.4 0 0 1 15.0704,24.73"/><path id="path3" fill="#1e50a0" d="m 15.08,33.41 21.99,6.446 a 1.999,1.999 0 0 0 1.111,0.004 l 23.29,-6.765 a 0.6131,0.6131 0 0 0 0.442,-0.5794 l 0.0189,-1.251 -24.3,6.672 -22.56,-6.612 a 4.4,4.4 0 0 0 -0.4554,8.481 l 23.01,6.713 24.21,-6.91 0.04,-1.242 a 0.6254,0.6254 0 0 0 -0.7968,-0.6214 l -23.45,6.692 -22.42,-6.54 a 2.4,2.4 0 0 1 -0.1393,-4.487"/><path id="path4" fill="#5c9e31" d="m 15.08,42.15 21.99,6.446 a 2,2 0 0 0 1.111,0.0039 l 23.29,-6.765 a 0.613,0.613 0 0 0 0.442,-0.5794 l 0.0189,-1.251 -24.3,6.672 -22.56,-6.612 a 4.4,4.4 0 0 0 -0.4554,8.481 l 23.01,6.713 24.21,-6.91 0.04,-1.242 a 0.6254,0.6254 0 0 0 -0.7968,-0.6214 l -23.45,6.692 -22.42,-6.54 a 2.4,2.4 0 0 1 -0.1393,-4.487"/><polygon id="polygon4" fill="#8967aa" points="16 22.8 21.81 24.5 44.32 17.79 38.59 16.17"/><path id="path5" stroke="#000" stroke-width="2" d="M 37.63,55.23 60.94,48.578"/><path id="path6" stroke="#000" stroke-linecap="round" stroke-linejoin="round" stroke-width="2" d="m 37.64,16 v 0 l -22.6,6.63 z"/><path id="path7" fill="#a57939" d="m 31,18.05 -8.17,2.627 23.01,6.713 7.111,-2.287 -7.102,2.289 0.5,25.17 7.787,-2.033 -0.1172,-25.77 -0.0098,0.0039 h -0.002 z"/></g><g id="line" fill="none" stroke="#000" stroke-linecap="round" stroke-linejoin="round" stroke-width="2" transform="translate(-10.602389,-15.00014)"><path id="path8" d="m 44.61,27.41 -6.969,1.854 -22.6,-6.63 22.6,-6.63 23.3,6.6 -6.921,2.159"/><polygon id="polygon8" stroke="#000" points="60.94 22.6 37.64 29.26 15.04 22.63 37.64 16" display="none"/><g id="g11"><path id="path9" d="m 54.59,33 6.356,-1.814"/><path id="path10" d="m 15.08,22.64 c -4.388,0.9407 -4.717,7.076 -0.4554,8.481 l 23.01,6.713 7.997,-2.282"/><path id="path11" d="m 15.08,22.64 a 4.4,4.4 0 0 0 -0.4554,8.481 l 23.01,6.713 23.31,-6.652" display="none"/></g><g id="g16"><path id="path12" stroke-linecap="round" d="m 58.22,40.58 -0.8905,0.224 3.608,-0.9539"/><path id="path13" stroke-linecap="butt" d="m 54.07,41.68 3.255,-0.8742"/><path id="path14" stroke-linecap="round" d="m 54.07,41.68 v 0 l 6.87,-1.845" display="none"/><path id="path15" stroke-linecap="butt" d="m 15.08,31.29 c -4.388,0.9407 -4.717,7.076 -0.4554,8.481 l 23.01,6.713 8.176,-2.357"/><path id="path16" d="m 15.08,31.29 a 4.4,4.4 0 0 0 -0.4554,8.481 l 23.01,6.713 23.31,-6.652" display="none"/></g><path id="path17" d="m 15.08,40.04 a 4.4,4.4 0 0 0 -0.4554,8.481 l 23.01,6.713 23.31,-6.652"/><path id="path18" fill="none" stroke="#000" stroke-linecap="round" stroke-linejoin="round" stroke-width="1.5" d="m 54.01,24.76 0.129,25.77"/><path id="path19" fill="none" stroke="#000" stroke-linecap="round" stroke-linejoin="round" stroke-width="1.5" d="m 45.81,27.42 4.27e-4,25.25"/><path id="path20" fill="none" stroke="#000" stroke-linecap="round" stroke-linejoin="round" stroke-width="1.4" d="M 54.32,24.96 30.46,17.751 Z"/><path id="path21" fill="none" stroke="#000" stroke-linecap="round" stroke-linejoin="round" stroke-width="1.5" d="M 45.85,27.39 22.84,20.677 Z"/></g></svg>