<svg xmlns="http://www.w3.org/2000/svg" xmlns:svg="http://www.w3.org/2000/svg" id="emoji" width="51.302" height="51.844" version="1.1" viewBox="0 0 51.302 51.844"><g id="color" transform="translate(-10.3402,-9.4802)"><circle id="circle1" cx="36.01" cy="21.186" r="3.478" fill="#fff"/><path id="path1" fill="#d22f27" d="m 46.289,21.3899 c 0,-6.0159 -4.6073,-10.9096 -10.271,-10.9096 -5.6637,0 -10.271,4.8937 -10.271,10.9123 0.0018,0.3005 0.1445,7.4974 8.3708,20.1793 0.53,0.8288 1.1424,1.2493 1.8196,1.2493 1.1879,0 1.9983,-1.3088 2.0771,-1.442 8.2789,-12.689 8.2789,-19.7028 8.2745,-19.9893 z M 36.0181,25.784 c -2.5222,0 -4.5742,-2.052 -4.5742,-4.5742 0,-2.5222 2.052,-4.5742 4.5742,-4.5742 2.5222,0 4.5742,2.052 4.5742,4.5742 0,2.5222 -2.052,4.5742 -4.5742,4.5742 z"/><path id="path2" fill="#ea5a47" d="m 46.289,21.3899 c 0,-6.0159 -4.6073,-10.9096 -10.271,-10.9096 -0.8622,0 -1.6952,0.1258 -2.4958,0.3393 5.4217,0.2902 9.7514,5.0521 9.7514,10.8817 0.0044,0.2865 0.0044,7.3003 -8.2745,19.9892 -0.0296,0.0499 -0.1621,0.2652 -0.3788,0.5149 0.4037,0.406 0.8442,0.6157 1.3171,0.6157 1.1879,0 1.9983,-1.3088 2.0771,-1.442 8.2789,-12.6889 8.2789,-19.7027 8.2745,-19.9892 z"/><path id="path3" fill="#92d3f5" d="m 11.3402,60.6539 v -2.285 c 0,-3.23 1.9102,-5.45 5.1402,-5.45 1.9123,1.6148 4.1757,2.4223 6.1092,2.4225 1.934,2e-4 4.1979,-0.8073 6.1107,-2.4225 3.23,0 5.1402,2.22 5.1402,5.45 v 2.285 z"/><path id="path4" fill="#92d3f5" d="m 38.142,60.6539 v -2.285 c 0,-3.23 1.9102,-5.45 5.1402,-5.45 1.9123,1.6148 4.1757,2.4223 6.1092,2.4225 1.934,2e-4 4.1979,-0.8073 6.1107,-2.4225 3.23,0 5.1402,2.22 5.1402,5.45 v 2.285 z"/></g><g id="skin" transform="translate(-10.3402,-9.4802)"><circle id="circle4" cx="22.59" cy="45.397" r="5" fill="#fcea2b"/><circle id="circle5" cx="49.392" cy="45.397" r="5" fill="#fcea2b"/></g><g id="line" transform="translate(-10.3402,-9.4802)"><path id="path5" fill="none" stroke="#000" stroke-linecap="round" stroke-linejoin="round" stroke-width="2" d="m 11.3402,60.3239 v -1.955 c 0,-3.23 1.9102,-5.45 5.1402,-5.45 1.9123,1.6148 4.1757,2.4223 6.1092,2.4225 1.934,2e-4 4.1979,-0.8073 6.1107,-2.4225 3.23,0 5.1402,2.22 5.1402,5.45 v 1.955"/><path id="path6" fill="none" stroke="#000" stroke-linecap="round" stroke-linejoin="round" stroke-width="2" d="m 38.142,60.3239 v -1.955 c 0,-3.23 1.9102,-5.45 5.1402,-5.45 1.9123,1.6148 4.1757,2.4223 6.1092,2.4225 1.934,2e-4 4.1979,-0.8073 6.1107,-2.4225 3.23,0 5.1402,2.22 5.1402,5.45 v 1.955"/><path id="path7" fill="none" stroke="#000" stroke-miterlimit="10" stroke-width="2" d="m 35.9374,42.8211 c -0.6772,0 -1.2896,-0.4205 -1.8196,-1.2493 C 25.8915,28.8899 25.7487,21.693 25.747,21.3925 c 0,-6.0186 4.6072,-10.9123 10.271,-10.9123 5.6638,0 10.271,4.8937 10.271,10.9096 0.0044,0.2865 0.0044,7.3003 -8.2744,19.9892 -0.0789,0.1333 -0.8893,1.4421 -2.0772,1.4421 z"/><path id="path8" fill="none" stroke="#000" stroke-miterlimit="10" stroke-width="2" d="m 36.0181,25.784 c -2.5222,0 -4.5742,-2.052 -4.5742,-4.5742 0,-2.5222 2.052,-4.5742 4.5742,-4.5742 2.5222,0 4.5742,2.052 4.5742,4.5742 0,2.5222 -2.052,4.5742 -4.5742,4.5742 z"/><circle id="circle8" cx="22.59" cy="45.397" r="5" fill="none" stroke="#000" stroke-linecap="round" stroke-linejoin="round" stroke-width="2"/><circle id="circle9" cx="49.392" cy="45.397" r="5" fill="none" stroke="#000" stroke-linecap="round" stroke-linejoin="round" stroke-width="2"/></g></svg>