<svg xmlns="http://www.w3.org/2000/svg" xmlns:svg="http://www.w3.org/2000/svg" id="emoji" width="58.509" height="37.402" version="1.1" viewBox="0 0 58.509 37.402"><g id="color" transform="translate(-6.657,-17.937)"><rect id="rect1" width="40.975" height="30.47" x="15.624" y="23.869" fill="#fff"/><polygon id="polygon1" fill="#a57939" points="7.657 23.222 11.158 23.222 11.158 54.339 15.443 54.339 15.443 23.222 56.684 23.222 56.684 54.339 60.969 54.339 60.969 23.222 64.166 23.222 64.166 18.937 7.657 18.937"/></g><g id="skin" transform="translate(-6.657,-17.937)"><path id="path1" fill="#fcea2b" d="M 58.56,44.1988 H 47.3949 l -3.1586,-6.8046 c -1.2092,-2.8441 -3.0349,-4.0155 -6.479,-3.7377 l -1.443,0.0713 -9.2526,0.9907 c -4.8164,0.535 -6.7033,3.5406 -6.7033,5.8348 -0.1647,2.3417 1.2228,4.5152 3.4163,5.3514 l 6.2691,1.9153 v 0.9658 l -4.9071,0.66 H 21.968 c -2.1412,0 -3.1872,0.8168 -3.1872,2.6516 v 2.2415 h 11.263 c 3.2113,-0.153 5.8349,-2.2533 5.8349,-5.2349 0,-2.37 -0.693,-3.875 -3.3648,-5.2113 L 30.35,42.8991 c 3.1026,-0.0708 7.3357,-1.8228 9.3922,-2.2867 l 2.3013,4.4276 c 1.2225,2.8287 2.0634,4.0522 4.4337,4.0522 l 12.2842,-0.4649 c 1.6779,-0.0825 2.7092,-0.6548 2.7092,-2.3371 0,-1.3763 -1.1523,-2.0914 -2.9106,-2.0914 z"/><circle id="circle1" cx="49.141" cy="33.018" r="3.543" fill="#fcea2b"/></g><g id="skin-shadow" transform="translate(-6.657,-17.937)"><path id="path2" fill="#f1b31c" d="m 20.3584,40.5533 c -0.1647,2.3417 1.2228,4.5152 3.4163,5.3514 l 6.2691,1.9153 v -0.889 c -4.6551,-1.2207 -8.1041,-4.5416 -8.5979,-7.4989 z"/><path id="path3" fill="#f1b31c" d="m 30.35,42.8991 c 3.1026,-0.0708 7.5464,-1.8741 9.603,-2.338 L 38.4262,37.2917 C 36.7355,39.4539 30.35,41.3543 30.35,42.4443 Z"/></g><g id="line" transform="translate(-6.657,-17.937)"><path id="path4" fill="none" stroke="#000" stroke-linecap="round" stroke-linejoin="round" stroke-width="2" d="m 30.0438,47.82 v 0.9658 l -4.9071,0.66 H 21.968 c -2.1412,0 -3.1872,0.8168 -3.1872,2.6516 v 2.2415 h 11.263 c 3.2113,-0.153 5.8349,-2.2533 5.8349,-5.2349"/><path id="path5" fill="none" stroke="#000" stroke-linecap="round" stroke-linejoin="round" stroke-width="2" d="m 38.6048,37.6739 3.4387,7.3661 c 1.2225,2.8287 2.0634,4.0522 4.4337,4.0522 l 12.2842,-0.4649 c 1.6779,-0.0825 2.7092,-0.6548 2.7092,-2.3371 0,-1.376 -1.1523,-2.0911 -2.9109,-2.0911 H 47.3949 l -3.1586,-6.8046 c -1.2092,-2.8441 -3.0349,-4.0155 -6.479,-3.7377 l -1.443,0.0713 -9.2526,0.9907 c -4.8164,0.535 -6.7033,3.5406 -6.7033,5.8348 -0.1647,2.3417 1.2228,4.5152 3.4163,5.3514"/><polyline id="polyline5" fill="none" stroke="#000" stroke-linecap="round" stroke-linejoin="round" stroke-width="2" points="11.158 23.222 11.158 54.339 15.443 54.339 15.443 23.222 56.684 23.222 56.684 40.678"/><polyline id="polyline6" fill="none" stroke="#000" stroke-linecap="round" stroke-linejoin="round" stroke-width="2" points="64.166 23.222 64.166 18.937 7.657 18.937 7.657 23.222"/><line id="line6" x1="60.969" x2="60.969" y1="40.811" y2="23.222" fill="none" stroke="#000" stroke-linecap="round" stroke-linejoin="round" stroke-width="2"/><polyline id="polyline7" fill="none" stroke="#000" stroke-linecap="round" stroke-linejoin="round" stroke-width="2" points="56.684 48.706 56.684 54.339 60.969 54.339 60.969 51.198"/><path id="path7" fill="none" stroke="#000" stroke-linecap="round" stroke-linejoin="round" stroke-width="2" d="m 28.04,42.8991 c 4.57,0 9.856,-1.8741 11.9126,-2.338"/><path id="path8" fill="none" stroke="#000" stroke-linecap="round" stroke-linejoin="round" stroke-width="2" d="m 45.5974,33.018 c 0,-1.957 1.5864,-3.5435 3.5434,-3.5436 1.957,-10e-5 3.5435,1.5864 3.5436,3.5434 0,1.957 -1.5864,3.5435 -3.5434,3.5436 h -2e-4"/></g></svg>