<svg xmlns="http://www.w3.org/2000/svg" xmlns:svg="http://www.w3.org/2000/svg" id="emoji" width="54.727" height="54.018" version="1.1" viewBox="0 0 54.727 54.018"><g id="skin" transform="translate(-8.0250803,-10.09)"><path id="path1" fill="#fcea2b" d="m 27.2646,44.9249 -5.2875,4.873 c -0.998,0.8487 -2.1085,1.5554 -3.3,2.1 l -6.85,2.84 c -1.0385,0.3762 -2.1952,-0.0727 -2.708,-1.051 -0.3284,-1.1236 0.2152,-2.3183 1.2781,-2.8089 l 7.4659,-4.1523 4.4669,-6.7372 z"/><path id="path2" fill="#fcea2b" d="m 38.2887,22.9679 c 0.0769,-1.6449 -0.8817,-3.1627 -2.4,-3.8 -1.6,-0.6 -4,-0.4 -6,3.6 l -5.1,9.2 c -0.6218,1.1727 -0.964,2.4732 -1,3.8 v 0 c 0.076,1.2473 0.6102,2.4226 1.5,3.3 l 8.77,8.3 c 0.8939,0.9378 1.4861,2.1222 1.7,3.4 l 1.3,10.34 c 0.2,1.1 0.8036,2 2,2 1.009,-0.0678 1.7719,-0.9407 1.7041,-1.9497 -0.0011,-0.0168 -0.0025,-0.0336 -0.0041,-0.0503 l -0.2,-13.34 c -0.0715,-1.2896 -0.4121,-2.55 -1,-3.7 l -4.57,-7.27 c -0.6972,-1.227 -1.0051,-2.6369 -0.8829,-4.0428 z"/><path id="path3" fill="#fcea2b" d="m 52.4384,36.7979 4.57,7.6 c 0.5879,1.15 0.9285,2.4104 1,3.7 l 0.2,13.01 c 0.0956,1.0067 -0.643,1.9003 -1.6497,1.9959 -0.0168,0.0016 -0.0335,0.003 -0.0503,0.0041 -1.1535,0 -1.8,-0.9 -2,-2 l -1.3,-10.01 c -0.2139,-1.2778 -0.8061,-2.4622 -1.7,-3.4 L 43.9991,40.591 c -1.4087,-1.3672 -2.4043,-3.342 -1.7459,-7.0311 l 2.5078,-5.7907 c 1.3838,-2.488 2.9193,-5.256 3.4268,-6.1983 0.654,-1.6745 2.3028,-2.7458 4.0986,-2.663 2.9,0 4.4127,3.6152 4.4127,8.5632 0,2.6268 -0.9661,3.4846 -2.2935,3.4846 -0.6439,-0.0529 -1.2632,-0.2715 -1.7977,-0.6345 z"/><circle id="circle3" cx="40.429" cy="14.633" r="3.543" fill="#fcea2b"/><circle id="circle4" cx="58.209" cy="14.633" r="3.543" fill="#fcea2b"/></g><g id="skin-shadow" transform="translate(-8.0250803,-10.09)"><path id="path4" fill="#f1b31c" d="m 33.4786,55.438 -4.4033,1.9405 c -1.1027,0.5162 -2.4159,0.0593 -2.96,-1.03 -0.3336,-1.0873 0.1393,-2.2597 1.134,-2.8112 l 5.3683,-3.1564 z"/><path id="path5" fill="#f1b31c" d="m 39.5587,43.738 1.1313,-2.862 4.7949,4.95 -4.8765,4.95 c 0.2314,-2.3966 -0.1291,-4.8133 -1.0497,-7.038 z"/></g><g id="color" transform="translate(-8.0250803,-10.09)"><polygon id="polygon5" fill="#fff" points="40.182 32.846 40.182 36.314 40.484 38.199 38.976 39.631 37.317 36.314 36.186 33.298 36.111 31.413 37.77 32.846"/><polygon id="polygon6" fill="#fff" points="32.013 48.594 28.564 50.287 27.185 47.967 29.128 46.149"/></g><g id="line" transform="translate(-8.0250803,-10.09)"><path id="path6" fill="none" stroke="#000" stroke-linecap="round" stroke-linejoin="round" stroke-width="2" d="m 29.2471,43.0979 -7.27,6.7 c -0.998,0.8487 -2.1085,1.5554 -3.3,2.1 l -6.85,2.84 c -1.0385,0.3762 -2.1952,-0.0727 -2.708,-1.051 -0.3284,-1.1236 0.2152,-2.3183 1.2781,-2.8089 l 7.4659,-4.1523 4.2008,-6.3357"/><path id="path7" fill="none" stroke="#000" stroke-linecap="round" stroke-linejoin="round" stroke-width="2" d="m 38.2887,22.9679 c 0.0769,-1.6449 -0.8817,-3.1627 -2.4,-3.8 -1.6,-0.6 -4,-0.4 -6,3.6 l -5.1,9.2 c -0.6218,1.1727 -0.964,2.4732 -1,3.8 v 0 c 0.076,1.2473 0.6102,2.4226 1.5,3.3 l 8.77,8.3 c 0.8939,0.9378 1.4861,2.1222 1.7,3.4 l 1.3,10.34 c 0.2,1.1 0.8036,2 2,2 1.009,-0.0678 1.7719,-0.9407 1.7041,-1.9497 -0.0011,-0.0168 -0.0025,-0.0336 -0.0041,-0.0503 l -0.2,-13.34 c -0.0715,-1.2896 -0.4121,-2.55 -1,-3.7 l -4.57,-7.27 c -0.6972,-1.227 -1.0051,-2.6369 -0.8829,-4.0428"/><path id="path8" fill="none" stroke="#000" stroke-linecap="round" stroke-linejoin="round" stroke-width="2" d="m 45.2288,31.0877 -5.02,-0.99 c -1.3262,-0.201 -2.5062,-0.952 -3.25,-2.0683 l -2.63,-4.9317"/><path id="path9" fill="none" stroke="#000" stroke-linecap="round" stroke-linejoin="round" stroke-width="2" d="M 51.7888,23.0682 49.73,29.6154 c -0.5378,1.786 0.4268,3.4645 2.5609,4.2469 0,0 3.6555,1.2354 4.5027,1.5134 1.2347,0.4052 2.65,2.963 2.65,2.963"/><path id="path10" fill="none" stroke="#000" stroke-linecap="round" stroke-linejoin="round" stroke-width="2" d="m 44.761,27.7692 c 1.3838,-2.488 2.9193,-5.256 3.4268,-6.1983 0.654,-1.6745 2.3028,-2.7458 4.0986,-2.663 2.9,0 4.4127,3.6152 4.4127,8.5632 0,2.6268 -0.9693,3.4846 -2.26,3.4846 -0.656,-0.0423 -1.2884,-0.2605 -1.8309,-0.6317"/><path id="path11" fill="none" stroke="#000" stroke-linecap="round" stroke-linejoin="round" stroke-width="2" d="m 52.4384,36.7979 4.57,7.6 c 0.5879,1.15 0.9285,2.4104 1,3.7 l 0.2,13.01 c 0.0956,1.0067 -0.643,1.9003 -1.6497,1.9959 -0.0168,0.0016 -0.0335,0.003 -0.0503,0.0041 -1.1535,0 -1.8,-0.9 -2,-2 l -1.3,-10.01 c -0.2139,-1.2778 -0.8061,-2.4622 -1.7,-3.4 L 43.9991,40.591 c -1.4087,-1.3672 -2.4043,-3.342 -1.7459,-7.0311"/><path id="path12" fill="none" stroke="#000" stroke-linecap="round" stroke-linejoin="round" stroke-width="2" d="m 47.4372,43.8448 -6.8284,6.9316"/><path id="path13" fill="none" stroke="#000" stroke-linecap="round" stroke-linejoin="round" stroke-width="2" d="m 40.69,40.876 -1.1317,2.862"/><path id="path14" fill="none" stroke="#000" stroke-linecap="round" stroke-linejoin="round" stroke-width="2" d="m 33.4786,55.438 -4.4033,1.9405 c -1.1027,0.5162 -2.4159,0.0593 -2.96,-1.03 -0.3336,-1.0873 0.1393,-2.2597 1.134,-2.8112 l 5.3683,-3.1564"/><path id="path15" fill="none" stroke="#000" stroke-linecap="round" stroke-linejoin="round" stroke-width="2" d="m 36.8854,14.6334 c 0,-1.957 1.5864,-3.5434 3.5434,-3.5434 1.957,0 3.5434,1.5864 3.5434,3.5434 0,1.957 -1.5864,3.5434 -3.5434,3.5434 v 0"/><path id="path16" fill="none" stroke="#000" stroke-linecap="round" stroke-linejoin="round" stroke-width="2" d="m 54.6651,14.6334 c 0,-1.957 1.5864,-3.5434 3.5434,-3.5434 1.957,0 3.5434,1.5864 3.5434,3.5434 0,1.957 -1.5864,3.5434 -3.5434,3.5434 v 0"/></g></svg>