<svg xmlns="http://www.w3.org/2000/svg" xmlns:svg="http://www.w3.org/2000/svg" id="emoji" width="37.992" height="53.189" version="1.1" viewBox="0 0 37.992 53.189"><g id="color" transform="translate(-15.796,-9.0038)"><polygon id="polygon1" fill="#fff" points="28.733 44.882 28.733 43.003 30.612 42.757 32.328 47.987 29.223 48.559 27.997 52.808 27.997 54.278 24.729 53.87 25.709 51.255 27.344 48.64"/><polygon id="polygon2" fill="#9b9b9a" points="41.915 50.728 30.481 50.728 30.481 56.349 19.242 56.349 19.242 61.853 53.118 61.853 53.118 45.107 41.915 45.107"/></g><g id="skin" transform="translate(-15.796,-9.0038)"><path id="path2" fill="#fcea2b" d="m 28.5423,33.5552 5.5574,0.96 c 0.9509,0.1778 1.6948,0.9217 1.8726,1.8726 l 1.87,8.96 c 0.3534,0.8844 -0.0771,1.8878 -0.9615,2.2411 -0.0229,0.0091 -0.046,0.0178 -0.0692,0.026 -1.0245,0.1318 -1.9908,-0.5075 -2.27,-1.502 l -2.3905,-7.82 -5.1687,-0.5111 c -4.4727,-0.402 -6.063,-1.6708 -5.1868,-6.1563 0.1544,-0.7906 2.5621,-11.0379 2.5621,-11.0379 1.1586,-0.4963 2.3796,-0.832 3.629,-0.9979 1.4705,0 3.1637,1.1238 2.7171,3.7685 -0.1726,1.0225 -1.1756,6.4169 -1.1756,6.4169 z"/><path id="path3" fill="#fcea2b" d="m 27.0565,40.9394 -0.5483,3.7867 c -0.1966,1.0892 -0.6015,2.1302 -1.1925,3.066 L 22.6339,53.48 c -0.5095,0.8232 -1.5293,1.1722 -2.4363,0.8335 -0.7188,-0.3625 -0.8282,-1.4934 -0.3865,-2.417 l 2.6143,-6.9494 0.5052,-4.4275 z"/><circle id="circle3" cx="31.665" cy="13.406" r="3.402" fill="#fcea2b"/></g><g id="line" transform="translate(-15.796,-9.0038)"><line id="line3" x1="38.678" x2="34.027" y1="29.079" y2="28.067" fill="none" stroke="#000" stroke-linecap="round" stroke-linejoin="round" stroke-width="2"/><path id="path4" fill="none" stroke="#000" stroke-linecap="round" stroke-linejoin="round" stroke-width="2" d="m 27.7411,38.49 -1.2329,6.2363 c -0.1966,1.0892 -0.6015,2.1302 -1.1925,3.066 L 22.6339,53.48 c -0.5095,0.8232 -1.5293,1.1722 -2.4363,0.8335 -0.7188,-0.3625 -0.8282,-1.4934 -0.3865,-2.417 l 2.6143,-6.9494 0.5052,-4.0976"/><path id="path5" fill="none" stroke="#000" stroke-linecap="round" stroke-linejoin="round" stroke-width="2" d="m 28.5423,33.5552 5.5574,0.96 c 0.9509,0.1778 1.6948,0.9217 1.8726,1.8726 l 1.87,8.96 c 0.3534,0.8844 -0.0771,1.8878 -0.9615,2.2411 -0.0229,0.0091 -0.046,0.0178 -0.0692,0.026 -1.0245,0.1318 -1.9908,-0.5075 -2.27,-1.502 l -2.3905,-7.82 -5.1687,-0.5111 c -4.4727,-0.402 -6.063,-1.6708 -5.1868,-6.1563 0.1544,-0.7906 2.5621,-11.0379 2.5621,-11.0379 1.1586,-0.4963 2.3796,-0.832 3.629,-0.9979 1.4705,0 3.1637,1.1238 2.7171,3.7685 -0.1726,1.0225 -1.1756,6.4169 -1.1756,6.4169"/><polyline id="polyline5" fill="none" stroke="#000" stroke-linecap="round" stroke-linejoin="round" stroke-width="2" points="52.788 45.107 41.915 45.107 41.915 50.728 30.481 50.728 30.481 56.349 19.242 56.349 19.242 61.193"/><path id="path6" fill="none" stroke="#000" stroke-linecap="round" stroke-linejoin="round" stroke-width="2" d="m 16.796,31.303 c 0,0 1.4482,-6.0251 1.8065,-7.3793 0.1647,-0.7605 0.7013,-1.3869 1.4275,-1.6664 l 4.3275,-1.6693"/><path id="path7" fill="none" stroke="#000" stroke-linecap="round" stroke-linejoin="round" stroke-width="2" d="m 28.2635,13.4056 c 0,-1.8787 1.5229,-3.4017 3.4016,-3.4018 1.8787,-10e-5 3.4017,1.5229 3.4018,3.4016 0,1.8787 -1.5229,3.4017 -3.4016,3.4018 h -10e-5"/></g></svg>