<?xml version="1.0" encoding="UTF-8" standalone="no"?>
<svg
   id="emoji"
   viewBox="0 0 42.832142 57.799713"
   version="1.1"
   sodipodi:docname="e08a.svg"
   width="42.832142"
   height="57.799713"
   xmlns:inkscape="http://www.inkscape.org/namespaces/inkscape"
   xmlns:sodipodi="http://sodipodi.sourceforge.net/DTD/sodipodi-0.dtd"
   xmlns="http://www.w3.org/2000/svg"
   xmlns:svg="http://www.w3.org/2000/svg">
  <defs
     id="defs5" />
  <sodipodi:namedview
     id="namedview5"
     pagecolor="#ffffff"
     bordercolor="#000000"
     borderopacity="0.25"
     inkscape:showpageshadow="2"
     inkscape:pageopacity="0.0"
     inkscape:pagecheckerboard="0"
     inkscape:deskcolor="#d1d1d1" />
  <g
     id="color"
     transform="translate(-14.4888,-6.46)">
    <path
       fill="#fcea2b"
       d="M 15.4883,42.8687 A 33.5825,33.5825 0 0 1 19.3876,27.778 c 0.4651,7.3054 3.9113,10.2468 5.6219,10.2468 1.2778,0 2.4529,-1.3022 2.4529,-3.4259 0.0885,-2.7421 0.5065,-7.4372 4.1743,-14.2246 a 2.0964,2.0964 0 0 0 1.0269,0.2866 c 1.4368,0 3.75,-1.5545 1.8514,-13.2012 0,0 14.1092,9.5092 13.5785,25.2544 a 1.9324,1.9324 0 0 0 2.08,2.0345 5.14,5.14 0 0 0 3.9807,-2.6742 20.7208,20.7208 0 0 1 2.1614,9.6956 c 0,12.055 -7.4818,21.4867 -20.2561,21.4867 -11.3772,0 -20.5712,-9.5848 -20.5712,-20.0575"
       id="path1" />
    <path
       fill="#f1b31c"
       d="m 37.2545,26.9077 c -0.3833,1.4743 -1.661,3.9314 -5.3664,8.1576 -0.1277,0.0983 -0.1277,0.1966 -0.2555,0.2949 -0.3833,0.688 -2.0654,1.951 -2.0654,4.7383 a 5.0912,5.0912 0 0 0 0.66,2.24 4.85,4.85 0 0 1 -3.0416,1.493 c -0.7461,0 -2.3087,-0.7109 -2.4294,-1.8209 a 4.7314,4.7314 0 0 0 -1.7013,3.6709 c 0,4.3877 2.0615,8.9425 7.939,12.4808 0,0 1.661,1.0811 1.7887,1.9657 0,0 0,0.0983 0.1278,0.0983 h 6.7718 c 0.2556,0 0.2556,0 0.2556,-0.0983 0,-0.1966 0.511,-1.2777 4.0886,-3.7348 A 14.106,14.106 0 0 0 48.7539,51.1841 0.8621,0.8621 0 0 0 47.9873,50.0047 2.0155,2.0155 0 0 1 46.71,48.8252 v 0 c 0,0 -0.2556,-0.7863 0.7666,-2.5554 a 4.7181,4.7181 0 0 0 0.841,-2.3589 1.2064,1.2064 0 0 0 -1.661,-0.688 2.8632,2.8632 0 0 1 -3.652,-1.0811 c 0,0 -0.8943,-1.5725 -0.1277,-5.4056 0.5111,-2.9486 -1.2777,-7.7645 -3.5776,-10.2216 -0.6393,-0.5898 -1.917,-0.3932 -2.0448,0.3931 z"
       id="path2" />
    <polyline
       fill="#3f3f3f"
       points="39.302 55.881 47.057 56.419 41.501 47.603 45.013 47.757 40.217 40.501 43.237 40.332 36.397 30.97 29.826 40.547 32.907 40.171 27.566 47.757 31.293 47.603 25.737 56.419 32.67 55.605"
       id="polyline2" />
  </g>
  <g
     id="line"
     transform="translate(-14.4888,-6.46)">
    <polyline
       fill="none"
       stroke="#000000"
       stroke-linecap="round"
       stroke-linejoin="round"
       stroke-width="2"
       points="39.632 55.881 47.057 56.419 41.501 47.603 45.013 47.757 40.217 40.501 43.237 40.332 36.397 30.97 29.826 40.547 32.907 40.171 27.566 47.757 31.293 47.603 25.737 56.419 32.34 55.605"
       id="polyline3" />
    <line
       x1="36.3969"
       x2="36.3969"
       y1="57.226398"
       y2="63.2201"
       fill="none"
       stroke="#000000"
       stroke-linecap="round"
       stroke-miterlimit="10"
       stroke-width="2"
       id="line3" />
    <path
       fill="none"
       stroke="#000000"
       stroke-linecap="round"
       stroke-linejoin="round"
       stroke-width="2"
       d="m 20.3488,55.8877 a 20.1948,20.1948 0 0 1 -4.86,-13.019 33.5825,33.5825 0 0 1 3.8988,-15.0907 c 0.4651,7.3054 3.9113,10.2468 5.6219,10.2468 1.2778,0 2.4529,-1.3022 2.4529,-3.4259 0.0885,-2.7421 0.1766,-7.1072 3.8443,-13.8946"
       id="path3" />
    <path
       fill="none"
       stroke="#000000"
       stroke-linecap="round"
       stroke-linejoin="round"
       stroke-width="2"
       d="M 46.871,60.436 A 20.6379,20.6379 0 0 1 36.0595,63.256 20.288,20.288 0 0 1 25.7352,60.4307"
       id="path4" />
    <path
       fill="none"
       stroke="#000000"
       stroke-linecap="round"
       stroke-linejoin="round"
       stroke-width="2"
       d="m 34.845,7.46 c 0,0 13.7792,9.5092 13.2485,25.2544 a 1.9324,1.9324 0 0 0 2.08,2.0345 5.14,5.14 0 0 0 3.9807,-2.6742 20.7208,20.7208 0 0 1 2.1614,9.6953 23.4673,23.4673 0 0 1 -3.7862,13.28"
       id="path5" />
  </g>
</svg>
