<svg xmlns="http://www.w3.org/2000/svg" xmlns:svg="http://www.w3.org/2000/svg" id="emoji" width="47.702" height="61.011" version="1.1" viewBox="0 0 47.702 61.011"><g id="color" transform="translate(-8.9652,-3.9404)"><path id="path1" fill="#fcea2b" d="m 8.9652,37.0942 a 30.58,30.58 0 0 1 3.5507,-13.7415 c 0.4235,6.6522 3.5616,9.3307 5.1193,9.3307 1.1635,0 2.2336,-1.1858 2.2336,-3.12 0.0805,-2.497 0.4612,-6.7723 3.801,-12.9528 a 1.91,1.91 0 0 0 0.9352,0.2609 c 1.3083,0 3.415,-1.4155 1.6858,-12.0209 0,0 12.8478,8.659 12.3645,22.9965 a 1.76,1.76 0 0 0 1.8936,1.8529 4.68,4.68 0 0 0 3.6248,-2.4351 18.8668,18.8668 0 0 1 1.9686,8.8283 c 0,10.9771 -6.8129,19.5656 -18.4451,19.5656 -10.36,0 -18.732,-8.7279 -18.732,-18.2642"/><path id="path2" fill="#f1b31c" d="m 27.8362,23.4708 c -0.349,1.3425 -1.5125,3.58 -4.8866,7.4283 -0.1163,0.09 -0.1163,0.179 -0.2326,0.2685 -0.3491,0.6264 -1.8808,1.7765 -1.8808,4.3147 a 4.6362,4.6362 0 0 0 0.6009,2.04 4.4166,4.4166 0 0 1 -2.77,1.3595 c -0.6793,0 -2.1022,-0.6474 -2.2121,-1.6581 a 4.3083,4.3083 0 0 0 -1.549,3.3423 c 0,3.9954 1.8773,8.143 7.2292,11.3649 0,0 1.5125,0.9845 1.6289,1.79 0,0 0,0.09 0.1163,0.09 h 6.1664 c 0.2327,0 0.2327,0 0.2327,-0.09 0,-0.179 0.4654,-1.1635 3.7231,-3.4009 a 12.8449,12.8449 0 0 0 4.3048,-4.7434 0.785,0.785 0 0 0 -0.6981,-1.0739 1.8353,1.8353 0 0 1 -1.1635,-1.074 v 0 c 0,0 -0.2327,-0.716 0.6981,-2.3269 a 4.2965,4.2965 0 0 0 0.7659,-2.148 1.0986,1.0986 0 0 0 -1.5125,-0.6265 2.6073,2.6073 0 0 1 -3.3255,-0.9844 c 0,0 -0.8144,-1.432 -0.1163,-4.9224 0.4653,-2.6849 -1.1635,-7.07 -3.2577,-9.3077 -0.5818,-0.537 -1.7453,-0.358 -1.8616,0.358 z"/><path id="path3" fill="#3f3f3f" d="m 40.7668,48.0293 -4.26,5.78 -6.1969,5.15 2.5223,1.9991 4.48,-3.6187 a 7.5476,7.5476 0 0 0 2.4817,-1.7235 l 4.2117,-4.578 z"/><path id="path4" fill="#3f3f3f" d="m 46.4845,44.3209 v 1.814 l 3.66,4.3682 a 4.3457,4.3457 0 0 1 0.6671,2.3876 l 0.3967,8.66 c 0.0482,1.811 -0.9915,2.4007 -1.7973,2.4007 -0.7887,0 -1.44,-0.5994 -1.7039,-2.1969 L 46.9587,53.65 40.9408,48.2008 a 2.9548,2.9548 0 0 1 -0.9225,-2.1743 3.9655,3.9655 0 0 1 0.615,-2.1923 l 2.907,-5.2487 c 1.0422,-1.9472 2.0339,-2.6234 3.4056,-2.6234 a 3.1026,3.1026 0 0 1 2.65,2.667 z"/><circle id="circle4" cx="51.875" cy="33.152" r="3.135" fill="#3f3f3f"/><path id="path5" fill="#f1b31c" d="m 41.5141,48.551 -0.7938,-0.7375 -4.0572,5.9684 -6.8014,4.7926 0.5568,0.4708 7.1347,-4.7153 z"/><path id="path6" fill="#f1b31c" d="m 41.9408,48.2006 a 2.9548,2.9548 0 0 1 -0.9225,-2.1743 3.9655,3.9655 0 0 1 0.615,-2.1923 l 2.907,-5.2487 c 1.0422,-1.9472 2.0339,-2.6234 3.4056,-2.6234 a 2.1317,2.1317 0 0 1 1.0615,0.3218 z"/><path id="path7" fill="#f1b31c" d="m 49.5765,64.4027 c -0.7887,0 -1.6052,-1.0508 -1.8691,-2.6483 l -0.7487,-8.1044 -0.599,-0.5424 2.2168,0.2953 z"/><path id="path8" fill="#f1b31c" d="M 49.5925,35.3008 A 3.135,3.135 0 0 1 53.84,30.7086 9.217,9.217 0 0 0 49.5925,35.3008 Z"/></g><g id="line" transform="translate(-8.9652,-3.9404)"><polyline id="polyline8" fill="none" stroke="#000" stroke-linecap="round" stroke-linejoin="round" stroke-width="2" points="55.667 43.758 50.264 43.758 46.453 39.512"/><path id="path9" fill="none" stroke="#000" stroke-linecap="round" stroke-linejoin="round" stroke-width="2" d="m 46.55,35.9786 c 0,0 -5.3819,0.91 -6.5319,1.7338 -1.4689,1.0521 -4.1343,6.2446 -4.1343,6.2446"/><path id="path10" fill="none" stroke="#000" stroke-linecap="round" stroke-linejoin="round" stroke-width="2" d="m 38.1489,50.2244 -2.6422,3.5848 -2.0713,1.3438"/><path id="path11" fill="none" stroke="#000" stroke-linecap="round" stroke-linejoin="round" stroke-width="2" d="m 46.4845,43.9909 v 2.144 l 3.66,4.3682 a 4.3457,4.3457 0 0 1 0.6671,2.3876 l 0.3967,8.66 c 0.0482,1.811 -0.9915,2.4007 -1.7973,2.4007 -0.7887,0 -1.44,-0.5994 -1.7039,-2.1969 L 46.9587,53.65 40.9408,48.2008 a 2.9548,2.9548 0 0 1 -0.9225,-2.1743 3.9655,3.9655 0 0 1 0.615,-2.1923 l 2.907,-5.2487 c 1.0422,-1.9472 2.0339,-2.6234 3.4056,-2.6234 a 2.4538,2.4538 0 0 1 2.32,2.337"/><path id="path12" fill="none" stroke="#000" stroke-linecap="round" stroke-linejoin="round" stroke-width="1.821" d="M 26.5434,55.5429 A 18.8048,18.8048 0 0 1 9.8758,37.0942 30.58,30.58 0 0 1 13.4265,23.3527 c 0.4235,6.6522 3.5616,9.3307 5.1193,9.3307 1.1635,0 2.2336,-1.1858 2.2336,-3.12 0.0805,-2.497 0.4612,-6.7723 3.801,-12.9528"/><path id="path13" fill="none" stroke="#000" stroke-linecap="round" stroke-linejoin="round" stroke-width="1.821" d="m 26.2908,4.851 c 0,0 12.8478,8.659 12.3645,22.9965 a 1.76,1.76 0 0 0 1.8936,1.8525 4.68,4.68 0 0 0 3.6248,-2.4351 13.8415,13.8415 0 0 1 1.28,3.3774"/><path id="path14" fill="none" stroke="#000" stroke-linecap="round" stroke-linejoin="round" stroke-width="2" d="m 42.375,52.4469 -2.6421,3.5847 -6.7443,4.3753"/><path id="path15" fill="none" stroke="#000" stroke-linecap="round" stroke-linejoin="round" stroke-width="2" d="m 48.74,33.1515 a 3.135,3.135 0 1 1 3.135,3.135"/></g></svg>