<svg xmlns="http://www.w3.org/2000/svg" xmlns:svg="http://www.w3.org/2000/svg" id="emoji" width="49.998" height="49.825" version="1.1" viewBox="0 0 49.998 49.825"><g id="color" transform="translate(-10.695791,-11.346511)"><path id="path1" fill="#fcea2b" d="m 32.2938,14.2328 a 3.8921,3.8921 0 0 1 6.7064,0 l 20.119,40.1422 a 4.4616,4.4616 0 0 1 0.5748,1.9161 3.8848,3.8848 0 0 1 -3.8322,3.88 H 15.528 a 3.8027,3.8027 0 0 1 -3.8322,-3.7843 3.4544,3.4544 0 0 1 0.5748,-1.9161 l 20.0232,-40.238"/><path id="path2" fill="#d22f27" d="m 35.8544,39.0488 c 0,1.5051 -2.7286,3.811 -2.7286,5.9915 l -0.06,0.1876 c 0,0 -0.3221,1.4282 -1.39,1.4282 a 1.3125,1.3125 0 0 1 -0.7715,-0.3248 c -0.2624,-0.2447 -0.6006,0.13 -0.5474,0.458 0.16,1.3105 3.0227,5.5211 5.17,5.5211 2.4563,0 4.6289,-2.9458 4.8225,-3.9856 0,-0.4974 -0.8339,-0.1867 -0.8339,-0.873 0,-0.5821 0.5067,-0.9643 0.5067,-1.7287 a 0.41,0.41 0 0 0 -0.4246,-0.3778 c -0.1911,0 -0.4595,0.1335 -0.6732,0.1335 -0.8213,0 -1.007,-0.7461 -1.007,-1.5106 0,0 0.1541,0.0506 0.1541,-1.579 a 5.8829,5.8829 0 0 0 -1.4226,-3.493 0.5511,0.5511 0 0 0 -0.357,-0.1331 c -0.1895,0 -0.4375,0.0843 -0.4375,0.2857 z"/></g><g id="line" transform="translate(-10.695791,-11.346511)"><path id="path3" fill="none" stroke="#000" stroke-linecap="round" stroke-linejoin="round" stroke-width="2" d="m 29.5475,52.6224 a 8.2936,8.2936 0 0 0 5.9363,2.3321 8.8363,8.8363 0 0 0 6.0211,-2.3321"/><path id="path4" fill="none" stroke="#000" stroke-linecap="round" stroke-linejoin="round" stroke-width="2" d="m 27.69,50.224 c 0,0 -4.4523,-4.7491 -0.212,-11.0246 0,0 0.8558,1.0878 1.5081,2.1314 0.4857,0.56 1.3667,1.5152 1.8331,1.5152 a 1.0035,1.0035 0 0 0 1.0176,-1.1025 v -0.3816 a 15.4769,15.4769 0 0 1 1.5265,-7.2932 c 0,0 2.9686,1.6113 1.6967,-6.1907 0,0 6.7634,4.5583 6.509,12.1059 0,0.5512 0.2482,0.9753 0.8471,0.9753 0.59,0 2.3879,-0.5726 2.3879,-1.1238 0.0424,0.0424 2.6713,5.5547 -1.06,10.3886"/><path id="path5" fill="none" stroke="#000" stroke-linecap="round" stroke-linejoin="round" stroke-width="2" d="m 33.0789,45.1184 v 0 c 0,0 -0.2976,1.641 -1.4883,1.5265 a 2.6744,2.6744 0 0 1 -0.6091,-0.2451 c -0.3282,-0.3594 -0.6744,0.0842 -0.6248,0.3895 a 10.9625,10.9625 0 0 0 3.02,4.4732 c 0,0 0.93,0.6841 0.98,0.6841"/><path id="path6" fill="none" stroke="#000" stroke-linecap="round" stroke-linejoin="round" stroke-width="2" d="m 36.9658,52.0091 a 12.345,12.345 0 0 0 1.5469,-1.0468 6.84,6.84 0 0 0 1.8066,-2.4874 0.3347,0.3347 0 0 0 -0.2976,-0.458 0.782,0.782 0 0 1 -0.4961,-0.4579 v 0 c 0,0 -0.0993,-0.3053 0.2976,-0.9922 a 1.6036,1.6036 0 0 0 0.1985,-0.9159 0.4685,0.4685 0 0 0 -0.645,-0.2672 0.96,0.96 0 0 1 -1.29,-0.42 c 0,0 -0.3116,-0.1523 -0.014,-1.6406 a 5.9958,5.9958 0 0 0 -1.4247,-4.4272 0.5456,0.5456 0 0 0 -0.3766,-0.1331 0.3948,0.3948 0 0 0 -0.4172,0.2857"/><path id="path7" fill="none" stroke="#000" stroke-linecap="round" stroke-linejoin="round" stroke-width="2" d="m 32.2938,14.2328 a 3.8921,3.8921 0 0 1 6.7064,0 l 20.119,40.1422 a 4.4616,4.4616 0 0 1 0.5748,1.9161 3.8848,3.8848 0 0 1 -3.8322,3.88 H 15.528 a 3.8027,3.8027 0 0 1 -3.8322,-3.7843 3.4544,3.4544 0 0 1 0.5748,-1.9161 l 20.0232,-40.238"/></g></svg>