<svg xmlns="http://www.w3.org/2000/svg" xmlns:svg="http://www.w3.org/2000/svg" id="emoji" width="56.036" height="59.659" version="1.1" viewBox="0 0 56.036 59.659"><g id="color" transform="translate(-7.8310597,-6.1922)"><polygon id="polygon1" fill="#fff" points="61.687 40.206 58.428 33.962 13.065 34.044 9.635 40.37"/><path id="path1" fill="#fff" d="M 28.1285,9.9293 27.9173,18.74 c 0,0 4.9278,-2.1539 6.9327,-1.8172 2.0049,0.3367 10.2426,6.4103 10.9407,6.4103 0.6981,0 4.9566,0.0698 5.3057,-0.0698 0.3491,-0.1396 0.5225,-0.0105 0.5225,-0.0105 l -0.11,-11.6902 c 0,0 -0.9352,0.4401 -2.3931,0.3576 C 47.6579,11.8377 42.4042,10.5449 41.7166,10.0498 41.029,9.5547 36.903,8.0693 36.5179,8.0693 c -0.3851,0 -2.3242,-0.7635 -8.3894,1.86 z"/><rect id="rect1" width="45.606" height="20.653" x="13.046" y="40.779" fill="#92d3f5"/><rect id="rect2" width="12.273" height="15.42" x="18.355" y="46.012" fill="#a57939"/><rect id="rect3" width="6.467" height="12.562" x="35.927" y="44.869" fill="#fff"/><rect id="rect4" width="6.467" height="12.562" x="47.013" y="44.869" fill="#fff"/><path id="path4" fill="#d0cfce" d="m 27.9173,18.74 c 2.1054,-1.2182 4.5004,-1.846 6.9327,-1.8172 4.5419,0 8.4377,6.247 14.3339,6.247 0.8691,0 1.3042,-0.3913 2.1813,-0.3913 0.7275,0 1.018,0.52 1.018,1.4385 v 1.5653 c 0,0.7168 -0.783,1.531 -3.0816,1.531 -6.91,0 -10.8056,-3.9084 -14.8143,-3.9084 -2.3907,0.0452 -4.7105,0.8194 -6.6492,2.219 v -4.2672 z"/><rect id="rect5" width="54.036" height="3.419" x="8.831" y="61.432" fill="#d0cfce"/></g><g id="line" transform="translate(-7.8310597,-6.1922)"><line id="line5" x1="13.046" x2="13.046" y1="61.432" y2="45.399" fill="none" stroke="#000" stroke-linecap="round" stroke-linejoin="round" stroke-width="2"/><line id="line6" x1="8.831" x2="62.867" y1="64.852" y2="64.852" fill="none" stroke="#000" stroke-linecap="round" stroke-linejoin="round" stroke-width="2"/><line id="line7" x1="62.867" x2="8.831" y1="61.432" y2="61.432" fill="none" stroke="#000" stroke-linecap="round" stroke-linejoin="round" stroke-width="2"/><polyline id="polyline7" fill="none" stroke="#000" stroke-linecap="round" stroke-linejoin="round" stroke-width="2" points="19.991 33.303 12.461 33.303 8.831 40.779 62.867 40.779 59.238 33.303 28.828 33.303"/><line id="line8" x1="58.652" x2="58.652" y1="61.432" y2="45.399" fill="none" stroke="#000" stroke-linecap="round" stroke-linejoin="round" stroke-width="2"/><line id="line9" x1="26.452" x2="26.452" y1="55.114" y2="52.33" fill="none" stroke="#000" stroke-linecap="round" stroke-linejoin="round" stroke-width="2"/><line id="line10" x1="22.534" x2="22.534" y1="55.114" y2="52.33" fill="none" stroke="#000" stroke-linecap="round" stroke-linejoin="round" stroke-width="2"/><rect id="rect10" width="12.273" height="15.42" x="18.356" y="46.012" fill="none" stroke="#000" stroke-linecap="round" stroke-linejoin="round" stroke-width="2"/><path id="path10" fill="none" stroke="#000" stroke-linecap="round" stroke-linejoin="round" stroke-width="2" d="M 27.9173,9.34 C 29.987,8.0007 32.3857,7.2576 34.85,7.1922 c 4.5419,0 8.4377,3.9373 14.3339,3.9373 0.8691,0 1.3042,-0.3912 2.1813,-0.3912 0.7275,0 1.018,0.52 1.018,1.4384 v 13.6056 c 0,0.7168 -0.783,1.531 -3.0816,1.531 -6.91,0 -10.8056,-3.9084 -14.8143,-3.9084 -2.3907,0.0452 -4.7105,0.8194 -6.6492,2.219 v -4.2672"/><line id="line11" x1="24.579" x2="24.579" y1="7.347" y2="40.779" fill="none" stroke="#000" stroke-linecap="round" stroke-miterlimit="10" stroke-width="2"/><rect id="rect11" width="6.467" height="12.562" x="35.927" y="44.869" fill="none" stroke="#000" stroke-linecap="round" stroke-linejoin="round" stroke-width="2"/><rect id="rect12" width="6.467" height="12.562" x="47.013" y="44.869" fill="none" stroke="#000" stroke-linecap="round" stroke-linejoin="round" stroke-width="2"/></g></svg>