<svg xmlns="http://www.w3.org/2000/svg" xmlns:svg="http://www.w3.org/2000/svg" id="emoji" width="57.716" height="57.182" version="1.1" viewBox="0 0 57.716 57.182"><g id="color" transform="translate(-6.1570253,-9.481)"><rect id="rect1" width="7.947" height="55.182" x="31.071" y="10.482" fill="#6a462f"/><polygon id="polygon1" fill="#a57939" points="39.018 10.481 39.018 16.558 31.071 18.66 31.071 10.481"/><polygon id="polygon2" fill="#a57939" points="62.873 21.172 58.181 27.421 42.605 27.421 42.605 14.992 58.181 14.992"/><polygon id="polygon3" fill="#6a462f" points="7.157 33.271 11.848 39.521 27.425 39.521 27.425 27.091 11.848 27.091"/><polygon id="polygon4" fill="#6a462f" points="62.873 21.172 58.181 27.421 42.605 27.421 42.605 23.216 60.975 18.672"/><polygon id="polygon5" fill="#a57939" points="11.848 27.091 7.157 33.271 27.425 27.091"/></g><g id="line" transform="translate(-6.1570253,-9.481)"><polyline id="polyline5" fill="none" stroke="#000" stroke-linecap="round" stroke-linejoin="round" stroke-width="2" points="18.23 27.091 11.848 27.091 7.157 33.271 11.848 39.521 27.425 39.521 27.425 33.982"/><polyline id="polyline6" fill="none" stroke="#000" stroke-linecap="round" stroke-linejoin="round" stroke-width="2" points="46.711 14.992 58.181 14.992 62.873 21.172 58.181 27.421 42.605 27.421 42.605 23.216"/><polyline id="polyline7" fill="none" stroke="#000" stroke-linecap="round" stroke-linejoin="round" stroke-width="2" points="31.071 65.663 31.071 10.481 39.018 10.481 39.018 65.663"/></g></svg>