<?xml version="1.0" encoding="UTF-8" standalone="no"?>
<svg
   id="emoji"
   viewBox="0 0 57.71595 57.181999"
   version="1.1"
   sodipodi:docname="e094.svg"
   width="57.71595"
   height="57.181999"
   xmlns:inkscape="http://www.inkscape.org/namespaces/inkscape"
   xmlns:sodipodi="http://sodipodi.sourceforge.net/DTD/sodipodi-0.dtd"
   xmlns="http://www.w3.org/2000/svg"
   xmlns:svg="http://www.w3.org/2000/svg">
  <defs
     id="defs7" />
  <sodipodi:namedview
     id="namedview7"
     pagecolor="#ffffff"
     bordercolor="#000000"
     borderopacity="0.25"
     inkscape:showpageshadow="2"
     inkscape:pageopacity="0.0"
     inkscape:pagecheckerboard="0"
     inkscape:deskcolor="#d1d1d1" />
  <g
     id="color"
     transform="translate(-6.1570253,-9.481)">
    <rect
       x="31.071301"
       y="10.4815"
       width="7.9471998"
       height="55.1819"
       fill="#6a462f"
       id="rect1" />
    <polygon
       fill="#a57939"
       points="39.018,10.481 39.018,16.558 31.071,18.66 31.071,10.481 "
       id="polygon1" />
    <polygon
       fill="#a57939"
       points="62.873,21.172 58.181,27.421 42.605,27.421 42.605,14.992 58.181,14.992 "
       id="polygon2" />
    <polygon
       fill="#6a462f"
       points="7.157,33.271 11.848,39.521 27.425,39.521 27.425,27.091 11.848,27.091 "
       id="polygon3" />
    <polygon
       fill="#6a462f"
       points="62.873,21.172 58.181,27.421 42.605,27.421 42.605,23.216 60.975,18.672 "
       id="polygon4" />
    <polygon
       fill="#a57939"
       points="11.848,27.091 7.157,33.271 27.425,27.091 "
       id="polygon5" />
  </g>
  <g
     id="line"
     transform="translate(-6.1570253,-9.481)">
    <polyline
       fill="none"
       stroke="#000000"
       stroke-linecap="round"
       stroke-linejoin="round"
       stroke-width="2"
       points="18.23 27.091 11.848 27.091 7.157 33.271 11.848 39.521 27.425 39.521 27.425 33.982"
       id="polyline5" />
    <polyline
       fill="none"
       stroke="#000000"
       stroke-linecap="round"
       stroke-linejoin="round"
       stroke-width="2"
       points="46.711 14.992 58.181 14.992 62.873 21.172 58.181 27.421 42.605 27.421 42.605 23.216"
       id="polyline6" />
    <polyline
       fill="none"
       stroke="#000000"
       stroke-linecap="round"
       stroke-linejoin="round"
       stroke-width="2"
       points="31.071 65.663 31.071 10.481 39.018 10.481 39.018 65.663"
       id="polyline7" />
  </g>
</svg>
