<?xml version="1.0" encoding="UTF-8" standalone="no"?>
<svg
   id="emoji"
   viewBox="0 0 47.139919 58.245804"
   version="1.1"
   sodipodi:docname="e095.svg"
   width="47.139919"
   height="58.245804"
   xmlns:inkscape="http://www.inkscape.org/namespaces/inkscape"
   xmlns:sodipodi="http://sodipodi.sourceforge.net/DTD/sodipodi-0.dtd"
   xmlns="http://www.w3.org/2000/svg"
   xmlns:svg="http://www.w3.org/2000/svg">
  <defs
     id="defs5" />
  <sodipodi:namedview
     id="namedview5"
     pagecolor="#ffffff"
     bordercolor="#000000"
     borderopacity="0.25"
     inkscape:showpageshadow="2"
     inkscape:pageopacity="0.0"
     inkscape:pagecheckerboard="0"
     inkscape:deskcolor="#d1d1d1" />
  <g
     id="color"
     transform="translate(-13.1816,-6.6751959)">
    <rect
       x="14.1816"
       y="7.9787002"
       rx="3.6800001"
       ry="3.6800001"
       width="34.043098"
       height="55.942299"
       fill="#9b9b9a"
       id="rect1" />
    <path
       fill="#3f3f3f"
       d="M 44.3929,54.9961 H 18.0135 A 0.9747,0.9747 0 0 1 17.0408,54.0234 V 15.117 a 0.9748,0.9748 0 0 1 0.9727,-0.9727 h 26.3794 a 0.9748,0.9748 0 0 1 0.9727,0.9727 v 38.9064 a 0.919,0.919 0 0 1 -0.9727,0.9727 z"
       id="path1" />
    <path
       fill="#fcea2b"
       d="m 46.2852,7.6752 a 13.0323,13.0323 0 0 0 -9.2634,22.2024 l -2.6729,8.5816 7.1733,-5.6237 a 13.0317,13.0317 0 1 0 4.763,-25.16 z"
       id="path2" />
  </g>
  <g
     id="line"
     transform="translate(-13.1816,-6.6751959)">
    <path
       fill="none"
       stroke="#000000"
       stroke-linecap="round"
       stroke-linejoin="round"
       stroke-width="2"
       d="m 45.3656,37.4681 v 16.5553 a 0.919,0.919 0 0 1 -0.9727,0.9727 H 18.0135 A 0.9747,0.9747 0 0 1 17.0408,54.0234 V 15.117 a 0.9748,0.9748 0 0 1 0.9727,-0.9727 H 31.572"
       id="path3" />
    <circle
       cx="31.203199"
       cy="59.2523"
       r="1.9453"
       fill="#000000"
       id="circle3" />
    <line
       x1="33.334499"
       x2="26.339899"
       y1="11.2263"
       y2="11.2263"
       fill="none"
       stroke="#000000"
       stroke-linecap="round"
       stroke-linejoin="round"
       stroke-width="2"
       id="line3" />
    <path
       fill="none"
       stroke="#000000"
       stroke-linecap="round"
       stroke-linejoin="round"
       stroke-width="2"
       d="m 48.2248,36.861 v 23.38 a 3.6908,3.6908 0 0 1 -3.68,3.68 H 17.8616 a 3.6908,3.6908 0 0 1 -3.68,-3.68 V 11.6587 a 3.6908,3.6908 0 0 1 3.68,-3.68 h 19.1092"
       id="path4" />
    <polyline
       fill="none"
       stroke="#000000"
       stroke-linecap="round"
       stroke-linejoin="round"
       stroke-width="2.5"
       points="46.892 26.339 46.892 20.594 43.989 20.594"
       id="polyline4" />
    <line
       x1="49.6516"
       x2="43.922798"
       y1="26.3389"
       y2="26.3389"
       fill="none"
       stroke="#000000"
       stroke-linecap="round"
       stroke-linejoin="round"
       stroke-width="2.5"
       id="line4" />
    <circle
       cx="46.588699"
       cy="15.602"
       r="1.9093"
       id="circle4" />
    <path
       fill="none"
       stroke="#000000"
       stroke-linecap="round"
       stroke-linejoin="round"
       stroke-width="2"
       d="M 46.2851,7.6752 A 13.0261,13.0261 0 0 0 37.2562,30.1 l -2.6037,8.36 7.0766,-5.5479 A 13.03,13.03 0 1 0 46.2851,7.676 Z"
       id="path5" />
  </g>
</svg>
