<svg xmlns="http://www.w3.org/2000/svg" xmlns:svg="http://www.w3.org/2000/svg" id="emoji" width="47.14" height="58.246" version="1.1" viewBox="0 0 47.14 58.246"><g id="color" transform="translate(-13.1816,-6.6751959)"><rect id="rect1" width="34.043" height="55.942" x="14.182" y="7.979" fill="#9b9b9a" rx="3.68" ry="3.68"/><path id="path1" fill="#3f3f3f" d="M 44.3929,54.9961 H 18.0135 A 0.9747,0.9747 0 0 1 17.0408,54.0234 V 15.117 a 0.9748,0.9748 0 0 1 0.9727,-0.9727 h 26.3794 a 0.9748,0.9748 0 0 1 0.9727,0.9727 v 38.9064 a 0.919,0.919 0 0 1 -0.9727,0.9727 z"/><path id="path2" fill="#fcea2b" d="m 46.2852,7.6752 a 13.0323,13.0323 0 0 0 -9.2634,22.2024 l -2.6729,8.5816 7.1733,-5.6237 a 13.0317,13.0317 0 1 0 4.763,-25.16 z"/></g><g id="line" transform="translate(-13.1816,-6.6751959)"><path id="path3" fill="none" stroke="#000" stroke-linecap="round" stroke-linejoin="round" stroke-width="2" d="m 45.3656,37.4681 v 16.5553 a 0.919,0.919 0 0 1 -0.9727,0.9727 H 18.0135 A 0.9747,0.9747 0 0 1 17.0408,54.0234 V 15.117 a 0.9748,0.9748 0 0 1 0.9727,-0.9727 H 31.572"/><circle id="circle3" cx="31.203" cy="59.252" r="1.945" fill="#000"/><line id="line3" x1="33.334" x2="26.34" y1="11.226" y2="11.226" fill="none" stroke="#000" stroke-linecap="round" stroke-linejoin="round" stroke-width="2"/><path id="path4" fill="none" stroke="#000" stroke-linecap="round" stroke-linejoin="round" stroke-width="2" d="m 48.2248,36.861 v 23.38 a 3.6908,3.6908 0 0 1 -3.68,3.68 H 17.8616 a 3.6908,3.6908 0 0 1 -3.68,-3.68 V 11.6587 a 3.6908,3.6908 0 0 1 3.68,-3.68 h 19.1092"/><polyline id="polyline4" fill="none" stroke="#000" stroke-linecap="round" stroke-linejoin="round" stroke-width="2.5" points="46.892 26.339 46.892 20.594 43.989 20.594"/><line id="line4" x1="49.652" x2="43.923" y1="26.339" y2="26.339" fill="none" stroke="#000" stroke-linecap="round" stroke-linejoin="round" stroke-width="2.5"/><circle id="circle4" cx="46.589" cy="15.602" r="1.909"/><path id="path5" fill="none" stroke="#000" stroke-linecap="round" stroke-linejoin="round" stroke-width="2" d="M 46.2851,7.6752 A 13.0261,13.0261 0 0 0 37.2562,30.1 l -2.6037,8.36 7.0766,-5.5479 A 13.03,13.03 0 1 0 46.2851,7.676 Z"/></g></svg>