<svg xmlns="http://www.w3.org/2000/svg" xmlns:svg="http://www.w3.org/2000/svg" id="emoji" width="49.057" height="57.942" version="1.1" viewBox="0 0 49.057 57.942"><g id="color" transform="translate(-14.1768,-6.9919)"><rect id="rect1" width="34.043" height="55.942" x="15.177" y="7.992" fill="#9b9b9a" rx="3.68" ry="3.68"/><path id="path1" fill="#3f3f3f" d="M 45.3881,55.0093 H 19.0087 A 0.9748,0.9748 0 0 1 18.036,54.0366 V 15.13 a 0.9748,0.9748 0 0 1 0.9727,-0.9727 h 26.3794 a 0.9747,0.9747 0 0 1 0.9727,0.9727 v 38.9066 a 0.919,0.919 0 0 1 -0.9727,0.9727 z"/><path id="path2" fill="#fcea2b" d="m 31.137,22.0732 a 3.6908,3.6908 0 0 0 -3.68,3.68 v 14.996 a 0.3105,0.3105 0 0 0 0.46,0.276 l 4.6,-4.048 a 0.676,0.676 0 0 1 0.552,-0.184 h 25.4844 a 3.6908,3.6908 0 0 0 3.68,-3.68 v -7.36 a 3.6908,3.6908 0 0 0 -3.68,-3.68 z"/></g><g id="line" transform="translate(-14.1768,-6.9919)"><path id="path3" fill="none" stroke="#000" stroke-linecap="round" stroke-linejoin="round" stroke-width="2" d="m 46.3608,39.5475 v 14.4891 a 0.919,0.919 0 0 1 -0.9727,0.9727 H 19.0087 A 0.9748,0.9748 0 0 1 18.036,54.0366 V 15.13 a 0.9748,0.9748 0 0 1 0.9727,-0.9727 h 26.3794 a 0.9747,0.9747 0 0 1 0.9727,0.9727 v 3.902"/><circle id="circle3" cx="32.198" cy="59.265" r="1.945" fill="#000"/><polygon id="polygon3" fill="none" stroke="#000" stroke-linecap="round" stroke-linejoin="round" stroke-width="2" points="37.062 11.24 27.335 11.24 37.062 11.24"/><path id="path4" fill="none" stroke="#000" stroke-linecap="round" stroke-linejoin="round" stroke-width="2" d="m 49.22,39.5475 v 20.7068 a 3.6908,3.6908 0 0 1 -3.68,3.68 H 18.8568 a 3.6908,3.6908 0 0 1 -3.68,-3.68 V 11.6719 a 3.6908,3.6908 0 0 1 3.68,-3.68 H 45.54 a 3.6908,3.6908 0 0 1 3.68,3.68 v 7.36"/><path id="path5" fill="none" stroke="#000" stroke-miterlimit="10" stroke-width="2" d="m 31.137,22.0732 a 3.6908,3.6908 0 0 0 -3.68,3.68 v 14.996 a 0.3105,0.3105 0 0 0 0.46,0.276 l 4.6,-4.048 a 0.676,0.676 0 0 1 0.552,-0.184 h 25.4844 a 3.6908,3.6908 0 0 0 3.68,-3.68 v -7.36 a 3.6908,3.6908 0 0 0 -3.68,-3.68 z"/></g></svg>