<?xml version="1.0" encoding="UTF-8" standalone="no"?>
<svg
   id="emoji"
   viewBox="0 0 56.213001 59.198967"
   version="1.1"
   sodipodi:docname="e099.svg"
   width="56.213001"
   height="59.198967"
   xmlns:inkscape="http://www.inkscape.org/namespaces/inkscape"
   xmlns:sodipodi="http://sodipodi.sourceforge.net/DTD/sodipodi-0.dtd"
   xmlns="http://www.w3.org/2000/svg"
   xmlns:svg="http://www.w3.org/2000/svg">
  <defs
     id="defs14" />
  <sodipodi:namedview
     id="namedview14"
     pagecolor="#ffffff"
     bordercolor="#000000"
     borderopacity="0.25"
     inkscape:showpageshadow="2"
     inkscape:pageopacity="0.0"
     inkscape:pagecheckerboard="0"
     inkscape:deskcolor="#d1d1d1" />
  <g
     id="color"
     transform="translate(-7.406,-5.5800333)">
    <circle
       cx="23.5753"
       cy="14.8168"
       r="4.5579"
       fill="#9b9b9a"
       id="circle1" />
    <circle
       cx="31.9002"
       cy="14.393"
       r="5.9228001"
       fill="#3f3f3f"
       id="circle2" />
    <circle
       cx="36.505199"
       cy="35.687698"
       r="3.7241001"
       fill="#9b9b9a"
       id="circle3" />
    <circle
       cx="51.000401"
       cy="22.028299"
       r="5.0643001"
       fill="#9b9b9a"
       id="circle4" />
    <circle
       cx="40.101101"
       cy="10.9712"
       r="4.3910999"
       fill="#9b9b9a"
       id="circle5" />
    <circle
       cx="40.570801"
       cy="22.005199"
       r="7.8211999"
       fill="#3f3f3f"
       id="circle6" />
    <polygon
       fill="#9b9b9a"
       points="31.209,37.155 37.472,38.628 42.788,37.155 47.916,43.567 56.263,49.391 62.819,64.288 7.948,64.288 21.46,44.389 "
       id="polygon6" />
    <polygon
       fill="#d0cfce"
       points="25.377,41.481 27.031,45.012 25.417,51.296 27.31,64.288 7.948,64.288 21.46,44.389 "
       id="polygon7" />
    <polygon
       fill="#3f3f3f"
       points="47.527,52.151 44.411,49.646 47.916,43.567 56.263,49.391 62.819,64.288 43.646,64.288 "
       id="polygon8" />
    <circle
       cx="35.835201"
       cy="28.5945"
       r="5.6424999"
       fill="#9b9b9a"
       id="circle8" />
  </g>
  <g
     id="line"
     transform="translate(-7.406,-5.5800333)">
    <polyline
       fill="none"
       stroke="#000000"
       stroke-linecap="round"
       stroke-linejoin="round"
       stroke-width="2"
       points="8.406 63.629 21.46 44.389 31.209 37.155 37.472 38.628 42.788 37.155 47.916 43.567 56.263 49.391 62.619 63.779"
       id="polyline8" />
    <polyline
       fill="none"
       stroke="#000000"
       stroke-linecap="round"
       stroke-linejoin="round"
       stroke-width="2"
       points="25.377 41.481 27.031 45.012 25.417 51.296 26.333 58.609"
       id="polyline9" />
    <polyline
       fill="none"
       stroke="#000000"
       stroke-linecap="round"
       stroke-linejoin="round"
       stroke-width="2"
       points="47.916 43.567 44.411 49.646 47.527 52.151 45.854 57.324"
       id="polyline10" />
    <path
       fill="none"
       stroke="#000000"
       stroke-linecap="round"
       stroke-linejoin="round"
       stroke-width="2"
       d="m 32.952,23.7506 a 5.6368,5.6368 0 0 0 -0.2644,9.5271"
       id="path10" />
    <path
       fill="none"
       stroke="#000000"
       stroke-linecap="round"
       stroke-linejoin="round"
       stroke-width="2"
       d="m 44.4923,10.9711 a 4.3859,4.3859 0 0 0 -8.6582,-0.9971 5.9116,5.9116 0 0 0 -9.1162,1.5535 4.5489,4.5489 0 0 0 -7.7,3.2892"
       id="path11" />
    <path
       fill="none"
       stroke="#000000"
       stroke-linecap="round"
       stroke-linejoin="round"
       stroke-width="2"
       d="M 56.0646,22.0283 A 5.0642,5.0642 0 0 0 48.174,17.8261"
       id="path12" />
    <path
       fill="none"
       stroke="#000000"
       stroke-linecap="round"
       stroke-linejoin="round"
       stroke-width="2"
       d="m 38.5432,33.5448 a 5.6492,5.6492 0 0 0 2.8056,-3.7577 7.8122,7.8122 0 0 0 5.8059,-3.5711"
       id="path13" />
    <path
       fill="none"
       stroke="#000000"
       stroke-linecap="round"
       stroke-linejoin="round"
       stroke-width="2"
       d="M 32.8723,20.6177 A 7.8234,7.8234 0 0 1 47.4982,18.371"
       id="path14" />
  </g>
</svg>
