<svg xmlns="http://www.w3.org/2000/svg" xmlns:svg="http://www.w3.org/2000/svg" id="emoji" width="58.576" height="56.622" version="1.1" viewBox="0 0 58.576 56.622"><g id="color" transform="translate(-7.244,-7.1368)"><path id="path1" fill="#fff" d="m 45.1178,11.8696 6.2509,-1.6625 c 0.174,-0.0463 0.3501,-0.0839 0.5277,-0.1139 0.3741,-0.063 1.0113,-0.1736 1.4833,-0.2429 0.3184,-0.0467 0.6385,-0.0524 0.9585,-0.0182 l 9.6491,0.5112 c 0.6839,0 1.5128,1.806 1.11,2.3587 l -4.5786,4.8561 c -0.7631,0.2081 -0.5147,1.6756 -0.2081,2.1506 l 4.648,5.4804 c 0.4489,0.6954 0.7015,1.8328 0.2081,2.4974 l -5.2809,4.9783 c -0.3067,0.4131 -0.296,0.9812 0.0259,1.3826 l 4.7694,4.9469 c 0.5442,0.6786 0.2485,1.9327 -0.3469,2.5668 l -4.2976,4.2465 c -0.2227,0.2371 -0.233,0.6032 -0.0242,0.8526 l 5.2236,4.6131 c 0.6207,0.7595 -0.1858,2.3127 -0.9018,2.983 L 57.5697,59.4231 38.3888,34.0688 45.1981,12.6646 c 0.0031,-0.1572 -0.2357,-0.772 -0.0801,-0.7951 z"/><polygon id="polygon1" fill="#9b9b9a" points="31.046 36.135 37.309 37.608 42.625 36.135 47.753 42.546 56.1 48.371 62.656 63.268 7.785 63.268 21.297 43.369"/><circle id="circle1" cx="22.706" cy="18.608" r="5.064" fill="#3f3f3f"/><circle id="circle2" cx="40.738" cy="13.016" r="4.879" fill="#9b9b9a"/><circle id="circle3" cx="53.07" cy="25.946" r="4.879" fill="#9b9b9a"/><circle id="circle4" cx="32.039" cy="15.709" r="6.581" fill="#9b9b9a"/><circle id="circle5" cx="43.951" cy="21.655" r="7.821" fill="#9b9b9a"/><circle id="circle6" cx="36.245" cy="26.265" r="5.642" fill="#3f3f3f"/><polygon id="polygon6" fill="#d0cfce" points="47.364 51.131 44.249 48.626 47.753 42.546 56.1 48.371 62.656 63.268 43.483 63.268"/></g><g id="line" transform="translate(-7.244,-7.1368)"><polyline id="polyline6" fill="none" stroke="#000" stroke-linecap="round" stroke-miterlimit="10" stroke-width="2" points="8.244 62.609 21.297 43.369 31.046 36.135 37.309 37.608 42.625 36.135 47.753 42.546 56.1 48.371 62.456 62.759"/><polyline id="polyline7" fill="none" stroke="#000" stroke-linecap="round" stroke-linejoin="round" stroke-width="2" points="25.214 40.46 26.868 43.992 25.254 50.276 26.17 57.589"/><polyline id="polyline8" fill="none" stroke="#000" stroke-linecap="round" stroke-linejoin="round" stroke-width="2" points="47.753 42.546 44.249 48.626 47.364 51.131 45.786 56.065"/><path id="path8" fill="none" stroke="#000" stroke-linecap="round" stroke-linejoin="round" stroke-width="2" d="m 32.2514,22.279 c -2.2011,2.206 -2.1971,5.7786 0.009,7.9797 2.206,2.2011 5.7786,2.197 7.9797,-0.009 0.3786,-0.3794 0.7012,-0.8109 0.958,-1.2813 0.8793,0.3341 1.8118,0.5061 2.7524,0.5077"/><path id="path9" fill="none" stroke="#000" stroke-linecap="round" stroke-linejoin="round" stroke-width="2" d="m 40.7382,8.1368 c -1.8281,0.0044 -3.4991,1.0343 -4.3248,2.6653 -2.7037,-2.4199 -6.8572,-2.1899 -9.2772,0.5138 -0.7911,0.8838 -1.3281,1.9654 -1.5541,3.1298 -2.2956,-1.5917 -5.4469,-1.021 -7.0386,1.2746 -0.5881,0.8482 -0.9026,1.856 -0.9014,2.8882"/><path id="path10" fill="none" stroke="#000" stroke-linecap="round" stroke-linejoin="round" stroke-width="2" d="m 43.9506,13.8337 c 4.3195,0 7.8212,3.5018 7.8212,7.8213"/><path id="path11" fill="none" stroke="#000" stroke-linecap="round" stroke-linejoin="round" stroke-width="2" d="m 51.7575,21.2458 c 2.5982,-0.7225 5.2902,0.7981 6.0127,3.3963 0.1181,0.4247 0.1781,0.8634 0.1785,1.3042"/><circle id="circle11" cx="64.01" cy="11.748" r="1.48"/><circle id="circle12" cx="58.679" cy="18.6" r="1.48"/><circle id="circle13" cx="46.448" cy="18.6" r="1.48"/><circle id="circle14" cx="64.34" cy="26.451" r="1.48"/><circle id="circle15" cx="58.679" cy="32.963" r="1.48"/><circle id="circle16" cx="64.01" cy="40.145" r="1.48"/><circle id="circle17" cx="58.679" cy="45.996" r="1.48"/><circle id="circle18" cx="64.01" cy="52.518" r="1.48"/><circle id="circle19" cx="57.36" cy="60.359" r="1.48"/><circle id="circle20" cx="52.916" cy="11.748" r="1.48"/><circle id="circle21" cx="41.514" cy="11.748" r="1.48"/><circle id="circle22" cx="52.916" cy="26.451" r="1.48"/><circle id="circle23" cx="47.448" cy="32.963" r="1.48"/><circle id="circle24" cx="52.916" cy="40.145" r="1.48"/><circle id="circle25" cx="52.256" cy="52.518" r="1.48"/><circle id="circle26" cx="48.108" cy="60.359" r="1.48"/><circle id="circle27" cx="41.514" cy="40.145" r="1.48"/></g></svg>