<?xml version="1.0" encoding="UTF-8" standalone="no"?>
<svg
   id="emoji"
   viewBox="0 0 56.8428 44.586201"
   version="1.1"
   sodipodi:docname="e09b.svg"
   width="56.8428"
   height="44.586201"
   xmlns:inkscape="http://www.inkscape.org/namespaces/inkscape"
   xmlns:sodipodi="http://sodipodi.sourceforge.net/DTD/sodipodi-0.dtd"
   xmlns="http://www.w3.org/2000/svg"
   xmlns:svg="http://www.w3.org/2000/svg">
  <defs
     id="defs10" />
  <sodipodi:namedview
     id="namedview10"
     pagecolor="#ffffff"
     bordercolor="#000000"
     borderopacity="0.25"
     inkscape:showpageshadow="2"
     inkscape:pageopacity="0.0"
     inkscape:pagecheckerboard="0"
     inkscape:deskcolor="#d1d1d1" />
  <g
     id="color"
     transform="translate(-7.5042,-15.3878)">
    <path
       fill="#ffffff"
       d="m 60.0972,35.9179 -1.433,2.9684 c 0,0 -3.3778,-4.0944 -18.9364,0.8189 -15.5586,4.9133 -12.9996,-6.1415 -12.3854,-6.551 0.6142,-0.4095 1.3307,1.433 2.9684,2.0472 1.6377,0.6142 5.2203,2.4566 6.4486,0.6142 1.2283,-1.8424 24.8732,-2.866 23.3378,0.1024 z"
       id="path1" />
    <path
       fill="#9b9b9a"
       d="m 32.4126,59.974 c -12.6091,0 -24.0871,-10.8222 -24.0871,-24.1683 0,-12.4881 8.2436,-19.4179 16.2984,-19.4179 6.8195,0.0371 12.3689,5.4987 12.5146,12.3168 0,5.2919 -1.9082,8.092 -3.73,8.092 -1.1714,0 -1.9323,-0.8847 -1.9323,-2.6288 -0.0836,-1.5703 -1.3913,-2.7949 -2.9637,-2.7755 -1.8624,0 -3.3462,1.6622 -3.3462,4.3419 0,3.6251 3.33,6.5652 7.5,6.5652 9.91,0 11.7853,-3.7786 19.9164,-3.7786 4.6814,0 7.9983,3.742 7.9983,7.1491 C 60.5808,54.18 49.1827,59.974 32.4126,59.974 Z"
       id="path2" />
    <path
       fill="#3f3f3f"
       d="M 61.8618,26.931 52.193,19.6675 42.6008,26.92 v 7.7138 l 0.0043,0.9239 c 2.338,-1.0284 4.8033,-1.739 7.33,-2.1127 v -5.7038 h 4.6122 v 5.4666 c 4.2271,0.2362 6.5978,2.1492 7.3148,4.024 z"
       id="path3" />
    <path
       fill="#3f3f3f"
       d="m 36.21,52.8907 c 5.9145,-2.6986 9.9539,-5.732 17.4353,-5.732 3.2387,0.0418 6.4025,0.9804 9.14,2.7116 V 59.974 H 32.2509 C 32.6772,56.2663 36.21,52.8907 36.21,52.8907 Z"
       id="path4" />
  </g>
  <g
     id="line"
     transform="translate(-7.5042,-15.3878)">
    <line
       x1="46.339699"
       x2="46.339699"
       y1="23.896799"
       y2="20.1387"
       fill="none"
       stroke="#000000"
       stroke-linecap="round"
       stroke-miterlimit="10"
       stroke-width="2"
       id="line4" />
    <line
       x1="42.6007"
       x2="42.6007"
       y1="34.921902"
       y2="26.920401"
       fill="none"
       stroke="#000000"
       stroke-linecap="round"
       stroke-linejoin="round"
       stroke-width="2"
       id="line5" />
    <line
       x1="61.861801"
       x2="61.861801"
       y1="26.931101"
       y2="36.570999"
       fill="none"
       stroke="#000000"
       stroke-linecap="round"
       stroke-linejoin="round"
       stroke-width="2"
       id="line6" />
    <polyline
       fill="none"
       stroke="#000000"
       stroke-linecap="round"
       stroke-linejoin="round"
       stroke-width="2"
       points="41.116 28.015 52.193 19.668 63.347 28.015"
       id="polyline6" />
    <polyline
       fill="none"
       stroke="#000000"
       stroke-linecap="round"
       stroke-linejoin="round"
       stroke-width="2"
       points="50.232 27.741 54.547 27.741 54.547 33.343"
       id="polyline7" />
    <path
       fill="none"
       stroke="#000000"
       stroke-linecap="round"
       stroke-linejoin="round"
       stroke-width="2"
       d="m 15.8861,32.33 c 1.0278,-5.61 4.9283,-9.1318 9.1039,-9.1318 3.7754,0 6.9221,2.1467 7.7409,5.6384"
       id="path7" />
    <path
       fill="none"
       stroke="#000000"
       stroke-linecap="round"
       stroke-linejoin="round"
       stroke-width="2"
       d="m 62.7857,49.87 c -2.7375,-1.7312 -5.9013,-2.6698 -9.14,-2.7116 -11.4643,0 -14.0145,6.8353 -24.103,6.8353"
       id="path8" />
    <path
       fill="none"
       stroke="#000000"
       stroke-linecap="round"
       stroke-linejoin="round"
       stroke-width="2"
       d="m 31.476,34.1678 c -0.0836,-1.5703 -1.3913,-2.7949 -2.9637,-2.7755 -1.8624,0 -3.3462,1.6622 -3.3462,4.3419 0,3.6251 3.33,6.5652 7.5,6.5652 9.91,0 11.7853,-3.7786 19.9164,-3.7786 2.6848,-0.0274 5.211,1.2686 6.7549,3.4652"
       id="path9" />
    <path
       fill="none"
       stroke="#000000"
       stroke-linecap="round"
       stroke-linejoin="round"
       stroke-width="2"
       d="m 8.5042,32.7092 c 1.2426,-10.4278 8.438,-16.3214 16.12,-16.3214 6.8194,0.0372 12.3686,5.4989 12.5143,12.3168 0.016,1.6725 -0.2232,3.3376 -0.7092,4.938"
       id="path10" />
  </g>
</svg>
