<svg xmlns="http://www.w3.org/2000/svg" xmlns:svg="http://www.w3.org/2000/svg" id="emoji" width="49.956" height="48.828" version="1.1" viewBox="0 0 49.956 48.828"><g id="color" transform="translate(-10.9472,-10.134017)"><polygon id="polygon1" fill="#9b9b9a" points="37.922 30.756 37.936 36.303 22.978 36.303 22.592 32.459 21.554 30.277 22.063 27.49 21.298 20.899 33.33 11.134 40.153 14.303 36.641 23.012 40.117 26.752"/><polygon id="polygon2" fill="#3f3f3f" points="37.922 30.756 37.936 36.303 47.788 36.303 47.633 32.761 46.005 28.481 46.823 24.602 46.104 16.936 40.153 14.303 36.641 23.012 40.117 26.752"/><path id="path2" fill="#ea5a47" d="m 19.2578,58.568 c 0,-9.1562 6.9838,-16.4253 16.6672,-16.5788 9.112,-0.1445 16.6422,6.2323 16.6671,16.5788 z"/><polygon id="polygon3" fill="#fff" points="26.919 24.245 32.067 24.245 32.584 30.153 27.436 30.153"/></g><g id="line" transform="translate(-10.9472,-10.134017)"><path id="path3" fill="none" stroke="#000" stroke-linecap="round" stroke-linejoin="round" stroke-width="2" d="m 29.7387,57.9618 a 6.1863,6.1863 0 0 1 12.3726,0"/><path id="path4" fill="none" stroke="#000" stroke-linecap="round" stroke-linejoin="round" stroke-width="2" d="m 54.5875,43.7779 c 3.219,3.0927 5.3153,8.6178 5.3153,13.6429"/><path id="path5" fill="none" stroke="#000" stroke-linecap="round" stroke-linejoin="round" stroke-width="2" d="m 11.9472,57.4208 a 21.1963,21.1963 0 0 1 5.64,-13.6346"/><polyline id="polyline5" fill="none" stroke="#000" stroke-linecap="round" stroke-linejoin="round" stroke-width="2" points="46.104 16.936 46.823 24.602 46.005 28.481 47.633 32.761 47.788 36.303"/><polyline id="polyline6" fill="none" stroke="#000" stroke-linecap="round" stroke-linejoin="round" stroke-width="2" points="22.9 35.531 22.592 32.459 21.554 30.277 22.063 27.49 21.298 20.899"/><polyline id="polyline7" fill="none" stroke="#000" stroke-linecap="round" stroke-linejoin="round" stroke-width="2" points="18.743 22.984 33.33 11.134 49.646 18.544"/><line id="line7" x1="25.718" x2="25.079" y1="17.183" y2="12.399" fill="none" stroke="#000" stroke-linecap="round" stroke-miterlimit="10" stroke-width="2"/><polyline id="polyline8" fill="none" stroke="#000" stroke-linecap="round" stroke-linejoin="round" stroke-width="2" points="26.919 24.245 32.067 24.245 32.584 30.153"/><polyline id="polyline9" fill="none" stroke="#000" stroke-linecap="round" stroke-linejoin="round" stroke-width="2" points="38.164 19.237 36.641 23.012 40.117 26.724 37.93 30.758 37.937 36.214"/><line id="line9" x1="12.32" x2="32.675" y1="36.303" y2="36.303" fill="none" stroke="#000" stroke-linecap="round" stroke-linejoin="round" stroke-width="2"/><line id="line10" x1="42.84" x2="59.68" y1="36.303" y2="36.303" fill="none" stroke="#000" stroke-linecap="round" stroke-linejoin="round" stroke-width="2"/><path id="path10" fill="none" stroke="#000" stroke-linecap="round" stroke-linejoin="round" stroke-width="2" d="M 40.9783,42.615 A 15.8563,15.8563 0 0 1 52.5921,57.9081"/><path id="path11" fill="none" stroke="#000" stroke-linecap="round" stroke-linejoin="round" stroke-width="2" d="m 19.2578,57.9081 c 0,-7.3088 5.61,-14.2373 13.7462,-15.6474"/></g></svg>