<svg xmlns="http://www.w3.org/2000/svg" xmlns:svg="http://www.w3.org/2000/svg" id="emoji" width="56.053" height="47.713" version="1.1" viewBox="0 0 56.053 47.713"><g id="color" transform="translate(-8.08,-12.05556)"><circle id="circle1" cx="51.18" cy="40.086" r="4.801" fill="#6a462f"/><circle id="circle2" cx="58.331" cy="47.881" r="4.801" fill="#3f3f3f"/><circle id="circle3" cx="49.451" cy="30.633" r="2.552" fill="#a57939"/><circle id="circle4" cx="26.774" cy="23.151" r="1.278" fill="#3f3f3f"/><circle id="circle5" cx="27.517" cy="30.102" r="1.278" fill="#3f3f3f"/><circle id="circle6" cx="30.796" cy="34.268" r="1.278" fill="#3f3f3f"/><circle id="circle7" cx="37.203" cy="34.469" r="2.552" fill="#6a462f"/><circle id="circle8" cx="34.743" cy="22.327" r="2.552" fill="#a57939"/><circle id="circle9" cx="38.542" cy="42.584" r="2.552" fill="#3f3f3f"/><circle id="circle10" cx="32.83" cy="39.743" r="2.552" fill="#3f3f3f"/><circle id="circle11" cx="43.674" cy="37.124" r="2.552" fill="#3f3f3f"/><polygon id="polygon11" fill="#a57939" points="21.963 30.046 19.099 18.163 17.63 16.196 14.297 19.248 13.016 25.362 8.976 59.185 27.807 59.185 20.907 34.315"/><polygon id="polygon12" fill="#3f3f3f" points="21.963 30.046 19.099 18.163 17.63 16.196 20.701 13.427 26.348 18.902 31.921 38.139 41.863 46.833 52.085 47.654 61.412 55.916 62.402 59.185 27.807 59.185 20.907 34.315"/><circle id="circle12" cx="44.334" cy="47.187" r="2.552" fill="#3f3f3f"/></g><g id="line" transform="translate(-8.08,-12.05556)"><polyline id="polyline12" fill="none" stroke="#000" stroke-linecap="round" stroke-linejoin="round" stroke-width="2" points="49.452 47.493 52.085 47.654 61.412 55.916"/><polyline id="polyline13" fill="none" stroke="#000" stroke-linecap="round" stroke-miterlimit="10" stroke-width="2" points="9.08 58.591 13.016 25.362 14.297 19.248 20.701 13.427 26.348 18.902 28.209 25.424"/><line id="line13" x1="20.907" x2="27.78" y1="34.315" y2="58.769" fill="none" stroke="#000" stroke-linecap="round" stroke-miterlimit="10" stroke-width="2"/><polyline id="polyline14" fill="none" stroke="#000" stroke-linecap="round" stroke-miterlimit="10" stroke-width="2" points="21.963 30.046 19.099 18.163 17.63 16.196"/><path id="path14" fill="none" stroke="#000" stroke-linecap="round" stroke-miterlimit="10" stroke-width="2" d="m 34.6511,34.4687 a 2.552,2.552 0 1 1 2.552,2.552"/><circle id="circle14" cx="34.743" cy="22.327" r="2.552" fill="none" stroke="#000" stroke-linecap="round" stroke-miterlimit="10" stroke-width="2"/><path id="path15" fill="none" stroke="#000" stroke-linecap="round" stroke-miterlimit="10" stroke-width="2" d="m 49.4511,28.0815 a 2.5521,2.5521 0 1 1 -2.552,2.552"/><path id="path16" fill="none" stroke="#000" stroke-linecap="round" stroke-miterlimit="10" stroke-width="2" d="m 58.8643,43.1092 a 4.8017,4.8017 0 0 1 2.5533,8.45"/><path id="path17" fill="none" stroke="#000" stroke-linecap="round" stroke-miterlimit="10" stroke-width="2" d="m 48.7769,35.9282 a 4.8018,4.8018 0 0 1 5.3262,7.9668"/><circle id="circle17" cx="44.334" cy="47.187" r="2.552" fill="none" stroke="#000" stroke-linecap="round" stroke-miterlimit="10" stroke-width="2"/><circle id="circle18" cx="32.83" cy="39.743" r="2.552" fill="none" stroke="#000" stroke-linecap="round" stroke-miterlimit="10" stroke-width="2"/><circle id="circle19" cx="45.433" cy="26.877" r="1.278"/><circle id="circle20" cx="42.125" cy="31.038" r="1.278"/><circle id="circle21" cx="38.08" cy="27.414" r="1.278"/><circle id="circle22" cx="29.857" cy="19.738" r="1.278"/><circle id="circle23" cx="33.105" cy="30.459" r="1.278"/></g></svg>