<?xml version="1.0" encoding="UTF-8" standalone="no"?>
<svg
   id="emoji"
   viewBox="0 0 56.053223 47.713238"
   version="1.1"
   sodipodi:docname="e09d.svg"
   width="56.053223"
   height="47.713238"
   xmlns:inkscape="http://www.inkscape.org/namespaces/inkscape"
   xmlns:sodipodi="http://sodipodi.sourceforge.net/DTD/sodipodi-0.dtd"
   xmlns="http://www.w3.org/2000/svg"
   xmlns:svg="http://www.w3.org/2000/svg">
  <defs
     id="defs23" />
  <sodipodi:namedview
     id="namedview23"
     pagecolor="#ffffff"
     bordercolor="#000000"
     borderopacity="0.25"
     inkscape:showpageshadow="2"
     inkscape:pageopacity="0.0"
     inkscape:pagecheckerboard="0"
     inkscape:deskcolor="#d1d1d1" />
  <g
     id="color"
     transform="translate(-8.08,-12.05556)">
    <circle
       cx="51.180099"
       cy="40.085701"
       r="4.8013"
       fill="#6a462f"
       id="circle1" />
    <circle
       cx="58.330898"
       cy="47.8811"
       r="4.8013"
       fill="#3f3f3f"
       id="circle2" />
    <circle
       cx="49.451099"
       cy="30.633499"
       r="2.552"
       fill="#a57939"
       id="circle3" />
    <circle
       cx="26.7738"
       cy="23.1513"
       r="1.2785"
       fill="#3f3f3f"
       id="circle4" />
    <circle
       cx="27.5166"
       cy="30.1022"
       r="1.2785"
       fill="#3f3f3f"
       id="circle5" />
    <circle
       cx="30.7957"
       cy="34.267799"
       r="1.2785"
       fill="#3f3f3f"
       id="circle6" />
    <circle
       cx="37.203098"
       cy="34.4687"
       r="2.552"
       fill="#6a462f"
       id="circle7" />
    <circle
       cx="34.743099"
       cy="22.327101"
       r="2.552"
       fill="#a57939"
       id="circle8" />
    <circle
       cx="38.541698"
       cy="42.584099"
       r="2.552"
       fill="#3f3f3f"
       id="circle9" />
    <circle
       cx="32.829601"
       cy="39.742599"
       r="2.552"
       fill="#3f3f3f"
       id="circle10" />
    <circle
       cx="43.674"
       cy="37.123699"
       r="2.552"
       fill="#3f3f3f"
       id="circle11" />
    <polygon
       fill="#a57939"
       points="21.963,30.046 19.099,18.163 17.63,16.196 14.297,19.248 13.016,25.362 8.976,59.185 27.807,59.185 20.907,34.315 "
       id="polygon11" />
    <polygon
       fill="#3f3f3f"
       points="21.963,30.046 19.099,18.163 17.63,16.196 20.701,13.427 26.348,18.902 31.921,38.139 41.863,46.833 52.085,47.654 61.412,55.916 62.402,59.185 27.807,59.185 20.907,34.315 "
       id="polygon12" />
    <circle
       cx="44.3339"
       cy="47.186699"
       r="2.552"
       fill="#3f3f3f"
       id="circle12" />
  </g>
  <g
     id="line"
     transform="translate(-8.08,-12.05556)">
    <polyline
       fill="none"
       stroke="#000000"
       stroke-linecap="round"
       stroke-linejoin="round"
       stroke-width="2"
       points="49.452 47.493 52.085 47.654 61.412 55.916"
       id="polyline12" />
    <polyline
       fill="none"
       stroke="#000000"
       stroke-linecap="round"
       stroke-miterlimit="10"
       stroke-width="2"
       points="9.08 58.591 13.016 25.362 14.297 19.248 20.701 13.427 26.348 18.902 28.209 25.424"
       id="polyline13" />
    <line
       x1="20.9069"
       x2="27.779699"
       y1="34.3148"
       y2="58.768799"
       fill="none"
       stroke="#000000"
       stroke-linecap="round"
       stroke-miterlimit="10"
       stroke-width="2"
       id="line13" />
    <polyline
       fill="none"
       stroke="#000000"
       stroke-linecap="round"
       stroke-miterlimit="10"
       stroke-width="2"
       points="21.963 30.046 19.099 18.163 17.63 16.196"
       id="polyline14" />
    <path
       fill="none"
       stroke="#000000"
       stroke-linecap="round"
       stroke-miterlimit="10"
       stroke-width="2"
       d="m 34.6511,34.4687 a 2.552,2.552 0 1 1 2.552,2.552"
       id="path14" />
    <circle
       cx="34.743099"
       cy="22.327101"
       r="2.552"
       fill="none"
       stroke="#000000"
       stroke-linecap="round"
       stroke-miterlimit="10"
       stroke-width="2"
       id="circle14" />
    <path
       fill="none"
       stroke="#000000"
       stroke-linecap="round"
       stroke-miterlimit="10"
       stroke-width="2"
       d="m 49.4511,28.0815 a 2.5521,2.5521 0 1 1 -2.552,2.552"
       id="path15" />
    <path
       fill="none"
       stroke="#000000"
       stroke-linecap="round"
       stroke-miterlimit="10"
       stroke-width="2"
       d="m 58.8643,43.1092 a 4.8017,4.8017 0 0 1 2.5533,8.45"
       id="path16" />
    <path
       fill="none"
       stroke="#000000"
       stroke-linecap="round"
       stroke-miterlimit="10"
       stroke-width="2"
       d="m 48.7769,35.9282 a 4.8018,4.8018 0 0 1 5.3262,7.9668"
       id="path17" />
    <circle
       cx="44.3339"
       cy="47.186699"
       r="2.552"
       fill="none"
       stroke="#000000"
       stroke-linecap="round"
       stroke-miterlimit="10"
       stroke-width="2"
       id="circle17" />
    <circle
       cx="32.829601"
       cy="39.742599"
       r="2.552"
       fill="none"
       stroke="#000000"
       stroke-linecap="round"
       stroke-miterlimit="10"
       stroke-width="2"
       id="circle18" />
    <circle
       cx="45.433399"
       cy="26.877001"
       r="1.2785"
       id="circle19" />
    <circle
       cx="42.125099"
       cy="31.038099"
       r="1.2785"
       id="circle20" />
    <circle
       cx="38.0802"
       cy="27.4137"
       r="1.2785"
       id="circle21" />
    <circle
       cx="29.857"
       cy="19.7384"
       r="1.2785"
       id="circle22" />
    <circle
       cx="33.105"
       cy="30.4585"
       r="1.2785"
       id="circle23" />
  </g>
</svg>
