<svg xmlns="http://www.w3.org/2000/svg" xmlns:svg="http://www.w3.org/2000/svg" id="emoji" width="55.19" height="53.241" version="1.1" viewBox="0 0 55.19 53.241"><g id="color" transform="translate(-8.138,-11.329)"><circle id="circle1" cx="51.492" cy="23.819" r="3.305" fill="#fff"/><path id="path1" fill="#fff" d="m 9,41.8738 8.8939,-21.3649 5.13,-1.4831 h 1.0095 L 29,20.8389 39.807,44.5916 c 1.0632,-1.5314 2.8317,-2.4176 4.6948,-2.3528 2.8726,-0.099 5.298,2.1154 5.46,4.9852 L 51,50 c 1.2527,-0.5984 2.6131,-0.9385 4,-1 3.8396,-0.1399 7.0657,2.8593 7.2056,6.699 0.0046,0.1275 0.0058,0.2551 0.0034,0.3826 0.1449,3.9884 -2.9709,7.3391 -6.9593,7.484 -0.1471,0.0053 -0.2943,0.0062 -0.4415,0.0025 H 9 Z"/><polygon id="polygon1" fill="#9b9b9a" points="10.932 37.564 8.745 42.189 8.745 63.568 18.583 63.568 33.766 63.578 21.068 36.792 17.707 35.095"/></g><g id="line" transform="translate(-8.138,-11.329)"><path id="path2" fill="none" stroke="#000" stroke-linecap="round" stroke-miterlimit="10" stroke-width="2" d="m 49.9619,47.224 c -0.162,-2.8698 -2.5874,-5.0842 -5.46,-4.9852 -2.8558,-0.178 -5.3153,1.9928 -5.4933,4.8486 -0.0028,0.0455 -0.0051,0.091 -0.0067,0.1366"/><path id="path3" fill="none" stroke="#000" stroke-linecap="round" stroke-miterlimit="10" stroke-width="2" d="m 48.8145,54.9534 c 0.0107,-3.3007 2.6951,-5.9677 5.9957,-5.957 0.0633,2e-4 0.1266,0.0014 0.1898,0.0036 3.8396,-0.1399 7.0657,2.8593 7.2056,6.699 0.0046,0.1275 0.0058,0.2551 0.0034,0.3826 0.1449,3.9884 -2.9709,7.3391 -6.9593,7.484 -0.1471,0.0053 -0.2943,0.0062 -0.4415,0.0025 H 40.5594"/><polyline id="polyline3" fill="none" stroke="#000" stroke-linecap="round" stroke-linejoin="round" stroke-width="2" points="11.409 37.343 17.707 35.095 21.703 37.608 25.95 34.86"/><line id="line3" x1="37.562" x2="28.911" y1="55.873" y2="37.673" fill="none" stroke="#000" stroke-linecap="round" stroke-miterlimit="10" stroke-width="2"/><polyline id="polyline4" fill="none" stroke="#000" stroke-linecap="round" stroke-miterlimit="10" stroke-width="2" points="39.807 44.592 29 20.839 24.034 19.026 23.024 19.026 17.894 20.509 9.138 41.874"/><line id="line4" x1="33.436" x2="23.935" y1="62.918" y2="42.706" fill="none" stroke="#000" stroke-linecap="round" stroke-miterlimit="10" stroke-width="2"/><polyline id="polyline5" fill="none" stroke="#000" stroke-linecap="round" stroke-miterlimit="10" stroke-width="2" points="53.727 12.329 53.512 20.5 60.464 16.271"/><polyline id="polyline6" fill="none" stroke="#000" stroke-linecap="round" stroke-miterlimit="10" stroke-width="2" points="42.704 16.271 49.728 20.571 49.513 12.329"/><polyline id="polyline7" fill="none" stroke="#000" stroke-linecap="round" stroke-miterlimit="10" stroke-width="2" points="40.912 27.939 48.079 23.998 40.912 20.056"/><polyline id="polyline8" fill="none" stroke="#000" stroke-linecap="round" stroke-miterlimit="10" stroke-width="2" points="49.513 35.666 49.728 27.424 42.704 31.724"/><polyline id="polyline9" fill="none" stroke="#000" stroke-linecap="round" stroke-miterlimit="10" stroke-width="2" points="60.464 31.724 53.512 27.496 53.727 35.666"/><polyline id="polyline10" fill="none" stroke="#000" stroke-linecap="round" stroke-miterlimit="10" stroke-width="2" points="62.328 20.056 55.16 23.998 62.328 27.939"/></g></svg>