<?xml version="1.0" encoding="UTF-8" standalone="no"?>
<svg
   id="emoji"
   viewBox="0 0 55.189999 53.241344"
   version="1.1"
   sodipodi:docname="e09e.svg"
   width="55.189999"
   height="53.241344"
   xmlns:inkscape="http://www.inkscape.org/namespaces/inkscape"
   xmlns:sodipodi="http://sodipodi.sourceforge.net/DTD/sodipodi-0.dtd"
   xmlns="http://www.w3.org/2000/svg"
   xmlns:svg="http://www.w3.org/2000/svg">
  <defs
     id="defs10" />
  <sodipodi:namedview
     id="namedview10"
     pagecolor="#ffffff"
     bordercolor="#000000"
     borderopacity="0.25"
     inkscape:showpageshadow="2"
     inkscape:pageopacity="0.0"
     inkscape:pagecheckerboard="0"
     inkscape:deskcolor="#d1d1d1" />
  <g
     id="color"
     transform="translate(-8.138,-11.329)">
    <circle
       cx="51.492199"
       cy="23.819401"
       r="3.3048"
       fill="#ffffff"
       id="circle1" />
    <path
       fill="#ffffff"
       d="m 9,41.8738 8.8939,-21.3649 5.13,-1.4831 h 1.0095 L 29,20.8389 39.807,44.5916 c 1.0632,-1.5314 2.8317,-2.4176 4.6948,-2.3528 2.8726,-0.099 5.298,2.1154 5.46,4.9852 L 51,50 c 1.2527,-0.5984 2.6131,-0.9385 4,-1 3.8396,-0.1399 7.0657,2.8593 7.2056,6.699 0.0046,0.1275 0.0058,0.2551 0.0034,0.3826 0.1449,3.9884 -2.9709,7.3391 -6.9593,7.484 -0.1471,0.0053 -0.2943,0.0062 -0.4415,0.0025 H 9 Z"
       id="path1" />
    <polygon
       fill="#9b9b9a"
       points="10.932,37.564 8.745,42.189 8.745,63.568 18.583,63.568 33.766,63.578 21.068,36.792 17.707,35.095 "
       id="polygon1" />
  </g>
  <g
     id="line"
     transform="translate(-8.138,-11.329)">
    <path
       fill="none"
       stroke="#000000"
       stroke-linecap="round"
       stroke-miterlimit="10"
       stroke-width="2"
       d="m 49.9619,47.224 c -0.162,-2.8698 -2.5874,-5.0842 -5.46,-4.9852 -2.8558,-0.178 -5.3153,1.9928 -5.4933,4.8486 -0.0028,0.0455 -0.0051,0.091 -0.0067,0.1366"
       id="path2" />
    <path
       fill="none"
       stroke="#000000"
       stroke-linecap="round"
       stroke-miterlimit="10"
       stroke-width="2"
       d="m 48.8145,54.9534 c 0.0107,-3.3007 2.6951,-5.9677 5.9957,-5.957 0.0633,2e-4 0.1266,0.0014 0.1898,0.0036 3.8396,-0.1399 7.0657,2.8593 7.2056,6.699 0.0046,0.1275 0.0058,0.2551 0.0034,0.3826 0.1449,3.9884 -2.9709,7.3391 -6.9593,7.484 -0.1471,0.0053 -0.2943,0.0062 -0.4415,0.0025 H 40.5594"
       id="path3" />
    <polyline
       fill="none"
       stroke="#000000"
       stroke-linecap="round"
       stroke-linejoin="round"
       stroke-width="2"
       points="11.409 37.343 17.707 35.095 21.703 37.608 25.95 34.86"
       id="polyline3" />
    <line
       x1="37.562302"
       x2="28.910601"
       y1="55.872898"
       y2="37.673302"
       fill="none"
       stroke="#000000"
       stroke-linecap="round"
       stroke-miterlimit="10"
       stroke-width="2"
       id="line3" />
    <polyline
       fill="none"
       stroke="#000000"
       stroke-linecap="round"
       stroke-miterlimit="10"
       stroke-width="2"
       points="39.807 44.592 29 20.839 24.034 19.026 23.024 19.026 17.894 20.509 9.138 41.874"
       id="polyline4" />
    <line
       x1="33.436199"
       x2="23.9349"
       y1="62.917702"
       y2="42.706001"
       fill="none"
       stroke="#000000"
       stroke-linecap="round"
       stroke-miterlimit="10"
       stroke-width="2"
       id="line4" />
    <polyline
       fill="none"
       stroke="#000000"
       stroke-linecap="round"
       stroke-miterlimit="10"
       stroke-width="2"
       points="53.727 12.329 53.512 20.5 60.464 16.271"
       id="polyline5" />
    <polyline
       fill="none"
       stroke="#000000"
       stroke-linecap="round"
       stroke-miterlimit="10"
       stroke-width="2"
       points="42.704 16.271 49.728 20.571 49.513 12.329"
       id="polyline6" />
    <polyline
       fill="none"
       stroke="#000000"
       stroke-linecap="round"
       stroke-miterlimit="10"
       stroke-width="2"
       points="40.912 27.939 48.079 23.998 40.912 20.056"
       id="polyline7" />
    <polyline
       fill="none"
       stroke="#000000"
       stroke-linecap="round"
       stroke-miterlimit="10"
       stroke-width="2"
       points="49.513 35.666 49.728 27.424 42.704 31.724"
       id="polyline8" />
    <polyline
       fill="none"
       stroke="#000000"
       stroke-linecap="round"
       stroke-miterlimit="10"
       stroke-width="2"
       points="60.464 31.724 53.512 27.496 53.727 35.666"
       id="polyline9" />
    <polyline
       fill="none"
       stroke="#000000"
       stroke-linecap="round"
       stroke-miterlimit="10"
       stroke-width="2"
       points="62.328 20.056 55.16 23.998 62.328 27.939"
       id="polyline10" />
  </g>
</svg>
