<?xml version="1.0" encoding="UTF-8" standalone="no"?>
<svg
   id="emoji"
   viewBox="0 0 28.611 58.22575"
   version="1.1"
   sodipodi:docname="e0a0.svg"
   width="28.611"
   height="58.22575"
   xmlns:inkscape="http://www.inkscape.org/namespaces/inkscape"
   xmlns:sodipodi="http://sodipodi.sourceforge.net/DTD/sodipodi-0.dtd"
   xmlns="http://www.w3.org/2000/svg"
   xmlns:svg="http://www.w3.org/2000/svg">
  <defs
     id="defs3" />
  <sodipodi:namedview
     id="namedview3"
     pagecolor="#ffffff"
     bordercolor="#000000"
     borderopacity="0.25"
     inkscape:showpageshadow="2"
     inkscape:pageopacity="0.0"
     inkscape:pagecheckerboard="0"
     inkscape:deskcolor="#d1d1d1" />
  <g
     id="color"
     transform="translate(-21.542,-6.2215708)">
    <polygon
       fill="#ea5a47"
       points="35.848,26.692 22.542,34.341 22.542,32.349 35.848,8.288 49.153,32.349 49.153,34.341 "
       id="polygon1" />
    <polygon
       fill="#d22f27"
       points="49.153,32.349 49.153,34.341 35.848,26.692 22.542,34.341 22.542,32.349 35.708,21.147 "
       id="polygon2" />
    <path
       fill="#9b9b9a"
       d="m 47.8224,40.5722 v 22.0133 a 0.8892,0.8892 0 0 1 -0.9319,0.8608 h -9.537 A 1.5437,1.5437 0 0 1 36.0629,62.5855 L 30.5415,46.8824 v 15.7031 a 0.8893,0.8893 0 0 1 -0.9323,0.8608 h -4.8758 a 0.8286,0.8286 0 0 1 -0.86,-0.8608 V 40.5722 a 0.8286,0.8286 0 0 1 0.86,-0.8608 H 34.27 a 1.6608,1.6608 0 0 1 1.3624,0.8608 l 5.5214,15.9183 V 40.5722 a 0.8287,0.8287 0 0 1 0.8605,-0.8608 h 4.8761 a 0.8892,0.8892 0 0 1 0.932,0.8608 z"
       id="path2" />
  </g>
  <g
     id="line"
     transform="translate(-21.542,-6.2215708)">
    <path
       fill="none"
       stroke="#000000"
       stroke-linecap="round"
       stroke-width="2"
       d="m 47.8224,40.5722 v 22.0133 a 0.8892,0.8892 0 0 1 -0.9319,0.8608 h -9.537 A 1.5437,1.5437 0 0 1 36.0629,62.5855 L 30.4236,46.8824 h -0.542 l 0.66,15.7031 a 0.8893,0.8893 0 0 1 -0.9323,0.8608 h -4.8759 a 0.8286,0.8286 0 0 1 -0.86,-0.8608 V 40.5722 a 0.8286,0.8286 0 0 1 0.86,-0.8608 H 34.27 a 1.6608,1.6608 0 0 1 1.3624,0.8608 l 5.39,15.9183 h 0.4612 l -0.33,-15.9183 a 0.8287,0.8287 0 0 1 0.8605,-0.8608 h 4.8761 a 0.8892,0.8892 0 0 1 0.9322,0.8608 z"
       id="path3" />
    <polygon
       fill="none"
       stroke="#000000"
       stroke-linecap="round"
       stroke-width="2"
       points="35.848,26.692 22.542,34.341 22.542,32.349 35.848,8.288 49.153,32.349 49.153,34.341 "
       id="polygon3" />
  </g>
</svg>
