<svg xmlns="http://www.w3.org/2000/svg" xmlns:svg="http://www.w3.org/2000/svg" id="emoji" width="50.292" height="52.366" version="1.1" viewBox="0 0 50.292 52.366"><g id="color" transform="translate(-10.793215,-13.1936)"><circle id="circle1" cx="35.939" cy="29.281" r="3.15" fill="#3f3f3f"/><polyline id="polyline1" fill="#d0cfce" points="46.439 64.56 36.838 32.3 35.041 32.3 25.439 64.56"/></g><g id="line" transform="translate(-10.793215,-13.1936)"><path id="path1" fill="none" stroke="#000" stroke-linecap="round" stroke-miterlimit="10" stroke-width="2" d="M 18.8627,46.3572 A 24.1519,24.1519 0 0 1 17.0806,14.1936"/><path id="path2" fill="none" stroke="#000" stroke-linecap="round" stroke-miterlimit="10" stroke-width="2" d="M 54.798,14.1936 A 24.1519,24.1519 0 0 1 53.0159,46.3572"/><path id="path3" fill="none" stroke="#000" stroke-linecap="round" stroke-miterlimit="10" stroke-width="2" d="M 48.2384,19.4412 A 15.7512,15.7512 0 0 1 47.0762,40.4175"/><path id="path4" fill="none" stroke="#000" stroke-linecap="round" stroke-miterlimit="10" stroke-width="2" d="M 24.8024,40.4175 A 15.7511,15.7511 0 0 1 23.64,19.4413"/><circle id="circle4" cx="35.939" cy="29.281" r="3.15" fill="none" stroke="#000" stroke-miterlimit="10" stroke-width="2"/><line id="line4" x1="28.589" x2="43.289" y1="55.477" y2="55.477" stroke="#000" stroke-linecap="round" stroke-linejoin="round" stroke-width="2"/><line id="line5" x1="31.739" x2="40.139" y1="43.613" y2="43.613" stroke="#000" stroke-linecap="round" stroke-linejoin="round" stroke-width="2"/><line id="line6" x1="35.041" x2="25.439" y1="32.3" y2="64.56" fill="none" stroke="#000" stroke-linecap="round" stroke-linejoin="round" stroke-width="2"/><line id="line7" x1="46.439" x2="36.838" y1="64.56" y2="32.3" fill="none" stroke="#000" stroke-linecap="round" stroke-linejoin="round" stroke-width="2"/></g></svg>