<?xml version="1.0" encoding="UTF-8" standalone="no"?>
<svg
   id="emoji"
   viewBox="0 0 50.001656 50.001732"
   version="1.1"
   sodipodi:docname="e0a4.svg"
   width="50.001656"
   height="50.001732"
   xmlns:inkscape="http://www.inkscape.org/namespaces/inkscape"
   xmlns:sodipodi="http://sodipodi.sourceforge.net/DTD/sodipodi-0.dtd"
   xmlns="http://www.w3.org/2000/svg"
   xmlns:svg="http://www.w3.org/2000/svg">
  <defs
     id="defs6" />
  <sodipodi:namedview
     id="namedview6"
     pagecolor="#ffffff"
     bordercolor="#000000"
     borderopacity="0.25"
     inkscape:showpageshadow="2"
     inkscape:pageopacity="0.0"
     inkscape:pagecheckerboard="0"
     inkscape:deskcolor="#d1d1d1" />
  <g
     id="color"
     transform="translate(-10.9991,-10.9991)">
    <path
       fill="#ea5a47"
       d="m 58.9991,59.9991 h -46 c -0.5518,-0.0012 -0.9988,-0.4482 -1,-1 v -46 c 0.0012,-0.5518 0.4482,-0.9988 1,-1 h 46 c 0.5518,0.0012 0.9988,0.4482 1,1 v 46 c 0.0314,0.5209 -0.3653,0.9686 -0.8862,1 -0.0378,0.0023 -0.0759,0.0023 -0.1138,0 z"
       id="path1" />
  </g>
  <g
     id="line"
     transform="translate(-10.9991,-10.9991)">
    <path
       fill="none"
       stroke="#000000"
       stroke-miterlimit="10"
       stroke-width="2"
       d="m 58.9991,59.9991 h -46 c -0.5518,-0.0012 -0.9988,-0.4482 -1,-1 v -46 c 0.0012,-0.5518 0.4482,-0.9988 1,-1 h 46 c 0.5518,0.0012 0.9988,0.4482 1,1 v 46 c 0.0314,0.5209 -0.3653,0.9686 -0.8862,1 -0.0378,0.0023 -0.0759,0.0023 -0.1138,0 z"
       id="path2" />
    <g
       id="g4">
      <path
         d="m 33.6922,29.9921 c -0.5523,0 -1,0.4477 -1,1 v 6.6943 l -2.11,-2.6943 v 3.2429 l 2.323,2.9661 c 0.3407,0.4347 0.9692,0.5109 1.4039,0.1703 0.2417,-0.1894 0.383,-0.4794 0.3832,-0.7865 v -9.5928 c 3e-4,-0.552 -0.4468,-0.9997 -0.9988,-1 -4e-4,0 -8e-4,0 -0.0013,0 z"
         id="path3" />
      <path
         d="m 29.2895,33.3418 -2.3229,-2.9659 c -0.3407,-0.4347 -0.9692,-0.5109 -1.4039,-0.1703 -0.2417,0.1894 -0.383,0.4794 -0.3832,0.7865 v 9.5928 c 0,0.5523 0.4477,1 1,1 0.5523,0 1,-0.4477 1,-1 v -6.6944 l 2.11,2.6941 z"
         id="path4" />
    </g>
    <g
       id="g6">
      <path
         d="m 41.679,39.4904 c -1.057,-0.2787 -1.7901,-1.2392 -1.78,-2.3323 v -2.74 c -0.0101,-1.0929 0.723,-2.0532 1.78,-2.3314 v -2.0314 c -2.1802,0.2922 -3.8012,2.163 -3.78,4.3626 v 2.74 c -0.0214,2.1999 1.5995,4.071 3.78,4.3636 z"
         id="path5" />
      <path
         d="m 42.9715,30.0554 v 2.0313 c 1.0566,0.2784 1.7895,1.2385 1.7793,2.3312 v 2.74 c -0.0303,1.0763 -0.7477,2.0117 -1.7793,2.32 v 2.04 c 2.1516,-0.3418 3.746,-2.181 3.7793,-4.3593 v -2.74 c 0.0216,-2.1996 -1.599,-4.0707 -3.7793,-4.3632 z"
         id="path6" />
    </g>
  </g>
</svg>
