<svg xmlns="http://www.w3.org/2000/svg" xmlns:svg="http://www.w3.org/2000/svg" id="emoji" width="62.629" height="27.805" version="1.1" viewBox="0 0 62.629 27.805"><g id="color" transform="translate(-4.7829942,-24.097553)"><path id="path1" fill="#fcea2b" d="m 11.6022,27.0359 a 2.7339,2.7339 0 0 1 2.5041,-1.9354 h 50.72 a 1.4722,1.4722 0 0 1 1.4959,1.9354 L 60.6105,48.9641 A 2.7341,2.7341 0 0 1 58.1063,50.9 H 7.3863 A 1.4721,1.4721 0 0 1 5.8905,48.9646 Z"/><path id="path2" fill="#f1b31c" d="M 60.4443,49.6138 63.939,36.1853 a 193.6507,193.6507 0 0 1 -24.9527,8.9547 218.0268,218.0268 0 0 1 -28.8,5.76 h 48.5578 a 1.7112,1.7112 0 0 0 1.7002,-1.2862 z"/><polygon id="polygon2" points="36.886 50.9 27.286 50.9 34.006 25.1 43.606 25.1"/><polygon id="polygon3" points="52.547 50.9 42.947 50.9 49.667 25.1 59.267 25.1"/><polygon id="polygon4" points="21.226 50.9 11.626 50.9 18.346 25.1 27.946 25.1"/><path id="path4" fill="none" d="m 11.6022,27.0359 a 2.7339,2.7339 0 0 1 2.5041,-1.9354 h 50.72 a 1.4722,1.4722 0 0 1 1.4959,1.9354 L 60.6105,48.9641 A 2.7341,2.7341 0 0 1 58.1063,50.9 H 7.3863 A 1.4721,1.4721 0 0 1 5.8905,48.9646 Z"/></g><g id="line" transform="translate(-4.7829942,-24.097553)"><path id="path5" fill="none" stroke="#000" stroke-linecap="round" stroke-linejoin="round" stroke-width="2" d="m 10.9891,27.0475 a 2.6542,2.6542 0 0 1 2.4573,-1.947 h 51.38 a 1.4939,1.4939 0 0 1 1.5192,1.9413 L 60.9171,48.9582 A 2.6938,2.6938 0 0 1 58.4363,50.9 H 7.3863 A 1.5161,1.5161 0 0 1 5.8437,48.953 Z"/><line id="line5" x1="38.671" x2="31.951" y1="25.101" y2="50.9" fill="none" stroke="#000" stroke-linecap="round" stroke-linejoin="round" stroke-width="2"/><line id="line6" x1="54.001" x2="47.281" y1="25.101" y2="50.9" fill="none" stroke="#000" stroke-linecap="round" stroke-linejoin="round" stroke-width="2"/><line id="line7" x1="23.01" x2="16.29" y1="25.101" y2="50.9" fill="none" stroke="#000" stroke-linecap="round" stroke-linejoin="round" stroke-width="2"/></g></svg>