<?xml version="1.0" encoding="UTF-8" standalone="no"?>
<svg
   id="emoji"
   viewBox="0 0 62.634567 27.805073"
   version="1.1"
   sodipodi:docname="e0a6.svg"
   width="62.634567"
   height="27.805073"
   xmlns:inkscape="http://www.inkscape.org/namespaces/inkscape"
   xmlns:sodipodi="http://sodipodi.sourceforge.net/DTD/sodipodi-0.dtd"
   xmlns="http://www.w3.org/2000/svg"
   xmlns:svg="http://www.w3.org/2000/svg">
  <defs
     id="defs6" />
  <sodipodi:namedview
     id="namedview6"
     pagecolor="#ffffff"
     bordercolor="#000000"
     borderopacity="0.25"
     inkscape:showpageshadow="2"
     inkscape:pageopacity="0.0"
     inkscape:pagecheckerboard="0"
     inkscape:deskcolor="#d1d1d1" />
  <g
     id="color"
     transform="translate(-4.4949313,-23.097552)">
    <path
       fill="#fcea2b"
       d="m 10.7037,26.0475 c 0.3073,-1.1151 1.3015,-1.9028 2.4573,-1.947 h 51.38 c 0.8235,-0.0522 1.5333,0.5731 1.5855,1.3965 0.0117,0.1841 -0.0109,0.3688 -0.0665,0.5448 L 60.6317,47.9582 C 60.3089,49.0719 59.3096,49.8541 58.1509,49.9 H 7.1009 C 6.2651,49.9496 5.5473,49.3122 5.4976,48.4764 5.4871,48.2997 5.5076,48.1226 5.5583,47.953 Z"
       id="path1" />
    <path
       fill="#f1b31c"
       d="M 60.2493,48.6138 63.744,35.1853 c -8.1032,3.5514 -16.4403,6.5433 -24.9527,8.9547 -9.4596,2.5652 -19.0814,4.4895 -28.8,5.76 h 48.5578 c 0.7972,0.0198 1.5024,-0.5137 1.7002,-1.2862 z"
       id="path2" />
    <path
       d="M 18.929,36.928 11.8286,25.8634 c -0.489,-0.7621 0.5653,-0.6221 1.0607,-1.0511 l 6.2096,0.0258 8.277,12.1279 -10.827,12.0638 -6.0932,0.0835 c -0.4706,0 -1.0491,0.0445 -1.593,-0.1237 L 18.929,36.9279 Z"
       id="path3" />
    <polygon
       points="35.904,24.1 44.186,37.042 33.36,49.9 24.913,49.9 35.74,37.005 27.507,24.1 "
       id="polygon3" />
    <polygon
       points="51.851,24.1 60.128,37.116 49.302,49.9 40.855,49.9 51.682,37.079 43.449,24.1 "
       id="polygon4" />
  </g>
  <g
     id="line"
     transform="translate(-4.4949313,-23.097552)">
    <path
       fill="none"
       stroke="#000000"
       stroke-linecap="round"
       stroke-linejoin="round"
       stroke-width="2"
       d="m 10.7037,26.0475 c 0.3073,-1.1151 1.3015,-1.9028 2.4573,-1.947 h 51.38 c 0.8235,-0.0522 1.5333,0.5731 1.5855,1.3965 0.0117,0.1841 -0.0109,0.3688 -0.0665,0.5448 L 60.6317,47.9582 C 60.3089,49.0719 59.3096,49.8541 58.1509,49.9 H 7.1009 C 6.2651,49.9496 5.5473,49.3122 5.4976,48.4764 5.4871,48.2997 5.5076,48.1226 5.5583,47.953 Z"
       id="path4" />
    <polyline
       fill="none"
       stroke="#000000"
       stroke-linecap="round"
       stroke-linejoin="round"
       stroke-width="2"
       points="14.81 24.1 23.087 36.966 12.26 49.9"
       id="polyline4" />
    <polyline
       fill="none"
       stroke="#000000"
       stroke-linecap="round"
       stroke-linejoin="round"
       stroke-width="2"
       points="31.614 24.1 39.897 37.042 29.07 49.9"
       id="polyline5" />
    <polyline
       fill="none"
       stroke="#000000"
       stroke-linecap="round"
       stroke-linejoin="round"
       stroke-width="2"
       points="47.562 24.1 55.839 37.116 45.012 49.9"
       id="polyline6" />
  </g>
</svg>
