<svg xmlns="http://www.w3.org/2000/svg" xmlns:svg="http://www.w3.org/2000/svg" id="emoji" width="33.807" height="52.076" version="1.1" viewBox="0 0 33.807 52.076"><g id="color" transform="translate(-19.7665,-11.2176)"><circle id="circle1" cx="36.446" cy="28.864" r="7.225" fill="#fff"/><path id="path1" fill="#d22f27" d="m 52.5733,29.11 c 0,-9.3149 -7.1338,-16.8923 -15.9034,-16.8923 -8.7696,0 -15.9034,7.5773 -15.9034,16.8963 0.0027,0.4653 0.2238,11.6088 12.9612,31.2452 0.5334,1.0956 1.6033,1.8302 2.8174,1.9343 1.8394,0 3.0941,-2.0266 3.2162,-2.2327 C 52.58,40.4135 52.58,29.5534 52.5733,29.11 Z M 36.67,35.9135 c -3.9116,0 -7.0826,-3.171 -7.0826,-7.0826 0,-3.9116 3.171,-7.0826 7.0826,-7.0826 3.9116,0 7.0826,3.171 7.0826,7.0826 v 0 c -0.0045,3.9098 -3.1728,7.0781 -7.0826,7.0826 z"/><path id="path2" fill="#ea5a47" d="m 52.5733,29.11 c 0,-9.3149 -7.1338,-16.8923 -15.9034,-16.8923 -1.3056,0.0058 -2.6048,0.1824 -3.8645,0.5254 8.3948,0.4493 15.0989,7.8225 15.0989,16.849 0.0068,0.4436 0.0068,11.3036 -12.812,30.9509 -0.1726,0.2818 -0.3688,0.5485 -0.5865,0.7972 0.5205,0.5837 1.2576,0.9283 2.0393,0.9534 1.8394,0 3.0941,-2.0266 3.2162,-2.2327 C 52.58,40.4135 52.58,29.5534 52.5733,29.11 Z"/></g><g id="line" transform="translate(-19.7665,-11.2176)"><path id="path3" fill="none" stroke="#000" stroke-linecap="round" stroke-linejoin="round" stroke-width="2" d="M 36.5451,62.2935 C 35.331,62.1893 34.2611,61.4548 33.7277,60.3592 20.99,40.7228 20.7692,29.5793 20.7665,29.114 c 0,-9.3191 7.1337,-16.8964 15.9034,-16.8964 8.7697,0 15.9034,7.5773 15.9034,16.8924 0.0068,0.4436 0.0068,11.3036 -12.812,30.9509 -0.1221,0.206 -1.3768,2.2326 -3.2162,2.2326 z"/><path id="path4" fill="none" stroke="#000" stroke-linecap="round" stroke-linejoin="round" stroke-width="2" d="m 36.67,35.9135 c -3.9116,0 -7.0826,-3.1711 -7.0825,-7.0827 0,-3.9116 3.1711,-7.0826 7.0827,-7.0825 3.9116,0 7.0825,3.171 7.0825,7.0826 -0.0044,3.9098 -3.1729,7.0782 -7.0827,7.0826 z"/></g></svg>