<?xml version="1.0" encoding="UTF-8" standalone="no"?>
<svg
   id="emoji"
   viewBox="0 0 35.144699 56.83604"
   version="1.1"
   sodipodi:docname="e0aa.svg"
   width="35.144699"
   height="56.83604"
   xmlns:inkscape="http://www.inkscape.org/namespaces/inkscape"
   xmlns:sodipodi="http://sodipodi.sourceforge.net/DTD/sodipodi-0.dtd"
   xmlns="http://www.w3.org/2000/svg"
   xmlns:svg="http://www.w3.org/2000/svg">
  <defs
     id="defs8" />
  <sodipodi:namedview
     id="namedview8"
     pagecolor="#ffffff"
     bordercolor="#000000"
     borderopacity="0.25"
     inkscape:showpageshadow="2"
     inkscape:pageopacity="0.0"
     inkscape:pagecheckerboard="0"
     inkscape:deskcolor="#d1d1d1" />
  <g
     id="color"
     transform="translate(-18.5124,-8.630961)">
    <path
       fill="#f4aa41"
       d="M 45.1905,27.205 H 20.423 v 9.561 a 15.6418,15.6418 0 0 0 15.5707,15.6618 16.0014,16.0014 0 0 0 9.0146,-2.8228 153.2983,153.2983 0 0 0 0.1822,-22.4 z"
       id="path1" />
    <path
       fill="#e27022"
       d="m 45.1905,27.205 a 165.7763,165.7763 0 0 1 -0.0911,22.3089 15.6337,15.6337 0 0 0 6.6472,-12.839 v -9.47 z"
       id="path2" />
    <polygon
       fill="#e27022"
       points="40.638,57.982 42.095,52.337 30.075,52.337 31.623,57.982 "
       id="polygon2" />
    <rect
       x="32.442501"
       y="57.982201"
       width="7.3755999"
       height="6.4847002"
       fill="#e27022"
       id="rect2" />
    <path
       fill="#3f3f3f"
       d="m 28.2973,9.631 a 3.0064,3.0064 0 0 1 3.0049,2.7979 v 13.7745 h -3.0049 z"
       id="path3" />
    <path
       fill="#3f3f3f"
       d="m 44.51,9.631 a 3.0064,3.0064 0 0 1 3.0049,2.7979 V 26.2034 H 44.51 Z"
       id="path4" />
  </g>
  <g
     id="line"
     transform="translate(-18.5124,-8.630961)">
    <path
       fill="none"
       stroke="#000000"
       stroke-linecap="round"
       stroke-miterlimit="10"
       stroke-width="2"
       d="M 31.3022,26.2034 V 12.6359 A 3.0316,3.0316 0 0 0 28.2973,9.631 v 0 a 3.0315,3.0315 0 0 0 -3.0048,3.0049 v 0 13.5675"
       id="path5" />
    <path
       fill="none"
       stroke="#000000"
       stroke-linecap="round"
       stroke-miterlimit="10"
       stroke-width="2"
       d="M 47.5144,26.2034 V 12.6359 A 3.0315,3.0315 0 0 0 44.51,9.631 v 0 a 3.0316,3.0316 0 0 0 -3.0049,3.0049 v 0 13.5675"
       id="path6" />
    <path
       fill="none"
       stroke="#000000"
       stroke-linecap="round"
       stroke-linejoin="round"
       stroke-width="2"
       d="M 19.5124,26.2944 V 36.766 a 16.5724,16.5724 0 0 0 33.1447,0 V 26.2944 Z"
       id="path7" />
    <polyline
       fill="none"
       stroke="#000000"
       stroke-linecap="round"
       stroke-linejoin="round"
       stroke-width="2"
       points="30.075 52.337 31.623 57.982 40.638 57.982 42.095 52.337"
       id="polyline7" />
    <polyline
       fill="none"
       stroke="#000000"
       stroke-linecap="round"
       stroke-linejoin="round"
       stroke-width="2"
       points="32.442 64.467 32.442 57.982 39.818 57.982 39.818 64.467"
       id="polyline8" />
  </g>
</svg>
