<svg xmlns="http://www.w3.org/2000/svg" xmlns:svg="http://www.w3.org/2000/svg" id="emoji" width="35.145" height="56.836" version="1.1" viewBox="0 0 35.145 56.836"><g id="color" transform="translate(-18.5124,-8.630961)"><path id="path1" fill="#f4aa41" d="M 45.1905,27.205 H 20.423 v 9.561 a 15.6418,15.6418 0 0 0 15.5707,15.6618 16.0014,16.0014 0 0 0 9.0146,-2.8228 153.2983,153.2983 0 0 0 0.1822,-22.4 z"/><path id="path2" fill="#e27022" d="m 45.1905,27.205 a 165.7763,165.7763 0 0 1 -0.0911,22.3089 15.6337,15.6337 0 0 0 6.6472,-12.839 v -9.47 z"/><polygon id="polygon2" fill="#e27022" points="40.638 57.982 42.095 52.337 30.075 52.337 31.623 57.982"/><rect id="rect2" width="7.376" height="6.485" x="32.443" y="57.982" fill="#e27022"/><path id="path3" fill="#3f3f3f" d="m 28.2973,9.631 a 3.0064,3.0064 0 0 1 3.0049,2.7979 v 13.7745 h -3.0049 z"/><path id="path4" fill="#3f3f3f" d="m 44.51,9.631 a 3.0064,3.0064 0 0 1 3.0049,2.7979 V 26.2034 H 44.51 Z"/></g><g id="line" transform="translate(-18.5124,-8.630961)"><path id="path5" fill="none" stroke="#000" stroke-linecap="round" stroke-miterlimit="10" stroke-width="2" d="M 31.3022,26.2034 V 12.6359 A 3.0316,3.0316 0 0 0 28.2973,9.631 v 0 a 3.0315,3.0315 0 0 0 -3.0048,3.0049 v 0 13.5675"/><path id="path6" fill="none" stroke="#000" stroke-linecap="round" stroke-miterlimit="10" stroke-width="2" d="M 47.5144,26.2034 V 12.6359 A 3.0315,3.0315 0 0 0 44.51,9.631 v 0 a 3.0316,3.0316 0 0 0 -3.0049,3.0049 v 0 13.5675"/><path id="path7" fill="none" stroke="#000" stroke-linecap="round" stroke-linejoin="round" stroke-width="2" d="M 19.5124,26.2944 V 36.766 a 16.5724,16.5724 0 0 0 33.1447,0 V 26.2944 Z"/><polyline id="polyline7" fill="none" stroke="#000" stroke-linecap="round" stroke-linejoin="round" stroke-width="2" points="30.075 52.337 31.623 57.982 40.638 57.982 42.095 52.337"/><polyline id="polyline8" fill="none" stroke="#000" stroke-linecap="round" stroke-linejoin="round" stroke-width="2" points="32.442 64.467 32.442 57.982 39.818 57.982 39.818 64.467"/></g></svg>