<svg xmlns="http://www.w3.org/2000/svg" xmlns:svg="http://www.w3.org/2000/svg" id="emoji" width="56.085" height="56.093" version="1.1" viewBox="0 0 56.085 56.093"><g id="color" transform="translate(-7.8540668,-7.9466517)"><circle id="circle1" cx="35.905" cy="36.014" r="27.035" fill="#fcea2b"/><circle id="circle2" cx="36.006" cy="36.037" r="21.871" fill="#fff"/></g><g id="line" transform="translate(-7.8540668,-7.9466517)"><path id="path2" fill="none" stroke="#000" stroke-linecap="round" stroke-linejoin="round" stroke-width="2" d="M 55.1092,25.38 A 21.8626,21.8626 0 1 1 47.0154,17.1349"/><path id="path3" fill="none" stroke="#000" stroke-linecap="round" stroke-linejoin="round" stroke-width="2" d="M 62.9392,35.9973 A 27.0463,27.0463 0 1 1 57.6742,19.9591"/><polyline id="polyline3" fill="none" stroke="#000" stroke-linecap="round" stroke-linejoin="round" stroke-width="2" points="47.394 21.578 58.432 20.418 57.272 9.38"/><polyline id="polyline4" fill="none" stroke="#000" stroke-linecap="round" stroke-linejoin="round" stroke-width="2" points="49.975 36.354 35.987 36.354 35.891 36.354 35.891 18.52"/><line id="line4" x1="35.891" x2="35.891" y1="53.911" y2="50.066" fill="none" stroke="#000" stroke-linecap="round" stroke-linejoin="round" stroke-width="2"/><polyline id="polyline5" fill="none" stroke="#000" stroke-linecap="round" stroke-linejoin="round" stroke-width="2" points="21.143 36.354 18.086 36.354 18.086 36.354"/><circle id="circle5" cx="35.891" cy="36.354" r="3.737"/><circle id="circle6" cx="48.694" cy="47.937" r="1.48"/><circle id="circle7" cx="23.087" cy="24.717" r="1.48"/><circle id="circle8" cx="23.087" cy="47.937" r="1.48"/></g></svg>