<svg xmlns="http://www.w3.org/2000/svg" xmlns:svg="http://www.w3.org/2000/svg" id="emoji" width="40.083" height="50.107" version="1.1" viewBox="0 0 40.083 50.107"><g id="hair" transform="translate(-15.9584,-11.042)"><g id="hair-2"><path id="path1" fill="#f1b31c" d="m 26,38.042 c -3,0 -4,-7 -4,-14 0,-6 5,-12 14,-12 9,0 14,6 14,12 0,7 -1,14 -4,14"/></g></g><g id="color" transform="translate(-15.9584,-11.042)"><g id="skin"><path id="path2" fill="#fcea2b" d="m 24.8471,28.6632 c -0.1,8 4.1,14 11,14 7.1,0 11.1,-6 11.1,-14 0,-5 -3,-10 -3,-10 -8,0 -10,3 -16,1 a 17.3021,17.3021 0 0 0 -3.1,9 z"/></g><g id="color-2"><path id="path3" fill="#92d3f5" d="m 16.9584,61.1493 v -4.0088 c 0,-5.0109 5.011,-9.02 10.0219,-9.02 q 9.02,7.5165 18.0394,0 c 5.0109,0 10.0219,4.0088 10.0219,9.02 v 4.0088"/></g><path id="path4" fill="#fcea2b" d="m 24.51,29.1228 v 1.042 c 0,8.3286 4.8508,14.8539 11.044,14.8539 6.1932,0 11.0442,-6.5253 11.0442,-14.8539 0,-5.0665 -1.8716,-8.1824 -5.5611,-12.1229 a 67.2665,67.2665 0 0 1 -9.4594,6.2845 c -2.7855,1.6486 -6.583,3.8862 -7.0677,4.7964 z"/><polygon id="polygon4" fill="#fff" points="45.541 35.326 45.924 37.052 40.511 45.427 30.681 45.427 25.184 35.763 26.447 35.399 35.43 33.832"/></g><g id="line" transform="translate(-15.9584,-11.042)"><path id="path5" fill="none" stroke="#000" stroke-linecap="round" stroke-linejoin="round" stroke-width="2" d="M 22.0886,28.077 A 37.87,37.87 0 0 1 21.9694,24.0683 C 21.9694,18.0552 26.98,12.042 36,12.042 c 9.02,0 14.0306,6.0132 14.0306,12.0263 a 37.3264,37.3264 0 0 1 -0.1191,4.0087"/><path id="path6" d="m 41.9129,30.0814 a 2.0044,2.0044 0 1 1 -2.0044,-2.0044 2.01,2.01 0 0 1 2.0044,2.0044"/><path id="path7" d="M 33.8954,30.0814 A 2.0044,2.0044 0 1 1 31.891,28.077 2.01,2.01 0 0 1 33.8954,30.0814"/><path id="path8" d="m 41.9129,30.0814 a 2.0044,2.0044 0 1 1 -2.0044,-2.0044 2.01,2.01 0 0 1 2.0044,2.0044"/><path id="path9" d="M 33.8954,30.0814 A 2.0044,2.0044 0 1 1 31.891,28.077 2.01,2.01 0 0 1 33.8954,30.0814"/><path id="path10" fill="none" stroke="#000" stroke-linecap="round" stroke-linejoin="round" stroke-width="2" d="m 16.9584,60.1471 v -3.0066 c 0,-5.0109 5.011,-9.02 10.0219,-9.02 q 9.02,7.5165 18.0394,0 c 5.0109,0 10.0219,4.0088 10.0219,9.02 v 3.0066"/><line id="line10" x1="46.169" x2="49.477" y1="35.356" y2="32.723" fill="none" stroke="#000" stroke-linecap="round" stroke-linejoin="round" stroke-width="2"/><line id="line11" x1="25.63" x2="22.33" y1="35.356" y2="32.308" fill="none" stroke="#000" stroke-linecap="round" stroke-linejoin="round" stroke-width="2"/><path id="path11" fill="none" stroke="#000" stroke-linecap="round" stroke-linejoin="round" stroke-width="2" d="m 47.05,29.6632 c 0,-5 -3,-11 -3,-11 -8,0 -10,3 -16,1 0,0 -3,5 -3.1,10"/><path id="path12" fill="none" stroke="#000" stroke-linecap="round" stroke-linejoin="round" stroke-width="2" d="m 32.5955,45.0455 c -1.333,0.0108 -3.6243,-1.8519 -4.4967,-3.071 a 14.785,14.785 0 0 1 -2.4335,-5.8173 l -0.1393,-0.45 8.9093,-2.2972 a 5.6014,5.6014 0 0 1 2.8793,0.0182 l 8.4081,2.2792 h 0.5438 a 14.4865,14.4865 0 0 1 -1.8409,5.7962 c -0.8769,1.4159 -3.28,3.4562 -4.7421,3.4681 z"/></g></svg>