<svg xmlns="http://www.w3.org/2000/svg" xmlns:svg="http://www.w3.org/2000/svg" id="emoji" width="50.572" height="51.425" version="1.1" viewBox="0 0 50.572 51.425"><g id="hair" transform="translate(-16.036317,-10.245846)"><g id="hair-2"><path id="path1" fill="#f1b31c" d="m 26,38.042 c -3,0 -4,-7 -4,-14 0,-6 5,-12 14,-12 9,0 14,6 14,12 0,7 -1,14 -4,14"/></g></g><g id="color" transform="translate(-16.036317,-10.245846)"><g id="skin"><path id="path2" fill="#fcea2b" d="m 24.8471,28.6632 c -0.1,8 4.1,14 11,14 7.1,0 11.1,-6 11.1,-14 0,-5 -3,-10 -3,-10 -8,0 -10,3 -16,1 a 17.3021,17.3021 0 0 0 -3.1,9 z"/></g><path id="path3" fill="#92d3f5" d="m 48.083,46.1812 c -4.9472,7.4285 -9.7691,5.8349 -14.06,3.5477 l -6.713,-10.8143 -8.41,4.992 -0.5249,2.19 -0.4338,-0.0808 -0.2113,2.7711 -0.5792,2.4164 0.3994,-0.0565 -0.2467,3.2389 a 12.7765,12.7765 0 0 0 -0.1527,2.0052 v 4.28 h 38 v -4.28 c -3e-4,-5.3435 -3.7494,-8.6466 -7.0678,-10.2097 z"/></g><g id="skin-shadow" transform="translate(-16.036317,-10.245846)"><polygon id="polygon3" fill="#fcea2b" points="55.15 36.803 59.31 33.237 62.791 35.097 65.044 33.77 65.854 30.842 59.457 26.748 57.062 26.748 54.55 27.382 52.465 29.748 51.046 32.236 27.31 38.915 32.982 49.081"/></g><g id="line" transform="translate(-16.036317,-10.245846)"><path id="path4" fill="none" stroke="#000" stroke-linecap="round" stroke-linejoin="round" stroke-width="2" d="m 48.083,46.6973 c 3.85,1.1778 7.0674,4.5469 7.0674,8.5508 v 5.4227"/><path id="path5" fill="none" stroke="#000" stroke-linecap="round" stroke-miterlimit="10" stroke-width="2" d="M 55.0623,36.7481 40.6292,45.76 a 58.4644,58.4644 0 0 1 -11.937,5.69 c -2.4384,0.8392 -4.6463,1.5968 -4.6463,1.5968"/><path id="path6" fill="none" stroke="#000" stroke-linecap="round" stroke-miterlimit="10" stroke-width="2" d="m 59.632,33.3347 1.8149,1.1066 a 2.7369,2.7369 0 0 0 3.2107,-0.2627 v 0 a 2.7321,2.7321 0 0 0 0.3381,-3.8072 12.1524,12.1524 0 0 0 -5.3649,-3.5349 6.1467,6.1467 0 0 0 -4.9343,0.3771 v 0 a 3.3808,3.3808 0 0 0 -0.6987,0.4976 l -0.5025,0.4644 a 3.3858,3.3858 0 0 0 -0.73,0.972 l -0.5834,1.1668 a 4.6985,4.6985 0 0 1 -1.97,2.0334 v 0 a 80.9259,80.9259 0 0 0 -13.9331,4.055 l -13.5127,5.0541 a 8.1237,8.1237 0 0 0 -5.2372,6.6187 91.6645,91.6645 0 0 0 -0.4666,11.6725"/><path id="path7" fill="none" stroke="#000" stroke-linecap="round" stroke-miterlimit="10" stroke-width="2" d="m 29.982,29.209 c 0,0 2.53,1.5112 4.0414,0"/><path id="path8" fill="none" stroke="#000" stroke-linecap="round" stroke-miterlimit="10" stroke-width="2" d="m 38.3139,28.9816 c 0,0 2.53,1.5112 4.0414,0"/><path id="path9" fill="none" stroke="#000" stroke-linecap="round" stroke-linejoin="round" stroke-width="2" d="M 24.0459,35.0192 A 18.7362,18.7362 0 0 1 22.2871,28.94 16.51,16.51 0 0 1 22.1533,27.2482 c -0.0014,-0.6543 -0.0029,-1.3223 -0.0029,-2 0,-7 5,-14 14,-14 a 13.75,13.75 0 0 1 14,13.4954 q 0.0047,0.2523 0,0.5046 c 0,0.6 0.0039,1.1318 0.0049,1.666"/><path id="path10" fill="none" stroke="#000" stroke-linecap="round" stroke-miterlimit="10" stroke-width="2" d="m 29.982,42.2232 c 0,0 -0.006,2.5532 2.0207,3.4468"/><path id="path11" fill="none" stroke="#000" stroke-linecap="round" stroke-linejoin="round" stroke-width="2" d="m 37.09,50.7953 q 5.2653,0.735 10.5305,-3.6527"/><path id="path12" fill="none" stroke="#000" stroke-linecap="round" stroke-linejoin="round" stroke-width="2" d="m 47.05,29.6632 c 0,-5 -3,-11 -3,-11 -8,0 -10,3 -16,1 a 30.6019,30.6019 0 0 0 -2.2629,10"/></g></svg>