<svg xmlns="http://www.w3.org/2000/svg" xmlns:svg="http://www.w3.org/2000/svg" id="emoji" width="50.572" height="51.425" version="1.1" viewBox="0 0 50.572 51.425"><g id="hair" transform="translate(-15.134133,-10.533246)"><g id="hair-2"><path id="path1" fill="#f1b31c" d="m 25.1643,37.59 c -3.0066,0 -4.0088,-7.0153 -4.0088,-14.0306 0,-6.0131 5.011,-12.0263 14.0307,-12.0263 9.0197,0 14.0306,6.0133 14.0306,12.0269 0,7.0153 -3.2135,9.4758 -3.2135,9.4758 L 45.8933,28.559 46.021,26.192 43.6809,23 c 0,0 -1.83,-1.617 -1.66,-1.4043 0.17,0.2127 -2.5884,-2.9787 -2.5884,-2.9787 l -2.1692,-0.33 -3.4552,2.2871 -2.4681,1.277 -1.9627,1.5389 -3.3135,1.44 -0.6383,0.4255 -0.0425,2.28 -0.5958,2.8687 1.5365,7.1858 h -1.1594"/></g></g><g id="color" transform="translate(-15.134133,-10.533246)"><path id="path2" fill="#fcea2b" d="m 24.1987,28.7988 c 0,8.2186 4.6433,13.3927 11.6123,13.3927 6.823,0 10.4006,-4.1406 10.4006,-12.3592 a 8.7214,8.7214 0 0 0 -0.9629,-4.2967 c -3.448,-2.7395 -5.9168,-8 -5.9168,-8 -4.5973,2.7395 -8.0453,5.4791 -14.9413,6.3923 0,0 -0.1919,0.305 -0.1919,4.8709 z"/><path id="path3" fill="#92d3f5" d="m 47.1813,46.4687 c -4.9473,7.4285 -9.7692,5.8349 -14.06,3.5476 l -6.7135,-10.8142 -8.41,4.992 -0.5249,2.19 -0.4339,-0.0808 -0.2111,2.7712 -0.5792,2.4165 0.3995,-0.0566 -0.2467,3.239 a 12.764,12.764 0 0 0 -0.1528,2.0052 v 4.28 h 38 v -4.28 c 0,-5.3438 -3.7487,-8.6468 -7.0674,-10.2099 z"/></g><g id="skin-shadow" transform="translate(-15.134133,-10.533246)"><polygon id="polygon3" fill="#fcea2b" points="54.249 37.09 58.408 33.525 61.889 35.384 64.142 34.057 64.953 31.129 58.555 27.036 56.16 27.036 53.649 27.669 51.563 30.036 50.144 32.524 26.408 39.202 32.08 49.369"/></g><g id="line" transform="translate(-15.134133,-10.533246)"><path id="path4" fill="none" stroke="#000" stroke-linecap="round" stroke-linejoin="round" stroke-width="2" d="m 21.2516,27.5356 c -0.0029,-0.6543 -0.0029,-1.3223 -0.0029,-2 0,-7 5,-14 14,-14 a 13.75,13.75 0 0 1 14,13.4954 q 0.0047,0.2523 0,0.5046 c 0,0.6 0.0039,1.1318 0.0049,1.666"/><path id="path5" fill="none" stroke="#000" stroke-linecap="round" stroke-linejoin="round" stroke-width="2" d="m 46.2116,29.5336 a 11.6605,11.6605 0 0 0 -0.9629,-3.998 c -3,-3 -7,-8 -7,-8 -4,3 -7,6 -13,7 0,0 -0.9287,0.873 -1.05,5.0693"/><path id="path6" fill="none" stroke="#000" stroke-linecap="round" stroke-linejoin="round" stroke-width="2" d="m 47.1813,46.9848 c 3.85,1.1778 7.0674,4.5469 7.0674,8.5508 v 5.4226"/><path id="path7" fill="none" stroke="#000" stroke-linecap="round" stroke-miterlimit="10" stroke-width="2" d="m 54.1605,37.0356 -14.433,9.0118 a 58.4589,58.4589 0 0 1 -11.937,5.69 c -2.4385,0.8393 -4.6463,1.5969 -4.6463,1.5969"/><path id="path8" fill="none" stroke="#000" stroke-linecap="round" stroke-miterlimit="10" stroke-width="2" d="m 58.73,33.6221 1.8149,1.1067 a 2.7369,2.7369 0 0 0 3.2106,-0.2627 v 0 a 2.7321,2.7321 0 0 0 0.3381,-3.8073 12.1519,12.1519 0 0 0 -5.3648,-3.5348 6.1469,6.1469 0 0 0 -4.9344,0.377 v 0 a 3.3866,3.3866 0 0 0 -0.6987,0.4977 l -0.5025,0.4643 a 3.3845,3.3845 0 0 0 -0.73,0.9721 L 51.28,30.6019 a 4.7,4.7 0 0 1 -1.97,2.0334 v 0 A 80.9152,80.9152 0 0 0 35.3764,36.69 L 21.8643,41.7444 A 8.1235,8.1235 0 0 0 16.6271,48.3631 91.6836,91.6836 0 0 0 16.16,60.0356"/><path id="path9" fill="none" stroke="#000" stroke-linecap="round" stroke-miterlimit="10" stroke-width="2" d="m 29.08,29.4965 c 0,0 2.53,1.5112 4.0415,0"/><path id="path10" fill="none" stroke="#000" stroke-linecap="round" stroke-miterlimit="10" stroke-width="2" d="m 37.4121,29.2691 c 0,0 2.53,1.5112 4.0415,0"/><path id="path11" fill="none" stroke="#000" stroke-linecap="round" stroke-linejoin="round" stroke-width="2" d="m 26.3237,37.59 c 0,0 -3.9807,1.0222 -4.5279,-5.5161"/><path id="path12" fill="none" stroke="#000" stroke-linecap="round" stroke-miterlimit="10" stroke-width="2" d="m 29.08,42.5106 c 0,0 -0.0059,2.5532 2.0208,3.4468"/><path id="path13" fill="none" stroke="#000" stroke-linecap="round" stroke-linejoin="round" stroke-width="2" d="M 36.1883,51.0828 Q 41.4536,51.8177 46.7188,47.43"/></g></svg>