<?xml version="1.0" encoding="UTF-8" standalone="no"?>
<svg
   id="emoji"
   viewBox="0 0 54.130924 59.33596"
   version="1.1"
   sodipodi:docname="e0ae.svg"
   width="54.130924"
   height="59.33596"
   xmlns:inkscape="http://www.inkscape.org/namespaces/inkscape"
   xmlns:sodipodi="http://sodipodi.sourceforge.net/DTD/sodipodi-0.dtd"
   xmlns="http://www.w3.org/2000/svg"
   xmlns:svg="http://www.w3.org/2000/svg">
  <defs
     id="defs11" />
  <sodipodi:namedview
     id="namedview11"
     pagecolor="#ffffff"
     bordercolor="#000000"
     borderopacity="0.25"
     inkscape:showpageshadow="2"
     inkscape:pageopacity="0.0"
     inkscape:pagecheckerboard="0"
     inkscape:deskcolor="#d1d1d1" />
  <g
     id="color"
     transform="translate(-10.888038,-8.4090381)">
    <polygon
       fill="#d0cfce"
       points="64.019,31.776 26.256,56.404 11.888,33.851 49.753,9.409 "
       id="polygon1" />
    <path
       fill="#92d3f5"
       d="M 46.35,38.5154 46.1985,22.3376 v 0.665 c -5e-4,-3.0516 5.629,-3.873 5.63,0.72 l 0.0523,5.5746 0.0992,10.6035 -0.1142,-12.1926 c 0,-2.7491 4.8971,-2.8421 4.8976,0.7032 l 0.003,20.6909 c 7e-4,4.6779 -0.1322,9.5924 -3.468,11.8561 -2.0455,1.3881 -5.5544,1.1924 -10.2128,1.063 -10.4229,-0.2895 -8.9278,-3.0279 -11.7523,-8.452 A 43.66,43.66 0 0 1 28.8476,47.588 c -0.7839,-2.2764 -2.59,-5.1116 -2.5909,-9.8859 1.8834,-1.8839 6.4834,1.0582 7.5227,3.52 l 1.1174,2.2832 -0.0029,-19.9825 c 0,-3.1749 5.7438,-3.4111 5.7444,0.5 v -2.5311 c -5e-4,-3.4183 5.56,-4.61 5.5609,1.5109"
       id="path1" />
    <rect
       x="35.638302"
       y="61.7234"
       width="18.127701"
       height="5.0212998"
       fill="#ffffff"
       id="rect1" />
  </g>
  <g
     id="line"
     transform="translate(-10.888038,-8.4090381)">
    <polyline
       fill="none"
       stroke="#000000"
       stroke-linecap="round"
       stroke-linejoin="round"
       stroke-width="2"
       points="28.256 54.586 26.154 55.927 11.888 33.561 49.753 9.409 64.019 31.776 60.217 34.201"
       id="polyline1" />
    <line
       x1="40.639702"
       x2="40.637402"
       y1="39.900501"
       y2="24.0228"
       fill="none"
       stroke="#000000"
       stroke-linecap="round"
       stroke-linejoin="round"
       stroke-width="1.7327"
       id="line1" />
    <path
       fill="none"
       stroke="#000000"
       stroke-linecap="round"
       stroke-linejoin="round"
       stroke-width="2"
       d="M 46.35,38.5154 46.1985,22.3376 v 0.665 c -5e-4,-3.0516 5.629,-3.873 5.63,0.72 l 0.0523,5.5746 0.0992,10.6035 -0.1142,-12.1926 c 0,-2.7491 4.8971,-2.8421 4.8976,0.7032 l 0.0031,21.1213 c 6e-4,4.1454 -0.5144,6.8717 -2.68,10.3392 v 2.2133 H 35.0317 v -2.2157 c -1.8558,-2.1982 -3.0311,-5.3354 -4.2739,-9.0062 -0.815,-2.5337 -2.5332,-6.7293 -4.5016,-12.5434 1.18,-2.3882 4.8619,-0.9094 6.6355,1.0892 l 2.0046,4.0962 -0.0029,-19.9825 c 0,-3.1749 5.7438,-3.4111 5.7444,0.5 v -2.5311 c -5e-4,-3.4183 5.56,-4.61 5.5609,1.5109"
       id="path2" />
    <line
       x1="40.639702"
       x2="40.637402"
       y1="39.900501"
       y2="24.0228"
       fill="none"
       stroke="#000000"
       stroke-linecap="round"
       stroke-linejoin="round"
       stroke-width="2"
       id="line2" />
    <circle
       cx="27.766001"
       cy="10.9583"
       r="2"
       id="circle2" />
    <circle
       cx="37.085098"
       cy="10.9583"
       r="2"
       id="circle3" />
    <circle
       cx="15.1277"
       cy="16"
       r="2"
       id="circle4" />
    <circle
       cx="19.127701"
       cy="20"
       r="2"
       id="circle5" />
    <circle
       cx="15.383"
       cy="25.337799"
       r="2"
       id="circle6" />
    <circle
       cx="23.3617"
       cy="24.6689"
       r="2"
       id="circle7" />
    <circle
       cx="28.256201"
       cy="20.6689"
       r="2"
       id="circle8" />
    <circle
       cx="23.766001"
       cy="16"
       r="2"
       id="circle9" />
    <circle
       cx="31.8085"
       cy="16"
       r="2"
       id="circle10" />
    <circle
       cx="19.127701"
       cy="10.9583"
       r="2"
       id="circle11" />
    <polyline
       fill="none"
       stroke="#000000"
       stroke-linecap="round"
       stroke-linejoin="round"
       stroke-width="2"
       points="35.032 62.085 35.032 66.706 54.086 66.745 54.086 62.085"
       id="polyline11" />
  </g>
</svg>
