<?xml version="1.0" encoding="UTF-8" standalone="no"?>
<svg
   id="emoji"
   viewBox="0 0 41.120499 54.358299"
   version="1.1"
   sodipodi:docname="e0b1.svg"
   width="41.120499"
   height="54.358299"
   xmlns:inkscape="http://www.inkscape.org/namespaces/inkscape"
   xmlns:sodipodi="http://sodipodi.sourceforge.net/DTD/sodipodi-0.dtd"
   xmlns="http://www.w3.org/2000/svg"
   xmlns:svg="http://www.w3.org/2000/svg">
  <defs
     id="defs15" />
  <sodipodi:namedview
     id="namedview15"
     pagecolor="#ffffff"
     bordercolor="#000000"
     borderopacity="0.25"
     inkscape:showpageshadow="2"
     inkscape:pageopacity="0.0"
     inkscape:pagecheckerboard="0"
     inkscape:deskcolor="#d1d1d1" />
  <g
     id="color"
     transform="translate(-14.9221,-6.7905998)">
    <path
       fill="#92d3f5"
       d="M 32.088,60.1489 H 15.8129 V 30.6956 H 23.8 c 2.5995,3.0618 5.0217,6.2697 7.2549,9.6081 3.1125,4.9454 1.0331,19.8452 1.0331,19.8452 z"
       id="path1" />
    <polyline
       fill="#ea5a47"
       points="32.157 43.944 22.542 43.944 22.606 57.397 32.189 57.397"
       id="polyline1" />
    <path
       fill="#ffffff"
       d="m 23.8,30.6956 v 0 c 0.4632,-1.2933 0.7,-2.6568 0.7,-4.0306 V 22.84 l 8.4869,-3.1131 V 16 h -8.844 c -5.918,0 -8.33,6.4915 -8.33,6.4915 v 8.2041"
       id="path2" />
    <path
       fill="#ffffff"
       d="m 27.9347,22.5106 c -0.3521,2.1438 3.8126,8.5738 3.8126,8.5738 L 32.17,30.9683 c 0.6574,-0.176 1.0477,-0.8516 0.8717,-1.509 -0.0037,-0.0137 -0.0076,-0.0274 -0.0117,-0.041 -0.5585,-2.4553 -0.8734,-4.9598 -0.94,-7.477 l 0.1662,-1.6927"
       id="path3" />
  </g>
  <g
     id="skin-shadow"
     transform="translate(-14.9221,-6.7905998)">
    <path
       fill="#d0cfce"
       d="m 31.2128,22.0638 c 0,0 -2.6171,1.6117 -1.8511,5.9761 L 27.33,22.83 27.1278,21.7908 31.2129,20.3774 v 1.6864 z"
       id="path4" />
    <path
       fill="#61b2e4"
       d="m 21.7819,31.0844 c 0,0 7.2394,8.1232 8.7181,12.86 l 0.7606,-0.841 c 0.2928,-0.3238 0.3179,-0.8087 0.0601,-1.1609 L 23.6396,31.448 Z"
       id="path5" />
    <path
       fill="#d22f27"
       d="m 30.1931,43.7694 c 0,0 0.3192,11.5213 -0.4787,13.2128 l 0.4919,0.0377 c 1.3276,0.1019 2.4579,-0.9544 2.4461,-2.2859 L 32.576,46.1311 c -0.0116,-1.3078 -1.0751,-2.3619 -2.383,-2.3618 v 0 z"
       id="path6" />
    <path
       fill="#61b2e4"
       d="m 30.702,57.553 -0.893,2.075 0.579,0.0451 c 0.7889,0.0614 1.463,-0.5622 1.463,-1.3535 V 57.713 Z"
       id="path7" />
  </g>
  <g
     id="line"
     transform="translate(-14.9221,-6.7905998)">
    <path
       fill="none"
       stroke="#000000"
       stroke-linecap="round"
       stroke-linejoin="round"
       stroke-width="2"
       d="M 32.1972,60.1489 H 15.9221 V 30.6956 h 7.9866 c 2.5995,3.0618 5.0217,6.2697 7.2549,9.6081 3.113,4.9454 1.0336,19.8452 1.0336,19.8452 z"
       id="path8" />
    <polyline
       fill="none"
       stroke="#000000"
       stroke-linecap="round"
       stroke-linejoin="round"
       stroke-width="2"
       points="32.266 43.944 22.651 43.944 22.715 57.397 32.298 57.397"
       id="polyline8" />
    <path
       fill="none"
       stroke="#000000"
       stroke-linecap="round"
       stroke-linejoin="round"
       stroke-width="2"
       d="m 15.9221,30.6956 v -7.605 c 0,-0.4267 0.0912,-0.8435 0.2759,-1.2282 0.7825,-1.6297 3.2749,-5.8623 8.0537,-5.8623 h 8.844 v 3.7266 l -8.4869,3.1134 v 5.6479 c 0,0.1677 -0.0289,0.3342 -0.0855,0.4921 l -0.6145,1.7159"
       id="path9" />
    <path
       fill="none"
       stroke="#000000"
       stroke-linecap="round"
       stroke-linejoin="round"
       stroke-width="2"
       d="m 27.3511,22.5106 c -0.3522,2.1438 3.8125,8.5738 3.8125,8.5738 l 0.4227,-0.1161 c 0.6574,-0.176 1.0477,-0.8516 0.8717,-1.509 -0.0037,-0.0137 -0.0076,-0.0274 -0.0117,-0.041 -0.5585,-2.4553 -0.8734,-4.9598 -0.94,-7.477 l 0.1662,-1.6927"
       id="path10" />
    <rect
       x="32.271301"
       y="15.0122"
       rx="0.95109999"
       ry="0.95109999"
       width="2.9783001"
       height="5.6012998"
       id="rect10" />
    <circle
       cx="54.042599"
       cy="17.7906"
       r="2"
       id="circle10" />
    <circle
       cx="54.042599"
       cy="8.7905998"
       r="2"
       id="circle11" />
    <circle
       cx="47.8363"
       cy="13.7906"
       r="2"
       id="circle12" />
    <circle
       cx="47.8363"
       cy="21.7906"
       r="2"
       id="circle13" />
    <circle
       cx="54.042599"
       cy="26.9555"
       r="2"
       id="circle14" />
    <circle
       cx="40.870098"
       cy="17.7906"
       r="2"
       id="circle15" />
  </g>
</svg>
