<svg xmlns="http://www.w3.org/2000/svg" xmlns:svg="http://www.w3.org/2000/svg" id="emoji" width="49.348" height="41.096" version="1.1" viewBox="0 0 49.348 41.096"><g id="color" transform="translate(-12.652498,-14.999993)"><polygon id="polygon1" fill="#92d3f5" points="40.26 41.833 39.393 38.532 39.393 21.809 42.218 20.734 43.404 18.081 46.316 18.081 47.607 16.706 51.553 17.282 51.745 18.617 54.736 19.255 54.735 34.511 56.468 29.149 60.553 27.879 61 30.424 55.822 48.103 41.891 48.103"/><polygon id="polygon2" fill="#92d3f5" points="31.715 41.537 32.513 38.283 32.356 21.96 30.889 20.734 29.726 20.734 28.434 17.789 25.711 17.789 23.094 16.007 20.596 18.234 17.654 18.292 17.468 20.734 17.468 28.805 13.652 36.681 13.652 39.809 16.122 47.912 17.468 47.912 29.404 48.103"/></g><g id="skin-shadow" transform="translate(-12.652498,-14.999993)"><path id="path2" fill="#61b2e4" d="m 18.5012,37.7421 a 13.0459,13.0459 0 0 0 3.18,3.4068 c 0,0 -1.6079,-3.3829 -1.2766,-5.4255 0.3313,-2.0426 -1.0331,-6.5745 -1.4681,-6.5745 -0.435,0 -0.4353,8.5932 -0.4353,8.5932 z"/><path id="path3" fill="#61b2e4" d="M 55.4324,33.7936 C 54.0384,36.2844 52,39.2979 52,39.8723 a 9.6877,9.6877 0 0 1 2.2979,-6.4468 c 1.4567,-1.5559 1.782,-1.9747 1.782,-1.9747 a 7.6211,7.6211 0 0 1 -0.6475,2.3428 z"/></g><g id="line" transform="translate(-12.652498,-14.999993)"><line id="line3" x1="21.223" x2="21.222" y1="26.275" y2="19.756" fill="none" stroke="#000" stroke-linecap="round" stroke-linejoin="round" stroke-width="2"/><path id="path4" fill="none" stroke="#000" stroke-linecap="round" stroke-linejoin="round" stroke-width="2" d="m 17.1929,24.2766 v -4.8717 c 0,-2.2272 4.0293,-2.3929 4.03,0.3508 v -1.7755 c 0,-2.398 3.9,-3.234 3.9009,1.06"/><path id="path5" fill="none" stroke="#000" stroke-linecap="round" stroke-linejoin="round" stroke-width="2" d="M 25.2294,29.9222 25.1231,18.5736 V 19.04 c 0,-2.1406 3.9487,-2.7168 3.9492,0.5053 l 0.0366,3.9106 0.07,7.4381 -0.08,-8.5531 c 0,-1.9284 3.4353,-1.9937 3.4356,0.4933 l 0.0022,14.8165 a 9.671,9.671 0 0 1 -0.62,3.426 l -0.375,0.8582 c 0,0 -2.5217,9.6551 -3.245,12.9694 H 17.4821 C 16.8035,51.9485 14.2377,41.9349 14.2377,41.9349 l -0.3223,-1.3533 a 9.68,9.68 0 0 1 0.3974,-5.7547 c 0.6211,-1.5962 1.3919,-3.5908 2.3775,-5.9179 1.01,-0.4091 1.8534,0.2683 2.38,1.2759 a 4.3081,4.3081 0 0 1 0.0523,3.6583 l -0.13,0.307 a 6.2041,6.2041 0 0 0 -0.4913,2.42 v 1.1719"/><line id="line5" x1="50.707" x2="50.705" y1="19.947" y2="31.085" fill="none" stroke="#000" stroke-linecap="round" stroke-linejoin="round" stroke-width="2"/><path id="path6" fill="none" stroke="#000" stroke-linecap="round" stroke-linejoin="round" stroke-width="2" d="m 54.99,35.3929 1.3574,-4.911 a 2.5373,2.5373 0 0 1 0.6383,-1.128 c 1.0907,-1.0881 2.7824,-1.8343 3.7489,-1.0268 a 0.7978,0.7978 0 0 1 0.2416,0.7934 c -0.9673,3.983 -1.8539,6.889 -2.2486,8.6529 l -1.0368,4.353 c 0,0 -2.1847,8.3854 -3.1087,12.3744 a 0.77,0.77 0 0 1 -0.7537,0.595 H 44.24 a 0.7675,0.7675 0 0 1 -0.751,-0.5834 c -0.8994,-3.6557 -3.1014,-12.386 -3.1014,-12.386 l -0.375,-0.8582 a 9.6687,9.6687 0 0 1 -0.62,-3.426 l 0.0021,-14.8165 c 0,-2.487 3.436,-2.4218 3.4357,-0.4933 l -0.08,8.553 0.07,-7.438 0.0367,-3.9106 c 0,-3.2222 3.9494,-2.646 3.9491,-0.5053 V 18.7651 L 46.7,30.1137"/><path id="path7" fill="none" stroke="#000" stroke-linecap="round" stroke-linejoin="round" stroke-width="2" d="m 46.8057,19.2315 c 6e-4,-4.2938 3.9013,-3.4578 3.9009,-1.06 v 1.7755 c 0,-2.7437 4.03,-2.578 4.03,-0.3508 v 5.68"/><line id="line7" x1="29.726" x2="16.122" y1="47.912" y2="47.912" fill="none" stroke="#000" stroke-linecap="round" stroke-linejoin="round" stroke-width="2"/><line id="line8" x1="55.821" x2="42.218" y1="48.103" y2="48.103" fill="none" stroke="#000" stroke-linecap="round" stroke-linejoin="round" stroke-width="2"/></g></svg>