<svg xmlns="http://www.w3.org/2000/svg" xmlns:svg="http://www.w3.org/2000/svg" id="emoji" width="50" height="53" version="1.1" viewBox="0 0 50 53"><g id="color" transform="translate(-11,-8)"><circle id="circle1" cx="38.5" cy="15" r="2" fill="#ea5a47" stroke="none"/><circle id="circle2" cx="33.5" cy="15" r="2" fill="#ea5a47" stroke="none"/><circle id="circle3" cx="36" cy="11" r="2" fill="#ea5a47" stroke="none"/><path id="path3" fill="#fff" stroke="none" stroke-linecap="round" stroke-linejoin="round" stroke-miterlimit="10" stroke-width="2" d="m 60,57 c 0,1.6563 -1.3428,3 -3,3 H 15 c -1.6572,0 -3,-1.3437 -3,-3 v -1 h 48 z"/><path id="path4" fill="#fcea2b" stroke="none" d="M 55.7666,34.4141 58,56 H 14 L 16.2334,34.4141 17,27 c 0,-5.5229 4.4775,-10 10,-10 h 18 c 5.5225,0 10,4.4771 10,10 z"/><path id="path5" fill="#a57939" stroke="none" d="M 55.5332,34.4141 C 55.0371,34.7773 54.4297,35 53.7666,35 c -1.6572,0 -3,-1.3437 -3,-3 v -2 c 0,-1.6567 -1.3428,-3 -3,-3 -1.6572,0 -3,1.3433 -3,3 v 2 c 0,1.6563 -1.3428,3 -3,3 -1.6572,0 -3,-1.3437 -3,-3 v -2 c 0,-1.6567 -1.3428,-3 -3,-3 -1.6572,0 -3,1.3433 -3,3 v 2 c 0,1.6563 -1.3428,3 -3,3 -1.6572,0 -3,-1.3437 -3,-3 v -2 c 0,-1.6567 -1.3428,-3 -3,-3 -1.6572,0 -3,1.3433 -3,3 v 2 c 0,1.6563 -1.3428,3 -3,3 C 17.1035,35 16.4961,34.7773 16,34.4141 L 16.7666,27 c 0,-5.5229 4.4775,-10 10,-10 h 18 c 5.5225,0 10,4.4771 10,10 z"/></g><g id="line" transform="translate(-11,-8)"><path id="path6" fill="none" stroke="#000" stroke-linecap="round" stroke-linejoin="round" stroke-miterlimit="10" stroke-width="2" d="m 60,57 c 0,1.6563 -1.3428,3 -3,3 H 15 c -1.6572,0 -3,-1.3437 -3,-3 v -1 h 48 z"/><circle id="circle6" cx="38.5" cy="15" r="2" fill="none" stroke="#000" stroke-linecap="round" stroke-linejoin="round" stroke-miterlimit="10" stroke-width="2"/><circle id="circle7" cx="33.5" cy="15" r="2" fill="none" stroke="#000" stroke-linecap="round" stroke-linejoin="round" stroke-miterlimit="10" stroke-width="2"/><circle id="circle8" cx="36" cy="11" r="2" fill="none" stroke="#000" stroke-linecap="round" stroke-linejoin="round" stroke-miterlimit="10" stroke-width="2"/><path id="path8" fill="none" stroke="#000" stroke-linecap="round" stroke-linejoin="round" stroke-miterlimit="10" stroke-width="2" d="M 16.2334,34.4141 17,27 c 0,-5.5229 4.4775,-10 10,-10 h 18 c 5.5225,0 10,4.4771 10,10 l 0.7666,7.4141"/><polyline id="polyline8" fill="none" stroke="#000" stroke-linecap="round" stroke-linejoin="round" stroke-miterlimit="10" stroke-width="2" points="16.233 34.414 14 56 58 56 55.767 34.414"/><path id="path9" fill="none" stroke="#000" stroke-linecap="round" stroke-linejoin="round" stroke-miterlimit="10" stroke-width="2" d="M 16.2334,34.4141 C 16.7295,34.7773 17.3369,35 18,35 c 1.6572,0 3,-1.3437 3,-3 v -2 c 0,-1.6567 1.3428,-3 3,-3 1.6572,0 3,1.3433 3,3 v 2 c 0,1.6563 1.3428,3 3,3 1.6572,0 3,-1.3437 3,-3 v -2 c 0,-1.6567 1.3428,-3 3,-3 1.6572,0 3,1.3433 3,3 v 2 c 0,1.6563 1.3428,3 3,3 1.6572,0 3,-1.3437 3,-3 v -2 c 0,-1.6567 1.3428,-3 3,-3 1.6572,0 3,1.3433 3,3 v 2 c 0,1.6563 1.3428,3 3,3 0.6631,0 1.2705,-0.2227 1.7666,-0.5859"/></g></svg>