<?xml version="1.0" encoding="UTF-8" standalone="no"?>
<svg
   id="emoji"
   viewBox="0 0 50 53"
   version="1.1"
   sodipodi:docname="e0c7.svg"
   width="50"
   height="53"
   xmlns:inkscape="http://www.inkscape.org/namespaces/inkscape"
   xmlns:sodipodi="http://sodipodi.sourceforge.net/DTD/sodipodi-0.dtd"
   xmlns="http://www.w3.org/2000/svg"
   xmlns:svg="http://www.w3.org/2000/svg">
  <defs
     id="defs9" />
  <sodipodi:namedview
     id="namedview9"
     pagecolor="#ffffff"
     bordercolor="#000000"
     borderopacity="0.25"
     inkscape:showpageshadow="2"
     inkscape:pageopacity="0.0"
     inkscape:pagecheckerboard="0"
     inkscape:deskcolor="#d1d1d1" />
  <g
     id="color"
     transform="translate(-11,-8)">
    <circle
       cx="38.5"
       cy="15"
       r="2"
       fill="#ea5a47"
       stroke="none"
       id="circle1" />
    <circle
       cx="33.5"
       cy="15"
       r="2"
       fill="#ea5a47"
       stroke="none"
       id="circle2" />
    <circle
       cx="36"
       cy="11"
       r="2"
       fill="#ea5a47"
       stroke="none"
       id="circle3" />
    <path
       fill="#ffffff"
       stroke="none"
       stroke-linecap="round"
       stroke-linejoin="round"
       stroke-miterlimit="10"
       stroke-width="2"
       d="m 60,57 c 0,1.6563 -1.3428,3 -3,3 H 15 c -1.6572,0 -3,-1.3437 -3,-3 v -1 h 48 z"
       id="path3" />
    <path
       fill="#fcea2b"
       stroke="none"
       d="M 55.7666,34.4141 58,56 H 14 L 16.2334,34.4141 17,27 c 0,-5.5229 4.4775,-10 10,-10 h 18 c 5.5225,0 10,4.4771 10,10 z"
       id="path4" />
    <path
       fill="#a57939"
       stroke="none"
       d="M 55.5332,34.4141 C 55.0371,34.7773 54.4297,35 53.7666,35 c -1.6572,0 -3,-1.3437 -3,-3 v -2 c 0,-1.6567 -1.3428,-3 -3,-3 -1.6572,0 -3,1.3433 -3,3 v 2 c 0,1.6563 -1.3428,3 -3,3 -1.6572,0 -3,-1.3437 -3,-3 v -2 c 0,-1.6567 -1.3428,-3 -3,-3 -1.6572,0 -3,1.3433 -3,3 v 2 c 0,1.6563 -1.3428,3 -3,3 -1.6572,0 -3,-1.3437 -3,-3 v -2 c 0,-1.6567 -1.3428,-3 -3,-3 -1.6572,0 -3,1.3433 -3,3 v 2 c 0,1.6563 -1.3428,3 -3,3 C 17.1035,35 16.4961,34.7773 16,34.4141 L 16.7666,27 c 0,-5.5229 4.4775,-10 10,-10 h 18 c 5.5225,0 10,4.4771 10,10 z"
       id="path5" />
  </g>
  <g
     id="hair"
     transform="translate(-11,-8)" />
  <g
     id="skin"
     transform="translate(-11,-8)" />
  <g
     id="skin-shadow"
     transform="translate(-11,-8)" />
  <g
     id="line"
     transform="translate(-11,-8)">
    <path
       fill="none"
       stroke="#000000"
       stroke-linecap="round"
       stroke-linejoin="round"
       stroke-miterlimit="10"
       stroke-width="2"
       d="m 60,57 c 0,1.6563 -1.3428,3 -3,3 H 15 c -1.6572,0 -3,-1.3437 -3,-3 v -1 h 48 z"
       id="path6" />
    <circle
       cx="38.5"
       cy="15"
       r="2"
       fill="none"
       stroke="#000000"
       stroke-linecap="round"
       stroke-linejoin="round"
       stroke-miterlimit="10"
       stroke-width="2"
       id="circle6" />
    <circle
       cx="33.5"
       cy="15"
       r="2"
       fill="none"
       stroke="#000000"
       stroke-linecap="round"
       stroke-linejoin="round"
       stroke-miterlimit="10"
       stroke-width="2"
       id="circle7" />
    <circle
       cx="36"
       cy="11"
       r="2"
       fill="none"
       stroke="#000000"
       stroke-linecap="round"
       stroke-linejoin="round"
       stroke-miterlimit="10"
       stroke-width="2"
       id="circle8" />
    <path
       fill="none"
       stroke="#000000"
       stroke-linecap="round"
       stroke-linejoin="round"
       stroke-miterlimit="10"
       stroke-width="2"
       d="M 16.2334,34.4141 17,27 c 0,-5.5229 4.4775,-10 10,-10 h 18 c 5.5225,0 10,4.4771 10,10 l 0.7666,7.4141"
       id="path8" />
    <polyline
       fill="none"
       stroke="#000000"
       stroke-linecap="round"
       stroke-linejoin="round"
       stroke-miterlimit="10"
       stroke-width="2"
       points="16.2334,34.4141 14,56 58,56 55.7666,34.4141"
       id="polyline8" />
    <path
       fill="none"
       stroke="#000000"
       stroke-linecap="round"
       stroke-linejoin="round"
       stroke-miterlimit="10"
       stroke-width="2"
       d="M 16.2334,34.4141 C 16.7295,34.7773 17.3369,35 18,35 c 1.6572,0 3,-1.3437 3,-3 v -2 c 0,-1.6567 1.3428,-3 3,-3 1.6572,0 3,1.3433 3,3 v 2 c 0,1.6563 1.3428,3 3,3 1.6572,0 3,-1.3437 3,-3 v -2 c 0,-1.6567 1.3428,-3 3,-3 1.6572,0 3,1.3433 3,3 v 2 c 0,1.6563 1.3428,3 3,3 1.6572,0 3,-1.3437 3,-3 v -2 c 0,-1.6567 1.3428,-3 3,-3 1.6572,0 3,1.3433 3,3 v 2 c 0,1.6563 1.3428,3 3,3 0.6631,0 1.2705,-0.2227 1.7666,-0.5859"
       id="path9" />
  </g>
</svg>
