<?xml version="1.0" encoding="UTF-8" standalone="no"?>
<svg
   id="emoji"
   viewBox="0 0 52 47.204044"
   version="1.1"
   sodipodi:docname="e0c8.svg"
   width="52"
   height="47.204044"
   xmlns:inkscape="http://www.inkscape.org/namespaces/inkscape"
   xmlns:sodipodi="http://sodipodi.sourceforge.net/DTD/sodipodi-0.dtd"
   xmlns="http://www.w3.org/2000/svg"
   xmlns:svg="http://www.w3.org/2000/svg">
  <defs
     id="defs7" />
  <sodipodi:namedview
     id="namedview7"
     pagecolor="#ffffff"
     bordercolor="#000000"
     borderopacity="0.25"
     inkscape:showpageshadow="2"
     inkscape:pageopacity="0.0"
     inkscape:pagecheckerboard="0"
     inkscape:deskcolor="#d1d1d1" />
  <g
     id="color"
     transform="translate(-10,-14.7578)">
    <path
       fill="#ffffff"
       d="M 41.8312,61.958 A 3.7524,3.7524 0 0 1 41.3518,61.9287 H 29.6545 A 3.8959,3.8959 0 0 1 26.6769,60.9414 1.987,1.987 0 0 1 26.132,59.4854 L 26.1281,47.7578 a 1,1 0 0 1 1,-1 h 16.5508 a 1,1 0 0 1 1,1 v 11.45 a 2.6241,2.6241 0 0 1 -0.8916,2.1133 3.0431,3.0431 0 0 1 -1.9561,0.6369 z M 28.1281,59.5664 v 0.0049 l 0.001,10e-4 z"
       id="path1" />
    <path
       fill="#d0cfce"
       d="m 43.6789,46.7578 h -4.8223 v 15.1709 h 2.4952 a 3.7524,3.7524 0 0 0 0.4794,0.0293 3.0431,3.0431 0 0 0 1.9561,-0.6367 2.6241,2.6241 0 0 0 0.8916,-2.1133 v -11.45 a 1,1 0 0 0 -1,-1.0002 z"
       id="path2" />
    <path
       fill="#a57939"
       d="m 36,48.7578 c -13.3711,0 -26,0 -26,-10 0,-9.4775 11.6475,-24 26,-24 14.3525,0 26,14.5225 26,24 0,10 -12.6287,10 -26,10 z"
       id="path3" />
    <path
       fill="#6a462f"
       d="m 36,14.7578 a 21.8545,21.8545 0 0 0 -4.9365,0.5776 c 11.9931,2.7761 21.0632,15.06 21.0632,23.4224 0,8.755 -9.68,9.8449 -21.0632,9.9807 1.6189,0.0193 3.2717,0.0193 4.9365,0.0193 13.3711,0 26,0 26,-10 0,-9.4778 -11.6473,-24 -26,-24 z"
       id="path4" />
  </g>
  <g
     id="line"
     transform="translate(-10,-14.7578)">
    <path
       fill="none"
       stroke="#000000"
       stroke-linecap="round"
       stroke-linejoin="round"
       stroke-width="2"
       d="m 27.1284,51.5319 v 8.0389 c 0,0 -0.1171,1.358 2.5264,1.358 h 11.7694 c 0,0 2.2545,0.3973 2.2545,-1.72 v -7.677"
       id="path5" />
    <path
       fill="none"
       stroke="#000000"
       stroke-linecap="round"
       stroke-linejoin="round"
       stroke-width="2"
       d="m 61,38.7581 c 0,8.8366 -11.1929,9 -25,9 -13.8071,0 -25,-0.1634 -25,-9 0,-8.8366 11.1929,-23 25,-23 13.8071,0 25,14.1634 25,23 z"
       id="path6" />
    <path
       fill="none"
       stroke="#000000"
       stroke-linecap="round"
       stroke-linejoin="round"
       stroke-width="2"
       d="m 61,38.7581 c 0,8.8366 -11.1929,9 -25,9 -13.8071,0 -25,-0.1634 -25,-9 0,-8.8366 11.1929,-23 25,-23 13.8071,0 25,14.1634 25,23 z"
       id="path7" />
  </g>
</svg>
