<svg xmlns="http://www.w3.org/2000/svg" xmlns:svg="http://www.w3.org/2000/svg" id="emoji" width="18" height="64" version="1.1" viewBox="0 0 18 64"><g id="color" transform="translate(-27,-4)"><path id="path1" fill="#92d3f5" d="m 33,5.5 v 12 l -4.406,13.5 0.6289,4 0.2773,2 -1.5,5 v 25 h 16 V 42 l -1.5,-5 0.2773,-2 0.6289,-4 -4.406,-13.5 v -12 z"/><rect id="rect1" width="7" height="4.5" x="32.5" y="4" fill="#9b9b9a" rx="1"/><path id="path2" fill="#61b2e4" d="M 39,7.5 V 17 l 4.5,14 -1,6 1.5,5 V 67 H 40 V 43 C 40,41.5 39,40 39,37.5 39,35 41,34 41,32 41,28.5 36,19.5 36,12.5 v -5 z"/><path id="path3" fill="#3f3f3f" stroke-linecap="round" stroke-linejoin="round" stroke-width="2.268" d="m 36,4 v 4.5 h 2.5 c 0.554,0 1,-0.446 1,-1 V 5 c 0,-0.554 -0.446,-1 -1,-1 z"/></g><g id="line" transform="translate(-27,-4)"><circle id="circle3" cx="36" cy="31" r="1"/><circle id="circle4" cx="36" cy="35" r="1"/><ellipse id="ellipse4" cx="38.5" cy="33" rx=".9" ry="1"/><ellipse id="ellipse5" cx="33.5" cy="33" rx=".9" ry="1"/><ellipse id="ellipse6" cx="40.5" cy="31" rx=".75" ry="1"/><ellipse id="ellipse7" cx="40.5" cy="35" rx=".75" ry="1"/><ellipse id="ellipse8" cx="31.5" cy="31" rx=".75" ry="1"/><ellipse id="ellipse9" cx="31.5" cy="35" rx=".75" ry="1"/><path id="path9" fill="none" stroke="#000" stroke-linecap="round" stroke-linejoin="round" stroke-width="2" d="m 33.5,7.5 h 5"/><path id="path10" fill="none" stroke="#000" stroke-linecap="round" stroke-linejoin="round" stroke-width="2" d="m 31.5,43.5 h 9"/><path id="path11" fill="none" stroke="#000" stroke-linecap="round" stroke-linejoin="round" stroke-width="2" d="m 38,11 v 1.5 c 0,4.5 5.5,16 5.5,19.5 0,2 -1,3 -1,5 0,2 1.5,3 1.5,6 V 67 H 28 V 43 c 0,-3 1.5,-4 1.5,-6 0,-2 -1,-3 -1,-5 0,-3.5 5.5,-15 5.5,-19.5 V 11"/></g></svg>