<?xml version="1.0" encoding="UTF-8" standalone="no"?>
<svg
   id="emoji"
   viewBox="0 0 40.972034 66.170303"
   version="1.1"
   sodipodi:docname="e100.svg"
   width="40.972034"
   height="66.170303"
   xmlns:inkscape="http://www.inkscape.org/namespaces/inkscape"
   xmlns:sodipodi="http://sodipodi.sourceforge.net/DTD/sodipodi-0.dtd"
   xmlns="http://www.w3.org/2000/svg"
   xmlns:svg="http://www.w3.org/2000/svg">
  <defs
     id="defs19" />
  <sodipodi:namedview
     id="namedview19"
     pagecolor="#ffffff"
     bordercolor="#000000"
     borderopacity="0.25"
     inkscape:showpageshadow="2"
     inkscape:pageopacity="0.0"
     inkscape:pagecheckerboard="0"
     inkscape:deskcolor="#d1d1d1" />
  <g
     id="color"
     transform="translate(-14.859466,-2.0598)">
    <circle
       cx="30.3365"
       cy="13.8591"
       r="10.2158"
       fill="#ffffff"
       id="circle1" />
    <path
       fill="#fcea2b"
       d="m 54.6252,48.8242 c 0,11.975 -7.1612,18.3906 -16.2494,18.3906 C 28.2463,65.3991 19.8739,63.1336 21.7586,36.0621"
       id="path1" />
    <path
       fill="#fcea2b"
       d="m 47.8393,37.5921 c 0.081,-1.9313 1.7123,-3.4313 3.6436,-3.3502 1.9313,0.0811 3.4313,1.7123 3.3502,3.6436"
       id="path2" />
    <path
       fill="#fcea2b"
       d="m 40.8423,37.3592 c 0.081,-1.9313 1.7123,-3.4313 3.6436,-3.3502 1.9313,0.0811 3.4313,1.7123 3.3502,3.6436"
       id="path3" />
    <path
       fill="#fcea2b"
       d="m 40.8463,37.2253 c 0.155,-1.9268 1.8426,-3.3631 3.7694,-3.2081 1.9268,0.155 3.3631,1.8426 3.2081,3.7694"
       id="path4" />
    <path
       fill="#fcea2b"
       d="m 33.8047,36.8809 c 0.1237,-1.929 1.7878,-3.3925 3.7168,-3.2688 1.929,0.1237 3.3925,1.7878 3.2688,3.7168"
       id="path5" />
    <path
       fill="#fcea2b"
       d="m 22.2915,46.1851 c -5.8672,-7.6195 -6.7449,-10.6867 -5.3546,-12.0296 1.3903,-1.3429 5.6942,0.7837 7.0371,2.1741"
       id="path6" />
    <path
       fill="#fcea2b"
       d="m 26.8047,14.5086 c 0,-1.933 1.567,-3.5 3.5,-3.5 1.933,0 3.5,1.567 3.5,3.5"
       id="path7" />
    <line
       x1="23.843901"
       x2="21.8859"
       y1="36.455299"
       y2="34.241501"
       fill="none"
       id="line7" />
    <path
       fill="#fcea2b"
       d="m 18.6186,41.4242 c 1.9526,2.1439 3.3734,5.1677 3.3013,9.5218"
       id="path8" />
    <line
       x1="16.850901"
       x2="18.6723"
       y1="39.1045"
       y2="41.484699"
       fill="none"
       id="line8" />
    <polygon
       fill="#fcea2b"
       points="26.8523,14.1742 33.8047,14.1742 33.9148,41.9242 26.8523,39.9566 "
       id="polygon8" />
    <rect
       x="33.914799"
       y="36.8438"
       width="20.9214"
       height="12.2262"
       fill="#fcea2b"
       id="rect8" />
    <polygon
       fill="#fcea2b"
       points="24.6582,35.8843 26.8224,38.814 26.8047,40.0649 24.1492,39.0701 "
       id="polygon9" />
  </g>
  <g
     id="line"
     transform="translate(-14.859466,-2.0598)">
    <path
       fill="none"
       stroke="#000000"
       stroke-linecap="round"
       stroke-linejoin="round"
       stroke-width="2"
       d="m 33.79,23.7098 c 4.13,-1.45 7.09,-5.39 7.09,-10.02 0,-5.87 -4.75,-10.63 -10.62,-10.63 -5.87,0 -10.62,4.76 -10.62,10.63 0,4.65 2.99,8.6 7.15,10.04"
       id="path9" />
    <path
       fill="none"
       stroke="#000000"
       stroke-linecap="round"
       stroke-linejoin="round"
       stroke-width="2"
       d="m 54.8163,50.7743 c 0,9.0883 -7.3675,16.4558 -16.4558,16.4558 -9.0883,0 -16.4558,-7.3675 -16.4558,-16.4558"
       id="path10" />
    <line
       x1="54.816299"
       x2="54.816299"
       y1="49.900799"
       y2="37.900799"
       fill="none"
       stroke="#000000"
       stroke-linecap="round"
       stroke-linejoin="round"
       stroke-width="2"
       id="line10" />
    <path
       fill="none"
       stroke="#000000"
       stroke-linecap="round"
       stroke-linejoin="round"
       stroke-width="2"
       d="m 47.824,37.6074 c 0.081,-1.9313 1.7123,-3.4313 3.6436,-3.3502 1.9313,0.0811 3.4313,1.7123 3.3502,3.6436"
       id="path11" />
    <path
       fill="none"
       stroke="#000000"
       stroke-linecap="round"
       stroke-linejoin="round"
       stroke-width="2"
       d="m 40.827,37.3745 c 0.081,-1.9313 1.7123,-3.4313 3.6436,-3.3502 1.9313,0.0811 3.4313,1.7123 3.3502,3.6436"
       id="path12" />
    <path
       fill="none"
       stroke="#000000"
       stroke-linecap="round"
       stroke-linejoin="round"
       stroke-width="2"
       d="m 40.8311,37.2406 c 0.155,-1.9268 1.8426,-3.3631 3.7694,-3.2081 1.9268,0.155 3.3631,1.8426 3.2081,3.7694"
       id="path13" />
    <path
       fill="none"
       stroke="#000000"
       stroke-linecap="round"
       stroke-linejoin="round"
       stroke-width="2"
       d="m 33.7895,36.8962 c 0.1237,-1.929 1.7878,-3.3925 3.7168,-3.2688 1.929,0.1237 3.3925,1.7878 3.2688,3.7168"
       id="path14" />
    <path
       fill="none"
       stroke="#000000"
       stroke-linecap="round"
       stroke-linejoin="round"
       stroke-width="2"
       d="m 16.8357,39.1198 c -1.3429,-1.3904 -1.3044,-3.6061 0.086,-4.949 1.3904,-1.3429 3.6061,-1.3044 4.949,0.086"
       id="path15" />
    <path
       fill="none"
       stroke="#000000"
       stroke-linecap="round"
       stroke-linejoin="round"
       stroke-width="2"
       d="m 26.7895,14.5239 c 0,-1.933 1.567,-3.5 3.5,-3.5 1.933,0 3.5,1.567 3.5,3.5"
       id="path16" />
    <line
       x1="33.789501"
       x2="33.789501"
       y1="36.8591"
       y2="14.5239"
       fill="none"
       stroke="#000000"
       stroke-linecap="round"
       stroke-linejoin="round"
       stroke-width="2"
       id="line16" />
    <line
       x1="26.789499"
       x2="26.789499"
       y1="14.5239"
       y2="42.314499"
       fill="none"
       stroke="#000000"
       stroke-linecap="round"
       stroke-linejoin="round"
       stroke-width="2"
       id="line17" />
    <line
       x1="23.8286"
       x2="21.8706"
       y1="36.470501"
       y2="34.256802"
       fill="none"
       stroke="#000000"
       stroke-linecap="round"
       stroke-linejoin="round"
       stroke-width="2"
       id="line18" />
    <path
       fill="none"
       stroke="#000000"
       stroke-linecap="round"
       stroke-linejoin="round"
       stroke-width="2"
       d="m 18.6034,41.4395 c 1.9526,2.1439 3.3734,5.1677 3.3013,9.5218"
       id="path18" />
    <line
       x1="16.835699"
       x2="18.657101"
       y1="39.119801"
       y2="41.5"
       fill="none"
       stroke="#000000"
       stroke-linecap="round"
       stroke-linejoin="round"
       stroke-width="2"
       id="line19" />
    <path
       fill="none"
       stroke="#000000"
       stroke-linecap="round"
       stroke-linejoin="round"
       stroke-width="2"
       d="m 54.8315,50.7591 c 0,9.0883 -7.3675,16.4558 -16.4558,16.4558 -9.0883,0 -16.4557,-7.3675 -16.4557,-16.4558"
       id="path19" />
  </g>
</svg>
