<?xml version="1.0" encoding="UTF-8" standalone="no"?>
<svg
   id="emoji"
   viewBox="0 0 41.626045 61.552219"
   version="1.1"
   sodipodi:docname="e102.svg"
   width="41.626045"
   height="61.552219"
   xmlns:inkscape="http://www.inkscape.org/namespaces/inkscape"
   xmlns:sodipodi="http://sodipodi.sourceforge.net/DTD/sodipodi-0.dtd"
   xmlns="http://www.w3.org/2000/svg"
   xmlns:svg="http://www.w3.org/2000/svg">
  <defs
     id="defs7" />
  <sodipodi:namedview
     id="namedview7"
     pagecolor="#ffffff"
     bordercolor="#000000"
     borderopacity="0.25"
     inkscape:showpageshadow="2"
     inkscape:pageopacity="0.0"
     inkscape:pagecheckerboard="0"
     inkscape:deskcolor="#d1d1d1" />
  <g
     id="color"
     transform="translate(-15.3804,-6.632)">
    <circle
       cx="27.338699"
       cy="18.2325"
       r="6.3704"
       fill="#ffffff"
       id="circle1" />
    <circle
       cx="35.030102"
       cy="15.1712"
       r="6.3704"
       fill="#ffffff"
       id="circle2" />
    <circle
       cx="41.8797"
       cy="18.882999"
       r="6.3704"
       fill="#ffffff"
       id="circle3" />
    <path
       fill="#fcea2b"
       d="m 30.6145,20.7375 c 0.284,-1.9293 -1.0499,-3.7236 -2.9792,-4.0075 -1.9293,-0.2839 -3.7236,1.0498 -4.0075,2.9792 -0.0455,0.3093 -0.0498,0.6232 -0.0126,0.9336 l -0.2572,18.9982 0.0217,4.3248 0.0058,-4.9988 c 0.284,-1.9293 -0.8798,-3.7236 -2.8091,-4.0075 -1.9293,-0.284 -3.7236,1.0498 -4.0075,2.9792 -0.0455,0.3093 -0.0498,0.6232 -0.0126,0.9336 l -0.1759,4.9988 0.0526,10.0853 c 0.4248,8.3102 7.7518,13.6293 16.06,13.2046 4.7918,-0.2654 9.32,-2.2781 12.7278,-5.6571 2.9178,-3.0904 10.0855,-11.5349 10.0855,-11.5349 1.4629,-2.1582 0.3282,-5.4939 -0.8007,-4.6726 L 44.63,49.9473 44.5911,44.5477 44.63,49.9473 44.5911,44.5477 44.6306,22.6972 c 0.284,-1.9293 -1.0499,-3.7236 -2.9792,-4.0075 -1.9293,-0.2839 -3.7236,1.0498 -4.0075,2.9792 -0.0455,0.3093 -0.0498,0.6232 -0.0126,0.9336 l -0.0947,6.9994 -0.1861,10.6365 0.3671,-22.1928 c 0.284,-1.9293 -1.0499,-3.7236 -2.9792,-4.0075 -1.9293,-0.2839 -3.7236,1.0498 -4.0075,2.9792 -0.0455,0.3093 -0.0498,0.6232 -0.0126,0.9336 l -0.2064,24.016"
       id="path3" />
  </g>
  <g
     id="line"
     transform="translate(-15.3804,-6.632)">
    <path
       fill="none"
       stroke="#000000"
       stroke-linecap="round"
       stroke-linejoin="round"
       stroke-width="2"
       d="m 23.3996,24.9763 c -2.1796,-1.368 -3.6285,-3.7928 -3.6285,-6.556 0,-4.2718 3.463,-7.7349 7.7349,-7.7349 2.6282,0 4.9502,1.3108 6.348,3.3143"
       id="path4" />
    <path
       fill="none"
       stroke="#000000"
       stroke-linecap="round"
       stroke-linejoin="round"
       stroke-width="2"
       d="m 27.3572,16.5639 c -0.0606,-0.3901 -0.0921,-0.7899 -0.0921,-1.197 0,-4.2718 3.463,-7.7349 7.7349,-7.7349 4.2719,0 7.7349,3.463 7.7349,7.7349 0,1.1363 -0.245,2.2153 -0.6851,3.1872"
       id="path5" />
    <path
       fill="none"
       stroke="#000000"
       stroke-linecap="round"
       stroke-linejoin="round"
       stroke-width="2"
       d="m 35.8989,13.9997 c 1.418,-1.6288 3.5068,-2.6583 5.836,-2.6583 4.2718,0 7.7349,3.463 7.7349,7.7349 0,3.0563 -1.7726,5.6986 -4.3459,6.9548"
       id="path6" />
    <path
       fill="none"
       stroke="#000000"
       stroke-linecap="round"
       stroke-linejoin="round"
       stroke-width="2"
       d="m 30.6145,20.7375 c 0.284,-1.9293 -1.0499,-3.7236 -2.9792,-4.0075 -1.9293,-0.2839 -3.7236,1.0498 -4.0075,2.9792 -0.0455,0.3093 -0.0498,0.6232 -0.0126,0.9336 L 23.358,39.641 23.3628,40.5923 23.3572,38.967 c 0.284,-1.9293 -0.8514,-3.7236 -2.7808,-4.0075 -1.9293,-0.284 -3.7236,1.0498 -4.0075,2.9792 C 16.5234,38.248 16.5191,39.6896 16.5563,40 l -0.1759,3.8711 0.0526,10.0853 c 0.4248,8.3102 7.7518,13.6293 16.06,13.2046 4.7918,-0.2654 9.32,-2.2781 12.7278,-5.6571 2.9178,-3.0904 10.0855,-11.5349 10.0855,-11.5349 1.4629,-2.1582 0.3282,-5.4939 -0.8007,-4.6726 L 44.63,49.9473 44.5911,44.5477 44.63,49.9473 44.5911,44.5477 44.6306,22.6972 c 0.284,-1.9293 -1.0499,-3.7236 -2.9792,-4.0075 -1.9293,-0.2839 -3.7236,1.0498 -4.0075,2.9792 -0.0455,0.3093 -0.0498,0.6232 -0.0126,0.9336 l -0.0947,6.9994 -0.1861,10.6365 0.3671,-22.1928 c 0.284,-1.9293 -1.0499,-3.7236 -2.9792,-4.0075 -1.9293,-0.2839 -3.7236,1.0498 -4.0075,2.9792 -0.0455,0.3093 -0.0498,0.6232 -0.0126,0.9336 l -0.1758,20.4538"
       id="path7" />
  </g>
</svg>
