<svg xmlns="http://www.w3.org/2000/svg" xmlns:svg="http://www.w3.org/2000/svg" id="emoji" width="47" height="47" version="1.1" viewBox="0 0 47 47"><g id="color" transform="translate(-10,-15.0208)"><rect id="rect1" width="9.406" height="9.831" x="32.208" y="30.16" fill="#fff"/><rect id="rect2" width="24.698" height="24.698" x="11" y="36.323" fill="#9b9b9a"/></g><g id="line" transform="translate(-10,-15.0208)"><polyline id="polyline2" fill="none" stroke="#000" stroke-linecap="round" stroke-linejoin="round" stroke-width="2" points="56 38.219 56 40.719 53.5 40.719"/><line id="line2" x1="49.56" x2="35.772" y1="40.719" y2="40.719" fill="none" stroke="#000" stroke-dasharray="0 0 3.94 3.94" stroke-linecap="round" stroke-linejoin="round" stroke-width="2"/><line id="line3" x1="31.302" x2="31.302" y1="34.279" y2="20.491" fill="none" stroke="#000" stroke-dasharray="0 0 3.94 3.94" stroke-linecap="round" stroke-linejoin="round" stroke-width="2"/><polyline id="polyline3" fill="none" stroke="#000" stroke-linecap="round" stroke-linejoin="round" stroke-width="2" points="31.302 18.521 31.302 16.021 33.802 16.021"/><line id="line4" x1="37.742" x2="51.53" y1="16.021" y2="16.021" fill="none" stroke="#000" stroke-dasharray="0 0 3.94 3.94" stroke-linecap="round" stroke-linejoin="round" stroke-width="2"/><polyline id="polyline4" fill="none" stroke="#000" stroke-linecap="round" stroke-linejoin="round" stroke-width="2" points="53.5 16.021 56 16.021 56 18.521"/><line id="line5" x1="56" x2="56" y1="22.46" y2="36.249" fill="none" stroke="#000" stroke-dasharray="0 0 3.94 3.94" stroke-linecap="round" stroke-linejoin="round" stroke-width="2"/><rect id="rect5" width="24.698" height="24.698" x="11" y="36.323" fill="none" stroke="#000" stroke-linecap="round" stroke-linejoin="round" stroke-width="2"/><polyline id="polyline5" fill="none" stroke="#000" stroke-linecap="round" stroke-linejoin="round" stroke-width="2" points="35.601 36.419 42.634 29.387 42.634 36"/><line id="line6" x1="42.634" x2="36.063" y1="29.387" y2="29.387" fill="none" stroke="#000" stroke-linecap="round" stroke-linejoin="round" stroke-width="2"/></g></svg>