<svg xmlns="http://www.w3.org/2000/svg" xmlns:svg="http://www.w3.org/2000/svg" id="emoji" width="25.605" height="60.555" version="1.1" viewBox="0 0 25.605 60.555"><g id="color" transform="translate(-23.2585,-5.6763)"><path id="path1" fill="#d0cfce" d="m 37.2971,16.7728 h -2.472 c -5.8763,0 -10.6842,4.8079 -10.6842,10.6842 v 16.9332 c 0,5.8763 4.8079,10.6842 10.6842,10.6842 h 2.472 c 5.8763,0 10.6842,-4.8079 10.6842,-10.6842 V 27.457 c 0,-5.8763 -4.8079,-10.6842 -10.6842,-10.6842 z"/><path id="path2" fill="#3f3f3f" d="m 36.0611,22.1118 v 0 c -1.1405,0 -2.0737,0.9332 -2.0737,2.0737 v 5.8343 c 0,1.1405 0.9332,2.0737 2.0737,2.0737 v 0 c 1.1405,0 2.0737,-0.9332 2.0737,-2.0737 v -5.8343 c 0,-1.1405 -0.9332,-2.0737 -2.0737,-2.0737 z"/><path id="path3" fill="#9b9b9a" d="m 34.4985,18.0378 c 0.5134,0.1268 1.015,0.2971 1.492,0.5256 2.6947,1.2911 5.0811,3.2229 5.3845,7.4867 0.3881,5.455 -1.6305,15.6686 -2.2795,20.8566 -0.4538,3.6277 -2.248,5.3071 -4.6299,7.2111 -1.2013,0.9603 5.2663,0.8427 7.9297,-0.7139 0.2198,-0.1284 0.425,-0.2475 0.6177,-0.3589 2.4221,-1.4003 3.9265,-3.9684 3.9615,-6.7659 l 0.2561,-20.468 c 0.0131,-1.0431 -0.1564,-2.0869 -0.5666,-3.0461 -0.8781,-2.0531 -3.0066,-5.0079 -7.9848,-5.0095 0,0 -6.7254,-0.3462 -4.1807,0.2824 z"/></g><g id="line" transform="translate(-23.2585,-5.6763)"><path id="path4" fill="none" stroke="#000" stroke-linecap="round" stroke-linejoin="round" stroke-width="2" d="m 38.8294,54.5013 h -5.5367 c -4.9688,0 -9.0342,-4.0654 -9.0342,-9.0342 V 26.38 c 0,-4.9688 4.0654,-9.0342 9.0342,-9.0342 h 5.5367 c 4.9688,0 9.0342,4.0654 9.0342,9.0342 v 19.0871 c 0,4.9688 -4.0654,9.0342 -9.0342,9.0342 z"/><path id="path5" fill="none" stroke="#000" stroke-linecap="round" stroke-linejoin="round" stroke-width="2" d="m 36.1449,32.1553 h -0.1677 c -1.1161,0 -2.0294,-0.9132 -2.0294,-2.0294 v -6.0465 c 0,-1.1161 0.9132,-2.0294 2.0294,-2.0294 h 0.1677 c 1.1161,0 2.0294,0.9132 2.0294,2.0294 v 6.0465 c 0,1.1162 -0.9132,2.0294 -2.0294,2.0294 z"/><line id="line5" x1="41.331" x2="36.116" y1="60.016" y2="65.232" fill="none" stroke="#000" stroke-linecap="round" stroke-linejoin="round" stroke-width="2"/><line id="line6" x1="30.857" x2="36.073" y1="60.016" y2="65.232" fill="none" stroke="#000" stroke-linecap="round" stroke-linejoin="round" stroke-width="2"/><line id="line7" x1="30.857" x2="36.073" y1="11.892" y2="6.676" fill="none" stroke="#000" stroke-linecap="round" stroke-linejoin="round" stroke-width="2"/><line id="line8" x1="41.331" x2="36.116" y1="11.892" y2="6.676" fill="none" stroke="#000" stroke-linecap="round" stroke-linejoin="round" stroke-width="2"/></g></svg>