<?xml version="1.0" encoding="UTF-8" standalone="no"?>
<svg
   id="emoji"
   viewBox="0 0 46.894699 57.681702"
   version="1.1"
   sodipodi:docname="e105.svg"
   width="46.894699"
   height="57.681702"
   xmlns:inkscape="http://www.inkscape.org/namespaces/inkscape"
   xmlns:sodipodi="http://sodipodi.sourceforge.net/DTD/sodipodi-0.dtd"
   xmlns="http://www.w3.org/2000/svg"
   xmlns:svg="http://www.w3.org/2000/svg">
  <defs
     id="defs22" />
  <sodipodi:namedview
     id="namedview22"
     pagecolor="#ffffff"
     bordercolor="#000000"
     borderopacity="0.25"
     inkscape:showpageshadow="2"
     inkscape:pageopacity="0.0"
     inkscape:pagecheckerboard="0"
     inkscape:deskcolor="#d1d1d1" />
  <g
     id="color"
     transform="translate(-10.0363,-8)">
    <circle
       cx="39.882099"
       cy="38.894501"
       r="2.1405001"
       fill="#fcea2b"
       id="circle1" />
    <circle
       cx="46.082699"
       cy="38.894501"
       r="2.1405001"
       fill="#fcea2b"
       id="circle2" />
    <circle
       cx="52.042198"
       cy="39.4505"
       r="2.1405001"
       fill="#fcea2b"
       id="circle3" />
    <circle
       cx="33"
       cy="12"
       r="4"
       fill="#92d3f5"
       id="circle4" />
    <circle
       cx="34"
       cy="19"
       r="3"
       fill="#fcea2b"
       id="circle5" />
    <path
       fill="#fcea2b"
       d="m 33.7797,19.0447 v 0 c 1.3229,0 2.3953,1.4015 2.3953,3.1303 V 38.8697 C 36.175,40.5985 35.1026,42 33.7797,42 v 0 c -1.3229,0 -2.3953,-1.4015 -2.3953,-3.1303 V 22.175 c 0,-1.7288 1.0724,-3.1303 2.3953,-3.1303 z"
       id="path5" />
    <path
       fill="#fcea2b"
       d="m 28.7913,56.6712 2.5261,3.4366 c 0.1487,0.2023 0.3312,0.3765 0.5392,0.5147 l 3.971,2.6383 c 0.2896,0.1924 0.6212,0.3101 0.9658,0.3429 l 5.6192,0.5341 c 0.3288,0.0312 0.6602,-0.0157 0.968,-0.1371 l 5.2341,-2.0645 c 0.3736,-0.1474 0.6985,-0.3989 0.9372,-0.7257 l 3.5647,-4.8799 c 0.2028,-0.2776 0.3369,-0.6007 0.3909,-0.9419 l 0.2547,-1.609 c 0.21,-1.3272 -0.815,-2.5236 -2.1395,-2.4973 l -21.5335,0.4284 c -1.3157,0.0262 -2.2918,1.2472 -2.0456,2.5588 v 0 c 0,0 0.3856,1.6191 0.3856,1.6191 0.0674,0.283 0.1906,0.5491 0.3621,0.7825 z"
       id="path6" />
    <path
       fill="#fcea2b"
       d="m 28.8784,49.1209 c -0.5573,-0.0767 -1.0529,-0.394 -1.3559,-0.868 L 23.0471,41.25 21.8274,39.3135 c -0.4826,-0.7661 -0.3642,-1.7653 0.284,-2.3974 l 0.3018,-0.2943 c 0.4273,-0.4167 1.0241,-0.611 1.6148,-0.5257 l 3.6312,0.5245 c 0.4342,0.0627 0.8338,0.2722 1.1323,0.5937 l 1.6337,1.7593 c 0.2332,0.2511 0.3949,0.56 0.4683,0.8947 l 0.5459,2.4868 c 0.0428,0.1948 0.0549,0.3951 0.036,0.5936 l -0.4241,4.4524 c -0.1035,1.0868 -1.0913,1.8686 -2.1728,1.7198 v 0 z"
       id="path7" />
    <path
       fill="#fcea2b"
       d="m 31.323,40.3402 v 0.1061 c 0,1.0093 -0.8647,1.8276 -1.9314,1.8276 v 0 c -1.0667,0 -1.9314,0.8182 -1.9314,1.8276 v 9.071 c 0,1.0093 0.8647,1.8276 1.9314,1.8276 h 22.7909 c 1.0667,0 1.9314,-0.8182 1.9314,-1.8276 V 40.3403 c 0,-1.0093 -0.8647,-1.8276 -1.9314,-1.8276 H 33.2544 c -1.0667,0 -1.9314,0.8182 -1.9314,1.8276 z"
       id="path8" />
  </g>
  <g
     id="line"
     transform="translate(-10.0363,-8)">
    <path
       stroke="#000000"
       stroke-linecap="round"
       stroke-linejoin="round"
       stroke-width="2"
       d="m 40.5684,11.5949 c 0,0 7.2102,0 14.4203,4.8068"
       id="path9" />
    <path
       stroke="#000000"
       stroke-linecap="round"
       stroke-linejoin="round"
       stroke-width="2"
       d="m 26.1481,11.5949 c 0,0 -7.2102,0 -14.4203,4.8068"
       id="path10" />
    <line
       x1="54.624298"
       x2="55.931"
       y1="10"
       y2="17.238899"
       fill="none"
       stroke="#000000"
       stroke-linecap="round"
       stroke-linejoin="round"
       stroke-width="2"
       id="line10" />
    <line
       x1="48.692101"
       x2="55.931"
       y1="18.5457"
       y2="17.238899"
       fill="none"
       stroke="#000000"
       stroke-linecap="round"
       stroke-linejoin="round"
       stroke-width="2"
       id="line11" />
    <line
       x1="12.343"
       x2="11.0363"
       y1="10"
       y2="17.238899"
       fill="none"
       stroke="#000000"
       stroke-linecap="round"
       stroke-linejoin="round"
       stroke-width="2"
       id="line12" />
    <line
       x1="18.2752"
       x2="11.0363"
       y1="18.5457"
       y2="17.238899"
       fill="none"
       stroke="#000000"
       stroke-linecap="round"
       stroke-linejoin="round"
       stroke-width="2"
       id="line13" />
    <path
       fill="none"
       stroke="#000000"
       stroke-linecap="round"
       stroke-linejoin="round"
       stroke-width="2"
       d="m 55.0207,50.5465 c 0,7.8067 -6.3285,14.1352 -14.1352,14.1352 -7.8067,0 -14.1352,-6.3285 -14.1352,-14.1352"
       id="path13" />
    <line
       x1="55.020699"
       x2="55.020699"
       y1="49.7962"
       y2="39.4884"
       fill="none"
       stroke="#000000"
       stroke-linecap="round"
       stroke-linejoin="round"
       stroke-width="2"
       id="line14" />
    <path
       fill="none"
       stroke="#000000"
       stroke-linecap="round"
       stroke-linejoin="round"
       stroke-width="2"
       d="m 49.0145,39.2364 c 0.0696,-1.659 1.4708,-2.9474 3.1298,-2.8778 1.6589,0.0696 2.9474,1.4708 2.8778,3.1298"
       id="path14" />
    <path
       fill="none"
       stroke="#000000"
       stroke-linecap="round"
       stroke-linejoin="round"
       stroke-width="2"
       d="m 43.0043,39.0363 c 0.0696,-1.6589 1.4708,-2.9474 3.1298,-2.8778 1.6589,0.0696 2.9474,1.4708 2.8778,3.1298"
       id="path15" />
    <path
       fill="none"
       stroke="#000000"
       stroke-linecap="round"
       stroke-linejoin="round"
       stroke-width="2"
       d="m 43.0077,38.9213 c 0.1331,-1.6551 1.5828,-2.8888 3.2378,-2.7557 1.6551,0.1331 2.8888,1.5828 2.7557,3.2378"
       id="path16" />
    <path
       fill="none"
       stroke="#000000"
       stroke-linecap="round"
       stroke-linejoin="round"
       stroke-width="2"
       d="m 36.9591,38.6255 c 0.1063,-1.657 1.5357,-2.9141 3.1927,-2.8079 1.657,0.1063 2.9141,1.5357 2.8079,3.1927"
       id="path17" />
    <path
       fill="none"
       stroke="#000000"
       stroke-linecap="round"
       stroke-linejoin="round"
       stroke-width="2"
       d="m 22.3961,40.5355 c -1.1535,-1.1943 -1.1205,-3.0976 0.0738,-4.2511 1.1943,-1.1535 3.0976,-1.1205 4.2511,0.0738"
       id="path18" />
    <path
       fill="none"
       stroke="#000000"
       stroke-linecap="round"
       stroke-linejoin="round"
       stroke-width="2"
       d="m 30.9463,19.4081 c 0,-1.6604 1.346,-3.0064 3.0064,-3.0064 1.6604,0 3.0064,1.346 3.0064,3.0064"
       id="path19" />
    <line
       x1="36.959099"
       x2="36.959099"
       y1="38.593601"
       y2="19.4081"
       fill="none"
       stroke="#000000"
       stroke-linecap="round"
       stroke-linejoin="round"
       stroke-width="2"
       id="line19" />
    <line
       x1="30.946301"
       x2="30.946301"
       y1="19.4081"
       y2="43.279701"
       fill="none"
       stroke="#000000"
       stroke-linecap="round"
       stroke-linejoin="round"
       stroke-width="2"
       id="line20" />
    <line
       x1="28.403"
       x2="26.7211"
       y1="38.2598"
       y2="36.3582"
       fill="none"
       stroke="#000000"
       stroke-linecap="round"
       stroke-linejoin="round"
       stroke-width="2"
       id="line21" />
    <path
       fill="none"
       stroke="#000000"
       stroke-linecap="round"
       stroke-linejoin="round"
       stroke-width="2"
       d="m 23.9146,42.5281 c 1.6773,1.8416 2.8977,4.4389 2.8358,8.1791"
       id="path21" />
    <line
       x1="22.396099"
       x2="23.960699"
       y1="40.5355"
       y2="42.580002"
       fill="none"
       stroke="#000000"
       stroke-linecap="round"
       stroke-linejoin="round"
       stroke-width="2"
       id="line22" />
    <path
       fill="none"
       stroke="#000000"
       stroke-linecap="round"
       stroke-linejoin="round"
       stroke-width="2"
       d="M 35.5266,13.6182 C 35.8262,13.1514 36,12.596 36,12 36,10.3431 34.6569,9 33,9 c -1.6569,0 -3,1.3431 -3,3 0,0.8284 0.3358,1.5784 0.8787,2.1213"
       id="path22" />
  </g>
</svg>
