<svg xmlns="http://www.w3.org/2000/svg" xmlns:svg="http://www.w3.org/2000/svg" id="emoji" width="46.895" height="57.682" version="1.1" viewBox="0 0 46.895 57.682"><g id="color" transform="translate(-10.0363,-8)"><circle id="circle1" cx="39.882" cy="38.895" r="2.141" fill="#fcea2b"/><circle id="circle2" cx="46.083" cy="38.895" r="2.141" fill="#fcea2b"/><circle id="circle3" cx="52.042" cy="39.45" r="2.141" fill="#fcea2b"/><circle id="circle4" cx="33" cy="12" r="4" fill="#92d3f5"/><circle id="circle5" cx="34" cy="19" r="3" fill="#fcea2b"/><path id="path5" fill="#fcea2b" d="m 33.7797,19.0447 v 0 c 1.3229,0 2.3953,1.4015 2.3953,3.1303 V 38.8697 C 36.175,40.5985 35.1026,42 33.7797,42 v 0 c -1.3229,0 -2.3953,-1.4015 -2.3953,-3.1303 V 22.175 c 0,-1.7288 1.0724,-3.1303 2.3953,-3.1303 z"/><path id="path6" fill="#fcea2b" d="m 28.7913,56.6712 2.5261,3.4366 c 0.1487,0.2023 0.3312,0.3765 0.5392,0.5147 l 3.971,2.6383 c 0.2896,0.1924 0.6212,0.3101 0.9658,0.3429 l 5.6192,0.5341 c 0.3288,0.0312 0.6602,-0.0157 0.968,-0.1371 l 5.2341,-2.0645 c 0.3736,-0.1474 0.6985,-0.3989 0.9372,-0.7257 l 3.5647,-4.8799 c 0.2028,-0.2776 0.3369,-0.6007 0.3909,-0.9419 l 0.2547,-1.609 c 0.21,-1.3272 -0.815,-2.5236 -2.1395,-2.4973 l -21.5335,0.4284 c -1.3157,0.0262 -2.2918,1.2472 -2.0456,2.5588 v 0 c 0,0 0.3856,1.6191 0.3856,1.6191 0.0674,0.283 0.1906,0.5491 0.3621,0.7825 z"/><path id="path7" fill="#fcea2b" d="m 28.8784,49.1209 c -0.5573,-0.0767 -1.0529,-0.394 -1.3559,-0.868 L 23.0471,41.25 21.8274,39.3135 c -0.4826,-0.7661 -0.3642,-1.7653 0.284,-2.3974 l 0.3018,-0.2943 c 0.4273,-0.4167 1.0241,-0.611 1.6148,-0.5257 l 3.6312,0.5245 c 0.4342,0.0627 0.8338,0.2722 1.1323,0.5937 l 1.6337,1.7593 c 0.2332,0.2511 0.3949,0.56 0.4683,0.8947 l 0.5459,2.4868 c 0.0428,0.1948 0.0549,0.3951 0.036,0.5936 l -0.4241,4.4524 c -0.1035,1.0868 -1.0913,1.8686 -2.1728,1.7198 v 0 z"/><path id="path8" fill="#fcea2b" d="m 31.323,40.3402 v 0.1061 c 0,1.0093 -0.8647,1.8276 -1.9314,1.8276 v 0 c -1.0667,0 -1.9314,0.8182 -1.9314,1.8276 v 9.071 c 0,1.0093 0.8647,1.8276 1.9314,1.8276 h 22.7909 c 1.0667,0 1.9314,-0.8182 1.9314,-1.8276 V 40.3403 c 0,-1.0093 -0.8647,-1.8276 -1.9314,-1.8276 H 33.2544 c -1.0667,0 -1.9314,0.8182 -1.9314,1.8276 z"/></g><g id="line" transform="translate(-10.0363,-8)"><path id="path9" stroke="#000" stroke-linecap="round" stroke-linejoin="round" stroke-width="2" d="m 40.5684,11.5949 c 0,0 7.2102,0 14.4203,4.8068"/><path id="path10" stroke="#000" stroke-linecap="round" stroke-linejoin="round" stroke-width="2" d="m 26.1481,11.5949 c 0,0 -7.2102,0 -14.4203,4.8068"/><line id="line10" x1="54.624" x2="55.931" y1="10" y2="17.239" fill="none" stroke="#000" stroke-linecap="round" stroke-linejoin="round" stroke-width="2"/><line id="line11" x1="48.692" x2="55.931" y1="18.546" y2="17.239" fill="none" stroke="#000" stroke-linecap="round" stroke-linejoin="round" stroke-width="2"/><line id="line12" x1="12.343" x2="11.036" y1="10" y2="17.239" fill="none" stroke="#000" stroke-linecap="round" stroke-linejoin="round" stroke-width="2"/><line id="line13" x1="18.275" x2="11.036" y1="18.546" y2="17.239" fill="none" stroke="#000" stroke-linecap="round" stroke-linejoin="round" stroke-width="2"/><path id="path13" fill="none" stroke="#000" stroke-linecap="round" stroke-linejoin="round" stroke-width="2" d="m 55.0207,50.5465 c 0,7.8067 -6.3285,14.1352 -14.1352,14.1352 -7.8067,0 -14.1352,-6.3285 -14.1352,-14.1352"/><line id="line14" x1="55.021" x2="55.021" y1="49.796" y2="39.488" fill="none" stroke="#000" stroke-linecap="round" stroke-linejoin="round" stroke-width="2"/><path id="path14" fill="none" stroke="#000" stroke-linecap="round" stroke-linejoin="round" stroke-width="2" d="m 49.0145,39.2364 c 0.0696,-1.659 1.4708,-2.9474 3.1298,-2.8778 1.6589,0.0696 2.9474,1.4708 2.8778,3.1298"/><path id="path15" fill="none" stroke="#000" stroke-linecap="round" stroke-linejoin="round" stroke-width="2" d="m 43.0043,39.0363 c 0.0696,-1.6589 1.4708,-2.9474 3.1298,-2.8778 1.6589,0.0696 2.9474,1.4708 2.8778,3.1298"/><path id="path16" fill="none" stroke="#000" stroke-linecap="round" stroke-linejoin="round" stroke-width="2" d="m 43.0077,38.9213 c 0.1331,-1.6551 1.5828,-2.8888 3.2378,-2.7557 1.6551,0.1331 2.8888,1.5828 2.7557,3.2378"/><path id="path17" fill="none" stroke="#000" stroke-linecap="round" stroke-linejoin="round" stroke-width="2" d="m 36.9591,38.6255 c 0.1063,-1.657 1.5357,-2.9141 3.1927,-2.8079 1.657,0.1063 2.9141,1.5357 2.8079,3.1927"/><path id="path18" fill="none" stroke="#000" stroke-linecap="round" stroke-linejoin="round" stroke-width="2" d="m 22.3961,40.5355 c -1.1535,-1.1943 -1.1205,-3.0976 0.0738,-4.2511 1.1943,-1.1535 3.0976,-1.1205 4.2511,0.0738"/><path id="path19" fill="none" stroke="#000" stroke-linecap="round" stroke-linejoin="round" stroke-width="2" d="m 30.9463,19.4081 c 0,-1.6604 1.346,-3.0064 3.0064,-3.0064 1.6604,0 3.0064,1.346 3.0064,3.0064"/><line id="line19" x1="36.959" x2="36.959" y1="38.594" y2="19.408" fill="none" stroke="#000" stroke-linecap="round" stroke-linejoin="round" stroke-width="2"/><line id="line20" x1="30.946" x2="30.946" y1="19.408" y2="43.28" fill="none" stroke="#000" stroke-linecap="round" stroke-linejoin="round" stroke-width="2"/><line id="line21" x1="28.403" x2="26.721" y1="38.26" y2="36.358" fill="none" stroke="#000" stroke-linecap="round" stroke-linejoin="round" stroke-width="2"/><path id="path21" fill="none" stroke="#000" stroke-linecap="round" stroke-linejoin="round" stroke-width="2" d="m 23.9146,42.5281 c 1.6773,1.8416 2.8977,4.4389 2.8358,8.1791"/><line id="line22" x1="22.396" x2="23.961" y1="40.535" y2="42.58" fill="none" stroke="#000" stroke-linecap="round" stroke-linejoin="round" stroke-width="2"/><path id="path22" fill="none" stroke="#000" stroke-linecap="round" stroke-linejoin="round" stroke-width="2" d="M 35.5266,13.6182 C 35.8262,13.1514 36,12.596 36,12 36,10.3431 34.6569,9 33,9 c -1.6569,0 -3,1.3431 -3,3 0,0.8284 0.3358,1.5784 0.8787,2.1213"/></g></svg>