<?xml version="1.0" encoding="UTF-8" standalone="no"?>
<svg
   id="emoji"
   viewBox="0 0 54.555401 39.155499"
   version="1.1"
   sodipodi:docname="e106.svg"
   width="54.555401"
   height="39.155499"
   xmlns:inkscape="http://www.inkscape.org/namespaces/inkscape"
   xmlns:sodipodi="http://sodipodi.sourceforge.net/DTD/sodipodi-0.dtd"
   xmlns="http://www.w3.org/2000/svg"
   xmlns:svg="http://www.w3.org/2000/svg">
  <defs
     id="defs8" />
  <sodipodi:namedview
     id="namedview8"
     pagecolor="#ffffff"
     bordercolor="#000000"
     borderopacity="0.25"
     inkscape:showpageshadow="2"
     inkscape:pageopacity="0.0"
     inkscape:pagecheckerboard="0"
     inkscape:deskcolor="#d1d1d1" />
  <g
     id="color"
     transform="translate(-8.8165998,-16.3458)">
    <path
       fill="#d0cfce"
       stroke="none"
       d="m 37.2971,16.7728 h -2.472 c -5.8763,0 -10.6842,4.8079 -10.6842,10.6842 v 16.9332 c 0,5.8763 4.8079,10.6842 10.6842,10.6842 h 2.472 c 5.8763,0 10.6842,-4.8079 10.6842,-10.6842 V 27.457 c 0,-5.8763 -4.8079,-10.6842 -10.6842,-10.6842 z"
       id="path1" />
    <path
       fill="#3f3f3f"
       stroke="none"
       d="m 36.0611,22.1118 v 0 c -1.1405,0 -2.0737,0.9332 -2.0737,2.0737 v 5.8343 c 0,1.1405 0.9332,2.0737 2.0737,2.0737 v 0 c 1.1405,0 2.0737,-0.9332 2.0737,-2.0737 v -5.8343 c 0,-1.1405 -0.9332,-2.0737 -2.0737,-2.0737 z"
       id="path2" />
    <path
       fill="#9b9b9a"
       stroke="none"
       d="m 35.1358,18.1769 c 3.0267,1.2986 5.904,3.1629 6.2392,7.8732 0.3881,5.455 -1.6305,15.6686 -2.2795,20.8566 -0.4538,3.6277 -2.248,5.3071 -4.6299,7.2111 -1.2013,0.9603 5.2663,0.8427 7.9297,-0.7139 2.2852,-1.3355 4.4994,-3.6288 4.5264,-2.9039 l 0.3229,-25.8045 c 0,0 -0.9367,-6.9377 -8.5654,-6.9401 0,10e-5 -7.652,-0.3939 -3.5434,0.4215 z"
       id="path3" />
  </g>
  <g
     id="hair"
     transform="translate(-8.8165998,-16.3458)" />
  <g
     id="skin"
     transform="translate(-8.8165998,-16.3458)" />
  <g
     id="skin-shadow"
     transform="translate(-8.8165998,-16.3458)" />
  <g
     id="line"
     transform="translate(-8.8165998,-16.3458)">
    <path
       fill="none"
       stroke="#000000"
       stroke-linecap="round"
       stroke-linejoin="round"
       stroke-miterlimit="10"
       stroke-width="2"
       d="m 38.8294,54.5013 h -5.5367 c -4.9688,0 -9.0342,-4.0654 -9.0342,-9.0342 V 26.38 c 0,-4.9688 4.0654,-9.0342 9.0342,-9.0342 h 5.5367 c 4.9688,0 9.0342,4.0654 9.0342,9.0342 v 19.0871 c 0,4.9688 -4.0654,9.0342 -9.0342,9.0342 z"
       id="path4" />
    <path
       fill="none"
       stroke="#000000"
       stroke-linecap="round"
       stroke-linejoin="round"
       stroke-miterlimit="10"
       stroke-width="2"
       d="m 36.1449,32.1553 h -0.1677 c -1.1161,0 -2.0294,-0.9132 -2.0294,-2.0294 v -6.0465 c 0,-1.1161 0.9132,-2.0294 2.0294,-2.0294 h 0.1677 c 1.1161,0 2.0294,0.9132 2.0294,2.0294 v 6.0465 c 0,1.1162 -0.9132,2.0294 -2.0294,2.0294 z"
       id="path5" />
    <line
       x1="15.0322"
       x2="9.8165998"
       y1="34.190899"
       y2="28.9753"
       fill="none"
       stroke="#000000"
       stroke-linecap="round"
       stroke-linejoin="round"
       stroke-miterlimit="10"
       stroke-width="2"
       id="line5" />
    <line
       x1="15.0322"
       x2="9.8165998"
       y1="23.717199"
       y2="28.9328"
       fill="none"
       stroke="#000000"
       stroke-linecap="round"
       stroke-linejoin="round"
       stroke-miterlimit="10"
       stroke-width="2"
       id="line6" />
    <line
       x1="57.156399"
       x2="62.372002"
       y1="23.717199"
       y2="28.9328"
       fill="none"
       stroke="#000000"
       stroke-linecap="round"
       stroke-linejoin="round"
       stroke-miterlimit="10"
       stroke-width="2"
       id="line7" />
    <line
       x1="57.156399"
       x2="62.372002"
       y1="34.190899"
       y2="28.9753"
       fill="none"
       stroke="#000000"
       stroke-linecap="round"
       stroke-linejoin="round"
       stroke-miterlimit="10"
       stroke-width="2"
       id="line8" />
  </g>
</svg>
