<svg xmlns="http://www.w3.org/2000/svg" xmlns:svg="http://www.w3.org/2000/svg" id="emoji" width="45.988" height="57.682" version="1.1" viewBox="0 0 45.988 57.682"><g id="color" transform="translate(-10.0363,-8)"><circle id="circle1" cx="33" cy="12" r="4" fill="#92d3f5"/></g><g id="skin" transform="translate(-10.0363,-8)"><path id="path1" fill="#fcea2b" d="M 55,36.6959 H 37 V 20 H 36.8163 C 36.928,19.6858 37,19.3525 37,19 c 0,-1.6569 -1.3431,-3 -3,-3 -1.6569,0 -3,1.3431 -3,3 0,0.3525 0.072,0.6858 0.1837,1 H 31 V 40.354 L 30.7812,39.3571 28.3301,36.7175 23.0909,35.9607 21,38 23.0471,41.25 27,47.4352 v 4.9335 L 26.8151,52.3757 27,53.411 V 55 h 0.2838 L 27.3484,55.3616 28,56 l 2.0676,4.0537 5.7051,3.7324 6.2917,0.9064 6.8249,-2.346 5.0653,-6.1851 L 54.1971,55 H 55 Z"/></g><g id="line" transform="translate(-10.0363,-8)"><path id="path2" stroke="#000" stroke-linecap="round" stroke-linejoin="round" stroke-miterlimit="10" stroke-width="2" d="m 26.1481,11.5949 c 0,0 -7.2102,0 -14.4203,4.8068"/><line id="line2" x1="12.343" x2="11.036" y1="10" y2="17.239" fill="none" stroke="#000" stroke-linecap="round" stroke-linejoin="round" stroke-miterlimit="10" stroke-width="2"/><line id="line3" x1="18.275" x2="11.036" y1="18.546" y2="17.239" fill="none" stroke="#000" stroke-linecap="round" stroke-linejoin="round" stroke-miterlimit="10" stroke-width="2"/><path id="path3" fill="none" stroke="#000" stroke-linecap="round" stroke-linejoin="round" stroke-miterlimit="10" stroke-width="2" d="m 55.0207,50.5465 c 0,7.8067 -6.3285,14.1352 -14.1352,14.1352 -7.8067,0 -14.1352,-6.3285 -14.1352,-14.1352"/><line id="line4" x1="55.021" x2="55.021" y1="49.796" y2="39.488" fill="none" stroke="#000" stroke-linecap="round" stroke-linejoin="round" stroke-miterlimit="10" stroke-width="2"/><path id="path4" fill="none" stroke="#000" stroke-linecap="round" stroke-linejoin="round" stroke-miterlimit="10" stroke-width="2" d="m 49.0145,39.2364 c 0.0696,-1.659 1.4708,-2.9474 3.1298,-2.8778 1.6589,0.0696 2.9474,1.4708 2.8778,3.1298"/><path id="path5" fill="none" stroke="#000" stroke-linecap="round" stroke-linejoin="round" stroke-miterlimit="10" stroke-width="2" d="m 43.0043,39.0363 c 0.0696,-1.6589 1.4708,-2.9474 3.1298,-2.8778 1.6589,0.0696 2.9474,1.4708 2.8778,3.1298"/><path id="path6" fill="none" stroke="#000" stroke-linecap="round" stroke-linejoin="round" stroke-miterlimit="10" stroke-width="2" d="m 43.0077,38.9213 c 0.1331,-1.6551 1.5828,-2.8888 3.2378,-2.7557 1.6551,0.1331 2.8888,1.5828 2.7557,3.2378"/><path id="path7" fill="none" stroke="#000" stroke-linecap="round" stroke-linejoin="round" stroke-miterlimit="10" stroke-width="2" d="m 36.9591,38.6255 c 0.1063,-1.657 1.5357,-2.9141 3.1927,-2.8079 1.657,0.1063 2.9141,1.5357 2.8079,3.1927"/><path id="path8" fill="none" stroke="#000" stroke-linecap="round" stroke-linejoin="round" stroke-miterlimit="10" stroke-width="2" d="m 22.3961,40.5355 c -1.1535,-1.1943 -1.1205,-3.0976 0.0738,-4.2511 1.1943,-1.1535 3.0976,-1.1205 4.2511,0.0738"/><path id="path9" fill="none" stroke="#000" stroke-linecap="round" stroke-linejoin="round" stroke-miterlimit="10" stroke-width="2" d="m 30.9463,19.4081 c 0,-1.6604 1.346,-3.0064 3.0064,-3.0064 1.6604,0 3.0064,1.346 3.0064,3.0064"/><line id="line9" x1="36.959" x2="36.959" y1="38.594" y2="19.408" fill="none" stroke="#000" stroke-linecap="round" stroke-linejoin="round" stroke-miterlimit="10" stroke-width="2"/><line id="line10" x1="30.946" x2="30.946" y1="19.408" y2="43.28" fill="none" stroke="#000" stroke-linecap="round" stroke-linejoin="round" stroke-miterlimit="10" stroke-width="2"/><line id="line11" x1="28.403" x2="26.721" y1="38.26" y2="36.358" fill="none" stroke="#000" stroke-linecap="round" stroke-linejoin="round" stroke-miterlimit="10" stroke-width="2"/><path id="path11" fill="none" stroke="#000" stroke-linecap="round" stroke-linejoin="round" stroke-miterlimit="10" stroke-width="2" d="m 23.9146,42.5281 c 1.6773,1.8416 2.8977,4.4389 2.8358,8.1791"/><line id="line12" x1="22.396" x2="23.961" y1="40.535" y2="42.58" fill="none" stroke="#000" stroke-linecap="round" stroke-linejoin="round" stroke-miterlimit="10" stroke-width="2"/><path id="path12" fill="none" stroke="#000" stroke-linecap="round" stroke-linejoin="round" stroke-miterlimit="10" stroke-width="2" d="M 35.5266,13.6182 C 35.8262,13.1514 36,12.596 36,12 36,10.3431 34.6569,9 33,9 c -1.6569,0 -3,1.3431 -3,3 0,0.8284 0.3358,1.5784 0.8787,2.1213"/></g></svg>