<?xml version="1.0" encoding="UTF-8" standalone="no"?>
<svg
   id="emoji"
   viewBox="0 0 46.875 46.86446"
   version="1.1"
   sodipodi:docname="e10d.svg"
   width="46.875"
   height="46.86446"
   xmlns:inkscape="http://www.inkscape.org/namespaces/inkscape"
   xmlns:sodipodi="http://sodipodi.sourceforge.net/DTD/sodipodi-0.dtd"
   xmlns="http://www.w3.org/2000/svg"
   xmlns:svg="http://www.w3.org/2000/svg">
  <defs
     id="defs3" />
  <sodipodi:namedview
     id="namedview3"
     pagecolor="#ffffff"
     bordercolor="#000000"
     borderopacity="0.25"
     inkscape:showpageshadow="2"
     inkscape:pageopacity="0.0"
     inkscape:pagecheckerboard="0"
     inkscape:deskcolor="#d1d1d1" />
  <g
     id="color"
     transform="translate(-14.125,-11.989741)">
    <rect
       x="35.882198"
       y="20.2791"
       width="16.8225"
       height="16.926399"
       fill="#ffffff"
       id="rect1" />
    <rect
       x="40.854198"
       y="21.275299"
       width="10.8497"
       height="10.8497"
       fill="#9b9b9a"
       id="rect2" />
    <polygon
       fill="#9b9b9a"
       points="15.125,18.1042 15.125,57.8542 54.875,57.8542 54.875,38.0124 50.3127,38.0048 50.0313,38.0043 35,37.9792 35,18.1042 "
       id="polygon2" />
  </g>
  <g
     id="line"
     transform="translate(-14.125,-11.989741)">
    <polygon
       fill="none"
       stroke="#000000"
       stroke-linecap="round"
       stroke-linejoin="round"
       stroke-width="2"
       points="15.125,18.1042 15.125,57.8542 54.875,57.8542 54.875,38.0124 50.3127,38.0048 50.0313,38.0043 35,37.9792 35,18.1042 "
       id="polygon3" />
    <rect
       x="40.854198"
       y="21.275299"
       width="10.8497"
       height="10.8497"
       fill="none"
       stroke="#000000"
       stroke-linecap="round"
       stroke-linejoin="round"
       stroke-width="2"
       id="rect3" />
    <polyline
       fill="none"
       stroke="#000000"
       stroke-linecap="round"
       stroke-linejoin="round"
       stroke-width="2"
       points="46.2791 26.7001 59.4317 13.5475 59.9896 12.9896 59.9896 21"
       id="polyline3" />
    <line
       x1="52"
       x2="60"
       y1="13"
       y2="13"
       fill="none"
       stroke="#000000"
       stroke-linecap="round"
       stroke-linejoin="round"
       stroke-width="2"
       id="line3" />
  </g>
</svg>
