<svg xmlns="http://www.w3.org/2000/svg" xmlns:svg="http://www.w3.org/2000/svg" id="emoji" width="52.17" height="42.4" version="1.1" viewBox="0 0 52.17 42.4"><g id="color" transform="translate(-9.8299999,-14.6)"><path id="path1" fill="#9b9b9a" d="m 45.5,25.1 h -3.75 c 0,-3.18 -2.57,-5.75 -5.75,-5.75 -3.18,0 -5.75,2.57 -5.75,5.75 H 26.5 c 0,-5.25 4.25,-9.5 9.5,-9.5 5.25,0 9.5,4.25 9.5,9.5 z"/><rect id="rect1" width="50.17" height="30.9" x="10.83" y="25.1" fill="#d0cfce"/><polyline id="polyline1" fill="#ea5a47" points="38.919 36.76 43.794 36.76 43.794 43.344 38.919 43.344 38.961 43.302 38.961 48.177 32.378 48.177 32.378 43.301"/><polyline id="polyline2" fill="#ea5a47" points="32.336 43.344 27.544 43.344 27.544 36.76 32.336 36.76 32.378 36.719 32.378 31.927 38.961 31.927 38.961 36.719"/></g><g id="line" transform="translate(-9.8299999,-14.6)"><path id="path2" fill="none" stroke="#000" stroke-linecap="round" stroke-linejoin="round" stroke-miterlimit="10" stroke-width="2" d="m 45.5,25.1 h -3.75 c 0,-3.18 -2.57,-5.75 -5.75,-5.75 -3.18,0 -5.75,2.57 -5.75,5.75 H 26.5 c 0,-5.25 4.25,-9.5 9.5,-9.5 5.25,0 9.5,4.25 9.5,9.5 z"/><path id="path3" fill="none" stroke="#000" stroke-linecap="round" stroke-linejoin="round" stroke-miterlimit="10" stroke-width="2" d="m 30.25,25.1 c 0,-3.18 2.57,-5.75 5.75,-5.75 3.18,0 5.75,2.57 5.75,5.75"/><rect id="rect3" width="50.17" height="30.9" x="10.83" y="25.1" fill="none" stroke="#000" stroke-linecap="round" stroke-linejoin="round" stroke-miterlimit="10" stroke-width="2"/><polyline id="polyline3" fill="none" stroke="#000" stroke-linecap="round" stroke-linejoin="round" stroke-miterlimit="10" stroke-width="2" points="38.919 36.76 43.794 36.76 43.794 43.344 38.919 43.344 38.961 43.302 38.961 48.177 32.378 48.177 32.378 43.301"/><polyline id="polyline4" fill="none" stroke="#000" stroke-linecap="round" stroke-linejoin="round" stroke-miterlimit="10" stroke-width="2" points="32.336 43.344 27.544 43.344 27.544 36.76 32.336 36.76 32.378 36.719 32.378 31.927 38.961 31.927 38.961 36.719"/></g></svg>