<svg xmlns="http://www.w3.org/2000/svg" xmlns:svg="http://www.w3.org/2000/svg" id="emoji" width="62" height="38" version="1.1" viewBox="0 0 62 38"><g id="color" transform="translate(-5,-17)"><rect id="rect1" width="60" height="13" x="6" y="41" fill="#b1cc33" stroke="none"/><polygon id="polygon1" fill="#5c9e31" stroke="none" points="66 54 31 54 42 41 66 41"/><rect id="rect2" width="60" height="23" x="6" y="18" fill="#92d3f5" stroke="none"/><polygon id="polygon2" fill="#61b2e4" stroke="none" points="66 41 42 41 61 18 66 18"/><polygon id="polygon3" fill="#d0cfce" stroke="none" points="44 43 22 43 33 32"/><polygon id="polygon4" fill="#d0cfce" stroke="none" points="60.75 42.25 28.546 43.046 45.046 26.546"/></g><g id="line" transform="translate(-5,-17)"><rect id="rect4" width="60" height="36" x="6" y="18" fill="none" stroke="#000" stroke-linecap="round" stroke-linejoin="round" stroke-miterlimit="10" stroke-width="2"/><polyline id="polyline4" fill="none" stroke="#000" stroke-linecap="round" stroke-linejoin="round" stroke-miterlimit="10" stroke-width="2" points="44 43 22 43 33 32 39.998 38.998"/><polyline id="polyline5" fill="none" stroke="#000" stroke-linecap="round" stroke-linejoin="round" stroke-miterlimit="10" stroke-width="2" points="39.797 33.203 45 28 60 43 43.999 43"/></g></svg>