<?xml version="1.0" encoding="UTF-8" standalone="no"?>
<svg
   id="emoji"
   viewBox="0 0 62 38"
   version="1.1"
   sodipodi:docname="e142.svg"
   width="62"
   height="38"
   xmlns:inkscape="http://www.inkscape.org/namespaces/inkscape"
   xmlns:sodipodi="http://sodipodi.sourceforge.net/DTD/sodipodi-0.dtd"
   xmlns="http://www.w3.org/2000/svg"
   xmlns:svg="http://www.w3.org/2000/svg">
  <defs
     id="defs5" />
  <sodipodi:namedview
     id="namedview5"
     pagecolor="#ffffff"
     bordercolor="#000000"
     borderopacity="0.25"
     inkscape:showpageshadow="2"
     inkscape:pageopacity="0.0"
     inkscape:pagecheckerboard="0"
     inkscape:deskcolor="#d1d1d1" />
  <g
     id="color"
     transform="translate(-5,-17)">
    <rect
       x="6"
       y="41"
       width="60"
       height="13"
       fill="#b1cc33"
       stroke="none"
       id="rect1" />
    <polygon
       fill="#5c9e31"
       stroke="none"
       points="66,54 31,54 42,41 66,41 "
       id="polygon1" />
    <rect
       x="6"
       y="18"
       width="60"
       height="23"
       fill="#92d3f5"
       stroke="none"
       id="rect2" />
    <polygon
       fill="#61b2e4"
       stroke="none"
       points="66,41 42,41 61,18 66,18 "
       id="polygon2" />
    <polygon
       fill="#d0cfce"
       stroke="none"
       points="44,43 22,43 33,32 "
       id="polygon3" />
    <polygon
       fill="#d0cfce"
       stroke="none"
       points="60.75,42.25 28.5464,43.0464 45.0464,26.5464 "
       id="polygon4" />
  </g>
  <g
     id="hair"
     transform="translate(-5,-17)" />
  <g
     id="skin"
     transform="translate(-5,-17)" />
  <g
     id="skin-shadow"
     transform="translate(-5,-17)" />
  <g
     id="line"
     transform="translate(-5,-17)">
    <rect
       x="6"
       y="18"
       width="60"
       height="36"
       fill="none"
       stroke="#000000"
       stroke-linecap="round"
       stroke-linejoin="round"
       stroke-miterlimit="10"
       stroke-width="2"
       id="rect4" />
    <polyline
       fill="none"
       stroke="#000000"
       stroke-linecap="round"
       stroke-linejoin="round"
       stroke-miterlimit="10"
       stroke-width="2"
       points="44,43 22,43 33,32 39.9976,38.9976"
       id="polyline4" />
    <polyline
       fill="none"
       stroke="#000000"
       stroke-linecap="round"
       stroke-linejoin="round"
       stroke-miterlimit="10"
       stroke-width="2"
       points="39.7969,33.2031 45,28 60,43 43.9995,43"
       id="polyline5" />
  </g>
</svg>
