<svg xmlns="http://www.w3.org/2000/svg" xmlns:svg="http://www.w3.org/2000/svg" id="emoji" width="50.914" height="25.68" version="1.1" viewBox="0 0 50.914 25.68"><g id="color" transform="translate(-7.0454199,-26.7141)"><g id="g8"><path id="path1" fill="#fcea2b" d="M 18.92,47.8533 A 0.8,0.8 0 0 1 18.2227,47.448 c -0.2339,-0.4131 -1.3652,-2.5478 -0.6709,-4.01 a 8.51,8.51 0 0 0 0.5682,-2.588 0.8236,0.8236 0 0 1 0.8428,-0.7548 0.8,0.8 0 0 1 0.7548,0.8418 9.9993,9.9993 0 0 1 -0.7207,3.1875 3.93,3.93 0 0 0 0.6182,2.5341 0.8,0.8 0 0 1 -0.6953,1.1944 z"/><path id="path2" fill="#9b9b9a" d="M 7.8524,38.5783 C 7.8363,37.9853 7.8545,36.61 7.8545,36.61 c 0,0 0.3666,-0.05 5.9146,-0.05 0,0 -0.1826,-8.2943 0.1079,-8.6429 0.2905,-0.3486 11.12,-0.3989 12.4344,-0.4068 1.2471,0 17.32,2.883 18.8457,2.9371 1.5257,0.0541 5.0446,0.2086 11.9808,0.4179 -0.0018,0.6317 0.0482,1.2874 0,1.5362 -0.7633,0.0563 -1.5875,0.106 -12.0494,-0.0975 l -17.37,-0.7407 c 0,0 0.1349,2.4285 0.2248,3.6877 a 95.5845,95.5845 0 0 0 15.79,1.3507 c 7.6453,0 10.2976,-0.048 13.4045,0.0988 0.021,0.5693 0.037,1.205 0.001,1.8365 -2.23,0.1553 -9.1074,0.1035 -14.0064,0.0451 -5.6594,-0.0674 -30.2378,-0.0019 -30.9946,0.0333 -0.4817,0.0227 0.131,-0.086 -4.2854,-0.0371 z"/><g id="g4"><path id="path3" fill="none" d="m 15.9489,41.4118 c -0.01,0.0022 7.1537,1.5158 11.6077,-0.2867"/><path id="path4" fill="#9b9b9a" d="m 16.1369,31.4466 c 0.3111,-0.5289 6.4383,-3.1164 11.42,0 0,0 0.0416,8.9476 -0.2341,9.7982 -0.0037,0.0113 -0.0178,0.0136 -0.0294,0.0108 -1.1989,-0.2891 -0.0768,-1.3447 -5.4808,-1.516 -4.8095,0.23 -5.8164,1.0321 -5.8634,1.6722 -0.047,0.6401 -0.1234,-9.4363 0.1877,-9.9652 z"/></g><path id="path5" fill="#d0cfce" d="m 24.1218,30.7728 c 0,0 2.6389,0.6741 2.9278,1.4463 0.0021,0.77 -0.289,7.7559 -0.289,7.7559 a 6.1429,6.1429 0 0 0 -2.7312,-0.8853 z"/><path id="path6" fill="#3f3f3f" d="m 19.1776,28.22 -0.0038,1.5 -1.3492,0.45 c -0.8821,0.2941 -1.7833,0.9323 -1.8888,1.6639 -0.3,0.6563 -0.7022,0.9317 -0.718,1.3089 -0.0158,0.3772 -0.0083,5.1213 -0.0083,5.1213 0,0 -2.8453,-0.02 -3.5959,-0.0423 a 16.9337,16.9337 0 0 1 -3.2663,-0.1446 6.4142,6.4142 0 0 1 0.0094,-0.9859 26.1273,26.1273 0 0 1 3.3023,-0.03 11.593,11.593 0 0 0 2.7509,-0.1457 c 0.215,-0.1912 -0.0658,-8.1635 0.1353,-8.35 0.357,-0.0604 4.6324,-0.3456 4.6324,-0.3456 z"/><path id="path7" fill="none" d="m 24.2419,44.3131 c 0,0 4.1976,1.927 0,4.2585 -1.1832,0.6572 0,1.9311 0,1.9311"/><path id="path8" fill="#fcea2b" d="m 22.9387,51.3482 a 0.7981,0.7981 0 0 1 -0.5864,-0.2558 2.56,2.56 0 0 1 -0.7187,-1.9453 1.6884,1.6884 0 0 1 0.9165,-1.23 c 0.9384,-0.5215 1.4682,-1.0528 1.4541,-1.458 -0.0181,-0.501 -0.8467,-1.1163 -1.4009,-1.3741 a 0.80028651,0.80028651 0 0 1 0.6689,-1.4541 c 0.232,0.1065 2.2666,1.0879 2.3306,2.7657 0.0415,1.0751 -0.7246,2.0576 -2.2759,2.9189 a 0.3477,0.3477 0 0 0 -0.1157,0.0879 1.2307,1.2307 0 0 0 0.314,0.6006 0.8,0.8 0 0 1 -0.5865,1.3437 z"/></g></g><g id="line" transform="translate(-7.0454199,-26.7141)"><path id="path9" fill="none" stroke="#000" stroke-linecap="round" stroke-linejoin="round" stroke-width="1.6" d="m 27.49,31.4541 h 0.07 l 17.53,0.85 c 10.46,0.2 11.28,0.15 12.05,0.1 a 15.2792,15.2792 0 0 0 0,-1.54 c -6.94,-0.21 -10.46,-0.36 -11.98,-0.42 -1.53,-0.05 -17.6,-2.93 -18.85,-2.93 -1.31,0 -12.14,0.05 -12.43,0.4 -0.29,0.35 -0.11,8.65 -0.11,8.65 -5.55,0 -5.92,0.05 -5.92,0.05 0,0 -0.01,1.37 0,1.96 4.42,-0.04 4.35,-0.03 4.83,-0.05 0.16,-0.01 1.37,-0.01 3.23,-0.01"/><path id="path10" fill="none" stroke="#000" stroke-linecap="round" stroke-linejoin="round" stroke-width="1.6" d="m 27.5,38.5141 c 6.39,0.01 13,0.04 15.63,0.07 4.9,0.06 11.78,0.11 14.01,-0.05 0.03,-0.63 0.02,-1.26 0,-1.83 -3.11,-0.15 -5.76,-0.1 -13.41,-0.1 a 87.3409,87.3409 0 0 1 -15.95,-1.63"/><g id="g13"><path id="path11" fill="none" stroke="#000" stroke-miterlimit="10" stroke-width="1.6" d="m 19.6457,41.914 a 18.5816,18.5816 0 0 0 7.9109,-0.7889"/><path id="path12" fill="none" stroke="#000" stroke-miterlimit="10" stroke-width="1.6" d="m 15.9489,41.4118 c -0.0032,7e-4 0.9347,0.128 2.0658,0.3187"/><path id="path13" fill="none" stroke="#000" stroke-miterlimit="10" stroke-width="1.6" d="m 16.1369,31.4466 c 0.3111,-0.5289 6.4383,-3.1164 11.42,0 0,0 0.0416,8.9476 -0.2341,9.7982 -0.0037,0.0113 -0.0178,0.0136 -0.0294,0.0108 -1.1989,-0.2891 -0.0768,-1.3447 -5.4808,-1.516 -4.8095,0.23 -5.8164,1.0321 -5.8634,1.6722 -0.047,0.6401 -0.1234,-9.4363 0.1877,-9.9652 z"/></g><path id="path14" fill="none" d="m 24.1163,31.1324 c 0,0 2.6444,0.3145 2.9333,1.0867 0.0021,0.77 -0.1719,7.5842 -0.1719,7.5842 a 6.3387,6.3387 0 0 0 -2.7614,-0.8818 z"/><path id="path15" fill="none" stroke="#000" stroke-linecap="round" stroke-linejoin="round" stroke-width="1.6" d="m 24.4381,44.1636 c 0,0 4.1976,1.927 0,4.2585 -1.1832,0.6572 0,1.9312 0,1.9312"/><path id="path16" fill="none" d="m 23.7608,52.3945 a 0.7981,0.7981 0 0 1 -0.5864,-0.2559 2.5593,2.5593 0 0 1 -0.7188,-1.9453 1.6885,1.6885 0 0 1 0.9165,-1.23 c 0.9385,-0.5215 1.4683,-1.0527 1.4541,-1.458 -0.0181,-0.501 -0.8467,-1.1162 -1.4009,-1.374 a 0.80030741,0.80030741 0 0 1 0.669,-1.4541 c 0.2319,0.1064 2.2666,1.0879 2.3305,2.7656 0.0415,1.0752 -0.7246,2.0576 -2.2758,2.9189 a 0.3476,0.3476 0 0 0 -0.1158,0.0879 1.23,1.23 0 0 0 0.314,0.6006 0.8,0.8 0 0 1 -0.5864,1.3438 z"/><path id="path17" fill="none" stroke="#000" stroke-linecap="round" stroke-linejoin="round" stroke-width="1.6" d="m 20.3892,40.83 a 9.2588,9.2588 0 0 1 -0.6445,2.887 c -0.5514,1.1608 0.6445,3.2722 0.6445,3.2722"/></g></svg>