<?xml version="1.0" encoding="UTF-8" standalone="no"?>
<svg
   id="emoji"
   viewBox="0 0 28 58"
   version="1.1"
   sodipodi:docname="e149.svg"
   width="28"
   height="58"
   xmlns:inkscape="http://www.inkscape.org/namespaces/inkscape"
   xmlns:sodipodi="http://sodipodi.sourceforge.net/DTD/sodipodi-0.dtd"
   xmlns="http://www.w3.org/2000/svg"
   xmlns:svg="http://www.w3.org/2000/svg">
  <defs
     id="defs20" />
  <sodipodi:namedview
     id="namedview20"
     pagecolor="#ffffff"
     bordercolor="#000000"
     borderopacity="0.25"
     inkscape:showpageshadow="2"
     inkscape:pageopacity="0.0"
     inkscape:pagecheckerboard="0"
     inkscape:deskcolor="#d1d1d1" />
  <g
     id="color"
     transform="translate(-22,-7)">
    <rect
       x="25"
       y="12"
       rx="1"
       width="21"
       height="5"
       fill="#1e50a0"
       id="rect1" />
    <rect
       x="23"
       y="16"
       rx="1"
       width="26"
       height="48"
       fill="#1e50a0"
       id="rect2" />
    <path
       fill="#ffffff"
       fill-rule="evenodd"
       d="M 38,9.6 C 38,8.7163 37.1046,8 36,8 34.8954,8 34,8.7163 34,9.6 V 12 h 4 z"
       clip-rule="evenodd"
       id="path2" />
    <rect
       x="37"
       y="53"
       rx="1.125"
       ry="1.143"
       width="9"
       height="8"
       fill="#3f3f3f"
       fill-opacity="0.502"
       id="rect3" />
    <rect
       x="26"
       y="53"
       rx="1.125"
       ry="1.143"
       width="9"
       height="8"
       fill="#3f3f3f"
       fill-opacity="0.502"
       id="rect4" />
    <rect
       x="37"
       y="43"
       rx="1.125"
       ry="1.143"
       width="9"
       height="8"
       fill="#3f3f3f"
       fill-opacity="0.502"
       id="rect5" />
    <rect
       x="26"
       y="43"
       rx="1.125"
       ry="1.143"
       width="9"
       height="8"
       fill="#3f3f3f"
       fill-opacity="0.502"
       id="rect6" />
    <rect
       x="37"
       y="33"
       rx="1.125"
       ry="1.143"
       width="9"
       height="8"
       fill="#3f3f3f"
       fill-opacity="0.502"
       id="rect7" />
    <rect
       x="26"
       y="33"
       rx="1.125"
       ry="1.143"
       width="9"
       height="8"
       fill="#3f3f3f"
       fill-opacity="0.502"
       id="rect8" />
    <rect
       x="37"
       y="23"
       rx="1.125"
       ry="1.143"
       width="9"
       height="8"
       fill="#ffffff"
       id="rect9" />
    <rect
       x="26"
       y="23"
       rx="1.125"
       ry="1.143"
       width="9"
       height="8"
       fill="#ffffff"
       id="rect10" />
  </g>
  <g
     id="line"
     transform="translate(-22,-7)">
    <rect
       x="26"
       y="18.5"
       rx="1"
       ry="1"
       width="20"
       height="3"
       id="rect11" />
    <path
       fill="none"
       stroke="#000000"
       stroke-linecap="round"
       stroke-linejoin="round"
       stroke-width="2"
       d="m 38,54.01 v 5.986 h 6.986"
       id="path11" />
    <path
       fill="none"
       stroke="#000000"
       stroke-linecap="round"
       stroke-linejoin="round"
       stroke-width="2"
       d="m 27,54.01 v 5.986 h 6.986"
       id="path12" />
    <path
       fill="none"
       stroke="#000000"
       stroke-linecap="round"
       stroke-linejoin="round"
       stroke-width="2"
       d="m 38,44 v 6 h 7"
       id="path13" />
    <path
       fill="none"
       stroke="#000000"
       stroke-linecap="round"
       stroke-linejoin="round"
       stroke-width="2"
       d="m 27,44.01 v 5.986 h 6.986"
       id="path14" />
    <path
       fill="none"
       stroke="#000000"
       stroke-linecap="round"
       stroke-linejoin="round"
       stroke-width="2"
       d="m 38,34.01 v 5.986 h 6.986"
       id="path15" />
    <path
       fill="none"
       stroke="#000000"
       stroke-linecap="round"
       stroke-linejoin="round"
       stroke-width="2"
       d="m 27,34.01 v 5.986 h 6.986"
       id="path16" />
    <path
       fill="none"
       stroke="#000000"
       stroke-linecap="round"
       stroke-linejoin="round"
       stroke-width="2"
       d="m 38,24.01 v 5.986 h 6.986"
       id="path17" />
    <path
       fill="none"
       stroke="#000000"
       stroke-linecap="round"
       stroke-linejoin="round"
       stroke-width="2"
       d="m 27,24.01 v 5.986 h 6.986"
       id="path18" />
    <rect
       x="23"
       y="16"
       rx="1"
       width="26"
       height="48"
       fill="none"
       stroke="#000000"
       stroke-width="2"
       id="rect18" />
    <path
       fill="none"
       stroke="#000000"
       stroke-width="2"
       d="M 34,12 V 9.6 C 34,8.7163 34.8954,8 36,8 c 1.1046,0 2,0.7163 2,1.6 V 12"
       id="path19" />
    <path
       fill="none"
       stroke="#000000"
       stroke-width="2"
       d="m 25,16 v -3 c 0,-0.5523 0.4477,-1 1,-1 h 19 c 0.5523,0 1,0.4477 1,1 v 3"
       id="path20" />
  </g>
</svg>
