<svg xmlns="http://www.w3.org/2000/svg" xmlns:svg="http://www.w3.org/2000/svg" id="emoji" width="44.976" height="57" version="1.1" viewBox="0 0 44.976 57"><g id="line-supplement" transform="translate(-15.280209,-6.0555)"><path id="path1" fill="none" stroke="#000" stroke-linecap="round" stroke-linejoin="round" stroke-width="2" d="m 29.7565,17.5555 1.38,14.5"/><path id="path2" fill="none" stroke="#000" stroke-linecap="round" stroke-linejoin="round" stroke-width="2" d="m 31.4666,41.0555 -0.4314,1 -1.1613,17.5"/></g><g id="color" transform="translate(-15.280209,-6.0555)"><polygon id="polygon2" fill="#fff" points="53.456 19.827 55.006 21.429 49.684 31.66 45.757 30.73 46.635 27.113 48.547 19.672"/><path id="path3" fill="#3f3f3f" stroke="#3f3f3f" stroke-linecap="round" stroke-linejoin="round" stroke-width="2" d="m 55.2566,15.5555 -12.7975,-0.0046 5.7975,3.5046 h 5.5 l 2,2.5 -6.2326,10.6414 0.0915,3.78 9.6411,-15.4214 z"/><path id="path4" fill="#d0cfce" d="m 24.7566,42.0555 -3,19.5 0.5,1 h 24 l 1,-1 -3,-19.5 -1,-1 h -17.5 z"/><path id="path5" fill="#3f3f3f" fill-rule="evenodd" d="m 36.078,61.6183 v -21.5 h 6.5 l 1,1 3,19.5 -1,1 z"/><path id="path6" fill="#9b9b9a" d="m 30.0507,41.5555 -1.2941,19.5 0.2157,1 h 10.3529 l 0.4314,-1 -1.2941,-19.5 -0.4314,-1 h -7.549 c 0,0 -0.4314,1 -0.4314,1 z"/><path id="path7" fill="none" stroke="#3f3f3f" stroke-linejoin="round" stroke-width="2" d="m 39.7566,61.0555 -1.2941,-19.5 -0.4314,-1"/><path id="path8" fill="#d0cfce" fill-rule="evenodd" d="m 44.4343,32.4201 3.0373,-11.8117 c 0.4465,-1.7365 -0.4877,-3.5303 -2.1665,-4.1598 l -8.4526,-3.1697 c -0.394,-0.1478 -0.8114,-0.2234 -1.2322,-0.2234 h -1.9797 c -0.5803,0 -1.1515,0.1439 -1.6625,0.4188 l -5.5523,2.9867 c -0.2947,0.1586 -0.6107,0.2741 -0.9381,0.3432 l -3.1881,0.6725 c -2.3809,0.5022 -3.5405,3.2161 -2.2577,5.2838 l 3.4985,5.6391 c 0.2043,0.3293 0.3527,0.6902 0.439,1.0681 l 0.6539,2.8605 c 0.3647,1.5957 1.7842,2.7273 3.4211,2.7273 h 12.9812 c 1.6015,0 2.9999,-1.0843 3.3987,-2.6354 z"/><path id="path9" fill="#3f3f3f" fill-rule="evenodd" d="m 33.7566,35.0555 v -22 h 3 l 12,4.5 -4.5,17.5 z"/><path id="path10" fill="#9b9b9a" d="m 39.7566,17.5555 -1.8333,17.5 h -7.5371 l -1.6296,-17.5 4.6852,-4.5 h 1.4259 z"/><path id="path11" fill="none" stroke="#3f3f3f" stroke-linecap="round" stroke-linejoin="round" stroke-width="2" d="M 38.1238,34.9912 39.7566,17.5555"/><path id="path12" fill="#9b9b9a" d="m 24.6417,18.239 -1.5178,8.257 -5.5103,-7.4847 c -0.3213,-0.4543 0.0297,-1.0779 0.5848,-1.0388 z"/><rect id="rect12" width="18" height="4" x="25.757" y="36.056" fill="#d0cfce"/><g id="g14"><rect id="rect13" width="8" height="4" x="35.757" y="36.056" fill="#3f3f3f"/><rect id="rect14" width="8" height="4" x="35.757" y="36.056" fill="#3f3f3f"/></g><rect id="rect15" width="5" height="4" x="31.757" y="36.056" fill="#9b9b9a"/><path id="path15" fill="#3f3f3f" d="m 31.7566,7.0555 h 5 l -1,6 h -3 z"/></g><g id="line" transform="translate(-15.280209,-6.0555)"><path id="path16" fill="none" stroke="#000" stroke-linejoin="round" stroke-width="2" d="m 24.7566,41.5555 -3,19.5 0.5,1 h 24 l 1,-1 -3,-19.5 -1,-1 h -17.5 z"/><path id="path17" fill="none" stroke="#000" stroke-linecap="round" stroke-linejoin="round" stroke-width="2" d="m 51.2566,15.5555 h 4 l 4,5 -10.25,17.75 v -6 l 6.4445,-11.3188 -1.6945,-1.9312 h -5.5"/><path id="path18" fill="none" stroke="#000" stroke-linecap="round" stroke-linejoin="round" stroke-width="2" d="m 39.7566,17.5555 -1.3503,14.5"/><path id="path19" fill="none" stroke="#000" stroke-linecap="round" stroke-linejoin="round" stroke-width="2" d="m 38.0311,40.5555 0.4314,1 1.1614,17.5"/><path id="path20" fill="none" stroke="#000" stroke-linejoin="round" stroke-width="2" d="m 31.7566,7.0555 h 5 l -1,6 h -3 z"/><path id="path21" fill="none" stroke="#000" stroke-linecap="round" stroke-linejoin="round" stroke-width="2" d="M 21.3441,17.5555 H 39.7566"/><path id="path22" fill="none" stroke="#000" stroke-linecap="round" stroke-width="2" d="m 25.7454,17.63 -1.2951,7.3566"/><path id="path23" fill="none" stroke="#000" stroke-linecap="round" stroke-width="2" d="m 26.7566,35.3055 v 2.75"/><path id="path24" fill="none" stroke="#000" stroke-linecap="round" stroke-width="2" d="m 42.7566,35.3055 v 4.75"/><path id="path25" fill="none" stroke="#000" stroke-miterlimit="10" stroke-width="2" d="m 16.8806,17.5083 h 4.2763 l 11.5,-4.5 h 3.5 l 11.8569,4.2685 c 0.3629,0.1307 0.5642,0.5186 0.462,0.8906 L 44.0239,35.1145 H 25.1936 L 23.8949,28.8281 16.377,18.4978 c -0.2996,-0.4117 -0.0055,-0.9895 0.5037,-0.9895 z"/></g></svg>