<?xml version="1.0" encoding="UTF-8" standalone="no"?>
<svg
   id="emoji"
   viewBox="0 0 50 50"
   version="1.1"
   sodipodi:docname="e155.svg"
   width="50"
   height="50"
   xmlns:inkscape="http://www.inkscape.org/namespaces/inkscape"
   xmlns:sodipodi="http://sodipodi.sourceforge.net/DTD/sodipodi-0.dtd"
   xmlns="http://www.w3.org/2000/svg"
   xmlns:svg="http://www.w3.org/2000/svg">
  <defs
     id="defs13" />
  <sodipodi:namedview
     id="namedview13"
     pagecolor="#ffffff"
     bordercolor="#000000"
     borderopacity="0.25"
     inkscape:showpageshadow="2"
     inkscape:pageopacity="0.0"
     inkscape:pagecheckerboard="0"
     inkscape:deskcolor="#d1d1d1" />
  <g
     id="color"
     transform="translate(-11,-11)">
    <path
       fill="#ffffff"
       d="M 16.6168,37.555 C 16.837,36.0864 18.0986,35 19.5836,35 h 13.8328 c 1.485,0 2.7466,1.0864 2.9668,2.555 l 2.1,14 C 38.7553,53.3688 37.3505,55 35.5164,55 H 17.4836 c -1.8341,0 -3.2389,-1.6312 -2.9668,-3.445 z"
       id="path1" />
    <path
       fill="#ffffff"
       fill-rule="evenodd"
       d="m 20.7439,35 h -1.1603 c -1.485,0 -2.7466,1.0864 -2.9668,2.555 l -2.1,14 c -0.0512,0.3407 -0.0431,0.6751 0.0159,0.9933 C 13.0333,51.8183 12,50.2798 12,48.5 v -12 c 0,-2.4853 2.0147,-4.5 4.5,-4.5 1.9593,0 3.6262,1.2522 4.2439,3 z"
       clip-rule="evenodd"
       id="path2" />
    <path
       fill="#6a462f"
       fill-rule="evenodd"
       d="m 18,55 h 17 c 1.6569,0 3,-1.3431 3,-3 V 45 H 15 v 7 c 0,1.6569 1.3431,3 3,3 z"
       clip-rule="evenodd"
       id="path3" />
    <path
       fill="#ffffff"
       fill-rule="evenodd"
       d="m 13,12 c -0.5523,0 -1,0.4477 -1,1 V 26 H 43 V 55 H 12 v 4 c 0,0.5523 0.4477,1 1,1 h 46 c 0.5523,0 1,-0.4477 1,-1 V 13 c 0,-0.5523 -0.4477,-1 -1,-1 z"
       clip-rule="evenodd"
       id="path4" />
    <rect
       x="49"
       y="19"
       rx="1"
       width="4"
       height="20"
       fill="#d0cfce"
       id="rect4" />
    <circle
       cx="51.5"
       cy="46.5"
       r="2.5"
       fill="#d22f27"
       stroke="#d0cfce"
       stroke-width="2"
       id="circle4" />
    <rect
       x="17"
       y="29"
       width="19"
       height="6"
       fill="#ffffff"
       id="rect5" />
  </g>
  <g
     id="line"
     transform="translate(-11,-11)">
    <path
       fill="none"
       stroke="#000000"
       stroke-linecap="round"
       stroke-width="2"
       d="m 19.5836,35 c -1.485,0 -2.7466,1.0864 -2.9668,2.555 l -2.1,14 c -0.0512,0.3407 -0.0431,0.6751 0.0159,0.9933 C 13.0333,51.8183 12,50.2798 12,48.5 v -12 C 12,34.0147 14.0147,32 16.5,32"
       id="path5" />
    <path
       fill="#000000"
       d="m 12,26 h -1 c 0,0.5523 0.4477,1 1,1 z m 31,0 h 1 c 0,-0.5523 -0.4477,-1 -1,-1 z m 0,29 v 1 c 0.5523,0 1,-0.4477 1,-1 z m -31,0 v -1 c -0.5523,0 -1,0.4477 -1,1 z m 1,-42 v 0 -2 c -1.1046,0 -2,0.8954 -2,2 z m 0,13 V 13 h -2 v 13 z m -1,1 H 43 V 25 H 12 Z m 30,-1 v 29 h 2 V 26 Z m 1,28 H 12 v 2 h 31 z m -30,5 v -4 h -2 v 4 z m 0,0 v 0 h -2 c 0,1.1046 0.8954,2 2,2 z m 46,0 H 13 v 2 h 46 z m 0,0 v 2 c 1.1046,0 2,-0.8954 2,-2 z m 0,-46 v 46 h 2 V 13 Z m 0,0 h 2 c 0,-1.1046 -0.8954,-2 -2,-2 z M 13,13 H 59 V 11 H 13 Z"
       id="path6" />
    <path
       fill="none"
       stroke="#000000"
       stroke-width="2"
       d="M 12,26 H 42.5"
       id="path7" />
    <path
       fill="none"
       stroke="#000000"
       stroke-width="2"
       d="M 40,26 V 12.5"
       id="path8" />
    <line
       x1="12"
       x2="60"
       y1="55"
       y2="55"
       stroke="#000000"
       stroke-width="2"
       id="line8" />
    <path
       fill="none"
       stroke="#000000"
       stroke-linecap="round"
       stroke-width="2"
       d="M 51.5,49 C 50.1193,49 49,47.8807 49,46.5 49,45.1193 50.1193,44 51.5,44"
       id="path9" />
    <path
       fill="none"
       stroke="#000000"
       stroke-width="2"
       d="M 16.6168,37.555 C 16.837,36.0864 18.0986,35 19.5836,35 h 13.8328 c 1.485,0 2.7466,1.0864 2.9668,2.555 l 2.1,14 C 38.7553,53.3688 37.3505,55 35.5164,55 H 17.4836 c -1.8341,0 -3.2389,-1.6312 -2.9668,-3.445 z"
       id="path10" />
    <rect
       x="17"
       y="29"
       width="19"
       height="6"
       fill="none"
       stroke="#000000"
       stroke-linejoin="round"
       stroke-width="2"
       id="rect10" />
    <line
       x1="50"
       x2="50"
       y1="20"
       y2="38"
       stroke="#000000"
       stroke-linecap="round"
       stroke-width="2"
       id="line10" />
    <path
       fill="none"
       stroke="#000000"
       stroke-linecap="round"
       stroke-width="2"
       d="m 50,20 h 2"
       id="path11" />
    <path
       fill="none"
       stroke="#000000"
       stroke-linecap="round"
       stroke-width="2"
       d="m 50,38 h 2"
       id="path12" />
    <path
       fill="none"
       stroke="#000000"
       stroke-linecap="round"
       stroke-width="2"
       d="m 50,29 h 2"
       id="path13" />
  </g>
</svg>
