<svg xmlns="http://www.w3.org/2000/svg" xmlns:svg="http://www.w3.org/2000/svg" id="emoji" width="45" height="51.015" version="1.1" viewBox="0 0 45 51.015"><g id="color" transform="translate(-11,-9.9854032)"><path id="path1" fill="#fff" d="m 38.8772,53.9048 v -13 h 15.3302 v 9 z"/><path id="path2" fill="#a57939" d="m 40.1565,19.9078 h 12.8551 c 0.6623,0 1.1992,0.5324 1.1992,1.1891 V 41.9456 H 38.761 V 21.2914 c 0,-0.7642 0.6248,-1.3837 1.3954,-1.3837 z"/><path id="path3" fill="#6a462f" fill-rule="evenodd" d="m 38.9818,54.1131 -0.0739,3.3387 c 0,1.1046 0.2372,1.613 1.3418,1.613 h 11.866 c 1.1046,0 1.9452,-0.007 1.9452,-1.1116 l -0.0278,-3.4181 0.0278,-4.0572 -15.0792,3.6352 z"/><path id="path4" fill="#a57939" d="M 22,13.5283 C 22,16.5557 19.7614,22 17,22 c -2.7614,0 -5,-5.4443 -5,-8.4717 0,-3.0274 2.2386,-2.4917 5,-2.4917 2.7614,0 5,-0.5358 5,2.4917 z"/><rect id="rect4" width="5" height="5" x="44" y="14" fill="#d0cfce"/></g><g id="line" transform="translate(-11,-9.9854032)"><path id="path5" fill="none" stroke="#000" stroke-linecap="round" stroke-linejoin="round" stroke-width="2" d="M 41,53.7941 52,51.2059"/><path id="path6" fill="none" stroke="#000" stroke-width="2" d="m 38,21 c 0,-1.1046 0.8954,-2 2,-2 h 13 c 1.1046,0 2,0.8954 2,2 v 37 c 0,1.1046 -0.8954,2 -2,2 H 40 c -1.1046,0 -2,-0.8954 -2,-2 z"/><rect id="rect6" width="5" height="5" x="44" y="14" fill="none" stroke="#000" stroke-linejoin="round" stroke-width="2"/><path id="path7" fill="none" stroke="#000" stroke-linejoin="round" stroke-width="2" d="M 44,16 H 38 L 23,25 H 17 V 22"/><path id="path8" fill="none" stroke="#000" stroke-width="2" d="M 22,13.5283 C 22,16.5557 19.7614,22 17,22 c -2.7614,0 -5,-5.4443 -5,-8.4717 0,-3.0274 2.2386,-2.4917 5,-2.4917 2.7614,0 5,-0.5358 5,2.4917 z"/><line id="line8" x1="39" x2="52" y1="41" y2="41" fill="none" stroke="#000" stroke-linecap="round" stroke-width="2"/></g></svg>