<svg xmlns="http://www.w3.org/2000/svg" xmlns:svg="http://www.w3.org/2000/svg" id="emoji" width="58.76" height="44.36" version="1.1" viewBox="0 0 58.76 44.36"><g id="color" transform="translate(-6.6209998,-12.661)"><rect id="rect1" width="38.749" height="5.782" x="16.237" y="35.385" fill="#fff"/><path id="path1" fill="#fff" d="m 15.23,56.02 h -1.636 c -0.6292,0 -1.139,-0.656 -1.139,-1.465 v -39.53 c 0,-0.8092 0.51,-1.465 1.139,-1.465 h 1.636 c 0.6292,0 1.139,0.656 1.139,1.465 v 39.53 c 0,0.8092 -0.5101,1.465 -1.139,1.465 z"/><path id="path2" fill="#fff" d="m 58.77,56.02 h -1.636 c -0.6292,0 -1.139,-0.656 -1.139,-1.465 v -39.53 c 0,-0.8092 0.51,-1.465 1.139,-1.465 h 1.636 c 0.6292,0 1.139,0.656 1.139,1.465 v 39.53 c 0,0.8092 -0.5101,1.465 -1.139,1.465 z"/><rect id="rect2" width="56.76" height="7.124" x="7.621" y="27.67" fill="#fff"/><rect id="rect3" width="11.35" height="7.124" x="7.621" y="27.67" fill="#ea5a47"/><rect id="rect4" width="11.35" height="7.124" x="18.97" y="27.67" fill="#fff"/><rect id="rect5" width="11.35" height="7.124" x="30.28" y="27.67" fill="#ea5a47"/><rect id="rect6" width="11.35" height="7.124" x="41.63" y="27.67" fill="#fff"/><rect id="rect7" width="11.35" height="7.124" x="52.98" y="27.67" fill="#ea5a47"/><rect id="rect8" width="56.76" height="7.124" x="7.621" y="41.67" fill="#fff"/><rect id="rect9" width="11.35" height="7.124" x="7.621" y="41.67" fill="#ea5a47"/><rect id="rect10" width="11.35" height="7.124" x="18.97" y="41.67" fill="#fff"/><rect id="rect11" width="11.35" height="7.124" x="30.28" y="41.67" fill="#ea5a47"/><rect id="rect12" width="11.35" height="7.124" x="41.63" y="41.67" fill="#fff"/><rect id="rect13" width="11.35" height="7.124" x="52.98" y="41.67" fill="#ea5a47"/></g><g id="line" transform="translate(-6.6209998,-12.661)"><path id="path13" fill="none" stroke="#000" stroke-linecap="round" stroke-linejoin="round" stroke-width="2" d="M 12.06,41.13 V 35.189"/><path id="path14" fill="none" stroke="#000" stroke-linecap="round" stroke-linejoin="round" stroke-width="2" d="m 15.97,48.79 v 6.091 c 0,0.6292 -0.5101,1.139 -1.139,1.139 h -1.636 c -0.6292,0 -1.139,-0.5101 -1.139,-1.139 v -5.682"/><path id="path15" fill="none" stroke="#000" stroke-linecap="round" stroke-linejoin="round" stroke-width="2" d="m 15.97,35.19 v 5.941"/><path id="path16" fill="none" stroke="#000" stroke-linecap="round" stroke-linejoin="round" stroke-width="2" d="M 12.06,27.59 V 14.81 c 0,-0.6292 0.51,-1.139 1.139,-1.139 h 1.636 c 0.6292,0 1.139,0.5101 1.139,1.139 V 27.5"/><path id="path17" fill="none" stroke="#000" stroke-linecap="round" stroke-linejoin="round" stroke-width="2" d="M 56,41.67 V 35.193"/><path id="path18" fill="none" stroke="#000" stroke-linecap="round" stroke-linejoin="round" stroke-width="2" d="m 59.91,49.2 v 5.682 c 0,0.6292 -0.5101,1.139 -1.139,1.139 h -1.636 c -0.6292,0 -1.139,-0.5101 -1.139,-1.139 V 49.2"/><path id="path19" fill="none" stroke="#000" stroke-linecap="round" stroke-linejoin="round" stroke-width="2" d="m 59.91,35.19 v 5.586"/><path id="path20" fill="none" stroke="#000" stroke-linecap="round" stroke-linejoin="round" stroke-width="2" d="M 56,27.38 V 14.8 c 0,-0.6292 0.51,-1.139 1.139,-1.139 h 1.636 c 0.6292,0 1.139,0.5101 1.139,1.139 v 12.49"/><rect id="rect20" width="56.76" height="7.124" x="7.621" y="27.67" fill="none" stroke="#000" stroke-linecap="round" stroke-linejoin="round" stroke-width="2"/><rect id="rect21" width="11.35" height="7.124" x="7.621" y="27.67" fill="none" stroke="#000" stroke-linecap="round" stroke-linejoin="round" stroke-width="2"/><rect id="rect22" width="11.35" height="7.124" x="18.97" y="27.67" fill="none" stroke="#000" stroke-linecap="round" stroke-linejoin="round" stroke-width="2"/><rect id="rect23" width="11.35" height="7.124" x="30.28" y="27.67" fill="none" stroke="#000" stroke-linecap="round" stroke-linejoin="round" stroke-width="2"/><rect id="rect24" width="11.35" height="7.124" x="41.63" y="27.67" fill="none" stroke="#000" stroke-linecap="round" stroke-linejoin="round" stroke-width="2"/><rect id="rect25" width="11.35" height="7.124" x="52.98" y="27.67" fill="none" stroke="#000" stroke-linecap="round" stroke-linejoin="round" stroke-width="2"/><rect id="rect26" width="56.76" height="7.124" x="7.621" y="41.67" fill="none" stroke="#000" stroke-linecap="round" stroke-linejoin="round" stroke-width="2"/><rect id="rect27" width="11.35" height="7.124" x="7.621" y="41.67" fill="none" stroke="#000" stroke-linecap="round" stroke-linejoin="round" stroke-width="2"/><rect id="rect28" width="11.35" height="7.124" x="18.97" y="41.67" fill="none" stroke="#000" stroke-linecap="round" stroke-linejoin="round" stroke-width="2"/><rect id="rect29" width="11.35" height="7.124" x="30.28" y="41.67" fill="none" stroke="#000" stroke-linecap="round" stroke-linejoin="round" stroke-width="2"/><rect id="rect30" width="11.35" height="7.124" x="41.63" y="41.67" fill="none" stroke="#000" stroke-linecap="round" stroke-linejoin="round" stroke-width="2"/><polyline id="polyline30" fill="none" stroke="#000" stroke-linecap="round" stroke-linejoin="round" stroke-width="2" points="59.91 41.67 64.33 41.67 64.33 48.79 52.98 48.79 52.98 41.67 59.91 41.67"/></g></svg>