<?xml version="1.0" encoding="UTF-8" standalone="no"?>
<svg
   id="emoji"
   viewBox="0 0 48.999912 50.099998"
   version="1.1"
   sodipodi:docname="e185.svg"
   width="48.999912"
   height="50.099998"
   xmlns:inkscape="http://www.inkscape.org/namespaces/inkscape"
   xmlns:sodipodi="http://sodipodi.sourceforge.net/DTD/sodipodi-0.dtd"
   xmlns="http://www.w3.org/2000/svg"
   xmlns:svg="http://www.w3.org/2000/svg">
  <defs
     id="defs18" />
  <sodipodi:namedview
     id="namedview18"
     pagecolor="#ffffff"
     bordercolor="#000000"
     borderopacity="0.25"
     inkscape:showpageshadow="2"
     inkscape:pageopacity="0.0"
     inkscape:pagecheckerboard="0"
     inkscape:deskcolor="#d1d1d1" />
  <g
     id="skin"
     transform="translate(-13,-11)">
    <path
       fill="#fcea2b"
       d="m 32.6,44 c 6.0751,0 11,-6.268 11,-14 0,-7.732 -4.9249,-14 -11,-14 -6.0751,0 -11,6.268 -11,14 0,7.732 4.9249,14 11,14 z"
       id="path1" />
  </g>
  <g
     id="hair"
     transform="translate(-13,-11)">
    <path
       fill="#6a462f"
       d="m 33,21 c -5.6,0 -9.3333,2.6667 -10.5,4 0.8333,-2.8333 4.2,-8.5 11,-8.5 6.8,0 9.1667,5 9.5,7.5 -1,-1 -4.4,-3 -10,-3 z"
       id="path2" />
    <ellipse
       cx="33"
       cy="14.5"
       rx="4"
       ry="2.5"
       fill="#6a462f"
       id="ellipse2" />
  </g>
  <g
     id="color"
     transform="translate(-13,-11)">
    <path
       fill="#3f3f3f"
       d="m 14,59.1 v -4 c 0,-5 5,-9 10,-9 6,5 12,5 18,0 5,0 10,4 10,9 v 4"
       id="path3" />
    <path
       fill="#6a462f"
       fill-rule="evenodd"
       d="M 23.0477,46.1477 C 22.0024,46.2519 20.9711,46.524 20,46.9361 V 59.1 H 46 V 46.9361 C 45.1742,46.5856 44.3047,46.3364 43.4202,46.2056 L 42.5,46.6 42,54.1 H 24 l -0.5,-7.5 z"
       id="path4" />
    <path
       fill="#ffffff"
       d="m 41,57.1 h 20 l -2,3 H 43 Z"
       id="path5" />
    <g
       id="g7">
      <path
         fill="#ffffff"
         fill-rule="evenodd"
         d="m 51,58.1 c 3.3137,0 6,-4.4772 6,-10 H 45 c 0,5.5228 2.6863,10 6,10 z"
         id="path6" />
      <path
         fill="#ffffff"
         d="m 57,48.1 h 1 c 0,-0.5523 -0.4477,-1 -1,-1 z m -12,0 v -1 c -0.5523,0 -1,0.4477 -1,1 z m 11,0 c 0,2.6113 -0.6371,4.927 -1.6149,6.5565 C 53.3955,56.306 52.1676,57.1 51,57.1 v 2 c 2.1461,0 3.9182,-1.4446 5.1001,-3.4145 C 57.294,53.6958 58,51.0115 58,48.1 Z m -11,1 h 12 v -2 H 45 Z m 6,8 c -1.1676,0 -2.3955,-0.794 -3.3851,-2.4435 C 46.6371,53.027 46,50.7113 46,48.1 h -2 c 0,2.9115 0.706,5.5958 1.8999,7.5855 C 47.0818,57.6554 48.8539,59.1 51,59.1 Z"
         id="path7" />
    </g>
  </g>
  <g
     id="line"
     transform="translate(-13,-11)">
    <path
       fill="none"
       stroke="#000000"
       stroke-linejoin="round"
       stroke-width="2"
       d="m 32.9683,16.3 c -6.0635,0 -11,5 -11,14 0,6.6462 3.3964,14.1 11,14.1 7.5559,0 11.0635,-7.483 11.0635,-14.1 0,-9 -5.127,-14 -11.0635,-14 z"
       id="path8" />
    <path
       d="m 39,28.9 c 0,1.1 -0.9,2 -2,2 -1.1,0 -2,-0.9 -2,-2 0,-1.1 0.9,-2 2,-2 1.1,0 2,0.9 2,2 z"
       id="path9" />
    <path
       d="m 31,28.9 c 0,1.1 -0.9,2 -2,2 -1.1,0 -2,-0.9 -2,-2 0,-1.1 0.9,-2 2,-2 1.1,0 2,0.9 2,2 z"
       id="path10" />
    <path
       fill="none"
       stroke="#000000"
       stroke-linecap="round"
       stroke-linejoin="round"
       stroke-width="2"
       d="m 30,37.1 c 1.9,1 4.1,1 6,0"
       id="path11" />
    <path
       fill="none"
       stroke="#000000"
       stroke-width="2"
       d="M 30.5,16.4517 C 29.5855,15.9935 29,15.2895 29,14.5 29,13.1193 30.7909,12 33,12 c 2.2091,0 4,1.1193 4,2.5 0,0.7895 -0.5855,1.4935 -1.5,1.9517"
       id="path12" />
    <path
       fill="none"
       stroke="#000000"
       stroke-linecap="round"
       stroke-linejoin="round"
       stroke-width="2"
       d="M 22,29.5 C 22,22 29,19 33,21.5 37,19 44,22 44,29.5"
       id="path13" />
    <g
       id="g18">
      <path
         fill="none"
         stroke="#000000"
         stroke-linecap="round"
         stroke-linejoin="round"
         stroke-width="2"
         d="m 14,58 v -3 c 0,-5 5,-9 10,-9 6,5 12,5 18,0 0.5017,0 1.0034,0.0403 1.5,0.1178"
         id="path14" />
      <path
         fill="none"
         stroke="#000000"
         stroke-linejoin="round"
         stroke-width="2"
         d="m 23.5,46.6 0.5,7.5 h 18 l 0.5,-7.5"
         id="path15" />
      <path
         fill="none"
         stroke="#000000"
         stroke-linecap="round"
         stroke-width="2"
         d="m 20,47.1 v 11"
         id="path16" />
      <path
         fill="none"
         stroke="#000000"
         stroke-linecap="round"
         stroke-linejoin="round"
         stroke-width="2"
         d="M 46.1996,54.1 C 45.4463,52.4287 45,50.3512 45,48.1 h 12 c 0,2.2512 -0.4463,4.3287 -1.1996,6"
         id="path17" />
      <path
         fill="none"
         stroke="#000000"
         stroke-linejoin="round"
         stroke-width="2"
         d="m 41,57.1 h 20 l -2,3 H 43 Z"
         id="path18" />
    </g>
  </g>
</svg>
