<svg xmlns="http://www.w3.org/2000/svg" xmlns:svg="http://www.w3.org/2000/svg" id="emoji" width="49" height="53.1" version="1.1" viewBox="0 0 49 53.1"><g id="skin" transform="translate(-13,-8.0000636)"><ellipse id="ellipse1" cx="33" cy="29.5" fill="#fcea2b" rx="12" ry="14.5"/></g><g id="hair" transform="translate(-13,-8.0000636)"><path id="path1" fill="#6a462f" d="m 42.8,15.1 c 3,5.8 1.3,11.9 1.3,11.9 0,-0.1 0,-0.2 0,-0.4 -1.8,-7.2 -3.8,-8.6 -5,-8.7 v -0.4 c 1,-0.5 2.4,-1.4 3.5,-2.6 z"/><path id="path2" fill="#6a462f" d="m 43.9,9.7 c 0.8,2.2 0.1,3.9 -1.2,5.3 -1.1,1.2 -2.5,2 -3.5,2.5 C 38.5,17.9 38,18 38,18 c -5.8,2.2 -6.1,1.9 -10.6,0 0,0 -3.4,-2.5 -6.2,8.6 0,0.1 0,0.2 0,0.4 0,0 -2.2,-6.8 2,-13.2 3.2,-4.9 12.9,-2.4 12.9,-2.4 l 3.1,-2.4 1.1,3.1 z"/></g><g id="color" transform="translate(-13,-8.0000636)"><path id="path3" fill="#3f3f3f" d="m 14,59.1 v -4 c 0,-5 5,-9 10,-9 6,5 12,5 18,0 5,0 10,4 10,9 v 4"/><path id="path4" fill="#6a462f" fill-rule="evenodd" d="M 23.0477,46.1477 C 22.0024,46.2519 20.9711,46.524 20,46.9361 V 59.1 H 46 V 46.9361 C 45.1742,46.5856 44.3047,46.3364 43.4202,46.2056 L 42.5,46.6 42,54.1 H 24 l -0.5,-7.5 z" clip-rule="evenodd"/><path id="path5" fill="#fff" d="m 41,57.1 h 20 l -2,3 H 43 Z"/><g id="g7"><path id="path6" fill="#fff" fill-rule="evenodd" d="m 51,58.1 c 3.3137,0 6,-4.4772 6,-10 H 45 c 0,5.5228 2.6863,10 6,10 z" clip-rule="evenodd"/><path id="path7" fill="#fff" d="m 57,48.1 h 1 c 0,-0.5523 -0.4477,-1 -1,-1 z m -12,0 v -1 c -0.5523,0 -1,0.4477 -1,1 z m 11,0 c 0,2.6113 -0.6371,4.927 -1.6149,6.5565 C 53.3955,56.306 52.1676,57.1 51,57.1 v 2 c 2.1461,0 3.9182,-1.4446 5.1001,-3.4145 C 57.294,53.6958 58,51.0115 58,48.1 Z m -11,1 h 12 v -2 H 45 Z m 6,8 c -1.1676,0 -2.3955,-0.794 -3.3851,-2.4435 C 46.6371,53.027 46,50.7113 46,48.1 h -2 c 0,2.9115 0.706,5.5958 1.8999,7.5855 C 47.0818,57.6554 48.8539,59.1 51,59.1 Z"/></g></g><g id="line" transform="translate(-13,-8.0000636)"><path id="path8" fill="#000" d="m 37,24.7 c 1.1,0 2,0.9 2,2 0,1.1 -0.9,2 -2,2 -1.1,0 -2,-0.9 -2,-2 0,-1.1 0.9,-2 2,-2 z"/><path id="path9" fill="#000" d="m 36.9,34.5 c 0.2,0.5 0,1.1 -0.5,1.3 -1.1,0.6 -2.3,0.8 -3.5,0.8 -1.2,0 -2.3,-0.3 -3.4,-0.8 C 29,35.6 28.8,35 29,34.5 c 0.2,-0.5 0.8,-0.7 1.3,-0.4 1.7,0.9 3.4,0.9 5.1,0 0.6,-0.3 1.2,-0.1 1.5,0.4 z"/><path id="path10" fill="none" stroke="#000" stroke-linecap="round" stroke-linejoin="round" stroke-width="1.6" d="m 33,32 c 0,0 1.2,-2 3.6,0 0.3721,0.3786 0.8609,0.6208 1.3875,0.6875"/><path id="path11" fill="none" stroke="#000" stroke-linecap="round" stroke-linejoin="round" stroke-width="1.6" d="m 32.9875,32 c 0,0 -1.2,-2 -3.6,0 -0.3721,0.3786 -0.8609,0.6208 -1.3875,0.6875"/><path id="path12" fill="#000" d="m 29,24.7 c 1.1,0 2,0.9 2,2 0,1.1 -0.9,2 -2,2 -1.1,0 -2,-0.9 -2,-2 0,-1.1 0.9,-2 2,-2 z"/><path id="path13" fill="none" stroke="#000" stroke-linecap="round" stroke-linejoin="round" stroke-miterlimit="10" stroke-width="2" d="m 21.3,27 c 0,0.4 0,1.4 -0.1,2.4 -0.2,3.1 0.4,6.2 1.9,8.9 0.6,1 1.3,2 2.1,2.7 2.8,2.4 5.6,2.5 7.4,2.5"/><path id="path14" fill="none" stroke="#000" stroke-linecap="round" stroke-linejoin="round" stroke-miterlimit="10" stroke-width="2" d="m 44.2,27 c 0,0.4 0.1,1.4 0.1,2.4 0.2,3.1 -0.4,6.2 -1.9,8.9 -0.6,1 -1.2,2 -2.1,2.7 -2.8,2.4 -5.5,2.5 -7.4,2.5 -0.1,0 -0.2,0 -0.3,0"/><path id="path15" fill="none" stroke="#000" stroke-linecap="round" stroke-linejoin="round" stroke-miterlimit="10" stroke-width="2" d="m 21.3,27 c 0,0 -2.2,-6.8 2,-13.2 3.2,-4.9 12.9,-2.4 12.9,-2.4 l 3.1,-2.4 1.1,3.1 3.4,-2.5 c 0.8,2.2 0.1,3.9 -1.2,5.3 -1.1,1.2 -2.5,2 -3.5,2.5 -0.7,0.4 -1.2,0.5 -1.2,0.5 -5.8,2.2 -6.1,1.9 -10.6,0 0,0 -3.4,-2.5 -6.2,8.6"/><path id="path16" fill="none" stroke="#000" stroke-linecap="round" stroke-linejoin="round" stroke-miterlimit="10" stroke-width="2" d="m 39,17.9 c 0.1,0 0.1,0 0.2,0 1.2,0.1 3.2,1.5 5,8.7"/><path id="path17" fill="none" stroke="#000" stroke-linecap="round" stroke-linejoin="round" stroke-miterlimit="10" stroke-width="2" d="m 42.8,15.1 c 3,5.8 1.3,11.9 1.3,11.9"/><g id="g22"><path id="path18" fill="none" stroke="#000" stroke-linecap="round" stroke-linejoin="round" stroke-width="2" d="m 14,58 v -3 c 0,-5 5,-9 10,-9 6,5 12,5 18,0 0.5017,0 1.0034,0.0403 1.5,0.1178"/><path id="path19" fill="none" stroke="#000" stroke-linejoin="round" stroke-width="2" d="m 23.5,46.6 0.5,7.5 h 18 l 0.5,-7.5"/><path id="path20" fill="none" stroke="#000" stroke-linecap="round" stroke-width="2" d="m 20,47.1 v 11"/><path id="path21" fill="none" stroke="#000" stroke-linecap="round" stroke-linejoin="round" stroke-width="2" d="M 46.1996,54.1 C 45.4463,52.4287 45,50.3512 45,48.1 h 12 c 0,2.2512 -0.4463,4.3287 -1.1996,6"/><path id="path22" fill="none" stroke="#000" stroke-linejoin="round" stroke-width="2" d="m 41,57.1 h 20 l -2,3 H 43 Z"/></g></g></svg>