<?xml version="1.0" encoding="UTF-8" standalone="no"?>
<svg
   id="emoji"
   viewBox="0 0 48.379398 51.519199"
   version="1.1"
   sodipodi:docname="e187.svg"
   width="48.379398"
   height="51.519199"
   xmlns:inkscape="http://www.inkscape.org/namespaces/inkscape"
   xmlns:sodipodi="http://sodipodi.sourceforge.net/DTD/sodipodi-0.dtd"
   xmlns="http://www.w3.org/2000/svg"
   xmlns:svg="http://www.w3.org/2000/svg">
  <defs
     id="defs21" />
  <sodipodi:namedview
     id="namedview21"
     pagecolor="#ffffff"
     bordercolor="#000000"
     borderopacity="0.25"
     inkscape:showpageshadow="2"
     inkscape:pageopacity="0.0"
     inkscape:pagecheckerboard="0"
     inkscape:deskcolor="#d1d1d1" />
  <g
     id="color"
     transform="translate(-13.620517,-9.5808)">
    <ellipse
       cx="19.5"
       cy="42"
       rx="3.5"
       ry="3"
       fill="#3f3f3f"
       id="ellipse1" />
    <g
       id="g2">
      <path
         fill="#3f3f3f"
         fill-rule="evenodd"
         d="M 43,46.1526 V 58 H 20 V 46.9361 C 21.2651,46.3992 22.6326,46.1 24,46.1 c 6,5 12,5 18,0 0.3338,0 0.6677,0.0178 1,0.0526 z"
         clip-rule="evenodd"
         id="path1" />
      <path
         fill="#3f3f3f"
         d="m 43,46.1526 h 1 c 0,-0.512 -0.3867,-0.9413 -0.896,-0.9946 z M 43,58 v 1 c 0.5523,0 1,-0.4477 1,-1 z m -23,0 h -1 c 0,0.5523 0.4477,1 1,1 z M 20,46.9361 19.6093,46.0156 C 19.2399,46.1724 19,46.5348 19,46.9361 Z M 24,46.1 24.6402,45.3318 C 24.4605,45.182 24.2339,45.1 24,45.1 Z m 18,0 v -1 c -0.2339,0 -0.4605,0.082 -0.6402,0.2318 z m 0,0.0526 V 58 h 2 V 46.1526 Z M 43,57 H 20 v 2 H 43 Z M 21,58 V 46.9361 H 19 V 58 Z M 20.3907,47.8567 C 21.5422,47.3679 22.7772,47.1 24,47.1 v -2 c -1.512,0 -3.0119,0.3304 -4.3907,0.9156 z m 2.9691,-0.9885 C 26.4845,49.4721 29.7032,50.85 33,50.85 c 3.2968,0 6.5155,-1.3779 9.6402,-3.9818 L 41.3598,45.3318 C 38.4845,47.7278 35.7032,48.85 33,48.85 c -2.7032,0 -5.4845,-1.1222 -8.3598,-3.5182 z M 42,47.1 c 0.2982,0 0.5973,0.0159 0.896,0.0471 L 43.104,45.158 C 42.738,45.1197 42.3694,45.1 42,45.1 Z"
         id="path2" />
    </g>
    <g
       id="g4">
      <path
         fill="#6a462f"
         fill-rule="evenodd"
         d="m 24,58 v -4 h 18 l 0.5,-7.4 0.9202,-0.3944 c 0.8845,0.1308 1.754,0.38 2.5798,0.7305 V 58 Z"
         clip-rule="evenodd"
         id="path3" />
      <path
         fill="#6a462f"
         d="m 24,54 v -1 c -0.5523,0 -1,0.4477 -1,1 z m 0,4 h -1 c 0,0.5523 0.4477,1 1,1 z m 18,-4 v 1 c 0.5261,0 0.9623,-0.4077 0.9977,-0.9326 z m 0.5,-7.4 -0.3939,-0.9192 c -0.3453,0.148 -0.5785,0.477 -0.6038,0.8518 z m 0.9202,-0.3944 0.1462,-0.9892 c -0.183,-0.0271 -0.3701,-0.0028 -0.5402,0.0701 z M 46,46.9361 h 1 c 0,-0.4013 -0.2399,-0.7637 -0.6093,-0.9205 z M 46,58 v 1 c 0.5523,0 1,-0.4477 1,-1 z M 23,54 v 4 h 2 V 54 Z M 42,53 H 24 v 2 h 18 z m -0.4977,-6.4674 -0.5,7.4 1.9954,0.1348 0.5,-7.4 z m 1.5239,-1.2461 -0.9201,0.3943 0.7878,1.8383 0.9202,-0.3943 z m 0.2477,1.9084 c 0.797,0.1178 1.5845,0.343 2.3354,0.6618 l 0.7814,-1.8411 C 45.4899,45.6333 44.5385,45.3601 43.5664,45.2164 Z M 47,58 V 46.9361 H 45 V 58 Z M 24,59 H 46 V 57 H 24 Z"
         id="path4" />
    </g>
    <path
       fill="#ffffff"
       d="m 41,57.1 h 20 l -2,3 H 43 Z"
       id="path5" />
    <g
       id="g7">
      <path
         fill="#ffffff"
         fill-rule="evenodd"
         d="m 51,58.1 c 3.3137,0 6,-4.4772 6,-10 H 45 c 0,5.5228 2.6863,10 6,10 z"
         clip-rule="evenodd"
         id="path6" />
      <path
         fill="#ffffff"
         d="m 57,48.1 h 1 c 0,-0.5523 -0.4477,-1 -1,-1 z m -12,0 v -1 c -0.5523,0 -1,0.4477 -1,1 z m 11,0 c 0,2.6113 -0.6371,4.927 -1.6149,6.5565 C 53.3955,56.306 52.1676,57.1 51,57.1 v 2 c 2.1461,0 3.9182,-1.4446 5.1001,-3.4145 C 57.294,53.6958 58,51.0115 58,48.1 Z m -11,1 h 12 v -2 H 45 Z m 6,8 c -1.1676,0 -2.3955,-0.794 -3.3851,-2.4435 C 46.6371,53.027 46,50.7113 46,48.1 h -2 c 0,2.9115 0.706,5.5958 1.8999,7.5855 C 47.0818,57.6554 48.8539,59.1 51,59.1 Z"
         id="path7" />
    </g>
  </g>
  <g
     id="hair"
     transform="translate(-13.620517,-9.5808)">
    <path
       fill="#6a462f"
       fill-rule="evenodd"
       d="m 33,10.5808 c 10,0 13.5,7 13.5,14 0,4.4919 -1.2353,8.5721 -3.1775,10.9192 1.8579,-5.6 0.7741,-9.6128 0,-10.9192 C 41.715,22.8872 38,18.9 36,16.5 c -4,4.7354 -10.3333,6.6397 -13,7 -0.3333,0.5 -1,2.5 -1,6.5 0,1.8964 0.1498,3.5051 0.343,4.7645 L 22.5,35 l 3,6 H 22.8008 C 22.3204,39.8348 21.0239,39 19.5,39 c -1.0799,0 -2.0456,0.4192 -2.6876,1.0781 L 14.5,39.5 l 1,-15 1.0037,1.5056 C 16.5012,25.8648 16.5,25.7232 16.5,25.5808 c 0,-9.0808 6.5,-15 16.5,-15 z"
       clip-rule="evenodd"
       id="path8" />
    <path
       fill="#6a462f"
       fill-rule="evenodd"
       d="M 24,59 V 52.5 C 24,47.2533 21.9853,43 19.5,43 17.0147,43 15,47.2533 15,52.5 V 59 Z"
       clip-rule="evenodd"
       id="path9" />
  </g>
  <g
     id="skin"
     transform="translate(-13.620517,-9.5808)">
    <path
       fill="#fcea2b"
       d="m 22,30 c 0,9 4.9365,14 11,14 5.9365,0 11.0635,-5 11.0635,-14 0.0245,-1.7187 -0.3164,-3.4229 -1,-5 -3,-3 -7,-8 -7,-8 -4,3 -7,6 -13,7.0005 C 23.0635,24 22,24.9992 22,30 Z"
       id="path10" />
  </g>
  <g
     id="line"
     transform="translate(-13.620517,-9.5808)">
    <path
       fill="none"
       stroke="#000000"
       stroke-linejoin="round"
       stroke-width="2"
       d="m 21.9365,29.5808 c 0,9 4.9365,14 11,14 5.9365,0 11.0635,-5 11.0635,-14 0.0245,-1.7187 -0.3164,-3.4229 -1,-5 -3,-3 -7,-8 -7,-8 -4,3 -7,6 -13,7.0005 0,0 -1.0635,0.9987 -1.0635,5.9995 z"
       id="path11" />
    <path
       fill="#000000"
       d="m 38.9529,28.0468 c 0,1.1046 -0.8954,2 -2,2 -1.1046,0 -2,-0.8954 -2,-2 0,-1.1046 0.8954,-2 2,-2 1.1044,4e-4 1.9996,0.8956 2,2 z"
       id="path12" />
    <path
       fill="#000000"
       d="m 30.9529,28.0468 c 0,1.1046 -0.8954,2 -2,2 -1.1046,0 -2,-0.8954 -2,-2 0,-1.1046 0.8954,-2 2,-2 1.1044,4e-4 1.9996,0.8956 2,2 z"
       id="path13" />
    <path
       fill="none"
       stroke="#000000"
       stroke-linecap="round"
       stroke-linejoin="round"
       stroke-width="2"
       d="m 16.5,40 c -3.5,0 -1,-3.0808 -1,-14 0,-9.0808 7.5,-15.4192 17.5,-15.4192 10,0 13.5,7 13.5,14 0,4.4919 -1.2353,8.5721 -3.1775,10.9192"
       id="path14" />
    <path
       fill="#000000"
       d="m 32.9527,38.0492 c -1.2005,-0.0116 -2.3813,-0.3055 -3.4472,-0.8579 -0.494,-0.247 -0.6943,-0.8477 -0.4473,-1.3418 0.247,-0.4941 0.8477,-0.6943 1.3418,-0.4473 1.5934,0.8593 3.5121,0.8593 5.1055,0 0.494,-0.247 1.0947,-0.0468 1.3418,0.4473 0.2471,0.4941 0.0468,1.0947 -0.4473,1.3418 -1.0659,0.5524 -2.2468,0.8463 -3.4473,0.8579 z"
       id="path15" />
    <path
       fill="none"
       stroke="#000000"
       stroke-linecap="round"
       stroke-width="2"
       d="M 24,58 V 52.5 C 24,47.2533 21.9853,43 19.5,43 17.0147,43 15,47.2533 15,52.5 V 58"
       id="path16" />
    <path
       fill="none"
       stroke="#000000"
       stroke-width="2"
       d="M 17.2384,44.2896 C 16.4808,43.7393 16,42.9178 16,42 c 0,-1.6569 1.567,-3 3.5,-3 1.933,0 3.5,1.3431 3.5,3 0,0.9178 -0.4808,1.7393 -1.2384,2.2896"
       id="path17" />
    <g
       id="g21">
      <path
         fill="none"
         stroke="#000000"
         stroke-linecap="round"
         stroke-linejoin="round"
         stroke-width="2"
         d="M 43.5,46.1178 C 43.0034,46.0403 42.5017,46 42,46 36.6762,50.4365 31.3524,50.9365 26.0286,47.5"
         id="path18" />
      <path
         fill="#000000"
         d="m 27,53 c -0.5523,0 -1,0.4477 -1,1 0,0.5523 0.4477,1 1,1 z m 15,1 v 1 c 0.5265,0 0.9628,-0.4082 0.9978,-0.9335 z M 27,55 H 42 V 53 H 27 Z m 15.9978,-0.9335 0.5,-7.5 -1.9956,-0.133 -0.5,7.5 z"
         id="path19" />
      <path
         fill="none"
         stroke="#000000"
         stroke-linecap="round"
         stroke-linejoin="round"
         stroke-width="2"
         d="M 46.1996,54.1 C 45.4463,52.4287 45,50.3512 45,48.1 h 12 c 0,2.2512 -0.4463,4.3287 -1.1996,6"
         id="path20" />
      <path
         fill="none"
         stroke="#000000"
         stroke-linejoin="round"
         stroke-width="2"
         d="m 41,57.1 h 20 l -2,3 H 43 Z"
         id="path21" />
    </g>
  </g>
</svg>
