<svg xmlns="http://www.w3.org/2000/svg" xmlns:svg="http://www.w3.org/2000/svg" id="emoji" width="52" height="41.998" version="1.1" viewBox="0 0 52 41.998"><g id="color" transform="translate(-10,-14.9592)"><rect id="rect1" width="50" height="39.998" x="11" y="15.959" fill="#d0cfce"/><rect id="rect2" width="8" height="11.083" x="14.984" y="24.988" fill="#3f3f3f"/><polygon id="polygon2" fill="#9b9b9a" points="31.902 38.703 31.902 25.5 56.43 25.5 56.43 39.472 56.43 51.905 31.902 51.905"/></g><g id="line" transform="translate(-10,-14.9592)"><rect id="rect3" width="50" height="39.998" x="11" y="15.959" fill="none" stroke="#000" stroke-linecap="round" stroke-linejoin="round" stroke-miterlimit="10" stroke-width="2"/><line id="line3" x1="12.058" x2="60.126" y1="20.813" y2="20.813" fill="none" stroke="#000" stroke-linecap="round" stroke-linejoin="round" stroke-miterlimit="10" stroke-width="2"/><line id="line4" x1="27.25" x2="27.25" y1="55.324" y2="20.813" fill="none" stroke="#000" stroke-linecap="round" stroke-linejoin="round" stroke-miterlimit="10" stroke-width="2"/><rect id="rect4" width="8" height="11.083" x="14.984" y="24.988" fill="none" stroke="#000" stroke-linecap="round" stroke-linejoin="round" stroke-miterlimit="10" stroke-width="2"/><polygon id="polygon4" fill="none" stroke="#000" stroke-linecap="round" stroke-linejoin="round" stroke-miterlimit="10" stroke-width="2" points="31.902 38.703 31.902 25.5 56.43 25.5 56.43 39.472 56.43 51.905 31.902 51.905"/><line id="line5" x1="14.893" x2="19.991" y1="42.78" y2="42.78" fill="none" stroke="#000" stroke-linecap="round" stroke-linejoin="round" stroke-miterlimit="10" stroke-width="2"/><line id="line6" x1="14.893" x2="23.201" y1="46.78" y2="46.78" fill="none" stroke="#000" stroke-linecap="round" stroke-linejoin="round" stroke-miterlimit="10" stroke-width="2"/><line id="line7" x1="14.893" x2="19.991" y1="50.78" y2="50.78" fill="none" stroke="#000" stroke-linecap="round" stroke-linejoin="round" stroke-miterlimit="10" stroke-width="2"/><line id="line8" x1="31.902" x2="56.43" y1="51.905" y2="25.5" fill="none" stroke="#000" stroke-linecap="round" stroke-linejoin="round" stroke-miterlimit="10" stroke-width="2"/><line id="line9" x1="31.902" x2="56.43" y1="25.5" y2="51.905" fill="none" stroke="#000" stroke-linecap="round" stroke-linejoin="round" stroke-miterlimit="10" stroke-width="2"/></g></svg>