<?xml version="1.0" encoding="UTF-8" standalone="no"?>
<svg
   id="emoji"
   viewBox="0 0 38.175091 44.251976"
   version="1.1"
   sodipodi:docname="e1c4.svg"
   width="38.175091"
   height="44.251976"
   xmlns:inkscape="http://www.inkscape.org/namespaces/inkscape"
   xmlns:sodipodi="http://sodipodi.sourceforge.net/DTD/sodipodi-0.dtd"
   xmlns="http://www.w3.org/2000/svg"
   xmlns:svg="http://www.w3.org/2000/svg">
  <defs
     id="defs5" />
  <sodipodi:namedview
     id="namedview5"
     pagecolor="#ffffff"
     bordercolor="#000000"
     borderopacity="0.25"
     inkscape:showpageshadow="2"
     inkscape:pageopacity="0.0"
     inkscape:pagecheckerboard="0"
     inkscape:deskcolor="#d1d1d1" />
  <g
     id="color"
     transform="translate(-16.514697,-13.748024)">
    <path
       fill="#d0cfce"
       d="m 33.1,58 h -3 c -0.6,0 -1,-0.4 -1,-1 V 37 c 0,-0.6 0.4,-1 1,-1 h 3 c 0.6,0 1,0.4 1,1 v 20 c 0,0.6 -0.5,1 -1,1 z"
       id="path1" />
    <path
       fill="#9b9b9a"
       d="m 38.4,35.4 c 1.7,-2.9 0.7,-6.5 -2.2,-8.2 -2.9,-1.7 -6.5,-0.7 -8.2,2.2 -1.7,2.9 -0.7,6.5 2.2,8.2 2.9,1.7 6.5,0.7 8.2,-2.2"
       id="path2" />
    <rect
       x="30.6033"
       y="10.0777"
       width="9.9997997"
       height="35.999199"
       transform="matrix(0.5,-0.866,0.866,0.5,-6.5143,44.8714)"
       fill="#ffffff"
       id="rect2" />
    <rect
       x="30.6019"
       y="10.0787"
       width="9.9997997"
       height="35.999199"
       transform="matrix(0.5,-0.866,0.866,0.5,-6.5158,44.8707)"
       fill="#d0cfce"
       id="rect3" />
    <polygon
       fill="#9b9b9a"
       points="22.5,14.8 17.5,23.4 42.1,37.6 "
       id="polygon3" />
  </g>
  <g
     id="hair"
     transform="translate(-16.514697,-13.748024)" />
  <g
     id="skin"
     transform="translate(-16.514697,-13.748024)" />
  <g
     id="skin-shadow"
     transform="translate(-16.514697,-13.748024)" />
  <g
     id="line"
     transform="translate(-16.514697,-13.748024)">
    <line
       x1="30"
       x2="30"
       y1="36.400002"
       y2="57"
       fill="none"
       stroke="#000000"
       stroke-linecap="round"
       stroke-linejoin="round"
       stroke-miterlimit="10"
       stroke-width="2"
       id="line3" />
    <line
       x1="34.099998"
       x2="34.099998"
       y1="39.400002"
       y2="57"
       fill="none"
       stroke="#000000"
       stroke-linecap="round"
       stroke-linejoin="round"
       stroke-miterlimit="10"
       stroke-width="2"
       id="line4" />
    <path
       fill="none"
       stroke="#000000"
       stroke-linecap="round"
       stroke-linejoin="round"
       stroke-miterlimit="10"
       stroke-width="2"
       d="m 28.8,29.9 c -1.3,2.2 -0.7,4.9 1.2,6.4"
       id="path4" />
    <rect
       x="30.6033"
       y="10.0777"
       width="9.9997997"
       height="35.999199"
       transform="matrix(0.5,-0.866,0.866,0.5,-6.5143,44.8714)"
       fill="none"
       stroke="#000000"
       stroke-linecap="round"
       stroke-linejoin="round"
       stroke-miterlimit="10"
       stroke-width="2"
       id="rect4" />
    <rect
       x="30.6033"
       y="10.0777"
       width="9.9997997"
       height="35.999199"
       transform="matrix(0.5,-0.866,0.866,0.5,-6.5143,44.8714)"
       fill="none"
       stroke="#000000"
       stroke-linecap="round"
       stroke-linejoin="round"
       stroke-miterlimit="10"
       stroke-width="2"
       id="rect5" />
    <path
       d="m 52.7,34.5 c 1.4,0.8 1.9,2.7 1.1,4.1 -0.8,1.4 -2.7,1.9 -4.1,1.1 z"
       id="path5" />
  </g>
  <g
     id="color-foreground"
     transform="translate(-16.514697,-13.748024)">
    <path
       id="xx"
       fill="#d22f27"
       d="m 54.2,37.1 c 0,1.7 -1.4,3 -3,3 -0.2,0 -0.4,0 -0.6,-0.1 l 2.9,-5 c 0.4,0.6 0.7,1.3 0.7,2.1 z" />
  </g>
</svg>
