<svg xmlns="http://www.w3.org/2000/svg" xmlns:svg="http://www.w3.org/2000/svg" id="emoji" width="42" height="61.559" version="1.1" viewBox="0 0 42 61.559"><g id="color" transform="translate(-15,-6.0359)"><path id="path1" fill="#92d3f5" stroke="none" d="m 31.3882,26.7177 c 0,0 9.2367,-1.8188 8.4221,-9.1964 C 38.4565,5.2603 38.3425,7.0976 38.3425,7.0976 L 32.8132,8.108 c 10e-5,10e-5 3.1866,13.5938 -1.425,18.6097 z"/><path id="path2" fill="#92d3f5" stroke="none" stroke-linecap="round" stroke-linejoin="round" stroke-miterlimit="10" stroke-width="2" d="m 34.5417,7.0359 c -8.1462,0 -14.75,7.496 -14.75,16.7427 v 16.388 h 29.5"/><rect id="rect2" width="4" height="22.095" x="26.833" y="44.5" fill="#d0cfce" stroke="none" stroke-linecap="round" stroke-linejoin="round" stroke-miterlimit="10" stroke-width="2"/><rect id="rect3" width="4" height="16.479" x="41.333" y="44.5" fill="#d0cfce" stroke="none" stroke-linecap="round" stroke-linejoin="round" stroke-miterlimit="10" stroke-width="2"/><path id="path3" fill="#61b2e4" stroke="none" d="m 34.5417,7.5625 c 0,0 15.3232,0.5495 15.9047,13.875 0.9664,22.1458 0.0665,18.9191 0.0665,18.9191 l -9.3254,-0.19 c 0,10e-5 1.4372,-25.0416 -6.6458,-32.6041 z"/><rect id="rect4" width="11.833" height="3.083" x="43.333" y="40.792" fill="#61b2e4" stroke="none"/><rect id="rect5" width="26.998" height="3.083" x="16.335" y="40.792" fill="#92d3f5" stroke="none"/></g><g id="line" transform="translate(-15,-6.0359)"><path id="path5" fill="none" stroke="#000" stroke-linecap="round" stroke-linejoin="round" stroke-miterlimit="10" stroke-width="2" d="m 34.5417,7.0359 c -8.1462,0 -14.75,7.496 -14.75,16.7427 v 16.388 h 29.5"/><rect id="rect6" width="4" height="22.095" x="26.833" y="44.5" fill="none" stroke="#000" stroke-linecap="round" stroke-linejoin="round" stroke-miterlimit="10" stroke-width="2"/><rect id="rect7" width="4" height="16.479" x="41.333" y="44.5" fill="none" stroke="#000" stroke-linecap="round" stroke-linejoin="round" stroke-miterlimit="10" stroke-width="2"/><path id="path7" fill="none" stroke="#000" stroke-linecap="round" stroke-linejoin="round" stroke-miterlimit="10" stroke-width="2" d="m 35.2497,7.0359 c 8.1462,0 14.75,7.496 14.75,16.7427 v 7.388"/><polygon id="polygon7" fill="none" stroke="#000" stroke-linecap="round" stroke-linejoin="round" stroke-miterlimit="10" stroke-width="2" points="45.906 44.5 56 44.5 56 40.167 45.906 40.167 45.5 40.167 16 40.167 16 44.5 45.531 44.5"/></g></svg>