<?xml version="1.0" encoding="UTF-8" standalone="no"?>
<svg
   id="emoji"
   viewBox="0 0 42 61.559101"
   version="1.1"
   sodipodi:docname="e1c7.svg"
   width="42"
   height="61.559101"
   xmlns:inkscape="http://www.inkscape.org/namespaces/inkscape"
   xmlns:sodipodi="http://sodipodi.sourceforge.net/DTD/sodipodi-0.dtd"
   xmlns="http://www.w3.org/2000/svg"
   xmlns:svg="http://www.w3.org/2000/svg">
  <defs
     id="defs7" />
  <sodipodi:namedview
     id="namedview7"
     pagecolor="#ffffff"
     bordercolor="#000000"
     borderopacity="0.25"
     inkscape:showpageshadow="2"
     inkscape:pageopacity="0.0"
     inkscape:pagecheckerboard="0"
     inkscape:deskcolor="#d1d1d1" />
  <g
     id="color"
     transform="translate(-15,-6.0359)">
    <path
       fill="#92d3f5"
       stroke="none"
       d="m 31.3882,26.7177 c 0,0 9.2367,-1.8188 8.4221,-9.1964 C 38.4565,5.2603 38.3425,7.0976 38.3425,7.0976 L 32.8132,8.108 c 10e-5,10e-5 3.1866,13.5938 -1.425,18.6097 z"
       id="path1" />
    <path
       fill="#92d3f5"
       stroke="none"
       stroke-linecap="round"
       stroke-linejoin="round"
       stroke-miterlimit="10"
       stroke-width="2"
       d="m 34.5417,7.0359 c -8.1462,0 -14.75,7.496 -14.75,16.7427 v 16.388 h 29.5"
       id="path2" />
    <rect
       x="26.8333"
       y="44.5"
       width="4"
       height="22.094999"
       fill="#d0cfce"
       stroke="none"
       stroke-linecap="round"
       stroke-linejoin="round"
       stroke-miterlimit="10"
       stroke-width="2"
       id="rect2" />
    <rect
       x="41.333302"
       y="44.5"
       width="4"
       height="16.4792"
       fill="#d0cfce"
       stroke="none"
       stroke-linecap="round"
       stroke-linejoin="round"
       stroke-miterlimit="10"
       stroke-width="2"
       id="rect3" />
    <path
       fill="#61b2e4"
       stroke="none"
       d="m 34.5417,7.5625 c 0,0 15.3232,0.5495 15.9047,13.875 0.9664,22.1458 0.0665,18.9191 0.0665,18.9191 l -9.3254,-0.19 c 0,10e-5 1.4372,-25.0416 -6.6458,-32.6041 z"
       id="path3" />
    <rect
       x="43.333302"
       y="40.791698"
       width="11.8333"
       height="3.0833001"
       fill="#61b2e4"
       stroke="none"
       id="rect4" />
    <rect
       x="16.3353"
       y="40.791698"
       width="26.997999"
       height="3.0833001"
       fill="#92d3f5"
       stroke="none"
       id="rect5" />
  </g>
  <g
     id="hair"
     transform="translate(-15,-6.0359)" />
  <g
     id="skin"
     transform="translate(-15,-6.0359)" />
  <g
     id="skin-shadow"
     transform="translate(-15,-6.0359)" />
  <g
     id="line"
     transform="translate(-15,-6.0359)">
    <path
       fill="none"
       stroke="#000000"
       stroke-linecap="round"
       stroke-linejoin="round"
       stroke-miterlimit="10"
       stroke-width="2"
       d="m 34.5417,7.0359 c -8.1462,0 -14.75,7.496 -14.75,16.7427 v 16.388 h 29.5"
       id="path5" />
    <rect
       x="26.8333"
       y="44.5"
       width="4"
       height="22.094999"
       fill="none"
       stroke="#000000"
       stroke-linecap="round"
       stroke-linejoin="round"
       stroke-miterlimit="10"
       stroke-width="2"
       id="rect6" />
    <rect
       x="41.333302"
       y="44.5"
       width="4"
       height="16.4792"
       fill="none"
       stroke="#000000"
       stroke-linecap="round"
       stroke-linejoin="round"
       stroke-miterlimit="10"
       stroke-width="2"
       id="rect7" />
    <path
       fill="none"
       stroke="#000000"
       stroke-linecap="round"
       stroke-linejoin="round"
       stroke-miterlimit="10"
       stroke-width="2"
       d="m 35.2497,7.0359 c 8.1462,0 14.75,7.496 14.75,16.7427 v 7.388"
       id="path7" />
    <polygon
       fill="none"
       stroke="#000000"
       stroke-linecap="round"
       stroke-linejoin="round"
       stroke-miterlimit="10"
       stroke-width="2"
       points="45.9063,44.5 56,44.5 56,40.1667 45.9063,40.1667 45.4999,40.1667 16,40.1667 16,44.5 45.5309,44.5 "
       id="polygon7" />
  </g>
</svg>
