<?xml version="1.0" encoding="UTF-8" standalone="no"?>
<svg
   id="emoji"
   viewBox="0 0 47.589809 56.626549"
   version="1.1"
   sodipodi:docname="e1ca.svg"
   width="47.589809"
   height="56.626549"
   xmlns:inkscape="http://www.inkscape.org/namespaces/inkscape"
   xmlns:sodipodi="http://sodipodi.sourceforge.net/DTD/sodipodi-0.dtd"
   xmlns="http://www.w3.org/2000/svg"
   xmlns:svg="http://www.w3.org/2000/svg">
  <defs
     id="defs9" />
  <sodipodi:namedview
     id="namedview9"
     pagecolor="#ffffff"
     bordercolor="#000000"
     borderopacity="0.25"
     inkscape:showpageshadow="2"
     inkscape:pageopacity="0.0"
     inkscape:pagecheckerboard="0"
     inkscape:deskcolor="#d1d1d1" />
  <g
     id="color"
     transform="translate(-12.610191,-7.7734523)">
    <path
       fill="#fcea2b"
       d="M 45.1,52.5 C 45,56.6 44,63.3 44,63.3 l -17.2,0.1 0.1,-5.8 c 0,0 -0.2,-11.2 -5.3,-15.5 C 11.3,33.5 14,15.4 25.3,10.9 36.5,6.4 47.6,9.7 51,14.7 c 3.4,5 0.6,9.2 0.6,9.2 0,0 -0.8,1.5 1.1,4.6 1.9,3.1 4.9,10.5 4.9,10.5 l -4.1,1.4 c 0,0 2,9.5 -0.8,10.9 -2.8,1.4 -8.7,0.8 -13.2,-0.6"
       id="path1" />
    <path
       fill="#9b9b9a"
       d="M 59.2,18 V 33.7 H 44.7 c 0,0 -8.7,-7.5 0,-16.2 h 14.5 z"
       id="path2" />
    <path
       fill="#9b9b9a"
       d="M 44.8,22 H 14.5 c 0,0 -2,6.1 0,8.1 h 30.1 z"
       id="path3" />
    <line
       x1="54.5"
       x2="54.5"
       y1="17.6"
       y2="33.799999"
       fill="none"
       id="line3" />
    <line
       x1="55.900002"
       x2="55.900002"
       y1="17.6"
       y2="33.799999"
       fill="none"
       id="line4" />
    <line
       x1="57.400002"
       x2="57.400002"
       y1="17.6"
       y2="33.799999"
       fill="none"
       id="line5" />
    <rect
       x="54.799999"
       y="17.6"
       width="4.5999999"
       height="16.5"
       id="rect5" />
  </g>
  <g
     id="hair"
     transform="translate(-12.610191,-7.7734523)" />
  <g
     id="skin"
     transform="translate(-12.610191,-7.7734523)" />
  <g
     id="skin-shadow"
     transform="translate(-12.610191,-7.7734523)" />
  <g
     id="line"
     transform="translate(-12.610191,-7.7734523)">
    <path
       fill="none"
       stroke="#000000"
       stroke-linecap="round"
       stroke-linejoin="round"
       stroke-miterlimit="10"
       stroke-width="2"
       d="m 55.4,33.8 c 1.2,2.7 2.2,5.2 2.2,5.2 l -4.1,1.4 c 0,0 2,9.5 -0.8,10.9 -2.8,1.4 -8.7,0.8 -13.2,-0.5"
       id="path5" />
    <path
       fill="none"
       stroke="#000000"
       stroke-linecap="round"
       stroke-linejoin="round"
       stroke-miterlimit="10"
       stroke-width="2"
       d="m 15.9,22 c 1.4,-5 4.6,-9.3 9.4,-11.1 11.2,-4.5 22.3,-1.2 25.7,3.8 0.7,1 1.1,2 1.4,2.9"
       id="path6" />
    <path
       fill="none"
       stroke="#000000"
       stroke-linecap="round"
       stroke-linejoin="round"
       stroke-miterlimit="10"
       stroke-width="2"
       d="m 15.3,30.1 c 0.5,4.5 2.6,8.9 6.3,12 5.1,4.3 5.3,15.5 5.3,15.5 v 5.8 h 17.2 c 0,0 1,-6.8 1.1,-10.8"
       id="path7" />
    <path
       fill="none"
       stroke="#000000"
       stroke-linecap="round"
       stroke-linejoin="round"
       stroke-miterlimit="10"
       stroke-width="2"
       d="M 59.2,18 V 33.7 H 44.7 c 0,0 -8.7,-7.5 0,-16.2 h 14.5 z"
       id="path8" />
    <path
       fill="none"
       stroke="#000000"
       stroke-linecap="round"
       stroke-linejoin="round"
       stroke-miterlimit="10"
       stroke-width="2"
       d="M 41.6,22 H 14.5 c 0,0 -2,6.1 0,8.1 H 42"
       id="path9" />
    <line
       x1="54.799999"
       x2="54.799999"
       y1="17.6"
       y2="33.599998"
       fill="none"
       stroke="#000000"
       stroke-miterlimit="10"
       stroke-width="2"
       id="line9" />
  </g>
</svg>
