<svg xmlns="http://www.w3.org/2000/svg" xmlns:svg="http://www.w3.org/2000/svg" id="emoji" width="47.044" height="57.372" version="1.1" viewBox="0 0 47.044 57.372"><g id="color" transform="translate(-12.4698,-7.1669)"><rect id="rect1" width="44.879" height="55.438" x="13.353" y="8.12" fill="#d0cfce" stroke="none"/><polygon id="polygon1" fill="#fff" stroke="none" points="19.936 8.12 19.914 8.141 58.231 46.458 58.231 25.747 40.604 8.12"/><rect id="rect2" width="36.159" height="41.439" x="17.881" y="13.037" fill="#3f3f3f" stroke="none"/><polygon id="polygon2" fill="#9b9b9a" stroke="none" points="45.522 13.037 24.81 13.037 54.04 42.266 54.04 21.555"/></g><g id="line" transform="translate(-12.4698,-7.1669)"><path id="path2" fill="none" stroke="#000" stroke-linecap="round" stroke-linejoin="round" stroke-miterlimit="10" stroke-width="2" d="M 13.4698,62.5391 V 9.1669 c 0,-0.55 0.45,-1 1,-1 h 43.0444 c 0.55,0 1,0.45 1,1 v 53.3722 c 0,0.55 -0.45,1 -1,1 H 14.4698 c -0.55,0 -1,-0.45 -1,-1 z"/><circle id="circle2" cx="35.992" cy="59.084" r="2" fill="#000" stroke="none"/><rect id="rect3" width="36.159" height="41.439" x="17.881" y="13.037" fill="none" stroke="#000" stroke-linecap="round" stroke-linejoin="round" stroke-miterlimit="10" stroke-width="2"/></g></svg>