<?xml version="1.0" encoding="UTF-8" standalone="no"?>
<svg
   id="emoji"
   viewBox="0 0 56.637299 56.599098"
   version="1.1"
   sodipodi:docname="e1cd.svg"
   width="56.637299"
   height="56.599098"
   xmlns:inkscape="http://www.inkscape.org/namespaces/inkscape"
   xmlns:sodipodi="http://sodipodi.sourceforge.net/DTD/sodipodi-0.dtd"
   xmlns="http://www.w3.org/2000/svg"
   xmlns:svg="http://www.w3.org/2000/svg">
  <defs
     id="defs14" />
  <sodipodi:namedview
     id="namedview14"
     pagecolor="#ffffff"
     bordercolor="#000000"
     borderopacity="0.25"
     inkscape:showpageshadow="2"
     inkscape:pageopacity="0.0"
     inkscape:pagecheckerboard="0"
     inkscape:deskcolor="#d1d1d1" />
  <g
     id="color"
     transform="translate(-7.6786003,-7.6597996)">
    <path
       fill="#9b9b9a"
       stroke="none"
       d="m 36.0216,12.9316 c -12.6956,0 -22.9874,10.2918 -22.9874,22.9874 0,12.6956 10.2918,22.9875 22.9874,22.9875 12.6956,0 22.9874,-10.2918 22.9874,-22.9874 0,-12.6956 -10.2918,-22.9875 -22.9874,-22.9875 z m 0,37.9516 c -8.2645,0 -14.9642,-6.6997 -14.9642,-14.9642 0,-8.2645 6.6997,-14.9642 14.9642,-14.9642 8.2645,0 14.9642,6.6997 14.9642,14.9642 0,8.2645 -6.6997,14.9642 -14.9642,14.9642 z"
       id="path1" />
    <rect
       x="31.529499"
       y="7.6609998"
       width="8.9825001"
       height="11.1898"
       fill="#9b9b9a"
       stroke="none"
       id="rect1" />
    <rect
       x="31.529499"
       y="53.069099"
       width="8.9825001"
       height="11.1898"
       fill="#9b9b9a"
       stroke="none"
       id="rect2" />
    <rect
       x="8.7827997"
       y="30.3067"
       width="8.9825001"
       height="11.1898"
       transform="rotate(90,13.274,35.9016)"
       fill="#9b9b9a"
       stroke="none"
       id="rect3" />
    <rect
       x="54.223"
       y="30.3067"
       width="8.9825001"
       height="11.1898"
       transform="rotate(90,58.7143,35.9016)"
       fill="#9b9b9a"
       stroke="none"
       id="rect4" />
  </g>
  <g
     id="hair"
     transform="translate(-7.6786003,-7.6597996)" />
  <g
     id="skin"
     transform="translate(-7.6786003,-7.6597996)" />
  <g
     id="skin-shadow"
     transform="translate(-7.6786003,-7.6597996)" />
  <g
     id="line"
     transform="translate(-7.6786003,-7.6597996)">
    <path
       fill="none"
       stroke="#000000"
       stroke-linecap="round"
       stroke-linejoin="round"
       stroke-miterlimit="10"
       stroke-width="2"
       d="M 58.8744,31.433 C 57.0904,22.3699 49.5409,14.951 40.5015,13.1013"
       id="path4" />
    <path
       fill="none"
       stroke="#000000"
       stroke-linecap="round"
       stroke-linejoin="round"
       stroke-miterlimit="10"
       stroke-width="2"
       d="M 40.5016,58.8163 C 49.6291,57.0264 57.0791,49.5184 58.8745,40.3929"
       id="path5" />
    <path
       fill="none"
       stroke="#000000"
       stroke-linecap="round"
       stroke-linejoin="round"
       stroke-miterlimit="10"
       stroke-width="2"
       d="m 13.1201,40.3929 c 1.7832,9.1158 9.3162,16.611 18.4216,18.4234"
       id="path6" />
    <path
       fill="none"
       stroke="#000000"
       stroke-linecap="round"
       stroke-linejoin="round"
       stroke-miterlimit="10"
       stroke-width="2"
       d="m 31.5417,13.1012 c -9.07,1.8049 -16.6032,9.2666 -18.4216,18.3317"
       id="path7" />
    <circle
       cx="36.021599"
       cy="35.919102"
       r="15"
       fill="none"
       stroke="#000000"
       stroke-linecap="round"
       stroke-linejoin="round"
       stroke-miterlimit="10"
       stroke-width="2"
       id="circle7" />
    <line
       x1="31.5417"
       x2="31.5417"
       y1="13.1012"
       y2="8.6597996"
       fill="none"
       stroke="#000000"
       stroke-linecap="round"
       stroke-linejoin="round"
       stroke-miterlimit="10"
       stroke-width="2"
       id="line7" />
    <line
       x1="40.501598"
       x2="40.501598"
       y1="13.1012"
       y2="8.6597996"
       fill="none"
       stroke="#000000"
       stroke-linecap="round"
       stroke-linejoin="round"
       stroke-miterlimit="10"
       stroke-width="2"
       id="line8" />
    <line
       x1="31.5417"
       x2="31.5417"
       y1="63.257801"
       y2="58.816299"
       fill="none"
       stroke="#000000"
       stroke-linecap="round"
       stroke-linejoin="round"
       stroke-miterlimit="10"
       stroke-width="2"
       id="line9" />
    <line
       x1="40.501598"
       x2="40.501598"
       y1="63.257801"
       y2="58.816299"
       fill="none"
       stroke="#000000"
       stroke-linecap="round"
       stroke-linejoin="round"
       stroke-miterlimit="10"
       stroke-width="2"
       id="line10" />
    <line
       x1="58.874401"
       x2="63.315899"
       y1="31.433001"
       y2="31.433001"
       fill="none"
       stroke="#000000"
       stroke-linecap="round"
       stroke-linejoin="round"
       stroke-miterlimit="10"
       stroke-width="2"
       id="line11" />
    <line
       x1="58.874401"
       x2="63.315899"
       y1="40.392899"
       y2="40.392899"
       fill="none"
       stroke="#000000"
       stroke-linecap="round"
       stroke-linejoin="round"
       stroke-miterlimit="10"
       stroke-width="2"
       id="line12" />
    <line
       x1="8.6786003"
       x2="13.1201"
       y1="31.433001"
       y2="31.433001"
       fill="none"
       stroke="#000000"
       stroke-linecap="round"
       stroke-linejoin="round"
       stroke-miterlimit="10"
       stroke-width="2"
       id="line13" />
    <line
       x1="8.6786003"
       x2="13.1201"
       y1="40.392899"
       y2="40.392899"
       fill="none"
       stroke="#000000"
       stroke-linecap="round"
       stroke-linejoin="round"
       stroke-miterlimit="10"
       stroke-width="2"
       id="line14" />
  </g>
</svg>
