<svg xmlns="http://www.w3.org/2000/svg" xmlns:svg="http://www.w3.org/2000/svg" id="emoji" width="56.637" height="56.599" version="1.1" viewBox="0 0 56.637 56.599"><g id="color" transform="translate(-7.6786003,-7.6597996)"><path id="path1" fill="#9b9b9a" stroke="none" d="m 36.0216,12.9316 c -12.6956,0 -22.9874,10.2918 -22.9874,22.9874 0,12.6956 10.2918,22.9875 22.9874,22.9875 12.6956,0 22.9874,-10.2918 22.9874,-22.9874 0,-12.6956 -10.2918,-22.9875 -22.9874,-22.9875 z m 0,37.9516 c -8.2645,0 -14.9642,-6.6997 -14.9642,-14.9642 0,-8.2645 6.6997,-14.9642 14.9642,-14.9642 8.2645,0 14.9642,6.6997 14.9642,14.9642 0,8.2645 -6.6997,14.9642 -14.9642,14.9642 z"/><rect id="rect1" width="8.983" height="11.19" x="31.529" y="7.661" fill="#9b9b9a" stroke="none"/><rect id="rect2" width="8.983" height="11.19" x="31.529" y="53.069" fill="#9b9b9a" stroke="none"/><rect id="rect3" width="8.983" height="11.19" x="8.783" y="30.307" fill="#9b9b9a" stroke="none" transform="rotate(90,13.274,35.9016)"/><rect id="rect4" width="8.983" height="11.19" x="54.223" y="30.307" fill="#9b9b9a" stroke="none" transform="rotate(90,58.7143,35.9016)"/></g><g id="line" transform="translate(-7.6786003,-7.6597996)"><path id="path4" fill="none" stroke="#000" stroke-linecap="round" stroke-linejoin="round" stroke-miterlimit="10" stroke-width="2" d="M 58.8744,31.433 C 57.0904,22.3699 49.5409,14.951 40.5015,13.1013"/><path id="path5" fill="none" stroke="#000" stroke-linecap="round" stroke-linejoin="round" stroke-miterlimit="10" stroke-width="2" d="M 40.5016,58.8163 C 49.6291,57.0264 57.0791,49.5184 58.8745,40.3929"/><path id="path6" fill="none" stroke="#000" stroke-linecap="round" stroke-linejoin="round" stroke-miterlimit="10" stroke-width="2" d="m 13.1201,40.3929 c 1.7832,9.1158 9.3162,16.611 18.4216,18.4234"/><path id="path7" fill="none" stroke="#000" stroke-linecap="round" stroke-linejoin="round" stroke-miterlimit="10" stroke-width="2" d="m 31.5417,13.1012 c -9.07,1.8049 -16.6032,9.2666 -18.4216,18.3317"/><circle id="circle7" cx="36.022" cy="35.919" r="15" fill="none" stroke="#000" stroke-linecap="round" stroke-linejoin="round" stroke-miterlimit="10" stroke-width="2"/><line id="line7" x1="31.542" x2="31.542" y1="13.101" y2="8.66" fill="none" stroke="#000" stroke-linecap="round" stroke-linejoin="round" stroke-miterlimit="10" stroke-width="2"/><line id="line8" x1="40.502" x2="40.502" y1="13.101" y2="8.66" fill="none" stroke="#000" stroke-linecap="round" stroke-linejoin="round" stroke-miterlimit="10" stroke-width="2"/><line id="line9" x1="31.542" x2="31.542" y1="63.258" y2="58.816" fill="none" stroke="#000" stroke-linecap="round" stroke-linejoin="round" stroke-miterlimit="10" stroke-width="2"/><line id="line10" x1="40.502" x2="40.502" y1="63.258" y2="58.816" fill="none" stroke="#000" stroke-linecap="round" stroke-linejoin="round" stroke-miterlimit="10" stroke-width="2"/><line id="line11" x1="58.874" x2="63.316" y1="31.433" y2="31.433" fill="none" stroke="#000" stroke-linecap="round" stroke-linejoin="round" stroke-miterlimit="10" stroke-width="2"/><line id="line12" x1="58.874" x2="63.316" y1="40.393" y2="40.393" fill="none" stroke="#000" stroke-linecap="round" stroke-linejoin="round" stroke-miterlimit="10" stroke-width="2"/><line id="line13" x1="8.679" x2="13.12" y1="31.433" y2="31.433" fill="none" stroke="#000" stroke-linecap="round" stroke-linejoin="round" stroke-miterlimit="10" stroke-width="2"/><line id="line14" x1="8.679" x2="13.12" y1="40.393" y2="40.393" fill="none" stroke="#000" stroke-linecap="round" stroke-linejoin="round" stroke-miterlimit="10" stroke-width="2"/></g></svg>