<?xml version="1.0" encoding="UTF-8" standalone="no"?>
<svg
   id="emoji"
   viewBox="0 0 32 64"
   version="1.1"
   sodipodi:docname="e1ce.svg"
   width="32"
   height="64"
   xmlns:inkscape="http://www.inkscape.org/namespaces/inkscape"
   xmlns:sodipodi="http://sodipodi.sourceforge.net/DTD/sodipodi-0.dtd"
   xmlns="http://www.w3.org/2000/svg"
   xmlns:svg="http://www.w3.org/2000/svg">
  <defs
     id="defs12" />
  <sodipodi:namedview
     id="namedview12"
     pagecolor="#ffffff"
     bordercolor="#000000"
     borderopacity="0.25"
     inkscape:showpageshadow="2"
     inkscape:pageopacity="0.0"
     inkscape:pagecheckerboard="0"
     inkscape:deskcolor="#d1d1d1" />
  <g
     id="color"
     transform="translate(-20,-4)">
    <rect
       x="29"
       y="4"
       width="14"
       height="18"
       fill="#9b9b9a"
       stroke="none"
       id="rect1" />
    <rect
       x="29"
       y="50"
       width="14"
       height="18"
       fill="#9b9b9a"
       stroke="none"
       id="rect2" />
    <circle
       cx="36"
       cy="36"
       r="15"
       fill="#3f3f3f"
       stroke="none"
       id="circle2" />
    <rect
       x="28"
       y="28"
       width="6"
       height="6"
       fill="#92d3f5"
       stroke="none"
       id="rect3" />
    <rect
       x="38"
       y="28"
       width="6"
       height="6"
       fill="#ea5a47"
       stroke="none"
       id="rect4" />
    <rect
       x="38"
       y="38"
       width="6"
       height="6"
       fill="#92d3f5"
       stroke="none"
       id="rect5" />
    <rect
       x="28"
       y="38"
       width="6"
       height="6"
       fill="#b399c8"
       stroke="none"
       id="rect6" />
  </g>
  <g
     id="hair"
     transform="translate(-20,-4)" />
  <g
     id="skin"
     transform="translate(-20,-4)" />
  <g
     id="skin-shadow"
     transform="translate(-20,-4)" />
  <g
     id="line"
     transform="translate(-20,-4)">
    <circle
       cx="36"
       cy="36"
       r="15"
       fill="none"
       stroke="#000000"
       stroke-linecap="round"
       stroke-linejoin="round"
       stroke-miterlimit="10"
       stroke-width="2"
       id="circle6" />
    <line
       x1="29"
       x2="29"
       y1="22"
       y2="5"
       fill="none"
       stroke="#000000"
       stroke-linecap="round"
       stroke-linejoin="round"
       stroke-miterlimit="10"
       stroke-width="2"
       id="line6" />
    <line
       x1="43"
       x2="43"
       y1="22"
       y2="5"
       fill="none"
       stroke="#000000"
       stroke-linecap="round"
       stroke-linejoin="round"
       stroke-miterlimit="10"
       stroke-width="2"
       id="line7" />
    <line
       x1="29"
       x2="29"
       y1="67"
       y2="50"
       fill="none"
       stroke="#000000"
       stroke-linecap="round"
       stroke-linejoin="round"
       stroke-miterlimit="10"
       stroke-width="2"
       id="line8" />
    <line
       x1="43"
       x2="43"
       y1="67"
       y2="50"
       fill="none"
       stroke="#000000"
       stroke-linecap="round"
       stroke-linejoin="round"
       stroke-miterlimit="10"
       stroke-width="2"
       id="line9" />
    <path
       fill="none"
       stroke="#000000"
       stroke-linecap="round"
       stroke-linejoin="round"
       stroke-miterlimit="10"
       stroke-width="2"
       d="m 33,34 h -4 c -0.5523,0 -1,-0.4477 -1,-1 v -4 c 0,-0.5523 0.4477,-1 1,-1 h 4 c 0.5523,0 1,0.4477 1,1 v 4 c 0,0.5523 -0.4477,1 -1,1 z"
       id="path9" />
    <path
       fill="none"
       stroke="#000000"
       stroke-linecap="round"
       stroke-linejoin="round"
       stroke-miterlimit="10"
       stroke-width="2"
       d="m 43,34 h -4 c -0.5523,0 -1,-0.4477 -1,-1 v -4 c 0,-0.5523 0.4477,-1 1,-1 h 4 c 0.5523,0 1,0.4477 1,1 v 4 c 0,0.5523 -0.4477,1 -1,1 z"
       id="path10" />
    <path
       fill="none"
       stroke="#000000"
       stroke-linecap="round"
       stroke-linejoin="round"
       stroke-miterlimit="10"
       stroke-width="2"
       d="m 43,44 h -4 c -0.5523,0 -1,-0.4477 -1,-1 v -4 c 0,-0.5523 0.4477,-1 1,-1 h 4 c 0.5523,0 1,0.4477 1,1 v 4 c 0,0.5523 -0.4477,1 -1,1 z"
       id="path11" />
    <path
       fill="none"
       stroke="#000000"
       stroke-linecap="round"
       stroke-linejoin="round"
       stroke-miterlimit="10"
       stroke-width="2"
       d="m 33,44 h -4 c -0.5523,0 -1,-0.4477 -1,-1 v -4 c 0,-0.5523 0.4477,-1 1,-1 h 4 c 0.5523,0 1,0.4477 1,1 v 4 c 0,0.5523 -0.4477,1 -1,1 z"
       id="path12" />
    <circle
       cx="36"
       cy="66"
       r="2"
       fill="#000000"
       stroke="none"
       id="circle12" />
  </g>
</svg>
