<?xml version="1.0" encoding="UTF-8" standalone="no"?>
<svg
   id="emoji"
   viewBox="0 0 42 53"
   version="1.1"
   sodipodi:docname="e1d0.svg"
   width="42"
   height="53"
   xmlns:inkscape="http://www.inkscape.org/namespaces/inkscape"
   xmlns:sodipodi="http://sodipodi.sourceforge.net/DTD/sodipodi-0.dtd"
   xmlns="http://www.w3.org/2000/svg"
   xmlns:svg="http://www.w3.org/2000/svg">
  <defs
     id="defs4" />
  <sodipodi:namedview
     id="namedview4"
     pagecolor="#ffffff"
     bordercolor="#000000"
     borderopacity="0.25"
     inkscape:showpageshadow="2"
     inkscape:pageopacity="0.0"
     inkscape:pagecheckerboard="0"
     inkscape:deskcolor="#d1d1d1" />
  <g
     id="color"
     transform="translate(-15,-11)">
    <circle
       cx="36"
       cy="32"
       r="5"
       fill="#3f3f3f"
       stroke="none"
       id="circle1" />
    <polygon
       fill="#d0cfce"
       stroke="none"
       points="36,37 34,62 38,62 "
       id="polygon1" />
    <polyline
       fill="#9b9b9a"
       stroke="none"
       points="36,37 38,62 35.9802,62 36,37"
       id="polyline1" />
  </g>
  <g
     id="hair"
     transform="translate(-15,-11)" />
  <g
     id="skin"
     transform="translate(-15,-11)" />
  <g
     id="skin-shadow"
     transform="translate(-15,-11)" />
  <g
     id="line"
     transform="translate(-15,-11)">
    <circle
       cx="36"
       cy="32"
       r="5"
       fill="none"
       stroke="#000000"
       stroke-linecap="round"
       stroke-linejoin="round"
       stroke-miterlimit="10"
       stroke-width="2"
       id="circle2" />
    <polyline
       fill="none"
       stroke="#000000"
       stroke-linecap="round"
       stroke-linejoin="round"
       stroke-miterlimit="10"
       stroke-width="2"
       points="35,38 33,63 39,63 37,38"
       id="polyline2" />
    <path
       fill="none"
       stroke="#000000"
       stroke-linecap="round"
       stroke-linejoin="round"
       stroke-miterlimit="10"
       stroke-width="2"
       d="M 42.2646,50.9847 C 50.2388,48.3541 56,40.8554 56,32 56,20.9543 47.0457,12 36,12 24.9543,12 16,20.9543 16,32 c 0,8.8554 5.7612,16.3541 13.7354,18.9847"
       id="path2" />
    <path
       fill="none"
       stroke="#000000"
       stroke-linecap="round"
       stroke-linejoin="round"
       stroke-miterlimit="10"
       stroke-width="2"
       d="M 41.5884,45.9128 C 47.1024,43.6956 51,38.3073 51,32 51,23.7157 44.2843,17 36,17 c -8.2843,0 -15,6.7157 -15,15 0,6.3073 3.8976,11.6956 9.4116,13.9128"
       id="path3" />
    <path
       fill="none"
       stroke="#000000"
       stroke-linecap="round"
       stroke-linejoin="round"
       stroke-miterlimit="10"
       stroke-width="2"
       d="M 40.8953,40.7148 C 43.9401,39.0007 46,35.743 46,32 46,26.4771 41.5228,22 36,22 c -5.5228,0 -10,4.4771 -10,10 0,3.743 2.0599,7.0007 5.1047,8.7148"
       id="path4" />
  </g>
</svg>
