<svg xmlns="http://www.w3.org/2000/svg" xmlns:svg="http://www.w3.org/2000/svg" id="emoji" width="62" height="62" version="1.1" viewBox="0 0 62 62"><g id="color" transform="translate(-5,-5)"><path id="path1" fill="#9b9b9a" d="m 32.6,50.1 c 1,1.8 2.1,2.9 3.4,2.9 3.3,0 6,-7.6 6,-17 0,-4.6 -0.6,-8.8 -1.7,-11.8"/><path id="path2" fill="#d0cfce" d="M 40.3,24.2 C 39.2,21 37.7,19 36,19 c -3.3,0 -6,7.6 -6,17 0,5.9 1,11 2.6,14.1"/><circle id="circle2" cx="56" cy="56" r="10" fill="#fff"/><circle id="circle3" cx="16" cy="56" r="10" fill="#fff"/><circle id="circle4" cx="16" cy="16" r="10" fill="#fff"/><circle id="circle5" cx="56" cy="16" r="10" fill="#fff"/></g><g id="line" transform="translate(-5,-5)"><ellipse id="ellipse5" cx="36" cy="36" fill="none" stroke="#000" stroke-linecap="round" stroke-linejoin="round" stroke-miterlimit="10" stroke-width="2" rx="6" ry="17"/><circle id="circle6" cx="56" cy="56" r="10" fill="none" stroke="#000" stroke-linecap="round" stroke-linejoin="round" stroke-miterlimit="10" stroke-width="2"/><line id="line6" x1="42" x2="48.9" y1="42" y2="48.9" fill="none" stroke="#000" stroke-linecap="round" stroke-linejoin="round" stroke-miterlimit="10" stroke-width="2"/><circle id="circle7" cx="16" cy="56" r="10" fill="none" stroke="#000" stroke-linecap="round" stroke-linejoin="round" stroke-miterlimit="10" stroke-width="2"/><line id="line7" x1="30" x2="23.1" y1="42" y2="48.9" fill="none" stroke="#000" stroke-linecap="round" stroke-linejoin="round" stroke-miterlimit="10" stroke-width="2"/><circle id="circle8" cx="16" cy="16" r="10" fill="none" stroke="#000" stroke-linecap="round" stroke-linejoin="round" stroke-miterlimit="10" stroke-width="2"/><line id="line8" x1="30" x2="23.1" y1="30" y2="23.1" fill="none" stroke="#000" stroke-linecap="round" stroke-linejoin="round" stroke-miterlimit="10" stroke-width="2"/><circle id="circle9" cx="56" cy="16" r="10" fill="none" stroke="#000" stroke-linecap="round" stroke-linejoin="round" stroke-miterlimit="10" stroke-width="2"/><line id="line9" x1="42" x2="48.9" y1="30" y2="23.1" fill="none" stroke="#000" stroke-linecap="round" stroke-linejoin="round" stroke-miterlimit="10" stroke-width="2"/><line id="line10" x1="60.4" x2="51.6" y1="51.6" y2="60.4" fill="none" stroke="#000" stroke-linecap="round" stroke-linejoin="round" stroke-miterlimit="10" stroke-width="2"/><line id="line11" x1="11.6" x2="20.4" y1="51.6" y2="60.4" fill="none" stroke="#000" stroke-linecap="round" stroke-linejoin="round" stroke-miterlimit="10" stroke-width="2"/><line id="line12" x1="11.6" x2="20.4" y1="20.4" y2="11.6" fill="none" stroke="#000" stroke-linecap="round" stroke-linejoin="round" stroke-miterlimit="10" stroke-width="2"/><line id="line13" x1="60.4" x2="51.6" y1="20.4" y2="11.6" fill="none" stroke="#000" stroke-linecap="round" stroke-linejoin="round" stroke-miterlimit="10" stroke-width="2"/></g><g id="color-foreground" transform="translate(-5,-5)"><line id="line14" x1="60.4" x2="51.6" y1="51.6" y2="60.4" fill="none" stroke="#9b9b9a" stroke-linecap="round" stroke-linejoin="round" stroke-miterlimit="10" stroke-width="2.1"/><line id="line15" x1="11.6" x2="20.4" y1="51.6" y2="60.4" fill="none" stroke="#9b9b9a" stroke-linecap="round" stroke-linejoin="round" stroke-miterlimit="10" stroke-width="2.1"/><line id="line16" x1="11.6" x2="20.4" y1="20.4" y2="11.6" fill="none" stroke="#9b9b9a" stroke-linecap="round" stroke-linejoin="round" stroke-miterlimit="10" stroke-width="2.1"/><line id="line17" x1="60.4" x2="51.6" y1="20.4" y2="11.6" fill="none" stroke="#9b9b9a" stroke-linecap="round" stroke-linejoin="round" stroke-miterlimit="10" stroke-width="2.1"/></g></svg>