<svg xmlns="http://www.w3.org/2000/svg" xmlns:svg="http://www.w3.org/2000/svg" id="emoji" width="64" height="42" version="1.1" viewBox="0 0 64 42"><g id="color" transform="translate(-4,-15)"><polygon id="polygon1" fill="#5c9e31" stroke="none" points="63 51 67 46.904 67 28 63 24 63 16 8 16 8 56 63 56"/><polyline id="polyline1" fill="#5c9e31" stroke="none" points="63 56 63 51 67 46.904 67 28 63 24 63 16 56.167 16"/><polygon id="polygon2" fill="#b1cc33" stroke="none" points="8 16 56.167 16 31.333 56 8 56"/><rect id="rect2" width="2" height="9" x="6" y="22" fill="#b1cc33" stroke="none"/><rect id="rect3" width="28" height="4" x="29" y="46" fill="#b1cc33" stroke="none" stroke-linecap="round" stroke-linejoin="round" stroke-miterlimit="10" stroke-width="2"/><rect id="rect4" width="33" height="4" x="24" y="22" fill="#b1cc33" stroke="none" stroke-linecap="round" stroke-linejoin="round" stroke-miterlimit="10" stroke-width="2"/></g><g id="line" transform="translate(-4,-15)"><polyline id="polyline4" fill="none" stroke="#000" stroke-linecap="round" stroke-linejoin="round" stroke-miterlimit="10" stroke-width="2" points="8 22 8 16 63 16 63 24 67 28 67 46.904 63 51 63 56 8 56 8 31"/><rect id="rect5" width="28" height="4" x="29" y="46" fill="none" stroke="#000" stroke-linecap="round" stroke-linejoin="round" stroke-miterlimit="10" stroke-width="2"/><rect id="rect6" width="33" height="4" x="24" y="22" fill="none" stroke="#000" stroke-linecap="round" stroke-linejoin="round" stroke-miterlimit="10" stroke-width="2"/><polyline id="polyline6" fill="none" stroke="#000" stroke-linecap="round" stroke-linejoin="round" stroke-miterlimit="10" stroke-width="2" points="18 30 18 22 5 22 5 31 11.125 31"/><polyline id="polyline7" fill="none" stroke="#000" stroke-linecap="round" stroke-linejoin="round" stroke-miterlimit="10" stroke-width="2" points="14 50 18 50 18 46 14 46"/></g></svg>