<svg xmlns="http://www.w3.org/2000/svg" xmlns:svg="http://www.w3.org/2000/svg" id="emoji" width="50" height="50" version="1.1" viewBox="0 0 50 50"><g id="line-supplement" transform="translate(-11,-11)"><rect id="rect1" width="4" height="4" x="20" y="20" fill="#000"/><rect id="rect2" width="4" height="4" x="20" y="48" fill="#000"/><rect id="rect3" width="4" height="4" x="48" y="20" fill="#000"/></g><g id="color" transform="translate(-11,-11)"><rect id="rect4" width="48" height="48" x="12" y="12" fill="#fff" stroke="#000" stroke-linejoin="round" stroke-width="2"/><rect id="rect5" width="4" height="4" x="20" y="20" fill="#3f3f3f" stroke="#000" stroke-linejoin="round" stroke-width="2"/><rect id="rect6" width="4" height="4" x="20" y="48" fill="#3f3f3f" stroke="#000" stroke-linejoin="round" stroke-width="2"/><rect id="rect7" width="4" height="4" x="48" y="20" fill="#3f3f3f" stroke="#000" stroke-linejoin="round" stroke-width="2"/></g><g id="line" transform="translate(-11,-11)"><circle id="circle7" cx="18" cy="40" r="1" fill="#000"/><circle id="circle8" cx="16" cy="38" r="1" fill="#000"/><circle id="circle9" cx="20" cy="38" r="1" fill="#000"/><circle id="circle10" cx="34" cy="46" r="1" fill="#000"/><circle id="circle11" cx="40" cy="38" r="1" fill="#000"/><circle id="circle12" cx="40" cy="28" r="1" fill="#000"/><circle id="circle13" cx="32" cy="16" r="1" fill="#000"/><circle id="circle14" cx="46" cy="32" r="1" fill="#000"/><circle id="circle15" cx="52" cy="32" r="1" fill="#000"/><circle id="circle16" cx="52" cy="44" r="1" fill="#000"/><circle id="circle17" cx="54" cy="48" r="1" fill="#000"/><circle id="circle18" cx="56" cy="56" r="1" fill="#000"/><circle id="circle19" cx="32" cy="56" r="1" fill="#000"/><circle id="circle20" cx="44" cy="56" r="1" fill="#000"/><circle id="circle21" cx="46" cy="54" r="1" fill="#000"/><circle id="circle22" cx="44" cy="52" r="1" fill="#000"/><circle id="circle23" cx="16" cy="32" r="1" fill="#000"/><circle id="circle24" cx="40" cy="54" r="1" fill="#000"/><rect id="rect24" width="48" height="48" x="12" y="12" fill="none" stroke="#000" stroke-linejoin="round" stroke-width="2"/><rect id="rect25" width="12" height="12" x="16" y="16" fill="none" stroke="#000" stroke-linejoin="round" stroke-width="2"/><rect id="rect26" width="4" height="4" x="20" y="20" fill="none" stroke="#000" stroke-linejoin="round" stroke-width="2"/><rect id="rect27" width="12" height="12" x="16" y="44" fill="none" stroke="#000" stroke-linejoin="round" stroke-width="2"/><rect id="rect28" width="4" height="4" x="20" y="48" fill="none" stroke="#000" stroke-linejoin="round" stroke-width="2"/><rect id="rect29" width="12" height="12" x="44" y="16" fill="none" stroke="#000" stroke-linejoin="round" stroke-width="2"/><rect id="rect30" width="4" height="4" x="48" y="20" fill="none" stroke="#000" stroke-linejoin="round" stroke-width="2"/><path id="path30" fill="none" stroke="#000" stroke-linecap="round" stroke-linejoin="round" stroke-width="2" d="m 18,36 v -2 h 8"/><path id="path31" fill="none" stroke="#000" stroke-linecap="round" stroke-linejoin="round" stroke-width="2" d="M 20,34 V 32"/><path id="path32" fill="none" stroke="#000" stroke-linecap="round" stroke-linejoin="round" stroke-width="2" d="m 24,34 v 6"/><path id="path33" fill="none" stroke="#000" stroke-linecap="round" stroke-linejoin="round" stroke-width="2" d="m 24,38 h 2"/><path id="path34" fill="none" stroke="#000" stroke-linecap="round" stroke-linejoin="round" stroke-width="2" d="M 38,32 V 30"/><path id="path35" fill="none" stroke="#000" stroke-linecap="round" stroke-linejoin="round" stroke-width="2" d="M 56,34 H 54"/><path id="path36" fill="none" stroke="#000" stroke-linecap="round" stroke-linejoin="round" stroke-width="2" d="m 42,42 h 2 v -2"/><path id="path37" fill="none" stroke="#000" stroke-linecap="round" stroke-linejoin="round" stroke-width="2" d="m 28,32 h 2"/><path id="path38" fill="none" stroke="#000" stroke-linecap="round" stroke-linejoin="round" stroke-width="2" d="m 34,32 h 6"/><path id="path39" fill="none" stroke="#000" stroke-linecap="round" stroke-linejoin="round" stroke-width="2" d="m 38,16 v 4 h -2 v 8"/><path id="path40" fill="none" stroke="#000" stroke-linecap="round" stroke-linejoin="round" stroke-width="2" d="m 36,26 h -4 v 2"/><path id="path41" fill="none" stroke="#000" stroke-linecap="round" stroke-linejoin="round" stroke-width="2" d="M 36,20 H 32"/><path id="path42" fill="none" stroke="#000" stroke-linecap="round" stroke-linejoin="round" stroke-width="2" d="M 36,22 H 34 V 18"/><path id="path43" fill="none" stroke="#000" stroke-linecap="round" stroke-linejoin="round" stroke-width="2" d="m 28,36 h 8"/><path id="path44" fill="none" stroke="#000" stroke-linecap="round" stroke-linejoin="round" stroke-width="2" d="m 30,36 v 4 h -2"/><path id="path45" fill="none" stroke="#000" stroke-linecap="round" stroke-linejoin="round" stroke-width="2" d="m 34,36 v 2"/><path id="path46" fill="none" stroke="#000" stroke-linecap="round" stroke-linejoin="round" stroke-width="2" d="m 32,44 v -2 h 6 v 6 h 4 v -2 h 8 v 10"/><path id="path47" fill="none" stroke="#000" stroke-linecap="round" stroke-linejoin="round" stroke-width="2" d="m 36,40 v 4 h 6 m 4,-4 h -4 v 8 h 2"/><path id="path48" fill="none" stroke="#000" stroke-linecap="round" stroke-linejoin="round" stroke-width="2" d="m 48,34 v 4 h 2 v 4 h -2 v 4"/><path id="path49" fill="none" stroke="#000" stroke-linecap="round" stroke-linejoin="round" stroke-width="2" d="m 50,38 v -2 h 2"/><path id="path50" fill="none" stroke="#000" stroke-linecap="round" stroke-linejoin="round" stroke-width="2" d="m 52,50 h -4 v 2"/><path id="path51" fill="none" stroke="#000" stroke-linecap="round" stroke-linejoin="round" stroke-width="2" d="m 32,52 h 2 v 2 h 2 v -4"/><path id="path52" fill="none" stroke="#000" stroke-linecap="round" stroke-linejoin="round" stroke-width="2" d="m 56,32 v 6 h -2"/><path id="path53" fill="none" stroke="#000" stroke-linecap="round" stroke-linejoin="round" stroke-width="2" d="M 44,36 V 34"/><path id="path54" fill="none" stroke="#000" stroke-linecap="round" stroke-linejoin="round" stroke-width="2" d="m 56,42 v 2"/><path id="path55" fill="none" stroke="#000" stroke-linecap="round" stroke-linejoin="round" stroke-width="2" d="m 54,52 h 2"/><path id="path56" fill="none" stroke="#000" stroke-linecap="round" stroke-linejoin="round" stroke-width="2" d="m 40,22 v 2"/></g></svg>