<svg xmlns="http://www.w3.org/2000/svg" xmlns:svg="http://www.w3.org/2000/svg" id="emoji" width="64" height="40" version="1.1" viewBox="0 0 64 40"><g id="color" transform="translate(-4,-16)"><rect id="rect1" width="62" height="38" x="5" y="17" fill="#fff"/></g><g id="line" transform="translate(-4,-16)"><rect id="rect2" width="62" height="38" x="5" y="17" fill="none" stroke="#000" stroke-linejoin="round" stroke-width="2"/><path id="path2" fill="none" stroke="#000" stroke-linecap="round" stroke-linejoin="round" stroke-width="2" d="M 9,21 V 52"/><path id="path3" fill="none" stroke="#000" stroke-linecap="round" stroke-linejoin="round" stroke-width="2" d="M 12,21 V 52"/><path id="path4" fill="none" stroke="#000" stroke-linecap="round" stroke-linejoin="round" stroke-width="2" d="M 12,21 V 52"/><path id="path5" fill="none" stroke="#000" stroke-linecap="round" stroke-linejoin="round" stroke-width="2" d="M 20,21 V 50"/><path id="path6" fill="none" stroke="#000" stroke-linecap="round" stroke-linejoin="round" stroke-width="2" d="M 28,21 V 50"/><path id="path7" fill="#000" stroke="#000" stroke-linecap="round" stroke-linejoin="round" stroke-width="2" d="M 15,50 V 21 h 2 v 29 z"/><path id="path8" fill="#000" stroke="#000" stroke-linecap="round" stroke-linejoin="round" stroke-width="2" d="M 23,50 V 21 h 2 v 29 z"/><path id="path9" fill="#000" stroke="#000" stroke-linecap="round" stroke-linejoin="round" stroke-width="2" d="M 31,50 V 21 h 1 v 29 z"/><path id="path10" fill="none" stroke="#000" stroke-linecap="round" stroke-linejoin="round" stroke-width="2" d="M 46,21 V 50"/><path id="path11" fill="none" stroke="#000" stroke-linecap="round" stroke-linejoin="round" stroke-width="2" d="M 49,21 V 50"/><path id="path12" fill="none" stroke="#000" stroke-linecap="round" stroke-linejoin="round" stroke-width="2" d="M 57,21 V 50"/><path id="path13" fill="#000" stroke="#000" stroke-linecap="round" stroke-linejoin="round" stroke-width="2" d="M 41,50 V 21 h 2 v 29 z"/><path id="path14" fill="#000" stroke="#000" stroke-linecap="round" stroke-linejoin="round" stroke-width="2" d="M 52,50 V 21 h 2 v 29 z"/><path id="path15" fill="none" stroke="#000" stroke-linecap="round" stroke-linejoin="round" stroke-width="2" d="M 60,21 V 52"/><path id="path16" fill="none" stroke="#000" stroke-linecap="round" stroke-linejoin="round" stroke-width="2" d="M 63,21 V 52"/><path id="path17" fill="none" stroke="#000" stroke-linecap="round" stroke-linejoin="round" stroke-width="2" d="M 35,21 V 52"/><path id="path18" fill="none" stroke="#000" stroke-linecap="round" stroke-linejoin="round" stroke-width="2" d="M 38,21 V 52"/></g></svg>