<svg xmlns="http://www.w3.org/2000/svg" xmlns:svg="http://www.w3.org/2000/svg" id="emoji" width="33.908" height="50.522" version="1.1" viewBox="0 0 33.908 50.522"><g id="color" transform="translate(-17.647499,-10.6015)"><polygon id="polygon1" fill="#fff" points="41.754 35.188 49.648 29.209 49.663 45.366"/><circle id="circle1" cx="48.149" cy="21.035" r="3.359" fill="#fcea2b"/><path id="path1" fill="#fcea2b" d="m 48.2023,29.422 -2.3043,6.4495 c -0.0178,0.0499 -0.039,0.0985 -0.0635,0.1454 l -0.0845,0.162 c -0.4851,0.9304 -0.4255,2.051 0.1554,2.9247 l 2.7478,3.495 0.0366,0.0691 0.9329,3.5357 c 0.0406,0.1148 0.0629,0.2352 0.0659,0.3569 l 0.3251,13.0692 c 0,0 -0.7718,1.498 -2.8104,1.4686 -0.5937,-0.0086 -0.107,-0.7351 -0.1645,-1.3261 l -0.2387,-9.6242 c -0.0253,-0.2599 -0.657,-2.1183 -0.8386,-2.3061 L 41.7686,43.565 c -0.4338,-0.4486 -2.2119,-0.1786 -2.6739,0.2409 l -5.1446,4.4486 c -0.0792,0.0719 -0.5145,0.696 -2.3605,1.4526 l -6.7486,2.7236 c -0.0248,0.0421 -0.3644,0.0484 -0.6033,0.0547 l -0.0019,0.0058 c -0.4583,-0.5057 -0.005,-0.7493 0.5427,-1.1565 l 3.2813,-1.866 2.8243,-1.771 c 0.1279,-0.088 1.5759,-1.5934 1.6591,-1.7244 l 3.1785,-4.5161 c 0.0278,-0.0438 0.5981,-0.8174 0.6198,-0.8645 l 1.2332,-4.5136 c 0.8578,-1.1346 3.0064,-5.3775 3.0163,-5.3961 l 1.5773,-2.9886 c 0.5239,-0.9915 0.6845,-1.6065 1.7708,-1.885 l 0.0232,-0.006 c 0.7456,-0.1912 1.5376,-0.0337 2.1534,0.4281 l 0.5549,0.4162 c 0.4339,0.3254 0.7927,0.7403 1.0522,1.2165 l 0.352,0.5266 c 0.2032,0.3041 0.2505,0.6865 0.1275,1.0309 z"/></g><g id="line" transform="translate(-17.647499,-10.6015)"><path id="path2" fill="none" stroke="#000" stroke-linecap="round" stroke-linejoin="round" stroke-width="2" d="m 47.8818,18.6982 c -1.1715,0.1318 -2.084,1.1268 -2.084,2.334 0,1.1837 0.8774,2.1636 2.0161,2.3254"/><path id="path3" fill="none" stroke="#000" stroke-linecap="round" stroke-linejoin="round" stroke-width="2" d="M 47.2033,60.1062 45.9627,49.9164 C 45.8586,49.0615 45.2752,47.8637 44.6662,47.2547 L 42.183,44.7715 c -0.609,-0.609 -1.6486,-1.5584 -2.3102,-2.1097 L 37.581,40.752 c -0.6616,-0.5514 -1.2029,-1.7071 -1.2029,-2.5684 v 0 c 0,-0.8612 0.3375,-2.1845 0.7498,-2.9406 l 3.9479,-7.2377"/><path id="path4" fill="none" stroke="#000" stroke-linecap="round" stroke-linejoin="round" stroke-width="2" d="m 45.1097,35.3333 c 0,0 -0.203,0.4652 -0.4511,1.0337 -0.2481,0.5686 -0.0728,1.6282 0.3896,2.3548 l 2.6768,4.2064"/><path id="path5" fill="none" stroke="#000" stroke-linecap="round" stroke-linejoin="round" stroke-width="2" d="m 36.3781,38.9667 -4.5827,6.5466 c -0.4939,0.7056 -1.5048,1.641 -2.2466,2.0786 l -5.2631,3.106 c -0.7417,0.4377 -1.1724,1.3244 -0.9571,1.9703 0.2153,0.6459 1.0432,0.9066 1.8398,0.5792 l 6.6294,-2.7243 c 0.7966,-0.3273 1.9751,-1.0633 2.6187,-1.6355 l 5.8762,-5.2233"/><path id="path6" fill="none" stroke="#000" stroke-linecap="round" stroke-linejoin="round" stroke-width="2" d="m 41.0758,28.0054 c 1.5659,-3.1318 3.4128,-3.3141 4.7221,-2.8053 1.2822,0.4985 1.8909,1.7521 1.855,3.0018"/><line id="line6" x1="44.897" x2="47.767" y1="28.865" y2="33.16" fill="none" stroke="#000" stroke-linecap="round" stroke-linejoin="round" stroke-width="2"/><line id="line7" x1="50.555" x2="50.555" y1="11.601" y2="60.124" fill="none" stroke="#000" stroke-linecap="round" stroke-linejoin="round" stroke-width="2"/><line id="line8" x1="18.647" x2="33.816" y1="24.155" y2="24.155" fill="none" stroke="#000" stroke-linecap="round" stroke-linejoin="round" stroke-width="2"/><line id="line9" x1="30.282" x2="34.052" y1="20.378" y2="24.148" fill="none" stroke="#000" stroke-linecap="round" stroke-linejoin="round" stroke-width="2"/><line id="line10" x1="30.282" x2="34.052" y1="27.949" y2="24.179" fill="none" stroke="#000" stroke-linecap="round" stroke-linejoin="round" stroke-width="2"/></g></svg>