<svg xmlns="http://www.w3.org/2000/svg" xmlns:svg="http://www.w3.org/2000/svg" id="emoji" width="61" height="52.763" version="1.1" viewBox="0 0 61 52.763"><g id="color" transform="translate(-6,-9.2368)"><polygon id="polygon1" fill="#fff" stroke="none" points="23 41.711 23 61 49 61 49 41.711 36 30"/><polyline id="polyline1" fill="#fff" stroke="none" points="31.028 42.624 21.945 34.123 15 28.923 7 36.13 7 48 23 48"/><polyline id="polyline2" fill="#fff" stroke="none" points="49 59 66 59 66 46.388 56.848 38.362 47.041 46.697"/><polyline id="polyline3" fill="#fff" stroke="none" points="41.6 35 41.6 25.376 36 20 30.4 25.376 30.4 35"/><polyline id="polyline4" fill="#d0cfce" stroke="none" points="49 61 49 42 32 61"/><polyline id="polyline5" fill="#d0cfce" stroke="none" points="23 48 23 40.333 15.333 48"/><polyline id="polyline6" fill="#d0cfce" stroke="none" points="66 59 66 47 56 59"/></g><g id="line" transform="translate(-6,-9.2368)"><path id="path6" fill="#000" stroke="none" d="m 35.9999,20.7631 c -0.5789,0 -1.0484,-0.4694 -1.0484,-1.0484 v -9.4295 c 0,-0.579 0.4695,-1.0484 1.0484,-1.0484 0.579,0 1.0484,0.4694 1.0484,1.0484 v 9.4295 c 1e-4,0.5791 -0.4693,1.0484 -1.0484,1.0484 z"/><path id="path7" fill="#000" stroke="none" d="m 39.8235,15.1571 h -7.647 c -0.579,0 -1.0484,-0.4694 -1.0484,-1.0484 0,-0.5789 0.4694,-1.0484 1.0484,-1.0484 h 7.647 c 0.579,0 1.0484,0.4695 1.0484,1.0484 0,0.579 -0.4694,1.0484 -1.0484,1.0484 z"/><polygon id="polygon7" fill="none" stroke="#000" stroke-linecap="round" stroke-linejoin="round" stroke-miterlimit="10" stroke-width="2" points="23 41.711 23 61 49 61 49 41.711 36 30"/><polyline id="polyline7" fill="none" stroke="#000" stroke-linecap="round" stroke-linejoin="round" stroke-miterlimit="10" stroke-width="2" points="23 36.13 15 28.923 7 36.13 7 48 23 48"/><polyline id="polyline8" fill="none" stroke="#000" stroke-linecap="round" stroke-linejoin="round" stroke-miterlimit="10" stroke-width="2" points="49 59 66 59 66 46.388 57.5 38.731 52.857 42.857"/><polyline id="polyline9" fill="none" stroke="#000" stroke-linecap="round" stroke-linejoin="round" stroke-miterlimit="10" stroke-width="2" points="41.6 35 41.6 25.376 36 20 30.4 25.376 30.4 35"/></g></svg>