<?xml version="1.0" encoding="UTF-8" standalone="no"?>
<svg
   id="emoji"
   viewBox="0 0 23 56.999901"
   version="1.1"
   sodipodi:docname="e208.svg"
   width="23"
   height="56.999901"
   xmlns:inkscape="http://www.inkscape.org/namespaces/inkscape"
   xmlns:sodipodi="http://sodipodi.sourceforge.net/DTD/sodipodi-0.dtd"
   xmlns="http://www.w3.org/2000/svg"
   xmlns:svg="http://www.w3.org/2000/svg">
  <defs
     id="defs16" />
  <sodipodi:namedview
     id="namedview16"
     pagecolor="#ffffff"
     bordercolor="#000000"
     borderopacity="0.25"
     inkscape:showpageshadow="2"
     inkscape:pageopacity="0.0"
     inkscape:pagecheckerboard="0"
     inkscape:deskcolor="#d1d1d1" />
  <g
     id="color"
     transform="translate(-25,-7.0001009)">
    <polygon
       fill="#ea5a47"
       points="45.95,22.86 37.116,22.86 28.282,22.86 32.699,17.05 37.116,11.241 41.533,17.05 "
       id="polygon1" />
    <polygon
       fill="#d22f27"
       points="41.207,18.386 42.685,15.873 44.163,13.359 45.556,15.921 46.949,18.484 44.078,18.435 "
       id="polygon2" />
    <polyline
       fill="#d0cfce"
       points="40.602 18.764 43.87 21.144 43.95 22.832 46.048 22.731 45.846 18.51"
       id="polyline2" />
    <polygon
       fill="#d0cfce"
       stroke="#d0cfce"
       stroke-miterlimit="10"
       stroke-width="2"
       points="35,15.114 35,23.916 35.833,23.916 39.167,23.916 40,23.916 40,15.114 39.167,13.353 35.833,13.353 "
       id="polygon3" />
    <polygon
       fill="#d22f27"
       points="33.857,14.161 35.695,11.081 37.532,8 39.265,11.141 40.998,14.283 37.428,14.222 "
       id="polygon4" />
    <rect
       x="26"
       y="22.860201"
       width="10.5"
       height="40.139801"
       fill="#9b9b9a"
       id="rect4" />
    <rect
       x="36.5"
       y="22.860201"
       width="10.5"
       height="40.139801"
       fill="#d0cfce"
       id="rect5" />
    <polygon
       fill="#9b9b9a"
       points="27.05,19.2 27.05,24 28.1,24 31.25,24 31.25,21.6 32.3,19.2 31.25,18 28.1,18 "
       id="polygon5" />
    <polygon
       fill="#d22f27"
       points="26.507,17.33 28.302,14.32 30.098,11.311 31.791,14.38 33.484,17.449 29.995,17.389 "
       id="polygon6" />
  </g>
  <g
     id="line"
     transform="translate(-25,-7.0001009)">
    <polygon
       fill="none"
       stroke="#000000"
       stroke-linecap="round"
       stroke-linejoin="round"
       stroke-width="2"
       points="41.207,18.386 42.685,15.873 44.163,13.359 45.556,15.921 46.949,18.484 44.078,18.435 "
       id="polygon7" />
    <polyline
       fill="none"
       stroke="#000000"
       stroke-linecap="round"
       stroke-linejoin="round"
       stroke-width="2"
       points="40.7 19.691 40.7 15.202 39.65 13.353 35.45 13.353 34.4 15.202 34.4 19.691"
       id="polyline7" />
    <polygon
       fill="none"
       stroke="#000000"
       stroke-linecap="round"
       stroke-linejoin="round"
       stroke-width="2"
       points="33.857,14.161 35.695,11.081 37.532,8 39.265,11.141 40.998,14.283 37.428,14.222 "
       id="polygon8" />
    <rect
       x="26"
       y="22.860201"
       width="10.5"
       height="40.139801"
       fill="none"
       stroke="#000000"
       stroke-linecap="round"
       stroke-linejoin="round"
       stroke-width="2"
       id="rect8" />
    <rect
       x="36.5"
       y="22.860201"
       width="10.5"
       height="40.139801"
       fill="none"
       stroke="#000000"
       stroke-linecap="round"
       stroke-linejoin="round"
       stroke-width="2"
       id="rect9" />
    <line
       x1="39.650002"
       x2="39.650002"
       y1="27.0854"
       y2="29.198"
       fill="none"
       stroke="#000000"
       stroke-linecap="round"
       stroke-linejoin="round"
       stroke-width="2"
       id="line9" />
    <line
       x1="42.799999"
       x2="42.799999"
       y1="37.648499"
       y2="39.7612"
       fill="none"
       stroke="#000000"
       stroke-linecap="round"
       stroke-linejoin="round"
       stroke-width="2"
       id="line10" />
    <line
       x1="39.650002"
       x2="39.650002"
       y1="50.324299"
       y2="52.436901"
       fill="none"
       stroke="#000000"
       stroke-linecap="round"
       stroke-linejoin="round"
       stroke-width="2"
       id="line11" />
    <line
       x1="27.049999"
       x2="27.049999"
       y1="17.5786"
       y2="21.8039"
       fill="none"
       stroke="#000000"
       stroke-linecap="round"
       stroke-linejoin="round"
       stroke-width="2"
       id="line12" />
    <polygon
       fill="none"
       stroke="#000000"
       stroke-linejoin="round"
       stroke-width="2"
       points="26.507,17.33 28.302,14.32 30.098,11.311 31.791,14.38 33.484,17.449 29.995,17.389 "
       id="polygon12" />
    <line
       x1="45.950001"
       x2="45.950001"
       y1="22.860201"
       y2="18.634899"
       fill="none"
       stroke="#000000"
       stroke-linecap="round"
       stroke-linejoin="round"
       stroke-width="2"
       id="line13" />
    <line
       x1="30.200001"
       x2="30.200001"
       y1="37.648499"
       y2="39.7612"
       fill="none"
       stroke="#000000"
       stroke-linecap="round"
       stroke-linejoin="round"
       stroke-width="2"
       id="line14" />
    <line
       x1="33.349998"
       x2="33.349998"
       y1="50.324299"
       y2="52.436901"
       fill="none"
       stroke="#000000"
       stroke-linecap="round"
       stroke-linejoin="round"
       stroke-width="2"
       id="line15" />
    <line
       x1="37.549999"
       x2="37.560501"
       y1="17.5786"
       y2="17.5786"
       fill="none"
       stroke="#000000"
       stroke-linecap="round"
       stroke-linejoin="round"
       stroke-width="2"
       id="line16" />
  </g>
</svg>
