<?xml version="1.0" encoding="UTF-8" standalone="no"?>
<svg
   id="emoji"
   viewBox="0 0 38.000042 54"
   version="1.1"
   sodipodi:docname="e209.svg"
   width="38.000042"
   height="54"
   xmlns:inkscape="http://www.inkscape.org/namespaces/inkscape"
   xmlns:sodipodi="http://sodipodi.sourceforge.net/DTD/sodipodi-0.dtd"
   xmlns="http://www.w3.org/2000/svg"
   xmlns:svg="http://www.w3.org/2000/svg">
  <defs
     id="defs26" />
  <sodipodi:namedview
     id="namedview26"
     pagecolor="#ffffff"
     bordercolor="#000000"
     borderopacity="0.25"
     inkscape:showpageshadow="2"
     inkscape:pageopacity="0.0"
     inkscape:pagecheckerboard="0"
     inkscape:deskcolor="#d1d1d1" />
  <g
     id="color"
     transform="translate(-16.999957,-7)">
    <polygon
       fill="#3f3f3f"
       points="37,15 37,13 35,13 35,15 34,15 34,18 33,18 33,26 39,26 39,18 38,18 38,15 "
       id="polygon1" />
    <path
       fill="#3f3f3f"
       d="m 20,38 h 9 v -6 h 0.0487 l 3.4757,-4 1.1419,-1.3143 h -2.2958 l -9.2572,5.1429 a 13.3413,13.3413 0 0 1 -1.0285,3.0856 4.99,4.99 0 0 1 -3.0857,2.0572 H 18 V 38 Z"
       id="path1" />
    <path
       fill="#3f3f3f"
       d="M 50.9143,34.9142 A 13.3441,13.3441 0 0 1 49.8857,31.8286 L 40.6286,26.6857 H 38.3337 L 39.4756,28 42.9513,32 H 43 v 6 h 11 v -1.0286 a 4.99,4.99 0 0 1 -3.0857,-2.0572 z"
       id="path2" />
    <polygon
       fill="#e67a94"
       points="42.951,32 39.476,28 36,24 32.524,28 29.049,32 27,32 29,38 20,38 20,51 20,60 52,60 52,51 52,38 43,38 45,32 "
       id="polygon2" />
    <rect
       x="20"
       y="51"
       width="32"
       height="10"
       fill="#d0cfce"
       id="rect2" />
    <circle
       cx="36"
       cy="32"
       r="2"
       fill="#ffffff"
       id="circle2" />
    <rect
       x="34"
       y="52"
       rx="1.4085"
       width="5"
       height="8"
       fill="#a57939"
       id="rect3" />
  </g>
  <g
     id="line"
     transform="translate(-16.999957,-7)">
    <polyline
       fill="none"
       stroke="#000000"
       stroke-linecap="round"
       stroke-linejoin="round"
       stroke-width="2"
       points="39 26 39 18 38 18 38 15 37 15 37 13 35 13 35 15 34 15 34 18 33 18 33 26"
       id="polyline3" />
    <rect
       x="34"
       y="52"
       rx="1.4085"
       width="5"
       height="8"
       fill="none"
       stroke="#000000"
       stroke-linecap="round"
       stroke-linejoin="round"
       stroke-width="2"
       id="rect4" />
    <line
       x1="36"
       x2="36"
       y1="8"
       y2="13"
       fill="none"
       stroke="#000000"
       stroke-linecap="round"
       stroke-linejoin="round"
       stroke-width="2"
       id="line4" />
    <line
       x1="33.650002"
       x2="33.650002"
       y1="42.0854"
       y2="44.198002"
       fill="none"
       stroke="#000000"
       stroke-linecap="round"
       stroke-linejoin="round"
       stroke-width="2"
       id="line5" />
    <line
       x1="36.650002"
       x2="36.650002"
       y1="42.0854"
       y2="44.198002"
       fill="none"
       stroke="#000000"
       stroke-linecap="round"
       stroke-linejoin="round"
       stroke-width="2"
       id="line6" />
    <line
       x1="39.650002"
       x2="39.650002"
       y1="42.0854"
       y2="44.198002"
       fill="none"
       stroke="#000000"
       stroke-linecap="round"
       stroke-linejoin="round"
       stroke-width="2"
       id="line7" />
    <line
       x1="33.650002"
       x2="33.650002"
       y1="47.0854"
       y2="49.198002"
       fill="none"
       stroke="#000000"
       stroke-linecap="round"
       stroke-linejoin="round"
       stroke-width="2"
       id="line8" />
    <line
       x1="36.650002"
       x2="36.650002"
       y1="47.0854"
       y2="49.198002"
       fill="none"
       stroke="#000000"
       stroke-linecap="round"
       stroke-linejoin="round"
       stroke-width="2"
       id="line9" />
    <line
       x1="39.650002"
       x2="39.650002"
       y1="47.0854"
       y2="49.198002"
       fill="none"
       stroke="#000000"
       stroke-linecap="round"
       stroke-linejoin="round"
       stroke-width="2"
       id="line10" />
    <line
       x1="23.65"
       x2="23.65"
       y1="41.0854"
       y2="43.198002"
       fill="none"
       stroke="#000000"
       stroke-linecap="round"
       stroke-linejoin="round"
       stroke-width="2"
       id="line11" />
    <line
       x1="26.65"
       x2="26.65"
       y1="41.0854"
       y2="43.198002"
       fill="none"
       stroke="#000000"
       stroke-linecap="round"
       stroke-linejoin="round"
       stroke-width="2"
       id="line12" />
    <line
       x1="23.65"
       x2="23.65"
       y1="46.0854"
       y2="48.198002"
       fill="none"
       stroke="#000000"
       stroke-linecap="round"
       stroke-linejoin="round"
       stroke-width="2"
       id="line13" />
    <line
       x1="26.65"
       x2="26.65"
       y1="46.0854"
       y2="48.198002"
       fill="none"
       stroke="#000000"
       stroke-linecap="round"
       stroke-linejoin="round"
       stroke-width="2"
       id="line14" />
    <line
       x1="45.650002"
       x2="45.650002"
       y1="41.0854"
       y2="43.198002"
       fill="none"
       stroke="#000000"
       stroke-linecap="round"
       stroke-linejoin="round"
       stroke-width="2"
       id="line15" />
    <line
       x1="48.650002"
       x2="48.650002"
       y1="41.0854"
       y2="43.198002"
       fill="none"
       stroke="#000000"
       stroke-linecap="round"
       stroke-linejoin="round"
       stroke-width="2"
       id="line16" />
    <line
       x1="45.650002"
       x2="45.650002"
       y1="46.0854"
       y2="48.198002"
       fill="none"
       stroke="#000000"
       stroke-linecap="round"
       stroke-linejoin="round"
       stroke-width="2"
       id="line17" />
    <line
       x1="48.650002"
       x2="48.650002"
       y1="46.0854"
       y2="48.198002"
       fill="none"
       stroke="#000000"
       stroke-linecap="round"
       stroke-linejoin="round"
       stroke-width="2"
       id="line18" />
    <line
       x1="33.650002"
       x2="33.650002"
       y1="37.0854"
       y2="39.198002"
       fill="none"
       stroke="#000000"
       stroke-linecap="round"
       stroke-linejoin="round"
       stroke-width="2"
       id="line19" />
    <line
       x1="36.650002"
       x2="36.650002"
       y1="37.0854"
       y2="39.198002"
       fill="none"
       stroke="#000000"
       stroke-linecap="round"
       stroke-linejoin="round"
       stroke-width="2"
       id="line20" />
    <line
       x1="39.650002"
       x2="39.650002"
       y1="37.0854"
       y2="39.198002"
       fill="none"
       stroke="#000000"
       stroke-linecap="round"
       stroke-linejoin="round"
       stroke-width="2"
       id="line21" />
    <line
       x1="23.65"
       x2="23.65"
       y1="53.0854"
       y2="55.198002"
       fill="none"
       stroke="#000000"
       stroke-linecap="round"
       stroke-linejoin="round"
       stroke-width="2"
       id="line22" />
    <line
       x1="26.65"
       x2="26.65"
       y1="53.0854"
       y2="55.198002"
       fill="none"
       stroke="#000000"
       stroke-linecap="round"
       stroke-linejoin="round"
       stroke-width="2"
       id="line23" />
    <line
       x1="45.650002"
       x2="45.650002"
       y1="53.0854"
       y2="55.198002"
       fill="none"
       stroke="#000000"
       stroke-linecap="round"
       stroke-linejoin="round"
       stroke-width="2"
       id="line24" />
    <line
       x1="48.650002"
       x2="48.650002"
       y1="53.0854"
       y2="55.198002"
       fill="none"
       stroke="#000000"
       stroke-linecap="round"
       stroke-linejoin="round"
       stroke-width="2"
       id="line25" />
    <polygon
       fill="none"
       stroke="#000000"
       stroke-linecap="round"
       stroke-linejoin="round"
       stroke-width="2"
       points="42.951,32 39.476,28 36,24 32.524,28 29.049,32 27,32 29,38 20,38 20,51 20,60 52,60 52,51 52,38 43,38 45,32 "
       id="polygon25" />
    <circle
       cx="36"
       cy="32"
       r="2"
       fill="none"
       stroke="#000000"
       stroke-miterlimit="10"
       stroke-width="2"
       id="circle25" />
    <path
       fill="none"
       stroke="#000000"
       stroke-linecap="round"
       stroke-linejoin="round"
       stroke-width="2"
       d="m 33.6663,26.6857 h -2.2958 l -9.2572,5.1429 a 13.3413,13.3413 0 0 1 -1.0285,3.0856 4.99,4.99 0 0 1 -3.0857,2.0572 H 18 V 38 h 2"
       id="path25" />
    <path
       fill="none"
       stroke="#000000"
       stroke-linecap="round"
       stroke-linejoin="round"
       stroke-width="2"
       d="m 52,38 h 2 v -1.0286 a 4.99,4.99 0 0 1 -3.0857,-2.0572 13.3441,13.3441 0 0 1 -1.0286,-3.0856 l -9.2571,-5.1429 h -2.2949"
       id="path26" />
  </g>
</svg>
