<svg xmlns="http://www.w3.org/2000/svg" xmlns:svg="http://www.w3.org/2000/svg" id="emoji" width="38" height="54" version="1.1" viewBox="0 0 38 54"><g id="color" transform="translate(-16.999957,-7)"><polygon id="polygon1" fill="#3f3f3f" points="37 15 37 13 35 13 35 15 34 15 34 18 33 18 33 26 39 26 39 18 38 18 38 15"/><path id="path1" fill="#3f3f3f" d="m 20,38 h 9 v -6 h 0.0487 l 3.4757,-4 1.1419,-1.3143 h -2.2958 l -9.2572,5.1429 a 13.3413,13.3413 0 0 1 -1.0285,3.0856 4.99,4.99 0 0 1 -3.0857,2.0572 H 18 V 38 Z"/><path id="path2" fill="#3f3f3f" d="M 50.9143,34.9142 A 13.3441,13.3441 0 0 1 49.8857,31.8286 L 40.6286,26.6857 H 38.3337 L 39.4756,28 42.9513,32 H 43 v 6 h 11 v -1.0286 a 4.99,4.99 0 0 1 -3.0857,-2.0572 z"/><polygon id="polygon2" fill="#e67a94" points="42.951 32 39.476 28 36 24 32.524 28 29.049 32 27 32 29 38 20 38 20 51 20 60 52 60 52 51 52 38 43 38 45 32"/><rect id="rect2" width="32" height="10" x="20" y="51" fill="#d0cfce"/><circle id="circle2" cx="36" cy="32" r="2" fill="#fff"/><rect id="rect3" width="5" height="8" x="34" y="52" fill="#a57939" rx="1.409"/></g><g id="line" transform="translate(-16.999957,-7)"><polyline id="polyline3" fill="none" stroke="#000" stroke-linecap="round" stroke-linejoin="round" stroke-width="2" points="39 26 39 18 38 18 38 15 37 15 37 13 35 13 35 15 34 15 34 18 33 18 33 26"/><rect id="rect4" width="5" height="8" x="34" y="52" fill="none" stroke="#000" stroke-linecap="round" stroke-linejoin="round" stroke-width="2" rx="1.409"/><line id="line4" x1="36" x2="36" y1="8" y2="13" fill="none" stroke="#000" stroke-linecap="round" stroke-linejoin="round" stroke-width="2"/><line id="line5" x1="33.65" x2="33.65" y1="42.085" y2="44.198" fill="none" stroke="#000" stroke-linecap="round" stroke-linejoin="round" stroke-width="2"/><line id="line6" x1="36.65" x2="36.65" y1="42.085" y2="44.198" fill="none" stroke="#000" stroke-linecap="round" stroke-linejoin="round" stroke-width="2"/><line id="line7" x1="39.65" x2="39.65" y1="42.085" y2="44.198" fill="none" stroke="#000" stroke-linecap="round" stroke-linejoin="round" stroke-width="2"/><line id="line8" x1="33.65" x2="33.65" y1="47.085" y2="49.198" fill="none" stroke="#000" stroke-linecap="round" stroke-linejoin="round" stroke-width="2"/><line id="line9" x1="36.65" x2="36.65" y1="47.085" y2="49.198" fill="none" stroke="#000" stroke-linecap="round" stroke-linejoin="round" stroke-width="2"/><line id="line10" x1="39.65" x2="39.65" y1="47.085" y2="49.198" fill="none" stroke="#000" stroke-linecap="round" stroke-linejoin="round" stroke-width="2"/><line id="line11" x1="23.65" x2="23.65" y1="41.085" y2="43.198" fill="none" stroke="#000" stroke-linecap="round" stroke-linejoin="round" stroke-width="2"/><line id="line12" x1="26.65" x2="26.65" y1="41.085" y2="43.198" fill="none" stroke="#000" stroke-linecap="round" stroke-linejoin="round" stroke-width="2"/><line id="line13" x1="23.65" x2="23.65" y1="46.085" y2="48.198" fill="none" stroke="#000" stroke-linecap="round" stroke-linejoin="round" stroke-width="2"/><line id="line14" x1="26.65" x2="26.65" y1="46.085" y2="48.198" fill="none" stroke="#000" stroke-linecap="round" stroke-linejoin="round" stroke-width="2"/><line id="line15" x1="45.65" x2="45.65" y1="41.085" y2="43.198" fill="none" stroke="#000" stroke-linecap="round" stroke-linejoin="round" stroke-width="2"/><line id="line16" x1="48.65" x2="48.65" y1="41.085" y2="43.198" fill="none" stroke="#000" stroke-linecap="round" stroke-linejoin="round" stroke-width="2"/><line id="line17" x1="45.65" x2="45.65" y1="46.085" y2="48.198" fill="none" stroke="#000" stroke-linecap="round" stroke-linejoin="round" stroke-width="2"/><line id="line18" x1="48.65" x2="48.65" y1="46.085" y2="48.198" fill="none" stroke="#000" stroke-linecap="round" stroke-linejoin="round" stroke-width="2"/><line id="line19" x1="33.65" x2="33.65" y1="37.085" y2="39.198" fill="none" stroke="#000" stroke-linecap="round" stroke-linejoin="round" stroke-width="2"/><line id="line20" x1="36.65" x2="36.65" y1="37.085" y2="39.198" fill="none" stroke="#000" stroke-linecap="round" stroke-linejoin="round" stroke-width="2"/><line id="line21" x1="39.65" x2="39.65" y1="37.085" y2="39.198" fill="none" stroke="#000" stroke-linecap="round" stroke-linejoin="round" stroke-width="2"/><line id="line22" x1="23.65" x2="23.65" y1="53.085" y2="55.198" fill="none" stroke="#000" stroke-linecap="round" stroke-linejoin="round" stroke-width="2"/><line id="line23" x1="26.65" x2="26.65" y1="53.085" y2="55.198" fill="none" stroke="#000" stroke-linecap="round" stroke-linejoin="round" stroke-width="2"/><line id="line24" x1="45.65" x2="45.65" y1="53.085" y2="55.198" fill="none" stroke="#000" stroke-linecap="round" stroke-linejoin="round" stroke-width="2"/><line id="line25" x1="48.65" x2="48.65" y1="53.085" y2="55.198" fill="none" stroke="#000" stroke-linecap="round" stroke-linejoin="round" stroke-width="2"/><polygon id="polygon25" fill="none" stroke="#000" stroke-linecap="round" stroke-linejoin="round" stroke-width="2" points="42.951 32 39.476 28 36 24 32.524 28 29.049 32 27 32 29 38 20 38 20 51 20 60 52 60 52 51 52 38 43 38 45 32"/><circle id="circle25" cx="36" cy="32" r="2" fill="none" stroke="#000" stroke-miterlimit="10" stroke-width="2"/><path id="path25" fill="none" stroke="#000" stroke-linecap="round" stroke-linejoin="round" stroke-width="2" d="m 33.6663,26.6857 h -2.2958 l -9.2572,5.1429 a 13.3413,13.3413 0 0 1 -1.0285,3.0856 4.99,4.99 0 0 1 -3.0857,2.0572 H 18 V 38 h 2"/><path id="path26" fill="none" stroke="#000" stroke-linecap="round" stroke-linejoin="round" stroke-width="2" d="m 52,38 h 2 v -1.0286 a 4.99,4.99 0 0 1 -3.0857,-2.0572 13.3441,13.3441 0 0 1 -1.0286,-3.0856 l -9.2571,-5.1429 h -2.2949"/></g></svg>