<?xml version="1.0" encoding="UTF-8" standalone="no"?>
<svg
   id="emoji"
   viewBox="0 0 50 49"
   version="1.1"
   sodipodi:docname="e20c.svg"
   width="50"
   height="49"
   xmlns:inkscape="http://www.inkscape.org/namespaces/inkscape"
   xmlns:sodipodi="http://sodipodi.sourceforge.net/DTD/sodipodi-0.dtd"
   xmlns="http://www.w3.org/2000/svg"
   xmlns:svg="http://www.w3.org/2000/svg">
  <defs
     id="defs37" />
  <sodipodi:namedview
     id="namedview37"
     pagecolor="#ffffff"
     bordercolor="#000000"
     borderopacity="0.25"
     inkscape:showpageshadow="2"
     inkscape:pageopacity="0.0"
     inkscape:pagecheckerboard="0"
     inkscape:deskcolor="#d1d1d1" />
  <g
     id="color"
     transform="translate(-11,-12)">
    <rect
       x="12"
       y="13"
       width="48"
       height="47"
       fill="#d0cfce"
       id="rect1" />
    <path
       fill="#d0cfce"
       stroke="#9b9b9a"
       stroke-linejoin="round"
       stroke-width="2"
       d="m 44,27 h 10 l -2,5 h -6 z"
       id="path1" />
    <path
       fill="none"
       stroke="#9b9b9a"
       stroke-linejoin="round"
       stroke-width="2"
       d="M 43.5,34.5 40,31 h -4 v -4 h 8"
       id="path2" />
    <path
       fill="none"
       stroke="#9b9b9a"
       stroke-linejoin="round"
       stroke-width="2"
       d="M 42,38 H 36 V 31"
       id="path3" />
    <path
       fill="none"
       stroke="#9b9b9a"
       stroke-linejoin="round"
       stroke-width="2"
       d="M 54.5,34.5 58,31 h 1"
       id="path4" />
    <path
       fill="none"
       stroke="#9b9b9a"
       stroke-linejoin="round"
       stroke-width="2"
       d="m 56,38 h 3"
       id="path5" />
    <path
       fill="none"
       stroke="#9b9b9a"
       stroke-linejoin="round"
       stroke-width="2"
       d="m 56,45 h 3"
       id="path6" />
    <path
       fill="none"
       stroke="#9b9b9a"
       stroke-linejoin="round"
       stroke-width="2"
       d="m 56,52 h 3"
       id="path7" />
    <path
       fill="none"
       stroke="#9b9b9a"
       stroke-linejoin="round"
       stroke-width="2"
       d="m 36,45 h 5"
       id="path8" />
    <path
       fill="none"
       stroke="#9b9b9a"
       stroke-linejoin="round"
       stroke-width="2"
       d="m 36,52 h 5"
       id="path9" />
    <path
       fill="#a57939"
       fill-rule="evenodd"
       d="m 42,39 c 0,-3.866 3.134,-7 7,-7 3.866,0 7,3.134 7,7 V 60 H 42 Z"
       id="path10" />
    <rect
       x="17"
       y="40"
       width="16"
       height="14"
       fill="#3f3f3f"
       id="rect10" />
    <rect
       x="50"
       y="40"
       width="4"
       height="18"
       fill="#6a462f"
       id="rect11" />
    <rect
       x="44"
       y="40"
       width="4"
       height="18"
       fill="#6a462f"
       id="rect12" />
    <path
       fill="#6a462f"
       fill-rule="evenodd"
       d="m 44,39 c 0,-2.7614 2.2386,-5 5,-5 2.7614,0 5,2.2386 5,5 z"
       id="path12" />
    <path
       fill="none"
       stroke="#9b9b9a"
       stroke-width="2"
       d="m 54,27 h 5"
       id="path13" />
    <g
       id="g23">
      <path
         fill="none"
         stroke="#ea5a47"
         stroke-width="4"
         d="M 17,37 V 27"
         id="path14" />
      <path
         fill="none"
         stroke="#ea5a47"
         stroke-width="4"
         d="M 25,37 V 27"
         id="path15" />
      <path
         fill="none"
         stroke="#ea5a47"
         stroke-width="4"
         d="M 33,37 V 27"
         id="path16" />
      <path
         fill="none"
         stroke="#ffffff"
         stroke-width="4"
         d="M 29,37 V 27"
         id="path17" />
      <path
         fill="none"
         stroke="#ffffff"
         stroke-width="4"
         d="M 21,37 V 27"
         id="path18" />
      <path
         fill="none"
         stroke="#d22f27"
         stroke-width="4"
         d="M 17,39 V 37"
         id="path19" />
      <path
         fill="none"
         stroke="#d22f27"
         stroke-width="4"
         d="M 25,39 V 37"
         id="path20" />
      <path
         fill="none"
         stroke="#d22f27"
         stroke-width="4"
         d="M 33,39 V 37"
         id="path21" />
      <path
         fill="none"
         stroke="#d0cfce"
         stroke-width="4"
         d="M 29,39 V 37"
         id="path22" />
      <path
         fill="none"
         stroke="#d0cfce"
         stroke-width="4"
         d="M 21,39 V 37"
         id="path23" />
    </g>
  </g>
  <g
     id="line"
     transform="translate(-11,-12)">
    <path
       fill="none"
       stroke="#000000"
       stroke-linecap="round"
       stroke-width="2"
       d="M 18,54 H 32"
       id="path24" />
    <path
       d="m 15,27 v -1 c -0.5523,0 -1,0.4477 -1,1 z m 20,0 h 1 c 0,-0.5523 -0.4477,-1 -1,-1 z M 20,38 c 0,-0.5523 -0.4477,-1 -1,-1 -0.5523,0 -1,0.4477 -1,1 z m 4,0 c 0,-0.5523 -0.4477,-1 -1,-1 -0.5523,0 -1,0.4477 -1,1 z m 4,0 c 0,-0.5523 -0.4477,-1 -1,-1 -0.5523,0 -1,0.4477 -1,1 z m 4,0 c 0,-0.5523 -0.4477,-1 -1,-1 -0.5523,0 -1,0.4477 -1,1 z M 15,28 H 35 V 26 H 15 Z m 1,10 V 27 h -2 v 11 z m 1,1 c -0.5523,0 -1,-0.4477 -1,-1 h -2 c 0,1.6569 1.3431,3 3,3 z m 1,-1 c 0,0.5523 -0.4477,1 -1,1 v 2 c 1.6569,0 3,-1.3431 3,-3 z m 3,1 c -0.5523,0 -1,-0.4477 -1,-1 h -2 c 0,1.6569 1.3431,3 3,3 z m 1,-1 c 0,0.5523 -0.4477,1 -1,1 v 2 c 1.6569,0 3,-1.3431 3,-3 z m 3,1 c -0.5523,0 -1,-0.4477 -1,-1 h -2 c 0,1.6569 1.3431,3 3,3 z m 1,-1 c 0,0.5523 -0.4477,1 -1,1 v 2 c 1.6569,0 3,-1.3431 3,-3 z m 3,1 c -0.5523,0 -1,-0.4477 -1,-1 h -2 c 0,1.6569 1.3431,3 3,3 z m 1,-1 c 0,0.5523 -0.4477,1 -1,1 v 2 c 1.6569,0 3,-1.3431 3,-3 z m 3,1 c -0.5523,0 -1,-0.4477 -1,-1 h -2 c 0,1.6569 1.3431,3 3,3 z m 1,-1 c 0,0.5523 -0.4477,1 -1,1 v 2 c 1.6569,0 3,-1.3431 3,-3 z m 0,-11 v 11 h 2 V 27 Z"
       id="path25" />
    <line
       x1="35"
       x2="35"
       y1="59"
       y2="43"
       fill="none"
       stroke="#000000"
       stroke-linecap="round"
       stroke-width="2"
       id="line25" />
    <line
       x1="15"
       x2="15"
       y1="59"
       y2="43"
       fill="none"
       stroke="#000000"
       stroke-linecap="round"
       stroke-width="2"
       id="line26" />
    <path
       d="m 49,33 c -3.3137,0 -6,2.6863 -6,6 h -2 c 0,-4.4183 3.5817,-8 8,-8 z m 6,6 c 0,-3.3137 -2.6863,-6 -6,-6 v -2 c 4.4183,0 8,3.5817 8,8 z m 0,20.0053 V 39 h 2 V 59.0053 Z M 43,39 V 59.007 H 41 V 39 Z"
       id="path26" />
    <rect
       x="12"
       y="13"
       width="48"
       height="47"
       fill="none"
       stroke="#000000"
       stroke-linejoin="round"
       stroke-width="2"
       id="rect26" />
    <g
       id="g28">
      <path
         fill="none"
         stroke="#000000"
         stroke-linecap="round"
         stroke-linejoin="round"
         stroke-width="2"
         d="m 50.03,16.0006 h -4 v 7 h 4"
         id="path27" />
      <path
         fill="none"
         stroke="#000000"
         stroke-linecap="round"
         stroke-linejoin="round"
         stroke-width="2"
         d="m 46.03,19.5006 h 3"
         id="path28" />
    </g>
    <g
       id="g30">
      <path
         fill="none"
         stroke="#000000"
         stroke-linecap="round"
         stroke-linejoin="round"
         stroke-width="2"
         d="m 57.03,16.0006 h -4 v 7 h 4"
         id="path29" />
      <path
         fill="none"
         stroke="#000000"
         stroke-linecap="round"
         stroke-linejoin="round"
         stroke-width="2"
         d="m 53.03,19.5006 h 3"
         id="path30" />
    </g>
    <g
       id="g32">
      <path
         fill="none"
         stroke="#000000"
         stroke-linecap="round"
         stroke-linejoin="round"
         stroke-width="2"
         d="m 29.03,23.0006 -3,-7 -3,7"
         id="path31" />
      <path
         fill="none"
         stroke="#000000"
         stroke-linecap="round"
         stroke-linejoin="round"
         stroke-width="2"
         d="m 24.03,21.3206 h 4"
         id="path32" />
    </g>
    <path
       fill="none"
       stroke="#000000"
       stroke-linecap="round"
       stroke-linejoin="round"
       stroke-width="2"
       d="m 35.03,19.5006 h -3 v 3.5 -7 h 4"
       id="path33" />
    <path
       fill="none"
       stroke="#000000"
       stroke-linecap="round"
       stroke-linejoin="round"
       stroke-width="2"
       d="m 42.2001,19.5006 h -3 v 3.5 -7 h 4"
       id="path34" />
    <g
       id="g37">
      <path
         fill="none"
         stroke="#000000"
         stroke-linecap="round"
         stroke-linejoin="round"
         stroke-width="2"
         d="m 16,16.0007 v 7"
         id="path35" />
      <path
         fill="none"
         stroke="#000000"
         stroke-linecap="round"
         stroke-linejoin="round"
         stroke-width="2"
         d="M 16.0193,20.5387 20.0195,16"
         id="path36" />
      <path
         fill="none"
         stroke="#000000"
         stroke-linecap="round"
         stroke-linejoin="round"
         stroke-width="2"
         d="m 17.9862,18.357 2.3965,4.6466"
         id="path37" />
    </g>
  </g>
</svg>
