<svg xmlns="http://www.w3.org/2000/svg" xmlns:svg="http://www.w3.org/2000/svg" id="emoji" width="50" height="49" version="1.1" viewBox="0 0 50 49"><g id="color" transform="translate(-11,-12)"><rect id="rect1" width="48" height="47" x="12" y="13" fill="#d0cfce"/><path id="path1" fill="#d0cfce" stroke="#9b9b9a" stroke-linejoin="round" stroke-width="2" d="m 44,27 h 10 l -2,5 h -6 z"/><path id="path2" fill="none" stroke="#9b9b9a" stroke-linejoin="round" stroke-width="2" d="M 43.5,34.5 40,31 h -4 v -4 h 8"/><path id="path3" fill="none" stroke="#9b9b9a" stroke-linejoin="round" stroke-width="2" d="M 42,38 H 36 V 31"/><path id="path4" fill="none" stroke="#9b9b9a" stroke-linejoin="round" stroke-width="2" d="M 54.5,34.5 58,31 h 1"/><path id="path5" fill="none" stroke="#9b9b9a" stroke-linejoin="round" stroke-width="2" d="m 56,38 h 3"/><path id="path6" fill="none" stroke="#9b9b9a" stroke-linejoin="round" stroke-width="2" d="m 56,45 h 3"/><path id="path7" fill="none" stroke="#9b9b9a" stroke-linejoin="round" stroke-width="2" d="m 56,52 h 3"/><path id="path8" fill="none" stroke="#9b9b9a" stroke-linejoin="round" stroke-width="2" d="m 36,45 h 5"/><path id="path9" fill="none" stroke="#9b9b9a" stroke-linejoin="round" stroke-width="2" d="m 36,52 h 5"/><path id="path10" fill="#a57939" fill-rule="evenodd" d="m 42,39 c 0,-3.866 3.134,-7 7,-7 3.866,0 7,3.134 7,7 V 60 H 42 Z"/><rect id="rect10" width="16" height="14" x="17" y="40" fill="#3f3f3f"/><rect id="rect11" width="4" height="18" x="50" y="40" fill="#6a462f"/><rect id="rect12" width="4" height="18" x="44" y="40" fill="#6a462f"/><path id="path12" fill="#6a462f" fill-rule="evenodd" d="m 44,39 c 0,-2.7614 2.2386,-5 5,-5 2.7614,0 5,2.2386 5,5 z"/><path id="path13" fill="none" stroke="#9b9b9a" stroke-width="2" d="m 54,27 h 5"/><g id="g23"><path id="path14" fill="none" stroke="#ea5a47" stroke-width="4" d="M 17,37 V 27"/><path id="path15" fill="none" stroke="#ea5a47" stroke-width="4" d="M 25,37 V 27"/><path id="path16" fill="none" stroke="#ea5a47" stroke-width="4" d="M 33,37 V 27"/><path id="path17" fill="none" stroke="#fff" stroke-width="4" d="M 29,37 V 27"/><path id="path18" fill="none" stroke="#fff" stroke-width="4" d="M 21,37 V 27"/><path id="path19" fill="none" stroke="#d22f27" stroke-width="4" d="M 17,39 V 37"/><path id="path20" fill="none" stroke="#d22f27" stroke-width="4" d="M 25,39 V 37"/><path id="path21" fill="none" stroke="#d22f27" stroke-width="4" d="M 33,39 V 37"/><path id="path22" fill="none" stroke="#d0cfce" stroke-width="4" d="M 29,39 V 37"/><path id="path23" fill="none" stroke="#d0cfce" stroke-width="4" d="M 21,39 V 37"/></g></g><g id="line" transform="translate(-11,-12)"><path id="path24" fill="none" stroke="#000" stroke-linecap="round" stroke-width="2" d="M 18,54 H 32"/><path id="path25" d="m 15,27 v -1 c -0.5523,0 -1,0.4477 -1,1 z m 20,0 h 1 c 0,-0.5523 -0.4477,-1 -1,-1 z M 20,38 c 0,-0.5523 -0.4477,-1 -1,-1 -0.5523,0 -1,0.4477 -1,1 z m 4,0 c 0,-0.5523 -0.4477,-1 -1,-1 -0.5523,0 -1,0.4477 -1,1 z m 4,0 c 0,-0.5523 -0.4477,-1 -1,-1 -0.5523,0 -1,0.4477 -1,1 z m 4,0 c 0,-0.5523 -0.4477,-1 -1,-1 -0.5523,0 -1,0.4477 -1,1 z M 15,28 H 35 V 26 H 15 Z m 1,10 V 27 h -2 v 11 z m 1,1 c -0.5523,0 -1,-0.4477 -1,-1 h -2 c 0,1.6569 1.3431,3 3,3 z m 1,-1 c 0,0.5523 -0.4477,1 -1,1 v 2 c 1.6569,0 3,-1.3431 3,-3 z m 3,1 c -0.5523,0 -1,-0.4477 -1,-1 h -2 c 0,1.6569 1.3431,3 3,3 z m 1,-1 c 0,0.5523 -0.4477,1 -1,1 v 2 c 1.6569,0 3,-1.3431 3,-3 z m 3,1 c -0.5523,0 -1,-0.4477 -1,-1 h -2 c 0,1.6569 1.3431,3 3,3 z m 1,-1 c 0,0.5523 -0.4477,1 -1,1 v 2 c 1.6569,0 3,-1.3431 3,-3 z m 3,1 c -0.5523,0 -1,-0.4477 -1,-1 h -2 c 0,1.6569 1.3431,3 3,3 z m 1,-1 c 0,0.5523 -0.4477,1 -1,1 v 2 c 1.6569,0 3,-1.3431 3,-3 z m 3,1 c -0.5523,0 -1,-0.4477 -1,-1 h -2 c 0,1.6569 1.3431,3 3,3 z m 1,-1 c 0,0.5523 -0.4477,1 -1,1 v 2 c 1.6569,0 3,-1.3431 3,-3 z m 0,-11 v 11 h 2 V 27 Z"/><line id="line25" x1="35" x2="35" y1="59" y2="43" fill="none" stroke="#000" stroke-linecap="round" stroke-width="2"/><line id="line26" x1="15" x2="15" y1="59" y2="43" fill="none" stroke="#000" stroke-linecap="round" stroke-width="2"/><path id="path26" d="m 49,33 c -3.3137,0 -6,2.6863 -6,6 h -2 c 0,-4.4183 3.5817,-8 8,-8 z m 6,6 c 0,-3.3137 -2.6863,-6 -6,-6 v -2 c 4.4183,0 8,3.5817 8,8 z m 0,20.0053 V 39 h 2 V 59.0053 Z M 43,39 V 59.007 H 41 V 39 Z"/><rect id="rect26" width="48" height="47" x="12" y="13" fill="none" stroke="#000" stroke-linejoin="round" stroke-width="2"/><g id="g28"><path id="path27" fill="none" stroke="#000" stroke-linecap="round" stroke-linejoin="round" stroke-width="2" d="m 50.03,16.0006 h -4 v 7 h 4"/><path id="path28" fill="none" stroke="#000" stroke-linecap="round" stroke-linejoin="round" stroke-width="2" d="m 46.03,19.5006 h 3"/></g><g id="g30"><path id="path29" fill="none" stroke="#000" stroke-linecap="round" stroke-linejoin="round" stroke-width="2" d="m 57.03,16.0006 h -4 v 7 h 4"/><path id="path30" fill="none" stroke="#000" stroke-linecap="round" stroke-linejoin="round" stroke-width="2" d="m 53.03,19.5006 h 3"/></g><g id="g32"><path id="path31" fill="none" stroke="#000" stroke-linecap="round" stroke-linejoin="round" stroke-width="2" d="m 29.03,23.0006 -3,-7 -3,7"/><path id="path32" fill="none" stroke="#000" stroke-linecap="round" stroke-linejoin="round" stroke-width="2" d="m 24.03,21.3206 h 4"/></g><path id="path33" fill="none" stroke="#000" stroke-linecap="round" stroke-linejoin="round" stroke-width="2" d="m 35.03,19.5006 h -3 v 3.5 -7 h 4"/><path id="path34" fill="none" stroke="#000" stroke-linecap="round" stroke-linejoin="round" stroke-width="2" d="m 42.2001,19.5006 h -3 v 3.5 -7 h 4"/><g id="g37"><path id="path35" fill="none" stroke="#000" stroke-linecap="round" stroke-linejoin="round" stroke-width="2" d="m 16,16.0007 v 7"/><path id="path36" fill="none" stroke="#000" stroke-linecap="round" stroke-linejoin="round" stroke-width="2" d="M 16.0193,20.5387 20.0195,16"/><path id="path37" fill="none" stroke="#000" stroke-linecap="round" stroke-linejoin="round" stroke-width="2" d="m 17.9862,18.357 2.3965,4.6466"/></g></g></svg>