<?xml version="1.0" encoding="UTF-8" standalone="no"?>
<svg
   id="emoji"
   viewBox="0 0 39.972099 61.994301"
   version="1.1"
   sodipodi:docname="e210.svg"
   width="39.972099"
   height="61.994301"
   xmlns:inkscape="http://www.inkscape.org/namespaces/inkscape"
   xmlns:sodipodi="http://sodipodi.sourceforge.net/DTD/sodipodi-0.dtd"
   xmlns="http://www.w3.org/2000/svg"
   xmlns:svg="http://www.w3.org/2000/svg">
  <defs
     id="defs12" />
  <sodipodi:namedview
     id="namedview12"
     pagecolor="#ffffff"
     bordercolor="#000000"
     borderopacity="0.25"
     inkscape:showpageshadow="2"
     inkscape:pageopacity="0.0"
     inkscape:pagecheckerboard="0"
     inkscape:deskcolor="#d1d1d1" />
  <g
     id="color"
     transform="translate(-16.0469,-4.0057)">
    <path
       fill="#9b9b9a"
       d="M 27.7666,61.5156 H 17.6217 v -0.5748 h -1.5748 v 1.5748 a 0.9993,0.9993 0 0 0 1,1 h 10.72 a 1,1 0 1 0 0,-2 z"
       id="path1" />
    <path
       fill="#9b9b9a"
       d="m 44.299,61.5156 h 10.1449 v -0.5748 h 1.5748 v 1.5748 a 0.9993,0.9993 0 0 1 -1,1 H 44.299 a 1,1 0 0 1 0,-2 z"
       id="path2" />
    <rect
       x="26.7666"
       y="61.888699"
       rx="1"
       width="18.5322"
       height="4.1113"
       fill="#61b2e4"
       id="rect2" />
    <circle
       cx="35.9519"
       cy="19.368099"
       r="2.3143001"
       fill="#f4aa41"
       id="circle2" />
    <path
       fill="#f4aa41"
       d="m 41.7407,38.9116 -1.1358,-9.5873 0.1828,-0.3953 3.3964,3.7429 a 0.7619,0.7619 0 0 1 0.0767,0.93 c -0.4689,0.72 -1.0447,1.6361 -1.4252,2.1951 a 2.22,2.22 0 0 0 0.85,3.1146 L 48.1537,32.8 41.9873,26.335 39.32,25.3067 32.3148,25.1562 31.23,24.5389 l -3.31,-4.22 -1.419,-6.3466 c -1.2909,0 -1.8634,0.7644 -1.8634,1.5441 0,1.255 0.0575,1.495 0.0575,4.0649 0,2.2106 2.1772,4.9232 4.262,6.7536 a 12.0742,12.0742 0 0 0 2.3629,1.7534 l -0.2142,1.236 -0.5018,9.5873 -6.6967,22.0415 h 2.5457 l 8.7518,-19.2858 h 1.5429 l 8.9189,19.2858 h 2.5457 z"
       id="path3" />
    <path
       fill="none"
       stroke="#9b9b9a"
       stroke-linecap="round"
       stroke-linejoin="round"
       stroke-width="2"
       d="m 25.0952,7.5441 c 0,-0.9722 0.5578,-1.9444 1.41,-1.9444"
       id="path4" />
    <path
       fill="none"
       stroke="#9b9b9a"
       stroke-linecap="round"
       stroke-linejoin="round"
       stroke-width="2"
       d="m 28.8458,7.5441 a 2.0955,2.0955 0 0 1 1.4322,-2.23 c 1.5293,-0.6169 2.8529,0.6682 4.4908,-0.3084"
       id="path5" />
    <path
       fill="#f4aa41"
       d="m 31.8073,9.8822 c 0,1.7456 -1.9977,3.1606 -4.462,3.1606 -2.4643,0 -4.4619,-1.415 -4.4619,-3.1606 z"
       id="path6" />
  </g>
  <g
     id="line"
     transform="translate(-16.0469,-4.0057)">
    <line
       x1="34.315498"
       x2="32.437401"
       y1="17.7316"
       y2="15.8536"
       fill="none"
       stroke="#000000"
       stroke-linecap="round"
       stroke-linejoin="round"
       stroke-width="2"
       id="line6" />
    <circle
       cx="35.9519"
       cy="19.368099"
       r="2.3143001"
       fill="none"
       stroke="#000000"
       stroke-miterlimit="10"
       stroke-width="2"
       id="circle6" />
    <line
       x1="35.9519"
       x2="35.9519"
       y1="17.053801"
       y2="14.368"
       fill="none"
       stroke="#000000"
       stroke-linecap="round"
       stroke-linejoin="round"
       stroke-width="2"
       id="line7" />
    <line
       x1="37.7085"
       x2="39.611301"
       y1="17.870199"
       y2="15.9675"
       fill="none"
       stroke="#000000"
       stroke-linecap="round"
       stroke-linejoin="round"
       stroke-width="2"
       id="line8" />
    <line
       x1="38.266201"
       x2="40.951302"
       y1="19.368099"
       y2="19.368099"
       fill="none"
       stroke="#000000"
       stroke-linecap="round"
       stroke-linejoin="round"
       stroke-width="2"
       id="line9" />
    <line
       x1="33.6376"
       x2="30.980801"
       y1="19.368099"
       y2="19.368099"
       fill="none"
       stroke="#000000"
       stroke-linecap="round"
       stroke-linejoin="round"
       stroke-width="2"
       id="line10" />
    <path
       fill="none"
       stroke="#000000"
       stroke-linecap="round"
       stroke-linejoin="round"
       stroke-width="2"
       d="m 27.4081,13.4105 0.1949,5.8847 a 3.4811,3.4811 0 0 0 0.4992,1.691 c 1.2559,2.0753 3.2963,4.2817 4.7881,4.0953 a 30.0074,30.0074 0 0 1 6.1714,0 3.9932,3.9932 0 0 1 2.6291,0.8852 50.48,50.48 0 0 1 5.0175,5.1822 2.7609,2.7609 0 0 1 0.18,3.4316 l -2.59,3.6433"
       id="path10" />
    <path
       fill="none"
       stroke="#000000"
       stroke-linecap="round"
       stroke-linejoin="round"
       stroke-width="2"
       d="m 31.8073,9.8822 c 0,1.7456 -1.9977,3.1606 -4.462,3.1606 -2.4643,0 -4.4619,-1.415 -4.4619,-3.1606 z"
       id="path11" />
    <polyline
       fill="none"
       stroke="#000000"
       stroke-linecap="round"
       stroke-linejoin="round"
       stroke-width="2"
       points="17.047 60.953 27.767 60.953 27.767 65"
       id="polyline11" />
    <polyline
       fill="none"
       stroke="#000000"
       stroke-linecap="round"
       stroke-linejoin="round"
       stroke-width="2"
       points="44.299 65 44.299 60.953 55.019 60.953"
       id="polyline12" />
    <path
       fill="none"
       stroke="#000000"
       stroke-linecap="round"
       stroke-linejoin="round"
       stroke-width="2"
       d="m 39.8324,29.3244 1.5149,9.5872 6.4577,20.0734 0.0015,-6e-4 a 1.46,1.46 0 0 1 -2.6723,1.1667 l -7.33,-16.9553 a 1.8584,1.8584 0 0 0 -3.6578,0 l -7.33,16.9553 A 1.46,1.46 0 0 1 24.144,58.9844 l 0.0016,6e-4 6.4577,-20.0734 1.5148,-9.5872"
       id="path12" />
  </g>
</svg>
