<svg xmlns="http://www.w3.org/2000/svg" xmlns:svg="http://www.w3.org/2000/svg" id="emoji" width="64.013" height="61.386" version="1.1" viewBox="0 0 64.013 61.386"><g id="color" transform="translate(-4,-6.6142998)"><path id="path1" fill="#fcea2b" d="m 35.1143,20.4165 a 1,1 0 0 1 -0.8955,-1.4448 l 0.81,-1.6323 a 1.041,1.041 0 0 1 1.791,0 l 0.8008,1.6113 a 1,1 0 0 1 -0.8828,1.4448 l -1.6113,0.021 z"/><rect id="rect1" width="8.458" height="12.419" x="31.771" y="20.233" fill="#d0cfce"/><rect id="rect2" width="3.095" height="12.419" x="37.145" y="20.233" fill="#9b9b9a"/><polygon id="polygon2" fill="#d0cfce" points="36 36.204 29.605 36.204 26.051 62.528 36 62.528 45.949 62.528 42.395 36.204"/><path id="path2" fill="#9b9b9a" d="M 39.9355,40.08 A 1,1 0 0 0 38.9424,39.1972 H 33.0576 A 1,1 0 0 0 32.0645,40.08 l -2.6412,22.33 a 1,1 0 0 0 0.9932,1.1171 H 41.583 A 1.0009,1.0009 0 0 0 42.5762,62.41 Z"/><g id="color-2"><rect id="rect3" width="64.013" height="5.472" x="4" y="62.528" fill="#92d3f5"/></g><polygon id="polygon3" fill="#d0cfce" points="32.731 14.029 36 10.031 39.269 14.029"/><rect id="rect4" width="16.12" height="3.553" x="27.94" y="32.651" fill="#d0cfce"/></g><g id="line" transform="translate(-4,-6.6142998)"><line id="line4" x1="36" x2="36" y1="7.614" y2="10.031" fill="none" stroke="#000" stroke-linecap="round" stroke-linejoin="round" stroke-width="2"/><rect id="rect5" width="16.12" height="3.553" x="27.94" y="32.651" fill="none" stroke="#000" stroke-linecap="round" stroke-linejoin="round" stroke-width="2"/><rect id="rect6" width="8.458" height="12.419" x="31.771" y="20.233" fill="none" stroke="#000" stroke-linecap="round" stroke-linejoin="round" stroke-width="2"/><line id="line6" x1="40.229" x2="31.771" y1="23.233" y2="23.233" fill="none" stroke="#000" stroke-linecap="round" stroke-linejoin="round" stroke-width="2"/><line id="line7" x1="41.136" x2="30.864" y1="20.233" y2="20.233" fill="none" stroke="#000" stroke-linecap="round" stroke-linejoin="round" stroke-width="2"/><rect id="rect7" width="5.269" height="6.203" x="33.349" y="14.029" fill="none" stroke="#000" stroke-linecap="round" stroke-linejoin="round" stroke-width="2"/><line id="line8" x1="27.94" x2="27.035" y1="32.651" y2="31.04" fill="none" stroke="#000" stroke-linecap="round" stroke-linejoin="round" stroke-width="2"/><line id="line9" x1="44.06" x2="44.965" y1="32.651" y2="31.04" fill="none" stroke="#000" stroke-linecap="round" stroke-linejoin="round" stroke-width="2"/><polygon id="polygon9" fill="none" stroke="#000" stroke-linecap="round" stroke-linejoin="round" stroke-width="2" points="32.731 14.029 36 10.031 39.269 14.029"/><polyline id="polyline9" fill="none" stroke="#000" stroke-linecap="round" stroke-linejoin="round" stroke-width="2" points="41.224 59.486 38.942 40.197 33.058 40.197 30.776 59.486"/><polygon id="polygon10" fill="none" stroke="#000" stroke-linecap="round" stroke-linejoin="round" stroke-width="2" points="36 36.204 29.605 36.204 26.051 62.528 36 62.528 45.949 62.528 42.395 36.204"/><line id="line10" x1="5.004" x2="66.997" y1="62.528" y2="62.528" fill="none" stroke="#000" stroke-linecap="round" stroke-linejoin="round" stroke-width="2.001"/></g></svg>