<svg xmlns="http://www.w3.org/2000/svg" xmlns:svg="http://www.w3.org/2000/svg" id="emoji" width="34.564" height="57.041" version="1.1" viewBox="0 0 34.564 57.041"><g id="color" transform="translate(-18.718,-7.5451996)"><rect id="rect1" width="13.758" height="13.786" x="33.743" y="46.191" fill="#fff"/><rect id="rect2" width="15.115" height="7.135" x="24.98" y="20.094" fill="#fff"/><circle id="circle2" cx="44.332" cy="11.416" r="2.871" fill="#fcea2b"/><path id="path2" fill="#fcea2b" d="M 37.9166,33.1726 H 25.323 c -1.4613,0 -1.8556,-1.59 -1.8556,-2.7749 0,-0.5527 2.6816,-0.98 3.2343,-0.98 h 12.2876 c 0.5527,0 -0.0727,2.2017 -0.0727,2.7544 6e-4,0.552 -0.4463,0.9999 -0.9983,1.0005 z"/><path id="path3" fill="#fcea2b" d="m 48.4893,21.9756 c -0.1006,-2.8745 -1.8008,-4.8184 -4.3672,-4.9541 -2.6638,-0.0505 -4.962,1.8596 -5.3994,4.4878 l -0.8916,5.9858 v 0.0034 l -1.127,7.7525 -4.2568,0.001 -2.6045,0.1406 c -1.2357,0.13 -2.4276,0.5304 -3.4912,1.1728 -1.7325,0.9833 -2.7701,2.8524 -2.6885,4.8428 l 0.332,15.9414 c 0,1.3027 0,4.0147 2.4141,4.0147 1.6448,0.1146 3.1116,-1.0285 3.4023,-2.6514 L 31.665,42.7041 44.7227,42.6787 c 2.0506,-0.0147 3.719,-1.655 3.7685,-3.7051 z"/><line id="line3" x1="47.058" x2="47.058" y1="45.209" y2="60.958" fill="none" stroke="#9b9b9a" stroke-linecap="round" stroke-linejoin="round" stroke-width="2"/><line id="line4" x1="34.549" x2="34.549" y1="45.209" y2="60.958" fill="none" stroke="#9b9b9a" stroke-linecap="round" stroke-linejoin="round" stroke-width="2"/><polygon id="polygon4" fill="#9b9b9a" points="50.529 45.038 31.342 45.209 31.342 41.822 47.031 40.668 47.44 25.417 51.12 25.178"/></g><g id="line" transform="translate(-18.718,-7.5451996)"><circle id="circle4" cx="44.332" cy="11.416" r="2.871" fill="none" stroke="#000" stroke-miterlimit="10" stroke-width="2"/><polyline id="polyline4" fill="none" stroke="#000" stroke-linecap="round" stroke-linejoin="round" stroke-width="2" points="43.551 22.011 41.461 34.982 32.501 26.129"/><path id="path4" fill="none" stroke="#000" stroke-linecap="round" stroke-linejoin="round" stroke-width="2" d="m 31.882,41.6749 c -0.6095,0.0013 -1.1032,0.495 -1.1045,1.1045 v 1.3254 c 0.0403,0.5925 0.512,1.0642 1.1045,1.1044 H 49.9955 C 50.588,45.169 51.0597,44.6973 51.1,44.1048 V 25.86 c -0.0013,-0.6095 -0.495,-1.1032 -1.1045,-1.1045 l -1.86,0.0208 c -0.5522,0 -0.463,0.4766 -0.463,1.1392 l -0.1814,15.7463 z"/><line id="line5" x1="32.05" x2="24.468" y1="30.398" y2="30.398" fill="none" stroke="#000" stroke-linecap="round" stroke-linejoin="round" stroke-width="2"/><line id="line6" x1="48.863" x2="48.863" y1="45.209" y2="60.958" fill="none" stroke="#000" stroke-linecap="round" stroke-linejoin="round" stroke-width="2"/><line id="line7" x1="32.694" x2="32.694" y1="45.209" y2="60.604" fill="none" stroke="#000" stroke-linecap="round" stroke-linejoin="round" stroke-width="2"/><polygon id="polygon7" fill="none" stroke="#000" stroke-linecap="round" stroke-linejoin="round" stroke-width="2" points="26.462 26.892 22.804 26.892 24.597 21.184"/><path id="path7" fill="none" stroke="#000" stroke-linecap="round" stroke-linejoin="round" stroke-width="2" d="m 20.3976,18.8818 c 0.955,1.3907 2.5139,2.2451 4.2,2.3018 0,0 3.1633,0 4.2713,-2.3018"/><polyline id="polyline7" fill="none" stroke="#000" stroke-linecap="round" stroke-linejoin="round" stroke-width="2" points="19.718 63.586 19.718 60.958 52.282 60.958 52.282 63.586"/><line id="line8" x1="34.15" x2="40.602" y1="15.273" y2="60.958" fill="none" stroke="#000" stroke-linecap="round" stroke-linejoin="round" stroke-width="2"/><path id="path8" fill="none" stroke="#000" stroke-linecap="round" stroke-linejoin="round" stroke-width="2" d="m 38.82,27.6428 0.8914,-5.9863 c 0.3711,-2.1276 2.2347,-3.6693 4.3942,-3.6351 v 0 c 2.1617,0.1147 3.3076,1.826 3.3846,3.9895 l 8e-4,16.9628 c -0.0349,1.5041 -1.2644,2.7052 -2.7689,2.7049 H 39.905 l -9.1318,0.0285 -1.9552,16.89 c -0.223,1.3732 -0.9265,2.361 -2.041,2.361 -1.2263,-0.0331 -2.1937,-1.054 -2.1606,-2.2804 0.002,-0.0728 0.0075,-0.1455 0.0166,-0.2177 V 41.3448 c 0,-2.9821 2.41,-5.094 5.7969,-5.094 h 2.0712"/><line id="line9" x1="24.633" x2="24.633" y1="23.368" y2="26.224" fill="none" stroke="#000" stroke-linecap="round" stroke-linejoin="round" stroke-width="2"/><circle id="circle9" cx="24.633" cy="17.225" r=".654" fill="none" stroke="#000" stroke-linecap="round" stroke-linejoin="round" stroke-width="2"/></g></svg>