<?xml version="1.0" encoding="UTF-8" standalone="no"?>
<svg
   id="emoji"
   viewBox="0 0 62.579601 38.613602"
   version="1.1"
   sodipodi:docname="e215.svg"
   width="62.579601"
   height="38.613602"
   xmlns:inkscape="http://www.inkscape.org/namespaces/inkscape"
   xmlns:sodipodi="http://sodipodi.sourceforge.net/DTD/sodipodi-0.dtd"
   xmlns="http://www.w3.org/2000/svg"
   xmlns:svg="http://www.w3.org/2000/svg">
  <defs
     id="defs17" />
  <sodipodi:namedview
     id="namedview17"
     pagecolor="#ffffff"
     bordercolor="#000000"
     borderopacity="0.25"
     inkscape:showpageshadow="2"
     inkscape:pageopacity="0.0"
     inkscape:pagecheckerboard="0"
     inkscape:deskcolor="#d1d1d1" />
  <g
     id="color"
     transform="translate(-4.7101998,-17.3864)">
    <path
       fill="#9b9b9a"
       d="m 17.5083,48.7969 a 1,1 0 0 1 -1,-1 v -15.749 a 1,1 0 0 1 2,0 v 15.749 a 1,1 0 0 1 -1,1 z"
       id="path1" />
    <path
       fill="#9b9b9a"
       d="m 25.5083,48.7969 a 1,1 0 0 1 -1,-1 v -15.749 a 1,1 0 0 1 2,0 v 15.749 a 1,1 0 0 1 -1,1 z"
       id="path2" />
    <path
       fill="#9b9b9a"
       d="m 33.5088,48.7969 a 1,1 0 0 1 -1,-1 v -15.749 a 1,1 0 0 1 2,0 v 15.749 a 1,1 0 0 1 -1,1 z"
       id="path3" />
    <path
       fill="#9b9b9a"
       d="m 41.5088,48.7969 a 1,1 0 0 1 -1,-1 v -15.749 a 1,1 0 0 1 2,0 v 15.749 a 1,1 0 0 1 -1,1 z"
       id="path4" />
    <path
       fill="#9b9b9a"
       d="m 49.5088,48.7969 a 1,1 0 0 1 -1,-1 v -15.749 a 1,1 0 0 1 2,0 v 15.749 a 1,1 0 0 1 -1,1 z"
       id="path5" />
    <path
       fill="#9b9b9a"
       d="m 57.5088,48.7969 a 1,1 0 0 1 -1,-1 v -15.749 a 1,1 0 0 1 2,0 v 15.749 a 1,1 0 0 1 -1,1 z"
       id="path6" />
    <rect
       x="12.9457"
       y="28.0704"
       width="46.108601"
       height="3.9777"
       fill="#d0cfce"
       id="rect6" />
    <rect
       x="11.9458"
       y="46.796902"
       rx="1"
       width="48.108898"
       height="5.5819998"
       fill="#d0cfce"
       id="rect7" />
    <rect
       x="8.1631002"
       y="50.378899"
       rx="1"
       width="55.673801"
       height="5.5811"
       fill="#d0cfce"
       id="rect8" />
    <polygon
       fill="#d0cfce"
       points="36,20.705 59.054,28.07 12.946,28.07 "
       id="polygon8" />
  </g>
  <g
     id="line"
     transform="translate(-4.7101998,-17.3864)">
    <line
       x1="59.054298"
       x2="12.9457"
       y1="47.797199"
       y2="47.797199"
       fill="none"
       stroke="#000000"
       stroke-linecap="round"
       stroke-linejoin="round"
       stroke-width="2"
       id="line8" />
    <line
       x1="62.836899"
       x2="9.1631002"
       y1="51.378601"
       y2="51.378601"
       fill="none"
       stroke="#000000"
       stroke-linecap="round"
       stroke-linejoin="round"
       stroke-width="2"
       id="line9" />
    <line
       x1="66.289803"
       x2="5.7101998"
       y1="55"
       y2="55"
       fill="none"
       stroke="#000000"
       stroke-linecap="round"
       stroke-linejoin="round"
       stroke-width="2"
       id="line10" />
    <line
       x1="16"
       x2="16"
       y1="32.0481"
       y2="47.797199"
       fill="none"
       stroke="#000000"
       stroke-linecap="round"
       stroke-linejoin="round"
       stroke-width="2"
       id="line11" />
    <line
       x1="24"
       x2="24"
       y1="32.0481"
       y2="47.797199"
       fill="none"
       stroke="#000000"
       stroke-linecap="round"
       stroke-linejoin="round"
       stroke-width="2"
       id="line12" />
    <line
       x1="32"
       x2="32"
       y1="32.0481"
       y2="47.797199"
       fill="none"
       stroke="#000000"
       stroke-linecap="round"
       stroke-linejoin="round"
       stroke-width="2"
       id="line13" />
    <line
       x1="40"
       x2="40"
       y1="32.0481"
       y2="47.797199"
       fill="none"
       stroke="#000000"
       stroke-linecap="round"
       stroke-linejoin="round"
       stroke-width="2"
       id="line14" />
    <line
       x1="48"
       x2="48"
       y1="32.0481"
       y2="47.797199"
       fill="none"
       stroke="#000000"
       stroke-linecap="round"
       stroke-linejoin="round"
       stroke-width="2"
       id="line15" />
    <line
       x1="56"
       x2="56"
       y1="32.0481"
       y2="47.797199"
       fill="none"
       stroke="#000000"
       stroke-linecap="round"
       stroke-linejoin="round"
       stroke-width="2"
       id="line16" />
    <polygon
       fill="none"
       stroke="#000000"
       stroke-linecap="round"
       stroke-linejoin="round"
       stroke-width="2"
       points="36,20.705 59.054,28.07 12.946,28.07 "
       id="polygon16" />
    <polyline
       fill="none"
       stroke="#000000"
       stroke-linecap="round"
       stroke-linejoin="round"
       stroke-width="2"
       points="59.054 25.155 59.054 32.048 12.946 32.048 12.946 25.155"
       id="polyline16" />
    <line
       x1="36"
       x2="36"
       y1="20.705099"
       y2="18.3864"
       fill="none"
       stroke="#000000"
       stroke-linecap="round"
       stroke-linejoin="round"
       stroke-width="2"
       id="line17" />
  </g>
</svg>
