<?xml version="1.0" encoding="UTF-8" standalone="no"?>
<svg
   id="emoji"
   viewBox="0 0 26.691601 52.838051"
   version="1.1"
   sodipodi:docname="e216.svg"
   width="26.691601"
   height="52.838051"
   xmlns:inkscape="http://www.inkscape.org/namespaces/inkscape"
   xmlns:sodipodi="http://sodipodi.sourceforge.net/DTD/sodipodi-0.dtd"
   xmlns="http://www.w3.org/2000/svg"
   xmlns:svg="http://www.w3.org/2000/svg">
  <defs
     id="defs11" />
  <sodipodi:namedview
     id="namedview11"
     pagecolor="#ffffff"
     bordercolor="#000000"
     borderopacity="0.25"
     inkscape:showpageshadow="2"
     inkscape:pageopacity="0.0"
     inkscape:pagecheckerboard="0"
     inkscape:deskcolor="#d1d1d1" />
  <g
     id="color"
     transform="translate(-22.6542,-10.715335)">
    <path
       fill="#d0cfce"
       d="m 49.2629,61.3372 a 127.4642,127.4642 0 0 0 0.0765,-0.3792 c 0,-5.2217 -4,-13.6016 -4.17,-13.956 -0.0117,-0.0243 -0.0334,-0.0389 -0.0466,-0.0618 a 1.0905,1.0905 0 0 0 -0.238,-0.2812 0.9785,0.9785 0 0 0 -0.2427,-0.1424 c -0.0264,-0.0107 -0.05,-0.0217 -0.0774,-0.03 a 0.9665,0.9665 0 0 0 -0.3039,-0.0448 c -0.024,0 -0.0462,0 -0.07,0.0015 a 0.9412,0.9412 0 0 0 -0.1453,0.0031 c -5.666,1.2754 -11.5039,-2.5733 -13.7549,-4.2871 a 0.9145,0.9145 0 0 0 -0.1035,-0.05 0.9417,0.9417 0 0 0 -0.0937,-0.0669 c -0.0269,-0.0121 -0.0552,-0.0091 -0.0825,-0.0186 a 1.1815,1.1815 0 0 0 -0.3853,-0.0551 1.2356,1.2356 0 0 0 -0.3662,0.0949 0.9755,0.9755 0 0 0 -0.1524,0.0952 0.9646,0.9646 0 0 0 -0.1552,0.1364 c -0.0191,0.021 -0.045,0.0319 -0.0625,0.0548 a 0.9539,0.9539 0 0 0 -0.05,0.1023 0.9426,0.9426 0 0 0 -0.0676,0.095 9.8784,9.8784 0 0 1 -2.8242,3.6767 9.053,9.053 0 0 0 -3.2129,3.7891 c -0.012,0.0267 -0.0091,0.0549 -0.0186,0.082 a 1.0011,1.0011 0 0 0 -0.0442,0.1977 1.026,1.026 0 0 0 0.09,0.5618 c 0.0124,0.0256 0.0127,0.0536 0.0276,0.0784 a 27.2644,27.2644 0 0 0 6.1884,6.8442 c 0.5669,0.5 6.7246,5.7759 13.6123,5.7759 a 12.0768,12.0768 0 0 0 6.2588,-1.6982 0.9793,0.9793 0 0 0 0.4024,-0.4933 z"
       id="path1" />
    <path
       fill="#d0cfce"
       d="m 27.9722,36.9932 a 50.2276,50.2276 0 0 1 -0.2383,5.06 0.9992,0.9992 0 0 0 0.33,0.8486 c 0.0417,0.0376 0.177,0.1562 0.3933,0.3347 0.19,-0.3491 0.3154,-0.6143 0.3493,-0.69 a 0.9435,0.9435 0 0 1 0.0677,-0.095 0.9531,0.9531 0 0 1 0.0495,-0.1023 c 0.0176,-0.0229 0.0435,-0.0338 0.0625,-0.0548 a 0.97,0.97 0 0 1 0.1553,-0.1364 0.9793,0.9793 0 0 1 0.1523,-0.0952 1.2377,1.2377 0 0 1 0.3662,-0.0949 1.1805,1.1805 0 0 1 0.3853,0.0551 c 0.0273,0.0095 0.0557,0.0065 0.0825,0.0186 a 0.9431,0.9431 0 0 1 0.0938,0.0669 0.9228,0.9228 0 0 1 0.1035,0.05 c 2.251,1.7138 8.0889,5.5625 13.7549,4.2871 a 0.94,0.94 0 0 1 0.1452,-0.0031 c 0.024,-0.0019 0.0462,-0.0014 0.07,-0.0015 a 0.9667,0.9667 0 0 1 0.304,0.0448 c 0.0268,0.0084 0.051,0.0194 0.0773,0.03 a 0.9785,0.9785 0 0 1 0.2427,0.1424 0.9529,0.9529 0 0 1 0.0869,0.0815 0.9648,0.9648 0 0 1 0.1512,0.2 c 0.0131,0.0229 0.0349,0.0375 0.0466,0.0618 0.0334,0.07 0.2192,0.46 0.4905,1.0684 a 12.1419,12.1419 0 0 0 2.2834,-1.0528 1,1 0 0 0 0.458,-1.1123 L 47.44,42.0742 47.4371,42.0642 47.43,42.04 46.2522,37.5107 a 0.9978,0.9978 0 0 0 -0.541,-0.6523 6.7788,6.7788 0 0 0 -1.7029,-0.44 5.5191,5.5191 0 0 1 -0.634,-2.6579 7.8164,7.8164 0 0 0 1.9922,-2.1992 2.91,2.91 0 0 0 0.3174,-2.2353 3.7719,3.7719 0 0 0 -2.26,-2.3057 7.03,7.03 0 0 1 -2.2949,-1.8536 9.6587,9.6587 0 0 0 1.5049,-4.7851 c 0,-1.7607 -1.44,-4.3613 -3.5,-6.3222 a 11.3708,11.3708 0 0 0 -8.377,-3.3321 c -6.9912,0.3467 -7.1885,3.7344 -7.1846,4.0381 -0.0371,0.4649 -0.89,11.46 1.1036,18.7012 0.2841,1.1756 1.3168,3.1613 3.2963,3.5266 z"
       id="path2" />
    <path
       d="M 41.4355,19.3211 A 6.6922,6.6922 0 0 0 35.357,16.68 c -6.9735,0.2759 -6.1706,4.3511 -6.1706,4.3511 0,0 -0.0281,1.3844 2.65,1.3844 2.0964,0 2.3338,-1.1867 2.3338,-1.1867 0.4255,-1.2513 2.9571,-1.0919 2.9571,-1.0919 0,0 1.3779,3.8642 2.4405,4.2255 1.0626,0.3613 1.8675,-2.4843 1.8675,-2.4843 0,0 1.314,-0.7393 2e-4,-2.557 z"
       id="path3" />
    <path
       d="m 48.2808,61.958 a 0.9994,0.9994 0 0 1 -1,-1 c 0,-3.8027 -5.7793,-10.4414 -8.0059,-12.6777 a 1.0022,1.0022 0 0 1 -0.1885,-1.1465 1.017,1.017 0 0 1 1.0215,-0.5518 11.83,11.83 0 0 0 3.8145,-0.1045 1.0049,1.0049 0 0 1 1.1884,0.5245 c 0.17,0.3544 4.17,8.7343 4.17,13.956 a 1,1 0 0 1 -1,1 z"
       id="path4" />
  </g>
  <g
     id="line"
     transform="translate(-22.6542,-10.715335)">
    <path
       fill="none"
       stroke="#000000"
       stroke-linecap="round"
       stroke-linejoin="round"
       stroke-width="2"
       d="m 37.2614,20.3816 c 0,0 2.0228,5.8346 5.7138,7.5464 2.75,1.2754 1.4944,3.1381 1.4944,3.1381 a 7.0382,7.0382 0 0 1 -2.0657,2.1654"
       id="path5" />
    <path
       fill="none"
       stroke="#000000"
       stroke-linecap="round"
       stroke-linejoin="round"
       stroke-width="2"
       d="m 39.8683,25.2257 a 9.27,9.27 0 0 0 1.7378,-4.8441 c 0,-2.535 -4.3492,-8.9756 -10.8271,-8.6547 -6.2408,0.3091 -6.2374,3.1187 -6.2374,3.1187 0,0 -0.8983,11.2017 1.0784,18.3859 a 5.1109,5.1109 0 0 0 0.8452,1.7249"
       id="path6" />
    <path
       fill="none"
       stroke="#000000"
       stroke-linecap="round"
       stroke-linejoin="round"
       stroke-width="2"
       d="m 27.0453,18.8641 c 0.9206,4.8471 2.5111,14.954 1.6559,23.292 0,0 10.18,9.0768 18.7392,4.0016 l -2.184,-8.3952 c 0,0 -2.1885,-1.0335 -6.14,0 0,0 6.14,0 7.3245,4.5536"
       id="path7" />
    <path
       fill="none"
       stroke="#000000"
       stroke-linecap="round"
       stroke-linejoin="round"
       stroke-width="2"
       d="m 37.2614,31.29 c 0,0 4.66,-2.43 3.2823,-0.2631"
       id="path8" />
    <path
       fill="none"
       stroke="#000000"
       stroke-linecap="round"
       stroke-linejoin="round"
       stroke-width="2"
       d="m 48.3458,60.9943 c -8.56,5.0752 -18.7391,-4.0016 -18.7391,-4.0016"
       id="path9" />
    <path
       fill="none"
       stroke="#000000"
       stroke-linecap="round"
       stroke-linejoin="round"
       stroke-width="2"
       d="m 48.3458,60.9583 c 0,-5.0545 -4.0715,-13.523 -4.0715,-13.523"
       id="path10" />
    <path
       fill="none"
       stroke="#000000"
       stroke-linecap="round"
       stroke-linejoin="round"
       stroke-width="2"
       d="m 29.6908,42.9555 a 10.8431,10.8431 0 0 1 -3.17,4.0914 8.0435,8.0435 0 0 0 -2.8666,3.3731"
       id="path11" />
  </g>
</svg>
