<svg xmlns="http://www.w3.org/2000/svg" xmlns:svg="http://www.w3.org/2000/svg" id="emoji" width="39.074" height="43.229" version="1.1" viewBox="0 0 39.074 43.229"><g id="color" transform="translate(-16.5,-11.77102)"><circle id="circle1" cx="35.473" cy="36.168" r="18.068" fill="#fff"/><polygon id="polygon1" fill="#d0cfce" points="24.912 30.265 24.912 35.296 35.867 46.039 54.998 18.287 54.998 12.297 35.484 40.497"/></g><g id="line" transform="translate(-16.5,-11.77102)"><path id="path1" fill="none" stroke="#000" stroke-linecap="round" stroke-linejoin="round" stroke-width="2" d="M 52.0844,28.991 C 52.9959,31.1452 53.5,33.5137 53.5,36 c 0,9.9411 -8.0589,18 -18,18 -9.9411,0 -18,-8.0589 -18,-18 0,-9.9411 8.0589,-18 18,-18 3.2668,0 6.3303,0.8703 8.9714,2.3916"/><polygon id="polygon2" fill="none" stroke="#000" stroke-linecap="round" stroke-linejoin="round" stroke-width="2" points="25.167 30.333 25.167 35.25 35.875 45.75 54.574 18.625 54.574 12.771 35.5 40.333"/></g></svg>