<?xml version="1.0" encoding="UTF-8" standalone="no"?>
<svg
   id="emoji"
   viewBox="0 0 39.0737 43.228981"
   version="1.1"
   sodipodi:docname="e240.svg"
   width="39.0737"
   height="43.228981"
   xmlns:inkscape="http://www.inkscape.org/namespaces/inkscape"
   xmlns:sodipodi="http://sodipodi.sourceforge.net/DTD/sodipodi-0.dtd"
   xmlns="http://www.w3.org/2000/svg"
   xmlns:svg="http://www.w3.org/2000/svg">
  <defs
     id="defs2" />
  <sodipodi:namedview
     id="namedview2"
     pagecolor="#ffffff"
     bordercolor="#000000"
     borderopacity="0.25"
     inkscape:showpageshadow="2"
     inkscape:pageopacity="0.0"
     inkscape:pagecheckerboard="0"
     inkscape:deskcolor="#d1d1d1" />
  <g
     id="color"
     transform="translate(-16.5,-11.77102)">
    <circle
       cx="35.472801"
       cy="36.167702"
       r="18.068399"
       fill="#ffffff"
       id="circle1" />
    <polygon
       fill="#d0cfce"
       points="24.9116,30.2655 24.9116,35.2959 35.8675,46.0386 54.9984,18.2865 54.9984,12.297 35.4838,40.4967 "
       id="polygon1" />
  </g>
  <g
     id="line"
     transform="translate(-16.5,-11.77102)">
    <path
       fill="none"
       stroke="#000000"
       stroke-linecap="round"
       stroke-linejoin="round"
       stroke-width="2"
       d="M 52.0844,28.991 C 52.9959,31.1452 53.5,33.5137 53.5,36 c 0,9.9411 -8.0589,18 -18,18 -9.9411,0 -18,-8.0589 -18,-18 0,-9.9411 8.0589,-18 18,-18 3.2668,0 6.3303,0.8703 8.9714,2.3916"
       id="path1" />
    <polygon
       fill="none"
       stroke="#000000"
       stroke-linecap="round"
       stroke-linejoin="round"
       stroke-width="2"
       points="25.1667,30.3333 25.1667,35.25 35.875,45.75 54.5737,18.625 54.5737,12.7708 35.5,40.3333 "
       id="polygon2" />
  </g>
</svg>
