<?xml version="1.0" encoding="UTF-8" standalone="no"?>
<svg
   id="emoji"
   viewBox="0 0 39.380901 60.108501"
   version="1.1"
   sodipodi:docname="e242.svg"
   width="39.380901"
   height="60.108501"
   xmlns:inkscape="http://www.inkscape.org/namespaces/inkscape"
   xmlns:sodipodi="http://sodipodi.sourceforge.net/DTD/sodipodi-0.dtd"
   xmlns="http://www.w3.org/2000/svg"
   xmlns:svg="http://www.w3.org/2000/svg">
  <defs
     id="defs5" />
  <sodipodi:namedview
     id="namedview5"
     pagecolor="#ffffff"
     bordercolor="#000000"
     borderopacity="0.25"
     inkscape:showpageshadow="2"
     inkscape:pageopacity="0.0"
     inkscape:pagecheckerboard="0"
     inkscape:deskcolor="#d1d1d1" />
  <g
     id="color"
     transform="translate(-16.3106,-5.9123)">
    <circle
       cx="35.986698"
       cy="25.494699"
       r="10.3805"
       fill="#ffffff"
       id="circle1" />
    <path
       fill="#d0cfce"
       d="m 36,65.0208 c 0,0 -3.091,-5.9737 -13.8722,-26.8922 C 20,34 17.3106,30.4224 17.3106,25.6045 17.3106,15.2831 25.6777,6.916 35.9991,6.916 v 8.0285 c 0,0 -10.4583,0.5199 -10.4583,10.3971 0,9.8772 10.4587,10.7561 10.4587,10.7561 z"
       id="path1" />
    <path
       fill="#d0cfce"
       d="m 35.9736,65.0172 c 0,0 2.998,-6.0172 13.8722,-26.8922 2.0634,-3.9611 4.8173,-7.7062 4.8173,-12.5242 0,-10.3214 -8.3671,-18.6885 -18.6885,-18.6885 l -0.2836,8.0321 c 0,0 11.1773,0.2666 11.0085,10.7347 -0.1688,10.4681 -11.0088,10.4184 -11.0088,10.4184 z"
       id="path2" />
    <path
       fill="#9b9b9a"
       d="m 36.8281,7.5469 c 0,0 9.7494,4.0365 11.8385,15.2865 C 50.7057,33.8135 39.5,53 36.5,62.6667 34.002,70.7158 48.2767,41.3249 53.1239,31.2633 54.3035,28.8148 54.7346,26.0647 54.2722,23.3865 53.2209,17.2977 49.5559,7.3624 36.8281,7.5469 Z"
       id="path3" />
  </g>
  <g
     id="line"
     transform="translate(-16.3106,-5.9123)">
    <circle
       cx="36.000999"
       cy="25.521099"
       r="10.5766"
       fill="none"
       stroke="#000000"
       stroke-linecap="round"
       stroke-linejoin="round"
       stroke-width="2"
       id="circle3" />
    <path
       fill="none"
       stroke="#000000"
       stroke-linecap="round"
       stroke-linejoin="round"
       stroke-width="2"
       d="m 36,65.0208 c 0,0 -3.091,-5.9737 -13.8722,-26.8922 C 20,34 17.3106,30.4224 17.3106,25.6045 17.3106,15.2831 25.6777,6.916 35.9991,6.916"
       id="path4" />
    <path
       fill="none"
       stroke="#000000"
       stroke-linecap="round"
       stroke-linejoin="round"
       stroke-width="2"
       d="m 36.002,65.0172 c 0,0 2.998,-6.0172 13.8722,-26.8922 2.0634,-3.9611 4.8173,-7.7062 4.8173,-12.5242 0,-10.3214 -8.3671,-18.6885 -18.6885,-18.6885"
       id="path5" />
  </g>
</svg>
