<svg xmlns="http://www.w3.org/2000/svg" xmlns:svg="http://www.w3.org/2000/svg" id="emoji" width="61.997" height="21.961" version="1.1" viewBox="0 0 61.997 21.961"><g id="line" transform="translate(-5.093,-25)"><line id="line1" x1="8.042" x2="64.042" y1="29" y2="29" fill="none" stroke="#000" stroke-linecap="round" stroke-linejoin="round" stroke-miterlimit="10" stroke-width="2"/><line id="line2" x1="8.042" x2="8.042" y1="26" y2="34" fill="none" stroke="#000" stroke-linecap="round" stroke-linejoin="round" stroke-miterlimit="10" stroke-width="2"/><line id="line3" x1="64.042" x2="64.042" y1="26" y2="34" fill="none" stroke="#000" stroke-linecap="round" stroke-linejoin="round" stroke-miterlimit="10" stroke-width="2"/><line id="line4" x1="36.042" x2="36.042" y1="26" y2="34" fill="none" stroke="#000" stroke-linecap="round" stroke-linejoin="round" stroke-miterlimit="10" stroke-width="2"/><line id="line5" x1="22.042" x2="22.042" y1="26" y2="32" fill="none" stroke="#000" stroke-linecap="round" stroke-linejoin="round" stroke-miterlimit="10" stroke-width="2"/><line id="line6" x1="50.042" x2="50.042" y1="26" y2="32" fill="none" stroke="#000" stroke-linecap="round" stroke-linejoin="round" stroke-miterlimit="10" stroke-width="2"/><path id="path6" fill="none" stroke="#000" stroke-linecap="round" stroke-linejoin="round" stroke-miterlimit="10" stroke-width="2" d="m 8.0085,45.9053 v 0 c -1.0579,0 -1.9155,-0.8576 -1.9155,-1.9155 v -3.1689 c 0,-1.0579 0.8576,-1.9156 1.9155,-1.9156 v 0 c 1.058,0 1.9156,0.8577 1.9156,1.9156 v 3.1689 c 0,1.0579 -0.8576,1.9155 -1.9156,1.9155 z"/><path id="path7" fill="none" stroke="#000" stroke-linecap="round" stroke-linejoin="round" stroke-miterlimit="10" stroke-width="2" d="m 61.8334,40.6119 c 0.2005,-0.9798 1.0674,-1.7169 2.1065,-1.7169 v 0 c 0.5937,0 1.1313,0.2407 1.5204,0.6298 0.6053,0.6053 0.5494,1.6111 -0.0185,2.2515 l -3.6521,4.1187 h 4.3004"/><polyline id="polyline7" fill="none" stroke="#000" stroke-linecap="round" stroke-linejoin="round" stroke-miterlimit="10" stroke-width="2" points="35.121 40.412 37.059 38.961 37.059 45.961"/></g></svg>