<svg xmlns="http://www.w3.org/2000/svg" xmlns:svg="http://www.w3.org/2000/svg" id="emoji" width="52.063" height="22.002" version="1.1" viewBox="0 0 52.063 22.002"><g id="color" transform="translate(-9.9656,-24.9991)"><path id="path1" fill="#d0cfce" stroke="none" stroke-linecap="round" stroke-linejoin="round" stroke-miterlimit="10" stroke-width="2" d="m 20.9453,45.9794 h 30.0406 c 5.5116,0 9.9797,-4.4681 9.9797,-9.9797 v 0 c 0,-5.5116 -4.4681,-9.9797 -9.9797,-9.9797 H 20.9453 c -5.5116,0 -9.9797,4.4681 -9.9797,9.9797 v 0 c 0,5.5117 4.468,9.9797 9.9797,9.9797 z"/><circle id="circle1" cx="50.965" cy="36" r="10.001" fill="#b1cc33" stroke="none" stroke-linecap="round" stroke-linejoin="round" stroke-miterlimit="10" stroke-width="2"/><path id="path2" fill="#5c9e31" stroke="none" stroke-linecap="round" stroke-linejoin="round" stroke-miterlimit="10" stroke-width="2" d="m 43.9618,43.0717 c 3.9056,3.9056 10.2378,3.9056 14.1434,0 3.9056,-3.9056 3.9056,-10.2378 0,-14.1434"/></g><g id="line" transform="translate(-9.9656,-24.9991)"><path id="path3" fill="none" stroke="#000" stroke-linecap="round" stroke-linejoin="round" stroke-miterlimit="10" stroke-width="2" d="m 20.9453,45.9794 h 30.0406 c 5.5116,0 9.9797,-4.4681 9.9797,-9.9797 v 0 c 0,-5.5116 -4.4681,-9.9797 -9.9797,-9.9797 H 20.9453 c -5.5116,0 -9.9797,4.4681 -9.9797,9.9797 v 0 c 0,5.5117 4.468,9.9797 9.9797,9.9797 z"/><circle id="circle3" cx="50.965" cy="36" r="10.001" fill="none" stroke="#000" stroke-linecap="round" stroke-linejoin="round" stroke-miterlimit="10" stroke-width="2"/><path id="path4" fill="none" stroke="#000" stroke-linecap="round" stroke-linejoin="round" stroke-miterlimit="10" stroke-width="2" d="m 43.9618,43.0717 c 3.9056,3.9056 10.2378,3.9056 14.1434,0 3.9056,-3.9056 3.9056,-10.2378 0,-14.1434"/></g></svg>