<svg xmlns="http://www.w3.org/2000/svg" xmlns:svg="http://www.w3.org/2000/svg" id="emoji" width="60.061" height="40.044" version="1.1" viewBox="0 0 60.061 40.044"><g id="color" transform="translate(-6.0196,-15.9935)"><path id="path1" fill="#9b9b9a" d="m 16.0497,54.9455 c -1.6613,0 -3.0081,-1.3468 -3.0081,-3.0081 v -8.862 l -0.0015,-3.4078 c -1e-4,-0.2111 0.2466,-0.326 0.4082,-0.1901 l 3.7794,3.3007 c 0.1356,0.1142 0.3072,0.1768 0.4845,0.1768 h 23.2796 c 1.6613,0 3.0081,1.3468 3.0081,3.0081 v 5.9742 c 0,1.6613 -1.3468,3.0081 -3.0081,3.0081 H 16.0497 Z"/><path id="path2" fill="#d0cfce" d="m 58.6474,32.468 c 0.1623,0.1367 0.4103,0.0212 0.4102,-0.191 l -0.0014,-3.2289 h 5e-4 v -9.0304 c 0,-1.6702 -1.354,-3.0242 -3.0242,-3.0242 H 31.1218 c -1.6702,0 -3.0242,1.354 -3.0242,3.0242 v 6.0062 c 0,1.6702 1.354,3.0242 3.0242,3.0242 h 23.3303 c 0.1782,0 0.3507,0.063 0.487,0.1777 z"/></g><g id="skin" transform="translate(-6.0196,-15.9935)"><circle id="circle2" cx="13.02" cy="20.122" r="3" fill="#fcea2b"/><circle id="circle3" cx="59.08" cy="42.036" r="3" fill="#fcea2b"/><path id="path3" fill="#fcea2b" d="m 8.5664,29.2484 v 0 c 1.2753,-1.1232 2.8978,-1.774 4.5958,-1.8435 v 0 c 1.4123,-0.0578 2.7877,0.46 3.8113,1.4348 v 0 c 0.8876,0.8453 1.4791,1.9541 1.6868,3.1621 l 0.3645,2.1197 -12.0812,-0.0078 0.3192,-2.4206 c 0.1247,-0.9457 0.5879,-1.8142 1.3037,-2.4447 z"/><path id="path4" fill="#fcea2b" d="m 55.3162,50.6133 v 0 c 0.8701,-0.7663 1.9771,-1.2104 3.1356,-1.2578 l 1.4133,-0.0579 c 1.042,-0.0427 2.0567,0.3393 2.8118,1.0585 v 0 c 1.1603,1.1051 1.9336,2.5547 2.2051,4.1338 L 65.1481,56.0378 53.067,56.03 53.2771,54.4369 c 0.1951,-1.4792 0.9195,-2.8376 2.0391,-3.8237 z"/></g><g id="line" transform="translate(-6.0196,-15.9935)"><circle id="circle4" cx="13.02" cy="20.122" r="3" fill="none" stroke="#000" stroke-miterlimit="10" stroke-width="2"/><path id="path5" fill="none" stroke="#000" stroke-linecap="round" stroke-linejoin="round" stroke-width="2" d="m 7.0196,33.1223 c 0,0 1,-4.3112 3,-5.3112 2,-1 4,-1 6,0 2,1 3,5.3112 3,5.3112"/><circle id="circle5" cx="59.08" cy="42.036" r="3" fill="none" stroke="#000" stroke-miterlimit="10" stroke-width="2"/><path id="path6" fill="none" stroke="#000" stroke-linecap="round" stroke-linejoin="round" stroke-width="2" d="m 53.0802,55.0363 c 0,0 1,-4.3112 3,-5.3112 2,-1 4,-1 6,0 2,1 3,5.3112 3,5.3112"/><path id="path7" fill="none" stroke="#000" stroke-miterlimit="10" stroke-width="2" d="m 16.0497,54.9455 c -1.6613,0 -3.0081,-1.3468 -3.0081,-3.0081 v -8.862 l -0.0015,-3.4078 c -1e-4,-0.2111 0.2466,-0.326 0.4082,-0.1901 l 3.7794,3.3007 c 0.1356,0.1142 0.3072,0.1768 0.4845,0.1768 h 23.2796 c 1.6613,0 3.0081,1.3468 3.0081,3.0081 v 5.9742 c 0,1.6613 -1.3468,3.0081 -3.0081,3.0081 H 16.0497 Z"/><path id="path8" fill="none" stroke="#000" stroke-miterlimit="10" stroke-width="2" d="m 58.6474,32.468 c 0.1623,0.1367 0.4103,0.0212 0.4102,-0.191 l -0.0014,-3.2289 h 5e-4 v -9.0304 c 0,-1.6702 -1.354,-3.0242 -3.0242,-3.0242 H 31.1218 c -1.6702,0 -3.0242,1.354 -3.0242,3.0242 v 6.0062 c 0,1.6702 1.354,3.0242 3.0242,3.0242 h 23.3303 c 0.1782,0 0.3507,0.063 0.487,0.1777 z"/></g></svg>