<?xml version="1.0" encoding="UTF-8" standalone="no"?>
<svg
   id="emoji"
   viewBox="0 0 51.991699 50.007801"
   version="1.1"
   sodipodi:docname="e249.svg"
   width="51.991699"
   height="50.007801"
   xmlns:inkscape="http://www.inkscape.org/namespaces/inkscape"
   xmlns:sodipodi="http://sodipodi.sourceforge.net/DTD/sodipodi-0.dtd"
   xmlns="http://www.w3.org/2000/svg"
   xmlns:svg="http://www.w3.org/2000/svg">
  <defs
     id="defs11" />
  <sodipodi:namedview
     id="namedview11"
     pagecolor="#ffffff"
     bordercolor="#000000"
     borderopacity="0.25"
     inkscape:showpageshadow="2"
     inkscape:pageopacity="0.0"
     inkscape:pagecheckerboard="0"
     inkscape:deskcolor="#d1d1d1" />
  <g
     id="color"
     transform="translate(-11,-11)">
    <circle
       cx="21"
       cy="17"
       r="3"
       fill="#fcea2b"
       id="circle1" />
    <circle
       cx="55.991699"
       cy="26.3237"
       r="3"
       fill="#fcea2b"
       id="circle2" />
    <circle
       cx="29.9928"
       cy="47.007801"
       r="3"
       fill="#fcea2b"
       id="circle3" />
    <path
       fill="#fcea2b"
       d="m 17.1027,25.6367 v 0 c 0.9157,-0.8065 2.0807,-1.2738 3.2998,-1.3237 l 0.2881,-0.0118 c 1.7012,-0.0696 3.3578,0.554 4.5907,1.7282 v 0 c 0.675,0.6428 1.1248,1.486 1.2827,2.4047 l 0.4411,2.5652 -12.0811,-0.0078 0.2223,-1.6861 c 0.1871,-1.4192 0.8822,-2.7225 1.9564,-3.6686 z"
       id="path3" />
    <path
       fill="#fcea2b"
       d="m 51.7585,35.3141 0.5938,-0.523 c 0.7895,-0.6954 1.794,-1.0983 2.8452,-1.1413 l 0.6753,-0.0276 c 1.6197,-0.0663 3.197,0.5275 4.3708,1.6454 v 0 c 0.7349,0.6999 1.2246,1.618 1.3966,2.6181 l 0.4195,2.4397 -12.0811,-0.0078 0.2918,-2.2129 c 0.1424,-1.0795 0.671,-2.0709 1.4882,-2.7906 z"
       id="path4" />
    <path
       fill="#fcea2b"
       d="m 26.6875,55.1717 v 0 C 27.256,54.6711 27.9792,54.381 28.736,54.35 l 0.4524,-0.0185 c 2.0529,-0.084 4.0521,0.6686 5.54,2.0855 v 0 c 0.4159,0.3961 0.693,0.9156 0.7903,1.4816 l 0.5344,3.1083 -12.0811,-0.0078 0.1289,-0.9772 c 0.2474,-1.8763 1.1663,-3.5994 2.5866,-4.8502 z"
       id="path5" />
  </g>
  <g
     id="line"
     transform="translate(-11,-11)">
    <circle
       cx="21"
       cy="17"
       r="3"
       fill="none"
       stroke="#000000"
       stroke-miterlimit="10"
       stroke-width="2"
       id="circle5" />
    <path
       fill="none"
       stroke="#000000"
       stroke-linecap="round"
       stroke-linejoin="round"
       stroke-width="2"
       d="m 15,30 c 0,0 1,-4.3112 3,-5.3112 2,-1 4,-1 6,0 2,1 3,5.3112 3,5.3112"
       id="path6" />
    <circle
       cx="55.991699"
       cy="26.3237"
       r="3"
       fill="none"
       stroke="#000000"
       stroke-miterlimit="10"
       stroke-width="2"
       id="circle6" />
    <path
       fill="none"
       stroke="#000000"
       stroke-linecap="round"
       stroke-linejoin="round"
       stroke-width="2"
       d="m 49.9917,39.3237 c 0,0 1,-4.3112 3,-5.3112 2,-1 4,-1 6,0 2,1 3,5.3112 3,5.3112"
       id="path7" />
    <circle
       cx="29.9928"
       cy="47.007801"
       r="3"
       fill="none"
       stroke="#000000"
       stroke-miterlimit="10"
       stroke-width="2"
       id="circle7" />
    <path
       fill="none"
       stroke="#000000"
       stroke-linecap="round"
       stroke-linejoin="round"
       stroke-width="2"
       d="m 23.9928,60.0078 c 0,0 1,-4.3112 3,-5.3112 2,-1 4,-1 6,0 2,1 3,5.3112 3,5.3112"
       id="path8" />
    <path
       fill="none"
       stroke="#000000"
       stroke-linecap="round"
       stroke-linejoin="round"
       stroke-width="2"
       d="M 52.552,20.1356 C 48.333,15.1588 42.0354,12 35,12 c -2.7693,0 -5.4243,0.4894 -7.8832,1.3865"
       id="path9" />
    <path
       fill="none"
       stroke="#000000"
       stroke-linecap="round"
       stroke-linejoin="round"
       stroke-width="2"
       d="M 39.4332,57.5731 C 47.6458,55.9695 54.2946,49.9957 56.8599,42.1715"
       id="path10" />
    <path
       fill="none"
       stroke="#000000"
       stroke-linecap="round"
       stroke-linejoin="round"
       stroke-width="2"
       d="M 12.0868,32.9884 C 12.0293,33.6513 12,34.3222 12,35 c 0,7.9743 4.0582,15.0008 10.2221,19.1268"
       id="path11" />
  </g>
</svg>
