<svg xmlns="http://www.w3.org/2000/svg" xmlns:svg="http://www.w3.org/2000/svg" id="emoji" width="64" height="51.28" version="1.1" viewBox="0 0 64 51.28"><g id="color" transform="translate(-4.0002301,-11)"><ellipse id="ellipse1" cx="20" cy="26.021" fill="#fcea2b" stroke="#fcea2b" stroke-miterlimit="10" stroke-width="2" rx="13.8" ry="13.82"/><path id="path1" fill="#fcea2b" stroke="none" d="M 18.3981,39.9096 C 15.2441,44.248 11,46 5,46 c 2.874,-1.916 5.748,-5.6676 6.8636,-8.617 z"/><circle id="circle1" cx="52" cy="41.28" r="13.8" fill="#fcea2b" stroke="#fcea2b" stroke-miterlimit="10" stroke-width="2"/><path id="path2" fill="#fcea2b" stroke="none" d="M 53.6019,55.1896 C 56.7559,59.528 61,61.28 67,61.28 64.126,59.364 61.252,55.6124 60.1364,52.663 Z"/></g><g id="line" transform="translate(-4.0002301,-11)"><circle id="circle2" cx="13" cy="26" r="2" fill="#000" stroke="none"/><circle id="circle3" cx="20" cy="26" r="2" fill="#000" stroke="none"/><circle id="circle4" cx="27" cy="26" r="2" fill="#000" stroke="none"/><path id="path4" fill="none" stroke="#000" stroke-linecap="round" stroke-linejoin="round" stroke-miterlimit="10" stroke-width="2" d="M 11.8636,37.383 C 10.748,40.3324 7.874,44.084 5,46 c 6,0 10.2441,-1.752 13.3981,-6.0904"/><path id="path5" fill="none" stroke="#000" stroke-linecap="round" stroke-miterlimit="10" stroke-width="2" d="M 22.2749,39.8161 C 28.9249,38.7295 34,32.9574 34,26 34,18.268 27.732,12 20,12 12.268,12 6,18.268 6,26 c 0,3.3337 1.1652,6.3952 3.1105,8.7995"/><circle id="circle5" cx="59" cy="41.28" r="2" fill="#000" stroke="none"/><circle id="circle6" cx="52" cy="41.28" r="2" fill="#000" stroke="none"/><circle id="circle7" cx="45" cy="41.28" r="2" fill="#000" stroke="none"/><path id="path7" fill="none" stroke="#000" stroke-linecap="round" stroke-linejoin="round" stroke-miterlimit="10" stroke-width="2" d="M 60.1364,52.663 C 61.252,55.6124 64.126,59.364 67,61.28 61,61.28 56.7559,59.528 53.6019,55.1896"/><path id="path8" fill="none" stroke="#000" stroke-linecap="round" stroke-miterlimit="10" stroke-width="2" d="M 49.7251,55.0961 C 43.0751,54.0095 38,48.2374 38,41.28 c 0,-7.732 6.268,-14 14,-14 7.732,0 14,6.268 14,14 0,3.3337 -1.1652,6.3952 -3.1105,8.7995"/></g></svg>