<?xml version="1.0" encoding="UTF-8" standalone="no"?>
<svg
   id="emoji"
   viewBox="0 0 59 54"
   version="1.1"
   sodipodi:docname="e24b.svg"
   width="59"
   height="54"
   xmlns:inkscape="http://www.inkscape.org/namespaces/inkscape"
   xmlns:sodipodi="http://sodipodi.sourceforge.net/DTD/sodipodi-0.dtd"
   xmlns="http://www.w3.org/2000/svg"
   xmlns:svg="http://www.w3.org/2000/svg">
  <defs
     id="defs5" />
  <sodipodi:namedview
     id="namedview5"
     pagecolor="#ffffff"
     bordercolor="#000000"
     borderopacity="0.25"
     inkscape:showpageshadow="2"
     inkscape:pageopacity="0.0"
     inkscape:pagecheckerboard="0"
     inkscape:deskcolor="#d1d1d1" />
  <g
     id="color"
     transform="translate(-6,-9)">
    <circle
       cx="46.5"
       cy="39.5"
       transform="matrix(0.7071,-0.7071,0.7071,0.7071,-14.3112,44.4497)"
       fill="#fcea2b"
       stroke="none"
       id="ellipse1"
       r="17.5" />
    <path
       fill="#f1b31c"
       stroke="none"
       d="m 47.5607,54.7028 c -0.789,0.789 -1.6092,1.527 -2.4482,2.231 4.9292,0.3899 9.9915,-1.289 13.762,-5.0594 6.8342,-6.8342 6.8342,-17.9146 0,-24.7487 -0.1168,-0.1168 -0.2441,-0.2156 -0.3634,-0.3284 0.3704,10.0546 -3.2747,20.2298 -10.9504,27.9055 z"
       id="path1" />
    <circle
       cx="19"
       cy="54"
       transform="matrix(0.7071,-0.7071,0.7071,0.7071,-32.6188,29.2513)"
       fill="#fcea2b"
       stroke="none"
       id="ellipse2"
       r="8" />
    <path
       fill="#f1b31c"
       stroke="none"
       d="m 19.4849,60.9498 c -0.3607,0.3607 -0.7357,0.6981 -1.1192,1.0199 2.2534,0.1782 4.5675,-0.5892 6.2912,-2.3129 3.1242,-3.1242 3.1242,-8.1895 0,-11.3137 -0.0534,-0.0534 -0.1116,-0.0985 -0.1661,-0.1501 0.1693,4.5965 -1.497,9.248 -5.0059,12.7568 z"
       id="path2" />
    <circle
       cx="18"
       cy="21"
       transform="matrix(0.7071,-0.7071,0.7071,0.7071,-9.5772,18.8787)"
       fill="#fcea2b"
       stroke="none"
       id="ellipse3"
       r="11" />
    <path
       fill="#f1b31c"
       stroke="none"
       d="m 18.6667,30.556 c -0.496,0.496 -1.0115,0.9598 -1.5389,1.4023 3.0984,0.2451 6.2804,-0.8102 8.6504,-3.1802 4.2958,-4.2958 4.2958,-11.2606 0,-15.5563 -0.0734,-0.0734 -0.1535,-0.1355 -0.2284,-0.2064 0.2328,6.3201 -2.0584,12.7159 -6.8831,17.5406 z"
       id="path3" />
  </g>
  <g
     id="hair"
     transform="translate(-6,-9)" />
  <g
     id="skin"
     transform="translate(-6,-9)" />
  <g
     id="skin-shadow"
     transform="translate(-6,-9)" />
  <g
     id="line"
     transform="translate(-6,-9)">
    <circle
       cx="19"
       cy="54"
       r="8"
       fill="none"
       stroke="#000000"
       stroke-linecap="round"
       stroke-linejoin="round"
       stroke-miterlimit="10"
       stroke-width="2"
       id="circle3" />
    <circle
       cx="46.5"
       cy="39.5"
       r="17.5"
       fill="none"
       stroke="#000000"
       stroke-linecap="round"
       stroke-linejoin="round"
       stroke-miterlimit="10"
       stroke-width="2"
       id="circle4" />
    <circle
       cx="18"
       cy="21"
       r="11"
       fill="none"
       stroke="#000000"
       stroke-linecap="round"
       stroke-linejoin="round"
       stroke-miterlimit="10"
       stroke-width="2"
       id="circle5" />
  </g>
</svg>
