<?xml version="1.0" encoding="UTF-8" standalone="no"?>
<svg
   id="emoji"
   viewBox="0 0 53.789818 41.257202"
   version="1.1"
   sodipodi:docname="e254.svg"
   width="53.789818"
   height="41.257202"
   xmlns:inkscape="http://www.inkscape.org/namespaces/inkscape"
   xmlns:sodipodi="http://sodipodi.sourceforge.net/DTD/sodipodi-0.dtd"
   xmlns="http://www.w3.org/2000/svg"
   xmlns:svg="http://www.w3.org/2000/svg">
  <defs
     id="defs6" />
  <sodipodi:namedview
     id="namedview6"
     pagecolor="#ffffff"
     bordercolor="#000000"
     borderopacity="0.25"
     inkscape:showpageshadow="2"
     inkscape:pageopacity="0.0"
     inkscape:pagecheckerboard="0"
     inkscape:deskcolor="#d1d1d1" />
  <g
     id="color"
     transform="translate(-9.3680417,-15.0204)">
    <path
       fill="#9b9b9a"
       d="m 58.3698,30.524 c -5.6511,-5.6511 -13.458,-9.1464 -22.0813,-9.1464 -8.6366,0 -16.4544,3.5061 -22.1075,9.1726 l -3.813,-3.7631 c 6.6245,-6.6507 15.7919,-10.7667 25.9205,-10.7667 10.1026,0 19.2488,4.0949 25.8694,10.7154 z"
       id="path1" />
    <path
       fill="#9b9b9a"
       d="m 21.9165,38.2856 c 3.7224,-3.7905 8.9056,-6.1416 14.6379,-6.1416 5.5973,0 10.671,2.2416 14.3724,5.876 l 3.7837,-3.7919 C 50.04,29.6267 43.6288,26.7872 36.5544,26.7872 c -7.2115,0 -13.7339,2.9506 -18.4258,7.7105 z"
       id="path2" />
    <path
       fill="#9b9b9a"
       d="m 43.3518,45.5965 c -1.7623,-1.6966 -4.158,-2.7397 -6.7974,-2.7397 -2.7741,0 -5.2791,1.1524 -7.0623,3.0046 l -3.8144,-3.8145 c 2.7547,-2.8372 6.6098,-4.6001 10.8766,-4.6001 4.1307,0 7.8755,1.6522 10.6097,4.3319 z"
       id="path3" />
    <circle
       cx="36.288601"
       cy="52.605301"
       r="2.6723001"
       fill="#9b9b9a"
       id="circle3" />
  </g>
  <g
     id="hair"
     transform="translate(-9.3680417,-15.0204)" />
  <g
     id="skin"
     transform="translate(-9.3680417,-15.0204)" />
  <g
     id="skin-shadow"
     transform="translate(-9.3680417,-15.0204)" />
  <g
     id="line"
     transform="translate(-9.3680417,-15.0204)">
    <path
       fill="none"
       stroke="#000000"
       stroke-linecap="round"
       stroke-linejoin="round"
       stroke-miterlimit="10"
       stroke-width="2"
       d="m 58.3698,30.524 c -5.6511,-5.6511 -13.458,-9.1464 -22.0813,-9.1464 -8.6366,0 -16.4544,3.5061 -22.1075,9.1726 l -3.813,-3.7631 c 6.6245,-6.6507 15.7919,-10.7667 25.9205,-10.7667 10.1026,0 19.2488,4.0949 25.8694,10.7154 z"
       id="path4" />
    <path
       fill="none"
       stroke="#000000"
       stroke-linecap="round"
       stroke-linejoin="round"
       stroke-miterlimit="10"
       stroke-width="2"
       d="m 21.9165,38.2856 c 3.7224,-3.7905 8.9056,-6.1416 14.6379,-6.1416 5.5973,0 10.671,2.2416 14.3724,5.876 l 3.7837,-3.7919 C 50.04,29.6267 43.6288,26.7872 36.5544,26.7872 c -7.2115,0 -13.7339,2.9506 -18.4258,7.7105 z"
       id="path5" />
    <path
       fill="none"
       stroke="#000000"
       stroke-linecap="round"
       stroke-linejoin="round"
       stroke-miterlimit="10"
       stroke-width="2"
       d="m 43.3518,45.5965 c -1.7623,-1.6966 -4.158,-2.7397 -6.7974,-2.7397 -2.7741,0 -5.2791,1.1524 -7.0623,3.0046 l -3.8144,-3.8145 c 2.7547,-2.8372 6.6098,-4.6001 10.8766,-4.6001 4.1307,0 7.8755,1.6522 10.6097,4.3319 z"
       id="path6" />
    <circle
       cx="36.288601"
       cy="52.605301"
       r="2.6723001"
       fill="none"
       stroke="#000000"
       stroke-linecap="round"
       stroke-linejoin="round"
       stroke-miterlimit="10"
       stroke-width="2"
       id="circle6" />
  </g>
</svg>
