<svg xmlns="http://www.w3.org/2000/svg" xmlns:svg="http://www.w3.org/2000/svg" id="emoji" width="47.178" height="62.988" version="1.1" viewBox="0 0 47.178 62.988"><g id="color" transform="translate(-10,-4.4644)"><path id="path1" fill="#fcea2b" d="m 55.3264,61.6696 c 0.4702,0 0.8513,-0.5583 0.8513,-1.2471 V 6.7115 c 0,-0.6888 -0.3811,-1.2471 -0.8513,-1.2471 H 18.6616 c -0.4702,0 -0.8513,0.5583 -0.8513,1.2471 v 33.0984 l 30.1025,21.8597 c 0,0 7.4136,0 7.4136,0 z"/><path id="path2" fill="#fcea2b" d="m 55.3442,60.3668 c 0.4603,0 0.8335,-0.5454 0.8335,-1.2182 V 6.6826 c 0,-0.6728 -0.3732,-1.2182 -0.8335,-1.2182 H 19.4465 c -0.4603,0 -0.8335,0.5454 -0.8335,1.2182 v 53.6842 z"/><path id="path3" fill="#fcea2b" d="m 18.613,6.6826 c 0,-0.6728 0.3732,-1.2182 0.8335,-1.2182 h 35.8977 c 0.4603,0 0.8335,0.5454 0.8335,1.2182 v 52.466 c 0,0.6728 -0.3732,1.2182 -0.8335,1.2182"/><path id="path4" fill="#f1b31c" d="M 51.1805,66.4522 H 15.2828 c -0.4603,0 -0.8335,-0.5454 -0.8335,-1.2182 V 58.0566 23.3439 19.4011 12.768 c 0,-0.6728 0.3732,-1.2182 0.8335,-1.2182 h 35.8977 c 0.4603,0 0.8335,0.5454 0.8335,1.2182 v 52.466 c 0,0.6728 -0.3732,1.2182 -0.8335,1.2182 z"/></g><g id="line" transform="translate(-10,-4.4644)"><path id="path5" fill="none" stroke="#000" stroke-linecap="round" stroke-linejoin="round" stroke-miterlimit="10" stroke-width="2" d="m 18.613,6.6826 c 0,-0.6728 0.3732,-1.2182 0.8335,-1.2182 h 35.8977 c 0.4603,0 0.8335,0.5454 0.8335,1.2182 v 52.466 c 0,0.6728 -0.3732,1.2182 -0.8335,1.2182"/><path id="path6" fill="none" stroke="#000" stroke-linecap="round" stroke-linejoin="round" stroke-miterlimit="10" stroke-width="2" d="M 51.1805,66.4522 H 15.2828 c -0.4603,0 -0.8335,-0.5454 -0.8335,-1.2182 V 58.0566 23.3439 19.4011 12.768 c 0,-0.6728 0.3732,-1.2182 0.8335,-1.2182 h 35.8977 c 0.4603,0 0.8335,0.5454 0.8335,1.2182 v 52.466 c 0,0.6728 -0.3732,1.2182 -0.8335,1.2182 z"/><line id="line6" x1="12.356" x2="19.628" y1="20.501" y2="20.501" fill="none" stroke="#000" stroke-linecap="round" stroke-linejoin="round" stroke-miterlimit="10" stroke-width="2"/><line id="line7" x1="12.356" x2="19.628" y1="27.864" y2="27.864" fill="none" stroke="#000" stroke-linecap="round" stroke-linejoin="round" stroke-miterlimit="10" stroke-width="2"/><line id="line8" x1="11" x2="18.272" y1="35.319" y2="35.319" fill="none" stroke="#000" stroke-linecap="round" stroke-linejoin="round" stroke-miterlimit="10" stroke-width="2"/><line id="line9" x1="18.272" x2="11" y1="42.683" y2="42.683" fill="none" stroke="#000" stroke-linecap="round" stroke-linejoin="round" stroke-miterlimit="10" stroke-width="2"/><line id="line10" x1="11" x2="18.272" y1="50.046" y2="50.046" fill="none" stroke="#000" stroke-linecap="round" stroke-linejoin="round" stroke-miterlimit="10" stroke-width="2"/><line id="line11" x1="11" x2="18.272" y1="57.41" y2="57.41" fill="none" stroke="#000" stroke-linecap="round" stroke-linejoin="round" stroke-miterlimit="10" stroke-width="2"/><path id="path11" fill="none" stroke="#000" stroke-linecap="round" stroke-linejoin="round" stroke-width="2" d="m 42.8181,45.6368 c 0,0 0,-0.7431 -0.3715,-2.2292 -0.4499,-1.8004 -1.4862,-2.9723 -3.7154,-2.9723 -1.8577,0 -5.5731,0 -8.1739,0 -2.2292,0 -3.2653,1.172 -3.7154,2.9723 -0.3715,1.4862 -0.3715,2.2292 -0.3715,2.2292"/><path id="path12" fill="none" stroke="#000" stroke-linejoin="round" stroke-width="2" d="m 30.9288,33.0044 c 0,1.3838 0.2003,2.9012 0.7431,3.7154 0.6916,1.0377 1.8642,1.4862 2.9723,1.4862 1.1502,0 2.28,-0.4485 2.9723,-1.4862 0.5424,-0.8142 0.7431,-2.3316 0.7431,-3.7154 0,-1.0379 -0.3715,-4.4585 -3.7154,-4.4585 -3.3439,0 -3.7154,2.7286 -3.7154,4.4585 z"/></g></svg>