<?xml version="1.0" encoding="UTF-8" standalone="no"?>
<svg
   id="emoji"
   viewBox="0 0 52 51.999931"
   version="1.1"
   sodipodi:docname="e257.svg"
   width="52"
   height="51.999931"
   xmlns:inkscape="http://www.inkscape.org/namespaces/inkscape"
   xmlns:sodipodi="http://sodipodi.sourceforge.net/DTD/sodipodi-0.dtd"
   xmlns="http://www.w3.org/2000/svg"
   xmlns:svg="http://www.w3.org/2000/svg">
  <defs
     id="defs2" />
  <sodipodi:namedview
     id="namedview2"
     pagecolor="#ffffff"
     bordercolor="#000000"
     borderopacity="0.25"
     inkscape:showpageshadow="2"
     inkscape:pageopacity="0.0"
     inkscape:pagecheckerboard="0"
     inkscape:deskcolor="#d1d1d1" />
  <g
     id="color"
     transform="translate(-10,-9.9792)">
    <polyline
       fill="#fcea2b"
       stroke="none"
       stroke-linecap="round"
       stroke-linejoin="round"
       stroke-miterlimit="10"
       stroke-width="2"
       points="36,10.9792 11,10.9792 11,16.0207 31.5,34.25 31.5,56.021 40.5,60.9792 40.5,34.25 61,16.0208 61,10.9792 36,10.9792"
       id="polyline1" />
    <polygon
       fill="#f1b31c"
       stroke="none"
       points="39.2683,58.875 39.2683,33.9081 59.7683,15.5833 59.7683,12.1715 49.5183,12.1715 49.5183,16.0254 36.0183,32.8581 36,57.1932 "
       id="polygon1" />
  </g>
  <g
     id="hair"
     transform="translate(-10,-9.9792)" />
  <g
     id="skin"
     transform="translate(-10,-9.9792)" />
  <g
     id="skin-shadow"
     transform="translate(-10,-9.9792)" />
  <g
     id="line"
     transform="translate(-10,-9.9792)">
    <polyline
       fill="none"
       stroke="#000000"
       stroke-linecap="round"
       stroke-linejoin="round"
       stroke-miterlimit="10"
       stroke-width="2"
       points="36,10.9792 11,10.9792 11,16.0207 31.5,34.25 31.5,56.021 40.5,60.9792 40.5,34.25 61,16.0208 61,10.9792 36,10.9792"
       id="polyline2" />
  </g>
</svg>
