<svg xmlns="http://www.w3.org/2000/svg" xmlns:svg="http://www.w3.org/2000/svg" id="emoji" width="40.961" height="62.543" version="1.1" viewBox="0 0 40.961 62.543"><g id="color" transform="translate(-15.859466,-5.6874)"><path id="path1" fill="#fcea2b" d="m 55.6239,48.0593 c 0,11.975 -7.1616,18.3072 -16.2494,18.3906 C 33.6042,66.5028 20.969,65.6004 22.7573,35.2972"/><path id="path2" fill="#fcea2b" d="m 48.8393,37.5921 c 0.081,-1.9313 1.7123,-3.4313 3.6436,-3.3502 1.9313,0.0811 3.4313,1.7123 3.3502,3.6436"/><path id="path3" fill="#fcea2b" d="m 41.8423,37.3592 c 0.081,-1.9313 1.7123,-3.4313 3.6436,-3.3502 1.9313,0.0811 3.4313,1.7123 3.3502,3.6436"/><path id="path4" fill="#fcea2b" d="m 41.8463,37.2253 c 0.155,-1.9268 1.8426,-3.3631 3.7694,-3.2081 1.9268,0.155 3.3631,1.8426 3.2081,3.7694"/><path id="path5" fill="#fcea2b" d="m 34.8047,36.8809 c 0.1237,-1.929 1.7878,-3.3925 3.7168,-3.2688 1.929,0.1237 3.3925,1.7878 3.2688,3.7168"/><path id="path6" fill="#fcea2b" d="m 23.2915,46.1851 c -2.001,-4.5612 -3.367,-5.3685 -4.7912,-7.1091 -1.9507,-2.3841 -1.4098,-4.1029 -0.5634,-4.9205 1.3903,-1.3429 5.6942,0.7837 7.0371,2.1741"/><path id="path7" fill="#fcea2b" d="m 27.8047,14.5086 c 0,-1.933 1.567,-3.5 3.5,-3.5 1.933,0 3.5,1.567 3.5,3.5"/><line id="line7" x1="24.844" x2="22.886" y1="36.455" y2="34.242" fill="none"/><line id="line8" x1="17.851" x2="19.672" y1="39.105" y2="41.485" fill="none"/><polygon id="polygon8" fill="#fcea2b" points="27.852 14.174 34.805 14.174 34.915 41.924 27.852 39.957"/><rect id="rect8" width="20.921" height="12.226" x="34.915" y="36.844" fill="#fcea2b"/><polygon id="polygon9" fill="#fcea2b" points="25.658 35.884 27.822 38.814 27.805 40.065 25.149 39.07"/></g><g id="line" transform="translate(-15.859466,-5.6874)"><path id="path9" d="m 23.6487,13.4223 c 0,-4.2718 3.463,-7.7349 7.7349,-7.7349 4.2719,0 7.7349,3.463 7.7349,7.7349 0,2.6699 -1.3527,5.0239 -3.4102,6.4139 -0.78,0.527 -0.412,-4.9898 -1.8246,-7.6565 -0.8231,-1.5539 -3.4931,-0.8244 -4.0828,-0.8244 -1.5102,0 -1.3365,9.3691 -2.5272,8.6208 -2.1776,-1.3684 -3.625,-3.7921 -3.625,-6.5538 z"/><path id="path10" fill="none" stroke="#000" stroke-linecap="round" stroke-linejoin="round" stroke-width="2" d="m 55.8163,50.7743 c 0,9.0883 -7.3675,16.4558 -16.4558,16.4558 -9.0883,0 -16.4558,-7.3675 -16.4558,-16.4558"/><line id="line10" x1="55.816" x2="55.816" y1="50.951" y2="37.901" fill="none" stroke="#000" stroke-linecap="round" stroke-linejoin="round" stroke-width="2"/><path id="path11" fill="none" stroke="#000" stroke-linecap="round" stroke-linejoin="round" stroke-width="2" d="m 48.824,37.6074 c 0.081,-1.9313 1.7123,-3.4313 3.6436,-3.3502 1.9313,0.0811 3.4313,1.7123 3.3502,3.6436"/><path id="path12" fill="none" stroke="#000" stroke-linecap="round" stroke-linejoin="round" stroke-width="2" d="m 41.827,37.3745 c 0.081,-1.9313 1.7123,-3.4313 3.6436,-3.3502 1.9313,0.0811 3.4313,1.7123 3.3502,3.6436"/><path id="path13" fill="none" stroke="#000" stroke-linecap="round" stroke-linejoin="round" stroke-width="2" d="m 41.8311,37.2406 c 0.155,-1.9268 1.8426,-3.3631 3.7694,-3.2081 1.9268,0.155 3.3631,1.8426 3.2081,3.7694"/><path id="path14" fill="none" stroke="#000" stroke-linecap="round" stroke-linejoin="round" stroke-width="2" d="m 34.7895,36.8962 c 0.1237,-1.929 1.7878,-3.3925 3.7168,-3.2688 1.929,0.1237 3.3925,1.7878 3.2688,3.7168"/><path id="path15" fill="none" stroke="#000" stroke-linecap="round" stroke-linejoin="round" stroke-width="2" d="m 17.8357,39.1198 c -1.3429,-1.3904 -1.3044,-3.6061 0.086,-4.949 1.3904,-1.3429 3.6061,-1.3044 4.949,0.086"/><path id="path16" fill="none" stroke="#000" stroke-linecap="round" stroke-linejoin="round" stroke-width="2" d="m 27.7895,14.5239 c 0,-1.933 1.567,-3.5 3.5,-3.5 1.933,0 3.5,1.567 3.5,3.5"/><line id="line16" x1="34.79" x2="34.79" y1="36.859" y2="14.524" fill="none" stroke="#000" stroke-linecap="round" stroke-linejoin="round" stroke-width="2"/><line id="line17" x1="27.789" x2="27.789" y1="14.524" y2="42.314" fill="none" stroke="#000" stroke-linecap="round" stroke-linejoin="round" stroke-width="2"/><line id="line18" x1="24.829" x2="22.871" y1="36.471" y2="34.257" fill="none" stroke="#000" stroke-linecap="round" stroke-linejoin="round" stroke-width="2"/><path id="path18" fill="none" stroke="#000" stroke-linecap="round" stroke-linejoin="round" stroke-width="2" d="m 19.6034,41.4395 c 1.9526,2.1439 3.3734,5.1677 3.3013,9.5218"/><line id="line19" x1="17.836" x2="19.657" y1="39.12" y2="41.5" fill="none" stroke="#000" stroke-linecap="round" stroke-linejoin="round" stroke-width="2"/></g></svg>