<?xml version="1.0" encoding="UTF-8" standalone="no"?>
<svg
   id="emoji"
   viewBox="0 0 40.96143 62.542702"
   version="1.1"
   sodipodi:docname="e25a.svg"
   width="40.96143"
   height="62.542702"
   xmlns:inkscape="http://www.inkscape.org/namespaces/inkscape"
   xmlns:sodipodi="http://sodipodi.sourceforge.net/DTD/sodipodi-0.dtd"
   xmlns="http://www.w3.org/2000/svg"
   xmlns:svg="http://www.w3.org/2000/svg">
  <defs
     id="defs19" />
  <sodipodi:namedview
     id="namedview19"
     pagecolor="#ffffff"
     bordercolor="#000000"
     borderopacity="0.25"
     inkscape:showpageshadow="2"
     inkscape:pageopacity="0.0"
     inkscape:pagecheckerboard="0"
     inkscape:deskcolor="#d1d1d1" />
  <g
     id="color"
     transform="translate(-15.859466,-5.6874)">
    <path
       fill="#fcea2b"
       d="m 55.6239,48.0593 c 0,11.975 -7.1616,18.3072 -16.2494,18.3906 C 33.6042,66.5028 20.969,65.6004 22.7573,35.2972"
       id="path1" />
    <path
       fill="#fcea2b"
       d="m 48.8393,37.5921 c 0.081,-1.9313 1.7123,-3.4313 3.6436,-3.3502 1.9313,0.0811 3.4313,1.7123 3.3502,3.6436"
       id="path2" />
    <path
       fill="#fcea2b"
       d="m 41.8423,37.3592 c 0.081,-1.9313 1.7123,-3.4313 3.6436,-3.3502 1.9313,0.0811 3.4313,1.7123 3.3502,3.6436"
       id="path3" />
    <path
       fill="#fcea2b"
       d="m 41.8463,37.2253 c 0.155,-1.9268 1.8426,-3.3631 3.7694,-3.2081 1.9268,0.155 3.3631,1.8426 3.2081,3.7694"
       id="path4" />
    <path
       fill="#fcea2b"
       d="m 34.8047,36.8809 c 0.1237,-1.929 1.7878,-3.3925 3.7168,-3.2688 1.929,0.1237 3.3925,1.7878 3.2688,3.7168"
       id="path5" />
    <path
       fill="#fcea2b"
       d="m 23.2915,46.1851 c -2.001,-4.5612 -3.367,-5.3685 -4.7912,-7.1091 -1.9507,-2.3841 -1.4098,-4.1029 -0.5634,-4.9205 1.3903,-1.3429 5.6942,0.7837 7.0371,2.1741"
       id="path6" />
    <path
       fill="#fcea2b"
       d="m 27.8047,14.5086 c 0,-1.933 1.567,-3.5 3.5,-3.5 1.933,0 3.5,1.567 3.5,3.5"
       id="path7" />
    <line
       x1="24.843901"
       x2="22.8859"
       y1="36.455299"
       y2="34.241501"
       fill="none"
       id="line7" />
    <line
       x1="17.850901"
       x2="19.6723"
       y1="39.1045"
       y2="41.484699"
       fill="none"
       id="line8" />
    <polygon
       fill="#fcea2b"
       points="27.8523,14.1742 34.8047,14.1742 34.9148,41.9242 27.8523,39.9566 "
       id="polygon8" />
    <rect
       x="34.914799"
       y="36.8438"
       width="20.9214"
       height="12.2262"
       fill="#fcea2b"
       id="rect8" />
    <polygon
       fill="#fcea2b"
       points="25.6582,35.8843 27.8224,38.814 27.8047,40.0649 25.1492,39.0701 "
       id="polygon9" />
  </g>
  <g
     id="line"
     transform="translate(-15.859466,-5.6874)">
    <path
       d="m 23.6487,13.4223 c 0,-4.2718 3.463,-7.7349 7.7349,-7.7349 4.2719,0 7.7349,3.463 7.7349,7.7349 0,2.6699 -1.3527,5.0239 -3.4102,6.4139 -0.78,0.527 -0.412,-4.9898 -1.8246,-7.6565 -0.8231,-1.5539 -3.4931,-0.8244 -4.0828,-0.8244 -1.5102,0 -1.3365,9.3691 -2.5272,8.6208 -2.1776,-1.3684 -3.625,-3.7921 -3.625,-6.5538 z"
       id="path9" />
    <path
       fill="none"
       stroke="#000000"
       stroke-linecap="round"
       stroke-linejoin="round"
       stroke-width="2"
       d="m 55.8163,50.7743 c 0,9.0883 -7.3675,16.4558 -16.4558,16.4558 -9.0883,0 -16.4558,-7.3675 -16.4558,-16.4558"
       id="path10" />
    <line
       x1="55.816002"
       x2="55.816299"
       y1="50.950802"
       y2="37.900799"
       fill="none"
       stroke="#000000"
       stroke-linecap="round"
       stroke-linejoin="round"
       stroke-width="2"
       id="line10" />
    <path
       fill="none"
       stroke="#000000"
       stroke-linecap="round"
       stroke-linejoin="round"
       stroke-width="2"
       d="m 48.824,37.6074 c 0.081,-1.9313 1.7123,-3.4313 3.6436,-3.3502 1.9313,0.0811 3.4313,1.7123 3.3502,3.6436"
       id="path11" />
    <path
       fill="none"
       stroke="#000000"
       stroke-linecap="round"
       stroke-linejoin="round"
       stroke-width="2"
       d="m 41.827,37.3745 c 0.081,-1.9313 1.7123,-3.4313 3.6436,-3.3502 1.9313,0.0811 3.4313,1.7123 3.3502,3.6436"
       id="path12" />
    <path
       fill="none"
       stroke="#000000"
       stroke-linecap="round"
       stroke-linejoin="round"
       stroke-width="2"
       d="m 41.8311,37.2406 c 0.155,-1.9268 1.8426,-3.3631 3.7694,-3.2081 1.9268,0.155 3.3631,1.8426 3.2081,3.7694"
       id="path13" />
    <path
       fill="none"
       stroke="#000000"
       stroke-linecap="round"
       stroke-linejoin="round"
       stroke-width="2"
       d="m 34.7895,36.8962 c 0.1237,-1.929 1.7878,-3.3925 3.7168,-3.2688 1.929,0.1237 3.3925,1.7878 3.2688,3.7168"
       id="path14" />
    <path
       fill="none"
       stroke="#000000"
       stroke-linecap="round"
       stroke-linejoin="round"
       stroke-width="2"
       d="m 17.8357,39.1198 c -1.3429,-1.3904 -1.3044,-3.6061 0.086,-4.949 1.3904,-1.3429 3.6061,-1.3044 4.949,0.086"
       id="path15" />
    <path
       fill="none"
       stroke="#000000"
       stroke-linecap="round"
       stroke-linejoin="round"
       stroke-width="2"
       d="m 27.7895,14.5239 c 0,-1.933 1.567,-3.5 3.5,-3.5 1.933,0 3.5,1.567 3.5,3.5"
       id="path16" />
    <line
       x1="34.789501"
       x2="34.789501"
       y1="36.8591"
       y2="14.5239"
       fill="none"
       stroke="#000000"
       stroke-linecap="round"
       stroke-linejoin="round"
       stroke-width="2"
       id="line16" />
    <line
       x1="27.789499"
       x2="27.789499"
       y1="14.5239"
       y2="42.314499"
       fill="none"
       stroke="#000000"
       stroke-linecap="round"
       stroke-linejoin="round"
       stroke-width="2"
       id="line17" />
    <line
       x1="24.8286"
       x2="22.8706"
       y1="36.470501"
       y2="34.256802"
       fill="none"
       stroke="#000000"
       stroke-linecap="round"
       stroke-linejoin="round"
       stroke-width="2"
       id="line18" />
    <path
       fill="none"
       stroke="#000000"
       stroke-linecap="round"
       stroke-linejoin="round"
       stroke-width="2"
       d="m 19.6034,41.4395 c 1.9526,2.1439 3.3734,5.1677 3.3013,9.5218"
       id="path18" />
    <line
       x1="17.835699"
       x2="19.657101"
       y1="39.119801"
       y2="41.5"
       fill="none"
       stroke="#000000"
       stroke-linecap="round"
       stroke-linejoin="round"
       stroke-width="2"
       id="line19" />
  </g>
</svg>
