<svg xmlns="http://www.w3.org/2000/svg" xmlns:svg="http://www.w3.org/2000/svg" id="emoji" width="50" height="50" version="1.1" viewBox="0 0 50 50"><g id="color" transform="translate(-10.8015,-10.9968)"><rect id="rect1" width="34.882" height="34.944" x="12.802" y="24.086" fill="#d0cfce" stroke="none"/><rect id="rect2" width="34.901" height="34.786" x="24.894" y="12.081" fill="#fff" stroke="none"/></g><g id="line" transform="translate(-10.8015,-10.9968)"><path id="path2" fill="none" stroke="#000" stroke-linecap="round" stroke-linejoin="round" stroke-miterlimit="10" stroke-width="2" d="m 46.8015,51.984 v 7.013 c 0,0.55 -0.45,1 -1,1 h -33 c -0.55,0 -1,-0.45 -1,-1 v -33 c 0,-0.5523 0.4477,-1 1,-1 h 7.0819"/><path id="path3" fill="none" stroke="#000" stroke-linecap="round" stroke-linejoin="round" stroke-miterlimit="10" stroke-width="2" d="m 58.8017,46.9968 h -33 c -0.55,0 -1,-0.45 -1,-1 v -33 c 0,-0.5523 0.4477,-1 1,-1 h 33 c 0.55,0 1,0.45 1,1 v 33 c 0,0.55 -0.45,1 -1,1 z"/></g></svg>