<?xml version="1.0" encoding="UTF-8" standalone="no"?>
<svg
   id="emoji"
   viewBox="0 0 50.000198 50.000198"
   version="1.1"
   sodipodi:docname="e25b.svg"
   width="50.000198"
   height="50.000198"
   xmlns:inkscape="http://www.inkscape.org/namespaces/inkscape"
   xmlns:sodipodi="http://sodipodi.sourceforge.net/DTD/sodipodi-0.dtd"
   xmlns="http://www.w3.org/2000/svg"
   xmlns:svg="http://www.w3.org/2000/svg">
  <defs
     id="defs3" />
  <sodipodi:namedview
     id="namedview3"
     pagecolor="#ffffff"
     bordercolor="#000000"
     borderopacity="0.25"
     inkscape:showpageshadow="2"
     inkscape:pageopacity="0.0"
     inkscape:pagecheckerboard="0"
     inkscape:deskcolor="#d1d1d1" />
  <g
     id="color"
     transform="translate(-10.8015,-10.9968)">
    <rect
       x="12.8019"
       y="24.0856"
       width="34.881599"
       height="34.943501"
       fill="#d0cfce"
       stroke="none"
       id="rect1" />
    <rect
       x="24.8936"
       y="12.0814"
       width="34.900902"
       height="34.785702"
       fill="#ffffff"
       stroke="none"
       id="rect2" />
  </g>
  <g
     id="hair"
     transform="translate(-10.8015,-10.9968)" />
  <g
     id="skin"
     transform="translate(-10.8015,-10.9968)" />
  <g
     id="skin-shadow"
     transform="translate(-10.8015,-10.9968)" />
  <g
     id="line"
     transform="translate(-10.8015,-10.9968)">
    <path
       fill="none"
       stroke="#000000"
       stroke-linecap="round"
       stroke-linejoin="round"
       stroke-miterlimit="10"
       stroke-width="2"
       d="m 46.8015,51.984 v 7.013 c 0,0.55 -0.45,1 -1,1 h -33 c -0.55,0 -1,-0.45 -1,-1 v -33 c 0,-0.5523 0.4477,-1 1,-1 h 7.0819"
       id="path2" />
    <path
       fill="none"
       stroke="#000000"
       stroke-linecap="round"
       stroke-linejoin="round"
       stroke-miterlimit="10"
       stroke-width="2"
       d="m 58.8017,46.9968 h -33 c -0.55,0 -1,-0.45 -1,-1 v -33 c 0,-0.5523 0.4477,-1 1,-1 h 33 c 0.55,0 1,0.45 1,1 v 33 c 0,0.55 -0.45,1 -1,1 z"
       id="path3" />
  </g>
</svg>
