<?xml version="1.0" encoding="UTF-8" standalone="no"?>
<svg
   id="emoji"
   viewBox="0 0 49.631828 49.516727"
   version="1.1"
   sodipodi:docname="e25d.svg"
   width="49.631828"
   height="49.516727"
   xmlns:inkscape="http://www.inkscape.org/namespaces/inkscape"
   xmlns:sodipodi="http://sodipodi.sourceforge.net/DTD/sodipodi-0.dtd"
   xmlns="http://www.w3.org/2000/svg"
   xmlns:svg="http://www.w3.org/2000/svg">
  <defs
     id="defs3" />
  <sodipodi:namedview
     id="namedview3"
     pagecolor="#ffffff"
     bordercolor="#000000"
     borderopacity="0.25"
     inkscape:showpageshadow="2"
     inkscape:pageopacity="0.0"
     inkscape:pagecheckerboard="0"
     inkscape:deskcolor="#d1d1d1" />
  <g
     id="color"
     transform="translate(-11.1685,-11.250873)">
    <rect
       x="12.854"
       y="16.5774"
       width="42.4977"
       height="42.245998"
       fill="#ffffff"
       stroke="none"
       id="rect1" />
    <polygon
       fill="#f4aa41"
       stroke="none"
       points="34.5571,34.687 32.775,39.4058 37.4938,37.6238 "
       id="polygon1" />
    <rect
       x="44.820202"
       y="9.0122995"
       width="5.3523002"
       height="31.132299"
       transform="matrix(0.7071,0.7071,-0.7071,0.7071,31.291,-26.3861)"
       fill="#a57939"
       stroke="none"
       id="rect2" />
  </g>
  <g
     id="hair"
     transform="translate(-11.1685,-11.250873)" />
  <g
     id="skin"
     transform="translate(-11.1685,-11.250873)" />
  <g
     id="skin-shadow"
     transform="translate(-11.1685,-11.250873)" />
  <g
     id="line"
     transform="translate(-11.1685,-11.250873)">
    <path
       fill="none"
       stroke="#000000"
       stroke-linecap="round"
       stroke-linejoin="round"
       stroke-miterlimit="10"
       stroke-width="2"
       d="m 54.5567,28.084 v 30.6836 c 0,0.55 -0.45,1 -1,1 H 13.1685 c -0.55,0 -1,-0.45 -1,-1 V 18.3794 c 0,-0.5523 0.4477,-1 1,-1 h 31.0229"
       id="path2" />
    <path
       fill="none"
       stroke="#000000"
       stroke-linecap="round"
       stroke-linejoin="round"
       stroke-miterlimit="10"
       stroke-width="2"
       d="M 38.0526,37.7487 59.5137,16.2876 c 0.3905,-0.3905 0.3905,-1.0237 0,-1.4142 l -2.3359,-2.3359 c -0.3905,-0.3905 -1.0237,-0.3905 -1.4142,0 l -21.4611,21.4611 -2.6258,6.3865 6.3759,-2.6364 -3.7501,-3.7501"
       id="path3" />
  </g>
</svg>
