<?xml version="1.0" encoding="UTF-8" standalone="no"?>
<svg
   id="emoji"
   viewBox="0 0 47.8437 52.876701"
   version="1.1"
   sodipodi:docname="e260.svg"
   width="47.8437"
   height="52.876701"
   xmlns:inkscape="http://www.inkscape.org/namespaces/inkscape"
   xmlns:sodipodi="http://sodipodi.sourceforge.net/DTD/sodipodi-0.dtd"
   xmlns="http://www.w3.org/2000/svg"
   xmlns:svg="http://www.w3.org/2000/svg">
  <defs
     id="defs8" />
  <sodipodi:namedview
     id="namedview8"
     pagecolor="#ffffff"
     bordercolor="#000000"
     borderopacity="0.25"
     inkscape:showpageshadow="2"
     inkscape:pageopacity="0.0"
     inkscape:pagecheckerboard="0"
     inkscape:deskcolor="#d1d1d1" />
  <g
     id="color"
     transform="translate(-12.0782,-8.1253996)">
    <path
       fill="#a57939"
       stroke="none"
       stroke-linecap="round"
       stroke-linejoin="round"
       stroke-miterlimit="10"
       stroke-width="2"
       d="M 57.9219,59.7151 H 14.0782 c -0.55,0 -1,-0.45 -1,-1 V 35.1819 c 0,-0.55 0.45,-1 1,-1 h 43.8437 c 0.55,0 1,0.45 1,1 v 23.5332 c 0,0.55 -0.45,1 -1,1 z"
       id="path1" />
  </g>
  <g
     id="hair"
     transform="translate(-12.0782,-8.1253996)" />
  <g
     id="skin"
     transform="translate(-12.0782,-8.1253996)" />
  <g
     id="skin-shadow"
     transform="translate(-12.0782,-8.1253996)" />
  <g
     id="line"
     transform="translate(-12.0782,-8.1253996)">
    <path
       fill="none"
       stroke="#000000"
       stroke-linecap="round"
       stroke-linejoin="round"
       stroke-miterlimit="10"
       stroke-width="2"
       d="M 57.9219,59.7151 H 14.0782 c -0.55,0 -1,-0.45 -1,-1 V 35.1819 c 0,-0.55 0.45,-1 1,-1 h 43.8437 c 0.55,0 1,0.45 1,1 v 23.5332 c 0,0.55 -0.45,1 -1,1 z"
       id="path2" />
    <path
       fill="none"
       stroke="#000000"
       stroke-linecap="round"
       stroke-linejoin="round"
       stroke-miterlimit="10"
       stroke-width="2"
       d="M 57.7185,60.0021 H 14.3634 c -0.6323,0 -1.1449,-0.5126 -1.1449,-1.1449 V 35.103 c 0,-0.6323 0.5126,-1.1449 1.1449,-1.1449 h 43.3551 c 0.6323,0 1.1449,0.5126 1.1449,1.1449 v 23.7542 c 0,0.6323 -0.5126,1.1449 -1.1449,1.1449 z"
       id="path3" />
    <line
       x1="13.4425"
       x2="58.809299"
       y1="47.0112"
       y2="47.0112"
       fill="none"
       stroke="#000000"
       stroke-linecap="round"
       stroke-linejoin="round"
       stroke-miterlimit="10"
       stroke-width="2"
       id="line3" />
    <line
       x1="40.027599"
       x2="32.000801"
       y1="38.9697"
       y2="38.9697"
       fill="none"
       stroke="#000000"
       stroke-linecap="round"
       stroke-linejoin="round"
       stroke-miterlimit="10"
       stroke-width="2"
       id="line4" />
    <line
       x1="40.027599"
       x2="32.000801"
       y1="51.973202"
       y2="51.973202"
       fill="none"
       stroke="#000000"
       stroke-linecap="round"
       stroke-linejoin="round"
       stroke-miterlimit="10"
       stroke-width="2"
       id="line5" />
    <line
       x1="36.047001"
       x2="36.047001"
       y1="9.1253996"
       y2="27.995199"
       fill="none"
       stroke="#000000"
       stroke-linecap="round"
       stroke-linejoin="round"
       stroke-miterlimit="10"
       stroke-width="2"
       id="line6" />
    <line
       x1="42.2019"
       x2="36.061901"
       y1="21.873899"
       y2="28.013901"
       fill="none"
       stroke="#000000"
       stroke-linecap="round"
       stroke-linejoin="round"
       stroke-miterlimit="10"
       stroke-width="2"
       id="line7" />
    <line
       x1="29.871901"
       x2="36.011902"
       y1="21.873899"
       y2="28.013901"
       fill="none"
       stroke="#000000"
       stroke-linecap="round"
       stroke-linejoin="round"
       stroke-miterlimit="10"
       stroke-width="2"
       id="line8" />
  </g>
</svg>
