<svg xmlns="http://www.w3.org/2000/svg" xmlns:svg="http://www.w3.org/2000/svg" id="emoji" width="47.844" height="52.877" version="1.1" viewBox="0 0 47.844 52.877"><g id="color" transform="translate(-12.0782,-8.1253996)"><path id="path1" fill="#a57939" stroke="none" stroke-linecap="round" stroke-linejoin="round" stroke-miterlimit="10" stroke-width="2" d="M 57.9219,59.7151 H 14.0782 c -0.55,0 -1,-0.45 -1,-1 V 35.1819 c 0,-0.55 0.45,-1 1,-1 h 43.8437 c 0.55,0 1,0.45 1,1 v 23.5332 c 0,0.55 -0.45,1 -1,1 z"/></g><g id="line" transform="translate(-12.0782,-8.1253996)"><path id="path2" fill="none" stroke="#000" stroke-linecap="round" stroke-linejoin="round" stroke-miterlimit="10" stroke-width="2" d="M 57.9219,59.7151 H 14.0782 c -0.55,0 -1,-0.45 -1,-1 V 35.1819 c 0,-0.55 0.45,-1 1,-1 h 43.8437 c 0.55,0 1,0.45 1,1 v 23.5332 c 0,0.55 -0.45,1 -1,1 z"/><path id="path3" fill="none" stroke="#000" stroke-linecap="round" stroke-linejoin="round" stroke-miterlimit="10" stroke-width="2" d="M 57.7185,60.0021 H 14.3634 c -0.6323,0 -1.1449,-0.5126 -1.1449,-1.1449 V 35.103 c 0,-0.6323 0.5126,-1.1449 1.1449,-1.1449 h 43.3551 c 0.6323,0 1.1449,0.5126 1.1449,1.1449 v 23.7542 c 0,0.6323 -0.5126,1.1449 -1.1449,1.1449 z"/><line id="line3" x1="13.443" x2="58.809" y1="47.011" y2="47.011" fill="none" stroke="#000" stroke-linecap="round" stroke-linejoin="round" stroke-miterlimit="10" stroke-width="2"/><line id="line4" x1="40.028" x2="32.001" y1="38.97" y2="38.97" fill="none" stroke="#000" stroke-linecap="round" stroke-linejoin="round" stroke-miterlimit="10" stroke-width="2"/><line id="line5" x1="40.028" x2="32.001" y1="51.973" y2="51.973" fill="none" stroke="#000" stroke-linecap="round" stroke-linejoin="round" stroke-miterlimit="10" stroke-width="2"/><line id="line6" x1="36.047" x2="36.047" y1="9.125" y2="27.995" fill="none" stroke="#000" stroke-linecap="round" stroke-linejoin="round" stroke-miterlimit="10" stroke-width="2"/><line id="line7" x1="42.202" x2="36.062" y1="21.874" y2="28.014" fill="none" stroke="#000" stroke-linecap="round" stroke-linejoin="round" stroke-miterlimit="10" stroke-width="2"/><line id="line8" x1="29.872" x2="36.012" y1="21.874" y2="28.014" fill="none" stroke="#000" stroke-linecap="round" stroke-linejoin="round" stroke-miterlimit="10" stroke-width="2"/></g></svg>