<?xml version="1.0" encoding="UTF-8" standalone="no"?>
<svg
   id="emoji"
   viewBox="0 0 50 39"
   version="1.1"
   sodipodi:docname="e261.svg"
   width="50"
   height="39"
   xmlns:inkscape="http://www.inkscape.org/namespaces/inkscape"
   xmlns:sodipodi="http://sodipodi.sourceforge.net/DTD/sodipodi-0.dtd"
   xmlns="http://www.w3.org/2000/svg"
   xmlns:svg="http://www.w3.org/2000/svg">
  <defs
     id="defs11" />
  <sodipodi:namedview
     id="namedview11"
     pagecolor="#ffffff"
     bordercolor="#000000"
     borderopacity="0.25"
     inkscape:showpageshadow="2"
     inkscape:pageopacity="0.0"
     inkscape:pagecheckerboard="0"
     inkscape:deskcolor="#d1d1d1" />
  <g
     id="color"
     transform="translate(-11,-17)">
    <rect
       x="24"
       y="18"
       width="36"
       height="7"
       fill="#d0cfce"
       stroke="none"
       id="rect1" />
    <rect
       x="24"
       y="33"
       width="36"
       height="7"
       fill="#d0cfce"
       stroke="none"
       id="rect2" />
    <rect
       x="24"
       y="48"
       width="36"
       height="7"
       fill="#d0cfce"
       stroke="none"
       id="rect3" />
    <rect
       x="12"
       y="48"
       width="7"
       height="7"
       fill="#9b9b9a"
       stroke="none"
       id="rect4" />
    <rect
       x="12"
       y="33"
       width="7"
       height="7"
       fill="#9b9b9a"
       stroke="none"
       id="rect5" />
    <rect
       x="12"
       y="18"
       width="7"
       height="7"
       fill="#9b9b9a"
       stroke="none"
       id="rect6" />
  </g>
  <g
     id="hair"
     transform="translate(-11,-17)" />
  <g
     id="skin"
     transform="translate(-11,-17)" />
  <g
     id="skin-shadow"
     transform="translate(-11,-17)" />
  <g
     id="line"
     transform="translate(-11,-17)">
    <path
       fill="none"
       stroke="#000000"
       stroke-linecap="round"
       stroke-linejoin="round"
       stroke-miterlimit="10"
       stroke-width="2"
       d="M 59,25 H 25 c -0.5523,0 -1,-0.4477 -1,-1 v -5 c 0,-0.5523 0.4477,-1 1,-1 h 34 c 0.5523,0 1,0.4477 1,1 v 5 c 0,0.5523 -0.4477,1 -1,1 z"
       id="path6" />
    <path
       fill="none"
       stroke="#000000"
       stroke-linecap="round"
       stroke-linejoin="round"
       stroke-miterlimit="10"
       stroke-width="2"
       d="M 59,40 H 25 c -0.5523,0 -1,-0.4477 -1,-1 v -5 c 0,-0.5523 0.4477,-1 1,-1 h 34 c 0.5523,0 1,0.4477 1,1 v 5 c 0,0.5523 -0.4477,1 -1,1 z"
       id="path7" />
    <path
       fill="none"
       stroke="#000000"
       stroke-linecap="round"
       stroke-linejoin="round"
       stroke-miterlimit="10"
       stroke-width="2"
       d="M 59,55 H 25 c -0.5523,0 -1,-0.4477 -1,-1 v -5 c 0,-0.5523 0.4477,-1 1,-1 h 34 c 0.5523,0 1,0.4477 1,1 v 5 c 0,0.5523 -0.4477,1 -1,1 z"
       id="path8" />
    <path
       fill="none"
       stroke="#000000"
       stroke-linecap="round"
       stroke-linejoin="round"
       stroke-miterlimit="10"
       stroke-width="2"
       d="m 18,25 h -5 c -0.5523,0 -1,-0.4477 -1,-1 v -5 c 0,-0.5523 0.4477,-1 1,-1 h 5 c 0.5523,0 1,0.4477 1,1 v 5 c 0,0.5523 -0.4477,1 -1,1 z"
       id="path9" />
    <path
       fill="none"
       stroke="#000000"
       stroke-linecap="round"
       stroke-linejoin="round"
       stroke-miterlimit="10"
       stroke-width="2"
       d="m 18,40 h -5 c -0.5523,0 -1,-0.4477 -1,-1 v -5 c 0,-0.5523 0.4477,-1 1,-1 h 5 c 0.5523,0 1,0.4477 1,1 v 5 c 0,0.5523 -0.4477,1 -1,1 z"
       id="path10" />
    <path
       fill="none"
       stroke="#000000"
       stroke-linecap="round"
       stroke-linejoin="round"
       stroke-miterlimit="10"
       stroke-width="2"
       d="m 18,55 h -5 c -0.5523,0 -1,-0.4477 -1,-1 v -5 c 0,-0.5523 0.4477,-1 1,-1 h 5 c 0.5523,0 1,0.4477 1,1 v 5 c 0,0.5523 -0.4477,1 -1,1 z"
       id="path11" />
  </g>
</svg>
