<?xml version="1.0" encoding="UTF-8" standalone="no"?>
<svg
   id="emoji"
   viewBox="0 0 42.999771 48"
   version="1.1"
   sodipodi:docname="e263.svg"
   width="42.999771"
   height="48"
   xmlns:inkscape="http://www.inkscape.org/namespaces/inkscape"
   xmlns:sodipodi="http://sodipodi.sourceforge.net/DTD/sodipodi-0.dtd"
   xmlns="http://www.w3.org/2000/svg"
   xmlns:svg="http://www.w3.org/2000/svg">
  <defs
     id="defs6" />
  <sodipodi:namedview
     id="namedview6"
     pagecolor="#ffffff"
     bordercolor="#000000"
     borderopacity="0.25"
     inkscape:showpageshadow="2"
     inkscape:pageopacity="0.0"
     inkscape:pagecheckerboard="0"
     inkscape:deskcolor="#d1d1d1" />
  <g
     id="color"
     transform="translate(-14.00023,-14)">
    <circle
       cx="36"
       cy="35"
       r="20.799999"
       fill="#fcea2b"
       stroke="none"
       id="circle1" />
    <path
       fill="#fcea2b"
       stroke="none"
       d="M 23.437,50.3563 C 22.1049,53.8785 18.4321,58.7119 15,61 c 7.1652,0 12.2335,-2.0922 16,-7.2731"
       id="path1" />
  </g>
  <g
     id="hair"
     transform="translate(-14.00023,-14)" />
  <g
     id="skin"
     transform="translate(-14.00023,-14)" />
  <g
     id="skin-shadow"
     transform="translate(-14.00023,-14)" />
  <g
     id="line"
     transform="translate(-14.00023,-14)">
    <circle
       cx="26.000099"
       cy="35.0788"
       r="2.8571"
       fill="#000000"
       stroke="none"
       id="circle2" />
    <circle
       cx="36.000099"
       cy="35.0788"
       r="2.8571"
       fill="#000000"
       stroke="none"
       id="circle3" />
    <circle
       cx="46.000099"
       cy="35.0788"
       r="2.8571"
       fill="#000000"
       stroke="none"
       id="circle4" />
    <path
       fill="none"
       stroke="#000000"
       stroke-linecap="round"
       stroke-linejoin="round"
       stroke-miterlimit="10"
       stroke-width="2"
       d="M 23.437,50.3563 C 22.1049,53.8785 18.4321,58.7119 15,61 c 7.1652,0 12.2335,-2.0922 16,-7.2731"
       id="path4" />
    <path
       fill="none"
       stroke="#000000"
       stroke-linecap="round"
       stroke-linejoin="round"
       stroke-miterlimit="10"
       stroke-width="2"
       d="M 23.437,50.3563 C 22.1049,53.8785 18.4321,58.7119 15,61 c 7.1652,0 12.2335,-2.0922 16,-7.2731"
       id="path5" />
    <path
       fill="none"
       stroke="#000000"
       stroke-linecap="round"
       stroke-miterlimit="10"
       stroke-width="2"
       d="M 20.4809,47.6168 C 17.6795,44.1751 16,39.7837 16,35 16,23.9543 24.9543,15 36,15 c 11.0457,0 20,8.9543 20,20 0,11.0457 -8.9543,20 -20,20 -0.3703,0 -0.7383,-0.0101 -1.1037,-0.0299"
       id="path6" />
  </g>
</svg>
