<?xml version="1.0" encoding="UTF-8" standalone="no"?>
<svg
   id="emoji"
   viewBox="0 0 42 42"
   version="1.1"
   sodipodi:docname="e264.svg"
   width="42"
   height="42"
   xmlns:inkscape="http://www.inkscape.org/namespaces/inkscape"
   xmlns:sodipodi="http://sodipodi.sourceforge.net/DTD/sodipodi-0.dtd"
   xmlns="http://www.w3.org/2000/svg"
   xmlns:svg="http://www.w3.org/2000/svg">
  <defs
     id="defs2" />
  <sodipodi:namedview
     id="namedview2"
     pagecolor="#ffffff"
     bordercolor="#000000"
     borderopacity="0.25"
     inkscape:showpageshadow="2"
     inkscape:pageopacity="0.0"
     inkscape:pagecheckerboard="0"
     inkscape:deskcolor="#d1d1d1" />
  <g
     id="color"
     transform="translate(-15,-15)">
    <polygon
       fill="#d0cfce"
       stroke="none"
       points="39.2,16 32.8,16 32.8,32.8 16,32.8 16,39.2 32.8,39.2 32.8,56 39.2,56 39.2,39.2 56,39.2 56,32.8 39.2,32.8 "
       id="polygon1" />
  </g>
  <g
     id="hair"
     transform="translate(-15,-15)" />
  <g
     id="skin"
     transform="translate(-15,-15)" />
  <g
     id="skin-shadow"
     transform="translate(-15,-15)" />
  <g
     id="line"
     transform="translate(-15,-15)">
    <polygon
       fill="none"
       stroke="#000000"
       stroke-linecap="round"
       stroke-linejoin="round"
       stroke-miterlimit="10"
       stroke-width="2"
       points="39.2,16 32.8,16 32.8,32.8 16,32.8 16,39.2 32.8,39.2 32.8,56 39.2,56 39.2,39.2 56,39.2 56,32.8 39.2,32.8 "
       id="polygon2" />
  </g>
</svg>
