<svg xmlns="http://www.w3.org/2000/svg" xmlns:svg="http://www.w3.org/2000/svg" id="emoji" width="48" height="48" version="1.1" viewBox="0 0 48 48"><g id="color" transform="translate(-12,-12)"><path id="path1" fill="#fcea2b" d="M 36,13.2002 C 23.4281,13.2002 13.2002,23.4281 13.2002,36 13.2002,48.5718 23.4281,58.7998 36,58.7998 48.5718,58.7998 58.7998,48.5718 58.7998,36 58.7998,23.4281 48.5718,13.2002 36,13.2002 Z"/><path id="path2" fill="#fff" d="m 31.5797,31.3465 c 0,2.4645 -2.0004,4.4626 -4.4626,4.4626 -2.4622,0 -4.4626,-1.9981 -4.4626,-4.4626 0,-2.4622 2.0004,-4.4626 4.4626,-4.4626 2.4622,0 4.4626,2.0004 4.4626,4.4626"/><path id="path3" fill="#fff" d="m 49.5797,31.3465 c 0,2.4645 -2.0004,4.4626 -4.4626,4.4626 -2.4622,0 -4.4626,-1.9981 -4.4626,-4.4626 0,-2.4622 2.0004,-4.4626 4.4626,-4.4626 2.4622,0 4.4626,2.0004 4.4626,4.4626"/></g><g id="line" transform="translate(-12,-12)"><circle id="circle3" cx="36" cy="36" r="23" fill="none" stroke="#000" stroke-miterlimit="10" stroke-width="2"/><path id="path4" fill="none" stroke="#000" stroke-miterlimit="10" stroke-width="2" d="m 31.7799,31.4626 c 0,2.4645 -2.0004,4.4626 -4.4626,4.4626 -2.4622,0 -4.4626,-1.9981 -4.4626,-4.4626 0,-2.4622 2.0004,-4.4626 4.4626,-4.4626 2.4622,0 4.4626,2.0004 4.4626,4.4626"/><path id="path5" d="m 29.3173,31.9252 c 0,1.1045 -0.8965,2 -2,2 -1.1035,0 -2,-0.8955 -2,-2 0,-1.1035 0.8965,-2 2,-2 1.1035,0 2,0.8965 2,2"/><path id="path6" fill="none" stroke="#000" stroke-miterlimit="10" stroke-width="2" d="m 49.7799,31.4626 c 0,2.4645 -2.0004,4.4626 -4.4626,4.4626 -2.4622,0 -4.4626,-1.9981 -4.4626,-4.4626 0,-2.4622 2.0004,-4.4626 4.4626,-4.4626 2.4622,0 4.4626,2.0004 4.4626,4.4626"/><path id="path7" d="m 47.3173,31.9252 c 0,1.1045 -0.8965,2 -2,2 -1.1035,0 -2,-0.8955 -2,-2 0,-1.1035 0.8965,-2 2,-2 1.1035,0 2,0.8965 2,2"/><path id="path8" d="m 22.8547,31 c 0,-2.4622 2.0004,-4.4626 4.4626,-4.4626 2.4622,0 4.4626,2.0004 4.4626,4.4626"/><path id="path9" d="m 40.8547,31 c 0,-2.4622 2.0004,-4.4626 4.4626,-4.4626 2.4622,0 4.4626,2.0004 4.4626,4.4626"/><path id="path10" fill="none" stroke="#000" stroke-linecap="round" stroke-linejoin="round" stroke-miterlimit="10" stroke-width="2" d="m 29,43 c 1.2841,-0.6376 3.9847,-1.0308 6.8421,-0.9981 2.6235,0.03 4.9897,0.4146 6.1579,0.9981"/></g></svg>