<svg xmlns="http://www.w3.org/2000/svg" xmlns:svg="http://www.w3.org/2000/svg" id="emoji" width="48" height="48" version="1.1" viewBox="0 0 48 48"><g id="color" transform="translate(-12,-12)"><path id="path1" fill="#fcea2b" d="m 36.2,13.32 c -12.57,0 -22.8,10.23 -22.8,22.8 0,12.57 10.23,22.8 22.8,22.8 C 48.77,58.92 59,48.69 59,36.12 59,23.55 48.77,13.32 36.2,13.32 Z"/></g><g id="line" transform="translate(-12,-12)"><circle id="circle1" cx="36" cy="36" r="23" fill="none" stroke="#000" stroke-miterlimit="10" stroke-width="2"/><line id="line1" x1="28.99" x2="43.01" y1="51" y2="51" fill="none" stroke="#000" stroke-linecap="round" stroke-linejoin="round" stroke-miterlimit="10" stroke-width="2"/><path id="path2" d="m 29.2,42 c 0,1.657 -1.345,3 -3,3 -1.655,0 -3,-1.343 -3,-3 0,-1.655 1.345,-3 3,-3 1.655,0 3,1.345 3,3"/><path id="path3" d="m 48.8,42 c 0,1.657 -1.345,3 -3,3 -1.655,0 -3,-1.343 -3,-3 0,-1.655 1.345,-3 3,-3 1.655,0 3,1.345 3,3"/></g></svg>