<?xml version="1.0" encoding="UTF-8" standalone="no"?>
<svg
   id="emoji"
   viewBox="0 0 48 48"
   version="1.1"
   sodipodi:docname="e282.svg"
   width="48"
   height="48"
   xmlns:inkscape="http://www.inkscape.org/namespaces/inkscape"
   xmlns:sodipodi="http://sodipodi.sourceforge.net/DTD/sodipodi-0.dtd"
   xmlns="http://www.w3.org/2000/svg"
   xmlns:svg="http://www.w3.org/2000/svg">
  <defs
     id="defs3" />
  <sodipodi:namedview
     id="namedview3"
     pagecolor="#ffffff"
     bordercolor="#000000"
     borderopacity="0.25"
     inkscape:showpageshadow="2"
     inkscape:pageopacity="0.0"
     inkscape:pagecheckerboard="0"
     inkscape:deskcolor="#d1d1d1" />
  <g
     id="color"
     transform="translate(-12,-12)">
    <path
       fill="#fcea2b"
       d="m 36.2,13.32 c -12.57,0 -22.8,10.23 -22.8,22.8 0,12.57 10.23,22.8 22.8,22.8 C 48.77,58.92 59,48.69 59,36.12 59,23.55 48.77,13.32 36.2,13.32 Z"
       id="path1" />
  </g>
  <g
     id="line"
     transform="translate(-12,-12)">
    <circle
       cx="36"
       cy="36"
       r="23"
       fill="none"
       stroke="#000000"
       stroke-miterlimit="10"
       stroke-width="2"
       id="circle1" />
    <line
       x1="28.99"
       x2="43.009998"
       y1="51"
       y2="51"
       fill="none"
       stroke="#000000"
       stroke-linecap="round"
       stroke-linejoin="round"
       stroke-miterlimit="10"
       stroke-width="2"
       id="line1" />
    <path
       d="m 29.2,42 c 0,1.657 -1.345,3 -3,3 -1.655,0 -3,-1.343 -3,-3 0,-1.655 1.345,-3 3,-3 1.655,0 3,1.345 3,3"
       id="path2" />
    <path
       d="m 48.8,42 c 0,1.657 -1.345,3 -3,3 -1.655,0 -3,-1.343 -3,-3 0,-1.655 1.345,-3 3,-3 1.655,0 3,1.345 3,3"
       id="path3" />
  </g>
</svg>
