<?xml version="1.0" encoding="UTF-8" standalone="no"?>
<svg
   id="emoji"
   viewBox="0 0 48 48"
   version="1.1"
   sodipodi:docname="e283.svg"
   width="48"
   height="48"
   xmlns:inkscape="http://www.inkscape.org/namespaces/inkscape"
   xmlns:sodipodi="http://sodipodi.sourceforge.net/DTD/sodipodi-0.dtd"
   xmlns="http://www.w3.org/2000/svg"
   xmlns:svg="http://www.w3.org/2000/svg">
  <defs
     id="defs7" />
  <sodipodi:namedview
     id="namedview7"
     pagecolor="#ffffff"
     bordercolor="#000000"
     borderopacity="0.25"
     inkscape:showpageshadow="2"
     inkscape:pageopacity="0.0"
     inkscape:pagecheckerboard="0"
     inkscape:deskcolor="#d1d1d1" />
  <g
     id="color"
     transform="translate(-12,-12)">
    <path
       fill="#fcea2b"
       d="M 36.2,13.3 A 22.8,22.8 0 1 0 59,36.1 22.79,22.79 0 0 0 36.2,13.3 Z"
       id="path1" />
    <path
       fill="#ea5a47"
       d="m 40.5,41.7 c -1.8,4.3 -2,6 -5.5,8.9 -5.6,4.8 -7.6,-4.1 -5.7,-8.9 z"
       id="path2" />
  </g>
  <g
     id="line"
     transform="translate(-12,-12)">
    <circle
       cx="36"
       cy="36"
       r="23"
       fill="none"
       stroke="#000000"
       stroke-miterlimit="10"
       stroke-width="2"
       id="circle2" />
    <path
       fill="none"
       stroke="#000000"
       stroke-miterlimit="10"
       stroke-width="2"
       d="m 40.5,42.25 c -1.8,5.8 -6,10.7 -9,9.8 -3,-0.9 -4,-4.9 -2.3,-10.8"
       id="path3" />
    <path
       fill="none"
       stroke="#000000"
       stroke-linecap="round"
       stroke-linejoin="round"
       stroke-width="2.0013"
       d="m 46.8,39.7 a 4,4 0 0 0 0,6"
       id="path4" />
    <path
       fill="none"
       stroke="#000000"
       stroke-linecap="round"
       stroke-linejoin="round"
       stroke-width="2.0013"
       d="m 23.8,42.7 c 2.3,-0.8 6.8,-1 10.5,-1 3.7,0 8.3,0.2 10.5,1"
       id="path5" />
    <path
       fill="none"
       stroke="#000000"
       stroke-linecap="round"
       stroke-miterlimit="10"
       stroke-width="2"
       d="m 48.9,32.4 a 4.7,4.7 0 0 0 -8.6,0"
       id="path6" />
    <path
       fill="none"
       stroke="#000000"
       stroke-linecap="round"
       stroke-miterlimit="10"
       stroke-width="2"
       d="m 31.7,32.4 a 4.7,4.7 0 0 0 -8.6,0"
       id="path7" />
  </g>
</svg>
