<?xml version="1.0" encoding="UTF-8" standalone="no"?>
<svg
   id="emoji"
   viewBox="0 0 64 64"
   version="1.1"
   sodipodi:docname="e2c1.svg"
   width="64"
   height="64"
   xmlns:inkscape="http://www.inkscape.org/namespaces/inkscape"
   xmlns:sodipodi="http://sodipodi.sourceforge.net/DTD/sodipodi-0.dtd"
   xmlns="http://www.w3.org/2000/svg"
   xmlns:svg="http://www.w3.org/2000/svg">
  <defs
     id="defs3" />
  <sodipodi:namedview
     id="namedview3"
     pagecolor="#ffffff"
     bordercolor="#000000"
     borderopacity="0.25"
     inkscape:showpageshadow="2"
     inkscape:pageopacity="0.0"
     inkscape:pagecheckerboard="0"
     inkscape:deskcolor="#d1d1d1" />
  <g
     id="color"
     transform="translate(-4,-4)">
    <rect
       x="4"
       y="4"
       width="64"
       height="64"
       fill="#92d3f5"
       id="rect1" />
    <path
       fill="#61b2e4"
       d="m 9.5508,36.7741 -0.5426,0.8373 a 6.0547,6.0547 0 0 0 -0.2276,6.2048 l 4.3152,7.8676 a 6.0545,6.0545 0 0 0 1.68,1.9353 l 5.5942,4.1878 a 6.0555,6.0555 0 0 0 3.4784,1.2059 l 16.9841,0.4217 a 6.0541,6.0541 0 0 0 1.8789,-0.25 l 11.4443,-3.4089 a 6.055,6.055 0 0 0 3.5273,-2.7967 l 5.3387,-9.3336 a 6.055,6.055 0 0 0 -1.6049,-7.8367 v 0"
       id="path1" />
    <polygon
       fill="#ffffff"
       points="13.726,40.833 21.917,46.965 41.627,46.965 54.854,42.387 61.417,30.808 48.417,22.833 30.167,28.583 19.705,25.833 9.551,32.48 "
       id="polygon1" />
    <polyline
       fill="#ffffff"
       points="9.551 32.48 9.551 39.48 13.726 47.833 21.917 53.965 41.627 53.965 54.854 49.387 61.417 37.808 61.417 30.808"
       id="polyline1" />
    <polyline
       fill="#ffffff"
       points="32.917 53.965 34.042 50.958 32.542 49.583 33.604 46.965"
       id="polyline2" />
    <path
       fill="#ffffff"
       d="m 30.1667,28.5833 4.1874,5.3125 -3.1874,3.6875 1.0937,3.25 -1.7813,2.125 a 32.0259,32.0259 0 0 0 1.125,4.0065"
       id="path2" />
  </g>
  <g
     id="line"
     transform="translate(-4,-4)">
    <polygon
       fill="none"
       stroke="#000000"
       stroke-linecap="round"
       stroke-linejoin="round"
       stroke-width="2"
       points="13.726,40.833 21.917,46.965 41.627,46.965 54.854,42.387 61.417,30.808 48.417,22.833 30.167,28.583 19.705,25.833 9.551,32.48 "
       id="polygon2" />
    <polyline
       fill="none"
       stroke="#000000"
       stroke-linecap="round"
       stroke-linejoin="round"
       stroke-width="2"
       points="9.551 32.48 9.551 39.48 13.726 47.833 21.917 53.965 41.627 53.965 54.854 49.387 61.417 37.808 61.417 30.808"
       id="polyline3" />
  </g>
</svg>
