<?xml version="1.0" encoding="UTF-8" standalone="no"?>
<svg
   id="emoji"
   viewBox="0 0 64 64"
   version="1.1"
   sodipodi:docname="e2c2.svg"
   width="64"
   height="64"
   xmlns:inkscape="http://www.inkscape.org/namespaces/inkscape"
   xmlns:sodipodi="http://sodipodi.sourceforge.net/DTD/sodipodi-0.dtd"
   xmlns="http://www.w3.org/2000/svg"
   xmlns:svg="http://www.w3.org/2000/svg">
  <defs
     id="defs4" />
  <sodipodi:namedview
     id="namedview4"
     pagecolor="#ffffff"
     bordercolor="#000000"
     borderopacity="0.25"
     inkscape:showpageshadow="2"
     inkscape:pageopacity="0.0"
     inkscape:pagecheckerboard="0"
     inkscape:deskcolor="#d1d1d1" />
  <g
     id="color"
     transform="translate(-4,-4)">
    <rect
       x="4"
       y="4"
       width="64"
       height="64"
       fill="#92d3f5"
       id="rect1" />
    <path
       fill="#61b2e4"
       d="m 9.8841,36.7741 -0.5426,0.8373 a 6.0551,6.0551 0 0 0 -0.2276,6.2048 l 4.3153,7.8676 a 6.0542,6.0542 0 0 0 1.68,1.9353 l 5.5939,4.1878 a 6.0555,6.0555 0 0 0 3.4784,1.2059 l 16.9842,0.4217 a 6.0538,6.0538 0 0 0 1.8788,-0.25 l 11.4443,-3.4089 a 6.0552,6.0552 0 0 0 3.5274,-2.7967 l 5.3386,-9.3336 A 6.0549,6.0549 0 0 0 61.75,35.8085 v 0"
       id="path1" />
    <polygon
       fill="#ffffff"
       points="14.06,40.833 22.25,46.965 41.96,46.965 55.187,42.387 61.75,30.808 48.75,22.833 30.5,28.583 20.039,25.833 9.884,32.48 "
       id="polygon1" />
    <polyline
       fill="#ffffff"
       points="9.884 32.48 9.884 39.48 14.06 47.833 22.25 53.965 41.96 53.965 55.187 49.387 61.75 37.808 61.75 30.808"
       id="polyline1" />
    <polyline
       fill="#ffffff"
       points="33.25 53.965 34.375 50.958 32.875 49.583 33.937 46.965"
       id="polyline2" />
    <path
       fill="#ffffff"
       d="m 30.5,28.5833 4.1875,5.3125 -3.1875,3.6875 1.0938,3.25 -1.7813,2.125 a 32.0088,32.0088 0 0 0 1.125,4.0065"
       id="path2" />
  </g>
  <g
     id="line"
     transform="translate(-4,-4)">
    <polygon
       fill="none"
       stroke="#000000"
       stroke-linecap="round"
       stroke-linejoin="round"
       stroke-width="2"
       points="14.06,40.833 22.25,46.965 41.96,46.965 55.187,42.387 61.75,30.808 48.75,22.833 30.5,28.583 20.039,25.833 9.884,32.48 "
       id="polygon2" />
    <polyline
       fill="none"
       stroke="#000000"
       stroke-linecap="round"
       stroke-linejoin="round"
       stroke-width="2"
       points="9.884 32.48 9.884 39.48 14.06 47.833 22.25 53.965 41.96 53.965 55.187 49.387 61.75 37.808 61.75 30.808"
       id="polyline3" />
    <polyline
       fill="none"
       stroke="#000000"
       stroke-linecap="round"
       stroke-linejoin="round"
       stroke-width="2"
       points="33.25 53.965 34.375 50.958 32.875 49.583 33.937 46.965"
       id="polyline4" />
    <path
       fill="none"
       stroke="#000000"
       stroke-linecap="round"
       stroke-linejoin="round"
       stroke-width="2"
       d="m 30.5,28.5833 4.1875,5.3125 -3.1875,3.6875 1.0938,3.25 -1.7813,2.125 a 32.0088,32.0088 0 0 0 1.125,4.0065"
       id="path4" />
  </g>
</svg>
