<?xml version="1.0" encoding="UTF-8" standalone="no"?>
<svg
   id="emoji"
   viewBox="0 0 14.046342 62.125061"
   version="1.1"
   sodipodi:docname="e2c4.svg"
   width="14.046342"
   height="62.125061"
   xmlns:inkscape="http://www.inkscape.org/namespaces/inkscape"
   xmlns:sodipodi="http://sodipodi.sourceforge.net/DTD/sodipodi-0.dtd"
   xmlns="http://www.w3.org/2000/svg"
   xmlns:svg="http://www.w3.org/2000/svg">
  <defs
     id="defs11" />
  <sodipodi:namedview
     id="namedview11"
     pagecolor="#ffffff"
     bordercolor="#000000"
     borderopacity="0.25"
     inkscape:showpageshadow="2"
     inkscape:pageopacity="0.0"
     inkscape:pagecheckerboard="0"
     inkscape:deskcolor="#d1d1d1" />
  <g
     id="color"
     transform="translate(-28.930758,-4.9999386)">
    <polygon
       fill="#ea5a47"
       points="40.687,66.125 40.687,32.625 31.312,32.625 31.312,41.391 31.312,66.125 "
       id="polygon1" />
    <polygon
       fill="#d22f27"
       points="40.687,66.125 40.687,32.625 37.771,32.625 37.771,41.391 37.771,66.125 "
       id="polygon2" />
    <rect
       x="31.3125"
       y="32.625"
       width="9.375"
       height="8.5"
       fill="#d0cfce"
       id="rect2" />
    <rect
       x="37.770802"
       y="32.625"
       width="2.9166"
       height="8.5"
       fill="#9b9b9a"
       id="rect3" />
  </g>
  <g
     id="line"
     transform="translate(-28.930758,-4.9999386)">
    <polygon
       fill="none"
       stroke="#000000"
       stroke-linecap="round"
       stroke-linejoin="round"
       stroke-width="2"
       points="40.687,66.125 40.687,32.625 31.312,32.625 31.312,41.391 31.312,66.125 "
       id="polygon3" />
    <line
       x1="31.3125"
       x2="40.6875"
       y1="41.391399"
       y2="41.391399"
       fill="none"
       stroke="#000000"
       stroke-linecap="round"
       stroke-linejoin="round"
       stroke-width="2"
       id="line3" />
    <path
       fill="none"
       stroke="#000000"
       stroke-linecap="round"
       stroke-linejoin="round"
       stroke-width="2"
       d="m 36,32.625 0.1412,-14.1237 a 9.3053,9.3053 0 0 0 -0.5293,-2.8977 l -1.0051,-2.5809 a 11.319,11.319 0 0 1 -0.6275,-2.8954 l -0.1461,-2.63 A 1.4067,1.4067 0 0 1 35.25,6 h 1.5 a 1.4054,1.4054 0 0 1 1.4156,1.4976 l -0.162,2.8744 a 10.4354,10.4354 0 0 1 -0.2431,1.9243 l -0.1588,0.4266"
       id="path3" />
    <line
       x1="33.0625"
       x2="39.0625"
       y1="24.75"
       y2="24.75"
       fill="none"
       stroke="#000000"
       stroke-linecap="round"
       stroke-linejoin="round"
       stroke-width="2"
       id="line4" />
  </g>
  <g
     id="color-foreground"
     transform="translate(-28.930758,-4.9999386)">
    <path
       fill="#ea5a47"
       d="m 37.07,44.3038 4.2988,-1.1665 a 2.2445,2.2445 0 0 0 1.5656,-1.2692 1.6785,1.6785 0 0 0 -1.2394,-1.9813 l -0.025,1.0988 a 0.9419,0.9419 0 0 1 -0.701,0.889 l -4.3112,1.1395 -6.026,1.4753 c -0.21,0.0571 -1.3188,0.3239 -1.5656,1.2692 a 2.9247,2.9247 0 0 0 0.2319,2.2988 L 30.331,46.641 a 0.9418,0.9418 0 0 1 0.701,-0.8889 z"
       id="path4" />
    <path
       fill="#d22f27"
       d="m 37.07,45.3038 4.2988,-1.1665 a 3.0112,3.0112 0 0 0 1.4319,-1.0228 1.0106,1.0106 0 0 0 0.1425,-0.5293 c 0.0339,-1.0775 0.0339,-0.8932 0.0339,-1.0435 a 7.9451,7.9451 0 0 1 -2.1328,1.3658 c -0.1773,0.069 -4.1869,1.1066 -4.1869,1.1066 l -6.026,1.4753 a 2.2445,2.2445 0 0 0 -1.5656,1.2692 1.6624,1.6624 0 0 0 1.2393,1.9814 l 0.0254,-1.0989 a 0.9418,0.9418 0 0 1 0.701,-0.8889 z"
       id="path5" />
    <path
       fill="#ea5a47"
       d="m 37.07,50.3038 4.2988,-1.1665 a 2.2445,2.2445 0 0 0 1.5656,-1.2692 1.6785,1.6785 0 0 0 -1.2394,-1.9813 l -0.025,1.0988 a 0.9419,0.9419 0 0 1 -0.701,0.889 l -4.3112,1.1395 -6.026,1.4753 c -0.21,0.0571 -1.3188,0.3239 -1.5656,1.2692 a 2.9247,2.9247 0 0 0 0.2319,2.2988 L 30.331,52.641 a 0.9418,0.9418 0 0 1 0.701,-0.8889 z"
       id="path6" />
    <path
       fill="#d22f27"
       d="m 37.07,51.3038 4.2988,-1.1665 a 3.0112,3.0112 0 0 0 1.4319,-1.0228 1.0106,1.0106 0 0 0 0.1425,-0.5293 c 0.0339,-1.0775 0.0339,-0.8932 0.0339,-1.0435 a 7.9451,7.9451 0 0 1 -2.1328,1.3658 c -0.1773,0.069 -4.1869,1.1066 -4.1869,1.1066 l -6.026,1.4753 a 2.2445,2.2445 0 0 0 -1.5656,1.2692 1.6624,1.6624 0 0 0 1.2393,1.9814 l 0.0254,-1.0989 a 0.9418,0.9418 0 0 1 0.701,-0.8889 z"
       id="path7" />
    <path
       fill="#ea5a47"
       d="m 37.07,56.3038 4.2988,-1.1665 a 2.2445,2.2445 0 0 0 1.5656,-1.2692 1.6785,1.6785 0 0 0 -1.2394,-1.9813 l -0.025,1.0988 a 0.9419,0.9419 0 0 1 -0.701,0.889 l -4.3112,1.1395 -6.026,1.4753 c -0.21,0.0571 -1.3188,0.3239 -1.5656,1.2692 a 2.9247,2.9247 0 0 0 0.2319,2.2988 L 30.331,58.641 a 0.9418,0.9418 0 0 1 0.701,-0.8889 z"
       id="path8" />
    <path
       fill="#d22f27"
       d="m 37.07,57.3038 4.2988,-1.1665 a 3.0112,3.0112 0 0 0 1.4319,-1.0228 1.0106,1.0106 0 0 0 0.1425,-0.5293 c 0.0339,-1.0775 0.0339,-0.8932 0.0339,-1.0435 a 7.9451,7.9451 0 0 1 -2.1328,1.3658 c -0.1773,0.069 -4.1869,1.1066 -4.1869,1.1066 l -6.026,1.4753 a 2.2445,2.2445 0 0 0 -1.5656,1.2692 1.6624,1.6624 0 0 0 1.2393,1.9814 l 0.0254,-1.0989 a 0.9418,0.9418 0 0 1 0.701,-0.8889 z"
       id="path9" />
    <path
       fill="#ea5a47"
       d="m 37.07,62.3038 4.2988,-1.1665 a 2.2445,2.2445 0 0 0 1.5656,-1.2692 1.6785,1.6785 0 0 0 -1.2394,-1.9813 l -0.025,1.0988 a 0.9419,0.9419 0 0 1 -0.701,0.889 l -4.3112,1.1395 -6.026,1.4753 c -0.21,0.0571 -1.3188,0.3239 -1.5656,1.2692 a 2.7583,2.7583 0 0 0 0.29,2.2988 l 0.9744,-1.4164 a 0.9418,0.9418 0 0 1 0.701,-0.8889 z"
       id="path10" />
    <path
       fill="#d22f27"
       d="m 37.07,63.3038 4.2988,-1.1665 a 3.0112,3.0112 0 0 0 1.4319,-1.0228 1.0106,1.0106 0 0 0 0.1425,-0.5293 c 0.0339,-1.0775 0.0339,-0.8932 0.0339,-1.0435 a 7.9451,7.9451 0 0 1 -2.1328,1.3658 c -0.1773,0.069 -4.1869,1.1066 -4.1869,1.1066 l -6.026,1.4753 a 2.2445,2.2445 0 0 0 -1.5656,1.2692 c -0.3176,1.6 1.4,1.9316 1.4,1.9316 L 30.3304,65.641 a 0.9418,0.9418 0 0 1 0.701,-0.8889 z"
       id="path11" />
  </g>
</svg>
