<?xml version="1.0" encoding="UTF-8" standalone="no"?>
<svg
   id="emoji"
   viewBox="0 0 19.527 58.816002"
   version="1.1"
   sodipodi:docname="e2c9.svg"
   width="19.527"
   height="58.816002"
   xmlns:inkscape="http://www.inkscape.org/namespaces/inkscape"
   xmlns:sodipodi="http://sodipodi.sourceforge.net/DTD/sodipodi-0.dtd"
   xmlns="http://www.w3.org/2000/svg"
   xmlns:svg="http://www.w3.org/2000/svg">
  <defs
     id="defs12" />
  <sodipodi:namedview
     id="namedview12"
     pagecolor="#ffffff"
     bordercolor="#000000"
     borderopacity="0.25"
     inkscape:showpageshadow="2"
     inkscape:pageopacity="0.0"
     inkscape:pagecheckerboard="0"
     inkscape:deskcolor="#d1d1d1" />
  <g
     id="color"
     transform="translate(-26.2365,-6.5)">
    <path
       fill="#d22f27"
       d="m 43.375,23 a 4.29,4.29 0 0 0 -4.4285,-3.9164 h -6.1246 a 4.3473,4.3473 0 0 0 -4.2963,4.1314 l -0.8084,19.4393 a 1.0026,1.0026 0 0 1 -0.1234,0.4369 L 30.5882,40.9969 29.86,63.13 a 1.2146,1.2146 0 0 0 0.2552,0.8789 0.2473,0.2473 0 0 0 0.1552,0.09 c 0.2184,0 1.29,-0.3847 1.37,-1.0835 l 2.5782,-22.5781 a 4.2574,4.2574 0 0 1 0.1715,-1.1593 l 0.74,-0.8052 h 1.6586 l 0.6489,0.7458 a 4.3879,4.3879 0 0 1 0.4219,1.25 l 2.625,22.5468 a 1.3294,1.3294 0 0 0 1.014,1.0815 0.2481,0.2481 0 0 0 0.1551,-0.09 c 0.1962,-0.2483 0.5,-0.585 0.4663,-0.9 l -0.9516,-22.11 3.5721,2.43 z"
       id="path1" />
    <path
       fill="#fcea2b"
       d="m 38.9949,12.58 a 3.0323,3.0323 0 0 1 -6.0633,0 2.9475,2.9475 0 0 1 0.2042,-1.08 h 5.5631 a 0.2887,0.2887 0 0 0 0.0919,-0.01 3,3 0 0 1 0.2041,1.09 z"
       id="path2" />
    <line
       x1="30.486601"
       x2="33.036499"
       y1="47.695099"
       y2="48.0625"
       fill="none"
       stroke="#ffffff"
       stroke-linecap="square"
       stroke-linejoin="round"
       stroke-width="2"
       id="line2" />
    <line
       x1="30.486601"
       x2="33.036499"
       y1="50.695099"
       y2="51.0625"
       fill="none"
       stroke="#ffffff"
       stroke-linecap="square"
       stroke-linejoin="round"
       stroke-width="2"
       id="line3" />
    <line
       x1="39.486599"
       x2="42.036499"
       y1="51.0625"
       y2="50.695099"
       fill="none"
       stroke="#ffffff"
       stroke-linecap="square"
       stroke-linejoin="round"
       stroke-width="2"
       id="line4" />
    <line
       x1="39.486599"
       x2="42.036499"
       y1="48.0625"
       y2="47.695099"
       fill="none"
       stroke="#ffffff"
       stroke-linecap="square"
       stroke-linejoin="round"
       stroke-width="2"
       id="line5" />
    <line
       x1="27.8657"
       x2="30.415501"
       y1="29.0277"
       y2="29.3951"
       fill="none"
       stroke="#ffffff"
       stroke-linecap="square"
       stroke-linejoin="round"
       stroke-width="2"
       id="line6" />
    <line
       x1="41.661999"
       x2="44.2118"
       y1="29.3951"
       y2="29.0277"
       fill="none"
       stroke="#ffffff"
       stroke-linecap="square"
       stroke-linejoin="round"
       stroke-width="2"
       id="line7" />
    <path
       fill="#a57939"
       d="m 40.565,8.03 v 5.12 c 0,0 -0.47,1.12 -1.12,0 v -2.04 h -6.76 v 2.08 c -0.65,1.12 -1.12,0 -1.12,0 V 8.03 a 0.7341,0.7341 0 0 1 0.73,-0.73 h 7.54 a 0.7341,0.7341 0 0 1 0.73,0.73 z"
       id="path7" />
    <rect
       x="37.520802"
       y="7.0833001"
       width="2.8958001"
       height="3.8417001"
       fill="#6a462f"
       id="rect7" />
    <rect
       x="39.445"
       y="10.625"
       width="0.97170001"
       height="2.9791999"
       fill="#6a462f"
       id="rect8" />
  </g>
  <g
     id="line"
     transform="translate(-26.2365,-6.5)">
    <path
       fill="none"
       stroke="#000000"
       stroke-linecap="round"
       stroke-linejoin="round"
       stroke-width="1.6"
       d="m 40.565,8.03 v 5.12 c 0,0 -0.47,1.12 -1.12,0 v -2.04 h -6.76 v 2.08 c -0.65,1.12 -1.12,0 -1.12,0 V 8.03 a 0.7341,0.7341 0 0 1 0.73,-0.73 h 7.54 a 0.7341,0.7341 0 0 1 0.73,0.73 z"
       id="path8" />
    <g
       id="line-2">
      <g
         id="Standing_Man">
        <g
           id="line-2-2">
          <path
             fill="none"
             stroke="#000000"
             stroke-linecap="round"
             stroke-linejoin="round"
             stroke-width="1.6"
             d="m 39.035,12.08 a 2.97,2.97 0 1 1 -5.94,0"
             id="path9" />
          <path
             fill="none"
             stroke="#000000"
             stroke-linecap="round"
             stroke-linejoin="round"
             stroke-width="1.6"
             d="m 41.0335,24.516 1.9,38 c 0.055,1.1 -0.575,2 -1.4,2 a 2.076,2.076 0 0 1 -1.729,-1.987 l -2.542,-22.031 c -0.129,-1.093 -0.679,-1.987 -1.229,-1.987 -0.55,0 -1.103,0.894 -1.229,1.987 l -2.539,22.031 a 2.0758,2.0758 0 0 1 -1.729,1.987 c -0.825,0 -1.455,-0.9 -1.4,-2 l 1.9,-38"
             id="path10" />
          <path
             fill="none"
             stroke="#000000"
             stroke-linecap="round"
             stroke-linejoin="round"
             stroke-width="1.6"
             d="m 27.0365,42.516 0.792,-19 a 5.274,5.274 0 0 1 5.208,-5 h 6"
             id="path11" />
        </g>
        <path
           fill="none"
           stroke="#000000"
           stroke-linecap="round"
           stroke-linejoin="round"
           stroke-width="1.6"
           d="m 38.9635,18.5159 a 5.274,5.274 0 0 1 5.208,5 l 0.792,19"
           id="path12" />
      </g>
    </g>
  </g>
</svg>
