<?xml version="1.0" encoding="UTF-8" standalone="no"?>
<svg
   id="emoji"
   viewBox="0 0 57.222488 39.719307"
   version="1.1"
   sodipodi:docname="e2cf.svg"
   width="57.222488"
   height="39.719307"
   xmlns:inkscape="http://www.inkscape.org/namespaces/inkscape"
   xmlns:sodipodi="http://sodipodi.sourceforge.net/DTD/sodipodi-0.dtd"
   xmlns="http://www.w3.org/2000/svg"
   xmlns:svg="http://www.w3.org/2000/svg">
  <defs
     id="defs7" />
  <sodipodi:namedview
     id="namedview7"
     pagecolor="#ffffff"
     bordercolor="#000000"
     borderopacity="0.25"
     inkscape:showpageshadow="2"
     inkscape:pageopacity="0.0"
     inkscape:pagecheckerboard="0"
     inkscape:deskcolor="#d1d1d1" />
  <g
     id="color"
     transform="translate(-5.4540633,-16.045993)">
    <path
       fill="#3f3f3f"
       d="m 50.8135,46.1653 -0.83,-0.4526 c -0.2906,-0.1282 -0.449,-0.445 -0.3772,-0.7544 0.2263,-1.4334 0.3772,-6.4123 -7.3175,-8.6755 -0.1426,-0.0615 -0.2979,-0.0873 -0.4527,-0.0754 L 27.05,36.2828 c -0.2927,-0.006 -0.5809,0.0726 -0.83,0.2264 l -7.77,5.2052 c -0.1376,0.0837 -0.2924,0.1353 -0.4527,0.1509 -1.4149,-0.0498 -2.8311,0.0513 -4.2245,0.3018 -4.0737,0.83 -5.7334,3.0175 -6.3369,4.1491 -0.1218,0.2317 -0.1742,0.4937 -0.1508,0.7544 0.0754,1.8105 -1.1316,3.8473 0.6789,5.507 L 22.6,52.5021 37.9895,52.1249 50.1351,51.9741 c 0.8813,-0.2803 1.6316,-0.8699 2.1123,-1.66 1.2819,-2.0365 -1.283,-4.0734 -1.4339,-4.1488 z"
       id="path1" />
    <path
       fill="#9b9b9a"
       d="m 14.98,47.9758 c -1.6666,-10e-5 -3.0176,1.3509 -3.0177,3.0175 -1e-4,1.6666 1.3509,3.0176 3.0175,3.0177 1.6666,10e-5 3.0176,-1.3509 3.0177,-3.0175 v -10e-5 C 17.9927,49.3289 16.6445,47.9807 14.98,47.9758 Z"
       id="path2" />
    <path
       fill="#9b9b9a"
       d="m 45.0047,47.9758 c -1.6666,0 -3.0176,1.351 -3.0176,3.0176 0,1.6666 1.351,3.0176 3.0176,3.0176 1.6666,0 3.0176,-1.351 3.0176,-3.0176 -0.0048,-1.6646 -1.353,-3.0128 -3.0176,-3.0176 z"
       id="path3" />
    <path
       fill="#92d3f5"
       d="M 44.25,42.62 V 39.3758 C 44.2293,38.6762 43.6671,38.114 42.9675,38.0934 H 26.9749 c -0.0754,0 -0.1509,0 -0.1509,0.0754 l -6.035,4.3 c -0.1509,0.0754 -0.1509,0.3018 -0.0755,0.4526 0.0755,0.0755 0.1509,0.1509 0.2263,0.1509 4.2246,0 20.5193,-0.1509 22.9334,-0.0754 0.1965,0.0116 0.3652,-0.1383 0.3768,-0.3348 8e-4,-0.014 8e-4,-0.0281 0,-0.0421 z"
       id="path4" />
    <polygon
       fill="#fcea2b"
       points="10.077,46.92 6.305,46.995 8.643,43.525 11.661,44.732 "
       id="polygon4" />
    <path
       fill="#d0cfce"
       d="m 40.4374,22.8912 c -0.1422,-2.9005 2.0938,-5.3671 4.9942,-5.5093 1.5263,-0.0748 3.0097,0.518 4.0639,1.6242 1.2318,-1.9622 3.8211,-2.5544 5.7833,-1.3226 1.1742,0.7371 1.9084,2.0066 1.9616,3.392 0.0071,-3e-4 0.0136,-0.0026 0.0207,-0.0029 2.3294,-0.1067 4.3043,1.6951 4.411,4.0245 0.1067,2.3294 -1.6951,4.3043 -4.0245,4.411 -0.0015,10e-5 -0.0029,10e-5 -0.0044,2e-4 -0.0685,0.0031 -0.1329,-0.011 -0.2007,-0.0109 0.6791,1.5807 -0.0519,3.4127 -1.6326,4.0917 -0.0428,0.0184 -0.086,0.0358 -0.1296,0.0523 0.0086,0.063 0.0422,0.116 0.0451,0.1806 0.0538,1.1647 -0.8468,2.1524 -2.0115,2.2062 -1.1647,0.0538 -2.1524,-0.8468 -2.2062,-2.0115 -1e-4,-0.0012 -1e-4,-0.0024 -2e-4,-0.0036 -0.0182,-0.514 0.1543,-1.0167 0.4842,-1.4113 -0.2072,-0.2833 -0.3655,-0.5992 -0.4685,-0.9347 -1.5768,0.7263 -3.4438,0.0368 -4.17,-1.54 -0.1105,-0.2398 -0.1903,-0.4926 -0.2375,-0.7523 -1.9253,1.2922 -4.5336,0.779 -5.8259,-1.1463 -0.7307,-1.0887 -0.9109,-2.4563 -0.487,-3.6971 -0.2094,-0.5234 -0.3329,-1.0773 -0.3654,-1.6402 z"
       id="path5" />
  </g>
  <g
     id="line"
     transform="translate(-5.4540633,-16.045993)">
    <line
       x1="37.8381"
       x2="22.297701"
       y1="51.445999"
       y2="51.747799"
       fill="none"
       stroke="#000000"
       stroke-linecap="round"
       stroke-linejoin="round"
       stroke-width="2"
       id="line5" />
    <path
       fill="none"
       stroke="#000000"
       stroke-linecap="round"
       stroke-linejoin="round"
       stroke-width="2"
       d="M 8.04,51.7478 C 7.3611,51.5969 6.7576,51.3706 6.6821,50.9934 6.6067,50.239 6.4558,48.1267 6.4558,47.146 6.439,46.7469 6.5443,46.3522 6.7576,46.0144 c 0.83,-1.5088 3.621,-5.13 11.24,-4.8281 l 7.77,-5.2052 c 0.3634,-0.2269 0.779,-0.3568 1.207,-0.3772 l 14.786,-0.0754 c 0.2289,-0.0123 0.4583,0.0132 0.6789,0.0754 1.66,0.4526 8.8263,3.0175 7.8456,9.5053 l 0.83,0.4526 c 0.3816,0.1639 0.662,0.5003 0.7544,0.9052 0.2897,1.0705 0.2369,2.2049 -0.1509,3.2439"
       id="path6" />
    <polyline
       fill="none"
       stroke="#000000"
       stroke-linecap="round"
       stroke-linejoin="round"
       stroke-width="2"
       points="20.714,43.072 43.496,42.921 43.496,39.088"
       id="polyline6" />
    <circle
       cx="14.9802"
       cy="50.993401"
       r="3.7718999"
       fill="none"
       stroke="#000000"
       stroke-linecap="round"
       stroke-linejoin="round"
       stroke-width="2"
       id="circle6" />
    <circle
       cx="45.0047"
       cy="50.993401"
       r="3.7718999"
       fill="none"
       stroke="#000000"
       stroke-linecap="round"
       stroke-linejoin="round"
       stroke-width="2"
       id="circle7" />
    <polyline
       fill="none"
       stroke="#000000"
       stroke-linecap="round"
       stroke-linejoin="round"
       stroke-width="2"
       points="11.208,45.335 9.85,46.995 7.059,46.92"
       id="polyline7" />
    <path
       fill="none"
       stroke="#000000"
       stroke-linecap="round"
       stroke-linejoin="round"
       stroke-width="2"
       d="m 40.4374,22.8912 c -0.1422,-2.9005 2.0938,-5.3671 4.9942,-5.5093 1.5263,-0.0748 3.0097,0.518 4.0639,1.6242 1.2318,-1.9622 3.8211,-2.5544 5.7833,-1.3226 1.1742,0.7371 1.9084,2.0066 1.9616,3.392 0.0071,-3e-4 0.0136,-0.0026 0.0207,-0.0029 2.3294,-0.1067 4.3043,1.6951 4.411,4.0245 0.1067,2.3294 -1.6951,4.3043 -4.0245,4.411 -0.0015,10e-5 -0.0029,10e-5 -0.0044,2e-4 -0.0685,0.0031 -0.1329,-0.011 -0.2007,-0.0109 0.6791,1.5807 -0.0519,3.4127 -1.6326,4.0917 -0.0428,0.0184 -0.086,0.0358 -0.1296,0.0523 0.0086,0.063 0.0422,0.116 0.0451,0.1806 0.0538,1.1647 -0.8468,2.1524 -2.0115,2.2062 -1.1647,0.0538 -2.1524,-0.8468 -2.2062,-2.0115 -1e-4,-0.0012 -1e-4,-0.0024 -2e-4,-0.0036 -0.0182,-0.514 0.1543,-1.0167 0.4842,-1.4113 -0.2072,-0.2833 -0.3655,-0.5992 -0.4685,-0.9347 -1.5768,0.7263 -3.4438,0.0368 -4.17,-1.54 -0.1105,-0.2398 -0.1903,-0.4926 -0.2375,-0.7523 -1.9253,1.2922 -4.5336,0.779 -5.8259,-1.1463 -0.7307,-1.0887 -0.9109,-2.4563 -0.487,-3.6971 -0.2094,-0.5234 -0.3329,-1.0773 -0.3654,-1.6402 z"
       id="path7" />
  </g>
</svg>
