<svg xmlns="http://www.w3.org/2000/svg" xmlns:svg="http://www.w3.org/2000/svg" id="emoji" width="64.113" height="43.101" version="1.1" viewBox="0 0 64.113 43.101"><g id="color" transform="translate(-3.8873,-24.89898)"><path id="path1" fill="#61b2e4" d="m 68,44.7744 c -8,0 -11.1127,3 -16.1127,3 -5,0 -10,-3 -16,-3 -6,0 -10,3 -16,3 -6,0 -12.8873,-3 -15.8873,-3 V 68 h 64 z"/></g><g id="line" transform="translate(-3.8873,-24.89898)"><path id="path2" fill="none" stroke="#000" stroke-linecap="round" stroke-linejoin="round" stroke-width="2" d="m 4.8873,44.7744 c 3,0 9,3 15,3 6,0 10,-3 16,-3 6,0 11,3 16,3 5,0 7,-3 15,-3"/><line id="line2" x1="18.921" x2="18.921" y1="39.556" y2="26.493" fill="none" stroke="#000" stroke-linecap="round" stroke-miterlimit="10" stroke-width="2"/><path id="path3" fill="none" stroke="#000" stroke-linecap="round" stroke-miterlimit="10" stroke-width="2" d="M 13.9215,31.1065 18.8,25.9256 c 0.0397,-0.0421 0.106,-0.0441 0.1481,-0.0044 0.0019,0.0018 0.0038,0.0037 0.0056,0.0056 l 4.9678,5.4432"/><line id="line3" x1="51.538" x2="51.538" y1="39.556" y2="26.493" fill="none" stroke="#000" stroke-linecap="round" stroke-miterlimit="10" stroke-width="2"/><path id="path4" fill="none" stroke="#000" stroke-linecap="round" stroke-miterlimit="10" stroke-width="2" d="m 46.5379,31.1065 4.8786,-5.1809 c 0.0397,-0.0421 0.106,-0.0441 0.1481,-0.0044 0.0019,0.0018 0.0038,0.0037 0.0056,0.0056 l 4.9677,5.4432"/></g></svg>