<?xml version="1.0" encoding="UTF-8" standalone="no"?>
<svg
   id="emoji"
   viewBox="0 0 64.112701 43.101021"
   version="1.1"
   sodipodi:docname="e2d0.svg"
   width="64.112701"
   height="43.101021"
   xmlns:inkscape="http://www.inkscape.org/namespaces/inkscape"
   xmlns:sodipodi="http://sodipodi.sourceforge.net/DTD/sodipodi-0.dtd"
   xmlns="http://www.w3.org/2000/svg"
   xmlns:svg="http://www.w3.org/2000/svg">
  <defs
     id="defs4" />
  <sodipodi:namedview
     id="namedview4"
     pagecolor="#ffffff"
     bordercolor="#000000"
     borderopacity="0.25"
     inkscape:showpageshadow="2"
     inkscape:pageopacity="0.0"
     inkscape:pagecheckerboard="0"
     inkscape:deskcolor="#d1d1d1" />
  <g
     id="color"
     transform="translate(-3.8873,-24.89898)">
    <path
       fill="#61b2e4"
       d="m 68,44.7744 c -8,0 -11.1127,3 -16.1127,3 -5,0 -10,-3 -16,-3 -6,0 -10,3 -16,3 -6,0 -12.8873,-3 -15.8873,-3 V 68 h 64 z"
       id="path1" />
  </g>
  <g
     id="line"
     transform="translate(-3.8873,-24.89898)">
    <path
       fill="none"
       stroke="#000000"
       stroke-linecap="round"
       stroke-linejoin="round"
       stroke-width="2"
       d="m 4.8873,44.7744 c 3,0 9,3 15,3 6,0 10,-3 16,-3 6,0 11,3 16,3 5,0 7,-3 15,-3"
       id="path2" />
    <line
       x1="18.921499"
       x2="18.921499"
       y1="39.5555"
       y2="26.493099"
       fill="none"
       stroke="#000000"
       stroke-linecap="round"
       stroke-miterlimit="10"
       stroke-width="2"
       id="line2" />
    <path
       fill="none"
       stroke="#000000"
       stroke-linecap="round"
       stroke-miterlimit="10"
       stroke-width="2"
       d="M 13.9215,31.1065 18.8,25.9256 c 0.0397,-0.0421 0.106,-0.0441 0.1481,-0.0044 0.0019,0.0018 0.0038,0.0037 0.0056,0.0056 l 4.9678,5.4432"
       id="path3" />
    <line
       x1="51.537899"
       x2="51.537899"
       y1="39.5555"
       y2="26.493099"
       fill="none"
       stroke="#000000"
       stroke-linecap="round"
       stroke-miterlimit="10"
       stroke-width="2"
       id="line3" />
    <path
       fill="none"
       stroke="#000000"
       stroke-linecap="round"
       stroke-miterlimit="10"
       stroke-width="2"
       d="m 46.5379,31.1065 4.8786,-5.1809 c 0.0397,-0.0421 0.106,-0.0441 0.1481,-0.0044 0.0019,0.0018 0.0038,0.0037 0.0056,0.0056 l 4.9677,5.4432"
       id="path4" />
  </g>
</svg>
