<svg xmlns="http://www.w3.org/2000/svg" xmlns:svg="http://www.w3.org/2000/svg" id="emoji" width="53.397" height="62.121" version="1.1" viewBox="0 0 53.397 62.121"><g id="color" transform="translate(-10.00011,-4.8792244)"><path id="path1" fill="#fff" d="m 22.87,30.1262 c -0.01,0 -0.02,-0.02 -0.02,-0.02 -0.1817,-0.1074 -0.3555,-0.2277 -0.52,-0.36 -0.01,-0.01 -0.02,-0.01 -0.03,-0.02 -0.8292,-0.6896 -1.4607,-1.5868 -1.83,-2.6 -1.0696,-2.9444 0.3071,-6.216 3.16,-7.51 0.3625,-2.1663 2.4124,-3.6285 4.5787,-3.266 0.8289,0.1387 1.5925,0.5364 2.1813,1.136 0.5735,-1.1151 1.5439,-1.975 2.72,-2.41 1.0589,-0.3814 2.2165,-0.3884 3.28,-0.02 -0.4703,-2.707 1.343,-5.2827 4.05,-5.753 1.1136,-0.1934 2.2598,-0.0019 3.25,0.543 0.8073,-0.7838 1.7719,-1.3871 2.83,-1.77 0.8554,-0.3138 1.7589,-0.4762 2.67,-0.48 0.586,-0.5437 1.2768,-0.9623 2.03,-1.23 3.112,-1.1322 6.553,0.4698 7.69,3.58 0.06,0.17 0.11,0.34 0.16,0.52 0.1902,0.0313 0.3775,0.0781 0.56,0.14 1.1745,0.3682 2.11,1.263 2.53,2.42 0.7501,2.0737 -0.3187,4.3634 -2.39,5.12 -0.9447,0.3456 -1.9857,0.3169 -2.91,-0.08 -1.3271,4.0903 -5.656,6.3941 -9.79,5.21 -0.4464,2.7027 -2.9992,4.5319 -5.7019,4.0855 -1.1776,-0.1945 -2.2457,-0.8071 -3.0081,-1.7255 -1.2719,2.4148 -4.2605,3.3412 -6.6752,2.0694 -0.0487,-0.0257 -0.097,-0.0521 -0.1448,-0.0794 -0.4545,0.9759 -1.1668,1.8091 -2.06,2.41"/><path id="path2" fill="#fff" d="m 22.87,30.1262 c -0.01,0 -0.02,-0.02 -0.02,-0.02 -0.1817,-0.1074 -0.3555,-0.2277 -0.52,-0.36 -0.01,-0.01 -0.02,-0.01 -0.03,-0.02 -0.8292,-0.6896 -1.4607,-1.5868 -1.83,-2.6 -1.0696,-2.9444 0.3071,-6.216 3.16,-7.51 0.3625,-2.1663 2.4124,-3.6285 4.5787,-3.266 0.8289,0.1387 1.5925,0.5364 2.1813,1.136 0.5735,-1.1151 1.5439,-1.975 2.72,-2.41 1.0589,-0.3814 2.2165,-0.3884 3.28,-0.02 -0.4703,-2.707 1.343,-5.2827 4.05,-5.753 1.1136,-0.1934 2.2598,-0.0019 3.25,0.543 0.8073,-0.7838 1.7719,-1.3871 2.83,-1.77 0.8554,-0.3138 1.7589,-0.4762 2.67,-0.48 0.586,-0.5437 1.2768,-0.9623 2.03,-1.23 3.112,-1.1322 6.553,0.4698 7.69,3.58 0.06,0.17 0.11,0.34 0.16,0.52 0.1902,0.0313 0.3775,0.0781 0.56,0.14 1.1745,0.3682 2.11,1.263 2.53,2.42 0.7501,2.0737 -0.3187,4.3634 -2.39,5.12 -0.9447,0.3456 -1.9857,0.3169 -2.91,-0.08 -1.3271,4.0903 -5.656,6.3941 -9.79,5.21 -0.4464,2.7027 -2.9992,4.5319 -5.7019,4.0855 -1.1776,-0.1945 -2.2457,-0.8071 -3.0081,-1.7255 -1.2719,2.4148 -4.2605,3.3412 -6.6752,2.0694 -0.0487,-0.0257 -0.097,-0.0521 -0.1448,-0.0794 -0.4545,0.9759 -1.1668,1.8091 -2.06,2.41"/><rect id="rect2" width="6" height="39" x="51" y="27" fill="#fff"/><path id="path3" fill="#9b9b9a" d="m 47,47.2622 c -3.0158,-0.7946 -6.2176,0.2485 -8.1866,2.667 C 37.7017,42.6331 37.6422,34.7977 39.197,30 H 33 v 36 h 14 z"/><path id="path4" fill="#d0cfce" d="M 33,66 V 30 H 16 c 3,9.2571 0,29.8286 -5,36 z"/><path id="path5" fill="#3f3f3f" d="M 47,47.2622 V 66 h 6 V 55 c -0.0023,-3.6454 -2.47,-6.8278 -6,-7.7378 z"/><rect id="rect5" width="6" height="4" x="51" y="31" fill="#ea5a47"/></g><g id="line" transform="translate(-10.00011,-4.8792244)"><path id="path6" fill="none" stroke="#000" stroke-linecap="round" stroke-linejoin="round" stroke-width="2" d="M 22.87,30 C 22.86,30 22.85,29.98 22.85,29.98 22.6683,29.8726 22.4945,29.7523 22.33,29.62 22.32,29.61 22.31,29.61 22.3,29.6 21.4708,28.9104 20.8393,28.0132 20.47,27 c -1.0696,-2.9444 0.3071,-6.216 3.16,-7.51 0.3625,-2.1663 2.4124,-3.6285 4.5787,-3.266 0.8289,0.1387 1.5925,0.5364 2.1813,1.136 0.5735,-1.1151 1.5439,-1.975 2.72,-2.41 1.0589,-0.3814 2.2165,-0.3884 3.28,-0.02 -0.4703,-2.707 1.343,-5.2827 4.05,-5.753 1.1136,-0.1934 2.2598,-0.0019 3.25,0.543 0.8073,-0.7838 1.7719,-1.3871 2.83,-1.77 0.8554,-0.3138 1.7589,-0.4762 2.67,-0.48 0.586,-0.5437 1.2768,-0.9623 2.03,-1.23 3.112,-1.1322 6.553,0.4698 7.69,3.58 0.06,0.17 0.11,0.34 0.16,0.52 0.1902,0.0313 0.3775,0.0781 0.56,0.14 1.1745,0.3682 2.11,1.263 2.53,2.42 0.7501,2.0737 -0.3187,4.3634 -2.39,5.12 -0.9447,0.3456 -1.9857,0.3169 -2.91,-0.08 -1.3271,4.0903 -5.656,6.3941 -9.79,5.21 -0.4464,2.7027 -2.9992,4.5319 -5.7019,4.0855 C 40.1905,27.041 39.1224,26.4284 38.36,25.51 37.0881,27.9248 34.0995,28.8512 31.6848,27.5794 31.6361,27.5537 31.5878,27.5273 31.54,27.5 c -0.4545,0.9759 -1.1668,1.8091 -2.06,2.41"/><path id="path7" fill="none" stroke="#000" stroke-linecap="round" stroke-linejoin="round" stroke-width="2" d="m 44.1969,66 c -5,-6.1714 -8,-26.7429 -5,-36 H 16 c 3,9.2571 0,29.8286 -5,36 z"/><polyline id="polyline7" fill="none" stroke="#000" stroke-linecap="round" stroke-linejoin="round" stroke-width="2" points="53 66 57 66 57 27 51 27 51 49.721"/><path id="path8" fill="none" stroke="#000" stroke-linecap="round" stroke-linejoin="round" stroke-width="2" d="M 44.197,66 H 53 V 55 c 4e-4,-4.4179 -3.5807,-7.9996 -7.9986,-8 -2.3974,-2e-4 -4.6685,1.0749 -6.188,2.9292"/></g></svg>