<svg xmlns="http://www.w3.org/2000/svg" xmlns:svg="http://www.w3.org/2000/svg" id="emoji" width="19.927" height="57.907" version="1.1" viewBox="0 0 19.927 57.907"><g id="color" transform="translate(-26.1728,-6.4633996)"><path id="path1" fill="#f4aa41" d="m 43.3329,22.0694 a 4.3,4.3 0 0 0 -4.209,-4.1314 h -6 a 4.3,4.3 0 0 0 -4.209,4.1314 l -0.792,19.4393 a 1.0176,1.0176 0 0 1 -0.1209,0.4369 l 2.9336,-2.0943 -0.7136,22.1333 a 1.2321,1.2321 0 0 0 0.25,0.8789 0.2408,0.2408 0 0 0 0.152,0.09 c 0.214,0 0.656,-0.4266 0.735,-1.1254 l 2.8986,-22.5033 a 4.9239,4.9239 0 0 1 0.4028,-1.1922 l 0.7246,-0.8052 h 1.625 l 0.984,0.6231 a 4.9266,4.9266 0 0 1 0.352,1.3413 l 2.542,22.5343 c 0.079,0.6978 0.522,1.1254 0.736,1.1254 a 0.2415,0.2415 0 0 0 0.152,-0.09 c 0.1922,-0.2483 0.4894,-0.585 0.4568,-0.9 l -0.9322,-22.11 3.4994,2.43"/><circle id="circle1" cx="36.204" cy="10.432" r="2.969" fill="#d0cfce"/></g><g id="line" transform="translate(-26.1728,-6.4633996)"><circle id="circle2" cx="36.204" cy="10.432" r="2.969" fill="none" stroke="#000" stroke-linecap="round" stroke-linejoin="round" stroke-width="2"/><path id="path2" fill="none" stroke="#000" stroke-linecap="round" stroke-linejoin="round" stroke-width="2" d="m 41.17,23.37 1.9,38 c 0.055,1.1 -0.575,2 -1.4,2 A 2.076,2.076 0 0 1 39.941,61.383 L 37.399,39.352 C 37.27,38.259 36.72,37.365 36.17,37.365 c -0.55,0 -1.103,0.894 -1.229,1.987 l -2.539,22.031 a 2.076,2.076 0 0 1 -1.729,1.987 c -0.825,0 -1.455,-0.9 -1.4,-2 l 1.9,-38"/><path id="path3" fill="none" stroke="#000" stroke-linecap="round" stroke-linejoin="round" stroke-width="2" d="m 27.1728,41.37 0.792,-19 a 5.274,5.274 0 0 1 5.208,-5 h 6"/><path id="path4" fill="none" stroke="#000" stroke-linecap="round" stroke-linejoin="round" stroke-width="2" d="m 39.1,17.37 a 5.274,5.274 0 0 1 5.208,5 l 0.792,19"/><circle id="circle4" cx="39.63" cy="20.585" r="1"/><ellipse id="ellipse4" cx="38.704" cy="13.521" stroke="#000" stroke-miterlimit="10" rx="1.134" ry=".757" transform="rotate(-50,38.703805,13.520989)"/><ellipse id="ellipse5" cx="33.704" cy="13.521" stroke="#000" stroke-miterlimit="10" rx=".757" ry="1.134" transform="rotate(-40,33.703773,13.521083)"/><circle id="circle5" cx="36.204" cy="13.401" r="1.5" stroke="#000" stroke-miterlimit="10"/></g></svg>