<?xml version="1.0" encoding="UTF-8" standalone="no"?>
<svg
   id="emoji"
   viewBox="0 0 19.927099 58.406799"
   version="1.1"
   sodipodi:docname="e2d8.svg"
   width="19.927099"
   height="58.406799"
   xmlns:inkscape="http://www.inkscape.org/namespaces/inkscape"
   xmlns:sodipodi="http://sodipodi.sourceforge.net/DTD/sodipodi-0.dtd"
   xmlns="http://www.w3.org/2000/svg"
   xmlns:svg="http://www.w3.org/2000/svg">
  <defs
     id="defs5" />
  <sodipodi:namedview
     id="namedview5"
     pagecolor="#ffffff"
     bordercolor="#000000"
     borderopacity="0.25"
     inkscape:showpageshadow="2"
     inkscape:pageopacity="0.0"
     inkscape:pagecheckerboard="0"
     inkscape:deskcolor="#d1d1d1" />
  <g
     id="color"
     transform="translate(-26.38,-6.4633996)">
    <circle
       cx="36.343601"
       cy="10.4324"
       r="2.9690001"
       fill="#d0cfce"
       id="circle1" />
    <path
       fill="#f4aa41"
       d="m 43.54,22.5413 a 4.3,4.3 0 0 0 -4.209,-4.1314 h -6 a 4.3,4.3 0 0 0 -4.209,4.1314 L 28.33,41.9806 a 1.0162,1.0162 0 0 1 -0.1209,0.4369 l 1.3961,-0.9967 0.8239,21.0356 a 1.2321,1.2321 0 0 0 0.25,0.8789 0.2411,0.2411 0 0 0 0.152,0.09 c 0.214,0 0.656,-0.4266 0.735,-1.1254 l 2.8986,-22.5033 a 4.9282,4.9282 0 0 1 0.4028,-1.1922 l 0.7246,-0.8052 h 1.6249 l 0.984,0.6231 a 4.9266,4.9266 0 0 1 0.352,1.3413 l 2.542,22.5343 c 0.079,0.6978 0.522,1.1254 0.736,1.1254 a 0.242,0.242 0 0 0 0.152,-0.09 c 0.1922,-0.2483 0.4894,-0.585 0.4568,-0.9 l -0.0762,-21.5157 2.6434,1.8356"
       id="path1" />
  </g>
  <g
     id="line"
     transform="translate(-26.38,-6.4633996)">
    <circle
       cx="36.343601"
       cy="10.4324"
       r="2.9690001"
       fill="none"
       stroke="#000000"
       stroke-linecap="round"
       stroke-linejoin="round"
       stroke-width="2"
       id="circle2" />
    <path
       fill="none"
       stroke="#000000"
       stroke-linecap="round"
       stroke-linejoin="round"
       stroke-width="2"
       d="m 31.4771,24.2518 c 2.3523,3.5329 0.677,6.107 0.0317,8 a 33.3767,33.3767 0 0 0 -0.8975,5.6136 c -0.6,5.9762 -1.0025,24.0044 -1.0025,24.0044 -0.055,1.1 0.575,2 1.4,2 a 2.076,2.076 0 0 0 1.729,-1.987 l 2.539,-22.031 c 0.126,-1.093 0.679,-1.987 1.229,-1.987 0.55,0 1.1,0.894 1.229,1.987 l 2.5423,22.0314 a 2.076,2.076 0 0 0 1.729,1.987 c 0.825,0 1.455,-0.9 1.4,-2 0,0 -0.5226,-17.8415 -1.0731,-23.7627 a 35.8713,35.8713 0 0 0 -0.8269,-5.8553 c -0.6173,-1.9024 -2.416,-4.7392 -0.0287,-8"
       id="path2" />
    <path
       fill="none"
       stroke="#000000"
       stroke-linecap="round"
       stroke-linejoin="round"
       stroke-width="2"
       d="m 27.38,41.8423 0.792,-19 a 5.274,5.274 0 0 1 5.208,-5 h 5.9271 a 5.274,5.274 0 0 1 5.208,5 l 0.792,19"
       id="path3" />
    <ellipse
       cx="38.843601"
       cy="13.521"
       rx="1.1343"
       ry="0.75739998"
       transform="rotate(-50,38.843594,13.521034)"
       stroke="#000000"
       stroke-linecap="round"
       stroke-linejoin="round"
       id="ellipse3" />
    <ellipse
       cx="33.843601"
       cy="13.521"
       rx="0.75739998"
       ry="1.1343"
       transform="rotate(-40,33.843484,13.521062)"
       stroke="#000000"
       stroke-linecap="round"
       stroke-linejoin="round"
       id="ellipse4" />
    <circle
       cx="36.343601"
       cy="13.4014"
       r="1.5"
       stroke="#000000"
       stroke-linecap="round"
       stroke-linejoin="round"
       id="circle4" />
    <circle
       cx="39.630402"
       cy="20.8745"
       r="1"
       id="circle5" />
  </g>
</svg>
