<?xml version="1.0" encoding="UTF-8" standalone="no"?>
<svg
   id="emoji"
   viewBox="0 0 22 64"
   version="1.1"
   sodipodi:docname="e2da.svg"
   width="22"
   height="64"
   xmlns:inkscape="http://www.inkscape.org/namespaces/inkscape"
   xmlns:sodipodi="http://sodipodi.sourceforge.net/DTD/sodipodi-0.dtd"
   xmlns="http://www.w3.org/2000/svg"
   xmlns:svg="http://www.w3.org/2000/svg">
  <defs
     id="defs11" />
  <sodipodi:namedview
     id="namedview11"
     pagecolor="#ffffff"
     bordercolor="#000000"
     borderopacity="0.25"
     inkscape:showpageshadow="2"
     inkscape:pageopacity="0.0"
     inkscape:pagecheckerboard="0"
     inkscape:deskcolor="#d1d1d1" />
  <g
     id="color"
     transform="translate(-25,-4)">
    <path
       fill="#ffffff"
       d="M 30.9846,21.0072 30.9414,8.2561 c 0,0 5.1319,-2.9552 10.0704,0.0743 l 0.0193,12.6768 z"
       id="path1" />
    <polygon
       fill="#9b9b9a"
       points="44,22 28,22 28,25 33,30 39,30 44,25 "
       id="polygon1" />
    <rect
       x="33"
       y="20"
       width="6"
       height="10"
       fill="#d0cfce"
       id="rect1" />
    <path
       fill="#9b9b9a"
       d="m 39,30 7,8 V 57 C 46,62.5228 41.5228,67 36,67 30.4772,67 26,62.5228 26,57 V 38 l 7,-8 z"
       id="path2" />
    <path
       fill="#d0cfce"
       d="M 36,67 C 30.4772,67 26,62.5228 26,57 V 38 l 7,-8 h 6 l 3,8 v 19 c 0,5.5228 -2.6863,10 -6,10"
       id="path3" />
  </g>
  <g
     id="line"
     transform="translate(-25,-4)">
    <path
       fill="none"
       stroke="#000000"
       stroke-linecap="round"
       stroke-linejoin="round"
       stroke-width="2"
       d="M 46,57 C 46,62.5228 41.5228,67 36,67 30.4772,67 26,62.5228 26,57"
       id="path4" />
    <polyline
       fill="none"
       stroke="#000000"
       stroke-linecap="round"
       stroke-linejoin="round"
       stroke-width="2"
       points="46 57 46 38 26 38 26 57"
       id="polyline4" />
    <rect
       x="33"
       y="20"
       width="6"
       height="10"
       fill="none"
       stroke="#000000"
       stroke-linecap="round"
       stroke-linejoin="round"
       stroke-width="2"
       id="rect4" />
    <polyline
       fill="none"
       stroke="#000000"
       stroke-linecap="round"
       stroke-linejoin="round"
       stroke-width="2"
       points="26 38 33 30 28 25 28 22 32.972 22"
       id="polyline5" />
    <polyline
       fill="none"
       stroke="#000000"
       stroke-linecap="round"
       stroke-linejoin="round"
       stroke-width="2"
       points="46 38 39 30 44 25 44 22 39.27 22"
       id="polyline6" />
    <line
       x1="36"
       x2="36"
       y1="15"
       y2="5"
       fill="none"
       stroke="#000000"
       stroke-linecap="round"
       stroke-linejoin="round"
       stroke-width="2"
       id="line6" />
    <line
       x1="30"
       x2="30"
       y1="7"
       y2="18"
       fill="none"
       stroke="#000000"
       stroke-linecap="round"
       stroke-linejoin="round"
       stroke-width="2"
       id="line7" />
    <line
       x1="42"
       x2="42"
       y1="7"
       y2="18"
       fill="none"
       stroke="#000000"
       stroke-linecap="round"
       stroke-linejoin="round"
       stroke-width="2"
       id="line8" />
    <g
       id="g11">
      <path
         stroke="#000000"
         stroke-linecap="round"
         stroke-linejoin="round"
         d="m 37.0062,51.8749 c 0,0.4197 -0.3404,0.7599 -0.7601,0.7599 -0.4197,0 -0.7599,-0.3404 -0.7599,-0.7601 0,-0.4197 0.3404,-0.7599 0.7601,-0.7599 0.1334,0 0.2644,0.0351 0.3799,0.1018 0.2352,0.1358 0.38,0.3867 0.38,0.6583 z"
         id="path8" />
      <path
         stroke="#000000"
         stroke-linecap="round"
         stroke-linejoin="round"
         d="m 33.2062,51.8749 c -4e-4,-1.0863 0.5791,-2.0902 1.52,-2.6331 l -1.52,-2.6332 c -1.8818,1.0859 -3.0408,3.0937 -3.04,5.2663 z"
         id="path9" />
      <path
         stroke="#000000"
         stroke-linecap="round"
         stroke-linejoin="round"
         d="m 37.7665,54.5081 c -0.9409,0.5424 -2.0996,0.5424 -3.0405,0 l -1.52,2.6331 c 1.8818,1.0849 4.1992,1.0849 6.081,0 z"
         id="path10" />
      <path
         stroke="#000000"
         stroke-linecap="round"
         stroke-linejoin="round"
         d="m 37.7665,49.2418 c 0.9409,0.5429 1.5204,1.5468 1.52,2.6331 h 3.04 c 9e-4,-2.1725 -1.1578,-4.1803 -3.0394,-5.2663 z"
         id="path11" />
    </g>
  </g>
</svg>
