<svg xmlns="http://www.w3.org/2000/svg" xmlns:svg="http://www.w3.org/2000/svg" id="emoji" width="56.1" height="37.2" version="1.1" viewBox="0 0 56.1 37.2"><g id="color" transform="translate(-7.9499998,-17.4)"><rect id="rect1" width="56.1" height="36.65" x="7.95" y="17.68" fill="#92d3f5" stroke-width="2.193" rx="4.644" ry="4.644"/><circle id="circle1" cx="20.74" cy="28.92" r="4.486" fill="#9b9b9a" stroke-width="2.193"/><circle id="circle2" cx="36.19" cy="28.92" r="4.486" fill="#d0cfce" stroke-width="2.193"/><circle id="circle3" cx="51.64" cy="28.92" r="4.486" fill="#d0cfce" stroke-width="2.193"/><circle id="circle4" cx="20.74" cy="43.46" r="4.486" fill="#d0cfce" stroke-width="2.193"/><circle id="circle5" cx="36.19" cy="43.46" r="4.486" fill="#d0cfce" stroke-width="2.193"/><circle id="circle6" cx="51.64" cy="43.46" r="4.486" fill="#d0cfce" stroke-width="2.193"/><rect id="rect6" width="3.575" height="6.922" x="17.76" y="25.7" fill="#d0cfce" stroke-width="2.13"/><rect id="rect7" width="3.716" height="7.145" x="36" y="25.57" fill="#9b9b9a" stroke-width="2.206"/><rect id="rect8" width="3.669" height="7.098" x="51.03" y="25.66" fill="#9b9b9a" stroke-width="2.185"/><rect id="rect9" width="3.622" height="7.334" x="51.03" y="39.6" fill="#9b9b9a" stroke-width="2.206"/><rect id="rect10" width="3.778" height="7.188" x="36" y="39.61" fill="#9b9b9a" stroke-width="2.231"/><rect id="rect11" width="3.669" height="7.475" x="21.34" y="39.27" fill="#9b9b9a" stroke-width="2.242"/></g><g id="line" transform="translate(-7.9499998,-17.4)"><rect id="rect12" width="53.89" height="35.2" x="9.057" y="18.4" fill="none" stroke="#000" stroke-linecap="round" stroke-linejoin="round" stroke-width="2" rx="4.644" ry="4.644"/><circle id="circle12" cx="21.34" cy="29.2" r="4.309" fill="none" stroke="#000" stroke-linecap="round" stroke-linejoin="round" stroke-width="2"/><circle id="circle13" cx="36.18" cy="29.2" r="4.309" fill="none" stroke="#000" stroke-linecap="round" stroke-linejoin="round" stroke-width="2"/><circle id="circle14" cx="51.03" cy="29.2" r="4.309" fill="none" stroke="#000" stroke-linecap="round" stroke-linejoin="round" stroke-width="2"/><circle id="circle15" cx="21.34" cy="43.16" r="4.309" fill="none" stroke="#000" stroke-linecap="round" stroke-linejoin="round" stroke-width="2"/><circle id="circle16" cx="36.18" cy="43.16" r="4.309" fill="none" stroke="#000" stroke-linecap="round" stroke-linejoin="round" stroke-width="2"/><circle id="circle17" cx="51.03" cy="43.16" r="4.309" fill="none" stroke="#000" stroke-linecap="round" stroke-linejoin="round" stroke-width="2"/></g></svg>