<svg xmlns="http://www.w3.org/2000/svg" xmlns:svg="http://www.w3.org/2000/svg" id="emoji" width="45.418" height="49.946" version="1.1" viewBox="0 0 45.418 49.946"><g id="color" transform="translate(-13.291,-11.027)"><path id="path1" fill="#92d3f5" stroke-width="1.553" d="M 53.87,20.06 H 18.13 l -2.692,4.478 c -0.8037,1.337 -1.228,2.867 -1.228,4.427 v 25.94 c 1.55e-4,2.84 2.302,5.142 5.143,5.142 h 33.3 c 2.84,0 5.142,-2.302 5.143,-5.142 v -25.94 c 0,-1.56 -0.4247,-3.09 -1.228,-4.427 z"/><rect id="rect1" width="35.64" height="7.917" x="18.16" y="11.95" fill="#d0cfce" stroke-width="1.553"/><polygon id="polygon1" fill="#d22f27" points="42.7 40.28 42.7 36.95 37.97 36.95 37.97 32.22 34.64 32.22 34.64 36.95 29.91 36.95 29.91 40.28 34.64 40.28 34.64 45.01 37.97 45.01 37.97 40.28" transform="matrix(1.553,0,0,1.553,-19.92,-19.92)"/><polygon id="polygon2" fill="none" stroke="#000" stroke-linecap="round" stroke-linejoin="round" stroke-width="1" points="29.91 36.95 29.91 40.28 34.64 40.28 34.64 45.01 37.97 45.01 37.97 40.28 42.7 40.28 42.7 36.95 37.97 36.95 37.97 32.22 34.64 32.22 34.64 36.95" transform="matrix(1.553,0,0,1.553,-19.92,-19.92)"/></g><g id="line" transform="translate(-13.291,-11.027)"><path id="path2" fill="none" stroke="#000" stroke-linecap="round" stroke-linejoin="round" stroke-width="1.766" d="M 53.9,20.04 H 18.1 l -2.696,4.485 c -0.805,1.339 -1.23,2.872 -1.23,4.434 v 25.98 c 1.55e-4,2.845 2.306,5.151 5.151,5.151 h 33.35 c 2.845,0 5.151,-2.306 5.151,-5.151 v -25.98 c 0,-1.562 -0.4254,-3.095 -1.23,-4.434 z"/><rect id="rect2" width="35.7" height="7.929" x="18.14" y="11.91" fill="none" stroke="#000" stroke-linecap="round" stroke-linejoin="round" stroke-width="1.766"/><line id="line2" x1="24.06" x2="24.06" y1="11.91" y2="19.84" fill="none" stroke="#000" stroke-linecap="round" stroke-linejoin="round" stroke-width="1.766"/><line id="line3" x1="30.03" x2="30.03" y1="11.91" y2="19.84" fill="none" stroke="#000" stroke-linecap="round" stroke-linejoin="round" stroke-width="1.766"/><line id="line4" x1="36" x2="36" y1="11.91" y2="19.84" fill="none" stroke="#000" stroke-linecap="round" stroke-linejoin="round" stroke-width="1.766"/><line id="line5" x1="41.97" x2="41.97" y1="11.91" y2="19.84" fill="none" stroke="#000" stroke-linecap="round" stroke-linejoin="round" stroke-width="1.766"/><line id="line6" x1="47.94" x2="47.94" y1="11.91" y2="19.84" fill="none" stroke="#000" stroke-linecap="round" stroke-linejoin="round" stroke-width="1.766"/></g></svg>