<?xml version="1.0" encoding="UTF-8" standalone="no"?>
<svg
   id="emoji"
   viewBox="0 0 52 41.445801"
   version="1.1"
   sodipodi:docname="e309.svg"
   width="52"
   height="41.445801"
   xmlns:inkscape="http://www.inkscape.org/namespaces/inkscape"
   xmlns:sodipodi="http://sodipodi.sourceforge.net/DTD/sodipodi-0.dtd"
   xmlns="http://www.w3.org/2000/svg"
   xmlns:svg="http://www.w3.org/2000/svg">
  <defs
     id="defs7" />
  <sodipodi:namedview
     id="namedview7"
     pagecolor="#ffffff"
     bordercolor="#000000"
     borderopacity="0.25"
     inkscape:showpageshadow="2"
     inkscape:pageopacity="0.0"
     inkscape:pagecheckerboard="0"
     inkscape:deskcolor="#d1d1d1" />
  <g
     id="color"
     transform="translate(-10,-15.2771)">
    <rect
       x="11"
       y="21.3062"
       width="50"
       height="34.3876"
       fill="#d0cfce"
       id="rect1" />
    <polygon
       fill="#d22f27"
       points="34.446,47.6119 39.19,47.6119 39.19,40.8719 45.93,40.8719 45.93,36.1279 39.19,36.1279 39.19,29.3879 34.446,29.3879 34.446,36.1279 27.706,36.1279 27.706,40.8719 34.446,40.8719 "
       id="polygon1" />
  </g>
  <g
     id="line"
     transform="translate(-10,-15.2771)">
    <polygon
       fill="none"
       points="34.446,47.641 39.19,47.641 39.19,40.901 45.93,40.901 45.93,36.157 39.19,36.157 39.19,29.417 34.446,29.417 34.446,36.157 27.706,36.157 27.706,40.901 34.446,40.901 "
       id="polygon2" />
    <path
       fill="none"
       d="m 18.9391,18.6936 h 2.8591 c 0.5127,0 0.9284,0.4157 0.9284,0.9284 v 1.8314 c 0,0.5127 -0.4157,0.9284 -0.9284,0.9284 h -2.8591 c -0.5127,0 -0.9284,-0.4157 -0.9284,-0.9284 V 19.622 c 0,-0.5127 0.4157,-0.9284 0.9284,-0.9284 z"
       id="path2" />
    <path
       fill="none"
       d="m 51.2323,18.6936 h 2.8591 c 0.5127,0 0.9284,0.4157 0.9284,0.9284 v 1.8314 c 0,0.5127 -0.4157,0.9284 -0.9284,0.9284 h -2.8591 c -0.5127,0 -0.9284,-0.4157 -0.9284,-0.9284 V 19.622 c 0,-0.5127 0.4157,-0.9284 0.9284,-0.9284 z"
       id="path3" />
    <rect
       x="11"
       y="21.3353"
       width="50"
       height="34.3876"
       fill="none"
       stroke="#000000"
       stroke-linecap="round"
       stroke-linejoin="round"
       stroke-width="2"
       id="rect3" />
    <path
       fill="none"
       stroke="#000000"
       stroke-linecap="round"
       stroke-linejoin="round"
       stroke-width="2"
       d="M 28.1512,21.3353 V 18.344 c 0,-1.1415 0.9254,-2.0669 2.0669,-2.0669 v 0 h 11.5638 c 1.1415,0 2.0669,0.9254 2.0669,2.0669 v 2.9913"
       id="path4" />
    <path
       d="m 39.19,29.4168 v 6.74 h 6.74 v 4.7442 h -6.74 v 6.74 h -4.7444 v -6.74 h -6.74 v -4.7444 h 6.74 v -6.74 H 39.19 m 0,-2 h -4.7444 c -1.1046,0 -2,0.8954 -2,2 v 4.74 h -4.74 c -1.1046,0 -2,0.8954 -2,2 v 4.7444 c 0,1.1046 0.8954,2 2,2 h 4.74 v 4.74 c 0,1.1046 0.8954,2 2,2 H 39.19 c 1.1046,0 2,-0.8954 2,-2 v -4.74 h 4.74 c 1.1046,0 2,-0.8954 2,-2 v -4.7444 c 0,-1.1046 -0.8954,-2 -2,-2 h -4.74 v -4.74 c 0,-1.1046 -0.8954,-2 -2,-2 z"
       id="path5" />
    <path
       d="m 18.9391,18.6936 h 2.8591 c 0.5127,0 0.9284,0.4157 0.9284,0.9284 v 1.8314 c 0,0.5127 -0.4157,0.9284 -0.9284,0.9284 h -2.8591 c -0.5127,0 -0.9284,-0.4157 -0.9284,-0.9284 V 19.622 c 0,-0.5127 0.4157,-0.9284 0.9284,-0.9284 z"
       id="path6" />
    <path
       d="m 51.2323,18.6936 h 2.8591 c 0.5127,0 0.9284,0.4157 0.9284,0.9284 v 1.8314 c 0,0.5127 -0.4157,0.9284 -0.9284,0.9284 h -2.8591 c -0.5127,0 -0.9284,-0.4157 -0.9284,-0.9284 V 19.622 c 0,-0.5127 0.4157,-0.9284 0.9284,-0.9284 z"
       id="path7" />
  </g>
</svg>
