<svg xmlns="http://www.w3.org/2000/svg" xmlns:svg="http://www.w3.org/2000/svg" id="emoji" width="52" height="41.446" version="1.1" viewBox="0 0 52 41.446"><g id="color" transform="translate(-10,-15.2771)"><rect id="rect1" width="50" height="34.388" x="11" y="21.306" fill="#d0cfce"/><polygon id="polygon1" fill="#d22f27" points="34.446 47.612 39.19 47.612 39.19 40.872 45.93 40.872 45.93 36.128 39.19 36.128 39.19 29.388 34.446 29.388 34.446 36.128 27.706 36.128 27.706 40.872 34.446 40.872"/></g><g id="line" transform="translate(-10,-15.2771)"><polygon id="polygon2" fill="none" points="34.446 47.641 39.19 47.641 39.19 40.901 45.93 40.901 45.93 36.157 39.19 36.157 39.19 29.417 34.446 29.417 34.446 36.157 27.706 36.157 27.706 40.901 34.446 40.901"/><path id="path2" fill="none" d="m 18.9391,18.6936 h 2.8591 c 0.5127,0 0.9284,0.4157 0.9284,0.9284 v 1.8314 c 0,0.5127 -0.4157,0.9284 -0.9284,0.9284 h -2.8591 c -0.5127,0 -0.9284,-0.4157 -0.9284,-0.9284 V 19.622 c 0,-0.5127 0.4157,-0.9284 0.9284,-0.9284 z"/><path id="path3" fill="none" d="m 51.2323,18.6936 h 2.8591 c 0.5127,0 0.9284,0.4157 0.9284,0.9284 v 1.8314 c 0,0.5127 -0.4157,0.9284 -0.9284,0.9284 h -2.8591 c -0.5127,0 -0.9284,-0.4157 -0.9284,-0.9284 V 19.622 c 0,-0.5127 0.4157,-0.9284 0.9284,-0.9284 z"/><rect id="rect3" width="50" height="34.388" x="11" y="21.335" fill="none" stroke="#000" stroke-linecap="round" stroke-linejoin="round" stroke-width="2"/><path id="path4" fill="none" stroke="#000" stroke-linecap="round" stroke-linejoin="round" stroke-width="2" d="M 28.1512,21.3353 V 18.344 c 0,-1.1415 0.9254,-2.0669 2.0669,-2.0669 v 0 h 11.5638 c 1.1415,0 2.0669,0.9254 2.0669,2.0669 v 2.9913"/><path id="path5" d="m 39.19,29.4168 v 6.74 h 6.74 v 4.7442 h -6.74 v 6.74 h -4.7444 v -6.74 h -6.74 v -4.7444 h 6.74 v -6.74 H 39.19 m 0,-2 h -4.7444 c -1.1046,0 -2,0.8954 -2,2 v 4.74 h -4.74 c -1.1046,0 -2,0.8954 -2,2 v 4.7444 c 0,1.1046 0.8954,2 2,2 h 4.74 v 4.74 c 0,1.1046 0.8954,2 2,2 H 39.19 c 1.1046,0 2,-0.8954 2,-2 v -4.74 h 4.74 c 1.1046,0 2,-0.8954 2,-2 v -4.7444 c 0,-1.1046 -0.8954,-2 -2,-2 h -4.74 v -4.74 c 0,-1.1046 -0.8954,-2 -2,-2 z"/><path id="path6" d="m 18.9391,18.6936 h 2.8591 c 0.5127,0 0.9284,0.4157 0.9284,0.9284 v 1.8314 c 0,0.5127 -0.4157,0.9284 -0.9284,0.9284 h -2.8591 c -0.5127,0 -0.9284,-0.4157 -0.9284,-0.9284 V 19.622 c 0,-0.5127 0.4157,-0.9284 0.9284,-0.9284 z"/><path id="path7" d="m 51.2323,18.6936 h 2.8591 c 0.5127,0 0.9284,0.4157 0.9284,0.9284 v 1.8314 c 0,0.5127 -0.4157,0.9284 -0.9284,0.9284 h -2.8591 c -0.5127,0 -0.9284,-0.4157 -0.9284,-0.9284 V 19.622 c 0,-0.5127 0.4157,-0.9284 0.9284,-0.9284 z"/></g></svg>