<?xml version="1.0" encoding="UTF-8" standalone="no"?>
<svg
   id="emoji"
   viewBox="0 0 42.5 30.194"
   version="1.1"
   sodipodi:docname="e30a.svg"
   width="42.5"
   height="30.194"
   xmlns:inkscape="http://www.inkscape.org/namespaces/inkscape"
   xmlns:sodipodi="http://sodipodi.sourceforge.net/DTD/sodipodi-0.dtd"
   xmlns="http://www.w3.org/2000/svg"
   xmlns:svg="http://www.w3.org/2000/svg">
  <defs
     id="defs10" />
  <sodipodi:namedview
     id="namedview10"
     pagecolor="#ffffff"
     bordercolor="#000000"
     borderopacity="0.25"
     inkscape:showpageshadow="2"
     inkscape:pageopacity="0.0"
     inkscape:pagecheckerboard="0"
     inkscape:deskcolor="#d1d1d1" />
  <g
     id="color"
     transform="translate(-14.5,-20.903)">
    <rect
       x="15.5"
       y="21.903"
       width="7.29"
       height="3.8940001"
       fill="#ea5a47"
       id="rect1" />
    <rect
       x="25.107"
       y="21.903"
       width="7.29"
       height="3.8940001"
       fill="#fcea2b"
       id="rect2" />
    <rect
       x="34.713902"
       y="21.903"
       width="7.29"
       height="3.8940001"
       fill="#b1cc33"
       id="rect3" />
    <rect
       x="15.5"
       y="25.797001"
       width="40.5"
       height="24.299999"
       fill="#d0cfce"
       id="rect4" />
    <path
       fill="none"
       d="m 16.4008,21.903 h 5.4885 c 0.4975,0 0.9008,0.4033 0.9008,0.9008 v 2.9932 0 H 15.5 v 0 -2.9932 c 0,-0.4975 0.4033,-0.9008 0.9008,-0.9008 z"
       id="path4" />
    <path
       fill="none"
       d="m 26.0077,21.903 h 5.4885 c 0.4975,0 0.9008,0.4033 0.9008,0.9008 v 2.9932 0 h -7.29 v 0 -2.9932 c 0,-0.4975 0.4032,-0.9007 0.9007,-0.9008 z"
       id="path5" />
    <path
       fill="none"
       d="m 35.6147,21.903 h 5.4885 c 0.4975,0 0.9008,0.4033 0.9008,0.9008 v 2.9932 0 h -7.29 v 0 -2.9932 c 0,-0.4975 0.4032,-0.9007 0.9007,-0.9008 z"
       id="path6" />
    <rect
       x="15.5"
       y="25.797001"
       width="40.5"
       height="24.299999"
       fill="none"
       id="rect6" />
    <polygon
       fill="#d22f27"
       points="34.424,43.0407 37.076,43.0407 37.076,39.2727 40.844,39.2727 40.844,36.6207 37.076,36.6207 37.076,32.8537 34.424,32.8537 34.424,36.6207 30.656,36.6207 30.656,39.2727 34.424,39.2727 "
       id="polygon6" />
  </g>
  <g
     id="line"
     transform="translate(-14.5,-20.903)">
    <path
       fill="none"
       stroke="#000000"
       stroke-linecap="round"
       stroke-linejoin="round"
       stroke-width="2"
       d="m 16.4008,21.903 h 5.4885 c 0.4975,0 0.9008,0.4033 0.9008,0.9008 v 2.9932 0 H 15.5 v 0 -2.9932 c 0,-0.4975 0.4033,-0.9008 0.9008,-0.9008 z"
       id="path7" />
    <path
       fill="none"
       stroke="#000000"
       stroke-linecap="round"
       stroke-linejoin="round"
       stroke-width="2"
       d="m 26.0077,21.903 h 5.4885 c 0.4975,0 0.9008,0.4033 0.9008,0.9008 v 2.9932 0 h -7.29 v 0 -2.9932 c 0,-0.4975 0.4032,-0.9007 0.9007,-0.9008 z"
       id="path8" />
    <path
       fill="none"
       stroke="#000000"
       stroke-linecap="round"
       stroke-linejoin="round"
       stroke-width="2"
       d="m 35.6147,21.903 h 5.4885 c 0.4975,0 0.9008,0.4033 0.9008,0.9008 v 2.9932 0 h -7.29 v 0 -2.9932 c 0,-0.4975 0.4032,-0.9007 0.9007,-0.9008 z"
       id="path9" />
    <rect
       x="15.5"
       y="25.797001"
       width="40.5"
       height="24.299999"
       fill="none"
       stroke="#000000"
       stroke-linecap="round"
       stroke-linejoin="round"
       stroke-width="2"
       id="rect9" />
    <path
       d="m 37.0761,32.8534 v 3.7674 h 3.7674 v 2.6523 h -3.7674 v 3.7675 h -2.6522 v -3.7675 h -3.7674 v -2.6523 h 3.7674 v -3.7674 h 2.6522 m 0,-2 h -2.6522 c -1.1046,0 -2,0.8954 -2,2 v 1.7674 h -1.7674 c -1.1046,0 -2,0.8954 -2,2 v 2.6523 c 0,1.1046 0.8954,2 2,2 h 1.7674 v 1.7675 c 0,1.1046 0.8954,2 2,2 h 2.6522 c 1.1046,0 2,-0.8954 2,-2 v -1.7675 h 1.7674 c 1.1046,0 2,-0.8954 2,-2 v -2.6523 c 0,-1.1046 -0.8954,-2 -2,-2 h -1.7674 v -1.7674 c 0,-1.1046 -0.8954,-2 -2,-2 z"
       id="path10" />
  </g>
</svg>
