<svg xmlns="http://www.w3.org/2000/svg" xmlns:svg="http://www.w3.org/2000/svg" id="emoji" width="40.407" height="51.476" version="1.1" viewBox="0 0 40.407 51.476"><g id="color" transform="translate(-15,-10.9409)"><rect id="rect1" width="9.36" height="4.777" x="23.606" y="44.026" fill="#d0cfce"/><path id="path1" fill="#d22f27" d="m 16,19.3085 h 25.0008 v 12.4959 c 0,3.8273 -2.5211,6.93 -5.6311,6.93 H 34.005 c -3.13,0.5662 -3,5.2918 -3,5.2918 h -5.66 c 0,0 0.13,-4.7256 -3,-5.2918 h -0.7139 c -3.11,0 -5.6311,-3.1026 -5.6311,-6.93 z"/><path id="path2" fill="#d22f27" d="m 51.0863,20.5163 h 1.4182 c 1.0506,0 1.9023,0.8517 1.9023,1.9023 v 7.77 c 0,1.0506 -0.8517,1.9023 -1.9023,1.9023 h -1.4182 c -1.0506,0 -1.9023,-0.8517 -1.9023,-1.9023 v -7.77 c 0,-1.0506 0.8517,-1.9023 1.9023,-1.9023 z"/><path id="path3" fill="#ea5a47" d="m 32.0065,30.8364 c 0.1213,1.9364 -1.3502,3.6045 -3.2866,3.7258 -1.9364,0.1213 -3.6045,-1.3502 -3.7258,-3.2866 -0.0092,-0.1476 -0.0092,-0.2957 3e-4,-0.4433 0,0 -0.0384,-2.5084 2.92,-7.0452 0,0 0.5551,-0.9414 1.1139,-0.0618 2.9582,4.5367 2.9783,7.1111 2.9782,7.1111"/><path id="path4" fill="#d22f27" d="m 28.5,23.35 c 2.2571,1.8189 3.4842,7.1657 3.4842,7.1657 0,2.63 -1.5478,4.0542 -3.4842,4.0542 0,0 3.8568,-3.1777 0,-11.22"/><path id="path5" fill="#fff" d="m 16.8389,18.5046 23.2977,-0.0714 c 0,0 0.6779,-5.5301 -5.0306,-5.6014 -5.5298,-0.0691 -13.8431,-0.0357 -13.8431,-0.0357 0,0 -4.6738,0.1784 -4.4241,5.7085 z"/></g><g id="line" transform="translate(-15,-10.9409)"><path id="path6" fill="none" stroke="#000" stroke-linecap="round" stroke-linejoin="round" stroke-width="2" d="m 28.2856,49.9673 v 3.9319 0 c -0.0079,3.5364 2.5152,6.5721 5.9935,7.2108 2.5601,0.5178 5.2097,0.3777 7.7009,-0.4071 3.3446,-1.1536 5.3437,-4.5786 4.7034,-8.0581 -0.1349,-0.7062 -0.21,-1.4226 -0.2243,-2.1414 0.0158,-2.6929 1.1733,-5.2528 3.1847,-7.0434 1.9826,-1.8649 4.2174,-4.5336 2.0371,-11.3694"/><path id="path7" fill="none" stroke="#000" stroke-linecap="round" stroke-linejoin="round" stroke-width="2" d="M 16,19.3085 V 17.572 c 0,-3.11 2.5211,-5.6311 5.6311,-5.6311 H 35.37 c 3.11,-10e-5 5.6311,2.521 5.6312,5.631 v 0 1.7759"/><rect id="rect7" width="9.36" height="4.777" x="23.606" y="44.026" fill="none" stroke="#000" stroke-linecap="round" stroke-linejoin="round" stroke-width="2"/><path id="path8" fill="none" stroke="#000" stroke-linecap="round" stroke-linejoin="round" stroke-width="2" d="m 51.0863,20.5163 h 1.4182 c 1.0506,0 1.9023,0.8517 1.9023,1.9023 v 7.77 c 0,1.0506 -0.8517,1.9023 -1.9023,1.9023 h -1.4182 c -1.0506,0 -1.9023,-0.8517 -1.9023,-1.9023 v -7.77 c 0,-1.0506 0.8517,-1.9023 1.9023,-1.9023 z"/><line id="line8" x1="51.795" x2="51.795" y1="20.516" y2="13.913" fill="none" stroke="#000" stroke-linecap="round" stroke-linejoin="round" stroke-width="2"/><path id="path9" fill="none" stroke="#000" stroke-miterlimit="10" stroke-width="2" d="m 16,19.3085 h 25.0008 v 12.4959 c 0,3.8273 -2.5211,6.93 -5.6311,6.93 H 34.005 c -3.13,0.5662 -3,5.2918 -3,5.2918 h -5.66 c 0,0 0.13,-4.7256 -3,-5.2918 h -0.7139 c -3.11,0 -5.6311,-3.1026 -5.6311,-6.93 z"/><path id="path10" fill="none" stroke="#000" stroke-linecap="round" stroke-linejoin="round" stroke-width="1.5" d="m 32.0065,30.8364 c 0.1213,1.9364 -1.3502,3.6045 -3.2866,3.7258 -1.9364,0.1213 -3.6045,-1.3502 -3.7258,-3.2866 -0.0092,-0.1476 -0.0092,-0.2957 3e-4,-0.4433 0,0 -0.0384,-2.5084 2.92,-7.0452 0,0 0.5551,-0.9414 1.1139,-0.0618 2.9582,4.5367 2.9783,7.1111 2.9782,7.1111"/></g></svg>