<?xml version="1.0" encoding="UTF-8" standalone="no"?>
<svg
   id="emoji"
   viewBox="0 0 30.391047 39.573978"
   version="1.1"
   sodipodi:docname="e30e.svg"
   width="30.391047"
   height="39.573978"
   xmlns:inkscape="http://www.inkscape.org/namespaces/inkscape"
   xmlns:sodipodi="http://sodipodi.sourceforge.net/DTD/sodipodi-0.dtd"
   xmlns="http://www.w3.org/2000/svg"
   xmlns:svg="http://www.w3.org/2000/svg">
  <defs
     id="defs5" />
  <sodipodi:namedview
     id="namedview5"
     pagecolor="#ffffff"
     bordercolor="#000000"
     borderopacity="0.25"
     inkscape:showpageshadow="2"
     inkscape:pageopacity="0.0"
     inkscape:pagecheckerboard="0"
     inkscape:deskcolor="#d1d1d1" />
  <g
     id="color"
     transform="translate(-19.398972,-16.722007)">
    <path
       fill="#ffffff"
       d="m 44.1912,19.0075 c 0,0 -2.4385,-1.17 -3.3436,0.5374 -0.8757,1.6519 0.0042,7.6106 0.0042,7.6106 l 5.8271,-3.053 c 0,0 2.8261,-2.1693 -0.2587,-4.1397 l -2.2291,-0.9553 z"
       id="path1" />
  </g>
  <g
     id="line"
     transform="translate(-19.398972,-16.722007)">
    <ellipse
       cx="31.584299"
       cy="51.769001"
       rx="3.7291999"
       ry="3.0028"
       transform="rotate(-56.2294,31.584242,51.768916)"
       fill="none"
       stroke="#000000"
       stroke-miterlimit="10"
       stroke-width="2"
       id="ellipse1" />
    <path
       d="m 30.5831,48.93 -0.2992,-2.1686 c 0,0 -1.1385,0.02 -0.5878,-0.7848 l 2.3613,-0.279 0.3392,2.4585 c -0.6709,0.0607 -1.3055,0.3315 -1.8135,0.7739 z"
       id="path2" />
    <line
       x1="31.221001"
       x2="38.088001"
       y1="46.152599"
       y2="32.714199"
       fill="none"
       stroke="#000000"
       stroke-linecap="round"
       stroke-linejoin="round"
       stroke-width="2"
       id="line2" />
    <ellipse
       cx="23.567699"
       cy="47.537399"
       rx="3.7291999"
       ry="3.0028"
       transform="rotate(-62.6508,23.567703,47.537391)"
       fill="none"
       stroke="#000000"
       stroke-miterlimit="10"
       stroke-width="2"
       id="ellipse2" />
    <path
       d="m 26.2019,46.375 2.0434,-0.7854 c 0,0 0.532,1.0067 0.971,0.1356 l -0.8,-2.0978 -2.3166,0.89 c 0.2189,0.5951 0.2545,1.2421 0.1022,1.8576 z"
       id="path3" />
    <line
       x1="28.339701"
       x2="37.2929"
       y1="44.6479"
       y2="31.8871"
       fill="none"
       stroke="#000000"
       stroke-linecap="round"
       stroke-linejoin="round"
       stroke-width="2"
       id="line3" />
    <path
       fill="none"
       stroke="#000000"
       stroke-linecap="round"
       stroke-linejoin="round"
       stroke-width="2"
       d="m 47.0234,19.2768 c 0,0 4.32,2.9181 -0.5265,5.981 l -5.8929,3.1068"
       id="path4" />
    <path
       fill="none"
       stroke="#000000"
       stroke-linecap="round"
       stroke-linejoin="round"
       stroke-width="2"
       d="m 44.32,18.1092 c 0,0 -4.7619,-2.1223 -4.7969,3.6111 l 0.4813,6.6443"
       id="path5" />
    <rect
       x="36.185001"
       y="28.4226"
       rx="1.7358"
       ry="1.7358"
       width="5.6787"
       height="3.4714999"
       transform="rotate(-60.0001,39.024403,30.158392)"
       id="rect5" />
  </g>
  <g
     id="color-foreground"
     transform="translate(-19.398972,-16.722007)">
    <circle
       cx="39.020199"
       cy="30.132"
       r="0.61260003"
       fill="#ffffff"
       id="circle5" />
  </g>
</svg>
