<svg xmlns="http://www.w3.org/2000/svg" xmlns:svg="http://www.w3.org/2000/svg" id="emoji" width="31.881" height="51.979" version="1.1" viewBox="0 0 31.881 51.979"><g id="color" transform="translate(-20.05935,-9.73535)"><path id="path1" fill="#92d3f5" d="m 47.1761,59.0556 -2.203,0.5511 a 36.974,36.974 0 0 1 -17.9462,0 l -2.203,-0.5511 A 4.97,4.97 0 0 1 21.06,54.2341 V 23.3515 a 5.6373,5.6373 0 0 1 5.6373,-5.6373 h 18.6054 a 5.6373,5.6373 0 0 1 5.6373,5.6373 v 30.8826 a 4.97,4.97 0 0 1 -3.7639,4.8215 z"/><path id="path2" fill="#61b2e4" d="M 46.1113,53.9941 36.9376,53.48 a 14.6754,14.6754 0 0 0 -1.6435,0 l -9.1737,0.5137 a 2.042,2.042 0 0 1 -2.1411,-2.0552 v -28.63 a 2.4839,2.4839 0 0 1 2.4661,-2.5014 h 19.3409 a 2.4839,2.4839 0 0 1 2.4661,2.5014 v 28.63 a 2.042,2.042 0 0 1 -2.1411,2.0556 z"/><path id="path3" fill="#92d3f5" d="m 36.15,10.736 a 14.4448,14.4448 0 0 0 -6.52,1.6474 l 1.4535,7.9938 a 5.6334,5.6334 0 0 0 10.1336,0 L 42.67,12.3834 A 14.4446,14.4446 0 0 0 36.15,10.736 Z"/><circle id="circle3" cx="36.302" cy="56.56" r="1.102" fill="#fff"/></g><g id="line" transform="translate(-20.05935,-9.73535)"><path id="path4" fill="none" stroke="#000" stroke-miterlimit="10" stroke-width="2" d="m 40.7177,21.7966 h 4.4873 a 2.3348,2.3348 0 0 1 2.3208,2.3516 v 26.9237 a 1.9256,1.9256 0 0 1 -2.0124,1.9353 l -8.6276,-0.4858 a 12.8781,12.8781 0 0 0 -1.542,0 l -8.6276,0.4858 A 1.9256,1.9256 0 0 1 24.7038,51.0719 V 24.1482 a 2.34,2.34 0 0 1 2.3208,-2.3516 h 4.5567"/><circle id="circle4" cx="36.302" cy="56.56" r="1.102" fill="none" stroke="#000" stroke-miterlimit="10"/><path id="path5" fill="none" stroke="#000" stroke-linecap="round" stroke-linejoin="round" stroke-width="2.001" d="m 36.15,10.736 a 14.4448,14.4448 0 0 0 -6.52,1.6474 l 1.4535,7.9938 a 5.6334,5.6334 0 0 0 10.1336,0 L 42.67,12.3834 A 14.4446,14.4446 0 0 0 36.15,10.736 Z"/><path id="path6" fill="none" stroke="#000" stroke-linecap="round" stroke-linejoin="round" stroke-width="2.001" d="m 41.6988,17.7142 h 3.608 A 5.6376,5.6376 0 0 1 50.94,23.3474 V 54.236 a 4.9723,4.9723 0 0 1 -3.7637,4.8215 l -2.2057,0.5493 a 36.9,36.9 0 0 1 -17.9412,0 L 24.8237,59.0575 A 4.9723,4.9723 0 0 1 21.06,54.236 V 23.3474 a 5.6376,5.6376 0 0 1 5.6332,-5.6332 h 3.9031"/></g></svg>