<?xml version="1.0" encoding="UTF-8" standalone="no"?>
<svg
   id="emoji"
   viewBox="0 0 34.07008 23.703905"
   version="1.1"
   sodipodi:docname="e312.svg"
   width="34.07008"
   height="23.703905"
   xmlns:inkscape="http://www.inkscape.org/namespaces/inkscape"
   xmlns:sodipodi="http://sodipodi.sourceforge.net/DTD/sodipodi-0.dtd"
   xmlns="http://www.w3.org/2000/svg"
   xmlns:svg="http://www.w3.org/2000/svg">
  <defs
     id="defs4" />
  <sodipodi:namedview
     id="namedview4"
     pagecolor="#ffffff"
     bordercolor="#000000"
     borderopacity="0.25"
     inkscape:showpageshadow="2"
     inkscape:pageopacity="0.0"
     inkscape:pagecheckerboard="0"
     inkscape:deskcolor="#d1d1d1" />
  <g
     id="color"
     transform="translate(-20.695302,-24.155987)">
    <path
       fill="#d22f27"
       d="m 22.5593,44.7178 c -0.5773,-2.5154 -2.0374,-10.5013 1.2395,-15.72 a 6.6807,6.6807 0 0 1 2.559,-2.33 c 2.4455,-1.2931 7.5647,-2.9953 13.6578,0.7518 v 13.5525 a 70.9621,70.9621 0 0 1 -7.6985,0.6768 3.0564,3.0564 0 0 0 -2.4926,1.32 c -1.3449,1.9631 -4.0426,5.1737 -6.3169,3.3551 a 2.8422,2.8422 0 0 1 -0.9483,-1.6062 z"
       id="path1" />
    <path
       fill="#d22f27"
       d="M 40.0156,27.4084 V 40.9721 A 14.93,14.93 0 0 0 47.7761,36 c 0,0 2.644,-2.8227 4.6357,-3.3378 0,0 3.5712,-1.7856 -0.79,-3.7429 A 32.7714,32.7714 0 0 0 40.0156,27.4084 Z"
       id="path2" />
  </g>
  <g
     id="line"
     transform="translate(-20.695302,-24.155987)">
    <path
       fill="none"
       stroke="#000000"
       stroke-linecap="round"
       stroke-linejoin="round"
       stroke-width="2"
       d="m 22.5593,44.7178 c -0.5773,-2.5154 -2.0374,-10.5013 1.2395,-15.72 a 6.6807,6.6807 0 0 1 2.559,-2.33 c 2.4455,-1.2931 7.5647,-2.9953 13.6578,0.7518 v 13.5525 a 70.9621,70.9621 0 0 1 -7.6985,0.6768 3.0564,3.0564 0 0 0 -2.4926,1.32 c -1.3449,1.9631 -4.0426,5.1737 -6.3169,3.3551 a 2.8422,2.8422 0 0 1 -0.9483,-1.6062 z"
       id="path3" />
    <path
       fill="none"
       stroke="#000000"
       stroke-linecap="round"
       stroke-linejoin="round"
       stroke-width="2"
       d="M 40.0156,27.4084 V 40.9721 A 14.93,14.93 0 0 0 47.7761,36 c 0,0 2.644,-2.8227 4.6357,-3.3378 0,0 3.5712,-1.7856 -0.79,-3.7429 A 32.7714,32.7714 0 0 0 40.0156,27.4084 Z"
       id="path4" />
  </g>
</svg>
