<svg xmlns="http://www.w3.org/2000/svg" xmlns:svg="http://www.w3.org/2000/svg" id="emoji" width="36.834" height="58.088" version="1.1" viewBox="0 0 36.834 58.088"><g id="color" transform="translate(-17.496728,-6.9578959)"><path id="path1" fill="#fff" d="m 23.0481,61.9023 c 0,0 -2.6029,0.0837 -2.5377,-1.7412 0.0652,-1.8249 0.9093,-3.0868 1.3655,-3.8689 0.4562,-0.7821 24.6495,-37.8917 24.6495,-37.8917 L 26.0267,59.405 c 0,0 -1.3349,2.5816 -2.9787,2.4972 z"/></g><g id="line" transform="translate(-17.496728,-6.9578959)"><path id="path2" fill="none" stroke="#000" stroke-linecap="round" stroke-miterlimit="10" stroke-width="3.251" d="m 23.21,63.42 c 1.6016,-0.2804 2.9369,-1.3839 3.514,-2.904 0,0 22.26,-40.97 25,-51.13"/><path id="path3" fill="none" stroke="#000" stroke-linecap="round" stroke-miterlimit="10" stroke-width="3.251" d="m 19.33,61.22 c -0.4682,-1.5641 -0.1359,-3.2585 0.8883,-4.53 0,0 24.13,-39.9 31.51,-47.4"/><path id="path4" d="m 51.3472,7.0815 2.522,1.4563 c 0.441,0.2547 0.5921,0.8185 0.3376,1.2596 l -5.5467,9.401 -3.9341,-2.1932 5.3616,-9.5861 c 0.2547,-0.441 0.8185,-0.5921 1.2596,-0.3376 z"/></g></svg>