<?xml version="1.0" encoding="UTF-8" standalone="no"?>
<svg
   id="emoji"
   viewBox="0 0 30.610954 51.476753"
   version="1.1"
   sodipodi:docname="e31a.svg"
   width="30.610954"
   height="51.476753"
   xmlns:inkscape="http://www.inkscape.org/namespaces/inkscape"
   xmlns:sodipodi="http://sodipodi.sourceforge.net/DTD/sodipodi-0.dtd"
   xmlns="http://www.w3.org/2000/svg"
   xmlns:svg="http://www.w3.org/2000/svg">
  <defs
     id="defs6" />
  <sodipodi:namedview
     id="namedview6"
     pagecolor="#ffffff"
     bordercolor="#000000"
     borderopacity="0.25"
     inkscape:showpageshadow="2"
     inkscape:pageopacity="0.0"
     inkscape:pagecheckerboard="0"
     inkscape:deskcolor="#d1d1d1" />
  <g
     id="color"
     transform="translate(-20.69453,-11.059317)">
    <path
       fill="#ffffff"
       d="m 46.3549,25.5221 c -6.873,-0.9152 -13.837,-0.9152 -20.71,0 1.5564,-4.3527 1.5564,-9.1101 0,-13.4628 6.8756,0.8756 13.8344,0.8756 20.71,0 -0.8753,4.4449 -0.8753,9.0179 0,13.4628 z"
       id="path1" />
    <path
       fill="#ffffff"
       d="m 50.3055,61.5361 c -9.4206,-2.1072 -19.1904,-2.1072 -28.611,0 2.1503,-10.2219 2.1503,-20.7794 0,-31.0013 9.4304,2.0162 19.1806,2.0162 28.611,0 -1.2093,10.2984 -1.2093,20.7029 0,31.0013 z"
       id="path2" />
    <path
       fill="#d0cfce"
       d="m 45.1934,24.3867 c -1.2266,0.083 -1.7218,-0.3019 -3.4987,-0.2399 1.091,-4.4213 1.471,-6.3368 0.38,-10.7581 1.5257,0.0513 1.7156,-0.0682 3.1803,-0.2645 -0.3137,1.9007 -0.97,4.3039 -0.0615,11.2625 z"
       id="path3" />
    <path
       fill="#d0cfce"
       d="m 49.3117,60.6023 c -2.822,-0.998 -2.2276,-0.3424 -5.4449,-0.8831 1.5073,-10.2788 1.5073,-17.2745 0,-27.5533 2.6698,-0.2026 2.5541,-0.0248 5.4449,-0.7819 -0.1377,10.4621 -1.7207,11.1504 0,29.2182 z"
       id="path4" />
  </g>
  <g
     id="line"
     transform="translate(-20.69453,-11.059317)">
    <path
       fill="none"
       stroke="#000000"
       stroke-linecap="round"
       stroke-linejoin="round"
       stroke-width="2"
       d="m 46.3549,25.5221 c -6.873,-0.9152 -13.837,-0.9152 -20.71,0 1.5564,-4.3527 1.5564,-9.1101 0,-13.4628 6.8756,0.8756 13.8344,0.8756 20.71,0 -0.8753,4.4449 -0.8753,9.0179 0,13.4628 z"
       id="path5" />
    <path
       fill="none"
       stroke="#000000"
       stroke-linecap="round"
       stroke-linejoin="round"
       stroke-width="2"
       d="m 50.3055,61.5361 c -9.4206,-2.1072 -19.1904,-2.1072 -28.611,0 2.1503,-10.2219 2.1503,-20.7794 0,-31.0013 9.4304,2.0162 19.1806,2.0162 28.611,0 -1.2093,10.2984 -1.2093,20.7029 0,31.0013 z"
       id="path6" />
  </g>
</svg>
