<?xml version="1.0" encoding="UTF-8" standalone="no"?>
<svg
   id="emoji"
   viewBox="0 0 42.3633 57.004452"
   version="1.1"
   sodipodi:docname="e31d.svg"
   width="42.3633"
   height="57.004452"
   xmlns:inkscape="http://www.inkscape.org/namespaces/inkscape"
   xmlns:sodipodi="http://sodipodi.sourceforge.net/DTD/sodipodi-0.dtd"
   xmlns="http://www.w3.org/2000/svg"
   xmlns:svg="http://www.w3.org/2000/svg">
  <defs
     id="defs9" />
  <sodipodi:namedview
     id="namedview9"
     pagecolor="#ffffff"
     bordercolor="#000000"
     borderopacity="0.25"
     inkscape:showpageshadow="2"
     inkscape:pageopacity="0.0"
     inkscape:pagecheckerboard="0"
     inkscape:deskcolor="#d1d1d1" />
  <g
     id="color"
     transform="translate(-15.01335,-5.295)">
    <path
       fill="#d0cfce"
       d="m 56.376,61.2988 v -1.777 a 1.6353,1.6353 0 0 1 -0.0921,-0.5063 3.5622,3.5622 0 0 0 -2.0255,-3.48 c -0.2486,-0.1381 -0.4879,-0.3039 -0.7365,-0.442 A 48.5558,48.5558 0 0 0 46,51.9262 C 44.7755,51.4935 43.5417,51.0791 42.3264,50.628 a 1.6365,1.6365 0 0 1 -1.1692,-1.62 c -0.0093,-1.05 -0.0369,-2.0992 0.0276,-3.1488 a 2.2723,2.2723 0 0 1 0.46,-1.2245 9.0448,9.0448 0 0 0 1.8052,-4.2171 6.8664,6.8664 0 0 1 0.5708,-2.0439 10.5933,10.5933 0 0 0 1.0864,-3.1672 6.0558,6.0558 0 0 0 0.0092,-1.5283 C 45.0796,33.0521 44.9507,32.426 44.9507,31.7907 a 9.24,9.24 0 0 1 0.1565,-1.5927 7.5977,7.5977 0 0 0 -2.3754,-6.7855 8.52,8.52 0 0 0 -4.87,-2.3662 14.88,14.88 0 0 0 -1.556,-0.1657 v -0.0092 a 0.4491,0.4491 0 0 0 -0.1105,0.0092 0.3774,0.3774 0 0 0 -0.1012,-0.0092 v 0.0092 a 15.3227,15.3227 0 0 0 -1.5652,0.1657 8.5473,8.5473 0 0 0 -4.87,2.3662 7.5917,7.5917 0 0 0 -2.3662,6.7855 11.511,11.511 0 0 1 0.1565,1.5927 c -0.0092,0.6353 -0.1289,1.2614 -0.1657,1.8875 a 6.5256,6.5256 0 0 0 0,1.5283 10.6134,10.6134 0 0 0 1.0956,3.1672 7.14,7.14 0 0 1 0.5616,2.0439 9.059,9.059 0 0 0 1.8138,4.2167 2.2723,2.2723 0 0 1 0.46,1.2245 c 0.0645,1.05 0.0276,2.0992 0.0184,3.1488 a 1.626,1.626 0 0 1 -1.1692,1.62 c -1.2153,0.4511 -2.4491,0.8655 -3.6736,1.2982 a 48.0815,48.0815 0 0 0 -7.5128,3.1671 c -0.2486,0.1381 -0.4879,0.3039 -0.7365,0.442 a 3.5622,3.5622 0 0 0 -2.0255,3.48 1.9783,1.9783 0 0 1 -0.1013,0.5063 v 1.777"
       id="path1" />
    <path
       fill="#d22f27"
       d="m 31.0092,22.43 c 1.4088,-0.7011 6.1177,-2.6571 10.4337,-0.0071 a 0.768,0.768 0 0 1 0.3574,0.6533 V 26.16 a 0.7675,0.7675 0 0 1 -0.9717,0.7346 17.29,17.29 0 0 0 -9.2809,-0.0365 0.7581,0.7581 0 0 1 -0.9589,-0.7362 V 23.1132 A 0.7583,0.7583 0 0 1 31.0092,22.43 Z"
       id="path2" />
  </g>
  <g
     id="line"
     transform="translate(-15.01335,-5.295)">
    <path
       fill="none"
       stroke="#000000"
       stroke-linecap="round"
       stroke-linejoin="round"
       stroke-width="2.0013"
       d="m 56.376,61.2988 v -1.777 a 1.6353,1.6353 0 0 1 -0.0921,-0.5063 3.5622,3.5622 0 0 0 -2.0255,-3.48 c -0.2486,-0.1381 -0.4879,-0.3039 -0.7365,-0.442 A 48.5558,48.5558 0 0 0 46,51.9262 C 44.7755,51.4935 43.5417,51.0791 42.3264,50.628 a 1.6365,1.6365 0 0 1 -1.1692,-1.62 c -0.0093,-1.05 -0.0369,-2.0992 0.0276,-3.1488 a 2.2723,2.2723 0 0 1 0.46,-1.2245 9.0448,9.0448 0 0 0 1.8052,-4.2171 6.8664,6.8664 0 0 1 0.5708,-2.0439 10.5933,10.5933 0 0 0 1.0864,-3.1672 6.0558,6.0558 0 0 0 0.0092,-1.5283 C 45.0796,33.0521 44.9507,32.426 44.9507,31.7907 a 9.24,9.24 0 0 1 0.1565,-1.5927 7.5977,7.5977 0 0 0 -2.3754,-6.7855 8.52,8.52 0 0 0 -4.87,-2.3662 14.88,14.88 0 0 0 -1.556,-0.1657 v -0.0092 a 0.4491,0.4491 0 0 0 -0.1105,0.0092 0.3774,0.3774 0 0 0 -0.1012,-0.0092 v 0.0092 a 15.3227,15.3227 0 0 0 -1.5652,0.1657 8.5473,8.5473 0 0 0 -4.87,2.3662 7.5917,7.5917 0 0 0 -2.3662,6.7855 11.511,11.511 0 0 1 0.1565,1.5927 c -0.0092,0.6353 -0.1289,1.2614 -0.1657,1.8875 a 6.5256,6.5256 0 0 0 0,1.5283 10.6134,10.6134 0 0 0 1.0956,3.1672 7.14,7.14 0 0 1 0.5616,2.0439 9.059,9.059 0 0 0 1.8138,4.2167 2.2723,2.2723 0 0 1 0.46,1.2245 c 0.0645,1.05 0.0276,2.0992 0.0184,3.1488 a 1.626,1.626 0 0 1 -1.1692,1.62 c -1.2153,0.4511 -2.4491,0.8655 -3.6736,1.2982 a 48.0815,48.0815 0 0 0 -7.5128,3.1671 c -0.2486,0.1381 -0.4879,0.3039 -0.7365,0.442 a 3.5622,3.5622 0 0 0 -2.0255,3.48 1.9783,1.9783 0 0 1 -0.1013,0.5063 v 1.777"
       id="path3" />
    <path
       fill="none"
       stroke="#000000"
       stroke-miterlimit="10"
       stroke-width="2"
       d="m 31.0092,22.43 c 1.4088,-0.7011 6.1177,-2.6571 10.4337,-0.0071 a 0.768,0.768 0 0 1 0.3574,0.6533 V 26.16 a 0.7675,0.7675 0 0 1 -0.9717,0.7346 17.29,17.29 0 0 0 -9.2809,-0.0365 0.7581,0.7581 0 0 1 -0.9589,-0.7362 V 23.1132 A 0.7583,0.7583 0 0 1 31.0092,22.43 Z"
       id="path4" />
    <polyline
       fill="none"
       stroke="#000000"
       stroke-linecap="round"
       stroke-linejoin="round"
       stroke-width="2"
       points="43.393 16.948 45.375 12.911 47.402 15.063 49.892 9.991"
       id="polyline4" />
    <polyline
       fill="none"
       stroke="#000000"
       stroke-linecap="round"
       stroke-linejoin="round"
       stroke-width="2"
       points="24.574 8.857 26.906 12.702 24.002 13.251 26.933 18.082"
       id="polyline5" />
    <polyline
       fill="none"
       stroke="#000000"
       stroke-linecap="round"
       stroke-linejoin="round"
       stroke-width="2"
       points="36.737 15.28 36.548 10.787 33.826 11.94 33.588 6.295"
       id="polyline6" />
  </g>
  <g
     id="color-foreground"
     transform="translate(-15.01335,-5.295)">
    <polyline
       fill="none"
       stroke="#d22f27"
       stroke-linecap="round"
       stroke-linejoin="round"
       stroke-width="2"
       points="43.393 16.948 45.375 12.911 47.402 15.063 49.892 9.991"
       id="polyline7" />
    <polyline
       fill="none"
       stroke="#d22f27"
       stroke-linecap="round"
       stroke-linejoin="round"
       stroke-width="2"
       points="24.574 8.857 26.906 12.702 24.002 13.251 26.933 18.082"
       id="polyline8" />
    <polyline
       fill="none"
       stroke="#d22f27"
       stroke-linecap="round"
       stroke-linejoin="round"
       stroke-width="2"
       points="36.737 15.28 36.548 10.787 33.826 11.94 33.588 6.295"
       id="polyline9" />
  </g>
</svg>
