<?xml version="1.0" encoding="UTF-8" standalone="no"?>
<svg
   id="emoji"
   viewBox="0 0 42.285999 27.92794"
   version="1.1"
   sodipodi:docname="e328.svg"
   width="42.285999"
   height="27.92794"
   xmlns:inkscape="http://www.inkscape.org/namespaces/inkscape"
   xmlns:sodipodi="http://sodipodi.sourceforge.net/DTD/sodipodi-0.dtd"
   xmlns="http://www.w3.org/2000/svg"
   xmlns:svg="http://www.w3.org/2000/svg">
  <defs
     id="defs5" />
  <sodipodi:namedview
     id="namedview5"
     pagecolor="#ffffff"
     bordercolor="#000000"
     borderopacity="0.25"
     inkscape:showpageshadow="2"
     inkscape:pageopacity="0.0"
     inkscape:pagecheckerboard="0"
     inkscape:deskcolor="#d1d1d1" />
  <g
     id="color"
     transform="translate(-15,-29.072058)">
    <polygon
       fill="#92d3f5"
       points="16,40.484 56.286,40.484 56.286,34.519 56.286,30.072 46.894,34.519 16,34.519 "
       id="polygon1" />
  </g>
  <g
     id="line"
     transform="translate(-15,-29.072058)">
    <polygon
       fill="none"
       stroke="#000000"
       stroke-linecap="round"
       stroke-linejoin="round"
       stroke-width="2"
       points="16,40.484 56.286,40.484 56.286,34.519 56.286,30.072 46.894,34.519 16,34.519 "
       id="polygon2" />
    <path
       fill="none"
       stroke="#000000"
       stroke-linecap="round"
       stroke-linejoin="round"
       stroke-width="2"
       d="M 28.3152,34.0516 V 32.31 a 2.1186,2.1186 0 0 1 2.1186,-2.1186 h 11.4189 a 2.1185,2.1185 0 0 1 2.1185,2.1186 v 1.7418"
       id="path2" />
    <circle
       cx="24.339701"
       cy="53.078499"
       r="2.9215"
       fill="none"
       stroke="#000000"
       stroke-linecap="round"
       stroke-linejoin="round"
       stroke-width="2"
       id="circle2" />
    <circle
       cx="48.1717"
       cy="53.078499"
       r="2.9215"
       fill="none"
       stroke="#000000"
       stroke-linecap="round"
       stroke-linejoin="round"
       stroke-width="2"
       id="circle3" />
    <line
       x1="45.009602"
       x2="27.011101"
       y1="40.6516"
       y2="51.597698"
       fill="none"
       stroke="#000000"
       stroke-miterlimit="10"
       stroke-width="2"
       id="line3" />
    <line
       x1="28.698601"
       x2="45.009602"
       y1="40.6516"
       y2="51.9883"
       fill="none"
       stroke="#000000"
       stroke-miterlimit="10"
       stroke-width="2"
       id="line4" />
    <line
       x1="27.2612"
       x2="45.250301"
       y1="53.078499"
       y2="53.078499"
       fill="none"
       stroke="#000000"
       stroke-miterlimit="10"
       stroke-width="2"
       id="line5" />
  </g>
</svg>
