<svg xmlns="http://www.w3.org/2000/svg" xmlns:svg="http://www.w3.org/2000/svg" id="emoji" width="42.286" height="27.928" version="1.1" viewBox="0 0 42.286 27.928"><g id="color" transform="translate(-15,-29.072058)"><polygon id="polygon1" fill="#92d3f5" points="16 40.484 56.286 40.484 56.286 34.519 56.286 30.072 46.894 34.519 16 34.519"/></g><g id="line" transform="translate(-15,-29.072058)"><polygon id="polygon2" fill="none" stroke="#000" stroke-linecap="round" stroke-linejoin="round" stroke-width="2" points="16 40.484 56.286 40.484 56.286 34.519 56.286 30.072 46.894 34.519 16 34.519"/><path id="path2" fill="none" stroke="#000" stroke-linecap="round" stroke-linejoin="round" stroke-width="2" d="M 28.3152,34.0516 V 32.31 a 2.1186,2.1186 0 0 1 2.1186,-2.1186 h 11.4189 a 2.1185,2.1185 0 0 1 2.1185,2.1186 v 1.7418"/><circle id="circle2" cx="24.34" cy="53.078" r="2.921" fill="none" stroke="#000" stroke-linecap="round" stroke-linejoin="round" stroke-width="2"/><circle id="circle3" cx="48.172" cy="53.078" r="2.921" fill="none" stroke="#000" stroke-linecap="round" stroke-linejoin="round" stroke-width="2"/><line id="line3" x1="45.01" x2="27.011" y1="40.652" y2="51.598" fill="none" stroke="#000" stroke-miterlimit="10" stroke-width="2"/><line id="line4" x1="28.699" x2="45.01" y1="40.652" y2="51.988" fill="none" stroke="#000" stroke-miterlimit="10" stroke-width="2"/><line id="line5" x1="27.261" x2="45.25" y1="53.078" y2="53.078" fill="none" stroke="#000" stroke-miterlimit="10" stroke-width="2"/></g></svg>