<svg xmlns="http://www.w3.org/2000/svg" xmlns:svg="http://www.w3.org/2000/svg" id="emoji" width="58.1" height="41.602" version="1.1" viewBox="0 0 58.1 41.602"><g id="color" transform="translate(-6.95,-19.5)"><polygon id="polygon1" fill="#5c9e31" stroke-width=".693" points="25.93 46.23 42.45 53.93 54.88 42.11 24.74 37.1 24.74 38.44 25.9 38.71" transform="matrix(1.444,0,0,1.444,-14.66,-27.73)"/></g><g id="line" fill="none" stroke-linecap="round" stroke-linejoin="round" stroke-width="2" transform="translate(-6.95,-19.5)"><path id="path1" stroke="#000" d="m 7.95,20.5 9.409,4.316 1.505,12.74 35.49,17.15"/><path id="path2" stroke="#000" d="m 19.99,38.31 c 0,0 -0.6416,14.85 -0.1209,16.16 0.4215,1.06 4.497,2.403 5.832,0.8481 1.466,-1.708 4.697,-12.84 4.697,-12.84"/><path id="path3" stroke="#000" d="m 59.66,54.71 a 5.302,5.392 0 0 1 -5.302,5.392 5.302,5.392 0 0 1 -5.302,-5.392 5.302,5.392 0 0 1 5.302,-5.392 5.302,5.392 0 0 1 5.302,5.392"/><path id="path4" stroke="#000" d="M 64.05,33.49 21.83,26.426 v 1.892 l 1.628,0.379 0.03923,10.6 23.14,10.85 z"/></g></svg>