<?xml version="1.0" encoding="UTF-8" standalone="no"?>
<svg
   id="emoji"
   viewBox="0 0 17.6674 49.947956"
   version="1.1"
   sodipodi:docname="e346.svg"
   width="17.6674"
   height="49.947956"
   xmlns:inkscape="http://www.inkscape.org/namespaces/inkscape"
   xmlns:sodipodi="http://sodipodi.sourceforge.net/DTD/sodipodi-0.dtd"
   xmlns="http://www.w3.org/2000/svg"
   xmlns:svg="http://www.w3.org/2000/svg">
  <defs
     id="defs7" />
  <sodipodi:namedview
     id="namedview7"
     pagecolor="#ffffff"
     bordercolor="#000000"
     borderopacity="0.25"
     inkscape:showpageshadow="2"
     inkscape:pageopacity="0.0"
     inkscape:pagecheckerboard="0"
     inkscape:deskcolor="#d1d1d1" />
  <g
     id="color"
     transform="translate(-27.1626,-11.033)">
    <path
       fill="#d0cfce"
       d="m 36,35.34 v 24.64 c 0,0 -7.518,-6.788 -8.104,-8.13 C 27.31,50.508 27.6194,35.59 27.6194,35.59 Z"
       id="path1" />
    <path
       fill="#9b9b9a"
       d="M 44.36,35.78 44.467,51 c 0,0 -6.624,7.454 -8.463,8.976 -0.02152,-2.034 0,-23.9 0,-23.9 z"
       id="path2" />
    <path
       fill="#a57939"
       d="m 41.14,19.39 c 0,-4.109 -2.298,-7.439 -5.134,-7.439 -2.836,0 -5.134,3.331 -5.134,7.439 h 0.0026 l 1.608,8.75 h -1.402 v 3.115 h 9.672 V 28.14 h -0.9924 z"
       id="path3" />
  </g>
  <g
     id="line"
     transform="translate(-27.1626,-11.033)">
    <path
       fill="none"
       stroke="#000000"
       stroke-linecap="round"
       stroke-linejoin="round"
       stroke-width="2"
       d="m 41.07,19.57 c 0,-4.163 -2.359,-7.537 -5.269,-7.537 -2.91,0 -5.269,3.375 -5.269,7.537 h 0.0026 l 1.651,8.866 h -1.439 v 3.156 h 9.927 v -3.156 h -1.019 z"
       id="path4" />
    <path
       fill="#000000"
       d="m 32.46,31.59 v 4.528 h 6.932 V 31.59 Z"
       id="path5" />
    <path
       fill="none"
       stroke="#000000"
       stroke-linecap="round"
       stroke-linejoin="round"
       stroke-width="2"
       d="M 43.83,51.9 43.6426,36.12 h -15.48 v 15.86 l 7.832,8.001 z"
       id="path6" />
    <path
       fill="none"
       stroke="#000000"
       stroke-linecap="round"
       stroke-linejoin="round"
       stroke-width="2"
       d="m 32.38,36.12 2.281,5.303 c 0.4681,1.149 2.091,1.216 2.654,0.1089 l 2.296,-5.412"
       id="path7" />
    <ellipse
       cx="35.799999"
       cy="17.76"
       rx="1.915"
       ry="1.89"
       id="ellipse7" />
  </g>
</svg>
